<?xml version="1.0" encoding="UTF-8"?>
<svg width="200px" height="200px" viewBox="0 0 200 200" version="1.1" xmlns="http://www.w3.org/2000/svg" xmlns:xlink="http://www.w3.org/1999/xlink">
    <!-- Generator: Sketch 54.1 (76490) - https://sketchapp.com -->
    <title>adams-st</title>
    <desc>Created with Sketch.</desc>
    <g id="adams-st" stroke="none" stroke-width="1" fill="none" fill-rule="evenodd">
        <g id="adams-st_BGL">
            <g id="adams-st" transform="translate(10.000000, 0.000000)">
                <g id="g10" transform="translate(89.827253, 100.053745) scale(-1, 1) rotate(-180.000000) translate(-89.827253, -100.053745) translate(0.000000, 0.245686)" fill-rule="nonzero">
                    <g id="g12">
                        <path d="M61.2130503,120.200125 C61.613818,120.200125 62.0258462,120.224693 62.4368506,120.272294 C65.9459996,120.681763 69.253997,122.80793 71.7517576,126.259242 C73.925526,129.26372 75.3141376,133.051308 75.6606507,136.925908 C75.662698,136.946894 75.6637217,136.967367 75.6647454,136.98784 C75.9063321,136.672038 76.1576436,136.366471 76.4268695,136.080867 C78.4051164,133.976196 81.0241822,132.816887 83.8019173,132.816887 C84.280996,132.816887 84.7662167,132.851692 85.2468309,132.919766 C88.6157367,133.401404 91.7415204,135.508634 94.0468307,138.85246 C95.08637,140.360841 95.9150328,142.06372 96.5046681,143.867431 C96.9182317,142.782338 97.4541242,141.779651 98.1113219,140.880355 C100.00614,138.286881 102.769031,136.767239 105.89072,136.600892 C106.079588,136.591167 106.269479,136.586049 106.456811,136.586049 C110.90518,136.586049 115.383746,139.464104 118.583746,143.943694 C118.625717,141.85182 119.054636,139.90889 119.879204,138.255659 C121.20793,135.588992 123.473317,133.753548 126.256171,133.089184 C127.010617,132.908506 127.796798,132.816887 128.593727,132.816887 C131.356619,132.816887 134.223925,133.959818 136.817399,135.935505 C135.722581,132.018423 135.880227,128.180675 137.326676,125.278564 C138.594494,122.73525 140.75649,120.984258 143.417015,120.34651 C144.13768,120.174021 144.886497,120.086497 145.643502,120.086497 C151.117591,120.086497 157.00729,124.824053 159.966727,131.606395 C161.789887,135.784002 162.240303,139.861801 161.256042,143.170822 C162.226995,147.606906 162.876004,155.651436 157.754059,163.313112 L147.442095,178.741902 L148.235441,160.201148 C148.312216,158.393854 148.395646,152.397181 146.392319,148.720662 C145.889184,148.446829 145.394238,148.13205 144.906458,147.787584 C145.983874,151.188736 146.192191,154.44555 145.488928,157.201276 C146.906714,162.029938 147.852587,169.172101 144.868582,176.755466 L137.844654,194.603706 L134.890848,175.651947 C134.452204,172.838895 133.385025,167.722581 131.077156,164.20473 C128.138704,163.017782 125.367111,160.659753 123.141136,157.527827 C123.207163,160.690463 122.537681,163.547021 121.157259,165.785281 C121.222774,168.765191 123.083298,173.630194 126.221366,178.97837 L133.667047,191.718485 L138.441455,199.478434 L130.870886,194.301723 L118.716824,185.842606 C110.476261,179.972356 106.319639,173.096349 104.258475,168.180674 C100.79232,165.635824 97.9495817,161.327187 96.4882893,156.422261 C95.8981422,157.984897 95.0694794,159.369414 94.0197033,160.502619 C93.8287884,162.540751 94.5085069,166.513623 96.9801639,172.1991 L104.459626,187.023924 L108.768775,195.38528 L101.431092,189.364039 L88.7472787,178.184001 L88.718104,178.157385 C81.509403,171.539343 78.7306442,164.572741 77.6839392,159.708249 C75.0551485,156.896733 73.2923846,152.788736 72.8593712,148.475492 C72.6653853,148.728339 72.466281,148.975556 72.2543808,149.20793 C71.9728709,151.69443 72.9648094,155.968262 74.9717192,160.839919 L82.7040286,177.319509 L86.4501578,185.601019 L79.5644254,179.529106 L66.6252063,166.66052 C59.6990388,160.245166 56.7866908,153.502747 55.5664733,148.790783 C52.50211,145.771973 50.4282521,141.067687 49.9830058,136.067047 C49.5431338,131.140112 50.8453474,126.613944 53.5564926,123.649901 C55.5910415,121.425461 58.3104272,120.200125 61.2130503,120.200125" id="path14" fill="#FFFFFF"></path>
                        <path d="M112.352652,34.5043625 C110.739345,31.6478559 108.889057,29.2698137 106.85502,27.436007 C104.883939,25.6593724 102.306843,24.1648618 99.1928318,22.9936271 C96.1172081,21.8328337 92.5619938,21.2339854 88.6362102,21.2145868 L81.1808041,21.2140238 C78.4076756,21.2140238 76.0583474,21.6368517 74.1952637,22.4706328 C72.5927045,23.1855656 71.4497743,24.1105048 70.7009579,25.2964805 C69.6568121,26.9487901 68.8399215,28.7360198 68.2733188,30.6084189 C67.7302606,32.4064483 67.475878,34.4951495 67.5158013,36.8174015 C67.5178486,36.8961731 67.5198959,36.9729485 67.5214315,37.0523343 L69.5738946,37.1271136 L67.7486867,34.4051687 L79.3248861,37.2350598 C79.4154811,37.2380797 79.5413928,37.2400758 79.7108105,37.2400758 C79.7338432,37.2400758 79.7558521,37.2400758 79.7758137,37.2396664 L83.3458712,36.2534092 L84.8772851,39.7210995 L85.0804841,36.3685723 L90.1676241,37.2197048 C90.2873938,37.2263075 90.6185518,37.2400758 91.3387053,37.2400758 C92.1663445,37.2400758 92.5573873,37.225898 92.7068435,37.2186811 L99.9846424,35.9315154 L99.6197032,37.2330637 C99.9288523,37.2252838 100.275877,37.2078813 100.658731,37.1833132 L103.071527,37.0287387 L104.283555,38.488086 L104.53026,37.0333452 L110.505947,37.2400758 L113.800125,37.2400758 C113.349709,36.3321808 112.869607,35.4200887 112.352652,34.5043625 Z M176.485216,94.6896969 L173.590271,96.2180398 C172.376707,96.8783085 170.860136,97.4090827 168.817398,97.8850903 C166.912856,98.3303878 164.893662,98.5561076 162.815095,98.5561076 C159.69443,98.5561076 156.743694,97.8651287 154.01356,96.4985261 L154.232626,98.7603302 L153.97466,98.7603302 C155.423157,104.284066 156.800508,108.862953 158.094942,112.456555 L158.554571,113.731539 L157.488416,120.164296 L144.359817,119.419575 C141.894302,119.425717 139.309018,119.578756 136.676132,119.875621 L133.898909,120.187329 L130.625717,116.275365 L130.499293,114.611385 C130.143055,109.901981 129.320022,103.92834 128.044527,96.7708229 L127.511705,98.7603302 L113.5396,98.7603302 L111.814201,94.0094666 C110.631347,90.7541884 109.439793,87.5117061 108.249773,84.3142653 C107.77223,86.8673043 107.263465,89.6424802 106.726037,92.6223905 L105.658859,98.5561076 L91.8884174,98.5561076 L89.7581551,95.2552759 C88.1530368,92.7682638 86.4388974,90.1343548 84.643376,87.3909127 C83.271655,90.2853464 81.2432481,92.6725505 78.6098509,94.5202791 C80.4391535,101.985922 82.1691598,107.990272 83.7783728,112.454508 L84.0870101,113.309786 L84.0870101,120.093151 L64.8327559,119.419575 C61.2780535,119.421622 57.1209199,119.582339 52.47703,119.896606 L50.1077403,120.056299 L46.5852835,116.506715 L46.4529227,114.574533 C46.1582074,110.273574 45.4702484,104.916184 44.3980027,98.5561076 L30.9191035,98.5561076 L28.7887901,95.2557878 C23.5472803,87.1360183 17.343672,77.7310281 10.3503004,67.3008301 L0,51.8664095 L17.6529746,56.183236 C17.8299164,56.1898898 18.1348172,56.1980792 18.6126675,56.1980792 C18.763608,56.1980792 18.8851691,56.1970555 18.9827251,56.1944964 L24.4781568,54.6763902 L26.9941388,60.3715916 C27.5663717,61.6680727 28.4391036,63.3975672 29.5937549,65.5262939 C29.698886,64.5353791 29.7766851,63.638642 29.8246442,62.8447841 L30.3132942,54.8534855 L35.5761987,55.7323083 L33.7564163,47.2618798 C32.4394106,41.9023918 32.0077791,36.9739722 32.4755974,32.6121553 C32.9266786,28.4016883 33.7631725,24.6203449 34.9614323,21.3711575 C36.2867809,17.7673188 38.3417521,14.608317 41.0696343,11.9821878 C43.5262945,9.61530366 46.1312337,7.62697358 48.8083929,6.07283414 C51.5024939,4.50316048 54.5683927,3.23476383 57.9209199,2.30426098 C61.0927688,1.42234673 64.1361468,0.809740223 66.9650655,0.482645669 C69.8293009,0.150951756 79.9631458,0.000999682637 82.6415846,0.000999682637 L82.7941118,0 C99.1785004,0.000999682637 112.699677,4.6715034 122.982467,13.8825332 C132.516439,22.4236463 139.359178,34.9767874 143.355595,51.2255905 L149.780674,51.2255905 L150.609337,56.283044 C152.357258,55.9539333 154.158921,55.7840037 155.976963,55.7840037 C160.542542,55.7840037 164.620341,57.0784375 168.097757,59.6309646 C171.776323,62.3309006 174.078051,65.7351231 174.937935,69.7417769 C175.383233,71.7809323 175.336656,73.7950078 174.79974,75.7266776 C174.658473,76.2380019 174.494174,76.7329475 174.306841,77.2089552 L174.530514,77.2191919 L176.059369,81.9659608 C176.971461,84.7897612 177.424948,85.7550842 177.542158,85.9833632 L179.202555,89.2222626 L176.485216,94.6896969 L176.485216,94.6896969 Z" id="path16" fill="#FFFFFF"></path>
                        <path d="M73.1874582,161.625588 L80.9392174,178.147148 L67.9744065,165.253995 C60.9417771,158.750604 58.3068444,151.89507 57.3200242,147.766599 C54.3820844,145.111193 52.3516302,140.696606 51.9242469,135.893535 C51.5326922,131.510681 52.652078,127.527572 54.9947523,124.96532 C56.6556608,123.149837 58.8637221,122.149197 61.2130503,122.149197 C61.5426728,122.149197 61.8784374,122.169671 62.2111309,122.208058 C65.1710796,122.553548 67.9984628,124.397694 70.172743,127.40166 C72.1438242,130.126164 73.4034531,133.569798 73.719256,137.098397 C74.1364025,141.804219 72.9172087,145.879971 70.4286611,148.292767 C69.8369784,151.102747 70.8171447,155.882786 73.1874582,161.625588" id="path18" fill="#231F20"></path>
                        <path d="M144.412536,117.470503 C141.860521,117.474597 139.18413,117.631219 136.45809,117.938833 L134.72143,118.133842 L132.52207,115.505051 L132.443247,114.463977 C131.856683,106.727061 130.038129,95.6586029 127.033138,81.5641694 L121.09635,53.592833 C120.255403,49.6021485 119.302364,46.0023021 118.26692,42.8924877 C117.259114,39.8668192 115.840816,36.7212275 114.049389,33.5462564 C112.332691,30.5060517 110.351373,27.9630447 108.160202,25.9878688 C106.007931,24.048112 103.223542,22.4276386 99.8812515,21.1700059 C96.5865619,19.9268069 92.8040924,19.2870117 88.6362102,19.2660264 C88.5671123,19.2660264 81.2509257,19.2654122 81.1808041,19.2654122 C78.131284,19.2654122 75.5158011,19.7440814 73.4014057,20.6909784 C71.4359547,21.5683168 70.0135619,22.7343308 69.0528454,24.2554568 C67.9145217,26.0570691 67.0249503,28.0050153 66.4081877,30.0441707 C65.8057565,32.0373632 65.5232229,34.3294169 65.5677527,36.8528206 C65.6184245,39.6319376 65.7596913,42.1215089 65.985411,44.2554563 C66.2055006,46.3579771 66.572999,48.6090327 67.0771576,50.9457185 L73.36916,80.2195757 C76.4719111,94.8724225 79.3576436,105.940368 81.9449756,113.1158 L82.1379378,113.650157 L82.1379378,118.074981 L64.8670489,117.470503 C61.2591156,117.472038 57.0467036,117.63429 52.3454881,117.951629 L50.8643365,118.051948 L48.4801012,115.649389 L48.3973372,114.440944 C47.8683033,106.714265 46.090645,95.6473425 43.1175933,81.5590511 L35.6557893,46.8242087 C34.3872032,41.6746759 33.9693402,36.9631725 34.4135628,32.8195001 C34.8470369,28.7713876 35.6465762,25.14554 36.7904277,22.0437614 C38.0130509,18.7197948 39.908022,15.8065255 42.4220079,13.3861033 C44.7658594,11.1282403 47.2460641,9.23306439 49.78989,7.75692879 C52.3388343,6.27198961 55.2501586,5.06817646 58.4424809,4.1816608 C61.5165692,3.32793338 64.4596273,2.73472546 67.1892498,2.41902489 C69.875878,2.10712727 79.8868822,1.95017781 82.646703,1.95017781 L82.7941118,1.948975 C114.722966,1.95057705 134.737809,19.8786431 142.280227,55.2368508 L147.601276,80.1924484 C150.75214,94.8350584 153.664999,105.912217 156.261033,113.116312 L156.548685,113.914776 L155.852075,118.119511 L144.412536,117.470503" id="path20" fill="#231F20"></path>
                        <path d="M130.2142,80.8880338 C133.263208,95.1953911 135.086369,106.306331 135.685217,114.218807 L136.094174,114.707611 C138.978371,114.382595 141.781698,114.218807 144.503643,114.218807 L153.121941,114.707611 L153.202811,114.218807 C150.545358,106.847342 147.618678,95.7317954 144.422773,80.8762616 L139.100188,55.9150338 C131.894558,22.1369156 113.157259,5.2355213 82.8857305,5.20133064 C82.8079314,5.20133064 75.4840672,5.20133064 75.4062681,5.20133064 C72.7518856,5.20133064 70.1369144,5.35027498 67.5639139,5.64918732 C64.9883541,5.94651297 62.23877,6.5023159 59.3126025,7.3156748 C56.3854113,8.12739583 53.7540614,9.20946874 51.4267422,10.5663977 C49.0932809,11.9205627 46.8446309,13.6404347 44.678489,15.7281634 C42.5090201,17.8154826 40.8977085,20.2943053 39.8414321,23.1667813 C38.7833644,26.0376705 38.0526158,29.3718227 37.6467297,33.1663715 C37.2396664,36.9617905 37.6319376,41.2683803 38.8247719,46.0934601 L46.2964032,80.8762616 C49.317414,95.1887372 51.0992694,106.303772 51.6412015,114.218807 L52.1259104,114.707611 C56.9315405,114.382595 61.1961597,114.218807 64.9233509,114.218807 L78.8867543,114.707611 L78.8867543,114.218807 C76.2287889,106.850413 73.3312842,95.739473 70.1875862,80.8931522 L63.8986548,51.6294293 C63.3719754,49.1910416 62.9880982,46.845194 62.7516299,44.5947526 C62.5131142,42.3462561 62.3698001,39.7854884 62.3160573,36.9131661 C62.2653855,34.0371073 62.5909133,31.4343178 63.2952,29.1040812 C64.0005102,26.7736398 65.0026855,24.5783231 66.3032613,22.5187966 C67.6053726,20.4586559 69.5283412,18.8591678 72.07575,17.7217142 C74.6221351,16.5819062 77.6573237,16.0132562 81.1808041,16.0132562 C81.2580914,16.0132562 81.334355,16.0138704 81.4106186,16.0142798 C85.9797803,16.0368518 97.348686,16.7386304 101.0293,18.1282145 C104.768264,19.5353546 107.871015,21.3511447 110.33653,23.5730768 C112.801533,25.7955208 114.982979,28.5876384 116.880867,31.9467682 C118.775173,35.3069217 120.269223,38.6134347 121.351756,41.8655908 C122.435825,45.1167743 123.409338,48.8015855 124.277924,52.9228394 L130.2142,80.8880338" id="path22" fill="#00452A"></path>
                        <path d="M119.217911,165.190015 C119.044911,168.535888 120.948941,173.844142 124.538449,179.961608 L131.98413,192.701723 L119.84747,184.255402 C111.469223,178.285856 107.564425,171.207161 105.845167,166.915415 C102.350861,164.559433 99.4528446,160.142286 98.1271888,155.051564 C96.7964147,149.953163 97.3635292,145.206394 99.6847064,142.030451 C101.228404,139.918103 103.469223,138.681506 105.994623,138.547405 C106.148174,138.538704 106.303772,138.535121 106.456811,138.535121 C112.363401,138.535121 118.389248,144.564552 120.473445,152.560969 C121.78477,157.584129 121.306203,162.195773 119.217911,165.190015" id="path24" fill="#231F20"></path>
                        <path d="M95.2153527,173.027251 L102.719895,187.901723 L90.0360822,176.722196 C82.7598188,170.040687 80.3019814,162.995261 79.4784369,158.757258 C76.7902732,156.119254 75.0055004,151.950348 74.7372982,147.535249 C74.4854748,143.475364 75.619192,139.785537 77.8467031,137.416247 C79.4528451,135.706714 81.5677523,134.76596 83.8019173,134.76596 C84.1883536,134.76596 84.5814438,134.794111 84.9709512,134.849389 C87.796287,135.253228 90.4486222,137.067175 92.442736,139.95905 C94.2464468,142.575044 95.352013,145.850284 95.5562356,149.180802 C95.826997,153.533969 94.5822113,157.318486 92.1878416,159.584897 C91.6135614,162.360073 92.7099145,167.278819 95.2153527,173.027251" id="path26" fill="#231F20"></path>
                        <path d="M143.457962,157.220725 C144.762121,161.395773 146.018167,168.512344 143.055147,176.042478 L138.663592,187.201531 L136.815864,175.352011 C136.317847,172.147405 135.087393,166.416886 132.335761,162.595517 C128.38848,161.235569 124.5277,157.216631 122.238769,151.969286 C120.187329,147.267559 119.957515,142.466023 121.624053,139.124757 C122.69072,136.983234 124.497502,135.512729 126.709146,134.984514 C127.31516,134.839664 127.948813,134.76596 128.593727,134.76596 C133.69008,134.76596 139.27063,139.395006 142.16404,146.023285 C143.971845,150.165575 144.418678,154.150732 143.457962,157.220725" id="path28" fill="#231F20"></path>
                        <path d="M156.134097,162.230578 L149.687008,171.876643 L150.181954,160.284577 C150.297117,157.611256 150.271525,151.212792 147.788608,147.247597 C144.524629,145.661417 141.460265,142.223925 139.618167,138.004347 C137.73205,133.675237 137.527828,129.244271 139.071014,126.147662 C140.076772,124.129491 141.780163,122.742927 143.869478,122.241328 C144.442735,122.105179 145.039024,122.03557 145.643502,122.03557 C150.366727,122.03557 155.521429,126.291488 158.179906,132.385921 C159.916567,136.364424 160.277411,140.167879 159.235825,143.080227 C160.099804,146.683042 161.15521,154.718358 156.134097,162.230578" id="path30" fill="#231F20"></path>
                        <path d="M108.488289,164.715031 C105.273446,163.017782 102.495199,158.923093 101.27447,154.232626 C99.5419041,147.598717 101.732563,142.030451 106.167112,141.793982 C110.599613,141.560585 115.597694,146.748557 117.326677,153.381954 C118.471654,157.770438 118.038129,161.808313 116.09008,163.903259 C115.206139,169.228403 118.900573,176.77901 121.73461,181.607673 C113.200765,175.527059 109.731539,168.200636 108.488289,164.715031" id="path32" fill="#00452A"></path>
                        <path d="M89.3527809,157.712088 C87.5920643,162.373892 90.3948794,170.105178 92.2354424,174.326803 C84.818424,167.516822 82.9568757,160.316311 82.4911048,157.080482 C79.9820837,155.136528 78.2269974,151.353547 77.9828515,147.33768 C77.6307082,141.654763 80.5558521,137.505819 84.5138814,138.068327 C88.4703753,138.633906 91.9621218,143.696478 92.3111941,149.379907 C92.5445914,153.13832 91.3975665,156.296349 89.3527809,157.712088" id="path34" fill="#00452A"></path>
                        <path d="M140.029171,174.851435 C139.375045,170.656426 137.821622,164.025588 134.241327,159.75022 C130.851948,159.09251 127.260393,155.347917 125.218167,150.66871 C122.603708,144.674085 123.607419,139.068455 127.465128,138.147661 C131.32079,137.223285 136.568135,141.331282 139.18413,147.324373 C140.836849,151.110425 141.183362,154.803323 139.999485,157.13013 C141.228915,160.563016 142.916951,167.513751 140.029171,174.851435" id="path36" fill="#00452A"></path>
                        <path d="M67.5797808,146.447597 C65.9275735,150.984513 68.2451678,158.175812 70.181956,162.866279 C63.0126664,156.235953 60.8803568,149.229939 60.2569403,145.963912 C57.4884183,143.99539 55.5480472,139.922709 55.1626346,135.604859 C54.617529,129.497118 57.6061406,124.944335 61.8344194,125.438257 C66.0616746,125.930643 69.9342273,131.281891 70.4808684,137.388096 C70.8391537,141.428019 69.7433124,144.901852 67.5797808,146.447597" id="path38" fill="#00452A"></path>
                        <path d="M153.430578,160.423285 C153.596413,156.548685 153.382466,149.192575 149.928083,144.626996 C147.118614,143.619702 144.2769,140.547149 142.598077,136.702748 C140.241071,131.293663 141.14651,126.238768 144.627508,125.403964 C148.108506,124.571718 152.841967,128.280483 155.199996,133.686497 C156.757002,137.252972 156.9991,140.721686 155.796797,142.807418 C156.516951,145.193598 158.322197,153.105562 153.430578,160.423285" id="path40" fill="#00452A"></path>
                        <path d="M116.549709,59.339218 L117.176709,62.1333318 C117.321046,62.7797809 117.52834,63.5608429 117.793471,64.4678167 C118.086241,63.4298129 118.303772,62.6359549 118.445039,62.091873 L119.156491,59.339218 L116.549709,59.339218 Z M95.7727423,47.0781306 C95.6422241,46.4583482 95.5219426,45.9198965 95.4093386,45.4494678 C95.089441,46.9256034 94.7086349,48.8265631 94.2669202,51.1406257 L96.5609701,51.6877786 L96.5967986,51.6969917 C96.6152247,51.70211 96.6653847,51.7138823 96.764169,51.7317965 L95.7727423,47.0781306 Z M92.7088908,59.6365948 L86.8176562,59.6365948 L85.9915526,58.3564925 C85.6936639,57.8948162 85.3886095,57.4234151 85.0794604,56.9474074 L84.6766454,57.7535494 L86.1809319,61.1593075 C86.8862422,62.7577719 88.0184239,64.9663451 89.5549562,67.7404973 C90.5387054,67.7543169 91.4446554,67.7625063 92.2630815,67.76353 C92.4980143,65.9163131 92.6582191,64.3096593 92.739601,62.9645538 L93.0641052,57.6629544 L92.7088908,59.6365948 Z M77.9808042,46.1742279 L79.0628259,51.2465758 C79.1140095,51.486627 79.1610985,51.7036455 79.2056282,51.899167 C80.0486224,51.8213679 80.5077395,51.7072284 80.7344829,51.6309648 L81.4433761,51.3919373 C80.3419046,49.7222764 79.1856666,47.9804467 77.9808042,46.1742279 L77.9808042,46.1742279 Z M65.2882901,83.5204074 C65.9204078,83.4876499 66.3380662,83.4021732 66.5934724,83.3264215 C66.8161212,83.2614183 66.9732549,83.2025571 67.0751103,83.1600747 C67.1810604,82.909275 67.2266138,82.7250139 67.2465754,82.6072916 C67.2690962,82.474726 67.3161851,82.081124 67.2670489,81.2959673 C67.2138179,80.4626979 67.1370425,79.7277011 67.0403054,79.1134977 C66.9287251,78.4061401 66.7644257,77.5431842 66.55099,76.5435681 C66.0852191,74.341137 65.6245665,73.0789489 65.3205358,72.4079317 C64.9898896,71.6780532 64.7083797,71.4420967 64.6531014,71.4001262 C64.3285972,71.1549566 64.0102351,70.9952637 63.7072281,70.925654 C63.4656414,70.8703757 63.1042851,70.8094672 62.5806766,70.7649375 L65.2882901,83.5204074 Z M175.019829,93.2596266 L172.657705,94.5064596 C171.603323,95.0812516 170.240303,95.5521409 168.373636,95.9872017 C166.613432,96.3992298 164.743182,96.6070353 162.815095,96.6070353 C159.284961,96.6070353 155.993854,95.6258453 153.034417,93.6911045 C152.560969,93.3814436 152.112088,93.0538684 151.687264,92.7094027 L152.085473,96.8122816 L140.313752,96.8122816 L129.840048,82.7229666 C129.024693,85.6552762 128.09571,89.0594987 127.062313,92.9110661 L126.017655,96.8122816 L114.905179,96.8122816 L113.646062,93.3445914 C111.644783,87.8331392 109.634802,82.4117702 107.63557,77.1362745 C106.818679,81.3082513 105.874342,86.3641693 104.808187,92.2774129 L104.029684,96.6070353 L92.9499657,96.6070353 L91.3955191,94.1978223 C89.1444635,90.7111941 86.7086351,86.9763254 84.1033888,83.0157369 C83.899678,83.9257817 83.6212391,84.8194477 83.2629538,85.693152 C81.9316678,88.9428001 79.7410089,91.5444635 76.753421,93.4249497 C73.8584754,95.2481102 70.5269336,96.1724864 66.850926,96.1724864 C65.7428007,96.1724864 64.2948161,96.1504774 62.5474073,96.1085069 C60.8824041,96.06756 59.5198961,96.0470865 58.4987829,96.0470865 C57.6537414,96.0470865 56.5655776,96.0864979 55.2685847,96.1627615 L52.6121548,96.3214307 L49.7180794,92.8440156 L49.601739,91.1447194 C49.4543814,88.9904008 49.0570941,86.3795244 48.4212912,83.3898892 L46.8641831,76.1259098 C46.0042983,80.4754938 44.9952132,85.8656408 43.8389752,92.2779248 L43.0590392,96.6070353 L31.9807542,96.6070353 L30.425847,94.198846 C25.1801401,86.0719108 18.9699291,76.6571958 11.9689824,66.2157373 L4.41578492,54.9522699 L17.3676259,58.1195123 C17.5312088,58.129749 17.9044909,58.1476633 18.6126675,58.1476633 C18.9427506,58.1476633 19.1558792,58.1394739 19.284043,58.13282 L23.3753033,57.0026857 L25.2109527,61.1587957 C25.9187198,62.760843 27.0513621,64.9704398 28.5852328,67.7404973 C29.5689308,67.7543169 30.4750344,67.7625063 31.2935629,67.76353 C31.5287004,65.9147776 31.6886492,64.3081238 31.7698265,62.9645538 L32.1265251,57.1316684 L37.8436843,58.0872666 C37.9526542,58.0975033 38.5660387,58.1476633 40.4834283,58.1476633 C42.5875869,58.1476633 43.322123,58.1005744 43.4918991,58.0872666 L44.6089304,57.8902097 L44.612718,57.8666652 L44.7185146,57.8702481 L51.642737,56.6479832 L51.2373628,58.095456 L52.7288534,58.1476633 C53.8047331,58.1471515 55.176966,58.13282 56.8102353,58.1056927 C57.0426089,58.1026217 57.2678169,58.0995507 57.4966076,58.0964797 C57.4909774,58.092385 57.4853473,58.0898258 57.4797171,58.0862429 C55.7497107,56.9545731 54.6277657,55.3653217 54.2341637,53.4868829 C53.8809967,51.7993589 54.0412015,50.3293142 54.711195,49.117286 C54.8539973,48.8583481 55.0198323,48.6040679 55.2066525,48.3547013 L53.3538054,48.2865247 L52.7554689,46.4189368 C52.32092,45.0655907 52.0296852,44.3664224 51.8607793,44.015917 L51.2542534,42.7521422 L52.3838758,40.5901973 L53.8236711,39.9390393 C54.383108,39.6918736 55.1027497,39.4793592 56.0875226,39.2726286 C57.0451681,39.0705045 58.0401777,38.9687514 59.0433766,38.9687514 C61.245296,38.9687514 63.207676,39.5889433 64.8747265,40.81172 C66.6216234,42.0943304 67.7108108,43.6986297 68.1115786,45.5717967 C68.3122184,46.4875228 68.2932804,47.391835 68.0532293,48.2605746 C67.8490066,48.9981306 67.5424167,49.6556865 67.1436963,50.214151 C67.1283413,50.2356993 67.1129862,50.2570941 67.0966074,50.2786936 L68.1428006,50.3293142 L68.4621864,51.3218157 L68.5543169,51.3438247 L69.1055645,51.4753666 L69.9956476,51.6877786 L70.0324998,51.6969917 C70.050926,51.70211 70.1005741,51.7143941 70.2003821,51.7317965 L69.2074199,47.0781306 C68.7221992,44.7616623 68.35726,43.5490712 68.1366586,42.9394743 L67.9692881,42.4771838 L67.9692881,39.0187066 L72.6362106,39.188278 C72.8368504,39.188278 73.0574518,39.1830572 73.2928964,39.1754821 L72.1637858,37.4909779 L79.0484945,39.1738442 C79.1355067,39.1794744 79.3340991,39.188278 79.7108105,39.188278 C79.884323,39.188278 79.9974388,39.1856676 80.0650012,39.1816753 L82.2423524,38.5802677 L83.218424,40.7897623 C83.5946236,41.6408947 84.1970548,42.8150981 85.0124099,44.2892375 C85.5360183,44.2968127 86.0176562,44.3010098 86.4532288,44.3014192 C86.577605,43.3223278 86.6625698,42.4676125 86.7065877,41.7504276 L86.8949434,38.6476254 L89.936786,39.1574654 C89.996159,39.1626862 90.321175,39.188278 91.3387053,39.188278 C92.4565556,39.188278 92.8470866,39.1642729 92.9381935,39.157056 L97.2713987,38.3907348 L97.0697353,39.1115025 L99.201533,39.188278 C99.6437595,39.188278 100.175557,39.1672415 100.783619,39.1282908 L102.206012,39.0372863 L103.74152,40.887523 L103.808059,41.7766336 C103.879716,42.7229164 104.110042,44.11767 104.49136,45.9218926 L105.627125,51.2445285 C105.677796,51.4856033 105.725909,51.7036455 105.770439,51.899167 C106.612409,51.8213679 107.07255,51.7072284 107.298782,51.6309648 L107.919127,51.4226475 L107.002429,47.0879067 C106.647726,45.4270494 106.267944,44.0300949 105.872294,42.9368639 L105.622006,42.2432747 L106.1666,39.0392825 L110.472166,39.188278 L117.301085,39.188278 C117.820087,39.188278 118.124117,39.1646823 118.285858,39.1446695 L119.639664,38.9747399 L121.345103,40.6706068 L121.47255,41.606704 C121.52834,42.0125389 121.554955,42.1896854 121.565192,42.2540744 C121.704412,42.8934602 121.767879,43.1038249 121.784258,43.1523982 L122.02738,43.8817647 L121.289312,47.2558913 L121.061545,47.2250788 L121.518103,47.6247717 L121.470502,48.870581 C121.476133,48.9075356 121.487393,48.9745349 121.509402,49.0742918 C121.568775,49.3337928 121.606651,49.4341638 121.606651,49.4341638 L121.606651,49.4331913 L122.283298,51.0106705 L121.549837,51.8899539 L122.440432,51.8126667 L123.916056,53.7796532 L123.986689,54.5673691 C123.992319,54.6262302 124.013305,54.8028137 124.093151,55.1754305 L124.094175,55.1779897 C124.099805,55.2035815 124.135122,55.3474074 124.257962,55.7840037 L124.549709,56.8255904 L123.889952,58.1476633 L128.721686,58.1476633 L130.278692,60.5497106 C130.887777,61.4925129 131.517847,62.4435045 132.153548,63.3786293 C132.383362,63.7184885 132.622901,64.0675608 132.871142,64.4258461 C132.85118,64.2717834 132.831219,64.1187444 132.811257,63.963658 L131.863336,56.6786934 L138.978883,58.1082519 C139.091999,58.1184886 139.490208,58.1476633 140.416631,58.1476633 C141.825716,58.1476633 142.458346,58.1184886 142.685089,58.1041572 L148.476004,56.8194484 L148.601404,58.7306447 C149.147533,58.5857951 149.748941,58.4445283 150.416375,58.3037733 C152.215991,57.9250145 154.086752,57.733076 155.976963,57.733076 C160.11823,57.733076 163.808569,58.8995507 166.94459,61.2012781 C170.227507,63.6115147 172.276387,66.6287891 173.033393,70.1573879 C173.410104,71.8827877 173.37274,73.5825957 172.921301,75.2071638 C172.5364,76.5973109 171.960072,77.8354427 171.211768,78.8821477 C171.182081,78.9236065 171.152395,78.9645534 171.122197,79.0065239 L173.088671,79.1012136 L174.204986,82.565321 C175.101723,85.3394732 175.593598,86.4552761 175.808057,86.8729345 L177.019061,89.2360822 L175.019829,93.2596266 L175.019829,93.2596266 Z" id="path42" fill="#231F20"></path>
                        <path d="M33.0768002,77.0528452 C32.1806774,77.0436321 31.4669218,77.0441439 30.7739468,77.0492623 L32.5907605,79.6662808 C32.7521425,78.8232866 32.9142922,77.9495822 33.0768002,77.0528452 L33.0768002,77.0528452 Z M40.6387706,91.7015972 L40.3408819,93.3558518 L33.7520145,93.3558518 L33.1577727,92.4350585 C27.9050537,84.2978866 21.6850666,74.8673046 14.6691231,64.404349 L11.7838513,60.1018539 L16.8050156,61.3292371 C16.8191934,61.3323081 17.1701083,61.3988468 18.6130258,61.3988468 C19.6043501,61.3988468 19.8674339,61.3399857 19.861036,61.3471514 L21.5353034,60.8839396 L22.2364678,62.4721673 C23.11959,64.4724232 24.6073442,67.3253982 26.6604728,70.9578997 C28.4750857,70.9957756 30.0881886,71.0147135 31.4595514,71.0147135 C32.2019186,71.0147135 33.0981949,71.0055005 34.1299032,70.9870744 C34.5929102,67.8561723 34.8906453,65.2263579 35.0157893,63.1626344 L35.151733,60.9340996 L37.3536523,61.301598 C37.5299799,61.3312845 38.1883548,61.3988468 40.4834283,61.3988468 C43.3565184,61.3988468 43.9125261,61.3149057 43.9675485,61.3041571 L47.1163136,60.7493267 L46.253409,63.8275096 C45.1563392,67.7435684 43.2671518,77.1214312 40.6387706,91.7015972 L40.6387706,91.7015972 Z" id="path44" fill="#00452A"></path>
                        <path d="M70.5115785,81.0881618 C70.4522055,80.1566199 70.3651934,79.3213032 70.2525894,78.6057562 C70.1317961,77.8410729 69.9562363,76.9207914 69.732052,75.8699917 C69.3092753,73.8712713 68.8209836,72.2559163 68.28202,71.066409 C67.8249503,70.0555325 67.263466,69.2949439 66.6129222,68.8046048 C65.9193841,68.2809964 65.185411,67.9283412 64.4325,67.7558524 C63.5459997,67.5531653 62.351374,67.4513099 60.8818923,67.4513099 C59.6591156,67.4513099 58.9614829,67.5265498 58.5827241,67.5936004 L62.5197681,86.1384495 C62.5330759,86.2029409 62.5509901,86.2914886 62.8212396,86.4250778 C63.3039012,86.6641053 63.9477911,86.7859223 64.7365307,86.7859223 C65.8098512,86.7859223 66.7419049,86.6722947 67.5071,86.4475986 C68.2252062,86.2372339 68.785155,85.9843868 69.1705677,85.6967349 C69.4879061,85.4607784 69.738194,85.1439518 69.9347391,84.7268053 C70.1937283,84.1847708 70.3672407,83.6539966 70.4527174,83.1503498 C70.5438242,82.6113863 70.5637858,81.9178482 70.5115785,81.0881618 L70.5115785,81.0881618 Z M76.2144575,66.9768377 C77.3154171,68.0542529 78.2863704,69.3937283 79.10019,70.9578997 C79.8996781,72.4959675 80.5046685,74.2142016 80.8987824,76.0655131 C81.5349948,79.040817 81.3184881,81.8646173 80.2543806,84.4606505 C79.1851548,87.0699914 77.4234146,89.1603305 75.0203436,90.6738301 C72.6525894,92.1642971 69.904029,92.9202792 66.850926,92.9202792 C65.7704398,92.9202792 64.3490707,92.8992939 62.62623,92.8573233 C60.9351232,92.8163764 59.5465116,92.795903 58.4987829,92.795903 C57.5902737,92.795903 56.4376186,92.8368499 55.0740869,92.9166963 L54.0596276,92.977093 L52.8900819,91.5721026 L52.8460639,90.9230943 C52.6879066,88.6157367 52.2687127,85.8513094 51.6002546,82.7086352 L49.3749956,72.3260379 C48.677414,69.0543809 47.9216879,66.2843234 47.1306962,64.0936644 L46.9501716,63.5971833 L47.349455,61.2150976 L52.6730633,61.3988468 C53.7735111,61.3988468 55.1820844,61.3855391 56.8614189,61.3568763 C58.6165053,61.3292371 60.2625705,61.3154175 61.7530375,61.3154175 C62.9210477,61.3154175 64.1085077,61.4111309 65.2826599,61.6005103 C66.451182,61.7873305 67.6908492,62.0852192 68.966345,62.4859869 C70.3145216,62.9087636 71.6181684,63.516825 72.8404332,64.2912332 C74.0340353,65.0492626 75.1687761,65.9531653 76.2144575,66.9768377 L76.2144575,66.9768377 Z" id="path46" fill="#00452A"></path>
                        <path d="M94.0463188,77.0528452 C93.1511173,77.0436321 92.4371058,77.0441439 91.7435678,77.0492623 L93.5595626,79.6662808 C93.720791,78.8278931 93.8835549,77.9541887 94.0463188,77.0528452 L94.0463188,77.0528452 Z M171.118102,91.6417124 C170.338064,92.0711429 169.198716,92.4565556 167.634033,92.820983 C166.115927,93.1756855 164.494942,93.3558518 162.815095,93.3558518 C159.927827,93.3558518 157.235569,92.5527808 154.813048,90.9691596 C152.260521,89.3005736 150.679459,87.0822755 150.111832,84.3751738 C149.611257,81.9848988 149.800124,79.9723588 150.672293,78.3933442 C151.190783,77.4551484 151.938576,76.5404971 152.893662,75.6749821 C153.785281,74.8642336 154.546381,74.2664089 155.222005,73.8451677 C155.809081,73.4781811 156.579907,73.0231588 157.575428,72.4550206 C157.731538,72.3547007 157.847725,72.2830436 157.965447,72.2124102 C158.405114,71.9621223 158.786944,71.6703757 159.1007,71.344336 C159.36276,71.0745984 159.561864,70.772615 159.691871,70.4429925 C159.770693,70.2444 159.788608,70.0893137 159.751755,69.9204077 C159.318742,67.9309004 158.471141,67.1191282 156.824564,67.1191282 C156.097245,67.1191282 155.260905,67.5086355 154.340111,68.275878 C153.281634,69.1547008 152.53077,70.0734467 152.107994,71.0080596 L151.551116,72.2369784 L147.672933,72.0946879 L147.243502,70.7516297 C146.761865,69.2519496 146.319638,68.0066522 145.919894,67.0182965 C146.04427,68.5369145 146.182466,70.0795888 146.338064,71.6391537 L147.375556,82.0959672 C147.776324,86.1389614 148.081378,89.22431 148.289184,91.3540604 L148.503643,93.5600744 L141.948045,93.5600744 L128.515416,75.4912329 C127.366855,79.4175284 125.823669,84.9847707 123.921174,92.0701193 L123.522454,93.5600744 L117.183362,93.5600744 L116.702236,92.2354424 C113.368647,83.0546364 110.018679,74.1451037 106.733203,65.7243746 C105.599997,70.3825958 103.88074,79.0976308 101.608187,91.7015972 L101.31081,93.3558518 L94.7214308,93.3558518 L94.1277008,92.4350585 C88.8967348,84.3321796 82.6763895,74.9010858 75.6381299,64.404349 L72.7544448,60.1023657 L77.775046,61.3292371 C77.7893775,61.3323081 78.1389616,61.3988468 79.5823397,61.3988468 C80.5425444,61.3988468 80.8261016,61.3466395 80.8307082,61.3466395 C80.8307082,61.3466395 80.8307082,61.3466395 80.8301963,61.3471514 L82.5049244,60.8844515 L83.20614,62.473191 C84.0870101,64.4688404 85.5749179,67.3223272 87.6294284,70.9578997 C89.4443996,70.9957756 91.0577073,71.0147135 92.4284046,71.0147135 C93.1710789,71.0147135 94.0678159,71.0055005 95.0991659,70.9870744 C95.5623776,67.8582197 95.8592426,65.2278934 95.9851544,63.1626344 L96.1207909,60.9340996 L98.3227103,61.301598 C98.4998056,61.3312845 99.1570033,61.3988468 101.454124,61.3988468 C104.326037,61.3988468 104.882403,61.3149057 104.937169,61.3041571 L106.952269,60.9494547 L108.425845,61.3348673 C108.439153,61.3374265 108.764169,61.3988468 110.031475,61.3988468 C111.042864,61.3988468 111.419063,61.3573881 111.522966,61.3425449 L113.536529,60.7651936 L114.003836,62.8447841 C114.264872,64.0097233 114.698398,65.5411372 115.293151,67.3975671 C115.898654,69.2877782 116.764169,71.8674326 117.867176,75.062826 L117.992064,75.4236705 C119.929364,68.8639778 121.139856,64.6566842 121.593343,62.9051808 L121.98285,61.3988468 L126.953804,61.3988468 L127.549069,62.317081 C128.173509,63.2829159 128.816887,64.2533573 129.462313,65.2033253 C130.100573,66.1456157 130.812537,67.1677526 131.578756,68.2410732 C132.351628,69.3246304 132.999613,70.232116 133.523221,70.9625062 C134.041711,71.6872663 134.776708,72.6838114 135.705179,73.9245023 C136.604987,75.1268055 137.248877,75.9892495 137.637872,76.5123461 C137.224821,72.9008299 136.686881,68.5522696 136.035313,63.5434405 L135.673445,60.7605871 L138.424565,61.3133702 C138.525396,61.3338436 138.968647,61.3993587 140.416631,61.3993587 C142.729107,61.3993587 143.185153,61.3225832 143.191295,61.3225832 L145.479715,60.8138181 L145.633266,63.1529095 C145.642479,63.2885461 145.653227,63.4298129 145.66244,63.5664731 L145.809849,63.2849632 L147.473317,62.5320522 C148.300444,62.1660893 149.481762,61.823159 151.085345,61.4853472 C152.665895,61.1536773 154.311448,60.9842595 155.976963,60.9842595 C159.411384,60.9842595 162.454251,61.9393459 165.021109,63.8223912 C167.642222,65.7474072 169.26935,68.1131141 169.856938,70.8524614 C170.11951,72.0547647 170.096989,73.2273814 169.788351,74.3385778 C169.504794,75.3617384 169.092254,76.2554044 168.564039,76.9950077 C168.053739,77.7105547 167.337168,78.4204715 166.43173,79.1047965 C165.607162,79.728213 164.922837,80.1955194 164.339855,80.5323076 C163.795261,80.8481106 163.084833,81.2330114 162.221365,81.6798444 C161.947021,81.8170165 161.718742,81.9367862 161.53704,82.0360824 C161.379906,82.1230946 161.181314,82.2433761 160.948428,82.3938559 C160.727827,82.5346109 160.630578,82.6226467 160.607546,82.643632 C160.48061,82.7659608 160.338832,82.9113223 160.175044,83.087394 C160.164295,83.0986544 160.155594,83.1083792 160.15713,83.1017254 C160.09878,83.2491342 160.045549,83.4200875 159.99846,83.6094669 C159.983617,83.6708872 159.966727,83.7804202 159.974916,83.95598 C159.983105,84.1689038 160.017398,84.4191917 160.076771,84.6960951 C160.16839,85.1250139 160.358793,85.5416485 160.643374,85.9372979 C160.924372,86.3268053 161.284705,86.6513094 161.714135,86.9015973 C162.086752,87.1191277 162.444014,87.2204713 162.835569,87.2204713 C163.395517,87.2204713 163.881762,86.943056 164.411,86.3206632 C165.145997,85.4536127 165.679842,84.5077394 165.997181,83.5101707 L166.466535,82.0365942 L170.684065,82.2408169 L171.110424,83.5644253 C171.84798,85.8472147 172.454506,87.4589869 172.914135,88.355724 L173.377347,89.258603 L172.574788,90.8739581 L171.118102,91.6417124 L171.118102,91.6417124 Z" id="path48" fill="#00452A"></path>
                        <path d="M35.4668705,75.0771574 C34.8594233,78.5996142 34.2650279,81.7008297 33.6854246,84.3818277 L33.4156869,84.3818277 L26.98554,75.1181043 C28.2749577,75.062826 29.8710165,75.0351869 31.7740235,75.0351869 C32.7487132,75.0351869 33.979321,75.0490064 35.4668705,75.0771574 L35.4668705,75.0771574 Z M25.4758279,72.9422886 C23.0829937,68.753933 21.3911703,65.5349952 20.3972868,63.2854751 C20.0967877,63.3678807 19.5019829,63.4098513 18.6130258,63.4098513 C17.4370309,63.4098513 16.678848,63.3678807 16.3395517,63.2854751 C23.4077025,73.8257179 29.5763524,83.1800363 34.8472416,91.3448474 L38.6596535,91.3448474 C41.313166,76.6310921 43.1985658,67.2777974 44.3170302,63.2854751 C43.8477788,63.3678807 42.5689561,63.4098513 40.4834283,63.4098513 C38.6736267,63.4098513 37.5202038,63.3678807 37.0225455,63.2854751 C36.8705813,65.7893778 36.4843497,69.0154813 35.8623152,72.9627621 C34.0858853,73.0047327 32.6181438,73.0257179 31.4595514,73.0257179 C29.7722833,73.0257179 27.7772994,72.9980788 25.4758279,72.9422886 L25.4758279,72.9422886 Z" id="path50" fill="#FFFFFF"></path>
                        <path d="M56.5502225,67.7021096 C56.3848994,66.9118345 56.5814445,66.3370425 57.1403697,65.9777335 C57.7003185,65.6194481 58.9471514,65.4408173 60.8818923,65.4408173 C62.5110669,65.4408173 63.8454239,65.5590515 64.8813803,65.7955198 C65.916825,66.0330118 66.898015,66.5013419 67.8244385,67.1994865 C68.7488147,67.8981429 69.5129861,68.9110667 70.1138818,70.2367225 C70.7142657,71.5639138 71.2429925,73.3015977 71.6990385,75.453357 C71.9344832,76.5553404 72.1136258,77.5022373 72.2385139,78.2914888 C72.3623782,79.0802283 72.4555324,79.9708233 72.5184883,80.9617382 C72.5804205,81.9531649 72.5527813,82.7946236 72.4355708,83.4861144 C72.3178485,84.1760696 72.0900814,84.877797 71.7512458,85.5907848 C71.4124102,86.3032608 70.9532932,86.8754937 70.3733828,87.3079953 C69.7929605,87.7415205 69.025718,88.0977585 68.072679,88.3772211 C67.1191282,88.65566 66.00742,88.7959031 64.7365307,88.7959031 C63.6314763,88.7959031 62.6953279,88.6055 61.9285973,88.2262294 C61.1613548,87.8464469 60.7027496,87.2849626 60.5502224,86.540241 L56.5502225,67.7021096 Z M58.4987829,90.7854104 C59.5761981,90.7854104 60.9683926,90.8048602 62.6743426,90.8468307 C64.3808045,90.8888013 65.772999,90.9097866 66.850926,90.9097866 C69.5314122,90.9097866 71.8971191,90.264873 73.9480468,88.9714629 C76.0010218,87.6801002 77.4817639,85.9224547 78.393856,83.6975027 C79.3054363,81.4735744 79.4861145,79.0694798 78.9323077,76.4867543 C78.5729987,74.8007659 78.0340352,73.2678165 77.3164408,71.8853469 C76.5978228,70.503901 75.7625061,69.3466393 74.8094671,68.4140738 C73.8548926,67.4815082 72.8404332,66.6738307 71.7625062,65.9889939 C70.6845792,65.3062044 69.5513738,64.7774776 68.363402,64.4038372 C67.175942,64.0317322 66.0432485,63.757388 64.9653215,63.5859229 C63.8879063,63.4129223 62.8166331,63.3259101 61.7530375,63.3259101 C60.2190644,63.3259101 58.598591,63.3402415 56.8926409,63.3678807 C55.186179,63.3955198 53.780165,63.4098513 52.6730633,63.4098513 L49.0416878,63.2854751 L49.0207025,63.4098513 C49.8496725,65.7018538 50.6234152,68.5348671 51.3417773,71.9053085 L53.5672411,82.287394 C54.2566845,85.5334592 54.6856032,88.3674962 54.85195,90.7854104 L54.9553409,90.9097866 C56.364426,90.8268691 57.5457439,90.7854104 58.4987829,90.7854104 L58.4987829,90.7854104 Z" id="path52" fill="#FFFFFF"></path>
                        <path d="M96.4365939,75.0771574 C95.8290443,78.5996142 95.2348025,81.7008297 94.6543802,84.3818277 L94.3846426,84.3818277 L87.9549562,75.1181043 C89.2442716,75.062826 90.8406887,75.0351869 92.7442075,75.0351869 C93.7187437,75.0351869 94.9481742,75.0490064 96.4365939,75.0771574 Z M86.4445276,72.9422886 C84.0522052,68.753933 82.3600747,65.5349952 81.3666007,63.2854751 C81.0661528,63.3678807 80.471911,63.4098513 79.5823397,63.4098513 C78.4066519,63.4098513 77.6481107,63.3678807 77.3082514,63.2854751 C84.377733,73.8257179 90.5458711,83.1800363 95.8167602,91.3448474 L99.6294281,91.3448474 C102.282275,76.6310921 104.168392,67.2777974 105.287265,63.2854751 C104.817912,63.3678807 103.538833,63.4098513 101.454124,63.4098513 C99.6427358,63.4098513 98.4895689,63.3678807 97.9920641,63.2854751 C97.8405606,65.7893778 97.4541242,69.0154813 96.8317314,72.9627621 C95.055148,73.0047327 93.5866899,73.0257179 92.4284046,73.0257179 C90.7419043,73.0257179 88.7467668,72.9980788 86.4445276,72.9422886 L86.4445276,72.9422886 Z" id="path54" fill="#FFFFFF"></path>
                        <path d="M118.592447,91.5495818 L121.978756,91.5495818 C124.63365,81.6578355 126.556619,74.8381299 127.747662,71.0884179 L142.958922,91.5495818 L146.287904,91.5495818 C146.080611,89.4208551 145.776068,86.3365302 145.374788,82.293536 C144.974021,78.2520774 144.627508,74.7664729 144.336785,71.838258 C144.046062,68.9100431 143.80857,66.0586036 143.62738,63.2854751 C143.248621,63.3689044 142.178371,63.4103631 140.416631,63.4103631 C139.241967,63.4103631 138.446574,63.3689044 138.029427,63.2854751 C139.198461,72.2656412 139.98413,78.9947517 140.38285,83.4707593 C140.10697,83.0986544 139.415991,82.1855386 138.311449,80.7349948 C137.206906,79.284451 136.464232,78.303261 136.08445,77.7919366 C135.704155,77.2806123 135.040816,76.3936001 134.094942,75.1288529 C133.149069,73.8651293 132.414584,72.8665369 131.888416,72.1340993 C131.363784,71.4011498 130.714776,70.4936643 129.941903,69.4085715 C129.168519,68.3234788 128.452972,67.2982709 127.797822,66.3319241 C127.142159,65.3640419 126.49571,64.3905294 125.861033,63.4098513 L123.540368,63.4098513 C122.945614,65.7018538 121.142927,71.9053085 118.132819,82.01868 C117.802172,81.0380018 117.078948,78.9389616 115.966728,75.7195119 C114.855531,72.500574 113.992064,69.9301326 113.377348,68.0107469 C112.763657,66.0893138 112.318871,64.5154175 112.041456,63.2854751 C111.751245,63.3678807 111.080739,63.4098513 110.031475,63.4098513 C108.95406,63.4098513 108.255915,63.3678807 107.938065,63.2854751 C111.454892,72.2507979 115.006011,81.6726787 118.592447,91.5495818" id="path56" fill="#FFFFFF"></path>
                        <path d="M156.824564,65.1091474 C159.451308,65.1091474 161.07997,66.5704398 161.716183,69.4930245 C161.840559,70.0468313 161.788352,70.6113866 161.561096,71.1861786 C161.332817,71.7609707 160.994494,72.2799726 160.54459,72.744208 C160.096221,73.2084435 159.567494,73.6133059 158.959433,73.9593072 C158.890847,74.0012777 158.779779,74.0708875 158.628787,74.1681363 C157.634289,74.7362745 156.852715,75.1969271 156.286624,75.5500941 C155.720022,75.9042847 155.03928,76.4406891 154.245422,77.1623781 C153.45054,77.8830435 152.846061,78.6180403 152.431474,79.3668566 C151.796285,80.5179762 151.679075,82.0488783 152.079843,83.9626339 C152.535889,86.1394732 153.813432,87.9134975 155.914008,89.2862422 C158.013048,90.6589869 160.313752,91.3448474 162.815095,91.3448474 C164.348045,91.3448474 165.802171,91.183619 167.176451,90.8637213 C168.551243,90.5422882 169.54267,90.2142012 170.15022,89.880484 L171.062824,89.3988461 L171.124756,89.2734463 C170.613431,88.2758775 169.971077,86.5786287 169.198716,84.1822116 L167.91196,84.1202794 C167.512216,85.3793965 166.855018,86.5474067 165.94395,87.6207272 C165.03237,88.6945595 163.995901,89.2319875 162.835569,89.2319875 C162.089823,89.2319875 161.378371,89.0333951 160.700188,88.6382575 C160.02354,88.2436318 159.460521,87.7353785 159.011128,87.111962 C158.56276,86.4895692 158.262312,85.8241821 158.110297,85.1178482 C158.027379,84.7288526 157.978755,84.3690318 157.965447,84.0363383 C157.951116,83.7041566 157.978755,83.3991022 158.047853,83.1221988 C158.117462,82.8442718 158.196797,82.5914247 158.285857,82.3641694 C158.37594,82.1353786 158.515159,81.9209193 158.700444,81.7197676 C158.886752,81.5191278 159.059753,81.3430562 159.218934,81.1900172 C159.377603,81.0380018 159.592063,80.8752379 159.8618,80.7017254 C160.131026,80.5287248 160.365447,80.3864343 160.565575,80.2763895 C160.766727,80.1648093 161.01855,80.0332674 161.323093,79.8807402 C162.150732,79.4518214 162.821749,79.0889296 163.333073,78.7925764 C163.843886,78.4967351 164.472421,78.0662808 165.218678,77.5012137 C165.963911,76.9361465 166.535121,76.3787569 166.927699,75.8275093 C167.322325,75.2762617 167.628403,74.6016616 167.851051,73.8021735 C168.071653,73.0026853 168.084449,72.1632739 167.891998,71.2813802 C167.407801,69.022647 166.053995,67.076134 163.829554,65.4433765 C161.606138,63.8111308 158.987072,62.9952639 155.976963,62.9952639 C154.442479,62.9952639 152.950476,63.1477911 151.49942,63.4538692 C150.048877,63.7594354 148.977603,64.0655134 148.286113,64.3710796 L147.271653,64.829173 L147.209721,64.9494546 C147.7753,66.1246305 148.42482,67.8536131 149.158282,70.1364026 L150.276644,70.1783732 C150.829427,68.9596912 151.755338,67.8095952 153.053867,66.7296209 C154.351884,65.6491346 155.609465,65.1091474 156.824564,65.1091474" id="path58" fill="#FFFFFF"></path>
                        <path d="M77.3717191,51.605373 C77.596927,52.6653858 77.7632738,53.3128586 77.8769014,53.7008304 C79.3904011,53.6660255 80.5369142,53.520664 81.2852187,53.2698643 L82.0176563,53.0231593 L82.7301323,53.9741509 L82.7562359,54.2786935 C82.7951355,54.7178489 82.9384496,55.3817005 83.184131,56.251822 L83.2951995,56.6500306 L82.7413927,57.7586678 L81.9936,57.6690964 C81.671655,57.6301969 81.2545085,57.6107471 80.7554682,57.6107471 L70.6456796,57.6107471 C70.1563642,57.6107471 69.7520136,57.6296851 69.4459356,57.6685846 L68.9253981,57.7340996 L68.2344193,57.0395379 L68.1873303,56.6822763 C68.1607149,56.4826601 68.1330757,56.2937926 68.103901,56.1151617 L67.8679446,56.5891221 L67.0950719,56.9975674 C66.6799727,57.2248226 66.0734468,57.4295571 65.2422249,57.623543 C64.435571,57.8124106 63.573127,57.908124 62.679461,57.908124 C61.1454879,57.908124 59.7138821,57.4812526 58.4255903,56.6387702 C57.0687126,55.7522699 56.2272539,54.5719756 55.9257824,53.133204 C55.6601394,51.8623148 55.7604593,50.7921676 56.2246947,49.9532169 C56.4995507,49.4545861 56.8972475,48.9683417 57.404989,48.5076891 C57.8702481,48.0844006 58.2863709,47.7573373 58.6431207,47.5347909 C58.9584118,47.3376316 59.3801649,47.0889304 59.8945602,46.7952388 C59.9779895,46.7418542 60.0399217,46.7034665 60.1008302,46.6672797 C60.3347394,46.5340999 60.5374265,46.3789624 60.7053088,46.2066271 C60.8450401,46.0622381 60.9504783,45.9009074 61.0195762,45.7263712 C61.0615468,45.6204211 61.0712717,45.537606 61.0513101,45.4484442 C60.8209838,44.3905811 60.3700561,43.9591544 59.495328,43.9591544 C59.1083798,43.9591544 58.6635942,44.165885 58.1737669,44.5737161 C57.611259,45.0405619 57.2125386,45.5294166 56.9878425,46.026256 L56.6909775,46.6794614 L54.6298131,46.6042727 L54.4015341,45.8901076 C54.0284056,44.7282906 53.6977594,43.8459874 53.4193205,43.2681755 L53.1879705,42.7848998 L53.6399219,41.9187705 L54.5233512,41.5201013 C54.9630185,41.3245799 55.5915533,41.1434411 56.4432487,40.9636842 C57.2841956,40.7871519 58.1594355,40.6971711 59.0433766,40.6971711 C60.87012,40.6971711 62.4875224,41.2048102 63.8520777,42.2064737 C65.2463195,43.2301461 66.1118346,44.4873693 66.4235428,45.9425196 C66.5627623,46.5810865 66.5515019,47.2056802 66.3877143,47.7979259 C66.2367226,48.3403187 66.0176567,48.8157633 65.7371705,49.2104402 C65.4658973,49.5893526 65.0845793,49.9660128 64.6029414,50.3309009 C64.1663452,50.6620077 63.8024296,50.9102994 63.4907214,51.0904658 C63.1959037,51.2603954 62.8181686,51.4656417 62.3636581,51.7005745 C62.2182966,51.7732553 62.0975032,51.8362111 62.0007662,51.8899539 C61.9163132,51.936531 61.810875,52.0005105 61.6870106,52.080357 C61.5698001,52.1550851 61.5191283,52.2001267 61.5073561,52.2124107 C61.4377464,52.2794613 61.3599473,52.358284 61.2749825,52.4504146 C61.2703759,52.4555329 61.2662813,52.4601394 61.2667931,52.4560448 C61.2360829,52.5343557 61.2074201,52.6254625 61.182852,52.7262943 C61.1746626,52.7590518 61.1654495,52.8168893 61.1695442,52.9090198 C61.1746626,53.0252066 61.1930887,53.1572603 61.223287,53.3026218 C61.2729351,53.5314126 61.3747905,53.7545732 61.5252704,53.9639142 C61.6742147,54.1701842 61.8661533,54.3431848 62.0944322,54.4767741 C62.2930247,54.5924491 62.4829159,54.6461919 62.6907214,54.6461919 C62.9886101,54.6461919 63.2475992,54.498783 63.5291091,54.1671132 C63.9191283,53.7074843 64.2021737,53.2048611 64.3715915,52.674087 L64.619832,51.8899539 L66.8637219,51.9984632 L67.0904654,52.702238 C67.3115786,53.3850275 67.5091474,53.9506065 67.6836835,54.4040933 L68.038386,52.9980793 L69.5938562,53.3691605 C69.7893777,53.420856 70.2126662,53.5007024 71.1140097,53.5938566 C71.5055644,53.6342917 71.9191281,53.6650019 72.3485587,53.6839398 C72.2763897,53.2391541 72.1719752,52.6914894 72.0353149,52.0481113 L70.8995504,46.7234281 C70.4936643,44.7846438 70.1108108,43.3135242 69.7617385,42.3502485 L69.6982708,42.1742792 L69.6982708,40.81172 L72.6060123,40.9177213 C73.0922566,40.9177213 73.6721671,40.8957123 74.3298766,40.8537418 L74.8729348,40.8189369 L75.4943039,41.5657059 L75.5198957,41.9065888 C75.5961593,42.9236586 75.8372342,44.3955971 76.2364664,46.2821741 L77.3717191,51.605373" id="path60" fill="#00452A"></path>
                        <path d="M87.4001258,49.2396661 C86.9241181,49.2350595 86.5453593,49.2350595 86.1763254,49.2380282 L87.1421603,50.6298132 C87.2271251,50.1855394 87.3136255,49.7213039 87.4001258,49.2396661 L87.4001258,49.2396661 Z M91.4216228,57.0287894 L91.2634654,57.908124 L87.7594348,57.908124 L87.4436319,57.4182967 C84.6556601,53.0994229 81.3486864,48.0854243 77.6133058,42.5152133 L76.0803564,40.2283291 L78.7495822,40.8803061 C78.7572597,40.8823022 78.9435681,40.9177213 79.7108105,40.9177213 C80.2211112,40.9177213 80.3715911,40.8901333 80.3741503,40.8901333 L80.3741503,40.8901333 L81.2642334,40.6437866 L81.6378738,41.4889305 C82.1072276,42.5509906 82.8975027,44.0684826 83.9892493,45.9996917 C84.9540606,46.0192951 85.811898,46.0304531 86.5407528,46.0304531 C86.9358903,46.0304531 87.4124098,46.0252836 87.9605864,46.015661 C88.2062678,44.3578236 88.3644252,42.9588729 88.4319876,41.8554052 L88.5036446,40.6699926 L89.6747258,40.8659235 C89.7673682,40.8813298 90.1143931,40.9177213 91.3387053,40.9177213 C92.8660245,40.9177213 93.161354,40.8731404 93.1910405,40.8681244 L94.8647449,40.5718224 L94.4066515,42.209084 C93.8236701,44.2882139 92.8184238,49.2744198 91.4216228,57.0287894 L91.4216228,57.0287894 Z" id="path62" fill="#00452A"></path>
                        <path d="M108.581955,53.0231593 L109.294943,53.9741509 L109.320535,54.2786935 C109.358922,54.7137542 109.502748,55.3781176 109.747406,56.251822 L109.859498,56.6490069 L109.306715,57.7586678 L108.558922,57.6690964 C108.235954,57.6301969 107.820343,57.6107471 107.319767,57.6107471 L97.2104902,57.6107471 C96.7211748,57.6107471 96.3168242,57.6296851 96.0102343,57.6685846 L95.4912324,57.733076 L94.7992299,57.0405616 L94.7516291,56.6817644 C94.6374896,55.8193204 94.5023649,55.1600754 94.3493259,54.7209199 L94.2454231,54.4194484 L94.6026848,52.9980793 L96.1591787,53.3691605 C96.3547001,53.420856 96.7779886,53.5007024 97.6783085,53.5938566 C98.070375,53.6342917 98.4839387,53.6650019 98.9128574,53.6839398 C98.8412003,53.2417133 98.7362739,52.6930249 98.6001255,52.0481113 L97.464361,46.7234281 C97.0574512,44.7830571 96.6745977,43.3121422 96.3270609,42.3502485 L96.2635932,42.1742792 L96.2635932,40.81172 L99.1708229,40.9177213 C99.6570672,40.9177213 100.236466,40.8957123 100.894687,40.8537418 L101.438257,40.8189369 L102.059115,41.5666784 L102.084706,41.9065888 C102.16097,42.9292376 102.403068,44.4007666 102.800765,46.2821741 L103.936018,51.6043493 C104.161226,52.6633384 104.328596,53.311323 104.4412,53.7008304 C105.9547,53.6660255 107.101725,53.520664 107.849517,53.2698643 L108.581955,53.0231593" id="path64" fill="#00452A"></path>
                        <path d="M122.150733,57.7586678 L121.403964,57.6690964 C121.082019,57.6301969 120.665384,57.6107471 120.16532,57.6107471 L113.533458,57.6107471 C113.044655,57.6107471 112.433011,57.6322442 111.716952,57.6747266 L111.177988,57.7074842 L110.557643,56.9622507 L110.532563,56.6203441 C110.440432,55.3883543 110.214713,53.9163134 109.859498,52.2456801 L108.693535,46.7270622 C108.321942,44.9893783 107.920151,43.5168767 107.49891,42.3492248 L107.403196,42.0847078 L107.618167,40.8199606 L110.44248,40.9177213 L117.301085,40.9177213 C117.787841,40.9177213 118.19168,40.8983227 118.501341,40.859935 L119.018295,40.7949318 L119.71081,41.4833003 L119.759434,41.8406132 C119.843375,42.4492376 119.866408,42.5775549 119.866408,42.5775549 C119.983106,43.1180028 120.076261,43.4952772 120.143823,43.6986297 L120.236465,43.9769151 L119.941136,45.327702 L118.005883,45.0635945 C117.381955,44.9857954 116.524117,44.9054371 115.453868,44.8266655 C114.849901,44.7814704 114.272038,44.7492759 113.730515,44.7304915 C113.799101,45.1495318 113.899421,45.6705811 114.027892,46.284375 L114.374917,47.9278811 C115.905819,47.9036712 117.284194,47.8304787 118.476772,47.7097365 L118.938961,47.6631594 L119.759434,48.381931 L119.740496,48.8905426 C119.739472,48.9171581 119.738449,49.071272 119.824437,49.4601651 C119.906843,49.8210608 119.975429,50.0156098 120.017911,50.1153666 L120.276389,50.7177467 L119.446702,51.7128586 L118.893919,51.6683288 C117.602044,51.5634024 116.335762,51.49584 115.123734,51.4676891 L115.194879,51.8014063 C115.426741,52.8854753 115.597182,53.5436967 115.712857,53.9367869 C117.451565,53.9168253 119.242479,53.8267421 121.042096,53.6696084 L121.633266,53.6184248 L122.237745,54.4235431 L122.265384,54.7260383 C122.283298,54.9241189 122.329364,55.1953921 122.403068,55.5388342 C122.407163,55.5587958 122.435825,55.6882904 122.593471,56.2513102 L122.705563,56.6500306 L122.150733,57.7586678" id="path66" fill="#00452A"></path>
                        <path d="M59.495328,42.8898774 C60.8911053,42.8898774 61.757644,43.6668447 62.0959677,45.2207282 C62.1619946,45.5156483 62.1348673,45.8155331 62.0130503,46.1210481 C61.8917451,46.4265631 61.7115788,46.7030571 61.4730631,46.9491991 C61.2340356,47.1965183 60.9530375,47.4118478 60.6305807,47.5955458 C60.5937285,47.6175548 60.5348673,47.65497 60.4534854,47.7067167 C59.9252704,48.0092119 59.5096594,48.2533577 59.2086997,48.4417134 C58.9082519,48.6296597 58.5463837,48.9145477 58.1241188,49.2984249 C57.7008303,49.6818926 57.379909,50.0723724 57.1593076,50.4700691 C56.8220075,51.0822764 56.7590517,51.896096 56.9724874,52.9141382 C57.2145859,54.0719116 57.8937925,55.0142021 59.0106191,55.7440805 C60.1269339,56.4739589 61.3497106,56.8388981 62.679461,56.8388981 C63.4953279,56.8388981 64.2676887,56.7529096 64.9991027,56.5834919 C65.7294929,56.4120267 66.257196,56.2374906 66.5801647,56.0598834 L67.0648736,55.8039653 L67.0981429,55.7374266 C66.8263579,55.2071643 66.4849631,54.3053089 66.072935,53.0298131 L65.3896337,52.9975675 C65.1777335,53.667561 64.8281494,54.2879065 64.3429287,54.8591157 C63.8587316,55.4293012 63.3079959,55.7159295 62.6907214,55.7159295 C62.2945602,55.7159295 61.9163132,55.6099794 61.5559805,55.3996147 C61.1961597,55.1902737 60.8967355,54.9200242 60.657708,54.5878425 C60.4191923,54.2566845 60.2594995,53.9035175 60.1786293,53.5278298 C60.1340996,53.3215598 60.1090196,53.130133 60.1018539,52.9530377 C60.0941764,52.7759424 60.1090196,52.6142021 60.14536,52.4673052 C60.182724,52.3198963 60.2241828,52.1852834 60.2722954,52.0644901 C60.320408,51.9421612 60.3936005,51.8285336 60.4928968,51.7215598 C60.5916811,51.614586 60.6832998,51.5204082 60.7677528,51.4400499 C60.8527176,51.3591798 60.9663452,51.2726795 61.1096594,51.1800371 C61.2534854,51.0884696 61.3778615,51.0126667 61.4843235,50.9539079 C61.5907854,50.8948932 61.7248865,50.8247204 61.8871386,50.7439527 C62.3273177,50.5156225 62.6835557,50.3227115 62.9553407,50.1651683 C63.2271257,50.0079834 63.5613548,49.7790902 63.9580278,49.4791542 C64.3547009,49.1782457 64.6577079,48.8813807 64.8670489,48.5886616 C65.0758781,48.2953283 65.2396657,47.9370429 65.357388,47.5118094 C65.4745985,47.0869342 65.482276,46.6410737 65.3788851,46.1716175 C65.1214315,44.9703892 64.4023017,43.935917 63.21996,43.0684058 C62.0371066,42.2002805 60.6449121,41.7668576 59.0433766,41.7668576 C58.2285334,41.7668576 57.4351873,41.84783 56.6633383,42.0099798 C55.892513,42.1726925 55.3233511,42.3350469 54.9558528,42.4971966 L54.4163774,42.7413425 L54.383108,42.805322 C54.6845796,43.4303252 55.0295572,44.349583 55.4185527,45.5631978 L56.0138182,45.5856163 C56.3071003,44.9372222 56.7994867,44.3260386 57.4904656,43.752219 C58.1804208,43.1769663 58.8493907,42.8898774 59.495328,42.8898774" id="path68" fill="#FFFFFF"></path>
                        <path d="M73.0809963,51.8254626 C73.4106188,53.3829801 73.5575158,54.3672411 73.5206635,54.7782456 C72.6249502,54.7782456 71.7865625,54.7378105 71.003965,54.6574522 C70.2218792,54.5765821 69.6619304,54.4921292 69.3241185,54.4040933 L68.8168889,54.2827882 L68.7948799,54.370824 C68.9714634,54.8775418 69.1219432,55.6007664 69.2468313,56.5420331 L69.3123463,56.6075482 C69.6650015,56.5640421 70.1092753,56.5420331 70.6456796,56.5420331 L80.7554682,56.5420331 C81.2980146,56.5420331 81.7540607,56.5640421 82.121559,56.6075482 L82.1543166,56.5420331 C81.8896972,55.6007664 81.7361464,54.8775418 81.6916166,54.370824 L81.6255898,54.2827882 C80.6418406,54.6134343 79.1426724,54.7782456 77.1301324,54.7782456 C76.9238624,54.3672411 76.6561721,53.3834919 76.3260378,51.8269981 L75.1907851,46.5049253 C74.7802924,44.5655267 74.5346111,43.059807 74.4537409,41.9863841 L74.3989745,41.9204084 C73.7172086,41.9643752 73.119384,41.9863841 72.6060123,41.9863841 L70.766473,41.9204084 L70.766473,41.9863841 C71.1339714,43.000434 71.5265497,44.5057442 71.9457436,46.5039016 L73.0809963,51.8254626" id="path70" fill="#FFFFFF"></path>
                        <path d="M88.6715269,48.1893782 C88.3480464,50.0631593 88.0322435,51.7118349 87.7241181,53.1367869 L87.580804,53.1367869 L84.16225,48.2113872 C84.8475986,48.1821613 85.6962231,48.1673692 86.7081232,48.1673692 C87.2266133,48.1673692 87.88074,48.1745861 88.6715269,48.1893782 Z M83.359179,47.0551492 C82.087266,44.827638 81.187458,43.1166208 80.6597549,41.9204084 C80.4995501,41.9643752 80.1837472,41.9863841 79.7108105,41.9863841 C79.0853467,41.9863841 78.6825316,41.9643752 78.5023653,41.9204084 C82.2597548,47.5250148 85.540113,52.4980153 88.3419044,56.8388981 L90.3687757,56.8388981 C91.7793963,49.0165055 92.7820834,44.0428908 93.3768371,41.9204084 C93.1280847,41.9643752 92.4478544,41.9863841 91.3387053,41.9863841 C90.3759414,41.9863841 89.7632735,41.9643752 89.4986542,41.9204084 C89.4177841,43.2511825 89.2120259,44.9668063 88.8813797,47.0653347 C87.9370419,47.0879067 87.1564917,47.0991159 86.5407528,47.0991159 C85.6435039,47.0991159 84.5829793,47.0843238 83.359179,47.0551492 L83.359179,47.0551492 Z" id="path72" fill="#FFFFFF"></path>
                        <path d="M99.645295,51.8254626 C99.9754294,53.3829801 100.121815,54.3672411 100.085474,54.7782456 C99.1897608,54.7782456 98.3513731,54.7378105 97.5687756,54.6574522 C96.7866898,54.5765821 96.2262292,54.4921292 95.8884173,54.4040933 L95.3811876,54.2827882 L95.3591787,54.370824 C95.5352503,54.8775418 95.6867538,55.6007664 95.81113,56.5420331 L95.8776687,56.6075482 C96.2298121,56.5640421 96.673574,56.5420331 97.2104902,56.5420331 L107.319767,56.5420331 C107.863849,56.5420331 108.317848,56.5640421 108.685858,56.6075482 L108.719639,56.5420331 C108.45502,55.6007664 108.299933,54.8775418 108.255915,54.370824 L108.189889,54.2827882 C107.205628,54.6134343 105.707483,54.7782456 103.694431,54.7782456 C103.489185,54.3672411 103.220983,53.3834919 102.889825,51.8269981 L101.755596,46.5049253 C101.345103,44.5655267 101.099422,43.059807 101.018552,41.9863841 L100.963273,41.9204084 C100.281507,41.9643752 99.6831709,41.9863841 99.1708229,41.9863841 L97.3323072,41.9204084 L97.3323072,41.9863841 C97.6987819,43.000434 98.092384,44.5057442 98.5100423,46.5039016 L99.645295,51.8254626" id="path74" fill="#FFFFFF"></path>
                        <path d="M112.981699,46.5049253 C112.66692,45.0058082 112.524117,44.0507219 112.553804,43.639615 C113.448494,43.639615 114.441456,43.6790264 115.532691,43.7609714 C116.623414,43.8407667 117.492,43.9221486 118.137937,44.0031211 L119.108378,44.1350725 L119.129875,44.0359298 C119.049517,43.7937801 118.946638,43.3821102 118.82175,42.801688 C118.799229,42.6851429 118.758794,42.4122318 118.700957,41.9863841 L118.634418,41.9204084 C118.281763,41.9643752 117.836977,41.9863841 117.301085,41.9863841 L110.44248,41.9863841 L108.515928,41.9204084 L108.504156,41.9863841 C108.944847,43.2051685 109.356363,44.7119119 109.738705,46.5039016 L110.905691,52.0245668 C111.272166,53.7499667 111.503004,55.2563006 111.598718,56.5420331 L111.652972,56.6075482 C112.393599,56.5640421 113.020599,56.5420331 113.533458,56.5420331 L120.16532,56.5420331 C120.70889,56.5420331 121.163913,56.5640421 121.531411,56.6075482 L121.56468,56.5420331 C121.446958,56.1228393 121.376836,55.85822 121.354827,55.7481752 C121.274469,55.3735111 121.22175,55.0653857 121.200765,54.8222635 L121.134738,54.7347395 C119.034162,54.9184887 116.977092,55.0101074 114.964041,55.0101074 C114.758794,54.5985911 114.487521,53.6040933 114.148686,52.0255905 L113.801661,50.3826987 C115.439536,50.3826987 117.166472,50.4558401 118.980419,50.6025835 L119.035698,50.5366078 C118.946638,50.3315151 118.862697,50.0513871 118.781827,49.699295 C118.70198,49.3312336 118.664616,49.0493142 118.672294,48.8505682 L118.583746,48.7733833 C117.129108,48.9203315 115.439025,48.9981306 113.510426,49.0047333 L112.981699,46.5049253" id="path76" fill="#FFFFFF"></path>
                        <polyline id="path78" fill="#231F20" points="145.976196 55.3095316 145.903515 54.8847075 145.186945 54.8847075 144.85118 52.91465 144.347533 52.91465 144.683298 54.8847075 143.963656 54.8847075 144.035825 55.3095316 145.976196 55.3095316"></polyline>
                        <path d="M147.893023,55.3095316 L148.612664,55.3095316 L148.204219,52.91465 L147.738448,52.91465 L148.014328,54.5340997 C148.022517,54.5806768 148.033777,54.6461919 148.049133,54.730133 C148.064999,54.8140741 148.07626,54.8785655 148.084449,54.9241189 L147.28752,52.91465 L146.801788,52.91465 L146.69379,54.9241189 C146.685601,54.8785655 146.675364,54.8140741 146.662056,54.730133 C146.648749,54.6461919 146.638512,54.5806768 146.630323,54.5340997 L146.354443,52.91465 L145.88816,52.91465 L146.296605,55.3095316 L147.024948,55.3095316 L147.139088,53.4264862 L147.893023,55.3095316" id="path80" fill="#231F20"></path>
                    </g>
                </g>
            </g>
        </g>
    </g>
</svg>