<?xml version="1.0" encoding="UTF-8"?>
<svg width="200px" height="200px" viewBox="0 0 200 200" version="1.1" xmlns="http://www.w3.org/2000/svg" xmlns:xlink="http://www.w3.org/1999/xlink">
    <!-- Generator: Sketch 54.1 (76490) - https://sketchapp.com -->
    <title>adrian</title>
    <desc>Created with Sketch.</desc>
    <g id="adrian" stroke="none" stroke-width="1" fill="none" fill-rule="evenodd">
        <g id="adrian_BGL">
            <g id="adrian" transform="translate(0.000000, 5.000000)">
                <g id="g10" transform="translate(99.901669, 95.307768) scale(-1, 1) rotate(-180.000000) translate(-99.901669, -95.307768) translate(0.000000, 0.519177)" fill-rule="nonzero">
                    <g id="g12">
                        <path d="M192.981187,9.60421608 C192.981187,9.60168275 192.979854,9.59741608 192.979854,9.59594942 L192.965187,9.51354942 L192.981187,9.60421608" id="path14" fill="#100F0D"></path>
                        <path d="M196.005462,89.0991718 L196.000129,89.0831718 C195.997462,89.0738385 195.994795,89.0618385 195.992129,89.0525051 L196.005462,89.0991718" id="path16" fill="#100F0D"></path>
                        <path d="M35.62616,137.820252 C35.62106,137.822252 35.61716,137.822252 35.61286,137.822252 C35.61206,137.822252 35.61046,137.825252 35.60936,137.825252 L35.62616,137.820252 Z M40.0909331,141.814746 L40.0960331,141.816746 C40.0948331,141.816746 40.0925331,141.814746 40.0909331,141.814746 Z M121.513321,181.528412 C121.512321,181.530412 121.512321,181.533412 121.510321,181.537412 L121.510321,181.537412 L121.513321,181.528412 Z M67.759369,166.499898 C67.8941969,166.880625 67.986075,167.171677 68.0601753,167.370694 C68.2678449,167.499701 68.6129383,167.71917 69.0237938,168.023595 C68.8932136,167.480035 68.7859177,166.973447 68.6999393,166.519563 C68.4383857,166.4527 68.2215126,166.369317 68.0405096,166.291441 C67.8503031,166.200979 67.7163405,166.108157 67.5700278,166.016122 C67.6502638,166.200193 67.7024958,166.353585 67.759369,166.499898 L67.759369,166.499898 Z M157.603929,35.1904809 L157.52448,35.2559283 L157.416712,35.4274131 C157.341982,35.5469804 157.254667,35.6372852 157.176791,35.7522115 C157.878462,35.8671377 158.487312,36.0275311 159.011992,36.2130964 C159.05211,35.6240699 159.096161,35.1103236 159.135493,34.7037946 C158.188393,34.8254859 157.773054,35.0764986 157.603929,35.1904809 Z M166.355945,82.7020628 C166.409435,82.1309714 166.483378,81.6322497 166.555748,81.1311681 C166.529789,81.1587 166.514843,81.186232 166.487311,81.2145506 L166.480232,81.2224168 L166.481805,81.220057 C165.98387,81.7195653 165.383673,82.0357895 164.85742,82.2025545 C164.327233,82.3708927 163.860763,82.412584 163.458796,82.412584 C162.835001,82.4047177 162.348079,82.3118957 161.935886,82.2025545 C162.173447,82.7374611 162.369317,83.2637147 162.479445,83.7592899 C162.669022,84.5852486 162.686328,85.3113056 162.685542,85.7809221 L162.683968,86.1734492 C162.683968,86.716222 162.657223,87.4068808 162.632051,88.0070774 C162.615532,88.402751 162.598226,88.7339211 162.588786,88.9195651 C162.589573,88.95575 162.595866,88.9738424 162.595866,89.0116005 C162.594293,89.2727608 162.569907,89.6031443 162.4527,90.0051108 C162.293801,90.5950813 161.821825,91.3895749 161.091048,91.8709908 C160.367351,92.3618463 159.594096,92.4924264 159.011992,92.4884933 C158.676102,92.4884933 158.264696,92.4475886 157.817105,92.2949829 C157.428511,92.1636162 157.021038,91.9417873 156.686722,91.6570282 C156.088885,91.1520135 155.771874,90.5415907 155.614549,90.0979329 C155.379347,89.4127805 155.366761,88.9777756 155.337656,88.5773822 C155.317204,88.183282 155.318777,87.8292997 155.31799,87.4446389 C155.310911,86.9954747 155.286525,86.9592899 155.229888,86.8161237 C155.228315,86.8129772 155.221235,86.8035377 155.218875,86.7972446 C155.078856,86.9175986 154.92861,87.0285131 154.772071,87.1134688 C154.734313,87.136281 154.699701,87.1449339 154.661156,87.1653862 C155.052897,88.3201551 155.386427,89.2759073 155.65624,90.3205484 C155.977184,91.5579131 156.152602,92.8904598 156.146309,94.439329 C156.143949,95.7624362 156.091245,97.1885915 155.635788,98.7233014 C155.654667,98.7130752 155.670399,98.7052089 155.690065,98.6973427 C159.006486,97.2098304 163.461943,95.365976 165.947685,94.3543733 L165.933526,93.6259564 C165.933526,93.6094372 165.92566,93.21927 165.92566,92.5443438 C165.926446,90.7343143 165.976004,86.8877068 166.355945,82.7020628 L166.355945,82.7020628 Z M168.443654,73.6401358 L168.443654,73.6401358 L168.25565,73.5401358 L168.443654,73.6401358 Z M154.233218,85.6721414 L154.222218,85.6621414 L154.235218,85.6721414 L154.233218,85.6721414 Z M167.78446,76.6396048 C167.738049,76.5720335 167.704224,76.5130364 167.666466,76.4516008 C167.681412,76.5781692 167.680625,76.7213353 167.690851,76.8519155 C167.72153,76.7828496 167.752208,76.7087493 167.78446,76.6396048 L167.78446,76.6396048 Z M65.0064881,52.446803 L59.3565374,52.446803 L62.3094576,63.5232236 L65.0064881,52.446803 Z M198.976593,108.527824 C198.744538,109.840705 198.22851,111.247195 197.326249,112.506585 L197.257812,112.601767 L197.183869,112.690656 C197.17679,112.698522 194.994685,115.329004 192.384656,118.388198 C191.078068,119.919761 189.666859,121.557519 188.361057,123.032445 C187.052896,124.512091 185.864302,125.814746 184.937655,126.743753 C183.258206,128.423202 180.643457,131.025365 178.093998,133.452897 C176.818088,134.66745 175.561844,135.837951 174.429887,136.837755 C173.286918,137.843851 172.31386,138.659584 171.417105,139.26922 L171.413172,139.27158 C170.602946,139.814352 169.584263,140.404323 168.447587,141.035985 C165.216908,142.826348 161.164991,144.836181 160.772464,145.030478 C160.666269,145.087902 159.186623,145.882396 157.623595,146.691048 C156.813369,147.111107 155.985837,147.531953 155.299111,147.864696 C154.952995,148.030675 154.64621,148.174628 154.355945,148.298128 C154.207272,148.361845 154.067253,148.418482 153.884755,148.482199 L153.533919,148.587607 C153.369514,148.622219 153.19095,148.680429 152.722907,148.689868 C152.630871,148.680429 152.403536,148.703241 151.970891,148.631658 C151.857617,148.776397 151.764008,148.943162 151.637361,149.076102 C150.682395,150.090065 149.493802,150.576987 148.645031,150.787017 C147.802553,150.994686 147.195277,151.048177 147.038738,151.091442 L147.023005,151.094588 C146.220645,151.272366 142.675316,152.066073 138.949849,152.881019 C137.085542,153.288492 135.177184,153.703044 133.535493,154.04916 C131.888296,154.39685 130.53215,154.674529 129.686526,154.823988 L129.687312,154.823988 C128.913271,154.960075 128.085739,155.127626 127.253487,155.271579 C126.418089,155.411599 125.590557,155.537459 124.67571,155.542179 C124.288689,155.542179 123.879643,155.517794 123.421039,155.431265 C123.420253,155.431265 123.420253,155.431265 123.420253,155.431265 C123.410026,155.543752 123.402947,155.65152 123.391147,155.766368 C123.351816,156.132936 123.298325,156.504224 123.240115,156.875512 C123.310125,156.874726 123.371482,156.85742 123.441492,156.85742 C124.957322,156.837754 126.429889,157.404912 127.421039,158.251323 C128.92979,159.535099 129.467057,161.054077 129.770695,162.150635 C130.06096,163.269219 130.081413,164.081805 130.088492,164.236771 L130.100292,164.657616 L130.054667,164.842474 C130.062534,164.976987 130.106585,165.437951 130.628119,166.314253 L130.627332,166.311894 C131.298325,167.420251 131.773448,168.199013 132.142376,168.893604 C132.328807,169.24444 132.492425,169.57561 132.641098,169.975217 C132.785051,170.374037 132.930577,170.866466 132.933723,171.520153 C132.920351,172.435001 132.648964,172.999799 132.432642,173.423791 C132.087312,174.05152 131.747489,174.439327 131.419466,174.812188 C131.093015,175.17561 130.772071,175.494194 130.488099,175.77974 L130.485739,175.7821 C130.078266,176.181707 129.722711,176.397242 129.41042,176.57266 C128.862927,176.868432 128.408256,177.034411 127.965385,177.202749 C127.307765,177.44503 126.687116,177.661352 126.189967,177.891834 C125.690459,178.115236 125.349063,178.353585 125.231855,178.478658 C124.870793,178.816908 124.219466,179.811992 123.8057,180.720546 C123.590951,181.17443 123.417893,181.614155 123.318778,181.923299 L123.232249,182.225364 C123.218089,182.865679 123.170892,183.705797 122.716221,184.742572 C122.4645,185.304223 122.049948,185.919366 121.449751,186.420448 C120.852701,186.923103 120.094392,187.270792 119.347096,187.423397 L119.349456,187.422611 C119.155946,187.461942 118.930184,187.528019 118.560469,187.620841 C118.197047,187.711303 117.663714,187.830084 117.005307,187.830084 C116.447588,187.83323 115.830872,187.734115 115.263714,187.544538 C114.694982,187.354961 114.167155,187.093801 113.644048,186.77679 C113.211403,186.512483 112.879447,186.24739 112.532544,185.957124 C111.354963,184.954961 110.055454,183.57915 108.958896,182.387409 C108.660764,182.060959 108.388591,181.760467 108.14159,181.482788 C106.712288,182.097144 104.563223,182.783083 101.877677,182.776003 C100.523891,182.77679 99.0379523,182.606092 97.4544715,182.190753 L97.451325,182.189966 C94.9828885,181.543358 93.8713841,181.18151 93.4458187,181.074528 C93.2357892,181.023398 93.2924264,181.037557 93.1917381,181.026544 C93.092623,181.017105 92.7960645,181.012385 92.2580115,181.014745 C92.0322494,180.984853 91.1763989,181.220841 90.0074707,181.684951 C88.8338228,182.113663 87.3172053,182.739032 85.3474905,182.756338 C84.9541768,182.756338 84.584462,182.746111 84.2281198,182.731952 C84.1691228,182.803535 84.1258583,182.882198 84.0597816,182.948275 L84.0629281,182.945915 C83.7931149,183.215728 80.1109125,186.89793 80.1093392,186.90029 L79.900883,187.108747 L79.6578151,187.273152 C79.5626332,187.336082 79.0379528,187.691637 78.2171859,188.073938 C77.3891033,188.442866 76.2859371,188.894391 74.7769499,188.91327 C73.84283,188.911696 72.5577956,188.837753 71.2242263,188.152601 C70.5681792,187.815138 69.9434397,187.336082 69.4158488,186.761057 C68.8848754,186.185246 68.4442854,185.522906 68.0650524,184.785836 C67.3045411,183.292031 66.9813159,181.883968 66.7066257,180.777183 C66.4482186,179.664106 66.2094772,178.857813 66.0149443,178.530576 C65.7500869,178.04208 65.2688283,177.44975 64.4816503,176.666269 C63.7026533,175.885935 62.6496739,174.934902 61.4309522,173.714843 L61.4337841,173.71799 L61.434964,173.719563 C61.2515226,173.535492 61.0803525,173.37266 60.8505786,173.119366 C60.6818471,172.930576 60.4704016,172.675709 60.269497,172.336672 C59.9585432,171.824578 59.7695167,171.169317 59.7135875,170.703634 C59.6503427,170.224578 59.6521519,169.873742 59.6497134,169.488295 C59.6850329,167.889868 60.2606081,166.831854 60.8449936,165.950045 C61.1538234,165.51032 61.4783072,165.128019 61.9069404,164.755158 C62.1269601,164.569514 62.3697133,164.383083 62.721257,164.194293 C63.0773632,164.018088 63.5432039,163.785247 64.3817486,163.769514 C64.8291823,163.766368 65.2489266,163.882002 65.6154949,164.033034 C65.5678253,163.963024 65.5165372,163.904027 65.4698115,163.831658 C65.0808243,163.220448 64.7292806,162.51563 64.4589168,161.712484 L64.4560849,161.703831 C64.3012767,161.240507 64.2112078,160.778757 64.1531547,160.320153 C63.0531351,159.125266 61.6180909,157.443457 61.6180909,156.797636 C61.6180909,156.291835 62.8776385,155.167744 64.1839119,154.138049 C64.1054851,153.942179 64.0622206,153.766761 64.0332727,153.624382 C63.9924468,153.409632 63.9826139,153.250734 63.9786021,153.109141 L63.9776582,153.109141 L63.7816307,150.130183 L63.7936661,150.06568 C62.9609424,149.79744 62.2388185,149.625955 62.0873141,149.776987 C61.6915619,150.172661 55.285741,147.676692 55.0964785,147.487115 C54.7618472,147.152799 54.7926043,146.938049 54.7926043,146.938049 C54.7926043,146.938049 54.7323487,147.092228 54.2311884,147.092228 C53.8449544,147.092228 51.6159672,146.296162 50.628986,145.936673 C50.3238532,145.897341 50.1210607,145.836771 49.9259771,145.789574 C49.6487697,145.712484 49.3992515,145.628315 49.0919948,145.527627 L49.0861738,145.526053 C48.7336861,145.415139 48.3594875,145.222415 48.0119555,144.969121 C47.9692417,144.971481 47.9455642,144.987214 47.9009624,144.987214 C47.4806674,144.988787 47.0046793,144.899898 46.5781699,144.714254 C46.1550431,144.531756 45.7933519,144.265876 45.5214148,143.992917 C45.1809625,143.642868 44.9855643,143.317991 44.8598612,143.034018 C44.8469605,143.037951 44.8361837,143.048177 44.8235977,143.05211 C44.2204119,143.270006 43.657816,143.307764 43.3250727,143.305404 L43.0499891,143.299898 L43.0094778,143.297538 L43.0094778,143.294392 C42.152762,143.2645 41.7102841,143.008846 41.4220639,142.864107 C40.9249154,142.570695 40.7693992,142.400783 40.6034995,142.26391 C40.3791534,142.064107 40.2440108,141.939033 40.1459184,141.864303 L40.0538043,141.798227 L40.0538043,141.796653 L40.0559282,141.79508 C39.3900482,141.523694 38.6860954,141.039918 38.2052301,140.3351 C38.1305005,140.228118 38.0767739,140.117204 38.0171475,140.00629 C37.9086716,140.016516 37.7987011,140.032248 37.6939224,140.029888 C37.208416,140.029888 36.8243059,139.92684 36.5600777,139.834018 C36.1599991,139.687705 35.9765576,139.568925 35.8481014,139.497342 L35.6114839,139.354962 L35.60936,139.354962 C35.1004908,139.069416 34.6260758,138.558895 34.3380916,138.016122 C33.7340405,137.996457 33.3330178,137.880036 32.9864299,137.762042 C32.3614545,137.53864 31.8694977,137.269613 31.3142175,136.942376 C29.6903041,135.972465 27.5964595,134.407863 24.8709532,132.272956 L24.8715825,132.272956 C22.3595668,130.294589 19.8552601,127.486329 17.5896947,124.691442 C15.3352209,121.901275 13.3776201,119.154373 12.1899702,117.374235 L12.1893409,117.374235 C11.6338247,116.538837 11.1959093,115.903242 10.808102,115.284953 C10.5187018,114.823989 10.2504619,114.364599 10.015339,113.850931 C9.655221,113.084756 9.41679426,112.224973 9.29573231,111.387215 C9.16916398,110.542377 9.11999977,109.686526 9.06218266,108.569515 C9.04928198,108.324088 9.04220233,108.084166 9.04220233,107.846605 C9.04157303,106.74926 9.1859978,105.6763 9.5931561,104.663911 C9.89427704,103.909535 10.3373842,103.234609 10.813687,102.693409 C11.5357323,101.877677 12.2757126,101.330971 13.0193114,100.774825 C13.7687312,100.221826 14.5556732,99.6617478 15.4686328,98.9168117 C17.5623988,97.2137635 20.022733,95.6735473 22.3703436,94.4180901 C24.734788,93.1642061 26.9017102,92.2155336 28.6919167,91.727038 C30.6634407,91.1960646 32.2391339,91.0190734 33.282595,90.9616496 L0,0 L45.0916016,0 L50.1736074,17.5764794 L73.8172646,17.5764794 L78.2645408,0 L124.827529,0 L105.256241,61.0084547 C105.386035,60.9510309 105.511108,60.8818864 105.640115,60.8259572 C107.533527,60.0267438 109.48043,59.443853 111.063124,59.0434597 C111.856044,58.843735 112.552996,58.6894774 113.115435,58.5824961 C113.398621,58.5290841 113.644835,58.4857409 113.87217,58.4519159 C113.950833,58.4409032 114.018483,58.4331942 114.088493,58.4243053 L116.870794,57.3623584 C116.926644,57.3404902 117.909142,56.9745512 119.310125,56.5631451 C119.261354,56.3341579 119.235395,56.0991136 119.236182,55.8732729 C119.236182,55.1914244 119.443065,54.6312671 119.656241,54.2370095 C119.988198,53.6394087 120.331167,53.3152396 120.659977,53.0217489 C120.991934,52.7362819 121.331757,52.5018669 121.725071,52.2587991 L121.720351,52.2633615 C121.821039,52.2038138 122.270203,51.8866457 122.757126,51.5200774 C123.503635,50.9577962 124.431069,50.2292219 125.160272,49.6472751 C125.891836,49.0643056 126.423596,48.6332338 126.425956,48.6332338 L126.961649,48.1975209 L127.01278,48.1305003 L133.046211,39.6837748 C133.13982,39.4840501 133.237361,39.3006087 133.327037,39.1411593 C133.518187,38.8120344 133.696752,38.5613363 133.841491,38.3732537 C133.935887,38.2018476 134.07512,37.9476883 134.259977,37.6078653 C135.310124,35.6806284 137.692819,31.2306777 139.832445,26.7579148 L139.832445,26.759488 C141.288492,23.7057221 143.222022,21.4899503 145.257813,20.036263 C147.301471,18.5880821 149.394687,17.8675315 151.396653,17.8540015 C152.038541,17.8540015 152.681215,17.9304617 153.33097,18.1327036 C153.625955,18.2270202 154.080625,18.2866465 154.545522,18.284444 C155.008846,18.284444 155.475316,18.2325266 155.801766,18.1791146 L156.171481,18.1096554 L156.239131,18.0924283 L156.239131,18.0924283 L156.382297,18.0555354 L156.527036,18.0309927 C156.53097,18.0309927 156.66155,18.0106977 156.86214,17.9790753 C156.705601,17.7802159 156.550635,17.578682 156.437361,17.3924873 C156.134509,16.9008452 155.92212,16.4696948 155.629495,15.9034018 L155.631855,15.9048964 C155.406092,15.4667449 155.237754,15.2494785 155.155945,15.1622415 C155.023792,15.0433035 155.128413,15.0986034 154.8586,14.9898915 C154.599799,14.8949455 153.964991,14.7705011 153.039131,14.5661353 L153.032051,14.5636968 C152.382297,14.4173841 151.794686,14.1310518 151.25742,13.7936673 C150.950635,13.9484756 150.687115,14.0453094 150.510124,14.0901471 L149.917007,14.2333133 L149.312877,14.14057 C149.057223,14.0886525 147.925267,13.933451 146.547096,13.0337067 C145.86745,12.5799014 145.1233,11.9023793 144.559288,10.9436379 C143.991343,9.99174016 143.653094,8.77553567 143.659387,7.49815517 C143.667253,5.86590349 143.686919,4.86387402 143.870203,3.85201957 C143.984264,3.34071181 144.094392,2.75472953 144.670203,1.97056436 C144.958108,1.59046604 145.411992,1.18854668 145.946112,0.941498502 C146.477086,0.689220828 147.028512,0.606563603 147.441491,0.610558097 C148.06214,0.61209438 148.537263,0.766039706 148.905404,0.926749239 C149.491442,1.1986863 149.846997,1.5031976 150.160075,1.80616711 C150.474726,1.52685935 150.820055,1.27673546 151.18505,1.11694786 C152.053487,0.717489854 152.85506,0.637905982 153.58741,0.633910702 C154.288295,0.633910702 154.964795,0.734697327 155.59331,0.956554548 C156.093605,1.12739427 156.542769,1.38827135 156.92507,1.69032837 C157.179937,1.45987017 157.438737,1.25768335 157.689672,1.11295179 C158.789377,0.48150166 159.761648,0.319259776 160.701668,0.189589769 C161.639327,0.0771263698 162.555748,0.0589970487 163.424971,0.0574606869 C164.243064,0.0574606869 165.017892,0.0771263698 165.65506,0.0771263698 C166.910517,0.0691371467 168.095178,0.465831257 168.974627,1.03828513 C170.30796,1.90695767 171.005699,3.00976984 171.434411,3.83634209 C171.745128,4.45150825 171.911107,4.94960853 171.995276,5.23506772 C172.039327,5.35367538 172.129789,5.60010999 172.270595,5.98389759 C172.297341,5.86989956 172.305207,5.76757508 172.342965,5.64866063 C172.555355,4.94561246 172.98092,4.18079832 173.588983,3.57854072 L173.629887,3.53890257 L173.58977,3.57854072 C174.356731,2.81372658 175.107174,2.23635786 175.9056,1.82491244 C176.698521,1.41439524 177.561451,1.18240312 178.394489,1.18455061 C179.201569,1.17994097 179.922906,1.40793703 180.443653,1.68725266 C181.296357,1.21865877 182.217498,1.0155516 182.971087,1.02906585 C183.952798,1.03275514 184.696947,1.27120547 185.228707,1.48506584 C185.561451,1.62211205 185.787999,1.74225364 185.960271,1.84151028 C186.169514,1.94782296 186.58328,2.16322512 187.088294,2.51567349 C187.418678,2.75472953 187.793899,3.04018871 188.209238,3.52169116 C188.366564,3.70975015 188.529395,3.94880619 188.686721,4.22812182 C189.16735,4.30525063 189.650339,4.43430471 190.081411,4.67643646 C191.038737,5.21048561 191.671972,6.01677861 192.092817,6.8286016 C192.517596,7.64995064 192.779543,8.53333312 192.97384,9.56216299 L192.974626,9.56916397 C193.082394,10.1474924 193.124872,10.7137854 193.124872,11.2653684 C193.105993,13.6707175 192.378363,15.7955552 191.722316,17.4418875 C191.054469,19.0747685 190.409435,20.1926445 190.361451,20.2753191 L190.234804,20.4947094 L190.074332,20.6892424 C190.069612,20.6978166 188.543555,22.5525265 186.746111,24.6859384 C185.84621,25.7518971 184.880231,26.8860564 183.993702,27.8985244 C183.102454,28.9156335 182.314253,29.791071 181.681018,30.4274525 C180.376003,31.7020248 178.893211,32.2108153 177.571677,32.5223984 L177.571677,35.0709922 C177.627528,35.3579539 177.709337,35.8071967 177.796652,36.3563413 C177.937459,37.2655251 178.093211,38.2875113 178.101077,39.3252301 C178.101077,39.893647 178.132542,40.9470196 178.165581,41.8203333 C178.197832,42.6982094 178.229297,43.4107364 178.229297,43.4123096 L178.233231,43.4817688 L178.233231,53.9690842 L180.145522,57.3301067 L180.182493,57.4065669 C180.221824,57.4852296 180.310713,57.6895954 180.406682,57.9486318 C180.5703,57.9981106 180.738639,58.0460162 180.878658,58.1130369 C181.58269,58.4559277 181.946111,58.8870782 182.17974,59.196144 C182.521136,59.677324 182.628117,59.9990545 182.717793,60.2390545 C182.799602,60.4799985 182.834214,60.6394478 182.854666,60.7266848 L182.889278,60.8929778 L182.905797,61.0610014 C182.908943,61.115436 183.005698,62.0366553 183.008058,63.0300869 C183.006485,63.3708539 183.000979,63.7152393 182.945128,64.1368716 C182.91681,64.354138 182.879051,64.5891823 182.779936,64.9133514 C182.661156,65.2365765 182.551815,65.6858194 181.929592,66.3458784 C181.63618,66.6344133 181.201962,67.0322894 180.5703,67.4705195 C180.338245,67.6287102 180.065286,67.786665 179.762434,67.9409226 C179.922906,68.1335676 180.092818,68.3569698 180.266662,68.6851507 C180.446013,69.0204113 180.592326,69.5049737 180.654469,70.0507357 C181.149258,70.23166 181.660566,70.4510504 182.204912,70.7657013 C183.752208,71.6586806 185.499307,73.1129972 187.498127,75.4809027 C189.854863,78.28106 191.610615,80.4523087 192.990359,82.564403 C194.36617,84.6678445 195.343161,86.7476871 195.992129,89.0540784 L195.996849,89.0705976 C196.595472,91.1771855 197.379739,94.312682 198.028707,97.2814135 C198.353584,98.770499 198.644636,100.210027 198.860172,101.469417 C199.070988,102.74926 199.221234,103.764796 199.2291,104.751226 C199.22674,105.981512 199.214941,107.20865 198.976593,108.527824 L198.976593,108.527824 Z" id="path18" fill="#100F0D"></path>
                        <path d="M49.0523488,145.513467 L49.1096822,145.534801 C49.1127488,145.534801 49.1143488,145.537467 49.1174155,145.537467 L49.0523488,145.513467" id="path20" fill="#100F0D"></path>
                        <path d="M45.5214581,143.993357 L45.5094581,143.982691 C45.5167914,143.990691 45.5245247,143.993357 45.5297247,144.000024 C45.5329247,144.004024 45.5345247,144.006691 45.5375914,144.010691 L45.5214581,143.993357" id="path22" fill="#100F0D"></path>
                        <path d="M130.628119,166.315587 C130.628119,166.315587 130.628119,166.315587 130.628119,166.314253 L130.637452,166.327587 L130.628119,166.315587" id="path24" fill="#100F0D"></path>
                        <path d="M64.454905,161.701471 C64.456905,161.708138 64.460105,161.712138 64.461705,161.720138 L64.4647716,161.726804 L64.454905,161.701471" id="path26" fill="#100F0D"></path>
                        <path d="M113.642475,186.776003 C113.643808,186.776003 113.643808,186.776003 113.645142,186.777337 L113.645142,186.777337 L113.642475,186.776003" id="path28" fill="#100F0D"></path>
                        <path d="M97.4505384,182.189966 C97.4518717,182.189966 97.4545384,182.189966 97.457205,182.191299 L97.5518717,182.216633 L97.4505384,182.189966" id="path30" fill="#100F0D"></path>
                        <path d="M46.2573833,139.775021 C46.2573833,139.775021 49.2117982,132.881019 51.081926,130.470793 C52.9535483,128.056634 53.9368325,129.72979 53.9368325,129.72979 C53.9368325,129.72979 54.4155739,130.173448 54.8580517,129.72979 C54.8580517,129.72979 54.972034,128.991934 54.4788974,128.500292 C53.9853674,128.00865 53.7401756,127.023006 53.9853674,126.776791 C54.2330763,126.52979 54.6755542,125.300292 54.6755542,124.020449 L54.6755542,119.194491 C54.6755542,119.194491 53.5923684,118.849948 53.1508345,121.065877 C52.706154,123.281806 52.5091826,125.446605 50.933804,128.450734 C49.3581109,131.455651 47.1435976,134.211206 46.7985042,134.556535 C46.4540401,134.899505 45.6646596,135.786034 45.2233617,135.344736 C44.7805692,134.899505 44.9271965,134.653291 45.6646596,133.27512 C46.4055052,131.899308 47.9307756,128.155749 48.4236763,126.284363 C48.915633,124.41219 49.1132338,123.182691 49.5547677,122.739033 C49.9990548,122.295376 49.0646202,121.41042 48.6679241,121.80452 C48.2752397,122.19862 45.124168,123.182691 43.2537256,123.822219 C41.3824178,124.464107 38.3308545,124.807077 37.295653,124.807077 C36.26171,124.807077 34.8592322,124.537263 34.0468035,125.349849 C33.2340601,126.160862 32.471425,126.628905 31.437718,126.628905 C30.4031457,126.628905 28.0893602,125.93982 26.6123101,125.005307 C26.6123101,125.005307 25.8262334,124.315434 26.7121331,124.315434 L30.3057613,124.315434 C30.3057613,124.315434 30.650776,124.120351 30.1091045,123.576791 C29.5673542,123.036378 28.6304811,122.543163 28.6304811,122.543163 C28.6304811,122.543163 35.6717395,122.543163 38.4783471,122.00275 C41.2856627,121.459191 46.2066458,120.131364 52.5091826,116.781905 C58.8117979,113.435592 61.7644036,110.775218 61.7644036,110.775218 C61.7644036,110.775218 58.8609621,108.707962 57.7784056,106.836576 C56.6945905,104.966762 55.7583467,102.505406 55.7583467,101.471777 C55.7583467,100.435789 56.0302838,100.164403 56.4482188,99.7467035 C56.8679632,99.3290044 56.8679632,98.8121903 56.8679632,98.8121903 C56.8679632,98.8121903 57.1859966,98.4196632 55.5620045,99.3054056 C53.9368325,100.192721 53.1508345,100.388591 52.361454,100.388591 C51.5748266,100.388591 51.0576192,100.461748 51.5748266,99.9449336 C52.0913261,99.4281194 52.361454,99.156733 52.361454,99.156733 C52.361454,99.156733 52.9516604,98.4196632 51.9923684,98.7885914 C51.0327618,99.156733 46.6002742,100.143164 44.878347,99.156733 C44.878347,99.156733 44.1884748,98.6650909 44.5827324,98.2709907 C44.9778553,97.877677 46.0610411,97.877677 46.0610411,97.877677 C46.0610411,97.877677 46.750284,97.0894764 45.6646596,97.0894764 C44.5827324,97.0894764 39.7090256,97.4340192 39.7090256,97.4340192 C39.7090256,97.4340192 38.0850335,98.1231047 37.247118,96.6473919 C36.4094386,95.1685325 36.8544337,94.0373624 36.4094386,94.0373624 C35.9682194,94.0373624 34.1955547,93.9885916 31.437718,94.726448 C28.6793306,95.465091 23.1173249,98.2709907 19.3753387,101.323105 C15.6345325,104.375219 13.9100881,104.523105 14.106745,108.413763 C14.3034018,112.302062 14.4518384,112.253291 16.7164598,115.651521 C18.9823397,119.048178 24.3965382,126.432249 28.7303041,129.829692 C33.0617101,133.227922 35.8192321,135.146506 36.5093403,134.899505 C37.1988978,134.653291 37.9366756,133.917007 38.3791534,133.029692 C38.8228112,132.143949 39.6850334,131.72625 40.1029685,132.143949 C40.5208249,132.562435 40.4962822,133.126447 40.1029685,133.964205 C39.7090256,134.801963 38.526646,136.326447 39.1166165,136.67099 C39.7090256,137.015532 39.7090256,137.140606 40.2252104,136.178561 C40.7435978,135.219662 41.8510117,133.201963 42.2200973,132.833035 C42.5894188,132.464893 42.957875,131.847391 44.0406675,131.847391 C45.124168,131.847391 44.9271965,132.536477 44.5827324,133.374235 C44.2382683,134.209633 42.6619458,137.853291 42.6619458,137.853291 C42.6619458,137.853291 42.2934896,138.568335 43.2033814,138.937263 C44.1144532,139.307764 44.730225,140.19272 45.0005888,140.19272 C45.2716606,140.19272 45.7402545,140.291835 46.2573833,139.775021" id="path32" fill="#FBBF16"></path>
                        <path d="M163.554765,69.6850327 C163.554765,69.6850327 161.277479,67.1229875 156.152602,64.2754753 C151.030871,61.4325255 144.626152,57.7313653 144.626152,57.7313653 C144.626152,57.7313653 144.840114,57.0894774 138.649357,56.3093005 C132.459387,55.5263703 124.703242,56.1698314 124.703242,56.1698314 C124.703242,56.1698314 123.444638,56.0425551 125.293212,54.9041481 C126.446408,54.1939809 130.326054,51.0425946 130.326054,51.0425946 C130.326054,51.0425946 130.953782,50.9734501 130.306388,51.6184058 L126.430675,54.8414539 C126.430675,54.8414539 125.717204,55.3069799 126.897932,55.3069799 C128.081806,55.3069799 128.632445,54.6116014 128.775611,54.5227912 C129.353782,54.1647971 131.021432,53.1713654 132.868433,51.5028502 C134.716221,49.8312672 134.605306,49.7234206 134.997833,49.7234206 C135.384067,49.7234206 135.411599,49.9115032 134.716221,50.6053085 C134.021629,51.3022603 132.727627,52.4744923 132.014943,53.0116014 C131.298325,53.5465867 129.808453,54.3623979 129.532347,54.9575601 C129.253881,55.5539809 130.363812,55.3957902 130.562829,55.3957902 C130.761845,55.3957902 131.696359,55.198504 133.028905,54.2656427 C134.360665,53.3302642 136.466467,51.401454 136.754372,50.9341187 C137.041491,50.4685926 137.46155,49.5928405 137.776201,49.7517392 C138.094785,49.9115032 137.936673,50.6462131 136.744933,51.8396841 C135.551619,53.0312671 133.345916,54.9781697 133.345916,55.2968324 C133.345916,55.6154952 134.021629,55.8732729 134.776004,55.4154558 C135.53274,54.9575601 137.707765,53.3201167 138.433035,52.5940596 C139.155945,51.8685533 139.841098,50.9064294 140.022022,50.5061148 C140.201373,50.1097333 140.340606,49.6730764 140.73628,49.8927814 C141.1351,50.1097333 140.796063,50.6068817 140.201373,51.5200774 C139.606683,52.4351609 137.46155,54.5817882 137.46155,54.5817882 C137.46155,54.5817882 136.561649,55.4430665 137.577971,55.7334893 C137.996457,55.852978 140.182494,54.1246004 140.182494,54.1246004 C140.182494,54.1246004 141.234215,52.9319947 141.98859,51.8811393 C142.745326,50.827216 143.141786,49.7517392 143.141786,49.7517392 C143.141786,49.7517392 143.419465,49.0769703 143.706584,49.1878847 C143.997637,49.2963606 144.016516,49.7517392 143.499701,50.6846005 C142.983674,51.6184058 140.261943,54.8414539 140.261943,54.8414539 C140.261943,54.8414539 139.576791,55.5837941 140.439721,55.7334893 C141.303438,55.8827911 141.683379,55.5045807 142.218286,54.9680222 C142.754765,54.433037 144.812582,51.9557902 145.288492,51.2033026 C145.763615,50.448927 145.963418,49.7722701 146.20334,49.7722701 C146.442474,49.7722701 146.777577,49.9508345 146.539229,50.4879437 C146.301668,51.0229289 145.616516,53.3576388 143.557125,55.4154558 C142.633625,56.3381697 143.341589,56.5090251 143.341589,56.5090251 C143.341589,56.5090251 143.727037,57.0556525 144.649751,56.1305001 C145.577184,55.2077076 147.078069,53.2098315 147.711304,51.7781698 C148.350045,50.34816 148.646604,50.0704019 149.32153,50.2685533 C149.99803,50.4685926 149.042277,51.7600774 148.805503,52.1951609 C148.567155,52.6324471 147.05683,55.4753182 146.420449,56.3486318 C145.784854,57.2240694 145.963418,57.3223978 146.282002,57.4631254 C146.599013,57.6007852 146.65801,57.7605492 147.534313,56.8873142 C148.406683,56.0109327 149.420645,54.8414539 150.314254,52.993509 C151.209436,51.1443055 151.288885,50.9860361 151.766368,51.1443055 C152.243064,51.3022603 151.627135,52.4554559 151.350242,52.9516604 C151.070989,53.4473143 149.420645,56.4288678 149.002946,57.045505 C148.585247,57.6622208 147.991343,58.5345905 148.706388,58.9128795 C149.420645,59.29109 150.435394,57.4031844 150.949849,56.7284155 C151.466663,56.0518373 152.718974,53.4882189 152.718974,53.4882189 C152.718974,53.4882189 153.31445,51.8568325 153.922513,52.2839712 C154.528216,52.7126044 153.653487,54.4235188 153.098915,55.3761245 C152.539623,56.3289661 151.110321,59.3313653 151.110321,59.3313653 C151.110321,59.3313653 150.65093,60.0267438 151.486329,60.4018864 C152.322513,60.7804901 152.841687,59.6475895 153.294785,58.8139218 C153.752602,57.9808835 155.082789,55.5539809 155.321923,54.9378944 C155.558698,54.3227518 155.997636,53.6863703 156.416122,53.946036 C156.833034,54.2041284 156.017302,55.8318177 154.924677,57.7793496 C153.831265,59.7271175 153.553585,60.9792708 153.553585,60.9792708 C153.553585,60.9792708 153.393113,61.5551607 153.891048,61.8138824 C154.388197,62.0713455 154.944342,61.2979336 155.341589,60.4639513 C155.738836,59.6279238 157.269613,56.7471372 157.269613,56.7471372 C157.269613,56.7471372 157.653487,54.7587794 158.410222,55.333096 C159.162238,55.9079632 158.560468,56.2493595 157.964205,57.3835187 C157.368728,58.5155541 155.938639,61.8138824 155.938639,61.8138824 C155.938639,61.8138824 155.364401,62.7667241 156.077086,63.1252688 C156.79213,63.4832629 157.729003,62.4305196 158.085345,61.5173239 C158.441687,60.602555 159.495768,57.8201755 159.495768,57.8201755 C159.495768,57.8201755 160.259583,55.8827911 160.84562,56.4687498 C161.432444,57.0556525 160.249357,59.4306376 159.911107,59.9268422 C159.574431,60.4240693 158.26391,63.3054065 158.26391,63.3054065 C158.26391,63.3054065 157.865089,64.2382678 158.481019,64.4560849 C159.095375,64.6764192 159.436771,64.1172059 159.911107,63.0457408 C160.390163,61.9720732 162.050733,59.1008835 162.235591,58.9128795 C162.425168,58.724797 163.060763,57.7500871 163.468236,58.158504 C163.875709,58.5659769 163.170891,59.2699297 163.040311,59.4005098 C162.912877,59.5289661 161.342769,62.6060161 161.103634,63.2635579 C160.866073,63.9199197 159.99213,65.3711685 160.686722,65.8487299 C161.37974,66.3237742 161.521333,65.4897919 161.521333,65.4897919 C161.521333,65.4897919 162.196259,64.5937447 162.576987,64.9744723 C162.950635,65.3506375 161.867449,67.0685529 162.374824,67.5759275 C162.881412,68.0825942 163.270006,67.6963602 163.340016,67.6247771 C163.408452,67.5571271 164.065286,67.4382677 164.244637,68.1517387 C164.422415,68.8682775 165.614155,70.278071 165.614155,70.278071 C165.614155,70.278071 165.894194,73.2986412 166.113663,74.3922105 C166.329199,75.4849145 166.964794,78.2850718 166.230084,79.0222202 C165.496161,79.7545703 163.687705,78.8436558 163.687705,78.8436558 C163.687705,78.8436558 161.322317,77.4913648 160.130576,77.4913648 C158.937262,77.4913648 158.879839,77.9289656 158.879839,78.7225152 C158.879839,79.5185821 159.733329,81.1665663 160.667843,82.7162221 C161.600783,84.2658779 161.521333,85.2995062 161.521333,86.1734492 C161.521333,87.0481787 161.422218,88.915632 161.422218,88.915632 C161.422218,88.915632 161.542572,89.3836752 160.956535,89.3836752 C160.366564,89.3836752 160.366564,88.7779722 160.366564,87.4446389 C160.366564,86.1160254 160.071579,84.9809222 158.243457,83.3533902 C156.416122,81.7234984 156.892818,81.7234984 155.959091,81.7234984 C155.023792,81.7234984 154.506977,81.9028495 154.607666,82.7162221 C154.706781,83.531168 155.640507,84.6049143 154.944342,84.4263499 C154.248964,84.2485721 153.018679,83.4918367 152.580527,82.8169104 C152.142376,82.1411976 151.050537,82.2599783 151.446997,82.9356911 C151.846604,83.6098308 152.420842,84.4460156 153.435591,87.4863302 C154.449554,90.5258581 154.983674,91.7356909 154.983674,94.439329 C154.983674,97.1429671 154.755552,99.0206465 152.142376,101.632249 C149.529986,104.246212 147.771088,105.88633 147.771088,111.070204 C147.771088,116.257224 151.395866,132.294982 151.395866,132.294982 C151.395866,132.294982 152.531756,136.715041 152.531756,142.388197 C152.531756,148.062926 149.902061,147.703438 148.291048,148.062926 C146.678462,148.420842 134.13569,151.228315 131.090656,151.764795 C128.044835,152.302848 124.999014,153.138246 124.999014,151.347096 C124.999014,149.554372 124.041688,143.284166 123.621629,142.267843 C123.20629,141.252307 121.832052,138.624185 121.832052,137.611009 C121.832052,136.5939 123.685346,132.771678 123.685346,130.262337 C123.685346,127.753782 123.86391,123.513861 123.027726,119.451718 C122.192327,115.391934 117.832052,113.181511 113.292426,112.106192 C108.753586,111.033232 108.214747,111.330577 106.901079,111.330577 C105.586625,111.330577 105.646408,111.569712 103.01986,110.375612 C100.392525,109.181512 97.2853466,107.74749 94.8373624,108.103832 C92.3870183,108.462534 88.2045209,107.804914 87.1905583,107.507569 C86.1773823,107.20865 84.0857403,106.909732 83.0717777,107.20865 C82.0554552,107.507569 81.220057,106.909732 81.220057,106.135691 C81.220057,105.35693 82.8318563,104.701669 83.7293981,104.401177 C84.6222201,104.103832 87.8481787,100.81809 88.2682377,99.3864282 C88.6843636,97.9524066 89.1083557,97.6338225 91.7954746,97.6338225 C94.4849534,97.6338225 95.0332326,98.0420821 95.4808236,96.7583063 C95.9284145,95.471384 101.033626,79.3762025 101.033626,79.3762025 L104.319368,69.1021418 C104.319368,69.1021418 104.392524,67.3116207 106.036576,67.0427515 C107.678267,66.7751409 118.964009,65.101434 125.59449,65.101434 C132.224972,65.101434 134.615533,65.6385431 141.063517,68.446724 C147.513861,71.2552195 153.905208,74.1209028 154.9821,75.1935478 C156.058207,76.2705979 155.845031,76.241414 156.173841,75.9126038 C156.505011,75.5837936 155.878855,74.1209028 153.486722,72.5679431 C151.100881,71.0152195 144.768531,66.4165175 138.494392,64.0268224 C132.224972,61.6387005 124.280036,60.9218471 124.280036,60.9218471 L119.920548,60.2642266 C119.920548,60.2642266 124.462534,58.5305787 127.923694,58.5305787 C131.388787,58.5305787 140.169908,58.7705787 146.499898,61.8768126 C152.828315,64.9839905 161.970497,69.9987396 161.970497,69.9987396 C161.970497,69.9987396 163.701078,71.7913846 164.240704,71.2552195 C164.77561,70.7162224 163.554765,69.6850327 163.554765,69.6850327" id="path34" fill="#FBBF16"></path>
                        <path d="M105.783282,65.3208243 C105.783282,65.3208243 116.40511,63.3809227 120.243065,63.1237742 C120.243065,63.1237742 117.301079,61.4899493 116.609633,61.4899493 C115.920548,61.4899493 109.146113,62.8631646 105.783282,65.3208243" id="path36" fill="#FBBF16"></path>
                        <path d="M176.387803,72.2597425 C176.387803,72.2597425 177.144538,71.5932332 176.433427,70.8846393 C176.044047,70.4934496 175.585443,68.9377367 175.291244,68.6387397 C174.992326,68.3413159 174.795669,68.0085725 174.462926,68.3413159 C174.130182,68.6750032 174.741392,69.5101654 175.106387,70.4722893 C175.472955,71.4337839 175.932346,72.7190542 176.387803,72.2597425" id="path38" fill="#FBBF16"></path>
                        <path d="M174.150635,73.56224 C174.150635,73.56224 174.499111,72.6474711 174.193113,72.1880808 C173.939819,71.797835 173.797439,71.118189 173.500094,70.8216305 C173.201962,70.5227121 173.006092,70.1892608 172.677282,70.5227121 C172.344538,70.8545115 172.728413,70.8136855 173.096554,71.7757308 C173.463123,72.7362814 173.690458,74.0216304 174.150635,73.56224" id="path40" fill="#FBBF16"></path>
                        <path d="M172.722906,75.1542164 C172.722906,75.1542164 173.531559,74.7028497 172.767744,73.7776186 C172.471185,73.4200178 172.367351,72.7111093 172.072365,72.4114829 C171.774234,72.1140592 171.57915,71.7813158 171.247193,72.1140592 C170.913663,72.4468025 171.731756,73.5607455 171.828511,73.7936658 C172.231264,74.742181 172.264302,75.1542164 172.722906,75.1542164" id="path42" fill="#FBBF16"></path>
                        <path d="M179.871775,72.7166157 C179.871775,72.7166157 182.392916,71.938012 187.067055,77.4827906 C191.740408,83.0277265 193.802945,85.869811 194.948274,89.9020626 C196.095177,93.9366742 198.064892,102.366959 198.064892,104.751226 C198.064892,107.133921 197.972856,108.965976 196.734705,110.708355 C196.734705,110.708355 188.028314,121.20275 184.684361,124.54749 C181.338835,127.892229 174.281215,134.902651 171.623988,136.693015 C168.965974,138.479446 161.266466,142.284362 161.266466,142.284362 C161.266466,142.284362 155.12448,145.583477 154.667449,145.583477 C154.207272,145.583477 153.977577,145.583477 153.977577,144.161255 C153.977577,142.741393 154.667449,140.083379 153.977577,133.758109 C153.292425,127.435198 150.72566,118.958502 150.403929,117.306585 C150.083772,115.659387 149.395473,113.229496 149.806879,110.251325 C150.221432,107.270007 152.972268,104.567156 155.720743,103.054471 C158.469219,101.54336 168.4586,97.463911 170.521923,96.6395256 C172.585246,95.8159268 173.548078,94.8987194 175.564204,94.4416889 C177.581117,93.9815119 177.810025,93.7061923 179.918186,94.3937046 C182.023988,95.0812169 182.526642,94.1640094 182.526642,94.1640094 C182.526642,94.1640094 183.17089,93.1563399 180.946308,92.5844618 C178.724873,92.0117971 175.698717,91.9205483 173.639327,92.7441471 C171.577577,93.5677459 170.980527,93.5677459 170.980527,93.5677459 C170.980527,93.5677459 170.886131,88.529398 171.394293,82.9828888 C171.895374,77.4379528 173.548078,76.5207454 173.548078,76.5207454 C173.548078,76.5207454 177.212188,72.9919352 179.871775,72.7166157" id="path44" fill="#FBBF16"></path>
                        <path d="M53.3966555,142.434608 C53.3966555,142.434608 56.4195856,136.047981 57.9956721,131.369908 C59.5719946,126.691836 59.6475895,123.627136 60.0909326,121.212976 C60.5346691,118.80039 60.8317782,117.371875 61.1267635,116.586821 C61.4220634,115.797834 61.4220634,115.403734 60.6339415,115.797834 C59.8460555,116.191934 58.516498,116.685149 58.3207065,117.718778 C58.3207065,117.718778 58.9583466,122.838935 56.7926829,128.94395 C54.6272553,135.047391 52.3128404,139.874136 52.3128404,139.874136 C52.3128404,139.874136 50.6895563,142.137263 52.0173045,142.580921 C53.3478059,143.024579 53.2221029,142.93569 53.3966555,142.434608" id="path46" fill="#FBBF16"></path>
                        <path d="M50.0475897,141.79272 C50.0475897,141.79272 50.687983,139.234608 51.2785828,138.001963 C51.8685533,136.772465 52.806685,134.506978 52.806685,134.506978 C52.806685,134.506978 52.9787204,134.186034 52.706154,133.917007 C52.4367342,133.644834 52.4106182,133.767548 51.8685533,134.804323 C51.327747,135.837951 49.9990548,137.806093 49.9990548,138.889279 C49.9990548,139.972465 49.4573832,141.59685 49.6545907,141.79272 C49.8512475,141.990164 50.0475897,141.79272 50.0475897,141.79272" id="path48" fill="#FBBF16"></path>
                        <path d="M70.8766944,106.129398 C70.8766944,106.129398 70.4722893,105.297932 70.044836,105.297932 C69.6168321,105.297932 66.8446001,106.783085 65.533135,107.034806 C64.2241085,107.2881 62.3094576,107.94336 62.3094576,107.94336 C62.3094576,107.94336 62.5629876,108.497932 64.3749836,107.94336 C66.1909915,107.389575 68.00519,106.733527 69.2127416,106.430676 C70.4212372,106.129398 70.8766944,106.583282 70.8766944,106.129398" id="path50" fill="#FBBF16"></path>
                        <path d="M68.4562421,103.911895 C68.4562421,103.911895 62.2062521,106.381118 61.7028893,106.381118 C61.1999198,106.381118 60.3939415,106.733527 60.0417684,105.927234 C59.6871568,105.120155 59.9406868,104.868434 61.402083,104.868434 C62.8637939,104.868434 65.180962,104.062141 66.087786,103.759289 C66.9951606,103.458011 66.9432432,102.87984 67.5749836,102.87984 C68.2064093,102.87984 68.4562421,103.911895 68.4562421,103.911895" id="path52" fill="#FBBF16"></path>
                        <path d="M67.0975008,101.139034 C67.0975008,101.139034 67.2486119,99.6279228 66.6940396,100.182495 C66.1393887,100.734707 62.2575402,102.198621 60.8972256,102.198621 C59.5365963,102.198621 58.9328599,102.198621 59.2354754,102.904226 C59.5365963,103.608257 60.4953377,103.759289 61.7548854,103.20629 C63.0138037,102.652505 65.9374615,101.341197 66.3922894,101.341197 C66.8446001,101.341197 67.0975008,101.441885 67.0975008,101.139034" id="path54" fill="#FBBF16"></path>
                        <path d="M59.4871175,100.737067 C59.4871175,100.737067 65.2836169,99.1724656 66.5434792,98.4692207 C67.8026335,97.7644027 66.8446001,97.4119936 66.4917977,97.7644027 C66.1393887,98.1168117 62.2575402,99.0733505 60.6455835,99.0733505 C59.0336268,99.0733505 58.7800969,99.4257596 58.7800969,99.929201 C58.7800969,100.434216 59.4871175,100.737067 59.4871175,100.737067" id="path56" fill="#FBBF16"></path>
                        <path d="M59.9904803,97.3600762 C59.9904803,97.3600762 64.3251901,95.9999976 65.3312078,95.3958678 C66.3412373,94.7901648 67.0464487,94.0853467 67.0464487,94.7901648 C67.0464487,95.4949829 66.947491,95.9748255 66.567078,95.9748255 C66.1909915,95.9748255 63.6184842,97.0572247 63.0138037,97.0572247 C62.4099886,97.0572247 59.9904803,97.964206 59.9904803,97.3600762" id="path58" fill="#FBBF16"></path>
                        <path d="M178.446407,70.93813 L177.350635,69.1540592 C177.350635,69.1540592 177.083181,68.7235381 177.350635,68.45931 C177.616515,68.1935086 178.649356,69.2625351 178.649356,69.2625351 L179.549258,70.1625155 C179.549258,70.1625155 179.65152,70.591778 179.303044,70.93813 C178.956141,71.2840887 178.446407,70.93813 178.446407,70.93813" id="path60" fill="#FBBF16"></path>
                        <path d="M75.8587985,129.245228 C75.8587985,129.245228 75.7721908,130.084559 76.6731151,130.986034 L77.2535674,131.277086 C77.2535674,131.277086 77.487117,130.057027 77.2535674,129.823399 C77.0219056,129.593704 76.7303029,129.245228 75.8587985,129.245228" id="path62" fill="#FFFFFF"></path>
                        <path d="M87.3966546,129.245228 C87.3966546,129.245228 87.4839703,130.084559 86.583282,130.986034 L86.002751,131.277086 C86.002751,131.277086 85.7691227,130.057027 86.002751,129.823399 C86.2348061,129.593704 86.5234983,129.245228 87.3966546,129.245228" id="path64" fill="#FFFFFF"></path>
                        <path d="M79.9229085,132.147883 C79.9229085,132.147883 80.5624365,131.508355 80.5624365,130.871187 C80.5624365,130.230872 79.7490639,130.230872 79.7490639,130.230872 C79.7490639,130.230872 79.1386411,130.230872 79.1386411,130.841295 C79.1386411,131.449358 79.9229085,132.147883 79.9229085,132.147883" id="path66" fill="#FFFFFF"></path>
                        <path d="M83.1748258,132.147883 C83.1748258,132.147883 83.8159271,131.508355 83.8159271,130.871187 C83.8159271,130.230872 83.0009812,130.230872 83.0009812,130.230872 C83.0009812,130.230872 82.3905584,130.230872 82.3905584,130.841295 C82.3905584,131.449358 83.1748258,132.147883 83.1748258,132.147883" id="path68" fill="#FFFFFF"></path>
                        <path d="M92.1179918,128.199014 C92.1179918,128.199014 94.6745306,134.702848 94.6745306,137.665287 C94.6745306,137.665287 96.7645994,133.39626 96.7645994,126.921531 C96.7645994,125.819466 96.7937046,126.13569 96.4161234,125.759682 C96.039329,125.381314 95.3148452,125.701472 94.3260547,126.223006 C93.3380508,126.747686 91.9433605,126.862534 91.9433605,127.500488 C91.9433605,128.140016 92.1179918,128.199014 92.1179918,128.199014" id="path70" fill="#FFFFFF"></path>
                        <path d="M72.3162224,128.199014 C72.3162224,128.199014 70.2406275,134.702848 70.2406275,137.665287 C70.2406275,137.665287 67.6742559,133.39626 67.6699295,126.921531 C67.6699295,125.819466 67.6425548,126.13569 68.0208439,125.759682 C68.3966158,125.381314 69.1236168,125.701472 70.1099687,126.223006 C71.0985233,126.747686 72.490775,126.862534 72.490775,127.500488 C72.490775,128.140016 72.3162224,128.199014 72.3162224,128.199014" id="path72" fill="#FFFFFF"></path>
                        <path d="M105.260174,150.185247 C105.260174,150.185247 107.044245,148.755945 108.619073,148.46568 C110.195474,148.175414 108.227333,147.076496 108.227333,147.076496 C108.227333,147.076496 107.063911,145.584264 106.711502,145.934313 C106.361453,146.287509 101.117008,150.931756 100.370499,151.241687 C99.6239896,151.553979 101.396261,151.834018 101.695179,152.134509 C101.996458,152.434214 103.477677,153.707764 103.477677,153.274332 C103.477677,152.836968 104.442082,151.004126 105.260174,150.185247" id="path74" fill="#FFFFFF"></path>
                        <path d="M108.698522,152.392523 L108.698522,151.067056 C108.698522,151.067056 108.8763,150.683969 109.155553,150.964008 C109.434806,151.243261 109.662141,151.470596 109.745523,151.553979 C109.828119,151.635788 109.799014,151.833231 109.695966,151.937066 C109.590558,152.040901 109.092623,152.392523 109.092623,152.392523 C109.092623,152.392523 108.73864,152.827528 108.698522,152.392523" id="path76" fill="#FFFFFF"></path>
                        <path d="M67.33931,152.357912 L67.1629482,149.003733 C67.1629482,149.003733 67.4305588,147.594883 67.7218469,147.491048 C68.0128203,147.388787 68.5732923,147.282592 69.3795853,148.31858 C70.1892608,149.356928 71.3817878,150.289868 71.3817878,150.289868 C71.3817878,150.289868 71.5895361,150.861746 69.5553965,151.738049 C67.6465666,152.563221 67.33931,153.041491 67.33931,152.357912" id="path78" fill="#FFFFFF"></path>
                        <path d="M71.1480022,151.371481 L71.4386609,150.570694 C71.4386609,150.570694 71.417186,150.298521 71.185131,150.406289 C70.9577957,150.513271 70.7675892,150.602946 70.6999392,150.633625 C70.6289855,150.665876 70.6047573,150.791737 70.6446393,150.876692 C70.6861733,150.962435 70.9101261,151.284952 70.9101261,151.284952 C70.9101261,151.284952 71.0269402,151.625562 71.1480022,151.371481" id="path80" fill="#FFFFFF"></path>
                        <path d="M92.0283163,94.9836751 L89.7840686,94.9836751 C90.5840685,94.1616496 91.4619446,93.0194667 92.1785621,91.5358876 C92.9227115,89.9956713 93.4788571,88.0904599 93.4788571,85.9177953 C93.4772838,84.3948848 93.3089456,83.1866253 92.9958679,82.1946882 C92.6788571,81.2121907 92.227333,80.4161238 91.5146486,79.8222202 L115.572072,4.83069408 L83.3864286,4.83069408 L78.9396244,22.4072364 L45.0590353,22.4072364 L39.9772655,4.83069408 L9.4853095,4.83069408 L40.4010216,89.3199584 L70.0110897,89.3199584 C70.0251703,89.3679427 70.0365764,89.4269398 70.0504211,89.4725641 C70.2086118,89.9901649 70.4873139,90.4920331 70.8628498,90.8822003 C70.9301064,90.9537834 71.0053866,90.9970479 71.0764191,91.0584048 C70.8117976,91.2464087 70.5337249,91.467451 70.2562814,91.7419839 L70.2543935,91.7443438 C69.9394279,92.0534884 69.6782677,92.4310695 69.5188183,92.7779721 C69.358425,93.1225149 69.2929776,93.3915414 69.2585233,93.5024559 L69.2398016,93.5645994 C69.2228891,93.5858384 69.145485,93.6770871 68.9116207,93.8493585 L68.9088675,93.8509318 C68.4541182,94.186035 68.1046984,94.5777754 67.8217486,94.9836751 L37.8186815,94.9836751 L3.75553186,1.89496947 L43.6329586,1.89496947 L48.7143351,19.4714646 L76.0143147,19.4714646 L80.4617482,1.89496947 L121.890262,1.89496947 L92.0283163,94.9836751" id="path82" fill="#FBBF16"></path>
                        <path d="M56.5836761,49.5615327 L62.7519355,72.6945115 L68.3843444,49.5615327 L56.5836761,49.5615327 Z M60.3051312,80.42635 L50.5644825,43.8984453 L73.4344131,43.8984453 L64.540962,80.42635 L60.3051312,80.42635 L60.3051312,80.42635 Z" id="path84" fill="#FBBF16"></path>
                        <path d="M99.4682374,116.178562 C99.4682374,116.178562 91.5704992,121.521334 83.2684345,121.521334 C74.96283,121.521334 71.8261536,118.907372 71.8261536,118.907372 C71.8261536,118.907372 72.756891,118.035789 73.7429283,118.035789 C74.729595,118.035789 75.6873924,118.994687 75.6873924,118.994687 C75.6873924,118.994687 78.0979332,116.293409 82.7437541,116.293409 C87.3880017,116.293409 86.8074708,118.384264 86.8074708,118.384264 C86.8074708,118.384264 89.2475887,116.118778 93.0792504,116.118778 C96.9140585,116.118778 95.5193683,116.583675 97.1469002,116.118778 C98.7712856,115.655454 99.876497,115.771875 99.4682374,116.178562" id="path86" fill="#A99D92"></path>
                        <path d="M98.3653859,120.06922 C98.3653859,120.06922 99.0049139,120.417696 98.3653859,121.055651 C97.7258579,121.695179 90.8735474,127.850538 81.5811189,127.850538 C72.2894771,127.850538 67.0649344,122.044441 67.0649344,122.044441 C67.0649344,122.044441 66.5996444,121.055651 69.3879235,121.055651 C72.1746295,121.055651 74.2656422,124.424776 83.4981297,124.424776 C92.7307745,124.424776 96.7111087,120.446015 96.7111087,120.446015 C96.7111087,120.446015 96.7394273,120.06922 98.3653859,120.06922" id="path88" fill="#A99D92"></path>
                        <path d="M150.958502,39.0499105 C150.958502,39.0499105 153.6645,36.9401761 155.374627,33.7776196 C155.374627,33.7776196 156.111697,32.2628114 160.58682,31.9072558 C164.438934,31.5996846 172.679642,30.0789766 172.679642,30.0789766 C172.679642,30.0789766 177.963417,30.3432047 180.077085,28.2288292 C182.189966,26.1169708 188.265089,18.7211008 188.265089,18.7211008 C188.265089,18.7211008 191.172463,13.6984067 190.51091,10.134277 C189.851716,6.56741773 188.265089,6.96564781 187.340802,7.89057994 C187.340802,7.89057994 184.435787,12.379862 184.169907,12.1164992 C183.908747,11.8503832 184.601765,9.0234806 185.097341,8.18336263 C185.599995,7.34390542 185.623594,7.35957504 186.483378,6.50227712 C187.340802,5.64251707 185.097341,4.58610018 185.097341,4.58610018 C185.097341,4.58610018 182.387409,2.8026666 181.131952,6.30407851 C179.878068,9.80365757 179.084361,12.2470793 178.623398,12.2470793 C178.165581,12.2470793 178.226938,8.81266448 179.020644,6.69800573 L179.812778,4.58610018 C179.812778,4.58610018 178.755551,3.3975535 176.37915,5.77310507 C174.993113,7.16383856 176.510517,9.73545698 175.850536,11.9844245 C175.191343,14.2293802 175.191343,19.510796 171.225954,19.510796 C166.667449,19.510796 162.028708,20.4018874 157.541786,21.1193702 C155.076496,21.5158303 152.570301,20.4618284 150.149062,21.202674 C147.972464,21.8658008 146.082986,23.6704026 144.737853,25.4599797 C142.062533,29.0170298 140.640311,33.4221427 138.545523,37.3168919 C137.46391,39.3344336 136.40275,41.3710904 135.258207,43.3566951 C134.861747,44.0425554 133.931953,46.3191336 133.184657,46.5910706 C133.184657,46.5910706 137.412779,45.1373833 144.545916,46.4589172 C151.677479,47.7795858 158.679249,52.6637548 159.997636,53.9853674 C161.319957,55.3084745 162.37797,56.364915 162.37797,56.364915 C162.37797,56.364915 163.566564,57.1564981 164.753585,54.9105984 C165.944539,52.6637548 167.659386,51.8750036 171.095374,51.8750036 L175.718383,51.8750036 L175.718383,43.5533519 C175.718383,43.5533519 175.587016,40.6458987 175.587016,39.3252301 C175.587016,38.0042468 175.056829,35.3619657 175.056829,35.3619657 L175.056829,32.5891044 C175.056829,32.5891044 165.676299,32.7206285 162.907371,34.1765183 C162.907371,34.1765183 162.24503,39.5900875 162.907371,41.9665673 C163.566564,44.345171 162.640704,44.871582 162.640704,44.871582 C162.640704,44.871582 162.096358,43.7908347 161.609435,42.338642 C161.143752,40.9626735 159.800193,39.7876883 159.800193,39.7876883 C159.800193,39.7876883 158.679249,38.6658004 155.376201,38.6658004 C152.070793,38.6658004 150.958502,39.0499105 150.958502,39.0499105" id="path90" fill="#A99D92"></path>
                        <path d="M160.860566,16.8707174 C160.860566,16.8707174 164.018088,17.9845817 167.776594,16.8707174 C171.535099,15.7577184 171.976397,15.3164991 171.976397,15.3164991 C171.976397,15.3164991 172.696161,14.6005109 171.976397,12.6032642 C171.25742,10.6078267 169.631461,6.19868618 169.631461,6.19868618 C169.631461,6.19868618 168.888885,3.18276492 166.24503,3.18276492 C163.598029,3.18276492 159.841097,2.90345715 159.236968,4.48069999 C159.236968,4.48069999 158.030281,7.31163797 159.841097,9.12180901 C161.648767,10.9316811 164.527823,11.6752799 164.527823,11.6752799 C164.527823,11.6752799 164.25093,12.4634019 161.419858,12.4634019 C158.587213,12.4634019 157.799013,10.8388591 157.288492,9.35378541 C156.777971,7.87028496 155.98977,4.66875898 155.98977,4.66875898 C155.98977,4.66875898 155.802553,3.73894189 154.178954,3.73894189 C152.555355,3.73894189 152.229691,4.52863705 152.229691,6.24508146 C152.229691,7.96302832 152.277676,8.61113056 152.277676,8.61113056 C152.277676,8.61113056 152.092032,11.0244245 154.318187,11.5351816 C156.545129,12.0455454 157.721137,12.0347686 158.982887,14.4825168 C159.767154,16.0078659 159.888295,16.2690261 160.860566,16.8707174" id="path92" fill="#A99D92"></path>
                        <path d="M150.373251,11.0702062 C150.373251,11.0702062 147.356535,10.6093213 147.356535,7.49815517 C147.356535,4.388523 147.542179,3.71589371 148.031461,3.71589371 C148.51917,3.71589371 149.353782,4.7615574 149.584264,6.10742168 C149.817892,7.4502181 149.774628,8.93986212 150.282002,9.72593879 C151.046604,10.9083183 150.373251,11.0702062 150.373251,11.0702062" id="path94" fill="#A99D92"></path>
                        <path d="M167.388786,69.5599589 C167.388786,69.5599589 164.026741,65.9506768 164.026741,64.4586021 C164.026741,62.9633809 163.404519,63.2125845 164.896751,59.976321 L166.746898,55.8868029 C166.746898,55.8868029 167.154371,54.619625 170.263909,54.619625 C173.37266,54.619625 174.719366,54.0886515 176.111697,55.4815325 L177.994882,58.7923682 C177.994882,58.7923682 179.048176,60.3530368 177.787213,61.6141578 C176.740212,62.6634399 175.416318,62.6800378 175.416318,62.6800378 C175.416318,62.6800378 174.212778,63.1096149 173.37266,62.2680024 C171.939425,60.8375993 171.57443,59.8955344 170.838147,59.8955344 C170.101864,59.8955344 169.936672,60.3454066 169.936672,60.6732728 C169.936672,60.9998805 169.035984,61.2042463 168.627724,61.2042463 C168.220251,61.2042463 167.443064,61.9020633 168.342965,62.4324075 C169.241294,62.9633809 170.794883,62.9221617 172.513663,64.1485136 C174.230084,65.3773042 173.820251,65.1711291 172.636377,65.907727 C171.449357,66.6445608 168.870006,68.0801556 167.388786,69.5599589" id="path96" fill="#A99D92"></path>
                        <path d="M176.70796,63.601257 C176.70796,63.601257 177.745522,63.4132531 178.44326,62.7178745 C179.139425,62.0246199 179.343162,61.4915226 179.793113,61.0407064 C180.243063,60.5924075 180.403535,61.3685727 180.403535,61.3685727 C180.403535,61.3685727 180.648963,63.8231646 180.326446,64.1485136 C179.996849,64.4782678 178.933329,65.4182088 178.157714,65.4182088 C177.378953,65.4182088 176.668629,65.6778745 175.865482,64.9259374 C175.461943,64.5498509 175.25034,64.3365962 175.539032,64.0520731 C175.825364,63.7656621 176.093604,63.601257 176.70796,63.601257" id="path98" fill="#A99D92"></path>
                        <path d="M82.8294965,79.687707 C82.8294965,79.687707 86.3307746,80.1345113 86.8499487,82.665878 C87.3722692,85.1972447 87.3675494,84.751227 87.6688277,84.751227 C87.9661728,84.751227 88.1880017,83.6350028 88.1880017,83.0387393 C88.1880017,82.4416892 88.4869201,81.9972448 89.1586998,81.9972448 C89.8273331,81.9972448 90.9451305,83.1134689 90.9451305,86.7610598 C90.9451305,90.4094373 89.0831836,93.1642061 87.741984,94.5054057 C86.4015711,95.8434588 84.9124856,97.6322493 83.870991,99.4934095 C82.8294965,101.35221 80.5954749,102.915238 79.6271367,102.915238 C79.6271367,102.915238 78.3634199,103.314058 77.1174022,104.072367 C75.8698899,104.830676 75.301473,105.02104 74.3783659,105.02104 C73.4577759,105.02104 72.2141968,104.884167 71.0754751,104.072367 C69.9366748,103.258208 68.4731546,100.901472 68.4731546,99.1134685 C68.4731546,99.1134685 68.1504801,97.4080605 69.6118763,96.3225148 C71.0754751,95.239329 70.4102244,94.7940979 71.1823778,94.0216299 C71.9567337,93.2491619 72.9154751,92.9360842 73.2696934,92.5852484 C73.6218664,92.233626 74.1629873,91.2314628 73.5686904,90.9600764 C72.9704603,90.68869 71.8596639,90.9317578 71.4816895,89.7140587 C71.1015911,88.4924265 70.6968714,85.5134689 71.5882775,83.6184837 C72.4833807,81.7195653 74.0538821,80.5852487 75.301473,80.5852487 C76.547412,80.5852487 77.4702046,81.2342163 77.795003,82.2639114 C78.1175988,83.2920333 77.874295,84.2934099 78.4427119,84.2934099 C79.0127807,84.2934099 79.1496539,83.1040294 79.1496539,82.4802339 C79.1496539,81.8556518 78.7712861,79.9252684 79.7160255,79.6892802 C80.6898702,79.4430659 82.8294965,79.687707 82.8294965,79.687707" id="path100" fill="#A99D92"></path>
                        <path d="M115.755356,125.990951 C116.568729,126.340213 116.74336,125.644048 116.74336,125.644048 C116.74336,125.644048 116.685936,124.714255 114.766565,124.714255 C112.850341,124.714255 107.974039,129.708551 106.171875,132.553782 C104.374432,135.400587 99.2047173,141.846211 99.2047173,141.846211 C101.470991,140.626152 108.14867,132.437361 112.037755,128.545916 C113.722711,126.862534 114.941197,125.644048 115.755356,125.990951 L115.755356,125.990951 Z M98.6226131,137.954765 C98.2466052,138.330773 99.1457202,138.477873 99.1457202,138.477873 L99.1756121,137.401766 C99.0009808,137.227922 99.0009808,137.576398 98.6226131,137.954765 L98.6226131,137.954765 Z M92.0637145,151.660173 C94.7335276,150.787804 102.571482,143.995277 106.987608,139.580724 C111.399801,135.166172 110.87748,136.737066 111.749063,136.443654 C112.61986,136.154176 111.749063,134.992327 110.763419,134.992327 C109.774629,134.992327 106.987608,136.271383 102.456635,142.078266 C97.9256613,147.885935 92.0637145,151.660173 92.0637145,151.660173 L92.0637145,151.660173 Z M95.6043241,141.555159 C95.1968511,141.963418 94.4125837,142.630478 94.61868,142.832641 C94.8208433,143.034018 95.0222198,143.472169 95.0222198,143.472169 C95.0222198,143.472169 96.1864283,142.947489 96.1864283,142.543163 C96.1864283,142.134903 96.0110104,141.149259 95.6043241,141.555159 L95.6043241,141.555159 Z M92.1785621,145.38682 C91.3620429,145.38682 91.0733507,145.677872 90.7563399,145.99803 C90.4361826,146.315827 90.7846585,147.304618 91.1331344,147.653094 C91.1331344,147.653094 91.88751,147.536673 92.2359859,146.66509 C92.5844618,145.79508 92.9903615,145.38682 92.1785621,145.38682 Z M92.0039308,140.800783 C91.4816103,140.278463 91.4241865,139.988197 91.1331344,140.278463 C90.8420823,140.567155 90.8420823,140.626152 90.8420823,141.147686 C90.8420823,141.670006 91.0757106,142.020842 91.4816103,142.020842 C91.4816103,142.020842 92.527038,141.32153 92.0039308,140.800783 L92.0039308,140.800783 Z M88.9840686,143.906388 C88.5899683,143.513861 87.6751207,143.906388 87.3581099,144.226545 C87.037166,144.545129 88.461748,145.330183 88.461748,145.330183 C88.9266448,145.330183 89.3765956,144.299701 88.9840686,143.906388 Z M77.1512272,145.953192 C76.7317975,145.953192 76.1728988,146.070399 76.1728988,146.513271 C76.1728988,146.956928 76.6743737,147.362042 77.0802734,147.362042 C77.0802734,147.362042 77.5709715,147.362042 77.5709715,146.867253 C77.5709715,146.375611 77.5709715,145.953192 77.1512272,145.953192 Z M74.6681594,141.644048 C74.1172056,141.089475 73.3926432,141.293998 73.1308536,141.556732 C72.8678055,141.816319 73.0718566,143.690065 73.537068,143.690065 C73.537068,143.690065 74.2560453,142.971088 74.6915222,142.535296 C75.1275497,142.099505 75.2224957,142.194687 74.6681594,141.644048 Z M71.2733905,142.252111 C70.8379137,141.816319 70.5767534,142.252111 70.2255243,142.947489 C69.8773631,143.646801 70.5767534,144.283969 70.5767534,144.283969 C71.1544525,144.283969 71.5489461,143.690065 71.7072155,143.529593 C71.8672942,143.369121 71.7072155,142.687902 71.2733905,142.252111 Z M74.0302046,148.203733 C74.6681594,148.203733 74.3513059,147.885935 74.3513059,147.885935 C74.3513059,147.885935 74.9293197,146.200193 74.3513059,146.200193 C73.7690444,146.200193 73.4205685,146.142769 73.4205685,146.548669 C73.4205685,146.956928 73.3926432,148.203733 74.0302046,148.203733 Z M130.420449,171.520153 C130.420449,172.04326 129.638541,172.828314 128.883379,173.583476 C128.126644,174.337852 125.193311,174.714647 123.627136,176.282395 C122.060961,177.850143 120.722121,181.102847 120.722121,182.031067 C120.722121,182.960074 120.548276,184.121923 119.299899,184.383083 C118.052308,184.645816 117.472563,185.109927 115.845818,184.121923 C114.218286,183.134705 109.979938,178.197832 109.979938,178.197832 C109.979938,178.197832 109.979938,177.385246 108.527038,178.141982 C107.076497,178.895571 103.706585,180.464106 98.8310693,179.185836 C93.9508334,177.908353 94.9970478,177.908353 92.8503418,177.908353 C90.6989161,177.908353 88.3783655,179.649946 85.9382476,179.649946 C83.4981297,179.649946 81.7557502,179.30147 81.7557502,179.30147 C81.7557502,179.30147 82.7146489,180.491638 82.452702,180.752798 C82.1915417,181.015531 78.5041475,184.704027 78.5041475,184.704027 C78.5041475,184.704027 76.8802341,185.806878 75.3669204,185.806878 C73.8578546,185.806878 72.5233414,185.517399 71.4202539,183.367547 C70.3170877,181.216908 70.2774417,178.765777 69.3286118,177.038344 C68.3403719,175.237754 66.5265667,173.830477 64.2195461,171.520153 C63.4332334,170.737459 63.3456031,170.707567 63.3456031,169.488295 C63.3456031,168.268236 64.5083956,166.874332 64.973843,166.874332 C65.4372452,166.874332 65.6114831,168.790556 66.3086709,169.488295 C67.007432,170.183673 68.5149245,170.532936 69.3012372,172.478265 C70.0833021,174.425168 71.6519156,174.425168 72.0007062,174.425168 C72.3487888,174.425168 73.2777169,173.726643 73.9749047,173.726643 C74.6739804,173.726643 76.0659175,174.599012 76.0659175,174.599012 C76.0659175,174.599012 73.5093787,170.476299 72.8718173,168.210812 C72.2341772,165.945325 72.0600179,164.029101 72.0600179,164.029101 C72.0600179,164.029101 71.8261536,161.124873 71.3624368,161.124873 C70.89754,161.124873 70.3170877,162.461353 70.3170877,163.275512 C70.3170877,164.088098 68.6894771,162.810615 67.9922894,160.71976 C67.2950229,158.628905 68.3403719,155.782887 70.0279235,154.737459 C71.7109127,153.692818 72.1150031,152.53097 75.4836559,153.692818 C78.8523087,154.852307 78.8523087,155.086722 78.8523087,155.086722 C78.8523087,155.086722 79.1417876,154.127036 79.8112074,154.127036 C80.4782674,154.127036 81.3514237,156.014942 84.7756124,156.014942 C88.2037343,156.014942 88.1762023,154.013762 90.2080607,154.013762 C92.239919,154.013762 93.0792504,153.809239 93.0792504,154.33156 C93.0792504,154.852307 92.3822986,155.841097 92.7307745,156.189573 C93.0792504,156.538049 93.2853467,156.332739 93.5724657,156.043261 C93.8643044,155.753782 95.8678442,154.215925 97.2027508,156.71268 C98.5400172,159.208649 102.779938,167.687705 104.811797,169.718776 C106.842869,171.752995 109.195671,170.447193 110.211993,169.429298 C111.227529,168.412975 112.995867,165.906781 112.593114,164.493998 C112.361059,163.679839 112.129004,163.970891 111.429692,164.668629 C110.736674,165.365581 109.572465,165.771481 108.00629,164.78269 C106.439329,163.797833 105.799801,163.679839 104.868434,161.533133 C103.940214,159.38328 101.793508,156.71268 101.793508,156.71268 C101.793508,156.71268 105.62281,160.254863 107.772662,161.764401 C109.920155,163.275512 110.385838,163.159091 110.385838,161.938246 C110.385838,160.71976 111.5469,160.545129 111.5469,160.545129 C111.5469,160.545129 112.331167,159.819858 111.315631,159.557911 C110.299309,159.296751 109.282986,159.38328 110.329201,158.338639 C111.372269,157.292425 112.53569,154.447194 112.53569,151.137853 C112.53569,147.826152 109.629889,144.286329 109.629889,144.286329 C109.629889,144.286329 108.324874,143.384854 109.223989,142.483379 C110.503045,141.206683 112.129004,140.33746 112.129004,139.580724 C112.129004,138.826349 111.750636,138.679249 111.372269,139.057617 C110.994687,139.435985 104.868434,143.820645 103.185838,145.504028 C101.500096,147.188984 96.564796,150.963221 94.0680409,152.241491 C91.5704992,153.518974 90.061748,153.577184 90.061748,152.936869 C90.061748,152.298128 90.7586998,150.963221 90.4102239,150.613959 C90.061748,150.265483 89.6558483,149.742376 88.7244816,150.672956 C87.7954747,151.601176 87.9724658,152.154175 87.2440489,152.154175 C86.5164187,152.154175 86.7940981,151.878069 87.142574,151.529593 C87.4910499,151.180331 87.2157304,150.905011 86.8098307,150.498325 C86.4015711,150.091638 86.1718759,150.499898 84.3697127,148.697735 C83.8749242,148.205306 83.2668612,147.828512 82.6863303,148.931363 C82.1042261,150.034215 81.526055,151.427332 81.526055,151.6586 C81.526055,151.891442 81.1775791,152.181707 80.5380511,151.542966 C79.8977364,150.905011 78.7964582,151.19449 78.7964582,151.6586 C78.7964582,152.12507 78.2423579,152.677282 78.2423579,152.677282 C78.2423579,152.677282 77.40106,152.53097 76.9349047,152.066073 C76.4718172,151.601176 69.6795263,148.931363 66.1341183,140.161255 C62.5937447,131.391934 62.3598804,123.321138 62.3598804,123.321138 C62.3598804,123.321138 62.3598804,120.067647 63.4052295,119.023793 C64.4508932,117.976792 66.3086709,117.107568 66.3086709,117.107568 C66.3086709,117.107568 66.7164585,116.759092 67.0053081,117.047785 C67.2950229,117.338837 66.774197,117.833625 66.774197,117.833625 C66.774197,117.833625 65.0331547,118.994687 64.7719944,119.835592 C64.5083956,120.67807 64.1024173,122.479446 65.0331547,123.40924 C65.959959,124.33746 65.959959,125.323891 65.959959,126.543163 C65.959959,127.764009 66.3086709,132.758305 67.9959078,136.532543 C69.6795263,140.307568 70.0279235,140.597047 70.4313847,140.597047 C70.8379137,140.597047 71.011837,138.450341 71.7109127,135.196063 C72.4084151,131.946506 72.756891,130.751619 73.5985036,130.751619 C73.5985036,130.751619 76.2783068,131.797833 79.6232035,136.778758 C81.5811189,139.697932 81.6959665,141.381314 81.6959665,141.381314 C81.6959665,141.381314 81.2648947,138.912878 85.2412958,134.934903 C89.2176969,130.957716 89.0163203,130.957716 89.8871167,130.957716 C90.7586998,130.957716 91.6877067,133.017892 92.0353959,133.948473 C92.3822986,134.876693 93.8934096,140.046408 93.8934096,140.046408 C93.8934096,140.046408 94.1254647,141.150832 95.3455237,139.057617 C96.564796,136.968335 98.0153368,130.811403 98.0153368,130.173448 C98.0153368,129.53392 98.044442,124.74336 98.7138618,124.07394 C99.7569297,123.030872 107.714452,114.901079 110.677677,114.901079 C113.636182,114.901079 115.061551,114.813763 117.354569,117.863517 C119.648375,120.911698 119.826939,122.875906 120.143163,125.411206 C120.504225,128.33038 120.143163,133.192524 120.143163,133.192524 C120.143163,133.192524 119.850538,134.876693 119.329791,135.39744 C118.806683,135.922907 117.529201,134.413369 117.529201,134.413369 C117.529201,134.413369 116.424776,133.65742 116.599407,134.413369 C116.772465,135.168532 119.503635,139.5233 120.317794,143.412386 C121.129594,147.305404 121.070597,150.091638 121.070597,151.312484 C121.070597,152.53097 121.100489,157.902848 119.73569,159.268433 C118.369319,160.632444 117.064304,162.461353 117.064304,165.19095 C117.064304,167.921333 117.933527,169.893408 118.690263,170.64857 C119.446998,171.404519 120.694589,172.711107 120.084166,173.32153 C119.47453,173.931952 119.038738,175.237754 118.575415,175.237754 C118.111305,175.237754 117.933527,173.960271 117.385248,174.511697 C116.832249,175.063909 115.612976,175.294391 115.612976,174.771284 C115.612976,174.248963 115.727037,172.857419 116.541197,172.857419 C117.354569,172.857419 117.703832,171.461156 116.949456,171.461156 C116.192721,171.461156 115.031659,171.404519 114.218286,173.436377 C113.406487,175.468236 114.043655,175.528019 114.449555,175.933132 C114.858601,176.340605 116.483773,177.269612 116.890459,177.677085 C117.297932,178.082985 117.818679,179.070202 118.167942,180.232051 C118.515631,181.393112 118.690263,182.323693 119.096162,180.752798 C119.503635,179.185836 119.910321,177.211402 120.317794,176.166761 C120.722121,175.121333 122.175808,172.972267 123.102455,172.04326 C123.102455,172.04326 121.245228,171.114253 120.66627,170.068826 C120.084166,169.024185 118.922318,166.874332 118.922318,165.073742 C118.922318,163.275512 120.606487,159.963025 124.033035,159.963025 C127.459584,159.963025 127.574431,164.31858 127.574431,164.31858 C127.574431,164.31858 127.229889,165.714057 128.562435,167.921333 C129.899702,170.127036 130.420449,170.997046 130.420449,171.520153 L130.420449,171.520153 Z" id="path102" fill="#A99D92"></path>
                    </g>
                </g>
            </g>
        </g>
    </g>
</svg>