<?xml version="1.0" encoding="UTF-8"?>
<svg width="200px" height="200px" viewBox="0 0 200 200" version="1.1" xmlns="http://www.w3.org/2000/svg" xmlns:xlink="http://www.w3.org/1999/xlink">
    <!-- Generator: Sketch 54.1 (76490) - https://sketchapp.com -->
    <title>albertus-magnus</title>
    <desc>Created with Sketch.</desc>
    <g id="albertus-magnus" stroke="none" stroke-width="1" fill="none" fill-rule="evenodd">
        <g id="albertus-magnus_BGL">
            <g id="albertus-magnus" transform="translate(0.000000, 47.000000)">
                <g id="g10" transform="translate(99.999998, 53.027916) scale(-1, 1) rotate(-180.000000) translate(-99.999998, -53.027916) translate(0.000000, 0.154354)" fill-rule="nonzero">
                    <g id="g12">
                        <path d="M126.856811,1.57212147 L128.433494,0 L133.728404,1.45551064 C133.777993,1.44537599 133.827254,1.4354975 133.872246,1.4256223 C134.443018,1.30772739 135.305415,1.1306962 136.347451,1.09464693 C136.472903,1.09002953 136.599997,1.08772083 136.734315,1.08772083 C142.976023,1.09066992 147.894578,4.70108363 149.892279,10.7435465 C151.20755,14.7136614 150.279142,17.7291293 148.911655,20.3452212 L152.986203,17.7327089 L155.581605,34.8029548 L150.300817,40.0683077 L146.607221,38.6364522 C146.039405,39.4489317 145.736614,40.2945803 145.968798,41.0952371 C147.673888,46.9779955 166.5064,52.9464683 173.402951,53.4643665 C173.770439,53.4824289 174.244659,53.4998345 174.712639,53.4834141 L174.883083,53.476846 C175.492935,53.4433484 175.838748,53.3582909 176.012475,53.2988492 C176.026597,52.8942516 175.916909,51.692938 174.616416,49.1303764 L171.520193,43.01215 L178.271917,44.2072239 C184.373066,45.2922813 191.621998,50.0926096 193.128402,51.3536933 C197.357959,54.8919527 199.690964,59.8509016 199.692934,65.3188818 L199.693919,65.6377652 C199.724133,70.4561559 198.585217,76.2298832 184.880127,83.9474527 C184.133,86.0361226 181.948764,90.7398992 176.353362,95.3165822 C168.880127,101.430211 158.463379,104.869291 145.389487,105.540227 C145.101803,105.554677 144.812476,105.563544 144.525448,105.577666 C119.860096,106.786204 90.3622309,93.5300469 90.3622309,93.5300469 L97.3819352,91.0348089 C79.5500801,87.7507367 60.3707702,80.3349734 31.9486363,64.4380936 L26.3070929,64.4357948 L26.3431192,64.3901462 L16.2281769,64.3845633 L17.9879798,59.1520511 L12.733333,48.70903 L8.40824281,48.6919528 L10.1090309,43.493595 L8.54075512,40.3770105 C8.40929371,40.253201 8.21159257,40.0778315 8.03021326,39.9349744 L0,33.6430205 L5.7308373,27.9290962 L30.7802291,27.9415428 L41.4413783,27.7352702 L41.1996706,27.9920847 L41.791132,27.9920847 C41.9241369,27.9924788 42.0453191,27.9914607 42.1569776,27.988505 L42.4719201,27.8045313 L37.8968792,13.985287 C37.7796378,13.88509 37.6403931,13.7743839 37.5155984,13.6873888 L28.2537924,7.31628882 L34.0702783,1.51657467 L42.5320186,1.52080784 L42.5293914,1.51888338 L50.8886687,1.5245287 L61.0321824,1.39675859 L60.9704418,1.46628568 L80.7917878,1.47552377 L86.5937581,1.36327419 C87.1146119,1.26475202 87.6545134,1.20099504 88.2137909,1.18162559 L88.3247925,1.17803281 C88.4768451,1.17238749 88.6305397,1.17007879 88.7862047,1.16982263 C89.5054165,1.17046302 90.222001,1.21087353 90.9244641,1.27976351 L91.4528713,1.26924135 L91.3963852,1.33004923 C91.8926085,1.38880456 92.3789796,1.46308042 92.8531996,1.54813132 L97.4955641,1.55069947 L97.4952357,1.55005579 L104.356648,1.55428896 L113.515925,1.47719208 L113.460753,1.54915924 L119.341212,1.45153363 C120.204923,1.18585876 121.101146,1.00497863 122.03021,0.944811142 L122.078815,0.942502439 C122.249258,0.936988482 122.422985,0.933651865 122.603609,0.934036101 C124.005908,0.934935937 125.431852,1.15301803 126.856811,1.57212147" id="path14" fill="#D3D5D7"></path>
                        <path d="M122.135629,2.58595067 L122.136286,2.58595067 C122.28801,2.58030535 122.442361,2.57838089 122.602296,2.57799665 C124.143839,2.57928072 125.724792,2.87612801 127.303774,3.44801305 L128.918223,1.83869618 L133.329389,3.05162226 C133.534315,3.1080656 133.641048,3.12705411 133.690637,3.13333982 C133.797369,3.11986856 134.03021,3.07189155 134.203938,3.03648268 C134.752378,2.92346462 135.503116,2.7691395 136.404266,2.73758285 L136.404923,2.73758285 C136.511655,2.73360584 136.619701,2.73232177 136.73333,2.73232177 C142.231524,2.73501799 146.566827,5.92417062 148.331359,11.2601311 C149.641376,15.2134643 148.350407,18.0305743 147.03021,20.3595726 C146.499175,21.3336284 146.051885,22.1576021 145.470932,23.242364 C145.423313,23.329983 145.410834,23.3750405 145.409192,23.3756644 C145.409849,23.3838746 145.414446,23.4206891 145.438092,23.4939567 C145.439077,23.4952375 145.538584,23.6873886 145.749422,23.6883081 L145.793428,23.6870273 C146.468305,23.6634148 147.502788,23.1947777 148.010177,22.8771423 L151.74154,20.4844001 L153.830866,34.2266001 L149.897533,38.1481107 L145.359602,36.3894901 C143.74351,38.2183898 143.176023,40.017733 143.680128,41.7582912 C145.91888,49.4814438 166.976351,55.3816078 173.255496,55.8423631 C173.678485,55.8633812 174.345808,55.8909674 175.014117,55.8545142 C176.641703,55.764859 177.649585,55.3481103 178.091621,54.5829215 C178.56814,53.7563205 178.719536,51.9536933 176.742853,48.0538576 L175.798682,46.1894898 L177.854511,46.5543502 C183.396711,47.5376014 190.254511,52.0554995 191.598025,53.1812795 C195.478484,56.4259428 197.309026,60.8413778 197.310011,65.319867 C197.311325,68.5789802 197.86075,74.1172395 182.892606,82.3247927 C182.047286,85.7875184 174.817073,101.644989 145.267648,103.16026 C124.78292,104.212148 96.6880107,93.6666643 96.6880107,93.6666643 C96.6880107,93.6666643 103.61806,91.6745461 105.888339,90.6755314 C76.1674858,84.9349732 44.4144488,68.5559917 33.8584556,62.7944155 L29.7104754,62.7924451 L29.7463704,62.7474533 L18.5151063,62.7418704 L19.7648599,59.0256143 L13.7484726,47.0689643 L10.6736286,47.0568133 L11.8829554,43.3602616 L9.89185525,39.4022979 C9.72853834,39.2236443 9.34857119,38.8804588 9.04426907,38.6407215 L2.47729386,33.4955657 L6.41034467,29.573464 L30.7948432,29.5855165 L37.5668299,29.4545477 L37.3973718,29.6345149 L41.7914604,29.6368137 C41.991132,29.6364525 42.1684719,29.6341208 42.3251221,29.6288663 C42.4617395,29.6242686 42.5635457,29.6177004 42.6374374,29.6118219 L44.4522156,28.5530699 L39.3261074,13.0693264 C39.1408857,12.8716253 38.7579629,12.5487353 38.4472897,12.3329718 L30.8165181,7.08371082 L34.7494244,3.16155986 L47.3553354,3.16746133 L47.3536934,3.16656478 L50.9090299,3.16784557 L52.5044322,3.14809188 L53.6394075,3.13436445 L57.3330035,3.08741207 L57.3139559,3.10870928 L80.8068945,3.1202528 L86.7954001,3.0045418 C87.3064018,2.89883408 87.8341522,2.83354016 88.381607,2.8217372 L88.3822638,2.8217372 C88.5142835,2.81673228 88.6479452,2.81416742 88.7858763,2.81442357 C90.1198664,2.81506725 91.4551701,2.9628505 92.6870256,3.19247611 L101.222658,3.1970968 L101.221672,3.19632504 L104.370112,3.19799335 L110.155334,3.14976018 L110.115597,3.20171421 L112.851886,3.20363867 L117.933002,3.11922817 L117.362887,4.086371 C118.826598,3.26726757 120.429554,2.69524788 122.135629,2.58595067" id="path16" fill="#244995"></path>
                        <path d="M175.620685,81.5418699 C176.207877,87.425942 161.618715,108.042033 108.976024,93.7376003 C152.211819,91.2633803 175.620685,81.5418699 175.620685,81.5418699" id="path18" fill="#D3D5D7"></path>
                        <path d="M114.124463,64.2623958 L115.633166,62.7582907 L128.463708,62.7661725 L128.462066,62.7655157 L132.524135,62.7674861 C133.529718,63.0328391 134.598026,63.1710986 135.712969,63.171427 C135.796713,63.1717554 135.880785,63.1701134 135.964529,63.1671577 C136.708371,63.1412135 137.379964,63.0049245 137.920194,62.8949081 C138.078486,62.8627242 138.272246,62.8233153 138.422328,62.7983564 C149.067977,66.9047602 160.462393,70.1103431 167.964856,71.5050885 C149.633494,71.5898176 131.901146,69.3559917 114.124463,64.2623958" id="path20" fill="#D3D5D7"></path>
                        <path d="M51.4157623,62.8013121 C53.1927737,62.9031183 54.651887,62.9543498 55.8384222,62.9550066 C56.1090298,62.9550066 56.3714272,62.9467965 56.6282416,62.9415419 C57.7822646,62.9185534 58.8420347,62.7366158 59.8147768,62.4486027 L59.4817719,62.824629 L65.9362873,62.7500805 L66.7520509,62.7504089 C77.6137912,68.2656797 97.9323457,76.9116565 113.337928,79.0646942 C98.3014754,72.657141 88.6594395,67.2922807 82.5487664,63.392445 L82.9579618,62.9845633 C84.2978632,63.0433482 85.8581259,63.0922809 87.2049239,63.0919524 C87.4302113,63.0919524 87.652543,63.0817718 87.8709338,63.0807866 C90.6101784,63.070606 92.7182243,62.277831 94.3326742,61.2213449 L95.7057447,63.7687997 L97.9651864,62.9070592 C98.0725755,62.8850559 98.2985197,62.8509015 98.5408842,62.842363 C98.573725,62.8413777 98.6062373,62.8410493 98.639078,62.8410493 L100.96026,62.8420346 C110.917239,68.1681428 124.955662,74.0893249 140.460752,76.7865334 C139.468962,78.8656795 138.777665,79.6374364 138.797369,83.3123132 C142.156647,80.9218371 148.205908,77.2817715 153.308371,76.4476171 C151.431523,79.124136 150.849586,81.9132984 150.808535,84.4883394 C139.463379,87.3310323 92.9655149,90.7924444 44.3244652,62.7990132 L51.4157623,62.8013121" id="path22" fill="#D3D5D7"></path>
                        <path d="M167.667319,76.94187 C155.850571,73.4137913 156.350735,78.3477813 155.568797,82.4788157 C156.950735,80.8857123 161.924134,77.7211803 167.667319,76.94187" id="path24" fill="#FFFFFF"></path>
                        <path d="M182.868633,69.3047602 C179.854183,71.3096862 176.519536,72.5047601 172.021671,74.2223298 C175.136285,75.7504086 175.792442,76.7691278 176.059437,77.4453183 C199.171095,70.7950721 192.146793,58.4101792 185.279798,55.5717556 C188.102787,59.230212 186.606563,67.0781592 161.962558,66.7802939 C161.686695,66.7783235 161.40952,66.7701133 161.131359,66.7622315 C165.82397,69.1684712 173.594084,70.8430196 182.868633,69.3047602" id="path26" fill="#FFFFFF"></path>
                        <path d="M26.2912966,38.0243012 L29.4232505,57.7668294 C29.457996,58.0748754 29.5304755,58.2945798 29.6116906,58.5402284 C29.7444656,58.9428557 30.7453194,59.8709345 30.7453194,59.8709345 L22.518226,59.8666652 C22.518226,59.8666652 22.8504756,58.8781594 22.7275856,58.5064025 C22.6657466,58.3211808 22.5229551,58.1034468 22.4291948,57.9178967 L15.5241704,44.196058 L14.6372082,44.1950728 C14.6372082,44.1950728 14.958062,43.2380942 14.8493921,42.8541861 L12.3844003,37.9553357 C12.085911,37.368472 10.8211492,36.377339 10.8211492,36.377339 L17.0715267,36.3809515 C17.0715267,36.3809515 16.4843674,37.3379301 16.6177993,37.7428562 C16.6363871,37.7986854 17.2246958,39.051559 18.0747122,40.8525441 L22.0975692,44.2128068 L19.6615759,44.2114931 C21.9910996,49.1392434 24.8086036,55.0804584 24.8086036,55.0804584 C24.8086036,55.0804584 21.4869289,37.7697856 21.47885,37.7444982 C21.3554346,37.3720845 20.1246957,36.3829219 20.1246957,36.3829219 L26.860886,36.3848924 C26.860886,36.3848924 26.1676512,37.2193751 26.2912966,38.0243012" id="path28" fill="#FFFFFF"></path>
                        <path d="M34.8729055,39.8949087 L40.8554998,57.9707703 C41.0909678,58.6830856 42.8197034,59.9208524 42.8197034,59.9208524 L35.6663374,59.9178967 C35.6663374,59.9178967 36.5497528,58.8049246 36.2722487,57.9687999 L29.7889648,38.3776673 C29.5118876,37.5444982 27.8934312,36.4308694 27.8934312,36.4308694 L37.8591124,36.4361239 C39.1090302,36.4354671 39.5977002,36.3431846 39.8604259,36.1898185 L42.5004915,40.9178972 C42.5004915,40.9178972 40.4955655,39.8972075 39.4896542,39.8962223 L34.8729055,39.8949087" id="path30" fill="#FFFFFF"></path>
                        <path d="M56.9441693,53.8686358 C56.2689641,51.8265997 54.8154338,50.6824289 53.3576341,50.6824289 C53.1481103,50.6830858 52.9504092,50.713956 52.7753681,50.7149413 L54.7297195,56.6157621 C54.9149412,56.6476176 55.097864,56.6778311 55.4794732,56.6778311 C56.7996702,56.6781595 57.5878475,55.8134633 56.9441693,53.8686358 L56.9441693,53.8686358 Z M54.4866981,43.6075523 C53.4118213,40.3625606 51.6088657,39.5284062 50.1155981,39.5270926 C49.7684717,39.5270926 49.3188822,39.527421 49.0830858,39.5569777 L51.6302122,47.252544 C51.9885044,47.2834143 52.4052532,47.2821006 52.7165832,47.2821006 C54.3829215,47.2830858 55.3356308,46.1733979 54.4866981,43.6075523 Z M55.8410495,60.077831 C53.8275849,60.0755322 51.3113288,59.9188819 49.9609183,59.8282415 C49.9609183,59.8282415 50.8630529,58.7760248 50.5976999,57.9720839 L48.2072238,50.7487672 L46.9530366,50.7481104 C46.9530366,50.7481104 47.8443338,49.666337 47.5678149,48.8325111 L47.2459758,47.8587837 L47.2502451,47.8581269 L44.0216738,38.1018053 C43.8075523,37.4538578 42.1868627,36.3408858 42.1868627,36.3408858 C43.6742189,36.2190467 46.2463043,36.1261075 47.8108362,36.1270927 C53.8160906,36.1300484 57.6052531,38.6650237 59.1284057,43.2689644 C60.3155978,46.8548428 58.8082087,48.8003272 57.3103434,49.2016408 L57.3300478,49.2620677 C58.9323466,49.9119856 60.8614106,51.3339889 61.8328392,54.269621 C63.2348096,58.504432 60.5625601,60.0791446 55.8410495,60.077831 L55.8410495,60.077831 Z" id="path32" fill="#FFFFFF"></path>
                        <path d="M88.0472884,53.1103435 C87.0548418,50.1116572 85.3080438,49.2430201 83.6794725,49.2420349 C83.4003263,49.2423633 82.9477812,49.2426917 82.7848912,49.2748756 L85.2798008,56.8147769 C85.4285693,56.846304 85.8804576,56.846304 86.1940865,56.8472892 C87.6863689,56.8472892 89.029226,56.0768459 88.0472884,53.1103435 Z M87.2042671,60.2144484 C84.8430192,60.2151052 81.7014758,60.0574698 80.4929372,59.9651873 C80.4929372,59.9651873 81.373397,58.8525437 81.1077155,58.0486028 L78.1904742,49.2348099 L76.9398996,49.2338247 C76.9398996,49.2338247 77.832182,48.1520513 77.5546779,47.3175686 L77.232182,46.3425276 L77.232182,46.3438412 L74.6118208,38.4256148 C74.3356303,37.5914605 72.71921,36.47816 72.71921,36.47816 L79.7993412,36.4824293 C79.7993412,36.4824293 78.9487665,37.6873554 79.1957287,38.4272568 L81.7215086,46.0607542 L83.6305398,46.0607542 C82.9842344,43.3720843 82.2972065,38.6768463 82.3004906,36.4830861 L88.1684707,36.4863702 C88.1684707,36.4863702 87.26141,37.6288989 87.2610816,38.1546788 C87.2653509,40.9970433 87.5139551,44.5796376 87.8876825,47.1776671 C90.0029534,48.0131351 91.6423622,49.7126424 92.7875182,53.1717556 C94.4653507,58.240721 91.9605888,60.2167473 87.2042671,60.2144484 L87.2042671,60.2144484 Z" id="path34" fill="#FFFFFF"></path>
                        <path d="M71.5963857,47.6072238 C72.5339883,47.6072238 73.3701131,46.4650235 73.3701131,46.4650235 L75.2430195,52.1215094 C75.2430195,52.1215094 73.5113282,50.9779954 72.711985,50.9783238 L68.7875188,50.9766818 L70.6190459,56.5054173 L75.1333315,56.5077162 C75.9661722,56.5073877 77.2561557,55.5829214 77.2561557,55.5829214 L77.7648585,60.1563203 C77.4807862,60.0331676 76.7674858,59.8794731 75.5891607,59.8771742 L65.937601,59.8729049 C65.937601,59.8729049 66.8285698,58.7917883 66.5520509,57.9569772 L64.2554992,51.0141202 L63.0039393,51.013135 C63.0039393,51.013135 63.8949081,49.930048 63.6183892,49.0972073 L63.2955649,48.1218379 L63.2978638,48.1215095 L60.0577982,38.3336608 C59.7816077,37.5001633 58.164859,36.387848 58.164859,36.387848 L68.3724121,36.3917889 C69.1704416,36.3921173 69.8226584,36.2699498 70.0499161,36.1139564 L72.4866977,40.748439 C72.4866977,40.748439 70.4932659,39.7609185 69.5188817,39.7602617 L65.1119852,39.7579629 L67.7100147,47.6062385 L71.5963857,47.6072238" id="path36" fill="#FFFFFF"></path>
                        <path d="M117.002953,33.4889975 L110.160917,33.4866987 C110.160917,33.4866987 111.067321,32.3424622 110.800982,31.5369779 L108.266007,23.8752047 L108.160917,23.8752047 L106.941212,31.9392767 C106.888667,32.4026264 106.951721,32.8049253 107.064037,33.1421995 L107.178322,33.4847282 L101.307058,33.4811157 C101.307058,33.4811157 102.18916,32.3687677 101.911984,31.5340222 L95.4272554,11.941182 C95.163216,11.1392772 93.5343162,9.99513932 93.5343162,9.99513932 L100.337929,9.99832487 C100.337929,9.99832487 99.4781584,11.1704759 99.7333308,11.9445317 L104.01806,24.8928729 L104.090966,24.892249 L105.641705,16.0571753 L104.054185,11.2666664 C103.901804,10.8029226 103.6243,10.2772083 103.394743,9.99960566 L108.917239,10.0026927 C108.917239,10.0026927 108.312969,11.1146467 108.587846,11.9483741 L115.072575,31.5399335 C115.338913,32.3455493 117.002953,33.4889975 117.002953,33.4889975" id="path38" fill="#FFFFFF"></path>
                        <path d="M59.1954008,11.9205252 L65.6791445,31.5119532 C65.9254499,32.256124 67.5753678,33.4610829 67.5753678,33.4610829 L61.1852201,33.4594409 C61.1684714,33.3037759 61.1425272,33.1172406 61.0909673,32.9628892 C60.9290625,32.4689647 60.61412,31.9424623 60.343184,31.5409516 L54.4791448,23.6266004 L53.7947441,31.7849582 C53.780951,32.064991 53.8866982,32.5891617 53.9783238,32.8679795 C54.0390791,33.0525443 54.2160906,33.2683079 54.3123139,33.4555 L47.855828,33.4525443 C47.855828,33.4525443 48.7362878,32.3399007 48.4600973,31.5043999 L41.9740548,11.9119537 C41.7004916,11.078095 40.0821008,9.96486018 40.0821008,9.96486018 L46.9195391,9.96843982 C46.9195391,9.96843982 46.0292271,11.0496221 46.3149414,11.9146467 L50.3448263,24.090607 L50.4134634,24.0909682 L51.0436769,13.7823313 L58.5287342,24.0636447 L58.5963861,24.0621012 L54.5763533,11.9182263 C54.3018049,11.0850244 52.6834141,9.97073867 52.6834141,9.97073867 L59.8019689,9.97471239 C59.8019689,9.97471239 58.929391,11.1172411 59.1954008,11.9205252" id="path40" fill="#FFFFFF"></path>
                        <path d="M94.752707,21.1723804 C95.0072226,21.9458123 96.6344803,23.089983 96.6344803,23.089983 L89.48407,23.0857465 C89.48407,23.0857465 90.377666,22.0068632 90.0988483,21.1700816 L87.4213443,13.0758617 C87.271919,13.0440391 86.9471243,13.0128732 86.7050881,13.0121179 C84.4834133,13.0111984 83.4384216,14.464663 85.9218369,21.9727417 C87.854185,27.8131356 90.2702769,30.5018383 92.9786512,30.5027579 C94.5090288,30.5031191 96.0738892,29.3631848 96.0738892,29.3631848 L96.7917874,33.8426921 C96.6334951,33.7799663 96.1753671,33.6577988 95.8637086,33.6574704 C95.308372,33.6564852 94.2348088,33.8722487 93.4702768,33.8725771 C89.0623951,33.8696215 84.0443329,30.5618712 81.191131,21.9399009 C78.6554989,14.276223 79.5760243,9.61218367 84.8502442,9.61372718 C87.974382,9.61579615 90.8062375,10.5109685 91.8847268,11.0387189 C91.7290617,11.4081771 91.7559911,12.1172082 91.9816069,12.7992772 L94.752707,21.1723804" id="path42" fill="#FFFFFF"></path>
                        <path d="M76.303118,11.5592772 L79.4348092,31.3014442 C79.4696203,31.6098514 79.5421983,31.8295887 79.6233149,32.074876 C79.7559914,32.4781929 80.7569766,33.4049253 80.7569766,33.4049253 L72.5293906,33.4016412 C72.5293906,33.4016412 72.8620671,32.4131355 72.7389144,32.0409844 C72.6771739,31.8561568 72.5349736,31.6384557 72.4403923,31.4528071 L65.5356305,17.73064 L64.6489311,17.730016 C64.6489311,17.730016 64.9697849,16.7730045 64.8607537,16.3885382 L62.3960576,11.4902789 C62.0975354,10.9031196 60.8321824,9.9123807 60.8321824,9.9123807 L67.0827569,9.91596034 C67.0827569,9.91596034 66.4958932,10.8728405 66.6292266,11.2772083 C66.6482742,11.3336286 67.2361231,12.5862066 68.0863694,14.3871918 L72.1093578,17.7478485 L69.6732331,17.7464363 C72.0029539,22.6735627 74.820031,28.6151717 74.820031,28.6151717 C74.820031,28.6151717 71.4985204,11.3047616 71.4899818,11.2795071 C71.3674859,10.9066992 70.1362872,9.91724113 70.1362872,9.91724113 L76.8725761,9.9201968 C76.8725761,9.9201968 76.1793084,10.7543183 76.303118,11.5592772" id="path44" fill="#FFFFFF"></path>
                        <path d="M132.654184,31.5066987 C132.91067,32.2801306 134.537928,33.4252865 134.537928,33.4252865 L127.697534,33.4210172 C127.697534,33.4210172 128.591458,32.3402948 128.314939,31.5054179 L122.74154,14.6637763 C122.291294,13.3034479 121.040391,12.7786204 119.790473,12.7779964 C118.610178,12.7767156 117.676516,13.2088995 118.157633,14.6610834 L123.730375,31.5024623 C124.008207,32.3376018 125.615432,33.4210172 125.615432,33.4210172 L118.568142,33.4164195 C118.568142,33.4164195 119.460752,32.3352701 119.183577,31.5001634 L113.444989,14.163218 C113.149751,13.2689323 112.821672,12.803645 112.546138,12.4962887 C113.289652,11.3828897 114.882756,9.37642013 118.666664,9.3770441 C122.241048,9.37999977 125.268306,11.3898191 126.700818,12.4725448 C126.620358,12.7497534 126.630867,13.3061409 126.91691,14.1694906 L132.654184,31.5066987" id="path46" fill="#FFFFFF"></path>
                        <path d="M139.010506,25.7894575 C138.557632,26.6220355 138.477829,27.4255822 138.774052,28.3204919 C139.151721,29.4667316 140.320522,30.484794 141.816088,30.4873556 C143.655497,30.4873556 145.63021,29.2213129 145.63021,29.2213129 L146.3064,33.6706067 C145.985875,33.5467972 145.436778,33.4548432 145.122821,33.4548432 C144.324134,33.4551716 143.275202,33.8538579 142.235793,33.8541863 C138.242033,33.8525443 135.293593,31.6565181 134.159931,28.2269944 C133.290965,25.6010174 134.133658,23.5297203 135.91888,20.7504757 C137.199997,18.7431851 137.65911,17.5067976 137.034479,15.6229553 C136.471589,13.9215103 134.928404,12.9335957 133.298519,12.932709 C131.006893,12.931691 129.558617,14.8456811 129.558617,14.8456811 L128.633166,9.74742176 C128.863051,9.81090287 129.319209,9.93303752 129.77044,9.93405558 C130.502131,9.93431831 131.477829,9.53162538 132.798683,9.5310014 C136.893593,9.53369434 140.226926,11.7306729 141.666992,16.0866991 C142.55796,18.7762885 141.877829,20.6006235 140.582919,22.8834477 C140.043346,23.8729058 139.589487,24.7057137 139.010506,25.7894575" id="path48" fill="#FFFFFF"></path>
                        <path d="M126.076187,57.9684715 C126.332673,58.7425273 127.96026,59.8870264 127.96026,59.8870264 L121.119866,59.8834139 C121.119866,59.8834139 122.013462,58.8022974 121.737271,57.9671578 L116.163544,41.1257789 C115.713298,39.7655162 114.462395,39.2403931 113.212805,39.2397363 C112.032181,39.2387511 111.098191,39.670935 111.578979,41.1228233 L117.152706,57.9642022 C117.430211,58.7993417 119.037764,59.8830855 119.037764,59.8830855 L111.990145,59.8788162 C111.990145,59.8788162 112.882756,58.7976997 112.605252,57.9625601 L106.866992,40.6256147 C106.571426,39.7307051 106.244004,39.2660089 105.968142,38.9582913 C106.711984,37.8446624 108.305088,35.8380943 112.088667,35.8390796 C115.663051,35.8420352 118.690309,37.851559 120.12315,38.9343176 C120.042033,39.2114933 120.052871,39.7684719 120.338913,40.6318545 L126.076187,57.9684715" id="path50" fill="#FFFFFF"></path>
                        <path d="M110.068963,60.2160904 C109.786204,60.0916241 109.259767,59.9694566 108.530375,59.9694566 L98.6354655,59.9638737 C97.9760238,59.9645305 97.2863687,60.0860412 97.0400633,60.1802941 L94.6082078,55.6676505 C94.6082078,55.6676505 96.5109992,56.5934304 97.5891601,56.593102 L100.087682,56.5950725 L94.0742177,38.424958 C93.7980272,37.5911321 92.1806217,36.4778316 92.1806217,36.4778316 L99.2978629,36.4821009 C99.2978629,36.4821009 98.4377644,37.6541863 98.6932652,38.4279137 L104.705416,56.5960577 L107.134316,56.5980281 C108.386204,56.598685 109.536615,55.6738902 109.536615,55.6738902 L110.068963,60.2160904" id="path52" fill="#FFFFFF"></path>
                        <path d="M132.488667,52.2302122 C132.035465,53.0630529 131.956319,53.8660085 132.252213,54.761575 C132.630539,55.9070594 133.799011,56.9257785 135.294906,56.927749 C137.134315,56.927749 139.108699,55.6617392 139.108699,55.6617392 L139.78489,60.111657 C139.464364,59.987519 138.915267,59.895565 138.600982,59.895565 C137.802952,59.8958934 136.753691,60.2945798 135.713954,60.2945798 C131.720522,60.2929377 128.772411,58.0972071 127.638749,54.6676505 C126.769455,52.0417064 127.611819,49.9701137 129.39737,47.1908034 C130.678158,45.1839069 131.137599,43.9471253 130.513297,42.0630531 C129.950407,40.3619038 128.406893,39.3743833 126.777665,39.373398 C124.485383,39.3724128 123.037107,41.2863701 123.037107,41.2863701 L122.111984,36.1875196 C122.34154,36.2512306 122.797698,36.3737265 123.24893,36.3747117 C123.980949,36.3747117 124.956647,35.9724129 126.277173,35.9717561 C130.372411,35.9737265 133.705415,38.1710992 135.145809,42.5274209 C136.036778,45.217076 135.356318,47.0410497 134.06108,49.3234799 C133.521507,50.3136276 133.068634,51.1464683 132.488667,52.2302122" id="path54" fill="#FFFFFF"></path>
                        <path d="M124.373067,36.8702782 C124.373067,36.8702782 124.570112,36.8302125 124.570112,36.8292273 C125.117238,36.7178973 125.660095,36.6180615 126.29425,36.6180615 C129.605908,36.6200319 132.178979,38.0880122 133.719208,40.7977001 L131.40558,43.7221664 C131.416089,43.1536935 131.332016,42.5625605 131.113954,41.9034472 C130.497862,40.044334 128.762887,38.7944161 126.795728,38.7937593 C126.477501,38.7931025 126.157632,38.8256148 125.843347,38.8899826 C124.827583,39.0972076 124.012805,39.6055819 123.450243,40.0650236 L122.893921,36.9993423 C123.015432,37.0118217 123.140884,37.0197035 123.26732,37.0197035 C123.609849,37.0200319 123.971097,36.9520516 124.373067,36.8702782 L124.373067,36.8702782 Z M98.1300468,38.6528726 L99.1986839,41.8840712 L96.8935936,44.9730695 L94.6742177,38.2650237 C94.5461389,37.8801304 94.2367793,37.4807872 93.8893244,37.1244654 L98.2758596,37.1267643 C98.0870255,37.5914605 97.9635443,38.1490959 98.1300468,38.6528726 Z M119.775695,40.8571418 L120.19737,42.1293914 L118.084398,44.9602616 L116.763215,40.9658446 C116.28604,39.5221665 114.965514,38.6607544 113.231524,38.660426 C112.928076,38.6597691 112.649258,38.6857133 112.401639,38.7353028 C111.775367,38.86371 111.328404,39.15238 111.074874,39.591132 C110.80361,40.0584555 110.784234,40.6499169 111.016089,41.348439 L111.270276,42.1142847 L109.013134,45.1385867 L107.466664,40.4666657 C107.234808,39.762889 106.977994,39.2939235 106.750408,38.9694572 C107.407879,38.0863701 108.482099,37.04105 110.407222,36.6466329 C110.934644,36.5395722 111.506073,36.485385 112.105744,36.485385 C114.459439,36.4866986 117.004923,37.4400647 119.485711,39.2430204 C119.470276,39.683086 119.567485,40.2302125 119.775695,40.8571418 L119.775695,40.8571418 Z M100.469291,15.9300489 L98.377009,18.7133 L96.0210157,11.5940555 C95.8965493,11.2151065 95.5802932,10.8121508 95.2262702,10.4515597 L99.3103423,10.4542526 C99.120523,10.9182592 98.9967135,11.4744825 99.1638727,11.979934 L100.469291,15.9300489 Z M108.765515,14.244663 L105.896549,18.0621342 L106.283413,15.8538584 L104.647945,10.9178651 C104.598684,10.7668963 104.5376,10.6105088 104.468963,10.4572083 L108.036451,10.458095 C107.914283,10.9103117 107.847945,11.4700161 108.01806,11.9845646 L108.765515,14.244663 Z M87.9034461,12.392512 L87.5582901,12.3201311 C87.3589469,12.2771754 86.9894888,12.2436779 86.717896,12.2443347 C86.406566,12.2440719 86.132346,12.2676844 85.880786,12.3199012 C85.1691276,12.4660095 84.6397352,12.8308371 84.3060734,13.4072246 C84.013791,13.9116253 83.8742179,14.5930702 83.8893247,15.4797697 L81.0866975,19.2088665 C80.2463034,15.8692607 80.2541852,13.3461737 81.1284052,11.8374053 C81.6364512,10.9595728 82.4279126,10.4210178 83.5467959,10.1921837 C83.5471243,10.1921837 83.5471243,10.1921837 83.5471243,10.1921837 C83.9444971,10.1119866 84.38719,10.0696549 84.8610816,10.0696549 C87.4604247,10.0722165 89.9014756,10.7149423 91.1960568,11.2416746 C91.1573048,11.7142526 91.229226,12.2864036 91.4111636,12.8352049 L92.2456463,15.3572738 L89.9119846,18.4617401 L87.9034461,12.392512 Z M51.5628887,15.3639405 L52.5819363,16.7628896 L51.3793091,18.3638747 L51.5628887,15.3639405 Z M59.8466323,15.6466663 L57.536616,18.7204921 L55.1701136,11.569425 C55.0433484,11.1849587 54.7320183,10.7842033 54.3848919,10.428604 L58.7674862,10.4305088 C58.5793089,10.890673 58.456813,11.4466664 58.6256143,11.9563215 L59.8466323,15.6466663 Z M47.0469611,15.8827254 L44.9293913,18.6994412 L42.5674866,11.5655826 C42.4413782,11.178916 42.130705,10.7789488 41.7829218,10.4212805 L45.8656803,10.4246303 C45.6824291,10.8742526 45.5701138,11.421379 45.7451548,11.9506729 L47.0469611,15.8827254 Z M76.2243002,14.8919865 L73.5188816,18.5196054 C72.1080442,11.1736615 72.1031181,11.1586533 72.0906386,11.1191459 C72.0403923,10.967783 71.9185532,10.7816418 71.7274202,10.5631524 L75.849916,10.5648273 C75.7293906,10.8988831 75.6548421,11.2873232 75.7162543,11.6879472 L76.2243002,14.8919865 Z M65.9316896,17.1517237 L65.4587833,17.151461 C65.5152693,16.8377993 65.5395714,16.5054183 65.4689639,16.2548764 L65.4532003,16.1990801 L62.9599327,11.2453856 C62.8522152,11.0321836 62.6604254,10.7911327 62.4426914,10.5593101 L66.1310328,10.5616418 C66.0233153,10.8854184 65.9737258,11.2243347 66.066665,11.5044004 C66.0850558,11.5559603 66.1050887,11.620755 67.5500804,14.6814775 L67.6075517,14.8033494 L68.7333316,15.7441704 L66.6377652,18.5550077 L65.9316896,17.1517237 Z M123.341212,14.5038092 C122.864036,13.0604594 121.543511,12.1986532 119.809521,12.1983905 C119.505744,12.1977665 119.226926,12.2239406 118.979307,12.2735629 C118.353035,12.402003 117.906729,12.6903774 117.652542,13.1293593 C117.381606,13.5960588 117.362559,14.1882098 117.594086,14.886732 L117.848273,15.6521835 L115.59113,18.6764856 L114.044661,14.0046302 C113.812477,13.3004923 113.555662,12.8318552 113.328076,12.5074545 C113.985547,11.6239406 115.060424,10.5786861 116.985219,10.1848602 C117.512641,10.0778651 118.084069,10.0229554 118.683741,10.0233495 C121.037435,10.0242362 123.58292,10.977668 126.063708,12.7809521 C126.047616,13.2206893 126.145481,13.7684726 126.35402,14.3951392 L126.775366,15.6673231 L124.662066,18.4981933 L123.341212,14.5038092 Z M137.92709,17.281773 C137.937271,16.7139897 137.853855,16.1218387 137.635136,15.4624627 C137.019373,13.6036121 135.284069,12.3543839 133.317238,12.3529718 C132.999011,12.3527419 132.678814,12.3849258 132.364857,12.4493265 C131.348765,12.6567485 130.534315,13.1644988 129.971425,13.624269 L129.41576,10.5589488 C129.536614,10.5717567 129.662723,10.5789488 129.788503,10.5789488 C130.131031,10.5793429 130.492279,10.5115925 130.894906,10.4302789 C130.894906,10.4302789 131.090966,10.3894579 131.090966,10.3884398 C131.63842,10.2772083 132.181934,10.1770441 132.815103,10.177274 C136.12709,10.1793429 138.700161,11.6472903 140.241047,14.357044 L137.92709,17.281773 Z M86.6663361,38.1885048 C86.6683065,39.1247938 86.696878,40.1356312 86.7464675,41.1619037 L83.9996695,44.8430202 C83.5123132,42.4752042 83.0318534,39.1684719 82.9454823,37.1293915 L87.0298829,37.1307051 C86.827584,37.4906395 86.6666645,37.8752043 86.6663361,38.1885048 Z M26.2129386,41.3569776 L23.506896,44.9845637 C22.0964198,37.6394079 22.091428,37.6239728 22.0791127,37.5845639 C22.0289321,37.4331682 21.9069288,37.2469613 21.7160586,37.0282421 L25.8384558,37.0302125 C25.7178647,37.3638743 25.6433491,37.75238 25.7047941,38.1530368 L26.2129386,41.3569776 Z M15.9205579,43.6167477 L15.4471917,43.6167477 C15.5039077,43.3027904 15.5276187,42.9707707 15.4573395,42.720196 L15.4411819,42.6643667 L12.9483412,37.7103439 C12.8404594,37.497536 12.648801,37.2561567 12.4312312,37.0243012 L16.1190144,37.0266001 C16.0117894,37.3504096 15.9622656,37.6893258 16.0547451,37.9697856 C16.073103,38.0216739 16.0938912,38.0860417 17.5382262,41.146797 L17.5963542,41.2686361 L18.7219043,42.2095228 L16.6261408,45.0200317 L15.9205579,43.6167477 Z M79.745154,42.0160909 L77.4640375,45.0745473 L75.2118208,38.2653521 C75.083742,37.8807872 74.774054,37.4801304 74.4269275,37.1251222 L78.7881754,37.1270927 C78.5976992,37.596715 78.4683067,38.1605902 78.6318535,38.6525442 L79.745154,42.0160909 Z M34.0433489,39.3146131 L34.9330041,42.0052535 L32.6539565,45.0617394 L30.3890961,38.2174046 C30.2610501,37.8331682 29.9504754,37.4318546 29.6028236,37.0775032 L37.8775032,37.0801304 C38.6630532,37.0814441 39.2055819,37.0446625 39.5855491,36.9668299 C39.5875195,36.9668299 39.5901468,36.9668299 39.5917888,36.9665015 L41.1044325,39.6745474 C40.5500811,39.4768463 39.9612469,39.3178972 39.5077166,39.3182256 L34.0433489,39.3146131 Z M64.2821002,39.1776673 L65.1891609,41.9198676 L62.9090296,44.9763536 L60.6571413,38.1737265 C60.5307046,37.7888332 60.2206881,37.3898184 59.8735617,37.0341534 L68.3894893,37.0367807 C68.8669934,37.0377659 69.314284,36.9973718 69.6830853,36.9231518 C69.714284,36.9162552 69.7448258,36.9093587 69.7733973,36.9031189 L71.1638734,39.5484391 C70.5980278,39.346797 69.9940869,39.180623 69.5382577,39.1809514 L64.2821002,39.1776673 Z M57.5323467,41.2554998 L55.3021333,44.2446623 C55.2466324,43.9898183 55.1786522,43.7267641 55.0863697,43.4486032 C53.8558279,39.7310335 51.7136276,38.9490959 50.1339889,38.9477823 C49.7619035,38.9484391 49.2991777,38.9467971 49.0252861,38.980623 L48.2843994,39.0745475 L49.2827574,42.0893257 L47.0045965,45.1435128 L44.6216738,37.9425278 C44.5093585,37.6052536 44.1894899,37.2279137 43.8269283,36.8850565 C45.1540219,36.8174047 46.717897,36.7720845 47.8279134,36.7724129 C52.4371087,36.7750401 55.6893254,38.281444 57.5323467,41.2554998 L57.5323467,41.2554998 Z" id="path56" fill="#D3D5D7"></path>
                    </g>
                </g>
            </g>
        </g>
    </g>
</svg>