<?xml version="1.0" encoding="UTF-8"?>
<svg width="200px" height="200px" viewBox="0 0 200 200" version="1.1" xmlns="http://www.w3.org/2000/svg" xmlns:xlink="http://www.w3.org/1999/xlink">
    <!-- Generator: Sketch 54.1 (76490) - https://sketchapp.com -->
    <title>albright</title>
    <desc>Created with Sketch.</desc>
    <g id="albright" stroke="none" stroke-width="1" fill="none" fill-rule="evenodd">
        <g id="albright_BGL">
            <g id="albright" transform="translate(0.000000, 34.000000)">
                <g id="g10" transform="translate(99.999998, 65.968257) scale(-1, 1) rotate(-180.000000) translate(-99.999998, -65.968257) translate(0.000000, 0.095242)" fill-rule="nonzero">
                    <g id="g12">
                        <path d="M189.831344,89.8019819 C188.242852,91.076585 187.137297,91.3337279 185.271027,92.8555532 C185.976186,94.9769818 187.143646,94.3928548 187.143646,94.3928548 C187.143646,94.3928548 186.432932,93.7531723 186.465472,92.4809501 C187.221821,91.9551564 189.664281,90.4587279 189.664281,90.4587279 C189.664281,90.4587279 189.420233,90.9666644 189.659916,91.5670612 C189.809519,92.6539659 191.638884,93.5103151 198.234122,91.6527755 C197.900789,93.7587278 196.00436,93.5432516 189.958329,93.7420611 C190.215075,95.6071405 187.181345,96.1821405 185.240075,95.6583309 C183.299202,95.1325373 182.259916,93.2170612 178.97817,95.4095214 C175.700789,97.603569 174.149599,97.6571404 171.730154,97.0412674 C172.774996,97.8460293 171.574202,98.1714261 170.764281,99.073807 C169.955154,99.9769816 168.795631,100.610712 167.119043,99.7345213 C165.440472,98.8559499 163.786107,98.1333309 162.495234,98.944442 C161.204758,99.7551562 157.538885,100.260315 157.538885,100.260315 L157.07698,100.151188 C157.18571,99.5289658 157.060314,98.9039658 155.688885,99.8242039 L152.872218,99.1611086 L153.305155,99.4563467 L151.696425,98.9333309 C151.696425,98.9333309 144.134917,101.593648 141.376981,100.065077 C138.619838,98.535315 138.423012,92.9861088 138.423012,92.9861088 C138.423012,92.9861088 135.490473,96.3753944 133.770632,96.2170611 C132.05079,96.0607119 133.45952,93.9571405 133.45952,93.9571405 C133.45952,93.9571405 128.094044,98.151188 124.797616,98.8908705 C121.503568,99.6313467 118.214283,98.3567436 115.770632,92.9365056 C113.326981,87.5162677 117.310315,81.4988075 119.53214,81.1924583 C123.973013,82.5972202 128.256743,82.8714265 128.256743,82.8714265 L127.055552,86.4900772 L129.877378,84.3746011 L127.404362,89.0321406 L130.428171,86.3142836 L130.777775,88.856347 C130.777775,88.856347 130.782933,86.8416645 132.611901,85.7257915 C142.652377,84.6325376 148.656742,80.3404742 148.656742,80.3404742 C148.656742,80.3404742 148.484123,80.159125 148.201187,79.8515853 C149.199599,79.2555536 150.066663,78.5718234 150.685314,77.7821409 C150.976187,77.411506 150.949203,76.9063473 150.644441,76.5634901 C150.941663,76.277379 151.227377,75.9777759 151.486901,75.6519822 C148.652377,73.4742045 147.394838,70.1634903 147.431742,68.8932522 C146.938488,69.0440459 146.407536,69.1746014 145.8496,69.2853157 C145.038885,67.2198396 143.630155,63.2976175 144.066266,61.9845223 C144.664679,60.1757921 146.767457,61.0380937 146.767457,61.0380937 L147.299599,54.6317447 L151.238885,52.8384907 C152.290472,53.9936494 153.555949,55.9940462 155.296028,55.2896812 C153.25079,53.9884907 151.861901,50.6952368 155.82698,47.8269829 C157.379361,46.7051576 159.483329,45.199602 161.607932,43.6626973 C161.613488,43.9789672 161.598409,44.2833322 161.562694,44.5718243 C165.317456,41.931745 165.317456,41.931745 168.086901,40.081745 C168.03571,39.7642847 167.957139,39.4159117 167.857535,39.0452768 C168.611504,38.4658721 169.237694,37.9657927 169.676583,37.586507 C166.826186,37.2389673 167.525393,37.2484118 167.525393,37.2484118 L168.448012,34.6912293 C168.448012,34.6912293 170.100393,36.153888 171.440869,35.3368245 C170.642853,34.8150785 170.367456,34.3238483 170.367456,34.3238483 L169.479361,33.7051976 L168.589678,31.7709913 C168.589678,31.7709913 171.898408,33.3738087 172.740869,34.2075785 C173.580948,35.0427769 174.176186,35.5928959 175.675789,35.1770229 C174.122615,34.4385706 174.312297,33.5694039 173.833726,33.1067055 C173.356742,32.6444833 171.963488,30.8317849 171.963488,30.8317849 L172.314281,30.3607135 L177.105948,33.5011896 L177.599599,33.3290071 L177.588488,32.4844833 C177.588488,32.4844833 176.489678,30.5253167 177.013488,29.8190866 C177.317059,29.4138882 177.746821,29.4456739 178.058329,29.5456739 L178.453567,29.7298008 C178.453567,29.7298008 179.033726,30.9142453 179.383726,30.4464278 C179.736107,29.9734913 180.215472,29.6957135 179.637297,28.5106739 C179.770234,28.7436501 179.898805,28.9670231 180.023011,29.1841659 C180.398408,30.5352373 180.361503,32.467142 179.59444,32.7373008 C180.622218,34.9170626 183.771821,37.4409514 183.771821,37.4409514 C183.771821,37.4409514 183.90317,37.6348403 182.518646,38.1400387 C181.134916,38.6492451 179.449599,38.457499 177.861503,38.9916657 C176.272218,39.52738 174.888885,40.7734117 173.445234,41.6035704 C172.004361,42.4349196 169.880154,42.8349196 168.653964,43.7416656 C167.429361,44.6472211 163.678964,49.0710305 159.623012,53.5329352 C155.56706,57.9960303 157.086107,60.0039668 158.892853,64.0817444 C160.701186,68.1607126 175.281742,76.0765854 178.957138,77.893252 C182.631741,79.709125 183.633329,80.2047599 185.072614,80.1122996 C186.512694,80.0198393 186.851186,79.4464266 189.717456,79.1587282 C192.301979,78.8976171 192.688884,81.6781726 192.832138,83.4551566 C192.822217,83.4650773 192.81309,83.4706328 192.802773,83.4813471 C192.8869,84.8432518 190.638884,87.367855 189.831344,89.8019819" id="path14" fill="#D41042"></path>
                        <path d="M195.376979,78.8003949 C193.776186,79.6888869 193.715868,82.3396805 193.760709,83.41349 C193.918646,83.51349 194.092455,83.6448392 194.299598,83.8051566 C194.456344,83.9261884 194.81944,84.2392836 195.288884,84.6742042 C195.617059,83.2710297 196.659122,78.4444425 195.376979,78.8003949 L195.376979,78.8003949 Z M57.1678557,61.0095223 L69.477776,87.0670613 L76.8111092,64.8083317 C71.1726173,64.3154746 64.3742047,63.1853159 57.1678557,61.0095223 Z M167.857139,33.4682135 L167.792175,33.3682135 C167.780496,33.3954784 167.768817,33.4232113 167.757139,33.4503062 L167.857139,33.4682135 Z M199.924201,90.7369025 C200.107138,92.8214263 198.036106,94.3730135 196.422217,94.7003945 C194.806344,95.0281722 192.710709,95.6329341 192.273408,95.4821405 C191.838884,95.3301563 191.503567,95.1646802 191.503567,95.1646802 C191.503567,95.1646802 188.257138,96.4563468 184.591265,96.960315 C182.305551,96.9595214 181.227376,97.4238071 179.770234,98.1527753 C178.315075,98.8789658 176.642456,98.7932515 175.710313,98.8162674 C176.126186,99.6674578 175.36071,100.969839 172.143646,101.976585 C173.683329,102.575791 174.809519,103.726585 174.724202,105.840474 C168.432139,101.238093 171.612297,112.025791 164.822615,114.111505 C168.44444,109.582934 163.957932,108.578569 160.588488,110.087299 C154.671028,112.340473 155.171822,118.028568 146.42579,124.412695 C148.736504,120.64206 147.55952,116.196822 142.915076,117.412299 C116.278965,123.380552 113.388092,135.290473 91.2087279,130.388489 C99.5726166,130.819838 107.611902,124.100394 102.62341,119.111902 C100.391267,116.879759 95.6293627,118.268648 91.7432517,118.266664 L91.5718231,118.266267 L91.5718231,118.266664 L61.889681,118.266664 L25.3017851,44.4071417 C22.5007931,42.2853164 19.782063,39.9488085 17.185952,37.3725784 C16.8250789,37.013888 16.8009123,36.4575388 17.130317,36.0722213 C17.4594043,35.6873007 18.0386503,35.598015 18.4793646,35.8618642 C19.7039281,36.5956737 20.9119042,37.2904356 22.1059518,37.9551181 L15.7136504,25.0511502 C14.3438488,22.2654756 13.1401981,20.3650392 12.1023806,19.3416662 C11.0641267,18.3198408 9.77539658,17.5544043 8.23674583,17.0416266 C6.69749983,16.5308726 4.29920624,16.2766663 1.03469045,16.2766663 L0,0 L50.8214273,0 L51.8571416,16.2766663 C47.026983,16.2766663 44.0865068,16.3896821 43.0376973,16.6170631 C41.4265863,16.9574599 40.2869038,17.5007932 39.6123006,18.2412694 C38.9369435,18.9797217 38.6284911,19.8059122 38.68738,20.7166265 C38.7369832,21.5142852 39.3457133,23.1921026 40.5142847,25.7570628 L51.2214273,48.4226178 C56.1615065,48.8988083 59.8043636,48.2075385 61.7357127,46.5543639 C62.7567445,45.715475 63.0833318,44.3813481 62.6071413,42.9845227 C61.948808,41.0432529 59.5019826,38.6424197 54.7781732,38.2587689 C54.2908717,38.2170625 53.899205,37.8566657 53.8436494,37.3932134 C53.7857129,36.9301975 54.0789669,36.4936896 54.5452367,36.3479753 C64.1345222,33.3381341 70.9861093,36.110634 78.2400774,39.0445228 C80.2753948,39.8698403 82.345236,40.706745 84.5150773,41.424999 L89.2845216,26.947539 C90.2730136,23.7603962 90.7365057,21.6524201 90.6718231,20.6285709 C90.5968231,19.4332932 89.8400771,18.4241662 88.4134899,17.5976583 C86.9825375,16.7745631 84.551982,16.3606742 81.1174583,16.3606742 L77.3686489,16.2766663 L76.3329346,0 L138.405552,0 L138.405949,0.00403027768 C141.288092,0.00434027767 147.765472,0.00589039668 147.976584,0.012710833 C152.903964,0.195622614 158.210314,7.02333316 155.898806,18.1588091 C155.080552,22.1003963 155.496028,23.7853565 157.759123,23.7603962 C162.362694,24.3963883 163.099996,17.328571 163.099996,17.328571 C163.099996,17.328571 167.57817,21.9698804 167.958726,30.1889675 L170.325789,31.3730945 L170.285313,30.5074992 C169.486107,29.1651183 171.160313,29.5162294 169.374599,28.4174993 L173.955948,29.4480151 L174.653567,28.8781739 L173.794043,27.1123009 C173.318646,26.5298009 173.297218,26.3723009 172.414281,25.6226581 L175.737694,26.6753565 C175.680551,26.7340866 175.624202,26.7948406 175.569043,26.8523803 C177.862694,28.4388882 178.453567,29.7298008 178.453567,29.7298008 C178.453567,29.7298008 177.540472,29.1147215 177.013488,29.8190866 C176.489678,30.5253167 177.588488,32.4844833 177.588488,32.4844833 L177.599599,33.3290071 L177.105948,33.5011896 L172.314281,30.3607135 L171.963488,30.8317849 C171.963488,30.8317849 173.356742,32.6444833 173.833726,33.1067055 C174.312297,33.5694039 174.122615,34.4385706 175.675789,35.1770229 C174.176186,35.5928959 173.580948,35.0427769 172.740869,34.2075785 C171.898408,33.3738087 168.589678,31.7709913 168.589678,31.7709913 L169.479361,33.7051976 L170.367456,34.3238483 C170.367456,34.3238483 170.642853,34.8150785 171.440869,35.3368245 C170.100393,36.153888 168.448012,34.6912293 168.448012,34.6912293 L167.525393,37.2484118 C167.525393,37.2484118 166.826186,37.2389673 169.676583,37.586507 C169.237694,37.9657927 168.611504,38.4658721 167.857535,39.0452768 C166.78452,35.0516261 163.078964,28.2707136 160.520631,25.2388883 C157.080155,31.8638484 147.472615,29.5207135 145.648806,25.7690073 C142.914679,20.1457138 159.964679,6.79361094 139.114679,2.47938486 C141.010711,13.8642457 140.40952,16.1638091 135.147616,16.5959916 C126.220632,17.3290075 124.955552,27.8059914 117.626584,47.574602 C123.866267,36.3321419 129.805949,29.1483723 136.155155,39.8626974 C135.294441,35.6308721 133.774203,30.9999595 129.409124,26.5028168 C143.694838,16.0531345 136.155155,38.2753562 150.682933,40.8813482 C145.162298,36.5313483 145.687298,31.2062691 148.228965,31.2802373 C157.009123,31.702023 161.531742,39.011507 161.607932,43.6626973 C159.483329,45.199602 157.379361,46.7051576 155.82698,47.8269829 C151.861901,50.6952368 153.25079,53.9884907 155.296028,55.2896812 C153.555949,55.9940462 152.290472,53.9936494 151.238885,52.8384907 L147.299599,54.6317447 L146.767457,61.0380937 C146.767457,61.0380937 144.664679,60.1757921 144.066266,61.9845223 C143.630155,63.2976175 145.038885,67.2198396 145.8496,69.2853157 C145.848409,69.2853157 145.847219,69.2857126 145.846425,69.2857126 C145.703171,69.3138872 145.556346,69.3400776 145.40952,69.3654745 C145.365076,69.3730141 145.321425,69.3813475 145.27698,69.3884903 C145.141266,69.4111094 145.003568,69.4317443 144.865473,69.4515856 C144.807536,69.4599189 144.749996,69.4686491 144.691266,69.4765856 C144.557933,69.4948395 144.422615,69.5111094 144.286901,69.5269824 C144.221425,69.5345221 144.156742,69.5420618 144.090869,69.5492046 C143.957933,69.5630935 143.823806,69.5761887 143.689282,69.5880935 C143.61825,69.5940459 143.547219,69.5999983 143.476187,69.6055538 C143.342457,69.6162681 143.20833,69.6253951 143.073012,69.6337284 C142.999203,69.6380935 142.925393,69.6416649 142.85079,69.6456332 C142.715869,69.6523792 142.580552,69.6583316 142.444441,69.6630935 C142.368647,69.6654744 142.29206,69.6666649 142.215869,69.6682522 C142.078965,69.6714268 141.942457,69.6746014 141.805155,69.6749983 C141.729362,69.6753951 141.653568,69.6742046 141.577774,69.6738078 C141.437298,69.673411 141.296425,69.6726173 141.154758,69.6694427 C141.090076,69.6678554 141.025393,69.6646808 140.960711,69.6626967 C140.46825,69.6468237 139.972219,69.6150776 139.4746,69.5666649 C139.386901,69.5579348 139.298806,69.5507919 139.210711,69.5412681 C139.089679,69.527776 138.968647,69.5115062 138.847616,69.4964268 C138.745631,69.4837284 138.643251,69.4714268 138.54087,69.4571411 C138.4246,69.4404745 138.308727,69.4218237 138.192457,69.4035697 C138.085314,69.3865062 137.977774,69.3698395 137.871028,69.3515856 C137.757933,69.3317443 137.645631,69.3103157 137.53333,69.2888872 C137.422616,69.2678554 137.311901,69.2464268 137.202378,69.223411 C137.092457,69.2007919 136.982933,69.1765856 136.873806,69.1519824 C136.761505,69.1265856 136.648806,69.1003951 136.537298,69.0730141 C136.430552,69.0468237 136.323806,69.0202364 136.217854,68.9920618 C136.103171,68.9622999 135.989679,68.9305538 135.876187,68.898411 C135.773012,68.8694427 135.670632,68.8400776 135.568647,68.8091253 C135.451981,68.7738078 135.336108,68.736903 135.220235,68.6992046 C135.122219,68.6670618 135.023806,68.6357126 134.926584,68.6023792 C134.805552,68.5607126 134.686108,68.5162681 134.566663,68.4722205 C134.476187,68.4384904 134.38452,68.4059507 134.294838,68.37103 C134.160711,68.3186491 134.028568,68.2626967 133.896425,68.2071412 C133.823013,68.1761888 133.748806,68.1468237 133.67579,68.1146808 C133.473013,68.0253951 133.272616,67.932538 133.0746,67.8349189 C133.033727,67.8146808 132.994044,67.7920618 132.953568,67.7718237 C132.795632,67.691665 132.638489,67.6103158 132.483727,67.5249983 C132.413489,67.4857126 132.344838,67.4440459 132.275394,67.4035697 C132.153171,67.3333317 132.030949,67.2626967 131.911505,67.1884904 C131.835314,67.1412682 131.759917,67.0908713 131.684917,67.041665 C131.5746,66.9706332 131.465473,66.8988079 131.357536,66.8242047 C131.280552,66.7710301 131.205552,66.7150777 131.129362,66.659919 C131.026584,66.584919 130.9246,66.5091253 130.8246,66.4313475 C130.749203,66.3730142 130.67579,66.3130936 130.601981,66.2527761 C130.504759,66.1730142 130.40833,66.0920618 130.313489,66.0091253 C130.241663,65.9460301 130.170235,65.8817444 130.099997,65.8174587 C130.00714,65.7317444 129.916267,65.6444428 129.826187,65.5559507 C129.75833,65.4888873 129.69087,65.4222206 129.6246,65.353173 C129.535711,65.2607127 129.448806,65.1658714 129.363092,65.0694428 C129.30079,65.0003952 129.238092,64.9313476 129.177378,64.859919 C129.09087,64.7575381 129.00714,64.6519825 128.924203,64.5460301 C128.869044,64.4761889 128.813092,64.4083317 128.759917,64.3365063 C128.670632,64.2170619 128.586108,64.0928555 128.501584,63.9682524 C128.459124,63.9059508 128.414283,63.8460301 128.373409,63.7817444 C128.2496,63.5920619 128.131346,63.3972206 128.019044,63.196427 C124.273806,56.4904748 124.851584,55.7861097 119.368251,54.1496018 C125.257933,58.4801573 121.044838,59.2166652 116.253965,59.1845223 C111.469838,59.1503953 106.242854,47.1424591 92.5563469,45.4789671 C78.7892837,43.8079354 69.9198395,35.6880943 58.9301573,37.6650784 C66.2686491,38.0110705 66.9932523,45.8357131 63.6337286,48.4761893 C58.1630938,52.9591257 41.2095228,50.7579352 19.770436,38.4595228 C44.4912687,61.957935 80.8488075,64.4694428 92.7246009,63.1912683 C104.598807,61.914681 109.627378,66.5591253 104.868648,68.2122999 C100.106347,69.8650776 92.2753945,73.8023791 87.9706327,72.4420617 C96.9599182,76.170633 100.852775,76.3146806 105.867458,74.841268 C110.88214,73.3698394 116.977378,73.0265855 121.601187,74.9801569 C124.757933,76.313887 131.357536,77.7670615 136.832536,78.2515853 C138.905949,78.9257917 140.305949,79.8075377 140.280155,81.0821408 C140.494044,81.0297599 140.711504,80.9761885 140.931346,80.9218234 C141.067457,80.8880932 141.206346,80.8527758 141.344044,80.8182519 C141.433727,80.7956329 141.522616,80.7734107 141.613092,80.7503948 C141.77579,80.709125 141.939679,80.665871 142.104362,80.6230139 C142.170235,80.6059504 142.234917,80.5892837 142.30079,80.5718234 C142.480552,80.5242043 142.660711,80.4746012 142.84206,80.4246012 C142.89206,80.4107123 142.94206,80.3968234 142.99206,80.3829345 C143.184917,80.3289662 143.377774,80.2730139 143.571822,80.215871 C143.60833,80.2051567 143.644441,80.1940456 143.680949,80.1833313 C143.888092,80.1214266 144.094838,80.0575377 144.302377,79.9912678 C144.319838,79.9857123 144.337298,79.9797599 144.355155,79.9742043 C146.654758,79.2361091 148.93333,78.2107123 150.644441,76.5634901 C150.949203,76.9063473 150.976187,77.411506 150.685314,77.7821409 C150.066663,78.5718234 149.199599,79.2555536 148.201187,79.8515853 C148.484123,80.159125 148.656742,80.3404742 148.656742,80.3404742 C148.656742,80.3404742 142.652377,84.6325376 132.611901,85.7257915 C130.782933,86.8416645 130.777775,88.856347 130.777775,88.856347 L130.428171,86.3142836 L127.404362,89.0321406 L129.877378,84.3746011 L127.055552,86.4900772 L128.256743,82.8714265 C128.256743,82.8714265 123.973013,82.5972202 119.53214,81.1924583 C117.310315,81.4988075 113.326981,87.5162677 115.770632,92.9365056 C118.214283,98.3567436 121.503568,99.6313467 124.797616,98.8908705 C128.094044,98.151188 133.45952,93.9571405 133.45952,93.9571405 C133.45952,93.9571405 132.05079,96.0607119 133.770632,96.2170611 C135.490473,96.3753944 138.423012,92.9861088 138.423012,92.9861088 C138.423012,92.9861088 138.619838,98.535315 141.376981,100.065077 C144.134917,101.593648 151.696425,98.9333309 151.696425,98.9333309 L153.305155,99.4563467 L152.872218,99.1611086 L155.688885,99.8242039 C155.65198,99.848807 155.617456,99.8714261 155.579361,99.8980134 C153.653171,101.479759 146.532139,104.456347 142.703171,105.613489 C138.877774,106.772616 136.948012,103.846823 133.224997,105.989283 C129.497219,108.131743 123.690473,109.576585 118.910711,102.669442 C119.422616,107.252775 113.428172,108.496426 113.154362,96.687696 C111.949204,102.460315 109.986505,105.200791 108.1996,106.819442 C106.635712,108.236902 101.962299,108.844045 101.300791,105.405156 C100.458331,101.026188 100.705553,96.8071404 102.094442,89.8626962 C100.176585,94.6246008 97.0083309,103.857537 96.3420611,105.538489 C95.0837278,108.711902 94.7154738,111.108331 97.1555531,112.747616 C100.042061,114.690473 103.200394,113.775791 109.829362,112.304362 C114.821029,111.197219 117.230156,110.740473 122.350394,110.861108 C127.471029,110.985712 125.005552,117.270632 117.411505,119.804362 C132.78452,118.652378 131.385314,111.859918 156.847615,100.931744 C156.847615,100.931744 157.007933,100.542855 157.07698,100.151188 L157.538885,100.260315 C157.538885,100.260315 161.204758,99.7551562 162.495234,98.944442 C163.786107,98.1333309 165.440472,98.8559499 167.119043,99.7345213 C168.795631,100.610712 169.955154,99.9769816 170.764281,99.073807 C171.574202,98.1714261 172.774996,97.8460293 171.730154,97.0412674 C174.149599,97.6571404 175.700789,97.603569 178.97817,95.4095214 C182.259916,93.2170612 183.299202,95.1325373 185.240075,95.6583309 C187.181345,96.1821405 190.215075,95.6071405 189.958329,93.7420611 C196.00436,93.5432516 197.900789,93.7587278 198.234122,91.6527755 C191.638884,93.5103151 189.809519,92.6539659 189.659916,91.5670612 C189.420233,90.9666644 189.664281,90.4587279 189.664281,90.4587279 C189.664281,90.4587279 187.221821,91.9551564 186.465472,92.4809501 C186.432932,93.7531723 187.143646,94.3928548 187.143646,94.3928548 C187.143646,94.3928548 185.976186,94.9769818 185.271027,92.8555532 C187.137297,91.3337279 188.242852,91.076585 189.831344,89.8019819 C190.638884,87.367855 192.8869,84.8432518 192.802773,83.4813471 C192.81309,83.4706328 192.822217,83.4650773 192.832138,83.4551566 C192.688884,81.6781726 192.301979,78.8976171 189.717456,79.1587282 C186.851186,79.4464266 186.512694,80.0198393 185.072614,80.1122996 C183.633329,80.2047599 182.631741,79.709125 178.957138,77.893252 C175.281742,76.0765854 160.701186,68.1607126 158.892853,64.0817444 C157.086107,60.0039668 155.56706,57.9960303 159.623012,53.5329352 C163.678964,49.0710305 167.429361,44.6472211 168.653964,43.7416656 C169.880154,42.8349196 172.004361,42.4349196 173.445234,41.6035704 C174.888885,40.7734117 176.272218,39.52738 177.861503,38.9916657 C179.449599,38.457499 181.134916,38.6492451 182.518646,38.1400387 C183.90317,37.6348403 183.771821,37.4409514 183.771821,37.4409514 C183.771821,37.4409514 180.622218,34.9170626 179.59444,32.7373008 C180.586503,32.387777 180.36071,29.2528564 179.59444,28.1984914 C181.652376,30.3408723 184.473408,35.7595626 185.955154,36.7167451 C187.436503,37.6742451 188.109916,41.0674593 187.539678,42.2003958 C190.31944,46.565475 190.626979,51.0611098 190.200392,52.49484 C189.773805,53.921824 188.757138,54.0615066 188.150392,52.6706336 C187.540868,51.2761892 185.571027,49.0138877 184.873408,48.4777766 C185.733726,52.4749987 184.885313,54.5960304 183.806741,55.0619034 C182.730551,55.5261891 181.90198,54.7948399 181.19444,53.4162685 C180.48571,52.0361098 179.709916,48.6587289 178.282932,48.8543639 C176.71944,51.8154749 175.257932,54.0206336 177.649996,57.0674589 C180.040075,60.1186493 186.376186,66.9496015 189.805948,69.2246014 C189.798805,66.1630936 190.165471,65.0591254 190.978963,64.9460301 C191.795233,64.834919 193.448805,66.294046 194.256741,68.3999983 C195.065868,70.5059506 195.450392,73.3023791 195.450392,73.3023791 C195.450392,73.3023791 197.461106,72.8166648 197.726186,76.2611092 C197.02936,79.7460298 196.434916,83.9630931 196.171424,85.5190455 C197.776582,87.1059502 199.805154,89.3857121 199.924201,90.7369025 L199.924201,90.7369025 Z" id="path16" fill="#231F20"></path>
                        <path d="M193.760709,83.41349 C193.715868,82.3396805 193.776186,79.6888869 195.376979,78.8003949 C196.659122,78.4444425 195.617059,83.2710297 195.288884,84.6742042 C194.81944,84.2392836 194.456344,83.9261884 194.299598,83.8051566 C194.092455,83.6448392 193.918646,83.51349 193.760709,83.41349" id="path18" fill="#D41042"></path>
                        <path d="M167.163885,97.0357119 C168.182535,97.1746007 166.271424,98.1091245 166.271424,98.1091245 C166.271424,98.1091245 170.377774,97.0162674 170.365869,96.1746008 C169.333329,96.2107119 169.771028,95.621823 169.597218,95.1178548 C169.423408,94.6138865 168.974202,94.3595215 168.974202,94.3595215 L169.659123,94.0543627 L169.966266,93.2730135 L169.357535,92.617458 L167.815075,92.724204 L167.378964,93.3122993 L167.782139,93.9956326 C167.782139,93.9956326 167.125393,94.508331 166.166266,94.3238072 C165.511504,94.8353151 164.811107,95.7773786 161.39444,94.3476167 C160.915869,94.6238072 163.672615,96.5654738 167.163885,97.0357119" id="path20" fill="#231F20"></path>
                        <path d="M171.896821,93.035712 C176.983329,91.2511882 183.026186,87.1781724 183.057138,86.6460296 C183.088091,86.1138867 181.999202,85.7365058 181.619837,85.9992042 C181.210313,86.7956328 179.049599,89.2023787 171.896821,93.035712" id="path22" fill="#231F20"></path>
                        <path d="M158.599202,92.524204 C163.909917,91.8841247 174.783726,88.7142835 177.261107,87.1079343 C177.598805,86.5329343 176.931742,85.4654741 176.174202,85.9900772 C175.415869,86.5170613 169.325789,89.7837279 158.599202,92.524204" id="path24" fill="#231F20"></path>
                        <path d="M154.683329,83.8785693 C164.377774,86.4507915 169.730948,86.1380931 176.020234,84.3226169 C176.733329,84.2253947 176.384123,83.2162678 175.482932,83.4472201 C167.303964,85.099601 166.489282,85.211109 154.683329,83.8785693" id="path26" fill="#231F20"></path>
                        <path d="M126.148806,90.1170612 C125.134918,88.7801565 124.630552,87.3718232 125.348806,85.0559503 C126.440076,84.6948392 126.379362,85.758728 126.379362,85.758728 C126.379362,85.758728 126.457933,88.5960295 127.111108,89.5642835 C126.730552,89.8265851 126.148806,90.1170612 126.148806,90.1170612" id="path28" fill="#231F20"></path>
                        <path d="M163.903171,62.0226175 C168.092853,61.548808 170.684916,60.7710302 171.67817,59.6849191 C172.670631,58.5988081 173.16944,56.9460303 173.798805,55.4884907 C174.428964,54.0293637 176.448408,49.847221 177.2369,48.7876972 C173.760313,48.422221 172.788091,48.1321417 172.70198,47.5115067 C170.824202,48.1928559 170.982139,48.5924591 170.982139,48.5924591 C170.982139,48.5924591 171.963488,51.2023797 171.596821,52.3103162 C171.230948,53.4142844 170.557535,54.5619034 169.176186,54.3305542 C167.796028,54.0976177 167.079758,54.9329351 167.384916,55.6337288 C167.687297,56.3293637 167.991266,57.0246017 167.991266,57.0246017 C167.991266,57.0246017 166.506345,57.5480144 165.282536,57.7166652 C165.527774,58.7369033 165.336107,59.6059509 164.75317,59.8980144 C164.170234,60.1904747 163.474202,59.6527763 163.903171,62.0226175" id="path30" fill="#D41042"></path>
                        <path d="M183.178964,76.1507917 C184.309122,73.2888871 184.826186,70.0138871 184.947218,68.6257919 C185.068249,67.2365063 185.664678,67.0499983 186.197614,68.6650776 C186.731741,70.280157 186.74444,75.6603156 186.684122,76.7246013 C186.622614,77.7884901 185.806741,77.9003949 185.079757,77.8948393 C184.35317,77.8904742 182.872218,76.9333314 183.178964,76.1507917" id="path32" fill="#FFFFFF"></path>
                        <path d="M187.425789,76.8345219 C187.544837,75.4464267 187.663884,74.7964267 187.592456,74.2785696 C189.078567,73.7567442 190.417852,73.6789664 191.956344,74.3099188 C193.496821,74.9424584 194.311106,74.8325378 194.892852,74.5400775 C194.935313,75.5896806 194.250789,75.8964267 194.250789,75.8964267 C194.250789,75.8964267 189.623805,76.2142838 187.425789,76.8345219" id="path34" fill="#FFFFFF"></path>
                        <path d="M191.583329,72.3559506 C192.732535,72.4099188 193.605154,72.7119029 193.865471,73.098014 C193.291265,70.4337284 192.641265,68.7289665 192.295233,67.7222205 C191.947614,66.7134904 191.074202,67.1488078 191.448805,68.3650777 C191.824202,69.5785697 191.583329,72.3559506 191.583329,72.3559506" id="path36" fill="#FFFFFF"></path>
                        <path d="M160.005948,61.6063477 C159.023012,59.7369033 158.996821,58.7904747 159.012694,58.1543636 C159.027774,57.5214271 160.594044,54.5599193 162.182932,53.2853161 C163.772615,52.0126971 168.172218,49.2956337 169.236901,48.7269829 C169.738885,50.8746019 170.038488,53.049205 168.394837,53.1726177 C167.570234,51.7007924 165.764678,52.1615066 165.386107,52.4230146 C165.35198,53.6940463 166.238885,54.099205 165.917456,54.7785701 C165.594837,55.4527764 165.216266,55.7198399 163.791266,55.9130938 C162.363488,56.1103161 162.348805,56.0067446 161.769044,56.3007922 C163.208329,56.2091256 163.657932,56.4619034 163.467456,57.3297605 C163.274996,58.2023795 162.895631,58.4658716 162.372218,58.4337287 C161.730552,59.048808 161.248409,59.3246017 160.871425,58.8480144 C160.128964,59.4789668 161.155155,60.9198397 161.155155,60.9198397 L160.005948,61.6063477" id="path38" fill="#FFFFFF"></path>
                        <path d="M175.714678,46.7805544 C178.917456,45.9182528 180.592059,46.0043639 182.117853,51.06984 C183.64444,56.1408716 183.847614,51.5738082 183.574995,50.3440464 C183.301186,49.1138877 182.714678,45.6063481 182.020234,44.3281735 C181.923408,42.8650783 180.933329,43.2130942 179.360313,43.8531735 C177.7869,44.4892846 174.715869,45.5468243 174.361107,46.7551576 C174.869837,47.4238083 175.714678,46.7805544 175.714678,46.7805544" id="path40" fill="#FFFFFF"></path>
                        <path d="M183.587694,45.9091258 C183.240075,44.9015862 182.777773,43.8031735 182.720234,43.3888878 C183.538884,42.5392847 184.860313,43.0948402 185.149995,43.688491 C185.438487,44.2833322 184.605948,45.7694433 183.587694,45.9091258" id="path42" fill="#FFFFFF"></path>
                        <path d="M187.924202,50.272221 C186.827376,48.6515861 185.849202,48.0261893 185.400392,47.7698401 C185.28571,46.9400782 185.257535,46.7353163 185.257535,46.7353163 C185.257535,46.7353163 186.948011,45.4464274 187.286503,44.1345227 C189.343249,47.0150782 189.235313,49.2484115 189.087297,50.4301575 C188.936503,51.6111098 188.446424,51.04484 187.924202,50.272221" id="path44" fill="#FFFFFF"></path>
                        <path d="M144.998806,69.7790459 C145.288092,69.6323792 145.571425,69.4683792 145.847219,69.2857126 C145.571425,69.4683792 145.288092,69.6310459 144.998806,69.7790459" id="path46" fill="#FFF200"></path>
                        <path d="M142.149996,69.9412681 L142.149996,69.939535 C143.11706,69.8979405 144.054758,69.7254969 144.937298,69.4412681 C144.054758,69.72723 143.117457,69.8996737 142.149996,69.9412681" id="path48" fill="#FFF200"></path>
                        <path d="M161.562694,44.5718243 C165.317456,41.931745 165.317456,41.931745 168.086901,40.081745 C167.484123,36.3440864 163.316663,28.5515866 160.520631,25.2388883 C157.080155,31.8638484 147.472615,29.5207135 145.648806,25.7690073 C142.914679,20.1457138 159.964679,6.79361094 139.114679,2.47938486 C141.010711,13.8642457 140.40952,16.1638091 135.147616,16.5959916 C126.220632,17.3290075 124.955552,27.8059914 117.626584,47.574602 C123.866267,36.3321419 129.805949,29.1483723 136.155155,39.8626974 C135.294441,35.6308721 133.774203,30.9999595 129.409124,26.5028168 C143.694838,16.0531345 136.155155,38.2753562 150.682933,40.8813482 C145.162298,36.5313483 145.687298,31.2062691 148.228965,31.2802373 C157.606345,31.7305151 162.127377,40.0376974 161.562694,44.5718243" id="path50" fill="#D41042"></path>
                        <path d="M136.832536,78.2515853 C138.905949,78.9257917 140.305949,79.8075377 140.280155,81.0821408 C144.042457,80.1579345 148.82579,78.9888869 151.486901,75.6519822 C148.652377,73.4742045 147.394838,70.1634903 147.431742,68.8932522 C141.898012,70.5829347 131.763886,69.9055538 128.019044,63.196427 C124.273806,56.4904748 124.851584,55.7861097 119.368251,54.1496018 C125.257933,58.4801573 121.044838,59.2166652 116.253965,59.1845223 C111.469838,59.1503953 106.242854,47.1424591 92.5563469,45.4789671 C78.7892837,43.8079354 69.9198395,35.6880943 58.9301573,37.6650784 C66.2686491,38.0110705 66.9932523,45.8357131 63.6337286,48.4761893 C58.1630938,52.9591257 41.2095228,50.7579352 19.770436,38.4595228 C44.4912687,61.957935 80.8488075,64.4694428 92.7246009,63.1912683 C104.598807,61.914681 109.627378,66.5591253 104.868648,68.2122999 C100.106347,69.8650776 92.2753945,73.8023791 87.9706327,72.4420617 C96.9599182,76.170633 100.852775,76.3146806 105.867458,74.8416648 C110.88214,73.3698394 116.977378,73.0265855 121.601187,74.9801569 C124.757933,76.313887 131.357536,77.7670615 136.832536,78.2515853" id="path52" fill="#D41042"></path>
                        <path d="M156.847615,100.931744 C131.385314,111.859918 132.78452,118.652378 117.411505,119.804362 C125.005552,117.270632 127.471029,110.985712 122.350394,110.861108 C117.230156,110.740473 114.821029,111.197219 109.829362,112.304362 C103.200394,113.775791 100.042061,114.690473 97.1555531,112.747616 C94.7154738,111.108331 95.0837278,108.711902 96.3420611,105.538489 C97.0083309,103.857537 100.176585,94.6246008 102.094442,89.8626962 C100.705553,96.8071404 100.458331,101.026188 101.300791,105.405156 C101.962299,108.844045 106.635712,108.236902 108.1996,106.819442 C109.986505,105.200791 111.949204,102.460315 113.154362,96.687696 C113.428172,108.496426 119.422616,107.252775 118.910711,102.669442 C123.690473,109.576585 129.497219,108.131743 133.224997,105.989283 C136.948012,103.846823 138.877774,106.772616 142.703171,105.613489 C146.532139,104.456347 153.653171,101.479759 155.579361,99.8980134 C157.96071,98.2361087 156.847615,100.931744 156.847615,100.931744" id="path54" fill="#D41042"></path>
                    </g>
                </g>
            </g>
        </g>
    </g>
</svg>