<?xml version="1.0" encoding="UTF-8"?>
<svg width="200px" height="200px" viewBox="0 0 200 200" version="1.1" xmlns="http://www.w3.org/2000/svg" xmlns:xlink="http://www.w3.org/1999/xlink">
    <!-- Generator: Sketch 63.1 (92452) - https://sketch.com -->
    <title>alfred-st</title>
    <desc>Created with Sketch.</desc>
    <defs>
        <polygon id="path-1" points="0 0.240618956 199.846809 0.240618956 199.846809 129.5706 0 129.5706"></polygon>
    </defs>
    <g id="alfred-st" stroke="none" stroke-width="1" fill="none" fill-rule="evenodd">
        <g id="alfred-st_BGL">
            <g id="alfred-st-copy" transform="translate(0.000000, 35.000000)">
                <path d="M169.589168,121.06383 L169.559768,121.065377 C169.559768,121.065377 169.110251,120.506383 169.391103,118.899033 C169.652998,117.397292 169.818182,115.044874 170.890135,115.082785 C172.112186,114.404642 173.441393,115.06499 173.454932,112.837524 C173.463443,111.391103 172.520696,110.024758 172.051451,108.656093 C171.059961,105.761702 170.345068,102.683946 169.134623,99.8765957 C168.570986,98.5694391 168.788395,98.1508704 167.362089,97.4054159 C164.82089,96.0758221 165.463056,97.4642166 164.580271,95.0444874 C163.354739,91.6820116 163.408124,87.2816248 162.948162,83.6978723 C165.488588,87.3988395 169.352031,91.4804642 170.988008,95.7071567 C172.548936,99.7415861 172.825145,104.101741 174.689362,108.103675 C175.458414,109.754739 176.852998,111.535783 177.065377,113.349323 C177.226692,114.726499 176.226306,116.0294 176.567118,117.400387 C176.675435,117.837911 176.789555,118.237524 176.877756,118.628627 C176.878917,118.632495 176.885493,118.637911 176.885493,118.640232 C177.091296,119.442166 177.371373,120.270406 177.517602,120.976015 C176.312573,120.982205 169.589168,121.06383 169.589168,121.06383 L169.589168,121.06383 Z M168.195358,115.411992 C167.682398,117.04294 166.911799,118.677369 166.165184,120.258414 C165.838298,120.95087 165.503288,121.664217 165.192263,122.370213 L136.14236,122.675822 C136.297872,122.347776 136.310638,121.914507 136.319536,121.487814 C136.326112,121.213926 136.335783,120.753578 136.415861,120.646809 C136.554352,120.50677 137.030948,120.466151 137.41354,120.433269 C138.039458,120.379884 138.686267,120.324565 139.052998,119.87118 C139.565184,119.237137 139.473501,118.210445 139.382979,117.217408 C139.317988,116.503288 139.251064,115.763636 139.430561,115.342747 C139.832882,114.399226 140.675822,113.430948 141.490909,112.495551 C141.894004,112.032882 142.273501,111.596132 142.596132,111.167892 L147.344681,104.871567 C147.494004,104.673888 147.772921,104.3706 148.068472,104.049516 C149.132689,102.893617 149.953965,101.948549 150.052611,101.180658 C150.107544,100.74971 149.85029,100.190716 149.623985,99.6970986 C149.550097,99.5350097 149.479304,99.3810445 149.445648,99.2843327 L148.298646,95.9779497 C148.100967,95.4073501 147.84294,94.805029 147.570213,94.1678917 C147.015861,92.8704062 146.441779,91.5288201 146.33617,90.3636364 C146.268859,89.617795 146.527273,88.6475822 146.817021,87.7183752 C147.488588,88.8696325 148.28588,90.0352031 149.205416,91.1775629 C150.094391,92.2820116 151.028627,93.2812379 151.976015,94.1609284 C154.360155,96.7179884 157.336944,98.8564797 160.223985,100.929594 C161.082012,101.545455 161.892456,102.128046 162.69323,102.723404 C162.962089,102.924178 163.22824,103.104836 163.486267,103.280077 C164.351644,103.868472 165.098646,104.376402 165.47234,105.294391 C165.834816,106.184139 166.107157,107.160155 166.3706,108.105222 C166.503288,108.578723 166.640232,109.068472 166.78646,109.54236 C166.933849,110.018182 167.132689,110.526112 167.344681,111.064603 C167.92147,112.535397 168.575629,114.201934 168.195358,115.411992 L168.195358,115.411992 Z M134.830174,105.364023 L133.716441,106.691683 C132.935397,107.624758 132.153191,108.556673 131.373308,109.491683 C130.535783,110.495551 129.843714,111.611605 129.174855,112.690909 C128.779497,113.326886 128.37176,113.985687 127.941973,114.606963 C126.762863,116.308704 125.533462,118.32882 124.346228,119.986074 C123.743907,120.824758 123.210445,121.775629 122.611605,122.617408 C122.569439,122.677756 122.544681,122.747002 122.535397,122.818182 L91.3783366,123.145068 C91.4162476,123.085493 91.4471954,123.016634 91.4704062,122.940812 C91.4851064,122.894004 91.4843327,122.89942 91.6088975,122.624758 C91.8932302,121.999613 92.0793037,120.519923 92.1357834,119.685493 C92.1489362,119.495164 92.1729207,118.648743 92.1489362,118.286267 C92.1226306,117.897099 92.0704062,117.104836 92.1524178,116.870406 C92.3945841,116.738878 93.2978723,116.637911 93.6924565,116.594197 C93.9806576,116.561315 94.2088975,116.536557 94.3640232,116.504836 C94.4951644,116.476596 94.6088975,116.393424 94.673501,116.275048 C94.7384913,116.157447 94.749323,116.017021 94.701354,115.890909 C94.3767892,115.031721 94.0135397,114.153965 93.6622824,113.305222 C92.9117988,111.496325 92.1369439,109.625532 91.6719536,107.769826 C91.3988395,106.680464 91.2437137,105.509865 91.0943907,104.378337 C91.0185687,103.809671 90.9408124,103.221277 90.8483559,102.650677 L90.3075435,99.2947776 C90.2827853,99.1377176 90.2297872,98.9373308 90.1682785,98.703675 C90.083559,98.3829787 89.8870406,97.632882 89.9512573,97.4386847 C90.2189555,96.9686654 93.0348162,96.2746615 94.3883946,95.9411992 C95.2642166,95.7253385 96.0205029,95.539265 96.4584139,95.3787234 C98.2994197,94.7021277 100.303675,94.3965184 102.24294,94.1009671 L102.976015,93.9883946 C104.888588,93.6912959 106.905609,93.4769826 108.854932,93.2688588 C112.760155,92.8537718 116.796905,92.4243714 120.511412,91.3021277 C122.25648,90.7752418 123.923791,89.8847195 125.53617,89.0232108 C126.041393,88.7539652 126.541586,88.4858801 127.039458,88.232882 C127.281625,88.1102515 127.494004,87.9980658 127.683172,87.9005803 C128.238685,87.6092843 128.639845,87.3988395 128.798839,87.4247582 C128.948936,87.450677 129.229787,87.7733075 129.618956,88.2181818 L129.883172,88.5199226 L137.210832,96.8352031 C137.324565,96.9659574 137.440619,97.0889749 137.552031,97.2081238 C137.961315,97.6460348 138.285106,97.9914894 138.386847,98.4874275 C138.585687,99.4468085 138.42824,100.82205 138.035203,101.552805 C137.559768,102.437524 136.742747,103.300193 135.952805,104.133462 C135.550097,104.557834 135.170213,104.958221 134.830174,105.364023 L134.830174,105.364023 Z M63.5481625,89.8800774 C66.2750484,89.9040619 66.6646035,90.3794971 70.6251451,91.055706 C66.022824,91.9767892 64.2727273,93.7775629 59.6553191,94.4808511 C59.7651838,95.6491296 60.6321083,96.9032882 61.4475822,98.9071567 C62.1589942,100.65648 62.9369439,102.199613 63.4955513,103.586074 C64.3319149,103.536944 65.7226306,103.603868 66.837911,104.118375 C67.2475822,104.234816 67.6367505,104.463056 67.9883946,104.894004 C68.5837524,105.62205 68.6970986,106.927273 68.6878143,108.152418 C68.6851064,108.905996 68.6340426,109.636364 68.6154739,110.187234 C68.103675,110.094391 65.7887814,110.008124 64.5705996,109.8 C63.5535783,109.708704 62.6967118,109.596132 62.5059961,109.454932 C61.2170213,108.500193 61.1373308,105.988395 60.4359768,104.119536 C60.0135397,102.995358 59.4502901,101.924565 58.855706,100.86499 C56.9686654,99.0947776 55.1783366,97.4800774 54.7825919,96.3628627 C52.3179884,89.3957447 55.093617,89.8452611 60.2208897,87.4862669 C65.3675048,85.1191489 72.1338491,80.7976789 77.549323,79.2313346 C83.3299807,77.5609284 83.5555126,79.2135397 88.8166344,83.4011605 C82.3500967,85.2386847 70.0274662,86.2495164 63.5481625,89.8800774 L63.5481625,89.8800774 Z M46.8054159,53.7883946 C46.8054159,53.7883946 51.2673114,53.8321083 58.9044487,52.1137331 C66.9547389,50.3040619 67.9601547,46.6348162 67.9601547,46.6348162 L69.3953578,48.8789168 C72.1744681,44.6940039 69.6642166,40.4649903 69.6642166,40.4649903 C69.6642166,40.4649903 71.4568665,41.5350097 72.7125725,45.4170213 C73.9678917,49.2982592 71.5914894,52.4185687 71.5914894,52.4185687 L69.4843327,50.1497099 C69.4843327,50.1497099 69.445648,52.0947776 65.5555126,53.4839458 C59.2970986,55.7187621 46.8054159,53.7883946 46.8054159,53.7883946 L46.8054159,53.7883946 Z M44.8932302,51.5056093 C47.9682785,50.7628627 50.3454545,50.0920696 51.440619,47.5868472 C55.2622824,38.8471954 57.0955513,39.4990329 57.9632495,41.6108317 L55.5520309,42.670793 L55.8437137,43.9400387 L53.2274662,47.1500967 L57.3249516,44.8955513 L56.8746615,43.506383 L58.3775629,43.1206963 C58.5976789,44.2615087 58.7145068,45.4847195 58.7145068,45.4847195 C58.7145068,45.4847195 55.3141199,46.6011605 52.1667311,49.4042553 C49.0932302,52.1415861 44.387234,51.6282398 44.8932302,51.5056093 L44.8932302,51.5056093 Z M39.5129594,48.4119923 C37.9133462,48.3984526 35.1558994,49.415087 34.8572534,47.4912959 C34.5129594,45.2731141 33.8661509,44.0394584 34.4448743,43.8015474 C34.4483559,43.8 34.4529981,43.7976789 34.4572534,43.7957447 C34.6410058,44.7094778 35.3980658,45.3740812 36.0912959,45.331528 C36.9926499,45.2762089 38.7965184,42.7918762 37.6224371,42.4270793 C34.9052224,41.5806576 36.7911025,39.6661509 35.8897485,39.7206963 C35.187234,39.7636364 34.8572534,41.5852998 34.473501,41.6522244 C34.3423598,41.526499 34.2804642,40.9454545 34.3582205,40.3647969 C34.5137331,39.2023211 34.9740812,38.8394584 35.3477756,38.5961315 C35.9319149,38.215087 37.1017408,38.6514507 37.9288201,38.7694391 C39.9098646,39.2529981 41.9381044,39.0526112 44.4309478,39.0375242 C44.5957447,39.0359768 44.7481625,39.0595745 44.8951644,39.0951644 C45.1253385,39.1798839 45.3512573,39.2854932 45.5609284,39.3988395 C46.4781431,40.0622824 46.888588,41.5129594 46.9141199,42.6471954 C46.9481625,44.1713733 46.8858801,48.3346228 45.3551257,49.010058 C43.8251451,49.6862669 41.1133462,48.4259188 39.5129594,48.4119923 L39.5129594,48.4119923 Z M28.6251451,22.0398453 C25.9458414,19.6410058 22.8947776,12.4603482 18.9957447,8.6212766 C16.4940039,6.15628627 10.2015474,5.81547389 10.2015474,5.81547389 C10.2015474,5.81547389 14.9369439,3.31876209 18.7682785,4.22282398 C24.2270793,5.51218569 28.4270793,11.9141199 31.1268859,13.8522244 C34.0839458,15.9748549 39.3500967,16.1187621 39.3500967,16.1187621 C39.3500967,16.1187621 38.577176,17.9373308 38.4618956,19.5172147 C38.4537718,20.5311412 38.405029,21.5957447 38.1388781,22.8232108 C37.8119923,24.3330754 37.4433269,24.6324952 37.4433269,24.6324952 C37.4433269,24.6324952 31.1644101,24.3145068 28.6251451,22.0398453 L28.6251451,22.0398453 Z M42.301354,15.7384913 C43.8131528,15.3767892 44.3381044,15.250677 47.929207,14.832882 C49.7234043,14.6251451 55.4181818,14.1373308 55.4595745,15.2800774 C55.559381,18.0263056 50.1787234,28.7411992 47.1988395,30.2967118 C45.9764023,30.9346228 44.554352,31.0889749 44.554352,31.0889749 C44.554352,31.0889749 45.1210832,32.2800774 46.4321083,32.3257253 L45.3764023,35.9094778 C43.8270793,36.1427466 41.9675048,36.3914894 41.055706,36.3914894 C40.0638298,36.3914894 38.9245648,35.805029 38.1497099,35.4499033 C38.6464217,33.6615087 39.860735,30.7288201 39.860735,30.7288201 C39.860735,30.7288201 37.8232108,29.4847195 38.6603482,27.8982592 C39.4970986,26.311412 40.3698259,22.9156673 40.6796905,21.6030948 C40.9841393,20.3079304 40.8452611,16.0862669 42.301354,15.7384913 L42.301354,15.7384913 Z M57.4216634,24.0259188 C57.4216634,24.0259188 56.6212766,24.9992263 56.3972921,26.4139265 C56.4901354,28.3191489 57.1288201,29.994971 56.1833656,31.4943907 C54.6243714,33.9655706 50.2239845,33.3825919 50.2239845,33.3825919 L52.4413926,30.3346228 C52.4413926,30.3346228 53.9883946,31.0286267 54.7276596,30.1411992 C55.5473888,29.1586074 54.8769826,26.9647969 54.8769826,26.9647969 L56.9582205,23.0038685 L57.4216634,24.0259188 Z M64.9106383,16.172147 C67.1195358,15.9226306 70.2789168,15.3609284 72.4371373,14.0990329 C75.7539652,12.1613153 80.9145068,5.75976789 87.6216634,4.47117988 C92.3288201,3.56595745 98.1481625,6.06305609 98.1481625,6.06305609 C98.1481625,6.06305609 90.4166344,6.40386847 87.3415861,8.86847195 C82.5512573,12.7083172 78.8019342,19.8889749 75.511412,22.2874275 C73.0526112,24.0796905 67.7454545,24.6572534 65.6034816,24.8212766 C64.777176,24.15706 63.7531915,22.8762089 63.5922631,20.529207 C63.5818182,20.3794971 63.5798839,20.2394584 63.5779497,20.0990329 C63.5411992,17.8816248 64.440619,16.6564797 64.9106383,16.172147 L64.9106383,16.172147 Z M75.4375242,29.0796905 L81.8015474,31.339265 L81.8015474,31.5930368 C81.8015474,31.7454545 81.7481625,35.3303675 77.0796905,36.9489362 C76.6398453,37.1021277 76.116441,37.270793 75.5644101,37.3717602 C74.8912959,37.4947776 74.2061896,37.5462282 73.5334623,37.5462282 C70.4998066,37.5462282 67.7075435,36.5087041 67.3377176,36.3663443 L65.5717602,35.6839458 L67.4649903,35.6688588 C67.5191489,35.6680851 72.984913,35.6112186 76.050677,34.4158607 C77.3930368,33.8897485 78.1218569,33.3090909 78.5152805,32.8568665 L75.4375242,29.0796905 Z M139.12766,74.5052224 C139.12766,74.5052224 139.49942,70.7512573 142.92766,68.840619 C146.354739,66.9303675 148.318762,67.3516441 148.318762,67.3516441 C148.318762,67.3516441 143.779884,68.6839458 142.99381,73.4526112 L145.475822,72.812766 C145.475822,72.812766 143.778723,76.0553191 148.260735,82.6058027 C152.512186,88.8197292 155.682012,91.7137331 155.682012,91.7137331 C155.682012,91.7137331 145.621277,84.8870406 142.67853,79.2112186 C140.850677,75.683559 142.098646,74.2882012 142.098646,74.2882012 L139.12766,74.5052224 Z M96.0711799,32.1647969 L93.2460348,35.3717602 C93.2460348,35.3717602 104.516828,41.0982592 113.246422,43.139265 C114.439072,43.4181818 115.818569,43.6870406 117.310638,43.9439072 C122.039072,44.4789168 127.07234,44.6870406 131.952418,45.0808511 C131.847195,44.9767892 131.781818,44.9129594 131.755899,44.8866538 C131.781818,44.9129594 131.847195,44.9767892 131.952418,45.0808511 C134.252611,45.2673114 136.489749,45.4800774 138.791876,45.8352031 C141.148936,46.1887814 143.410832,46.6526112 145.512573,47.2994197 C149.834816,48.4974855 153.747776,50.2471954 156.552418,52.7972921 C156.597679,52.8382979 156.642553,52.8804642 156.688975,52.9234043 C156.827079,53.0510638 156.962863,53.1818182 157.095938,53.3141199 C157.223985,53.4417795 157.34971,53.5713733 157.471954,53.7032882 C157.526886,53.7624758 157.582205,53.8216634 157.63559,53.8820116 C157.80735,54.0711799 157.972147,54.2642166 158.131528,54.4622824 C158.143907,54.4769826 158.155513,54.4924565 158.167505,54.5075435 C158.347776,54.7334623 158.520309,54.9651838 158.685106,55.2023211 C163.839458,62.6363636 163.630948,71.5678917 162.996132,76.4808511 C163.051838,77.1330754 163.114507,77.7841393 163.198453,78.432882 C163.209671,78.5245648 163.224371,78.6166344 163.237137,78.7087041 C163.224371,78.6166344 163.209671,78.5245648 163.197679,78.432882 C163.112959,77.789942 163.049903,77.1450677 162.99381,76.4982592 C162.706383,78.7094778 162.334623,80.1029014 162.329207,80.1713733 C162.329207,80.1713733 159.46383,66.2201161 151.199226,57.4030948 C148.46499,54.4870406 143.003868,52.2882012 136.824758,50.6947776 C137.137718,51.0947776 137.136557,51.0947776 136.824758,50.6947776 C125.545455,47.9326886 102.544294,48.4359768 102.544294,48.4359768 L105.656093,43.5690522 L80.3411992,38.6553191 L88.5117988,32.2410058 L80.7992263,25.3690522 L96.0711799,32.1647969 Z M163.408897,79.9369439 C163.422437,80.0452611 163.437137,80.1547389 163.447582,80.2626692 C163.452998,80.316441 163.455706,80.372147 163.460735,80.4270793 C163.455706,80.372147 163.452998,80.3172147 163.447582,80.2626692 C163.437137,80.1547389 163.422437,80.0452611 163.408897,79.9369439 C163.400774,79.8750484 163.39381,79.8139265 163.386074,79.7497099 C163.358221,79.5512573 163.328433,79.3477756 163.295551,79.1361702 C163.294391,79.1257253 163.292843,79.1179884 163.291683,79.1087041 C163.287427,79.0765957 163.283172,79.04294 163.278143,79.010058 C163.284333,79.0522244 163.290522,79.0940039 163.295551,79.1361702 C163.328433,79.3477756 163.358221,79.5512573 163.386074,79.7497099 C163.39381,79.8139265 163.400774,79.8750484 163.408897,79.9369439 L163.408897,79.9369439 Z M163.486267,80.794971 C163.494004,80.9767892 163.497099,81.1636364 163.490522,81.3605416 L163.490522,81.3613153 C163.497099,81.1644101 163.494004,80.9775629 163.486267,80.794971 C163.48472,80.7597679 163.482785,80.7272727 163.479304,80.693617 C163.482785,80.7272727 163.48472,80.7597679 163.486267,80.794971 L163.486267,80.794971 Z M181.6294,73.1071567 C182.940426,73.154352 183.538491,73.4073501 183.618182,73.4673114 C183.616248,73.4669246 183.676983,73.5504836 183.673501,73.7566731 C183.64913,75.3791103 184.380271,76.8104449 185.845261,78.010058 C185.911025,78.0638298 185.979884,78.1121857 186.046809,78.1644101 C186.284333,78.3466151 186.526112,78.5179884 186.774855,78.673501 C186.306383,78.5945841 185.533075,78.4568665 184.638685,78.260735 C182.724178,77.8410058 180.269632,77.1613153 179.144294,76.2572534 C177.803482,75.1798839 177.447195,74.2905222 177.415861,73.6796905 C178.253385,73.3628627 179.868859,73.04294 181.6294,73.1071567 L181.6294,73.1071567 Z M180.509478,122.210445 C180.370986,121.736944 180.205029,121.24294 180.031721,120.72882 C179.553191,119.312186 179.058801,117.847969 179.086267,116.626692 C179.094004,116.229787 179.280077,115.804642 179.476209,115.354739 C179.738878,114.753578 180.010058,114.132302 179.923017,113.443714 C179.783752,112.365184 179.088588,111.134623 178.476596,110.049516 C178.254545,109.656093 178.044101,109.283559 177.886654,108.962089 C176.554352,106.247195 175.513733,103.391876 174.511799,99.7040619 C174.354352,99.1234043 174.224758,98.5245648 174.088975,97.8897485 C173.753191,96.3323017 173.40735,94.7218569 172.602708,93.3675048 C171.729594,91.898646 170.709478,90.4781431 169.723017,89.1052224 C169.237137,88.4290135 168.73501,87.7295938 168.262282,87.0398453 C168.045648,86.7257253 167.818182,86.4286267 167.597292,86.1408124 C166.834043,85.1446809 166.437911,84.2808511 166.289362,83.1176015 C166.109865,81.7029014 166.360542,80.5462282 166.691296,79.3075435 C168.062282,74.1613153 167.441779,57.068472 157.011605,48.6274662 C158.478917,47.7965184 160.847969,46.9934236 163.411605,46.9934236 C164.257253,46.9934236 165.19381,47.1059961 166.237911,47.3740812 C172.533462,48.9883946 172.751257,56.0340426 172.394584,64.3868472 L172.361702,65.1408124 C172.246809,67.7311412 172.156673,69.777176 172.593037,71.1678917 C172.790716,71.7992263 173.015474,72.2994197 173.25648,72.7059961 C173.252611,72.7168279 173.247195,72.7257253 173.243714,72.7357834 C172.923017,73.640619 173.206963,74.9740812 174.133075,76.1148936 C175.59381,77.9106383 178.037137,79.2317215 181.721083,80.3810445 C188.066925,82.3601547 193.496712,79.4286267 193.496712,79.4286267 C193.496712,79.4286267 189.373694,77.5806576 188.318375,76.7048356 C187.664217,76.1628627 187.339652,75.4352031 187.353965,74.5427466 C187.374468,73.1141199 186.179497,71.8413926 184.196905,71.1400387 C184.024758,71.0789168 183.846422,71.0224371 183.662669,70.9698259 C181.315667,70.3059961 177.773308,70.4313346 175.467698,71.1779497 C175.389555,70.9752418 175.320309,70.7709865 175.265377,70.5729207 C174.933075,69.3659574 175.029787,67.1048356 175.14236,64.4862669 C175.443714,57.3980658 176.534623,46.3005803 166.924952,44.2576402 C160.716441,42.9377176 155.801547,44.3191489 153.001161,45.9976789 C151.523404,45.2286267 150.390716,44.8878143 148.604642,44.4591876 C141.216634,42.683559 122.833269,41.194971 116.798453,40.1756286 C110.550097,39.1210832 103.729981,35.8139265 99.0487427,32.7485493 L100.5706,30.7613153 C100.5706,30.7613153 84.0019342,22.9009671 81.4820116,21.673501 C83.4220503,18.865764 85.8970986,14.3117988 88.9257253,10.9911025 C93.4905222,5.9868472 102.712573,7.1245648 102.712573,7.1245648 C102.712573,7.1245648 95.7261122,2.72688588 90.7891683,2.57524178 C86.6669246,2.44951644 80.4348162,3.58878143 74.5798839,9.0959381 C71.7996132,11.7102515 68.5106383,12.7230174 65.7056093,13.0410058 C61.0224371,11.622824 55.4468085,10.8297872 50.6069632,11.3922631 C46.2588008,11.898646 34.5009671,14.762089 29.3829787,8.84796905 C24.6181818,3.34197292 19.5454545,2.20077369 16.1911025,2.32765957 C12.1725338,2.47930368 6.48588008,6.87698259 6.48588008,6.87698259 C6.48588008,6.87698259 13.9926499,5.73965184 17.7071567,10.7431335 C21.7574468,16.1996132 23.0143133,21.8889749 26.7295938,24.7694391 C29.3102515,26.7713733 33.6096712,28.040619 35.9941973,28.6294004 C35.994971,28.7168279 35.9976789,28.8034816 36.0054159,28.8874275 C36.0862669,29.7636364 36.8235977,30.3098646 37.3056093,30.5775629 C37.0715667,31.4897485 36.3748549,34.1087041 36.2847195,34.6874275 C36.2603482,34.8471954 36.131528,35.3303675 36.103675,35.4970986 C33.7353965,35.6417795 32.3075435,36.5802708 31.9284333,38.4371373 C31.6270793,39.911412 31.9079304,41.055706 32.0162476,41.3450677 C31.6943907,41.9640232 31.3446809,42.3353965 31.3636364,44.0011605 C31.3694391,44.5187621 31.4854932,45.1725338 31.5319149,45.8116054 C31.5992263,46.7408124 31.6634429,47.6174081 31.8220503,48.3531915 C31.8800774,48.6212766 31.9470019,48.8564797 32.0266925,49.0742747 C32.0758221,49.2081238 32.134236,49.3408124 32.1980658,49.4700193 C32.2742747,49.6205029 32.3586074,49.7659574 32.4522244,49.9032882 C32.5829787,50.0959381 32.739265,50.2839458 32.9183752,50.4626692 L32.9446809,50.4897485 C32.9694391,50.5145068 32.9938104,50.539265 33.0205029,50.5647969 C33.0970986,50.6359768 33.1787234,50.7056093 33.2661509,50.7740812 C33.4464217,50.9148936 33.64294,51.0437137 33.8514507,51.1566731 C34.0742747,51.2765957 34.3145068,51.3818182 34.5667311,51.4676983 C34.8054159,51.5497099 35.0711799,51.6189555 35.3675048,51.6750484 C35.384913,51.6789168 35.4030948,51.6827853 35.4208897,51.6858801 C35.5419729,51.7079304 35.9152805,51.7558994 36.2545455,51.7435203 C36.268472,51.7574468 36.405029,52.688588 37.4394584,53.8305609 C39.1489362,55.7160542 43.6189555,53.6386847 52.3470019,56.3346228 C55.0154739,57.159381 57.0665377,58.0119923 58.6487427,58.8212766 C58.6603482,58.8711799 58.6700193,58.92147 58.6804642,58.972147 C57.9508704,60.6901354 56.9145068,63.9922631 57.0854932,68.6243714 C57.2131528,72.0649903 60.7744681,78.1756286 62.5578337,81.0324952 C60.8742747,82.0027079 58.4916828,83.344294 58.3141199,83.4394584 C58.1729207,83.5156673 58.0495164,83.582205 57.9632495,83.6348162 C57.0104449,84.1965184 56.0154739,84.7346228 55.0537718,85.2553191 C54.5624758,85.5206963 54.0719536,85.784913 53.5852998,86.0545455 C53.2851064,86.2201161 52.8282398,86.4189555 52.344294,86.6294004 C51.068472,87.1845261 49.6224371,87.8139265 49.0448743,88.6170213 C48.4924565,89.384913 48.5748549,91.0317215 48.6413926,92.3547389 C48.6622824,92.7733075 48.6804642,93.1346228 48.6731141,93.3868472 C48.6216634,95.2715667 49.0112186,96.5953578 49.7489362,98.3794971 C50.1415861,99.3261122 54.9880077,104.082012 55.0649903,104.424758 C55.4058027,105.921083 56.3152805,107.834429 57.1682785,109.254932 C59.5357834,113.200774 59.4390716,114.923017 62.7678917,113.20619 C63.0390716,113.06499 63.3017408,112.90677 63.5551257,112.753965 C64.1775629,112.37795 64.7647969,112.022824 65.3829787,111.999226 C65.8700193,111.979497 66.4580271,112.11528 67.0266925,112.247195 C67.3237911,112.31528 67.6034816,112.380658 67.8762089,112.425145 L71.8727273,113.09942 C72.0170213,113.112959 72.159381,113.079304 72.2638298,112.980658 C72.3678917,112.882012 72.4208897,112.740039 72.4054159,112.596518 C72.3640232,112.196132 72.3249516,111.788781 72.2858801,111.37795 C71.9423598,107.762089 71.5531915,103.66499 68.377176,101.169826 L68.2464217,101.067311 C67.782205,100.700193 67.4386847,100.443327 66.8208897,100.276983 C66.506383,100.193037 66.5555126,100.225532 66.1775629,100.199613 C65.9470019,100.183752 64.5226306,100.83675 64.4185687,100.774855 C64.0162476,100.509091 63.9531915,100.133075 63.6232108,99.3539652 C63.5504836,99.182205 63.1199226,97.9117988 63.0545455,97.7632495 C63.8348162,97.5907157 70.0793037,95.2487427 72.0831721,93.9914894 C73.6034816,95.8622824 74.7825919,97.2576402 75.0154739,97.3984526 C76.0011605,97.9996132 76.9323017,98.5682785 77.4990329,99.5427466 L83.0943907,109.169052 C83.594971,110.029787 83.7752418,110.372921 83.911412,111.264603 C83.954352,111.550484 84.0239845,111.878917 84.0978723,112.227079 C84.2978723,113.171373 84.5470019,114.345841 84.3272727,114.988395 C84.0309478,115.853385 83.1601547,116.846809 82.3930368,117.722631 C82.0104449,118.159768 81.6491296,118.572534 81.3624758,118.960542 L78.8827853,122.668859 C78.8166344,122.758221 78.4839458,123.142747 78.270793,123.450677 L10.939265,126.702515 L13.3110251,127.516441 L192.535783,127.516441 L183.899807,122.174081 L180.509478,122.210445 L180.509478,122.210445 Z" id="Fill-1" fill="#003C68"></path>
                <path d="M171.129981,115.125338 C172.280077,115.329594 176.716441,118.196905 176.878143,118.628627 C176.789555,118.237524 176.675048,117.838685 176.567118,117.401161 C176.227079,116.0294 177.225532,114.726886 177.06499,113.349323 C176.852998,111.535783 175.458801,109.755513 174.689362,108.103675 C172.825145,104.102515 172.548936,99.7408124 170.988008,95.7067698 C169.352031,91.4804642 165.487427,87.3988395 162.949323,83.6978723 C163.407737,87.2823985 163.354739,91.6820116 164.580271,95.0448743 C165.462669,97.4646035 164.82089,96.0765957 167.362089,97.4061896 C168.788008,98.1516441 168.57176,98.5690522 169.134623,99.8765957 C170.343907,102.683946 171.060348,105.761702 172.051451,108.655319 C172.520696,110.024758 173.463443,111.391876 173.454932,112.837911 C173.442166,115.06499 172.112186,114.404255 170.890135,115.082785 C170.895551,115.083559 170.90058,115.081625 170.906383,115.081625 C170.977563,115.085493 171.04913,115.111025 171.129981,115.125338" id="Fill-2" fill="#0089BC"></path>
                <path d="M67.9891683,104.970213 C68.5725338,105.682785 68.6916828,106.94971 68.6870406,108.152418 C68.6978723,106.927273 68.5845261,105.622437 67.9891683,104.894004 C67.6371373,104.463056 67.2475822,104.234816 66.8382979,104.117602 C67.2843327,104.323791 67.6866538,104.600387 67.9891683,104.970213" id="Fill-3" fill="#0089BC"></path>
                <path d="M142.679691,79.2112186 C145.621277,84.8870406 155.682012,91.7137331 155.682012,91.7137331 C155.682012,91.7137331 152.512186,88.8205029 148.260735,82.6054159 C143.778723,76.0553191 145.475822,72.812766 145.475822,72.812766 L142.99381,73.4526112 C143.779884,68.6847195 148.318762,67.3516441 148.318762,67.3516441 C148.318762,67.3516441 146.354739,66.9303675 142.927273,68.840619 C139.499033,70.7508704 139.12766,74.5052224 139.12766,74.5052224 L142.097872,74.2889749 C142.097872,74.2889749 140.850677,75.683559 142.679691,79.2112186" id="Fill-4" fill="#FBCD20"></path>
                <path d="M64.1052224,107.840232 C64.015087,108.130754 63.8839458,108.4147 63.7087041,108.69207 C63.6189555,108.958607 63.6452611,109.184913 63.9601547,109.418182 C64.0669246,109.497485 64.2336557,109.741973 64.5705996,109.8 C65.7887814,110.008511 68.103675,110.094391 68.6154739,110.187234 C68.6340426,109.63559 68.6851064,108.90677 68.6878143,108.152418 C68.6912959,106.94971 68.5725338,105.682785 67.9883946,104.969439 C67.6862669,104.600387 67.2843327,104.323791 66.837911,104.117602 C65.7230174,103.603095 64.3319149,103.536944 63.4955513,103.586074 C63.8711799,104.519149 64.1458414,105.379497 64.2355899,106.184139 C64.410058,106.885106 64.2843327,107.415474 64.1052224,107.840232" id="Fill-5" fill="#FFFFFE"></path>
                <path d="M176.878143,118.628627 C176.716441,118.196905 172.280077,115.329594 171.129981,115.126112 C171.049516,115.111025 170.977563,115.085493 170.906383,115.081625 C170.90058,115.080851 170.895551,115.082785 170.890135,115.082785 C169.818182,115.044874 169.653772,117.398066 169.391876,118.899033 C169.111025,120.506383 169.559768,121.064603 169.559768,121.064603 L169.589555,121.06383 C169.589555,121.06383 176.312959,120.982205 177.516828,120.976015 C177.37176,120.270019 177.091296,119.442166 176.886267,118.640232 C176.885493,118.637524 176.879691,118.632108 176.878143,118.628627" id="Fill-6" fill="#FFFFFE"></path>
                <path d="M77.5497099,79.2313346 C72.1338491,80.7969052 65.3678917,85.1191489 60.2208897,87.4862669 C55.093617,89.8452611 52.3179884,89.3957447 54.7829787,96.3628627 C55.1783366,97.4800774 56.9686654,99.0947776 58.855706,100.86499 C59.450677,101.924565 60.0135397,102.995358 60.4359768,104.119536 C61.1373308,105.988395 61.2170213,108.500193 62.5059961,109.454932 C62.6967118,109.596132 63.5535783,109.708704 64.5705996,109.8 C64.2336557,109.742747 63.9806576,109.675435 63.8742747,109.596132 C63.5249516,109.337331 63.5369439,109.073114 63.6700193,108.749323 C63.683559,108.730368 63.6955513,108.711412 63.7094778,108.691296 C63.8839458,108.414313 64.015087,108.131141 64.1052224,107.840232 C64.1133462,107.815474 64.1195358,107.790716 64.126499,107.765184 C64.2661509,107.381431 64.3524178,106.923791 64.2522244,106.362089 C64.2471954,106.303288 64.2421663,106.243327 64.2355899,106.183752 C64.1462282,105.379884 63.8711799,104.519149 63.4955513,103.586074 C62.9369439,102.199613 62.1589942,100.65648 61.4475822,98.9071567 C60.6321083,96.9025145 59.7651838,95.6491296 59.6553191,94.4808511 C64.2727273,93.7775629 66.0232108,91.9767892 70.6251451,91.055706 C66.6646035,90.3794971 66.2754352,89.9040619 63.5481625,89.8800774 C70.0274662,86.2495164 82.3500967,85.2386847 88.8174081,83.4011605 C83.5558994,79.2131528 83.3303675,77.5609284 77.5497099,79.2313346" id="Fill-7" fill="#0089BC"></path>
                <path d="M88.5117988,32.2410058 L80.3411992,38.6553191 L105.656093,43.5690522 L102.544294,48.4359768 C102.544294,48.4359768 125.545455,47.9326886 136.824758,50.6947776 C143.003868,52.2882012 148.46499,54.4870406 151.199226,57.4030948 C159.46383,66.2193424 162.329207,80.1713733 162.329207,80.1713733 C162.334623,80.1029014 162.706383,78.7087041 162.99381,76.4982592 C162.995358,76.4924565 162.995358,76.4866538 162.996132,76.4808511 C163.630948,71.5678917 163.839458,62.6371373 158.685106,55.2015474 C158.520309,54.9655706 158.347776,54.7334623 158.167505,54.5075435 C158.155513,54.4924565 158.143907,54.4773694 158.131528,54.4622824 C157.972147,54.2642166 157.80735,54.0711799 157.63559,53.8820116 C157.582205,53.8216634 157.526886,53.7624758 157.471954,53.7032882 C157.34971,53.5713733 157.223985,53.4421663 157.095938,53.3141199 C156.962863,53.1818182 156.827466,53.0510638 156.688975,52.9226306 C156.642553,52.8804642 156.597679,52.8390716 156.552418,52.7972921 C153.744294,50.2603482 149.862282,48.4042553 145.494778,47.2135397 C143.116828,46.5655706 140.940812,46.1655706 138.791876,45.8352031 C136.489749,45.4800774 134.252611,45.2665377 131.952418,45.0808511 C127.07234,44.6870406 122.039072,44.4789168 117.310638,43.9435203 C115.818569,43.6870406 114.439072,43.4181818 113.246422,43.139265 C104.516828,41.0982592 93.2460348,35.3717602 93.2460348,35.3717602 L96.0711799,32.1644101 L80.7996132,25.3690522 L88.5117988,32.2410058" id="Fill-8" fill="#0089BC"></path>
                <path d="M179.144681,76.2572534 C180.269632,77.1613153 182.724565,77.8417795 184.639458,78.260735 C185.156286,78.2804642 185.6294,78.2460348 186.047969,78.1636364 C185.979884,78.1129594 185.910638,78.0642166 185.845261,78.0104449 C184.380271,76.8104449 183.649516,75.3783366 183.673888,73.7566731 C183.676983,73.5497099 183.616248,73.4669246 183.618956,73.4673114 C183.539652,73.4065764 182.940426,73.154352 181.629787,73.106383 C179.868472,73.0421663 178.252611,73.3628627 177.415861,73.6793037 C177.447195,74.2905222 177.802708,75.1798839 179.144681,76.2572534" id="Fill-9" fill="#FFFFFE"></path>
                <path d="M58.7145068,45.4847195 C58.7145068,45.4847195 58.5976789,44.2622824 58.3775629,43.1206963 L56.8746615,43.5059961 L57.3249516,44.8955513 L53.2274662,47.1500967 L55.8437137,43.9408124 L55.5520309,42.670793 L57.9632495,41.6112186 C57.0955513,39.4990329 55.2622824,38.8468085 51.440619,47.5860735 C50.3454545,50.0920696 47.9682785,50.7628627 44.8932302,51.5056093 C44.387234,51.6282398 49.0932302,52.1408124 52.1667311,49.4038685 C55.3141199,46.6003868 58.7145068,45.4847195 58.7145068,45.4847195" id="Fill-10" fill="#FFFFFE"></path>
                <path d="M43.3098646,45.4924565 C42.549323,45.4042553 41.3052224,43.9574468 41.3485493,43.1628627 C41.3450677,43.1079304 41.3462282,43.0553191 41.3531915,43.0054159 C41.3288201,42.6897485 41.450677,42.4471954 41.8077369,42.3733075 C43.1825919,42.0897485 43.5415861,41.5288201 43.6131528,41.0061896 C43.5984526,40.782205 43.5644101,40.5876209 43.5818182,40.4533849 C43.5794971,40.4085106 43.5806576,40.3675048 43.5845261,40.3311412 C43.5806576,40.2746615 43.5818182,40.2235977 43.5880077,40.1806576 C43.5764023,39.9516441 43.6201161,39.8135397 43.9017408,39.8471954 C44.8135397,39.9566731 45.4479691,41.0827853 45.4232108,42.4359768 C45.4243714,42.4680851 45.4193424,42.5032882 45.4201161,42.5353965 C45.4201161,42.5384913 45.4201161,42.5411992 45.4201161,42.5435203 C45.4255319,42.7206963 45.4201161,42.9025145 45.3992263,43.0882012 C45.2394584,44.531528 44.3040619,45.6073501 43.3098646,45.4924565 M46.9141199,42.6471954 C46.888588,41.5121857 46.4777563,40.0622824 45.5609284,39.3988395 C45.3520309,39.2854932 45.1249516,39.1798839 44.8951644,39.0951644 C44.7481625,39.0591876 44.5957447,39.0355899 44.4309478,39.0375242 C41.9384913,39.0526112 39.9098646,39.2529981 37.929207,38.7694391 C37.1017408,38.6514507 35.931528,38.215087 35.3477756,38.5953578 C34.9736944,38.8390716 34.5137331,39.2023211 34.3582205,40.3647969 C34.2804642,40.9458414 34.3423598,41.526499 34.473501,41.6518375 C34.8572534,41.5856867 35.187234,39.7636364 35.8897485,39.7206963 C36.7907157,39.6661509 34.9052224,41.5806576 37.6220503,42.4270793 C38.7957447,42.7918762 36.9926499,45.2762089 36.0912959,45.331528 C35.3980658,45.3740812 34.6410058,44.7094778 34.4572534,43.7957447 C34.4529981,43.7976789 34.4483559,43.8 34.4452611,43.8015474 C33.8661509,44.0394584 34.5133462,45.2738878 34.8572534,47.4905222 C35.1558994,49.415087 37.9133462,48.3984526 39.5137331,48.4119923 C41.1133462,48.4255319 43.8251451,49.6862669 45.3558994,49.0108317 C46.8866538,48.3346228 46.9485493,44.1713733 46.9141199,42.6471954" id="Fill-11" fill="#FFFFFE"></path>
                <path d="M45.4201161,42.5435203 C45.4201161,42.5411992 45.4201161,42.5384913 45.4201161,42.5353965 C45.4193424,42.5032882 45.4243714,42.4680851 45.4232108,42.4359768 C45.4475822,41.0827853 44.8135397,39.9566731 43.9021277,39.8471954 C43.6201161,39.8135397 43.5764023,39.9516441 43.5880077,40.1806576 C43.5818182,40.2235977 43.5810445,40.2746615 43.5845261,40.3311412 C43.5806576,40.3675048 43.5791103,40.4085106 43.5818182,40.4533849 C43.5640232,40.5876209 43.5984526,40.782205 43.6131528,41.0061896 C43.5415861,41.5288201 43.1825919,42.0897485 41.8081238,42.3733075 C41.4510638,42.4471954 41.3288201,42.6897485 41.3531915,43.0054159 C41.3462282,43.0553191 41.3450677,43.1079304 41.3485493,43.1628627 C41.3056093,43.9574468 42.549323,45.4042553 43.3098646,45.4924565 C44.3032882,45.6073501 45.2398453,44.531528 45.3996132,43.0882012 C45.4201161,42.9025145 45.4255319,42.72147 45.4201161,42.5435203" id="Fill-12" fill="#003C68"></path>
                <path d="M54.8769826,26.9640232 C54.8769826,26.9640232 55.5470019,29.1589942 54.7280464,30.1419729 C53.9883946,31.0286267 52.4413926,30.3338491 52.4413926,30.3338491 L50.2243714,33.3825919 C50.2243714,33.3825919 54.6243714,33.9655706 56.1833656,31.4943907 C57.1288201,29.9957447 56.4901354,28.3191489 56.3972921,26.4143133 C56.6212766,24.9992263 57.4216634,24.0251451 57.4216634,24.0251451 L56.9582205,23.0034816 L55.4317215,25.9102515 L54.8769826,26.9640232" id="Fill-13" fill="#FFFFFE"></path>
                <path d="M39.860735,30.7295938 C39.860735,30.7295938 38.6468085,33.6615087 38.1500967,35.4499033 C38.9245648,35.8058027 40.0638298,36.3914894 41.055706,36.3914894 C41.9675048,36.3914894 43.8270793,36.1427466 45.3756286,35.9094778 L46.4321083,32.3257253 C45.1210832,32.2800774 44.554352,31.0889749 44.554352,31.0889749 C44.554352,31.0889749 45.9760155,30.9338491 47.1988395,30.2967118 C50.1787234,28.7411992 55.5586074,18.0263056 55.4595745,15.2808511 C55.4181818,14.1373308 49.7237911,14.6243714 47.929207,14.832882 C44.3373308,15.250677 43.8131528,15.3760155 42.301354,15.7384913 C40.8448743,16.0862669 40.9841393,20.3079304 40.6796905,21.6030948 C40.3698259,22.9156673 39.4970986,26.311412 38.6603482,27.8982592 C37.8239845,29.4847195 39.860735,30.7295938 39.860735,30.7295938" id="Fill-14" fill="#0089BC"></path>
                <path d="M76.050677,34.4154739 C72.984913,35.6112186 67.5191489,35.6688588 67.4649903,35.6696325 L65.5717602,35.6839458 L67.3377176,36.3663443 C67.7075435,36.5094778 70.4998066,37.5466151 73.5334623,37.5462283 C74.2061896,37.5462283 74.8912959,37.4951644 75.5644101,37.3717602 C76.116441,37.270793 76.6398453,37.1021277 77.0796905,36.9489362 C81.7473888,35.3303675 81.8015474,31.7454545 81.8015474,31.5938104 L81.8015474,31.3384913 L75.4375242,29.0796905 L78.5152805,32.8572534 C78.1218569,33.3090909 77.3930368,33.8905222 76.050677,34.4154739" id="Fill-15" fill="#FBCD20"></path>
                <path d="M69.4847195,50.1489362 L71.5914894,52.4185687 C71.5914894,52.4185687 73.9678917,49.2982592 72.7125725,45.4162476 C71.4576402,41.5350097 69.6642166,40.4653772 69.6642166,40.4653772 C69.6642166,40.4653772 72.1744681,44.6940039 69.3945841,48.8796905 L67.9601547,46.6348162 C67.9601547,46.6348162 66.954352,50.3032882 58.9040619,52.1145068 C51.2673114,53.8321083 46.8058027,53.7883946 46.8058027,53.7883946 C46.8058027,53.7883946 59.2970986,55.7179884 65.5555126,53.4839458 C69.445648,52.0947776 69.4847195,50.1489362 69.4847195,50.1489362" id="Fill-16" fill="#FBCD20"></path>
                <path d="M38.1388781,22.8224371 C38.405029,21.5957447 38.4541586,20.5311412 38.4618956,19.5172147 C38.455706,19.6116054 38.4502901,19.7059961 38.4483559,19.7984526 C38.4483559,19.7984526 31.0998066,19.2212766 28.4537718,16.4882012 C25.9535783,13.9040619 23.8882012,10.6773694 19.6205029,7.25106383 C16.1709865,4.4827853 10.2011605,5.81624758 10.2011605,5.81624758 C10.2011605,5.81624758 16.4940039,6.15705996 18.9957447,8.6205029 C22.8951644,12.4611219 25.9462282,19.6417795 28.6251451,22.040619 C31.1647969,24.3145068 37.4433269,24.6332689 37.4433269,24.6332689 C37.4433269,24.6332689 37.8112186,24.3334623 38.1388781,22.8224371" id="Fill-17" fill="#FFFFFE"></path>
                <path d="M19.6205029,7.25183752 C23.8882012,10.6773694 25.9535783,13.9040619 28.4545455,16.4874275 C31.1001934,19.2212766 38.4483559,19.7980658 38.4483559,19.7980658 C38.4502901,19.7059961 38.455706,19.6116054 38.4618956,19.5172147 C38.5767892,17.9373308 39.3500967,16.1187621 39.3500967,16.1187621 C39.3500967,16.1187621 34.083559,15.9748549 31.126499,13.8522244 C28.427853,11.9141199 24.2270793,5.51218569 18.7682785,4.22359768 C14.9373308,3.31953578 10.2011605,5.81547389 10.2011605,5.81547389 C10.2011605,5.81547389 16.1705996,4.48201161 19.6205029,7.25183752" id="Fill-18" fill="#0089BC"></path>
                <path d="M65.6034816,24.8212766 C67.7458414,24.6572534 73.0526112,24.0796905 75.511412,22.2874275 C78.8027079,19.8889749 82.5516441,12.7083172 87.3423598,8.86847195 C90.4162476,6.40386847 98.1481625,6.06305609 98.1481625,6.06305609 C98.1481625,6.06305609 90.8131528,4.72959381 86.5740812,7.49903288 C81.3311412,10.9249516 78.8889749,14.126499 75.8247582,16.7191489 C72.516441,19.5195358 64.8692456,20.0313346 63.5775629,20.0990329 C63.5802708,20.2394584 63.582205,20.3794971 63.5922631,20.529207 C63.7539652,22.8762089 64.777176,24.15706 65.6034816,24.8212766" id="Fill-19" fill="#FFFFFE"></path>
                <g id="Group-23">
                    <mask id="mask-2" fill="white">
                        <use xlink:href="#path-1"></use>
                    </mask>
                    <g id="Clip-21"></g>
                    <path d="M86.5740812,7.49903288 C90.8135397,4.72959381 98.1481625,6.06305609 98.1481625,6.06305609 C98.1481625,6.06305609 92.3288201,3.56634429 87.6216634,4.47117988 C80.9145068,5.75976789 75.7539652,12.1613153 72.4371373,14.0990329 C70.2789168,15.3609284 67.1195358,15.9226306 64.9106383,16.172147 C64.440619,16.6564797 63.5411992,17.8816248 63.5779497,20.0990329 C64.8692456,20.0313346 72.5156673,19.5195358 75.8247582,16.7191489 C78.8893617,14.126499 81.3311412,10.9249516 86.5740812,7.49903288" id="Fill-20" fill="#0089BC" mask="url(#mask-2)"></path>
                    <path d="M141.394197,116.045261 C141.703288,115.416634 142.420116,114.592263 143.058027,113.860348 C143.494004,113.358607 143.89323,112.90058 144.256093,112.418569 L149.003868,106.123791 C149.091683,106.00619 149.383752,105.689362 149.597679,105.456867 C150.960155,103.977563 151.937718,102.824371 152.114507,101.443714 C152.244874,100.423211 151.82205,99.5021277 151.513733,98.8305609 C151.462669,98.72147 151.423211,98.6375242 151.398839,98.5744681 L150.316054,95.4541586 C150.379497,95.5141199 150.44294,95.5736944 150.507157,95.6332689 C153.027079,98.3210832 156.069632,100.505609 159.012766,102.617408 C159.870793,103.234043 160.670019,103.808124 161.451838,104.390716 C161.761315,104.621277 162.05764,104.822437 162.317988,104.998839 C163.015861,105.473501 163.417408,105.75706 163.547776,106.07853 C163.864603,106.85764 164.121857,107.776015 164.369439,108.664217 C164.497485,109.122631 164.642553,109.643714 164.801934,110.156673 C164.970986,110.70677 165.184526,111.24913 165.409671,111.822824 C165.745841,112.682398 166.372534,114.278917 166.212379,114.788781 C165.743907,116.281625 165.005416,117.847195 164.290909,119.360928 C164.145455,119.67118 163.995745,119.988008 163.847969,120.305996 L141.077369,120.545455 C141.665377,119.379497 141.545068,118.046422 141.452611,117.029787 C141.425919,116.738878 141.383752,116.270793 141.394197,116.045261 M92.296325,98.6471954 C92.9176015,98.4611219 93.7818182,98.2313346 94.8851064,97.9589942 C95.8595745,97.7195358 96.6286267,97.5303675 97.1748549,97.329207 C98.8208897,96.7245648 100.719536,96.4355899 102.556286,96.1555126 L103.29207,96.0425532 C105.161702,95.7520309 107.15087,95.5408124 109.074275,95.3353965 C113.075048,94.9110251 117.211605,94.470793 121.112959,93.2920696 C123.058414,92.703675 124.815474,91.7647969 126.515667,90.8560928 L126.569052,90.8282398 C127.043327,90.5748549 127.514507,90.3234043 127.982205,90.0854932 C128.105609,90.0224371 128.222824,89.9624758 128.332689,89.9048356 L135.651838,98.2096712 C135.776789,98.3524178 135.904836,98.4893617 136.027853,98.6212766 C136.146615,98.7485493 136.296712,98.9079304 136.369052,99 C136.450677,99.5388781 136.333849,100.323791 136.205416,100.568279 C135.859961,101.210445 135.140812,101.969439 134.444874,102.702901 C134.00735,103.164797 133.61354,103.581818 133.237137,104.030174 L132.125338,105.357834 L132.081238,105.410058 C131.312186,106.325725 130.544294,107.242166 129.778337,108.159768 C128.844874,109.277369 128.114894,110.455706 127.408511,111.596132 L127.389942,111.625145 C127.015087,112.229787 126.626306,112.854932 126.233656,113.423211 C125.692843,114.203868 125.141199,115.05029 124.608511,115.868472 C123.960928,116.863056 123.290909,117.891683 122.657253,118.774855 C122.315667,119.251064 122.005803,119.740426 121.705996,120.21354 C121.589942,120.398453 121.475822,120.577563 121.362863,120.752031 L94.0862669,121.038298 C94.162089,120.467698 94.1972921,119.997679 94.2092843,119.825145 C94.2216634,119.650677 94.2402321,119.099807 94.2367505,118.623985 C94.44294,118.598839 94.6185687,118.574081 94.7864603,118.538878 C95.5121857,118.388781 96.1353965,117.929207 96.4943907,117.278143 C96.8533849,116.624758 96.9083172,115.852611 96.645648,115.157447 C96.3129594,114.274275 95.9458414,113.389168 95.5911025,112.532689 C94.8603482,110.769439 94.1152805,108.9706 93.6878143,107.26383 C93.4433269,106.290522 93.296325,105.180271 93.154352,104.106383 L93.1485493,104.061509 C93.0731141,103.49207 92.9941973,102.904062 92.9001934,102.319149 L92.3597679,98.9640232 C92.3423598,98.8599613 92.32147,98.7535783 92.296325,98.6471954 M16.6777563,0.240618956 L16.6777563,0.240618956 C16.4851064,0.240618956 16.2970986,0.24410058 16.1121857,0.250676983 C9.75203095,0.240618956 1.14158607,8.83094778 1.14158607,8.83094778 C1.14158607,8.83094778 13.1764023,7.52727273 16.0382979,11.9825919 C17.668472,14.1783366 18.8193424,16.4166344 19.9323017,18.5814313 C21.4920696,21.615087 22.9647969,24.4808511 25.455706,26.4123791 C27.8518375,28.270793 31.377176,29.534236 34.2731141,30.3280464 C34.4425532,30.6947776 34.6731141,31.0371373 34.9566731,31.3520309 C34.6928433,32.3717602 34.503675,33.1203095 34.3814313,33.6448743 C31.1427466,34.3845261 30.1767892,36.6294004 29.8920696,38.0208897 C29.6580271,39.167118 29.6827853,40.2394584 29.8158607,41.0638298 C29.4974855,41.7373308 29.268472,42.5504836 29.2854932,44.0247582 C29.2901354,44.4348162 29.339265,44.8499033 29.3860735,45.2526112 C29.4135397,45.4847195 29.4417795,45.7241779 29.4591876,45.962089 C29.5323017,46.9659574 29.6011605,47.9137331 29.7911025,48.7926499 C29.8692456,49.1558994 29.9624758,49.483559 30.0769826,49.7918762 C30.1512573,49.9961315 30.240619,50.2007737 30.3400387,50.4 C30.4580271,50.6355899 30.5895551,50.8599613 30.7338491,51.0711799 C30.9361702,51.3705996 31.1775629,51.6603482 31.4499033,51.9326886 L31.4580271,51.9411992 C31.5001934,51.9845261 31.549323,52.0340426 31.6023211,52.0839458 C31.7249516,52.1972921 31.8502901,52.3044487 31.9829787,52.4096712 C32.255706,52.6224371 32.5508704,52.8158607 32.8618956,52.9841393 C33.1852998,53.1601547 33.5326886,53.3110251 33.8920696,53.4336557 C34.1717602,53.5299807 34.4742747,53.6123791 34.794971,53.6796905 C35.0827853,54.212766 35.4537718,54.7326886 35.9001934,55.2255319 C37.2912959,56.7605416 39.2251451,56.7980658 41.6738878,56.8452611 C44.0529981,56.8909091 47.311412,56.954352 51.7334623,58.3206963 C53.3446809,58.8185687 54.812766,59.3547389 56.116441,59.9237911 C55.440619,62.0541586 54.8719536,64.9969052 55.0088975,68.701354 C55.1253385,71.8375242 57.4085106,76.4468085 59.673501,80.2870406 C58.4870406,80.9609284 57.4355899,81.5528046 57.3249516,81.6123791 C57.1589942,81.7017408 57.0104449,81.7829787 56.9048356,81.8448743 C55.9887814,82.3864603 55.0119923,82.9141199 54.0673114,83.4255319 L54.0108317,83.4560928 C53.5330754,83.7152805 53.0541586,83.9729207 52.5794971,84.2359768 C52.3675048,84.3531915 51.939265,84.5400387 51.5257253,84.7195358 C49.9945841,85.3852998 48.2688588,86.1350097 47.3574468,87.4034816 C46.3810445,88.762089 46.4789168,90.7249516 46.5655706,92.4568665 C46.5833656,92.8077369 46.6011605,93.1597679 46.5961315,93.329207 C46.5346228,95.5752418 47.0019342,97.1729207 47.8294004,99.1736944 C48.154352,99.9601547 49.0317215,100.959381 51.6820116,103.762863 C52.2069632,104.318762 52.8363636,104.984139 53.1539652,105.34352 C53.7411992,107.488201 54.9941973,109.671954 55.3860735,110.323791 C55.8197292,111.047195 56.1694391,111.699033 56.4796905,112.274275 C57.4951644,114.162863 58.4545455,115.947002 60.7524178,115.947002 C61.6061896,115.947002 62.52147,115.67118 63.7206963,115.052224 C64.0541586,114.880077 64.3586074,114.696325 64.6282398,114.533849 C64.9121857,114.362089 65.3400387,114.103288 65.4974855,114.071954 C65.7090909,114.075435 66.1802708,114.184139 66.5589942,114.27118 C66.8754352,114.344681 67.1988395,114.418569 67.5330754,114.475048 L71.5272727,115.148162 L71.5992263,115.160928 L71.6723404,115.168279 C71.759381,115.175629 71.8471954,115.180271 71.934236,115.180271 C72.5945841,115.180271 73.2174081,114.936944 73.6878143,114.494004 C74.2630561,113.950484 74.5547389,113.160928 74.4727273,112.379884 C74.4313346,111.9853 74.3934236,111.585687 74.3555126,111.182592 C73.9911025,107.350097 73.5384913,102.581044 69.6611219,99.5353965 L69.5326886,99.4348162 C68.972147,98.9918762 68.4305609,98.5988395 67.5764023,98.3323017 C68.9299807,97.7965184 70.3814313,97.1833656 71.5520309,96.622824 C73.3852998,98.8386847 73.6321083,98.9891683 73.9326886,99.1725338 C74.7524178,99.6723404 75.4,100.067311 75.7017408,100.587621 L81.2978723,110.213926 C81.7462282,110.985687 81.7779497,111.062669 81.8564797,111.578337 C81.9079304,111.91528 81.9818182,112.26383 82.0595745,112.632882 C82.1597679,113.108704 82.3528046,114.02089 82.3353965,114.381431 C82.1257253,114.873501 81.3516441,115.758607 80.8321083,116.351644 C80.4189555,116.823211 80.0297872,117.266925 79.6916828,117.724565 L79.6622824,117.763636 L79.6348162,117.804642 L77.2170213,121.42089 L10.8390716,124.627853 L0,125.151257 L10.265764,128.668472 L12.637911,129.482012 L12.9647969,129.59381 L199.846809,129.59381 L184.993037,120.406963 L184.481625,120.090135 L183.87853,120.096325 L182.017795,120.116054 C182.011605,120.09942 182.005803,120.081238 182,120.064217 C181.606576,118.897872 181.164023,117.583366 181.162476,116.726499 C181.195745,116.610832 181.305222,116.358994 181.380271,116.188781 C181.702901,115.448743 182.144681,114.437137 181.984526,113.180271 C181.79381,111.696325 180.992263,110.27853 180.286267,109.027853 C180.074275,108.651451 179.881625,108.311025 179.752418,108.047582 C178.481238,105.456867 177.483559,102.715667 176.517602,99.1605416 C176.376402,98.6371373 176.253772,98.0711799 176.123791,97.470793 C175.766731,95.8123791 175.367505,93.9531915 174.389555,92.3052224 C173.470019,90.7589942 172.423211,89.301354 171.411605,87.8928433 L171.389942,87.8638298 C170.917215,87.2061896 170.429014,86.5253385 169.974468,85.8634429 C169.726112,85.5001934 169.47118,85.1690522 169.246035,84.8758221 C168.681625,84.139265 168.447582,83.6108317 168.352031,82.8560928 C168.227466,81.8777563 168.3706,81.0738878 168.699033,79.84294 C170.148162,74.4085106 169.633656,58.8959381 160.841006,49.3779497 C161.637524,49.1911025 162.510638,49.0723404 163.411605,49.0723404 C164.12882,49.0723404 164.905609,49.1783366 165.72147,49.3868472 C170.096712,50.5090909 170.702901,55.2893617 170.317988,64.2978723 L170.286267,65.0510638 C170.162089,67.8452611 170.064603,70.0510638 170.609284,71.789942 C170.746615,72.2239845 170.897485,72.6224371 171.066151,72.9926499 C170.89942,74.4425532 171.417408,76.0680851 172.520696,77.4251451 C174.225919,79.5218569 176.871954,81.0460348 181.102901,82.3651838 C182.762863,82.8827853 184.503675,83.1458414 186.276983,83.1458414 C190.933849,83.1458414 194.341199,81.3338491 194.484333,81.2568665 L198.190716,79.2549323 L194.347002,77.5319149 C192.480464,76.6951644 190.145841,75.5206963 189.644874,75.1052224 C189.52147,75.0023211 189.427466,74.8978723 189.431721,74.5740812 C189.466925,72.215087 187.769826,70.1988395 184.890522,69.1806576 C184.678143,69.1056093 184.455706,69.0352031 184.228627,68.9705996 C183.047195,68.6359768 181.606576,68.4599613 180.065377,68.4591876 C179.05648,68.4591876 178.058801,68.5334623 177.124565,68.6750484 C177.090909,67.5624758 177.154739,66.0529981 177.217795,64.577176 C177.234429,64.1860735 177.254159,63.7868472 177.273114,63.3767892 C177.60619,56.3245648 178.164797,44.5218569 167.356286,42.2251451 C165.573308,41.8452611 163.788781,41.6537718 162.049903,41.6537718 C157.858801,41.6537718 154.788008,42.7439072 152.943133,43.6634429 C151.734623,43.126499 150.6147,42.8046422 149.090135,42.4386847 C144.352031,41.2998066 135.567892,40.3156673 127.818569,39.4475822 C123.276209,38.9396518 119.353965,38.4994197 117.143907,38.1268859 C111.940039,37.2479691 106.268472,34.6630561 102.091683,32.1930368 L102.220503,32.0243714 L103.781431,29.9845261 L101.460735,28.883559 C101.32147,28.8181818 89.6990329,23.3040619 84.5210832,20.8282398 C84.7183752,20.5183752 84.9179884,20.2003868 85.1222437,19.8773694 C86.6870406,17.3961315 88.4611219,14.5841393 90.460735,12.3914894 C94.3860735,7.80502901 106.881625,8.78994197 106.881625,8.78994197 C106.881625,8.78994197 100.370213,1.09168279 90.8529981,0.49787234 C90.6371373,0.491295938 90.4166344,0.488201161 90.1911025,0.488201161 C86.645648,0.488201161 79.7187621,1.40967118 73.1558994,7.58181818 C71.2224371,9.40154739 68.7752418,10.5245648 65.8793037,10.9241779 C61.911412,9.76673114 57.6754352,9.13230174 53.901354,9.13152805 C52.6762089,9.13152805 51.4866538,9.19729207 50.3663443,9.32843327 C49.739265,9.40154739 49.0034816,9.51489362 48.1516441,9.64603482 C45.949323,9.9860735 42.9323017,10.4514507 39.982205,10.4514507 C35.6932302,10.4514507 32.6560928,9.45377176 30.9547389,7.48820116 C25.4978723,1.18259188 19.6673114,0.240618956 16.6777563,0.240618956 M136.14236,122.675822 L165.192263,122.370213 C165.503675,121.664217 165.838298,120.951257 166.165571,120.258414 C166.911799,118.677369 167.683172,117.043714 168.195358,115.411992 C168.575629,114.202708 167.92147,112.535397 167.344681,111.064603 C167.133462,110.526112 166.933849,110.018182 166.78646,109.54236 C166.640232,109.068472 166.503288,108.578723 166.371373,108.104449 C166.107157,107.160928 165.834816,106.184139 165.47234,105.294004 C165.098646,104.376402 164.352031,103.868472 163.486267,103.280851 C163.2294,103.105609 162.962089,102.923404 162.692843,102.723404 C161.89323,102.127273 161.082012,101.545455 160.223985,100.92882 C157.336944,98.8564797 154.360542,96.7179884 151.976015,94.1609284 C151.028627,93.2812379 150.094391,92.2812379 149.205029,91.1775629 C148.286654,90.0352031 147.488588,88.8700193 146.817021,87.7183752 C146.527273,88.6483559 146.268859,89.617795 146.33617,90.3636364 C146.441779,91.5288201 147.016248,92.8704062 147.570213,94.1678917 C147.84294,94.8058027 148.100967,95.4073501 148.299033,95.9779497 L149.445648,99.2839458 C149.479304,99.3818182 149.550097,99.5350097 149.623985,99.6970986 C149.85029,100.190716 150.107157,100.74971 150.052611,101.181044 C149.955126,101.948549 149.132689,102.893617 148.069632,104.049516 C147.772921,104.3706 147.493617,104.674275 147.344681,104.87234 L142.596132,111.167118 C142.273501,111.596132 141.894004,112.032108 141.490909,112.495551 C140.675822,113.430948 139.832882,114.399226 139.430561,115.341973 C139.251064,115.763636 139.318762,116.502901 139.382979,117.218182 C139.473501,118.210445 139.565184,119.237137 139.052224,119.870793 C138.686267,120.323791 138.039458,120.379884 137.41354,120.433269 C137.030948,120.466151 136.555126,120.507157 136.415861,120.647582 C136.33617,120.753965 136.326112,121.213153 136.319536,121.487814 C136.310638,121.914507 136.297872,122.347776 136.14236,122.675822 M91.3787234,123.144681 L122.534623,122.817795 C122.545455,122.747002 122.568665,122.677756 122.611992,122.617021 C123.210445,121.775629 123.744681,120.824758 124.346228,119.986074 C125.534236,118.329594 126.762863,116.309478 127.941586,114.606963 C128.37176,113.98646 128.780271,113.327273 129.175629,112.690135 C129.843714,111.611605 130.535397,110.496325 131.374081,109.491683 C132.153578,108.557447 132.935397,107.624758 133.716441,106.692456 L134.830174,105.364023 C135.1706,104.958221 135.550097,104.55706 135.952805,104.133462 C136.742747,103.29942 137.559768,102.438298 138.03559,101.552805 C138.42824,100.82205 138.585687,99.4468085 138.387234,98.4874275 C138.28472,97.9914894 137.961315,97.6460348 137.55087,97.2081238 C137.439845,97.0889749 137.325338,96.9651838 137.210832,96.8352031 L129.883172,88.5203095 L129.618956,88.2189555 C129.230948,87.7733075 128.948936,87.4510638 128.798839,87.4255319 C128.790329,87.4243714 128.780271,87.422824 128.769826,87.422824 C128.59381,87.422824 128.206963,87.6259188 127.683172,87.9005803 C127.494004,87.9988395 127.281625,88.1102515 127.039072,88.232882 C126.542747,88.4858801 126.041393,88.7539652 125.53617,89.0232108 C123.923791,89.8847195 122.25648,90.7744681 120.511412,91.3021277 C116.797679,92.4251451 112.759381,92.8545455 108.854932,93.2696325 C106.905609,93.4765957 104.888588,93.6905222 102.976015,93.9883946 L102.243327,94.1009671 C100.304449,94.3965184 98.2990329,94.7021277 96.4588008,95.3787234 C96.0205029,95.539265 95.2638298,95.7257253 94.3880077,95.9415861 C93.0348162,96.2746615 90.2189555,96.9686654 89.9512573,97.4394584 C89.8866538,97.6332689 90.0843327,98.3829787 90.1682785,98.703675 C90.2297872,98.9365571 90.2827853,99.1384913 90.3075435,99.2947776 L90.8487427,102.650677 C90.9408124,103.22089 91.0185687,103.809671 91.0943907,104.378337 C91.2437137,105.509865 91.3988395,106.680464 91.6719536,107.769439 C92.1369439,109.626306 92.9117988,111.496325 93.6622824,113.305996 C94.0139265,114.154739 94.3775629,115.031721 94.701354,115.890909 C94.7489362,116.017021 94.739265,116.157447 94.6742747,116.275435 C94.6085106,116.393424 94.4959381,116.477369 94.3636364,116.504062 C94.2088975,116.536557 93.9802708,116.561315 93.6924565,116.594197 C93.2974855,116.638685 92.3941973,116.738878 92.1524178,116.870019 C92.0700193,117.105609 92.1230174,117.897485 92.1485493,118.28588 C92.1729207,118.64913 92.1485493,119.495164 92.1357834,119.685493 C92.0793037,120.519923 91.8932302,121.999613 91.6088975,122.624758 C91.4843327,122.899033 91.4854932,122.894004 91.4704062,122.941199 C91.4471954,123.016634 91.4158607,123.085493 91.3787234,123.144681 M16.6777563,2.31876209 C20.0243714,2.31876209 24.8433269,3.60232108 29.3829787,8.84796905 C31.8796905,11.7338491 35.9562863,12.529207 39.982205,12.529207 C44.2092843,12.529207 48.3798839,11.6518375 50.6065764,11.3926499 C51.6754352,11.268472 52.7791103,11.2104449 53.901354,11.2104449 C57.8646035,11.2104449 62.0568665,11.9357834 65.7052224,13.0410058 C68.5102515,12.7230174 71.7996132,11.7102515 74.5806576,9.0959381 C80.1582205,3.84912959 86.07853,2.56634429 90.1903288,2.56634429 C90.3945841,2.56634429 90.5938104,2.56943907 90.7891683,2.57601547 C95.7257253,2.72688588 102.712573,7.1245648 102.712573,7.1245648 C102.712573,7.1245648 101.812379,7.0131528 100.434816,7.0131528 C97.4034816,7.0131528 92.0638298,7.55125725 88.9257253,10.9918762 C85.8970986,14.3117988 83.4224371,18.8653772 81.4816248,21.673501 C84.0019342,22.9009671 100.5706,30.7613153 100.5706,30.7613153 L99.0487427,32.749323 C103.729981,35.8139265 110.54971,39.1206963 116.798453,40.1760155 C122.833269,41.194971 141.216634,42.683559 148.604642,44.4591876 C150.390716,44.888588 151.523404,45.2286267 153.001161,45.9976789 C155.020503,44.787234 158.138878,43.7311412 162.049903,43.7311412 C163.562089,43.7311412 165.193424,43.8897485 166.924952,44.2576402 C176.534623,46.3005803 175.444487,57.3980658 175.141973,64.4854932 C175.029787,67.1048356 174.933075,69.3659574 175.265377,70.572147 C175.320309,70.7717602 175.389555,70.9752418 175.467698,71.1787234 C176.756286,70.7609284 178.429014,70.5381044 180.065377,70.5381044 C181.357834,70.5381044 182.625919,70.6769826 183.662669,70.9705996 C183.846035,71.0224371 184.024758,71.0789168 184.197292,71.1396518 C186.179497,71.8413926 187.374468,73.1141199 187.353965,74.5427466 C187.339652,75.4359768 187.66499,76.1628627 188.318375,76.7048356 C189.373694,77.5806576 193.496712,79.4286267 193.496712,79.4286267 C193.496712,79.4286267 190.461122,81.0680851 186.276983,81.0680851 C184.86499,81.0680851 183.322631,80.8808511 181.721083,80.3810445 C178.037137,79.2324952 175.59381,77.9098646 174.134236,76.1148936 C173.206576,74.9748549 172.923017,73.6413926 173.243714,72.7357834 C173.247582,72.7257253 173.252611,72.7160542 173.25648,72.7067698 C173.015474,72.3001934 172.790716,71.7988395 172.593037,71.167118 C172.156673,69.777176 172.247582,67.7311412 172.361702,65.1408124 L172.394584,64.3868472 C172.751257,56.0348162 172.533462,48.9891683 166.237911,47.3748549 C165.19381,47.1067698 164.257253,46.9941973 163.411605,46.9941973 C160.847969,46.9941973 158.478917,47.7965184 157.011605,48.6274662 C167.441393,57.068472 168.062282,74.162089 166.691296,79.3075435 C166.360928,80.5470019 166.109865,81.7029014 166.289749,83.1183752 C166.437137,84.2808511 166.834043,85.1446809 167.597679,86.1411992 C167.818182,86.427853 168.045648,86.7261122 168.261122,87.0398453 C168.73501,87.7303675 169.237911,88.4290135 169.723017,89.1052224 C170.709865,90.4781431 171.729594,91.898646 172.602321,93.3667311 C173.40735,94.7218569 173.754352,96.3323017 174.088975,97.8897485 C174.225919,98.5237911 174.354352,99.1234043 174.511799,99.7040619 C175.513733,103.392263 176.554352,106.247195 177.886654,108.962476 C178.044101,109.283559 178.254159,109.656093 178.477369,110.05029 C179.089749,111.134623 179.783752,112.36441 179.923404,113.444487 C180.011219,114.132302 179.738878,114.754352 179.476209,115.354739 C179.280077,115.803868 179.094004,116.229014 179.086267,116.626692 C179.058801,117.847969 179.553578,119.312186 180.030561,120.72882 C180.205029,121.244487 180.370986,121.737718 180.509865,122.210058 L183.899807,122.173308 L192.536944,127.516054 L13.311412,127.516054 L10.9388781,126.702901 L78.270793,123.450677 C78.483559,123.142747 78.8166344,122.758221 78.8823985,122.669632 L81.3624758,118.959768 C81.6487427,118.572534 82.0104449,118.160155 82.3930368,117.722631 C83.1609284,116.846422 84.0309478,115.853385 84.3272727,114.987621 C84.5470019,114.345841 84.2974855,113.171373 84.0978723,112.226692 C84.0243714,111.878917 83.954352,111.54971 83.9110251,111.264603 C83.7748549,110.372534 83.594971,110.029787 83.0940039,109.168279 L77.4990329,99.5435203 C76.9323017,98.5682785 76.0011605,97.9996132 75.0158607,97.3988395 C74.7829787,97.2572534 73.6038685,95.8630561 72.0831721,93.9914894 C70.0793037,95.2487427 63.8348162,97.5907157 63.0545455,97.7624758 C63.1199226,97.9121857 63.5500967,99.182205 63.622824,99.354352 C63.9528046,100.133075 64.0162476,100.509865 64.4185687,100.774855 C64.4235977,100.77795 64.4309478,100.779497 64.440619,100.779497 C64.6471954,100.779497 65.9241779,100.199613 66.1690522,100.199613 C66.1713733,100.199613 66.1752418,100.199613 66.1775629,100.199613 C66.5555126,100.226306 66.506383,100.19265 66.8208897,100.277756 C67.4394584,100.443714 67.7829787,100.70058 68.2464217,101.067311 L68.377176,101.169826 C71.5531915,103.66499 71.9427466,107.762476 72.2862669,111.37795 C72.3249516,111.788781 72.3636364,112.196132 72.4061896,112.597292 C72.4212766,112.740039 72.3682785,112.882012 72.2638298,112.980658 C72.1736944,113.06499 72.0568665,113.102128 71.934236,113.102128 C71.9137331,113.102128 71.8924565,113.100967 71.8723404,113.099033 L67.8762089,112.425145 C67.6034816,112.379884 67.3237911,112.31528 67.0274662,112.246809 C66.4951644,112.123404 65.9462282,111.997292 65.4789168,111.997292 C65.4468085,111.997292 65.415087,111.997292 65.3829787,111.998839 C64.7647969,112.023598 64.177176,112.378337 63.5551257,112.753965 C63.3009671,112.90677 63.0390716,113.06499 62.7678917,113.20619 C61.896325,113.654932 61.2599613,113.868859 60.7524178,113.868859 C59.3206963,113.868859 58.9156673,112.167892 57.1682785,109.254932 C56.3156673,107.834043 55.4058027,105.921083 55.0649903,104.423985 C54.9880077,104.082785 50.1415861,99.3268859 49.7497099,98.3794971 C49.0119923,96.5961315 48.6224371,95.2711799 48.6731141,93.3868472 C48.6804642,93.1346228 48.6618956,92.7725338 48.6417795,92.3547389 C48.5756286,91.0317215 48.4924565,89.3852998 49.0444874,88.6162476 C49.6224371,87.8131528 51.0680851,87.1845261 52.3450677,86.6301741 C52.8282398,86.4197292 53.2854932,86.2208897 53.5852998,86.0545455 C54.0719536,85.7856867 54.5624758,85.5206963 55.0529981,85.2545455 C56.0154739,84.7346228 57.0108317,84.1965184 57.9632495,83.6340426 C58.0499033,83.5825919 58.1725338,83.5156673 58.3141199,83.4398453 C58.4916828,83.3435203 60.873501,82.0027079 62.5574468,81.0332689 C60.7744681,78.1764023 57.2135397,72.0649903 57.0854932,68.6243714 C56.9145068,63.9914894 57.9512573,60.6893617 58.6804642,58.972147 C58.6700193,58.9222437 58.6599613,58.8711799 58.6487427,58.8212766 C57.0673114,58.0112186 55.0154739,57.159381 52.3466151,56.3346228 C43.6185687,53.6386847 39.1489362,55.7156673 37.4394584,53.8305609 C36.4046422,52.688588 36.2680851,51.7574468 36.2545455,51.7439072 C36.2189555,51.7454545 36.1829787,51.7462282 36.1462282,51.7462282 C35.8398453,51.7462282 35.5288201,51.7052224 35.4208897,51.6858801 C35.4034816,51.6827853 35.384913,51.6789168 35.367118,51.6742747 C35.070793,51.6189555 34.805029,51.5504836 34.5667311,51.4680851 C34.3145068,51.3814313 34.0742747,51.2777563 33.8514507,51.1558994 C33.64294,51.0441006 33.4464217,50.9148936 33.2661509,50.7740812 C33.1794971,50.706383 33.0978723,50.6359768 33.0201161,50.5640232 C32.9934236,50.539265 32.9690522,50.5152805 32.9450677,50.4897485 L32.9187621,50.4630561 C32.7400387,50.2839458 32.5825919,50.0959381 32.4529981,49.9032882 C32.359381,49.7659574 32.2742747,49.6201161 32.1980658,49.4700193 C32.134236,49.3415861 32.0765957,49.2081238 32.0266925,49.073501 C31.9470019,48.8572534 31.8796905,48.6212766 31.8220503,48.3531915 C31.6626692,47.617795 31.5992263,46.7400387 31.5319149,45.8116054 C31.4858801,45.1733075 31.3694391,44.5187621 31.3636364,44.0011605 C31.3446809,42.3353965 31.6943907,41.9640232 32.0162476,41.3450677 C31.9079304,41.0553191 31.6266925,39.911412 31.9280464,38.4363636 C32.3075435,36.5802708 33.7353965,35.6425532 36.103675,35.4970986 C36.1307544,35.3295938 36.2603482,34.8479691 36.2851064,34.6874275 C36.3748549,34.1094778 37.0715667,31.4905222 37.3052224,30.577176 C36.8235977,30.3110251 36.0866538,29.7644101 36.0054159,28.8874275 C35.9972921,28.8034816 35.994971,28.7168279 35.9941973,28.6294004 C33.6096712,28.0402321 29.3098646,26.7713733 26.7295938,24.7698259 C23.0143133,21.8889749 21.7574468,16.1988395 17.7067698,10.7439072 C15.1531915,7.3032882 10.8073501,6.76634429 8.34081238,6.76634429 C7.21972921,6.76634429 6.48588008,6.87698259 6.48588008,6.87698259 C6.48588008,6.87698259 12.1725338,2.48007737 16.1911025,2.32765957 C16.349323,2.32185687 16.511412,2.31876209 16.6777563,2.31876209" id="Fill-22" fill="#FFFFFE" mask="url(#mask-2)"></path>
                </g>
            </g>
        </g>
    </g>
</svg>