<svg width="200" height="200" viewBox="0 0 200 200" fill="none" xmlns="http://www.w3.org/2000/svg">
<g clip-path="url(#clip0_1213_391)">
<path d="M92.7551 184.108H91.6188C70.5483 184.108 55.725 178.854 47.5497 168.479C43.4313 163.301 41.2718 157.065 41.2821 150.464V149.867L41.3746 148.016L39.5288 147.898C37.0453 147.723 35.8113 147.677 35.3486 147.677C34.8601 147.703 32.7212 147.78 26.289 148.453C23.641 148.752 21.4661 148.901 19.6357 148.901L19.0804 148.916C9.64033 148.926 5.49616 143.585 4.44212 141.945C2.77108 139.461 1.88672 136.572 1.88672 133.564C1.88672 131.467 2.30833 129.318 3.14128 127.323C3.93824 125.364 7.73278 117.462 19.7128 115.945L20.1961 115.889L20.592 115.601L21.2348 115.113C23.641 113.143 26.7517 110.11 30.2892 106.285L107.974 22.6166C113.558 16.6271 119.677 15.9176 122.052 15.9021L122.572 15.8867C130.536 15.8867 137.071 22.0459 137.796 30.2359L142.244 80.9593L142.49 83.7921L144.999 82.4606C148.059 80.8668 151.529 80.0236 155.324 79.9671H156.45C157.879 79.9671 159.478 80.0339 161.648 80.1727C166.306 80.62 168.152 80.656 168.569 80.656C168.579 80.656 169.767 80.6354 174.281 80.0905C178.708 79.5918 180.199 79.5506 180.883 79.5249C185.891 79.5249 189.943 80.9388 192.997 83.5916L193.717 84.2754C196.57 87.1339 198.133 90.9128 198.118 94.9281C198.133 96.9537 197.717 99.0308 196.874 101.067C195.341 104.933 191.079 109.658 183.737 111.365L182.888 111.57L182.487 112.357C182.091 113.133 181.618 114.12 181.094 115.339L172.235 136.459C168.471 145.41 165.273 150.243 161.324 155.163C146.1 173.882 123.415 183.625 93.9017 184.103L92.7654 184.118L92.7551 184.108Z" fill="#3E1952"/>
<path d="M122.562 14C131.59 14 138.871 20.915 139.673 30.0715L144.121 80.7949C147.072 79.2371 150.789 78.142 155.283 78.0855C155.669 78.0855 156.059 78.0752 156.445 78.0752C157.905 78.0752 159.54 78.142 161.762 78.2963L161.936 78.3117C166.353 78.7281 168.163 78.759 168.554 78.759C168.605 78.759 169.849 78.7281 174.04 78.214C178.636 77.705 180.153 77.6536 180.842 77.6331H181.29C186.21 77.6331 190.74 79.1292 194.226 82.1728L194.375 82.2962C194.581 82.471 194.756 82.6458 194.915 82.8L195.043 82.9337C198.262 86.1675 200.005 90.481 199.995 94.9127C200.01 97.1852 199.542 99.4884 198.612 101.766C197.167 105.37 192.941 111.133 184.153 113.18C183.778 113.935 183.326 114.881 182.817 116.064L173.958 137.184C170.189 146.145 166.877 151.209 162.774 156.315C147.149 175.543 123.605 185.486 93.9123 185.969C93.141 185.969 92.3801 185.985 91.614 185.985C70.5692 185.985 54.918 180.874 46.0692 169.641C41.6628 164.088 39.3799 157.456 39.3902 150.448C39.3902 150.212 39.3902 149.981 39.3902 149.759C36.9788 149.6 35.791 149.549 35.3386 149.549H35.2666C34.9221 149.569 32.8089 149.657 26.4846 150.31C23.8675 150.603 21.6206 150.762 19.636 150.777H19.1218H18.8596C10.4118 150.777 5.16736 146.541 2.85362 142.942C0.966631 140.15 0 136.886 0 133.565C0 131.21 0.473032 128.824 1.3831 126.603C1.47051 126.382 1.50136 126.321 1.5425 126.213C3.18782 122.182 8.36547 115.478 19.4714 114.064C19.636 113.951 19.8365 113.802 20.0782 113.611C22.3045 111.786 25.3226 108.861 28.9012 104.984L106.581 21.3417C111.934 15.5989 118.001 14.0514 122.032 14.0154L122.238 14H122.562ZM122.562 17.7737C122.562 17.7737 122.063 17.7839 122.078 17.7839C119.939 17.8097 114.438 18.4523 109.337 23.9174L31.6623 107.55C28.0734 111.437 24.8907 114.542 22.4639 116.526C22.0988 116.814 21.8417 116.999 21.6412 117.138L20.8751 117.688L19.9342 117.802C8.99275 119.2 5.59412 126.238 5.02339 127.637C5.02339 127.637 4.99254 127.729 4.94627 127.822C4.91542 127.925 4.87429 128.017 4.87429 128.017C4.15445 129.796 3.77397 131.709 3.77397 133.559C3.76369 136.171 4.5298 138.685 5.97974 140.85C6.94637 142.346 10.5969 147.019 18.8544 147.019H19.5948C21.3584 146.999 23.4716 146.855 26.0682 146.567C31.6726 145.986 34.1251 145.842 35.0918 145.796H35.1638C35.9042 145.796 37.1639 145.842 39.6319 146.001L43.2773 146.238L43.159 149.888V150.464C43.1436 156.638 45.1694 162.458 49.0154 167.317C56.8204 177.214 71.145 182.231 91.6088 182.231L93.141 182.221L93.8866 182.211C122.783 181.738 144.989 172.232 159.839 153.944C163.684 149.163 166.821 144.443 170.477 135.729L179.331 114.614C179.881 113.329 180.369 112.326 180.77 111.524L181.557 109.915L183.29 109.514C191.84 107.524 194.632 101.55 195.105 100.373C195.851 98.5425 196.226 96.7225 196.221 94.9384C196.221 91.4116 194.858 88.1057 192.365 85.5968C192.138 85.3706 192.015 85.2575 191.881 85.1495C189.028 82.6612 185.413 81.4067 181.279 81.4067H180.93C180.4 81.4221 178.986 81.4633 174.446 81.962C169.926 82.5121 168.672 82.5275 168.543 82.5275C168.055 82.5275 166.117 82.5018 161.566 82.0699C159.33 81.9157 157.772 81.8489 156.43 81.8489H155.869H155.268C151.818 81.9054 148.64 82.6715 145.869 84.1316L140.845 86.7845L140.352 81.1188L135.899 30.4005C135.267 23.1977 129.529 17.7685 122.551 17.7685" fill="white"/>
<path d="M91.5934 174.566C73.6696 174.566 61.4582 170.561 55.2882 162.69C51.3445 157.682 50.1928 151.431 51.9667 144.629L52.2238 143.693C52.7122 141.847 53.0053 140.763 54.1056 138.11C52.8253 138.542 51.324 138.83 49.5193 138.855H49.4935L48.9537 138.866C47.5346 138.866 45.8738 138.794 44.0691 138.65C39.781 138.31 36.8194 138.141 35.2717 138.141C33.359 138.187 29.7959 138.49 25.1632 138.968C22.9369 139.225 21.0859 139.344 19.4869 139.364H19.42C15.9803 139.364 13.7796 138.47 12.6125 136.717C11.6047 135.2 11.4916 133.292 12.2988 131.298C13.2192 129.179 15.5689 126.609 21.6875 125.956C22.8701 125.894 24.6337 125.339 27.5387 123.015C30.3049 120.732 33.6881 117.457 37.5186 113.298L115.122 29.7274C117.898 26.7866 120.525 26.1183 122.243 26.0771C125.503 26.0771 127.652 28.1131 127.965 31.3983L135.159 113.447C135.698 118.491 136.49 121.01 137.051 122.234C137.647 123.421 138.413 123.905 139.838 123.915C141.205 123.987 144.989 124.187 146.594 126.815C147.103 127.637 147.319 128.563 147.257 129.539L155.561 109.787C157.278 105.118 157.093 103.792 157.093 103.741C157.021 103.612 156.404 102.928 153.247 102.887C150.604 102.861 147.375 102.522 145.848 100.219C145.36 99.4683 144.686 97.9208 145.581 95.8077C146.275 94.142 148.64 90.2757 155.648 90.1678L156.502 90.1421C157.736 90.1421 159.155 90.2141 160.764 90.3272C164.302 90.6562 167.063 90.8413 168.62 90.8413C169.541 90.8207 171.356 90.7076 175.315 90.2141C178.323 89.8799 180.174 89.7308 181.022 89.7102H181.094C183.5 89.7102 185.264 90.2706 186.534 91.3657C188.277 93.1291 188.709 95.3296 187.84 97.4221C186.961 99.458 184.704 101.931 178.796 102.481C178.091 102.532 177.336 102.568 176.225 104.013C174.893 105.735 173.469 108.373 171.993 111.854L163.134 132.953C159.813 140.865 157.247 144.778 153.689 149.21C140.372 165.559 120.207 174.073 93.7375 174.535L91.5934 174.561V174.566ZM86.9556 133.097L84.5493 138.794C82.431 143.806 82.4053 145.323 82.5338 147.806C82.6623 151.508 84.3694 154.192 87.7783 156.068C91.4186 158.099 96.3803 159.127 102.545 159.127H103.465C111.373 158.983 118.87 157.287 125.76 154.063C132.475 150.911 137.904 146.207 141.899 140.105C143.349 137.837 144.259 136.387 145.632 133.334C144.228 135.112 141.462 137.282 136.279 137.364H135.601C134.192 137.364 132.588 137.308 130.819 137.164C123.729 136.603 118.597 136.3 116.392 136.3C114.17 136.362 108.972 136.799 100.334 137.678C98.1387 137.94 96.1746 138.079 94.6167 138.079H94.5601C91.0947 138.079 88.8889 137.159 87.7372 135.359C87.2898 134.686 87.0327 133.915 86.9608 133.107M100.201 104.913C99.9691 105.098 99.7532 105.314 99.5527 105.55C98.0102 107.478 96.5757 110.049 95.3519 113.108L89.3465 127.395C90.8684 126.054 93.3981 124.907 97.5269 124.65C99.4601 124.532 99.9589 124.1 99.9589 124.1C100.447 122.902 101.136 120.398 100.848 115.329L100.201 104.903V104.913ZM48.059 125.118C48.7172 125.277 49.8432 125.421 51.7045 125.421C54.1416 125.442 56.9181 125.678 58.728 127.108L65.3453 111.35C67.2271 106.465 67.0574 105.088 67.042 105.041C67.0317 104.995 66.7849 104.743 65.8234 104.563L53.3395 118.1C50.3471 121.329 48.8303 123.627 48.0642 125.113M77.2071 92.2037C81.1867 92.4145 84.1534 92.5225 85.9324 92.5225C89.1408 92.4711 93.4495 92.1472 99.347 91.5559L97.9639 69.6645L77.2122 92.2037H77.2071Z" fill="white"/>
<path d="M122.372 29.0174C123.96 29.0174 124.86 29.9068 125.035 31.6754L132.228 113.694C132.706 118.13 133.437 121.411 134.383 123.457C135.488 125.698 137.241 126.824 139.807 126.85C144.404 127.107 144.692 128.804 144.095 130.187C143.586 131.436 141.787 134.31 136.228 134.397C135.987 134.397 135.735 134.408 135.483 134.408C134.182 134.408 132.691 134.341 131.066 134.202C123.59 133.631 118.654 133.343 116.423 133.343H116.15C113.945 133.4 108.505 133.868 100.047 134.731C97.9232 134.973 96.0722 135.127 94.6222 135.127C94.5142 135.127 94.4217 135.127 94.3292 135.127C89.0847 135.127 89.676 132.325 90.2055 131.127C90.7814 129.678 92.581 127.904 97.7124 127.575C101.8 127.333 102.432 125.806 102.746 125.061C103.661 122.86 104.037 119.503 103.795 115.154L102.911 100.866C100.556 101.046 98.7715 101.936 97.3216 103.606C95.5631 105.817 93.9744 108.635 92.6221 112.002L81.8555 137.631C79.5777 143.014 79.4492 144.957 79.5983 147.934C79.7628 152.633 82.0252 156.237 86.3544 158.628C90.4112 160.895 95.8408 162.047 102.535 162.047C102.864 162.047 103.198 162.047 103.533 162.037C111.857 161.898 119.77 160.088 127.015 156.695C134.264 153.286 140.08 148.248 144.373 141.688C146.229 138.808 147.262 137.112 149.34 132.161L158.286 110.917C160.199 105.704 160.214 103.632 159.87 102.794L159.86 102.768L159.839 102.732C159.273 100.882 157.114 99.9767 153.273 99.9304C149.16 99.8944 147.468 98.8816 148.296 96.9279C148.754 95.8174 150.419 93.18 155.69 93.0926C155.967 93.0772 156.26 93.072 156.559 93.072C157.715 93.072 159.057 93.1389 160.574 93.2417C164.307 93.5964 166.991 93.7609 168.569 93.7609H168.77C170.05 93.7455 172.374 93.5244 175.686 93.1183C178.529 92.8098 180.298 92.6556 181.105 92.6299H181.218C182.74 92.6299 183.871 92.9384 184.617 93.5861C185.568 94.5424 185.414 95.5809 185.126 96.2956C184.586 97.5346 183.018 99.1233 178.534 99.5397L178.472 99.55H178.447C177.228 99.6065 175.629 99.9716 173.901 102.182C172.369 104.182 170.822 107.056 169.294 110.686L160.435 131.78C157.258 139.302 154.852 143.04 151.391 147.353C138.65 163.003 119.235 171.126 93.6916 171.579C93.0026 171.589 92.3342 171.599 91.6606 171.599C74.6469 171.599 63.217 168 57.6177 160.844C54.2088 156.52 53.2731 151.307 54.831 145.353C55.5302 142.752 55.6588 141.965 57.1396 138.5L68.0604 112.465C70.0657 107.267 70.1531 105.149 69.8857 104.254C69.4435 102.511 67.7108 101.617 64.6618 101.463L51.1753 116.084C48.0954 119.405 46.0079 122.315 44.9899 124.716C44.6197 125.595 43.4731 128.331 51.71 128.331H51.7923C56.3786 128.387 58.2553 129.513 57.3401 131.667C56.8157 132.906 55.0058 135.785 49.4682 135.899H49.0672C47.6841 135.899 46.0747 135.827 44.2957 135.683C39.951 135.354 36.9329 135.174 35.2721 135.174C35.1282 135.174 34.9945 135.174 34.8608 135.174C33.2977 135.215 29.9351 135.492 24.8603 136.012C22.7214 136.248 20.9578 136.382 19.4256 136.392C19.3227 136.392 19.2199 136.402 19.1273 136.402C13.9188 136.402 14.5153 133.611 15.0089 132.387C15.595 131.05 17.2455 129.359 21.9861 128.87L22.0272 128.855L22.0735 128.87C24.1199 128.747 26.557 127.534 29.3592 125.297C32.218 122.958 35.6835 119.596 39.6631 115.287L117.292 31.7319C119.364 29.5366 121.174 29.0482 122.331 29.0174H122.372ZM85.8197 95.4678C85.9842 95.4678 86.1334 95.4678 86.2773 95.4678C89.5577 95.4113 94.3908 95.036 100.679 94.3728C101.306 94.3008 101.903 94.2648 102.458 94.2185L100.468 62.6051L70.8421 94.7635C71.0477 94.7789 71.2945 94.7943 71.5156 94.82C78.462 95.257 83.254 95.473 85.8146 95.473M122.372 23.1307H122.176C119.888 23.1872 116.449 24.0304 112.998 27.6961L35.3544 111.308C31.565 115.4 28.3 118.578 25.6367 120.763C22.9424 122.917 21.7239 123.025 21.7136 123.025H21.5953L21.3897 123.035C13.8674 123.811 10.839 127.282 9.62043 130.053C8.39157 133.091 8.61266 136.063 10.1654 138.366C11.9342 140.988 14.9472 142.315 19.1325 142.315H19.5541C21.1891 142.294 23.1687 142.161 25.5184 141.893C32.0277 141.22 34.3312 141.107 35.015 141.091H35.2721C36.7015 141.091 39.5089 141.245 43.8535 141.58C45.7354 141.744 47.5041 141.811 49.0672 141.811H49.5248C49.5813 141.811 49.6328 141.811 49.6893 141.801C49.5813 142.176 49.4837 142.556 49.3705 142.978L49.1392 143.842C47.1031 151.62 48.4399 158.756 52.9903 164.52C59.731 173.136 72.7342 177.517 91.6555 177.517C92.3547 177.517 93.0643 177.517 93.779 177.496C121.179 177.008 142.09 168.129 155.957 151.096C159.613 146.541 162.394 142.31 165.86 134.094L174.714 112.994C176.421 108.969 177.742 106.851 178.56 105.802C178.693 105.632 178.807 105.514 178.873 105.442L179.074 105.421C186.411 104.737 189.347 101.365 190.524 98.6554C191.882 95.2982 191.224 91.9101 188.797 89.4526L188.632 89.2881L188.463 89.1338C186.627 87.5503 184.19 86.7534 181.213 86.7534H180.92C180.544 86.774 179.393 86.8049 175.043 87.2778C170.868 87.792 169.279 87.8845 168.698 87.8897C167.731 87.8897 165.664 87.8177 161.124 87.3961C159.314 87.2624 157.839 87.1956 156.559 87.1956C156.188 87.1956 155.839 87.2059 155.494 87.2162C146.615 87.3447 143.581 92.9538 142.861 94.6709C141.828 97.1079 142.028 99.7299 143.396 101.822C145.71 105.344 150.111 105.791 153.222 105.822C153.417 105.822 153.597 105.833 153.756 105.838C153.556 106.568 153.258 107.529 152.795 108.784L146.851 122.901C144.383 121.205 141.339 121.04 140.136 120.974C139.941 120.963 139.807 120.958 139.72 120.948C139.699 120.917 139.694 120.881 139.663 120.845C139.427 120.315 138.64 118.187 138.09 113.056L130.902 31.1458C130.424 26.3182 126.994 23.1152 122.372 23.1152M83.6602 89.5349L95.4655 76.728L96.2316 88.8973C91.9126 89.3035 88.5448 89.5349 86.1796 89.576H85.8249C85.2387 89.576 84.524 89.5657 83.6654 89.54M53.381 122.521C53.9723 121.801 54.6716 120.999 55.484 120.115L60.9598 114.177L57.2013 123.143C55.9261 122.778 54.6099 122.603 53.381 122.521ZM94.8073 121.997L97.8615 114.727L97.9129 115.544C98.0825 118.639 97.8563 120.583 97.6249 121.698C97.5427 121.709 97.4501 121.714 97.3524 121.724C96.4475 121.776 95.5991 121.878 94.8073 122.002M94.7713 141.024C96.247 141.024 98.2368 140.886 100.725 140.592C111.024 139.544 114.891 139.281 116.299 139.245C117.631 139.245 121.076 139.359 130.624 140.089C132.321 140.238 133.971 140.305 135.488 140.305L136.357 140.294C137.031 140.284 137.668 140.248 138.27 140.176C134.732 144.978 130.105 148.767 124.511 151.384C118.012 154.433 110.916 156.037 103.435 156.16L102.535 156.17C96.8794 156.17 92.401 155.276 89.2235 153.497C86.6835 152.104 85.5729 150.381 85.4855 147.744C85.3827 145.657 85.3261 144.561 87.2799 139.929L87.5524 139.281C89.2749 140.438 91.5475 141.024 94.3394 141.024H94.7559H94.7765H94.7713Z" fill="#3E1952"/>
</g>
<defs>
<clipPath id="clip0_1213_391">
<rect width="200" height="172" fill="white" transform="translate(0 14)"/>
</clipPath>
</defs>
</svg>
