<?xml version="1.0" encoding="UTF-8"?>
<svg width="200px" height="200px" viewBox="0 0 200 200" version="1.1" xmlns="http://www.w3.org/2000/svg" xmlns:xlink="http://www.w3.org/1999/xlink">
    <!-- Generator: Sketch 54.1 (76490) - https://sketchapp.com -->
    <title>augsburg</title>
    <desc>Created with Sketch.</desc>
    <g id="augsburg" stroke="none" stroke-width="1" fill="none" fill-rule="evenodd">
        <g id="augsburg_BGL">
            <g id="augsburg" transform="translate(0.000000, 4.000000)">
                <g id="g10" transform="translate(99.999998, 96.382430) scale(-1, 1) rotate(-180.000000) translate(-99.999998, -96.382430) translate(0.000000, 0.000004)" fill-rule="nonzero">
                    <g id="g12">
                        <path d="M103.767439,0.000605622724 C95.9617547,0.000605622724 82.9384992,3.4946304 71.4397915,11.3028938 C66.9095591,14.3782425 61.155554,18.7721959 56.7896627,24.4149865 C56.1498694,25.2424283 54.8201537,24.7809813 54.8408255,23.7344697 C54.8578798,22.8841855 54.9152441,21.8631002 55.0434095,20.670232 C55.2408255,18.8315758 53.7658901,17.3364854 50.4517817,18.7385008 C32.4222731,26.3695084 24.5744697,40.1209292 21.1658393,50.3136938 C21.0224801,50.7420659 20.8288884,51.3618592 20.6316791,52.0087842 C20.3878031,52.8103346 19.288785,52.9038746 18.9161236,52.1540039 C18.5231003,51.3628411 18.0176223,50.6377248 17.4244957,50.417053 C16.9101288,50.2252701 14.7973123,49.357053 13.1827387,51.7741589 C5.82382414,62.7906961 3.40378803,76.116794 5.80568461,90.0640804 C6.12082672,91.8945713 6.6089404,93.9870778 7.0225838,95.59638 C7.0225838,95.59638 6.39819105,95.0764834 5.7697673,94.5679563 C5.08458385,94.0139511 4.27103348,93.1968969 3.18576219,93.1968969 C2.75274412,93.1963801 2.31225834,93.285269 1.88812398,93.4723491 C0.72048577,93.9860442 -0.00262435652,95.1834602 0.00020187338,96.4594291 C0.0260416531,109.437723 6.66583963,127.085268 17.349612,139.333847 C16.3565887,139.429454 15.4178808,139.990177 14.8716275,140.951418 C14.3291986,141.905423 14.3658911,143.0801 14.8708007,144.054777 C22.1075447,158.019634 34.996795,170.564854 51.1755026,179.387592 C66.9922464,188.012915 85.2635638,192.763303 102.623253,192.763303 C113.726612,192.763303 124.164855,190.875964 133.648059,187.154 C143.890436,183.133329 152.751417,177.062528 159.985526,169.108523 C164.129195,164.5509 167.131779,159.712141 169.779841,155.44289 C174.754518,147.422735 177.85581,142.885785 183.746765,142.885785 C183.853225,142.885785 183.962269,142.887335 184.070796,142.890436 C184.41705,142.898704 184.72351,142.866663 185.481132,142.5478 C185.863044,142.38811 186.222218,142.164854 186.501804,141.860462 C187.109556,141.198963 187.409814,140.310074 187.327644,139.414467 C187.090951,136.840823 186.301804,133.719893 184.787592,131.200514 C188.31059,128.223253 193.029969,123.962788 193.893018,122.965888 C199.467695,116.524028 201.208264,109.358137 198.926093,102.241341 C195.306455,90.9534861 181.711623,81.4558119 162.560203,76.8351402 C162.312657,76.7751919 162.062011,76.7462513 161.812916,76.7462513 C161.104906,76.7462513 160.408782,76.982427 159.84134,77.4294554 C159.074415,78.0335898 158.626869,78.9565872 158.627386,79.9333313 C158.631004,90.341083 148.666146,101.130747 129.595346,102.100773 C122.030488,93.7136927 120.514726,73.8036157 130.393278,55.9829443 C133.613433,50.1721951 137.782425,45.0734872 142.782425,40.8299215 C153.944699,31.3572085 168.515241,26.5546247 186.091468,26.5550381 C186.504388,26.5550381 186.922476,26.5576738 187.339013,26.5633068 C187.371055,26.563927 187.402062,26.5628934 187.431003,26.563927 C188.009298,26.5835135 188.587592,26.4605678 189.062011,26.1293017 C191.001546,24.7763301 190.972605,22.3209297 189.508006,21.007338 C177.366921,10.1100256 160.551417,4.10913168 142.158136,4.10913168 C127.576741,4.10913168 115.111108,6.29359157 104.39638,12.7214467 C103.807749,13.0745216 103.109041,12.4779842 103.349868,11.8352452 C104.277517,9.3606716 105.483201,7.60454761 107.310592,5.23720917 C109.139532,2.86922473 109.073899,0.000605622724 103.767439,0.000605622724" id="path14" fill="#D9D7D6"></path>
                        <path d="M134.083718,137.256327 C133.205681,138.016534 132.271831,139.635139 132.767439,140.857361 C132.767439,140.857361 134.847542,140.843407 136.179842,139.36072 C136.632555,138.857361 137.298705,139.331263 137.279066,140.004131 C137.248575,141.049092 136.689919,142.068214 135.734364,142.873381 C134.869247,143.602064 133.242891,143.792761 133.242891,143.792761 C133.23979,144.217051 133.978291,145.019118 134.401547,145.464596 C132.314209,147.545216 130.942632,149.386043 130.942632,149.386043 C128.053744,147.044441 125.126612,138.789144 131.958136,134.559687 C138.034105,130.797413 143.632038,135.088369 144.766921,137.214984 L142.805681,138.567955 C140.239273,134.999997 135.920927,135.666146 134.083718,137.256327" id="path16" fill="#FFFFFF"></path>
                        <path d="M150.112658,134.047025 C150.06873,134.016017 150.024802,133.988627 149.981392,133.958136 C147.66718,131.686302 141.348834,126.732813 131.607232,128.500255 C120.847025,130.45271 117.871832,137.732813 114.414467,141.498704 C109.682168,146.653743 103.796897,146.763304 103.796897,146.763304 C103.796897,146.763304 105.900773,148.531779 109.363822,149.662529 C112.080617,150.549867 115.781909,150.885784 115.781909,150.885784 C115.781909,150.885784 106.015501,156.555035 91.0304887,154.047025 C91.0304887,154.047025 99.859429,164.210849 113.966405,164.219634 C122.090436,164.224802 126.918343,162.179841 129.625837,160.333329 C135.530229,156.573123 140.952451,149.051676 146.937981,142.30594 C154.171572,134.153485 159.343148,132.475966 159.343148,132.475966 C159.343148,132.475966 156.273898,131.683201 150.112658,134.047025 L150.112658,134.047025 Z M163.236688,145.77364 C142.566922,187.584491 97.292504,189.320925 52.9700245,166.531262 C64.5353989,167.308523 72.0832023,162.728678 72.0832023,162.728678 C56.0465102,160.883717 45.5131772,154.408265 36.1864074,145.587076 C36.1864074,145.587076 49.6713683,150.28165 61.0506445,145.987593 C57.7906962,145.169505 54.7932803,144.261495 52.0289393,143.28165 C48.9672339,141.735397 45.3185518,139.624286 42.0530739,137.014467 C35.6161231,131.870281 32.881963,126.829454 32.881963,126.829454 C32.881963,126.829454 39.5062006,128.559687 45.9023761,129.05426 C57.0620141,129.917826 62.7105927,128.063563 62.7105927,128.063563 C62.7105927,128.063563 48.447389,123.992245 38.6720921,110.290437 C37.0881644,108.070282 35.9350895,105.674416 35.1211361,103.193796 C43.3559679,107.241858 49.9626344,106.425837 49.9626344,106.425837 C49.9626344,106.425837 42.4394305,100.133331 40.9239783,87.4155017 C40.3631514,82.7100755 41.0476992,78.281135 42.2581385,74.4077501 C43.3452186,77.0728663 44.6658904,79.7581375 46.2712133,82.4056827 C54.8599469,96.5679562 67.0056831,98.5798425 67.0056831,98.5798425 C67.0056831,98.5798425 62.7105927,83.5509023 69.909559,65.1049079 C70.9881119,62.3421173 72.4754504,59.932815 74.0630472,57.889921 C74.9043909,61.882169 75.9855278,65.6847529 77.3777758,68.9100758 C83.8563287,83.9178274 91.1007729,88.0682149 91.1007729,88.0682149 C91.1007729,88.0682149 91.6377238,61.9989649 104.572607,51.031575 C107.097155,48.8909032 109.427904,47.1324019 111.575708,45.6903865 C103.109558,61.9705411 104.548318,83.8728661 113.730747,97.3824265 C116.554519,101.537982 118.888886,104.3447 120.758653,106.248059 C120.78656,106.287853 120.813434,106.329713 120.840824,106.36899 C118.050643,106.514726 116.266147,106.641858 111.334364,106.52868 C115.520411,115.096638 129.566922,123.66563 149.649609,122.50749 C163.354001,121.71731 166.478032,125.452193 165.000513,129.961754 C170.659427,128.434105 174.990177,130.535914 177.632037,135.912141 C177.355034,135.617051 168.745215,134.631521 163.236688,145.77364 L163.236688,145.77364 Z" id="path18" fill="#FFFFFF"></path>
                        <path d="M86.8067162,76.8232539 C84.8516775,73.0310059 81.1912124,63.3762258 80.0630471,51.8459935 C79.8077499,49.2377249 79.6837189,46.5334355 79.7364321,43.7792754 C79.8139515,39.7462522 80.273383,35.6072343 81.270799,31.505994 C81.9142098,28.8610329 82.7860444,26.2330226 83.9167938,23.6593793 C83.9576206,23.5658909 83.9927628,23.4714206 84.0346232,23.3777255 C83.8056827,23.4940046 83.5855276,23.6159684 83.3607214,23.7348831 C78.5328146,26.2833068 74.5560705,29.4950897 71.2863031,33.1084229 C53.4418591,52.8279057 56.5829443,84.4232537 56.5829443,84.4232537 C52.6919883,79.379843 48.712867,73.3932798 46.0226862,65.9509027 C45.7903348,65.3074919 45.5656319,64.6558123 45.3534872,63.9906961 C44.33788,60.8077504 43.5667173,57.3648564 43.1308516,53.6315232 C42.8718336,51.4155543 42.7281126,49.0992236 42.7287328,46.668681 C40.858552,47.9146241 39.1076993,50.0878024 37.5896115,52.8888876 C35.7404642,56.3018074 34.2383454,60.6490941 33.2907485,65.4046495 C32.7153997,68.2930215 32.3449604,71.3312644 32.2256323,74.4005149 C32.0431517,79.0852693 32.4451155,83.842892 33.599379,88.2516774 C34.767441,92.7152432 36.7054254,96.821703 39.5849603,100.133331 C37.739844,99.7472843 35.8090947,98.9829433 33.8899216,97.9550363 C28.0083197,94.8036152 22.2383974,89.1395327 19.3695602,84.0067162 C19.2256326,83.7488351 19.0875447,83.4925044 18.9583458,83.2382408 C18.9423768,83.2067163 18.924599,83.1746749 18.9088884,83.1431504 C18.9088884,87.4568454 19.5415499,91.6764835 20.7477514,95.7018064 C24.3273379,107.649093 32.9713687,117.881651 45.2249084,123.739015 C40.5793788,124.235139 26.3469244,121.004648 20.3094569,116.576741 C24.575865,125.545216 32.2930741,136.284751 52.0289393,143.28165 C54.7932803,144.261495 57.7906962,145.169505 61.0506445,145.987593 C49.6713683,150.28165 36.1864074,145.587076 36.1864074,145.587076 C45.5131772,154.408265 56.0465102,160.883717 72.0832023,162.728678 C72.0832023,162.728678 64.5353989,167.308523 52.9700245,166.531262 C97.292504,189.320925 142.566922,187.584491 163.236688,145.77364 C168.745215,134.631521 177.355034,135.617051 177.632037,135.912141 C174.990177,130.535914 170.659427,128.434105 165.000513,129.961754 C166.478032,125.452193 163.354001,121.71731 149.649609,122.50749 C129.566922,123.66563 115.520411,115.096638 111.334364,106.52868 C116.266147,106.641858 118.050643,106.514726 120.840824,106.36899 C120.813434,106.329713 120.78656,106.287853 120.758653,106.248059 C110.820152,92.0666644 108.989145,61.2749339 126.189144,39.6289396 C129.903873,34.9535909 134.511625,30.7089915 140.112658,27.1467177 C140.757102,26.7368986 141.412916,26.3343663 142.084234,25.9427384 C143.831521,24.9235136 145.665629,23.9670278 147.597412,23.0832036 C141.35917,22.1979839 134.898188,22.3566919 128.617051,23.5364335 C128.537464,23.5513689 128.456844,23.5642888 128.376741,23.5804128 C105.478034,27.9788623 85.0620134,46.0037198 86.8067162,76.8232539 Z M190.110073,111.653227 C194.853742,97.297672 169.795345,88.4609797 169.795345,88.4609797 C169.795345,88.4609797 171.275448,110.253744 132.964338,114.468214 C131.860979,114.589661 130.729196,114.699222 129.558653,114.790178 C129.558653,114.790178 132.877516,116.075966 139.146767,116.601547 C144.395345,117.041341 151.70904,116.948834 160.892502,115.116793 C173.456326,112.611367 173.328161,121.147801 172.582941,122.973124 C176.596378,123.143149 177.615499,125.214467 177.615499,125.214467 C177.615499,125.214467 187.819634,118.587077 190.110073,111.653227 L190.110073,111.653227 Z M161.812916,79.9322977 C191.291985,87.0439255 204.989142,105.277517 191.484233,120.880617 C190.634104,121.863046 183.472347,128.296638 180.297153,130.75917 C182.347799,132.374674 183.816533,136.021185 184.155034,139.70594 C171.557618,139.37209 169.004647,154.455293 157.62842,166.964854 C119.38656,209.015499 40.9032031,187.533845 17.6556585,142.504389 C21.4199995,144.23979 27.7670794,145.864079 30.2485264,146.278033 C13.7128679,136.301289 3.18576219,111.846509 3.18576219,96.3829433 C5.303204,99.8206693 11.752041,104.999997 14.4779325,106.425837 C14.4779325,106.425837 -0.734211868,78.9896621 15.8525061,53.5126602 C15.8525061,53.5126602 17.2095086,63.428939 21.2689917,70.5689905 C21.2689917,70.5689905 18.9088884,35.5479061 51.6935388,21.6729194 C49.887544,28.1136944 49.4333321,45.3328671 51.6935388,49.6521951 C53.8816524,15.7178807 91.0304887,2.67805161 104.572607,3.20110586 C100.164339,7.53591712 96.2020648,17.1798445 95.1906953,22.1271312 C95.0087832,23.0165886 94.9209279,23.7556583 94.9441837,24.2831518 C95.7943129,23.4257875 96.6992224,22.5958651 97.6490932,21.7932294 C118.247542,4.37580868 161.406198,0.0656087839 187.380357,23.3777255 C166.796895,23.1096635 151.483717,29.2671827 140.721444,38.4005675 C135.170022,43.1120919 130.833588,48.6159678 127.606198,54.4387583 C117.015501,73.5457346 118.405682,96.0857857 128.312141,105.337465 C150.409815,104.770023 161.817567,92.1291967 161.812916,79.9322977 L161.812916,79.9322977 Z" id="path20" fill="#6E1D39"></path>
                        <path d="M135.734364,142.873381 C136.689919,142.068214 137.248575,141.049092 137.279066,140.004131 C137.298705,139.331263 136.632555,138.857361 136.179842,139.36072 C134.847542,140.843407 132.767439,140.857361 132.767439,140.857361 C132.271831,139.635139 133.205681,138.016534 134.083718,137.256327 C135.920927,135.666146 140.239273,134.999997 142.805681,138.567955 L144.766921,137.214984 C143.632038,135.088369 138.034105,130.797413 131.958136,134.559687 C125.126612,138.789144 128.053744,147.044441 130.942632,149.386043 C130.942632,149.386043 132.314209,147.545216 134.401547,145.464596 C133.978291,145.019118 133.23979,144.217051 133.242891,143.792761 C133.242891,143.792761 134.869247,143.602064 135.734364,142.873381 L135.734364,142.873381 Z M123.072865,155.591727 C113.358653,139.517309 132.820152,122.056844 149.981392,133.958136 C150.024802,133.988627 150.06873,134.016017 150.112658,134.047025 C156.273898,131.683201 159.343148,132.475966 159.343148,132.475966 C159.343148,132.475966 154.171572,134.153485 146.937981,142.30594 C140.952451,149.051676 135.530229,156.573123 129.625837,160.333329 C129.249609,160.572606 128.870798,160.798962 128.490436,161.007231 C115.995346,167.837205 104.572607,159.503355 104.572607,159.503355 C113.62532,160.570539 123.072865,155.591727 123.072865,155.591727 L123.072865,155.591727 Z" id="path22" fill="#6E1D39"></path>
                        <path d="M115.781909,150.885784 C115.781909,150.885784 112.080617,150.549867 109.363822,149.662529 C105.900773,148.531779 103.796897,146.763304 103.796897,146.763304 C103.796897,146.763304 109.682168,146.653743 114.414467,141.498704 C117.871832,137.732813 120.847025,130.45271 131.607232,128.500255 C141.348834,126.732813 147.66718,131.686302 149.981392,133.958136 C132.820152,122.056844 113.358653,139.517309 123.072865,155.591727 C123.072865,155.591727 113.62532,160.570539 104.572607,159.503355 C104.572607,159.503355 115.995346,167.837205 128.490436,161.007231 C128.870798,160.798962 129.249609,160.572606 129.625837,160.333329 C126.918343,162.179841 122.090436,164.224802 113.966405,164.219634 C99.859429,164.210849 91.0304887,154.047025 91.0304887,154.047025 C106.015501,156.555035 115.781909,150.885784 115.781909,150.885784" id="path24" fill="#A4A5A6"></path>
                        <path d="M140.112658,27.1467177 C134.511625,30.7089915 129.903873,34.9535909 126.189144,39.6289396 C108.989145,61.2749339 110.820152,92.0666644 120.758653,106.248059 C118.888886,104.3447 116.554519,101.537982 113.730747,97.3824265 C104.548318,83.8728661 103.109558,61.9705411 111.575708,45.6903865 C109.427904,47.1324019 107.097155,48.8909032 104.572607,51.031575 C91.6377238,61.9989649 91.1007729,88.0682149 91.1007729,88.0682149 C91.1007729,88.0682149 83.8563287,83.9178274 77.3777758,68.9100758 C75.9855278,65.6847529 74.9043909,61.882169 74.0630472,57.889921 C72.4754504,59.932815 70.9881119,62.3421173 69.909559,65.1049079 C62.7105927,83.5509023 67.0056831,98.5798425 67.0056831,98.5798425 C67.0056831,98.5798425 54.8599469,96.5679562 46.2712133,82.4056827 C44.6658904,79.7581375 43.3452186,77.0728663 42.2581385,74.4077501 C41.0476992,78.281135 40.3631514,82.7100755 40.9239783,87.4155017 C42.4394305,100.133331 49.9626344,106.425837 49.9626344,106.425837 C49.9626344,106.425837 43.3559679,107.241858 35.1211361,103.193796 C35.9350895,105.674416 37.0881644,108.070282 38.6720921,110.290437 C48.447389,123.992245 62.7105927,128.063563 62.7105927,128.063563 C62.7105927,128.063563 57.0620141,129.917826 45.9023761,129.05426 C39.5062006,128.559687 32.881963,126.829454 32.881963,126.829454 C32.881963,126.829454 35.6161231,131.870281 42.0530739,137.014467 C45.3185518,139.624286 48.9672339,141.735397 52.0289393,143.28165 C32.2930741,136.284751 24.575865,125.545216 20.3094569,116.576741 C26.3469244,121.004648 40.5793788,124.235139 45.2249084,123.739015 C32.9713687,117.881651 24.3273379,107.649093 20.7477514,95.7018064 C19.5415499,91.6764835 18.9088884,87.4568454 18.9088884,83.1431504 C18.924599,83.1746749 18.9423768,83.2067163 18.9583458,83.2382408 C19.0875447,83.4925044 19.2256326,83.7488351 19.3695602,84.0067162 C22.2383974,89.1395327 28.0083197,94.8036152 33.8899216,97.9550363 C35.8090947,98.9829433 37.739844,99.7472843 39.5849603,100.133331 C36.7054254,96.821703 34.767441,92.7152432 33.599379,88.2516774 C32.4451155,83.842892 32.0431517,79.0852693 32.2256323,74.4005149 C32.3449604,71.3312644 32.7153997,68.2930215 33.2907485,65.4046495 C34.2383454,60.6490941 35.7404642,56.3018074 37.5896115,52.8888876 C39.1076993,50.0878024 40.858552,47.9146241 42.7287328,46.668681 C42.7281126,49.0992236 42.8718336,51.4155543 43.1308516,53.6315232 C43.5667173,57.3648564 44.33788,60.8077504 45.3534872,63.9906961 C45.5656319,64.6558123 45.7903348,65.3074919 46.0226862,65.9509027 C48.712867,73.3932798 52.6919883,79.379843 56.5829443,84.4232537 C56.5829443,84.4232537 53.4418591,52.8279057 71.2863031,33.1084229 C74.5560705,29.4950897 78.5328146,26.2833068 83.3607214,23.7348831 C83.5855276,23.6159684 83.8056827,23.4940046 84.0346232,23.3777255 C83.9927628,23.4714206 83.9576206,23.5658909 83.9167938,23.6593793 C82.7860444,26.2330226 81.9142098,28.8610329 81.270799,31.505994 C80.273383,35.6072343 79.8139515,39.7462522 79.7364321,43.7792754 C79.6837189,46.5334355 79.8077499,49.2377249 80.0630471,51.8459935 C81.1912124,63.3762258 84.8516775,73.0310059 86.8067162,76.8232539 C85.0620134,46.0037198 105.478034,27.9788623 128.376741,23.5804128 C128.456844,23.5642888 128.537464,23.5513689 128.617051,23.5364335 C134.898188,22.3566919 141.35917,22.1979839 147.597412,23.0832036 C145.665629,23.9670278 143.831521,24.9235136 142.084234,25.9427384 C141.412916,26.3343663 140.757102,26.7368986 140.112658,27.1467177" id="path26" fill="#A4A5A6"></path>
                        <path d="M190.110073,111.653227 C187.819634,118.587077 177.615499,125.214467 177.615499,125.214467 C177.615499,125.214467 176.596378,123.143149 172.582941,122.973124 C173.328161,121.147801 173.456326,112.611367 160.892502,115.116793 C151.70904,116.948834 144.395345,117.041341 139.146767,116.601547 C132.877516,116.075966 129.558653,114.790178 129.558653,114.790178 C130.729196,114.699222 131.860979,114.589661 132.964338,114.468214 C171.275448,110.253744 169.795345,88.4609797 169.795345,88.4609797 C169.795345,88.4609797 194.853742,97.297672 190.110073,111.653227" id="path28" fill="#A4A5A6"></path>
                    </g>
                </g>
            </g>
        </g>
    </g>
</svg>