<?xml version="1.0" encoding="UTF-8"?>
<svg width="200px" height="200px" viewBox="0 0 200 200" version="1.1" xmlns="http://www.w3.org/2000/svg" xmlns:xlink="http://www.w3.org/1999/xlink">
    <title>augustana-il_BGL</title>
    <defs>
        <polygon id="path-1" points="0 0 168.20147 0 168.20147 200 0 200"></polygon>
    </defs>
    <g id="augustana-il_BGL" stroke="none" stroke-width="1" fill="none" fill-rule="evenodd">
        <g id="VikingHead_294_Blue_109_Yellow-(1)" transform="translate(16.000000, 0.000000)">
            <g id="Group-3">
                <mask id="mask-2" fill="white">
                    <use xlink:href="#path-1"></use>
                </mask>
                <g id="Clip-2"></g>
                <path d="M167.685002,196.957568 C167.649444,196.757659 164.180742,176.745517 164.15906,164.578825 L164.15906,164.124369 C164.147352,158.915028 164.132608,151.782919 165.869777,142.753626 C166.882331,137.48054 169.18974,119.884651 157.105874,111.894365 C157.163982,111.682748 157.234665,111.444678 157.295375,111.243035 C157.915917,109.176731 158.923701,105.815138 156.717331,101.699443 C156.976648,100.934498 157.55556,100.431907 158.427181,99.7237701 L158.636196,99.5546497 C158.794475,99.4249908 159.061165,99.2415602 159.343032,99.0477223 C160.835628,98.02346 163.942239,95.8929772 162.733679,92.4316472 C162.41712,91.5205655 161.993452,90.3809544 161.505605,89.0600811 C159.536003,83.7462327 156.564255,75.7143167 155.965829,70.6203248 C155.660979,68.0262787 160.766679,63.5094642 162.79222,62.355543 L165.020273,60.98827 L164.634331,59.3053056 C163.381106,52.9598231 140.053772,6.26048871 116.960604,0.145703692 C116.591141,0.0485678975 116.173544,0 115.686997,0 C111.787689,0 100.954446,3.16255068 89.0787277,10.1957893 C78.415906,16.5104833 63.5333145,27.9989593 53.1818477,46.8654192 L52.7061425,47.7318358 L54.3869387,55.2008846 L48.5635611,68.6012879 C30.5409683,75.0378353 15.1275991,78.1808721 14.9710544,78.2116606 L-0.0260185165,81.3000585 L15.2451161,83.3737343 C15.5438954,83.401921 45.3593808,86.3363761 66.0072418,101.960929 C98.1032501,126.250949 104.731467,155.573383 104.793478,155.861755 C104.793478,155.861755 105.124347,157.27933 106.368032,157.983999 C108.129052,158.982242 111.058303,159.605819 111.7569,161.843846 C114.291104,169.965525 118.264131,176.914638 123.603131,182.661694 C138.954489,199.186488 160.497387,200.026019 164.660784,200.026019 L164.662952,200.026019 C165.012467,200.026019 165.198066,200.018647 165.198066,200.018647 L168.20147,199.913705 L167.685002,196.957568" id="Fill-1" fill="#FFFFFE" mask="url(#mask-2)"></path>
            </g>
            <path d="M149.06355,158.881204 C145.61176,145.961709 146.664643,134.479738 141.455736,125.548449 C140.153076,130.956831 134.879122,135.612844 128.802064,133.139784 C122.98389,130.772967 116.89469,123.99471 110.715726,119.081546 C117.668741,163.321697 114.244704,159.852128 130.981982,182.429696 C142.511654,192.417771 161.382451,193.137183 161.382451,193.137183 C161.382451,193.137183 149.530149,160.631816 149.06355,158.881204" id="Fill-4" fill="#FFDA1B"></path>
            <path d="M141.51818,119.383795 C141.51818,119.383795 149.366666,120.326966 146.848507,115.104182 C151.310249,113.482362 152.762516,119.435832 152.762516,119.435832 C152.762516,119.435832 154.385204,136.064699 154.181826,136.671798 C153.979749,137.280198 151.748227,147.824202 151.748227,147.824202 L148.099564,137.280198 L148.300774,130.588669 L145.186358,121.148718 L141.51818,119.383795" id="Fill-5" fill="#FFDA1B"></path>
            <path d="M59.8915895,47.7756337 C59.8915895,47.7756337 76.6509833,14.2516424 115.403829,4.45437003 C136.092452,14.1172134 160.047701,54.0630082 157.636218,57.7901607 C155.240346,61.4912946 150.235684,71.288567 150.235684,71.288567 L154.807138,93.4940699 L150.670627,99.1530973 L140.654799,95.2342751 L139.568526,70.4173804 L117.364324,63.0146788 C117.364324,63.0146788 116.710826,80.2133518 124.329048,84.7852388 L124.544134,117.439778 L84.2705058,90.4451335 L55.3171007,75.4250775 L63.5888207,56.7017194 L59.8915895,47.7756337" id="Fill-6" fill="#FFDA1B"></path>
            <path d="M125.999436,51.0344529 C124.217168,50.8475532 122.597082,52.3566271 122.381128,54.404718 C122.167776,56.4519416 123.437913,58.2645649 125.219748,58.4527656 C126.141237,58.5494677 127.013725,58.186943 127.676763,57.539082 C126.293012,57.3812363 125.292166,56.135383 125.437436,54.7416578 C125.585308,53.3405607 126.834631,52.3232367 128.229223,52.470675 C128.229223,52.470675 128.229223,52.470675 128.230958,52.470675 C127.717526,51.681013 126.931766,51.1315886 125.999436,51.0344529" id="Fill-7" fill="#093A65"></path>
            <path d="M144.669456,58.0564168 C142.885887,57.8708181 141.267535,59.379892 141.051582,61.426682 C140.836062,63.4747729 142.1075,65.2878298 143.888467,65.4742959 C144.81039,65.5718653 145.682444,65.2102079 146.346783,64.5601787 C144.963466,64.4045012 143.962186,63.1582143 144.107456,61.7640554 C144.255328,60.3629583 145.50335,59.3465016 146.897942,59.4939399 C146.899677,59.4939399 146.899677,59.4939399 146.899677,59.4939399 C146.387979,58.7042779 145.60222,58.1552872 144.669456,58.0564168" id="Fill-8" fill="#093A65"></path>
            <path d="M84.5280892,83.9066803 C91.2282908,86.3979532 98.3239739,89.6667462 104.279612,93.8232042 C104.320375,84.0701633 104.427051,70.2764467 104.690271,62.5888424 C99.9210772,61.9552915 95.1397411,61.3260771 90.6766983,60.7428286 L84.5280892,83.9066803" id="Fill-9" fill="#093A65"></path>
            <path d="M96.9671083,53.3795885 C96.3053707,54.0265823 95.4324494,54.3899742 94.510093,54.2919711 C92.7269574,54.1050714 91.4576874,52.2924481 91.6723401,50.24349 C91.8869929,48.1958327 93.5075128,46.6871924 95.2884803,46.8749593 C96.2247133,46.9716615 97.0096052,47.5236877 97.5217363,48.3111815 C97.5217363,48.3111815 97.5217363,48.3111815 97.5195681,48.3111815 C96.1262765,48.1637432 94.878255,49.1793326 94.7299495,50.5825979 C94.5846794,51.9758895 95.5837905,53.2221764 96.9671083,53.3795885 Z M78.1622255,54.2160838 C77.4974524,54.8643785 76.6253984,55.2269031 75.7034756,55.1280328 C73.9216409,54.9415667 72.6506364,53.130678 72.8657228,51.0808525 C73.0808092,49.0318944 74.7008955,47.524555 76.4840311,47.711021 C77.4172286,47.8090241 78.2029878,48.3580148 78.7146853,49.1476768 C77.3192255,49.0002385 76.0690358,50.0175625 75.9220312,51.4186596 C75.7771948,52.8123848 76.7750049,54.0604063 78.1622255,54.2160838 Z M151.469396,95.3791115 C147.43826,94.4875436 146.958652,94.3270961 143.117452,93.2061317 C143.391514,85.3927712 142.469157,77.0542703 142.5767,70.6654236 C142.628304,67.6997463 125.541077,62.2193795 114.848767,60.8716203 L114.310184,68.792524 C114.310184,80.6682422 117.678715,84.3806509 122.363782,88.4178574 L122.107933,112.209189 C117.615403,109.126862 110.340626,102.691182 104.260966,98.8378396 C104.260966,98.8239631 104.260966,98.807051 104.261833,98.7910063 C88.0431907,87.8380781 61.1647623,77.3586869 61.1647623,77.3586869 C61.1647623,77.3586869 68.6832462,78.6925695 78.2684677,81.7497452 C79.8083303,76.2893259 83.6265476,62.718935 84.3056308,59.9089352 C74.7980313,58.6704538 67.9269747,57.7875588 67.9269747,57.7875588 C67.9269747,57.7875588 84.5337265,57.1219184 104.937014,58.8625572 C105.21281,56.1561978 105.53197,50.7204961 106.414865,43.864617 C86.8615164,42.5047159 66.1056785,45.7557295 66.1056785,45.7557295 C66.1056785,45.7557295 84.4738839,39.1795494 106.835064,39.9900262 C107.616921,32.1137876 110.124238,18.7788643 113.220008,11.0249127 C102.848594,12.8076148 78.9761714,27.4577741 78.9761714,27.4577741 C78.9761714,27.4577741 94.7212766,12.1250623 114.902105,7.50807658 C128.809002,12.5482969 142.095358,34.4901455 146.937837,47.1156306 C142.568895,44.8641617 139.169142,42.9470306 134.887362,41.8572884 C132.913857,28.7521953 119.104963,14.3951779 119.104963,14.3951779 C123.093602,22.5289998 126.537586,37.2658876 112.085601,40.6083996 L111.769476,44.2965244 C113.707855,44.4842913 118.429349,44.7709286 120.245008,45.01637 C134.301945,46.9235272 146.425706,52.4680731 152.299386,59.0264738 C153.512283,63.3824071 150.868368,66.6763513 148.184124,68.4278311 C147.642939,75.1145899 150.89482,81.8186943 152.35099,87.8484855 C153.237354,91.5288047 154.193101,94.0586718 151.469396,95.3791115 Z M161.546801,164.585764 C161.537694,159.150495 161.469613,151.800265 163.303484,142.261009 C164.718024,134.895167 165.545413,120.091932 155.135405,113.736042 C152.509269,112.133735 157.886429,108.297739 153.973244,102.183387 C154.187897,99.6712994 155.777628,98.5165109 156.982286,97.5317101 C158.186509,96.5473429 160.957048,95.2685328 160.266256,93.2902582 C158.680428,88.7374515 154.158843,77.6327486 153.371349,70.9238742 C152.778561,65.8784502 161.403265,59.8915895 162.073242,59.8113658 C160.846903,53.6180915 137.826587,8.37275861 116.292361,2.67036708 C112.685761,1.71678845 75.1826717,12.195746 55.4723445,48.1216799 L57.1232194,55.4615034 L50.5088788,70.6771319 C31.6185685,77.5221699 15.487522,80.7731836 15.487522,80.7731836 C15.487522,80.7731836 46.1043776,83.6239457 67.5835303,99.8781466 C100.929295,125.113939 107.348496,155.319703 107.348496,155.319703 C107.348496,155.319703 109.361029,142.942261 95.0499772,118.528219 C87.6472756,105.901867 72.9533184,90.7352399 45.564927,80.07025 L51.1758201,78.3356822 C94.9563106,93.0981549 128.306411,125.494243 128.306411,125.494243 L128.774745,82.9461634 C120.612302,77.3682271 120.730687,70.7014158 120.780122,68.1914963 C120.780122,68.1914963 123.452223,68.9299885 124.61872,69.430845 C124.61872,69.430845 131.370959,70.9056612 131.370959,76.2667765 C137.522604,79.402875 138.020858,81.1148934 138.020858,86.6902279 C137.951909,88.6979901 138.124932,88.5141259 137.980096,90.5396674 L137.980096,97.3890419 C143.08146,99.2623751 144.591401,99.5229939 149.284708,101.655211 C148.863641,101.933609 148.863641,103.263156 148.863641,103.263156 L140.395481,103.776588 C140.395481,103.776588 136.806227,107.146419 134.94677,108.021075 C134.016608,108.45862 134.607229,109.637692 135.272436,109.883133 C137.21255,110.597342 142.564992,107.428286 145.538475,107.890982 C147.65378,108.220117 148.124282,108.709698 148.059235,110.093016 C147.976844,111.818044 145.938293,112.995815 146.847206,115.107218 C155.678324,117.983131 151.977624,133.167971 151.311116,141.466577 C150.582164,128.848464 149.800742,118.963596 141.515579,119.387264 C148.277357,123.753605 145.837254,151.592116 150.46378,168.915245 C151.3818,172.352291 153.633269,175.768956 153.83101,175.782832 C153.616357,175.768956 146.207584,174.692656 140.766245,164.027666 C134.740791,152.219163 134.235164,143.127426 129.985039,138.03777 C130.581731,145.239262 130.956831,154.44071 131.950738,161.341255 C134.333601,177.940201 148.093493,187.583964 151.351879,189.653737 C151.638516,189.785998 151.874851,189.925197 152.045272,190.076104 C152.045272,190.076104 151.794627,189.933436 151.351879,189.653737 C146.021986,187.17981 120.836495,185.051495 123.254049,133.5357 C120.068515,129.146809 111.917781,116.965807 91.2191843,104.167733 C102.025108,112.569545 111.21268,128.205806 111.21268,128.205806 C105.970816,199.332191 165.113072,197.407255 165.113072,197.407255 C165.113072,197.407255 161.56935,177.115847 161.546801,164.585764 L161.546801,164.585764 Z" id="Fill-10" fill="#093A65"></path>
        </g>
    </g>
</svg>