<?xml version="1.0" encoding="UTF-8"?>
<svg width="200px" height="200px" viewBox="0 0 200 200" version="1.1" xmlns="http://www.w3.org/2000/svg" xmlns:xlink="http://www.w3.org/1999/xlink">
    <!-- Generator: Sketch 54.1 (76490) - https://sketchapp.com -->
    <title>aub-montgomery</title>
    <desc>Created with Sketch.</desc>
    <g id="aub-montgomery" stroke="none" stroke-width="1" fill="none" fill-rule="evenodd">
        <g id="aub-montgomery_BGL">
            <g id="aub-montgomery" transform="translate(0.000000, 35.000000)">
                <g id="g10" transform="translate(99.870296, 65.374841) scale(-1, 1) rotate(-180.000000) translate(-99.870296, -65.374841) translate(0.000000, 0.264596)" fill-rule="nonzero">
                    <g id="g12">
                        <path d="M186.12399,129.954861 C186.438906,130.082861 186.754859,130.204194 187.06303,130.321527 C187.06303,130.321527 186.723731,130.222861 186.12399,129.954861" id="path14" fill="#231F20"></path>
                        <path d="M13.4190399,129.954861 C12.8203888,130.222861 12.4768868,130.321527 12.4768868,130.321527 C12.7885859,130.204194 13.1037091,130.082861 13.4190399,129.954861" id="path16" fill="#231F20"></path>
                        <path d="M173.076001,100.436833 C169.272629,93.8070015 166.519321,91.0127085 155.238388,89.8246411 C140.083524,88.2319044 139.033978,90.649025 137.345262,90.852916 C145.021527,93.6549912 153.305833,103.94656 162.433718,109.440724 C167.079633,111.936703 170.117246,112.180542 173.178725,112.180542 C176.080929,112.180542 177.879632,111.748376 180.08923,111.027235 C177.375352,109.34682 175.363939,104.418674 173.076001,100.436833" id="path18" fill="#FFFFFF"></path>
                        <path d="M138.121397,90.8928641 C138.241242,90.8472091 138.365755,90.7953285 138.499089,90.740335 C140.129179,90.0632922 143.162642,88.8025918 155.212447,90.0695179 C166.473148,91.25551 169.118543,94.0316449 172.862771,100.559271 L172.862771,100.55979 C173.416857,101.523214 173.962642,102.559271 174.491306,103.561087 C176.100644,106.613746 177.626455,109.508168 179.536701,110.946301 C177.490009,111.588583 175.785728,111.934628 173.178725,111.934628 C170.236053,111.934628 167.209334,111.727105 162.549931,109.223862 C158.536961,106.808298 154.678077,103.449543 150.945262,100.201295 C146.468479,96.305056 142.226715,92.6137461 138.121397,90.8928641 L138.121397,90.8928641 Z M146.396883,89.0365736 C141.316209,89.0365736 139.467701,89.8044076 138.310243,90.2858603 C137.910243,90.4518784 137.621786,90.5717228 137.316209,90.608558 L136.295716,90.7315152 L137.260697,91.083785 C141.495198,92.6298291 145.928401,96.4876759 150.622564,100.57276 C154.370943,103.834498 158.246948,107.207779 162.30713,109.651359 C167.077039,112.214783 170.171202,112.426456 173.178725,112.426456 C176.051357,112.426456 177.850579,112.017118 180.166014,111.261216 L180.668737,111.096755 L180.218932,110.818155 C178.221007,109.58132 176.546299,106.404148 174.926584,103.331774 C174.395845,102.325808 173.847466,101.285601 173.289749,100.314394 C169.456286,93.6321637 166.752266,90.7901404 155.263809,89.5797643 C151.528401,89.1875464 148.645392,89.0365736 146.396883,89.0365736 L146.396883,89.0365736 Z" id="path20" fill="#231F20"></path>
                        <path d="M26.2700383,100.436833 C30.076627,93.8070015 32.8307644,91.0127085 44.1117499,89.8246411 C59.2627741,88.2319044 60.3159518,90.649025 62.0082994,90.852916 C54.3247717,93.6549912 46.0481441,103.94656 36.9167306,109.440724 C32.2667177,111.936703 29.2365751,112.180542 26.1756154,112.180542 C23.2731512,112.180542 21.4707128,111.748376 19.2574833,111.027235 C21.97105,109.34682 23.9826713,104.418674 26.2700383,100.436833" id="path22" fill="#FFFFFF"></path>
                        <path d="M19.8105313,110.945782 C21.7199476,109.508168 23.2459657,106.613746 24.8553042,103.561087 C25.3834494,102.559271 25.9300123,101.523214 26.4834753,100.55979 L26.4834753,100.55979 C30.2310239,94.0316449 32.8773533,91.25551 44.1376902,90.0695179 C56.181581,88.802073 59.2191944,90.0627734 60.8513603,90.7398161 C60.9857313,90.7948097 61.1107637,90.8472091 61.2311269,90.8933829 C57.1226964,92.6142649 52.8809325,96.3060936 48.4048756,100.201813 C44.6730988,103.450062 40.8146812,106.808298 36.7898823,109.230088 C32.1370161,111.727105 29.1137736,111.934628 26.1756154,111.934628 C23.5672108,111.934628 21.860181,111.588583 19.8105313,110.945782 L19.8105313,110.945782 Z M52.9509714,89.0365736 C50.7024112,89.0365736 47.821218,89.1875464 44.0860171,89.5797643 C32.5984946,90.7901404 29.8933845,93.6321637 26.0568606,100.314394 L26.0568606,100.314394 C25.4987283,101.285601 24.9503496,102.325808 24.4197659,103.331774 C22.8001551,106.404148 21.1251875,109.58132 19.1279373,110.818155 L18.6776649,111.096755 L19.1812706,111.261216 C21.5002848,112.017118 23.3019449,112.426456 26.1756154,112.426456 C29.178832,112.426456 32.2691561,112.214783 37.0330989,109.657585 C41.1053167,107.207779 44.9803361,103.835017 48.727729,100.573279 C53.4210103,96.4881947 57.8542139,92.6298291 62.0928649,91.083785 L63.0594018,90.7315152 L62.0378713,90.608558 C61.7312566,90.5717228 61.4412436,90.4513596 61.040206,90.2853415 C59.880673,89.8044076 58.0295705,89.0365736 52.9509714,89.0365736 L52.9509714,89.0365736 Z" id="path24" fill="#231F20"></path>
                        <path d="M59.0666652,58.5421516 C69.9642006,32.4238124 86.2874168,19.6737219 99.8479871,19.6737219 C113.418934,19.6737219 129.731774,32.4238124 140.642798,58.5421516 L59.0666652,58.5421516" id="path26" fill="#FFFFFF"></path>
                        <path d="M99.8479871,14.6532292 C98.3574554,23.2099086 65.4204912,53.4287924 56.5494149,59.0101153 C57.2031114,59.0817106 57.851101,59.1802839 58.4627742,59.3577158 C81.2378709,65.8905301 85.7592715,82.6090771 87.49468,90.992475 C87.7935127,92.4093362 88.1250302,94.0119302 88.4332014,94.2946799 C94.2941611,99.54241 99.8023321,99.6477277 99.8479871,99.6477277 L99.8479871,99.6477277 C99.9040183,99.6477277 105.411152,99.54241 111.272111,94.2946799 C111.579764,94.0119302 111.910244,92.4093362 112.202332,90.992475 C113.946041,82.6090771 118.467442,65.8905301 141.242539,59.3577158 C141.850061,59.1802839 142.49857,59.0817106 143.159529,59.0101153 C127.594809,51.4868988 101.34682,23.2099086 99.8479871,14.6532292" id="path28" fill="#EF3920"></path>
                        <path d="M99.8479871,6.36472098 C101.181839,13.9948116 107.075484,44.847781 132.880412,50.4545772 L132.87263,50.4699858 C132.87263,50.4699858 118.24643,59.2773007 112.794809,66.2277545 C107.35097,73.1813211 107.429829,74.7652381 99.8479871,75.2357958 C92.2749653,74.7652381 92.3450042,73.1813211 86.9027216,66.2277545 C81.4588825,59.2773007 66.8321643,50.4699858 66.8321643,50.4699858 L66.8249011,50.4545772 C92.6298291,44.847781 98.5156914,13.9948116 99.8479871,6.36472098" id="path30" fill="#FFFFFF"></path>
                        <path d="M88.6780782,89.9413726 C88.6780782,89.9413726 87.4028513,63.4687403 89.4272351,43.6269769 C89.4272351,43.6269769 81.9989603,62.1862501 79.9792457,75.1813211 L88.6780782,89.9413726" id="path32" fill="#231F20"></path>
                        <path d="M110.861216,89.9413726 C110.861216,89.9413726 112.136443,63.4687403 110.113097,43.6269769 C110.113097,43.6269769 117.539297,62.1862501 119.55953,75.1813211 L110.861216,89.9413726" id="path34" fill="#231F20"></path>
                        <path d="M173.076001,100.436833 C169.272629,93.8070015 166.519321,91.0127085 155.238388,89.8246411 C140.083524,88.2319044 139.033978,90.649025 137.345262,90.852916 C141.175613,92.2511002 145.156935,95.5138757 149.319322,99.1149132 C150.600774,96.9898808 152.925029,95.5647188 155.585988,95.5647188 C159.6332,95.5647188 162.905833,98.8399456 162.905833,102.881969 C162.905833,105.000257 162.000515,106.90324 160.560826,108.240205 C161.181838,108.659919 161.805443,109.062513 162.433718,109.440724 C167.079633,111.936703 170.117246,112.180542 173.178725,112.180542 C176.080929,112.180542 177.879632,111.748376 180.08923,111.027235 C177.375352,109.34682 175.363939,104.418674 173.076001,100.436833 L173.076001,100.436833 Z M139.113356,58.7600504 C114.427494,51.6149922 101.355639,26.6407257 99.8479871,18.0716986 C98.3418912,26.6407257 85.2700368,51.6149922 60.5878065,58.7600504 C69.5143951,58.7600504 76.1042783,64.478857 80.7045375,71.2861201 C83.3639408,58.777171 89.4272351,43.6269769 89.4272351,43.6269769 C87.5735387,61.7950698 88.4861197,85.5185452 88.6531755,89.3919563 C88.772501,89.8749653 88.8757436,90.326846 88.9618655,90.740335 C89.2539537,92.1556397 89.58599,93.7597901 89.8920859,94.044615 C95.7380002,99.2767809 99.7613464,99.3924748 99.8479871,99.3966253 C99.9351467,99.3924748 103.957974,99.2767809 109.803888,94.044615 C110.113097,93.7597901 110.452397,92.1556397 110.743447,90.740335 C110.805704,90.4389082 110.878337,90.114654 110.958752,89.7758732 L110.861216,89.9413726 C110.861216,89.9413726 112.136443,63.4687403 110.113097,43.6269769 C110.113097,43.6269769 116.242799,58.9473396 118.879374,71.4962369 C123.493123,64.5971449 130.127623,58.7600504 139.113356,58.7600504 L139.113356,58.7600504 Z M109.872371,24.6392731 C116.391696,34.8372495 124.762643,42.431698 132.529698,47.8935397 C125.999997,36.6257319 118.009336,28.4498566 109.872371,24.6392731 Z M67.1683511,47.8972232 C74.9390383,42.4330988 83.315173,34.8342404 89.835536,24.629312 C81.6975336,28.4395324 73.7011655,36.623086 67.1683511,47.8972232 Z M44.1117499,89.8246411 C32.8307644,91.0127085 30.076627,93.8070015 26.2700383,100.436833 C23.9826713,104.418674 21.97105,109.34682 19.2574833,111.027235 C21.4707128,111.748376 23.2731512,112.180542 26.1756154,112.180542 C29.2365751,112.180542 32.2667177,111.936703 36.9167306,109.440724 C37.5454206,109.062513 38.1693894,108.659919 38.7897267,108.240205 C37.350038,106.903759 36.4431119,105.000257 36.4431119,102.881969 C36.4431119,98.8399456 39.7211404,95.5647188 43.7605177,95.5647188 C46.4240715,95.5647188 48.7483775,96.9909185 50.0293632,99.1169884 C54.1919571,95.5149133 58.1737988,92.251619 62.0082994,90.852916 C60.3159518,90.649025 59.2627741,88.2319044 44.1117499,89.8246411 L44.1117499,89.8246411 Z M163.000774,118.162384 C172.08093,126.963421 182.912058,129.403369 186.12399,129.954861 C173.816338,128.074186 157.999477,124.239167 151.239426,115.391956 C143.191696,104.867442 124.54215,93.8920858 116.50324,102.682228 C108.456547,111.470814 121.235795,126.442539 121.235795,126.442539 C112.557196,121.221787 107.99014,114.360568 105.599479,108.372501 L105.599479,108.378726 C105.599479,108.378726 99.7779482,102.349154 93.7504516,108.378726 L93.7504516,108.372501 C91.3520081,114.362643 86.7916969,121.221787 78.1068722,126.442539 C78.1068722,126.442539 90.8954582,111.470814 82.8487658,102.682228 C74.8046674,93.8920858 56.1623851,104.867442 48.1146551,115.391956 C41.3470807,124.239167 25.5372237,128.074186 13.222464,129.954861 C16.4364717,129.403369 27.264487,126.963421 36.3448499,118.162384 C21.7667958,121.975094 0,107.428272 0,107.428272 C0,107.428272 8.24435777,101.745782 21.6085079,81.3006465 C27.5719319,72.1769113 64.8093369,79.5574559 65.0806728,79.6793754 C66.2376118,80.0010356 69.2140061,80.724771 69.6964963,80.8036296 C75.621788,81.7883248 77.0329423,81.9538242 76.7725013,78.3719825 C76.7263275,77.7520084 76.5795052,77.1335908 76.3584936,76.5255493 C71.8360553,69.0749658 62.9898817,61.6866392 44.6214256,59.684564 C44.6214256,59.684564 50.563786,57.7987015 58.602852,53.2892334 C67.6461721,33.8941107 80.491308,21.0027492 93.6627733,17.8722693 C96.3206202,12.5328142 98.4534346,6.59450048 99.7935124,0 L99.9040183,0 C101.245134,6.59512305 103.379505,12.5332293 106.038389,17.8739295 C119.217636,21.0053951 132.065366,33.8967047 141.108168,53.2939027 C149.143446,57.7992203 155.081708,59.684564 155.081708,59.684564 C138.525029,61.4894926 129.704277,67.6715936 124.812448,74.3299592 C123.995846,75.5999981 123.390399,76.982618 123.288713,78.3719825 C123.018933,81.9538242 124.424381,81.7883248 130.355898,80.8036296 C130.363161,80.8036296 134.69416,79.4822289 134.69416,79.4822289 C134.69416,79.4822289 171.774834,72.1769113 177.737998,81.3006465 C191.10246,101.745782 199.346299,107.428272 199.346299,107.428272 C199.346299,107.428272 177.579762,121.975094 163.000774,118.162384 L163.000774,118.162384 Z" id="path36" fill="#231F20"></path>
                    </g>
                </g>
            </g>
        </g>
    </g>
</svg>