<?xml version="1.0" encoding="UTF-8"?>
<svg width="200px" height="200px" viewBox="0 0 200 200" version="1.1" xmlns="http://www.w3.org/2000/svg" xmlns:xlink="http://www.w3.org/1999/xlink">
    <!-- Generator: Sketch 54.1 (76490) - https://sketchapp.com -->
    <title>austin</title>
    <desc>Created with Sketch.</desc>
    <g id="austin" stroke="none" stroke-width="1" fill="none" fill-rule="evenodd">
        <g id="austin_BGL">
            <g id="austin" transform="translate(0.000000, 53.000000)">
                <path d="M93.884058,0 L94.8774704,0 L95.0724638,0.0368906456 C95.6205534,0.113306983 96.173913,0.0816864295 96.7193676,0.166007905 C97.4756258,0.782608696 98.3162055,1.55731225 98.8985507,2.34255599 C98.3557312,3.86824769 97.6890646,5.46508564 97.9789196,7.1198946 C98.0843215,8.31620553 98.911726,9.1198946 99.7944664,9.83399209 C100.637681,10.8194993 101.799736,11.0592885 102.998682,11.6258235 C104.985507,12.2002635 107.011858,12.5849802 109.090909,12.5217391 C111.815547,12.6324111 114.534914,12.5270092 117.259552,12.6007905 C121.665349,12.571805 126.30303,12.3636364 130.698287,12.8853755 C132.566535,13.0909091 133.799736,14.4505929 135.704875,14.5006588 C136.729908,14.6482213 137.362319,14.4374177 138.039526,13.6653491 C138.656126,12.8458498 139.599473,12.4242424 140.134387,11.5520422 C140.801054,10.6113307 141.905138,9.90513834 142.808959,9.19894598 C144.071146,8.171278 145.633729,7.74967062 146.895916,6.71936759 C147.552042,6.18445323 148.284585,6.26350461 149.085639,5.97101449 C150.740448,5.37549407 152.447958,4.97496706 154.113307,4.41633729 C158.108037,3.66534914 162.268775,4.16337286 165.968379,5.84716733 C167.206851,6.3030303 168.179183,7.11198946 169.306983,7.76811594 C170.392622,8.50065876 171.357049,9.41238472 172.392622,10.2134387 C173.214756,10.7905138 173.375494,11.7812912 174.181818,12.3820817 C176.055336,13.9762846 177.196311,16.226614 178.964427,17.8708827 C180.028986,19.0223979 182.084321,18.8063241 183.528327,18.8484848 C183.180501,16.914361 183.306983,14.8537549 183.515152,12.9064559 C183.599473,12.0658762 183.831357,11.3096179 184.197628,10.5507246 C184.437418,9.56785244 185.789196,9.54677207 186.57444,9.09090909 C187.264822,9.39657444 188.00527,9.64163373 188.648221,10.0395257 C189.022398,10.7246377 189.249012,11.7180501 189.833992,12.2687747 C191.235837,13.1884058 192.31357,14.85639 192.729908,16.4690382 C192.943347,17.6337286 192.803689,18.8880105 192.743083,20.0632411 C193.525692,20.8616601 194.476943,21.3596838 195.383399,21.9947299 C195.615283,22.7035573 195.747036,23.43083 195.915679,24.1554677 C196.094862,24.5849802 196.606061,24.9038208 196.977602,25.1594203 C197.665349,25.599473 198.171278,26.229249 198.819499,26.743083 C199.783926,27.428195 199.976285,28.9670619 199.754941,30.0447958 C199.69697,30.8880105 199.069829,31.4413702 198.379447,31.831357 C197.304348,32.4057971 196.384717,33.1357049 195.256917,33.4808959 C194.693017,33.5309618 194.057971,33.4677207 193.507246,33.3386034 C192.366271,32.7720685 191.264822,32.2555995 189.98419,32.0790514 C189.075099,31.9947299 188.258235,31.5915679 187.349144,31.5072464 C186.089592,31.3517787 184.645586,31.2859025 183.422925,31.6706192 C182.527009,32.1212121 181.786561,32.8458498 180.916996,33.3544137 C179.388669,34.4057971 178.27668,35.7206851 176.289855,35.8050066 C174.698287,35.7259552 173.167325,35.3280632 171.559947,35.3280632 C171.396574,36.7667984 170.888011,38.1080369 170.664032,39.5309618 C170.656126,40.171278 169.826087,40.4980237 169.393939,40.8722003 C170.55863,42.9328063 171.968379,44.8379447 173.085639,46.9354414 C173.478261,47.8076416 173.818182,48.8036891 174.405797,49.5652174 C175.061924,50.3214756 175.926219,50.4110672 176.708827,50.9486166 C178.068511,51.8550725 179.378129,52.8405797 180.637681,53.8787879 C181.849802,54.859025 183.262187,55.6126482 184.750988,56.0737813 C186.853755,56.5111989 188.392622,55.4782609 190.26614,54.7826087 C191.201581,55.2042161 192.086957,55.7470356 192.977602,56.2529644 C193.130435,57.3913043 193.291173,58.4453228 192.880105,59.5546772 C192.374177,61.1330698 190.972332,61.8445323 189.459816,62.2002635 C188.505929,62.3504611 187.689065,62.798419 186.880105,63.3017128 C186.221344,63.8023715 185.256917,63.9104084 184.453228,64.0131752 C183.249012,63.7444005 181.857708,63.3860343 180.893281,62.5823452 C180.326746,62.1291173 180.031621,61.544137 179.380764,61.1963109 C177.844532,60.3399209 176.387352,59.3833992 174.766798,58.687747 C173.080369,57.8550725 171.646904,56.9459816 169.70224,56.8142292 C168.695652,56.7852437 167.747036,56.5612648 166.874835,56.0447958 C166.59552,55.7075099 166.366271,55.3306983 166.086957,54.9907773 C165.001318,53.8392622 165.043478,51.8787879 164.208169,50.5480896 C163.399209,49.4071146 162.716733,48.1870883 161.891963,47.0566535 C161.293808,46.1844532 160.603426,45.5256917 160.163373,44.5612648 C159.557312,43.3069829 158.587615,42.5243742 157.652174,41.5573123 C156.181818,39.7865613 154.237154,38.3899868 152.361001,37.085639 C151.681159,35.8735178 151.288538,34.4795784 150.695652,33.2226614 C150.474308,32.8115942 150.205534,32.2714097 149.778656,32.0447958 C148.822134,31.6310935 147.736495,31.5625823 146.766798,31.3913043 C144.666667,30.801054 142.86693,29.7575758 140.951252,28.7588933 C139.320158,27.9183136 138.036891,26.2898551 136.450593,25.3517787 C135.206851,24.7799736 134.210804,23.9183136 133.046113,23.2042161 C130.808959,22.284585 128.629776,22.2187088 126.250329,21.828722 C123.783926,21.5783926 121.320158,21.3754941 118.84058,21.3754941 C115.41502,21.2358366 111.98419,21.027668 108.5639,20.801054 C106.123847,20.687747 103.833992,19.997365 101.475626,19.4202899 C100.007905,18.8353096 98.5191041,18.057971 97.2173913,17.1541502 C96.2766798,16.3399209 95.4255599,15.4229249 94.5032938,14.5876153 C94.0474308,14.2028986 93.7786561,13.7233202 93.4967062,13.2121212 C93.1884058,12.6613966 92.6245059,12.4822134 92.4743083,11.8603426 C92.0131752,10.4690382 91.5125165,9.06982872 91.1831357,7.64163373 C90.8432148,5.58102767 91.4888011,3.33596838 91.9235837,1.2911726 C92.4374177,0.740447958 93.2516469,0.41370224 93.884058,0 Z" id="Shape" fill="#FDB814" fill-rule="nonzero"></path>
                <path d="M96.0948617,2.86166008 C95.4650856,4.80105402 95.2147563,6.77206851 95.8471673,8.75098814 C96.5823452,10.3109354 97.8023715,11.6100132 99.3623188,12.3636364 C100.516469,12.8168643 101.520422,13.486166 102.737813,13.8050066 C104.30303,14.1897233 105.902503,14.5533597 107.507246,14.7299078 C109.878788,14.8722003 112.247694,15.0171278 114.624506,14.8959157 C117.44137,15.0461133 120.242424,14.916996 123.056653,14.8168643 C124.482213,14.7483531 125.852437,14.9828722 127.272727,15.0329381 C128.392622,15.0961792 129.567852,15.1014493 130.661397,15.3544137 C131.675889,15.6469038 132.656126,16.1317523 133.633729,16.5270092 C134.793149,16.9222661 136.076416,17.0197628 137.293808,16.9407115 C138.189723,16.6324111 139.180501,16.168643 139.736495,15.3675889 C140.487484,14.2608696 141.41502,13.1172596 142.555995,12.400527 C143.196311,11.9841897 143.778656,11.4967062 144.389987,11.0434783 C145.156785,10.4611331 146.065876,10.1343874 146.83531,9.54940711 C148.461133,8.40052701 150.27668,7.81554677 152.171278,7.27009223 C153.306983,6.97233202 154.27668,6.47167325 155.465086,6.38998682 C157.963109,6.15810277 160.735178,6.19235837 163.109354,7.08827404 C164.250329,7.48089592 165.599473,7.89986825 166.498024,8.73254282 C167.283267,9.47035573 168.279315,9.89459816 169.072464,10.629776 C170.550725,11.9288538 172.068511,12.7720685 173.13307,14.4848485 C173.617918,15.3833992 174.347826,16.057971 174.935441,16.8827404 C175.533597,17.6469038 175.986825,18.4137022 176.803689,18.9749671 C177.704875,19.6231884 178.31357,20.4216074 179.44664,20.627141 C181.083004,21.0118577 182.787879,21.2332016 184.458498,21.428195 C185.285903,21.2964427 185.926219,20.7272727 186.819499,20.7325428 C186.56917,19.8418972 186.071146,19.0935441 185.918314,18.1791831 C185.628458,16.801054 185.768116,15.3675889 185.847167,13.9657444 C185.926219,13.1146245 185.913043,12.3003953 186.54809,11.6416337 C187.225296,12.5454545 187.789196,13.4993412 188.629776,14.2714097 C189.40975,15.1014493 190.342556,16.1976285 190.382082,17.3886693 C190.453228,18.8036891 190.295125,20.1818182 190.200264,21.5836627 C191.16996,21.9841897 192.081686,22.5349144 192.953887,23.1198946 C193.725955,23.5098814 193.16996,24.743083 193.731225,25.2252964 C194.85112,26.3899868 196.055336,27.4756258 197.214756,28.6007905 C197.617918,29.0013175 197.465086,29.6627141 197.040843,29.9815547 C196.527009,30.3557312 195.97365,30.6772069 195.433465,31.0144928 C194.869565,31.4255599 194.086957,31.3386034 193.520422,30.9776021 C192.329381,30.2503294 191.046113,30.0184453 189.6917,29.8155468 C188.421607,29.3623188 187.114625,29.0619236 185.770751,28.9433465 C184.389987,28.9249012 183.001318,29.3306983 181.812912,30.0210804 C180.961792,30.5111989 180.353096,31.2332016 179.462451,31.6205534 C178.519104,32.057971 177.72859,32.7483531 176.811594,33.2173913 C175.862978,33.5494071 174.656126,33.0540184 173.652174,33.0250329 C172.690382,32.9960474 171.70224,32.7852437 170.745718,32.8616601 C170.123847,33.1963109 169.507246,33.4624506 169.338603,34.2213439 C168.964427,35.6442688 168.85112,37.2700922 168.28722,38.6508564 C167.852437,39.0250329 167.264822,39.198946 166.84058,39.5783926 C166.450593,40.1080369 166.629776,41.0223979 166.874835,41.5862978 C167.72859,43.0592885 168.940711,44.3293808 169.675889,45.8629776 C170.305665,47.1357049 171.188406,48.2555995 171.839262,49.5125165 C172.210804,50.3610013 172.943347,51.0513834 173.565217,51.7259552 C174.87747,52.7114625 176.318841,53.5204216 177.594203,54.5638999 C178.329381,55.1725955 179.214756,55.5467721 179.894598,56.2055336 C180.168643,56.4664032 180.426877,56.6956522 180.795784,56.8089592 C182.055336,57.2516469 183.383399,58.0764163 184.711462,58.2819499 C186.440053,58.4822134 188.113307,58.1001318 189.670619,57.3623188 C190.134387,57.1383399 190.3083,57.259552 190.714097,57.5046113 C190.690382,58.1027668 190.766798,58.6403162 190.355731,59.1304348 C189.599473,59.831357 188.437418,59.8234519 187.491436,60.2108037 C186.458498,60.5296443 186.147563,61.5757576 184.988142,61.7206851 C183.536232,61.9314888 182.782609,60.9354414 181.794466,60.1054018 C180.29776,58.9328063 178.679842,57.8682477 176.969697,57.0355731 C175.523057,56.6429513 174.187088,56 172.84585,55.3438735 C171.457181,54.6745718 169.725955,54.7325428 168.358366,54.0500659 C167.277997,53.4071146 167.088274,51.9762846 166.777339,50.8537549 C166.577075,49.6073781 165.878788,48.7378129 165.246377,47.6811594 C164.432148,46.4347826 163.604743,45.0909091 162.5639,44.0289855 C162.055336,43.4703557 161.73386,42.7588933 161.267457,42.1581028 C160.263505,40.8774704 159.264822,39.6073781 158.121212,38.4453228 C157.573123,37.9156785 156.814229,37.6969697 156.245059,37.1778656 C155.670619,36.6719368 155.080369,36.2213439 154.450593,35.7891963 C153.731225,35.3886693 153.617918,34.4637681 153.44137,33.7338603 C153.206851,32.1185771 152.031621,30.6745718 150.59552,29.9499341 C149.13834,29.4782609 147.612648,29.3280632 146.274045,28.6613966 C144.577075,27.9604743 143.001318,27.0645586 141.375494,26.2160738 C140.613966,25.8339921 140.076416,25.2490119 139.407115,24.743083 C137.391304,23.2226614 135.557312,21.7180501 133.225296,20.6824769 C131.631094,20.0606061 129.981555,19.8735178 128.300395,19.6442688 C121.491436,18.5849802 114.29249,19.1067194 107.375494,18.5270092 C106.184453,18.3926219 105.009223,17.9894598 103.823452,17.7470356 C102.358366,17.4756258 100.8722,16.9538867 99.7786561,15.9077734 C98.2345191,15.0671937 97.2832675,13.6811594 95.9209486,12.6245059 C95.428195,12.2397892 94.9855072,11.8023715 94.6534914,11.2674572 C93.3280632,8.58761528 93.3939394,5.7997365 93.7997365,2.90645586 C94.226614,1.98945982 95.5335968,2.04216074 96.0948617,2.86166008 Z" id="Shape" fill="#B20838" fill-rule="nonzero"></path>
                <path d="M135.704875,36.6824769 C139.981555,36.7114625 144.052701,36.5902503 148.105402,38.173913 C149.272727,38.8353096 150.239789,39.8102767 150.811594,41.030303 C151.554677,42.6139657 151.660079,44.4189723 151.525692,46.1370224 C153.599473,46.1501976 155.689065,45.9393939 157.762846,45.9736495 C155.720685,46.1370224 153.654809,46.3267457 151.612648,46.5085639 C151.233202,46.8432148 151.341238,47.7338603 151.249012,48.2134387 C153.106719,48.0184453 155.040843,47.6916996 156.914361,47.5520422 C154.977602,47.8682477 153.054018,48.2160738 151.1278,48.5876153 C150.458498,52.3557312 149.754941,56.1212121 149.13834,59.8972332 C146.279315,60.0474308 143.370224,59.9393939 140.500659,59.9499341 C141.204216,60.4505929 141.99473,60.7562582 142.716733,61.2332016 C143.694335,61.831357 144.476943,62.6113307 145.378129,63.3175231 C145.963109,63.8919631 146.458498,64.6587615 146.635046,65.4677207 C146.84585,66.4189723 147.162055,67.2806324 147.243742,68.2476943 C147.396574,69.6152833 147.177866,70.8959157 146.906456,72.229249 C146.695652,73.2779974 146.682477,74.3372859 146.5639,75.3965744 C145.98419,78.914361 145.362319,82.4163373 144.637681,85.9051383 C144.242424,87.9920949 143.111989,90.0474308 141.610013,91.541502 C140.698287,92.3109354 139.765481,93.2305665 138.632411,93.5942029 C136.429513,94.4769433 134.197628,94.5270092 131.897233,94.8616601 L121.246377,94.8616601 C120.624506,94.6587615 120.013175,94.6693017 119.367589,94.5849802 C117.631094,94.3741765 115.799736,93.9631094 114.252964,93.1251647 C113.628458,92.8063241 113.230567,92.2345191 112.756258,91.715415 C111.807642,90.6903821 111.343874,89.3280632 111.088274,87.9815547 C110.793149,84.6192358 111.523057,81.6627141 112.086957,78.397892 C112.545455,75.5731225 113.306983,72.6824769 113.465086,69.8234519 C113.499341,69.4071146 113.565217,68.9960474 113.641634,68.5849802 C116.608696,68.5507246 119.602108,68.6640316 122.5639,68.5270092 C121.949934,67.8761528 120.938076,67.7022398 120.255599,67.1040843 C119.243742,66.2213439 118.231884,65.4808959 117.454545,64.3662714 C116.938076,63.5942029 116.332016,62.8458498 116.079051,61.9631094 C115.549407,60.3741765 115.517787,58.7588933 115.644269,57.1040843 C114.88274,57.2437418 114.121212,57.486166 113.428195,57.831357 C113.064559,58.0263505 113.130435,58.4057971 113.035573,58.7615283 C112.532279,62.0158103 111.828722,65.2279315 111.330698,68.4848485 C110.779974,71.0250329 110.450593,73.602108 109.928854,76.1501976 C109.222661,79.8471673 108.750988,83.9130435 107.467721,87.4571805 C106.945982,88.5270092 106.743083,89.5783926 105.997365,90.4505929 C104.951252,91.8366271 103.486166,92.8405797 101.857708,93.4202899 C100.756258,93.7839262 99.71278,94.2055336 98.5480896,94.3346509 C95.4624506,94.7246377 92.4163373,94.7351779 89.3280632,94.7220026 C86.6113307,94.7167325 83.7891963,94.687747 81.1225296,94.1264822 C79.2147563,93.5968379 77.1646904,92.743083 75.9815547,91.0724638 C75.1067194,89.8234519 74.6060606,88.2213439 74.6613966,86.6930171 C74.6666667,83.7180501 75.3412385,81.0355731 75.7891963,78.1212121 C75.9736495,76.8511199 76.2766798,75.6047431 76.4716733,74.3372859 C77.2068511,73.942029 77.9235837,73.5046113 78.6745718,73.1383399 C78.8458498,73.0382082 79.0065876,73.0671937 79.1488801,73.2226614 C78.5191041,76.3847167 78.0316206,79.5678524 77.4545455,82.7378129 C77.2648221,84.2081686 77.0197628,85.7391304 77.1040843,87.2200264 C77.1725955,88.7799736 78.1791831,90.2345191 79.5678524,90.9301713 C80.8221344,91.715415 82.1396574,91.7971014 83.5625823,92.0395257 C87.140975,92.3372859 90.7483531,92.3320158 94.3346509,92.2160738 C96.6007905,92.0711462 99.088274,92.1054018 101.14888,91.0671937 C102.732543,90.4822134 103.881423,89.3359684 104.85112,87.9947299 C105.878788,86.1660079 106.187088,84.168643 106.632411,82.168643 C106.801054,81.3965744 106.819499,80.6218709 106.8722,79.8366271 C107.096179,77.5915679 107.657444,75.4413702 107.981555,73.2200264 C108.442688,70.5032938 109.003953,67.8076416 109.428195,65.083004 C109.731225,63.0592885 110.324111,61.030303 110.455863,58.9907773 C108.56917,59.3860343 106.603426,60.4795784 104.83004,61.0592885 C103.620553,61.5388669 102.418972,62.0289855 101.204216,62.4953887 C100.139657,62.1791831 100.181818,60.6561265 100.155468,59.773386 C101.604743,59.0619236 103.225296,58.687747 104.748353,58.1501976 C106.445323,57.7338603 107.844532,56.8695652 109.615283,56.7457181 C110.00527,56.6534914 110.824769,56.6693017 111.038208,56.2793149 C111.225296,55.1831357 111.488801,54.0474308 111.541502,52.9354414 C110.613966,53.0803689 109.704875,53.3043478 108.811594,53.5889328 C108.484848,52.859025 107.920949,51.8629776 108.223979,51.0592885 C109.462451,50.8036891 110.85639,50.6719368 112.047431,50.3794466 C112.445323,48.972332 112.545455,47.4334651 112.708827,45.9815547 C112.909091,44.3293808 112.674572,42.3610013 111.42556,41.14361 C110.142292,39.8708827 108.28722,39.5230567 106.57971,39.1963109 C103.776021,38.8748353 100.84585,38.9064559 98.0237154,38.9064559 C95.2964427,38.9301713 92.3662714,38.9670619 89.71278,39.6653491 C88.9090909,39.9104084 87.997365,40.1633729 87.3227931,40.685112 C86.4110672,41.4782609 85.541502,42.2424242 84.9617918,43.3280632 C83.7391304,45.2173913 83.5072464,47.7549407 83.0724638,49.9288538 C82.4822134,52.5270092 82.226614,55.1963109 81.6047431,57.7865613 C81.1172596,58.4216074 80.0237154,58.5480896 79.312253,58.859025 C79.4044796,57.314888 79.8919631,55.8234519 80.0658762,54.2819499 C80.28722,53.0092227 80.2160738,51.7364954 80.4901186,50.4690382 C81.0039526,48.0052701 81.2279315,45.372859 82.3741765,43.1119895 C83.3412385,40.7720685 85.2200264,39.0013175 87.483531,37.9262187 C88.4031621,37.715415 89.3333333,37.5546772 90.2476943,37.3280632 C94.1976285,36.6113307 98.4874835,36.7588933 102.503294,36.7773386 C105.022398,36.7852437 107.42029,37.0461133 109.849802,37.7180501 C111.146245,37.8656126 112.242424,38.5059289 113.14888,39.4150198 C113.826087,40.5032938 114.529644,41.71278 114.753623,42.9802372 C115.246377,45.2490119 114.679842,47.7997365 114.376812,50.0816864 C115.241107,50.0210804 116.073781,49.8208169 116.927536,49.7101449 C117.230567,48.6034256 117.335968,47.4519104 117.641634,46.342556 C118,44.5480896 118.85112,42.8247694 119.765481,41.2490119 C120.368906,39.7470356 121.942029,38.6719368 123.362319,38.0184453 C124.645586,37.6969697 125.952569,37.428195 127.243742,37.1225296 C130.023715,36.7061924 132.895916,36.7167325 135.704875,36.6824769 Z M116.537549,51.6653491 C115.662714,51.8339921 114.795784,52.0052701 113.942029,52.2608696 C113.789196,53.3596838 113.478261,54.4927536 113.515152,55.602108 C114.337286,55.3781291 115.267457,55.2490119 116.028986,54.8695652 C116.245059,53.8418972 116.463768,52.7114625 116.537549,51.6653491 Z" id="Shape" fill="#FDB814" fill-rule="nonzero"></path>
                <path d="M62.4505929,36.7536232 C66.0632411,36.7694335 70.0368906,36.6613966 73.5177866,37.6996047 C75.7918314,38.1027668 77.6811594,39.9262187 78.3504611,42.113307 C79.0724638,44.4479578 78.7061924,46.6561265 78.3504611,49.0092227 C77.7206851,52.6218709 77.0540184,56.2476943 76.4242424,59.8524374 C76.1449275,61.4255599 75.7891963,62.9802372 75.5599473,64.5638999 C75.2411067,66.345191 74.9617918,68.1317523 74.6166008,69.9077734 C73.9077734,70.2345191 73.1936759,70.9222661 72.4057971,70.9591568 C72.3741765,70.5797101 72.3689065,70.1976285 72.3873518,69.8129117 C72.8722003,67.5836627 73.2516469,65.2727273 73.5915679,63.0171278 C73.7839262,59.5625823 74.6455863,56.3689065 75.1725955,52.9617918 C75.370224,51.4123847 75.8102767,49.9156785 75.9920949,48.3636364 C76.2397892,46.6060606 76.6192358,44.5217391 76.0079051,42.8115942 C75.5599473,41.4150198 74.4611331,40.5638999 73.2173913,39.8972332 C70.972332,39.0566535 68.2529644,39.0223979 65.8761528,38.9249012 C62.2134387,38.9090909 58.4453228,38.798419 54.8089592,39.2806324 C52.7061924,39.6864295 50.4479578,40.4795784 49.0408432,42.1844532 C48.1422925,43.3254282 47.4413702,44.6587615 47.1225296,46.0790514 C46.7747036,47.312253 46.7905138,48.5454545 46.6350461,49.8023715 C46.0500659,52.7694335 45.6310935,55.7654809 45.0171278,58.7272727 C44.1264822,64.0210804 43.0803689,69.3227931 42.2108037,74.6034256 C41.8234519,76.5322793 41.4650856,78.458498 41.1646904,80.4031621 C40.7114625,82.6192358 40.3214756,84.9591568 40.400527,87.2252964 C40.4084321,87.9051383 40.6666667,88.4927536 40.9486166,89.0961792 C40.4769433,89.6943347 39.884058,90.1370224 39.2516469,90.5454545 C37.8392622,88.3662714 38.2766798,86.3083004 38.3241107,83.8919631 C38.7931489,81.4967062 39.1357049,79.0803689 39.5757576,76.6798419 C39.6627141,76.342556 39.5757576,76.1343874 39.314888,76.055336 C39.4571805,75.9815547 39.599473,75.9104084 39.7417655,75.8392622 C40.0685112,74.6403162 40.1528327,73.4334651 40.2318841,72.1976285 C40.3346509,70.5849802 40.7773386,69.0671937 41.0144928,67.4624506 C41.5230567,64.28722 42.1923584,61.1462451 42.6903821,57.9710145 C43.4598155,54.0158103 44.0606061,50.0184453 44.9064559,46.0790514 C45.2516469,44.2028986 46.1791831,42.7009223 46.9802372,40.9249012 C47.6943347,39.9104084 48.7378129,39.0909091 49.7997365,38.4664032 C50.9881423,37.7048748 52.2819499,37.7839262 53.7048748,37.3254282 C56.5428195,36.740448 59.5625823,36.7931489 62.4505929,36.7536232 Z" id="Shape" fill="#FDB814" fill-rule="nonzero"></path>
                <path d="M9.7259552,37.085639 C10.0869565,37.0382082 10.4453228,37.0144928 10.8036891,37.0223979 C17.1277997,37.0566535 23.4545455,36.9907773 29.7760211,37.0540184 C31.9235837,37.0461133 33.997365,37.3807642 36.1027668,37.7549407 C37.4677207,37.8603426 38.6772069,38.4822134 39.7364954,39.3175231 C41.0144928,40.7905138 41.8761528,42.5559947 41.9762846,44.5296443 C42.0632411,46.8880105 41.5968379,49.3412385 41.1330698,51.6469038 C40.8247694,53.5757576 40.4716733,55.5046113 40.2108037,57.4387352 C40.1501976,59.1884058 39.7048748,60.8748353 39.0171278,62.4743083 C38.1343874,64.0131752 37.0540184,65.3886693 35.6416337,66.4743083 C36.5797101,67.5731225 37.2384717,68.9196311 37.4413702,70.3530962 C37.654809,72.5085639 37.3570487,74.5876153 36.8853755,76.6824769 C36.8221344,76.9433465 36.8774704,77.1541502 37.0540184,77.314888 C36.6561265,77.7575758 36.6403162,78.2635046 36.5322793,78.8194993 C36.2134387,81.1304348 35.6732543,83.3992095 35.3438735,85.7075099 C34.7799736,88.6034256 34.2661397,91.5072464 33.7865613,94.4216074 C32.7931489,94.5006588 31.8339921,94.4453228 30.8300395,94.458498 C21.5204216,94.458498 12.2081686,94.458498 2.89855072,94.458498 C1.94729908,94.4505929 0.951251647,94.4927536 0,94.4216074 L0,94.0658762 C0.0869565217,93.6310935 0.131752306,93.1963109 0.152832675,92.7536232 C0.263504611,90.4795784 0.866930171,88.3820817 1.19104084,86.1923584 C1.70223979,83.0909091 2.34255599,80.0131752 2.82476943,76.9038208 C3.4229249,74.113307 3.7654809,71.2779974 4.36627141,68.4848485 C4.87747036,65.2332016 5.55467721,62.0158103 6.0685112,58.7641634 C6.27140975,57.4334651 6.64295125,56.1660079 6.69565217,54.8089592 C6.79314888,52.4795784 7.36231884,50.3794466 7.73386034,48.0922266 C8.00527009,46.627141 8.18708827,45.1567852 8.52437418,43.7075099 C8.93017128,41.5046113 9.22529644,39.2700922 9.7259552,37.085639 Z" id="Shape" fill="#FDB814" fill-rule="nonzero"></path>
                <path d="M65.8761528,38.9249012 C68.2529644,39.0223979 70.972332,39.0566535 73.2173913,39.8972332 C74.4611331,40.5638999 75.5599473,41.4150198 76.0079051,42.8115942 C76.6192358,44.5217391 76.2397892,46.6060606 75.9920949,48.3636364 C75.8102767,49.9156785 75.370224,51.4123847 75.1725955,52.9617918 C74.6455863,56.3689065 73.7839262,59.5625823 73.5915679,63.0171278 C73.2516469,65.2727273 72.8722003,67.5836627 72.3873518,69.8129117 C72.1870883,70.4137022 72.397892,71.2042161 71.6943347,71.4413702 C70.2951252,72.1528327 68.8722003,72.8247694 67.483531,73.5599473 C66.055336,74.4242424 64.56917,75.3754941 62.969697,75.8787879 C61.201581,76.5322793 59.8945982,77.8102767 58.2187088,78.5480896 C58.5217391,76.1607378 59.1093544,73.826087 59.4466403,71.4413702 C59.8550725,69.4044796 60.2503294,67.43083 60.3293808,65.3465086 C61.088274,60.8695652 61.9341238,56.3873518 62.7114625,51.9104084 C62.8748353,50.8774704 63.3333333,49.6363636 63.088274,48.6086957 C62.6376812,47.6337286 61.3438735,47.7206851 60.4611331,47.8445323 C59.4571805,48.5111989 59.3175231,49.7812912 59.0408432,50.85639 C58.6455863,53.0013175 58.3926219,55.1831357 57.8919631,57.314888 C56.9354414,63.1515152 55.7602108,68.9934124 54.8247694,74.8326746 C54.3820817,76.9275362 53.9920949,79.0487484 53.7470356,81.1778656 C53.0487484,82.1080369 52.0184453,82.0447958 51.1040843,82.7193676 C49.4123847,83.8339921 47.5652174,84.7720685 46.0500659,86.1106719 C45.1172596,86.7641634 44.1449275,87.3649539 43.2094862,88.0158103 C42.9960474,88.1870883 42.5876153,88.4479578 42.740448,88.7694335 C43.2384717,90.6139657 44.1238472,92.3320158 44.7140975,94.1528327 C45.1251647,94.342556 45.6416337,94.3293808 46.0843215,94.4110672 L46.1949934,94.4268775 C42.1317523,94.516469 38.0606061,94.4295125 33.997365,94.4822134 C34.1080369,94.2740448 34.2529644,94.1106719 34.4321476,93.9920949 C36.0368906,92.8432148 37.6310935,91.6785244 39.2516469,90.5454545 C39.884058,90.1370224 40.4769433,89.6943347 40.9486166,89.0961792 C40.6666667,88.4927536 40.4084321,87.9051383 40.400527,87.2252964 C40.3214756,84.9591568 40.7114625,82.6192358 41.1646904,80.4031621 C41.4650856,78.458498 41.8234519,76.5322793 42.2108037,74.6034256 C43.0803689,69.3227931 44.1264822,64.0210804 45.0171278,58.7272727 C45.6310935,55.7654809 46.0500659,52.7694335 46.6350461,49.8023715 C46.7905138,48.5454545 46.7747036,47.312253 47.1225296,46.0790514 C47.4413702,44.6587615 48.1422925,43.3254282 49.0408432,42.1844532 C50.4479578,40.4795784 52.7061924,39.6864295 54.8089592,39.2806324 C58.4453228,38.798419 62.2134387,38.9090909 65.8761528,38.9249012 Z" id="Shape" fill="#B20838" fill-rule="nonzero"></path>
                <path d="M98.0237154,38.9064559 C100.84585,38.9064559 103.776021,38.8748353 106.57971,39.1963109 C108.28722,39.5230567 110.142292,39.8708827 111.42556,41.14361 C112.674572,42.3610013 112.909091,44.3293808 112.708827,45.9815547 C112.545455,47.4334651 112.445323,48.972332 112.047431,50.3794466 C110.85639,50.6719368 109.462451,50.8036891 108.223979,51.0592885 C107.201581,51.1488801 106.255599,51.483531 105.264822,51.7233202 C103.296443,52.1027668 101.285903,52.4848485 99.4018445,53.1752306 L99.2753623,52.7114625 C99.3754941,51.4176548 100,50.0474308 99.8102767,48.7667984 C99.5309618,47.7760211 98.6218709,47.7523057 97.7575758,47.7812912 C96.9090909,47.7338603 96.2608696,48.2793149 95.9631094,49.0408432 C95.4440053,50.397892 95.3570487,52.0237154 95.027668,53.4571805 C94.9617918,53.7180501 94.8959157,53.9789196 94.8300395,54.2397892 C93.0461133,54.9222661 91.1594203,55.3280632 89.3306983,55.8787879 C88.2608696,56.1501976 87.2463768,56.571805 86.1607378,56.7325428 C84.6903821,56.9512516 83.3623188,57.5467721 81.9472991,57.9104084 L81.6047431,57.7865613 C82.226614,55.1963109 82.4822134,52.5270092 83.0724638,49.9288538 C83.5072464,47.7549407 83.7391304,45.2173913 84.9617918,43.3280632 C85.541502,42.2424242 86.4110672,41.4782609 87.3227931,40.685112 C87.997365,40.1633729 88.9090909,39.9104084 89.71278,39.6653491 C92.3662714,38.9670619 95.2964427,38.9301713 98.0237154,38.9064559 Z" id="Shape" fill="#B20838" fill-rule="nonzero"></path>
                <path d="M135.177866,38.8537549 C138.028986,38.8642951 141.054018,38.7826087 143.873518,39.2200264 C144.801054,39.4150198 145.934124,39.5388669 146.711462,40.1027668 C147.454545,40.6192358 148.131752,41.1277997 148.534914,41.9631094 C149.241107,43.3280632 149.209486,44.7720685 149.038208,46.2582345 C145.459816,46.4479578 141.870883,46.5955204 138.310935,46.9907773 C136.463768,47.1304348 134.606061,47.2305665 132.774704,47.5177866 C128.31357,47.8893281 123.939394,48.5770751 119.496706,49.2332016 C119.725955,48.1949934 119.955204,47.1725955 120.034256,46.1080369 C120.115942,44.801054 120.916996,43.6389987 121.581028,42.5322793 C122.988142,40.4611331 125.177866,39.7075099 127.533597,39.256917 C130.076416,38.8880105 132.613966,38.8458498 135.177866,38.8537549 Z" id="Shape" fill="#B20838" fill-rule="nonzero"></path>
                <path d="M11.7417655,39.370224 C11.9710145,39.0909091 12.5797101,39.2121212 12.911726,39.1778656 C17.654809,39.1963109 22.397892,39.1778656 27.140975,39.1857708 C29.0619236,39.198946 30.9960474,39.2463768 32.9090909,39.43083 C34.6693017,39.7391304 36.5059289,39.9683794 37.9894598,41.0540184 C39.1936759,41.9367589 39.7470356,43.3386034 39.8181818,44.7957839 C39.8682477,47.8524374 39.0250329,50.516469 38.6350461,53.4967062 C38.3794466,54.9038208 38.1870883,56.3188406 37.8656126,57.71278 C37.4677207,59.486166 37.14361,61.1778656 36.1080369,62.7167325 C35.1778656,63.7285903 34.0974967,64.6192358 32.9380764,65.3544137 C32.2766798,65.7812912 31.4097497,65.8577075 30.7931489,66.3320158 C31.1488801,66.455863 31.5019763,66.5770751 31.8550725,66.7114625 C33.2885375,67.1620553 34.3899868,68.5902503 34.9064559,69.9472991 C35.3043478,72.0316206 34.9459816,74.3320158 34.4716733,76.3820817 C34.1475626,78.057971 33.9393939,79.7786561 33.599473,81.4492754 C33.4545455,82.1396574 33.3491436,82.8247694 33.3227931,83.5309618 C33.2173913,86.342556 32.3478261,89.088274 32.0395257,91.9025033 C31.5546772,92.0342556 31.0671937,92.0447958 30.5665349,92.0316206 C26.85639,91.9920949 23.1383399,92.0790514 19.43083,91.9868248 C19.4993412,90.4743083 19.9947299,88.9907773 20.1343874,87.4888011 C20.2766798,84.2424242 21.1857708,80.9644269 21.6600791,77.7312253 C21.8814229,76.0816864 22.4321476,74.3873518 22.4453228,72.7246377 C22.4374177,72.1212121 22.2345191,71.602108 21.6627141,71.3333333 C20.8353096,70.9986825 19.8498024,70.9644269 18.9749671,71.0803689 C17.7602108,77.9288538 16.4716733,85.1198946 15.2542819,91.9736495 C14.7378129,92.0237154 14.2187088,92.0342556 13.7022398,92.0289855 C10.0184453,91.9868248 6.32147563,92.0895916 2.64295125,91.9789196 C3.92094862,84.4084321 5.39130435,76.7562582 6.66403162,69.1699605 C6.79314888,66.7641634 7.2173913,64.4057971 7.72332016,62.0527009 C8.65085639,56.3320158 9.79183136,50.6534914 10.7272727,44.9275362 C11.1778656,43.0935441 11.3596838,41.2147563 11.7417655,39.370224 Z" id="Shape" fill="#B20838" fill-rule="nonzero"></path>
                <path d="M148.906456,46.8274045 C148.816864,47.2806324 148.938076,48.3109354 148.503294,48.5744401 C145.907773,48.9986825 143.299078,49.3280632 140.708827,49.7812912 C139.156785,50.055336 137.509881,50.4743083 135.928854,50.4057971 C135.986825,49.7022398 136.039526,49.0092227 136.036891,48.3003953 C139.096179,47.942029 142.118577,47.4097497 145.191041,47.1594203 C146.426877,47.0803689 147.670619,46.7615283 148.906456,46.8274045 Z" id="Shape" fill="#B20838" fill-rule="nonzero"></path>
                <path d="M22.9986825,47.7997365 C23.9710145,47.7971014 25.1093544,47.6706192 26.0263505,48.0342556 C26.859025,48.3741765 26.687747,49.3491436 26.6113307,50.0685112 C26.1212121,52.7114625 25.7549407,55.3754941 25.1910408,58.002635 C24.9934124,59.0223979 24.9433465,60.2555995 24.0368906,60.9354414 C23.1198946,61.5678524 21.6310935,61.370224 20.5744401,61.3359684 C20.7167325,59.5783926 21.0961792,57.8234519 21.4545455,56.0974967 C21.828722,53.9104084 22.1607378,51.7101449 22.6218709,49.541502 C22.7588933,48.9986825 22.6903821,48.2714097 22.9986825,47.7997365 Z" id="Shape" fill="#FDB814" fill-rule="nonzero"></path>
                <path d="M60.4611331,47.8445323 C61.3438735,47.7206851 62.6376812,47.6337286 63.088274,48.6086957 C63.3333333,49.6363636 62.8748353,50.8774704 62.7114625,51.9104084 C61.9341238,56.3873518 61.088274,60.8695652 60.3293808,65.3465086 C60.2503294,67.43083 59.8550725,69.4044796 59.4466403,71.4413702 C59.1093544,73.826087 58.5217391,76.1607378 58.2187088,78.5480896 C56.7246377,79.4150198 55.201581,80.2476943 53.7470356,81.1778656 C53.9920949,79.0487484 54.3820817,76.9275362 54.8247694,74.8326746 C55.7602108,68.9934124 56.9354414,63.1515152 57.8919631,57.314888 C58.3926219,55.1831357 58.6455863,53.0013175 59.0408432,50.85639 C59.3175231,49.7812912 59.4571805,48.5111989 60.4611331,47.8445323 Z" id="Shape" fill="#FDB814" fill-rule="nonzero"></path>
                <path d="M97.7575758,47.7812912 C98.6218709,47.7523057 99.5309618,47.7760211 99.8102767,48.7667984 C100,50.0474308 99.3754941,51.4176548 99.2753623,52.7114625 C99.0909091,53.0961792 99.0461133,53.428195 98.5480896,53.4782609 C97.3860343,53.6943347 96.2555995,54.0395257 95.0935441,54.2582345 C95.0645586,53.9920949 95.0408432,53.7233202 95.027668,53.4571805 C95.3570487,52.0237154 95.4440053,50.397892 95.9631094,49.0408432 C96.2608696,48.2793149 96.9090909,47.7338603 97.7575758,47.7812912 Z" id="Shape" fill="#FDB814" fill-rule="nonzero"></path>
                <path d="M132.289855,48.9591568 C132.126482,49.6732543 132.068511,50.4716733 131.770751,51.1383399 C130.121212,51.6284585 128.289855,51.7918314 126.619236,52.284585 C124.679842,52.7299078 122.740448,53.1620553 120.806324,53.6337286 C120.094862,53.8129117 119.472991,54.0948617 118.729874,54.1343874 C118.727273,53.1330698 119.030303,52.1422925 119.146245,51.1462451 C120.592885,50.6376812 122.063241,50.4637681 123.583663,50.3820817 C126.498024,50.0052701 129.338603,49.201581 132.289855,48.9591568 Z" id="Shape" fill="#B20838" fill-rule="nonzero"></path>
                <path d="M148.471673,49.1541502 C148.484848,49.4650856 148.461133,49.770751 148.400527,50.0685112 C147.878788,52.5243742 147.623188,55.0408432 147.027668,57.4808959 C146.503294,57.5388669 145.97892,57.5520422 145.454545,57.541502 C141.852437,57.4967062 138.226614,57.6047431 134.629776,57.486166 C134.843215,55.886693 135.198946,54.3056653 135.412385,52.7009223 C135.541502,52.2898551 135.422925,51.5599473 135.99473,51.4914361 C137.913043,51.1146245 139.812912,50.4927536 141.765481,50.3820817 C144.013175,50.0922266 146.226614,49.372859 148.471673,49.1541502 Z" id="Shape" fill="#B20838" fill-rule="nonzero"></path>
                <path d="M108.223979,51.0592885 C107.920949,51.8629776 108.484848,52.859025 108.811594,53.5889328 C107.399209,53.9657444 106.028986,54.458498 104.611331,54.8142292 C103.077734,55.2885375 101.457181,55.5942029 99.9815547,56.226614 C99.5230567,56.4057971 99.0592885,56.5401845 98.5928854,56.6930171 C98.513834,57.1225296 98.4347826,57.5494071 98.3530962,57.9789196 C98.3610013,57.599473 98.3583663,57.2226614 98.3478261,56.8458498 C97.0540184,56.5876153 95.5757576,57.2938076 94.3610013,57.7206851 C94.2924901,57.9815547 94.2239789,58.2450593 94.1581028,58.5111989 L94.0447958,57.9657444 C89.9894598,59.1146245 86.3162055,60.6613966 82.3768116,62.0764163 C81.7760211,62.3293808 81.1357049,62.4347826 80.7088274,62.9486166 L80.5665349,62.8353096 C79.826087,63.0092227 79.085639,63.2121212 78.3715415,63.4729908 C77.4255599,63.8155468 76.513834,64.2371542 75.5599473,64.5638999 C75.7891963,62.9802372 76.1449275,61.4255599 76.4242424,59.8524374 C77.3913043,59.5388669 78.3530962,59.2042161 79.312253,58.859025 C80.0237154,58.5480896 81.1172596,58.4216074 81.6047431,57.7865613 L81.9472991,57.9104084 C83.3623188,57.5467721 84.6903821,56.9512516 86.1607378,56.7325428 C87.2463768,56.571805 88.2608696,56.1501976 89.3306983,55.8787879 C91.1594203,55.3280632 93.0461133,54.9222661 94.8300395,54.2397892 C94.8959157,53.9789196 94.9617918,53.7180501 95.027668,53.4571805 C95.0408432,53.7233202 95.0645586,53.9920949 95.0935441,54.2582345 C96.2555995,54.0395257 97.3860343,53.6943347 98.5480896,53.4782609 C99.0461133,53.428195 99.0909091,53.0961792 99.2753623,52.7114625 L99.4018445,53.1752306 C101.285903,52.4848485 103.296443,52.1027668 105.264822,51.7233202 C106.255599,51.483531 107.201581,51.1488801 108.223979,51.0592885 Z" id="Shape" fill="#D0684E" fill-rule="nonzero"></path>
                <path d="M131.523057,52.687747 C131.525692,54.0289855 130.977602,55.3069829 131.038208,56.6350461 C131.275362,57.8471673 132.679842,58.400527 133.599473,59.0329381 C135.952569,60.3952569 138.469038,61.428195 140.790514,62.8801054 C142.250329,63.3201581 143.285903,64.3899868 144.108037,65.6284585 C145.035573,67.0803689 145.291173,68.8036891 145.017128,70.4901186 C144.648221,72.6350461 144.258235,74.7773386 143.823452,76.911726 C143.486166,78.9565217 143.156785,81.0092227 142.711462,83.0355731 C142.389987,84.7088274 142.113307,86.56917 141.309618,88.0869565 C140.371542,89.1673254 139.963109,90.3083004 138.600791,90.911726 C135.604743,92.4137022 131.604743,92.3715415 128.326746,92.4084321 C125.172596,92.3952569 121.928854,92.5032938 118.803689,92.0289855 C117.038208,91.7075099 115.096179,91.2437418 114.023715,89.6653491 C113.238472,88.56917 113.41502,87.4413702 113.383399,86.1660079 C113.42556,84.6745718 113.422925,83.1251647 113.70751,81.657444 C114.337286,78.0316206 115.030303,74.4374177 115.670619,70.8089592 C117.156785,70.6719368 118.666667,70.7878788 120.158103,70.7509881 C122.880105,70.7931489 125.625823,70.6666667 128.339921,70.8142292 C127.805007,74.8142292 126.690382,78.397892 126.722003,82.4822134 C126.787879,82.8827404 126.824769,83.3860343 127.283267,83.5309618 C128.050066,83.7602108 129.188406,83.773386 129.783926,83.14361 C130.181818,82.6666667 130.498024,82.0447958 130.603426,81.428195 C130.972332,79.1383399 131.393939,76.8511199 131.810277,74.56917 C131.960474,73.4993412 132.342556,72.342556 132.121212,71.2727273 C131.776021,70.3741765 130.764163,69.71278 129.876153,69.4440053 C128.057971,68.9407115 126.785244,67.7523057 125.125165,66.9802372 C123.620553,66.1317523 121.942029,65.4545455 120.577075,64.3926219 C120.050066,63.8708827 119.638999,63.2384717 119.111989,62.7061924 C118.118577,61.1857708 117.862978,59.2200264 118.065876,57.4413702 C118.129117,57.1515152 118.094862,56.6561265 118.363636,56.4690382 C121.467721,55.2990777 124.679842,54.5559947 127.841897,53.5731225 C129.064559,53.2753623 130.279315,52.8880105 131.523057,52.687747 Z" id="Shape" fill="#B20838" fill-rule="nonzero"></path>
                <path d="M111.541502,52.9354414 C111.488801,54.0474308 111.225296,55.1831357 111.038208,56.2793149 C110.824769,56.6693017 110.00527,56.6534914 109.615283,56.7457181 C107.844532,56.8695652 106.445323,57.7338603 104.748353,58.1501976 C103.225296,58.687747 101.604743,59.0619236 100.155468,59.773386 C99.5573123,60.0289855 98.9328063,60.2371542 98.2977602,60.3794466 L97.9341238,60.1080369 C98.0764163,59.3992095 98.2160738,58.6903821 98.3530962,57.9789196 C98.4347826,57.5494071 98.513834,57.1225296 98.5928854,56.6930171 C99.0592885,56.5401845 99.5230567,56.4057971 99.9815547,56.226614 C101.457181,55.5942029 103.077734,55.2885375 104.611331,54.8142292 C106.028986,54.458498 107.399209,53.9657444 108.811594,53.5889328 C109.704875,53.3043478 110.613966,53.0803689 111.541502,52.9354414 Z" id="Shape" fill="#B20838" fill-rule="nonzero"></path>
                <path d="M98.3478261,56.8458498 C98.3583663,57.2226614 98.3610013,57.599473 98.3530962,57.9789196 C98.2160738,58.6903821 98.0764163,59.3992095 97.9341238,60.1080369 C97.6916996,61.1040843 96.8300395,60.9459816 96.0527009,61.3175231 C95.3386034,61.5362319 94.5507246,62.0474308 93.7971014,61.9815547 C93.770751,61.6073781 93.7496706,61.2332016 93.7364954,60.859025 C93.8498024,60.0711462 93.9841897,59.2885375 94.1581028,58.5111989 C94.2239789,58.2450593 94.2924901,57.9815547 94.3610013,57.7206851 C95.5757576,57.2938076 97.0540184,56.5876153 98.3478261,56.8458498 Z" id="Shape" fill="#FDB814" fill-rule="nonzero"></path>
                <path d="M94.0447958,57.9657444 L94.1581028,58.5111989 C93.9841897,59.2885375 93.8498024,60.0711462 93.7364954,60.859025 C93.6758893,61.2990777 93.6073781,61.7364954 93.5467721,62.173913 C92.6166008,62.6824769 91.6284585,62.9354414 90.5981555,63.1515152 C89.1093544,63.5942029 87.6627141,64.2476943 86.2661397,64.9249012 C84.2714097,65.7285903 82.3135705,66.6218709 80.3214756,67.4255599 C80.2635046,66.7246377 80.284585,66.0263505 80.3056653,65.3254282 C80.4189723,64.5296443 80.571805,63.7391304 80.7088274,62.9486166 C81.1357049,62.4347826 81.7760211,62.3293808 82.3768116,62.0764163 C86.3162055,60.6613966 89.9894598,59.1146245 94.0447958,57.9657444 Z" id="Shape" fill="#B20838" fill-rule="nonzero"></path>
                <path d="M110.455863,58.9907773 C110.324111,61.030303 109.731225,63.0592885 109.428195,65.083004 C109.003953,67.8076416 108.442688,70.5032938 107.981555,73.2200264 C107.657444,75.4413702 107.096179,77.5915679 106.8722,79.8366271 C106.819499,80.6218709 106.801054,81.3965744 106.632411,82.168643 C106.187088,84.168643 105.878788,86.1660079 104.85112,87.9947299 C103.881423,89.3359684 102.732543,90.4822134 101.14888,91.0671937 C99.088274,92.1054018 96.6007905,92.0711462 94.3346509,92.2160738 C90.7483531,92.3320158 87.140975,92.3372859 83.5625823,92.0395257 C82.1396574,91.7971014 80.8221344,91.715415 79.5678524,90.9301713 C78.1791831,90.2345191 77.1725955,88.7799736 77.1040843,87.2200264 C77.0197628,85.7391304 77.2648221,84.2081686 77.4545455,82.7378129 C78.0316206,79.5678524 78.5191041,76.3847167 79.1488801,73.2226614 C79.3017128,72.9538867 79.4519104,72.7615283 79.7180501,72.5981555 C81.088274,71.654809 82.6772069,70.969697 84.1501976,70.1870883 C84.7615283,69.8524374 85.3517787,69.6100132 86.0237154,69.428195 C86.8274045,69.2200264 87.3992095,68.7220026 88.1343874,68.3741765 C89.7575758,67.6073781 91.3992095,66.8748353 93.0223979,66.1054018 C92.8801054,67.4545455 92.56917,68.7562582 92.3267457,70.0869565 C91.7417655,73.654809 91.0355731,77.1963109 90.4637681,80.7641634 C90.342556,81.5467721 90.0342556,82.3478261 90.6060606,83.0382082 C91.140975,83.5836627 92.2081686,83.5151515 92.8932806,83.3807642 C93.6837945,83.2516469 93.8893281,82.0948617 94.115942,81.4571805 C95.0698287,75.8603426 96.168643,70.1581028 97.140975,64.571805 C97.1857708,64.4295125 97.2279315,64.28722 97.2753623,64.1449275 C98.5638999,63.486166 99.9841897,63.2753623 101.204216,62.4953887 C102.418972,62.0289855 103.620553,61.5388669 104.83004,61.0592885 C106.603426,60.4795784 108.56917,59.3860343 110.455863,58.9907773 Z" id="Shape" fill="#B20838" fill-rule="nonzero"></path>
                <path d="M100.155468,59.773386 C100.181818,60.6561265 100.139657,62.1791831 101.204216,62.4953887 C99.9841897,63.2753623 98.5638999,63.486166 97.2753623,64.1449275 C97.2279315,64.28722 97.1857708,64.4295125 97.140975,64.571805 C96.9328063,64.2661397 96.7167325,64.1897233 96.4901186,64.342556 C95.3096179,64.9565217 94.0711462,65.256917 93.0223979,66.1054018 C91.3992095,66.8748353 89.7575758,67.6073781 88.1343874,68.3741765 C87.3992095,68.7220026 86.8274045,69.2200264 86.0237154,69.428195 C85.3517787,69.6100132 84.7615283,69.8524374 84.1501976,70.1870883 C82.6772069,70.969697 81.088274,71.654809 79.7180501,72.5981555 C79.4519104,72.7615283 79.3017128,72.9538867 79.1488801,73.2226614 C79.0065876,73.0671937 78.8458498,73.0382082 78.6745718,73.1383399 C77.9235837,73.5046113 77.2068511,73.942029 76.4716733,74.3372859 C75.5230567,74.85639 74.5902503,75.4018445 73.6126482,75.8682477 C72.7773386,76.28722 71.9710145,76.7615283 71.1778656,77.256917 C71.1040843,77.5072464 71.0355731,77.7575758 70.9670619,78.0079051 L70.8511199,77.4940711 C70.0447958,77.8577075 69.3017128,78.3820817 68.5243742,78.8142292 C67.2384717,79.5177866 66.168643,80.5111989 64.8906456,81.2252964 C63.9288538,81.9262187 62.7773386,82.2055336 61.826087,82.914361 C61.1198946,83.3491436 60.4637681,83.7997365 59.8392622,84.3478261 C56.6034256,86.6587615 53.3333333,88.6824769 50.2028986,91.0513834 C49.7602108,91.4176548 49.2358366,91.5599473 49.140975,92.1897233 C47.9868248,92.5032938 47.0408432,93.7364954 46.0843215,94.4110672 C45.6416337,94.3293808 45.1251647,94.342556 44.7140975,94.1528327 C44.1238472,92.3320158 43.2384717,90.6139657 42.740448,88.7694335 C42.5876153,88.4479578 42.9960474,88.1870883 43.2094862,88.0158103 C44.1449275,87.3649539 45.1172596,86.7641634 46.0500659,86.1106719 C47.5652174,84.7720685 49.4123847,83.8339921 51.1040843,82.7193676 C52.0184453,82.0447958 53.0487484,82.1080369 53.7470356,81.1778656 C55.201581,80.2476943 56.7246377,79.4150198 58.2187088,78.5480896 C59.8945982,77.8102767 61.201581,76.5322793 62.969697,75.8787879 C64.56917,75.3754941 66.055336,74.4242424 67.483531,73.5599473 C68.8722003,72.8247694 70.2951252,72.1528327 71.6943347,71.4413702 C72.397892,71.2042161 72.1870883,70.4137022 72.3873518,69.8129117 C72.3689065,70.1976285 72.3741765,70.5797101 72.4057971,70.9591568 C73.1936759,70.9222661 73.9077734,70.2345191 74.6166008,69.9077734 C75.5652174,69.4729908 76.5981555,69.3754941 77.5177866,68.859025 C78.3768116,68.4664032 79.2542819,68.1212121 80.1001318,67.6969697 C80.1501976,66.9038208 80.1844532,66.113307 80.3056653,65.3254282 C80.284585,66.0263505 80.2635046,66.7246377 80.3214756,67.4255599 C82.3135705,66.6218709 84.2714097,65.7285903 86.2661397,64.9249012 C87.6627141,64.2476943 89.1093544,63.5942029 90.5981555,63.1515152 C91.6284585,62.9354414 92.6166008,62.6824769 93.5467721,62.173913 C93.6073781,61.7364954 93.6758893,61.2990777 93.7364954,60.859025 C93.7496706,61.2332016 93.770751,61.6073781 93.7971014,61.9815547 C94.5507246,62.0474308 95.3386034,61.5362319 96.0527009,61.3175231 C96.8300395,60.9459816 97.6916996,61.1040843 97.9341238,60.1080369 L98.2977602,60.3794466 C98.9328063,60.2371542 99.5573123,60.0289855 100.155468,59.773386 Z" id="Shape" fill="#D0684E" fill-rule="nonzero"></path>
                <path d="M80.5665349,62.8353096 L80.7088274,62.9486166 C80.571805,63.7391304 80.4189723,64.5296443 80.3056653,65.3254282 C80.1844532,66.113307 80.1501976,66.9038208 80.1001318,67.6969697 C79.2542819,68.1212121 78.3768116,68.4664032 77.5177866,68.859025 C77.7364954,67.0540184 78.1370224,65.2753623 78.3715415,63.4729908 C79.085639,63.2121212 79.826087,63.0092227 80.5665349,62.8353096 Z" id="Shape" fill="#FDB814" fill-rule="nonzero"></path>
                <path d="M96.4901186,64.342556 C96.7167325,64.1897233 96.9328063,64.2661397 97.140975,64.571805 C96.168643,70.1581028 95.0698287,75.8603426 94.115942,81.4571805 C93.8893281,82.0948617 93.6837945,83.2516469 92.8932806,83.3807642 C92.2081686,83.5151515 91.140975,83.5836627 90.6060606,83.0382082 C90.0342556,82.3478261 90.342556,81.5467721 90.4637681,80.7641634 C91.0355731,77.1963109 91.7417655,73.654809 92.3267457,70.0869565 C92.56917,68.7562582 92.8801054,67.4545455 93.0223979,66.1054018 C94.0711462,65.256917 95.3096179,64.9565217 96.4901186,64.342556 Z" id="Shape" fill="#FDB814" fill-rule="nonzero"></path>
                <path d="M73.6126482,75.8682477 C73.602108,77.5889328 73.1673254,79.3254282 72.8985507,81.0223979 C72.4216074,83.3175231 72.0079051,85.8129117 71.0698287,87.9683794 C70.3504611,89.2700922 69.6943347,90.4953887 68.5928854,91.5177866 C67.4492754,92.4901186 66.2793149,93.3649539 64.7905138,93.7233202 C61.3675889,94.6772069 57.5520422,94.7193676 54.0184453,94.7220026 C51.4018445,94.7299078 48.798419,94.740448 46.1949934,94.4268775 L46.0843215,94.4110672 C47.0408432,93.7364954 47.9868248,92.5032938 49.140975,92.1897233 C51.6416337,92.3083004 54.1501976,92.2951252 56.6534914,92.2555995 C59.5046113,92.171278 62.2503294,92.0737813 64.9565217,91.0619236 C65.6943347,90.7536232 66.3847167,90.4822134 66.8853755,89.8234519 C67.5968379,88.8932806 68.400527,88.3109354 68.7931489,87.2173913 C69.9736495,84.3346509 70.3794466,81.0487484 70.9670619,78.0079051 C71.0355731,77.7575758 71.1040843,77.5072464 71.1778656,77.256917 C71.9710145,76.7615283 72.7773386,76.28722 73.6126482,75.8682477 Z" id="Shape" fill="#FDB814" fill-rule="nonzero"></path>
                <path d="M39.314888,76.055336 C39.5757576,76.1343874 39.6627141,76.342556 39.5757576,76.6798419 C39.1357049,79.0803689 38.7931489,81.4967062 38.3241107,83.8919631 C37.2753623,84.4110672 36.3715415,85.14361 35.3438735,85.7075099 C35.6732543,83.3992095 36.2134387,81.1304348 36.5322793,78.8194993 C36.6403162,78.2635046 36.6561265,77.7575758 37.0540184,77.314888 C37.8023715,76.8880105 38.5559947,76.4637681 39.314888,76.055336 Z" id="Shape" fill="#B20838" fill-rule="nonzero"></path>
                <path d="M70.8511199,77.4940711 L70.9670619,78.0079051 C70.3794466,81.0487484 69.9736495,84.3346509 68.7931489,87.2173913 C68.400527,88.3109354 67.5968379,88.8932806 66.8853755,89.8234519 C66.3847167,90.4822134 65.6943347,90.7536232 64.9565217,91.0619236 C62.2503294,92.0737813 59.5046113,92.171278 56.6534914,92.2555995 C54.1501976,92.2951252 51.6416337,92.3083004 49.140975,92.1897233 C49.2358366,91.5599473 49.7602108,91.4176548 50.2028986,91.0513834 C53.3333333,88.6824769 56.6034256,86.6587615 59.8392622,84.3478261 C60.4637681,83.7997365 61.1198946,83.3491436 61.826087,82.914361 C62.7773386,82.2055336 63.9288538,81.9262187 64.8906456,81.2252964 C66.168643,80.5111989 67.2384717,79.5177866 68.5243742,78.8142292 C69.3017128,78.3820817 70.0447958,77.8577075 70.8511199,77.4940711 Z" id="Shape" fill="#B20838" fill-rule="nonzero"></path>
            </g>
        </g>
    </g>
</svg>