<?xml version="1.0" encoding="UTF-8"?>
<svg width="200px" height="200px" viewBox="0 0 200 200" version="1.1" xmlns="http://www.w3.org/2000/svg" xmlns:xlink="http://www.w3.org/1999/xlink">
    <!-- Generator: Sketch 54.1 (76490) - https://sketchapp.com -->
    <title>averett</title>
    <desc>Created with Sketch.</desc>
    <defs>
        <polygon id="path-1" points="0 0.320431034 199.909645 0.320431034 199.909645 116.921724 0 116.921724"></polygon>
    </defs>
    <g id="averett" stroke="none" stroke-width="1" fill="none" fill-rule="evenodd">
        <g id="averett_BGL">
            <g id="averett" transform="translate(0.000000, 41.000000)">
                <polyline id="Fill-1" fill="#F3B539" points="86.6984772 89.4378966 84.9482234 89.4378966 84.9482234 88.2039828 89.9319797 88.2039828 89.9319797 89.4378966 88.1614213 89.4378966 88.1614213 94.7021207 86.6984772 94.7021207 86.6984772 89.4378966"></polyline>
                <g id="Group-5" transform="translate(0.000000, 0.508621)">
                    <mask id="mask-2" fill="white">
                        <use xlink:href="#path-1"></use>
                    </mask>
                    <g id="Clip-3"></g>
                    <path d="M96.1553299,91.7053276 C96.1248731,90.9251034 96.0984772,89.9800862 96.0984772,89.0360862 L96.0771574,89.0360862 C95.8659898,89.8651379 95.5959391,90.7898103 95.3482234,91.5517241 L94.5573604,94.0866897 L93.4121827,94.0866897 L92.719797,91.5802069 C92.5076142,90.8091379 92.2954315,89.8834483 92.1340102,89.0360862 L92.1147208,89.0360862 C92.084264,89.911931 92.0467005,90.914931 92.0091371,91.7246552 L91.8832487,94.1935 L90.5269036,94.1935 L90.9390863,87.6953621 L92.8944162,87.6953621 L93.528934,89.8651379 C93.7390863,90.6158621 93.9319797,91.4266034 94.0761421,92.1875 L94.1147208,92.1875 C94.2883249,91.4357586 94.5096447,90.5782241 94.7309645,89.8539483 L95.4142132,87.6953621 L97.3390863,87.6953621 L97.684264,94.1935 L96.2609137,94.1935 L96.1553299,91.7053276" id="Fill-2" fill="#F3B539" mask="url(#mask-2)"></path>
                    <path d="M157.853807,116.982759 C145.560406,116.982759 137.069036,115.543362 132.616244,112.707293 C126.418274,108.757345 120.843655,102.529793 113.374619,91.2109483 C108.667005,84.0780517 103.281218,80.8940862 87.9796954,79.8127586 C70.4071066,78.5707069 33.9319797,102.484017 33.9319797,102.484017 C34.1441624,102.14731 48.8700508,80.1901552 53.1360406,74.1711379 C37.1675127,77.3774828 0,86.7330517 0,86.7330517 C0.639593909,86.3271724 26.7106599,69.9302586 38.8771574,62.9296034 L28.9126904,64.0465345 C30.2974619,62.8990862 71.506599,28.9639138 82.9583756,20.4455345 C81.7614213,15.8211552 81.2619289,8.87136207 86.3573604,5.95187931 C87.928934,5.05162069 89.9928934,4.63251724 92.8558376,4.63251724 C98.0456853,4.63251724 104.97868,6.06581034 108.095431,6.71786207 C112.425381,4.90717241 123.895431,0.320431034 138.026396,0.320431034 C138.702538,0.320431034 139.385787,0.33162069 140.072081,0.352982759 C158.790863,0.953155172 169.098477,6.29672414 176.475127,11.8345862 C181.634518,10.4185862 187.872081,9.60072414 188.173604,9.56105172 L188.445685,9.52544828 L188.721827,9.52544828 L188.975635,9.52239655 C189.143147,9.51934483 189.324873,9.5162931 189.515736,9.5162931 C192.515736,9.5162931 194.618274,10.5416724 195.765482,12.5649655 C197.631472,15.8516724 195.521827,19.406931 194.827411,20.5747241 C194.46599,21.1820172 194.048731,21.712 193.645685,22.2236724 C193.387817,22.5502069 192.998985,23.0425517 192.895431,23.2510862 C191.966497,25.1146724 191.327919,27.2132414 190.859898,29.0839483 C196.563452,38.7752069 196.654822,47.0697931 196.205076,51.1387586 C198.04264,53.8985345 199.909645,57.3510517 199.909645,62.4189483 C199.909645,73.4356724 192.742132,79.0498276 192.437563,79.2827759 L191.13401,80.2806897 C190.288325,82.3782414 189.049746,85.0617241 187.386802,87.7167241 C188.708629,90.8844138 189.95736,94.6003966 190.010152,97.4212069 C190.064975,100.275586 190.167513,105.594741 185.937056,109.913948 C181.995939,113.938155 175.393909,116.239155 166.314721,116.752862 C164.789848,116.83831 161.664975,116.982759 157.853807,116.982759" id="Fill-4" fill="#F3B539" mask="url(#mask-2)"></path>
                </g>
                <path d="M191.725888,52.6798793 C192.211168,50.2924138 193.35533,41.3152586 186.295431,30.3341379 C186.929949,27.4726379 187.751269,24.4931379 189.071066,21.8452586 C189.594924,20.7954655 190.645685,19.7497414 191.154315,18.8932241 C194.13401,13.8711034 190.168528,14.3186897 188.720812,14.3186897 C188.720812,14.3186897 180.638579,15.3664483 175.603046,17.0835517 C168.556345,11.4490517 159.050761,5.75555172 139.936041,5.14317241 C124.070051,4.63556897 111.113706,10.6433966 108.525888,11.6881034 C106.481218,11.3086724 92.3532995,7.95889655 88.480203,10.1785172 C85.1431472,12.0899138 86.6314721,19.5025517 88.0071066,22.597 C79.7360406,28.202 42.857868,58.7538276 42.857868,58.7538276 C42.857868,58.7538276 52.1441624,57.0031552 59.2862944,56.5016552 C42.9350254,64.8938966 21.1279188,78.7426207 21.1279188,78.7426207 C21.1279188,78.7426207 42.9350254,71.3930517 63.0314721,68.6475172 C56.4527919,76.7020345 48.8081218,88.7848276 48.8081218,88.7848276 C48.8081218,88.7848276 69.2395939,75.8546724 88.0203046,76.0377759 C101.132995,76.1659483 111.544162,81.1789138 116.939086,89.3575345 C124.019289,100.083328 129.171574,105.944672 134.909645,109.601655 C141.606091,113.866948 160.141117,113.318655 166.074112,112.983983 C174.345178,112.517069 179.858883,110.513103 182.885279,107.421707 C185.854822,104.391345 185.785787,100.550241 185.736041,98.0091724 C185.679188,94.9747414 183.470051,89.8468276 182.526904,87.7889483 C185.676142,83.4534655 187.655838,78.2116207 188.384772,75.7834655 L189.841624,76.3887241 C189.841624,76.3887241 195.635533,71.9535517 195.635533,62.927569 C195.635533,58.4537414 193.843655,55.7255 191.725888,52.6798793" id="Fill-6" fill="#002A5C"></path>
                <path d="M183.965482,40.4689138 C179.450761,37.1394828 173.40203,39.5778103 173.40203,39.5778103 L168.071066,33.3756897 C168.071066,33.3756897 161.291371,32.2445172 159.688325,25.4513793 C175.091371,38.1679138 177.75533,26.5235517 177.75533,26.5235517 C169.529949,16.456931 158.070051,11.4897414 147.091371,10.3972241 C144.795939,10.1683448 140.299492,10.1083276 140.299492,10.1083276 C140.299492,10.1083276 143.878173,10.7532586 148.679188,16.8322931 C142.898477,11.8213621 134.897462,10.1042586 134.897462,10.1042586 C123.148223,10.1073103 113.293401,15.2484483 113.293401,15.2484483 L120.229442,18.4527586 C120.229442,18.4527586 93.8751269,11.9057931 91.4203046,14.016569 C88.9654822,16.1273448 97.5553299,29.5406897 97.5553299,29.5406897 L91.4203046,27.076931 C87.6852792,28.3088103 60.4771574,50.853931 60.4771574,50.853931 C69.8923858,49.4369138 82.084264,50.9770172 82.084264,50.9770172 C75.6822335,52.455069 54.6091371,64.7758966 54.6091371,64.7758966 C65.9319797,61.7007759 76.7492386,63.5440172 76.7492386,63.5440172 C70.2893401,66.6628793 63.4111675,76.3571897 63.4111675,76.3571897 C79.6984772,68.3494655 96.2375635,71.6239655 96.2375635,71.6239655 C80.0944162,54.6553621 94.3543147,42.1066724 94.3543147,42.1066724 C83.8081218,64.3801897 103.6,73.8741034 111.427411,77.3978276 C124.840609,84.4778276 126.956345,110.139776 152.420305,108.726828 C134.913706,106.001638 131.991878,100.52481 127.006091,86.435 C124.813198,80.2349138 117.732995,79.3600862 117.732995,79.3600862 C118.808122,78.444569 119.725888,77.8454138 121.006091,76.9563448 C121.006091,76.9563448 118.452792,75.7407414 115.085279,75.4640517 C117.651777,73.8466379 121.959391,72.8171897 121.959391,72.8171897 C121.959391,72.8171897 120.729949,72.3523103 117.127919,72.034931 C121.350254,70.1123448 126.249746,69.7959828 126.249746,69.7959828 C126.249746,69.7959828 124.122843,69.1174828 121.856853,68.5356207 C131.492386,65.633431 139.611168,67.1236897 139.611168,67.1236897 C139.611168,67.1236897 132.690355,61.4413793 108.625381,60.3152931 C124.317766,58.6154828 142.703553,63.4809483 142.703553,63.4809483 C126.06599,53.2881897 98.3401015,54.9198448 98.3401015,54.9198448 C122.293401,51.3452586 145.91066,59.4404655 145.91066,59.4404655 C131.398985,50.3768448 112.814213,49.3402759 112.814213,49.3402759 C133.300508,48.797069 148.661929,57.1425172 148.661929,57.1425172 C151.411168,54.8272759 155.193909,53.8486897 155.193909,53.8486897 L149.009137,42.5583276 L158.24467,53.5363966 C158.24467,53.5363966 170.106599,57.8474655 174.24264,57.4792241 C178.37665,57.1099655 185.441624,54.5139655 185.441624,54.5139655 L175.339086,41.9123793 L186.753299,50.2018793 C187.128934,44.9447759 186.448731,42.3019828 183.965482,40.4689138 M150.919797,33.8171724 C148.307614,35.3399828 145.324873,37.1516897 148.414213,41.6601034 C148.414213,41.6601034 135.054822,35.8526724 126.359391,42.5532414 L130.561421,37.4456724 C130.561421,37.4456724 126.294416,36.9533276 117.75736,39.1698966 C117.75736,39.1698966 130.479188,32.2709655 128.919797,30.5467414 C127.360406,28.8215 123.625381,22.6610862 106.02132,30.5467414 C106.02132,30.5467414 117.486294,22.5980172 123.890355,23.5837241 C127.119797,24.0811552 130.73198,26.5184655 134.51269,28.6872241 C138.228426,30.8173276 142.106599,32.6890517 145.941117,32.1997586 C150.46802,31.6229828 152.008122,29.4766034 152.509645,27.7940862 C152.864975,26.6008621 152.698477,25.6416034 152.698477,25.6416034 C152.698477,25.6416034 155.366497,31.2262586 150.919797,33.8171724" id="Fill-7" fill="#F3B539"></path>
                <path d="M177.73198,19.1811034 C177.73198,19.1811034 186.447716,16.8617931 187.724873,17.11 C189.291371,17.4111034 186.214213,19.1424483 186.214213,19.1424483 C186.214213,19.1424483 183.37868,20.6927241 182.473096,24.4076897 C182.473096,24.4076897 179.901523,21.0945345 177.73198,19.1811034" id="Fill-8" fill="#F3B539"></path>
                <path d="M157.105584,81.5329138 L155.526904,81.7709483 C155.511675,85.2600862 157.901523,88.702431 157.901523,88.702431 C154.592893,88.2202586 152.690355,81.5644483 152.690355,81.5644483 C152.690355,81.5644483 149.769543,79.4638448 145.814213,81.3630345 C145.37868,82.9173793 147.167513,86.5987759 147.167513,86.5987759 C148.643655,90.1428448 151.837563,92.5201379 153.780711,94.1294138 C156.550254,93.4834655 159.638579,88.6332586 160.499492,87.9985 C161.380711,87.3484828 163.68731,87.197931 164.085279,89.7501897 C164.264975,90.9078103 164.147208,92.4591034 163.892386,93.7326897 C164.198985,93.7438793 164.593909,93.7998276 164.919797,93.7998276 C166.364467,93.7998276 168.198985,93.687931 169.705584,93.4844828 C169.705584,93.4844828 165.17665,92.5303103 164.233503,82.1717414 C163.106599,85.4258966 160.247716,88.5864655 158.391878,86.7513621 C157.732995,86.0982931 158.8,82.781069 157.105584,81.5329138" id="Fill-9" fill="#F3B539"></path>
                <path d="M180.75736,30.1144138 C180.279188,30.418569 179.941117,30.9221034 179.941117,30.9221034 C179.941117,30.9221034 181.020305,33.1956379 178.575635,34.0989483 C178.102538,34.2728966 177.680203,34.342069 177.307614,34.342069 C175.925888,34.342069 175.237563,33.3970517 175.237563,33.3970517 C174.115736,33.8721034 173.129949,33.984 172.452792,33.984 C171.854822,33.984 171.497462,33.8965172 171.497462,33.8965172 C171.497462,33.8965172 172.742132,36.9787586 176.735025,36.9787586 C177.6,36.9787586 178.594924,36.8343103 179.732995,36.4823448 C181.347208,35.9828793 182.228426,34.9391897 182.688325,33.7744483 C182.096447,31.8081207 181.380711,31.0492586 180.75736,30.1144138" id="Fill-10" fill="#FFFFFE"></path>
                <path d="M177.359391,88.8855345 C177.105584,88.8855345 176.870051,89.2263103 176.775635,89.4358621 C175.985787,91.1926379 176.212183,91.9189483 173.947208,94.2738621 C173.947208,94.2738621 174.729949,93.9890345 175.220305,93.9890345 C175.436548,93.9890345 175.596954,94.0449828 175.606091,94.2026552 C175.673096,95.1944655 173.946193,97.4466379 173.946193,97.4466379 C173.946193,97.4466379 174.528934,95.7336034 174.570558,95.3206034 C174.592893,95.0927414 174.494416,94.9747414 174.379695,94.9747414 C174.363452,94.9747414 174.346193,94.9767759 174.328934,94.9828793 C171.396954,95.8587241 167.994924,96.3378448 165.049746,96.3378448 C164.358376,96.3378448 163.694416,96.3103793 163.064975,96.2574828 C163.045685,96.2554483 163.027411,96.2554483 163.006091,96.2554483 C162.86599,96.2554483 162.695431,96.2981724 162.646701,96.4324483 C162.119797,97.8942241 160.308629,99.0172586 160.308629,99.0172586 C160.308629,99.0172586 162.638579,94.8994655 162.252792,91.1031207 C162.156345,90.1591207 161.84264,89.9017586 161.526904,89.9017586 C161.151269,89.9007414 160.77665,90.2689828 160.77665,90.2689828 C160.77665,90.2689828 154.700508,98.2512759 150.891371,98.3621552 L151.66802,97.1658793 C151.643655,97.1658793 151.618274,97.1668966 151.593909,97.1668966 C147.471066,97.1668966 138.884264,92.0776379 137.825381,90.7226724 C137.825381,90.7226724 140.476142,97.2004655 150.255838,99.5391034 C153.857868,100.401724 158.678173,101.074121 163.329949,101.074121 C169.319797,101.074121 175.033503,99.9592241 177.521827,96.7040517 C177.521827,96.7040517 178.656853,91.6890517 177.843655,89.4358621 C177.695431,89.0259138 177.522843,88.8855345 177.359391,88.8855345" id="Fill-11" fill="#FFFFFE"></path>
                <path d="M173.560406,69.240569 C170.946193,69.1581724 163.184772,70.1489655 156.918782,74.4712241 C157.692386,75.3999655 159.926904,78.5900345 159.826396,84.336431 C159.792893,86.2112069 162.920812,84.4127241 164.233503,73.1294828 C164.572589,73.5201034 164.737056,74.4061207 164.701523,75.0398621 C164.672081,75.5637414 164.967513,75.6756379 165.15533,75.6288448 C170.302538,74.3501724 175.106599,74.4315517 178.313706,74.9330517 C178.744162,74.2494655 178.57868,72.1478448 178.57868,72.1478448 C178.57868,72.1478448 179.297462,74.8303103 179.022335,75.3002759 C178.745178,75.7702414 177.958376,75.6878448 177.958376,75.6878448 C177.958376,75.6878448 178.980711,78.0936207 177.958376,81.8106207 C176.703553,86.3698966 182.95736,80.8920517 184.695431,71.9891552 C180.362437,69.940431 176.174619,69.3239828 173.560406,69.240569" id="Fill-12" fill="#FFFFFE"></path>
                <path d="M175.601015,60.1423621 C175.601015,60.1423621 174.919797,64.4564828 175.930964,66.8795517 C175.930964,66.8795517 179.913706,66.7218793 185.447716,69.3717931 C185.447716,69.3717931 188.280203,67.8296552 188.280203,62.9021379 C188.282234,58.9206552 186.779695,56.8332759 186.779695,56.8332759 C182.857868,58.7355172 175.601015,60.1423621 175.601015,60.1423621" id="Fill-13" fill="#FFFFFE"></path>
                <path d="M180.780711,92.537431 C180.780711,92.537431 181.190863,96.0703103 178.471066,99.764931 C175.368528,103.973259 161.95736,104.008862 152.42335,102.474862 C149.011168,101.927586 138.956345,99.3651552 135.753299,92.5862586 C134.636548,90.2242241 133.374619,86.0321724 132.28731,83.9285172 C129.966497,79.4404483 128.143147,77.585 128.143147,77.585 C130.57665,75.2687414 138.759391,72.275 144.297462,72.3543448 C145.928934,73.3797241 148.587817,74.4213793 152.693401,74.5108966 C159.762437,67.6119655 171.48934,66.9202414 171.48934,66.9202414 C171.48934,66.9202414 173.020305,65.2926552 172.82132,60.1077759 C166.143147,59.7751379 157.308629,56.0744138 157.308629,56.0744138 C146.793909,58.060069 142.474112,69.2039483 142.099492,70.2211897 C142.099492,70.2211897 134.680203,67.9964828 129.71269,69.6006724 C133.562437,70.3625862 134.606091,71.7857069 134.606091,71.7857069 C134.484264,71.8182586 129.794924,70.7766034 124.745178,72.2007414 C127.808122,72.6432414 129.032487,74.1416379 129.032487,74.1416379 C129.032487,74.1416379 123.833503,73.5567241 120.729949,75.2982414 C123.006091,75.6298621 124.620305,76.8739483 124.620305,76.8739483 C122.386802,78.2482414 122.625381,78.3642069 122.625381,78.3642069 C131.339086,81.9784655 129.948223,92.1671552 135.417259,98.4048793 C142.711675,106.724897 151.279188,106.68319 164.625381,106.729983 C177.401015,106.775759 179.867005,103.624345 180.804061,101.882828 C182.824365,98.1332759 180.780711,92.537431 180.780711,92.537431" id="Fill-14" fill="#FFFFFE"></path>
                <path d="M60.4771574,50.853931 C60.4771574,50.853931 89.3543147,27.0748966 91.4203046,27.076931 L95.8700508,28.8642241 C85.0324873,32.917931 60.4771574,50.853931 60.4771574,50.853931" id="Fill-15" fill="#FFFFFE"></path>
                <path d="M91.422335,14.016569 C90.7005076,14.6370862 90.9350254,16.2331379 91.6203046,18.1781034 C91.4142132,17.489431 90.8741117,13.747 104.274112,14.9656552 C98.2162437,13.8355 92.5035533,13.0878276 91.422335,14.016569" id="Fill-16" fill="#FFFFFE"></path>
                <polyline id="Fill-17" fill="#FFFFFE" points="148.189848 16.2260172 148.190863 16.2260172 148.189848 16.2239828 148.189848 16.2260172"></polyline>
                <path d="M147.618274,15.9656034 C141.969543,11.6219828 134.898477,10.1052759 134.898477,10.1052759 C128.120812,10.1073103 121.977665,11.8183103 117.987817,13.2668621 C132.128934,9.77772414 144.82132,14.745931 147.618274,15.9656034" id="Fill-18" fill="#FFFFFE"></path>
                <path d="M94.3431472,42.1066724 C87.1441624,57.3093448 94.0791878,66.4156897 101.696447,71.7877414 C101.403046,71.5354655 89.7218274,61.3406724 94.3431472,42.1066724" id="Fill-19" fill="#FFFFFE"></path>
                <path d="M145.941117,32.1997586 C150.46802,31.6229828 152.008122,29.4766034 152.509645,27.793069 L152.71066,26.7809138 C149.387817,34.7184483 134.630457,28.7350345 134.51269,28.6872241 C138.228426,30.8173276 142.106599,32.690069 145.941117,32.1997586" id="Fill-20" fill="#FFFFFE"></path>
                <path d="M134.250761,30.4643448 C134.250761,30.4643448 133.170558,36.8678793 138.072081,37.911569 C138.914721,38.0906034 139.674112,38.168931 140.35533,38.168931 C144.960406,38.168931 146.04264,34.5953621 146.04264,34.5953621 C146.04264,34.5953621 145.459898,34.7937241 144.514721,34.7937241 C143.900508,34.7937241 143.13198,34.7103103 142.270051,34.4336207 C142.270051,34.4336207 141.589848,35.5749655 140.015228,35.5749655 C139.71269,35.5749655 139.379695,35.5332586 139.011168,35.433569 C136.495431,34.7540517 137.365482,32.3930345 137.365482,32.3930345 C137.365482,32.3930345 135.544162,31.6636724 134.250761,30.4643448" id="Fill-21" fill="#FFFFFE"></path>
                <path d="M158.273096,53.5648793 C158.273096,53.5648793 170.135025,57.8759483 174.269036,57.5066897 C174.403046,57.4944828 174.543147,57.4802414 174.680203,57.4639655 C161.906599,53.5333448 149.036548,42.5868103 149.036548,42.5868103 L158.273096,53.5648793" id="Fill-22" fill="#FFFFFE"></path>
            </g>
        </g>
    </g>
</svg>