<?xml version="1.0" encoding="UTF-8"?>
<svg width="200px" height="200px" viewBox="0 0 200 200" version="1.1" xmlns="http://www.w3.org/2000/svg" xmlns:xlink="http://www.w3.org/1999/xlink">
    <!-- Generator: Sketch 54.1 (76490) - https://sketchapp.com -->
    <title>bard</title>
    <desc>Created with Sketch.</desc>
    <g id="bard" stroke="none" stroke-width="1" fill="none" fill-rule="evenodd">
        <g id="bard_BGL">
            <g id="bard" transform="translate(0.000000, 48.000000)">
                <g id="g10" transform="translate(99.999998, 52.312761) scale(-1, 1) rotate(-180.000000) translate(-99.999998, -52.312761) translate(0.000000, 0.460910)" fill-rule="nonzero">
                    <g id="g12">
                        <path d="M30.2578593,28.4699581 L37.3170361,28.4998347 C38.8580237,28.5056783 39.4309455,28.8246083 40.2102871,30.7873243 L42.1701224,35.7255958 C42.9484763,37.6883941 42.627324,38.0018921 41.0863364,37.9954723 L34.0271596,37.9674888 L30.2578593,28.4699581 Z M23.2729212,10.8683948 L30.332098,10.8995882 C31.8730856,10.9043619 32.4460074,11.2239503 33.2250197,13.1867486 L35.7378592,19.5177773 C36.5162131,21.4798349 36.1944024,21.7949789 34.6540732,21.7884768 L27.5944849,21.7586003 L23.2729212,10.8683948 Z M21.7965427,37.6632912 C23.3294644,41.5255134 23.5345673,43.0423858 23.5664192,44.6232088 L49.615472,44.7308631 C56.3268299,44.7582705 56.5106982,41.3470772 54.5511921,36.4088057 L52.7167065,31.7862543 C50.6812333,26.6582709 47.8443609,25.7616454 43.2436203,25.3009047 L43.1934969,25.1739088 C48.1362128,24.3727566 49.4749782,23.6195056 47.7661716,19.3145674 L45.1032087,12.6041972 C43.1436203,7.66589281 40.2455957,4.24028796 33.5342378,4.21232088 L7.48553068,4.10365422 C8.71012324,5.68897928 9.71061704,7.21000805 11.2432096,11.07251 L21.7965427,37.6632912 L21.7965427,37.6632912 Z" id="path14" fill="#918F90"></path>
                        <path d="M36.5190937,34.3125917 L35.6638674,32.1579416 L36.8132501,32.162386 L37.6684764,34.3171185 L36.5190937,34.3125917 Z M44.028394,41.0432912 C44.5598343,40.7542377 45.0736614,40.3308632 45.4973651,39.7100402 C46.8859248,37.6752254 46.0018095,35.445925 45.5771182,34.3743201 L43.6165421,29.4354725 C43.5583528,29.2888059 43.498929,29.1457606 43.4381059,29.0065836 C46.9601634,29.4029622 48.0799988,30.0379416 49.3103691,33.1385177 L51.1448547,37.7607398 C51.8486407,39.5341554 51.9643608,40.4246903 51.9704514,40.7976121 C51.6666654,40.9060072 50.9699576,41.077036 49.6302868,41.0660895 L44.028394,41.0432912 Z M37.589711,24.8392586 C37.998353,24.6176949 38.3967069,24.3171187 38.7519332,23.9084768 L39.196213,25.0318512 C38.7037027,24.9180241 38.1700402,24.855308 37.589711,24.8392586 Z M30.0871597,18.104444 L28.6792585,14.5562959 L29.8276536,14.5614811 L31.235884,18.1095469 L30.0871597,18.104444 Z M39.7013159,22.0277361 C40.047571,20.4437032 39.4431266,18.9194234 39.1441966,18.1661724 L36.6309456,11.8344853 C35.8390938,9.83860058 34.8479004,8.56543188 33.4687234,7.87647717 L33.5191761,7.87647717 C37.8369538,7.89480639 39.9003282,9.42872404 41.6968714,13.9554729 L44.3602458,20.6668308 C44.4380236,20.8625509 44.5023034,21.0352258 44.5557191,21.1869954 C44.1190935,21.2888884 43.4960483,21.4123451 42.6070771,21.5567073 L39.7013159,22.0277361 Z M25.20288,36.3114394 L14.649547,9.72032898 C14.3698762,9.01555533 14.1046087,8.37769526 13.8490532,7.79513561 L18.1169543,7.81250186 L31.2841144,40.9902047 L26.7676537,40.9719331 C26.4673244,39.7424681 25.9815631,38.2732501 25.20288,36.3114394 Z M0,0.4073432 L4.58493816,6.34323441 C5.59542373,7.6517529 6.42007391,8.85349772 7.83693808,12.4237857 L18.3902053,39.0152254 C19.863374,42.7253487 19.8842793,43.7728384 19.9025509,44.696789 L19.9745674,48.2729206 L49.6000811,48.395719 C51.1188465,48.4008218 55.7500398,48.4198342 58.0941549,44.9832911 C60.2485582,41.8241965 59.0480644,37.8054312 57.9575294,35.0572008 L56.1230439,30.4343202 C54.9527558,27.4868306 53.4481468,25.5626331 51.7538259,24.28502 C52.5858423,22.1148143 51.900081,19.7958843 51.172509,17.9629625 L48.5095461,11.2519339 C46.6933322,6.67663358 43.1670771,0.587706158 33.5497111,0.547196694 L0,0.4073432 L0,0.4073432 Z" id="path16" fill="#918F90"></path>
                        <path d="M73.3776936,21.9492999 L74.2814796,35.6056781 L63.9824675,21.910699 L73.3776936,21.9492999 Z M58.8332496,15.1883947 L54.4846077,9.6080656 C53.8843608,8.8477364 53.409546,8.02372819 53.0828793,7.20068295 C52.5292168,5.80889697 52.5286407,5.68223031 52.6224678,4.2914073 L43.624608,4.25443611 C46.7447725,7.36465002 47.7934967,8.50633724 50.1684761,11.613333 L74.0130023,42.5566245 L73.5259241,44.8305339 L87.8921789,44.8910277 L85.3571995,9.9900409 C85.2238662,7.9038105 85.439504,5.94553895 85.929216,4.42965421 L69.9720147,4.36374475 C71.1715209,5.88637845 71.3715208,6.13907804 71.7232904,7.02642781 C72.1000805,7.97517676 72.4279817,9.17794216 72.4816443,10.0627158 L72.8022204,15.2479009 L58.8332496,15.1883947 L58.8332496,15.1883947 Z" id="path18" fill="#918F90"></path>
                        <path d="M76.662138,18.2979419 L76.139422,9.83703679 C76.1027141,9.23382693 75.9985989,8.62041131 75.8683932,8.05265823 L81.6641132,8.07645247 C81.6412325,8.77703682 81.6534959,9.49555532 81.7000803,10.2237858 L83.9506152,41.209464 L78.3237017,41.1860072 L76.8088047,18.2986004 L76.662138,18.2979419 Z M34.7193407,0.552983525 L41.0377768,6.85024674 C44.0232911,9.82543185 44.9553075,10.827901 47.2569536,13.8387651 L70.0742369,43.4487232 L68.9971999,48.4763774 L91.8337426,48.5718506 L89.0123435,9.72411498 C88.9144011,8.18769527 89.0600801,6.65766238 89.4164587,5.55716035 L90.9596685,0.786072408 L62.3939079,0.667438666 L67.0939078,6.63194222 C68.162632,7.98771996 68.162632,7.98771996 68.316953,8.37703683 C68.6060065,9.10625492 68.8017267,9.91934132 68.8239489,10.2848557 L68.9030435,11.5663372 L60.6292166,11.5316046 L57.3752249,7.35564591 C56.9910274,6.8692097 56.6891344,6.35384346 56.4888875,5.8484443 C56.4381056,5.7217694 56.2988463,5.37197517 56.2409862,5.19739905 C56.2448546,5.04437024 56.2647723,4.74665832 56.2789286,4.53896285 L56.54255,0.642682288 L34.7193407,0.552983525 L34.7193407,0.552983525 Z" id="path20" fill="#918F90"></path>
                        <path d="M110.490532,28.8027153 L117.350614,28.8320157 C118.891355,28.8384355 119.465018,29.1567071 120.244441,31.1195054 L122.204112,36.0577769 C122.982713,38.0201637 122.660902,38.3352254 121.119339,38.3288056 L114.259256,38.3008221 L110.490532,28.8027153 Z M107.827981,22.0923451 L103.605759,11.4560491 C102.074072,7.59516853 101.86831,6.0757447 101.835388,4.49620565 L87.7176933,4.43705339 C88.9415616,6.02302043 89.9432076,7.543078 91.4765409,11.4055964 L102.029627,37.9970361 C103.562137,41.8592582 103.767899,43.3758014 103.500409,44.9549783 L129.649379,45.0636203 C135.216458,45.0871594 137.047733,42.9449372 134.358844,36.1709456 L131.393412,28.70181 C129.030449,22.7497937 126.618927,22.4234562 123.93333,22.1598348 L123.735799,10.7818927 C123.699585,8.19026317 123.466664,6.10274882 123.908639,4.58751429 L110.336623,4.5315719 L111.55473,22.1074069 L107.827981,22.0923451 L107.827981,22.0923451 Z" id="path22" fill="#918F90"></path>
                        <path d="M116.75226,34.6466658 L115.896293,32.4906988 L116.847734,32.4945671 L117.702878,34.6502049 L116.75226,34.6466658 Z M115.440326,25.1591763 L114.265018,8.21245247 L119.995882,8.23621379 C120.004112,8.51366234 120.013166,8.79662529 120.023865,9.08469113 C120.042795,9.63802445 120.062548,10.2205759 120.071602,10.8330038 L120.325923,25.487736 L123.576129,25.8069952 C125.58189,26.0037031 126.412343,26.0854314 127.986828,30.0533326 L130.95226,37.5231266 C131.809873,39.6839496 131.92263,40.7452665 131.916869,41.1725093 C131.612342,41.2683117 130.924277,41.4303693 129.665017,41.3988467 L124.062548,41.3757191 C124.594236,41.0866656 125.107816,40.6636204 125.531684,40.0424681 C126.920161,38.0066657 126.002466,35.6938263 125.609873,34.706172 L123.650203,29.7679005 C122.358845,26.5133327 120.538269,25.1803286 117.366252,25.1671599 L115.440326,25.1591763 Z M106.972014,41.3049372 C106.68724,40.0244434 106.189298,38.5423036 105.435388,36.645102 L94.8823022,10.0533331 C94.6024668,9.34897096 94.3374462,8.71111089 94.0823022,8.12853478 L98.6353885,8.14718498 C98.9358,9.3769545 99.4213967,10.8461726 100.199174,12.8073248 L105.085594,25.1150611 L105.084771,25.1150611 L111.516047,41.3236204 L106.972014,41.3049372 Z M80.2353066,0.740740722 L84.8172818,6.67663358 C85.8288044,7.986757 86.6543188,9.19111088 88.0699566,12.7572013 L98.6230428,39.3489702 C100.102055,43.0748137 99.9785983,43.8079001 99.8872403,44.3428795 L99.1654296,48.6018095 L129.634565,48.7284761 C129.674071,48.7284761 129.7144,48.7284761 129.753083,48.7284761 C132.363783,48.7284761 136.00082,48.3590934 138.028803,45.3864186 C140.255964,42.1209866 138.944852,37.791604 137.765429,34.8190115 L134.799174,27.3492174 C132.696293,22.0502052 130.156375,20.0074069 127.546499,19.1383534 L127.399997,10.7185183 C127.39012,10.0659257 127.369544,9.43382692 127.348968,8.83358003 C127.304524,7.53504508 127.25761,6.19181054 127.426334,5.61310274 L128.789297,0.942320964 L106.407405,0.851012324 L107.056787,10.2179421 L107.012343,10.1045265 C105.539092,6.39435375 105.518516,5.346576 105.499586,4.4213003 L105.427158,0.846839485 L80.2353066,0.740740722 L80.2353066,0.740740722 Z" id="path24" fill="#918F90"></path>
                        <path d="M143.174482,11.3679833 L149.488062,11.3943207 C151.476539,11.4033742 152.000819,11.9727569 153.080655,14.6962136 L161.223041,35.2086411 C162.302877,37.9311102 162.231272,38.4992583 160.241971,38.4915217 L153.928391,38.464855 L143.174482,11.3679833 Z M141.699585,38.1609867 C143.231272,42.0228796 143.43621,43.5413158 143.469132,45.1209042 L168.175304,45.2244433 C174.935798,45.2523445 176.015633,41.9692171 172.748967,33.739423 L165.813988,16.2657609 C162.547321,8.03530021 158.85514,4.73347313 152.093823,4.70454309 L127.386828,4.6026254 C128.611519,6.18859244 129.612342,7.70962121 131.145676,11.5711931 L141.699585,38.1609867 L141.699585,38.1609867 Z" id="path26" fill="#918F90"></path>
                        <path d="M156.421395,34.8106164 L148.580243,15.0553083 L149.257609,15.0575305 C149.359667,15.2790943 149.49547,15.5950613 149.67407,16.0468309 L157.12263,34.8131679 L156.421395,34.8106164 Z M163.24444,41.5390113 C163.81728,41.2409866 164.372012,40.798929 164.818103,40.1446904 C166.275716,38.0069949 165.324276,35.6086411 164.628802,33.8573654 L156.487239,13.3439503 C155.665017,11.2731684 154.72263,9.34995861 152.707815,8.38288045 C156.773659,8.54164588 159.46337,10.1993413 162.407403,17.6180243 L169.342383,35.0912748 C171.064193,39.4274064 170.898761,40.883785 170.820572,41.200822 C170.629625,41.2991759 169.91193,41.575966 168.190942,41.5595874 L163.24444,41.5390113 Z M146.669955,41.4695463 C146.369544,40.2398344 145.883947,38.7708632 145.106169,36.809711 L145.106169,36.8090526 L134.551437,10.2189298 C134.272425,9.51456766 134.005758,8.8767076 133.750614,8.29382695 L138.018104,8.3111109 L151.186004,41.4885586 L146.669955,41.4695463 Z M119.905347,0.90695471 L124.486417,6.8418846 C125.497116,8.15136605 126.321808,9.35473228 127.739091,12.9234565 L138.293001,39.5129208 C139.763783,43.2214804 139.786828,44.2711923 139.805758,45.1971182 L139.879832,48.7702868 L168.159667,48.8892169 C169.725922,48.881151 174.454317,48.9143198 176.875716,45.3629618 C179.343205,41.7447726 177.896292,36.7734147 176.154728,32.3871597 L169.220572,14.9134976 C166.371189,7.73405742 162.325922,1.08410697 152.109461,1.04037857 L119.905347,0.90695471 L119.905347,0.90695471 Z" id="path28" fill="#918F90"></path>
                        <polyline id="path30" fill="#231F20" points="134.594235 73.9892163 186.334152 57.2476529 172.453494 43.4169536 157.310284 8.11342367 80.9590103 8.47637839 77.8035371 36.1387645 134.594235 73.9892163"></polyline>
                        <path d="M166.838679,94.0032898 C160.64444,97.8246889 146.615634,101.684771 127.316869,101.569545 C111.700409,101.469956 55.500904,99.553907 26.4101228,77.467817 C26.4101228,77.467817 38.0288879,82.3843601 51.9823855,77.8511092 C51.9823855,77.8511092 13.35037,71.8228789 4.00173653,37.5701225 C4.00173653,37.5701225 15.2189297,57.3669121 57.8462537,55.6240315 C57.8462537,55.6240315 27.379094,52.6935789 5.87512743,26.5280652 C5.87512743,26.5280652 17.8488061,34.2644436 41.7319331,33.2764601 C41.7319331,33.2764601 142.816457,31.3049375 152.397527,38.861892 C161.974482,46.4178589 176.712753,87.9144011 166.838679,94.0032898" id="path32" fill="#231F20"></path>
                        <path d="M30.2578593,28.0616454 L37.3170361,28.0916042 C38.8580237,28.0963779 39.4309455,28.4146495 40.2102871,30.3790116 L42.1701224,35.3172831 C42.9484763,37.2785176 42.627324,37.5929209 41.0863364,37.5871596 L34.0271596,37.5572007 L30.2578593,28.0616454 Z M23.2729212,10.4610697 L30.332098,10.490617 C31.8730856,10.495473 32.4460074,10.8140738 33.2250197,12.7787651 L35.7378592,19.1078185 C36.5162131,21.0725098 36.1944024,21.3860077 34.6540732,21.3808225 L27.5944849,21.3502875 L23.2729212,10.4610697 Z M21.7965427,37.2537439 C23.3294644,41.1172006 23.5345673,42.6330854 23.5664192,44.2132499 L49.615472,44.3232088 C56.3268299,44.3505339 56.5106982,40.9378591 54.5511921,35.9995876 L52.7167065,31.3772832 C50.6812333,26.2493821 47.8443609,25.3530035 43.2436203,24.892592 L43.1934969,24.7655961 C48.1362128,23.9641146 49.4749782,23.2105344 47.7661716,18.9062547 L45.1032087,12.1958845 C43.1436203,7.2575883 40.2455957,3.83294641 33.5342378,3.8024032 L7.48553068,3.69534147 C8.71012324,5.28067477 9.71061704,6.8016953 11.2432096,10.6616458 L21.7965427,37.2537439 L21.7965427,37.2537439 Z" id="path34" fill="#918F90"></path>
                        <path d="M36.519423,33.9030444 L35.6641966,31.7496288 L36.8132501,31.7541556 L37.6681472,33.9078181 L36.519423,33.9030444 Z M44.026501,40.6349784 C44.5589289,40.3459249 45.0742376,39.9215628 45.4983528,39.2994229 C46.8859248,37.264032 45.9680647,34.9524271 45.5764598,33.9654312 L43.6165421,29.0271598 C43.5583528,28.879917 43.498929,28.7374478 43.4384351,28.5982709 C46.9604927,28.9946495 48.080328,29.6296289 49.3103691,32.7292173 L51.1448547,37.3514394 C51.8496283,39.1265011 51.9643608,40.0173653 51.9704514,40.3902871 C51.6673238,40.4980237 50.9889699,40.6613159 49.6302868,40.6587644 L44.026501,40.6349784 Z M37.5893818,24.4309459 C37.998353,24.2094644 38.3967069,23.908806 38.7519332,23.500164 L39.1958838,24.6225508 C38.7037027,24.5090529 38.169711,24.4463368 37.5893818,24.4309459 Z M30.0871597,17.6964605 L28.6786001,14.1489708 L29.8276536,14.1538268 L31.2362132,17.7012341 L30.0871597,17.6964605 Z M39.7083941,21.6181065 C40.0559661,20.058518 39.467571,18.572839 39.1444435,17.7581889 L36.6306987,11.4261726 C35.8390938,9.42872404 34.8479004,8.15553889 33.4677358,7.46656771 L33.5195053,7.46656771 C37.8369538,7.48649364 39.9009867,9.02074052 41.6968714,13.5474894 L44.3602458,20.258518 C44.4380236,20.4543205 44.5023034,20.6272423 44.5557191,20.777695 C44.1190935,20.8805756 43.4960483,21.0040324 42.6070771,21.1480653 L39.7083941,21.6181065 Z M26.7676537,40.5623035 C26.466666,39.3329208 25.9809047,37.8636205 25.20288,35.902139 L25.20288,35.9014806 L14.649547,9.31037014 C14.3698762,8.6056788 14.1046087,7.96874877 13.8490532,7.38586813 L18.1166251,7.40322615 L24.8520981,24.3740735 L24.8511105,24.3740735 L31.2843614,40.5809866 L26.7676537,40.5623035 Z M0.00032150205,0 L4.58493816,5.93492989 C5.59542373,7.24376114 6.42007391,8.44518497 7.83725906,12.0148145 L18.3902053,38.605678 L18.3902053,38.6050196 C19.863374,42.317036 19.8842793,43.363538 19.9025509,44.2869125 L19.9745674,47.8626325 L49.5997518,47.9880646 C51.1271592,47.9892992 55.7497105,48.0125091 58.0941549,44.5753075 C60.2485582,41.4158837 59.0483936,37.39646 57.9575294,34.6483119 L56.1230439,30.0254313 C54.9527558,27.0778594 53.4481468,25.1536619 51.7538259,23.876378 C52.5858423,21.7061723 51.900081,19.3869131 51.1721798,17.5539913 L48.5095461,10.8436211 C46.6936614,6.26929202 43.1680648,0.181005757 33.5506987,0.137603289 L0.00032150205,0 L0.00032150205,0 Z" id="path36" fill="#918F90"></path>
                        <path d="M73.3776936,21.5403287 L74.2814796,35.1973654 L63.9824675,21.5023863 L73.3776936,21.5403287 Z M58.8332496,14.7794235 L54.4846077,9.19851829 C53.8843608,8.43942366 53.409546,7.61574467 53.0828793,6.79172823 C52.5292168,5.40091345 52.5286407,5.27391756 52.6224678,3.88149785 L43.624608,3.84451842 C46.7447725,6.95633727 47.7934967,8.09863354 50.1684761,11.2055964 L74.0130023,42.1476533 L73.5259241,44.4222211 L87.8921789,44.4827149 L85.3571995,9.58205737 C85.2238662,7.49389282 85.439504,5.53755542 85.929216,4.02134969 L69.9720147,3.95383529 C71.1715209,5.47807394 71.3715208,5.73173648 71.7232904,6.6171521 C72.1000805,7.56623026 72.4279817,8.76864176 72.4816443,9.65440305 L72.8022204,14.8395881 L58.8332496,14.7794235 L58.8332496,14.7794235 Z" id="path38" fill="#918F90"></path>
                        <path d="M76.662138,17.8890531 L76.139422,9.42806561 C76.1027141,8.82460883 75.9985989,8.2108393 75.8683932,7.64371174 L81.6641132,7.66846894 C81.641891,8.36872407 81.6534959,9.08625492 81.7000803,9.81580222 L83.9506152,40.8011512 L78.3237017,40.7776945 L76.8088047,17.8890531 L76.662138,17.8890531 Z M34.723209,0.143068309 L41.0368714,6.43936609 C44.0219742,9.41646067 44.9537437,10.4179421 47.2569536,13.4313577 L70.0742369,43.0401635 L68.9975291,48.0680646 L91.8337426,48.1636202 L89.0123435,9.31613145 C88.9144011,7.77938252 89.0600801,6.24871589 89.4164587,5.14885584 L90.9596685,0.3777646 L62.3984347,0.256879829 L67.0926732,6.2204196 C68.1619736,7.57940722 68.1619736,7.57940722 68.3172822,7.96939075 C68.6060065,8.69728373 68.8017267,9.51037013 68.8239489,9.87654296 L68.9030435,11.1580244 L60.6294635,11.1227158 L57.3752249,6.94572822 C56.9904513,6.45930025 56.6894636,5.94553895 56.4895459,5.44110274 C56.4381056,5.31185995 56.2988463,4.96302868 56.2409862,4.78845256 C56.2448546,4.63541552 56.2647723,4.33738261 56.2789286,4.12841142 L56.5422208,0.232767895 L34.723209,0.143068309 L34.723209,0.143068309 Z" id="path40" fill="#918F90"></path>
                        <path d="M110.490532,28.3953902 L117.350614,28.4227153 C118.891355,28.4301227 119.465018,28.7480651 120.244441,30.710205 L122.204112,35.6484765 C122.982713,37.6118509 122.660902,37.9256781 121.119339,37.9204929 L114.259256,37.8909456 L110.490532,28.3953902 Z M107.827981,21.6840324 L103.605759,11.0477363 C102.074072,7.18525085 101.86831,5.66679821 101.835388,4.0888641 L87.7176933,4.02874064 C88.9415616,5.61471591 89.9432076,7.13509447 91.4765409,10.9960491 L102.029627,37.5871596 C103.562137,41.4509455 103.767899,42.9668302 103.500409,44.5466656 L129.649379,44.6537437 C135.216458,44.6788466 137.047733,42.5357191 134.358844,35.7626329 L131.393412,28.2934972 C129.030449,22.3414809 126.618927,22.0151435 123.93333,21.7515221 L123.735799,10.37358 C123.699585,7.78035371 123.466664,5.69380233 123.908639,4.17855957 L110.336623,4.12358837 L111.55473,21.6991764 L107.827981,21.6840324 L107.827981,21.6840324 Z" id="path42" fill="#918F90"></path>
                        <path d="M116.75226,34.2370362 L115.896293,32.0813984 L116.847734,32.0855959 L117.702878,34.2409045 L116.75226,34.2370362 Z M115.440326,24.7505344 L114.265018,7.80413972 L119.995882,7.82729199 C120.004112,8.10539074 120.013166,8.38765411 120.023865,8.67571995 C120.042795,9.22806561 120.062548,9.81160469 120.071602,10.4246911 L120.325923,25.0794232 L123.576129,25.3986825 C125.58189,25.5953903 126.412343,25.6771187 127.986828,29.6451021 L130.95226,37.1148139 C131.809873,39.2749784 131.92263,40.3359661 131.916869,40.7635381 C131.613165,40.8590936 130.949791,41.0101224 129.66584,40.9889702 L124.063371,40.9660895 C124.595059,40.6771183 125.109462,40.2530031 125.531684,39.6318509 C126.919338,37.5971184 126.035388,35.3684765 125.609873,34.29753 L123.650203,29.3586001 C122.358845,26.1060076 120.539092,24.7726743 117.367898,24.7579418 L115.440326,24.7505344 Z M106.972014,40.8963776 C106.68724,39.6158015 106.189298,38.1333324 105.435388,36.2355546 L94.8823022,9.64378577 C94.6024668,8.93999978 94.3382692,8.30279815 94.0823022,7.72087223 L98.6353885,7.73984343 C98.9358,8.96864175 99.4213967,10.4378598 100.199174,12.399012 L105.086417,24.7093821 L105.084771,24.7093821 L111.51687,40.9149784 L106.972014,40.8963776 Z M80.2349774,0.332432913 L84.8172818,6.26832906 C85.8288044,7.57844425 86.6543188,8.78181048 88.0699566,12.3482301 L98.6230428,38.9390114 C100.102055,42.666501 99.9777753,43.3995874 99.8872403,43.934896 L99.1654296,48.193826 L129.634565,48.3185173 C129.677363,48.3185173 129.719338,48.3185173 129.762137,48.3185173 C132.370367,48.3185173 136.002466,47.9478177 138.028803,44.9781059 C140.255964,41.7126739 138.944852,37.3832912 137.765429,34.4106987 L134.799174,26.9409047 C132.696293,21.6418925 130.156375,19.5990942 127.546499,18.7300407 L127.399997,10.3102878 C127.39012,9.65761293 127.369544,9.02395039 127.348968,8.42403271 C127.304524,7.12512739 127.25761,5.78285582 127.426334,5.20415625 L128.789297,0.533372003 L106.407405,0.442708631 L107.056787,9.8099586 L107.012343,9.69621375 C105.539092,5.98443606 105.518516,4.93730852 105.499586,4.01395052 L105.427158,0.439492993 L80.2349774,0.332432913 L80.2349774,0.332432913 Z" id="path44" fill="#918F90"></path>
                        <path d="M143.174482,10.9586829 L149.488062,10.986008 C151.476539,10.9934154 152.000819,11.5627981 153.080655,14.2862548 L161.223041,34.7996699 C162.302877,37.5227974 162.231272,38.0902871 160.241971,38.0828797 L153.928391,38.0558838 L143.174482,10.9586829 Z M141.699585,37.7517686 C143.231272,41.6145669 143.43621,43.133003 143.469132,44.7116038 L168.175304,44.8161306 C174.935798,44.8434557 176.015633,41.5599167 172.748967,33.3314395 L165.813988,15.8577774 C162.547321,7.62538253 158.85514,4.32516862 152.093823,4.29558837 L127.386828,4.19334969 C128.611519,5.77867475 129.612342,7.29970352 131.145676,11.1628804 L141.699585,37.7517686 L141.699585,37.7517686 Z" id="path46" fill="#918F90"></path>
                        <path d="M156.421395,34.4016452 L148.580243,14.6469955 L149.258432,14.6492177 C149.359667,14.8707815 149.49547,15.1861725 149.67407,15.636872 L157.123453,34.4049374 L156.421395,34.4016452 Z M163.261724,41.1303693 C163.826333,40.8323447 164.372012,40.3902871 164.818103,39.73539 C166.274893,37.598353 165.323453,35.1996699 164.628802,33.4483942 L156.487239,12.9339914 C155.66584,10.8632096 154.72263,8.93999978 152.709461,7.97357182 C156.774482,8.13335782 159.464194,9.791687 162.407403,17.2090531 L169.342383,34.6829621 C171.064193,39.0190937 170.898761,40.4748961 170.820572,40.7921801 C170.630448,40.890534 169.971189,41.1493817 168.190119,41.1512747 L163.261724,41.1303693 Z M146.669955,41.0606574 C146.369544,39.8311924 145.883947,38.3623036 145.106169,36.4008221 L145.106169,36.4001637 L134.551437,9.81061704 C134.272425,9.10526726 134.005758,8.4674072 133.750614,7.88387635 L138.018104,7.90219733 L151.186004,41.0792582 L146.669955,41.0606574 Z M119.902878,0.498006572 L124.486417,6.43390107 C125.497116,7.74144837 126.321808,8.94419731 127.739091,12.5144853 L138.293001,39.1030443 C139.763783,42.8128384 139.786828,43.8622211 139.805758,44.788147 L139.879832,48.3609864 L168.159667,48.4809041 C169.707815,48.4873239 174.454317,48.5056778 176.875716,44.9534145 C179.343205,41.3355545 177.896292,36.3641143 176.154728,31.9788469 L169.220572,14.5051848 C166.371189,7.32606566 162.326745,0.675797514 152.109461,0.630465828 L119.902878,0.498006572 L119.902878,0.498006572 Z" id="path48" fill="#918F90"></path>
                        <path d="M140.437857,59.6724265 C141.664194,59.459587 148.564605,58.2950603 154.618926,57.8784348 L154.816457,57.8546488 C156.186004,57.6144842 157.538268,57.5151426 158.969543,57.4106158 C163.468309,57.0810685 168.567074,56.7081467 175.582712,51.6846901 C180.417279,48.2240317 181.026333,44.9437026 181.079831,44.5810688 L181.221395,43.6232911 L180.525098,42.9497932 C178.65514,41.1403282 178.942382,40.6005751 179.051024,40.397036 C179.133329,40.2423858 179.486415,39.743785 180.531683,39.9131677 C180.697938,39.9369537 180.995057,39.9716862 181.312753,40.0080648 C183.828802,40.2823035 195.554728,44.6897108 195.659254,53.5911921 C195.755551,61.5283935 190.183534,68.488311 188.473246,70.4327554 L188.088884,70.8693809 L188.017279,71.4474056 C188.008226,71.5223027 186.862547,79.6746482 178.953905,85.639504 C172.57695,90.4477344 164.548967,95.5555532 160.86337,97.8510264 L159.964605,95.1448536 L158.313576,95.4954709 C158.100408,95.5407384 136.60905,99.9695448 104.24115,95.2699565 L104.069133,95.2452651 L103.894648,95.2518495 C103.893825,95.2518495 103.893002,95.2518495 103.892178,95.2518495 C103.728392,95.2518495 102.157199,95.2082281 101.257611,93.5917672 L100.851849,92.8617261 L93.9473228,91.2477343 L97.353084,89.021397 L94.1415614,87.2115205 L95.1218083,85.0806563 L90.623043,83.2962942 L95.2625491,77.9497923 L140.437857,59.6724265 Z M180.118514,36.1030444 C177.890531,36.1024682 176.375304,37.3932501 175.719337,38.6246081 C174.374481,41.1539084 175.855963,43.4384351 177.03621,44.7697931 C176.600819,45.5976943 175.599996,47.031933 173.386827,48.616542 C167.232918,53.0224678 163.08477,53.3259246 158.693823,53.6474061 C157.263371,53.7519328 155.785181,53.8599163 154.263371,54.1206571 C147.441149,54.5977764 139.9037,55.9339904 139.585182,55.9905336 L139.20905,56.0991756 L93.005759,74.7916854 L84.2864176,84.8427962 L90.0312735,87.1201624 L89.2625492,88.7925904 L90.0921788,89.2600801 L84.5037016,92.914401 L98.4353885,96.1720141 C100.050203,98.3991745 102.455965,99.0197506 103.847734,99.0255119 C132.050202,103.101232 151.739091,100.469133 157.434564,99.4971169 L158.780243,103.545676 L160.802465,102.321808 C160.919338,102.251026 172.548144,95.1942363 181.224687,88.6518496 C189.239501,82.6074053 191.242794,74.7427965 191.664193,72.5112739 C194.297114,69.4174468 199.536621,62.1633729 199.432094,53.5461715 C199.297114,42.0116039 185.441148,36.6618098 181.73086,36.2580238 C181.465839,36.2281472 181.209049,36.1985999 181.093823,36.182139 C180.755551,36.1281472 180.430448,36.1030444 180.118514,36.1030444 L180.118514,36.1030444 Z" id="path50" fill="#231F20"></path>
                        <path d="M106.714401,95.1588454 C106.714401,95.1588454 130.653495,98.172014 144.610696,96.7777754 C158.569543,95.3876519 160.16872,94.8057589 160.16872,94.8057589 L161.339914,97.1604914 C161.339914,97.1604914 177.248555,88.1744834 182.499584,81.5627963 C187.755551,74.9530845 187.32839,70.796706 187.32839,70.796706 C187.32839,70.796706 195.0716,62.8931672 194.962135,53.6574472 C194.851024,44.4164598 182.525098,40.8889702 180.477362,40.5668303 C178.423041,40.2411513 182.235386,43.5339907 182.235386,43.5339907 C182.235386,43.5339907 178.691354,51.9469946 170.240325,55.2787641 C161.791766,58.6172002 158.807403,56.9807393 152.764605,57.5883936 C146.730037,58.1985994 140.125099,59.7617269 140.125099,59.7617269 C140.125099,59.7617269 140.052671,55.6803278 137.920984,51.7209864 C135.785182,47.7691346 132.911108,45.617612 132.911108,45.617612 C132.911108,45.617612 130.458433,46.7428795 129.041972,49.1280646 C127.623865,51.5120152 127.090532,53.1822209 127.090532,53.1822209 C127.090532,53.1822209 121.759668,51.2708629 119.560491,50.3131675 C117.355553,49.361151 120.944853,53.4195048 120.944853,53.4195048 C120.944853,53.4195048 112.809874,51.6727559 106.911931,52.4893814 C101.021397,53.3037847 110.291355,55.7995871 108.478187,58.2864183 C106.669956,60.7738256 100.062549,58.7892166 96.6534955,59.1991755 C93.2436191,59.6061713 90.4724257,62.2630437 90.4724257,62.2630437 C90.4724257,62.2630437 95.5539071,65.3697103 95.9827136,65.9795868 C96.4057589,66.590451 92.3909442,67.2382699 92.3909442,67.2382699 C92.3909442,67.2382699 95.7308618,69.8305332 97.2962939,70.3102863 C98.8617259,70.7876526 94.9135779,71.0962945 94.9135779,71.0962945 C94.9135779,71.0962945 95.6279811,74.7736607 99.8880633,75.5912738 C104.152261,76.41078 90.6897097,80.7353066 89.6246891,81.4190926 C88.5613147,82.0974465 95.1316849,83.3621378 95.1316849,83.3621378 L94.7069935,86.2921789 L99.645265,87.4230431 L95.4905326,90.5152241 C95.4905326,90.5152241 101.777775,92.2584339 102.877364,92.2921788 C103.976952,92.3292158 102.237858,93.587652 102.237858,93.587652 C102.237858,93.587652 103.232919,95.0205738 106.714401,95.1588454" id="path52" fill="#FFFFFF"></path>
                        <path d="M192.273246,53.6847723 C192.220571,49.0271593 188.411518,44.5466656 184.916045,43.7573652 L184.895469,43.8972829 C184.82551,44.3177767 180.565428,53.9216447 171.293,57.5772002 C164.946498,60.0816446 161.281477,60.0157187 157.734152,59.9539903 C156.211519,59.9234553 154.77119,59.8984347 153.055963,60.0697927 C147.286416,60.6558833 140.853494,62.1665828 140.790943,62.1842783 L137.497939,62.9616445 L137.441972,59.8067475 C137.439503,59.7794224 137.33333,56.2059245 135.517692,52.8337435 C134.583536,51.1037024 133.487239,49.7726737 132.631272,48.8767066 C132.198351,49.2582704 131.746499,49.7421387 131.395058,50.3330852 C130.156375,52.4163773 129.66831,53.88469 129.661725,53.9023855 L128.822219,56.4695459 C128.81975,56.4776118 126.965429,55.8120974 126.339091,55.5906159 L128.025511,57.5009862 L120.341561,55.8500398 C120.277363,55.8381879 114.963783,54.7193402 110.117693,54.7730027 C111.25761,56.0419739 112.094647,57.7752249 110.703701,59.6849368 C108.616458,62.5495458 104.408228,62.1665828 100.697117,61.8283935 C99.3012321,61.70041 97.8617259,61.5702042 96.9975284,61.6750602 C96.3753062,61.7496281 95.7580223,61.9553894 95.1761293,62.2093812 C97.7102856,63.8757186 98.026335,64.3238667 98.2337424,64.6238667 L99.0255119,65.7548955 C99.0403267,65.915307 98.4551416,67.1476526 98.4551416,67.1476526 C98.334977,67.4023028 98.1753062,67.6433728 97.9621375,67.8684757 C98.0230428,67.8941547 98.0905325,67.9246897 98.1333309,67.9395045 C99.95473,68.4962946 100.453495,69.8440312 100.329216,70.8314386 C100.219751,71.6985167 99.7687218,72.269134 99.1464996,72.6668295 C99.4987629,72.8745661 99.9127547,73.0497924 100.432096,73.1516854 C102.975306,73.6345661 103.340738,75.3305331 103.391767,75.8400804 C103.608228,77.9420557 101.732508,79.2312737 97.0131663,81.1753889 L98.1267465,81.38757 L97.7934132,83.6946481 L97.6880634,84.4032901 L100.288063,84.9942366 L105.566253,86.2049361 L101.323454,89.367076 L101.246911,89.4271583 C102.10617,89.6329196 102.766253,89.7769525 103.038681,89.8032899 C104.590121,89.8534957 105.48724,90.8032899 105.790944,91.6740718 C105.895471,91.9769524 105.928392,92.278187 105.920162,92.5777755 C106.186006,92.6181047 106.476541,92.6518495 106.827158,92.6658413 L106.950615,92.6707796 L107.072425,92.6855944 C107.311931,92.7111088 130.855141,95.6395038 144.324276,94.297117 C157.010696,93.0304503 159.256786,92.4567878 159.345675,92.4312734 L161.701231,91.5777755 C161.574482,91.6205738 162.231272,92.987652 162.493823,93.5308619 C167.10123,90.7571994 176.676539,84.693002 180.340736,80.0806564 C184.781888,74.4939899 184.653493,71.0111093 184.653493,70.9776937 L184.599995,69.9404921 C184.594234,69.8846073 185.344028,69.1174468 185.344028,69.1174468 C185.413164,69.0477349 192.374481,61.7939902 192.273246,53.6847723 L192.273246,53.6847723 Z M189.994234,71.7344838 C189.831271,73.646171 188.92839,77.6767882 184.660901,83.0452654 C179.159666,89.9695451 163.405757,98.9152239 162.736621,99.2938247 L160.165428,100.74403 L158.902877,98.208228 L158.618103,97.6427959 C155.861724,98.0748947 151.158021,98.6345654 144.897939,99.2600798 C130.777775,100.667487 107.344853,97.7571992 106.351438,97.6296272 L106.599174,97.6510264 C101.963783,97.4716025 100.271602,95.3629606 99.9794214,94.9382692 L99.4296271,94.1440306 C97.9432074,93.7843598 96.2279811,93.3234545 94.7226314,92.9086397 L89.8131665,91.5522611 L93.7226314,88.6362118 L91.7226315,88.1802447 L92.0460882,85.9613147 L92.1432076,85.2864176 C88.1201624,84.328393 87.1695451,83.437858 86.8798332,82.1032901 C86.6477345,81.0451832 87.1160472,79.9948951 88.1028785,79.363784 C88.5818908,79.0567058 89.2913558,78.7785989 91.2724257,78.0208211 C92.2707796,77.6398334 93.9637837,76.9897923 95.4781869,76.351603 C93.478187,74.8643603 92.5251006,72.8516854 92.2707796,71.5371176 L92.0008207,70.1462534 C91.423866,69.7308625 90.9382693,69.3643604 90.6683105,69.1544839 L86.2148127,65.7002453 L90.1514381,65.0665827 C89.7621377,64.8215622 89.3728373,64.5778585 88.9967056,64.3464181 L86.2880637,62.6906157 L88.5415616,60.5278997 C88.894648,60.190945 91.9547302,60.0353894 96.1761293,59.5360479 C97.6427959,59.3602454 99.4098741,58.4902043 101.176952,58.6535788 C102.186006,58.7441961 103.793413,57.090122 104.950615,57.0595047 C104.898763,57.02255 104.842796,56.9743196 104.795882,56.9437846 C103.509462,55.9748134 101.750615,54.6460069 102.351438,52.6083114 C102.970368,50.5105337 105.548146,50.1556366 106.518516,50.0218918 C109.641973,49.5846078 113.254318,49.7987642 116.15473,50.1315214 C116.19259,49.6380235 116.375306,49.157365 116.758022,48.6988465 C116.996705,48.4098753 118.317693,47.0241964 120.69547,48.0510276 C121.843618,48.5519329 123.926746,49.3412333 125.587651,49.9511099 C125.884771,49.350863 126.244441,48.6741552 126.693824,47.9195873 C128.465017,44.9366244 131.395058,43.5316862 131.720161,43.3822211 L133.258433,42.6771183 L134.592589,43.6753899 C134.732507,43.7750606 137.950614,46.2146491 140.317692,50.6009041 C141.500408,52.788723 142.119338,54.9996694 142.447733,56.6981879 C144.99012,56.1780233 148.804935,55.4793402 152.477362,55.1096283 C154.533329,54.8999986 156.212342,54.9321797 157.837856,54.9595048 C161.093823,55.0189287 163.906169,55.0730027 169.190119,52.9796695 C174.93086,50.7195049 178.690531,46.8769536 179.316045,44.3627972 C177.550613,42.6556368 176.656786,41.1316862 177.484769,39.5685587 C177.962959,38.6731678 179.116045,37.8163777 180.926744,38.1079826 C181.05514,38.1250196 181.332506,38.1545669 181.62551,38.1899579 C185.184358,38.5731678 197.526744,43.6956368 197.649378,53.628476 C197.748966,62.1665828 191.992588,69.4624674 189.994234,71.7344838 L189.994234,71.7344838 Z" id="path54" fill="#918F90"></path>
                        <path d="M159.441148,60.9169532 C162.603288,60.9169532 166.13909,60.6253483 171.639502,58.4545664 C179.838679,55.2221385 184.288884,47.576542 185.492176,44.9251018 C188.311929,46.0599988 191.285592,49.8109453 191.330036,53.6956365 L191.330036,53.696295 C191.426333,61.3959655 184.736621,68.3889695 184.669131,68.4584345 C183.836209,69.3103686 183.612341,69.539916 183.660901,70.0347308 L183.711107,71.0259242 C183.712753,71.1323439 183.729214,74.3013973 179.602465,79.4939898 C176.219749,83.7506152 167.385181,89.44115 162.90123,92.1802446 C162.694646,91.7242775 162.632095,91.5473228 162.614811,91.4790101 C162.688885,91.7720142 162.517691,92.2888866 162.018103,92.4658413 L162.022218,92.4650183 L161.401642,90.6831253 L160.990942,90.8312734 L159.02551,91.5448537 L159.02551,91.5440306 C159.00658,91.5440306 156.618103,92.1218084 144.230449,93.3580224 C131.911931,94.588475 111.284771,92.241973 107.274894,91.7596685 L106.864195,91.7234545 C106.837034,91.7226315 106.809051,91.7209854 106.782713,91.7193393 C106.756376,91.5999977 106.722631,91.4823022 106.682302,91.3662529 C106.324277,90.3374463 105.293825,89.131685 103.531685,88.8979402 L107.766252,85.7415616 L98.7489687,83.6773642 L99.0905325,81.3165412 C102.339092,79.8678992 104.599174,78.3587635 104.330039,75.7436195 C104.195059,74.399422 103.20082,72.8028788 100.827981,72.2704509 C101.056788,71.8785167 101.20329,71.437776 101.265018,70.9503686 C101.419751,69.7228789 100.86831,68.2716032 99.3621374,67.436953 C100.001644,66.0770354 99.9843596,65.8879819 99.9654296,65.6703687 L99.9432074,65.4195868 L99.0065819,64.0827144 C98.7670757,63.7371177 98.4526724,63.3651836 97.3925902,62.5883935 C98.2049358,62.546912 99.4757177,62.6639491 100.610697,62.7674881 C104.374483,63.1118503 109.061726,63.5384346 111.466664,60.2401631 C112.497117,58.8255129 112.640326,57.2743196 111.915224,55.7468299 C115.833742,55.913085 119.651026,56.6718504 120.131684,56.7698751 L130.628803,59.0251837 L129.156375,57.3566241 C129.185182,57.3434554 129.214812,57.3279821 129.247733,57.3116035 L129.596705,57.1348134 L130.558021,54.1958834 C130.606581,54.0557188 131.082301,52.7047723 132.205758,50.8153074 C132.319338,50.6250193 132.452672,50.4369535 132.604112,50.2523444 C133.409873,51.194402 134.108639,52.2102868 134.688062,53.2822209 C136.305346,56.2860068 136.483947,59.4827146 136.499585,59.8372825 L136.574482,64.1486404 L141.007404,63.1021383 C141.081478,63.084196 147.487239,61.5830437 153.151437,61.0082289 C154.841971,60.8394223 156.301231,60.869052 157.715222,60.8972824 C158.283947,60.9069944 158.856786,60.9169532 159.441148,60.9169532 L159.441148,60.9169532 Z M184.127567,42.6125092 L183.972835,43.6856779 C183.732506,44.2631265 179.753082,53.2278999 170.947321,56.6994225 C164.780243,59.133908 161.213988,59.0730849 157.758844,59.0106981 C156.283947,58.9818092 154.766251,58.9512742 152.962136,59.130945 C147.059256,59.7306158 140.583536,61.2628791 140.534153,61.2767063 L138.420573,61.7749779 L138.385182,59.7903689 C138.357198,59.1065829 138.128392,55.6925089 136.348145,52.3861715 C135.537445,50.8847724 134.516869,49.4855955 133.3144,48.2255955 L132.688063,47.5694638 L132.008227,48.1690523 C131.418927,48.6883115 130.939914,49.2541551 130.584359,49.8502045 C129.388474,51.8618094 128.863371,53.3211509 128.770367,53.5930851 L128.224688,55.2613978 C127.980244,55.1739081 127.712754,55.0787641 127.462548,54.9890521 L123.223042,53.48576 L125.422219,55.9767064 L120.539915,54.9276529 C119.572013,54.7308628 114.651026,53.7956365 110.106993,53.8297106 L108.023866,53.8531674 L109.415635,55.4031262 C111.01975,57.1888052 110.483125,58.3847722 109.940738,59.1293812 C108.169545,61.5621384 104.244442,61.2053483 100.782714,60.8889697 C99.3432074,60.7564594 97.8559646,60.6198339 96.8839482,60.738517 C96.2378577,60.8159656 95.5555532,61.0146487 94.7983515,61.3448544 L93.2032899,62.0415622 L94.6576108,62.9973647 C97.0477342,64.5688873 97.3259235,64.9694634 97.4592568,65.162056 L97.9802445,65.9053481 C97.8831251,66.1365416 97.7423844,66.4502864 97.6032897,66.742879 C97.517693,66.9225498 97.4115202,67.0781876 97.2773638,67.2203275 L96.3456766,68.2044427 L97.5917671,68.7362123 C97.7061704,68.7853481 97.7827136,68.8165415 97.8353885,68.834237 C99.1152239,69.2258419 99.4748946,70.060739 99.3942362,70.7140723 C99.3292156,71.2220558 99.0954708,71.5795044 98.6386807,71.8724262 L97.3432074,72.6999982 L98.6674872,73.4795866 C99.1596683,73.7692986 99.6765407,73.9647718 100.251026,74.0772821 C102.10617,74.4296278 102.409051,75.4938253 102.452672,75.9348952 C102.580244,77.1672409 101.693825,78.2275701 96.6543186,80.3035371 L93.7267466,81.509463 L97.0641951,82.145677 L96.6271581,85.129216 L103.366253,86.6683106 L99.1078165,89.8847714 L101.027158,90.3440307 C102.340738,90.659257 102.743207,90.7218084 102.947323,90.7423846 C104.09794,90.7810677 104.699586,91.4090512 104.900409,91.9851829 C104.957199,92.150615 104.983536,92.3374463 104.977775,92.5522611 L104.955553,93.3851829 L105.778598,93.5102857 C106.129215,93.5637837 106.450203,93.5942363 106.788475,93.6082281 L107.04938,93.6329195 C111.093824,94.1193392 131.900408,96.4847713 144.418103,95.2353886 C157.435387,93.9358001 159.524276,93.3613145 159.607403,93.3374462 L161.107815,92.7950594 C161.241971,93.1004092 161.418926,93.4732487 161.643617,93.9407384 L162.093,94.8724256 L162.980243,94.3390923 C168.16049,91.2205739 177.400819,85.2979403 181.079831,80.6674054 C185.548144,75.0453479 185.604934,71.3622204 185.59588,70.9606567 L185.560489,70.2578583 C185.69053,70.1167061 185.866662,69.933167 186.018925,69.7771999 C186.088884,69.7068295 193.321806,62.1485581 193.217279,53.6738258 L193.217279,53.6738258 C193.156374,48.3510276 188.902876,43.6908631 185.123452,42.8372829 L184.127567,42.6125092 L184.127567,42.6125092 Z" id="path56" fill="#231F20"></path>
                        <path d="M174.610695,62.9921795 C174.610695,62.9921795 179.887238,59.956624 183.181888,53.6451838 C185.723452,48.7534967 183.695469,45.4536614 183.695469,45.4536614 L185.227156,42.9037849 C185.227156,42.9037849 193.213164,53.6326736 174.610695,62.9921795" id="path58" fill="#231F20"></path>
                        <path d="M156.938268,77.993496 C156.792589,77.3826318 163.562959,72.8713562 163.562959,72.8713562 L169.464193,69.0985168 L175.325922,72.9990105 C175.325922,72.9990105 180.669954,72.9565414 182.293,72.6350599 C183.455962,72.3935784 177.045263,73.3606566 170.921806,77.0569528 C168.474893,78.536212 162.154728,79.6412326 162.154728,79.6412326 C162.154728,79.6412326 157.408227,80.0083931 156.938268,77.993496" id="path60" fill="#918F90"></path>
                        <path d="M180.939913,73.9657595 C180.939913,73.9657595 175.72016,74.2454302 171.202465,77.591603 C166.683946,80.9410679 161.097115,80.2295453 161.097115,80.2295453 L165.472424,77.5861709 C165.472424,77.5861709 163.479831,73.1539076 166.133329,71.6647719 C170.02551,69.4801629 173.40658,73.4313562 173.40658,73.4313562 C173.40658,73.4313562 178.000819,73.396706 180.939913,73.9657595" id="path62" fill="#231F20"></path>
                        <path d="M169.829625,74.3467471 C169.705346,73.5525908 169.190119,72.8516854 168.438679,72.6218089 C168.588473,73.3259241 168.476539,76.2065825 169.700407,73.8917677" id="path64" fill="#FFFFFF"></path>
                        <path d="M190.35802,45.4179413 C190.35802,45.4179413 184.665839,40.8931677 182.440325,43.1577767 C182.440325,43.1577767 185.499584,44.1612335 184.060901,46.8769536 C182.622218,49.5974473 186.670777,44.1039495 186.670777,44.1039495 L190.35802,45.4179413" id="path66" fill="#231F20"></path>
                        <path d="M158.463371,97.7662527 C158.463371,97.7662527 122.823865,103.318516 79.954319,95.5514379 C51.2972827,90.3530842 39.2904517,83.2765411 39.2904517,83.2765411 C39.2904517,83.2765411 51.8386818,86.0230431 63.8065828,78.8561297 C63.8065828,78.8561297 32.7437029,75.3855125 11.9855964,50.7227148 C11.9855964,50.7227148 32.3328387,69.0782699 59.6518504,68.4571176 C86.9711912,67.8346485 91.8559648,64.3913564 91.8559648,64.3913564 L96.6024667,70.8021381 L97.5917671,76.034566 L97.7399153,79.8588457 L92.9522611,82.1852654 L92.0460882,85.9613147 C92.0460882,85.9613147 96.5119317,85.5958826 97.1917671,86.0946481 C97.8716025,86.5917674 99.6148123,88.7432077 99.6148123,88.7432077 L97.261726,90.8074051 L103.413989,92.1711911 L107.236211,95.3736602 C107.236211,95.3736602 134.758021,97.9061704 139.353083,97.8032897 C143.947322,97.7061704 148.099585,97.1201622 148.099585,97.1201622 L158.463371,97.7662527" id="path68" fill="#918F90"></path>
                        <path d="M25.4295467,36.8981884 C25.4295467,36.8981884 47.264361,52.788723 67.4298749,53.1098752 C87.5967056,53.4281468 108.864195,47.7958013 109.627158,47.6437025 C110.390121,47.4916038 69.4344839,45.6102046 69.4344839,45.6102046 C69.4344839,45.6102046 41.0593405,47.5639494 25.4295467,36.8981884" id="path70" fill="#918F90"></path>
                        <path d="M42.0562952,30.6474889 C42.0562952,30.6474889 50.1446901,39.4142377 64.5994223,41.9682294 L79.4785165,40.3349784 C79.4785165,40.3349784 48.3655132,37.2913571 42.0562952,30.6474889" id="path72" fill="#918F90"></path>
                        <path d="M135.297939,95.4781869 C135.297939,95.4781869 97.134154,96.5802445 68.3892987,88.4732488 C68.3892987,88.4732488 81.7059239,90.6567879 102.020574,84.3794218 L114.045265,85.6074053 L106.589298,89.5390924 C106.589298,89.5390924 127.45761,95.3423844 135.297939,95.4781869" id="path74" fill="#231F20"></path>
                        <path d="M101.36543,80.5687223 C101.36543,80.5687223 95.5860058,84.5448539 70.1109447,80.7240309 C70.1109447,80.7240309 88.5563764,76.7470763 97.171191,72.8295455 C105.786006,68.9111094 105.636211,78.3638664 101.36543,80.5687223" id="path76" fill="#231F20"></path>
                        <path d="M141.882301,93.6806561 C141.882301,93.6806561 154.827157,93.5843598 162.700407,89.8650183 C163.851848,89.3193393 164.53086,88.8460883 164.53086,88.8460883 C164.53086,88.8460883 164.321807,91.2189278 163.796704,92.4897096 C163.271601,93.7596684 163.441148,93.697117 163.065016,94.205759 C162.688062,94.715224 161.097115,95.8288042 161.097115,95.8288042 L161.172835,93.0617261 C161.172835,93.0617261 151.22798,94.933331 141.882301,93.6806561" id="path78" fill="#231F20"></path>
                        <path d="M83.2518498,89.1753064 C88.4304505,88.4732488 92.7251006,85.8452653 96.6790099,82.8938251 C95.3818906,82.9308621 94.1102857,82.5695453 92.8098742,82.4510267 C91.4609031,82.3341543 88.5514381,82.3678992 87.6057591,81.6956358 C92.7481458,80.3784342 98.2930017,81.0060062 102.970368,78.5577758 C103.012343,80.5227963 101.467487,81.3799157 100.633742,82.8148127 C102.269956,83.5868292 104.385183,84.2576111 106.128392,84.729216 C107.237857,85.0288045 108.488063,84.8954711 109.546499,85.2962942 C106.728392,86.5209855 103.576129,86.9901213 100.576952,87.7399155 C96.5119317,88.7563764 92.9670759,89.0074052 88.7703682,88.6823023" id="path80" fill="#231F20"></path>
                        <path d="M65.5381877,68.2102041 C83.8106975,66.7949778 85.1728374,66.8968708 89.6469113,67.0409037 C94.2016437,67.1868296 96.225512,67.7408214 96.6222198,69.9205744 C97.0559647,72.2836196 89.6650183,76.7692162 83.3218086,77.7450186 C76.9798335,78.7158828 98.3744831,75.0591751 100.570368,72.3180229 C102.76543,69.5759653 102.876541,68.3120971 100.446911,67.0409037 C100.446911,67.0409037 103.09794,65.7883111 103.450203,63.9962947 C103.80329,62.2068297 101.620574,61.3895458 95.6288042,61.7688873 C72.0351422,63.2532494 77.3920145,67.2916856 65.5381877,68.2102041" id="path82" fill="#231F20"></path>
                        <path d="M99.4600798,84.3440308 C99.7135778,84.3646069 107.114401,78.8920968 105.917693,74.9913561 C104.721808,71.0898748 102.431273,70.9178583 97.3448535,73.3921792 C92.2584339,75.8645249 85.274895,78.5101215 85.274895,78.5101215 C85.274895,78.5101215 73.7249364,80.156212 70.1109447,80.7240309 C66.4966239,81.2944013 62.2135787,82.3983518 62.2135787,82.3983518 C62.2135787,82.3983518 85.6271584,83.2979403 90.0378578,83.6329197 C94.4543186,83.96543 93.6156355,85.7234546 89.8987632,87.1909443 C86.1818908,88.6600801 77.1540721,89.3251006 77.1540721,89.3251006 C77.1540721,89.3251006 101.492179,89.4213969 103.167076,88.8329196 C104.842796,88.2452653 99.4600798,84.3440308 99.4600798,84.3440308" id="path84" fill="#231F20"></path>
                        <path d="M134.937445,94.1810676 C134.937445,94.1810676 108.79259,92.6337425 110.779421,89.5909443 C112.768721,86.5432077 116.442795,85.6592571 116.442795,85.6592571 C116.442795,85.6592571 103.712755,84.548146 104.371191,82.419751 C105.027158,80.2912737 107.939092,79.1997511 107.878187,74.5447718 C107.814812,69.8890518 104.885594,67.6308625 103.083125,66.7688872 C103.083125,66.7688872 114.371191,64.7164593 114.58189,60.5198339 C114.79259,56.3194225 113.083948,56.1883114 113.083948,56.1883114 C113.083948,56.1883114 128.131684,57.6167064 130.918515,59.7193401 C130.918515,59.7193401 128.80082,51.4384349 133.664194,53.3879822 C137.201643,54.8041962 137.730861,60.5256775 137.730861,60.5256775 C137.730861,60.5256775 135.466663,50.1797518 132.631272,48.8767066 C132.631272,48.8767066 132.217281,48.4812334 131.002466,49.8418095 C129.79012,51.2050193 130.359668,51.8302868 125.116046,52.7411509 C119.875717,53.650369 105.19259,53.4105336 105.19259,53.4105336 C105.19259,53.4105336 110.286417,55.9780233 109.475717,58.0941549 C108.665018,60.2144018 105.401643,59.9684759 99.1218082,60.2192578 C92.841973,60.4722619 72.7231258,61.5654306 72.7231258,61.5654306 C72.7231258,61.5654306 89.9209854,63.4446075 93.7432075,64.4656774 C102.190944,66.7126732 99.8831251,67.5944839 99.6847712,69.8553069 C99.4954708,72.0241957 99.0065819,74.0187636 99.0065819,74.0187636 C99.0065819,74.0187636 103.837857,74.2399981 101.953084,77.874566 C100.069133,81.5123436 98.026335,83.3925905 98.026335,83.3925905 L102.801644,87.8238661 L102.729216,90.4337426 C102.729216,90.4337426 111.552261,93.2814791 114.505347,93.5053475 C117.45761,93.7275697 134.937445,94.1810676 134.937445,94.1810676" id="path86" fill="#231F20"></path>
                        <path d="M60.5748133,62.4575293 C60.5748133,62.4575293 87.7259237,65.2990107 106.87901,61.0535787 C111.513577,60.0237845 110.021396,54.5891344 106.325923,54.1534966 C106.325923,54.1534966 120.275717,53.7892168 127.233742,55.7365418 C127.233742,55.7365418 129.145676,49.4158012 132.520161,49.6717683 C135.893001,49.9257601 137.147322,53.0176118 138.332507,54.9996694 C139.516869,56.9833731 131.720161,45.1964598 131.720161,45.1964598 C131.720161,45.1964598 126.993412,48.7809041 126.601643,49.3840317 C126.212343,49.9816448 118.181067,46.6914392 108.682302,44.713826 C108.682302,44.713826 111.929215,46.377612 114.096293,48.7502868 C114.096293,48.7502868 111.749791,48.4162951 95.0444421,47.3067478 C78.3349775,46.2001635 61.2731672,51.0586819 61.2731672,51.0586819 C61.2731672,51.0586819 55.0559657,54.2126735 61.674731,54.2415624 C68.2905333,54.2688875 99.2609029,53.072262 101.610697,56.2770356 C102.745676,57.8266652 75.1045249,63.2436198 60.5748133,62.4575293" id="path88" fill="#918F90"></path>
                        <path d="M178.875716,47.3205749 C176.454317,50.8731675 171.716868,50.8539082 170.16049,50.8484761 L141.878186,50.7279 L141.805758,47.1534145 C141.791766,46.4804927 141.774482,45.7362128 141.196704,43.9470771 C141.089708,45.1359659 140.744029,46.2966244 140.02798,47.3453486 C137.968721,50.3646078 134.250202,50.697365 131.632919,50.68576 C131.632095,50.68576 107.16296,50.5854308 102.094648,50.5645255 C102.027158,50.573579 101.963783,50.5877354 101.88724,50.5877354 C100.731685,50.5877354 85.9374464,50.512509 71.8820558,50.438188 L70.9976114,50.4349782 L70.9982698,50.4343197 C64.0753893,50.3983526 57.4060891,50.3626325 52.7214802,50.3378588 C52.2655954,50.358188 51.8801633,50.3562127 51.600081,50.3546489 C51.5995049,50.3546489 21.9746497,50.2292169 21.9746497,50.2292169 L21.9026332,46.6544844 C21.8843616,45.7307807 21.8634562,44.6842787 20.3902876,40.9731677 L9.83703679,14.381728 C8.42082283,10.8130861 7.59581051,9.61069935 6.58468296,8.30213971 L2.00231271,2.36625508 L35.5494641,2.504502 C35.9731678,2.50610693 36.3711925,2.53408224 36.7717686,2.55980241 L36.7219744,2.50932504 L58.4827969,2.60159664 C58.4827969,2.60159664 58.2510274,7.0360739 58.2449368,7.15470764 C58.2847722,7.26176937 58.4879821,7.80574466 58.4879821,7.80574466 C58.6888874,8.31176934 58.9904512,8.82617262 59.3604923,9.29464997 C59.3705335,9.3078187 61.3406569,11.835473 62.6292165,13.489547 C64.4695457,13.497942 67.5652658,13.5101231 70.9027966,13.5249379 C70.8734962,13.0510285 70.8240312,12.2469956 70.8240312,12.2469956 C70.8014797,11.8766252 70.6063357,11.0641973 70.3176114,10.338189 C70.1623851,9.94567876 70.1623851,9.94567876 69.0927555,8.58765411 L64.3984346,2.62474068 L82.232179,2.70029623 L82.2311914,2.69965425 L92.2098742,2.74144849 L92.9588454,2.74498759 L107.428804,2.80735795 L107.500409,6.38278173 C107.518516,7.30548953 107.539092,8.35069938 109.012343,12.0650203 C109.012343,12.0650203 109.056787,12.1746499 109.05761,12.1768721 C108.897117,9.85695449 108.408228,2.80992586 108.408228,2.80992586 L130.786005,2.90027153 L130.785182,2.90219746 L154.109461,2.99832914 C164.325922,3.04366248 168.370366,9.69300387 171.220572,16.8724276 L178.155551,34.3464189 C179.896292,38.7316863 181.343205,43.702715 178.875716,47.3205749" id="path90" fill="#231F20"></path>
                        <path d="M134.03868,49.552509 C137.051025,49.2962128 142.554729,50.8548958 144.567898,52.9651839 C145.181066,48.8284761 142.723453,41.539999 141.03621,37.7115217 C138.805758,39.0860073 139.854317,42.4134969 139.418927,44.6039495 C138.93333,47.0559659 137.483947,47.9594227 135.320984,48.9104515" id="path92" fill="#231F20"></path>
                        <path d="M136.924276,27.7581886 L128.59012,9.16633722 L127.629626,23.2697114 C127.629626,23.2697114 134.999997,25.8339911 136.924276,27.7581886" id="path94" fill="#231F20"></path>
                        <path d="M32.2579416,30.4288881 L39.3171184,30.4584355 C40.8577768,30.4636206 41.431357,30.781563 42.2100401,32.7459251 L44.1705339,37.6841966 C44.9488878,39.6453488 44.6270771,39.9598344 43.0860895,39.9539908 L36.0271596,39.9244434 L32.2579416,30.4288881 Z M25.2729212,12.8279009 L32.331851,12.8575305 C33.8728387,12.8626334 34.4457605,13.180905 35.2250197,15.1456786 L37.7379414,21.4750612 C38.5162953,23.4394233 38.1944846,23.7529212 36.6538262,23.7480652 L29.5945672,23.7185179 L25.2729212,12.8279009 Z M23.7969541,39.6212336 C25.3295467,43.4841141 25.5349788,45.0003281 25.5668306,46.5801634 L51.615225,46.6904515 C58.3265829,46.7177766 58.5107804,43.3050195 56.5516035,38.366748 L54.7167888,33.7441967 C52.6813156,28.6162956 49.8440317,27.7202462 45.2437026,27.2595055 L45.1932499,27.1325096 C50.136295,26.3313574 51.4753897,25.5774479 49.7665831,21.2734974 L47.103291,14.5630449 C45.1437026,9.62477342 42.2453487,6.19984347 35.5343201,6.16865828 L9.48559647,6.06256775 C10.7102055,7.64789281 11.7106993,9.16855944 13.2432918,13.029547 L23.7969541,39.6212336 L23.7969541,39.6212336 Z" id="path96" fill="#FFFFFF"></path>
                        <path d="M75.3777759,23.9072422 L76.2811504,37.5655958 L65.9825498,23.869629 L75.3777759,23.9072422 Z M60.8330026,17.146337 L56.4846899,11.5663372 C55.8847723,10.8066664 55.409299,9.9826335 55.0826324,9.15892981 C54.5296283,7.76781051 54.5286406,7.64113561 54.6228793,6.24935787 L45.624361,6.21142371 C48.7445255,9.32353886 49.7939082,10.4658434 52.1685584,13.5728392 L76.0130845,44.5145668 L75.5260063,46.7891346 L89.8921788,46.8496285 L87.3571995,11.9498762 C87.2238661,9.8608228 87.4386809,7.90445248 87.9292159,6.38856774 L71.9724262,6.32105334 C73.1719323,7.84529198 73.3716031,8.09863354 73.7232903,8.98436192 C74.1000805,9.93341539 74.428064,11.1358845 74.4813973,12.0213166 L74.8023027,17.2065016 L60.8330026,17.146337 L60.8330026,17.146337 Z" id="path98" fill="#FFFFFF"></path>
                        <path d="M112.491355,30.762633 L119.351437,30.7899581 C120.891355,30.7970363 121.465018,31.1153079 122.244441,33.0774477 L124.203289,38.0157192 C124.982713,39.9790937 124.661725,40.29325 123.119338,40.2877356 L116.259256,40.2581883 L112.491355,30.762633 Z M109.827158,24.0512751 L105.606582,13.4156375 C104.073248,9.55218083 103.867487,8.03369527 103.836211,6.45608214 L89.7176932,6.39595869 C90.9423846,7.98193396 91.9432076,9.50197507 93.4765409,13.3628803 L104.029627,39.9539908 C105.562137,43.817859 105.767899,45.3337437 105.501232,46.9139083 L131.649379,47.0209865 C137.216457,47.0463363 139.04691,44.9028795 136.358844,38.1294641 L133.393412,30.6603285 C131.031272,24.7083944 128.618927,24.382057 125.93333,24.1184356 L125.735799,12.7408227 C125.699585,10.1472425 125.466664,8.06102037 125.908639,6.54578584 L112.336623,6.49048543 L113.55473,24.0663368 L109.827158,24.0512751 L109.827158,24.0512751 Z" id="path100" fill="#FFFFFF"></path>
                        <path d="M145.174482,13.3259256 L151.488062,13.3529215 C153.477362,13.3603289 154.000819,13.9310285 155.081478,16.6544852 L163.223041,37.1665834 C164.3037,39.8897109 164.231272,40.4575299 162.241971,40.4501224 L155.928391,40.4227973 L145.174482,13.3259256 Z M143.699585,40.118929 C145.231272,43.9818096 145.437033,45.4999166 145.469132,47.0788466 L170.175304,47.1829618 C176.935798,47.2102869 178.015633,43.9271594 174.748967,35.6982707 L167.814811,18.2246909 C164.547321,9.99259234 160.854317,6.69206568 154.094646,6.66248543 L129.386828,6.56056774 C130.611519,8.14558004 131.612342,9.66658412 133.144853,13.5301231 L143.699585,40.118929 L143.699585,40.118929 Z" id="path102" fill="#FFFFFF"></path>
                    </g>
                </g>
            </g>
        </g>
    </g>
</svg>