<?xml version="1.0" encoding="UTF-8"?>
<svg width="200px" height="200px" viewBox="0 0 200 200" version="1.1" xmlns="http://www.w3.org/2000/svg" xmlns:xlink="http://www.w3.org/1999/xlink">
    <!-- Generator: Sketch 54.1 (76490) - https://sketchapp.com -->
    <title>barry</title>
    <desc>Created with Sketch.</desc>
    <g id="barry" stroke="none" stroke-width="1" fill="none" fill-rule="evenodd">
        <g id="barry_BGL" transform="translate(0.000000, -0.000000)">
            <g id="barry" transform="translate(0.000000, 22.000000)">
                <g id="g10" transform="translate(99.999998, 78.451615) scale(-1, 1) rotate(-180.000000) translate(-99.999998, -78.451615) translate(0.107527, 0.064520)" fill-rule="nonzero">
                    <g id="g12" transform="translate(0.193548, 0.000000)">
                        <path d="M149.631609,127.162793 C149.576555,126.6329 149.507953,126.039782 149.663007,125.504943 C149.849459,124.861502 149.861932,124.840427 150.244082,124.237631 C151.23548,122.675266 151.162147,123.478276 149.831179,123.539997 C147.709459,123.638276 149.311394,120.464298 146.663437,120.559137 C144.534835,120.635481 144.191179,122.643223 142.481287,123.331395 C142.384728,123.308169 141.732039,123.775051 141.709674,123.699997 C141.184513,122.61118 140.767523,119.700212 139.097631,119.641717 C135.266878,119.507309 135.568814,124.207524 134.105588,126.002147 C134.088599,126.075481 134.074835,126.149889 134.054405,126.221932 C133.999567,126.417416 133.837846,125.834836 133.837201,125.773545 C133.828384,124.867954 133.775481,123.990319 133.445588,123.122363 C133.352255,122.876771 133.361717,122.63419 133.208384,122.397631 C132.978921,122.043868 132.216341,122.225373 131.865373,122.306664 C130.766233,122.559997 129.878276,122.976341 129.449459,123.77204 C129.309029,124.031825 129.106663,124.269674 128.908169,124.51075 C128.896556,124.524728 128.780427,124.658492 128.653115,124.808814 C128.595481,126.489459 128.061932,128.196771 126.947739,129.529459 C126.915051,129.567954 126.619567,128.710319 126.715051,128.499567 C127.277846,127.264513 128.111825,125.827524 127.725588,124.551825 C127.573545,124.051395 127.458276,124.052255 127.405803,123.537416 C127.357416,123.056771 126.999567,124.220857 126.683008,123.55075 C126.341717,124.932685 125.333115,124.020857 124.73247,125.29075 C124.378061,126.038276 123.976556,126.776341 123.131825,127.320427 C122.289889,127.862793 121.355911,128.579997 120.226018,128.769674 C120.136556,128.784728 119.214836,128.51118 118.923653,128.362147 C118.406664,128.260212 118.482148,126.953115 118.492255,126.690965 C118.507954,126.295696 118.37075,124.684513 118.39161,123.976126 C117.507954,125.049889 116.273115,125.941717 115.342578,127.185373 C114.761718,127.962362 112.836556,128.632255 111.684728,128.823868 C110.197632,129.07118 109.463653,128.489244 108.19161,128.390749 C106.525589,128.262577 105.756126,127.166233 104.214621,127.856126 C103.152255,128.33204 102.284514,129.513545 101.345159,130.106448 C99.5804276,131.220212 97.5868793,129.010965 96.5453739,128.310749 C96.3172019,128.157631 96.1139761,128.035911 95.9333309,127.932255 C93.2731159,129.816341 90.4666644,131.986018 87.4913957,134.458061 C95.1722557,138.955911 104.65204,141.935695 114.947524,142.41505 C120.983868,142.696556 128.388599,141.883652 133.739351,139.596771 C136.841072,138.270964 140.639781,136.337631 143.605373,134.938276 C144.565803,134.404298 145.687093,133.953545 146.707738,133.516986 C148.506018,132.748384 150.945803,131.170534 151.521932,129.496986 C150.329459,128.855481 149.77462,128.523223 149.631609,127.162793 L149.631609,127.162793 Z M77.719783,145.100857 C77.7451593,147.931179 80.7896754,149.797631 84.1969871,150.690104 C86.5070946,151.294835 87.9092451,150.245373 87.7015032,148.725803 C87.6952666,148.682792 87.6913957,148.359351 87.7215032,148.067953 C87.3322559,147.393115 87.1427935,146.719351 87.0858043,145.916986 C87.0187075,144.967308 86.576557,144.039136 86.6944064,143.066878 C86.9273097,141.139996 87.5903204,139.35333 87.0466645,137.461072 C87.0092451,137.329459 87.0720408,136.95548 87.0374172,136.900212 C88.2268795,138.823437 87.6513957,141.099781 88.1885999,143.123652 C89.1137612,146.608814 90.0778472,147.964082 91.4264493,149.999136 C95.2972019,152.595695 100.489245,155.453329 104.824083,153.304512 C104.796772,153.114405 104.761288,152.924727 104.735051,152.738276 C104.733331,152.725803 104.730535,152.696555 104.727524,152.658921 C103.220858,151.77419 102.021718,150.165373 101.350105,148.984512 C100.233331,147.018491 100.061503,144.587093 100.114836,142.450104 C100.123868,142.100212 100.242148,142.683867 100.250105,142.758706 C100.487954,145.018061 101.035266,146.984082 102.723438,148.917846 C104.386234,150.822577 106.881073,151.961287 109.663868,152.875695 C111.998277,153.343652 114.486234,153.454835 116.9529,153.1572 C119.561287,152.842792 124.606233,150.963222 124.444513,149.494835 C124.280212,148.007093 125.641932,147.31505 127.728384,147.959996 C129.267524,148.43548 132.062792,148.189674 133.670104,147.892254 C135.226018,147.604727 134.966018,146.069459 135.148599,145.238276 C135.409889,144.045803 135.375696,143.463222 137.505803,143.270534 C139.524943,143.087953 140.550964,142.853545 141.739566,141.656986 C141.969674,141.425373 142.447308,140.450104 142.522147,139.319566 C142.547523,138.934405 142.428814,138.041502 142.438276,137.178921 C141.575695,137.575265 140.698706,137.910749 140.341502,138.081072 C138.543652,138.937846 136.529674,139.61247 134.858921,140.572685 C132.407954,141.981502 128.291395,142.452685 125.35419,142.943867 C122.362363,143.444297 119.09032,143.752685 116.044083,143.618276 C109.867954,143.346018 104.150965,142.176556 98.4920405,140.599996 C93.9503202,139.334835 90.5587074,137.065158 87.3481699,134.576341 C84.5879549,136.874405 81.6836539,139.430749 78.6182776,142.256986 C78.4864497,142.378706 78.3505357,142.498921 78.2131163,142.618921 C77.9393529,143.403222 77.711611,144.2129 77.719783,145.100857 L77.719783,145.100857 Z M150.335695,133.31247 C148.653115,134.996556 147.148168,135.208814 144.818061,136.21548 C143.436771,136.812255 143.591179,138.704083 143.785803,139.713115 C144.064082,141.157416 144.043222,142.261287 142.687523,143.458491 C140.926233,145.013115 138.989459,145.352685 136.416126,145.742577 C135.681072,145.853975 135.727739,146.949029 135.719351,146.370964 C135.726018,146.812685 135.619782,147.253115 135.637416,147.692684 C135.695265,149.119351 135.136126,150.25591 133.021502,150.683652 C131.640642,150.962792 126.018707,149.416125 124.988169,150.347953 C124.912685,152.236555 123.757201,153.847523 121.000642,154.881717 C116.130535,156.707953 109.735696,155.618706 105.49118,153.721502 C105.563868,154.245588 105.599137,154.771609 105.522793,155.29462 C105.368815,156.347953 102.481718,156.547523 101.411395,156.658061 C99.1804276,156.888168 96.3393524,154.958491 94.6187073,154.217631 C92.1322558,153.147308 90.5468795,151.497416 88.5027935,150.115695 C88.5989225,151.116985 88.4827935,152.142362 87.5240838,152.797846 C84.6853742,154.738921 80.4023636,151.809244 78.8301056,150.231824 C77.2427938,148.638706 77.1270948,146.390534 77.0146217,144.487308 C76.9993529,144.223867 76.9823637,143.931609 76.9703207,143.623652 C71.8842993,147.449674 63.814192,150.306448 52.9273105,152.126018 C41.3477409,154.061286 29.8438702,154.270104 25.4352682,154.270104 C21.5686016,154.270104 18.2900641,154.127953 16.6651609,153.889459 C15.485548,153.71634 14.4396771,153.101286 13.7198491,152.157416 C12.6139997,150.706878 12.677075,148.828598 12.7074836,145.690319 C12.4429674,147.479136 12.2788169,148.797846 12.223118,149.258061 C11.9465803,150.990104 11.3376126,152.766663 9.18296751,153.103222 C8.97412881,153.13591 8.76453742,153.152469 8.56032237,153.152469 C6.66010736,153.152469 5.3989461,151.747308 4.98513966,150.381932 C4.5400644,149.341932 3.06139777,144.988383 2.60281714,132.298921 C2.04796769,116.936341 9.82804277,107.394406 16.4525372,102.094836 C23.5208596,96.4402126 30.7193541,94.3713955 31.0223648,94.2860191 L31.5763433,94.1301052 C30.8374186,93.0890299 30.1886014,91.885374 29.6756982,90.4924709 C25.9479563,91.6913956 19.0553544,93.5924708 12.8456771,93.5924708 C7.31425788,93.5924708 3.52645152,92.0817181 1.58770104,89.1019333 C-0.698673101,85.5875247 -0.576277405,80.0135464 2.58122574,72.5909659 C2.66599993,72.4090304 11.232946,54.3376331 27.0832251,46.6473107 L27.7929025,46.3032246 L27.4881714,47.0264504 C27.4799993,47.0460203 26.6767735,49.0038697 27.7524724,51.0081708 C28.946881,53.2335471 31.8918272,54.6769879 36.5109668,55.2989233 C36.6408593,55.3187083 49.0245149,57.3232244 52.4208589,68.0236542 C52.7963428,65.5447295 53.4247298,60.642149 53.4103212,55.6681707 C53.3870954,47.6356977 51.6793535,42.6567731 48.4948375,41.2789237 C48.456988,41.2662355 44.6479559,40.0073108 39.9090313,40.0070958 C37.9384937,40.0070958 36.0692464,40.2236549 34.3533325,40.6503216 L33.4686013,40.8705366 C33.4686013,40.8705366 43.696558,21.7653758 58.5690308,21.4182575 C60.0503211,17.6774189 93.5578471,-15.5340211 121.429244,24.2597843 C121.429244,24.2597843 113.276341,20.5030317 105.606234,22.3812898 C114.528599,26.6075262 117.567954,30.1034401 121.429244,35.7909668 C121.429244,35.7909668 115.781072,33.1038701 107.406234,35.2952679 C107.737632,35.247526 120.176126,39.20387 122.511825,47.8180633 C122.511825,47.8180633 110.067309,42.3655903 104.172471,52.4524718 C104.157417,52.50516 104.107524,52.6765578 104.024514,52.9466653 C115.189029,46.712687 121.429244,55.8012889 121.429244,55.8012889 C113.85032,53.9230094 111.084943,56.3752674 109.258492,60.3408587 C106.773116,65.7382779 101.214191,71.2862348 98.0445137,74.1772024 C98.2827932,74.1664498 98.5232233,74.1608584 98.766019,74.1608584 L98.9982771,74.1625788 C99.0477395,74.163224 99.0991373,74.16731 99.1490298,74.1688154 C101.899137,72.9004283 103.101718,70.3851595 103.101718,70.3851595 C104.953761,67.3412886 107.982148,65.6189231 107.982148,65.6189231 C115.477847,59.7346222 121.310965,65.998493 121.310965,65.998493 C116.575481,62.6187081 110.95161,76.1498906 110.257417,77.8791378 C115.301072,80.5806431 121.355051,84.7668796 128.502792,90.4866644 C138.106233,98.1716104 146.281717,105.969245 146.363222,106.047524 L151.438921,110.900642 L144.409889,112.173331 C144.190534,112.2129 122.219997,116.215911 112.105374,119.340427 C107.827524,120.661932 103.13118,123.047739 97.8440836,126.61161 C98.2380621,126.896341 98.6318255,127.263223 98.9823631,127.4129 C99.5531158,127.656986 99.4423631,128.233975 100.033976,128.376126 C100.605589,128.513115 102.191825,127.130319 102.577202,126.915911 C103.605159,126.343868 104.896341,125.708169 106.196341,125.797416 C108.564298,125.959782 110.386879,127.014836 112.811825,126.121072 C115.388384,125.17075 118.249244,122.238922 119.23247,120.379997 C119.141072,120.55333 119.450105,121.344083 119.443653,121.761717 C119.673545,123.13075 119.834191,126.128814 120.21376,127.640212 C121.755481,126.603438 123.107309,125.729674 124.012685,124.331825 C124.818061,123.088814 125.178922,124.362793 125.446664,123.022578 C125.455051,122.981072 125.824943,123.200212 125.846664,123.176341 C125.840857,123.17247 125.218707,125.725588 125.736986,122.784298 L125.31118,122.784083 C121.978707,120.208169 129.696771,128.588169 128.606879,123.293975 C128.807309,123.49376 129.567954,122.437846 129.33161,122.784083 C128.560427,123.915696 132.648814,120.503008 132.616341,120.490105 C131.817846,120.173115 133.726233,122.327309 133.908169,122.881287 C134.641717,121.179567 134.798276,119.088814 136.381502,117.648814 C137.485803,116.643438 140.073545,117.148384 140.793115,118.043653 C141.653545,119.114621 140.427523,122.342793 141.439996,123.158061 C143.403652,124.739137 144.059566,119.281933 144.07462,119.241717 C144.256986,118.746019 144.988599,118.371825 145.602362,118.157847 C147.665158,117.438062 148.424082,118.749244 148.721932,119.81032 C149.127738,121.250104 151.330964,121.067739 151.627738,122.719352 C151.85677,123.999352 151.729244,125.323653 150.634835,126.43333 C150.428168,126.642362 151.869244,127.209889 151.990964,127.431825 C152.281717,127.960427 152.272039,128.606448 152.337416,129.165373 C152.542577,130.930104 151.75419,131.893115 150.335695,133.31247 L150.335695,133.31247 Z" id="path14" fill="#231F20"></path>
                        <path d="M126.078921,120.05385 L126.044254,120.148516 C125.962921,120.024516 125.994921,120.012516 126.078921,120.05385" id="path16" fill="#231F20"></path>
                        <path d="M84.9105355,137.299997 C84.8825785,137.230749 84.9167721,136.861287 84.9612882,136.920857 C85.7686,137.997631 85.460428,139.302362 84.4894603,140.485803 C81.9449442,143.588384 81.9079549,147.579781 85.0529011,149.242792 C85.1042989,149.269674 85.0219334,149.41505 85.0634387,149.423652 C81.0623636,148.589244 81.3019335,146.286448 81.1578474,144.53548 C81.0894603,143.71419 81.4225786,142.867953 81.7898904,142.028168 C82.476342,140.458276 85.5427936,138.853115 84.9105355,137.299997" id="path18" fill="#231F20"></path>
                        <path d="M93.7630084,143.706663 C93.8027934,145.020426 93.6750514,146.324512 94.4161267,147.524943 C95.6062342,149.45419 97.4907503,151.320641 99.9556964,152.464082 C99.9744061,152.472899 99.9677394,152.584512 99.9683846,152.584512 C97.7507502,152.554405 95.3636535,150.659996 93.9339761,149.628813 C93.0395676,148.983222 92.7049439,148.105373 92.6116106,147.217416 C92.3681697,144.905588 93.4546213,142.566663 92.281073,140.368599 C92.2055891,140.226878 92.2896751,139.782792 92.2384923,139.7329 C93.3361267,140.799781 93.7232235,142.395265 93.7630084,143.706663" id="path20" fill="#231F20"></path>
                        <path d="M108.95118,146.01505 C109.885804,147.029674 110.467094,148.508598 111.876986,149.048813 C114.141933,149.917201 117.126019,149.974835 119.856986,149.523222 C119.877631,149.519996 119.949244,149.611394 119.949889,149.610964 C118.179352,150.805373 114.793976,151.144942 112.956986,151.116555 C111.807739,151.098491 110.273116,150.178921 109.589245,149.529459 C107.807739,147.839136 107.924298,145.284943 105.487309,144.195265 C105.330535,144.124943 105.09161,143.728384 105.017202,143.717201 C106.616341,143.95591 108.018492,145.002147 108.95118,146.01505" id="path22" fill="#231F20"></path>
                        <path d="M131.838276,145.13419 C131.825803,145.136125 131.885588,145.327308 131.860212,145.337631 C130.495911,145.883652 128.355911,146.495695 126.827524,146.43591 C125.077846,146.366878 123.084728,146.048814 121.489889,145.616986 C121.465588,145.610319 121.451395,145.351394 121.461717,145.348599 C124.967524,144.45462 128.343438,145.683437 131.838276,145.13419" id="path24" fill="#231F20"></path>
                        <path d="M132.138276,135.032255 C130.797846,136.388599 127.951395,136.761717 126.242362,137.837631 C122.490965,140.198706 115.991825,140.730749 111.357847,140.046878 C111.335266,140.043652 111.347739,139.880212 111.339782,139.880427 C116.429029,139.854835 122.280212,139.501072 126.123438,136.706663 C127.803438,135.484728 129.826663,134.371394 131.485803,133.109889 C132.928384,132.013115 136.553975,127.320212 136.959351,125.601287 C136.822792,126.31376 136.301502,128.852255 135.925588,129.960427 C135.21376,132.058276 133.880857,133.268814 132.138276,135.032255" id="path26" fill="#231F20"></path>
                        <path d="M136.985803,125.693975 C136.997803,125.603309 137.021803,125.501975 137.031136,125.413975 C137.027136,125.449975 137.011136,125.551309 136.985803,125.693975" id="path28" fill="#231F20"></path>
                        <path d="M136.959351,125.959137 C137.032685,125.740528 137.088685,125.572601 137.123351,125.459137 C137.084685,125.61723 137.032685,125.782889 136.959351,125.959137" id="path30" fill="#231F20"></path>
                        <path d="M141.261932,133.797631 C139.990534,134.641072 137.993545,134.901717 136.640642,135.661072 C136.028599,136.004298 133.776986,136.821287 133.137416,136.655911 C133.103007,136.647308 133.0929,136.511825 133.11505,136.4929 C134.621502,135.219567 136.540642,134.431394 138.553975,133.531395 C142.716341,131.670319 144.857846,127.227094 146.047093,124.041932 C146.092469,123.920857 146.501932,125.049889 146.325158,125.759997 C145.651824,128.465373 144.13505,131.89161 141.261932,133.797631" id="path32" fill="#231F20"></path>
                        <path d="M105.65118,136.243222 C102.973976,137.120427 98.8264491,137.7929 96.0273094,136.77548 C96.00946,136.769029 96.0230084,136.65505 96.0141911,136.65505 C99.2817179,136.689029 101.812686,136.449459 104.726019,135.077201 C107.477847,133.780857 110.941288,131.767739 112.784298,129.833975 C112.753331,129.866448 112.816556,129.959352 112.802363,130.000642 C111.911395,132.510319 108.937202,135.166448 105.65118,136.243222" id="path34" fill="#231F20"></path>
                        <path d="M124.635696,130.416771 C123.208814,136.471179 115.271395,138.982362 108.119782,138.180427 C108.102148,138.178491 108.095051,137.930319 108.093761,137.930534 C111.834621,137.637846 115.157416,136.656771 118.362793,135.202362 C121.55376,133.75419 122.663653,131.901072 124.566233,129.759782 C124.446018,129.895481 124.674621,130.25204 124.635696,130.416771" id="path36" fill="#231F20"></path>
                        <path d="M96.9036535,131.202792 C96.8234384,131.413545 96.6038686,132.229244 96.4834384,132.389029 C96.1589223,132.821502 95.6103202,133.410319 95.0683847,133.693975 C93.6425783,134.441072 90.2227934,134.21204 88.6931161,133.818706 C88.6604279,133.810104 88.6948365,133.645158 88.6750515,133.642792 C90.3980623,133.848384 92.0167719,133.544083 93.5658041,132.969029 C94.3129009,132.691825 94.9858041,132.276771 95.5832234,131.858706 C95.8552664,131.668384 96.7447288,131.116771 96.8836535,131.0129 C96.8509653,131.033545 96.9260191,131.166233 96.9036535,131.202792" id="path38" fill="#231F20"></path>
                        <path d="M95.1995675,75.0737616 C101.665589,71.5989229 106.177417,60.3533318 106.177417,60.3533318 C109.127739,52.7563428 113.667524,53.6098911 113.667524,53.6098911 C108.37032,51.0027944 102.182578,59.730106 99.0270943,65.0359124 C98.7361266,65.6068801 98.4333309,66.18645 98.1152664,66.774837 C96.8860191,69.0488155 95.3959116,71.5965573 93.6116106,74.207525 C93.8759116,74.3066648 94.2070944,74.4486003 94.5589224,74.6490304 C96.6019331,73.3802132 98.5638685,68.6064499 98.5638685,68.6064499 C99.5449437,66.5118263 100.703008,65.0591382 101.604514,64.1348371 C100.013976,65.9767725 99.4799975,68.3905359 99.4799975,68.3905359 C97.7232234,73.1679552 95.6529008,74.6129014 95.0363417,74.9524712 C95.0911804,74.991396 95.145374,75.0320411 95.1995675,75.0737616" id="path40" fill="#0EAA4C"></path>
                        <path d="M89.1894601,83.9868796 C89.86903,82.6636538 89.5619332,81.1890302 89.1070945,80.0729012 C85.9111806,83.760428 82.0668797,87.2604279 77.4692454,89.964944 C77.3019336,90.0709655 63.0281705,100.463223 45.6698913,100.746879 C49.6107514,101.013761 54.6939771,100.763653 58.1464502,100.262363 C63.5825791,99.4729007 68.6640843,97.3219331 68.6640843,97.3219331 C68.0062349,97.6954814 65.6219338,100.357202 57.8823641,101.374621 C51.1348374,102.261503 46.996773,101.802578 43.4443,100.662363 C43.4088161,100.658492 43.3737624,100.654621 43.3374183,100.650535 C67.2064499,110.572255 87.5419333,86.0417183 89.1894601,83.9868796" id="path42" fill="#0EAA4C"></path>
                        <path d="M108.257417,77.5845142 C112.606234,66.3860198 117.362363,65.2427941 117.362363,65.2427941 C113.841072,63.6286006 110.45161,66.0929016 110.45161,66.0929016 C108.036556,67.5184929 105.670105,70.7442993 105.670105,70.7442993 C101.595696,76.1294605 97.8159115,74.9122562 97.4015029,74.7572024 C96.805804,75.2881702 96.3395675,75.6870949 96.0485997,75.9320411 C96.2701051,76.2335465 96.4544062,76.5772024 96.5750513,76.9701056 C101.991825,77.5683852 103.541718,74.3159121 103.541718,74.3159121 C108.104513,68.898708 110.584083,69.3741918 110.584083,69.3741918 C107.035481,70.1359122 105.668384,73.0847294 105.668384,73.0847294 C102.723223,78.4939765 110.418062,71.4686004 110.418062,71.4686004 C106.213546,77.9658045 99.8567717,78.831826 97.3109653,78.9034389 C102.34989,80.6270948 105.655696,77.86774 105.903008,77.6522561 C100.662578,82.4294603 97.3997825,80.4890302 96.4316105,79.6795679 C96.229675,80.2705356 95.9118256,80.9210732 95.4612879,81.6324711 C105.89075,83.852471 108.257417,77.5845142 108.257417,77.5845142" id="path44" fill="#0EAA4C"></path>
                        <path d="M93.6038686,82.3776323 C94.2346213,81.4438689 96.6234384,77.4350518 93.1290299,74.9053745 C92.825374,75.3384927 92.5118256,75.7729013 92.1918257,76.207525 C94.8329009,75.863439 93.7264493,80.4866647 93.7264493,80.4866647 C94.2311804,78.0006432 92.7477396,77.095697 91.7707504,76.7726863 C91.6460192,76.9384927 91.5219332,77.1042991 91.3948364,77.2698905 C93.0855891,78.8946217 92.2135461,82.1367721 92.2135461,82.1367721 C92.2154816,79.7894604 91.3318257,78.7393529 90.6066644,78.2724712 C90.5197827,78.3812884 90.4322558,78.4896755 90.3440838,78.5982776 C91.8163418,80.1339765 90.9701053,83.2731162 90.9701053,83.2731162 L89.9944064,83.9384925 C91.1696751,83.9060194 92.6118256,83.0673098 93.6038686,82.3776323" id="path46" fill="#0EAA4C"></path>
                        <path d="M24.3868811,85.2995678 C23.26215,84.2707506 21.9122575,83.8666646 21.4060855,84.3916108 C20.9095264,84.9251592 21.4216124,86.188815 22.5612898,87.2210731 C23.7172037,88.256772 25.0378488,88.6615032 25.5443004,88.1346215 C26.06258,87.5931161 25.5436553,86.3316107 24.3868811,85.2995678 L24.3868811,85.2995678 Z M61.6344071,47.2834397 C60.561934,51.3081708 60.5972028,60.862149 60.5989232,61.2668802 C59.513762,75.1273099 55.0161277,75.9886003 54.9707513,75.995482 L54.9382782,76.0006433 L54.9025793,76.0129013 C54.5748373,76.1339766 54.2238696,76.195697 53.8591384,76.195697 C49.7935471,76.195697 44.9307516,68.8522563 44.8821494,68.7780628 L44.3195688,69.0980628 C44.5716118,69.758923 44.8397838,70.3999982 45.1174182,71.0062348 C41.5756979,78.4658045 32.7587089,88.1479548 31.9034401,89.0780623 C25.8703219,90.8047289 20.7469672,91.6802128 16.6744727,91.6802128 C11.405075,91.6802128 7.8315697,90.2305354 6.05333318,87.3716107 C3.04948379,82.5415033 6.19522565,75.2169874 6.22731167,75.143439 C9.79847287,65.5195683 14.7151394,59.4384931 18.2121071,56.0283857 C21.1616339,53.1520417 23.6243005,51.6404288 24.5843005,51.1055901 C24.7761284,57.4513964 33.6501067,58.9399985 33.7419346,58.9548372 C41.2892463,59.9268802 46.0062354,63.3965576 48.6359128,66.1363424 C51.4806439,69.1002133 52.5548374,71.855052 52.565375,71.8825788 L52.933332,72.8440842 L53.1668804,71.7909659 C58.0251598,49.8961278 54.2152675,42.1451602 54.0507513,41.8258054 C52.9120417,39.6270958 49.976988,37.0064507 42.4595688,37.0064507 C41.2909667,37.0064507 40.2991388,37.0741926 39.6281711,37.1374184 C49.8950525,27.9243004 55.4288158,26.5277413 57.8369878,26.5279563 C58.9116114,26.5279563 59.3894609,26.8090316 59.393977,26.8118273 L59.4286007,26.8324724 L59.4707512,26.8447305 C64.8520414,28.2782789 61.6673103,47.0935472 61.6344071,47.2834397 L61.6344071,47.2834397 Z" id="path48" fill="#FBC01C"></path>
                        <path d="M51.0191385,31.6408594 C51.0191385,31.6408594 62.2931167,22.5165586 60.2169877,40.9445151 C60.2169877,40.9445151 60.7858049,28.9772036 51.0191385,31.6408594" id="path50" fill="#FFFFFF"></path>
                        <path d="M51.0363428,72.4698907 C51.0363428,72.4698907 53.169246,75.4460196 54.5890309,71.7365573 C54.5890309,71.7365573 54.5782782,78.5524712 51.0363428,72.4698907" id="path52" fill="#FFFFFF"></path>
                        <path d="M52.8501062,93.48946 C49.5707514,92.6264493 48.2956977,90.1593526 48.2956977,90.1593526 C48.1438698,89.8083849 47.9875257,89.4838687 47.828816,89.1746214 C50.2098912,89.8780623 52.8434395,89.0395677 53.7488159,87.2716107 C54.6649449,85.4832237 53.4638696,83.4092452 51.0576331,82.6539764 C49.3993536,82.1331162 47.6025795,82.3795678 46.3477408,83.1711807 C47.0458053,81.859998 48.0855902,80.6634388 49.6324719,80.0427937 C51.0202138,81.7544066 54.2036546,84.7423635 59.9617189,85.5989226 C58.6094609,90.1120408 54.529461,92.6245138 52.8501062,93.48946" id="path54" fill="#FFFFFF"></path>
                        <path d="M48.7735472,78.8146217 C48.7735472,78.8146217 48.9253751,79.0978475 49.2522568,79.5483851 C48.2298913,79.9232238 44.896558,81.4017184 43.9595688,85.0197828 C42.3217194,84.2572022 41.0389237,84.6019334 41.0389237,84.6019334 C35.9232249,85.6116108 38.5262356,90.6636536 38.5262356,90.6636536 C38.5741926,87.7965569 40.2473108,87.1283849 40.2473108,87.1283849 C42.596128,86.1159118 43.5825796,87.9640838 43.5825796,87.9640838 C44.132472,88.8116107 46.4520418,92.2591375 46.4520418,92.2591375 C52.8595686,100.007094 63.1739769,91.4202128 63.1739769,91.4202128 C59.8404286,93.2077396 57.1705362,93.8122557 55.0645148,93.7825783 C59.8195684,91.5632235 60.7090307,86.8634387 60.8572028,85.712471 C62.0898909,85.8417183 63.4301059,85.8761269 64.8888156,85.7827936 C64.8888156,85.7827936 58.5468803,85.2967721 48.7735472,78.8146217 L48.7735472,78.8146217 Z M71.1916111,73.775267 C71.0374176,74.4249444 69.4002133,75.4425788 69.4002133,75.4425788 C69.9116112,75.7933314 71.3795681,75.6058046 71.3795681,75.6058046 C71.3335466,76.4563422 69.1765574,77.5384927 69.1765574,77.5384927 C69.5154821,77.8365572 71.2924713,77.5673099 71.2924713,77.5673099 C71.0883853,78.4731163 69.1696757,79.4806432 69.1696757,79.4806432 C69.5051596,79.6815034 71.1264498,79.604084 71.1264498,79.604084 C70.7449445,80.6967722 68.750966,81.5733313 68.750966,81.5733313 C69.3242993,81.8283851 70.6275251,81.6935463 70.6275251,81.6935463 C70.0567724,83.0879549 68.2597832,83.6150517 68.2597832,83.6150517 C68.7273101,83.8225785 70.1516111,83.7150517 70.1516111,83.7150517 C69.7851595,84.7178473 67.5247295,85.8670946 67.5247295,85.8670946 C68.2604284,86.3163419 69.482794,86.1178473 69.482794,86.1178473 C69.1434391,87.2210731 67.0896757,88.0597827 67.0896757,88.0597827 C67.4847295,88.5058042 68.963009,88.3464494 68.963009,88.3464494 C68.6494606,89.0318257 66.014622,90.704944 66.014622,90.704944 C66.6804284,91.2544063 68.3172026,90.9307504 68.3172026,90.9307504 C68.2204284,91.285159 67.9698908,91.6709655 67.626665,92.0640837 C59.8535469,96.0053739 53.8270954,97.4423632 53.7161277,97.4679546 C51.7215041,97.9864492 49.7797837,98.2481696 47.9356977,98.2481696 C38.1167732,98.2481696 33.3077411,90.8496751 32.4735476,89.4253741 C41.1625796,83.2017184 45.2580634,75.955482 46.4529021,73.5425788 C49.5238697,78.5847292 52.8554825,79.1427937 54.173547,79.1427937 C54.5797836,79.1427937 54.8187083,79.0922561 54.8447298,79.0864496 C61.934192,77.6367723 62.7720414,67.0212886 62.8012888,62.474407 C63.3363425,62.2266651 63.8189231,61.7791382 63.8189231,61.7791382 C63.96645,62.5245146 63.8718264,63.3195683 63.8718264,63.3195683 C64.2860199,63.3701059 65.2380629,62.8666651 65.2380629,62.8666651 C65.3541919,63.8172027 65.1847296,64.5204285 65.1847296,64.5204285 C65.7079553,64.5204285 66.4817188,64.122579 66.4817188,64.122579 C66.6202134,65.0273102 66.1933317,65.770751 66.1933317,65.770751 C66.8995682,65.8578478 67.6273101,65.522579 67.6273101,65.522579 C67.774837,66.2126865 67.1447295,67.166665 67.1447295,67.166665 C67.3920413,67.3144069 68.635052,67.0578478 68.635052,67.0578478 C68.614837,67.9634392 67.954837,68.7580628 67.954837,68.7580628 C68.5834391,68.958923 69.7092456,68.5169875 69.7092456,68.5169875 C69.5952671,69.1688155 68.6417187,70.2533316 68.6417187,70.2533316 C69.1924714,70.6051595 70.3483853,70.2905359 70.3483853,70.2905359 C70.2075251,71.0967724 69.0279553,71.9017186 69.0279553,71.9017186 C69.4141918,72.1488154 71.0075251,72.003224 71.0075251,72.003224 C70.7842993,72.6559122 69.3042993,73.5021487 69.3042993,73.5021487 C70.0045144,73.895267 71.1916111,73.775267 71.1916111,73.775267 L71.1916111,73.775267 Z" id="path56" fill="#FFFFFF"></path>
                        <path d="M51.4539772,86.6376322 C51.9247299,85.7258043 51.6681708,84.7034387 50.9066654,83.9787076 C52.1956976,84.6698904 52.8204288,85.8688151 52.2864503,86.9027935 C51.7380632,87.9645139 50.1948375,88.4907505 48.6062353,88.272901 C49.8591385,88.1535462 50.9662353,87.5817182 51.4539772,86.6376322" id="path58" fill="#7CCCED"></path>
                        <path d="M47.1679558,86.4752667 C47.912687,86.7090301 48.7645149,86.3791376 49.0881708,85.7466645 C49.4094611,85.1195678 49.0913966,84.4070947 48.3468805,84.1733312 C47.6189235,83.9447291 46.7529021,84.2853742 46.4316117,84.912686 C46.1077408,85.5449441 46.4399988,86.2466645 47.1679558,86.4752667" id="path60" fill="#FFFFFF"></path>
                        <path d="M46.3477408,83.1711807 C47.6025795,82.3795678 49.3993536,82.1331162 51.0576331,82.6539764 C53.4638696,83.4092452 54.6649449,85.4832237 53.7488159,87.2716107 C52.8434395,89.0395677 50.2098912,89.8780623 47.828816,89.1746214 C47.9875257,89.4838687 48.1438698,89.8083849 48.2956977,90.1593526 C48.2956977,90.1593526 49.5707514,92.6264493 52.8501062,93.48946 C54.529461,92.6245138 58.6094609,90.1120408 59.9617189,85.5989226 C54.2036546,84.7423635 51.0202138,81.7544066 49.6324719,80.0427937 C48.0855902,80.6634388 47.0458053,81.859998 46.3477408,83.1711807" id="path62" fill="#FEEAB4"></path>
                        <path d="M32.4264508,97.2830083 C33.4247303,96.9726857 33.9180637,96.8860191 34.1060207,96.8619331 C34.899569,97.5232234 35.7286013,98.0718255 36.559569,98.5281696 C33.551182,99.5948362 25.0827951,102.736557 20.0023436,106.963223 C12.029075,113.404943 8.17516109,121.898061 8.54763419,132.206663 C8.55425785,132.394405 8.56133312,132.580642 8.56855893,132.764513 C10.4946234,125.344298 12.6703653,122.243438 15.7899781,122.243438 C16.2595695,122.243438 16.7268168,122.325588 17.1784297,122.487524 C22.0554833,124.237201 20.7898274,132.163223 19.4496769,140.55462 C19.0604941,142.992685 18.505806,146.465373 18.5180641,148.165803 C19.9534619,148.271609 22.2415048,148.355265 25.1221499,148.355265 C42.4860204,148.355265 65.6997833,145.647738 73.9761272,138.016556 C88.6774171,124.461717 100.086234,116.739137 109.880427,113.713546 C117.554621,111.343008 131.038276,108.625374 138.19505,107.251825 C134.976556,104.319782 129.827954,99.7554814 124.162793,95.2234385 C115.689459,88.4445139 109.785374,84.684299 105.705589,82.6346216 C106.581288,82.2765571 107.399567,81.7931162 108.115481,81.1507507 C122.841717,89.0733311 143.403652,108.733546 143.403652,108.733546 C143.403652,108.733546 121.259352,112.990535 110.719782,116.246234 C109.226019,116.707739 107.707094,117.275911 106.163653,117.944943 C105.82989,118.089459 106.610105,119.147739 105.306234,119.147739 C104.983653,119.147739 104.57161,118.665158 104.276126,118.806664 C95.445589,123.040642 85.8554817,130.403438 75.7079551,139.759781 C65.8359123,148.861932 39.1468807,150.768168 25.1221499,150.768168 C21.1459995,150.768168 18.1859135,150.614835 16.9179351,150.428813 C13.4357416,149.918061 21.6292468,126.658922 16.3044297,124.748814 C16.1303867,124.686233 15.9592469,124.656341 15.7899781,124.656341 C10.9719352,124.656341 8.15625786,149.144297 8.15625786,149.144297 C8.15625786,149.144297 6.5306665,145.746878 6.04451598,132.290534 C5.07275256,105.39118 32.4264508,97.2830083 32.4264508,97.2830083" id="path64" fill="#FFFFFF"></path>
                        <path d="M15.5909028,66.9311811 C15.5909028,66.9311811 -5.54503212,90.7421483 20.9091823,89.3516107 C20.9091823,89.3516107 4.59240849,89.2283849 15.5909028,66.9311811" id="path66" fill="#FFFFFF"></path>
                        <path d="M56.0748373,78.9082991 C56.2440102,78.8362991 56.4069175,78.7576324 56.5748373,78.6842991 C56.4069175,78.7576324 56.2440102,78.8362991 56.0748373,78.9082991" id="path68" fill="#D21C2D"></path>
                        <path d="M59.8805146,75.5030089 C59.8605146,75.5350089 59.837848,75.5656755 59.817848,75.5976755 C59.837848,75.5656755 59.8605146,75.5350089 59.8805146,75.5030089" id="path70" fill="#D21C2D"></path>
                        <path d="M55.4230094,79.1233529 C55.5899753,79.0513529 55.7578388,78.9820195 55.9230094,78.9060195 C55.7578388,78.9820195 55.5899753,79.0513529 55.4230094,79.1233529" id="path72" fill="#D21C2D"></path>
                        <path d="M57.1759125,78.5002991 C57.3447024,78.3709658 57.5092459,78.2362991 57.6759125,78.1042991 C57.5092459,78.2362991 57.3447024,78.3709658 57.1759125,78.5002991" id="path74" fill="#D21C2D"></path>
                        <path d="M56.6206437,78.6846002 C56.7860184,78.6006002 56.9565611,78.5206002 57.1206437,78.4352669 C56.9565611,78.5206002 56.7873104,78.6006002 56.6206437,78.6846002" id="path76" fill="#D21C2D"></path>
                        <path d="M57.7262351,77.8180196 C57.7382351,77.8086862 57.7489018,77.8020196 57.7595684,77.7926862 C57.7489018,77.8020196 57.7382351,77.8086862 57.7262351,77.8180196" id="path78" fill="#D21C2D"></path>
                        <path d="M59.4276544,76.4935465 C59.2983211,76.6482131 59.1623211,76.7975465 59.0303211,76.9508798 C59.1623211,76.7975465 59.2983211,76.6482131 59.4276544,76.4935465" id="path80" fill="#D21C2D"></path>
                        <path d="M113.922363,31.2253756 C113.922363,31.2253756 104.275696,31.6167734 99.3969868,35.0083862 C99.1408577,35.1864507 98.9920405,35.2866658 99.0318255,35.2952679 C99.1197825,35.3150529 99.8556964,35.5804292 100.075266,35.6344077 C110.771825,38.2694614 116.093976,43.0436548 116.093976,43.0436548 C103.962578,42.1045151 100.885159,52.5901062 100.854836,52.6815041 C96.4909653,64.7868801 90.9670945,73.1851595 88.6561268,75.9337615 C82.0864496,83.5651592 74.2268799,88.7172021 67.626665,92.0638687 C67.9698908,91.6709655 68.2204284,91.285159 68.3172026,90.9307504 C68.3172026,90.9307504 66.6804284,91.2544063 66.014622,90.704944 C66.014622,90.704944 68.6494606,89.0318257 68.963009,88.3464494 C68.963009,88.3464494 67.4847295,88.5058042 67.0896757,88.0597827 C67.0896757,88.0597827 69.1434391,87.2210731 69.482794,86.1178473 C69.482794,86.1178473 68.2604284,86.3163419 67.5247295,85.8670946 C67.5247295,85.8670946 69.7851595,84.7178473 70.1516111,83.7150517 C70.1516111,83.7150517 68.7273101,83.8225785 68.2597832,83.6150517 C68.2597832,83.6150517 70.0567724,83.0879549 70.6275251,81.6935463 C70.6275251,81.6935463 69.3242993,81.8283851 68.750966,81.5733313 C68.750966,81.5733313 70.7449445,80.6967722 71.1264498,79.604084 C71.1264498,79.604084 69.5051596,79.6815034 69.1696757,79.4806432 C69.1696757,79.4806432 71.0883853,78.4731163 71.2924713,77.5673099 C71.2924713,77.5673099 69.5154821,77.8365572 69.1765574,77.5384927 C69.1765574,77.5384927 71.3335466,76.4563422 71.3795681,75.6058046 C71.3795681,75.6058046 69.9116112,75.7933314 69.4002133,75.4425788 C69.4002133,75.4425788 71.0374176,74.4249444 71.1916111,73.775267 C71.1916111,73.775267 70.0045144,73.895267 69.3042993,73.5021487 C69.3042993,73.5021487 70.7842993,72.6559122 71.0075251,72.003224 C71.0075251,72.003224 69.4141918,72.1488154 69.0279553,71.9017186 C69.0279553,71.9017186 70.2075251,71.0967724 70.3483853,70.2905359 C70.3483853,70.2905359 69.1924714,70.6051595 68.6417187,70.2533316 C68.6417187,70.2533316 69.5952671,69.1688155 69.7092456,68.5169875 C69.7092456,68.5169875 68.5834391,68.958923 67.954837,68.7580628 C67.954837,68.7580628 68.614837,67.9634392 68.635052,67.0578478 C68.635052,67.0578478 67.3920413,67.3144069 67.1447295,67.166665 C67.1447295,67.166665 67.774837,66.2126865 67.6273101,65.522579 C67.6273101,65.522579 66.8995682,65.8578478 66.1933317,65.770751 C66.1933317,65.770751 66.6202134,65.0273102 66.4817188,64.122579 C66.4817188,64.122579 65.7079553,64.5204285 65.1847296,64.5204285 C65.1847296,64.5204285 65.3541919,63.8172027 65.2380629,62.8666651 C65.2380629,62.8666651 64.2860199,63.3701059 63.8718264,63.3195683 C63.8718264,63.3195683 63.96645,62.5245146 63.8189231,61.7791382 C63.8189231,61.7791382 63.3363425,62.2266651 62.8012888,62.474407 C62.8012888,62.4748371 62.8012888,62.4752673 62.8012888,62.4754823 C62.8086006,61.3354823 62.7651597,60.5759125 62.7565576,60.4382781 C62.5698909,54.7096761 63.4098909,48.7772031 63.4180629,48.7180633 C67.7322564,26.2281714 62.142149,23.5810747 62.3154823,23.4055908 C81.1086001,4.37978484 99.762148,6.70169876 113.537201,18.7027952 C113.819352,18.9485802 105.919137,16.3548383 97.5380621,22.3812898 C97.3670943,22.5043005 105.997417,25.2772037 113.922363,31.2253756" id="path82" fill="#D21C2D"></path>
                        <path d="M59.8936329,75.9670949 C59.7402996,76.1341139 59.5869663,76.3011329 59.4309663,76.4670949 C59.5869663,76.3011329 59.7402996,76.1341139 59.8936329,75.9670949" id="path84" fill="#D21C2D"></path>
                        <path d="M58.6359125,77.3574604 C58.7732458,77.2161271 58.9065792,77.0707938 59.0425792,76.9294604 C58.9065792,77.0707938 58.7732458,77.2161271 58.6359125,77.3574604" id="path86" fill="#D21C2D"></path>
                        <path d="M54.381289,97.5909223 C54.5375714,97.4829223 54.7037189,97.365589 54.881289,97.2389223 C54.7037189,97.365589 54.5375714,97.4829223 54.381289,97.5909223" id="path88" fill="#D21C2D"></path>
                        <path d="M53.7161277,97.5753094 C53.756634,97.5659761 53.9287859,97.5219761 54.2161277,97.4473094 C53.9287859,97.5219761 53.756634,97.5659761 53.7161277,97.5753094" id="path90" fill="#D21C2D"></path>
                        <path d="M54.5984933,97.2359115 C56.553762,96.6918255 61.5569877,95.141503 67.6251596,92.0647289 C61.554192,95.1427933 56.5516115,96.6929008 54.5984933,97.2359115" id="path92" fill="#D21C2D"></path>
                        <path d="M58.1572028,77.8604282 C58.3246557,77.6977615 58.4921085,77.5350948 58.6572028,77.3670948 C58.4921085,77.5350948 58.3246557,77.6977615 58.1572028,77.8604282" id="path94" fill="#D21C2D"></path>
                        <path d="M53.9120417,97.561589 C54.0615366,97.5109223 54.2271932,97.4549223 54.4120417,97.3922556 C54.2261831,97.4562556 54.0615366,97.5109223 53.9120417,97.561589" id="path96" fill="#D21C2D"></path>
                        <path d="M54.1954825,97.5884707 C54.3501409,97.5004707 54.5166005,97.4044707 54.6954825,97.2991374 C54.5166005,97.4031373 54.3501409,97.5004707 54.1954825,97.5884707" id="path98" fill="#D21C2D"></path>
                        <path d="M53.8189234,97.5425352 C53.9562567,97.5078685 54.1082567,97.4705352 54.2909234,97.4238685 C54.10959,97.4705352 53.9562567,97.5078685 53.8189234,97.5425352" id="path100" fill="#D21C2D"></path>
                        <path d="M54.0417191,97.5707502 C54.1953815,97.5040836 54.3609866,97.4307503 54.5417191,97.3507503 C54.3609866,97.4307503 54.1945853,97.5040836 54.0417191,97.5707502" id="path102" fill="#D21C2D"></path>
                        <path d="M60.5325576,74.9086003 C60.3965576,75.0768512 60.2605576,75.2422505 60.1232243,75.4086003 C60.2605576,75.2422505 60.3965576,75.0768512 60.5325576,74.9086003" id="path104" fill="#D21C2D"></path>
                        <path d="M62.6205576,66.7154822 C62.5925576,66.882453 62.5645576,67.0485114 62.5365576,67.2154822 C62.5645576,67.0485114 62.5925576,66.882453 62.6205576,66.7154822" id="path106" fill="#D21C2D"></path>
                        <path d="M62.6112673,66.1688156 C62.6112673,66.1808155 62.6099339,66.1914822 62.6086006,66.2021489 C62.6099339,66.1914822 62.6112673,66.1808155 62.6112673,66.1688156" id="path108" fill="#D21C2D"></path>
                        <path d="M62.7131597,65.5236543 C62.6958264,65.6903209 62.6771597,65.8559524 62.6584931,66.0236543 C62.6771597,65.8569876 62.6958264,65.6892857 62.7131597,65.5236543" id="path110" fill="#D21C2D"></path>
                        <path d="M62.5417619,67.3778478 C62.5137619,67.5445144 62.4830952,67.7111811 62.4537619,67.8778478 C62.4830952,67.7111811 62.5124285,67.5445144 62.5417619,67.3778478" id="path112" fill="#D21C2D"></path>
                        <path d="M62.7618049,64.4135468 C62.7551382,64.5402134 62.7458049,64.6695468 62.7391382,64.7962134 C62.7458049,64.6695468 62.7551382,64.5402134 62.7618049,64.4135468" id="path114" fill="#D21C2D"></path>
                        <path d="M62.7315683,64.9473102 C62.722235,65.0779769 62.7155683,65.2059769 62.706235,65.3379769 C62.7155683,65.2073102 62.722235,65.0779769 62.7315683,64.9473102" id="path116" fill="#D21C2D"></path>
                        <path d="M62.7831382,63.8580629 C62.7778049,64.0087296 62.7711382,64.1567296 62.7658049,64.3073962 C62.7711382,64.1567296 62.7778049,64.0087296 62.7831382,63.8580629" id="path118" fill="#D21C2D"></path>
                        <path d="M62.8006006,62.8959124 C62.7992672,62.9945791 62.7979339,63.0932457 62.7952672,63.1932457 C62.7979339,63.0932457 62.7992672,62.9945791 62.8006006,62.8959124" id="path120" fill="#D21C2D"></path>
                        <path d="M60.7483856,74.3249444 C60.6497189,74.4919898 60.5550522,74.6590353 60.4550523,74.8249444 C60.5550522,74.6590353 60.6497189,74.4919898 60.7483856,74.3249444" id="path122" fill="#D21C2D"></path>
                        <path d="M62.4555683,67.9819338 C62.426235,68.149719 62.3969017,68.3152671 62.366235,68.4819338 C62.3969017,68.3152671 62.426235,68.149719 62.4555683,67.9819338" id="path124" fill="#D21C2D"></path>
                        <path d="M61.3124716,72.5668799 C61.2911383,72.6282132 61.2684716,72.6868799 61.2458049,72.7468799 C61.2684716,72.6868799 61.2911383,72.6282132 61.3124716,72.5668799" id="path126" fill="#D21C2D"></path>
                        <path d="M61.31402,73.1212885 C61.2073533,73.2882348 61.1006866,73.4551811 60.9926866,73.6212885 C61.1006866,73.4551811 61.2073533,73.2882348 61.31402,73.1212885" id="path128" fill="#D21C2D"></path>
                        <path d="M61.0081275,73.7698906 C60.9147942,73.9383689 60.8174608,74.1024993 60.7227942,74.2698906 C60.8174608,74.1024993 60.9147942,73.9383689 61.0081275,73.7698906" id="path130" fill="#D21C2D"></path>
                        <path d="M61.7151382,71.8802133 C61.6271382,72.0474158 61.5364716,72.2138145 61.4458049,72.3802133 C61.5364716,72.2138145 61.6271382,72.0474158 61.7151382,71.8802133" id="path132" fill="#D21C2D"></path>
                        <path d="M61.8449877,71.223224 C61.782321,71.3898907 61.7209877,71.5575554 61.6569877,71.723224 C61.7209877,71.5575554 61.782321,71.3898907 61.8449877,71.223224" id="path134" fill="#D21C2D"></path>
                        <path d="M62.1761705,69.3399983 C62.1628372,69.4039983 62.1481705,69.4706649 62.1348372,69.5359983 C62.1481705,69.4706649 62.1615038,69.4039983 62.1761705,69.3399983" id="path136" fill="#D21C2D"></path>
                        <path d="M62.3976759,68.6344069 C62.3496759,68.8016095 62.2990092,68.9680082 62.2496759,69.1344069 C62.2990092,68.9680082 62.3496759,68.8008056 62.3976759,68.6344069" id="path138" fill="#D21C2D"></path>
                        <path d="M62.1773318,69.9195681 C62.1146651,70.0859719 62.0506651,70.2523757 61.9866651,70.4195681 C62.0506651,70.2523757 62.1146651,70.0859719 62.1773318,69.9195681" id="path140" fill="#D21C2D"></path>
                        <path d="M62.0025791,70.6141918 C61.9439124,70.7818274 61.8825791,70.9475251 61.8225791,71.1141918 C61.8825791,70.9475251 61.9452458,70.7808584 62.0025791,70.6141918" id="path142" fill="#D21C2D"></path>
                        <path d="M131.838276,145.13419 C128.343438,145.683437 124.967524,144.45462 121.461717,145.348599 C121.451395,145.351394 121.465588,145.610319 121.489889,145.616986 C123.084728,146.048814 125.077846,146.366878 126.827524,146.43591 C128.355911,146.495695 130.495911,145.883652 131.860212,145.337631 C131.885588,145.327308 131.825803,145.136125 131.838276,145.13419 Z M119.856986,149.523222 C117.126019,149.974835 114.141933,149.917201 111.876986,149.048813 C110.467094,148.508598 109.885804,147.029674 108.95118,146.01505 C108.018492,145.002147 106.616341,143.95591 105.017202,143.717201 C105.09161,143.728384 105.330535,144.124943 105.487309,144.195265 C107.924298,145.284943 107.807739,147.839136 109.589245,149.529459 C110.273116,150.178921 111.807739,151.098491 112.956986,151.116555 C114.793976,151.144942 118.179352,150.805373 119.949889,149.610964 C119.949244,149.611394 119.877631,149.519996 119.856986,149.523222 L119.856986,149.523222 Z M99.9556964,152.464082 C97.4907503,151.320641 95.6062342,149.45419 94.4161267,147.524943 C93.6750514,146.324512 93.8027934,145.020426 93.7630084,143.706663 C93.7232235,142.395265 93.3361267,140.799781 92.2384923,139.7329 C92.2896751,139.782792 92.2055891,140.226878 92.281073,140.368599 C93.4546213,142.566663 92.3681697,144.905588 92.6116106,147.217416 C92.7049439,148.105373 93.0395676,148.983222 93.9339761,149.628813 C95.3636535,150.659996 97.7507502,152.554405 99.9683846,152.584512 C99.9677394,152.584512 99.9744061,152.472899 99.9556964,152.464082 L99.9556964,152.464082 Z M84.9612882,136.920857 C84.9167721,136.861287 84.8825785,137.230749 84.9105355,137.299997 C85.5427936,138.853115 82.476342,140.458276 81.7898904,142.028168 C81.4225786,142.867953 81.0894603,143.71419 81.1578474,144.53548 C81.3019335,146.286448 81.0623636,148.589244 85.0634387,149.423652 C85.0219334,149.41505 85.1042989,149.269674 85.0529011,149.242792 C81.9079549,147.579781 81.9449442,143.588384 84.4894603,140.485803 C85.460428,139.302362 85.7686,137.997631 84.9612882,136.920857 L84.9612882,136.920857 Z M142.522147,139.319566 C142.447308,140.450104 141.969674,141.425373 141.739566,141.656986 C140.550964,142.853545 139.524943,143.087953 137.505803,143.270534 C135.375696,143.463222 135.409889,144.045803 135.148599,145.238276 C134.966018,146.069459 135.226018,147.604727 133.670104,147.892254 C132.062792,148.189674 129.267524,148.43548 127.728384,147.959996 C125.641932,147.31505 124.280212,148.007093 124.444513,149.494835 C124.606233,150.963222 119.561287,152.842792 116.9529,153.1572 C114.486234,153.454835 111.998277,153.343652 109.663868,152.875695 C106.881073,151.961287 104.386234,150.822577 102.723438,148.917846 C101.035266,146.984082 100.487954,145.018061 100.250105,142.758706 C100.242148,142.683867 100.123868,142.100212 100.114836,142.450104 C100.061503,144.587093 100.233331,147.018491 101.350105,148.984512 C102.021718,150.165373 103.220858,151.77419 104.727524,152.658921 C104.730535,152.696555 104.733331,152.725803 104.735051,152.738276 C104.761288,152.924727 104.796772,153.114405 104.824083,153.304512 C100.489245,155.453329 95.2972019,152.595695 91.4264493,149.999136 C90.0778472,147.964082 89.1137612,146.608814 88.1885999,143.123652 C87.6513957,141.099781 88.2268795,138.823437 87.0374172,136.900212 C87.0720408,136.95548 87.0092451,137.329459 87.0466645,137.461072 C87.5903204,139.35333 86.9273097,141.139996 86.6944064,143.066878 C86.576557,144.039136 87.0187075,144.967308 87.0858043,145.916986 C87.1427935,146.719351 87.3322559,147.393115 87.7215032,148.067953 C87.6913957,148.359351 87.6952666,148.682792 87.7015032,148.725803 C87.9092451,150.245373 86.5070946,151.294835 84.1969871,150.690104 C80.7896754,149.797631 77.7451593,147.931179 77.719783,145.100857 C77.711611,144.2129 77.9393529,143.403222 78.2131163,142.618921 C78.3505357,142.498921 78.4864497,142.378706 78.6182776,142.256986 C81.6836539,139.430749 84.5879549,136.874405 87.3481699,134.576341 C90.5587074,137.065158 93.9503202,139.334835 98.4920405,140.599996 C104.150965,142.176556 109.867954,143.346018 116.044083,143.618276 C119.09032,143.752685 122.362363,143.444297 125.35419,142.943867 C128.291395,142.452685 132.407954,141.981502 134.858921,140.572685 C136.529674,139.61247 138.543652,138.937846 140.341502,138.081072 C140.698706,137.910749 141.575695,137.575265 142.438276,137.178921 C142.428814,138.041502 142.547523,138.934405 142.522147,139.319566 L142.522147,139.319566 Z" id="path144" fill="#AB1B2C"></path>
                        <path d="M146.047093,124.041932 C144.857846,127.227094 142.716341,131.670319 138.553975,133.531395 C136.540642,134.431394 134.621502,135.219567 133.11505,136.4929 C133.0929,136.511825 133.103007,136.647308 133.137416,136.655911 C133.776986,136.821287 136.028599,136.004298 136.640642,135.661072 C137.993545,134.901717 139.990534,134.641072 141.261932,133.797631 C144.13505,131.89161 145.651824,128.465373 146.325158,125.759997 C146.501932,125.049889 146.092469,123.920857 146.047093,124.041932 L146.047093,124.041932 Z M136.959351,125.601287 C136.553975,127.320212 132.928384,132.013115 131.485803,133.109889 C129.826663,134.371394 127.803438,135.484728 126.123438,136.706663 C122.280212,139.501072 116.429029,139.854835 111.339782,139.880427 C111.347739,139.880212 111.335266,140.043652 111.357847,140.046878 C115.991825,140.730749 122.490965,140.198706 126.242362,137.837631 C127.951395,136.761717 130.797846,136.388599 132.138276,135.032255 C133.880857,133.268814 135.21376,132.058276 135.925588,129.960427 C136.301502,128.852255 136.822792,126.31376 136.959351,125.601287 C136.971179,125.539137 136.980212,125.491395 136.985803,125.459137 C136.979566,125.504083 136.971179,125.55118 136.959351,125.601287 L136.959351,125.601287 Z M124.566233,129.759782 C122.663653,131.901072 121.55376,133.75419 118.362793,135.202362 C115.157416,136.656771 111.834621,137.637846 108.093761,137.930534 C108.095051,137.930319 108.102148,138.178491 108.119782,138.180427 C115.271395,138.982362 123.208814,136.471179 124.635696,130.416771 C124.674621,130.25204 124.446018,129.895481 124.566233,129.759782 L124.566233,129.759782 Z M112.784298,129.833975 C110.941288,131.767739 107.477847,133.780857 104.726019,135.077201 C101.812686,136.449459 99.2817179,136.689029 96.0141911,136.65505 C96.0230084,136.65505 96.00946,136.769029 96.0273094,136.77548 C98.8264491,137.7929 102.973976,137.120427 105.65118,136.243222 C108.937202,135.166448 111.911395,132.510319 112.802363,130.000642 C112.816556,129.959352 112.753331,129.866448 112.784298,129.833975 L112.784298,129.833975 Z M149.663007,125.504943 C149.507953,126.039782 149.576555,126.6329 149.631609,127.162793 C149.77462,128.523223 150.329459,128.855481 151.521932,129.496986 C150.945803,131.170534 148.506018,132.748384 146.707738,133.516986 C145.687093,133.953545 144.565803,134.404298 143.605373,134.938276 C140.639781,136.337631 136.841072,138.270964 133.739351,139.596771 C128.388599,141.883652 120.983868,142.696556 114.947524,142.41505 C104.65204,141.935695 95.1722557,138.955911 87.4913957,134.458061 C90.4666644,131.986018 93.2731159,129.816341 95.9333309,127.932255 C96.1139761,128.035911 96.3172019,128.157631 96.5453739,128.310749 C97.5868793,129.010965 99.5804276,131.220212 101.345159,130.106448 C102.284514,129.513545 104.823653,131.855481 105.886234,131.379782 C107.427739,130.689674 106.525589,128.262577 108.19161,128.390749 C109.463653,128.489244 110.197632,129.07118 111.684728,128.823868 C112.836556,128.632255 114.761718,127.962362 115.342578,127.185373 C116.273115,125.941717 117.507954,125.049889 118.39161,123.976126 C118.37075,124.684513 118.507954,126.295696 118.492255,126.690965 C118.482148,126.953115 118.406664,128.260212 118.923653,128.362147 C119.214836,128.51118 120.136556,128.784728 120.226018,128.769674 C121.355911,128.579997 122.289889,127.862793 123.131825,127.320427 C123.976556,126.776341 124.378061,126.038276 124.73247,125.29075 C125.29161,124.108384 126.307524,124.515911 126.720427,123.463008 C126.750965,123.384943 127.387954,123.286879 127.414405,123.418707 C127.490965,123.800427 127.61247,124.179997 127.725588,124.551825 C128.111825,125.827524 127.277846,127.264513 126.715051,128.499567 C126.619567,128.710319 126.915051,129.567954 126.947739,129.529459 C128.061932,128.196771 128.595481,126.489459 128.653115,124.808814 C128.780427,124.658492 128.896556,124.524728 128.908169,124.51075 C129.106663,124.269674 129.309029,124.031825 129.449459,123.77204 C129.878276,122.976341 130.766233,122.559997 131.865373,122.306664 C132.216341,122.225373 132.978921,122.043868 133.208384,122.397631 C133.361717,122.63419 133.352255,122.876771 133.445588,123.122363 C133.775481,123.990319 133.828384,124.867954 133.837201,125.773545 C133.837846,125.834836 133.999567,126.417416 134.054405,126.221932 C134.074835,126.149889 134.088599,126.075481 134.105588,126.002147 C135.568814,124.207524 135.266878,119.507309 139.097631,119.641717 C140.767523,119.700212 141.365158,122.340212 141.890319,123.429029 C141.9129,123.504083 142.384728,123.308169 142.481287,123.331395 C144.191179,122.643223 144.534835,120.635481 146.663437,120.559137 C149.311394,120.464298 147.709459,123.638276 149.831179,123.539997 C151.162147,123.478276 151.23548,122.675266 150.244082,124.237631 C149.861932,124.840427 149.849459,124.861502 149.663007,125.504943 L149.663007,125.504943 Z" id="path146" fill="#AB1B2C"></path>
                        <path d="M144.472039,0 C131.350534,0 121.138707,3.22236551 113.240427,9.8481933 C101.966879,19.326021 100.415051,29.8636552 100.415051,39.8432248 L100.415051,76.1621486 L89.2533311,76.1621486 L89.2533311,104.496772 L143.746663,104.496772 L143.746663,76.1621486 L134.320857,76.1621486 L134.320857,41.5797839 C134.320857,38.1475259 134.438921,35.3765583 135.866233,33.5348379 C137.557631,31.3660207 140.776986,30.0722573 144.472039,30.0722573 C146.89376,30.0722573 150.264297,30.6021498 152.609674,33.1303218 C153.987093,34.659354 154.483867,36.8750528 154.483867,41.5797839 L154.483867,76.1621486 L145.063222,76.1621486 L145.063222,104.496772 L199.555694,104.496772 L199.555694,76.1621486 L188.393544,76.1621486 L188.393544,39.347741 C188.393544,29.9240853 186.95935,19.9342146 176.585372,10.7182363 C168.587308,3.60686012 157.789243,0 144.472039,0" id="path148" fill="#AB1B2C"></path>
                        <path d="M144.472039,1.96211393 C131.8329,1.96211393 122.029459,5.03376332 114.501287,11.3524943 C103.846664,20.3152683 102.378062,30.3425799 102.378062,39.8432248 L102.378062,78.1258045 L91.2184923,78.1258045 L91.2184923,102.529245 L141.781717,102.529245 L141.781717,78.1258045 L132.356341,78.1258045 L132.356341,41.5797839 C132.356341,37.76387 132.500857,34.6602142 134.318706,32.3307519 C136.377201,29.6843003 140.17247,28.1045154 144.472039,28.1045154 C147.278061,28.1045154 151.216555,28.7455907 154.043222,31.7987089 C156.05376,34.0174185 156.447523,37.0653754 156.447523,41.5797839 L156.447523,78.1258045 L147.027953,78.1258045 L147.027953,102.529245 L197.592468,102.529245 L197.592468,78.1258045 L186.430963,78.1258045 L186.430963,39.347741 C186.430963,30.3864509 185.079995,20.8935694 175.27892,12.1866664 C167.65548,5.4021289 157.290534,1.96211393 144.472039,1.96211393" id="path150" fill="#231F20"></path>
                        <path d="M144.472039,8.12172023 C133.342362,8.12172023 124.835481,10.7206019 118.465588,16.0679566 C110.229675,22.9929027 108.541933,30.5806444 108.541933,39.8432248 L108.541933,84.2838689 L97.3746212,84.2838689 L97.3746212,96.373546 L135.621072,96.373546 L135.621072,84.2838689 L126.200427,84.2838689 L126.200427,41.5797839 C126.200427,36.9141926 126.449889,32.4066659 129.463653,28.5440853 C132.722792,24.3533327 138.19333,21.9490317 144.472039,21.9490317 C150.177201,21.9490317 155.181717,23.9595693 158.563867,27.6103219 C162.292469,31.7275261 162.603867,36.7686012 162.603867,41.5797839 L162.603867,84.2838689 L153.188813,84.2838689 L153.188813,96.373546 L191.430318,96.373546 L191.430318,84.2838689 L180.267307,84.2838689 L180.267307,39.347741 C180.267307,30.6494616 178.724082,23.4853758 171.193114,16.7939351 C164.724297,11.0393116 155.73419,8.12172023 144.472039,8.12172023" id="path152" fill="#FFFFFF"></path>
                        <path d="M192.457199,97.4004277 L152.161932,97.4004277 L152.161932,83.2569872 L161.5772,83.2569872 L161.5772,41.5797839 C161.5772,36.9888163 161.292469,32.1529024 157.810749,28.3081713 C154.478276,24.7109671 149.69634,22.9759134 144.472039,22.9759134 C138.819997,22.9759134 133.45505,25.0843004 130.273115,29.1756982 C127.37118,32.8950529 127.227094,37.3634399 127.227094,41.5797839 L127.227094,83.2569872 L136.647954,83.2569872 L136.647954,97.4004277 L96.3477395,97.4004277 L96.3477395,83.2569872 L107.515266,83.2569872 L107.515266,39.8432248 C107.515266,30.1696767 109.394406,22.3535478 117.805588,15.2812469 C125.195696,9.07804278 134.470534,7.09483853 144.472039,7.09483853 C154.763652,7.09483853 164.485372,9.45245138 171.874834,16.0262147 C179.554189,22.8494618 181.293974,30.1696767 181.293974,39.347741 L181.293974,83.2569872 L192.457199,83.2569872 L192.457199,97.4004277 Z M190.403651,95.3468793 L190.403651,85.3105355 L179.240426,85.3105355 L179.240426,39.347741 C179.240426,34.3978486 178.714404,30.7460207 177.534619,27.5064509 C176.192684,23.8212897 173.895264,20.5681285 170.510103,17.5606447 C167.225372,14.6385158 163.239996,12.4513545 158.664297,11.0599782 C154.492684,9.79141911 149.717631,9.14834386 144.472039,9.14834386 C139.23505,9.14834386 134.736341,9.70085997 130.718706,10.8376126 C126.226664,12.1087954 122.434621,14.0767738 119.127094,16.8530748 C115.419567,19.9705156 112.901288,23.3907521 111.428384,27.3092466 C110.142363,30.731182 109.568814,34.5969884 109.568814,39.8432248 L109.568814,83.2569872 L109.568814,85.3105355 L107.515266,85.3105355 L98.4012879,85.3105355 L98.4012879,95.3468793 L134.594405,95.3468793 L134.594405,85.3105355 L127.227094,85.3105355 L125.173545,85.3105355 L125.173545,83.2569872 L125.173545,41.5797839 C125.173545,36.7281711 125.439782,32.0322573 128.65204,27.9150531 C132.108169,23.4711822 137.874405,20.9223866 144.472039,20.9223866 C150.466448,20.9223866 155.738491,23.0496768 159.3172,26.9122574 L159.324942,26.9210746 L159.332684,26.9296767 C163.298706,31.3086014 163.630749,36.787741 163.630749,41.5797839 L163.630749,83.2569872 L163.630749,85.3105355 L161.5772,85.3105355 L154.21548,85.3105355 L154.21548,95.3468793 L190.403651,95.3468793 L190.403651,95.3468793 Z" id="path154" fill="#D3D4D3"></path>
                        <path d="M157.21634,117.89161 L157.21634,122.839782 L156.55505,122.838707 C155.77419,122.790965 155.233975,122.570965 154.752684,122.105803 C154.249028,121.618707 154.024297,121.149889 154.024297,119.659352 L154.024297,117.89161 L154.507523,117.89161 L157.21634,117.89161 Z M127.621502,123.193975 C126.057846,123.193975 124.8329,121.900212 124.8329,120.248384 C124.8329,118.804513 126.099352,117.538277 127.543223,117.538277 C129.150749,117.538277 130.410104,118.83204 130.410104,120.483868 C130.410104,121.978277 129.159352,123.193975 127.621502,123.193975 Z M174.226662,98.6946212 L174.226662,110.235911 L177.977845,110.235911 L173.033759,122.840642 L171.59634,122.840642 C170.820641,122.79247 170.282361,122.57161 169.800856,122.106234 C169.296555,121.618922 169.071824,121.150104 169.071824,119.659352 L169.071824,117.89161 L171.780856,117.89161 L171.780856,106.350965 L130.904513,106.350965 C129.721502,105.985374 128.450965,105.801073 127.110965,105.801073 C122.865803,105.801073 118.923008,107.675911 116.223008,110.900857 C115.733761,110.226879 115.175266,109.615911 114.564298,109.09032 C111.813546,106.683653 108.735696,106.350965 105.820858,106.350965 L89.2533311,106.350965 L89.2533311,117.89161 L92.2763418,117.89161 L92.2763418,129.907954 L89.2533311,129.907954 L89.2533311,141.448814 L105.23204,141.448814 C107.844298,141.448814 110.61204,141.188169 113.15204,139.297201 C115.807954,137.276771 117.206019,134.37204 117.206019,130.888384 C117.206019,130.849674 117.205804,130.810964 117.205373,130.772255 C119.851395,133.382577 123.451825,134.931394 127.346663,134.931394 C128.578491,134.931394 129.768599,134.746878 130.899137,134.381932 L153.670749,134.381932 L153.670749,134.227739 C154.148813,134.35333 154.639351,134.449459 155.141286,134.515911 L155.141286,134.615265 L156.427523,134.616556 L168.71849,134.616556 L168.71849,134.227739 C169.329243,134.388169 169.960641,134.500857 170.609888,134.564513 L170.627523,134.615911 L199.509457,134.616556 L199.509457,122.840642 L195.708597,122.840642 L190.500855,110.235911 L191.499565,110.235911 L191.499565,98.6946212 L174.226662,98.6946212 L174.226662,98.6946212 Z" id="path156" fill="#AB1B2C"></path>
                        <path d="M144.078706,115.981933 L140.35548,115.981933 L140.35548,124.750319 L144.078706,124.750319 L144.078706,115.981933 Z M127.543223,115.628384 C125.038707,115.628384 122.923223,117.744083 122.923223,120.248384 C122.923223,122.970965 124.987094,125.103868 127.621502,125.103868 C130.21204,125.103868 132.319782,123.031395 132.319782,120.483868 C132.319782,117.761072 130.221717,115.628384 127.543223,115.628384 L127.543223,115.628384 Z M107.091395,116.620427 L107.068599,116.605158 C106.439782,116.178062 105.249675,116.178062 104.461933,116.178062 L102.771395,116.178277 L102.771395,120.706449 L104.132471,120.706449 C105.324944,120.706449 106.354836,120.706449 107.053546,120.200427 C107.633546,119.770965 107.927739,119.139567 107.927739,118.324298 C107.927739,117.621072 107.599997,116.95247 107.091395,116.620427 L107.091395,116.620427 Z M102.81075,131.817846 L103.936772,131.817846 L104.628169,131.820857 C105.30903,131.820857 106.009675,131.797846 106.438062,131.523653 C106.905589,131.224513 107.142793,130.746663 107.142793,130.103223 C107.142793,129.679352 107.042363,129.100857 106.565589,128.753975 C106.084944,128.410319 105.506019,128.347524 104.539137,128.347524 L102.81075,128.349459 L102.81075,131.817846 Z M184.577845,124.750319 L185.873544,124.750319 L184.323006,120.743653 L182.864727,124.750319 L184.211178,124.750319 L184.211178,132.706878 L171.617845,132.706878 L171.501286,132.706878 L171.501286,132.706663 L171.396985,132.706448 C169.700856,132.632685 168.120211,132.17247 166.808598,131.373115 L166.808598,132.706878 L156.4172,132.706878 L156.4172,132.706233 L156.349028,132.706448 C154.653114,132.632685 153.072469,132.17247 151.761071,131.373115 L151.761071,132.472255 L142.986018,132.472255 L141.369459,132.472255 L132.241502,132.472255 L132.241502,131.684943 C130.798921,132.560212 129.111825,133.021717 127.346663,133.021717 C121.299137,133.021717 116.233761,128.690534 115.012685,122.931395 C114.477201,123.744943 113.807309,124.469889 113.006664,125.082147 C114.484083,126.601072 115.296126,128.656986 115.296126,130.888384 C115.296126,133.752685 114.160642,136.130534 112.011825,137.764943 C109.917632,139.324083 107.515481,139.538921 105.231825,139.538921 L91.1630085,139.538921 L91.1630085,131.817846 L94.1862342,131.817846 L94.1862342,115.981933 L91.1630085,115.981933 L91.1630085,108.260642 L105.820858,108.260642 C108.189245,108.260642 110.916771,108.436556 113.318492,110.537632 C114.567954,111.6129 115.502793,113.060427 116.028814,114.668384 C118.059782,110.548384 122.263223,107.710535 127.110965,107.710535 C129.030965,107.710535 130.755696,108.144944 132.241502,109.002363 L132.241502,108.260642 L141.369459,108.260642 L142.986018,108.260642 L154.823437,108.260642 L154.823437,115.981933 L152.114405,115.981933 L152.114405,119.659137 C152.114405,121.543438 152.457416,122.543008 153.425373,123.479137 C154.242577,124.268814 155.249243,124.684083 156.496985,124.748384 L157.620856,124.750319 L159.126018,124.750319 L159.126018,115.981933 L156.4172,115.981933 L156.4172,108.260642 L169.870963,108.260642 L169.870963,115.981933 L167.161931,115.981933 L167.161931,119.659137 C167.161931,121.543438 167.504942,122.543008 168.473114,123.479137 C169.290748,124.269244 170.295695,124.685158 171.53849,124.750319 L174.336125,124.750319 L180.055049,110.17075 L179.300211,108.326019 L176.13634,108.326019 L176.13634,100.604729 L189.589888,100.604729 L189.589888,108.326019 L187.645587,108.326019 L194.431393,124.750319 L197.599995,124.750319 L197.599995,132.706878 L184.577845,132.706878 L184.577845,124.750319 L184.577845,124.750319 Z" id="path158" fill="#231F20"></path>
                        <path d="M107.980212,115.262363 C106.881073,114.515911 105.349675,114.555696 104.093116,114.555696 L101.1486,114.555696 L101.1486,122.329244 L104.132471,122.329244 C105.506664,122.329244 106.881073,122.329244 108.019352,121.504728 C109.079567,120.719567 109.550535,119.581072 109.550535,118.324298 C109.550535,117.146879 109.000857,115.929675 107.980212,115.262363 L107.980212,115.262363 Z M101.187954,133.440427 L103.936126,133.440427 C105.074621,133.440427 106.33118,133.518706 107.312901,132.890534 C108.294406,132.262362 108.765374,131.241717 108.765374,130.103438 C108.765374,129.043223 108.372685,128.061502 107.50903,127.433545 C106.409675,126.647954 105.19247,126.726663 103.896987,126.726663 L101.187954,126.726663 L101.187954,133.440427 Z M110.021718,124.920427 C112.377632,126.019782 113.67333,128.336341 113.67333,130.888384 C113.67333,133.126233 112.848599,135.089244 111.042578,136.463437 C109.354406,137.719997 107.312901,137.916126 105.231825,137.916126 L92.7858041,137.916126 L92.7858041,133.440427 L95.8088148,133.440427 L95.8088148,114.359137 L92.7858041,114.359137 L92.7858041,109.883438 L105.820858,109.883438 C108.215911,109.883438 110.375266,110.119137 112.259997,111.767954 C113.947954,113.220642 114.890535,115.458492 114.890535,117.696341 C114.890535,121.033975 113.123653,123.664083 110.021718,124.920427 L110.021718,124.920427 Z" id="path160" fill="#D3D4D3"></path>
                        <path d="M127.543223,114.005589 C124.166449,114.005589 121.300427,116.83247 121.300427,120.248384 C121.300427,123.781932 124.048814,126.726663 127.621502,126.726663 C131.076556,126.726663 133.942792,123.938922 133.942792,120.483868 C133.942792,116.91118 131.15505,114.005589 127.543223,114.005589 Z M133.864083,127.865158 C132.41161,130.142577 130.055696,131.398706 127.346663,131.398706 C121.221717,131.398706 116.35333,126.33419 116.35333,120.248384 C116.35333,114.319997 121.104083,109.333546 127.110965,109.333546 C129.859352,109.333546 132.3329,110.393761 133.864083,112.71032 L133.864083,109.883438 L141.363222,109.883438 L141.363222,114.359137 L138.73247,114.359137 L138.73247,126.37333 L141.363222,126.37333 L141.363222,130.849244 L133.864083,130.849244 L133.864083,127.865158 L133.864083,127.865158 Z" id="path162" fill="#D3D4D3"></path>
                        <path d="M150.138061,127.276556 L150.138061,130.849244 L142.99247,130.849244 L142.99247,126.37333 L145.701287,126.37333 L145.701287,114.359137 L142.99247,114.359137 L142.99247,109.883438 L153.200641,109.883438 L153.200641,114.359137 L150.491609,114.359137 L150.491609,119.659352 C150.491609,121.622363 150.81548,123.213115 152.297416,124.645803 C153.482577,125.79161 154.888598,126.301072 156.419566,126.379782 L156.419566,131.084943 C153.710964,130.967094 151.355265,129.749889 150.138061,127.276556" id="path164" fill="#D3D4D3"></path>
                        <path d="M165.185802,127.276556 L165.185802,131.083868 L158.039996,131.083868 L158.039996,126.37333 L160.749028,126.37333 L160.749028,114.359137 L158.039996,114.359137 L158.039996,109.883438 L168.248168,109.883438 L168.248168,114.359137 L165.539351,114.359137 L165.539351,119.659352 C165.539351,121.622363 165.863007,123.213115 167.345157,124.645803 C168.530318,125.79161 169.93634,126.301072 171.467308,126.379782 L171.467308,131.084943 C168.75849,130.967094 166.402792,129.749889 165.185802,127.276556" id="path166" fill="#D3D4D3"></path>
                        <polyline id="path168" fill="#D3D4D3" points="186.200641 126.37333 188.241931 126.37333 184.276555 116.126234 180.547092 126.37333 182.588167 126.37333 182.588167 131.083868 173.124082 131.083868 173.124082 126.37333 175.442576 126.37333 181.803006 110.158277 180.389458 106.703223 177.75935 106.703223 177.75935 102.227309 187.967307 102.227309 187.967307 106.703223 185.21892 106.703223 193.346017 126.37333 195.976984 126.37333 195.976984 131.083868 186.200641 131.083868 186.200641 126.37333"></polyline>
                        <path d="M100.532686,126.07161 L103.896987,126.07161 L104.538707,126.069459 C105.691825,126.069459 106.815696,126.1329 107.88989,126.900427 C108.877202,127.618491 109.420642,128.755481 109.420642,130.103223 C109.420642,131.532685 108.797632,132.718706 107.666019,133.442362 C106.719782,134.048169 105.601718,134.098706 104.627954,134.098706 L103.935696,134.095696 L100.532686,134.095696 L100.532686,126.07161 Z M100.493546,113.900427 L104.461933,113.899997 C105.816987,113.899997 107.233116,113.963223 108.348169,114.720212 C109.493331,115.468814 110.205804,116.850105 110.205804,118.324083 C110.205804,119.878922 109.584513,121.160857 108.409245,122.03118 C107.093331,122.984298 105.588169,122.984298 104.132471,122.984298 L100.493546,122.984298 L100.493546,113.900427 Z M93.4410729,110.538277 L93.4410729,113.703868 L96.4640836,113.703868 L96.4640836,134.095696 L93.4410729,134.095696 L93.4410729,137.261072 L105.231825,137.261072 C107.123653,137.261072 109.089245,137.100642 110.65161,135.937846 C112.199352,134.760212 113.018062,133.013975 113.018062,130.888599 C113.018062,128.479997 111.794406,126.470534 109.744728,125.51419 L108.381288,124.877846 L109.775911,124.31333 C112.609675,123.165373 114.235266,120.75376 114.235266,117.696126 C114.235266,115.589459 113.336986,113.559137 111.83247,112.264298 C110.18989,110.827094 108.314406,110.538277 105.820858,110.538277 L93.4410729,110.538277 L93.4410729,110.538277 Z" id="path170" fill="#FFFFFF"></path>
                        <path d="M127.621502,127.381717 C123.774836,127.381717 120.645373,124.181717 120.645373,120.248384 C120.645373,116.509244 123.804083,113.350535 127.543223,113.350535 C131.498921,113.350535 134.597846,116.483653 134.597846,120.483868 C134.597846,124.287309 131.468384,127.381717 127.621502,127.381717 Z M127.110965,109.988384 C121.540427,109.988384 117.008599,114.591395 117.008599,120.248384 C117.008599,126.035696 121.646018,130.743868 127.346663,130.743868 C129.864298,130.743868 131.982577,129.596126 133.311825,127.512685 L134.519351,125.619782 L134.519351,130.194405 L140.708169,130.194405 L140.708169,127.028384 L138.077416,127.028384 L138.077416,113.703868 L140.708169,113.703868 L140.708169,110.538277 L134.519351,110.538277 L134.519351,114.889675 L133.317631,113.071395 C132.003653,111.083438 129.799352,109.988384 127.110965,109.988384 L127.110965,109.988384 Z" id="path172" fill="#FFFFFF"></path>
                        <path d="M143.647523,110.538277 L143.647523,113.703868 L146.356555,113.703868 L146.356555,127.028384 L143.647523,127.028384 L143.647523,130.194405 L149.482792,130.194405 L149.482792,127.187524 L150.686663,126.907524 L150.726018,126.987524 C151.664512,128.894405 153.450964,130.093975 155.764512,130.37462 L155.764512,126.978922 C154.23677,126.782577 152.917631,126.156556 151.842147,125.116771 C150.079351,123.412685 149.83634,121.486664 149.83634,119.659137 L149.83634,113.703868 L152.545588,113.703868 L152.545588,110.538277 L143.647523,110.538277" id="path174" fill="#FFFFFF"></path>
                        <path d="M158.69505,110.538277 L158.69505,113.703868 L161.404297,113.703868 L161.404297,127.028384 L158.69505,127.028384 L158.69505,130.429029 L164.530749,130.429029 L164.530749,127.187524 L165.734189,126.907524 L165.773544,126.987524 C166.712254,128.894405 168.49849,130.093975 170.812254,130.37462 L170.812254,126.978922 C169.284512,126.782577 167.965157,126.156556 166.889888,125.116771 C165.127308,123.41247 164.884297,121.486449 164.884297,119.659137 L164.884297,113.703868 L167.593114,113.703868 L167.593114,110.538277 L158.69505,110.538277" id="path176" fill="#FFFFFF"></path>
                        <polyline id="path178" fill="#FFFFFF" points="178.414404 102.882363 178.414404 106.047954 180.829243 106.047954 182.509028 110.1529 175.889458 127.028384 173.779135 127.028384 173.779135 130.429029 181.933114 130.429029 181.933114 127.028384 179.610963 127.028384 184.257845 114.261933 189.19806 127.028384 186.855694 127.028384 186.855694 130.429029 195.321931 130.429029 195.321931 127.028384 192.907952 127.028384 184.239565 106.047954 187.312253 106.047954 187.312253 102.882363 178.414404 102.882363"></polyline>
                        <path d="M16.6651609,153.889459 C15.485548,153.71634 14.4396771,153.101286 13.7198491,152.157416 C12.6139997,150.706878 12.677075,148.828598 12.7074836,145.690319 C12.4429674,147.479136 12.2788169,148.797846 12.223118,149.258061 C11.9465803,150.990104 11.3376126,152.766663 9.18296751,153.103222 C8.97412881,153.13591 8.76453742,153.152469 8.56032237,153.152469 C6.66010736,153.152469 5.3989461,151.747308 4.98513966,150.381932 C4.5400644,149.341932 3.06139777,144.988383 2.60281714,132.298921 C2.04796769,116.936341 9.82804277,107.394406 16.4525372,102.094836 C23.5208596,96.4402126 30.7193541,94.3713955 31.0223648,94.2860191 L31.5763433,94.1301052 C30.8374186,93.0890299 30.1886014,91.885374 29.6756982,90.4924709 C25.9479563,91.6913956 19.0553544,93.5924708 12.8456771,93.5924708 C7.31425788,93.5924708 3.52645152,92.0817181 1.58770104,89.1019333 C-0.698673101,85.5875247 -0.576277405,80.0135464 2.58122574,72.5909659 C2.66599993,72.4090304 11.232946,54.3376331 27.0832251,46.6473107 L27.7929025,46.3032246 L27.4881714,47.0264504 C27.4799993,47.0460203 26.6767735,49.0038697 27.7524724,51.0081708 C28.946881,53.2335471 31.8918272,54.6769879 36.5109668,55.2989233 C36.6408593,55.3187083 49.0245149,57.3232244 52.4208589,68.0236542 C52.7963428,65.5447295 53.4247298,60.642149 53.4103212,55.6681707 C53.3870954,47.6356977 51.6793535,42.6567731 48.4948375,41.2789237 C48.456988,41.2662355 44.6479559,40.0073108 39.9090313,40.0070958 C37.9384937,40.0070958 36.0692464,40.2236549 34.3533325,40.6503216 L33.4686013,40.8705366 C33.4686013,40.8705366 43.696558,21.7653758 58.5690308,21.4182575 C60.0503211,17.6774189 93.5578471,-15.5340211 121.429244,24.2597843 C121.429244,24.2597843 113.276341,20.5030317 105.606234,22.3812898 C114.528599,26.6075262 117.567954,30.1034401 121.429244,35.7909668 C121.429244,35.7909668 115.781072,33.1038701 107.406234,35.2952679 C107.737632,35.247526 120.176126,39.20387 122.511825,47.8180633 C122.511825,47.8180633 110.067309,42.3655903 104.172471,52.4524718 C104.157417,52.50516 104.107524,52.6765578 104.024514,52.9466653 C115.189029,46.712687 121.429244,55.8012889 121.429244,55.8012889 C113.85032,53.9230094 111.084943,56.3752674 109.258492,60.3408587 C106.773116,65.7382779 101.214191,71.2862348 98.0445137,74.1772024 C98.2827932,74.1664498 98.5232233,74.1608584 98.766019,74.1608584 L98.9982771,74.1625788 C99.0477395,74.163224 99.0991373,74.16731 99.1490298,74.1688154 C101.899137,72.9004283 103.101718,70.3851595 103.101718,70.3851595 C104.953761,67.3412886 107.982148,65.6189231 107.982148,65.6189231 C115.477847,59.7346222 121.310965,65.998493 121.310965,65.998493 C116.575481,62.6187081 110.95161,76.1498906 110.257417,77.8791378 C110.257417,77.8791378 108.816987,82.1978474 102.678922,83.2911807 C99.7225782,83.8176323 94.9875245,82.648385 94.9875245,82.648385 C94.9875245,82.648385 93.7047288,84.1184925 92.4909654,84.6832237 C90.9505354,85.3995678 89.5855892,85.1576323 89.5855892,85.1576323 C89.5855892,85.1576323 78.8030088,101.690105 62.7961275,103.840643 C46.7894612,105.99118 18.2900641,154.127953 16.6651609,153.889459" id="path180" fill="#231F20"></path>
                        <path d="M95.1995675,75.0737616 C101.665589,71.5989229 106.177417,60.3533318 106.177417,60.3533318 C109.127739,52.7563428 113.667524,53.6098911 113.667524,53.6098911 C108.37032,51.0027944 102.182578,59.730106 99.0270943,65.0359124 C98.7361266,65.6068801 98.4333309,66.18645 98.1152664,66.774837 C96.8860191,69.0488155 95.3959116,71.5965573 93.6116106,74.207525 C93.8759116,74.3066648 94.2070944,74.4486003 94.5589224,74.6490304 C96.6019331,73.3802132 98.5638685,68.6064499 98.5638685,68.6064499 C99.5449437,66.5118263 100.703008,65.0591382 101.604514,64.1348371 C100.013976,65.9767725 99.4799975,68.3905359 99.4799975,68.3905359 C97.7232234,73.1679552 95.6529008,74.6129014 95.0363417,74.9524712 C95.0911804,74.991396 95.145374,75.0320411 95.1995675,75.0737616" id="path182" fill="#0EAA4C"></path>
                        <path d="M89.1894601,83.9868796 C89.86903,82.6636538 89.5619332,81.1890302 89.1070945,80.0729012 C85.9111806,83.760428 82.0668797,87.2604279 77.4692454,89.964944 C77.3019336,90.0709655 63.0281705,100.463223 45.6698913,100.746879 C49.6107514,101.013761 54.6939771,100.763653 58.1464502,100.262363 C63.5825791,99.4729007 68.6640843,97.3219331 68.6640843,97.3219331 C68.0062349,97.6954814 65.6219338,100.357202 57.8823641,101.374621 C51.1348374,102.261503 46.996773,101.802578 43.4443,100.662363 C43.4088161,100.658492 43.3737624,100.654621 43.3374183,100.650535 C67.2064499,110.572255 87.5419333,86.0417183 89.1894601,83.9868796" id="path184" fill="#0EAA4C"></path>
                        <path d="M108.257417,77.5845142 C112.606234,66.3860198 117.362363,65.2427941 117.362363,65.2427941 C113.841072,63.6286006 110.45161,66.0929016 110.45161,66.0929016 C108.036556,67.5184929 105.670105,70.7442993 105.670105,70.7442993 C101.595696,76.1294605 97.8159115,74.9122562 97.4015029,74.7572024 C96.805804,75.2881702 96.3395675,75.6870949 96.0485997,75.9320411 C96.2701051,76.2335465 96.4544062,76.5772024 96.5750513,76.9701056 C101.991825,77.5683852 103.541718,74.3159121 103.541718,74.3159121 C108.104513,68.898708 110.584083,69.3741918 110.584083,69.3741918 C107.035481,70.1359122 105.668384,73.0847294 105.668384,73.0847294 C102.723223,78.4939765 110.418062,71.4686004 110.418062,71.4686004 C106.213546,77.9658045 99.8567717,78.831826 97.3109653,78.9034389 C102.34989,80.6270948 105.655696,77.86774 105.903008,77.6522561 C100.662578,82.4294603 97.3997825,80.4890302 96.4316105,79.6795679 C96.229675,80.2705356 95.9118256,80.9210732 95.4612879,81.6324711 C105.89075,83.852471 108.257417,77.5845142 108.257417,77.5845142" id="path186" fill="#0EAA4C"></path>
                        <path d="M93.6038686,82.3776323 C94.2346213,81.4438689 96.6234384,77.4350518 93.1290299,74.9053745 C92.825374,75.3384927 92.5118256,75.7729013 92.1918257,76.207525 C94.8329009,75.863439 93.7264493,80.4866647 93.7264493,80.4866647 C94.2311804,78.0006432 92.7477396,77.095697 91.7707504,76.7726863 C91.6460192,76.9384927 91.5219332,77.1042991 91.3948364,77.2698905 C93.0855891,78.8946217 92.2135461,82.1367721 92.2135461,82.1367721 C92.2154816,79.7894604 91.3318257,78.7393529 90.6066644,78.2724712 C90.5197827,78.3812884 90.4322558,78.4896755 90.3440838,78.5982776 C91.8163418,80.1339765 90.9701053,83.2731162 90.9701053,83.2731162 L89.9944064,83.9384925 C91.1696751,83.9060194 92.6118256,83.0673098 93.6038686,82.3776323" id="path188" fill="#0EAA4C"></path>
                        <path d="M24.3868811,85.2995678 C23.26215,84.2707506 21.9122575,83.8666646 21.4060855,84.3916108 C20.9095264,84.9251592 21.4216124,86.188815 22.5612898,87.2210731 C23.7172037,88.256772 25.0378488,88.6615032 25.5443004,88.1346215 C26.06258,87.5931161 25.5436553,86.3316107 24.3868811,85.2995678 L24.3868811,85.2995678 Z M61.6344071,47.2834397 C60.561934,51.3081708 60.5972028,60.862149 60.5989232,61.2668802 C59.513762,75.1273099 55.0161277,75.9886003 54.9707513,75.995482 L54.9382782,76.0006433 L54.9025793,76.0129013 C54.5748373,76.1339766 54.2238696,76.195697 53.8591384,76.195697 C49.7935471,76.195697 44.9307516,68.8522563 44.8821494,68.7780628 L44.3195688,69.0980628 C44.5716118,69.758923 44.8397838,70.3999982 45.1174182,71.0062348 C41.5756979,78.4658045 32.7587089,88.1479548 31.9034401,89.0780623 C25.8703219,90.8047289 20.7469672,91.6802128 16.6744727,91.6802128 C11.405075,91.6802128 7.8315697,90.2305354 6.05333318,87.3716107 C3.04948379,82.5415033 6.19522565,75.2169874 6.22731167,75.143439 C9.79847287,65.5195683 14.7151394,59.4384931 18.2121071,56.0283857 C21.1616339,53.1520417 23.6243005,51.6404288 24.5843005,51.1055901 C24.7761284,57.4513964 33.6501067,58.9399985 33.7419346,58.9548372 C41.2892463,59.9268802 46.0062354,63.3965576 48.6359128,66.1363424 C51.4806439,69.1002133 52.5548374,71.855052 52.565375,71.8825788 L52.933332,72.8440842 L53.1668804,71.7909659 C58.0251598,49.8961278 54.2152675,42.1451602 54.0507513,41.8258054 C52.9120417,39.6270958 49.976988,37.0064507 42.4595688,37.0064507 C41.2909667,37.0064507 40.2991388,37.0741926 39.6281711,37.1374184 C49.8950525,27.9243004 55.4288158,26.5277413 57.8369878,26.5279563 C58.9116114,26.5279563 59.3894609,26.8090316 59.393977,26.8118273 L59.4286007,26.8324724 L59.4707512,26.8447305 C64.8520414,28.2782789 61.6673103,47.0935472 61.6344071,47.2834397 L61.6344071,47.2834397 Z" id="path190" fill="#FBC01C"></path>
                        <path d="M51.0191385,31.6408594 C51.0191385,31.6408594 62.2931167,22.5165586 60.2169877,40.9445151 C60.2169877,40.9445151 60.7858049,28.9772036 51.0191385,31.6408594" id="path192" fill="#FFFFFF"></path>
                        <path d="M51.0363428,72.4698907 C51.0363428,72.4698907 53.169246,75.4460196 54.5890309,71.7365573 C54.5890309,71.7365573 54.5782782,78.5524712 51.0363428,72.4698907" id="path194" fill="#FFFFFF"></path>
                        <path d="M52.8501062,93.48946 C49.5707514,92.6264493 48.2956977,90.1593526 48.2956977,90.1593526 C48.1438698,89.8083849 47.9875257,89.4838687 47.828816,89.1746214 C50.2098912,89.8780623 52.8434395,89.0395677 53.7488159,87.2716107 C54.6649449,85.4832237 53.4638696,83.4092452 51.0576331,82.6539764 C49.3993536,82.1331162 47.6025795,82.3795678 46.3477408,83.1711807 C47.0458053,81.859998 48.0855902,80.6634388 49.6324719,80.0427937 C51.0202138,81.7544066 54.2036546,84.7423635 59.9617189,85.5989226 C58.6094609,90.1120408 54.529461,92.6245138 52.8501062,93.48946" id="path196" fill="#FFFFFF"></path>
                        <path d="M48.7735472,78.8146217 C48.7735472,78.8146217 48.9253751,79.0978475 49.2522568,79.5483851 C48.2298913,79.9232238 44.896558,81.4017184 43.9595688,85.0197828 C42.3217194,84.2572022 41.0389237,84.6019334 41.0389237,84.6019334 C35.9232249,85.6116108 38.5262356,90.6636536 38.5262356,90.6636536 C38.5741926,87.7965569 40.2473108,87.1283849 40.2473108,87.1283849 C42.596128,86.1159118 43.5825796,87.9640838 43.5825796,87.9640838 C44.132472,88.8116107 46.4520418,92.2591375 46.4520418,92.2591375 C52.8595686,100.007094 63.1739769,91.4202128 63.1739769,91.4202128 C59.8404286,93.2077396 57.1705362,93.8122557 55.0645148,93.7825783 C59.8195684,91.5632235 60.7090307,86.8634387 60.8572028,85.712471 C62.0898909,85.8417183 63.4301059,85.8761269 64.8888156,85.7827936 C64.8888156,85.7827936 58.5468803,85.2967721 48.7735472,78.8146217 L48.7735472,78.8146217 Z M71.1916111,73.775267 C71.0374176,74.4249444 69.4002133,75.4425788 69.4002133,75.4425788 C69.9116112,75.7933314 71.3795681,75.6058046 71.3795681,75.6058046 C71.3335466,76.4563422 69.1765574,77.5384927 69.1765574,77.5384927 C69.5154821,77.8365572 71.2924713,77.5673099 71.2924713,77.5673099 C71.0883853,78.4731163 69.1696757,79.4806432 69.1696757,79.4806432 C69.5051596,79.6815034 71.1264498,79.604084 71.1264498,79.604084 C70.7449445,80.6967722 68.750966,81.5733313 68.750966,81.5733313 C69.3242993,81.8283851 70.6275251,81.6935463 70.6275251,81.6935463 C70.0567724,83.0879549 68.2597832,83.6150517 68.2597832,83.6150517 C68.7273101,83.8225785 70.1516111,83.7150517 70.1516111,83.7150517 C69.7851595,84.7178473 67.5247295,85.8670946 67.5247295,85.8670946 C68.2604284,86.3163419 69.482794,86.1178473 69.482794,86.1178473 C69.1434391,87.2210731 67.0896757,88.0597827 67.0896757,88.0597827 C67.4847295,88.5058042 68.963009,88.3464494 68.963009,88.3464494 C68.6494606,89.0318257 66.014622,90.704944 66.014622,90.704944 C66.6804284,91.2544063 68.3172026,90.9307504 68.3172026,90.9307504 C68.2204284,91.285159 67.9698908,91.6709655 67.626665,92.0640837 C59.8535469,96.0053739 53.8270954,97.4423632 53.7161277,97.4679546 C51.7215041,97.9864492 49.7797837,98.2481696 47.9356977,98.2481696 C38.1167732,98.2481696 33.3077411,90.8496751 32.4735476,89.4253741 C41.1625796,83.2017184 45.2580634,75.955482 46.4529021,73.5425788 C49.5238697,78.5847292 52.8554825,79.1427937 54.173547,79.1427937 C54.5797836,79.1427937 54.8187083,79.0922561 54.8447298,79.0864496 C61.934192,77.6367723 62.7720414,67.0212886 62.8012888,62.474407 C63.3363425,62.2266651 63.8189231,61.7791382 63.8189231,61.7791382 C63.96645,62.5245146 63.8718264,63.3195683 63.8718264,63.3195683 C64.2860199,63.3701059 65.2380629,62.8666651 65.2380629,62.8666651 C65.3541919,63.8172027 65.1847296,64.5204285 65.1847296,64.5204285 C65.7079553,64.5204285 66.4817188,64.122579 66.4817188,64.122579 C66.6202134,65.0273102 66.1933317,65.770751 66.1933317,65.770751 C66.8995682,65.8578478 67.6273101,65.522579 67.6273101,65.522579 C67.774837,66.2126865 67.1447295,67.166665 67.1447295,67.166665 C67.3920413,67.3144069 68.635052,67.0578478 68.635052,67.0578478 C68.614837,67.9634392 67.954837,68.7580628 67.954837,68.7580628 C68.5834391,68.958923 69.7092456,68.5169875 69.7092456,68.5169875 C69.5952671,69.1688155 68.6417187,70.2533316 68.6417187,70.2533316 C69.1924714,70.6051595 70.3483853,70.2905359 70.3483853,70.2905359 C70.2075251,71.0967724 69.0279553,71.9017186 69.0279553,71.9017186 C69.4141918,72.1488154 71.0075251,72.003224 71.0075251,72.003224 C70.7842993,72.6559122 69.3042993,73.5021487 69.3042993,73.5021487 C70.0045144,73.895267 71.1916111,73.775267 71.1916111,73.775267 L71.1916111,73.775267 Z" id="path198" fill="#FFFFFF"></path>
                        <path d="M51.4539772,86.6376322 C51.9247299,85.7258043 51.6681708,84.7034387 50.9066654,83.9787076 C52.1956976,84.6698904 52.8204288,85.8688151 52.2864503,86.9027935 C51.7380632,87.9645139 50.1948375,88.4907505 48.6062353,88.272901 C49.8591385,88.1535462 50.9662353,87.5817182 51.4539772,86.6376322" id="path200" fill="#7CCCED"></path>
                        <path d="M47.1679558,86.4752667 C47.912687,86.7090301 48.7645149,86.3791376 49.0881708,85.7466645 C49.4094611,85.1195678 49.0913966,84.4070947 48.3468805,84.1733312 C47.6189235,83.9447291 46.7529021,84.2853742 46.4316117,84.912686 C46.1077408,85.5449441 46.4399988,86.2466645 47.1679558,86.4752667" id="path202" fill="#FFFFFF"></path>
                        <path d="M46.3477408,83.1711807 C47.6025795,82.3795678 49.3993536,82.1331162 51.0576331,82.6539764 C53.4638696,83.4092452 54.6649449,85.4832237 53.7488159,87.2716107 C52.8434395,89.0395677 50.2098912,89.8780623 47.828816,89.1746214 C47.9875257,89.4838687 48.1438698,89.8083849 48.2956977,90.1593526 C48.2956977,90.1593526 49.5707514,92.6264493 52.8501062,93.48946 C54.529461,92.6245138 58.6094609,90.1120408 59.9617189,85.5989226 C54.2036546,84.7423635 51.0202138,81.7544066 49.6324719,80.0427937 C48.0855902,80.6634388 47.0458053,81.859998 46.3477408,83.1711807" id="path204" fill="#FEEAB4"></path>
                        <path d="M25.1221499,150.768168 C21.1459995,150.768168 18.1859135,150.614835 16.9179351,150.428813 C13.4357416,149.918061 21.6292468,126.658922 16.3044297,124.748814 C16.1303867,124.686233 15.9592469,124.656341 15.7899781,124.656341 C10.9719352,124.656341 8.15625786,149.144297 8.15625786,149.144297 C8.15625786,149.144297 6.5306665,145.746878 6.04451598,132.290534 C5.07275256,105.39118 32.4264508,97.2830083 32.4264508,97.2830083 C33.4247303,96.9726857 33.9180637,96.8860191 34.1060207,96.8619331 C34.899569,97.5232234 35.7286013,98.0718255 36.559569,98.5281696 C33.551182,99.5948362 25.0827951,102.736557 20.0023436,106.963223 C12.029075,113.404943 8.17516109,121.898061 8.54763419,132.206663 C8.55425785,132.394405 8.56133312,132.580642 8.56855893,132.764513 C10.4946234,125.344298 12.6703653,122.243438 15.7899781,122.243438 C16.2595695,122.243438 16.7268168,122.325588 17.1784297,122.487524 C22.0554833,124.237201 20.7898274,132.163223 19.4496769,140.55462 C19.0604941,142.992685 18.505806,146.465373 18.5180641,148.165803 C19.9534619,148.271609 22.2415048,148.355265 25.1221499,148.355265" id="path206" fill="#FFFFFF"></path>
                        <path d="M15.5909028,66.9311811 C15.5909028,66.9311811 -5.54503212,90.7421483 20.9091823,89.3516107 C20.9091823,89.3516107 4.59240849,89.2283849 15.5909028,66.9311811" id="path208" fill="#FFFFFF"></path>
                        <path d="M56.0748373,78.9082991 C56.2440102,78.8362991 56.4069175,78.7576324 56.5748373,78.6842991 C56.4069175,78.7576324 56.2440102,78.8362991 56.0748373,78.9082991" id="path210" fill="#D21C2D"></path>
                        <path d="M59.8805146,75.5030089 C59.8605146,75.5350089 59.837848,75.5656755 59.817848,75.5976755 C59.837848,75.5656755 59.8605146,75.5350089 59.8805146,75.5030089" id="path212" fill="#D21C2D"></path>
                        <path d="M55.4230094,79.1233529 C55.5899753,79.0513529 55.7578388,78.9820195 55.9230094,78.9060195 C55.7578388,78.9820195 55.5899753,79.0513529 55.4230094,79.1233529" id="path214" fill="#D21C2D"></path>
                        <path d="M57.1759125,78.5002991 C57.3447024,78.3709658 57.5092459,78.2362991 57.6759125,78.1042991 C57.5092459,78.2362991 57.3447024,78.3709658 57.1759125,78.5002991" id="path216" fill="#D21C2D"></path>
                        <path d="M56.6206437,78.6846002 C56.7860184,78.6006002 56.9565611,78.5206002 57.1206437,78.4352669 C56.9565611,78.5206002 56.7873104,78.6006002 56.6206437,78.6846002" id="path218" fill="#D21C2D"></path>
                        <path d="M57.7262351,77.8180196 C57.7382351,77.8086862 57.7489018,77.8020196 57.7595684,77.7926862 C57.7489018,77.8020196 57.7382351,77.8086862 57.7262351,77.8180196" id="path220" fill="#D21C2D"></path>
                        <path d="M59.4276544,76.4935465 C59.2983211,76.6482131 59.1623211,76.7975465 59.0303211,76.9508798 C59.1623211,76.7975465 59.2983211,76.6482131 59.4276544,76.4935465" id="path222" fill="#D21C2D"></path>
                        <path d="M113.922363,31.2253756 C113.922363,31.2253756 104.275696,31.6167734 99.3969868,35.0083862 C99.1408577,35.1864507 98.9920405,35.2866658 99.0318255,35.2952679 C99.1197825,35.3150529 99.8556964,35.5804292 100.075266,35.6344077 C110.771825,38.2694614 116.093976,43.0436548 116.093976,43.0436548 C103.962578,42.1045151 100.885159,52.5901062 100.854836,52.6815041 C96.4909653,64.7868801 90.9670945,73.1851595 88.6561268,75.9337615 C82.0864496,83.5651592 74.2268799,88.7172021 67.626665,92.0638687 C67.9698908,91.6709655 68.2204284,91.285159 68.3172026,90.9307504 C68.3172026,90.9307504 66.6804284,91.2544063 66.014622,90.704944 C66.014622,90.704944 68.6494606,89.0318257 68.963009,88.3464494 C68.963009,88.3464494 67.4847295,88.5058042 67.0896757,88.0597827 C67.0896757,88.0597827 69.1434391,87.2210731 69.482794,86.1178473 C69.482794,86.1178473 68.2604284,86.3163419 67.5247295,85.8670946 C67.5247295,85.8670946 69.7851595,84.7178473 70.1516111,83.7150517 C70.1516111,83.7150517 68.7273101,83.8225785 68.2597832,83.6150517 C68.2597832,83.6150517 70.0567724,83.0879549 70.6275251,81.6935463 C70.6275251,81.6935463 69.3242993,81.8283851 68.750966,81.5733313 C68.750966,81.5733313 70.7449445,80.6967722 71.1264498,79.604084 C71.1264498,79.604084 69.5051596,79.6815034 69.1696757,79.4806432 C69.1696757,79.4806432 71.0883853,78.4731163 71.2924713,77.5673099 C71.2924713,77.5673099 69.5154821,77.8365572 69.1765574,77.5384927 C69.1765574,77.5384927 71.3335466,76.4563422 71.3795681,75.6058046 C71.3795681,75.6058046 69.9116112,75.7933314 69.4002133,75.4425788 C69.4002133,75.4425788 71.0374176,74.4249444 71.1916111,73.775267 C71.1916111,73.775267 70.0045144,73.895267 69.3042993,73.5021487 C69.3042993,73.5021487 70.7842993,72.6559122 71.0075251,72.003224 C71.0075251,72.003224 69.4141918,72.1488154 69.0279553,71.9017186 C69.0279553,71.9017186 70.2075251,71.0967724 70.3483853,70.2905359 C70.3483853,70.2905359 69.1924714,70.6051595 68.6417187,70.2533316 C68.6417187,70.2533316 69.5952671,69.1688155 69.7092456,68.5169875 C69.7092456,68.5169875 68.5834391,68.958923 67.954837,68.7580628 C67.954837,68.7580628 68.614837,67.9634392 68.635052,67.0578478 C68.635052,67.0578478 67.3920413,67.3144069 67.1447295,67.166665 C67.1447295,67.166665 67.774837,66.2126865 67.6273101,65.522579 C67.6273101,65.522579 66.8995682,65.8578478 66.1933317,65.770751 C66.1933317,65.770751 66.6202134,65.0273102 66.4817188,64.122579 C66.4817188,64.122579 65.7079553,64.5204285 65.1847296,64.5204285 C65.1847296,64.5204285 65.3541919,63.8172027 65.2380629,62.8666651 C65.2380629,62.8666651 64.2860199,63.3701059 63.8718264,63.3195683 C63.8718264,63.3195683 63.96645,62.5245146 63.8189231,61.7791382 C63.8189231,61.7791382 63.3363425,62.2266651 62.8012888,62.474407 C62.8012888,62.4748371 62.8012888,62.4752673 62.8012888,62.4754823 C62.8086006,61.3354823 62.7651597,60.5759125 62.7565576,60.4382781 C62.5698909,54.7096761 63.4098909,48.7772031 63.4180629,48.7180633 C67.7322564,26.2281714 62.142149,23.5810747 62.3154823,23.4055908 C81.1086001,4.37978484 99.762148,6.70169876 113.537201,18.7027952 C113.819352,18.9485802 105.919137,16.3548383 97.5380621,22.3812898 C97.3670943,22.5043005 105.997417,25.2772037 113.922363,31.2253756" id="path224" fill="#D21C2D"></path>
                        <path d="M59.8936329,75.9670949 C59.7402996,76.1341139 59.5869663,76.3011329 59.4309663,76.4670949 C59.5869663,76.3011329 59.7402996,76.1341139 59.8936329,75.9670949" id="path226" fill="#D21C2D"></path>
                        <path d="M58.6359125,77.3574604 C58.7732458,77.2161271 58.9065792,77.0707938 59.0425792,76.9294604 C58.9065792,77.0707938 58.7732458,77.2161271 58.6359125,77.3574604" id="path228" fill="#D21C2D"></path>
                        <path d="M54.381289,97.5909223 C54.5375714,97.4829223 54.7037189,97.365589 54.881289,97.2389223 C54.7037189,97.365589 54.5375714,97.4829223 54.381289,97.5909223" id="path230" fill="#D21C2D"></path>
                        <path d="M53.7161277,97.5753094 C53.756634,97.5659761 53.9287859,97.5219761 54.2161277,97.4473094 C53.9287859,97.5219761 53.756634,97.5659761 53.7161277,97.5753094" id="path232" fill="#D21C2D"></path>
                        <path d="M54.5984933,97.2359115 C56.553762,96.6918255 61.5569877,95.141503 67.6251596,92.0647289 C61.554192,95.1427933 56.5516115,96.6929008 54.5984933,97.2359115" id="path234" fill="#D21C2D"></path>
                        <path d="M58.1572028,77.8604282 C58.3246557,77.6977615 58.4921085,77.5350948 58.6572028,77.3670948 C58.4921085,77.5350948 58.3246557,77.6977615 58.1572028,77.8604282" id="path236" fill="#D21C2D"></path>
                        <path d="M53.9120417,97.561589 C54.0615366,97.5109223 54.2271932,97.4549223 54.4120417,97.3922556 C54.2261831,97.4562556 54.0615366,97.5109223 53.9120417,97.561589" id="path238" fill="#D21C2D"></path>
                        <path d="M54.1954825,97.5884707 C54.3501409,97.5004707 54.5166005,97.4044707 54.6954825,97.2991374 C54.5166005,97.4031373 54.3501409,97.5004707 54.1954825,97.5884707" id="path240" fill="#D21C2D"></path>
                        <path d="M53.8189234,97.5425352 C53.9562567,97.5078685 54.1082567,97.4705352 54.2909234,97.4238685 C54.10959,97.4705352 53.9562567,97.5078685 53.8189234,97.5425352" id="path242" fill="#D21C2D"></path>
                        <path d="M54.0417191,97.5707502 C54.1953815,97.5040836 54.3609866,97.4307503 54.5417191,97.3507503 C54.3609866,97.4307503 54.1945853,97.5040836 54.0417191,97.5707502" id="path244" fill="#D21C2D"></path>
                        <path d="M60.5325576,74.9086003 C60.3965576,75.0768512 60.2605576,75.2422505 60.1232243,75.4086003 C60.2605576,75.2422505 60.3965576,75.0768512 60.5325576,74.9086003" id="path246" fill="#D21C2D"></path>
                        <path d="M62.6205576,66.7154822 C62.5925576,66.882453 62.5645576,67.0485114 62.5365576,67.2154822 C62.5645576,67.0485114 62.5925576,66.882453 62.6205576,66.7154822" id="path248" fill="#D21C2D"></path>
                        <path d="M62.6112673,66.1688156 C62.6112673,66.1808155 62.6099339,66.1914822 62.6086006,66.2021489 C62.6099339,66.1914822 62.6112673,66.1808155 62.6112673,66.1688156" id="path250" fill="#D21C2D"></path>
                        <path d="M62.7131597,65.5236543 C62.6958264,65.6903209 62.6771597,65.8559524 62.6584931,66.0236543 C62.6771597,65.8569876 62.6958264,65.6892857 62.7131597,65.5236543" id="path252" fill="#D21C2D"></path>
                        <path d="M62.5417619,67.3778478 C62.5137619,67.5445144 62.4830952,67.7111811 62.4537619,67.8778478 C62.4830952,67.7111811 62.5124285,67.5445144 62.5417619,67.3778478" id="path254" fill="#D21C2D"></path>
                        <path d="M62.7618049,64.4135468 C62.7551382,64.5402134 62.7458049,64.6695468 62.7391382,64.7962134 C62.7458049,64.6695468 62.7551382,64.5402134 62.7618049,64.4135468" id="path256" fill="#D21C2D"></path>
                        <path d="M62.7315683,64.9473102 C62.722235,65.0779769 62.7155683,65.2059769 62.706235,65.3379769 C62.7155683,65.2073102 62.722235,65.0779769 62.7315683,64.9473102" id="path258" fill="#D21C2D"></path>
                        <path d="M62.7831382,63.8580629 C62.7778049,64.0087296 62.7711382,64.1567296 62.7658049,64.3073962 C62.7711382,64.1567296 62.7778049,64.0087296 62.7831382,63.8580629" id="path260" fill="#D21C2D"></path>
                        <path d="M62.8006006,62.8959124 C62.7992672,62.9945791 62.7979339,63.0932457 62.7952672,63.1932457 C62.7979339,63.0932457 62.7992672,62.9945791 62.8006006,62.8959124" id="path262" fill="#D21C2D"></path>
                        <path d="M60.7483856,74.3249444 C60.6497189,74.4919898 60.5550522,74.6590353 60.4550523,74.8249444 C60.5550522,74.6590353 60.6497189,74.4919898 60.7483856,74.3249444" id="path264" fill="#D21C2D"></path>
                        <path d="M62.4555683,67.9819338 C62.426235,68.149719 62.3969017,68.3152671 62.366235,68.4819338 C62.3969017,68.3152671 62.426235,68.149719 62.4555683,67.9819338" id="path266" fill="#D21C2D"></path>
                        <path d="M61.3124716,72.5668799 C61.2911383,72.6282132 61.2684716,72.6868799 61.2458049,72.7468799 C61.2684716,72.6868799 61.2911383,72.6282132 61.3124716,72.5668799" id="path268" fill="#D21C2D"></path>
                        <path d="M61.31402,73.1212885 C61.2073533,73.2882348 61.1006866,73.4551811 60.9926866,73.6212885 C61.1006866,73.4551811 61.2073533,73.2882348 61.31402,73.1212885" id="path270" fill="#D21C2D"></path>
                        <path d="M61.0081275,73.7698906 C60.9147942,73.9383689 60.8174608,74.1024993 60.7227942,74.2698906 C60.8174608,74.1024993 60.9147942,73.9383689 61.0081275,73.7698906" id="path272" fill="#D21C2D"></path>
                        <path d="M61.7151382,71.8802133 C61.6271382,72.0474158 61.5364716,72.2138145 61.4458049,72.3802133 C61.5364716,72.2138145 61.6271382,72.0474158 61.7151382,71.8802133" id="path274" fill="#D21C2D"></path>
                        <path d="M61.8449877,71.223224 C61.782321,71.3898907 61.7209877,71.5575554 61.6569877,71.723224 C61.7209877,71.5575554 61.782321,71.3898907 61.8449877,71.223224" id="path276" fill="#D21C2D"></path>
                        <path d="M62.1761705,69.3399983 C62.1628372,69.4039983 62.1481705,69.4706649 62.1348372,69.5359983 C62.1481705,69.4706649 62.1615038,69.4039983 62.1761705,69.3399983" id="path278" fill="#D21C2D"></path>
                        <path d="M62.3976759,68.6344069 C62.3496759,68.8016095 62.2990092,68.9680082 62.2496759,69.1344069 C62.2990092,68.9680082 62.3496759,68.8008056 62.3976759,68.6344069" id="path280" fill="#D21C2D"></path>
                        <path d="M62.1773318,69.9195681 C62.1146651,70.0859719 62.0506651,70.2523757 61.9866651,70.4195681 C62.0506651,70.2523757 62.1146651,70.0859719 62.1773318,69.9195681" id="path282" fill="#D21C2D"></path>
                        <path d="M62.0025791,70.6141918 C61.9439124,70.7818274 61.8825791,70.9475251 61.8225791,71.1141918 C61.8825791,70.9475251 61.9452458,70.7808584 62.0025791,70.6141918" id="path284" fill="#D21C2D"></path>
                    </g>
                </g>
            </g>
        </g>
    </g>
</svg>