<?xml version="1.0" encoding="UTF-8"?>
<svg width="200px" height="200px" viewBox="0 0 200 200" version="1.1" xmlns="http://www.w3.org/2000/svg" xmlns:xlink="http://www.w3.org/1999/xlink">
    <!-- Generator: Sketch 54.1 (76490) - https://sketchapp.com -->
    <title>belmont-abbey</title>
    <desc>Created with Sketch.</desc>
    <g id="belmont-abbey" stroke="none" stroke-width="1" fill="none" fill-rule="evenodd">
        <g id="belmont-abbey_BGL" transform="translate(0.000000, 0.000000)">
            <g id="belmont-abbey" transform="translate(11.000000, 0.000000)">
                <g id="g10" transform="translate(88.888887, 99.965252) scale(-1, 1) rotate(-180.000000) translate(-88.888887, -99.965252) translate(0.000000, 0.468226)" fill-rule="nonzero">
                    <g id="g12">
                        <path d="M62.9963953,31.4665927 L94.68532,17.7937993 C94.68532,17.7937993 94.68532,17.7937993 94.6867832,17.7937993 C98.4976656,18.9863736 100.641241,21.9704796 100.641241,21.9704796 C75.5804279,24.375308 64.4696097,40.7624681 64.4696097,40.7624681 C71.4400348,36.0822305 79.610789,33.8808588 83.4304506,33.0535703 C77.7459514,36.9850197 68.7839763,50.3726371 61.2603185,58.2444613 C51.1539813,68.8197514 42.8980693,68.1613152 36.9956278,65.5787089 L36.9956278,64.1463907 C44.1892627,63.5865005 52.1942374,61.3026048 58.8697562,52.2519603 C58.8697562,52.2519603 48.8454309,59.1634919 36.9724362,58.059587 C36.983337,57.7720699 37.0107718,57.4199528 37.0610325,57.0199163 C37.6211422,52.5783252 41.3000447,41.5503236 62.9963953,31.4665927" id="path14" fill="#D41042"></path>
                        <path d="M36.9956278,134.867486 C38.4196058,135.280838 39.7530854,135.802466 40.9336615,136.434564 C52.6697746,142.705072 55.5252661,148.020847 61.6138256,151.952442 C61.6138256,151.952442 59.6030346,143.961222 62.3436656,135.719795 C63.5282654,138.256238 64.8874241,140.686599 66.4491616,142.961862 C70.7715757,149.26456 76.505165,154.461084 82.9622293,158.272698 C81.1954255,160.313119 75.3002267,165.902511 66.2748955,166.320983 C67.0587272,166.689708 67.8454853,167.004294 68.6331213,167.277911 C74.0543191,169.160307 79.4951969,168.856694 84.0632809,167.277911 C87.2267011,166.184907 89.9716484,164.482483 92.0025583,162.477179 C94.9882006,163.576768 97.9562847,164.317143 101.104341,164.900956 C100.690258,165.734244 100.226426,166.517783 99.7413784,167.277911 C96.3409212,172.603196 91.3097371,176.138999 86.0832169,177.951893 C82.9710084,179.031728 79.7951512,179.515313 76.8599889,179.386552 C76.8599889,179.386552 77.4928193,178.906626 78.2727004,177.951893 C78.7043419,177.424413 79.1798791,176.756466 79.621763,175.932689 C70.3586631,177.542199 62.2905517,176.018285 57.5514206,173.519154 C58.8025957,172.839502 60.0137525,172.08669 61.1739902,171.276082 C54.7096831,170.410604 49.7993586,169.011793 45.9739175,167.277911 C41.9649921,165.460627 39.1509821,163.273155 36.9956278,160.94156 C32.270836,155.828437 30.710708,150.02103 26.7038311,145.883124 C24.0346039,143.126471 20.2800544,141.109461 13.7725831,140.53589 C15.8776036,136.424322 21.0765427,134.309279 26.7038311,133.861542 C30.1814716,133.584267 33.8191853,133.946407 36.9956278,134.867486" id="path16" fill="#D41042"></path>
                        <path d="M138.552534,48.1412699 C140.726837,45.4695553 144.157289,39.4564233 145.581706,35.3894824 L145.582438,35.3894824 C147.587742,36.5732044 149.376494,37.7818006 150.964788,38.9983712 C147.908181,42.8677813 141.634016,47.4177217 138.552534,48.1412699" id="path18" fill="#D41042"></path>
                        <path d="M145.022767,120.651849 C145.487331,117.072151 147.098305,114.183811 149.602557,112.02414 C149.602557,112.02414 148.813165,106.305256 147.513851,100.811703 L154.768355,96.8515751 C150.941377,86.6063078 142.622402,68.039285 136.000728,58.0498568 C139.21097,56.7812697 149.454043,52.2870769 156.712205,44.2652755 C163.79771,52.1584623 163.828437,59.0449002 163.828437,59.0449002 L163.828437,72.0827417 L163.828437,167.277911 L111.029901,167.277911 C111.042338,165.478917 110.889435,163.751619 110.631182,162.144303 C135.380335,151.041606 143.037948,136.273613 145.022767,120.651849" id="path20" fill="#C6C5C5"></path>
                        <path d="M47.8003463,76.2542276 C53.5942191,82.5466829 56.5057508,91.2951052 57.7343195,96.0095083 C55.8627512,106.246728 55.9228152,116.908273 58.7174379,126.804569 C50.4684029,121.155187 42.9361123,120.820116 42.9361123,120.820116 C44.877987,123.262183 46.9218461,126.666298 48.8474793,130.61472 C45.8924909,127.96927 41.7972372,125.141652 36.9956278,123.339732 L36.9956278,75.080748 C40.5332592,76.0215802 44.1849463,76.3785989 47.8003463,76.2542276" id="path22" fill="#C6C5C5"></path>
                        <path d="M129.267852,114.10114 C129.407587,123.964515 126.743115,131.826974 122.374757,137.873613 C117.876174,144.099493 112.068767,148.906809 107.597985,151.732964 C112.457976,149.751802 118.862366,146.044807 124.278369,140.713668 C129.718515,135.365703 133.524276,129.180792 134.820664,118.917967 C135.004295,117.384542 135.264743,115.832096 135.737354,114.646911 C134.123453,114.037491 132.859256,113.719979 132.859256,113.719979 C132.859256,113.719979 130.886142,113.886783 129.267852,114.10114 Z M140.932415,112.851575 C140.932415,112.851575 139.51312,115.129032 138.835662,119.318881 C136.829626,148.455415 103.068676,157.954454 103.068676,157.954454 C79.1732948,154.191857 56.3654307,133.405026 64.1826779,95.4176474 C64.1826779,95.4176474 62.345714,81.668768 56.5898111,73.6497467 C57.7654855,72.9692163 58.938892,72.1559013 60.1208581,71.229701 C65.8573738,78.4980319 68.8671588,95.2230429 68.8671588,95.2230429 C68.0292621,99.1531754 67.497392,102.881387 67.249381,106.439869 C67.1321794,107.306079 67.0724812,108.162777 67.1015987,108.991675 C67.1036472,109.054593 67.1138895,109.115315 67.117328,109.178232 C66.8318593,119.741744 69.2941181,128.692086 74.6242322,136.418469 C83.2395041,148.926562 97.4953794,152.281661 97.4953794,152.281661 C97.4953794,152.281661 84.1079083,146.017738 77.3728376,131.312662 C75.1765871,126.524368 74.003839,121.882393 73.3914934,117.10873 C74.1018729,117.308456 74.8385898,117.433559 75.5950598,117.465018 C77.8995865,117.560125 80.3577483,116.880473 82.6015526,115.443619 C87.9261066,112.028529 107.46703,97.4529468 131.388017,93.2155441 C131.388017,93.2155441 135.340829,93.9310447 139.42167,95.7212596 C140.391766,97.5378119 140.993138,100.633194 140.993138,100.633194 C140.993138,100.633194 136.91376,98.6044786 132.473705,97.6746203 C120.10242,99.8547757 106.946134,106.05066 101.383079,109.025329 C101.383079,109.025329 98.3725627,112.428712 96.3533584,117.886417 C96.3533584,117.886417 112.752809,111.277912 133.207496,109.465018 C133.207496,109.465018 139.667486,111.103792 140.932415,112.851575 L140.932415,112.851575 Z" id="path24" fill="#C6C5C5"></path>
                        <path d="M66.6275246,65.033158 C66.8538804,64.7828059 67.0784803,64.542184 67.3071039,64.2832723 C75.0053936,55.5698203 82.0623665,47.2405292 86.5141268,42.9732774 C91.8240489,37.8761033 99.7999061,33.6394322 106.70617,31.7738629 C112.020482,30.3472512 117.122631,30.1402827 121.650477,30.6435475 C112.752078,31.2019745 101.185548,36.9515857 96.8830337,42.9184077 C118.851392,31.9692722 129.864103,36.5249191 134.609233,41.0359386 C132.899494,44.3398251 130.679101,47.5265832 128.347505,48.9334418 C126.604844,47.4828337 124.535159,45.5910002 124.535159,45.5910002 C104.802558,51.0339265 90.0952881,61.9769898 90.0952881,61.9769898 C82.5657044,70.8541729 76.7787818,82.1377209 73.5356177,89.1910357 C72.232792,82.7017812 69.826793,74.5203456 64.5410135,67.2542096 C65.2271772,66.5591936 65.9242416,65.8107711 66.6275246,65.033158" id="path26" fill="#C6C5C5"></path>
                        <path d="M121.944579,60.0500397 C120.439686,60.6427054 118.758479,61.1622847 117.137994,61.8484484 C120.184359,65.8839307 124.386645,72.4960201 129.123728,82.0250551 C130.971739,81.5795133 132.585639,81.3454026 134.364148,81.0842229 C129.432461,71.0745295 125.072151,64.1792394 121.944579,60.0500397 Z M109.767898,65.1480185 C112.702329,69.0714935 116.598808,75.1612235 121.052032,84.0069481 C122.779329,83.4794675 124.409325,83.0624579 126.067121,82.6710542 C121.428804,73.3907618 117.352352,67.0273417 114.349883,63.0547035 C112.812069,63.7314296 111.280107,64.4324447 109.767898,65.1480185 L109.767898,65.1480185 Z M102.718973,68.8380413 C105.542201,72.697209 109.060445,78.2997694 113.205667,86.4914473 C114.865658,85.8864176 116.504432,85.3713742 118.08029,84.8570624 C113.730221,76.2359377 109.95665,70.3354715 107.066847,66.4515027 C105.518059,67.2247994 104.071694,68.014996 102.718973,68.8380413 L102.718973,68.8380413 Z M74.2306337,106.799814 C74.2306337,108.213989 75.3463173,109.358205 76.7173278,109.358205 C78.0890698,109.358205 79.201827,108.213989 79.201827,106.799814 C79.201827,105.384908 78.0890698,104.238498 76.7173278,104.238498 C75.3463173,104.238498 74.2306337,105.384908 74.2306337,106.799814 L74.2306337,106.799814 Z M131.337537,87.5376293 C123.055873,88.8925446 101.872517,94.4972999 79.8185622,110.436577 C78.9252838,111.081113 78.0890698,111.46008 77.3223575,111.631273 C76.890716,111.727844 76.4817539,111.758571 76.0969345,111.73516 C75.8401444,111.719064 75.5943282,111.678095 75.3602176,111.616641 C75.2431623,111.585914 75.1290333,111.550066 75.0170992,111.509096 C74.7390928,111.406673 74.4793763,111.273523 74.2394129,111.11623 C73.518791,110.642887 72.9772638,109.949334 72.6489237,109.200912 C72.4448084,108.725375 72.3465551,108.226426 72.3413608,107.679924 C72.3259241,106.039686 73.1472867,103.971465 74.4501125,100.849746 C74.7844517,100.044991 75.3360749,98.7632348 76.0779131,97.1347026 C79.2910817,90.0821194 86.0707797,76.5527187 94.2361202,67.3537066 L94.2361202,67.3528287 C94.2361202,67.3528287 106.695196,58.3724905 123.736988,53.3407943 C123.736988,53.3407943 126.100774,55.0651655 130.047002,60.6178311 C128.837674,60.2286222 127.076723,59.7136519 125.103609,59.308421 C128.417006,64.0586724 132.120344,70.3414706 137.248099,81.1661617 C139.149516,81.8706884 141.336256,82.9673505 142.7636,83.7208941 C144.131684,86.7548218 145.545858,90.0572451 147.001734,93.688155 C147.001734,93.688155 140.797802,89.9445794 131.337537,87.5376293 L131.337537,87.5376293 Z" id="path28" fill="#C6C5C5"></path>
                        <path d="M174.135158,58.0170082 L174.135158,58.0170082 C174.144669,53.1813064 172.735615,48.6871136 170.394509,44.5930304 C164.410055,34.1283576 152.335067,26.2717506 142.278552,21.9573108 L100.424689,3.89346492 L58.5411234,21.9573108 C44.5598891,27.9586641 26.6738356,40.820191 26.7038311,58.0170082 L26.7038311,121.466847 C25.5578594,121.482942 24.394988,121.572196 23.216753,121.755095 C4.35013432,124.68221 -0.465249554,143.092818 4.30469491,152.258981 C6.7106793,145.921899 15.0626059,149.03557 19.7753996,152.858158 C23.336442,155.746498 24.9940186,158.836759 26.7038311,161.595606 L26.7038311,177.951893 L44.9545851,177.951893 C50.0437116,180.377865 55.1437389,181.64572 58.4747676,181.92519 C55.4775661,182.845537 51.6598067,183.274984 51.6598067,183.274984 C62.8840954,190.307814 76.4224947,190.352442 85.5440308,189.071417 C84.6192937,190.533146 83.2014611,191.760763 83.2014611,191.760763 C87.3657043,191.087695 90.9256493,189.962501 93.986646,188.524184 C93.7254663,189.947869 93.3860059,191.244257 93.0494718,192.337992 C101.470871,188.297389 106.19698,183.182803 108.669042,177.951893 L174.138084,177.951893 L174.135158,58.0170082 Z M111.35034,181.515496 L110.916504,182.132231 C106.702512,188.136438 102.299769,193.411243 88.9576567,198.367073 L89.7558277,193.956282 L87.3313193,194.481568 C81.6446253,195.71577 77.2279816,196.02304 74.2320969,196.017188 L73.243711,196.004019 L76.7817082,193.120068 L73.0087225,192.934243 C65.1045617,192.545034 58.8717315,190.683854 53.8202821,188.461998 C48.6896741,186.205025 46.1977126,183.576401 42.9952253,181.711564 L42.6568622,181.515496 L23.1335705,181.515496 L23.1335705,160.485776 L22.8009139,160.083398 C19.8168079,156.472973 15.9250842,152.788656 12.4911199,152.025602 C8.78712369,151.202557 6.43690153,152.592589 4.29612792,157.939091 C-3.90403648,145.608776 1.12997162,132.963874 6.99502863,126.649471 C10.9745219,122.358662 16.29315,119.620299 21.9641878,118.500226 L23.1335705,118.269773 L23.1335705,58.0170082 C23.137009,39.3523904 40.8539176,25.705276 57.1341915,18.6894188 L100.412983,0 L143.698579,18.6900041 C159.857335,25.6518695 177.439776,39.1535427 177.687055,57.6754992 L177.687055,181.515496 L111.35034,181.515496 L111.35034,181.515496 Z" id="path30" fill="#FFFFFF"></path>
                        <path d="M134.820664,118.917967 C133.524276,129.180792 129.718515,135.365703 124.278369,140.713668 C118.862366,146.044807 112.457976,149.751802 107.597985,151.732964 C112.068767,148.906809 117.876174,144.099493 122.374757,137.873613 C126.743115,131.826974 129.407587,123.964515 129.267852,114.10114 C130.886142,113.886783 132.859256,113.719979 132.859256,113.719979 C132.859256,113.719979 134.123453,114.037491 135.737354,114.646911 C135.264743,115.832096 135.004295,117.384542 134.820664,118.917967" id="path32" fill="#FFFFFF"></path>
                        <path d="M60.1208581,71.229701 C60.596688,70.856514 61.0745664,70.4658419 61.5537616,70.0517587 C62.5379774,69.2032539 63.5311187,68.2776389 64.5405014,67.2542096 L64.5410135,67.2542096 C69.826793,74.5203456 72.232792,82.7017812 73.5356177,89.1910357 C72.0570627,92.4056676 71.1067929,94.7423845 70.7619187,95.5690877 C69.6141912,98.3191562 67.7838117,102.484863 67.249381,106.439869 C67.497392,102.881387 68.0292621,99.1531754 68.8671588,95.2230429 C68.8671588,95.2230429 65.8573738,78.4980319 60.1208581,71.229701" id="path34" fill="#FFFFFF"></path>
                        <path d="M97.4953794,152.281661 C97.4953794,152.281661 83.2395041,148.926562 74.6242322,136.418469 C69.2941181,128.692086 66.8318593,119.741744 67.117328,109.178232 C67.1907802,110.64435 67.5259974,112.023408 68.2547399,113.212251 C69.4981601,115.240966 71.3205652,116.527843 73.3914934,117.10873 L73.3914934,117.10873 C74.003839,121.882393 75.1765871,126.524368 77.3728376,131.312662 C84.1079083,146.017738 97.4953794,152.281661 97.4953794,152.281661" id="path36" fill="#FFFFFF"></path>
                        <path d="M163.828437,167.277911 L163.828437,59.0449002 C163.828437,59.0449002 163.79771,52.1584623 156.712205,44.2652755 C149.454043,52.2870769 139.21097,56.7812697 136.000728,58.0498568 C142.622402,68.039285 150.941377,86.6063078 154.768355,96.8515751 L147.513851,100.811703 C148.813165,106.305256 149.602557,112.02414 149.602557,112.02414 C147.098305,114.183811 145.487331,117.072151 145.022767,120.651849 C143.037948,136.273613 135.380335,151.041606 110.631182,162.144303 C110.889435,163.751619 111.042338,165.478917 111.029901,167.277911 L163.828437,167.277911 Z M48.8474793,130.61472 C46.9218461,126.666298 44.877987,123.262183 42.9361123,120.820116 C42.9361123,120.820116 50.4684029,121.155187 58.7174379,126.804569 C55.9228152,116.908273 55.8627512,106.246728 57.7343195,96.0095083 C56.5057508,91.2951052 53.5942191,82.5466829 47.8003463,76.2542276 C44.1849463,76.3785989 40.5332592,76.0215802 36.9956278,75.080748 L36.9956278,123.339732 C41.7972372,125.141652 45.8924909,127.96927 48.8474793,130.61472 L48.8474793,130.61472 Z M145.582438,35.3894824 L145.581706,35.3894824 C144.157289,39.4564233 140.726837,45.4695553 138.552534,48.1412699 C141.634016,47.4177217 147.908181,42.8677813 150.964788,38.9983712 C149.376494,37.7818006 147.587742,36.5732044 145.582438,35.3894824 L145.582438,35.3894824 Z M58.8697562,52.2519603 C52.1942374,61.3026048 44.1892627,63.5865005 36.9956278,64.1463907 L36.9956278,65.5787089 C42.8980693,68.1613152 51.1539813,68.8197514 61.2603185,58.2444613 C68.7839763,50.3726371 77.7459514,36.9850197 83.4304506,33.0535703 C79.610789,33.8808588 71.4400348,36.0822305 64.4696097,40.7624681 C64.4696097,40.7624681 75.5804279,24.375308 100.641241,21.9704796 C100.641241,21.9704796 98.4976656,18.9863736 94.6867832,17.7937993 C94.68532,17.7937993 94.68532,17.7937993 94.68532,17.7937993 L62.9963953,31.4665927 C41.3000447,41.5503236 37.6211422,52.5783252 37.0610325,57.0199163 C37.0107718,57.4199528 36.983337,57.7720699 36.9724362,58.059587 C48.8454309,59.1634919 58.8697562,52.2519603 58.8697562,52.2519603 Z M142.7636,83.7208941 C141.336256,82.9673505 139.149516,81.8706884 137.248099,81.1661617 C132.120344,70.3414706 128.417006,64.0586724 125.103609,59.308421 C127.076723,59.7136519 128.837674,60.2286222 130.047002,60.6178311 C126.100774,55.0651655 123.736988,53.3407943 123.736988,53.3407943 C106.695196,58.3724905 94.2361202,67.3528287 94.2361202,67.3528287 L94.2361202,67.3537066 C86.0707797,76.5527187 79.2910817,90.0821194 76.0779131,97.1347026 C75.3360749,98.7632348 74.7844517,100.044991 74.4501125,100.849746 C73.1472867,103.971465 72.3259241,106.039686 72.3413608,107.679924 C72.3465551,108.226426 72.4448084,108.725375 72.6489237,109.200912 C72.9772638,109.949334 73.518791,110.642887 74.2394129,111.11623 C74.4793763,111.273523 74.7390928,111.406673 75.0170992,111.509096 C75.1290333,111.550066 75.2431623,111.585914 75.3602176,111.616641 C75.5943282,111.678095 75.8401444,111.719064 76.0969345,111.73516 C76.4817539,111.758571 76.890716,111.727844 77.3223575,111.631273 C78.0890698,111.46008 78.9252838,111.081113 79.8185622,110.436577 C101.872517,94.4972999 123.055873,88.8925446 131.337537,87.5376293 C140.797802,89.9445794 147.001734,93.688155 147.001734,93.688155 C145.545858,90.0572451 144.131684,86.7548218 142.7636,83.7208941 L142.7636,83.7208941 Z M101.383079,109.025329 C106.946134,106.05066 120.10242,99.8547757 132.473705,97.6746203 C136.91376,98.6044786 140.993138,100.633194 140.993138,100.633194 C140.993138,100.633194 140.391766,97.5378119 139.42167,95.7212596 C135.340829,93.9310447 131.388017,93.2155441 131.388017,93.2155441 C107.46703,97.4529468 87.9261066,112.028529 82.6015526,115.443619 C80.3577483,116.880473 77.8995865,117.560125 75.5950598,117.465018 C74.8385898,117.433559 74.1018729,117.308456 73.3914934,117.10873 L73.3914934,117.10873 C71.3205652,116.527843 69.4981601,115.240966 68.2547399,113.212251 C67.5259974,112.023408 67.1907802,110.64435 67.117328,109.178232 C67.1138895,109.115315 67.1036472,109.054593 67.1015987,108.991675 C67.0724812,108.162777 67.1321794,107.306079 67.249381,106.439869 C67.7838117,102.484863 69.6141912,98.3191562 70.7619187,95.5690877 C71.1067929,94.7423845 72.0570627,92.4056676 73.5356177,89.1910357 C76.7787818,82.1377209 82.5657044,70.8541729 90.0952881,61.9769898 C90.0952881,61.9769898 104.802558,51.0339265 124.535159,45.5910002 C124.535159,45.5910002 126.604844,47.4828337 128.347505,48.9334418 C130.679101,47.5265832 132.899494,44.3398251 134.609233,41.0359386 C129.864103,36.5249191 118.851392,31.9692722 96.8830337,42.9184077 C101.185548,36.9515857 112.752078,31.2019745 121.650477,30.6435475 C117.122631,30.1402827 112.020482,30.3472512 106.70617,31.7738629 C99.7999061,33.6394322 91.8240489,37.8761033 86.5141268,42.9732774 C82.0623665,47.2405292 75.0053936,55.5698203 67.3071039,64.2832723 C67.0784803,64.542184 66.8538804,64.7828059 66.6275246,65.033158 C65.9242416,65.8107711 65.2271772,66.5591936 64.5410135,67.2542096 L64.5405014,67.2542096 C63.5311187,68.2776389 62.5379774,69.2032539 61.5537616,70.0517587 C61.0745664,70.4658419 60.596688,70.856514 60.1208581,71.229701 C58.938892,72.1559013 57.7654855,72.9692163 56.5898111,73.6497467 C62.345714,81.668768 64.1826779,95.4176474 64.1826779,95.4176474 C56.3654307,133.405026 79.1732948,154.191857 103.068676,157.954454 C103.068676,157.954454 136.829626,148.455415 138.835662,119.318881 C139.51312,115.129032 140.932415,112.851575 140.932415,112.851575 C139.667486,111.103792 133.207496,109.465018 133.207496,109.465018 C112.752809,111.277912 96.3533584,117.886417 96.3533584,117.886417 C98.3725627,112.428712 101.383079,109.025329 101.383079,109.025329 L101.383079,109.025329 Z M13.7725831,140.53589 C20.2800544,141.109461 24.0346039,143.126471 26.7038311,145.883124 C30.710708,150.02103 32.270836,155.828437 36.9956278,160.94156 C39.1509821,163.273155 41.9649921,165.460627 45.9739175,167.277911 C49.7993586,169.011793 54.7096831,170.410604 61.1739902,171.276082 C60.0137525,172.08669 58.8025957,172.839502 57.5514206,173.519154 C62.2905517,176.018285 70.3586631,177.542199 79.621763,175.932689 C79.1798791,176.756466 78.7043419,177.424413 78.2727004,177.951893 C77.4928193,178.906626 76.8599889,179.386552 76.8599889,179.386552 C79.7951512,179.515313 82.9710084,179.031728 86.0832169,177.951893 C91.3097371,176.138999 96.3409212,172.603196 99.7413784,167.277911 C100.226426,166.517783 100.690258,165.734244 101.104341,164.900956 C97.9562847,164.317143 94.9882006,163.576768 92.0025583,162.477179 C89.9716484,164.482483 87.2267011,166.184907 84.0632809,167.277911 C79.4951969,168.856694 74.0543191,169.160307 68.6331213,167.277911 C67.8454853,167.004294 67.0587272,166.689708 66.2748955,166.320983 C75.3002267,165.902511 81.1954255,160.313119 82.9622293,158.272698 C76.505165,154.461084 70.7715757,149.26456 66.4491616,142.961862 C64.8874241,140.686599 63.5282654,138.256238 62.3436656,135.719795 C59.6030346,143.961222 61.6138256,151.952442 61.6138256,151.952442 C55.5252661,148.020847 52.6697746,142.705072 40.9336615,136.434564 C39.7530854,135.802466 38.4196058,135.280838 36.9956278,134.867486 C33.8191853,133.946407 30.1814716,133.584267 26.7038311,133.861542 C21.0765427,134.309279 15.8776036,136.424322 13.7725831,140.53589 L13.7725831,140.53589 Z M93.0494718,192.337992 C93.3860059,191.244257 93.7254663,189.947869 93.986646,188.524184 C90.9256493,189.962501 87.3657043,191.087695 83.2014611,191.760763 C83.2014611,191.760763 84.6192937,190.533146 85.5440308,189.071417 C76.4224947,190.352442 62.8840954,190.307814 51.6598067,183.274984 C51.6598067,183.274984 55.4775661,182.845537 58.4747676,181.92519 C55.1437389,181.64572 50.0437116,180.377865 44.9545851,177.951893 L26.7038311,177.951893 L26.7038311,161.595606 C24.9940186,158.836759 23.336442,155.746498 19.7753996,152.858158 C15.0626059,149.03557 6.7106793,145.921899 4.30469491,152.258981 C-0.465249554,143.092818 4.35013432,124.68221 23.216753,121.755095 C24.394988,121.572196 25.5578594,121.482942 26.7038311,121.466847 L26.7038311,58.0170082 C26.6738356,40.820191 44.5598891,27.9586641 58.5411234,21.9573108 L100.424689,3.89346492 L142.278552,21.9573108 C152.335067,26.2717506 164.410055,34.1283576 170.394509,44.5930304 C172.735615,48.6871136 174.144669,53.1813064 174.135158,58.0170082 L174.135158,58.0170082 L174.138084,177.951893 L108.669042,177.951893 C106.19698,183.182803 101.470871,188.297389 93.0494718,192.337992 L93.0494718,192.337992 Z" id="path38" fill="#231F20"></path>
                        <polyline id="path40" fill="#231F20" points="150.86456 17.3248464 153.249562 17.3248464 153.249562 11.1151346 154.95857 11.1151346 154.95857 17.3248464 157.329671 17.3248464 157.329671 18.9060443 150.86456 18.9060443 150.86456 17.3248464"></polyline>
                        <polyline id="path42" fill="#231F20" points="162.540097 15.6144486 160.48797 18.9060443 158.660444 18.9060443 158.660444 11.1159394 160.324825 11.1159394 160.324825 16.174851 162.514491 12.8738177 162.554728 12.8738177 164.764879 16.20053 164.764879 11.1159394 166.435844 11.1159394 166.435844 18.9060443 164.598075 18.9060443 162.540097 15.6144486"></polyline>
                        <path d="M117.137994,61.8484484 C118.758479,61.1622847 120.439686,60.6427054 121.944579,60.0500397 C125.072151,64.1792394 129.432461,71.0745295 134.364148,81.0842229 C132.585639,81.3454026 130.971739,81.5795133 129.123728,82.0250551 C124.386645,72.4960201 120.184359,65.8839307 117.137994,61.8484484" id="path44" fill="#231F20"></path>
                        <path d="M121.052032,84.0069481 C116.598808,75.1612235 112.702329,69.0714935 109.767898,65.1480185 C111.280107,64.4324447 112.812069,63.7314296 114.349883,63.0547035 C117.352352,67.0273417 121.428804,73.3907618 126.067121,82.6710542 C124.409325,83.0624579 122.779329,83.4794675 121.052032,84.0069481" id="path46" fill="#231F20"></path>
                        <path d="M113.205667,86.4914473 C109.060445,78.2997694 105.542201,72.697209 102.718973,68.8380413 C104.071694,68.014996 105.518059,67.2247994 107.066847,66.4515027 C109.95665,70.3354715 113.730221,76.2359377 118.08029,84.8570624 C116.504432,85.3713742 114.865658,85.8864176 113.205667,86.4914473" id="path48" fill="#231F20"></path>
                        <path d="M79.201827,106.799814 C79.201827,108.213989 78.0890698,109.358205 76.7173278,109.358205 C75.3463173,109.358205 74.2306337,108.213989 74.2306337,106.799814 C74.2306337,105.384908 75.3463173,104.238498 76.7173278,104.238498 C78.0890698,104.238498 79.201827,105.384908 79.201827,106.799814" id="path50" fill="#231F20"></path>
                    </g>
                </g>
            </g>
        </g>
    </g>
</svg>