<?xml version="1.0" encoding="UTF-8"?>
<svg width="200px" height="200px" viewBox="0 0 200 200" version="1.1" xmlns="http://www.w3.org/2000/svg" xmlns:xlink="http://www.w3.org/1999/xlink">
    <!-- Generator: Sketch 54.1 (76490) - https://sketchapp.com -->
    <title>bethany-lutheran</title>
    <desc>Created with Sketch.</desc>
    <g id="bethany-lutheran" stroke="none" stroke-width="1" fill="none" fill-rule="evenodd">
        <g id="bethany-lutheran_BGL">
            <g id="bethany-lutheran" transform="translate(0.000000, 4.000000)">
                <path d="M42.7254098,0 C46.4754098,7.70360934 51.6393443,14.9154989 58.0737705,20.6112527 C64.6516393,26.4914013 72.5409836,30.8144374 81.0040984,33.3345011 C81.2295082,33.4164544 81.5163934,33.2320594 81.7213115,33.1501062 C85,31.5315287 88.4221311,30.1792994 91.8852459,29.011465 C91.8237705,22.2093418 92.8688525,15.1613588 95.5122951,8.85095541 C96.1680328,7.43726115 96.8442623,5.79819533 97.9713115,4.71231423 C99.2418033,9.1992569 100.758197,13.522293 103.196721,17.5380042 C104.672131,19.9556263 106.434426,22.1683652 108.504098,24.0942675 C108.934426,24.4630573 109.344262,24.9547771 109.856557,25.2211253 C110.327869,25.1596603 110.778689,24.7703822 111.188525,24.5654989 C116.659836,21.4307856 122.356557,18.6443737 128.29918,16.5340764 C134.959016,20.508811 141.393443,24.9547771 147.377049,29.8924628 C147.991803,30.3841826 148.442623,30.8963907 149.180328,31.1832272 C164.159836,37.3707006 177.172131,48.1065817 186.147541,61.6083864 C192.315574,70.8281316 196.557377,81.3386412 198.545082,92.2589172 C200.327869,102.011359 200.348361,112.071125 198.586066,121.823567 C196.454918,133.747771 191.618852,145.180255 184.54918,155.035138 C179.282787,162.369958 172.827869,168.844268 165.491803,174.089278 C165,174.43758 164.508197,174.683439 164.180328,175.216136 C161.065574,179.989915 156.92623,184.08758 152.151639,187.181316 C147.766393,190.008705 142.72541,192.13949 137.561475,192.938535 C138.913934,190.828238 139.959016,188.554034 140.696721,186.1569 C132.602459,188.492569 124.180328,189.57845 115.778689,189.394055 C101.577869,189.107219 87.5,185.050531 75.3483607,177.715711 C67.4180328,172.96242 60.307377,166.836412 54.3852459,159.726964 C46.8852459,150.712102 41.3319672,140.099151 38.2786885,128.769108 C38.1557377,128.236412 37.9918033,127.703715 37.807377,127.191507 C33.5245902,127.130042 29.057377,127.273461 24.8565574,128.195435 C27.7663934,124.753397 31.4754098,122.007962 35.7786885,120.532803 C30.307377,118.012739 24.7745902,115.881953 18.852459,114.673142 C13.9959016,113.669214 8.93442623,113.402866 4.05737705,114.386306 C2.74590164,114.611677 1.47540984,115.041932 0.163934426,115.349257 C1.2704918,112.788217 3.60655738,110.698408 5.84016393,109.141295 C9.07786885,106.88758 12.8278689,105.28949 16.5983607,104.162633 C22.7868852,102.298195 29.1188525,101.663057 35.5532787,101.478662 C36.0860656,94.6970276 37.3155738,87.9973461 39.4672131,81.5435244 C42.8483607,71.1764331 48.3401639,61.5264331 55.4918033,53.2901274 C55.6352459,53.1057325 55.7786885,52.9213376 55.942623,52.7369427 C47.807377,42.6976645 42.6229508,30.281741 41.0860656,17.456051 C40.6352459,14.0345011 40.6557377,10.5924628 40.9631148,7.17091295 C41.2090164,5.12208068 41.4754098,2.97080679 42.1311475,1.00392781 C42.2745902,0.655626327 42.3770492,0.143418259 42.7254098,0 Z" id="Shape" fill="#231F20" fill-rule="nonzero"></path>
                <path d="M51.6598361,24.0123142 C52.0901639,24.4630573 52.4590164,24.9342887 52.8688525,25.4055202 C57.0696721,30.281741 62.397541,34.2564756 68.0532787,37.268259 C76.4139344,41.7142251 85.4918033,44.1933121 94.8565574,45.3611465 C97.3155738,45.6070064 99.7336066,46.0167728 102.04918,46.9592357 C104.54918,47.9631635 106.741803,49.581741 108.114754,51.9378981 C109.528689,54.3350318 110.163934,57.4492569 109.815574,60.2151805 C105.122951,61.1781316 99.9795082,60.6454352 95.307377,59.8463907 C93.5245902,59.4776008 91.7827869,58.9039278 90.0614754,58.3302548 C82.0081967,55.4823779 74.4877049,51.1183652 67.9918033,45.5660297 C62.3360656,40.7102972 57.4795082,34.8916136 53.8114754,28.3968153 C53.1967213,27.3519108 52.6639344,26.2455414 52.0696721,25.1801486 L51.9672131,25.712845 C51.8647541,25.0981953 51.7213115,24.5654989 51.6598361,24.0123142 Z" id="Shape" fill="#FFFFFF" fill-rule="nonzero"></path>
                <path d="M130.860656,24.7498938 L131.004098,24.8523355 C131.127049,25.0981953 131.25,25.3030786 131.47541,25.4669851 C134.795082,28.1304671 137.930328,31.0602972 140.942623,34.0515924 C147.315574,40.4849257 153.278689,47.7173036 157.643443,55.6667728 C160.532787,60.9732484 162.868852,66.914862 163.565574,72.9589172 C153.360656,71.5247346 143.094262,70.7461783 132.807377,70.8076433 C132.008197,69.3734607 131.147541,67.9597665 130.409836,66.5050955 C128.422131,62.6942675 126.803279,58.6580679 125.614754,54.5194268 C124.057377,49.0900212 123.114754,43.0869427 123.97541,37.4731423 C124.405738,34.5023355 125.245902,31.5110403 126.639344,28.8475584 C127.090164,27.9870488 127.684426,27.2084926 128.155738,26.3684713 C128.954918,25.7333333 129.877049,25.1801486 130.860656,24.7498938 Z" id="Shape" fill="#BCBDC1" fill-rule="nonzero"></path>
                <path d="M131.004098,24.8523355 C139.713115,30.793949 147.663934,37.8624204 154.692623,45.709448 C162.192623,54.1506369 168.729508,63.8621019 172.684426,74.4750531 C169.651639,73.90138 166.618852,73.4096603 163.565574,72.9794055 C162.868852,66.9353503 160.532787,60.9937367 157.643443,55.6872611 C153.278689,47.7377919 147.315574,40.505414 140.942623,34.0720807 C137.909836,31.0807856 134.795082,28.1509554 131.47541,25.4874735 C131.25,25.3030786 131.127049,25.0981953 131.004098,24.8523355 Z" id="Shape" fill="#FFFFFF" fill-rule="nonzero"></path>
                <path d="M52.0901639,25.1186837 C52.6844262,26.1840764 53.2172131,27.2904459 53.8319672,28.3353503 C57.5204918,34.8301486 62.3565574,40.6488323 68.0122951,45.5045648 C74.4877049,51.0569002 82.0286885,55.420913 90.0819672,58.2687898 C91.8032787,58.8629512 93.545082,59.4161359 95.3278689,59.7849257 C96.8237705,61.0552017 99.1803279,61.7518047 100.512295,63.4113588 C101.086066,64.1284501 101.127049,64.9889597 100.655738,65.7675159 C100.081967,66.7919321 98.852459,67.0582803 97.7663934,67.1812102 C94.0778689,67.5704883 90.4508197,66.3821656 87.1106557,64.9274947 C82.3360656,62.8581741 77.8688525,60.2151805 73.852459,56.8755839 C69.2827869,53.2286624 65.0819672,49.2539278 61.5163934,44.6440552 C57.1516393,39.0507431 53.7295082,32.5354565 52.0081967,25.6308917 L52.0901639,25.1186837 Z" id="Shape" fill="#BCBDC1" fill-rule="nonzero"></path>
                <path d="M128.114754,26.3889597 C127.643443,27.2289809 127.04918,28.0075372 126.598361,28.8680467 C125.204918,31.5315287 124.364754,34.5228238 123.934426,37.4936306 C123.094262,43.107431 124.036885,49.1105096 125.57377,54.5399151 C126.782787,58.6785563 128.381148,62.6942675 130.368852,66.5255839 C131.106557,68.0007431 131.967213,69.393949 132.766393,70.8281316 C128.29918,70.9100849 123.811475,71.1149682 119.344262,71.5861996 C120.163934,70.3159236 120.881148,68.9841826 121.434426,67.5704883 C123.053279,63.2884289 123.135246,58.535138 121.844262,54.1506369 C120.819672,50.7085987 118.913934,47.5738854 116.352459,45.0333333 C117.315574,41.4683652 118.790984,37.9853503 120.635246,34.789172 C122.540984,31.613482 125.040984,28.4787686 128.114754,26.3889597 Z" id="Shape" fill="#818286" fill-rule="nonzero"></path>
                <path d="M103.627049,41.89862 C105.901639,42.2264331 108.094262,42.8615711 110.081967,43.9884289 C113.340164,45.7914013 115.942623,48.7007431 117.397541,52.122293 C118.709016,55.1750531 119.118852,58.5761146 118.504098,61.833758 C117.581967,67.3451168 113.75,72.2008493 108.586066,74.3521231 C105.409836,75.7453291 101.864754,76.0321656 98.4631148,75.356051 C95.6352459,74.7823779 92.8278689,73.4301486 90.7991803,71.360828 C92.7663934,71.8320594 94.6721311,72.2623142 96.7213115,72.2418259 C99.4877049,72.3442675 102.192623,72.1393843 104.815574,71.2378981 C107.971311,70.1315287 110.655738,67.6524416 112.418033,64.8455414 C113.770492,62.6737792 114.651639,60.1127389 114.754098,57.5516985 C114.795082,55.297983 114.42623,53.0647558 113.504098,51.0159236 C112.377049,48.3319533 110.430328,46.0372611 108.053279,44.377707 C106.659836,43.4147558 105.122951,42.8001062 103.504098,42.3083864 C103.545082,42.1854565 103.586066,42.0420382 103.627049,41.89862 Z" id="Shape" fill="#AA202D" fill-rule="nonzero"></path>
                <path d="M164.733607,50.3807856 C166.577869,51.7944798 168.258197,53.454034 169.918033,55.0726115 C176.864754,62.0386412 182.397541,70.3773885 186.065574,79.4946921 C191.393443,92.5867304 192.766393,107.174416 190.122951,121.045011 C188.934426,121.78259 187.72541,122.499682 186.557377,123.278238 C187.315574,124.446072 188.053279,125.634395 188.770492,126.822718 C185.368852,139.218153 178.647541,150.589172 169.528689,159.624522 C170.040984,157.391295 170.430328,155.158068 170.635246,152.883864 C170.67623,152.494586 170.67623,152.105308 170.79918,151.736518 C171.086066,151.285775 171.47541,150.896497 171.803279,150.48673 C175.471311,145.897346 178.565574,140.83673 180.963115,135.46879 C184.385246,127.847134 186.372951,119.610828 186.864754,111.272081 C187.356557,102.994798 186.352459,94.656051 183.934426,86.7270701 C180.553279,74.536518 174.42623,63.3089172 166.864754,53.2286624 C166.168033,52.2452229 165.389344,51.3437367 164.733607,50.3807856 Z" id="Shape" fill="#BCBDC1" fill-rule="nonzero"></path>
                <path d="M61.6598361,59.108811 C62.6844262,60.1742038 63.75,61.19862 64.7745902,62.2435244 C63.9959016,63.2064756 63.2172131,64.1284501 62.4795082,65.1323779 C56.0040984,73.5940552 51.5983607,83.5718684 49.5696721,94.0414013 C49.2827869,95.3526539 49.1393443,96.6843949 48.8729508,98.0161359 C47.4795082,98.8971338 45.8811475,99.4503185 44.2622951,99.7781316 C44.2827869,99.2044586 44.3237705,98.6102972 44.4057377,98.0366242 C45.0204918,93.1808917 46.1065574,88.3866242 47.6639344,83.7357749 C47.7459016,83.55138 47.807377,83.1825902 48.0327869,83.1006369 C49.2008197,82.5679406 50.3893443,82.0557325 51.557377,81.5435244 C51.0860656,80.3961783 50.5532787,79.2898089 50.0819672,78.1424628 C49.897541,77.7531847 50.0819672,77.4458599 50.2254098,77.0770701 C53.1557377,70.6027601 56.9877049,64.4767516 61.6598361,59.108811 Z" id="Shape" fill="#BCBDC1" fill-rule="nonzero"></path>
                <path d="M131.147541,72.7950106 C133.07377,72.8564756 135,72.7950106 136.92623,73.0203822 C136.004098,72.9998938 135.102459,72.9998938 134.180328,72.9794055 C137.377049,78.0195329 141.311475,82.6089172 145.717213,86.6451168 C150.717213,91.1730361 156.372951,94.3077495 162.172131,97.6678344 C162.684426,97.9546709 163.135246,98.2619958 163.565574,98.6512739 C162.827869,98.4259023 162.110656,98.0980892 161.413934,97.7907643 C154.54918,94.9838641 147.356557,92.8735669 140.143443,91.1730361 C126.905738,88.0997877 113.278689,86.276327 99.7540984,85.1494692 C91.0860656,84.4323779 82.3770492,84.0226115 73.6885246,83.8996815 C74.8360656,83.1621019 76.1065574,82.7933121 77.4180328,82.4450106 C79.9180328,81.8508493 82.4795082,81.5640127 85.0409836,81.3386412 C89.7540984,80.9698514 94.4672131,80.8878981 99.1803279,80.5600849 C103.790984,80.1708068 108.381148,79.5356688 112.581967,77.4868365 C114.692623,76.503397 116.557377,74.9257962 118.094262,73.1842887 C122.418033,72.7335456 126.803279,72.754034 131.147541,72.7950106 Z" id="Shape" fill="#818286" fill-rule="nonzero"></path>
                <path d="M134.180328,72.9794055 C135.102459,72.9998938 136.004098,72.9998938 136.92623,73.0203822 C138.709016,73.1228238 140.491803,73.266242 142.27459,73.4096603 C142.295082,73.4916136 142.315574,73.5940552 142.356557,73.6760085 C144.467213,74.2496815 146.598361,74.7414013 148.729508,75.2536093 C153.709016,76.503397 158.688525,78.2244161 163.237705,80.6010616 C165.942623,82.0352442 168.647541,83.7562633 170.79918,85.9485138 C172.069672,87.1983015 173.114754,88.6734607 173.729508,90.3739915 C172.27459,92.0130573 170.983607,93.6930998 170.081967,95.7009554 C169.938525,95.9673036 169.979508,96.2336518 169.979508,96.5204883 C169.692623,96.8892781 169.42623,97.2785563 169.159836,97.6883227 C169.877049,102.892357 170.491803,108.116879 171.168033,113.320913 C171.25,114.365817 171.495902,115.246815 171.372951,116.271231 C169.118852,116.373673 166.82377,116.16879 164.569672,115.881953 C164.036885,115.226327 163.627049,114.550212 163.483607,113.730679 C162.520492,109.059342 161.577869,104.408493 160.655738,99.737155 C161.967213,99.5732484 163.278689,99.4093418 164.569672,99.2249469 C164.241803,99.040552 163.913934,98.8561571 163.565574,98.6717622 C163.135246,98.2824841 162.684426,97.9751592 162.172131,97.6883227 C156.372951,94.3282378 150.717213,91.1935244 145.717213,86.6656051 C141.331967,82.6089172 137.377049,78.0195329 134.180328,72.9794055 Z" id="Shape" fill="#BCBDC1" fill-rule="nonzero"></path>
                <path d="M142.27459,73.389172 C152.704918,74.4135881 163.012295,76.3804671 173.032787,79.4537155 C173.606557,79.6381104 174.20082,79.7815287 174.733607,80.0273885 C175.184426,80.9288747 175.45082,81.9532909 175.737705,82.9367304 C176.454918,85.579724 176.987705,88.3046709 177.110656,91.0296178 C174.32377,92.1974522 171.844262,94.1643312 169.959016,96.5204883 C169.959016,96.2336518 169.938525,95.9673036 170.061475,95.7009554 C170.983607,93.6930998 172.27459,92.0130573 173.709016,90.3739915 C173.094262,88.6734607 172.04918,87.1983015 170.778689,85.9485138 C168.606557,83.7562633 165.922131,82.0352442 163.217213,80.6010616 C158.668033,78.2244161 153.688525,76.503397 148.709016,75.2536093 C146.577869,74.7414013 144.446721,74.2496815 142.336066,73.6760085 C142.336066,73.5735669 142.315574,73.4916136 142.27459,73.389172 Z" id="Shape" fill="#FFFFFF" fill-rule="nonzero"></path>
                <path d="M125.040984,76.626327 C125.204918,77.2 125.327869,77.7326964 125.614754,78.2653928 C126.577869,80.0069002 128.770492,80.9493631 130.696721,80.4576433 C131.372951,80.2937367 131.905738,79.9454352 132.5,79.6176221 C132.110656,81.3386412 130.67623,82.6294055 128.893443,82.6908705 C127.233607,82.8138004 125.594262,81.9328025 124.836066,80.4576433 C124.20082,79.2283439 124.32377,77.8146497 125.040984,76.626327 Z" id="Shape" fill="#231F20" fill-rule="nonzero"></path>
                <path d="M151.02459,81.5025478 C151.454918,83.8382166 153.606557,85.4158174 155.942623,85.3543524 C157.008197,85.3338641 157.848361,84.883121 158.75,84.4118896 C158.483607,85.2928875 158.07377,86.0714437 157.315574,86.6246285 C155.512295,87.9768577 152.786885,87.6490446 151.311475,85.9690021 C150.245902,84.7601911 149.938525,82.7728238 151.02459,81.5025478 Z" id="Shape" fill="#231F20" fill-rule="nonzero"></path>
                <path d="M73.9344262,89.6773885 C75.2459016,89.6569002 76.557377,89.6773885 77.8688525,89.6978769 C78.954918,89.8003185 80.0409836,89.8412951 81.147541,89.8412951 C80.9836066,90.5378981 80.6762295,91.1730361 80.3483607,91.8081741 C78.9754098,94.594586 77.0491803,97.2170913 74.6311475,99.2249469 C69.9590164,103.240658 63.442623,104.920701 57.3770492,104.572399 C56.4139344,104.449469 55.3278689,104.449469 54.4467213,104.039703 C55.2868852,103.83482 56.1270492,103.691401 56.9672131,103.486518 C59.7336066,102.871868 62.4180328,101.929406 64.897541,100.515711 C68.3401639,98.5898089 71.2090164,95.7419321 72.9098361,92.1564756 C73.2991803,91.357431 73.5655738,90.4969214 73.9344262,89.6773885 Z" id="Shape" fill="#AA202D" fill-rule="nonzero"></path>
                <path d="M87.7663934,90.0666667 C88.9344262,90.02569 90.102459,90.087155 91.25,90.2305732 C92.192623,90.3125265 93.1352459,90.2715499 94.0778689,90.3944798 C95.102459,90.5174098 96.045082,90.3944798 97.0286885,90.6813163 C95.0409836,96.0082803 92.3565574,100.904989 88.4016393,105.023142 C86.2295082,107.256369 83.6680328,109.161783 80.9221311,110.657431 C77.8893443,112.25552 74.5081967,113.628238 71.0860656,114.058493 C69.3442623,114.324841 67.5204918,114.242887 65.7581967,114.242887 C64.0163934,114.242887 62.3565574,113.956051 60.6352459,113.710191 C56.3729508,112.972611 52.192623,111.804777 48.1762295,110.206688 C47.2745902,109.858386 46.4344262,109.44862 45.6352459,108.895435 C47.7663934,109.059342 49.8770492,109.551062 52.0081967,109.69448 C55.1844262,110.104246 58.4221311,110.022293 61.6188525,109.94034 C63.3401639,109.755945 65.0819672,109.612527 66.7622951,109.243737 C71.1680328,108.403715 75.3278689,106.539278 78.7704918,103.650425 C82.4180328,100.638641 85.1844262,96.6639066 86.9262295,92.2794055 C87.2745902,91.5213376 87.4385246,90.7632696 87.7663934,90.0666667 Z" id="Shape" fill="#AA202D" fill-rule="nonzero"></path>
                <path d="M104.446721,91.295966 C105.081967,91.2345011 105.758197,91.418896 106.393443,91.4803609 C108.852459,91.7467091 111.311475,92.0950106 113.75,92.4433121 C113.668033,92.9145435 113.52459,93.3447983 113.29918,93.7545648 C110.061475,100.064968 106.004098,106.006582 101.209016,111.210616 C98.9139344,113.710191 96.3934426,116.004883 93.6885246,118.033227 C88.647541,121.78259 82.7459016,124.58949 76.4754098,125.347558 C75.3893443,125.531953 74.2827869,125.511465 73.1967213,125.613907 C71.8442623,125.736837 70.5327869,125.511465 69.1598361,125.490977 C65.0614754,125.163163 61.0245902,124.241189 57.1516393,122.847983 C50.2663934,120.389384 43.8319672,116.148301 37.0696721,113.157006 C33.9754098,111.784289 30.6967213,110.841826 27.3565574,110.30913 C25.9631148,110.042781 24.5491803,110.042781 23.1557377,109.796921 C24.2622951,109.20276 25.4303279,109.07983 26.6598361,108.936412 C28.4016393,108.772505 30.0614754,109.059342 31.7827869,109.243737 C37.2131148,110.083758 42.5204918,111.927707 47.602459,113.956051 C53.0737705,116.066348 58.5040984,117.910297 64.3647541,118.647877 C65.2459016,118.709342 66.1270492,118.832272 67.0286885,118.914225 C68.4631148,118.97569 69.897541,118.955202 71.3319672,118.934713 C75.4713115,118.668365 79.5491803,117.684926 83.2581967,115.840977 C87.6844262,113.710191 91.4139344,110.554989 94.6311475,106.88758 C98.2172131,102.769427 101.147541,97.9751592 103.545082,93.0784501 C103.831967,92.4842887 104.077869,91.8491507 104.446721,91.295966 Z" id="Shape" fill="#AA202D" fill-rule="nonzero"></path>
                <path d="M124.385246,95.3116773 C125.512295,95.3526539 126.639344,95.7214437 127.72541,96.0287686 C130.389344,96.8483015 133.032787,97.9341826 135.368852,99.4708068 C136.25,100.064968 137.131148,100.720594 137.807377,101.540127 C138.07377,101.826964 137.745902,102.093312 137.581967,102.318684 C136.803279,103.158705 136.168033,104.060191 135.57377,105.043631 C139.77459,103.916773 144.364754,104.019214 148.606557,104.900212 C150.061475,106.785138 151.209016,108.874947 152.04918,111.108174 C152.72541,112.87017 153.381148,114.673142 153.729508,116.53758 C152.540984,116.599045 151.372951,116.783439 150.204918,116.926858 C143.463115,116.578556 136.844262,115.8 130.471311,113.423355 C126.516393,111.927707 122.602459,109.69448 119.815574,106.457325 C119.077869,105.596815 118.401639,104.695329 117.909836,103.670913 C119.385246,101.048408 121.086066,98.5078556 123.07377,96.2336518 C123.401639,95.8443737 123.811475,95.2092357 124.385246,95.3116773 Z" id="Shape" fill="#FFFFFF" fill-rule="nonzero"></path>
                <path d="M160.655738,99.7166667 C161.577869,104.388004 162.520492,109.059342 163.483607,113.710191 C163.627049,114.550212 164.057377,115.226327 164.569672,115.861465 C163.278689,115.656582 161.905738,115.43121 160.696721,114.878025 C160.081967,114.591189 159.42623,114.181423 159.282787,113.464331 C158.360656,109.07983 157.72541,104.572399 156.557377,100.269851 C157.930328,100.04448 159.303279,99.9010616 160.655738,99.7166667 Z" id="Shape" fill="#818286" fill-rule="nonzero"></path>
                <path d="M117.889344,103.629936 C118.381148,104.654352 119.057377,105.555839 119.795082,106.416348 C122.581967,109.653503 126.495902,111.88673 130.45082,113.382378 C136.82377,115.759023 143.442623,116.53758 150.184426,116.885881 C143.688525,118.176645 137.315574,121.29087 132.766393,126.18758 C130.348361,128.830573 128.340164,131.719427 126.086066,134.464862 C125.655738,134.97707 125.245902,135.448301 124.54918,135.550743 C123.381148,135.735138 122.397541,135.140977 121.352459,134.73121 C118.340164,133.399469 115.327869,131.719427 112.909836,129.445223 C111.92623,128.50276 110.963115,127.334926 110.471311,126.044161 C110.266393,125.57293 110.409836,125.142675 110.491803,124.650955 C110.881148,123.052866 111.536885,121.516242 112.254098,120.041083 C113.012295,118.565924 113.893443,117.070276 115.102459,115.92293 C117.643443,116.496603 120.368852,117.008811 122.991803,116.906369 C119.959016,115.041932 116.803279,112.398938 115.430328,109.018365 C116.086066,107.153928 116.905738,105.350955 117.889344,103.629936 Z" id="Shape" fill="#BCBDC1" fill-rule="nonzero"></path>
                <path d="M163.114754,120.676221 C165.471311,121.393312 167.602459,122.786518 168.995902,124.855839 C169.32377,125.306582 169.405738,125.81879 169.487705,126.371975 C166.536885,125.224628 163.401639,124.937792 160.245902,125.183652 C157.069672,125.45 153.893443,126.249045 151.188525,127.970064 C147.991803,129.936943 145.430328,132.887261 143.97541,136.349788 C143.053279,138.52155 142.561475,140.83673 142.459016,143.172399 C141.311475,141.369427 140.758197,139.177176 140.67623,137.066879 C140.594262,135.96051 140.881148,134.895117 140.963115,133.809236 C138.360656,137.005414 136.987705,141.144055 137.27459,145.262208 C137.336066,146.204671 137.540984,147.126645 137.684426,148.04862 C135.409836,149.687686 133.381148,151.572611 131.864754,153.949257 C129.815574,157.063482 128.811475,160.648938 128.52459,164.357325 C127.991803,163.087049 127.827869,161.796285 127.602459,160.444055 C127.336066,158.600106 127.315574,156.756157 127.377049,154.89172 C127.5,151.757006 128.340164,148.704246 129.938525,145.979299 C127.27459,147.638854 123.770492,148.622293 120.655738,147.987155 C120.983607,147.720807 121.311475,147.474947 121.680328,147.270064 C123.831967,146.081741 125.614754,144.422187 127.254098,142.598726 C130.512295,138.808386 132.336066,134.526327 135.327869,130.592569 C138.913934,125.81879 144.159836,122.335775 149.918033,120.778662 C154.118852,119.610828 158.893443,119.34448 163.114754,120.676221 Z" id="Shape" fill="#AA202D" fill-rule="nonzero"></path>
                <path d="M100.020492,122.540658 C99.4467213,124.855839 98.3196721,127.048089 97.7459016,129.36327 C97.4795082,130.039384 97.1311475,130.695011 96.9262295,131.391614 C96.0655738,132.149682 95.3483607,133.051168 94.5696721,133.891189 C92.5614754,136.083439 90.6762295,138.39862 88.8114754,140.7138 C83.6065574,138.378132 78.1967213,136.431741 72.7459016,134.813163 C73.0942623,134.669745 73.4221311,134.567304 73.7909836,134.546815 C76.3729508,134.341932 78.9139344,133.870701 81.4139344,133.215074 C87.5409836,131.616985 93.2172131,128.564225 97.9713115,124.384607 C98.647541,123.769958 99.3032787,123.114331 100.020492,122.540658 Z" id="Shape" fill="#818286" fill-rule="nonzero"></path>
                <path d="M46.8852459,128.092994 C48.545082,128.318365 50.1844262,128.646178 51.8237705,128.973992 C55.0409836,138.583015 60.307377,147.474947 67.2745902,154.830255 C72.1106557,159.952335 77.7254098,164.316348 83.8729508,167.737898 C91.0245902,171.712633 98.8729508,174.396603 106.946721,175.687367 C117.889344,177.408386 129.303279,176.465924 139.795082,172.859979 C141.393443,173.495117 142.172131,175.072718 142.315574,176.691295 C135.245902,179.231847 127.766393,180.645541 120.286885,180.91189 C111.209016,181.239703 102.110656,179.846497 93.5040984,176.87569 C92.9098361,175.584926 92.3565574,174.294161 91.7827869,173.003397 C90.4918033,173.556582 89.2008197,174.130255 87.9098361,174.683439 C78.2581967,170.462845 69.5491803,164.131953 62.5614754,156.243949 C55.3483607,148.151062 50,138.480573 46.8852459,128.092994 Z" id="Shape" fill="#BCBDC1" fill-rule="nonzero"></path>
                <path d="M97.7459016,129.36327 C100.409836,131.145754 102.930328,133.112633 105.389344,135.161465 C109.32377,138.460085 113.032787,142.025053 116.393443,145.917834 C115.266393,147.290552 113.319672,148.069108 111.721311,148.704246 C113.606557,150.384289 115.901639,151.654565 118.217213,152.617516 C118.114754,154.256582 118.340164,155.875159 118.422131,157.514225 C111.147541,151.654565 102.848361,147.270064 94.4672131,143.233864 C94.7745902,139.238641 95.8196721,135.243418 96.9262295,131.391614 C97.1311475,130.695011 97.4795082,130.039384 97.7459016,129.36327 Z" id="Shape" fill="#BCBDC1" fill-rule="nonzero"></path>
                <path d="M165.860656,130.776964 C166.004098,131.022824 166.188525,131.289172 166.290984,131.576008 C166.536885,132.887261 166.331967,134.280467 165.430328,135.325372 C161.741803,135.325372 158.07377,135.34586 154.385246,135.325372 C157.336066,132.231635 161.680328,130.879406 165.860656,130.776964 Z" id="Shape" fill="#BCBDC1" fill-rule="nonzero"></path>
                <path d="M65.6762295,139.976221 C66.1270492,140.058174 66.5778689,140.181104 67.0081967,140.304034 C77.1516393,143.008493 87.0491803,146.634926 96.4754098,151.244798 C105.348361,155.629299 113.954918,160.915287 121.209016,167.71741 C122.643443,169.172081 124.241803,170.606263 125.45082,172.245329 C124.364754,172.286306 123.340164,171.958493 122.356557,171.528238 C121.413934,171.097983 120.819672,170.40138 119.979508,169.78673 C117.745902,168.065711 115.245902,166.672505 112.766393,165.299788 C106.393443,161.898726 99.692623,159.112314 92.7868852,157.063482 C88.0327869,155.670276 83.0327869,154.563907 78.0942623,154.15414 C77.602459,153.928769 77.2131148,153.498514 76.8032787,153.170701 C72.5409836,149.298408 68.647541,144.87293 65.6762295,139.976221 Z" id="Shape" fill="#AA202D" fill-rule="nonzero"></path>
                <path d="M157.581967,141.676752 C159.036885,141.656263 160.45082,141.615287 161.885246,141.840658 C162.745902,141.922611 163.483607,142.086518 164.282787,142.455308 C164.795082,145.630998 164.733607,148.7862 164.651639,151.982378 C164.569672,152.945329 164.446721,153.90828 164.385246,154.871231 C164.077869,157.391295 163.627049,159.849894 162.930328,162.288004 C161.70082,166.672505 159.610656,170.954565 156.659836,174.417091 C155.327869,175.871762 153.913934,177.305945 152.295082,178.453291 C151.02459,179.375265 149.692623,180.256263 148.237705,180.809448 C149.180328,178.391826 149.918033,175.912739 149.569672,173.290234 C149.32377,171.179936 148.29918,169.192569 146.70082,167.778875 C145.368852,166.61104 143.852459,165.893949 142.213115,165.238323 C142.868852,163.353397 144.221311,161.693843 145.737705,160.423567 C148.586066,158.046921 152.131148,156.653715 155.737705,155.916136 C156.639344,155.711253 157.581967,155.670276 158.422131,155.342463 C156.82377,154.830255 154.959016,154.973673 153.278689,154.994161 C148.196721,155.383439 142.930328,156.981529 138.852459,160.116242 C135.655738,162.513376 133.360656,165.893949 132.110656,169.684289 C132.04918,169.315499 131.987705,168.967197 131.967213,168.598408 C131.987705,165.975902 132.418033,163.31242 133.29918,160.833333 C134.487705,157.493737 136.598361,154.481953 139.487705,152.392144 C141.782787,150.630149 144.364754,149.646709 147.131148,148.847665 C149.54918,148.028132 152.028689,147.249575 154.282787,146.040764 C155.061475,145.590021 155.819672,145.180255 156.209016,144.319745 C156.47541,143.418259 156.127049,142.721656 155.79918,141.922611 C156.372951,141.82017 156.967213,141.69724 157.581967,141.676752 Z" id="Shape" fill="#AA202D" fill-rule="nonzero"></path>
            </g>
        </g>
    </g>
</svg>