<?xml version="1.0" encoding="UTF-8"?>
<svg width="200px" height="200px" viewBox="0 0 200 200" version="1.1" xmlns="http://www.w3.org/2000/svg" xmlns:xlink="http://www.w3.org/1999/xlink">
    <!-- Generator: Sketch 56.3 (81716) - https://sketch.com -->
    <title>biola</title>
    <desc>Created with Sketch.</desc>
    <g id="biola" stroke="none" stroke-width="1" fill="none" fill-rule="evenodd">
        <g id="biola_BGL">
            <g id="biola" transform="translate(0.000000, 17.000000)">
                <g id="g10" transform="translate(99.999998, 83.619794) scale(-1, 1) rotate(-180.000000) translate(-99.999998, -83.619794) translate(0.000000, 0.286462)" fill-rule="nonzero">
                    <g id="g12">
                        <polyline id="path14" fill="#FFFFFF" points="116.702601 126.064059 116.702601 134.610413 104.145831 134.610413 104.145831 142.466663 80.4421855 166.17135 0 166.17135 0 117.054164 5.95458318 117.054164 5.95458318 89.3447894 0 89.3447894 0 40.1072386 80.4421855 40.1072386 91.3968727 51.0623946 91.3968727 23.7035932 115.100518 0 169.93385 0 193.637495 23.7035932 193.637495 76.9468731 199.593224 76.9468731 199.593224 126.064059 116.702601 126.064059"></polyline>
                        <polyline id="path16" fill="#0A0604" points="101.020831 122.939059 101.020831 141.171871 79.1479147 163.04635 3.12499992 163.04635 3.12499992 120.179164 9.07958311 120.179164 9.07958311 86.2197895 3.12499992 86.2197895 3.12499992 43.2322385 79.1479147 43.2322385 94.5218726 58.6067694 94.5218726 24.9989577 116.39531 3.12499992 168.639579 3.12499992 190.512495 24.9989577 190.512495 80.071873 196.468224 80.071873 196.468224 122.939059 101.020831 122.939059"></polyline>
                        <path d="M94.6885393,109.597393 L94.6885393,100.373435 L90.0776019,104.985935 L94.6885393,109.597393 Z M59.2729152,121.009372 L58.5036444,120.237497 L50.82703,120.237497 L50.82703,126.301039 L58.5036444,126.301039 L59.2729152,125.530205 L59.2729152,121.009372 Z M59.2729152,80.7947896 L58.548436,80.096873 L50.82703,80.096873 L50.82703,89.6151019 L58.5036444,89.6151019 L59.2729152,88.8447894 L59.2729152,80.7947896 Z M143.922392,116.816664 L143.922392,86.1937478 L148.765621,86.1937478 L148.765621,40.6406761 L148.112496,39.9896344 L136.993747,39.9896344 L136.268747,40.6870302 L136.268747,86.1937478 L141.111976,86.1937478 L141.111976,116.816664 L94.8984351,116.816664 L94.8984351,138.636455 L76.6119773,156.923954 L9.24744769,156.923954 L9.24744769,126.301039 L15.2024475,126.301039 L15.2024475,80.096873 L9.24744769,80.096873 L9.24744769,49.3546342 L76.6119773,49.3546342 L94.8984351,67.6427066 L94.8984351,86.1937478 L100.644268,86.1937478 L100.644268,27.535416 L118.930726,9.24786435 L166.1026,9.24786435 L184.39062,27.535416 L184.39062,86.1937478 L190.345829,86.1937478 L190.345829,116.816664 L143.922392,116.816664 L143.922392,116.816664 Z" id="path18" fill="#FFFFFF"></path>
                        <path d="M60.2322902,93.7890602 L46.6528113,93.7890602 L46.6528113,75.9223939 L60.2322902,75.9223939 L63.4473942,79.0192689 L63.4473942,90.5734352 L60.2322902,93.7890602 Z M60.2322902,130.475518 L46.6528113,130.475518 L46.6528113,116.063018 L60.2322902,116.063018 L63.4473942,119.279164 L63.4473942,127.259372 L60.2322902,130.475518 Z M90.7239561,69.3713524 L74.8822898,53.5296862 L13.4212497,53.5296862 L13.4212497,75.9223939 L19.3761974,75.9223939 L19.3761974,130.475518 L13.4212497,130.475518 L13.4212497,152.749475 L74.8822898,152.749475 L90.7239561,136.907809 L90.7239561,111.536456 L84.1734354,104.985935 L90.7239561,98.4348934 L90.7239561,69.3713524 L90.7239561,69.3713524 Z" id="path20" fill="#E51636"></path>
                        <polyline id="path22" fill="#E51636" points="164.373954 13.4224476 120.659893 13.4224476 104.818227 29.2641139 104.818227 90.3677061 98.8619767 90.3677061 98.8619767 112.642185 136.936976 112.642185 136.936976 90.3677061 132.094268 90.3677061 132.094268 38.9119261 135.310934 35.8152074 149.842184 35.8152074 152.938538 38.9119261 152.938538 90.3677061 148.096871 90.3677061 148.096871 112.642185 186.17135 112.642185 186.17135 90.3677061 180.217183 90.3677061 180.217183 29.2641139 164.373954 13.4224476"></polyline>
                        <path d="M113.555726,128.546351 L113.422914,130.684893 C113.40833,130.965622 113.40833,131.313018 113.39531,131.701038 L113.355726,131.701038 C113.261976,131.379684 113.155726,130.952601 113.048435,130.617705 L112.393226,128.599476 L111.643747,128.599476 L110.989581,130.671872 C110.922393,130.952601 110.815622,131.379684 110.734893,131.701038 L110.69531,131.701038 C110.69531,131.366663 110.682289,131.019268 110.667706,130.684893 L110.534893,128.546351 L109.840101,128.546351 L110.106768,132.182288 L111.189581,132.182288 L111.818226,130.404163 C111.897914,130.123434 111.964581,129.855726 112.058331,129.481768 L112.071872,129.481768 C112.164581,129.815622 112.245831,130.123434 112.326039,130.391143 L112.954685,132.182288 L113.996872,132.182288 L114.277601,128.546351 L113.555726,128.546351 Z M109.625518,132.182288 L109.625518,131.580726 L108.462497,131.580726 L108.462497,128.546351 L107.741143,128.546351 L107.741143,131.580726 L106.577602,131.580726 L106.577602,132.182288 L109.625518,132.182288 L109.625518,132.182288 Z" id="path24" fill="#231F20"></path>
                    </g>
                </g>
            </g>
        </g>
    </g>
</svg>