<?xml version="1.0" encoding="UTF-8"?>
<svg width="200px" height="200px" viewBox="0 0 200 200" version="1.1" xmlns="http://www.w3.org/2000/svg" xmlns:xlink="http://www.w3.org/1999/xlink">
    <!-- Generator: Sketch 54.1 (76490) - https://sketchapp.com -->
    <title>blackburn</title>
    <desc>Created with Sketch.</desc>
    <g id="blackburn" stroke="none" stroke-width="1" fill="none" fill-rule="evenodd">
        <g id="blackburn_BGL">
            <g id="blackburn" transform="translate(0.000000, 6.000000)">
                <path d="M52.9782403,0 L58.859035,0 L58.9933775,0.00567644276 C71.5610218,0.346263009 83.9129612,2.26490066 96.1210974,5.2128666 C103.525071,6.99337748 110.840114,9.15799432 118.047304,11.6177862 C118.433302,11.7483444 118.817408,11.8959319 119.199622,12.0397351 C118.997162,11.4758751 118.647114,11.0198675 118.346263,10.5108798 C117.087985,8.40302744 115.820246,6.29328288 114.781457,4.06622517 C114.391675,3.19394513 114.028382,2.37653737 114.217597,1.39072848 C114.754967,1.49858089 115.193945,1.78618732 115.699149,2.02081362 C118.923368,3.56480605 122.138127,5.1333964 125.364238,6.67360454 C125.833491,6.89498581 126.274361,7.16367077 126.71334,7.43992431 C130.613056,9.84862819 134.456008,12.2232734 138.164617,14.9195837 C143.267739,18.5922422 148.204352,22.4938505 152.980132,26.5827815 C153.33018,26.8836329 153.721854,27.1087985 154.121097,27.3377483 C161.998108,31.9772942 169.25071,37.6915799 175.447493,44.4238411 C180.177862,49.5477767 184.28193,55.2450331 187.657521,61.3472091 C193.526963,71.9337748 197.163671,83.6196783 198.859035,95.5856197 C199.509934,100.174078 199.839167,104.783349 200,109.413434 L200,115.241249 C199.653737,126.76632 197.933775,138.556291 194.14948,149.479659 C193.279092,152.147588 191.916746,154.626301 189.969726,156.664144 C186.270577,160.59035 180.692526,162.607379 175.38316,162.813623 C174.964995,162.997162 174.637654,163.403974 174.272469,163.676443 C172.327342,165.226112 170.128666,166.490066 167.852412,167.483444 C167.506149,167.615894 167.320719,167.945128 167.095553,168.219489 C164.418165,171.697256 161.51561,174.991485 158.442763,178.124882 C154.768212,181.748344 150.783349,185.26017 146.20246,187.701041 L146.066225,187.701041 C141.140965,184.058657 136.134342,180.476821 131.188269,176.857143 C130.728477,176.520341 130.253548,176.211921 129.831599,175.82403 C130.514664,174.84579 131.195837,173.856197 131.816462,172.836329 C126.806055,173.525071 121.629139,174.155156 116.556291,173.807001 C114.758751,173.634816 112.61684,173.377483 111.072848,172.367077 C109.769158,171.400189 108.66036,170.073794 107.58562,168.860927 C105.226112,166.066225 103.053926,163.099338 101.133396,159.986755 C100.910123,159.655629 100.758751,159.209082 100.463576,158.942289 C100.266793,158.970672 100.073794,159.029328 99.8864711,159.114475 C97.9072848,160.007569 95.8997162,160.912015 93.8278146,161.56859 C86.1494797,163.551561 78.0624409,163.689688 70.384106,161.627247 C63.385052,159.759697 56.9176916,156.143803 51.525071,151.324503 C47.4210028,147.733207 44.1589404,143.398297 41.4418165,138.692526 C38.87228,134.264901 36.7492904,129.574267 35.1333964,124.717124 C33.1807001,118.79281 31.9451277,112.403027 32.1986755,106.14948 C32.3765374,100.787133 33.7426679,95.5061495 36.4597919,90.8609272 C31.8732261,93.769158 27.6745506,97.3320719 23.8940397,101.222327 C22.5184484,95.385052 23.0160833,88.7701041 25.9697256,83.4701987 C27.6064333,80.5033113 30.1381268,77.8524125 33.2128666,76.3746452 C34.5052034,75.7407758 35.8637654,75.5704825 37.2469253,75.2677389 C33.525071,74.614948 29.820246,73.8505203 26.1116367,73.1220435 C17.3831599,71.3736991 8.70577105,69.538316 0.00756859035,67.6518448 C1.87322611,59.9754021 6.46736045,53.0974456 12.6622517,48.2232734 C18.1816462,43.8902554 24.8287606,40.8893094 31.755913,39.731315 C32.3519395,39.6253548 32.9971618,39.6329234 33.5666982,39.4550615 C29.1182592,39.1315043 24.7095553,38.8912015 20.244087,39.1352886 C19.5780511,39.1788079 18.9914853,39.333964 18.3254494,39.256386 C18.5165563,38.0567644 19.3888363,36.9631031 20.0851466,35.9905393 C22.4446547,32.9157994 25.1693472,30.0889309 27.8656575,27.307474 C30.1986755,24.7738884 32.9498581,22.6641438 35.9659413,21.0085147 C41.4966887,17.9432356 47.9035005,16.1892148 54.1173132,15.192053 C56.6887417,14.7757805 59.2753075,14.5165563 61.8694418,14.3046358 C66.2705771,13.9583728 70.7076632,14.0075686 75.1182592,14.1210974 C75.7748344,14.1229896 76.4049196,14.2289499 77.0633869,14.1702933 C76.9328288,14.0397351 76.781457,13.9602649 76.6073794,13.9280984 C75.3434248,13.6253548 74.1002838,13.2223273 72.8741722,12.7928098 C68.6736045,11.2885525 64.5941343,9.36045412 60.6527909,7.27341533 C57.2526017,5.47587512 53.9243141,3.54399243 50.6679281,1.49858089 C50.5335856,1.24314096 50.397351,0.989593188 50.2573321,0.736045412 C50.7341533,-0.0208136235 52.1324503,0.122989593 52.9157994,0.00567644276 L52.9782403,0 Z" id="Shape" fill="#373536" fill-rule="nonzero"></path>
                <path d="M115.443709,2.91769158 C115.769158,3.12393567 116.087039,3.34342479 116.395459,3.57805109 C118.679281,5.32261116 120.915799,7.1371807 123.229896,8.84389782 C124,9.41911069 124.826868,9.89403974 125.640492,10.4011353 C128.89877,12.4162725 132.155156,14.4503311 135.288553,16.6565752 C137.848628,18.4768212 140.384106,20.346263 142.843898,22.3008515 C141.716178,21.8372753 140.656575,21.218543 139.536424,20.7284768 C135.5421,18.9801325 131.549669,17.2242195 127.551561,15.4853359 C127.000946,15.2677389 126.628193,14.7852412 126.200568,14.3859981 C123.632923,11.897824 121.110691,9.39072848 118.66036,6.7871334 C117.557237,5.54588458 116.359508,4.30842006 115.443709,2.91769158 Z" id="Shape" fill="#FEFEFE" fill-rule="nonzero"></path>
                <path d="M57.884579,4.42573321 C61.3396405,5.46073794 64.7852412,6.50709555 68.3065279,7.30179754 C75.1958373,8.98391675 82.013245,10.9801325 88.7701041,13.1296121 C100.314096,16.8344371 111.736991,21.1144749 122.781457,26.1229896 C132.480605,30.5316935 142.064333,35.5799432 150.932829,41.4947966 C156.522233,45.2317881 161.81457,49.2999054 166.692526,53.9337748 C171.25071,58.2989593 175.347209,63.0785241 178.607379,68.5014191 C183.296121,76.230842 187.562914,84.5998108 190.162725,93.2828761 C192.032167,99.4777673 192.970672,105.924314 192.974456,112.393567 C193.086093,113.661306 192.936613,114.912015 192.96878,116.177862 C192.95175,120.071902 192.826868,124.035951 192.370861,127.905393 C191.769158,133.570482 190.46736,139.063387 188.707663,144.473037 C186.043519,144.73983 183.551561,144.12299 181.04825,143.279092 C177.810785,142.153264 174.690634,140.526017 171.780511,138.724693 C171.053926,138.276254 170.310312,137.835383 169.496689,137.561022 C168.953642,137.405866 168.452223,137.228004 167.899716,137.447493 C167.305582,137.657521 167.010407,138.289499 166.970672,138.881741 C166.783349,140.883633 167.508042,143.067171 168.102176,144.966887 C169.456954,148.885525 171.1807,152.806055 173.063387,156.501419 C172.12299,158.650899 170.111637,160.230842 168.047304,161.237465 C164.824976,162.798486 161.150426,163.390728 157.617786,163.725639 C154.902554,163.878903 152.200568,163.97351 149.479659,163.890255 C148.030274,163.757805 146.580889,163.803217 145.133396,163.651845 C136.79281,162.989593 128.497635,161.602649 120.338694,159.757805 C119.727531,159.62157 119.133396,159.43614 118.507096,159.366131 C120.217597,163.899716 123.485336,167.483444 127.460738,170.168401 C127.750237,170.355724 128.017029,170.571429 128.274361,170.802271 C126.263009,170.976348 124.247871,170.974456 122.230842,170.938505 C119.939451,170.798486 117.646168,170.569536 115.491012,169.725639 C114.119205,169.210974 112.830653,168.302744 111.634816,167.46263 C108.558184,165.229896 105.769158,162.586566 103.354778,159.649953 C102.942289,159.129612 102.51088,158.633869 102.179754,158.05298 C106.499527,156.022706 110.768212,153.87701 115.012299,151.69158 C115.547777,151.398297 116.07947,151.114475 116.64333,150.877956 C116.420057,150.915799 116.198675,150.970672 115.982971,151.036897 C112.645222,152.206244 109.197729,153.131504 105.746452,153.895932 C99.7426679,155.186377 93.5648061,155.956481 87.4172185,155.865658 C83.2355724,155.854305 79.0104068,155.369915 74.9403974,154.416272 C68.3122044,152.847682 62.1135289,149.829707 57.1239357,145.148534 C52.781457,141.140965 49.5875118,136.157048 47.3055818,130.728477 C44.9157994,125.02176 43.4247871,118.917692 42.7171239,112.775781 C42.3027436,109.443709 42.2232734,106.0965 42.3368023,102.743614 C42.59035,98.7682119 43.1996216,94.4881741 44.9271523,90.8628193 C46.4522233,87.7275307 48.9820246,85.3547777 51.8391675,83.4304636 C55.6575213,80.8609272 59.8959319,79.1636708 64.2894986,77.8637654 C63.4285714,77.2393567 62.333018,76.9139073 61.3320719,76.5543992 C56.0775781,74.7871334 50.7171239,73.320719 45.3812677,71.8240303 C37.4058657,69.6310312 29.4077578,67.5193945 21.3831599,65.5080416 C18.5506149,64.8287606 15.7237465,64.0851466 12.8628193,63.5307474 C12.2213813,63.3888363 11.6140019,63.1087985 11.4285714,62.4181646 C11.2658467,61.551561 11.7086093,60.7152318 12.153264,60.0037843 C13.2790918,58.2932829 14.7322611,56.9555345 16.2989593,55.6613056 C18.8174078,53.6140019 21.6064333,51.8675497 24.4957427,50.3954588 C29.0047304,48.0775781 34.0435194,46.5316935 38.9536424,45.3169347 C43.640492,44.1608325 48.3859981,43.3282876 53.1674551,42.679281 C53.7218543,42.6035951 54.2630085,42.6584674 54.8136235,42.7209082 C53.192053,40.0454115 50.5789972,38.4560076 47.6821192,37.4588458 C43.1106906,35.8959319 37.9035005,35.6840114 33.1125828,35.8770104 C30.0794702,36.0113529 27.0482498,36.3405866 24.0548723,36.8438978 C22.8533586,37.0879849 21.7332072,37.1769158 20.628193,37.7388836 C21.653737,36.2876064 23.1012299,35.0823084 24.4351939,33.9186377 C28.153264,30.8060549 32.3576159,28.1570482 36.59035,25.8088931 C38.7228004,24.6527909 40.807947,23.5231788 43.0425733,22.5789972 C46.8192999,20.9801325 50.8022706,19.7880795 54.781457,18.8117313 C63.7975402,16.6073794 72.9157994,15.4493851 82.1513718,14.6754967 C75.089877,11.6594134 67.9754021,8.69631031 60.9025544,5.69536424 C59.8789026,5.28476821 58.9006623,4.80227058 57.8448439,4.4692526 L57.8013245,4.45222327 L57.884579,4.42573321 Z" id="Shape" fill="#FEFEFE" fill-rule="nonzero"></path>
                <path d="M76.1456954,29.9716178 C79.5704825,29.6821192 83.0368969,29.7710501 86.4711447,29.8315989 C90.6452223,30.0586566 94.6982025,30.7265847 98.5846736,32.3178808 C102.620624,33.9602649 106.18543,36.6319773 108.679281,40.2270577 C111.097446,43.6934721 112.410596,47.71807 112.868496,51.8997162 C109.941343,53.0539262 107.016083,54.2213813 104.077578,55.3472091 C102.234626,52.6471145 99.9375591,50.1835383 97.5364238,47.9735099 C95.3491012,46.0227058 92.9082308,44.2365184 90.2800378,42.9271523 C87.0444655,41.269631 83.500473,40.3405866 79.8505203,40.4881741 C77.7805109,40.5676443 75.6783349,40.9820246 73.7615894,41.7710501 C72.6982025,42.2251656 71.5553453,42.9366131 71.1239357,44.0662252 C70.8268685,45.0425733 71.0520341,46.0340587 71.5402081,46.9082308 C72.3178808,48.2989593 73.4891202,49.5269631 74.6736045,50.5827815 C77.884579,53.4210028 81.6272469,55.7653737 85.3131504,57.9337748 C88.8874172,60 92.5468307,61.935667 96.2781457,63.7067171 C94.961211,63.7937559 93.7540208,63.4910123 92.4919584,63.1712394 C89.6631977,62.3859981 86.9157994,61.1882687 84.2857143,59.8940397 C79.5364238,57.4796594 74.8893094,54.5108798 70.9801325,50.8741722 C69.0274361,48.9990539 67.0842006,46.8022706 66.037843,44.2762535 C65.3661306,42.6565752 65.1561022,40.8836329 65.731315,39.1996216 C66.333018,37.4493851 66.461684,35.4342479 67.2790918,33.7899716 C67.8145695,32.6906339 68.7341533,31.9035005 69.8278146,31.385052 C71.8259224,30.4427625 73.986755,30.2024598 76.1456954,29.9716178 Z" id="Shape" fill="#373536" fill-rule="nonzero"></path>
                <path d="M131.125828,76.4351939 C132.698202,76.1759697 134.463576,76.4370861 136.043519,76.5600757 C137.509934,76.7171239 138.972564,76.9725639 140.429518,77.2015137 C144.652791,77.9451277 148.885525,78.8155156 152.997162,80.0491958 C155.226112,80.6622517 157.167455,82.0056764 158.932829,83.4550615 C161.324503,85.4493851 163.483444,87.7426679 165.736991,89.8902554 C168.601703,92.6868496 171.644276,95.1901608 175.167455,97.1182592 C175.472091,97.2866604 175.79754,97.333964 176.134342,97.3888363 C177.829707,97.6953642 179.519395,98.0416272 181.218543,98.3159886 C181.243141,99.3188269 181.014191,100.353832 180.751183,101.318827 C180.090823,103.593188 179.046358,105.761589 177.795648,107.769158 C176.61684,109.632923 175.15421,111.502365 173.369915,112.821192 C172.33491,113.570482 171.027436,114.18543 169.719962,113.941343 C168.758751,113.706717 167.918638,112.913907 167.214759,112.253548 C165.587512,110.613056 164.13245,108.751183 162.698202,106.942289 C158.902554,102.075686 155.192053,97.2450331 150.946074,92.7492904 C147.080416,88.6395459 142.675497,84.7284768 137.778619,81.8921476 C135.593188,80.6073794 133.095553,79.6783349 131.078524,78.1911069 C130.720908,77.9072848 130.198675,77.5118259 130.174078,77.0198675 C130.297067,76.5506149 130.726585,76.5298013 131.125828,76.4351939 Z" id="Shape" fill="#373536" fill-rule="nonzero"></path>
                <path d="M50.7152318,77.9905393 C48.0832545,78.8741722 45.6764428,80.3424787 43.8013245,82.4011353 C42.5998108,83.5969726 41.2582781,84.6263009 40.1381268,85.9148534 C39.7767266,86.28193 39.4645222,86.8211921 38.9971618,87.0425733 C34.474929,89.371807 30.0775781,91.9432356 25.6291391,94.4011353 C26.9763482,90.7852412 28.4219489,87.1769158 30.2005676,83.7483444 C30.7133396,82.7928098 31.2658467,81.8088931 31.9772942,80.9839167 C32.5279092,80.3651845 33.2923368,80.0964995 34.0548723,79.8429518 C35.9924314,79.2526017 37.9243141,78.9952696 39.9205298,78.7228004 C42.8211921,78.410596 45.7142857,78.1381268 48.6319773,78.0189215 C49.3017975,78.0075686 50.0662252,77.8126774 50.7152318,77.9905393 Z" id="Shape" fill="#FEFEFE" fill-rule="nonzero"></path>
                <path d="M84.1002838,80.9649953 C87.5137181,81.4342479 90.7719962,82.6887417 93.8183538,84.2667928 C98.0964995,86.5052034 102.051088,89.43614 105.636708,92.6603595 C106.124882,93.0974456 106.597919,93.5477767 107.055818,94.0170293 C106.287606,93.6859035 105.578051,93.243141 104.813623,92.8987701 C100.240303,90.7890255 95.40965,89.7464522 90.4465468,89.0558184 C87.7653737,88.7928098 85.0104068,88.4673605 82.3084201,88.4919584 C77.4891202,88.5808893 72.7284768,89.7256386 68.3897824,91.8221381 C64.5070956,93.6821192 60.9858089,96.2365184 57.9697256,99.3055818 C58.0681173,99.0009461 58.1702933,98.7000946 58.3084201,98.410596 C61.3093661,91.8145695 66.5657521,86.1078524 73.1333964,82.961211 C74.8287606,82.166509 76.6565752,81.4153264 78.5033113,81.0785241 C80.3349101,80.730369 82.2535478,80.7549669 84.1002838,80.9649953 Z" id="Shape" fill="#EC324A" fill-rule="nonzero"></path>
                <path d="M138.141911,88.9403974 C140.526017,89.6196783 142.883633,90.5714286 144.970672,91.9186377 C147.48912,93.5080416 149.729423,95.6556291 151.682119,97.8902554 C153.419111,99.8070009 154.868496,101.835383 156.754967,103.606433 C156.95175,103.820246 157.216651,104.022706 156.877956,104.268685 C155.511826,105.197729 154.435194,106.490066 153.907285,108.066225 C153.680227,108.707663 153.66509,109.432356 153.74456,110.102176 C153.945128,111.229896 154.963103,112.071902 156.100284,112.119205 C158.240303,112.293283 160.33491,110.802271 161.570482,109.159886 C161.699149,109.000946 161.793756,108.980132 161.854305,109.095553 C162.580889,109.962157 163.252602,110.912015 163.767266,111.922422 C164.211921,112.851466 164.497635,113.856197 164.083254,114.855251 C163.693472,115.748344 162.783349,116.450331 161.975402,116.949858 C161.347209,117.320719 160.974456,117.954588 160.350047,118.342479 C158.633869,119.528855 156.249763,119.86755 154.210028,119.880795 C150.874172,119.907285 147.422895,119.195837 144.206244,118.346263 C140.904447,117.455061 137.695364,116.331126 134.508988,115.095553 C131.892148,114.085147 129.275307,113.116367 126.679281,112.051088 L126.684957,111.933775 C129.928098,112.868496 133.156102,113.844844 136.421949,114.69631 C140.59035,115.791864 144.904447,116.830653 149.192053,117.282876 C150.514664,117.403974 151.948912,117.491012 153.25071,117.201514 C149.421003,115.822138 145.935667,113.653737 142.645222,111.290445 C140.930937,110.039735 139.123936,108.726585 137.670766,107.176916 C133.907285,103.212867 131.740776,97.8183538 131.943236,92.3368023 C131.928098,91.0974456 132.283822,89.6291391 133.464522,88.9971618 C134.934721,88.2157048 136.603595,88.5922422 138.141911,88.9403974 Z" id="Shape" fill="#373536" fill-rule="nonzero"></path>
                <path d="M111.273415,104.499527 C115.315043,107.246925 118.374645,111.473983 119.708609,116.179754 C120.463576,118.703879 120.607379,121.322611 120.401135,123.937559 C120.077578,127.076632 118.97824,130.121097 117.201514,132.732261 C116.155156,134.251656 114.503311,135.439924 112.947966,136.397351 C109.33018,138.556291 105.377483,139.982971 101.373699,141.226112 C98.5789972,142.032167 95.7710501,142.756859 92.9044465,143.262062 C91.3604541,143.494797 89.8580889,143.791864 88.2838221,143.66509 C88.217597,143.517502 88.1419111,143.373699 88.0586566,143.235572 C88.8874172,142.596026 89.8789026,142.261116 90.692526,141.589404 C93.4550615,139.424787 95.3131504,136.070009 96.6017029,132.860927 C96.9139073,132.013245 97.2677389,131.263955 97.4247871,130.397351 C91.6991485,133.674551 85.2771996,136.017029 78.7152318,136.838221 C76.8003784,136.961211 74.9479659,137.195837 73.0368969,136.84579 C70.4654683,136.350047 67.9754021,135.080416 65.8543046,133.570482 C63.6726585,132.003784 61.7029328,130.15894 60.0018921,128.07947 C58.8552507,126.688742 57.769158,125.156102 57.0028382,123.519395 C56.6736045,122.770104 56.4238411,122.020814 56.6622517,121.205298 C56.9668874,121.182592 57.1712394,121.209082 57.4437086,121.360454 C58.7928098,122.081362 60.2157048,122.974456 61.6915799,123.40965 C63.0331126,123.829707 64.3670766,123.79754 65.7445601,124.104068 C67.6745506,124.323557 69.589404,124.720908 71.5269631,124.847682 C75.4929044,125.280984 79.4437086,125.347209 83.3982971,124.732261 C88.0870388,124.13245 92.7057711,122.526017 96.6887417,119.964049 C99.0539262,118.46736 101.188269,116.681173 103.199622,114.73983 C106.291391,111.655629 109.017975,108.242195 111.273415,104.499527 Z" id="Shape" fill="#EC324A" fill-rule="nonzero"></path>
                <path d="M144.001892,169.996216 C146.99527,170.298959 149.996216,170.711447 153.00473,170.842006 C153.103122,171.091769 152.826868,171.246925 152.698202,171.428571 C150.384106,173.882687 147.674551,176.030274 145.106906,178.217597 C144.02649,179.144749 142.900662,180.049196 141.929991,181.093661 C142.155156,181.279092 142.374645,181.545885 142.656575,181.640492 C143.258278,181.424787 143.791864,180.991485 144.338694,180.658467 C147.623463,178.452223 150.762535,176.003784 153.869442,173.551561 C154.944182,172.743614 155.956481,171.808893 157.057711,171.044465 C157.875118,170.989593 158.694418,171.053926 159.511826,170.946074 C160.191107,170.847682 160.8193,170.826868 161.392621,170.403027 C156.263009,175.1807 150.99527,179.835383 145.846736,184.597919 C145.682119,184.482498 145.517502,184.368969 145.354778,184.253548 C142.762535,182.189215 140.166509,180.128666 137.572375,178.068117 C139.704825,175.368023 141.873226,172.698202 144.001892,169.996216 Z" id="Shape" fill="#FEFEFE" fill-rule="nonzero"></path>
            </g>
        </g>
    </g>
</svg>