<?xml version="1.0" encoding="UTF-8"?>
<svg width="200px" height="200px" viewBox="0 0 200 200" version="1.1" xmlns="http://www.w3.org/2000/svg" xmlns:xlink="http://www.w3.org/1999/xlink">
    <!-- Generator: Sketch 54.1 (76490) - https://sketchapp.com -->
    <title>bloomfield</title>
    <desc>Created with Sketch.</desc>
    <g id="bloomfield" stroke="none" stroke-width="1" fill="none" fill-rule="evenodd">
        <g id="bloomfield_BGL" transform="translate(0.000000, 0.000000)">
            <g id="bloomfield" transform="translate(9.000000, 0.000000)">
                <g id="g10" transform="translate(91.499998, 99.614194) scale(-1, 1) rotate(-180.000000) translate(-91.499998, -99.614194) translate(0.128692, 0.000008)" fill-rule="nonzero">
                    <g id="g12">
                        <path d="M181.18132,146.868472 C183.607936,155.473486 182.473388,164.311793 178.220375,169.937672 C175.646021,173.341587 172.098755,175.216192 168.22873,175.216192 C164.787506,175.216192 161.282966,173.787012 157.806739,170.967879 L157.771734,170.938459 L157.737245,170.908524 C152.730097,166.609113 147.842891,164.977092 144.333718,164.398504 C140.09203,166.860988 135.169819,168.918304 129.67776,170.517809 C124.836368,171.928408 120.877288,171.984666 116.690166,172.044538 C114.535862,172.076022 112.307947,172.106991 109.848385,172.332542 C108.398799,172.465705 106.008732,173.291522 103.24031,174.248438 C97.8882676,176.098784 90.5548838,178.631978 82.5852469,178.632494 C81.2293482,178.632494 79.8796267,178.558687 78.5716014,178.413136 C75.427399,178.062164 72.3089349,177.554803 69.2851881,176.901891 C65.6802684,177.833 57.8614585,180.885426 50.2011971,190.647616 C45.3736006,197.417252 40.0008648,198.840754 36.3401957,198.842303 L36.3377763,198.842303 C25.945693,198.842303 17.0094764,187.675707 16.4180595,173.948563 C16.0470663,165.368839 19.3512586,157.346542 25.7973369,150.988267 C16.4528578,144.185083 8.8061348,127.911841 8.8061348,127.911841 L11.3035828,129.248116 C7.53352555,123.005455 2.92633723,108.207845 2.92633723,108.207845 L4.79959313,109.714445 C2.16785758,103.880047 0.591581589,97.7359683 0.147995777,91.4551133 C-0.607065808,80.7437495 2.45801682,70.117032 7.65655508,59.9852886 C16.2143658,43.2996544 40.0123441,29.4248951 40.0123441,29.4248951 L37.8613864,35.1132264 C42.8021289,30.7642672 49.9458722,25.9636892 60.0018635,22.1107364 L60.1413656,22.0601551 L60.2844711,22.0178319 C61.8848845,21.56931 63.5656018,21.1388529 65.3039731,20.7388477 C66.2320996,18.2015247 67.8319983,16.4616314 68.2793316,16.0053674 C73.0975594,10.7149767 79.3813313,6.80834574 86.7867826,4.4454766 L81.8408925,3.08029773 C81.8408925,3.08029773 93.1426221,3.1918912e-15 101.477744,0.048981276 C115.692546,0.131666212 125.563735,6.37685632 126.349271,6.89247586 C131.522689,10.2081315 134.749769,16.4704057 136.503583,26.6006006 C136.504613,26.6150524 136.507701,26.6305365 136.510275,26.643956 C143.413313,30.2156149 148.727262,34.7648348 152.601405,38.9047591 L151.483844,33.879146 L159.221836,41.1767883 C170.76808,52.0641544 177.04619,65.506392 177.380789,80.0541922 C177.424544,81.9809267 177.373582,83.9055967 177.222755,85.8194278 L178.665135,83.4214614 C178.665135,83.4214614 177.601109,102.71771 175.40511,108.064876 L178.80824,104.375538 C178.80824,104.375538 175.606899,122.68029 169.286578,130.430583 C175.108088,134.380053 179.272561,140.102449 181.18132,146.868472" id="path14" fill="#FFFFFF"></path>
                        <path d="M178.036088,147.757774 C182.527953,163.681592 172.968713,179.058822 159.865296,168.426943 C153.827583,163.23978 147.892309,161.495241 143.649591,160.999235 C139.509828,163.534493 134.585558,165.681101 128.763018,167.377123 C121.929989,169.367859 116.860039,168.404749 109.55085,169.07521 C103.925981,169.591861 92.0425631,176.621629 78.9329685,175.161998 C75.5833736,174.788315 72.355264,174.244825 69.2558464,173.545977 C65.8913232,174.287664 56.505045,177.288477 47.5832418,188.687849 C36.7641071,203.949981 20.4457581,191.536402 19.6830265,173.807658 C19.325932,165.5371 22.8199193,157.224734 30.9379638,150.80349 C28.9460693,149.41715 21.521726,143.914111 17.1277186,136.072462 C17.1277186,136.072462 19.1982181,137.180605 21.6009488,137.917647 C17.2604257,133.154747 12.7712891,126.597759 9.74538035,117.881776 C9.74538035,117.881776 12.8153018,120.347872 17.1560308,122.74429 C9.19365209,113.731529 4.23880496,102.981455 3.40894759,91.2238845 C1.93621202,70.3570351 13.7820874,50.9302043 33.3416726,37.8286162 C32.2104186,40.8206547 31.4016667,44.2921833 31.0487418,48.3278482 C31.0487418,48.3278482 37.78901,34.1206975 61.1678128,25.1657434 C63.3895512,24.5422515 65.6591629,23.9915348 67.9617198,23.501722 C68.3766228,20.4627151 70.6441754,18.2650094 70.6441754,18.2650094 C77.6795086,10.5059417 87.5913649,6.46563165 98.5811452,5.37297242 C96.4489765,4.41037938 94.8037782,3.82508152 94.8037782,3.82508152 C112.003719,1.20161547 124.566115,9.63676927 124.566115,9.63676927 C128.928258,12.4182244 131.686385,17.9455214 133.28268,27.1585433 C133.379457,27.7237119 133.46079,28.271848 133.534402,28.8163711 C150.414157,36.8923461 157.90403,51.5583414 157.90403,51.5583414 C157.853068,48.6674655 157.525675,46.0057538 156.980536,43.5597868 C167.528646,53.5041729 173.791827,66.1195612 174.113557,80.1290319 C174.299388,88.1379093 172.694342,95.9217514 169.57073,103.216297 C172.397321,100.216 174.130029,97.3153178 174.130029,97.3153178 C173.138072,108.286298 168.92727,116.432467 165.560173,121.349692 C169.566612,119.236632 172.527557,116.001494 172.527557,116.001494 C170.545186,123.094747 167.19662,128.139457 164.435405,131.354982 C171.597371,135.0149 176.121152,140.966461 178.036088,147.757774" id="path16" fill="#231F20"></path>
                        <path d="M145.416275,126.681373 C145.417819,123.585592 144.281212,119.227342 143.178579,117.016217 C141.928722,114.517088 136.47733,114.532056 132.609879,113.033714 C129.700925,111.906473 128.329583,110.058192 127.796284,108.259975 C127.420503,106.436984 126.565474,102.617063 129.303524,101.186851 L129.284478,101.172916 C131.404292,100.425035 133.978646,99.4108286 136.395997,98.1690062 C147.029558,92.7113875 135.44522,77.5457728 131.94171,72.1428646 C128.441288,66.7399563 125.827811,59.3824422 125.153465,40.3143256 C124.911524,33.4750117 123.031592,27.2911902 120.115432,25.3721977 C118.958748,24.6119299 117.026309,24.1618595 114.712942,23.9363083 C116.734951,22.7430026 118.61025,22.0555098 118.61025,22.0555098 C110.149525,21.3767914 98.4421579,22.8596492 91.996234,26.5856327 L92.0307234,26.6073104 C87.3103016,29.3779267 83.6101498,36.9269272 84.217576,48.3903006 C85.4442679,71.4429846 79.3211035,81.0854313 79.3211035,81.0854313 C79.3211035,81.0854313 86.4969683,97.2544138 98.8246304,101.916667 C105.284968,104.360054 114.842149,103.81966 120.342444,103.216297 C124.469339,103.456816 125.069558,108.628496 125.069558,108.628496 L125.07728,108.628496 C126.307575,115.36355 112.912799,116.994023 109.509153,122.407254 C106.851921,126.63647 113.166579,134.151405 113.166579,134.151405 C115.801676,137.421125 124.169744,137.645644 132.403971,136.341369 C134.907288,135.94446 136.955549,135.279678 138.619279,134.511668 C140.189321,134.7398 141.843271,135.233225 143.549212,136.112204 C151.929119,140.424518 156.047262,136.172592 156.047262,136.172592 C155.963355,140.106062 151.24911,141.887247 146.319178,140.97059 C147.203549,142.154089 148.302579,142.628417 148.302579,142.628417 C148.302579,142.628417 145.978916,143.122359 143.050916,140.955622 C140.51414,139.076888 136.191634,138.05752 135.939397,138.000229 C133.189507,137.651321 130.697001,137.741645 128.859794,137.929002 C124.031786,139.464506 120.277583,139.594572 120.277583,139.594572 C120.277583,139.594572 115.146377,140.418841 107.969483,139.501668 C106.349508,139.63896 104.701221,140.151482 103.054478,140.900395 C102.822318,141.060397 102.525297,141.242593 102.135103,141.455757 C95.7998541,144.915931 95.811179,149.159082 91.2565125,150.80762 C91.2565125,150.80762 92.4368753,149.294826 92.6834492,147.69016 C91.8062846,148.345652 90.9584619,148.975338 90.1466729,149.545668 C84.3333987,153.631914 76.4945129,147.808355 76.4945129,147.808355 C76.4945129,147.808355 83.7676688,150.970202 90.3669935,143.541978 C92.3483352,141.311755 94.2920989,139.807736 96.1359976,138.827078 C101.145204,138.512752 105.576841,137.820614 105.576841,137.820614 C98.1755081,137.721516 91.4958796,134.470377 87.6587995,132.155508 C81.5392385,128.12036 75.6899306,122.058862 71.2778548,112.987262 C74.1245214,114.481474 76.4502428,115.18187 76.4502428,115.18187 C68.1794666,106.484984 65.04453,91.4798878 63.915644,83.3626219 C63.8132052,82.1140897 63.7256946,80.8469766 63.6603191,79.5416695 C63.6603191,79.5416695 78.5134326,68.8850161 77.467939,33.8001772 C77.4329348,32.6280331 76.4224453,25.3752945 79.6804115,22.3156422 C83.5540401,18.6794664 87.9182425,16.2200799 92.4512888,14.6711567 C90.1235083,16.8136359 89.37658,18.757919 89.37658,18.757919 C103.935761,12.8125521 120.343989,14.4259922 124.098191,17.4980318 C130.563161,24.9376115 129.451777,41.2392408 129.814174,47.497902 C130.510655,59.5470894 135.695912,64.7394144 137.610849,68.2326207 C140.134756,72.8344864 148.131161,79.2185686 149.569422,100.431229 C150.640654,98.6686255 151.290806,96.1953033 151.290806,96.1953033 C154.414933,117.111702 147.115009,125.128837 145.416275,126.681373" id="path18" fill="#FCD13B"></path>
                        <path d="M110.483094,71.9188617 C108.983061,73.6659809 106.117348,75.0481923 102.645753,76.0252371 C104.373314,69.9879981 103.63874,59.4521205 103.63874,59.4521205 C100.143981,77.5942896 90.7726306,77.7202267 90.7726306,77.7202267 L90.7726306,77.7202267 C89.1145632,77.763066 87.4914999,77.7279687 85.956462,77.6087414 C85.956462,77.6087414 91.0552382,67.1957041 90.3901581,56.5695027 C90.3901581,56.5695027 89.8702425,51.9361527 93.8025546,50.5807804 C97.8352465,49.1897948 100.441002,51.9149912 106.102934,51.0019471 C110.69209,50.2618086 110.63701,48.0955871 114.759271,48.1580395 C118.217482,48.209137 118.681803,62.3626096 110.483094,71.9188617" id="path20" fill="#B4131D"></path>
                        <path d="M147.438283,134.508055 C146.929693,134.34444 146.338224,134.130243 145.741093,133.86753 C145.707633,133.759142 145.684469,133.648173 145.684469,133.528945 C145.684469,132.89255 146.199237,132.376414 146.83652,132.376414 C147.473287,132.376414 147.987541,132.89255 147.987541,133.528945 C147.987541,133.943919 147.767735,134.304181 147.438283,134.508055" id="path22" fill="#FFFFFF"></path>
                        <path d="M88.5282425,141.844923 C88.0644366,141.672018 87.7303522,141.228141 87.7303522,140.703747 C87.7303522,140.028642 88.2775505,139.482054 88.9498374,139.482054 C89.5413058,139.482054 90.0329091,139.902705 90.1466729,140.461164 C89.6385969,140.974719 89.0615421,141.447499 88.5282425,141.844923" id="path24" fill="#FFFFFF"></path>
                        <path d="M106.848833,96.6758257 C106.489525,98.1746837 104.744462,99.0113396 103.0169,98.5581725 C101.389204,98.1333928 100.33496,96.7104067 100.543955,95.3008402 L100.540867,95.3008402 C100.540867,95.3008402 100.543955,95.2930982 100.544985,95.2838077 C100.559913,95.2027744 101.563196,91.4571778 100.197516,82.3081568 C100.197516,82.3081568 100.285542,81.3605317 101.275955,81.5912443 C101.58636,81.6629872 101.813373,81.8854416 101.909635,82.1362836 C104.440234,86.8295053 107.34198,94.634509 106.848833,96.6758257" id="path26" fill="#FFFFFF"></path>
                        <path d="M136.980258,90.7103295 C136.925178,92.192155 135.439043,93.3126856 133.724351,93.2151359 C132.111583,93.124296 130.846284,91.9841523 130.773701,90.6148444 L130.772157,90.6148444 C130.772157,90.6148444 130.773701,90.6091669 130.773701,90.5998764 C130.772157,90.5203915 131.005347,86.7985372 127.980056,78.4350746 C127.980056,78.4350746 127.881735,77.5246113 128.85825,77.5535149 C129.164537,77.5633215 129.422436,77.7279687 129.558849,77.9468103 C132.83895,81.8880223 137.05387,88.692239 136.980258,90.7103295" id="path28" fill="#FFFFFF"></path>
                        <path d="M129.960368,95.6260057 C129.167111,96.2438201 127.279972,97.2693817 122.992469,98.0239721 C115.39398,99.362828 111.41225,98.9979201 109.841179,98.7114648 C109.606445,98.6082376 109.133888,98.4415258 109.368622,97.8330019 C109.716605,96.9545389 110.149525,95.1583868 109.806689,92.0306045 C109.803601,92.0146043 109.797423,91.9996364 109.797423,91.9826039 C109.79485,91.7209231 110.006419,91.507243 110.265862,91.5051784 C110.433677,91.50363 110.576267,91.5960183 110.660174,91.7266006 L110.664293,91.7260845 C110.664293,91.7260845 112.390824,93.4861072 112.668799,93.9098546 C114.257887,93.9712747 123.000706,93.2910079 126.48414,91.625438 C126.48414,91.625438 126.608714,91.1634966 126.631879,89.1923744 C126.631879,89.190826 126.630849,89.1882454 126.630849,89.1861808 C126.630849,88.9456616 126.821828,88.7479816 127.064284,88.7454009 C127.219229,88.7443687 127.34998,88.8279827 127.425136,88.9487584 L127.436976,88.9456616 C127.436976,88.9456616 129.071364,90.8011694 130.215178,94.3227631 C130.432925,94.8760605 130.279009,95.3550345 129.960368,95.6260057" id="path30" fill="#FFFFFF"></path>
                        <path d="M122.241938,44.8289644 C121.569136,45.5587803 120.970461,44.8475453 120.970461,44.8475453 C116.99182,36.7478281 114.095736,34.297732 114.040141,34.2419894 C114.032934,34.2326989 114.028816,34.2306344 114.028816,34.2306344 L114.03036,34.2275376 C113.982487,34.1764401 113.947482,34.1160523 113.905271,34.0628903 C113.703997,33.9302434 112.581803,33.4280434 107.51031,33.8471456 C102.90674,34.2275376 100.069854,34.9903861 98.9090524,35.3594231 C99.5870017,38.584755 100.007567,43.2413311 99.952487,46.6612461 C99.9844026,46.9213785 99.8871114,47.2140274 99.6482591,47.4189333 C98.890006,48.0604899 98.3839891,47.2837057 98.3839891,47.2837057 C95.4287065,38.756112 92.8543521,35.9663987 92.808023,35.9039463 C92.8003015,35.8967204 92.7966981,35.8925913 92.7966981,35.8925913 L92.7966981,35.8925913 C91.976158,34.7648348 92.2515589,33.0605548 93.4792804,31.9586051 C94.7759808,30.7921385 96.678563,30.7296861 97.6710355,31.8615716 C97.9351115,32.1640271 98.1852887,32.7142278 98.417449,33.4419791 L98.8163942,31.159111 C105.449179,28.9500502 112.917947,29.7041245 112.917947,29.7041245 C112.917947,29.7041245 113.291153,30.4664569 113.577879,31.326855 C113.723044,30.9454308 113.933069,30.5784583 114.223398,30.2429701 C115.370816,28.9232112 117.249204,28.6300461 118.372942,29.6344462 C119.906436,30.9991089 121.894984,38.8681135 122.451963,44.0382446 C122.51425,44.2942479 122.451963,44.5967034 122.241938,44.8289644" id="path32" fill="#FFFFFF"></path>
                        <path d="M123.625634,125.120579 C121.10533,125.207806 119.016402,126.427951 118.310655,128.047585 C118.974191,123.394105 124.696866,122.090347 126.493406,122.381963 C127.835406,122.599256 128.67036,125.620715 129.063128,127.494287 C128.160225,126.025881 126.048132,125.036965 123.625634,125.120579" id="path34" fill="#FFFFFF"></path>
                        <path d="M136.271423,123.222748 C133.952393,123.798756 132.269102,125.295549 131.867583,126.925506 C131.64263,125.02561 131.480478,121.942732 132.686579,121.362079 C134.333322,120.570843 140.366402,120.219871 142.404368,124.682896 C141.237389,123.245974 138.774739,122.598224 136.271423,123.222748" id="path36" fill="#FFFFFF"></path>
                    </g>
                </g>
            </g>
        </g>
    </g>
</svg>