<svg width="200" height="200" viewBox="0 0 200 200" fill="none" xmlns="http://www.w3.org/2000/svg">
<g clip-path="url(#clip0_11_242159)">
<path d="M182.89 14.0792C172.049 4.07858 157.762 0 133.89 0L40.7509 0.276514L38.0434 14.0792L53.5051 35.4974L28.4921 162.371L8.19143 183.19L5 199.7C5 199.7 72.1698 199.988 105.259 199.988C128.429 199.988 144.167 195.921 159.214 185.955C177.418 173.893 188.72 153.742 189.193 132.07C189.481 119.189 186.739 96.1346 159.387 85.869C195.092 79.4631 205.91 35.3246 182.879 14.0676L182.89 14.0792ZM121.078 142.681C118.532 144.064 114.603 144.501 108.474 144.501H96.6873L100.57 125.065L117.161 125.007C119.396 125.007 121.274 125.376 122.691 126.182C127.588 128.971 126.804 139.57 121.078 142.681ZM121.608 77.4008H109.96L114.246 55.7175H125.733C132.53 55.7175 135.687 58.1716 135.618 63.5405C135.572 67.8841 131.977 77.4008 121.608 77.4008Z" fill="white"/>
<path d="M159.294 93.0123C147.923 86.9636 132.449 85.6962 122.287 85.6962H99.429L106.999 47.4221H121.723C135.019 47.4221 138.832 50.2449 141.643 54.9571C145.906 62.1004 144.662 76.7787 131.597 83.4035V83.6109C137.807 83.6109 147.554 82.8965 156.99 80.0047C186.969 70.8106 190.702 42.491 181.162 26.2228C173.431 13.0538 157.727 8.88306 129.396 8.88306L48.4929 9.13653L47.8823 12.2703L63.3555 33.7002L37.0406 166.876L16.6823 187.695L16.1523 190.829C32.4897 190.898 72.492 191.071 105.236 191.071C130.087 191.071 142.761 186.048 154.133 178.524C182.637 159.641 191.404 110.087 159.271 92.9778L159.294 93.0123ZM125.03 149.87C120.386 152.474 114.441 152.831 108.473 152.831H86.1218L91.8595 124.189L77.7342 118.463L78.172 116.816L116.826 116.677C129.327 116.677 133.913 124.846 133.959 132.681C134.005 139.616 130.514 146.806 125.041 149.87H125.03Z" fill="#1A325D"/>
</g>
<defs>
<clipPath id="clip0_11_242159">
<rect width="190.022" height="200" fill="white" transform="translate(5)"/>
</clipPath>
</defs>
</svg>
