<?xml version="1.0" encoding="UTF-8"?>
<svg width="200px" height="200px" viewBox="0 0 200 200" version="1.1" xmlns="http://www.w3.org/2000/svg" xmlns:xlink="http://www.w3.org/1999/xlink">
    <!-- Generator: Sketch 54.1 (76490) - https://sketchapp.com -->
    <title>cal-st-east-bay</title>
    <desc>Created with Sketch.</desc>
    <g id="cal-st-east-bay" stroke="none" stroke-width="1" fill="none" fill-rule="evenodd">
        <g id="cal-st-east-bay_BGL">
            <g id="cal-st-east-bay" transform="translate(0.000000, 22.000000)">
                <g id="g10" transform="translate(99.999998, 78.435899) scale(-1, 1) rotate(-180.000000) translate(-99.999998, -78.435899) translate(0.000000, 0.871799)" fill-rule="nonzero">
                    <g id="g12">
                        <polyline id="path14" fill="#444142" points="145.59615 92.1048695 122.976792 92.1048695 122.976792 81.9270492 145.59615 81.9270492 145.59615 92.1048695"></polyline>
                        <path d="M105.119228,39.3164093 L10.25641,39.3164093 L0,49.5728193 C2.42988455,52.9056397 18.4410252,51.0191013 20.719102,60.1573062 L36.7648709,124.531792 C39.0119221,133.543586 38.6267939,136.702561 37.8885888,139.894868 L36.9816657,143.821791 L132.646151,143.821791 L125.086664,117.66833 L121.921023,118.723459 C121.419228,118.890766 120.936023,119.06051 120.456279,119.229741 C117.51051,120.267946 114.966407,121.164869 107.92769,121.164869 L79.9308954,121.164869 L75.7983314,104.584356 L98.3648693,104.584356 C103.358844,104.584356 107.002177,104.504228 109.929356,104.440126 C112.090382,104.392561 113.960895,104.351023 115.873843,104.351023 L120.129741,104.351023 L112.682818,78.4284596 L109.274869,79.5647416 C105.792818,80.7266646 102.194485,81.9270492 94.3143566,81.9270492 L70.1497418,81.9270492 L65.1762804,61.974101 L93.5687156,61.974101 C101.816921,61.974101 106.045638,63.2261523 110.135254,64.4380753 L116.678202,66.3761522 L114.023972,60.112178 L105.119228,39.3164093 L105.119228,39.3164093" id="path16" fill="#444142"></path>
                        <path d="M119.388459,75.5243571 L137.049997,75.5243571 C140.67692,75.5243571 140.692304,75.5819212 141.447432,78.6112801 L144.426919,90.5669208 C144.592304,91.2310234 144.678202,91.7002541 144.720509,92.0237156 C144.330766,92.0678182 143.723073,92.1048695 142.782048,92.1048695 L123.521664,92.1048695 L119.388459,75.5243571 Z M137.049997,69.1141008 L111.182946,69.1141008 L118.513074,98.5151257 L142.782048,98.5151257 C145.521791,98.5151257 148.335894,98.3343565 150.024355,96.1748694 C151.632047,94.1160233 151.242304,91.4007669 150.647432,89.0169209 L147.667945,77.0607673 C146.00256,70.3801264 142.651278,69.1141008 137.049997,69.1141008 L137.049997,69.1141008 Z M108.766536,32.9137171 L126.42833,32.9137171 C130.055125,32.9137171 130.07051,32.9712812 130.825638,36.0011529 L134.64615,51.3296141 C134.811535,51.9932038 134.897433,52.4624346 134.93974,52.7869218 C134.549997,52.8294859 133.943586,52.86705 133.001279,52.86705 L113.741023,52.86705 L108.766536,32.9137171 Z M126.42833,26.5034609 L100.560895,26.5034609 L108.732433,59.2773062 L133.001279,59.2773062 C135.741022,59.2773062 138.555125,59.0970498 140.243586,56.9370499 C141.852561,54.8778191 141.461535,52.1634602 140.866663,49.7796141 L137.044868,34.451153 C135.379484,27.7703839 132.028202,26.5034609 126.42833,26.5034609 Z M88.3688439,108.351408 C88.6738439,104.843715 88.2692286,100.714613 86.5755107,93.9207669 L70.52987,29.547307 C69.0625624,23.6614097 67.6412804,19.8232046 65.971024,16.6666662 L65.971024,16.6666662 L140.465381,16.6666662 C159.501278,16.6666662 165.178201,23.7835891 167.843586,34.4701273 L171.892303,50.7161526 C172.653842,53.7694858 172.671791,55.770255 171.944867,56.8294858 C170.370509,59.1296139 163.623073,60.1587164 156.847432,61.0151267 L153.25256,61.4693574 L154.783329,67.5205111 L157.079483,67.6967932 C171.410252,68.8025624 176.941021,70.9660239 179.419226,80.9105108 L182.206406,92.0993567 C183.614098,97.7414078 183.412816,101.464356 181.575636,103.816664 C179.224354,106.825895 173.620508,108.351408 164.916663,108.351408 L88.3688439,108.351408 Z M140.465381,10.25641 L53.8466653,10.25641 L57.5606396,15.3499996 C59.9910241,18.6819226 62.0312805,21.959102 64.3098702,31.0973069 L80.3555108,95.4712797 C82.6021774,104.483715 82.2170492,107.642177 81.4788441,110.835382 L80.5719211,114.761664 L164.916663,114.761664 C175.997431,114.761664 182.896149,112.538074 186.626918,107.762946 C190.766662,102.463459 189.637175,95.4006386 188.426918,90.5488439 L185.639739,79.3610237 C183.46538,70.6380752 178.935893,66.3096137 172.849996,64.0098702 C174.71538,63.1144856 176.194867,61.9701267 177.234611,60.4502549 C179.632047,56.9485883 178.964098,52.5801269 178.112816,49.1661526 L174.064098,32.9187171 C170.153842,17.2451278 159.792304,10.25641 140.465381,10.25641 L140.465381,10.25641 L140.465381,10.25641 Z" id="path18" fill="#918F90"></path>
                        <path d="M160.903842,78.7605109 L157.924355,66.8043573 C156.25897,60.1237164 152.907688,58.8576908 147.306407,58.8576908 L121.439356,58.8576908 L128.769228,86.8615363 L153.038458,86.8615363 C155.778201,86.8615363 158.592304,86.680126 160.280765,84.5212799 C161.888457,82.4624338 161.498714,81.1443569 160.903842,78.7605109 Z M151.123073,39.5232041 L147.301278,24.194743 C145.635894,17.5139739 142.284612,16.2474355 136.684612,16.2474355 L110.817305,16.2474355 L118.988843,49.0208962 L143.257689,49.0208962 C145.997432,49.0208962 148.811535,48.8406398 150.499996,46.6806399 C152.108971,44.6214091 151.717945,41.9070502 151.123073,39.5232041 L151.123073,39.5232041 Z M196.883328,97.506536 C193.152559,102.281664 186.253841,104.505254 175.173073,104.505254 L90.8293567,104.505254 L91.7352541,100.578972 C92.4744849,97.3857668 92.8585874,94.2273053 90.6110234,85.2148697 L74.5652545,20.8408969 C72.2871777,11.7027305 56.2770499,13.5897433 53.8466653,10.25641 L64.104101,0 L150.721791,0 C170.048714,0 180.410252,6.98867931 184.320508,22.6628199 L188.369226,38.9097426 C189.220508,42.3237169 189.888457,46.6921783 187.491021,50.1938449 C186.451277,51.7137167 185.732047,52.7779474 183.97179,54.603332 C190.057688,56.9035883 193.72179,60.3816652 195.896149,69.1041008 L198.683328,80.2924339 C199.893585,85.1442286 201.023072,92.207049 196.883328,97.506536 L196.883328,97.506536 Z" id="path20" fill="#444142"></path>
                        <polyline id="path22" fill="#918F90" points="57.2761524 94.9329463 70.1497418 81.9270492 65.1762804 61.974101 49.73705 61.974101 57.2761524 94.9329463"></polyline>
                        <polyline id="path24" fill="#918F90" points="67.0071778 133.973074 79.9308954 121.164869 75.9910237 105.358587 59.94346 106.098715 67.0071778 133.973074"></polyline>
                        <path d="M122.389356,154.078201 L132.646151,143.821791 L125.086664,117.66833 C125.086664,117.66833 124.362433,120.308459 114.586792,128.000766 C117.952177,140.982048 122.389356,154.078201 122.389356,154.078201" id="path26" fill="#918F90"></path>
                        <path d="M94.8638438,49.5728193 L0,49.5728193 L3.71394863,54.6660243 C6.14433318,57.9988447 8.18408954,61.2755113 10.4627433,70.4137162 L26.5084609,134.788458 C28.7555121,143.799996 28.3703839,146.958971 27.6321788,150.151278 L26.7252557,154.078201 L122.389356,154.078201 L114.830254,127.92474 L111.664613,128.979484 C111.162818,129.147433 110.679613,129.316663 110.199869,129.485894 C107.2541,130.524356 104.709997,131.421792 97.6712796,131.421792 L69.6744854,131.421792 L65.5419214,114.840766 L88.1084593,114.840766 C93.1024336,114.840766 96.7457668,114.760638 99.6729462,114.696536 C101.833972,114.648971 103.704485,114.607433 105.617433,114.607433 L109.873331,114.607433 L102.426408,88.6848696 L99.0184591,89.8211516 C95.5373053,90.9830746 91.9375618,92.1834592 84.0579466,92.1834592 L59.8933318,92.1834592 L54.9198704,72.230511 L83.3123056,72.230511 C91.5610234,72.230511 95.7892284,73.4825623 99.8788437,74.6944853 L106.421792,76.6325622 L103.767562,70.368588 L94.8638438,49.5728193 L94.8638438,49.5728193" id="path28" fill="#FFFFFF"></path>
                        <path d="M83.3123056,69.0253829 C92.048331,69.0253829 96.6837155,70.4051264 100.82128,71.6306392 L92.7493567,52.7779474 L6.30358959,52.7779474 C9.09805105,56.6106396 11.2414869,60.2889729 13.572692,69.6389726 L29.6183326,134.012817 C31.9501274,143.362817 31.6406402,147.041022 30.7552556,150.873073 L118.126536,150.873073 L112.677818,132.02051 C108.997946,133.246151 106.40769,134.62692 97.6712796,134.62692 L67.1699983,134.62692 L61.4393574,111.635638 L88.1084593,111.635638 C96.6921771,111.635638 101.03269,111.402305 105.617433,111.402305 L100.268972,92.7829464 C96.5894848,94.008972 92.6416644,95.3885874 84.0579466,95.3885874 L57.3893575,95.3885874 L50.8178192,69.0253829 L83.3123056,69.0253829" id="path30" fill="#ED114C"></path>
                        <path d="M196.883328,97.506536 C193.152559,102.281664 193.689739,101.825382 184.216662,110.158715 L153.628201,104.505254 L148.832048,88.2587157 L153.038458,88.2587157 C155.778201,88.2587157 158.592304,88.0779465 160.280765,85.9184594 C161.888457,83.8596133 161.498714,81.1443569 160.903842,78.7605109 L157.924355,66.8043573 C156.25897,60.1237164 152.907688,58.8576908 147.306407,58.8576908 L140.149996,58.8576908 L137.24615,49.0208962 L140.288458,49.0208962 L143.257689,49.0208962 C145.997432,49.0208962 148.811535,48.8406398 150.499996,46.6806399 C152.108971,44.6214091 151.717945,41.9070502 151.123073,39.5232041 L147.301278,24.194743 C147.234612,23.9217943 147.157689,23.6719225 147.084612,23.4164097 C145.353843,17.4269226 142.056407,16.2474355 136.684612,16.2474355 L136.684612,16.2474355 L155.456406,0.174279483 L155.488458,0.148738458 C155.95897,0.182292303 156.410253,0.235876917 156.870509,0.279447429 C157.210252,0.31149871 157.556406,0.338542299 157.88974,0.375601273 C158.534611,0.447215373 159.157688,0.537360243 159.778201,0.629507677 C160.117945,0.679587162 160.466663,0.719151264 160.799996,0.775741006 C161.74615,0.935997412 162.666663,1.12029228 163.553842,1.33212817 C163.591022,1.34114099 163.624355,1.35266663 163.660252,1.36017945 C174.132047,3.86017939 181.230765,10.0395639 184.379483,22.6628199 L188.429482,38.9097426 C189.280764,42.3237169 189.948713,46.6921783 187.551277,50.1938449 C186.510252,51.7137167 185.938457,52.7779474 184.032047,54.603332 C184.020508,54.6074345 184.011534,54.6108961 183.999995,54.6148704 C190.07179,56.9185883 193.724354,60.3951267 195.896149,69.1041008 L198.683328,80.2924339 C199.893585,85.1442286 201.023072,92.207049 196.883328,97.506536" id="path32" fill="#918F90"></path>
                        <polyline id="path34" fill="#918F90" points="113.611792 52.7779474 118.860125 48.9317936 114.586792 32.7007684 106.361151 32.7007684 112.784484 52.24205 113.611792 52.7779474"></polyline>
                        <path d="M175.985893,61.9125626 C180.00897,58.547178 184.033329,54.6308961 184.033329,54.6308961 C184.033329,54.6308961 186.587175,55.6224345 187.151277,56.0521781 C187.151277,56.0521781 179.516662,58.957819 175.985893,61.9125626" id="path36" fill="#444142"></path>
                        <polyline id="path38" fill="#444142" points="135.601279 53.5282038 111.507433 53.5282038 111.507433 42.7393579 135.601279 42.7393579 135.601279 53.5282038"></polyline>
                        <polyline id="path40" fill="#918F90" points="109.4141 57.730896 122.419356 42.7393579 119.427048 30.8253838 102.119356 31.4664095 109.4141 57.730896"></polyline>
                        <polyline id="path42" fill="#918F90" points="120.120638 97.1353822 132.844868 81.9270492 130.134612 70.22987 112.827048 70.8708957 120.120638 97.1353822"></polyline>
                        <path d="M140.465381,10.25641 L53.8466653,10.25641 L57.5606396,15.3499996 C59.9910241,18.6819226 62.0312805,21.959102 64.3098702,31.0973069 L80.3555108,95.4712797 C82.6021774,104.483715 82.2170492,107.642177 81.4788441,110.835382 L80.5719211,114.761664 L164.916663,114.761664 C175.997431,114.761664 182.896149,112.538074 186.626918,107.762946 C190.766662,102.463459 189.637175,95.4006386 188.426918,90.5488439 L185.639739,79.3610237 C183.46538,70.6380752 178.935893,66.3096137 172.849996,64.0098702 C174.71538,63.1144856 176.194867,61.9701267 177.234611,60.4502549 C179.632047,56.9485883 178.964098,52.5801269 178.112816,49.1661526 L174.064098,32.9187171 C170.153842,17.2451278 159.792304,10.25641 140.465381,10.25641 Z M119.388459,75.5243571 L137.049997,75.5243571 C140.67692,75.5243571 140.692304,75.5819212 141.447432,78.6112801 L144.426919,90.5669208 C144.592304,91.2310234 144.678202,91.7002541 144.720509,92.0237156 C144.330766,92.0678182 143.723073,92.1048695 142.782048,92.1048695 L123.521664,92.1048695 L119.388459,75.5243571 L119.388459,75.5243571 Z M137.049997,69.1141008 L111.182946,69.1141008 L118.513074,98.5151257 L142.782048,98.5151257 C145.521791,98.5151257 148.335894,98.3343565 150.024355,96.1748694 C151.632047,94.1160233 151.242304,91.4007669 150.647432,89.0169209 L147.667945,77.0607673 C146.00256,70.3801264 142.651278,69.1141008 137.049997,69.1141008 L137.049997,69.1141008 Z M108.766536,32.9137171 L126.42833,32.9137171 C130.055125,32.9137171 130.07051,32.9712812 130.825638,36.0011529 L134.64615,51.3296141 C134.811535,51.9932038 134.897433,52.4624346 134.93974,52.7869218 C134.549997,52.8294859 133.943586,52.86705 133.001279,52.86705 L113.741023,52.86705 L108.766536,32.9137171 Z M126.42833,26.5034609 L100.560895,26.5034609 L108.732433,59.2773062 L133.001279,59.2773062 C135.741022,59.2773062 138.555125,59.0970498 140.243586,56.9370499 C141.852561,54.8778191 141.461535,52.1634602 140.866663,49.7796141 L137.044868,34.451153 C135.379484,27.7703839 132.028202,26.5034609 126.42833,26.5034609 Z M88.3688439,108.351408 C88.6738439,104.843715 88.2692286,100.714613 86.5755107,93.9207669 L70.52987,29.547307 C69.0625624,23.6614097 67.6412804,19.8232046 65.971024,16.6666662 L65.971024,16.6666662 L140.465381,16.6666662 C159.501278,16.6666662 165.178201,23.7835891 167.843586,34.4701273 L171.892303,50.7161526 C172.653842,53.7694858 172.671791,55.770255 171.944867,56.8294858 C170.370509,59.1296139 163.623073,60.1587164 156.847432,61.0151267 L153.25256,61.4693574 L154.783329,67.5205111 L157.079483,67.6967932 C171.410252,68.8025624 176.941021,70.9660239 179.419226,80.9105108 L182.206406,92.0993567 C183.614098,97.7414078 183.412816,101.464356 181.575636,103.816664 C179.224354,106.825895 173.620508,108.351408 164.916663,108.351408 L88.3688439,108.351408 Z" id="path44" fill="#FFFFFF"></path>
                        <path d="M115.28551,72.319229 L137.049997,72.319229 C141.802561,72.319229 143.373073,73.0853828 144.557689,77.8355109 L147.537176,89.7916644 C148.721791,94.5428181 147.532048,95.3099976 142.782048,95.3099976 L121.017176,95.3099976 L115.28551,72.319229 Z M104.663972,29.708589 L126.42833,29.708589 C131.180766,29.708589 132.751279,30.4762813 133.935894,35.2264094 L137.756407,50.5543577 C138.941022,55.3044858 137.751279,56.0721781 133.001279,56.0721781 L111.236536,56.0721781 L104.663972,29.708589 Z M83.4655107,94.6965361 C85.7967927,104.046536 85.4873056,107.724869 84.6023056,111.556536 L164.916663,111.556536 C185.60897,111.556536 188.298713,103.279741 185.316662,91.3246131 L182.529483,80.1357672 C179.434611,67.7208957 171.235893,65.5748702 157.326919,64.5016651 L157.248714,64.1952548 C172.998714,62.2030754 177.598714,60.3625626 175.00256,49.9408962 L170.953842,33.6939735 C167.971791,21.739743 161.157688,13.4615381 140.465381,13.4615381 L60.1507677,13.4615381 C62.9452548,17.2937175 65.0885881,20.9720508 67.4198701,30.3220505 L83.4655107,94.6965361 L83.4655107,94.6965361 Z" id="path46" fill="#ED114C"></path>
                        <polyline id="path48" fill="#ED114C" points="104.023972 52.7779474 54.9855114 52.7779474 54.9855114 69.0264085 104.023972 69.0264085 104.023972 52.7779474"></polyline>
                    </g>
                </g>
            </g>
        </g>
    </g>
</svg>