<?xml version="1.0" encoding="UTF-8"?>
<svg width="200px" height="200px" viewBox="0 0 200 200" version="1.1" xmlns="http://www.w3.org/2000/svg" xmlns:xlink="http://www.w3.org/1999/xlink">
    <!-- Generator: Sketch 54.1 (76490) - https://sketchapp.com -->
    <title>cal-lutheran</title>
    <desc>Created with Sketch.</desc>
    <g id="cal-lutheran" stroke="none" stroke-width="1" fill="none" fill-rule="evenodd">
        <g id="cal-lutheran_BGL">
            <g id="cal-lutheran" transform="translate(34.000000, 0.000000)">
                <path d="M65.3247492,0 C71.1518395,5.82056893 76.9789298,11.6849015 82.8060201,17.5492341 C79.5200669,20.8315098 76.2341137,24.1137856 72.9481605,27.4398249 C74.1749164,29.9343545 75.9274247,32.3851204 77.5046823,34.6170678 C79.651505,35.536105 82.2802676,35.6236324 84.5585284,35.404814 C87.8882943,34.8796499 91.1304348,34.04814 94.0220736,32.2538293 C96.519398,30.7221007 99.235786,28.7964989 100.59398,26.1706783 C101.470234,23.9824945 104.405686,23.2822757 106.245819,22.0131291 C106.202007,30.1969365 106.289632,38.4245077 106.245819,46.6083151 C114.351171,46.6958425 122.500334,46.6520788 130.605686,46.6958425 C130.605686,75.3610503 130.605686,103.982495 130.605686,132.647702 C130.51806,135.842451 130.737124,139.080963 130.342809,142.231947 C129.641806,147.352298 128.064548,152.428884 125.479599,156.936543 C124.340468,158.993435 123.332776,161.094092 121.886957,163.019694 C119.871572,165.776805 117.943813,168.752735 115.402676,170.984683 C112.861538,173.260394 110.408027,175.623632 107.779264,177.85558 C105.807692,179.387309 103.66087,180.700219 101.601672,182.14442 C97.9652174,184.595186 94.2849498,187.352298 90.3856187,189.321663 C87.8444816,190.634573 85.3033445,191.859956 82.7622074,193.041575 C77.1979933,195.71116 71.1518395,197.680525 65.2809365,199.649891 C61.9073579,198.380744 58.4023411,197.50547 55.0725753,196.19256 C49.0264214,193.654267 43.1117057,190.809628 37.3722408,187.61488 C29.3107023,183.282276 21.6434783,177.811816 15.2468227,171.203501 C11.5227425,167.833698 9.06923077,163.063457 6.13377926,158.862144 C4.33745819,156.367615 3.54882943,153.610503 2.409699,150.765864 C1.05150502,147.527352 0.262876254,144.026258 0.175250836,140.525164 C0.175250836,109.234136 0.043812709,77.8993435 0,46.6083151 C8.10535117,46.4770241 16.2107023,46.5207877 24.3160535,46.4770241 C24.3160535,38.1619256 24.2284281,29.8905908 24.2284281,21.5754923 C25.5866221,22.4507659 27.0324415,23.238512 28.3906355,24.1575492 C29.4859532,24.8140044 29.8802676,26.1706783 30.6250836,27.1772429 C33.122408,30.4157549 36.4521739,32.9102845 40.3953177,34.04814 C44.3822742,35.4923414 48.7197324,35.7986871 52.8381271,34.8358862 C54.5906355,32.428884 56.2117057,29.8030635 57.6575251,27.2210066 C54.4153846,24.0262582 51.1732441,20.8315098 47.887291,17.6367615 C53.7143813,11.7724289 59.4976589,5.8643326 65.3247492,0 Z" id="Shape" fill="#3B2361" fill-rule="nonzero"></path>
                <path d="M65.2371237,3.76367615 C69.8812709,8.27133479 74.4377926,12.9102845 79.0381271,17.5054705 C75.883612,20.7002188 72.6414716,23.8512035 69.4869565,27.0459519 C71.5461538,30.3719912 73.6491639,33.6105033 75.7083612,36.9365427 C78.4247492,37.8555799 81.2725753,38.2056893 84.1204013,37.9431072 C89.6846154,37.5054705 95.3802676,35.3610503 99.4986622,31.5536105 C101.163545,30.0656455 102.434114,28.2275711 103.573244,26.3019694 C103.573244,33.916849 103.573244,41.5754923 103.573244,49.190372 C111.722408,49.190372 119.871572,49.190372 128.020736,49.190372 C127.976923,77.7242888 128.020736,106.214442 128.020736,134.748359 C128.108361,138.555799 127.75786,142.319475 126.837793,146.039387 C124.997659,153.873085 120.747826,160.962801 115.446488,167.002188 C109.181271,174.091904 101.645485,179.649891 93.4963211,184.463895 C84.9528428,189.40919 75.883612,193.435449 66.5076923,196.455142 C65.0618729,197.02407 63.9665552,196.455142 62.6083612,196.017505 C50.3408027,191.859956 38.4675585,186.126915 27.9525084,178.599562 C19.2337793,172.297593 11.2160535,164.245077 6.61571906,154.442013 C3.94314381,148.884026 2.49732441,142.713348 2.45351171,136.586433 C2.45351171,107.483589 2.45351171,78.380744 2.45351171,49.2778993 C10.6026756,49.2778993 18.7518395,49.2778993 26.9010033,49.2778993 C26.9010033,41.6630197 26.9010033,34.0043764 26.9010033,26.3894967 C28.0839465,28.3150985 29.3107023,30.1094092 30.9755853,31.6411379 C35.6197324,35.7986871 42.0602007,37.9431072 48.1939799,38.0306346 C50.3408027,37.9431072 52.8381271,37.8118162 54.809699,36.8490153 C57.0441472,33.6980306 58.9719064,30.2844639 61.1187291,27.0459519 C57.9204013,23.8512035 54.6782609,20.6564551 51.5237458,17.4617068 C56.0802676,12.9102845 60.5929766,8.27133479 65.2371237,3.76367615 Z" id="Shape" fill="#FEC223" fill-rule="nonzero"></path>
                <path d="M65.2371237,12.6039387 C66.9020067,14.1794311 68.4792642,15.8862144 70.1441472,17.4617068 C68.5230769,19.1247265 66.858194,20.7439825 65.2371237,22.4070022 C63.5722408,20.7877462 61.9511706,19.1247265 60.3301003,17.5054705 C61.9511706,15.8862144 63.5284281,14.1794311 65.2371237,12.6039387 Z" id="Shape" fill="#3B2361" fill-rule="nonzero"></path>
                <path d="M65.2809365,35.6236324 C65.2809365,40.4376368 65.3247492,45.2078775 65.2371237,50.0218818 C57.0003344,49.9781182 48.7197324,50.0218818 40.4829431,49.9781182 C46.6605351,48.1838074 52.7943144,46.3019694 58.9719064,44.5514223 C61.0749164,41.5754923 63.1779264,38.5995624 65.2809365,35.6236324 Z" id="Shape" fill="#FFFFFF" fill-rule="nonzero"></path>
                <path d="M7.88628763,55.273523 C46.1347826,55.273523 84.4270903,55.273523 122.675585,55.273523 C122.675585,82.6695842 122.675585,110.065646 122.675585,137.417943 C122.675585,141.444201 121.843144,145.47046 120.528763,149.234136 C117.198997,158.33698 110.889967,165.557987 103.529431,171.641138 C93.0143813,180.175055 80.3963211,186.477024 67.6906355,190.984683 C66.4638796,191.378556 65.5,191.947484 64.2294314,191.422319 C61.0311037,190.328228 57.8327759,189.102845 54.7220736,187.789934 C43.1555184,182.844639 31.5889632,176.236324 22.4759197,167.483589 C15.8602007,161.006565 10.6026756,153.347921 8.67491639,144.157549 C7.62341137,139.5186 7.97391304,135.054705 7.93010033,130.371991 C7.88628763,105.382932 7.88628763,80.3063457 7.88628763,55.273523 Z" id="Shape" fill="#3B2361" fill-rule="nonzero"></path>
                <path d="M20.4167224,67.1334792 C21.7749164,67.0021882 23.1769231,67.0897155 24.5351171,67.0897155 C37.3284281,67.0897155 50.1655518,67.0897155 63.0026756,67.0897155 C63.0026756,79.9562363 63.0026756,92.8227571 63.0026756,105.689278 C58.4023411,101.531729 53.9334448,97.2428884 49.2892977,93.1291028 C49.2454849,89.0153173 49.2892977,84.9015317 49.2892977,80.7877462 C44.2070234,80.7877462 39.1247492,80.7877462 34.0862876,80.7877462 C34.0862876,99.2560175 34.0862876,117.724289 34.0862876,136.148796 C34.0862876,139.387309 35.7511706,142.407002 37.6789298,144.901532 C40.9210702,148.92779 45.0394649,152.122538 49.2892977,154.967177 C49.2892977,148.09628 49.2892977,141.269147 49.2892977,134.398249 C53.6267559,138.293217 57.8765886,142.319475 62.1702341,146.258206 C62.783612,146.827133 63.0026756,147.089716 62.9588629,147.921225 C62.9588629,157.680525 62.9588629,167.483589 62.9588629,177.242888 C52.1809365,172.954048 41.3153846,167.308534 32.6404682,159.5186 C27.3829431,154.748359 22.6511706,148.840263 20.9862876,141.838074 C20.1100334,138.599562 20.4167224,135.492341 20.3729097,132.166302 C20.3729097,111.90372 20.3729097,91.5973742 20.3729097,71.3347921 C20.3729097,69.9343545 20.2852843,68.5339168 20.4167224,67.1334792 Z" id="Shape" fill="#FFFFFF" fill-rule="nonzero"></path>
                <path d="M67.7782609,67.0897155 C74.1311037,67.0897155 80.4839465,67.0897155 86.880602,67.0897155 C85.0842809,69.2778993 83.2441472,71.4223195 81.4478261,73.6105033 C81.4916388,100.656455 81.4478261,127.746171 81.4916388,154.792123 C84.2080268,152.954048 86.880602,150.984683 89.290301,148.708972 C92.8829431,145.295405 96.0812709,141.531729 96.6070234,136.367615 C100.331104,139.912473 104.142809,143.326039 107.86689,146.827133 C104.580936,153.479212 99.4110368,158.599562 93.5839465,163.063457 C85.7852843,168.92779 76.8036789,173.522976 67.7782609,177.111597 C67.8220736,140.437637 67.8220736,103.763676 67.7782609,67.0897155 Z" id="Shape" fill="#FFFFFF" fill-rule="nonzero"></path>
            </g>
        </g>
    </g>
</svg>