<?xml version="1.0" encoding="UTF-8"?>
<svg width="200px" height="200px" viewBox="0 0 200 200" version="1.1" xmlns="http://www.w3.org/2000/svg" xmlns:xlink="http://www.w3.org/1999/xlink">
    <title>humboldt-st_BGL</title>
    <defs>
        <linearGradient x1="0.0368495077%" y1="50.0089362%" x2="99.9825598%" y2="50.0089362%" id="linearGradient-1">
            <stop stop-color="#3B9F4E" stop-opacity="0" offset="0%"></stop>
            <stop stop-color="#3B9F4E" offset="100%"></stop>
        </linearGradient>
        <linearGradient x1="-0.0068627451%" y1="50.0080081%" x2="100.021289%" y2="50.0080081%" id="linearGradient-2">
            <stop stop-color="#3B9F4E" offset="0%"></stop>
            <stop stop-color="#3B9F4E" stop-opacity="0" offset="100%"></stop>
        </linearGradient>
        <linearGradient x1="49.9939437%" y1="0.033122807%" x2="49.9939437%" y2="99.9759298%" id="linearGradient-3">
            <stop stop-color="#3B9F4E" offset="0%"></stop>
            <stop stop-color="#3B9F4E" stop-opacity="0" offset="100%"></stop>
        </linearGradient>
        <linearGradient x1="50.0060224%" y1="0.0100917431%" x2="50.0060224%" y2="100.026847%" id="linearGradient-4">
            <stop stop-color="#3B9F4E" offset="0%"></stop>
            <stop stop-color="#3B9F4E" stop-opacity="1.003421e-08" offset="100%"></stop>
            <stop stop-color="#3B9F4E" stop-opacity="8.615977e-09" offset="100%"></stop>
            <stop stop-color="#3B9F4E" stop-opacity="0" offset="100%"></stop>
        </linearGradient>
    </defs>
    <g id="humboldt-st_BGL" stroke="none" stroke-width="1" fill="none" fill-rule="evenodd">
        <g id="humboldt-st" transform="translate(0.000000, 33.000000)" fill-rule="nonzero">
            <g id="Group">
                <g>
                    <path d="M195.845847,61.2888143 C175.917951,59.5729683 166.255029,35.6414323 164.539183,30.8852276 C163.846824,28.9586637 162.010568,27.6943562 159.963594,27.6943562 C159.301337,27.6943562 158.669184,27.8147664 158.067132,28.0856895 L145.9358,33.2332274 C143.557698,34.2567145 142.082673,36.484304 141.93216,38.8925089 C141.540826,39.0430217 141.149493,39.1935345 140.788262,39.3440473 L140.818365,30.79492 L153.160415,1.60418671e-15 L93.3466262,5.77969172 L93.3466262,51.1442512 C88.4700113,52.2279434 83.2923708,53.3417382 78.0846277,54.4856355 L78.0846277,5.80979428 L19.8060695,0.301025611 L30.6429915,27.7545613 L30.6429915,65.0516345 C25.7663766,66.0149164 15.11007,68.0016854 12.8824804,68.2124034 C12.7921728,68.2124034 12.6717625,68.2124034 12.5513523,68.2124034 C12.0095062,68.2124034 11.3773524,68.1521982 10.6849935,68.1220957 C9.7518141,68.0618906 8.78853214,67.9715829 7.85535275,67.9715829 C6.56094262,67.9715829 4.63437872,68.0919931 3.03894298,69.0853776 C1.26289188,70.1690698 0.20930224,71.8548133 0.0286868736,73.8114797 C-0.36264642,77.9656331 3.30986603,81.6381456 7.37371177,85.310658 C7.43391689,85.3708632 15.1702751,92.444965 17.57848,92.6556829 C17.9096081,92.6857855 18.2708389,92.7158881 18.6320696,92.7158881 C20.799454,92.7158881 25.9469919,91.6020933 30.673094,90.3979909 L30.673094,106.292143 L19.8662746,133.745679 L78.1147303,128.206808 L78.1147303,78.8988125 C83.0214477,77.6947101 88.1689857,76.4605051 93.3767287,75.2263001 L93.3767287,127.905782 L152.949697,133.685474 L140.667852,102.37881 L140.697955,88.6520423 C143.858724,90.0969653 151.444569,92.4148625 160.445235,92.4148625 L160.445235,92.4148625 C178.627182,92.4148625 192.173334,82.8723506 198.555077,65.5332754 L200,61.6500451 L195.845847,61.2888143 Z M140.667852,80.8855816 L140.667852,63.7873269 C142.654621,63.3357885 144.490877,62.9444552 146.026108,62.613327 C146.026108,70.0486596 144.219954,75.437018 140.667852,80.8855816 Z" id="Shape" fill="#FFFFFF"></path>
                    <g transform="translate(24.652582, 64.569993)" id="Path">
                        <path d="M71.8548133,9.78333234 L71.8548133,60.4760452 L113.065219,64.4796858 L103.914041,40.4578421 L103.914041,2.10717927 C94.6725545,4.27456367 83.5647095,6.92358904 71.8548133,9.78333234" fill="#007743"></path>
                        <polygon fill="#007743" points="9.15117856 25.8882025 9.15117856 42.2940983 -8.55566244e-15 65.5332754 41.2104061 61.5296348 41.1803035 17.3691777"></polygon>
                        <path d="M44.9431237,16.4359983 L44.9431237,61.1985066 L50.271277,60.7469682 L50.271277,15.0813831 C48.4952259,15.5329215 46.7191748,15.9844599 44.9431237,16.4359983" fill="#FFC229"></path>
                        <path d="M112.884604,8.55566244e-15 C111.228963,0.391333294 109.483015,0.782666588 107.646758,1.234205 L107.646758,39.3139447 L117.369886,64.9011216 L123.360295,65.4730703 L112.794296,38.4108679 L112.884604,8.55566244e-15 Z" fill="#FFC229"></path>
                    </g>
                </g>
                <path d="M161.55903,31.9388173 C161.227901,31.0357405 160.204414,30.584202 159.301337,30.9454328 L147.170005,36.1230733 C145.484262,36.8455347 144.671493,38.7419961 145.303647,40.4578421 C145.363852,40.6384574 145.454159,40.8491754 145.514364,41.0598933 C144.280159,41.3308163 142.142878,42.1435855 140.908673,42.7155341 C140.095903,43.0767649 139.313237,43.4379956 138.650981,43.6487135 C135.309596,44.7324057 131.938109,45.7257903 128.566623,46.6288671 L128.566623,28.4168176 L137.717801,4.6357944 L96.5073951,8.63943502 L96.5073951,53.7330715 L65.8629879,60.5362503 L65.8629879,7.94707612 L24.6224793,3.9434355 L33.8037604,27.1525101 L33.8037604,67.6404547 L33.3221194,67.7608649 C30.7634017,68.302711 16.0733519,71.1022492 13.2136086,71.3731723 C12.5212497,71.4333774 11.5278652,71.3731723 10.4742756,71.2828646 C8.30689117,71.1323518 6.04919909,70.9517364 4.69458384,71.7946081 C3.55068652,72.5170696 3.21955835,73.450249 3.15935322,74.1125053 C2.91853274,76.7916333 6.16960933,79.9825047 9.51099361,82.9927608 C10.0227371,83.4442993 15.3207879,89.2841961 17.849403,89.494914 C18.0902235,89.5250166 18.3611466,89.5250166 18.601967,89.5250166 C21.8530436,89.5250166 34.6466321,85.8224016 38.1987343,84.8290171 L149.036364,57.5560967 C149.69862,66.3761471 148.313903,76.7013256 141.269903,85.4310683 C145.664877,88.0499911 182.660925,99.3986566 195.574924,64.4495832 C174.442926,62.6434296 163.937132,38.5613807 161.55903,31.9388173 Z" id="Path" fill="#007743"></path>
                <polygon id="Path" fill="#FFC229" points="74.9238588 58.5193787 74.9238588 8.72974271 69.5957055 8.27820429 69.5957055 59.6933786"></polygon>
                <path d="M137.597391,43.9798417 L137.627493,30.1928687 L148.253698,3.64240989 L141.962262,4.24446111 L132.329443,29.4704073 L132.329443,45.5752774 C134.075391,45.0635339 135.851442,44.5216878 137.597391,43.9798417 Z" id="Path" fill="#FFC229"></path>
                <polygon id="Path" fill="url(#linearGradient-1)" points="33.8037604 67.6103521 46.0254002 64.9312242 46.0254002 13.5160499 24.6224793 3.9434355 33.8037604 27.1525101"></polygon>
                <polygon id="Path" fill="url(#linearGradient-2)" points="128.53652 46.6288671 128.53652 46.6288671 128.53652 28.4168176 137.687699 4.6357944 116.19447 13.6364602 116.19447 49.3682001"></polygon>
                <polygon id="Path" fill="url(#linearGradient-3)" points="46.0254002 87.2071194 33.8037604 90.458196 33.8037604 90.458196 33.8037604 106.864092 24.6525818 130.103269 24.6525818 130.103269 46.0254002 119.41686"></polygon>
                <path d="M128.53652,104.997733 L128.53652,66.6771727 L128.53652,66.6771727 C128.53652,66.6771727 128.53652,66.6771727 128.53652,66.6771727 C124.713495,67.5802496 120.559341,68.5435315 116.19447,69.5971212 L116.19447,119.386757 L134.918263,128.748654 L137.687699,129.019577 L128.53652,104.997733 Z" id="Path" fill="url(#linearGradient-4)"></path>
                <path d="M146.718467,82.6616327 C146.718467,82.6616327 146.718467,82.6315301 146.718467,82.6616327 C155.990056,72.0053261 151.023133,51.6258922 151.023133,51.6258922 L154.605338,54.1545073 C152.407851,47.6523542 149.367492,41.2405087 146.598057,37.9894321 C146.598057,37.9894321 161.980465,50.6626103 161.468722,69.8981468 C161.468722,69.8981468 158.819696,62.7337373 156.230876,60.4760452 C156.531902,62.4327116 158.789594,69.8981468 155.147184,79.8018894 C168.241798,83.1131711 182.239489,73.1492234 185.340053,68.8445571 C176.881233,65.2924549 172.787285,56.4121994 172.787285,56.4121994 C178.416464,62.4026091 180.734361,64.2689679 190.156463,67.4598393 C172.998003,93.1072214 148.133287,82.8723506 146.718467,82.6616327" id="Path" fill="#FFFFFF"></path>
            </g>
            <g id="Group">
                <g>
                    <path d="M195.845847,61.2888143 C175.917951,59.5729683 166.255029,35.6414323 164.539183,30.8852276 C163.846824,28.9586637 162.010568,27.6943562 159.963594,27.6943562 C159.301337,27.6943562 158.669184,27.8147664 158.067132,28.0856895 L145.9358,33.2332274 C143.557698,34.2567145 142.082673,36.484304 141.93216,38.8925089 C141.540826,39.0430217 141.149493,39.1935345 140.788262,39.3440473 L140.818365,30.79492 L153.160415,1.60418671e-15 L93.3466262,5.77969172 L93.3466262,51.1442512 C88.4700113,52.2279434 83.2923708,53.3417382 78.0846277,54.4856355 L78.0846277,5.80979428 L19.8060695,0.301025611 L30.6429915,27.7545613 L30.6429915,65.0516345 C25.7663766,66.0149164 15.11007,68.0016854 12.8824804,68.2124034 C12.7921728,68.2124034 12.6717625,68.2124034 12.5513523,68.2124034 C12.0095062,68.2124034 11.3773524,68.1521982 10.6849935,68.1220957 C9.7518141,68.0618906 8.78853214,67.9715829 7.85535275,67.9715829 C6.56094262,67.9715829 4.63437872,68.0919931 3.03894298,69.0853776 C1.26289188,70.1690698 0.20930224,71.8548133 0.0286868736,73.8114797 C-0.36264642,77.9656331 3.30986603,81.6381456 7.37371177,85.310658 C7.43391689,85.3708632 15.1702751,92.444965 17.57848,92.6556829 C17.9096081,92.6857855 18.2708389,92.7158881 18.6320696,92.7158881 C20.799454,92.7158881 25.9469919,91.6020933 30.673094,90.3979909 L30.673094,106.292143 L19.8662746,133.745679 L78.1147303,128.206808 L78.1147303,78.8988125 C83.0214477,77.6947101 88.1689857,76.4605051 93.3767287,75.2263001 L93.3767287,127.905782 L152.949697,133.685474 L140.667852,102.37881 L140.697955,88.6520423 C143.858724,90.0969653 151.444569,92.4148625 160.445235,92.4148625 L160.445235,92.4148625 C178.627182,92.4148625 192.173334,82.8723506 198.555077,65.5332754 L200,61.6500451 L195.845847,61.2888143 Z M140.667852,80.8855816 L140.667852,63.7873269 C142.654621,63.3357885 144.490877,62.9444552 146.026108,62.613327 C146.026108,70.0486596 144.219954,75.437018 140.667852,80.8855816 Z" id="Shape" fill="#FFFFFF"></path>
                    <g transform="translate(24.652582, 64.569993)" id="Path">
                        <path d="M71.8548133,9.78333234 L71.8548133,60.4760452 L113.065219,64.4796858 L103.914041,40.4578421 L103.914041,2.10717927 C94.6725545,4.27456367 83.5647095,6.92358904 71.8548133,9.78333234" fill="#007743"></path>
                        <polygon fill="#007743" points="9.15117856 25.8882025 9.15117856 42.2940983 -8.55566244e-15 65.5332754 41.2104061 61.5296348 41.1803035 17.3691777"></polygon>
                        <path d="M44.9431237,16.4359983 L44.9431237,61.1985066 L50.271277,60.7469682 L50.271277,15.0813831 C48.4952259,15.5329215 46.7191748,15.9844599 44.9431237,16.4359983" fill="#FFC229"></path>
                        <path d="M112.884604,8.55566244e-15 C111.228963,0.391333294 109.483015,0.782666588 107.646758,1.234205 L107.646758,39.3139447 L117.369886,64.9011216 L123.360295,65.4730703 L112.794296,38.4108679 L112.884604,8.55566244e-15 Z" fill="#FFC229"></path>
                    </g>
                </g>
                <path d="M161.55903,31.9388173 C161.227901,31.0357405 160.204414,30.584202 159.301337,30.9454328 L147.170005,36.1230733 C145.484262,36.8455347 144.671493,38.7419961 145.303647,40.4578421 C145.363852,40.6384574 145.454159,40.8491754 145.514364,41.0598933 C144.280159,41.3308163 142.142878,42.1435855 140.908673,42.7155341 C140.095903,43.0767649 139.313237,43.4379956 138.650981,43.6487135 C135.309596,44.7324057 131.938109,45.7257903 128.566623,46.6288671 L128.566623,28.4168176 L137.717801,4.6357944 L96.5073951,8.63943502 L96.5073951,53.7330715 L65.8629879,60.5362503 L65.8629879,7.94707612 L24.6224793,3.9434355 L33.8037604,27.1525101 L33.8037604,67.6404547 L33.3221194,67.7608649 C30.7634017,68.302711 16.0733519,71.1022492 13.2136086,71.3731723 C12.5212497,71.4333774 11.5278652,71.3731723 10.4742756,71.2828646 C8.30689117,71.1323518 6.04919909,70.9517364 4.69458384,71.7946081 C3.55068652,72.5170696 3.21955835,73.450249 3.15935322,74.1125053 C2.91853274,76.7916333 6.16960933,79.9825047 9.51099361,82.9927608 C10.0227371,83.4442993 15.3207879,89.2841961 17.849403,89.494914 C18.0902235,89.5250166 18.3611466,89.5250166 18.601967,89.5250166 C21.8530436,89.5250166 34.6466321,85.8224016 38.1987343,84.8290171 L149.036364,57.5560967 C149.69862,66.3761471 148.313903,76.7013256 141.269903,85.4310683 C145.664877,88.0499911 182.660925,99.3986566 195.574924,64.4495832 C174.442926,62.6434296 163.937132,38.5613807 161.55903,31.9388173 Z" id="Path" fill="#007743"></path>
                <polygon id="Path" fill="#FFC229" points="74.9238588 58.5193787 74.9238588 8.72974271 69.5957055 8.27820429 69.5957055 59.6933786"></polygon>
                <path d="M137.597391,43.9798417 L137.627493,30.1928687 L148.253698,3.64240989 L141.962262,4.24446111 L132.329443,29.4704073 L132.329443,45.5752774 C134.075391,45.0635339 135.851442,44.5216878 137.597391,43.9798417 Z" id="Path" fill="#FFC229"></path>
                <polygon id="Path" fill="url(#linearGradient-1)" points="33.8037604 67.6103521 46.0254002 64.9312242 46.0254002 13.5160499 24.6224793 3.9434355 33.8037604 27.1525101"></polygon>
                <polygon id="Path" fill="url(#linearGradient-2)" points="128.53652 46.6288671 128.53652 46.6288671 128.53652 28.4168176 137.687699 4.6357944 116.19447 13.6364602 116.19447 49.3682001"></polygon>
                <polygon id="Path" fill="url(#linearGradient-3)" points="46.0254002 87.2071194 33.8037604 90.458196 33.8037604 90.458196 33.8037604 106.864092 24.6525818 130.103269 24.6525818 130.103269 46.0254002 119.41686"></polygon>
                <path d="M128.53652,104.997733 L128.53652,66.6771727 L128.53652,66.6771727 C128.53652,66.6771727 128.53652,66.6771727 128.53652,66.6771727 C124.713495,67.5802496 120.559341,68.5435315 116.19447,69.5971212 L116.19447,119.386757 L134.918263,128.748654 L137.687699,129.019577 L128.53652,104.997733 Z" id="Path" fill="url(#linearGradient-4)"></path>
                <path d="M146.718467,82.6616327 C146.718467,82.6616327 146.718467,82.6315301 146.718467,82.6616327 C155.990056,72.0053261 151.023133,51.6258922 151.023133,51.6258922 L154.605338,54.1545073 C152.407851,47.6523542 149.367492,41.2405087 146.598057,37.9894321 C146.598057,37.9894321 161.980465,50.6626103 161.468722,69.8981468 C161.468722,69.8981468 158.819696,62.7337373 156.230876,60.4760452 C156.531902,62.4327116 158.789594,69.8981468 155.147184,79.8018894 C168.241798,83.1131711 182.239489,73.1492234 185.340053,68.8445571 C176.881233,65.2924549 172.787285,56.4121994 172.787285,56.4121994 C178.416464,62.4026091 180.734361,64.2689679 190.156463,67.4598393 C172.998003,93.1072214 148.133287,82.8723506 146.718467,82.6616327" id="Path" fill="#FFFFFF"></path>
            </g>
            <path d="M146.718467,82.6616327 C146.718467,82.6616327 146.718467,82.6315301 146.718467,82.6616327 C155.990056,72.0053261 151.023133,51.6258922 151.023133,51.6258922 L154.605338,54.1545073 C152.407851,47.6523542 149.367492,41.2405087 146.598057,37.9894321 C146.598057,37.9894321 161.980465,50.6626103 161.468722,69.8981468 C161.468722,69.8981468 158.819696,62.7337373 156.230876,60.4760452 C156.531902,62.4327116 158.789594,69.8981468 155.147184,79.8018894 C168.241798,83.1131711 182.239489,73.1492234 185.340053,68.8445571 C176.881233,65.2924549 172.787285,56.4121994 172.787285,56.4121994 C178.416464,62.4026091 180.734361,64.2689679 190.156463,67.4598393 C172.998003,93.1072214 148.133287,82.8723506 146.718467,82.6616327" id="Path" fill="#FFFFFF"></path>
        </g>
    </g>
</svg>