<?xml version="1.0" encoding="UTF-8"?>
<svg width="200px" height="200px" viewBox="0 0 200 200" version="1.1" xmlns="http://www.w3.org/2000/svg" xmlns:xlink="http://www.w3.org/1999/xlink">
    <!-- Generator: Sketch 54.1 (76490) - https://sketchapp.com -->
    <title>cal-st-monterey-bay</title>
    <desc>Created with Sketch.</desc>
    <g id="cal-st-monterey-bay" stroke="none" stroke-width="1" fill="none" fill-rule="evenodd">
        <g id="cal-st-monterey-bay_BGL">
            <g id="cal-st-monterey-bay" transform="translate(0.000000, 52.000000)">
                <g id="g10" transform="translate(99.949107, 48.240205) scale(-1, 1) rotate(-180.000000) translate(-99.949107, -48.240205) translate(0.000000, 0.199493)" fill-rule="nonzero">
                    <g id="g12">
                        <path d="M129.262898,73.5006597 C128.490175,69.4387769 120.089157,25.2934345 119.55216,22.4737704 C119.111651,22.4737704 109.703814,22.4737704 109.221371,22.4737704 C109.992873,26.5364268 118.395112,70.6805071 118.932923,73.5006597 C119.373432,73.5006597 128.781269,73.5006597 129.262898,73.5006597 Z M104.583407,18.6337298 L122.727325,18.6337298 L133.900862,77.3390311 L115.755315,77.3390311 L104.583407,18.6337298 L104.583407,18.6337298 Z" id="path14" fill="#0B335E"></path>
                        <path d="M165.96193,29.9696277 C165.187579,25.9074599 161.111446,22.4737704 157.065848,22.4737704 C157.065848,22.4737704 150.765594,22.4737704 147.798062,22.4737704 C148.396536,25.6146558 150.088139,34.5022281 150.517248,36.7507777 C152.881014,36.7507777 160.512973,36.7507777 160.512973,36.7507777 C163.892108,36.7507777 166.781065,34.2786353 165.96193,29.9696277 L165.96193,29.9696277 Z M160.512973,40.5890677 L147.339233,40.5890677 L143.160098,18.6337298 L157.065848,18.6337298 C163.034703,18.6337298 168.598876,23.2997857 169.733533,29.2531698 C170.641014,34.0201925 168.029716,40.5890677 160.512973,40.5890677 L160.512973,40.5890677 Z" id="path16" fill="#0B335E"></path>
                        <path d="M170.834398,66.7240696 C170.059232,62.6577084 165.98595,59.2248331 161.937909,59.2248331 C161.937909,59.2248331 157.435111,59.2248331 154.794093,59.2248331 C155.391345,62.3649857 157.083762,71.2533316 157.510429,73.5006597 C159.709716,73.5006597 165.386255,73.5006597 165.386255,73.5006597 C168.815874,73.5006597 171.618927,70.8502781 170.834398,66.7240696 Z M165.385441,77.3390311 L154.334856,77.3390311 L150.154907,55.3848332 L161.939538,55.3848332 C167.9088,55.3848332 173.470937,60.0488535 174.603965,66.0034589 C175.735365,71.9507361 172.142896,77.3390311 165.385441,77.3390311 L165.385441,77.3390311 Z" id="path18" fill="#0B335E"></path>
                        <path d="M180.650581,48.7771998 C180.650581,48.7771998 192.723049,42.7114493 189.855262,27.6409153 C187.357553,14.5163966 174.660555,3.83842433 161.54992,3.83842433 L81.3374025,3.83842433 C81.9423898,7.01479881 83.722746,16.3635619 84.1547053,18.6337298 C85.8931276,18.6337298 90.2583184,18.6337298 90.2583184,18.6337298 L100.323662,71.519184 L96.1689543,71.519184 C92.1612191,62.6784717 66.4065123,5.85160291 65.4937388,3.83842433 C63.5419831,3.83842433 51.9995916,3.83842433 49.2690064,3.83842433 C49.0349097,7.04740949 44.7922635,65.5226447 44.3550116,71.519184 L40.3832662,71.519184 L30.3188593,18.6337298 C30.3188593,18.6337298 34.6397956,18.6337298 36.4233273,18.6337298 C35.8182179,15.461048 34.0397752,6.1102085 33.6079788,3.83842433 C30.9441621,3.83842433 8.43749597,3.83842433 4.63898207,3.83842433 C5.2425444,7.01479881 7.02241204,16.3635619 7.45339422,18.6337298 C9.55867661,18.6337298 15.9950734,18.6337298 15.9950734,18.6337298 L27.1692207,77.3390311 C27.1692207,77.3390311 21.0893837,77.3390311 18.626768,77.3390311 C19.2310631,80.5154178 21.0117857,89.865443 21.4419537,92.1343488 C24.2501775,92.1343488 56.4437645,92.1343488 59.5822886,92.1343488 C59.8224921,88.8219825 63.6649348,35.8904419 63.6649348,35.8904419 C63.6649348,35.8904419 88.1795398,89.979438 89.1562319,92.1343488 L176.965288,92.1343488 C191.03511,92.1343488 197.810071,80.581372 195.61282,69.0499728 C192.999486,55.3087009 180.650581,48.7771998 180.650581,48.7771998 Z M199.385237,68.3342477 C202.008341,82.1089038 193.682234,95.9747559 176.965288,95.9747559 L86.6841709,95.9747559 C86.6841709,95.9747559 71.0509906,61.4872249 66.3995912,51.2244262 C65.608548,62.1288534 63.1519577,95.9747559 63.1519577,95.9747559 L18.2657298,95.9747559 L13.989333,73.5006597 C13.989333,73.5006597 20.0683964,73.5006597 22.5289358,73.5006597 C21.7565389,69.4387769 13.3547885,25.2934345 12.8164882,22.4737704 C10.7135672,22.4737704 4.27639684,22.4737704 4.27639684,22.4737704 L0,0 L36.7843655,0 L41.061373,22.4737704 C41.061373,22.4737704 36.7398261,22.4737704 34.9570678,22.4737704 C35.518452,25.4144319 38.8902586,43.1409658 41.5519582,57.1232556 C42.8787776,38.832854 45.6989302,0 45.6989302,0 L67.9678355,0 C67.9678355,0 85.2425424,38.1113069 93.5446287,56.429108 C90.7888018,41.9554188 87.4646289,24.4742182 87.0815245,22.4737704 C85.3418808,22.4737704 80.9766901,22.4737704 80.9766901,22.4737704 L76.6998454,0 L161.54992,0 C176.41282,0 190.801013,12.0777605 193.62768,26.923521 C196.40997,41.5393374 187.100657,48.6762329 187.100657,48.6762329 C193.506764,53.7498205 197.946051,60.7808636 199.385237,68.3342477 L199.385237,68.3342477 Z" id="path20" fill="#0B335E"></path>
                        <polyline id="path22" fill="#0B335E" points="182.540453 5.01496171 184.204779 5.01496171 184.204779 0 184.805288 0 184.805288 5.01496171 186.553481 5.01496171 186.553481 5.61624413 182.540453 5.61624413 182.540453 5.01496171"></polyline>
                        <polyline id="path24" fill="#0B335E" points="189.767324 1.04627784 188.322438 5.61624413 187.357553 5.61624413 187.357553 0 187.95969 0 187.95969 4.77402533 189.464016 0 190.068189 0 191.571293 4.77402533 191.571293 0 192.175466 0 192.175466 5.61624413 191.206916 5.61624413 189.767324 1.04627784"></polyline>
                        <path d="M174.603965,66.0034589 C173.470937,60.0488535 167.9088,55.3848332 161.939538,55.3848332 L150.154907,55.3848332 L154.334856,77.3390311 L165.385441,77.3390311 C172.142896,77.3390311 175.735365,71.9507361 174.603965,66.0034589 Z M169.733533,29.2531698 C168.598876,23.2997857 163.034703,18.6337298 157.065848,18.6337298 L143.160098,18.6337298 L147.339233,40.5890677 L160.512973,40.5890677 C168.029716,40.5890677 170.641014,34.0201925 169.733533,29.2531698 L169.733533,29.2531698 Z M122.727325,18.6337298 L104.583407,18.6337298 L115.755315,77.3390311 L133.900862,77.3390311 L122.727325,18.6337298 Z M176.965288,92.1343488 L89.1562319,92.1343488 C88.1795398,89.979438 63.6649348,35.8904419 63.6649348,35.8904419 C63.6649348,35.8904419 59.8224921,88.8219825 59.5822886,92.1343488 C56.4437645,92.1343488 24.2501775,92.1343488 21.4419537,92.1343488 C21.0117857,89.865443 19.2310631,80.5154178 18.626768,77.3390311 C21.0893837,77.3390311 27.1692207,77.3390311 27.1692207,77.3390311 L15.9950734,18.6337298 C15.9950734,18.6337298 9.55867661,18.6337298 7.45339422,18.6337298 C7.02241204,16.3635619 5.2425444,7.01479881 4.63898207,3.83842433 C8.43749597,3.83842433 30.9441621,3.83842433 33.6079788,3.83842433 C34.0397752,6.1102085 35.8182179,15.461048 36.4233273,18.6337298 C34.6397956,18.6337298 30.3188593,18.6337298 30.3188593,18.6337298 L40.3832662,71.519184 L44.3550116,71.519184 C44.7922635,65.5226447 49.0349097,7.04740949 49.2690064,3.83842433 C51.9995916,3.83842433 63.5419831,3.83842433 65.4937388,3.83842433 C66.4065123,5.85160291 92.1612191,62.6784717 96.1689543,71.519184 L100.323662,71.519184 L90.2583184,18.6337298 C90.2583184,18.6337298 85.8931276,18.6337298 84.1547053,18.6337298 C83.722746,16.3635619 81.9423898,7.01479881 81.3374025,3.83842433 L161.54992,3.83842433 C174.660555,3.83842433 187.357553,14.5163966 189.855262,27.6409153 C192.723049,42.7114493 180.650581,48.7771998 180.650581,48.7771998 C180.650581,48.7771998 192.999486,55.3087009 195.61282,69.0499728 C197.810071,80.581372 191.03511,92.1343488 176.965288,92.1343488 L176.965288,92.1343488 Z" id="path26" fill="#9E8B50"></path>
                    </g>
                </g>
            </g>
        </g>
    </g>
</svg>