<?xml version="1.0" encoding="UTF-8"?>
<svg width="200px" height="200px" viewBox="0 0 200 200" version="1.1" xmlns="http://www.w3.org/2000/svg" xmlns:xlink="http://www.w3.org/1999/xlink">
    <!-- Generator: Sketch 54.1 (76490) - https://sketchapp.com -->
    <title>california-pa</title>
    <desc>Created with Sketch.</desc>
    <g id="california-pa" stroke="none" stroke-width="1" fill="none" fill-rule="evenodd">
        <g id="california-pa_BGL">
            <g id="Group-50" transform="translate(0.000000, 17.000000)">
                <path d="M80.0278505,51.4961682 L82.0792523,55.8952336 C82.0792523,55.8952336 76.2091589,59.5073832 68.868972,61.7354206 C60.1717757,64.3756075 53.2343925,60.2671963 45.5904673,70.281215 C56.6194393,64.0157944 59.3082243,82.041028 45.7736449,89.4354206 C32.2390654,96.8288785 23.3203738,65.4690654 -0.000186915888,72.1148598 C16.9185047,72.8662617 18.286729,98.9550467 40.3848598,116.001776 C68.868972,137.975607 84.8390654,113.969065 91.2241121,127.291495 C100.689533,147.041963 63.3250467,139.788692 55.5484112,130.664393 C69.3334579,160.366262 124.725047,156.98215 124.725047,156.98215 C121.091402,160.866262 110.94,160.491495 110.94,160.491495 C135.377383,172.020467 154.328785,155.619533 154.328785,155.619533 C163.131589,162.222336 184.54,164.006449 190.267103,162.74757 L196.282991,157.232617 C196.282991,157.232617 198.788598,130.288692 199.666168,125.02514 C200.543738,119.762523 195.154953,109.110187 195.154953,109.110187 C195.154953,109.110187 201.187664,89.9027103 180.668037,79.8017757 C180.486729,79.7111215 180.685794,78.6746729 180.685794,78.6746729 L177.426916,75.916729 C177.677383,71.405514 180.914766,57.4214019 181.158692,54.7531776 C180.802617,52.0400935 179.489533,50.3354206 179.489533,50.3354206 L181.870841,46.0746729 L180.082991,37.8475701 C180.082991,37.8475701 185.673645,29.2064486 178.897009,21.752243 L177.033458,23.6157944 C177.033458,23.6157944 167.376449,11.4176636 151.281121,16.6690654 L153.144673,19.3802804 C153.144673,19.3802804 142.545607,17.6952336 136.820374,26.2307477 C135.815701,27.7288785 133.703551,29.681215 128.139065,30.2372897 C128.139065,30.2372897 131.504486,31.7653271 137.257757,30.905514 C134.689533,36.441028 126.335327,38.3886916 120.115701,34.6793458 C120.115701,34.6793458 122.169907,42.4400935 131.299813,44.6643925 C131.299813,44.6643925 129.930654,45.9774766 127.533458,46.0914953 C127.533458,46.0914953 128.332523,48.2027103 130.215701,49.1728037 C122.226916,49.1728037 110.928785,40.7279439 101.341869,46.6615888 L98.6026168,40.0999065 L116.121308,28.9157944 L117.72785,21.1111215 C117.72785,21.1111215 109.300748,10.2270093 106.559626,7.48495327 C104.95028,5.87654206 93.5521495,2.12981308 88.0138318,1.00457944 C69.0484112,-2.84588785 69.1381308,5.59803738 52.1923364,5.78775701 C59.986729,8.61485981 65.3128972,9.20925234 68.5035514,9.04570093 C76.84,8.61766355 75.4970093,18.4606542 66.3521495,16.2905607 C61.511028,15.141028 53.6960748,11.481215 43.0437383,15.7185981 C50.9521495,16.1260748 55.5474766,19.3251402 51.4699065,22.9335514 C47.6773832,26.2896262 36.9241121,18.5195327 24.8315888,29.2765421 C31.7185047,27.405514 34.111028,27.8615888 38.9671028,28.5513084 C50.5642991,30.1961682 49.3269159,41.6485047 40.5979439,43.398972 C34.2549533,44.6709346 25.0128972,38.4980374 19.3960748,41.7251402 C24.4699065,41.7251402 30.611028,48.1494393 34.9914019,50.0868224 C46.4194393,55.1391589 58.1390654,58.3905607 80.0278505,51.4961682" id="Fill-1" fill="#000000"></path>
                <g id="Group" transform="translate(45.587509, 9.749533)" fill="#E8261F">
                    <path d="M123.655762,28.9692523 C123.655762,28.9692523 115.939874,25.2271963 111.802491,26.7729907 C113.368846,32.4057009 107.999687,32.4019626 105.363239,37.0197196 C104.873519,37.8814019 103.745482,40.2561682 104.551089,43.0075701 C106.430528,44.5290654 105.923986,43.6384112 111.198753,49.6066355 C111.856697,48.7328037 113.429594,46.9870093 115.289407,45.7851402 C116.028659,45.3000935 116.807164,44.9103738 117.596884,44.6870093 C118.467912,44.4440187 119.344547,44.4085047 120.180061,44.7038318 C119.005295,45.1785981 119.548285,46.6141121 119.548285,46.6141121 C121.072584,46.5804673 121.972584,47.0991589 122.503426,47.4458879 C124.065108,45.7701869 121.486603,44.6402804 121.784734,41.5972897 C121.784734,41.5935514 121.783799,41.5888785 121.783799,41.5860748 C121.783799,41.5870093 121.782865,41.5972897 121.782865,41.5972897 C121.782865,41.5972897 120.770715,40.6150467 118.010902,39.9739252 C116.369781,39.5860748 112.841743,39.0402804 111.082865,39.0103738 C111.082865,39.0103738 113.314641,38.2673832 114.688472,37.7281308 C114.688472,37.7281308 112.288472,37.0028972 109.997818,36.8599065 C109.997818,36.8599065 110.84922,35.9159813 111.934267,35.2804673 C111.936136,35.2785981 111.939874,35.2776636 111.943612,35.2757944 C112.485669,34.5870093 113.314641,34.2505607 114.217444,34.1215888 C116.409968,33.8094393 119.034267,34.7094393 119.034267,34.7094393 C115.750155,32.6907477 116.413706,28.2421495 116.413706,28.2421495 C116.413706,28.2421495 119.730528,28.0645794 123.655762,28.9692523" id="Fill-4"></path>
                    <path d="M117.122398,54.1704673 C116.722398,55.5685981 115.899968,56.7704673 114.766323,57.3013084 C118.534547,58.5050467 116.562584,62.3237383 114.913052,63.9966355 C114.913052,63.9966355 116.256042,64.3284112 117.885014,63.7424299 C117.885014,63.7424299 118.060715,67.0293458 116.670061,69.3928972 C116.670061,69.3928972 121.201837,67.8826168 122.22894,64.0125234 C122.22894,64.0125234 123.282211,64.8349533 123.282211,65.7349533 C127.534547,63.7209346 128.136416,60.2788785 128.205575,58.7237383 C128.275669,57.166729 128.307444,55.4452336 127.386884,55.1583178 C127.386884,55.1583178 127.490622,55.4414953 126.307444,56.7704673 C126.307444,56.7704673 126.787818,54.1704673 125.701837,53.737757 C125.28408,53.5704673 124.720528,53.448972 123.921463,53.5041121 C121.49436,53.673271 120.455108,55.5685981 117.741089,57.4742056 C117.741089,57.4742056 120.522398,52.7714019 117.122398,54.1704673" id="Fill-8"></path>
                    <path d="M124.431089,26.1280374 C125.243239,25.9028037 126.054454,23.9635514 126.054454,23.9635514 C126.054454,23.9635514 117.126416,20.6261682 111.083426,22.5654206 C111.083426,22.5654206 114.059126,20.1308411 117.712398,20.1757009 C117.712398,20.1757009 117.035762,18.3719626 115.321743,17.6953271 C121.319874,16.2971963 127.31707,21.6186916 127.31707,21.6186916 C127.31707,21.6186916 129.031089,19.8149533 128.579687,18.4168224 C128.579687,18.4168224 130.699313,19.4542056 130.745108,21.5738318 C130.745108,21.5738318 132.368472,21.5738318 133.449781,20.3102804 C133.449781,20.3102804 134.30679,26.0383178 124.431089,26.1280374" id="Fill-10"></path>
                    <path d="M80.44922,87.1814953 L79.766977,88.4142056 C79.766977,88.4142056 73.9155751,88.2282243 69.8725844,89.7263551 C69.1277246,90.0011215 68.4548274,90.3291589 67.8781919,90.7366355 C64.1903414,93.3338318 59.8099676,96.206729 53.7996872,93.742243 C45.6520237,90.1338318 38.4445471,106.233832 21.8211826,104.008598 C25.9258555,102.812336 29.7118368,100.524486 32.5660424,97.3413084 C31.8922106,98.0861682 30.0753882,98.5562617 29.1445471,98.9104673 C27.9295938,99.3805607 26.6968835,99.7702804 25.4389396,100.080561 C20.9791265,101.198318 16.2632386,101.339439 11.7585657,100.374019 C11.2978181,100.275888 10.8370704,100.160935 10.3753882,100.036636 C7.83146294,98.6628037 5.11837883,96.8983178 2.21931341,94.6908411 C0.738939579,93.9188785 0.57071528,93.9730841 0.0744535981,92.2441121 C-0.492836121,90.3029907 2.29875266,85.8525234 4.47164986,84.0431776 C11.7146405,77.8908411 23.0894069,60.2123364 41.2632386,55.5674766 L42.8688461,58.3506542 L43.0894069,58.8207477 L48.1968835,69.6899065 L42.1856686,65.3188785 C43.2763228,78.2983178 24.9688461,70.9226168 15.8109022,81.5786916 C16.4398742,81.1001869 17.166977,80.7011215 17.9828648,80.3908411 C24.9866031,77.66 38.0277246,80.7450467 44.3127714,81.0730841 C45.5277246,81.1357009 46.4856686,81.1001869 47.1052947,80.8964486 C48.1968835,80.5413084 49.2333321,79.6637383 50.2707153,78.5553271 C53.2314629,75.3375701 56.0510891,70.1328972 59.402491,69.8226168 C63.9155751,69.424486 68.9688461,68.8656075 68.9688461,68.8656075 L70.4753882,69.1497196 L72.3809957,71.3300935 L63.2323975,74.0609346 L73.6137059,73.9282243 L75.1211826,74.7431776 L75.3959489,76.1085981 L65.9632386,78.5730841 L76.3538929,78.9805607 L78.12679,81.9861682 L69.3856686,84.1758879 L78.5342667,84.5833645 L80.44922,87.1814953 Z" id="Fill-12"></path>
                    <path d="M81.889033,44.6380374 C78.0684723,57.4361682 67.053519,60.527757 67.053519,60.527757 L60.92922,46.8828972 L58.72922,41.9473832 C64.4077246,38.9296262 70.518005,41.3081308 75.5413695,43.1062617 C77.9796872,43.9838318 80.1497807,44.7128037 81.889033,44.6380374" id="Fill-14"></path>
                    <path d="M111.878098,78.3020561 C111.199594,80.0796262 108.735108,82.1226168 108.735108,82.1226168 C106.685575,82.4263551 104.737912,82.4263551 103.026697,82.2852336 C99.3818368,81.9824299 96.8453882,81.0319626 96.8453882,81.0319626 C96.8453882,81.0319626 92.19679,74.2011215 93.4295003,69.8263551 C93.1566031,72.5628037 98.3491265,76.1114019 98.3491265,76.1114019 L98.6229583,64.3609346 L100.127631,59.5805607 L101.632304,62.995514 L101.492117,69.0076636 C103.542584,69.0076636 105.865949,67.6431776 105.865949,67.6431776 C106.352865,68.5282243 106.70707,69.4057944 106.958472,70.2618692 C108.344454,74.9385047 106.685575,78.8478505 106.685575,78.8478505 C108.603332,78.9814953 111.878098,78.3020561 111.878098,78.3020561" id="Fill-16"></path>
                    <path d="M102.549687,31.7657009 C102.549687,31.7657009 100.000155,30.8750467 98.9141732,32.7713084 C97.8281919,34.6666355 97.0197807,38.0815888 98.1366031,38.9096262 L102.549687,31.7657009 Z" id="Fill-18"></path>
                    <path d="M80.9041732,99.4505607 L78.6910891,99.7458879 L75.9677246,100.225327 L73.0761358,93.741215 C73.4228648,93.3795327 73.8808087,92.7085047 75.2237994,92.4057009 C76.3826779,92.141215 77.4882854,92.147757 77.8275377,92.8636449 C78.5509022,94.4047664 80.9041732,99.4505607 80.9041732,99.4505607" id="Fill-20"></path>
                    <path d="M86.6996872,148.991963 C93.4183788,148.835888 93.5352013,141.367664 103.0595,141.745234 L95.8791265,127.47514 L90.6052947,127.417196 L94.5165097,136.233084 C90.7940798,137.481682 93.9221171,142.763925 86.6996872,148.991963" id="Fill-22"></path>
                    <path d="M126.306136,48.7907477 C126.306136,48.7907477 126.306136,48.7907477 126.306136,48.7916822 C126.103332,49.0131776 125.815482,49.1608411 125.402398,49.2103738 C123.914547,49.3954206 120.609874,48.0178505 118.784641,48.0823364 C113.838846,48.33 111.450996,52.765514 108.483706,54.1879439 C109.922024,53.8271963 111.855669,53.9440187 113.267818,53.1094393 C113.738846,52.8318692 114.765014,53.0430841 114.160341,54.1879439 C115.779033,53.412243 118.360341,50.9430841 121.143519,51.0870093 C127.588379,51.4253271 129.908005,55.1580374 129.908005,55.1580374 C131.777164,52.1057009 128.26408,49.5402804 128.223893,49.5113084 C128.222024,49.5113084 128.221089,49.5113084 128.21922,49.5113084 C127.217351,49.2608411 126.770622,49.1243925 126.306136,48.7907477" id="Fill-24"></path>
                    <path d="M64.6311826,65.9978505 L62.801276,66.1679439 L60.2349209,66.4043925 L41.2620237,26.6361682 C42.1246405,26.0025234 42.9068835,25.6623364 43.5638929,25.5081308 C44.9508087,25.1763551 45.7994069,25.6184112 45.7994069,25.6184112 L64.6311826,65.9978505 Z" id="Fill-34"></path>
                    <path d="M11.5714629,24.3205607 C12.2060424,27.9102804 16.3499676,32.4803738 16.7649209,32.928972 L25.7854816,27.3299065 L29.8873508,28.0084112 L43.4163228,19.2672897 L44.3752013,15.0261682 L50.2686592,11.1682243 L52.9462293,13.1897196 L63.9153882,14.3476636 L56.8041732,21.3186916 L66.3723975,15.4392523 L67.142491,12.1411215 L60.5004349,2.86915888 L47.9237994,-3.22586402e-12 L38.6359489,5.59813084 L35.4864162,5.05327103 L21.824734,13.2560748 L21.4116499,16.9439252 L11.5714629,24.3205607 Z" id="Fill-42"></path>
                    <path d="M144.95165,138.591121 C144.95165,144.190187 145.962865,145.763084 143.363799,147.307944 C143.168472,147.43785 142.9395,147.557477 142.700248,147.677103 C142.700248,147.677103 130.458192,147.677103 127.250715,146.87243 C124.032024,146.067757 108.973145,138.25 103.058192,128.899533 C103.058192,128.899533 107.276884,129.607009 108.571276,129.607009 C108.571276,129.607009 102.155388,125.268692 100.743239,124.593925 C99.1656686,123.833178 97.7637994,123.202336 96.4152013,122.702336 C93.5880985,121.658411 92.9703414,120.507009 89.2516499,120.746262 C89.153519,120.756542 87.0208087,121.484579 86.9011826,121.528505 L86.8909022,121.528505 C86.6946405,121.592991 86.4778181,121.712617 86.2273508,121.864953 C85.5993134,122.28271 83.2675377,123.656542 83.2675377,123.656542 L79.6563228,127.725701 L78.1572573,125.633178 L80.9030517,119.919159 L88.1843601,116.341589 L80.4451078,118.015421 L76.6245471,123.342523 L74.6479115,120.506075 L78.0628648,114.890187 L85.6404349,111.144393 C85.2815564,111.188318 76.8572573,113.219159 76.8572573,113.219159 L73.0852947,118.226636 L71.2553882,115.558411 L74.5011826,110.165888 L80.889033,107.751869 C80.889033,107.751869 74.3871639,108.013551 73.9516499,108.100467 C73.5170704,108.187383 69.9479115,113.916355 69.9479115,113.916355 L68.6572573,111.916355 C68.6572573,111.916355 70.9077246,105.055607 71.1787527,104.881776 C71.418005,104.718224 82.4656686,102.869626 85.2049209,102.533178 C85.3909022,102.511682 85.6507153,102.500467 85.7927714,102.511682 L85.846977,102.511682 C85.8703414,102.513551 85.9077246,102.533178 85.9348274,102.538785 C86.0310891,102.56028 86.1376312,102.591121 86.2600611,102.641589 C86.346977,102.685514 86.4338929,102.728505 86.5320237,102.793925 C89.3591265,104.468692 96.6806218,113.816355 102.507725,115.306075 L103.721743,114.666822 L105.897444,116.411682 C113.334827,118.324766 124.436697,124.997664 127.046042,128.422897 C127.046042,128.422897 127.619874,123.191121 123.803986,119.874299 C130.837631,119.374299 137.730155,133.801402 137.730155,133.801402 C141.488098,129.454673 136.252584,122.51729 134.632958,119.983645 C132.121743,116.048131 129.327351,115.058411 128.653519,113.96028 C127.554454,112.144393 128.555388,107.229439 128.75165,106.522897 C128.958192,105.816355 135.235762,101.874299 135.235762,101.874299 C135.126416,101.841589 135.060996,101.607944 134.973145,101.564953 C134.038566,101.150935 132.915201,101.021963 132.175949,100.576168 C123.71707,95.4985981 126.967538,88.4528037 128.360061,85.1471963 C129.523612,82.3752336 132.805855,80.9827103 132.805855,80.9827103 C132.805855,80.9827103 133.523612,76.6341121 131.327351,74.003271 C131.240435,73.9051402 131.153519,73.8070093 131.066603,73.7200935 C130.794641,73.4481308 130.512398,73.2200935 130.21894,73.0238318 C139.946977,74.2247664 145.201183,88.3696262 143.846042,102.264019 C143.846042,102.264019 148.021743,110.661215 147.825482,115.379907 C147.630155,120.098598 144.95165,132.578972 144.95165,138.591121" id="Fill-46"></path>
                </g>
                <path d="M177.727477,53.5159813 L175.996636,50.5131776 C173.50785,49.8561682 170.662056,51.4486916 170.662056,51.4486916 C170.662056,51.4486916 170.919065,48.8243925 171.241495,48.658972 C173.14243,47.6804673 176.973271,46.9907477 176.973271,46.9907477 C177.136822,46.6757944 177.151776,46.0683178 177.083551,45.3215888 C177.080748,45.2963551 177.078879,45.2711215 177.076075,45.2458879 C176.805981,42.4860748 175.384486,37.8206542 175.384486,37.8206542 L175.381682,37.8206542 C173.141495,37.7571028 169.245234,38.7215888 169.245234,38.7215888 C164.854579,37.6047664 162.001308,37.9916822 162.001308,37.9916822 C162.001308,37.9916822 161.336822,42.4402804 164.621869,44.458972 C164.621869,44.458972 161.996636,43.558972 159.805047,43.8720561 C158.902243,44.0000935 158.073271,44.3365421 157.531215,45.0253271 C157.529346,45.0281308 157.525607,45.03 157.523738,45.0328037 C157.73215,44.9113084 157.955514,44.8150467 158.178879,44.7253271 C158.23215,44.7038318 158.282617,44.6711215 158.335888,44.6524299 C158.613458,44.5552336 158.894766,44.4916822 159.173271,44.4785981 C159.173271,44.4785981 166.008785,45.9066355 166.734019,48.0580374 C166.902243,48.5552336 167.329346,50.0365421 167.371402,51.3356075 C167.371402,51.3393458 167.371402,51.3430841 167.371402,51.347757 C167.074206,54.3898131 169.653645,55.5197196 168.090093,57.194486 C168.247103,57.2505607 168.414393,57.3019626 168.591028,57.3496262 C168.792897,57.4028972 169.00785,57.4505607 169.248972,57.4842056 C169.584486,57.5374766 169.870467,57.5103738 170.13215,57.4542991 C171.250841,57.2131776 171.714393,56.201028 171.714393,56.201028 C171.715327,56.2019626 171.715327,56.2028972 171.717196,56.2047664 L171.717196,56.2028972 C172.262056,56.9458879 172.419065,57.9608411 171.893832,58.5402804 C172.357383,58.8748598 172.805047,59.0103738 173.806916,59.2608411 C173.80785,59.2608411 173.80972,59.2608411 173.811589,59.2608411 L173.80785,59.2580374 C175.106916,59.2234579 176.689159,58.1795327 176.689159,58.1795327 L177.727477,53.5159813 Z" id="Fill-6" fill="#FEFEFE"></path>
                <path d="M89.9039252,90.8252336 C87.0936449,91.9242991 77.8945794,90.9803738 72.3553271,91.9766355 C66.1656075,93.0897196 62.5085981,93.4560748 54.8665421,95.682243 C54.8665421,95.682243 49.2730841,98.3046729 48.042243,99.7654206 C47.4740187,97.8252336 48.0450467,95.7719626 50.0553271,93.7906542 C60.5749533,83.4252336 68.8207477,74.3056075 73.3786916,73.6448598 C76.977757,74.3130841 78.4983178,75.9168224 78.6104673,79.5065421 C69.0170093,84.2551402 64.4385047,86.1850467 58.76,91.6738318 C67.9254206,86.1102804 83.6114019,90.4934579 89.9039252,90.8252336" id="Fill-26" fill="#FEFEFE"></path>
                <path d="M126.034019,96.9328037 L125.355514,98.1645794 C125.355514,98.1645794 119.505981,97.9729907 115.462991,99.4776636 C112.23215,98.3346729 110.948972,95.9814019 113.220935,93.8346729 C110.92,93.7608411 108.131215,92.0870093 109.960187,88.9888785 C107.659252,88.8262617 106.147103,86.9159813 106.147103,86.9159813 C105.910654,85.2486916 106.781682,83.8991589 106.781682,83.8991589 C103.285421,80.6599065 100.444299,85.7496262 95.8564486,88.3019626 C98.8218692,85.0860748 101.639626,79.8860748 104.989159,79.5757944 C109.504112,79.1701869 114.556449,78.6169159 114.556449,78.6169159 L116.061121,78.8972897 L117.971402,81.0804673 L108.817196,83.8094393 L119.203178,83.6776636 L120.70785,84.4963551 L120.981682,85.8608411 L111.553645,88.3243925 L121.940561,88.73 L123.710654,91.7402804 L114.969533,93.9234579 L124.123738,94.3365421 L126.034019,96.9328037 Z" id="Fill-28" fill="#FEFEFE"></path>
                <path d="M121.129346,52.8565421 C113.072336,52.767757 110.203178,50.5378505 106.517196,56.632243 L104.317196,51.6976636 C109.995701,48.678972 116.105047,51.0574766 121.129346,52.8565421" id="Fill-30" fill="#FEFEFE"></path>
                <path d="M157.465607,88.0515888 C156.787103,89.8291589 154.322617,91.8721495 154.322617,91.8721495 C152.273084,92.1758879 150.325421,92.1758879 148.614206,92.0347664 C150.045047,90.7441121 149.948785,89.0104673 149.948785,89.0104673 C147.964673,89.3057944 146.57028,88.3543925 146.57028,88.3543925 C146.57028,88.3543925 150.222617,84.4300935 152.545981,80.0114019 C153.931963,84.6880374 152.273084,88.5973832 152.273084,88.5973832 C154.190841,88.731028 157.465607,88.0515888 157.465607,88.0515888" id="Fill-32" fill="#FEFEFE"></path>
                <path d="M91.3865421,35.3683178 L110.218318,75.747757 L108.389346,75.9169159 L89.151028,35.2571028 C90.5379439,34.9262617 91.3865421,35.3683178 91.3865421,35.3683178" id="Fill-36" fill="#FEFEFE"></path>
                <path d="M126.491682,109.200093 L124.278598,109.495421 L120.811308,102.155234 C121.970187,101.890748 123.075794,101.89729 123.415047,102.613178 C124.138411,104.154299 126.491682,109.200093 126.491682,109.200093" id="Fill-38" fill="#FEFEFE"></path>
                <path d="M148.647383,151.494393 C148.647383,151.494393 147.602523,150.371963 145.536168,150.638318 L139.188505,137.224299 L141.467009,137.224299 C142.213738,138.754206 148.647383,151.494393 148.647383,151.494393" id="Fill-40" fill="#FEFEFE"></path>
                <polygon id="Fill-44" fill="#FEFEFE" points="112.729907 21.8903738 99.8813084 19.8128037 94.3439252 13.0614019 85.2420561 18.7931776 83.5242991 18.5548598 80.0280374 18.0698131 70.8934579 23.5604673 69.7074766 26.6997196 57.1598131 34.0698131 67 26.6931776 67.4130841 23.0053271 81.0738318 14.8025234 84.2242991 15.3483178 93.511215 9.74925234 106.08785 12.6193458"></polygon>
                <path d="M194.322617,125.112617 C194.559065,119.273364 189.995514,112.054673 189.995514,112.054673 C193.833832,98.6406542 186.457196,84.0098131 177.162804,82.878972 C177.34785,82.1771028 177.341308,81.7425234 177.341308,81.7425234 L175.445047,80.0116822 C175.306729,84.0574766 171.893645,89.2182243 171.893645,89.2182243 C174.96,87.2481308 176.296449,85.178972 176.88243,83.7172897 C176.89271,83.7294393 176.905794,83.7397196 176.91514,83.7518692 C179.839439,86.8939252 181.774953,93.7883178 181.774953,93.7883178 C176.87215,97.0172897 176.545981,106.128505 177.763738,110.324766 C178.502991,110.771495 179.339439,111.206075 180.274953,111.619159 C180.361869,111.663084 180.46,111.71729 180.568411,111.75 C182.840374,112.761215 184.51514,112.956542 185.374019,112.956542 C180.002991,116.185514 178.806729,123.959346 180.220748,129.733178 C181.840374,132.266822 183.319813,136.007009 184.069346,141.769626 C184.069346,141.769626 174.446916,128.015421 167.413271,128.516355 C171.228224,131.831308 171.326355,135.952804 171.326355,135.952804 C168.717009,132.52757 159.388037,127.308879 151.951589,125.395794 C151.114206,125.177103 150.232897,124.851869 149.309533,124.416355 C142.840374,121.448131 134.934766,114.043458 132.118879,112.543458 C132.021682,112.478037 131.934766,112.435047 131.846916,112.391121 C131.662804,112.315421 131.499252,112.271495 131.379626,112.261215 C131.24972,112.238785 131.043178,112.261215 130.79271,112.28271 C128.455327,114.609813 128.705794,117.012617 132.651589,117.131308 C130.248785,120.795794 132.043178,122.056542 136.359065,122.122897 C133.303925,125.970561 137.555327,126.971495 139.479626,127.167757 C136.697383,128.395794 133.793645,128.928505 132.478692,131.277103 L132.488972,131.277103 C132.608598,131.234112 132.705794,131.211682 132.803925,131.201402 C136.522617,130.96215 139.175888,131.407944 142.002991,132.451869 C143.198318,132.190187 144.633832,131.701402 147.036636,131.788318 C156.974019,131.99486 170.696449,154.066822 187.831963,154.001402 C187.831963,154.001402 189.169346,155.502336 188.951589,157.056542 C191.550654,155.512617 191.202056,153.990187 191.202056,148.391121 C191.202056,142.378972 194.131963,129.831308 194.322617,125.112617" id="Fill-48" fill="#FEFEFE"></path>
            </g>
        </g>
    </g>
</svg>