<?xml version="1.0" encoding="UTF-8"?>
<svg width="200px" height="200px" viewBox="0 0 200 200" version="1.1" xmlns="http://www.w3.org/2000/svg" xmlns:xlink="http://www.w3.org/1999/xlink">
    <title>carnegie-mellon_BGL</title>
    <g id="carnegie-mellon_BGL" stroke="none" stroke-width="1" fill="none" fill-rule="evenodd">
        <g id="carnegie-mellon-4C_WBG" transform="translate(16.000000, 0.000000)">
            <g id="Group-4" fill="#1A1919">
                <path d="M110.192286,196.61974 C110.661554,196.61974 111.07741,196.587311 111.07741,196.028385 C111.07741,195.578192 110.667277,195.496166 110.285758,195.496166 L109.534165,195.496166 L109.534165,196.61974 L110.192286,196.61974 Z M109.534165,198.664683 L108.984777,198.664683 L108.984777,195.026897 L110.367785,195.026897 C111.226203,195.026897 111.651597,195.345466 111.651597,196.060814 C111.651597,196.713212 111.243371,196.995536 110.711152,197.062302 L111.745069,198.664683 L111.127008,198.664683 L110.169395,197.089008 L109.534165,197.089008 L109.534165,198.664683 Z M110.201824,199.473503 C111.628706,199.473503 112.75228,198.355652 112.75228,196.837206 C112.75228,195.345466 111.628706,194.218076 110.201824,194.218076 C108.757773,194.218076 107.630384,195.345466 107.630384,196.837206 C107.630384,198.355652 108.757773,199.473503 110.201824,199.473503 Z M106.99897,196.837206 C106.99897,195.026897 108.465911,193.693487 110.201824,193.693487 C111.920568,193.693487 113.387509,195.026897 113.387509,196.837206 C113.387509,198.664683 111.920568,200 110.201824,200 C108.465911,200 106.99897,198.664683 106.99897,196.837206 L106.99897,196.837206 Z" id="Fill-1"></path>
                <path d="M160.407844,74.3867079 C160.38686,75.2909084 159.827935,94.9544085 150.276601,119.352562 C144.73885,133.499294 137.289688,146.304986 128.137042,157.414826 C116.683835,171.315478 102.53138,182.570295 86.0726413,190.864523 L84.0696654,191.875548 L82.064782,190.864523 C65.6079509,182.570295 51.4554958,171.315478 40.0022891,157.416733 C30.8515509,146.306894 23.4042959,133.503109 17.8665446,119.358285 C8.32284156,94.9906528 7.75437793,75.3309679 7.73530197,74.5068864 L7.73530197,7.13631681 L160.407844,7.13631681 L160.407844,74.3867079 Z M0,0 L0,74.211209 L0.00190759605,74.3065888 C0.00763038419,74.5335928 0.131624127,79.9950403 1.60238068,88.8424707 C3.46419442,100.036244 6.52779367,111.102209 10.7035214,121.723704 C16.5674717,136.64492 24.4649193,150.169776 34.1822136,161.916753 C46.3984587,176.691084 61.4970814,188.649804 79.0603182,197.470528 L84.0982793,200 L89.1343329,197.470528 C106.699477,188.649804 121.7981,176.691084 134.014345,161.916753 C143.731639,150.167868 151.630995,136.641105 157.494945,121.719889 C161.670673,111.090763 164.732364,100.024799 166.594178,88.8253024 C168.070657,79.93972 168.194651,74.3161268 168.198466,74.2608065 L168.198466,0 L0,0 L0,0 Z" id="Fill-3"></path>
            </g>
            <path d="M10.5375606,9.940483 L10.5375606,74.4210446 C10.5413758,74.636603 11.1136546,94.4260043 20.476136,118.335813 C25.9070619,132.205944 33.2036168,144.754111 42.165503,155.633131 C53.3707222,169.230476 67.2198695,180.243028 83.3276105,188.361757 L84.0696654,188.735645 L84.8098127,188.361757 C100.921369,180.244935 114.768609,169.230476 125.973828,155.631224 C134.937622,144.750296 142.236084,132.200221 147.66701,118.33009 C157.039029,94.38976 157.599863,74.598451 157.603678,74.400061 L157.603678,9.940483 L10.5375606,9.940483 Z M84.0696654,191.875548 L82.064782,190.864523 C65.6079509,182.570295 51.4554958,171.315478 40.0022891,157.416733 C30.8515509,146.306894 23.4042959,133.503109 17.8665446,119.358285 C8.32284156,94.9906528 7.75437793,75.3309679 7.73530197,74.5068864 L7.73530197,7.13631681 L160.407844,7.13631681 L160.407844,74.3867079 C160.38686,75.2909084 159.827935,94.9544085 150.276601,119.352562 C144.73885,133.499294 137.289688,146.304986 128.137042,157.414826 C116.683835,171.315478 102.53138,182.570295 86.0726413,190.864523 L84.0696654,191.875548 L84.0696654,191.875548 Z" id="Fill-5" fill="#FFFFFE"></path>
            <path d="M10.6424783,9.94620579 L10.6424783,74.1139216 C10.6482011,74.3848003 10.9476937,84.6190531 14.6160009,99.2827439 C15.9971005,97.5411087 21.8820343,90.0137347 26.6395788,82.4997139 C26.5613674,79.2014803 26.7597574,75.7658998 27.3129602,72.1662661 L28.2057152,71.3021251 L33.3333333,69.3697303 L33.0758079,70.06028 C36.8757392,61.5524017 40.6432414,54.7632673 34.3157453,43.6858571 C34.3157453,43.6858571 35.9028652,43.4760215 39.086643,48.1477242 C39.086643,48.1477242 37.9516234,37.7341574 36.1336843,36.0383045 C36.1336843,36.0383045 39.3861356,38.1519209 40.6756705,41.7706307 C40.6756705,41.7706307 39.37469,36.7326695 41.7992446,32.541681 C44.4603411,27.9329289 44.9525009,20.872916 44.9811148,19.6367937 C45.0288047,17.458319 44.9925604,13.8434245 44.5385525,12.8171378 C44.5385525,12.8171378 50.5512953,17.2103315 54.1547442,23.0113311 C57.9565831,29.1289916 56.9570028,35.0730609 56.8177483,36.8127885 C56.6765862,38.5544237 57.8440349,46.0932433 64.0933196,46.2344054 C64.884972,46.2534814 65.5965053,46.2210522 66.2450879,46.1485636 C58.2541681,45.7937507 58.3934226,36.1813742 58.8111861,33.6728854 C59.2728244,30.8687192 59.0248369,28.957308 57.5502652,25.5083743 C57.9317844,23.8392278 58.0901148,22.5744916 58.1301744,22.1033154 C58.29232,20.1365839 58.4525581,16.872687 58.0958376,15.9360574 C58.0958376,15.9360574 63.2883141,20.0755408 66.226012,25.4110869 C69.3258556,31.0461257 68.1221625,36.7231315 67.9180497,38.2911755 C67.7864255,39.3365381 68.0782877,42.7320591 69.9572698,44.9811148 C71.8286216,43.8575407 72.7366373,42.175041 73.7858151,40.7309908 C75.5770478,38.2625615 78.8657434,34.5503796 85.2313914,33.4878486 C85.2313914,33.4878486 80.68559,38.5887604 80.68559,40.9293808 L95.2329175,36.6716264 C95.2329175,36.6716264 92.7282439,39.0141544 92.5050551,40.2884285 C92.5050551,40.2884285 105.688451,39.6493838 110.23616,43.6858571 C110.23616,43.6858571 103.639693,43.8976002 99.3228034,46.0245698 C95.0020984,48.1477242 93.7316394,51.7607112 93.7316394,51.7607112 C93.7316394,51.7607112 106.827286,50.2746938 113.866316,50.486437 C120.914883,50.6924574 123.921254,49.5898668 126.601427,47.9321659 C126.601427,47.9321659 126.237076,50.486437 124.195948,51.3353172 C124.195948,51.3353172 135.239022,53.0368929 137.737973,54.9483041 C137.737973,54.9483041 139.330815,57.4949449 138.19198,59.6219145 C138.19198,59.6219145 140.465835,69.1713403 140.465835,73.6389302 C140.465835,78.102705 139.557819,81.4963183 139.557819,81.4963183 C139.557819,81.4963183 137.686468,88.3884629 134.781199,92.9724162 C133.388654,95.164244 132.961352,98.4910915 132.961352,98.4910915 C132.961352,98.4910915 132.545496,96.9726451 132.484453,94.9391477 C132.421502,92.7816566 132.406242,89.4986838 132.406242,89.4986838 L132.284156,87.4499256 C132.284156,87.4499256 130.73328,93.6095532 131.147228,97.218725 C131.370417,99.1339514 132.734348,106.144367 133.419175,108.051963 C134.100187,109.963374 134.521766,116.714357 133.873183,120.161383 C133.077715,124.382893 132.053336,126.111175 132.053336,126.111175 C132.053336,126.111175 129.785205,121.229636 127.959635,118.675365 C126.143604,116.13254 120.687879,111.245279 120.687879,111.245279 C120.687879,111.245279 122.049903,116.765862 124.102476,118.889016 C124.102476,118.889016 119.823738,117.277097 118.564725,116.702911 C117.280913,116.109649 108.607073,112.159017 104.376025,106.913128 C100.146885,101.665331 98.0904964,93.3062455 98.0904964,93.3062455 C98.0904964,93.3062455 93.0010301,99.5593453 83.3123498,99.8740987 C83.3123498,99.8740987 80.5177216,103.534775 81.2559612,108.677654 C81.2502384,108.673839 81.2311625,108.662394 81.2311625,108.662394 C81.2311625,108.662394 103.189501,123.34516 106.579299,131.900729 C109.972912,140.46965 101.38873,143.432147 101.38873,143.432147 C101.38873,143.432147 108.013811,147.90546 103.956354,151.611919 C99.900805,155.329823 97.1672199,166.483537 95.5324101,167.2275 C95.5324101,167.2275 94.8132463,166.287055 93.4245164,164.678952 C91.8507497,172.950288 88.6459883,181.727137 82.8411736,188.052726 C83.2608447,188.2721 83.6728854,188.493381 84.0982793,188.705124 C155.255427,152.97585 157.540727,74.8674221 157.55408,74.0776773 L157.55408,9.94620579 L10.6424783,9.94620579" id="Fill-6" fill="#B4B5B4"></path>
            <path d="M82.2498188,119.985884 C86.763191,123.123879 98.1286483,130.428065 103.172332,133.007134 C84.1040021,119.942009 84.6133303,119.701652 82.5626645,118.133608 C79.2148335,115.583152 82.2498188,119.985884 82.2498188,119.985884" id="Fill-7" fill="#1A1919"></path>
            <path d="M135.155088,66.5083362 C134.443554,69.8599825 133.335241,73.177292 133.335241,73.177292 L133.703407,69.5585823 C133.232231,67.9886307 131.362787,66.0562359 128.056923,64.5912022 C124.751059,63.1261684 123.968944,59.246118 123.968944,59.246118 C123.968944,59.246118 126.27332,62.9029797 129.195758,63.6316814 C132.12201,64.3565679 133.76445,66.7353401 133.76445,66.7353401 C133.76445,66.7353401 135.0578,63.8148106 137.24009,62.1132349 C136.936782,62.3879287 135.767426,63.5992522 135.155088,66.5083362 Z M130.805769,80.8114914 C129.605891,83.5126474 127.997787,87.9115638 127.997787,87.9115638 L127.045897,85.3057876 C125.849834,88.0050361 124.810194,94.9200717 126.111175,101.028194 C126.111175,101.028194 124.810194,96.5377132 124.785395,91.9556675 C124.754874,87.3717142 127.25001,80.4566785 127.25001,80.4566785 L128.436534,83.5126474 C129.769944,80.5463355 132.673305,75.8727252 132.673305,75.8727252 C132.673305,75.8727252 132.011369,78.1236885 130.805769,80.8114914 Z M128.062645,55.8009996 C132.484453,54.8853535 135.488917,56.0699706 135.488917,56.0699706 C135.488917,56.0699706 134.439739,56.483919 132.051429,58.4372973 C129.653581,60.3830453 126.158865,56.4305063 126.158865,56.4305063 L128.062645,55.8009996 Z M84.3806036,54.0479188 C84.2966693,54.0269353 84.2108275,54.0040441 84.1249857,53.9830605 C84.0391439,53.9639846 83.9494869,53.9410934 83.8617374,53.9201099 C83.7720804,53.8972187 83.6824234,53.8762352 83.5927664,53.8552516 C83.5012018,53.8342681 83.4096372,53.8132845 83.3180726,53.7923009 C83.226508,53.7713174 83.1349433,53.7503338 83.0433787,53.7312579 C82.9518141,53.7102743 82.8583419,53.6911984 82.7686849,53.6721224 C82.6752127,53.6530464 82.5836481,53.6339705 82.4939911,53.6168021 C82.4024265,53.5996337 82.3127694,53.5805578 82.2231124,53.565297 C82.1334554,53.5500362 82.045706,53.5328679 81.9579566,53.5195147 C81.8835603,53.5061615 81.8110717,53.4966236 81.738583,53.485178 C81.6660944,53.4737324 81.5936057,53.4641944 81.5249323,53.4546564 C81.4543512,53.4451185 81.3837702,53.4374881 81.3150967,53.4279501 C81.2464233,53.4203197 81.1796574,53.4126893 81.1128915,53.4069665 C81.0461257,53.3993362 80.9812674,53.3917058 80.9164091,53.385983 C80.8534585,53.3802602 80.7905078,53.3745374 80.7313723,53.3688146 C80.6703293,53.3649994 80.6111938,53.3592766 80.5539659,53.3554614 C80.496738,53.3516463 80.4395101,53.3478311 80.3860974,53.3440159 C80.3326848,53.3402007 80.2811797,53.3382931 80.2315822,53.3363855 C80.1819847,53.3325703 80.1342948,53.3306627 80.0885125,53.3287551 C80.0427302,53.3268475 79.9988554,53.3249399 79.9587959,53.3230323 C79.9187364,53.3211247 79.8786769,53.3192171 79.8443402,53.3192171 C79.8080958,53.3173095 79.7756667,53.3173095 79.7432376,53.3154019 C79.712716,53.3154019 79.6860097,53.3134943 79.6612109,53.3134943 C79.6364122,53.3134943 79.613521,53.3134943 79.5944451,53.3115867 C79.5772767,53.3115867 79.5601084,53.3115867 79.5467552,53.3115867 C79.4399298,53.3096791 79.335012,53.3077715 79.2320018,53.3077715 C79.1308992,53.305864 79.0297967,53.3077715 78.9325093,53.3077715 C78.8352219,53.3096791 78.7398421,53.3115867 78.6444622,53.3134943 C78.55099,53.3154019 78.4575178,53.3173095 78.3659532,53.3211247 C78.2743886,53.3249399 78.1847316,53.3287551 78.0950746,53.3325703 C78.0054176,53.3363855 77.9176682,53.3382931 77.8299187,53.3440159 C77.7421693,53.3478311 77.6544199,53.3516463 77.5666705,53.3554614 C77.4789211,53.3611842 77.3911716,53.3649994 77.3034222,53.3688146 C77.2156728,53.3726298 77.1279234,53.376445 77.040174,53.3783526 C76.9524246,53.3821678 76.8627675,53.385983 76.7712029,53.3878906 C76.6815459,53.3897982 76.5918889,53.3917058 76.4984167,53.3936134 C76.4068521,53.395521 76.3114723,53.395521 76.2160925,53.395521 C76.1207127,53.395521 76.0234253,53.3936134 75.9242303,53.3917058 C75.8231277,53.3897982 75.7220251,53.3878906 75.6171073,53.3840754 C75.5121895,53.3783526 75.4053642,53.3745374 75.2966312,53.3688146 C75.1859906,53.3611842 75.0734424,53.3535539 74.9570791,53.3440159 C74.7911182,53.3325703 74.6327878,53.3173095 74.4820877,53.3001412 C74.3313876,53.2829728 74.1883179,53.2638968 74.0528786,53.2448209 C73.9155316,53.2257449 73.7877227,53.2047614 73.6656366,53.1818702 C73.5435504,53.1608867 73.4271871,53.1379955 73.3184541,53.1131967 C73.2097211,53.0903056 73.1067109,53.0635993 73.0113311,53.0388005 C72.9159513,53.0140018 72.8262943,52.989203 72.7423601,52.9624967 C72.6584259,52.9376979 72.5802144,52.9109916 72.5077258,52.8842852 C72.4352371,52.8594865 72.3665637,52.8327801 72.3055206,52.8079814 C72.2425699,52.781275 72.185342,52.7583839 72.1338369,52.7335851 C72.0804242,52.7087864 72.0346419,52.6858952 71.9926748,52.6630041 C71.9488001,52.6401129 71.9125558,52.6191294 71.8763115,52.5981458 C71.8438823,52.5771623 71.8133608,52.5580863 71.7885621,52.5428255 C71.7618557,52.5237496 71.7408722,52.5084888 71.7217962,52.4951356 C71.7046278,52.4798749 71.6893671,52.4684293 71.6760139,52.4588913 C71.6664759,52.4493533 71.6569379,52.4417229 71.6512151,52.4360002 C71.6454924,52.4302774 71.6435848,52.4264622 71.6435848,52.4264622 C71.6435848,52.4264622 71.6473999,52.4283698 71.6531227,52.4283698 C71.6569379,52.4283698 71.6664759,52.4302774 71.6760139,52.4302774 C71.6874595,52.432185 71.7008126,52.4340926 71.7160734,52.4360002 C71.7313342,52.4379077 71.7504101,52.4398153 71.7694861,52.4417229 C71.7904697,52.4436305 71.8114532,52.4455381 71.836252,52.4493533 C71.8610507,52.4512609 71.8858495,52.4531685 71.9144634,52.4569837 C71.9430773,52.4588913 71.9716913,52.4627065 72.0041204,52.4646141 C72.0346419,52.4684293 72.0689787,52.4722445 72.1033154,52.4741521 C72.1376521,52.4779673 72.1738965,52.4817825 72.2101408,52.4855976 C72.2482927,52.4894128 72.2864446,52.493228 72.3265041,52.4951356 C72.3665637,52.4989508 72.4066232,52.502766 72.4485903,52.5065812 C72.4905574,52.5103964 72.5325245,52.512304 72.5763992,52.5161192 C72.6202739,52.5199344 72.6641486,52.5237496 72.7099309,52.5275648 C72.7538057,52.53138 72.799588,52.5332876 72.8453703,52.5371027 C72.8911526,52.5409179 72.9388425,52.5428255 72.9846248,52.5447331 C73.0304071,52.5485483 73.078097,52.5504559 73.1257869,52.5542711 C73.1658464,52.5561787 73.2097211,52.5580863 73.2535958,52.5599939 C73.2974705,52.5619015 73.3451604,52.5638091 73.3909427,52.5657167 C73.4386326,52.5676243 73.4882301,52.5695319 73.5397352,52.5695319 C73.5893327,52.5714395 73.6408378,52.5714395 73.6942505,52.5714395 C73.7457556,52.5733471 73.8010759,52.5733471 73.8563962,52.5733471 C73.9098089,52.5733471 73.9670367,52.5733471 74.022357,52.5733471 C74.0795849,52.5733471 74.1387204,52.5733471 74.1959483,52.5733471 C74.2550837,52.5714395 74.3142192,52.5714395 74.3733547,52.5695319 C74.4324902,52.5695319 74.4935332,52.5676243 74.5526687,52.5657167 C74.6137118,52.5638091 74.6747549,52.5619015 74.7357979,52.5599939 C74.796841,52.5580863 74.8578841,52.5561787 74.9189272,52.5542711 C74.9799702,52.5523635 75.0410133,52.5485483 75.1020564,52.5466407 C75.1630995,52.5428255 75.2241425,52.5409179 75.2851856,52.5371027 C75.3443211,52.5332876 75.4053642,52.53138 75.4644996,52.5256572 C75.5255427,52.521842 75.5846782,52.5180268 75.6438137,52.5142116 C75.7010415,52.5103964 75.760177,52.5046736 75.8174049,52.5008584 C75.8631872,52.4970432 75.9089695,52.493228 75.958567,52.4894128 C76.0062569,52.4836901 76.0558544,52.4798749 76.1092671,52.4760597 C76.1607722,52.4703369 76.2141849,52.4646141 76.2714128,52.4607989 C76.3267331,52.4569837 76.3820533,52.4512609 76.4411888,52.4455381 C76.5003243,52.4417229 76.5594598,52.4360002 76.6205028,52.4302774 C76.6815459,52.4245546 76.7444966,52.4207394 76.8093549,52.4150166 C76.8742131,52.4112014 76.9390714,52.4054786 77.0058372,52.4016634 C77.0726031,52.3959406 77.1412766,52.3921254 77.20995,52.3864027 C77.2786235,52.3825875 77.3492045,52.3787723 77.4197856,52.3749571 C77.4903666,52.3711419 77.5628553,52.3673267 77.6372515,52.3635115 C77.7116478,52.3596963 77.786044,52.3577887 77.8604403,52.3539735 C77.9348365,52.3520659 78.0111404,52.3482507 78.0893518,52.3463431 C78.1656556,52.3444355 78.2438671,52.3444355 78.3220785,52.3444355 C78.40029,52.3425279 78.4785014,52.3406204 78.5586204,52.3425279 C78.6387395,52.3425279 78.7188585,52.3425279 78.8008851,52.3444355 C78.8810042,52.3444355 78.9630308,52.3463431 79.0450574,52.3501583 C79.1194537,52.3520659 79.1938499,52.3558811 79.2701538,52.3577887 C79.34455,52.3616039 79.4189462,52.3654191 79.4952501,52.3692343 C79.5715539,52.3730495 79.6478578,52.3768647 79.7260692,52.3806799 C79.802373,52.3844951 79.8805845,52.3902178 79.9607035,52.3978482 C80.038915,52.403571 80.119034,52.4092938 80.2010606,52.4169242 C80.2830873,52.4245546 80.3651139,52.432185 80.4471405,52.4417229 C80.5310747,52.4493533 80.615009,52.4607989 80.7008508,52.4703369 C80.7866926,52.4798749 80.8725344,52.4913204 80.9621914,52.5046736 C81.0499409,52.5161192 81.1395979,52.5294724 81.2292549,52.5447331 C81.3208195,52.5580863 81.4142917,52.5733471 81.5077639,52.5905154 C81.6012361,52.6076838 81.6966159,52.6248522 81.7939033,52.6458357 C81.8911907,52.6630041 81.9903857,52.6839876 82.0914883,52.7049712 C82.1925909,52.7278623 82.2936935,52.7507535 82.4005189,52.7755522 C82.5035291,52.800351 82.6103544,52.8251497 82.7190874,52.8537637 C82.8259128,52.88047 82.9365534,52.909084 83.0491015,52.9396055 C83.1635573,52.9720346 83.278013,53.0025562 83.3943764,53.0368929 C83.4783106,53.0597841 83.5641525,53.0864904 83.6519019,53.1112892 C83.7415589,53.1379955 83.8312159,53.1666094 83.9246881,53.1952234 C84.0181603,53.2238373 84.1135401,53.2543589 84.2089199,53.2848804 C84.3062073,53.3173095 84.4054023,53.3478311 84.5065049,53.3802602 C84.6056999,53.4145969 84.7087101,53.4470261 84.8117203,53.4813628 C84.9147305,53.5156995 85.0196482,53.5500362 85.1264736,53.584373 C85.233299,53.6187097 85.3401244,53.654954 85.4469498,53.6911984 C85.5556827,53.7274427 85.6644157,53.7617794 85.7750563,53.7980237 C85.8837892,53.8342681 85.9944298,53.8705124 86.1050704,53.9048491 C86.2176186,53.9410934 86.3282591,53.9754302 86.4388997,54.0116745 C86.5514479,54.0460112 86.663996,54.0822555 86.7746366,54.1146847 C86.8871848,54.1490214 86.9978253,54.1833581 87.1084659,54.2157873 C87.2210141,54.2482164 87.3335622,54.2806455 87.4422952,54.3111671 C87.5529358,54.3435962 87.6635764,54.3722101 87.7742169,54.4027317 C87.8829499,54.4313456 87.9916829,54.4599596 88.1004159,54.4866659 C88.2091488,54.5133722 88.3140666,54.538171 88.420892,54.5610621 C88.5391629,54.5896761 88.6574339,54.6144748 88.7737973,54.637366 C88.8901606,54.6583495 89.0046164,54.6793331 89.1190721,54.6984091 C89.2316203,54.717485 89.3441685,54.7346534 89.454809,54.7499142 C89.563542,54.7651749 89.672275,54.7785281 89.7791004,54.7899737 C89.8859258,54.8014193 89.9908435,54.8128648 90.0919461,54.8224028 C90.1949563,54.8300332 90.2941513,54.8376636 90.3933463,54.845294 C90.4906337,54.8510167 90.5860135,54.8567395 90.6775781,54.8605547 C90.7691427,54.8643699 90.8587997,54.8681851 90.9465492,54.8700927 C91.032391,54.8720003 91.1163252,54.8739079 91.1964442,54.8739079 C91.2765633,54.8758155 91.3528671,54.8758155 91.4272634,54.8739079 C91.5016596,54.8739079 91.5703331,54.8720003 91.6370989,54.8720003 C91.7038648,54.8700927 91.7668155,54.8681851 91.8240433,54.8643699 C91.8831788,54.8624623 91.9384991,54.8605547 91.9880966,54.8586471 C92.0396017,54.8548319 92.085384,54.8529243 92.1273511,54.8491092 C92.1693182,54.8472016 92.2074701,54.845294 92.2398993,54.8433864 C92.2723284,54.8414788 92.3009424,54.8395712 92.3238335,54.8376636 C92.3066651,54.8414788 92.2914044,54.845294 92.274236,54.8472016 C92.2570676,54.8510167 92.2398993,54.8548319 92.2208233,54.8586471 C92.203655,54.8624623 92.184579,54.8662775 92.165503,54.8700927 C92.1464271,54.8739079 92.1254435,54.8777231 92.1063676,54.8815383 C92.085384,54.8853535 92.0624928,54.8872611 92.0396017,54.8910763 C92.0186181,54.8948915 91.9938194,54.8987066 91.9690206,54.9025218 C91.9461295,54.906337 91.9194231,54.9101522 91.8927168,54.9139674 C91.8660105,54.9177826 91.8373965,54.9196902 91.8087826,54.9235054 C91.7801686,54.9273206 91.7496471,54.9292282 91.717218,54.9330434 C91.6847888,54.9368586 91.6523597,54.9406738 91.618023,54.944489 C91.5836862,54.9463966 91.5474419,54.9502117 91.50929,54.9540269 C91.4711381,54.9559345 91.4310786,54.9578421 91.391019,54.9616573 C91.3509595,54.9635649 91.3070848,54.9673801 91.2632101,54.9692877 C91.2174278,54.9731029 91.1716455,54.9750105 91.1239556,54.9769181 C91.0743581,54.9788257 91.0247606,54.9826409 90.9732555,54.9845485 C90.9198428,54.9864561 90.8664301,54.9883637 90.8111098,54.9902713 C90.7519744,54.9921789 90.6909313,54.9921789 90.6298882,54.9940865 C90.5688451,54.9940865 90.5097097,54.9940865 90.446759,54.9940865 C90.3857159,54.9940865 90.3246728,54.9940865 90.2617222,54.9921789 C90.2006791,54.9921789 90.1377284,54.9902713 90.0766854,54.9883637 C90.0137347,54.9864561 89.9526916,54.9845485 89.8897409,54.9807333 C89.8286979,54.9788257 89.7676548,54.9750105 89.7066117,54.9711953 C89.6436611,54.9692877 89.582618,54.9654725 89.5234825,54.9616573 C89.4624394,54.9578421 89.4013964,54.9540269 89.3422609,54.9483041 C89.2831254,54.944489 89.2239899,54.9406738 89.1648545,54.934951 C89.1076266,54.9311358 89.0503987,54.9273206 88.9931708,54.9215978 C88.9378505,54.915875 88.8825302,54.9101522 88.82721,54.906337 C88.7737973,54.9006142 88.7203846,54.8948915 88.6688795,54.8891687 C88.6154668,54.8853535 88.5658693,54.8796307 88.5162718,54.8739079 C88.4666743,54.8681851 88.4189844,54.8624623 88.3712945,54.8567395 C88.3255122,54.8510167 88.2816375,54.8472016 88.2377628,54.8414788 C88.1957957,54.835756 88.1538285,54.8300332 88.113769,54.8243104 C88.0775247,54.8204952 88.0393728,54.8147724 87.9993133,54.8090496 C87.9611613,54.8033268 87.9211018,54.7995117 87.8791347,54.7918813 C87.8371676,54.7861585 87.7952005,54.7804357 87.7513258,54.7728053 C87.7074511,54.7670825 87.6635764,54.7594521 87.6177941,54.7518218 C87.5739193,54.7441914 87.528137,54.736561 87.4823547,54.7289306 C87.4346648,54.7213002 87.3869749,54.7136698 87.339285,54.7041319 C87.2915951,54.6965015 87.2439052,54.6888711 87.1943077,54.6793331 C87.1447102,54.6697951 87.0951127,54.6621647 87.0455152,54.6526268 C86.9940101,54.6430888 86.9444127,54.6335508 86.8929076,54.6240128 C86.8433101,54.6144748 86.791805,54.6049369 86.7402999,54.5953989 C86.6887948,54.5839533 86.6372897,54.5744153 86.5857846,54.5648773 C86.5342795,54.5534318 86.4827744,54.5438938 86.4293617,54.5324482 C86.3797642,54.5229102 86.3263515,54.5114647 86.2748464,54.5019267 C86.2252489,54.4904811 86.177559,54.4809431 86.1298691,54.4714051 C86.1756514,54.5610621 86.2271565,54.6965015 86.2233413,54.8605547 C86.2118958,55.3202854 85.7617031,55.8315211 85.1875167,55.8315211 C84.6438518,55.8315211 84.1497844,55.3717905 84.1555072,54.8605547 C84.1593224,54.4256228 84.5236733,54.1432986 84.5789936,54.1013315 C84.5809011,54.1013315 84.5828087,54.1013315 84.5847163,54.0994239 L84.3806036,54.0479188 Z M83.2284156,58.8150013 C81.1758422,58.9027508 80.0160238,56.8597154 80.6321773,55.1180802 C81.1434131,53.6511388 82.7057342,53.7179047 82.7057342,53.7179047 C81.2407005,54.9082446 81.549731,57.1172409 83.3276105,57.6914273 C85.5385144,58.4067758 87.1160963,56.4629354 87.1160963,56.4629354 C86.2366945,59.1583686 83.2284156,58.8150013 83.2284156,58.8150013 Z M76.534661,44.3783144 C76.7044371,43.4207012 79.0908397,38.878715 78.9191561,40.3151349 C78.9191561,40.3151349 77.8985922,42.4649956 78.0664606,43.4207012 C78.2381443,44.3783144 76.6185952,46.047461 75.2584793,46.8505589 C73.8888253,47.6441189 76.3629774,45.3340201 76.534661,44.3783144 Z M88.6364503,41.5855938 C88.6364503,41.5855938 83.2665675,47.2454313 77.3053298,46.8505589 L77.4731983,45.967342 C77.4731983,45.967342 85.7426271,41.3471443 88.6364503,41.5855938 Z M93.4970051,41.7439243 C96.6502613,41.192629 100.570371,41.986189 102.104078,42.5451146 C102.104078,42.5451146 94.0959902,42.3848766 88.5487009,44.9334249 C88.5487009,44.9334249 90.3456564,42.3085727 93.4970051,41.7439243 Z M44.7159589,57.2679409 C45.1680592,56.483919 43.2490176,65.8235092 44.7159589,72.2082332 C46.1504712,78.5185609 51.4993705,83.2646599 51.4993705,83.2646599 C34.4435542,72.9045057 45.5114265,55.8811186 44.7159589,57.2679409 Z M45.6583114,32.9079394 C47.398039,29.325474 47.5182175,22.015566 47.5182175,22.015566 C48.6551448,28.5033001 48.3022395,32.3318454 46.802869,35.7235512 C44.1646637,41.7038648 45.461829,51.2761818 45.461829,51.2761818 C45.461829,51.2761818 44.6396551,49.7272138 43.9090458,45.5152417 C43.1803441,41.3070848 43.6457976,37.0417 45.6583114,32.9079394 Z M138.19198,59.6219145 C139.330815,57.4949449 137.737973,54.9483041 137.737973,54.9483041 C135.239022,53.0368929 124.195948,51.3353172 124.195948,51.3353172 C126.237076,50.486437 126.601427,47.9321659 126.601427,47.9321659 C123.921254,49.5898668 120.914883,50.6924574 113.866316,50.486437 C106.827286,50.2746938 93.7316394,51.7607112 93.7316394,51.7607112 C93.7316394,51.7607112 95.0020984,48.1477242 99.3228034,46.0245698 C103.639693,43.8976002 110.23616,43.6858571 110.23616,43.6858571 C105.688451,39.6493838 92.5050551,40.2884285 92.5050551,40.2884285 C92.7282439,39.0141544 95.2329175,36.6716264 95.2329175,36.6716264 L80.68559,40.9293808 C80.68559,38.5887604 85.2313914,33.4878486 85.2313914,33.4878486 C78.8657434,34.5503796 75.5770478,38.2625615 73.7858151,40.7309908 C72.7366373,42.175041 71.8286216,43.8575407 69.9572698,44.9811148 C68.0782877,42.7320591 67.7864255,39.3365381 67.9180497,38.2911755 C68.1221625,36.7231315 69.3258556,31.0461257 66.226012,25.4110869 C63.2883141,20.0755408 58.0958376,15.9360574 58.0958376,15.9360574 C58.4525581,16.872687 58.29232,20.1365839 58.1301744,22.1033154 C58.0901148,22.5744916 57.9317844,23.8392278 57.5502652,25.5083743 C59.0248369,28.957308 59.2728244,30.8687192 58.8111861,33.6728854 C58.3934226,36.1813742 58.2541681,45.7937507 66.2450879,46.1485636 C65.5965053,46.2210522 64.884972,46.2534814 64.0933196,46.2344054 C57.8440349,46.0932433 56.6765862,38.5544237 56.8177483,36.8127885 C56.9570028,35.0730609 57.9565831,29.1289916 54.1547442,23.0113311 C50.5512953,17.2103315 44.5385525,12.8171378 44.5385525,12.8171378 C44.9925604,13.8434245 45.0288047,17.458319 44.9811148,19.6367937 C44.9525009,20.872916 44.4603411,27.9329289 41.7992446,32.541681 C39.37469,36.7326695 40.6756705,41.7706307 40.6756705,41.7706307 C39.3861356,38.1519209 36.1336843,36.0383045 36.1336843,36.0383045 C37.9516234,37.7341574 39.086643,48.1477242 39.086643,48.1477242 C35.9028652,43.4760215 34.3157453,43.6858571 34.3157453,43.6858571 C40.6432414,54.7632673 36.8757392,61.5524017 33.0758079,70.06028 L31.8129793,73.446263 C33.1139598,80.586395 38.4495059,91.0152226 51.9514708,100.900385 C52.7259548,101.466941 53.6663996,102.123154 54.6926863,102.82515 C53.0635993,97.8711228 52.8480409,92.1387967 55.4995994,85.5614055 C53.7675022,93.1040403 55.3469917,99.433444 58.7005456,105.495784 C67.6300027,111.333028 80.3937278,119.098852 85.5766663,122.231124 C86.2004502,122.645073 86.8681088,123.08382 87.5586586,123.532105 C87.2648888,122.801496 86.9749342,122.097593 86.683072,121.405135 C86.6659036,121.391782 86.6449201,121.376521 86.6277517,121.365076 C84.7163405,117.87799 81.3074663,111.310137 81.2311625,108.662394 C81.2311625,108.662394 81.2502384,108.673839 81.2559612,108.677654 C80.5177216,103.534775 83.3123498,99.8740987 83.3123498,99.8740987 C93.0010301,99.5593453 98.0904964,93.3062455 98.0904964,93.3062455 C98.0904964,93.3062455 100.146885,101.665331 104.376025,106.913128 C108.607073,112.159017 117.280913,116.109649 118.564725,116.702911 C119.823738,117.277097 124.102476,118.889016 124.102476,118.889016 C122.049903,116.765862 120.687879,111.245279 120.687879,111.245279 C120.687879,111.245279 126.143604,116.13254 127.959635,118.675365 C129.785205,121.229636 132.053336,126.111175 132.053336,126.111175 C132.053336,126.111175 133.077715,124.382893 133.873183,120.161383 C134.521766,116.714357 134.100187,109.963374 133.419175,108.051963 C132.734348,106.144367 131.370417,99.1339514 131.147228,97.218725 C130.73328,93.6095532 132.284156,87.4499256 132.284156,87.4499256 L132.406242,89.4986838 C132.406242,89.4986838 132.421502,92.7816566 132.484453,94.9391477 C132.545496,96.9726451 132.961352,98.4910915 132.961352,98.4910915 C132.961352,98.4910915 133.388654,95.164244 134.781199,92.9724162 C137.686468,88.3884629 139.557819,81.4963183 139.557819,81.4963183 C139.557819,81.4963183 140.465835,78.102705 140.465835,73.6389302 C140.465835,69.1713403 138.19198,59.6219145 138.19198,59.6219145 L138.19198,59.6219145 Z" id="Fill-8" fill="#1A1919"></path>
            <path d="M14.4748388,99.4639655 C15.8998131,105.198199 17.8398382,111.601999 20.476136,118.335813 C25.9070619,132.205944 33.2036168,144.754111 42.165503,155.633131 C53.2486361,169.083591 66.9280073,179.993133 82.8144672,188.085155 C88.6383579,181.755751 91.8488421,172.961734 93.4245164,164.677044 C92.1445195,163.189119 90.2731678,161.123193 87.816184,158.635687 C86.4007478,170.252947 79.4227614,181.046126 79.4227614,181.046126 C79.4227614,181.046126 85.0825989,168.591431 85.1512724,156.008928 C80.5654115,151.592843 74.4878105,146.276373 66.8745946,140.761512 C49.7958872,128.402198 27.3148678,110.886651 26.6395788,82.4997139 C21.7160734,90.2769829 15.5640762,98.0904964 14.4748388,99.4639655" id="Fill-9" fill="#1A1919"></path>
            <path d="M45.461829,51.2761818 C45.461829,51.2761818 44.1646637,41.7038648 46.802869,35.7235512 C48.3022395,32.3318454 48.6551448,28.5033001 47.5182175,22.015566 C47.5182175,22.015566 47.398039,29.325474 45.6583114,32.9079394 C43.6457976,37.0417 43.1803441,41.3070848 43.9090458,45.5152417 C44.6396551,49.7272138 45.461829,51.2761818 45.461829,51.2761818" id="Fill-10" fill="#B01C33"></path>
            <path d="M44.7159589,72.2082332 C43.2490176,65.8235092 45.1680592,56.483919 44.7159589,57.2679409 C45.5114265,55.8811186 34.4435542,72.9045057 51.4993705,83.2646599 C51.4993705,83.2646599 46.1504712,78.5185609 44.7159589,72.2082332" id="Fill-11" fill="#B01C33"></path>
            <path d="M82.7057342,53.7179047 C82.7057342,53.7179047 81.1434131,53.6511388 80.6321773,55.1180802 C80.0160238,56.8597154 81.1758422,58.9027508 83.2284156,58.8150013 C83.2284156,58.8150013 86.2366945,59.1583686 87.1160963,56.4629354 C87.1160963,56.4629354 85.5385144,58.4067758 83.3276105,57.6914273 C81.549731,57.1172409 81.2407005,54.9082446 82.7057342,53.7179047" id="Fill-12" fill="#FFFFFE"></path>
            <path d="M85.918126,54.429438 C85.4431346,54.320705 85.0062951,54.2119721 84.5789936,54.1013315 C84.3271909,54.2806455 84.1555072,54.547709 84.1555072,54.8605547 C84.1555072,55.402312 84.6133303,55.8315211 85.1875167,55.8315211 C85.7597955,55.8315211 86.2233413,55.402312 86.2233413,54.8605547 C86.2233413,54.7213002 86.187097,54.5896761 86.1279615,54.4694975 C86.0554729,54.4542368 85.9925222,54.4466064 85.918126,54.429438" id="Fill-13" fill="#FFFFFE"></path>
            <path d="M92.3276487,54.8376636 C87.3087635,55.2191828 84.657205,52.7393079 80.0255618,52.4073862 C76.4888787,52.144138 75.5293579,52.88047 71.6435848,52.4264622 C71.6435848,52.4264622 72.7633436,53.6358781 77.8337339,53.3497387 C80.9812674,53.1704246 82.6427836,53.6110793 84.5789936,54.1013315 C85.0959521,54.2253252 85.6129106,54.3474114 86.1279615,54.4694975 C90.2731678,55.3736981 92.3276487,54.8376636 92.3276487,54.8376636" id="Fill-14" fill="#B4B5B4"></path>
            <path d="M127.25001,80.4566785 C127.25001,80.4566785 124.754874,87.3717142 124.785395,91.9556675 C124.810194,96.5377132 126.111175,101.028194 126.111175,101.028194 C124.810194,94.9200717 125.849834,88.0050361 127.045897,85.3057876 L127.997787,87.9115638 C127.997787,87.9115638 129.605891,83.5126474 130.805769,80.8114914 C132.011369,78.1236885 132.673305,75.8727252 132.673305,75.8727252 C132.673305,75.8727252 129.769944,80.5463355 128.436534,83.5126474 L127.25001,80.4566785" id="Fill-15" fill="#B4B5B4"></path>
            <path d="M133.76445,66.7353401 C133.76445,66.7353401 132.12201,64.3565679 129.195758,63.6316814 C126.27332,62.9029797 123.968944,59.246118 123.968944,59.246118 C123.968944,59.246118 124.751059,63.1261684 128.056923,64.5912022 C131.362787,66.0562359 133.232231,67.9886307 133.703407,69.5585823 L133.335241,73.177292 C133.335241,73.177292 134.443554,69.8599825 135.155088,66.5083362 C135.767426,63.5992522 136.936782,62.3879287 137.24009,62.1132349 C135.0578,63.8148106 133.76445,66.7353401 133.76445,66.7353401" id="Fill-16" fill="#B4B5B4"></path>
            <path d="M132.051429,58.4372973 C134.439739,56.483919 135.488917,56.0699706 135.488917,56.0699706 C135.488917,56.0699706 132.484453,54.8853535 128.062645,55.8009996 L126.158865,56.4305063 C126.158865,56.4305063 129.653581,60.3830453 132.051429,58.4372973" id="Fill-17" fill="#B4B5B4"></path>
            <path d="M77.3053298,46.8505589 C83.2665675,47.2454313 88.6364503,41.5855938 88.6364503,41.5855938 C85.7426271,41.3471443 77.4731983,45.967342 77.4731983,45.967342 L77.3053298,46.8505589" id="Fill-18" fill="#B4B5B4"></path>
            <path d="M102.104078,42.5451146 C100.570371,41.986189 96.6502613,41.192629 93.4970051,41.7439243 C90.3456564,42.3085727 88.5487009,44.9334249 88.5487009,44.9334249 C94.0959902,42.3848766 102.104078,42.5451146 102.104078,42.5451146" id="Fill-19" fill="#B4B5B4"></path>
            <path d="M75.2584793,46.8505589 C76.6185952,46.047461 78.2381443,44.3783144 78.0664606,43.4207012 C77.8985922,42.4649956 78.9191561,40.3151349 78.9191561,40.3151349 C79.0908397,38.878715 76.7044371,43.4207012 76.534661,44.3783144 C76.3629774,45.3340201 73.8888253,47.6441189 75.2584793,46.8505589" id="Fill-20" fill="#B4B5B4"></path>
            <path d="M85.1512724,156.008928 C85.0825989,168.591431 79.4227614,181.046126 79.4227614,181.046126 C79.4227614,181.046126 86.4007478,170.252947 87.816184,158.635687 C86.9959177,157.803975 86.1031628,156.926481 85.1512724,156.008928" id="Fill-21" fill="#B4B5B4"></path>
            <path d="M54.6926863,102.82515 C56.3446645,103.952539 58.2770592,105.226813 60.3754149,106.585022 C59.8050437,106.214948 59.2442104,105.852505 58.7005456,105.495784 C55.3469917,99.433444 53.7675022,93.1040403 55.4995994,85.5614055 C52.8480409,92.1387967 53.0635993,97.8711228 54.6926863,102.82515" id="Fill-22" fill="#B4B5B4"></path>
            <path d="M48.8630728,117.559422 C50.0381519,118.677273 51.232307,119.764603 52.4340926,120.832856 L54.8243104,113.517226 C52.9319751,112.02167 51.1731716,110.545191 49.5078402,109.089695 L49.6814315,108.555568 L47.2835832,115.991378 C47.8100797,116.52932 48.3365762,117.057724 48.8630728,117.559422" id="Fill-23" fill="#B01C33"></path>
            <path d="M98.7180955,150.934722 C96.5548815,150.350998 94.0578383,149.483041 91.240319,148.286979 L91.0610049,148.823013 L87.8028309,156.983709 L90.158712,148.403342 L90.328488,147.895922 C88.1557361,146.940216 85.8036702,145.799474 83.2493991,144.424097 L83.693869,143.077334 C86.2729388,144.567166 88.6154668,145.849071 90.6527794,146.92877 L93.9071382,137.230552 C91.5741483,136.253863 89.1648545,135.134104 86.7307619,133.903705 L83.0395635,145.055511 L80.5577811,150.833619 L82.0838579,144.504216 L82.2860631,143.895693 C80.8000458,143.077334 79.2739689,142.209378 77.6601427,141.234596 C76.6853611,140.656595 75.7353783,140.078593 74.806379,139.500591 L74.6442333,139.987028 L72.6202739,144.424097 L73.7362176,139.416657 L73.9002709,138.928313 C71.3917821,137.350731 69.0244554,135.778871 66.7963832,134.226088 L66.6418679,134.695357 L64.9402922,138.371294 L65.8444928,134.180306 L66.0123612,133.674793 C63.8014574,132.114379 61.7183625,130.573042 59.7459082,129.062226 L59.5513334,129.653581 L57.8497577,133.230323 L58.6395025,129.203388 L58.9008432,128.406013 C57.2736637,127.145092 55.7056198,125.903247 54.2253252,124.693831 C53.7045515,124.270345 53.2009462,123.83732 52.6935256,123.404296 L52.5084888,123.967037 L50.864141,127.280531 L51.6844073,123.125787 L52.1689367,121.643585 L51.8312922,122.677502 C50.0228912,121.105643 48.3175003,119.486094 46.6884133,117.839838 L46.5205448,118.356797 L44.7884476,122.057533 L45.7136317,117.469765 L45.8605166,117.004311 C44.1608485,115.245508 42.5584678,113.45809 41.0781733,111.655412 L41.3948342,110.650109 L40.8263706,112.452787 L39.2926634,115.522109 L40.0919461,111.254817 L42.8064553,102.752661 C41.2727481,101.175079 39.9069093,99.6509099 38.6459883,98.1668002 L36.9921026,103.27725 C38.2492083,105.11045 39.5578192,106.920758 40.9179352,108.664301 L40.2807981,110.659647 C38.8443783,108.855061 37.5510282,107.044752 36.3549655,105.242074 L36.2042654,105.711343 L34.6190531,108.816909 L35.3649231,104.648812 L35.5594979,104.040288 C34.2833162,102.022052 33.1578345,100.022891 32.215482,98.0618824 L32.6981038,96.5281752 C33.7797108,98.3785434 34.95479,100.240357 36.1851894,102.085002 L37.7665865,97.1386059 C36.3416123,95.4065087 35.1035825,93.7488078 34.062035,92.1883942 L32.0953035,98.4453092 L30.8401053,100.618061 L31.3933082,97.0527641 L31.5344703,96.604479 C30.5844874,94.4508031 29.8519705,92.354355 29.3598108,90.3551944 C30.1342948,91.9423143 31.0251421,93.5847545 31.9617718,95.2424555 L31.5707146,96.4881157 L33.2951814,91.0094998 C31.3742322,87.9459006 30.1743543,85.2714509 29.6631185,83.1368509 C30.7561711,85.4164282 32.1124719,87.6731143 33.6442715,89.8992789 L33.8254931,89.3231849 L35.1913319,86.7765442 L34.5904391,90.5078021 L34.4263859,91.0285758 C35.5842967,92.6366793 36.852848,94.2237992 38.1957957,95.7899355 L37.9401778,96.5911259 L38.331235,95.3683568 L39.7504864,92.8446072 L39.2373431,96.3374156 L39.0198772,97.0050742 L39.0847354,96.8085918 C40.4162375,98.3175003 41.8125978,99.8073328 43.2795391,101.270459 L43.4149784,100.843157 C43.4149784,100.843157 44.9067186,97.8577696 44.9067186,97.8539544 L44.2142612,101.741635 L44.1055282,102.083095 C45.7231697,103.664492 47.4113922,105.21346 49.1415818,106.733814 L49.2960971,106.251192 L50.873679,103.092213 L50.2346343,106.834917 L50.0209836,107.500668 C51.7607112,109.001946 53.5404983,110.47461 55.3527145,111.903399 L55.6255007,111.06978 L57.3976575,107.460608 L56.474381,112.015948 L56.2740834,112.61684 C58.3419175,114.223036 60.4383656,115.775819 62.5386288,117.27519 L62.7351112,116.672389 L64.7895922,112.063637 L63.5916218,117.380108 L60.3010187,127.375911 C62.3917439,129.010721 64.4824692,130.574949 66.5483957,132.053336 L69.285796,123.78963 C67.000496,122.313151 64.8582656,120.867193 62.8934417,119.501354 L63.4199382,117.904697 C65.5545382,119.413605 67.6891381,120.869101 69.7932166,122.254015 L69.9877914,121.670291 L72.1014078,116.750601 L70.773721,122.208233 L70.5867765,122.772882 C73.0571134,124.3848 75.4644996,125.884171 77.7936744,127.299607 L77.3129602,128.736027 C74.8273626,127.276716 72.3913624,125.781161 70.0812636,124.298958 L67.2141467,132.965167 L67.3324177,132.608447 C69.7493419,134.31956 72.1166686,135.900958 74.4153218,137.388883 L78.1294113,126.298119 L80.2792721,121.44138 L79.0107207,126.830338 L75.311892,137.976422 C77.9157606,139.643661 80.4128038,141.162108 82.740071,142.520316 L85.7636107,133.40773 C83.2360459,132.106749 80.6989432,130.702758 78.2057152,129.254893 L78.6749838,127.843272 C81.3265423,129.43993 83.8464767,130.901148 86.1642059,132.202129 L86.385487,131.536378 L88.609744,126.536569 L87.3106711,132.148716 L87.1160963,132.736256 C89.8000839,134.231811 92.1769486,135.500362 94.1436801,136.524742 L94.0158712,136.906261 L94.408836,135.734997 L96.4671321,131.156766 L95.3015909,136.204265 L94.8647514,137.505246 L95.0383427,136.988287 C98.1477242,138.592576 100.009538,139.471977 100.009538,139.471977 C98.3594674,138.968372 96.614017,138.317882 94.8342299,137.598718 L91.5417191,147.396131 C95.9749723,149.713861 98.7180955,150.934722 98.7180955,150.934722 Z M101.38873,143.432147 C101.38873,143.432147 109.972912,140.46965 106.579299,131.900729 C103.189501,123.34516 81.2311625,108.662394 81.2311625,108.662394 C81.3074663,111.310137 84.7163405,117.87799 86.6277517,121.365076 C89.1705772,123.270764 93.8098508,126.589981 103.172332,133.007134 C99.1110602,130.929762 90.9560871,125.792606 85.5766663,122.231124 C78.8256839,118.150776 59.1793522,106.193964 51.9514708,100.900385 C38.4495059,91.0152226 33.1139598,80.586395 31.8129793,73.446263 L33.3333333,69.3697303 L28.2057152,71.3021251 L27.3129602,72.1662661 C21.9983976,106.758613 47.8119873,126.967685 66.8745946,140.761512 C85.9238488,154.559155 95.5324101,167.2275 95.5324101,167.2275 C97.1672199,166.483537 99.900805,155.329823 103.956354,151.611919 C108.013811,147.90546 101.38873,143.432147 101.38873,143.432147 L101.38873,143.432147 Z" id="Fill-24" fill="#B01C33"></path>
            <path d="M43.624814,103.603449 L41.7114952,109.648621 C43.2623708,111.584831 44.8552135,113.423753 46.4614093,115.127237 L48.8649804,107.596047 L48.6322536,108.326657 C46.8276678,106.720461 45.1566136,105.142879 43.624814,103.603449" id="Fill-25" fill="#B01C33"></path>
            <path d="M60.2018237,117.597574 C58.6452253,116.472092 57.1630232,115.354241 55.7342337,114.24402 L53.0750448,122.255923 L53.2944184,121.595895 C55.3298234,123.37759 57.3900271,125.077258 59.454046,126.71016 L62.3287933,117.91805 L62.0121323,118.885201 C61.3883484,118.446454 60.7798253,118.013429 60.2018237,117.597574" id="Fill-26" fill="#B01C33"></path>
            <path d="M47.2835832,115.991378 L50.2346343,106.834917 L50.873679,103.092213 L49.2960971,106.251192 L46.4614093,115.127237 C44.8552135,113.423753 43.2623708,111.584831 41.7114952,109.648621 L41.0781733,111.655412 C42.5584678,113.45809 44.1608485,115.245508 45.8605166,117.004311 L45.7136317,117.469765 L44.7884476,122.057533 L46.5205448,118.356797 L46.6884133,117.839838 C48.3175003,119.486094 50.0228912,121.105643 51.8312922,122.677502 L52.4340926,120.832856 C51.232307,119.764603 50.0381519,118.677273 48.8630728,117.559422 C48.3365762,117.057724 47.8100797,116.52932 47.2835832,115.991378" id="Fill-27" fill="#1A1919"></path>
            <path d="M31.5344703,96.604479 L31.9617718,95.2424555 C31.0251421,93.5847545 30.1342948,91.9423143 29.3598108,90.3551944 C29.8519705,92.354355 30.5844874,94.4508031 31.5344703,96.604479" id="Fill-28" fill="#1A1919"></path>
            <path d="M98.7180955,150.934722 C98.7180955,150.934722 95.9749723,149.713861 91.5417191,147.396131 L95.3015909,136.204265 L96.4671321,131.156766 L94.408836,135.734997 L90.6527794,146.92877 C88.6154668,145.849071 86.2729388,144.567166 83.693869,143.077334 L83.2493991,144.424097 C85.8036702,145.799474 88.1557361,146.940216 90.328488,147.895922 L90.158712,148.403342 L87.8028309,156.983709 L91.0610049,148.823013 L91.240319,148.286979 C94.0578383,149.483041 96.5548815,150.350998 98.7180955,150.934722" id="Fill-29" fill="#1A1919"></path>
            <path d="M39.2373431,96.3374156 L39.7504864,92.8446072 L38.331235,95.3683568 L36.1851894,102.085002 C34.95479,100.240357 33.7797108,98.3785434 32.6981038,96.5281752 L32.215482,98.0618824 C33.1578345,100.022891 34.2833162,102.022052 35.5594979,104.040288 L35.3649231,104.648812 L34.6190531,108.816909 L36.2042654,105.711343 L36.3549655,105.242074 C37.5510282,107.044752 38.8443783,108.855061 40.2807981,110.659647 L40.9179352,108.664301 C39.5578192,106.920758 38.2492083,105.11045 36.9921026,103.27725 L39.2373431,96.3374156" id="Fill-30" fill="#1A1919"></path>
            <path d="M63.5916218,117.380108 L64.7895922,112.063637 L62.7351112,116.672389 L59.454046,126.71016 C57.3900271,125.077258 55.3298234,123.37759 53.2944184,121.595895 L52.6935256,123.404296 C53.2009462,123.83732 53.7045515,124.270345 54.2253252,124.693831 C55.7056198,125.903247 57.2736637,127.145092 58.9008432,128.406013 L58.6395025,129.203388 L57.8497577,133.230323 L59.5513334,129.653581 L59.7459082,129.062226 C61.7183625,130.573042 63.8014574,132.114379 66.0123612,133.674793 L66.5483957,132.053336 C64.4824692,130.574949 62.3917439,129.010721 60.3010187,127.375911 L63.5916218,117.380108" id="Fill-31" fill="#1A1919"></path>
            <path d="M79.0107207,126.830338 L80.2792721,121.44138 L78.1294113,126.298119 L74.4153218,137.388883 C72.1166686,135.900958 69.7493419,134.31956 67.3324177,132.608447 L66.7963832,134.226088 C69.0244554,135.778871 71.3917821,137.350731 73.9002709,138.928313 L73.7362176,139.416657 L72.6202739,144.424097 L74.6442333,139.987028 L74.806379,139.500591 C75.7353783,140.078593 76.6853611,140.656595 77.6601427,141.234596 C79.2739689,142.209378 80.8000458,143.077334 82.2860631,143.895693 L82.740071,142.520316 C80.4128038,141.162108 77.9157606,139.643661 75.311892,137.976422 L79.0107207,126.830338" id="Fill-32" fill="#1A1919"></path>
            <path d="M49.1415818,106.733814 C47.4113922,105.21346 45.7231697,103.664492 44.1055282,102.083095 L44.2142612,101.741635 L44.9067186,97.8539544 C44.9067186,97.8577696 43.4149784,100.843157 43.4149784,100.843157 L43.2795391,101.270459 C41.8125978,99.8073328 40.4162375,98.3175003 39.0847354,96.8085918 L38.6459883,98.1668002 C39.9069093,99.6509099 41.2727481,101.175079 42.8064553,102.752661 L40.0919461,111.254817 L39.2926634,115.522109 L40.8263706,112.452787 L43.624814,103.603449 C45.1566136,105.142879 46.8276678,106.720461 48.6322536,108.326657 L49.1415818,106.733814" id="Fill-33" fill="#B4B5B4"></path>
            <path d="M38.1957957,95.7899355 C36.852848,94.2237992 35.5842967,92.6366793 34.4263859,91.0285758 L34.5904391,90.5078021 L35.1913319,86.7765442 L33.8254931,89.3231849 L33.6442715,89.8992789 C32.1124719,87.6731143 30.7561711,85.4164282 29.6631185,83.1368509 C30.1743543,85.2714509 31.3742322,87.9459006 33.2951814,91.0094998 L31.3933082,97.0527641 L30.8401053,100.618061 L32.0953035,98.4453092 L34.062035,92.1883942 C35.1035825,93.7488078 36.3416123,95.4065087 37.7665865,97.1386059 L38.1957957,95.7899355" id="Fill-34" fill="#B4B5B4"></path>
            <path d="M100.009538,139.471977 C100.009538,139.471977 98.1477242,138.592576 95.0383427,136.988287 L94.8342299,137.598718 C96.614017,138.317882 98.3594674,138.968372 100.009538,139.471977" id="Fill-35" fill="#B4B5B4"></path>
            <path d="M77.7936744,127.299607 C75.4644996,125.884171 73.0571134,124.3848 70.5867765,122.772882 L70.773721,122.208233 L72.1014078,116.750601 L69.9877914,121.670291 L69.7932166,122.254015 C67.6891381,120.869101 65.5545382,119.413605 63.4199382,117.904697 L62.8934417,119.501354 C64.8582656,120.867193 67.000496,122.313151 69.285796,123.78963 L65.8444928,134.180306 L64.9402922,138.371294 L66.6418679,134.695357 L70.0812636,124.298958 C72.3913624,125.781161 74.8273626,127.276716 77.3129602,128.736027 L77.7936744,127.299607" id="Fill-36" fill="#B4B5B4"></path>
            <path d="M94.1436801,136.524742 C92.1769486,135.500362 89.8000839,134.231811 87.1160963,132.736256 L87.3106711,132.148716 L88.609744,126.536569 L86.385487,131.536378 L86.1642059,132.202129 C83.8464767,130.901148 81.3265423,129.43993 78.6749838,127.843272 L78.2057152,129.254893 C80.6989432,130.702758 83.2360459,132.106749 85.7636107,133.40773 L82.0838579,144.504216 L80.5577811,150.833619 L83.0395635,145.055511 L86.7307619,133.903705 C89.1648545,135.134104 91.5741483,136.253863 93.9071382,137.230552 L94.1436801,136.524742" id="Fill-37" fill="#B4B5B4"></path>
            <path d="M62.0121323,118.885201 L62.5386288,117.27519 C60.4383656,115.775819 58.3419175,114.223036 56.2740834,112.61684 L56.474381,112.015948 L57.3976575,107.460608 L55.6255007,111.06978 L55.3527145,111.903399 C53.5404983,110.47461 51.7607112,109.001946 50.0209836,107.500668 L49.5078402,109.089695 C51.1731716,110.545191 52.9319751,112.02167 54.8243104,113.517226 L51.6844073,123.125787 L50.864141,127.280531 L52.5084888,123.967037 L55.7342337,114.24402 C57.1630232,115.354241 58.6452253,116.472092 60.2018237,117.597574 C60.7798253,118.013429 61.3883484,118.446454 62.0121323,118.885201" id="Fill-38" fill="#B4B5B4"></path>
        </g>
    </g>
</svg>