<?xml version="1.0" encoding="UTF-8"?>
<svg width="200px" height="200px" viewBox="0 0 200 200" version="1.1" xmlns="http://www.w3.org/2000/svg" xmlns:xlink="http://www.w3.org/1999/xlink">
    <!-- Generator: Sketch 54.1 (76490) - https://sketchapp.com -->
    <title>carroll-wi</title>
    <desc>Created with Sketch.</desc>
    <g id="carroll-wi" stroke="none" stroke-width="1" fill="none" fill-rule="evenodd">
        <g id="carroll-wi_BGL">
            <g id="carroll-wi" transform="translate(0.000000, 39.000000)">
                <g id="g10" transform="translate(99.899293, 61.091642) scale(-1, 1) rotate(-180.000000) translate(-99.899293, -61.091642) translate(0.000000, 0.064453)" fill-rule="nonzero">
                    <g id="g12">
                        <path d="M74.4378632,73.850552 C74.4378632,73.850552 69.410673,69.419535 50.5683774,64.6239662 C50.5683774,64.6239662 48.2505527,64.2553861 47.9778437,61.9077527 C47.7051348,59.5605222 50.5530702,58.8898273 50.5530702,58.8898273 C50.5530702,58.8898273 78.755285,53.2692837 96.3621325,46.9820733 C96.3621325,46.9820733 94.9881144,45.9999988 94.9881144,44.5224561 C94.9881144,43.0449133 96.3621325,42.1063434 96.3621325,42.1063434 C96.3621325,42.1063434 144.460419,26.3815502 155.532322,2.08459209 C155.532322,2.08459209 155.861023,0.728221533 157.506542,0.101177037 C159.15206,-0.526968768 162.123662,1.71890832 168.627186,8.48455165 C168.627186,8.48455165 170.178042,7.37474302 172.060016,8.86972787 C173.942392,10.3649141 183.939975,18.2445917 183.939975,26.5494455 C183.939975,34.853977 179.686199,36.3738158 179.686199,38.2663032 C179.686199,40.1578238 182.298082,40.8994955 182.298082,44.087008 C182.298082,47.2745205 180.711778,48.0439062 180.711778,48.0439062 C180.711778,48.0439062 183.375222,49.8062425 182.112785,53.6620329 C182.112785,53.6620329 189.799794,54.1893239 187.179049,60.320643 C185.006642,65.404228 182.178042,70.896675 182.178042,70.896675 C182.178042,70.896675 187.15206,73.4151039 190.20503,79.2878127 L198.319431,94.9127872 C198.319431,94.9127872 204.894255,105.983885 189.098485,110.260622 C173.302312,114.537359 159.022755,118.323461 159.022755,118.323461 C159.022755,118.323461 156.916008,118.965153 155.718022,117.325677 C155.718022,117.325677 139.57341,121.815908 133.883985,121.815908 C131.642696,121.815908 131.092847,120.308154 131.092847,120.308154 C131.092847,120.308154 111.216513,124.481366 101.026382,105.374821 C101.026382,105.374821 88.1909344,112.609866 81.1278932,112.609866 C79.8300081,112.609866 78.873714,111.509766 78.873714,111.509766 C78.873714,111.509766 73.0308139,113.659212 64.2453156,113.659212 C55.4594145,113.659212 48.012889,111.540783 37.7885993,105.947228 C27.5641886,100.354479 20.2177638,94.8559896 3.52341582,98.6622332 C3.52341582,98.6622332 2.13132724,99.1617296 0.655842884,97.6857982 C-0.819645498,96.2106723 0.655842884,94.0245697 0.655842884,94.0245697 C0.655842884,94.0245697 11.8793955,75.1025157 35.0632418,72.1953658 C35.0632418,72.1953658 35.4138158,70.1997968 37.625417,69.8819721 C39.8369779,69.5637445 56.8853964,66.9844898 74.4378632,73.850552" id="path14" fill="#FFFFFF"></path>
                        <path d="M154.022151,106.298487 L150.977237,109.316815 C160.995364,106.374217 175.118626,100.710572 175.118626,100.710572 L171.077136,104.75891 L183.25921,100.858406 C183.25921,100.858406 188.105937,99.7389703 185.792543,94.8882152 C185.352664,93.965758 184.891033,93.0054357 184.432221,92.055184 C182.999794,89.090028 179.124265,88.3452143 176.685595,90.5583059 C171.461829,95.2986885 160.086602,103.488014 131.658003,111.268477 C146.808456,109.164146 154.022151,106.298487 154.022151,106.298487 L154.022151,106.298487 Z M111.07754,106.227993 C108.656191,102.81893 98.7617297,88.8507531 98.7617297,88.8507531 C123.964146,100.610672 168.003621,77.7301088 168.003621,77.7301088 C170.567972,76.2920424 179.098485,72.6001996 184.563137,83.3413876 C191.055786,96.1027166 191.055786,96.1027166 191.055786,96.1027166 C191.055786,96.1027166 194.190126,101.027993 189.264849,103.042898 C184.33917,105.057802 166.727085,109.386503 166.727085,109.386503 L168.219935,107.371196 C168.219935,107.371196 156.936149,111.60322 142.47331,114.684791 L145.208858,112.064851 C145.208858,112.064851 129.994357,116.723864 121.337358,114.236452 L125.259614,113.002616 C125.259614,113.002616 115.299091,112.171196 111.07754,106.227993 L111.07754,106.227993 Z" id="path16" fill="#F2541B"></path>
                        <path d="M71.3232611,104.172807 C72.7661613,97.7135927 76.529706,101.353875 79.2338349,97.5987891 C82.2384672,93.4263824 80.9655569,88.1732103 79.3059396,84.4128881 C95.3156069,94.5413874 99.7111758,98.1176209 99.7111758,98.1176209 C99.7111758,98.1176209 93.3679735,102.221951 87.3977823,103.938366 L88.7411861,101.102918 C88.7411861,101.102918 81.2829788,105.031619 70.8926468,106.390732 C70.9989912,105.735748 71.1387696,104.998588 71.3232611,104.172807" id="path18" fill="#F2541B"></path>
                        <path d="M28.0288412,93.4988899 C23.5740981,91.7429987 18.633071,90.5107732 12.6954277,90.4310149 C12.6954277,90.4310149 23.4324667,77.9206426 45.9500492,78.6167151 C46.0221539,78.6187292 46.0725064,78.6739155 46.1317209,78.7158087 C48.9691831,80.7274904 47.6358498,84.0721026 38.6467664,85.9830794 C32.1015903,87.3744188 29.1638261,91.3643482 28.0288412,93.4988899" id="path20" fill="#F2541B"></path>
                        <path d="M64.8471283,97.7518606 C64.5570981,100.814902 64.8362522,102.500702 61.5395755,107.060219 C50.5909353,106.943804 36.5694251,98.08177 36.5694251,98.08177 C41.479153,91.2781447 50.8290018,92.40604 55.0964739,87.731317 C59.1577024,83.2821731 56.8116804,78.6118812 54.4551849,75.9875107 C58.4761315,76.4161109 64.624369,77.8690816 69.9315189,79.7071481 C71.3019116,82.4821732 72.3750234,86.0173191 73.1746205,88.4495446 C74.2054362,91.5867047 71.9911362,92.4894237 69.4050335,92.4777419 C66.818528,92.4656573 65.2084576,93.9339352 64.8471283,97.7518606" id="path22" fill="#F2541B"></path>
                        <path d="M191.055786,96.1027166 C191.055786,96.1027166 191.055786,96.1027166 184.563137,83.3413876 C179.098485,72.6001996 170.567972,76.2920424 168.003621,77.7301088 C168.003621,77.7301088 123.964146,100.610672 98.7617297,88.8507531 C98.7617297,88.8507531 108.656191,102.81893 111.07754,106.227993 C115.299091,112.171196 125.259614,113.002616 125.259614,113.002616 L121.337358,114.236452 C129.994357,116.723864 145.208858,112.064851 145.208858,112.064851 L142.47331,114.684791 C156.936149,111.60322 168.219935,107.371196 168.219935,107.371196 L166.727085,109.386503 C166.727085,109.386503 184.33917,105.057802 189.264849,103.042898 C194.190126,101.027993 191.055786,96.1027166 191.055786,96.1027166 L191.055786,96.1027166 Z M123.965354,45.2314188 C123.965354,45.2314188 108.465254,49.6640471 104.661427,66.226383 C104.661427,66.226383 94.4700883,56.0088606 66.6513579,62.0475312 C66.6513579,62.0475312 85.7824752,62.2082562 98.9482352,81.666866 L90.6014076,79.6016093 C104.149041,91.0819715 117.497681,89.1125859 130.134539,87.3212466 C130.134539,87.3212466 88.59174,80.3605217 123.965354,45.2314188 Z M79.3059396,84.4128881 C80.9655569,88.1732103 82.2384672,93.4263824 79.2338349,97.5987891 C76.529706,101.353875 72.7661613,97.7135927 71.3232611,104.172807 C71.1387696,104.998588 70.9989912,105.735748 70.8926468,106.390732 C81.2829788,105.031619 88.7411861,101.102918 88.7411861,101.102918 L87.3977823,103.938366 C93.3679735,102.221951 99.7111758,98.1176209 99.7111758,98.1176209 C99.7111758,98.1176209 95.3156069,94.5413874 79.3059396,84.4128881 L79.3059396,84.4128881 Z M73.1746205,88.4495446 C72.3750234,86.0173191 71.3019116,82.4821732 69.9315189,79.7071481 C64.624369,77.8690816 58.4761315,76.4161109 54.4551849,75.9875107 C56.8116804,78.6118812 59.1577024,83.2821731 55.0964739,87.731317 C50.8290018,92.40604 41.479153,91.2781447 36.5694251,98.08177 C36.5694251,98.08177 50.5909353,106.943804 61.5395755,107.060219 C64.8362522,102.500702 64.5570981,100.814902 64.8471283,97.7518606 C65.2084576,93.9339352 66.818528,92.4656573 69.4046307,92.4777419 C71.9911362,92.4894237 74.2054362,91.5867047 73.1746205,88.4495446 Z M46.1317209,78.7158087 C46.0721036,78.6739155 46.0221539,78.6187292 45.9500492,78.6167151 C23.4324667,77.9206426 12.6954277,90.4310149 12.6954277,90.4310149 C18.633071,90.5107732 23.5740981,91.7429987 28.0288412,93.4988899 C29.1638261,91.3643482 32.1015903,87.3744188 38.6467664,85.9830794 C47.6358498,84.0721026 48.9691831,80.7274904 46.1317209,78.7158087 L46.1317209,78.7158087 Z M188.816914,107.371196 C176.777035,110.704932 158.020137,115.630209 158.020137,115.630209 L160.731919,112.918829 C140.632021,118.864045 133.617318,118.963542 133.617318,118.963542 L136.154679,116.575224 C136.154679,116.575224 122.553874,120.153471 112.85035,114.415304 L115.15609,113.649544 C108.646523,112.026583 107.229,108.922857 102.355687,101.238265 C97.2205414,104.545818 89.6410854,108.196976 81.1278932,109.750249 L83.4602195,106.578044 C83.4602195,106.578044 75.8098672,110.804025 64.959515,110.804025 C36.8995358,110.804025 32.1234634,89.0130894 2.86946216,95.8787489 C2.86946216,95.8787489 15.4498687,74.7262821 40.5591128,74.7262821 L37.8696063,72.7440062 C37.8696063,72.7440062 71.1448119,66.1784475 95.3244689,90.8628376 C89.5407833,82.2787492 84.7629385,78.2336335 77.1158087,72.8962721 L88.0447108,75.7293032 C78.7162115,68.1172188 57.902919,63.4195352 50.830613,61.7458192 C55.5826774,60.8833822 89.2024147,54.5276925 114.155888,42.9985891 L97.8457176,44.5345407 C115.756694,38.5647926 149.885998,23.0916409 158.319029,2.84271091 C158.319029,2.84271091 165.06344,7.44366547 172.56354,17.9415101 L170.072906,10.9523059 C179.102916,17.7063037 181.080761,23.8187708 181.080761,26.5494455 C181.080761,33.2906739 176.826582,35.3554473 176.826582,38.2663032 C176.826582,41.1762326 179.438465,42.221147 179.438465,44.087008 C179.438465,45.9528689 177.871496,46.6243694 177.871496,46.6243694 C177.871496,46.6243694 160.897478,27.7711171 133.542796,47.668881 C133.542796,47.668881 143.915807,42.6690825 158.841486,42.6690825 C158.841486,42.6690825 158.273511,42.1011067 156.952262,40.779858 C160.091839,40.3593142 176.204628,44.4882164 179.09486,51.2966755 C181.019129,55.8308143 160.706945,52.6694851 153.468274,51.4006029 C146.229201,50.1321236 124.895062,48.6279948 120.980057,68.2662621 C116.502716,90.7295043 145.831618,84.982878 159.51339,77.8187292 C166.194961,74.319837 169.51339,71.6994947 174.961124,71.6994947 L179.8864,62.2211465 C179.8864,62.2211465 182.237256,58.7137951 174.438666,58.6767357 C165.185092,58.6320227 165.687408,59.4851949 166.918828,60.9031203 C168.406844,62.6163126 166.751657,63.4900286 166.751657,63.4900286 C166.751657,63.4900286 155.632625,55.5448123 168.617518,55.5794548 C182.64773,55.616917 186.652966,55.7413883 182.846723,63.241086 C178.768173,71.2781452 178.244507,72.3709952 178.244507,72.3709952 C178.244507,72.3709952 183.990731,73.3409851 188.368978,81.8984874 C192.747226,90.4555869 195.832019,96.3262816 195.832019,96.3262816 C195.832019,96.3262816 200.856793,104.038265 188.816914,107.371196 L188.816914,107.371196 Z" id="path24" fill="#0C2950"></path>
                        <path d="M152.186502,70.2505521 C158.034236,69.2906327 159.256794,64.8785482 159.256794,64.8785482 C160.685998,65.0142985 161.048133,66.038669 161.048133,66.038669 C166.193349,64.5989913 168.54058,69.9121835 168.54058,69.9121835 C168.54058,69.9121835 166.953067,69.6366549 162.216713,72.845114 C155.617317,77.3659598 149.535948,73.3305118 149.535948,73.3305118 C157.765958,73.4195349 158.573209,70.7528683 158.573209,70.7528683 C155.574216,71.8356478 152.186502,70.2505521 152.186502,70.2505521" id="path26" fill="#0C2950"></path>
                        <path d="M183.25921,100.858406 L171.077136,104.75891 L175.118626,100.710572 C175.118626,100.710572 160.995364,106.374217 150.977237,109.316815 L154.022151,106.298487 C154.022151,106.298487 146.808456,109.164146 131.658003,111.268477 C160.086602,103.488014 171.461829,95.2986885 176.685595,90.5583059 C179.124265,88.3452143 182.999794,89.090028 184.432221,92.055184 C184.891033,93.0054357 185.352664,93.965758 185.792543,94.8882152 C188.105937,99.7389703 183.25921,100.858406 183.25921,100.858406" id="path28" fill="#0C2950"></path>
                    </g>
                </g>
            </g>
        </g>
    </g>
</svg>