<?xml version="1.0" encoding="UTF-8"?>
<svg width="200px" height="200px" viewBox="0 0 200 200" version="1.1" xmlns="http://www.w3.org/2000/svg" xmlns:xlink="http://www.w3.org/1999/xlink">
    <!-- Generator: Sketch 54.1 (76490) - https://sketchapp.com -->
    <title>carthage</title>
    <desc>Created with Sketch.</desc>
    <g id="carthage" stroke="none" stroke-width="1" fill="none" fill-rule="evenodd">
        <g id="carthage_BGL">
            <g id="carthage" transform="translate(0.000000, 47.000000)">
                <g id="g10" transform="translate(99.790354, 53.677148) scale(-1, 1) rotate(-180.000000) translate(-99.790354, -53.677148) translate(0.000000, 0.427674)" fill-rule="nonzero">
                    <g id="g12">
                        <path d="M136.322848,32.9075044 C131.524525,27.4892236 122.183645,20.2790771 116.146748,16.2424315 C108.353876,11.032201 101.38113,8.51320733 95.3635196,7.04238976 C89.8607944,8.51320733 83.7716541,11.032201 77.8040232,16.2424315 C76.3475872,17.5160583 74.9855746,18.842683 73.6992015,20.2240666 C72.2117382,22.0352196 71.4858682,26.3250308 77.6048618,28.1214249 C81.2654068,29.1958064 90.5123667,31.2676722 92.3589075,31.7020537 C93.772744,32.0325359 94.4612136,32.334255 94.4704379,32.9075044 L52.9314033,32.8743807 L52.4210469,32.8743807 C55.8375667,25.5516136 61.7773569,16.676813 68.1741702,11.0911528 C74.1781114,5.85003759 80.7710672,2.39419701 88.9249454,0.216195382 L89.9002074,0 L90.9408782,0.216195382 C99.8582784,2.39419701 107.662052,5.85003759 115.502722,11.0911528 C123.855762,16.676813 134.805028,25.5847373 140.785741,32.9075044 L136.322848,32.9075044" id="path14" fill="#D01C2E"></path>
                        <path d="M61.1641913,75.5080904 C61.7023884,78.5797045 62.6284261,82.5530378 62.6284261,82.5530378 C62.6284261,82.5530378 84.2062872,96.1190752 110.819284,96.2163498 C125.918655,96.2716957 137.334168,96.1215909 155.622638,86.7412976 C155.622638,86.7412976 154.948424,81.9847359 153.832281,75.5080904 C153.773581,75.164778 153.608382,74.291822 153.166453,72.1684678 L157.454923,72.1684678 C157.977355,74.1322413 159.163937,80.0357213 159.46834,81.5080902 C160.276726,85.4406687 160.891401,88.9392011 161.012994,89.7148825 C161.012994,89.7148825 156.79748,92.966874 152.39161,95.5790332 C147.576516,98.4335405 141.143812,100.99287 132.636475,103.253666 C123.574001,105.662052 112.89811,106.29853 108.519075,106.29853 C104.139201,106.29853 93.2536664,105.60419 83.3343375,103.253666 C62.9585728,98.4259933 50.7890973,89.8968531 50.7890973,89.8968531 C50.7890973,89.8968531 49.3566445,84.4964339 48.7237724,79.8866227 C48.3847367,77.4266647 48.011655,75.7815495 47.7676298,72.1684678 L60.6928287,72.1684678 C60.7504387,72.5229332 61.103227,75.164778 61.1641913,75.5080904" id="path16" fill="#D01C2E"></path>
                        <path d="M67.7885937,49.0447786 C68.0991178,49.0447786 68.394883,49.0447786 68.6919899,49.0447786 C71.0213819,49.0533321 72.7607529,50.4127451 73.2291806,52.5937094 C73.4666648,53.7018854 74.5708996,59.1804597 74.9453231,60.8057846 C75.5512769,63.4345477 74.5636879,65.1641074 72.1694741,65.6744638 C72.1318221,65.6816755 72.0921575,65.6875455 72.051906,65.6875455 L53.6795794,65.6875455 C53.3903551,65.6875455 53.1102712,65.4720319 53.0424305,65.1994952 C53.0312775,65.1575665 47.7719066,39.6026824 47.7653657,39.5616762 C47.7204181,39.288217 47.9127032,39.0736259 48.2029338,39.0736259 L54.5475877,39.0736259 C54.8444431,39.0736259 55.1326611,39.3016342 55.1900196,39.5817181 L59.3533738,59.8093905 L67.2428495,59.8093905 L66.0586986,54.0546737 L59.5547993,54.0546737 C59.2786568,54.0546737 58.8165184,54.0071265 58.7028078,53.7018854 C58.2976086,52.6166025 58.5266233,52.0063719 58.8217176,51.3197471 C60.0914031,48.3749254 61.4265813,45.2433532 62.6454492,42.3316551 L62.6523255,42.3136258 C63.0699355,41.3158061 63.4869586,40.319999 63.9052395,39.3241919 C63.9688034,39.1702296 64.1273779,39.0736259 64.3169795,39.0736259 L71.0918221,39.0736259 C71.2853651,39.0736259 71.4838557,39.1735839 71.6125768,39.3308166 C71.740711,39.4896426 71.778363,39.6845273 71.7125349,39.84176 L67.7885937,49.0447786" id="path18" fill="#231F20"></path>
                        <path d="M153.443183,39.0543386 L171.189094,39.0543386 C171.48595,39.0543386 171.773581,39.2816762 171.831442,39.5616762 L174.918235,54.5623466 C174.973581,54.830355 174.788256,55.0857848 174.509849,55.1022208 C174.45031,55.1061621 165.499367,55.1094326 165.499367,55.1094326 L165.488465,55.1094326 C164.893078,55.1094326 164.477983,54.8647366 164.183644,54.3389504 C163.651149,53.3890133 162.097271,50.7350931 161.877564,50.3583216 C161.786159,50.2010889 161.776097,50.027504 161.849053,49.8932482 C161.92117,49.759244 162.068759,49.6769799 162.243183,49.6769799 L167.167291,49.6769799 L166.190352,44.9288878 L158.247375,44.9288878 L161.308172,59.7962249 L173.708172,59.7962249 C173.932071,59.7962249 174.161002,59.9295583 174.280918,60.1271264 C174.280918,60.1271264 177.096012,64.9063296 177.151358,65.0068747 C177.233539,65.1601661 177.23857,65.3295581 177.165614,65.4582793 C177.091819,65.5892646 176.945069,65.6669166 176.773161,65.6669166 L159.475048,65.6669166 C159.475048,65.6669166 158.889723,65.6597049 158.585321,65.5958055 C157.555552,65.379621 156.664147,65.0494743 155.737522,64.1486776 C154.917397,63.352032 154.400835,62.4593695 154.200415,61.4986148 C152.917397,55.3298938 151.665405,49.2904809 150.442764,43.2291813 C150.025153,41.155303 151.082596,39.4929131 153.294755,39.0736259 C153.294755,39.0736259 153.337522,39.06415 153.443183,39.0543386" id="path20" fill="#231F20"></path>
                        <path d="M195.184062,44.6865398 L195.183224,44.6881331 C195.111106,44.824066 194.963517,44.9043175 194.788255,44.9043175 L182.273371,44.9043175 L183.288046,49.8362252 L193.709848,49.8362252 C194.005865,49.8362252 194.294335,50.0638981 194.351358,50.3436465 L195.25031,54.7075039 C195.306494,54.9875877 195.112783,55.2151768 194.816767,55.2151768 L184.389094,55.2151768 L185.342553,59.8453654 C185.342553,59.8453654 192.963517,59.8493067 195.449052,59.8372312 C196.098108,59.8378182 196.51488,60.0812564 196.841085,60.6534995 C197.44402,61.7082584 199.191609,64.6088873 199.42641,65.0029334 C199.519492,65.1591598 199.53207,65.3344218 199.460792,65.4664973 C199.388674,65.6040235 199.240247,65.6866231 199.062469,65.6866231 L179.596641,65.6866231 C179.299786,65.6866231 179.011316,65.4582793 178.954293,65.1781954 L173.686369,39.5829759 C173.628507,39.302976 173.823056,39.0736259 174.119073,39.0736259 L191.757647,39.0736259 C191.984062,39.0736259 192.215509,39.2095588 192.334586,39.4126615 C192.334586,39.4126615 195.049052,44.0477976 195.151358,44.2197054 C195.24444,44.3756802 195.25618,44.5506069 195.184062,44.6865398" id="path22" fill="#231F20"></path>
                        <path d="M99.4339598,65.6866231 L78.9842328,65.6866231 C78.7584886,65.6866231 78.5272936,65.5516126 78.4086354,65.350187 L75.5745893,60.5110257 C75.4841071,60.3553863 75.4730379,60.1828077 75.5460778,60.0468748 C75.6191176,59.9115289 75.766539,59.8322836 75.9411302,59.8322836 L83.9295577,59.8322836 L79.7746731,39.5829759 C79.7169791,39.302976 79.9115284,39.0736259 80.2082999,39.0736259 L86.5542955,39.0736259 C86.835218,39.0736259 87.1136247,39.2816762 87.1874192,39.5470011 C87.2058678,39.6108166 87.2259936,39.6910682 87.241088,39.7599151 C87.2771467,39.9154707 91.4230585,59.8542543 91.4230585,59.8542543 L98.2331212,59.8542543 C98.5299766,59.8542543 98.8184462,60.0819272 98.8754692,60.3613402 L99.8675027,65.1788663 C99.9245258,65.4589501 99.7308151,65.6866231 99.4339598,65.6866231" id="path24" fill="#231F20"></path>
                        <path d="M31.1897686,50.0737094 C31.9958902,51.7701455 35.3625987,58.8627239 35.3625987,58.8627239 C35.3826406,58.9069168 35.4045274,58.9485101 35.4261626,58.9920321 L38.0113198,58.9789503 C38.0123261,58.9763507 38.0133324,58.9740866 38.0139194,58.9724094 C38.1439823,56.2493068 38.3939613,50.7173992 38.4211311,50.0737094 L31.1897686,50.0737094 Z M44.8991184,65.1716546 C44.8922421,65.2508998 44.8578605,65.3730801 44.8578605,65.3730801 C44.8132484,65.5637719 44.6429339,65.6875455 44.4251561,65.6875455 L31.8412571,65.6875455 C31.6018441,65.6875455 31.3571481,65.5335833 31.246037,65.3141283 C30.899538,64.6164344 18.5567291,39.7156384 18.5567291,39.7156384 C18.4810897,39.5636887 18.4820121,39.3979026 18.5577354,39.2737936 C18.6321169,39.1490137 18.7775257,39.0736259 18.943228,39.0736259 L25.6119071,39.0736259 C25.8614669,39.0736259 26.1097687,39.234129 26.2152614,39.4650724 C26.3839826,39.8319487 28.5308169,44.4637305 28.5308169,44.4637305 L38.6530808,44.4637305 C38.7044854,43.2848626 38.7833953,41.1294749 38.8325357,39.8290137 C38.8443596,39.5207537 38.9557223,39.406456 39.06415,39.2898103 C39.1715713,39.1735839 39.4221374,39.0736259 39.5875881,39.0736259 L46.3688877,39.0736259 C46.5350093,39.0736259 46.7102714,39.1490137 46.8379863,39.2750514 C46.9644433,39.3979026 47.0322001,39.5636887 47.0197892,39.7156384 C46.9565607,40.449391 45.068175,63.1963926 44.8991184,65.1716546 L44.8991184,65.1716546 Z" id="path26" fill="#231F20"></path>
                        <path d="M133.494336,50.0737094 C134.300206,51.7701455 137.667083,58.8627239 137.667083,58.8627239 C137.687208,58.9069168 137.707334,58.9485101 137.729976,58.9920321 L140.316139,58.9789503 C140.316978,58.9763507 140.317816,58.9740866 140.317816,58.9724094 C140.446957,56.2493068 140.698529,50.7173992 140.724525,50.0737094 L133.494336,50.0737094 Z M147.203351,65.1716546 C147.195803,65.2508998 147.161422,65.3730801 147.161422,65.3730801 C147.116977,65.5637719 146.947585,65.6875455 146.728718,65.6875455 L134.14507,65.6875455 C133.905238,65.6875455 133.660374,65.5335833 133.549682,65.3141283 C133.203351,64.6164344 120.861213,39.7156384 120.861213,39.7156384 C120.785741,39.5636887 120.78658,39.3979026 120.862051,39.2737936 C120.935846,39.1490137 121.080081,39.0736259 121.247796,39.0736259 L127.916139,39.0736259 C128.166035,39.0736259 128.412575,39.234129 128.518236,39.4650724 C128.687628,39.8319487 130.834378,44.4637305 130.834378,44.4637305 L140.95681,44.4637305 C141.008802,43.2848626 141.087628,41.1294749 141.137103,39.8290137 C141.148843,39.5207537 141.260374,39.406456 141.367711,39.2898103 C141.475887,39.1735839 141.725783,39.0736259 141.89182,39.0736259 L148.673372,39.0736259 C148.839409,39.0736259 149.014671,39.1490137 149.141296,39.2750514 C149.268759,39.3979026 149.336684,39.5636887 149.322428,39.7156384 C149.261212,40.449391 147.372743,63.1963926 147.203351,65.1716546 L147.203351,65.1716546 Z" id="path28" fill="#231F20"></path>
                        <path d="M19.7130393,44.2672526 L17.2172742,39.4126615 C17.0983644,39.2095588 16.8671694,39.075303 16.6405027,39.075303 L3.43880914,39.075303 C3.19378608,39.075303 2.9834884,39.0801667 2.77384479,39.1227663 C0.654153443,39.5502715 -0.322981963,41.1750095 0.0946675029,43.2472107 C1.31977355,49.3199988 2.57206702,55.3501873 3.85318229,61.5101033 C4.05267076,62.470858 4.57023049,63.3625141 5.39012984,64.1594953 C6.31682165,65.0592856 7.37781952,65.4648202 8.42507316,65.6390759 C8.58197044,65.6653233 8.89802913,65.6767279 9.21316539,65.6767279 L26.2657436,65.6767279 C26.3610056,65.6767279 26.453752,65.6581116 26.5274626,65.6145057 C26.744318,65.4877132 26.7812991,65.2223883 26.6479658,64.9953862 L23.7909428,60.1696421 C23.6716975,59.9704807 23.4410896,59.8362249 23.2163516,59.8362249 L10.9761842,59.8362249 L7.90847779,44.9436467 L19.3963098,44.9436467 C19.5302301,44.9436467 19.7123685,44.9190764 19.7723265,44.8195377 C19.7723265,44.8195377 19.9210896,44.6209632 19.7130393,44.2672526" id="path30" fill="#231F20"></path>
                        <path d="M124.858697,65.166707 C124.889724,65.3026399 124.861213,65.4369795 124.78071,65.5342541 C124.701045,65.6318642 124.571066,65.6866231 124.42767,65.6866231 L117.961423,65.6866231 C117.818865,65.6866231 117.671276,65.6342122 117.550521,65.5375246 C117.430605,65.4425141 117.345909,65.3115288 117.318236,65.1765183 C117.318236,65.1765183 115.911947,58.2835206 115.293079,55.2617177 L106.33375,55.2617177 L108.374001,65.1781954 C108.431863,65.4589501 108.237314,65.6866231 107.940459,65.6866231 L101.583226,65.6866231 C101.293079,65.6866231 101.012995,65.4720319 100.944232,65.1978181 C100.934169,65.1568956 95.6637293,39.5538774 95.6570207,39.5126196 C95.6125762,39.2373994 95.8046098,39.0228921 96.0947565,39.0228921 L102.452828,39.0228921 C102.749683,39.0228921 103.038991,39.2505651 103.096014,39.5325776 L105.122849,49.379286 L114.077985,49.379286 C113.470018,46.4373993 112.03941,39.5325776 112.03941,39.5325776 C112.012576,39.3979026 112.042764,39.2672527 112.124106,39.1722422 C112.205448,39.075303 112.330396,39.0228921 112.47463,39.0228921 L118.9392,39.0228921 C119.083435,39.0228921 119.234379,39.0801667 119.35681,39.1751772 C119.476727,39.2737936 119.561423,39.4077978 119.584903,39.5437307 C119.599158,39.6140871 124.841926,65.0962667 124.858697,65.166707" id="path32" fill="#231F20"></path>
                    </g>
                </g>
            </g>
        </g>
    </g>
</svg>