<svg width="200" height="200" viewBox="0 0 200 200" fill="none" xmlns="http://www.w3.org/2000/svg">
<path d="M140.349 200H54.381L14 156.571V42.9206L55.0159 0.634921L145.429 0L185.302 41.2698V81.0159H127.778L127.016 64.7619L119.905 57.1429L79.3968 57.5238L70.5079 67.5556L70.254 135.492L77.873 142.349H120.413L127.016 136L127.524 113.143L185.302 114.032V157.841L140.349 200ZM57.1746 193.651H137.81L178.825 155.048V120.254L133.619 119.492L133.238 138.667L122.952 148.571H75.3333L63.7778 138.286L64.0317 65.1429L76.4762 51.1746L122.317 51.0476L132.984 62.3492L133.619 74.7937H178.825V43.9365L142.635 6.47619L57.6825 6.98413L20.3492 45.4603V154.032L57.1746 193.651Z" fill="#CC2030"/>
<path d="M57.3023 6.09583L18.9531 45.08L19.2071 154.667L56.6674 194.921H138.318L180.223 155.81V119.239L132.35 118.477L132.096 138.159L122.699 147.556H76.096L65.1754 137.524L65.3023 65.5244L77.2388 52.445H122.191L131.842 62.8577L132.223 76.0641H180.223V43.6831L143.271 5.58789L57.3023 6.09583Z" fill="#162B48"/>
<path d="M138.826 196.191H56.1598L17.9376 155.175L17.6836 44.5723L56.7947 4.8263L143.779 4.31836L181.493 43.1755V77.2072H131.08L130.572 63.239L121.684 53.5882H77.8741L66.6995 65.9057L66.4455 136.89L76.6042 146.287H122.192L130.953 137.525L131.08 117.08L181.493 117.842V156.191L181.112 156.572L138.826 196.191ZM57.3026 193.652H137.938L179.08 155.302V120.509L133.747 119.747L133.62 138.668L123.461 148.826H75.8423L64.0328 138.033L64.2868 64.8898L76.9852 51.0485H123.08L133.366 62.2231L133.747 74.6676H179.207V44.1914L143.017 6.85804L58.1915 7.36598L20.2233 45.5882L20.4773 154.16L57.3026 193.652Z" fill="white"/>
</svg>
