<?xml version="1.0" encoding="UTF-8"?>
<svg width="200px" height="200px" viewBox="0 0 200 200" version="1.1" xmlns="http://www.w3.org/2000/svg" xmlns:xlink="http://www.w3.org/1999/xlink">
    <!-- Generator: Sketch 54.1 (76490) - https://sketchapp.com -->
    <title>centenary-la</title>
    <desc>Created with Sketch.</desc>
    <g id="centenary-la" stroke="none" stroke-width="1" fill="none" fill-rule="evenodd">
        <g id="centenary-la_BGL">
            <g id="centenary-la">
                <g id="g10">
                    <g transform="translate(99.700612, 99.619541) scale(-1, 1) rotate(-180.000000) translate(-99.700612, -99.619541) translate(0.733093, 0.898806)">
                        <g id="g12" transform="translate(1.319567, 0.000000)">
                            <path d="M1.62770046,99.7497883 C2.55494547,153.086391 46.3302877,195.568723 99.4040023,194.637507 C152.477424,193.70629 194.750483,149.715152 193.823854,96.3770754 C192.897224,43.0395883 149.122791,0.5582967 96.0489301,1.48956328 C42.9746291,2.42082397 0.701593204,46.4117118 1.62770046,99.7497883" id="path14" fill="#960A2C"></path>
                            <path d="M1.62770046,99.7497883 L3.09388592,99.7240031 C2.18266632,47.2860534 43.8939273,3.87814831 96.0747349,2.96300709 C121.32802,2.49162295 145.286957,11.9953355 163.473815,29.6415638 C181.658913,47.2900317 191.916346,71.0003948 192.357668,96.4030081 C193.268169,148.8414 151.558125,192.249054 99.3781974,193.164063 C47.1837543,194.0997 4.00451905,152.162542 3.09388592,99.7240031 L1.62770046,99.7497883 Z M97.771698,0 C97.189769,0 96.6072535,0.00575563988 96.0231252,0.0161157917 C42.2255549,0.959465352 -0.776620846,45.711826 0.161509566,99.7757209 L0.161509566,99.7757209 C1.10193075,153.837848 45.566845,197.051008 99.4296605,196.110951 C153.226644,195.166473 196.229864,150.415038 195.290039,96.3511428 C194.835522,70.1612685 184.259926,45.716541 165.510346,27.5223096 C147.181562,9.73623673 123.186557,0 97.771698,0 L97.771698,0 Z" id="path16" fill="#231F20" fill-rule="nonzero"></path>
                            <path d="M119.691757,81.2627835 L119.622993,77.2971569 C119.346324,61.4287564 112.149992,60.4716073 97.2573601,60.7335857 C75.7245205,61.1122607 74.9626906,68.8805512 75.313842,89.0771928 L75.6803884,110.174403 C76.0154117,129.469739 78.0984214,135.746168 98.554641,135.38709 C110.755357,135.17344 119.173461,134.123612 120.219731,122.019565 L120.129853,116.790608 L157.091509,116.141851 L157.182413,121.371545 C157.170683,161.956523 140.010449,166.046803 103.046447,166.693645 C63.5711626,167.387637 39.5933121,161.314102 38.8166737,116.593756 L38.2090864,81.6109583 C37.3504882,32.2022618 64.0551504,29.9299167 100.659937,29.2876426 C116.26968,29.013582 131.160553,28.573317 143.537211,38.4568834 C155.918561,48.520652 156.329093,61.8616542 156.587141,76.6478102 L156.656052,80.615205 L119.691757,81.2627835" id="path18" fill="#FFFFFF"></path>
                            <path d="M97.3764144,165.274719 C82.2845276,165.274719 67.4709227,163.967774 57.2046921,157.42863 C46.0198963,150.307476 40.6425145,137.322605 40.2828592,116.567823 L39.6752719,81.5850257 C39.2868794,59.2560162 44.5216013,45.5397278 56.1485987,38.4182792 C66.8604031,31.8602755 82.0027267,31.0878962 100.685742,30.7610864 L101.482907,30.7466466 C116.591508,30.4784799 130.869662,30.2234267 142.62495,39.6102952 C154.645912,49.3805538 154.876103,62.6374224 155.120956,76.6737428 L155.163475,79.1676938 L121.132138,79.7634071 L121.089179,77.2712243 C120.783919,59.7366536 111.825232,59.0056781 97.2315553,59.2601418 C74.3029071,59.6629814 73.4931329,68.7010857 73.8476565,89.1031254 L74.2142029,110.200336 C74.3929309,120.515032 75.1173731,126.89578 78.4249409,131.069163 C81.8371944,135.374418 87.6739321,137.055028 98.5802993,136.860533 C110.966194,136.643495 120.531881,135.422747 121.680198,122.146724 L121.687675,122.070841 L121.621844,118.238119 L155.651715,117.640048 L155.716227,121.39733 C155.704498,160.415301 140.457195,164.564519 103.020789,165.220201 C101.142165,165.25409 99.2550378,165.274719 97.3764144,165.274719 L97.3764144,165.274719 Z M109.011476,27.7094369 C106.51031,27.7094369 103.982899,27.7554084 101.431444,27.799759 L100.634132,27.8141988 C81.5004116,28.1502913 65.9639773,28.9577385 54.6222996,35.9037 C42.0164769,43.62263 36.3344217,58.155059 36.742901,81.6368909 L37.3504882,116.619689 C37.7296438,138.457747 43.5399902,152.215586 55.6348473,159.91875 C67.8311645,167.686746 85.6315357,168.473565 103.072252,168.167089 C140.840896,167.505512 158.636869,162.672617 158.648598,121.371987 L158.53277,114.643211 L118.637863,115.343097 L118.752372,121.967258 C117.782784,132.795302 110.459334,133.705301 98.5288362,133.913646 C88.6474792,134.084565 83.4917847,132.730765 80.7186415,129.233104 C77.9328891,125.718646 77.3138656,119.814557 77.1465738,110.148618 L76.7800275,89.0512602 C76.4306355,68.9381628 77.2748651,62.5580038 97.283165,62.2070295 C112.548062,61.9266331 117.908876,63.1123133 118.156808,77.3229421 L118.25123,82.7620126 L158.147163,82.0627162 L158.053327,76.6220249 C157.807008,62.5280929 157.553358,47.9548495 144.459295,37.3103968 C133.924019,28.8973273 121.846317,27.7094369 109.011476,27.7094369 L109.011476,27.7094369 Z" id="path20" fill="#231F20" fill-rule="nonzero"></path>
                        </g>
                    </g>
                </g>
            </g>
        </g>
    </g>
</svg>