<?xml version="1.0" encoding="UTF-8"?>
<svg width="200px" height="200px" viewBox="0 0 200 200" version="1.1" xmlns="http://www.w3.org/2000/svg" xmlns:xlink="http://www.w3.org/1999/xlink">
    <!-- Generator: Sketch 54.1 (76490) - https://sketchapp.com -->
    <title>chapman</title>
    <desc>Created with Sketch.</desc>
    <g id="chapman" stroke="none" stroke-width="1" fill="none" fill-rule="evenodd">
        <g id="chapman_BGL">
            <g id="chapman" transform="translate(0.000000, 16.000000)">
                <g id="g10" transform="translate(99.999998, 84.168781) scale(-1, 1) rotate(-180.000000) translate(-99.999998, -84.168781) translate(0.000000, 0.624479)" fill-rule="nonzero">
                    <g id="g12">
                        <path d="M95.2480989,73.7308842 L93.5451453,74.8312218 L92.5012635,77.7831204 C93.8869175,76.5087745 94.8413478,75.6523188 94.8413478,75.6523188 C94.8413478,75.6523188 96.3198288,74.7738378 95.2480989,73.7308842 Z M109.677634,72.0648927 C107.43544,71.0785636 105.278478,69.8962008 103.200841,68.5951038 L99.9257359,70.7097029 C104.254006,71.9722345 107.448942,72.2530784 109.677634,72.0648927 Z M108.340082,65.276876 L106.648099,66.3686903 C108.257381,67.159492 109.816875,67.8259899 111.289449,68.303627 C110.247255,67.2936692 109.264976,66.283627 108.340082,65.276876 Z M180.881852,79.1972976 C180.881852,79.1972976 156.639659,95.6793225 155.160334,97.518141 C153.680165,99.3552718 153.271726,103.90717 153.081853,105.252318 C152.889448,106.599153 135.98987,118.930799 130.802528,121.047254 C125.610967,123.160334 99.0700397,118.898731 99.0700397,118.898731 C99.0700397,118.898731 102.983964,117.078478 104.743457,115.700419 C107.253162,113.729955 109.487761,110.528267 109.487761,110.528267 L100.351896,116.340081 C100.351896,116.340081 84.4540063,125.128267 82.3464114,121.973837 C80.7726562,119.618562 80.0197448,115.854849 79.7626984,111.683542 C76.154766,109.643035 57.4828678,98.3080144 41.1972985,73.7367914 C21.4401682,43.9174673 31.5839655,57.2481842 31.5839655,57.2481842 C31.5839655,57.2481842 45.0580579,38.3577206 60.0356103,25.3823622 C79.697382,26.8229529 109.3789,23.1559488 114.259069,21.6353581 C110.181432,30.8108853 110.216875,38.5703788 111.698731,44.5552731 C114.998309,42.0513914 117.947676,40.5821087 119.828689,40.6701256 C123.239659,40.8270876 127.516453,45.091982 132.706326,45.47502 C137.896199,45.8573828 152.816874,36.0904632 159.929954,34.1653156 C167.040502,32.2487756 170.010966,37.1232058 171.464975,38.5621087 C174.810966,41.8819399 171.674257,46.9340073 171.674257,46.9340073 C171.674257,46.9340073 169.801684,47.7815178 174.415186,50.2801675 C179.028688,52.7789016 178.375523,69.3584793 178.261599,71.6142598 C181.71392,77.3941753 180.881852,79.1972976 180.881852,79.1972976 L180.881852,79.1972976 Z" id="path14" fill="#FFFFFF"></path>
                        <path d="M176.154426,71.5070868 C176.64219,61.9089436 175.410966,53.2192392 173.410966,52.1351042 C171.281008,50.9823616 169.115608,49.5197456 169.190713,47.4175516 C169.235439,46.1603364 170.087759,45.336539 170.805059,45.0124883 C170.423624,45.1848934 170.102949,45.4667499 169.881852,45.821771 C169.89873,45.7940917 172.077633,42.1426994 169.978899,40.059999 C169.74008,39.8236277 169.494511,39.5434589 169.234595,39.2470876 C167.617717,37.4017712 165.403371,34.8751046 160.478477,36.2035434 C157.652317,36.9679316 153.18565,39.2220243 148.866663,41.402615 C140.928267,45.4084377 135.869195,47.8237119 132.551895,47.5788174 C129.279322,47.3374672 126.493668,45.8540917 124.036284,44.5450622 C122.376368,43.6616867 120.810124,42.8270031 119.732486,42.7778892 C118.774681,42.7334167 116.432065,43.6118976 112.972993,46.2355263 C112.407592,46.6649777 111.664976,46.781349 110.995778,46.544387 C110.32658,46.3080157 109.821094,45.7508849 109.65063,45.0622774 C107.724892,37.2843873 108.627002,29.1139233 112.331643,20.7779742 C111.99409,21.5357801 112.131643,22.4192399 112.683541,23.0379741 C113.233752,23.6563707 114.095356,23.8960332 114.886073,23.6497884 C109.945145,25.1888601 80.1018545,28.9679318 59.8813487,27.4861597 C60.4404204,27.5273411 60.9929099,27.3434592 61.4171293,26.9772145 C46.8097035,39.6321509 33.4348515,58.2861589 33.3013494,58.4734163 C33.221265,58.5864964 33.1296194,58.690969 33.028438,58.7855682 C32.5926574,59.1950196 32.0045562,59.4000829 31.40886,59.3502939 C30.8135857,59.30118 30.267341,59.0008424 29.9050625,58.5258213 C29.1330794,57.5122348 28.1078474,56.2464121 27.8121512,55.9813488 C28.2397461,56.3653994 29.2939233,56.6422771 30.1967925,56.0176357 C31.0999992,55.3932476 31.2120667,54.3097033 31.0034591,53.7730788 C31.2180583,54.3259058 32.8135013,57.2639648 42.9558639,72.5712218 C58.9718129,96.7367064 77.2916436,107.862445 80.8010106,109.847255 C81.4230359,110.199153 81.8248925,110.841347 81.8684368,111.553584 C82.1999979,116.931643 83.2650612,119.551896 84.1004198,120.801685 C83.9745127,120.613499 83.8152722,120.526579 83.7697869,120.511389 C85.3156097,121.032064 92.5881833,118.22025 99.3316431,114.493668 C99.3021072,114.510546 99.2734152,114.527423 99.2447233,114.545145 C99.2202507,114.560335 108.355272,108.747677 108.355272,108.747677 C109.203373,108.208436 110.314765,108.342613 111.010124,109.068352 C111.706326,109.79409 111.793246,110.910546 111.216875,111.735018 C111.118985,111.87679 108.772149,115.219406 106.046411,117.360335 C104.148521,118.846411 100.382276,120.615187 99.9594912,120.811811 C100.799997,120.42025 101.286917,119.526579 101.159491,118.608436 C101.032065,117.690292 100.319829,116.962866 99.4042169,116.816031 C109.441347,118.427001 126.624469,120.470039 130.007592,119.092824 C134.693668,117.180588 149.810123,106.187339 151.24219,104.269196 C151.234595,104.279322 151.054005,104.525736 150.993245,104.954428 C150.992401,104.956116 151.064975,104.401685 151.064975,104.401685 C151.464131,101.22447 152.036283,98.0320651 153.516452,96.1940904 C155.029532,94.3147656 172.328266,82.4617701 179.696198,77.4522344 C179.378898,77.6674242 179.126578,77.9654833 178.967084,78.313247 C178.873413,78.5145972 178.857379,78.6352723 178.856536,78.636285 C178.859067,78.6200824 179.031219,77.0161162 176.449785,72.697129 C176.236283,72.3384792 176.133329,71.9248083 176.154426,71.5070868 L176.154426,71.5070868 Z M182.067506,80.9417701 L182.067506,80.9417701 C170.713076,88.6616012 157.989026,97.5713056 156.772992,98.8776347 C156.772992,98.8767908 156.783962,98.8641325 156.804215,98.8405039 C155.870038,99.9991536 155.404216,103.708014 155.251473,104.927424 L155.17046,105.547677 C155.053161,106.375525 154.891135,107.50717 145.045566,114.574681 C142.821093,116.172149 135.274258,121.501263 131.599997,122.999997 C126.135862,125.224469 103.264976,121.708858 98.7350186,120.981432 C97.8194068,120.834596 97.1080144,120.10717 96.9805883,119.188183 C96.8523183,118.270039 97.340082,117.376368 98.1805883,116.985651 C99.2092802,116.50717 102.160335,115.044723 103.443035,114.040503 C105.664132,112.295356 107.736706,109.349364 107.757803,109.319828 C107.181432,110.144301 107.267508,111.260757 107.962866,111.987339 C108.658225,112.713921 109.770461,112.848098 110.619407,112.308014 L101.484386,118.120672 C101.448099,118.143457 101.410968,118.166242 101.372149,118.187339 C89.6978881,124.640503 82.7059895,126.309701 80.592403,123.146832 C78.957382,120.698731 77.9694495,116.886073 77.6572132,111.813499 C77.7007576,112.526579 78.1026141,113.168774 78.7243018,113.519828 C75.0675931,111.451474 55.9869184,99.8700397 39.4386488,74.9021078 C34.7860751,67.8800827 31.4052313,62.6668339 29.3901258,59.4066652 C26.8924888,55.3662433 25.957974,53.8538383 27.7739234,52.5629523 C29.6538389,51.2269186 30.9358642,52.9124037 33.262784,55.9704627 C32.8569612,55.4371294 32.2217713,55.1282687 31.5516448,55.1384796 C30.8810963,55.1493657 30.2554423,55.4766231 29.8668347,56.0228678 C30.4226153,55.2429522 43.6593238,36.7787333 58.6537538,23.7882694 C59.0776357,23.4210121 59.6304626,23.2370458 60.1895344,23.2786492 C79.5628672,24.6980585 109.02025,21.0574678 113.632065,19.6212653 C114.421938,19.3746831 115.284385,19.6133328 115.834596,20.2330797 C116.384807,20.8514763 116.523204,21.7349362 116.186495,22.4920669 C112.872571,29.9491976 112.051474,37.2026995 113.745989,44.0480158 C113.575525,43.3594082 113.070883,42.802615 112.401685,42.5662437 C111.731643,42.3292816 110.989027,42.4455686 110.423626,42.8751044 C114.340925,39.901096 117.539238,38.4513071 119.928267,38.5627838 C121.95274,38.6563703 123.928267,39.7079315 126.018562,40.821096 C128.210967,41.9881002 130.477634,43.1948512 132.8616,43.3712225 C135.252317,43.5475938 141.745988,40.2692817 146.965397,37.6354421 C151.681009,35.2548514 156.135017,33.0066658 159.378899,32.1291131 C166.843034,30.1173832 170.742612,34.5661595 172.407591,36.4659063 C172.616873,36.704556 172.815186,36.9300413 172.949363,37.0632058 C176.533329,40.6194083 174.960333,45.6405052 173.466662,48.0471718 C173.245565,48.4025304 172.92489,48.684387 172.543456,48.8564545 C173.061599,48.6217709 173.270882,48.2143448 173.353582,47.913079 C173.490291,47.4192393 173.335861,47.0388174 173.270882,46.9452309 C173.284384,46.9653153 173.639658,47.4607583 175.419405,48.4253152 C180.805059,51.3416021 180.674257,65.688606 180.368772,71.7213484 C180.389025,71.304724 180.286071,70.8910531 180.072569,70.5324033 C183.573835,76.3934158 183.282696,79.0312217 182.797464,80.0817701 C182.637126,80.4295339 182.384806,80.7264959 182.067506,80.9417701 L182.067506,80.9417701 Z" id="path16" fill="#FFFFFF"></path>
                        <path d="M110.63966,70.3105468 C109.147677,69.8269181 107.538394,69.1571291 105.717297,68.2614329 C105.03544,67.9255679 104.586495,67.2497873 104.54177,66.4902937 C104.497888,65.7324878 104.86582,65.0075933 105.504639,64.5958634 L107.196622,63.5037959 C108.059913,62.9470026 109.199153,63.0926567 109.894512,63.8498718 C110.804217,64.841433 111.76793,65.8293654 112.757803,66.7882684 C113.461601,67.4700405 113.603373,68.549281 113.097887,69.3908 C112.591558,70.2320658 111.572993,70.6128252 110.63966,70.3105468 Z M109.484385,67.0490279 L107.792402,68.1408422 C108.431221,67.7291122 108.79831,67.0052304 108.754428,66.2464118 C108.710546,65.4878465 108.260757,64.8111376 107.579744,64.4751883 C109.216875,65.2808422 110.643035,65.876876 111.940082,66.2971291 C111.005904,65.9941756 109.987339,66.3745975 109.481854,67.216876 C108.975525,68.0580574 109.117297,69.1367071 109.821938,69.8187324 C108.773837,68.8033738 107.75274,67.7551038 106.785651,66.7029519 C107.481854,67.4607578 108.62025,67.6058211 109.484385,67.0490279 L109.484385,67.0490279 Z" id="path18" fill="#FFFFFF"></path>
                        <path d="M98.782276,68.937551 L102.056538,66.8229519 C102.744301,66.3778886 103.627002,66.3729941 104.320672,66.8067494 C106.472571,68.1553569 108.502951,69.2431206 110.527423,70.1341755 C111.410124,70.5224455 111.916453,71.4599982 111.758647,72.4109687 C111.599997,73.3630361 110.816875,74.0852302 109.855693,74.1670024 C106.969618,74.4109686 103.430377,73.929956 99.3350186,72.7360319 C98.5426136,72.5039644 97.9578035,71.8311374 97.8388161,71.0143442 C97.7189849,70.1974666 98.0877613,69.3855679 98.782276,68.937551 L98.782276,68.937551 Z M108.827845,73.9959475 C106.614343,73.0218547 104.407592,71.8404201 102.08101,70.3830362 C102.774681,70.8178041 103.657381,70.811897 104.345989,70.3678463 L101.070884,72.4825298 C101.763711,72.0339222 102.133331,71.2226143 102.0135,70.405821 C101.894512,69.5882683 101.309702,68.9154413 100.517297,68.6843865 C104.993246,69.9907999 107.872571,70.1005046 109.499575,69.962108 C108.539238,70.0438801 107.755272,70.7670868 107.596622,71.7180573 C107.438816,72.6691121 107.945145,73.6075931 108.827845,73.9959475 L108.827845,73.9959475 Z" id="path20" fill="#FFFFFF"></path>
                        <path d="M96.2506305,77.2210951 L96.2506305,77.2210951 L93.9291116,79.3367913 C93.2143437,79.9875085 92.1443015,80.0724874 91.3383943,79.5375508 C90.5324872,79.0025297 90.1898712,77.9914748 90.512234,77.0799981 L91.5561159,74.128437 C91.7113901,73.6876775 92.0084365,73.3122345 92.3999977,73.0590699 L94.1037951,71.9594075 C94.9291116,71.4253991 96.0143436,71.5331628 96.7189849,72.2184792 C97.482698,72.9611796 97.8405039,73.8996606 97.7274237,74.8615171 C97.5417697,76.428015 96.1881832,77.3061584 95.9181411,77.4657365 C96.0371284,77.3948504 96.1485208,77.3130782 96.2506305,77.2210951 L96.2506305,77.2210951 Z M96.3924027,75.5030361 L94.6894491,76.6033736 C95.0818542,76.3502091 95.3789006,75.9737534 95.5341748,75.5340066 L94.490293,78.4859896 C94.8126559,77.5748504 94.4700398,76.5637956 93.6641327,76.0287745 C92.8582255,75.4938378 91.7881834,75.5788167 91.0734154,76.229534 L93.4312213,74.0826142 C93.5367065,73.9863273 93.640504,73.9105467 93.7637107,73.8379728 C93.7232044,73.8624454 93.7350188,73.8531627 93.740082,73.8482682 C93.6700399,73.9164538 93.5265799,74.1713062 93.5282677,74.5190699 C93.5291116,74.9156099 93.7080145,75.1763694 93.7772128,75.2429517 C94.4818542,75.9292808 95.5670862,76.0370445 96.3924027,75.5030361 L96.3924027,75.5030361 Z" id="path22" fill="#FFFFFF"></path>
                        <path d="M80.3929094,112.031221 C80.3929094,112.031221 59.3124036,101.069196 41.1972985,73.7367914 C21.4401682,43.9174673 31.5839655,57.2481842 31.5839655,57.2481842 C31.5839655,57.2481842 45.0580579,38.3577206 60.0356103,25.3823622 C79.697382,26.8229529 109.3789,23.1559488 114.259069,21.6353581 C104.201685,44.2681845 119.158647,58.2885217 119.158647,58.2885217 L93.5451453,74.8312218 L80.3929094,112.031221" id="path24" fill="#231F20"></path>
                        <path d="M159.383118,58.1114753 C159.383118,58.1114753 162.334173,57.5771294 162.334173,52.7258215 C162.334173,49.315695 155.372148,43.0234588 155.372148,43.0234588 L155.696199,43.1424462 C143.695355,32.7248093 127.087761,26.281012 108.733331,26.281012 C72.1363695,26.281012 42.4660749,51.9172139 42.4660749,83.5416857 C42.4660749,115.162866 72.1363695,140.80084 108.733331,140.80084 C129.7789,140.80084 148.531642,132.319828 160.671726,119.104638 C161.627844,117.732487 162.334173,116.357803 162.334173,115.273415 C162.334173,110.423626 159.383118,109.886917 159.383118,109.886917 L193.532485,109.886917 C193.35105,110.320672 193.167084,110.751896 192.97721,111.180588 C180.072569,140.52911 147.223625,161.386494 108.733331,161.386494 C64.6864963,161.386494 28.0270879,134.07257 20.1938392,97.9763689 C18.7978054,94.4514744 14.9894511,87.5687742 5.6902699,83.9876772 C14.303122,80.4802512 18.2667506,74.1376353 19.9024468,70.5188168 C27.0721512,33.7239654 64.1125722,5.6902699 108.733331,5.6902699 C147.703794,5.6902699 180.889447,27.0685225 193.451472,56.994007 C193.606746,57.3645555 193.758645,57.7383108 193.9097,58.1114753 L159.383118,58.1114753" id="path26" fill="#960A2C"></path>
                        <path d="M188.633751,60.2429521 L188.206746,59.2016019 C176.198308,30.5966237 144.262444,11.380506 108.733331,11.380506 C88.5147657,11.380506 68.9527409,17.5982274 53.6517286,28.8861596 C38.7101256,39.9090285 28.7078474,55.0810957 25.4878475,71.6076775 C25.4037968,72.0394919 25.2692821,72.4607577 25.0876787,72.8626142 C23.149029,77.1518968 18.3290291,84.984808 7.8365652,89.2582256 C9.99805882,88.3780569 11.4029533,86.2675084 11.3801685,83.9332468 C11.3581432,81.5990697 9.91333309,79.5164537 7.7353669,78.6774664 C18.9626156,83.001095 23.6748517,91.3113901 25.4845563,95.8810103 C25.5986491,96.168774 25.6889445,96.4666643 25.7548517,96.768774 C33.1648937,130.913077 68.0620236,155.696199 108.733331,155.696199 C143.697043,155.696199 175.458223,136.886073 187.767928,108.890293 C187.935016,108.51139 188.102949,108.121516 188.284383,107.690293 C187.547675,109.446411 187.74008,111.454006 188.794932,113.03966 C189.850628,114.625314 191.627843,115.578056 193.532485,115.578056 L159.383118,115.578056 C162.328266,115.578056 164.786494,113.330799 165.050629,110.397466 C165.315608,107.464976 163.297886,104.815187 160.40084,104.288605 C163.232063,104.802529 168.024468,107.695356 168.024468,115.273415 C168.024468,117.479322 167.171304,119.729955 165.340924,122.357803 C165.194933,122.567086 165.035439,122.767086 164.862443,122.954427 C151.120671,137.913077 130.662444,146.491979 108.733331,146.491979 C69.0556101,146.491979 36.7754421,118.252318 36.7754421,83.5416857 C36.7754421,48.8294503 69.0556101,20.5907168 108.733331,20.5907168 C127.8616,20.5907168 145.864975,27.073417 159.426156,38.8446404 C161.501262,40.6464125 161.993245,43.6725727 160.595777,46.0380579 C159.197464,48.4032055 156.309701,49.4320663 153.730798,48.4826992 L153.405903,48.3636275 C155.964553,49.305484 158.83122,48.2997456 160.241346,45.9671718 C161.651473,43.6345981 161.210123,40.6296192 159.187338,38.8017712 C163.218561,42.4446403 168.024468,47.8178047 168.024468,52.7258215 C168.024468,60.3062432 163.23122,63.1975512 160.399152,63.7104625 C163.296198,63.1856524 165.314764,60.5360322 165.050629,57.6025302 C164.787338,54.6683531 162.32911,52.4211801 159.383118,52.4211801 L193.9097,52.4211801 C192.012653,52.4211801 190.235438,53.3534164 189.178054,54.9280999 C188.121514,56.5028678 187.913919,58.4886061 188.633751,60.2429521 Z M158.367929,52.5131632 C156.903794,52.7782265 156.581431,53.5199143 156.549363,53.6032898 C156.550207,53.6010113 156.643034,53.3501252 156.643034,52.7258215 C156.643034,53.1342603 156.722359,53.3686063 156.723203,53.3712223 C156.35527,52.297889 153.84219,49.3189861 151.551895,47.2412646 C149.535017,45.4117288 149.095355,42.4060749 150.507169,40.0757796 C151.918984,37.7469189 154.780587,36.7418556 157.337549,37.6826151 L157.661599,37.8026151 C155.08354,36.853248 152.195777,37.8826995 150.797465,40.2481846 C149.399152,42.6127416 149.891135,45.6388174 151.966241,47.4406739 C140.474258,37.4650624 125.120672,31.9712228 108.733331,31.9712228 C75.3313061,31.9712228 48.1562857,55.1054839 48.1562857,83.5416857 C48.1562857,111.977212 75.3313061,135.110545 108.733331,135.110545 C127.486073,135.110545 144.889448,127.873415 156.481009,115.254849 C156.308013,115.443035 156.148519,115.642191 156.002528,115.852318 C156.586494,115.013499 156.722359,114.628689 156.723203,114.625314 C156.722359,114.627001 156.643034,114.863288 156.643034,115.273415 C156.643034,114.648942 156.550207,114.399153 156.549363,114.396622 C156.581431,114.480166 156.903794,115.22025 158.366241,115.486073 C155.469194,114.959491 153.451473,112.309702 153.716452,109.376369 C153.980587,106.443879 156.438815,104.196622 159.383118,104.196622 L193.532485,104.196622 C195.437126,104.196622 197.215185,105.149364 198.270881,106.734175 C199.325733,108.319829 199.517295,110.328267 198.78143,112.084385 C198.572147,112.585651 198.376366,113.042191 198.182274,113.48101 C191.291978,129.151896 179.263287,142.528266 163.402528,152.153583 C147.316452,161.916452 128.411811,167.076789 108.733331,167.076789 C62.7448929,167.076789 23.1698728,138.523203 14.6327423,99.1831199 C14.6987338,99.4860735 14.7886916,99.7831199 14.903122,100.071727 C13.7793246,97.2345967 10.822447,92.0616011 3.6451729,89.2978881 C1.46723203,88.4590695 0.0224156113,86.3755253 0.000329641342,84.0420232 C-0.0224156113,81.7078461 1.38284385,79.5974664 3.54397459,78.717382 C10.376793,75.9358631 13.4767085,70.9173822 14.7171304,68.1747662 C14.5355271,68.5762852 14.4010123,68.997551 14.3169617,69.430378 C22.156202,29.1999993 61.8641335,0 108.733331,0 C148.787338,0 184.941768,22.0194087 198.697885,54.7916442 C198.695354,54.7864121 199.185649,55.9806737 199.185649,55.9806737 C199.90548,57.7350197 199.697885,59.7198297 198.641345,61.2955259 C197.583961,62.8708845 195.806746,63.8024457 193.9097,63.8024457 L159.383118,63.8024457 C156.437971,63.8024457 153.979743,61.5552727 153.716452,58.6210956 C153.452317,55.6875935 155.470882,53.0379734 158.367929,52.5131632 L158.367929,52.5131632 Z" id="path28" fill="#231F20"></path>
                        <path d="M159.383118,58.1114753 C159.383118,58.1114753 162.334173,57.5771294 162.334173,52.7258215 C162.334173,49.315695 155.372148,43.0234588 155.372148,43.0234588 L155.696199,43.1424462 C143.695355,32.7248093 127.087761,26.281012 108.733331,26.281012 C72.1363695,26.281012 42.4660749,51.9172139 42.4660749,83.5416857 C42.4660749,115.162866 72.1363695,140.80084 108.733331,140.80084 C129.7789,140.80084 148.531642,132.319828 160.671726,119.104638 C161.627844,117.732487 162.334173,116.357803 162.334173,115.273415 C162.334173,110.423626 159.383118,109.886917 159.383118,109.886917 L193.532485,109.886917 C193.35105,110.320672 193.167084,110.751896 192.97721,111.180588 C180.072569,140.52911 147.223625,161.386494 108.733331,161.386494 C64.6864963,161.386494 28.0270879,134.07257 20.1938392,97.9763689 C18.7978054,94.4514744 14.9894511,87.5687742 5.6902699,83.9876772 C14.303122,80.4802512 18.2667506,74.1376353 19.9024468,70.5188168 C27.0721512,33.7239654 64.1125722,5.6902699 108.733331,5.6902699 C147.703794,5.6902699 180.889447,27.0685225 193.451472,56.994007 C193.606746,57.3645555 193.758645,57.7383108 193.9097,58.1114753 L159.383118,58.1114753" id="path30" fill="#960A2C"></path>
                        <path d="M190.744299,59.3908002 L190.303793,58.3188171 C177.947675,28.8808432 145.167085,9.10472551 108.733331,9.10472551 C88.0312214,9.10472551 67.9902093,15.4793245 52.300927,27.0540078 C36.8990708,38.4167079 26.5829529,54.0842181 23.2535859,71.1712218 C23.2027842,71.4313062 23.1226998,71.6834581 23.0135859,71.9257366 C21.2144298,75.9045551 16.738565,83.1751034 6.97784793,87.1502088 C8.27498713,86.6210949 9.11789007,85.3552721 9.10472551,83.9553566 C9.09088585,82.5544283 8.22389009,81.3047237 6.91752725,80.8016857 C17.3345143,84.8135 21.6956957,92.4962002 23.3682695,96.7189849 C23.4365395,96.8919807 23.4908855,97.0700398 23.5304635,97.2523182 C31.1659064,132.43544 66.9986481,157.972148 108.733331,157.972148 C144.584807,157.972148 177.183962,138.61603 189.851472,109.806748 C190.023624,109.416875 190.19662,109.014343 190.383118,108.568774 C189.941767,109.622782 190.057379,110.827845 190.690291,111.7789 C191.323202,112.729955 192.390712,113.302107 193.532485,113.302107 L159.383118,113.302107 C161.150207,113.302107 162.625312,111.953584 162.783962,110.19409 C162.942612,108.433753 161.732485,106.843879 159.994089,106.528267 C162.130798,106.916453 165.747675,109.194934 165.747675,115.273415 C165.747675,116.990714 165.025312,118.828689 163.47257,121.056537 C163.38565,121.182275 163.289447,121.302107 163.18565,121.415187 C149.875102,135.904638 130.027001,144.215186 108.733331,144.215186 C70.3108843,144.215186 39.0516446,116.997465 39.0516446,83.5416857 C39.0516446,50.0853996 70.3108843,22.8665817 108.733331,22.8665817 C127.313921,22.8665817 144.787338,29.1518136 157.935017,40.5646403 C159.178899,41.6445559 159.474258,43.4609272 158.636283,44.8799989 C157.797464,46.2988174 156.064131,46.9165389 154.517296,46.3469187 L154.192401,46.2269187 C155.727422,46.7922351 157.448097,46.190041 158.292823,44.7890284 C159.139237,43.3900411 158.874258,41.5865812 157.660756,40.49021 C160.091979,42.6879314 165.747675,48.2786486 165.747675,52.7258215 C165.747675,58.8060745 162.129954,61.0835428 159.992401,61.4718128 C161.731642,61.1560322 162.941768,59.5661588 162.783962,57.8059057 C162.625312,56.0456526 161.150207,54.6977202 159.383118,54.6977202 L193.9097,54.6977202 C192.771303,54.6977202 191.704637,55.2564543 191.070037,56.2015176 C190.436282,57.1469184 190.312232,58.3376357 190.744299,59.3908002 L190.744299,59.3908002 Z M158.77468,54.751813 C158.492823,54.8032054 158.410123,54.8540071 158.406747,54.8566231 C158.54008,54.7712223 158.919827,54.1966231 158.919827,52.7258215 C158.919827,52.7739227 158.924047,52.800927 158.924047,52.800927 C158.742612,51.6142603 155.957802,48.160252 153.081009,45.5551043 C151.869195,44.4573829 151.60506,42.653923 152.452317,41.2556108 C153.29873,39.8572986 155.016874,39.2550201 156.551051,39.8193239 L156.875945,39.9383956 C155.32911,39.3687754 153.595777,39.9864969 152.756958,41.4059061 C151.918984,42.8243871 152.213498,44.6413491 153.458224,45.7216022 C141.552739,35.3863282 125.668351,29.6954423 108.733331,29.6954423 C74.0760319,29.6954423 45.8801676,53.8505472 45.8801676,83.5416857 C45.8801676,113.232065 74.0760319,137.387338 108.733331,137.387338 C128.121516,137.387338 146.135017,129.881009 158.156958,116.794934 C158.053161,116.908014 157.957802,117.027001 157.870882,117.15274 C158.824469,115.782276 158.923203,115.202529 158.924047,115.196622 C158.924047,115.196622 158.919827,115.223626 158.919827,115.273415 C158.919827,113.801685 158.539237,113.227845 158.405903,113.142613 C158.410123,113.144301 158.491979,113.194934 158.772992,113.246411 C157.034595,112.930799 155.824469,111.340925 155.983118,109.580588 C156.141768,107.821094 157.616874,106.473415 159.383118,106.473415 L193.532485,106.473415 C194.675101,106.473415 195.741767,107.044723 196.374679,107.995778 C197.00759,108.946833 197.123202,110.151896 196.682696,111.205904 C196.478476,111.692824 196.287759,112.135862 196.100417,112.560335 C189.397464,127.80506 177.681008,140.826157 162.221937,150.207591 C146.491136,159.754426 127.994934,164.80084 108.733331,164.80084 C63.8086904,164.80084 25.1694508,137.001684 16.8568772,98.7004195 C16.8964553,98.8818541 16.9508013,99.0599131 17.0194089,99.2329089 C15.7584806,96.0497866 12.4505482,90.2497868 4.46334166,87.1738375 C3.15664971,86.6708839 2.28968771,85.420251 2.27617716,84.0203355 C2.26298729,82.6203355 3.10555266,81.3535001 4.40269187,80.8253988 C11.9670039,77.7452301 15.411392,72.1643864 16.7913076,69.1122346 C16.6821937,69.3535848 16.6016873,69.6067493 16.5513076,69.865821 C24.182531,30.7021089 62.9506313,2.27584804 108.733331,2.27584804 C147.882697,2.27584804 183.1924,23.7341766 196.599151,55.6724881 C196.598307,55.6701252 197.075101,56.8328256 197.075101,56.8328256 C197.507168,57.8859901 197.382274,59.0767074 196.748518,60.0221082 C196.114763,60.9671715 195.047253,61.5255681 193.9097,61.5255681 L159.383118,61.5255681 C157.616874,61.5255681 156.141768,60.1779732 155.983118,58.4177201 C155.825313,56.6574669 157.035439,55.0675936 158.77468,54.751813 L158.77468,54.751813 Z" id="path32" fill="#FFFFFF"></path>
                        <path d="M159.383118,58.1114753 C159.383118,58.1114753 162.334173,57.5771294 162.334173,52.7258215 C162.334173,49.315695 155.372148,43.0234588 155.372148,43.0234588 L155.696199,43.1424462 C143.695355,32.7248093 127.087761,26.281012 108.733331,26.281012 C72.1363695,26.281012 42.4660749,51.9172139 42.4660749,83.5416857 C42.4660749,115.162866 72.1363695,140.80084 108.733331,140.80084 C129.7789,140.80084 148.531642,132.319828 160.671726,119.104638 C161.627844,117.732487 162.334173,116.357803 162.334173,115.273415 C162.334173,110.423626 159.383118,109.886917 159.383118,109.886917 L193.532485,109.886917 C193.35105,110.320672 193.167084,110.751896 192.97721,111.180588 C180.072569,140.52911 147.223625,161.386494 108.733331,161.386494 C64.6864963,161.386494 28.0270879,134.07257 20.1938392,97.9763689 C18.7978054,94.4514744 14.9894511,87.5687742 5.6902699,83.9876772 C14.303122,80.4802512 18.2667506,74.1376353 19.9024468,70.5188168 C27.0721512,33.7239654 64.1125722,5.6902699 108.733331,5.6902699 C147.703794,5.6902699 180.889447,27.0685225 193.451472,56.994007 C193.606746,57.3645555 193.758645,57.7383108 193.9097,58.1114753 L159.383118,58.1114753" id="path34" fill="#960A2C"></path>
                        <path d="M74.2339222,102.943457 C61.1919816,94.040504 51.6614333,78.1137533 51.6614333,78.1137533 C51.5354417,76.2328251 51.6614333,73.7249771 52.1627835,71.7180573 C52.7014333,69.5635426 54.2945978,65.9503781 54.2945978,65.9503781 C54.2945978,65.9503781 61.066412,90.905483 74.2339222,102.943457" id="path36" fill="#960A2C"></path>
                        <path d="M174.182274,77.2817702 C174.182274,77.2817702 174.220249,77.2919812 174.281008,77.3189854 C173.82278,77.116285 173.264975,76.9594074 172.617717,76.7780572 C172.339236,76.6996605 171.922359,76.5812639 171.521515,76.4530783 C172.613498,76.6125719 173.831219,76.7197449 174.799152,76.2279306 C177.026156,75.096285 178.261599,71.6142598 178.261599,71.6142598 C178.261599,71.6142598 179.028688,52.7789016 174.415186,50.2801675 C169.801684,47.7815178 171.674257,46.9340073 171.674257,46.9340073 C171.674257,46.9340073 174.810966,41.8819399 171.464975,38.5621087 C170.010966,37.1232058 167.040502,32.2487756 159.929954,34.1653156 C152.816874,36.0904632 137.896199,45.8573828 132.706326,45.47502 C127.516453,45.091982 123.239659,40.8270876 119.828689,40.6701256 C116.679322,40.5231213 110.545989,44.7267499 104.766242,50.8751886 C104.355272,50.3652308 103.927424,49.7880156 103.489449,49.1594081 C108.900419,43.4826993 115.65063,38.363037 119.928267,38.5627838 C121.95274,38.6563703 123.928267,39.7079315 126.018562,40.821096 C128.210967,41.9881002 130.477634,43.1948512 132.8616,43.3712225 C135.252317,43.5475938 141.745988,40.2692817 146.965397,37.6354421 C151.681009,35.2548514 156.135017,33.0066658 159.378899,32.1291131 C166.843034,30.1173832 170.742612,34.5661595 172.407591,36.4659063 C172.616873,36.704556 172.815186,36.9300413 172.949363,37.0632058 C176.252316,40.3408429 173.700418,47.6490283 173.816029,47.4304629 C174.14008,47.6724039 174.636283,48.0007583 175.419405,48.4253152 C180.773835,51.3248088 180.562021,66.9729097 180.369616,71.7002514 C180.360333,71.9122345 180.319827,72.1205889 180.249785,72.3196606 C180.116451,72.6961163 179.027844,75.6085213 176.891135,77.3552723 C175.584806,77.3984791 174.535861,77.3780571 174.182274,77.2817702" id="path38" fill="#FFFFFF"></path>
                        <path d="M120.886917,65.741011 L106.849786,85.7940907 L85.1223607,111.866664 L83.8393228,112.567086 L110.212655,106.032065 L118.571305,105.389027 L125.643879,108.28101 L132.075946,119.212655 L129.501263,123.395778 C129.501263,123.395778 114.713077,132.71814 111.177212,132.074258 C107.640504,131.430376 109.567086,122.108014 109.567086,122.108014 L97.3510524,120.1789 C97.3510524,120.1789 86.7991539,126.124891 81.5945127,125.037972 C78.6497871,124.422782 74.6005045,106.015187 80.0524031,86.9063269 C83.3768756,81.5298714 92.0599133,75.0421922 92.0599133,75.0421922 C92.0599133,75.0421922 68.6362852,62.529028 57.0450619,43.3442183 C72.7040488,57.0270028 100.637128,68.8093654 100.637128,68.8093654 C100.637128,68.8093654 77.0134158,54.3611801 71.5239645,32.0464127 C82.4334157,48.0893659 101.766242,61.1171293 101.766242,61.1171293 C101.766242,61.1171293 90.0430357,47.2135009 90.305483,22.6912231 C94.261601,33.5010962 98.6025292,41.1755264 103.610968,47.7686908 C114.840503,35.896286 120.295356,34.934092 129.36371,45.0567077 C137.514764,54.6176358 120.886917,65.741011 120.886917,65.741011" id="path40" fill="#FFFFFF"></path>
                        <path d="M82.3464114,121.973837 C84.4540063,125.128267 100.351896,116.340081 100.351896,116.340081 L109.487761,110.528267 C109.487761,110.528267 107.253162,113.729955 104.743457,115.700419 C102.983964,117.078478 99.0700397,118.898731 99.0700397,118.898731 C99.0700397,118.898731 125.610967,123.160334 130.802528,121.047254 C135.98987,118.930799 152.889448,106.599153 153.081853,105.252318 C153.271726,103.90717 153.680165,99.3552718 155.160334,97.518141 C156.639659,95.6793225 180.346831,79.2480993 180.346831,79.2480993 C180.346831,79.2480993 174.641346,79.7857364 173.427,79.2480993 C172.215186,78.7120655 168.410122,78.1873398 168.724046,76.7576352 C169.034595,75.3266648 172.573835,77.3585635 174.799152,76.2279306 C177.026156,75.096285 178.261599,71.6142598 178.261599,71.6142598 C178.261599,71.6142598 179.038814,52.7587329 174.415186,50.2801675 C170.682696,48.280252 171.674257,46.9340073 171.674257,46.9340073 C171.674257,46.9340073 174.810966,41.8819399 171.464975,38.5621087 C170.010966,37.1232058 167.040502,32.2487756 159.929954,34.1653156 C152.816874,36.0904632 137.896199,45.8573828 132.706326,45.47502 C127.516453,45.091982 123.239659,40.8270876 119.828689,40.6701256 C116.416031,40.5106319 109.500419,45.4532478 103.32658,52.4498721 C99.2059047,47.4904629 93.4464112,35.7357797 93.4464112,35.7357797 C93.4464112,35.7357797 94.6286896,52.1779734 111.289449,68.303627 C101.751052,65.2109688 88.8337531,54.9199142 79.4488588,45.616117 C85.6244704,53.6843868 96.2405039,66.152741 109.677634,72.0648927 C105.652318,72.4050615 98.4945123,71.2302092 87.1535843,65.4658211 C75.8115593,59.6987327 70.0326565,55.3273404 70.0326565,55.3273404 C70.0326565,55.3273404 84.2240485,69.4075932 93.4962002,72.7702935 C97.3578035,74.1696184 94.8413478,75.6523188 94.8413478,75.6523188 C94.8413478,75.6523188 83.2370443,86.0734156 82.0846393,88.3814324 C80.9296182,90.6902931 77.1031204,114.124892 82.3464114,121.973837" id="path42" fill="#231F20"></path>
                        <path d="M176.906325,79.4514748 C175.511388,79.7771288 180.346831,79.2480993 180.346831,79.2480993 C180.346831,79.2480993 181.110544,76.5594918 178.310544,71.6580573 C179.618561,77.0226985 178.307169,79.1258208 176.906325,79.4514748" id="path44" fill="#231F20"></path>
                        <polyline id="path46" fill="#960A2C" points="126.058225 117.999997 129.5789 118.218562 149.300418 104.846411 142.951051 103.843879 126.058225 117.999997"></polyline>
                        <path d="M172.429532,82.1172975 L153.979743,94.8210947 L149.724047,93.5940905 C149.724047,93.5940905 165.676789,79.2302934 166.014342,80.1113904 C166.682696,81.8674241 172.429532,82.1172975 172.429532,82.1172975" id="path48" fill="#960A2C"></path>
                        <path d="M147.903794,88.7637109 C147.903794,88.7637109 145.537549,83.1958629 144.203372,82.9733313 C142.873414,82.750884 137.029532,83.7888587 135.218562,86.2641329 C133.741769,88.2826982 134.375524,92.7097023 134.375524,92.7097023 C134.375524,92.7097023 134.780587,90.3426138 135.558646,89.4168754 C136.7789,88.6430358 142.140081,86.4236265 144.764553,86.8295337 C145.654005,87.0877615 147.903794,88.7637109 147.903794,88.7637109" id="path50" fill="#960A2C"></path>
                        <path d="M125.02025,123.222782 C125.02025,123.222782 118.242191,123.26582 111.528267,122.427001 C110.446411,125.673415 110.077634,130.154427 112.823626,129.664132 C118.227845,128.700419 125.02025,123.222782 125.02025,123.222782" id="path52" fill="#231F20"></path>
                        <path d="M134.651473,97.4742592 C134.651473,97.4742592 134.988182,95.5966221 134.651473,94.7535841 C133.924891,92.9367065 134.833752,89.8540062 135.741769,89.3071708 C136.648098,88.7637109 140.824469,87.3088586 140.824469,87.3088586 C140.480165,85.7333312 140.745144,84.8413481 141.500418,83.3003355 C143.014342,80.2135845 146.015186,76.5239643 145.575524,75.6464116 C144.850629,74.1956943 139.323203,77.2313061 134.796621,78.4111373 C131.828689,79.1837955 124.881853,81.3518967 116.524892,79.8632048 C108.055694,78.3561162 103.25063,76.0363694 103.25063,76.0363694 C103.25063,76.0363694 125.397465,83.3494494 139.621937,73.869956 C129.206748,75.3569601 117.575524,72.7172134 109.890293,59.6987327 C124.727423,75.1535846 137.427845,72.579745 141.854849,71.3502092 C145.590714,70.3147662 149.120671,70.5215172 149.536705,72.1838801 C150.739237,76.9966225 146.032064,78.6583947 142.80084,82.9601667 C140.922359,85.4658206 141.732486,87.1291117 141.732486,87.1291117 C141.732486,87.1291117 144.637127,86.4016856 145.543456,87.1291117 C146.453161,87.8540062 147.903794,88.7637109 147.903794,88.7637109 C147.903794,88.7637109 144.816874,90.3957783 144.273414,91.3046391 C143.729954,92.211812 142.637127,94.2101242 141.369617,94.9350187 C140.098731,95.6599132 134.651473,97.4742592 134.651473,97.4742592" id="path54" fill="#FFFFFF"></path>
                    </g>
                </g>
            </g>
        </g>
    </g>
</svg>