<?xml version="1.0" encoding="UTF-8"?>
<svg width="200px" height="200px" viewBox="0 0 200 200" version="1.1" xmlns="http://www.w3.org/2000/svg" xmlns:xlink="http://www.w3.org/1999/xlink">
    <!-- Generator: Sketch 54.1 (76490) - https://sketchapp.com -->
    <title>chatham</title>
    <desc>Created with Sketch.</desc>
    <g id="chatham" stroke="none" stroke-width="1" fill="none" fill-rule="evenodd">
        <g id="chatham_BGL" fill="#473D85">
            <g id="chatham" transform="translate(0.000000, 11.000000)">
                <g id="g10" transform="translate(99.749371, 89.624065) scale(-1, 1) rotate(-180.000000) translate(-99.749371, -89.624065) translate(0.000000, 0.401009)" fill-rule="nonzero">
                    <g id="g12">
                        <path d="M137.609019,178.098241 C136.732829,178.098241 135.636087,177.906762 134.365911,177.685209 C131.106764,177.11779 119.519797,174.440096 106.683707,163.698242 C103.922804,163.886713 101.145862,163.983956 98.4245589,163.983956 C85.1515768,163.983956 72.2751862,161.827565 60.1523794,157.577941 C48.4355878,153.471675 37.913182,147.588969 28.8737837,140.098242 C19.8249619,132.59749 12.7213029,123.861651 7.75454617,114.131325 C2.60886209,104.04912 0,93.3364388 0,82.292429 C0,71.2480183 2.60886209,60.5345348 7.75454617,50.4511266 C12.7213029,40.7165905 19.8249619,31.9838588 28.8737837,24.4850119 C37.913182,16.9924808 48.4355878,11.1105762 60.1523794,7.00266649 C72.2751862,2.75376434 85.1515768,0.598370912 98.4245589,0.598370912 C117.230072,0.598370912 135.202002,5.29722293 150.889219,13.0435084 L150.889219,13.0435084 C140.323806,9.37460628 128.459145,8.26950355 114.088218,8.26950355 C89.1975918,8.26950355 65.8024044,15.9367415 48.2143346,29.8637587 C30.6723802,43.7484701 21.0084205,62.2016025 21.0084205,81.8147348 C21.0084205,117.484709 52.8665651,147.675184 97.0109249,154.127314 C95.9006492,152.835084 94.8151355,151.497741 93.7657119,150.134332 C91.9975917,147.82556 92.4980428,145.210021 93.780549,143.645109 C95.8352858,141.132829 103.166915,134.366914 112.293732,133.242102 L114.452127,132.976438 L112.801,134.392979 C107.330323,139.078693 106.070173,144.076187 108.937341,149.670172 C115.093731,161.665159 129.116789,168.335835 133.266162,170.093229 L133.354383,170.130322 C133.583957,170.22957 134.263656,170.517289 134.59348,170.540347 C134.61754,170.447114 134.648618,170.23759 134.648618,169.789469 C134.648618,158.923304 132.237591,154.522302 129.909771,150.26566 C129.674182,149.836588 129.439596,149.410523 129.213029,148.979445 L128.207516,147.101751 L130.094232,148.090222 C135.37343,150.853129 138.681701,152.035084 141.156889,152.035084 C142.825059,152.035084 144.134332,151.530823 145.788468,150.894232 C149.866663,149.32531 162.548367,140.052127 166.854131,136.054132 C168.26165,134.746864 169.236086,133.33333 169.835585,131.73333 C170.332828,130.411024 171.96591,127.306262 174.591474,125.007516 C177.04962,122.85714 187.824557,108.195486 188.957389,106.257641 L189.14185,105.94486 C190.136336,104.255636 190.738842,103.235085 189.410522,100.577441 C187.970923,97.7040577 186.291725,96.504559 181.305259,92.9468648 L180.630572,92.4663636 L180.399995,92.3018523 L180.3619,92.0218523 C178.247615,76.6557374 174.068166,71.2089205 164.394983,71.2089205 C160.24561,71.2089205 154.818041,72.2317776 147.310272,74.4340834 C123.997992,81.2730807 118.357892,93.9081681 117.788468,95.3278172 C117.30526,96.5476668 117.724308,97.5512758 118.674684,98.9755364 C119.539847,100.273682 124.554383,105.457641 128.539345,107.817541 C134.947365,107.585962 150.449119,103.216038 159.706262,97.0019023 L160.123304,96.7190953 L160.505259,97.0559374 C168.494231,104.125311 168.586462,118.851125 168.586462,119.001501 L168.586462,131.235084 L167.704256,131.35338 C167.224056,129.411526 161.729319,127.770423 154.23759,127.770423 C152.894232,127.770423 151.994984,127.812528 151.985961,127.814533 L151.951876,126.988468 C153.42957,126.671676 160.407014,123.346363 164.714783,120.422052 C163.030572,112.972428 157.82556,108.027065 156.391976,106.783957 C155.072678,107.686213 150.751876,110.474183 143.904758,113.296238 C136.402002,116.38897 124.342854,120.076187 109.518794,120.076187 C107.393481,120.076187 105.235085,120.002002 103.107767,119.851626 C84.3964891,118.539345 69.2676674,110.559396 59.8730812,104.096238 C49.6933321,97.0939324 44.3060641,89.8327797 44.2461142,89.7650103 L44.2461142,89.7650103 C58.5486702,101.711276 85.4100229,109.248118 97.3331304,109.550874 C79.2849103,99.8323785 67.5183943,88.0890204 61.2644596,75.3171911 L61.2644596,75.3171911 C71.1728303,87.2325793 85.4441081,94.8296718 95.2107244,99.4004988 C106.254634,104.569421 115.898744,107.165912 120.955385,107.574935 C117.263155,105.170925 110.04511,100.224759 108.127316,98.3059625 C104.573431,94.7493711 101.142855,89.9529802 106.214534,84.3972911 C111.032579,79.1204993 119.227065,74.1564894 129.284207,70.4240584 C139.133831,66.7689206 150.324808,64.4321788 160.800998,63.850625 C161.607014,63.8064144 162.404006,63.7875673 163.170923,63.7875673 C181.251123,63.7875673 184.137339,76.305562 185.862652,83.7871658 C185.991975,84.3510756 186.116286,84.8856119 186.238592,85.3900731 C187.840597,86.5343337 192.43809,90.0842083 196.594481,95.8007996 C200.423053,101.065662 198.517288,104.207516 196.504256,107.529822 C196.38596,107.720298 196.268667,107.912779 196.153379,108.108268 C195.007514,110.01704 189.536837,115.906764 184.247614,121.602002 C179.665158,126.532328 174.924306,131.631074 174.168417,132.92531 C174.122301,133.00952 174.047113,133.33734 173.979946,133.627064 C173.584958,135.32531 172.758893,138.858142 168.394983,143.223054 C165.681199,145.935836 151.293229,157.713279 149.364407,158.918292 C148.176437,159.663154 146.630573,159.820547 145.541851,159.820547 C144.373931,159.820547 143.165911,159.642101 142.091225,159.327314 C142.389971,163.542853 141.593981,171.177941 141.03358,174.315785 C140.620548,176.651625 139.899746,178.097239 137.609019,178.098241 L137.609019,178.098241" id="path14"></path>
                        <path d="M150.288718,7.74945344 L150.288718,5.94807003 L151.46967,5.94807003 C151.970924,5.94807003 152.338843,6.01895724 152.568417,6.16345849 C152.802001,6.3087417 152.916287,6.54018029 152.916287,6.85307251 C152.916287,7.18397977 152.805009,7.41659129 152.580447,7.54895219 C152.357891,7.68131309 151.963906,7.74945344 151.396487,7.74945344 L150.288718,7.74945344 Z M150.288718,2.57048615 L149.320297,2.57048615 L149.320297,8.56124289 L151.396487,8.56124289 C152.128317,8.56124289 152.646613,8.50133312 152.948367,8.38698726 C153.253129,8.27263137 153.496738,8.07604992 153.679194,7.80662637 C153.86165,7.53798477 153.950873,7.24898227 153.950873,6.94118278 C153.950873,6.4822254 153.79348,6.09727303 153.471675,5.78164397 C153.151876,5.47070663 152.739846,5.29135826 152.234583,5.25219034 C152.466162,5.15898734 152.675685,5.00548358 152.876187,4.78814023 C153.075685,4.57549863 153.330322,4.22462145 153.634081,3.73629063 L154.357891,2.57048615 L153.176939,2.57048615 L152.651625,3.50877184 C152.27368,4.18233574 151.970924,4.61857633 151.74937,4.82103246 C151.527816,5.01957882 151.233079,5.11865651 150.861149,5.11865651 L150.288718,5.11865651 L150.288718,2.57048615 Z M151.550873,10.2075185 C150.271675,10.2075185 149.177941,9.75446592 148.26566,8.84516269 C147.360397,7.93976923 146.903254,6.84093216 146.903254,5.5627367 C146.903254,4.27671167 147.358392,3.18295731 148.262653,2.27874681 C149.169921,1.37452628 150.266663,0.924185441 151.550873,0.924185441 C152.831074,0.924185441 153.924808,1.37649119 154.830071,2.2807017 C155.738342,3.188832 156.190472,4.27983949 156.190472,5.5627367 C156.190472,6.84093216 155.736337,7.93976923 154.826061,8.84516269 C153.918793,9.75446592 152.825059,10.2075185 151.550873,10.2075185 Z M151.550873,11.131729 C152.546362,11.131729 153.47368,10.8831075 154.335836,10.3818544 C155.198994,9.88290702 155.878693,9.2011326 156.378943,8.34077172 C156.877189,7.48473164 157.126813,6.55623041 157.126813,5.5627367 C157.126813,4.56335828 156.879194,3.63408512 156.382953,2.77803502 C155.88571,1.91885709 155.205009,1.24099245 154.344858,0.746788954 C153.482703,0.248668665 152.550372,0 151.550873,0 C150.546362,0 149.612026,0.245535833 148.751876,0.74091527 C147.888718,1.2362907 147.209019,1.91572928 146.711776,2.77295231 C146.214533,3.63213024 145.965911,4.56335828 145.965911,5.5627367 C145.965911,6.56446099 146.214533,7.49177926 146.715786,8.35291207 C147.217039,9.21091706 147.893731,9.88760878 148.757891,10.3868669 C149.620046,10.8854133 150.551375,11.131729 151.550873,11.131729 L151.550873,11.131729 Z" id="path16"></path>
                    </g>
                </g>
            </g>
        </g>
    </g>
</svg>