<?xml version="1.0" encoding="UTF-8"?>
<svg width="200px" height="200px" viewBox="0 0 200 200" version="1.1" xmlns="http://www.w3.org/2000/svg" xmlns:xlink="http://www.w3.org/1999/xlink">
    <title>chico-st_BGL</title>
    <defs>
        <polygon id="path-1" points="0 0 198.682 0 198.682 131.922 0 131.922"></polygon>
    </defs>
    <g id="chico-st_BGL" stroke="none" stroke-width="1" fill="none" fill-rule="evenodd">
        <g id="chico-st" transform="translate(1.000000, 34.000000)">
            <path d="M161.208,55.201 C159.915,55.86 157.892,56.539 155.834,55.816 C152.405,54.612 147.434,49.95 141.118,49.368 C141.118,49.368 142.658,49.079 144.798,48.86 C136.734,43.967 127.965,42.544 127.965,42.544 C149.198,38.612 157.022,48.4 160.559,47.995 C161.601,51.604 164.565,54.713 170.156,55.341 C166.22,56.443 163.546,56.191 161.208,55.201 Z M189.811,64.756 L175.243,53.048 C172.732,43.351 157.664,30.135 121.706,28.88 C123.041,31.086 123.171,33.653 122.912,36.065 C115.749,21.05 85.537,24.497 61.55,16.345 C61.551,16.345 61.551,16.345 61.551,16.345 C65.466,21.735 76.694,35.043 89.767,37.999 C88.519,38.878 87.104,39.579 85.606,40.122 L85.527,40.162 L85.506,40.157 C79.809,42.191 72.852,41.841 68.555,39.208 C49.927,49.812 31.949,56.022 0.004,45.27 C0.003,45.27 0,45.27 0,45.269 C11.836,49.729 36.96,61.273 66.145,49.571 L66.149,49.571 C77.165,45.276 90.516,43.023 111.865,50.884 L111.864,50.884 L111.865,50.884 C84.468,49.742 67.127,68.046 51.127,63.341 C64.641,68.867 81.504,57.766 101.221,61.614 C101.235,61.615 101.251,61.615 101.266,61.616 C101.262,61.618 101.258,61.619 101.254,61.621 C101.385,61.646 101.514,61.665 101.644,61.692 C101.393,61.703 101.147,61.736 100.896,61.753 C83.609,67.771 67.322,97.807 45.387,93.526 C64.815,97.034 71.718,89.304 96.769,84.43 C87.902,92.202 73.527,122.099 49.45,123.029 C69.643,122.366 88.26,104.533 115.749,107.466 C115.747,107.466 115.745,107.467 115.742,107.467 L115.749,107.466 C120.45,108.105 122.77,110.183 122.77,110.183 C117.478,100.905 123.184,92.77 126.274,90.735 C116.599,93.869 107.254,103.819 91.023,102.603 C91.023,102.602 91.023,102.602 91.023,102.602 C104.174,98.52 118.463,71.717 147.61,70.254 L147.611,70.254 C129.346,69.164 101.709,82.772 101.688,82.783 L101.687,82.783 C101.687,82.783 101.687,82.783 101.688,82.783 C105.697,79.02 109.871,75.096 114.474,71.877 C96.839,73.518 86.243,77.73 86.243,77.73 L86.246,77.729 C86.245,77.729 86.244,77.729 86.242,77.73 C112.636,59.354 139.538,59.743 160.123,64.109 C151.054,60.018 141.58,58.25 141.58,58.25 C163.551,59.475 177.081,65.428 177.081,65.428 L177.082,65.428 L177.081,65.428 C180.837,67.154 185.175,67.02 189.811,64.756 L189.811,64.756 Z" id="Fill-1" fill="#ABADA9"></path>
            <path d="M144.798,48.86 C142.658,49.079 141.118,49.368 141.118,49.368 C147.434,49.95 152.405,54.612 155.834,55.816 C157.892,56.539 159.915,55.86 161.208,55.201 C163.546,56.191 166.22,56.443 170.156,55.341 C164.565,54.713 161.601,51.604 160.559,47.995 C157.022,48.4 149.198,38.612 127.965,42.544 C140.054,43.036 146.796,45.807 151.479,48.713 C149.219,48.517 146.758,48.659 144.798,48.86" id="Fill-3" fill="#8B2434"></path>
            <path d="M86.246,77.729 C104.734,69.484 118.728,67.516 122.361,67.411 C119.576,68.599 116.964,70.137 114.474,71.877 C109.871,75.096 105.697,79.02 101.688,82.783 C101.687,82.783 101.687,82.783 101.687,82.783 L101.688,82.783 C117.854,73.527 134.905,63.728 160.123,64.109 C160.123,64.109 160.123,64.109 160.124,64.109 C160.124,64.109 160.124,64.109 160.123,64.109 C139.538,59.743 112.636,59.354 86.242,77.73 C86.244,77.729 86.245,77.729 86.246,77.729" id="Fill-4" fill="#8B2434"></path>
            <g id="Group-9">
                <mask id="mask-2" fill="white">
                    <use xlink:href="#path-1"></use>
                </mask>
                <g id="Clip-6"></g>
                <path d="M91.023,102.602 C114.675,99.203 129.699,74.697 147.611,70.254 C147.61,70.254 147.61,70.254 147.61,70.254 C118.463,71.717 104.174,98.52 91.023,102.602" id="Fill-5" fill="#8B2434" mask="url(#mask-2)"></path>
                <path d="M181.641,50.315 C181.549,50.243 181.495,50.201 181.495,50.201 C181.492,50.179 181.488,50.157 181.485,50.136 C179.945,38.974 165.795,22.878 112.522,18.582 C77.199,10.736 42.925,8.558 38.527,0 C38.755,5.747 40.575,12.571 49.905,14.932 C53.174,23.641 54.254,26.787 58.48,31.908 C46.734,40.757 33.47,49.569 0,45.269 C0,45.27 0.003,45.27 0.004,45.27 C31.949,56.022 49.927,49.812 68.555,39.208 C72.852,41.841 79.809,42.191 85.506,40.157 C85.539,40.145 85.573,40.134 85.606,40.122 C87.104,39.579 88.519,38.878 89.767,37.999 C74.395,38.421 67.693,30.759 61.551,16.346 C61.551,16.346 61.551,16.346 61.55,16.345 C85.537,24.497 115.749,21.05 122.912,36.065 C123.171,33.653 123.041,31.086 121.706,28.88 C157.664,30.135 172.732,43.351 175.243,53.048 L189.811,64.756 C185.175,67.02 180.837,67.154 177.081,65.428 L177.082,65.428 C181.554,69.523 184.323,71.159 186.792,71.891 C182.854,77.458 178.052,79.706 174.94,80.233 C170.981,78.339 163.634,73.415 162.272,68.431 C153.13,74.716 139.646,78.7 132.854,93.062 C137.801,95.092 133.426,107.187 146.613,112.814 C143.677,117.239 134.655,119.843 125.008,113.291 C133.728,125.2 153.655,128.081 165.097,102.744 C154.875,113.08 142.642,102.701 142.47,92.407 C146.007,84.752 152.982,81.887 161.173,78.661 C166.495,82.89 177.373,90.655 168.577,97.914 C175.928,95.562 179.107,91.004 181.26,86 C187.569,84.873 197.477,71.679 198.683,63.715 C196.325,61.854 183.145,51.497 181.641,50.315" id="Fill-7" fill="#8B2434" mask="url(#mask-2)"></path>
                <path d="M49.45,123.029 C49.175,123.038 48.9,123.054 48.624,123.057 C47.921,123.063 47.217,123.051 46.509,123.014 C46.504,123.013 46.499,123.014 46.494,123.013 C73.448,115.477 81.395,90.522 96.769,84.43 C71.718,89.304 64.815,97.034 45.387,93.526 C45.386,93.525 45.385,93.525 45.384,93.525 C64.995,92.509 78.553,63.332 100.896,61.753 C101.147,61.736 101.393,61.703 101.644,61.692 C101.514,61.665 101.385,61.646 101.254,61.621 C101.243,61.619 101.231,61.617 101.221,61.614 C81.504,57.766 64.641,68.867 51.127,63.341 C51.127,63.341 51.127,63.34 51.126,63.34 C61.832,64.499 79.589,45.254 111.864,50.884 L111.865,50.884 C90.516,43.023 77.165,45.276 66.149,49.571 C53.557,54.481 44.016,62.059 29.07,60.249 C41.346,68.681 53.659,74.118 65.713,72.392 C52.589,83.365 34.753,93.888 17.513,89.586 C33.634,99.767 53.275,106.184 67.095,101.029 C60.609,108.473 36.84,125.715 8.458,121.297 C74.62,150.967 92.539,109.666 115.742,107.467 C115.745,107.467 115.747,107.466 115.749,107.466 C88.26,104.533 69.643,122.366 49.45,123.029" id="Fill-8" fill="#8B2434" mask="url(#mask-2)"></path>
            </g>
        </g>
    </g>
</svg>