<?xml version="1.0" encoding="UTF-8"?>
<svg width="200px" height="200px" viewBox="0 0 200 200" version="1.1" xmlns="http://www.w3.org/2000/svg" xmlns:xlink="http://www.w3.org/1999/xlink">
    <!-- Generator: Sketch 54.1 (76490) - https://sketchapp.com -->
    <title>chowan</title>
    <desc>Created with Sketch.</desc>
    <g id="chowan" stroke="none" stroke-width="1" fill="none" fill-rule="evenodd">
        <g id="chowan_BGL">
            <g id="chowan" transform="translate(0.000000, 30.000000)">
                <g id="g10" transform="translate(99.952850, 69.680341) scale(-1, 1) rotate(-180.000000) translate(-99.952850, -69.680341) translate(0.000000, 0.279117)" fill-rule="nonzero">
                    <g id="g12" transform="translate(0.000000, 0.339463)">
                        <path d="M52.564638,108.46657 C52.6366795,108.15615 52.5408756,108.036961 52.4213094,107.797829 C51.0121628,104.860723 47.8600648,98.2208368 47.716359,97.83913 C47.3105127,96.6453535 46.7371983,95.689578 46.2596877,94.4720391 C46.0446947,93.970389 45.6150861,93.5879279 45.3042893,93.0628925 C44.9701073,92.53748 44.4446948,92.0595922 43.966807,91.7012707 C39.3818001,88.3338026 34.4379058,85.3966975 29.9723142,81.957188 C28.5154543,80.8113134 27.3927386,79.3305025 26.2228753,77.8738312 C24.169014,75.2942933 22.1627529,72.6434682 20.6344172,69.6584612 C20.0372649,68.5122095 18.2220835,65.3593572 17.9595281,64.7622803 C17.4578779,63.591889 17.2906361,62.4456373 16.7175102,61.371427 C16.5024041,60.9648264 15.3325409,57.5494564 15.2132009,57.191512 C14.1622627,53.9443645 12.586176,50.8627993 11.5592642,47.5911351 C10.4844505,44.2002818 7.95277679,33.8108431 7.54700594,32.2828092 C7.28429968,31.4232524 7.26027327,29.1780096 7.16495975,28.86759 C6.9737292,28.2708527 7.26027327,27.5774816 6.99771788,27.0046575 C6.90195174,26.813691 6.68684566,26.6946528 6.54393194,26.5508716 C5.54059392,25.7867792 4.29884006,25.2137665 3.17656946,24.7121163 C2.14963502,24.2824699 1.05124373,23.9951715 0,23.6371517 C0.47766524,25.0701361 1.33736913,26.4558221 1.69583777,27.9121162 C1.88663833,28.6524462 2.46007349,30.3004236 2.48408858,30.4912015 C2.88999898,32.234945 3.36736625,33.8828846 3.63036295,35.6024508 C3.89306921,37.3215644 4.03628467,39.041206 4.05985846,40.7370098 C4.10772267,41.8832616 4.10772267,43.0532757 4.05985846,44.1523798 C4.03628467,45.7523798 4.32282875,47.4002817 4.72875047,48.9761421 C4.72875047,48.9761421 5.18253641,50.9107012 5.49269199,51.7702957 C5.63636007,52.1527568 7.18853353,54.2777921 8.00033926,54.9469105 C8.83647314,55.6635535 9.72005633,55.9494564 10.6276659,56.4511066 C11.3441581,56.8335677 11.917284,57.358603 12.586176,57.788966 C13.6607257,58.5048547 14.0610275,59.4972168 15.0641015,60.5242795 C15.3745211,60.8588386 15.2831679,62.2355477 15.2831679,62.2355477 C15.2831679,62.2355477 15.1353886,62.6840154 15.083828,62.77303 C14.8927483,63.1551139 11.8932576,62.5176788 10.2214425,61.6101823 C9.86342267,61.3951894 9.43347454,61.1564341 9.075153,61.0368679 C9.21882108,61.5143785 10.6991039,66.6255523 10.8424703,66.9122095 C10.9622628,67.17435 11.1290521,67.5326716 11.4399243,67.6518606 C14.2337007,68.77435 20.0472979,72.5604885 20.4775101,72.9425724 C20.8355299,73.2771316 22.0459023,75.0046186 22.6664775,75.6492202 C22.9051574,75.8879755 22.7858174,76.712115 22.5468358,76.7834021 C21.8786982,76.9750099 21.8521447,77.0376218 21.1837053,76.9421952 C20.2759448,76.7988665 16.9326163,75.8434682 16.2162749,75.4138595 C15.4039789,74.9122093 14.3530407,74.6259293 13.7084391,73.9809505 C13.6131255,74.1001396 13.7560393,74.2197058 13.8039412,74.2913701 C14.2337007,74.9838737 14.9025927,75.4376219 15.4518808,76.106363 C15.5952471,76.2738312 22.4017345,84.7754811 23.4760956,84.5846278 C24.7895892,84.3696349 26.1985849,84.5129635 27.5599805,84.6800545 C28.5633185,84.7992435 31.2617814,85.4204599 31.5483632,85.7071171 C31.906383,86.0412991 31.9307111,86.5429493 31.8587828,87.0204599 C31.7870431,87.4742081 31.3570949,87.7608653 30.9273354,87.8800544 C29.9482878,88.1908512 28.9931157,88.2146135 28.0616306,88.4771312 C28.0376419,88.6445994 28.1809705,88.6925013 28.2767744,88.7158865 C28.6826584,88.8116904 29.0645537,89.0029209 29.4709281,89.0983476 C30.1393675,89.2416762 34.7723518,91.1762353 36.6591599,91.7012707 C36.9217152,91.772935 41.8655341,93.4925012 42.7251286,94.13748 C43.4176321,94.6387529 43.9909466,95.2358298 44.5880234,95.7612423 C45.0892964,96.2149905 45.3042893,96.5254101 45.6150861,97.074585 C46.6896735,98.9137175 47.549268,100.776612 48.5525683,102.734934 C49.5554915,104.717018 50.4154631,106.604052 51.5375753,108.609521 C51.6092396,108.729465 51.8238554,108.753227 51.9196592,108.6578 C52.1350293,108.514849 52.3496451,108.561996 52.564638,108.46657" id="path14" fill="#1D3C73"></path>
                        <path d="M55.3350293,107.36822 C55.6216865,107.249031 56.1229595,107.201129 56.2187633,106.819045 C56.2187633,106.819045 55.9509651,106.097121 55.8555384,105.858366 C53.7776507,100.819234 52.0392255,96.0478995 50.1525683,90.8654386 C49.8421487,90.0299836 50.1046664,88.8829775 50.2717573,88.0237602 C50.4154631,87.2592152 50.7496451,86.924656 50.8929737,86.1608654 C51.0600647,85.324656 51.0600647,84.5129635 51.0363024,83.6771313 C51.0363024,83.6771313 50.962375,82.6681733 50.9148502,82.3581309 C50.8190463,81.8327184 50.9148502,82.3581309 50.7496451,81.0979706 L50.7496451,81.0979706 C50.7975471,81.0738311 50.5817998,80.0524261 50.5817998,80.0282865 C50.4147088,79.3361602 50.3675612,79.5692578 50.2958969,78.8529919 C50.1288059,77.1334257 50.033002,75.2705309 49.6271558,73.5751042 C49.4359252,72.6913702 48.8867503,71.9268252 48.6955198,71.0913702 C48.1225825,68.6313986 47.5255056,66.2193288 47.0955198,63.7593572 C46.9763307,63.7355948 46.7613378,63.6639305 46.7613378,63.6639305 C45.2563874,65.789343 43.966807,67.9385179 42.247618,69.9926432 C41.8655341,70.4463914 41.5551145,70.9001397 41.1251286,71.2343217 C40.2889193,71.8789232 39.2859962,72.356811 38.2351711,72.1421953 C37.662083,72.0463914 37.8293248,71.0672307 37.8293248,71.0672307 C38.0684573,69.5864198 38.2117859,68.105986 38.6889194,66.6255523 C38.9042895,65.956434 39.0947656,65.2397909 39.5013663,64.6430913 C40.2176322,63.591889 41.0534643,62.6847698 41.8176321,61.5856656 C42.247618,60.941064 42.5818,60.1531338 42.9401215,59.388966 C43.3222054,58.6006586 43.3222054,57.7176789 43.4176321,56.8814696 C43.465534,56.5714272 43.4892964,56.1889661 43.465534,55.8781693 C43.4176321,55.0906163 43.3697302,54.2777921 43.1072125,53.5611491 C42.3909466,51.6511067 42.0088627,49.6927852 41.2680801,47.7103241 C41.0772267,47.1852888 40.814709,46.6836386 40.5755765,46.1819885 C40.4801499,45.9673727 40.4322479,46.1819885 40.3847232,46.3019319 C39.6684573,47.639037 39.0234785,49.0481836 37.9964158,50.1223938 C37.7338982,50.3852887 37.0398859,51.2803382 37.0398859,51.2803382 C37.0398859,51.2803382 36.2292117,52.2006588 35.5367459,52.7973584 C34.9871938,53.2990086 34.4858077,54.1352179 33.5543226,53.7048549 C33.1248648,53.4906163 32.575275,53.0602533 32.6231769,52.6298902 C32.8378304,50.3373868 33.9126441,48.2598762 34.7963782,46.0382827 C35.0590845,45.3944355 35.0590845,44.8927853 35.4414324,44.3194708 C35.7039878,43.9607721 36.0620076,43.1969815 36.0620076,43.1969815 C36.0620076,43.1969815 37.1127949,41.4536529 36.9695795,40.3066468 C36.9455908,40.0211211 36.9936059,39.6141433 36.8742659,39.3278632 C36.5157935,38.5157935 31.5483632,28.5095325 30.831871,27.3871563 C30.4735495,26.813691 29.6377173,25.7867792 29.6377173,25.7867792 C29.3989997,25.7387264 29.32726,25.9775571 29.2319465,26.1212252 C28.4196881,27.6021115 27.2498249,28.7237711 26.2228753,30.0617437 C26.0313431,30.2762463 25.6733233,30.2053741 25.410617,30.1333326 C24.5749357,29.8707772 25.0593865,27.079641 25.0593865,26.9604519 C25.1311262,25.5996599 25.7248838,23.1717109 25.7248838,23.1717109 L26.2626679,17.5913621 C26.2626679,17.5913621 25.9837806,14.3713339 25.4582172,13.0097875 C24.9093817,11.6485428 24.2404897,10.3352001 23.3088914,9.14104645 C22.831494,8.54389418 22.3538325,7.87511531 21.8760202,7.30229119 C21.2549924,6.60978767 20.657991,5.84482777 20.0133894,5.27185277 C18.7713715,4.1976048 17.6010557,3.29016493 16.2401127,2.33483445 C15.2606503,1.64221024 14.2098252,1.09264684 13.1593396,0.615128697 C12.7055159,0.423592634 12.1799903,0.136875433 11.7262043,0.041843469 C11.4399243,-0.00559886832 11.4399243,0.352280614 11.3680337,0.543226766 C11.2248182,0.901846276 11.1769163,4.00607251 11.0097121,5.03313519 C10.6516546,7.01555852 9.9587362,15.4697214 9.76795827,16.472192 C9.50540287,17.8334366 9.48152734,19.2437147 9.3617348,20.6042428 C9.26642127,22.2042804 9.38606294,23.8279296 9.74408274,25.3808575 C10.1021025,26.9329178 10.4365485,28.437491 10.7471567,30.0136909 C10.8424703,30.5153788 11.1076659,32.1824792 11.1076659,32.1824792 C11.4181232,32.827986 11.4155961,34.3838558 11.6067135,34.8620831 C11.917284,35.6737756 12.4425457,36.3428185 13.2307776,36.8445064 C15.165299,38.0379057 17.0279298,39.2561989 18.6759071,40.8799613 C19.7504191,41.9070239 20.9445728,42.6715689 21.6849405,43.9607721 C21.9000466,44.2715689 22.0434129,44.5582261 22.1866284,44.9161705 C22.3778589,45.4657226 22.5685237,46.3253171 21.9479485,46.8273444 C21.4941249,47.1852888 21.0403389,46.9699187 20.5386511,46.8986315 C19.1772932,46.6836386 17.8637619,46.1819885 16.5742947,45.608674 C16.0729086,45.3944355 15.7145871,45.1790653 15.3085145,45.0119744 C14.8548794,44.8448834 14.4728332,44.4624223 14.0669115,44.2953313 C14.1383872,44.8927853 14.6400751,46.4682685 14.759415,46.7070238 C15.165299,47.5673727 15.2132009,48.4507296 15.5952471,49.4298903 C15.8816781,50.1944353 16.8368501,52.606505 17.1953225,52.9882118 C18.078868,53.9198478 19.1058175,54.6123513 20.2042051,55.3527567 C21.5176987,56.236868 23.1421022,56.3326719 24.4791696,57.191512 C24.9329555,57.5023088 25.3867415,57.8840155 25.6497495,58.3143786 C26.1031205,59.0544068 26.5570573,59.7948123 26.8915033,60.606882 C27.0585943,61.0368679 26.8674769,61.6573299 26.4615929,61.6573299 C24.1211498,61.6573299 22.0193865,60.3443644 19.8221589,59.7469103 C19.6075054,59.6756232 19.2730594,59.4847698 19.0343418,59.6756232 C19.1772932,60.8931621 19.8221589,61.9681267 20.2999712,63.0668537 C21.0403389,64.8339446 21.7807067,66.5531336 22.6163879,68.2255523 C23.165676,69.3239021 23.7388019,70.3030628 24.3837052,71.2818464 C24.9808575,72.2134824 25.7690894,72.9301255 26.4615929,73.8138595 C27.2254967,74.8167827 28.2528989,75.8434682 29.5183397,76.106363 C29.6377173,76.3688807 35.9905319,79.0679848 36.8023753,79.8080131 C36.8023753,80.2142366 36.8742659,80.787551 36.3964536,80.8829777 C35.8711919,81.0021668 35.3933796,81.2412992 34.819952,81.121733 C34.1753504,80.954642 33.4828846,81.0021668 32.8378304,80.8829777 C33.1722764,81.5034397 33.8649308,81.8617613 34.4140303,82.2442224 C35.0114843,82.6742082 38.0684573,84.7992435 39.0947656,85.539649 C40.647618,86.6625155 42.4622337,87.5462496 43.966807,88.7158865 C44.9701073,89.4804315 45.830079,90.555019 46.6180092,91.5341797 C47.5013661,92.6087671 48.1938696,93.7791584 48.7675613,95.0687388 C49.5554915,96.8358297 50.3437988,98.5078712 51.1558686,100.203298 C52.3021203,102.63913 53.5675611,105.027437 54.7617148,107.463647 L55.3350293,107.36822" id="path16" fill="#1D3C73"></path>
                        <path d="M49.1255056,98.1974516 C48.9584146,97.83913 48.8867503,97.3853818 48.6004703,97.1466265 C48.5284288,97.2899551 48.5525683,97.5045709 48.6955198,97.6241371 C48.8867503,97.7674657 48.8154632,97.9349339 48.9105127,98.0778853 L49.1255056,98.1974516" id="path18" fill="#FFFFFF"></path>
                        <path d="M48.2830744,96.0478995 C48.008365,95.9762352 48.2830744,95.7133404 47.977949,95.6416761 C47.6414419,95.9049481 48.2531412,95.9049481 48.1000957,96.1437034 L48.375288,96.3583191 L48.2830744,96.0478995" id="path20" fill="#FFFFFF"></path>
                        <path d="M47.7691039,94.8537459 C47.8157993,94.7341796 47.6785867,94.5433263 47.4063166,94.5674658 C47.4515752,94.7107944 47.4968338,94.8537459 47.5420925,94.9966973 L47.9063166,95.1641655 L47.7691039,94.8537459" id="path22" fill="#FFFFFF"></path>
                        <path d="M145.059874,135.262231 C146.278167,134.975951 152.271943,133.566805 153.275244,133.256385 C155.186418,132.659308 157.1206,131.943042 159.031019,131.106833 C160.463928,130.462232 161.896837,129.888917 163.401788,129.220553 C166.005088,128.026399 168.583494,126.59349 170.948416,125.08854 C171.975102,124.419799 173.02555,123.79896 174.029227,123.106456 C176.035073,121.768974 177.873829,120.360204 179.832527,118.831869 C180.835828,118.043184 181.790849,117.231492 182.769632,116.323995 C185.540401,113.744834 188.238751,111.213199 190.602918,108.15615 C191.200372,107.36822 191.844974,106.604052 192.417911,105.720318 C193.732386,103.66657 194.997826,101.564542 196.048274,99.2958014 C197.122484,96.9795355 198.030735,94.5195639 198.818288,92.107117 L173.503815,92.107117 C172.73927,93.1107945 172.73927,93.1107945 172.73927,93.1107945 C171.9272,94.2091443 170.852612,95.2837317 169.802165,96.3345568 C168.344739,97.7916053 166.863928,99.0570461 165.240543,100.323241 C161.109284,103.522864 157.09646,106.102025 152.367747,108.251577 C150.075244,109.326541 147.78274,110.162373 145.322769,110.926541 C142.838657,111.690709 140.307399,112.264024 137.704098,112.66987 C134.599525,113.17152 131.44705,113.505702 128.247427,113.672793 C126.169162,113.791982 124.067889,113.911548 121.9421,113.816499 C118.909191,113.696933 115.899667,113.386136 112.866758,112.836961 C111.768408,112.64573 110.645919,112.64573 109.618856,112.264024 C109.236772,112.120695 108.878451,112.049031 108.520506,111.953227 C101.857235,110.138234 95.5522843,107.678639 89.7010822,104.048654 C86.97897,102.376612 84.4231945,100.585759 81.9394605,98.5553959 C81.079866,97.8628924 80.3632229,97.0032979 79.6231946,96.2149905 C78.1902856,94.7583192 77.1873625,93.1583192 75.9453069,91.438753 C75.5153211,90.8416762 75.2049015,90.1970746 74.8465799,89.5520958 C74.0824121,88.0954245 73.4853353,86.590474 73.031587,84.9904741 C72.6495031,83.7487956 72.3869855,82.5308796 72.1240906,81.2646844 C71.8853353,80.1425723 71.8374334,78.9487958 71.7895314,77.8021668 C71.7420067,76.1301254 72.0765659,74.4105592 72.5061745,72.7151326 C72.7211674,71.8789232 72.9836851,70.971804 73.2228176,70.1355947 C73.4853353,69.3001397 73.9390835,68.5122095 74.2736427,67.6280983 C74.6078246,66.8401681 75.0140481,66.0522379 75.4674191,65.2639305 C76.3511532,63.6639305 77.4257406,62.2310215 78.6440339,60.6789235 C79.646957,59.3648264 81.079866,58.0277213 82.3694463,56.8577072 C83.3248447,55.9494564 84.3040054,55.2098053 85.4261176,54.4452603 C87.5760468,53.0123513 89.7010822,51.7465334 92.0181024,50.5761421 C93.2597808,49.9315405 94.5972631,49.2869389 95.9106058,48.6894849 C98.2751508,47.6145203 100.686843,46.6119743 103.194717,45.8474293 C105.224703,45.2269673 107.230926,44.6774152 109.332199,44.2002818 C110.430549,43.9607721 111.553415,43.6986316 112.675528,43.4832615 C114.801317,43.1253172 116.902967,42.8865619 119.100421,42.6949541 C121.846673,42.456576 124.688351,42.3136246 127.530407,42.4328136 C130.420364,42.5523799 133.286182,42.7673728 136.152,43.2924082 C142.026965,44.3432332 147.686936,45.8474293 153.013103,48.2119743 C153.562655,48.4752463 154.087691,48.6181977 154.636488,48.8565759 C158.361901,50.5761421 161.848935,52.4390369 165.097591,55.0660995 C167.270906,56.8335677 169.324654,58.9589801 171.090991,61.1085322 C171.855913,62.039791 172.542381,63.4364906 173.306549,64.3432327 L198.937855,64.3432327 C198.221589,62.4807151 197.576233,60.5110782 196.669491,58.6006586 C195.618288,56.3560571 194.56784,54.0635536 193.277883,52.0331906 C192.513715,50.8627993 191.868359,49.6448832 191.033281,48.5457791 C189.982456,47.1373868 189.002918,45.7523798 187.832904,44.4386599 C185.253744,41.5732191 182.626681,38.7311636 179.569632,36.3907204 C173.837619,32.0199898 167.509284,28.58131 160.821872,25.7867792 C157.59811,24.4255345 154.278544,23.3984718 150.98274,22.3479485 C150.051481,22.0372272 149.191887,21.7270716 148.307776,21.5118146 C145.274867,20.748024 139.434603,19.2444691 139.434603,19.2444691 C138.71796,19.0292122 131.758978,17.658538 126.430926,18.1017251 C125.21301,18.0065248 115.660912,18.6696836 114.443373,18.8846766 C107.684297,20.054653 101.045165,21.4404898 94.5972631,23.7088914 C89.6056555,25.475907 84.781516,27.4824698 80.0769428,30.0617437 C76.1602998,32.2109186 72.2674192,34.5753881 68.6611958,37.441206 C66.8462029,38.8982546 65.2220634,40.5220169 63.5266368,42.2412059 C62.1650149,43.6269673 60.9950008,45.0598763 59.8008472,46.6357367 C58.9412527,47.7827428 58.1529453,48.9044778 57.3408755,50.1465334 C56.7200363,51.102309 56.1229595,52.056953 55.5737846,53.0602533 C54.6900505,54.6602532 50.9167361,61.6814695 50.9167361,63.639791 C50.964638,69.5864198 52.6121628,75.4855238 53.5917007,81.4083902 C53.830456,82.8892011 54.2363023,84.6083902 53.8783579,86.1367258 C53.5675611,87.402921 52.8509181,88.6925013 53.2812811,90.1250331 C53.9737846,92.4416761 55.4063164,94.5433263 56.4333791,96.6928783 C57.7712385,99.5107943 58.7262597,102.495801 60.0633648,105.314094 C60.4933507,106.221591 60.6604417,107.511171 60.2066935,108.323618 C60.0875044,108.538234 59.8725115,108.6578 59.7291829,108.896556 L59.896651,109.2545 C61.7833082,111.594905 63.7416297,113.696933 65.9624689,115.702779 C67.4195174,117.040261 68.8999511,118.210275 70.4761887,119.47647 C72.1240906,120.789813 73.963223,121.983967 75.6586497,123.130596 C77.9036284,124.635169 80.1244676,125.852708 82.4411106,127.118526 C84.5665231,128.265155 86.7160752,129.172651 88.9606767,130.247239 C90.5131519,130.963505 92.1135291,131.513057 93.7131518,132.109756 C97.7014591,133.61433 101.857235,134.665155 106.084297,135.596791 C109.547569,136.360958 113.13003,136.91051 116.783778,137.196791 C118.909191,137.388021 121.082505,137.578874 123.207541,137.578874 C130.754924,137.555112 138.110322,136.814707 145.059874,135.262231" id="path24" fill="#1476C6"></path>
                        <path d="M126.432434,18.7006502 L126.480336,18.6965012 C131.868738,18.2502211 138.781326,19.6714375 139.262986,19.8159731 C139.285617,19.8227624 145.128143,21.326619 148.161807,22.0907114 C148.861477,22.2611593 149.550963,22.4947095 150.281184,22.7413479 L151.577931,23.1637524 C154.560298,24.1124369 157.644126,25.0926915 160.589529,26.336633 C167.750679,29.3288819 173.839882,32.7724273 179.207539,36.865289 C182.194809,39.1520971 184.782268,41.9413474 187.388963,44.8380941 C188.32852,45.892691 189.136063,46.9853831 189.991132,48.1429502 C190.177836,48.395284 190.364917,48.6487494 190.554639,48.9025919 C191.074017,49.5860431 191.511546,50.306458 191.975101,51.0694942 C192.236487,51.5006116 192.499382,51.9332377 192.778119,52.3594518 C193.96586,54.229513 194.968783,56.3745389 195.938892,58.449032 L196.128614,58.8537468 C196.771329,60.2074478 197.286935,61.6082964 197.785191,62.9627518 C197.881749,63.2252695 197.97793,63.4862785 198.074488,63.7461559 L173.592829,63.7461559 C173.286936,63.3467217 172.981042,62.85865 172.684201,62.3849112 C172.323994,61.8097109 171.952094,61.2156515 171.55266,60.7294657 C169.634319,58.3950952 167.532292,56.2768491 165.474395,54.6029218 C161.914565,51.7250341 158.125031,49.809334 154.886936,48.3145674 C154.622155,48.1995273 154.374725,48.1086268 154.127672,48.0184806 C153.831962,47.910607 153.552849,47.8083911 153.270718,47.6737376 C148.377931,45.5008004 142.817535,43.8777924 136.256857,42.7047608 C133.078733,42.122394 129.937196,41.9349353 127.555301,41.836114 C125.039129,41.7308806 122.336253,41.8146147 119.04837,42.1001404 C116.565014,42.3170192 114.508625,42.5689758 112.576706,42.8948598 C111.735594,43.0555388 110.903156,43.2407344 110.098253,43.419518 L109.205089,43.6167834 C107.2264,44.0663827 105.205089,44.6087683 103.020082,45.2763779 C100.826777,45.9454963 98.5580362,46.8299847 95.6635525,48.1459677 C94.2694932,48.7800082 92.9504927,49.4197064 91.7427606,50.0462034 C89.5075885,51.1758592 87.3934915,52.416406 85.0949531,53.9481363 C83.7778385,54.8458261 82.8412992,55.5854772 81.9579423,56.4250811 C80.6762828,57.5875516 79.2105591,58.9525681 78.1695407,60.3168302 C77.0587439,61.7320117 75.8906157,63.2633648 74.9446469,64.9753873 C74.4479001,65.8391308 74.0469571,66.6334731 73.7237134,67.3950007 C73.5773673,67.7816108 73.4125394,68.1403095 73.2533692,68.4876928 C73.0368676,68.9599228 72.8131995,69.4479945 72.6532749,69.9568111 L72.5729355,70.2363019 C72.3515305,71.0098992 72.1222047,71.8102764 71.9279567,72.5669006 C71.5575654,74.0284753 71.1392721,75.9445526 71.1928318,77.81914 L71.1943405,77.8613842 C71.2429968,79.0253634 71.2931618,80.2289466 71.5398379,81.3887768 C71.8038643,82.659121 72.0731712,83.9060799 72.4609129,85.1662402 C72.9263537,86.8073529 73.5347459,88.33682 74.31815,89.8293235 C74.4116907,89.9983004 74.4954248,90.1544532 74.5791589,90.3102288 C74.8420538,90.7998091 75.1136238,91.3056083 75.4606299,91.787645 C75.7401207,92.1746323 76.0071645,92.5548303 76.269305,92.9289934 C77.1869853,94.2359241 78.0537463,95.4708133 79.1973578,96.633661 C79.3572823,96.8041466 79.5255048,96.9885879 79.6948589,97.1734063 C80.2719452,97.8059381 80.8686448,98.4595921 81.5649202,99.0204596 C83.9867966,101.00028 86.5470983,102.812256 89.3887766,104.557093 C94.8084842,107.919658 101.016122,110.527861 108.363599,112.529559 C108.466192,112.557093 108.566145,112.581987 108.666853,112.606881 C108.921827,112.670624 109.162468,112.730596 109.409144,112.823005 C110.166145,113.104382 110.948795,113.195282 111.705796,113.282788 C112.056197,113.323147 112.41829,113.365014 112.764542,113.425363 C115.74276,113.964354 118.738328,114.287975 121.918337,114.413198 C124.084863,114.510511 126.218573,114.38755 128.281374,114.268738 C131.487408,114.10127 134.690803,113.761808 137.799525,113.259403 C140.451104,112.845636 143.042335,112.252708 145.498535,111.497216 C148.236489,110.646296 150.499195,109.787079 152.621213,108.792076 C157.07232,106.76888 161.078732,104.301365 165.606031,100.795094 C167.400656,99.3957542 168.867888,98.1129631 170.22423,96.756999 C171.287124,95.6933498 172.38208,94.5980174 173.21942,93.4653442 L173.799524,92.7041938 L197.991508,92.7041938 C197.182079,95.1094743 196.366615,97.1903795 195.50702,99.0445991 C194.413196,101.406881 193.077223,103.582081 191.91513,105.398583 C191.521353,106.005466 191.079297,106.57086 190.651575,107.118149 C190.474677,107.34408 190.298911,107.56888 190.126917,107.795565 C187.743135,110.878262 185.007822,113.424608 182.363032,115.88722 C181.423475,116.757753 180.474489,117.567937 179.463645,118.362279 C177.592452,119.822345 175.742381,121.246579 173.698063,122.609709 C173.079864,123.036301 172.435639,123.440638 171.812537,123.832152 C171.414989,124.081468 171.017063,124.331539 170.622532,124.588021 C168.182551,126.140874 165.597733,127.556432 163.152848,128.67779 C162.446766,128.991227 161.750491,129.28656 161.062891,129.577743 C160.315696,129.894198 159.54323,130.22159 158.785852,130.562562 C156.950868,131.365579 155.034791,132.081091 153.097214,132.686465 C152.734744,132.798865 151.193584,133.206597 144.958035,134.673075 L145.059874,135.262231 L144.929746,134.679865 C138.200845,136.182929 130.89184,136.957658 123.205655,136.981798 C121.057234,136.981798 118.815273,136.780006 116.837338,136.602354 C113.307305,136.325503 109.735028,135.791039 106.212916,135.013669 C102.514283,134.198582 98.1616194,133.15002 93.9239958,131.551152 C93.5939628,131.427814 93.2658157,131.30787 92.9380458,131.18755 C91.7020251,130.733802 90.4241373,130.264966 89.2111246,129.704853 C88.4752453,129.352566 87.7420063,129.01499 87.0166881,128.680808 C85.5332369,127.997734 84.1320111,127.352378 82.7247504,126.593113 C80.5254105,125.391416 78.2483715,124.147097 75.9909458,122.634226 L75.14757,122.066947 C73.7018369,121.096084 72.2066932,120.092406 70.8480888,119.009521 L70.4147083,118.661383 C69.0051845,117.530973 67.6737371,116.463175 66.3660521,115.262986 C64.2689281,113.368408 62.3309744,111.313529 60.4420541,108.979912 C60.5352177,108.88524 60.6419598,108.769446 60.7287114,108.61367 C61.310701,107.571143 61.085147,106.076754 60.6031102,105.058366 C59.9434214,103.668079 59.3648264,102.203864 58.8054676,100.787551 C58.2378109,99.3508697 57.6509179,97.8647783 56.9727473,96.4367727 C56.621215,95.7012706 56.2202721,94.9650141 55.8321532,94.2536516 C55.0766606,92.8678902 54.2958968,91.4349812 53.8530868,89.9541703 C53.5841571,89.0579893 53.8644022,88.1934914 54.1608662,87.2780742 C54.2664767,86.9533217 54.3751047,86.6172538 54.4580844,86.2789229 C54.7926436,84.8505401 54.5271085,83.3214501 54.2928794,81.9730295 C54.2540298,81.7486071 54.2159345,81.5283337 54.1808567,81.3133407 C53.8904277,79.5549249 53.5366323,77.7768957 53.1949067,76.0569524 C52.3847229,71.9837794 51.547382,67.7718041 51.513813,63.6348876 C51.513813,62.0631762 54.5112669,56.2187633 56.0965568,53.3491736 C56.6819411,52.2787351 57.3073064,51.2939167 57.8417713,50.4720402 C58.6323418,49.2624222 59.4070707,48.1565287 60.2783578,46.9936811 C61.640734,45.1964157 62.7741616,43.8589334 63.9524736,42.6598763 C65.6942935,40.8935398 67.2792062,39.3157935 69.0349818,37.9066469 C72.1003282,35.4708902 75.7008939,33.143573 80.3639772,30.5852326 C84.5944345,28.2662888 89.1801958,26.2597259 94.7964144,24.2715694 C101.603015,21.8772272 108.59896,20.502404 114.545212,19.473116 C115.722392,19.2652518 125.175292,18.6025078 126.384532,18.6968029 L126.432434,18.7006502 Z M128.673264,17.418538 C127.904947,17.418538 127.149455,17.4442994 126.425645,17.5031019 C124.967465,17.4269114 115.613387,18.0718147 114.339648,18.2971047 C108.346626,19.3343512 101.289578,20.7215082 94.3988661,23.145346 C88.7200355,25.1560201 84.0780743,27.1875146 79.7899084,29.5385565 C75.0657218,32.130466 71.4115965,34.4927101 68.289673,36.9735776 C66.4818465,38.424893 64.8705311,40.0279104 63.1015543,41.8221583 C61.8855241,43.0596877 60.7207906,44.4330022 59.3248453,46.2751521 C58.4358307,47.4610078 57.6471461,48.5868918 56.8411113,49.819895 C56.2938223,50.6621392 55.6537468,51.6703429 55.0498808,52.773596 C54.260819,54.2019788 50.3196593,61.4498806 50.3196593,63.639791 C50.3539827,67.8943877 51.202639,72.1621858 52.0237611,76.29005 C52.3636008,78.0001866 52.7155102,79.7687863 53.0025446,81.5057028 C53.0376224,81.723336 53.0768492,81.9481356 53.1164532,82.1770842 C53.34163,83.4742082 53.5747276,84.8150851 53.2971227,86.0005636 C53.2258355,86.2902383 53.1281458,86.5912284 53.0251755,86.909946 C52.7008002,87.9102288 52.3334263,89.0444108 52.7094753,90.2970274 C53.1877403,91.8966502 53.9990557,93.3853819 54.7839685,94.8250801 C55.181894,95.5549245 55.5575658,96.2447878 55.8947652,96.9501154 C56.5548312,98.3407802 57.1345577,99.8076354 57.6946709,101.226589 C58.2615733,102.660629 58.8477119,104.14408 59.5239966,105.5702 C59.9260711,106.418856 59.9954723,107.477602 59.6854299,108.032435 C59.6658165,108.067513 59.6118797,108.121449 59.5549254,108.178404 C59.4530867,108.28062 59.3267312,108.406975 59.2169716,108.589531 L59.0540296,108.861855 L59.4315874,109.62904 C61.3861371,112.053557 63.391229,114.185381 65.5622803,116.145966 C66.8956136,117.369917 68.241771,118.449785 69.6675136,119.593019 L70.1020256,119.941911 C71.5006111,121.056857 73.0161226,122.074113 74.4818463,123.058177 L75.3240905,123.625079 C77.6282866,125.169257 79.9294652,126.426777 82.1548306,127.642807 C83.5983006,128.421307 85.0161223,129.074207 86.517301,129.765579 C87.2373387,130.097121 87.96492,130.432434 88.7030624,130.785475 C89.9673716,131.369351 91.2686446,131.846861 92.526919,132.30853 C92.8524258,132.428097 93.178687,132.547663 93.504571,132.669115 C97.8112187,134.293632 102.215556,135.355395 105.955679,136.179912 C109.531728,136.968973 113.159073,137.511359 116.737008,137.791981 C118.733425,137.971897 121.003674,138.175951 123.207541,138.175951 C130.982364,138.151057 138.377366,137.367276 145.190001,135.844975 L145.196413,135.843467 L145.059874,135.262231 L145.231491,135.835546 C148.518997,135.062326 152.613669,134.086182 153.451764,133.826682 C155.432717,133.207729 157.389529,132.476753 159.270529,131.653745 C160.021495,131.316168 160.753226,131.005749 161.528332,130.677224 C162.222344,130.383401 162.925031,130.085428 163.643937,129.766333 C166.144267,128.619327 168.778496,127.177366 171.268643,125.592076 C171.662796,125.335593 172.055441,125.089294 172.446955,124.843373 C173.081372,124.44507 173.736912,124.033566 174.368312,123.597922 C176.438657,122.217442 178.308341,120.778121 180.199901,119.30259 C181.238279,118.486749 182.211028,117.65582 183.175856,116.762279 C185.856855,114.266098 188.628001,111.685806 191.075148,108.521638 C191.246766,108.294953 191.419137,108.075056 191.592263,107.853274 C192.035827,107.286372 192.494856,106.699479 192.919184,106.04507 C194.10504,104.191982 195.466662,101.973406 196.590283,99.5466265 C197.5619,97.4513884 198.476563,95.0781683 199.385945,92.2926898 L199.641296,91.5100401 L173.208105,91.5100401 L172.264399,92.7487011 C171.474583,93.8168765 170.412066,94.8801485 169.383871,95.9083427 C168.058836,97.2330009 166.627436,98.4848632 164.873169,99.8521427 C160.42357,103.298442 156.490331,105.721827 152.120694,107.70806 C150.043183,108.682317 147.828756,109.522675 145.145494,110.356244 C142.711925,111.105325 140.24705,111.66921 137.612066,112.079959 C134.542571,112.575952 131.382175,112.910888 128.216121,113.076848 C126.179346,113.193774 124.076187,113.315226 121.96888,113.220176 C118.841675,113.096838 115.900044,112.779629 112.9735,112.249691 C112.58953,112.18293 112.210087,112.1388 111.842713,112.096178 C111.124938,112.013199 110.446768,111.934745 109.82706,111.704288 C109.517395,111.588116 109.231869,111.517206 108.955396,111.448182 C108.861478,111.424797 108.768314,111.401789 108.674773,111.376518 C101.442713,109.406504 95.3388001,106.843185 90.0160279,103.540969 C87.2181025,101.822911 84.7004222,100.041487 82.3173954,98.0929726 C81.6890126,97.5871734 81.1236189,96.9674658 80.5763299,96.368503 C80.4035812,96.1791584 80.2315869,95.9909453 80.0580838,95.8061268 C78.9740669,94.7040052 78.1352173,93.50872 77.2469571,92.242902 C76.9814219,91.8645899 76.7113606,91.4798657 76.4292296,91.0891066 C76.1286167,90.6715677 75.8868439,90.2215913 75.6311155,89.7452123 C75.5451183,89.5845334 75.4583668,89.4234773 75.3685978,89.2624212 C74.6312098,87.8559148 74.0522377,86.4011294 73.606033,84.8279092 C73.2296068,83.6043355 72.9670892,82.387551 72.7087205,81.1432323 C72.482035,80.0788287 72.434133,78.9261649 72.3873626,77.8115964 C72.3371976,76.0580839 72.7339916,74.2468628 73.0851467,72.8618558 C73.2748685,72.1229591 73.501554,71.3308799 73.7210731,70.5648261 L73.7968864,70.2996682 C73.929654,69.8776032 74.1284281,69.4442227 74.3388949,68.9855711 C74.5063631,68.6200832 74.6798661,68.2421482 74.8318699,67.8393194 C75.1272023,67.1445528 75.5070231,66.3924547 75.9849109,65.5615259 C76.8927845,63.9181502 78.028098,62.4309272 79.1136237,61.0478061 C80.0988193,59.756717 81.5177726,58.4365851 82.7703893,57.30014 C83.6148965,56.4974998 84.5065514,55.7944352 85.7621855,54.9386125 C88.0147078,53.4374338 90.0899553,52.2191406 92.2874093,51.1090982 C93.4653442,50.4973113 94.8016949,49.8496923 96.1576591,49.2326249 C99.0027321,47.9396499 101.226966,47.0717574 103.368974,46.4184807 C105.525693,45.7591691 107.519846,45.224327 109.464589,44.7826486 L110.357376,44.585006 C111.153981,44.4081083 111.977744,44.2251757 112.787927,44.0697773 C114.674585,43.7521913 116.701176,43.5036293 119.152095,43.2901451 C122.38755,43.0087684 125.043278,42.9261658 127.505513,43.0291361 C129.848936,43.1260715 132.936536,43.3101356 136.044504,43.8796783 C142.511642,45.0361139 147.982269,46.6315877 152.770576,48.7577546 C153.089294,48.9105127 153.409143,49.0274387 153.718054,49.1398385 C153.94323,49.2220638 154.168784,49.3042892 154.398865,49.404242 C157.558129,50.8624221 161.265814,52.735878 164.722297,55.5304088 C166.718336,57.1534168 168.761523,59.2139542 170.630076,61.4875987 C170.980854,61.9145671 171.332009,62.4758117 171.672226,63.0185746 C172.046389,63.6156514 172.433376,64.2334732 172.849784,64.7279569 L173.028567,64.9403096 L199.806879,64.9403096 L199.49495,64.1289942 C199.295422,63.6099937 199.101551,63.0826953 198.905794,62.5504935 C198.398109,61.1711442 197.873074,59.7446473 197.208859,58.3449302 L197.021023,57.9428557 C196.034319,55.8340392 195.014799,53.6539355 193.781796,51.7133415 C193.506454,51.2912764 193.250349,50.8695885 192.995375,50.4494094 C192.536723,49.6942939 192.06223,48.9131529 191.508152,48.1844401 C191.322956,47.9362553 191.137006,47.6839215 190.951433,47.4330964 C190.079769,46.2532756 189.256384,45.1390842 188.278732,44.0418659 C185.630547,41.0994803 183.001976,38.2660999 179.93248,35.9167176 C174.481844,31.7600746 168.306266,28.2670431 161.051953,25.2356052 C158.05827,23.9717486 154.94804,22.9828189 151.940024,22.0261758 L150.663645,21.6105228 C149.908153,21.3549075 149.194904,21.1134365 148.448841,20.9315978 C145.421967,20.169429 139.583589,18.6658741 139.583212,18.6658741 C138.848087,18.444884 133.521166,17.418538 128.673264,17.418538 L128.673264,17.418538 Z" id="path26" fill="#1D3C73"></path>
                        <path d="M87.2482769,106.125787 C87.2482769,106.125787 90.4731708,104.607635 97.9862305,105.025174 C105.498913,105.442713 109.99566,108.421308 119.595659,109.047805 C129.195282,109.67317 139.421402,105.082506 141.299384,105.290709 C143.17812,105.499667 145.26506,106.75153 153.194904,101.951907 C161.125503,97.151907 157.369162,95.2735478 161.751623,92.7694461 C166.134084,90.2649671 175.559826,86.3430436 177.195281,80.4567637 C179.281467,72.9433268 175.107586,68.3526621 175.733706,66.6828838 C176.359826,65.0131054 174.690425,71.2739256 172.812065,71.6914645 C170.934083,72.1086262 171.142664,69.3955664 167.177742,69.1869855 C163.212443,68.9784047 156.534461,70.6481831 150.899383,67.9347461 C145.264683,65.2220634 146.934838,64.3873628 146.725503,63.5522851 C146.516922,62.7175845 151.827625,52.6446003 152.64837,51.5896262 C155.57001,47.833285 144.687974,45.9952841 137.801034,43.699386 C129.768974,41.0221583 132.671001,34.3959256 121.99151,37.3084762 C120.604617,37.6871278 112.678922,40.073172 103.170577,41.7757651 C101.655066,42.0477123 104.62838,48.2727003 103.052143,48.4978771 C101.83913,48.6717574 96.0852404,42.8586505 94.8575177,42.993304 C83.8329069,44.2082026 72.5842509,43.6726062 67.7393665,37.7859491 C67.0027329,36.8908996 74.7228647,46.1721818 74.1857596,47.141913 C73.8180085,47.8053736 67.8898616,42.2249872 67.6903331,42.9785939 C66.9574712,45.7406872 68.7992439,45.9866089 70.7296541,50.1487965 C71.9038172,52.6793009 60.9595459,46.7160762 61.6181031,47.3338979 C62.7768018,48.4198008 63.8313987,49.2560101 64.1459673,50.5135301 C64.4013185,51.5360666 66.5606773,53.4483721 66.5572826,55.8604418 C66.5546424,57.8753404 62.8993855,53.0941995 63.1547368,55.4572358 C63.4640248,58.3162645 65.3129639,63.0755288 67.497971,67.2301728 C67.8947649,67.9849111 73.8059387,74.236679 70.1012712,71.6164056 C68.6955193,70.6217804 72.0192344,74.1729354 72.8486545,74.821686 C80.3349343,80.6804317 74.8756228,74.9902857 68.6445999,72.4974994 C66.8858069,71.7936804 65.0655335,71.3448356 63.4572356,71.4828836 C63.4572356,71.4828836 67.0046188,73.1522848 68.8833552,74.821686 C74.7439868,80.0320583 75.9784988,86.5086258 82.4486542,89.2216857 C85.4909927,90.4976875 84.1180554,91.9343683 82.6572351,91.5172066 C79.4398849,90.5983947 77.4396963,89.8474282 72.6396964,93.1866078 C72.6396964,93.1866078 86.6225344,94.6478053 90.5874565,99.8649669 C90.5874565,99.8649669 93.3005163,100.491087 95.1788755,102.786608 C97.0568575,105.082506 91.0046182,102.578027 87.2482769,106.125787" id="path28" fill="#FFFFFF"></path>
                        <path d="M103.003109,48.8241383 C103.035924,48.8241383 103.067607,48.8222524 103.097781,48.8177263 C103.322958,48.7856659 103.51004,48.6706258 103.638281,48.4858074 C104.063741,47.871003 103.775198,46.5618093 103.441016,45.046675 C103.193963,43.9264487 102.88656,42.5327665 103.141157,42.1510598 C103.164542,42.115982 103.187173,42.1008948 103.227909,42.0937283 C111.675622,40.5812343 118.968408,38.5037237 121.365013,37.8210269 C121.680714,37.7308807 121.920223,37.6629505 122.076376,37.6199142 C128.327767,35.9150958 129.714282,37.5057416 131.633754,39.7073069 C132.945588,41.211503 134.432057,42.9167363 137.698818,44.0056566 C139.181892,44.5001403 140.876941,44.9814227 142.516545,45.4464864 C147.033283,46.7289003 152.153132,48.182177 152.755112,50.0209323 C152.895423,50.4494094 152.777365,50.8978771 152.393396,51.3916064 C151.712585,52.2666654 146.148417,62.574633 146.412066,63.6307386 C146.435828,63.7257881 146.41282,63.8464859 146.3834,63.9988669 C146.178969,65.060253 146.367182,66.1114552 150.759449,68.2259295 C154.881656,70.2110308 159.539459,69.8945763 163.28109,69.6403566 C164.710981,69.5437984 166.060911,69.4521435 167.161146,69.5094749 C169.262419,69.6199888 170.108435,70.4614787 170.788492,71.1373862 C171.352754,71.6982537 171.887219,72.2278153 172.882221,72.0067875 C173.997921,71.7589798 174.992923,69.8398851 175.593772,68.3119266 C175.705795,68.6608187 175.848369,69.0440341 176.005276,69.4653448 C176.895799,71.8608186 178.24158,75.4806205 176.884107,80.3703893 C175.561712,85.1292765 168.987832,88.5759525 164.187832,91.0925013 C163.235074,91.5918883 162.335498,92.0637412 161.591321,92.4892009 C159.615272,93.6181023 159.190567,94.6794884 158.740967,95.8034865 C158.143513,97.2967444 157.466851,98.9887764 153.027813,101.675811 C146.187267,105.816122 143.812538,105.39368 142.076753,105.085523 C141.818761,105.039507 141.57548,104.996508 141.335216,104.970106 C140.667229,104.896556 139.266003,105.305419 137.142099,105.925127 C132.741157,107.208295 126.090709,109.147003 119.616782,108.725316 C114.610464,108.398677 111.050634,107.44177 107.60773,106.516169 C104.522015,105.686372 101.607541,104.902968 98.0039579,104.702685 C93.757282,104.466193 90.8729822,104.838847 89.1439865,105.218668 C90.7519072,104.448842 92.495613,104.354547 93.7640712,104.2859 C94.9039109,104.22442 95.5918882,104.186702 95.8034865,103.706928 C95.9732178,103.322958 95.6922183,102.904288 95.4289462,102.581798 C93.7010821,100.470342 91.3282391,99.7288047 90.7749152,99.5794412 C87.2328125,95.079677 76.6747741,93.3823645 73.541158,92.9701061 C77.5419123,90.3826474 79.4361131,90.926919 82.2257405,91.7295592 L82.5682205,91.8276262 C83.4342271,92.0754338 84.3183383,91.7627511 84.5397433,91.1313509 C84.6668531,90.7688803 84.7302195,89.828192 82.573501,88.923713 C78.8601583,87.3667116 76.9478529,84.5925486 74.7334258,81.3804789 C73.1658633,79.1068344 71.5451184,76.755868 69.0979709,74.5802905 C67.8981595,73.514001 66.065062,72.4643075 64.8475231,71.8215918 C65.9421011,71.9302198 67.1728413,72.256481 68.5246565,72.7973579 C69.783308,73.300894 71.0008469,73.9315399 72.0814692,74.5670891 C72.3070232,74.7835908 72.5061745,74.9642603 72.6495031,75.0762829 C76.2214031,77.8715681 76.421686,77.7667119 76.615934,77.6660047 L76.8003753,77.570578 L76.7969806,77.3503045 C76.7784988,76.9682206 74.8627987,75.4659104 72.4922188,74.0680792 C72.0479001,73.6396021 71.483638,73.0538407 71.0106536,72.5348402 C71.2426196,72.6140482 71.4085791,72.590663 71.5371976,72.4503518 C71.8706253,72.0859954 71.529654,71.56096 69.1047602,68.7060803 C68.5035344,67.9981124 67.8819408,67.2663821 67.7838738,67.0800549 C65.4532751,62.6485604 63.7623746,58.0726058 63.4760946,55.4229123 C63.4576127,55.2520495 63.4662879,55.1577544 63.4757174,55.1106068 C63.7039117,55.1536054 64.2700597,55.5696356 64.6181973,55.825364 C65.3808565,56.3858543 66.0397909,56.8693998 66.5199418,56.6280042 C66.7586971,56.5073065 66.879772,56.249315 66.8801492,55.860819 C66.8827895,54.1718044 65.8972166,52.7279572 65.1779333,51.6733603 C64.8316815,51.1660525 64.5325774,50.7281458 64.4594043,50.4354537 C64.2515778,49.6045249 63.763129,48.9587918 63.1422898,48.3273915 C63.1498334,48.3307862 63.1569998,48.334558 63.1645434,48.3375754 C67.8261181,50.546722 70.3124923,51.5477592 70.971804,50.8959912 C71.1155098,50.7530397 71.2411109,50.4837328 71.0227234,50.0130115 C70.2728884,48.3964156 69.5441755,47.3712388 68.9584141,46.5478536 C68.0920304,45.3299376 67.6356419,44.6883534 67.9468158,43.2893907 C68.4518606,43.5368212 69.6897672,44.5073068 70.6232891,45.2397914 C72.7762358,46.9280516 73.7037228,47.6028277 74.1755757,47.5096641 C74.3030627,47.4840158 74.4067874,47.4089569 74.4682678,47.2984429 C74.6263065,47.0136716 74.8903329,46.5365382 71.3916059,41.8949542 C71.0363019,41.4234785 70.6519549,40.9240914 70.2732656,40.4371513 C75.1849109,43.6084855 83.4387532,44.576708 94.8929726,43.3146618 C95.3659571,43.2531814 97.3895308,44.9014605 98.7258815,45.9862318 C100.876188,47.7306919 102.262704,48.8241383 103.003109,48.8241383 L103.003109,48.8241383 Z M126.485994,36.2572362 C125.287314,36.2572362 123.803863,36.4793956 121.906645,36.9968496 C121.748606,37.0398859 121.506833,37.1089854 121.187739,37.1998859 C118.799054,37.8802442 111.529653,39.9509655 103.113623,41.4578019 C102.900516,41.4958971 102.724373,41.6116916 102.603675,41.7927382 C102.196697,42.4030164 102.481091,43.6925967 102.81037,45.1858546 C103.060441,46.3215453 103.372369,47.7348409 103.106834,48.1176791 C103.081186,48.15502 103.054029,48.1712388 103.006504,48.1784052 C102.535028,48.248938 100.488069,46.584063 99.1328594,45.4845816 C96.9214497,43.6899565 95.5277675,42.5968872 94.8224399,42.6723233 C81.0462969,44.1908523 72.0188572,42.4769438 67.9886829,37.5807251 L67.9437984,37.5256191 L67.9404038,37.528297 C67.9083434,37.4922009 67.8879757,37.4702489 67.8804321,37.4642141 L67.6503519,37.2963687 L67.4549724,37.5034031 C67.3380464,37.6268543 67.3357833,37.7719934 67.4474288,37.9345582 L67.4455429,37.9364441 C67.4519549,37.9443649 67.4587442,37.9519085 67.4655334,37.9602065 C67.473077,37.9703904 67.481375,37.9805743 67.4900502,37.9911353 C67.5511534,38.0654399 67.6137654,38.1393673 67.6771317,38.2125403 C69.171144,40.0120688 73.382365,45.3891549 73.8485602,46.7892492 C73.2620444,46.4882591 71.9407809,45.4517669 71.021969,44.731352 C68.734746,42.9374812 68.0569526,42.4716632 67.6450714,42.608957 C67.5119266,42.6538415 67.4146141,42.7583205 67.3780275,42.8959914 C66.8865613,44.7494567 67.5013656,45.6139545 68.43187,46.9220167 C69.0021671,47.7239026 69.7120209,48.7219224 70.4369619,50.2849587 C70.4743028,50.3652981 70.4875041,50.4169719 70.4924075,50.4460148 C69.7440812,50.7417243 65.0119739,48.4982543 63.441394,47.7540771 C61.5079664,46.8379055 61.5083436,46.839037 61.3235251,47.110607 C61.3073063,47.1351238 61.1681267,47.3546429 61.3970753,47.5692586 C61.5404039,47.7039121 61.6814695,47.8336622 61.8202719,47.9615264 C62.764732,48.8313048 63.5801964,49.5822713 63.8329074,50.5919836 C63.9336146,50.9966984 64.2470517,51.4561043 64.6442228,52.0377168 C65.3536995,53.0772264 66.236302,54.3709557 66.2344161,55.8600646 C66.2340389,55.961149 66.2227235,56.0181033 66.2136711,56.046769 C65.9866084,56.0294187 65.3499276,55.5617148 65.0006584,55.3048548 C64.2157457,54.7281457 63.5967924,54.2713801 63.1351234,54.5376695 C62.754171,54.7568115 62.8141427,55.3105125 62.8337561,55.4919364 C63.1283341,58.2163116 64.8467688,62.8827896 67.2120681,67.3806678 C67.337292,67.6186687 67.8019785,68.1701067 68.6121624,69.1243736 C69.2194231,69.8387536 70.1140954,70.8925961 70.6180086,71.579819 C70.5222047,71.5160755 70.4128224,71.4410166 70.2879756,71.3527563 C70.0922189,71.2147083 69.7282397,70.9567168 69.5045716,71.2577068 C69.3495504,71.4662877 69.2609129,71.5850996 70.5806677,73.0225347 C69.973407,72.7170185 69.361243,72.4363961 68.7645433,72.1976408 C66.7247508,71.3810449 64.9305029,71.03253 63.4297014,71.1607714 L62.2332846,71.2633646 L63.3195647,71.7751986 C63.3546425,71.7914173 66.8473345,73.4445998 68.6687394,75.0630816 C71.057424,77.1869853 72.6559152,79.5051371 74.2016012,81.7474756 C76.3790646,84.9059856 78.4358302,87.8891067 82.3238075,89.5196583 C83.7665231,90.1246559 84.0124449,90.6828832 83.9302195,90.9174895 C83.8355472,91.1864192 83.3093803,91.3667115 82.7458725,91.206787 L82.4045241,91.10872 C79.3885883,90.2412047 77.209239,89.6147078 72.4552551,92.9214498 L71.7423839,93.4174423 L72.6061274,93.5075884 C72.7445526,93.5222985 86.4958017,95.0144248 90.3302193,100.060346 L90.4007521,100.153133 L90.5146606,100.179535 C90.5406861,100.18557 93.1470038,100.813199 94.9288048,102.991039 C95.2120674,103.337291 95.20905,103.454971 95.2086728,103.459875 C95.0989132,103.566617 94.3396487,103.607352 93.7289934,103.640544 C91.904571,103.739366 89.1470039,103.888352 87.0264948,105.891181 L87.3855707,106.418479 C87.4172538,106.403769 90.6485597,104.942572 97.968503,105.348041 C101.504571,105.544552 104.387739,106.319658 107.440261,107.140026 C110.91334,108.073548 114.504476,109.03913 119.574537,109.369917 C126.163882,109.801412 133.148889,107.762374 137.322769,106.545212 C139.224513,105.990379 140.727578,105.551341 141.263551,105.612067 C141.490614,105.636961 141.71994,105.678074 141.963599,105.72145 C143.799714,106.048088 146.314376,106.494292 153.362372,102.228003 C157.986229,99.4293233 158.737573,97.5520956 159.340684,96.0433734 C159.782363,94.9393658 160.131255,94.0673244 161.911924,93.0500684 C162.645918,92.6306436 163.54059,92.161431 164.48769,91.6646842 C169.392546,89.0934443 176.109378,85.5713321 177.506455,80.543138 C178.920128,75.4515776 177.530594,71.7137182 176.610651,69.240168 C176.293065,68.3873627 176.027153,67.6710968 175.994338,67.1811393 C176.122956,66.771144 176.192735,66.4818465 176.190472,66.4052789 L176.183305,66.1393666 L175.916639,66.0820351 C175.632999,66.0322473 175.539081,66.282318 175.431207,66.5693524 C175.368595,66.7364434 175.342947,66.919376 175.347096,67.1196589 C174.900137,68.471474 173.780665,71.145307 172.74191,71.3761415 C172.117299,71.5153212 171.815554,71.2479002 171.244126,70.6791119 C170.525974,69.9654862 169.543041,68.9878342 167.194715,68.864119 C166.057516,68.8037701 164.687973,68.897688 163.237337,68.995755 C159.571896,69.2446942 155.008766,69.5547366 151.039317,67.6439398 C146.738327,65.5732185 146.899761,64.7336146 147.017818,64.1210734 C147.055159,63.9272026 147.097403,63.7073063 147.03894,63.4738315 C147.007257,62.6131055 151.889482,53.0915593 152.903344,51.7880232 C153.421967,51.121168 153.578874,50.4588389 153.369162,49.819895 C152.659685,47.6545014 147.818572,46.2800554 142.692689,44.82527 C141.060251,44.3617151 139.372368,43.8826957 137.902873,43.3927382 C134.803203,42.3596406 133.377837,40.72494 132.120694,39.2826016 C130.694952,37.6474861 129.483071,36.2572362 126.485994,36.2572362 L126.485994,36.2572362 Z" id="path30" fill="#1D3C73"></path>
                        <path d="M136.793585,89.0078243 C136.237243,87.3784042 127.143043,86.1431379 124.638941,86.6817517 C120.241015,87.6277206 120.264778,90.2966503 120.834698,92.9470981 C121.404995,95.5967916 123.784627,98.6904266 127.981515,97.0859004 C130.341534,96.1833074 137.670907,91.574538 136.793585,89.0078243" id="path32" fill="#1D3C73"></path>
                        <path d="M121.236395,91.3753867 C121.710134,93.0300778 121.09797,93.0474281 121.6264,93.7980175 C122.780572,95.4379986 124.225551,98.0631753 127.995471,96.1188095 C129.038752,95.5805728 130.579535,94.5614309 131.903816,93.590191 C136.023759,90.5670887 135.687691,89.3669002 135.687691,89.3669002 C135.687691,89.3669002 134.557658,91.609993 134.168785,90.3124918 C133.281656,87.3561506 127.519469,86.3166409 124.262137,87.4236659 C121.002166,88.5321996 121.101741,90.9057969 121.236395,91.3753867" id="path34" fill="#FFFFFF"></path>
                        <polyline id="path36" fill="#1D3C73" points="125.139459 96.4907095 125.212255 96.4907095 125.284297 96.4182908 125.357093 96.4182908 126.808861 94.9672772 126.808861 94.7492668 126.591227 94.5316337 126.518432 94.5316337 126.300421 94.3864191 126.082788 94.0963673 125.864778 93.7335196 125.719563 93.3706719 125.574726 92.9354055 125.429888 92.0644956 125.501553 91.6292292 125.647522 91.2660043 125.937951 90.6131048 126.446013 90.1778384 127.389341 89.452143 128.043373 89.2341326 128.623853 89.0889181 129.93003 89.0889181 130.2925 89.2341326 130.945777 89.669399 131.309002 90.3226757 131.454216 90.5406861 131.599054 91.1207898 132.470718 91.4836375 132.397922 93.9511528 133.196413 93.9511528 133.340874 93.5158864 133.558884 92.0644956 133.558884 91.0483711 133.486465 90.5406861 133.340874 90.1778384 133.269209 89.7421948 132.979157 89.0889181 132.76077 88.7988662 132.324749 88.3635999 131.817441 87.9279563 130.582929 87.3470982 129.857234 87.1294651 129.204334 86.8394132 128.40622 86.8394132 127.67977 86.9842505 126.953698 87.0574236 126.155584 87.2750568 124.776235 87.8555376 123.39764 88.7264476 123.179629 89.0164994 123.106833 89.3793471 122.888823 89.669399 122.670813 90.3226757 122.526352 90.9755753 122.526352 91.7016479 122.599148 92.4993848 122.743986 93.2986304 122.961619 94.0235714 123.977743 95.3297477 124.196131 95.6925954 124.413764 95.9834017 124.994622 96.5635054 124.994622 96.4907095 125.139459 96.4907095"></polyline>
                        <polyline id="path38" fill="#1D3C73" points="128.478262 93.7335196 128.478262 93.7335196 128.478262 93.7335196 128.55068 93.7335196 128.55068 93.7335196 128.55068 93.7335196 128.623853 93.7335196 128.623853 93.7335196 128.623853 93.7335196 128.695895 92.5725578 128.695895 92.4277205 128.767936 92.3549246 128.841109 92.2821288 128.913151 92.2821288 128.986324 92.2097101 129.058743 92.1365371 129.204334 92.1365371 129.422345 92.0644956 129.422345 91.8468624 129.422345 91.7016479 129.422345 91.6292292 129.276753 91.5560562 129.204334 91.4112188 129.058743 91.2660043 129.058743 91.1207898 128.986324 91.0483711 128.043373 91.1207898 127.897404 91.1935857 127.824985 91.2660043 127.752189 91.3388002 127.607352 91.4112188 127.534179 91.4836375 127.534179 91.6292292 127.389341 91.7016479 127.389341 91.9192811 128.187456 93.7335196 128.187456 93.7335196 128.260629 93.7335196 128.260629 93.7335196 128.260629 93.7335196 128.332293 93.7335196 128.40622 93.7335196 128.40622 93.7335196 128.478262 93.7335196"></polyline>
                        <path d="M173.318619,71.1336144 C171.527011,72.2806205 170.115602,72.7886828 168.162183,73.4913702 L167.616403,73.6882584 C166.783588,73.9896257 166.11183,74.3909458 165.463079,74.7790646 C164.555206,75.3210731 163.698251,75.8336615 162.474301,76.0320584 C161.044409,76.2636473 159.621684,76.6212145 158.246106,76.9667119 C157.846672,77.0670419 157.448369,77.167372 157.050821,77.2643074 C155.686559,77.5962263 154.397733,77.6893899 153.032717,77.7882112 C152.194999,77.8489372 151.328992,77.9115492 150.441863,78.0341329 L150.530501,78.6742083 C151.396507,78.5542649 152.251953,78.4924073 153.079487,78.4324356 C154.410557,78.3362545 155.786889,78.2366789 157.203579,77.8919358 C157.603014,77.7946232 158.002448,77.6942932 158.403768,77.5932088 C159.766144,77.251106 161.174913,76.8969335 162.577271,76.6694936 C163.923805,76.4514832 164.874678,75.8830721 165.794244,75.33352 C166.417346,74.9608656 167.061571,74.5757643 167.836299,74.2955191 L168.380948,74.0993852 C170.37397,73.3819878 171.813669,72.8637417 173.667134,71.677886 L173.318619,71.1336144" id="path40" fill="#1D3C73"></path>
                        <path d="M71.9856653,47.4436575 C71.9856653,47.4436575 79.1864195,46.8884477 66.4199889,42.8431861 C65.7029687,42.6157462 64.0169715,40.3126817 70.1306913,41.4728891 C70.7828365,41.5966043 74.0786403,41.4510126 74.5836851,41.8153691 C82.2811861,47.3761421 77.7980179,41.9398386 78.3192814,41.9877406 C81.9413464,42.3238085 82.0443167,41.921734 85.5992435,42.8099942 C85.9213557,42.891088 85.3438923,39.4904281 82.3818933,38.3060811 C80.3711437,37.5016304 82.7722752,36.4892777 84.7471926,36.9233371 C86.0428078,37.2085611 89.1586965,39.3535115 91.1090972,38.9917953 C92.07996,38.8122574 101.893821,44.0852417 103.052143,43.8672313 C104.070907,43.6748693 98.3253158,40.1048552 99.5021192,39.8815643 C100.193114,39.7506826 93.3948114,36.5038746 94.1559618,36.5548317 C100.548418,36.9813852 107.84573,38.289108 111.667324,37.5573022 C119.477979,36.0623093 124.627248,35.1219982 126.516923,33.1006875 C128.767936,30.6923142 130.14276,35.5258454 135.071755,34.2136719 C146.054499,31.2905226 152.47977,32.0132005 149.730501,32.4058455 C144.705701,33.1239596 141.354452,36.56015 142.713811,36.1241669 C147.623947,34.5535871 150.763221,34.167241 151.795942,34.6108808 C152.525409,34.9223565 164.260628,33.9733702 163.223381,34.3780849 C159.897403,35.6759633 155.292405,38.1099472 155.352754,38.4694003 C155.424796,38.8967458 149.51928,45.2416773 149.642618,46.2000931 C149.765201,47.1577546 155.917016,42.7289004 155.877412,43.2086741 C155.735215,44.9259772 155.196601,46.780574 154.129935,48.6660997 C150.463363,55.1434215 71.9856653,47.4436575 71.9856653,47.4436575" id="path42" fill="#FFFFFF"></path>
                        <path d="M72.2972165,93.4249859 C73.4547836,93.2020722 77.3770843,93.7508699 78.6904271,93.9534159 C80.1919829,94.1846275 81.796509,94.8446935 83.1615255,95.5156978 C83.8091445,95.8340382 84.6004694,96.5921711 85.2929729,96.7901909 C86.0469568,97.0059382 86.7175839,96.7969801 87.4979705,97.068173 C88.7822703,97.5136232 90.335877,100.064873 91.6416762,99.98227 C91.2818459,97.1933969 93.5702004,97.855726 95.0559146,96.8716619 C96.6340381,95.8272489 98.1789697,95.2324351 100.290427,95.3919825 C100.172369,95.3889651 99.5835902,95.4025436 99.8114072,95.3999033 C101.547569,94.4546888 105.701082,95.4591207 107.511171,95.8845803 C110.278168,96.535594 112.412256,97.6924068 115.411973,97.6871263 C119.76275,97.6795827 123.40028,100.091652 127.708059,100.313812 C130.487503,100.457518 135.684674,95.7197524 138.69118,95.7197524 C135.994339,95.7197524 130.889577,99.0815628 128.228945,99.3342738 C125.819516,99.5632224 123.887597,98.8239485 121.641487,98.1386114 C119.292783,97.4215912 118.046579,96.6230999 116.600469,94.5644484 C116.111265,93.8677959 115.46176,92.8128218 114.955961,92.2817516 C114.348323,91.6428077 113.409144,91.3365371 112.765297,90.805844 C113.504948,90.062044 114.237809,89.4468625 115.12871,88.8754339 C115.884957,88.391134 116.363222,87.7661458 117.129276,87.2362072 C118.498064,86.2902383 121.121355,85.2130106 122.789247,84.7732181 C125.961336,83.9366316 132.02904,83.8955189 134.939365,85.4004693 C132.305513,85.0247975 133.609426,83.7525674 126.068078,83.260724 C124.455254,83.1554906 122.772274,83.6892011 121.150021,83.7525674 C119.654122,83.8110304 118.476188,84.3579423 117.096084,84.6083902 C114.374726,85.1013652 111.52739,85.2077301 108.690992,85.0677961 C106.985759,84.9836848 106.142383,85.2722279 104.515226,85.7606768 C102.640261,86.3234302 100.896179,85.9175839 99.0098985,86.2080129 C97.3103229,86.4693991 95.7223927,87.2245146 93.9734064,87.3957545 C92.5182438,87.5379516 91.0121618,87.5236187 89.5189039,87.5228644 C86.9959431,87.52211 85.5117376,87.3297479 83.6333784,85.6343213 C82.6757169,84.7698234 81.9549249,83.5066457 80.8184798,82.8382818 C81.1911342,82.9220158 79.0065044,79.1392719 77.0512003,77.5230532 C75.6963677,76.4032041 70.9457785,73.3816106 69.3461557,72.6049958 C68.0414882,71.9717097 65.0896731,71.5707667 63.608485,71.6213089 C61.5999985,69.6539351 69.2522378,75.4459198 70.493539,76.5393663 C72.2255522,78.0650617 73.424232,79.9513417 74.9201301,81.7855708 C76.3266365,83.5104175 77.2835436,85.1522845 78.6904271,86.8673246 C80.1338971,88.6276263 83.8849578,88.6498799 83.772558,91.1298421 C82.713435,91.1996205 82.6157452,91.1834018 81.808956,91.1222985 C80.8652502,91.050257 78.2649674,90.390191 77.3789702,90.6379987 C75.5994323,91.1354998 73.9700123,92.5306908 72.2972165,93.4249859 C73.2122565,93.6335667 75.582082,93.7527558 76.5593569,93.7527558" id="path44" fill="#1D3C73"></path>
                        <path d="M139.596036,88.1727465 C137.899855,88.1727465 136.455631,90.0001863 135.29052,91.4738308 C134.983872,91.8619496 134.694197,92.2285691 134.425268,92.5303136 L134.747003,92.8169708 C135.02423,92.5054197 135.318054,92.134274 135.628474,91.7408747 C136.735499,90.3407804 138.108436,88.6034867 139.596413,88.6034867 C139.622439,88.6034867 139.64771,88.6042411 139.673358,88.6049954 L139.690708,88.1750096 C139.659025,88.1735009 139.627719,88.1727465 139.596036,88.1727465" id="path46" fill="#1D3C73"></path>
                        <path d="M124.600846,97.3137175 C121.650539,97.3536987 118.224608,91.9905682 119.092501,89.4913698 C119.022722,92.7539817 123.077413,96.9421947 125.818384,97.2465794 C125.223571,97.3389886 125.247333,97.2974987 125.156055,97.4872206 L124.600846,97.3137175" id="path48" fill="#1D3C73"></path>
                        <path d="M87.340309,105.940214 C87.9966032,104.299102 91.6922184,104.351907 93.2115017,104.279111 C95.4255516,104.172746 97.2446935,103.533048 99.4685501,103.533048 C102.179724,103.532293 104.69401,103.644316 107.089106,104.125976 C109.786702,104.669116 112.431492,104.050917 114.961242,103.692972 C114.079394,103.980007 120.107116,104.624231 123.987927,103.976989 C126.016781,103.639036 127.691086,103.178121 129.771614,103.391228 C132.625739,103.68392 135.565485,104.479394 138.46374,104.271567 C138.543325,104.336065 138.344174,104.339837 138.403014,104.436018 C140.042241,104.414519 141.49514,104.889012 143.052142,104.991605 C144.59745,105.093067 146.391698,104.402826 147.786889,103.901176 C148.560864,103.622817 149.827436,103.332765 150.484108,102.903156 C151.485145,102.247239 151.083825,102.300422 151.40556,101.297121 C151.616404,100.64309 152.055442,99.9385171 151.792924,99.2354525 C151.574914,98.6496911 150.766993,98.9812328 150.685899,98.1831187 C151.700892,98.2581776 152.650633,97.7591678 153.637714,97.55285 C155.087596,97.2492196 154.891462,97.454783 155.401411,96.1840617 C156.239506,94.0952357 153.826304,93.2590264 154.266851,91.1694461 C156.030548,90.9125861 156.782646,89.280903 157.07232,87.7073057 C157.185475,87.0891067 157.405748,86.1661459 157.228473,85.4766598 C157.019138,84.6593095 156.345871,84.2417706 155.877412,83.5786872 C156.574065,85.2182911 158.220458,87.8906154 159.459873,89.0693047 C160.745305,90.2921241 167.09778,89.9881166 164.182551,91.5949058 C162.411689,93.4932556 160.356432,95.1649198 158.608954,97.1564332 C156.756243,99.2693987 154.922391,101.080997 152.744928,102.823948 C150.349831,104.739648 147.480619,105.477791 144.620081,106.407541 C142.031114,107.248654 138.657234,106.705891 136.074301,107.450068 C134.766993,107.826494 133.460063,108.090521 132.009426,108.15879 C130.325692,108.238375 129.280902,108.81433 127.682411,109.32277 C126.372463,109.739554 125.03498,109.588305 123.668078,109.647899 C122.083542,109.716923 120.508059,109.800657 118.897498,109.800657 C117.882128,109.800657 116.4545,110.057517 115.454217,109.774255 C115.186796,109.698441 115.104948,109.18623 114.814896,109.084769 C113.51136,108.62574 111.981893,108.737008 110.625928,108.311926 C108.723052,107.715226 108.383967,106.674208 106.424891,106.347569 C103.484769,105.857235 100.824891,104.666098 98.3388943,104.999903 C94.739083,105.483071 90.7428549,105.489861 87.7152265,106.193302 C87.7333311,105.989248 87.6356414,106.010747 87.5405919,105.920601 L87.340309,105.940214" id="path50" fill="#1D3C73"></path>
                        <polyline id="path52" fill="#1D3C73" points="164.060345 86.3841563 164.128237 86.3841563 164.197261 86.3155094 164.334178 86.3155094 164.334178 86.2472397 164.265154 86.1785928 164.197261 86.1785928 164.128237 86.109946 164.128237 86.0412991 164.265154 85.9734066 163.375008 84.603864 163.786889 83.3029682 163.71711 83.2343214 163.580571 83.2343214 163.443655 83.1656745 163.306738 83.1656745 163.101175 83.0287579 162.758695 82.8922186 162.553131 82.8922186 162.485239 82.9604883 162.348322 82.9604883 162.348322 83.0287579 162.279675 83.0287579 162.005088 83.3029682 161.868549 83.5081544 161.868549 83.7819875 163.923428 86.3841563 164.060345 86.3841563"></polyline>
                        <polyline id="path54" fill="#1D3C73" points="146.0677 80.8203657 146.0677 80.8203657 146.0677 80.8203657 146.130689 80.8482771 146.130689 80.8482771 146.130689 80.8482771 146.193301 80.8761885 146.193301 80.8761885 146.193301 80.8761885 145.588681 80.3817047 144.921449 79.8596868 144.129369 79.2818462 143.490048 78.6972163 143.10721 78.3766128 142.787738 78.0846751 142.558789 77.7569052 142.267229 77.4027326 142.093349 76.9501159 141.920223 76.4982536 141.96209 76.0671362 141.969633 75.5454955 141.906644 75.5175842 141.844032 75.4896728 141.810086 75.3995266 141.747097 75.3716153 141.747097 75.3716153 141.712396 75.2810919 141.712396 75.2810919 141.712396 75.2810919 142.155583 77.6528033 142.231774 77.9866081 142.36341 78.195189 142.593113 78.5222045 142.815272 78.696462 143.385192 79.1004224 143.920411 79.4138594 144.517488 79.7544535 145.080996 80.0056557 145.588681 80.3817047 146.0677 80.8203657"></polyline>
                        <path d="M142.332481,77.9447411 L142.244975,77.5449297 L142.475433,77.825552 L142.699478,78.1461555 L143.034791,78.4558208 L143.420647,78.7794417 L144.0958,79.390097 L143.439883,79.0072588 L142.672321,78.4471456 L142.332481,77.9447411 Z M141.812726,75.2426195 L141.606786,75.3007053 L141.818007,76.4341329 L141.810463,76.5129637 L141.854593,76.6276266 L142.049596,77.6724167 L142.140873,78.0443168 L142.272509,78.2525204 L142.526729,78.606693 L142.748888,78.7809504 L143.322957,79.1883054 L144.464306,79.8479942 L145.036866,80.1040998 L145.526069,80.4695878 L146.023947,80.9184327 L146.149548,80.9746326 L146.261194,80.7928315 L145.656951,80.2983478 L144.987455,79.7748212 L144.192736,79.1950947 L143.562467,78.6176312 L143.176611,78.2940103 L142.860534,78.00509 L142.64705,77.6954247 L142.361524,77.3476643 L142.06242,76.5684092 L142.035263,76.4243262 L142.069209,76.0776973 L142.078639,75.4760943 L141.928898,75.4093333 L141.894574,75.3195644 L141.831585,75.2912758 L141.812726,75.2426195 L141.812726,75.2426195 Z" id="path56" fill="#1D3C73"></path>
                        <path d="M68.2210261,67.0853354 C68.5914174,67.7371034 69.4404509,68.204053 69.9839681,68.7536051 C70.5029685,69.2790176 70.6538408,69.4853354 71.0766602,70.1269195 C71.740498,71.1336144 72.6479944,71.4670421 73.8659105,71.8600642 C75.3765186,72.3477587 76.8863724,72.9410637 78.2208373,73.8485602 C78.9499273,74.3449298 81.1579423,75.6209316 81.2111248,76.2968392 C82.4267778,76.1052315 83.559451,77.6852409 84.4141422,78.4607241 C85.1017423,79.0849579 85.1903798,80.0524261 85.8210257,80.651766 C86.2985363,81.1055142 87.6929728,81.451766 88.3496442,81.6712851 C90.8499742,82.5082488 94.116735,81.8583666 96.7875506,81.9749154 C93.4875979,79.8378104 87.2622326,80.1923601 85.387268,76.0622329 C85.1632228,75.5688807 85.4046183,75.0483715 85.0255519,74.6176313 C84.7181497,74.2683621 83.9317282,74.0601585 83.544741,73.68939 C82.6308324,72.8139539 81.4472398,70.7892486 81.1632229,69.5279568 C80.8196114,68.0037701 81.8176311,67.9155099 82.8111248,67.023855 C83.3644486,66.5274854 83.2279093,65.9915118 84.119187,65.9515306 C85.2303609,65.9006113 86.6964618,67.4334731 87.9641656,67.3218276 C90.6032981,67.0894844 89.4374329,62.4448829 89.1345569,60.9338976 C88.9214499,59.8721343 88.5533217,57.836868 89.6290407,57.203959 C90.6768483,56.5880231 91.5364428,57.7983955 92.2911811,57.9636006 C92.5970745,58.0299844 92.8991962,58.1103239 93.2009406,58.0925964 C93.3963202,56.4680797 90.0922184,55.1238081 88.9546418,54.5395554 C87.3999035,53.7410642 85.2171596,52.8678912 83.9030625,51.7107012 C83.7989607,51.6194235 82.9525675,51.2022618 81.6758113,50.5244683 C80.3405921,49.8165004 88.4137649,51.6692113 86.4735481,49.7289945 C84.200658,49.2096169 76.712115,47.0925024 69.2744914,38.8465808 C68.1425726,39.4934455 73.5973579,44.2500696 71.8317757,43.1517198 C69.5004226,41.7014605 65.6429969,42.2396972 64.9927376,42.1582262 C67.0638361,43.9060809 68.6121624,46.0073539 69.5532279,49.3016489 C69.9756701,50.7801968 64.7415354,47.4711916 65.948136,48.5914179 C70.6572354,52.963695 64.2904274,49.5358781 64.2014128,50.8465805 C63.3448358,50.7617149 67.2565754,56.4148972 66.6074477,56.1934922 C61.5019315,54.4524267 63.3252224,55.1596403 63.5602059,58.6840155 C63.6741144,60.3990555 66.7805735,66.6304557 67.7902859,67.8310214 L68.2210261,67.0853354" id="path58" fill="#1D3C73"></path>
                        <path d="M97.9462493,72.1244678 C97.1187152,71.9177728 96.8192338,71.5613372 96.3375742,70.8337559 C95.8811857,70.1442698 95.3569047,69.6403566 95.3606765,68.7735956 C95.3640712,67.9766131 95.8883522,67.6737371 96.1090028,67.0027329 C96.6974045,67.5654863 96.2757166,68.1723698 96.2625153,68.864119 C96.2496911,69.5434212 96.5872677,70.0231949 97.1145662,70.4113137 C97.6841088,70.8299841 98.3867962,71.4666649 98.9695402,71.7514362 C99.3388,71.9309742 100.128239,72.484298 100.156905,72.4782632 C100.153133,72.5371033 100.173123,72.5838737 100.230078,72.5917945 L97.9462493,72.1244678" id="path60" fill="#1D3C73"></path>
                        <path d="M135.643561,69.5807621 C135.311642,69.2884471 134.78887,69.3001397 134.412444,69.1251279 C134.176706,69.0153684 133.949266,68.7690695 133.688634,68.6528979 C132.8611,68.2825065 131.876281,68.3119266 131.01631,67.9683151 C130.502967,67.7627517 129.904004,67.5956607 129.471755,67.280715 C128.933896,66.8892015 129.282034,67.0581784 129.0644,66.4124453 C128.91994,65.9839682 128.592925,65.9175844 128.225928,65.590946 C127.697121,65.1206019 127.568125,64.5917947 127.240732,63.9792535 C126.848087,63.247146 126.065815,62.6576128 125.476282,62.1042889 C124.96407,61.6233837 124.693632,61.0545954 124.321355,60.4254582 C123.933236,59.7699184 123.990567,59.4066935 124.567654,58.8322475 C124.915414,58.4859957 125.162467,57.9488906 125.528333,57.7048548 C125.800657,57.5245624 126.180855,57.5415356 126.464872,57.3446473 C126.743608,57.1511537 126.863175,56.7920778 127.238846,56.6611961 C127.201883,56.6185747 127.157753,56.581611 127.110605,56.5389896 C127.413481,56.264025 128.004146,55.78576 128.422816,55.7684097 C128.355678,55.7853829 129.106267,55.42857 128.842241,55.5311632 C129.130784,55.6115026 127.781609,56.6743975 127.61829,57.2578958 C127.515697,57.6211207 127.299195,57.3917949 126.740214,57.9707671 C126.398865,58.3238081 126.379629,58.9906633 126.387927,59.4979712 C126.404146,60.4394139 127.142288,61.1255053 127.629983,61.9239966 C127.972463,62.48675 128.262514,63.0902389 128.590662,63.6646849 C128.892029,64.1916061 128.91994,65.2435627 129.419327,65.595095 C129.883637,65.9221106 130.568596,65.6441285 131.021213,66.1604887 C131.252048,66.4248923 131.199242,66.7315401 131.419893,66.9597343 C131.634509,67.1815165 132.038092,67.2384707 132.309285,67.3512477 C133.350303,67.7831195 134.892217,68.0399794 135.70919,68.7988667 L135.643561,69.5807621" id="path62" fill="#1D3C73"></path>
                        <path d="M123.109851,64.7170187 C122.419988,63.834039 121.183967,63.499857 120.370765,62.7749159 C120.147852,62.5750102 119.970577,62.3852884 119.726541,62.2363021 C119.080431,61.841394 117.593585,61.4811866 117.233,60.7717099 C116.864118,60.0445058 117.676565,58.576519 118.089955,58.0409226 C118.290237,57.7810452 118.959356,57.2314931 118.877885,56.9580372 C118.991793,57.2130113 118.77152,57.4057506 118.65648,57.6282871 C118.441864,58.0431857 118.393585,58.3000457 118.393585,58.7722758 C118.393208,59.6978769 118.411312,60.1229594 118.955961,60.8735487 C119.37614,61.4532752 120.211595,61.6750574 120.786041,62.121262 C121.297498,62.5184331 121.879488,62.9284284 122.331727,63.3501163 C122.586701,63.5881172 122.67383,63.7891545 122.87185,64.0501634 L123.109851,64.7170187" id="path64" fill="#1D3C73"></path>
                        <path d="M141.163221,41.6991974 C139.889105,41.8640254 138.300798,47.9404043 139.416121,50.8280987 L139.172462,50.5840629 C139.147191,51.0853358 138.85035,51.5839685 138.984249,52.1105126 C139.100798,52.5665239 139.498724,52.8346993 139.588493,53.3076837 C139.671849,53.7452132 139.49382,54.2660995 139.437243,54.68477 C139.310133,55.6209321 139.23432,56.5608661 139.159638,57.498537 C139.1487,57.6365851 139.241486,58.0786407 139.165673,58.1801023 C138.809237,58.6606303 138.099384,58.258933 137.894575,57.8131056 C137.734273,57.4642136 137.813858,56.8041476 137.703721,56.4797723 C137.240543,55.1170189 135.505136,54.8726059 135.032151,53.558886 C134.810369,52.9437045 134.991039,52.3190935 135.157375,51.6680798 C135.490426,50.3652981 135.991321,49.2164061 135.33201,47.7736905 C134.804334,48.6962741 134.554263,49.7761421 134.178969,50.7190935 C133.868926,51.4983485 133.459685,52.265911 133.360487,53.1477592 C133.259025,54.0503523 133.635452,54.6564814 133.692783,55.5236195 C133.775386,56.7585087 132.652142,58.3245624 133.346909,59.3965096 C133.569068,59.7389895 133.818761,59.6469575 134.031868,59.8996685 C134.458837,60.4058448 134.934084,61.3480418 135.210558,61.9571885 C135.709568,63.0562926 135.508153,63.7910404 136.676281,64.3990554 C137.648653,64.9052318 137.443844,65.0180087 137.877601,65.956434 C138.414329,67.1192817 139.53003,66.491276 140.548417,66.9767074 C141.951906,67.644317 142.007729,70.098631 141.993773,71.3946234 C142.887691,71.6782632 144.670246,70.8801491 145.579251,70.7390836 C146.266852,70.6323415 146.945022,70.6613844 147.621307,70.7239963 C148.662325,70.8205546 149.672415,70.8816578 150.698346,70.6579897 C151.526257,70.4776974 152.436017,70.1024028 153.404994,70.4418653 C154.36869,70.7794419 155.310133,71.7563396 156.509944,71.3474758 C156.918808,71.2082962 157.22621,70.754548 157.687879,70.5889657 C158.112207,70.4365848 158.640637,70.4346989 159.074395,70.3181501 C160.939553,69.8168771 162.564824,69.8972165 164.377931,69.7154155 C166.679864,69.484581 169.020269,70.4686451 171.120033,71.2407337 C169.7305,69.7882114 167.588115,69.0338502 165.504192,69.0338502 C163.464399,69.0338502 161.443466,68.9553967 159.41612,68.8626103 C157.590944,68.7788762 155.073641,69.5860426 153.262042,69.035359 C152.459025,68.7917003 152.237243,67.909475 151.556055,67.4949535 C151.179251,67.2667593 150.77944,67.2362077 150.355112,67.1536051 C149.515131,66.9910403 148.530312,66.6157456 147.897403,66.0854297 C146.493537,64.9086264 146.862043,63.3037231 147.46968,61.9387066 C148.16143,60.3858542 148.850916,58.8541239 149.907776,57.6705313 C150.267983,57.2665709 150.410934,57.3740674 150.692311,56.9859486 C151.704664,55.5922664 152.036206,54.8326247 152.565013,54.2544069 C153.330689,53.4166889 154.908436,48.1274858 155.240732,47.0864675 C155.830265,45.2439404 159.101552,39.814049 158.518808,40.4771324 C155.830265,43.5326722 151.673735,44.2659112 150.330218,45.8545957 C151.117394,44.2074482 153.105135,43.4376227 152.407351,42.9212625 L155.096271,40.8437519 C155.096271,40.8437519 156.460534,38.7553031 157.07232,38.6330966 C157.68373,38.5108901 161.276375,35.9201123 161.451764,35.9542848 C162.588586,36.1814984 157.061759,36.3081933 154.00622,38.3856662 C152.376422,39.4941999 151.109473,39.5319179 150.743231,40.2647798 C150.601033,40.5484195 149.308813,40.6604422 147.825739,41.583403 C147.302967,41.9085327 144.958035,43.726543 144.413763,44.121451 C143.86572,44.5197537 145.814235,41.7663356 145.897592,41.6003761 C146.626682,40.1403102 150.274018,37.445355 150.149548,37.6938793 C149.676564,38.6383772 153.066663,36.1607157 157.863268,34.430249 C157.863268,34.430249 156.964447,33.8217436 152.514848,34.6138228 C149.101741,35.2199897 145.772368,35.6457888 145.650161,36.0127855 C145.527578,36.3795182 142.629322,38.1548317 142.751906,38.6432805 C142.874112,39.1324837 141.163221,41.6991974 141.163221,41.6991974" id="path66" fill="#1D3C73"></path>
                        <path d="M165.612443,90.5980175 C166.517676,90.4626097 167.721637,89.6177252 168.58274,89.2296064 C169.391038,88.8660044 170.216686,88.5314452 170.832622,87.9400261 C171.698251,87.1094745 172.867888,86.7236188 173.707869,85.842525 C174.295139,85.2258347 174.781325,84.5638828 175.367464,83.9694463 C175.710321,83.622063 176.110132,83.0943874 176.214611,82.5791587 C176.258364,82.364543 176.198393,82.1416293 176.25761,81.9074001 C176.334932,81.5988664 176.731349,81.2209315 176.586889,80.9470984 C176.848275,80.6691163 176.447709,80.5491729 176.592546,80.2508231 C176.133895,80.724939 176.732857,81.0455425 177.162843,81.1541705 C177.350679,80.6593096 177.605653,80.2726995 177.655064,79.6816576 C177.69165,79.2414879 177.520033,78.8160282 177.562278,78.4448825 C177.610179,78.0167826 177.979816,77.5984893 178.07034,77.1583196 C178.178213,76.6396963 177.988114,76.2474286 177.920222,75.7559623 C177.736158,76.1127751 177.448746,76.4156511 177.254875,76.7453069 C176.950868,77.2627986 176.766427,77.9077774 176.426964,78.4607241 C176.156526,78.9008938 175.782362,79.1298424 175.559826,79.565486 C175.221118,80.231964 174.150679,80.7807618 174.013008,81.5298424 C173.812348,82.623666 174.238185,83.216971 173.537761,84.1074944 C173.292216,84.4197999 172.955771,84.5891539 172.697025,84.8648729 C172.496743,85.0787343 172.437148,85.3367258 172.190849,85.531351 C171.815932,85.8278149 171.254687,86.0812803 170.827341,86.2996678 C170.016403,86.7145664 169.411405,87.2709078 168.680807,87.8227229 C167.216969,88.9263533 165.980194,89.7263532 164.234225,89.8806201 C163.792169,89.9198469 162.148039,89.792737 162.71645,90.438093 C163.022344,90.7847219 164.235734,91.1498327 164.74455,91.0574235 C165.156432,90.9827417 165.348039,90.4467681 165.708247,90.4030152 C165.750114,90.4859949 165.665625,90.4682674 165.663362,90.4961788 L165.612443,90.5980175" id="path68" fill="#1D3C73"></path>
                        <path d="M107.054028,47.6699658 C106.747758,45.1749164 105.830455,42.7711446 105.035735,42.6677971 C105.035735,42.6677971 103.324467,40.1010834 103.447051,39.6130117 C103.569257,39.1238085 100.671002,37.3476653 100.548418,36.9813852 C100.426212,36.6143508 97.0972159,36.1885517 93.6837317,35.5816681 C89.2333783,34.7903433 88.3353113,35.3991505 88.3353113,35.3991505 C93.1315394,37.1304847 96.5216383,39.6069769 96.0490311,38.6625167 C95.9245615,38.4135775 99.5715204,41.1089099 100.301365,42.5685987 C100.384344,42.7349353 102.772275,48.2900507 102.565203,47.6446947 C101.468361,44.2327193 95.5971688,41.5170192 95.4553489,41.2333795 C95.0887294,40.5005176 93.822157,40.4627996 92.1923598,39.3542659 C89.1364428,37.276793 83.6099932,37.1500604 84.7471926,36.9233371 C84.9222044,36.8887119 88.5156036,39.4794898 89.1266361,39.6016963 C89.7376687,39.7239028 91.102308,41.8127288 91.102308,41.8127288 L93.7912282,43.8898622 C93.093067,44.4065995 95.6646841,46.6025448 95.5428548,46.4976886 C95.5428548,46.4976886 98.2992903,47.2795839 98.5433262,48.6200837 C98.7866076,49.9602062 105.855349,51.6665711 105.245825,55.0785465 C104.636678,58.4916534 107.054028,47.6699658 107.054028,47.6699658" id="path70" fill="#1D3C73"></path>
                        <path d="M85.7323882,40.8931626 C85.6486542,40.0445063 85.3397433,39.6967458 84.6902383,39.1132475 C84.0743025,38.5614323 83.6526146,37.9692588 82.794906,37.8470523 C82.0058442,37.733521 80.9059857,37.3005177 80.2100876,37.4211778 C80.6804317,38.0850533 82.0665703,38.6640254 82.7526618,38.7515313 C83.4266834,38.8379057 83.8517659,39.2422432 84.1587909,39.8204611 C84.4903326,40.4454492 85.0172539,41.2333795 85.2141421,41.850824 C85.3382345,42.2427146 85.7701063,43.1045722 85.7599224,43.1321064 C85.8187626,43.1362554 85.8625155,43.1637896 85.8617801,43.221121 L85.7323882,40.8931626" id="path72" fill="#1D3C73"></path>
                        <path d="M125.078733,47.3950012 C125.09797,46.9533227 124.760393,46.5538885 124.660063,46.1510597 C124.597828,45.8983487 124.646107,45.566807 124.572934,45.2903336 C124.340591,44.4145203 123.699384,43.6661941 123.42706,42.7813285 C123.264495,42.2532757 123.018573,41.6822243 122.99217,41.1481366 C122.958979,40.4835445 123.04573,40.8599707 123.411595,40.2855247 C123.6545,39.9030636 123.50061,39.6069769 123.523995,39.1162649 C123.558318,38.4098057 123.888729,37.9775568 124.159544,37.337934 C124.482411,36.5717671 124.449596,35.5934739 124.509568,34.787703 C124.562373,34.0862226 124.835452,33.5180755 125.090426,32.8347375 C125.35747,32.1200181 125.676187,31.9373118 126.485617,32.0248554 C126.973311,32.0780379 127.546626,31.9328988 127.966051,32.064912 C128.277979,32.1629035 128.58689,32.3255437 128.834697,32.5673165 C129.529087,33.2421302 127.844221,32.0271939 127.111359,33.860216 C126.761336,34.7344829 126.318149,35.4682499 126.002449,36.349306 C125.780666,36.9697303 125.493255,37.5743885 125.252236,38.191041 C125.031963,38.7560575 124.230831,39.4391315 124.270813,40.0482781 C124.308153,40.6148033 124.954264,40.9727477 124.836961,41.6490324 C124.776612,41.9952842 124.504287,42.1469108 124.465061,42.4622337 C124.426965,42.7688815 124.636678,43.1181507 124.71928,43.4002818 C125.036866,44.4809041 125.805937,45.8421488 125.727861,46.9544543 L125.078733,47.3950012" id="path74" fill="#1D3C73"></path>
                        <path d="M50.9393669,63.6639305 C50.9393669,61.7059862 54.7126813,54.68477 55.5964154,53.0843928 C56.1455903,52.0810925 56.7426671,51.1256941 57.3638835,50.1710501 C58.1755761,48.9289945 58.9638835,47.806128 59.823478,46.6598762 C61.0176317,45.0840158 62.1876458,43.6514841 63.5488904,42.266477 C65.2446943,40.5461565 66.8684566,38.9223941 68.6838267,37.4653833 C72.2900501,34.5999803 76.1825535,32.2356616 80.0991965,30.086185 C84.8041469,27.507062 89.6282863,25.5004991 94.6195167,23.7329178 C101.067796,21.4646671 107.707305,20.0792829 114.466004,18.9092687 C115.68392,18.6941627 125.235263,18.0311547 126.453556,18.1261664 C131.781986,17.6825644 138.740591,19.0536535 139.457234,19.2686087 C139.457234,19.2686087 145.297875,20.771296 148.330784,21.5362559 C149.214141,21.7512489 150.073735,22.0612159 151.005748,22.3725407 C154.301552,23.4229131 157.620364,24.4495609 160.844503,25.8112205 C167.531538,28.6052987 173.86025,32.0441293 179.59264,36.41486 C182.649689,38.7553031 185.276752,41.5973587 187.855158,44.4631766 C189.025549,45.7765194 190.00471,47.1615264 191.055158,48.5710502 C191.891367,49.6694 192.535969,50.8869389 193.300514,52.0577073 C194.590471,54.087316 195.640919,56.3798194 196.692121,58.6251753 C197.599241,60.5359721 198.244597,62.5052318 198.96124,64.3673723 L173.32918,64.3673723 C172.565389,63.4606302 171.877789,62.0639306 171.113999,61.1326717 C169.34653,58.9831197 167.292782,56.8577072 165.119468,55.0906163 C161.87232,52.4635536 158.384909,50.6002816 154.659496,48.881847 C154.109944,48.6423373 153.584532,48.4986315 153.03498,48.236491 C147.709567,45.8715689 142.049596,44.3673728 136.174631,43.3169249 C133.308813,42.790758 130.442995,42.5765194 127.553415,42.456576 C124.711359,42.3370098 121.868927,42.4807156 119.122675,42.7194709 C116.925598,42.9110786 114.824325,43.1498339 112.698158,43.5077783 C111.576046,43.7227712 110.453557,43.985666 109.355207,44.2244213 C107.25318,44.7019319 105.247334,45.251484 103.216971,45.8715689 C100.709474,46.6364911 98.2974044,47.6397914 95.9332366,48.7136244 C94.6195167,49.3110784 93.2820344,49.95568 92.040356,50.6002816 C89.7240902,51.7710501 87.5983005,53.0364909 85.4491256,54.4693999 C84.3262591,55.2335677 83.3474755,55.9739731 82.3917,56.8822239 C81.1024968,58.0518609 79.669965,59.3897203 78.6662875,60.7026859 C77.4487487,62.2555383 76.373784,63.6884473 75.4904272,65.28807 C75.0363018,66.0767546 74.6304555,66.8646848 74.2962735,67.6522378 C73.9617143,68.5363491 73.5079661,69.3242793 73.2450712,70.1601114 C73.2450712,70.1601114 72.3983009,72.0305498 72.2802434,73.9790646" id="path76" fill="#1476C6"></path>
                        <path d="M128.694763,17.4426775 C127.926824,17.4426775 127.171708,17.4687784 126.447899,17.5275432 C124.991982,17.4494668 115.636018,18.0964069 114.361902,18.3210934 C108.36888,19.3583399 101.311454,20.7461004 94.4214969,23.1697873 C88.7422892,25.18065 84.1007051,27.2121068 79.8125393,29.5626961 C75.0208374,32.1923613 71.4742085,34.4856568 68.3123038,36.9980189 C66.5044774,38.4494097 64.893162,40.0528043 63.1238079,41.8470522 C61.9096637,43.0826958 60.7449301,44.4552558 59.3478533,46.2992916 C58.4626105,47.4794896 57.673926,48.6049964 56.8641193,49.8444118 C56.3507765,50.6330963 55.6842985,51.6812811 55.0728888,52.7981128 C54.283827,54.2261184 50.3422901,61.4713799 50.3422901,63.6639305 L51.5364438,63.6639305 C51.5364438,62.1997156 54.2770378,56.7075893 56.1191877,53.3733131 C56.7121155,52.2896734 57.3631292,51.2667597 57.8644021,50.496557 C58.6591216,49.2805268 59.4338505,48.1750106 60.3013658,47.0181978 C61.6833554,45.1945298 62.7824595,43.8981601 63.9747273,42.6847703 C65.7169243,40.9180565 67.3022143,39.339933 69.0572354,37.9311636 C72.1621858,35.464101 75.6567638,33.2054306 80.3866081,30.6093722 C84.6166881,28.2904661 89.2028266,26.2841672 94.8190452,24.2957467 C101.624891,21.9018193 108.621214,20.5265813 114.567842,19.497595 C115.745023,19.2898439 125.20358,18.6259307 126.407163,18.7214328 L126.455065,18.7250915 L126.502967,18.7209802 C131.894386,18.2729274 138.80358,19.6960297 139.285617,19.8404521 C139.308625,19.8469019 145.150774,21.3503436 148.184815,22.1153035 C148.882222,22.2850348 149.569445,22.5172272 150.297403,22.7640164 L151.596413,23.1868735 C154.579911,24.1354449 157.664871,25.1168311 160.612537,26.3610743 C167.774442,29.3536249 173.863645,32.7973212 179.230547,36.8897303 C182.219326,39.1777454 184.80603,41.9669957 187.411216,44.8626109 C188.35115,45.9172077 189.159071,47.0110314 190.01414,48.1685985 C190.200467,48.4205551 190.387548,48.6740205 190.576516,48.927863 C191.096271,49.6101826 191.533423,50.3298432 191.995846,51.0917479 C192.258364,51.5236196 192.521636,51.9570001 192.80075,52.3839685 C193.989623,54.2547841 194.994055,56.4024503 195.964917,58.4792065 L196.151622,58.8782635 C196.793206,60.2300786 197.30768,61.628287 197.805558,62.9801022 C197.902871,63.2448829 197.999806,63.5085321 198.097496,63.7702954 L173.615837,63.7702954 C173.309189,63.3708612 173.003296,62.8820352 172.705701,62.4071649 C172.34587,61.833096 171.97397,61.2394138 171.575668,60.7539825 C169.655818,58.4188576 167.553791,56.3002343 165.496271,54.6270613 C161.938327,51.7487964 158.148039,49.8334735 154.909567,48.3394613 C154.643655,48.2236669 154.394716,48.132012 154.146154,48.0411115 C153.851576,47.933615 153.573594,47.8317763 153.292217,47.6975 C148.400562,45.5249399 142.840543,43.9023091 136.279865,42.7289004 C133.110793,42.147288 129.964353,41.9590749 127.577932,41.8602536 C125.065909,41.7538886 122.362656,41.8383771 119.071001,42.1246571 C116.588022,42.3411588 114.531633,42.5934926 112.59896,42.9189994 C111.773689,43.0770381 110.956339,43.2588391 110.166145,43.4342281 C109.851954,43.5040065 109.539271,43.5737849 109.228474,43.640923 C107.250917,44.0901451 105.229229,44.6325307 103.042713,45.3008947 C100.855443,45.9677499 98.5863247,46.8526155 95.6861834,48.1701072 C94.2917468,48.8045249 92.9727464,49.443846 91.7653914,50.0703429 C89.5283335,51.2007531 87.4142364,52.4416771 85.1179611,53.9726531 C83.8042412,54.866571 82.8673247,55.6062221 81.9805732,56.4492207 C80.6996679,57.611314 79.2346986,58.9759533 78.1921715,60.3402154 C77.0802432,61.7576599 75.9117378,63.2901446 74.9676549,64.9991497 C74.4720396,65.8606301 74.0707195,66.6549724 73.7463442,67.4191402 C73.599621,67.8057503 73.4351703,68.1648262 73.2756229,68.5118323 C73.0640246,68.9738785 72.8452598,69.4510119 72.6860896,69.9477587 C72.5642603,70.2249865 71.8000925,72.0301726 71.6842981,73.9428553 L72.8761887,74.015274 C72.9859482,72.2051844 73.781422,70.4237606 73.7893428,70.4060331 L73.8149911,70.338895 C73.9522848,69.9017427 74.151059,69.4683622 74.3611485,69.0097107 C74.5289939,68.6442227 74.7021198,68.2662878 74.8545007,67.8634589 C75.1509646,67.1664292 75.5311627,66.413954 76.0079189,65.5856655 C76.9139066,63.94493 78.0499745,62.4561983 79.1362545,61.0708141 C80.1225817,59.7801022 81.5411578,58.4603474 82.7930201,57.3242796 C83.6405448,56.5186219 84.5325769,55.8155573 85.7848163,54.9631292 C88.03583,53.4623278 90.1107002,52.2447889 92.3096629,51.1336149 C93.487975,50.5214509 94.8243258,49.874209 96.1802899,49.2571416 C99.0313978,47.9619036 101.255254,47.0943883 103.391228,46.4426202 C105.55021,45.7833086 107.543986,45.2480894 109.48722,44.8067881 C109.794622,44.73965 110.109191,44.6702488 110.425268,44.599716 C111.206786,44.4258358 112.015462,44.246675 112.810558,44.0939169 C114.69797,43.7763308 116.724184,43.5277688 119.174349,43.3142846 C122.413575,43.0325307 125.067041,42.9499282 127.528144,43.0528985 C129.876093,43.1502111 132.968219,43.3354067 136.066758,43.904195 C142.535027,45.0606307 148.0049,46.6557273 152.79283,48.7818941 C153.110416,48.9335207 153.428002,49.0500695 153.735781,49.1628465 C153.96209,49.2458262 154.189529,49.3280516 154.421118,49.429136 C157.581137,50.8869389 161.289199,52.7596404 164.744173,55.5545484 C166.739081,57.1771791 168.783023,59.2377166 170.652707,61.5117382 C171.002353,61.9383294 171.353885,62.4988197 171.693725,63.0412054 C172.068265,63.6390366 172.456007,64.2572355 172.872414,64.7520964 L173.051575,64.9644491 L199.831018,64.9644491 L199.518713,64.1531337 C199.317675,63.631493 199.12305,63.1019315 198.925785,62.5674666 C198.419231,61.1907575 197.89495,59.7665237 197.23149,58.3690697 L197.046671,57.9734073 C196.05959,55.8623277 195.038939,53.6795838 193.804427,51.737481 C193.528708,51.3146616 193.271848,50.8925966 193.016497,50.4720402 C192.558222,49.7173019 192.084106,48.9365381 191.530405,48.209334 C191.345964,47.9615264 191.160014,47.7099469 190.974441,47.4591219 C190.102777,46.2785467 189.279392,45.1639781 188.300608,44.0660055 C185.654687,41.1247514 183.026492,38.2921254 179.955111,35.940744 C174.505606,31.7854212 168.330029,28.2919371 161.074961,25.2601974 C158.078638,23.9951715 154.967276,23.0057891 151.958129,22.0488443 L150.679864,21.6327765 C149.926635,21.3778778 149.215272,21.1368594 148.471849,20.9562277 C145.444598,20.1927011 139.606597,18.6904663 139.60622,18.6904663 C138.870718,18.4694762 133.542288,17.4431302 128.694763,17.4426775" id="path78" fill="#1D3C73"></path>
                        <polyline id="path80" fill="#1D3C73" points="72.8754343 73.6248921 71.9302198 73.6248921 71.9302198 74.8646846 72.8754343 74.8646846 72.8754343 73.6248921"></polyline>
                        <polyline id="path82" fill="#1D3C73" points="51.5545485 63.3206962 50.609334 63.3206962 50.609334 64.5608659 51.5545485 64.5608659 51.5545485 63.3206962"></polyline>
                    </g>
                </g>
            </g>
        </g>
    </g>
</svg>