<?xml version="1.0" encoding="UTF-8"?>
<svg width="200px" height="200px" viewBox="0 0 200 200" version="1.1" xmlns="http://www.w3.org/2000/svg" xmlns:xlink="http://www.w3.org/1999/xlink">
    <!-- Generator: Sketch 54.1 (76490) - https://sketchapp.com -->
    <title>christian-bros</title>
    <desc>Created with Sketch.</desc>
    <g id="christian-bros" stroke="none" stroke-width="1" fill="none" fill-rule="evenodd">
        <g id="christian-bros_BGL">
            <g id="christian-bros" transform="translate(0.000000, 13.000000)">
                <g id="g10" transform="translate(100.000000, 87.546163) scale(-1, 1) rotate(-180.000000) translate(-100.000000, -87.546163) translate(0.000000, 0.546163)">
                    <g id="g12">
                        <polygon id="Path" fill="#FFFFFF" points="52.5546875 105.32253 60.3974609 53.2717492 71.7314453 30.8508508 97.7158203 7.69850702 113.886719 7.69850702 140.256836 33.0783898 153.59082 53.2717492 156.77832 105.32253 104.666504 112.430929"></polygon>
                        <path d="M105.414186,50.6052465 L105.414186,46.4941485 C105.414186,46.4941485 107.895818,46.3611261 110.068802,47.2831864 C112.241785,48.2061018 113.551795,48.3157228 116.251892,48.3904361 C118.952767,48.4672485 123.413797,45.623478 124.2861,42.8541097 C125.159958,40.0871516 125.838675,38.2413207 125.592222,33.6272878 C125.343437,29.0130216 125.959958,26.2460635 125.959958,26.2460635 C128.11195,29.5672685 128.665497,35.2884734 128.665497,38.7949456 C128.665497,42.3014178 126.450531,47.8368112 123.86783,49.4973749 C121.284351,51.1588714 118.331581,52.6345565 118.331581,52.6345565 C119.069385,55.0337012 114.641008,59.4627779 113.903204,58.9100082 C113.903204,57.8021366 115.563068,53.9264515 114.456751,53.0038471 C113.34888,52.0814759 110.581144,51.3438277 109.842563,52.0814759 C109.104759,52.8195128 107.259084,50.7895808 107.259084,50.7895808 L105.414186,50.6052465" id="path14" fill="#B3A098" fill-rule="nonzero"></path>
                        <path d="M105.539356,103.198443 L105.539356,90.2149637 C106.52128,84.1912515 109.397082,78.2864898 115.894263,80.6849348 C122.391445,83.0833798 127.649365,91.2163243 132.40194,89.2734672 C137.154516,87.3282777 146.382115,84.3755081 146.382115,84.3755081 C142.320696,91.7582096 124.897956,100.430707 117.554905,101.906314 C110.211853,103.383477 105.539356,103.198443 105.539356,103.198443" id="path16" fill="#B3A098" fill-rule="nonzero"></path>
                        <path d="M126.613797,73.1848378 C122.920891,73.1957222 118.815935,74.1630302 115.981338,76.6545365 C119.90748,76.5293664 122.381338,79.2404256 125.666858,80.1780349 C126.0447,79.8950417 126.291153,79.4495607 126.291153,78.9434383 C126.291153,78.3090359 125.906314,77.7640408 125.358986,77.529172 C126.309812,76.4106492 127.720891,75.6951585 129.304564,75.6951585 C132.169482,75.6951585 134.493291,78.0190457 134.493291,80.883963 C134.493291,81.2929037 134.439647,81.6901826 134.35024,82.0719124 C135.188335,82.1994149 136.031095,82.3222526 136.901066,82.4186568 C136.978811,82.4264314 137.056556,82.432651 137.134302,82.441203 C137.558792,82.4862953 137.987169,82.525168 138.417101,82.5624858 C138.55471,82.5741476 138.690764,82.5858094 138.828374,82.5966938 C139.339938,82.6355664 139.85539,82.6713293 140.375507,82.6962078 C141.935857,81.9117569 143.669579,81.0814363 144.455584,80.6600563 C144.700482,80.5348862 144.922057,80.3622915 145.066663,80.0077725 C144.86297,80.0077725 144.645283,79.9587929 144.464136,80.0147696 C142.635565,80.5768687 142.107674,79.7100077 140.838092,78.4520874 C139.675021,77.2959359 135.65403,74.5711935 131.905925,73.7633412 C131.098928,73.4967523 130.09679,73.3287445 129.676965,73.2944588 C128.657723,73.2097163 127.636148,73.1808728 126.613797,73.1848378 L126.613797,73.1848378 Z M126.888238,97.0122425 C132.877742,94.8182678 137.709618,91.5809501 143.554515,86.0672476 C143.501649,86.0066062 143.450337,85.9451874 143.399802,85.8837685 C143.165788,85.9848375 142.932552,86.0905712 142.696206,86.1838657 C140.430706,87.0934866 137.527693,88.6336227 135.255973,89.5401338 C134.752183,89.7438267 134.237509,89.9288607 133.740716,90.1481027 C131.501649,91.1276945 129.215935,91.1471309 127.059278,90.1053427 C122.724973,88.0085498 120.020211,83.559959 115.619822,81.7391622 C113.874438,81.0153527 111.415352,81.6334285 109.876771,82.9138949 C109.744604,83.0235159 108.873855,83.9416889 109.096207,84.0979571 C110.620794,85.1576266 123.616712,94.8353718 126.888238,97.0122425 Z M107.24198,87.7488802 C106.300483,89.612437 105.962291,94.9877527 105.558015,95.1214748 L105.557237,95.1214748 C105.552573,95.1222522 105.546353,95.135469 105.540133,95.1346915 L105.540133,89.5401338 C105.540133,89.5401338 105.533914,88.0792981 105.540133,87.0040795 C105.540133,86.8345945 102.543826,84.6017472 101.201941,84.2192399 C100.041203,87.0919317 98.1356632,89.3131173 93.5409112,90.6674419 C88.3902796,92.1842543 81.1661787,93.1949442 72.6983072,87.7488802 C68.3315046,84.940717 67.4920877,78.3549057 67.4920877,78.3549057 C67.4920877,78.3549057 66.3897359,77.9241963 65.3677729,77.7095413 C63.3673842,77.2898717 63.0202511,77.3262566 61.8051685,77.302311 C61.7975495,77.297413 60.6158974,83.0818249 60.6158974,83.0818249 C60.6158974,83.0818249 60.2633221,84.7455761 60.2754504,86.3611251 C60.2727293,86.9753137 60.6893668,87.6796868 61.1242745,88.1896965 C62.6554698,89.999609 67.6585406,93.148297 75.89683,96.2791035 C84.1383847,99.4130199 97.6956244,101.967733 105.533914,101.920308 C105.537024,101.920308 105.538579,101.913311 105.540133,101.913311 L105.540133,101.920308 L105.557237,101.920308 L105.558015,101.920308 C115.601163,101.913311 122.595915,98.7941666 122.8999,98.6588897 C118.555488,95.5094242 111.668024,90.9527674 107.24198,87.7488802 L107.24198,87.7488802 Z M94.5951385,34.0005434 C104.33819,31.3253248 112.440814,32.8234005 111.744992,21.0122444 C111.271523,12.9750045 101.530027,12.0156265 95.3663727,16.258814 C93.5953329,17.4802717 89.1521844,21.8837701 89.1374127,22.5391637 C89.0099103,28.0530217 89.1195313,33.641282 89.1195313,34.6704753 C89.1195313,35.3926522 95.1261395,37.2181915 95.8227381,37.4492508 C98.0757993,38.1914859 100.639065,38.7320496 102.976091,38.0329631 C103.360153,37.92031 104.501455,37.8365005 105.540133,37.8365005 C105.820794,37.8240613 109.58989,37.6800768 110.393778,37.9357814 C113.282796,38.8516997 116.244118,37.8999407 118.797276,36.7999991 C118.888238,36.7611264 119.091153,36.5473266 118.892903,36.4182693 C118.446644,35.8840807 117.389307,36.0265103 116.345964,35.845208 C114.715643,35.5575501 112.353739,35.786899 106.955877,35.786899 C106.474633,35.786899 105.786586,35.7021565 105.544021,35.7015346 C105.542466,35.7015346 105.542466,35.7006016 105.540133,35.7006016 C104.50301,35.7006016 97.7920287,35.3258689 96.4104932,35.5661021 C95.6680248,35.6966366 94.537607,35.7139738 94.0283747,35.1084151 C93.6349831,34.6440419 94.0097158,34.1611653 94.5951385,34.0005434 L94.5951385,34.0005434 Z M126.372009,27.7885319 C126.372009,30.8199798 126.354127,34.7157231 126.354127,37.8993188 C126.354127,40.2480845 125.617878,42.3542069 124.209132,44.4767336 C121.778034,48.1492699 116.118948,50.1497364 111.7792,49.1420785 C109.362096,48.5778025 107.982893,47.2287646 105.540133,47.0982301 C105.22682,47.083303 104.899511,47.0842359 104.546547,47.1152564 C104.113506,47.1486091 103.29096,47.3539347 102.949657,47.6181135 C101.325556,48.8833418 99.772981,49.512302 97.7212804,49.7694837 C95.9650122,49.9893476 94.8073834,51.0079676 93.8511152,52.2868014 C92.567539,54.0005429 92.8334282,55.3477148 93.7026216,57.2011648 C93.0822134,57.0253047 92.42371,56.4370831 92.0909598,55.8500278 C91.1727868,54.229814 91.2870725,51.6648384 92.769677,50.0689589 C93.795916,48.9665294 94.2328451,48.1975498 95.7854203,48.1492699 C90.092126,48.32513 84.4936811,44.2650329 84.4936811,36.6654218 C84.4936811,34.9456162 84.5558774,26.4115834 84.5558774,26.4115834 C82.2211836,28.5899313 80.0287638,30.6590469 77.3193372,33.6118165 C68.12649,43.6230893 67.9218642,46.5710387 65.5250518,60.8008537 C64.4688031,67.066354 62.9743813,72.6187737 62.9743813,72.6187737 C62.9743813,72.6187737 66.6776271,73.0642547 68.4208341,73.5884141 C70.0914268,69.1350809 79.9168104,60.1196486 84.2565577,60.2247604 C91.7970823,60.4105719 98.796499,71.3025444 99.915255,74.7655569 C100.726139,77.2779767 101.648977,79.5467424 101.648977,79.5467424 L105.417296,81.7391622 L105.540133,49.6607956 C106.045478,49.6474234 107.651698,49.8782495 108.187364,50.3252854 C110.01127,51.8431085 111.405245,50.5515245 113.658306,51.3313884 C114.278714,51.5467431 114.953544,52.036539 115.277743,52.5713495 C115.707674,53.0317577 115.993,53.6078509 116.063748,54.2368111 C116.176479,55.2809316 115.172786,56.5962279 114.964429,57.5440219 C115.724001,57.3418061 116.24023,56.6235166 116.581533,56.0061405 C116.999803,55.2496002 117.273466,54.398366 117.352767,53.5471318 C117.373758,53.3518354 117.362874,53.1584049 117.341882,52.9616313 C117.324778,52.7727101 117.205828,52.3326712 117.289016,52.1695614 C117.532359,51.7155283 118.260833,51.6019423 118.724195,51.42616 C119.300289,51.2087062 119.868607,50.9651299 120.455585,50.7707665 C129.889987,47.64789 128.598636,33.7478709 126.372009,27.7885319 L126.372009,27.7885319 Z M174.570258,143.784642 C171.157236,147.13158 171.269967,147.669578 167.672688,147.13158 C168.235564,148.539549 169.445282,150.389112 168.86297,151.670356 C167.234981,155.241979 163.196886,157.407188 158.239063,160.150045 C136.056751,172.42604 120.235566,173.319335 113.490376,173.355098 C109.537801,173.504369 100.231679,172.944602 96.3778402,172.349072 C85.2726898,170.601356 74.3109019,165.243145 73.4305132,164.909617 C66.9390848,162.448976 53.9392018,152.411269 53.8818257,152.411269 C48.7035168,148.216128 44.0512331,143.55918 39.6021759,138.724972 C38.5860437,137.779588 30.7513306,129.761707 26.5145183,123.401357 C22.2783279,117.03712 3.6397589,91.8242931 0.507167334,83.3795898 C-0.780190457,79.8841574 0.603133901,77.5494636 2.20723804,76.684313 C5.1132749,75.496208 19.4962094,72.1717377 33.9355482,70.5973938 C35.6037309,70.4154696 38.9838669,70.1542451 43.371272,70.0710575 C41.6181136,63.8654211 41.0672099,59.073429 40.617997,51.1416119 L40.0935267,41.8704751 L47.0633224,43.3919523 C47.0587355,43.2558978 47.0532933,43.1192215 47.0480843,42.983167 L46.642098,33.0287261 L56.1689393,35.9563062 C56.8170248,36.1561896 57.4884339,36.345966 58.1541676,36.5272683 C60.5572774,31.90204 64.0011646,27.4769284 69.1742645,22.2864912 C72.4398816,19.007191 75.1721653,16.5627984 77.862,14.1560346 L77.8783265,14.1426624 C78.7218639,13.3870551 79.5988318,12.549815 80.4462565,11.7395527 L80.7463537,11.4525945 C85.4149639,6.97613199 90.7055371,1.9023362 99.1067031,0.402696977 C100.590862,0.135143242 102.410882,0 104.517782,0 C104.976479,0 105.330998,0.00546647217 105.533914,0.011540369 C107.598831,0.011540369 111.320503,0.0573979383 113.303787,0.361394743 C122.881241,1.83248198 127.646255,7.23973548 131.479103,11.5886489 C132.363845,12.5956848 133.164623,13.5003301 134.037703,14.4108062 C138.34713,18.9085321 140.721474,21.3869771 144.693485,26.384528 C145.602329,27.5258302 146.59436,28.628182 147.496206,29.6303977 C149.871328,32.2813597 152.48435,35.1968116 154.185419,39.1642361 C154.735079,39.0002711 155.255973,38.8523217 155.747324,38.7226424 L166.190861,35.9712333 L164.512338,46.6372 C164.47502,46.8725353 164.424486,47.1556062 164.35918,47.486957 L169.981726,45.5114469 L168.47813,56.8917381 C167.765982,62.3083366 166.310589,69.8930983 163.392027,75.9727095 C163.406021,79.1222526 163.267634,82.0244877 162.977644,84.6934867 C175.50709,89.5090357 184.046643,94.3393562 188.235564,97.3201142 C193.034009,100.734691 199.11292,107.195333 199.062386,107.787752 C198.540714,113.888433 180.023319,138.42954 174.570258,143.784642 L174.570258,143.784642 Z" id="path18" fill="#231F20" fill-rule="nonzero"></path>
                        <path d="M116.345964,35.845208 C117.389307,36.0265103 118.446644,35.8840807 118.892903,36.4182693 C119.091153,36.5473266 118.888238,36.7611264 118.797276,36.7999991 C116.244118,37.8999407 113.282796,38.8516997 110.393778,37.9357814 C109.589113,37.6791439 105.815352,37.8240613 105.539356,37.8365005 C106.235177,37.8176861 106.647228,36.3274626 105.539356,35.7015346 C105.777257,35.7015346 106.473078,35.786899 106.955877,35.786899 C112.353739,35.786899 114.715643,35.5575501 116.345964,35.845208" id="path20" fill="#C6B6B0" fill-rule="nonzero"></path>
                        <path d="M158.644894,53.9039831 C159.245088,53.6497557 159.860832,53.3980162 160.498344,53.1717771 L165.061998,51.5676566 L164.427596,56.3593378 C163.794748,61.1865485 162.347907,69.1639244 159.29951,75.0282586 C159.650919,80.3490748 159.17434,84.9399396 158.017489,88.9041766 L154.510395,86.9869755 C155.008742,83.8429522 154.903786,80.4773546 154.478519,76.9758581 C158.262387,72.6126318 160.451697,63.8243716 161.486488,55.9751201 C159.090375,56.8154699 156.846643,58.1505136 154.326138,58.6613008 C154.839258,56.8473455 157.186391,47.8040027 157.544797,45.5447996 C153.82157,46.5266461 148.971036,48.4702806 148.971036,48.4702806 C148.971036,39.9875597 143.793194,36.5837892 139.172786,30.7756649 C135.423126,26.0531772 133.149073,23.6780558 128.919725,19.2629733 C123.807188,13.9374146 120.940716,8.66954303 112.236343,7.33296775 C110.539161,7.07392013 106.160542,7.06389875 105.502038,7.06389875 L105.417296,7.06389875 C105.417296,7.06389875 105.067441,7.05144394 104.517004,7.05144394 C103.479881,7.05144394 101.739939,7.09517572 100.357626,7.34298913 C92.5457703,8.73935838 87.9564604,14.5912533 82.5842545,19.3950627 C79.9898911,21.717395 77.3071312,24.1144406 74.1694053,27.2621956 C67.3065095,34.1487261 64.1827778,39.0654995 62.2533706,44.9592992 C60.656014,44.3771417 57.3123406,43.6868405 54.0929044,42.697686 C54.2325351,46.1613205 54.1265681,49.5247412 54.3889588,51.923886 C52.3451105,51.5600376 50.7659463,51.417608 47.6585411,50.741301 C48.2015148,60.2869567 48.838405,64.6040023 51.582817,72.7353918 C50.8351396,72.6469953 49.7919521,72.6187737 48.4724575,72.7781517 C45.8272486,64.7206203 45.2138375,60.0777439 44.6944984,50.9101639 L44.4743235,47.0064906 L48.2920105,47.8392214 C49.4600571,48.0949259 50.4011649,48.2689201 51.2378607,48.4104944 C51.2272096,47.8532155 51.2208345,47.2801543 51.2132154,46.6985411 C51.1974331,45.4367336 51.1804846,44.1299114 51.1282397,42.8167142 L50.9572776,38.6279485 L54.9677732,39.8609125 C56.4883951,40.3273848 58.0667041,40.7306501 59.461534,41.0899893 C59.7919519,41.174654 60.1129625,41.2554314 60.420601,41.3356647 C62.6527487,35.899863 66.1081422,31.1470546 72.067248,25.1670353 C75.2356833,21.9870937 77.9304159,19.5733328 80.537996,17.2409714 L80.6033022,17.1841395 C81.599998,16.2906896 82.600581,15.3268023 83.5723983,14.3999219 C88.0303185,10.1247811 92.642952,5.70426419 99.8297351,4.42146539 C101.390862,4.13994159 103.240425,4.08406598 104.517004,4.08406598 C104.992806,4.08406598 105.334108,4.0901379 105.466275,4.09499698 L105.502038,4.09499698 C106.720308,4.09499698 110.841591,4.11655578 112.684157,4.39807958 C120.794555,5.64109607 124.667052,10.0345964 128.41127,14.2826819 C129.255585,15.24447 130.129443,16.2357236 131.060832,17.2051308 C135.298733,21.6286875 137.633427,24.0637506 141.498927,28.9267243 C142.453641,30.1263355 143.458111,31.2482014 144.434593,32.3326717 C147.409909,35.6532547 150.471522,39.0609903 151.540521,44.3318939 C153.156847,43.7612428 155.071716,43.1262186 156.787557,42.6712526 L161.184836,41.5130019 L160.47813,46.0058298 C160.258888,47.4061796 159.425458,50.8330405 158.644894,53.9039831" id="path22" fill="#E51636" fill-rule="nonzero"></path>
                        <path d="M103.650143,165.341104 C100.039648,165.145185 89.5937781,163.133135 88.1966936,162.763844 C79.1992206,160.385613 75.5420778,157.061221 63.3640412,149.719724 C43.1972778,137.561901 5.71033611,83.299512 4.59821174,81.212826 C3.80284539,79.7714266 5.47497751,78.3354694 3.90640223,78.847034 C3.56991245,78.9582099 2.10702424,79.1704548 2.09092317,80.1539339 C1.51147907,86.4792981 39.322137,137.219822 53.2364613,148.010881 C62.0344397,156.765011 79.96579,165.704952 90.6239044,168.110394 C100.285323,170.292707 112.3654,170.603689 115.722446,170.330025 C132.699705,169.669189 157.351211,159.020404 166.033038,149.868218 C165.516031,147.893485 164.995914,145.91642 163.823514,144.512338 C136.585419,166.333912 118.057917,166.036925 103.650143,165.341104" id="path24" fill="#E51636"></path>
                        <path d="M112.9275,170.022153 C107.9137,170.022153 98.5368294,169.499704 90.7102018,167.730997 C80.2472283,165.36987 62.3967331,156.577644 53.5106692,147.735662 C47.2503778,142.876576 35.1074821,128.930609 22.5394747,112.174924 C10.4758792,96.0909597 2.22637118,82.9387734 2.47813405,80.1896967 C2.48754901,79.6765772 3.15233423,79.4433411 3.80132158,79.2785209 C3.89698727,79.2544198 3.97533906,79.2334285 4.02878901,79.2155471 C4.08406598,79.1976657 4.13204266,79.1836715 4.17304557,79.1720097 C4.16423702,79.2062177 4.15512526,79.2412031 4.1472341,79.2730787 C4.01937405,79.7620971 3.80527104,80.5799785 4.25777249,81.4001923 C5.45280453,83.6423691 43.1996879,138.017489 63.1629916,150.052474 C66.055664,151.796303 68.4621169,153.310006 70.5848768,154.645672 C77.4179961,158.944214 81.1817278,161.312338 88.0971795,163.140132 C89.5416887,163.521862 100.015547,165.533135 103.629152,165.729053 L103.631484,165.729053 C116.482796,166.350239 135.867052,167.286293 163.758985,145.061998 C164.681823,146.333913 165.156847,148.060638 165.602328,149.756264 C157.256361,158.382115 133.286683,169.257139 115.706897,169.942075 C115.088044,169.991832 114.134108,170.022153 112.9275,170.022153 L112.9275,170.022153 Z M4.39200766,78.3517959 C4.19643138,78.3517959 3.98445082,78.4124373 3.7861379,78.476966 C3.74331575,78.4917376 3.68288426,78.5065092 3.60969476,78.5251681 C3.04482791,78.6682196 1.7210262,79.0048571 1.70219626,80.1477142 C1.0905578,86.8143807 39.4414762,137.804467 52.9980939,148.317975 C61.9418449,157.221376 79.9727871,166.104563 90.5383845,168.489792 C100.330415,170.702425 112.541883,170.981531 115.754322,170.717974 C133.598442,170.023708 158.011269,158.889792 166.315253,150.136439 L166.463747,149.979394 L166.409325,149.770259 C165.890764,147.788529 165.353543,145.738383 164.121279,144.262776 L163.877158,143.971231 L163.580171,144.209131 C135.753544,166.50262 117.210493,165.608548 103.66958,164.952377 C100.093292,164.758791 89.7267227,162.766954 88.2962077,162.388334 C81.4950417,160.590861 77.7671506,158.245283 70.9991819,153.987168 C68.8730012,152.649948 66.4635163,151.133913 63.5647798,149.386974 C43.712652,137.41885 6.13398624,83.2676364 4.94138763,81.0293469 C4.63617481,80.4765772 4.7819474,79.9183653 4.89917189,79.4697745 C4.99514079,79.1020388 5.08594739,78.754517 4.82295032,78.5072867 C4.70207957,78.393001 4.55266072,78.3517959 4.39200766,78.3517959 L4.39200766,78.3517959 Z" id="path26" fill="#E51636" fill-rule="nonzero"></path>
                        <path d="M194.759956,107.466664 C193.51603,106.463749 192.158596,104.996693 190.850918,104.640619 C185.172396,120.101066 174.718752,131.385808 164.843533,143.17434 C165.823903,144.496789 169.391638,146.028373 170.791832,144.809326 C171.202328,144.454807 183.420015,129.610881 184.900287,127.552183 C186.967537,124.678714 193.303785,116.023321 195.270743,109.401747 C195.680462,108.836538 195.470549,108.026431 194.759956,107.466664" id="path28" fill="#E51636"></path>
                        <path d="M165.352766,143.172008 C166.347906,141.986391 167.348489,140.805439 168.348295,139.623709 C177.01224,129.393194 185.970063,118.81749 191.083377,105.132748 C191.875603,105.46783 192.716808,106.208744 193.532357,106.927111 C193.865884,107.220989 194.194747,107.510201 194.515836,107.769094 L194.518946,107.771426 C195.054611,108.193583 195.238868,108.783671 194.956652,109.173953 L194.897566,109.291348 C193.01535,115.626042 187.053834,123.899705 184.808547,127.014185 L184.584641,127.324389 C183.124582,129.355876 171.116031,143.960346 170.531385,144.52089 C170.115448,144.882406 169.44606,144.894846 168.956264,144.842756 C167.573174,144.692708 166.053251,143.888821 165.352766,143.172008 Z M190.60913,104.171815 L190.486293,104.506897 C185.44295,118.235177 176.450919,128.853641 167.755098,139.121474 C166.682989,140.387169 165.61088,141.652863 164.545768,142.924778 L164.348295,143.159569 L164.531774,143.406022 C165.290569,144.430706 167.279296,145.442173 168.872299,145.615545 C169.796692,145.715837 170.546157,145.538578 171.046837,145.102426 C171.501648,144.709812 183.693679,129.896207 185.215933,127.778422 L185.439062,127.468996 C187.698343,124.334302 193.68707,116.024876 195.625262,109.572009 C196.108839,108.837315 195.853834,107.835177 195.002522,107.16268 C194.689985,106.910784 194.371229,106.629346 194.047031,106.344021 C193.047225,105.46472 192.013989,104.555099 190.952765,104.265887 L190.60913,104.171815 L190.60913,104.171815 Z" id="path30" fill="#E51636" fill-rule="nonzero"></path>
                        <path d="M114.700872,112.138384 C113.707286,112.138384 112.646839,113.041785 112.866858,114.109229 C113.104759,115.27541 114.518948,115.803301 115.465886,115.082602 C116.370065,116.386392 116.395721,118.172981 115.567733,119.523418 C116.241008,119.640813 116.831873,120.348296 117.233816,120.837315 C118.281824,122.108452 118.949657,123.914477 120.75646,124.257334 C121.661416,124.429929 122.736634,124.084739 123.185225,123.224875 C123.577062,122.474633 123.299511,121.438287 122.596693,120.971037 C121.839453,120.468802 120.880852,120.830318 120.483573,121.604662 C119.944798,120.95782 119.485323,120.231678 119.105148,119.482213 C118.592028,118.468413 118.35024,117.393972 118.062582,116.303982 C117.613991,114.611465 116.849754,112.138384 114.700872,112.138384" id="path32" fill="#E51636"></path>
                        <path d="M129.233816,117.900872 C129.233816,119.01885 128.327305,119.924584 127.209326,119.924584 C126.091348,119.924584 125.185614,119.01885 125.185614,117.900872 C125.185614,117.063554 125.694069,116.344409 126.418656,116.036537 C126.418656,116.036537 125.518364,115.521863 124.643729,116.593194 C124.643729,116.593194 124.643729,114.878909 126.938772,114.878909 C129.368316,115.404467 129.233816,116.942271 129.233816,117.900872" id="path34" fill="#E51636"></path>
                        <path d="M124.400386,116.593194 L118.81438,116.593194 C118.777062,116.638287 118.742077,116.687266 118.714866,116.744798 C118.958986,117.683185 119.196887,118.605245 119.641591,119.482213 C119.683573,119.563068 119.727888,119.642368 119.772203,119.722446 L120.861416,119.722446 C120.957043,119.504759 120.972592,119.049948 120.617295,118.098345 C120.965595,119.032844 121.435954,119.496207 121.769482,119.722446 L122.824487,119.722446 C122.920114,119.504759 122.937218,119.049948 122.580366,118.098345 C122.93022,119.032844 123.399803,119.496207 123.732553,119.722446 L125.147519,119.722446 C125.173952,119.661805 125.154516,119.584059 125.052669,119.482213 C125.052669,119.482213 124.092514,118.250726 124.400386,116.593194" id="path36" fill="#E51636" fill-rule="nonzero"></path>
                        <path d="M78.6915432,146.865691 C83.3609309,125.085322 115.501649,117.236149 115.501649,117.236149 C115.501649,117.236149 115.827402,119.01885 114.040813,119.722446 C114.040813,119.722446 85.7889191,128.525556 78.6915432,146.865691" id="path38" fill="#E51636" fill-rule="nonzero"></path>
                        <path d="M114.594361,120.210687 C114.594361,120.210687 105.191057,122.702426 95.8266254,128.330415 C88.8225439,132.757237 81.7687054,138.913894 78.6915432,146.865691 C90.6068005,127.330609 116.62196,121.270357 116.62196,121.270357 C116.62196,121.270357 116.330415,119.823515 114.594361,120.210687" id="path40" fill="#FFFFFF" fill-rule="nonzero"></path>
                        <path d="M96.3646234,112.138384 C97.357432,112.138384 98.4171015,113.041785 98.198637,114.109229 C97.9599587,115.27541 96.5457702,115.803301 95.5988314,115.082602 C94.6946526,116.386392 94.6689967,118.172981 95.4977624,119.523418 C94.82371,119.640813 94.2328451,120.348296 93.8309014,120.837315 C92.7821162,122.108452 92.1158383,123.914477 90.3082582,124.257334 C89.4033019,124.429929 88.3280833,124.084739 87.8794925,123.224875 C87.4884332,122.474633 87.7659842,121.438287 88.4672475,120.971037 C89.225265,120.468802 90.1830881,120.830318 90.5819219,121.604662 C91.1191425,120.95782 91.5793952,120.231678 91.9595701,119.482213 C92.4734671,118.468413 92.7137003,117.393972 93.0021357,116.303982 C93.451504,114.611465 94.2149636,112.138384 96.3646234,112.138384" id="path42" fill="#E51636"></path>
                        <path d="M81.8309017,117.900872 C81.8309017,119.01885 82.7374129,119.924584 83.854614,119.924584 C84.9733701,119.924584 85.8791038,119.01885 85.8791038,117.900872 C85.8791038,117.063554 85.3698715,116.344409 84.6452846,116.036537 C84.6452846,116.036537 85.5463535,115.521863 86.4209891,116.593194 C86.4209891,116.593194 86.4209891,114.878909 84.1259454,114.878909 C81.6964022,115.404467 81.8309017,116.942271 81.8309017,117.900872" id="path44" fill="#E51636"></path>
                        <path d="M86.6643321,116.593194 L92.2503378,116.593194 C92.2876556,116.638287 92.3218636,116.687266 92.3498519,116.744798 C92.1072863,117.683185 91.8670531,118.605245 91.4223495,119.482213 C91.3811445,119.563068 91.3368296,119.642368 91.2932922,119.722446 L90.2033019,119.722446 C90.1076751,119.504759 90.092126,119.049948 90.4474224,118.098345 C90.0991231,119.032844 89.6287636,119.496207 89.2952359,119.722446 L88.2394536,119.722446 C88.1438268,119.504759 88.1282777,119.049948 88.4835741,118.098345 C88.1352748,119.032844 87.6649152,119.496207 87.3313875,119.722446 L85.917199,119.722446 C85.8907656,119.661805 85.9102019,119.584059 86.0120484,119.482213 C86.0120484,119.482213 86.9722039,118.250726 86.6643321,116.593194" id="path46" fill="#E51636" fill-rule="nonzero"></path>
                        <path d="M132.373175,146.865691 C125.977062,136.379394 115.520308,129.777256 107.20233,125.909423 C107.887266,125.614768 108.553544,125.340327 109.193389,125.083768 C111.144798,126.021377 113.192611,127.10126 115.238092,128.330415 C122.242174,132.757237 129.295235,138.913894 132.373175,146.865691" id="path48" fill="#FFFFFF" fill-rule="nonzero"></path>
                        <path d="M132.373175,146.865691 C128.426819,136.670939 117.945964,129.423515 109.413408,124.996693 C110.44198,124.590084 111.405245,124.231678 112.287655,123.921474 C120.885517,128.608743 130.0447,136.005439 132.373175,146.865691" id="path50" fill="#E51636" fill-rule="nonzero"></path>
                        <path d="M94.3416886,121.270357 C94.3416886,121.270357 94.6332338,119.823515 96.3669558,120.210687 C96.3669558,120.210687 98.0750218,120.663165 100.758015,121.616323 C100.097179,121.918753 99.4246817,122.237509 98.7428547,122.573369 C96.0310958,121.664526 94.3416886,121.270357 94.3416886,121.270357" id="path52" fill="#FFFFFF" fill-rule="nonzero"></path>
                        <path d="M96.9212804,119.722446 C95.1346915,119.01885 95.4604446,117.236149 95.4604446,117.236149 C95.4604446,117.236149 98.9426603,118.085906 103.781533,120.003107 C102.917782,120.392611 102.031484,120.809326 101.130415,121.257917 C98.5547109,120.231678 96.9212804,119.722446 96.9212804,119.722446" id="path54" fill="#E51636" fill-rule="nonzero"></path>
                    </g>
                </g>
            </g>
        </g>
    </g>
</svg>