<?xml version="1.0" encoding="UTF-8"?>
<svg width="200px" height="200px" viewBox="0 0 200 200" version="1.1" xmlns="http://www.w3.org/2000/svg" xmlns:xlink="http://www.w3.org/1999/xlink">
    <!-- Generator: Sketch 54.1 (76490) - https://sketchapp.com -->
    <title>clark-ma</title>
    <desc>Created with Sketch.</desc>
    <g id="clark-ma" stroke="none" stroke-width="1" fill="none" fill-rule="evenodd">
        <g id="clark-ma_BGL">
            <g id="clark-ma" transform="translate(0.000000, 2.000000)">
                <g id="Group" fill="#FFFFFF" fill-rule="nonzero">
                    <g id="Shape">
                        <path d="M184,11.5151515 C183.878788,11.5151515 183.636364,11.6363636 183.515152,11.6363636 L183.515152,11.6363636 L180.606061,12.3636364 C179.151515,11.2727273 178.545455,9.57575758 176.727273,8.84848485 C171.030303,5.93939394 166.060606,8.36363636 160,7.15151515 C154.787879,6.42424242 150.666667,4.24242424 145.454545,4.72727273 C140,5.09090909 134.060606,5.93939394 130.666667,10.7878788 C126.787879,6.06060606 120.969697,3.27272727 114.787879,3.27272727 C112.121212,4.72727273 111.515152,4.36363636 108.969697,2.90909091 C106.909091,4.72727273 108.121212,9.93939394 108.121212,12.4848485 C102.787879,12.4848485 97.5757576,12.4848485 92.2424242,12.4848485 C91.6363636,15.030303 91.2727273,17.6969697 90.7878788,20.2424242 C86.9090909,15.5151515 81.5757576,12.8484848 75.6363636,11.5151515 C61.0909091,8.60606061 45.5757576,10.4242424 32.969697,18.4242424 C19.1515152,27.1515152 10.3030303,41.3333333 5.93939394,56.969697 C2.90909091,68.3636364 1.6969697,81.2121212 4.36363636,92.7272727 C6.54545455,102.424242 12.4848485,110.909091 21.0909091,115.757576 C31.8787879,122.060606 45.9393939,123.272727 58.0606061,122.424242 C72.969697,121.454545 87.6363636,116.484848 97.9393939,105.333333 C104,98.6666667 107.636364,90.5454545 109.454545,81.6969697 C98.4242424,81.6969697 87.2727273,81.5757576 76.2424242,81.6969697 C75.3939394,89.8181818 68.8484848,98.1818182 60.969697,100.606061 C53.5757576,102.666667 44.4848485,100.969697 40.4848485,93.9393939 C36.2424242,86.4242424 37.0909091,75.7575758 38.5454545,67.6363636 C40.3636364,57.5757576 43.8787879,46.5454545 51.030303,39.030303 C56.8484848,32.7272727 65.9393939,30.0606061 74.1818182,32.3636364 C77.9393939,33.4545455 81.0909091,36.3636364 82.3030303,40.1212121 C84.1212121,45.0909091 83.5151515,49.8181818 82.6666667,54.7878788 C87.2727273,54.7878788 91.8787879,54.9090909 96.4848485,54.6666667 C94.3030303,56.7272727 91.7575758,56.2424242 89.0909091,57.6969697 C80.3636364,60.7272727 74.4242424,66.7878788 68,72.969697 C58.9090909,79.1515152 52.2424242,88.4848485 50.6666667,99.6363636 C51.7575758,99.8787879 52.8484848,100 53.9393939,99.8787879 L53.9393939,99.8787879 C56.3636364,99.8787879 58.5454545,99.6363636 60.8484848,100.606061 C68.8484848,98.1818182 75.2727273,89.8181818 76.2424242,81.6969697 L74.4242424,81.2121212 C74.4242424,78.6666667 78.1818182,79.6363636 80,79.3939394 C89.3333333,79.2727273 98.5454545,80.2424242 107.878788,80.2424242 C109.333333,80.1212121 110.424242,80.4848485 111.272727,81.4545455 C112.848485,81.5757576 114.30303,81.5757576 115.878788,81.5757576 C114.30303,81.5757576 112.848485,81.5757576 111.272727,81.4545455 C110.787879,82.7878788 110.424242,84.1212121 110.181818,85.4545455 L110.181818,85.4545455 C106.545455,100.727273 95.2727273,112.969697 80.8484848,118.787879 C79.5151515,119.272727 78.0606061,119.878788 76.7272727,120.363636 C75.3939394,129.090909 73.6969697,137.818182 72.2424242,146.545455 C70.5454545,157.454545 69.3333333,170.30303 75.8787879,180 C81.3333333,187.878788 91.3939394,190.909091 100.606061,191.757576 C110.545455,192.969697 121.212121,192.969697 131.151515,191.515152 C142.787879,189.939394 153.818182,184.969697 160.727273,175.030303 C169.212121,163.151515 170.909091,148.484848 173.454545,134.545455 C175.030303,124.242424 177.212121,114.060606 178.666667,103.878788 C181.333333,103.636364 184,103.878788 186.787879,103.757576 C188.727273,96.7272727 189.69697,88.969697 190.787879,81.5757576 C187.757576,81.4545455 184.727273,81.5757576 181.69697,81.5757576 C181.454545,78.5454545 181.090909,75.7575758 180.121212,72.8484848 C178.545455,72.969697 178.666667,76.1212121 177.69697,77.2121212 C176.727273,72 174.666667,68.2424242 177.575758,63.1515152 C178.545455,63.030303 179.515152,63.030303 180.484848,63.2727273 C181.090909,64.969697 180,66.9090909 180.121212,68.7272727 C185.090909,67.3939394 186.909091,60.3636364 189.333333,56.8484848 C191.151515,53.8181818 192,51.3939394 192.606061,48 L192.848485,47.2727273 L194.181818,46.1818182 C194.181818,43.3939394 194.787879,39.8787879 193.090909,37.3333333 C191.878788,36.2424242 190.545455,35.3939394 189.575758,34.1818182 C189.818182,32.1212121 191.515152,31.3939394 192.484848,29.6969697 C193.212121,27.7575758 192.121212,25.8181818 191.515152,24.1212121 C194.30303,20.7272727 198.30303,14.5454545 197.333333,10.1818182 C192.606061,8.36363636 188.363636,9.57575758 184,11.5151515 Z M160.727273,28.6060606 C159.757576,28.2424242 158.909091,27.8787879 157.939394,27.3939394 C158.909091,27.8787879 159.757576,28.2424242 160.727273,28.6060606 Z M114.060606,105.69697 C124.121212,105.818182 134.181818,105.69697 144.242424,105.69697 L147.393939,105.090909 L147.515152,103.878788 L147.515152,103.878788 L147.393939,105.090909 L144.242424,105.69697 C134.181818,105.575758 124.121212,105.818182 114.060606,105.69697 L114.060606,105.575758 L114.060606,105.69697 Z M119.757576,103.878788 C120.727273,103.878788 121.69697,103.878788 122.666667,103.878788 C121.818182,103.878788 120.727273,103.878788 119.757576,103.878788 Z M121.212121,37.5757576 C121.333333,36.4848485 121.212121,35.3939394 121.090909,34.3030303 C121.212121,35.5151515 121.333333,36.4848485 121.212121,37.5757576 C120,39.2727273 118.787879,40.4848485 118.787879,42.5454545 C118.787879,40.6060606 120,39.3939394 121.212121,37.5757576 Z M184.121212,32.4848485 C184.242424,32.969697 184.242424,33.3333333 184.121212,33.6969697 C184,34.0606061 183.757576,34.3030303 183.515152,34.4242424 C183.878788,34.3030303 184,33.9393939 184.121212,33.6969697 C184.242424,33.4545455 184.121212,32.969697 184.121212,32.4848485 C183.272727,32.3636364 182.545455,32.1212121 181.69697,32 C182.424242,32.1212121 183.272727,32.2424242 184.121212,32.4848485 Z M140.484848,81.5757576 C142.545455,81.5757576 144.606061,81.4545455 146.666667,81.5757576 L146.666667,81.5757576 C144.606061,81.5757576 142.545455,81.5757576 140.484848,81.5757576 Z M140.848485,70.0606061 C140.484848,69.4545455 140.121212,68.7272727 139.636364,68.2424242 C140.121212,68.7272727 140.484848,69.3333333 140.848485,70.0606061 Z M134.424242,62.7878788 C134.060606,62.5454545 133.69697,62.1818182 133.333333,61.9393939 C133.818182,62.3030303 134.060606,62.5454545 134.424242,62.7878788 Z M138.424242,66.5454545 C137.939394,66.0606061 137.454545,65.5757576 136.969697,65.0909091 C137.454545,65.4545455 137.939394,65.9393939 138.424242,66.5454545 Z M139.515152,87.030303 C138.909091,89.8181818 138.424242,92.8484848 137.939394,95.6363636 C138.424242,92.8484848 138.909091,89.8181818 139.515152,87.030303 Z M136.727273,103.878788 C136.848485,102.181818 137.090909,100.363636 137.333333,98.5454545 C137.090909,100.363636 136.969697,102.181818 136.727273,103.878788 L136.727273,103.878788 Z M180.242424,34.5454545 L180.242424,34.5454545 C180.848485,35.030303 181.454545,35.5151515 182.060606,35.7575758 C181.454545,35.5151515 180.848485,35.1515152 180.242424,34.5454545 Z M144.484848,100 C143.272727,100 142.060606,100.121212 141.212121,100 L141.212121,100 C142.181818,100.121212 143.272727,100 144.484848,100 C144.969697,100 145.454545,100 145.939394,99.8787879 C145.575758,100 144.969697,100 144.484848,100 Z M183.272727,38.3030303 L184.363636,36.3636364 L183.272727,38.3030303 C184.363636,39.1515152 186.060606,39.6363636 187.393939,40.4848485 C186.060606,39.7575758 184.363636,39.1515152 183.272727,38.3030303 Z M183.515152,17.3333333 C183.757576,17.6969697 183.878788,18.0606061 184.121212,18.4242424 C183.878788,18.0606061 183.636364,17.6969697 183.515152,17.3333333 L183.515152,17.3333333 Z M176.484848,31.3939394 C176,31.3939394 175.515152,31.3939394 175.151515,31.2727273 C175.515152,31.3939394 176,31.3939394 176.484848,31.3939394 Z M173.818182,31.5151515 L173.818182,31.5151515 C172.363636,31.5151515 170.909091,31.2727273 169.454545,31.030303 C170.909091,31.2727273 172.363636,31.3939394 173.818182,31.5151515 Z M165.090909,30.0606061 C164.121212,29.8181818 163.151515,29.4545455 162.181818,29.0909091 C163.151515,29.4545455 164.121212,29.8181818 165.090909,30.0606061 C166.060606,30.3030303 167.030303,30.5454545 168,30.7878788 C167.030303,30.5454545 166.060606,30.3030303 165.090909,30.0606061 Z M153.939394,25.4545455 C154.787879,25.9393939 155.636364,26.3030303 156.606061,26.7878788 C155.636364,26.3030303 154.787879,25.9393939 153.939394,25.4545455 Z M143.030303,30.6666667 C141.939394,30.5454545 140.969697,30.4242424 139.878788,30.0606061 C140.969697,30.4242424 141.939394,30.6666667 143.030303,30.6666667 L143.030303,30.6666667 Z M122.424242,99.8787879 C123.272727,96.3636364 123.878788,92.7272727 124.484848,89.0909091 C123.878788,92.7272727 123.272727,96.3636364 122.424242,99.8787879 C121.454545,99.8787879 120.484848,100 119.515152,100 C120.484848,100 121.454545,99.8787879 122.424242,99.8787879 Z M146.787879,108.848485 C144,123.272727 141.939394,137.818182 138.909091,152.121212 C137.090909,159.393939 134.424242,166.424242 126.909091,169.333333 C121.333333,171.030303 113.333333,171.757576 108.484848,167.878788 C104.121212,164 105.333333,156.969697 105.575758,151.757576 C107.878788,137.454545 110.787879,123.030303 112.969697,108.727273 C124.121212,108.484848 135.515152,108.727273 146.787879,108.848485 Z M151.878788,100.606061 C151.636364,100.484848 151.272727,100.242424 150.909091,100.242424 C150.545455,100.121212 150.060606,100.121212 149.69697,100 C149.333333,99.8787879 148.848485,99.8787879 148.363636,99.8787879 C148.848485,99.8787879 149.333333,99.8787879 149.69697,100 C150.060606,100.121212 150.545455,100.121212 150.909091,100.242424 C151.272727,100.242424 151.636364,100.363636 151.878788,100.606061 L151.878788,100.606061 Z M189.939394,44.6060606 C189.69697,44.3636364 189.575758,44.1212121 189.454545,43.8787879 C189.575758,44.2424242 189.818182,44.4848485 189.939394,44.6060606 C190.181818,44.8484848 190.424242,44.969697 190.666667,45.0909091 C190.424242,44.969697 190.181818,44.8484848 189.939394,44.6060606 Z M179.757576,14.3030303 C179.878788,14.3030303 180.121212,14.4242424 180.363636,14.3030303 C180.121212,14.4242424 179.878788,14.4242424 179.757576,14.3030303 C179.393939,13.9393939 179.030303,13.5757576 178.666667,13.2121212 C179.030303,13.5757576 179.393939,13.9393939 179.757576,14.3030303 Z M174.060606,9.81818182 C172.727273,9.21212121 171.272727,8.96969697 169.69697,9.09090909 C171.393939,8.96969697 172.848485,9.33333333 174.060606,9.81818182 Z M165.69697,9.33333333 C164.363636,9.33333333 163.030303,9.21212121 161.69697,8.96969697 C162.909091,9.21212121 164.242424,9.33333333 165.69697,9.33333333 Z M157.575758,8.36363636 C156.242424,8.12121212 154.909091,7.87878788 153.575758,7.63636364 C154.909091,7.87878788 156.242424,8.12121212 157.575758,8.36363636 Z M151.636364,7.27272727 C150.30303,7.03030303 148.969697,6.90909091 147.636364,6.78787879 C148.969697,6.78787879 150.30303,7.03030303 151.636364,7.27272727 Z M125.333333,7.87878788 C124.606061,7.39393939 123.878788,6.90909091 123.151515,6.54545455 C123.878788,6.90909091 124.606061,7.39393939 125.333333,7.87878788 Z M97.2121212,56.3636364 C97.2121212,56.3636364 97.2121212,56.3636364 97.2121212,56.3636364 C97.2121212,56.3636364 97.2121212,56.3636364 97.2121212,56.3636364 L101.69697,56.1212121 L97.2121212,56.3636364 Z M100.969697,54.6666667 C102.30303,54.6666667 103.515152,54.6666667 104.848485,54.6666667 C103.515152,54.6666667 102.30303,54.6666667 100.969697,54.6666667 Z M103.151515,142.787879 C103.272727,141.818182 103.515152,140.969697 103.636364,140 C104.848485,133.333333 105.939394,126.666667 107.151515,120 C108.363636,113.333333 109.454545,106.666667 110.666667,100 C111.636364,100 112.606061,99.8787879 113.575758,99.8787879 C112.606061,99.8787879 111.636364,99.8787879 110.666667,100 C109.454545,106.666667 108.242424,113.333333 107.151515,120 C105.939394,126.666667 104.848485,133.333333 103.636364,140 C103.515152,140.969697 103.393939,141.939394 103.151515,142.787879 C102.30303,147.393939 101.454545,152.121212 101.333333,156.848485 C101.454545,152.242424 102.30303,147.393939 103.151515,142.787879 Z M74.6666667,163.393939 C74.6666667,162.424242 74.6666667,161.333333 74.6666667,160.242424 C74.5454545,161.333333 74.5454545,162.424242 74.6666667,163.393939 C74.7878788,165.454545 74.9090909,167.515152 75.3939394,169.454545 C74.9090909,167.515152 74.6666667,165.454545 74.6666667,163.393939 Z M92.969697,186.666667 C94.7878788,187.151515 96.4848485,187.515152 98.3030303,187.757576 C96.4848485,187.515152 94.6666667,187.151515 92.969697,186.666667 Z M109.090909,188.848485 C107.393939,188.727273 105.575758,188.606061 103.757576,188.363636 C102.545455,188.242424 101.333333,188.121212 100.121212,188 C101.333333,188.121212 102.545455,188.242424 103.757576,188.363636 C105.575758,188.606061 107.393939,188.727273 109.090909,188.848485 C113.090909,188.969697 117.333333,188.969697 121.69697,188.727273 C117.333333,189.090909 113.090909,188.969697 109.090909,188.848485 Z M148.606061,181.333333 C144.484848,184 139.636364,185.818182 134.666667,187.030303 C139.757576,185.939394 144.484848,184.121212 148.606061,181.333333 C149.939394,180.484848 151.272727,179.393939 152.363636,178.424242 C151.272727,179.515152 149.939394,180.484848 148.606061,181.333333 Z M158.424242,171.393939 C157.212121,173.333333 155.757576,175.151515 154.181818,176.848485 C155.757576,175.151515 157.090909,173.333333 158.424242,171.393939 C159.272727,170.060606 160,168.727273 160.727273,167.393939 C160,168.848485 159.272727,170.181818 158.424242,171.393939 Z M175.515152,100.363636 C172.363636,116.727273 169.818182,133.454545 166.545455,149.69697 C165.939394,152.727273 165.090909,155.878788 164.121212,158.787879 C165.090909,155.757576 165.818182,152.727273 166.545455,149.69697 C169.69697,133.333333 172.363636,116.727273 175.515152,100.363636 C176,100 176.727273,99.8787879 177.454545,99.8787879 C176.727273,99.8787879 176,100 175.515152,100.363636 Z M183.878788,99.3939394 C183.272727,99.8787879 182.545455,100.121212 181.575758,100.121212 C181.212121,100.121212 180.848485,100.121212 180.363636,100.121212 C180.727273,100.121212 181.090909,100.121212 181.575758,100.121212 C182.545455,100 183.272727,99.8787879 183.878788,99.3939394 C184.484848,94.7878788 185.575758,90.1818182 186.181818,85.5757576 L186.181818,85.5757576 C185.575758,90.1818182 184.484848,94.6666667 183.878788,99.3939394 Z"></path>
                        <path d="M108.969697,3.03030303 C110.424242,3.87878788 111.151515,4.24242424 112.121212,4.24242424 C112.848485,4.24242424 113.575758,4 114.787879,3.27272727 C114.909091,3.27272727 114.909091,3.27272727 115.030303,3.27272727 C121.090909,3.27272727 126.909091,6.06060606 130.666667,10.7878788 C134.060606,5.93939394 139.878788,5.09090909 145.454545,4.72727273 C145.939394,4.72727273 146.424242,4.60606061 146.909091,4.60606061 C151.515152,4.60606061 155.272727,6.42424242 160,7.15151515 C161.454545,7.39393939 162.787879,7.51515152 164,7.51515152 C165.939394,7.51515152 167.878788,7.27272727 169.818182,7.27272727 C172.121212,7.27272727 174.30303,7.51515152 176.727273,8.84848485 C178.545455,9.57575758 179.151515,11.2727273 180.606061,12.3636364 L183.515152,11.6363636 C183.636364,11.5151515 183.878788,11.5151515 184,11.5151515 C186.787879,10.3030303 189.575758,9.33333333 192.484848,9.33333333 C194.060606,9.33333333 195.636364,9.57575758 197.212121,10.3030303 C198.060606,14.6666667 194.060606,20.8484848 191.393939,24.2424242 C191.878788,26.0606061 193.090909,28 192.363636,29.8181818 C191.393939,31.3939394 189.69697,32.1212121 189.454545,34.3030303 C190.424242,35.5151515 191.878788,36.3636364 192.969697,37.4545455 C194.666667,39.8787879 193.939394,43.3939394 194.060606,46.3030303 L192.727273,47.3939394 L192.484848,48.1212121 C191.878788,51.5151515 191.030303,54.0606061 189.212121,56.969697 C186.787879,60.3636364 184.969697,67.5151515 180,68.8484848 C180,67.030303 181.090909,64.969697 180.363636,63.3939394 C179.757576,63.2727273 179.151515,63.1515152 178.545455,63.1515152 C178.181818,63.1515152 177.818182,63.1515152 177.454545,63.2727273 C174.545455,68.2424242 176.606061,72.1212121 177.575758,77.3333333 C178.545455,76.2424242 178.424242,73.0909091 180,72.969697 C180.969697,75.7575758 181.333333,78.6666667 181.575758,81.6969697 C182.545455,81.6969697 183.515152,81.6969697 184.484848,81.6969697 C185.575758,81.6969697 186.787879,81.6969697 187.878788,81.6969697 C188.727273,81.6969697 189.69697,81.6969697 190.545455,81.6969697 C189.454545,88.969697 188.484848,96.7272727 186.545455,103.878788 C185.939394,103.878788 185.333333,103.878788 184.727273,103.878788 C183.757576,103.878788 182.666667,103.878788 181.69697,103.878788 C180.606061,103.878788 179.636364,103.878788 178.545455,104 C177.090909,114.30303 174.909091,124.484848 173.333333,134.666667 C170.787879,148.484848 169.090909,163.272727 160.606061,175.151515 C153.69697,185.090909 142.666667,190.060606 131.030303,191.636364 C125.69697,192.363636 120.242424,192.727273 114.787879,192.727273 C109.939394,192.727273 105.090909,192.484848 100.484848,191.878788 C91.3939394,191.030303 81.3333333,188.121212 75.7575758,180.121212 C69.2121212,170.545455 70.5454545,157.575758 72.1212121,146.666667 C73.5757576,137.939394 75.3939394,129.212121 76.6060606,120.484848 C77.9393939,120 79.3939394,119.393939 80.7272727,118.909091 C95.1515152,113.090909 106.424242,100.727273 110.060606,85.5757576 C110.424242,84.2424242 110.787879,82.9090909 111.151515,81.5757576 C112.727273,81.6969697 114.181818,81.6969697 115.757576,81.6969697 C114.181818,81.6969697 112.727273,81.6969697 111.151515,81.5757576 C110.424242,80.7272727 109.454545,80.3636364 108.242424,80.3636364 C108.121212,80.3636364 108,80.3636364 107.878788,80.3636364 C107.757576,80.3636364 107.515152,80.3636364 107.393939,80.3636364 C98.6666667,80.3636364 90.0606061,79.5151515 81.4545455,79.5151515 C80.969697,79.5151515 80.4848485,79.5151515 80,79.5151515 C79.7575758,79.5151515 79.3939394,79.5151515 79.1515152,79.5151515 C78.6666667,79.5151515 78.0606061,79.5151515 77.4545455,79.5151515 C76,79.5151515 74.5454545,79.7575758 74.5454545,81.3333333 L76.4848485,81.9393939 C75.6363636,90.0606061 69.0909091,98.4242424 61.0909091,100.848485 C59.6363636,100.242424 58.1818182,100.121212 56.7272727,100.121212 C55.8787879,100.121212 55.030303,100.121212 54.1818182,100.121212 L54.1818182,100.121212 C54.1818182,100.121212 54.0606061,100.121212 54.0606061,100.121212 C53.0909091,100.121212 52,100 51.030303,99.7575758 C52.6060606,88.7272727 59.2727273,79.3939394 68.3636364,73.0909091 C74.7878788,66.7878788 80.7272727,60.8484848 89.4545455,57.8181818 C92,56.3636364 94.6666667,56.8484848 96.8484848,54.7878788 C94.6666667,54.9090909 92.4848485,55.030303 90.1818182,55.030303 C88.2424242,55.030303 86.3030303,55.030303 84.2424242,55.030303 C83.7575758,55.030303 83.3939394,55.030303 82.9090909,55.030303 C83.7575758,49.9393939 84.2424242,45.2121212 82.5454545,40.3636364 C81.2121212,36.6060606 78.1818182,33.6969697 74.4242424,32.6060606 C72.3636364,32 70.3030303,31.7575758 68.3636364,31.7575758 C61.9393939,31.7575758 55.7575758,34.4242424 51.3939394,39.2727273 C44.2424242,46.7878788 40.7272727,57.9393939 38.9090909,67.8787879 C37.4545455,76.1212121 36.6060606,86.7878788 40.8484848,94.1818182 C43.8787879,99.3939394 49.5757576,101.69697 55.3939394,101.69697 C57.4545455,101.69697 59.5151515,101.454545 61.3333333,100.848485 C69.3333333,98.4242424 75.7575758,90.0606061 76.6060606,81.9393939 C81.9393939,81.9393939 87.1515152,81.8181818 92.4848485,81.8181818 C98.3030303,81.8181818 104,81.8181818 109.818182,81.8181818 C108,90.5454545 104.363636,98.7878788 98.3030303,105.454545 C88,116.606061 73.3333333,121.575758 58.4242424,122.545455 C56.3636364,122.666667 54.1818182,122.787879 52,122.787879 C41.4545455,122.787879 30.4242424,121.090909 21.4545455,115.878788 C12.8484848,110.909091 6.90909091,102.424242 4.72727273,92.8484848 C1.6969697,81.2121212 3.03030303,68.3636364 5.93939394,56.969697 C10.1818182,41.3333333 19.1515152,27.1515152 33.0909091,18.5454545 C42.0606061,12.969697 52.3636364,10.3030303 62.7878788,10.3030303 C67.1515152,10.3030303 71.5151515,10.7878788 75.7575758,11.6363636 C81.6969697,12.8484848 87.030303,15.5151515 90.9090909,20.3636364 C91.3939394,17.8181818 91.7575758,15.1515152 92.3636364,12.6060606 C93.9393939,12.6060606 95.5151515,12.6060606 97.0909091,12.6060606 C99.6363636,12.6060606 102.181818,12.6060606 104.848485,12.6060606 C106.060606,12.6060606 107.151515,12.6060606 108.363636,12.6060606 C108.121212,9.93939394 106.909091,4.84848485 108.969697,3.03030303 L108.969697,3.03030303 Z M125.333333,7.87878788 C124.606061,7.39393939 123.878788,6.90909091 123.151515,6.54545455 C123.878788,6.90909091 124.606061,7.39393939 125.333333,7.87878788 L125.333333,7.87878788 Z M151.636364,7.27272727 C150.30303,7.03030303 148.969697,6.90909091 147.636364,6.78787879 C148.969697,6.78787879 150.30303,7.03030303 151.636364,7.27272727 L151.636364,7.27272727 Z M157.575758,8.36363636 C157.575758,8.36363636 157.575758,8.36363636 157.575758,8.36363636 C157.575758,8.36363636 157.575758,8.36363636 157.575758,8.36363636 C156.242424,8.12121212 154.909091,7.87878788 153.575758,7.63636364 C154.909091,7.87878788 156.242424,8.12121212 157.575758,8.36363636 L157.575758,8.36363636 Z M165.69697,9.33333333 C164.363636,9.33333333 163.030303,9.21212121 161.69697,8.96969697 C162.909091,9.21212121 164.242424,9.33333333 165.69697,9.33333333 L165.69697,9.33333333 Z M170.545455,9.09090909 L170.545455,9.09090909 C170.30303,9.09090909 170.060606,9.09090909 169.818182,9.09090909 C169.818182,9.09090909 169.818182,9.09090909 169.818182,9.09090909 C169.818182,9.09090909 169.818182,9.09090909 169.818182,9.09090909 C169.939394,9.09090909 170.30303,9.09090909 170.545455,9.09090909 C171.878788,9.09090909 173.090909,9.33333333 174.060606,9.81818182 C174.060606,9.81818182 174.060606,9.81818182 174.060606,9.81818182 C174.060606,9.81818182 174.060606,9.81818182 174.060606,9.81818182 C174.060606,9.81818182 174.060606,9.81818182 174.060606,9.81818182 C174.060606,9.81818182 174.060606,9.81818182 174.060606,9.81818182 C174.060606,9.81818182 174.060606,9.81818182 174.060606,9.81818182 C174.060606,9.81818182 174.060606,9.81818182 174.060606,9.81818182 C172.969697,9.33333333 171.757576,9.09090909 170.545455,9.09090909 L170.545455,9.09090909 L170.545455,9.09090909 Z M178.666667,13.2121212 C179.030303,13.5757576 179.393939,13.9393939 179.636364,14.3030303 C179.757576,14.3030303 179.878788,14.3030303 180,14.3030303 L180,14.3030303 C180,14.3030303 180,14.3030303 180,14.3030303 C180,14.3030303 180.121212,14.3030303 180.121212,14.3030303 C180.121212,14.3030303 180,14.3030303 180,14.3030303 C179.878788,14.3030303 179.636364,14.3030303 179.636364,14.3030303 C179.393939,13.9393939 179.030303,13.5757576 178.666667,13.2121212 C178.666667,13.2121212 178.666667,13.2121212 178.666667,13.2121212 C178.666667,13.2121212 178.666667,13.2121212 178.666667,13.2121212 L178.666667,13.2121212 Z M184.121212,18.4242424 C183.878788,18.0606061 183.636364,17.6969697 183.515152,17.3333333 C183.636364,17.6969697 183.878788,18.0606061 184.121212,18.4242424 L184.121212,18.4242424 Z M156.606061,26.7878788 C155.757576,26.3030303 154.787879,25.9393939 153.939394,25.4545455 C154.787879,25.9393939 155.636364,26.3030303 156.606061,26.7878788 L156.606061,26.7878788 Z M160.727273,28.6060606 C159.757576,28.2424242 158.909091,27.8787879 157.939394,27.3939394 C158.909091,27.8787879 159.757576,28.2424242 160.727273,28.6060606 L160.727273,28.6060606 Z M168,30.7878788 C167.030303,30.5454545 166.060606,30.3030303 165.090909,30.0606061 C164.121212,29.8181818 163.151515,29.4545455 162.181818,29.0909091 C163.151515,29.4545455 164.121212,29.6969697 165.090909,30.0606061 C166.060606,30.3030303 167.030303,30.5454545 168,30.7878788 L168,30.7878788 Z M139.878788,30.0606061 C140.848485,30.4242424 141.939394,30.5454545 142.909091,30.6666667 L142.909091,30.6666667 C141.939394,30.6666667 140.969697,30.4242424 139.878788,30.0606061 C139.878788,30.0606061 139.878788,30.0606061 139.878788,30.0606061 C139.878788,30.0606061 139.878788,30.0606061 139.878788,30.0606061 L139.878788,30.0606061 Z M173.69697,31.5151515 C173.69697,31.5151515 173.69697,31.5151515 173.69697,31.5151515 C173.69697,31.5151515 173.69697,31.5151515 173.69697,31.5151515 C172.242424,31.5151515 170.909091,31.2727273 169.454545,31.030303 C170.787879,31.2727273 172.242424,31.3939394 173.69697,31.5151515 L173.69697,31.5151515 Z M175.151515,31.2727273 C175.151515,31.2727273 175.151515,31.2727273 175.151515,31.2727273 C175.515152,31.3939394 175.878788,31.3939394 176.242424,31.3939394 C176.242424,31.3939394 176.242424,31.3939394 176.242424,31.3939394 L176.242424,31.3939394 L176.242424,31.3939394 C176.242424,31.3939394 176.242424,31.3939394 176.242424,31.3939394 C176.363636,31.3939394 176.363636,31.3939394 176.484848,31.3939394 C176.484848,31.3939394 176.484848,31.3939394 176.484848,31.3939394 C176.484848,31.3939394 176.484848,31.3939394 176.484848,31.3939394 C176.363636,31.3939394 176.363636,31.3939394 176.242424,31.3939394 C176.242424,31.3939394 176.242424,31.3939394 176.242424,31.3939394 C176.242424,31.3939394 176.242424,31.3939394 176.242424,31.3939394 C175.878788,31.3939394 175.515152,31.2727273 175.151515,31.2727273 C175.151515,31.2727273 175.151515,31.2727273 175.151515,31.2727273 C175.151515,31.2727273 175.151515,31.2727273 175.151515,31.2727273 C175.151515,31.2727273 175.151515,31.2727273 175.151515,31.2727273 L175.151515,31.2727273 Z M183.393939,34.4242424 C183.757576,34.3030303 183.878788,33.9393939 184,33.6969697 C184.121212,33.3333333 184.121212,32.969697 184,32.4848485 C183.151515,32.3636364 182.424242,32.1212121 181.575758,32 C182.424242,32.1212121 183.151515,32.3636364 184,32.4848485 C184.121212,32.969697 184.121212,33.3333333 184,33.6969697 C183.878788,33.9393939 183.636364,34.3030303 183.393939,34.4242424 L183.393939,34.4242424 Z M118.787879,42.4242424 C118.787879,42.4242424 118.787879,42.5454545 118.787879,42.5454545 C118.787879,42.5454545 118.787879,42.5454545 118.787879,42.4242424 C118.787879,40.4848485 120,39.2727273 121.212121,37.5757576 C121.333333,36.4848485 121.212121,35.3939394 121.090909,34.3030303 C121.212121,35.3939394 121.212121,36.4848485 121.212121,37.5757576 C120,39.2727273 118.787879,40.4848485 118.787879,42.4242424 L118.787879,42.4242424 Z M182.060606,35.7575758 C181.333333,35.5151515 180.727273,35.030303 180.242424,34.5454545 L180.242424,34.5454545 C180.848485,35.1515152 181.454545,35.5151515 182.060606,35.7575758 L182.060606,35.7575758 Z M187.272727,40.6060606 C187.272727,40.6060606 187.393939,40.6060606 187.272727,40.6060606 C187.393939,40.6060606 187.272727,40.6060606 187.272727,40.6060606 C185.939394,39.7575758 184.242424,39.2727273 183.151515,38.4242424 L184.242424,36.4848485 L183.151515,38.4242424 C184.363636,39.1515152 186.060606,39.7575758 187.272727,40.6060606 L187.272727,40.6060606 Z M190.666667,45.2121212 C190.30303,45.0909091 190.060606,44.8484848 189.939394,44.7272727 C189.69697,44.4848485 189.575758,44.2424242 189.454545,44 C189.575758,44.3636364 189.69697,44.6060606 189.939394,44.7272727 C190.181818,44.8484848 190.424242,44.969697 190.666667,45.2121212 L190.666667,45.2121212 Z M104.727273,54.6666667 C104.727273,54.6666667 104.848485,54.6666667 104.727273,54.6666667 C104.848485,54.6666667 104.727273,54.6666667 104.727273,54.6666667 C103.515152,54.6666667 102.181818,54.6666667 100.969697,54.6666667 C102.181818,54.6666667 103.515152,54.6666667 104.727273,54.6666667 L104.727273,54.6666667 Z M97.2121212,56.3636364 C97.2121212,56.3636364 97.2121212,56.3636364 97.2121212,56.3636364 C97.2121212,56.3636364 97.2121212,56.3636364 97.2121212,56.3636364 L101.69697,56.1212121 L97.2121212,56.3636364 L97.2121212,56.3636364 Z M134.424242,62.7878788 C134.060606,62.5454545 133.69697,62.1818182 133.333333,61.9393939 C133.818182,62.3030303 134.060606,62.5454545 134.424242,62.7878788 L134.424242,62.7878788 Z M138.424242,66.5454545 C137.939394,66.0606061 137.454545,65.5757576 136.969697,65.0909091 C137.454545,65.4545455 137.939394,65.9393939 138.424242,66.5454545 L138.424242,66.5454545 Z M140.848485,70.0606061 C140.484848,69.4545455 140.121212,68.7272727 139.636364,68.2424242 C140.121212,68.7272727 140.484848,69.3333333 140.848485,70.0606061 L140.848485,70.0606061 Z M140.484848,81.5757576 C141.939394,81.5757576 143.515152,81.5757576 144.969697,81.5757576 C145.575758,81.5757576 146.060606,81.5757576 146.666667,81.5757576 L146.666667,81.5757576 C146.060606,81.5757576 145.575758,81.5757576 144.969697,81.5757576 C143.515152,81.5757576 142.060606,81.5757576 140.484848,81.5757576 L140.484848,81.5757576 Z M186.181818,85.4545455 C185.818182,87.7575758 185.454545,90.0606061 185.090909,92.3636364 C184.727273,94.6666667 184.242424,96.969697 184,99.2727273 C183.393939,99.7575758 182.666667,100 181.69697,100 C181.69697,100 181.69697,100 181.69697,100 C181.575758,100 181.575758,100 181.454545,100 C181.212121,100 180.848485,100 180.606061,100 C180.969697,100 181.212121,100 181.454545,100 C181.575758,100 181.575758,100 181.69697,100 C181.69697,100 181.69697,100 181.69697,100 C182.666667,100 183.393939,99.7575758 184,99.2727273 C184.363636,96.969697 184.727273,94.6666667 185.090909,92.3636364 C185.454545,90.0606061 185.818182,87.7575758 186.181818,85.4545455 L186.181818,85.4545455 Z M137.939394,95.6363636 C138.424242,92.7272727 139.030303,89.8181818 139.515152,87.030303 C138.909091,89.8181818 138.424242,92.8484848 137.939394,95.6363636 L137.939394,95.6363636 Z M119.515152,100 C120.484848,100 121.454545,100 122.424242,99.8787879 C123.272727,96.3636364 123.878788,92.7272727 124.484848,89.0909091 C123.878788,92.7272727 123.272727,96.3636364 122.424242,99.8787879 C121.454545,99.8787879 120.484848,100 119.515152,100 L119.515152,100 Z M136.727273,103.878788 C136.848485,102.181818 137.090909,100.363636 137.333333,98.5454545 C137.090909,100.363636 136.969697,102.181818 136.727273,103.878788 L136.727273,103.878788 Z M150.909091,100.121212 C151.272727,100.242424 151.636364,100.363636 151.878788,100.484848 L151.878788,100.484848 C151.636364,100.363636 151.272727,100.242424 150.909091,100.121212 C150.909091,100.121212 150.909091,100.121212 150.909091,100.121212 C150.545455,100 150.060606,100 149.69697,99.8787879 C149.212121,99.8787879 148.848485,99.7575758 148.363636,99.7575758 C148.848485,99.7575758 149.333333,99.7575758 149.69697,99.8787879 C150.060606,100 150.545455,100 150.909091,100.121212 C150.909091,100.121212 150.909091,100.121212 150.909091,100.121212 L150.909091,100.121212 Z M164.121212,158.787879 C165.090909,155.757576 165.818182,152.727273 166.545455,149.69697 C169.69697,133.333333 172.363636,116.727273 175.515152,100.363636 C176,100 176.727273,99.8787879 177.454545,99.8787879 C176.727273,99.8787879 176,100 175.515152,100.363636 C172.363636,116.727273 169.818182,133.454545 166.545455,149.69697 C165.939394,152.727273 165.090909,155.878788 164.121212,158.787879 L164.121212,158.787879 Z M144.484848,100 C144.484848,100 144.484848,100 144.484848,100 C144.484848,100 144.484848,100 144.484848,100 C144.484848,100 144.484848,100 144.484848,100 C144.484848,100 144.484848,100 144.484848,100 C144.484848,100 144.484848,100 144.484848,100 C144.484848,100 144.484848,100 144.484848,100 C144.484848,100 144.484848,100 144.484848,100 L144.484848,100 C144.363636,100 144.363636,100 144.363636,100 C143.878788,100 143.393939,100 142.909091,100 C142.30303,100 141.69697,100 141.212121,99.8787879 L141.212121,99.8787879 C141.69697,100 142.30303,100 142.909091,100 C143.393939,100 143.878788,100 144.363636,100 C144.363636,100 144.363636,100 144.484848,100 L144.484848,100 C144.484848,100 144.484848,100 144.484848,100 C144.484848,100 144.484848,100 144.484848,100 C144.484848,100 144.484848,100 144.484848,100 C144.484848,100 144.484848,100 144.484848,100 C144.484848,100 144.484848,100 144.484848,100 C144.484848,100 144.484848,100 144.484848,100 C144.484848,100 144.484848,100 144.484848,100 C144.969697,100 145.454545,100 145.939394,99.8787879 C145.575758,100 144.969697,100 144.484848,100 L144.484848,100 Z M103.151515,142.787879 C103.030303,143.515152 102.909091,144.121212 102.787879,144.848485 C102.060606,148.848485 101.454545,152.848485 101.333333,156.848485 C101.454545,152.848485 102.060606,148.848485 102.787879,144.848485 C102.909091,144.121212 103.030303,143.515152 103.151515,142.787879 C103.272727,141.818182 103.515152,140.969697 103.636364,140 C104.848485,133.333333 105.939394,126.666667 107.151515,120 C108.363636,113.333333 109.454545,106.666667 110.666667,100 C111.636364,100 112.606061,99.8787879 113.575758,99.8787879 C112.606061,99.8787879 111.636364,99.8787879 110.666667,100 C109.454545,106.666667 108.242424,113.333333 107.151515,120 C105.939394,126.666667 104.848485,133.333333 103.636364,140 C103.515152,140.969697 103.393939,141.939394 103.151515,142.787879 L103.151515,142.787879 Z M122.060606,103.878788 C122.30303,103.878788 122.545455,103.878788 122.787879,103.878788 C122.787879,103.878788 122.787879,103.878788 122.787879,103.878788 C122.787879,103.878788 122.787879,103.878788 122.787879,103.878788 C122.424242,103.878788 122.30303,103.878788 122.060606,103.878788 C121.333333,103.878788 120.606061,103.878788 119.878788,103.878788 C120.484848,103.878788 121.333333,103.878788 122.060606,103.878788 L122.060606,103.878788 Z M147.636364,103.878788 L147.515152,105.090909 L144.363636,105.69697 C143.272727,105.69697 142.181818,105.69697 141.090909,105.69697 C135.030303,105.69697 128.969697,105.818182 122.787879,105.818182 C119.878788,105.818182 116.969697,105.818182 114.181818,105.818182 L114.181818,105.69697 L114.181818,105.818182 C117.090909,105.818182 120,105.818182 122.787879,105.818182 C128.848485,105.818182 134.909091,105.69697 141.090909,105.69697 C142.181818,105.69697 143.272727,105.69697 144.363636,105.69697 L147.515152,105.090909 L147.636364,103.878788 L147.636364,103.878788 Z M118.181818,170.666667 C121.212121,170.666667 124.363636,170.060606 126.909091,169.333333 C134.545455,166.424242 137.090909,159.393939 138.909091,152.121212 C141.939394,137.818182 144,123.272727 146.787879,108.848485 C138.424242,108.727273 130.060606,108.606061 121.575758,108.606061 C118.666667,108.606061 115.757576,108.606061 112.848485,108.606061 C110.666667,122.909091 107.757576,137.333333 105.454545,151.636364 C105.212121,156.848485 104,164 108.363636,167.757576 C111.030303,169.939394 114.545455,170.666667 118.181818,170.666667 L118.181818,170.666667 Z M74.5454545,160.363636 C74.5454545,160.363636 74.5454545,160.363636 74.5454545,160.363636 C74.5454545,161.454545 74.5454545,162.424242 74.5454545,163.515152 C74.5454545,163.515152 74.5454545,163.636364 74.5454545,163.636364 C74.6666667,165.69697 74.7878788,167.636364 75.2727273,169.575758 C74.9090909,167.636364 74.6666667,165.69697 74.5454545,163.636364 C74.5454545,163.636364 74.5454545,163.515152 74.5454545,163.515152 C74.5454545,162.424242 74.5454545,161.333333 74.5454545,160.363636 C74.5454545,160.363636 74.5454545,160.363636 74.5454545,160.363636 L74.5454545,160.363636 Z M158.424242,171.393939 C157.212121,173.333333 155.757576,175.030303 154.181818,176.727273 C154.181818,176.727273 154.181818,176.727273 154.060606,176.848485 C154.060606,176.848485 154.060606,176.848485 154.181818,176.727273 C155.757576,175.151515 157.212121,173.333333 158.424242,171.393939 C159.272727,170.060606 160,168.727273 160.727273,167.393939 C160,168.848485 159.272727,170.181818 158.424242,171.393939 L158.424242,171.393939 Z M134.666667,187.030303 C139.757576,185.818182 144.484848,184.121212 148.606061,181.333333 C149.939394,180.484848 151.272727,179.393939 152.363636,178.424242 C151.151515,179.515152 149.939394,180.484848 148.606061,181.333333 C144.484848,184.121212 139.757576,185.939394 134.666667,187.030303 L134.666667,187.030303 Z M98.3030303,187.757576 C96.4848485,187.515152 94.6666667,187.151515 92.969697,186.666667 C94.6666667,187.151515 96.4848485,187.515152 98.3030303,187.757576 L98.3030303,187.757576 Z M114.545455,188.969697 C116.484848,188.969697 118.424242,188.969697 120.484848,188.848485 C120.606061,188.848485 120.727273,188.848485 120.848485,188.848485 C120.848485,188.848485 120.848485,188.848485 120.848485,188.848485 C120.969697,188.848485 120.969697,188.848485 121.090909,188.848485 C121.090909,188.848485 121.090909,188.848485 121.090909,188.848485 C121.212121,188.848485 121.333333,188.848485 121.454545,188.848485 C121.454545,188.848485 121.454545,188.848485 121.454545,188.848485 C121.454545,188.848485 121.454545,188.848485 121.454545,188.848485 C121.454545,188.848485 121.454545,188.848485 121.454545,188.848485 C121.454545,188.848485 121.454545,188.848485 121.454545,188.848485 C121.454545,188.848485 121.454545,188.848485 121.454545,188.848485 C121.454545,188.848485 121.454545,188.848485 121.454545,188.848485 C121.454545,188.848485 121.454545,188.848485 121.454545,188.848485 C121.454545,188.848485 121.454545,188.848485 121.454545,188.848485 C121.454545,188.848485 121.454545,188.848485 121.454545,188.848485 C121.454545,188.848485 121.454545,188.848485 121.454545,188.848485 C121.333333,188.848485 121.212121,188.848485 121.090909,188.848485 C121.090909,188.848485 121.090909,188.848485 121.090909,188.848485 C120.969697,188.848485 120.969697,188.848485 120.848485,188.848485 C120.848485,188.848485 120.848485,188.848485 120.848485,188.848485 C120.727273,188.848485 120.606061,188.848485 120.484848,188.848485 C118.545455,188.969697 116.484848,188.969697 114.545455,188.969697 C112.606061,188.969697 110.787879,188.969697 109.090909,188.848485 C107.393939,188.727273 105.575758,188.606061 103.757576,188.363636 C102.545455,188.242424 101.333333,188.121212 100.121212,188 C101.333333,188.121212 102.545455,188.242424 103.757576,188.363636 C105.575758,188.484848 107.393939,188.606061 109.090909,188.848485 C110.909091,188.969697 112.727273,188.969697 114.545455,188.969697 L114.545455,188.969697 Z M108.727273,0 L107.393939,1.21212121 C105.090909,3.39393939 105.333333,7.03030303 105.575758,10.1818182 C105.333333,10.1818182 104.969697,10.1818182 104.727273,10.1818182 C103.393939,10.1818182 102.181818,10.1818182 100.848485,10.1818182 C99.5151515,10.1818182 98.3030303,10.1818182 96.969697,10.1818182 C95.3939394,10.1818182 93.8181818,10.1818182 92.2424242,10.1818182 L90.3030303,10.1818182 L89.9393939,12.1212121 C89.6969697,13.2121212 89.4545455,14.3030303 89.3333333,15.3939394 C85.8181818,12.4848485 81.4545455,10.4242424 76.2424242,9.33333333 C71.7575758,8.48484848 67.2727273,8 62.7878788,8 C51.5151515,8 40.7272727,10.9090909 31.7575758,16.6060606 C18.4242424,24.8484848 8.36363636,39.030303 3.63636364,56.3636364 C1.21212121,65.8181818 -1.09090909,79.8787879 2.06060606,93.3333333 C4.48484848,103.878788 11.030303,112.848485 20,117.939394 C28.2424242,122.787879 38.9090909,125.212121 51.7575758,125.212121 C53.9393939,125.212121 56.1212121,125.090909 58.3030303,124.969697 C63.7575758,124.606061 68.969697,123.757576 73.8181818,122.424242 C73.0909091,127.151515 72.2424242,131.757576 71.3939394,136.363636 C70.7878788,139.636364 70.1818182,143.030303 69.5757576,146.30303 C67.6363636,158.787879 66.7878788,171.515152 73.5757576,181.454545 C80,190.666667 91.5151515,193.454545 100,194.181818 C104.727273,194.787879 109.69697,195.030303 114.545455,195.030303 C120.242424,195.030303 125.818182,194.666667 131.151515,193.818182 C140.727273,192.484848 153.939394,188.484848 162.30303,176.363636 C169.939394,165.575758 172.242424,152.727273 174.424242,140.242424 C174.787879,138.424242 175.030303,136.727273 175.393939,135.030303 L175.393939,135.030303 L175.393939,135.030303 C176.121212,130.545455 176.969697,125.939394 177.69697,121.575758 C178.545455,116.606061 179.515152,111.393939 180.363636,106.30303 C180.727273,106.30303 180.969697,106.30303 181.454545,106.30303 C181.939394,106.30303 182.424242,106.30303 183.030303,106.30303 C183.515152,106.30303 184.121212,106.30303 184.606061,106.30303 C185.212121,106.30303 185.939394,106.30303 186.545455,106.30303 L188.363636,106.30303 L188.848485,104.606061 C190.545455,98.3030303 191.515152,91.5151515 192.484848,84.969697 C192.606061,84 192.727273,83.1515152 192.848485,82.1818182 L193.212121,79.5151515 L190.424242,79.3939394 C189.454545,79.3939394 188.606061,79.3939394 187.636364,79.3939394 C187.030303,79.3939394 186.424242,79.3939394 185.939394,79.3939394 C185.333333,79.3939394 184.848485,79.3939394 184.242424,79.3939394 C184,79.3939394 183.757576,79.3939394 183.515152,79.3939394 C183.272727,77.0909091 182.909091,74.7878788 182.060606,72.3636364 L181.575758,71.030303 C185.333333,69.4545455 187.393939,65.3333333 189.090909,62.0606061 C189.69697,60.7272727 190.30303,59.5151515 190.909091,58.6666667 L190.909091,58.6666667 L190.909091,58.6666667 C192.969697,55.3939394 193.818182,52.6060606 194.424242,49.0909091 L195.151515,48.4848485 L196,47.7575758 L196,46.5454545 C196,45.9393939 196,45.3333333 196,44.6060606 C196.121212,42.0606061 196.242424,38.9090909 194.424242,36.3636364 L194.30303,36.1212121 L194.181818,36 C193.69697,35.5151515 193.090909,35.030303 192.606061,34.6666667 C192.363636,34.4242424 192.121212,34.1818182 191.878788,34.0606061 C192,33.9393939 192.242424,33.6969697 192.484848,33.4545455 C192.969697,32.969697 193.575758,32.2424242 194.060606,31.3939394 L194.181818,31.2727273 L194.30303,31.1515152 C195.272727,28.8484848 194.424242,26.6666667 193.818182,25.0909091 C196.121212,22.0606061 200.363636,15.5151515 199.393939,10.1818182 L199.272727,8.48484848 L198.060606,8 C196.242424,7.27272727 194.30303,6.90909091 192.363636,6.90909091 C188.969697,6.90909091 185.939394,8 183.272727,9.21212121 C183.030303,9.21212121 182.909091,9.33333333 182.666667,9.45454545 L181.212121,9.6969697 C181.090909,9.57575758 180.969697,9.45454545 180.848485,9.33333333 C180.121212,8.48484848 179.272727,7.39393939 177.69697,6.66666667 C174.666667,5.09090909 171.878788,4.96969697 169.818182,4.96969697 C168.848485,4.96969697 167.878788,4.96969697 166.909091,5.09090909 C165.939394,5.09090909 164.969697,5.21212121 164.121212,5.21212121 C162.787879,5.21212121 161.69697,5.09090909 160.606061,4.84848485 L160.484848,4.84848485 L160.363636,4.84848485 C158.545455,4.60606061 156.848485,4.12121212 155.151515,3.75757576 C152.606061,3.03030303 149.939394,2.42424242 146.909091,2.42424242 C146.424242,2.42424242 145.818182,2.42424242 145.333333,2.54545455 C140,2.90909091 134.666667,3.75757576 130.666667,7.39393939 C126.424242,3.39393939 120.848485,1.09090909 115.030303,1.09090909 L114.787879,1.09090909 L114.181818,1.09090909 L113.69697,1.33333333 C112.606061,1.93939394 112.242424,1.93939394 112.121212,1.93939394 C111.878788,1.93939394 111.030303,1.45454545 110.181818,0.96969697 L108.727273,0 L108.727273,0 Z M48.7272727,97.9393939 C46.1818182,96.8484848 44,95.1515152 42.7878788,92.8484848 C39.6363636,87.3939394 39.1515152,79.1515152 41.0909091,68.1212121 C43.3939394,55.8787879 47.3939394,46.6666667 52.969697,40.7272727 C56.8484848,36.3636364 62.3030303,33.9393939 68.1212121,33.9393939 C69.9393939,33.9393939 71.7575758,34.1818182 73.5757576,34.6666667 C76.6060606,35.6363636 79.1515152,37.9393939 80.1212121,40.8484848 C81.6969697,45.2121212 81.2121212,49.5757576 80.4848485,54.3030303 L80,57.3333333 L82.9090909,57.3333333 C83.2727273,57.3333333 83.7575758,57.3333333 84.1212121,57.3333333 C84.1212121,57.3333333 84.1212121,57.3333333 84.1212121,57.3333333 C77.4545455,60.6060606 72.4848485,65.5757576 67.1515152,70.6666667 L66.6666667,71.1515152 C56.969697,77.8181818 50.5454545,87.2727273 48.7272727,97.9393939 L48.7272727,97.9393939 Z M115.030303,111.030303 C117.090909,111.030303 119.272727,111.030303 121.69697,111.030303 C128.848485,111.030303 136.242424,111.151515 143.272727,111.151515 L144,111.151515 C143.030303,116.363636 142.060606,121.69697 141.212121,126.787879 C139.757576,134.909091 138.30303,143.272727 136.606061,151.515152 C134.666667,159.151515 132.242424,164.606061 126.181818,167.030303 C123.636364,167.878788 120.848485,168.242424 118.30303,168.242424 C115.878788,168.242424 112.606061,167.878788 110.181818,165.939394 C107.393939,163.393939 107.636364,158.30303 108,153.939394 C108,153.212121 108.121212,152.606061 108.121212,151.878788 C109.212121,145.212121 110.424242,138.545455 111.515152,132 C112.606061,125.212121 113.818182,118.060606 115.030303,111.030303 L115.030303,111.030303 Z"></path>
                    </g>
                    <g transform="translate(190.303030, 47.272727)" id="Shape">
                        <path d="M3.39393939,5.21212121 C4.96969697,5.09090909 5.6969697,4.48484848 5.57575758,3.63636364 C4,2.78787879 0.96969697,3.15151515 3.39393939,5.21212121 Z"></path>
                        <path d="M3.87878788,3.27272727 C4.48484848,3.27272727 5.21212121,3.39393939 5.6969697,3.63636364 C5.81818182,4.60606061 5.09090909,5.09090909 3.51515152,5.21212121 C1.6969697,3.75757576 2.66666667,3.27272727 3.87878788,3.27272727 L3.87878788,3.27272727 Z M3.87878788,0.848484848 C1.33333333,0.848484848 0.484848485,2.3030303 0.242424242,2.90909091 C-0.121212121,3.87878788 -0.121212121,5.45454545 1.81818182,7.03030303 L2.54545455,7.63636364 L3.51515152,7.51515152 C5.21212121,7.39393939 6.42424242,6.78787879 7.27272727,5.81818182 C7.87878788,5.09090909 8.12121212,4.12121212 8,3.15151515 L7.75757576,1.81818182 L6.54545455,1.21212121 C5.81818182,0.96969697 4.84848485,0.848484848 3.87878788,0.848484848 L3.87878788,0.848484848 Z"></path>
                    </g>
                </g>
                <path d="M189.090909,56.969697 C190.909091,53.9393939 191.757576,51.5151515 192.363636,48.1212121 L192.606061,47.3939394 L192.121212,45.8181818 C189.939394,44.8484848 189.818182,44.969697 189.090909,42.6666667 C188.363636,40.4848485 185.090909,39.8787879 183.272727,38.5454545 L184.363636,36.6060606 C182.787879,36.4848485 181.333333,35.8787879 180.242424,34.7878788 C183.151515,35.2727273 184.363636,34.5454545 184,32.6060606 C183.151515,32.4848485 182.424242,32.2424242 181.575758,32.1212121 C183.878788,31.6363636 185.939394,30.6666667 187.757576,29.3333333 L184.727273,29.0909091 L184.969697,26.6666667 C182.909091,29.4545455 178.666667,32.2424242 175.030303,31.5151515 C174.30303,30.0606061 173.69697,28.6060606 172.606061,27.3939394 C172.848485,28.8484848 173.212121,30.3030303 173.69697,31.7575758 C165.939394,31.5151515 157.939394,28.1212121 151.272727,24.3636364 C152.363636,25.5757576 153.69697,26.6666667 155.272727,27.5151515 C150.181818,26.6666667 147.636364,31.2727273 142.909091,31.030303 C137.212121,30.6666667 132,26.1818182 128.606061,21.8181818 C126.060606,18.7878788 125.333333,14.7878788 122.787879,11.8787879 C120,8.12121212 116.363636,6.54545455 112.363636,4.84848485 C118.424242,3.27272727 126.30303,6.90909091 129.333333,12.4848485 C130.181818,13.6969697 130.666667,15.5151515 132.121212,16.1212121 C134.424242,13.5757576 133.939394,9.33333333 137.575758,7.87878788 C148.363636,3.87878788 158.787879,10.6666667 169.69697,9.09090909 C174.181818,8.72727273 176.969697,11.2727273 179.757576,14.3030303 C180.727273,14.6666667 186.424242,12.8484848 183.515152,11.6363636 L180.484848,12.3636364 C179.030303,11.2727273 178.424242,9.57575758 176.606061,8.84848485 C170.909091,5.93939394 165.939394,8.36363636 159.878788,7.15151515 C154.666667,6.42424242 150.545455,4.24242424 145.333333,4.72727273 C139.878788,5.09090909 133.939394,5.93939394 130.545455,10.7878788 C126.666667,6.06060606 120.848485,3.27272727 114.666667,3.27272727 C112,4.72727273 111.393939,4.36363636 108.848485,2.90909091 C106.787879,4.72727273 108,9.93939394 108,12.4848485 C102.666667,12.4848485 97.4545455,12.4848485 92.1212121,12.4848485 C91.5151515,15.030303 91.1515152,17.6969697 90.6666667,20.2424242 C86.7878788,15.5151515 81.4545455,12.8484848 75.5151515,11.5151515 C60.969697,8.60606061 45.4545455,10.4242424 32.8484848,18.4242424 C19.1515152,27.1515152 10.3030303,41.3333333 5.93939394,56.969697 C2.90909091,68.3636364 1.6969697,81.2121212 4.36363636,92.7272727 C6.54545455,102.424242 12.4848485,110.909091 21.0909091,115.757576 C31.8787879,122.060606 45.9393939,123.272727 58.0606061,122.424242 C72.969697,121.454545 87.6363636,116.484848 97.9393939,105.333333 C104,98.6666667 107.636364,90.5454545 109.454545,81.6969697 C98.4242424,81.6969697 87.2727273,81.5757576 76.2424242,81.6969697 C75.3939394,89.8181818 68.8484848,98.1818182 60.969697,100.606061 C53.5757576,102.666667 44.4848485,100.969697 40.4848485,93.9393939 C36.2424242,86.4242424 37.0909091,75.7575758 38.5454545,67.6363636 C40.3636364,57.5757576 43.8787879,46.5454545 51.030303,39.030303 C56.8484848,32.7272727 65.9393939,30.0606061 74.1818182,32.3636364 C77.9393939,33.4545455 81.0909091,36.3636364 82.3030303,40.1212121 C84.1212121,45.0909091 83.5151515,49.8181818 82.6666667,54.7878788 C87.2727273,54.7878788 91.8787879,54.9090909 96.4848485,54.6666667 C94.3030303,56.7272727 91.7575758,56.2424242 89.0909091,57.6969697 C80.3636364,60.7272727 74.4242424,66.7878788 68,72.969697 C58.9090909,79.1515152 52.2424242,88.4848485 50.6666667,99.6363636 C51.7575758,99.8787879 52.8484848,100 53.9393939,99.8787879 C56.1212121,94.4242424 58.1818182,88.969697 60.4848485,83.5151515 C62.4242424,79.7575758 68.1212121,78.3030303 70.1818182,75.030303 C78.5454545,65.4545455 89.4545455,59.5151515 101.575758,56 L97.0909091,56.2424242 C97.0909091,55.6363636 97.0909091,54.9090909 97.0909091,54.3030303 C102.181818,54.6666667 107.393939,54.5454545 112.484848,54.4242424 C113.454545,46.1818182 115.878788,37.8181818 116.363636,29.5757576 C117.575758,31.6363636 119.393939,32.7272727 121.090909,34.3030303 C121.212121,35.3939394 121.212121,36.4848485 121.212121,37.5757576 C119.878788,39.5151515 118.424242,40.8484848 118.909091,43.5151515 C120.121212,48.969697 124.969697,53.8181818 128.848485,57.8181818 C133.212121,62.4242424 138.060606,64.6060606 140.848485,69.9393939 C142.909091,73.6969697 144.848485,77.5757576 146.666667,81.4545455 C144.606061,81.4545455 142.545455,81.4545455 140.484848,81.4545455 C139.272727,88.3636364 137.333333,96.969697 136.727273,103.636364 C140.363636,103.636364 144,103.636364 147.515152,103.636364 L147.393939,104.848485 L144.242424,105.454545 C134.181818,105.454545 124.121212,105.575758 114.060606,105.454545 L113.939394,103.878788 C117.818182,103.757576 121.818182,104 125.69697,103.757576 C127.151515,96.4848485 128.363636,89.0909091 129.575758,81.6969697 C123.515152,81.4545455 117.333333,81.8181818 111.272727,81.4545455 C110.787879,82.7878788 110.424242,84.1212121 110.181818,85.4545455 C115.151515,85.4545455 120.121212,85.3333333 125.090909,85.4545455 C124.242424,90.1818182 123.636364,95.1515152 122.424242,99.7575758 C118.545455,100 114.666667,99.6363636 110.787879,99.8787879 C108.363636,113.212121 106.060606,126.545455 103.636364,139.878788 C102.424242,147.151515 100.606061,154.909091 101.69697,162.30303 C102.30303,166.909091 105.090909,170.909091 109.454545,172.727273 C116,175.151515 124.242424,174.666667 130.545455,171.636364 C138.181818,167.757576 141.212121,159.272727 142.909091,151.393939 C146.060606,134.424242 149.090909,117.454545 151.878788,100.484848 C149.575758,99.030303 144.121212,100.363636 141.212121,99.8787879 C142.060606,95.2727273 142.545455,89.8181818 144,85.3333333 C145.69697,85.2121212 147.393939,85.3333333 149.090909,85.6969697 C151.151515,88.8484848 152.848485,91.7575758 156.606061,93.2121212 C163.030303,95.8787879 171.636364,97.6969697 178.060606,94.3030303 C181.454545,92.4848485 181.69697,89.3333333 182.181818,85.8181818 C183.030303,85.2121212 184.484848,85.0909091 186.30303,85.4545455 C185.69697,90.0606061 184.606061,94.6666667 184,99.2727273 C182.181818,100.848485 177.69697,99.030303 175.636364,100.242424 C172.484848,116.606061 169.939394,133.333333 166.666667,149.575758 C164,161.818182 159.636364,174.060606 148.727273,181.212121 C137.69697,188.484848 121.939394,189.090909 109.212121,188.727273 C100,188 89.2121212,187.272727 81.8181818,181.090909 C75.2727273,175.272727 74.4242424,166.909091 74.6666667,158.666667 C75.3939394,145.212121 78.9090909,132 80.8484848,118.787879 C79.5151515,119.272727 78.0606061,119.878788 76.7272727,120.363636 C75.3939394,129.090909 73.6969697,137.818182 72.2424242,146.545455 C70.5454545,157.454545 69.3333333,170.30303 75.8787879,180 C81.3333333,187.878788 91.3939394,190.909091 100.606061,191.757576 C110.545455,192.969697 121.212121,192.969697 131.151515,191.515152 C142.787879,189.939394 153.818182,184.969697 160.727273,175.030303 C169.212121,163.151515 170.909091,148.484848 173.454545,134.545455 C175.030303,124.242424 177.212121,114.060606 178.666667,103.878788 C181.333333,103.636364 184,103.878788 186.787879,103.757576 C188.727273,96.7272727 189.69697,88.969697 190.787879,81.5757576 C187.757576,81.4545455 184.727273,81.5757576 181.69697,81.5757576 C181.454545,78.5454545 181.090909,75.7575758 180.121212,72.8484848 C178.545455,72.969697 178.666667,76.1212121 177.69697,77.2121212 C176.727273,72 174.666667,68.2424242 177.575758,63.1515152 C178.545455,63.030303 179.515152,63.030303 180.484848,63.2727273 C181.090909,64.969697 180,66.9090909 180.121212,68.7272727 C184.848485,67.5151515 186.666667,60.3636364 189.090909,56.969697 Z M138.909091,152.121212 C137.090909,159.393939 134.424242,166.424242 126.909091,169.333333 C121.333333,171.030303 113.333333,171.757576 108.484848,167.878788 C104.121212,164 105.333333,156.969697 105.575758,151.757576 C107.878788,137.454545 110.787879,123.030303 112.969697,108.727273 C124.242424,108.606061 135.515152,108.727273 146.787879,108.848485 C144,123.272727 141.818182,137.818182 138.909091,152.121212 Z" id="Shape" fill="#231F20" fill-rule="nonzero"></path>
                <path d="M112.363636,4.84848485 C118.424242,3.27272727 126.30303,6.90909091 129.333333,12.4848485 C130.181818,13.6969697 130.666667,15.6363636 132.121212,16.1212121 C134.424242,13.5757576 133.939394,9.33333333 137.575758,7.87878788 C148.242424,3.87878788 158.909091,10.6666667 169.69697,9.09090909 C174.060606,8.72727273 176.969697,11.2727273 179.757576,14.3030303 C180.727273,14.6666667 186.424242,12.969697 183.515152,11.6363636 C183.636364,11.5151515 183.878788,11.5151515 184,11.5151515 L184.606061,12.969697 C187.393939,11.5151515 190.30303,10.3030303 193.575758,10.1818182 C192.121212,12.1212121 189.575758,11.5151515 187.636364,12.8484848 C185.818182,13.9393939 184.606061,15.5151515 183.515152,17.2121212 C184.484848,19.1515152 186.060606,20.6060606 186.787879,22.7878788 C189.454545,24.6060606 192,26.4242424 190.181818,30.0606061 L188,29.8181818 C188.121212,33.9393939 187.272727,34.3030303 184,37.3333333 L188.727273,35.1515152 C189.818182,36.1212121 191.030303,37.0909091 192.242424,38.1818182 C193.212121,41.0909091 191.636364,43.5151515 193.939394,46.0606061 L192.606061,47.1515152 L192.121212,45.5757576 C189.939394,44.6060606 189.818182,44.7272727 189.090909,42.4242424 C188.363636,40.2424242 185.090909,39.6363636 183.272727,38.3030303 L184.363636,36.3636364 C182.787879,36.2424242 181.333333,35.6363636 180.242424,34.5454545 C183.151515,35.030303 184.363636,34.3030303 184,32.3636364 C183.151515,32.2424242 182.424242,32 181.575758,31.7575758 C183.878788,31.2727273 185.939394,30.3030303 187.757576,28.969697 L184.727273,28.7272727 L184.969697,26.3030303 C182.909091,29.0909091 178.666667,31.8787879 175.030303,31.1515152 C174.30303,29.6969697 173.69697,28.2424242 172.606061,27.030303 C172.848485,28.4848485 173.212121,29.9393939 173.69697,31.3939394 C165.939394,31.1515152 157.939394,27.7575758 151.272727,24 C152.363636,25.2121212 153.69697,26.3030303 155.272727,27.1515152 C150.181818,26.3030303 147.636364,30.9090909 142.909091,30.6666667 C137.212121,30.3030303 132,25.8181818 128.606061,21.5757576 C126.060606,18.5454545 125.333333,14.5454545 122.787879,11.6363636 C120.121212,8.12121212 116.363636,6.54545455 112.363636,4.84848485 Z" id="Shape" fill="#D4D4D6" fill-rule="nonzero"></path>
                <path d="M109.575758,7.15151515 C112.969697,11.7575758 115.151515,17.2121212 118.909091,21.6969697 C119.272727,23.8787879 119.515152,26.1818182 119.878788,28.3636364 C115.151515,23.7575758 110.30303,17.5757576 109.69697,10.6666667 C109.575758,9.57575758 109.575758,8.36363636 109.575758,7.15151515 Z" id="Shape" fill="#EE2E24" fill-rule="nonzero"></path>
                <path d="M197.212121,10.3030303 C198.060606,14.6666667 194.060606,20.8484848 191.393939,24.2424242 C191.878788,26.0606061 193.090909,28 192.363636,29.8181818 C191.393939,31.5151515 189.69697,32.2424242 189.454545,34.3030303 C190.545455,35.5151515 191.878788,36.3636364 192.969697,37.4545455 C194.666667,39.8787879 193.939394,43.3939394 194.060606,46.3030303 C191.636364,43.7575758 193.212121,41.3333333 192.363636,38.4242424 C191.272727,37.3333333 190.060606,36.3636364 188.848485,35.3939394 L184.121212,37.5757576 C187.393939,34.5454545 188.242424,34.1818182 188.121212,30.0606061 L190.30303,30.3030303 C192.121212,26.6666667 189.575758,24.8484848 186.909091,23.030303 C186.181818,20.969697 184.606061,19.3939394 183.636364,17.4545455 C184.727273,15.7575758 185.939394,14.1818182 187.757576,13.0909091 C189.69697,11.7575758 192.242424,12.3636364 193.69697,10.4242424 C190.424242,10.5454545 187.636364,11.7575758 184.727273,13.2121212 L184.121212,11.7575758 C188.363636,9.57575758 192.606061,8.36363636 197.212121,10.3030303 Z" id="Shape" fill="#231F20" fill-rule="nonzero"></path>
                <path d="M74.1818182,14.1818182 C80.6060606,15.3939394 86.5454545,18.1818182 89.8181818,24.1212121 C90.3030303,25.3333333 91.2727273,25.8181818 92.969697,25.3333333 C93.5757576,22.0606061 94.0606061,18.7878788 94.7878788,15.5151515 C99.3939394,15.5151515 104.242424,15.1515152 108.848485,15.6363636 C110.181818,19.6363636 112,23.1515152 114.181818,26.6666667 C113.454545,34.9090909 111.393939,43.5151515 110.060606,51.7575758 C102.181818,51.8787879 94.1818182,51.7575758 86.3030303,51.7575758 C87.030303,44 86.1818182,35.7575758 79.030303,31.1515152 C69.5757576,25.6969697 56.2424242,28.7272727 49.0909091,36.7272727 C40.8484848,45.4545455 37.0909091,58.5454545 35.2727273,70.0606061 C34.0606061,78.3030303 33.9393939,88.6060606 38.5454545,95.8787879 C44.1212121,104.969697 57.6969697,106.424242 66.4242424,101.212121 C72.969697,97.5757576 76.7272727,91.3939394 78.9090909,84.4848485 C87.8787879,84.3636364 96.8484848,84.3636364 105.939394,84.4848485 C103.151515,95.6363636 96.1212121,105.333333 86.1818182,111.151515 C73.3333333,118.787879 57.2121212,120.606061 42.5454545,119.030303 C32.4848485,117.939394 22.3030303,114.666667 15.2727273,107.030303 C8.24242424,99.8787879 5.93939394,89.9393939 5.81818182,80 C5.81818182,64.2424242 10.0606061,48 19.5151515,35.1515152 C26.0606061,26.0606061 35.3939394,19.1515152 46.0606061,15.7575758 C55.030303,12.8484848 64.969697,12.6060606 74.1818182,14.1818182 Z" id="Shape" fill="#EE2E24" fill-rule="nonzero"></path>
                <path d="M194.060606,17.0909091 C194.424242,18.5454545 192,20.8484848 191.151515,22.1818182 C188.969697,22.5454545 188.969697,20.969697 190.545455,19.8787879 C191.636364,19.1515152 192.727273,16.8484848 194.060606,17.0909091 Z" id="Shape" fill="#EE2E24" fill-rule="nonzero"></path>
                <path d="M150.909091,30.3030303 C152.848485,31.5151515 155.515152,30.0606061 155.272727,33.0909091 C153.939394,32.6060606 152.606061,32.1212121 151.393939,31.5151515 L152,34.4242424 C155.878788,36.969697 157.575758,33.8181818 156.969697,30.3030303 C158.30303,31.5151515 159.636364,32.8484848 160.727273,34.3030303 C156.363636,38.0606061 151.636364,36.1212121 148.484848,32 C149.090909,31.6363636 150.181818,29.6969697 150.909091,30.3030303 Z" id="Shape" fill="#FEFEFE" fill-rule="nonzero"></path>
                <path d="M116.484848,29.6969697 C117.69697,31.7575758 119.393939,32.8484848 121.212121,34.4242424 C121.333333,35.5151515 121.333333,36.6060606 121.333333,37.6969697 C120,39.6363636 118.545455,40.969697 119.030303,43.6363636 C120.242424,49.0909091 125.090909,53.9393939 128.969697,57.9393939 C133.333333,62.5454545 138.181818,64.7272727 140.969697,70.0606061 C143.030303,73.8181818 144.969697,77.6969697 146.787879,81.5757576 C144.727273,81.5757576 142.666667,81.5757576 140.606061,81.5757576 C139.393939,88.4848485 137.454545,97.0909091 136.848485,103.757576 C140.484848,103.757576 144,103.757576 147.636364,103.757576 L147.515152,104.969697 L144.363636,105.575758 C134.30303,105.575758 124.242424,105.69697 114.181818,105.575758 L113.939394,103.878788 C117.818182,103.757576 121.818182,104 125.69697,103.757576 C127.151515,96.4848485 128.363636,89.0909091 129.575758,81.6969697 C123.515152,81.4545455 117.333333,81.8181818 111.272727,81.4545455 C110.424242,80.6060606 109.333333,80.1212121 107.878788,80.2424242 C98.5454545,80.2424242 89.3333333,79.2727273 80,79.3939394 C78.3030303,79.6363636 74.5454545,78.6666667 74.4242424,81.2121212 L76.3636364,81.6969697 C75.5151515,89.8181818 68.969697,98.1818182 60.969697,100.606061 C58.6666667,99.6363636 56.3636364,99.8787879 54.0606061,99.8787879 C56.2424242,94.4242424 58.3030303,88.969697 60.6060606,83.5151515 C62.5454545,79.7575758 68.2424242,78.3030303 70.3030303,75.030303 C78.6666667,65.4545455 89.5757576,59.5151515 101.69697,56 L97.2121212,56.2424242 C97.2121212,55.6363636 97.2121212,54.9090909 97.2121212,54.3030303 C102.30303,54.6666667 107.515152,54.5454545 112.606061,54.4242424 C113.454545,46.3030303 115.878788,37.9393939 116.484848,29.6969697 Z" id="Shape" fill="#D4D4D6" fill-rule="nonzero"></path>
                <path d="M160.727273,30.1818182 C162.424242,30.9090909 164,31.5151515 165.69697,32 C166.666667,32.2424242 167.636364,32.4848485 168.727273,32.7272727 C167.878788,33.8181818 167.030303,34.7878788 166.060606,35.7575758 C165.333333,35.030303 164.727273,34.3030303 164.121212,33.5757576 C162.909091,32.4848485 161.818182,31.2727273 160.727273,30.1818182 Z" id="Shape" fill="#D4D4D6" fill-rule="nonzero"></path>
                <path d="M180.606061,31.8787879 C180,35.6363636 178.666667,34.9090909 175.515152,33.9393939 C176.606061,32.969697 179.030303,32.4848485 180.606061,31.8787879 Z" id="Shape" fill="#D4D4D6" fill-rule="nonzero"></path>
                <path d="M136.848485,31.8787879 C144.121212,30.9090909 151.393939,38.7878788 158.787879,38.0606061 C161.575758,37.4545455 163.393939,35.6363636 166.424242,37.0909091 C169.575758,38.5454545 175.151515,40.1212121 173.575758,44.7272727 C170.545455,44.969697 167.878788,43.7575758 165.212121,45.3333333 C163.636364,46.0606061 162.666667,48.2424242 161.454545,49.4545455 C156.484848,48.3636364 151.636364,48.969697 146.545455,48.7272727 C140.848485,48 135.151515,51.5151515 129.454545,51.7575758 C127.272727,51.5151515 126.545455,49.3333333 126.545455,47.3939394 C127.030303,41.0909091 130.909091,34.1818182 136.848485,31.8787879 Z" id="Shape" fill="#D4D4D6" fill-rule="nonzero"></path>
                <path d="M168.121212,34.6666667 C169.818182,34.6666667 171.393939,35.030303 172.969697,35.6363636 C174.666667,36.2424242 176.606061,35.5151515 178.424242,35.6363636 C180.727273,38.9090909 184.242424,39.7575758 187.272727,42.0606061 C187.515152,42.7878788 187.757576,43.6363636 187.757576,44.4848485 C186.545455,45.0909091 185.212121,45.8181818 184,46.4242424 C181.090909,47.2727273 179.030303,46.0606061 176.363636,45.5757576 C177.212121,41.5757576 175.030303,38.5454545 171.515152,37.0909091 C169.939394,36.6060606 168.848485,35.8787879 168.121212,34.6666667 Z" id="Shape" fill="#D4D4D6" fill-rule="nonzero"></path>
                <path d="M128.121212,36.4848485 C125.939394,40.8484848 124.363636,44.969697 124.363636,50.0606061 C122.787879,47.5151515 120.242424,44.4848485 121.090909,41.3333333 C121.939394,38.3030303 125.575758,37.0909091 128.121212,36.4848485 Z" id="Shape" fill="#EE2E24" fill-rule="nonzero"></path>
                <path d="M135.030303,40.4848485 C138.909091,44.1212121 143.636364,45.3333333 148.606061,46.7878788 C144.606061,46.5454545 139.515152,47.8787879 135.878788,45.9393939 C136.727273,44.4848485 136.484848,42.6666667 135.030303,40.4848485 Z" id="Shape" fill="#231F20" fill-rule="nonzero"></path>
                <path d="M168.121212,41.3333333 C168.242424,42.3030303 167.636364,42.7878788 166.30303,42.6666667 C164.242424,42.3030303 164,44.1212121 162.545455,44.4848485 C162.30303,41.4545455 165.818182,39.8787879 168.121212,41.3333333 Z" id="Shape" fill="#231F20" fill-rule="nonzero"></path>
                <path d="M188.121212,45.6969697 C187.757576,48.2424242 185.939394,48.3636364 184,49.3333333 C183.393939,50.9090909 183.151515,54.3030303 180.606061,53.5757576 C180.484848,52.1212121 180.484848,50.7878788 180.606061,49.3333333 C178.787879,48.8484848 174.909091,49.2121212 174.909091,46.7878788 C176.484848,46.4242424 177.939394,46.5454545 179.393939,47.2727273 C182.424242,48.6060606 185.333333,46.5454545 188.121212,45.6969697 Z" id="Shape" fill="#EE2E24" fill-rule="nonzero"></path>
                <path d="M169.818182,46.6666667 C172,47.5151515 173.454545,49.0909091 175.757576,49.5757576 C178.424242,50.1818182 181.333333,53.9393939 178.424242,56.1212121 C175.757576,57.2121212 172.969697,57.6969697 170.30303,56.2424242 C168.242424,55.030303 166.787879,56.2424242 164.848485,57.0909091 L162.30303,57.0909091 C161.818182,55.2727273 161.454545,53.5757576 160.969697,51.7575758 C162.424242,51.6363636 163.878788,51.6363636 165.454545,51.8787879 C164.484848,51.2727273 163.515152,50.7878788 162.545455,50.3030303 C164.969697,48.3636364 166.424242,46.3030303 169.818182,46.6666667 Z" id="Shape" fill="#FEFEFE" fill-rule="nonzero"></path>
                <path d="M190.424242,46.4242424 C191.636364,49.6969697 189.333333,50.3030303 189.69697,53.2121212 C188.727273,54.4242424 188.121212,55.8787879 187.878788,57.4545455 C186.424242,57.3333333 185.090909,57.2121212 183.636364,57.0909091 L182.909091,55.8787879 C184.242424,53.3333333 185.333333,50.1818182 187.757576,48.4848485 C188.727273,47.8787879 189.575758,47.1515152 190.424242,46.4242424 Z" id="Shape" fill="#FEFEFE" fill-rule="nonzero"></path>
                <path d="M142.545455,49.3333333 C148.242424,49.8181818 153.939394,49.2121212 159.757576,49.9393939 L160.121212,51.5151515 C153.212121,50.4242424 146.545455,50.4242424 139.636364,50.9090909 C140.484848,50.3030303 141.454545,49.6969697 142.545455,49.3333333 Z" id="Shape" fill="#FEFEFE" fill-rule="nonzero"></path>
                <path d="M196,50.9090909 C196.121212,51.8787879 195.393939,52.3636364 193.818182,52.4848485 C191.272727,50.4242424 194.30303,50.0606061 196,50.9090909 Z" id="Shape" fill="#231F20" fill-rule="nonzero"></path>
                <path d="M139.515152,52.3636364 C145.575758,51.8787879 151.515152,51.7575758 157.575758,52.7272727 L156.484848,54.0606061 C150.787879,52.8484848 145.212121,53.2121212 139.515152,53.2121212 L139.515152,52.3636364 Z" id="Shape" fill="#FEFEFE" fill-rule="nonzero"></path>
                <path d="M161.090909,51.7575758 C161.575758,53.5757576 161.939394,55.2727273 162.424242,57.0909091 L164.969697,57.0909091 C163.515152,57.8181818 162.060606,59.030303 160.606061,57.6969697 C157.818182,56.2424242 159.393939,53.0909091 161.090909,51.7575758 Z" id="Shape" fill="#D4D4D6" fill-rule="nonzero"></path>
                <path d="M135.636364,55.030303 C142.30303,54.0606061 148.848485,54.1818182 155.515152,54.7878788 L155.151515,56.2424242 C148.363636,55.6363636 141.454545,55.7575758 134.666667,56.1212121 L135.636364,55.030303 Z" id="Shape" fill="#FEFEFE" fill-rule="nonzero"></path>
                <path d="M154.666667,56.7272727 L155.030303,58.4242424 C151.030303,58.0606061 147.030303,58.1818182 143.030303,57.5757576 C146.909091,56.8484848 150.666667,56.969697 154.666667,56.7272727 Z" id="Shape" fill="#D4D4D6" fill-rule="nonzero"></path>
                <path d="M185.939394,59.1515152 C185.090909,62.6666667 183.515152,65.8181818 180.606061,68.1212121 C180.969697,66.0606061 181.454545,63.8787879 181.939394,61.8181818 C180.848485,62.3030303 179.757576,61.9393939 178.666667,60.969697 L177.454545,62.4242424 C176.121212,61.3333333 174.787879,61.5757576 173.69697,63.030303 C172.484848,62.1818182 171.272727,62.4242424 169.939394,63.8787879 C168.848485,63.2727273 167.636364,62.6666667 166.545455,62.0606061 C165.939394,65.0909091 165.818182,68.2424242 165.575758,71.3939394 C163.151515,68.4848485 162.30303,66.4242424 162.181818,62.6666667 C161.090909,62.7878788 160,62.7878788 159.030303,62.7878788 C157.69697,61.2121212 156,60.3636364 154.30303,59.2727273 C160.484848,60.8484848 166.30303,59.030303 172.484848,59.6363636 C177.090909,58.5454545 180.848485,56.969697 185.939394,59.1515152 Z" id="Shape" fill="#FEFEFE" fill-rule="nonzero"></path>
                <path d="M138.060606,61.9393939 C140.848485,62.7878788 143.757576,63.6363636 146.545455,64.6060606 C147.878788,68 149.212121,71.2727273 150.787879,74.5454545 C148.484848,73.3333333 146.181818,72.1212121 144,70.6666667 C143.272727,67.8787879 140.606061,67.6363636 141.090909,64.7272727 C140.121212,63.7575758 139.030303,62.9090909 138.060606,61.9393939 Z" id="Shape" fill="#EE2E24" fill-rule="nonzero"></path>
                <path d="M152.606061,71.2727273 C154.909091,75.030303 157.454545,80 161.69697,81.8181818 C161.939394,79.2727273 161.818182,76.8484848 162.666667,74.3030303 C163.272727,77.0909091 163.393939,80.4848485 165.333333,82.9090909 C168.969697,83.8787879 173.818182,84.6060606 177.333333,82.7878788 C178.181818,80.8484848 178.545455,78.6666667 179.151515,76.6060606 C180,78.5454545 179.636364,81.3333333 179.272727,83.3939394 C174.424242,87.8787879 167.515152,86.4242424 161.69697,85.0909091 C155.878788,83.5151515 153.575758,76.7272727 152.606061,71.2727273 Z" id="Shape" fill="#FEFEFE" fill-rule="nonzero"></path>
                <path d="M145.939394,77.2121212 C151.030303,78.1818182 152.242424,82.4242424 156.121212,85.2121212 C160.969697,88.1212121 166.545455,89.2121212 172.242424,88.8484848 C175.757576,88.8484848 178.545455,87.3939394 180.848485,84.7272727 C180.363636,87.5151515 180.363636,89.9393939 178.060606,91.8787879 C175.151515,94.6666667 171.151515,94.4242424 167.393939,94.1818182 C161.818182,93.8181818 156.363636,91.8787879 152.606061,87.3939394 C150.060606,84.2424242 147.636364,80.8484848 145.939394,77.2121212 Z" id="Shape" fill="#D4D4D6" fill-rule="nonzero"></path>
                <path d="M110.060606,85.4545455 C115.030303,85.4545455 120,85.3333333 124.969697,85.4545455 C124.121212,90.1818182 123.515152,95.030303 122.30303,99.7575758 C118.424242,100 114.545455,99.6363636 110.666667,99.8787879 C108.242424,113.212121 105.939394,126.545455 103.515152,139.878788 C102.30303,147.151515 100.606061,154.909091 101.575758,162.30303 C102.181818,166.909091 104.969697,170.909091 109.333333,172.727273 C115.878788,175.272727 124.121212,174.666667 130.424242,171.636364 C138.060606,167.757576 141.090909,159.272727 142.787879,151.393939 C145.939394,134.424242 148.969697,117.454545 151.757576,100.363636 C149.454545,98.9090909 144,100.242424 141.090909,99.7575758 C141.939394,95.1515152 142.424242,89.6969697 143.878788,85.2121212 C145.575758,85.0909091 147.272727,85.2121212 148.969697,85.5757576 C151.030303,88.7272727 152.727273,91.6363636 156.484848,93.0909091 C162.909091,95.7575758 171.515152,97.5757576 177.939394,94.1818182 C181.333333,92.3636364 181.575758,89.2121212 182.060606,85.8181818 C182.909091,85.2121212 184.363636,85.0909091 186.181818,85.4545455 C185.575758,90.0606061 184.484848,94.6666667 183.878788,99.2727273 C182.060606,100.848485 177.69697,99.030303 175.515152,100.242424 C172.363636,116.606061 169.818182,133.333333 166.545455,149.575758 C163.878788,161.818182 159.515152,174.060606 148.606061,181.212121 C137.575758,188.484848 121.818182,189.090909 109.090909,188.727273 C99.8787879,188 89.0909091,187.272727 81.6969697,181.090909 C75.1515152,175.272727 74.3030303,166.909091 74.5454545,158.545455 C75.2727273,145.090909 78.7878788,131.878788 80.7272727,118.666667 C95.2727273,113.090909 106.424242,100.727273 110.060606,85.4545455 Z" id="Shape" fill="#EE2E24" fill-rule="nonzero"></path>
            </g>
        </g>
    </g>
</svg>