<?xml version="1.0" encoding="UTF-8"?>
<svg width="200px" height="200px" viewBox="0 0 200 200" version="1.1" xmlns="http://www.w3.org/2000/svg" xmlns:xlink="http://www.w3.org/1999/xlink">
    <!-- Generator: Sketch 54.1 (76490) - https://sketchapp.com -->
    <title>coe</title>
    <desc>Created with Sketch.</desc>
    <g id="coe" stroke="none" stroke-width="1" fill="none" fill-rule="evenodd">
        <g id="coe_BGL">
            <g id="coe" transform="translate(0.000000, 39.000000)">
                <g id="g10" transform="translate(99.913417, 60.817318) scale(-1, 1) rotate(-180.000000) translate(-99.913417, -60.817318) translate(0.000000, 0.211258)" fill-rule="nonzero">
                    <g id="g12">
                        <path d="M95.0770539,30.1420599 C95.0770539,30.1420599 97.8625084,56.8924661 151.19584,61.9979205 C151.19584,61.9979205 151.62597,56.3404315 143.533503,52.3248472 C132.313417,46.7546309 120.262508,42.1669254 124.003114,22.8786488 C124.003114,22.8786488 108.491772,23.8985275 95.0770539,30.1420599" id="path14" fill="#A68145"></path>
                        <path d="M98.7546296,31.960484 C106.890733,28.5998261 115.484326,27.0777829 120.31411,26.4366747 C119.651252,33.6096961 121.221815,39.3821635 125.073244,43.9975747 C129.008482,48.7130724 134.68952,51.4922931 140.183546,54.1804315 C140.834975,54.4990463 141.48675,54.8180073 142.135754,55.1400852 C144.206057,56.1672713 145.552204,57.2803449 146.428048,58.299912 C109.45108,53.5064922 100.72727,37.7374882 98.7546296,31.960484 Z M127.864932,19.4747008 L123.796707,19.7423025 C123.139391,19.7855926 107.539738,20.8744584 93.7509933,27.2920859 L91.7184393,28.2382331 L91.9508202,30.4675317 C91.984067,30.7858347 92.8557553,38.3605185 100.919478,46.3833755 C111.220084,56.6323795 128.034629,62.9385266 150.896273,65.1269248 L154.087269,65.4323793 L154.330039,62.2361889 C154.354282,61.9189595 154.807269,54.4100419 144.930559,49.5092628 C144.271165,49.1816438 143.608654,48.857488 142.946144,48.5333321 C132.374715,43.3617305 124.024586,39.2765358 127.088828,23.4769864 L127.864932,19.4747008 L127.864932,19.4747008 Z" id="path16" fill="#A68145"></path>
                        <path d="M178.83532,83.5089157 C178.83532,83.5089157 110.531599,127.212464 9.35511665,113.141815 C9.35511665,113.141815 27.7599993,90.1464913 46.7643278,81.7593053 C46.7643278,81.7593053 86.5561883,95.8174868 114.276361,82.9302144 C114.276361,82.9302144 61.2093491,94.5904738 28.0021811,75.3357557 C28.0021811,75.3357557 50.6289165,54.3743709 63.913072,51.1497823 C63.913072,51.1497823 89.1657121,72.4955826 113.80017,66.505626 C113.80017,66.505626 75.4465782,67.24502 52.969003,45.8292629 C52.969003,45.8292629 78.4384396,24.5128652 96.3459716,21.7205189 C96.3459716,21.7205189 102.540603,68.4311671 171.931771,48.7161893 L181.478783,49.6128126 L178.83532,83.5089157" id="path18" fill="#A68145"></path>
                        <path d="M60.8242409,45.9761027 C67.8074442,40.6735921 81.3755824,31.1283802 92.7189587,27.670995 C94.65766,33.6052632 99.2886555,43.2883106 109.935235,50.2794793 C124.738006,60.0003448 145.746836,61.169176 172.387874,53.7575744 L176.136099,54.1097822 L174.07203,80.5786993 C166.863719,84.7761018 150.964498,92.5890886 130.20017,98.9599975 C113.285192,104.149608 95.6405171,107.703547 77.7554959,109.523114 C58.4768817,111.485019 38.8651073,111.424413 19.3288653,109.350993 C25.4709258,102.79792 35.5016441,93.1639804 45.8434621,87.7309069 C49.8926394,88.7643268 54.1686567,89.5806038 58.6666652,90.1790454 C73.3686562,93.4226816 97.2505603,96.3341967 116.374369,87.4431147 L113.208309,78.0692621 C112.843287,78.1489158 86.6299545,83.7361018 60.3466652,80.3265781 C53.2283969,78.7355824 48.5544577,77.113418 48.4221633,77.0666647 L46.5610378,76.4090024 L44.9277911,77.1300414 C42.1537652,76.3030284 39.4417306,75.3336778 36.8225099,74.2022492 C43.3575747,68.6784398 52.9336783,61.2754963 60.4183535,57.7277908 C65.8742841,61.062163 71.6481367,63.5885698 77.3097816,65.5051066 C87.4940238,70.4962753 101.180604,74.696102 114.975928,71.3412969 L113.703893,61.5296954 C113.469434,61.5321197 97.720517,61.7083967 81.0815564,56.2292627 C72.840864,52.0907346 67.2349767,47.4406915 67.1213836,47.345107 L65.1927256,45.7229426 L62.7390461,46.3134188 C62.3882235,46.3986136 62.030821,46.494198 61.666492,46.600172 C61.3845872,46.3954967 61.1026825,46.1866655 60.8242409,45.9761027 L60.8242409,45.9761027 Z M100.610214,16.0190819 L95.5792184,16.8031511 C76.5239808,19.7741986 50.8581805,41.1061462 49.7748905,42.0124665 L45.5019902,45.5885703 L49.5362758,49.4323797 C50.1793927,50.0453667 50.8322065,50.6396524 51.4971416,51.2190463 C47.4469252,53.5667519 42.9184405,56.6690895 37.9366224,60.510821 C30.5267871,66.2261455 24.8578349,71.464587 24.6199821,71.6848467 L19.6787181,76.2625089 L25.5058002,79.6412101 C28.0250383,81.1019893 30.6941291,82.4277036 33.5093325,83.6180066 C18.3485017,94.0606037 6.10119465,109.242595 5.46957562,110.031859 L0,116.865452 L8.66950628,118.070993 C32.1424408,121.335408 55.8147172,121.781815 79.0285695,119.398439 C97.6062313,117.490906 115.934196,113.776274 133.503027,108.357746 C163.526922,99.097833 180.797225,88.1620757 181.517571,87.7011233 L183.604151,86.3660584 L186.821121,45.1161893 L171.46874,43.6737651 L170.571424,43.9286569 C157.260602,47.710475 145.477399,49.203462 135.54978,48.3660594 C127.635321,47.6983538 120.855755,45.5432023 115.398785,41.9598258 C103.109954,33.8894883 101.296621,21.1937311 101.279651,21.0662852 L100.610214,16.0190819 L100.610214,16.0190819 Z" id="path20" fill="#A68145"></path>
                        <path d="M148.154801,54.8509077 C152.574542,54.9606913 157.988221,56.3012973 159.184412,60.9610374 C159.184412,60.9610374 161.547702,74.5326388 142.69333,73.7503012 C142.271512,73.7347168 119.598265,96.148569 93.4126384,96.1361015 C93.4126384,96.1361015 128.750127,106.872725 157.126576,94.7210366 C157.126576,94.7210366 155.608654,96.0779197 129.975754,105.122422 C129.975754,105.122422 121.895408,113.896794 121.894023,113.932811 C161.0161,106.816967 204.226142,86.3830281 195.154281,44.9132456 C202.644843,8.21156689 169.913416,4.13894362 169.913416,4.13894362 C169.913416,4.13894362 185.929346,22.4107007 144.061295,30.9977135 C139.575061,33.1275836 134.091079,37.1684839 142.924672,55.3544575 C142.924672,55.3544575 145.961901,54.798267 148.154801,54.8509077" id="path22" fill="#A68145"></path>
                        <path d="M155.398438,92.1000453 C155.399438,92.1000453 155.399438,92.1000453 155.399438,92.0990453 C155.399438,92.1000453 155.399438,92.1000453 155.398438,92.1000453 Z M145.08017,33.9968823 C162.478957,30.3729863 172.66597,24.4695751 175.363459,16.4475147 C176.283286,13.7132118 176.200169,11.1532811 175.697312,8.97322921 C179.691078,10.5143547 184.801034,13.3444153 188.413848,18.4027355 C193.028913,24.8651076 194.260774,33.5730554 192.074454,44.2850205 L191.941467,44.9361028 L192.083805,45.5851071 C194.664584,57.3821631 192.84848,68.0533316 186.686056,77.3018162 C181.050731,85.7589589 171.842766,93.0839804 159.317399,99.0739369 C151.03584,103.034803 141.315321,106.363287 130.809694,108.857486 C131.136274,108.502162 131.454542,108.156534 131.758958,107.826144 C148.687096,101.843114 157.925883,98.2230278 159.221468,97.0645863 L155.889174,91.831686 C140.734196,98.3213828 123.313244,97.9698677 110.879651,96.3923785 C121.667529,92.9225951 132.790992,86.3660584 143.746836,76.9464916 C143.755841,76.9388725 143.764499,76.9312535 143.773503,76.9236344 C150.741814,77.0067513 155.904412,75.1979202 159.115148,71.5369679 C163.32294,66.7386996 162.325537,60.6777474 162.280862,60.4218167 L162.228914,60.1797388 C160.895234,54.9835484 155.793935,51.8961026 148.232377,51.7087433 L148.230646,51.7087433 C147.106836,51.6817303 145.845884,51.7835485 144.77991,51.9071848 C141.004325,43.5348907 141.007442,39.3326397 141.735754,37.2588735 C142.288135,35.6848476 143.427183,34.8166225 145.08017,33.9968823 L145.08017,33.9968823 Z M162.105624,0 L167.549779,6.21063188 C167.672723,6.35539378 170.872377,10.1797746 169.388394,14.4924325 C166.77887,22.0772289 152.004152,26.160034 143.429607,27.9185448 L143.05662,27.9951162 L142.71307,28.1578867 C140.229607,29.3375231 137.199997,31.2003455 135.804326,35.176103 C134.03636,40.2105618 135.400862,47.0587001 140.097313,56.7276176 L141.141122,58.8765353 L143.490906,58.4460591 C144.249347,58.3078773 146.548221,57.9580938 148.076879,57.9934185 L148.076879,57.9934185 C150.193243,58.0457128 155.158784,58.504241 156.099044,61.5979205 C156.15965,62.1741976 156.365364,65.182336 154.346316,67.4399983 C152.288481,69.741297 148.306143,70.8374008 142.823546,70.609522 C141.532464,70.5631151 140.901122,71.1023359 139.648135,72.1797385 C119.644326,89.3790454 103.478785,92.9925518 93.4344565,92.9925518 C93.4275301,92.9925518 93.42095,92.9925518 93.41437,92.9925518 L92.4990453,99.1435473 C92.8720323,99.2567941 101.781123,101.933504 114.334196,103.114803 C118.094196,103.468742 122.422161,103.703201 127.071512,103.636015 C126.324499,104.44779 124.972811,105.916188 123.621122,107.38701 C122.609174,108.487963 121.597573,109.589261 120.838785,110.418352 C119.028915,112.395495 118.796188,112.649348 118.752897,113.815408 L118.60675,117.725711 L122.456447,117.025452 C137.125884,114.357053 150.81004,110.11082 162.029433,104.745279 C175.590299,98.2604304 185.646056,90.1998246 191.917571,80.7875304 C198.947527,70.2372277 201.1148,58.1631154 198.363285,44.8917738 C200.733848,32.6555836 199.093328,22.4963458 193.483978,14.6857486 C185.077398,2.98078954 170.901121,1.09442768 170.301641,1.01961556 L162.105624,0 L162.105624,0 Z" id="path24" fill="#A68145"></path>
                        <path d="M95.0770539,30.1420599 C95.0770539,30.1420599 97.8625084,56.8924661 151.19584,61.9979205 C151.19584,61.9979205 151.62597,56.3404315 143.533503,52.3248472 C132.313417,46.7546309 120.262508,42.1669254 124.003114,22.8786488 C124.003114,22.8786488 108.491772,23.8985275 95.0770539,30.1420599" id="path26" fill="#100F0D"></path>
                        <path d="M178.83532,83.5089157 C178.83532,83.5089157 110.531599,127.212464 9.35511665,113.141815 C9.35511665,113.141815 27.7599993,90.1464913 46.7643278,81.7593053 C46.7643278,81.7593053 86.5561883,95.8174868 114.276361,82.9302144 C114.276361,82.9302144 61.2093491,94.5904738 28.0021811,75.3357557 C28.0021811,75.3357557 50.6289165,54.3743709 63.913072,51.1497823 C63.913072,51.1497823 93.8732444,72.6219895 118.507703,66.632033 C118.507703,66.632033 75.4465782,67.24502 52.969003,45.8292629 C52.969003,45.8292629 78.4384396,24.5128652 96.3459716,21.7205189 C96.3459716,21.7205189 102.540603,68.4311671 171.931771,48.7161893 L181.478783,49.6128126 L178.83532,83.5089157" id="path28" fill="#100F0D"></path>
                        <path d="M55.7825094,45.9120335 C61.4140244,41.43896 80.4221625,27.0007959 94.895582,23.8570037 C95.9459716,28.3532114 99.6928114,39.7932458 111.660603,47.6522932 C125.773503,56.9201717 146.106663,57.9033752 172.101468,50.5735052 L179.510299,51.2699554 L177.078783,82.4450196 C170.571771,86.4384394 153.767269,94.9942833 131.358958,101.891946 C114.227876,107.165365 96.3553223,110.779218 78.2379201,112.633417 C56.6884834,114.838785 34.7286571,114.545798 12.9151858,111.766577 C18.0134021,105.896101 31.5366572,91.298699 45.5442413,84.3556689 C49.9629425,85.5314264 54.4529857,86.3833745 58.8768816,86.9856255 C62.110821,87.7066645 65.8278771,88.4193917 69.8677039,88.9928982 C82.3508205,90.7643267 100.322422,91.4396514 115.049348,84.592552 L113.882941,81.1390456 C113.751339,81.1681365 100.528136,84.0315131 83.4687425,84.5225953 C76.5312535,84.7224221 68.3085697,84.5374871 59.8441543,83.4199113 C52.401384,81.7748897 47.5123798,80.078959 47.3752369,80.0304742 L46.6895226,79.78805 L46.0242413,80.0817296 C45.7440681,80.205366 45.4659729,80.3310802 45.1864924,80.460604 C40.3196527,79.0864049 35.5709082,77.2931582 31.1454191,74.9752362 C36.2091766,70.4952363 50.3587866,58.4495223 60.8003448,54.1222497 C67.802942,58.4699552 75.6034613,61.461124 82.8716862,63.5154962 C96.6019023,69.2488294 108.729348,70.8966216 118.940949,68.4138511 L118.482075,64.7986131 C118.218525,64.8003447 101.72398,64.9343707 84.0931581,60.0304747 C73.1345436,55.4323796 65.1335049,49.7686568 64.9811239,49.6592195 L64.2978339,49.1695226 L63.4805179,49.3679641 C62.7605179,49.5425096 62.0065785,49.7672715 61.2186998,50.0415572 C59.3146306,48.7757564 57.4947172,47.4036352 55.7825094,45.9120335 L55.7825094,45.9120335 Z M97.9106469,19.6245883 L96.0637205,19.9089519 C77.8618162,22.7470124 52.8481372,43.5390465 51.7922065,44.4232024 L50.2181806,45.7406049 L51.7042411,47.1567088 C53.4334186,48.8041546 55.2813839,50.3220767 57.2138514,51.7198255 C52.374371,54.052293 46.56554,57.8254531 39.8562761,63.0001716 C32.5580252,68.628916 26.813298,73.9376605 26.7560859,73.9906475 L24.935757,75.6772275 L27.0825275,76.9219028 C31.3143888,79.3755824 35.8597394,81.3284828 40.5478778,82.8730715 C23.5105449,92.6666644 8.61336775,111.134196 7.9235669,111.996188 L5.90839812,114.513937 L9.1024067,114.957919 C32.3261637,118.187356 55.7440679,118.629607 78.7075305,116.271512 C97.0801707,114.385105 115.204499,110.711686 132.57662,105.35411 C162.197399,96.2185257 179.117571,85.5051061 179.823372,85.0535044 L180.592203,84.5617295 L183.446922,47.9560161 L171.761381,46.8581806 L171.430645,46.9523798 C146.386144,54.0682238 126.973503,53.2855398 113.731945,44.6251071 C100.262508,35.8167956 98.1825084,21.6183544 98.1631144,21.4760514 L97.9106469,19.6245883 L97.9106469,19.6245883 Z" id="path30" fill="#100F0D"></path>
                        <path d="M178.83532,79.3007772 C178.83532,79.3007772 124.008309,122.804499 22.8332116,108.734543 C22.8332116,108.734543 34.9908216,92.4834609 49.0462325,84.555842 C49.0462325,84.555842 81.7451062,95.1075301 114.276361,82.9302144 C114.276361,82.9302144 74.163115,91.8469241 40.9568821,72.592206 C40.9568821,72.592206 50.7501286,62.1115136 63.84173,55.3056263 C63.84173,55.3056263 85.1335044,70.9444138 115.815755,66.5890892 C115.815755,66.5890892 85.1830282,66.9894356 64.7525525,45.124501 C64.7525525,45.124501 73.2644138,34.9686571 91.2252791,27.9733326 C91.2252791,27.9733326 102.521556,68.9707342 170.431511,48.0484836 L181.478783,49.6128126 L178.83532,79.3007772" id="path32" fill="#A68145"></path>
                        <path d="M65.1057992,45.1182673 C66.3251931,43.7541115 74.8266648,34.7030294 91.0590453,28.319653 C91.6689155,30.1867005 95.6883093,41.0493496 108.486577,48.0668386 C123.460083,56.2774012 144.309607,56.3608644 170.452983,48.3158429 L181.19584,49.8375745 L178.584584,79.1639807 C177.363112,80.1032015 163.600342,90.4322055 138.663546,99.0555819 C123.382508,104.339738 106.957227,107.959132 89.8444999,109.813331 C68.5908208,112.115668 46.2081374,111.686577 23.314389,108.536794 C25.1845189,106.121902 36.4176614,92.019738 49.0763624,84.8394784 C50.0976611,85.1553225 58.0682237,87.5338506 69.4382667,88.5703874 C80.6348032,89.5903008 97.5175733,89.4829415 114.367789,83.1754092 L114.219564,82.6742836 C114.119478,82.6967945 104.047097,84.8948897 90.0578332,84.7196516 C77.229089,84.5575736 58.4010375,82.3064914 41.3769687,72.5322926 C42.9201721,70.9388727 52.0789597,61.7516868 63.8206045,55.6121198 C64.7061456,56.2341111 69.9335047,59.7766219 78.232379,62.8263188 C86.6171407,65.9071845 99.9494347,69.1057991 115.852465,66.8484832 L115.812291,66.3272711 C115.737486,66.3269247 108.061642,66.3961888 97.9951491,63.79844 C88.7639805,61.4164487 75.5864916,56.2434618 65.1057992,45.1182673 Z M91.4005172,27.62393 L91.1303873,27.7295577 C81.8226819,31.3544235 75.096102,35.8406917 71.0922926,38.9655402 C66.747704,42.3567089 64.5731586,44.9305616 64.5516867,44.9561894 L64.402769,45.1338517 L64.5610373,45.3032023 C70.4100415,51.5625961 80.9385261,59.9414704 97.8801707,64.3096088 C104.050906,65.9009507 109.333331,66.4966217 112.536101,66.719652 C98.1818157,68.1322927 86.1790455,65.1864919 78.4318595,62.3414703 C69.4074442,59.0282236 64.0495222,55.1335051 63.9965352,55.0947172 L63.8652798,54.9980939 L63.7208642,55.0732454 C50.739739,61.8219898 40.8637219,72.3082233 40.7653669,72.4135047 L40.5409514,72.653851 L40.8252804,72.8186995 C58.0280505,82.7934178 77.0974873,85.08121 90.0654523,85.2432879 C99.4171404,85.3627684 107.026491,84.4197381 111.100257,83.7710802 C95.3915128,88.9648463 79.95463,89.0012099 69.5006043,88.0498679 C57.4247605,86.9509935 49.2083105,84.3328117 49.1269252,84.3064914 L49.017488,84.271513 L48.9177477,84.3276169 C34.9755835,92.1911665 22.7453847,108.414889 22.6235146,108.57766 L22.3578176,108.932984 L22.7970903,108.993937 C45.8961027,112.206058 68.479652,112.656274 89.9199978,110.331772 C107.074976,108.471686 123.541122,104.841556 138.860603,99.5414694 C164.954455,90.5139371 178.860602,79.6148898 178.997744,79.5057989 L179.086056,79.4361885 L179.096099,79.3239807 L181.761381,49.388397 L170.410385,47.780778 L170.354281,47.798094 C144.325538,55.8174878 123.595495,55.7527259 108.738006,47.6072715 C94.9606903,40.052986 91.5109934,28.0246227 91.4777466,27.9036876 L91.4005172,27.62393 L91.4005172,27.62393 Z" id="path34" fill="#100F0D"></path>
                        <path d="M56.9897821,70.8318597 C73.2006908,85.0102143 118.003114,81.8725521 118.003114,81.8725521 C98.2562746,95.7025084 56.8793059,94.3553223 56.8793059,94.3553223 C68.674284,99.863201 82.0997382,100.425625 82.0997382,100.425625 C70.3113402,104.945798 38.7705618,102.85437 38.7705618,102.85437 C64.0862322,109.894716 104.862681,108.072032 135.669607,99.4614694 C135.669607,99.4614694 141.060776,98.7317724 140.9361,98.7806036 C110.530214,110.595668 62.6019032,116.989781 21.1498869,109.575755 C21.1498869,109.575755 34.9908216,92.4834609 49.0462325,84.555842 C49.0462325,84.555842 81.7451062,95.1075301 114.276361,82.9302144 C114.276361,82.9302144 74.163115,91.8469241 40.9568821,72.592206 C40.9568821,72.592206 50.7501286,62.1115136 63.84173,55.3056263 C63.84173,55.3056263 85.9750628,70.9444138 116.658698,66.5890892 C116.658698,66.5890892 85.1830282,66.9894356 64.7525525,45.124501 C64.7525525,45.124501 73.2644138,34.9686571 91.2252791,27.9733326 C91.2252791,27.9733326 102.521556,68.9707342 170.431511,48.0484836 C170.431511,48.0484836 135.727789,63.7160157 107.80017,52.1326394 C109.449348,56.8294358 115.505798,60.1690028 115.505798,60.1690028 C102.084846,59.6069249 84.1897814,51.9154965 84.1897814,51.9154965 C99.4521187,65.4299551 124.397919,65.555323 124.397919,65.555323 C104.8703,73.2232016 85.8361883,69.3870113 85.8361883,69.3870113 C88.8505605,74.0941973 97.8261447,76.3293487 97.8261447,76.3293487 C74.5219029,77.6671842 56.9897821,70.8318597 56.9897821,70.8318597" id="path36" fill="#FFFFFF"></path>
                        <path d="M103.615928,34.0474797 C103.615928,34.0474797 111.377313,48.8162758 132.677053,50.7885702 C132.677053,50.7885702 115.595149,44.6711677 117.40675,32.127826 C117.40675,32.127826 109.833763,31.8756702 103.615928,34.0474797" id="path38" fill="#FFFFFF"></path>
                        <path d="M170.42874,60.6126392 C167.71255,52.3795658 150.743892,50.2988732 132.549953,55.9622497 C114.354629,61.628743 101.826145,72.9007774 104.548222,81.1324655 C107.268569,89.3651926 124.227529,91.4521189 142.427009,85.7849329 C160.614022,80.1187859 173.164325,68.8488294 170.42874,60.6126392" id="path40" fill="#100F0D"></path>
                        <path d="M168.020775,61.9972279 C165.869779,55.4064055 152.864065,53.5362757 138.985278,57.8150635 C125.102681,62.0959292 115.604846,70.9101281 117.759651,77.5012968 C119.913417,84.0879633 132.90978,85.9643269 146.797918,81.6820759 C160.66978,77.4015565 170.181121,68.5852797 168.020775,61.9972279" id="path42" fill="#561216"></path>
                        <path d="M132.454023,83.6415564 C125.035495,83.6415564 119.41333,81.4438075 118.088655,77.3935911 C117.530733,75.6865782 117.779391,73.7939375 118.828049,71.7693489 C121.589261,66.4370546 129.541815,61.0895223 139.087442,58.1461457 C152.770213,53.9265787 165.602766,55.7032021 167.691771,62.1045872 L167.691771,62.1052798 C168.250385,63.8088296 168.003459,65.6976607 166.957918,67.7194788 C164.199476,73.0535047 156.245884,78.4041539 146.695754,81.35134 C141.671338,82.9004308 136.759823,83.6415564 132.454023,83.6415564 Z M153.211078,55.1889164 C148.854715,55.1889164 143.922767,55.9303882 138.883113,57.4839812 C129.019564,60.5257128 121.099218,65.877401 118.212984,71.4507341 C117.076014,73.6464051 116.812465,75.7184397 117.430646,77.6086561 C119.639824,84.3667511 132.859217,86.3425087 146.900083,82.0131581 C156.618524,79.014024 164.733502,73.5283099 167.572983,68.0374009 C168.707528,65.8448468 168.968307,63.7762755 168.349779,61.8898686 L168.349779,61.8898686 C166.935753,57.5567085 160.993589,55.1889164 153.211078,55.1889164 L153.211078,55.1889164 Z" id="path44" fill="#561216"></path>
                        <path d="M162.421468,62.8401716 C160.41939,56.7002583 152.623026,53.6214705 145.018871,55.9622497 C137.40952,58.3033752 132.872031,65.1799118 134.874109,71.320864 C136.877572,77.4573141 144.67255,80.5399114 152.279477,78.1984396 C159.883632,75.8559288 164.429087,68.9783533 162.421468,62.8401716" id="path46" fill="#A68145"></path>
                        <path d="M160.16242,63.8711672 C158.494195,58.7477042 152.321381,56.0768817 146.381295,57.9002583 C140.435667,59.7232886 136.969694,65.3558425 138.633763,70.4799982 C140.303027,75.6013834 146.478611,78.277747 152.420083,76.4505609 C158.364325,74.6271843 161.834455,68.9939377 160.16242,63.8711672" id="path48" fill="#100F0D"></path>
                        <path d="M148.154801,54.8509077 C152.574542,54.9606913 157.988221,56.3012973 159.184412,60.9610374 C159.184412,60.9610374 161.547702,74.5326388 142.69333,73.7503012 C142.271512,73.7347168 119.598265,96.148569 93.4126384,96.1361015 C93.4126384,96.1361015 121.816793,107.916534 151.677572,97.4043266 C151.677572,97.4043266 147.876014,104.502162 128.941988,112.218525 C128.941988,112.218525 206.808653,98.18424 195.154281,44.9132456 C202.644843,8.21156689 169.641554,3.63432026 169.446576,3.57752372 L168.475494,3.30005533 L168.985277,3.99622501 C168.985277,3.99622501 188.3619,22.0886228 144.061295,30.9977135 C139.575061,33.1275836 134.091079,37.1684839 142.924672,55.3544575 C142.924672,55.3544575 145.961901,54.798267 148.154801,54.8509077" id="path50" fill="#100F0D"></path>
                        <path d="M169.179563,3.82479644 L169.127961,3.75445878 L169.375927,3.82548908 C169.381121,3.82683973 169.415753,3.83414709 169.476706,3.84457133 C171.828221,4.23889167 183.915147,6.72484832 190.945796,16.965229 C195.881207,24.1538003 197.212116,33.5393585 194.901467,44.8619902 C194.894541,44.8969686 194.894887,44.9333322 194.90216,44.9683106 C197.605536,57.3246739 195.646402,68.5793922 189.079129,78.4197383 C184.173156,85.7703875 173.853156,96.3241534 152.550992,104.85714 C143.527269,108.472378 135.487443,110.519478 131.516534,111.415408 C148.191165,104.172465 151.754801,97.8057118 151.904758,97.525885 C151.955321,97.4320322 151.942161,97.3170538 151.873243,97.2363612 C151.803633,97.1553222 151.691771,97.1255387 151.592031,97.1608634 C125.69385,106.278093 100.614716,98.4602573 94.7785258,96.3740236 C105.461816,96.0606037 121.926923,91.9016427 141.865624,74.7584397 C142.26978,74.4110804 142.624758,74.1059722 142.754975,74.0107341 C149.391511,74.2732449 154.167962,72.8020761 156.945797,69.634284 C160.253849,65.8621629 159.473243,61.1168816 159.438264,60.9167084 C158.02978,55.4251068 151.082594,54.6656263 148.161035,54.5932454 C148.161035,54.5932454 148.161035,54.5932454 148.160689,54.5932454 C146.2632,54.5478774 143.781468,54.9447605 143.071858,55.0666653 C138.92294,46.4796525 137.595494,40.3411245 139.012984,36.3026831 C139.97991,33.5490901 142.047789,32.2417308 144.143373,31.2440512 C161.402593,27.7690729 171.147355,22.5039302 173.107182,15.5944239 C173.851771,12.9692811 173.403632,10.0965885 171.811597,7.28761887 C170.674628,5.28096956 169.356879,3.99338518 169.179563,3.82479644 L169.179563,3.82479644 Z M168.475494,3.04247958 C168.392377,3.04247958 168.312723,3.08225101 168.263546,3.15259906 C168.200862,3.24323455 168.202593,3.36377134 168.267355,3.45251593 L168.777485,4.14853669 C168.786836,4.16138518 168.797572,4.17357565 168.809346,4.1846579 C168.864758,4.23619037 174.322074,9.42857119 172.610212,15.4569693 C170.704065,22.1680341 161.081554,27.3118262 144.010386,30.7450036 C143.989953,30.7490555 143.96952,30.7556702 143.950473,30.7647438 C141.850386,31.7620425 139.563287,33.1795316 138.52675,36.1319471 C137.051079,40.3341981 138.414196,46.6583538 142.692637,55.4670116 C142.7432,55.571254 142.855408,55.6287432 142.971079,55.607964 C143.001209,55.6020765 146.003806,55.0573146 148.148568,55.1089164 L148.148568,55.1089164 C156.566576,55.3174012 158.49558,59.3156695 158.934715,61.025453 C158.938524,61.0517734 159.700429,65.716362 156.553762,69.2993922 C153.873243,72.352206 149.212117,73.7617298 142.704412,73.4926389 C142.550992,73.4867514 142.532637,73.5054527 141.529347,74.367444 C120.856101,92.1423354 103.967097,95.8780928 93.4344565,95.8780928 C93.3000842,95.8780928 93.1854522,95.9574002 93.1601708,96.0855387 C93.1359284,96.2060582 93.200344,96.326924 93.3139371,96.3740236 C93.3852791,96.4038071 100.568655,99.3499542 111.309088,100.96727 C121.067356,102.436015 135.816793,103.074976 151.035494,97.8992183 C150.486923,98.6393049 149.331252,100.002075 147.203113,101.75411 C144.191512,104.233417 138.561728,108.019738 128.844672,111.979564 C128.722767,112.029781 128.657659,112.163807 128.694369,112.290214 C128.731425,112.417313 128.860603,112.494543 128.987702,112.472378 C129.095754,112.452984 139.929001,110.46753 152.73281,105.340257 C164.561381,100.602941 180.543026,92.1371406 189.507181,78.7071842 C196.146489,68.7598251 198.13506,57.3901284 195.417831,44.911514 C197.742679,33.47051 196.381294,23.9704929 191.371077,16.673281 C184.222333,6.26109075 171.949779,3.73648476 169.562247,3.33576788 L169.501987,3.32575922 L168.546143,3.05208304 C168.522593,3.04558953 168.499043,3.04247958 168.475494,3.04247958 L168.475494,3.04247958 Z" id="path52" fill="#100F0D"></path>
                        <path d="M181.960169,65.7690027 C181.960169,65.7690027 178.308913,56.3175743 162.824585,59.9667517 C162.824585,59.9667517 159.59965,51.3392195 147.809866,51.6502152 C147.731252,51.6741113 144.321035,41.3149773 147.938351,37.6197393 C152.413503,33.0489689 167.228048,32.4519819 176.972463,37.5255402 C189.320861,43.9522067 192.209173,34.0901117 193.687614,29.8538867 C193.687614,29.8538867 197.406748,46.4297824 181.960169,65.7690027" id="path54" fill="#A68145"></path>
                        <path d="M169.218004,45.4112543 C169.218004,45.4112543 170.258351,47.7852802 171.79532,47.0614707 C171.79532,47.0614707 172.356706,46.2836352 172.09558,45.286579 C172.09558,45.286579 170.68571,46.8138516 169.218004,45.4112543 Z M168.571424,46.1693495 C168.02216,44.715843 168.595667,43.2675314 169.855234,42.9326396 C171.113416,42.6005184 172.583892,43.5116872 173.137312,44.9648474 C173.298004,45.3859729 173.361727,45.8122932 173.341294,46.2067521 C173.368654,47.2457131 173.492983,49.1556698 170.616792,50.9277909 C170.616792,50.9277909 168.586316,51.7329857 168.463372,51.4081372 C168.463372,51.4081372 171.267528,50.0526394 170.857831,48.2161027 C169.897139,48.020778 168.982853,47.2450205 168.571424,46.1693495 L168.571424,46.1693495 Z" id="path56" fill="#100F0D"></path>
                        <path d="M192.861294,26.0679128 C192.845017,26.0428738 192.243112,20.5201726 188.844671,18.0612982 C188.844671,18.0612982 192.150991,22.0107007 191.603112,30.3840685 C191.603112,30.3840685 193.023372,27.8476876 192.861294,26.0679128" id="path58" fill="#FFFFFF"></path>
                        <path d="M148.871685,66.9568814 C148.447096,66.2178338 146.89939,66.2566217 145.412637,67.0465784 C143.925884,67.8365351 143.066663,69.0770546 143.491598,69.8171411 C143.915148,70.557574 145.466663,70.5170545 146.950646,69.7264052 C148.436014,68.9374875 149.295234,67.698007 148.871685,66.9568814" id="path60" fill="#FFFFFF"></path>
                        <path d="M109.494023,97.311859 C109.494023,97.311859 152.48242,104.388222 172.160342,84.5153226 C189.500948,69.2557558 174.533329,51.5258862 150.569693,72.5679636 C127.091599,94.9741968 109.494023,97.311859 109.494023,97.311859" id="path62" fill="#FFFFFF"></path>
                        <path d="M158.653849,90.2978332 C158.653849,90.2978332 155.382853,98.6694348 150.971425,102.628223 C150.971425,102.628223 196.281207,88.0723788 193.398437,52.3754099 C193.398437,52.3754099 186.890039,69.0555827 177.969519,72.8124657 L158.653849,90.2978332" id="path64" fill="#FFFFFF"></path>
                    </g>
                </g>
            </g>
        </g>
    </g>
</svg>