<?xml version="1.0" encoding="UTF-8"?>
<svg width="200px" height="200px" viewBox="0 0 200 200" version="1.1" xmlns="http://www.w3.org/2000/svg" xmlns:xlink="http://www.w3.org/1999/xlink">
    <!-- Generator: Sketch 54.1 (76490) - https://sketchapp.com -->
    <title>colorado-mines</title>
    <desc>Created with Sketch.</desc>
    <g id="colorado-mines" stroke="none" stroke-width="1" fill="none" fill-rule="evenodd">
        <g id="colorado-mines_BGL">
            <g id="colorado-mines" transform="translate(0.000000, 4.000000)">
                <g id="g10" transform="translate(99.999998, 96.686277) scale(-1, 1) rotate(-180.000000) translate(-99.999998, -96.686277) translate(0.000000, 0.607848)" fill-rule="nonzero">
                    <g id="g12">
                        <path d="M4.31296068,189.08725 C10.9697056,185.503917 16.1925486,179.768623 20.2883328,173.623525 C28.4819601,170.449015 31.0408816,162.051957 36.2645089,155.906859 C43.2280381,151.401957 49.8847046,146.178428 57.1564692,142.389212 C67.1928415,144.33431 74.974704,139.315683 83.6795077,137.268624 C86.3422527,139.726467 89.3121546,143.002938 91.7708801,146.076467 C89.3121546,153.85882 91.3598997,162.768623 97.7105858,167.68431 C102.83039,167.070584 106.209801,161.33431 107.541174,156.931369 C112.047056,155.087251 117.269605,152.527447 119.318624,147.5098 C125.564703,145.871565 133.142154,141.773526 134.781369,134.810781 C136.00882,128.870585 132.937252,122.112742 138.0598,117.810781 C139.275487,116.338232 138.490193,113.666664 138.93333,111.795095 L141.887251,109.95784 C147.051957,107.684311 152.243133,102.374507 155.212741,97.7673505 L155.419604,99.6274485 C156.853918,109.35588 161.305878,117.605879 166.732349,125.698036 C167.607839,126.279409 168.269604,125.388232 168.269604,124.467644 C168.677447,110.848036 168.474506,97.9434289 168.474506,84.117645 C169.600976,82.4804881 171.749015,82.3762725 173.390192,81.4548999 C176.564701,95.5890172 181.993133,109.10588 193.053917,119.755879 C193.972544,120.165683 194.365681,120.08235 194.589211,118.527448 C194.468623,111.817644 194.177446,96.2017623 190.081368,86.0639194 C188.389211,80.9823509 185.299015,76.4744099 184.06176,71.1852923 C184.06176,71.1852923 184.200976,69.6197041 183.527446,66.7099003 C183.055878,64.7912729 182.58725,62.7979396 182.215682,60.7655867 C179.701956,58.2459789 181.18529,55.528528 181.449995,52.3716654 C181.501956,51.7853909 181.639211,50.6843125 181.200976,49.8716654 C181.179407,49.4902929 179.951956,48.1215674 178.826466,48.2471557 C178.399015,46.9684302 179.517643,44.5362734 180.046074,43.3590185 C182.095093,41.8237244 180.762741,38.9560775 181.480388,36.9079403 C181.788231,33.8342148 186.292152,30.5579404 182.502937,27.589215 C183.312741,25.8264699 181.643133,23.5884308 182.03529,22.1618622 C182.189211,21.598921 182.659799,21.1626465 183.732348,20.9325485 C183.732348,20.9325485 186.878427,19.8352936 188.149995,19.5568623 C188.913721,19.3910779 189.750976,19.0628427 189.878427,21.2393132 C189.878427,24.8226464 192.333329,25.6430386 192.333329,25.6430386 C189.494113,21.8784308 192.43725,20.5982348 190.595093,17.55098 C189.289211,15.7077447 188.457838,15.8961761 187.477446,14.8587251 C187.151956,14.51098 186.930387,13.0599016 186.165682,13.4301957 C186.165682,13.4301957 173.237251,17.5264702 171.445094,16.0155878 C170.828427,14.0705879 169.472545,12.610686 167.218623,11.8941173 C164.147055,11.383235 160.664702,13.133431 157.229408,13.2893134 C153.315682,13.4616663 149.847055,14.2753918 148.811761,19.2930387 L148.265683,21.7459798 C147.911761,22.1530387 147.429408,22.4284308 146.865683,22.4678426 L139.311761,24.4400974 C138.289212,25.9753915 139.568624,29.4304895 140.004898,30.0470581 C140.338232,31.2243129 144.945094,29.9441169 144.945094,29.9441169 C146.379408,31.2733326 147.68333,33.3233325 147.890192,35.269607 C141.642153,39.2647049 135.600977,45.407842 136.00882,53.1900967 C134.88333,58.0047044 139.526467,64.1647043 134.063722,67.9381356 C131.675487,69.4577434 130.172546,69.4746061 127.713722,69.1686257 C124.93333,68.4344101 119.010781,66.5039199 116.143134,63.0204886 C116.961762,55.4449986 116.042154,46.5341165 119.829409,39.87745 C119.93235,28.6129405 128.125487,19.8058819 134.781369,11.1009801 C134.88333,9.87166642 135.702938,8.64315665 135.090193,7.41383315 C132.73431,6.39016651 129.149997,6.90103904 129.149997,3.31762737 C127.100977,1.16650977 123.312742,2.19133328 120.548036,2.29396073 C116.247056,3.41949991 115.426468,8.02849 113.174507,11.1009801 C113.789213,16.9374506 109.28137,21.4441171 108.769605,27.0764699 C102.216664,37.8304893 98.836272,49.9138223 94.5347035,61.486273 C92.1805859,67.3246062 85.2163704,68.1430375 80.5047039,71.3166649 C76.7164687,73.364704 73.5404884,76.5391157 70.161959,79.5109784 L68.7277434,79.2038215 L62.0726455,70.0880375 C64.3244102,66.7099003 67.3969591,63.5344102 71.1852923,62.3058808 C77.1262726,55.955881 83.3731352,50.8345085 88.9032331,44.5883322 C88.8009782,43.6664695 90.233233,42.1311754 88.3899978,42.1311754 C85.3186253,41.1067637 81.6318607,40.9018617 78.2521549,41.4147048 C76.9213706,43.3590185 74.974704,45.407842 74.8732334,47.5578419 C73.2341158,49.5048027 71.0830374,47.7646066 69.2409787,48.9920576 C67.7052924,47.8664694 69.8545081,46.9439204 69.9571551,45.8164694 C72.1074492,40.4921559 78.8667627,35.8835285 75.7943118,29.5331365 C73.0292139,28.3049993 68.011665,27.689215 65.5537239,30.0470581 C62.4816651,33.5282345 64.6319592,39.1608814 60.8425475,42.3360774 C55.0049986,46.7401949 54.4937241,54.6254888 48.0418615,57.3893123 C45.1742146,59.0296064 41.4874499,60.5649004 39.9517637,63.944116 C39.2344108,73.0568609 45.5840185,81.3530372 41.1799009,89.7498997 C35.2400972,94.5638212 34.2156854,101.426468 29.6078424,106.751958 C27.7646071,108.594115 28.7890189,111.154899 30.8371561,112.178429 C31.0408816,115.351958 28.7890189,119.143134 31.3492149,121.702938 C36.9818618,127.744114 42.8190185,133.991173 49.9873517,137.268624 L50.8068615,138.191173 C40.3603911,146.48529 27.2526464,149.352937 16.8072545,158.364702 C12.198235,165.53431 9.43321545,173.521564 4.51784302,180.48529 L2.05997054,188.371564 C2.36749014,189.293133 3.59681364,189.599015 4.31296068,189.08725" id="path14" fill="#122341"></path>
                        <path d="M3.49839207,191.295093 L3.49839207,191.295093 C1.98491172,191.295093 0.658700964,190.369603 0.199907838,188.991172 L0,188.391172 L0.188419603,187.78725 L2.64552935,179.900976 L2.73782346,179.606858 L2.91590189,179.353917 C5.49172535,175.704898 7.43489197,171.8098 9.49256839,167.68627 C11.210588,164.242153 12.9875487,160.680388 15.1577447,157.304898 L15.3113722,157.065682 L15.5261761,156.880388 C21.2059799,151.980388 27.6298032,148.843134 33.8415678,145.80882 C38.6661755,143.452938 43.2617636,141.20882 47.4923518,138.223526 C40.7395088,134.645095 35.2535285,128.765683 29.9360777,123.061762 C27.5429405,120.644115 28.1035287,117.615683 28.5547052,115.180389 C28.6814699,114.497056 28.8036267,113.837252 28.8583326,113.23137 C27.7324503,112.338232 26.9703915,111.094115 26.7494111,109.733331 C26.4928425,108.149997 26.9952934,106.622546 28.1659797,105.421566 C29.9402934,103.35686 31.1511757,101.016664 32.4329404,98.5401936 C34.2291168,95.0693113 36.0846069,91.483233 39.6147049,88.4998997 C41.6762735,84.2508802 40.6437245,79.989998 39.4535284,75.0765668 C38.5834304,71.4850963 37.6834304,67.7715669 37.9970579,63.789018 L38.0239206,63.4458808 L38.1667638,63.1322533 C39.7376461,59.6763711 43.0614695,57.8726456 45.7326459,56.4246064 C46.1899008,56.1764692 46.6383322,55.9333319 47.068038,55.6874496 L47.1664694,55.6314692 L47.2694106,55.5862731 C50.2029399,54.3305869 51.7076458,51.7080379 53.4500967,48.6706851 C54.9674496,46.0274498 56.6853907,43.0334303 59.6158809,40.804999 C61.0259789,39.5990186 61.2855867,37.7450971 61.586273,35.6008815 C61.9002926,33.3598031 62.256469,30.819509 64.0835278,28.7499993 L64.1371553,28.6891169 L64.1961749,28.6324503 C65.6609788,27.2265679 67.8335277,26.4844111 70.4783316,26.4844111 C72.5341158,26.4844111 74.8188217,26.9539209 76.5904883,27.7412738 L77.2468608,28.0334307 L77.5593118,28.6795091 C80.1647039,34.0628423 77.0365667,38.4834304 74.5236256,42.0354891 C73.462057,43.5344107 72.4578413,44.9540185 71.8527433,46.3656851 C71.8374492,46.4334302 71.8201943,46.5008812 71.8010766,46.5666655 C71.83941,46.5686263 71.876959,46.5698028 71.9151943,46.5716655 C72.117057,46.5824498 72.3181354,46.5919596 72.5172531,46.5919596 C72.7565668,46.5919596 72.9154884,46.5762733 73.0311746,46.54294 C73.4175472,44.6580381 74.6434295,43.0108813 75.7429393,41.5352931 C76.0512726,41.1205872 76.3568608,40.7119598 76.6341157,40.3067637 L77.1150961,39.6040186 L77.9576451,39.4764696 C79.2371549,39.2815676 80.5506843,39.1835284 81.8607823,39.1835284 C84.2992136,39.1835284 86.6716645,39.5285284 88.7419586,40.1834304 C89.9019585,40.2753911 90.5253899,40.8146068 90.8498017,41.2745088 C91.6276448,42.3744107 91.2021546,43.5753911 90.973135,44.2214695 C90.940586,44.3149009 90.895782,44.4420577 90.8693115,44.5293126 L90.948233,45.2374498 L90.3710762,45.8892145 C87.3127429,49.3432341 83.9890175,52.5076457 80.7743117,55.5675476 C78.0790177,58.1322534 75.2925471,60.7854887 72.617155,63.6450964 L72.2717629,64.0146062 L71.7899982,64.1704886 C68.6933316,65.1746062 66.2021552,67.7439199 64.4837239,70.0658806 L69.7388218,77.2649 C70.0708806,76.9676451 70.4013708,76.669704 70.7310767,76.3713706 C73.4398021,73.9322531 76.239704,71.4108806 79.4891157,69.6373512 C81.1282333,68.5462728 82.9592136,67.7332336 84.7307822,66.9450964 C88.160586,65.421665 91.4012722,63.9824494 92.7071545,60.7754887 C93.6955859,58.1147044 94.6548996,55.3714692 95.5824486,52.7175477 C98.6696054,43.890195 101.859801,34.7655874 106.867644,26.4334307 C107.192154,23.8254896 108.211762,21.5207838 109.199017,19.2880387 C110.389213,16.5961761 111.513723,14.0529408 111.224507,11.3066664 L111.145095,10.5537252 L111.593134,9.94215661 C112.171566,9.15402918 112.664703,8.20082332 113.187252,7.19209786 C114.521566,4.61588224 116.18235,1.40969604 120.050977,0.397135284 L120.259801,0.343137246 L120.474507,0.334329403 C121.005879,0.314798031 121.60784,0.255054896 122.244115,0.190334309 C123.173526,0.0968902917 124.135291,0 125.118624,0 C127.527448,0 129.309801,0.642233317 130.569605,1.9646176 L131.110781,2.53331366 L131.110781,3.31762737 C131.110781,4.18428421 131.189212,4.38725479 133.444114,4.89812733 C134.242154,5.07927438 135.067644,5.26654889 135.871565,5.61581359 L136.526467,5.89997044 L136.845095,6.53913709 C137.589212,8.03155862 137.194114,9.45389192 136.93333,10.3941174 C136.841173,10.7246076 136.753918,11.0370585 136.735291,11.2626468 L136.689212,11.8351958 L136.339212,12.2920585 C135.489212,13.4038232 134.613722,14.5174506 133.73431,15.6372545 C127.903918,23.0568622 121.873526,30.729509 121.790193,39.895097 L121.785291,40.4040186 L121.534311,40.8471558 C119.011762,45.2796067 118.75784,51.0822536 118.513723,56.6942143 C118.43235,58.5646064 118.349017,60.491371 118.180389,62.3491161 C120.966664,65.1363709 126.259801,66.7470572 128.088232,67.239214 C128.811761,67.3264689 129.313722,67.3648022 129.746075,67.3648022 C130.705879,67.3636258 131.58431,67.1863709 132.978428,66.3048023 C135.268624,64.70392 135.016663,62.6432337 134.376467,59.1479397 C134.010781,57.1468613 133.631369,55.0803908 134.038232,53.0247046 C133.799997,46.2725479 137.9098,39.7020578 145.670585,34.387254 C145.386271,33.6262737 144.90784,32.8254894 144.310781,32.1166659 C143.461761,32.3008815 142.297055,32.5057835 141.313722,32.5057835 C139.295095,32.5057835 138.517644,31.5812737 138.219604,30.8685286 C137.536271,29.5891169 136.117644,25.7007837 137.679408,23.3528426 L138.094114,22.7305877 L138.816663,22.5421563 L146.371565,20.5695093 L146.528428,20.5292152 L146.898036,18.8667642 C148.197055,12.5704899 152.805879,11.5226468 157.142153,11.3303919 C158.405878,11.2725487 159.724506,10.9570585 161.119604,10.6215684 C162.719604,10.2374507 164.374506,9.84029387 166.03431,9.84029387 C166.555878,9.84029387 167.062741,9.88048995 167.540192,9.95980367 L167.679408,9.98313701 L167.813721,10.025686 C170.197055,10.7843135 171.942153,12.2813722 172.914702,14.3892153 C172.942153,14.3892153 172.970584,14.3892153 173.001956,14.3892153 C175.951956,14.3892153 182.918623,12.3961762 185.481368,11.5900977 C185.780388,11.4705879 186.089211,11.4097056 186.402937,11.4097056 C188.074505,11.4097056 188.741172,12.9599016 188.992152,13.543235 C189.006858,13.5764702 189.019603,13.6087251 189.033329,13.6393134 C189.181368,13.7695095 189.346074,13.8705879 189.615682,14.033431 C190.270583,14.4274506 191.166662,14.9666663 192.195093,16.4177447 L192.23627,16.4763721 L192.272544,16.5364702 C193.463721,18.5068623 193.241172,20.0960779 193.078427,21.2568622 C192.922544,22.3705877 192.828427,23.0430386 193.899015,24.4627445 L197.702936,29.5059797 L191.71274,27.5030385 C190.351956,27.0481366 188.080387,25.3079405 187.926466,21.6383328 C186.802937,21.9557838 185.068623,22.5421563 184.377446,22.7834308 L184.26274,22.8236269 L184.145093,22.848921 C184.074505,22.863823 184.013721,22.8795092 183.96176,22.8933328 C184.013721,23.1717641 184.127446,23.566568 184.21078,23.8560778 C184.456858,24.713921 184.766662,25.7943131 184.669603,26.9312738 C187.173525,29.7185287 185.496074,32.7979404 184.452937,34.7116658 C183.982348,35.5763717 183.495093,36.4694109 183.431368,37.1040187 L183.407839,37.3364697 L183.331368,37.5578422 C183.177446,37.9921559 183.194113,38.6833324 183.212741,39.4155872 C183.249015,40.9578421 183.298035,43.0285283 181.655878,44.5656852 C181.199995,45.6020577 180.945094,46.3116655 180.812741,46.7992145 C181.822544,47.3342145 182.732348,48.2234302 183.046074,49.1811752 C183.600976,50.3979399 183.480388,51.705685 183.413721,52.4295085 L183.402937,52.5440183 C183.330388,53.4126457 183.180388,54.2168614 183.03725,54.9942143 C182.622544,57.2265672 182.48529,58.2617632 183.603917,59.3803907 L184.03529,59.8139201 L184.145093,60.4136259 C184.513721,62.4322533 184.981368,64.4079396 185.431368,66.2423513 C185.997054,68.6852924 186.046074,70.3017629 186.032348,70.9942139 C186.703917,73.7128413 187.899015,76.2331353 189.16176,78.8970569 C190.145093,80.9715666 191.16176,83.1157822 191.922544,85.3863704 C196.143132,95.8873505 196.428426,111.723527 196.549995,118.492154 L196.552936,118.650977 L196.530387,118.80784 C196.158819,121.385291 194.828427,121.926468 193.779407,121.926468 C193.184309,121.926468 192.651956,121.723526 192.254897,121.547056 L191.941172,121.40784 L191.693132,121.168624 C182.213721,112.040193 175.925486,100.23137 172.004898,84.140194 C171.3098,84.3884293 170.794113,84.5933312 170.43529,84.8698018 C170.437251,88.0894096 170.449015,91.260684 170.46176,94.4048996 C170.499996,104.629409 170.53627,114.287252 170.230388,124.501958 C170.215682,126.378428 168.923525,127.844114 167.278427,127.844114 C166.715682,127.844114 166.151957,127.666663 165.648035,127.331369 L165.322545,127.114703 L165.103917,126.790193 C160.673525,120.184311 155.974506,112.233331 153.977447,102.70588 C151.069604,106.163723 147.10882,109.763723 142.80882,111.694115 L140.751957,112.972546 C140.73431,113.329409 140.739212,113.730389 140.743134,114.144115 C140.760781,115.68137 140.782349,117.593134 139.571565,119.058821 L139.45784,119.197056 L139.320585,119.312742 C136.830389,121.403919 136.812742,124.136271 136.989212,128.421565 C137.080389,130.63333 137.174506,132.921565 136.701957,135.20784 L136.696075,135.23333 L136.690193,135.259801 C134.600977,144.135291 124.872546,147.923526 120.726468,149.151957 C118.403919,153.819604 113.679409,156.461761 109.126468,158.395094 C107.401958,163.349016 103.578429,168.955878 97.9434289,169.631368 L97.1457819,169.726466 L96.5103897,169.23529 C89.9865664,164.18529 87.2805861,155.162741 89.6013703,146.512741 C87.4861743,143.930389 85.190292,141.425487 83.1147038,139.430389 C80.9769588,139.993134 78.8901941,140.719604 76.6976451,141.481369 C72.0240178,143.10882 67.1909787,144.790192 61.7386259,144.790192 C60.3125475,144.790192 58.8817632,144.671565 57.4743123,144.439212 C52.9423516,146.860781 48.5386262,149.905879 44.2743126,152.854898 C42.0929401,154.363722 39.839901,155.922545 37.5765677,157.393133 C36.1029403,159.164702 34.8506854,161.119604 33.5282345,163.18431 C30.5235286,167.877447 27.4203915,172.723525 21.581274,175.214702 C16.7711761,182.297054 11.3058821,187.527446 5.32820575,190.767642 C4.79357831,191.113721 4.16399009,191.295093 3.49839207,191.295093 L3.49839207,191.295093 Z M3.49839207,189.334309 C3.79136265,189.334309 4.07935284,189.253917 4.31296068,189.08725 C10.9697056,185.503917 16.1925486,179.768623 20.2883328,173.623525 C28.4819601,170.449015 31.0408816,162.051957 36.2645089,155.906859 C43.2280381,151.401957 49.8847046,146.178428 57.1564692,142.389212 C58.7350966,142.695094 60.2593122,142.829408 61.7386259,142.829408 C69.6649002,142.829408 76.3438216,138.994114 83.6795077,137.268624 C86.3422527,139.726467 89.3121546,143.002938 91.7708801,146.076467 C89.3121546,153.85882 91.3598997,162.768623 97.7105858,167.68431 C102.83039,167.070584 106.209801,161.33431 107.541174,156.931369 C112.047056,155.087251 117.269605,152.527447 119.318624,147.5098 C125.564703,145.871565 133.142154,141.773526 134.781369,134.810781 C136.00882,128.870585 132.937252,122.112742 138.0598,117.810781 C139.275487,116.338232 138.490193,113.666664 138.93333,111.795095 L141.887251,109.95784 C147.051957,107.684311 152.243133,102.374507 155.212741,97.7673505 L155.419604,99.6274485 C156.853918,109.35588 161.305878,117.605879 166.732349,125.698036 C166.925486,125.826467 167.1098,125.88333 167.278427,125.88333 C167.868623,125.88333 168.269604,125.184311 168.269604,124.467644 C168.677447,110.848036 168.474506,97.9434289 168.474506,84.117645 C169.600976,82.4804881 171.749015,82.3762725 173.390192,81.4548999 C176.564701,95.5890172 181.993133,109.10588 193.053917,119.755879 C193.345093,119.886272 193.582348,119.965683 193.779407,119.965683 C194.204897,119.965683 194.43627,119.591173 194.589211,118.527448 C194.468623,111.817644 194.177446,96.2017623 190.081368,86.0639194 C188.389211,80.9823509 185.299015,76.4744099 184.06176,71.1852923 C184.06176,71.1852923 184.200976,69.6197041 183.527446,66.7099003 C183.055878,64.7912729 182.58725,62.7979396 182.215682,60.7655867 C179.701956,58.2459789 181.18529,55.528528 181.449995,52.3716654 C181.501956,51.7853909 181.639211,50.6843125 181.200976,49.8716654 C181.180388,49.5067635 180.056858,48.2391164 178.973525,48.2391164 C178.924505,48.2391164 178.875486,48.2410772 178.826466,48.2471557 C178.399015,46.9684302 179.517643,44.5362734 180.046074,43.3590185 C182.095093,41.8237244 180.762741,38.9560775 181.480388,36.9079403 C181.788231,33.8342148 186.292152,30.5579404 182.502937,27.589215 C183.312741,25.8264699 181.643133,23.5884308 182.03529,22.1618622 C182.189211,21.598921 182.659799,21.1626465 183.732348,20.9325485 C183.732348,20.9325485 186.878427,19.8352936 188.149995,19.5568623 C188.392152,19.5040191 188.643133,19.4350976 188.874505,19.4350976 C189.373525,19.4350976 189.792152,19.753725 189.878427,21.2393132 C189.878427,24.8226464 192.333329,25.6430386 192.333329,25.6430386 C189.494113,21.8784308 192.43725,20.5982348 190.595093,17.55098 C189.289211,15.7077447 188.457838,15.8961761 187.477446,14.8587251 C187.188231,14.5499996 186.980387,13.3704899 186.402937,13.3704899 C186.329407,13.3704899 186.250976,13.3892154 186.165682,13.4301957 C186.165682,13.4301957 176.949996,16.3499996 173.001956,16.3499996 C172.272545,16.351078 171.724506,16.2511761 171.445094,16.0155878 C170.828427,14.0705879 169.472545,12.610686 167.218623,11.8941173 C166.830388,11.8294115 166.43431,11.8010781 166.03431,11.8010781 C163.266663,11.8010781 160.229408,13.1529408 157.229408,13.2893134 C153.315682,13.4616663 149.847055,14.2753918 148.811761,19.2930387 L148.265683,21.7459798 C147.911761,22.1530387 147.429408,22.4284308 146.865683,22.4678426 L139.311761,24.4400974 C138.289212,25.9753915 139.568624,29.4304895 140.004898,30.0470581 C140.110781,30.4178424 140.639212,30.5449992 141.313722,30.5449992 C142.782349,30.5449992 144.945094,29.9441169 144.945094,29.9441169 C146.379408,31.2733326 147.68333,33.3233325 147.890192,35.269607 C141.642153,39.2647049 135.600977,45.407842 136.00882,53.1900967 C134.88333,58.0047044 139.526467,64.1647043 134.063722,67.9381356 C132.402938,68.9950963 131.170585,69.32441 129.746075,69.3255865 C129.122546,69.3255865 128.462742,69.2608806 127.713722,69.1686257 C124.93333,68.4344101 119.010781,66.5039199 116.143134,63.0204886 C116.961762,55.4449986 116.042154,46.5341165 119.829409,39.87745 C119.93235,28.6129405 128.125487,19.8058819 134.781369,11.1009801 C134.88333,9.87166642 135.702938,8.64315665 135.090193,7.41383315 C132.73431,6.39016651 129.149997,6.90103904 129.149997,3.31762737 C128.125487,2.24226465 126.666663,1.96078426 125.118624,1.96078426 C123.569605,1.96078426 121.930389,2.24302936 120.548036,2.29396073 C116.247056,3.41949991 115.426468,8.02849 113.174507,11.1009801 C113.789213,16.9374506 109.28137,21.4441171 108.769605,27.0764699 C102.216664,37.8304893 98.836272,49.9138223 94.5347035,61.486273 C92.1805859,67.3246062 85.2163704,68.1430375 80.5047039,71.3166649 C76.7164687,73.364704 73.5404884,76.5391157 70.161959,79.5109784 L68.7277434,79.2038215 L62.0726455,70.0880375 C64.3244102,66.7099003 67.3969591,63.5344102 71.1852923,62.3058808 C77.1262726,55.955881 83.3731352,50.8345085 88.9032331,44.5883322 C88.8009782,43.6664695 90.233233,42.1311754 88.3899978,42.1311754 C86.3901939,41.4637245 84.1287234,41.1443127 81.8607823,41.1443127 C80.6464686,41.1443127 79.4304882,41.2354892 78.2521549,41.4147048 C76.9213706,43.3590185 74.974704,45.407842 74.8732334,47.5578419 C74.162057,48.403038 73.3544099,48.5527439 72.5172531,48.5527439 C72.0538217,48.5527439 71.5812727,48.5068615 71.1113708,48.5068615 C70.4741159,48.5068615 69.8410767,48.5910772 69.2409787,48.9920576 C67.7052924,47.8664694 69.8545081,46.9439204 69.9571551,45.8164694 C72.1074492,40.4921559 78.8667627,35.8835285 75.7943118,29.5331365 C74.392253,28.9097052 72.4115668,28.4451954 70.4783316,28.4451954 C68.5991159,28.4451954 66.7654885,28.8851954 65.5537239,30.0470581 C62.4816651,33.5282345 64.6319592,39.1608814 60.8425475,42.3360774 C55.0049986,46.7401949 54.4937241,54.6254888 48.0418615,57.3893123 C45.1742146,59.0296064 41.4874499,60.5649004 39.9517637,63.944116 C39.2344108,73.0568609 45.5840185,81.3530372 41.1799009,89.7498997 C35.2400972,94.5638212 34.2156854,101.426468 29.6078424,106.751958 C27.7646071,108.594115 28.7890189,111.154899 30.8371561,112.178429 C31.0408816,115.351958 28.7890189,119.143134 31.3492149,121.702938 C36.9818618,127.744114 42.8190185,133.991173 49.9873517,137.268624 L50.8068615,138.191173 C40.3603911,146.48529 27.2526464,149.352937 16.8072545,158.364702 C12.198235,165.53431 9.43321545,173.521564 4.51784302,180.48529 L2.05997054,188.371564 C2.26715681,188.992152 2.8929215,189.334309 3.49839207,189.334309 L3.49839207,189.334309 Z" id="path16" fill="#FFFFFF"></path>
                        <path d="M9.74149976,180.48529 L9.43321545,180.280388 C8.51217626,180.691172 7.48774491,181.918623 6.97533316,182.943133 C7.99977431,183.966662 7.79488216,182.123525 8.71783312,182.226466 C8.92195076,181.61176 9.6380978,181.202937 9.74149976,180.48529" id="path18" fill="#FFFFFF"></path>
                        <path d="M15.3730388,169.425486 C13.4275487,170.039211 12.4031369,172.701956 11.890686,174.341172 C13.7347055,173.214702 15.2703918,171.166662 15.3730388,169.425486" id="path20" fill="#FFFFFF"></path>
                        <path d="M20.2883328,168.913721 C23.2582347,166.352937 24.6924504,161.539212 28.3785287,160.822545 C30.5296071,161.949016 30.8371561,158.467643 32.3728423,157.340192 C39.2344108,149.6598 48.553136,145.768624 56.6441162,139.930389 C65.6563709,141.569604 74.1563707,137.575487 82.2464685,134.810781 C83.7821548,133.889212 82.4513705,132.351957 82.4513705,131.123526 C77.637449,125.08235 61.901469,123.534311 61.901469,123.534311 C58.2900966,125.630389 51.4165673,121.438232 50.2945085,120.780389 C49.5534301,120.389213 48.7357831,119.139213 48.7357831,119.139213 C46.312842,117.318625 42.8335283,117.05784 39.9517637,116.069605 C38.3797049,117.709801 39.4826461,119.812742 40.5836264,121.089213 C41.5467637,121.196075 41.8653911,121.903919 41.8979401,122.214703 C42.9140185,122.486271 43.1464695,122.952938 43.2421558,123.438232 C43.6481362,123.797056 44.3681361,123.948036 44.8939204,125.049997 C45.5323518,125.111762 45.9420577,125.28235 46.2917635,126.096075 C46.6363714,126.45882 47.1285282,126.423526 47.2299988,127.181369 C47.4567635,128.426467 46.2725479,128.23333 45.4767636,127.611762 C45.4767636,127.611762 44.1031362,127.344114 43.8453911,126.330389 C43.2873519,126.645095 42.215097,125.864703 42.2139205,125.402938 C41.650195,125.073526 40.9340186,125.397056 40.5798029,124.35686 C39.5350971,123.88333 39.5304892,123.888232 39.1865676,122.952938 C38.6734304,122.645095 37.6719598,122.602938 37.7887245,121.321566 C36.6238226,121.203919 36.6743128,120.063722 36.4694109,120.063722 C35.9249011,119.690193 35.9753913,119.093134 35.7505873,118.599017 C35.3427442,118.408821 34.9931364,117.825487 35.0333325,116.808821 C35.0333325,116.808821 34.1773521,116.196076 34.5488227,115.143134 C34.4549991,114.738232 34.3776462,114.330389 34.3191168,113.919605 C32.8849011,113.099997 32.6799992,115.249997 32.3728423,116.069605 C31.24696,121.395095 37.3916657,124.364703 39.9517637,127.437252 C44.9694106,132.047056 50.6020576,135.425487 56.4392143,138.191173 C56.3369594,140.341173 53.7767634,139.315683 52.4449006,139.930389 C45.9930381,144.437251 39.0296069,147.816663 32.0652933,151.197055 C32.0652933,154.576467 28.0709797,155.701957 25.7169601,156.931369 C21.9274504,157.954898 17.6255878,160.20882 16.0899016,163.997055 C16.8673525,164.971565 20.3905877,160.617643 22.5409798,160.106859 C23.4631367,160.514702 22.9507837,161.539212 22.5409798,162.051957 C21.7225485,164.304898 16.0899016,165.124506 18.8549015,167.992153 C18.8549015,167.992153 18.7706858,168.698035 18.8549015,169.220584 C19.0119603,170.194113 20.2883328,168.913721 20.2883328,168.913721" id="path22" fill="#BDBCBC"></path>
                        <path d="M106.10784,154.677447 C106.10784,154.677447 108.003919,149.316663 105.287252,149.045094 C103.854899,148.738232 101.80686,149.249996 101.192154,147.5098 C100.987252,146.588232 101.601958,145.051957 100.68039,144.642153 C98.5303897,144.949016 99.758821,148.020585 97.7105858,148.738232 C95.9689192,149.352937 93.8177428,147.406859 92.9990173,149.762741 C92.8967624,155.497055 93.5113702,161.233329 98.2225466,164.714702 C102.83039,163.793133 104.98137,158.672545 106.10784,154.677447" id="path24" fill="#FFFFFF"></path>
                        <path d="M104.878429,151.70882 C105.596076,149.6598 102.839213,149.625486 102.421566,149.557839 C100.852939,149.414702 100.922546,151.25882 100.314703,152.046075 C100.048037,152.388231 99.6539191,152.531369 98.9401936,152.219604 C98.4274485,151.197055 98.0745074,150.036271 96.5376446,149.730388 C95.6089192,149.625486 94.9445074,149.557839 94.7396055,150.479408 C94.5347035,154.165682 94.8429388,159.082349 97.7105858,161.847055 C102.421566,161.233329 103.854899,155.701957 104.878429,151.70882" id="path26" fill="#122341"></path>
                        <path d="M113.687252,149.762741 C112.354899,149.496075 112.798036,148.7098 112.70784,148.079408 C112.659801,147.741173 110.999997,147.146075 111.620585,146.112741 C111.723527,145.493134 110.483331,145.286271 110.897056,144.355879 C110.720585,143.760781 109.759801,143.944114 110.070585,143.014702 C109.348036,142.394114 109.376468,141.842153 109.244115,141.051957 C108.118625,138.696075 104.878429,136.040193 104.878429,136.040193 C104.264703,139.418624 103.149017,146.628428 103.149017,146.628428 C105.197056,146.628428 107.186272,147.266663 108.211762,149.212741 C109.030389,151.055879 107.541174,152.629408 109.28137,153.653918 C109.759801,153.964702 114.095095,152.424506 113.687252,149.762741" id="path28" fill="#FFFFFF"></path>
                        <path d="M97.5057819,144.847055 C98.2225466,141.364702 99.0401936,137.678428 98.7352916,133.991173 C96.2752917,132.863722 95.9689192,136.654899 93.5113702,136.244114 C92.2840173,139.315683 94.4324486,142.491173 95.9689192,144.847055 L97.5057819,144.847055" id="path30" fill="#FFFFFF"></path>
                        <path d="M129.659801,139.726467 C132.074507,137.435291 133.142154,135.527448 133.347055,132.761761 C132.88431,132.431369 132.422546,132.271565 131.972546,132.155879 C130.936271,132.270585 130.827448,131.705879 130.421565,131.548036 C129.698036,131.649997 129.542154,131.573526 129.178428,131.030389 C128.565683,131.13333 128.024507,130.815683 127.920585,130.099997 C127.713722,128.25686 130.212742,125.246075 128.637252,125.184311 C127.713722,126.311762 127.631369,129.170585 126.178428,128.870585 C124.738232,127.623526 128.249997,124.005879 126.998036,123.239213 C125.564703,122.45686 125.773526,127.93235 123.810781,126.795095 C123.640193,126.753918 123.602938,126.175487 124.016664,124.83235 C124.016664,124.83235 125.35882,121.942154 124.542154,122.009801 C123.413722,122.009801 123.619605,124.467644 122.493134,125.388232 C121.434311,126.071565 121.639213,125.039213 121.696075,124.471566 C121.180389,124.005879 120.504899,122.869605 119.986272,123.593134 C116.402938,127.177448 111.330389,128.665683 107.746076,131.53431 C107.849017,133.991173 111.433331,136.756859 111.433331,136.756859 C112.293134,137.15784 113.48333,136.260781 114.413723,135.899016 C114.780389,135.754899 115.10686,135.696075 115.358821,135.828428 C115.611762,135.962742 116.164703,136.299997 115.85686,136.918624 C115.343134,137.841173 112.558821,138.191173 113.687252,139.726467 C114.272546,140.188232 114.836272,140.900977 115.441174,140.947055 C116.061762,141.25784 119.165683,139.239212 120.853919,138.700977 C121.263722,138.905879 122.286271,139.522546 121.571566,140.136271 C121.571566,140.136271 118.651958,141.686271 117.428428,142.035291 C116.164703,142.394114 117.301958,143.014702 117.301958,143.014702 C120.401958,146.526467 126.178428,142.594114 129.659801,139.726467" id="path32" fill="#FFFFFF"></path>
                        <path d="M100.413723,139.877447 C100.413723,139.877447 100.626468,140.830389 101.289213,141.051957 C101.738233,141.35882 102.425488,140.740193 102.607841,140.268624 C103.251958,138.591173 103.083331,135.446075 102.737252,135.060781 C101.80686,134.027448 101.203919,134.455879 100.884311,135.016663 C100.566664,135.575487 99.9548995,137.965683 100.413723,139.877447" id="path34" fill="#FFFFFF"></path>
                        <path d="M71.9025472,136.244114 C72.8244099,134.503918 74.3611746,136.449016 75.5894099,135.527448 C76.1017628,134.810781 77.9446059,135.117644 77.3299981,133.58235 C73.3367629,134.196075 69.0349002,135.221565 65.5537239,137.678428 C65.3489199,138.396075 66.4759787,138.396075 66.9879395,138.700977 C68.8299983,137.678428 71.0830374,138.088232 71.9025472,136.244114" id="path36" fill="#122341"></path>
                        <path d="M87.3667625,136.040193 C87.9813703,135.117644 87.4690174,134.094114 86.6494096,133.58235 L86.4445076,133.58235 C86.2397037,134.299016 86.547939,135.527448 87.3667625,136.040193" id="path38" fill="#FFFFFF"></path>
                        <path d="M90.9325467,99.9833308 C87.5946057,102.441174 79.8605862,106.314703 76.1017628,109.20686 C75.0773511,109.618625 74.0418609,110.224507 72.619508,109.20686 C69.7526453,106.05784 69.6353904,104.50588 68.3226454,101.319605 C67.8622532,101.514703 67.4371552,101.673527 67.2480375,101.815684 C65.9536258,105.077448 65.9999003,109.333331 68.0047042,113.629409 C69.0380375,115.55784 70.2083316,117.072546 70.2083316,117.072546 C70.2083316,117.072546 66.696567,116.797056 64.0996062,115.893134 C64.0996062,115.893134 63.7645082,114.215683 61.3545083,113.408821 C58.846077,112.240193 53.280881,110.604899 53.280881,110.604899 L49.2711752,105.521566 C47.735489,104.497056 45.6866655,105.213723 44.6622538,106.751958 C43.6385283,106.853919 42.8190185,106.648037 42.2043127,105.726468 C41.6923519,103.269605 41.8979401,100.197056 43.1265675,98.3529387 C44.0475479,97.226174 44.3547048,94.8720565 45.3783322,93.2314683 C45.3783322,92.4138212 45.3783322,91.6961742 44.6622538,91.2871546 C43.5362734,92.7205859 42.7155872,94.4611741 41.6923519,95.6916643 C39.6442147,97.431076 39.7468618,100.401958 37.6980383,102.346076 C36.9818618,101.835292 36.3679403,101.63039 36.2645089,100.60686 C38.1077441,96.8163701 40.2581362,93.2314683 43.4329401,90.0578409 C44.7645087,86.8834292 44.8671557,82.9913705 44.6622538,79.5109784 C44.7645087,73.774508 40.1554892,68.7576453 42.9216656,63.226469 C48.1441164,61.8972534 51.8313713,57.0833319 55.7222535,53.3949987 C57.1564692,49.0950968 60.331273,45.0999989 64.0173513,41.8237244 L66.2699003,41.6188225 C66.7831356,41.3128421 67.806763,40.7981362 67.5003905,39.87745 C64.3244102,39.2647049 65.5537239,35.8835285 65.5537239,33.7331364 C67.0895081,30.3538228 71.1852923,30.7636267 74.5649981,30.7636267 C75.9991157,31.0707835 75.0773511,32.6068619 75.3845079,33.5282345 C67.5003905,41.5157833 66.6808807,52.7814693 56.9515672,59.5400966 C55.4147045,63.6374494 51.8313713,67.7344101 53.9805869,72.3410766 C57.3613711,80.1245078 63.0962729,86.9864684 64.3244102,95.6916643 C65.246665,98.0450956 61.2522534,100.911762 64.7342141,101.835292 C67.6026454,99.1715661 64.939116,93.3345075 69.9571551,91.7992134 C69.5473512,88.8285272 73.0292139,90.0578409 73.1318609,87.2939194 L73.6439197,87.8048017 L74.3611746,95.8953898 C75.6556844,97.0730368 75.3079393,99.4970563 75.3079393,99.4970563 C75.3079393,99.4970563 76.119802,102.526468 75.9906844,102.868625 C75.8632334,103.208821 75.5894099,103.063723 75.5894099,103.063723 C75.5894099,103.063723 75.179606,102.909801 75.0773511,102.346076 C74.1563707,103.985292 75.7943118,105.726468 75.5894099,107.774507 L81.2220568,104.087252 C81.2220568,104.087252 82.2683313,104.002939 82.7481352,103.85686 C83.2869587,103.892154 90.3366644,99.3764681 90.3366644,99.3764681 C90.660586,99.6215661 90.7061742,99.8029387 90.9325467,99.9833308" id="path40" fill="#BDBCBC"></path>
                        <path d="M90.8478409,133.58235 C86.8543116,131.43235 80.1888215,125.630389 80.1888215,125.630389 C80.1888215,125.630389 77.0994098,122.83235 76.9615667,123.160781 L76.6130373,124.467644 C72.1074492,123.444115 63.7645082,122.136271 63.2999984,120.986271 C62.7887239,120.269605 63.3835278,118.792154 63.9981357,118.177448 C64.8199984,117.929409 66.296763,118.605879 71.0351943,118.93235 C74.4665668,122.200977 79.5067627,124.186271 81.5019587,124.578428 C81.9117627,124.271566 82.375194,123.563722 82.375194,123.051958 C80.8586254,121.871566 78.6431353,120.302938 77.8002922,118.476468 C77.1062726,116.971566 77.1461745,114.391174 78.047253,113.613723 C78.6094098,112.872546 80.0558804,111.701958 80.5047039,111.871566 C80.2999,112.690193 79.9935274,113.714703 79.0716647,113.613723 C79.0716647,116.479409 81.2220568,118.629409 83.1675469,120.474507 C86.752841,119.653919 89.2096056,116.172546 92.7941153,115.558821 C94.1260761,116.376468 95.2929388,118.836272 94.5347035,119.246075 L92.0128408,120.780389 C91.2642134,121.650977 92.4877428,121.799017 92.9637232,121.692154 C93.7553898,121.512742 94.6247035,120.665683 95.4568604,121.498036 C96.8450956,123.884311 90.4399977,125.922546 90.5414683,127.130389 C90.9245075,129.320585 95.3963702,125.070585 97.1369584,124.659801 L95.7651937,126.617644 C95.1198996,127.478428 96.2361741,127.775487 97.0833309,127.502938 C97.7489191,127.289213 98.5196054,126.994114 98.8352916,127.038232 C98.8352916,127.038232 100.038233,128.003918 100.243135,129.028428 C97.5803897,130.872546 94.3317623,133.787252 90.8478409,133.58235" id="path42" fill="#FFFFFF"></path>
                        <path d="M105.084311,131.53431 C104.699017,130.825487 103.872546,131.960781 103.046076,131.85784 C101.50686,131.938232 100.671566,131.464703 100.68039,131.840193 C101.090194,133.275487 104.572546,133.480389 105.084311,131.53431" id="path44" fill="#FFFFFF"></path>
                        <path d="M49.5775478,129.074507 C49.5775478,128.767644 49.5775478,128.051958 49.0663713,128.153918 C48.553136,128.051958 48.1441164,128.153918 47.8370576,128.665683 C47.6321557,129.588232 49.0663713,129.998036 49.5775478,129.074507" id="path46" fill="#122341"></path>
                        <path d="M95.2527427,114.124507 C95.0470564,109.721566 93.7162722,104.803919 93.5113702,100.401958 L93.3072526,100.401958 C92.2840173,110.848036 96.3787231,120.269605 101.908821,128.665683 C100.577448,123.954899 96.6869584,119.246075 95.2527427,114.124507" id="path48" fill="#FFFFFF"></path>
                        <path d="M105.751958,117.027448 C105.873527,116.019605 105.971566,115.73137 107.233331,115.535291 L108.398037,115.439213 C109.880389,115.190193 111.40588,106.702939 110.339213,105.926468 C109.829409,104.741174 104.93235,104.23235 103.835292,104.664703 C102.737252,105.095095 101.489213,112.228429 101.796076,113.013723 C101.975488,113.78137 103.001958,114.324507 103.001958,114.324507 C104.319605,115.245095 104.127448,115.826468 104.041174,116.686272 L102.669605,125.049997 C102.702939,125.670585 103.38039,125.670585 103.648037,126.20882 C105.076468,123.567644 105.679409,116.797056 105.751958,117.027448" id="path50" fill="#FFFFFF"></path>
                        <path d="M115.63235,114.328429 C112.968625,114.943134 113.890193,111.461762 111.740193,111.461762 C110.510782,113.613723 110.408821,116.376468 107.541174,117.299017 L105.800978,124.979409 L106.311762,125.698036 C110.100978,123.03333 116.961762,120.679409 115.63235,114.328429" id="path52" fill="#FFFFFF"></path>
                        <path d="M102.421566,118.016664 C102.216664,115.762742 99.1431348,114.328429 99.963723,111.871566 C98.836272,111.051958 98.0169583,112.485291 97.1974486,113.099997 C97.0940172,115.558821 102.114703,128.051958 102.421566,118.016664" id="path54" fill="#FFFFFF"></path>
                        <path d="M59.5833318,121.909801 C60.7858808,121.915683 61.4024494,120.48137 61.6437239,119.252938 C61.6437239,119.252938 62.6195082,116.349997 61.32392,115.840193 C61.32392,115.840193 60.2259789,114.935291 59.3949005,115.10686 C58.5639201,115.275487 59.2329397,115.678428 59.2329397,115.678428 C59.3842142,115.949017 60.3408808,116.053919 60.4078416,116.372546 C60.661371,117.578428 60.0383318,119.427448 59.5806848,120.261762 C59.2731358,120.820585 58.2555868,120.30686 57.6952927,120.466664 C57.4226456,120.541173 57.3027437,121.019605 57.3027437,121.019605 C57.4800966,121.284311 59.2743122,121.90686 59.5833318,121.909801" id="path56" fill="#FFFFFF"></path>
                        <path d="M166.324506,120.474507 C168.331368,109.440193 166.324506,90.9792134 166.324506,75.8226452 C166.426466,72.9538217 163.337251,73.211959 161.611761,73.774508 C160.179408,75.0038217 161.201957,77.3579392 161.611761,78.9981353 C165.7098,87.1913704 165.606859,96.5099976 165.811761,106.034311 C165.7098,110.028429 166.117643,113.408821 164.582349,116.787252 C162.033329,112.746076 161.3098,109.750978 159.873525,105.008821 C159.973525,104.190193 161.100976,104.087252 161.611761,104.497056 C161.51078,103.78039 161.715682,103.166664 162.123525,102.552939 C163.66078,102.141174 162.945094,103.985292 163.863721,104.497056 C164.582349,102.75588 164.377447,99.7872524 164.070584,97.635978 C163.046074,97.5337231 163.046074,99.2754877 161.818623,98.8647034 C160.999016,98.0450956 162.738231,95.2806839 160.38431,95.8953898 C158.748035,92.4138212 162.328427,89.5461742 161.100976,85.8598018 C159.461761,88.1115664 160.48627,91.9017624 158.439212,94.2554878 C156.595094,90.6724487 158.812741,87.3794096 159.155878,83.4539195 C159.155878,83.4539195 159.051957,82.3762725 159.155878,81.9665666 C153.111761,94.6660761 159.256859,108.799017 165.299996,119.755879 C165.543133,120.392154 165.811761,120.474507 166.324506,120.474507" id="path58" fill="#BDBCBC"></path>
                        <polyline id="path60" fill="#FFFFFF" points="124.738232 118.842154 124.635291 119.150977 127.114703 120.700977 127.202938 120.269605 124.738232 118.842154"></polyline>
                        <path d="M53.3965673,119.224507 C52.4754889,118.200977 52.7523516,116.684311 53.2644104,115.558821 C53.8637241,113.867644 55.210979,113.714703 56.4392143,114.328429 C57.0090182,114.33235 56.9752927,113.817644 56.6594103,113.63333 C56.1262731,113.326468 54.2612732,112.549997 53.7461751,112.933331 C51.8811752,113.887252 50.9046066,116.668625 51.4165673,118.409801 C51.8466654,119.221566 53.0480379,120.15784 53.3965673,119.224507" id="path62" fill="#FFFFFF"></path>
                        <path d="M123.721566,118.835291 C123.911762,117.086272 120.401958,116.155879 118.748036,114.193134 C117.301958,112.437252 115.837252,110.848036 115.426468,107.774507 C115.301958,113.511762 119.873526,117.086272 123.721566,118.835291" id="path64" fill="#FFFFFF"></path>
                        <path d="M57.1189201,118.709801 C57.9403907,119.10686 58.9890181,117.477448 58.1732338,116.895095 C57.7527437,116.419605 56.7072535,115.998036 56.1780378,115.974507 C55.8256849,115.958821 54.7954888,116.779409 55.210979,117.605879 C55.6169594,118.127448 56.4392143,118.651958 57.1189201,118.709801" id="path66" fill="#FFFFFF"></path>
                        <path d="M48.0418615,115.351958 C47.8370576,113.817644 46.19794,112.690193 44.8671557,112.178429 C40.8735284,110.540193 37.3916657,107.569605 33.0898031,106.751958 C32.0652933,107.466664 31.4506855,108.697056 32.0652933,109.721566 C36.9818618,112.690193 42.3058813,114.328429 48.0418615,115.351958" id="path68" fill="#FFFFFF"></path>
                        <path d="M192.23627,114.141174 C192.654897,111.643134 191.181368,99.8676446 190.581368,97.0596054 C188.931368,89.3332331 186.034309,82.8821548 184.871564,80.5598999 C184.599995,80.0176451 184.444113,79.7215666 184.449995,79.7158804 C183.724505,80.3086254 186.08725,83.5037234 183.220584,83.4010763 C183.527446,85.4499979 184.859799,87.5999978 183.93725,89.5461742 L182.502937,88.8285272 C181.993133,92.0048016 185.781368,95.2806839 183.015682,97.431076 C182.709799,98.8647034 184.449995,100.197056 183.527446,101.323527 C179.843133,97.7393113 178.715682,92.2078408 176.871564,87.2939194 C180.93627,104.792154 190.189211,114.592154 192.041172,114.966664 C192.123525,114.705879 192.18627,114.43137 192.23627,114.141174" id="path70" fill="#BDBCBC"></path>
                        <path d="M51.7287242,112.690193 C52.2323516,112.119605 49.7422537,109.026468 49.0663713,108.184311 C48.3885282,107.343135 47.5735282,107.925487 46.8125478,108.184311 C45.6043126,108.594115 48.970587,113.284311 49.9873517,113.613723 C50.8068615,113.919605 51.5238222,113.30588 51.7287242,112.690193" id="path72" fill="#FFFFFF"></path>
                        <path d="M107.911762,112.740193 C108.321566,111.716664 108.688233,108.158821 108.688233,107.479409 C108.980389,106.217644 105.098037,105.634311 104.901958,106.702939 C104.653919,107.216664 104.442154,107.921566 104.277448,108.678429 C103.994115,109.975487 103.843135,111.425487 103.854899,112.33235 C103.544115,113.516664 107.620586,114.661762 107.911762,112.740193" id="path74" fill="#122341"></path>
                        <path d="M136.317644,113.408821 L136.317644,112.896076 L135.295095,112.896076 L135.295095,113.613723 C135.600977,113.613723 136.114702,113.817644 136.317644,113.408821" id="path76" fill="#FFFFFF"></path>
                        <path d="M132.466663,112.369605 C136.669604,110.95588 140.235291,108.923527 144.920585,106.238233 C148.811761,103.269605 152.805879,99.0705858 154.955878,94.6660761 C155.264702,90.2638213 155.162741,85.040194 156.901957,80.9420568 C156.799996,77.7684294 152.702937,78.9981353 151.063722,77.0519589 C147.992153,71.9304884 140.926467,73.2617629 139.287251,67.2203905 C138.879408,67.016665 138.467644,66.9148022 138.0598,66.9148022 C136.317644,68.2459787 135.498036,71.2148021 133.142154,71.624508 C130.58431,72.0343119 128.637252,71.8282335 125.975487,71.8282335 C125.668624,74.2861746 130.071565,75.3109785 127.40784,77.9745079 C126.280389,79.0207823 124.70784,80.5127431 125.037252,81.9991156 C125.037252,81.9991156 125.803918,82.3422528 125.914703,83.3678411 C126.530389,86.235488 125.829409,92.2430369 125.462742,93.0285271 C125.462742,93.0285271 125.274507,94.3328408 123.721566,94.4190172 C123.721566,94.4190172 122.903918,104.702939 123.005879,109.20686 C126.031369,113.170585 129.23431,113.45588 132.466663,112.369605" id="path78" fill="#BDBCBC"></path>
                        <path d="M91.4364683,103.08137 C91.9412722,102.662743 91.1971546,101.809801 90.8478409,102.039213 C90.4994095,102.269605 81.7946058,107.391174 76.3066648,110.949997 C75.6920569,111.565683 76.119802,112.553919 77.0228412,112.383331 C77.0228412,112.383331 90.9340173,103.499997 91.4364683,103.08137" id="path80" fill="#FFFFFF"></path>
                        <path d="M107.335291,110.23137 C107.438233,109.310782 107.13235,108.287252 106.10784,108.697056 C105.58137,108.643135 104.673527,111.154899 106.10784,111.871566 C107.030389,112.178429 107.335291,110.949997 107.335291,110.23137" id="path82" fill="#FFFFFF"></path>
                        <path d="M119.829409,111.871566 C120.298036,111.198036 120.193134,109.440193 119.262742,109.440193 C118.444115,109.440193 118.498036,110.949997 118.804899,111.461762 C119.05686,112.125487 119.421566,112.075487 119.829409,111.871566" id="path84" fill="#FFFFFF"></path>
                        <path d="M130.889212,110.438233 C131.453918,109.95784 130.626467,108.614703 130.005879,108.923527 C129.497056,109.128429 128.024507,109.413723 128.227448,110.23137 C128.227448,110.23137 128.095095,110.899017 128.637252,111.461762 C129.178428,112.022546 130.172546,110.949997 130.889212,110.438233" id="path86" fill="#122341"></path>
                        <path d="M82.8599979,110.548036 C85.2067626,109.011762 92.3346055,104.617644 92.3346055,104.617644 L92.3766644,103.764703 C92.3766644,103.764703 81.1539195,110.591174 81.1539195,110.717644 L82.8599979,110.548036" id="path88" fill="#FFFFFF"></path>
                        <path d="M87.1618606,110.23137 C87.3215664,109.813723 85.9363704,109.580389 86.1374488,109.926468 C86.2542135,110.097056 86.8543116,110.641174 87.1618606,110.23137" id="path90" fill="#FFFFFF"></path>
                        <path d="M134.576467,108.697056 C135.379408,108.614703 134.347055,107.374507 133.93333,107.270586 C133.521565,107.167644 132.278428,107.892154 131.763722,108.303919 C131.247056,108.716664 132.117644,109.721566 132.117644,109.721566 C132.591173,110.163723 133.722546,108.784311 134.576467,108.697056" id="path92" fill="#122341"></path>
                        <path d="M98.9401936,109.20686 C99.3421544,109.102938 99.4058799,108.713723 99.3725465,108.508821 C99.2725465,107.897056 97.8083309,107.549997 97.1974486,107.466664 C96.9933309,107.466664 96.7494093,107.454899 96.6869584,107.774507 C96.6869584,109.003919 98.6205858,109.358821 98.9401936,109.20686" id="path94" fill="#FFFFFF"></path>
                        <path d="M90.5414683,109.003919 C90.7911742,108.78137 89.2612723,107.902938 89.1073507,108.492154 C89.0563703,108.729409 89.9268605,109.10588 90.5414683,109.003919" id="path96" fill="#FFFFFF"></path>
                        <path d="M139.695095,106.034311 C140.028428,105.204899 136.830389,105.93137 135.805879,106.751958 C135.172546,107.167644 135.702938,107.569605 136.00882,108.184311 C136.721565,109.130389 138.879408,107.160782 139.695095,106.034311" id="path98" fill="#122341"></path>
                        <path d="M121.058821,107.261762 L121.776468,95.178429 C122.076468,93.4799977 119.386272,93.693331 119.318624,94.4611741 C118.804899,98.4568603 117.886272,102.552939 118.601958,106.751958 C119.010781,107.261762 120.649997,108.900978 121.058821,107.261762" id="path100" fill="#FFFFFF"></path>
                        <path d="M100.68039,107.261762 C101.854899,106.878429 99.5431348,105.588233 98.4274485,105.008821 C97.311174,104.43137 97.7105858,105.008821 97.7105858,105.008821 C98.4274485,105.93137 99.5539191,106.751958 100.68039,107.261762" id="path102" fill="#FFFFFF"></path>
                        <path d="M57.1239201,104.199017 C58.0564691,104.08137 57.4839201,103.518625 57.6474495,103.126468 C57.8293123,102.689213 57.946175,102.235292 57.823626,101.868625 C58.4068613,101.170586 57.8944103,100.851958 58.1732338,100.121566 C58.5091162,99.2382328 60.331273,96.9190172 60.331273,96.9190172 C60.9677436,95.9279388 60.9677436,94.6449976 59.6140181,95.6916643 C58.6385279,96.9752917 57.5612731,98.5558799 56.0753908,99.6548995 C55.1440182,99.1892132 54.8778418,99.1519583 54.9111751,100.470586 C54.5618614,100.121566 53.7461751,100.703919 54.065979,101.738233 C53.1640183,101.518625 53.8044104,102.354899 53.6875477,102.660782 C52.8144104,102.799997 53.2904889,103.736272 53.1897046,103.975488 C52.8901948,104.694115 52.7715673,105.350978 53.4693124,105.726468 C55.8436261,104.897056 57.1239201,104.199017 57.1239201,104.199017" id="path104" fill="#122341"></path>
                        <path d="M142.461761,105.521566 C142.973526,104.497056 142.666663,103.063723 141.746075,102.346076 C140.95882,101.898037 141.131369,102.68039 141.173526,103.035292 C141.680389,103.65588 141.746075,104.438233 141.746075,105.008821 C141.991173,105.515684 142.051957,105.623527 142.461761,105.521566" id="path106" fill="#122341"></path>
                        <path d="M101.604899,104.284311 C101.672546,104.28137 101.739213,104.274507 101.80686,104.264703 C101.884311,103.322546 100.935292,103.041174 100.243135,102.664703 C99.3078407,102.15588 98.0598015,101.339213 97.0098015,101.817645 C97.6539191,103.088233 100.171566,104.368625 101.604899,104.284311" id="path108" fill="#FFFFFF"></path>
                        <path d="M115.939213,103.78039 C116.247056,103.269605 115.63235,103.063723 115.119605,102.859801 C114.710781,103.166664 115.324507,103.679409 115.939213,103.78039" id="path110" fill="#FFFFFF"></path>
                        <path d="M145.841173,100.810782 C144.715683,100.911762 143.745094,101.963723 143.38333,102.552939 C143.022545,103.139213 143.689212,103.269605 143.689212,103.269605 C143.689212,103.269605 146.536271,102.209801 145.841173,100.810782" id="path112" fill="#122341"></path>
                        <path d="M104.539213,102.667644 C106.397056,101.518625 101.038233,99.6548995 100.167645,99.5823505 C99.8607818,99.7872524 99.963723,100.094115 99.963723,100.401958 C99.963723,101.200978 103.768625,102.537252 104.539213,102.667644" id="path114" fill="#FFFFFF"></path>
                        <path d="M80.2999,100.810782 C79.0716647,93.1303898 77.534802,85.5510763 77.8431353,77.2568608 C77.534802,76.7440177 77.0228412,76.7440177 76.6130373,77.0519589 L75.7943118,77.9745079 C74.1563707,86.0639194 76.5115667,94.3577427 78.5585274,101.835292 C79.3788215,102.039213 80.094998,101.528429 80.2999,100.810782" id="path116" fill="#FFFFFF"></path>
                        <path d="M147.377447,99.8892132 C147.377447,99.8892132 147.361761,99.3176446 146.865683,99.3764681 C146.517643,99.418625 146.352938,100.60686 146.352938,100.60686 C146.949996,101.486272 147.070585,100.401958 147.377447,99.8892132" id="path118" fill="#122341"></path>
                        <path d="M108.25784,97.9434289 C107.746076,98.3529387 107.233331,99.5823505 107.746076,100.401958 C107.951958,99.5823505 108.462742,98.8647034 108.25784,97.9434289" id="path120" fill="#FFFFFF"></path>
                        <path d="M117.372546,93.7449977 C116.442154,93.3096055 116.527448,92.4567624 116.48333,91.4253899 C116.527448,87.5501939 116.860781,84.117645 116.860781,84.117645 C117.065683,82.8891156 117.849997,81.4472529 119.386272,81.4472529 C120.615683,77.1442138 120.341173,71.7256845 118.601958,67.6301944 C116.349997,66.094116 114.095095,64.4557827 111.433331,63.7393121 C111.433331,66.094116 115.837252,67.3246062 114.913723,70.0880375 C112.662742,69.7813708 110.203919,68.0411748 109.486272,65.9922533 C104.98137,65.1727435 109.897056,61.7930377 108.975487,59.3351946 C111.433331,49.1969596 109.385291,37.4188226 115.426468,28.8166659 C119.93235,21.5452936 120.95784,12.6370585 127.713722,6.49318611 C128.53333,3.31762737 124.747056,4.34206852 123.005879,3.72663716 C121.263722,3.93229402 118.909801,3.93229402 118.396075,5.97924495 C118.396075,9.3608331 115.324507,11.8187252 116.349997,15.2991173 C115.324507,17.4479407 114.402938,19.4979407 112.251958,20.5215681 C111.638233,27.4861758 106.517644,32.6068619 104.878429,39.1608814 C105.902939,39.3657833 106.311762,37.1128422 107.746076,36.9079403 L110.203919,37.214705 C108.15686,38.5450971 108.359801,41.7214695 105.596076,41.8237244 L104.367644,40.5940186 C100.68039,43.9736264 101.499017,49.0950968 99.4509779,53.1900967 C96.9933309,58.9253907 95.4568604,64.9686258 92.2840173,70.3959786 C91.2584291,70.6008806 91.668233,69.1686257 90.8478409,69.1686257 C89.8242134,70.1910767 89.9268605,72.5459786 87.8787233,72.3410766 C86.6494096,72.6482335 86.4445076,74.7989197 84.7039195,75.0038217 C84.0893116,77.0519589 81.0171548,75.9255863 81.5292136,78.6909784 C80.9145078,79.9196058 79.4814686,78.1786255 79.4814686,79.9196058 C78.5585274,83.6059783 88.4084292,86.9519586 88.4084292,86.9519586 C93.6136251,88.5734292 95.3553898,89.3420566 100.884311,89.7498997 C102.319605,90.3664683 103.343135,91.7313703 105.596076,90.570586 C107.438233,89.9383311 108.359801,87.2939194 110.510782,88.8285272 C111.124507,89.6461742 111.704899,90.7077428 111.228429,91.7992134 C110.510782,93.2314683 108.462742,92.9254879 108.564703,94.6660761 C108.718625,95.9988211 113.174507,99.8892132 116.655879,99.8892132 C116.655879,99.8892132 117.168625,95.7919584 117.372546,93.7449977" id="path122" fill="#BDBCBC"></path>
                        <path d="M108.564703,91.4920565 L108.053919,90.9792134 C104.058821,93.5400957 99.5539191,95.4867623 95.9689192,98.6607818 L96.2752917,99.5823505 C100.475488,97.3288211 104.98137,94.5638212 108.564703,91.4920565" id="path124" fill="#FFFFFF"></path>
                        <path d="M89.1073507,94.973527 C86.6494096,93.2314683 83.8844097,92.310782 81.0171548,91.4920565 C80.7096058,94.0513702 81.2220568,97.0224486 82.2464685,99.3764681 C84.9088214,98.6607818 87.4690174,97.0224486 89.1073507,94.973527" id="path126" fill="#BDBCBC"></path>
                        <path d="M96.4812721,95.4867623 C95.9689192,95.4867623 95.3553898,95.2806839 95.0470564,95.6916643 C95.0470564,96.2017623 95.7651937,96.716076 96.2752917,96.2017623 C96.583527,96.1002917 96.4812721,95.6916643 96.4812721,95.4867623" id="path128" fill="#FFFFFF"></path>
                        <polygon id="path130" fill="#BDBCBC" points="177.078427 80.9420568 181.788231 94.973527 177.589211 80.9420568"></polygon>
                        <path d="M91.8647036,93.7354879 C93.3072526,93.7365663 94.9540172,91.2449977 94.3814682,90.578233 C94.0418604,90.1822526 92.5099977,90.015684 90.7061742,89.5795076 C89.4710762,89.2792135 86.2741155,87.8891154 84.4887234,86.8148998 C82.1783313,85.2018606 80.3611745,85.1038214 80.0873509,86.3970567 C79.7886255,88.1893115 81.8366646,89.5128409 83.1587234,90.2362723 C83.1587234,90.2362723 88.2800958,93.5661741 91.8647036,93.7354879" id="path132" fill="#FFFFFF"></path>
                        <path d="M118.462742,91.0370565 C119.242154,93.0185271 123.05686,93.3517624 123.969605,91.3518605 C124.086271,91.0941154 124.15686,90.793135 124.164703,90.4499977 C124.369605,88.0950958 124.421566,85.5862724 124.421566,85.5862724 C124.635291,82.8557822 118.874507,82.5980372 118.702938,84.9031351 C118.369605,86.5716645 118.339213,89.8559781 118.339213,89.8559781 C118.336272,90.3017624 118.346075,90.7383311 118.462742,91.0370565" id="path134" fill="#FFFFFF"></path>
                        <path d="M141.439212,85.652939 L141.232349,84.835292 C137.035291,84.4255861 134.678428,88.4195076 130.685291,89.0341154 C129.762742,89.443135 129.762742,90.570586 130.172546,91.2871546 C134.678428,91.1852918 138.978428,89.1371546 141.439212,85.652939" id="path136" fill="#122341"></path>
                        <path d="M122.146075,91.1802918 C123.00784,91.143135 123.312742,90.8126448 123.375487,89.052939 C123.40784,87.2782331 124.130389,84.7334293 121.776468,84.6293116 C119.318624,84.3225469 119.471566,86.4392135 119.318624,88.3176449 C119.214703,89.3420566 119.087252,90.6694095 120.034311,90.9792134 C120.766664,91.115586 121.626468,91.2040173 122.146075,91.1802918" id="path138" fill="#122341"></path>
                        <path d="M122.03235,88.3176449 C122.03235,88.3176449 122.129409,87.5658802 121.63235,87.4942135 C121.110781,87.4176449 120.829409,87.7557821 120.95686,88.620586 C121.103919,89.3098997 122.146075,89.2459782 122.03235,88.3176449" id="path140" fill="#FFFFFF"></path>
                        <path d="M108.975487,83.9139195 C108.975487,82.9913705 109.180389,81.9665666 108.769605,81.1481352 C107.13235,82.3762725 107.335291,86.3705861 104.058821,85.652939 L104.058821,87.5999978 C106.414703,87.4988213 107.849017,85.7567626 108.975487,83.9139195" id="path142" fill="#122341"></path>
                        <path d="M67.7052924,83.4010763 L67.7052924,81.4548999 L59.818822,69.8832335 C59.2042142,68.1430375 60.023724,66.3001944 61.0481357,64.9686258 C63.8124494,62.7155867 67.5003905,62.6118612 70.161959,60.2569593 C75.9991157,55.1363712 80.2999,49.0950968 86.6494096,45.0999989 C87.0592135,44.4883322 87.1618606,43.8705871 87.1618606,43.0518617 C83.6795077,43.3590185 79.8912725,41.2086264 77.8431353,44.5883322 L78.047253,45.3059793 C79.5837235,44.9969597 80.8122529,44.7932342 82.2464685,45.5116655 C82.5536254,46.7401949 81.2220568,46.7401949 80.5047039,47.0461753 C79.2765666,47.0461753 78.1495079,46.9439204 77.0228412,46.5341165 C75.9991157,50.1187242 72.1074492,51.0400968 69.4447041,52.883332 C65.8612729,55.3419594 63.5060768,59.4382338 59.4101946,60.5649004 C57.3613711,62.8166651 56.1320574,65.6832337 56.4392143,68.6539199 C58.3857829,69.9873512 59.4101946,72.7500962 61.3545083,74.2861746 C60.6384299,75.3109785 62.7887239,75.8226452 61.3545083,76.232351 C61.3545083,76.5391157 61.1497044,77.0519589 61.5594102,77.2568608 L62.2767631,76.0274491 C63.1977435,77.4616647 64.3244102,79.1007823 65.246665,80.4323509 C64.7342141,81.8657823 65.9627434,88.8285272 67.7052924,83.4010763" id="path144" fill="#BDBCBC"></path>
                        <path d="M47.8370576,77.0519589 C47.8370576,74.5951942 48.0418615,71.7256845 45.8915675,69.8832335 C47.1197047,68.3478414 44.5596067,68.1430375 44.6622538,66.9148022 C45.5840185,66.3001944 47.428038,66.4000964 47.3246067,64.9686258 C46.3001949,63.6374494 45.4817636,65.3776454 44.3547048,65.1727435 C43.842646,66.811763 43.1265675,68.8587238 44.3547048,70.3959786 C46.6084302,74.0804883 44.9694106,77.9745079 46.6084302,81.6598019 C48.0418615,81.0462725 47.8370576,78.3835275 47.8370576,77.0519589" id="path146" fill="#122341"></path>
                        <path d="M123.269605,81.5334293 C124.122546,80.2087235 124.522546,77.5566647 125.975487,76.5391157 C126.555879,76.0274491 124.550977,75.3017628 123.721566,75.8226452 C121.819605,76.9665667 120.240193,80.8501941 121.263722,81.6598019 C122.75784,82.1713705 122.826468,82.0086254 123.269605,81.5334293" id="path148" fill="#FFFFFF"></path>
                        <path d="M179.533329,78.282351 C179.125486,79.4067627 180.065682,81.7459783 180.559799,81.6598019 C180.762741,80.8421548 180.352937,79.2038215 179.533329,78.282351" id="path150" fill="#BDBCBC"></path>
                        <path d="M103.343135,78.9981353 C103.445095,78.4853902 103.343135,78.0775471 102.83039,77.7684294 C100.68039,80.022547 97.9154877,78.6909784 95.4568604,77.9745079 C94.9445074,77.4616647 94.4324486,76.7440177 93.5113702,77.0519589 C92.2840173,78.8958804 95.1493113,79.8157823 95.7651937,80.9420568 C97.4023505,81.1481352 98.836272,81.6598019 100.68039,81.4548999 C101.601958,80.6360764 102.83039,80.1245078 103.343135,78.9981353" id="path152" fill="#122341"></path>
                        <path d="M181.788231,71.3166649 C182.299995,69.4746061 181.993133,67.3246062 181.277446,65.6832337 C177.384309,69.1686257 172.877447,71.4196061 168.269604,73.0568609 C167.578427,73.2429393 167.347055,74.0804883 167.961761,74.5951942 C168.269604,74.6958805 169.591172,74.4577432 169.329408,75.8049981 C169.279408,76.3950961 168.429408,76.5215667 168.204898,76.6176451 C167.453917,76.4303902 168.080388,79.554998 168.474506,79.9196058 C168.953917,80.5537235 169.4098,80.5548999 169.892153,80.4913705 C171.180388,80.322449 171.764702,80.1187235 173.901956,78.9981353 C176.974505,77.0519589 179.533329,74.2861746 181.788231,71.3166649" id="path154" fill="#BDBCBC"></path>
                        <path d="M157.198035,77.1851941 C158.557839,77.6490177 159.496074,77.7350961 159.067643,76.9665667 C155.996075,75.3450962 153.01078,74.9007824 150.553918,72.3410766 C149.937251,71.7616649 149.529408,71.624508 149.117643,72.3410766 C148.872545,73.7381354 153.583329,76.324704 157.198035,77.1851941" id="path156" fill="#BDBCBC"></path>
                        <path d="M171.515682,75.1175471 C171.515682,75.1175471 171.389211,74.1811746 170.931368,74.2861746 C170.391172,74.5568609 170.726466,75.5158805 170.726466,75.5158805 C171.079407,75.992253 171.58627,75.4863707 171.515682,75.1175471" id="path158" fill="#122341"></path>
                        <path d="M175.199996,73.4458805 C175.199996,73.4458805 175.119603,72.8481354 174.826466,72.9147041 C174.479407,73.087057 174.696074,73.7009785 174.696074,73.7009785 C174.920584,74.0050962 175.246074,73.6814687 175.199996,73.4458805" id="path160" fill="#122341"></path>
                        <path d="M176.309149,72.8400962 C176.309149,72.8400962 176.24178,72.4284296 175.984781,72.4754884 C175.68287,72.5930374 175.871253,73.0135276 175.871253,73.0135276 C176.068368,73.2226452 176.350318,73.0008805 176.309149,72.8400962" id="path162" fill="#122341"></path>
                        <path d="M173.697054,73.774508 C173.494113,73.364704 172.890192,73.2429393 172.674505,73.5707825 C172.674505,73.5707825 172.268623,74.1666648 172.674505,74.7989197 C173.078427,75.4304883 173.890192,74.3677432 173.697054,73.774508" id="path164" fill="#122341"></path>
                        <path d="M124.029409,73.5707825 C124.294115,72.9538217 123.739213,69.4577434 122.800977,69.3727434 C122.03235,69.2853904 121.434311,69.4137238 121.263722,70.0880375 C121.179409,70.5649002 121.648036,74.3639197 122.493134,74.5951942 C123.312742,74.619704 123.927448,74.2861746 124.029409,73.5707825" id="path166" fill="#FFFFFF"></path>
                        <path d="M180.276466,61.8187239 C177.331368,63.8667631 174.722545,65.9922533 171.955878,67.2203905 C165.606859,69.8832335 158.029408,70.3959786 151.063722,68.6539199 C150.450977,68.4508806 149.171565,68.261763 149.83431,69.1686257 C153.728428,72.4441158 160.283329,72.1361747 165.502937,71.3166649 C171.238231,70.906861 178.613721,65.6587238 180.046074,63.5344102 C181.120584,61.9431357 180.276466,61.8187239 180.276466,61.8187239" id="path168" fill="#FFFFFF"></path>
                        <path d="M147.582349,69.3727434 C147.377447,67.8354885 146.148036,67.3246062 144.920585,66.9148022 C143.793134,66.5559787 143.076467,65.9922533 142.461761,67.2203905 C142.051957,68.8587238 143.896075,69.4746061 144.920585,70.0880375 C145.841173,70.3959786 147.582349,70.7031355 147.582349,69.3727434" id="path170" fill="#FFFFFF"></path>
                        <path d="M179.330388,59.5400966 C178.826466,57.4049986 179.555878,55.3469594 179.747054,53.4390183 C179.869603,52.2323516 180.451956,50.9344105 179.021564,50.0168615 C178.100976,49.5048027 177.078427,51.0400968 176.871564,49.5048027 L177.589211,45.0999989 C170.422545,45.8164694 162.63627,45.0999989 156.492153,41.8237244 C152.499016,41.7214695 152.396075,46.2266655 150.553918,48.4792145 C148.299996,53.4980379 147.070585,58.8235279 146.660781,64.4557827 C148.811761,67.016665 152.499016,66.6069591 155.467643,67.6301944 C164.582349,67.9381356 173.289211,66.3001944 179.330388,59.5400966" id="path172" fill="#BDBCBC"></path>
                        <path d="M167.246074,59.8479397 C168.269604,57.5949986 167.041172,54.0096065 170.213721,53.1900967 C170.422545,50.3236262 166.939212,52.4743124 165.502937,51.6540183 C163.764702,50.4266654 161.100976,50.6303909 158.950976,50.9371556 C157.2098,51.6540183 156.289212,53.0870575 155.672545,54.6254888 C155.570584,58.3118613 157.311761,62.1001945 160.587251,64.4557827 C160.587251,65.4801944 159.051957,65.9922533 159.666663,66.9148022 C163.457839,66.6069591 166.221564,63.226469 167.246074,59.8479397" id="path174" fill="#122341"></path>
                        <path d="M102.624507,61.7930377 C101.601958,60.5649004 100.577448,61.9971553 99.4509779,61.9971553 C98.4274485,63.5344102 96.0703898,64.8655866 96.2752917,66.4000964 C99.0401936,66.4000964 101.499017,64.149018 102.624507,61.7930377" id="path176" fill="#122341"></path>
                        <path d="M144.612741,63.944116 C146.250977,56.0589202 147.890192,48.1724498 152.805879,41.6188225 C152.702937,41.3128421 152.907839,40.7981362 152.499016,40.5940186 C149.732349,41.8237244 148.912741,45.0999989 147.582349,47.5578419 C145.328428,52.5765673 143.896075,58.2096064 144.202938,63.944116 L144.612741,63.944116" id="path178" fill="#FFFFFF"></path>
                        <path d="M142.153918,62.3058808 C143.38333,53.7029398 145.432349,45.407842 151.268624,38.6489206 C151.475486,37.8304893 150.961761,37.1128422 150.347055,36.9079403 C146.455879,37.72745 143.590192,40.9018617 140.721565,43.8705871 C137.238232,48.6841164 136.830389,56.5705868 139.287251,61.9971553 C139.901957,63.0204886 142.563722,65.1727435 142.153918,62.3058808" id="path180" fill="#BDBCBC"></path>
                        <path d="M163.354898,62.7155867 C164.683329,60.2569593 159.155878,59.8479397 161.406859,56.87843 C159.873525,57.0833319 158.539212,55.6499006 157.926467,54.6254888 C156.901957,57.1863711 158.439212,59.8479397 160.38431,61.7930377 C161.201957,62.4069592 162.123525,63.0204886 163.354898,62.7155867" id="path182" fill="#FFFFFF"></path>
                        <path d="M114.198036,61.7930377 C114.608821,54.3167633 115.221566,46.8420577 118.089213,40.3891166 C118.396075,29.2256855 124.950977,20.4197054 132.324506,12.3296075 C132.221565,11.1009801 133.551957,10.3845095 133.142154,8.9510586 C131.70784,7.41383315 129.659801,8.5412841 128.227448,8.9510586 C128.125487,9.46269584 127.40784,9.76945074 127.713722,10.3845095 C128.43235,10.588235 130.172546,9.87166642 129.659801,11.4077448 C129.967644,12.4322546 128.740193,12.8419605 128.227448,13.3540193 C127.303918,13.2529408 126.998036,12.8419605 126.487252,12.1254899 C124.439213,13.0468624 123.10686,15.0942153 123.005879,17.2449015 C120.853919,21.6490191 120.240193,26.871568 116.349997,30.3538228 C115.734311,31.8892149 117.78235,33.7331364 115.63235,34.4500972 C115.221566,35.3714697 115.63235,36.6011756 114.402938,37.214705 C114.402938,40.695097 113.584311,45.0999989 113.48333,48.2743125 C112.968625,50.0168615 114.812742,52.2687242 112.968625,53.7029398 C113.379409,54.6254888 114.198036,55.7529398 113.687252,56.87843 C111.433331,57.2882339 114.198036,60.8716651 111.228429,60.2569593 C111.740193,61.3832338 112.865683,62.1001945 114.198036,61.7930377" id="path184" fill="#BDBCBC"></path>
                        <path d="M154.443133,61.281371 C154.136271,58.4126456 152.293133,55.6499006 153.728428,52.6792144 C154.648035,50.4266654 157.106859,50.1187242 157.926467,48.2743125 C157.311761,47.8664694 156.18529,47.8664694 155.672545,48.4792145 C152.293133,50.6303909 151.986271,54.0096065 151.781369,57.3893123 C152.499016,58.7204887 152.090192,61.486273 154.443133,61.281371" id="path186" fill="#122341"></path>
                        <path d="M179.021564,41.1067637 C172.775486,42.6420578 164.992153,42.6420578 158.950976,40.1860774 L158.950976,40.5940186 C164.683329,43.0518617 173.082349,44.4883322 179.021564,41.4147048 L179.021564,41.1067637" id="path188" fill="#FFFFFF"></path>
                        <path d="M179.021564,38.4432343 C180.455878,36.0884305 181.379407,33.6304894 181.993133,31.0707835 C178.920584,30.2500973 181.993133,25.8471562 180.249015,23.3892151 C179.764701,22.391274 178.715682,22.6727445 178.305878,23.1843131 C172.467643,31.6843129 161.406859,25.8471562 153.521565,28.6129405 L153.215682,28.8166659 C153.521565,30.1490189 156.18529,30.1490189 154.443133,31.7880384 C153.728428,31.9929404 153.215682,31.479411 152.499016,31.2733326 C151.680388,32.8117639 153.267643,34.5254893 154.290192,35.4480383 C156.440192,35.1401952 157.617643,36.2154893 157.874506,37.8814696 C163.61078,40.6452931 173.18529,41.8237244 179.021564,38.4432343" id="path190" fill="#BDBCBC"></path>
                        <path d="M174.414702,37.214705 C174.619603,35.5755873 174.106858,34.0410776 172.877447,33.2226462 C172.381368,32.9311756 171.78529,32.9311756 171.649996,33.7331364 C171.749015,35.064705 173.597054,35.9861756 172.674505,37.4188226 C172.16078,38.1360775 170.163721,38.0510775 170.931368,39.3657833 C172.124506,40.1860774 174.002937,38.6489206 174.414702,37.214705" id="path192" fill="#122341"></path>
                        <path d="M70.8781355,35.4745089 C69.3424492,35.4745089 67.2954885,33.2226462 66.2699003,35.4745089 C66.0661748,38.7511755 68.9334296,36.0884305 70.4683316,36.4981363 C70.7766649,36.1909795 70.7766649,35.8835285 70.8781355,35.4745089" id="path194" fill="#122341"></path>
                        <path d="M170.012741,35.9861756 C170.504898,34.8943129 169.908819,33.102058 168.781368,33.2226462 C167.999996,33.5462737 168.465682,34.7008815 167.8598,35.2362736 C167.513721,35.542254 166.487251,35.2627442 165.502937,35.4745089 C164.020584,36.4303912 166.83627,37.1128422 167.551957,37.214705 C168.628427,37.3686265 169.396074,36.9079403 170.012741,35.9861756" id="path196" fill="#122341"></path>
                        <path d="M195.816662,35.4745089 C196.917642,34.6801952 195.510779,31.7880384 194.589211,30.3538228 C193.258819,31.8892149 191.541172,30.4549992 191.105878,29.3282346 C190.900976,30.9677443 187.956858,31.479411 189.158819,33.0166658 C189.982348,33.0166658 190.388231,31.9929404 191.105878,31.5824502 C192.230387,32.2989208 189.953917,35.3461756 191.799015,35.4480383 C192.821564,35.5755873 192.695093,31.7351953 193.564701,32.2989208 C194.48627,32.6313717 194.100976,35.064705 195.816662,35.4745089" id="path198" fill="#FFFFFF"></path>
                        <path d="M199.259799,32.0990188 C200.184309,31.3403914 197.61274,29.401764 196.814701,30.2049012 C196.216662,30.8038228 198.48823,32.9588227 199.259799,32.0990188" id="path200" fill="#FFFFFF"></path>
                        <path d="M198.83823,28.2804895 C199.248034,26.8458817 197.176466,26.9998032 197.176466,26.9998032 C197.176466,26.9998032 196.023525,26.7432346 195.766662,27.5106856 C195.356858,28.7399993 197.252936,28.8166659 197.252936,28.8166659 C197.76176,28.8166659 198.532348,28.6902934 198.83823,28.2804895" id="path202" fill="#FFFFFF"></path>
                        <path d="M160.38431,24.2080386 C160.693133,23.799019 160.587251,23.1843131 160.587251,22.6727445 L159.36078,21.9557838 L144.40784,25.1301955 C144.40784,25.1301955 141.489212,25.5912739 141.439212,26.3599013 C140.926467,27.0764699 141.336271,28.2031365 142.153918,28.3049993 C148.60882,27.689215 154.443133,25.9500974 160.38431,24.2080386" id="path204" fill="#FFFFFF"></path>
                        <path d="M166.324506,25.6430386 C166.324506,25.6430386 166.117643,23.6971563 165.095094,23.1843131 C163.967643,23.2862739 162.945094,23.799019 162.328427,24.6197053 C161.818623,25.7452935 163.557839,26.1549993 163.557839,26.1549993 C163.557839,26.1549993 165.7098,26.5648033 166.324506,25.6430386" id="path206" fill="#FFFFFF"></path>
                        <path d="M172.467643,25.1301955 C172.262741,23.5941171 172.057839,21.6490191 170.213721,21.2393132 C167.961761,21.2393132 167.653917,23.3892151 168.269604,25.1301955 C168.98627,26.9746072 171.341172,25.8471562 172.467643,25.1301955" id="path208" fill="#FFFFFF"></path>
                        <path d="M197.046074,25.4381366 C197.558819,24.5688229 196.63627,24.2080386 195.816662,24.4129406 C194.742152,24.9498033 194.896074,25.5403915 195.816662,25.8471562 C196.226466,25.9500974 196.739211,25.8471562 197.046074,25.4381366" id="path210" fill="#FFFFFF"></path>
                        <path d="M195.649995,23.4570582 C195.897054,23.0392151 195.452936,22.8656857 195.058819,22.9645092 C194.543132,23.2226465 194.617642,23.5060778 195.058819,23.653921 C195.255877,23.704019 195.502936,23.653921 195.649995,23.4570582" id="path212" fill="#FFFFFF"></path>
                        <path d="M189.032348,27.5520581 C189.120584,26.7930385 188.373525,26.8255876 187.870584,27.2197052 C187.288231,27.9178424 187.571564,28.2804895 188.306858,28.2107836 C188.622544,28.156764 188.946074,27.9304895 189.032348,27.5520581" id="path214" fill="#122341"></path>
                        <path d="M177.384309,21.7508818 C177.078427,20.5215681 176.258819,19.3960779 175.130388,18.7821564 C174.106858,18.4746074 173.289211,19.191176 172.877447,20.008823 C172.467643,20.7276465 173.390192,22.7753916 174.619603,23.3892151 C175.849015,23.4930386 176.46176,22.3655877 177.384309,21.7508818" id="path216" fill="#FFFFFF"></path>
                        <path d="M168.98627,16.0155878 C169.396074,14.3772545 167.961761,13.7638232 166.529408,13.8656859 C163.354898,14.4802938 160.102937,13.7638232 157.746074,16.6302937 C157.746074,16.6302937 157.056859,18.3459799 156.697055,17.0400976 C156.339212,15.7341173 156.492153,15.0942153 156.492153,15.0942153 C154.443133,14.9923526 151.986271,16.323529 151.063722,18.268627 C150.706859,19.5745093 150.655879,20.4197054 151.576467,21.4441171 C155.953918,23.1587249 162.431368,16.0155878 168.98627,16.0155878" id="path218" fill="#BDBCBC"></path>
                        <path d="M163.863721,21.2393132 C164.275486,20.6234309 163.557839,19.7028426 162.841172,19.7028426 L161.818623,20.2148034 C161.51078,21.2393132 163.046074,21.2393132 163.863721,21.2393132" id="path220" fill="#FFFFFF"></path>
                        <path d="M168.269604,19.7028426 C168.474506,19.0893132 167.551957,18.4746074 167.551957,18.4746074 C166.324506,18.1655878 165.7098,18.1655878 165.502937,19.2930387 C165.7098,20.6234309 167.551957,20.5215681 168.269604,19.7028426" id="path222" fill="#FFFFFF"></path>
                        <path d="M187.059799,16.6302937 C186.805878,14.9666663 185.988231,15.0942153 185.988231,15.0942153 C182.914701,15.6069604 176.819603,17.3989211 176.819603,17.3989211 C177.520584,18.9763721 177.807839,20.3469603 179.379407,20.4714701 C179.379407,20.4714701 187.093133,18.3697054 186.906858,18.268627 C186.906858,18.268627 187.316662,18.2943133 187.059799,16.6302937" id="path224" fill="#FFFFFF"></path>
                        <path d="M124.029409,7.20779394 C124.23333,5.7743528 122.493134,5.8773724 121.776468,5.26386261 C120.95784,5.7743528 118.804899,6.49318611 119.113723,8.23338215 C121.058821,8.64315665 122.391173,7.51685275 124.029409,7.20779394" id="path226" fill="#122341"></path>
                        <path d="M156.595094,38.2636265 C156.595094,37.4861755 155.965682,36.8569599 155.186271,36.8569599 C154.40882,36.8569599 153.778428,37.4861755 153.778428,38.2636265 C153.778428,39.0421559 154.40882,39.6713716 155.186271,39.6713716 C155.965682,39.6713716 156.595094,39.0421559 156.595094,38.2636265" id="path228" fill="#FFFFFF"></path>
                        <polyline id="path230" fill="#FFFFFF" points="44.9899989 50.9263713 44.0479401 50.9263713 44.0479401 47.235391 43.0675479 47.235391 43.0675479 50.9263713 42.1024499 50.9263713 42.1024499 51.5698026 44.9899989 51.5698026 44.9899989 50.9263713"></polyline>
                        <polyline id="path232" fill="#FFFFFF" points="50.0222537 47.235391 49.1337243 47.235391 49.1337243 49.7227439 47.8017635 47.235391 47.2970576 47.235391 46.0547047 49.7227439 46.0547047 47.235391 45.3806851 47.235391 45.3806851 51.5698026 46.0999008 51.5698026 47.7324498 48.403038 49.3842145 51.5698026 50.0222537 51.5698026 50.0222537 47.235391"></polyline>
                        <path d="M71.3457825,115.126468 C69.8751943,113.043134 68.2820571,108.141174 68.4046061,106.670586 C70.4879394,111.817644 73.7817629,112.700978 73.8488217,113.099997 C73.9193119,115.739213 75.5124491,118.925487 77.4732334,120.763722 C77.5299,120.823526 77.0477432,121.318624 77.1055863,121.376468 C74.777155,120.273526 72.6432335,116.964703 71.3457825,115.126468" id="path234" fill="#FFFFFF"></path>
                    </g>
                </g>
            </g>
        </g>
    </g>
</svg>