<?xml version="1.0" encoding="UTF-8"?>
<svg width="200px" height="200px" viewBox="0 0 200 200" version="1.1" xmlns="http://www.w3.org/2000/svg" xmlns:xlink="http://www.w3.org/1999/xlink">
    <!-- Generator: Sketch 54.1 (76490) - https://sketchapp.com -->
    <title>concordia-tx</title>
    <desc>Created with Sketch.</desc>
    <g id="concordia-tx" stroke="none" stroke-width="1" fill="none" fill-rule="evenodd">
        <g id="concordia-tx_BGL">
            <g id="concordia-tx" transform="translate(0.000000, 5.000000)">
                <g id="g10" transform="translate(99.999998, 95.693218) scale(-1, 1) rotate(-180.000000) translate(-99.999998, -95.693218) translate(0.000000, 0.412984)" fill-rule="nonzero">
                    <g id="g12">
                        <path d="M171.742179,87.6442456 C154.343359,58.5227714 129.598817,33.7274328 100.182298,15.9404716 L99.1946878,15.3427135 L98.2070772,15.9404716 C68.7887888,33.7285537 44.0412968,58.5280811 26.6404123,87.6536851 C14.4980527,107.978758 6.06584056,130.199407 1.69247783,153.101471 C3.88043648,124.595867 13.012979,90.8578148 28.4416512,66.2690249 C45.5938632,38.9334504 70.045426,16.0347489 99.1935078,0 C128.34218,16.0347489 152.793507,38.9334504 169.946308,66.2690249 C185.379346,90.8643045 194.51209,124.612976 196.69675,153.12684 C192.325659,130.211796 183.890851,107.978758 171.742179,87.6442456" id="path14" fill="#512884"></path>
                        <path d="M46.7549251,134.764598 C41.4841288,131.74041 38.5510905,128.242475 38.7571672,124.527431 C39.1532734,117.425956 50.8778158,111.254864 68.2749245,107.756339 C58.0461932,104.583478 51.5417686,99.9522099 51.6203527,94.9386407 C51.7198807,88.6766939 62.0601754,83.5044227 77.0182872,81.2507354 C75.0902636,80.8176971 73.3044229,80.3374611 71.7203522,79.8117974 C66.3622402,78.0277267 63.1368716,75.7634199 63.1864291,73.3469008 C63.2914438,68.086134 78.8790541,64.107963 98.0053073,64.4737447 C117.13451,64.8336267 132.548669,69.3940986 132.444834,74.6525055 C132.413566,75.9351013 131.474333,77.1280217 129.798817,78.2112075 C130.392327,77.581119 130.716811,76.9174022 130.73274,76.2247769 C130.824186,71.683774 117.514451,67.745721 101.014157,67.4389364 C96.7763988,67.3569305 92.7457204,67.5274319 89.0849535,67.8949836 C85.0879035,68.2967535 81.5557502,68.9439511 78.681414,69.7693198 C73.9345114,71.1356914 71.004128,72.9952784 70.9598802,75.102063 C70.9386413,76.3404111 71.9020631,77.5303815 73.6530955,78.6159272 C75.0359863,79.4702045 76.9309715,80.2536853 79.1917384,80.9474906 C84.717402,80.240706 90.8005877,79.9185821 97.1893781,80.0731543 C122.212386,80.6784641 142.388787,88.3138621 142.248964,97.1250713 C142.218286,99.2625344 140.984657,101.271384 138.791737,103.077284 C139.569318,102.028316 139.994097,100.913862 140.013566,99.7604695 C140.13333,92.1510301 122.720941,85.55693 101.120941,85.0359861 C97.1056023,84.9392309 93.1752189,85.0542752 89.4336261,85.3528002 C85.4737442,85.6678445 81.7309714,86.1923282 78.3244818,86.8902633 C67.6371665,89.0820037 60.2932138,93.0005876 60.2194675,97.7038324 C60.1616504,101.233036 64.4566356,104.594688 71.0572254,107.228906 C80.4082576,105.55693 91.2053075,104.629496 102.676694,104.702062 C137.359289,104.928611 164.969907,114.163419 164.349258,125.325661 C164.199996,128.032445 162.392916,130.601767 159.265483,132.94218 C160.395276,131.590557 161.039524,130.173448 161.11976,128.713861 C161.655453,119.071383 137.817106,111.095572 107.892623,110.905602 C102.384068,110.870204 96.9586996,111.100882 91.7657794,111.557519 C87.7179919,111.913272 83.817107,112.410617 80.1268417,113.027136 C62.8253672,115.916221 50.2454265,121.473153 49.8854855,127.958109 C49.8024766,129.444835 50.4228896,130.893802 51.61345,132.282003 C49.8573439,133.079643 48.2268425,133.907961 46.7549251,134.764598" id="path16" fill="#FBCE28"></path>
                        <path d="M109.54159,132.907961 C104.812387,132.900882 100.215927,133.083183 95.811797,133.425365 C99.7439503,149.266073 105.058404,159.443064 110.702062,159.625365 C116.433035,159.807076 119.33333,149.608256 120.361649,133.260764 C116.867254,133.037165 113.251915,132.913861 109.54159,132.907961 Z M162.177577,154.71681 C163.340409,153.362828 164.005896,151.942179 164.096161,150.479052 C164.616515,142.044834 146.027725,134.975218 120.830085,133.289672 C120.260174,158.901471 115.096162,176.768727 107.199407,176.51858 C100.598228,176.30619 92.6283163,163.684362 86.7604698,144.565188 C86.7640096,144.565188 86.7675495,144.565778 86.7675495,144.565778 C86.7675495,144.565778 86.7640096,144.565188 86.7604698,144.564008 C85.8112073,141.470203 84.9227117,138.192917 84.097343,134.784067 C76.5994081,135.968138 70.0336266,137.661353 64.8825942,139.72035 C64.0613553,140.048964 63.2772846,140.386427 62.5297919,140.73333 C56.6106771,143.474333 53.053332,146.759288 52.8366948,150.297931 C52.3751019,157.761648 66.8932137,164.158108 87.7050126,166.695571 C58.9956917,164.631854 36.4263118,155.617105 37.0236569,145.956339 C37.2582292,142.13451 40.7893205,138.236575 46.7549251,134.764598 C48.2268425,133.907961 49.8573439,133.079643 51.61345,132.282003 C59.4064882,128.74277 69.8743345,125.870203 81.8778741,124.305602 C81.2082576,120.653094 80.6147472,116.892622 80.1268417,113.027136 C83.817107,112.410617 87.7179919,111.913272 91.7657794,111.557519 C92.3097322,115.632445 92.9321511,119.53628 93.6206466,123.240115 C96.4135669,123.094392 99.2566347,123.011796 102.15103,123.017106 C108.54985,123.028316 114.792328,123.402357 120.73569,124.065484 L120.838345,124.076103 C147.910911,127.114451 168.602946,136.248374 168.035984,145.403536 C167.873152,148.115041 165.393506,152.362238 162.177577,154.71681 L162.177577,154.71681 Z M90.4277264,99.5144518 C90.4879033,100.192918 90.55398,100.863714 90.6188768,101.536281 C86.6271365,101.792918 82.7657796,102.166959 79.0737443,102.646015 C78.6513255,97.2613545 78.4112075,91.9893782 78.3244818,86.8902633 C81.7309714,86.1923282 85.4737442,85.6678445 89.4336261,85.3528002 C89.6660745,89.9085523 89.994688,94.6412956 90.4277264,99.5144518 L90.4277264,99.5144518 Z M89.2666644,62.3581105 C85.5616498,62.6324468 82.1463106,63.0820043 79.1421809,63.6772845 C80.9663697,44.6414148 85.597638,31.7457219 92.0182868,31.9515036 C94.5586997,32.0307957 99.3852483,35.7662528 101.902062,39.2270197 C100.526251,38.0028309 99.4684341,38.1517395 98.0979327,38.101474 C92.7693192,37.9320934 90.0171069,47.5315622 89.2666644,62.3581105 L89.2666644,62.3581105 Z M89.1327411,77.7427709 C85.3097324,77.9693196 81.6825938,78.3740393 78.3144523,78.9327414 C78.3669597,75.7675497 78.500883,72.723892 78.681414,69.7693198 C81.5557502,68.9439511 85.0879035,68.2967535 89.0849535,67.8949836 C89.0300863,71.0147475 89.0442456,74.2991132 89.1327411,77.7427709 L89.1327411,77.7427709 Z" id="path18" fill="#512884"></path>
                        <path d="M119.320941,189.763417 C82.1917384,192.90796 42.8664296,186.289081 8.71126822,171.51504 C5.77779337,170.246603 2.87287898,168.91209 0,167.51209 C13.5858994,174.132149 29.5559285,177.437754 44.3871965,179.725659 C82.7109124,185.636574 123.801767,183.759877 160.91799,172.264892 C173.51091,168.364598 185.764597,163.360468 197.455452,157.264893 C197.455452,157.264893 199.656632,168.447193 199.656632,168.447783 C199.864302,169.502651 182.618285,175.572267 180.90501,176.188786 C174.221825,178.595276 167.423595,180.683771 160.544539,182.456633 C147.424185,185.837753 133.354569,188.574627 119.320941,189.763417" id="path20" fill="#512884"></path>
                    </g>
                </g>
            </g>
        </g>
    </g>
</svg>