<svg width="200" height="200" viewBox="0 0 200 200" fill="none" xmlns="http://www.w3.org/2000/svg">
<path d="M102.274 166.605C85.9453 166.605 70.3092 162.003 55.8102 152.923C55.135 152.515 39.037 142.475 23.3475 125.4L23.2587 125.294C13.1841 112.625 2.75409 102.319 0 102.319V98.4634C2.75409 98.4634 13.0952 88.0867 23.0633 75.3291L23.1699 75.2047C38.8593 58.1294 54.9751 48.0903 55.6503 47.6816C70.1492 38.602 85.7853 34 102.097 34C129.531 34 149.343 46.8465 151.066 48.0014C173.152 59.6397 196.677 92.8131 197.672 94.2168L199.805 97.2551H154.673L154.104 96.4378C139.783 76.3241 122.53 66.1251 102.807 66.1251C81.5387 66.1251 64.9431 78.2786 64.7832 78.403L64.6233 78.5096C64.4989 78.5807 52.0967 86.221 51.6347 99.4406L51.7946 99.6006V100.4C51.7946 114.082 64.6766 122.024 64.801 122.113L64.9609 122.22C65.1208 122.344 81.7697 134.497 102.985 134.497C122.708 134.497 139.961 124.298 154.282 104.167L154.851 103.367H199.982L197.85 106.406C196.855 107.81 173.348 140.983 151.244 152.621C149.502 153.758 129.691 166.605 102.274 166.605Z" fill="white"/>
<path d="M185.358 110.883H158.901C145.842 128.296 130.366 138.513 112.935 141.267C109.754 141.765 106.467 142.031 103.198 142.031C80.5077 142.031 63.1836 130.02 60.9981 128.421C59.0969 127.23 45.1666 117.458 44.4203 101.164V100.276C44.4203 83.1827 58.8482 73.5345 60.8204 72.3085C63.0237 70.7093 80.33 58.6979 103.02 58.6979C106.29 58.6979 109.577 58.9467 112.757 59.462C130.188 62.2161 145.646 72.4328 158.724 89.8458H185.181C177.167 79.7889 161.727 61.9673 147.796 54.6823C147.619 54.5935 147.423 54.4691 147.245 54.3625C146.464 53.8294 127.985 41.4982 102.594 41.4982C87.6506 41.4982 73.276 45.7626 59.8787 54.1493C59.7188 54.2559 43.9583 64.0995 29.0863 80.2509C24.0045 86.6297 16.915 94.9808 10.625 100.347C16.9683 105.731 24.1289 114.135 29.2639 120.567C44.136 136.736 59.9143 146.58 60.0742 146.687C73.4892 155.073 87.846 159.338 102.789 159.338C128.18 159.338 146.659 146.989 147.441 146.456C147.619 146.331 147.796 146.225 147.992 146.136C161.904 138.762 177.345 120.94 185.358 110.883Z" fill="#701C45"/>
<path d="M102.274 166.605C85.9453 166.605 70.3092 162.003 55.8102 152.923C55.135 152.515 39.037 142.475 23.3475 125.4L23.2587 125.294C13.1841 112.625 2.75409 102.319 0 102.319V98.4634C2.75409 98.4634 13.0952 88.0867 23.0633 75.3291L23.1699 75.2047C38.8593 58.1294 54.9751 48.0903 55.6503 47.6816C70.1492 38.602 85.7853 34 102.097 34C129.531 34 149.343 46.8465 151.066 48.0014C173.152 59.6397 196.677 92.8131 197.672 94.2168L199.805 97.2551H154.673L154.104 96.4378C139.783 76.3241 122.53 66.1251 102.807 66.1251C81.5387 66.1251 64.9431 78.2786 64.7832 78.403L64.6233 78.5096C64.4989 78.5807 52.0967 86.221 51.6347 99.4406L51.6524 99.494C51.6524 113.176 64.6944 122.024 64.8188 122.095L64.9787 122.202C65.1386 122.326 81.8586 134.409 103.074 134.409C122.797 134.409 139.979 124.281 154.3 104.149L154.868 103.35H200L197.868 106.388C196.873 107.792 173.365 140.965 151.262 152.603C149.502 153.758 129.691 166.605 102.274 166.605ZM26.226 122.859C41.5423 139.526 57.6759 149.565 57.8358 149.672C71.7306 158.36 86.6738 162.767 102.274 162.767C129.211 162.767 148.987 149.494 149.183 149.37L149.378 149.263C166.88 140.095 186.07 115.787 192.484 107.223H156.823C141.862 127.888 123.738 138.353 102.985 138.353C80.9701 138.353 64.1613 126.413 62.7399 125.382C61.4428 124.583 48.2409 116.072 47.7967 101.129L47.779 101.04V100.24C47.779 84.7996 61.2473 76.0931 62.5799 75.2758C64.0014 74.2274 80.8102 62.3049 102.825 62.3049C123.579 62.3049 141.702 72.7704 156.663 93.435H192.324C185.91 84.8706 166.72 60.5636 149.218 51.3952L149.023 51.2886C148.827 51.1464 128.998 37.8913 102.114 37.8913C86.5316 37.8913 71.5707 42.2978 57.6937 50.9865C57.516 51.0931 41.3646 61.15 26.0661 77.7989C22.3881 82.4897 11.9225 95.4961 4.63753 100.418C11.9225 105.286 22.5124 118.204 26.226 122.859Z" fill="#701C45"/>
<path d="M90.6181 63.4065C90.6181 63.4065 89.9073 63.2822 87.6152 63.9218C88.326 62.9268 89.8896 61.0611 92.1817 59.9239C89.321 58.2182 91.0445 54.7889 93.3189 54.7889C92.7503 52.5146 91.6131 49.6539 93.8874 46.7932C94.7936 45.6738 96.1618 45.656 97.8853 47.9303C99.0225 42.2267 107.409 40.2722 106.841 44.2523C111.976 39.1173 115.583 42.7775 116.72 44.5011C117.857 46.2068 118.425 48.4989 115.583 50.2047C121.855 50.2047 121.855 55.3397 121.855 55.3397C121.855 55.3397 120.718 57.0455 118.994 57.0455C125.266 61.6119 121.268 64.4726 121.268 64.4726L90.6181 63.4065Z" fill="white"/>
<path d="M139.961 126.058C139.961 126.058 140.44 126.644 141.329 128.439C141.862 130.233 140.494 131.388 140.494 131.388C140.494 131.388 143.55 139.153 143.763 140.894C144.154 144.27 145.096 150.134 140.156 150.684C135.216 151.235 131.183 148.268 130.081 147.717C128.98 147.166 126.421 146.633 124.769 148.286C123.116 149.938 120.753 151.893 116.915 149.707C114.623 148.392 112.331 145.034 110.394 141.267C109.328 139.171 107.64 141.711 107.356 140.254C106.965 138.3 107.374 139.775 107.374 139.775L139.961 126.058Z" fill="white"/>
<path d="M48.9343 110.937C48.9343 110.937 45.8604 115.272 46.2336 120.461C46.6067 125.649 45.8249 126.804 47.4773 128.456C49.1298 130.109 50.2314 131.086 52.7368 134.515C55.2421 137.945 59.0623 137.056 59.7197 133.431C62.1362 133.36 62.7936 128.225 62.7936 128.225L62.8114 126.324L55.8818 119.75L55.171 118.861L48.9343 110.937Z" fill="white"/>
<mask id="mask0_11_242106" style="mask-type:luminance" maskUnits="userSpaceOnUse" x="43" y="44" width="110" height="108">
<path d="M84.7022 46.58C77.6837 49.3519 75.8536 93.1152 75.7825 93.1685L49.2544 90.5032C49.1478 90.5565 46.9268 106.477 46.5004 117.369C46.5004 117.369 37.1898 131.868 52.5949 136.79C68 141.711 65.086 118.151 65.086 118.151C67.0938 123.748 68.9595 124.796 68.9595 124.796C68.9595 124.796 72.371 126.679 76.0668 128.403C79.7626 130.127 94.3326 136.345 111.017 133.911C110.804 133.947 110.839 134.569 110.804 134.817C110.537 136.79 110.52 138.709 111.319 139.117C112.119 139.526 112.723 139.1 112.723 139.1C114.713 146.456 119.19 149.37 120.612 149.867C126.404 151.857 128.181 151.733 131.842 151.697C132.392 151.697 132.979 151.697 133.618 151.697C149.876 151.768 137.616 131.281 149.503 114.739L149.983 114.082L152.737 114.1L152.755 109.071L149.859 109.053L149.379 108.378C145.576 102.977 141.507 98.4457 137.208 94.7676C128.217 87.1095 144.51 45.1052 133.529 45.0519C133.512 45.0519 133.512 45.0519 133.494 45.0519C125.783 45.0519 90.0682 44.4656 84.7022 46.58Z" fill="white"/>
</mask>
<g mask="url(#mask0_11_242106)">
<path d="M117.786 130.748H118.817C118.817 130.748 116.88 129.451 117.786 130.748Z" fill="#231F20"/>
</g>
<mask id="mask1_11_242106" style="mask-type:luminance" maskUnits="userSpaceOnUse" x="43" y="44" width="110" height="108">
<path d="M84.7022 46.58C77.6837 49.3519 75.8536 93.1152 75.7825 93.1685L49.2544 90.5032C49.1478 90.5565 46.9268 106.477 46.5004 117.369C46.5004 117.369 37.1898 131.868 52.5949 136.79C68 141.711 65.086 118.151 65.086 118.151C67.0938 123.748 68.9595 124.796 68.9595 124.796C68.9595 124.796 72.371 126.679 76.0668 128.403C79.7626 130.127 94.3326 136.345 111.017 133.911C110.804 133.947 110.839 134.569 110.804 134.817C110.537 136.79 110.52 138.709 111.319 139.117C112.119 139.526 112.723 139.1 112.723 139.1C114.713 146.456 119.19 149.37 120.612 149.867C126.404 151.857 128.181 151.733 131.842 151.697C132.392 151.697 132.979 151.697 133.618 151.697C149.876 151.768 137.616 131.281 149.503 114.739L149.983 114.082L152.737 114.1L152.755 109.071L149.859 109.053L149.379 108.378C145.576 102.977 141.507 98.4457 137.208 94.7676C128.217 87.1095 144.51 45.1052 133.529 45.0519C133.512 45.0519 133.512 45.0519 133.494 45.0519C125.783 45.0519 90.0682 44.4656 84.7022 46.58Z" fill="white"/>
</mask>
<g mask="url(#mask1_11_242106)">
<path fill-rule="evenodd" clip-rule="evenodd" d="M112.758 51.253C114.606 51.1642 116.667 51.2175 118.213 51.946C118.923 52.2836 119.545 53.0476 118.995 53.9005C118.195 55.1265 115.494 55.6951 113.7 55.4641C115.761 56.4592 117.644 57.7918 118.995 59.6752C119.456 60.3149 120.132 61.1678 119.687 62.0917C119.226 62.4115 118.408 62.3227 117.733 62.2516C118.177 63.2644 119.226 63.7797 119.67 64.8991C119.812 65.2367 119.723 65.6987 119.901 66.0718C120.078 66.4272 120.771 66.8003 121.233 67.1557C122.157 67.9019 122.85 68.5061 123.65 69.4122C124.663 70.5494 125.302 71.6688 126.066 73.1436C126.688 74.3696 127.559 75.4357 127.15 77.4968C127.417 77.7456 127.63 77.2303 127.843 77.1059C128.98 76.484 129.496 77.3014 130.029 78.5096C130.331 79.1848 130.651 80.1088 130.651 80.6063C130.651 80.9439 130.579 81.5302 130.26 81.6191C129.904 81.5125 130.029 81.015 129.94 80.6774C129.851 80.322 129.798 80.0377 129.62 79.8245C129.069 79.8955 128.98 80.4286 128.678 80.7662C130.171 82.01 131.574 83.698 132.339 86.2921C132.676 87.4115 133.138 88.4776 133.422 89.7925C133.547 90.3611 133.724 91.0363 133.813 91.747C134.026 93.3639 134.044 94.43 133.031 95.2474C133.955 96.3668 133.867 99.3163 133.884 101.555C133.884 102.639 133.742 103.972 133.565 105.055C133.316 106.708 133.12 107.81 132.552 108.556C132.196 109.036 131.61 109.302 131.379 109.8C132.641 111.132 131.521 113.833 131.219 115.485C131.237 115.823 131.574 116.072 131.77 116.267C133.351 117.849 134.631 119.874 135.892 121.953C136.407 122.806 136.923 123.783 137.367 124.76C137.776 125.667 138.167 126.679 138.611 127.728C138.895 128.403 139.321 129.114 139.233 129.913C138.931 130.393 138.326 130.553 137.9 130.926C138.167 131.832 138.522 132.81 138.913 133.805C139.286 134.764 139.712 136.008 139.997 137.145C140.672 139.757 141.489 142.564 141.24 145.869C141.223 146.082 140.832 146.598 140.672 146.882C140.228 147.628 139.357 147.77 138.291 147.859C137.012 147.966 136.763 147.984 135.555 147.664C134.968 147.504 134.24 147.433 133.724 147.237C132.641 146.811 131.646 146.456 130.668 146.047C130.029 145.78 129.744 145.692 128.856 145.283C127.843 144.821 126.99 144.039 125.835 144.075C125.071 144.163 124.929 143.666 124.556 144.217C124.289 144.625 124.343 144.697 124.023 145.105C123.383 145.763 122.673 146.811 121.837 147.433C121.375 147.788 120.256 148.463 119.261 148.232C118.906 148.161 118.23 147.984 117.822 147.682C117.413 147.38 116.791 147.077 116.56 146.793C116.134 146.296 116.134 146.296 115.867 145.869C115.778 145.78 115.601 145.763 115.459 145.976C113.095 149.618 110.608 152.675 107.978 156.21C107.552 156.779 107.019 157.33 106.734 158.005C105.313 158.005 104.904 158.858 104.158 159.871C102.559 162.056 100.835 163.94 99.094 166.018C97.868 167.475 96.4821 168.95 94.9718 170.23C95.7713 172.628 96.2156 175.827 95.6647 178.563C95.2561 180.571 94.3676 182.223 93.7991 183.858C96.1445 183.236 98.4366 181.921 101.582 181.832C102.328 182.614 102.452 184.071 102.594 185.333C102.63 185.706 102.577 186.168 102.594 186.576C102.63 187.518 102.665 188.158 102.594 188.993C102.488 190.29 102.115 191.569 102.044 192.724C101.617 193.151 101.635 193.915 101.422 194.519C101.404 194.59 101.297 194.661 101.262 194.75C100.995 195.354 100.32 196.527 99.787 197.006C97.868 198.73 93.7102 198.659 90.8318 198.641C90.2099 198.641 89.6413 198.534 89.0372 198.57C86.3364 198.712 84.1509 199.832 82.1075 200.898C81.148 201.395 80.0109 201.839 78.8382 202.301C77.1857 202.959 75.7998 203.634 74.0052 203.083C73.1878 202.532 72.6015 201.058 72.3705 199.743C72.0684 197.984 72.3883 196.011 72.5304 194.057C72.7614 190.628 73.2056 187.376 73.5432 184.871C70.8247 185.048 66.7557 185.173 64.0372 184.409C63.1132 184.142 62.0827 183.751 61.5496 183.325C61.3897 183.183 61.0343 182.792 60.9277 182.632C60.1814 181.37 60.7145 179.896 60.7678 178.03C57.6406 178.243 55.153 179.736 52.9853 181.228C52.239 181.743 51.475 182.205 50.7998 182.703C50.3556 183.041 49.8936 183.876 49.1651 183.787C48.3478 183.698 48.1345 181.921 48.0812 181.21C47.7614 177.639 48.4366 175.009 49.4138 172.095C49.4849 171.864 49.6271 171.633 49.7337 171.402C51.3684 167.724 54.1047 164.704 57.4451 162.678C57.303 161.079 57.3918 159.586 57.5162 158.165C57.6939 156.228 58.7067 154.345 59.5418 152.568C60.4124 150.738 61.212 148.961 61.9583 147.344C63.6463 143.719 65.2987 140.361 66.5603 136.683C66.5425 136.186 65.5297 135.848 65.4764 135.279C65.4586 135.084 66.1694 133.609 66.3293 133.254C68.2838 128.847 70.185 123.446 71.1623 118.382C68.8168 117.387 65.6896 117.173 62.8289 116.676C62.5802 116.054 62.4736 115.272 62.2781 114.579C59.5596 115.219 58.5112 117.564 57.2141 119.643C58.0492 120.549 59.3108 121.811 60.1814 123.232C60.5901 123.908 61.0876 124.867 61.0343 125.72C60.9988 126.164 60.6257 126.644 60.5723 127.195C60.5013 127.941 60.8033 128.812 60.7323 129.522C60.679 130.02 60.217 130.891 59.7905 131.228C59.5418 131.424 58.8666 131.726 58.3158 131.69C57.8538 132.987 56.4323 135.031 54.5844 133.787C54.0691 133.449 53.6072 132.596 53.1807 131.921C52.0258 130.109 50.1957 127.959 48.6676 126.857C48.3833 126.2 48.561 125.596 48.5965 124.903C48.7209 122.273 48.2234 119.448 48.5965 116.96C48.7031 116.285 49.023 115.343 49.2895 114.544C49.8048 112.998 50.4266 111.647 51.0841 110.262C51.4394 109.515 51.7237 108.805 52.0969 108.236C53.5539 106.015 54.7266 103.918 56.61 102.088C57.2141 101.502 57.7294 101.075 58.4757 100.525C59.9505 99.4762 61.9938 98.4634 63.7706 97.7171C64.0194 97.1308 64.357 96.6333 64.5524 96.0114C67.5908 95.2296 70.8247 94.3767 74.3961 94.2346C74.9647 94.2168 75.551 94.199 76.1374 94.2168C76.6882 93.5594 76.2618 92.1024 76.9192 91.4094C77.5411 91.3739 77.9675 91.5515 78.3229 91.8003C78.8026 90.521 79.4956 89.4549 80.1175 88.3C79.0691 85.2438 80.4018 81.6901 81.5212 79.3447C82.4451 77.408 83.7067 75.5423 84.9504 74.1208C84.7905 73.268 85.0393 72.2374 85.2703 71.4734C85.6789 70.123 86.3897 69.0391 87.2248 67.973C88.202 66.7115 89.1615 65.6987 90.4231 64.8636C90.8318 62.1628 92.4487 60.6702 94.4743 59.5686C93.9945 59.1955 93.5681 58.6447 93.4615 58.0938C93.1772 56.4769 94.7763 55.0199 96.4288 54.8955C96.1267 54.2381 95.5226 53.8117 95.2561 53.1009C94.6875 51.5373 94.6875 48.57 96.1089 48.4279C96.8552 48.3568 97.1928 48.9965 97.5837 49.4407C98.0102 49.9382 98.3655 50.3646 98.6676 50.8444C99.1473 48.9076 100.107 47.0775 101.777 46.1002C102.346 45.7626 103.145 45.4783 103.803 46.0292C103.945 47.1486 103.625 48.4279 103.483 49.6894C105.189 48.2502 108.191 45.6738 111.194 44.8565C113.078 44.3412 115.37 45.4073 115.245 47.5039C115.228 47.9304 114.943 48.3213 114.695 48.7477C114.233 49.7427 113.54 50.5068 112.758 51.253Z" fill="black"/>
</g>
<mask id="mask2_11_242106" style="mask-type:luminance" maskUnits="userSpaceOnUse" x="43" y="44" width="110" height="108">
<path d="M84.7022 46.58C77.6837 49.3519 75.8536 93.1152 75.7825 93.1685L49.2544 90.5032C49.1478 90.5565 46.9268 106.477 46.5004 117.369C46.5004 117.369 37.1898 131.868 52.5949 136.79C68 141.711 65.086 118.151 65.086 118.151C67.0938 123.748 68.9595 124.796 68.9595 124.796C68.9595 124.796 72.371 126.679 76.0668 128.403C79.7626 130.127 94.3326 136.345 111.017 133.911C110.804 133.947 110.839 134.569 110.804 134.817C110.537 136.79 110.52 138.709 111.319 139.117C112.119 139.526 112.723 139.1 112.723 139.1C114.713 146.456 119.19 149.37 120.612 149.867C126.404 151.857 128.181 151.733 131.842 151.697C132.392 151.697 132.979 151.697 133.618 151.697C149.876 151.768 137.616 131.281 149.503 114.739L149.983 114.082L152.737 114.1L152.755 109.071L149.859 109.053L149.379 108.378C145.576 102.977 141.507 98.4457 137.208 94.7676C128.217 87.1095 144.51 45.1052 133.529 45.0519C133.512 45.0519 133.512 45.0519 133.494 45.0519C125.783 45.0519 90.0682 44.4656 84.7022 46.58Z" fill="white"/>
</mask>
<g mask="url(#mask2_11_242106)">
<path fill-rule="evenodd" clip-rule="evenodd" d="M109.631 59.5864C109.986 59.6752 110.306 59.9951 110.573 60.2793C111.426 61.2211 112.492 62.3938 112.598 64.1706C111.035 63.1045 108.352 62.838 106.059 62.9268C105.74 62.9446 105.367 62.7669 105.118 62.9979C105.349 63.4421 105.971 63.2111 106.362 63.2289C108.547 63.3355 111.283 63.7975 112.74 64.9346C114.411 66.978 115.708 70.123 115.779 73.268C115.548 73.4457 115.566 73.8899 115.388 74.1208C113.878 73.0725 111.692 72.2196 109.08 72.0953C108.298 72.0597 107.428 71.9709 106.895 72.2552C108.849 72.6994 110.519 72.5217 112.261 73.1969C113.682 73.7477 115.228 74.7605 116.081 75.9154C116.365 76.3064 116.703 76.7506 116.863 77.0882C116.951 77.2658 116.934 77.5679 117.023 77.7811C117.2 78.2431 117.538 78.8472 117.715 79.4869C118.142 80.9794 118.533 82.2765 118.728 84.1599C118.906 85.9723 118.746 87.3582 117.644 88.5132C116.258 87.3938 113.7 86.843 111.266 86.4876C110.626 86.3987 110.022 86.2388 109.471 86.1678C109.062 86.1145 108.565 86.0611 108.227 86.3987C108.565 86.6297 109.009 86.5231 109.4 86.5587C110.75 86.7008 112.421 87.0206 113.842 87.5004C115.228 87.9624 116.667 88.5132 117.413 89.2061C118.906 90.5921 118.799 93.5238 118.426 96.4556C118.373 96.9353 118.177 97.4151 118.106 97.8593C118.071 98.1258 118.142 98.3035 118.106 98.4812C118.018 98.9965 117.68 99.3696 117.787 99.956C118.195 99.796 118.266 99.2097 118.408 98.7833C118.906 97.3618 119.244 95.3717 119.35 93.6482C119.368 93.3106 119.51 93.0086 119.51 92.7065C119.51 91.214 118.853 89.8991 118.106 88.9751C119.03 87.9268 119.688 86.9318 119.581 84.924C119.386 81.1038 117.929 77.2125 116.081 74.8849C117.378 72.9304 116.099 70.0519 115.299 68.1862C114.677 66.7292 113.913 65.3255 113.042 64.526C113.611 63.5487 112.794 62.7136 112.261 61.8785C111.905 61.3099 111.568 60.7413 111.177 60.4037C111.674 60.2971 112.03 60.7058 112.509 60.8657C112.829 60.9723 113.22 60.9368 113.522 61.0967C113.7 61.1855 113.931 61.3987 114.144 61.5587C115.494 62.5537 117.111 63.8863 117.644 65.6809C117.307 65.6454 116.969 65.2012 116.472 65.059C115.743 64.8458 114.624 64.8458 114.215 65.3611C114.499 65.6987 115.05 65.4322 115.619 65.521C116.596 65.6809 117.893 66.516 118.586 67.2268C118.817 67.4755 119.03 67.8486 119.279 68.1685C119.492 68.4528 119.759 68.7371 119.972 69.0214C120.914 70.2474 121.749 71.3135 122.548 72.8415C123.153 73.9965 123.721 74.8494 123.241 76.1109C121.909 75.3824 119.972 75.0981 118.177 75.258C117.715 75.2936 117.218 75.3291 116.845 75.5779C117.236 76.0043 118.213 75.6312 118.941 75.6489C119.386 75.6667 120.043 75.8266 120.576 75.9688C122.708 76.5018 124.539 77.408 125.089 79.4691C125.445 78.4385 124.592 77.3369 124.005 76.7506C124.698 75.258 123.846 73.8366 123.224 72.6994C122.513 71.4023 121.696 70.1585 120.807 68.968C120.31 68.2928 119.581 67.5821 119.101 66.9425C119.759 67.3867 120.363 67.9375 120.896 68.5771C121.571 69.3945 122.548 70.2829 123.224 71.2246C123.597 71.7399 123.988 72.4151 124.308 73.0192C124.645 73.6411 125.018 74.3163 125.249 74.8849C125.48 75.4712 125.711 76.2353 125.409 76.9105C124.965 76.946 124.716 76.3774 124.396 76.7506C124.503 77.2836 125.178 77.2303 125.569 77.4435C125.942 77.6745 126.138 78.0299 126.422 78.2964C125.729 79.5402 125.196 80.9616 124.236 81.9567C123.526 81.4947 123.455 80.4108 122.602 80.091C122.193 80.322 122.566 80.8017 122.673 81.1038C123.188 82.4186 123.81 84.1422 124.929 84.924C124.752 86.6653 124.592 89.1528 125.16 90.7697C124.023 90.3078 122.691 89.8636 121.038 89.9169C120.541 89.9346 119.937 89.9346 119.475 90.1479C119.777 90.5565 120.505 90.3433 120.949 90.3788C122.762 90.5032 124.361 91.214 125.622 91.9425C126.298 93.3995 127.097 94.7321 129.052 94.9098C129.052 96.4023 129.283 97.9304 129.283 99.494C129.3 102.159 128.75 105.144 127.577 106.743C127.435 106.921 126.457 107.632 126.493 107.827C126.529 108.165 127.186 108.485 127.346 108.769C127.808 109.533 127.737 111.026 127.577 112.198C127.381 113.638 126.955 113.762 125.782 114.526C122.086 116.978 118.195 119.288 113.86 121.136C113.344 120.869 113.06 120.389 112.385 120.283C112.314 121.011 112.971 121.011 113.078 121.527C112.509 121.633 112.101 121.882 111.603 122.077C111.141 121.829 110.804 121.473 110.59 120.994C112.758 120.354 113.647 118.222 114.411 116.019C115.21 113.691 115.548 111.417 115.743 109.089C115.05 109.32 115.263 110.546 115.121 111.274C115.068 111.576 114.873 111.896 114.801 112.216C114.34 114.242 113.718 116.054 112.865 117.742C111.959 118.666 111.266 119.785 110.057 120.39C106.095 116.232 102.008 112.198 97.8328 108.236C98.1348 107.294 98.2947 105.802 98.7745 104.505C99.1831 103.403 99.8583 101.893 100.64 101.555C101.386 101.218 102.15 101.786 103.057 101.715C102.168 100.613 100.285 100.773 99.3964 101.715C99.0588 102.07 98.4013 103.243 98.1526 103.812C97.9749 104.203 97.9038 104.7 97.7617 105.127C97.5307 105.873 97.2286 106.512 97.0687 107.383C96.358 107.01 95.7894 106.424 95.2031 105.908C94.6167 105.393 94.0659 104.789 93.4973 104.274C92.3246 103.225 91.0275 102.337 89.9969 101.164C91.6494 100.756 93.6394 100.631 95.6117 100.773C96.4468 100.827 97.2109 101.093 97.9394 101.093C98.277 101.289 98.8811 101.591 99.1832 101.555C99.1832 101.164 98.6679 100.969 98.4013 100.862C98.0104 100.702 97.5307 100.649 97.1576 100.542C94.9721 99.9915 92.9642 99.8671 90.4589 100.222C89.9969 100.294 89.4106 100.489 89.1441 100.453C88.6466 100.382 88.0424 99.6006 87.7404 99.2808C87.8114 95.1407 88.5222 91.1251 90.3878 88.3888C90.8854 87.6603 91.4362 86.8252 92.0225 86.5231C92.4667 86.2921 93.444 86.1145 94.2791 85.9723C96.0382 85.6702 98.1704 85.5459 100.125 85.8124C99.9294 85.2083 98.6856 85.155 97.7084 85.1194C95.4696 85.0128 93.0886 85.5992 91.5605 86.1322C88.7176 88.9751 86.7986 93.1507 86.8875 98.6589C85.0396 97.2907 83.1917 95.9226 81.4326 94.4478C82.3743 90.0057 84.5954 86.0611 90.1568 86.7363C90.2279 86.2388 89.6949 86.1678 89.4639 86.1145C87.8292 85.7769 85.8569 86.8785 84.9507 87.1983C83.8313 86.381 83.547 84.2132 83.9379 82.2232C84.1689 81.086 84.8086 79.5757 85.3416 78.101C86.3722 75.2047 87.7937 72.1486 91.7205 72.4151C92.3957 72.4684 92.8932 72.7705 93.5861 72.8771C93.4973 72.3085 92.6444 72.0064 91.8804 71.9354C90.9742 71.8643 89.8726 72.2019 89.073 72.2552C88.3267 70.6383 89.9614 68.6838 91.0986 67.2801C91.8448 66.3383 92.6444 65.5921 93.5861 64.7925C94.4212 64.0995 95.434 63.3355 97.0865 63.7086C97.0332 63.14 96.1803 63.371 95.8427 63.0867C95.3985 63.2289 95.2386 63.2111 94.67 63.2467C94.4923 61.5409 95.4163 60.2083 96.3047 59.2843C97.3886 58.1649 98.8278 57.0455 100.516 56.6368C100.782 56.779 100.409 56.9034 100.356 56.9567C99.805 57.6141 99.272 58.4314 98.7922 59.2843C98.3303 60.1372 97.7617 61.4876 98.1704 62.9446C97.9571 63.2822 97.4774 63.4954 97.1576 63.8863C96.589 64.5615 96.0915 65.5388 95.594 66.6049C94.8122 68.3639 93.8882 70.425 95.594 71.58C95.7006 70.8693 95.2564 70.585 95.363 69.5544C95.4518 68.6838 95.9849 67.4933 96.2869 66.6759C96.66 65.6809 96.8733 65.3788 97.5307 64.5793C97.8505 64.1884 98.2059 63.6909 98.5435 63.4954C99.805 62.7491 101.369 63.1223 102.986 62.9446C103.021 62.5004 102.346 62.5715 101.973 62.5537C100.96 62.5004 99.6629 62.6248 98.8633 62.7847C98.5435 61.1322 98.8811 60.0128 99.805 58.6624C100.498 57.6319 101.298 56.8145 102.133 56.2459C102.932 57.1699 104.176 58.6624 105.171 59.7463C105.953 60.5992 106.681 61.3632 107.659 62.0739C108.156 62.4471 109.151 63.0512 109.844 62.8557C111.123 62.4826 110.235 60.1372 109.631 59.5864ZM102.772 58.0405C103.465 59.5686 103.892 61.2211 103.856 63.1756C104.656 63.2289 104.531 62.2516 104.478 61.7719C104.407 61.15 104.034 60.457 103.785 59.7463C103.519 59 103.394 58.1294 102.932 57.7918H102.772C102.755 57.8984 102.63 57.9695 102.772 58.0405ZM104.176 70.1052C103.643 69.7676 103.412 69.0747 102.772 69.0214C102.453 68.9858 101.688 69.2879 101.369 69.5722C100.978 69.9275 100.338 71.118 100.125 71.8998C99.9294 72.6105 99.8228 73.4279 100.125 73.8543C100.836 73.8543 101.013 72.8771 101.688 72.8415C102.186 72.806 102.524 73.2147 102.932 73.5345C101.653 74.6361 100.16 76.6439 99.8228 78.5985C99.4674 80.624 99.9472 83.2182 100.605 84.5864C101.333 86.1322 102.453 87.3049 104.194 87.5537C108.121 86.9496 109.684 83.2005 109.027 78.5274C109.897 78.3675 109.986 77.9766 110.2 77.1237C110.484 75.9865 110.715 73.8366 109.88 73.2324C109.098 73.5523 109.684 74.3874 109.027 74.7072C108.209 74.3518 107.57 73.6233 106.841 72.9126C106.415 72.4862 105.118 71.2957 104.976 70.7271C104.887 70.3362 104.993 69.8387 104.976 69.4833C104.905 67.7598 104.531 66.1962 104.585 64.1173C104.514 64.1173 104.425 64.1173 104.354 64.1173C103.963 66.2673 104.336 68.4705 104.176 70.1052ZM99.734 70.6383C98.9699 70.6383 97.4419 70.8693 96.6956 71.1891C95.8249 71.5444 94.7411 72.4151 94.208 73.0548C93.213 74.2275 92.5556 75.5423 91.9515 77.1059C91.294 78.8117 90.6721 81.086 90.8676 83.4137C90.9031 83.8579 90.9387 84.4442 91.0275 84.8884C91.0986 85.2083 91.2052 85.7769 91.6494 85.8302C92.3068 85.386 91.7382 84.7108 91.6494 84.2665C91.3118 82.5963 91.5961 81.1926 91.8804 79.7534C92.1291 78.5096 92.5911 77.5146 92.9642 76.715C93.1242 76.3952 93.1419 75.9865 93.2841 75.7022C93.5684 75.1159 94.1014 74.5651 94.5279 73.9965C95.0076 73.339 95.4163 72.7527 95.9315 72.3618C96.8555 71.6511 98.1348 71.3135 99.4319 71.0469C99.6451 70.9936 100 71.0825 100.125 70.8159C100.107 70.6383 99.9294 70.6383 99.734 70.6383ZM103.554 87.9979C103.554 88.1045 103.412 88.069 103.394 88.1578C102.932 89.0462 102.204 90.0235 101.76 91.1962C101.422 92.0668 101.155 93.1152 100.907 94.1457C100.658 95.1763 100.356 96.349 100.285 97.344C100.214 98.268 100 100.24 101.067 100.453C100.996 99.6184 100.978 98.3035 101.067 97.2552C101.209 95.5494 101.706 93.7904 102.15 92.2801C102.381 91.4627 102.612 90.7164 102.932 90.0235C103.252 89.3127 103.643 88.6731 103.785 87.9979C103.714 87.9979 103.625 87.9979 103.554 87.9979ZM119.901 102.177C119.386 102.088 118.746 101.679 118.106 101.324C116.347 100.294 114.766 99.0853 113.202 98.0548C111.923 97.2196 110.324 96.1891 108.849 95.6383C107.428 95.1052 105.509 94.5011 104.176 95.2474C103.679 96.1002 103.554 97.0597 103.483 98.0548C103.163 101.751 103.785 105.18 105.58 107.632C105.988 108.183 106.486 109.053 106.983 109.195C107.374 109.302 108.334 109.018 109.08 108.893C109.809 108.769 110.555 108.538 111.106 108.431C115.05 107.614 118.87 108.094 122.548 109.142C123.135 109.302 123.739 109.569 124.112 109.533C124.77 109.462 125.303 108.574 125.676 108.058C126.191 107.33 126.671 106.69 126.617 106.033C126.227 105.819 125.64 105.802 125.374 105.482C125.711 104.7 126.12 103.989 126.067 102.834C124.663 101.324 121.962 102.532 119.901 102.177Z" fill="#FFD13F"/>
</g>
<mask id="mask3_11_242106" style="mask-type:luminance" maskUnits="userSpaceOnUse" x="43" y="44" width="110" height="108">
<path d="M84.7022 46.58C77.6837 49.3519 75.8536 93.1152 75.7825 93.1685L49.2544 90.5032C49.1478 90.5565 46.9268 106.477 46.5004 117.369C46.5004 117.369 37.1898 131.868 52.5949 136.79C68 141.711 65.086 118.151 65.086 118.151C67.0938 123.748 68.9595 124.796 68.9595 124.796C68.9595 124.796 72.371 126.679 76.0668 128.403C79.7626 130.127 94.3326 136.345 111.017 133.911C110.804 133.947 110.839 134.569 110.804 134.817C110.537 136.79 110.52 138.709 111.319 139.117C112.119 139.526 112.723 139.1 112.723 139.1C114.713 146.456 119.19 149.37 120.612 149.867C126.404 151.857 128.181 151.733 131.842 151.697C132.392 151.697 132.979 151.697 133.618 151.697C149.876 151.768 137.616 131.281 149.503 114.739L149.983 114.082L152.737 114.1L152.755 109.071L149.859 109.053L149.379 108.378C145.576 102.977 141.507 98.4457 137.208 94.7676C128.217 87.1095 144.51 45.1052 133.529 45.0519C133.512 45.0519 133.512 45.0519 133.494 45.0519C125.783 45.0519 90.0682 44.4656 84.7022 46.58Z" fill="white"/>
</mask>
<g mask="url(#mask3_11_242106)">
<path fill-rule="evenodd" clip-rule="evenodd" d="M94.439 60.3682C94.5633 60.3327 94.5811 60.4215 94.5989 60.5281C94.1191 61.2921 93.7105 62.5537 93.8171 63.6376C93.7105 63.8863 93.4439 63.9752 93.1952 64.0995C92.8754 64.597 92.2535 64.8991 91.7915 65.3433C91.5605 65.5743 91.4361 65.9119 91.1696 66.1962C91.0985 66.285 90.9564 66.1962 90.8498 66.2673C90.6899 66.4094 90.4233 66.8181 90.1568 67.1201C89.2862 68.1329 88.2201 69.7321 88.0601 71.2424C88.0068 71.7399 87.9535 72.4151 88.38 72.5572C87.9891 72.8948 87.5626 73.1969 87.1362 73.499C87.1895 73.1614 86.7808 73.2857 86.5143 73.268C86.2655 71.7044 86.994 70.1052 87.8292 68.8259C88.5044 67.8131 89.3217 66.6759 90.0857 65.9474C90.7432 65.3255 91.7026 64.8991 92.4134 64.5437C92.3956 64.1173 92.0225 64.526 91.8626 64.2239C92.0225 62.5537 93.213 61.2566 94.439 60.3682Z" fill="#FFD13F"/>
</g>
<mask id="mask4_11_242106" style="mask-type:luminance" maskUnits="userSpaceOnUse" x="43" y="44" width="110" height="108">
<path d="M84.7022 46.58C77.6837 49.3519 75.8536 93.1152 75.7825 93.1685L49.2544 90.5032C49.1478 90.5565 46.9268 106.477 46.5004 117.369C46.5004 117.369 37.1898 131.868 52.5949 136.79C68 141.711 65.086 118.151 65.086 118.151C67.0938 123.748 68.9595 124.796 68.9595 124.796C68.9595 124.796 72.371 126.679 76.0668 128.403C79.7626 130.127 94.3326 136.345 111.017 133.911C110.804 133.947 110.839 134.569 110.804 134.817C110.537 136.79 110.52 138.709 111.319 139.117C112.119 139.526 112.723 139.1 112.723 139.1C114.713 146.456 119.19 149.37 120.612 149.867C126.404 151.857 128.181 151.733 131.842 151.697C132.392 151.697 132.979 151.697 133.618 151.697C149.876 151.768 137.616 131.281 149.503 114.739L149.983 114.082L152.737 114.1L152.755 109.071L149.859 109.053L149.379 108.378C145.576 102.977 141.507 98.4457 137.208 94.7676C128.217 87.1095 144.51 45.1052 133.529 45.0519C133.512 45.0519 133.512 45.0519 133.494 45.0519C125.783 45.0519 90.0682 44.4656 84.7022 46.58Z" fill="white"/>
</mask>
<g mask="url(#mask4_11_242106)">
<path fill-rule="evenodd" clip-rule="evenodd" d="M86.9762 73.7655C86.3543 74.5651 85.7857 75.4535 85.2704 76.6439C84.5597 78.2431 83.8489 80.0199 83.3159 81.9389C82.9605 83.2538 82.694 84.9595 83.0849 86.4521C83.2448 87.0739 83.7068 87.4826 83.9378 88.0157C83.7068 88.0157 83.6535 88.1933 83.5469 88.3355C83.0672 87.7669 82.3031 88.069 81.5924 88.2644C81.4858 87.8024 81.0949 87.2516 81.4325 86.7896C81.1482 85.2616 81.5213 83.6802 82.0544 82.1166C83.1205 79.0071 84.5597 75.4712 86.7274 73.7122C86.8518 73.6589 86.8696 73.7477 86.9762 73.7655Z" fill="#FFD13F"/>
</g>
<mask id="mask5_11_242106" style="mask-type:luminance" maskUnits="userSpaceOnUse" x="43" y="44" width="110" height="108">
<path d="M84.7022 46.58C77.6837 49.3519 75.8536 93.1152 75.7825 93.1685L49.2544 90.5032C49.1478 90.5565 46.9268 106.477 46.5004 117.369C46.5004 117.369 37.1898 131.868 52.5949 136.79C68 141.711 65.086 118.151 65.086 118.151C67.0938 123.748 68.9595 124.796 68.9595 124.796C68.9595 124.796 72.371 126.679 76.0668 128.403C79.7626 130.127 94.3326 136.345 111.017 133.911C110.804 133.947 110.839 134.569 110.804 134.817C110.537 136.79 110.52 138.709 111.319 139.117C112.119 139.526 112.723 139.1 112.723 139.1C114.713 146.456 119.19 149.37 120.612 149.867C126.404 151.857 128.181 151.733 131.842 151.697C132.392 151.697 132.979 151.697 133.618 151.697C149.876 151.768 137.616 131.281 149.503 114.739L149.983 114.082L152.737 114.1L152.755 109.071L149.859 109.053L149.379 108.378C145.576 102.977 141.507 98.4457 137.208 94.7676C128.217 87.1095 144.51 45.1052 133.529 45.0519C133.512 45.0519 133.512 45.0519 133.494 45.0519C125.783 45.0519 90.0682 44.4656 84.7022 46.58Z" fill="white"/>
</mask>
<g mask="url(#mask5_11_242106)">
<path fill-rule="evenodd" clip-rule="evenodd" d="M131.273 90.1123C130.74 88.9041 130.171 87.1805 128.625 87.6247C127.204 88.0334 126.618 91.3028 127.151 93.2218C125.374 91.516 125.196 88.069 125.587 84.7285C126.547 83.9112 127.168 82.7207 127.844 81.6191C129.318 82.5252 131.308 85.457 131.415 87.9979C131.451 88.6908 131.291 89.4549 131.273 90.1123Z" fill="white"/>
</g>
<mask id="mask6_11_242106" style="mask-type:luminance" maskUnits="userSpaceOnUse" x="43" y="44" width="110" height="108">
<path d="M84.7022 46.58C77.6837 49.3519 75.8536 93.1152 75.7825 93.1685L49.2544 90.5032C49.1478 90.5565 46.9268 106.477 46.5004 117.369C46.5004 117.369 37.1898 131.868 52.5949 136.79C68 141.711 65.086 118.151 65.086 118.151C67.0938 123.748 68.9595 124.796 68.9595 124.796C68.9595 124.796 72.371 126.679 76.0668 128.403C79.7626 130.127 94.3326 136.345 111.017 133.911C110.804 133.947 110.839 134.569 110.804 134.817C110.537 136.79 110.52 138.709 111.319 139.117C112.119 139.526 112.723 139.1 112.723 139.1C114.713 146.456 119.19 149.37 120.612 149.867C126.404 151.857 128.181 151.733 131.842 151.697C132.392 151.697 132.979 151.697 133.618 151.697C149.876 151.768 137.616 131.281 149.503 114.739L149.983 114.082L152.737 114.1L152.755 109.071L149.859 109.053L149.379 108.378C145.576 102.977 141.507 98.4457 137.208 94.7676C128.217 87.1095 144.51 45.1052 133.529 45.0519C133.512 45.0519 133.512 45.0519 133.494 45.0519C125.783 45.0519 90.0682 44.4656 84.7022 46.58Z" fill="white"/>
</mask>
<g mask="url(#mask6_11_242106)">
<path fill-rule="evenodd" clip-rule="evenodd" d="M105.811 81.7079C106.344 81.9567 107.001 82.7029 106.664 83.3426C106.06 83.1649 105.722 82.312 105.811 81.7079Z" fill="white"/>
</g>
<mask id="mask7_11_242106" style="mask-type:luminance" maskUnits="userSpaceOnUse" x="43" y="44" width="110" height="108">
<path d="M84.7022 46.58C77.6837 49.3519 75.8536 93.1152 75.7825 93.1685L49.2544 90.5032C49.1478 90.5565 46.9268 106.477 46.5004 117.369C46.5004 117.369 37.1898 131.868 52.5949 136.79C68 141.711 65.086 118.151 65.086 118.151C67.0938 123.748 68.9595 124.796 68.9595 124.796C68.9595 124.796 72.371 126.679 76.0668 128.403C79.7626 130.127 94.3326 136.345 111.017 133.911C110.804 133.947 110.839 134.569 110.804 134.817C110.537 136.79 110.52 138.709 111.319 139.117C112.119 139.526 112.723 139.1 112.723 139.1C114.713 146.456 119.19 149.37 120.612 149.867C126.404 151.857 128.181 151.733 131.842 151.697C132.392 151.697 132.979 151.697 133.618 151.697C149.876 151.768 137.616 131.281 149.503 114.739L149.983 114.082L152.737 114.1L152.755 109.071L149.859 109.053L149.379 108.378C145.576 102.977 141.507 98.4457 137.208 94.7676C128.217 87.1095 144.51 45.1052 133.529 45.0519C133.512 45.0519 133.512 45.0519 133.494 45.0519C125.783 45.0519 90.0682 44.4656 84.7022 46.58Z" fill="white"/>
</mask>
<g mask="url(#mask7_11_242106)">
<path fill-rule="evenodd" clip-rule="evenodd" d="M83.0667 88.5487C83.1023 88.5665 83.1556 88.5842 83.1733 88.6198C83.2089 88.6553 83.2267 88.7086 83.2267 88.7797C82.0717 89.828 81.6986 91.6582 80.8102 92.9908C80.8635 93.3817 80.6502 93.5061 80.6502 93.8437C80.2949 93.8437 79.8151 93.3461 79.4775 93.0619C80.0994 90.9652 80.9168 89.0995 83.0667 88.5487Z" fill="#FFD13F"/>
</g>
<mask id="mask8_11_242106" style="mask-type:luminance" maskUnits="userSpaceOnUse" x="43" y="44" width="110" height="108">
<path d="M84.7022 46.58C77.6837 49.3519 75.8536 93.1152 75.7825 93.1685L49.2544 90.5032C49.1478 90.5565 46.9268 106.477 46.5004 117.369C46.5004 117.369 37.1898 131.868 52.5949 136.79C68 141.711 65.086 118.151 65.086 118.151C67.0938 123.748 68.9595 124.796 68.9595 124.796C68.9595 124.796 72.371 126.679 76.0668 128.403C79.7626 130.127 94.3326 136.345 111.017 133.911C110.804 133.947 110.839 134.569 110.804 134.817C110.537 136.79 110.52 138.709 111.319 139.117C112.119 139.526 112.723 139.1 112.723 139.1C114.713 146.456 119.19 149.37 120.612 149.867C126.404 151.857 128.181 151.733 131.842 151.697C132.392 151.697 132.979 151.697 133.618 151.697C149.876 151.768 137.616 131.281 149.503 114.739L149.983 114.082L152.737 114.1L152.755 109.071L149.859 109.053L149.379 108.378C145.576 102.977 141.507 98.4457 137.208 94.7676C128.217 87.1095 144.51 45.1052 133.529 45.0519C133.512 45.0519 133.512 45.0519 133.494 45.0519C125.783 45.0519 90.0682 44.4656 84.7022 46.58Z" fill="white"/>
</mask>
<g mask="url(#mask8_11_242106)">
<path fill-rule="evenodd" clip-rule="evenodd" d="M129.549 88.5487C130.259 88.7264 130.402 89.8458 130.242 90.6454C129.709 90.3255 129.371 89.366 129.549 88.5487Z" fill="white"/>
</g>
<mask id="mask9_11_242106" style="mask-type:luminance" maskUnits="userSpaceOnUse" x="43" y="44" width="110" height="108">
<path d="M84.7022 46.58C77.6837 49.3519 75.8536 93.1152 75.7825 93.1685L49.2544 90.5032C49.1478 90.5565 46.9268 106.477 46.5004 117.369C46.5004 117.369 37.1898 131.868 52.5949 136.79C68 141.711 65.086 118.151 65.086 118.151C67.0938 123.748 68.9595 124.796 68.9595 124.796C68.9595 124.796 72.371 126.679 76.0668 128.403C79.7626 130.127 94.3326 136.345 111.017 133.911C110.804 133.947 110.839 134.569 110.804 134.817C110.537 136.79 110.52 138.709 111.319 139.117C112.119 139.526 112.723 139.1 112.723 139.1C114.713 146.456 119.19 149.37 120.612 149.867C126.404 151.857 128.181 151.733 131.842 151.697C132.392 151.697 132.979 151.697 133.618 151.697C149.876 151.768 137.616 131.281 149.503 114.739L149.983 114.082L152.737 114.1L152.755 109.071L149.859 109.053L149.379 108.378C145.576 102.977 141.507 98.4457 137.208 94.7676C128.217 87.1095 144.51 45.1052 133.529 45.0519C133.512 45.0519 133.512 45.0519 133.494 45.0519C125.783 45.0519 90.0682 44.4656 84.7022 46.58Z" fill="white"/>
</mask>
<g mask="url(#mask9_11_242106)">
<path fill-rule="evenodd" clip-rule="evenodd" d="M131.966 91.516C132.321 92.3689 132.357 94.0213 131.575 94.3945C131.238 94.3945 131.184 94.1102 130.793 94.1635C130.935 94.5899 131.469 94.9453 131.806 95.4073C132.108 96.7577 132.126 98.6411 132.197 100.471C132.233 101.324 132.25 102.195 132.197 102.959C132.161 103.51 131.966 104.007 131.877 104.522C131.806 105.02 131.735 105.358 131.646 105.766C131.344 107.152 130.651 108.254 129.781 109.036C129.336 108.822 128.928 108.272 128.306 108.485C128.91 109.338 130.456 109.817 130.1 111.203C129.94 111.843 128.768 112.252 128.306 112.678C128.537 110.866 128.288 108.929 127.293 108.076C127.737 107.525 128.501 107.152 128.857 106.37C128.999 106.033 129.105 105.446 129.247 104.896C129.781 102.941 129.976 99.8316 129.709 97.344C129.621 96.5444 129.603 95.656 129.319 94.8564C130.864 94.4122 131.486 93.0441 131.966 91.516Z" fill="#FFD13F"/>
</g>
<mask id="mask10_11_242106" style="mask-type:luminance" maskUnits="userSpaceOnUse" x="43" y="44" width="110" height="108">
<path d="M84.7022 46.58C77.6837 49.3519 75.8536 93.1152 75.7825 93.1685L49.2544 90.5032C49.1478 90.5565 46.9268 106.477 46.5004 117.369C46.5004 117.369 37.1898 131.868 52.5949 136.79C68 141.711 65.086 118.151 65.086 118.151C67.0938 123.748 68.9595 124.796 68.9595 124.796C68.9595 124.796 72.371 126.679 76.0668 128.403C79.7626 130.127 94.3326 136.345 111.017 133.911C110.804 133.947 110.839 134.569 110.804 134.817C110.537 136.79 110.52 138.709 111.319 139.117C112.119 139.526 112.723 139.1 112.723 139.1C114.713 146.456 119.19 149.37 120.612 149.867C126.404 151.857 128.181 151.733 131.842 151.697C132.392 151.697 132.979 151.697 133.618 151.697C149.876 151.768 137.616 131.281 149.503 114.739L149.983 114.082L152.737 114.1L152.755 109.071L149.859 109.053L149.379 108.378C145.576 102.977 141.507 98.4457 137.208 94.7676C128.217 87.1095 144.51 45.1052 133.529 45.0519C133.512 45.0519 133.512 45.0519 133.494 45.0519C125.783 45.0519 90.0682 44.4656 84.7022 46.58Z" fill="white"/>
</mask>
<g mask="url(#mask10_11_242106)">
<path fill-rule="evenodd" clip-rule="evenodd" d="M130.1 112.447C130.046 113.513 128.945 113.957 128.234 114.473C127.506 115.006 126.777 115.628 126.049 116.107C124.538 117.12 122.939 118.097 121.304 119.075C118.995 120.443 116.454 121.687 113.593 122.966C113.255 123.108 112.793 123.392 112.26 123.588C111.781 123.783 111.052 124.085 110.857 124.05C110.359 123.979 109.4 122.575 108.831 121.953C106.93 119.803 104.904 117.6 103.003 115.645C100.267 112.856 97.566 110.084 94.8296 107.632C91.9334 105.038 89.1082 102.408 86.1942 100.009C84.3286 98.4812 82.4984 97.0064 80.5972 95.4961C79.5134 94.6432 78.3051 93.8259 77.3279 92.8486C77.3101 92.7598 77.3456 92.7065 77.3989 92.6887C77.47 92.6354 77.5411 92.5999 77.5589 92.6887C83.76 96.8287 89.5702 101.715 95.3094 107.01C97.9924 109.498 100.729 112.109 103.483 114.881C105.42 116.836 107.374 118.861 109.4 121.029C109.879 121.544 110.91 122.966 111.354 123.055C111.781 123.126 113.611 122.237 114.073 122.042C116.596 120.958 119.208 119.572 121.393 118.311C124.13 116.729 126.635 114.97 129.105 113.087C129.389 112.856 129.709 112.518 130.1 112.447Z" fill="white"/>
</g>
<mask id="mask11_11_242106" style="mask-type:luminance" maskUnits="userSpaceOnUse" x="43" y="44" width="110" height="108">
<path d="M84.7022 46.58C77.6837 49.3519 75.8536 93.1152 75.7825 93.1685L49.2544 90.5032C49.1478 90.5565 46.9268 106.477 46.5004 117.369C46.5004 117.369 37.1898 131.868 52.5949 136.79C68 141.711 65.086 118.151 65.086 118.151C67.0938 123.748 68.9595 124.796 68.9595 124.796C68.9595 124.796 72.371 126.679 76.0668 128.403C79.7626 130.127 94.3326 136.345 111.017 133.911C110.804 133.947 110.839 134.569 110.804 134.817C110.537 136.79 110.52 138.709 111.319 139.117C112.119 139.526 112.723 139.1 112.723 139.1C114.713 146.456 119.19 149.37 120.612 149.867C126.404 151.857 128.181 151.733 131.842 151.697C132.392 151.697 132.979 151.697 133.618 151.697C149.876 151.768 137.616 131.281 149.503 114.739L149.983 114.082L152.737 114.1L152.755 109.071L149.859 109.053L149.379 108.378C145.576 102.977 141.507 98.4457 137.208 94.7676C128.217 87.1095 144.51 45.1052 133.529 45.0519C133.512 45.0519 133.512 45.0519 133.494 45.0519C125.783 45.0519 90.0682 44.4656 84.7022 46.58Z" fill="white"/>
</mask>
<g mask="url(#mask11_11_242106)">
<path fill-rule="evenodd" clip-rule="evenodd" d="M77.2393 93.5238C77.3281 93.5061 77.3814 93.5416 77.3992 93.5949C84.4177 98.6233 90.7787 104.345 96.9443 110.262C101.653 114.792 106.379 119.572 110.733 124.583C116.951 122.184 122.744 119.217 127.701 115.468C128.376 114.952 129.069 114.455 129.798 114.064C129.762 115.485 128.554 115.93 127.47 116.711C125.267 118.293 123.01 119.981 120.701 121.313C117.36 123.215 113.913 124.849 110.502 126.218C109.773 125.56 109.258 124.725 108.636 123.961C107.428 122.486 106.077 121.047 104.745 119.608C104.105 118.897 103.536 118.133 102.879 117.422C102.541 117.067 102.115 116.765 101.795 116.409C96.9621 111.15 91.6316 106.05 86.1412 101.306C83.2272 98.7832 80.2954 96.2602 77.2748 93.8259V93.5238H77.2393Z" fill="#FFD13F"/>
</g>
<mask id="mask12_11_242106" style="mask-type:luminance" maskUnits="userSpaceOnUse" x="43" y="44" width="110" height="108">
<path d="M84.7022 46.58C77.6837 49.3519 75.8536 93.1152 75.7825 93.1685L49.2544 90.5032C49.1478 90.5565 46.9268 106.477 46.5004 117.369C46.5004 117.369 37.1898 131.868 52.5949 136.79C68 141.711 65.086 118.151 65.086 118.151C67.0938 123.748 68.9595 124.796 68.9595 124.796C68.9595 124.796 72.371 126.679 76.0668 128.403C79.7626 130.127 94.3326 136.345 111.017 133.911C110.804 133.947 110.839 134.569 110.804 134.817C110.537 136.79 110.52 138.709 111.319 139.117C112.119 139.526 112.723 139.1 112.723 139.1C114.713 146.456 119.19 149.37 120.612 149.867C126.404 151.857 128.181 151.733 131.842 151.697C132.392 151.697 132.979 151.697 133.618 151.697C149.876 151.768 137.616 131.281 149.503 114.739L149.983 114.082L152.737 114.1L152.755 109.071L149.859 109.053L149.379 108.378C145.576 102.977 141.507 98.4457 137.208 94.7676C128.217 87.1095 144.51 45.1052 133.529 45.0519C133.512 45.0519 133.512 45.0519 133.494 45.0519C125.783 45.0519 90.0682 44.4656 84.7022 46.58Z" fill="white"/>
</mask>
<g mask="url(#mask12_11_242106)">
<path fill-rule="evenodd" clip-rule="evenodd" d="M77.1505 94.4655C77.2216 94.4478 77.2215 94.5011 77.2215 94.5366C86.5321 101.537 94.7766 109.64 102.755 118.044C105.402 120.834 107.89 123.748 110.306 126.768C117.485 124.085 123.544 120.283 129.229 116.107C127.666 121.42 125.125 125.756 122.762 130.269C122.229 129.949 122.051 129.505 121.287 129.416C118.568 129.078 115.104 130.979 113.966 132.365C112.829 132.276 111.426 132.436 111.088 133.378C110.75 135.297 110.235 136.399 110.75 138.193C110.928 139.188 111.852 139.526 112.705 139.064C112.865 140.343 114.286 143.151 114.873 144.466C112.101 148.765 110.448 150.382 107.25 154.558C106.806 155.127 106.29 155.908 105.846 156.193C105.509 156.406 104.78 156.584 104.212 156.743C98.0638 158.449 91.0631 156.815 86.6921 154.327C79.0872 149.991 73.8456 143.115 67.9998 136.967C67.5023 136.434 66.8626 135.99 66.525 135.333C68.8705 130.251 70.8783 124.849 72.282 118.826C72.7084 119.483 73.0993 120.176 73.6146 120.78C74.0766 121.331 74.6274 121.935 75.3203 122.255C75.4803 121.598 74.6807 121.331 74.3786 120.851C74.0588 120.336 73.9166 119.732 73.5968 119.217C74.2542 119.466 74.8761 119.714 75.4625 119.999C76.0488 120.283 76.5997 120.674 77.2571 120.851C77.2216 120.496 76.8129 120.265 76.5641 120.07C75.1071 118.932 73.2415 117.937 71.1981 117.262C69.6878 116.765 68.1419 116.178 66.294 115.859C64.9437 108.911 66.2763 101.253 68.3907 96.0825C70.9316 95.5139 74.2009 95.0341 76.884 95.0697C77.0261 94.9097 77.0439 94.6432 77.1505 94.4655Z" fill="#701C45"/>
</g>
<mask id="mask13_11_242106" style="mask-type:luminance" maskUnits="userSpaceOnUse" x="43" y="44" width="110" height="108">
<path d="M84.7022 46.58C77.6837 49.3519 75.8536 93.1152 75.7825 93.1685L49.2544 90.5032C49.1478 90.5565 46.9268 106.477 46.5004 117.369C46.5004 117.369 37.1898 131.868 52.5949 136.79C68 141.711 65.086 118.151 65.086 118.151C67.0938 123.748 68.9595 124.796 68.9595 124.796C68.9595 124.796 72.371 126.679 76.0668 128.403C79.7626 130.127 94.3326 136.345 111.017 133.911C110.804 133.947 110.839 134.569 110.804 134.817C110.537 136.79 110.52 138.709 111.319 139.117C112.119 139.526 112.723 139.1 112.723 139.1C114.713 146.456 119.19 149.37 120.612 149.867C126.404 151.857 128.181 151.733 131.842 151.697C132.392 151.697 132.979 151.697 133.618 151.697C149.876 151.768 137.616 131.281 149.503 114.739L149.983 114.082L152.737 114.1L152.755 109.071L149.859 109.053L149.379 108.378C145.576 102.977 141.507 98.4457 137.208 94.7676C128.217 87.1095 144.51 45.1052 133.529 45.0519C133.512 45.0519 133.512 45.0519 133.494 45.0519C125.783 45.0519 90.0682 44.4656 84.7022 46.58Z" fill="white"/>
</mask>
<g mask="url(#mask13_11_242106)">
<path fill-rule="evenodd" clip-rule="evenodd" d="M67.6619 96.2601H67.8218C65.7429 101.928 64.7301 108.858 65.7962 115.805C65.5652 115.699 65.1743 115.752 64.9433 115.645C63.6462 109.178 64.7479 101.395 66.7379 96.4911C66.9867 96.3668 67.3776 96.3668 67.6619 96.2601Z" fill="#FFD13F"/>
</g>
<mask id="mask14_11_242106" style="mask-type:luminance" maskUnits="userSpaceOnUse" x="43" y="44" width="110" height="108">
<path d="M84.7022 46.58C77.6837 49.3519 75.8536 93.1152 75.7825 93.1685L49.2544 90.5032C49.1478 90.5565 46.9268 106.477 46.5004 117.369C46.5004 117.369 37.1898 131.868 52.5949 136.79C68 141.711 65.086 118.151 65.086 118.151C67.0938 123.748 68.9595 124.796 68.9595 124.796C68.9595 124.796 72.371 126.679 76.0668 128.403C79.7626 130.127 94.3326 136.345 111.017 133.911C110.804 133.947 110.839 134.569 110.804 134.817C110.537 136.79 110.52 138.709 111.319 139.117C112.119 139.526 112.723 139.1 112.723 139.1C114.713 146.456 119.19 149.37 120.612 149.867C126.404 151.857 128.181 151.733 131.842 151.697C132.392 151.697 132.979 151.697 133.618 151.697C149.876 151.768 137.616 131.281 149.503 114.739L149.983 114.082L152.737 114.1L152.755 109.071L149.859 109.053L149.379 108.378C145.576 102.977 141.507 98.4457 137.208 94.7676C128.217 87.1095 144.51 45.1052 133.529 45.0519C133.512 45.0519 133.512 45.0519 133.494 45.0519C125.783 45.0519 90.0682 44.4656 84.7022 46.58Z" fill="white"/>
</mask>
<g mask="url(#mask14_11_242106)">
<path fill-rule="evenodd" clip-rule="evenodd" d="M66.0982 96.7221C66.1693 96.7044 66.1693 96.7577 66.1693 96.7932C65.2809 99.3874 64.4813 102.479 64.1437 105.748C63.8061 109 64.0904 112.5 64.3036 115.485C63.6995 115.574 63.6818 115.201 63.5218 114.792C63.1487 113.851 63.0599 112.323 62.971 111.061C62.74 107.614 62.971 104.043 63.7528 101.093C64.1615 99.5651 64.6057 98.1081 65.3164 96.9709C65.6007 96.8998 65.9206 96.882 66.0982 96.7221Z" fill="white"/>
</g>
<mask id="mask15_11_242106" style="mask-type:luminance" maskUnits="userSpaceOnUse" x="43" y="44" width="110" height="108">
<path d="M84.7022 46.58C77.6837 49.3519 75.8536 93.1152 75.7825 93.1685L49.2544 90.5032C49.1478 90.5565 46.9268 106.477 46.5004 117.369C46.5004 117.369 37.1898 131.868 52.5949 136.79C68 141.711 65.086 118.151 65.086 118.151C67.0938 123.748 68.9595 124.796 68.9595 124.796C68.9595 124.796 72.371 126.679 76.0668 128.403C79.7626 130.127 94.3326 136.345 111.017 133.911C110.804 133.947 110.839 134.569 110.804 134.817C110.537 136.79 110.52 138.709 111.319 139.117C112.119 139.526 112.723 139.1 112.723 139.1C114.713 146.456 119.19 149.37 120.612 149.867C126.404 151.857 128.181 151.733 131.842 151.697C132.392 151.697 132.979 151.697 133.618 151.697C149.876 151.768 137.616 131.281 149.503 114.739L149.983 114.082L152.737 114.1L152.755 109.071L149.859 109.053L149.379 108.378C145.576 102.977 141.507 98.4457 137.208 94.7676C128.217 87.1095 144.51 45.1052 133.529 45.0519C133.512 45.0519 133.512 45.0519 133.494 45.0519C125.783 45.0519 90.0682 44.4656 84.7022 46.58Z" fill="white"/>
</mask>
<g mask="url(#mask15_11_242106)">
<path fill-rule="evenodd" clip-rule="evenodd" d="M49.5206 126.075C48.8455 125.684 49.2541 124.618 49.2897 123.748C49.3252 122.93 49.2897 122.042 49.2897 121.26C49.2897 119.679 49.1653 117.955 49.5206 116.516C49.7161 115.699 50.1248 114.775 50.4624 113.94C51.4219 111.523 52.7012 109.107 54.0516 107.17C56.0949 104.025 58.6536 101.377 62.6159 100.169C62.7403 100.667 62.3316 101.289 62.3849 101.964L61.6919 111.47C62.0118 111.772 61.7808 112.625 61.8518 113.176C61.0167 113.353 60.4482 113.797 59.8263 114.188C58.618 115.379 57.5697 117.085 56.628 118.932C56.3792 119.448 56.0238 120.034 56.0771 120.407C56.1482 120.834 56.93 121.456 57.3209 121.882C57.9961 122.611 58.4048 123.161 58.8845 123.979C59.1333 124.405 59.7019 125.205 59.7374 125.844C59.7552 126.253 59.5242 126.893 59.5064 127.639C59.4531 128.865 59.613 130.073 58.1916 130.127C58.2271 129.38 58.1383 128.119 58.4226 127.248C58.7602 126.875 59.2577 126.289 59.2754 125.844C58.8845 125.756 58.7069 126.182 58.4936 126.395C58.2982 126.608 57.9784 126.822 57.7829 127.177C56.9833 128.705 57.4098 131.264 56.4681 132.241C55.8639 132.863 54.8689 132.65 54.3714 131.85L49.5206 126.075Z" fill="#FFD13F"/>
</g>
<mask id="mask16_11_242106" style="mask-type:luminance" maskUnits="userSpaceOnUse" x="43" y="44" width="110" height="108">
<path d="M84.7022 46.58C77.6837 49.3519 75.8536 93.1152 75.7825 93.1685L49.2544 90.5032C49.1478 90.5565 46.9268 106.477 46.5004 117.369C46.5004 117.369 37.1898 131.868 52.5949 136.79C68 141.711 65.086 118.151 65.086 118.151C67.0938 123.748 68.9595 124.796 68.9595 124.796C68.9595 124.796 72.371 126.679 76.0668 128.403C79.7626 130.127 94.3326 136.345 111.017 133.911C110.804 133.947 110.839 134.569 110.804 134.817C110.537 136.79 110.52 138.709 111.319 139.117C112.119 139.526 112.723 139.1 112.723 139.1C114.713 146.456 119.19 149.37 120.612 149.867C126.404 151.857 128.181 151.733 131.842 151.697C132.392 151.697 132.979 151.697 133.618 151.697C149.876 151.768 137.616 131.281 149.503 114.739L149.983 114.082L152.737 114.1L152.755 109.071L149.859 109.053L149.379 108.378C145.576 102.977 141.507 98.4457 137.208 94.7676C128.217 87.1095 144.51 45.1052 133.529 45.0519C133.512 45.0519 133.512 45.0519 133.494 45.0519C125.783 45.0519 90.0682 44.4656 84.7022 46.58Z" fill="white"/>
</mask>
<g mask="url(#mask16_11_242106)">
<path fill-rule="evenodd" clip-rule="evenodd" d="M130.331 117.511C132.783 119.643 134.737 122.308 136.177 125.453C132.534 124.601 128.785 126.342 125.978 127.71C127.594 124.494 129.105 121.154 130.331 117.511Z" fill="#701C45"/>
</g>
<mask id="mask17_11_242106" style="mask-type:luminance" maskUnits="userSpaceOnUse" x="43" y="44" width="110" height="108">
<path d="M84.7022 46.58C77.6837 49.3519 75.8536 93.1152 75.7825 93.1685L49.2544 90.5032C49.1478 90.5565 46.9268 106.477 46.5004 117.369C46.5004 117.369 37.1898 131.868 52.5949 136.79C68 141.711 65.086 118.151 65.086 118.151C67.0938 123.748 68.9595 124.796 68.9595 124.796C68.9595 124.796 72.371 126.679 76.0668 128.403C79.7626 130.127 94.3326 136.345 111.017 133.911C110.804 133.947 110.839 134.569 110.804 134.817C110.537 136.79 110.52 138.709 111.319 139.117C112.119 139.526 112.723 139.1 112.723 139.1C114.713 146.456 119.19 149.37 120.612 149.867C126.404 151.857 128.181 151.733 131.842 151.697C132.392 151.697 132.979 151.697 133.618 151.697C149.876 151.768 137.616 131.281 149.503 114.739L149.983 114.082L152.737 114.1L152.755 109.071L149.859 109.053L149.379 108.378C145.576 102.977 141.507 98.4457 137.208 94.7676C128.217 87.1095 144.51 45.1052 133.529 45.0519C133.512 45.0519 133.512 45.0519 133.494 45.0519C125.783 45.0519 90.0682 44.4656 84.7022 46.58Z" fill="white"/>
</mask>
<g mask="url(#mask17_11_242106)">
<path fill-rule="evenodd" clip-rule="evenodd" d="M137.03 127.248C132.054 126.2 126.813 128.901 123.863 131.37C124.307 130.482 124.876 129.736 125.267 128.794C127.364 127.603 129.993 126.306 132.978 125.844C134.293 125.649 135.359 125.756 136.408 126.075C136.692 126.377 136.852 126.822 137.03 127.248Z" fill="#FFD13F"/>
</g>
<mask id="mask18_11_242106" style="mask-type:luminance" maskUnits="userSpaceOnUse" x="43" y="44" width="110" height="108">
<path d="M84.7022 46.58C77.6837 49.3519 75.8536 93.1152 75.7825 93.1685L49.2544 90.5032C49.1478 90.5565 46.9268 106.477 46.5004 117.369C46.5004 117.369 37.1898 131.868 52.5949 136.79C68 141.711 65.086 118.151 65.086 118.151C67.0938 123.748 68.9595 124.796 68.9595 124.796C68.9595 124.796 72.371 126.679 76.0668 128.403C79.7626 130.127 94.3326 136.345 111.017 133.911C110.804 133.947 110.839 134.569 110.804 134.817C110.537 136.79 110.52 138.709 111.319 139.117C112.119 139.526 112.723 139.1 112.723 139.1C114.713 146.456 119.19 149.37 120.612 149.867C126.404 151.857 128.181 151.733 131.842 151.697C132.392 151.697 132.979 151.697 133.618 151.697C149.876 151.768 137.616 131.281 149.503 114.739L149.983 114.082L152.737 114.1L152.755 109.071L149.859 109.053L149.379 108.378C145.576 102.977 141.507 98.4457 137.208 94.7676C128.217 87.1095 144.51 45.1052 133.529 45.0519C133.512 45.0519 133.512 45.0519 133.494 45.0519C125.783 45.0519 90.0682 44.4656 84.7022 46.58Z" fill="white"/>
</mask>
<g mask="url(#mask18_11_242106)">
<path fill-rule="evenodd" clip-rule="evenodd" d="M137.261 127.799C137.438 128.172 137.58 128.563 137.651 129.043C137.136 128.883 136.479 128.652 135.697 128.652C131.415 128.634 126.831 130.891 124.254 133.005C124.165 132.703 123.917 132.561 123.863 132.223C124.148 131.584 124.947 131.299 125.498 130.819C126.102 130.304 126.831 129.949 127.755 129.505C130.278 128.279 133.476 126.91 137.261 127.799Z" fill="white"/>
</g>
<mask id="mask19_11_242106" style="mask-type:luminance" maskUnits="userSpaceOnUse" x="43" y="44" width="110" height="108">
<path d="M84.7022 46.58C77.6837 49.3519 75.8536 93.1152 75.7825 93.1685L49.2544 90.5032C49.1478 90.5565 46.9268 106.477 46.5004 117.369C46.5004 117.369 37.1898 131.868 52.5949 136.79C68 141.711 65.086 118.151 65.086 118.151C67.0938 123.748 68.9595 124.796 68.9595 124.796C68.9595 124.796 72.371 126.679 76.0668 128.403C79.7626 130.127 94.3326 136.345 111.017 133.911C110.804 133.947 110.839 134.569 110.804 134.817C110.537 136.79 110.52 138.709 111.319 139.117C112.119 139.526 112.723 139.1 112.723 139.1C114.713 146.456 119.19 149.37 120.612 149.867C126.404 151.857 128.181 151.733 131.842 151.697C132.392 151.697 132.979 151.697 133.618 151.697C149.876 151.768 137.616 131.281 149.503 114.739L149.983 114.082L152.737 114.1L152.755 109.071L149.859 109.053L149.379 108.378C145.576 102.977 141.507 98.4457 137.208 94.7676C128.217 87.1095 144.51 45.1052 133.529 45.0519C133.512 45.0519 133.512 45.0519 133.494 45.0519C125.783 45.0519 90.0682 44.4656 84.7022 46.58Z" fill="white"/>
</mask>
<g mask="url(#mask19_11_242106)">
<path fill-rule="evenodd" clip-rule="evenodd" d="M136.799 129.274C137.136 129.238 137.19 129.38 137.421 129.274C137.438 129.54 137.154 129.522 137.101 129.736C136.923 129.665 136.817 129.505 136.799 129.274Z" fill="white"/>
</g>
<mask id="mask20_11_242106" style="mask-type:luminance" maskUnits="userSpaceOnUse" x="43" y="44" width="110" height="108">
<path d="M84.7022 46.58C77.6837 49.3519 75.8536 93.1152 75.7825 93.1685L49.2544 90.5032C49.1478 90.5565 46.9268 106.477 46.5004 117.369C46.5004 117.369 37.1898 131.868 52.5949 136.79C68 141.711 65.086 118.151 65.086 118.151C67.0938 123.748 68.9595 124.796 68.9595 124.796C68.9595 124.796 72.371 126.679 76.0668 128.403C79.7626 130.127 94.3326 136.345 111.017 133.911C110.804 133.947 110.839 134.569 110.804 134.817C110.537 136.79 110.52 138.709 111.319 139.117C112.119 139.526 112.723 139.1 112.723 139.1C114.713 146.456 119.19 149.37 120.612 149.867C126.404 151.857 128.181 151.733 131.842 151.697C132.392 151.697 132.979 151.697 133.618 151.697C149.876 151.768 137.616 131.281 149.503 114.739L149.983 114.082L152.737 114.1L152.755 109.071L149.859 109.053L149.379 108.378C145.576 102.977 141.507 98.4457 137.208 94.7676C128.217 87.1095 144.51 45.1052 133.529 45.0519C133.512 45.0519 133.512 45.0519 133.494 45.0519C125.783 45.0519 90.0682 44.4656 84.7022 46.58Z" fill="white"/>
</mask>
<g mask="url(#mask20_11_242106)">
<path fill-rule="evenodd" clip-rule="evenodd" d="M135.395 129.345C136.532 131.441 137.527 133.947 138.345 136.594C138.966 138.584 139.446 140.468 139.659 142.742C139.784 144.021 139.748 145.07 139.144 146.189C137.207 146.527 135.857 146.722 134.205 146.278C133.192 146.011 132.161 145.674 131.308 145.247C130.455 144.821 129.585 144.306 128.661 143.808C127.719 143.328 126.831 142.76 125.96 142.618C125.054 142.475 124.183 142.138 123.472 142.511C122.815 142.849 122.016 143.488 121.447 144.075C120.861 144.679 120.328 145.461 120.203 146.171C120.807 146.296 121.092 145.62 121.376 145.23C122.015 144.323 122.637 143.417 123.792 142.973C123.011 144.785 121.323 147.291 119.581 147.22C117.378 146.473 116.649 144.856 116.116 143.488C113.451 139.135 119.226 140.219 120.825 139.579C122.3 138.993 123.846 138.815 125.391 139.224C127.168 139.704 128.59 139.97 130.153 140.752C131.113 141.232 131.912 141.747 132.801 142.173C133.352 142.44 133.956 142.262 134.4 142.689C134.986 142.653 134.56 143.453 135.129 143.204C135.537 142.475 135.466 142.653 135.359 141.711C134.88 137.465 133.849 133.36 132.534 129.771C133.281 129.753 134.524 129.238 135.395 129.345Z" fill="#FFD13F"/>
</g>
<mask id="mask21_11_242106" style="mask-type:luminance" maskUnits="userSpaceOnUse" x="43" y="44" width="110" height="108">
<path d="M84.7022 46.58C77.6837 49.3519 75.8536 93.1152 75.7825 93.1685L49.2544 90.5032C49.1478 90.5565 46.9268 106.477 46.5004 117.369C46.5004 117.369 37.1898 131.868 52.5949 136.79C68 141.711 65.086 118.151 65.086 118.151C67.0938 123.748 68.9595 124.796 68.9595 124.796C68.9595 124.796 72.371 126.679 76.0668 128.403C79.7626 130.127 94.3326 136.345 111.017 133.911C110.804 133.947 110.839 134.569 110.804 134.817C110.537 136.79 110.52 138.709 111.319 139.117C112.119 139.526 112.723 139.1 112.723 139.1C114.713 146.456 119.19 149.37 120.612 149.867C126.404 151.857 128.181 151.733 131.842 151.697C132.392 151.697 132.979 151.697 133.618 151.697C149.876 151.768 137.616 131.281 149.503 114.739L149.983 114.082L152.737 114.1L152.755 109.071L149.859 109.053L149.379 108.378C145.576 102.977 141.507 98.4457 137.208 94.7676C128.217 87.1095 144.51 45.1052 133.529 45.0519C133.512 45.0519 133.512 45.0519 133.494 45.0519C125.783 45.0519 90.0682 44.4656 84.7022 46.58Z" fill="white"/>
</mask>
<g mask="url(#mask21_11_242106)">
<path fill-rule="evenodd" clip-rule="evenodd" d="M132.588 129.736C132.996 130.109 133.156 130.695 133.37 131.21C134.365 133.716 135.218 136.719 135.697 139.775C135.893 141.001 136.266 142.333 135.928 143.595C135.111 143.595 134.365 143.364 133.672 143.133C133.512 143.08 133.192 142.973 133.05 142.902C132.446 142.618 131.966 142.049 131.415 141.729C131.166 141.587 130.811 141.427 130.473 141.267C129.656 140.841 128.554 140.45 127.524 140.095C126.014 139.579 124.574 139.028 123.171 139.153C120.825 139.366 118.48 143.897 117.378 145.656C113.931 143.222 112.989 137.909 113.451 136.097C115.246 134.16 118.995 132.152 122.3 132.401C122.744 132.436 124.592 135.99 125.036 136.186C125.605 136.452 126.12 136.95 126.635 137.376C127.026 137.696 127.364 137.749 127.968 138.087C128.732 138.513 128.163 138.3 129.318 137.731C129.709 137.536 131.824 138.478 131.895 137.891C132.197 134.96 131.202 132.525 130.811 130.269C131.344 130.055 131.913 129.842 132.588 129.736Z" fill="#FFD13F"/>
</g>
<mask id="mask22_11_242106" style="mask-type:luminance" maskUnits="userSpaceOnUse" x="43" y="44" width="110" height="108">
<path d="M84.7022 46.58C77.6837 49.3519 75.8536 93.1152 75.7825 93.1685L49.2544 90.5032C49.1478 90.5565 46.9268 106.477 46.5004 117.369C46.5004 117.369 37.1898 131.868 52.5949 136.79C68 141.711 65.086 118.151 65.086 118.151C67.0938 123.748 68.9595 124.796 68.9595 124.796C68.9595 124.796 72.371 126.679 76.0668 128.403C79.7626 130.127 94.3326 136.345 111.017 133.911C110.804 133.947 110.839 134.569 110.804 134.817C110.537 136.79 110.52 138.709 111.319 139.117C112.119 139.526 112.723 139.1 112.723 139.1C114.713 146.456 119.19 149.37 120.612 149.867C126.404 151.857 128.181 151.733 131.842 151.697C132.392 151.697 132.979 151.697 133.618 151.697C149.876 151.768 137.616 131.281 149.503 114.739L149.983 114.082L152.737 114.1L152.755 109.071L149.859 109.053L149.379 108.378C145.576 102.977 141.507 98.4457 137.208 94.7676C128.217 87.1095 144.51 45.1052 133.529 45.0519C133.512 45.0519 133.512 45.0519 133.494 45.0519C125.783 45.0519 90.0682 44.4656 84.7022 46.58Z" fill="white"/>
</mask>
<g mask="url(#mask22_11_242106)">
<path fill-rule="evenodd" clip-rule="evenodd" d="M131.717 139.348C130.26 139.757 128.91 138.371 128.057 137.927C128.856 137.874 129.976 138.033 130.153 137.234C130.544 135.564 129.425 132.365 129.141 130.926C129.585 130.873 130.615 130.251 131.059 130.215C131.788 132.507 132.516 136.541 131.717 139.348Z" fill="#FFD13F"/>
</g>
<mask id="mask23_11_242106" style="mask-type:luminance" maskUnits="userSpaceOnUse" x="43" y="44" width="110" height="108">
<path d="M84.7022 46.58C77.6837 49.3519 75.8536 93.1152 75.7825 93.1685L49.2544 90.5032C49.1478 90.5565 46.9268 106.477 46.5004 117.369C46.5004 117.369 37.1898 131.868 52.5949 136.79C68 141.711 65.086 118.151 65.086 118.151C67.0938 123.748 68.9595 124.796 68.9595 124.796C68.9595 124.796 72.371 126.679 76.0668 128.403C79.7626 130.127 94.3326 136.345 111.017 133.911C110.804 133.947 110.839 134.569 110.804 134.817C110.537 136.79 110.52 138.709 111.319 139.117C112.119 139.526 112.723 139.1 112.723 139.1C114.713 146.456 119.19 149.37 120.612 149.867C126.404 151.857 128.181 151.733 131.842 151.697C132.392 151.697 132.979 151.697 133.618 151.697C149.876 151.768 137.616 131.281 149.503 114.739L149.983 114.082L152.737 114.1L152.755 109.071L149.859 109.053L149.379 108.378C145.576 102.977 141.507 98.4457 137.208 94.7676C128.217 87.1095 144.51 45.1052 133.529 45.0519C133.512 45.0519 133.512 45.0519 133.494 45.0519C125.783 45.0519 90.0682 44.4656 84.7022 46.58Z" fill="white"/>
</mask>
<g mask="url(#mask23_11_242106)">
<path fill-rule="evenodd" clip-rule="evenodd" d="M123.17 133.947C120.931 133.805 118.71 133.769 116.951 134.338C115.619 134.764 114.641 135.581 113.522 136.292C113.433 135.297 113.7 134.622 114.144 133.964C115.388 132.099 117.964 130.802 120.452 130.766C121.624 130.748 121.873 131.37 122.406 132.241C122.566 132.525 122.744 132.845 122.868 133.094C123.01 133.378 123.259 133.662 123.17 133.947Z" fill="#FFD13F"/>
</g>
<mask id="mask24_11_242106" style="mask-type:luminance" maskUnits="userSpaceOnUse" x="43" y="44" width="110" height="108">
<path d="M84.7022 46.58C77.6837 49.3519 75.8536 93.1152 75.7825 93.1685L49.2544 90.5032C49.1478 90.5565 46.9268 106.477 46.5004 117.369C46.5004 117.369 37.1898 131.868 52.5949 136.79C68 141.711 65.086 118.151 65.086 118.151C67.0938 123.748 68.9595 124.796 68.9595 124.796C68.9595 124.796 72.371 126.679 76.0668 128.403C79.7626 130.127 94.3326 136.345 111.017 133.911C110.804 133.947 110.839 134.569 110.804 134.817C110.537 136.79 110.52 138.709 111.319 139.117C112.119 139.526 112.723 139.1 112.723 139.1C114.713 146.456 119.19 149.37 120.612 149.867C126.404 151.857 128.181 151.733 131.842 151.697C132.392 151.697 132.979 151.697 133.618 151.697C149.876 151.768 137.616 131.281 149.503 114.739L149.983 114.082L152.737 114.1L152.755 109.071L149.859 109.053L149.379 108.378C145.576 102.977 141.507 98.4457 137.208 94.7676C128.217 87.1095 144.51 45.1052 133.529 45.0519C133.512 45.0519 133.512 45.0519 133.494 45.0519C125.783 45.0519 90.0682 44.4656 84.7022 46.58Z" fill="white"/>
</mask>
<g mask="url(#mask24_11_242106)">
<path fill-rule="evenodd" clip-rule="evenodd" d="M129.425 138.14C128.447 138.424 127.239 137.252 126.582 136.754C126.635 135.119 126.191 133.982 125.8 132.792C126.688 132.205 127.648 131.672 128.607 131.157C128.678 131.139 130.011 130.589 130.011 130.642C130.366 132.081 130.882 134.817 130.953 136.488C130.97 137.003 129.762 137.731 129.425 138.14Z" fill="#FFD13F"/>
</g>
<mask id="mask25_11_242106" style="mask-type:luminance" maskUnits="userSpaceOnUse" x="43" y="44" width="110" height="108">
<path d="M84.7022 46.58C77.6837 49.3519 75.8536 93.1152 75.7825 93.1685L49.2544 90.5032C49.1478 90.5565 46.9268 106.477 46.5004 117.369C46.5004 117.369 37.1898 131.868 52.5949 136.79C68 141.711 65.086 118.151 65.086 118.151C67.0938 123.748 68.9595 124.796 68.9595 124.796C68.9595 124.796 72.371 126.679 76.0668 128.403C79.7626 130.127 94.3326 136.345 111.017 133.911C110.804 133.947 110.839 134.569 110.804 134.817C110.537 136.79 110.52 138.709 111.319 139.117C112.119 139.526 112.723 139.1 112.723 139.1C114.713 146.456 119.19 149.37 120.612 149.867C126.404 151.857 128.181 151.733 131.842 151.697C132.392 151.697 132.979 151.697 133.618 151.697C149.876 151.768 137.616 131.281 149.503 114.739L149.983 114.082L152.737 114.1L152.755 109.071L149.859 109.053L149.379 108.378C145.576 102.977 141.507 98.4457 137.208 94.7676C128.217 87.1095 144.51 45.1052 133.529 45.0519C133.512 45.0519 133.512 45.0519 133.494 45.0519C125.783 45.0519 90.0682 44.4656 84.7022 46.58Z" fill="white"/>
</mask>
<g mask="url(#mask25_11_242106)">
<path fill-rule="evenodd" clip-rule="evenodd" d="M113.362 133.094C113.416 133.68 112.794 134.195 112.74 134.96C112.669 135.99 113.042 136.985 113.433 137.678C113.167 138.158 112.438 138.495 111.728 138.549C111.355 138.211 111.479 138.247 111.39 137.927C111.017 136.594 111.941 134.622 112.261 133.396C112.581 133.236 113.007 133.2 113.362 133.094Z" fill="#FFD13F"/>
</g>
<mask id="mask26_11_242106" style="mask-type:luminance" maskUnits="userSpaceOnUse" x="43" y="44" width="110" height="108">
<path d="M84.7022 46.58C77.6837 49.3519 75.8536 93.1152 75.7825 93.1685L49.2544 90.5032C49.1478 90.5565 46.9268 106.477 46.5004 117.369C46.5004 117.369 37.1898 131.868 52.5949 136.79C68 141.711 65.086 118.151 65.086 118.151C67.0938 123.748 68.9595 124.796 68.9595 124.796C68.9595 124.796 72.371 126.679 76.0668 128.403C79.7626 130.127 94.3326 136.345 111.017 133.911C110.804 133.947 110.839 134.569 110.804 134.817C110.537 136.79 110.52 138.709 111.319 139.117C112.119 139.526 112.723 139.1 112.723 139.1C114.713 146.456 119.19 149.37 120.612 149.867C126.404 151.857 128.181 151.733 131.842 151.697C132.392 151.697 132.979 151.697 133.618 151.697C149.876 151.768 137.616 131.281 149.503 114.739L149.983 114.082L152.737 114.1L152.755 109.071L149.859 109.053L149.379 108.378C145.576 102.977 141.507 98.4457 137.208 94.7676C128.217 87.1095 144.51 45.1052 133.529 45.0519C133.512 45.0519 133.512 45.0519 133.494 45.0519C125.783 45.0519 90.0682 44.4656 84.7022 46.58Z" fill="white"/>
</mask>
<g mask="url(#mask26_11_242106)">
<path fill-rule="evenodd" clip-rule="evenodd" d="M124.805 133.627C124.876 133.627 124.965 133.627 125.036 133.627C125.125 134.178 125.373 134.586 125.427 135.19C125.125 134.8 124.663 134.195 124.805 133.627Z" fill="white"/>
</g>
<mask id="mask27_11_242106" style="mask-type:luminance" maskUnits="userSpaceOnUse" x="43" y="44" width="110" height="108">
<path d="M84.7022 46.58C77.6837 49.3519 75.8536 93.1152 75.7825 93.1685L49.2544 90.5032C49.1478 90.5565 46.9268 106.477 46.5004 117.369C46.5004 117.369 37.1898 131.868 52.5949 136.79C68 141.711 65.086 118.151 65.086 118.151C67.0938 123.748 68.9595 124.796 68.9595 124.796C68.9595 124.796 72.371 126.679 76.0668 128.403C79.7626 130.127 94.3326 136.345 111.017 133.911C110.804 133.947 110.839 134.569 110.804 134.817C110.537 136.79 110.52 138.709 111.319 139.117C112.119 139.526 112.723 139.1 112.723 139.1C114.713 146.456 119.19 149.37 120.612 149.867C126.404 151.857 128.181 151.733 131.842 151.697C132.392 151.697 132.979 151.697 133.618 151.697C149.876 151.768 137.616 131.281 149.503 114.739L149.983 114.082L152.737 114.1L152.755 109.071L149.859 109.053L149.379 108.378C145.576 102.977 141.507 98.4457 137.208 94.7676C128.217 87.1095 144.51 45.1052 133.529 45.0519C133.512 45.0519 133.512 45.0519 133.494 45.0519C125.783 45.0519 90.0682 44.4656 84.7022 46.58Z" fill="white"/>
</mask>
<g mask="url(#mask27_11_242106)">
<path fill-rule="evenodd" clip-rule="evenodd" d="M124.645 135.652C120.665 134.782 117.342 136.594 115.299 138.602C114.926 137.891 114.322 137.394 113.824 136.807C115.423 135.013 118.142 134.089 121.376 134.32C121.98 134.355 122.868 134.462 123.472 134.249C123.881 134.693 124.325 135.119 124.645 135.652Z" fill="#FFD13F"/>
</g>
<mask id="mask28_11_242106" style="mask-type:luminance" maskUnits="userSpaceOnUse" x="43" y="44" width="110" height="108">
<path d="M84.7022 46.58C77.6837 49.3519 75.8536 93.1152 75.7825 93.1685L49.2544 90.5032C49.1478 90.5565 46.9268 106.477 46.5004 117.369C46.5004 117.369 37.1898 131.868 52.5949 136.79C68 141.711 65.086 118.151 65.086 118.151C67.0938 123.748 68.9595 124.796 68.9595 124.796C68.9595 124.796 72.371 126.679 76.0668 128.403C79.7626 130.127 94.3326 136.345 111.017 133.911C110.804 133.947 110.839 134.569 110.804 134.817C110.537 136.79 110.52 138.709 111.319 139.117C112.119 139.526 112.723 139.1 112.723 139.1C114.713 146.456 119.19 149.37 120.612 149.867C126.404 151.857 128.181 151.733 131.842 151.697C132.392 151.697 132.979 151.697 133.618 151.697C149.876 151.768 137.616 131.281 149.503 114.739L149.983 114.082L152.737 114.1L152.755 109.071L149.859 109.053L149.379 108.378C145.576 102.977 141.507 98.4457 137.208 94.7676C128.217 87.1095 144.51 45.1052 133.529 45.0519C133.512 45.0519 133.512 45.0519 133.494 45.0519C125.783 45.0519 90.0682 44.4656 84.7022 46.58Z" fill="white"/>
</mask>
<g mask="url(#mask28_11_242106)">
<path fill-rule="evenodd" clip-rule="evenodd" d="M67.5734 138.069C68.213 138.584 68.7105 139.224 69.2081 139.864C67.3069 143.399 65.4056 146.882 63.6821 150.525C62.8115 152.39 61.9586 154.06 61.4255 156.37C61.0524 158.005 60.7148 159.888 60.6437 161.203C60.5904 162.447 60.4483 163.442 60.2528 164.544C60.1818 164.952 59.8797 165.61 60.3239 165.876C60.7681 166.001 60.4305 165.361 60.6437 165.254C61.3367 161.861 62.4916 159.089 63.9842 156.53C64.997 154.807 66.4007 153.367 67.8044 151.928C68.7638 151.608 69.4213 150.702 70.6118 150.756C71.4824 150.791 72.4952 151.804 73.1882 152.39C73.5791 152.728 74.0055 153.012 74.3609 153.332C74.8939 153.812 75.3026 154.167 75.6757 154.736C76.191 155.5 76.7596 156.957 77.1505 158.005C77.3459 158.52 77.4525 159.089 77.6125 159.64C77.7724 160.173 78.0389 160.706 78.1633 161.203C78.2699 161.701 78.2877 162.269 78.3943 162.838C78.6786 164.259 79.0162 165.841 79.2472 167.44C79.5492 169.572 79.7447 171.74 79.869 173.908C79.9757 175.898 80.0112 177.728 79.798 179.753C79.6558 180.997 79.3715 182.241 79.1761 183.414C78.5364 187.056 78.0922 191.072 78.8562 194.697C78.9806 195.283 79.2471 195.727 79.4071 196.26C78.7141 197.237 77.9145 198.144 77.1505 199.068C76.4042 199.956 75.6046 200.969 74.4319 201.395C73.2059 197.184 74.0588 191.249 74.5919 186.914C75.1604 182.17 75.1427 176.413 74.8228 171.118C74.5563 166.587 73.8456 162.109 72.3353 158.343C71.589 156.495 70.8783 154.629 69.5279 153.439C68.4973 153.954 67.3068 154.842 66.5783 155.766C66.4184 155.962 66.4184 156.193 66.2585 156.388C66.1519 156.53 65.9209 156.619 65.7965 156.779C65.5478 157.099 65.3701 157.525 65.1747 157.863C64.766 158.574 64.2507 159.284 64.1619 160.119C64.5705 160.048 64.7838 159.498 65.0147 159.107C65.9032 157.596 66.8626 156.175 68.3552 155.215C68.5862 155.073 68.9415 154.86 69.2081 154.753C69.8655 154.469 70.3097 155.535 70.6118 156.157C70.9316 156.815 71.056 157.383 71.3047 157.952C70.363 158.982 69.2258 159.817 68.2663 160.83C65.4767 163.78 63.0425 167.351 61.7987 171.971C61.4078 171.544 61.0346 170.869 60.7859 170.265C60.5904 169.768 60.5016 169.27 60.2351 168.702C59.0801 166.107 58.6004 161.843 58.9202 158.574C59.1157 156.566 59.8797 154.771 60.7148 153.119C62.6516 149.21 64.6594 145.016 66.4007 140.823C66.8093 139.828 67.218 138.993 67.5734 138.069Z" fill="white"/>
</g>
<mask id="mask29_11_242106" style="mask-type:luminance" maskUnits="userSpaceOnUse" x="43" y="44" width="110" height="108">
<path d="M84.7022 46.58C77.6837 49.3519 75.8536 93.1152 75.7825 93.1685L49.2544 90.5032C49.1478 90.5565 46.9268 106.477 46.5004 117.369C46.5004 117.369 37.1898 131.868 52.5949 136.79C68 141.711 65.086 118.151 65.086 118.151C67.0938 123.748 68.9595 124.796 68.9595 124.796C68.9595 124.796 72.371 126.679 76.0668 128.403C79.7626 130.127 94.3326 136.345 111.017 133.911C110.804 133.947 110.839 134.569 110.804 134.817C110.537 136.79 110.52 138.709 111.319 139.117C112.119 139.526 112.723 139.1 112.723 139.1C114.713 146.456 119.19 149.37 120.612 149.867C126.404 151.857 128.181 151.733 131.842 151.697C132.392 151.697 132.979 151.697 133.618 151.697C149.876 151.768 137.616 131.281 149.503 114.739L149.983 114.082L152.737 114.1L152.755 109.071L149.859 109.053L149.379 108.378C145.576 102.977 141.507 98.4457 137.208 94.7676C128.217 87.1095 144.51 45.1052 133.529 45.0519C133.512 45.0519 133.512 45.0519 133.494 45.0519C125.783 45.0519 90.0682 44.4656 84.7022 46.58Z" fill="white"/>
</mask>
<g mask="url(#mask29_11_242106)">
<path fill-rule="evenodd" clip-rule="evenodd" d="M71.4644 142.351C69.5454 145.336 67.5909 148.286 66.2405 151.857C65.7074 152.23 65.4587 152.888 64.9079 153.261C63.593 155.5 62.136 157.792 61.2476 160.493C61.1943 160.635 61.2831 160.955 61.0166 160.955C61.3364 158.858 61.603 156.886 62.1893 155.038C62.7579 153.243 63.6818 151.644 64.4459 150.063C65.6364 147.593 66.9512 145.301 68.1062 142.813C68.5148 141.942 69.0123 141.178 69.5098 140.326C70.3272 140.841 70.8602 141.64 71.4644 142.351Z" fill="white"/>
</g>
<mask id="mask30_11_242106" style="mask-type:luminance" maskUnits="userSpaceOnUse" x="43" y="44" width="110" height="108">
<path d="M84.7022 46.58C77.6837 49.3519 75.8536 93.1152 75.7825 93.1685L49.2544 90.5032C49.1478 90.5565 46.9268 106.477 46.5004 117.369C46.5004 117.369 37.1898 131.868 52.5949 136.79C68 141.711 65.086 118.151 65.086 118.151C67.0938 123.748 68.9595 124.796 68.9595 124.796C68.9595 124.796 72.371 126.679 76.0668 128.403C79.7626 130.127 94.3326 136.345 111.017 133.911C110.804 133.947 110.839 134.569 110.804 134.817C110.537 136.79 110.52 138.709 111.319 139.117C112.119 139.526 112.723 139.1 112.723 139.1C114.713 146.456 119.19 149.37 120.612 149.867C126.404 151.857 128.181 151.733 131.842 151.697C132.392 151.697 132.979 151.697 133.618 151.697C149.876 151.768 137.616 131.281 149.503 114.739L149.983 114.082L152.737 114.1L152.755 109.071L149.859 109.053L149.379 108.378C145.576 102.977 141.507 98.4457 137.208 94.7676C128.217 87.1095 144.51 45.1052 133.529 45.0519C133.512 45.0519 133.512 45.0519 133.494 45.0519C125.783 45.0519 90.0682 44.4656 84.7022 46.58Z" fill="white"/>
</mask>
<g mask="url(#mask30_11_242106)">
<path fill-rule="evenodd" clip-rule="evenodd" d="M74.823 146.154C74.2189 147.504 73.1883 148.41 72.5664 149.743C70.8251 148.623 68.4087 149.743 67.2715 150.827C67.3959 150.08 67.7868 149.405 68.1244 148.73C69.1549 146.687 70.5409 144.697 71.7846 142.813C72.9573 143.755 73.7569 145.105 74.823 146.154Z" fill="white"/>
</g>
<mask id="mask31_11_242106" style="mask-type:luminance" maskUnits="userSpaceOnUse" x="43" y="44" width="110" height="108">
<path d="M84.7022 46.58C77.6837 49.3519 75.8536 93.1152 75.7825 93.1685L49.2544 90.5032C49.1478 90.5565 46.9268 106.477 46.5004 117.369C46.5004 117.369 37.1898 131.868 52.5949 136.79C68 141.711 65.086 118.151 65.086 118.151C67.0938 123.748 68.9595 124.796 68.9595 124.796C68.9595 124.796 72.371 126.679 76.0668 128.403C79.7626 130.127 94.3326 136.345 111.017 133.911C110.804 133.947 110.839 134.569 110.804 134.817C110.537 136.79 110.52 138.709 111.319 139.117C112.119 139.526 112.723 139.1 112.723 139.1C114.713 146.456 119.19 149.37 120.612 149.867C126.404 151.857 128.181 151.733 131.842 151.697C132.392 151.697 132.979 151.697 133.618 151.697C149.876 151.768 137.616 131.281 149.503 114.739L149.983 114.082L152.737 114.1L152.755 109.071L149.859 109.053L149.379 108.378C145.576 102.977 141.507 98.4457 137.208 94.7676C128.217 87.1095 144.51 45.1052 133.529 45.0519C133.512 45.0519 133.512 45.0519 133.494 45.0519C125.783 45.0519 90.0682 44.4656 84.7022 46.58Z" fill="white"/>
</mask>
<g mask="url(#mask31_11_242106)">
<path fill-rule="evenodd" clip-rule="evenodd" d="M75.196 146.544C76.9729 148.375 78.8563 150.098 80.722 151.839C80.0823 153.19 79.0873 154.203 78.2344 155.34C76.4931 153.563 74.8762 151.626 72.9395 150.045C73.5436 148.73 74.4498 147.717 75.196 146.544Z" fill="white"/>
</g>
<mask id="mask32_11_242106" style="mask-type:luminance" maskUnits="userSpaceOnUse" x="43" y="44" width="110" height="108">
<path d="M84.7022 46.58C77.6837 49.3519 75.8536 93.1152 75.7825 93.1685L49.2544 90.5032C49.1478 90.5565 46.9268 106.477 46.5004 117.369C46.5004 117.369 37.1898 131.868 52.5949 136.79C68 141.711 65.086 118.151 65.086 118.151C67.0938 123.748 68.9595 124.796 68.9595 124.796C68.9595 124.796 72.371 126.679 76.0668 128.403C79.7626 130.127 94.3326 136.345 111.017 133.911C110.804 133.947 110.839 134.569 110.804 134.817C110.537 136.79 110.52 138.709 111.319 139.117C112.119 139.526 112.723 139.1 112.723 139.1C114.713 146.456 119.19 149.37 120.612 149.867C126.404 151.857 128.181 151.733 131.842 151.697C132.392 151.697 132.979 151.697 133.618 151.697C149.876 151.768 137.616 131.281 149.503 114.739L149.983 114.082L152.737 114.1L152.755 109.071L149.859 109.053L149.379 108.378C145.576 102.977 141.507 98.4457 137.208 94.7676C128.217 87.1095 144.51 45.1052 133.529 45.0519C133.512 45.0519 133.512 45.0519 133.494 45.0519C125.783 45.0519 90.0682 44.4656 84.7022 46.58Z" fill="white"/>
</mask>
<g mask="url(#mask32_11_242106)">
<path fill-rule="evenodd" clip-rule="evenodd" d="M130.26 90.6631C130.42 89.8636 130.277 88.7442 129.567 88.5665C129.371 89.366 129.709 90.3255 130.26 90.6631Z" fill="white"/>
</g>
<mask id="mask33_11_242106" style="mask-type:luminance" maskUnits="userSpaceOnUse" x="89" y="125" width="30" height="10">
<path d="M89.0723 130.073L91.0623 133.236C97.0502 134.48 104.246 135.048 110.998 133.805L111.087 133.396C111.087 133.396 111.531 132.721 112.207 132.525C112.562 132.419 112.864 132.436 113.148 132.436C113.433 132.454 113.699 132.454 114.019 132.365C115.032 130.979 118.212 129.807 118.212 129.807L115.281 126.502L102.629 125.276L89.0723 130.073Z" fill="white"/>
</mask>
<g mask="url(#mask33_11_242106)">
<path d="M103.5 127.71C112.793 125.72 118.035 132.827 118.266 133.129C118.284 133.147 118.301 133.165 118.301 133.183C120.398 135.493 121.997 139.952 122.655 142.067C121.162 141.516 117.857 140.325 117.431 140.166C116.365 136.523 114.463 133.911 111.798 132.436C107.623 130.126 103.092 131.37 102.719 131.477C102.399 131.548 99.5559 132.205 98.5964 134.888C98.5786 134.959 98.5608 135.031 98.5608 135.084C97.7257 137.696 99.396 139.935 99.5914 140.183C99.8046 140.503 102.488 144.359 107.161 145.283C110.164 145.869 113.291 145.087 116.454 142.991C116.88 143.151 120.185 144.341 121.677 144.892C119.812 146.082 115.725 148.481 112.633 148.89C112.616 148.89 112.58 148.89 112.562 148.908C112.207 148.996 103.607 151.058 97.779 143.577C97.7613 143.542 95.7179 140.947 94.2076 137.323C93.7279 135.901 92.9461 133.805 92.1465 132.543C93.5679 132.099 95.4869 130.997 96.7662 130.215C100.231 128.403 103.465 127.728 103.5 127.71Z" fill="#701C45"/>
</g>
<mask id="mask34_11_242106" style="mask-type:luminance" maskUnits="userSpaceOnUse" x="89" y="125" width="30" height="10">
<path d="M89.0723 130.073L91.0623 133.236C97.0502 134.48 104.246 135.048 110.998 133.805L111.087 133.396C111.087 133.396 111.531 132.721 112.207 132.525C112.562 132.419 112.864 132.436 113.148 132.436C113.433 132.454 113.699 132.454 114.019 132.365C115.032 130.979 118.212 129.807 118.212 129.807L115.281 126.502L102.629 125.276L89.0723 130.073Z" fill="white"/>
</mask>
<g mask="url(#mask34_11_242106)">
<path d="M103.5 127.71C112.793 125.72 118.035 132.827 118.266 133.129C118.284 133.147 118.301 133.165 118.301 133.183C120.398 135.493 121.997 139.952 122.655 142.067C121.162 141.516 117.857 140.325 117.431 140.166C116.365 136.523 114.463 133.911 111.798 132.436C107.623 130.126 103.092 131.37 102.719 131.477C102.399 131.548 99.5559 132.205 98.5964 134.888C98.5786 134.959 98.5608 135.031 98.5608 135.084C97.7257 137.696 99.396 139.935 99.5914 140.183C99.8046 140.503 102.488 144.359 107.161 145.283C110.164 145.869 113.291 145.087 116.454 142.991C116.88 143.151 120.185 144.341 121.677 144.892C119.812 146.082 115.725 148.481 112.633 148.89C112.616 148.89 112.58 148.89 112.562 148.908C112.207 148.996 103.607 151.058 97.779 143.577C97.7613 143.542 95.7179 140.947 94.2076 137.323C93.7279 135.901 92.9461 133.805 92.1465 132.543C93.5679 132.099 95.4869 130.997 96.7662 130.215C100.231 128.403 103.465 127.728 103.5 127.71Z" stroke="white" stroke-width="4.05"/>
</g>
<mask id="mask35_11_242106" style="mask-type:luminance" maskUnits="userSpaceOnUse" x="89" y="125" width="30" height="10">
<path d="M89.0723 130.073L91.0623 133.236C97.0502 134.48 104.246 135.048 110.998 133.805L111.087 133.396C111.087 133.396 111.531 132.721 112.207 132.525C112.562 132.419 112.864 132.436 113.148 132.436C113.433 132.454 113.699 132.454 114.019 132.365C115.032 130.979 118.212 129.807 118.212 129.807L115.281 126.502L102.629 125.276L89.0723 130.073Z" fill="white"/>
</mask>
<g mask="url(#mask35_11_242106)">
<path d="M90.9209 132.117C91.8982 132.472 96.4113 129.647 96.4113 129.647C100.018 127.763 103.323 127.088 103.323 127.088C113.131 124.991 118.711 132.738 118.711 132.738C121.642 135.955 123.561 143.026 123.561 143.026L116.898 140.61C113.629 128.812 102.826 132.045 102.826 132.045C102.826 132.045 100.018 132.596 99.1298 135.066L99.1476 135.102C98.2414 137.571 100.054 139.792 100.054 139.792C100.054 139.792 106.255 149.21 116.347 142.262L123.01 144.679C123.01 144.679 116.987 148.872 112.687 149.458C112.687 149.458 103.43 151.822 97.2642 143.915C97.2642 143.915 95.1675 141.267 93.6039 137.5C93.5861 137.5 91.8982 132.472 90.9209 132.117Z" stroke="white" stroke-width="3.799"/>
</g>
<mask id="mask36_11_242106" style="mask-type:luminance" maskUnits="userSpaceOnUse" x="43" y="44" width="110" height="108">
<path d="M84.7022 46.58C77.6837 49.3519 75.8536 93.1152 75.7825 93.1685L49.2544 90.5032C49.1478 90.5565 46.9268 106.477 46.5004 117.369C46.5004 117.369 37.1898 131.868 52.5949 136.79C68 141.711 65.086 118.151 65.086 118.151C67.0938 123.748 68.7107 124.547 68.7107 124.547L70.452 125.613C73.9346 127.159 91.3831 139.526 110.751 133.929C110.573 134.036 110.946 134.018 110.733 134.16C109.134 135.368 110.129 138.247 110.928 138.655C111.728 139.064 111.603 139.188 112.741 139.1C115.548 147.113 118.942 148.161 120.363 148.641C126.156 150.631 128.199 151.715 131.842 151.697C132.392 151.697 132.979 151.697 133.618 151.697C149.876 151.768 137.616 131.281 149.503 114.739L149.983 114.082L152.737 114.1L152.755 109.071L149.859 109.053L149.379 108.378C145.576 102.977 141.507 98.4457 137.208 94.7676C128.217 87.1095 144.51 45.1052 133.529 45.0519C133.512 45.0519 133.512 45.0519 133.494 45.0519C125.783 45.0519 90.0682 44.4656 84.7022 46.58Z" fill="white"/>
</mask>
<g mask="url(#mask36_11_242106)">
<path fill-rule="evenodd" clip-rule="evenodd" d="M113.54 139.97C113.54 139.97 114.109 138.229 115.37 137.287C116.507 136.434 116.294 136.719 116.294 136.719C116.294 136.719 113.735 138.922 113.913 140.663C114.002 141.463 113.558 139.881 113.895 141.445C114.269 143.009 113.54 139.97 113.54 139.97Z" fill="#231F20"/>
</g>
<mask id="mask37_11_242106" style="mask-type:luminance" maskUnits="userSpaceOnUse" x="43" y="44" width="110" height="108">
<path d="M84.7022 46.58C77.6837 49.3519 75.8536 93.1152 75.7825 93.1685L49.2544 90.5032C49.1478 90.5565 46.9268 106.477 46.5004 117.369C46.5004 117.369 37.1898 131.868 52.5949 136.79C68 141.711 65.086 118.151 65.086 118.151C67.0938 123.748 68.7107 124.547 68.7107 124.547L70.452 125.613C73.9346 127.159 91.3831 139.526 110.751 133.929C110.573 134.036 110.946 134.018 110.733 134.16C109.134 135.368 110.129 138.247 110.928 138.655C111.728 139.064 111.603 139.188 112.741 139.1C115.548 147.113 118.942 148.161 120.363 148.641C126.156 150.631 128.199 151.715 131.842 151.697C132.392 151.697 132.979 151.697 133.618 151.697C149.876 151.768 137.616 131.281 149.503 114.739L149.983 114.082L152.737 114.1L152.755 109.071L149.859 109.053L149.379 108.378C145.576 102.977 141.507 98.4457 137.208 94.7676C128.217 87.1095 144.51 45.1052 133.529 45.0519C133.512 45.0519 133.512 45.0519 133.494 45.0519C125.783 45.0519 90.0682 44.4656 84.7022 46.58Z" fill="white"/>
</mask>
<g mask="url(#mask37_11_242106)">
<path fill-rule="evenodd" clip-rule="evenodd" d="M115.477 143.666C115.477 143.666 116.116 141.783 117.378 140.716C118.142 140.077 118.337 140.095 118.337 140.095C118.337 140.095 116.72 141.605 116.507 142.245C116.241 143.08 115.761 143.346 116.134 145.052C116.472 146.793 115.477 143.666 115.477 143.666Z" fill="#231F20"/>
</g>
<mask id="mask38_11_242106" style="mask-type:luminance" maskUnits="userSpaceOnUse" x="43" y="44" width="110" height="108">
<path d="M84.7022 46.58C77.6837 49.3519 75.8536 93.1152 75.7825 93.1685L49.2544 90.5032C49.1478 90.5565 46.9268 106.477 46.5004 117.369C46.5004 117.369 37.1898 131.868 52.5949 136.79C68 141.711 65.086 118.151 65.086 118.151C67.0938 123.748 68.7107 124.547 68.7107 124.547L70.452 125.613C73.9346 127.159 91.3831 139.526 110.751 133.929C110.573 134.036 110.946 134.018 110.733 134.16C109.134 135.368 110.129 138.247 110.928 138.655C111.728 139.064 111.603 139.188 112.741 139.1C115.548 147.113 118.942 148.161 120.363 148.641C126.156 150.631 128.199 151.715 131.842 151.697C132.392 151.697 132.979 151.697 133.618 151.697C149.876 151.768 137.616 131.281 149.503 114.739L149.983 114.082L152.737 114.1L152.755 109.071L149.859 109.053L149.379 108.378C145.576 102.977 141.507 98.4457 137.208 94.7676C128.217 87.1095 144.51 45.1052 133.529 45.0519C133.512 45.0519 133.512 45.0519 133.494 45.0519C125.783 45.0519 90.0682 44.4656 84.7022 46.58Z" fill="white"/>
</mask>
<g mask="url(#mask38_11_242106)">
<path fill-rule="evenodd" clip-rule="evenodd" d="M104.336 64.0995C104.407 64.0995 104.496 64.0995 104.567 64.0995C104.514 66.1784 104.887 67.7598 104.958 69.4655C104.976 69.8209 104.869 70.3184 104.958 70.7093C105.1 71.2779 106.397 72.4684 106.824 72.8948C107.534 73.6056 108.174 74.3163 109.009 74.6894C109.666 74.3518 109.08 73.5345 109.862 73.2147C110.679 73.8188 110.448 75.9687 110.182 77.1059C109.968 77.9588 109.88 78.3497 109.009 78.5096C109.666 83.2004 108.103 86.9318 104.176 87.5359C102.435 87.2871 101.333 86.1144 100.587 84.5686C99.9472 83.2004 99.4497 80.6063 99.805 78.5807C100.143 76.6262 101.653 74.6361 102.914 73.5167C102.506 73.1791 102.168 72.7882 101.671 72.8238C101.013 72.8593 100.818 73.8365 100.107 73.8365C99.805 73.4101 99.9116 72.5928 100.107 71.882C100.32 71.1002 100.978 69.892 101.351 69.5544C101.671 69.2701 102.435 68.968 102.755 69.0036C103.394 69.0746 103.625 69.7498 104.158 70.0874C104.336 68.4705 103.963 66.2673 104.336 64.0995ZM108.138 78.1898C107.499 77.5501 106.788 76.9815 106.113 76.3952C105.278 75.6667 104.531 74.725 103.696 74.1386C103.679 74.0498 103.607 74.0853 103.536 74.1386C101.635 75.0981 100.178 78.0476 100.427 81.1393C100.551 82.774 101.262 84.7463 101.991 85.7413C102.31 86.1855 102.932 86.7008 103.554 86.683C102.044 84.7463 103.199 80.5174 105.74 80.8373C107.161 81.0149 107.641 83.0228 107.765 84.6574C108.636 83.1116 108.636 80.0377 108.138 78.1898ZM106.664 83.3426C107.001 82.7029 106.344 81.9567 105.811 81.7079C105.722 82.312 106.059 83.1649 106.664 83.3426Z" fill="black"/>
</g>
<mask id="mask39_11_242106" style="mask-type:luminance" maskUnits="userSpaceOnUse" x="43" y="44" width="110" height="108">
<path d="M84.7022 46.58C77.6837 49.3519 75.8536 93.1152 75.7825 93.1685L49.2544 90.5032C49.1478 90.5565 46.9268 106.477 46.5004 117.369C46.5004 117.369 37.1898 131.868 52.5949 136.79C68 141.711 65.086 118.151 65.086 118.151C67.0938 123.748 68.7107 124.547 68.7107 124.547L70.452 125.613C73.9346 127.159 91.3831 139.526 110.751 133.929C110.573 134.036 110.946 134.018 110.733 134.16C109.134 135.368 110.129 138.247 110.928 138.655C111.728 139.064 111.603 139.188 112.741 139.1C115.548 147.113 118.942 148.161 120.363 148.641C126.156 150.631 128.199 151.715 131.842 151.697C132.392 151.697 132.979 151.697 133.618 151.697C149.876 151.768 137.616 131.281 149.503 114.739L149.983 114.082L152.737 114.1L152.755 109.071L149.859 109.053L149.379 108.378C145.576 102.977 141.507 98.4457 137.208 94.7676C128.217 87.1095 144.51 45.1052 133.529 45.0519C133.512 45.0519 133.512 45.0519 133.494 45.0519C125.783 45.0519 90.0682 44.4656 84.7022 46.58Z" fill="white"/>
</mask>
<g mask="url(#mask39_11_242106)">
<path fill-rule="evenodd" clip-rule="evenodd" d="M107.747 84.6575C107.623 83.0228 107.143 81.0327 105.722 80.8373C103.181 80.5174 102.026 84.7285 103.536 86.683C102.932 86.7186 102.31 86.1855 101.973 85.7413C101.244 84.7463 100.534 82.7918 100.409 81.1393C100.178 78.0476 101.617 75.0981 103.519 74.1386C103.59 74.0853 103.661 74.0498 103.679 74.1386C104.514 74.725 105.26 75.6667 106.095 76.3952C106.77 76.9815 107.481 77.5501 108.121 78.1898C108.636 80.0377 108.636 83.1116 107.747 84.6575Z" fill="white"/>
</g>
<mask id="mask40_11_242106" style="mask-type:luminance" maskUnits="userSpaceOnUse" x="43" y="44" width="110" height="108">
<path d="M84.7022 46.58C77.6837 49.3519 75.8536 93.1152 75.7825 93.1685L49.2544 90.5032C49.1478 90.5565 46.9268 106.477 46.5004 117.369C46.5004 117.369 37.1898 131.868 52.5949 136.79C68 141.711 65.086 118.151 65.086 118.151C67.0938 123.748 68.7107 124.547 68.7107 124.547L70.452 125.613C73.9346 127.159 91.3831 139.526 110.751 133.929C110.573 134.036 110.946 134.018 110.733 134.16C109.134 135.368 110.129 138.247 110.928 138.655C111.728 139.064 111.603 139.188 112.741 139.1C115.548 147.113 118.942 148.161 120.363 148.641C126.156 150.631 128.199 151.715 131.842 151.697C132.392 151.697 132.979 151.697 133.618 151.697C149.876 151.768 137.616 131.281 149.503 114.739L149.983 114.082L152.737 114.1L152.755 109.071L149.859 109.053L149.379 108.378C145.576 102.977 141.507 98.4457 137.208 94.7676C128.217 87.1095 144.51 45.1052 133.529 45.0519C133.512 45.0519 133.512 45.0519 133.494 45.0519C125.783 45.0519 90.0682 44.4656 84.7022 46.58Z" fill="white"/>
</mask>
<g mask="url(#mask40_11_242106)">
<path fill-rule="evenodd" clip-rule="evenodd" d="M126.049 102.799C126.084 103.954 125.676 104.665 125.356 105.446C125.622 105.766 126.209 105.784 126.6 105.997C126.653 106.655 126.191 107.294 125.658 108.023C125.285 108.538 124.752 109.426 124.094 109.498C123.721 109.533 123.135 109.267 122.531 109.107C118.853 108.076 115.033 107.596 111.088 108.396C110.555 108.502 109.809 108.733 109.062 108.858C108.298 109 107.357 109.267 106.966 109.16C106.486 109.036 105.971 108.165 105.562 107.596C103.75 105.144 103.146 101.715 103.465 98.0192C103.554 97.0419 103.679 96.0647 104.158 95.2118C105.491 94.4655 107.41 95.0697 108.831 95.6027C110.324 96.1535 111.905 97.1663 113.185 98.0192C114.748 99.0498 116.33 100.276 118.089 101.289C118.711 101.662 119.368 102.053 119.883 102.141C121.962 102.532 124.663 101.324 126.049 102.799ZM119.901 102.799C118.871 102.621 118.249 102.07 117.485 101.626C116.01 100.756 114.624 99.7783 113.202 98.9076C112.243 98.3035 111.355 97.6994 110.253 97.2729C109.098 96.8287 107.943 96.1713 106.593 96.1891C105.722 98.3213 105.313 100.933 104.727 103.35C105.988 103.314 107.712 103.172 109.169 103.19C109.542 103.19 110.129 103.03 110.342 103.421C110.057 103.598 109.578 103.563 109.098 103.581C107.517 103.634 105.917 103.652 104.816 103.972C104.922 104.949 105.313 105.713 105.758 106.548C106.042 107.063 106.61 108.307 107.321 108.502C108.067 108.698 109.951 108.041 110.59 107.881C110.981 107.792 111.337 107.721 111.674 107.65C116.045 106.761 120.683 107.614 124.29 108.662C124.858 108.023 125.356 107.294 125.694 106.406C123.81 105.802 121.785 105.233 119.706 104.771C118.64 104.54 117.573 104.203 116.507 104.078C115.459 103.936 114.375 104.06 113.398 103.616C117.218 103.634 121.074 104.416 124.61 105.322C124.787 104.647 125.196 103.634 124.841 102.905C123.277 102.639 121.376 103.065 119.901 102.799Z" fill="black"/>
</g>
<mask id="mask41_11_242106" style="mask-type:luminance" maskUnits="userSpaceOnUse" x="43" y="44" width="110" height="108">
<path d="M84.7022 46.58C77.6837 49.3519 75.8536 93.1152 75.7825 93.1685L49.2544 90.5032C49.1478 90.5565 46.9268 106.477 46.5004 117.369C46.5004 117.369 37.1898 131.868 52.5949 136.79C68 141.711 65.086 118.151 65.086 118.151C67.0938 123.748 68.7107 124.547 68.7107 124.547L70.452 125.613C73.9346 127.159 91.3831 139.526 110.751 133.929C110.573 134.036 110.946 134.018 110.733 134.16C109.134 135.368 110.129 138.247 110.928 138.655C111.728 139.064 111.603 139.188 112.741 139.1C115.548 147.113 118.942 148.161 120.363 148.641C126.156 150.631 128.199 151.715 131.842 151.697C132.392 151.697 132.979 151.697 133.618 151.697C149.876 151.768 137.616 131.281 149.503 114.739L149.983 114.082L152.737 114.1L152.755 109.071L149.859 109.053L149.379 108.378C145.576 102.977 141.507 98.4457 137.208 94.7676C128.217 87.1095 144.51 45.1052 133.529 45.0519C133.512 45.0519 133.512 45.0519 133.494 45.0519C125.783 45.0519 90.0682 44.4656 84.7022 46.58Z" fill="white"/>
</mask>
<g mask="url(#mask41_11_242106)">
<path fill-rule="evenodd" clip-rule="evenodd" d="M124.805 102.888C125.16 103.598 124.752 104.629 124.574 105.304C121.038 104.398 117.183 103.616 113.362 103.598C114.34 104.06 115.423 103.918 116.472 104.06C117.538 104.203 118.604 104.522 119.67 104.753C121.749 105.215 123.775 105.784 125.658 106.388C125.32 107.276 124.823 108.005 124.254 108.645C120.647 107.579 116.01 106.743 111.639 107.632C111.301 107.703 110.946 107.774 110.555 107.863C109.898 108.023 108.032 108.68 107.286 108.485C106.575 108.307 106.006 107.063 105.722 106.53C105.278 105.713 104.887 104.931 104.78 103.954C105.882 103.634 107.481 103.616 109.062 103.563C109.542 103.545 110.022 103.581 110.306 103.403C110.093 102.994 109.507 103.172 109.133 103.172C107.676 103.154 105.971 103.296 104.691 103.332C105.296 100.915 105.686 98.3035 106.557 96.1713C107.907 96.1713 109.062 96.811 110.217 97.2552C111.319 97.6816 112.207 98.2857 113.167 98.8898C114.571 99.7783 115.974 100.756 117.449 101.608C118.213 102.053 118.835 102.603 119.866 102.781C121.376 103.065 123.277 102.639 124.805 102.888Z" fill="white"/>
</g>
</svg>
