<?xml version="1.0" encoding="UTF-8"?>
<svg width="200px" height="200px" viewBox="0 0 200 200" version="1.1" xmlns="http://www.w3.org/2000/svg" xmlns:xlink="http://www.w3.org/1999/xlink">
    <title>concordia-chicago_BGL</title>
    <defs>
        <polygon id="path-1" points="0 0 200 0 200 151.402519 0 151.402519"></polygon>
    </defs>
    <g id="concordia-chicago_BGL" stroke="none" stroke-width="1" fill="none" fill-rule="evenodd">
        <g id="concordia-chicago" transform="translate(0.000000, 24.000000)">
            <g id="Group-4">
                <mask id="mask-2" fill="white">
                    <use xlink:href="#path-1"></use>
                </mask>
                <g id="Clip-2"></g>
                <path d="M42.7657149,30.1869265 C34.1773523,21.1796888 30.8195133,8.79466575 30.6388556,8.16606827 L29.4340913,3.9659201 L33.5538839,5.42257936 C54.4332365,12.804468 67.7135693,9.0927224 81.7740924,5.16213598 C90.9978914,2.58391748 100.529435,-0.0775061264 112.730951,0.00170969396 C126.48031,0.09631276 141.584316,3.80634866 158.905226,11.3443894 C163.104234,13.1714823 166.333276,16.413632 167.76429,20.2387873 C168.710321,22.7679945 169.481963,27.0148743 170.068958,30.698125 C173.767596,33.0597823 187.923292,42.5160996 198.723429,55.4698809 L199.122927,55.949735 L199.21867,56.5669345 C199.263122,56.8535932 200.301476,63.6274007 199.913376,67.4462871 C199.527555,71.2269904 198.049239,73.9539522 195.286944,75.9394768 C194.983188,78.1147775 194.040007,83.0888471 191.369465,88.0144754 C188.205961,93.8508007 182.020288,100.623468 170.365875,100.624038 C170.006269,100.624038 169.642104,100.617769 169.27224,100.604092 C166.215877,102.133128 163.274064,103.101385 160.693566,103.712315 L160.691286,103.893543 C160.689007,104.143158 160.600672,109.798256 158.922893,115.582151 C159.626147,117.126004 160.970536,120.350487 161.609962,123.710606 L161.756426,124.478258 L161.39568,125.171254 C161.297088,125.36046 159.125207,129.502479 156.293953,132.445432 C156.224996,134.0799 155.842024,137.334587 154.038297,140.799567 C151.73363,145.227104 145.964552,150.162421 138.26979,151.207614 C137.37676,151.329002 136.409073,151.402519 135.376988,151.402519 C129.690545,151.402519 122.024278,149.172508 113.85707,140.405197 L113.35157,139.862655 L113.267795,139.125776 C113.097396,137.632074 113.047814,136.461503 113.035277,135.767368 C109.358865,129.699664 108.706332,124.91879 108.615148,122.844361 C99.1497122,113.466689 80.5111985,105.286944 80.3202827,105.203739 L79.7971163,104.975779 L79.4454893,104.52613 C75.5382686,99.5332535 73.7299823,93.737391 73.0495241,91.0366444 C62.7805323,88.6863851 53.1133527,80.7984271 51.2537756,79.2192398 C42.0977945,75.5177523 36.5367299,67.7386448 35.1034365,65.5382686 C8.88356984,52.0328261 2.27788226,30.1709694 2.00775061,29.240326 L-0.0341938793,22.2094945 L5.60551661,26.8775289 C16.5669345,35.9503049 27.3214795,39.9025474 36.793184,38.3609734 C36.793184,38.3609734 42.1348379,37.7249672 46.9362284,34.1750727 C46.9362284,34.1750727 44.698239,32.4266256 42.7657149,30.1869265" id="Fill-1" fill="#FFFFFE" mask="url(#mask-2)"></path>
                <path d="M196.993788,56.9117228 C184.831025,42.3229042 168.004217,32.0607511 168.004217,32.0607511 C167.606998,29.5047586 166.720237,23.8747364 165.655098,21.028096 C164.589958,18.1808856 162.081837,15.1826523 158.006497,13.4091298 C89.6711689,-16.329857 81.4834445,24.7580783 32.8033282,7.54544936 C32.8033282,7.54544936 38.011056,25.7018294 50.5915541,34.0365875 C50.5915541,34.0365875 33.3162364,52.73722 4.16994358,28.6122984 C4.16994358,28.6122984 10.5613495,50.6206189 36.6792044,63.8143272 C36.6792044,63.8143272 42.3080869,73.335043 52.435744,77.2650596 C52.435744,77.2650596 63.6969282,87.1715963 74.9256283,89.1183678 C74.9256283,89.1183678 76.3178891,96.8746794 81.2184419,103.138998 C81.2184419,103.138998 101.191657,111.831082 110.863965,121.919416 C110.863965,121.919416 110.402918,127.360233 115.286374,135.126232 C115.286374,135.126232 115.243061,136.576623 115.504645,138.870462 C132.522938,157.139682 148.311962,146.924261 152.041375,139.759503 C154.297031,135.425999 154.047985,131.496552 154.047985,131.496552 C156.970992,128.796375 159.398188,124.13233 159.398188,124.13233 C158.650482,120.204593 156.850744,116.436998 156.515644,115.757679 C158.366672,109.938451 158.439619,103.866758 158.439619,103.866758 C155.021941,107.824699 151.134667,110.980794 147.417792,113.447313 L147.146521,113.230752 C144.276515,110.941471 144.481678,107.730096 145.090899,102.252237 C145.822648,95.681313 146.777797,87.0735738 137.421782,81.2076138 C144.9148,81.3780133 152.945803,87.2285861 161.363196,90.6474041 C160.102582,93.2432895 157.275318,97.905055 151.661823,102.454551 C151.661823,102.454551 159.779449,103.008491 168.779279,98.3279193 C191.216162,99.5532 193.173762,74.6355502 193.173762,74.6355502 C195.860831,73.0238787 197.308372,70.7938679 197.673107,67.217758 C198.037271,63.642218 196.993788,56.9117228 196.993788,56.9117228" id="Fill-3" fill="#1A1919" mask="url(#mask-2)"></path>
            </g>
            <path d="M164.017211,91.5341654 C164.017211,91.5341654 167.885678,93.0842879 172.779962,93.0096313 C172.779962,93.0096313 166.822249,98.3256397 158.020174,99.4061663 C158.020174,99.4061663 161.796888,95.7280447 164.017211,91.5341654" id="Fill-5" fill="#FFFFFE"></path>
            <path d="M138.113068,118.576395 C139.864364,117.786516 141.90004,116.775517 144.072491,115.519462 C134.840144,106.724226 151.096484,90.3675842 131.547843,82.4363139 C131.536445,82.4420129 131.526187,82.4465721 131.514789,82.4517011 C131.302787,83.1407078 130.304895,84.8338747 129.377101,87.3266085 C132.381034,87.9033453 136.0318,90.27925 136.973842,98.1415627 C136.973842,98.1415627 134.036018,93.5094318 127.865162,93.3578389 C127.026272,99.8529663 128.439619,108.669288 137.702741,118.481792 C137.702741,118.481792 137.848635,118.519405 138.113068,118.576395" id="Fill-6" fill="#898A89"></path>
            <g id="Group-10" transform="translate(13.625691, 6.016823)">
                <path d="M126.095629,114.174093 C126.095629,114.174093 134.944435,110.55809 141.84248,103.868058 C141.84248,103.868058 141.276571,108.707061 138.662449,113.542646 C138.662449,113.542646 132.5161,115.580031 126.095629,114.174093" id="Fill-7" fill="#FFFFFE"></path>
                <path d="M139.028894,52.5014421 C135.280675,50.1705594 131.473756,47.9724628 127.614977,45.8866362 C125.70012,44.8112387 123.726563,43.860079 121.775802,42.8519294 C120.798427,42.3549784 119.789138,41.926985 118.804354,41.4391523 L117.31749,40.72564 C116.81826,40.4971109 116.31162,40.2879584 115.80783,40.0679777 C114.799111,39.6314359 113.793811,39.1806466 112.786231,38.7247282 C111.760415,38.3269394 110.736308,37.9137633 109.710492,37.4920388 L108.171197,36.8491939 L106.605688,36.2792959 C105.559925,35.8946148 104.515302,35.4837183 103.468399,35.0448969 C104.588819,35.1252525 105.712088,35.2329632 106.833647,35.3657494 L108.518835,35.5731923 C109.073916,35.6712148 109.623867,35.7914632 110.178378,35.8997439 C111.28341,36.1294127 112.390722,36.3676301 113.495754,36.6212347 C114.58141,36.9289796 115.665926,37.2526817 116.748732,37.5849322 C117.288425,37.7547618 117.833248,37.9143332 118.370662,38.0938511 L119.957828,38.6933838 C121.014418,39.0974415 122.077848,39.4952303 123.117342,39.9426002 L126.20277,41.3605064 L126.969852,41.725811 L127.719838,42.1218901 L129.21981,42.9163279 C133.198268,45.0699724 137.002906,47.5404802 140.548242,50.33469 C141.427594,51.0425033 142.296689,51.7622845 143.158375,52.4883345 C144.001254,53.2405998 144.845843,53.9860264 145.660227,54.7662168 C146.469482,55.552676 147.273038,56.3414148 148.036132,57.1740358 C148.808343,57.994119 149.545221,58.8535251 150.235368,59.7465553 C146.48259,57.2538215 142.789081,54.8220668 139.028894,52.5014421 Z M136.932239,61.3730441 C132.84892,59.6969741 128.730267,58.1610991 124.577991,56.7466123 C122.51154,56.0034653 120.406907,55.3936744 118.316521,54.7234744 C117.269049,54.3957831 116.20334,54.1410387 115.150738,53.8241754 L113.566422,53.3671172 C113.036416,53.2246427 112.501852,53.1032544 111.968428,52.9698983 C110.901009,52.7066054 109.83473,52.4290651 108.765601,52.1469656 C107.688494,51.9252753 106.609677,51.6876278 105.52858,51.4425717 L103.903231,51.0647293 L102.264775,50.7626834 C101.170001,50.5563803 100.071807,50.3250017 98.9667749,50.066268 C100.084915,49.9591272 101.209893,49.8787716 102.337722,49.8240614 L104.034308,49.748265 C104.597937,49.7528241 105.159856,49.7796094 105.724625,49.7944267 C106.853023,49.8377389 107.983701,49.8884599 109.116088,49.9551379 C110.238217,50.077666 111.360916,50.217291 112.484185,50.3643247 C113.044395,50.4424007 113.608024,50.5090788 114.168234,50.5968431 L115.832906,50.9251043 C116.941927,51.1473645 118.056078,51.3633559 119.155981,51.6317778 L122.434034,52.5173993 L123.250698,52.7499177 L124.055964,53.0166299 L125.667635,53.5500544 C129.948709,55.0129826 134.110674,56.8172796 138.070895,58.9834619 C139.055679,59.535693 140.032484,60.1010318 141.00302,60.6737793 C141.958169,61.2750217 142.915028,61.8699952 143.847951,62.5048615 C144.776885,63.1454269 145.70012,63.7899815 146.5903,64.4841172 C147.48846,65.1640055 148.358124,65.8894857 149.186756,66.6548587 C145.072092,64.8203571 141.025816,63.0365764 136.932239,61.3730441 Z M104.453753,79.2017328 C104.453753,79.2017328 100.405767,65.2266943 114.347752,65.2608256 C112.811307,66.1106061 107.199521,69.7722007 104.453753,79.2017328 Z M137.444008,17.8772899 C137.444008,17.8772899 140.442811,26.7585801 139.581695,33.0901468 C139.581695,33.0901468 141.913717,35.5258908 145.236793,35.8672597 C142.357668,37.770149 138.285177,35.524751 138.285177,35.524751 C119.38622,32.9020804 125.974811,16.675375 125.974811,16.675375 C120.059269,12.68096 104.642389,9.12764606 104.642389,9.12764606 C104.642389,9.12764606 124.587109,8.07846386 137.444008,17.8772899 Z M179.855246,52.5533029 C166.055736,36.9608939 150.972816,28.4226822 150.972816,28.4226822 C150.206303,23.0508238 149.376532,19.4137348 148.678407,17.0121847 C147.9307,14.4385254 146.075113,12.3299029 143.62854,11.233989 C79.4477688,-17.5053966 69.3411979,19.4302619 25.7548299,7.29770362 C42.3092266,44.2037274 60.916396,17.4299199 86.5316008,28.7651909 C60.3168633,23.5603126 59.7452556,36.7528811 39.770901,30.5979829 C39.770901,30.5979829 24.7409814,46.9916684 4.04936876e-15,33.2166641 C30.8217929,72.7607457 53.7983701,51.9298345 68.2492734,60.1922155 C50.2182709,58.6432328 48.7490739,64.3952132 31.6641021,61.753736 C45.2054482,76.8583123 58.0218841,61.6631222 77.9871203,73.4537417 C62.2636348,68.1149373 58.9627857,73.5403662 48.0902718,73.0377162 C65.8009916,85.2568989 77.1505101,77.3193597 85.1689748,84.3803958 C76.6712259,82.0928253 74.3642788,85.882077 65.4881176,84.4636009 C65.4881176,84.4636009 66.2603294,88.088722 70.1413347,94.289782 C70.1413347,94.289782 87.5517182,101.584476 97.3459851,110.828222 C96.1389411,101.937813 99.2158204,90.1175589 88.4327805,77.5296521 C106.205619,88.7418251 97.0467886,111.73208 102.912179,123.308418 C102.912179,123.308418 105.326267,118.624996 108.584373,116.753451 C108.584373,116.753451 104.551205,123.645797 105.627173,131.539454 C105.627173,131.539454 109.432952,137.049228 117.965464,139.258153 C117.965464,139.258153 113.495184,137.219058 112.545164,130.978105 C112.545164,130.978105 118.737676,140.722791 129.288767,138.076754 C129.288767,138.076754 124.653217,137.281177 120.850288,133.276503 C120.850288,133.276503 129.760073,136.777957 135.129652,131.783371 C135.129652,131.783371 136.64957,129.155001 136.949906,123.927897 C136.949906,123.927897 139.373682,121.598724 141.852738,117.413963 C141.852738,117.413963 141.543854,115.963572 140.973956,114.681872 C132.429475,118.764621 122.045364,115.843894 122.045364,115.843894 C102.652875,95.2078877 112.260215,79.3430675 115.215706,73.5261187 C133.791531,63.9096601 149.186756,91.211763 167.927851,80.9319431 C167.144811,83.1425774 164.603066,84.3593096 164.603066,84.3593096 C164.018351,85.703129 162.931555,87.7684394 162.931555,87.7684394 C172.671682,84.3935035 175.174674,71.9475013 175.174674,71.9475013 C174.201288,72.6040238 173.224483,73.1539753 172.51154,73.5312478 C171.712543,75.6655158 170.190346,76.9215709 170.190346,76.9215709 C172.500712,62.3242039 159.360574,50.401938 159.360574,50.401938 L160.999601,50.7393176 C163.039266,52.5498835 164.732433,54.3832453 166.141221,56.1516388 C167.401835,55.5766117 171.093634,54.2276632 176.045478,55.3879755 C176.045478,55.3879755 177.122585,59.1208073 176.733345,62.5151197 L175.383256,63.2035565 C175.383256,63.2035565 175.265857,61.5764977 174.646378,60.0691175 C174.646378,60.0691175 173.558443,60.161441 172.195247,60.6732094 C173.125321,62.385183 174.115803,65.1229729 172.117171,66.708999 C172.533766,67.9040751 172.6808,68.6061894 172.6808,68.6061894 C175.236223,67.1854337 177.14937,65.8524423 178.385479,64.9115407 C179.456317,64.0960167 180.129937,62.859908 180.204023,61.5160885 C180.50379,56.0633046 179.855246,52.5533029 179.855246,52.5533029 L179.855246,52.5533029 Z" id="Fill-9" fill="#47272B"></path>
            </g>
            <path d="M146.802302,36.5566764 C145.550806,36.0118539 145.411751,33.5578731 146.491708,31.0759674 C146.777227,30.418875 147.121445,29.8284607 147.493589,29.3212515 C146.246082,27.4394483 144.543797,25.5359891 142.216333,23.8701772 C142.216333,23.8701772 136.615946,36.7390437 150.903858,39.0516897 C150.903858,39.0516897 150.852567,37.2616402 150.067818,34.7449707 C149.024905,36.1925115 147.736365,36.9630136 146.802302,36.5566764" id="Fill-11" fill="#FFFFFE"></path>
        </g>
    </g>
</svg>