<?xml version="1.0" encoding="UTF-8"?>
<svg width="200px" height="200px" viewBox="0 0 200 200" version="1.1" xmlns="http://www.w3.org/2000/svg" xmlns:xlink="http://www.w3.org/1999/xlink">
    <!-- Generator: Sketch 54.1 (76490) - https://sketchapp.com -->
    <title>concord</title>
    <desc>Created with Sketch.</desc>
    <g id="concord" stroke="none" stroke-width="1" fill="none" fill-rule="evenodd">
        <g id="concord_BGL" fill="#7B132B">
            <g id="concord" transform="translate(23.000000, -1.000000)">
                <g fill-rule="nonzero" id="g10">
                    <g transform="translate(76.317243, 100.533885) scale(-1, 1) rotate(-180.000000) translate(-76.317243, -100.533885) translate(0.000000, 0.655614)">
                        <g id="g12">
                            <path d="M45.2057249,160.398357 C46.0196048,160.398357 46.8382993,160.499772 47.6510523,160.714894 C52.76021,162.068116 55.9166707,167.343738 55.9122658,173.379459 C55.9122658,174.888389 55.7149678,176.44649 55.3056205,178.009713 C53.9231004,183.257676 50.4624976,187.269197 46.3925861,188.869298 C45.5338378,189.206323 44.54786,189.732861 44.0528736,190.802327 C43.6458824,191.684329 43.5190626,192.518184 43.5190626,193.245503 C43.5190626,194.1777 43.7207655,194.918336 43.8200291,195.382386 C43.8608,195.578045 43.8767805,195.753216 43.8767805,195.908923 C43.8767805,196.223412 43.8015901,196.513315 43.6074677,196.738681 C43.4166234,196.963023 43.1292813,197.061365 42.879227,197.056243 C42.3758406,197.047023 41.9324835,196.772486 41.5823461,196.373998 C40.6051781,195.209263 39.7392591,192.581696 39.4315316,191.217206 C39.0233112,189.421446 38.4155391,188.817054 37.3231269,188.050808 C33.9273681,185.728511 31.8722318,181.410696 31.8722318,176.563271 C31.8722318,175.080975 32.0626664,173.544386 32.4732429,171.998578 C34.2731006,165.167928 39.6039368,160.410649 45.2057249,160.398357 L45.2057249,160.398357 Z M113.841765,56.6037307 C115.456208,59.0274434 116.282893,61.3846731 116.288015,63.1926234 C116.28699,64.0257619 116.10977,64.7611733 115.689769,65.3154721 C115.273866,65.8736635 114.596743,66.1953228 113.816156,66.1902008 C112.136152,66.1705325 109.895805,64.9332712 106.885116,62.0330111 C95.6286809,51.1407479 81.3684199,46.5454254 70.0720339,46.5474742 C69.1357391,46.5474742 68.2140931,46.5802548 67.3210277,46.6386452 C48.4785566,47.956731 28.3788485,61.4227805 24.4926106,83.993016 C24.0616486,86.4679484 23.869575,88.8620561 23.869575,91.1648905 C23.8655799,106.187504 32.0559054,117.457871 36.5019738,122.783688 C42.5947532,130.090679 49.9239744,134.921715 50.8110983,135.505618 C52.6386146,136.706206 54.2512133,137.345427 55.7798118,137.345427 C57.0570244,137.344403 58.3099589,136.910061 59.6729132,135.903083 C63.2046088,133.280638 87.8684978,114.122449 90.1152979,112.412738 C93.3225685,110.034098 96.3497508,107.544824 96.2528433,105.986723 C96.2477213,105.479649 96.0135452,104.998185 95.2485289,104.448086 C94.5161906,103.933841 93.724745,103.37862 91.5911402,102.066271 C89.9572342,101.069127 89.1681446,99.4800895 89.1681446,97.9967691 C89.1701934,96.0920137 90.5355037,94.3229902 92.8704016,94.3188926 C93.9347454,94.3188926 95.1652457,94.6754837 96.5498147,95.4713342 C104.927502,100.333204 110.818783,105.30038 112.571519,107.379897 C113.517033,108.529266 116.094404,111.637273 116.114892,114.914304 C116.129234,116.706991 115.261573,118.538605 113.016105,119.876462 C108.29468,122.718127 104.900867,125.70628 104.889599,125.709353 L104.586379,125.361059 L104.882428,125.716523 C104.875258,125.721645 74.8490835,150.680969 72.5721662,152.443949 C70.0788973,154.373904 67.1729006,156.359177 63.3166774,156.361226 C60.5539932,156.361226 57.3552251,155.337858 53.5404898,152.657022 C44.6523481,146.401057 9.56887103,121.343392 9.54685684,82.3795978 C9.54685684,81.3932102 9.56766225,80.395247 9.61688431,79.3799716 C11.0886393,47.5074325 38.9897111,31.0359178 65.8260293,31.0350983 L65.8676196,31.0350983 C67.430228,31.0350983 68.9907875,31.0923618 70.543869,31.2032011 C98.1876134,33.1863226 110.712246,51.9234862 113.841765,56.6037307 Z M78.7625702,160.71387 C79.5700989,160.500796 80.391969,160.398357 81.2087172,160.398357 C86.8072272,160.410649 92.1413415,165.168953 93.9420186,172.000626 C94.346961,173.54541 94.5402639,175.078926 94.5402639,176.563271 C94.5382151,181.410696 92.4842056,185.726462 89.0921347,188.050808 C87.9984932,188.818078 87.3943065,189.421446 86.982091,191.21823 C86.6740561,192.581696 85.8088542,195.209263 84.8297398,196.376046 C84.4756073,196.772486 84.0333771,197.047023 83.5304004,197.058292 C83.2782974,197.062389 82.9902382,196.961999 82.7988817,196.736633 C82.6068081,196.513315 82.5299786,196.220339 82.5299786,195.907899 C82.5299786,195.746045 82.5508762,195.572923 82.590008,195.386483 C82.6869156,194.916287 82.8913843,194.175651 82.8913843,193.244478 C82.8913843,192.513062 82.7681499,191.68228 82.3599295,190.799254 C81.8685284,189.732861 80.879375,189.206323 80.0199096,188.870322 C75.951125,187.269197 72.4906246,183.257676 71.1084118,178.008688 C70.6935328,176.445465 70.4994104,174.885316 70.4994104,173.37741 C70.4950055,167.341689 73.6538223,162.069141 78.7625702,160.71387 L78.7625702,160.71387 Z M18.9440909,136.444986 C23.8275749,137.930355 26.7606156,143.005196 26.7570302,148.778672 C26.7570302,150.478139 26.5033906,152.243168 25.9748041,154.005123 C24.404103,159.199817 20.8019292,163.085338 16.6787493,164.537927 C15.8080156,164.84422 14.8032915,165.334904 14.2726561,166.384907 C13.7845331,167.345787 13.6443962,168.255447 13.6443962,169.036034 C13.6443962,169.862719 13.797338,170.526526 13.8733479,170.952673 C13.9004943,171.122722 13.913709,171.271259 13.913709,171.407503 C13.913709,171.73326 13.8416942,172.028285 13.6512596,172.258773 C13.4640007,172.492335 13.1670293,172.601945 12.9133897,172.597847 C12.3915641,172.582481 11.9486168,172.286432 11.6032941,171.865407 C10.6660774,170.665843 9.89499664,168.011642 9.63808923,166.634858 C9.29476408,164.825781 8.70733643,164.198853 7.6417326,163.395729 C4.47371678,161.053968 2.59579016,156.929764 2.59579016,152.328192 C2.59579016,150.658433 2.84149071,148.922087 3.37169579,147.179596 C5.37445488,140.558947 10.6864628,136.050595 16.1610213,136.037278 C17.0909648,136.037278 18.0249035,136.171474 18.9440909,136.444986 L18.9440909,136.444986 Z M107.77224,136.446011 C108.687022,136.170449 109.622293,136.037278 110.55449,136.037278 C116.028843,136.050595 121.342367,140.559971 123.347104,147.179596 C123.868519,148.921063 124.115398,150.657408 124.115398,152.327168 C124.115398,156.929764 122.24076,161.052943 119.071289,163.395729 C118.010018,164.199877 117.423042,164.824757 117.07987,166.634858 C116.820699,168.011642 116.050356,170.665843 115.110988,171.86848 C114.765767,172.286432 114.319132,172.58453 113.799765,172.597847 C113.541618,172.60092 113.247618,172.493359 113.062203,172.258773 C112.87269,172.026236 112.799958,171.73326 112.799958,171.410576 C112.799958,171.267161 112.816348,171.1176 112.842983,170.958819 C112.913666,170.525501 113.068349,169.864768 113.068349,169.038083 C113.068349,168.256472 112.93108,167.345787 112.444494,166.384907 C111.915907,165.335929 110.907905,164.84422 110.038196,164.535878 C105.915016,163.084314 102.311203,159.201866 100.742653,154.005123 C100.207203,152.245217 99.9551003,150.480188 99.9551003,148.780721 C99.9511052,143.004172 102.887936,137.927282 107.77224,136.446011 L107.77224,136.446011 Z M147.424425,106.663847 L146.241252,106.131163 L145.830471,105.926284 C140.930801,103.509742 138.430259,99.0211616 138.442552,92.7915234 C138.442552,92.7442989 138.442552,92.7003525 138.444601,92.6575329 L138.43743,75.3512407 C138.427186,65.8488732 138.421039,54.3964722 138.421039,45.1093296 C138.421039,37.6403813 138.427186,31.5716751 138.444601,29.0354841 C138.509137,19.9756542 140.43602,12.3387055 141.260656,9.46322543 C141.463485,8.76176241 141.546461,8.13871663 141.546461,7.5897037 C141.544412,6.22718994 141.040411,5.3092318 140.534361,4.71340414 C139.34709,3.31806884 137.580013,3.07838148 136.54845,3.08037904 C136.338449,3.08037904 136.160205,3.08837955 136.023961,3.09998592 C135.782204,3.09998592 125.867109,3.09998592 125.867109,3.09998592 C123.74969,3.09678981 119.554802,3.13040013 117.907579,6.63614793 C116.91187,8.72253842 116.755138,11.1362735 116.755138,13.0714535 C116.755138,13.5259764 116.763333,13.953353 116.770504,14.3454904 L116.780747,15.3875025 C116.780747,15.3927269 116.77665,17.6431124 116.775626,18.7791637 L116.771528,19.7359463 L116.185575,18.9820959 C109.620244,10.5708089 100.067169,4.57495749 88.9260807,2.039586 C84.8581155,1.11642395 80.7145502,0.659853223 76.5961849,0.659853223 C69.2428905,0.659853223 61.9689866,2.11520665 55.3480304,4.97670375 C46.4746399,8.81097423 39.5591709,14.8793014 35.3307859,22.5214745 C32.6993264,27.2804948 31.1759522,32.6176823 30.7597416,38.3326657 C31.428465,37.9077477 32.1031299,37.491537 32.7913168,37.0934581 C33.9113876,26.6702642 38.9909404,18.4134556 46.2465077,12.6268671 C54.4896919,6.04271734 65.4998627,2.60619799 76.65939,2.60420042 C91.7239015,2.60420042 107.093067,8.88060218 116.251137,22.2497031 C117.223285,23.6718673 117.638164,24.4082006 117.935238,24.8939675 C118.076604,25.1232266 118.235385,25.3301539 118.372653,25.4582029 C118.434117,25.5178226 118.48841,25.5606422 118.529385,25.5854325 C118.589825,25.4582029 118.70763,25.0780509 118.696361,24.3561615 C118.705581,22.1749225 118.705581,20.309811 118.705581,18.8548663 C118.705581,17.5867708 118.702508,16.6319345 118.702508,16.0513089 C118.704557,15.7139764 118.704557,15.5135028 118.709679,15.4110635 L118.709679,15.1946094 C118.709679,14.625252 118.678947,13.8929138 118.678947,13.0834388 C118.68202,11.3511911 118.802898,9.25234399 119.651095,7.46486099 C120.682659,5.33604016 123.022371,5.0287224 125.868134,5.0287224 L136.105912,5.0287224 C136.113083,5.02672484 136.281084,5.01152285 136.521816,5.01152285 C136.979719,5.01551798 137.698843,5.06274248 138.364698,5.41407838 C139.038748,5.75180011 139.630847,6.49689201 139.615481,7.60091056 C139.615481,7.99546558 139.548896,8.43482754 139.410603,8.92862571 C138.323722,12.6900721 136.573035,20.2981329 136.513621,29.0239084 C136.49723,31.5441189 136.491084,37.6319812 136.491084,45.0957051 C136.491084,60.7905254 136.513621,82.5720812 136.513621,90.0965515 L136.513621,92.8160064 C136.519767,95.8719741 136.979719,103.690035 144.975103,107.654434 C145.695251,108.012972 145.992325,108.187119 146.746278,108.4719 C148.830916,109.258633 149.944431,110.370099 149.970041,111.633175 C149.916772,113.249666 148.165061,114.302742 145.631738,114.431815 C145.361299,114.445133 145.084713,114.454352 144.797883,114.454352 C138.480454,114.437962 129.20458,111.216247 124.430911,107.598093 C119.797583,104.111061 118.714801,101.458909 118.743484,97.7146514 C118.743484,94.0616677 118.709679,93.0700557 118.709679,93.0648313 C118.709679,93.0556118 118.704557,80.0747146 118.701483,64.8296027 C118.253824,66.5703529 117.223285,67.5106428 116.772552,67.8496143 L116.778699,93.0496703 L116.813528,97.7146514 C116.830943,102.557057 118.444361,105.44482 123.262079,109.132633 C128.460871,113.102154 138.362649,116.38943 144.840907,116.379186 C145.145152,116.379186 145.440177,116.372015 145.729056,116.357673 C149.159746,116.180453 151.503556,114.514791 151.852874,112.221176 C151.869265,112.090054 151.889752,111.898493 151.889752,111.668004 C151.873362,110.467416 151.406239,108.177899 147.424425,106.663847 L147.424425,106.663847 Z M116.10977,48.538586 C116.10977,48.517381 116.114892,48.3473319 116.114892,48.0123555 C116.129234,45.4882524 115.676452,34.5804184 109.081413,29.30367 C100.565331,22.459806 91.8051358,19.8580539 83.8545182,19.8568246 C76.6581607,19.8568246 70.1220242,21.9967806 65.060091,25.0772314 C63.2754968,26.1640094 61.649581,27.3808853 60.1610362,28.6869857 C62.0549331,28.5293317 63.9628642,28.444512 65.8740733,28.444512 C67.4923062,28.444512 69.1116659,28.5016731 70.7334841,28.6185563 C83.6872349,29.5505486 103.602962,35.4171422 116.10977,55.3631914 L116.107722,48.6166447 L116.10977,48.538586 Z M119.159387,48.6718594 L118.69841,48.6526009 C118.69841,48.6526009 118.705581,48.4097174 118.705581,47.9579603 C118.721971,44.9800512 118.164702,33.2487081 110.702002,27.2856168 C101.871022,20.1877034 92.5202643,17.2393993 83.7965375,17.237453 C73.9771206,17.237453 64.9412615,20.9848857 58.3699883,26.8042547 C57.517284,27.560154 56.7205115,28.3580533 55.9562122,29.1807429 C56.981834,29.0323085 58.0126802,28.902313 59.0494679,28.7986445 C60.7412521,27.2312215 62.626749,25.7850866 64.7180463,24.5138155 C69.8771944,21.3717987 76.525297,19.1929158 83.8545182,19.1929158 C91.9512142,19.1929158 100.870702,21.8556193 109.496292,28.7874786 C116.399673,34.374413 116.763333,45.4278132 116.77665,48.0123555 C116.77665,48.3473319 116.770504,48.5509811 116.770504,48.5509811 L116.76743,48.6250447 L116.770504,56.4316328 C117.822555,58.2551539 118.416702,59.8276989 118.69841,61.1806141 C118.69841,57.0435024 118.696361,52.8086638 118.696361,48.6730887 L119.159387,48.6718594 Z M24.1876489,44.081659 C14.0381727,53.1015376 8.33799171,65.2642524 7.69014539,79.2972007 C7.64133309,80.2979298 7.62011792,81.2927173 7.62011792,82.2863781 C7.62011792,108.399168 23.3977398,133.846102 52.4329166,154.236636 C56.6365113,157.188935 60.1710753,158.300401 63.2554187,158.300401 C67.3237936,158.300401 70.6639279,156.361226 73.7534957,153.969269 C76.0011153,152.231899 104.890623,128.21809 106.112724,127.200868 L106.168041,127.151697 C106.206968,127.118917 109.512683,124.237301 114.007717,121.529831 C116.820699,119.830364 117.685286,117.671969 117.943433,116.145624 C118.010018,115.739965 118.044848,115.32611 118.044848,114.900987 C118.045872,112.275469 116.728503,109.330341 114.047668,106.138334 C112.342055,104.102866 106.280724,98.8811272 97.5221681,93.8035208 C95.7815203,92.7995137 94.2121509,92.3869908 92.8575967,92.3869908 C90.6274942,92.3890396 88.9600905,93.4902615 88.0404933,95.025621 C87.4982824,95.9355889 87.2421842,96.9435912 87.2421842,97.9607105 C87.2421842,100.156803 88.4447186,102.402476 90.5806795,103.709499 C90.591538,103.71667 93.3737881,105.52882 93.9940578,105.932431 C94.0688384,105.978528 94.1200581,106.055358 94.1380874,106.140382 C94.1548874,106.22848 94.1380874,106.315553 94.0888141,106.391359 C93.2697098,107.607312 90.6867041,109.547512 89.0520809,110.797271 L88.950871,110.8741 L80.3199542,117.549042 C72.0884481,123.921788 60.8241255,132.647563 58.5224179,134.355226 C57.6741185,134.986251 56.8177263,135.416496 55.7857533,135.414447 C54.697746,135.413423 53.4781043,134.949373 51.8706275,133.891176 C49.9975258,132.66088 43.4910967,128.148431 37.9849869,121.550319 C29.9598959,111.930249 25.8098769,101.504084 25.8115159,91.0624513 C25.8115159,88.8108365 26.0039993,86.5632169 26.3929611,84.3198997 C30.1779891,62.4511681 49.9074817,49.790701 67.4550183,48.5666543 C68.2845713,48.508981 69.1525391,48.4773273 70.0492923,48.4773273 C80.1939539,48.4773273 94.0988531,52.3556774 105.544186,63.4203459 C109.270926,67.0320466 111.980444,68.1397222 113.858156,68.1365466 C114.826207,68.1365466 115.58733,67.8496143 116.201966,67.438628 L116.385332,67.7143945 L116.21938,67.4306377 C116.21938,67.428589 116.708016,67.1489298 117.220212,66.4586941 C117.732408,65.7647706 118.251775,64.6851633 118.253824,63.0821939 C118.253824,61.5023758 117.738554,59.4003223 116.154844,56.681687 C103.843694,36.1786756 83.7172496,30.2164038 70.6870791,29.2760114 C69.0812414,29.1624063 67.4738671,29.1051428 65.8740733,29.1051428 C50.217258,29.1051428 34.9057654,34.5528622 24.1876489,44.081659 Z M46.8126895,88.1458009 C49.4930125,93.3538124 51.808242,97.8395249 52.6661708,100.412901 C52.8766834,101.064313 52.9411177,101.530923 52.9411177,101.854222 C52.9302592,102.122305 52.9270835,102.240008 52.8302784,102.410876 C52.5469315,102.664619 52.3044578,102.676911 51.9526814,102.692277 C51.556139,102.690228 51.0623818,102.601106 50.5733368,102.346442 L46.1360782,99.8446708 C44.9164365,99.1412204 43.7655315,98.8518296 42.727617,98.850293 C41.0181107,98.850293 39.5931807,99.6353874 38.7159934,100.721756 C37.9545624,101.663787 37.5836299,102.774229 37.5836299,103.919499 C37.5836299,105.311649 38.136597,106.758091 39.2402775,107.968923 C41.3650725,110.301465 43.5339163,112.100298 49.1316068,115.031085 C52.8450297,116.974358 56.6041405,117.938311 60.3178707,117.938311 C64.1529914,117.938311 67.941195,116.906748 71.5858811,114.838499 C74.368541,113.255813 76.182023,110.9581 76.880249,108.173801 C77.1003909,107.293848 77.1976058,106.407749 77.1976058,105.542137 C77.1984253,102.866424 76.2656135,100.352872 75.211616,98.6870048 C72.0676529,93.7134767 69.0792951,89.4282379 66.186513,85.2819067 C58.7765697,74.6557806 52.8622395,66.156191 50.2532142,54.0654909 C49.6574275,54.365638 49.0656359,54.6781801 48.4810151,55.004654 C52.2599991,71.8006962 62.249875,81.8089087 73.5818075,99.7166217 C74.4925949,101.164396 75.2651917,103.277205 75.2695966,105.533942 C75.2808649,108.260875 74.0795598,111.214199 70.6326839,113.160544 C67.083676,115.175524 63.6055561,116.012453 60.3251439,116.012453 C56.5821161,116.012453 53.0979522,114.92967 50.0271307,113.32035 C44.6494798,110.510441 42.6042801,108.806876 40.6683831,106.672042 C39.8876936,105.81565 39.5199367,104.844526 39.5199367,103.937938 C39.5239318,102.229969 40.8408908,100.789775 42.7195243,100.78537 C43.4747064,100.78537 44.3029278,101.011864 45.1601394,101.510128 C48.1548485,103.249547 48.7075083,103.548669 49.6813983,104.057792 C50.3721461,104.421452 51.1816211,104.620184 51.9427448,104.617111 C53.5681484,104.574086 54.840239,103.852914 54.8669757,101.844592 C54.8669757,101.278411 54.7558291,100.60139 54.4949163,99.8034902 C52.4820874,93.7075352 43.1565301,78.4100768 37.404771,63.6391561 C36.9153162,64.1630305 36.4371298,64.6996073 35.9742068,65.2498085 C39.2090335,73.3649436 43.4109892,81.5456399 46.8126895,88.1458009 L46.8126895,88.1458009 Z M152.505412,112.316445 C152.077216,115.042353 149.365649,116.842211 145.759788,117.019431 C145.461689,117.033772 145.155396,117.039919 144.840907,117.039919 C138.156746,117.031724 128.237553,113.74035 122.861541,109.659171 C117.962896,105.95087 116.136405,102.727106 116.15177,97.7146514 L116.120014,93.0548947 L116.112844,68.2501518 C115.483867,68.5778549 114.735036,68.7940017 113.858156,68.7940017 C111.711029,68.7911334 108.872437,67.5607356 105.084234,63.8952543 C93.7847744,52.9623226 80.031895,49.1360117 70.0492923,49.1360117 C69.1672904,49.1360117 68.3149958,49.1668459 67.5022428,49.2252363 C61.9805622,49.6082566 56.2395592,51.1507869 50.8594497,53.7654464 C53.4208407,65.7936585 59.2766781,74.2212333 66.7275971,84.9005254 C69.6202768,89.0484956 72.613859,93.3425441 75.7698075,98.3356382 C76.8838344,100.100769 77.8561877,102.711741 77.8582365,105.542137 C77.8582365,106.45692 77.754568,107.396288 77.5213138,108.333607 C76.7794488,111.302296 74.8258298,113.756741 71.9119453,115.411135 C68.1800833,117.531627 64.2710014,118.600069 60.3178707,118.600069 C56.4904329,118.600069 52.6201755,117.60231 48.8271573,115.613964 L48.8271573,115.616013 C43.2009887,112.674982 40.9196666,110.79932 38.7524618,108.413509 C37.546342,107.089994 36.9245358,105.48682 36.9245358,103.919499 C36.9245358,102.630814 37.3451513,101.36446 38.2006215,100.305647 C39.1978676,99.071152 40.8115932,98.1916086 42.727617,98.1916086 C43.8912244,98.1896622 45.1601394,98.518902 46.4629618,99.2712158 L50.8915132,101.766636 C51.2580408,101.960656 51.6562222,102.032261 51.9526814,102.032261 C52.0807304,102.032261 52.1904429,102.019046 52.2639943,102.001837 C52.2672723,102.001119 52.2708577,101.998661 52.2732138,101.998661 C52.2780284,101.960656 52.2807943,101.912202 52.2807943,101.854222 C52.2807943,101.620558 52.2332625,101.216742 52.0359645,100.620136 C51.2183968,98.1527841 48.9039868,93.6479155 46.2244833,88.448304 C42.8695978,81.9329627 38.7280812,73.8750911 35.4956106,65.8283854 C31.3440551,70.9463529 28.293619,77.1747618 27.0416065,84.432378 C26.6621715,86.6379975 26.4721467,88.8508902 26.4721467,91.0624513 C26.4721467,101.326045 30.5445167,111.598346 38.4911392,121.126221 C43.9280001,127.643406 50.3921218,132.130245 52.2332625,133.340053 C53.7902367,134.365469 54.8962733,134.756787 55.7857533,134.754739 C56.6249357,134.754739 57.3243909,134.418738 58.1306902,133.822541 C60.4131392,132.128196 71.6875009,123.399348 79.9150118,117.026602 L88.5486944,110.350636 L88.654002,110.271757 C90.1385516,109.150048 92.4594153,107.362483 93.3377295,106.294041 C92.4073762,105.686576 90.2294153,104.267793 90.2294153,104.267793 C87.9056833,102.844912 86.584012,100.395692 86.5811437,97.9607105 C86.5811437,96.8327519 86.8672566,95.7051006 87.4723652,94.6899276 C88.4987041,92.9636213 90.4034595,91.7219552 92.8575967,91.7283064 C94.346961,91.7283064 96.0355696,92.180883 97.8523298,93.2321146 C106.677164,98.3517211 112.745665,103.567108 114.552694,105.712186 C117.289871,108.972828 118.702508,112.050103 118.705581,114.900987 C118.705581,115.359915 118.669727,115.813721 118.595971,116.25421 C118.319385,117.922945 117.335968,120.302609 114.349864,122.095296 C109.909122,124.76896 106.616725,127.636235 106.598286,127.651601 L106.534773,127.706918 C105.304478,128.732335 76.439248,152.725657 74.156799,154.490685 C71.0336311,156.911324 67.5446526,158.961134 63.2554187,158.961134 C60.0058407,158.961134 56.3304228,157.783083 52.0527645,154.775466 C22.9031631,134.312201 6.96146426,108.680876 6.95986621,82.2863781 C6.95986621,81.2834978 6.98147065,80.2743687 7.03109222,79.2644201 C7.68294391,65.0713593 13.4667665,52.7182099 23.7474674,43.585853 C25.7118425,41.8424394 27.8315155,40.2361919 30.0715547,38.7712082 C30.4400287,32.7837363 31.995876,27.1831775 34.7533358,22.2016591 C39.0561942,14.419554 46.0960244,8.25676763 55.0862981,4.37127752 C61.7933032,1.4709662 69.1576611,0 76.5961849,0 C80.7621845,0 84.9537938,0.460976635 89.072159,1.39413676 C100.026296,3.8854901 109.478878,9.68771081 116.116941,17.8388738 C116.120014,16.7099933 116.121039,15.3894489 116.121039,15.3894489 L116.10977,14.3559392 C116.104648,13.9645189 116.095429,13.5312008 116.095429,13.0714535 C116.095429,11.1002149 116.246015,8.59448935 117.310358,6.34923607 C119.208558,2.40931999 123.7753,2.44213128 125.867109,2.44093274 L136.0004,2.44093274 C136.123327,2.42973613 136.317962,2.41972782 136.54845,2.41972782 C137.665038,2.41972782 139.649286,2.66541812 141.038362,4.28483928 C141.624315,4.9703013 142.207194,6.05831884 142.204121,7.5897037 C142.204121,8.205548 142.11295,8.89180904 141.894755,9.64369266 C141.079338,12.4831448 139.164748,20.0709227 139.102261,29.0383524 C139.086895,31.5716751 139.079724,37.6412008 139.079724,45.1093296 C139.079724,54.3964722 139.086895,65.8488732 139.097139,75.3512407 L139.102261,92.6647036 L139.102261,92.7915234 C139.114553,98.8559271 141.45529,103.009839 146.124471,105.33521 L146.523984,105.534966 L147.676426,106.054333 C151.853899,107.606288 152.5679,110.264587 152.552534,111.668004 C152.552534,111.938444 152.526925,112.164835 152.505412,112.316445 L152.505412,112.316445 Z M1.5245829,146.62335 C0.93835994,148.550233 0.659052148,150.490432 0.659052148,152.372241 C0.661453324,157.507521 2.75105734,162.185922 6.49928909,164.946659 C7.1487437,165.40149 7.5581012,165.83071 7.73576159,166.977005 C7.91503028,168.011642 8.79776981,171.469991 10.0962693,173.07419 L9.84057066,173.280093 L10.0986664,173.07419 C10.8453461,174.013558 11.9106118,174.523705 12.9289605,174.520632 C13.3351321,174.520632 13.7360793,174.440729 14.1086509,174.273753 C14.9861455,173.87424 15.8392596,172.958433 15.8432547,171.408527 C15.8432547,171.166771 15.8228693,170.910673 15.7768741,170.641257 L15.7260642,170.357501 C15.6580446,169.99589 15.5731224,169.544133 15.5731224,169.036034 C15.5731224,168.494131 15.6744349,167.883593 15.9909721,167.257689 C16.1341822,166.969835 16.4627049,166.653297 17.3166385,166.357248 C22.1648834,164.656756 26.1047995,160.253917 27.8218863,154.562392 C28.4008729,152.640632 28.6878053,150.680969 28.6878053,148.771502 C28.6878053,145.893983 28.0367014,143.126074 26.7654302,140.751532 C25.128451,137.696794 22.5450355,135.518935 19.5002336,134.599031 C18.4210361,134.276347 17.3026043,134.112445 16.1725969,134.112445 C14.1162314,134.112445 12.0189926,134.647177 10.0478462,135.704351 C6.09553502,137.822794 2.97953784,141.802559 1.5245829,146.62335 L1.5245829,146.62335 Z M16.1725969,133.45376 C17.3658093,133.45376 18.5482656,133.621761 19.6918974,133.966981 C22.9180168,134.941178 25.6350131,137.246061 27.3456462,140.439093 C28.6754101,142.921196 29.3480262,145.794617 29.3480262,148.771502 C29.3480262,150.748579 29.0511573,152.77073 28.4533218,154.752929 C26.6841959,160.619625 22.6155137,165.194562 17.5374975,166.981103 C16.7404177,167.266908 16.6339833,167.461543 16.5807149,167.555787 C16.3142704,168.080276 16.2345727,168.573009 16.2326263,169.036034 C16.2326263,169.471401 16.3062802,169.875012 16.3742998,170.234574 L16.4303341,170.526526 C16.4795049,170.83999 16.5027586,171.131941 16.5027586,171.408527 C16.5071635,173.219653 15.4647417,174.395656 14.37991,174.877121 C13.9165773,175.083023 13.4235372,175.18239 12.9289605,175.18239 C11.6921089,175.180341 10.4471647,174.571852 9.58287448,173.485995 L9.58287448,173.48702 C8.13391223,171.659504 7.29479134,168.207301 7.08791527,167.092762 C6.87383772,166.046857 6.74538914,165.97515 6.15676296,165.517246 L6.10554333,165.480368 C2.16562725,162.570069 0,157.683716 0,152.372241 C0,150.424871 0.290511573,148.420135 0.892342179,146.430765 C2.39371849,141.459388 5.60735052,137.336208 9.73653336,135.121471 C11.795675,134.017176 14.001397,133.45376 16.1725969,133.45376 Z M36.2362464,189.644763 C36.9025113,190.073984 37.3242537,190.489887 37.5483908,191.626963 C37.7604401,192.654428 38.7669057,196.077948 40.1234063,197.635025 C40.8764372,198.513954 41.9092298,198.983125 42.8932612,198.983125 C43.3385647,198.983125 43.7739315,198.887857 44.1748787,198.690149 C45.0100659,198.27527 45.8043799,197.37278 45.808375,195.913021 C45.808375,195.630289 45.7795896,195.326044 45.713926,195.000287 L45.6503113,194.718579 C45.5582184,194.323164 45.4462523,193.819163 45.4462523,193.245503 C45.4462523,192.744575 45.5366037,192.186281 45.8043799,191.61467 C45.9343753,191.321694 46.2521419,190.990815 47.0988023,190.664034 C51.8798471,188.79042 55.6601628,184.248263 57.1739076,178.502446 C57.6204403,176.79171 57.8433481,175.062536 57.8433481,173.369215 C57.8433481,170.244818 57.0859123,167.249494 55.6192895,164.735635 C53.8734173,161.74236 51.2175773,159.658745 48.1408144,158.848451 C47.1833147,158.597475 46.2065564,158.474547 45.2212957,158.474547 C43.0272518,158.474547 40.7980712,159.088159 38.7332032,160.290795 C34.8585409,162.550605 31.8882124,166.638956 30.6069022,171.507894 C30.1535061,173.222727 29.9355153,174.93756 29.9355153,176.602198 C29.9395105,182.008941 32.2207302,186.903489 36.2362464,189.644763 Z M38.4010951,159.720209 C40.5595926,158.462255 42.9044271,157.81279 45.2212957,157.81279 C46.2624882,157.81279 47.2985588,157.944937 48.3105562,158.20923 C51.5677147,159.066646 54.3675843,161.273188 56.1906957,164.402707 C57.7224698,167.030274 58.502852,170.14033 58.502852,173.369215 C58.502852,175.119902 58.2711344,176.905418 57.8101578,178.669422 C56.2495982,184.59041 52.3500432,189.309787 47.3389199,191.278669 C46.5518791,191.595206 46.4538448,191.789841 46.403752,191.889207 C46.1801271,192.371696 46.1084196,192.821404 46.1072928,193.245503 C46.1072928,193.732089 46.2040979,194.180773 46.2949615,194.57414 L46.3581665,194.865067 C46.4345862,195.235898 46.4694155,195.584191 46.4694155,195.913021 C46.4717716,197.630927 45.5002378,198.78132 44.4662159,199.282248 C43.9712295,199.526053 43.4354722,199.642834 42.8932612,199.642834 C41.6999464,199.642834 40.4939291,199.079418 39.6219661,198.066294 C38.1090408,196.293071 37.1482631,192.873648 36.9001552,191.76628 C36.6428278,190.699887 36.5128324,190.658912 35.8633675,190.18974 C31.639285,187.303002 29.2768309,182.189234 29.2768309,176.602198 C29.2768309,174.880194 29.5001485,173.107995 29.9666569,171.340918 C31.2928354,166.318321 34.3535154,162.082458 38.4010951,159.720209 L38.4010951,159.720209 Z M69.2428905,178.500397 C70.7535622,184.248263 74.5357218,188.791444 79.3148203,190.665058 C80.1610709,190.990815 80.4771985,191.322718 80.6092426,191.610572 C80.872614,192.187305 80.9654239,192.741502 80.9633751,193.243454 C80.9633751,193.816089 80.8493603,194.320091 80.7621845,194.718579 L80.6973404,195.008482 C80.6301403,195.326044 80.6033012,195.626191 80.6033012,195.907899 C80.6052475,197.369707 81.3976151,198.273221 82.2387438,198.6881 L82.0946118,198.987223 L82.2398707,198.692198 C82.6368228,198.886832 83.0721896,198.983125 83.5211808,198.983125 C84.5008074,198.983125 85.5347268,198.514978 86.2878602,197.638098 C87.6464095,196.079997 88.6500069,192.655453 88.8660513,191.629011 C89.0869103,190.489887 89.5102917,190.073984 90.1805517,189.643739 C94.1888972,186.904513 96.471756,182.01099 96.4749316,176.605271 C96.4749316,174.936535 96.2576579,173.221702 95.8086667,171.508918 C94.5250004,166.638956 91.5559011,162.550605 87.6816486,160.29182 C85.6115562,159.089183 83.3823756,158.473523 81.1902781,158.473523 C80.2038905,158.473523 79.227542,158.597475 78.2732179,158.848451 C75.194816,159.657721 72.540615,161.74236 70.7922842,164.738708 C69.3265834,167.250518 68.5690451,170.245842 68.5690451,173.367166 C68.5690451,175.060487 68.7927725,176.790686 69.2428905,178.500397 Z M78.1042956,158.210254 C79.1147564,157.944937 80.1503148,157.81279 81.1902781,157.81279 C83.5083759,157.81279 85.8516738,158.464304 88.0137567,159.720209 C92.0592876,162.082458 95.1224261,166.317297 96.4457364,171.340918 C96.9098886,173.107995 97.1340257,174.878145 97.1340257,176.605271 C97.1359721,182.191283 94.7731083,187.305051 90.5506648,190.188716 C89.8992535,190.659936 89.770385,190.697839 89.5123405,191.770378 C89.2650521,192.872624 88.3046841,196.293071 86.788071,198.068343 C85.9177471,199.081467 84.7109103,199.64181 83.5211808,199.643859 C82.9810187,199.643859 82.4440321,199.527078 81.9505822,199.283272 L81.9486359,199.284297 C80.9106189,198.78132 79.9398021,197.62683 79.9422607,195.907899 C79.9422607,195.584191 79.9762705,195.235898 80.0522804,194.867116 L80.117944,194.575164 C80.2038905,194.178724 80.3043834,193.729016 80.3043834,193.243454 C80.3012078,192.819356 80.229193,192.369647 80.0090511,191.889207 C79.9582412,191.789841 79.8578507,191.594182 79.0734734,191.277645 C74.0652183,189.310811 70.1628975,184.592459 68.6042842,178.668397 C68.1409515,176.904393 67.9100534,175.117853 67.9100534,173.367166 C67.9100534,170.138281 68.6903332,167.031298 70.2212878,164.404756 C72.0479846,161.274212 74.8454981,159.067671 78.1042956,158.210254 Z M98.8958784,154.563417 C100.610507,160.253917 104.552574,164.656756 109.397951,166.358272 C110.254343,166.652273 110.582148,166.972908 110.723514,167.259738 C111.042101,167.886666 111.139418,168.49618 111.139418,169.038083 C111.139418,169.542084 111.057466,169.993841 110.991905,170.357501 L110.938637,170.643306 C110.89049,170.912721 110.871027,171.170868 110.871027,171.411601 C110.8741,172.957409 111.724346,173.873216 112.608397,174.273753 L112.47625,174.574925 L112.61147,174.273753 C112.980251,174.439705 113.37874,174.521656 113.787473,174.521656 C114.802646,174.521656 115.866989,174.011509 116.618893,173.075214 C117.916799,171.471015 118.799825,168.012666 118.977045,166.97803 C119.085631,166.298858 119.271046,165.871686 119.539437,165.542856 L119.411387,165.542856 L120.009633,165.101343 C120.047535,165.070611 120.087487,165.041928 120.129487,165.012221 L120.215536,164.947684 C123.960715,162.185922 126.050475,157.508545 126.052524,152.37429 C126.052524,150.490432 125.772865,148.551257 125.19101,146.62335 C123.737397,141.80051 120.620171,137.822794 116.669089,135.703326 C114.69406,134.649226 112.597128,134.112445 110.542197,134.112445 C109.412292,134.112445 108.292631,134.274299 107.213946,134.600055 C101.575689,136.297474 98.0364131,142.116023 98.0343643,148.823746 C98.0343643,150.695311 98.3124869,152.632437 98.8958784,154.563417 L98.8958784,154.563417 Z M107.022384,133.966981 C108.166631,133.622785 109.34878,133.450687 110.542197,133.450687 C112.712885,133.450687 114.917377,134.017176 116.978455,135.122496 C121.108806,137.338257 124.322325,141.459388 125.825109,146.431789 C126.42233,148.421159 126.711209,150.42692 126.711209,152.37429 C126.713257,157.337472 124.821204,161.931872 121.358758,164.884171 L121.421246,164.884171 L120.608902,165.478319 C119.975828,165.972076 119.848803,166.016125 119.627534,167.094811 C119.420607,168.210374 118.579581,171.661552 117.135187,173.488044 C116.267527,174.570827 115.023914,175.180341 113.787473,175.18239 C113.29474,175.18239 112.799958,175.084048 112.342055,174.875072 L112.34103,174.877121 C111.249028,174.39668 110.207221,173.222727 110.210294,171.411601 C110.210294,171.13399 110.233855,170.838965 110.287123,170.528574 L110.341416,170.236622 C110.406977,169.875012 110.481758,169.471401 110.481758,169.038083 C110.479709,168.573009 110.398782,168.082325 110.136538,167.557836 C110.080196,167.45847 109.976732,167.266908 109.177706,166.980079 C104.102866,165.194562 100.032339,160.616552 98.2624965,154.753954 C97.6622025,152.760486 97.3720946,150.760872 97.3720946,148.823746 C97.3701482,141.896803 101.043517,135.778107 107.022384,133.966981 L107.022384,133.966981 Z" id="path14"></path>
                        </g>
                    </g>
                </g>
            </g>
        </g>
    </g>
</svg>