<?xml version="1.0" encoding="UTF-8"?>
<svg width="200px" height="200px" viewBox="0 0 200 200" version="1.1" xmlns="http://www.w3.org/2000/svg" xmlns:xlink="http://www.w3.org/1999/xlink">
    <!-- Generator: Sketch 54.1 (76490) - https://sketchapp.com -->
    <title>connecticut-col</title>
    <desc>Created with Sketch.</desc>
    <g id="connecticut-col" stroke="none" stroke-width="1" fill="none" fill-rule="evenodd">
        <g id="connecticut-col_BGL">
            <g id="connecticut-col" transform="translate(0.000000, 13.000000)">
                <g id="g10" transform="translate(99.953377, 86.963171) scale(-1, 1) rotate(-180.000000) translate(-99.953377, -86.963171) translate(0.000000, 0.249887)" fill-rule="nonzero">
                    <g id="g12">
                        <path d="M189.260601,115.721023 C188.888014,110.010254 184.036918,105.44037 178.28848,105.185265 C177.97594,105.226291 173.44186,105.808109 168.943586,108.904426 C166.909087,108.515429 164.82573,108.403913 162.759157,108.55347 C167.506569,98.6040069 171.49911,88.1760351 173.656686,77.336688 C176.63552,62.3712805 175.173142,46.8620967 168.540042,33.0335097 C163.923166,23.4032628 155.211931,13.2408388 146.668528,6.56074576 C143.104519,10.5916268 139.080649,14.4645964 134.653983,18.1646243 L123.165312,18.1657804 C117.739484,18.2019203 112.615755,19.8142652 108.782468,23.2392349 C104.953657,26.5958781 102.737154,31.6427778 102.662562,37.3698825 C101.001023,37.033062 99.2768274,36.8666844 97.5216759,36.8666844 L85.3303475,36.8675795 C79.9063849,36.9051739 74.7796718,38.5163627 70.94825,41.9405118 C68.5512337,44.0425164 66.7860123,46.8087634 65.7805112,49.9867587 L60.6381337,49.9867587 C58.4358027,49.9867587 56.6504415,51.7721199 56.6504415,53.9740779 L56.6504415,55.1541245 C41.7868521,58.88522 26.0568012,61.4675975 9.8997853,62.7170147 C12.0161862,65.2248002 20.7991044,74.8285296 33.5302929,80.0734712 C39.878041,95.6494149 48.9618636,111.161582 61.5231686,122.545824 C67.4976207,127.960463 74.6827021,132.607176 82.7889956,133.836826 C90.5652192,135.016873 98.6659183,132.839903 105.372492,128.901442 C105.911419,138.125498 109.043913,145.316546 113.411279,150.223586 C110.319065,153.513842 106.19748,160.60904 112.019391,163.538644 C115.258925,165.169227 124.589274,165.573143 128.21333,165.434774 C130.589461,171.636359 139.765777,166.927362 143.326803,164.851091 C154.702094,166.568947 165.099856,157.580602 174.688667,152.477013 L175.130252,151.111232 C181.159156,148.458365 188.15552,144.279717 192.37482,140.515428 C192.687361,138.237759 192.363259,134.748342 191.707221,132.600463 C193.006988,130.471978 194.470485,127.873936 194.834121,125.268435 C194.35897,121.649974 192.437478,117.530626 189.260601,115.721023 L189.260601,115.721023 Z M196.814913,133.352351 C197.234494,135.424892 197.511603,140.063027 196.978643,142.8427 C192.469179,147.246616 184.717944,151.919064 179.024704,154.587595 L178.64503,155.757199 C168.694448,161.1558 156.726523,170.881861 144.325591,169.774168 C138.864332,172.729506 130.427596,175.949646 125.532864,170.254914 C119.917573,170.182187 111.989927,170.138178 107.525592,166.257152 C102.558879,161.93939 104.174543,155.067595 107.359624,150.221721 C104.406897,145.952444 102.476827,141.075987 101.505638,136.097339 C67.0511871,149.685777 41.2117472,110.577153 29.8843069,83.7068511 C11.3613051,76.7056391 0,58.8214438 0,58.8214438 C17.9972396,57.7987864 35.6850341,55.4427958 52.4516537,51.620698 C53.4735651,48.0607913 56.74853,45.457155 60.6381337,45.4552902 L62.7173877,45.4552902 C63.9932851,42.823309 65.7573876,40.4647076 67.9589727,38.5350107 C72.782469,34.246787 79.0336577,32.3758687 85.2990188,32.3368197 L98.6659183,32.3368197 C99.6814893,27.4431695 102.118412,23.0527547 105.793191,19.8326149 C110.617433,15.5445777 116.86713,13.6720556 123.135102,13.6347596 L133.058085,13.6336034 C137.839437,9.4105359 142.240742,4.87164557 146.205684,0 C163.6427,12.6828528 174.922886,30.5163256 178.398131,47.5386468 C182.226942,66.2869913 178.016592,85.0894151 170.736406,102.456314 C172.814541,101.540324 175.824704,100.742935 178.070672,100.389741 C185.649972,100.633284 192.167827,106.047923 193.692489,113.047643 C197.248666,116.07086 198.973608,121.124472 199.662839,125.273657 C199.319342,128.291652 197.889412,131.492025 196.814913,133.352351 L196.814913,133.352351 Z" id="path14" fill="#FFFFFF"></path>
                        <path d="M70.9254994,98.5294148 C74.8255459,102.015102 80.037294,103.624799 85.5395783,103.621816 L97.501536,103.622189 C102.436548,103.624426 107.128389,102.326524 110.843074,99.5584124 C107.231699,106.263494 102.030767,112.952538 94.5372471,118.402608 C87.2850328,123.677759 77.8998582,122.427223 73.5086229,120.061162 L73.5101147,120.246524 C61.9770614,111.860883 51.592353,94.622655 45.6096958,80.8798115 C51.3260593,82.0330049 57.1282037,81.7070376 64.3625159,80.9644735 C55.3402317,78.9944969 43.9970152,74.0389725 38.5943114,70.637201 C47.5688566,69.8110938 56.3565487,68.2715134 64.8186464,66.224707 L64.8186464,84.0801844 C64.8100683,89.9408835 67.042982,95.1227948 70.9254994,98.5294148" id="path16" fill="#FFFFFF"></path>
                        <path d="M149.466849,139.199251 C147.091465,139.016127 144.57622,139.768388 144.57622,139.768388 C144.57622,139.768388 146.482421,140.369227 148.181255,141.401955 C148.181255,141.401955 147.257432,141.627223 146.498831,141.968854 C143.225731,143.442421 142.257526,146.253796 143.922794,148.120462 C143.082514,148.17305 142.275055,148.148435 141.526896,148.002234 C141.526896,148.002234 142.984052,150.754682 146.970999,151.090346 C150.787502,151.41333 157.834215,146.687549 158.86918,144.878318 C155.458831,140.082421 152.09995,139.402514 149.466849,139.199251 L149.466849,139.199251 Z M153.887549,123.051932 C152.939856,123.712817 150.044938,124.671326 149.128201,128.054449 C150.372024,129.542934 153.062933,130.134449 154.83263,129.589927 C154.33249,129.257619 153.369507,128.587409 152.863772,128.021629 C152.863772,128.021629 152.748528,125.135661 153.887549,123.051932 Z M183.944797,130.225824 C183.08214,130.993377 180.566149,132.812677 172.98946,131.789274 C172.55869,132.218551 172.032816,134.208295 172.275986,135.12615 C176.997292,134.936687 180.891371,133.4303 183.357385,131.83664 C184.551977,134.149367 184.356918,136.965218 184.356918,136.965218 C179.354028,141.690999 168.502373,145.850253 162.539856,147.081022 L164.884285,148.357665 C156.467688,152.76643 149.240835,159.641208 137.124099,155.704239 C135.738551,156.557572 129.884566,159.058644 119.798225,156.951045 C120.855941,155.216033 122.94713,153.942374 124.977526,153.055474 C124.33044,153.419483 123.229088,155.370066 123.229088,155.370066 C128.813423,156.620602 133.759997,154.141908 133.759997,154.141908 C120.473657,148.116733 115.158971,136.96671 122.855382,114.653983 L122.853144,114.656967 C122.856873,114.648016 122.859857,114.639065 122.86396,114.629741 C123.172025,113.736874 123.50023,112.826477 123.85044,111.897433 C129.586197,95.0332843 125.696594,86.586478 124.775009,84.9372473 C124.772771,84.9450795 124.770533,84.9536575 124.768295,84.9614897 L124.759717,84.92121 L135.3365,84.9219559 C140.839157,84.9241937 146.044938,83.3148697 149.92932,79.840371 C153.834215,76.4128652 156.061162,71.2096952 156.055567,65.3792058 L156.055567,57.3557095 C159.460695,66.7763153 161.266569,78.9150563 158.777805,93.9863846 C158.756173,94.0542634 158.736406,94.1213962 158.715148,94.189648 C158.990392,88.0365479 156.875334,84.8220025 156.875334,84.8220025 C156.145078,94.7763146 153.575754,104.326711 146.850905,113.111792 C139.112724,113.413144 131.676267,115.139205 125.63058,119.870953 C125.63058,119.870953 126.164659,124.252118 127.027689,126.859111 C127.920929,129.561955 130.655475,133.085684 130.655475,133.085684 C130.655475,133.085684 129.94685,127.974263 129.84354,124.453144 C133.641022,120.993936 142.677106,117.72009 151.188061,120.258831 C156.692583,116.653424 164.395707,115.924286 171.317105,116.925312 C174.444005,113.298272 178.542839,112.449787 178.542839,112.449787 C181.738737,113.617899 181.293795,117.161769 181.293795,117.161769 C180.006709,119.071326 174.460042,125.03347 165.106942,125.056967 C162.175847,125.063307 160.228621,122.826291 158.185544,122.471605 C155.808667,124.014542 155.684099,126.80727 155.684099,126.80727 C155.684099,126.80727 158.401861,129.158785 162.687921,128.51692 C167.150019,127.849694 170.578644,126.251186 171.704984,125.834962 C172.830578,125.416873 176.955893,123.169787 179.248107,123.149274 C180.962606,123.134356 182.437664,124.925312 182.543585,127.507316 C182.543585,127.507316 184.063026,125.421722 184.089879,122.241116 C185.392629,122.781535 186.356359,124.071978 186.516732,125.138645 C186.516732,125.138645 185.692117,128.672444 183.944797,130.225824 L183.944797,130.225824 Z" id="path18" fill="#FFFFFF"></path>
                        <path d="M131.067223,61.8372013 L127.64382,61.8372013 L127.64382,41.2479244 L131.067223,41.2479244 L131.067223,47.6505349 L151.555054,47.6505349 C152.896966,49.9781806 154.18256,52.5691362 155.32643,55.43198 L131.067223,55.43198 L131.067223,61.8372013" id="path20" fill="#FFFFFF"></path>
                        <path d="M93.2315128,80.5426553 L89.8088556,80.5426553 L89.8088556,59.9496489 L93.2315128,59.9496489 L93.2315128,66.3530053 L102.677107,66.3530053 C102.793471,69.1654994 103.434962,71.8004644 104.528109,74.1351963 L93.2315128,74.1351963 L93.2315128,80.5426553" id="path22" fill="#FFFFFF"></path>
                        <path d="M149.568668,146.422747 C148.620229,146.940416 147.707595,147.31263 146.854635,147.5696 C145.324379,146.541721 146.011745,144.342747 147.780323,143.170906 C149.435894,142.074402 151.559157,142.142654 152.582933,143.075801 C149.906197,143.197013 148.954775,144.091372 148.954775,144.091372 C148.730253,145.058831 149.123726,145.933796 149.568668,146.422747" id="path24" fill="#FFFFFF"></path>
                        <path d="M149.356453,37.8670387 L149.356453,40.949929 L137.768948,40.949929 L137.768948,38.2728196 C137.768948,37.0655469 137.567922,36.2565585 136.830579,35.4173977 C136.388621,34.9172579 135.465171,34.5454537 134.035241,34.5454537 L124.679158,34.5454537 C123.248109,34.5454537 122.324286,34.9172579 121.883074,35.4173977 C121.145358,36.2565585 120.945452,37.0655469 120.945452,38.2728196 L120.945452,63.6923061 L118.853517,68.5370612 L134.035241,68.5370612 C135.465171,68.5370612 136.388621,68.1641009 136.830579,67.6635881 C137.567922,66.826292 137.768948,66.0162221 137.768948,64.8089494 L137.768948,62.1325859 L149.356453,62.1325859 L149.356453,65.2147303 C149.356453,69.5474108 147.892584,72.6739376 145.481768,74.8352429 C143.069833,76.9928186 139.576686,78.2138908 135.330533,78.2153827 L123.38051,78.2153827 C119.138086,78.2138908 115.642328,76.9928186 113.231512,74.8352429 C110.815848,72.6739376 109.356827,69.5474108 109.356827,65.2147303 L109.356827,63.6923061 L115.561769,63.6923061 L115.561769,56.4057795 C115.561769,51.3074113 113.616034,46.8210711 110.342934,43.9399523 C110.026291,43.6572483 109.694729,43.3920735 109.356827,43.1373416 L109.356827,37.8670387 C109.356827,33.5365586 110.815848,30.4070482 113.231512,28.2476823 C115.642328,26.0882791 119.138086,24.8666847 123.38051,24.8637756 L135.330533,24.8637756 C139.576686,24.8666847 143.069833,26.0882791 145.481768,28.2476823 C147.892584,30.4070482 149.356453,33.5365586 149.356453,37.8670387" id="path26" fill="#FFFFFF"></path>
                        <path d="M111.522981,59.6523994 L99.9309998,59.6523994 L99.9309998,56.9756629 C99.9309998,55.7676443 99.7329579,54.9583203 98.9948693,54.1195324 C98.5536572,53.6193926 97.6294614,53.2471782 96.1995314,53.2471782 L86.8438207,53.2471782 C85.4127718,53.2471782 84.488203,53.6193926 84.0477368,54.1195324 C83.3100212,54.9583203 83.1104874,55.7676443 83.1104874,56.9756629 L83.1104874,82.3925387 L81.016688,87.2372939 L96.1995314,87.2372939 C97.6294614,87.2372939 98.5536572,86.8654524 98.9948693,86.3634477 C99.7329579,85.5242869 99.9309998,84.714217 99.9309998,83.5076902 L99.9309998,80.8339374 L111.522981,80.8339374 L111.522981,83.9130981 C111.522981,88.2498812 110.053517,91.3778998 107.644193,93.5358485 C105.231513,95.6956619 101.740604,96.9171071 97.4959416,96.9204638 L85.5444268,96.9204638 C81.3023756,96.9171071 77.8066181,95.6956619 75.3954294,93.5358485 C72.9853595,91.3778998 71.5214901,88.2498812 71.5214901,83.9130981 L71.5214901,56.5691361 C71.5214901,52.2375745 72.9853595,49.10881 75.3954294,46.9504883 C77.8066181,44.789929 81.3023756,43.5677378 85.5444268,43.5647542 L97.4959416,43.5647542 C101.740604,43.5677378 105.231513,44.789929 107.644193,46.9504883 C110.053517,49.10881 111.522981,52.2375745 111.522981,56.5691361 L111.522981,59.6523994" id="path28" fill="#FFFFFF"></path>
                        <path d="M191.92503,125.265078 C191.92503,125.265078 190.931464,118.634962 186.365683,117.659671 C186.941534,110.858366 181.727175,108.227503 178.409693,108.07086 C178.409693,108.07086 173.767455,108.679158 169.59552,111.995895 C164.180509,110.616687 159.770625,111.858272 157.664518,112.362888 C168.603446,91.0179931 173.41277,72.5974807 172.163725,57.5645673 C170.058364,32.22523 155.542001,17.6085404 146.947875,10.5208389 C143.654262,14.1210626 140.088761,17.5619203 136.274868,20.8432256 C135.964938,20.8320368 135.653143,20.8260321 135.339111,20.8260321 C135.339111,20.8260321 135.3365,20.8260321 135.334262,20.8260321 L123.18396,20.8272256 C118.259764,20.8626195 113.804752,22.316419 110.537993,25.2360273 C107.258925,28.1204655 105.314683,32.4960738 105.314683,37.7051739 L105.314683,40.9006983 C102.945638,39.9832158 100.299112,39.5278312 97.5048927,39.5278312 C97.5041467,39.5278312 97.5007901,39.5278312 97.5000442,39.5278312 L85.3493685,39.5285771 C80.4251728,39.5643813 75.9701613,41.0178078 72.7060122,43.9377145 C69.5548701,46.7084371 67.6397186,50.8594859 67.4938911,55.8008378 C51.5606514,60.2923994 34.2622276,63.4192991 15.879235,65.0689028 C15.879235,65.0689028 22.8786568,72.8648933 35.7424327,77.8584596 C45.4549173,102.353377 65.6402781,131.26974 86.8453125,131.26974 C99.4047528,131.26974 109.710766,123.53044 115.00009,116.93016 C113.626477,120.957386 112.803727,124.962981 112.442328,128.748901 C111.108249,127.192538 110.435428,125.802514 110.435428,125.802514 C110.256035,129.108062 110.623773,132.127549 111.277573,134.77706 C109.620137,133.409041 108.611279,132.008948 108.611279,132.008948 C109.68093,141.726803 114.934449,148.274868 117.702561,150.329507 C115.158226,151.930626 113.382188,154.787502 112.32671,157.0827 C111.299205,159.311511 112.132398,160.683259 114.329135,161.297898 C118.154962,162.368667 125.006617,163.05305 130.67002,162.345544 C130.67002,162.345544 130.68382,163.20932 130.857992,164.177152 C131.079531,165.403446 131.977246,165.93939 133.350113,165.683912 C135.982095,165.195707 139.730346,163.771371 142.768854,161.822653 C153.022281,164.087269 164.187595,154.943772 172.303958,150.501441 L172.795147,148.984239 C178.981068,146.386197 185.462373,142.720369 189.601487,139.115707 C189.601487,139.115707 189.898364,135.493516 188.53482,132.268528 C189.46573,130.729321 191.585636,127.515521 191.92503,125.265078 L191.92503,125.265078 Z M64.1499285,51.4174346 L63.8914669,53.4579008 L63.8821429,53.4579008 L63.0306744,51.4174346 L62.6644273,51.4174346 L61.8506278,53.4579008 L61.8413038,53.4579008 L61.5451733,51.4174346 L60.6284367,51.4174346 L61.2300218,54.9624229 L62.1374343,54.9624229 L62.8568749,53.0677842 L63.6188329,54.9624229 L64.5355695,54.9624229 L65.0715135,51.4174346 L64.1499285,51.4174346 Z M60.5075976,54.1818168 L59.7456395,54.1818168 L59.7456395,51.4174346 L58.8244274,51.4174346 L58.8244274,54.1818168 L58.0624694,54.1818168 L58.0624694,54.9624229 L60.5075976,54.9624229 L60.5075976,54.1818168 Z M192.37482,140.515428 C188.15552,144.279717 181.159156,148.458365 175.130252,151.111232 L174.688667,152.477013 C165.099856,157.580602 154.702094,166.568947 143.326803,164.851091 C139.765777,166.927362 130.589461,171.636359 128.21333,165.434774 C124.589274,165.573143 115.258925,165.169227 112.019391,163.538644 C106.19748,160.60904 110.319065,153.513842 113.411279,150.223586 C109.043913,145.316546 105.911419,138.125498 105.372492,128.901442 C98.6659183,132.839903 90.5652192,135.016873 82.7889956,133.836826 C74.6827021,132.607176 67.4976207,127.960463 61.5231686,122.545824 C48.9618636,111.161582 39.878041,95.6494149 33.5302929,80.0734712 C20.7991044,74.8285296 12.0161862,65.2248002 9.8997853,62.7170147 C26.0568012,61.4675975 41.7868521,58.88522 56.6504415,55.1541245 L56.6504415,53.9740779 C56.6504415,51.7721199 58.4358027,49.9867587 60.6381337,49.9867587 L65.7805112,49.9867587 C66.7860123,46.8087634 68.5512337,44.0428893 70.94825,41.9405118 C74.7796718,38.5163627 79.9063849,36.9051739 85.3303475,36.8675795 L97.5216759,36.8666844 C99.2768274,36.8666844 101.001023,37.033062 102.662562,37.3698825 C102.737154,31.6427778 104.953657,26.5958781 108.782468,23.2392349 C112.615755,19.8142652 117.739484,18.2019203 123.165312,18.1657804 L134.653983,18.1646243 C139.080649,14.4645964 143.104519,10.5916268 146.668528,6.56074576 C155.211931,13.2408388 163.922793,23.4032628 168.540042,33.0335097 C175.173142,46.8620967 176.63552,62.3712805 173.656686,77.336688 C171.49911,88.1760351 167.506569,98.6040069 162.759157,108.55347 C164.82573,108.403913 166.909087,108.515429 168.943586,108.904426 C173.44186,105.808109 177.97594,105.226291 178.28848,105.185265 C184.036918,105.44037 188.888014,110.010254 189.260601,115.721023 C192.437478,117.530626 194.35897,121.649974 194.834121,125.268435 C194.470485,127.873936 193.006988,130.471978 191.707221,132.600463 C192.363259,134.748342 192.687361,138.237759 192.37482,140.515428 L192.37482,140.515428 Z" id="path30" fill="#97C7ED"></path>
                        <path d="M154.832257,129.589927 C153.062933,130.134449 150.372024,129.542934 149.128201,128.054449 C150.044938,124.671326 152.939856,123.712817 153.887549,123.051932 C152.748528,125.135661 152.863772,128.021629 152.863772,128.021629 C153.369507,128.587409 154.33249,129.257619 154.832257,129.589927" id="path32" fill="#97C7ED"></path>
                        <path d="M123.229088,155.370066 C123.229088,155.370066 124.33044,153.419483 124.977526,153.055474 C128.108528,154.219483 131.286524,154.520462 133.759624,154.141908 C133.759624,154.141908 128.813423,156.620602 123.229088,155.370066" id="path34" fill="#97C7ED"></path>
                        <path d="M151.555054,47.6505349 L131.067223,47.6505349 L131.067223,41.2479244 L127.64382,41.2479244 L127.64382,61.8372013 L131.067223,61.8372013 L131.067223,55.43198 L155.32643,55.43198 C154.18256,52.5691362 152.896966,49.9781806 151.555054,47.6505349 L151.555054,47.6505349 Z M156.055567,57.3557095 L156.055567,65.3795788 C156.061162,71.2096952 153.834215,76.4128652 149.92932,79.840371 C146.044938,83.3148697 140.839157,84.9241937 135.3365,84.9219559 L124.759717,84.92121 L124.768295,84.9614897 C120.335661,102.281396 103.497247,125.296034 86.8057787,125.296034 C82.3265247,125.296034 77.8375738,123.39319 73.5101147,120.246524 L73.5086229,120.061162 C77.8998582,122.427223 87.2850328,123.677759 94.5372471,118.402608 C102.030767,112.952538 107.231699,106.263494 110.843074,99.5584124 C107.128389,102.326524 102.436548,103.624426 97.501536,103.622189 L85.5395783,103.621816 C80.037294,103.624799 74.8255459,102.015102 70.9254994,98.5294148 C67.042982,95.1227948 64.8100683,89.9408835 64.8186464,84.0801844 L64.8186464,66.224707 C65.7096487,66.0091359 66.5965485,65.7879704 67.4800916,65.5615834 L67.4808375,84.0801844 C67.4808375,89.2822355 69.4273176,93.6671305 72.7007907,96.5460116 C76.0115599,99.5065709 80.5400446,100.962235 85.5403242,100.96037 L97.5022819,100.962235 C102.500324,100.962235 107.030673,99.5065709 110.340324,96.5493682 C113.616034,93.6671305 115.561769,89.2445665 115.561769,84.0820492 L115.561769,80.8827952 C117.932678,81.8013966 120.580696,82.2564082 123.376034,82.2556623 L135.3365,82.2564082 C140.335288,82.2564082 144.864519,80.8041005 148.172304,77.8442871 C151.446896,74.9646601 153.394122,70.5447069 153.394122,65.3795788 L153.394122,58.0934251 L133.727176,58.0934251 L133.72643,64.4986464 L124.984612,64.4986464 L124.984612,38.5857333 L133.727176,38.5857333 L133.727176,44.9905816 L153.394122,44.9905816 L153.394122,37.7029361 C153.394122,34.8856308 152.797012,32.2558127 151.712071,29.9792999 C158.8289,40.3509547 168.907781,61.8427957 158.777805,93.9863846 C161.266569,78.9150563 159.460695,66.7763153 156.055567,57.3557095 L156.055567,57.3557095 Z" id="path36" fill="#97C7ED"></path>
                        <path d="M102.677107,66.3530053 L93.2315128,66.3530053 L93.2315128,59.9496489 L89.8088556,59.9496489 L89.8088556,80.5426553 L93.2315128,80.5426553 L93.2315128,74.1351963 L104.528109,74.1351963 C103.434962,71.8004644 102.793471,69.1654994 102.677107,66.3530053 L102.677107,66.3530053 Z M95.892585,83.198879 L87.1481563,83.198879 L87.1481563,57.2893226 L95.892958,57.2893226 L95.892958,63.6923061 L105.315429,63.6923061 L105.315429,65.3780869 C105.315429,69.9875041 106.84382,73.9509539 109.468342,76.7955226 L95.892958,76.7955226 L95.892585,83.198879 L95.892585,83.198879 Z" id="path38" fill="#97C7ED"></path>
                        <path d="M184.089879,122.241116 C184.062653,125.421722 182.543585,127.507316 182.543585,127.507316 C182.437664,124.925312 180.962606,123.134356 179.248107,123.149274 C176.955893,123.169787 172.830578,125.416873 171.704984,125.834962 C170.578644,126.251186 167.150019,127.849694 162.687921,128.51692 C158.401861,129.158785 155.684099,126.80727 155.684099,126.80727 C155.684099,126.80727 155.808667,124.014542 158.185544,122.471605 C160.228621,122.826291 162.175847,125.063307 165.106942,125.056967 C174.460042,125.03347 180.006709,119.071326 181.293795,117.161769 C181.293795,117.161769 181.738737,113.617899 178.542839,112.449787 C178.542839,112.449787 174.444005,113.298272 171.317105,116.925312 C164.395707,115.924286 156.692583,116.653424 151.188061,120.258831 C142.677106,117.72009 133.641022,120.993936 129.84354,124.453144 C129.94685,127.974263 130.655475,133.085684 130.655475,133.085684 C130.655475,133.085684 127.920929,129.561955 127.027689,126.859111 C126.164659,124.252118 125.63058,119.870953 125.63058,119.870953 C131.676267,115.139205 139.112724,113.413144 146.850905,113.111792 C153.575754,104.326711 156.145078,94.7763146 156.875334,84.8220025 C156.875334,84.8220025 158.990392,88.0365479 158.715148,94.189648 C158.736406,94.1213962 158.756173,94.0542634 158.777805,93.9863846 C168.907781,61.8427957 158.8289,40.3509547 151.712071,29.9792999 C152.797012,32.2558127 153.394122,34.8856308 153.394122,37.7029361 L153.394122,44.9905816 L133.727176,44.9905816 L133.727176,38.5857333 L124.984612,38.5857333 L124.984612,64.4986464 L133.72643,64.4986464 L133.727176,58.0934251 L153.394122,58.0934251 L153.394122,65.3795788 C153.394122,70.5447069 151.446896,74.9646601 148.172304,77.8442871 C144.864519,80.8041005 140.335288,82.2564082 135.3365,82.2564082 L123.376034,82.2556623 C120.580696,82.2564082 117.932678,81.8013966 115.561769,80.8827952 L115.561769,84.0820492 C115.561769,89.2445665 113.616034,93.6671305 110.340324,96.5493682 C107.030673,99.5065709 102.500324,100.962235 97.5022819,100.962235 L85.5403242,100.96037 C80.5400446,100.962235 76.0115599,99.5065709 72.7007907,96.5460116 C69.4273176,93.6671305 67.4808375,89.2822355 67.4808375,84.0801844 L67.4800916,65.5615834 C66.5965485,65.7879704 65.7096487,66.0091359 64.8186464,66.224707 C56.3565487,68.2715134 47.5688566,69.8110938 38.5943114,70.637201 C43.9970152,74.0389725 55.3402317,78.9944969 64.3625159,80.9644735 C57.1282037,81.7070376 51.3260593,82.0330049 45.6096958,80.8798115 C51.592353,94.622655 61.9770614,111.860883 73.5101147,120.246524 C77.8375738,123.39319 82.3265247,125.296034 86.8057787,125.296034 C103.497247,125.296034 120.335661,102.281396 124.768295,84.9614897 C124.770533,84.9536575 124.772771,84.9450795 124.775009,84.9372473 C125.696594,86.586478 129.586197,95.0332843 123.85044,111.897433 C123.50023,112.826477 123.172025,113.736874 122.86396,114.629741 C122.859857,114.639065 122.856873,114.648016 122.853144,114.656967 L122.855382,114.653983 C115.158599,136.96671 120.473657,148.116733 133.759624,154.141908 C131.286524,154.520462 128.108528,154.219483 124.977526,153.055474 C122.94713,153.942374 120.855941,155.216033 119.798225,156.951045 C129.884566,159.058644 135.738551,156.557572 137.124099,155.704239 C149.240835,159.641208 156.467688,152.76643 164.884285,148.357665 L162.539856,147.081022 C168.502373,145.850253 179.354028,141.690999 184.356918,136.965218 C184.356918,136.965218 184.551977,134.149367 183.357385,131.83664 C180.891371,133.4303 176.997292,134.936687 172.275986,135.12615 C172.032816,134.208295 172.55869,132.218551 172.98946,131.789274 C180.566149,132.812677 183.08214,130.993377 183.944797,130.225824 C185.692117,128.672444 186.516732,125.138645 186.516732,125.138645 C186.356359,124.071978 185.392629,122.781535 184.089879,122.241116 L184.089879,122.241116 Z M135.330533,24.8637756 L123.38051,24.8637756 C119.138086,24.8666847 115.642328,26.0882791 113.231512,28.2476823 C110.815848,30.4070482 109.356827,33.5365586 109.356827,37.8670387 L109.356827,43.1373416 C109.694729,43.3920735 110.026291,43.6572483 110.342934,43.9399523 C113.616034,46.8210711 115.561769,51.3074113 115.561769,56.4057795 L115.561769,63.6923061 L109.356827,63.6923061 L109.356827,65.2147303 C109.356827,69.5474108 110.815848,72.6739376 113.231512,74.8352429 C115.642328,76.9928186 119.138086,78.2138908 123.38051,78.2153827 L135.330533,78.2153827 C139.576686,78.2138908 143.069833,76.9928186 145.481768,74.8352429 C147.892584,72.6739376 149.356453,69.5474108 149.356453,65.2147303 L149.356453,62.1325859 L137.768948,62.1325859 L137.768948,64.8089494 C137.768948,66.0165951 137.567922,66.826292 136.830579,67.663961 C136.388621,68.1641009 135.465171,68.5370612 134.035241,68.5370612 L118.853517,68.5370612 L120.945452,63.6923061 L120.945452,38.2728196 C120.945452,37.0655469 121.145358,36.2565585 121.883074,35.4173977 C122.324286,34.9172579 123.248109,34.5454537 124.679158,34.5454537 L134.035241,34.5454537 C135.465171,34.5454537 136.388621,34.9172579 136.830579,35.4173977 C137.567922,36.2565585 137.768948,37.0655469 137.768948,38.2728196 L137.768948,40.950302 L149.356453,40.950302 L149.356453,37.8670387 C149.356453,33.5365586 147.892584,30.4070482 145.481768,28.2476823 C143.069833,26.0882791 139.576686,24.8666847 135.330533,24.8637756 Z M105.315429,65.3780869 L105.315429,63.6923061 L95.892958,63.6923061 L95.892958,57.2893226 L87.1481563,57.2893226 L87.1481563,83.198879 L95.892585,83.198879 L95.892958,76.7955226 L109.468342,76.7955226 C106.84382,73.9509539 105.315429,69.9875041 105.315429,65.3780869 L105.315429,65.3780869 Z M107.644193,46.9504883 C105.231513,44.789929 101.740604,43.5677378 97.4959416,43.5647542 L85.5444268,43.5647542 C81.3023756,43.5677378 77.8066181,44.789929 75.3954294,46.9504883 C72.9853595,49.1091829 71.5214901,52.2375745 71.5214901,56.5691361 L71.5214901,83.9130981 C71.5214901,88.2498812 72.9853595,91.3778998 75.3954294,93.5358485 C77.8066181,95.6956619 81.3023756,96.9171071 85.5444268,96.9204638 L97.4959416,96.9204638 C101.740604,96.9171071 105.231513,95.6956619 107.644193,93.5358485 C110.053517,91.3778998 111.522981,88.2498812 111.522981,83.9130981 L111.522981,80.8339374 L99.9309998,80.8339374 L99.9309998,83.5076902 C99.9309998,84.714217 99.7329579,85.5242869 98.9948693,86.3634477 C98.5536572,86.8654524 97.6294614,87.2372939 96.1995314,87.2372939 L81.016688,87.2372939 L83.1104874,82.3925387 L83.1104874,56.9756629 C83.1104874,55.7676443 83.3100212,54.9583203 84.0477368,54.1195324 C84.488203,53.6193926 85.4127718,53.2471782 86.8438207,53.2471782 L96.1995314,53.2471782 C97.6294614,53.2471782 98.5536572,53.6193926 98.9948693,54.1195324 C99.7329579,54.9583203 99.9309998,55.7676443 99.9309998,56.9756629 L99.9309998,59.6523994 L111.522981,59.6523994 L111.522981,56.5691361 C111.522981,52.2375745 110.053517,49.1091829 107.644193,46.9504883 L107.644193,46.9504883 Z M189.601487,139.115707 C185.462373,142.720369 178.981068,146.386197 172.795147,148.984239 L172.303958,150.501441 C164.187595,154.943772 153.022281,164.087269 142.768854,161.822653 C139.730346,163.771371 135.982095,165.195707 133.350113,165.683912 C131.977246,165.93939 131.079531,165.403446 130.857992,164.177152 C130.68382,163.20932 130.67002,162.345544 130.67002,162.345544 C125.006617,163.05305 118.154962,162.368667 114.329135,161.297898 C112.132398,160.683259 111.299205,159.311511 112.32671,157.0827 C113.382188,154.787502 115.158226,151.930626 117.702561,150.329507 C114.934449,148.274868 109.68093,141.726803 108.611279,132.008948 C108.611279,132.008948 109.620137,133.409041 111.277573,134.77706 C110.623773,132.127549 110.256035,129.108062 110.435428,125.802514 C110.435428,125.802514 111.108249,127.192538 112.442328,128.748901 C112.803727,124.962981 113.626477,120.957386 115.00009,116.93016 C109.710766,123.53044 99.4047528,131.26974 86.8453125,131.26974 C65.6402781,131.26974 45.4549173,102.353377 35.7424327,77.8584596 C22.8786568,72.8648933 15.879235,65.0689028 15.879235,65.0689028 C34.2622276,63.4192991 51.5606514,60.2923994 67.4938911,55.8008378 C67.6397186,50.8594859 69.5548701,46.7084371 72.7060122,43.9377145 C75.9701613,41.0178078 80.4251728,39.5643813 85.3493685,39.5285771 L97.5000442,39.5278312 C97.5007901,39.5278312 97.5041467,39.5278312 97.5048927,39.5278312 C100.299112,39.5278312 102.945638,39.9832158 105.314683,40.9006983 L105.314683,37.7051739 C105.314683,32.4960738 107.258925,28.1204655 110.537993,25.2360273 C113.804752,22.316419 118.259764,20.8626195 123.18396,20.8272256 L135.334262,20.8260321 C135.3365,20.8260321 135.339111,20.8260321 135.339111,20.8260321 C135.653143,20.8260321 135.964938,20.8320368 136.274868,20.8432256 C140.088761,17.5619203 143.654262,14.1210626 146.947875,10.5208389 C155.542001,17.6085404 170.058364,32.22523 172.163725,57.5645673 C173.41277,72.5974807 168.603446,91.0179931 157.664518,112.362888 C159.770625,111.858272 164.180509,110.616687 169.59552,111.995895 C173.767455,108.679158 178.409693,108.07086 178.409693,108.07086 C181.727175,108.227503 186.941534,110.858366 186.365683,117.659671 C190.931464,118.634962 191.92503,125.265078 191.92503,125.265078 C191.585636,127.515521 189.46573,130.729321 188.53482,132.268528 C189.898364,135.493516 189.601487,139.115707 189.601487,139.115707 L189.601487,139.115707 Z" id="path40" fill="#104076"></path>
                        <path d="M147.780323,143.170906 C146.011745,144.342747 145.324379,146.541721 146.854635,147.5696 C147.707595,147.31263 148.620229,146.940416 149.568668,146.422747 C149.123726,145.933796 148.730253,145.058831 148.954775,144.091372 C148.954775,144.091372 149.906197,143.197013 152.582933,143.075801 C151.559157,142.142654 149.435894,142.074402 147.780323,143.170906 Z M146.970999,151.090346 C142.984052,150.754682 141.526896,148.002234 141.526896,148.002234 C142.275055,148.148435 143.082514,148.17305 143.922794,148.120462 C142.257526,146.253796 143.225731,143.442421 146.498831,141.968854 C147.257432,141.627223 148.180882,141.401955 148.180882,141.401955 C146.482421,140.369227 144.57622,139.768388 144.57622,139.768388 C144.57622,139.768388 147.091465,139.016127 149.466849,139.199251 C152.09995,139.402514 155.458831,140.082421 158.86918,144.878318 C157.834215,146.687549 150.787502,151.41333 146.970999,151.090346 L146.970999,151.090346 Z" id="path42" fill="#104076"></path>
                        <polyline id="path44" fill="#104076" points="58.0624694 54.1818168 58.8244274 54.1818168 58.8244274 51.4174346 59.7456395 51.4174346 59.7456395 54.1818168 60.5075976 54.1818168 60.5075976 54.9624229 58.0624694 54.9624229 58.0624694 54.1818168"></polyline>
                        <polyline id="path46" fill="#104076" points="63.6188329 54.9624229 62.8568749 53.0677842 62.1374343 54.9624229 61.2300218 54.9624229 60.6284367 51.4174346 61.5451733 51.4174346 61.8413038 53.4579008 61.8506278 53.4579008 62.6644273 51.4174346 63.0306744 51.4174346 63.8821429 53.4579008 63.8914669 53.4579008 64.1499285 51.4174346 65.0715135 51.4174346 64.5355695 54.9624229 63.6188329 54.9624229"></polyline>
                    </g>
                </g>
            </g>
        </g>
    </g>
</svg>