<?xml version="1.0" encoding="UTF-8"?>
<svg width="200px" height="200px" viewBox="0 0 200 200" version="1.1" xmlns="http://www.w3.org/2000/svg" xmlns:xlink="http://www.w3.org/1999/xlink">
    <!-- Generator: Sketch 54.1 (76490) - https://sketchapp.com -->
    <title>converse</title>
    <desc>Created with Sketch.</desc>
    <g id="converse" stroke="none" stroke-width="1" fill="none" fill-rule="evenodd">
        <g id="converse_BGL">
            <g id="converse">
                <g id="g10" transform="translate(99.999998, 99.869466) scale(-1, 1) rotate(-180.000000) translate(-99.999998, -99.869466) translate(0.000000, 0.102569)" fill-rule="nonzero">
                    <g id="g12">
                        <path d="M131.694169,170.082047 C128.675987,167.440089 124.505358,163.310952 122.848016,160.485777 C120.901629,157.163632 124.652211,150.640556 124.652211,150.640556 C118.236827,144.413516 110.50023,124.790207 110.50023,124.790207 C101.254077,120.450347 94.0065245,117.772491 94.0065245,117.772491 C89.3025619,105.450347 90.623774,97.8316992 92.3724919,93.756641 C91.7710933,92.8978998 91.0396248,91.737993 90.1491819,90.1696947 C89.8675968,89.6722588 89.600464,89.1948696 89.3384593,88.7221423 C75.3608373,68.9869447 72.0759889,51.5608379 72.4694621,38.7319804 C70.9375274,40.4614442 68.8927722,36.5175282 68.2041941,33.8647078 C64.5818166,19.911841 67.236362,0.120738459 67.236362,0.120738459 C67.673658,23.2284376 71.9361287,28.2177149 71.9361287,28.2177149 C73.6289026,20.9016312 76.671793,17.3464798 77.6032615,16.3949646 C77.6946368,16.2177618 77.7482498,16.123636 77.7482498,16.123636 C77.723075,16.1878784 77.7016298,16.2527269 77.6773873,16.3184611 C77.8097883,16.1855474 77.8885761,16.1165031 77.8885761,16.1165031 C74.5790191,25.7976217 74.060138,34.1007451 74.2363618,39.4997659 C76.2013967,69.7594388 101.425638,93.5342634 102.818179,94.8251725 C102.959438,94.9039603 103.041489,94.949648 103.041489,94.949648 C102.275522,95.8885757 101.59114,96.8419556 100.973424,97.7953356 C108.500697,105.864799 119.411652,115.031699 120.941256,116.144053 C123.017246,117.652678 124.08671,119.883913 124.652211,125.167829 C125.218645,130.450813 133.952444,150.074122 134.707689,151.77249 C135.462001,153.470859 136.594402,163.283446 137.160836,167.622373 C137.726803,171.963166 134.713283,172.724005 131.694169,170.082047" id="path14" fill="#401A64"></path>
                        <path d="M94.7100209,117.067596 C90.3412565,105.405126 91.4722588,98.1552423 93.2060583,94.114683 L93.4055921,93.6503473 L93.1156154,93.2363613 C92.4769208,92.324007 91.7445199,91.1417227 90.9379931,89.7216761 C90.658739,89.2279698 90.3930047,88.7529115 90.1323987,88.2825153 L90.0792518,88.1976668 C78.7496484,72.2013968 73.1254061,55.9449869 73.3519795,39.8595794 C75.3832149,68.6424225 98.226571,91.672725 101.775289,95.0871771 C101.232165,95.793937 100.708156,96.5361281 100.212119,97.3025617 L99.8270371,97.896501 L100.310021,98.4144498 C107.754776,106.395335 118.702561,115.638226 120.407922,116.877853 C122.08671,118.097899 123.171559,119.861069 123.749647,125.264333 C124.288575,130.28671 131.634496,147.096966 133.87319,152.129134 C134.457339,153.443819 135.38974,160.848481 135.94685,165.272723 C136.0634,166.199063 136.169694,167.040555 136.260603,167.739856 C136.451279,169.200462 136.199064,170.231231 135.569227,170.567828 C134.836826,170.959902 133.551046,170.500695 132.291838,169.399063 L132.291838,169.39953 C129.292771,166.773889 125.224239,162.744052 123.630766,160.026569 C122.252678,157.674588 124.468528,152.780416 125.438692,151.09277 L125.790673,150.481115 L125.283913,149.98974 C119.08065,143.968295 111.420976,124.651745 111.344519,124.45734 L111.212118,124.121675 L110.885778,123.968295 C102.911886,120.226104 96.3412563,117.686244 94.7100209,117.067596 Z M71.6461521,38.2493697 C71.1794854,38.2493697 69.7757558,36.3086238 69.0825158,33.6369222 C67.5048934,27.5593466 67.1412571,20.2964564 67.2247069,14.0989274 C68.6205111,25.5860133 71.1081567,28.6456403 71.2461521,28.8075517 L72.4149166,30.1748244 L72.820511,28.4223769 C73.5440541,25.2937523 74.5179469,22.8802325 75.4545436,21.0839156 C73.9170145,27.047645 73.3962686,32.3062463 73.3118863,36.4120737 L71.790208,38.1301156 C71.6992989,38.2326331 71.6489493,38.2493697 71.6484831,38.2493697 C71.6475507,38.2493697 71.6470845,38.2493697 71.6461521,38.2493697 Z M66.3370613,0 C66.2279704,0.815305341 63.7006977,20.1282046 67.3258724,34.0932859 C67.7095554,35.5716541 69.1561754,39.5173883 71.2102546,40.0107216 C71.3188793,40.0367822 71.4270378,40.0531925 71.5342639,40.0600922 C71.3580402,56.449882 77.0843804,72.976222 88.5692286,89.2055922 C88.8242402,89.6666644 89.0853125,90.1323987 89.3594383,90.616781 C90.0792518,91.88438 90.7459185,92.9738904 91.3463847,93.8652657 C89.5743567,98.3375267 88.5682962,106.07086 93.1585058,118.096034 L93.305359,118.48065 L93.6918391,118.623773 C93.7631678,118.64988 100.841956,121.275988 109.790207,125.459671 C110.850347,128.103493 117.558505,144.475521 123.53333,150.797665 C122.575288,152.633096 120.215382,157.787409 122.065265,160.944518 C123.768761,163.849413 127.994869,168.050345 131.096966,170.765031 L131.096966,170.765031 C132.986011,172.417245 134.977619,172.943119 136.424705,172.16876 C137.208388,171.750112 138.462467,170.587408 138.060603,167.504891 C137.969227,166.808387 137.863866,165.969693 137.747316,165.04615 C136.914216,158.4289 136.172491,152.834961 135.53706,151.404192 C133.957106,147.852677 126.077852,129.952444 125.554309,125.070859 C124.987876,119.778086 123.882048,117.159438 121.475055,115.409787 C119.833563,114.21678 109.471792,105.468529 102.126804,97.6978997 C102.642422,96.9389253 103.184613,96.2097878 103.74452,95.5230745 L104.429834,94.6825151 L103.356175,94.0862447 C101.478785,92.3258718 77.0531449,68.8787862 75.1421893,39.4411179 C74.9734247,34.256829 75.4606042,26.024708 78.7473174,16.410256 L79.8400912,13.2131465 L77.2899748,15.4350579 C77.2899748,15.4350579 77.1948699,15.5175754 77.0358955,15.6769227 L77.1062918,15.7468528 L76.95804,15.6769227 C76.95804,15.6769227 76.9226088,15.7393469 76.8596717,15.8582747 C75.9249398,16.8420509 73.3822825,19.9184144 71.6414901,25.7752441 C70.2139843,22.2550577 68.4121195,14.2956174 68.143588,0.103074123 L66.3370613,0 L66.3370613,0 Z" id="path16" fill="#B09247"></path>
                        <path d="M85.2191121,125.854076 C85.090907,127.743587 84.6750562,129.316081 84.1808837,130.558039 C84.1347298,133.604192 84.4531447,136.805591 84.963168,137.592537 C85.7067578,138.741255 87.1939372,142.99953 87.1939372,142.99953 C91.0722588,143.584146 91.1972005,146.835428 91.1972005,146.835428 C96.3440535,150.321208 94.6237739,153.717479 94.6237739,153.717479 C98.5435873,156.083912 95.7151491,167.391138 95.7151491,167.391138 C95.7151491,167.391138 95.1808834,161.942187 90.0209768,159.396266 C84.8265713,156.833096 81.9072241,152.948248 80.7389257,149.324938 C80.0400912,147.160835 80.1645668,145.1627 80.1645668,145.1627 C76.4470843,147.866197 71.3109539,146.717013 71.3109539,146.717013 C73.9468513,149.082048 72.1216765,153.272257 72.1216765,153.272257 C75.0284364,158.003726 71.9864784,162.463399 71.9864784,162.463399 C71.9864784,162.463399 73.1356625,158.206523 65.836362,152.934262 C55.4480173,145.431232 58.8759892,135.498365 58.8759892,135.498365 C57.8717934,131.542654 59.7044274,129.958971 60.1836815,129.622841 C60.2116535,129.564099 60.2582736,129.498365 60.3421896,129.414449 L61.1892759,127.718412 C61.6279705,127.109554 62.6410241,123.562235 63.0372945,120.9972 C63.6121196,117.280184 67.0815834,112.994403 69.3519796,110.94685 C69.9585064,110.40093 70.5258724,110.02424 71.0736579,109.7641 C71.2023292,108.221909 70.9076905,106.262934 69.6200449,103.94452 L79.825639,96.9132843 C79.825639,96.9132843 82.660604,105.986478 95.3608368,117.438692 L88.216781,126.623307 L85.2191121,125.854076" id="path18" fill="#401A64"></path>
                        <path d="M70.79487,104.236827 L79.3878768,98.3160815 C80.5412567,101.071326 84.2992986,108.515615 94.128669,117.544519 L87.8661983,125.596267 L85.4447531,124.975288 C85.1832147,124.908155 84.9058254,124.960836 84.6876436,125.118878 C84.4689956,125.276454 84.3319326,125.52354 84.3137508,125.792538 C84.2065247,127.374822 83.8778534,128.865265 83.3375271,130.222374 C83.2969676,130.324938 83.2755224,130.434029 83.2736576,130.544519 C83.2424222,132.609321 83.3962683,136.843353 84.2018627,138.086244 C84.7627018,138.953376 85.9333312,142.142654 86.3370608,143.298365 C86.4480165,143.616313 86.725872,143.846616 87.0587391,143.8965 C90.0620024,144.349181 90.2764546,146.620975 90.2909068,146.878318 C90.3072238,147.160835 90.454077,147.427968 90.6885758,147.586476 C95.0484825,150.539856 93.8610699,153.206989 93.8083893,153.319343 C93.6107203,153.739856 93.756641,154.254075 94.1547762,154.494169 C95.9878764,155.600929 96.031233,159.882513 95.5016293,163.690439 C94.6321655,161.92587 93.1011632,159.904425 90.4223754,158.582747 C84.4783196,155.649413 82.3449863,151.34918 81.602329,149.046616 C80.9636343,147.068528 81.0689956,145.237292 81.069928,145.219111 C81.0918395,144.868062 80.9090889,144.536593 80.6013966,144.367362 C80.2932381,144.198598 79.9151495,144.221908 79.6307672,144.428901 C76.3002312,146.850812 71.5547768,145.841954 71.5076905,145.831232 C71.1030285,145.741721 70.6918397,145.936127 70.5044271,146.303027 C70.3160822,146.66946 70.3981334,147.117013 70.7048933,147.392071 C72.8144504,149.285777 71.3044271,152.875987 71.2890425,152.911884 C71.1724924,153.183213 71.1939376,153.496033 71.3487162,153.747316 C72.5207441,155.655008 72.6055926,157.522141 72.3491823,158.992071 C71.585546,157.144518 69.915616,154.761301 66.3678305,152.199064 C56.6787865,145.201395 59.6051267,136.172957 59.7342642,135.792071 C59.7906745,135.626104 59.7985999,135.445218 59.7552433,135.275055 C58.8853132,131.847083 60.3934717,130.58368 60.7048936,130.365498 C60.8172479,130.28671 60.9100218,130.18368 60.9766885,130.064332 C61.0428889,129.995801 61.1123528,129.903027 61.1538446,129.820043 L61.9776208,128.171092 C62.5939378,127.187876 63.5692292,123.496034 63.9342641,121.135661 C64.4722595,117.655475 67.8326323,113.538925 69.959905,111.620976 C70.4703945,111.160836 70.962236,110.821442 71.4634015,110.583214 C71.7547768,110.444752 71.9510472,110.161303 71.9776206,109.839624 C72.1282033,108.038226 71.7305343,106.157107 70.79487,104.236827 L70.79487,104.236827 Z M79.8247066,96.0060582 C79.6433547,96.0060582 79.4638675,96.0606037 79.3104875,96.165965 L69.1048934,103.1972 C68.720278,103.462468 68.5995321,103.976687 68.8265717,104.385079 C69.7571078,106.060137 70.2158491,107.678319 70.1930052,109.202794 C69.7053596,109.484846 69.2275041,109.837759 68.7449866,110.272725 C66.7482501,112.073191 62.799066,116.601862 62.140791,120.858272 C61.7319332,123.504426 60.7561756,126.728668 60.4503481,127.192071 C60.4303015,127.222374 60.3939379,127.280183 60.3776209,127.312817 L59.5874111,128.894635 C59.5585067,128.928202 59.5319332,128.962235 59.5067584,128.996267 C58.7286699,129.611186 57.0083902,131.479717 57.9365953,135.47692 C57.46853,137.192537 55.4717935,146.567829 65.3053597,153.669926 C71.9062919,158.437758 71.1156159,162.203726 71.1067581,162.241488 C71.0074574,162.667129 71.2233082,163.110485 71.6233082,163.286243 C72.0233082,163.462933 72.4904411,163.33566 72.7361287,162.974821 C72.8703944,162.778085 75.9128186,158.209786 73.1235413,153.188341 C73.4545436,152.231232 74.071793,149.919344 73.208856,147.853143 C74.8284364,147.928668 77.1468512,147.784612 79.3030283,146.732863 C79.3748232,147.530999 79.5342637,148.547316 79.8755225,149.604192 C80.7058255,152.179017 83.0764548,156.981348 89.619112,160.210252 C94.2438205,162.491371 94.7911398,167.279716 94.8121188,167.482513 C94.8578065,167.920742 95.2111864,168.263865 95.6503473,168.295101 C96.0885757,168.328201 96.4881095,168.039157 96.5953356,167.611651 C96.8862447,166.447548 99.2153821,156.61305 95.6857785,153.385078 C95.9948694,152.064798 96.0508134,149.190672 92.0522122,146.325404 C91.8139837,144.94685 90.7370607,142.854542 87.8750561,142.204658 C87.4428883,140.998598 86.3734244,138.101162 85.7249396,137.099763 C85.4298347,136.640556 85.0503475,134.011652 85.0857788,130.735195 C85.5370608,129.563167 85.8494151,128.31002 86.0186459,126.995801 L87.99114,127.502095 C88.3426551,127.591139 88.7114197,127.465731 88.9328649,127.180416 L96.0769207,117.995801 C96.3687622,117.62051 96.3216759,117.083447 95.968296,116.765032 C83.6410235,105.648482 80.7193453,96.7296013 80.6913733,96.6410232 C80.60466,96.3668974 80.3925388,96.1491817 80.1202777,96.0554755 C80.0237742,96.0223752 79.9240073,96.0060582 79.8247066,96.0060582 L79.8247066,96.0060582 Z" id="path20" fill="#B09247"></path>
                        <path d="M93.5501142,116.158039 C93.5501142,116.158039 84.2853126,105.431233 88.7999978,93.3934709 C88.7999978,93.3934709 85.0918394,83.6289023 83.1855457,75.9151496 C83.1855457,75.9151496 90.0745898,90.2829814 96.0629347,94.40093 C96.0629347,94.40093 88.7645665,101.324007 94.9398578,116.108622 L93.5501142,116.158039" id="path22" fill="#B09247"></path>
                        <path d="M93.6564079,115.921209 C92.8116527,114.889974 84.8139839,104.684846 89.0181796,93.4755221 L89.0489488,93.3930047 L89.0177134,93.3104872 C88.984147,93.2223753 85.9389256,85.177154 83.9710935,77.9985994 C86.0629349,82.0410236 91.0792518,91.0778532 95.7100209,94.4368275 C94.5958018,95.6923053 89.219112,102.704893 94.596268,115.887643 L93.6564079,115.921209 Z M83.3953359,75.8144503 L82.9589723,75.9710937 C84.7547764,83.2363616 88.1874104,92.4284359 88.5505805,93.3939371 C84.111886,105.389275 93.2801841,116.202794 93.3738904,116.310487 L93.4466177,116.395335 L95.2848461,116.329601 L95.1547762,116.018645 C89.1118859,101.549648 96.1515127,94.6382261 96.2233076,94.5696946 L96.4321654,94.3715594 L96.1948694,94.2088555 C90.3268043,90.1734243 83.4643336,75.9571077 83.3953359,75.8144503 L83.3953359,75.8144503 Z" id="path24" fill="#B09247"></path>
                        <path d="M182.203259,120.066664 C161.487175,139.460136 133.498831,134.391139 133.498831,134.391139 C148.264798,140.782747 163.471325,135.933796 163.471325,135.933796 C153.994402,144.749647 143.857339,144.528668 143.857339,144.528668 C154.435894,145.411185 158.182747,142.545451 172.285777,140.782747 C186.391138,139.020043 199.172955,145.411185 199.172955,145.411185 C181.761767,141.663866 164.573422,149.817712 164.573422,149.817712 C174.048947,150.478784 179.115613,158.854541 179.115613,158.854541 C173.607921,155.107688 157.299763,154.226103 139.668994,156.20932 C122.038692,158.192537 107.053144,153.123539 99.3398577,147.834961 C91.6256387,142.545451 79.7258721,144.749647 79.7258721,144.749647 L76.6405575,133.289507 C78.3403244,131.81305 80.0330982,130.512817 81.7216763,129.341722 C86.6111866,122.518412 98.3272703,109.708622 117.411186,109.708622 C143.415847,109.708622 145.17995,123.372957 174.489972,115.659205 C174.489972,115.659205 164.989739,126.218645 140.195334,121.576687 C133.595801,120.341722 126.463866,120.764566 119.610253,122.012118 C127.046617,123.196267 134.639624,125.25734 142.535195,127.118878 C165.895567,132.628435 182.203259,120.066664 182.203259,120.066664" id="path26" fill="#401A64"></path>
                        <path d="M77.2806507,133.485778 C78.806991,132.17622 80.3682964,130.970626 82.0447532,129.807922 C82.0979,129.771092 82.1445201,129.724938 82.1822823,129.672258 C87.3734244,122.428435 98.8526782,110.275988 117.411186,110.275988 C128.15664,110.275988 134.615381,112.591139 140.861069,114.829834 C148.946383,117.727736 156.602327,120.47319 172.209786,116.811652 C168.402327,119.489974 158.503959,124.427037 140.299297,121.019577 C134.278785,119.892305 127.283447,120.039158 119.509088,121.454076 C119.236827,121.503493 119.04009,121.741722 119.043354,122.018645 C119.046617,122.295102 119.248482,122.528668 119.521209,122.572025 C125.108155,123.462002 130.707689,124.829834 136.635894,126.277852 C138.542188,126.743587 140.464332,127.213517 142.405125,127.670859 C157.33939,131.192538 169.524471,127.335661 176.410718,124.0634 C156.960835,137.84615 133.852677,133.879251 133.59953,133.833097 C133.317479,133.781815 133.039624,133.951046 132.955708,134.22657 C132.872258,134.502561 133.008854,134.797199 133.27319,134.911419 C144.655008,139.837293 156.41305,138.136593 161.298364,137.068528 C152.65967,144.048481 143.96643,143.957572 143.868994,143.961768 C143.544052,143.944985 143.307223,144.193936 143.290906,144.499763 C143.275521,144.805591 143.504892,145.068528 143.810253,145.094169 C150.33939,145.637292 154.217712,144.791605 159.586942,143.620043 C162.99953,142.875521 166.867595,142.031232 172.355707,141.345451 C181.14545,140.247083 189.486709,142.38974 194.403259,144.098831 C192.793002,143.940789 191.194867,143.869926 189.627035,143.869926 C175.980881,143.868994 164.471325,149.238225 164.330066,149.305358 C164.096966,149.415847 163.968294,149.66946 164.015847,149.923073 C164.063865,150.17622 164.276453,150.365497 164.533795,150.383213 C170.790206,150.820043 175.095101,154.779483 177.183212,157.224705 C170.32214,154.470859 155.896033,153.81305 139.605591,155.645684 C121.93333,157.634495 107.042422,152.428901 99.6606036,147.367362 C92.6713264,142.574822 82.5589723,143.740789 80.1398581,144.106756 L77.2806507,133.485778 Z M117.411186,109.141722 C98.4144498,109.141722 86.6624687,121.502095 81.3174805,128.931932 C79.539392,130.169228 77.8867113,131.455475 76.2685296,132.861535 C76.1048932,133.003726 76.0363617,133.227502 76.092772,133.436827 L79.1780866,144.896966 C79.2545435,145.182747 79.5407906,145.361302 79.8289024,145.307222 C79.9459187,145.285311 91.5925385,143.210253 99.0191117,148.303027 C106.561769,153.474122 121.749181,158.796266 139.732864,156.772956 C157.856873,154.734262 173.556639,155.758504 178.796732,159.323073 C179.016779,159.472723 179.31235,159.449413 179.505823,159.26573 C179.699296,159.082514 179.738923,158.788807 179.600928,158.560835 C179.403725,158.234961 175.014914,151.130999 166.72214,149.528201 C171.647082,147.588807 185.364098,143.018178 199.053608,145.965498 C199.33193,146.024239 199.613049,145.868528 199.707687,145.599064 C199.802326,145.3296 199.68158,145.031698 199.426568,144.903959 C199.296499,144.839157 186.328667,138.456407 172.21538,140.220043 C166.675987,140.912351 162.780882,141.762234 159.344518,142.511885 C156.18228,143.202327 153.545451,143.777619 150.570626,144.012584 C154.310486,142.920276 159.147315,140.730533 163.857339,136.348715 C164.051744,136.168295 164.094168,135.87692 163.960369,135.648015 C163.826569,135.418178 163.551977,135.313283 163.29883,135.39347 C163.163632,135.43636 150.948248,139.221442 138.007456,135.417246 C146.896966,135.928668 166.910019,135.16037 182.590671,120.48065 C182.81165,120.273657 182.831231,119.930067 182.635427,119.699764 C182.440089,119.468528 182.096965,119.432165 181.857338,119.617246 C181.696033,119.741256 165.474588,131.947316 142.665264,126.566897 C140.727735,126.11002 138.808388,125.641023 136.905358,125.176221 C132.1296,124.009321 127.565964,122.894636 123.038692,122.036361 C129.351046,121.163633 135.07319,121.195335 140.090906,122.134263 C164.914681,126.780883 174.515613,116.479251 174.911884,116.038692 C175.07925,115.852212 175.104891,115.578086 174.973888,115.3641 C174.843818,115.150114 174.588341,115.046151 174.345916,115.110953 C157.429367,119.562701 149.928201,116.875055 141.243819,113.762235 C135.201861,111.596268 128.353377,109.141722 117.411186,109.141722 L117.411186,109.141722 Z" id="path28" fill="#B09247"></path>
                        <path d="M69.5356626,113.647083 C69.5356626,113.647083 73.0512802,110.018645 69.6498817,103.895568 L79.8550097,96.8634008 C79.8550097,96.8634008 82.6899746,105.936128 95.3911398,117.388808 L88.247084,126.573423 L79.8550097,124.419577 L69.5356626,113.647083" id="path30" fill="#401A64"></path>
                        <path d="M74.0051264,108.784146 L73.4470844,105.251279 C73.4470844,105.251279 76.9659654,104.676454 78.6396251,103.189275 C78.6396251,103.189275 82.646618,109.451279 86.5519792,113.542655 C86.5519792,113.542655 84.6923056,115.216314 84.5067578,117.262468 C84.5067578,117.262468 80.8060586,111.129135 74.0051264,108.784146" id="path32" fill="#FFFFFF"></path>
                        <path d="M126.134729,133.172025 C126.134729,133.172025 130.413983,133.600463 134.799997,135.954309 C139.186011,138.307223 149.348714,139.590673 151.380416,139.270393 C151.380416,139.270393 143.036826,141.088575 136.190206,137.772491 C129.343587,134.456407 126.027503,134.135195 126.027503,134.135195 L126.134729,133.172025" id="path34" fill="#FFFFFF"></path>
                        <path d="M125.839624,133.527736 C125.839624,133.527736 131.5296,134.544519 134.374356,136.170626 C137.220043,137.795801 145.75664,140.031698 151.854075,139.218645 C151.854075,139.218645 143.520742,141.454076 136.40699,138.608854 C129.294635,135.763633 126.855008,133.935195 124.009787,135.56037 L125.839624,133.527736" id="path36" fill="#B09247"></path>
                        <path d="M123.971559,123.885312 C123.971559,123.885312 138.919344,129.507223 152.760369,130.270859 C152.760369,130.270859 138.621908,131.034496 123.618645,125.033097 L123.971559,123.885312" id="path38" fill="#FFFFFF"></path>
                        <path d="M32.6986938,101.781816 L44.13226,109.646617 C43.5564092,106.661536 42.5222367,99.8806502 43.0634488,91.7682961 C43.0634488,91.7682961 45.2323532,104.88438 47.5622366,111.64755 L65.4778538,106.641023 C52.3505814,76.520744 51.6736584,45.8023765 52.0470849,33.3659199 C50.0778542,37.2544979 47.6111876,43.513239 45.5601853,53.0666653 C45.5601853,53.0666653 45.491887,43.5804651 48.6186468,33.6769689 C30.9038221,64.4899751 32.2552439,95.8578065 32.6986938,101.781816 Z M85.3906739,100.971093 C82.1799513,103.518412 47.5146841,113.509088 47.5146841,113.509088 L22.7256405,97.4890419 L21.0557104,96.612585 C22.9344983,46.0187401 61.8172479,8.45132846 61.8172479,8.45132846 C55.817248,51.3282038 85.7207438,100.710487 85.3906739,100.971093 L85.3906739,100.971093 Z" id="path40" fill="#231F20"></path>
                        <path d="M86.4747251,102.336594 L86.4727251,102.339594 L86.4747251,102.336594 Z M23.6055938,95.9841468 C23.6055938,95.9841468 46.529183,110.796734 47.793472,111.613051 C62.4349635,107.379951 78.4144503,102.361303 83.0857788,100.253611 C83.0214431,100.131932 82.8992986,99.8960348 82.8992986,99.8960348 C67.3160822,70.5636346 59.2689962,43.3930525 59.2689962,20.4489039 C59.2689962,18.0372023 59.3822829,15.6885777 59.5608377,13.3730533 C55.8755231,17.4634028 49.7426561,24.8042418 43.5624232,34.5738453 C34.7435889,48.5137517 24.0805122,70.3445204 22.8647547,95.593937 C23.1882045,95.763634 23.6055938,95.9841468 23.6055938,95.9841468 L23.6055938,95.9841468 Z M21.8447547,98.9962679 C21.7185542,98.9300675 19.2741254,97.6447528 19.2741254,97.6447528 L19.3139855,96.5463845 C20.2993934,70.0237745 31.4705353,47.1473182 40.6692298,32.6251274 C50.621444,16.9137991 60.2037281,7.58648 60.6060591,7.19804178 L64.2452198,3.6820745 L63.5440544,8.69226085 C63.0354297,12.3273657 62.7836814,16.1356173 62.7836814,20.0959902 C62.7836814,42.4652204 70.8149166,69.7174808 85.9780864,98.2596712 C86.7025619,99.6251723 87.1571074,100.48065 87.1571074,101.145452 C87.1571074,101.596734 86.9473172,101.961303 86.4727251,102.336594 C83.1561751,104.966431 53.8419567,113.50023 47.9990664,115.184146 L47.2363625,115.404193 C47.2363625,115.404193 21.975151,99.0815826 21.8447547,98.9962679 L21.8447547,98.9962679 Z" id="path42" fill="#B09247"></path>
                        <path d="M23.4599062,95.2545431 C24.758694,70.2172477 35.3609315,48.6181806 44.0504884,34.8825166 C49.5291363,26.2223303 54.9603716,19.4680648 58.8675976,15.020932 C58.7496489,16.9310951 58.69184,18.7197664 58.69184,20.4489039 C58.69184,43.3692297 66.8494156,70.8624691 82.286245,99.9720255 C76.8242405,102.279252 60.9039612,107.217247 47.8857797,110.985545 L23.8754773,95.4741235 L23.4599062,95.2545431 Z M60.2666652,11.7267596 L59.1319333,12.9864332 C55.1561758,17.3991138 49.1426561,24.6727267 43.0743579,34.265174 C34.268111,48.1855466 23.5132395,70.120278 22.2878316,95.565965 L22.2703491,95.9337971 L23.3136591,96.4834475 L47.7006981,112.241023 L47.9533788,112.167829 C61.5356628,108.241023 78.3972008,103.002328 83.3230748,100.779951 L83.8834478,100.52727 L83.4125853,99.6312329 C67.9944039,70.6102546 59.8466186,43.2317006 59.8466186,20.4489039 C59.8466186,18.2484844 59.9412572,15.9488108 60.1365952,13.4172957 L60.2666652,11.7267596 Z M19.8643352,97.3030279 L19.8910951,96.5668974 C20.8715612,70.1743572 31.9966426,47.395803 41.156922,32.9343115 C51.0899754,17.2532397 60.6065253,8.00009304 61.0069915,7.61398582 L63.4410241,5.26205115 L62.9720264,8.612121 C62.4638679,12.2446617 62.2060591,16.1081581 62.2060591,20.0959902 C62.2060591,42.7622367 70.2503479,69.8843805 85.4680631,98.5305337 C86.1389256,99.7944031 86.579485,100.625639 86.579485,101.145452 C86.579485,101.324939 86.5435876,101.54452 86.1146832,101.883447 C83.6055923,103.873191 63.9277373,109.993004 47.8391596,114.629368 L47.3286701,114.776687 C44.8397658,113.167829 22.3184144,98.6158484 22.1601859,98.512818 L22.1141253,98.4857784 L19.8643352,97.3030279 Z M65.0494156,2.10208853 L60.2051267,6.78321661 C59.8009309,7.17258723 50.1878775,16.5193469 40.1813976,32.3160831 C30.9449876,46.8974347 19.7270391,69.8741241 18.7370625,96.5249393 L18.6837291,97.9864777 L21.5528666,99.4951024 C22.4136591,100.052678 45.9076445,115.233097 46.9226095,115.889041 L47.1440548,116.031699 L48.1589732,115.738925 C56.391607,113.366431 83.511886,105.420976 86.8316995,102.789275 C87.4475503,102.302095 87.7342635,101.779951 87.7342635,101.145452 C87.7342635,100.337993 87.2666645,99.4564078 86.4913731,97.9958017 C71.3585064,69.508623 63.3613038,42.5739383 63.3613038,20.0959902 C63.3613038,16.1622374 63.6149168,12.3519344 64.1156161,8.77258719 L65.0494156,2.10208853 L65.0494156,2.10208853 Z" id="path44" fill="#B09247"></path>
                        <path d="M46.8410245,112.073657 C45.6462926,111.249881 45.9862926,111.484846 31.6003722,101.590207 L31.5380878,100.758039 C31.4472253,99.5393915 31.3184608,97.2834475 31.3184608,94.2004638 C31.3184608,81.9393919 33.3377148,56.610255 47.6853135,31.6522603 C47.6853135,31.6522603 49.7114207,32.5435423 50.3911409,32.8414444 C50.6149171,32.363216 50.8386934,31.8806519 51.0699288,31.4246612 L54.3664322,32.2658267 C54.0111875,44.0890898 54.5948704,74.8289026 67.6536114,104.788809 L68.4540775,106.625638 L47.0265723,112.612585 C47.0265723,112.612585 46.9244744,112.318878 46.8410245,112.073657" id="path46" fill="#231F20"></path>
                        <path d="M123.169694,124.386943 C123.169694,124.386943 135.455008,128.540323 142.203726,129.405125 C148.952444,130.270859 152.760369,130.270859 152.760369,130.270859 C152.760369,130.270859 138.224239,132.000929 123.342654,126.29044 L123.169694,124.386943" id="path48" fill="#B09247"></path>
                        <polyline id="path50" fill="#B09247" points="30.7061997 102.161303 47.2582739 113.324473 68.4293689 105.626571 52.6475511 28.6391135 43.0241015 40.572027 31.4763628 77.91142 30.7061997 102.161303"></polyline>
                        <path d="M47.4941713,42.6047076 C47.4941713,42.6047076 47.0839149,41.2330526 52.9641012,33.4923069 L51.9337982,30.48261 C51.9337982,30.48261 49.0158496,33.210209 47.4941713,42.6047076" id="path52" fill="#FFFFFF"></path>
                        <path d="M49.1846142,31.3780412 L33.6973884,68.0452197 L31.1953838,100.957107 L47.7473182,112.119345 C47.7473182,112.119345 43.7232157,105.278319 43.0634488,91.7682961 C41.5756167,61.2951034 49.1846142,31.3780412 49.1846142,31.3780412" id="path54" fill="#B09247"></path>
                        <path d="M32.1004654,100.782748 L34.4303488,102.898366 C34.4303488,102.898366 31.1241484,68.3473176 48.4666655,33.4726332 C48.4666655,33.4726332 30.3906286,62.2508143 32.1004654,100.782748" id="path56" fill="#FFFFFF"></path>
                        <path d="M82.7930049,127.733796 L80.3902078,124.566897 C88.3995316,118.52727 99.5785523,120.189274 99.5785523,120.189274 C86.7202776,122.133796 82.7930049,127.733796 82.7930049,127.733796 Z M109.569694,120.145452 L102.652678,116.995335 C102.712352,116.955708 102.770627,116.916547 102.832631,116.87692 C108.069927,113.515149 119.176221,114.236827 126.944519,115.178552 C134.712817,116.120277 143.555241,119.701629 143.555241,119.701629 C131.287176,116.304892 115.389741,118.96037 109.569694,120.145452 L109.569694,120.145452 Z M157.209786,146.536593 C170.413982,143.999996 176.850811,143.15291 176.850811,143.15291 C164.718411,144.972491 156.226103,150.129134 156.226103,150.129134 C164.463399,150.59953 170.626569,154.304425 170.626569,154.304425 C170.626569,154.304425 157.171558,150.537059 142.575754,151.948248 C127.981815,153.361302 117.913284,154.243819 103.143121,145.275521 C97.3972004,141.786477 94.526338,141.832164 91.3510467,141.153843 C94.4377599,140.539857 99.2694614,140.558971 105.428436,143.741721 C105.428436,143.741721 96.4797179,135.225171 86.7953358,132.599997 C86.8200444,132.4634 86.8494151,132.322607 86.8815829,132.179018 C88.2983661,131.557106 92.1734243,130.277852 97.2004638,132.055941 C97.2004638,132.055941 94.6242401,129.350113 88.9762216,127.285312 C93.8326317,124.775754 103.76037,122.195801 118.330533,130.63636 L117.012118,124.482981 C122.532398,126.563633 124.829368,129.330999 133.551978,131.135661 C138.569694,132.174356 151.309553,131.837293 151.309553,131.837293 C137.421908,134.662934 123.312351,131.235894 123.312351,131.235894 C132.749181,145.925404 152.868994,140.641488 152.868994,140.641488 C144.333796,144.70629 131.049414,143.45594 131.049414,143.45594 C131.049414,143.45594 141.665731,149.522607 157.209786,146.536593 L157.209786,146.536593 Z" id="path58" fill="#B09247"></path>
                        <path d="M62.4960357,128.877852 C62.4960357,128.877852 74.8097883,128.438691 80.6806507,132.534729 C80.6806507,132.534729 83.114217,130.048482 83.2568744,125.075521 C83.4013965,120.100696 82.6853126,117.467596 78.3897416,114.541722 C74.0946368,111.615848 72.5193455,111.324007 70.0853129,113.51748 C67.650348,115.712351 65.5030287,118.490906 65.0745904,121.270859 C64.6442874,124.051279 63.2125858,128.292304 62.4960357,128.877852" id="path60" fill="#411A64"></path>
                        <path d="M80.0661985,129.795801 C80.586012,128.796267 81.1636343,127.221908 81.2270376,125.013517 C81.2377602,124.648016 81.2433546,124.298831 81.2433546,123.965032 C81.2433546,120.251745 80.5081565,118.479251 77.2629351,116.268995 C73.1860122,113.492305 72.7780868,113.858738 71.429835,115.074123 C68.962236,117.298365 67.3771545,119.675055 67.0811172,121.594869 C66.9435881,122.477386 66.4428888,124.76037 65.7282035,126.830766 C69.4783199,126.972957 75.6247067,127.57016 80.0661985,129.795801 Z M79.5342637,134.249414 C75.1808839,131.211186 65.8093224,130.84009 62.566432,130.952444 C61.7286698,130.981349 61.4289029,131.363633 61.0983668,130.575754 C60.768763,129.788342 59.7729589,129.963633 60.3720265,129.364566 L61.2186465,127.668528 C61.6573411,127.060137 62.6703947,123.513284 63.0671313,120.947316 C63.6414903,117.2303 67.1104878,112.944519 69.3822826,110.897433 C73.1869446,107.46713 75.6065249,110.151979 79.5170143,112.815382 C84.5958021,116.274589 85.4456855,119.678785 85.288576,125.135661 C85.123541,130.86713 82.239625,133.877386 82.1165481,134.002794 C81.425639,134.707689 80.3412567,134.812118 79.5342637,134.249414 L79.5342637,134.249414 Z" id="path62" fill="#411A64"></path>
                        <path d="M110.90023,124.342654 C110.90023,124.342654 103.186478,122.604193 97.6773868,122.604193 C97.6773868,122.604193 102.634496,121.300696 107.317946,121.517013 L110.90023,124.342654" id="path64" fill="#A4965F"></path>
                        <path d="M62.1706278,128.159904 C62.1706278,128.159904 74.7505809,127.721209 80.7477835,131.815848 C80.7477835,131.815848 83.2358954,129.329134 83.3818161,124.356174 C83.5286692,119.382281 82.7967345,116.749647 78.409322,113.823307 C74.0200448,110.897899 72.411187,110.605125 69.9235414,112.799531 C67.4372944,114.993937 65.2428888,117.773424 64.8041942,120.552911 C64.3650334,123.33333 62.9020963,127.574356 62.1706278,128.159904" id="path66" fill="#FFFFFF"></path>
                        <path d="M81.5254059,130.949647 C81.0107206,131.813517 80.8354292,131.891838 80.8354292,131.891838 C74.836828,127.795335 62.310488,128.229367 62.310488,128.229367 C62.4228423,128.139857 62.5538446,127.955242 62.6941709,127.711419 C65.4298352,127.601395 72.811187,127.028435 81.5254059,130.949647" id="path68" fill="#B09247"></path>
                        <path d="M83.5379932,124.320743 C83.3985993,129.004193 81.1729583,131.492771 80.8941705,131.786943 C81.7188791,130.601395 82.8032613,128.482048 82.9030282,125.417246 C83.0680632,120.419111 82.486245,117.207456 77.5752894,114.267596 C74.071793,112.17016 72.2927721,111.806058 70.4685297,112.348715 C72.8755227,110.343121 74.1645669,110.881582 78.4918395,113.737992 C82.9445201,116.677853 83.6867112,119.323074 83.5379932,124.320743" id="path70" fill="#B09247"></path>
                        <path d="M69.4498817,115.374356 C69.4498817,115.374356 70.5510472,113.515615 72.2237744,113.572491 C73.3967348,113.611186 74.3487161,114.842421 74.7944037,115.845685 C74.7944037,115.845685 73.3543105,115.096034 72.183215,114.984146 C71.0167814,114.873191 69.4498817,115.374356 69.4498817,115.374356" id="path72" fill="#411A64"></path>
                        <path d="M68.5011638,116.137526 C68.5011638,116.137526 69.5766882,116.736128 70.2466183,116.736128 C70.9160821,116.736128 71.7370611,116.360836 72.4610704,116.64009 C73.1869446,116.918412 75.9198116,117.198132 75.9198116,117.198132 C75.9198116,117.198132 75.1393921,117.643354 74.4139842,117.922608 C73.6885762,118.201396 73.1869446,118.369694 72.5734248,117.978086 C71.959905,117.587876 71.5137511,117.811186 71.0675973,117.978086 C70.6214435,118.145452 69.1151498,117.64382 68.5011638,116.137526" id="path74" fill="#411A64"></path>
                        <path d="M68.6135181,120.097899 C68.6135181,120.097899 69.8400915,119.149647 70.9561754,119.316547 C72.0717931,119.484845 72.6848467,120.935195 72.6848467,120.935195 C72.6848467,120.935195 71.0675973,119.595335 68.6135181,120.097899" id="path76" fill="#411A64"></path>
                        <path d="M72.0778537,124.112817 C72.0778537,124.112817 72.2447534,126.847083 73.248483,127.293237 C74.2526788,127.739391 78.4918395,128.855475 79.997667,130.806524 C79.997667,130.806524 79.4400913,127.906757 77.4876438,127.070393 C75.5361286,126.233097 72.8032616,125.619577 72.0778537,124.112817" id="path78" fill="#411A64"></path>
                        <path d="M47.5622366,111.219578 L50.0298356,110.69044 C50.0298356,110.69044 45.9482506,105.068995 43.0634488,91.3412565 C43.0634488,91.3412565 44.6204651,103.786944 47.5622366,111.219578" id="path80" fill="#FFFFFF"></path>
                        <path d="M68.6638677,123.218645 C68.6638677,123.218645 68.5058258,125.769228 67.5589727,126.186477 C66.6121195,126.601862 62.6121196,127.642887 61.1911407,129.464799 C61.1911407,129.464799 61.717481,126.757106 63.559439,125.977619 C65.401397,125.196733 67.9790193,124.624239 68.6638677,123.218645" id="path82" fill="#411A64"></path>
                        <path d="M32.6992066,101.354776 L44.13226,109.219111 C43.5564092,106.23403 42.522936,99.454543 43.0634488,91.3412565 C43.0634488,91.3412565 45.2327261,104.456874 47.5622366,111.219578 L65.47832,106.213517 C52.3505814,76.0937044 51.6736584,45.3753369 52.0475511,32.9406985 C49.5212109,36.3752905 48.7501153,38.174358 47.4009312,42.67226 C47.4009312,42.67226 47.2727261,38.8172018 48.6186468,33.2499292 C30.9038221,64.0629355 32.2552439,95.431233 32.6992066,101.354776 Z M85.3906739,100.543587 C82.1799513,103.091373 47.5146841,113.082048 47.5146841,113.082048 L22.7256405,97.0620022 L21.0557104,96.184613 C22.9344983,45.5916539 61.8172479,8.02340306 61.8172479,8.02340306 C55.8177142,50.900698 85.7207438,100.282981 85.3906739,100.543587 L85.3906739,100.543587 Z" id="path84" fill="#411A64"></path>
                        <path d="M106.943587,137.35664 C106.943587,137.35664 114.960836,137.734728 120.638692,142.195334 C120.638692,142.195334 117.923074,133.23636 100.862002,130.868062 L106.943587,137.35664" id="path86" fill="#401A64"></path>
                        <path d="M79.6904409,99.4666642 C79.6904409,99.4666642 55.1510476,57.894171 56.5944042,17.7646149 C56.5944042,17.7646149 58.9039612,63.0909075 81.7109537,98.6004637 L79.6904409,99.4666642" id="path88" fill="#FFFFFF"></path>
                        <path d="M23.5005122,95.1743566 L26.2702091,97.0209766 C26.2702091,97.0209766 23.5276451,65.3291359 54.7109543,18.9016778 C54.7109543,18.9016778 28.8554305,49.0055932 23.5005122,95.1743566" id="path90" fill="#B09247"></path>
                        <path d="M80.3016297,99.487177 C80.3016297,99.487177 55.2699287,62.0815835 57.0606046,16.4816313 C57.0606046,16.4816313 48.4270384,47.6899755 76.3170144,101.146384 L80.3016297,99.487177" id="path92" fill="#B09247"></path>
                        <path d="M76.1016298,101.741256 L75.9039608,101.362235 C61.4615369,73.681117 56.9813506,52.0671316 55.765966,38.8106284 C54.4452201,24.407039 56.5221431,16.6792537 56.6111874,16.357622 L57.5263389,16.4998597 C56.6051268,39.9632158 62.9487164,61.2023295 68.4330985,74.8876438 C74.3799515,89.7282029 80.6265714,99.1347295 80.6890423,99.2279695 L81.00466,99.6992982 L80.4806507,99.91748 L76.4965016,101.577154 L76.1016298,101.741256 Z M76.3170144,101.146384 L80.3016297,99.487177 C80.3016297,99.487177 55.2699287,62.0815835 57.0606046,16.4816313 C57.0606046,16.4816313 48.4270384,47.6899755 76.3170144,101.146384 L76.3170144,101.146384 Z" id="path94" fill="#B09247"></path>
                        <path d="M22.4055006,94.6368275 L24.9546381,96.40093 C24.9546381,96.40093 22.0132395,64.2372944 55.9426559,17.1672723 C55.9426559,17.1672723 27.3087639,49.3314673 22.4055006,94.6368275" id="path96" fill="#FFFFFF"></path>
                        <path d="M80.7678301,149.275521 C81.9375271,152.898831 84.8559419,156.784145 90.0512798,159.346383 C95.2111864,161.89277 95.7445198,167.341721 95.7445198,167.341721 C95.7445198,167.341721 98.5734241,156.033563 94.6531445,153.668528 C94.6531445,153.668528 96.3738904,150.271791 91.2275035,146.786477 C91.2275035,146.786477 91.103028,143.534728 87.2228416,142.949647 C87.2228416,142.949647 85.7365946,138.692304 84.9930049,137.542654 C84.2494151,136.394402 83.9123522,130.109554 84.5198114,126.662468 L83.5067578,125.446151 C83.5067578,125.446151 82.7627019,130.920276 80.599998,132.542188 C80.599998,132.542188 70.7323992,127.744519 60.3249402,129.501628 C60.3249402,129.501628 57.7566419,130.920743 58.9048936,135.448948 C58.9048936,135.448948 55.4778541,145.381815 65.866665,152.885311 C73.1650331,158.156639 72.0167814,162.414448 72.0167814,162.414448 C72.0167814,162.414448 75.0582732,157.953842 72.1519795,153.223306 C72.1519795,153.223306 73.9766881,149.033097 71.3407908,146.667595 C71.3407908,146.667595 76.476455,147.815847 80.1944036,145.112817 C80.1944036,145.112817 80.0694619,147.110486 80.7678301,149.275521" id="path98" fill="#401A64"></path>
                        <path d="M60.6853132,133.76643 C60.6853132,133.76643 59.6689962,132.168761 61.122143,130.425172 C61.122143,130.425172 72.5165483,128.618179 82.3967345,134.721675 L84.4750562,128.160836 C84.4750562,128.160836 83.3435877,136.232164 84.6508137,138.411652 C85.9594384,140.591139 85.8223755,143.35664 85.8223755,143.35664 C85.8223755,143.35664 87.1440538,143.558505 88.5976668,145.15664 L85.2494151,145.528668 C85.2494151,145.528668 91.9212098,148.201861 92.503028,151.108155 L89.5272705,150.550113 C89.5272705,150.550113 95.8974335,155.524005 94.7342634,161.336593 C94.7342634,161.336593 92.7981329,158.322607 89.8909068,156.724472 C86.9850794,155.12587 83.1976669,151.513749 82.7715597,147.715614 C81.7920725,138.990673 80.7370609,137.39953 80.7370609,137.39953 C80.7370609,137.39953 74.9249399,133.186011 60.6853132,133.76643" id="path100" fill="#B09247"></path>
                        <path d="M63.5216767,136.644752 C63.5216767,136.644752 67.8722594,136.447083 70.8391591,137.237759 C70.8391591,137.237759 67.4773876,141.984612 74.3999981,144.357572 C74.3999981,144.357572 66.0927722,145.345917 63.5216767,136.644752" id="path102" fill="#B09247"></path>
                        <path d="M63.4442875,132.11375 C63.4442875,131.691372 63.1025625,131.349181 62.6806511,131.349181 C62.2596721,131.349181 61.917481,131.691372 61.917481,132.11375 C61.917481,132.534729 62.2596721,132.875987 62.6806511,132.875987 C63.1025625,132.875987 63.4442875,132.534729 63.4442875,132.11375" id="path104" fill="#411A64"></path>
                        <path d="M69.0261055,132.0303 C69.0261055,131.609787 68.6848468,131.268062 68.2634016,131.268062 C67.8424225,131.268062 67.5002314,131.609787 67.5002314,132.0303 C67.5002314,132.452211 67.8424225,132.793936 68.2634016,132.793936 C68.6848468,132.793936 69.0261055,132.452211 69.0261055,132.0303" id="path106" fill="#411A64"></path>
                        <path d="M74.7766881,132.948715 C74.7766881,132.526337 74.434497,132.185544 74.013518,132.185544 C73.5920728,132.185544 73.2498816,132.526337 73.2498816,132.948715 C73.2498816,133.369694 73.5920728,133.711885 74.013518,133.711885 C74.434497,133.711885 74.7766881,133.369694 74.7766881,132.948715" id="path108" fill="#411A64"></path>
                        <path d="M80.3249397,134.891372 C80.3249397,134.469927 79.9841472,134.128202 79.562702,134.128202 C79.1403244,134.128202 78.7990656,134.469927 78.7990656,134.891372 C78.7990656,135.312817 79.1403244,135.654076 79.562702,135.654076 C79.9841472,135.654076 80.3249397,135.312817 80.3249397,134.891372" id="path110" fill="#411A64"></path>
                        <path d="M60.8167817,138.973423 C60.8167817,138.973423 58.5072246,142.598132 62.8540777,147.379017 C65.8265718,150.647549 70.5804178,153.112817 71.5892756,156.647549 C71.5892756,156.647549 71.2522127,151.934728 67.8867116,149.746383 L70.9160821,150.924938 C70.9160821,150.924938 71.980884,148.465264 68.5044272,147.161302 C65.5426557,146.050812 61.4904414,143.181815 60.8167817,138.973423" id="path112" fill="#B09247"></path>
                        <path d="M74.9557091,137.794868 C74.9557091,137.794868 78.1538442,138.131931 78.9962684,139.647083 C79.8382264,141.161768 80.0065248,143.687176 80.0065248,143.687176 C80.0065248,143.687176 75.9664317,138.131931 74.9557091,137.794868" id="path114" fill="#B09247"></path>
                        <path d="M87.4149162,139.3627 C87.4149162,139.3627 86.8475503,137.282514 86.0913731,136.148715 C86.0913731,136.148715 91.5734243,135.770626 97.054543,139.550579 C97.054543,139.550579 90.249415,137.661069 87.4149162,139.3627" id="path116" fill="#B09247"></path>
                        <path d="M86.0913731,130.479251 C86.0913731,130.479251 89.4932379,129.156174 91.7617693,129.911885 C91.7617693,129.911885 88.7379931,128.399531 86.8475503,128.210719 L86.0913731,130.479251" id="path118" fill="#B09247"></path>
                        <path d="M60.9510474,138.445218 C60.9510474,138.445218 61.6102549,142.331465 64.6400916,144.439157 C67.6699284,146.546849 72.3459189,146.941721 71.1608374,150.959903 L68.2624692,150.037292 C68.2624692,150.037292 71.4237744,152.145451 71.6876439,156.887642 C71.6876439,156.887642 70.9631684,152.540323 66.2867116,148.851745 L70.5020961,150.037292 C70.5020961,150.037292 71.0946369,148.654076 68.6578071,147.534728 C66.2205112,146.414449 60.6223761,143.84615 60.9510474,138.445218" id="path120" fill="#FFFFFF"></path>
                        <path d="M82.7510469,147.620509 C83.1771541,151.418644 86.9641004,155.030765 89.8708602,156.629367 C92.7771539,158.227968 94.7146829,161.241488 94.7146829,161.241488 C94.7146829,161.241488 93.6675967,158.090439 92.0508135,156.754775 C90.4335642,155.419577 88.5361283,154.927735 86.3566412,152.185544 C84.1780865,149.444285 83.7557089,149.303493 83.1230748,146.913749 C82.4904408,144.524472 81.7715597,138.8965 82.7510469,147.620509" id="path122" fill="#FFFFFF"></path>
                        <path d="M64.4559424,139.165498 C67.7002314,145.21305 74.3384597,144.42284 74.3384597,144.42284 C73.4666648,144.124006 72.7575739,143.787409 72.1846136,143.427502 C72.1846136,143.427502 71.4545437,143.399064 68.9235414,142.555707 C66.3934715,141.711885 64.4559424,139.165498 64.4559424,139.165498" id="path124" fill="#FFFFFF"></path>
                        <path d="M63.0899751,132.362701 C63.0899751,132.09044 62.8531453,131.871325 62.5622362,131.871325 C62.2708609,131.871325 62.0349635,132.09044 62.0349635,132.362701 C62.0349635,132.634496 62.2708609,132.855008 62.5622362,132.855008 C62.8531453,132.855008 63.0899751,132.634496 63.0899751,132.362701" id="path126" fill="#FFFFFF"></path>
                        <path d="M68.6773876,132.231698 C68.6773876,131.959903 68.4410239,131.740323 68.1496486,131.740323 C67.8582734,131.740323 67.6223759,131.959903 67.6223759,132.231698 C67.6223759,132.503027 67.8582734,132.724006 68.1496486,132.724006 C68.4410239,132.724006 68.6773876,132.503027 68.6773876,132.231698" id="path128" fill="#FFFFFF"></path>
                        <path d="M74.44149,133.145917 C74.44149,132.873656 74.2051263,132.65361 73.9137511,132.65361 C73.6223758,132.65361 73.3869446,132.873656 73.3869446,133.145917 C73.3869446,133.417246 73.6223758,133.638225 73.9137511,133.638225 C74.2051263,133.638225 74.44149,133.417246 74.44149,133.145917" id="path130" fill="#FFFFFF"></path>
                        <path d="M79.8536111,135.043819 C79.8536111,134.772025 79.6172474,134.551978 79.3263383,134.551978 C79.0349631,134.551978 78.7990656,134.772025 78.7990656,135.043819 C78.7990656,135.315614 79.0349631,135.535661 79.3263383,135.535661 C79.6172474,135.535661 79.8536111,135.315614 79.8536111,135.043819" id="path132" fill="#FFFFFF"></path>
                        <path d="M80.8946367,137.703027 C80.8946367,137.703027 75.1701613,133.22284 60.9296022,133.803726 C60.9296022,133.803726 60.3897421,133.831232 60.4167817,132.992537 C60.4167817,132.992537 71.634497,132.134729 81.1944036,136.633563 L80.8946367,137.703027" id="path134" fill="#FFFFFF"></path>
                        <path d="M161.683912,194.439156 L154.171558,183.965497 L153.79953,182.109553 L149.648947,186.770625 C149.482514,186.776685 149.313749,186.782746 149.151045,186.802793 C149.151045,186.802793 150.336593,183.50256 147.290905,179.237292 L147.280183,179.247082 L142.877852,174.537059 L142.697432,174.728667 C142.334728,175.121208 141.550579,174.984145 140.950579,174.424238 C140.348248,173.864798 140.157106,173.093236 140.520742,172.702094 L140.841488,172.357571 L113.941722,143.573889 L113.728668,143.802794 C113.3641,144.194402 112.582282,144.057805 111.980883,143.497899 C111.379951,142.937992 111.18741,142.166896 111.551979,141.775288 L111.905825,141.395334 L45.5270385,70.366898 L45.3869919,70.5170146 C45.0222366,70.9090891 44.240232,70.77156 43.6389266,70.2116533 C43.0377612,69.6536113 42.8454535,68.8820496 43.2100222,68.489975 L43.4910479,68.1878771 L32.474498,56.3986 L32.093892,56.6871781 C32.093892,56.6871781 30.9916076,55.6368284 29.1444282,54.4969683 C29.1958035,54.3701618 29.2468058,54.2470849 29.2978081,54.1226094 L28.3887172,53.5771548 L23.5731929,51.237761 L5.55487166,31.0931927 C17.7800928,40.0582741 28.6640552,38.4456867 28.6640552,38.4456867 C26.1873653,46.6992995 30.6207918,50.9790197 30.6207918,50.9790197 C30.710209,51.1132854 30.7979946,51.2452202 30.8923535,51.3794859 L45.0422366,66.5216767 L45.2502087,66.3006976 C45.6146376,65.9086231 46.3967821,66.0452198 46.998134,66.6051265 C47.5986002,67.1650333 47.791141,67.9361288 47.4265722,68.3268048 L47.0783205,68.7002314 L113.459205,139.728668 L113.591606,139.58601 C113.956641,139.194402 114.738459,139.330533 115.339857,139.890906 C115.94079,140.450346 116.132864,141.221908 115.768762,141.613516 L115.493237,141.907689 L142.394402,170.692303 L142.561302,170.512816 C142.924938,170.121208 143.708621,170.257338 144.309554,170.818178 C144.91002,171.376686 145.10256,172.148714 144.737526,172.539856 L144.429833,172.870392 L146.676453,175.273655 C147.930066,176.338923 152.158504,179.533329 156.484378,178.404191 L157.354775,178.117478 C157.354775,178.117478 156.181814,185.084844 161.683912,194.439156" id="path136" fill="#411A64"></path>
                        <path d="M165.80932,199.216312 L165.794401,199.286242 C165.794401,199.286242 154.46946,187.705823 147.67319,188.521674 C147.67319,188.521674 148.858738,185.221441 145.813982,180.957105 L145.802327,180.966429 L141.400929,176.256406 L141.220509,176.44848 C140.856407,176.840555 140.07319,176.703958 139.472724,176.144052 C138.871325,175.584145 138.679251,174.812583 139.043353,174.421907 L139.363633,174.077385 L112.464333,145.293703 L112.250813,145.521675 C111.887177,145.914215 111.10396,145.777153 110.503028,145.216313 C109.902095,144.657339 109.709088,143.88671 110.073191,143.494635 L110.428435,143.114682 L44.0493695,72.0862453 L43.9093229,72.236828 C43.5447542,72.6293688 42.7620502,72.4909073 42.1612577,71.9319329 C41.5592064,71.3710938 41.3678311,70.5999982 41.7315141,70.2088561 L42.0134255,69.9072244 L30.9974351,58.1198121 C30.9974351,58.1198121 22.6662465,50.237761 13.8164565,53.3911409 C13.8164565,53.3911409 16.372214,42.4364558 0.144594868,26.7730063 L0.227819109,26.8433094 C0.227819109,26.8433094 17.9284844,41.9413043 26.7384142,40.7011179 C26.7384142,40.7011179 24.849743,46.6209779 29.4143582,53.098367 L43.5649873,68.2419563 L43.7723998,68.0195787 C44.1360828,67.6275041 44.9196725,67.7650333 45.5202786,68.3258724 C46.1210711,68.885313 46.3130058,69.6564085 45.94881,70.0461521 L45.6004184,70.4200449 L111.980417,141.448481 L112.114683,141.305358 C112.478785,140.913749 113.261069,141.050812 113.862002,141.610719 C114.462934,142.17016 114.655475,142.941255 114.29044,143.332397 L114.016314,143.627036 L140.917013,172.411651 L141.083446,172.232164 C141.448015,171.840555 142.230766,171.977152 142.832164,172.537525 C143.431698,173.096965 143.624705,173.868061 143.260136,174.260136 L142.952444,174.589739 L145.198132,176.993003 C146.553842,178.142653 151.377619,181.782746 156.048947,179.770159 C156.048947,179.770159 154.77249,188.165963 165.80932,199.216312" id="path138" fill="#B09247"></path>
                        <path d="M165.666196,199.143585 C155.103026,188.184611 156.139856,179.713748 156.139856,179.713748 C151.468994,181.72587 146.410253,178.071324 145.054076,176.920741 L142.807922,174.517944 L143.115614,174.186476 C143.480183,173.795334 143.288108,173.024704 142.687176,172.464798 C142.08671,171.905357 141.303493,171.76876 140.93939,172.159436 L140.772491,172.33939 L113.871792,143.555241 L114.14685,143.261069 C114.510487,142.868528 114.318412,142.097432 113.71748,141.537992 C113.116547,140.978085 112.334263,140.841488 111.969694,141.233097 L111.835428,141.37622 L45.4563625,70.34825 L45.8047541,69.973891 C46.1689499,69.5846136 45.9762692,68.8116533 45.3758963,68.2536113 C44.7751038,67.6927722 43.9916539,67.5571079 43.6279709,67.9468514 L43.5110945,68.0778538 L29.3602324,52.9365954 C24.7051742,46.549183 27.0343583,40.4838685 27.0343583,40.4838685 C16.3680182,41.658274 0.0837706273,26.7706287 0.0837706273,26.7706287 L0,26.7021905 C0,26.7021905 15.1156173,42.4364558 25.2263397,41.658274 C25.2263397,41.658274 23.6933794,48.1999988 28.4710016,53.2013973 C33.2486705,58.2004647 42.9153835,68.8661987 42.9153835,68.8661987 C42.9153835,68.8661987 45.248204,67.9776207 44.9155234,70.8671311 L111.248016,142.088575 C111.248016,142.088575 113.914682,141.310486 113.13706,143.977619 L140.248481,172.977618 C140.248481,172.977618 142.914216,172.421907 142.248015,175.088574 C142.248015,175.088574 145.803726,181.977152 154.802793,181.310485 C154.802793,181.310485 154.750113,189.75524 165.666196,199.143585" id="path140" fill="#FFFFFF"></path>
                        <path d="M148.530532,181.743119 C148.530532,181.743119 151.34312,183.103492 153.099297,182.480648 C153.099297,182.480648 153.039623,185.751977 156.243819,189.519343 C156.243819,189.519343 153.248481,186.301627 150.194868,186.245217 C150.194868,186.245217 150.048015,183.674587 148.530532,181.743119" id="path142" fill="#FFFFFF"></path>
                        <path d="M26.4969224,52.5832155 C26.4969224,52.5832155 21.9777151,48.7282039 16.8407455,50.3925395 C16.8407455,50.3925395 17.9237758,45.3463858 11.3915149,37.9445212 C11.3915149,37.9445212 17.7327268,43.8545444 23.8282978,43.8545444 C23.8282978,43.8545444 22.1811183,47.1473182 26.4969224,52.5832155" id="path144" fill="#FFFFFF"></path>
                        <path d="M131.72354,170.064331 C128.704892,167.421441 124.534263,163.29277 122.877386,160.466663 C120.930533,157.144984 124.681582,150.621908 124.681582,150.621908 C118.265731,144.394868 110.529135,124.771559 110.529135,124.771559 C101.283447,120.431699 94.0358951,117.753843 94.0358951,117.753843 C89.3310001,105.431699 90.6526784,97.8130512 92.4009301,93.7370606 C91.7999977,92.8792518 91.0685292,91.7184126 90.1780863,90.1501143 C89.8965012,89.6536108 89.6298346,89.1752891 89.3668975,88.7034943 C75.3902079,68.9682966 72.1044271,51.5421899 72.4983665,38.7131925 C70.966898,40.4428894 68.9212104,36.4998592 68.2335647,33.846153 C64.610721,19.8932862 67.2652664,0.101617247 67.2652664,0.101617247 C67.7030286,23.2102092 71.9650332,28.1991135 71.9650332,28.1991135 C73.6573408,20.8830298 76.7002312,17.3277385 77.6321659,16.3762234 C77.7240074,16.1999064 77.7771542,16.1039623 77.7771542,16.1039623 C77.7519794,16.1691371 77.7305342,16.2344984 77.706758,16.2993469 C77.8386927,16.1678784 77.9174806,16.0979483 77.9174806,16.0979483 C74.6083897,25.779067 74.0890424,34.0820038 74.2657324,39.4811645 C76.2303011,69.741257 101.454543,93.5156154 102.84755,94.805592 C102.988809,94.8853123 103.070394,94.931 103.070394,94.931 C102.30396,95.8689953 101.619112,96.8223752 101.002795,97.7776199 C108.529601,105.846151 119.441023,115.013051 120.97016,116.125405 C123.046617,117.63403 124.115615,119.865265 124.681582,125.149181 C125.247083,130.432165 133.981349,150.056407 134.73706,151.753842 C135.490906,153.452211 136.623773,163.264332 137.18974,167.604192 C137.756174,171.944518 134.742654,172.704891 131.72354,170.064331" id="path146" fill="#401A64"></path>
                        <path d="M124.53706,159.428434 C124.53706,159.428434 127.106291,162.801395 129.835894,165.530998 C132.564565,168.259669 134.812584,169.544518 134.651745,166.172024 C134.491838,162.800928 133.689507,155.093236 132.083447,151.721675 C130.477852,148.350113 124.858272,135.986477 123.895102,131.972957 C122.931465,127.959437 121.325871,122.82051 121.165032,122.018179 C121.005125,121.215848 117.151512,118.004659 113.459205,115.75664 C109.765965,113.508622 96.0237738,100.455942 96.0237738,100.455942 C96.0237738,100.455942 92.9151492,108.298832 96.6494148,112.194869 C99.7212096,115.400463 106.875522,120.785079 109.605125,122.2303 C112.334729,123.675521 113.779484,124.959904 113.779484,124.959904 C113.779484,124.959904 119.238692,142.248947 126.784612,151.401395 C126.784612,151.401395 123.57389,157.502094 124.53706,159.428434" id="path148" fill="#FFFFFF"></path>
                        <path d="M134.505358,167.717478 C134.172957,163.740322 133.355241,157.700695 131.954775,154.777152 C130.270393,151.261068 124.372025,138.367829 123.361768,134.181349 C122.351046,129.996267 120.665731,124.637293 120.496967,123.800463 C120.328668,122.963633 116.285312,119.614449 112.409321,117.269927 C109.347783,115.418179 99.6135173,106.339857 95.370627,102.394869 C95.6703939,100.738925 96.1487155,100.053144 96.1487155,100.053144 C96.1487155,100.053144 109.895102,113.222841 113.611186,115.469927 C117.327736,117.718412 121.205125,120.929135 121.366897,121.732864 C121.528668,122.534729 123.144519,127.67319 124.114216,131.68671 C125.082981,135.701162 130.738924,148.063866 132.353843,151.435427 C133.969227,154.807922 134.777619,162.515147 134.938458,165.885777 C134.985544,166.868993 134.82284,167.445683 134.505358,167.717478" id="path150" fill="#B09247"></path>
                        <path d="M25.2267127,54.2265721 L16.0689973,42.8838684 L25.0411649,49.18881 L27.3455937,52.0992994 C27.3455937,52.0992994 26.8602324,54.5533786 25.2267127,54.2265721" id="path152" fill="#B09247"></path>
                        <path d="M68.5850799,23.7496498 C68.5850799,23.7496498 68.9720262,45.7306282 73.2121194,31.2862463 C73.2121194,31.2862463 70.1254062,36.0740784 68.5850799,23.7496498" id="path154" fill="#B09247"></path>
                        <path d="M93.4965012,106.739391 C93.4965012,106.739391 91.7561749,101.088576 95.6689953,96.3086223 L104.796734,105.000464 L98.9291351,97.3934708 L100.233098,95.0041934 C100.233098,95.0041934 92.7696947,89.030767 85.3524454,78.2643337 L94.582282,93.6997646 C94.582282,93.6997646 89.8023288,98.698832 93.4965012,106.739391" id="path156" fill="#B09247"></path>
                        <path d="M68.3920729,22.977109 C68.3920729,22.977109 70.0969679,33.4316542 73.3780867,30.6969223 C73.3780867,30.6969223 70.5067581,43.686246 68.3920729,22.977109" id="path158" fill="#FFFFFF"></path>
                        <path d="M99.5333308,96.2717925 L100.233098,95.0041934 C100.233098,95.0041934 90.5062914,85.8699279 85.7958021,79.0004642 C85.7958021,79.0004642 92.6652657,89.9906737 99.5333308,96.2717925" id="path160" fill="#FFFFFF"></path>
                        <path d="M147.623306,119.77016 C147.623306,119.77016 138.728668,111.056407 114.148715,112.018179 C114.148715,112.018179 135.371092,108.572491 147.623306,119.77016" id="path162" fill="#FFFFFF"></path>
                        <path d="M147.434961,119.958039 C147.434961,119.958039 139.391605,116.108622 132.94685,114.789275 C126.503493,113.468062 117.565498,112.25361 109.575289,113.054543 C109.575289,113.054543 119.389741,110.375289 133.311885,113.468995 C143.386943,115.708156 147.434961,119.958039 147.434961,119.958039" id="path164" fill="#B09247"></path>
                    </g>
                </g>
            </g>
        </g>
    </g>
</svg>