<?xml version="1.0" encoding="UTF-8"?>
<svg width="200px" height="200px" viewBox="0 0 200 200" version="1.1" xmlns="http://www.w3.org/2000/svg" xmlns:xlink="http://www.w3.org/1999/xlink">
    <!-- Generator: Sketch 54.1 (76490) - https://sketchapp.com -->
    <title>cornell-college</title>
    <desc>Created with Sketch.</desc>
    <g id="cornell-college" stroke="none" stroke-width="1" fill="none" fill-rule="evenodd">
        <g id="cornell-college_BGL">
            <g id="cornell-college" transform="translate(27.000000, 0.000000)">
                <path d="M37.8904665,0 L108.11359,0 L108.438134,0.283975659 L108.640974,0.486815416 C121.054767,12.0081136 133.6714,23.6105477 146.004057,35.1724138 L146.004057,80.6490872 C125.436105,80.6490872 104.827586,80.6490872 84.2596349,80.6490872 C84.2190669,72.0081136 84.2596349,63.36714 84.2596349,54.6855984 C76.7545639,54.6450304 69.2494929,54.6450304 61.7444219,54.6855984 C61.7444219,84.9087221 61.7444219,115.091278 61.7444219,145.314402 C69.2494929,145.35497 76.7545639,145.35497 84.2596349,145.314402 C84.2596349,136.673428 84.2190669,128.032454 84.2596349,119.350913 C104.827586,119.350913 125.436105,119.350913 146.004057,119.350913 L146.004057,164.787018 C145.760649,165.070994 145.517241,165.314402 145.273834,165.557809 C132.860041,176.997972 120.486815,188.51927 108.11359,199.959432 L37.9310345,199.959432 C25.5983773,188.600406 13.2657201,177.119675 0.93306288,165.760649 C0.60851927,165.436105 0.283975659,165.15213 0,164.827586 L0,35.2129817 C0.60851927,34.4827586 1.29817444,33.8742394 2.02839757,33.2657201 C13.9553753,22.1906694 25.9634888,11.0750507 37.8904665,0 Z" id="Shape" fill="#000000" fill-rule="nonzero"></path>
                <path d="M40.1622718,5.67951318 C62.0689655,5.63894523 84.0162272,5.67951318 105.922921,5.67951318 C116.795132,15.7809331 127.667343,25.841785 138.539554,35.9026369 C139.148073,36.4705882 139.918864,36.9979716 140.365112,37.6876268 C140.40568,50.0608519 140.365112,62.5557809 140.365112,74.9290061 C123.56998,74.9290061 106.774848,74.9290061 89.979716,74.9290061 C89.9391481,66.2880325 89.979716,57.6470588 89.979716,48.9655172 C78.7018256,48.9249493 67.3833671,48.9249493 56.1054767,48.9655172 C56.1054767,82.9614604 56.1054767,116.957404 56.1054767,150.953347 C67.3833671,150.993915 78.7018256,150.993915 89.979716,150.953347 C89.979716,142.312373 89.9391481,133.6714 89.979716,124.989858 C106.774848,124.989858 123.56998,124.989858 140.365112,124.989858 C140.365112,136.8357 140.365112,148.72211 140.365112,160.608519 C140.324544,161.217039 140.446247,161.906694 140.243408,162.434077 C128.884381,172.981744 117.200811,183.732252 105.882353,194.279919 C83.9756592,194.279919 62.0283976,194.279919 40.1217039,194.279919 C28.8032454,183.772819 17.1196755,172.981744 5.76064909,162.434077 C5.67951318,162.109533 5.63894523,161.78499 5.63894523,161.419878 C5.63894523,120.324544 5.63894523,79.148073 5.63894523,38.0527383 C5.51724138,37.3630832 6.45030426,36.8762677 6.85598377,36.4300203 C17.9716024,26.2474645 29.0466531,15.9432049 40.1622718,5.67951318 Z" id="Shape" fill="#FFFFFF" fill-rule="nonzero"></path>
                <path d="M43.8133874,13.5091278 C63.0020284,13.5091278 82.2718053,13.5091278 101.419878,13.5091278 C101.906694,13.5496957 102.718053,13.3874239 103.083164,13.7931034 C112.900609,22.9208925 122.758621,32.0081136 132.576065,41.0953347 C132.576065,49.7768763 132.535497,58.4584178 132.576065,67.1399594 C120.973631,67.2616633 109.371197,67.1399594 97.7687627,67.1805274 C97.7687627,61.1764706 97.8093306,55.2129817 97.7687627,49.2089249 C95.1724138,46.7748479 92.535497,44.3813387 89.9391481,41.9472617 C89.4523327,41.5415822 89.168357,41.1359026 88.4787018,41.2170385 C78.4584178,41.2170385 68.4381339,41.2170385 58.4584178,41.2170385 C57.8498986,41.2576065 57.0385396,41.0547667 56.5922921,41.5821501 C53.8336714,44.137931 51.0750507,46.693712 48.31643,49.2494929 C48.2758621,83.1237323 48.2758621,116.997972 48.31643,150.872211 C51.0750507,153.427992 53.8336714,155.983773 56.5922921,158.539554 C57.0385396,159.066937 57.8498986,158.864097 58.4584178,158.904665 C68.4787018,158.904665 78.4989858,158.904665 88.4787018,158.904665 C89.168357,158.985801 89.4929006,158.580122 89.9391481,158.174442 C92.535497,155.740365 95.1724138,153.346856 97.7687627,150.912779 C97.8093306,144.908722 97.7687627,138.945233 97.7687627,132.981744 C109.371197,133.022312 120.973631,132.900609 132.576065,133.022312 C132.535497,141.703854 132.576065,150.385396 132.576065,159.066937 C122.799189,168.11359 113.06288,177.160243 103.286004,186.206897 C102.96146,186.53144 102.636917,186.693712 102.231237,186.653144 C82.7586207,186.653144 63.2860041,186.653144 43.7728195,186.653144 C43.36714,186.693712 43.0425963,186.53144 42.7180527,186.206897 C32.9411765,177.160243 23.2048682,168.11359 13.4279919,159.066937 C13.4279919,119.756592 13.4279919,80.4868154 13.4279919,41.1764706 C22.9614604,32.3326572 32.535497,23.4888438 42.0689655,14.6450304 C42.6774848,14.0770791 43.0425963,13.4279919 43.8133874,13.5091278 Z" id="Shape" fill="#523078" fill-rule="nonzero"></path>
            </g>
        </g>
    </g>
</svg>