<svg width="200" height="200" viewBox="0 0 200 200" fill="none" xmlns="http://www.w3.org/2000/svg">
<path d="M150.722 67.9109L146.257 61.0906C146.257 61.0906 147.167 61.1733 148.489 61.5866L152.499 58.2385L154.318 56.8331C155.723 55.717 156.757 54.4356 157.459 53.0302C157.459 52.9889 157.459 52.9889 157.501 52.9475C157.542 52.8649 157.583 52.7409 157.625 52.6582C156.839 50.5501 155.599 48.69 154.318 47.4499C154.194 47.3259 154.07 47.2432 153.863 47.1606C153.491 46.9539 152.995 46.8299 152.499 46.7059C152.292 46.8299 152.086 46.9539 151.879 47.1192C149.812 48.4006 147.497 49.558 145.307 50.5501C145.307 50.5501 145.307 50.5501 145.265 50.5501C144.852 50.7568 144.397 50.9221 143.984 51.0874C143.901 51.1288 143.86 51.1288 143.777 51.1701C143.405 51.3354 143.074 51.4595 142.702 51.6248C142.289 51.7901 141.876 51.9555 141.504 52.1208C141.462 52.1208 141.421 52.1622 141.38 52.1622C140.47 52.4928 139.685 52.7822 138.982 53.0302C139.396 54.1876 139.561 55.2623 139.437 56.089C139.354 56.585 139.189 57.0397 138.9 57.3291C138.858 57.2877 138.817 57.2464 138.776 57.2051C138.652 57.1224 138.569 56.9984 138.445 56.9157C138.321 56.7917 138.197 56.7091 138.073 56.585C137.908 56.461 137.784 56.337 137.618 56.1717C137.536 56.089 137.453 56.0063 137.37 55.9237C136.998 55.6343 136.668 55.3036 136.254 55.0143C136.13 54.9316 136.006 54.8076 135.882 54.725C135.551 54.4769 135.179 54.1876 134.849 53.9396L134.807 53.8982C134.725 53.8569 134.683 53.8156 134.601 53.7329C134.187 53.4436 133.733 53.1129 133.278 52.8235C133.113 52.7409 132.989 52.6168 132.823 52.5342C132.369 52.2448 131.914 51.9555 131.459 51.6661C131.418 51.6248 131.377 51.6248 131.335 51.5835C131.17 51.5008 131.046 51.4595 130.881 51.4181C130.633 51.3355 130.426 51.2114 130.178 51.1288H130.136C129.93 51.0461 129.682 50.9634 129.475 50.9221C129.31 50.8808 129.144 50.7981 128.938 50.7568C128.896 50.7568 128.855 50.7154 128.814 50.7154C128.524 50.6327 128.235 50.5501 127.946 50.4674C127.78 50.4261 127.574 50.3847 127.408 50.3021C127.119 50.2194 126.788 50.1781 126.458 50.0954C126.292 50.054 126.127 50.0127 125.962 49.9714C125.92 49.9714 125.838 49.93 125.796 49.93C125.714 49.93 125.672 49.8887 125.59 49.8887C125.094 49.806 124.598 49.7234 124.102 49.6407C124.06 49.6407 123.978 49.6407 123.936 49.5994C123.481 49.5167 122.985 49.4753 122.489 49.434C122.407 49.434 122.365 49.434 122.283 49.3927C121.787 49.3514 121.291 49.31 120.753 49.2687C120.629 49.2687 120.547 49.2687 120.423 49.2687C119.885 49.2273 119.389 49.2273 118.852 49.2273C118.397 49.2273 117.984 49.2273 117.571 49.2273C117.405 49.2273 117.281 49.2273 117.157 49.2273C116.868 49.2273 116.62 49.2273 116.33 49.2687C116.165 49.2687 116 49.2687 115.834 49.31C115.586 49.31 115.38 49.3514 115.132 49.3514C114.966 49.3514 114.801 49.3927 114.636 49.3927C114.429 49.3927 114.222 49.434 114.016 49.434C113.85 49.434 113.685 49.4754 113.52 49.4754C113.313 49.4754 113.148 49.5167 112.941 49.5167C112.776 49.5167 112.61 49.558 112.486 49.558C112.321 49.5994 112.114 49.5994 111.949 49.6407C111.784 49.6407 111.66 49.682 111.494 49.7234C111.329 49.7647 111.164 49.7647 110.998 49.806C110.833 49.8474 110.709 49.8474 110.585 49.8887C110.42 49.93 110.254 49.93 110.13 49.9714C110.006 50.0127 109.841 50.0127 109.717 50.054C109.551 50.0954 109.427 50.0954 109.262 50.1367C109.138 50.1781 109.014 50.1781 108.89 50.2194C108.766 50.2607 108.601 50.2607 108.477 50.3021C108.353 50.3434 108.229 50.3434 108.105 50.3847C107.981 50.4261 107.857 50.4261 107.733 50.4674C107.609 50.5087 107.485 50.5087 107.402 50.5501C107.278 50.5914 107.154 50.5914 107.03 50.6328C106.906 50.6741 106.823 50.6741 106.699 50.7154C106.575 50.7567 106.493 50.7568 106.369 50.7981C106.245 50.8394 106.162 50.8394 106.079 50.8808C105.997 50.9221 105.873 50.9634 105.79 50.9634C105.707 51.0048 105.583 51.0048 105.501 51.0461C105.418 51.0874 105.294 51.1288 105.211 51.1288C105.129 51.1701 105.046 51.1701 104.963 51.2114C104.922 51.2114 104.881 51.2114 104.881 51.2528C104.839 51.2528 104.798 51.2941 104.757 51.2941C104.674 51.3354 104.633 51.3354 104.55 51.3768C104.467 51.4181 104.426 51.4181 104.343 51.4595C104.261 51.5008 104.178 51.5008 104.137 51.5421C104.095 51.5421 104.054 51.5835 103.971 51.5835C105.17 51.3354 106.369 51.2528 107.485 51.2528C111.412 51.1701 113.933 52.5755 113.933 52.5755C103.227 53.7329 100.044 59.4785 100.044 59.4785L99.9203 59.7265L99.7963 59.4785C99.7963 59.4785 96.6135 53.7329 85.9076 52.5755C85.9076 52.5755 88.4291 51.1288 92.3559 51.2528C93.472 51.2114 94.6294 51.3354 95.8694 51.5835C95.8281 51.5835 95.7868 51.5421 95.7041 51.5421C95.6214 51.5008 95.5388 51.5008 95.4974 51.4595C95.4148 51.4181 95.3734 51.4181 95.2908 51.3768C95.2081 51.3354 95.1667 51.3354 95.0841 51.2941C95.0427 51.2941 95.0014 51.2528 94.9601 51.2528C94.9187 51.2528 94.8774 51.2114 94.8774 51.2114C94.7947 51.1701 94.7121 51.1701 94.6294 51.1288C94.5467 51.0874 94.4227 51.0874 94.34 51.0461C94.2574 51.0048 94.1334 51.0048 94.0507 50.9634C93.968 50.9221 93.844 50.8808 93.7613 50.8808C93.6787 50.8394 93.5547 50.8394 93.472 50.7981C93.348 50.7568 93.2653 50.7567 93.1413 50.7154C93.0173 50.6741 92.9346 50.6741 92.8106 50.6328C92.6866 50.5914 92.5626 50.5914 92.4386 50.5501C92.3146 50.5087 92.1906 50.5087 92.1079 50.4674C91.9839 50.4261 91.8599 50.4261 91.7359 50.3847C91.6119 50.3434 91.4879 50.3434 91.3639 50.3021C91.2399 50.2607 91.0745 50.2607 90.9505 50.2194C90.8265 50.1781 90.7025 50.1781 90.5785 50.1367C90.4545 50.0954 90.2892 50.0954 90.1238 50.054C89.9998 50.0127 89.8345 50.0127 89.7105 49.9714C89.5451 49.93 89.4211 49.93 89.2558 49.8887C89.1318 49.8474 88.9664 49.8474 88.8424 49.806C88.6771 49.7647 88.5117 49.7647 88.3464 49.7234C88.1811 49.682 88.0571 49.682 87.8917 49.6407C87.7264 49.5994 87.5197 49.5994 87.3543 49.558C87.189 49.558 87.065 49.5167 86.8997 49.5167C86.693 49.5167 86.5276 49.4754 86.321 49.4754C86.1556 49.4754 85.9903 49.434 85.8249 49.434C85.6183 49.434 85.4116 49.3927 85.2049 49.3927C85.0396 49.3927 84.8742 49.3514 84.7089 49.3514C84.5022 49.3514 84.2542 49.31 84.0062 49.31C83.8408 49.31 83.6755 49.31 83.5102 49.2687C83.2621 49.2687 82.9728 49.2687 82.6835 49.2273C82.5594 49.2273 82.3941 49.2273 82.2701 49.2273C81.8567 49.2273 81.4021 49.2273 80.9887 49.2273C80.4513 49.2273 79.9553 49.2273 79.418 49.2687C79.294 49.2687 79.2113 49.2687 79.0873 49.2687C78.5912 49.31 78.0539 49.31 77.5579 49.3514C77.4752 49.3514 77.4339 49.3514 77.3512 49.3927C76.8552 49.434 76.4005 49.4754 75.9458 49.558C75.9044 49.558 75.8218 49.558 75.7804 49.5994C75.2844 49.682 74.7884 49.7647 74.2924 49.8474C74.2097 49.8474 74.1684 49.8887 74.0857 49.8887C74.0444 49.8887 73.9617 49.93 73.9203 49.93C73.755 49.9714 73.631 50.0127 73.4657 50.0127C73.135 50.0954 72.8043 50.1367 72.5149 50.2194C72.3496 50.2607 72.1429 50.3021 71.9776 50.3434C71.6882 50.4261 71.3989 50.5087 71.1095 50.5914C70.8615 50.6741 70.6548 50.7568 70.4068 50.8394C70.2002 50.9221 69.9935 50.9634 69.7868 51.0461H69.7455C69.3734 51.1701 69.0428 51.3355 68.7121 51.4595C68.6707 51.4595 68.6294 51.5008 68.5881 51.5008C68.0507 51.7901 67.5547 52.1208 67.1 52.4515C66.976 52.5342 66.852 52.6169 66.6866 52.6995C66.232 52.9889 65.7773 53.3195 65.3639 53.6502C65.2812 53.6916 65.2399 53.7329 65.1572 53.8156C65.1572 53.8156 65.1572 53.8156 65.1159 53.8569C64.7439 54.1463 64.4132 54.3943 64.0412 54.6836C63.9172 54.8076 63.7932 54.8903 63.6278 55.0143C63.2558 55.3036 62.8838 55.593 62.5531 55.9237C62.4291 56.0063 62.3464 56.1304 62.2224 56.213C62.0984 56.337 61.9331 56.461 61.8091 56.5437C61.6851 56.6677 61.5611 56.7504 61.4784 56.8331C61.3544 56.9571 61.189 57.0811 61.065 57.2051C61.0237 57.2464 61.0237 57.2464 60.9824 57.2877C60.693 56.9571 60.5277 56.5437 60.445 56.0477C60.321 55.221 60.4863 54.1876 60.8997 52.9889C60.197 52.7408 59.4116 52.4515 58.5022 52.1208C58.4609 52.1208 58.4196 52.0795 58.3782 52.0795C58.0062 51.9141 57.5929 51.7488 57.1795 51.5835C56.8488 51.4595 56.5181 51.2941 56.1875 51.1701C56.1048 51.1288 56.0221 51.0874 55.9394 51.0461C55.5261 50.8808 55.1127 50.6741 54.658 50.5087C54.658 50.5087 54.658 50.5087 54.6167 50.5087C52.4259 49.5167 50.1111 48.3593 48.0444 47.1192C47.8377 46.9952 47.5897 46.8299 47.383 46.7059C46.887 46.7886 46.391 46.9539 46.0189 47.1606C45.8536 47.2432 45.6883 47.3672 45.5643 47.4499C44.2829 48.69 43.0428 50.5501 42.2574 52.6995C42.2988 52.7822 42.3401 52.9062 42.3814 52.9889C42.3814 53.0302 42.3814 53.0302 42.4228 53.0715C43.0841 54.5183 44.1588 55.7997 45.5643 56.8744L47.3417 58.2798L51.3512 61.628C52.7153 61.2146 53.5833 61.1319 53.5833 61.1319L48.9124 67.9109C48.9124 67.9109 42.2574 81.1383 40.604 91.5548C40.6453 92.2575 40.728 92.9602 40.8107 93.6216C41.5134 98.6232 43.7455 103.377 46.9697 107.841L48.7471 104.369L46.1016 105.03L50.6898 96.1844L48.0444 96.8457L48.7057 95.3163L53.0873 84.9825L58.2129 96.9697L58.2956 97.1764L57.1382 96.8044L55.6501 96.3497L55.7741 96.5977L60.321 105.443L57.6755 104.617L62.4291 113.876L59.6596 113.132L63.4211 120.324L65.4052 115.777L62.7184 116.563L67.348 105.981L64.6612 106.766L67.72 98.2098L69.7455 92.5469L71.1509 96.4324C71.4816 95.3577 71.8122 94.2003 72.2256 92.8775C72.7216 91.3068 73.011 89.8187 73.1763 88.4133C68.7534 86.5946 65.3639 82.5437 64.6612 77.5421C64.2065 74.4419 64.8679 71.2178 66.48 68.4896L66.728 68.0763C64.9506 67.5803 63.0905 67.5803 61.2717 68.2416C63.0491 66.1335 64.8679 65.0588 66.6866 64.7695C69.9521 64.1908 73.1763 66.0509 76.0698 68.5723C76.6485 69.1097 77.2272 69.647 77.8059 70.2257C78.7979 71.2178 79.7486 72.0031 80.6167 72.5818C82.1874 73.6152 83.5515 74.0286 84.6262 73.9873C85.0809 73.9873 85.4943 73.9046 85.8249 73.7392C86.6517 73.4086 87.2303 72.8299 87.561 72.0445C88.1397 70.7631 87.933 69.027 86.7757 67.6216C88.8011 67.8283 89.9585 69.7297 90.1652 71.9205C90.2065 72.4992 90.2065 73.1192 90.1238 73.6979C90.0412 74.5246 89.7931 75.31 89.4625 76.054C88.8424 77.4181 87.8504 78.5755 86.4036 79.1128C85.7423 79.3609 85.1222 79.5262 84.5435 79.6089C83.9649 80.3529 83.3035 80.9729 82.5594 81.5103C82.8075 83.5357 82.8901 85.9332 82.6421 88.5373C82.4354 90.7281 82.0221 93.0842 81.2367 95.5643C80.8234 96.9284 80.4513 98.0858 80.162 99.1605C79.7073 100.731 79.3766 102.013 79.1286 103.129C80.5753 101.847 82.4354 100.69 84.5435 99.7392C84.7502 99.6565 84.9569 99.5739 85.1222 99.4912C88.3464 98.1271 92.1493 97.2178 96.3241 96.8871C96.3241 96.4324 96.3241 95.9364 96.3241 95.399C96.3241 93.6216 94.0093 93.4976 91.0745 95.0683C91.0745 95.0683 86.693 93.6216 86.0316 86.8012C85.949 85.9745 85.9076 85.0651 85.9903 84.0318C87.8504 82.2543 89.9171 81.0556 91.8599 80.2289C96.1175 78.4101 99.7963 78.4515 99.7963 78.4515C99.7963 78.4515 103.475 78.4101 107.733 80.2289C109.675 81.0556 111.742 82.2543 113.602 84.0318C113.644 85.0651 113.644 85.9745 113.561 86.8012C112.941 93.6216 108.518 95.0683 108.518 95.0683C105.542 93.4976 103.268 93.6216 103.268 95.399C103.268 95.9364 103.268 96.4324 103.268 96.8871C107.443 97.2178 111.246 98.1271 114.47 99.4912C114.677 99.5739 114.884 99.6565 115.049 99.7392C117.199 100.69 119.017 101.847 120.464 103.129C120.216 102.054 119.885 100.731 119.431 99.1605C119.141 98.0858 118.769 96.8871 118.356 95.5643C117.571 93.0842 117.157 90.7281 116.951 88.5373C116.702 85.9332 116.785 83.5357 117.033 81.5103C116.289 80.9729 115.628 80.3529 115.049 79.6089C114.47 79.5262 113.85 79.3609 113.189 79.1128C111.742 78.5341 110.75 77.3768 110.13 76.054C109.799 75.31 109.593 74.5246 109.469 73.6979C109.386 73.0779 109.386 72.4992 109.427 71.9205C109.634 69.7297 110.792 67.8283 112.817 67.6216C111.66 69.027 111.494 70.7218 112.032 72.0445C112.362 72.7885 112.941 73.4086 113.768 73.7392C114.14 73.8632 114.553 73.9459 114.966 73.9873C116.082 74.0286 117.447 73.6152 118.976 72.5818C119.844 72.0031 120.795 71.2178 121.745 70.2257C122.324 69.647 122.903 69.1097 123.481 68.5723C126.334 66.0509 129.599 64.2321 132.865 64.7695C134.683 65.1001 136.543 66.1335 138.28 68.2416C136.461 67.5803 134.601 67.5803 132.823 68.0763L133.071 68.4896C134.683 71.2178 135.303 74.4006 134.89 77.5421C134.187 82.5023 130.839 86.5946 126.416 88.372C126.582 89.7774 126.871 91.2654 127.367 92.8362C127.904 94.5309 128.318 95.9777 128.69 97.3004L129.64 94.655L130.922 98.2511L134.725 108.833L132.038 108.048L136.668 118.63L134.063 117.844H134.022V117.885L134.063 117.968L136.585 123.755L138.362 120.448C138.362 120.448 136.791 120.986 135.923 121.234L140.76 111.974L137.99 112.719L142.744 103.459L140.057 104.286L144.108 96.4324L144.769 95.151L142.124 95.9777L147.332 83.7837L152.086 94.9443L152.375 95.647L150.68 95.2337L149.729 94.9856L149.936 95.3577L154.318 103.79L151.672 103.129L153.408 106.518C156.178 102.426 158.079 98.0445 158.741 93.4562C158.823 92.7535 158.906 92.0922 158.947 91.3895C157.335 81.1383 150.722 67.9109 150.722 67.9109Z" fill="white"/>
<path d="M111.453 106.105C110.709 105.733 109.882 105.361 109.138 105.154C108.684 105.03 108.27 104.906 107.816 104.782C104.054 103.831 101.285 103.707 99.7964 103.707C98.3084 103.707 95.5389 103.79 91.7774 104.782C91.364 104.906 90.9093 104.989 90.4546 105.154C89.7106 105.361 88.8839 105.733 88.1399 106.105C87.2718 106.56 86.4864 107.014 86.1558 107.386C86.1558 108.378 86.2384 109.205 86.3624 109.908C86.6931 111.809 87.2718 113.38 88.1812 113.38C88.5532 113.38 88.9252 113.132 89.1732 112.677C89.2146 112.595 89.2973 112.471 89.3386 112.305C89.4213 111.975 89.5866 110.9 89.8759 109.908C89.9173 109.784 89.9586 109.618 89.9999 109.494C90.4133 108.337 91.3227 106.766 91.5707 106.353C91.612 106.312 91.612 106.27 91.612 106.27C91.612 106.27 91.612 106.27 91.612 106.312C91.6534 106.56 91.9427 108.254 93.0174 108.833C93.1414 108.916 93.3068 108.957 93.4308 108.998C93.5961 108.833 93.7201 108.709 93.8855 108.544C95.2909 107.221 96.5309 106.849 98.7217 106.808C99.0524 106.808 99.4244 106.808 99.7964 106.808C100.168 106.808 100.54 106.808 100.871 106.808C103.021 106.808 104.261 107.221 105.707 108.544C105.873 108.668 105.997 108.833 106.162 108.998C106.327 108.957 106.451 108.916 106.575 108.833C107.65 108.254 107.94 106.56 107.981 106.312V106.27C107.981 106.27 109.138 108.13 109.593 109.494C109.634 109.618 109.676 109.784 109.717 109.908C109.841 110.404 109.965 110.9 110.048 111.354C110.13 111.768 110.213 112.14 110.254 112.305C110.296 112.471 110.337 112.595 110.42 112.677C110.626 113.132 111.04 113.38 111.412 113.38C112.362 113.38 112.941 111.809 113.23 109.908C113.354 109.246 113.437 108.378 113.437 107.386C113.106 107.014 112.362 106.518 111.453 106.105Z" fill="white"/>
<path d="M109.923 86.2639C110.047 86.2639 110.13 86.2225 110.213 86.1812C110.378 86.0572 110.378 85.8919 110.295 85.7265C108.931 83.6598 104.591 82.213 99.7961 82.213C95.0012 82.213 90.661 83.6598 89.2969 85.7265C89.2142 85.8505 89.2556 86.0572 89.3796 86.1812C89.4623 86.2639 89.5863 86.2639 89.6689 86.2639C89.7516 86.2639 89.8343 86.2639 89.9169 86.2225C91.6944 85.2718 95.2492 84.2384 99.7961 84.2384C104.343 84.2384 107.857 85.2718 109.675 86.2225C109.758 86.2225 109.841 86.2639 109.923 86.2639Z" fill="white"/>
<path d="M127.409 74.814C127.45 74.6486 127.45 74.4833 127.45 74.3179C127.491 73.3672 127.284 72.4165 126.871 71.6311C126.747 71.7138 126.623 71.8378 126.499 71.9205C126.458 71.9618 126.416 72.0032 126.375 72.0445C126.168 72.2098 126.003 72.3752 125.796 72.5818C125.755 72.6232 125.714 72.6645 125.672 72.7059C125.424 72.9539 125.135 73.2019 124.887 73.4499C124.804 73.5326 124.722 73.6152 124.639 73.6979C124.515 73.8219 124.391 73.9459 124.267 74.0699C124.06 74.2766 123.895 74.4419 123.688 74.6486C123.688 74.6899 123.647 74.7313 123.647 74.7726C123.564 75.31 123.812 75.806 124.184 76.1367C124.226 76.178 124.308 76.2194 124.35 76.2607C124.515 76.3434 124.68 76.3847 124.846 76.426C125.135 76.4674 125.383 76.426 125.631 76.302C125.383 76.6327 124.474 77.5834 122.903 77.7488C122.366 77.7901 121.787 77.7488 121.126 77.5834L121.084 77.6248C121.043 77.7074 121.002 77.7488 120.919 77.8314C120.795 77.9968 120.671 78.1621 120.547 78.3275C120.505 78.4101 120.423 78.4928 120.381 78.5342C120.299 78.6168 120.257 78.6995 120.175 78.7822C120.629 78.9888 121.084 79.1542 121.58 79.2368C121.87 79.2782 122.2 79.2782 122.49 79.2782C124.928 79.1542 127.036 77.3354 127.409 74.814Z" fill="white"/>
<path d="M79.3767 78.7822C79.294 78.6995 79.2527 78.5755 79.17 78.4928C79.1286 78.4515 79.0873 78.3688 79.046 78.3275C78.922 78.1208 78.7566 77.9554 78.5913 77.7488C78.5499 77.7074 78.5086 77.6661 78.5086 77.6248C78.5086 77.5834 78.4673 77.5834 78.4673 77.5421C77.8059 77.7074 77.2272 77.7488 76.7312 77.7074C75.1191 77.5421 74.2097 76.5501 73.9204 76.2607C74.1684 76.3847 74.4164 76.426 74.7058 76.3847C74.9124 76.3434 75.0778 76.302 75.2431 76.2194C75.2845 76.178 75.3258 76.1367 75.4085 76.0954C75.8218 75.7647 76.0285 75.2686 75.9458 74.7313C75.9458 74.69 75.9045 74.6486 75.9045 74.6073C75.6151 74.2766 75.2845 73.9872 74.9951 73.6566C74.9124 73.5739 74.8298 73.4912 74.7471 73.4086C74.4991 73.1605 74.2097 72.9125 73.9617 72.6645C73.9204 72.6645 73.9204 72.6232 73.8791 72.6232C73.6724 72.4165 73.4657 72.2512 73.2177 72.0445C73.1763 72.0032 73.1763 72.0031 73.135 71.9618C73.011 71.8378 72.887 71.7551 72.763 71.6311C72.3496 72.4578 72.1016 73.3672 72.1843 74.3179C72.1843 74.4833 72.1843 74.6486 72.2256 74.814C72.2256 74.814 72.2256 74.814 72.2256 74.8553C72.5977 77.3768 74.7058 79.1955 77.1445 79.2782C77.4339 79.2782 77.7232 79.2782 78.0126 79.2368C78.4673 79.1542 78.9633 78.9888 79.3767 78.7822Z" fill="white"/>
<path d="M109.303 126.153C108.146 126.649 107.815 130.038 105.046 132.064C105.046 132.064 104.963 130.575 104.178 129.914C104.178 129.914 103.31 131.526 101.532 132.022C100.623 132.27 99.7549 132.229 99.7549 132.229C99.7549 132.229 98.8869 132.27 97.9775 132.022C96.2001 131.526 95.332 129.914 95.332 129.914C94.5467 130.575 94.464 132.064 94.464 132.064C91.6945 130.038 91.3638 126.649 90.2064 126.153C89.5037 125.863 88.925 126.194 89.2557 129.914C89.3797 131.361 89.7517 132.477 90.0411 133.262C94.588 135.37 99.7549 134.998 99.7549 134.998C99.7549 134.998 104.922 135.329 109.469 133.262C109.717 132.477 110.089 131.319 110.213 129.914C110.626 126.235 110.047 125.863 109.303 126.153Z" fill="white"/>
<path d="M198.96 124.21C197.927 123.052 196.314 121.399 194.124 119.787L192.842 117.513L195.777 118.175L190.775 109.453L193.132 109.99L183.211 88.868L180.855 93.8282L172.175 75.3513L168.537 83.081C167.297 78.3275 165.685 73.6566 164.197 70.2257C165.313 68.8616 166.264 67.4149 167.008 65.8442C167.049 65.7202 167.132 65.5962 167.173 65.5135C168.206 63.24 168.826 60.8012 168.992 58.2798C169.033 57.7838 169.033 57.2464 169.033 56.7917C168.992 49.5167 165.23 43.275 161.758 39.8442C160.89 38.9762 159.898 38.2734 158.782 37.6947C157.5 37.0334 156.095 36.5374 154.566 36.248C153.863 36.124 153.202 36.0413 152.499 36.0413C150.432 36.0413 148.407 36.6614 146.671 37.7774C144.563 39.1828 141.421 40.6709 137.659 42.1176C137.659 42.1176 137.081 42.3243 136.874 42.407L135.675 41.8283C131.046 39.7615 124.928 38.6041 118.852 38.6041C118.315 38.6041 117.818 38.6041 117.281 38.6041L116.537 38.6455C116.289 38.6455 116.082 38.6455 115.834 38.6868C115.834 38.6868 114.718 38.7281 114.512 38.7695C114.346 38.7695 113.933 38.8108 113.933 38.8108C113.933 38.8108 113.354 38.8521 113.189 38.8521C113.024 38.8521 112.073 38.9761 111.908 38.9761C111.742 38.9761 111.287 39.0588 111.287 39.0588L110.626 39.1415L110.171 39.1828C110.171 39.1828 109.634 39.2655 109.427 39.3068L108.973 39.3895L108.311 39.5135L107.195 39.7202L106.699 39.8029L106.162 39.9269C106.162 39.9269 105.377 40.0922 105.211 40.1335L104.26 40.3815L103.516 40.5882L102.896 40.7536L102.111 41.0016L101.408 41.2496L100.871 41.4149L99.7549 41.8283C99.5896 41.7456 99.3416 41.6629 99.2176 41.6216L98.6389 41.4149L98.1842 41.2496L97.3575 40.9602L96.5308 40.7122L95.6627 40.4642L95.208 40.3402L94.34 40.1335L93.3479 39.8855L92.7692 39.7615L92.2732 39.6788L91.2398 39.4722L90.0824 39.3068C90.0824 39.3068 89.0491 39.1415 88.9251 39.1415C88.7184 39.1002 87.809 39.0175 87.685 38.9761C87.4783 38.9348 87.2716 38.9348 87.065 38.8935C87.065 38.8935 86.5276 38.8521 86.4036 38.8521C86.1969 38.8521 85.2049 38.7695 85.0395 38.7695C84.7915 38.7695 83.6755 38.6868 83.6755 38.6868C83.4688 38.6868 83.2208 38.6868 83.0141 38.6455L82.2287 38.6041C81.7327 38.6041 81.2367 38.6041 80.6993 38.6041C74.623 38.6041 68.5054 39.7615 63.8758 41.8283L62.6357 42.3657C62.4291 42.283 61.8504 42.0763 61.8504 42.0763C58.0888 40.6296 54.9887 39.1415 52.8806 37.7361C51.5992 36.9094 50.1524 36.3307 48.623 36.124C48.0857 36.0413 47.5483 36 47.0523 36C46.3909 36 45.6882 36.0827 45.0268 36.2067C43.4974 36.496 42.0507 36.992 40.8106 37.6534C39.6532 38.2321 38.7025 38.9348 37.8345 39.8029C34.3623 43.2337 30.6008 49.4753 30.5594 56.7504C30.5594 57.2464 30.5595 57.7838 30.6008 58.2798C30.7661 60.8426 31.3448 63.24 32.3782 65.5135C32.4195 65.5962 32.5436 65.8855 32.5436 65.8855C33.2876 67.4562 34.2383 68.903 35.3544 70.2257C34.3623 72.4992 33.2876 75.3513 32.3369 78.3688L29.9808 73.3672L19.8122 95.0683L17.1254 89.364L7.20494 110.486L9.56106 109.949L4.55948 118.671L7.49429 118.009L6.9156 119.043C4.18746 120.862 2.20336 122.846 1.04597 124.168C-0.276765 125.698 -0.359436 127.971 0.880626 129.583C1.70733 130.658 2.9474 131.237 4.2288 131.237C4.89016 131.237 5.51019 131.071 6.13022 130.782C7.74231 129.997 9.43706 129.335 11.2145 128.798C15.2653 127.641 19.1922 127.062 22.9537 127.062C25.5992 127.062 28.2033 127.351 30.7248 127.889C30.7661 127.889 30.8075 127.889 30.8075 127.889C32.6262 128.261 34.445 128.798 36.1811 129.542C36.2224 129.542 36.2637 129.583 36.2637 129.583C44.4481 132.849 50.6898 138.677 55.2367 142.935C62.6771 149.92 73.9616 155.831 78.5499 158.105C82.6834 160.461 89.7104 163.189 99.7549 163.189C107.03 163.189 113.561 161.784 119.224 158.973V158.932C120.671 158.353 123.357 157.071 128.524 154.137C135.469 150.21 140.925 146.407 144.687 142.893C148.572 139.256 153.656 134.502 160.146 131.154C161.303 133.014 163.329 134.254 165.685 134.254C169.281 134.254 172.175 131.361 172.175 127.765C172.175 127.599 172.175 127.434 172.133 127.269C173.745 127.062 175.399 126.938 177.011 126.938C180.772 126.938 184.699 127.517 188.75 128.674C190.527 129.17 192.222 129.831 193.834 130.658C194.454 130.947 195.074 131.113 195.736 131.113C197.017 131.113 198.257 130.534 199.084 129.459C200.365 128.013 200.283 125.739 198.96 124.21ZM164.073 130.947H163.039V129.955V127.847H162.171V126.979H164.9V127.847H164.073V129.542V130.947ZM170.025 130.947H168.992L168.702 128.674L167.752 130.947H167.338L166.429 128.674V128.715L166.098 130.989H165.065L165.396 129.087L165.726 127.021H166.76L167.297 128.467L167.545 129.129L167.876 128.302L168.413 127.021H169.446L169.57 127.93L170.025 130.947ZM189.949 124.747C182.55 122.68 176.06 122.474 170.356 123.424C169.694 123.548 169.033 123.672 168.372 123.796C166.181 124.251 164.073 124.912 162.13 125.739C161.179 126.111 160.229 126.566 159.319 126.979C157.873 127.682 156.508 128.426 155.227 129.211C149.771 132.518 145.389 136.61 141.834 139.917C133.361 147.812 117.446 155.294 117.405 155.294C113.644 157.154 107.815 159.056 99.7963 159.056C90.5371 159.056 84.2128 156.534 80.5753 154.426C76.0284 152.194 65.2399 146.531 58.1715 139.917C54.41 136.404 49.7391 132.105 43.8694 128.674C42.0094 127.599 39.9839 126.566 37.8758 125.739C35.9331 124.912 33.8663 124.251 31.6342 123.796C25.4339 122.432 18.2828 122.391 10.0571 124.706C7.86631 125.326 5.88221 126.111 4.2288 126.979C5.13818 125.946 6.66758 124.416 8.81703 122.887C8.65168 122.928 8.48634 122.97 8.36234 123.011L7.45296 123.176L8.321 121.647L11.1318 116.687L12.4545 114.331L9.56106 114.992L14.5626 106.27L11.6692 106.932L17.1668 95.1923L19.1509 99.3672L21.011 103.294L22.499 100.649L26.7566 93.2082L23.0777 94.0349L30.0634 79.1955L31.3862 81.965L34.1556 87.8759C34.4036 86.5945 34.7343 85.2718 35.065 83.9904C36.5944 78.1621 38.7439 72.4165 40.3559 69.4817C38.6199 67.9109 37.2558 66.1335 36.3051 64.1494C36.2637 64.0254 36.2224 63.9427 36.1811 63.8601C35.3544 62.0826 34.8583 60.0985 34.7343 58.0731C34.693 57.6598 34.693 57.2464 34.693 56.833C34.7343 50.7981 37.8345 45.6312 40.7693 42.779C41.348 42.2003 42.0094 41.7456 42.7947 41.3323C43.7041 40.8776 44.7375 40.5056 45.8949 40.2575C46.3082 40.1749 46.7216 40.1335 47.135 40.1335C47.4656 40.1335 47.7963 40.1749 48.127 40.2162C49.0777 40.3816 49.9458 40.7122 50.7311 41.2083C53.0872 42.7377 56.4768 44.3911 60.4863 45.9618L60.6103 46.0032C61.6023 46.3752 62.4291 46.7059 63.1318 46.9126C63.7518 46.4992 64.4545 46.1272 65.1985 45.7965H65.2399C69.3734 43.8951 74.995 42.7377 80.782 42.7377C81.278 42.7377 81.7327 42.7377 82.2287 42.7377H82.8074C83.0554 42.7377 83.3448 42.7377 83.5928 42.779L84.2541 42.8203C84.4608 42.8203 84.7088 42.8617 84.9155 42.8617C85.0395 42.8617 85.9902 42.9443 86.1556 42.9443C86.2796 42.9443 86.8169 42.9857 86.8169 42.9857C87.0236 42.9857 87.189 43.027 87.3956 43.027C87.561 43.027 87.9743 43.1097 87.9743 43.1097C88.1397 43.151 88.3464 43.151 88.5117 43.1924C88.6357 43.1924 89.0904 43.275 89.0904 43.275C89.2557 43.3164 89.4211 43.3164 89.5864 43.3577L90.1238 43.4404C90.2891 43.4817 90.4545 43.4817 90.6198 43.523C90.7438 43.5644 91.1572 43.6057 91.1572 43.6057L91.6119 43.6884L92.0665 43.7711C92.2732 43.8124 92.4386 43.8537 92.5626 43.8951L92.9759 43.9777C93.1413 44.0191 93.3066 44.0604 93.4306 44.1017L93.844 44.1844L94.2573 44.3084L94.6293 44.4324L95.0427 44.5564L95.4147 44.6804L96.1174 44.8871L96.4894 45.0111L96.9028 45.1351L97.3161 45.2591L97.8535 45.4658C97.9775 45.5071 98.4735 45.7138 98.4735 45.7138L99.0109 45.9205C99.0109 45.9205 99.6723 46.2098 99.7549 46.2098C99.8376 46.1685 100.664 45.8378 100.706 45.8378L101.284 45.5898C101.45 45.5485 101.574 45.4658 101.739 45.4245L102.235 45.2591L102.772 45.0938L103.434 44.8871L104.136 44.6804L104.55 44.5564C104.674 44.5151 104.798 44.4738 104.963 44.4324L105.335 44.3498L105.79 44.2257C105.914 44.1844 106.079 44.1431 106.203 44.1017C106.327 44.0604 106.493 44.0191 106.658 43.9777L107.071 43.8951C107.237 43.8537 107.402 43.8124 107.567 43.7711L108.022 43.6884L108.559 43.5644L109.014 43.4817C109.179 43.4404 109.634 43.399 109.634 43.399L110.047 43.3164C110.213 43.275 110.75 43.2337 110.75 43.2337C110.874 43.2337 111.039 43.1924 111.163 43.1924C111.329 43.151 111.784 43.1097 111.784 43.1097C111.784 43.1097 112.156 43.0684 112.321 43.0684C112.486 43.0684 112.982 42.9857 112.982 42.9857C112.982 42.9857 113.396 42.9443 113.52 42.9443C113.726 42.9443 114.222 42.903 114.222 42.903C114.222 42.903 114.636 42.8617 114.76 42.8617C114.966 42.8617 115.173 42.8203 115.421 42.8203L116.082 42.779C116.372 42.779 116.62 42.779 116.868 42.7377H117.446C117.943 42.7377 118.397 42.7377 118.893 42.7377C124.68 42.7377 130.302 43.8537 134.435 45.7965H134.477C135.221 46.1272 135.923 46.4992 136.543 46.9126C137.246 46.6645 138.073 46.3752 139.065 46.0032L139.148 45.9618C143.198 44.3911 146.588 42.7377 148.944 41.2083C150.019 40.5056 151.259 40.1335 152.54 40.1335C152.954 40.1335 153.408 40.1749 153.822 40.2575C154.979 40.4642 156.012 40.8362 156.922 41.3323C157.707 41.7456 158.327 42.2003 158.906 42.779C161.799 45.6312 164.941 50.7981 164.982 56.833C164.982 57.2464 164.982 57.6598 164.941 58.0731C164.817 60.1399 164.321 62.0826 163.494 63.9014C163.453 63.9427 163.411 64.0254 163.37 64.1081C162.419 66.1335 161.055 67.9109 159.319 69.4817C161.386 73.3259 164.404 81.7583 165.726 89.116C165.933 90.3147 166.098 91.4308 166.222 92.5468L169.364 86.5945L172.175 81.2209L179.16 96.0603L175.481 95.2336L178.044 99.7392L179.532 102.385L180.814 99.6565L181.062 99.0778L182.136 96.763L183.087 94.6963L188.585 106.436L185.691 105.774L190.693 114.496L187.799 113.835L189.287 116.935L191.396 121.275C189.411 120.738 187.551 120.283 185.815 119.994C185.733 119.994 185.65 119.952 185.567 119.952C185.65 119.994 185.733 120.035 185.857 120.076C187.138 120.614 188.337 121.192 189.411 121.812C192.429 123.631 194.537 125.698 195.694 126.979C194.082 126.153 192.14 125.367 189.949 124.747Z" fill="#B2B3B6"/>
<path d="M45.316 56.8744C43.9106 55.7583 42.8772 54.4769 42.1745 53.0715C42.1745 53.0302 42.1745 53.0302 42.1332 52.9888C42.0918 52.9062 42.0505 52.8235 42.0092 52.6995C42.0092 52.6995 42.0092 52.6995 42.0092 52.7408C41.8852 53.0302 41.8025 53.3609 41.7198 53.6916C41.7198 53.7329 41.6785 53.7742 41.6785 53.8156C41.5958 54.1462 41.5131 54.4356 41.4718 54.7663V54.8076C41.4305 55.1383 41.3478 55.4276 41.3478 55.7583C41.3478 55.841 41.3478 55.9237 41.3065 55.965C41.2651 56.2957 41.2651 56.6264 41.2651 56.9157C41.2651 57.1637 41.2651 57.4117 41.2651 57.6598C41.3478 58.9412 41.6372 60.0985 42.1745 61.2146C42.1745 61.2559 42.1745 61.2559 42.2159 61.2973C42.8359 62.62 43.7866 63.7774 45.0267 64.8108C47.2174 63.0334 49.5322 62.124 51.1856 61.6279L47.1761 58.2798L45.316 56.8744Z" fill="#B2B3B6"/>
<path d="M157.459 53.0302C157.459 53.0302 157.418 53.0302 157.459 53.0302C156.756 54.4769 155.723 55.7583 154.318 56.8744L152.499 58.2798L148.489 61.628C150.143 62.124 152.416 63.0334 154.648 64.8108C155.888 63.7774 156.839 62.5787 157.459 61.2973C157.459 61.2559 157.459 61.2559 157.5 61.2146C157.996 60.0985 158.327 58.9412 158.41 57.6598C158.41 57.4118 158.451 57.1637 158.41 56.9157C158.41 56.585 158.368 56.2544 158.368 55.965C158.368 55.8823 158.368 55.7997 158.327 55.7583C158.286 55.4277 158.244 55.1383 158.203 54.8076V54.7663C158.12 54.4356 158.079 54.1463 157.996 53.8156C157.996 53.7742 157.955 53.7329 157.955 53.6916C157.872 53.3609 157.748 53.0715 157.666 52.7408C157.624 52.8235 157.583 52.9475 157.542 53.0302C157.459 52.9889 157.459 52.9889 157.459 53.0302Z" fill="#B2B3B6"/>
<path d="M40.2319 94.9856C40.2319 95.2336 40.2319 95.523 40.2319 95.771C40.2319 96.515 40.2733 97.2177 40.3559 97.9618C40.4799 99.1192 40.6866 100.277 40.976 101.434C41.596 103.831 42.5881 106.188 43.8695 108.544C44.3241 109.37 44.8202 110.197 45.3162 110.982L46.9283 107.841C43.7041 103.377 41.5133 98.6231 40.7693 93.6216C40.6866 92.9189 40.604 92.2575 40.5626 91.5548C40.5626 91.5961 40.5626 91.6375 40.5626 91.6788C40.4799 92.2988 40.3973 92.9189 40.3146 93.4976C40.3146 94.0349 40.2733 94.5309 40.2319 94.9856Z" fill="#B2B3B6"/>
<path d="M153.491 106.684L154.07 107.8L155.062 109.742C155.227 109.453 155.393 109.164 155.558 108.916C155.641 108.75 155.723 108.626 155.806 108.461C156.013 108.13 156.178 107.8 156.343 107.428C156.426 107.262 156.509 107.056 156.591 106.89C156.757 106.56 156.881 106.229 157.046 105.94C157.129 105.774 157.211 105.568 157.294 105.402C157.459 105.03 157.583 104.699 157.707 104.327C157.749 104.203 157.831 104.038 157.873 103.914C158.038 103.418 158.203 102.922 158.369 102.426C158.41 102.302 158.41 102.219 158.451 102.095C158.575 101.682 158.658 101.31 158.782 100.897C158.823 100.731 158.865 100.566 158.906 100.401C158.989 100.07 159.03 99.7392 159.113 99.3672C159.154 99.2018 159.154 98.9952 159.196 98.8298C159.237 98.4991 159.278 98.1271 159.32 97.7964C159.32 97.6311 159.361 97.4658 159.361 97.3004C159.402 96.8044 159.402 96.3084 159.402 95.771C159.402 95.027 159.361 94.2829 159.278 93.4976C159.237 92.8775 159.154 92.2988 159.03 91.6375C159.03 91.5961 159.03 91.5548 159.03 91.5135C158.989 92.2162 158.906 92.9189 158.823 93.5802C158.162 98.2098 156.219 102.591 153.491 106.684Z" fill="#B2B3B6"/>
<path d="M126.54 88.4546C130.963 86.6359 134.312 82.585 135.014 77.6247C135.469 74.5246 134.808 71.3004 133.195 68.5723L132.947 68.1589C132.038 68.4069 131.129 68.779 130.219 69.2337C131.294 71.0524 131.749 73.2019 131.418 75.3513C130.963 78.3688 129.103 80.9316 126.54 82.2956C125.259 82.9983 123.812 83.3704 122.283 83.3704C122.118 83.3704 121.994 83.3704 121.828 83.3704C121.704 85.1478 121.704 87.2146 121.994 89.4467C122.2 90.9761 122.531 92.5882 123.068 94.2829C123.647 96.1017 124.102 97.6311 124.474 98.9952C125.259 101.847 125.672 103.79 125.879 105.443L128.318 98.6231L128.773 97.3831C128.401 96.0603 127.946 94.6136 127.45 92.9188C126.995 91.3894 126.706 89.86 126.54 88.4546Z" fill="#B2B3B6"/>
<path d="M64.5786 77.6248C65.2813 82.6263 68.6708 86.6772 73.0937 88.496C72.9284 89.9014 72.639 91.3895 72.143 92.9602C71.7296 94.2829 71.3989 95.4403 71.0683 96.5151L71.8536 98.7472L73.8377 104.286C74.0857 102.881 74.4578 101.227 75.0778 99.0365C75.4498 97.7138 75.9045 96.143 76.4832 94.3243C77.0206 92.6295 77.3512 91.0174 77.5579 89.488C77.8473 87.2559 77.8473 85.1891 77.7233 83.4117C77.5579 83.4117 77.3926 83.4117 77.2272 83.4117C75.7392 83.4117 74.2924 83.0397 73.011 82.3783C70.4482 81.0143 68.5055 78.4928 68.0921 75.434C67.7614 73.2846 68.2575 71.1351 69.2908 69.3163C68.3815 68.8617 67.5134 68.4896 66.5627 68.2416L66.3147 68.655C64.7853 71.3004 64.1239 74.5246 64.5786 77.6248Z" fill="#B2B3B6"/>
<path d="M114.471 99.6565C111.246 98.2925 107.444 97.3831 103.269 97.0524C103.269 96.5977 103.269 96.1017 103.269 95.5643C103.269 93.7869 105.584 93.6629 108.518 95.2336C108.477 95.151 108.436 95.1096 108.394 95.027C108.394 94.9856 108.353 94.9856 108.353 94.9443C108.312 94.903 108.27 94.8616 108.27 94.8203C108.27 94.779 108.229 94.7789 108.229 94.7376C108.188 94.6963 108.146 94.6136 108.105 94.5723C108.022 94.4896 107.94 94.3656 107.857 94.2829C107.816 94.2416 107.774 94.2003 107.733 94.1589C107.65 94.0762 107.568 93.9522 107.444 93.8696C107.402 93.8282 107.402 93.8282 107.361 93.7869C107.237 93.6629 107.113 93.5389 106.989 93.4149C106.948 93.3736 106.906 93.3322 106.865 93.3322C106.741 93.2082 106.576 93.0842 106.41 93.0015C106.369 93.0015 106.369 92.9602 106.328 92.9602C106.204 92.8775 106.038 92.7949 105.873 92.7122C105.832 92.7122 105.79 92.6708 105.79 92.6708C105.625 92.5882 105.46 92.5055 105.253 92.4642C105.212 92.4642 105.17 92.4642 105.129 92.4228C104.922 92.3815 104.757 92.3402 104.55 92.3402C101.45 92.3402 101.037 94.3243 101.037 95.2336V96.9697V99.3258V99.7805C101.822 99.8632 102.607 99.9459 103.393 100.07C103.765 100.111 104.178 100.194 104.55 100.235C109.056 100.979 113.479 102.467 115.587 104.162C117.984 106.105 118.149 107.924 117.777 109.949C117.571 111.024 117.199 112.14 116.951 113.339C119.142 112.305 120.299 110.404 120.588 109.949C120.63 109.866 120.63 109.825 120.63 109.825C120.671 109.742 120.671 109.701 120.712 109.618C120.712 109.618 120.712 109.618 120.712 109.577C120.754 109.494 120.754 109.453 120.795 109.37C120.795 109.329 120.836 109.246 120.836 109.205C120.836 109.164 120.836 109.164 120.878 109.122C120.878 109.081 120.919 109.04 120.919 108.998C120.919 108.957 120.919 108.957 120.919 108.916C120.919 108.833 120.96 108.792 120.96 108.709V108.668C120.96 108.626 121.002 108.544 121.002 108.502C121.002 108.461 121.002 108.461 121.002 108.42C121.002 108.337 121.043 108.254 121.043 108.172C121.043 108.089 121.043 108.006 121.084 107.924C121.084 107.882 121.084 107.882 121.084 107.841C121.084 107.634 121.084 107.386 121.084 107.138C121.084 107.138 121.084 107.097 121.084 107.056C121.084 106.932 121.084 106.808 121.043 106.642C121.043 106.642 121.043 106.642 121.043 106.601C121.043 106.436 121.002 106.27 121.002 106.105C120.96 105.94 120.96 105.733 120.919 105.526C120.878 105.361 120.878 105.195 120.836 105.03C120.836 104.947 120.795 104.823 120.795 104.741C120.795 104.658 120.754 104.575 120.754 104.493C120.712 104.369 120.712 104.245 120.671 104.162C120.671 104.079 120.63 103.997 120.63 103.914C120.588 103.79 120.588 103.666 120.547 103.501C120.547 103.459 120.547 103.418 120.506 103.377C119.059 102.095 117.199 100.938 115.091 99.9872C114.884 99.8219 114.677 99.7392 114.471 99.6565Z" fill="#B2B3B6"/>
<path d="M96.3242 95.6057C96.3242 96.143 96.3242 96.639 96.3242 97.0937C92.1493 97.4244 88.3465 98.3338 85.1223 99.6979C84.9156 99.7805 84.7089 99.8632 84.5436 99.9459C82.3942 100.897 80.5754 102.054 79.1287 103.335C79.1287 103.377 79.1287 103.377 79.0873 103.418C79.0046 103.707 78.9633 103.955 78.922 104.203C78.922 104.286 78.8806 104.369 78.8806 104.41C78.8393 104.617 78.798 104.865 78.7566 105.071C78.7566 105.154 78.7153 105.195 78.7153 105.278C78.674 105.485 78.6326 105.65 78.6326 105.857C78.6326 105.898 78.6326 105.981 78.5913 106.022C78.55 106.229 78.55 106.436 78.5086 106.642C78.5086 106.766 78.4673 106.932 78.4673 107.056C78.4673 107.097 78.4673 107.097 78.4673 107.138C78.4673 107.262 78.4673 107.386 78.4673 107.51C78.4673 107.634 78.4673 107.717 78.4673 107.8C78.4673 107.841 78.4673 107.841 78.4673 107.882C78.4673 107.965 78.4673 108.048 78.5086 108.13V108.172C78.5086 108.254 78.55 108.337 78.55 108.42C78.55 108.461 78.55 108.461 78.55 108.502C78.55 108.544 78.5913 108.585 78.5913 108.668C78.5913 108.709 78.5913 108.709 78.5913 108.75C78.5913 108.833 78.6326 108.874 78.6326 108.916C78.6326 108.957 78.6326 108.998 78.674 108.998C78.674 109.04 78.674 109.04 78.7153 109.081C78.798 109.329 78.8806 109.536 78.9633 109.784C78.9633 109.784 78.9633 109.825 79.0046 109.908C79.2527 110.362 80.4514 112.305 82.6422 113.297C82.3528 112.057 82.0221 110.941 81.8155 109.908C81.4434 107.924 81.5674 106.105 84.0062 104.121C86.1143 102.426 90.5372 100.938 95.0428 100.194C95.4148 100.111 95.8282 100.07 96.2002 100.029C96.9855 99.9045 97.7709 99.8219 98.5563 99.7392V99.2845V96.9284V95.1923C98.5563 94.2829 98.1429 92.2988 95.0428 92.2988C94.8361 92.2988 94.6708 92.3402 94.4641 92.3815C94.4228 92.3815 94.3814 92.3815 94.3401 92.4228C94.1747 92.4642 93.9681 92.5468 93.8027 92.6295C93.7614 92.6295 93.72 92.6708 93.72 92.6708C93.5547 92.7535 93.4307 92.8362 93.2654 92.9189C93.224 92.9189 93.224 92.9602 93.1827 92.9602C93.0174 93.0842 92.8933 93.1669 92.728 93.2909C92.6867 93.3322 92.6453 93.3322 92.604 93.3736C92.48 93.4976 92.3147 93.6216 92.1906 93.7456L92.1493 93.7869C92.0253 93.9109 91.9426 93.9936 91.86 94.1176C91.8186 94.1589 91.7773 94.2003 91.7773 94.2416C91.6946 94.3656 91.6119 94.4483 91.5293 94.5309C91.4879 94.6136 91.4466 94.6549 91.4053 94.6963C91.4053 94.7376 91.3639 94.7376 91.3639 94.779C91.3226 94.8203 91.2813 94.8616 91.2813 94.903C91.2813 94.9443 91.2399 94.9443 91.2399 94.9856C91.1986 95.0683 91.1573 95.1096 91.1159 95.1923C94.0094 93.7042 96.3242 93.7869 96.3242 95.6057Z" fill="#B2B3B6"/>
<path d="M85.6183 129.542C85.6183 129.542 83.0142 130.989 83.0142 135.494C83.0142 135.825 83.0142 136.114 83.0555 136.486L83.5515 138.098L84.0062 139.628C84.0062 139.628 87.1064 143.472 99.8377 143.141C112.569 143.472 115.669 139.628 115.669 139.628L116.124 138.098L116.62 136.486C116.62 136.362 116.62 136.238 116.62 136.114C116.827 131.113 114.016 129.542 114.016 129.542C114.016 129.542 114.016 131.898 112.858 135.742C112.858 135.742 110.75 137.892 103.02 138.677C102.028 138.76 100.954 138.842 99.7963 138.925C98.6389 138.884 97.5642 138.801 96.5722 138.677C88.8425 137.892 86.7343 135.742 86.7343 135.742C85.6183 131.857 85.6183 129.542 85.6183 129.542Z" fill="#B2B3B6"/>
<path d="M98.5563 115.819C97.2335 114.372 90.5372 115.901 90.4959 119.498C90.4545 123.92 95.4148 124.995 99.7963 124.995H99.879C104.219 124.995 109.221 123.962 109.138 119.498C109.097 115.901 102.4 114.413 101.078 115.819C100.127 116.852 103.765 120.572 99.7963 120.572C95.5801 120.572 99.507 116.852 98.5563 115.819Z" fill="#B2B3B6"/>
<path d="M164.9 127.847V126.979H162.171V127.847H163.039V129.997V130.947H164.073V129.542V127.847H164.9Z" fill="#5C2F92"/>
<path d="M168.372 126.979L167.876 128.302L167.545 129.087L167.297 128.426L166.718 126.979H165.726L165.354 129.046L165.023 130.947H166.057L166.388 128.715V128.674H166.429L167.338 130.947H167.71L168.702 128.674L168.992 130.947H170.025L169.57 127.93L169.405 126.979H168.372Z" fill="#5C2F92"/>
<path d="M189.494 121.812C188.42 121.192 187.262 120.572 185.939 120.076C185.857 120.035 185.774 119.994 185.65 119.952C185.733 119.952 185.815 119.994 185.898 119.994C187.634 120.324 189.494 120.738 191.478 121.275L189.37 116.935L187.882 113.835L190.776 114.496L185.774 105.774L188.668 106.436L183.17 94.6963L182.219 96.763L181.145 99.0778L180.897 99.6565L179.615 102.385L178.127 99.7392L175.564 95.2336L179.243 96.0604L172.257 81.2209L169.447 86.5945L166.305 92.5468C166.181 91.4308 166.016 90.2734 165.809 89.116C164.445 81.7583 161.469 73.2845 159.402 69.4817C161.138 67.9109 162.502 66.1335 163.453 64.1081C163.494 64.0254 163.536 63.9427 163.577 63.9014C164.404 62.0826 164.9 60.0986 165.024 58.0731C165.065 57.6598 165.065 57.2464 165.065 56.8331C165.024 50.7981 161.924 45.6312 158.989 42.779C158.41 42.2003 157.749 41.7456 157.005 41.3323C156.095 40.8362 155.062 40.5056 153.905 40.2576C153.491 40.1749 153.036 40.1335 152.623 40.1335C151.342 40.1335 150.102 40.5056 149.027 41.2083C146.671 42.7377 143.281 44.3911 139.23 45.9618L139.148 46.0032C138.156 46.3752 137.288 46.7059 136.626 46.9126C136.006 46.4992 135.304 46.1272 134.56 45.7965H134.518C130.385 43.8951 124.763 42.7377 118.976 42.7377C118.48 42.7377 118.025 42.7377 117.529 42.7377H116.951C116.703 42.7377 116.413 42.7377 116.165 42.779L115.504 42.8203C115.297 42.8203 115.049 42.8617 114.843 42.8617C114.719 42.8617 114.305 42.903 114.305 42.903C114.305 42.903 113.809 42.9444 113.602 42.9444C113.478 42.9444 113.065 42.9857 113.065 42.9857C113.065 42.9857 112.61 43.027 112.404 43.0684C112.238 43.0684 111.866 43.1097 111.866 43.1097C111.866 43.1097 111.453 43.151 111.246 43.1924C111.122 43.1924 110.957 43.2337 110.833 43.2337C110.833 43.2337 110.337 43.3164 110.13 43.3164L109.717 43.399C109.717 43.399 109.262 43.4817 109.097 43.4817L108.642 43.5644L108.105 43.6884L107.65 43.7711C107.485 43.8124 107.32 43.8537 107.154 43.8951L106.741 43.9777C106.575 44.0191 106.41 44.0604 106.286 44.1017C106.121 44.1431 105.997 44.1844 105.873 44.2258L105.418 44.3498L105.046 44.4324C104.922 44.4738 104.757 44.5151 104.633 44.5564L104.219 44.6804L103.517 44.8871L102.855 45.0938L102.318 45.2591L101.822 45.4245C101.698 45.4658 101.533 45.5485 101.367 45.5898L100.789 45.8378C100.789 45.8378 99.9618 46.1685 99.8378 46.2098C99.7551 46.1685 99.0938 45.9205 99.0938 45.9205L98.5564 45.7138C98.5564 45.7138 98.0604 45.5072 97.9364 45.4658L97.399 45.2591L96.9857 45.1351L96.5723 45.0111L96.2003 44.8871L95.4976 44.6804L95.1256 44.5564L94.7122 44.4324L94.3402 44.3084L93.9268 44.1844L93.5135 44.1017C93.3481 44.0604 93.2241 44.0191 93.0588 43.9777L92.6454 43.8951C92.4801 43.8537 92.3148 43.8124 92.1494 43.7711L91.6947 43.6884L91.24 43.6057C91.24 43.6057 90.8267 43.523 90.7027 43.523C90.5373 43.4817 90.372 43.4817 90.2067 43.4404L89.6693 43.3577C89.504 43.3164 89.3386 43.3164 89.1733 43.275C89.1733 43.275 88.7186 43.1924 88.5946 43.1924C88.4292 43.151 88.2226 43.151 88.0572 43.1097C88.0572 43.1097 87.6025 43.0684 87.4785 43.027C87.3132 43.027 87.1065 42.9857 86.8998 42.9857C86.8998 42.9857 86.4038 42.9444 86.2385 42.9444C86.0318 42.9444 85.1224 42.8617 84.9984 42.8617C84.7917 42.8617 84.585 42.8203 84.337 42.8203L83.6757 42.779C83.4276 42.779 83.1383 42.779 82.8903 42.7377H82.3116C81.8569 42.7377 81.3609 42.7377 80.8649 42.7377C75.0779 42.7377 69.4563 43.8537 65.3227 45.7965H65.2814C64.5374 46.1272 63.8347 46.4992 63.2146 46.9126C62.5119 46.6645 61.6439 46.3752 60.6932 46.0032L60.5692 45.9618C56.5183 44.3911 53.1701 42.779 50.814 41.2083C50.0286 40.6709 49.1606 40.3402 48.2099 40.2162C47.8792 40.1749 47.5485 40.1335 47.2178 40.1335C46.8045 40.1335 46.3911 40.1749 45.9778 40.2576C44.8204 40.4642 43.787 40.8362 42.8776 41.3323C42.0922 41.7456 41.4309 42.2003 40.8522 42.779C37.9587 45.6312 34.8172 50.7981 34.7759 56.8331C34.7759 57.2464 34.7759 57.6598 34.8172 58.0731C34.9412 60.1399 35.4372 62.124 36.2639 63.8601C36.3053 63.9427 36.3466 64.0254 36.388 64.1494C37.3387 66.1335 38.7027 67.9109 40.4388 69.4817C38.8267 72.4578 36.6773 78.1621 35.1479 83.9904C34.8172 85.3131 34.4865 86.5945 34.2385 87.8759L31.469 81.965L30.1463 79.1955L23.1606 94.0349L26.8395 93.2082L22.5819 100.649L21.0938 103.294L19.2338 99.3672L17.2497 95.1923L11.752 106.932L14.6455 106.27L9.56127 115.033L12.4547 114.372L11.132 116.687L8.32121 121.647L7.45316 123.176L8.36254 123.011C8.52789 122.97 8.69323 122.928 8.81723 122.887C6.70913 124.375 5.13838 125.946 4.229 126.979C5.92376 126.153 7.86652 125.326 10.0573 124.706C18.3244 122.391 25.4341 122.391 31.6344 123.796C33.8252 124.251 35.9333 124.912 37.876 125.739C39.9841 126.607 42.0096 127.599 43.8697 128.674C49.7393 132.105 54.4515 136.404 58.1717 139.917C65.2401 146.531 76.0699 152.194 80.5755 154.426C84.213 156.493 90.5373 159.056 99.7965 159.056C107.816 159.056 113.602 157.154 117.405 155.294C117.447 155.294 133.361 147.854 141.835 139.917C145.389 136.61 149.771 132.56 155.227 129.211C156.55 128.426 157.914 127.641 159.319 126.979C160.229 126.525 161.18 126.111 162.13 125.739C164.073 124.912 166.14 124.251 168.372 123.796C169.033 123.631 169.695 123.507 170.356 123.424C176.102 122.474 182.591 122.639 189.949 124.747C192.14 125.367 194.083 126.153 195.777 127.021C194.62 125.698 192.512 123.631 189.494 121.812ZM76.69 77.7074C77.186 77.7488 77.7647 77.7074 78.4261 77.5421C78.4261 77.5834 78.4674 77.5834 78.4674 77.6248C78.5087 77.6661 78.5501 77.7074 78.5501 77.7488C78.7154 77.9554 78.8394 78.1208 79.0048 78.3275C79.0461 78.3688 79.0874 78.4515 79.1288 78.4928C79.2114 78.5755 79.2528 78.6995 79.3354 78.7821C78.8808 78.9888 78.4261 79.1542 77.93 79.2368C77.6407 79.2782 77.3513 79.2782 77.062 79.2782C74.6232 79.1955 72.5151 77.3767 72.1431 74.8553C72.1431 74.8553 72.1431 74.8553 72.1431 74.814C72.1017 74.6486 72.1017 74.4833 72.1017 74.3179C72.0604 73.3672 72.2671 72.4165 72.6804 71.6311C72.8044 71.7551 72.9285 71.8378 73.0525 71.9618C73.0938 72.0031 73.0938 72.0031 73.1351 72.0445C73.3418 72.2512 73.5485 72.4165 73.7965 72.6232C73.8378 72.6232 73.8378 72.6645 73.8792 72.6645C74.1272 72.9125 74.4165 73.1605 74.6645 73.4085C74.7472 73.4912 74.8299 73.5739 74.9126 73.6566C75.2019 73.9459 75.5326 74.2766 75.8219 74.6073C75.8219 74.6486 75.8633 74.6899 75.8633 74.7313C75.9459 75.2686 75.6979 75.7647 75.3259 76.0953C75.2846 76.1367 75.2432 76.178 75.1606 76.2194C74.9952 76.302 74.8299 76.3847 74.6232 76.3847C74.3339 76.426 74.0858 76.3847 73.8378 76.2607C74.1685 76.5914 75.0779 77.5834 76.69 77.7074ZM116.579 136.114C116.579 136.238 116.579 136.362 116.579 136.486L116.083 138.098L115.628 139.628C115.628 139.628 112.528 143.472 99.7965 143.141C87.0652 143.472 83.965 139.628 83.965 139.628L83.5103 138.098L83.0143 136.486C82.973 136.156 82.973 135.825 82.973 135.494C83.0143 130.947 85.5771 129.542 85.5771 129.542C85.5771 129.542 85.5771 131.898 86.7345 135.742C86.7345 135.742 88.8426 137.892 96.5723 138.677C97.5644 138.76 98.6391 138.842 99.7965 138.925C100.954 138.884 102.029 138.801 103.021 138.677C110.75 137.892 112.858 135.742 112.858 135.742C114.016 131.857 114.016 129.542 114.016 129.542C114.016 129.542 116.827 131.113 116.579 136.114ZM99.7965 103.707C100.003 103.707 100.21 103.707 100.458 103.707C100.541 103.707 100.665 103.707 100.747 103.707C100.913 103.707 101.037 103.707 101.202 103.707C101.367 103.707 101.574 103.707 101.739 103.749C101.863 103.749 101.946 103.749 102.07 103.79C102.277 103.79 102.525 103.831 102.773 103.873C102.855 103.873 102.938 103.873 103.062 103.914C103.31 103.955 103.599 103.997 103.889 104.038C103.971 104.038 104.054 104.079 104.137 104.079C104.426 104.121 104.757 104.162 105.087 104.245C105.17 104.245 105.253 104.286 105.335 104.286C105.666 104.369 106.038 104.41 106.41 104.493C106.493 104.493 106.534 104.534 106.617 104.534C106.989 104.617 107.402 104.699 107.816 104.823C108.229 104.947 108.684 105.03 109.138 105.195C109.345 105.237 109.51 105.319 109.717 105.402C109.882 105.443 110.006 105.526 110.172 105.567C110.213 105.567 110.254 105.609 110.296 105.609C110.502 105.692 110.668 105.774 110.874 105.857C111.288 106.064 111.701 106.27 112.073 106.477C112.238 106.56 112.404 106.684 112.569 106.766L112.61 106.808C112.734 106.89 112.858 106.973 112.982 107.056C113.024 107.056 113.024 107.097 113.065 107.097C113.189 107.18 113.313 107.304 113.396 107.386C113.396 108.378 113.313 109.205 113.189 109.908C112.982 111.189 112.652 112.305 112.156 112.925C111.99 113.215 111.701 113.339 111.412 113.38C111.37 113.38 111.37 113.38 111.329 113.38H111.288C111.246 113.38 111.246 113.38 111.205 113.38C111.122 113.38 111.04 113.339 110.957 113.297C110.916 113.297 110.916 113.256 110.874 113.256C110.792 113.215 110.75 113.173 110.668 113.132C110.626 113.091 110.585 113.049 110.544 113.008C110.502 112.967 110.502 112.925 110.461 112.884C110.42 112.801 110.337 112.76 110.296 112.636C110.254 112.553 110.213 112.429 110.172 112.264C110.13 112.098 110.089 111.768 109.965 111.313C109.882 110.9 109.758 110.362 109.634 109.866C109.593 109.742 109.552 109.577 109.51 109.453C109.056 108.13 107.898 106.229 107.898 106.229C107.898 106.229 107.65 108.172 106.493 108.792C106.369 108.874 106.245 108.916 106.079 108.957C105.914 108.792 105.79 108.668 105.625 108.502C105.459 108.337 105.294 108.213 105.129 108.089C105.087 108.089 105.087 108.048 105.046 108.048C104.426 107.552 103.765 107.221 103.021 107.056C102.938 107.056 102.855 107.014 102.773 107.014C102.649 106.973 102.525 106.973 102.359 106.932C102.235 106.932 102.111 106.89 101.987 106.89C101.863 106.89 101.739 106.849 101.615 106.849C101.367 106.849 101.078 106.808 100.789 106.808C100.458 106.808 100.086 106.808 99.7138 106.808C99.4658 106.808 99.2178 106.808 98.9698 106.808C98.5564 106.808 98.1431 106.808 97.771 106.849C97.647 106.849 97.5644 106.849 97.4403 106.89C97.275 106.89 97.151 106.932 96.9857 106.932C96.8617 106.932 96.7376 106.973 96.6136 107.014C96.531 107.056 96.407 107.056 96.3243 107.097C96.2003 107.138 96.035 107.18 95.9109 107.221C95.8696 107.221 95.8696 107.262 95.8283 107.262C95.4976 107.386 95.1256 107.552 94.8362 107.758C94.6709 107.841 94.5055 107.965 94.3815 108.089C94.3402 108.13 94.3402 108.13 94.2989 108.172C94.1335 108.296 93.9682 108.42 93.8028 108.585C93.7615 108.626 93.7202 108.668 93.6788 108.709C93.5548 108.792 93.4722 108.916 93.3481 108.998C92.5628 108.833 92.1081 108.13 91.8187 107.469C91.7361 107.221 91.6534 106.973 91.6121 106.766V106.725C91.6121 106.642 91.5707 106.56 91.5707 106.518C91.5707 106.477 91.5707 106.477 91.5707 106.477C91.5707 106.436 91.5707 106.394 91.5707 106.353V106.312C91.5707 106.312 91.4881 106.436 91.4054 106.601C91.4054 106.601 91.4054 106.601 91.4054 106.642C91.3641 106.725 91.2814 106.808 91.24 106.932C91.24 106.973 91.1987 107.014 91.1574 107.056C91.116 107.138 91.0334 107.262 90.992 107.345C90.9507 107.386 90.9507 107.469 90.9094 107.51C90.868 107.593 90.7854 107.717 90.744 107.8C90.7027 107.882 90.6613 107.924 90.6613 108.006C90.62 108.13 90.5373 108.213 90.496 108.337C90.4547 108.42 90.4133 108.461 90.4133 108.544C90.372 108.668 90.2893 108.792 90.248 108.874C90.2067 108.916 90.2067 108.998 90.1653 109.04C90.0827 109.205 90.0413 109.37 89.9586 109.536C89.9173 109.66 89.876 109.825 89.8346 109.949C89.5453 110.941 89.3799 112.016 89.2973 112.346C89.2559 112.512 89.2146 112.636 89.1733 112.719C89.1319 112.801 89.0906 112.884 89.0079 112.967C88.9666 113.008 88.9666 113.049 88.9253 113.091C88.8839 113.132 88.8426 113.173 88.8012 113.215C88.7599 113.256 88.6772 113.297 88.6359 113.339C88.5946 113.339 88.5946 113.38 88.5532 113.38C88.4706 113.421 88.3879 113.421 88.3052 113.463C88.2639 113.463 88.2639 113.463 88.2226 113.463H88.1812C88.1399 113.463 88.1399 113.463 88.0986 113.463C87.8092 113.463 87.5612 113.297 87.3545 113.008C86.8585 112.429 86.5278 111.272 86.3211 109.99C86.1971 109.329 86.1144 108.461 86.1144 107.469C86.1971 107.386 86.2798 107.304 86.4451 107.18C86.4865 107.18 86.4865 107.138 86.5278 107.138C86.6518 107.056 86.7758 106.973 86.8998 106.89L86.9412 106.849C87.1065 106.766 87.2718 106.642 87.4372 106.518C87.8092 106.312 88.2226 106.105 88.6359 105.898H88.6772C88.8426 105.816 89.0493 105.733 89.2146 105.65C89.2973 105.609 89.3386 105.609 89.4213 105.567C89.5453 105.526 89.6693 105.485 89.7933 105.402C90 105.319 90.2067 105.278 90.372 105.195C90.8267 105.071 91.24 104.947 91.6947 104.823C92.1081 104.699 92.5214 104.617 92.9348 104.534C92.9761 104.534 93.0588 104.493 93.1001 104.493C93.4721 104.41 93.8442 104.327 94.2162 104.286C94.2575 104.286 94.3402 104.245 94.3815 104.245C94.7122 104.203 95.0429 104.121 95.3736 104.079C95.4562 104.079 95.4976 104.079 95.5803 104.038C95.8696 103.997 96.2003 103.955 96.4483 103.914C96.531 103.914 96.5723 103.914 96.655 103.873C96.903 103.831 97.1923 103.831 97.399 103.79C97.4817 103.79 97.5644 103.79 97.647 103.79C97.8537 103.79 98.0604 103.749 98.2671 103.749C98.3911 103.749 98.4737 103.749 98.5977 103.749C98.7631 103.749 98.8871 103.749 99.0524 103.749C99.3831 103.707 99.5898 103.707 99.7965 103.707ZM89.9173 86.1812C89.8346 86.2225 89.752 86.2225 89.6693 86.2225C89.5453 86.2225 89.4626 86.1812 89.3799 86.1399C89.2146 86.0158 89.2146 85.8505 89.2973 85.6852C90.6613 83.6184 95.0016 82.1717 99.7965 82.1717C104.591 82.1717 108.932 83.6184 110.296 85.6852C110.378 85.8092 110.337 86.0158 110.213 86.1399C110.13 86.2225 110.006 86.2225 109.924 86.2225C109.841 86.2225 109.758 86.2225 109.676 86.1812C107.898 85.2305 104.343 84.1971 99.7965 84.1971C95.2496 84.1971 91.7361 85.2305 89.9173 86.1812ZM99.7965 120.572C103.765 120.572 100.086 116.852 101.078 115.819C102.401 114.372 109.097 115.901 109.138 119.498C109.18 123.92 104.219 124.995 99.8791 124.995H99.7965C95.4563 124.995 90.4547 123.962 90.496 119.498C90.5373 115.901 97.2337 114.413 98.5564 115.819C99.5071 116.852 95.5803 120.572 99.7965 120.572ZM94.5469 132.063C94.5469 132.063 94.6295 130.575 95.4149 129.914C95.4149 129.914 96.283 131.526 98.0604 132.022C98.9698 132.27 99.8378 132.229 99.8378 132.229C99.8378 132.229 100.706 132.27 101.615 132.022C103.393 131.526 104.261 129.914 104.261 129.914C105.005 130.575 105.129 132.063 105.129 132.063C107.898 130.038 108.188 126.649 109.386 126.153C110.089 125.863 110.668 126.194 110.337 129.914C110.213 131.361 109.841 132.477 109.593 133.262C105.046 135.37 99.8791 134.998 99.8791 134.998C99.8791 134.998 94.7122 135.329 90.1653 133.262C89.9173 132.477 89.5453 131.319 89.3799 129.914C89.0493 126.194 89.628 125.822 90.3307 126.153C91.4467 126.649 91.7774 130.038 94.5469 132.063ZM124.928 76.3434C124.763 76.302 124.598 76.2607 124.432 76.178C124.35 76.1367 124.308 76.0954 124.267 76.054C123.854 75.7233 123.647 75.2273 123.73 74.6899C123.73 74.6486 123.771 74.6073 123.771 74.5659C123.978 74.3593 124.143 74.1526 124.35 73.9872C124.474 73.8632 124.598 73.7392 124.722 73.6152C124.804 73.5325 124.887 73.4499 124.97 73.3672C125.218 73.1192 125.466 72.8712 125.755 72.6232C125.796 72.5818 125.838 72.5405 125.879 72.4992C126.086 72.3338 126.251 72.1685 126.458 71.9618C126.499 71.9205 126.54 71.8791 126.582 71.8378C126.706 71.7551 126.83 71.6311 126.954 71.5484C127.367 72.3752 127.615 73.2845 127.533 74.2352C127.533 74.4006 127.533 74.5659 127.491 74.7313C127.491 74.7313 127.491 74.7313 127.491 74.7726C127.119 77.2941 125.052 79.1128 122.655 79.1955C122.366 79.1955 122.076 79.1955 121.746 79.1542C121.25 79.0715 120.754 78.9475 120.34 78.6995C120.423 78.6168 120.464 78.5341 120.547 78.4515C120.588 78.3688 120.671 78.2861 120.712 78.2448C120.836 78.0794 120.96 77.9141 121.084 77.7488C121.126 77.6661 121.167 77.6248 121.25 77.5421L121.291 77.5008C121.952 77.6661 122.572 77.7074 123.068 77.6661C124.639 77.5008 125.548 76.55 125.796 76.2194C125.466 76.3434 125.176 76.3847 124.928 76.3434ZM159.319 97.3004C159.319 97.4658 159.278 97.6311 159.278 97.7964C159.237 98.1271 159.195 98.4991 159.154 98.8298C159.113 98.9952 159.113 99.2018 159.071 99.3672C159.03 99.6979 158.947 100.029 158.865 100.401C158.823 100.566 158.782 100.731 158.741 100.897C158.658 101.31 158.534 101.682 158.41 102.095C158.369 102.219 158.369 102.302 158.327 102.426C158.162 102.922 157.997 103.418 157.831 103.914C157.79 104.038 157.707 104.203 157.666 104.327C157.542 104.699 157.377 105.03 157.253 105.402C157.17 105.567 157.087 105.774 157.005 105.94C156.839 106.27 156.715 106.601 156.55 106.89C156.467 107.056 156.385 107.262 156.302 107.428C156.137 107.758 155.93 108.13 155.765 108.461C155.682 108.626 155.599 108.75 155.517 108.916C155.351 109.205 155.186 109.494 155.021 109.742L154.029 107.8L153.45 106.684L151.714 103.294L154.359 103.955L150.019 95.523L149.812 95.151L150.763 95.399L152.458 95.8123L152.168 95.1096L147.415 83.9491L142.207 96.143L144.852 95.3163L144.191 96.5977L140.14 104.451L142.827 103.625L138.073 112.884L140.843 112.14L136.006 121.399C136.874 121.151 138.445 120.614 138.445 120.614L136.668 123.92L134.146 118.133L134.105 118.051V118.009H134.146L136.75 118.795L132.121 108.213L134.808 108.998L131.005 98.4165L129.723 94.8203L128.773 97.4658L128.318 98.7058L125.879 105.526C125.672 103.831 125.3 101.93 124.474 99.0778C124.102 97.7551 123.647 96.2257 123.068 94.3656C122.531 92.6708 122.2 91.0588 121.994 89.5293C121.704 87.2972 121.704 85.2305 121.828 83.4531C121.994 83.4531 122.118 83.4531 122.283 83.4531C123.812 83.4531 125.259 83.0397 126.54 82.3783C129.103 81.0143 130.963 78.4928 131.418 75.434C131.749 73.2845 131.253 71.1351 130.219 69.3163C131.129 68.8616 131.997 68.4896 132.947 68.2416C134.725 67.7456 136.585 67.7456 138.404 68.407C136.626 66.2989 134.808 65.2241 132.989 64.9348C129.723 64.3561 126.499 66.1749 123.606 68.7376C123.027 69.275 122.407 69.8124 121.87 70.3911C120.878 71.3831 119.968 72.1685 119.1 72.7472C117.529 73.7806 116.165 74.1939 115.091 74.1526C114.636 74.1526 114.223 74.0699 113.892 73.9046C113.065 73.5739 112.486 72.9952 112.156 72.2098C111.577 70.9284 111.784 69.1923 112.941 67.7869C110.916 67.9936 109.758 69.895 109.552 72.0858C109.51 72.6645 109.51 73.2845 109.593 73.8632C109.676 74.6899 109.924 75.4753 110.254 76.2194C110.874 77.5834 111.866 78.7408 113.313 79.2782C113.975 79.5262 114.595 79.6915 115.173 79.7742C115.752 80.5182 116.413 81.1383 117.157 81.6756C116.909 83.7011 116.827 86.0985 117.075 88.7026C117.281 90.8934 117.695 93.2495 118.48 95.7297C118.893 97.0937 119.265 98.2511 119.555 99.3258C120.009 100.897 120.34 102.178 120.588 103.294C120.588 103.335 120.588 103.377 120.63 103.418C120.671 103.542 120.712 103.707 120.712 103.831C120.712 103.914 120.754 103.997 120.754 104.079C120.795 104.203 120.795 104.327 120.836 104.41C120.836 104.493 120.878 104.575 120.878 104.658C120.878 104.741 120.919 104.865 120.919 104.947C120.96 105.113 120.96 105.278 121.002 105.443C121.043 105.65 121.043 105.816 121.084 106.022C121.126 106.188 121.126 106.353 121.126 106.518C121.126 106.518 121.126 106.518 121.126 106.56C121.126 106.684 121.167 106.849 121.167 106.973C121.167 107.014 121.167 107.014 121.167 107.056C121.167 107.304 121.167 107.552 121.167 107.758C121.167 107.8 121.167 107.8 121.167 107.841C121.167 107.924 121.167 108.006 121.126 108.089C121.126 108.172 121.084 108.254 121.084 108.337C121.084 108.378 121.084 108.378 121.084 108.42C121.084 108.461 121.043 108.544 121.043 108.585V108.626C121.043 108.709 121.002 108.75 121.002 108.833C121.002 108.874 121.002 108.874 121.002 108.916C121.002 108.957 120.96 108.998 120.96 109.04C120.96 109.081 120.96 109.081 120.919 109.122C120.919 109.164 120.878 109.246 120.878 109.288C120.836 109.37 120.836 109.412 120.795 109.494C120.795 109.494 120.795 109.494 120.795 109.536C120.754 109.618 120.754 109.66 120.712 109.742C120.712 109.742 120.712 109.784 120.671 109.866C120.423 110.321 119.224 112.264 117.033 113.256C117.323 112.016 117.653 110.9 117.86 109.866C118.232 107.882 118.108 106.064 115.669 104.079C113.561 102.385 109.138 100.897 104.633 100.153C104.261 100.07 103.847 100.029 103.475 99.9872C102.69 99.8632 101.905 99.7805 101.119 99.6979V99.2432V96.8871V95.1923C101.119 94.2829 101.533 92.2988 104.633 92.2988C104.839 92.2988 105.005 92.3402 105.211 92.3815C105.253 92.3815 105.294 92.3815 105.335 92.4228C105.501 92.4642 105.707 92.5468 105.873 92.6295C105.914 92.6295 105.955 92.6708 105.955 92.6708C106.121 92.7535 106.245 92.8362 106.41 92.9189C106.451 92.9189 106.451 92.9602 106.493 92.9602C106.658 93.0842 106.782 93.1669 106.947 93.2909C106.989 93.3322 107.03 93.3736 107.072 93.3736C107.196 93.4976 107.32 93.6216 107.444 93.7456C107.485 93.7869 107.485 93.7869 107.526 93.8282C107.609 93.9109 107.733 94.0349 107.816 94.1176C107.857 94.1589 107.898 94.2003 107.94 94.2416C108.022 94.3243 108.105 94.4483 108.188 94.5309C108.229 94.6136 108.27 94.6549 108.312 94.6963C108.312 94.7376 108.353 94.7376 108.353 94.779C108.394 94.8203 108.436 94.8616 108.436 94.903C108.436 94.9443 108.477 94.9443 108.477 94.9856C108.56 95.1096 108.601 95.1923 108.601 95.1923C108.601 95.1923 112.982 93.7456 113.644 86.9252C113.727 86.0985 113.768 85.1891 113.685 84.1557C111.825 82.3783 109.758 81.1796 107.816 80.3529C107.237 80.1049 106.658 79.8982 106.121 79.7329C102.607 78.5755 99.8791 78.6168 99.8791 78.6168C99.8791 78.6168 97.1097 78.5755 93.6375 79.7329C93.1001 79.8982 92.5214 80.1049 91.9427 80.3529C90 81.1796 87.9332 82.3783 86.0731 84.1557C86.0318 85.1891 86.0318 86.0985 86.1144 86.9252C86.7345 93.7456 91.1574 95.1923 91.1574 95.1923C91.1574 95.1923 91.1987 95.1096 91.2814 94.9856C91.2814 94.9443 91.3227 94.9443 91.3227 94.903C91.364 94.8616 91.4054 94.8203 91.4054 94.779C91.4054 94.7376 91.4467 94.7376 91.4467 94.6963C91.488 94.6549 91.5294 94.5723 91.5707 94.5309C91.6534 94.4483 91.7361 94.3243 91.8187 94.2416C91.8601 94.2003 91.9014 94.1589 91.9014 94.1176C91.9841 93.9936 92.1081 93.9109 92.1908 93.7869L92.2321 93.7456C92.3561 93.6216 92.4801 93.4976 92.6454 93.3736C92.6868 93.3322 92.7281 93.3322 92.7695 93.2909C92.8935 93.1669 93.0588 93.0429 93.2241 92.9602C93.2655 92.9602 93.2655 92.9189 93.3068 92.9189C93.4721 92.8362 93.5962 92.7535 93.7615 92.6708C93.8028 92.6708 93.8442 92.6295 93.8442 92.6295C94.0095 92.5468 94.1749 92.4642 94.3815 92.4228C94.4229 92.4228 94.4642 92.4228 94.5055 92.3815C94.7122 92.3402 94.8776 92.2988 95.0842 92.2988C98.1844 92.2988 98.5977 94.2829 98.5977 95.1923V96.9284V99.2845V99.7392C97.8124 99.8219 97.027 99.9045 96.2416 100.029C95.8696 100.07 95.4563 100.153 95.0842 100.194C90.5787 100.938 86.1558 102.426 84.0477 104.121C81.6502 106.064 81.4849 107.882 81.8569 109.908C82.0636 110.982 82.4356 112.098 82.6836 113.297C80.4928 112.264 79.3354 110.362 79.0461 109.908C79.0048 109.825 79.0048 109.784 79.0048 109.784C78.9221 109.536 78.8394 109.329 78.7567 109.081C78.7567 109.04 78.7567 109.04 78.7154 108.998C78.7154 108.957 78.6741 108.916 78.6741 108.916C78.6741 108.874 78.6327 108.792 78.6327 108.75C78.6327 108.709 78.6327 108.709 78.6327 108.668C78.6327 108.626 78.5914 108.585 78.5914 108.502C78.5914 108.461 78.5914 108.461 78.5914 108.42C78.5914 108.337 78.5501 108.254 78.5501 108.172V108.13C78.5501 108.048 78.5501 107.965 78.5087 107.882C78.5087 107.841 78.5087 107.841 78.5087 107.8C78.5087 107.717 78.5087 107.593 78.5087 107.51C78.5087 107.386 78.5087 107.262 78.5087 107.138C78.5087 107.097 78.5087 107.097 78.5087 107.056C78.5087 106.932 78.5087 106.808 78.5501 106.642C78.5501 106.436 78.5914 106.229 78.6327 106.022C78.6327 105.981 78.6327 105.898 78.6741 105.857C78.7154 105.691 78.7154 105.485 78.7567 105.278C78.7567 105.195 78.7981 105.154 78.7981 105.071C78.8394 104.865 78.8808 104.658 78.9221 104.41C78.9221 104.327 78.9634 104.286 78.9634 104.203C79.0048 103.955 79.0874 103.707 79.1288 103.418C79.1288 103.377 79.1288 103.377 79.1701 103.335C79.4181 102.261 79.7488 100.979 80.2035 99.3672C80.4928 98.2925 80.8649 97.0937 81.2782 95.771C82.0636 93.2909 82.4769 90.9348 82.6836 88.744C82.9316 86.1398 82.8489 83.7424 82.6009 81.717C83.345 81.1796 84.0063 80.5596 84.585 79.8155C85.1637 79.7329 85.7838 79.5675 86.4451 79.3195C87.8919 78.7408 88.8839 77.5834 89.504 76.2607C89.8346 75.5167 90.0413 74.7313 90.1653 73.9046C90.248 73.2845 90.248 72.7058 90.2067 72.1272C90 69.9364 88.8426 68.0349 86.8172 67.8283C87.9745 69.2337 88.1399 70.9284 87.6025 72.2512C87.2718 72.9952 86.6931 73.6152 85.8664 73.9459C85.4944 74.0699 85.0811 74.1526 84.6677 74.1939C83.5517 74.2353 82.1876 73.8219 80.6582 72.7885C79.7901 72.2098 78.8394 71.4244 77.8474 70.4324C77.2687 69.8537 76.7313 69.3163 76.1113 68.779C73.2178 66.2575 69.9936 64.4388 66.7281 64.9761C64.9094 65.3068 63.0493 66.3402 61.3132 68.4483C63.132 67.7869 64.9921 67.7869 66.7695 68.283C67.6789 68.531 68.5882 68.903 69.4976 69.3577C68.4229 71.1764 67.9682 73.3259 68.2989 75.4753C68.7536 78.5341 70.655 81.0969 73.2178 82.4197C74.4992 83.081 75.9046 83.4531 77.434 83.4531C77.5994 83.4531 77.7647 83.4531 77.93 83.4531C78.054 85.2305 78.054 87.2972 77.7647 89.5293C77.558 91.0588 77.2273 92.6708 76.69 94.3656C76.1113 96.1844 75.6566 97.7138 75.2846 99.0778C74.6645 101.269 74.2925 102.922 74.0445 104.327L72.0604 98.7885L71.275 96.5564L69.8696 92.6708L67.8442 98.3338L64.7854 106.89L67.4722 106.105L62.8426 116.687L65.5294 115.901L63.5453 120.448L59.7838 113.256L62.5533 114L57.7997 104.741L60.4452 105.567L55.8983 96.7217L55.7743 96.4737L57.2623 96.9284L58.4197 97.3004L58.3371 97.0937L53.2115 85.1065L48.8299 95.4403L48.1685 96.9697L50.814 96.3084L46.2258 105.154L48.8712 104.493L47.0938 107.965L45.4817 111.106C44.9444 110.28 44.4484 109.494 44.035 108.668C42.7536 106.353 41.7616 103.955 41.1415 101.558C40.8522 100.401 40.6455 99.2432 40.5215 98.0858C40.4388 97.3831 40.3975 96.639 40.3975 95.895C40.3975 95.647 40.3975 95.3576 40.3975 95.1096C40.3975 94.6136 40.4388 94.1176 40.4802 93.6216C40.5215 93.0015 40.6042 92.4228 40.7282 91.8028C40.7282 91.7615 40.7282 91.7201 40.7282 91.6788C42.3816 81.2623 49.0366 68.0349 49.0366 68.0349L53.5008 61.2146C53.5008 61.2146 52.5914 61.2973 51.2687 61.7106C49.6153 62.2067 47.3418 63.116 45.1097 64.8935C43.8697 63.8601 42.9189 62.6613 42.2989 61.3799C42.2989 61.3386 42.2989 61.3386 42.2576 61.2973C41.7616 60.1812 41.4309 59.0238 41.3482 57.7424C41.3482 57.4944 41.3069 57.2464 41.3482 56.9984C41.3482 56.6677 41.3895 56.337 41.3895 56.0477C41.3895 55.965 41.3895 55.8823 41.4309 55.841C41.4722 55.5103 41.5135 55.221 41.5549 54.8903V54.8489C41.6376 54.5183 41.6789 54.2289 41.7616 53.8982C41.7616 53.8569 41.8029 53.8156 41.8029 53.7742C41.8856 53.4435 42.0096 53.1542 42.0922 52.8235C42.0922 52.8235 42.0922 52.8235 42.0922 52.7822C42.8776 50.6741 44.1177 48.814 45.3991 47.5326C45.5231 47.4086 45.6471 47.3259 45.8538 47.2432C46.2258 47.0366 46.7218 46.9125 47.2178 46.7885C47.4245 46.9125 47.6725 47.0779 47.8792 47.2019C49.946 48.4833 52.2608 49.6407 54.4515 50.5914C54.4515 50.5914 54.4515 50.5914 54.4929 50.5914C54.9062 50.7981 55.3609 50.9634 55.7743 51.1288C55.8569 51.1701 55.9396 51.2114 56.0223 51.2528C56.353 51.3768 56.6836 51.5421 57.0143 51.6661C57.4277 51.8315 57.841 51.9968 58.213 52.1621C58.2544 52.1621 58.2957 52.2035 58.3371 52.2035C59.2464 52.5342 60.0318 52.8235 60.7345 53.0715C60.3212 54.2289 60.1558 55.3036 60.2798 56.1303C60.3625 56.6264 60.5278 57.0811 60.8172 57.3704C60.8585 57.3291 60.8585 57.3291 60.8998 57.2877C61.0239 57.1637 61.1479 57.0397 61.3132 56.9157C61.4372 56.833 61.5199 56.709 61.6439 56.6264C61.7679 56.5024 61.9332 56.3784 62.0572 56.2957C62.1812 56.213 62.2639 56.089 62.3879 56.0063C62.7186 55.717 63.0906 55.4276 63.4626 55.097C63.5867 54.973 63.7107 54.8903 63.876 54.7663C64.2067 54.4769 64.5787 54.2289 64.9507 53.9396C64.9507 53.9396 64.9507 53.9396 64.9921 53.8982C65.0747 53.8569 65.1161 53.8156 65.1987 53.7329C65.6121 53.4022 66.0668 53.1129 66.5215 52.7822C66.6455 52.6995 66.7695 52.6168 66.9348 52.5342C67.4308 52.2035 67.9269 51.9141 68.4229 51.5835C68.4642 51.5835 68.5056 51.5421 68.5469 51.5421C68.8776 51.4181 69.2083 51.2528 69.5803 51.1288H69.6216C69.8283 51.0461 70.035 51.0048 70.2417 50.9221C70.4897 50.8394 70.6963 50.7567 70.9444 50.6741C71.2337 50.5914 71.5231 50.5087 71.8124 50.4261C71.9777 50.3847 72.1431 50.3434 72.3498 50.3021C72.6804 50.2194 72.9698 50.178 73.3005 50.0954C73.4658 50.054 73.5898 50.0127 73.7552 50.0127C73.7965 50.0127 73.8792 49.9714 73.9205 49.9714C74.0032 49.9714 74.0445 49.93 74.1272 49.93C74.6232 49.8474 75.1192 49.7647 75.6153 49.682C75.6566 49.682 75.7393 49.682 75.7806 49.6407C76.2353 49.558 76.7313 49.5167 77.186 49.4753C77.2687 49.4753 77.31 49.4753 77.3927 49.434C77.8887 49.3927 78.3847 49.3513 78.9221 49.3513C79.0461 49.3513 79.1288 49.3513 79.2528 49.3513C79.7901 49.31 80.2862 49.31 80.8235 49.31C81.2782 49.31 81.6916 49.31 82.1049 49.31C82.2289 49.31 82.3943 49.31 82.5183 49.31C82.8076 49.31 83.0556 49.31 83.345 49.3513C83.5103 49.3513 83.6757 49.3513 83.841 49.3927C84.089 49.3927 84.2957 49.434 84.5437 49.434C84.709 49.434 84.8744 49.4753 85.0397 49.4753C85.2464 49.4753 85.4531 49.5167 85.6598 49.5167C85.8251 49.5167 85.9904 49.558 86.1558 49.558C86.3625 49.558 86.5278 49.5994 86.7345 49.5994C86.8998 49.5994 87.0652 49.6407 87.1892 49.6407C87.3545 49.682 87.5612 49.682 87.7265 49.7234C87.8919 49.7234 88.0159 49.7647 88.1812 49.806C88.3466 49.8474 88.5119 49.8474 88.6772 49.8887C88.8426 49.93 88.9666 49.93 89.0906 49.9714C89.2559 50.0127 89.4213 50.0127 89.5453 50.054C89.6693 50.0954 89.8346 50.0954 89.9586 50.1367C90.124 50.178 90.248 50.1781 90.4133 50.2194C90.5373 50.2607 90.6613 50.2607 90.7854 50.3021C90.9094 50.3434 91.0747 50.3434 91.1987 50.3847C91.3227 50.4261 91.4467 50.4261 91.5707 50.4674C91.6947 50.5087 91.8187 50.5087 91.9427 50.5501C92.0667 50.5914 92.1907 50.5914 92.2734 50.6327C92.3974 50.6741 92.5214 50.6741 92.6454 50.7154C92.7695 50.7567 92.8521 50.7567 92.9761 50.7981C93.1001 50.8394 93.1828 50.8394 93.3068 50.8807C93.4308 50.9221 93.5135 50.9221 93.5962 50.9634C93.7202 51.0048 93.8028 51.0461 93.8855 51.0461C93.9682 51.0874 94.0922 51.0874 94.1749 51.1288C94.2575 51.1701 94.3815 51.2114 94.4642 51.2114C94.5469 51.2528 94.6295 51.2528 94.7122 51.2941C94.7536 51.2941 94.7949 51.2941 94.7949 51.3354C94.8362 51.3354 94.8776 51.3768 94.9189 51.3768C95.0016 51.4181 95.0429 51.4181 95.1256 51.4595C95.2082 51.5008 95.2496 51.5008 95.3323 51.5421C95.4149 51.5834 95.4976 51.5835 95.5389 51.6248C95.5803 51.6248 95.6216 51.6661 95.7043 51.6661C94.5055 51.4181 93.3068 51.3354 92.1908 51.3354C88.2639 51.2528 85.7424 52.6582 85.7424 52.6582C96.4483 53.8156 99.6311 59.5612 99.6311 59.5612L99.7551 59.8092L99.8791 59.5612C99.8791 59.5612 103.062 53.8156 113.768 52.6582C113.768 52.6582 111.246 51.2114 107.32 51.3354C106.203 51.2941 105.046 51.4181 103.806 51.6661C103.847 51.6661 103.889 51.6248 103.971 51.6248C104.054 51.5835 104.137 51.5834 104.178 51.5421C104.261 51.5008 104.302 51.5008 104.385 51.4595C104.467 51.4181 104.509 51.4181 104.591 51.3768C104.633 51.3768 104.674 51.3354 104.715 51.3354C104.757 51.3354 104.798 51.2941 104.798 51.2941C104.881 51.2528 104.963 51.2528 105.046 51.2114C105.129 51.1701 105.253 51.1701 105.335 51.1288C105.418 51.0874 105.542 51.0874 105.625 51.0461C105.707 51.0048 105.831 50.9634 105.914 50.9634C105.997 50.9221 106.121 50.9221 106.203 50.8807C106.327 50.8394 106.41 50.7981 106.534 50.7981C106.658 50.7567 106.741 50.7567 106.865 50.7154C106.989 50.6741 107.113 50.6741 107.237 50.6327C107.361 50.5914 107.485 50.5914 107.568 50.5501C107.692 50.5087 107.816 50.5087 107.94 50.4674C108.064 50.4261 108.188 50.4261 108.312 50.3847C108.436 50.3434 108.56 50.3434 108.725 50.3021C108.849 50.2607 108.973 50.2607 109.097 50.2194C109.221 50.1781 109.386 50.178 109.552 50.1367C109.676 50.0954 109.841 50.0954 109.965 50.054C110.13 50.0127 110.254 50.0127 110.42 49.9714C110.544 49.93 110.709 49.93 110.833 49.8887C110.998 49.8474 111.164 49.8474 111.329 49.806C111.494 49.7647 111.618 49.7647 111.784 49.7234C111.949 49.682 112.156 49.682 112.321 49.6407C112.486 49.6407 112.61 49.5994 112.776 49.5994C112.982 49.5994 113.148 49.558 113.354 49.558C113.52 49.558 113.685 49.5167 113.851 49.5167C114.057 49.5167 114.264 49.4753 114.471 49.4753C114.636 49.4753 114.801 49.434 114.967 49.434C115.173 49.434 115.421 49.3927 115.669 49.3927C115.835 49.3927 116 49.3927 116.165 49.3513C116.413 49.3513 116.703 49.3513 116.992 49.31C117.116 49.31 117.281 49.31 117.405 49.31C117.819 49.31 118.273 49.31 118.687 49.31C119.224 49.31 119.72 49.31 120.258 49.3513C120.382 49.3513 120.464 49.3513 120.588 49.3513C121.084 49.3927 121.622 49.3927 122.118 49.4753C122.2 49.4753 122.242 49.4753 122.324 49.5167C122.82 49.558 123.275 49.5993 123.771 49.682C123.812 49.682 123.895 49.682 123.936 49.7234C124.432 49.806 124.928 49.8887 125.424 49.9714C125.507 49.9714 125.548 50.0127 125.631 50.0127C125.672 50.0127 125.755 50.054 125.796 50.054C125.962 50.0954 126.127 50.1367 126.292 50.1781C126.623 50.2607 126.912 50.3021 127.243 50.3847C127.45 50.4261 127.615 50.4674 127.781 50.5501C128.07 50.6327 128.359 50.7154 128.649 50.7981C128.69 50.7981 128.731 50.8394 128.773 50.8394C128.938 50.8808 129.145 50.9634 129.31 51.0048C129.517 51.0874 129.765 51.1701 129.971 51.2114H130.013C130.261 51.2941 130.467 51.4181 130.715 51.5008C130.881 51.5834 131.046 51.6248 131.17 51.6661C131.211 51.7075 131.253 51.7075 131.294 51.7488C131.749 52.0381 132.203 52.3275 132.658 52.6168C132.823 52.6995 132.947 52.8235 133.113 52.9062C133.567 53.1955 133.981 53.5262 134.436 53.8156C134.518 53.8569 134.56 53.8982 134.642 53.9809L134.684 54.0222C135.056 54.2703 135.386 54.5596 135.717 54.8076C135.841 54.8903 135.965 55.0143 136.089 55.097C136.461 55.3863 136.833 55.717 137.205 56.0063C137.288 56.089 137.37 56.1717 137.453 56.2543C137.618 56.3784 137.784 56.5024 137.908 56.6677C138.032 56.7917 138.156 56.9157 138.28 56.9984C138.404 57.0811 138.486 57.2051 138.61 57.2877C138.652 57.3291 138.693 57.3704 138.734 57.4117C139.024 57.0811 139.189 56.6677 139.272 56.1717C139.396 55.345 139.23 54.3116 138.817 53.1129C139.52 52.8649 140.305 52.5755 141.215 52.2448C141.256 52.2448 141.297 52.2035 141.339 52.2035C141.711 52.0381 142.124 51.8728 142.537 51.7075C142.868 51.5834 143.24 51.4181 143.612 51.2528C143.695 51.2114 143.736 51.2114 143.819 51.1701C144.232 51.0048 144.645 50.7981 145.1 50.6327C145.1 50.6327 145.1 50.6327 145.141 50.6327C147.374 49.6407 149.688 48.4833 151.714 47.2019C151.92 47.0779 152.127 46.9539 152.334 46.7885C152.83 46.8712 153.326 47.0366 153.698 47.2432C153.863 47.3259 154.029 47.4499 154.153 47.5326C155.434 48.7726 156.674 50.6327 157.459 52.7408C157.583 53.0715 157.666 53.3609 157.749 53.6916C157.749 53.7329 157.79 53.7742 157.79 53.8156C157.873 54.1049 157.955 54.4356 157.997 54.7663V54.8076C158.038 55.1383 158.121 55.4276 158.121 55.7583C158.121 55.841 158.121 55.9237 158.162 55.965C158.203 56.2957 158.203 56.585 158.203 56.9157C158.203 57.1637 158.203 57.4117 158.203 57.6598C158.121 58.9412 157.831 60.0985 157.294 61.2146C157.294 61.2559 157.294 61.2559 157.253 61.2973C156.633 62.62 155.682 63.7774 154.442 64.8108C152.251 63.0334 149.936 62.124 148.283 61.628C146.919 61.2146 146.051 61.1319 146.051 61.1319L150.515 67.9523C150.515 67.9523 157.17 81.1796 158.823 91.5961C158.823 91.6375 158.823 91.6788 158.823 91.7201C158.906 92.3402 158.989 92.9602 159.071 93.5802C159.154 94.3656 159.195 95.1096 159.195 95.8537C159.402 96.3084 159.361 96.8044 159.319 97.3004Z" fill="#5C2F92"/>
</svg>
