<?xml version="1.0" encoding="UTF-8"?>
<svg width="200px" height="200px" viewBox="0 0 200 200" version="1.1" xmlns="http://www.w3.org/2000/svg" xmlns:xlink="http://www.w3.org/1999/xlink">
    <!-- Generator: Sketch 54.1 (76490) - https://sketchapp.com -->
    <title>colorado-st-pueblo</title>
    <desc>Created with Sketch.</desc>
    <g id="colorado-st-pueblo" stroke="none" stroke-width="1" fill="none" fill-rule="evenodd">
        <g id="colorado-st-pueblo_BGL">
            <g id="colorado-st-pueblo" transform="translate(-1.000000, 12.000000)">
                <g fill-rule="nonzero" id="g10">
                    <g transform="translate(100.502510, 88.403372) scale(-1, 1) rotate(-180.000000) translate(-100.502510, -88.403372) translate(0.485519, 0.038846)">
                        <g id="g12" transform="translate(0.873935, 0.000000)">
                            <path d="M198.773573,67.1795677 L153.495007,100.117008 L148.63593,120.979775 L127.421646,134.156771 C127.421646,134.156771 142.125115,137.384504 141.932849,150.841159 C141.932849,150.841159 137.75544,146.708418 124.600779,148.773817 C131.692275,166.272906 127.087609,171.59517 125.438785,175.594878 C105.548027,157.360713 71.0993598,152.376371 69.4228614,152.219063 C67.7508298,152.064667 19.1579147,146.997787 3.74305334,114.027138 L21.2111761,114.147546 C21.2111761,114.147546 -0.262484396,89.3777076 0.372863341,59.9529031 L14.7734806,63.6235267 C21.0935833,24.6389429 48.0694281,-12.2370303 94.1725998,4.37347111 C54.8242649,38.8210609 116.735365,51.7905456 126.012669,19.2458908 L154.111617,32.1736209 L155.120526,38.472458 C179.581963,39.4715597 197.485005,57.0155109 198.773573,67.1795677" id="path14" fill="#173A79"></path>
                            <path d="M14.987012,63.9478536 L15.0325537,63.6641161 C19.1901532,38.0181089 31.5989602,16.8630588 48.226445,7.07302679 C61.38402,-0.674796186 76.6688496,-1.54986523 93.6650378,4.47057499 C83.2510357,13.6946565 79.024007,22.457213 81.7606855,29.1767041 C84.16556,35.0807167 91.9539705,38.699681 101.154077,38.2084325 C110.768332,37.6831006 122.349911,32.5161063 126.179688,19.6119724 L153.874684,32.3530689 L154.895245,38.7258991 L155.109845,38.7345413 C165.959261,39.1784031 176.744588,43.0363401 185.480053,49.5988141 C192.660884,54.9949735 197.747185,61.8278818 198.492943,67.0589647 L153.261958,99.9626125 L153.238653,100.056803 L148.404822,120.813727 L126.735122,134.274267 L127.365326,134.413125 C127.507098,134.444198 141.459953,137.662221 141.669698,150.294464 C140.283054,149.30983 135.509428,146.79484 124.559995,148.513579 L124.233726,148.565044 L124.358019,148.871892 C130.577522,164.219159 127.748886,170.10948 125.877695,174.00723 C125.6864,174.403414 125.504816,174.78309 125.342652,175.152085 C104.865387,156.625636 69.7866125,151.989897 69.4475258,151.957853 C68.9505481,151.912214 19.8095788,147.00944 4.15915315,114.293202 L21.7888471,114.414582 L21.4091709,113.975673 C21.1959308,113.73 0.169552493,89.1299956 0.628899069,60.2889796 L14.987012,63.9478536 Z M72.4011343,0 C63.6257601,0 55.4538864,2.20797703 47.9601862,6.62051303 C31.2614271,16.4523094 18.7884345,37.6265861 14.5606289,63.2980345 L0.117966059,59.6179919 L0.110759107,59.9472711 C-0.473761064,87.0118688 17.8117637,110.4207 20.6470997,113.881482 L3.32922576,113.762044 L3.50560523,114.138807 C19.0850868,147.460973 68.8974323,152.433662 69.3989738,152.480272 C69.7372837,152.512316 104.945012,157.164563 125.261085,175.788115 L125.537831,176.041556 L125.681545,175.694895 C125.870897,175.234623 126.103947,174.749103 126.35059,174.234453 C128.248971,170.279412 131.112564,164.317234 124.967831,148.98259 C137.544725,147.086152 141.706597,150.988756 141.748352,151.028569 L142.18629,151.455826 L142.19503,150.845043 C142.365932,138.902237 130.858152,134.859803 128.075155,134.058696 L148.867037,121.144852 L148.892284,121.039008 L153.728057,100.271403 L199.053232,67.3009475 L199.034782,67.1453871 C198.351171,61.7618512 193.154172,54.7092939 185.794669,49.1793254 C177.032987,42.5967508 166.228239,38.7084204 155.345807,38.2191139 L154.348551,31.9927164 L154.221344,31.9354251 L125.844679,18.8799063 L125.76117,19.1742282 C122.095499,32.0299072 110.632386,37.1645659 101.124946,37.6842658 C92.1508,38.1717273 84.5665019,34.6759878 82.2465932,28.9787093 C79.5712844,22.4116713 83.8681308,13.7432085 94.3455418,4.5707085 L94.6804531,4.27750335 L94.261644,4.12691466 C86.6242301,1.37501028 79.3247377,0 72.4011343,0 L72.4011343,0 Z" id="path16" fill="#173A79"></path>
                            <path d="M144.049714,42.6422925 C144.049714,42.6422925 114.01063,60.0818571 86.7187122,64.4819249 C112.107394,93.9153716 122.398463,69.6059993 126.082584,65.9035257 C129.765734,62.2007607 135.126839,52.159152 147.040513,43.8579359 L144.049714,42.6422925" id="path18" fill="#FFFFFF"></path>
                            <path d="M87.4022263,64.7284717 C113.290119,60.3713237 141.744468,44.3658863 144.075932,43.0355632 L146.306408,43.9425134 C138.036071,49.8373983 132.883739,56.6533135 129.448204,61.1947646 C128.059619,63.0329409 126.858444,64.6206864 125.831085,65.6528034 C125.327116,66.159977 124.735753,66.992934 123.98514,68.0485502 C121.303131,71.8226865 116.81499,78.1405559 109.603085,78.4784774 C103.074792,78.7960071 95.6480932,74.1581318 87.4022263,64.7284717 L87.4022263,64.7284717 Z M144.021553,42.2489247 L143.871042,42.336124 C143.570991,42.5091631 113.574634,59.7936528 86.6621977,64.1321568 L86.0359748,64.2330477 L86.4501229,64.7140032 C95.0119657,74.6386989 102.803872,79.502632 109.6361,79.1870444 C117.191753,78.8316442 121.806129,72.3385994 124.562908,68.4593967 C125.264969,67.4708793 125.871868,66.6170449 126.333112,66.1539565 C127.394457,65.0858139 128.608255,63.4804927 130.01432,61.6223129 C133.702325,56.7446882 138.753668,50.0638445 147.24346,44.1492476 L147.777531,43.7753005 L144.021553,42.2489247 L144.021553,42.2489247 Z" id="path20" fill="#173A79"></path>
                            <polyline id="path22" fill="#173A79" points="98.6012162 75.0427481 113.09494 68.9244272 111.954941 66.6580228 121.452671 62.4495408 120.46124 60.4813424 126.035003 56.5106679 117.052894 60.5074633 117.893814 62.1844473 107.979508 66.4512886 109.020462 68.5211548 94.308351 74.4972185 98.6012162 75.0427481"></polyline>
                            <path d="M117.414121,60.6356405 L123.735583,57.824192 L120.306845,60.2654805 C120.201002,60.3424839 120.166045,60.4839642 120.224307,60.6003918 L121.090474,62.3201985 L111.847156,66.4152631 C111.781125,66.4452682 111.72966,66.4998405 111.705384,66.568493 C111.681108,66.6363686 111.684992,66.711527 111.718008,66.7763924 L112.730801,68.7912978 L98.5633457,74.7711486 L95.3446436,74.3622442 L109.120479,68.7670218 C109.188452,68.7389588 109.24283,68.6835125 109.268077,68.6144716 C109.295266,68.5454308 109.291382,68.4688158 109.257395,68.4028823 L108.342677,66.5821846 L117.997715,62.4278867 C118.065688,62.3991439 118.117153,62.3436976 118.1424,62.275822 C118.167647,62.2067812 118.162792,62.130943 118.130747,62.0660776 L117.414121,60.6356405 Z M126.035003,56.246254 C125.999074,56.246254 125.962175,56.2531484 125.926246,56.268685 L116.944138,60.2654805 C116.879078,60.2947088 116.827613,60.3488927 116.803337,60.4179336 C116.779061,60.4858092 116.782946,60.5609676 116.815961,60.625833 L117.531617,62.0513178 L107.875607,66.2073637 C107.807635,66.2365919 107.756169,66.2919411 107.730922,66.3599139 C107.705675,66.4289547 107.710531,66.5044044 107.742575,66.5696582 L108.655351,68.3842383 L94.2086253,74.2514486 C94.0966646,74.2969903 94.0299542,74.4115729 94.0454908,74.5310107 C94.0614159,74.6505456 94.1555095,74.7445421 94.2749473,74.759399 L98.5672298,75.3059967 C98.6157818,75.3139592 98.6614206,75.3059967 98.7041463,75.2865759 L113.197871,69.1679637 C113.264872,69.1399007 113.317308,69.0856196 113.342555,69.0154135 C113.368773,68.9475379 113.363918,68.8720882 113.331874,68.8060576 L112.316167,66.7869767 L121.559485,62.6911353 C121.626487,62.6612273 121.677952,62.6065578 121.702228,62.5379054 C121.726504,62.4700298 121.721649,62.3949685 121.688633,62.3289378 L120.799162,60.5647546 L126.188427,56.7261414 C126.299125,56.6475843 126.332141,56.4981415 126.265139,56.3805487 C126.215616,56.294806 126.127251,56.246254 126.035003,56.246254 L126.035003,56.246254 Z" id="path24" fill="#173A79"></path>
                            <path d="M78.5866511,7.50999423 C54.8416465,52.7596423 114.617529,50.7952309 128.312089,28.1911968 L147.609542,37.0003632 L147.969797,40.529118 L145.660667,39.2554065 C145.660667,39.2554065 98.4235161,60.3158774 80.373945,61.2376845 C80.373945,61.2376845 105.919935,104.371128 130.364865,67.3085216 C146.192796,45.1764123 150.385741,36.1654641 181.247295,54.2742685 C181.247295,54.2742685 169.924983,59.2413259 170.631899,67.4435931 L185.459661,63.8253085 L189.865264,66.320781 L147.399797,97.2116597 L143.569049,117.201463 C148.08438,70.5042101 109.021433,110.204158 114.839897,128.787898 C103.481657,131.617505 115.233168,128.65001 115.233168,128.65001 C115.233168,128.65001 99.3100745,130.831934 73.0744526,111.050904 L79.7734547,106.340395 C79.7734547,106.340395 65.2932278,97.4961741 55.3143481,65.1703914 L61.1131973,62.6377281 C61.1131973,62.6377281 55.0294454,30.4488619 78.5866511,7.50999423" id="path26" fill="#FFFFFF"></path>
                            <path d="M55.6344996,65.3178922 L61.4102381,62.7943567 L61.3712023,62.5891762 C61.3111921,62.2735886 55.785399,31.3664935 77.5951234,8.87628458 C67.546329,29.12621 75.4891346,37.5461841 81.2277794,40.7866375 C87.5857527,44.3753054 97.1269852,45.0524107 106.751144,42.5906333 C116.387733,40.1293414 124.464833,34.8807798 128.414048,28.5262052 L147.363869,37.1764125 L147.657123,40.0572903 L145.672319,38.9617644 L145.552882,39.0152686 C145.081928,39.2261782 98.1555094,60.0667089 80.3602534,60.9762809 L79.9266846,60.997935 L80.1478872,61.3715907 C80.271112,61.5805583 92.674287,82.2207636 108.310633,82.5989832 C108.457259,82.6027703 108.604857,82.6047123 108.751484,82.6047123 C116.608159,82.6047123 123.950183,77.5093807 130.583348,67.4530122 C131.338816,66.3985612 132.072922,65.3645991 132.782751,64.3643321 C146.655982,44.8271297 151.88988,37.4589848 180.686034,54.2492157 C179.766461,54.7017198 177.599102,55.8514297 175.507485,57.5806555 C171.849582,60.6045672 170.073552,64.0225265 170.369719,67.4667038 L170.395937,67.7709303 L185.420819,64.105259 L189.381686,66.3481643 L147.161893,97.0602748 L147.141501,97.1621368 L144.138078,112.835673 C144.519696,103.523412 142.838828,97.6418299 139.209085,95.7213095 C136.217315,94.1376424 132.081661,95.336681 127.564389,99.0945039 C119.32998,105.942269 112.045248,119.552348 114.466047,128.442208 C113.007547,128.497557 109.407906,128.438324 104.016699,127.003128 C97.4699561,125.260114 86.8817496,121.07785 73.5205478,111.057701 L80.2513999,106.324858 L79.9104682,106.117056 C79.8743456,106.094722 76.2553813,103.840941 71.4684516,97.6845556 C67.0684808,92.0252447 60.7581856,81.8225406 55.6344996,65.3178922 Z M78.4038045,7.32262259 C55.9997073,29.1391249 60.3599626,59.6653785 60.8196523,62.4795459 L54.9945851,65.0235703 L55.0636259,65.2480745 C60.2302318,81.9845099 66.624619,92.3173332 71.0792593,98.0389848 C75.1405317,103.256376 78.3055354,105.655813 79.3073561,106.347192 L72.6287458,111.043136 L72.9162704,111.260648 C86.5028503,121.504136 97.2786614,125.757286 103.924451,127.521663 C107.965914,128.594661 110.982931,128.909277 112.886167,128.973366 C111.847156,129.237489 111.134413,129.421986 110.647923,129.558902 C110.085691,129.69679 109.882744,129.745342 109.848758,129.752139 L109.859439,129.80943 C109.597259,129.916245 109.613767,129.978391 109.637072,130.074524 C109.661347,130.172599 109.677855,130.237658 109.957514,130.205614 L109.975964,130.259992 C110.01869,130.246398 110.30903,130.170657 110.752795,130.057045 C111.496611,129.891969 112.75799,129.578323 114.903986,129.043281 L115.173934,128.975308 L115.163253,128.938409 C115.20695,128.926756 115.252589,128.915104 115.297256,128.904422 L115.19821,128.389772 C115.192384,128.390743 115.126354,128.399482 115.002061,128.409193 C112.541448,119.719367 119.755295,106.271451 127.900368,99.4974849 C132.243825,95.8843469 136.17556,94.7081277 138.963413,96.1855631 C141.729902,97.6486272 144.729441,102.478574 143.308811,117.176216 L143.827346,117.250986 L147.637702,97.3631418 L190.348841,66.2938832 L185.498502,63.5445812 L170.872717,67.1143139 C170.494012,59.3702799 181.24244,54.5617931 181.353138,54.5139209 L181.824092,54.308352 L181.380327,54.0470455 C151.79569,36.6897279 146.501586,44.1394401 132.355494,64.0604941 C131.644694,65.0607611 130.910588,66.0928782 130.151236,67.1560685 C123.617116,77.0625087 116.418806,82.0792833 108.749542,82.0792833 C108.60777,82.0792833 108.46697,82.0774383 108.324227,82.0748165 C94.128903,81.732234 82.5766493,64.2547019 80.8276143,61.474715 C98.5837375,60.2791721 143.003905,40.7187619 145.648043,39.5485631 L148.2815,41.002111 L147.855214,36.8236342 L147.718298,36.7606137 L128.208188,27.8562856 L128.086808,28.0562224 C124.253147,34.3835109 116.228483,39.6282854 106.621996,42.08278 C97.1265968,44.5096 87.7283983,43.8529836 81.4856873,40.3291811 C75.7740374,37.1042644 67.8327854,28.569028 78.8191178,7.6325199 L78.4038045,7.32262259 L78.4038045,7.32262259 Z" id="path28" fill="#173A79"></path>
                            <path d="M119.844631,122.522756 C119.844631,122.522756 129.688051,94.540138 141.334689,103.618573 C141.334689,103.618573 138.704145,108.913648 119.844631,122.522756" id="path30" fill="#FFFFFF"></path>
                            <path d="M121.060371,120.939963 C122.893692,116.398414 128.240232,104.560481 134.809309,102.63394 C136.787315,102.05423 138.681811,102.421283 140.577279,103.760345 C139.612067,105.165438 135.4366,110.414874 121.060371,120.939963 Z M136.58631,101.239528 C135.892017,101.239528 135.192869,101.342459 134.490808,101.54929 C125.81749,104.09244 119.57274,121.59153 119.310559,122.335345 L118.7124,124.038547 L120.175755,122.981086 C138.932339,109.445777 141.730873,104.091469 141.8406,103.870072 L142.046461,103.455439 L141.682321,103.171896 C140.032526,101.88624 138.32544,101.239528 136.58631,101.239528 L136.58631,101.239528 Z" id="path32" fill="#FFFFFF"></path>
                            <path d="M131.111593,117.430628 C134.923891,138.233192 123.653045,100.074282 142.059084,107.098776" id="path34" fill="#173A79"></path>
                            <path d="M137.940909,105.387806 C135.14723,105.387806 133.460536,106.748231 132.467163,108.137788 C128.947148,113.059012 130.458084,123.287934 131.240742,124.228871 L132.280724,124.469688 C132.898305,124.182261 133.180877,124.0502 131.951542,117.332554 C131.937947,114.151431 132.439974,110.501296 134.339326,108.511638 C135.944453,106.829799 138.441965,106.621025 141.758062,107.88726 L142.359135,106.311264 C140.644281,105.655813 139.182867,105.387806 137.940909,105.387806 L137.940909,105.387806 Z" id="path36" fill="#173A79"></path>
                            <path d="M139.818898,147.779473 C139.818898,147.779473 130.56587,144.969287 123.805498,146.47731 C123.805498,146.47731 122.296504,139.714997 120.834119,137.312647 L127.815888,134.509258 C127.815888,134.509258 138.258439,139.419801 139.818898,147.779473" id="path38" fill="#FFFFFF"></path>
                            <path d="M121.937219,137.71757 L127.779959,135.37154 C129.364695,136.190126 136.747502,140.295678 138.732305,146.665692 C136.026991,145.976254 129.689022,144.630395 124.398803,145.556766 C124.007474,143.916681 123.01313,140.004366 121.937219,137.71757 L121.937219,137.71757 Z M127.840164,133.65086 L119.679554,136.928115 L120.16216,137.721454 C121.540064,139.985916 123.02187,146.583154 123.037406,146.649184 L123.20928,147.417276 L123.977372,147.245402 C130.4542,145.802439 139.499426,148.504839 139.590704,148.532999 L140.83072,148.908791 L140.592816,147.634789 C138.977007,138.977978 128.592719,134.004318 128.150896,133.797487 L127.840164,133.65086 L127.840164,133.65086 Z" id="path40" fill="#173A79"></path>
                            <path d="M121.915856,169.396738 C121.915856,169.396738 110.016748,155.827443 72.6917662,150.791636 C35.3640658,145.755829 15.6811105,126.765224 9.71872867,117.342264 L28.3793841,117.397613 C28.3793841,117.397613 4.1030174,83.6042025 5.50799394,64.1408961 L19.1449999,67.7287872 C19.1449999,67.7287872 29.6747498,-0.620554933 78.856697,2.85091149 C78.856697,2.85091149 29.7050462,4.6560531 30.4617767,78.172406 L17.9767432,75.9109538 C17.9767432,75.9109538 23.4107731,102.267858 44.8691757,121.47986 L31.9127028,122.421768 C31.9127028,122.421768 37.6531926,133.619786 68.5788345,142.641707 C99.5071953,151.661686 114.799113,158.650252 121.915856,169.396738" id="path42" fill="#FFFFFF"></path>
                            <path d="M19.360085,68.0572896 L19.4044614,67.7685998 C19.4306795,67.5979883 22.1336629,50.523243 30.7956198,34.0989965 C38.393998,19.6927628 52.2001298,2.98708025 75.3366815,2.98708025 C75.4443697,2.98708025 75.5536116,2.98783766 75.6621737,2.98898349 C71.1858793,3.77529182 62.6342324,6.07885791 54.2128018,12.7373094 C34.0747206,28.6600143 30.0233527,56.8698551 30.1962947,77.8579836 L17.6418319,75.5836167 L17.7199034,75.9632928 C17.7737961,76.2265414 23.3360031,102.246496 44.2365439,121.262347 L31.4984577,122.188718 L31.6789738,122.541205 C31.915713,123.002449 37.8239012,133.943142 68.5056182,142.893206 C98.7536693,151.715093 112.908501,158.362825 120.169929,167.446892 C115.463304,163.578274 101.650278,154.434002 72.7270149,150.531397 C30.0832658,144.778964 12.9971594,121.806129 10.2034809,117.606386 L28.8921897,117.661736 L28.5929156,117.244189 C28.3517095,116.909181 4.65036281,83.6724665 5.74922909,64.4750306 L19.360085,68.0572896 Z M75.3275538,2.46249599 C51.9304723,2.46173858 37.9930561,19.3217289 30.3252487,33.8661415 C22.2435845,49.194862 19.3278465,65.0838718 18.9333134,67.4018384 L5.2690213,63.8071501 L5.24626016,64.1215725 C3.93460044,82.2879595 25.1070807,113.185247 27.8722106,117.133491 L9.24118152,117.079112 L9.4968366,117.483065 C11.2704583,120.285482 28.1111832,145.042115 72.6564204,151.051874 C109.427327,156.012911 121.599298,169.434608 121.717765,169.569583 L122.13434,169.251082 C115.308909,158.944477 101.314298,151.915127 68.6524392,142.390208 C41.2812846,134.405357 33.6556203,124.613402 32.3614198,122.651904 L45.5049147,121.696402 L45.0440598,121.284681 C25.2898302,103.598182 19.0956711,79.5504071 18.3200054,76.2402331 L30.7273558,78.4872167 L30.7242485,78.1697842 C30.5091634,57.2681752 34.4661463,29.0196871 54.5381969,13.1488356 C66.5256702,3.67060414 78.7440565,3.11718974 78.8658247,3.11301427 L78.8748554,2.58880871 C77.6697963,2.50346412 76.4863914,2.46249599 75.3275538,2.46249599 L75.3275538,2.46249599 Z" id="path44" fill="#173A79"></path>
                            <path d="M97.1418421,47.0119669 C97.1418421,47.0119669 115.17879,47.2110298 129.865751,33.1727227 L139.256666,37.0986323 C139.256666,37.0986323 124.55514,44.7929491 97.1418421,47.0119669" id="path46" fill="#173A79"></path>
                            <path d="M108.763137,45.3930511 C115.017597,43.6189633 122.875243,40.172941 129.924013,33.483358 L138.615781,37.117956 C136.263925,38.2327085 125.975769,42.7557099 108.763137,45.3930511 Z M129.808459,32.8620874 L129.683195,32.9811367 C120.201002,42.0440356 109.21467,45.1407752 102.739783,46.1991103 C100.929767,46.4069126 99.0556623,46.5905361 97.1205763,46.7487183 L97.1387347,47.2770605 C97.1862185,47.2846346 99.3673658,47.2827896 102.781538,46.7274525 C126.367098,44.0240807 139.242101,37.4054806 139.379988,37.3326527 L139.879102,37.0724143 L129.808459,32.8620874 L129.808459,32.8620874 Z" id="path48" fill="#173A79"></path>
                            <polyline id="path50" fill="#173A79" points="94.4840119 6.54388836 94.4840119 12.3098582 92.4357028 12.3098582 92.4357028 13.4936515 97.9428519 13.4936515 97.9428519 12.3098582 95.8950283 12.3098582 95.8950283 6.54388836 94.4840119 6.54388836"></polyline>
                            <polyline id="path52" fill="#173A79" points="98.821642 6.54388836 98.821642 13.4936515 100.928796 13.4936515 102.183378 8.7530015 103.439902 13.4936515 105.543172 13.4936515 105.543172 6.54388836 104.239067 6.54388836 104.231299 12.0135942 102.843684 6.54388836 101.50268 6.54388836 100.134486 12.0135942 100.127689 6.54388836 98.821642 6.54388836"></polyline>
                        </g>
                    </g>
                </g>
            </g>
        </g>
    </g>
</svg>