<svg width="200" height="200" viewBox="0 0 200 200" fill="none" xmlns="http://www.w3.org/2000/svg">
<path d="M44.5022 131.904C44.5022 131.904 45.5517 143.869 51.0933 150.838L53.3183 142.526L56.299 147.48C56.299 147.522 57.4745 149.117 57.4745 149.117C60.5811 153.231 70.2369 164.314 90.2201 174.558L87.8691 152.895C83.587 150.964 79.5987 148.109 76.0723 144.457C67.676 142.652 65.9548 133.542 65.2831 130.099C65.1991 130.183 65.0731 130.267 64.9892 130.309C64.9052 130.351 64.8632 130.393 64.7793 130.477C64.5274 130.645 64.2755 130.813 64.0236 130.981C63.9816 131.023 63.9396 131.023 63.8977 131.065C63.6877 131.191 63.4778 131.317 63.2259 131.485C63.142 131.527 63.058 131.569 62.9741 131.611C62.7642 131.736 62.5123 131.862 62.2604 131.988C62.2184 132.03 62.1764 132.03 62.0925 132.072C61.7986 132.198 61.5047 132.324 61.2108 132.45C61.1269 132.492 61.0429 132.534 60.9589 132.534C60.7071 132.618 60.4972 132.702 60.2453 132.786C60.1613 132.828 60.0773 132.828 59.9934 132.87C59.6575 132.954 59.3636 133.08 59.0278 133.164C58.9858 133.164 58.9438 133.164 58.9438 133.206C58.65 133.29 58.3561 133.374 58.0622 133.416C57.9783 133.458 57.8523 133.458 57.7683 133.458C57.4745 133.5 57.2226 133.584 56.9287 133.626C56.8448 133.626 56.7608 133.668 56.7188 133.668C56.383 133.71 56.0051 133.752 55.6693 133.794C55.5853 133.794 55.5014 133.794 55.4174 133.836C55.2914 133.836 55.1235 133.878 54.9976 133.878C54.8716 133.878 54.7037 133.92 54.5778 133.92C54.5358 133.92 54.4938 133.92 54.4098 133.92C54.3678 133.92 54.2839 133.92 54.2419 133.92C54.074 133.92 53.8641 133.92 53.6961 133.92C53.5282 133.92 53.3183 133.92 53.1504 133.92C46.0555 133.92 45.7197 129.386 46.3074 127.412C46.9791 125.019 47.6928 123.088 48.1966 121.493C47.8607 121.451 47.4829 121.409 47.147 121.367C47.105 121.367 47.0211 121.367 46.9791 121.325C46.6852 121.283 46.3914 121.241 46.0975 121.157C46.0555 121.157 46.0135 121.157 45.9716 121.115C45.6777 121.073 45.3838 120.989 45.0899 120.947C45.048 120.947 45.006 120.947 44.964 120.905C44.88 120.905 44.7961 120.863 44.7121 120.863C43.7885 123.088 42.1932 127.496 41.6055 132.912L44.5022 131.904Z" fill="white"/>
<path d="M41.5635 135.598V135.64L41.6474 135.598H41.6055H41.5635Z" fill="white"/>
<path d="M159.28 135.598L159.364 135.64V135.598H159.28Z" fill="white"/>
<path d="M97.1891 177.916C97.6509 178.126 98.0707 178.293 98.5325 178.503C98.6585 178.545 98.7844 178.629 98.9104 178.671C99.3722 178.881 99.834 179.091 100.338 179.259C100.38 179.259 100.422 179.301 100.464 179.301C100.506 179.301 100.548 179.259 100.59 179.259C101.051 179.049 101.555 178.839 102.017 178.671C102.143 178.629 102.269 178.545 102.395 178.503C102.857 178.293 103.318 178.126 103.738 177.916C103.78 177.916 103.822 177.874 103.864 177.874C104.872 177.412 105.879 176.95 106.887 176.488H94.0405C95.0061 176.95 96.0137 177.412 97.0632 177.874C97.1052 177.874 97.1472 177.874 97.1891 177.916Z" fill="white"/>
<path d="M54.1157 150.629L54.1577 150.671L54.1997 150.629L54.1577 150.545L54.1157 150.629Z" fill="white"/>
<path d="M146.727 150.629L146.769 150.671L146.811 150.629L146.769 150.545L146.727 150.629Z" fill="white"/>
<path d="M143.453 149.159C143.453 149.159 144.586 147.522 144.628 147.522L147.609 142.568L149.834 150.88C155.375 143.869 156.425 131.946 156.425 131.946L159.406 132.996C158.86 127.58 157.223 123.13 156.299 120.947C156.215 120.947 156.131 120.989 156.047 120.989C156.005 120.989 155.963 120.989 155.921 121.031C155.627 121.115 155.333 121.157 154.998 121.241C154.956 121.241 154.914 121.241 154.872 121.283C154.578 121.325 154.284 121.367 153.99 121.451C153.948 121.451 153.864 121.451 153.822 121.493C153.486 121.535 153.108 121.577 152.773 121.619C153.276 123.214 153.99 125.187 154.662 127.538C155.249 129.512 154.914 134.046 147.819 134.046C147.441 134.046 147.063 134.046 146.685 134.004C146.559 134.004 146.475 134.004 146.391 134.004C146.265 134.004 146.097 133.962 145.972 133.962C145.846 133.962 145.678 133.962 145.552 133.92C145.468 133.92 145.384 133.92 145.3 133.878C144.964 133.836 144.586 133.794 144.25 133.752C144.166 133.752 144.124 133.71 144.04 133.71C143.746 133.668 143.495 133.626 143.201 133.542C143.117 133.542 142.991 133.5 142.907 133.5C142.613 133.416 142.319 133.374 142.025 133.29C141.983 133.29 141.941 133.29 141.941 133.248C141.605 133.164 141.312 133.08 140.976 132.954C140.892 132.912 140.808 132.912 140.724 132.87C140.472 132.786 140.262 132.702 140.01 132.618C139.926 132.576 139.842 132.576 139.758 132.534C139.464 132.408 139.171 132.282 138.877 132.156C138.835 132.114 138.793 132.114 138.709 132.072C138.457 131.946 138.247 131.82 137.995 131.695C137.911 131.653 137.827 131.611 137.743 131.569C137.533 131.443 137.281 131.317 137.071 131.149C137.029 131.107 136.987 131.107 136.945 131.065C136.694 130.897 136.442 130.729 136.19 130.561C136.106 130.519 136.064 130.477 135.98 130.393C135.896 130.309 135.77 130.225 135.686 130.183C135.014 133.626 133.293 142.736 124.897 144.541C121.37 148.193 117.382 151.048 113.1 152.979L110.749 174.642C130.69 164.314 140.346 153.231 143.453 149.159Z" fill="white"/>
<path d="M63.5198 16.2872C61.4208 17.3368 59.5316 18.5123 57.9783 19.8137C57.6844 20.0656 57.3905 20.3175 57.1386 20.5694C55.8372 21.7868 54.7457 23.0883 53.948 24.5996C53.6962 25.1034 53.7381 25.4392 53.99 25.5652C54.5358 25.901 54.9556 25.5652 55.7532 24.8935C57.9363 22.9623 60.7491 21.2831 64.0236 19.8557C64.8213 19.5198 65.6609 19.142 66.5425 18.8061C69.0614 17.8406 71.8742 17.0009 74.8548 16.2872C80.6483 14.9019 87.2814 13.9783 94.3343 13.6004C96.3494 13.5165 98.4065 13.4325 100.506 13.4325H100.548H100.59C102.689 13.4325 104.746 13.4745 106.761 13.6004C113.856 13.9363 120.447 14.8599 126.24 16.2872C129.221 17.0009 132.034 17.8406 134.553 18.8061C135.434 19.142 136.232 19.4778 137.071 19.8557C140.388 21.325 143.159 22.9623 145.342 24.8935C146.097 25.5652 146.559 25.901 147.105 25.5652C147.357 25.3972 147.399 25.1034 147.147 24.5996C146.349 23.0883 145.258 21.7868 143.956 20.5694C143.663 20.3175 143.411 20.0656 143.117 19.8137C141.522 18.5123 139.674 17.3368 137.575 16.2872C136.316 15.6575 134.972 15.0278 133.545 14.482C132.789 14.1882 131.95 13.8943 131.152 13.6004C125.317 11.6273 118.348 10.1999 110.665 9.57021C107.432 9.27634 104.116 9.15039 100.673 9.15039H100.631H100.59C97.147 9.15039 93.8305 9.31832 90.5979 9.57021C82.9153 10.2419 75.9044 11.6273 70.1109 13.6004C69.2713 13.8943 68.4736 14.1462 67.718 14.482C66.1227 15.0278 64.7793 15.6575 63.5198 16.2872Z" fill="white"/>
<path d="M111.421 138.412C108.104 140.385 104.368 141.435 100.464 141.435C96.6015 141.435 92.8232 140.385 89.5066 138.412C88.583 139.797 87.6594 140.889 86.7358 141.771C89.3387 143.366 92.1095 144.499 94.9642 145.129C96.2656 143.534 98.2388 142.526 100.464 142.526C102.689 142.526 104.662 143.534 105.963 145.129C108.818 144.499 111.589 143.324 114.192 141.771C113.268 140.931 112.345 139.797 111.421 138.412Z" fill="white"/>
<path d="M107.348 47.899C107.264 46.8915 107.18 45.632 107.096 44.1207C107.054 43.533 107.138 42.9452 107.264 42.3575C107.894 39.4608 110.413 37.1098 112.428 35.6404C112.386 35.6404 112.344 35.6404 112.302 35.5985C111.63 35.4725 110.917 35.3885 110.245 35.2626C110.077 35.2206 109.951 35.2206 109.783 35.1786C109.028 35.0947 108.272 34.9687 107.474 34.8848L100.505 37.5296L93.5363 34.8848C92.7387 34.9687 91.983 35.0527 91.2273 35.1786C91.0594 35.2206 90.9335 35.2206 90.7655 35.2626C90.0519 35.3466 89.3802 35.4725 88.6665 35.5985C88.6245 35.5985 88.5825 35.5985 88.5405 35.5985C90.5976 37.0678 93.0745 39.3768 93.7042 42.3155C93.8302 42.8613 93.8722 43.449 93.8722 44.0787C93.7882 45.632 93.7043 46.8495 93.6203 47.8571C93.4104 50.7118 93.2844 51.9293 93.0745 53.8184C92.9486 55.1199 92.8226 56.7571 92.4028 58.6043C91.983 60.5355 91.1854 62.7605 89.632 65.2374C90.9335 65.5733 92.3189 65.8252 93.7042 66.0351C94.0401 66.077 94.376 66.119 94.6698 66.161C94.7118 66.161 94.7538 66.161 94.8378 66.161C97.7345 66.4969 98.868 64.1879 98.868 64.1879L100.463 60.8713L102.059 64.1879C102.059 64.1879 103.192 66.4549 106.089 66.161C106.131 66.161 106.173 66.161 106.257 66.161C106.593 66.119 106.928 66.077 107.222 66.0351C108.65 65.8252 109.993 65.5733 111.295 65.2374C109.741 62.7605 108.986 60.5355 108.524 58.6043C108.104 56.7152 107.978 55.1199 107.852 53.8184C107.684 51.9712 107.558 50.7958 107.348 47.899Z" fill="white"/>
<path d="M84.2167 73.8022C84.1328 73.6762 83.545 73.0885 83.2932 72.8366C83.2092 72.7526 83.1252 72.6687 83.1252 72.6687C83.1252 72.6687 83.0832 72.7107 82.9573 72.8366C82.5375 73.2144 81.2361 74.138 79.2209 73.9281C78.2974 73.8442 77.4577 73.4243 76.87 72.8366C75.8624 71.871 75.3586 70.2757 75.9044 68.4705C77.0799 71.1993 79.6827 70.5696 80.1445 69.3101C78.8851 68.0507 77.4577 66.8752 75.9044 65.7417C74.9388 65.07 74.0152 64.4403 73.0497 63.8945C72.8398 64.6082 72.6718 65.3219 72.5879 66.0356C72.294 68.2606 72.4199 70.6955 73.0497 72.8786C73.3435 73.9281 73.7634 74.8937 74.3091 75.7753C74.7709 75.8173 80.2705 76.6569 84.2167 73.8022Z" fill="white"/>
<path d="M117.76 72.6696C117.76 72.6696 117.718 72.7116 117.592 72.8376C117.298 73.1314 116.752 73.6772 116.668 73.8031C120.657 76.6999 126.114 75.8183 126.576 75.7343C127.122 74.8527 127.542 73.8871 127.836 72.8376C128.465 70.6545 128.591 68.2196 128.297 65.9946C128.213 65.2389 128.045 64.5252 127.836 63.8535C126.87 64.3993 125.904 65.029 124.981 65.7007C123.427 66.8342 122 68.0097 120.741 69.2691C121.202 70.5286 123.847 71.1583 124.981 68.4295C125.485 70.2347 125.023 71.83 124.015 72.7956C123.386 73.3833 122.588 73.8031 121.664 73.8871C119.649 74.097 118.348 73.1734 117.928 72.7956C117.844 72.7116 117.76 72.6696 117.76 72.6696Z" fill="white"/>
<path d="M106.467 87.1517C108.062 87.1517 109.531 87.6554 110.497 88.4111C110.287 87.9913 110.035 87.5295 109.741 87.0677C109.237 86.312 108.65 85.5983 107.894 85.0946C107.852 85.0526 107.768 85.0526 107.726 85.0106C107.684 85.0106 107.642 84.9686 107.6 84.9686C107.39 84.9266 107.138 84.8847 106.928 84.8847C105.501 84.6748 103.99 84.5488 102.394 84.5068C102.352 84.5068 102.31 84.5068 102.268 84.5068C101.639 84.4648 101.051 84.4648 100.463 84.4648C99.8755 84.4648 99.2458 84.4648 98.6581 84.5068C98.6161 84.5068 98.5741 84.5068 98.5321 84.5068C96.9368 84.5488 95.4255 84.7167 93.9981 84.8847C93.7882 84.9266 93.5363 84.9266 93.3264 84.9686C93.2844 84.9686 93.2425 84.9686 93.2005 85.0106C93.1165 85.0106 93.0745 85.0526 93.0325 85.0946C92.7387 85.3045 92.4448 85.5564 92.1929 85.8083C91.4372 86.6059 90.8495 87.5715 90.4297 88.4531C91.4372 87.6554 92.8646 87.1936 94.4599 87.1936C98.0283 87.1936 97.7345 89.0828 100.463 89.0828C103.15 88.9988 102.898 87.1517 106.467 87.1517Z" fill="white"/>
<path d="M95.9295 72.7949C92.9488 73.0887 90.0521 73.6345 87.2813 74.4741C85.8539 77.1609 83.7968 80.1416 81.3619 81.443C75.5684 84.5497 72 89.2936 72 94.4573C72 100.797 74.8967 104.995 74.5609 111.628C79.3887 108.899 78.5071 101.468 78.5071 101.468C78.5071 101.468 80.8161 103.945 80.8161 108.017C80.8161 117.757 75.1906 119.226 73.8892 128.462C73.7212 129.68 73.5953 131.065 73.5953 132.619C73.5953 134.969 75.6944 139 79.0949 139C80.2704 139 81.2779 138.79 82.2015 138.454C86.9454 136.607 88.4987 130.394 90.178 124.432C90.178 124.516 90.136 124.558 90.094 124.642C90.262 123.215 90.3459 121.787 90.3459 120.318C90.3459 108.059 83.377 107.094 83.377 96.0106C83.377 94.2474 84.9723 88.454 88.9185 84.1299C88.7506 84.3398 88.6247 84.5077 88.4987 84.7176C89.1704 83.794 89.9681 82.9124 91.0176 82.1987C91.5214 81.8629 92.1091 81.611 92.6969 81.527C94.4181 81.2331 96.3493 81.0652 98.2804 80.9813C98.5743 80.9813 98.8262 80.9813 99.1201 80.9393C99.5399 80.9393 99.9597 80.9393 100.38 80.9393C101.093 80.9393 101.765 80.9393 102.479 80.9813C104.452 81.0652 106.341 81.2331 108.062 81.527C108.692 81.611 109.238 81.8629 109.741 82.1987C110.749 82.8704 111.589 83.794 112.26 84.7176C112.134 84.5077 111.966 84.3398 111.798 84.1299C115.745 88.454 117.34 94.2474 117.34 96.0106C117.34 107.094 110.371 108.059 110.371 120.318C110.371 121.787 110.455 123.257 110.623 124.642C110.581 124.558 110.581 124.474 110.539 124.39C112.26 130.352 113.772 136.565 118.558 138.412C119.481 138.748 120.489 138.958 121.664 138.958C125.065 138.958 127.164 134.928 127.164 132.577C127.164 131.023 127.08 129.68 126.87 128.42C125.526 119.184 119.943 117.715 119.943 107.975C119.943 103.861 122.252 101.426 122.252 101.426C122.252 101.426 121.412 108.857 126.198 111.586C125.862 104.953 128.759 100.713 128.759 94.4153C128.759 89.2516 125.191 84.5077 119.397 81.4011C116.962 80.0996 114.905 77.119 113.478 74.4321C110.707 73.5925 107.852 73.0467 104.83 72.7529C103.318 72.6269 101.807 72.543 100.296 72.543C98.9102 72.585 97.3988 72.6689 95.9295 72.7949Z" fill="white"/>
<path d="M100.464 132.912C97.7349 132.912 95.216 132.114 92.991 130.729C92.7391 131.568 92.4452 132.408 92.1094 133.247C94.5023 134.801 97.3571 135.682 100.422 135.682C103.486 135.682 106.341 134.801 108.734 133.247C108.398 132.408 108.146 131.568 107.852 130.729C105.711 132.114 103.192 132.912 100.464 132.912Z" fill="white"/>
<path d="M94.9219 149.622C94.9219 149.957 94.9639 150.335 95.0058 150.671C95.2997 152.224 96.2653 153.568 97.6087 154.366C98.0705 154.617 98.5323 154.827 99.0361 154.995C101.303 155.373 102.059 153.862 102.269 153.232C101.723 153.526 101.093 153.694 100.463 153.694C99.9177 153.694 99.3719 153.568 98.8681 153.358C98.5323 153.274 98.1964 153.148 97.8606 152.938C96.979 152.434 96.3073 151.637 96.0134 150.671C95.8875 150.293 95.8035 149.874 95.8035 149.412C95.8035 149.118 95.8455 148.866 95.8875 148.572C95.9714 148.194 96.0974 147.816 96.3073 147.481C96.7691 146.641 97.5247 146.011 98.4063 145.633C98.8681 145.465 99.3299 145.382 99.8337 145.382C100.379 145.382 100.925 145.507 101.429 145.717C101.345 145.717 101.303 145.675 101.219 145.675C101.303 145.675 101.387 145.717 101.429 145.717C101.807 145.801 102.185 145.969 102.521 146.179C102.982 146.095 103.696 146.011 104.494 145.801C104.368 145.675 104.242 145.549 104.116 145.465C103.15 144.584 101.849 144.08 100.421 144.08C98.9941 144.08 97.7346 144.626 96.7691 145.465C96.1393 146.011 95.6356 146.683 95.2997 147.481C95.1738 147.816 95.0478 148.194 94.9639 148.572C94.9639 148.95 94.9219 149.286 94.9219 149.622Z" fill="white"/>
<path d="M97.7349 158.438C97.6509 158.438 97.6089 158.438 97.483 158.438C95.9297 158.438 94.4183 158.438 92.865 158.438C92.5292 158.438 92.3612 158.438 92.0254 158.438C92.0254 158.479 92.0674 158.521 92.0674 158.563C92.1094 159.151 92.4872 159.655 92.991 159.991C93.2848 163.013 93.5367 166.036 93.8306 169.059C93.4528 169.395 93.2009 169.898 93.2848 170.486C93.2848 170.528 93.2848 170.57 93.2848 170.612C93.5367 170.612 93.7047 170.612 93.9565 170.612C95.258 170.612 96.5594 170.612 97.9028 170.612C97.9868 170.612 98.0287 170.612 98.1127 170.612C99.4561 170.612 99.9599 170.066 99.9599 168.723C99.9599 165.952 99.9179 163.139 99.9179 160.369C99.9179 158.983 99.3302 158.438 97.7349 158.438ZM97.3151 168.345C96.8533 168.345 96.6434 168.345 96.1816 168.345C96.0136 165.784 95.8877 163.223 95.7198 160.663C96.2236 160.663 96.4754 160.663 96.9372 160.663C97.1052 160.663 97.1891 160.746 97.1891 160.914C97.2731 163.307 97.399 165.742 97.483 168.135C97.525 168.261 97.483 168.345 97.3151 168.345Z" fill="white"/>
<path d="M105.669 163.727C105.669 163.895 105.585 163.979 105.417 163.979C104.914 163.979 104.662 163.979 104.2 163.979C104.032 163.979 103.99 163.895 103.99 163.727C104.032 162.971 104.032 162.552 104.074 161.796C103.402 162.468 102.521 162.888 101.513 162.888C101.513 162.888 101.429 162.888 101.345 162.888C101.345 163.517 101.345 163.853 101.345 164.483C101.345 165.448 101.849 166.036 103.024 166.036C103.192 166.036 103.276 166.036 103.444 166.036C103.402 167.547 103.318 169.017 103.276 170.528C104.242 170.528 104.704 170.528 105.669 170.528C105.795 169.017 105.879 167.547 106.005 166.036C106.173 166.036 106.257 166.036 106.425 166.036C107.6 166.036 108.188 165.406 108.272 164.483C108.482 162.468 108.692 160.453 108.902 158.438C107.768 158.438 107.223 158.438 106.089 158.438C105.921 160.201 105.795 161.964 105.669 163.727Z" fill="white"/>
<path d="M172.294 116.289C175.988 112.385 178.213 107.599 178.801 102.519C178.885 101.637 178.969 100.714 178.969 99.7901C178.969 95.0882 177.542 89.5046 174.729 83.0395C175.862 82.8715 176.912 82.1998 177.542 81.1923C178.381 79.8909 178.339 78.2116 177.542 76.9102L171.118 66.7086C170.992 66.5407 170.783 66.1629 170.447 65.6591V13.602V9.57179H166.374H143.83C142.487 8.77414 141.018 7.97649 139.464 7.2628L139.38 7.22082C139.086 7.09488 138.793 6.92695 138.457 6.80101L138.205 6.67506C137.869 6.54912 137.533 6.38119 137.197 6.25524L136.694 6.04534C136.526 5.96137 136.358 5.91939 136.148 5.83543L136.064 5.79345C135.518 5.58354 134.972 5.37363 134.385 5.16373L134.175 5.07976C133.545 4.86986 132.999 4.65995 132.411 4.49202L132.327 4.45004C131.74 4.24013 131.11 4.07221 130.438 3.8623L130.228 3.77834C129.557 3.56843 128.969 3.4005 128.381 3.27456C128.381 3.27456 128.339 3.27456 128.297 3.27456C127.626 3.10663 126.954 2.93871 126.24 2.77078L126.03 2.7288C125.778 2.68682 125.526 2.60285 125.233 2.56087C124.183 2.30898 123.05 2.09908 121.832 1.88917H121.79C121.034 1.76322 120.321 1.63728 119.649 1.51133H119.565C118.893 1.38539 118.18 1.30143 117.466 1.17548L117.004 1.09152C116.416 1.00756 115.871 0.923593 115.283 0.881611L114.863 0.839631C114.191 0.755667 113.562 0.671704 112.89 0.629723C112.68 0.629723 112.26 0.587739 112.26 0.587739C111.715 0.545757 111.127 0.503778 110.581 0.419815L110.161 0.377831C109.489 0.33585 108.776 0.29387 108.104 0.251889L107.558 0.209908C106.887 0.167926 106.215 0.125943 105.501 0.125943H105.417C104.662 0.0839611 103.948 0.0839624 103.192 0.0419809H102.772C102.017 0.0419809 101.303 0 100.547 0H100.505C99.7498 0 99.0361 -6.41213e-07 98.2804 0.0419809H97.8606C97.1049 0.0419809 96.3913 0.0839611 95.6356 0.125943H95.5097C94.8379 0.167924 94.1662 0.167926 93.4525 0.209908L92.9068 0.251889C92.2351 0.29387 91.5214 0.33585 90.8497 0.377831L90.4299 0.419815C89.8841 0.461797 89.2964 0.503776 88.7506 0.587739C88.7506 0.587739 88.2888 0.629723 88.1209 0.629723C87.4492 0.713686 86.8195 0.755667 86.1478 0.839631L85.7279 0.881611C85.1402 0.965574 84.5525 1.00756 84.0067 1.09152L83.5449 1.17548C82.8312 1.25944 82.1595 1.38539 81.4458 1.51133H81.4039C80.6902 1.63728 80.0185 1.76322 79.2208 1.88917H79.1788C78.0033 2.09908 76.8698 2.35096 75.8203 2.56087C75.5684 2.60285 75.3165 2.68682 75.0646 2.7288L74.8547 2.77078C74.0991 2.93871 73.4274 3.10663 72.7557 3.27456H72.7137C72.084 3.44248 71.4962 3.61041 70.8245 3.77834L70.5726 3.8623C69.9009 4.07221 69.2712 4.24013 68.6834 4.45004L68.5995 4.49202C68.0118 4.65995 67.466 4.86986 66.8363 5.07976L66.6264 5.16373C66.0386 5.37363 65.4509 5.58354 64.9471 5.79345L64.8212 5.83543C64.6532 5.91939 64.4853 5.96137 64.2754 6.04534L63.7716 6.25524C63.4358 6.38119 63.0999 6.54912 62.7641 6.67506L62.5122 6.80101C62.2183 6.92695 61.9244 7.0529 61.5886 7.22082L61.5046 7.2628C59.9093 7.97649 58.4819 8.77414 57.1385 9.57179H34.5525H30.5222V13.602V65.6171C30.1864 66.1209 29.9345 66.4987 29.8505 66.6667L23.4274 76.9102C22.5877 78.2116 22.5877 79.8909 23.4274 81.1923C24.0571 82.1998 25.1066 82.8715 26.2401 83.0395C23.4274 89.5046 22 95.0882 22 99.7901C22 100.714 22.042 101.637 22.1679 102.519C22.8816 108.774 26.1562 114.526 31.4039 118.808C31.7817 119.102 32.1595 119.395 32.5374 119.689C25.3585 135.055 27.9614 148.992 28.0873 149.622C28.3392 150.84 29.1369 151.889 30.2284 152.435C30.8161 152.729 31.4458 152.855 32.0756 152.855C32.6633 152.855 33.251 152.729 33.7968 152.477L35.644 151.595C37.7011 156.843 41.4374 164.19 48.2385 171.746L51.2191 175.063C52.0168 175.945 53.1083 176.406 54.2418 176.406C54.2418 176.406 54.3258 176.406 54.3678 176.406C54.7036 176.406 54.9975 176.364 55.3333 176.28C56.6348 175.987 57.6843 175.021 58.1461 173.804C65.5768 181.15 78.3812 191.226 98.9101 199.664C98.9941 199.706 99.0361 199.706 99.1201 199.748L99.204 199.79C99.6238 199.958 100.086 200 100.547 200C101.009 200 101.429 199.916 101.891 199.79L101.975 199.748C102.059 199.706 102.143 199.706 102.185 199.664C117.34 193.409 128.339 186.272 136.022 180.017C137.239 182.242 139.59 183.753 142.319 183.753C146.265 183.753 149.498 180.563 149.498 176.574C149.498 176.196 149.456 175.819 149.414 175.441C149.582 175.315 149.708 175.189 149.876 175.021L152.856 171.704C159.657 164.148 163.394 156.801 165.451 151.553L167.298 152.435C167.844 152.687 168.432 152.813 169.019 152.813C169.649 152.813 170.279 152.687 170.866 152.393C171.958 151.847 172.756 150.798 173.008 149.58C173.133 148.95 175.778 135.013 168.558 119.647C168.935 119.353 169.313 119.06 169.691 118.766C170.531 118.01 171.454 117.17 172.294 116.289ZM141.186 175.441H141.144H140.01V176.49V180.017H138.919V177.456V175.399H137.701V174.475H141.228V175.315V175.441H141.186ZM146.601 180.059H145.594V176.28V175.651L145.468 176.238L144.628 180.059H143.704L142.739 175.651V180.059H141.731V174.937V174.559H142.109H143.201H143.369L143.453 174.895L144.166 178.463L144.67 175.945L144.964 174.559H146.601V176.448V180.059ZM167.004 115.659C166.71 115.869 166.458 116.121 166.165 116.331C166.081 116.373 165.997 116.457 165.913 116.499C165.703 116.667 165.493 116.793 165.241 116.961C165.157 117.003 165.073 117.086 164.989 117.128C164.737 117.296 164.527 117.422 164.275 117.59C164.191 117.632 164.149 117.674 164.065 117.716C163.772 117.884 163.478 118.052 163.184 118.22C163.184 118.22 163.142 118.22 163.142 118.262C169.943 130.395 169.649 142.233 169.145 146.809C169.145 146.977 169.103 147.145 169.103 147.313C169.103 147.481 169.061 147.607 169.061 147.733C169.061 147.859 169.019 147.985 169.019 148.111C169.019 148.237 168.977 148.321 168.977 148.405C168.977 148.489 168.935 148.573 168.935 148.615C168.935 148.657 168.935 148.699 168.893 148.741V148.783L162.932 146.012C161.631 150.588 158.188 159.572 149.708 169.018L147.399 171.62L146.769 172.334L146.727 172.25L146.643 172.334L146.181 170.571L144.88 165.701C143.956 166.793 142.823 168.052 141.437 169.437C141.353 169.521 141.27 169.605 141.144 169.731C139.506 171.453 137.491 173.342 135.14 175.357C127.709 181.738 116.542 189.295 100.547 195.886L100.463 195.928L100.379 195.886C79.3048 187.196 66.6264 176.826 59.7414 169.689C58.2301 168.22 57.0126 166.877 56.047 165.701L54.2838 172.292L54.1998 172.208L54.1579 172.292L51.1772 168.976C42.6969 159.53 39.2544 150.546 37.953 145.97L31.9916 148.741C31.9916 148.741 31.9916 148.741 31.9916 148.699C31.9916 148.657 31.9916 148.615 31.9496 148.573C31.9496 148.531 31.9496 148.447 31.9076 148.363C31.9076 148.279 31.8657 148.195 31.8657 148.069C31.8657 147.985 31.8237 147.859 31.8237 147.733C31.8237 147.733 31.8237 147.733 31.8237 147.691C31.8237 147.565 31.7817 147.439 31.7817 147.271C31.7817 147.271 31.7817 147.271 31.7817 147.229C31.7817 147.061 31.7397 146.893 31.7397 146.725C31.7397 146.725 31.7397 146.725 31.7397 146.683C31.7397 146.516 31.6977 146.306 31.6977 146.138C31.2779 141.184 31.2359 129.807 37.785 118.178C37.785 118.178 37.7431 118.178 37.7431 118.136C37.4492 117.968 37.1553 117.8 36.8615 117.632C36.7775 117.59 36.7355 117.548 36.6515 117.506C36.3997 117.338 36.1898 117.212 35.9379 117.044C35.8539 117.003 35.7699 116.919 35.686 116.877C35.4761 116.709 35.2662 116.583 35.0143 116.415C34.9303 116.373 34.8463 116.289 34.7624 116.247C34.4685 116.037 34.1746 115.827 33.9228 115.575C29.4727 111.923 26.7439 107.137 26.1562 101.931C26.0722 101.175 26.0302 100.42 26.0302 99.6641C26.0302 92.9471 29.5987 84.6767 33.0411 78.2536L26.8699 78.9253L33.2091 68.8497C33.2091 68.8497 33.251 68.8077 33.293 68.7238C33.419 68.5139 33.6709 68.136 34.0487 67.5483C34.1327 67.4643 34.1746 67.3384 34.2586 67.2124L34.3006 67.1704C34.3426 67.0865 34.4265 67.0025 34.4685 66.9186C34.4685 66.8766 34.5105 66.8766 34.5105 66.8346C34.5525 66.7926 34.5945 66.7506 34.6364 66.6667V13.602H51.8069H58.398C59.8673 12.6364 61.5046 11.7548 63.3098 10.9152C63.3518 10.9152 63.3938 10.8732 63.3938 10.8732C63.6877 10.7473 63.9395 10.6213 64.2334 10.4954C64.3174 10.4534 64.4013 10.4114 64.4853 10.4114C64.7792 10.2855 65.115 10.1595 65.4089 10.0336C65.5348 9.9916 65.6608 9.94962 65.7867 9.86566C65.9966 9.7817 66.1646 9.69773 66.3745 9.61377C66.4164 9.61377 66.4165 9.57179 66.4584 9.57179C66.4584 9.57179 66.4584 9.57179 66.5004 9.57179C67.0042 9.36188 67.5499 9.19395 68.0957 8.98404C68.1797 8.94206 68.2217 8.94206 68.3056 8.90008C68.8514 8.69017 69.3971 8.52225 69.9429 8.35432C69.9849 8.35432 69.9849 8.35432 70.0269 8.31234C70.6146 8.14441 71.2023 7.93451 71.8321 7.76658C71.916 7.7246 72 7.7246 72.042 7.68262C72.6297 7.51469 73.2175 7.34677 73.8052 7.17884H73.8472C74.4769 7.01091 75.1486 6.84299 75.8203 6.67506H75.8623C76.1562 6.5911 76.45 6.54912 76.7439 6.46515C77.7934 6.21326 78.885 6.00336 79.9765 5.79345C80.0185 5.79345 80.0185 5.79345 80.0604 5.79345C80.7321 5.6675 81.4458 5.54156 82.1175 5.41561C82.1595 5.41561 82.1595 5.41561 82.2015 5.41561C82.8732 5.28967 83.5449 5.20571 84.2166 5.12175C84.3845 5.07976 84.5105 5.07976 84.6784 5.07976C85.2242 4.9958 85.7699 4.91184 86.3577 4.86986C86.4836 4.86986 86.6096 4.82788 86.7775 4.82788C87.4072 4.74391 88.0369 4.70193 88.6667 4.61797C88.8766 4.57599 89.0865 4.57598 89.2964 4.57598C89.8421 4.534 90.3879 4.49202 90.9337 4.45004C91.0596 4.45004 91.2275 4.40806 91.3535 4.40806C92.0252 4.36608 92.6969 4.3241 93.3266 4.28211C93.4945 4.28211 93.6625 4.24013 93.8724 4.24013C94.5441 4.19815 95.1738 4.15617 95.8455 4.15617C95.8875 4.15617 95.9295 4.15617 95.9714 4.15617C96.6851 4.11419 97.3988 4.11419 98.1125 4.11419C98.2384 4.11419 98.4064 4.11419 98.5323 4.11419C99.246 4.11419 99.9597 4.07221 100.673 4.07221C101.387 4.07221 102.101 4.07221 102.814 4.11419C102.94 4.11419 103.108 4.11419 103.234 4.11419C103.948 4.11419 104.662 4.15617 105.375 4.15617C105.417 4.15617 105.459 4.15617 105.501 4.15617C106.173 4.19815 106.803 4.19815 107.474 4.24013C107.642 4.24013 107.81 4.24013 108.02 4.28211C108.692 4.3241 109.364 4.36608 109.993 4.40806C110.119 4.40806 110.287 4.45004 110.413 4.45004C110.959 4.49202 111.505 4.534 112.05 4.57598C112.26 4.57598 112.47 4.61797 112.68 4.61797C113.31 4.70193 113.94 4.74391 114.569 4.82788C114.695 4.82788 114.821 4.86986 114.989 4.86986C115.535 4.95382 116.123 4.9958 116.668 5.07976C116.836 5.12175 116.962 5.12175 117.13 5.12175C117.802 5.20571 118.474 5.33165 119.145 5.41561C119.187 5.41561 119.187 5.41561 119.229 5.41561C119.901 5.54156 120.615 5.6675 121.286 5.79345C121.328 5.79345 121.328 5.79345 121.37 5.79345C122.462 6.00336 123.553 6.21326 124.603 6.46515C124.897 6.54912 125.191 6.5911 125.484 6.67506H125.526C126.198 6.84299 126.87 7.01091 127.5 7.17884H127.542C128.129 7.34677 128.759 7.51469 129.305 7.68262C129.389 7.68262 129.473 7.7246 129.515 7.76658C130.102 7.93451 130.732 8.14441 131.32 8.31234C131.362 8.31234 131.362 8.31234 131.404 8.35432C131.95 8.52225 132.495 8.73216 133.041 8.90008C133.125 8.94206 133.167 8.94206 133.251 8.98404C133.797 9.19395 134.301 9.36188 134.846 9.57179C134.846 9.57179 134.846 9.57179 134.888 9.57179C134.93 9.57179 134.93 9.57179 134.972 9.61377C135.182 9.69773 135.35 9.7817 135.56 9.86566C135.686 9.90764 135.812 9.94962 135.938 10.0336C136.232 10.1595 136.568 10.2855 136.861 10.4114C136.945 10.4534 137.029 10.4954 137.113 10.4954C137.407 10.6213 137.659 10.7473 137.953 10.8732C137.995 10.8732 138.037 10.9152 138.037 10.9152C139.842 11.7548 141.479 12.6364 142.949 13.602H149.54H166.374V66.8346C166.374 66.8766 166.416 66.8766 166.416 66.9186C166.416 66.9186 166.416 66.9605 166.458 66.9605C167.088 67.9261 167.508 68.5558 167.676 68.8497C167.718 68.8917 167.76 68.9337 167.76 68.9757L174.099 79.0512L167.928 78.3795C171.37 84.8027 174.897 93.073 174.897 99.7901C174.897 100.546 174.855 101.301 174.771 102.057C174.267 106.297 172.378 110.244 169.313 113.518C168.599 114.274 167.844 114.987 167.004 115.659Z" fill="#A4AFB9"/>
<path d="M143.411 30.7734C143.327 31.1933 143.159 31.6131 142.907 32.1168C142.193 33.5442 140.556 35.2235 138.121 36.7768C137.072 37.4485 135.854 38.1202 134.553 38.7499L135.434 41.2268C135.434 41.2268 135.476 41.2268 135.476 41.2688C135.812 41.2268 136.19 41.2268 136.526 41.2268C137.114 41.2268 137.701 41.2688 138.289 41.3528C138.457 41.3948 138.625 41.3948 138.793 41.4367C138.961 41.3528 139.129 41.2268 139.297 41.1429C141.816 39.5896 143.495 37.9103 144.25 36.4829C144.67 35.6853 144.838 34.9716 144.838 34.2999C144.838 33.6282 144.67 32.9145 144.25 32.1168C144.083 31.655 143.789 31.2352 143.411 30.7734Z" fill="#A4AFB9"/>
<path d="M64.4012 41.1849C64.737 41.1849 65.1149 41.1849 65.4507 41.2268C65.4507 41.2268 65.4927 41.2268 65.4927 41.1849L66.3743 38.7079C63.7295 37.4485 61.5884 36.1051 60.1191 34.7197C59.1115 33.7961 58.4398 32.9145 58.02 32.1168C57.7681 31.655 57.6002 31.1933 57.5162 30.7734C57.1384 31.2352 56.8445 31.655 56.6346 32.0329C56.2148 32.8305 56.0469 33.5442 56.0469 34.2159C56.0469 34.8876 56.2148 35.6013 56.6346 36.399C57.0544 37.1966 57.8101 38.1202 58.8176 39.0018C59.6993 39.7995 60.8328 40.5971 62.1342 41.3528C62.3021 41.3108 62.47 41.2688 62.638 41.2688C63.2257 41.2268 63.8135 41.1849 64.4012 41.1849Z" fill="#A4AFB9"/>
<path d="M156.928 120.739C156.719 120.781 156.509 120.865 156.299 120.907C157.222 123.132 158.818 127.54 159.405 132.956L156.425 131.906C156.425 131.906 155.375 143.871 149.834 150.84L147.609 142.528L144.628 147.481C144.628 147.523 143.452 149.119 143.452 149.119C140.346 153.233 130.69 164.316 110.707 174.559L110.497 176.449H106.887C105.921 176.91 104.913 177.372 103.864 177.834C103.822 177.834 103.78 177.876 103.738 177.876C103.276 178.086 102.856 178.254 102.394 178.464C102.269 178.506 102.143 178.59 102.017 178.632C101.555 178.842 101.093 179.051 100.589 179.219C100.547 179.219 100.505 179.261 100.463 179.261C100.421 179.261 100.379 179.219 100.337 179.219C99.8756 179.01 99.4138 178.8 98.91 178.632C98.7841 178.59 98.6581 178.506 98.5322 178.464C98.0704 178.254 97.6086 178.086 97.1888 177.876C97.1468 177.876 97.1048 177.834 97.0628 177.834C96.0553 177.372 95.0477 176.91 94.0402 176.449H90.4298L90.2199 174.559C70.2367 164.316 60.5809 153.233 57.4743 149.119C57.4743 149.119 56.3408 147.481 56.2988 147.481L53.3181 142.528L51.0931 150.84C45.5515 143.829 44.502 131.906 44.502 131.906L41.5213 132.956C42.067 127.54 43.7043 123.09 44.6279 120.907C44.418 120.865 44.2081 120.781 43.9562 120.739H43.9142C43.3685 120.613 42.8647 120.445 42.3609 120.277C40.6397 124.014 37.9109 130.689 36.9033 137.784L41.5633 135.643L41.6052 135.601V135.643L42.067 138.791C42.067 138.833 42.5288 141.688 44.334 146.012C45.6775 149.245 48.0284 153.863 51.8907 158.9L54.0738 150.63V150.546L54.1157 150.63L57.0125 155.5C57.0964 155.668 66.6262 171.117 93.8303 184.341C94.334 184.593 94.8378 184.803 95.3416 185.055C95.3836 185.055 95.4256 185.097 95.4675 185.097C95.9293 185.307 96.3911 185.517 96.8529 185.727C96.9369 185.769 97.0209 185.811 97.1048 185.852C97.5246 186.062 97.9864 186.23 98.4063 186.44C98.5322 186.482 98.6162 186.524 98.7421 186.608C99.2879 186.86 99.8336 187.07 100.379 187.322C100.379 187.322 100.379 187.322 100.421 187.322C100.967 187.07 101.513 186.86 102.017 186.608C102.143 186.566 102.227 186.524 102.353 186.44C102.814 186.23 103.234 186.062 103.654 185.852C103.738 185.811 103.822 185.769 103.906 185.727C104.368 185.517 104.829 185.307 105.291 185.097C105.333 185.097 105.375 185.055 105.417 185.055C105.921 184.803 106.425 184.593 106.928 184.341C119.649 178.17 128.465 171.495 134.3 166.121C134.426 165.995 134.552 165.869 134.678 165.785L134.72 165.743C141.059 159.824 143.662 155.584 143.746 155.5L146.643 150.63L146.685 150.546V150.63L148.868 158.9C152.772 153.905 155.081 149.245 156.425 146.012C158.23 141.688 158.692 138.791 158.692 138.791L159.154 135.643V135.601L159.196 135.643L163.855 137.784C162.848 130.689 160.119 124.014 158.398 120.277C157.894 120.445 157.348 120.613 156.845 120.739C156.97 120.739 156.97 120.739 156.928 120.739Z" fill="#A4AFB9"/>
<path d="M93.5786 47.9012C93.6625 46.8936 93.7465 45.6342 93.8305 44.1228C93.8724 43.5351 93.7885 42.9474 93.6625 42.3596C93.0328 39.4629 90.5139 37.1119 88.4988 35.6426C84.8044 36.3143 81.3619 37.2799 78.3393 38.4973C75.6105 39.5888 73.2175 40.8483 71.2444 42.3176L69.859 46.1799L69.1453 48.1531C68.2637 47.6493 67.2981 47.2715 66.1646 47.1035C65.6189 47.0196 65.0311 46.9776 64.4014 46.9776C61.7566 46.9776 58.7759 48.5729 55.7952 50.9239C49.9178 55.5838 44.0823 63.3084 40.8078 68.0103C40.7658 68.0523 40.7238 68.1363 40.6818 68.1783C39.0446 70.4872 38.079 72.0406 38.079 72.0406L44.0404 71.4108C44.0404 71.4108 43.7045 71.9146 43.1168 72.7962C40.262 77.1623 31.8657 90.7643 31.8657 99.7903C31.8657 107.977 39.3384 114.736 48.9942 115.785C49.2041 115.072 49.498 113.728 49.456 112.301C50.0437 113.14 50.7154 114.316 51.2612 115.953C52.1428 118.64 52.7305 122.586 52.0588 128.17C52.0588 128.17 60.4551 128.968 63.7717 123.258C63.8976 123.09 63.9816 122.88 64.0655 122.67C63.5618 120.067 62.7221 117.8 61.8405 115.953C60.3292 112.889 58.608 110.957 57.8943 110.412C54.6197 107.893 52.3527 102.351 52.3527 95.97C52.3527 92.4016 53.0664 89.0851 54.2419 86.4402C52.3947 83.9213 49.6239 79.5133 48.9102 72.8802C48.9102 72.8382 48.9102 72.8382 48.9102 72.7962C51.3032 63.3084 57.2226 58.6485 57.2226 58.6485C57.2226 58.6485 54.5777 67.2966 54.4518 72.8802C54.4518 73.1321 54.4518 73.384 54.4518 73.5939L59.6575 84.9289C59.6575 84.9289 57.1806 89.0011 57.1806 93.9969C57.1806 97.7752 58.44 101.05 60.4132 103.317C60.665 103.611 60.9169 103.863 61.1688 104.114C60.833 102.981 60.5811 101.847 60.4132 100.672C60.2033 99.2446 60.0773 97.7333 60.0773 96.2219C60.0773 92.4436 60.833 88.8751 62.1344 85.6426C62.3443 85.0968 62.5962 84.5511 62.8481 84.0053C62.7641 83.8793 62.6802 83.7954 62.5962 83.6694C59.9514 80.101 58.7339 76.4906 58.7339 76.4906L62.0085 74.4755C62.0085 74.1816 61.9665 73.8458 61.9665 73.5519C61.9665 73.342 61.9665 73.0901 61.9665 72.8802C62.1344 68.766 63.6877 65.0716 66.1226 62.3428L60.6231 60.0338L66.0807 57.347C66.0807 57.347 66.0807 57.389 66.1226 57.389L74.393 53.3168C74.9388 54.0725 75.5265 54.7862 76.1982 55.4159C76.66 55.8777 77.2058 56.2975 77.7515 56.7173C80.2704 58.6065 83.461 59.698 86.9035 59.698C88.8766 59.698 90.7658 59.3202 92.487 58.6485C92.9069 56.7593 93.0328 55.164 93.1587 53.8626C93.2427 51.9734 93.3687 50.7979 93.5786 47.9012Z" fill="#A4AFB9"/>
<path d="M92.9907 130.73C95.2157 132.115 97.7346 132.913 100.463 132.913C103.192 132.913 105.711 132.115 107.936 130.73C107.558 129.47 107.18 128.253 106.845 126.993C105.921 123.803 103.15 119.73 100.505 119.73C97.8606 119.73 95.0478 123.803 94.1662 126.993C93.7464 128.211 93.4105 129.47 92.9907 130.73ZM95.6356 128.169C96.2653 125.44 98.1964 123.635 100.463 123.635C102.688 123.635 104.62 125.482 105.291 128.169C105.333 128.379 105.249 128.589 105.039 128.673C104.997 128.715 104.913 128.715 104.83 128.715C104.704 128.715 104.578 128.673 104.452 128.547C103.444 127.245 101.975 126.531 100.421 126.531C98.8681 126.531 97.3988 127.287 96.3912 128.547C96.3073 128.673 96.1813 128.715 96.0134 128.715C95.9294 128.715 95.8874 128.715 95.8035 128.673C95.7195 128.589 95.5936 128.379 95.6356 128.169Z" fill="#A4AFB9"/>
<path d="M156.929 71.4108L162.848 72.0406C162.848 72.0406 161.883 70.4872 160.245 68.1783C160.203 68.1363 160.161 68.0523 160.119 68.0103C156.845 63.3084 151.009 55.5838 145.132 50.9239C142.151 48.5729 139.171 46.9776 136.526 46.9776C135.896 46.9776 135.308 47.0196 134.763 47.1035C133.629 47.2715 132.621 47.6493 131.782 48.1531L131.068 46.1799L129.683 42.3176C127.71 40.8903 125.317 39.5888 122.588 38.4973C119.565 37.2799 116.123 36.3143 112.428 35.6426C110.371 37.1119 107.894 39.4209 107.265 42.3596C107.139 42.9054 107.097 43.4931 107.097 44.1228C107.181 45.6762 107.265 46.8936 107.349 47.9012C107.558 50.7559 107.684 51.9734 107.894 53.8626C108.02 55.164 108.146 56.8013 108.566 58.6485C110.287 59.3202 112.176 59.698 114.15 59.698C117.592 59.698 120.741 58.5645 123.302 56.7173C123.847 56.2975 124.351 55.8777 124.855 55.4159C125.527 54.7862 126.114 54.0725 126.66 53.3168L134.93 57.389C134.93 57.389 134.93 57.347 134.972 57.347L140.43 60.0338L134.93 62.3428C137.365 65.0716 138.919 68.766 139.045 72.8802C139.045 73.0901 139.045 73.342 139.045 73.5519C139.045 73.8458 139.045 74.1816 139.003 74.4755L142.277 76.4906C142.277 76.4906 141.018 80.101 138.415 83.6694C138.331 83.7954 138.247 83.8794 138.163 84.0053C138.415 84.5511 138.667 85.0968 138.877 85.6426C140.22 88.8752 140.934 92.4436 140.934 96.2219C140.934 97.7333 140.808 99.2026 140.598 100.672C140.43 101.847 140.136 102.981 139.842 104.114C140.094 103.863 140.346 103.611 140.598 103.317C142.613 101.008 143.831 97.7333 143.831 93.9969C143.831 89.0011 141.354 84.9289 141.354 84.9289L146.559 73.5939C146.559 73.342 146.559 73.1321 146.559 72.8802C146.433 67.2966 143.789 58.6485 143.789 58.6485C143.789 58.6485 149.75 63.3504 152.101 72.7962C152.101 72.8382 152.101 72.8382 152.101 72.8802C151.345 79.5133 148.616 83.8794 146.769 86.4402C147.945 89.0851 148.658 92.4016 148.658 95.97C148.658 102.351 146.391 107.893 143.117 110.412C142.403 110.957 140.682 112.889 139.171 115.953C138.247 117.8 137.449 120.025 136.946 122.67C137.03 122.88 137.155 123.048 137.239 123.258C140.556 129.009 148.952 128.17 148.952 128.17C148.281 122.586 148.826 118.682 149.75 115.953C150.296 114.316 150.967 113.14 151.555 112.301C151.555 113.77 151.849 115.114 152.017 115.785C161.673 114.736 169.145 107.977 169.145 99.7904C169.145 90.8063 160.749 77.1623 157.894 72.7962C157.265 71.9146 156.929 71.4108 156.929 71.4108Z" fill="#A4AFB9"/>
<path d="M110.539 120.319C110.539 108.06 117.508 107.095 117.508 96.0116C117.508 94.2484 115.912 88.455 111.966 84.1309C112.134 84.3408 112.26 84.5087 112.428 84.7186C112.47 84.7606 112.512 84.8445 112.554 84.8865C112.68 85.0964 112.806 85.3063 112.932 85.4743C112.974 85.5162 112.974 85.5582 113.016 85.6002C113.142 85.7681 113.226 85.978 113.31 86.146C113.352 86.1879 113.352 86.2299 113.394 86.2719C113.52 86.4818 113.603 86.6917 113.687 86.8597C113.729 86.9016 113.729 86.9436 113.729 86.9856C113.813 87.1955 113.897 87.3634 113.981 87.5733C114.779 89.5045 115.241 91.5616 115.241 93.2408C115.241 93.4508 115.241 93.6607 115.199 93.8706C115.199 93.9125 115.199 93.9545 115.199 94.0385C115.199 94.1225 115.199 94.2064 115.157 94.2904C114.779 97.2711 112.764 98.7824 110.329 98.7824C108.02 98.7824 109.153 98.0267 106.131 98.0267C105.417 98.0267 103.864 99.1183 103.864 101.175V107.976C103.864 107.976 103.864 111.293 106.509 114.693C106.677 114.861 106.802 115.071 106.97 115.281C107.054 115.407 107.18 115.575 107.264 115.701C107.306 115.743 107.306 115.785 107.348 115.827C107.432 115.953 107.474 116.037 107.558 116.163C107.6 116.205 107.6 116.247 107.642 116.289C107.726 116.415 107.81 116.583 107.894 116.75C107.894 116.75 107.894 116.792 107.936 116.792C108.02 116.918 108.104 117.086 108.146 117.212C108.188 117.254 108.188 117.338 108.23 117.38C108.272 117.506 108.356 117.59 108.398 117.716C108.44 117.758 108.44 117.842 108.482 117.884C108.566 118.01 108.608 118.178 108.692 118.304C108.734 118.346 108.734 118.43 108.776 118.472C108.818 118.598 108.902 118.724 108.944 118.85C108.986 118.934 109.027 119.018 109.027 119.101C109.069 119.185 109.111 119.311 109.153 119.395C109.195 119.479 109.237 119.563 109.237 119.647C109.279 119.731 109.321 119.857 109.363 119.941C109.447 120.109 109.489 120.277 109.531 120.445C109.573 120.529 109.573 120.571 109.615 120.655C109.657 120.781 109.699 120.907 109.741 121.033C109.741 121.075 109.783 121.117 109.783 121.159C109.951 121.704 110.119 122.25 110.287 122.796C110.329 122.88 110.329 122.964 110.371 123.006C110.497 123.468 110.665 123.929 110.791 124.433C110.833 124.517 110.833 124.601 110.875 124.685C110.623 123.258 110.539 121.788 110.539 120.319Z" fill="#A4AFB9"/>
<path d="M83.4609 96.0116C83.4609 107.095 90.4299 108.06 90.4299 120.319C90.4299 121.788 90.3459 123.258 90.178 124.643C90.178 124.559 90.22 124.517 90.2619 124.433C90.3879 123.971 90.5138 123.551 90.6398 123.09C90.6818 123.006 90.6818 122.964 90.7237 122.88C90.7657 122.754 90.8077 122.67 90.8077 122.544C90.8497 122.418 90.8917 122.292 90.9336 122.208C90.9756 122.124 90.9756 122.04 91.0176 121.956C91.0596 121.788 91.1436 121.62 91.1855 121.452C91.2275 121.368 91.2275 121.326 91.2695 121.242C91.3115 121.117 91.3535 120.991 91.3954 120.865C91.4374 120.781 91.4374 120.739 91.4794 120.655C91.5214 120.487 91.6054 120.319 91.6473 120.151C91.6473 120.151 91.6473 120.109 91.6893 120.067C91.7733 119.899 91.8153 119.689 91.8992 119.521C91.8992 119.479 91.9412 119.395 91.9412 119.353C91.9832 119.227 92.0252 119.101 92.1091 118.975C92.1511 118.933 92.1511 118.85 92.1931 118.808C92.2771 118.64 92.319 118.472 92.403 118.346V118.304C92.487 118.136 92.5709 117.968 92.6129 117.8C92.6549 117.758 92.6549 117.716 92.6969 117.632C92.7389 117.506 92.8228 117.38 92.8648 117.254C92.9068 117.212 92.9068 117.17 92.9488 117.086C93.0327 116.918 93.1167 116.792 93.2007 116.624C93.2007 116.624 93.2007 116.624 93.2007 116.583C93.2846 116.415 93.3686 116.289 93.4525 116.121C93.4945 116.079 93.4945 116.037 93.5365 115.995C93.6205 115.869 93.6624 115.785 93.7464 115.659C93.7884 115.617 93.7884 115.575 93.8304 115.533C93.9143 115.407 94.0403 115.239 94.1242 115.113C94.2502 114.903 94.4181 114.735 94.586 114.525C97.2309 111.125 97.1889 107.808 97.1889 107.808V100.965C97.1889 98.9503 95.6356 97.8168 94.9219 97.8168C91.8992 97.8168 92.9907 98.5724 90.7237 98.5724C88.2888 98.5724 86.2737 97.0611 85.8959 94.0804C85.8959 93.9964 85.8959 93.9125 85.8539 93.8285C85.8539 93.7865 85.8539 93.7446 85.8539 93.6606C85.8539 93.4507 85.8119 93.2408 85.8119 93.0309C85.8119 91.3516 86.2737 89.2945 87.0714 87.3634C87.1553 87.1954 87.2393 86.9855 87.3232 86.8176C87.3652 86.7756 87.3652 86.6917 87.4072 86.6497C87.4912 86.4818 87.5751 86.2718 87.7011 86.0619C87.7431 86.02 87.743 85.936 87.785 85.894C87.869 85.7261 87.953 85.5582 88.0789 85.3902C88.1209 85.3483 88.1209 85.2643 88.1629 85.2223C88.2888 85.0124 88.4148 84.8445 88.5407 84.6346C88.5827 84.5926 88.6247 84.5086 88.6666 84.4666C88.7926 84.2567 88.9605 84.0888 89.0865 83.8789C85.0562 88.4549 83.4609 94.2483 83.4609 96.0116Z" fill="#A4AFB9"/>
<path d="M99.8335 145.424C99.3297 145.424 98.8679 145.508 98.4061 145.676C97.5245 146.012 96.7688 146.683 96.307 147.523C96.1391 147.859 95.9712 148.237 95.8872 148.614C95.8452 148.866 95.8032 149.16 95.8032 149.454C95.8032 149.874 95.8872 150.294 96.0131 150.713C96.349 151.679 96.9787 152.477 97.8603 152.981C98.1542 153.148 98.49 153.274 98.8679 153.4C98.7 153.316 98.574 153.274 98.4061 153.19C98.3641 153.19 98.3221 153.148 98.3221 153.106C98.1962 153.022 98.0702 152.939 97.9443 152.855L97.9023 152.813C97.7764 152.687 97.6504 152.603 97.5245 152.477C97.4825 152.435 97.4825 152.435 97.4405 152.393C97.3146 152.267 97.2306 152.141 97.1047 151.973C97.0207 151.847 96.9367 151.679 96.8528 151.553C96.8528 151.511 96.8108 151.469 96.8108 151.427C96.7268 151.259 96.6848 151.091 96.6009 150.923C96.6009 150.881 96.6009 150.839 96.5589 150.755C96.5169 150.63 96.5169 150.504 96.4749 150.378C96.4749 150.336 96.4749 150.294 96.4749 150.252C96.4329 150.084 96.4329 149.874 96.4329 149.706C96.4329 149.328 96.4749 148.992 96.5589 148.656C96.6848 148.279 96.8108 147.901 97.0207 147.565C97.5664 146.683 98.4481 146.054 99.4556 145.802C99.7495 145.718 100.085 145.676 100.421 145.676C100.589 145.676 100.757 145.676 100.925 145.718C101.009 145.718 101.093 145.76 101.177 145.76C101.261 145.76 101.303 145.802 101.387 145.802C100.925 145.55 100.421 145.424 99.8335 145.424Z" fill="#A4AFB9"/>
<path d="M42.8227 55.7936C43.0746 55.4997 43.2845 55.2478 43.5364 54.954C43.9982 54.4082 44.46 53.9044 44.9218 53.4007C45.3836 52.8969 45.8454 52.3931 46.2652 51.9313C47.9025 50.2101 49.4978 48.6987 51.0511 47.3553C52.1846 46.3898 53.2761 45.5501 54.3676 44.8364C50.9252 42.1496 47.4827 38.7911 47.4827 31.4863C47.4827 27.7919 48.91 24.3914 50.5053 21.7046C50.8412 21.0749 51.219 20.4871 51.6388 19.8574H46.8949H40.7656V58.3545C41.2694 57.7248 41.8152 57.0531 42.3609 56.3814C42.4869 56.1714 42.6548 56.0035 42.8227 55.7936Z" fill="#C01327"/>
<path d="M158.104 55.7946C158.818 56.6342 159.489 57.4738 160.161 58.3135V19.8164H154.032H149.288C149.708 20.4041 150.086 21.0339 150.421 21.6636C152.017 24.3504 153.444 27.7929 153.444 31.4453C153.444 37.5746 151.051 40.9331 148.238 43.41C148.028 43.7879 147.777 44.1237 147.357 44.5015C147.189 44.6695 147.021 44.7954 146.811 44.9633C147.861 45.719 148.952 46.5586 150.086 47.4822C152.646 49.7073 155.291 52.478 158.104 55.7946Z" fill="#C01327"/>
<path d="M135.056 32.5781C135.686 32.2003 136.232 31.8645 136.693 31.5286C136.819 31.4446 136.945 31.3607 137.113 31.2347L138.834 30.0593L137.029 28.7998C137.029 28.7998 137.029 28.7998 136.987 28.7998C133.293 26.6168 128.507 24.7276 123.721 23.5941C118.977 22.5026 113.688 21.7469 108.146 21.3691C108.104 21.3691 108.062 21.3691 108.02 21.3691C107.768 21.3691 107.474 21.3271 107.222 21.3271C107.012 21.3271 106.845 21.2851 106.635 21.2851C106.425 21.2851 106.215 21.2851 106.047 21.2431C105.627 21.2431 105.207 21.2012 104.787 21.2012H104.746C104.326 21.2012 103.864 21.1592 103.444 21.1592C103.36 21.1592 103.276 21.1592 103.192 21.1592C102.814 21.1592 102.437 21.1592 102.059 21.1172C101.975 21.1172 101.891 21.1172 101.807 21.1172C101.345 21.1172 100.883 21.1172 100.421 21.1172C99.9596 21.1172 99.4978 21.1172 99.036 21.1172C98.952 21.1172 98.8681 21.1172 98.7841 21.1172C98.4063 21.1172 98.0284 21.1172 97.6506 21.1592C97.5666 21.1592 97.4827 21.1592 97.3987 21.1592C96.9789 21.1592 96.5171 21.2012 96.0973 21.2012H96.0553C95.6355 21.2012 95.2157 21.2431 94.7959 21.2431C94.586 21.2431 94.418 21.2431 94.2081 21.2851C93.9982 21.2851 93.8303 21.3271 93.6204 21.3271C93.3685 21.3271 93.0746 21.3691 92.8227 21.3691C92.7808 21.3691 92.7388 21.3691 92.6968 21.3691C87.1552 21.7469 81.8656 22.5026 77.1216 23.5941C72.3358 24.7276 67.5918 26.6168 63.8555 28.7998C63.8555 28.7998 63.8555 28.7998 63.8135 28.7998L62.0083 30.0593L63.7295 31.2347C63.8555 31.3187 63.9814 31.4446 64.1494 31.5286C64.6112 31.8225 65.1989 32.2003 65.8286 32.5781C67.298 33.4178 69.439 34.5513 70.9923 35.223C72.2518 34.4673 73.8051 33.6277 75.5683 32.7041C81.6137 29.6814 90.3458 26.2389 100.631 25.1054C104.242 24.7276 108.02 24.6017 111.924 24.8955L110.917 25.5672L106.593 28.5059C106.593 28.5059 118.977 26.3649 126.492 29.1357L122.084 32.0744C122.923 32.3682 123.721 32.6621 124.519 32.956C126.282 33.6697 127.961 34.4253 129.515 35.3069C131.11 34.7192 133.461 33.5017 135.056 32.5781Z" fill="#C01327"/>
<path d="M96.9787 160.664C96.4749 160.664 96.223 160.664 95.7612 160.664C95.9292 163.225 96.0551 165.786 96.223 168.347C96.6848 168.347 96.8947 168.347 97.3565 168.347C97.5245 168.347 97.5664 168.263 97.5664 168.095C97.4825 165.702 97.3565 163.267 97.2726 160.874C97.2306 160.748 97.1466 160.664 96.9787 160.664Z" fill="#C01327"/>
<path d="M99.0782 151.679C99.498 151.47 99.9598 151.302 100.464 151.302C102.059 151.302 103.318 152.603 103.318 154.156C103.318 154.66 103.192 155.08 102.982 155.5C102.521 156.423 101.555 157.011 100.464 157.011C99.8339 157.011 99.2881 156.801 98.8263 156.507C97.9027 156.297 97.0211 155.878 96.2654 155.332C94.7961 154.24 93.7465 152.561 93.4527 150.672H89.6743L90.0102 153.779L92.2772 174.391H108.608L110.875 153.779L111.211 150.672H98.1966C98.4065 151.092 98.7004 151.428 99.0782 151.679ZM98.1546 170.571C98.0706 170.571 98.0286 170.571 97.9447 170.571C96.6433 170.571 95.3418 170.571 93.9984 170.571C93.7465 170.571 93.5786 170.571 93.3267 170.571C93.3267 170.529 93.3267 170.487 93.3267 170.445C93.2847 169.857 93.4946 169.354 93.8725 169.018C93.5786 165.995 93.3267 162.972 93.0328 159.95C92.5291 159.614 92.1512 159.11 92.1093 158.522C92.1093 158.48 92.0673 158.438 92.0673 158.396C92.4031 158.396 92.571 158.396 92.9069 158.396C94.4602 158.396 95.9716 158.396 97.5249 158.396C97.6088 158.396 97.6508 158.396 97.7768 158.396C99.3721 158.396 99.9598 158.942 99.9598 160.286C99.9598 163.056 100.002 165.869 100.002 168.64C100.002 170.025 99.498 170.571 98.1546 170.571ZM101.429 158.438C102.521 158.438 103.108 158.438 104.2 158.438C104.158 158.9 104.158 159.152 104.158 159.614C104.074 160.957 102.857 161.881 101.555 161.881C101.513 161.881 101.471 161.881 101.387 161.881C101.387 160.747 101.429 159.614 101.429 158.438ZM108.23 164.526C108.146 165.491 107.558 166.079 106.383 166.079C106.215 166.079 106.131 166.079 105.963 166.079C105.837 167.59 105.753 169.06 105.627 170.571C104.662 170.571 104.2 170.571 103.234 170.571C103.276 169.06 103.36 167.59 103.402 166.079C103.234 166.079 103.15 166.079 102.982 166.079C101.807 166.079 101.303 165.449 101.303 164.526C101.303 163.896 101.303 163.56 101.303 162.93C101.387 162.93 101.429 162.93 101.471 162.93C102.479 162.93 103.36 162.511 104.032 161.839C103.99 162.595 103.99 163.014 103.948 163.77C103.948 163.938 103.99 164.022 104.158 164.022C104.662 164.022 104.914 164.022 105.375 164.022C105.543 164.022 105.627 163.938 105.627 163.77C105.753 162.007 105.879 160.244 106.005 158.48C107.139 158.48 107.684 158.48 108.818 158.48C108.65 160.454 108.44 162.511 108.23 164.526Z" fill="#C01327"/>
<path d="M174.897 99.7882C174.897 93.0712 171.328 84.8008 167.928 78.3776L174.099 79.0493L167.76 68.9738C167.76 68.9738 167.718 68.9318 167.676 68.8478C167.508 68.5959 167.088 67.9242 166.458 66.9586C166.458 66.9586 166.458 66.9167 166.416 66.9167C166.416 66.8747 166.374 66.8747 166.374 66.8327V13.6001H149.246H142.655C141.186 12.6345 139.548 11.7529 137.743 10.9133C137.701 10.9133 137.659 10.8713 137.659 10.8713C137.365 10.7454 137.113 10.6194 136.819 10.4935C136.736 10.4515 136.652 10.4095 136.568 10.4095C136.274 10.2836 135.938 10.1576 135.644 10.0317C135.518 9.98971 135.392 9.94773 135.266 9.86376C135.056 9.7798 134.888 9.69584 134.678 9.61187C134.636 9.61187 134.636 9.56989 134.594 9.56989C134.594 9.56989 134.594 9.56989 134.552 9.56989C134.049 9.35998 133.503 9.19206 132.957 8.98215C132.873 8.94017 132.831 8.94017 132.747 8.89819C132.202 8.68828 131.656 8.52035 131.11 8.35243C131.068 8.35243 131.068 8.35243 131.026 8.31045C130.438 8.14252 129.851 7.93261 129.221 7.76469C129.137 7.72271 129.053 7.7227 129.011 7.68072C128.423 7.5128 127.835 7.34487 127.248 7.17695H127.206C126.576 7.00902 125.904 6.84109 125.233 6.67317H125.191C124.897 6.5892 124.603 6.54722 124.309 6.46326C123.259 6.21137 122.168 6.00146 121.076 5.79155C121.034 5.79155 121.034 5.79155 120.992 5.79155C120.321 5.66561 119.607 5.53966 118.935 5.41372C118.893 5.41372 118.893 5.41372 118.851 5.41372C118.18 5.28778 117.508 5.20381 116.836 5.11985C116.668 5.07787 116.542 5.07787 116.374 5.07787C115.829 4.99391 115.283 4.90994 114.695 4.86796C114.569 4.86796 114.443 4.82598 114.275 4.82598C113.646 4.74202 113.016 4.70004 112.386 4.61607C112.176 4.57409 111.966 4.57409 111.757 4.57409C111.211 4.53211 110.665 4.49013 110.119 4.44815C109.993 4.44815 109.825 4.40617 109.699 4.40617C109.028 4.36418 108.356 4.3222 107.726 4.28022C107.558 4.28022 107.39 4.23824 107.181 4.23824C106.509 4.19626 105.879 4.15427 105.207 4.15427C105.165 4.15427 105.123 4.15427 105.081 4.15427C104.368 4.11229 103.654 4.11229 102.94 4.11229C102.814 4.11229 102.647 4.11229 102.521 4.11229C101.807 4.11229 101.093 4.07031 100.38 4.07031C99.6658 4.07031 98.9522 4.07031 98.2385 4.11229C98.1125 4.11229 97.9446 4.11229 97.8187 4.11229C97.105 4.11229 96.3913 4.15427 95.6776 4.15427C95.6356 4.15427 95.5936 4.15427 95.5517 4.15427C94.8799 4.19626 94.2502 4.19626 93.5785 4.23824C93.4106 4.23824 93.2427 4.23824 93.0328 4.28022C92.3611 4.3222 91.6894 4.36418 91.0596 4.40617C90.9337 4.40617 90.7658 4.44815 90.6398 4.44815C90.0941 4.49013 89.5483 4.53211 89.0025 4.57409C88.7926 4.57409 88.5827 4.61607 88.3728 4.61607C87.7431 4.70004 87.1134 4.74202 86.4837 4.82598C86.3577 4.82598 86.2318 4.86796 86.0638 4.86796C85.5181 4.95193 84.9303 4.99391 84.3846 5.07787C84.2166 5.11985 84.0907 5.11985 83.9228 5.11985C83.2511 5.20381 82.5794 5.32976 81.9077 5.41372C81.8657 5.41372 81.8657 5.41372 81.8237 5.41372C81.11 5.53966 80.4383 5.66561 79.7666 5.79155C79.7246 5.79155 79.7246 5.79155 79.6826 5.79155C78.5911 6.00146 77.4996 6.21137 76.4501 6.46326C76.1562 6.54722 75.8623 6.5892 75.5685 6.67317H75.5265C74.8548 6.84109 74.1831 7.00902 73.5533 7.17695H73.5114C72.9236 7.34487 72.3359 7.5128 71.7481 7.68072C71.6642 7.68072 71.5802 7.72271 71.5382 7.76469C70.9505 7.93261 70.3208 8.14252 69.733 8.31045C69.691 8.31045 69.691 8.31045 69.6491 8.35243C69.1033 8.52035 68.5575 8.73026 68.0118 8.89819C67.9278 8.94017 67.8858 8.94017 67.8019 8.98215C67.2561 9.19206 66.7523 9.35998 66.2066 9.56989C66.2066 9.56989 66.2066 9.56989 66.1646 9.56989C66.1226 9.56989 66.1226 9.56989 66.0806 9.61187C65.8707 9.69584 65.7028 9.7798 65.4929 9.86376C65.3669 9.90575 65.241 9.94773 65.115 10.0317C64.8212 10.1576 64.4853 10.2836 64.1915 10.4095C64.1075 10.4515 64.0235 10.4935 63.9396 10.4935C63.6457 10.6194 63.3938 10.7454 63.0999 10.8713C63.058 10.8713 63.016 10.9133 63.016 10.9133C61.2108 11.7529 59.5735 12.6345 58.1041 13.6001H51.513H34.5525V66.8327C34.5105 66.8747 34.4685 66.9586 34.4266 67.0006C34.4266 67.0426 34.3846 67.0426 34.3846 67.0846C34.3426 67.1686 34.2586 67.2525 34.2166 67.3365L34.1747 67.3785C34.0907 67.5044 34.0487 67.5884 33.9648 67.7143C33.5869 68.2601 33.335 68.6799 33.2091 68.8898C33.1671 68.9318 33.1251 68.9738 33.1251 69.0157L26.7859 79.0913L32.9572 78.4196C29.5147 84.8428 25.9463 93.1131 25.9463 99.8302C25.9463 100.586 25.9883 101.342 26.0722 102.097C26.702 107.303 29.3888 112.089 33.8388 115.741C34.1327 115.951 34.3846 116.203 34.6784 116.413C34.7624 116.455 34.8464 116.539 34.9303 116.581C35.1402 116.749 35.3502 116.875 35.602 117.043C35.686 117.085 35.77 117.169 35.8539 117.211C36.1058 117.378 36.3157 117.504 36.5676 117.672C36.6516 117.714 36.6936 117.756 36.7775 117.798C37.0714 117.966 37.3653 118.134 37.6591 118.302C37.6591 118.302 37.7011 118.302 37.7011 118.344C31.152 129.973 31.194 141.35 31.6138 146.304C31.6138 146.514 31.6558 146.682 31.6558 146.849C31.6558 146.849 31.6558 146.849 31.6558 146.891C31.6558 147.059 31.6978 147.227 31.6978 147.395C31.6978 147.395 31.6978 147.395 31.6978 147.437C31.6978 147.605 31.7397 147.731 31.7397 147.857C31.7397 147.857 31.7397 147.857 31.7397 147.899C31.7397 148.025 31.7817 148.151 31.7817 148.235C31.7817 148.319 31.8237 148.445 31.8237 148.529C31.8237 148.613 31.8657 148.655 31.8657 148.739C31.8657 148.781 31.8657 148.823 31.9077 148.865V148.907L37.869 146.136C39.1705 150.712 42.613 159.696 51.0932 169.142L54.0739 172.458L54.1159 172.374L54.1998 172.458L55.9631 165.867C56.9287 167.043 58.1881 168.386 59.6574 169.855C66.5424 176.95 79.1789 187.32 100.296 196.052L100.38 196.094L100.463 196.052C116.458 189.461 127.626 181.862 135.056 175.523C137.407 173.508 139.422 171.619 141.06 169.897C141.144 169.813 141.27 169.729 141.353 169.603C142.739 168.26 143.872 167.001 144.796 165.867L146.097 170.737L146.559 172.5L146.643 172.416L146.685 172.5L147.315 171.787L149.624 169.184C158.104 159.738 161.547 150.754 162.848 146.178L168.809 148.949C168.809 148.949 168.809 148.949 168.809 148.907C168.809 148.865 168.809 148.823 168.851 148.781C168.851 148.739 168.851 148.655 168.893 148.571C168.893 148.487 168.935 148.403 168.935 148.277C168.935 148.151 168.977 148.067 168.977 147.899C168.977 147.773 169.019 147.605 169.019 147.479C169.019 147.311 169.061 147.143 169.061 146.975C169.523 142.399 169.859 130.561 163.058 118.428C163.058 118.428 163.1 118.428 163.1 118.386C163.394 118.218 163.688 118.05 163.982 117.882C164.065 117.84 164.107 117.798 164.191 117.756C164.443 117.588 164.653 117.462 164.905 117.294C164.989 117.253 165.073 117.169 165.157 117.127C165.367 116.959 165.577 116.833 165.829 116.665C165.913 116.623 165.997 116.539 166.081 116.497C166.374 116.287 166.668 116.077 166.92 115.825C167.76 115.153 168.516 114.44 169.229 113.642C172.294 110.368 174.183 106.421 174.687 102.181C174.855 101.3 174.897 100.544 174.897 99.7882ZM122.126 32.156L126.534 29.2172C118.977 26.4465 106.635 28.5875 106.635 28.5875L110.959 25.6488L111.966 24.9771C108.062 24.6832 104.242 24.7672 100.673 25.187C90.3879 26.3205 81.6558 29.721 75.6104 32.7857C73.8472 33.6673 72.2939 34.5489 71.0344 35.3046C69.4811 34.5909 67.3401 33.4994 65.8707 32.6597C65.241 32.2819 64.6952 31.946 64.1915 31.6102C64.0655 31.5262 63.9396 31.4423 63.7716 31.3163L62.0504 30.1408L63.8556 28.8814C63.8556 28.8814 63.8556 28.8814 63.8976 28.8814C67.592 26.6984 72.3779 24.8092 77.1637 23.6757C81.9077 22.5842 87.1973 21.8285 92.7389 21.4507C92.7809 21.4507 92.8229 21.4507 92.8648 21.4507C93.1167 21.4507 93.4106 21.4087 93.6625 21.4087C93.8724 21.4087 94.0403 21.3667 94.2502 21.3667C94.4601 21.3667 94.67 21.3667 94.838 21.3247C95.2578 21.3247 95.6776 21.2827 96.0974 21.2827H96.1394C96.5592 21.2827 97.021 21.2408 97.4408 21.2408C97.5248 21.2408 97.6087 21.2408 97.6927 21.2408C98.0705 21.2408 98.4484 21.2408 98.8262 21.1988C98.9102 21.1988 98.9941 21.1988 99.0781 21.1988C99.5399 21.1988 100.002 21.1988 100.463 21.1988C100.925 21.1988 101.387 21.1988 101.849 21.1988C101.933 21.1988 102.017 21.1988 102.101 21.1988C102.479 21.1988 102.856 21.1988 103.234 21.2408C103.318 21.2408 103.402 21.2408 103.486 21.2408C103.906 21.2408 104.368 21.2827 104.788 21.2827H104.83C105.249 21.2827 105.669 21.3247 106.089 21.3247C106.299 21.3247 106.467 21.3247 106.677 21.3667C106.887 21.3667 107.055 21.4087 107.265 21.4087C107.516 21.4087 107.81 21.4507 108.062 21.4507C108.104 21.4507 108.146 21.4507 108.188 21.4507C113.73 21.8285 119.019 22.5842 123.763 23.6757C128.549 24.8092 133.293 26.6984 137.029 28.8814H137.071L138.877 30.1408L137.155 31.3163C137.029 31.4003 136.903 31.5262 136.736 31.6102C136.274 31.9041 135.686 32.2819 135.098 32.6597C133.503 33.5833 131.152 34.8008 129.557 35.4725C128.003 34.6329 126.324 33.8352 124.561 33.1215C123.763 32.7437 122.966 32.4498 122.126 32.156ZM40.7658 19.8134H46.8951H51.639C51.2192 20.4011 50.8413 21.0309 50.5055 21.6606C48.9102 24.3474 47.4828 27.7899 47.4828 31.4423C47.4828 38.7471 50.9253 42.1056 54.3678 44.7924C53.2763 45.5061 52.1847 46.3877 51.0512 47.3113C49.4979 48.6127 47.9026 50.124 46.2653 51.8873C45.8035 52.3491 45.3837 52.8528 44.9219 53.3566C44.4601 53.8604 43.9983 54.4062 43.5365 54.9099C43.2847 55.1618 43.0748 55.4557 42.8229 55.7496C42.6549 55.9595 42.487 56.1274 42.3611 56.3373C41.8153 57.009 41.2695 57.6387 40.7658 58.3104V19.8134ZM58.8178 39.0409C57.8103 38.1173 57.0966 37.2357 56.6348 36.4381C56.215 35.6404 56.047 34.9267 56.047 34.255C56.047 33.5833 56.215 32.8696 56.6348 32.072C56.8447 31.6522 57.1386 31.2324 57.5164 30.8125C57.6004 31.2324 57.7683 31.6522 58.0202 32.156C58.44 32.9536 59.1537 33.8772 60.1192 34.7588C61.5886 36.1442 63.7297 37.5296 66.3745 38.7471L65.4929 41.224C65.4929 41.224 65.4509 41.224 65.4509 41.2659C65.1151 41.224 64.7372 41.224 64.4014 41.224C63.8136 41.224 63.2259 41.2659 62.5962 41.3499C62.4282 41.3919 62.2603 41.3919 62.0924 41.4339C60.791 40.6362 59.6994 39.8386 58.8178 39.0409ZM144.292 36.4381C143.537 37.8654 141.857 39.5447 139.338 41.098C139.17 41.182 139.003 41.3079 138.835 41.3919C138.667 41.3499 138.499 41.3499 138.331 41.3079C137.743 41.224 137.113 41.182 136.568 41.182C136.232 41.182 135.854 41.182 135.518 41.224C135.518 41.224 135.476 41.224 135.476 41.182L134.594 38.7051C135.938 38.0753 137.113 37.4036 138.163 36.7319C140.598 35.1786 142.235 33.4994 142.949 32.072C143.201 31.6102 143.369 31.1484 143.453 30.7286C143.83 31.1904 144.124 31.6102 144.334 31.988C144.754 32.7857 144.922 33.4994 144.922 34.1711C144.922 34.9267 144.754 35.5984 144.292 36.4381ZM146.853 45.0023C147.021 44.8344 147.231 44.7084 147.399 44.5405C147.777 44.2046 148.071 43.8268 148.28 43.449C151.093 40.9301 153.486 37.6136 153.486 31.4843C153.486 27.7899 152.059 24.3894 150.463 21.7026C150.128 21.0728 149.75 20.4851 149.33 19.8554H154.074H160.203V58.3524C159.531 57.5128 158.86 56.6732 158.146 55.8335C155.333 52.517 152.689 49.7462 150.128 47.5632C148.994 46.5556 147.903 45.716 146.853 45.0023ZM90.4719 9.56989C93.7045 9.27602 97.021 9.15008 100.463 9.15008H100.505H100.547C103.99 9.15008 107.306 9.318 110.539 9.56989C118.222 10.2416 125.233 11.627 131.026 13.6001C131.866 13.894 132.663 14.1459 133.419 14.4817C134.846 15.0275 136.19 15.6572 137.449 16.2869C139.548 17.3365 141.437 18.512 142.991 19.8134C143.285 20.0653 143.579 20.3172 143.83 20.5691C145.132 21.7865 146.223 23.0879 147.021 24.5993C147.273 25.1031 147.231 25.4389 146.979 25.5649C146.433 25.9007 146.013 25.5649 145.216 24.8931C143.033 22.962 140.22 21.2827 136.945 19.8554C136.148 19.5195 135.308 19.1417 134.427 18.8058C131.908 17.8403 129.095 17.0006 126.114 16.2869C120.321 14.9015 113.688 13.978 106.635 13.6001C104.62 13.5162 102.563 13.4322 100.463 13.4322H100.422H100.38C98.2805 13.4322 96.2234 13.4742 94.2083 13.6001C87.1134 13.936 80.5223 14.8596 74.7288 16.2869C71.7481 17.0006 68.9354 17.8403 66.4165 18.8058C65.5349 19.1417 64.6952 19.4775 63.8976 19.8554C60.581 21.3247 57.8103 22.962 55.6272 24.8931C54.8716 25.5649 54.4098 25.9007 53.864 25.5649C53.6121 25.3969 53.5701 25.1031 53.822 24.5993C54.6197 23.0879 55.7112 21.7865 57.0126 20.5691C57.3065 20.3172 57.5584 20.0653 57.8522 19.8134C59.4475 18.512 61.2947 17.3365 63.3938 16.2869C64.6533 15.6572 65.9967 15.0275 67.466 14.4817C68.2217 14.1879 69.0613 13.894 69.859 13.6001C75.7784 11.627 82.7893 10.2416 90.4719 9.56989ZM164.024 137.739L159.364 135.598V135.64L159.322 135.598L158.86 138.747C158.86 138.789 158.398 141.644 156.593 145.968C155.249 149.2 152.898 153.818 149.036 158.856L146.853 150.586L146.811 150.67V150.586L143.914 155.456C143.872 155.54 141.27 159.78 134.888 165.699L134.846 165.741C134.72 165.867 134.594 165.993 134.469 166.077C128.633 171.451 119.775 178.084 107.097 184.297C106.593 184.549 106.089 184.759 105.585 185.011C105.543 185.011 105.501 185.053 105.459 185.053C104.997 185.263 104.536 185.472 104.074 185.682C103.99 185.724 103.906 185.766 103.822 185.808C103.402 186.018 102.94 186.186 102.521 186.396C102.395 186.438 102.311 186.48 102.185 186.564C101.639 186.816 101.135 187.026 100.589 187.278C100.589 187.278 100.589 187.278 100.547 187.278C100.002 187.026 99.4559 186.816 98.9102 186.564C98.7842 186.522 98.7003 186.48 98.5743 186.396C98.1125 186.186 97.6927 186.018 97.2729 185.808C97.1889 185.766 97.105 185.724 97.021 185.682C96.5592 185.472 96.0974 185.263 95.6356 185.053C95.5936 185.053 95.5517 185.011 95.5097 185.011C95.0059 184.759 94.5021 184.549 93.9983 184.297C66.7943 171.073 57.3065 155.624 57.1805 155.456L54.2838 150.586V150.67L54.2418 150.586L52.0588 158.856C48.1965 153.86 45.8455 149.2 44.5021 145.968C42.6969 141.644 42.2351 138.747 42.2351 138.747L41.7733 135.598L41.7313 135.64V135.598L37.0714 137.739C38.0789 130.645 40.8077 123.97 42.529 120.233C43.0328 120.401 43.5785 120.569 44.0823 120.695H44.1243C44.3342 120.737 44.5441 120.821 44.796 120.863C44.88 120.863 44.9639 120.905 45.0479 120.905C45.0899 120.905 45.1318 120.905 45.1738 120.947C45.4677 121.031 45.7616 121.073 46.0554 121.115C46.0974 121.115 46.1394 121.115 46.1814 121.157C46.4753 121.199 46.7691 121.241 47.063 121.325C47.105 121.325 47.1889 121.325 47.2309 121.367C47.5668 121.409 47.9446 121.451 48.2805 121.493C47.7767 123.088 47.063 125.061 46.3913 127.412C45.8036 129.385 46.1394 133.919 53.2343 133.919C53.4442 133.919 53.6121 133.919 53.78 133.919C53.948 133.919 54.1579 133.919 54.3258 133.919C54.3678 133.919 54.4517 133.919 54.4937 133.919C54.5357 133.919 54.5777 133.919 54.6616 133.919C54.7876 133.919 54.9555 133.877 55.0815 133.877C55.2074 133.877 55.3753 133.877 55.5013 133.835C55.5852 133.835 55.6692 133.835 55.7532 133.793C56.089 133.751 56.4669 133.709 56.8027 133.667C56.8867 133.667 56.9706 133.625 57.0126 133.625C57.3065 133.583 57.5584 133.541 57.8522 133.457C57.9362 133.457 58.0622 133.415 58.1461 133.415C58.44 133.331 58.7339 133.289 59.0277 133.205C59.0697 133.205 59.1117 133.205 59.1117 133.164C59.4475 133.08 59.7414 132.996 60.0773 132.87C60.1612 132.828 60.2452 132.828 60.3292 132.786C60.581 132.702 60.791 132.618 61.0428 132.534C61.1268 132.492 61.2108 132.492 61.2947 132.45C61.5886 132.324 61.8825 132.198 62.1763 132.072C62.2183 132.03 62.2603 132.03 62.3443 131.988C62.5962 131.862 62.8061 131.736 63.058 131.61C63.1419 131.568 63.2259 131.526 63.3098 131.484C63.5198 131.358 63.7716 131.232 63.9816 131.064C64.0235 131.022 64.0655 131.022 64.1075 130.98C64.3594 130.813 64.6113 130.645 64.8632 130.477C64.9471 130.435 64.9891 130.393 65.0731 130.309C65.157 130.225 65.283 130.141 65.3669 130.099C66.0386 133.541 67.7599 142.651 76.1562 144.457C79.6826 148.109 83.6709 150.964 87.953 152.895L90.304 174.557L90.5139 176.446H94.1243H106.971H110.581L110.791 174.557L113.058 152.895C117.34 150.964 121.328 148.109 124.855 144.457C133.251 142.651 134.972 133.541 135.644 130.099C135.728 130.183 135.854 130.267 135.938 130.309C136.022 130.351 136.064 130.393 136.148 130.477C136.4 130.645 136.652 130.813 136.903 130.98C136.945 131.022 136.987 131.022 137.029 131.064C137.239 131.19 137.449 131.316 137.701 131.484C137.785 131.526 137.869 131.568 137.953 131.61C138.163 131.736 138.415 131.862 138.667 131.988C138.709 132.03 138.751 132.03 138.835 132.072C139.128 132.198 139.422 132.324 139.716 132.45C139.8 132.492 139.884 132.534 139.968 132.534C140.22 132.618 140.43 132.702 140.682 132.786C140.766 132.828 140.85 132.828 140.934 132.87C141.228 132.954 141.563 133.08 141.899 133.164C141.941 133.164 141.983 133.164 141.983 133.205C142.277 133.289 142.571 133.373 142.865 133.415C142.949 133.457 143.075 133.457 143.159 133.457C143.453 133.499 143.704 133.583 143.998 133.625C144.082 133.625 144.166 133.667 144.208 133.667C144.544 133.709 144.922 133.751 145.258 133.793C145.342 133.793 145.426 133.793 145.51 133.835C145.636 133.835 145.804 133.877 145.929 133.877C146.055 133.877 146.223 133.919 146.349 133.919C146.433 133.919 146.559 133.919 146.643 133.919C147.021 133.919 147.399 133.961 147.777 133.961C154.872 133.961 155.207 129.427 154.62 127.454C153.906 125.061 153.234 123.13 152.73 121.535C153.066 121.493 153.444 121.451 153.78 121.409C153.822 121.409 153.906 121.409 153.948 121.367C154.242 121.325 154.536 121.283 154.83 121.199C154.872 121.199 154.914 121.199 154.956 121.157C155.249 121.115 155.543 121.031 155.879 120.947C155.921 120.947 155.963 120.947 156.005 120.905C156.089 120.905 156.173 120.863 156.257 120.863C156.467 120.821 156.677 120.737 156.887 120.695H156.929C157.474 120.569 157.978 120.401 158.482 120.233C160.287 123.97 163.016 130.687 164.024 137.739ZM110.917 153.776L108.65 174.389H92.3191L90.0521 153.776L89.7162 150.67H93.4946C93.7884 152.601 94.838 154.238 96.3073 155.33C97.063 155.876 97.9446 156.295 98.8682 156.505C99.33 156.841 99.9177 157.009 100.505 157.009C101.597 157.009 102.563 156.379 103.024 155.498C103.234 155.078 103.36 154.658 103.36 154.154C103.36 152.559 102.059 151.3 100.505 151.3C100.002 151.3 99.5399 151.425 99.1201 151.677C98.7422 151.425 98.4484 151.09 98.2805 150.67H111.295L110.917 153.776ZM96.8111 145.506C97.7767 144.624 99.0781 144.121 100.463 144.121C101.891 144.121 103.15 144.666 104.158 145.506C104.284 145.632 104.41 145.716 104.536 145.842C103.738 146.01 103.024 146.136 102.563 146.22C102.227 146.01 101.849 145.842 101.471 145.758C101.387 145.758 101.303 145.716 101.261 145.716C101.177 145.716 101.093 145.674 101.009 145.674C100.841 145.674 100.673 145.632 100.505 145.632C100.17 145.632 99.8338 145.674 99.5399 145.758C98.5323 146.01 97.6507 146.64 97.105 147.521C96.8951 147.857 96.7271 148.235 96.6432 148.613C96.5592 148.949 96.5172 149.284 96.5172 149.662C96.5172 149.83 96.5172 150.04 96.5592 150.208C96.5592 150.25 96.5592 150.292 96.5592 150.334C96.5592 150.46 96.6012 150.586 96.6432 150.712C96.6432 150.754 96.6432 150.796 96.6852 150.88C96.7271 151.048 96.8111 151.216 96.8951 151.383C96.8951 151.425 96.937 151.467 96.937 151.509C97.021 151.677 97.105 151.803 97.1889 151.929C97.2729 152.055 97.3988 152.223 97.5248 152.349C97.5668 152.391 97.5668 152.391 97.6088 152.433C97.7347 152.559 97.8606 152.685 97.9866 152.769L98.0286 152.811C98.1545 152.895 98.2805 152.979 98.4064 153.063C98.4484 153.105 98.4904 153.105 98.4904 153.147C98.6163 153.231 98.7842 153.315 98.9522 153.357C99.4559 153.567 99.9597 153.692 100.547 153.692C101.219 153.692 101.807 153.525 102.353 153.231C102.143 153.902 101.387 155.372 99.1201 154.994C98.6163 154.868 98.1125 154.658 97.6927 154.364C96.3493 153.567 95.3837 152.223 95.0899 150.67C95.0059 150.334 95.0059 149.998 95.0059 149.62C95.0059 149.284 95.0479 148.907 95.0899 148.571C95.1738 148.193 95.2578 147.815 95.4257 147.479C95.6776 146.724 96.1814 146.052 96.8111 145.506ZM105.963 145.17C104.662 143.575 102.689 142.567 100.463 142.567C98.2385 142.567 96.2653 143.575 94.9639 145.17C92.1092 144.541 89.3384 143.365 86.7355 141.812C87.6591 140.93 88.5827 139.839 89.5063 138.453C92.8229 140.426 96.5592 141.476 100.463 141.476C104.326 141.476 108.104 140.426 111.421 138.453C112.344 139.839 113.268 140.93 114.191 141.812C111.589 143.365 108.818 144.499 105.963 145.17ZM72.5878 65.9931C72.6717 65.2374 72.8397 64.5237 73.0496 63.852C74.0151 64.3978 74.9807 65.0275 75.9043 65.6992C77.4576 66.8327 78.885 68.0082 80.1444 69.2676C79.6826 70.5271 77.0378 71.1568 75.9043 68.428C75.4005 70.2332 75.8623 71.8285 76.8699 72.7941C77.4996 73.3818 78.2972 73.8016 79.2208 73.8856C81.236 74.0955 82.5374 73.1719 82.9572 72.7941C83.0831 72.7101 83.1251 72.6261 83.1251 72.6261C83.1251 72.6261 83.1671 72.6681 83.2931 72.7941C83.5869 73.0879 84.1327 73.6337 84.2166 73.7596C80.2284 76.6564 74.7708 75.7748 74.309 75.6908C73.7633 74.8092 73.3434 73.8436 73.0496 72.7941C72.4198 70.611 72.2939 68.2181 72.5878 65.9931ZM121.664 73.8856C122.588 73.8016 123.427 73.3818 124.015 72.7941C125.023 71.8285 125.484 70.2332 124.981 68.428C123.805 71.1568 121.202 70.5271 120.741 69.2676C122 68.0082 123.427 66.8327 124.981 65.6992C125.904 65.0275 126.87 64.3978 127.835 63.852C128.045 64.5657 128.213 65.2794 128.297 65.9931C128.591 68.2181 128.465 70.653 127.835 72.8361C127.542 73.8856 127.122 74.8512 126.576 75.7328C126.114 75.8167 120.615 76.6984 116.668 73.8016C116.752 73.6757 117.34 73.0879 117.592 72.8361C117.676 72.7521 117.76 72.6681 117.76 72.6681C117.76 72.6681 117.802 72.7101 117.928 72.8361C118.39 73.1719 119.649 74.1375 121.664 73.8856ZM113.646 74.4733C115.073 77.1602 117.13 80.1408 119.565 81.4423C125.359 84.5489 128.927 89.2928 128.927 94.4565C128.927 100.796 126.03 104.994 126.366 111.627C121.538 108.898 122.42 101.467 122.42 101.467C122.42 101.467 120.111 103.944 120.111 108.017C120.111 117.756 125.736 119.226 127.038 128.462C127.206 129.679 127.332 131.064 127.332 132.618C127.332 134.969 125.233 138.999 121.832 138.999C120.657 138.999 119.649 138.789 118.725 138.453C113.982 136.606 112.428 130.393 110.707 124.431C110.581 123.97 110.413 123.466 110.287 123.004C110.245 122.92 110.245 122.836 110.203 122.794C110.035 122.248 109.867 121.703 109.699 121.157C109.699 121.115 109.657 121.073 109.657 121.031C109.615 120.905 109.573 120.779 109.532 120.653C109.49 120.569 109.49 120.527 109.448 120.443C109.406 120.275 109.322 120.107 109.28 119.939C109.238 119.855 109.196 119.729 109.154 119.645C109.112 119.561 109.07 119.478 109.07 119.394C109.028 119.31 108.986 119.184 108.944 119.1C108.902 119.016 108.86 118.932 108.86 118.848C108.818 118.722 108.776 118.596 108.692 118.47C108.65 118.428 108.65 118.344 108.608 118.302C108.524 118.176 108.482 118.008 108.398 117.882C108.356 117.84 108.356 117.756 108.314 117.714C108.272 117.588 108.188 117.504 108.146 117.378C108.104 117.336 108.104 117.253 108.062 117.211C107.978 117.085 107.894 116.917 107.852 116.791C107.852 116.791 107.852 116.749 107.81 116.749C107.726 116.581 107.642 116.455 107.558 116.287C107.516 116.245 107.516 116.203 107.474 116.161C107.39 116.035 107.348 115.951 107.265 115.825C107.223 115.783 107.223 115.741 107.181 115.699C107.097 115.573 106.971 115.405 106.887 115.279C106.719 115.069 106.593 114.902 106.425 114.692C103.78 111.291 103.78 107.975 103.78 107.975V101.132C103.78 99.1165 105.333 97.983 106.047 97.983C109.07 97.983 107.978 98.7387 110.245 98.7387C112.68 98.7387 114.695 97.2273 115.073 94.2466C115.073 94.1627 115.073 94.0787 115.115 93.9947C115.115 93.9528 115.115 93.9108 115.115 93.8268C115.115 93.6169 115.157 93.407 115.157 93.1971C115.157 91.5178 114.695 89.4607 113.898 87.5296C113.814 87.3617 113.73 87.1518 113.646 86.9418C113.646 86.8999 113.604 86.8579 113.604 86.8159C113.52 86.606 113.394 86.4381 113.31 86.2282C113.268 86.1862 113.268 86.1442 113.226 86.1022C113.142 85.9343 113.016 85.7244 112.932 85.5565C112.89 85.5145 112.89 85.4725 112.848 85.4305C112.722 85.2206 112.596 85.0107 112.47 84.8428C112.428 84.8008 112.386 84.7168 112.344 84.6748C111.673 83.7513 110.875 82.8277 109.825 82.156C109.322 81.8201 108.734 81.5682 108.146 81.4842C106.425 81.1904 104.494 81.0225 102.563 80.9385C101.849 80.8965 101.177 80.8965 100.463 80.8965C100.044 80.8965 99.6239 80.8965 99.204 80.8965C98.9102 80.8965 98.6583 80.8965 98.3644 80.9385C96.3913 81.0225 94.5021 81.1904 92.7809 81.4842C92.1512 81.5682 91.6054 81.8201 91.1016 82.156C90.0941 82.8277 89.2544 83.7513 88.5827 84.6748C88.5407 84.7168 88.4988 84.8008 88.4568 84.8428C88.3308 85.0527 88.2049 85.2206 88.0789 85.4305C88.037 85.4725 88.037 85.5565 87.995 85.5984C87.911 85.7664 87.7851 85.9343 87.7011 86.1022C87.6591 86.1442 87.6591 86.2282 87.6171 86.2701C87.5332 86.48 87.4072 86.648 87.3233 86.8579C87.2813 86.8999 87.2813 86.9838 87.2393 87.0258C87.1554 87.2357 87.0714 87.4036 86.9874 87.5716C86.1898 89.5027 85.728 91.5598 85.728 93.2391C85.728 93.449 85.728 93.6589 85.77 93.8688C85.77 93.9108 85.77 93.9528 85.77 94.0367C85.77 94.1207 85.77 94.2046 85.8119 94.2886C86.1898 97.2693 88.2049 98.7806 90.6398 98.7806C92.9488 98.7806 91.8153 98.025 94.838 98.025C95.5517 98.025 97.105 99.1165 97.105 101.174V107.975C97.105 107.975 97.105 111.291 94.5021 114.692C94.3342 114.86 94.2083 115.069 94.0403 115.279C93.9564 115.405 93.8304 115.573 93.7465 115.699C93.7045 115.741 93.7045 115.783 93.6625 115.825C93.5785 115.951 93.5365 116.035 93.4526 116.161C93.4106 116.203 93.4106 116.245 93.3686 116.287C93.2847 116.455 93.2007 116.581 93.1167 116.749C93.1167 116.749 93.1167 116.749 93.1167 116.791C93.0328 116.959 92.9488 117.085 92.8648 117.253C92.8229 117.294 92.8229 117.336 92.7809 117.42C92.7389 117.546 92.6549 117.672 92.6129 117.798C92.571 117.84 92.571 117.882 92.529 117.966C92.445 118.134 92.3611 118.302 92.3191 118.47V118.512C92.2351 118.68 92.1931 118.848 92.1092 118.974C92.0672 119.016 92.0672 119.1 92.0252 119.142C91.9832 119.268 91.9412 119.394 91.8573 119.52C91.8573 119.561 91.8153 119.645 91.8153 119.687C91.7313 119.855 91.6894 120.065 91.6054 120.233C91.6054 120.233 91.6054 120.275 91.5634 120.317C91.5214 120.485 91.4375 120.653 91.3955 120.821C91.3535 120.905 91.3535 120.947 91.3115 121.031C91.2695 121.157 91.2276 121.283 91.1856 121.409C91.1436 121.493 91.1436 121.535 91.1016 121.619C91.0596 121.787 90.9757 121.954 90.9337 122.122C90.8917 122.206 90.8917 122.29 90.8497 122.374C90.8077 122.5 90.7658 122.626 90.7238 122.71C90.6818 122.836 90.6398 122.92 90.6398 123.046C90.5978 123.13 90.5978 123.172 90.5559 123.256C90.4299 123.718 90.304 124.137 90.178 124.599C88.4568 130.561 86.9454 136.774 82.2015 138.621C81.2779 138.957 80.2704 139.167 79.0949 139.167C75.6944 139.167 73.5953 135.137 73.5953 132.786C73.5953 131.232 73.6793 129.889 73.8892 128.63C75.2326 119.394 80.8161 117.924 80.8161 108.184C80.8161 104.07 78.5072 101.635 78.5072 101.635C78.5072 101.635 79.3468 109.066 74.5609 111.795C74.8967 105.162 72 100.922 72 94.6245C72 89.4607 75.5685 84.7168 81.3619 81.6102C83.7968 80.3088 85.8539 77.3281 87.2813 74.6413C90.0521 73.8016 92.9068 73.2559 95.9295 72.962C97.4408 72.8361 98.9522 72.7521 100.463 72.7521C102.017 72.7521 103.528 72.8361 104.997 72.962C108.02 73.0879 110.875 73.6757 113.646 74.4733ZM100.463 119.729C103.108 119.729 105.921 123.802 106.803 126.992C107.139 128.252 107.516 129.469 107.894 130.729C108.146 131.568 108.44 132.408 108.776 133.247C106.383 134.801 103.528 135.682 100.463 135.682C97.3988 135.682 94.5441 134.801 92.1512 133.247C92.445 132.408 92.7389 131.568 93.0328 130.729C93.4106 129.469 93.7884 128.21 94.1663 126.992C95.0059 123.802 97.8187 119.729 100.463 119.729ZM94.4601 87.1518C92.8648 87.1518 91.3955 87.6555 90.4299 88.4112C90.8497 87.5296 91.3955 86.564 92.1931 85.7664C92.445 85.5145 92.7389 85.2626 93.0328 85.0527C93.0747 85.0107 93.1587 85.0107 93.2007 84.9687C93.2427 84.9687 93.2847 84.9267 93.3266 84.9267C93.5365 84.8848 93.7884 84.8428 93.9983 84.8428C95.4257 84.6329 96.937 84.5069 98.5323 84.4649C98.5743 84.4649 98.6163 84.4649 98.6583 84.4649C99.288 84.423 99.8758 84.423 100.463 84.423C101.051 84.423 101.681 84.423 102.269 84.4649C102.311 84.4649 102.353 84.4649 102.395 84.4649C103.99 84.5069 105.501 84.6748 106.929 84.8428C107.139 84.8847 107.39 84.8848 107.6 84.9267C107.642 84.9267 107.684 84.9267 107.726 84.9687C107.81 84.9687 107.852 85.0107 107.894 85.0527C108.65 85.5565 109.28 86.2701 109.741 87.0258C110.035 87.4876 110.287 87.9494 110.497 88.3692C109.49 87.5716 108.062 87.1098 106.467 87.1098C102.898 87.1098 103.192 88.9989 100.463 88.9989C97.7347 88.9989 98.0286 87.1518 94.4601 87.1518ZM152.017 115.783C151.807 115.069 151.513 113.726 151.555 112.299C150.967 113.138 150.296 114.314 149.75 115.951C148.868 118.638 148.28 122.584 148.952 128.168C148.952 128.168 140.556 128.965 137.239 123.256C137.113 123.088 137.029 122.878 136.945 122.668C137.449 120.065 138.289 117.798 139.17 115.951C140.682 112.886 142.403 110.955 143.117 110.41C146.391 107.891 148.658 102.349 148.658 95.9679C148.658 92.3994 147.945 89.0829 146.769 86.4381C148.616 83.9192 151.387 79.5111 152.101 72.878C152.101 72.8361 152.101 72.8361 152.101 72.7941C149.708 63.3062 143.788 58.6463 143.788 58.6463C143.788 58.6463 146.433 67.2945 146.559 72.878C146.559 73.1299 146.559 73.3818 146.559 73.5917L141.353 84.9267C141.353 84.9267 143.83 88.9989 143.83 93.9947C143.83 97.7731 142.571 101.048 140.598 103.315C140.346 103.609 140.094 103.86 139.842 104.112C140.178 102.979 140.43 101.845 140.598 100.67C140.808 99.2424 140.934 97.7311 140.934 96.2198C140.934 92.4414 140.178 88.873 138.877 85.6404C138.667 85.0947 138.415 84.5489 138.163 84.0031C138.247 83.8772 138.331 83.7932 138.415 83.6673C141.06 80.0989 142.277 76.4884 142.277 76.4884L139.003 74.4733C139.003 74.1795 139.045 73.8436 139.045 73.5497C139.045 73.3398 139.045 73.0879 139.045 72.878C138.877 68.7638 137.323 65.0695 134.93 62.3407L140.43 60.0317L134.972 57.3449C134.972 57.3449 134.972 57.3869 134.93 57.3869L126.66 53.3146C126.114 54.0703 125.526 54.784 124.855 55.4137C124.351 55.8755 123.847 56.2953 123.301 56.7151C120.783 58.6043 117.592 59.6958 114.149 59.6958C112.176 59.6958 110.287 59.318 108.566 58.6463C108.986 60.5774 109.783 62.8025 111.337 65.2794C110.035 65.6152 108.65 65.8671 107.265 66.077C106.929 66.119 106.593 66.161 106.299 66.203C106.257 66.203 106.215 66.203 106.131 66.203C103.234 66.5388 102.101 64.2298 102.101 64.2298L100.505 60.9133L98.9102 64.2298C98.9102 64.2298 97.7767 66.4968 94.88 66.203C94.838 66.203 94.796 66.203 94.712 66.203C94.3762 66.161 94.0403 66.119 93.7465 66.077C92.3191 65.8671 90.9757 65.6152 89.6742 65.2794C91.2276 62.8025 91.9832 60.5774 92.445 58.6463C90.7238 59.318 88.8346 59.6958 86.8615 59.6958C83.419 59.6958 80.2704 58.5623 77.7095 56.7151C77.1637 56.2953 76.66 55.8755 76.1562 55.4137C75.4845 54.784 74.8967 54.0703 74.351 53.3146L66.0806 57.3869C66.0806 57.3869 66.0806 57.3449 66.0386 57.3449L60.581 60.0317L66.0806 62.3407C63.6457 65.0695 62.0924 68.7638 61.9245 72.878C61.9245 73.0879 61.9245 73.3398 61.9245 73.5497C61.9245 73.8436 61.9245 74.1795 61.9664 74.4733L58.6919 76.4884C58.6919 76.4884 59.9513 80.0989 62.5542 83.6673C62.6381 83.7932 62.7221 83.8772 62.8061 84.0031C62.5542 84.5489 62.3023 85.0947 62.0924 85.6404C60.749 88.873 60.0353 92.4414 60.0353 96.2198C60.0353 97.7311 60.1612 99.2005 60.3711 100.67C60.5391 101.845 60.8329 102.979 61.1268 104.112C60.8749 103.86 60.623 103.609 60.3711 103.315C58.356 101.006 57.1386 97.7311 57.1386 93.9947C57.1386 88.9989 59.6155 84.9267 59.6155 84.9267L54.4098 73.5917C54.4098 73.3398 54.4098 73.1299 54.4098 72.878C54.5357 67.2945 57.1805 58.6463 57.1805 58.6463C57.1805 58.6463 51.2192 63.3482 48.8682 72.7941C48.8682 72.8361 48.8682 72.8361 48.8682 72.878C49.6239 79.5111 52.3527 83.8772 54.1998 86.4381C53.0244 89.0829 52.3107 92.3994 52.3107 95.9679C52.3107 102.349 54.5777 107.891 57.8522 110.41C58.5659 110.955 60.2872 112.886 61.7985 115.951C62.7221 117.798 63.5198 120.023 64.0235 122.668C63.9396 122.878 63.8136 123.046 63.7297 123.256C60.4131 129.007 52.0168 128.168 52.0168 128.168C52.6885 122.584 52.1428 118.68 51.2192 115.951C50.6734 114.314 50.0017 113.138 49.414 112.299C49.4559 113.768 49.1201 115.111 48.9522 115.783C39.2964 114.734 31.8237 107.975 31.8237 99.7882C31.8237 90.8041 40.22 77.1601 43.0747 72.7941C43.6625 71.9125 43.9983 71.4087 43.9983 71.4087L38.037 72.0384C38.037 72.0384 39.0025 70.4851 40.6398 68.1761C40.6818 68.1341 40.7238 68.0502 40.7658 68.0082C44.0403 63.3062 49.9177 55.5816 55.7532 50.9217C58.7339 48.5707 61.7145 46.9754 64.3594 46.9754C64.9891 46.9754 65.5769 47.0174 66.1226 47.1014C67.2561 47.2693 68.2637 47.6471 69.1033 48.1509L69.817 46.1778L71.2024 42.3155C73.1755 40.8881 75.5685 39.5867 78.2973 38.4952C81.3199 37.2777 84.7624 36.3121 88.4568 35.6404C88.4988 35.6404 88.5407 35.6404 88.5827 35.6404C89.2544 35.5145 89.9681 35.4305 90.6818 35.3046C90.8497 35.2626 90.9757 35.2626 91.1436 35.2206C91.8993 35.1366 92.6549 35.0107 93.4526 34.9267L100.422 37.5716L107.39 34.9267C108.188 35.0107 108.944 35.0947 109.699 35.2206C109.867 35.2626 109.993 35.2626 110.161 35.3046C110.875 35.3885 111.547 35.5145 112.218 35.6404C112.26 35.6404 112.302 35.6404 112.344 35.6824C116.039 36.3541 119.481 37.3197 122.504 38.5371C125.233 39.6287 127.626 40.8881 129.599 42.3575L130.984 46.2198L131.698 48.1929C132.579 47.6891 133.545 47.3113 134.678 47.1434C135.224 47.0594 135.812 47.0174 136.442 47.0174C139.087 47.0174 142.109 48.6127 145.048 50.9637C150.925 55.6236 156.761 63.3482 160.035 68.0502C160.077 68.0921 160.119 68.1761 160.161 68.2181C161.757 70.5271 162.764 72.0804 162.764 72.0804L156.845 71.4507C156.845 71.4507 157.181 71.9544 157.768 72.8361C160.623 77.2021 169.019 90.8042 169.019 99.8302C169.145 107.975 161.673 114.734 152.017 115.783Z" fill="black"/>
<path d="M95.8875 128.673C95.9295 128.715 96.0135 128.715 96.0975 128.715C96.2234 128.715 96.3493 128.673 96.4753 128.547C97.4828 127.245 98.9522 126.532 100.506 126.532C102.059 126.532 103.528 127.287 104.536 128.547C104.62 128.673 104.746 128.715 104.914 128.715C104.998 128.715 105.04 128.715 105.123 128.673C105.333 128.589 105.417 128.379 105.375 128.169C104.746 125.44 102.814 123.635 100.547 123.635C98.3225 123.635 96.3913 125.482 95.7196 128.169C95.5937 128.379 95.7196 128.589 95.8875 128.673Z" fill="black"/>
<path d="M104.158 159.611C104.2 159.149 104.2 158.897 104.2 158.436C103.108 158.436 102.521 158.436 101.429 158.436C101.429 159.569 101.387 160.745 101.387 161.878C101.429 161.878 101.471 161.878 101.555 161.878C102.857 161.878 104.032 160.954 104.158 159.611Z" fill="black"/>
<path d="M137.701 174.557V175.438H138.877V177.495V180.056H140.01V176.53V175.438H141.144H141.186V175.396V174.557H137.701Z" fill="black"/>
<path d="M144.964 174.557L144.67 175.942L144.166 178.419L143.411 174.851L143.369 174.557H143.201H142.109H141.689V174.934V180.056H142.739V175.648L143.705 180.056H144.586L145.426 176.236L145.552 175.648H145.594V176.278V180.056H146.601V176.404V174.557H144.964Z" fill="black"/>
</svg>
