<svg width="200" height="200" viewBox="0 0 200 200" fill="none" xmlns="http://www.w3.org/2000/svg">
<path fill-rule="evenodd" clip-rule="evenodd" d="M92.8208 65.3308C83.3336 66.8692 77.0943 67.3821 74.1028 66.6983C72.9063 67.2111 68.3763 69.1769 68.3763 69.1769C55.9832 74.5615 55.9832 74.5616 50.1712 91.1428C50.1712 91.1428 48.1199 96.9547 47.6071 98.4932C49.9148 99.5188 56.8379 100.459 61.2823 100.972C70.5131 102.168 70.5131 107.809 71.8806 109.433C75.2994 113.707 76.5815 118.151 81.8806 118.579C94.9575 119.69 116.411 101.741 121.624 97.6385C114.958 91.1427 97.0943 70.7154 92.8208 65.3308ZM95.5558 61.741C97.2652 64.2197 115.299 95.5872 117.778 97.3821C117.864 97.4675 128.547 97.553 128.547 97.553L126.411 99.5188C125.556 100.288 99.3165 124.647 81.4533 123.109C75.043 122.596 72.7353 117.553 68.5473 112.51C67.3507 111.827 64.9575 106.015 60.684 105.416C49.7438 103.963 44.8721 103.109 43.3336 100.715C42.9917 100.203 42.9062 99.6898 42.9062 99.0915C42.9062 98.7496 42.9917 98.4077 43.0772 98.0658L45.9832 89.6898C52.308 71.6556 52.6499 71.1427 66.5815 65.1598L74.0174 61.912L75.2139 62.5957L74.9575 62.4248C76.5815 63.0231 85.7268 61.9974 93.2481 60.7154L94.7011 60.459L95.5558 61.741Z" fill="black"/>
<path fill-rule="evenodd" clip-rule="evenodd" d="M131.111 95.4164C128.804 94.0489 94.7864 66.5275 92.9061 63.707C92.9061 63.707 75.2138 66.784 73.077 65.16C50.7693 75.16 54.701 70.4592 44.2736 99.6045C42.9061 103.536 67.0941 109.092 69.2309 111.741C86.8377 133.365 131.111 95.4164 131.111 95.4164Z" fill="#A7A8A9"/>
<path fill-rule="evenodd" clip-rule="evenodd" d="M93.5899 63.7069C90.1711 64.3052 77.0087 66.4419 74.0173 65.1599C73.5899 65.3308 67.8634 67.8949 67.8634 67.8949C54.7865 73.536 54.7865 73.536 48.8036 90.8009L45.8121 99.177V99.2625C45.8121 99.2625 45.8122 99.3479 45.8976 99.3479C46.8378 100.886 55.1284 101.997 61.1968 102.767C68.5472 103.707 69.7438 109.433 70.7694 110.63C74.4446 115.16 76.2395 119.861 81.8805 120.374C97.0942 121.656 97.778 101.057 100.94 98.4932C96.325 94.3907 96.4959 67.6385 93.5899 63.7069ZM94.3592 62.6813C96.325 65.5872 98.6327 96.6129 100.855 97.8949L102.821 98.3223L102.222 98.8351C101.368 99.5189 98.9745 123.023 81.7096 121.485C75.7267 120.972 73.6754 116.1 69.7438 111.314C68.9745 110.374 66.0686 104.476 60.9404 103.878C51.966 102.681 45.8976 101.741 44.7865 99.8607C44.5301 99.4334 44.5301 99.006 44.6156 98.5787L47.5215 90.2026C53.6754 72.5958 53.8463 72.4248 67.2651 66.6129L74.0173 63.6214L74.2737 63.8778C75.6412 64.9035 86.4104 63.6214 93.5899 62.3394L94.0173 62.2539L94.3592 62.6813Z" fill="#002F87"/>
<path fill-rule="evenodd" clip-rule="evenodd" d="M102.65 65.3308C112.137 66.8692 118.376 67.3821 121.368 66.6983C122.564 67.2111 127.094 69.1769 127.094 69.1769C139.487 74.5615 139.487 74.5616 145.299 91.1428C145.299 91.1428 147.351 96.9547 147.864 98.4932C145.556 99.5188 138.633 100.459 134.188 100.972C124.958 102.168 124.958 107.809 123.59 109.433C120.171 113.707 118.889 118.151 113.59 118.579C100.513 119.69 79.0601 101.741 73.8464 97.6385C80.4276 91.1427 98.2909 70.7154 102.65 65.3308ZM99.8294 61.741C98.1199 64.2197 80.0858 95.5872 77.6071 97.3821C77.5217 97.4675 66.8379 97.553 66.8379 97.553L68.9746 99.5188C69.8293 100.288 96.0687 124.647 113.932 123.109C120.257 122.596 122.65 117.553 126.838 112.51C128.034 111.827 130.428 106.015 134.701 105.416C145.641 103.963 150.513 103.109 152.052 100.715C152.393 100.203 152.479 99.6898 152.479 99.0915C152.479 98.7496 152.393 98.4077 152.308 98.0658L149.402 89.6898C143.077 71.6556 142.735 71.1427 128.804 65.1598L121.368 61.912L120.171 62.5957L120.428 62.4248C118.804 63.0231 109.658 61.9974 102.137 60.7154L100.684 60.459L99.8294 61.741Z" fill="black"/>
<path fill-rule="evenodd" clip-rule="evenodd" d="M64.2734 95.4164C66.5811 94.0489 100.598 66.5275 102.479 63.707C102.479 63.707 120.171 66.784 122.308 65.16C144.615 75.16 140.684 70.4592 151.111 99.6045C152.479 103.536 128.291 109.092 126.154 111.741C108.547 133.365 64.2734 95.4164 64.2734 95.4164Z" fill="#A7A8A9"/>
<path fill-rule="evenodd" clip-rule="evenodd" d="M101.796 63.7069C105.214 64.3052 118.377 66.4419 121.368 65.1599C121.796 65.3308 127.522 67.8949 127.522 67.8949C140.599 73.536 140.599 73.536 146.582 90.8009L149.573 99.177V99.2625C149.573 99.2625 149.573 99.3479 149.488 99.3479C148.548 100.886 140.257 101.997 134.189 102.767C126.838 103.707 125.642 109.433 124.616 110.63C120.941 115.16 119.146 119.861 113.505 120.374C98.2914 121.656 97.6076 101.057 94.4452 98.4932C99.1461 94.3907 98.8897 67.6385 101.796 63.7069ZM101.112 62.6813C99.1461 65.5872 96.8384 96.6129 94.6162 97.8949L92.6504 98.3223L93.2487 98.8351C94.1034 99.5189 96.4965 123.023 113.761 121.485C119.744 120.972 121.796 116.1 125.727 111.314C126.497 110.374 129.403 104.476 134.531 103.878C143.505 102.681 149.573 101.741 150.685 99.8607C150.941 99.4334 150.941 99.006 150.855 98.5787L147.95 90.2026C141.796 72.5958 141.625 72.4248 128.206 66.6129L121.454 63.6214L121.197 63.8778C119.915 64.9035 109.061 63.6214 101.881 62.3394L101.454 62.2539L101.112 62.6813Z" fill="#002F87"/>
<path fill-rule="evenodd" clip-rule="evenodd" d="M111.795 104.39C111.966 103.962 112.222 103.62 112.393 103.193L114.786 98.7486L116.068 98.8341C128.034 99.2614 139.915 100.116 151.795 101.398C166.838 103.022 181.88 105.33 196.752 108.236L198.889 108.663L196.41 116.526C195.812 118.578 195.128 120.543 194.53 122.595C194.53 125.757 194.53 128.92 194.53 132.082C194.53 135.244 194.53 138.492 194.53 141.655C195.214 144.048 195.812 146.441 196.496 148.834L200 161.655L196.667 160.8C179.145 156.441 161.368 153.193 143.419 151.142C125.812 149.176 108.12 148.407 90.4274 148.834C60.9402 149.603 31.7949 153.791 3.24787 160.543L0 161.313L3.33333 148.663C3.93162 146.27 4.61538 143.877 5.29914 141.398C5.29914 138.236 5.29914 134.988 5.29914 131.826C5.29914 128.663 5.29914 125.501 5.29914 122.338C4.70085 120.287 4.01709 118.236 3.4188 116.184L1.11111 108.321L9.74359 106.612C15.5556 105.501 21.3675 104.475 27.1795 103.535H27.265C28.6325 103.364 30 103.193 31.3675 103.108C33.2479 103.022 35.1282 103.279 36.9231 103.962L37.265 101.996L38.8034 101.826C50 100.629 61.2821 99.7742 72.5641 99.2614C84.2735 98.6631 95.9829 98.4922 107.692 98.4922H108.974L111.197 102.766C111.197 103.449 111.538 103.877 111.795 104.39Z" fill="#A7A8A9"/>
<path fill-rule="evenodd" clip-rule="evenodd" d="M164.36 145.332C164.36 147.298 164.36 149.263 164.36 151.229C164.36 153.195 164.36 155.246 164.36 157.212C164.787 158.665 165.214 160.204 165.642 161.657L168.462 171.229L165.129 170.46C120.941 160.033 78.8895 160.204 34.616 170.289L31.3682 171.058L34.0177 161.657C34.4451 160.204 34.8724 158.665 35.2998 157.212C35.2998 155.246 35.2998 153.195 35.2998 151.229C35.2998 149.263 35.2998 147.298 35.2998 145.332C34.8724 144.05 34.4451 142.853 34.1032 141.571L32.2229 135.674L39.0605 134.392C42.9921 133.708 46.9237 133.024 50.8553 132.426H50.9408C51.881 132.255 52.8212 132.255 53.7613 132.169C54.787 132.084 55.7271 132.255 56.7528 132.426L56.9237 131.571L58.4622 131.4C66.7528 130.546 75.1289 130.204 83.5049 130.033C92.9066 129.862 102.394 129.947 111.796 130.289C121.368 130.631 130.941 131.229 140.428 132.084C148.804 132.853 157.266 133.879 165.556 135.417L167.693 135.845L165.727 141.742C165.214 142.853 164.787 144.135 164.36 145.332Z" fill="#A3AEAD"/>
<path fill-rule="evenodd" clip-rule="evenodd" d="M165.043 137.042L163.676 141.144C163.248 142.426 162.821 143.794 162.394 145.076C162.394 147.127 162.394 149.178 162.394 151.23C162.394 153.281 162.394 155.332 162.394 157.469C162.821 159.007 163.334 160.546 163.761 162.084L165.727 168.751C120.599 158.067 78.291 158.58 34.1885 168.58L35.9833 161.999C36.4107 160.46 36.838 158.836 37.3509 157.298C37.3509 155.247 37.3509 153.195 37.3509 151.144C37.3509 149.093 37.3509 147.042 37.3509 144.99C36.9235 143.623 36.4962 142.341 36.0688 140.973L34.7868 136.871L39.4876 136.016C43.3338 135.332 47.2654 134.648 51.197 134.05H51.2825C52.1372 133.965 53.0774 133.879 53.9321 133.794C55.556 133.708 57.009 134.05 58.3765 134.819L58.7184 133.025C88.2056 130.204 136.154 131.742 165.043 137.042Z" fill="black"/>
<path fill-rule="evenodd" clip-rule="evenodd" d="M107.436 100.543C95.7268 100.458 84.1029 100.714 72.3935 101.313C61.1969 101.825 50.0003 102.766 38.8037 103.877L38.2909 107.039L37.6072 106.697C35.7268 105.586 33.5046 105.073 31.2824 105.159C30.0003 105.244 28.7183 105.33 27.4362 105.501H27.3507C21.5388 106.441 15.7268 107.466 10.0003 108.578L3.50458 109.86L5.29945 115.843C5.89774 117.979 6.58151 120.031 7.26527 122.167V122.253V122.338C7.26527 125.586 7.26527 128.748 7.26527 131.996C7.26527 135.244 7.26527 138.492 7.26527 141.74V141.825V141.911C6.58151 144.39 5.89774 146.868 5.29945 149.261L2.73535 158.834C31.4533 151.996 60.6841 147.808 90.3422 147.039C108.12 146.612 125.983 147.381 143.59 149.347C161.624 151.398 179.487 154.646 197.094 159.005L194.445 149.261C193.761 146.783 193.077 144.39 192.393 141.911V141.825V141.74C192.393 138.492 192.393 135.244 192.393 131.996C192.393 128.748 192.393 125.501 192.393 122.338V122.253V122.167C193.077 120.116 193.676 117.979 194.359 115.928L196.24 109.945C181.453 107.039 166.496 104.731 151.539 103.107C139.744 101.825 127.864 100.971 115.983 100.543L114.188 103.877C113.505 105.073 112.821 106.355 112.223 107.552L111.795 108.407L111.368 107.552C110.684 106.184 110 104.902 109.231 103.535L107.436 100.543Z" fill="black"/>
<path fill-rule="evenodd" clip-rule="evenodd" d="M155.471 107.553L156.069 107.639L157.351 107.81L158.035 107.895C161.71 108.323 165.3 108.836 168.89 109.348L169.83 109.519L170.172 110.374C171.796 114.049 173.42 117.81 174.958 121.485C175.385 122.511 175.813 123.451 176.24 124.477C176.24 123.964 176.24 123.451 176.24 122.938C176.24 119.434 176.155 115.93 176.155 112.511V110.545L178.291 110.887C181.796 111.485 185.214 112.169 188.719 112.853L190.599 113.194L190.086 114.904C189.402 117.212 188.633 119.519 187.95 121.742C187.95 125.16 187.95 128.665 187.95 132.083C187.95 135.502 187.95 139.006 187.95 142.425C188.633 145.075 189.402 147.724 190.086 150.374L190.855 153.109L187.95 152.34C184.36 151.4 180.77 150.545 177.18 149.605L176.326 149.434L175.984 148.665C174.36 144.904 172.821 141.143 171.197 137.297C170.77 136.271 170.343 135.331 169.915 134.306C169.915 134.818 169.915 135.331 169.915 135.844C170.001 139.263 170.001 142.682 170.086 146.1L170.172 148.152L168.035 147.724C164.616 147.041 161.112 146.442 157.608 145.844L156.24 145.588H155.984C147.949 144.477 139.83 143.536 131.71 142.767H131.625L130.343 142.682C126.753 142.425 123.078 142.169 119.488 141.998L117.864 141.912V140.374C117.864 137.297 117.864 134.306 117.864 131.229C117.864 130.459 117.864 129.605 117.864 128.836C117.693 129.177 117.437 129.605 117.266 129.947C115.984 132.34 114.616 134.733 113.334 137.041L111.796 139.861L110.257 137.041C108.89 134.562 107.522 132.083 106.155 129.69C105.898 129.263 105.642 128.836 105.385 128.323C105.385 129.092 105.385 129.947 105.385 130.716C105.385 133.793 105.471 136.784 105.471 139.861V141.485H103.676C100.086 141.485 96.4965 141.485 92.9068 141.485H92.1375H91.4537C83.3341 141.656 75.2144 142.083 67.0948 142.596H66.6674H66.411C62.9067 142.938 59.4879 143.195 55.9837 143.622L54.2743 143.793L54.0179 142.254C53.676 140.032 53.3341 137.81 53.0777 135.588C52.223 135.673 51.2828 135.759 50.4281 135.93C50.0862 138.323 49.7444 140.801 49.4025 143.195L49.2315 144.391L47.9495 144.562C44.4452 145.075 41.0264 145.588 37.5221 146.186L34.7016 146.613L35.0435 145.417C34.4452 145.844 33.7614 146.271 33.0777 146.613C32.3939 146.955 31.7102 147.126 30.9409 147.383C30.3426 147.553 29.6589 147.639 29.0606 147.81C23.2486 149.006 17.5221 150.374 11.7956 151.912L8.88965 152.682L9.57341 150.032C10.2572 147.383 10.9409 144.733 11.7102 142.083C11.7102 138.665 11.7102 135.16 11.7102 131.742C11.7102 128.323 11.7102 124.904 11.7102 121.4C11.0264 119.092 10.2572 116.784 9.57341 114.477L9.06059 112.853L10.8555 112.511C16.582 111.4 22.3085 110.374 28.1204 109.434C29.2315 109.263 30.3426 109.177 31.5392 109.092C33.0777 109.006 34.5307 109.434 35.7273 110.374C36.4965 110.887 37.0093 111.571 37.4367 112.34C37.7785 113.024 38.1204 113.793 38.2059 114.562C38.3768 115.331 38.4623 116.015 38.4623 116.784C38.4623 117.468 38.5478 118.152 38.5478 118.921C38.5478 121.656 38.5478 124.391 38.5478 127.041C38.5478 128.836 38.5478 130.63 38.5478 132.425C39.0606 129.177 39.6589 125.93 40.1717 122.682C40.9409 117.981 41.7102 113.365 42.4794 108.665L42.6503 107.468L44.0179 107.297C48.9751 106.784 53.8469 106.357 58.8042 105.93L60.4281 105.759L60.6845 107.212C61.4537 111.656 62.223 116.1 63.0777 120.545C63.8469 124.904 64.6161 129.348 65.4708 133.707C65.7273 134.562 66.0691 135.502 66.3255 136.357C66.582 135.417 66.9238 134.391 67.1802 133.451C67.1802 130.203 67.1802 127.041 67.1802 123.793C67.1802 120.545 67.1802 117.383 67.1802 114.135C66.4965 111.912 65.7273 109.69 65.0435 107.383L64.4452 105.417L66.6674 105.331C74.5307 104.904 82.4794 104.648 90.3426 104.477H91.4537H92.3939H92.6504C96.2401 104.477 99.8298 104.477 103.505 104.477H104.616L105.129 105.417C106.496 107.981 107.864 110.545 109.146 113.109C110.001 114.733 110.77 116.271 111.625 117.895C112.479 116.357 113.249 114.818 114.103 113.28C115.471 110.801 116.838 108.237 118.12 105.759L118.633 104.818H119.744C122.907 104.904 126.155 105.075 129.317 105.246L131.796 105.417C131.881 105.417 131.881 105.417 131.967 105.417H132.565C140.257 106.186 147.864 106.784 155.471 107.553ZM157.437 114.135C157.437 114.391 157.437 114.647 157.437 114.904C157.437 116.784 157.437 118.665 157.437 120.545V123.707L154.702 121.912C152.223 120.289 149.83 118.75 147.351 117.212C146.497 117.126 145.642 117.041 144.873 116.955C144.873 118.066 144.873 119.092 144.873 120.203C146.667 120.374 148.462 120.545 150.257 120.801L151.796 120.972V122.425C151.796 124.562 151.796 126.613 151.796 128.75V130.545L149.83 130.289C148.206 130.118 146.496 129.947 144.873 129.776C144.873 131.058 144.873 132.425 144.873 133.707C145.813 133.793 146.753 133.964 147.779 134.049C150.343 132.938 152.992 131.912 155.556 130.887L158.035 129.861V132.34C158.035 134.306 158.035 136.271 158.035 138.152C158.035 138.237 158.035 138.237 158.035 138.323C158.206 137.895 158.291 137.553 158.462 137.126C158.462 133.793 158.462 130.545 158.462 127.212C158.462 123.878 158.462 120.545 158.462 117.297C158.035 116.186 157.693 115.16 157.437 114.135ZM131.026 110.716C130.685 111.912 130.257 113.109 129.915 114.22C129.915 117.468 129.915 120.63 129.915 123.878C129.915 127.126 129.915 130.289 129.915 133.536C130.343 134.818 130.685 136.1 131.112 137.468C131.454 136.271 131.881 135.16 132.223 133.964C132.223 130.716 132.223 127.468 132.223 124.306C132.223 121.058 132.223 117.81 132.223 114.647C131.796 113.365 131.454 112.083 131.026 110.716ZM92.4794 111.058C92.4794 111.314 92.4794 111.571 92.4794 111.912C92.4794 113.793 92.4794 115.588 92.4794 117.468V120.203L89.9153 118.921C87.5221 117.724 85.0435 116.528 82.6503 115.331C81.7102 115.331 80.8555 115.417 79.9153 115.417C79.9153 116.442 79.9153 117.553 79.9153 118.579C81.6247 118.494 83.3341 118.494 85.0435 118.408L86.8384 118.323V120.032C86.8384 122.083 86.8384 124.135 86.8384 126.271V127.81L85.129 127.895C83.4196 127.981 81.6247 127.981 79.9153 128.066C79.9153 129.348 79.9153 130.63 79.9153 131.912C80.77 131.912 81.7102 131.827 82.5649 131.827C85.2144 130.374 87.7786 128.921 90.4281 127.468L93.0777 126.015V128.836C93.0777 130.459 93.0777 132.083 93.0777 133.793C93.1632 133.536 93.2486 133.195 93.3341 132.938C93.3341 129.776 93.3341 126.528 93.3341 123.365C93.3341 120.203 93.3341 116.955 93.3341 113.793C92.9922 112.682 92.7358 111.912 92.4794 111.058ZM24.4452 120.887C24.4452 123.878 24.4452 126.955 24.4452 129.947C24.4452 132.767 24.4452 135.502 24.4452 138.323C24.958 138.237 25.4709 138.152 25.8982 137.981C25.8982 134.989 25.8982 131.998 25.8982 129.006C25.8982 126.186 25.8982 123.451 25.8982 120.63C25.3854 120.716 24.958 120.801 24.4452 120.887ZM51.5392 126.784C51.6247 126.784 51.7102 126.784 51.7956 126.784C51.7956 126.528 51.7102 126.271 51.7102 126.015C51.6247 126.271 51.5392 126.528 51.5392 126.784Z" fill="white"/>
<path fill-rule="evenodd" clip-rule="evenodd" d="M156.666 108.407L158.034 108.578C161.623 109.006 165.299 109.519 168.888 110.031L169.487 110.117L169.658 110.63C171.282 114.305 172.906 118.066 174.444 121.741C175.384 123.963 176.324 126.1 177.265 128.322C177.265 126.527 177.179 124.732 177.179 122.937C177.179 119.433 177.094 115.929 177.094 112.51V111.399L178.29 111.655C181.794 112.254 185.213 112.937 188.632 113.621L189.658 113.792L189.316 114.732C188.547 117.04 187.863 119.348 187.094 121.741C187.094 125.245 187.094 128.664 187.094 132.168C187.094 135.672 187.094 139.091 187.094 142.596C187.777 145.245 188.547 147.895 189.316 150.63L189.743 152.168L188.034 151.741C184.444 150.801 180.854 149.946 177.265 149.006L176.752 148.92L176.581 148.493C174.957 144.732 173.418 140.972 171.794 137.125C170.854 134.989 169.914 132.766 168.974 130.63C168.974 132.425 169.059 134.134 169.059 135.929C169.145 139.348 169.145 142.766 169.23 146.185V147.382L168.034 147.125C164.529 146.442 161.111 145.843 157.606 145.245L156.495 145.074L155.897 144.989C147.777 143.878 139.658 142.937 131.538 142.168H131.453L130.17 142.083C126.581 141.826 122.906 141.57 119.23 141.399L118.29 141.313V140.459C118.29 137.382 118.29 134.39 118.29 131.313C118.29 129.519 118.29 127.809 118.29 126.014C117.606 127.211 116.923 128.493 116.239 129.69C114.957 132.083 113.589 134.476 112.307 136.784L111.453 138.407L110.598 136.784C109.23 134.305 107.863 131.826 106.495 129.433C105.726 128.151 105.042 126.784 104.273 125.501C104.273 127.296 104.273 129.006 104.273 130.801C104.273 133.878 104.359 136.869 104.359 139.946V140.886H103.333C99.7431 140.886 96.1534 140.886 92.5637 140.886H91.709H91.0252C82.9055 141.057 74.7859 141.484 66.6662 141.997H66.2388H65.9824C62.4782 142.339 59.0594 142.596 55.5551 143.023L54.6149 143.108L54.444 142.254C54.1021 139.86 53.6748 137.382 53.3329 134.989C52.0508 135.16 50.6833 135.331 49.4013 135.416C49.0594 138.066 48.7175 140.63 48.3756 143.279L48.2901 143.963L47.5209 144.049C44.0166 144.561 40.5978 145.074 37.0936 145.672L35.4696 145.929L35.897 144.476C36.6662 141.912 37.5209 139.433 38.3756 136.869C39.1448 132.168 39.9141 127.553 40.6833 122.852C41.4525 118.151 42.2218 113.536 42.991 108.835L43.0765 108.151L43.8457 108.066C48.7175 107.553 53.6747 107.125 58.632 106.698L59.5722 106.613L59.7431 107.467C60.5124 111.912 61.3671 116.356 62.1363 120.801C62.9055 125.245 63.6747 129.604 64.5294 134.048C65.0423 135.672 65.6406 137.296 66.1534 139.006C66.6662 137.296 67.179 135.501 67.7773 133.792C67.7773 130.544 67.7773 127.296 67.7773 124.049C67.7773 120.801 67.7773 117.553 67.7773 114.305C67.0081 111.997 66.3243 109.775 65.6406 107.467L65.2987 106.356L66.5807 106.271C74.5295 105.843 82.5637 105.587 90.5124 105.416H91.2816H91.3671H91.538H92.5637C96.1534 105.416 99.7431 105.416 103.418 105.416H104.017L104.273 105.929C105.641 108.493 107.008 111.057 108.29 113.621C109.316 115.587 110.427 117.638 111.453 119.604C112.478 117.638 113.589 115.672 114.615 113.707C115.982 111.228 117.35 108.664 118.632 106.185L118.888 105.672H119.572C123.076 105.843 126.666 105.929 130.17 106.185L131.623 106.271C139.572 106.784 147.606 107.467 155.555 108.322L156.666 108.407ZM156.666 108.92V109.262C156.666 111.143 156.666 113.023 156.666 114.903C156.666 116.784 156.666 118.664 156.666 120.544V122.339L155.128 121.313C152.649 119.69 150.17 118.066 147.606 116.442C146.41 116.356 145.213 116.185 144.102 116.1C144.102 117.638 144.102 119.177 144.102 120.715C146.153 120.886 148.119 121.143 150.17 121.313L151.025 121.399V122.254C151.025 124.39 151.025 126.442 151.025 128.578V129.604L149.914 129.519C147.948 129.262 146.068 129.091 144.102 128.92C144.102 130.715 144.102 132.425 144.102 134.219C145.384 134.39 146.581 134.476 147.863 134.647C150.512 133.536 153.162 132.425 155.897 131.399L157.264 130.801V132.254C157.264 134.219 157.264 136.185 157.264 138.066C157.264 139.69 157.264 141.399 157.264 143.023C157.863 141.057 158.547 139.091 159.145 137.125C159.145 133.792 159.145 130.459 159.145 127.125C159.145 123.792 159.145 120.459 159.145 117.125C158.376 114.647 157.692 112.168 157.008 109.69L156.666 108.92ZM131.025 108.237C130.427 110.202 129.743 112.168 129.145 114.219C129.145 117.467 129.145 120.715 129.145 123.963C129.145 127.211 129.145 130.459 129.145 133.707C129.743 135.843 130.427 137.895 131.111 140.031C131.709 138.066 132.393 136.1 132.991 134.134C132.991 130.886 132.991 127.638 132.991 124.305C132.991 121.057 132.991 117.809 132.991 114.476C132.307 112.425 131.709 110.373 131.025 108.237ZM91.709 106.271C91.709 108.237 91.709 110.031 91.709 111.912C91.709 113.792 91.709 115.587 91.709 117.467V119.006L90.2559 118.237C87.7773 116.954 85.2987 115.758 82.8201 114.476C81.6235 114.561 80.3414 114.561 79.1448 114.647C79.1448 116.185 79.1448 117.724 79.1448 119.177C81.1106 119.091 83.0765 119.006 85.0423 119.006H86.0679V119.946C86.0679 121.997 86.0679 124.049 86.0679 126.185V127.04H85.1277C83.1619 127.125 81.1961 127.211 79.1448 127.211C79.1448 128.92 79.1448 130.715 79.1448 132.425C80.3414 132.339 81.538 132.339 82.7346 132.254C85.3842 130.801 88.1192 129.262 90.7688 127.809L92.3072 126.954V128.578C92.3072 130.459 92.3072 132.339 92.3072 134.219C92.3072 135.587 92.3072 136.869 92.3072 138.237C92.9055 136.356 93.5038 134.561 94.1021 132.681C94.1021 129.433 94.1021 126.185 94.1021 123.023C94.1021 119.775 94.1021 116.527 94.1021 113.365C93.3329 111.057 92.6491 108.749 91.8799 106.527L91.709 106.271ZM50.6833 127.638C51.3671 127.553 51.9653 127.467 52.6491 127.467C52.3072 125.416 52.0508 123.365 51.7089 121.313C51.7089 121.143 51.7089 121.057 51.6235 120.886C51.6235 121.057 51.538 121.313 51.538 121.484C51.2816 123.536 50.9397 125.587 50.6833 127.638ZM12.4782 142.339C12.4782 138.835 12.4782 135.416 12.4782 131.912C12.4782 128.407 12.4782 124.989 12.4782 121.484C11.7944 119.177 11.0252 116.869 10.3414 114.476L10.085 113.536L11.1107 113.365C16.8371 112.254 22.5636 111.228 28.2901 110.288C29.4012 110.117 30.5124 110.031 31.6235 109.946C32.991 109.86 34.273 110.288 35.2987 111.057C35.9825 111.57 36.4098 112.168 36.8371 112.852C37.179 113.536 37.4354 114.219 37.6064 114.903C37.7773 115.587 37.7773 116.356 37.8628 117.04C37.8628 117.724 37.9483 118.407 37.9483 119.091C37.9483 121.826 37.9483 124.561 37.9483 127.211C37.9483 129.946 37.9483 132.681 37.9483 135.331C37.9483 136.613 37.8628 137.895 37.6918 139.177C37.5209 140.63 37.0936 141.997 36.2389 143.279C35.8115 143.963 35.2987 144.561 34.6149 145.074C34.0166 145.502 33.4183 145.843 32.7346 146.185C32.1363 146.442 31.4525 146.698 30.7688 146.869C30.1705 147.04 29.4867 147.125 28.8884 147.296C23.0765 148.493 17.2645 149.86 11.538 151.399L9.91406 151.826L10.3414 150.288C11.0252 147.724 11.7089 144.989 12.4782 142.339ZM23.6748 120.373C23.6748 123.621 23.6748 126.784 23.6748 130.031C23.6748 133.108 23.6748 136.185 23.6748 139.262C24.7004 139.091 25.6406 138.835 26.6662 138.664C26.6662 135.502 26.6662 132.254 26.6662 129.091C26.6662 126.014 26.6662 122.937 26.6662 119.86C25.6406 120.031 24.7004 120.202 23.6748 120.373Z" fill="white"/>
<path d="M28.4617 111.228C29.4874 111.057 30.513 110.972 31.6241 110.972C32.7352 110.887 33.7609 111.228 34.6156 111.827C35.1284 112.254 35.5557 112.681 35.8121 113.28C36.154 113.878 36.325 114.476 36.4959 115.075C36.6668 115.758 36.6668 116.442 36.7523 117.126C36.7523 117.81 36.8378 118.493 36.8378 119.177C36.8378 121.912 36.8378 124.647 36.8378 127.297C36.8378 130.032 36.8378 132.767 36.8378 135.416C36.8378 136.613 36.7523 137.895 36.6668 139.177C36.4959 140.545 36.0686 141.741 35.3848 142.852C34.9574 143.451 34.5301 144.049 34.0173 144.391C33.5045 144.818 32.9062 145.075 32.3079 145.331C31.7096 145.587 31.1113 145.844 30.513 145.929C29.9147 146.1 29.3164 146.186 28.6327 146.357C22.8207 147.553 17.0087 148.921 11.2822 150.459C11.966 147.724 12.7352 145.075 13.419 142.34C13.419 138.835 13.419 135.331 13.419 131.827C13.419 128.322 13.419 124.818 13.419 121.314C12.6497 118.921 11.966 116.613 11.2822 114.22C17.0087 113.194 22.7352 112.169 28.4617 111.228ZM22.6498 119.604C22.6498 123.109 22.6498 126.528 22.6498 130.032C22.6498 133.451 22.6498 136.955 22.6498 140.374C24.2737 140.032 25.9831 139.69 27.607 139.348C27.607 135.929 27.607 132.51 27.607 129.006C27.607 125.587 27.607 122.169 27.607 118.664C25.9831 119.006 24.3592 119.263 22.6498 119.604Z" fill="#002F87"/>
<path d="M59.06 107.725C59.8293 112.169 60.5985 116.614 61.4532 121.058C62.2224 125.502 63.0771 129.947 63.8464 134.391C64.6156 136.699 65.3848 139.007 66.1541 141.314C62.6498 141.656 59.231 141.913 55.7267 142.34C55.2993 139.605 54.872 136.87 54.5301 134.135C52.6498 134.391 50.684 134.562 48.8036 134.819C48.3763 137.639 48.0344 140.545 47.607 143.366C44.1028 143.878 40.5985 144.391 37.1797 144.99C38.0344 142.425 38.8036 139.861 39.6583 137.297C40.4275 132.596 41.1968 127.896 41.966 123.195C42.7352 118.494 43.5045 113.878 44.2737 109.178C49.231 108.579 54.1028 108.152 59.06 107.725ZM49.4874 128.665C50.9404 128.494 52.3079 128.323 53.7609 128.237C53.419 125.844 52.9917 123.537 52.7352 121.143C52.3934 118.75 52.0515 116.443 51.7096 114.049C51.3677 116.528 50.9404 118.921 50.5985 121.4C50.1711 123.793 49.8293 126.272 49.4874 128.665Z" fill="#002F87"/>
<path d="M90.6836 106.357C90.6836 108.238 90.6836 110.033 90.6836 111.913C90.6836 113.793 90.6836 115.588 90.6836 117.469C88.1195 116.186 85.5554 114.904 82.9913 113.622C81.3673 113.708 79.7434 113.708 78.1195 113.793C78.1195 115.93 78.1195 118.067 78.1195 120.204C80.4272 120.118 82.7349 120.033 85.0425 119.947C85.0425 121.998 85.0425 124.135 85.0425 126.186C82.7349 126.272 80.4272 126.357 78.1195 126.443C78.1195 128.836 78.1195 131.144 78.1195 133.537C79.7434 133.451 81.3673 133.366 82.9913 133.366C85.7263 131.828 88.4614 130.289 91.1964 128.836C91.1964 130.716 91.1964 132.597 91.1964 134.477C91.1964 136.357 91.1964 138.238 91.1964 140.118C83.0767 140.289 74.9571 140.716 66.752 141.229C67.5212 138.836 68.2049 136.443 68.9742 133.964C68.9742 130.631 68.9742 127.383 68.9742 124.05C68.9742 120.716 68.9742 117.469 68.9742 114.135C68.2049 111.828 67.5212 109.52 66.752 107.212C74.7861 106.785 82.7349 106.528 90.6836 106.357Z" fill="#002F87"/>
<path d="M111.709 121.74C113.077 119.261 114.444 116.697 115.726 114.218C117.094 111.74 118.461 109.176 119.743 106.697C123.248 106.868 126.837 106.953 130.342 107.21C129.572 109.517 128.889 111.825 128.119 114.133C128.119 117.466 128.119 120.714 128.119 124.047C128.119 127.381 128.119 130.629 128.119 133.962C128.889 136.355 129.572 138.748 130.342 141.141C126.666 140.885 123.077 140.629 119.402 140.458C119.402 137.381 119.402 134.389 119.402 131.312C119.402 128.235 119.402 125.244 119.487 122.167C118.119 124.56 116.837 126.868 115.555 129.261C114.273 131.654 112.906 134.047 111.624 136.355C110.256 133.876 108.889 131.398 107.521 129.005C106.154 126.526 104.786 124.133 103.419 121.654C103.419 124.731 103.504 127.808 103.504 130.799C103.504 133.876 103.59 136.868 103.59 139.945C99.9998 139.945 96.4101 139.945 92.8203 139.945C93.5895 137.552 94.2733 135.244 95.0425 132.936C95.0425 129.688 95.0425 126.355 95.0425 123.107C95.0425 119.859 95.0425 116.526 95.0425 113.278C94.2733 110.97 93.5041 108.577 92.8203 106.27C96.4101 106.27 99.9998 106.27 103.59 106.27C104.957 108.834 106.325 111.398 107.607 113.962C108.974 116.526 110.342 119.09 111.709 121.74Z" fill="#002F87"/>
<path d="M155.641 109.263C155.641 111.143 155.641 113.023 155.641 114.904C155.641 116.784 155.641 118.664 155.641 120.545C153.077 118.835 150.512 117.211 147.948 115.588C146.324 115.417 144.7 115.246 143.077 115.16C143.077 117.297 143.077 119.519 143.077 121.656C145.384 121.912 147.692 122.083 150 122.34C150 124.476 150 126.528 150 128.664C147.692 128.408 145.384 128.152 143.077 127.895C143.077 130.288 143.077 132.682 143.077 135.075C144.7 135.246 146.324 135.417 147.948 135.588C150.683 134.476 153.418 133.28 156.153 132.169C156.153 134.135 156.153 136.1 156.153 137.981C156.153 139.947 156.153 141.912 156.153 143.793C148.034 142.682 139.914 141.741 131.709 140.972C132.478 138.664 133.162 136.357 133.931 134.049C133.931 130.716 133.931 127.468 133.931 124.135C133.931 120.801 133.931 117.553 133.931 114.22C133.162 111.827 132.478 109.434 131.709 106.955C139.743 107.724 147.692 108.408 155.641 109.263Z" fill="#002F87"/>
<path d="M186.153 121.484C186.153 124.989 186.153 128.493 186.153 132.083C186.153 135.587 186.153 139.091 186.153 142.596C186.923 145.331 187.606 147.98 188.376 150.715C184.786 149.775 181.196 148.835 177.606 147.98C175.982 144.219 174.444 140.373 172.82 136.613C171.196 132.852 169.658 129.177 168.034 125.501C168.119 128.92 168.119 132.339 168.205 135.758C168.29 139.177 168.29 142.596 168.376 146.014C164.871 145.331 161.367 144.732 157.948 144.134C158.717 141.826 159.401 139.519 160.17 137.211C160.17 133.792 160.17 130.459 160.17 127.04C160.17 123.621 160.17 120.288 160.17 116.869C159.401 114.39 158.717 111.826 157.948 109.348C161.538 109.775 165.128 110.288 168.803 110.801C170.427 114.476 171.965 118.151 173.589 121.912C175.213 125.672 176.752 129.433 178.376 133.279C178.29 129.775 178.29 126.271 178.205 122.766C178.205 119.262 178.119 115.758 178.119 112.339C181.538 112.937 185.042 113.621 188.461 114.305C187.606 116.784 186.923 119.177 186.153 121.484Z" fill="#002F87"/>
<path fill-rule="evenodd" clip-rule="evenodd" d="M91.0262 101.057L88.5476 100.716L88.6331 98.6642C88.7185 97.6386 88.3767 96.3566 88.1203 95.3309C87.8638 94.2198 87.4365 93.1942 87.0092 92.1685C86.4963 91.9976 85.898 91.8266 85.898 91.8266C78.804 89.7754 71.0262 83.3651 67.9493 75.4164C64.9579 67.5531 65.1288 60.6301 67.2656 50.7155C66.8382 49.9463 65.7271 48.066 65.7271 48.066C61.4536 40.9719 58.804 36.5275 57.9493 33.8779C57.522 32.6813 57.4365 31.4848 57.522 30.2882C58.6331 30.2027 59.7442 30.1172 60.8553 30.1172C66.8382 30.0318 79.5732 31.4848 87.6929 36.6984C91.1117 35.5018 102.052 32.254 111.625 36.6984C116.496 33.1087 130.086 27.5531 137.266 29.348L138.889 29.7754C139.06 30.6301 138.975 31.6557 138.889 32.5104C138.548 34.4762 137.266 37.1258 134.872 41.0574C134.701 45.5019 133.419 49.5189 132.907 50.8865C133.505 53.8779 133.761 57.0403 133.761 60.2027C133.761 64.5617 133.334 68.7497 132.65 71.9976C131.966 75.4164 130.77 78.2369 128.548 80.9719C125.214 85.0745 119.317 89.9463 114.36 92.5104C114.274 92.5104 113.932 92.6814 113.59 92.8523C113.248 93.707 112.992 94.5617 112.736 95.4164C112.479 96.442 112.137 97.7241 112.223 98.7497L112.308 100.801L109.83 101.143C108.206 103.536 105.385 105.502 102.394 105.929C101.197 106.1 99.9151 106.1 98.7185 105.929C95.4707 105.502 92.6502 103.536 91.0262 101.057Z" fill="black"/>
<path fill-rule="evenodd" clip-rule="evenodd" d="M130.513 50.5443C130.769 50.0315 132.564 45.3307 132.564 40.2879C134.701 36.9546 136.667 33.3649 136.667 31.3136C129.658 29.6042 114.957 36.0999 112.222 38.9204C103.162 33.8777 91.0257 37.5529 87.5214 39.0059C79.7437 33.3649 65.4701 31.8264 59.8291 32.1683C59.9146 34.9888 69.6582 49.8606 69.5727 50.2025C66.4103 60.2879 67.8633 69.8606 70.5983 76.0999C80.6838 92.3392 87.0086 88.4076 88.3761 90.4589L112.051 91.0572C118.633 88.0657 127.18 80.2025 128.803 76.2708C130.769 73.023 132.564 60.2025 130.513 50.5443Z" fill="white"/>
<path fill-rule="evenodd" clip-rule="evenodd" d="M75.3846 51.9131C75.3846 51.9131 68.6325 56.0157 68.2906 56.6995C67.6923 59.2636 66.6667 66.7849 70.4274 75.5883C73.2479 81.2294 80.9402 89.4345 88.0342 89.6909C87.9487 89.4345 84.8718 83.3661 85.9829 82.3405C85.1282 80.802 84.359 80.5456 83.2479 78.9217C81.7949 74.6482 79.5726 71.1439 82.5641 68.5798C89.0598 64.4772 91.5385 63.1952 91.5385 63.1952C91.5385 63.1952 90.6838 60.5456 89.8291 60.5456C89.0598 60.5456 86.6667 63.3661 80.4274 57.1268C83.5897 55.5883 88.3761 57.5542 88.3761 57.5542C88.3761 57.5542 78.9744 49.6909 79.9145 50.2037C80.0855 50.2037 74.359 52.3405 75.3846 51.9131Z" fill="#A7A8A9"/>
<path fill-rule="evenodd" clip-rule="evenodd" d="M99.9147 81.1431C97.1797 81.9123 92.7352 88.8354 83.248 79.3482C84.5301 80.6303 84.1027 80.2884 85.7267 81.6559C88.8036 85.0747 89.4874 82.938 95.2139 97.0405C98.7181 101.827 105.983 99.0918 107.436 97.2115C108.034 96.0149 108.376 85.8439 115.128 80.3738C116.154 79.3482 115.983 79.4337 116.325 79.0918C113.59 81.9123 110.769 87.6388 99.9147 81.1431Z" fill="black"/>
<path fill-rule="evenodd" clip-rule="evenodd" d="M99.6584 79.9468C98.5473 79.5194 93.3336 74.6476 92.7354 70.2032C94.9576 68.4083 103.59 67.81 106.24 70.0322C105.043 75.7587 101.111 79.263 99.6584 79.9468Z" fill="#002F87"/>
<path fill-rule="evenodd" clip-rule="evenodd" d="M130.598 51.1423C132.735 46.4415 132.735 41.1423 132.82 40.2876C134.871 37.3816 136.324 34.5611 136.752 32.168C128.718 34.0483 121.88 38.2363 117.606 41.5697C119.316 42.2534 127.094 45.5013 130.598 51.1423Z" fill="black"/>
<path fill-rule="evenodd" clip-rule="evenodd" d="M107.35 61.9966L116.923 70.1162C116.923 70.1162 120.427 76.0991 114.273 81.3983C117.179 81.8256 117.094 83.6205 114.444 86.441C111.367 91.1419 113.333 90.6291 113.333 90.6291C113.333 90.6291 129.829 80.2017 130.085 72.3385C131.538 63.9624 132.393 62.3385 130.94 55.9282C127.008 50.4581 119.145 48.9197 118.291 48.7487C117.436 48.5778 104.872 56.7829 106.752 61.6547L107.35 61.9966Z" fill="#A7A8A9"/>
<path fill-rule="evenodd" clip-rule="evenodd" d="M69.9149 50.3735C68.4619 47.8094 61.9662 38.0658 60.5986 32.5957C69.4875 33.7923 76.3251 39.1769 79.9149 41.9119C73.2482 45.0743 69.573 51.5701 69.9149 50.3735Z" fill="black"/>
<path fill-rule="evenodd" clip-rule="evenodd" d="M93.8457 72.8533C94.1021 72.5114 98.0337 71.3148 98.0337 72.5969C98.0337 73.9644 97.179 77.4687 97.0936 77.4687C97.0081 77.4687 94.6149 74.8191 93.8457 72.8533Z" fill="black"/>
<path fill-rule="evenodd" clip-rule="evenodd" d="M105.127 72.8522C104.871 72.5103 100.939 71.3137 100.939 72.6812C100.939 73.9633 102.136 77.553 102.222 77.553C103.333 76.1 104.615 74.3906 105.127 72.8522Z" fill="black"/>
<path fill-rule="evenodd" clip-rule="evenodd" d="M79.1454 42.2532C80.6839 41.3985 85.2993 39.86 87.436 39.0908C86.7523 37.2104 70.0856 31.3985 63.4189 32.2532C56.7522 33.1079 69.4018 32.3386 79.1454 42.2532Z" fill="#A7A8A9"/>
<path fill-rule="evenodd" clip-rule="evenodd" d="M112.222 39.0066C114.529 40.2886 115.384 40.6305 118.29 41.9126C127.093 35.075 131.281 34.2203 136.324 31.7416C135.042 30.5451 123.247 30.3741 112.222 39.0066Z" fill="#A3AEAD"/>
<path fill-rule="evenodd" clip-rule="evenodd" d="M117.692 48.1499C113.932 49.6029 105.47 55.7567 106.752 61.8251C107.008 62.4234 108.205 61.8251 110.171 60.714C115.812 60.885 117.778 58.0644 118.632 55.9277C117.094 54.4747 114.102 54.7311 112.051 55.4149C113.504 53.4491 115.555 51.3123 117.949 49.6029C119.06 49.6884 122.222 50.2012 122.051 49.9448C122.051 49.6029 118.034 48.0644 117.692 48.1499Z" fill="black"/>
<path fill-rule="evenodd" clip-rule="evenodd" d="M80.0851 49.7754C79.8287 49.7754 76.4953 51.2284 75.6406 51.8267C77.1791 51.8267 79.4868 51.1429 79.7432 51.2284C80.427 51.0574 83.5893 53.878 86.8372 56.9549C83.5039 54.8181 79.8287 56.613 79.6577 56.7839C79.1449 57.3822 82.7347 63.4506 89.5723 61.5703C90.9398 61.5703 91.3671 63.707 91.9654 62.5104C94.4441 57.6386 82.0509 50.0318 80.0851 49.7754Z" fill="black"/>
<path fill-rule="evenodd" clip-rule="evenodd" d="M116.753 55.6732C116.753 55.6732 115.471 55.1604 114.445 55.6732C114.445 55.6732 114.531 59.6903 110.172 57.8954C110.172 57.8954 109.488 58.2373 108.89 58.9211C111.881 60.9724 116.667 59.4339 116.753 55.6732Z" fill="#002F87"/>
<path fill-rule="evenodd" clip-rule="evenodd" d="M112.223 56.7852C111.966 56.7852 111.71 57.0416 111.71 57.298C111.71 57.5544 111.966 57.8108 112.223 57.8108C112.479 57.8108 112.736 57.5544 112.736 57.298C112.736 57.0416 112.479 56.7852 112.223 56.7852Z" fill="white"/>
<path fill-rule="evenodd" clip-rule="evenodd" d="M112.564 58.0664C112.308 58.0664 112.137 58.2373 112.137 58.4938C112.137 58.7502 112.308 58.9211 112.564 58.9211C112.82 58.9211 112.991 58.7502 112.991 58.4938C112.991 58.2373 112.735 58.0664 112.564 58.0664Z" fill="white"/>
<path fill-rule="evenodd" clip-rule="evenodd" d="M81.5391 56.6986C81.5391 56.6986 82.8211 56.1858 83.8467 56.6986C83.8467 56.6986 83.7613 60.7157 88.1202 58.9208C88.1202 58.9208 88.804 59.2627 89.4023 59.9465C86.4108 61.9978 81.6245 60.4593 81.5391 56.6986Z" fill="#002F87"/>
<path fill-rule="evenodd" clip-rule="evenodd" d="M86.0685 57.8086C86.3249 57.8086 86.5813 58.065 86.5813 58.3214C86.5813 58.5778 86.3249 58.8342 86.0685 58.8342C85.8121 58.8342 85.5557 58.5778 85.5557 58.3214C85.5557 58.065 85.8121 57.8086 86.0685 57.8086Z" fill="white"/>
<path fill-rule="evenodd" clip-rule="evenodd" d="M85.7262 59.0918C85.9826 59.0918 86.1535 59.2627 86.1535 59.5191C86.1535 59.7756 85.9826 59.9465 85.7262 59.9465C85.4698 59.9465 85.2988 59.7756 85.2988 59.5191C85.2988 59.2627 85.5552 59.0918 85.7262 59.0918Z" fill="white"/>
<path fill-rule="evenodd" clip-rule="evenodd" d="M94.5293 66.2704C94.5293 66.2704 99.1447 62.5952 105.042 66.1849C104.957 66.1849 99.3156 64.9029 94.5293 66.2704Z" fill="#002F87"/>
<path fill-rule="evenodd" clip-rule="evenodd" d="M95.0423 90.3732C95.0423 90.3732 91.8799 87.8091 91.709 83.3647C91.709 83.3647 94.9569 79.7749 99.9141 79.6895C102.564 79.6895 105.897 81.9971 108.888 83.3647C108.888 83.3647 110.171 86.6125 105.897 90.2878C105.897 90.2878 106.41 86.0142 105.982 84.9031C105.982 84.9031 100.256 83.6211 94.7859 84.8177C94.7859 84.9031 94.1021 87.4672 95.0423 90.3732Z" fill="white"/>
<path fill-rule="evenodd" clip-rule="evenodd" d="M97.2643 92.8516C97.2643 92.8516 96.666 94.39 96.9224 96.6122H103.504C103.504 96.6122 103.931 94.561 103.333 92.937C103.333 92.937 105.555 94.1336 105.811 97.8943C105.811 97.8943 99.9993 101.57 94.9566 97.8943C94.9566 97.9798 94.7857 94.9028 97.2643 92.8516Z" fill="white"/>
<path fill-rule="evenodd" clip-rule="evenodd" d="M132.136 39.9465L132.051 40.2884C132.051 44.391 130.769 48.2371 130.256 49.6901C127.948 46.6987 124.358 44.0491 119.401 41.7414C125.213 37.297 128.888 35.5875 132.307 34.1346C133.418 33.7072 134.529 33.3653 135.726 33.1089C135.042 35.1602 133.418 37.8952 132.136 39.9465ZM128.29 75.9294C126.837 79.5192 119.486 86.5277 113.076 89.8611C113.076 89.7756 113.162 89.6047 113.247 89.4337L112.307 89.7756L111.709 91.5705C111.88 91.3995 111.367 91.7414 112.051 91.7414C112.307 91.5705 113.076 91.2286 113.333 91.1431C113.333 91.1431 113.504 91.0576 113.589 90.9722C119.828 87.6388 127.692 80.5448 129.316 76.5277C130.427 74.7329 131.452 70.2029 131.794 64.9038C132.051 63.1944 132.051 61.7414 131.965 59.9465C131.965 56.9551 131.709 53.9636 131.196 51.2286C133.162 46.8696 133.333 42.1687 133.333 40.6303C133.333 40.6303 133.333 40.5448 133.333 40.4593C135.213 37.8098 136.495 35.2457 137.093 33.0235C137.264 32.2542 137.35 31.5705 137.264 30.8012C135.555 30.3739 133.589 30.4593 131.88 30.6303C127.521 30.8867 120.769 32.4252 114.187 36.8696C113.333 37.3824 112.649 37.8952 112.136 38.3226C103.76 33.8782 92.5634 36.4423 87.5207 38.4935C87.4352 38.4081 87.3497 38.4081 87.3497 38.3226C86.4095 37.5534 84.9565 36.7841 83.0762 36.0149C79.8283 34.5619 76.2386 33.5363 72.7343 32.8525C68.7172 31.9978 64.3583 31.485 60.1702 31.6559C59.9993 31.6559 59.23 31.6559 59.1446 31.7414C59.0591 31.7414 59.401 33.1089 59.401 33.2799C60.2557 35.9294 63.589 41.5705 67.0933 47.2115C67.948 48.6645 68.8027 49.9465 68.9736 50.3739C67.8625 54.1346 67.1788 58.1517 67.2642 62.0833C67.4352 68.6645 68.1189 71.5705 70.0847 76.4423C72.2215 81.314 79.1446 88.7499 85.2984 90.1175C86.2386 90.2884 88.5463 90.8867 88.8027 91.0576L88.2899 90.3739L87.0933 88.6645L86.9224 88.4935C87.0933 88.7499 87.1788 89.0064 87.3497 89.2628C82.0506 88.4081 77.4352 84.5619 74.7001 81.2286C73.5036 79.7756 72.3924 78.4081 71.0249 75.9294C69.23 71.8269 68.3753 67.0406 68.3753 62.0833C68.3753 60.3739 68.4608 58.579 68.7172 56.8696C69.401 56.2713 72.5634 54.22 75.5548 52.4252L75.6403 52.3397C75.9822 52.2542 76.2386 52.0833 76.5805 51.9978C77.3497 51.9123 78.2044 51.7414 78.8027 51.5705L79.7429 51.3995C79.9138 51.3995 80.7685 51.485 85.7258 56.1004C82.7343 54.9893 79.8283 56.2713 79.5719 56.6132C79.23 57.0405 79.9138 58.1517 80.0848 58.4081C81.6232 60.7158 85.042 62.938 89.6574 61.7414C90.1702 61.7414 90.5121 62.1688 90.854 62.5106C90.854 62.5106 90.854 62.5106 90.9395 62.5961C90.9395 62.6816 91.0249 62.767 91.0249 62.8525C90.1702 63.2799 87.6061 64.7329 82.3925 68.0662C80.7685 69.4337 80.5976 71.1431 80.9395 72.938C81.1959 75.2457 82.136 77.5534 82.8198 78.6645C83.5036 79.7756 84.0164 80.2884 84.4437 80.7158C84.6147 80.8867 84.7856 81.0576 84.9566 81.2286C85.5548 81.7414 87.4352 83.3653 89.401 84.1346L89.2301 83.9636C91.2813 84.8183 92.9907 84.8183 94.4437 84.391C96.6659 83.7927 98.4608 82.2542 99.9138 81.2286C104.957 84.4764 108.29 84.9038 110.769 84.1346C112.649 83.5363 114.358 81.8269 115.64 80.4594C116.666 79.3482 117.35 78.2371 117.948 76.8696C118.803 74.6474 119.486 70.8867 115.982 68.3226C115.897 68.2371 114.615 67.297 112.991 66.1004L108.119 61.8269C108.632 61.5705 109.316 61.2286 110.256 60.7158C114.615 60.8012 117.435 59.1773 118.888 55.7585L118.974 55.5876L118.888 55.5021C117.435 54.1346 114.871 54.22 112.82 54.7329C114.273 52.8525 116.068 51.0576 118.119 49.6046C118.29 49.6046 119.486 49.7756 119.486 49.7756C120.598 49.9465 121.11 49.9465 121.794 50.1175C123.247 50.7158 126.239 51.8269 130.598 55.844C130.683 56.0149 130.683 56.3568 130.683 56.6132C130.769 57.7243 130.769 58.8354 130.769 59.8611C130.854 67.2115 129.572 73.8782 128.29 75.9294ZM100.256 80.3739L100.085 80.2884C101.794 79.3482 105.555 75.673 106.751 70.1175L106.837 69.8611L107.008 67.5534C107.179 65.844 107.264 63.7927 107.35 62.6816C108.546 63.7927 111.025 65.7585 112.82 67.2115C114.444 68.579 115.811 69.7756 116.324 70.2029C116.495 70.4594 116.666 70.6303 116.751 70.8867C117.008 71.485 117.435 72.6816 117.435 74.22C117.435 74.3055 117.435 74.3055 117.435 74.391C117.093 77.3824 115.298 79.2628 113.504 81.3995C111.196 83.7072 107.606 85.2457 100.256 80.3739ZM93.3326 70.4593C95.5548 69.0064 103.076 68.4081 105.726 70.2029C104.529 75.3312 101.11 78.579 99.6574 79.3482C98.4608 78.6645 94.0164 74.391 93.3326 70.4593ZM91.6232 63.5363C91.6232 64.3055 91.7087 65.5876 91.9651 67.8098L92.2215 70.2029V70.2884C92.8198 74.9038 98.2044 79.8611 99.401 80.3739C98.0335 81.1431 96.1531 82.767 94.1873 83.4508C91.7087 84.3055 88.5463 83.8782 83.9309 78.75C82.3924 76.8696 80.1702 71.0576 83.1617 68.9209C83.5036 68.6645 87.2642 66.2713 89.7429 64.5619C90.9394 63.9636 91.4523 63.6217 91.6232 63.5363ZM88.5463 58.2371C88.6318 58.3226 88.7172 58.4081 88.7172 58.4081L86.7514 56.5277C86.6659 56.4423 86.5805 56.4422 86.495 56.3568C80.683 50.8012 79.9138 50.9722 79.6574 51.0576L78.6317 51.2286C78.0335 51.314 77.3497 51.485 76.6659 51.5705C77.8625 50.9722 79.7429 50.1175 79.9993 50.1175C81.3668 50.2884 89.0591 54.8183 91.3668 59.0918C91.7942 59.8611 91.9651 60.6303 91.9651 61.2286C91.9651 61.6559 91.8796 62.0833 91.7087 62.5106C91.6232 62.6816 91.5377 62.767 91.5377 62.767C91.4523 62.767 91.2813 62.5106 91.1104 62.4252C90.7685 61.9978 90.2557 61.485 89.4865 61.485C84.8711 62.6816 82.0506 60.3739 81.1104 59.2628C80.5976 58.6645 80.2557 58.1517 80.0848 57.8098C79.9993 57.5534 79.9138 57.297 79.8284 57.0405C80.0848 56.8696 83.589 55.2457 86.666 57.2115L88.8027 58.579L88.5463 58.2371ZM112.222 55.5876C114.187 54.9893 116.922 54.7329 118.375 56.0149C117.435 58.0662 115.64 60.5448 110.17 60.4593H110.085H109.999C109.486 60.8012 108.375 61.3995 107.606 61.7414C107.606 61.7414 107.35 61.8269 107.008 61.8269C107.008 61.8269 107.008 61.8269 106.922 61.7414C106.837 61.314 106.751 60.8867 106.751 60.5448C106.751 59.0064 107.35 57.4679 108.29 56.1004C110.085 53.7927 112.734 51.485 114.786 49.9465C115.726 49.3482 116.666 48.8354 117.435 48.4935C117.521 48.4935 117.606 48.4081 117.606 48.4081C117.692 48.4081 117.777 48.4081 117.863 48.4935C118.546 48.6645 120.17 49.3482 121.11 49.6901C120.598 49.6047 119.914 49.5192 119.316 49.5192L117.692 49.3482L117.606 49.4337C115.298 51.0576 113.162 53.1944 111.623 55.3311L111.196 55.9294L112.222 55.5876ZM69.9993 50.9722C70.1702 50.8012 70.3412 50.4593 70.683 50.032C72.0506 48.4081 75.4694 44.6474 80.0848 42.4252L80.854 42.0833C82.8198 41.2286 81.8796 41.7414 87.6061 39.5192C93.4181 37.297 103.76 34.9038 111.88 39.4337C113.76 40.4594 114.615 40.8867 116.41 41.6559L116.495 41.7414C116.751 41.8269 116.922 41.9123 117.179 42.0833L117.948 42.4252C123.76 44.9893 127.863 48.0662 129.999 51.485C130.17 52.5961 130.341 53.7927 130.512 54.9038C127.264 52.1687 124.187 50.5448 122.051 49.6046C120.769 49.0064 117.948 47.8098 117.606 47.9807C114.7 49.0918 108.632 53.2799 106.922 57.9807C107.606 55.5876 109.657 52.1688 114.444 47.297C113.162 47.5534 111.88 48.8354 111.025 49.8611C106.58 55.0747 105.64 58.4935 105.811 60.4593C105.897 61.7414 106.41 62.1688 106.666 62.5106C106.666 63.7072 106.495 66.1004 106.324 67.5534L106.153 69.4337C103.076 67.3824 95.3839 68.0662 92.7343 69.6046L92.4779 67.7243C92.3924 66.4423 92.136 64.22 92.136 63.0234C93.3326 59.9465 92.3925 57.297 90.5121 54.7329C90.0848 54.1346 88.5463 52.0833 87.0078 50.5448C85.8967 49.5192 85.042 48.8354 83.9309 48.9209L85.3839 50.3739C87.948 52.8525 90.5976 55.5021 91.6232 58.4935C89.1446 54.22 81.7087 49.7756 80.0848 49.5192C79.3155 49.2628 75.8967 50.9722 68.8882 55.5876C69.1446 54.0491 69.5719 52.5106 69.9993 50.9722ZM61.3668 33.3653C61.5377 33.3653 61.7941 33.4508 61.9651 33.4508C62.2215 33.5363 62.5634 33.6217 62.9053 33.7072C65.8112 34.5619 72.4779 36.5277 78.2899 42.1688C74.1873 44.5619 71.3668 47.8952 70.0847 49.4337L69.9993 49.5192C69.5719 48.8354 68.8882 47.7243 68.8882 47.7243C66.7514 44.1346 62.8198 37.7243 61.3668 33.3653ZM77.0078 34.9893C78.7172 35.5021 80.3412 36.1004 81.7942 36.6132C83.4181 37.297 84.8711 37.9807 86.2386 38.8354C84.2728 39.5192 81.6232 40.4593 79.9138 41.2286C76.7514 38.8354 71.5377 34.7328 64.6147 32.8525C68.2044 33.1944 72.7343 33.7927 77.0078 34.9893ZM134.615 31.7414C125.127 35.673 120.085 39.3482 118.119 40.8867C116.324 40.1175 114.786 39.6046 113.333 38.8354C119.914 34.22 128.29 31.0576 134.615 31.7414Z" fill="#002F87"/>
<path fill-rule="evenodd" clip-rule="evenodd" d="M89.573 69.9461C89.573 69.9461 75.7269 62.5957 64.5303 66.4418C64.5303 66.4418 77.9491 64.1341 88.5474 70.7153L89.573 69.9461Z" fill="white"/>
<path fill-rule="evenodd" clip-rule="evenodd" d="M88.7185 70.4588C88.7185 70.4588 76.8381 63.6212 63.8467 66.6982C63.8467 66.6982 77.0091 64.6469 87.7783 71.3135L88.7185 70.4588Z" fill="#002F87"/>
<path fill-rule="evenodd" clip-rule="evenodd" d="M87.6072 71.484C87.6072 71.484 72.65 66.8686 62.3936 72.6806C62.3936 72.6806 75.1286 67.8943 86.838 72.4242L87.6072 71.484Z" fill="white"/>
<path fill-rule="evenodd" clip-rule="evenodd" d="M86.9231 72.0815C86.9231 72.0815 73.9317 67.5516 61.7949 73.0217C61.7949 73.0217 74.359 68.4918 86.1539 73.1071L86.9231 72.0815Z" fill="#002F87"/>
<path fill-rule="evenodd" clip-rule="evenodd" d="M109.487 69.9461C109.487 69.9461 123.333 62.5957 134.53 66.4418C134.53 66.4418 121.111 64.1341 110.513 70.7153L109.487 69.9461Z" fill="white"/>
<path fill-rule="evenodd" clip-rule="evenodd" d="M110.342 70.4588C110.342 70.4588 122.222 63.6212 135.214 66.6982C135.214 66.6982 122.051 64.6469 111.282 71.3135L110.342 70.4588Z" fill="#002F87"/>
<path fill-rule="evenodd" clip-rule="evenodd" d="M111.367 71.484C111.367 71.484 126.324 66.8686 136.581 72.6806C136.581 72.6806 123.846 67.8943 112.136 72.4242L111.367 71.484Z" fill="white"/>
<path fill-rule="evenodd" clip-rule="evenodd" d="M112.137 72.0815C112.137 72.0815 125.128 67.5516 137.265 73.0217C137.265 73.0217 124.701 68.4918 112.906 73.1071L112.137 72.0815Z" fill="#002F87"/>
<path fill-rule="evenodd" clip-rule="evenodd" d="M91.966 99.8603L90.0856 99.6039L90.1711 98.7492C90.2566 97.6381 89.9147 96.0996 89.6583 95.074C88.8036 91.7406 87.0087 88.4928 84.9574 85.5868C84.6155 85.074 84.2737 84.7321 84.0173 84.1338C83.7608 83.45 83.7608 82.5953 84.3591 81.997C85.2993 81.1423 86.4959 81.5697 87.3506 82.168C88.9745 83.2791 90.5984 85.6723 91.5386 87.2962C93.248 90.2876 94.4446 93.621 95.0429 96.9543C95.9831 97.8945 97.436 98.7492 98.7181 99.0056C99.8292 99.262 101.026 99.262 102.137 99.0056C103.419 98.7492 104.872 97.8945 105.812 96.9543C106.41 93.621 107.607 90.2876 109.316 87.2962C110.257 85.6723 111.881 83.2791 113.504 82.168C114.445 81.5697 115.556 81.1423 116.496 81.997C117.094 82.5953 117.18 83.45 116.838 84.1338C116.581 84.6466 116.239 85.074 115.898 85.5868C113.846 88.4928 112.137 91.6552 111.197 95.074C110.94 96.0996 110.598 97.6381 110.684 98.7492L110.769 99.6039L108.889 99.8603C107.522 102.168 104.957 104.134 102.137 104.561C101.111 104.732 100 104.732 98.9745 104.561C95.9831 104.219 93.248 102.253 91.966 99.8603Z" fill="#002F87"/>
<path fill-rule="evenodd" clip-rule="evenodd" d="M98.9741 103.622C94.6152 103.024 92.6493 98.9212 92.6493 98.9212L91.1963 98.7503C91.1963 98.7503 91.5382 93.0238 85.8117 84.9896C85.5553 84.5622 85.2134 84.2204 84.957 83.793C84.7861 83.2802 84.7861 82.9383 85.0425 82.6819C85.2989 82.4255 85.7263 82.34 86.581 82.9383C88.3758 84.2204 92.6493 89.6905 93.9314 97.3828C93.9314 97.3828 95.6408 99.3486 98.3758 99.9469C99.6579 100.203 101.025 100.203 102.307 99.9469C104.957 99.3486 106.752 97.3828 106.752 97.3828C108.034 89.6905 112.307 84.2204 114.102 82.9383C114.957 82.34 115.384 82.4255 115.641 82.6819C115.897 82.9383 115.897 83.3657 115.726 83.793C115.555 84.2204 115.213 84.6477 114.872 84.9896C109.145 92.9383 109.487 98.7503 109.487 98.7503L108.034 98.9212C108.034 98.9212 106.068 102.938 101.795 103.622C100.94 103.793 99.9143 103.793 98.9741 103.622Z" fill="white"/>
<path fill-rule="evenodd" clip-rule="evenodd" d="M132.479 95.7592C131.111 97.4686 130.855 100.033 131.197 102.169C131.71 105.246 133.419 107.981 135.812 109.947L137.607 111.4L137.436 109.093C137.265 106.699 138.376 105.332 139.402 103.281C140 101.999 140.428 100.546 140.342 99.0926C140.257 97.4686 139.402 96.1011 138.034 95.2464C136.838 94.4772 135.299 94.2208 133.932 94.7336C133.334 94.99 132.906 95.3319 132.479 95.7592Z" fill="black"/>
<path fill-rule="evenodd" clip-rule="evenodd" d="M132.906 96.1012C131.624 97.6397 131.367 100.118 131.709 102.084C132.222 105.076 133.846 107.64 136.154 109.605L136.923 110.289L136.837 109.264C136.666 106.699 137.777 105.332 138.889 103.195C139.487 101.999 139.829 100.631 139.829 99.2636C139.743 97.8106 138.974 96.614 137.777 95.8448C136.752 95.161 135.299 94.9046 134.188 95.332C133.589 95.4174 133.248 95.7593 132.906 96.1012Z" fill="black"/>
<path fill-rule="evenodd" clip-rule="evenodd" d="M156.752 98.5785C156.496 98.1512 156.154 97.8093 155.727 97.5529C154.274 96.6127 152.393 96.6982 150.94 97.4674C149.744 98.0657 148.889 99.1768 148.633 100.544C148.376 101.912 148.633 103.365 149.06 104.561C149.744 106.527 150.769 108.066 150.257 110.202L149.829 112.339L151.709 111.314C154.274 109.861 156.41 107.638 157.351 104.818C157.863 102.852 157.863 100.373 156.752 98.5785Z" fill="black"/>
<path fill-rule="evenodd" clip-rule="evenodd" d="M122.222 105.416C122.735 103.706 124.103 103.023 125.385 101.997C126.325 101.228 127.094 100.288 127.436 99.1764C127.693 98.3217 127.693 97.467 127.436 96.6123C126.752 94.561 124.274 92.9371 122.222 93.9627C120.599 94.732 119.573 96.6123 119.231 98.3217C118.718 100.886 119.316 103.45 120.599 105.672L121.71 107.638L122.222 105.416Z" fill="black"/>
<path fill-rule="evenodd" clip-rule="evenodd" d="M165.299 97.4686C164.957 97.2977 164.615 97.1268 164.188 97.1268C162.906 96.9558 161.624 97.5541 160.684 98.4943C159.743 99.5199 159.316 100.973 159.658 102.34C160 103.452 160.684 104.477 161.538 105.332C162.735 106.528 164.017 107.298 164.444 109.007L164.957 111.144L166.154 109.263C167.607 107.127 168.376 104.563 168.034 102.084C167.778 100.289 166.837 98.3233 165.299 97.4686Z" fill="black"/>
<path fill-rule="evenodd" clip-rule="evenodd" d="M144.274 86.0153C143.59 85.246 142.735 84.6477 141.795 84.2204C138.205 82.6819 135.385 84.9041 132.821 87.2118C132.65 87.3828 132.479 87.4682 132.393 87.6392L131.88 87.8101C130.94 88.0665 130 88.4084 129.06 88.7503C127.094 89.4341 125.128 90.1178 123.333 91.058C121.197 92.2546 118.974 95.1605 120.171 97.7247L120.256 97.8956L123.675 100.973C124.53 102.084 126.325 102.255 127.607 101.998C128.291 101.827 128.974 101.571 129.573 101.229C131.538 102.767 134.786 103.451 137.179 103.622C139.658 103.793 143.077 103.451 145.043 101.656C145.385 102.511 145.983 103.28 146.752 103.793C148.974 105.161 151.88 105.502 154.444 105.075C155.214 104.904 156.068 104.733 156.838 104.477C158.632 106.186 161.026 106.357 163.333 105.588H163.504L163.59 105.502C165.299 104.562 166.581 102.596 166.667 100.631C166.752 98.2375 165.214 96.2717 163.419 94.9041C161.624 93.6221 159.915 91.9981 158.205 90.5452C156.752 89.2631 155.641 88.4939 153.675 88.9212C151.709 86.9554 148.974 84.5623 146.068 85.1606C145.385 85.3315 144.786 85.5879 144.274 86.0153Z" fill="black"/>
<path fill-rule="evenodd" clip-rule="evenodd" d="M157.009 103.962C158.376 105.501 160.513 106.099 163.248 105.159H163.334H163.419C165.128 104.219 166.154 102.253 166.154 100.714C166.24 98.6632 164.957 96.7829 163.077 95.5008C161.282 94.2187 159.487 92.5093 157.863 91.0564C156.667 89.9452 155.556 89.0051 153.59 89.6034C151.881 87.8085 149.06 85.2444 146.24 85.7572C145.299 85.9282 144.701 86.3555 144.359 86.9538C143.846 86.0991 142.992 85.4153 141.71 84.817C138.291 83.364 135.556 85.6717 133.334 87.723C133.163 87.894 132.992 88.0649 132.821 88.2358L132.137 88.4068C131.197 88.6632 130.257 89.0051 129.402 89.347C127.436 90.0307 125.47 90.629 123.761 91.6546C121.539 92.9367 119.829 95.5863 120.855 97.6376L120.94 97.723L124.274 100.8C124.957 101.74 126.41 101.911 127.693 101.655C128.462 101.484 129.145 101.142 129.829 100.8C131.71 102.338 135.043 103.108 137.436 103.279C140.598 103.535 143.932 102.851 145.385 100.885C145.727 101.911 146.325 102.937 147.18 103.535C149.145 104.817 151.966 105.159 154.53 104.732C155.385 104.475 156.24 104.219 157.009 103.962Z" fill="black"/>
<path fill-rule="evenodd" clip-rule="evenodd" d="M165.641 103.195C163.932 101.827 162.222 100.545 160.513 99.1778C159.402 98.3231 158.205 97.3829 157.008 96.5282C156.496 96.1863 155.299 95.1607 154.701 95.1607C153.846 95.0752 152.991 95.0752 152.137 95.0752C150.427 95.0752 148.803 94.9898 147.094 94.9898C144.615 94.9898 142.051 94.9043 139.573 94.9043L121.795 95.8445L121.538 96.5282C121.197 97.4684 121.282 98.7504 121.367 99.7761C121.795 102.426 123.333 104.562 125.299 106.186C125.812 106.614 126.41 106.956 127.008 107.297C129.316 108.409 132.137 108.58 134.615 108.409C136.325 108.323 138.12 108.067 139.829 107.896C141.026 107.81 142.479 107.639 143.675 107.896C144.957 108.152 146.068 108.665 147.179 109.178C150.085 110.545 152.222 110.887 155.385 110.716C158.376 110.631 161.026 109.52 163.248 107.554C164.188 106.785 165.128 105.588 165.726 104.562L166.154 103.793L165.641 103.195Z" fill="black"/>
<path fill-rule="evenodd" clip-rule="evenodd" d="M164.957 103.964C164.957 103.964 162.137 109.263 155.556 109.519C148.974 109.776 148.205 107.639 144.103 106.699C139.915 105.759 131.111 109.263 126.154 105.246C121.197 101.229 122.65 96.7844 122.65 96.7844L139.658 95.9297C139.658 95.9297 154.188 96.1861 154.615 96.1861C155.128 96.2716 164.957 103.964 164.957 103.964Z" fill="#002F87"/>
<path fill-rule="evenodd" clip-rule="evenodd" d="M154.957 99.0912C155.043 100.459 155.47 102.168 156.068 103.365C157.35 105.843 159.743 106.954 163.162 105.929H163.248H163.333C165.043 104.989 166.068 103.023 166.068 101.484C166.154 99.4331 164.872 97.5528 162.991 96.2707C161.196 94.9887 159.401 93.2793 157.778 91.8263C156.496 90.7152 155.384 89.6895 153.162 90.4588C151.367 91.057 152.735 94.3904 153.162 95.416C153.76 96.5271 154.359 97.8092 154.957 99.0912Z" fill="#002F87"/>
<path fill-rule="evenodd" clip-rule="evenodd" d="M153.589 90.8865C151.88 91.4848 155.726 98.9207 155.726 98.9207C155.726 98.9207 155.982 107.553 162.991 105.331C162.991 105.331 165.299 104.049 165.384 101.314C165.47 99.4335 164.273 97.7241 162.564 96.5275C161.196 95.5873 158.632 93.2796 157.265 92.0831C156.324 91.1429 155.384 90.2027 153.589 90.8865Z" fill="#002F87"/>
<path fill-rule="evenodd" clip-rule="evenodd" d="M162.82 104.903C161.624 105.245 160.256 105.416 159.06 104.818C158.718 104.647 158.376 104.39 158.034 104.048C159.316 103.194 160 101.997 159.829 100.117C159.658 98.8348 159.06 97.2108 158.29 96.0142C157.179 94.3048 155.812 92.5954 154.444 91.057C155.555 90.9715 156.154 91.5698 157.094 92.339C157.949 93.1083 158.718 93.792 159.573 94.5612C160.513 95.3305 161.453 96.1852 162.393 96.8689C163.761 97.8946 165.128 99.433 165.043 101.313C165.043 102.339 164.615 103.279 163.932 103.963C163.59 104.305 163.162 104.647 162.82 104.903Z" fill="white"/>
<path fill-rule="evenodd" clip-rule="evenodd" d="M146.239 86.3558C144.188 86.7832 143.846 88.2362 144.017 89.6037C144.359 92.7661 144.615 96.0139 144.872 99.1763C144.957 100.715 145.555 103.108 147.094 104.048C149.06 105.33 151.88 105.672 154.444 105.245C158.034 104.646 160.256 103.279 159.914 100.117C159.743 98.8345 159.145 97.2105 158.376 96.0139C157.179 94.2191 155.641 92.2533 154.188 90.6293C152.478 89.0054 149.316 85.7575 146.239 86.3558Z" fill="#002F87"/>
<path fill-rule="evenodd" clip-rule="evenodd" d="M146.325 86.9548C144.531 87.2967 144.616 88.7497 144.701 89.5189C144.787 90.3736 145.556 99.0915 145.556 99.0915C145.556 99.0915 145.727 102.425 147.522 103.536C148.89 104.391 151.283 105.074 154.274 104.647C157.437 104.134 159.402 103.023 159.06 100.203C158.804 98.1514 157.607 96.3565 157.607 96.3565C157.607 96.3565 155.898 93.7069 153.419 91.0573C152.137 89.6898 149.06 86.442 146.325 86.9548Z" fill="#002F87"/>
<path fill-rule="evenodd" clip-rule="evenodd" d="M145.983 99.177C145.812 97.5531 145.726 95.9291 145.555 94.3052C145.47 93.2796 145.384 92.2539 145.299 91.2283C145.213 90.63 145.213 90.1172 145.128 89.5189C144.957 88.4078 145.213 87.6385 146.41 87.3821C148.803 86.8693 151.624 89.7753 153.162 91.3992C154.188 92.5103 155.213 93.7069 156.153 94.989C156.581 95.5018 156.923 96.1001 157.265 96.6129C157.948 97.6385 158.547 99.0915 158.632 100.288C158.718 101.057 158.632 101.741 158.205 102.425C157.436 103.621 155.47 104.049 154.102 104.305C152.051 104.647 149.487 104.476 147.606 103.28C146.581 102.51 146.068 100.459 145.983 99.177Z" fill="white"/>
<path fill-rule="evenodd" clip-rule="evenodd" d="M124.103 101.398C124.787 102.338 126.24 102.509 127.522 102.252C129.573 101.74 130.94 100.372 132.735 99.9446C134.616 99.5173 134.017 95.4147 133.846 94.3036C133.675 92.6797 133.419 91.0557 132.992 89.4318L132.821 88.748L131.966 89.0045C131.026 89.2609 130.086 89.6027 129.231 89.9446C127.265 90.6284 125.299 91.2267 123.59 92.2523C121.368 93.5344 119.658 96.1839 120.684 98.2352L120.769 98.3207L124.103 101.398Z" fill="#002F87"/>
<path fill-rule="evenodd" clip-rule="evenodd" d="M132.308 89.6035C132.308 89.6035 131.026 90.0309 129.573 90.5437C128.547 90.8856 125.812 91.7403 124.017 92.7659C122.051 93.877 120.513 96.2702 121.368 98.065L124.701 101.057C124.701 101.057 125.385 102.168 127.35 101.74C129.231 101.313 130.684 99.8599 132.564 99.4326C134.359 98.9198 132.308 89.6035 132.308 89.6035Z" fill="#002F87"/>
<path fill-rule="evenodd" clip-rule="evenodd" d="M131.965 90.1172C131.965 90.2881 132.051 90.4591 132.051 90.63C130.17 93.2796 128.888 96.9548 129.059 98.8351C129.059 99.348 129.315 99.7753 129.572 100.117C128.803 100.545 128.033 100.886 127.264 101.143C126.751 101.314 126.068 101.314 125.555 101.057C125.384 100.972 125.213 100.801 125.042 100.715V100.63L121.709 97.6386C121.623 97.4676 121.623 97.3821 121.538 97.2112C121.281 95.5873 122.905 93.7924 124.187 93.0232C125.897 92.083 127.863 91.4847 129.657 90.801C130.512 90.63 131.196 90.3736 131.965 90.1172Z" fill="white"/>
<path fill-rule="evenodd" clip-rule="evenodd" d="M162.821 104.903C161.881 105.16 160.855 105.331 159.915 105.16C160.257 104.989 160.599 104.732 160.94 104.476C161.71 103.792 162.222 103.023 162.393 101.997C162.735 100.202 161.624 98.4075 160.428 97.2109C159.573 96.3562 158.718 95.4161 157.949 94.5614C157.265 93.7067 156.496 92.852 155.812 92.0827C155.556 91.7409 155.299 91.399 155.043 91.1426C155.812 91.228 156.41 91.7409 157.094 92.4246C157.949 93.1939 158.718 93.8776 159.573 94.6468C160.513 95.4161 161.453 96.2708 162.393 96.9545C163.761 97.9802 165.128 99.5186 165.043 101.399C165.043 102.425 164.616 103.365 163.932 104.049C163.59 104.305 163.163 104.647 162.821 104.903Z" fill="#A7A8A9"/>
<path fill-rule="evenodd" clip-rule="evenodd" d="M164.786 98.2372C166.923 99.4338 168.547 103.964 165.384 108.665C164.872 106.613 163.59 105.759 162.222 104.477C161.453 103.793 160.854 102.853 160.598 101.912C159.914 99.5193 162.82 97.1261 164.786 98.2372Z" fill="#002F87"/>
<path fill-rule="evenodd" clip-rule="evenodd" d="M165.47 106.356C164.786 105.416 163.931 104.732 162.905 103.792C162.307 103.279 161.794 102.51 161.623 101.741C161.196 100.202 163.076 98.4927 164.358 99.1765C165.384 99.7748 165.897 101.228 166.068 102.339C166.239 103.706 165.982 105.074 165.47 106.356Z" fill="white"/>
<path fill-rule="evenodd" clip-rule="evenodd" d="M146.325 87.4681H146.411C148.804 86.9552 151.624 89.8612 153.163 91.4851C154.188 92.5963 155.214 93.7928 156.154 95.0749C156.582 95.5877 156.923 96.186 157.265 96.6988C157.949 97.7245 158.547 99.1774 158.633 100.374C158.718 101.143 158.633 101.827 158.206 102.511C157.436 103.707 155.471 104.135 154.103 104.391C152.821 104.562 151.368 104.562 150 104.306C150.684 104.306 151.368 104.22 151.966 104.135C153.248 103.964 155.214 103.536 156.069 102.254C156.496 101.656 156.582 100.887 156.496 100.118C156.325 98.921 155.727 97.4681 155.129 96.4424C154.787 95.8441 154.359 95.3313 154.018 94.8185C153.077 93.5364 152.137 92.3398 151.026 91.2287C149.915 90.0321 148.206 88.1518 146.325 87.4681Z" fill="#A7A8A9"/>
<path fill-rule="evenodd" clip-rule="evenodd" d="M155.898 99.1761C157.522 101.569 156.924 107.21 151.112 110.544C151.625 108.065 150.599 106.527 149.83 104.39C149.402 103.279 149.231 101.997 149.402 100.8C150.086 97.7231 154.445 96.8684 155.898 99.1761Z" fill="#002F87"/>
<path fill-rule="evenodd" clip-rule="evenodd" d="M152.479 108.153C153.761 107.042 154.701 105.76 155.214 104.136C155.642 102.854 155.727 100.973 154.958 99.7766C154.018 98.3236 151.026 99.0929 150.684 100.973C150.513 101.913 150.684 103.024 151.026 103.879C151.624 105.503 152.223 106.785 152.479 108.153Z" fill="white"/>
<path fill-rule="evenodd" clip-rule="evenodd" d="M131.966 90.1172C131.966 90.2881 132.051 90.4591 132.051 90.63C131.795 90.9719 131.624 91.3138 131.367 91.7411L131.025 91.8266C129.145 92.5104 127.265 93.1086 125.555 94.0488C124.273 94.818 122.649 96.5274 122.906 98.2368C122.906 98.4078 122.991 98.5787 123.077 98.6642L125.897 101.228C125.726 101.228 125.641 101.143 125.47 101.057C125.299 100.972 125.128 100.801 124.957 100.715V100.63L121.624 97.6386C121.538 97.4676 121.538 97.3821 121.453 97.2112C121.196 95.5873 122.82 93.7924 124.102 93.0232C125.812 92.083 127.778 91.4847 129.572 90.801C130.513 90.63 131.196 90.3736 131.966 90.1172Z" fill="#A7A8A9"/>
<path fill-rule="evenodd" clip-rule="evenodd" d="M122.564 94.7324C120.427 95.758 118.461 100.117 121.282 105.074C121.88 103.023 123.333 102.339 124.7 101.143C125.47 100.459 126.153 99.6896 126.495 98.7494C127.35 96.3563 124.529 93.7922 122.564 94.7324Z" fill="#002F87"/>
<path fill-rule="evenodd" clip-rule="evenodd" d="M121.453 102.51C122.136 101.741 123.077 101.142 124.017 100.288C124.615 99.7747 125.128 99.1764 125.384 98.4072C125.812 97.0397 124.188 95.2448 122.991 95.7576C121.966 96.2704 121.367 97.638 121.111 98.6636C120.94 99.9456 121.025 101.228 121.453 102.51Z" fill="white"/>
<path fill-rule="evenodd" clip-rule="evenodd" d="M141.624 85.4166C138.206 83.9637 135.471 86.2714 133.248 88.3226C130.77 90.6303 128.12 96.1004 128.291 99.0064C128.547 102.254 133.847 103.622 137.265 103.878C141.624 104.22 146.325 102.853 146.069 98.6645C145.898 96.1004 145.727 93.4508 145.385 90.8867C145.043 88.579 144.359 86.6132 141.624 85.4166Z" fill="#002F87"/>
<path fill-rule="evenodd" clip-rule="evenodd" d="M141.282 85.9284C138.633 84.8173 136.496 86.2703 133.846 88.6635C131.197 91.0566 128.889 96.4413 129.145 98.9199C129.316 101.399 133.248 102.937 137.436 103.279C141.71 103.621 145.556 102.253 145.385 98.7489C145.214 96.4413 145.043 93.1934 144.701 91.0566C144.359 88.9199 143.846 87.0395 141.282 85.9284Z" fill="#002F87"/>
<path fill-rule="evenodd" clip-rule="evenodd" d="M141.111 86.3568C143.333 87.297 143.931 88.75 144.188 91.0577C144.359 92.4252 144.529 93.7927 144.615 95.1602C144.7 96.3568 144.786 97.5534 144.871 98.75C144.957 99.4337 144.786 100.032 144.444 100.63C143.162 102.767 139.487 103.023 137.35 102.853C135.641 102.767 133.675 102.34 132.051 101.656C131.025 101.229 129.743 100.374 129.487 99.2628C129.487 99.1773 129.487 99.0919 129.401 98.9209C129.23 97.1261 130.512 94.2201 131.282 92.7671C131.965 91.485 132.906 90.1175 134.017 89.0919C135.384 87.8953 137.179 86.2714 139.059 86.1004C139.829 86.0149 140.427 86.1004 141.111 86.3568Z" fill="white"/>
<path fill-rule="evenodd" clip-rule="evenodd" d="M141.112 86.3555C143.334 87.2957 143.932 88.7487 144.189 91.0564C144.359 92.4239 144.53 93.7914 144.616 95.159C144.701 96.3556 144.787 97.5521 144.872 98.7487C144.958 99.4325 144.787 100.031 144.445 100.629C143.163 102.766 139.488 103.022 137.351 102.851C136.838 102.851 136.325 102.766 135.812 102.68C137.949 102.851 141.624 102.595 142.907 100.458C143.248 99.8598 143.334 99.2615 143.334 98.5778C143.248 97.3812 143.163 96.1846 143.077 94.988C142.992 93.6205 142.821 92.253 142.65 90.8855C142.308 88.5778 141.71 87.1248 139.573 86.1846C139.402 86.0991 139.231 86.0991 139.06 86.0137C139.83 86.0137 140.428 86.0991 141.112 86.3555Z" fill="#A7A8A9"/>
<path fill-rule="evenodd" clip-rule="evenodd" d="M133.248 96.3559C131.368 98.6636 131.197 104.732 136.41 109.176C136.239 106.441 137.436 104.988 138.462 102.852C139.06 101.741 139.402 100.373 139.316 99.1764C139.145 95.8431 134.957 94.3046 133.248 96.3559Z" fill="#002F87"/>
<path fill-rule="evenodd" clip-rule="evenodd" d="M135.47 106.612C135.812 105.159 136.666 103.963 137.436 102.424C137.863 101.484 138.205 100.373 138.205 99.3471C138.119 98.407 137.692 97.6377 136.923 97.2104C136.325 96.783 135.47 96.6121 134.786 96.8685C134.53 96.954 134.359 97.1249 134.188 97.2959C133.248 98.4925 133.077 100.544 133.333 101.997C133.589 103.621 134.359 105.245 135.47 106.612Z" fill="white"/>
<path fill-rule="evenodd" clip-rule="evenodd" d="M67.6075 95.7592C68.975 97.4686 69.2315 100.033 68.8896 102.169C68.3768 105.246 66.6674 107.981 64.2742 109.947L62.4793 111.4L62.6503 109.093C62.8212 106.699 61.7101 105.332 60.6844 103.281C60.0861 101.999 59.6588 100.546 59.7443 99.0926C59.8298 97.4686 60.6844 96.1011 62.052 95.2464C63.2485 94.4772 64.787 94.2208 66.1545 94.7336C66.7528 94.99 67.2656 95.3319 67.6075 95.7592Z" fill="black"/>
<path fill-rule="evenodd" clip-rule="evenodd" d="M67.2649 96.1012C68.5469 97.6397 68.8033 100.118 68.4615 102.084C67.9486 105.076 66.3247 107.64 64.017 109.605L63.2478 110.289L63.3332 109.264C63.5042 106.699 62.3931 105.332 61.282 103.195C60.6837 101.999 60.3418 100.631 60.3418 99.2636C60.4273 97.8106 61.1965 96.614 62.3931 95.8448C63.4187 95.161 64.8717 94.9046 65.9828 95.332C66.4956 95.4174 66.923 95.7593 67.2649 96.1012Z" fill="black"/>
<path fill-rule="evenodd" clip-rule="evenodd" d="M43.419 98.5785C43.6754 98.1512 44.0173 97.8093 44.4447 97.5529C45.8977 96.6127 47.778 96.6982 49.231 97.4674C50.4276 98.0657 51.2823 99.1768 51.5387 100.544C51.7951 101.912 51.5387 103.365 51.1113 104.561C50.4276 106.527 49.4019 108.066 49.9147 110.202L50.3421 112.339L48.4618 111.314C45.8976 109.861 43.7609 107.638 42.8207 104.818C42.2224 102.852 42.2224 100.373 43.419 98.5785Z" fill="black"/>
<path fill-rule="evenodd" clip-rule="evenodd" d="M77.864 105.416C77.3512 103.706 75.9837 103.023 74.7016 101.997C73.7614 101.228 72.9922 100.288 72.6503 99.1764C72.3939 98.3217 72.3939 97.467 72.6503 96.6123C73.3341 94.561 75.8127 92.9371 77.864 93.9627C79.4879 94.732 80.5136 96.6123 80.8554 98.3217C81.3683 100.886 80.77 103.45 79.4879 105.672L78.3768 107.638L77.864 105.416Z" fill="black"/>
<path fill-rule="evenodd" clip-rule="evenodd" d="M34.8716 97.4686C35.2135 97.2977 35.5554 97.1268 35.9827 97.1268C37.2648 96.9558 38.5468 97.5541 39.487 98.4943C40.4272 99.5199 40.8545 100.973 40.5127 102.34C40.1708 103.452 39.487 104.477 38.6323 105.332C37.4357 106.528 36.1537 107.298 35.7263 109.007L35.2135 111.144L34.0169 109.263C32.5639 107.127 31.7947 104.563 32.2221 102.084C32.393 100.289 33.2477 98.3233 34.8716 97.4686Z" fill="black"/>
<path fill-rule="evenodd" clip-rule="evenodd" d="M55.8116 86.0153C56.4954 85.246 57.3501 84.6477 58.2902 84.2204C61.88 82.6819 64.7005 84.9041 67.2646 87.2118C67.4355 87.3828 67.6065 87.4682 67.692 87.6392L68.2048 87.8101C69.1449 88.0665 70.0851 88.4084 71.0253 88.7503C72.9911 89.4341 74.9569 90.1178 76.7518 91.058C78.8885 92.2546 81.1107 95.1605 79.9142 97.7247L79.8287 97.8956L76.4099 100.973C75.5552 102.084 73.7603 102.255 72.4783 101.998C71.7945 101.827 71.1107 101.571 70.5125 101.229C68.5466 102.767 65.2988 103.451 62.9056 103.622C60.427 103.793 57.0082 103.451 55.0424 101.656C54.7005 102.511 54.1022 103.28 53.333 103.793C51.1107 105.161 48.2048 105.502 45.6407 105.075C44.8714 104.904 44.0167 104.733 43.2475 104.477C41.4526 106.186 39.0595 106.357 36.7518 105.588H36.5808H36.4954C34.786 104.648 33.5039 102.682 33.4184 100.716C33.333 98.3229 34.8714 96.3571 36.6663 94.9896C38.4612 93.7076 40.1706 92.0836 41.88 90.6306C43.333 89.3486 44.4441 88.5794 46.4099 89.0067C48.3757 87.0409 51.1108 84.6477 54.0167 85.246C54.7005 85.3315 55.2988 85.5879 55.8116 86.0153Z" fill="black"/>
<path fill-rule="evenodd" clip-rule="evenodd" d="M43.162 103.962C41.7945 105.501 39.6577 106.099 36.9227 105.159H36.8372H36.7518C35.0424 104.219 34.0167 102.253 34.0167 100.714C33.9313 98.6632 35.2133 96.7829 37.0936 95.5008C38.8885 94.2187 40.6834 92.5093 42.3073 91.0564C43.5039 89.9452 44.615 89.0051 46.5808 89.6034C48.2902 87.8085 51.1107 85.2444 53.9312 85.7572C54.8714 85.9282 55.4697 86.3555 55.8116 86.9538C56.3244 86.0991 57.1791 85.4153 58.4612 84.817C61.88 83.364 64.615 85.6717 66.8372 87.723C67.0082 87.894 67.1791 88.0649 67.3501 88.2358L68.0338 88.4068C68.974 88.6632 69.9142 89.0051 70.7689 89.347C72.7347 90.0307 74.7005 90.629 76.4099 91.6546C78.6321 92.9367 80.3415 95.5863 79.3159 97.6376L79.2304 97.723L75.8971 100.8C75.2133 101.74 73.7603 101.911 72.4783 101.655C71.709 101.484 71.0253 101.142 70.3415 100.8C68.4612 102.338 65.1278 103.108 62.7347 103.279C59.5723 103.535 56.2389 102.851 54.7859 100.885C54.4441 101.911 53.8458 102.937 52.9911 103.535C51.0253 104.817 48.2048 105.159 45.6406 104.732C44.7859 104.475 43.8458 104.219 43.162 103.962Z" fill="black"/>
<path fill-rule="evenodd" clip-rule="evenodd" d="M34.5294 103.195C36.2388 101.827 37.9482 100.545 39.6576 99.1778C40.7687 98.3231 41.9653 97.3829 43.1619 96.5282C43.6747 96.1863 44.8713 95.1607 45.4696 95.1607C46.3243 95.0752 47.179 95.0752 48.0337 95.0752C49.7431 95.0752 51.367 94.9898 53.0764 94.9898C55.5551 94.9898 58.1192 94.9043 60.5978 94.9043L78.3756 95.8445L78.632 96.5282C78.9739 97.4684 78.8884 98.7504 78.8029 99.7761C78.3756 102.426 76.8371 104.562 74.8713 106.186C74.3585 106.614 73.7602 106.956 73.1619 107.297C70.8542 108.409 68.0337 108.58 65.5551 108.409C63.8457 108.323 62.0508 108.067 60.3414 107.896C59.1448 107.81 57.6918 107.639 56.4952 107.896C55.2132 108.152 54.1021 108.665 52.991 109.178C50.085 110.545 47.9482 110.887 44.7858 110.716C41.7944 110.631 39.1448 109.52 36.9226 107.554C35.9824 106.785 35.0422 105.588 34.444 104.562L34.0166 103.793L34.5294 103.195Z" fill="black"/>
<path fill-rule="evenodd" clip-rule="evenodd" d="M35.1279 103.964C35.1279 103.964 37.9484 109.263 44.5296 109.519C51.1108 109.776 51.8801 107.639 55.9826 106.699C60.1707 105.759 68.9741 109.263 73.9313 105.246C78.8886 101.229 77.4356 96.7844 77.4356 96.7844L60.4271 95.9297C60.4271 95.9297 45.8972 96.1861 45.4698 96.1861C44.957 96.2716 35.1279 103.964 35.1279 103.964Z" fill="#002F87"/>
<path fill-rule="evenodd" clip-rule="evenodd" d="M45.1278 99.0912C45.0424 100.459 44.615 102.168 44.0167 103.365C42.7347 105.843 40.3415 106.954 36.9227 105.929H36.8372H36.7518C35.0424 104.989 34.0167 103.023 34.0167 101.484C33.9313 99.4331 35.2133 97.5528 37.0936 96.2707C38.8885 94.9887 40.6834 93.2793 42.3073 91.8263C43.5894 90.7152 44.7005 89.6895 46.9227 90.4588C48.7176 91.057 47.3501 94.3904 46.9227 95.416C46.3244 96.5271 45.8116 97.8092 45.1278 99.0912Z" fill="#002F87"/>
<path fill-rule="evenodd" clip-rule="evenodd" d="M46.5814 90.8865C48.2908 91.4848 44.4447 98.9207 44.4447 98.9207C44.4447 98.9207 44.1882 107.553 37.1797 105.331C37.1797 105.331 34.872 104.049 34.7865 101.314C34.7011 99.4335 35.8976 97.7241 37.607 96.5275C38.9746 95.5873 41.5387 93.2796 42.9062 92.0831C43.7609 91.1429 44.7011 90.2027 46.5814 90.8865Z" fill="#002F87"/>
<path fill-rule="evenodd" clip-rule="evenodd" d="M37.2641 104.903C38.4607 105.245 39.8282 105.416 41.0248 104.818C41.3667 104.647 41.7086 104.39 42.0504 104.048C40.7684 103.194 40.0846 101.997 40.2556 100.117C40.4265 98.8348 41.0248 97.2108 41.794 96.0142C42.9051 94.3048 44.2727 92.5954 45.6402 91.057C44.5291 90.9715 43.9308 91.5698 42.9906 92.339C42.1359 93.1083 41.3667 93.792 40.512 94.5612C39.5718 95.3305 38.6316 96.1852 37.6915 96.8689C36.3239 97.8946 34.9564 99.433 35.0419 101.313C35.0419 102.339 35.4692 103.279 36.153 103.963C36.4949 104.305 36.9222 104.647 37.2641 104.903Z" fill="white"/>
<path fill-rule="evenodd" clip-rule="evenodd" d="M53.9314 86.3558C55.9827 86.7832 56.3246 88.2362 56.1537 89.6037C55.8118 92.7661 55.5554 96.0139 55.299 99.1763C55.2135 100.715 54.6152 103.108 53.0767 104.048C51.1109 105.33 48.2904 105.672 45.7263 105.245C42.1366 104.646 39.9144 103.279 40.2562 100.117C40.4272 98.8345 41.0255 97.2105 41.7947 96.0139C42.9913 94.2191 44.5297 92.2533 45.9827 90.6293C47.6921 89.0054 50.7691 85.7575 53.9314 86.3558Z" fill="#002F87"/>
<path fill-rule="evenodd" clip-rule="evenodd" d="M53.7608 86.9548C55.5557 87.2967 55.4702 88.7497 55.3847 89.5189C55.2993 90.3736 54.53 99.0915 54.53 99.0915C54.53 99.0915 54.3591 102.425 52.5642 103.536C51.1967 104.391 48.8035 105.074 45.8121 104.647C42.6497 104.134 40.6839 103.023 41.0258 100.203C41.2822 98.1514 42.4787 96.3565 42.4787 96.3565C42.4787 96.3565 44.1881 93.7069 46.6668 91.0573C47.9488 89.6898 51.0258 86.442 53.7608 86.9548Z" fill="#002F87"/>
<path fill-rule="evenodd" clip-rule="evenodd" d="M54.1022 99.177C54.2732 97.5531 54.3586 95.9291 54.5296 94.3052C54.615 93.2796 54.7005 92.2539 54.786 91.2283C54.8714 90.63 54.8714 90.1172 54.9569 89.5189C55.1279 88.4078 54.8714 87.6385 53.6749 87.3821C51.2817 86.8693 48.4612 89.7753 46.9227 91.3992C45.8971 92.5103 44.8714 93.7069 43.9313 94.989C43.5039 95.5018 43.162 96.1001 42.8201 96.6129C42.1364 97.6385 41.5381 99.0915 41.4526 100.288C41.3672 101.057 41.4526 101.741 41.88 102.425C42.6492 103.621 44.615 104.049 45.9826 104.305C48.0338 104.647 50.5979 104.476 52.4783 103.28C53.5039 102.51 54.0167 100.459 54.1022 99.177Z" fill="white"/>
<path fill-rule="evenodd" clip-rule="evenodd" d="M75.9828 101.398C75.2991 102.338 73.8461 102.509 72.564 102.252C70.5127 101.74 69.1452 100.372 67.3503 99.9446C65.47 99.5173 66.0683 95.4147 66.2392 94.3036C66.4101 92.6797 66.6666 91.0557 67.0939 89.4318L67.2649 88.748L68.1196 89.0045C69.0597 89.2609 69.9999 89.6027 70.8546 89.9446C72.8204 90.6284 74.7862 91.2267 76.4956 92.2523C78.7178 93.5344 80.4273 96.1839 79.4016 98.2352L79.3161 98.3207L75.9828 101.398Z" fill="#002F87"/>
<path fill-rule="evenodd" clip-rule="evenodd" d="M67.7778 89.6035C67.7778 89.6035 69.0599 90.0309 70.5129 90.5437C71.5385 90.8856 74.2736 91.7403 76.0684 92.7659C78.0342 93.877 79.5727 96.2702 78.718 98.065L75.3847 101.057C75.3847 101.057 74.7009 102.168 72.7351 101.74C70.8548 101.313 69.4018 99.8599 67.5214 99.4326C65.7266 98.9198 67.7778 89.6035 67.7778 89.6035Z" fill="#002F87"/>
<path fill-rule="evenodd" clip-rule="evenodd" d="M68.1197 90.1172C68.1197 90.2881 68.0342 90.4591 68.0342 90.63C69.9145 93.2796 71.1966 96.9548 71.0256 98.8351C71.0256 99.348 70.7692 99.7753 70.5128 100.117C71.282 100.545 71.9658 100.886 72.8205 101.143C73.3333 101.314 74.0171 101.314 74.5299 101.057C74.7009 100.972 74.8718 100.801 75.0427 100.715V100.63L78.3761 97.6386C78.4615 97.4676 78.4615 97.3821 78.547 97.2112C78.8034 95.5873 77.1795 93.7924 75.8974 93.0232C74.188 92.083 72.2222 91.4847 70.4274 90.801C69.6581 90.63 68.8889 90.3736 68.1197 90.1172Z" fill="white"/>
<path fill-rule="evenodd" clip-rule="evenodd" d="M37.2641 104.903C38.2043 105.16 39.2299 105.331 40.1701 105.16C39.8282 104.989 39.4863 104.732 39.1445 104.476C38.3752 103.792 37.8624 103.023 37.6915 101.997C37.3496 100.202 38.4607 98.4075 39.6573 97.2109C40.512 96.3562 41.3667 95.4161 42.1359 94.5614C42.8197 93.7067 43.5889 92.852 44.2727 92.0827C44.5291 91.7409 44.7855 91.399 45.0419 91.1426C44.2727 91.228 43.6744 91.7409 42.9906 92.4246C42.1359 93.1939 41.3667 93.8776 40.512 94.6468C39.5718 95.4161 38.6316 96.2708 37.6915 96.9545C36.3239 97.9802 34.9564 99.5186 35.0419 101.399C35.0419 102.425 35.4692 103.365 36.153 104.049C36.4949 104.305 36.9222 104.647 37.2641 104.903Z" fill="#A7A8A9"/>
<path fill-rule="evenodd" clip-rule="evenodd" d="M35.3 98.2372C33.1632 99.4338 31.5393 103.964 34.7017 108.665C35.2145 106.613 36.4966 105.759 37.8641 104.477C38.6333 103.793 39.2316 102.853 39.488 101.912C40.1718 99.5193 37.2658 97.1261 35.3 98.2372Z" fill="#002F87"/>
<path fill-rule="evenodd" clip-rule="evenodd" d="M34.7002 106.356C35.3839 105.416 36.2386 104.732 37.2643 103.792C37.8626 103.279 38.3754 102.51 38.5463 101.741C38.9737 100.202 37.0933 98.4927 35.8113 99.1765C34.7856 99.7748 34.2728 101.228 34.1019 102.339C33.9309 103.706 34.1019 105.074 34.7002 106.356Z" fill="white"/>
<path fill-rule="evenodd" clip-rule="evenodd" d="M53.7603 87.4681H53.6749C51.2817 86.9552 48.4612 89.8612 46.9227 91.4851C45.8971 92.5963 44.8714 93.7928 43.9313 95.0749C43.5039 95.5877 43.162 96.186 42.8201 96.6988C42.1364 97.7245 41.5381 99.1774 41.4526 100.374C41.3672 101.143 41.4526 101.827 41.88 102.511C42.6492 103.707 44.615 104.135 45.9826 104.391C47.2646 104.562 48.7176 104.562 50.0851 104.306C49.4013 104.306 48.7176 104.22 48.1193 104.135C46.8373 103.964 44.8714 103.536 44.0167 102.254C43.5894 101.656 43.5039 100.887 43.5894 100.118C43.7603 98.921 44.3586 97.4681 44.9569 96.4424C45.2988 95.8441 45.7261 95.3313 46.068 94.8185C47.0082 93.5364 47.9484 92.3398 49.0595 91.2287C50.1706 90.0321 51.9655 88.1518 53.7603 87.4681Z" fill="#A7A8A9"/>
<path fill-rule="evenodd" clip-rule="evenodd" d="M44.1881 99.1761C42.5642 101.569 43.1625 107.21 48.9744 110.544C48.4616 108.065 49.4873 106.527 50.2565 104.39C50.6838 103.279 50.8548 101.997 50.6838 100.8C50.0001 97.7231 45.6411 96.8684 44.1881 99.1761Z" fill="#002F87"/>
<path fill-rule="evenodd" clip-rule="evenodd" d="M47.6926 108.153C47.8636 106.7 48.5473 105.503 49.1456 103.879C49.4875 102.939 49.6584 101.913 49.4875 100.973C49.1456 99.0929 46.1542 98.3236 45.214 99.7766C44.4448 100.973 44.5302 102.854 44.9576 104.136C45.3849 105.76 46.4106 107.127 47.6926 108.153Z" fill="white"/>
<path fill-rule="evenodd" clip-rule="evenodd" d="M68.1197 90.1172C68.1197 90.2881 68.0342 90.4591 68.0342 90.63C68.2906 90.9719 68.4615 91.3138 68.718 91.7411L69.0598 91.8266C70.9402 92.5104 72.8205 93.1086 74.5299 94.0488C75.812 94.818 77.4359 96.5274 77.1795 98.2368C77.1795 98.4078 77.094 98.5787 77.0085 98.6642L74.188 101.228C74.359 101.228 74.4444 101.143 74.6154 101.057C74.7863 100.972 74.9573 100.801 75.1282 100.715V100.63L78.4615 97.6386C78.547 97.4676 78.547 97.3821 78.6325 97.2112C78.8889 95.5873 77.265 93.7924 75.9829 93.0232C74.2735 92.083 72.3077 91.4847 70.5128 90.801C69.6581 90.63 68.8889 90.3736 68.1197 90.1172Z" fill="#A7A8A9"/>
<path fill-rule="evenodd" clip-rule="evenodd" d="M77.6072 94.7324C79.744 95.758 81.7098 100.117 78.8893 105.074C78.291 103.023 76.838 102.339 75.4704 101.143C74.7012 100.459 74.0174 99.6896 73.6756 98.7494C72.7354 96.3563 75.5559 93.7922 77.6072 94.7324Z" fill="#002F87"/>
<path fill-rule="evenodd" clip-rule="evenodd" d="M78.7178 102.51C79.0597 101.313 79.2307 99.9456 78.9742 98.6636C78.7178 97.638 78.1195 96.2704 77.0939 95.7576C75.8973 95.2448 74.2734 97.0397 74.7007 98.4072C74.9571 99.091 75.4699 99.7747 76.0682 100.288C77.0939 101.142 77.9486 101.655 78.7178 102.51Z" fill="white"/>
<path fill-rule="evenodd" clip-rule="evenodd" d="M58.4613 85.4166C61.8801 83.9637 64.6152 86.2714 66.8374 88.3226C69.316 90.6303 71.9656 96.1004 71.7946 99.0064C71.5382 102.254 66.2391 103.622 62.8203 103.878C58.4613 104.22 53.7605 102.853 54.0169 98.6645C54.1878 96.1004 54.3588 93.4508 54.7006 90.8867C55.0425 88.579 55.7263 86.6132 58.4613 85.4166Z" fill="#002F87"/>
<path fill-rule="evenodd" clip-rule="evenodd" d="M58.8034 85.9284C61.4529 84.8173 63.5897 86.2703 66.2393 88.6635C68.8888 91.0566 71.1965 96.4413 70.9401 98.9199C70.7692 101.399 66.8376 102.937 62.6495 103.279C58.376 103.621 54.5299 102.253 54.7008 98.7489C54.8717 96.4413 55.0427 93.1934 55.3846 91.0566C55.7264 88.9199 56.3247 87.0395 58.8034 85.9284Z" fill="#002F87"/>
<path fill-rule="evenodd" clip-rule="evenodd" d="M58.9739 86.3568C56.7516 87.297 56.1534 88.75 55.897 91.0577C55.726 92.4252 55.5551 93.7927 55.4696 95.1602C55.3841 96.3568 55.2987 97.5534 55.2132 98.75C55.1277 99.4337 55.2987 100.032 55.6405 100.63C56.9226 102.767 60.5978 103.023 62.7346 102.853C64.444 102.767 66.4098 102.34 68.0337 101.656C69.0593 101.229 70.3414 100.374 70.5978 99.2628C70.5978 99.1773 70.5978 99.0919 70.6833 98.9209C70.8542 97.1261 69.5722 94.2201 68.8029 92.7671C68.1192 91.485 67.179 90.1175 66.0679 89.0919C64.7004 87.8953 62.9055 86.2714 61.0252 86.1004C60.3414 86.0149 59.6576 86.1004 58.9739 86.3568Z" fill="white"/>
<path fill-rule="evenodd" clip-rule="evenodd" d="M58.9739 86.3555C56.7516 87.2957 56.1534 88.7487 55.897 91.0564C55.726 92.4239 55.5551 93.7914 55.4696 95.159C55.3841 96.3556 55.2987 97.5521 55.2132 98.7487C55.1277 99.4325 55.2987 100.031 55.6405 100.629C56.9226 102.766 60.5978 103.022 62.7346 102.851C63.2474 102.851 63.7602 102.766 64.273 102.68C62.1363 102.851 58.4611 102.595 57.179 100.458C56.8371 99.8598 56.7517 99.2615 56.7517 98.5778C56.8371 97.3812 56.9226 96.1846 57.0081 94.988C57.0935 93.6205 57.2645 92.253 57.4354 90.8855C57.7773 88.5778 58.3756 87.1248 60.5123 86.1846C60.6833 86.0991 60.8542 86.0991 61.0252 86.0137C60.3414 86.0137 59.6576 86.0991 58.9739 86.3555Z" fill="#A7A8A9"/>
<path fill-rule="evenodd" clip-rule="evenodd" d="M66.9232 96.3559C68.8035 98.6636 68.9744 104.732 63.7608 109.176C63.9317 106.441 62.7351 104.988 61.7095 102.852C61.1112 101.741 60.7693 100.373 60.8548 99.1764C60.9403 95.8431 65.1283 94.3046 66.9232 96.3559Z" fill="#002F87"/>
<path fill-rule="evenodd" clip-rule="evenodd" d="M64.6148 106.613C65.7259 105.246 66.4952 103.622 66.837 101.827C67.0935 100.374 67.008 98.3225 65.9823 97.126C65.8114 96.955 65.6405 96.7841 65.384 96.6986C64.7003 96.4422 63.8456 96.6131 63.2473 97.0405C62.4781 97.5533 61.9652 98.3225 61.9652 99.1772C61.8798 100.203 62.2217 101.314 62.7345 102.254C63.5037 103.964 64.2729 105.16 64.6148 106.613Z" fill="white"/>
<path d="M48.1196 151.4L49.5726 158.922L51.1965 158.58L49.7435 151.058L53.5897 150.289L53.2478 152.426L54.188 157.383C54.188 157.554 54.2734 157.725 54.2734 157.896C54.2734 158.067 54.2734 158.238 54.3589 158.409C54.3589 158.58 54.3589 158.751 54.2734 158.922C54.188 159.092 54.188 159.263 54.017 159.434C53.9316 159.605 53.7606 159.776 53.5897 159.862C53.4187 159.947 53.2478 160.033 53.0768 160.118C52.9059 160.204 52.735 160.289 52.564 160.289C52.3931 160.375 52.2222 160.375 51.9657 160.46L49.3162 160.973C49.2307 160.973 49.1452 160.973 49.0598 160.973C48.9743 160.973 48.8888 160.973 48.8033 160.973C48.7179 160.973 48.6324 160.973 48.4615 160.973C48.2905 160.973 48.2051 160.973 48.0341 160.973C47.8632 160.973 47.6922 160.887 47.5213 160.887C47.3504 160.802 47.1794 160.716 47.0085 160.631C46.7521 160.46 46.6666 160.204 46.5811 159.947C46.4957 159.691 46.4102 159.434 46.4102 159.178L45.3845 153.964L44.2734 152.169L48.1196 151.4Z" fill="white"/>
<path d="M66.7524 150.632L67.4362 156.187L68.4618 158.068L64.7866 158.495L60.855 153.281L61.6242 158.837L58.1199 159.264L58.6328 157.213L57.8635 151.743L56.8379 149.863L60.5131 149.435L64.4447 154.649L63.6755 149.093L67.1798 148.666L66.7524 150.632Z" fill="white"/>
<path d="M75.1281 147.98L74.5298 150.032L74.9572 155.673L75.8973 157.639L71.2819 157.98L71.8802 155.929L71.4529 150.288L70.5127 148.322L75.1281 147.98Z" fill="white"/>
<path d="M82.5646 147.469L82.0518 149.52L83.3338 154.905L84.1031 149.349L83.2484 147.383L87.7783 147.127L85.5561 156.871L81.1116 157.127L77.9492 147.64L82.5646 147.469Z" fill="white"/>
<path d="M98.9742 147.041L99.0596 150.203L96.41 149.092H94.7006V150.887H97.0938V152.682H94.7006V154.733H96.41L99.2306 153.451L99.316 156.699L91.0254 156.87L91.7092 154.819L91.6237 149.178L90.8545 147.212L98.9742 147.041Z" fill="white"/>
<path d="M108.462 147.127C108.804 147.127 109.231 147.127 109.573 147.212C109.915 147.298 110.257 147.383 110.599 147.64C110.77 147.725 110.855 147.896 110.941 148.067C111.026 148.238 111.111 148.324 111.111 148.494C111.111 148.665 111.197 148.836 111.197 149.007C111.197 149.178 111.197 149.349 111.197 149.52C111.197 149.862 111.197 150.118 111.197 150.375C111.197 150.631 111.112 150.888 111.026 151.059C110.941 151.23 110.77 151.486 110.513 151.657C110.257 151.828 110 151.913 109.573 152.084C109.659 152.084 109.659 152.084 109.659 152.084H109.744C109.829 152.084 110 152.17 110.086 152.17C110.171 152.17 110.428 152.341 110.599 152.512C110.855 152.682 110.941 152.939 110.941 153.11C110.941 153.366 111.026 153.537 111.026 153.794V154.819L111.795 156.871H109.659C109.317 156.871 108.975 156.871 108.804 156.785C108.633 156.785 108.462 156.7 108.291 156.529C108.206 156.443 108.12 156.358 108.12 156.272C108.12 156.187 108.035 156.016 108.12 155.845L108.206 152.939H106.411L106.325 156.871L102.394 156.785L103.163 154.819L103.248 149.178L102.564 147.127H108.462ZM106.24 150.973H108.035V149.093H106.24V150.973Z" fill="white"/>
<path d="M122.821 150.459L120.086 149.519L118.377 149.433L118.291 151.228L120.428 151.314C120.514 151.314 120.599 151.314 120.684 151.314C120.77 151.314 120.855 151.314 120.941 151.314C121.026 151.314 121.112 151.314 121.283 151.314C121.454 151.314 121.625 151.399 121.796 151.399C121.967 151.485 122.137 151.57 122.394 151.656C122.565 151.741 122.736 151.912 122.821 152.083C122.992 152.254 123.078 152.51 123.078 152.767C123.078 153.023 123.078 153.194 123.078 153.451L122.992 154.989C122.992 155.16 122.992 155.331 122.992 155.502C122.992 155.673 122.907 155.844 122.907 156.015C122.736 156.357 122.565 156.613 122.308 156.784C122.052 156.955 121.796 157.04 121.539 157.126C121.283 157.211 121.026 157.211 120.77 157.211C120.514 157.211 120.343 157.211 120.257 157.211L115.129 156.955L115.3 153.963L118.206 155.075L119.915 155.16L120.001 153.194L117.693 153.109C117.608 153.109 117.522 153.109 117.437 153.109C117.351 153.109 117.266 153.109 117.18 153.109C117.095 153.109 117.009 153.109 116.924 153.109C116.753 153.109 116.667 153.023 116.496 153.023C116.325 152.938 116.155 152.852 115.984 152.767C115.813 152.681 115.642 152.51 115.556 152.339C115.385 152.083 115.3 151.912 115.214 151.656C115.129 151.399 115.129 151.143 115.129 150.886L115.214 149.263C115.214 149.006 115.3 148.75 115.385 148.493C115.471 148.237 115.556 148.066 115.813 147.895C116.069 147.639 116.411 147.468 116.838 147.468C117.18 147.468 117.608 147.382 117.949 147.468L123.078 147.724L122.821 150.459Z" fill="white"/>
<path d="M131.453 148.322L130.513 150.288L130.085 155.929L130.684 157.98L126.068 157.639L127.009 155.673L127.436 150.032L126.838 147.98L131.453 148.322Z" fill="white"/>
<path d="M144.017 153.195L141.966 151.4L140.769 151.229L140.085 156.785L140.598 158.836L135.983 158.323L137.009 156.443L137.692 150.887L136.496 150.716L134.103 151.998L134.53 148.494L144.359 149.691L144.017 153.195Z" fill="white"/>
<path d="M151.538 150.887L150.683 151.913L151.282 154.135L152.649 152.254L152.136 150.972L156.154 151.742L152.307 156.87L151.965 158.75L152.393 160.887L147.777 160.032L148.889 158.237L149.23 156.357L147.436 150.203L151.538 150.887Z" fill="white"/>
</svg>
