<?xml version="1.0" encoding="UTF-8"?>
<svg width="200px" height="200px" viewBox="0 0 200 200" version="1.1" xmlns="http://www.w3.org/2000/svg" xmlns:xlink="http://www.w3.org/1999/xlink">
    <!-- Generator: Sketch 54.1 (76490) - https://sketchapp.com -->
    <title>davis-elkins</title>
    <desc>Created with Sketch.</desc>
    <g id="davis-elkins" stroke="none" stroke-width="1" fill="none" fill-rule="evenodd">
        <g id="davis-elkins_BGL" transform="translate(0.000000, -0.000000)">
            <g id="davis-elkins" transform="translate(0.000000, 31.000000)">
                <g id="g10" transform="translate(99.978395, 69.316053) scale(-1, 1) rotate(-180.000000) translate(-99.978395, -69.316053) translate(0.000000, 0.013829)" fill-rule="nonzero">
                    <g id="g12">
                        <path d="M199.208463,45.2880524 L199.675087,45.2291196 L199.675087,56.4443278 C199.675087,57.9893699 199.415852,59.3595146 198.880099,60.6332238 C198.240652,62.1613292 197.215808,63.4967364 195.917904,64.4953106 C194.868865,65.3042974 193.655644,65.9038221 192.316262,66.2772937 C191.464242,66.5144075 190.522354,66.6936255 189.514793,66.8099357 C188.101097,66.9729082 187.394249,67.0529255 185.980553,67.2093308 C185.225314,67.2929774 184.499455,67.3265051 183.818531,67.3100869 L183.818531,67.5071057 L181.763659,67.7063712 C169.180726,68.9270236 156.59883,69.8659736 144.034215,70.5285789 L144.034215,84.2381487 L141.254522,83.6040593 C139.821643,83.2770772 138.022032,82.9758458 135.910647,82.7033032 C131.495871,86.3026982 127.239573,89.7786973 127.064676,89.9274983 L125.613823,91.1640504 L124.863423,90.5733397 C122.290254,92.9273686 120.307796,95.0418641 120.222766,95.1329421 L120.171092,95.1884184 C122.030155,96.5383428 123.675607,98.1215789 124.946724,99.7858692 C127.295223,102.860572 128.309697,106.132639 127.803151,108.999263 C127.438493,111.063294 126.39775,113.000991 124.793602,114.602546 C123.297815,116.09626 121.296519,117.308444 118.996757,118.115702 C118.625705,119.765303 118.165303,123.612699 120.583103,127.496908 L121.145644,128.34236 L121.1491,128.441734 C121.152384,128.536787 121.188159,130.795763 117.725121,133.117819 C116.251974,134.105333 114.271071,135.053615 111.996541,135.86001 C109.003411,136.921319 102.824106,138.671502 95.0693431,138.473619 C89.416632,138.328966 83.7666862,137.15031 79.1600758,135.154717 C78.1345411,134.710388 75.5390778,133.496648 73.5915298,131.824926 C71.1754573,129.750699 71.1662976,127.568457 71.1671618,127.476687 L71.1683715,127.334281 L72.0285141,126.468089 C73.2197865,125.268694 74.8728432,122.585955 75.8805771,119.296087 C76.7267209,116.533503 76.9351461,113.943397 76.487706,111.781375 C73.0108428,111.936744 69.5702726,110.896174 67.4486913,109.032618 C65.9762351,107.739207 65.2180584,106.090989 65.313457,104.391615 C65.4135218,102.610669 66.4485617,100.240568 70.8120095,99.0629485 C71.655561,98.8355128 72.6024609,98.6575046 73.6330074,98.5325532 C72.8375009,96.6886992 72.8387106,96.338386 72.8402661,95.936917 C72.8454508,94.3450398 74.2010783,93.493884 75.6704237,92.7913565 C75.5874684,92.5710065 75.4884405,92.3212766 75.3747227,92.0451046 C75.1236101,91.4355562 74.9575267,91.0328774 75.0166324,90.4179714 C75.0632947,89.9309548 75.2304151,89.5101295 75.5385594,89.1098703 C74.9672049,87.8783301 75.0244094,87.3147526 75.1351893,86.8438086 C75.2551288,86.3348434 75.3629707,86.0897797 76.939121,84.0931498 C76.7028713,83.2454505 76.3195488,82.4559928 75.8741826,81.7444784 C69.0015105,82.1881163 63.4899963,82.8230699 60.0672268,83.6040593 L57.2875337,84.2381487 L57.2875337,70.6455804 C40.2639005,69.7830183 23.3410234,68.3992206 6.562091,66.4862373 C4.33598607,66.2143859 2.99186858,66.0099357 2.97890682,66.0080346 L0,65.5567925 L4.72193551,55.2079485 L4.72193551,26.4020732 L7.25359239,26.6905156 C10.1976753,27.0263117 13.1668521,27.3368755 16.0383664,27.6374156 L18.3823715,27.8835163 C18.804925,27.9281047 19.2179732,27.9853093 19.6159857,28.0544387 L19.6085543,28.0108872 L22.5608981,28.2922438 C29.0889602,28.9144084 35.6502043,29.4584568 42.2328786,29.9250803 L45.6212562,26.8446742 C45.6570306,26.8120106 49.1949005,23.5064155 49.1949005,18.6072149 C49.1949005,15.9808335 48.3663846,13.6712202 47.9211913,12.4301228 L47.8257927,12.1634734 C47.4068685,10.9803756 46.9596013,9.90022874 46.4582404,8.8611793 C44.9149265,5.66240643 44.1199384,2.23650891 44.1119885,2.20228986 L43.950917,1.4997848 L44.6026344,1.80788935 C44.6320144,1.8219399 47.5907528,3.21883768 50.5781798,4.43947278 C53.9102168,5.80133924 58.0690415,7.21517372 63.6398342,7.37666 C63.8285575,7.37645261 64.0152069,7.38009919 64.1985726,7.38597519 L64.2822192,7.3866492 C66.0374146,7.3866492 67.6030227,7.63981834 68.9192465,8.13357508 C70.5557122,8.65657356 71.876775,9.60710281 72.7879005,10.9053702 C79.437976,7.74072999 88.4408705,3.97459485 99.9574829,0.228788934 L100.660875,0 L101.364093,0.228788934 C112.854782,3.96595367 121.843332,7.72365502 128.488914,10.8839055 C129.399176,9.59690622 130.712116,8.65448239 132.325942,8.13931282 C133.658411,7.63981834 135.223846,7.3866492 136.976449,7.3866492 L137.05422,7.38611345 C137.246227,7.37990908 137.434086,7.37503546 137.609675,7.37679826 C143.192565,7.21517372 147.351217,5.80133924 150.683254,4.43947278 C153.670163,3.21918333 156.629419,1.8219399 156.658972,1.80788935 L157.310517,1.4997848 L157.149445,2.20228986 C157.141668,2.23650891 156.346507,5.66240643 154.803021,8.8611793 C154.30166,9.90022874 153.854392,10.9803756 153.435468,12.1634734 L153.34007,12.4305376 C152.894876,13.6712202 152.066533,15.9808335 152.066533,18.6072149 C152.066533,23.5064155 155.604403,26.8120106 155.639486,26.8439829 C155.639486,26.8439829 157.896043,29.2045791 159.039961,29.9803838 C166.493321,29.4615676 173.927842,28.8478714 181.324688,28.131518 L183.612871,27.9099583 C184.046658,27.8161151 184.497727,27.7343696 184.960894,27.665413 L185.038665,27.6553892 C186.680488,27.4737517 187.499671,27.3805999 189.143223,27.1896299 C190.19399,27.0684806 191.179084,27.0356442 192.074309,27.0918118 C193.424061,27.175804 194.658021,27.5064154 195.739896,28.0748319 C197.167418,28.8240217 198.290771,30.0088997 198.990706,31.5010578 C199.552382,32.6969964 199.825443,34.0455381 199.825443,35.6239352 L199.825443,41.1506579 C199.825443,42.6044491 199.618055,43.9936044 199.208463,45.2880524" id="path14" fill="#FFFFFF"></path>
                        <path d="M77.9529036,14.7317862 L77.668609,14.6882347 L77.9297453,14.5680014 C80.3786543,13.4391183 82.9692785,12.3183406 85.629205,11.2369667 L85.7482804,11.1885588 L85.7482804,15.7037801 L85.6534003,15.6944649 C83.0505056,15.4390145 80.4597085,15.1151778 77.9529036,14.7317862" id="path16" fill="#D21C2E"></path>
                        <path d="M100.999609,16.4232271 L100.515012,16.4234345 L100.515012,16.4239011 L100.261998,16.4232271 C98.728535,16.4194422 97.169667,16.3921707 95.6287727,16.3423457 L95.5451261,16.3395805 L95.5451261,7.4944565 L95.603022,7.47427071 C97.2486474,6.89821542 98.9414536,6.32710289 100.634087,5.77641809 L100.660875,5.76777691 L100.687662,5.77641809 C102.380123,6.32710289 104.072929,6.89821542 105.718727,7.47427071 L105.776623,7.4944565 L105.776623,16.3376967 L105.692804,16.3404619 C104.132035,16.3914275 102.552946,16.4194422 100.999609,16.4232271" id="path18" fill="#D21C2E"></path>
                        <path d="M123.354155,14.7249078 C120.851844,15.1084204 118.266059,15.4326028 115.668176,15.6885889 L115.573296,15.6979041 L115.573296,11.1884378 L115.692371,11.2368284 C118.344694,12.3150915 120.930306,13.4333805 123.377314,14.5610539 L123.638277,14.6813563 L123.354155,14.7249078" id="path20" fill="#D21C2E"></path>
                        <path d="M111.409978,117.859578 L111.575716,117.816199 L111.183752,118.371827 L111.167679,118.37874 C104.117345,121.440654 96.2868846,121.365648 90.9596002,120.763877 C85.1891964,120.111987 81.0296804,118.718165 80.9883756,118.704166 L80.9316895,118.68481 L80.9484534,118.62726 C81.9352755,115.241993 81.3646124,112.448474 81.1770989,111.530436 L81.1243877,111.267053 L81.247438,111.344478 C85.2406978,113.851628 90.7504838,116.885718 97.9717409,118.102741 C104.268738,119.16405 108.755236,118.556402 111.409978,117.859578" id="path22" fill="#D21C2E"></path>
                        <path d="M100.079496,106.713672 L100.114579,106.700537 L100.150181,106.711771 C100.248345,106.742879 102.596152,107.540805 105.90745,107.337738 C109.198183,107.13588 112.288958,105.951866 114.789714,104.107839 L114.90516,104.218619 C114.873879,104.264763 114.000775,105.48507 112.286193,106.656467 C110.708487,107.734368 107.83184,109.014298 103.832186,109.259535 C101.754847,109.386906 99.5389044,109.333676 97.1838386,108.859794 L97.1126353,108.754545 L97.2491659,108.605398 C97.2963467,108.554069 98.4231559,107.338775 100.079496,106.713672" id="path24" fill="#C1C0C1"></path>
                        <path d="M107.075046,94.9252083 C107.506241,95.2257483 109.380857,99.0862797 109.677249,101.238105 L109.690038,101.331257 L109.599997,101.358217 C109.031926,101.528967 108.451585,101.672583 107.9224,101.774031 L107.792091,101.798917 L107.791745,101.666362 C107.79019,100.576882 107.222637,98.6948344 106.527368,97.7296152 C106.658541,98.3645687 106.818403,99.5506564 106.459967,100.521579 L106.431106,100.599349 L106.348323,100.592955 C105.975543,100.563921 105.579431,100.457288 104.892112,100.196152 C105.012743,100.590363 105.159989,101.405225 104.622853,102.08736 L104.60246,102.11311 L104.571525,102.12348 C104.363445,102.193473 104.144996,102.236679 103.922572,102.251888 C103.404275,102.287489 102.948194,102.165649 102.656813,102.057116 L102.584919,102.030501 L102.585264,101.95394 C102.590622,100.723782 102.783147,98.1661673 104.009848,94.8545234 L104.032661,94.7926526 L104.098161,94.7838386 C104.445364,94.7371763 104.773555,94.7031301 105.074095,94.6823912 C106.072842,94.614126 106.74599,94.6958715 107.075046,94.9252083" id="path26" fill="#C1C0C1"></path>
                        <path d="M114.554674,90.5664268 C112.540762,92.7607667 110.870941,94.8593625 110.054869,95.9151413 L109.948755,96.0523631 L109.87012,95.8980317 C109.135966,94.4599674 108.539552,93.5282759 108.145342,93.2035406 C107.794165,92.9144068 106.674268,92.811404 104.99235,92.9133699 L104.808293,92.9246034 L104.885891,92.7574831 C105.682953,91.0442837 106.684292,89.326591 107.862084,87.6517584 L107.908228,87.5860855 L107.984616,87.6099352 C110.65906,88.4444998 112.922875,89.4086821 114.53117,90.398788 L114.644542,90.4684358 L114.554674,90.5664268" id="path28" fill="#C1C0C1"></path>
                        <path d="M89.2104536,85.658585 C87.733504,85.2438086 86.5697105,85.0575049 86.2062627,85.1992202 C85.2762994,85.561631 83.8458393,86.5125059 83.0558631,87.2712011 C83.1980969,87.4754785 83.67388,87.9319053 83.9809873,88.2906869 C82.8557335,88.1826722 80.2244957,87.7143206 79.1388185,87.5166105 C79.1766668,87.3681551 79.3463795,87.1014884 79.9949861,86.4986801 L80.0343899,86.4618687 L82.5216657,86.8730158 C82.8116635,86.5945971 84.5262455,84.9816354 85.9968006,84.3081422 L86.0127004,84.3008836 L86.0299827,84.2988097 C86.0885699,84.2918968 86.1476755,84.2867121 86.2074725,84.2825643 C87.62186,84.1857832 89.2434629,84.8167618 89.311901,84.8437222 L89.3913998,84.8750033 L89.3805119,84.9598596 C89.3768826,84.9885483 89.3414538,85.2415619 89.2104536,85.658585" id="path30" fill="#C1C0C1"></path>
                        <path d="M87.1804688,82.3104754 C87.0562087,82.799393 86.4952236,83.0333961 86.3901469,83.0437655 L86.3899741,83.0437655 C86.3189436,83.0486045 86.2358155,83.0095464 85.8768611,82.7694946 C85.852493,82.7532492 85.8317542,82.7392505 85.8167185,82.7292267 C85.7812897,82.7333745 85.7233938,82.7421885 85.6670534,82.7506568 C85.5514345,82.768112 85.4204342,82.7878139 85.3367877,82.793517 C85.2742256,82.7978376 85.2419076,82.7943812 85.2132189,82.7800368 C85.1601621,82.7537676 85.1198942,82.6894773 85.0187924,82.512506 C84.9951156,82.4712012 84.964353,82.4171075 84.9470707,82.3910111 C84.9372197,82.3891101 84.9237395,82.3870362 84.9137157,82.3856536 C84.8637698,82.378395 84.8013805,82.3690625 84.7465954,82.3325968 C84.6966494,82.2992418 84.5046425,82.0780278 84.332856,81.8744417 L84.215336,82.8756082 L82.5251222,82.6931066 L82.2318407,84.6802312 L82.1093088,84.6427285 C81.7978809,84.5464658 81.7054203,84.3776172 81.695915,84.3587795 L81.6563384,84.2801448 L81.7242581,84.2244956 C81.8015102,84.1610694 81.8085959,84.0150335 81.8148176,83.8861072 C81.8168915,83.8454937 81.8187925,83.8066084 81.8224218,83.7710068 C81.8334825,83.6643747 81.7586499,83.2618687 81.7078398,83.0282114 C81.5946404,82.6996739 81.575457,82.3892829 81.5723462,82.2893909 C81.2892613,81.8438519 81.1031304,81.7842278 80.952774,81.7361829 C80.8563384,81.7050746 80.7562736,81.6731023 80.6658869,81.5635322 C80.4961743,81.3570081 80.3098705,80.8952237 80.2403955,80.7132406 C80.0259215,80.7166971 79.9241285,80.6867986 79.8753923,80.6098921 C79.8333961,80.5438736 79.6187494,80.0689546 79.6121821,79.8664054 C79.6080343,79.7354052 79.4234588,79.483947 79.3470708,79.4381488 C79.2487342,79.379216 78.9853512,79.2634242 78.9827589,79.2623873 L78.9117284,79.2312791 L78.9172588,79.1538541 C78.9340227,78.9210609 78.9497496,78.7012294 79.0852432,78.4912488 C79.5126357,77.8286436 80.4728431,76.9475893 81.0241501,76.8473517 L81.0619984,76.8404388 L81.0958718,76.8587581 C81.1952453,76.9125062 81.3763644,77.0009918 81.4620848,77.0426423 C81.5832341,76.9899311 81.7259863,76.9653902 81.7441328,76.9624522 L81.7724758,76.9576131 L81.7996091,76.9674641 C82.8799288,77.3602919 83.4020286,77.753811 83.4773796,77.9096978 L83.4955261,77.9472005 L83.4841198,77.9874683 C83.4675287,78.0460555 83.4435062,78.1077535 83.4200022,78.1673776 C83.3940787,78.2342603 83.3503544,78.3459043 83.3555391,78.3790864 C83.3736855,78.4174532 83.5233507,78.6020287 83.6037136,78.7012294 C83.7115555,78.8343035 83.7476756,78.8797561 83.7620199,78.908272 C83.9904926,79.35865 84.1265047,79.7976217 84.1873386,80.0202183 C84.4778549,79.8506785 84.7172154,79.8102378 84.7286218,79.8083367 L84.7789134,79.800214 L84.8176259,79.8333961 C84.9724757,79.9661246 85.0516289,80.2507649 85.0977728,80.4531412 C85.1162649,80.5348867 85.2185764,80.7116852 85.2833852,80.8119228 C85.3390344,80.864634 85.630242,81.1408059 85.8753057,81.3758459 C86.0531411,81.5464227 86.1490581,81.7441328 86.1386887,81.918166 C86.1347138,81.9843574 86.1506135,82.1075806 86.1675502,82.213867 L87.1317325,81.5802961 L87.1208447,81.7963255 C87.1161784,81.8905143 87.1370901,81.9663838 87.1573104,82.0396609 C87.1808144,82.1246901 87.2051825,82.2128301 87.1804688,82.3104754" id="path32" fill="#C1C0C1"></path>
                        <path d="M100.26459,94.8889153 C100.491508,94.7124625 100.857721,94.4411296 101.268868,94.1896714 L101.463813,94.0702504 L101.435124,94.2971677 C100.979907,97.8879215 101.0817,101.960507 101.146509,103.544953 L101.148237,103.585048 L101.123696,103.616675 C100.628902,104.257504 100.22968,104.83629 100.225705,104.842166 L100.207213,104.868954 L100.176796,104.881397 C100.15502,104.890384 97.9646551,105.794251 96.0630782,106.932467 L96.0096757,106.964612 L90.6932792,104.106975 L91.0589737,104.074484 C92.5602915,103.941583 93.8514559,103.549274 94.5178633,103.298334 C91.4925879,102.764482 88.9149254,100.876904 88.0851998,100.214644 C88.1690192,100.487705 88.2965629,100.879496 88.4356858,101.221514 L88.468868,101.302741 L88.3968006,101.353033 C87.9960229,101.632661 87.6705962,101.96189 87.4300259,102.331387 L87.3833636,102.403108 L87.3023093,102.375284 C86.5546749,102.118468 85.9677663,101.98885 85.649771,102.010626 C85.591011,102.014601 85.5419292,102.023761 85.5035623,102.037587 C85.0715036,102.193646 84.0945324,102.661134 83.6396609,102.925899 C84.1073213,102.902741 84.9382567,102.884595 85.4188788,103.008336 C85.9821106,103.153162 89.6226376,105.75381 91.1618037,106.865411 L91.083169,107.063294 C89.8270878,106.89842 88.4526225,106.622248 86.8811385,106.219051 C84.0864096,105.502006 82.1798208,104.847005 80.8808794,104.157785 L80.8476973,104.140157 L80.832316,104.106284 C80.5815491,103.553594 80.3020935,102.941281 80.0141695,102.313067 C83.3163081,102.791443 87.1084014,99.4336549 87.1906654,99.3534648 C86.8880514,98.4648064 86.7482372,97.6841626 86.7482372,97.6841626 C86.7482372,97.6841626 91.8427283,102.71661 98.5489714,101.189196 C98.5515637,99.0190513 97.3915724,96.6544802 94.9644392,94.6137803 C94.7304362,94.4171072 98.6763423,95.9965411 98.6763423,95.9965411 C98.6763423,95.9965411 99.2162429,91.6994576 98.0106262,90.185351 C96.9648712,88.872238 94.5939056,87.6146014 92.2391854,86.684811 C92.8221191,86.4425124 93.4506782,86.2520609 94.0851132,86.1796479 L94.1049879,86.1774012 L94.1243442,86.1822402 C96.7180792,86.8348218 99.8632941,87.9993065 100.35515,89.8735774 C100.56755,89.7275415 101.006867,89.4484316 101.561285,89.2199589 L101.776277,89.1314733 L101.708185,89.3537243 C100.903519,91.9787404 100.425316,94.1269365 100.26459,94.8889153" id="path34" fill="#C1C0C1"></path>
                        <path d="M131.396497,69.6601408 L129.2801,70.9881166 L127.163531,69.6601408 L127.820606,72.1685011 L125.855257,73.6862371 L128.326288,73.8210394 L129.2801,76.1742042 L130.28265,73.8549128 L132.704598,73.6862371 L130.788504,72.0336988 L131.396497,69.6601408 Z M100.660875,5.85850925 C91.2924583,8.90561222 83.7566624,11.9773425 77.9658654,14.646446 C83.8335689,15.54359 91.4265693,16.314884 100.262171,16.3368153 L100.262171,16.3366771 C100.317647,16.3368153 100.373123,16.3370227 100.4286,16.337161 L100.4286,16.3366771 C100.496001,16.3368153 100.563402,16.337161 100.63063,16.3373511 C100.698204,16.337161 100.765433,16.3368153 100.832834,16.3366771 L100.832834,16.337161 C100.88831,16.3370227 100.943787,16.3368153 100.999263,16.3366771 L100.999263,16.3368153 C109.857504,16.3146766 117.467269,15.5398052 123.341194,14.6394984 C117.552471,11.9718122 110.021341,8.90317541 100.660875,5.85850925 Z M79.4035841,79.3437872 C79.5090064,79.4072134 79.7163946,79.6899526 79.7220978,79.8627761 C79.7276282,80.0355996 79.9325968,80.4951373 79.9680257,80.5511321 C80.0034545,80.607127 80.1761051,80.6072998 80.3155737,80.6010781 C80.3155737,80.6010781 80.5507865,81.2507217 80.7507433,81.4935387 C80.9507001,81.7363557 81.1999116,81.4838606 81.6813978,82.2565544 C81.6813978,82.2565544 81.6813978,82.618274 81.8137806,82.9984857 C81.8137806,82.9984857 81.9487558,83.6171938 81.9316463,83.7822403 C81.9145367,83.9474596 81.9382135,84.1909679 81.7939059,84.309352 C81.7939059,84.309352 81.8659733,84.4526226 82.1417996,84.5376518 L82.4319703,82.5726486 L84.1189005,82.7548046 L84.2533572,81.6084663 C84.2533572,81.6084663 84.7434846,82.1984857 84.8076021,82.2411731 C84.8717196,82.2840334 84.9781789,82.2705531 85.0158544,82.3014885 C85.0537028,82.3322511 85.213046,82.657505 85.2617823,82.6815274 C85.3103457,82.7057227 85.8208663,82.6085959 85.8448888,82.6177555 C85.8689112,82.6269152 86.3106481,82.941454 86.379259,82.934541 C86.4316245,82.9293563 86.9609829,82.7280169 87.0740095,82.2835149 C87.1092655,82.1447376 86.9998682,82.0147744 87.0111017,81.7909679 L86.0889155,82.3970599 C86.0889155,82.3970599 86.0203046,82.0571161 86.0291186,81.9115987 C86.037587,81.766427 85.9461633,81.5958502 85.7992634,81.454999 C85.527412,81.1943812 85.1985289,80.8827804 85.1985289,80.8827804 C85.1985289,80.8827804 85.0213848,80.6131758 84.9906222,80.4776822 C84.9598596,80.3418429 84.8853727,80.0357725 84.7462498,79.9166971 C84.7462498,79.9166971 84.4483021,79.9650877 84.1185548,80.1944244 C84.1185548,80.1944244 83.9806417,79.5822836 83.664029,78.9578723 C83.6381055,78.9065437 83.2896933,78.5052476 83.2527091,78.4165891 C83.2157249,78.3279306 83.3325535,78.1195055 83.3785246,77.9573971 C83.3240852,77.844889 82.8353403,77.461048 81.7621064,77.0706397 C81.7621064,77.0706397 81.5773581,77.1012294 81.4622576,77.1646557 C81.4622576,77.1646557 81.1803825,77.0293349 81.0436791,76.9555392 C80.5544158,77.0443705 79.6075158,77.8839471 79.177531,78.550873 C79.0594925,78.733893 79.0435928,78.9276282 79.0268289,79.161804 C79.0268289,79.161804 79.2981618,79.2807066 79.4035841,79.3437872 L79.4035841,79.3437872 Z M90.0113177,102.720067 C90.0113177,102.720067 89.6063922,102.626742 89.2069971,102.393776 C88.9384294,102.690859 88.6814409,102.866967 88.6814409,102.866967 C89.5749384,103.305247 90.0113177,102.720067 90.0113177,102.720067 Z M79.2383648,87.5879866 C79.2338714,87.8658868 79.7030872,88.5710066 80.0831261,89.0956988 C81.467788,89.3908813 83.5803824,89.8333095 83.8677879,89.847481 C84.4094168,89.873923 86.0661028,89.7287513 86.11,89.8205205 C85.1076237,90.3339792 84.1944243,90.4440677 83.6344762,90.5560574 C83.3173451,90.6193108 80.8041457,90.4226376 79.8456666,90.3350161 C79.6647204,90.4775955 79.4825644,90.6422963 79.448691,90.7518664 C79.3780062,90.9812032 80.0879652,92.2618253 80.2263968,93.6354265 C80.2360749,93.7313435 81.888786,94.599436 82.0457098,94.575932 C82.2029792,94.5520823 83.4924153,94.0534865 83.7067164,93.9824561 C83.9210176,93.9114256 85.5222273,94.8180577 85.5222273,94.8180577 C87.370229,94.0479562 88.5627111,92.1539834 89.117993,91.3558845 C89.1442622,91.5114257 88.9971894,91.9695808 88.8177986,92.3611988 C87.4759969,95.2919397 85.2222057,97.0877487 84.3292267,97.3039509 C84.9199374,96.58224 84.7894556,95.8769473 84.7894556,95.8769473 C84.7894556,95.8769473 83.852061,95.3681549 83.5891964,95.3299609 C83.3265047,95.2919397 82.1739448,96.0642879 81.8282978,96.116135 C81.55299,96.1576126 80.5492311,95.6144284 80.0661894,95.3650441 C79.2839902,95.6928902 77.3678961,96.4973836 77.5077103,96.6963035 C77.6235021,96.8610043 79.6830397,101.307234 80.932208,104.060831 C82.2123116,104.740028 84.0703371,105.384486 86.9084446,106.112765 C88.3867768,106.491939 89.7818081,106.781764 91.0975134,106.954415 C89.8170641,106.029809 85.9489285,103.258066 85.3915727,103.114623 C84.7220545,102.942318 83.3216657,103.055344 83.3216657,103.055344 C83.1398553,102.994683 84.8976432,102.139725 85.4662325,101.934411 C85.8357291,101.800991 86.7458177,102.068003 87.3380838,102.271417 C87.5466818,101.951175 87.8605292,101.593257 88.3340656,101.262992 C88.0860639,100.653962 87.8783301,99.9011425 87.8783301,99.9011425 C87.8783301,99.9011425 91.0676149,102.729918 94.9231344,103.250289 C94.4148605,103.48602 92.8855453,104.022983 91.0686519,104.183882 L96.0067377,106.838278 C97.9378675,105.682261 100.135145,104.779777 100.135145,104.779777 C100.135145,104.779777 100.534195,104.200473 101.036938,103.549447 C100.933244,101.021039 100.938429,97.3426634 101.326072,94.2833418 C100.644802,94.7001921 100.095915,95.1654329 100.095915,95.1654329 C100.095915,95.1654329 100.585696,92.6404816 101.603108,89.3215791 C100.835081,89.6378461 100.283428,90.0600539 100.283428,90.0600539 C99.9561003,88.1740311 96.8198723,86.973599 94.0975565,86.2888723 C91.7117281,86.5607237 89.3599459,88.5701425 89.3599459,88.5701425 C89.3599459,88.5701425 89.3896716,88.1665997 89.3965845,87.8472218 C88.3985288,88.6838604 86.8721516,89.4980319 86.8182307,89.4375437 C89.0101512,86.979475 89.2716331,84.9458609 89.2716331,84.9458609 C89.2716331,84.9458609 87.4822186,84.2412595 86.0425988,84.4078614 C84.4636833,85.1309549 82.5583043,86.9903629 82.5583043,86.9903629 L80.0698187,86.579043 C79.6171939,86.9998682 79.2413028,87.4035839 79.2383648,87.5879866 L79.2383648,87.5879866 Z M70.2384083,105.675176 C70.2384083,105.675176 72.9804259,103.788116 78.3446945,106.355063 C83.7089631,108.922183 88.2117066,113.968803 99.7870789,115.926201 C111.362106,117.883428 117.600343,114.34383 118.303562,113.115573 C115.673706,114.471373 111.230414,116.19667 100.327671,114.587165 C89.4249276,112.977833 84.3508296,107.680619 78.6435064,105.293408 C75.2905576,103.890946 71.1840985,103.524214 70.2384083,105.675176 Z M111.142793,118.321362 L111.425705,117.920239 C108.324905,118.734065 103.828729,119.153507 97.9613715,118.164439 C90.6146445,116.926331 85.065282,113.815335 81.2140831,111.397362 C81.3666862,112.165216 82.0479565,115.079366 81.0084231,118.644715 C81.0084231,118.644715 97.5189433,124.237629 111.142793,118.321362 L111.142793,118.321362 Z M86.0410434,131.647091 C86.0410434,131.647091 87.6548693,127.561371 88.7009699,123.14694 C87.3418859,122.95718 86.3149687,122.729571 85.2242796,122.504382 C85.0156816,123.260658 83.8406546,127.249597 81.5581747,130.029809 C81.5581747,130.029809 83.3211472,131.149532 86.0410434,131.647091 L86.0410434,131.647091 Z M108.215163,93.118857 C108.696822,93.515487 109.362019,94.6611339 109.967938,95.8480857 C110.738904,94.8508942 112.436204,92.7123762 114.47362,90.4921127 C112.825575,89.4776387 110.545342,88.5238258 107.951952,87.714839 C106.685847,89.5153142 105.720283,91.2245387 104.98561,92.8037998 C106.076645,92.7374356 107.722961,92.7134131 108.215163,93.118857 Z M106.356964,100.483558 C106.85556,99.132942 106.312376,97.310691 106.312376,97.310691 C107.151088,98.1044694 107.89976,100.40596 107.901661,101.666189 C108.418921,101.566988 108.986992,101.427692 109.568371,101.252968 C109.258325,99.0019418 107.367463,95.2629054 107.012311,95.0152493 C106.495396,94.6549123 105.104167,94.7594705 104.112678,94.8925446 C102.915011,98.1258995 102.701056,100.624236 102.695007,101.954286 C103.111857,102.109481 103.800386,102.266923 104.536442,102.01944 C105.226871,101.143052 104.705981,100.006565 104.705981,100.006565 C105.501142,100.317993 105.949274,100.451585 106.356964,100.483558 L106.356964,100.483558 Z M100.154502,106.999522 C98.5693646,107.733503 97.4264828,108.651196 97.4264828,108.651196 C110.169624,110.928837 114.871978,104.232272 114.871978,104.232272 C108.687144,108.766815 102.001639,107.499846 100.154502,106.999522 L100.154502,106.999522 Z M114.345558,96.1863013 L114.316351,96.0627325 C114.313413,96.0535729 114.311512,96.0463143 114.308919,96.0380188 C113.091378,97.3099997 112.122875,98.4153788 111.503648,99.1455581 C111.528016,99.203454 111.767722,99.7786106 111.872281,100.370877 C112.487532,100.074657 113.061652,99.7383427 113.544175,99.364007 C112.847696,102.074571 109.055258,104.41391 103.771525,104.714968 C103.573123,104.726202 102.13696,105.845061 101.757094,106.449079 C105.693668,106.767074 115.875046,104.729831 114.345558,96.1863013 L114.345558,96.1863013 Z M118.324646,90.2731453 L119.21607,89.220823 C114.260874,83.6101081 100.36863,75.7255544 90.750311,71.9408926 C91.4419506,73.137004 92.689045,76.8139968 93.1036486,80.6607022 C103.885588,83.1419292 113.128016,86.8018125 118.324646,90.2731453 Z M74.1582181,69.6601408 L72.0418215,70.9881166 L69.9252521,69.6601408 L70.5821542,72.1685011 L68.6169782,73.6862371 L71.0880086,73.8210394 L72.0418215,76.1742042 L73.0441978,73.8549128 L75.466492,73.6862371 L73.550225,72.0336988 L74.1582181,69.6601408 Z M196.56772,45.8198304 C196.194422,46.6196575 195.75545,47.3748962 195.257718,48.0758683 C196.114923,47.9699275 196.543525,47.916525 197.40073,47.8083375 C197.40073,51.1688905 197.40073,53.0837749 197.40073,56.444155 C197.40073,57.6805343 197.198526,58.7639648 196.78375,59.7538978 C196.296387,60.9166543 195.518682,61.9337206 194.531859,62.6936256 C193.716133,63.3214933 192.765603,63.7910548 191.706195,64.086583 C190.966511,64.2925886 190.140414,64.4486482 189.25383,64.5509597 C187.845318,64.7135866 187.140198,64.7932583 185.729959,64.9491451 C184.096777,65.1300913 182.72283,65.0381492 181.545902,64.6918109 C181.545902,64.691638 181.544173,64.691638 181.544173,64.6914652 L181.544173,65.4430746 C168.30693,66.727326 155.040653,67.7027419 141.760377,68.3710504 L141.760377,81.3870794 C139.981677,80.9812898 137.718035,80.6223354 135.081785,80.3107347 C134.799046,80.5744633 134.538083,80.8103674 134.399305,80.9228755 C129.865799,84.4830396 125.555581,88.1569215 125.555581,88.1569215 L124.770444,87.5387319 C121.365475,90.4950507 118.522183,93.5453854 118.521665,93.5460767 L118.521492,93.5460767 L118.521492,93.5460767 L118.521492,93.5460767 C118.521492,93.5460767 118.011317,93.2375868 117.484378,92.931862 C116.722572,93.6266125 116.002071,94.3199804 115.336355,94.9867334 C121.641993,98.0692134 126.336052,103.931214 125.512203,108.59451 C124.864287,112.261652 121.590664,115.031494 117.113845,116.268046 C116.63063,117.491118 115.080403,123.059146 118.61378,128.735361 C118.097902,131.693926 107.239055,136.457806 95.1287943,136.147934 C83.0187061,135.837888 74.2715903,130.796627 73.6793241,128.107666 C76.77563,124.98993 80.8995443,115.828729 78.1360966,109.256251 C73.0257057,110.214903 67.4523206,107.796066 67.6362048,104.522097 C67.8278661,101.112462 74.3538543,100.655863 77.1625818,100.647222 C76.2417782,98.710907 75.1652606,96.3587792 75.1666432,95.9446941 C75.1683714,95.4602698 77.865455,94.3637047 78.060227,94.2622573 C78.8597085,93.8462711 77.3157034,90.8159839 77.3326401,90.6393583 C77.3495768,90.4625598 77.8070406,90.1195052 78.4727567,89.6240202 C77.917302,88.7151414 77.346466,87.603195 77.3996956,87.3774876 C77.4411733,87.2012076 78.8638563,85.4064355 79.4856753,84.6278657 C79.3652173,84.0461418 78.7961095,81.7061116 77.0630354,79.3970168 C69.6891752,79.8346059 63.4595793,80.4977297 59.5613725,81.3870794 L59.5613725,68.4870149 C41.9497937,67.6394885 24.3641385,66.2275205 6.83767535,64.2291624 C4.67373503,63.9649152 3.31942096,63.7597737 3.31942096,63.7597737 L6.99598168,55.7023965 C6.99598168,55.7023965 6.99598168,37.8671842 6.99598168,28.9498373 C10.7099241,29.3732548 14.4279279,29.7532937 18.1438751,30.1449118 C21.2275648,30.4698199 22.474832,31.4229415 22.474832,31.4229415 C22.474832,31.4229415 22.416072,30.9756743 22.3450416,30.5560589 C33.8435075,31.651587 45.3585644,32.5046438 56.8831267,33.1176488 C57.685719,32.3812478 58.3818521,31.4027212 58.9564902,30.3166983 C53.1057235,29.5106495 47.1666439,28.509483 47.1666439,28.509483 C47.1666439,28.509483 51.4763435,24.5912286 51.4763435,18.6072149 C51.4763435,15.3794077 50.4131333,12.640691 49.9779638,11.4118813 C49.1335481,9.02759105 48.073276,7.0931949 47.4858489,5.40972119 C49.9135006,6.5451543 55.260314,9.39119441 63.6474385,9.6274787 C63.8233728,9.62680468 64.0036277,9.63058952 64.1863021,9.63667291 C64.2284711,9.63679388 64.2704672,9.63767528 64.3126361,9.63767528 C65.864764,9.63767528 67.1671619,9.86146443 68.2201754,10.2638321 C69.838149,10.7677854 71.0833424,11.8428686 71.6355134,13.5193257 C71.862085,13.5657633 72.0952239,13.6128232 72.3319921,13.6596065 C79.0261376,10.3943138 88.4175394,6.3732122 100.660875,2.39116866 C112.89384,6.36975573 122.279539,10.3872281 128.972647,13.6511727 C129.194553,13.606878 129.412829,13.5628599 129.625747,13.5193257 C130.178091,11.8428686 131.423285,10.7677854 133.041258,10.2638321 C134.094272,9.86146443 135.39667,9.63767528 136.948798,9.63767528 C136.990967,9.63767528 137.032963,9.63679388 137.074959,9.63667291 C137.257806,9.63058952 137.438061,9.62680468 137.613995,9.6274787 C146.00112,9.39119441 151.347933,6.5451543 153.775585,5.40972119 C153.188331,7.0931949 152.127886,9.02759105 151.283297,11.4118813 C150.8483,12.640691 149.78509,15.3794077 149.78509,18.6072149 C149.78509,24.5912286 154.094963,28.509483 154.094963,28.509483 C154.094963,28.509483 148.155883,29.5106495 142.304944,30.3166983 C142.883038,31.4094613 143.58401,32.393864 144.392997,33.1318203 C144.377961,33.1411528 144.361543,33.1497939 144.346162,33.1589536 C156.75921,32.5131122 169.161888,31.5940368 181.544173,30.3948145 L181.544173,30.9969316 C181.544173,30.9967588 181.545902,30.996586 181.545902,30.9964131 C181.995243,30.7636199 182.472236,30.5678109 182.97688,30.4174544 C183.680272,30.208338 184.457978,30.0389709 185.289259,29.9157478 C186.934538,29.733419 187.758907,29.6399215 189.404186,29.4484331 C190.318423,29.3430107 191.170442,29.3134579 191.934322,29.36133 C192.959166,29.4252747 193.8855,29.6693015 194.683944,30.0882256 C195.66731,30.6051407 196.445016,31.4295088 196.932378,32.4667955 C197.347154,33.3526887 197.551086,34.385482 197.551086,35.6239352 C197.551086,37.8346934 197.551086,38.9398997 197.551086,41.1506579 C197.551086,42.8491672 197.220993,44.4196144 196.56772,45.8198304 L196.56772,45.8198304 Z" id="path36" fill="#231F20"></path>
                        <path d="M17.5111683,57.4169785 C17.4043634,57.4169785 17.287189,57.4102384 17.1631882,57.3965853 C16.6308227,57.3386894 15.8262429,57.2505494 15.8262429,57.2505494 L15.8262429,37.7766247 C15.8262429,37.7766247 16.6285932,37.8649375 17.153078,37.9217964 C17.550572,37.9648295 18.0712892,38.0851146 18.2963054,38.4133064 C18.4995459,38.7109085 18.6027215,39.1115134 18.6027215,39.6037147 L18.6027215,56.0340448 C18.6027215,56.5170865 18.4981633,56.8960884 18.2919849,57.1603356 C18.1585651,57.3307395 17.8958734,57.4169785 17.5111683,57.4169785 L17.5111683,57.4169785 Z M10.4280836,56.9170001 L8.70193973,60.682997 L9.47681117,60.7751119 C13.1565864,61.2120097 15.0898592,61.4294217 18.8794119,61.8317548 C19.1339809,61.8588881 19.384575,61.8725411 19.6239356,61.8725411 C20.8044929,61.8725411 21.7978824,61.5429667 22.5769707,60.8931503 C23.5247348,60.1024828 24.0051841,58.9186419 24.0051841,57.3746367 L24.0051841,39.2143434 C24.0051841,37.6893488 23.5357955,36.4222069 22.6101528,35.4481737 C21.69246,34.4824359 20.4526242,33.9103902 18.9252102,33.7481089 C15.7953939,33.4159421 14.1786819,33.2356872 11.0624668,32.8720666 L10.4280836,32.7980981 L10.4280836,56.9170001 L10.4280836,56.9170001 Z" id="path38" fill="#D21C2E"></path>
                        <path d="M58.7757168,65.0279526 L59.3137164,65.0568141 C61.0123986,65.1482377 61.9492748,65.1954185 63.6716338,65.2775097 L64.2671835,65.3060256 L64.2671835,37.2209971 L63.7257275,37.1954192 C62.0192683,37.1140194 61.0839475,37.0666657 59.3747231,36.9752421 L58.7757168,36.9432698 L58.7757168,65.0279526" id="path40" fill="#D21C2E"></path>
                        <path d="M71.4740963,37.4517165 C70.8068248,37.4524078 70.1931285,37.4940583 69.6502899,37.5758038 C69.0651095,37.6630796 68.5651311,37.8509388 68.1640078,38.1341965 C67.7540705,38.42454 67.4367665,38.8222068 67.22091,39.3164821 C67.0119664,39.7939934 66.9058527,40.4059614 66.9058527,41.1354494 L66.9058527,46.0617833 L67.4499011,46.0854601 C69.1437442,46.1583916 70.0645478,46.1953758 71.7340228,46.2572466 L72.3235238,46.2788496 L72.3235238,42.3739026 C72.3235238,41.9905801 72.3947271,41.8229413 72.4322298,41.7880309 C72.4702509,41.766428 72.6406549,41.6934965 73.2543512,41.6934965 C73.3594278,41.6934965 73.4721088,41.6957432 73.5922211,41.6998909 C74.4134784,41.728234 74.6905144,41.8379769 74.7715687,41.8837751 C74.8484751,41.926981 74.9260729,42.1317769 74.9260729,42.4924595 L74.9260729,46.1400723 C74.9260729,47.0391001 74.7423615,47.7986594 74.3799506,48.3976657 C74.0021584,49.0205216 73.5300046,49.5711372 72.9769694,50.0336129 C72.4040595,50.5121612 71.7732538,50.9644403 71.1025258,51.3781797 C70.3963689,51.8121396 69.7313441,52.3067604 69.1259434,52.8485621 C68.5063712,53.4024614 67.9785682,54.0676591 67.5573973,54.8256629 C67.1251657,55.6038871 66.9058527,56.5891539 66.9058527,57.7543299 L66.9058527,61.70231 C66.9058527,63.2485618 67.3660817,64.3084883 68.2735779,64.853228 C69.1143642,65.3582183 70.2890456,65.6421673 71.7649582,65.6976436 C73.1815925,65.7503548 73.889996,65.7750686 75.3066302,65.8215581 C75.4810091,65.8272613 75.6515859,65.8301993 75.818015,65.8301993 C76.3382137,65.8301993 76.8212554,65.8018562 77.2531413,65.7456886 C77.8571594,65.6680908 78.3844439,65.4928478 78.8206504,65.2247985 C79.2758675,64.9444788 79.624971,64.5404175 79.8581099,64.0235024 C80.0813979,63.5278446 80.1945973,62.8942736 80.1945973,62.1402447 L80.1945973,57.0571599 L79.6413892,57.0421243 C77.9765805,56.9970174 77.1003653,56.9707482 75.5129815,56.9192468 L74.9260729,56.8998906 L74.9260729,60.9163087 C74.9260729,61.312593 74.8374144,61.4655418 74.7905792,61.4912925 C74.7093522,61.5317332 74.490212,61.5986159 73.9190303,61.5986159 C73.8248415,61.5986159 73.7249496,61.5967148 73.6197,61.5930855 C72.6456668,61.5586936 72.4548697,61.4403095 72.4363775,61.4268293 C72.3872957,61.376192 72.3235238,61.1729516 72.3235238,60.7977518 L72.3235238,58.1658227 C72.3235238,57.5821977 72.4972114,57.0637272 72.8397476,56.6247556 C73.2173669,56.1418867 73.6909033,55.6839044 74.2470493,55.264289 C74.8161571,54.8337856 75.4581964,54.3863456 76.154848,53.9344121 C76.8743122,53.4676159 77.545213,52.9261598 78.1487127,52.3255982 C78.7631002,51.7143215 79.2860641,50.9860432 79.7029144,50.1609838 C80.1289243,49.3176052 80.3449537,48.2891325 80.3449537,47.1044274 L80.3449537,41.5773591 C80.3449537,40.8236758 80.2324456,40.1857843 80.0103674,39.6813125 C79.7805122,39.1586942 79.4353836,38.7394244 78.9846599,38.4357735 C78.5529468,38.1459485 78.0310199,37.9352766 77.4337419,37.8099796 C76.8610048,37.6890032 76.2046211,37.6153804 75.4825645,37.592222 C73.8879221,37.5402021 73.0898232,37.5122047 71.4967362,37.4520621 L71.4740963,37.4517165" id="path42" fill="#D21C2E"></path>
                        <path d="M121.046616,37.8070416 C116.971956,37.9150563 114.861436,37.9567068 110.781937,38.0097636 L110.220779,38.0173678 L110.220779,62.2721091 C110.220779,62.8123553 109.668608,63.9329429 108.779604,65.195937 L108.139639,66.1056799 L109.251585,66.091854 C110.56176,66.0754358 117.289433,65.9886784 121.076342,65.8908603 L121.630241,65.8766888 L121.630241,60.3261164 L118.315486,61.6001713 L118.29734,61.6003441 C117.963791,61.6076027 116.727757,61.6342175 115.685458,61.6547835 L115.64087,61.6556476 L115.64087,55.439532 L115.68373,55.4386679 C117.301704,55.4077325 118.209891,55.3876849 119.908401,55.3449975 L120.462473,55.3309988 L120.462473,50.9715261 L119.879712,50.9860432 C118.207472,51.0282122 117.266621,51.0491238 115.685458,51.0793679 L115.64087,51.0800592 L115.64087,42.2899104 L115.683557,42.2890463 C116.654653,42.2691716 118.112246,42.2363351 118.52201,42.2270026 L118.533071,42.2268298 L121.630241,43.8112756 L121.630241,37.7916603 L121.046616,37.8070416" id="path44" fill="#D21C2E"></path>
                        <path d="M134.931602,37.3155316 C130.832228,37.4980332 128.714795,37.5778777 124.633049,37.703866 L124.082261,37.7209755 L124.082261,65.8056583 L124.668133,65.7875119 C126.431969,65.7328996 127.385609,65.7004088 129.104166,65.6368098 L129.651498,65.6162438 L129.651498,42.0294654 L130.914147,41.9988756 C132.266318,41.9653478 133.33454,41.9390787 134.963747,41.9197224 L135.525423,41.9128095 L135.525423,37.2892624 L134.931602,37.3155316" id="path46" fill="#D21C2E"></path>
                        <path d="M152.245751,36.3522134 C150.386689,36.476992 149.351649,36.5428377 147.430716,36.6594936 L147.007125,36.6848986 C147.007125,36.6848986 145.174851,44.5881173 144.118726,49.1392513 L144.092457,49.2526235 L143.051887,47.305594 L143.051887,36.9121615 L142.452708,36.944998 C140.759901,37.0365945 139.840653,37.0839481 138.176709,37.1648295 L137.635944,37.1909258 L137.635944,62.1765377 L136.04061,65.2790651 L137.008422,65.245883 C137.635425,65.2244529 140.847523,65.1131546 142.51285,65.0267428 L143.051887,64.9989182 L143.051887,56.5706618 L143.134151,56.549923 C144.672625,59.3825001 145.678458,61.2308475 147.414816,64.4178856 L147.587639,64.7353624 L147.948668,64.7130682 C149.578048,64.6136946 150.445967,64.5583911 152.002589,64.4545242 L152.897987,64.3945544 L152.461781,63.6106271 C150.55692,60.1882033 149.511856,58.3070195 147.66662,54.9798215 L147.632746,54.9191604 L148.121146,54.8899533 L148.226568,54.492632 C150.064891,47.5437448 151.005051,43.9877284 152.833524,37.0645919 L153.035727,36.2989838 L152.245751,36.3522134" id="path48" fill="#D21C2E"></path>
                        <path d="M159.741452,35.8143867 C158.055559,35.9438315 157.121275,36.0129609 155.395287,36.1349743 L154.867138,36.1726498 L154.867138,64.2590608 L155.475822,64.215855 C157.187294,64.0941872 158.12296,64.0250578 159.828382,63.8942304 L160.35342,63.8539625 L160.35342,35.7672058 L159.741452,35.8143867" id="path50" fill="#D21C2E"></path>
                        <path d="M177.683296,34.2287311 C176.300708,34.3671627 175.531644,34.4421681 174.126589,34.5764519 L173.751562,34.6118808 L173.637498,34.969971 C171.952296,40.2578517 170.972733,43.328234 169.494746,47.9538549 L169.409371,47.9403747 L169.409371,35.01214 L168.79049,35.0670978 C167.14763,35.2129609 166.230283,35.2914228 164.52296,35.4326196 L164.001378,35.4761711 L164.001378,59.5128091 L162.239789,63.70568 L163.17269,63.6303289 C165.410063,63.4499012 166.594422,63.3494907 168.933416,63.1417569 L169.3138,63.1082291 L169.426481,62.7433987 C170.808723,58.2639864 171.633091,55.5900613 172.818315,51.7424917 L172.902998,51.7554534 L172.902998,62.780383 L173.525163,62.7214501 C175.196366,62.5636623 176.114059,62.4741397 177.79736,62.305464 L178.308918,62.2539626 L178.308918,34.1659961 L177.683296,34.2287311" id="path52" fill="#D21C2E"></path>
                        <path d="M190.819611,32.8006905 C190.392737,32.8006905 189.922657,32.8298976 189.421469,32.887275 C187.833221,33.0708136 187.038233,33.1608546 185.449985,33.3360977 L185.429246,33.3390357 C184.767332,33.4375451 184.157265,33.5695822 183.616327,33.7309994 C183.040825,33.9029588 182.551734,34.1599473 182.161153,34.4948792 C181.763659,34.8349959 181.456033,35.2684372 181.246917,35.78276 C181.039529,36.2849851 180.935835,36.9080138 180.935835,37.6347366 L180.935835,42.621213 L181.563184,42.5550216 C183.260311,42.3770134 184.178004,42.2779855 185.830196,42.0946198 L186.336569,42.0384522 L186.336569,38.1896728 C186.336569,37.6836456 186.452361,37.5571388 186.476556,37.5370913 C186.505936,37.5104765 186.70814,37.372909 187.655212,37.2657584 C187.928274,37.2346502 188.165042,37.2189232 188.358604,37.2189232 C188.643763,37.2189232 188.766468,37.2522782 188.81313,37.2718072 C188.852879,37.3075817 188.923737,37.4596664 188.923737,37.8079057 L188.923737,41.4551729 C188.923737,42.3602495 188.738816,43.1543735 188.37243,43.8150778 C187.992218,44.5010142 187.516954,45.1285364 186.958734,45.6796705 C186.386688,46.2460131 185.755882,46.7938636 185.083599,47.3081863 C184.383664,47.8442848 183.725206,48.4337858 183.127237,49.0609623 C182.515442,49.6985082 181.995243,50.4342178 181.578738,51.2480437 C181.151864,52.081917 180.935835,53.0932802 180.935835,54.25379 L180.935835,58.2014243 C180.935835,59.7678965 181.407643,60.7766673 182.339162,61.1997392 C182.931946,61.4693439 183.694098,61.6058745 184.603149,61.6058745 C184.986818,61.6058745 185.401594,61.5815063 185.835381,61.5332886 C187.247349,61.3768833 187.952469,61.2972117 189.362709,61.1345848 C190.079926,61.0516295 190.729742,60.9297889 191.296604,60.7721739 C191.892845,60.6062633 192.411315,60.356879 192.836461,60.0307611 C193.275433,59.6932368 193.614167,59.2497717 193.840565,58.7128091 C194.060051,58.1907093 194.170658,57.5453863 194.170658,56.7944682 L194.170658,51.6500311 L193.53294,51.7272832 C191.942963,51.9199814 191.061564,52.0243668 189.426653,52.2130901 L188.923737,52.2715044 L188.923737,56.2315821 C188.923737,56.5678966 188.859792,56.8110593 188.750913,56.8817441 C188.667958,56.935665 188.386256,57.070813 187.567072,57.1636192 C187.254262,57.1988752 186.993298,57.2165032 186.789367,57.2165032 C186.583707,57.2165032 186.483469,57.1988752 186.441991,57.1881602 L186.421253,57.1829755 L186.412611,57.1644833 C186.383231,57.1041679 186.336569,56.9520833 186.336569,56.613522 L186.336569,53.9815929 C186.336569,53.3900181 186.512849,52.8361188 186.861953,52.3349306 C187.240436,51.7919192 187.717429,51.2587587 188.277377,50.7501392 C188.844238,50.2358164 189.485413,49.6924593 190.181892,49.1352764 C190.892197,48.5668599 191.555839,47.9306966 192.153808,47.2440688 C192.75869,46.5503553 193.273704,45.7517379 193.686753,44.8708565 C194.106714,43.9716558 194.321015,42.916914 194.321015,41.7361839 L194.321015,36.2094612 C194.321015,35.4521486 194.206951,34.8261819 193.984009,34.3493619 C193.747241,33.8445444 193.392953,33.465024 192.929786,33.2208244 C192.49427,32.991142 191.967159,32.8553027 191.365733,32.8174544 C191.192909,32.8062208 191.009717,32.8006905 190.819611,32.8006905" id="path54" fill="#D21C2E"></path>
                        <path d="M33.4435939,55.0045352 C33.1731251,52.3069332 32.3988758,44.5751555 32.3988758,44.5751555 L34.5864757,44.712723 L34.5819823,44.7578299 C34.2187073,48.3162658 33.8073874,52.3167842 33.5306969,55.0045352 L33.4435939,55.0045352 Z M29.0974285,58.8586721 L29.0884417,58.8721523 C28.3145381,60.035773 27.8774674,60.6919838 27.1244755,61.8215582 L26.597191,62.612917 L27.5437453,62.7026124 C31.2884849,63.0588016 33.2493403,63.2324892 37.080146,63.5475465 L37.6300703,63.5928262 L40.7626691,35.7559723 L40.1764518,35.7100013 C38.5284069,35.5807293 37.6542656,35.5098717 36.0613514,35.3759334 L35.492935,35.328407 L35.082652,40.4519325 L32.0029372,40.2495561 L31.5198955,34.9822415 L31.0480874,34.9395541 C29.4048815,34.7912715 28.5144949,34.7084891 26.9055081,34.5541577 L26.203499,34.4869294 L29.0974285,58.8586721 L29.0974285,58.8586721 Z" id="path56" fill="#D21C2E"></path>
                        <path d="M42.3920491,59.9336343 L40.3786553,63.8124849 L41.2358598,63.8786763 C43.3287524,64.0399206 44.481658,64.1246041 46.5989187,64.2727139 L47.1372639,64.3102166 L49.1923081,47.4882684 L49.2790655,47.4891325 L51.0228546,64.569279 L51.5036496,64.6000416 C53.2391432,64.710303 54.1483676,64.7656065 55.7336776,64.857203 L56.4298106,64.8974708 L56.3288817,64.2073866 C55.0036711,55.1453864 53.678979,46.0825221 52.3549782,37.0201762 L52.2884411,36.5639222 L51.8285578,36.5348878 C49.8314094,36.4090723 48.7956782,36.3401157 46.7909256,36.1999559 L46.2738377,36.1640086 L42.3920491,59.9336343" id="path58" fill="#D21C2E"></path>
                        <path d="M92.8874464,41.8381497 C90.3308683,41.7050756 88.1660812,43.8368535 88.0822618,46.6782447 C88.0120954,49.0467907 89.1926528,51.1854815 91.4982911,52.8017269 C93.7118145,50.2541357 96.0642879,47.0302861 97.8455798,44.4958295 C96.3131538,42.9127663 94.4563381,41.9198953 92.8874464,41.8381497 Z M93.1950722,63.9033901 C94.3823696,63.9535089 95.3856101,62.4960883 95.4438516,60.5288384 C95.4922422,58.8897803 94.9464655,57.243118 93.8402223,55.9972334 C93.3680685,56.5504414 92.9831906,57.0203485 92.6664051,57.4404825 C92.5798205,57.5586937 92.503951,57.6620422 92.439315,57.7505278 C91.6044047,58.9233081 91.3529465,59.7148397 91.3176905,60.9047295 C91.2660163,62.6533577 92.0076019,63.8527528 93.1950722,63.9033901 L93.1950722,63.9033901 Z M104.862905,40.9173461 C104.695612,41.1012303 103.066578,43.2962616 101.028989,46.0591909 C104.358433,51.14193 104.84303,54.7580889 105.724776,55.755799 C105.802719,55.8441118 106.042426,56.1004091 106.402417,56.2514568 L106.377876,57.0810096 L102.095828,57.0784172 C102.095828,57.0784172 102.050548,56.7230921 102.10084,56.2009923 C103.553594,56.0438958 103.73817,55.4626903 103.762365,54.6429885 C103.777746,54.1162225 102.762581,51.0543085 100.080879,47.345689 C98.1974484,49.9026127 96.1204556,52.7313878 94.5683277,54.8469202 C94.7233504,54.9454296 94.8597081,55.0335696 94.9639207,55.1044272 C98.1022227,57.2132196 99.1550634,58.6813552 99.0823047,61.1399423 C99.0015961,63.8719362 96.8459686,65.6836449 93.6032813,65.5609402 C89.8123978,65.4173239 87.5077965,63.0062633 87.6095895,59.5643105 C87.6757809,57.3239994 88.2540483,56.300193 90.0956556,54.3049457 C90.2657139,54.1207159 90.3509159,54.0282553 90.5208014,53.8436798 C88.9014452,52.9600332 88.0005163,52.4292923 87.1526442,51.8439391 C85.0061763,50.3631873 83.7096544,47.8503336 83.7824131,45.3915737 C83.9099569,41.0753068 87.0083366,38.1450844 90.8852861,38.4285149 C93.5248194,38.6215588 96.12685,40.1365296 98.8130457,43.1082296 C99.648993,41.9001934 100.27496,40.9757605 100.571698,40.5616754 C101.591183,39.1391651 102.94249,38.8016409 104.318511,38.8016409 C105.694705,38.8016409 106.386517,39.0857627 106.386517,39.0857627 L106.386517,39.8133496 C105.812743,40.0269595 105.337133,40.395592 104.862905,40.9173461 L104.862905,40.9173461 Z" id="path60" fill="#D21C2E"></path>
                        <path d="M98.6479993,67.9460774 C97.2009481,68.6365072 95.4934519,69.0011648 93.7021363,69.0011648 C93.5471137,69.0011648 93.391054,68.9985725 93.2343031,68.9930421 C93.0061761,68.9852651 92.7783947,68.9717848 92.5514775,68.9529471 C99.7051606,72.1389483 107.756662,76.7827157 113.247437,80.8890021 C113.215292,80.8475244 113.183493,80.8039729 113.148409,80.7616312 C110.158044,77.1491015 103.192912,71.5095251 98.6479993,67.9460774" id="path62" fill="#D21C2E"></path>
                        <path d="M139.956791,31.9291416 C126.699846,34.1077546 113.705938,35.2091588 100.717733,35.2395757 C100.717733,35.2395757 100.697167,35.2395757 100.632186,35.2395757 C100.567031,35.2395757 100.5437,35.2395757 100.5437,35.2395757 C87.5554958,35.2091588 74.5614153,34.1077546 61.3044703,31.9291416 C61.3044703,31.9291416 63.6581535,29.7284071 63.6581535,24.0720668 C63.6581535,18.4160721 61.3044703,15.072646 61.3044703,15.072646 C64.8139971,17.7123348 79.5769261,20.0511553 100.5437,20.052365 C100.5437,20.052365 100.601769,20.0521922 100.63063,20.052365 C100.659665,20.0521922 100.717733,20.052365 100.717733,20.052365 C121.684508,20.0511553 136.447609,17.7123348 139.956791,15.072646 C139.956791,15.072646 137.60328,18.4160721 137.60328,24.0720668 C137.60328,29.7284071 139.956791,31.9291416 139.956791,31.9291416" id="path64" fill="#D21C2E"></path>
                        <path d="M149.377745,26.6364219 C146.688266,27.0873184 144.010539,27.489133 141.340934,27.8479146 C140.820044,26.2804055 140.539551,24.6938858 140.539551,23.4094615 C140.539551,19.9306973 142.0305,15.9120497 144.493753,13.6296907 C144.711511,13.2105938 144.567203,12.5912116 144.065842,11.9642425 C146.225963,11.4559686 147.862429,10.9017236 148.948797,10.3253227 C148.274958,11.6132034 147.04411,14.5344563 147.04411,18.6893061 C147.04411,24.4102824 149.377745,26.6364219 149.377745,26.6364219" id="path66" fill="#D21C2E"></path>
                        <path d="M57.1955916,11.9642425 C56.6942306,12.5912116 56.549923,13.2105938 56.7675078,13.6296907 C59.2309339,15.9120497 60.7218823,19.9306973 60.7218823,23.4094615 C60.7218823,24.6938858 60.4413897,26.2804055 59.9204997,27.8479146 C57.2508951,27.489133 54.572995,27.0873184 51.8836885,26.6364219 C51.8836885,26.6364219 54.2173242,24.4102824 54.2173242,18.6893061 C54.2173242,14.5344563 52.9864752,11.6132034 52.3126364,10.3253227 C53.3990049,10.9017236 55.0356435,11.4559686 57.1955916,11.9642425" id="path68" fill="#D21C2E"></path>
                        <path d="M17.5082303,58.1163952 C17.376366,58.1163952 17.2349618,58.1080996 17.087647,58.0921999 C16.4120281,58.0189227 16.0743483,57.9817657 15.3990404,57.9072787 L15.1265151,57.8773803 L15.1265151,36.9954625 L15.4662861,37.033138 C16.1713541,37.1110814 16.5238795,37.149621 17.2286883,37.2263547 C18.0192694,37.3119023 18.5726502,37.5783961 18.8737088,38.0182319 C19.1581762,38.4343909 19.302311,38.9675514 19.302311,39.6037147 L19.302311,56.0340448 C19.302311,56.6769482 19.1478068,57.2007763 18.8434646,57.5908389 C18.5705763,57.9395967 18.1214081,58.1163952 17.5082303,58.1163952 L17.5082303,58.1163952 Z M11.1278113,57.0694304 L9.73813758,60.1017915 L9.79767528,60.1087045 C13.2982325,60.5238265 15.266191,60.7445221 18.9533804,61.1359674 C19.1835813,61.1606811 19.4106714,61.1731244 19.6279105,61.1731244 C20.6377182,61.1731244 21.479023,60.8981622 22.1288394,60.3558421 C22.9096559,59.7041247 23.3055946,58.7010571 23.3055946,57.3746367 L23.3055946,39.2143434 C23.3055946,37.8746156 22.9010148,36.769755 22.1030887,35.9303512 C21.3029159,35.0883551 20.2089431,34.5883768 18.8510689,34.4438963 C15.7732552,34.1170871 14.123603,33.9335485 11.1766858,33.5896298 L11.1278113,33.5839266 L11.1278113,57.0694304 L11.1278113,57.0694304 Z" id="path70" fill="#FFFFFF"></path>
                        <path d="M59.4754792,64.3648288 L59.516784,64.3669027 C61.0739237,64.4503764 62.0095902,64.4979029 63.521623,64.5697975 L63.567594,64.5720442 L63.567594,37.8880958 L63.5259435,37.8863676 C61.9746798,37.8122263 61.055086,37.7657368 59.5214502,37.6838185 L59.4754792,37.6812261 L59.4754792,64.3648288" id="path72" fill="#FFFFFF"></path>
                        <path d="M71.4735778,38.151306 C70.8405253,38.152343 70.2624307,38.1912283 69.753984,38.2677891 C69.2773368,38.3389923 68.8782873,38.486238 68.5677235,38.7057238 C68.263727,38.9208891 68.0262675,39.2207378 67.8620851,39.596629 C67.691854,39.9854818 67.6056151,40.5030882 67.6056151,41.1354494 L67.6056151,45.3915737 L67.6474384,45.3936476 C69.1871229,45.4596662 70.0904714,45.4961319 71.5784817,45.5512626 L71.6239343,45.5529909 L71.6239343,42.3739026 C71.6239343,41.7861299 71.7576997,41.4064366 72.0330075,41.2130471 C72.2473086,41.0614809 72.6240639,40.9937341 73.2543512,40.9937341 C73.3670321,40.9937341 73.4878357,40.9961537 73.6164164,41.0008199 C74.3533358,41.0263978 74.8294645,41.1131552 75.1154874,41.2742267 C75.4540487,41.4653695 75.6256624,41.875134 75.6256624,42.4924595 L75.6256624,46.1400723 C75.6256624,47.1688906 75.4079048,48.0501176 74.9786112,48.7599037 C74.5605512,49.4492967 74.0381057,50.0584995 73.4257921,50.5704027 C72.8271315,51.0707267 72.1688468,51.5427077 71.4696029,51.9739024 C70.7985292,52.3862592 70.1670322,52.8558207 69.5925668,53.3697978 C69.0312361,53.8716772 68.5523422,54.4758682 68.1690197,55.1654339 C67.7952025,55.8385815 67.6056151,56.7096119 67.6056151,57.7543299 L67.6056151,61.70231 C67.6056151,62.9855245 67.9514349,63.8439388 68.6335692,64.2531848 C69.3722169,64.6968228 70.4345629,64.9475896 71.7910546,64.9983998 C73.2063062,65.0511109 73.9143641,65.0759975 75.3296157,65.1223142 C75.497773,65.1276717 75.6616097,65.1304369 75.8211258,65.1304369 C76.3103891,65.1304369 76.7619769,65.1041677 77.1631003,65.051975 C77.6684362,64.9869934 78.1029144,64.8445868 78.4544374,64.6285575 C78.7879868,64.4230703 79.0454938,64.1228759 79.2202184,63.7357513 C79.4023743,63.3313443 79.4948349,62.7947273 79.4948349,62.1402447 L79.4948349,57.7382574 L79.4523203,57.7370476 C77.9567058,57.6964341 77.0946621,57.6705105 75.6707693,57.6243667 L75.6256624,57.6228113 L75.6256624,60.9163087 C75.6256624,61.5402015 75.4493824,61.9444357 75.1018344,62.1181233 C74.8550424,62.2411736 74.4791513,62.2983782 73.9190303,62.2983782 C73.8172373,62.2983782 73.7092226,62.2961315 73.5951591,62.2919838 C72.5124199,62.2541354 72.1842281,62.1058528 72.0317977,61.9974925 C71.757354,61.8015107 71.6239343,61.4092013 71.6239343,60.7977518 L71.6239343,58.1658227 C71.6239343,57.4226816 71.847395,56.7592122 72.2882678,56.1942522 C72.7030442,55.6635112 73.2203049,55.1626687 73.82536,54.7060691 C74.4091578,54.2641594 75.0648501,53.8073869 75.7742906,53.3475035 C76.4529685,52.9069764 77.0858481,52.3964558 77.6551288,51.8295947 C78.2161138,51.2718933 78.6950078,50.6042761 79.0783303,49.845581 C79.454567,49.1007117 79.6453642,48.1783527 79.6453642,47.1044274 L79.6453642,41.5773591 C79.6453642,40.9213211 79.5527308,40.3786553 79.3700563,39.9633604 C79.1939492,39.563274 78.9328129,39.2444147 78.593906,39.0161148 C78.2377168,38.7770999 77.7989179,38.6015112 77.2899527,38.4947063 C76.7571379,38.3820254 76.1413677,38.3134145 75.459579,38.2911202 C73.8651094,38.2396188 73.0663192,38.2116214 71.4744419,38.151306 L71.4735778,38.151306" id="path74" fill="#FFFFFF"></path>
                        <path d="M120.885717,38.5111246 C117.011879,38.6134361 114.879237,38.655605 110.963575,38.7072792 L110.920369,38.7077977 L110.920369,62.2721091 C110.920369,62.9265916 110.431797,64.0089852 109.544521,65.3196786 L109.497513,65.3889809 L109.581159,65.3879439 C111.341712,65.365304 117.359772,65.2845955 120.887964,65.1955914 L120.930479,65.1945544 L120.930479,61.3447382 L118.459794,62.2942305 L118.399479,62.2983782 C118.174981,62.3030445 116.44208,62.34072 115.253227,62.3630142 L114.941108,62.369063 L114.941108,54.7529042 L115.241302,54.7473739 C117.104512,54.7121179 118.067139,54.6912062 119.720196,54.6499014 L119.763056,54.6488645 L119.763056,51.6887436 L119.718122,51.6901262 C118.052622,51.7317766 117.09276,51.7525154 115.253227,51.787253 L114.941108,51.7933018 L114.941108,41.6036283 L115.241302,41.5979251 C116.272194,41.5785688 118.616718,41.5248207 118.616718,41.5248207 L118.694143,41.5232653 L120.930479,42.6673569 L120.930479,38.5099148 L120.885717,38.5111246" id="path76" fill="#FFFFFF"></path>
                        <path d="M134.780036,38.0228982 C130.873187,38.1962401 128.733114,38.2766031 124.824365,38.398098 L124.782023,38.3993077 L124.782023,65.0839474 L124.82713,65.0825648 C126.406218,65.0334829 127.360204,65.0008193 128.90974,64.9436147 L128.951909,64.9420593 L128.951909,41.3456028 L129.251066,41.3388627 C129.866663,41.3246911 130.401725,41.3115565 130.896519,41.2992861 C132.211533,41.2669681 133.24761,41.241563 134.782455,41.2218611 L134.825661,41.2215155 L134.825661,38.0208243 L134.780036,38.0228982" id="path78" fill="#FFFFFF"></path>
                        <path d="M152.049769,37.0664929 C150.429203,37.1748533 149.390189,37.2412175 147.603539,37.3499235 L147.570876,37.3518245 L147.563617,37.383624 C146.36837,42.5387762 144.379344,51.1113403 144.379344,51.1113403 L144.353075,51.2248853 L142.352297,47.4806642 L142.352297,37.650982 L142.306326,37.6535743 C140.803626,37.735147 139.900277,37.7814637 138.377184,37.8554322 L138.335533,37.8575061 L138.335533,62.3460775 L137.20786,64.5388621 L137.282347,64.5362697 C138.065065,64.5094821 140.740718,64.4147748 142.310647,64.3364858 L142.352297,64.3344119 L142.352297,54.3927401 L142.748063,54.4041464 L142.759988,54.4262678 C142.759988,54.4262678 145.984529,60.3302642 147.975974,63.9853084 L147.989281,64.0096765 L148.017106,64.0079483 C149.477464,63.9189442 150.326892,63.8646776 151.680618,63.7748094 L151.749748,63.7701431 L151.716047,63.7100006 C149.784745,60.2391862 146.515961,54.3483244 146.515961,54.3483244 L146.48226,54.2876634 L147.574332,54.2218176 C147.738687,53.60069 150.373554,43.6382793 152.094876,37.1214508 L152.11043,37.062518 L152.049769,37.0664929" id="path80" fill="#FFFFFF"></path>
                        <path d="M159.60665,36.5264195 C158.084075,36.6430753 157.165345,36.7108222 155.607341,36.8214292 L155.566555,36.8241944 L155.566555,63.5079699 L155.613563,63.5046862 C157.145125,63.3958074 158.063336,63.3280606 159.61339,63.2091581 L159.653658,63.2060472 L159.653658,36.5227902 L159.60665,36.5264195" id="path82" fill="#FFFFFF"></path>
                        <path d="M177.560592,34.9442203 C176.331817,35.0670978 175.578306,35.1407207 174.306325,35.2618699 L174.278674,35.2648079 L174.270032,35.2922869 C172.303474,41.4594935 169.233264,51.0539629 169.233264,51.0539629 L169.223413,51.0845526 L168.709609,51.0845526 L168.709609,35.776884 L168.662083,35.7808589 C167.173899,35.9127232 166.272452,35.9898025 164.741063,36.1168278 L164.700968,36.1202843 L164.700968,59.6541787 L163.331687,62.9155309 L163.403582,62.9098278 C165.386559,62.7494476 166.536872,62.6518023 168.754716,62.4554748 L168.783923,62.4528824 L168.792564,62.424885 C170.45962,57.0222496 173.068909,48.5519971 173.068909,48.5519971 L173.079278,48.5201975 L173.602934,48.5338506 L173.602934,62.0113184 L173.651324,62.006825 C175.160073,61.8642456 176.060484,61.7764513 177.569233,61.6250579 L177.608982,61.6212558 L177.608982,34.9392085 L177.560592,34.9442203" id="path84" fill="#FFFFFF"></path>
                        <path d="M190.819611,33.50028 C190.41866,33.50028 189.976232,33.5279318 189.502696,33.5821983 C187.912719,33.7659097 187.117731,33.8562964 185.526027,34.0315394 C184.903862,34.1245185 184.32836,34.2489514 183.816802,34.4013817 C183.336353,34.5451709 182.931946,34.7553243 182.617407,35.0259659 C182.304597,35.2933238 182.062644,35.6368969 181.893277,36.0473527 C181.722182,36.4659313 181.63577,36.9999559 181.63577,37.6347366 L181.63577,41.8441986 L181.684161,41.8390139 C183.203279,41.6793249 184.101961,41.5820253 185.596885,41.4164604 L185.636634,41.4121398 L185.636634,38.1896728 C185.636634,37.6136521 185.762795,37.226009 186.02203,37.0046221 C186.262255,36.7989621 186.740976,36.6650239 187.577442,36.5704895 C187.876426,36.5366161 188.139118,36.5195065 188.358604,36.5195065 C188.674871,36.5195065 188.911639,36.5544169 189.082735,36.6266571 C189.442207,36.7766679 189.623672,37.1739891 189.623672,37.8079057 L189.623672,41.4551729 C189.623672,42.4800162 189.409371,43.3878581 188.984225,44.1538118 C188.572905,44.8974713 188.057891,45.5783959 187.451281,46.1772293 C186.858496,46.7632738 186.205223,47.3304806 185.510473,47.8636411 C184.838189,48.377791 184.205655,48.9430966 183.631881,49.5440039 C183.068477,50.1335049 182.586299,50.813911 182.202631,51.5667302 C181.825876,52.3008844 181.63577,53.2049241 181.63577,54.25379 L181.63577,58.2014243 C181.63577,59.4689119 181.969319,60.2632087 182.627777,60.5627118 C183.130693,60.7911845 183.792607,60.9069762 184.594508,60.9069762 C184.952253,60.9069762 185.344562,60.8836451 185.759339,60.8378468 C187.16785,60.6814416 187.87297,60.6021156 189.28321,60.4396615 C189.962406,60.360854 190.577658,60.2459263 191.109954,60.0979894 C191.618055,59.9567926 192.055299,59.7473305 192.409587,59.4754792 C192.753506,59.2129603 193.016197,58.8648938 193.194206,58.4414762 C193.377398,58.0057881 193.470723,57.451716 193.470723,56.7944682 L193.470723,52.4396617 L193.422333,52.4455377 C191.977528,52.6204351 191.122052,52.7215368 189.661693,52.8902125 L189.623672,52.894706 L189.623672,56.2315821 C189.623672,56.8402665 189.457762,57.2564254 189.131125,57.4686527 C188.847695,57.6521913 188.375886,57.7762785 187.644843,57.8585425 C187.307837,57.8969093 187.019222,57.9162656 186.789367,57.9162656 C186.447176,57.9162656 186.224234,57.8770346 186.068693,57.7887218 C185.778349,57.6229841 185.636634,57.238279 185.636634,56.613522 L185.636634,53.9815929 C185.636634,53.2446735 185.85612,52.5559719 186.288179,51.9351899 C186.69777,51.3486269 187.209328,50.7758899 187.807297,50.2320143 C188.384528,49.7087047 189.036072,49.1560152 189.744649,48.5889813 C190.422117,48.0473524 191.054651,47.4402235 191.626696,46.7843583 C192.188373,46.1398995 192.668822,45.39624 193.05249,44.5741186 C193.429246,43.7684154 193.62108,42.8133928 193.62108,41.7361839 L193.62108,36.2094612 C193.62108,35.5554971 193.529483,35.0294223 193.349747,34.6460998 C193.18038,34.2823063 192.928057,34.0113191 192.603149,33.8398782 C192.255774,33.6565124 191.823715,33.5474608 191.322527,33.5156613 C191.161801,33.5054647 190.992434,33.50028 190.819611,33.50028" id="path86" fill="#FFFFFF"></path>
                        <path d="M33.0642463,58.2337423 L33.0172383,57.7648722 C32.8547842,56.1456888 32.1968452,49.5868642 31.6564261,44.1837103 L31.6206516,43.8251015 L35.35675,44.0599687 L35.3242592,44.3764085 C34.7561884,49.9421893 34.0488218,56.8018996 33.9245617,58.0054425 L33.8937991,58.3047728 L33.0642463,58.2337423 Z M29.8225959,59.0321869 L29.7600338,59.1256844 C28.9888954,60.2853301 28.5532073,60.939467 27.8689991,61.9662115 L27.8283856,62.0270453 L27.9011443,62.0339583 C31.4068689,62.3664707 33.3559724,62.5389485 36.968502,62.8363778 L37.0106709,62.8396614 L39.9865188,36.3971475 L39.9414118,36.3935182 C38.4654991,36.2773808 37.6062207,36.2079058 36.1776617,36.0877934 L36.1339373,36.084337 L35.7250369,41.1954191 L31.3607251,40.9085321 L30.8763008,35.6265275 L30.8400079,35.6234167 C29.3594289,35.4896513 28.4858062,35.4085971 27.0546548,35.2713752 L27.000561,35.2663633 C27.1462512,36.4927189 29.8225959,59.0321869 29.8225959,59.0321869 L29.8225959,59.0321869 Z" id="path88" fill="#FFFFFF"></path>
                        <path d="M43.0645053,60.1569222 L41.4874909,63.1961963 L41.5535094,63.201381 C43.4079056,63.3437876 44.5594286,63.4284711 46.4819172,63.5631006 L46.5233948,63.5662114 L48.9396402,43.7860434 L49.6081215,43.8238918 L51.6588451,63.9087476 L51.6960022,63.9111671 C53.2548701,64.0100222 54.1466394,64.0642887 55.5598171,64.1463799 L55.6133924,64.1494907 L55.6056154,64.0964339 C54.2975143,55.1519537 52.9899317,46.2062637 51.683386,37.2616106 L51.6782013,37.2265275 L51.6429453,37.2244536 C49.8134358,37.1088347 48.7942956,37.0410879 46.901187,36.9090507 L46.8614376,36.9064584 C46.6903423,37.9549785 43.1472878,59.6498581 43.0645053,60.1569222" id="path90" fill="#FFFFFF"></path>
                        <path d="M96.6339142,25.9071067 C96.8100213,27.5828034 96.9859557,29.2581544 97.16189,30.9336782 C97.1940352,30.9341967 97.2102806,30.9345423 97.2424257,30.934888 C97.4185329,29.2647217 97.5942944,27.5945554 97.7702287,25.9242162 C97.3157029,25.9185131 97.08844,25.9150566 96.6339142,25.9071067 Z M98.0661025,22.9753289 C98.7190297,22.9827603 99.0454933,22.9853526 99.6982477,22.9881178 C99.3280597,26.16928 98.957699,29.3506149 98.5873382,32.5319499 C97.1878135,32.5193338 96.4880512,32.5077546 95.0888721,32.4735356 C95.0888721,31.9789147 95.0888721,31.7316043 95.0888721,31.2369834 C95.3526008,31.2433779 95.4846379,31.2464887 95.7483666,31.2521919 C95.4008185,28.4723259 95.0534433,25.6926328 94.7062409,22.9127668 C95.3643528,22.9300491 95.6935815,22.9374805 96.3518662,22.949751 C96.4189218,23.6602284 96.4526223,24.0155535 96.5198507,24.7260309 C97.0789347,24.7362275 97.3585631,24.7403753 97.91782,24.7469426 C97.9770984,24.038539 98.0068241,23.684078 98.0661025,22.9753289 L98.0661025,22.9753289 Z" id="path92" fill="#FFFFFF"></path>
                        <path d="M75.9206721,26.5130259 C75.7077536,26.7001938 75.474269,26.8631663 75.2207369,27.0012523 C74.9672049,27.1393383 74.7338931,27.2769058 74.5211474,27.4148189 C74.3082289,27.5525593 74.1293565,27.7051624 73.9845304,27.8719371 C73.8397044,28.0388846 73.7672913,28.2409153 73.7672913,28.4776835 C73.7672913,28.8461432 73.7672913,29.030373 73.7672913,29.3986599 C73.7672913,29.5739029 73.8009919,29.6876208 73.8683931,29.7394678 C73.9357942,29.7913149 74.1046428,29.833311 74.3745931,29.864592 C74.6174101,29.8927623 74.7817653,29.8896514 74.8671401,29.8556052 C74.9526877,29.821559 74.9955479,29.7164823 74.9955479,29.5412393 C74.9955479,29.0360762 74.9955479,28.7834082 74.9955479,28.2782451 C75.6453643,28.3518679 75.9704453,28.3874696 76.6204345,28.4564262 C76.6204345,29.1141924 76.6204345,29.4430755 76.6204345,30.1008418 C76.6204345,30.346424 76.5839687,30.5444797 76.51121,30.6943177 C76.4384513,30.8445013 76.3311279,30.9559724 76.1902768,31.0283855 C76.0492528,31.1006257 75.8781575,31.1414121 75.6782007,31.1502261 C75.4780711,31.1588672 75.2502898,31.1486706 74.9955479,31.1198091 C74.4822621,31.0617404 74.2257921,31.0320148 73.7128519,30.9708353 C73.1988748,30.9098286 72.8003438,30.7834946 72.5160492,30.5949441 C72.2317545,30.4060481 72.0896936,30.0657586 72.0896936,29.5745942 C72.0896936,29.0220775 72.0896936,28.7457327 72.0896936,28.1933888 C72.0896936,27.8071283 72.1624523,27.4939721 72.3079697,27.2535746 C72.4531414,27.0133499 72.6328779,26.809591 72.8464877,26.6429892 C73.0600975,26.4763873 73.2920267,26.3291417 73.5422751,26.2012523 C73.7921779,26.0735357 74.0246255,25.9316477 74.2382353,25.7769706 C74.4516724,25.6224664 74.6315816,25.4346073 74.777099,25.2142573 C74.9226164,24.9940802 74.9955479,24.7128963 74.9955479,24.3710515 C74.9955479,23.860358 74.9955479,23.6052705 74.9955479,23.0949227 C74.9955479,22.9191612 74.9526877,22.8047521 74.8671401,22.7511768 C74.7815924,22.6976015 74.6174101,22.6571608 74.3745931,22.6288178 C74.1046428,22.5977095 73.9357942,22.6016845 73.8683931,22.6419523 C73.8009919,22.6820474 73.7672913,22.7855687 73.7672913,22.9523433 C73.7672913,23.4417795 73.7672913,23.6864976 73.7672913,24.1757609 C73.0960448,24.0960893 72.7605944,24.0547844 72.0896936,23.9701009 C72.0896936,23.3334192 72.0896936,23.0150783 72.0896936,22.3782237 C72.0896936,22.1414555 72.1239126,21.9504855 72.1920051,21.8058322 C72.2600976,21.6608333 72.3579157,21.5503991 72.4851138,21.474184 C72.6123119,21.3979688 72.7716551,21.3540716 72.9624523,21.3423196 C73.1534222,21.3307404 73.3670321,21.3345426 73.6036275,21.3542444 C74.1820677,21.423201 74.4713742,21.4569016 75.0501601,21.5222289 C75.304902,21.5510904 75.5325105,21.5939506 75.732813,21.6509824 C75.9329426,21.7078413 76.1036922,21.7878586 76.244889,21.8910342 C76.385913,21.9938642 76.4928907,22.1279753 76.5658222,22.293713 C76.6385809,22.4591051 76.6752195,22.664765 76.6752195,22.9103472 C76.6752195,23.684078 76.6752195,24.0706842 76.6752195,24.844415 C76.6752195,25.2389711 76.6026336,25.5688911 76.4576347,25.8341752 C76.3126358,26.0992865 76.1337635,26.3256852 75.9206721,26.5130259" id="path94" fill="#FFFFFF"></path>
                        <path d="M79.6405251,22.020479 C81.182802,22.1632312 81.9542861,22.2280401 83.4981185,22.3445231 C83.4981185,22.8445015 83.4981185,23.0944043 83.4981185,23.5942098 C82.6277793,23.5287097 82.1924369,23.4936265 81.3226162,23.4198309 C81.3226162,24.7334623 81.3226162,25.3903645 81.3226162,26.7041687 C82.0228971,26.76362 82.3732103,26.7921359 83.0740096,26.8464024 C83.0740096,27.346208 83.0740096,27.5962836 83.0740096,28.0960892 C82.3732103,28.0419954 82.0228971,28.0134795 81.3226162,27.9538554 C81.3226162,28.960898 81.3226162,29.4643328 81.3226162,30.4712025 C82.1924369,30.5453438 82.6277793,30.5802542 83.4981185,30.6459271 C83.4981185,31.1459055 83.4981185,31.3958082 83.4981185,31.8957866 C81.9542861,31.7793036 81.182802,31.7144948 79.6405251,31.5717426 C79.6405251,28.3879881 79.6405251,25.2042335 79.6405251,22.020479" id="path96" fill="#FFFFFF"></path>
                        <path d="M90.059017,27.7561453 C90.0346489,27.7551084 90.0225512,27.7545899 89.9981831,27.7533802 C89.3976214,29.5410664 89.0972542,30.4338726 88.4966925,32.217584 C87.5980103,32.1697119 87.1486692,32.1434427 86.2501599,32.0865838 C86.2501599,31.5919629 86.2501599,31.3446525 86.2501599,30.8500316 C86.4748304,30.8642032 86.5871657,30.8711161 86.8118362,30.8847692 C86.8118362,28.1133715 86.8118362,25.3418011 86.8118362,22.5702306 C87.4856751,22.6111898 87.8226809,22.6303732 88.4966925,22.6663205 C88.4966925,24.3872969 88.4966925,26.1082733 88.4966925,27.8290769 C88.5231345,27.8306323 88.5360963,27.8313236 88.5625383,27.8327062 C89.1534218,26.1411097 89.7436141,24.4491677 90.3329422,22.7570528 C90.8977294,22.7824578 91.180123,22.7943827 91.7449102,22.8163313 C91.7449102,26.0000858 91.7449102,29.1838403 91.7449102,32.3675948 C91.0703801,32.3413256 90.7332014,32.3269813 90.059017,32.2955274 C90.059017,30.4798437 90.059017,29.571829 90.059017,27.7561453" id="path98" fill="#FFFFFF"></path>
                        <path d="M101.304815,31.2392302 C102.033784,31.2369834 102.398269,31.2343911 103.127066,31.226614 C103.127066,28.4763009 103.127066,25.7263333 103.127066,22.976193 C103.801942,22.9687616 104.139293,22.9639225 104.813996,22.9514792 C104.813996,25.7016196 104.813996,28.4515871 104.813996,31.2017275 C105.542793,31.18842 105.907278,31.1801245 106.635901,31.1609411 C106.635901,31.6813127 106.635901,31.941412 106.635901,32.4619564 C104.859967,32.5108655 103.08144,32.5371346 101.304815,32.5400726 C101.304815,32.0197011 101.304815,31.7596017 101.304815,31.2392302" id="path100" fill="#FFFFFF"></path>
                        <path d="M111.928967,24.2749616 C111.928967,24.0993729 111.908746,23.9930865 111.868133,23.9557566 C111.827519,23.9182539 111.716739,23.9039095 111.535966,23.9127235 C111.340676,23.922056 111.24303,23.9265494 111.04774,23.9355362 C110.866966,23.9438318 110.756186,23.9683727 110.715573,24.0098503 C110.674959,24.0509823 110.654393,24.1591698 110.654393,24.3347585 C110.654566,26.4746591 110.654566,28.6147325 110.654393,30.7548059 C110.654393,30.9302217 110.674959,31.0368538 110.715573,31.0745294 C110.756186,31.1120321 110.866966,31.1268949 111.04774,31.1187722 C111.24303,31.1097854 111.340676,31.1051191 111.535966,31.0957866 C111.716739,31.0871455 111.827519,31.0619132 111.868133,31.0204356 C111.908746,30.978958 111.928967,30.8704248 111.928967,30.695009 C111.928967,28.5551084 111.928967,26.415035 111.928967,24.2749616 Z M113.360982,31.9809886 C113.265065,32.0694742 113.134929,32.1318635 112.970401,32.1671195 C112.806046,32.2022027 112.595893,32.2267436 112.340114,32.2398782 C111.490514,32.2836026 111.065713,32.3034773 110.21594,32.3392517 C109.960161,32.3501396 109.752082,32.3453006 109.59222,32.325253 C109.432186,32.3053783 109.306716,32.2550867 109.215292,32.1752422 C109.123696,32.0953978 109.059751,31.9815071 109.023458,31.833743 C108.986819,31.6859789 108.968673,31.4893058 108.968673,31.2437236 C108.968673,28.8231576 108.968673,26.4024189 108.968673,23.9818529 C108.968673,23.7362707 108.986992,23.5378694 109.023458,23.3878586 C109.059924,23.2373293 109.124041,23.1185996 109.215292,23.032015 C109.306716,22.9454304 109.432186,22.8856335 109.59222,22.8529698 C109.752082,22.8203062 109.960161,22.7988761 110.21594,22.7879882 C111.10408,22.7508311 111.548064,22.7297467 112.436031,22.6837756 C112.682823,22.6709867 112.881397,22.6754801 113.032099,22.6979472 C113.182801,22.7204142 113.301531,22.7707058 113.388288,22.8495134 C113.475046,22.9278024 113.534324,23.0404833 113.566469,23.1879018 C113.598442,23.3349746 113.614169,23.5273271 113.614169,23.7640953 C113.614169,26.1848341 113.614169,28.6054 113.614169,31.025966 C113.614169,31.2715481 113.596022,31.4701223 113.559556,31.6211701 C113.523091,31.7722178 113.456726,31.8923302 113.360982,31.9809886 L113.360982,31.9809886 Z" id="path102" fill="#FFFFFF"></path>
                        <path d="M128.954501,25.3525161 C128.809848,25.6513279 128.631148,25.9192044 128.418575,26.1559726 C128.20583,26.3923951 127.972518,26.6096342 127.719159,26.8064802 C127.465799,27.0033262 127.232488,27.1951603 127.019742,27.3823281 C126.806823,27.569496 126.627951,27.7634039 126.483125,27.9642248 C126.338299,28.1647001 126.265713,28.3833218 126.265713,28.6202628 C126.265713,28.9885497 126.265713,29.1729524 126.265713,29.5412393 C126.265713,29.7164823 126.299586,29.8225959 126.366815,29.8585432 C126.434216,29.8946633 126.603237,29.8974285 126.873188,29.8661474 C127.116005,29.8379772 127.280187,29.7966724 127.365735,29.7429243 C127.451282,29.6886577 127.49397,29.5739029 127.49397,29.3986599 C127.49397,28.8936696 127.49397,28.6410017 127.49397,28.1358386 C128.143613,28.0585865 128.468176,28.0188371 129.117128,27.9369187 C129.117128,28.594685 129.117128,28.9235681 129.117128,29.5815071 C129.117128,29.8269165 129.080835,30.0334406 129.008249,30.2003881 C128.93549,30.3671628 128.828513,30.5036933 128.687662,30.6085972 C128.54681,30.7138467 128.375888,30.7942096 128.176104,30.8493403 C127.97632,30.9042982 127.748711,30.9469856 127.49397,30.9774026 C126.981029,31.0384092 126.724559,31.0681349 126.211274,31.1260308 C125.697124,31.1840995 125.298074,31.1505717 125.013261,31.0280398 C124.728621,30.9051623 124.586387,30.5978821 124.586387,30.1067178 C124.586387,29.554201 124.586387,29.2778563 124.586387,28.7253395 C124.586387,28.3392518 124.659319,28.0091589 124.804836,27.7350609 C124.950353,27.4609628 125.130263,27.2157263 125.344218,26.9993512 C125.558001,26.783149 125.790276,26.5821553 126.040697,26.3960244 C126.290772,26.2102391 126.52322,26.0144301 126.736657,25.8103256 C126.950267,25.6060482 127.130176,25.3765386 127.275694,25.122488 C127.421211,24.8684375 127.49397,24.5704898 127.49397,24.2282992 C127.49397,23.7179514 127.49397,23.462864 127.49397,22.9523433 C127.49397,22.7767547 127.451282,22.6721965 127.365735,22.6384959 C127.280187,22.6047953 127.116005,22.6023758 126.873188,22.630546 C126.603237,22.661827 126.434389,22.7050329 126.366815,22.7610277 C126.299586,22.8166769 126.265713,22.9279752 126.265713,23.0949227 C126.265713,23.5841861 126.265713,23.8289041 126.265713,24.3183403 C125.594294,24.3943826 125.258325,24.431194 124.586387,24.5022245 C124.586387,23.8655427 124.586387,23.5472018 124.586387,22.9103472 C124.586387,22.673579 124.620606,22.4746592 124.688699,22.3141062 C124.757137,22.1533803 124.854782,22.0201334 124.982498,21.9145382 C125.109697,21.8085974 125.269213,21.727716 125.460355,21.6715484 C125.651498,21.6155536 125.865281,21.570101 126.101876,21.5344994 C126.680835,21.4695177 126.970142,21.43599 127.548582,21.3672062 C127.803151,21.3367893 128.030587,21.3269383 128.230889,21.3374806 C128.430673,21.3480228 128.601077,21.3884635 128.742274,21.4586298 C128.882952,21.5286234 128.989757,21.6381935 129.062688,21.7868217 C129.135274,21.9356227 129.17174,22.1326415 129.17174,22.3782237 C129.17174,23.1519545 129.17174,23.5385607 129.17174,24.3122915 C129.17174,24.7068475 129.099327,25.0537043 128.954501,25.3525161" id="path104" fill="#FFFFFF"></path>
                        <path d="M118.69397,30.6132634 C118.945774,30.5930431 119.071762,30.5830193 119.323393,30.5622805 C119.587813,30.5405047 119.756316,30.4801893 119.82942,30.3818528 C119.902352,30.2835162 119.93899,30.1379988 119.93899,29.944955 C119.93899,29.0924166 119.93899,28.6662339 119.93899,27.8136956 C119.93899,27.6206517 119.909265,27.4939721 119.849986,27.4331382 C119.790708,27.3724772 119.633438,27.3529481 119.378005,27.3742054 C119.104426,27.3966725 118.967549,27.4077332 118.69397,27.4295089 C118.69397,28.7030453 118.69397,29.3398999 118.69397,30.6132634 Z M120.062041,22.1594291 C120.800515,22.0960029 121.169839,22.0629936 121.908141,21.9936914 C121.355797,23.6505503 121.079625,24.478202 120.526936,26.1316044 C120.846141,26.121235 121.092242,26.2130043 121.265583,26.4077764 C121.43858,26.6025485 121.525337,26.8839051 121.525337,27.252192 C121.525337,28.4151213 121.525337,28.9966724 121.525337,30.1596018 C121.525337,30.6595801 121.370142,31.0359897 121.060442,31.2874479 C120.750569,31.5389061 120.33562,31.6877071 119.815767,31.7314315 C118.469818,31.8453222 117.796497,31.8971692 116.449338,31.9910124 C116.449338,31.4963915 116.449338,31.2489083 116.449338,30.7542874 C116.673836,30.7387333 116.785998,30.7307834 117.010496,30.7147108 C117.010496,27.9431404 117.010496,25.1715699 117.010496,22.3999994 C117.683989,22.351436 118.020649,22.326031 118.69397,22.2724557 C118.69397,23.9009715 118.69397,24.7153159 118.69397,26.3440045 C118.713499,26.3424491 118.72335,26.341585 118.743052,26.3400296 C119.270682,24.6693448 119.53441,23.8330519 120.062041,22.1594291 L120.062041,22.1594291 Z" id="path106" fill="#FFFFFF"></path>
                    </g>
                </g>
            </g>
        </g>
    </g>
</svg>