<?xml version="1.0" encoding="utf-8"?>
<!-- Generator: Adobe Illustrator 26.5.0, SVG Export Plug-In . SVG Version: 6.00 Build 0)  -->
<svg version="1.1" id="Layer_1" xmlns="http://www.w3.org/2000/svg" xmlns:xlink="http://www.w3.org/1999/xlink" x="0px" y="0px"
	 width="2198.6px" height="2072.8px" viewBox="0 0 2198.6 2072.8" style="enable-background:new 0 0 2198.6 2072.8;"
	 xml:space="preserve">
<style type="text/css">
	.st0{fill:#003970;}
	.st1{fill:#FEBE10;}
	.st2{fill:#F3BD48;}
</style>
<g>
	<path class="st0" d="M1504.2,1274.3l647.9-467.5h-799.6L1101.1,47.4L845.5,806.8H46.3l649.1,470.1L447.2,2032l656.6-461.2
		l639.1,463.2L1504.2,1274.3z"/>
	<path class="st1" d="M1770.8,2072.7l-667.1-483.5l-684.8,481l258.9-787.6L0,791.8h834.7L1101.2,0l262.1,791.8h835.2l-676.8,488.3
		L1770.8,2072.7z M1103.9,1552.4l611.1,442.9l-228.4-726.8l619-446.7h-764L1101,94.8l-244.7,727H92.6l620.5,449.4l-237.5,722.6
		L1103.9,1552.4z"/>
</g>
<polygon class="st1" points="921.4,773.1 993.6,773.1 1093,478.3 1301.4,1075 1407.9,1075 1505,1003.9 1353.5,1003.9 1100.6,240.4 
	"/>
<polygon class="st1" points="1390.2,868 1428,929.4 1746.5,929.4 1224.4,1316.5 1265.9,1433.7 1347.5,1475.1 1312,1337.8 
	1963.1,868 "/>
<path class="st2" d="M1621,1295.3"/>
<polygon class="st1" points="1094.2,703.2 1135.6,813.3 1094.2,929.4 466.8,929.4 723.7,1129.4 698.8,1204 234.7,868 1044.5,868 "/>
<polygon class="st1" points="685.2,1018.1 808.9,1018.1 895.3,1084.4 701.2,1687 973.4,1500 1036.2,1543.8 562.7,1876.4 
	814.8,1109.3 "/>
<polygon class="st1" points="858.6,1488.1 971.1,1399.3 1629.3,1876.4 1455.3,1322.4 1399.6,1389.9 1505,1697.7 972.3,1315.3 "/>
</svg>
