<?xml version="1.0" encoding="UTF-8"?>
<svg width="200px" height="200px" viewBox="0 0 200 200" version="1.1" xmlns="http://www.w3.org/2000/svg" xmlns:xlink="http://www.w3.org/1999/xlink">
    <!-- Generator: Sketch 54.1 (76490) - https://sketchapp.com -->
    <title>drew</title>
    <desc>Created with Sketch.</desc>
    <g id="drew" stroke="none" stroke-width="1" fill="none" fill-rule="evenodd">
        <g id="drew_BGL">
            <g id="drew" transform="translate(0.000000, 48.000000)">
                <g id="g10" transform="translate(99.999998, 51.917358) scale(-1, 1) rotate(-180.000000) translate(-99.999998, -51.917358) translate(0.000000, 0.402208)" fill-rule="nonzero">
                    <g id="g12">
                        <path d="M165.473274,32.0407155 L165.234156,33.955316 C173.842971,41.1262249 173.601649,54.5185661 173.601649,54.5185661 C172.407158,58.5840206 168.130574,62.267767 168.130574,62.267767 C171.026993,72.4082627 165.715698,81.1752046 165.715698,81.1752046 C165.715698,81.1752046 169.297516,92.7746533 161.642971,98.2771325 C153.992834,103.776857 144.790079,99.2071601 144.790079,99.2071601 C136.786773,103.247931 129.543798,100.734984 129.543798,100.734984 C121.631402,104.312394 115.915149,101.65289 115.915149,101.65289 C115.915149,101.65289 106.169694,105.928923 94.4121189,99.346003 C82.6528905,92.7630831 85.6060585,77.2330559 85.6060585,77.2330559 C84.2468298,75.1504113 83.0082624,73.1316786 81.8578492,71.1586759 C75.4650119,77.6303011 64.8716237,81.1735517 51.7025882,81.1735517 L16.4688701,81.1735517 L15.6658949,81.1735517 L12.7961429,81.1735517 L12.2436912,78.3586757 L12.0906333,77.5674912 C12.0895865,77.5652873 11.8498069,76.3322295 11.8498069,76.3322295 C11.8485396,76.3278218 11.6970245,75.539943 11.6970245,75.539943 L11.154435,72.7388412 L13.7936636,71.6534417 L14.5304129,71.3498605 C14.5280437,71.3520643 17.9001097,69.9619817 19.6681538,69.2336071 C19.6502474,69.0622572 19.6203301,68.8595024 19.573443,68.6187311 C19.5721207,68.6159762 12.0736636,30.2363078 12.0736636,30.2363078 C11.835592,29.0104125 11.4983468,28.527272 11.3821485,28.3873271 C10.0998896,27.8936632 4.04678778,25.546666 4.04678778,25.546666 C4.0622864,25.5520655 3.55780707,25.359228 3.55780707,25.359228 L1.74737186,24.6672721 L1.37869969,22.762589 L1.2764738,22.2325063 C1.27970245,22.240881 1.03844075,21.0076579 1.03844075,21.0076579 C1.03844075,21.010027 0.812242404,19.8446276 0.812242404,19.8446276 L0,15.6898068 L4.23252331,15.6898068 L5.41709628,15.6898068 L37.034269,15.6898068 L37.0826988,15.6898068 C37.2135528,15.6925616 37.2596134,15.6925616 37.2596134,15.6925616 C47.0381255,15.9250134 62.2760315,16.3201649 73.8550946,24.7371895 C85.0347086,1.29649033 124.581815,0 124.581815,0 L121.582917,5.79179049 C121.582917,5.79179049 135.820933,-0.956440747 157.228095,8.14716233 C178.635257,17.2468866 199.549857,9.37415955 199.549857,9.37415955 C187.956469,31.4208808 165.473274,32.0407155 165.473274,32.0407155" id="path14" fill="#A9AFB3"></path>
                        <path d="M43.3682083,70.4473812 L47.142974,70.4473812 C54.1963623,70.4473812 59.3283732,68.5608798 62.3977946,64.8352601 C65.5619818,60.992285 66.4754804,55.0781253 65.0413207,47.7371889 C62.3548194,33.988484 53.1536075,26.4159222 39.1288144,26.4159222 L34.7630294,26.4159222 L43.3682083,70.4473812 Z M80.6209346,67.3471058 C75.1300257,74.0143232 64.8606044,77.6881523 51.7025882,77.6881523 L16.4688701,77.6881523 L15.6658949,77.6881523 L15.5115699,76.8991716 L15.2700823,75.6661138 L15.1187875,74.878786 L15.8570244,74.5752047 L22.0544898,72.0203839 L22.1457295,71.9823673 L22.2417625,71.9625326 C22.723195,71.8280974 23.5549856,70.8005492 22.9954264,67.9471057 L15.495647,29.5669965 C14.8314597,26.1587321 13.2582366,25.3613768 12.7905231,25.1977955 C12.7610465,25.1861702 5.3064737,22.2959774 5.3064737,22.2959774 L4.80221476,22.1041868 L4.70019823,21.5723962 L4.46065554,20.3404954 L4.23252331,19.1752612 L5.41709628,19.1752612 L37.034269,19.1752612 C37.0598889,19.1752612 37.1674922,19.1785119 37.1674922,19.1785119 C52.2991722,19.5387874 77.6269953,20.1360326 84.597794,47.4860043 C86.1768573,55.5647369 84.8363615,62.2291995 80.6209346,67.3471058 L80.6209346,67.3471058 Z" id="path16" fill="#004E32"></path>
                        <path d="M189.976304,16.3393384 C189.871621,16.4544349 179.604403,27.9130021 159.541043,28.5530571 C159.526718,28.5530571 159.512944,28.5530571 159.501373,28.5530571 L159.067765,28.5112941 C161.642971,31.7460598 161.666663,35.1960873 161.637462,35.9504123 C169.579059,42.795481 169.479335,53.6415414 169.476029,53.7491447 C169.476029,53.7857287 169.47107,53.8201639 169.456194,53.853938 C167.974651,57.7443512 164.709638,59.8732767 163.83636,60.3889792 C167.116249,71.4407696 162.349858,79.354268 161.637462,80.446279 C162.040216,81.7052321 164.58512,90.4694192 159.30523,94.8231381 C154.029197,99.1735512 146.092007,95.7134962 144.969142,95.1906312 C137.353165,98.439116 130.2876,97.1057827 129.407159,96.9173529 C120.968041,100.179612 117.234708,97.5691436 116.382917,96.808262 C115.066664,97.6418708 107.874377,101.64738 98.0104659,96.7360857 C85.9504111,90.7283724 89.4358104,78.5994471 89.9371878,77.0584003 C89.9371878,77.0584003 87.3190061,73.6110174 84.2864993,68.2247917 C85.6297499,66.3426981 86.7041301,64.3250673 87.4336066,62.1421472 C91.0088132,70.5327806 95.6264439,76.7713479 95.6264439,76.7713479 C95.6264439,76.7713479 89.6964165,84.4964166 99.1024769,91.1790611 C108.510741,97.8639094 115.64738,91.0033035 115.64738,91.0033035 C125.001099,99.0798873 140.1449,86.3498601 140.1449,86.3498601 C139.467765,90.2947636 135.083192,92.3168021 135.083192,92.3168021 C151.588977,91.9046809 156.398343,81.0705214 156.398343,81.0705214 L152.493109,81.2176288 C164.820382,68.1702462 152.360327,67.1134969 152.360327,67.1134969 C149.681539,70.7184555 144.577958,72.5884279 144.577958,72.5884279 C148.367489,69.1471057 151.81377,62.4154254 151.81377,62.4154254 C161.079886,58.0137727 163.343247,54.9640758 163.343247,54.9640758 C160.212668,52.6289243 153.694762,53.6468857 152.166938,54.0381805 C150.639666,54.4303017 147.006608,56.8446267 144.668867,50.0451778 C142.926167,44.9812661 149.353164,44.5807702 152.515699,44.4970237 C152.515699,44.4970237 154.187324,43.5530568 153.649583,42.3553708 C152.518453,40.5410458 150.129473,40.4336629 148.403302,41.0341588 C146.230299,41.786335 142.248481,41.6623681 142.248481,41.6623681 C128.784019,42.0678226 135.515148,31.2501921 135.515148,31.2501921 C138.889804,19.5966937 153.051787,25.7476578 153.051787,25.7476578 C149.146553,16.531074 137.439115,17.0043522 137.439115,17.0043522 L140.045727,20.0370243 C129.248482,20.6678232 127.973,27.0368588 127.973,27.0368588 C115.022587,33.355922 121.475479,45.6869961 121.475479,45.6869961 C115.646278,40.58628 115.409364,37.2182911 115.861705,35.603911 C110.130025,46.904076 117.068868,58.5449021 117.068868,58.5449021 C108.153165,51.9154808 107.062256,41.9322304 107.062256,41.9322304 C101.271623,49.6545442 103.642422,62.299172 103.642422,62.299172 C89.2402182,37.771404 112.520658,27.3790627 112.520658,27.3790627 C91.9454522,31.7835254 92.1504109,50.6768582 92.1504109,50.6768582 C84.5311274,31.4996686 107.292559,20.4298067 107.292559,20.4298067 C93.4033035,23.4710738 86.8512375,29.8230847 84.4606039,37.2038558 C82.4771329,33.3300818 80.04683,30.1564731 77.3123948,27.5686494 C81.5410448,17.3734431 92.7118434,8.77129455 116.539391,5.63856735 C116.680438,5.61812658 116.812118,5.70358112 116.85895,5.83460041 C116.907435,5.9669971 116.85895,6.1146004 116.74435,6.19404943 C114.384019,7.78347088 113.158124,11.6694763 112.75592,13.1856746 C114.292559,12.456749 118.735534,10.5382917 125.090355,9.40170775 C132.394487,8.09421467 143.793385,7.57685931 156.616525,12.5400548 C173.367489,19.02314 189.523962,15.8716249 189.685395,15.8369693 C189.812116,15.8120106 189.943246,15.8716249 190.010464,15.9846277 C190.076579,16.0986773 190.059499,16.2424789 189.976304,16.3393384" id="path18" fill="#0C2F59"></path>
                        <path d="M157.914046,39.7608805 C157.914046,39.7608805 156.386222,39.6898613 156.123412,38.4116795 C156.123412,38.4116795 156.029748,37.9543241 156.066663,37.7377952 C156.100272,37.5206602 156.312944,36.3117897 155.945451,35.1702471 C155.945451,35.1702471 155.930024,34.6743793 156.418178,34.9978504 C156.902475,35.323911 158.152062,36.9597787 158.678784,38.7889797 C158.974101,39.8093103 157.914046,39.7608805 157.914046,39.7608805" id="path20" fill="#FFFFFF"></path>
                        <path d="M145.782366,39.8633599 C145.782366,39.8633599 147.420382,39.8060596 146.960878,38.296528 C146.960878,38.296528 146.796691,37.7604398 146.629748,37.5085941 C146.462806,37.2501368 145.527269,35.8193379 145.261153,34.4737732 C145.261153,34.4737732 144.991732,33.8888146 144.642972,34.2628642 C144.300272,34.6397237 143.877682,36.5508531 144.368591,38.7019825 C144.642972,39.9029191 145.782366,39.8633599 145.782366,39.8633599" id="path22" fill="#FFFFFF"></path>
                        <path d="M155.531126,38.6871616 C155.531126,38.6871616 155.434707,37.3857291 154.170795,36.7112388 C153.339941,36.2689247 152.977407,37.9130018 152.952062,38.0098613 C152.952062,38.0098613 152.141594,36.5872718 151.073825,36.4583462 C150.296966,36.3603848 149.987324,38.0016519 149.987324,38.0016519 C149.987324,38.0016519 149.236911,36.833663 148.137186,36.5444068 C148.137186,36.5444068 147.119556,36.7962525 147.751511,38.9912387 C147.751511,38.9912387 149.007159,39.6986767 150.149308,38.8825886 C150.149308,38.8825886 151.790079,39.8015417 153.011015,38.7130018 C153.011015,38.7130018 154.5449,39.7520651 155.531126,38.6871616" id="path24" fill="#FFFFFF"></path>
                        <path d="M142.906333,30.740991 C142.906333,30.740991 139.555919,28.220991 141.488702,26.5851233 C141.488702,26.5851233 142.228647,26.2947652 142.651236,26.5013767 C142.651236,26.5013767 143.719556,25.3972996 145.238564,26.1189525 C145.238564,26.1189525 146.728922,25.2677129 148.131677,26.1933878 C148.131677,26.1933878 149.61928,25.5382914 150.698619,26.698071 C150.698619,26.698071 151.742696,26.509531 152.201649,26.8435806 C152.661153,27.1780158 153.53388,28.0010461 152.629197,30.2782913 C152.629197,30.2782913 152.257296,30.589035 152.076029,29.7382913 C151.892007,28.8871067 151.062255,27.7537183 150.798343,27.495261 C150.798343,27.495261 150.350409,28.4798891 149.614321,28.6391728 C148.871071,28.7977954 148.106332,27.145509 148.106332,27.145509 C148.106332,27.145509 147.712393,28.235812 147.031952,28.4682638 C146.351511,28.7063354 145.419831,26.9961426 145.419831,26.9961426 C145.419831,26.9961426 145.198343,28.2958671 144.603853,28.557575 C144.011016,28.8214318 143.033605,27.3349304 143.033605,27.3349304 C143.033605,27.3349304 142.571346,28.7222582 143.069969,29.9190626 C143.418729,30.759283 142.906333,30.740991 142.906333,30.740991" id="path26" fill="#FFFFFF"></path>
                        <path d="M157.24793,64.9460039 C157.2595,64.5917339 157.160327,64.0776843 156.508536,63.9118441 C155.910189,63.7570232 155.519555,64.0110177 155.293109,64.2484832 C154.902475,64.1790618 154.547104,64.1630838 154.233054,64.1807146 C154.50523,63.7415962 155.406057,62.545453 156.981814,62.9818166 C158.742145,63.4749295 158.245175,65.2005493 158.152062,65.4787862 C157.837462,65.2727256 157.537186,65.0964171 157.24793,64.9460039" id="path28" fill="#FFFFFF"></path>
                        <path d="M156.865561,41.0425334 C160.946552,41.676583 163.23085,45.5796132 163.23085,45.5796132 C161.788426,44.4599989 158.661704,44.4115691 157.142696,44.2331669 C156.795037,44.0749851 156.20771,43.3365829 155.930024,42.8092551 L155.833605,41.751459 C156.003853,41.184572 156.514046,41.0651229 156.865561,41.0425334" id="path30" fill="#FFFFFF"></path>
                        <path d="M84.4606039,37.2038558 C86.8512375,29.8230847 93.4033035,23.4710738 107.292559,20.4298067 C107.292559,20.4298067 84.5311274,31.4996686 92.1504109,50.6768582 C92.1504109,50.6768582 91.9454522,31.7835254 112.520658,27.3790627 C112.520658,27.3790627 89.2402182,37.771404 103.642422,62.299172 C103.642422,62.299172 101.271623,49.6545442 107.062256,41.9322304 C107.062256,41.9322304 108.153165,51.9154808 117.068868,58.5449021 C117.068868,58.5449021 110.130025,46.904076 115.861705,35.603911 C115.409364,37.2182911 115.646278,40.58628 121.475479,45.6869961 C121.475479,45.6869961 115.022587,33.355922 127.973,27.0368588 C127.973,27.0368588 129.248482,20.6678232 140.045727,20.0370243 L137.439115,17.0043522 C137.439115,17.0043522 149.146553,16.531074 153.051787,25.7476578 C153.051787,25.7476578 138.889804,19.5966937 135.515148,31.2501921 C135.515148,31.2501921 128.784019,42.0678226 142.248481,41.6623681 C142.248481,41.6623681 146.230299,41.786335 148.403302,41.0341588 C150.129473,40.4336629 152.518453,40.5410458 153.649583,42.3553708 C154.187324,43.5530568 152.515699,44.4970237 152.515699,44.4970237 C149.353164,44.5807702 142.926167,44.9812661 144.668867,50.0451778 C147.006608,56.8446267 150.639666,54.4303017 152.166938,54.0381805 C153.694762,53.6468857 160.212668,52.6289243 163.343247,54.9640758 C163.343247,54.9640758 161.079886,58.0137727 151.81377,62.4154254 C151.81377,62.4154254 148.367489,69.1471057 144.577958,72.5884279 C144.577958,72.5884279 149.681539,70.7184555 152.360327,67.1134969 C152.360327,67.1134969 164.820382,68.1702462 152.493109,81.2176288 L156.398343,81.0705214 C156.398343,81.0705214 151.588977,91.9046809 135.083192,92.3168021 C135.083192,92.3168021 139.467765,90.2947636 140.1449,86.3498601 C140.1449,86.3498601 125.001099,99.0798873 115.64738,91.0033035 C115.64738,91.0033035 108.510741,97.8639094 99.1024769,91.1790611 C89.6964165,84.4964166 95.6264439,76.7713479 95.6264439,76.7713479 C95.6264439,76.7713479 91.0088132,70.5327806 87.4336066,62.1421472" id="path32" fill="#A9AFB3"></path>
                        <path d="M77.3123948,27.5686494 C80.04683,30.1564731 82.4771329,33.3300818 84.4606039,37.2038558" id="path34" fill="#A9AFB3"></path>
                        <path d="M87.4336066,62.1421472 C86.7041301,64.3250673 85.6297499,66.3426981 84.2864993,68.2247917" id="path36" fill="#A9AFB3"></path>
                        <path d="M140.278784,68.4787862 C141.639115,67.3856732 145.278233,64.2242408 140.197793,72.6606042 C140.197793,72.6606042 140.198344,72.6694197 140.199996,72.6721745 C137.244625,75.3548191 134.687049,76.8506868 134.687049,76.8506868 C134.687049,76.8506868 138.146002,72.9515133 132.439666,74.4066097 C120.909088,77.3454526 112.69862,66.5691443 112.69862,66.5691443 C112.69862,66.5691443 126.640217,79.4606041 140.278784,68.4787862" id="path38" fill="#FFFFFF"></path>
                        <path d="M137.229198,62.8005494 C138.056746,62.8143235 138.796691,63.36088 139.071622,64.0898056 C138.884294,64.1873262 138.699721,64.2771334 138.512944,64.3641857 C138.274928,64.0071609 137.85895,63.7614309 137.4022,63.7537174 C136.725065,63.744902 136.215975,64.2584006 136.268867,64.9057835 C136.279886,65.021486 136.314046,65.1344336 136.35647,65.2435245 C135.424239,65.5564722 134.538289,65.759778 133.695313,65.8953152 C133.689253,65.4291995 133.688151,65.0269956 133.689253,64.7316788 C134.310189,64.6694199 134.937738,64.5713482 135.557572,64.3955907 C135.539391,63.4936623 136.263908,62.7851224 137.229198,62.8005494" id="path40" fill="#FFFFFF"></path>
                        <path d="M140.289804,72.8016511 C140.237462,72.8462792 140.205506,72.7035794 140.199996,72.6721745 C140.198344,72.6694197 140.197793,72.6606042 140.197793,72.6606042 C145.278233,64.2242408 141.639115,67.3856732 140.278784,68.4787862 C126.640217,79.4606041 112.69862,66.5691443 112.69862,66.5691443 C126.09311,72.3531662 131.840768,68.8033041 131.840768,68.8033041 C126.171347,68.0490341 125.341595,64.7157009 125.341595,64.7157009 C125.341595,64.7157009 128.662256,66.6958661 133.695313,65.8953152 C133.706333,66.8495851 133.742696,68.0572986 133.834156,69.0611553 L133.695313,65.8953152 C134.538289,65.759778 135.424239,65.5564722 136.35647,65.2435245 C136.314046,65.1344336 136.279886,65.021486 136.268867,64.9057835 C136.215975,64.2584006 136.725065,63.744902 137.4022,63.7537174 C137.85895,63.7614309 138.274928,64.0071609 138.512944,64.3641857 C138.699721,64.2771334 138.884294,64.1873262 139.071622,64.0898056 C138.796691,63.36088 138.056746,62.8143235 137.229198,62.8005494 C136.263908,62.7851224 135.539391,63.4936623 135.557572,64.3955907 C134.937738,64.5713482 134.310189,64.6694199 133.689253,64.7316788 C133.609914,64.7404942 133.531126,64.7548193 133.451236,64.7619819 C133.449032,64.744902 133.443523,64.7267201 133.440217,64.7074364 C133.269969,62.6473814 134.888151,61.00661 137.05344,61.0402189 C138.63636,61.0650122 140.065561,61.9834695 140.791181,63.2793373 C142.651236,63.0330563 143.925616,63.0809902 144.75647,63.3360866 L148.59669,60.3333318 C145.995038,68.4429735 140.914597,72.3818164 140.289804,72.8016511" id="path42" fill="#0C2F59"></path>
                        <path d="M122.200548,78.09256 C124.255644,78.4424223 125.625341,78.5112928 125.625341,78.5112928 C110.348207,84.0435241 100.068317,70.6220368 100.068317,70.6220368 C85.9939372,52.345894 99.8804383,36.0881534 99.8804383,36.0881534 C92.2214853,52.9366929 102.114047,65.6121196 105.694763,69.4314032 C104.401099,61.5961417 108.033055,54.0009353 108.033055,54.0009353 C106.400548,72.3393921 117.796691,76.9867749 122.200548,78.09256" id="path44" fill="#FFFFFF"></path>
                        <path d="M144.4022,48.7506324 C144.521209,49.3930566 144.665561,49.9634147 144.827545,50.4820924 C145.577958,52.4890345 146.451236,53.6157011 147.338288,54.2022025 C148.250685,54.7477672 149.202751,54.8058939 149.979611,54.7047369 C150.560327,54.6003292 151.096415,54.4055634 151.540492,54.2452328 C151.617076,54.208208 151.6595,54.1828086 151.6595,54.1828086 C151.71074,54.1720648 151.75647,54.1623678 151.801649,54.151624 C151.934431,54.1057838 152.056195,54.0644615 152.166938,54.0381805 C152.510189,53.9525055 153.114046,53.8309077 153.861704,53.7265551 C155.771346,53.414489 157.401649,53.3976846 158.735533,53.5365276 C160.371346,53.6651777 161.975203,54.0422576 163.159776,54.8463347 C163.284844,54.9177948 163.343247,54.9640758 163.343247,54.9640758 C163.343247,54.9640758 162.984018,55.4468306 161.971897,56.301927 C158.206057,59.5410453 151.81377,62.4154254 151.81377,62.4154254 C153.603853,61.3889792 155.93939,58.316252 156.284845,56.8126708 C154.860051,56.5377396 152.121759,56.7085385 146.85344,58.2578498 C135.117903,61.7118442 122.713496,50.8049023 123.351512,41.8721753 L127.605506,44.4225884 C127.605506,44.4225884 125.652338,26.3674925 141.551512,24.653498 C138.960327,25.4694209 136.638564,27.3708533 135.515148,31.2501921 C135.515148,31.2501921 128.784019,42.0678226 142.248481,41.6623681 C142.248481,41.6623681 146.230299,41.786335 148.403302,41.0341588 C150.129473,40.4336629 152.518453,40.5410458 153.649583,42.3553708 C154.187324,43.5530568 152.515699,44.4970237 152.515699,44.4970237 C149.633605,44.5718997 144.042421,44.9134975 144.391181,48.8066104 C144.399996,48.7721751 144.4022,48.7506324 144.4022,48.7506324" id="path46" fill="#FFFFFF"></path>
                        <path d="M109.386223,81.8325048 L106.348758,82.6016508 C106.348758,82.6016508 109.346554,85.47548 112.245727,86.3184551 C112.245727,86.3184551 106.992284,91.164185 101.987325,87.7228628 C96.9840196,84.2815406 101.053441,77.7206592 101.053441,77.7206592 C101.053441,77.7206592 106.047931,80.9570228 109.386223,81.8325048" id="path48" fill="#0C2F59"></path>
                        <path d="M149.055644,91.9322291 C149.055644,91.9322291 156.499721,89.0358104 157.798894,82.767491 C157.798894,82.767491 161.595588,94.9195569 149.055644,91.9322291" id="path50" fill="#A9AFB3"></path>
                        <path d="M157.301924,90.518455 C157.301924,90.518455 155.386222,93.6639095 149.055644,91.9322291 C149.055644,91.9322291 152.441869,90.4391162 152.920106,89.642973 C152.920106,89.642973 154.034707,90.5972429 157.301924,90.518455" id="path52" fill="#FFFFFF"></path>
                        <path d="M152.872723,81.1884277 C145.094211,90.0088132 135.083192,92.3168021 135.083192,92.3168021 C135.083192,92.3168021 149.761429,93.1063338 156.398343,81.0705214 L152.872723,81.1884277" id="path54" fill="#FFFFFF"></path>
                        <path d="M140.1449,86.3498601 C140.1449,86.3498601 124.833606,95.8264439 115.155369,85.7250667 C115.155369,85.7250667 107.357022,95.9895293 97.9118433,90.2969674 C97.9118433,90.2969674 106.478234,98.3063336 115.64738,91.0033035 C115.64738,91.0033035 123.388978,99.4776835 140.1449,86.3498601" id="path56" fill="#FFFFFF"></path>
                    </g>
                </g>
            </g>
        </g>
    </g>
</svg>