<svg width="200" height="200" viewBox="0 0 200 200" fill="none" xmlns="http://www.w3.org/2000/svg">
<path d="M23.4945 101.038C23.8537 100.688 24.2223 100.354 24.5846 100.013V107.447C28.0172 100.878 33.3365 96.0027 40.1362 89.4185C40.4985 89.0687 40.8639 88.7345 41.2263 88.3909V95.8247C43.9249 90.6647 47.7855 86.5449 52.6143 81.8285C52.4925 81.8285 52.3738 81.8317 52.252 81.8317C49.1692 81.8317 46.305 81.4506 43.5251 80.6729C43.2596 80.5979 42.991 80.5261 42.7286 80.4449C42.585 80.4011 42.4475 80.3543 42.307 80.3105C29.8882 87.5413 16.2825 97.124 7.61182 104.211C7.88043 106.151 8.6488 108.952 9.50774 111.454C10.0793 113.119 10.6946 114.653 11.2319 115.712C14.4428 110.814 18.5751 105.801 23.4945 101.038Z" fill="white"/>
<path d="M100.881 107.64C100.881 107.64 97.5292 97.5046 86.6815 94.2188L89.4957 97.7701C88.5056 97.3453 87.478 96.9643 86.4222 96.6394C79.4663 94.4967 72.7103 95.1901 68.9653 98.0075C72.929 97.6702 77.6735 98.198 82.5554 99.7004C89.6206 101.877 95.7613 105.669 98.9753 109.592C99.903 110.726 100.59 111.872 100.981 112.994C101.077 112.778 101.165 112.556 101.237 112.328C101.362 111.926 101.437 111.513 101.471 111.095C101.571 109.967 101.355 108.805 100.881 107.643V107.64Z" fill="white"/>
<path d="M43.922 66.923C45.2963 66.4669 46.6893 65.9859 48.098 65.5112C55.8598 62.8875 64.0682 60.3825 71.4894 62.672C71.5425 62.6876 71.5925 62.7094 71.6456 62.7251C74.1225 63.5059 76.4182 64.646 78.5172 66.0047C82.0935 68.3191 85.1139 71.2614 87.5345 74.1162C88.1748 74.869 88.8932 75.6467 89.671 76.3214C91.1327 77.5864 92.8007 78.4734 94.5217 78.1049C94.7903 78.0486 95.062 77.9581 95.3306 77.8363C94.9496 77.1491 94.4217 76.2464 93.7627 75.2032C93.4035 74.6347 93.0037 74.0257 92.5633 73.3854C92.5633 73.3822 92.5602 73.3822 92.5602 73.3791C92.2509 72.9293 91.923 72.4671 91.5763 71.9923C91.57 71.9829 91.5638 71.9736 91.5575 71.9673C91.392 71.7393 91.2202 71.5082 91.0422 71.277C91.0265 71.2552 91.0078 71.2333 90.9891 71.2083C90.6392 70.746 90.2738 70.2775 89.8896 69.8059C89.8646 69.7747 89.8396 69.7465 89.8147 69.7153C89.6304 69.4873 89.4398 69.2593 89.2493 69.0313C89.2181 68.9969 89.19 68.9594 89.1587 68.9251C88.7652 68.4628 88.356 67.9943 87.9343 67.5289C87.8937 67.4852 87.8563 67.4414 87.8157 67.3977C87.6126 67.176 87.4034 66.9542 87.191 66.7324C87.1504 66.6918 87.1098 66.6481 87.0723 66.6075C86.8692 66.3951 86.66 66.1827 86.4507 65.9703C86.4288 65.9484 86.4101 65.9266 86.3882 65.9047C86.382 65.8985 86.3726 65.8891 86.3664 65.8829C86.3226 65.8391 86.2727 65.7923 86.2289 65.7485C86.0603 65.5799 85.8885 65.4143 85.7167 65.2488C85.6636 65.1988 85.6136 65.1488 85.5605 65.0989C85.3356 64.8865 85.1076 64.6741 84.8765 64.4617C84.8296 64.4211 84.7859 64.3805 84.7391 64.3368C84.5235 64.1431 84.3049 63.9526 84.0831 63.762C84.0457 63.7277 84.0082 63.6964 83.9676 63.6621C83.7271 63.4559 83.4834 63.2529 83.2367 63.053C83.1742 63.003 83.1149 62.9531 83.0524 62.9031C82.8057 62.7032 82.5527 62.5064 82.2997 62.3128C82.2528 62.2784 82.206 62.244 82.1622 62.2097C81.928 62.0348 81.6906 61.8599 81.4532 61.6881C81.4032 61.6506 81.3533 61.6162 81.3033 61.5788C81.2752 61.56 81.2471 61.5413 81.219 61.5194C80.9847 61.3539 80.7473 61.1914 80.5068 61.0322C80.4412 60.9884 80.3725 60.9447 80.3069 60.901C80.032 60.7229 79.7572 60.5449 79.4792 60.3731C79.4386 60.3481 79.398 60.3263 79.3574 60.3013C79.0981 60.1451 78.8358 59.9889 78.5703 59.839C78.5109 59.8046 78.4547 59.7734 78.3954 59.739C78.108 59.5798 77.8206 59.4236 77.527 59.2737C77.4583 59.2393 77.3896 59.2049 77.324 59.1706C77.0242 59.0175 76.7181 58.8676 76.412 58.7271C76.387 58.7146 76.3589 58.7052 76.3339 58.6927C76.0403 58.5584 75.7436 58.4303 75.4437 58.3054C75.3812 58.2804 75.3188 58.2523 75.2532 58.2273C74.9408 58.0992 74.6285 57.9806 74.3099 57.865C74.2443 57.84 74.1787 57.8181 74.1131 57.7963C73.782 57.6776 73.4478 57.5651 73.1074 57.4621C63.3779 54.4636 52.3865 59.9702 42.6164 62.5533C36.8411 64.0806 31.4938 64.5866 27.0835 61.7131C27.071 61.6974 33.9644 70.2307 43.922 66.923Z" fill="white"/>
<path d="M116.901 122.892L119.753 125.781L114.134 124.607C113.181 125.291 112.353 126.006 111.813 126.665C124.719 129.576 138.081 133.88 138.081 133.88C138.081 133.88 128.345 128.133 121.074 121.33C120.134 121.389 118.538 122.014 116.901 122.892Z" fill="white"/>
<path d="M121.742 96.0181C120.471 95.9994 118.941 95.6745 118.816 93.8317C119.291 94.0253 119.715 93.6599 119.672 93.1664C119.547 91.6047 117.195 90.3459 116.489 90.0117C111.56 93.0102 117.401 98.7074 121.742 96.0181Z" fill="white"/>
<path d="M121.296 104.66C118.984 104.798 116.51 104.435 114.146 103.62C110.754 102.449 107.84 100.437 105.938 97.9636C105.325 97.164 104.835 96.33 104.47 95.4805C104.466 95.4867 104.463 95.493 104.46 95.4992C104.023 96.7673 104.11 98.1323 104.629 99.4722C105.628 102.049 108.224 104.523 111.747 106.01C112.103 106.16 112.472 106.3 112.847 106.431C116.663 107.749 121.973 108.358 124.681 107.106L144.365 111.941L125.937 103.608C124.578 104.195 123.017 104.56 121.296 104.66Z" fill="white"/>
<path d="M190.368 128.824L136.61 99.4449C134.433 96.7025 132.35 92.7888 133.315 89.3749C133.346 89.2625 133.384 89.1531 133.418 89.0407C131.116 84.8928 125.372 81.8943 118.538 81.6663C118.26 81.6569 117.979 81.6506 117.698 81.6506C117.22 81.6506 116.751 81.6725 116.283 81.7006C116.405 81.6163 116.533 81.5413 116.658 81.4632C119.362 79.8078 123.339 79.5423 125.706 80.0015C119.893 75.3351 111.838 71.234 102.518 68.604C102.04 68.4697 101.562 68.3417 101.084 68.2167C101.056 68.2105 101.031 68.2011 101.003 68.1949C100.912 68.173 100.825 68.1511 100.734 68.1262C100.316 68.02 99.8972 67.9138 99.4818 67.8138C99.4005 67.7951 99.3193 67.7763 99.2412 67.7576C98.8133 67.6576 98.3854 67.5577 97.9575 67.464C97.9013 67.4515 97.8451 67.4421 97.792 67.4296C97.336 67.3297 96.883 67.236 96.4301 67.1485C96.4052 67.1423 96.3802 67.1391 96.3552 67.1329C95.1839 66.9018 94.022 66.7019 92.8726 66.5332C92.8726 66.5332 92.8757 66.5363 92.8757 66.5394C94.1188 68.5228 94.9434 70.5156 95.3651 72.3865C96.8456 72.8051 98.2324 73.2174 99.538 73.6265C107.015 75.9722 111.791 78.2617 115.308 81.4601C110.155 81.6694 106.306 84.4149 104.938 86.011C106.253 85.4612 107.79 85.0021 109.527 84.7803C109.742 84.7522 109.964 84.7303 110.186 84.7116C110.673 84.6679 111.17 84.6398 111.685 84.6398C112.872 84.6398 114.103 84.7585 115.339 84.9958C116.57 85.2301 118.119 85.6705 119.65 86.7824C120.83 87.6383 122.002 88.897 123.017 90.7711C123.223 91.1521 123.42 91.5426 123.613 91.9299C124.713 94.1194 125.962 96.5994 129.195 98.2548C129.348 98.3329 129.495 98.4173 129.642 98.511C130.644 99.1419 131.519 100.126 132.019 101.641L168.051 121.434C166.776 120.993 165.53 120.675 164.365 120.475C160.686 119.847 157.771 120.409 157.037 122.159C156.975 122.312 156.928 122.468 156.9 122.63C156.447 125.185 160.27 128.943 165.861 131.298C166.395 131.523 166.929 131.726 167.454 131.91C166.083 132.244 164.396 132.282 162.553 132.01C163.419 132.519 164.352 132.994 165.349 133.412C171.468 135.986 177.483 135.567 178.786 132.475C179.236 131.404 179.061 130.151 178.386 128.865C177.918 127.831 176.996 126.722 175.731 125.651L181.894 129.036C181.897 129.03 188.028 130.492 190.368 128.824Z" fill="white"/>
<path d="M178.389 128.861C179.067 130.148 179.242 131.401 178.789 132.472C177.486 135.564 171.471 135.983 165.352 133.409C164.358 132.991 163.421 132.519 162.556 132.007C164.399 132.278 166.086 132.241 167.457 131.907C166.929 131.722 166.398 131.519 165.864 131.295C160.273 128.943 156.45 125.182 156.903 122.627C156.931 122.465 156.978 122.308 157.04 122.155C157.777 120.406 160.688 119.844 164.368 120.472C165.536 120.672 166.779 120.99 168.054 121.431L132.022 101.637C129.498 99.6197 126.387 99.3355 121.914 99.3698C119.45 99.3698 117.376 99.0731 115.914 98.5078C111.26 96.7149 109.233 93.5759 109.536 88.6346L109.595 87.6726L108.727 87.254C107.412 86.62 106.119 86.2358 104.944 86.0109C106.313 84.4117 110.161 81.6693 115.314 81.46C111.8 78.2616 107.022 75.9722 99.544 73.6265C98.2353 73.2173 96.8516 72.805 95.3711 72.3865C95.5492 73.1767 95.6522 73.945 95.6866 74.6822C95.7366 75.8191 95.6241 76.8842 95.3368 77.84C95.065 77.9618 94.7964 78.0492 94.5278 78.1086C92.8068 78.4772 91.1389 77.5901 89.6771 76.3251C88.8993 75.6536 88.181 74.8758 87.5407 74.12C85.12 71.2651 82.0996 68.3229 78.5233 66.0084C76.4212 64.6466 74.1255 63.5096 71.6517 62.7288C71.5986 62.7132 71.5487 62.6913 71.4956 62.6757C64.0711 60.3893 55.8659 62.8912 48.1041 65.5149C46.6955 65.9897 45.2993 66.4707 43.9281 66.9267C33.9706 70.2344 27.0803 61.7012 27.0803 61.7012C27.0803 61.7012 29.351 70.8091 41.7698 75.5505C42.4819 75.8222 43.2222 76.0815 44.003 76.322C45.3368 76.7312 46.6174 77.0154 47.8574 77.2028C48.2072 77.2559 48.5508 77.2996 48.8912 77.3371C51.9272 77.6776 54.7102 77.4777 57.3807 77.234C64.7271 76.5656 71.1957 75.5786 79.5884 84.6584L79.3947 84.7553C79.3947 84.7553 75.4529 89.4311 67.9504 88.8688C67.9504 88.8688 70.9958 86.9229 72.0265 83.812C68.1847 80.3262 66.4293 81.1383 63.5433 81.1383C61.9847 81.1383 60.3449 81.2914 58.6082 81.4507C56.7092 81.6287 54.7508 81.8067 52.6237 81.8286C47.7949 86.5481 43.9312 90.6679 41.2357 95.8247V88.391C40.8734 88.7314 40.5079 89.0687 40.1456 89.4186C33.3459 95.9996 28.0267 100.878 24.594 107.447V100.013C24.2317 100.354 23.8631 100.691 23.5039 101.038C18.5845 105.801 14.4522 110.814 11.2382 115.712C11.2351 115.712 11.2351 115.712 11.2319 115.712V115.715C11.7036 116.639 12.2221 117.517 12.7843 118.342C12.8061 118.376 12.8311 118.41 12.853 118.442C12.9623 118.601 13.0748 118.757 13.1903 118.913C13.2278 118.963 13.2653 119.016 13.3028 119.066C13.4058 119.204 13.5089 119.338 13.612 119.472C13.6557 119.529 13.6995 119.585 13.7432 119.641C13.8494 119.772 13.9556 119.9 14.0618 120.028C14.1055 120.078 14.1461 120.131 14.1898 120.178C14.3398 120.35 14.4897 120.522 14.6427 120.687L38.0092 102.612C38.0092 102.612 29.6259 114.559 25.7497 126.781C30.7472 130.001 35.8665 135.72 39.1305 140.196C45.4711 133.868 59.2267 125.269 71.2113 123.327C65.8421 120.225 59.917 112.997 63.1685 107.763C65.283 113.385 72.0453 118.62 81.0158 121.921C81.9216 122.255 82.8461 122.568 83.7925 122.858C87.575 124.023 91.395 124.745 95.0057 125.007C100.15 125.385 104.863 124.835 108.43 123.305C109.042 122.621 109.748 121.959 110.573 121.334C111.369 120.734 112.275 120.172 113.322 119.666C114.415 119.135 115.658 118.666 117.085 118.279C116.695 117.629 115.858 117.055 114.777 116.664C113.909 116.352 112.881 116.158 111.794 116.14C111.794 116.14 112.934 115.165 115.052 114.9C117.763 114.556 122.073 115.371 127.642 120.862C133.505 126.644 156.019 141.252 168.75 141.252C174.9 141.252 178.739 139.234 181.706 136.673C181.706 136.673 186.091 134.471 182.718 129.998L181.9 129.033L175.737 125.647C176.999 126.719 177.92 127.827 178.389 128.861ZM101.471 111.098C101.434 111.514 101.359 111.926 101.237 112.332C101.165 112.563 101.078 112.782 100.981 112.997C100.59 111.876 99.9064 110.73 98.9756 109.596C95.7647 105.673 89.624 101.881 82.5557 99.704C77.6768 98.2017 72.9323 97.6738 68.9656 98.0111C72.7106 95.1938 79.4666 94.5004 86.4225 96.6431C87.4782 96.9679 88.5058 97.349 89.4959 97.7738L86.6817 94.2224C97.5263 97.5051 100.881 107.644 100.881 107.644V107.65C101.356 108.809 101.571 109.974 101.471 111.098ZM124.681 107.107C121.973 108.359 116.664 107.75 112.847 106.432C112.472 106.301 112.103 106.16 111.747 106.01C108.224 104.524 105.628 102.05 104.629 99.4729C104.11 98.1361 104.02 96.7711 104.46 95.4999C104.463 95.4936 104.467 95.4874 104.47 95.4812C104.835 96.3307 105.322 97.1616 105.938 97.9643C107.84 100.441 110.754 102.45 114.146 103.621C116.511 104.439 118.984 104.798 121.296 104.661C123.017 104.561 124.582 104.196 125.937 103.611L144.365 111.945L124.681 107.107Z" fill="#C8C8C8"/>
<path d="M141.423 93.9505C139.702 91.7829 141.257 88.0347 141.257 88.0347L139.74 85.2986C134.052 75.06 120.359 66.2331 104.46 61.7416C102.692 61.2419 100.912 60.8015 99.1348 60.4204C95.2461 55.5197 89.5427 50.0662 81.9965 47.405C77.5425 45.834 72.9011 45.759 68.4252 46.2775C64.0742 46.7804 59.6452 47.8861 55.3411 48.9105C46.5923 50.997 40.0768 52.1527 35.4354 48.9168L29.8195 45C29.8195 45 31.2844 52.971 32.1402 54.8014C32.3838 55.323 32.6774 55.8946 33.0335 56.5067C28.9699 55.9164 22.4013 53.6082 22.2076 53.5395L17.2695 51.7779L20.1555 63.4189C20.3461 64.1873 22.52 72.1458 31.6279 78.3052C21.8672 84.3959 11.7348 91.6329 3.09845 98.6919L0 101.228L0.549726 105.192C1.93341 115.181 7.49625 127.537 17.1508 131.026C19.3341 131.816 23.5507 134.774 27.783 138.909C25.8371 139.787 24.4784 141.739 24.4784 144.013C24.4784 147.105 26.9865 149.613 30.0787 149.613C32.0371 149.613 33.7612 148.604 34.7607 147.08C35.5229 148.18 36.235 149.307 36.8753 150.454L39.1336 154.501L41.6823 150.632C46.7579 142.932 61.1319 133.39 80.7846 130.273L81.0876 130.367C88.5682 132.616 95.6053 133.562 101.218 132.925C104.698 133.796 142.582 143.482 152.168 146.109C155.047 147.933 181.9 155.976 189.796 140.896C192.413 138.419 194.615 135.389 196.152 133.015C197.795 130.479 200 126.119 200 126.119L141.423 93.9505ZM28.8325 142.561H27.8861V146.377H27.0334V142.561H26.0901V141.808H28.8293V142.561H28.8325ZM33.3833 146.377L33.2396 145.006L33.0616 143.288L32.6555 144.26L31.7716 146.374H31.5124L30.2661 143.288L29.9007 146.374H29.0636L29.7601 141.802H30.5691H30.6628L30.7284 141.977L31.6529 144.435L32.0309 143.485L32.7024 141.802H33.6176L34.2298 146.312L34.2391 146.374H33.3833V146.377ZM187.541 139.14C178.473 153.471 151.993 142.932 151.568 142.676C144.634 141.086 104.885 130.938 101.39 130.057C96.2331 130.751 89.4178 129.923 81.9028 127.662C81.5967 127.571 81.3 127.478 81.0032 127.384C60.5104 130.473 45.0306 140.421 39.3303 149.073C38.2652 147.168 37.0127 145.303 35.6509 143.523C34.3203 141.783 32.8804 140.118 31.4093 138.575C26.418 133.334 21.0395 129.436 18.1034 128.374C9.98251 125.438 4.67891 114.503 3.33271 104.801L3.00162 102.403L4.87881 100.869C14.6208 92.9073 26.2806 84.7208 37.1283 78.2396C25.4467 72.505 22.9979 63.1878 22.8854 62.7411L21.2612 56.1882C21.2612 56.1882 30.4285 59.4553 34.6327 59.4553C35.8415 59.4553 37.1283 59.3085 38.4745 59.0586C34.5796 54.9731 33.8268 51.225 33.8268 51.225C45.5616 59.4084 65.461 44.5596 81.0595 50.06C88.3058 52.6149 93.8156 58.0685 97.5481 62.9691C99.6002 63.3814 101.655 63.8749 103.695 64.4497C119.237 68.8412 132.106 77.3526 137.278 86.6635L138.197 88.319C138.197 88.319 136.422 92.5231 139.487 96.0963L196.258 127.271C196.261 127.274 192.572 134.543 187.541 139.14Z" fill="#C8C8C8"/>
<path d="M26.0898 142.561H27.0331V146.378H27.8858V142.561H28.8322V141.809H26.0898V142.561Z" fill="#006937"/>
<path d="M33.608 141.809H32.6928L32.0244 143.492L31.6465 144.439L30.7219 141.984L30.6563 141.809H30.5626H29.7537L29.0571 146.378H29.8973L30.2628 143.292L31.509 146.378H31.7683L32.6553 144.264L33.0614 143.292L33.2394 145.01L33.3831 146.378H34.2264L34.217 146.319L33.608 141.809Z" fill="#006937"/>
<path d="M109.595 87.6727L109.536 88.6347C109.236 93.5791 111.26 96.7151 115.914 98.5079C117.378 99.0701 119.452 99.37 121.914 99.37C126.386 99.3356 129.501 99.6198 132.021 101.638C131.521 100.123 130.647 99.1388 129.644 98.5079C129.497 98.4142 129.347 98.3299 129.198 98.2518C125.965 96.5964 124.715 94.1164 123.616 91.9268C123.419 91.5395 123.226 91.1491 123.019 90.768C122.007 88.894 120.833 87.6352 119.652 86.7794C118.119 85.6675 116.573 85.2302 115.342 84.9928C114.105 84.7585 112.874 84.6367 111.688 84.6367C111.172 84.6367 110.676 84.6648 110.188 84.7086C109.967 84.7273 109.745 84.7492 109.529 84.7773C107.793 84.9959 106.259 85.4582 104.941 86.0079C106.115 86.2328 107.408 86.617 108.723 87.251L109.595 87.6727ZM116.491 90.0122C117.194 90.3464 119.549 91.6051 119.674 93.1668C119.715 93.6603 119.293 94.0258 118.818 93.8321C118.943 95.6749 120.474 95.9998 121.745 96.0185C117.4 98.7078 111.559 93.0107 116.491 90.0122Z" fill="#006937"/>
<path d="M139.489 96.1006C136.425 92.5273 138.199 88.3232 138.199 88.3232L137.281 86.6678C132.109 77.3568 119.24 68.8454 103.698 64.4539C101.658 63.8792 99.603 63.3857 97.5509 62.9734C93.8152 58.0758 88.3086 52.6192 81.0622 50.0642C65.4638 44.5638 45.5644 59.4127 33.8296 51.2292C33.8296 51.2292 34.5824 54.9805 38.4773 59.0628C37.128 59.3127 35.8411 59.4595 34.6355 59.4595C30.4313 59.4595 21.264 56.1924 21.264 56.1924L22.8882 62.7454C23.0006 63.1951 25.4494 72.5092 37.1311 78.2439C26.2834 84.725 14.6205 92.9115 4.88158 100.873L3.00439 102.407L3.33548 104.806C4.67856 114.51 9.98528 125.445 18.1062 128.378C21.0454 129.44 26.4208 133.338 31.4121 138.579C32.8832 140.125 34.32 141.787 35.6537 143.527C37.0155 145.307 38.268 147.172 39.3331 149.077C45.0334 140.425 60.51 130.477 81.006 127.388C81.3027 127.482 81.5995 127.572 81.9056 127.666C89.4206 129.924 96.2359 130.752 101.393 130.062C104.888 130.943 144.637 141.091 151.571 142.68C151.996 142.937 178.476 153.475 187.543 139.145C192.575 134.547 196.261 127.279 196.261 127.279L139.489 96.1006ZM111.816 126.667C112.353 126.004 113.181 125.292 114.136 124.608L119.755 125.783L116.904 122.893C118.54 122.016 120.136 121.391 121.077 121.332C128.348 128.135 138.084 133.882 138.084 133.882C138.084 133.882 124.719 129.578 111.816 126.667ZM181.896 129.031C182.209 129.365 182.48 129.687 182.715 129.996C186.088 134.469 181.703 136.671 181.703 136.671C178.735 139.232 174.897 141.25 168.747 141.25C156.015 141.25 133.505 126.642 127.639 120.86C122.07 115.369 117.76 114.557 115.048 114.897C112.931 115.166 111.791 116.137 111.791 116.137C112.878 116.156 113.905 116.35 114.774 116.662C115.857 117.053 116.691 117.624 117.082 118.277C115.654 118.664 114.411 119.133 113.318 119.664C112.272 120.17 111.366 120.732 110.569 121.332C109.745 121.953 109.039 122.615 108.427 123.303C104.86 124.83 100.146 125.383 95.0021 125.005C91.3914 124.739 87.5746 124.021 83.789 122.856C82.8426 122.565 81.9149 122.25 81.0123 121.919C72.0417 118.621 65.2795 113.383 63.1649 107.76C59.9103 112.998 65.8355 120.223 71.2078 123.324C59.2263 125.267 45.4675 133.866 39.127 140.194C35.8598 135.715 30.7436 129.996 25.7461 126.779C29.6255 114.557 38.0056 102.61 38.0056 102.61L14.6392 120.685C12.4028 118.274 10.6225 115.079 9.50114 111.452C8.63908 108.95 7.87383 106.149 7.60522 104.209C16.2759 97.1219 29.8816 87.5392 42.3004 80.3085C42.4409 80.3522 42.5784 80.399 42.722 80.4428C42.9875 80.524 43.253 80.5989 43.5185 80.6708C46.2984 81.4485 49.1626 81.8296 52.2454 81.8296C52.3672 81.8296 52.489 81.8264 52.6077 81.8264C54.7348 81.8077 56.6963 81.6265 58.5922 81.4485C60.3289 81.2861 61.9687 81.1362 63.5273 81.1362C66.4133 81.1362 68.1687 80.3241 72.0105 83.8098C70.9767 86.9208 67.9344 88.8667 67.9344 88.8667C75.4369 89.4289 79.3787 84.7531 79.3787 84.7531L79.5724 84.6563C71.1828 75.5733 64.7142 76.5603 57.3647 77.2319C54.6973 77.4755 51.9112 77.6754 48.8752 77.3349C48.5348 77.2975 48.1881 77.2537 47.8413 77.2006C46.6013 77.0132 45.3207 76.7321 43.987 76.3198C43.2062 76.0793 42.4659 75.8201 41.7538 75.5483C29.335 70.807 27.0642 61.699 27.0642 61.699C31.4745 64.5726 36.8219 64.0666 42.5971 62.5392C52.3703 59.9561 63.3586 54.4526 73.0881 57.448C73.4286 57.5511 73.7628 57.6666 74.0938 57.7822C74.1594 57.8041 74.225 57.8291 74.2906 57.8509C74.6092 57.9665 74.9216 58.0883 75.2339 58.2133C75.2964 58.2382 75.3588 58.2664 75.4244 58.2913C75.7243 58.4163 76.021 58.5443 76.3146 58.6786C76.3396 58.6911 76.3677 58.7005 76.3927 58.713C76.7019 58.8567 77.0049 59.0035 77.3047 59.1565C77.3735 59.1909 77.4422 59.2252 77.5078 59.2596C77.8014 59.4095 78.0887 59.5657 78.3761 59.725C78.4354 59.7562 78.4916 59.7906 78.551 59.8249C78.8165 59.9749 79.0788 60.131 79.3381 60.2872C79.3787 60.3122 79.4193 60.3341 79.4599 60.3591C79.741 60.5308 80.0159 60.7089 80.2876 60.8869C80.3532 60.9306 80.4219 60.9744 80.4875 61.0181C80.728 61.1774 80.9654 61.3398 81.2028 61.5054C81.2309 61.5241 81.2559 61.5428 81.284 61.5647C81.334 61.5991 81.384 61.6365 81.4339 61.674C81.6744 61.8458 81.9087 62.0207 82.1429 62.1956C82.1898 62.23 82.2366 62.2644 82.2804 62.2987C82.5365 62.4924 82.7864 62.6891 83.0331 62.889C83.0956 62.939 83.1549 62.989 83.2174 63.039C83.4642 63.2389 83.7078 63.4419 83.9483 63.648C83.9858 63.6824 84.0233 63.7136 84.0639 63.748C84.2856 63.9385 84.5043 64.129 84.7198 64.3227C84.7666 64.3633 84.8104 64.4039 84.8572 64.4476C85.0883 64.6569 85.3164 64.8693 85.5412 65.0848C85.5943 65.1348 85.6443 65.1848 85.6974 65.2347C85.8723 65.4003 86.0441 65.569 86.2128 65.7345C86.2565 65.7782 86.3034 65.8251 86.3502 65.8688C86.3565 65.875 86.3658 65.8844 86.3721 65.8907C86.3939 65.9125 86.4127 65.9344 86.4345 65.9563C86.6469 66.1686 86.8531 66.381 87.0561 66.5934C87.0967 66.634 87.1373 66.6778 87.1748 66.7184C87.3872 66.9401 87.5933 67.1619 87.7995 67.3837C87.8401 67.4274 87.8807 67.4711 87.9182 67.5149C88.343 67.9802 88.7521 68.4456 89.1426 68.911C89.1738 68.9454 89.205 68.9829 89.2332 69.0172C89.4268 69.2452 89.6142 69.4732 89.7985 69.7013C89.8235 69.7325 89.8485 69.7606 89.8735 69.7918C90.2576 70.2666 90.6231 70.7351 90.9729 71.1943C90.9885 71.2161 91.0073 71.2411 91.026 71.263C91.2009 71.4941 91.3727 71.7252 91.5414 71.9533C91.5476 71.9626 91.5539 71.972 91.5601 71.9782C91.9068 72.453 92.2348 72.9153 92.544 73.3651C92.544 73.3682 92.5471 73.3682 92.5471 73.3713C92.9875 74.0116 93.3873 74.6207 93.7465 75.1891C94.4087 76.2324 94.9334 77.135 95.3145 77.8222C95.6018 76.8664 95.7174 75.8013 95.6643 74.6644C95.63 73.9273 95.5269 73.1589 95.3488 72.3687C94.9272 70.4977 94.1026 68.505 92.8595 66.5216C92.8595 66.5185 92.8563 66.5185 92.8563 66.5154C94.0058 66.684 95.1677 66.8839 96.339 67.1151C96.364 67.1213 96.3889 67.1244 96.4139 67.1307C96.8668 67.2212 97.3197 67.315 97.7758 67.4118C97.832 67.4243 97.8851 67.4336 97.9413 67.4461C98.3692 67.5398 98.794 67.6367 99.225 67.7397C99.3062 67.7585 99.3874 67.7772 99.4655 67.796C99.8809 67.8959 100.299 68.0021 100.718 68.1083C100.809 68.1302 100.896 68.152 100.987 68.177C101.015 68.1833 101.04 68.1895 101.068 68.1989C101.546 68.3238 102.024 68.455 102.502 68.5893C111.819 71.2224 119.874 75.3203 125.69 79.9867C123.322 79.5276 119.346 79.79 116.641 81.4485C116.513 81.5266 116.385 81.6016 116.267 81.6859C116.735 81.6578 117.204 81.6359 117.681 81.6359C117.963 81.6359 118.244 81.6422 118.522 81.6515C125.356 81.8795 131.1 84.8812 133.402 89.026C133.367 89.1384 133.33 89.2477 133.299 89.3602C132.333 92.7741 134.414 96.6878 136.594 99.4301L190.351 128.809C188.028 130.493 181.896 129.031 181.896 129.031Z" fill="#006937"/>
</svg>
