<?xml version="1.0" encoding="UTF-8"?>
<svg width="200px" height="200px" viewBox="0 0 200 200" version="1.1" xmlns="http://www.w3.org/2000/svg" xmlns:xlink="http://www.w3.org/1999/xlink">
    <!-- Generator: Sketch 54.1 (76490) - https://sketchapp.com -->
    <title>edgewood</title>
    <desc>Created with Sketch.</desc>
    <g id="edgewood" stroke="none" stroke-width="1" fill="none" fill-rule="evenodd">
        <g id="edgewood_BGL">
            <g id="edgewood" transform="translate(4.000000, 0.000000)">
                <path d="M0,0 L188.358209,0 C188.238806,20.9552239 186.985075,41.9701493 183.522388,62.6865672 C183.462687,63.4626866 183.044776,64.6567164 183.761194,65.1940299 C185.19403,66.7462687 186.865672,68.0597015 188.179104,69.7313433 C190.268657,72.1791045 191.641791,74.9253731 192.835821,77.9104478 L192.835821,89.8507463 C191.164179,94.1492537 189.61194,98.2089552 186.447761,101.671642 C182.029851,106.38806 176.298507,110.089552 170.925373,113.61194 C170.208955,114.029851 169.970149,114.626866 169.671642,115.283582 C161.313433,137.074627 149.253731,157.910448 132.955224,174.746269 C122.865672,185.19403 111.223881,194.029851 97.9701493,200 L96.2985075,200 C93.5522388,198.686567 90.6865672,197.61194 88,196.179104 C75.2238806,189.61194 64.0597015,180.716418 54.1492537,170.328358 C35.0447761,150.208955 21.9104478,124.895522 13.5522388,98.5671642 C5.73134328,73.9701493 1.79104478,47.8208955 0.47761194,22.0895522 C0.23880597,18.6268657 0.298507463,15.1641791 0,11.7014925 L0,0 Z" id="Shape" fill="#BCBEC0" fill-rule="nonzero"></path>
                <path d="M6.62686567,6.02985075 C8.59701493,5.91044776 10.5671642,5.97014925 12.5373134,5.97014925 C69.1343284,5.97014925 125.731343,5.97014925 182.268657,5.97014925 C182.38806,8.7761194 182.38806,11.5223881 182.328358,14.3283582 C182.029851,29.9701493 180.895522,45.7313433 178.447761,61.1940299 C176,60.0597015 173.910448,58.9253731 172.41791,56.5373134 C174.208955,42.3880597 174.865672,28.119403 174.985075,13.8507463 C121.61194,13.9104478 68.238806,13.8507463 14.8656716,13.9104478 C14.7462687,27.5820896 15.5820896,41.3134328 17.3134328,54.8656716 C17.3134328,55.641791 17.2537313,56.358209 17.2537313,57.1343284 C15.641791,58.0895522 13.6119403,58.8656716 13.0746269,60.8955224 C12.358209,62.8059701 13.2537313,65.1343284 15.0447761,66.0895522 C16.119403,66.6268657 17.4328358,66.6865672 18.6268657,66.9253731 C17.4328358,68.4179104 16.119403,69.5522388 16.238806,71.641791 C16.358209,74.6268657 18.8059701,76.0597015 21.2537313,77.1940299 C21.7910448,79.5223881 22.3283582,81.8507463 22.9253731,84.1791045 C20.7761194,86.1492537 18.8059701,88.2985075 17.0149254,90.5671642 C9.49253731,62.9850746 6.56716418,34.6268657 6.62686567,6.02985075 Z" id="Shape" fill="#FFFFFF" fill-rule="nonzero"></path>
                <path d="M14.9253731,13.9104478 C68.2985075,13.8507463 121.671642,13.9104478 175.044776,13.8507463 C174.865672,28.119403 174.268657,42.3880597 172.477612,56.5373134 C171.343284,55.641791 170.089552,55.0447761 168.716418,54.5671642 C165.61194,53.4328358 162.38806,52.4776119 159.104478,51.8208955 C159.343284,49.7910448 160.776119,46.9850746 160.41791,45.0746269 C158.029851,44.0597015 155.522388,43.1641791 153.134328,42.2089552 C138.328358,37.2537313 122.865672,33.7910448 107.223881,32.4179104 C107.104478,32.238806 106.925373,32.0597015 106.80597,31.8208955 C103.343284,26.6268657 100.238806,21.1940299 96.8358209,15.9402985 L96.5970149,15.8208955 C93.4328358,21.1343284 90.1492537,26.3283582 86.9253731,31.641791 C71.1044776,32.4776119 55.3432836,36.238806 40.5373134,41.7910448 C37.3731343,43.1044776 33.7313433,44.358209 31.1641791,46.6865672 C29.3134328,48.4179104 29.5522388,50.8656716 30.5671642,53.0149254 C26.2686567,54.0895522 21.9701493,55.5223881 17.7313433,57.0149254 C17.6119403,56.2985075 17.4925373,55.5820896 17.3134328,54.8656716 C15.7014925,41.3134328 14.8656716,27.5820896 14.9253731,13.9104478 Z" id="Shape" fill="#231F20" fill-rule="nonzero"></path>
                <path d="M96.5970149,15.8208955 L96.8358209,15.9402985 C100.179104,21.1940299 103.343284,26.6268657 106.80597,31.8208955 C105.313433,32.358209 103.820896,32.119403 102.268657,32 C102.089552,31.761194 101.850746,31.4626866 101.671642,31.2238806 C99.9402985,28.5373134 98.3880597,25.7910448 96.6567164,23.1641791 C94.7462687,25.8507463 93.1343284,28.8358209 91.3432836,31.641791 C89.8507463,31.641791 88.4179104,31.641791 86.9253731,31.641791 C90.1492537,26.3880597 93.4328358,21.1343284 96.5970149,15.8208955 Z" id="Shape" fill="#FFFFFF" fill-rule="nonzero"></path>
                <path d="M96.6567164,23.1641791 C98.3880597,25.8507463 99.9402985,28.5970149 101.671642,31.2238806 L101.910448,31.9402985 C101.19403,31.9402985 100.41791,31.880597 99.7014925,31.880597 C98.6865672,30.2089552 97.6716418,28.5373134 96.5970149,26.9253731 C95.5223881,28.4776119 94.5671642,30.0298507 93.6716418,31.641791 C92.8955224,31.641791 92.119403,31.641791 91.2835821,31.641791 C93.1343284,28.8358209 94.7462687,25.8507463 96.6567164,23.1641791 Z" id="Shape" fill="#231F20" fill-rule="nonzero"></path>
                <path d="M96.6567164,26.9253731 C97.7313433,28.5373134 98.7462687,30.2089552 99.761194,31.880597 C97.7313433,31.8208955 95.761194,31.7014925 93.7313433,31.641791 C94.6268657,30.0298507 95.5820896,28.4179104 96.6567164,26.9253731 Z" id="Shape" fill="#B30738" fill-rule="nonzero"></path>
                <path d="M84.7761194,36.4179104 C91.641791,35.880597 98.8059701,36.4179104 105.671642,36.8358209 C121.552239,38.1492537 137.134328,41.5522388 152.238806,46.5671642 C153.61194,47.0447761 154.985075,47.641791 156.298507,48.1791045 C155.641791,50.7462687 154.80597,53.2537313 154.029851,55.8208955 C155.940299,55.8208955 157.850746,55.9402985 159.701493,56.4776119 C162.985075,57.3731343 166.447761,58.2089552 169.492537,59.7014925 C170.80597,60.2985075 170.567164,61.9701493 172,62.5671642 C177.492537,65.4328358 182.507463,68.9552239 186.328358,73.9701493 C188.656716,77.0746269 189.970149,80.7761194 189.791045,84.6567164 C189.313433,91.2238806 186.268657,98.0298507 180.955224,102.149254 C177.014925,105.432836 172.716418,108.537313 168.179104,110.985075 C168.776119,110.208955 169.373134,109.492537 169.970149,108.776119 C169.731343,106.925373 169.850746,104.537313 168.537313,103.044776 C166.208955,100.179104 163.104478,97.5522388 159.402985,96.8955224 C149.850746,94.8656716 139.402985,96.2985075 130.149254,99.1641791 C120.059701,102.447761 110.328358,106.985075 100.835821,111.58209 C94.2089552,114.686567 87.5223881,118.985075 82.8656716,124.716418 C79.4626866,128.895522 77.4328358,133.910448 77.9701493,139.343284 C73.0149254,138.925373 68.0597015,137.910448 63.1641791,136.895522 C54.5671642,135.044776 45.9701493,132.895522 37.6119403,130.268657 C35.8208955,129.671642 33.6716418,129.014925 32.358209,127.641791 C31.5820896,126.80597 31.9402985,125.432836 32.8358209,124.776119 C34.6268657,123.462687 37.0149254,123.343284 38.2089552,121.253731 C36.6567164,120.41791 34.5671642,120.597015 32.8358209,120.059701 C31.5820896,119.701493 29.7910448,119.343284 29.8507463,117.671642 C30.3283582,116.358209 31.641791,115.343284 32.7164179,114.507463 C35.761194,112.298507 39.1044776,110.447761 42.4477612,108.776119 C36.8955224,109.014925 31.641791,110.149254 25.9701493,109.61194 C24.2985075,109.492537 25.3731343,107.343284 26.0895522,106.686567 C30.4477612,102.029851 37.3134328,99.7014925 43.0447761,97.3731343 C45.7910448,96.2985075 48.4179104,95.4626866 50.8059701,93.6716418 C48.6567164,92.4179104 46.5671642,92.7164179 44.238806,92.7761194 C37.6716418,93.1940299 30.9850746,94.4477612 24.5373134,95.7014925 C23.4626866,95.880597 21.3731343,96.119403 20.8358209,94.9253731 C20.9552239,92.8955224 23.1044776,90.9253731 24.4776119,89.4925373 C30.5671642,84 37.7910448,79.5820896 44.8955224,75.4626866 C40.8955224,75.1641791 36.8955224,74.8059701 32.8955224,74.9253731 C29.3134328,74.9850746 25.6119403,74.8656716 22.3283582,73.3134328 C21.5522388,73.0149254 21.1940299,72.358209 20.7164179,71.7014925 C26.3283582,69.4328358 32.8955224,68.4179104 38.2089552,65.4925373 L38.0298507,64.8955224 C34.6865672,64.358209 31.2238806,64.119403 27.880597,63.5820896 C29.7910448,62.8656716 31.761194,62.5074627 33.6119403,61.6119403 C28.119403,61.3134328 22.6865672,63.3432836 17.2537313,62.9850746 C19.3432836,61.1940299 22.4477612,60.5970149 25.0149254,59.641791 C38.5074627,55.5820896 52.358209,52.1791045 66.3880597,50.4477612 C55.7014925,50.5074627 44.8955224,51.4626866 34.2089552,50.9253731 C34.9850746,49.5522388 36.238806,49.0149254 37.6119403,48.358209 C41.3134328,46.5671642 45.2537313,45.1940299 49.1343284,43.880597 C60.5970149,40.119403 72.6567164,37.3134328 84.7761194,36.4179104 Z" id="Shape" fill="#231F20" fill-rule="nonzero"></path>
                <path d="M83.1044776,39.2238806 C92.358209,38.4477612 101.791045,39.2238806 110.985075,40.358209 C124.776119,42.2089552 138.38806,45.4328358 151.58209,49.8507463 C150.507463,51.8208955 149.253731,54.9253731 146.80597,55.4626866 C142.447761,55.880597 138.029851,53.3731343 133.850746,52.2985075 C125.19403,49.9701493 115.820896,49.3731343 106.865672,48.8955224 C99.2835821,48.5970149 91.761194,48.5970149 84.1791045,48.7164179 C73.2537313,48.5970149 62.2686567,48.7164179 51.3432836,48.6567164 C49.9104478,48.6567164 48.4179104,48.5373134 47.0447761,48.2985075 C48.6567164,46.6268657 50.9850746,46.0298507 53.0746269,45.2537313 C62.6865672,41.9701493 72.9552239,40.119403 83.1044776,39.2238806 Z" id="Shape" fill="#FFFFFF" fill-rule="nonzero"></path>
                <path d="M108.059701,52.4776119 C110.80597,52.7164179 113.253731,52.358209 115.761194,53.7910448 C118.38806,55.2835821 121.552239,56.4776119 123.641791,58.6268657 C120.597015,58.8656716 117.61194,58.5671642 114.567164,58.3880597 C107.343284,58.0298507 100.179104,57.3731343 93.0149254,56.8955224 C99.8208955,58.8656716 107.044776,60.7164179 113.671642,63.4029851 C115.283582,64.119403 116.776119,64.5373134 117.731343,66.1492537 C115.402985,66.9850746 113.074627,67.2238806 110.626866,67.5223881 C100.358209,68.5970149 90.2089552,68.9552239 79.880597,69.4328358 C76.7761194,69.5522388 73.6119403,69.7313433 70.5074627,69.6716418 L70.4477612,70.0895522 C78.5074627,70.6865672 86.6865672,71.4626866 94.6865672,72.5970149 C97.7910448,73.0746269 100.835821,73.4925373 103.761194,74.7462687 C103.343284,75.4626866 102.985075,76.1791045 102.268657,76.6567164 C99.4626866,78.8656716 96.0597015,80.5970149 92.8955224,82.0895522 C86.8059701,84.8955224 80.358209,86.9850746 73.7910448,88.1791045 C69.0149254,89.0746269 64.2985075,90.0298507 59.5820896,90.9850746 C58.6268657,91.1044776 57.7910448,91.5223881 57.0746269,92.238806 C60.8955224,92.4179104 65.0149254,91.5223881 68.7164179,92.358209 C65.1940299,94.6865672 61.0746269,96.0597015 57.4925373,98.3283582 C68,96.5373134 78.4477612,94.4477612 88.9552239,92.7164179 C86.9850746,94.2686567 84.7761194,95.641791 82.6865672,97.0149254 C70.5671642,104.895522 58.2686567,112.537313 46.0298507,120.298507 C52.1791045,118.80597 58.2686567,117.313433 64.4179104,115.880597 C59.7014925,119.044776 54.7462687,121.910448 50.0298507,125.074627 C57.6119403,122.925373 65.1940299,120.716418 72.7761194,118.507463 C68.2985075,122.746269 63.5820896,126.80597 58.9253731,130.925373 C52.238806,129.731343 45.6119403,128.298507 38.9850746,126.746269 C38.2089552,126.447761 37.4328358,126.507463 37.5522388,125.373134 C39.0447761,123.701493 41.7313433,123.104478 43.5223881,121.731343 C44.119403,121.014925 44.4776119,119.880597 43.5223881,119.283582 C41.3134328,117.970149 37.4925373,119.283582 35.4626866,117.552239 C35.1641791,116.656716 36.238806,115.641791 36.8358209,115.044776 C41.1940299,111.223881 46.6865672,108.41791 51.3432836,105.373134 C46.7462687,106.029851 42.1492537,106.626866 37.5522388,107.044776 C35.4626866,107.164179 33.4925373,107.343284 31.4626866,106.746269 C31.9402985,105.970149 32.358209,105.253731 33.1940299,104.835821 C36.8955224,102.686567 41.4328358,101.61194 45.1940299,99.7014925 C48.5373134,98.0298507 52.1791045,96.358209 55.1044776,93.9701493 C55.880597,93.4328358 56.0597015,92.6567164 56.4179104,91.8208955 C52.5373134,90.1492537 47.5820896,90.5671642 43.4029851,90.6865672 C39.641791,90.9253731 35.8208955,91.0447761 32.0597015,91.641791 C31.1641791,91.761194 30.0895522,92 29.2537313,91.641791 C28.5970149,90.6865672 29.8507463,89.6716418 30.4477612,89.0149254 C36.238806,83.1641791 43.7014925,78.6268657 50.6268657,74.1492537 C42.6865672,72.1791045 35.3432836,73.0149254 27.2835821,72.4179104 C26.6268657,72.358209 25.9701493,72.1791045 25.3731343,71.9402985 C31.641791,69.9701493 38.2089552,68.2985075 44.119403,65.6716418 C45.1343284,65.2537313 45.6119403,64.8358209 46.1492537,63.9402985 C42.6865672,63.4029851 39.1044776,63.2238806 35.641791,62.9253731 C38.9850746,61.7313433 43.0447761,61.1940299 45.9701493,59.1044776 C41.3731343,58.6268657 36.7164179,60.4179104 32.238806,60.119403 C46.2686567,56.4179104 60.7761194,53.7910448 75.2238806,52.4776119 C86.1492537,51.9402985 97.1343284,51.9402985 108.059701,52.4776119 Z" id="Shape" fill="#FFFFFF" fill-rule="nonzero"></path>
                <path d="M120.537313,53.4925373 C125.313433,54.0895522 130.029851,55.1641791 134.746269,56.119403 C135.223881,58.2686567 135.701493,60.4179104 137.492537,61.9104478 C138.985075,63.1044776 141.19403,63.4626866 142.626866,61.9701493 C143.761194,60.8955224 143.940299,59.641791 144.179104,58.1492537 C145.014925,58.4477612 145.791045,58.7462687 146.626866,59.0447761 C146.029851,60.8358209 145.19403,62.3880597 143.58209,63.4029851 C140.41791,65.3134328 136.298507,65.1940299 133.19403,63.2238806 C130.38806,61.4925373 128.238806,58.5671642 125.731343,56.358209 C124.179104,55.1641791 122.208955,54.5074627 120.537313,53.4925373 Z" id="Shape" fill="#FFFFFF" fill-rule="nonzero"></path>
                <path d="M155.223881,59.880597 C158.626866,59.761194 162.149254,61.0149254 165.134328,62.5074627 C165.134328,63.3432836 165.074627,64.119403 165.074627,64.9552239 C163.283582,64.238806 161.731343,62.8059701 159.880597,64.358209 C158.149254,66.0298507 156.656716,67.8208955 154.746269,69.3134328 C156.298507,68.358209 157.791045,67.2238806 159.701493,67.0447761 C161.19403,66.9253731 162.686567,66.9850746 164.119403,66.9253731 C161.731343,70.3880597 158.626866,73.4925373 155.820896,76.5970149 C160.955224,73.2537313 165.791045,70.3283582 169.432836,65.2537313 C173.910448,67.5223881 178.746269,70.2686567 182.149254,73.9701493 C186.089552,78.2089552 186.865672,84.6567164 185.313433,90.0895522 C183.462687,96.7761194 178.328358,102.447761 173.014925,106.686567 C174.208955,103.044776 174.149254,99.3432836 173.910448,95.5820896 C173.791045,94.8059701 173.850746,93.7313433 173.014925,93.3134328 C171.522388,92.4179104 169.850746,91.761194 168.238806,91.0447761 C161.134328,88.2985075 153.910448,86.3283582 146.268657,85.9701493 C140.119403,85.6716418 133.671642,85.6716418 127.641791,86.9253731 C135.761194,87.641791 144.955224,87.3432836 152.895522,89.4925373 C158.328358,90.9850746 163.641791,92.8358209 168.776119,95.1044776 C171.044776,95.761194 170.507463,98.4477612 170.985075,100.238806 C168.298507,97.0149254 164.776119,94.8059701 160.835821,93.4925373 C154.626866,91.3432836 147.940299,90.4477612 141.373134,89.8507463 C131.283582,88.8955224 121.253731,90.5074627 111.462687,93.0149254 C117.61194,88.238806 124.776119,84.7164179 132.119403,82.2686567 C137.313433,80.5373134 142.567164,80 148,79.7014925 C143.761194,76.4179104 138.985075,74.5671642 134.149254,72.4776119 C138.626866,72.358209 142.925373,72.4776119 147.223881,73.9104478 C147.761194,70.5074627 148.776119,66.9850746 150.089552,63.8208955 C151.044776,61.6119403 152.835821,60.0597015 155.223881,59.880597 Z" id="Shape" fill="#FFFFFF" fill-rule="nonzero"></path>
                <path d="M21.3134328,77.1940299 C24.238806,78.1492537 27.2835821,78.5074627 30.3283582,78.6865672 C27.9402985,80.5970149 25.3731343,82.3283582 22.9850746,84.1791045 C22.3880597,81.8507463 21.8507463,79.5223881 21.3134328,77.1940299 Z" id="Shape" fill="#231F20" fill-rule="nonzero"></path>
                <path d="M19.641791,99.2238806 C22.1492537,99.5223881 24.6567164,99.2835821 27.1641791,99.0447761 C25.3731343,100.955224 23.2238806,102.38806 21.4925373,104.358209 C20.8358209,102.686567 20.1791045,100.955224 19.641791,99.2238806 Z" id="Shape" fill="#FFFFFF" fill-rule="nonzero"></path>
                <path d="M148.776119,99.880597 C151.820896,104.776119 154.865672,109.671642 157.850746,114.626866 C159.701493,110.80597 160.955224,106.746269 162.38806,102.746269 C163.402985,103.701493 164.955224,104.895522 165.19403,106.328358 C164.776119,107.522388 163.880597,108.656716 163.701493,109.910448 C163.522388,111.462687 164.537313,112.597015 164.835821,114.089552 C164.119403,116.41791 162.985075,118.686567 162.089552,120.955224 C152.895522,142.38806 139.58209,162.686567 121.61194,177.850746 C114.686567,183.701493 106.925373,188.895522 98.6268657,192.477612 C97.1940299,193.19403 96.0597015,192.41791 94.6865672,191.940299 C85.9701493,188.298507 77.8507463,183.164179 70.4477612,177.313433 C57.4925373,166.985075 46.6268657,154.029851 38.0298507,139.940299 C36.7164179,137.791045 35.4029851,135.761194 34.5074627,133.432836 C37.2537313,134.149254 39.9402985,135.104478 42.6268657,135.880597 C53.5522388,153.61194 68.5970149,169.373134 87.0447761,179.283582 C90.2686567,180.895522 93.7910448,182.865672 97.3134328,183.58209 C106.507463,180.119403 114.865672,174.089552 122.268657,167.641791 C136.955224,154.567164 148.298507,137.552239 156.119403,119.58209 C151.940299,113.134328 148.059701,106.507463 144,100 C145.61194,99.761194 147.164179,99.641791 148.776119,99.880597 Z" id="Shape" fill="#FFFFFF" fill-rule="nonzero"></path>
                <path d="M153.432836,99.8208955 C156.776119,100.238806 159.820896,100.358209 162.38806,102.686567 C160.955224,106.686567 159.701493,110.746269 157.850746,114.567164 C154.865672,109.61194 151.820896,104.776119 148.776119,99.8208955 C150.328358,99.641791 151.880597,99.641791 153.432836,99.8208955 Z" id="Shape" fill="#231F20" fill-rule="nonzero"></path>
                <path d="M141.850746,100.238806 C144.895522,105.432836 148.119403,110.507463 151.283582,115.641791 C152.119403,117.074627 153.19403,118.447761 153.791045,120 C147.820896,133.552239 139.820896,146.328358 129.850746,157.373134 C121.134328,166.985075 110.507463,175.701493 98.6268657,181.074627 C96.8358209,182.029851 95.4029851,181.014925 93.7313433,180.358209 C77.6716418,173.253731 63.641791,160.955224 52.8955224,147.223881 C50.6268657,144.179104 48.238806,141.19403 46.3880597,137.910448 L45.9104478,136.835821 C54.7462687,139.104478 63.7014925,141.253731 72.7761194,142.626866 C75.9402985,143.164179 79.0447761,142.925373 82.2089552,143.164179 C82.0298507,140.716418 81.4925373,138.149254 81.6716418,135.641791 C82.0298507,132.119403 83.9402985,128.955224 86.2686567,126.38806 C90.5074627,121.731343 95.8208955,118.029851 101.432836,115.283582 C108.716418,111.701493 116.119403,108.298507 123.701493,105.313433 C129.552239,102.925373 135.641791,101.134328 141.850746,100.238806 Z" id="Shape" fill="#B30738" fill-rule="nonzero"></path>
                <path d="M141.850746,100.238806 C142.507463,100.179104 143.104478,100.119403 143.761194,100.059701 L144,100.059701 C148.059701,106.567164 151.940299,113.19403 156.119403,119.641791 C148.358209,137.61194 136.955224,154.626866 122.268657,167.701493 C114.925373,174.089552 106.507463,180.179104 97.3134328,183.641791 C93.7910448,182.925373 90.2686567,180.955224 87.0447761,179.343284 C68.5970149,169.432836 53.5522388,153.671642 42.6268657,135.940299 C44.1791045,136.41791 45.4925373,136.298507 46.3283582,137.910448 C48.1791045,141.19403 50.5671642,144.238806 52.8358209,147.223881 C63.5820896,161.014925 77.6119403,173.253731 93.6716418,180.358209 C95.3432836,181.014925 96.7761194,182.029851 98.5671642,181.074627 C110.447761,175.701493 121.074627,166.985075 129.791045,157.373134 C139.701493,146.328358 147.761194,133.552239 153.731343,120 C153.134328,118.447761 152.059701,117.074627 151.223881,115.641791 C148.119403,110.447761 144.895522,105.373134 141.850746,100.238806 Z" id="Shape" fill="#231F20" fill-rule="nonzero"></path>
                <path d="M25.1940299,113.552239 C25.7910448,112.955224 27.0447761,113.373134 26.4477612,114.328358 C25.7910448,115.164179 24.6567164,114.567164 25.1940299,113.552239 Z" id="Shape" fill="#FFFFFF" fill-rule="nonzero"></path>
            </g>
        </g>
    </g>
</svg>