<?xml version="1.0" encoding="UTF-8"?>
<svg width="200px" height="200px" viewBox="0 0 200 200" version="1.1" xmlns="http://www.w3.org/2000/svg" xmlns:xlink="http://www.w3.org/1999/xlink">
    <!-- Generator: Sketch 63.1 (92452) - https://sketch.com -->
    <title>elmhurst</title>
    <desc>Created with Sketch.</desc>
    <defs>
        <polygon id="path-1" points="0.0888888889 0.250509941 199.657778 0.250509941 199.657778 164.444444 0.0888888889 164.444444"></polygon>
    </defs>
    <g id="elmhurst" stroke="none" stroke-width="1" fill="none" fill-rule="evenodd">
        <g id="elmhurst_BGL">
            <g id="elmhurst-copy" transform="translate(0.000000, 18.000000)">
                <g id="Group-3">
                    <mask id="mask-2" fill="white">
                        <use xlink:href="#path-1"></use>
                    </mask>
                    <g id="Clip-2"></g>
                    <path d="M24.0474074,12.2207407 L24.0474074,4.9362963 C24.0474074,4.9362963 86.6666667,-5.80444444 166.048889,5.23703704 L166.048889,70.4918519 C166.048889,70.4918519 169.155556,71.5496296 178.979259,74.3185185 C178.979259,74.3185185 195.032593,78.4311111 199.318519,87.7318519 C199.318519,87.7318519 201.634074,91.8488889 194.167407,92.9718519 C194.167407,92.9718519 187.774815,98.6607407 163.94963,98.7644444 C163.94963,98.7644444 155.503704,145.841481 95.9377778,164.444444 C95.9377778,164.444444 61.8518519,154.074074 42.3451852,129.134815 C42.3451852,129.134815 24.6903704,107.653333 24.6903704,78.3940741 L24.8148148,71.8518519 C24.8148148,71.8518519 9.78666667,66.2296296 5.55555556,52.5911111 C5.55555556,52.5911111 13.2962963,49.7155556 13.0859259,41.357037 C13.0859259,41.357037 12.8118519,25.1362963 0,9.87555556 C0,9.87555556 5.66222222,8.62074074 24.0474074,12.2207407" id="Fill-1" fill="#9AA2A2" mask="url(#mask-2)"></path>
                </g>
                <path d="M144.071111,64.4814815 C144.071111,64.4814815 145.746667,53.4 130.023704,42.3155556 C130.023704,42.3155556 110.176296,26.0755556 56.6903704,17.44 C56.6903704,17.44 56.9614815,19.6355556 58.6992593,20.6888889 C58.6992593,20.6888889 44.8548148,16.1496296 27.9111111,14.4666667 C27.9111111,14.4666667 28.7881481,16.6 30.3125926,17.7051852 C30.3125926,17.7051852 19.0533333,14.5185185 6.66962963,13.3437037 C6.66962963,13.3437037 14.9511111,18.3333333 24.5644444,34.0074074 L29.6859259,42.5777778 C29.6859259,42.5777778 41.077037,63.3466667 82.2488889,58.1481481 L85.1792593,57.7259259 C85.1792593,57.7259259 106.180741,55.1155556 125.931852,66.4014815 C125.931852,66.4014815 142.355556,74.4755556 144.071111,64.4814815" id="Fill-4" fill="#0095C8"></path>
                <path d="M160.746667,86.2992593 C175.103704,86.7511111 190.139259,87.8074074 190.139259,87.8074074 C182.61037,84.0118519 162.188148,83.88 162.188148,83.88 C141.961481,83.2933333 128.017778,85.1911111 128.017778,85.1911111 C128.761481,85.7925926 142.548148,86.0355556 150.474074,86.1259259 C153.70963,86.16 159.139259,86.2474074 160.746667,86.2992593 Z M27.5762963,38.8162963 C28.4222222,40.317037 29.962963,42.8948148 30.5703704,43.7274074 C34.682963,49.3688889 43.5081481,53.4059259 43.5081481,53.4059259 C57.8177778,60.8162963 70.8859259,58.7037037 83.5940741,57.9718519 C100.045926,57.0251852 110.834074,54.4503704 110.834074,54.4503704 C119.220741,55.077037 113.651852,50.8859259 113.651852,50.8859259 C136.068148,53.9407407 136.694815,66.56 136.694815,66.56 L148.214815,68.2059259 C155.346667,72.437037 176.50963,77.8459259 176.50963,77.8459259 C189.205926,80.5866667 194.825185,87.3748148 194.825185,87.3748148 C196.444444,89.1466667 194.404444,89.2651852 194.404444,89.2651852 L191.557037,89.6014815 C186.751111,96.0814815 148.023704,95.0251852 148.023704,95.0251852 C142.696296,95.082963 139.395556,96.7614815 139.395556,96.7614815 C125.09037,102.96 113.182222,114.838519 113.182222,114.838519 C95.7822222,132.238519 81.7437037,153.946667 81.7437037,153.946667 C26.1644444,127.533333 29.0859259,80.8251852 29.0859259,80.8251852 L50.717037,77.7688889 C13.0977778,65.3851852 10.7466667,54.3348148 10.7466667,54.3348148 C17.1733333,51.0014815 17.0162963,42.1466667 17.0162963,42.1466667 C17.2903704,34.5051852 13.7822222,25.517037 13.7822222,25.517037 C11.0533333,18.6 11.0518519,18.7244444 6.9837037,13.5481481 C15.72,18.8725926 24.3748148,33.1333333 27.5762963,38.8162963 L27.5762963,38.8162963 Z" id="Fill-5" fill="#111C2C"></path>
                <path d="M82.1555556,129.712593 C82.1555556,129.712593 62.1851852,99.0888889 33.2725926,84.8251852 C33.2725926,84.8251852 32.322963,114.496296 67.6992593,140.743704 L82.1555556,129.712593" id="Fill-6" fill="#0095C8"></path>
                <path d="M99.52,72.8814815 C99.52,72.1466667 100.115556,71.5525926 100.85037,71.5525926 C101.585185,71.5525926 102.182222,72.1466667 102.182222,72.8814815 C102.182222,73.6162963 101.585185,74.2133333 100.85037,74.2133333 C100.115556,74.2133333 99.52,73.6162963 99.52,72.8814815" id="Fill-7" fill="#FFFFFE"></path>
                <g id="Group-11" transform="translate(28.148148, 4.444444)">
                    <path d="M84.8340741,73.6088889 C84.8340741,73.6088889 83.3703704,77.3081481 76.6296296,77.202963 C76.6296296,77.202963 69.9851852,77.3377778 67.32,71.6251852 C67.32,71.6251852 55.0933333,69.3259259 50.7066667,76.3274074 C50.7066667,76.3274074 46.9422222,81.3940741 52.482963,92.7348148 C52.482963,92.7348148 57.2888889,101.982222 61.9392593,106.998519 C61.9392593,106.998519 80.1733333,97.2266667 104.862222,89.8577778 C104.862222,89.8577778 110.506667,82.8844444 93.4977778,81.8666667 C93.4977778,81.8666667 91.0933333,81.7525926 89.4311111,81.8118519 C89.4311111,81.8118519 85.5318519,82.04 84.9022222,80.2059259 C84.9022222,80.2059259 87.4251852,78.8311111 89.0874074,76.3348148 C89.0874074,76.3348148 90.6637037,73.677037 84.8340741,73.6088889" id="Fill-8" fill="#FFFFFE"></path>
                    <path d="M1.20740741,5.94666667 L1.20740741,4.08592593 C1.20740741,4.08592593 59.0118519,-5.0637037 133.46963,4.27407407 L133.46963,64.6725926 C133.46963,64.6725926 127.776296,62.6874074 124.354074,61.0488889 C124.354074,61.0488889 123.111111,58.4518519 120.688889,56.597037 C120.688889,56.597037 120.355556,39.0740741 87.4385185,24.8607407 C87.4385185,24.8607407 64.1333333,14.4103704 24.2148148,8.14222222 L24.7362963,10.0222222 C24.7362963,10.0222222 16.9703704,7.78074074 1.20740741,5.94666667" id="Fill-10" fill="#111C2C"></path>
                </g>
                <path d="M159.238519,98.9288889 C159.238519,98.9288889 151.687407,141.121481 95.8859259,159.302222 C95.8859259,159.302222 91.5362963,157.951111 86.0133333,155.645926 C86.0133333,155.645926 101.739259,133.177778 113.807407,120.638519 C113.807407,120.638519 127.103704,105.737778 141.838519,100.093333 C141.838519,100.093333 144.380741,98.9955556 148.552593,98.9955556 C148.552593,98.9955556 154.724444,99.1451852 159.238519,98.9288889" id="Fill-12" fill="#111C2C"></path>
                <path d="M39.9688889,11.0651852 C39.9688889,11.0651852 109.733333,4.8 155.817778,13.8918519 L155.817778,66.9407407 C155.817778,66.9407407 153.854815,66.1481481 152.502222,65.4933333 C152.502222,65.4933333 151.457778,63.2962963 149.299259,61.4266667 L149.299259,19.3777778 C149.299259,19.3777778 108.773333,9.49037037 39.9688889,11.0651852" id="Fill-13" fill="#0095C8"></path>
                <path d="M95.8340741,155.24 C95.8340741,155.24 121.638519,145.266667 136.946667,128.035556 C136.946667,128.035556 148.628148,117.074074 153.265185,99.0562963 C153.265185,99.0562963 148.02963,98.8977778 146.717037,99.0711111 C146.717037,99.0711111 138.68,131.371852 95.8340741,155.24" id="Fill-14" fill="#0095C8"></path>
                <path d="M90.0281481,63.4622222 C90.0281481,63.4622222 97.3718519,62.6948148 111.420741,67.4222222 C111.420741,67.4222222 114.165926,68.3140741 116.145185,69.082963 C116.145185,69.082963 125.340741,72.5925926 127.768889,68.6340741 C127.768889,68.6340741 134.082963,60.0207407 113.651852,50.8859259 C113.651852,50.8859259 113.764444,52.3259259 113.423704,53.5185185 C113.423704,53.5185185 111.717037,50.1007407 105.448889,49.1081481 C105.448889,49.1081481 107.564444,50.7540741 108.401481,53.0266667 C108.401481,53.0266667 99.0740741,47.6444444 88.8325926,54.3348148 L83.8696296,57.6237037 C83.8696296,57.6237037 74.3081481,63.3733333 58.7911111,62.3792593 C58.7911111,62.3792593 79.0622222,75.8088889 95.3125926,72.0474074 C95.3125926,72.0474074 95.9377778,69.7985185 97.5051852,68.962963 C97.5051852,68.962963 105.500741,72.8814815 112.555556,74.2385185 C112.555556,74.2385185 113.223704,74.0385185 112.792593,73.8162963 C111.124444,72.9511111 105.804444,70.7288889 102.522963,68.8592593 C102.522963,68.8592593 97.2459259,65.7762963 93.117037,65.2533333 C93.117037,65.2533333 90.4903704,64.9614815 90.0281481,63.4622222" id="Fill-15" fill="#FFFFFE"></path>
                <path d="M136.623704,66.1496296 C136.623704,66.1496296 138.734815,63.0607407 142.287407,62.9851852 C142.287407,62.9851852 144.114074,62.8562963 146.533333,65.197037 C146.533333,65.197037 150.6,68.6222222 148.336296,73.4592593 C148.336296,73.4592593 146.739259,77.0888889 142.131852,78.1955556 C142.131852,78.1955556 133.94963,79.8948148 129.342222,79.6385185 C129.342222,79.6385185 126.561481,79.5081481 129.134815,77.8355556 C129.134815,77.8355556 137.444444,72.6651852 136.623704,66.1496296" id="Fill-16" fill="#FFFFFE"></path>
                <path d="M79.4207407,148.099259 C79.4207407,148.099259 93.64,124.817778 114.435556,107.678519 C114.435556,107.678519 80.6814815,123.668148 64.9037037,138.508148 C64.9037037,138.508148 69.9066667,143.063704 79.4207407,148.099259" id="Fill-17" fill="#FFFFFE"></path>
            </g>
        </g>
    </g>
</svg>