<?xml version="1.0" encoding="UTF-8"?>
<svg width="200px" height="200px" viewBox="0 0 200 200" version="1.1" xmlns="http://www.w3.org/2000/svg" xmlns:xlink="http://www.w3.org/1999/xlink">
    <!-- Generator: Sketch 55.2 (78181) - https://sketchapp.com -->
    <title>elmira</title>
    <desc>Created with Sketch.</desc>
    <g id="elmira" stroke="none" stroke-width="1" fill="none" fill-rule="evenodd">
        <g id="elmira_BGD">
            <g id="elmira" transform="translate(0.000000, 48.000000)">
                <path d="M198.84058,30.5797101 C197.826087,25.5072464 193.768116,16.8115942 178.84058,14.2028986 C178.405797,13.9130435 177.681159,13.4782609 176.956522,13.0434783 C171.884058,9.85507246 161.449275,3.1884058 137.246377,3.1884058 C114.637681,3.1884058 85.2173913,9.42028986 64.2028986,15.6521739 C64.9275362,14.6376812 65.3623188,13.4782609 65.5072464,12.3188406 L67.6811594,0 L6.08695652,0 L4.92753623,6.66666667 L7.68115942,7.68115942 C10.5797101,8.69565217 10.8695652,10.1449275 10.7246377,12.3188406 L0.869565217,68.2608696 L48.115942,68.2608696 C49.7101449,68.2608696 51.3043478,67.826087 52.6086957,66.9565217 L48.9855072,87.5362319 C48.2608696,92.0289855 49.2753623,96.2318841 51.884058,99.4202899 C54.4927536,102.608696 58.4057971,104.347826 62.7536232,104.347826 L93.1884058,104.347826 C97.5362319,104.347826 101.449275,101.014493 102.173913,96.6666667 L104.347826,84.4927536 L105.362319,83.9130435 C117.826087,75.942029 143.188406,59.7101449 156.086957,59.4202899 C161.884058,64.4927536 170,68.9855072 175.217391,69.8550725 L175.507246,69.8550725 C176.811594,70 177.971014,69.5652174 178.84058,68.5507246 C179.710145,67.5362319 179.855072,66.2318841 179.565217,65.0724638 L179.42029,64.7826087 C177.391304,58.9855072 177.391304,51.4492754 178.26087,45.942029 C178.84058,45.7971014 179.565217,45.7971014 180.144928,46.0869565 C181.304348,46.6666667 182.318841,48.4057971 182.753623,51.1594203 L182.753623,51.5942029 C182.898551,52.7536232 183.768116,53.7681159 184.782609,54.2028986 C185.942029,54.6376812 187.101449,54.6376812 188.115942,53.9130435 L188.405797,53.6231884 C196.231884,48.9855072 200.57971,39.1304348 198.84058,30.5797101 Z" id="Path" fill="#F5CE3E" fill-rule="nonzero"></path>
                <path d="M177.681159,17.826087 C173.623188,16.0869565 165.362319,6.95652174 137.246377,6.95652174 C109.855072,6.95652174 70.2898551,16.6666667 49.8550725,24.4927536 C58.9855072,25.5072464 66.9565217,27.9710145 72.3188406,30 C66.2318841,31.4492754 61.0144928,33.4782609 56.6666667,35.942029 L106.811594,35.942029 C113.043478,34.6376812 114.9061,36.9565217 122.58726,35.942029 C117.659723,35.3623188 119.318199,44.4927536 121.202257,43.6231884 C120.332692,43.6231884 116.521739,48.6956522 110.434783,49.4202899 C109.130435,52.8985507 105.652174,55.5072464 101.884058,55.5072464 L78.9855072,55.5072464 C79.2753623,57.3913043 78.9855072,59.1304348 78.8405797,60 L78.2608696,63.0434783 C87.9710145,67.1014493 96.9565217,72.8985507 103.333333,80.2898551 C118.550725,70.5797101 144.202899,54.3478261 157.681159,55.2173913 C162.898551,60.2898551 171.15942,64.9275362 175.797101,65.6521739 C173.188406,58.115942 173.623188,48.5507246 174.927536,42.7536232 C177.971014,41.0144928 184.927536,40.1449275 186.521739,50.1449275 C197.681159,43.4782609 201.594203,21.7391304 177.681159,17.826087 Z" id="Path" fill="#522D6D" fill-rule="nonzero"></path>
                <path d="M170.869565,25.0879455 C170.869565,25.0879455 172.028986,22.6241774 173.623188,21.0299745 C169.275362,19.7256267 164.927536,15.3778006 154.347826,13.6386701 C138.985507,11.0299745 119.710145,17.8415687 119.710145,17.8415687 C120.434783,16.8270759 121.449275,15.9575107 122.463768,15.232873 C113.043478,15.9575107 103.188406,17.8415687 91.3043478,21.0299745 C98.8405797,20.4502643 110.869565,20.885047 111.014493,24.5082354 C111.15942,28.1314238 100.57971,31.3198296 94.057971,33.2038875 C109.42029,30.885047 122.608696,32.1893948 127.391304,32.7691049 C119.710145,33.6386701 112.753623,34.7980904 106.376812,36.1024383 L112.753623,36.1024383 L110.57971,48.4212788 C110.434783,49.000989 110.289855,49.4357716 110.144928,50.0154817 C116.231884,49.2908441 120.57971,49.000989 121.449275,49.000989 C119.565217,50.0154817 115.072464,52.6241774 112.608696,57.4067861 C118.405797,53.3488151 131.304348,48.1314238 146.231884,48.2763513 C141.304348,43.9285252 132.898551,44.0734528 132.898551,44.0734528 C137.101449,43.2038875 146.086957,42.0444672 153.478261,44.0734528 C153.913043,43.3488151 154.637681,42.3343223 155.217391,42.0444672 C156.521739,46.1024383 162.318841,55.232873 170.869565,60.1604093 C170.434783,57.5517136 169.855072,51.0299745 171.014493,45.9575107 C168.84058,49.1459165 168.405797,52.9140325 168.26087,53.9285252 C163.188406,50.3053368 161.73913,42.7691049 161.449275,40.5951919 L161.449275,40.5951919 C161.449275,40.5951919 161.449275,40.5951919 161.449275,40.4502643 L157.101449,38.7111339 C162.753623,37.5517136 188.405797,31.7546122 187.826087,45.0879455 C196.956522,27.9864962 183.188406,18.5662064 170.869565,25.0879455 Z" id="Path" fill="#FFFFFF" fill-rule="nonzero"></path>
                <g id="Group" transform="translate(4.347826, 2.898551)" fill="#522D6D" fill-rule="nonzero">
                    <path d="M48.115942,85.2173913 L55.0724638,46.0869565 C55.5072464,42.8985507 54.7826087,39.4202899 49.7101449,37.5362319 L49.8550725,36.8115942 L104.347826,36.8115942 L102.898551,44.9275362 C102.463768,47.3913043 100.144928,49.5652174 97.3913043,49.5652174 L67.826087,49.5652174 L67.6811594,50.1449275 C71.7391304,51.5942029 71.4492754,54.4927536 71.0144928,56.9565217 L66.5217391,82.6086957 C66.2318841,84.057971 67.2463768,85.0724638 68.5507246,85.0724638 L95.7971014,85.0724638 L94.3478261,93.0434783 C93.9130435,95.6521739 91.4492754,97.826087 88.8405797,97.826087 L58.4057971,97.826087 C51.5942029,97.826087 46.9565217,92.3188406 48.115942,85.2173913 Z" id="Path"></path>
                    <path d="M9.85507246,10 C10.2898551,6.8115942 9.56521739,3.33333333 4.49275362,1.44927536 L4.63768116,0.724637681 L59.1304348,0.724637681 L57.6811594,8.84057971 C57.2463768,11.3043478 54.7826087,13.4782609 52.173913,13.4782609 L22.6086957,13.4782609 L22.4637681,14.057971 C26.5217391,15.5072464 26.2318841,18.4057971 25.7971014,20.8695652 L24.9275362,25.7971014 L46.8115942,25.7971014 L45.5072464,33.3333333 C45.2173913,35.2173913 43.3333333,36.8115942 41.4492754,36.8115942 L23.0434783,36.8115942 L20.8695652,49.1304348 L50.7246377,49.1304348 L49.2753623,57.1014493 C48.8405797,59.7101449 46.3768116,61.884058 43.7681159,61.884058 L0.724637681,61.884058 L9.85507246,10 Z" id="Path"></path>
                </g>
                <path d="M155.224892,42.0337976 C156.635105,46.4993773 162.318841,55.232873 170.869565,60.1604093 C170.434783,57.5517136 170,50.7246377 171.15942,45.6521739 C168.985507,48.8405797 168.405797,52.9140325 168.26087,53.9285252 C163.188406,50.3053368 161.884058,42.4637681 161.594203,40.2898551 C161.594203,40.2898551 161.594203,40.2898551 161.594203,40.1449275 L157.101449,38.7111339 C162.753623,37.5517136 188.413298,31.7439425 187.833588,45.0772758 C196.964023,28.2656816 183.354563,18.4928385 170.869565,25.0879455 C169.417358,25.8550632 163.623188,29.4202899 160.724638,32.0289855 C157.391304,35.0724638 152.173913,35.7971014 152.173913,35.942029 L154.492754,37.1014493 C154.347826,38.6956522 154.755699,40.5480498 155.224892,42.0337976 Z" id="Path" fill="#F5CE3E" fill-rule="nonzero"></path>
                <g id="Group" transform="translate(137.681159, 15.942029)" fill="#522D6D" fill-rule="nonzero">
                    <ellipse id="Oval" transform="translate(39.991826, 10.383797) rotate(-43.804738) translate(-39.991826, -10.383797) " cx="39.9918261" cy="10.3837971" rx="2.02897712" ry="1.01448856"></ellipse>
                    <path d="M31.884058,7.68115942 C29.8550725,7.82608696 27.9710145,6.52173913 25.6521739,5.07246377 C22.8985507,3.1884058 19.7101449,1.15942029 15.6521739,1.44927536 C15.5072464,1.44927536 15.5072464,1.5942029 15.5072464,1.5942029 C15.5072464,1.73913043 15.5072464,1.73913043 15.6521739,1.73913043 C16.6666667,2.02898551 17.3913043,2.46376812 17.9710145,2.89855072 C13.9130435,2.60869565 6.8115942,2.46376812 1.15942029,5.36231884 C1.01449275,5.36231884 1.01449275,5.50724638 1.01449275,5.50724638 C1.01449275,5.65217391 1.15942029,5.65217391 1.15942029,5.65217391 C5.2173913,5.07246377 15.6521739,4.49275362 21.0144928,7.10144928 C21.0144928,7.24637681 21.1594203,7.39130435 21.1594203,7.53623188 C21.1594203,8.26086957 20.5797101,8.84057971 19.8550725,8.84057971 C19.1304348,8.84057971 18.5507246,8.26086957 18.5507246,7.53623188 C18.5507246,7.39130435 18.5507246,7.39130435 18.5507246,7.24637681 C18.2608696,7.39130435 17.826087,7.53623188 17.6811594,7.68115942 C17.5362319,9.13043478 18.2608696,10.5797101 19.4202899,11.4492754 C21.0144928,12.173913 23.4782609,11.884058 26.2318841,10.8695652 C26.3768116,10.8695652 26.5217391,10.7246377 26.5217391,10.5797101 L27.2463768,9.42028986 C30,9.42028986 31.884058,7.68115942 31.884058,7.68115942 C31.884058,7.68115942 32.0289855,7.53623188 31.884058,7.53623188 C32.0289855,7.82608696 32.0289855,7.68115942 31.884058,7.68115942 Z" id="Path"></path>
                </g>
            </g>
        </g>
    </g>
</svg>