<?xml version="1.0" encoding="UTF-8"?>
<svg width="200px" height="200px" viewBox="0 0 200 200" version="1.1" xmlns="http://www.w3.org/2000/svg" xmlns:xlink="http://www.w3.org/1999/xlink">
    <!-- Generator: Sketch 54.1 (76490) - https://sketchapp.com -->
    <title>embry-riddle-fl</title>
    <desc>Created with Sketch.</desc>
    <g id="embry-riddle-fl" stroke="none" stroke-width="1" fill="none" fill-rule="evenodd">
        <g id="embry-riddle-fl_BGL" fill="#FFC423">
            <g id="embry-riddle-fl" transform="translate(0.000000, 25.000000)">
                <path d="M132.318841,0 L139.130435,0 L139.42029,0.0361244019 C146.884058,0.469617225 154.710145,1.44497608 161.485507,4.80454545 C166.521739,7.29712919 170.652174,11.1624402 173.442029,16.0392344 C179.384058,17.1229665 185.289855,18.9291866 190.398551,22.2165072 C194.094203,24.6007177 197.391304,27.9602871 198.985507,32.1145933 C200.217391,36.5940191 199.818841,41.5069378 197.644928,45.661244 C196.15942,48.4789474 193.913043,51.0799043 191.195652,52.7777512 C191.304348,51.1882775 191.73913,49.5626794 191.956522,47.9732057 C192.681159,43.6021531 193.007246,39.0143541 191.123188,34.8600478 C190,32.6564593 188.115942,30.7779904 186.086957,29.3691388 C181.304348,26.1179426 175.434783,24.9980861 169.746377,24.7452153 C168.297101,20.4825359 166.086957,16.6894737 162.355072,14.0523923 C157.789855,10.7650718 151.557971,9.71746411 146.050725,9.24784689 C123.804348,8.52535885 101.195652,12.4629187 79.8188406,18.423445 C58.3333333,24.4200957 37.5,32.5842105 17.0652174,41.434689 C16.4130435,41.6875598 15.7246377,42.1210526 15,42.157177 C14.8550725,38.7976077 15.8333333,35.5102871 17.7173913,32.6925837 C18.8043478,31.1392344 20.2173913,29.3330144 22.1014493,28.7188995 C32.3188406,24.1311005 42.7173913,19.8322967 53.2971014,16.1114833 C71.3405797,9.75358852 90.0362319,5.05741627 109.057971,2.27583732 C116.775362,1.15598086 124.528986,0.252870813 132.318841,0 Z" id="Shape" fill-rule="nonzero"></path>
                <path d="M154.746377,16.9784689 C153.913043,18.2789474 152.971014,19.687799 151.884058,20.7715311 C148.804348,19.8684211 145.57971,19.507177 142.391304,19.3626794 C135.326087,19.1820574 128.07971,20.4825359 121.086957,21.4940191 C124.347826,19.0014354 128.442029,17.4119617 132.391304,16.4366029 C139.710145,14.6665072 147.572464,14.738756 154.746377,16.9784689 Z" id="Shape" fill-rule="nonzero"></path>
                <path d="M145.253623,21.8913876 C147.463768,22.1803828 149.673913,23.0473684 151.014493,24.9258373 C149.565217,26.4430622 147.971014,27.7435407 145.978261,28.5382775 C143.876812,29.4052632 141.304348,29.4052632 139.202899,28.4660287 C137.681159,27.3100478 135.76087,26.0456938 135.362319,24.0588517 C135.326087,23.6614833 135.072464,22.9751196 135.398551,22.65 C138.586957,22.108134 142.028986,21.4940191 145.253623,21.8913876 Z" id="Shape" fill-rule="nonzero"></path>
                <path d="M75.6521739,28.2854067 C62.2101449,33.1983254 49.1666667,38.9059809 36.7028986,45.9863636 C25.6521739,52.2358852 15.2898551,59.5330144 5.47101449,67.6248804 C4.85507246,68.130622 4.3115942,68.6363636 3.62318841,69.0698565 C2.78985507,66.2882775 3.36956522,63.723445 4.20289855,61.0502392 C4.42028986,60.5083732 4.49275362,59.6052632 5,59.2078947 C16.557971,50.1045455 29.673913,43.4215311 43.3695652,38.2196172 C53.9130435,34.1736842 64.7463768,30.9947368 75.6521739,28.2854067 Z" id="Shape" fill-rule="nonzero"></path>
                <path d="M164.130435,36.1244019 C168.043478,36.2327751 172.173913,36.9552632 175.724638,38.6169856 C178.224638,40.1342105 181.413043,42.0126794 183.84058,43.5660287 C183.188406,43.5299043 182.5,43.1686603 181.847826,43.0241627 C176.92029,41.615311 171.666667,41.2901914 166.594203,41.8681818 C161.304348,42.4822967 156.231884,44.1801435 152.282609,47.8287081 C147.028986,51.7301435 143.369565,57.3294258 141.666667,63.6150718 C139.275362,72.357177 140.253623,81.9662679 142.463768,90.6722488 C143.07971,93.5260766 144.42029,96.0186603 145.289855,98.8002392 C144.710145,98.9447368 144.057971,98.8002392 143.478261,98.7279904 C140.326087,98.2222488 137.210145,96.8133971 134.891304,94.6098086 C132.898551,89.2272727 131.702899,83.4834928 131.15942,77.7397129 C130.434783,68.8169856 131.702899,59.677512 136.449275,51.94689 C138.949275,47.7564593 142.391304,44.4330144 146.195652,41.434689 C151.34058,37.6416268 157.789855,35.9799043 164.130435,36.1244019 Z" id="Shape" fill-rule="nonzero"></path>
                <path d="M75,39.4478469 C74.3115942,39.9535885 73.5144928,40.2425837 72.7536232,40.6399522 C62.7173913,45.4083732 53.1521739,51.2966507 44.0217391,57.6184211 C34.8550725,64.0124402 25.942029,71.1289474 18.0434783,79.0401914 C13.2246377,83.95311 8.58695652,89.3717703 4.96376812,95.2600478 C4.7826087,95.8741627 3.47826087,96.2354067 3.04347826,95.9464115 C1.37681159,93.6705742 0.144927536,91.0334928 0.362318841,88.1435407 C0.579710145,85.3980861 2.02898551,83.1222488 3.80434783,81.1354067 C6.5942029,78.1009569 10.326087,75.680622 13.5869565,73.1880383 C14.8913043,72.176555 16.2681159,71.273445 17.6086957,70.3342105 C28.4057971,62.8203349 39.384058,55.1980861 51.0869565,49.1291866 C58.6956522,45.1916268 66.7391304,41.795933 75,39.4478469 Z" id="Shape" fill-rule="nonzero"></path>
                <path d="M88.3333333,47.4674641 C86.4130435,48.4789474 84.4565217,49.4543062 82.5362319,50.4657895 C67.3550725,59.0272727 52.7536232,68.311244 40.6521739,80.9547847 C33.4782609,88.3964115 27.4275362,96.8495215 22.6449275,105.988995 C22.3550725,106.530861 22.0652174,107.072727 21.7391304,107.614593 C20.1449275,107.036603 19.1304348,105.952871 18.5144928,104.399522 C17.5724638,102.051435 17.5,99.3059809 17.7898551,96.8495215 C24.4565217,86.192823 33.1521739,76.9449761 43.2246377,69.4311005 C56.5217391,59.3885167 72.3913043,52.308134 88.3333333,47.4674641 Z" id="Shape" fill-rule="nonzero"></path>
                <path d="M91.9927536,58.2325359 C82.2826087,64.445933 73.5869565,72.3210526 65.942029,80.9186603 C59.5652174,88.1796651 53.7681159,96.2715311 49.4927536,104.977512 C47.1014493,109.926555 45.0724638,115.200718 44.057971,120.583254 C43.7681159,120.655502 43.4782609,120.619378 43.2608696,120.511005 C39.384058,118.704785 36.7391304,114.442105 36.6666667,110.21555 C41.7028986,97.6442584 50.1811594,87.0598086 60.4710145,78.3538278 C69.4927536,70.6954545 79.7826087,64.445933 90.2898551,59.0272727 C90.8333333,58.7021531 91.3768116,58.4131579 91.9927536,58.2325359 Z" id="Shape" fill-rule="nonzero"></path>
                <path d="M105.072464,63.542823 C104.782609,64.265311 104.094203,64.807177 103.586957,65.3851675 C101.050725,68.0583732 98.6594203,70.8399522 96.4492754,73.8021531 C86.884058,86.5901914 80.942029,101.979187 77.0652174,117.368182 C75.3623188,123.906699 74.2028986,130.517464 73.0434783,137.12823 C70.942029,137.778469 68.9855072,137.12823 67.173913,136.080622 C65.8333333,135.249761 64.4565217,134.166029 63.5507246,132.86555 C63.2246377,131.601196 62.8985507,130.264593 62.6449275,128.964115 C64.8188406,121.775359 67.2463768,114.658852 70,107.686842 C73.9492754,97.788756 78.9130435,87.8545455 85.5797101,79.5098086 C90.7608696,72.9712919 97.4637681,67.04689 105.072464,63.542823 Z" id="Shape" fill-rule="nonzero"></path>
                <path d="M112.246377,70.8038278 C110.253623,79.0763158 106.086957,87.5294258 105.326087,96.0547847 C103.115942,114.47823 104.130435,132.576555 106.485507,150.927751 C102.608696,151.288995 99.2028986,149.482775 96.4855072,146.881818 C95.326087,135.9 94.5289855,124.809809 95.4347826,113.755742 C96.0869565,105.7 97.6449275,97.788756 100.615942,90.238756 C103.405797,83.1222488 107.355072,76.6559809 112.246377,70.8038278 Z" id="Shape" fill-rule="nonzero"></path>
                <path d="M121.630435,74.0188995 C121.521739,82.4358852 122.5,90.7444976 123.804348,99.0169856 C125.978261,108.120335 128.804348,117.043062 133.405797,125.207177 C136.557971,130.914833 140.434783,136.080622 143.84058,141.571531 C140.289855,143.233254 136.231884,142.835885 132.681159,141.463158 C131.884058,141.246411 131.413043,140.234928 130.905797,139.620813 C126.050725,133.046172 122.753623,125.460048 121.231884,117.440431 C119.746377,110.793541 118.224638,104.327273 117.681159,97.4997608 C117.101449,90.3471292 117.572464,83.3028708 120.326087,76.5837321 C120.724638,75.7528708 121.050725,74.7413876 121.630435,74.0188995 Z" id="Shape" fill-rule="nonzero"></path>
                <path d="M147.101449,125.026555 C148.188406,125.026555 149.275362,125.026555 150.362319,125.026555 L150.362319,125.821292 C149.927536,125.893541 149.456522,125.893541 148.985507,125.893541 C148.913043,127.157895 149.094203,128.422249 148.876812,129.650478 C148.369565,129.722727 148.07971,129.614354 148.007246,129.361483 C148.007246,128.205502 148.043478,127.049522 148.007246,125.893541 C147.572464,125.893541 147.101449,125.857416 146.666667,125.821292 C146.521739,125.207177 146.630435,124.954306 147.101449,125.026555 Z" id="Shape" fill-rule="nonzero"></path>
                <path d="M151.195652,125.062679 C151.73913,125.026555 152.282609,125.026555 152.826087,125.026555 C153.188406,125.965789 153.514493,126.905024 153.804348,127.844258 C154.456522,127.049522 154.565217,125.893541 155.072464,124.990431 C155.57971,124.990431 156.086957,124.990431 156.557971,124.990431 C156.702899,126.435407 156.594203,127.880383 156.630435,129.325359 C156.557971,129.57823 156.268116,129.686603 155.76087,129.614354 C155.543478,128.566746 155.724638,127.410766 155.688406,126.363158 C154.963768,127.266268 154.855072,128.602871 154.275362,129.614354 C153.985507,129.57823 153.65942,129.57823 153.369565,129.542105 C152.971014,128.494498 152.717391,127.338517 152.210145,126.363158 C152.028986,127.44689 152.137681,128.530622 152.101449,129.614354 C151.775362,129.614354 151.449275,129.57823 151.15942,129.57823 C151.195652,128.097129 151.15942,126.579904 151.195652,125.062679 Z" id="Shape" fill-rule="nonzero"></path>
            </g>
        </g>
    </g>
</svg>