<svg width="200" height="200" viewBox="0 0 200 200" fill="none" xmlns="http://www.w3.org/2000/svg">
<g clip-path="url(#clip0_11_242029)">
<path d="M0 20L12.4615 40.0769C-1.94231 77.2885 -2.48077 112.808 11.0192 140.308C20.2115 159.019 35.4808 172.75 54.0385 178.962L55.0385 179.288L55.4423 179.423L57.1923 180L58.9808 179.538L60.1346 179.231C87.2115 172.192 110.904 158.423 131.904 137.25C134.962 136.192 138.077 135 141.077 133.673C156.5 126.904 164.192 119.231 163.942 110.865C163.827 107.173 162.5 103.962 160.519 101.212C172.577 82.6346 183.596 60.8077 193.788 35.4808L195.365 31.5385L197.231 26.9038L200 20H0Z" fill="#C2C6C9"/>
<path d="M9.73074 25.1539L18.6923 39.5962C3.90382 76.4808 2.94228 111.154 16.2307 138.231C24.7884 155.673 38.9038 168.423 56.0192 174.135L57.0192 174.481L57.4038 174.615L58.5577 174.308C85.3654 167.327 108.788 153.423 129.538 131.865C143.231 127.154 158.5 119.788 158.25 111.019C158.135 107.288 156.25 104.154 153.654 101.596C166.288 82.6923 177.827 60.1539 188.442 33.75L190.019 29.8077L191.885 25.1731H9.73074V25.1539Z" fill="#002D5D"/>
<path d="M140.192 87.25L136.673 92.4038C136.673 92.4038 139.557 93.1923 143.211 94.8269C147.865 87.8654 152.384 80.3654 156.769 72.3077H23.5957C22.4419 78.0384 21.6919 83.6346 21.3457 89.0961C46.9419 79.7692 85.9034 72.4423 140.192 87.2692V87.25Z" fill="white"/>
<path d="M81.0771 152.654C95.1541 145.692 108.154 136.077 120.231 123.615C113.827 124 81.3848 127.231 81.0771 152.654Z" fill="white"/>
<path d="M24.6927 135.019C12.7119 110.596 13.3081 79.6539 26.385 45.5L23.385 41.1539C9.03884 76.9039 8.0773 110.712 20.7311 136.5C28.6542 152.673 41.635 164.5 57.2696 169.827L57.3465 165.654C43.4619 160.5 31.8658 149.654 24.6927 135.019Z" fill="#C2C6C9"/>
<path d="M133.616 97.6539C128.135 98.8077 117.174 102.635 117.174 102.635L125.577 105.231C81.6351 113.077 67.9043 127.808 67.9043 127.808C90.3658 121.25 124.116 117.692 124.116 117.692C110.231 116.538 90.5197 118.75 90.5197 118.75C158.943 102.192 128.693 124.981 128.693 124.981C177.635 107.75 133.597 97.6539 133.597 97.6539H133.616Z" fill="#D08A00"/>
<path fill-rule="evenodd" clip-rule="evenodd" d="M36.4043 34.2692L38.1351 37.2692L31.1543 53.3077H51.6543L54.1735 47.6154L50.4428 49.3269H39.9812L41.5774 45.5962H52.0581L53.6543 41.9231H43.1735L44.7312 38.4231H55.1928L57.4235 40.1346L59.9235 34.3269L36.3851 34.2885L36.4043 34.2692Z" fill="white"/>
<path fill-rule="evenodd" clip-rule="evenodd" d="M86.7691 50.2884L92.4229 37.3077L96.7883 34.3077H86.6729L76.1537 43.6154L73.7691 34.3077H63.6537L65.3845 37.3077L59.7306 50.2884L55.3652 53.3077H65.4614L69.9422 43.0384L72.4422 52.0961L82.846 43.0384L78.3652 53.3269H88.4806L86.7499 50.3077L86.7691 50.2884Z" fill="white"/>
<path d="M115.557 49.6346L120.634 37.9615L118.538 34.2885H104.019L98.7498 37.9231L93.6729 49.6154L95.769 53.2885H110.288L115.557 49.6538V49.6346ZM108.654 49.3077H100.884L105.615 38.3846H113.384L108.634 49.3077H108.654Z" fill="white"/>
<path d="M169.596 34.2885L165.981 42.5961H158.904L162.52 34.2885H151.789L153.866 37.9231L151.654 43.0192L153.75 46.6538H164.193L162.904 49.6154H148.77L151.058 53.2885H164.673L169.943 49.6538L176.673 34.2885H169.577H169.596Z" fill="white"/>
<path fill-rule="evenodd" clip-rule="evenodd" d="M144.769 53.2885L143.038 50.2692L144.423 47.0577L142.942 44.4808L146.673 41.9038L148.404 37.9231L146.308 34.2885H125.154L127.231 37.9038V37.9231L121.865 50.2692L117.5 53.2692H127.615L130.462 46.6731H137.519L134.673 53.2692H144.788L144.769 53.2885ZM139.308 42.5961H132.25L134.058 38.3846H141.115L139.308 42.5961Z" fill="white"/>
<path d="M89.3268 127.596C67.9807 131.904 59.673 146.75 61.2884 160.462C63.346 159.827 65.4037 159.154 67.423 158.442C66.4807 147.308 70.2691 134.577 89.3268 127.615V127.596Z" fill="#C2C6C9"/>
<path d="M49.6919 120.269C49.6919 120.269 50.4419 115.423 52.7303 111.769C52.7303 111.769 39.2111 117.288 27.5957 129.692C28.1149 130.904 28.6534 132.096 29.2111 133.269C30.4611 135.808 31.8457 138.212 33.3457 140.5C33.4995 140.115 33.6534 139.731 33.8072 139.365C36.9611 132.038 42.1149 127.077 44.1919 125.269C44.3649 125.115 44.538 124.981 44.6534 124.865C44.6534 124.865 44.6726 124.865 44.6919 124.846C44.8072 124.75 44.9034 124.673 44.9803 124.615C44.9803 124.615 44.9803 124.615 44.9995 124.615C45.0572 124.577 45.0957 124.538 45.0957 124.538C42.3457 130.212 45.1726 138.75 45.1726 138.75C56.038 109.75 109.442 104.712 109.442 104.712C109.442 104.712 78.0572 103.077 49.6919 120.269Z" fill="#C2C6C9"/>
<path d="M24.9235 122.385C25.6928 124.885 26.5774 127.327 27.5966 129.712C39.2312 117.308 52.7312 111.788 52.7312 111.788C50.462 115.442 49.6928 120.288 49.6928 120.288C78.0389 103.096 109.443 104.731 109.443 104.731C94.3466 101.212 66.0389 97.0192 66.0389 97.0192C89.1543 93.2116 116.674 95.9039 116.674 95.9039L130.885 91.5769C81.1735 79.8462 44.6928 86.8846 21.1543 96.3077C21.1543 97.4423 21.1928 98.5769 21.2312 99.6923C59.1351 83.8846 101.077 86.4808 122.789 92.6539C122.789 92.6539 68.712 82.0577 21.5005 104.538C21.8658 108.846 22.5389 113.019 23.4812 117.077C39.3466 107.558 52.4043 105.327 52.4043 105.327C52.4043 105.327 40.2697 111.115 24.9235 122.385Z" fill="white"/>
<path d="M24.8652 66.9808H33.7114L34.5383 65.1346H28.1537L28.7114 63.8846H35.096L35.9229 62.0385H29.5383L30.096 60.7885H36.4806L37.3075 58.9423H28.4614L24.8845 66.9808H24.8652Z" fill="#D08A00"/>
<path d="M61.6923 58.9423H55.3077C54 58.9423 52.7885 59.6154 52.3462 60.5769L49.5 66.9808H51.9615L53.3462 63.8846H59.4038L58.0192 66.9808H60.5L63.2885 60.6923C63.4423 60.3654 63.4038 60 63.1731 59.6731C62.8846 59.2116 62.2885 58.9231 61.6923 58.9231V58.9423ZM60.7692 60.7885L60.2115 62.0385H54.1538L54.7115 60.7885H60.7692Z" fill="#D08A00"/>
<path d="M79.0579 60.5769L76.9809 65.2308C76.7502 65.7308 76.7502 66.1346 76.9425 66.4423C77.1925 66.8077 77.7117 66.9808 78.5579 66.9808H87.1925L89.3848 62.0385H82.654L81.8271 63.8846H86.0771L85.5194 65.1346H79.4617L81.404 60.7885H89.5771L90.404 58.9423H82.0002C80.7502 58.9423 79.4617 59.6539 79.0386 60.5769H79.0579Z" fill="#D08A00"/>
<path d="M108.981 58.9423H106.519L102.942 66.9808H111.789L112.615 65.1346H106.231L108.981 58.9423Z" fill="#D08A00"/>
<path d="M127.462 66.9808H136.308L137.135 65.1346H130.75L131.308 63.8846H137.693L138.52 62.0385H132.135L132.693 60.7885H139.077L139.904 58.9423H131.058L127.481 66.9808H127.462Z" fill="#D08A00"/>
<path d="M164.673 60.7885L165.5 58.9423H158.193C156.943 58.9423 155.654 59.6539 155.25 60.5769L154.558 62.1346C154.308 62.6923 154.443 63.0577 154.577 63.2692C154.846 63.6539 155.385 63.8846 156.135 63.8846H161.558L161 65.1346H153.404L152.577 66.9808H160.423C161.769 66.9808 162.962 66.3269 163.385 65.3462L164.077 63.7885C164.269 63.3846 164.25 62.9808 164.039 62.6731C163.769 62.2692 163.212 62.0385 162.481 62.0385H157.058L157.616 60.7885H164.693H164.673Z" fill="#D08A00"/>
</g>
<defs>
<clipPath id="clip0_11_242029">
<rect width="200" height="160" fill="white" transform="translate(0 20)"/>
</clipPath>
</defs>
</svg>
