<?xml version="1.0" encoding="UTF-8"?>
<svg width="200px" height="200px" viewBox="0 0 200 200" version="1.1" xmlns="http://www.w3.org/2000/svg" xmlns:xlink="http://www.w3.org/1999/xlink">
    <!-- Generator: Sketch 54.1 (76490) - https://sketchapp.com -->
    <title>endicott</title>
    <desc>Created with Sketch.</desc>
    <g id="endicott" stroke="none" stroke-width="1" fill="none" fill-rule="evenodd">
        <g id="endicott_BGL">
            <g id="endicott" transform="translate(-1.000000, 41.000000)">
                <g id="g10" transform="translate(100.696657, 59.212389) scale(-1, 1) rotate(-180.000000) translate(-100.696657, -59.212389) translate(0.196657, 0.212389)" fill-rule="nonzero">
                    <g id="g12" transform="translate(0.353982, 0.000000)">
                        <path d="M108.182102,57.1020631 L114.501079,57.6011782 L131.961845,56.1046197 L152.083379,55.7722696 L150.821235,68.3992113 L154.245031,66.9136656 L171.04031,58.7653866 C171.04031,58.7653866 181.849356,53.1115027 183.512286,50.2843642 C185.17561,47.4576189 191.327822,40.1404116 191.327822,40.1404116 L196.150634,28.3339222 L198.312286,21.0167543 L196.982099,19.0214348 L194.321332,19.3542175 L188.667449,23.1787601 L184.177773,26.3386421 L172.537262,34.1541778 L164.887705,35.9830863 L147.759682,37.6464097 L134.290262,44.9628304 L131.629102,46.2934105 L108.182102,57.1020631" id="path22" fill="#FFFFFF"></path>
                        <path d="M149.401373,57.8894771 C149.401373,57.8894771 153.662926,72.3752191 144.570695,88.5647959 C144.570695,88.5647959 134.058207,103.618089 125.250341,107.310518 C116.442868,111.002553 116.442868,112.422809 104.794098,115.26332 L87.1787589,116.967155 C87.1787589,116.967155 81.2117974,117.535493 69.5630268,114.978954 C57.9142562,112.422809 49.3907559,108.162435 49.3907559,108.162435 L26.9450534,97.9374603 C26.9450534,97.9374603 -10.8430282,80.6119937 4.78367736,81.4639111 C20.4105403,82.3162218 25.8087702,78.6237932 25.8087702,78.6237932 C25.8087702,78.6237932 37.741356,75.4997028 32.3432834,68.1148455 C26.9450534,60.7299883 18.137148,55.6176974 18.137148,55.6176974 C18.137148,55.6176974 9.0454275,49.3691233 18.9896947,50.7897722 C28.9339226,52.2096345 37.1733717,53.3459177 37.1733717,53.3459177 C37.1733717,53.3459177 52.2320538,55.3333316 49.9587008,48.2336268 C47.6861345,41.1323487 38.0256038,35.4517195 38.0256038,35.4517195 L30.0705204,29.2039321 C30.0705204,29.2039321 25.8087702,24.374827 31.7751418,26.3634208 C37.741356,28.3516214 48.2540794,32.8951807 48.2540794,32.8951807 C48.2540794,32.8951807 55.0729583,34.5994088 59.0505393,34.5994088 C63.0285137,34.5994088 66.153784,31.191346 66.4377565,26.647 C66.7221222,22.102182 60.4711883,11.0261154 60.4711883,11.0261154 L54.5050134,1.93703008 L68.4267436,12.7304221 L68.1423778,17.5583473 L75.2456225,37.7242858 L90.3040292,34.0318572 L92.2926231,41.9846594 L119.852111,42.2682385 L133.20629,45.3927222 L123.54572,50.2210407 L109.907569,56.7539805 L115.590951,57.6058979 L130.364599,57.8894771 L145.139426,57.0375597 L149.401373,57.8894771" id="path24" fill="#007D61"></path>
                        <path d="M59.0505393,34.7960656 C63.0839709,34.7960656 66.3441478,31.297934 66.6344133,26.6591927 C66.9187791,22.108947 60.8987202,11.3836375 60.642673,10.9294782 L55.3164195,2.8149455 L68.2241871,12.8219856 L67.9441478,17.5866265 L67.9571271,17.6236374 L75.1189755,37.9579141 L90.1604697,34.269812 L92.1388374,42.1797429 L119.828119,42.4648953 L132.631265,45.4603722 L123.458011,50.0452295 L109.244835,56.8534889 L115.561452,57.8001949 L130.360665,58.0861339 L145.125267,57.2353964 L149.243261,58.0586019 C149.609829,59.449359 152.923103,73.2908533 144.399603,88.468434 C144.304814,88.6021607 133.828512,103.500882 125.174431,107.129201 C122.304815,108.331954 120.369712,109.293606 118.661944,110.141983 C115.1351,111.894195 112.587608,113.160665 104.747293,115.07217 L87.1598798,116.771678 C87.1008828,116.776791 81.0816106,117.305405 69.6051113,114.787017 C58.1132729,112.26509 49.5638139,108.029102 49.4788582,107.987018 L27.0266267,97.7585026 C16.3283378,92.853488 0.623000968,84.6973427 1.2068279,82.3335276 C1.2859508,82.0137636 1.8537974,81.5000959 4.7729399,81.6605679 C19.8735492,82.4833801 25.4008253,79.1260547 25.8907761,78.8055041 C26.439724,78.6576181 32.3601958,76.982102 33.6840896,73.2605681 C34.2628507,71.6338228 33.8650926,69.8635181 32.5021427,67.998818 C27.1415529,60.6654849 18.3244047,55.4989166 18.2359091,55.4473926 C16.6387016,54.3484742 14.2155355,52.2564389 14.5679839,51.3533907 C14.705329,51.0009817 15.4598226,50.4841675 18.9618481,50.9844625 C28.7930376,52.3881989 37.0641092,53.5292019 37.1464691,53.5406079 C37.5483963,53.5929187 46.9950824,54.7992117 49.6822013,51.5826926 C50.4283173,50.6902639 50.5844628,49.5429679 50.1459181,48.1734498 C47.8768916,41.0827911 38.2225752,35.3396251 38.1253088,35.2825946 L30.191897,29.0489665 C29.5128016,28.2741386 28.519842,26.8153382 28.8578557,26.3048171 C29.0011792,26.0892812 29.5627525,25.833234 31.7129196,26.5502448 C37.6027916,28.5124866 48.0711886,33.0304806 48.1762033,33.0757117 C48.274925,33.1032437 55.0945906,34.7960656 59.0505393,34.7960656 Z M54.6253674,1.78123854 L54.3406083,2.04487669 L60.3067832,11.133962 C60.3622404,11.233077 66.5187791,22.2002351 66.2414929,26.6344139 C65.9646001,31.0631257 62.8731548,34.402752 59.0505393,34.402752 C55.1429681,34.402752 48.3697136,32.7217294 48.3016704,32.7044236 C48.2269408,32.6694187 37.7433619,28.1447384 31.837364,26.1765968 C29.9560661,25.5500482 28.9046994,25.5213363 28.5298321,26.0877079 C27.9168135,27.0139616 29.7159088,29.0993106 29.9230278,29.3341189 L37.9042272,35.6066851 C38.0220639,35.6778749 47.5480814,41.3463113 49.7714835,48.2934104 C50.1659771,49.5260554 50.0346104,50.5478843 49.3805297,51.3305785 C46.8306773,54.3822992 37.2953383,53.1634201 37.1990158,53.1504408 C37.1179145,53.139428 28.8475509,51.9988184 19.017502,50.5946887 C16.1014352,50.1789561 14.52586,50.3799394 14.2015336,51.2106178 C13.6212386,52.6981301 17.5732936,55.4686315 18.0257616,55.7797426 C18.1262139,55.8383463 26.8736276,60.9655832 32.1845813,68.2308731 C33.4659185,69.983872 33.8458595,71.631463 33.3138241,73.1280214 C32.0250926,76.7528001 25.8213563,78.4173035 25.7588194,78.4334294 L25.6979738,78.4613546 C23.8400387,79.7246781 17.0801176,81.9366741 4.79441483,81.2676476 C2.28352403,81.1299878 1.02261551,81.4395256 0.825038327,82.2391323 C-0.024428318,85.6782669 24.1085933,96.8534879 26.8630082,98.116418 L49.30934,108.341787 C49.388396,108.381118 57.9815128,112.639132 69.5209422,115.171285 C81.065878,117.704618 87.1370676,117.168532 87.1972446,117.163025 L104.812583,115.458797 C112.723301,113.531954 115.287706,112.258011 118.837362,110.494392 C120.53923,109.648768 122.468434,108.689869 125.326644,107.491836 C134.085346,103.819859 144.626545,88.828316 144.731953,88.6772836 C153.770301,72.5852486 149.632641,57.9799392 149.58977,57.8344132 L149.556338,57.7203522 L145.153192,56.8397229 L145.12802,56.8412962 L130.353586,57.6932135 L115.594491,57.4092411 L110.570302,56.6544722 L123.630675,50.3984251 L133.781314,45.3250723 L119.854078,42.0715817 L92.446802,41.7895758 L90.4471954,33.7942958 L75.3718762,37.4906575 L68.3410012,17.5303827 L68.6293002,12.6387014 L68.5470976,12.5746306 L54.6253674,1.78123854 L54.6253674,1.78123854 Z" id="path26" fill="#007D61"></path>
                        <path d="M58.1828894,35.3443449 C61.5406081,35.3443449 63.9335284,34.4519162 65.3915421,32.6713853 C70.2426728,26.7476883 62.395672,12.5978361 57.6873142,5.22949804 C68.6037348,14.1612579 97.3887881,36.7233026 110.705995,37.6570292 C126.53215,38.767747 142.009436,34.8810214 163.817498,28.8255643 C182.076298,23.7545713 185.451716,25.5602743 185.7644,25.7706971 L186.252503,26.3807266 L186.873152,25.8021622 C190.123889,22.7708152 195.668432,18.8031457 197.250339,19.9071771 C197.302257,19.9437553 198.482984,20.8936864 195.192129,29.3805299 C193.448963,33.8764983 191.334115,38.1860361 191.312876,38.2289072 C191.257419,38.3343153 184.768924,50.5655834 174.597832,56.0617485 C164.235197,61.661355 150.642277,67.618877 150.505798,67.6782674 L150.074333,67.8670579 L150.036968,68.3366744 C148.595473,86.497146 137.972858,97.6051103 129.315631,103.725857 C119.883576,110.39449 110.660764,112.773252 110.568335,112.796457 L110.519958,112.810616 C110.267057,112.891246 84.8951798,120.842081 59.3301853,111.119368 C33.2013758,101.182691 7.5015534,86.8798402 2.93848174,83.9280212 C1.97824577,83.3069789 1.71045423,82.937264 1.63855256,82.8027508 C1.98899897,82.5136652 3.45010021,82.2517183 4.78414934,82.2505384 C23.0593898,81.4941962 32.6639127,78.5667627 34.1789569,73.3002928 C36.0224573,66.89282 25.0766562,59.3773826 19.1961844,55.3404112 C17.8934509,54.4456227 16.8646997,53.7396247 16.3795079,53.3191724 C14.8577381,52.0011783 14.9580724,51.4898705 14.9597636,51.4851508 C15.0433428,51.260962 15.8893998,51.0241872 16.638859,51.0084546 C37.8440109,55.4757111 48.6591925,55.6035381 50.6702052,51.4096345 C52.7712868,47.0261538 44.8530962,40.0357902 35.8373246,32.6517196 C33.9470985,31.1040303 32.3147288,29.7667639 31.4789373,28.9313657 C30.1450533,27.5980324 29.6134506,26.8605693 29.4015725,26.4845614 C29.8979737,26.5447384 30.7374624,26.7830865 31.4726049,27.0898711 C43.44464,32.6005888 52.2961639,35.3443449 58.1828894,35.3443449 Z M54.4471963,0.486528645 L53.3010803,1.54804288 C53.3435582,1.60672527 57.5878058,7.45325413 61.0116012,14.1403729 C65.4218273,22.7528408 66.5152392,28.8161248 64.1742364,31.6751218 C61.8041282,34.5687303 54.3162228,35.8733518 32.10407,25.6491632 C30.54525,24.9985831 28.5751419,24.4539223 27.8890062,25.4764985 C27.2855057,26.3779734 27.980255,27.6586027 30.3665676,30.0436567 C31.257541,30.9345122 32.8386226,32.2293007 34.8405104,33.8690254 C40.4853481,38.4920341 50.9927224,47.0977369 49.2515229,50.7292019 C47.148868,55.1150425 28.0670593,51.8112078 16.8791343,49.4513258 L16.7167351,49.4344134 C16.2707567,49.4344134 14.0185641,49.5067831 13.4855847,50.9356916 C12.9908748,52.2619452 14.31233,53.6098312 15.3493801,54.5085529 C15.9013959,54.986429 16.9622808,55.7148458 18.3056829,56.6371664 C23.4636376,60.1789559 34.196774,67.5480806 32.6671772,72.8652879 C31.7829687,75.9382475 26.2221822,79.7883949 4.75111099,80.6780704 C4.74879044,80.6780704 4.7463519,80.6780704 4.74403135,80.6780704 C3.51339618,80.6780704 0.547874126,80.8452287 0.0983284145,82.3681392 C-0.256422019,83.5697124 1.06164009,84.5876082 2.08394882,85.2487684 C8.25742359,89.2424753 34.1843453,103.239722 58.7708933,112.589967 C84.4995062,122.375218 110.017303,114.615533 110.975808,114.316221 C111.611797,114.153389 120.654864,111.762829 130.178954,105.041885 C139.05565,98.7783649 149.93038,87.442672 151.565778,68.9305781 C153.970891,67.8670579 165.966958,62.5140591 175.345915,57.4458193 C185.947685,51.7168125 192.44444,39.4595857 192.715826,38.940805 C192.746505,38.879448 194.891244,34.5085534 196.659189,29.9492614 C200.004715,21.3211004 199.214548,19.3612971 198.152207,18.6182883 C195.199995,16.5506384 188.454666,22.2453875 186.251716,24.2371672 C183.927626,23.194886 176.993506,23.5339617 163.396653,27.3097335 C141.745523,33.3215327 126.390557,37.1799397 110.81573,36.0877077 C95.0611579,34.9824963 54.8515227,0.831464723 54.4471963,0.486528645 L54.4471963,0.486528645 Z" id="path28" fill="#0B335E"></path>
                        <path d="M186.904617,25.5111101 C186.904617,25.5111101 176.676102,36.588396 164.743359,37.4407067 C152.810222,38.2922307 145.991343,39.1441481 112.749653,56.185249 C112.749653,56.185249 99.1111086,63.2861338 90.3040292,53.6294968 C90.3040292,53.6294968 97.4064872,59.5940985 111.329004,53.6294968 C125.250341,47.6648952 132.069613,45.677088 132.069613,45.677088 C132.069613,45.677088 104.510125,37.1559476 75.529595,50.2210407 C75.529595,50.2210407 109.623989,28.9195663 74.3933118,39.4281206 C74.3933118,39.4281206 70.4153375,27.2153382 67.2900671,22.6706775 C67.2900671,22.6706775 59.6188776,9.60558446 67.2900671,12.1621232 L84.9054059,24.374827 L98.2595846,32.6119949 L109.055651,37.1559476 L116.158896,37.4407067 L125.534707,36.8723684 L134.626545,35.4517195 L149.116614,32.0432634 L165.027724,27.4993107 L179.233427,24.374827 L186.904617,25.5111101" id="path30" fill="#0B335E"></path>
                        <path d="M150.25329,71.8072742 C150.25329,71.8072742 150.821235,63.854472 147.980331,59.8780709 C147.980331,59.8780709 130.648964,76.3516202 119.284166,82.6001942 C107.918975,88.8487683 101.668434,93.6770868 74.108946,89.4167132 C74.108946,89.4167132 85.75811,89.7006857 88.8833803,89.1327408 C92.0086506,88.5647959 92.5769888,88.2808234 87.1787589,85.7242846 C81.7801356,83.1681392 76.9506372,80.8959662 76.9506372,80.8959662 C76.9506372,80.8959662 85.1897717,82.3162218 88.0306763,82.8841667 C88.0306763,82.8841667 98.2595846,85.1563397 106.782692,81.7478835 C115.306585,78.3398207 112.08456,79.5815119 112.08456,79.5815119 C112.08456,79.5815119 120.705208,76.6355926 146.559682,58.1738428 C146.559682,58.1738428 147.12802,54.1982284 118.14749,64.7063894 C89.1673527,75.2157303 81.2117974,71.8072742 81.2117974,71.8072742 C81.2117974,71.8072742 70.1317583,70.670991 65.3014733,50.5054065 C65.3014733,50.5054065 72.1199589,66.126645 82.0645014,67.8308731 C92.0086506,69.5351012 103.373449,71.8072742 124.39803,59.3105193 C124.39803,59.3105193 122.125464,56.4696148 87.4627313,60.1624367 C87.4627313,60.1624367 123.830479,53.6294968 153.378561,54.7653867 C153.378561,54.7653867 152.52625,64.1384445 150.25329,71.8072742" id="path32" fill="#0B335E"></path>
                        <path d="M152.810222,57.6058979 C152.810222,57.6058979 151.555158,52.8224172 159.628708,52.4940003 C163.909927,52.3189757 164.175414,52.2096345 164.175414,52.2096345 C164.175414,52.2096345 170.709927,51.9252688 170.425954,47.949261 C170.425954,47.949261 163.891048,45.3927222 151.389573,55.9020631 C138.888492,66.4106175 152.810222,57.6058979 152.810222,57.6058979" id="path34" fill="#0B335E"></path>
                        <path d="M107.390754,83.3935079 C107.390754,83.3935079 109.370302,64.6261534 87.736871,74.3032426 C87.736871,74.3032426 91.5783655,71.1229084 94.7036358,70.270991 C97.8292994,69.4190736 101.953193,69.2511287 101.953193,69.2511287 C101.953193,69.2511287 110.837755,69.3911484 113.990558,80.9742356 L107.390754,83.3935079" id="path36" fill="#0B335E"></path>
                        <path d="M87.8934098,80.4432621 C87.8934098,75.9697126 92.0475887,72.342574 97.170499,72.342574 C102.293409,72.342574 106.447588,75.9697126 106.447588,80.4432621 C106.447588,84.9168117 102.293409,88.5439502 97.170499,88.5439502 C92.0475887,88.5439502 87.8934098,84.9168117 87.8934098,80.4432621" id="path38" fill="#0B335E"></path>
                        <path d="M94.4102238,83.0269396 L92.5034392,82.9537832 C92.5034392,82.9537832 87.6637146,76.8546683 96.0436554,74.061748 C96.0436554,74.061748 89.0599781,77.4886899 94.4102238,83.0269396" id="path40" fill="#F9F9F9"></path>
                        <path d="M96.4637144,79.0316594 C96.4637144,77.7970479 97.465091,76.7956713 98.7000959,76.7956713 C99.9354941,76.7956713 100.937657,77.7970479 100.937657,79.0316594 C100.937657,80.266271 99.9354941,81.2676476 98.7000959,81.2676476 C97.465091,81.2676476 96.4637144,80.266271 96.4637144,79.0316594" id="path42" fill="#F9F9F9"></path>
                    </g>
                </g>
            </g>
        </g>
    </g>
</svg>