<?xml version="1.0" encoding="UTF-8"?>
<svg width="200px" height="200px" viewBox="0 0 200 200" version="1.1" xmlns="http://www.w3.org/2000/svg" xmlns:xlink="http://www.w3.org/1999/xlink">
    <!-- Generator: Sketch 54.1 (76490) - https://sketchapp.com -->
    <title>fdu-florham</title>
    <desc>Created with Sketch.</desc>
    <g id="fdu-florham" stroke="none" stroke-width="1" fill="none" fill-rule="evenodd">
        <g id="fdu-florham_BGL">
            <g id="fdu-florham" transform="translate(34.000000, 0.000000)">
                <path d="M55.0873646,0 L55.1350181,0 C57.6844765,1.05137395 60.3768953,1.64874552 62.8787004,2.89127838 C66.0953069,4.42054958 68.9783394,6.52329749 71.0512635,9.46236559 C72.9574007,12.1146953 74.1487365,15.3643967 74.8635379,18.5185185 C74.9826715,18.781362 74.9826715,19.1875747 75.3162455,19.2592593 C78.4137184,20.2389486 81.4635379,20.9080048 84.4180505,22.3416965 C87.4440433,23.7753883 90.6129964,25.2568698 93.233935,27.3596177 C97.2606498,30.7287933 100.405776,35.1493429 102.716968,39.832736 C105.004332,44.5878136 106.719856,49.7252091 107.458484,54.958184 C107.720578,56.5352449 107.815884,58.1123059 108.006498,59.7132616 C108.435379,59.2114695 108.768953,58.6379928 109.102527,58.0645161 C113.224549,50.8004779 116.226715,43.2735962 119.276534,35.5316607 C120.301083,40.0238949 120.872924,44.6117085 120.825271,49.223417 C120.872924,53.0704898 120.61083,56.869773 120.25343,60.692951 C119.562455,67.4551971 118.442599,74.1218638 117.13213,80.7646356 C115.60722,88.0764636 113.248375,95.125448 110.341516,101.983274 C113.033935,105.471924 115.106859,109.557945 116.870036,113.572282 C119.729242,120.238949 121.706859,127.359618 122.945848,134.504182 C123.184116,135.770609 123.327076,137.037037 123.58917,138.27957 C123.779783,138.016726 123.970397,137.729988 124.137184,137.467145 C125.519134,139.450418 126.99639,141.362007 128.330686,143.39307 C128.80722,144.109916 129.307581,144.802867 129.807942,145.495818 C128.068592,150.489845 126.281588,155.459976 124.399278,160.382318 C124.113357,161.051374 123.87509,161.72043 123.66065,162.413381 C126.138628,165.065711 128.330686,168.124253 129.927076,171.397849 C130.999278,173.572282 131.571119,175.913978 131.952347,178.303465 L131.952347,181.123059 C131.547292,183.942652 130.975451,186.571087 129.259928,188.912784 C127.592058,191.278375 124.828159,192.807646 121.945126,193.0227 C118.966787,193.309438 115.845487,192.305854 113.391336,190.633214 C110.579783,188.64994 108.077978,186.236559 106.100361,183.39307 C105.171119,182.078853 104.361011,180.669056 103.574729,179.259259 C99.833935,177.538829 96.0931408,175.890084 92.1617329,174.623656 C89.3025271,173.620072 86.2765343,172.97491 83.2981949,172.353644 C81.2967509,171.899642 79.2238267,171.660693 77.1747292,171.35006 C77.1509025,168.793309 77.0794224,166.236559 77.198556,163.679809 C77.6512635,163.775388 78.1039711,163.870968 78.5566787,163.942652 C78.6043321,161.457587 78.5566787,158.948626 78.5805054,156.46356 C78.2945848,156.487455 77.9848375,156.51135 77.698917,156.55914 C76.4837545,159.569892 75.2209386,162.580645 74.0057762,165.591398 C73.3624549,167.383513 72.8382671,169.223417 72.4093863,171.063321 C69.6454874,170.872162 66.8577617,170.800478 64.0938628,171.087216 C63.5458484,169.772999 63.0931408,168.482676 62.4736462,167.216249 C61.1631769,164.468339 59.8765343,161.744325 58.566065,158.996416 C57.5891697,159.450418 56.6122744,159.928315 55.6353791,160.430108 C55.9451264,160.9319 56.2548736,161.385902 56.6837545,161.792115 C57.5891697,162.628435 58.399278,163.48865 59.1617329,164.444444 C57.6844765,166.833931 56.1595668,169.056153 53.967509,170.872162 C51.3465704,173.142174 48.1299639,174.432497 44.7227437,174.982079 C42.9833935,175.221027 41.101083,175.005974 39.5285199,174.217443 C38.4563177,173.691756 37.5747292,172.831541 36.8122744,171.923536 C36.1689531,171.135006 35.8592058,170.227001 35.2635379,169.414576 C33.500361,175.077658 29.8072202,180.167264 25.1848375,183.847073 C23.8743682,184.946237 22.3971119,185.806452 21.0628159,186.857826 C18.4895307,188.769415 16.0592058,190.919952 13.700361,193.094385 C11.4129964,195.364397 9.1732852,197.682198 6.86209386,199.928315 C6.88592058,195.459976 6.90974729,191.087216 6.90974729,186.690562 C7.52924188,186.069295 8.14873646,185.448029 8.79205776,184.850657 C8.81588448,173.572282 8.79205776,162.270012 8.79205776,150.991637 C8.22021661,151.039427 7.64837545,151.087216 7.0765343,151.182796 C7.05270758,148.673835 7.0765343,146.14098 7.0765343,143.632019 C7.05270758,143.297491 7.12418773,142.986858 6.88592058,142.700119 C6.433213,142.126643 5.90902527,141.600956 5.43249097,141.027479 C3.57400722,138.733572 2.12057762,136.129032 1.21516245,133.333333 C0.54801444,131.326165 0.190613718,129.151732 0,127.048984 L0,123.130227 C0.285920578,120.549582 0.667148014,117.801673 1.62021661,115.388292 C3.24043321,111.039427 6.21877256,107.192354 9.64981949,104.109916 C11.2223827,102.771804 12.8902527,101.338112 14.7249097,100.358423 C16.5357401,99.3787336 18.4418773,98.5902031 20.4909747,98.2317802 C20.4909747,97.4432497 20.4433213,96.6547192 20.3718412,95.8661888 C19.3234657,96.0573477 18.3227437,96.2962963 17.3696751,96.7741935 C16.1068592,97.3476703 15.1537906,98.3273596 14.0577617,99.2114695 C13.8909747,96.6547192 13.7480144,94.1218638 13.867148,91.5651135 C14.1530686,86.1170848 15.1776173,80.7646356 17.8462094,75.9856631 C19.299639,73.5005974 21.1581227,71.2066906 23.1357401,69.1039427 C24.0888087,68.1003584 25.1371841,67.2640382 26.233213,66.4038232 C26.2808664,66.1170848 26.1855596,65.7825568 26.1379061,65.4958184 C25.6613718,63.297491 25.4707581,61.051374 25.3039711,58.8052569 C25.1610108,55.2210275 25.0895307,51.4217443 25.9234657,47.9330944 C26.5191336,45.6391876 27.1862816,43.2735962 28.1393502,41.0991637 C29.7833935,37.3237754 32.2613718,33.9784946 35.7638989,31.7323775 C35.8830325,29.9641577 36.0021661,28.2198327 36.4310469,26.4994026 C36.9075812,24.3010753 37.765343,22.2461171 38.8137184,20.2867384 C39.4808664,18.9964158 40.600722,17.8972521 41.6729242,16.9414576 C42.9833935,15.818399 44.4129964,14.8387097 45.9617329,14.0740741 C46.9862816,13.572282 48.0584838,13.3094385 49.1306859,12.9271207 C48.9638989,13.6439665 48.7494585,14.3608124 48.6541516,15.0776583 C48.3920578,17.9928315 49.1545126,20.5734767 50.0599278,23.3213859 C51.7516245,22.60454 53.4194946,22.0549582 55.2303249,21.6487455 C55.6830325,20.9557945 55.9212996,20.0955795 56.2310469,19.3309438 C56.9458484,17.3237754 57.5415162,15.2927121 57.6368231,13.1421744 C57.73213,11.0633214 57.898917,9.0083632 57.73213,6.92951016 C57.6129964,5.44802867 57.7083032,3.58422939 56.7790614,2.3655914 C56.2072202,1.57706093 55.6830325,0.764635603 55.0873646,0 Z" id="Shape" fill="#015A9C" fill-rule="nonzero"></path>
                <path d="M59.6859206,4.01433692 C62.5689531,5.1135006 65.332852,6.52329749 67.501083,8.76941458 C70.7176895,11.8757467 72.3617329,16.6308244 73.0765343,20.9557945 C75.4353791,21.6965352 77.8180505,22.3655914 80.1768953,23.1063321 C82.6072202,23.9187575 84.966065,25.0896057 87.2296029,26.260454 C88.6830325,27.0250896 90.2079422,27.8614098 91.5184116,28.8888889 C93.4722022,30.3942652 95.1877256,32.2819594 96.6649819,34.2413381 C99.0714801,37.4432497 100.953791,40.9796894 102.40722,44.7311828 C103.670036,47.9569892 104.623105,51.30227 105.171119,54.7431302 C105.81444,58.7574671 105.933574,62.7240143 106.028881,66.786141 C111.413718,59.7849462 114.940072,52.0908005 118.323466,43.9665472 C118.561733,46.6666667 118.633213,49.390681 118.561733,52.0908005 C118.299639,60.5495818 117.036823,69.1278375 115.488087,77.4193548 C113.963177,85.9737157 111.246931,94.3369176 107.744404,102.270012 C110.46065,105.758662 112.509747,109.510155 114.320578,113.524492 C118.085199,121.959379 120.301083,130.919952 121.492419,140.071685 C120.491697,139.498208 119.490975,139.044205 118.371119,138.709677 C117.322744,130.203106 114.916245,121.792115 111.080144,114.145759 C109.174007,110.37037 106.934296,106.666667 104.170397,103.44086 C107.363177,96.0095579 109.650542,88.1481481 111.628159,80.3106332 C113.79639,71.3500597 115.60722,62.2222222 116.417329,53.0227001 C115.273646,55.6750299 114.153791,58.3273596 112.962455,60.9318996 C109.459928,68.6021505 105.337906,76.4157706 99.6433213,82.7240143 C97.0223827,85.6152927 94.0440433,88.1959379 90.73213,90.2747909 C86.9436823,92.688172 82.7263538,94.4563919 78.3898917,95.6750299 C72.5285199,97.3237754 66.3097473,98.0406213 60.233935,98.2317802 C58.065704,98.2795699 55.9451264,98.3751493 53.7768953,98.2795699 C55.3256318,112.114695 56.8505415,125.925926 58.3754513,139.761051 C52.1090253,136.320191 45.8425993,132.879331 39.5761733,129.414576 C39.2187726,129.247312 38.9566787,129.008363 38.5516245,129.127838 C36.2404332,129.557945 33.8577617,129.342891 31.6418773,128.554361 C30.2122744,132.640382 28.8303249,136.750299 27.400722,140.812425 C26.7097473,140.525687 25.9949458,140.286738 25.2801444,140.071685 C26.6382671,135.913978 27.9963899,131.756272 29.3783394,127.598566 C27.9963899,126.857826 26.566787,125.925926 24.9703971,125.854241 C23.1357401,125.782557 21.0866426,125.925926 19.4187726,126.786141 C17.1075812,127.933094 15.2729242,129.916368 14.033935,132.13859 C13.3906137,133.285544 13.0570397,134.504182 12.6281588,135.746714 C11.8418773,138.136201 11.1032491,140.525687 10.6743682,143.010753 C8.88736462,141.457587 7.29097473,139.761051 5.9566787,137.777778 C3.66931408,134.432497 2.43032491,130.442055 2.26353791,126.403823 C2.16823105,123.201912 2.35884477,119.808841 3.43104693,116.798088 C4.95595668,112.329749 8.02960289,108.410992 11.5797834,105.352449 C13.2714801,103.918757 14.9393502,102.60454 16.9646209,101.67264 C18.8231047,100.764636 20.800722,100.286738 22.8498195,100.095579 C22.6830325,97.8972521 22.5400722,95.6989247 22.3971119,93.5005974 C20.1574007,93.4289128 18.0368231,93.8829152 16.0353791,94.8626045 C15.9400722,89.4623656 16.5833935,83.8948626 18.8231047,78.9247312 C20.0382671,76.1529271 21.968231,73.6917563 23.9935018,71.4456392 C24.9703971,70.442055 25.9472924,69.3667861 27.067148,68.5543608 C27.6866426,68.1003584 28.3537906,67.9808841 29.0685921,67.7897252 C28.7588448,66.8100358 28.3776173,65.8542413 28.2108303,64.8267622 C27.6389892,61.6009558 27.400722,58.2795699 27.400722,55.0059737 C27.4245487,52.9749104 27.5198556,50.8721625 27.9725632,48.9127838 C28.3776173,47.2879331 28.8303249,45.6630824 29.3783394,44.0621266 C30.7602888,40.0477897 32.8808664,36.4396655 36.4310469,34.0023895 C36.8837545,33.6439665 37.5747292,33.3811231 37.93213,32.9510155 C38.0036101,31.8757467 37.9559567,30.776583 38.098917,29.7013142 C38.3371841,27.1923536 39.099639,24.7789725 40.1956679,22.5089606 C41.26787,19.8805257 43.9126354,17.921147 46.2714801,16.5352449 C46.4144404,18.7096774 46.7718412,20.8602151 47.4866426,22.9151732 C47.9870036,24.2532855 48.2729242,25.5913978 48.4635379,27.0011947 C49.2974729,26.4755078 50.1314079,25.9020311 50.9891697,25.4719235 C52.7761733,24.6117085 54.6823105,24.0860215 56.6361011,23.7753883 C57.4700361,22.4850657 57.9942238,21.0752688 58.4945848,19.6176822 C59.066426,17.8972521 59.566787,16.2007168 59.733574,14.3847073 C60.067148,10.8482676 60.1862816,7.45519713 59.6859206,4.01433692 Z" id="Shape" fill="#FFFFFF" fill-rule="nonzero"></path>
                <path d="M61.5920578,6.81003584 C66.3097473,8.93667861 69.9552347,13.2616487 70.9559567,18.3990442 C71.3371841,20.0716846 71.3133574,21.744325 71.3133574,23.4647551 C76.3884477,23.9187575 81.4397112,25.3524492 85.9191336,27.8375149 C91.6375451,31.1111111 95.8072202,36.4396655 98.666426,42.2939068 C102.979061,51.2305854 104.599278,61.6009558 103.908303,71.4695341 C103.86065,72.1624851 103.86065,72.8076464 103.503249,73.4289128 C102.4787,75.4360812 101.192058,77.3237754 99.833935,79.1158901 C98.3090253,81.0991637 96.6411552,82.9151732 94.5920578,84.3727599 C89.9696751,87.9091995 85.1566787,90.9199522 79.6288809,92.7598566 C73.433935,94.8626045 66.7624549,95.3405018 60.2815884,95.7706093 C57.0411552,95.9617682 53.7292419,95.7706093 50.8462094,94.1457587 C51.465704,98.6618877 52.0851986,103.154122 52.7046931,107.670251 C52.8714801,108.888889 52.8953069,110.131422 52.8953069,111.373955 C52.8953069,112.640382 52.9191336,113.9546 52.6570397,115.197133 C52.4425993,116.224612 51.8231047,117.228196 51.2750903,118.112306 C49.0592058,121.648746 45.6519856,124.396655 41.6967509,125.663082 C39.5046931,126.356033 37.0981949,126.762246 34.7870036,126.523297 C31.7848375,126.117085 29.1877256,124.205496 26.2093863,123.512545 C23.9696751,122.962963 21.5870036,123.249701 19.4902527,124.229391 C17.1075812,125.448029 15.0584838,127.526882 13.4859206,129.653524 C11.365343,132.544803 9.55451264,135.985663 9.43537906,139.641577 C7.12418773,136.583035 5.26570397,133.237754 4.69386282,129.390681 C4.00288809,124.970131 4.95595668,120.406213 6.29025271,116.176822 C7.60072202,112.13859 10.6267148,108.912784 13.9624549,106.451613 C17.3220217,103.990442 21.1104693,102.078853 25.0418773,100.740741 C24.6844765,97.4671446 24.3509025,94.1935484 23.9696751,90.9199522 C22.6353791,90.5615293 21.3487365,90.3703704 20.0144404,90.8004779 C19.2519856,91.0394265 18.7516245,91.5173238 18.1559567,92.0191159 C18.1797834,87.8614098 19.3234657,83.8948626 21.134296,80.1911589 C22.3494585,77.7299881 23.8743682,75.3643967 25.732852,73.3333333 C26.900361,72.0908005 28.2108303,70.9916368 29.8310469,70.3464755 C30.831769,71.7084827 31.832491,72.9749104 33.3097473,73.8590203 C34.4057762,74.5041816 35.6924188,74.8148148 36.9314079,74.5041816 C38.4563177,74.1457587 39.7429603,73.046595 40.6245487,71.7801673 C41.8158845,70.0597372 42.7689531,68.1481481 43.7458484,66.2843489 C45.2469314,63.2258065 46.6765343,60.1433692 47.9870036,56.9892473 C42.4830325,60.525687 37.0267148,64.1577061 31.498917,67.6941458 C31.33213,66.6188769 31.0938628,65.5436081 30.9509025,64.4683393 C30.8555957,64.0382318 31.165343,63.5603345 31.3559567,63.2019116 C33.8577617,58.781362 37.2173285,54.7192354 40.7913357,51.135006 C43.8411552,48.1959379 47.367509,45.1373955 51.298917,43.5125448 C54.4202166,42.1266428 57.565343,41.0274791 60.9725632,40.692951 C63.5220217,40.4778973 66.0953069,40.6451613 68.5971119,41.218638 C69.5978339,41.4336918 70.8844765,41.7921147 71.5754513,42.60454 C72.3379061,43.4886499 72.2425993,44.5878136 71.9566787,45.6391876 C71.3848375,47.4551971 70.2888087,49.1995221 69.2642599,50.8004779 C66.0953069,55.6272401 62.7357401,60.0955795 60.1148014,65.3046595 C57.8274368,69.8446834 56.0642599,75.0776583 56.3740072,80.2389486 C57.231769,77.1565114 58.1848375,74.1457587 59.6382671,71.30227 C61.6158845,67.2879331 64.3797834,63.7037037 68.0729242,61.1230585 C70.8844765,59.1397849 74.0057762,57.9450418 77.2700361,56.9892473 C79.1046931,56.4874552 80.7249097,55.6272401 82.3212996,54.6475508 C84.8945848,52.9988053 87.1104693,50.9199522 88.4685921,48.1481481 C88.2064982,52.6403823 87.46787,57.0848268 86.3241877,61.4336918 C84.8945848,66.8100358 82.8216606,72.0908005 79.9624549,76.869773 C77.5083032,81.0274791 74.4823105,84.7311828 70.9083032,87.9569892 C72.2425993,87.4074074 73.3862816,86.6427718 74.5776173,85.8064516 C77.0794224,83.9904421 79.3191336,81.7921147 81.368231,79.474313 C83.4888087,77.037037 85.4902527,74.3847073 87.0151625,71.5412186 C88.0158845,69.7252091 88.5162455,67.5268817 88.9689531,65.5197133 C90.3032491,59.1397849 91.0180505,52.6164875 91.2563177,46.1170848 C91.2563177,43.8709677 91.3754513,41.385902 90.73213,39.2114695 C90.398556,41.0274791 89.7790614,42.6523297 88.8498195,44.2532855 C86.9436823,47.479092 84.2036101,50.2270012 81.1061372,52.2580645 C79.0093863,53.6439665 76.5790614,53.9545998 74.1725632,54.8387097 C72.1472924,55.5316607 70.3126354,56.5591398 68.5256318,57.7060932 C70.1220217,54.8626045 72.433213,52.4014337 74.3155235,49.7491039 C75.5783394,47.9808841 76.9602888,45.9020311 77.3891697,43.7514934 C77.6750903,42.3894863 77.3891697,40.9557945 76.3646209,39.9761051 C75.0064982,38.6379928 72.8144404,38.0645161 70.9797834,37.7060932 C68.4779783,37.2998805 65.833213,37.037037 63.3075812,37.3715651 C60.8057762,37.6583035 58.3039711,38.3512545 55.9212996,39.2353644 C48.8924188,41.8399044 42.6498195,46.4038232 37.8844765,52.1863799 C34.9776173,55.6750299 32.7140794,59.5698925 30.8555957,63.7037037 C30.6411552,63.0824373 30.5458484,62.4611708 30.4743682,61.7921147 C29.9740072,57.8494624 29.7357401,53.6678614 30.3314079,49.7252091 C30.6888087,47.2879331 31.4750903,44.9701314 32.499639,42.7240143 C34.3104693,39.1158901 37.2411552,36.5352449 40.2194946,33.9307049 C39.6714801,31.660693 39.7191336,29.4623656 40.3386282,27.2162485 C41.1963899,24.1577061 43.0072202,21.0991637 45.2707581,18.9008363 C45.4613718,22.2700119 46.0093863,25.567503 47.1292419,28.7455197 C49.8454874,27.1206691 52.7761733,25.9259259 55.8736462,25.3285544 C55.8259928,26.4755078 55.9212996,27.5268817 56.6599278,28.4348865 C57.3747292,29.3667861 58.6613718,29.4623656 59.733574,29.6535245 C62.1638989,30.0119474 64.665704,29.6057348 66.4050542,27.7419355 C63.998556,28.7455197 61.3299639,28.9605735 58.8281588,28.1481481 C58.0895307,27.8853047 57.4938628,27.4074074 57.5176895,26.5471924 C57.5415162,25.0179211 58.6851986,24.3010753 59.3285199,22.7956989 C61.7111913,18.0167264 61.9494585,12.0191159 61.5920578,6.81003584 Z" id="Shape" fill="#A80532" fill-rule="nonzero"></path>
                <path d="M42.2924188,88.5304659 C41.601444,90.3703704 40.4577617,92.0430108 39.0519856,93.4050179 C36.8361011,95.6272401 33.833935,96.9892473 30.7364621,97.3237754 C29.5212996,97.4432497 28.0440433,97.2520908 27.1862816,96.2485066 C26.4238267,95.3405018 26.3761733,93.8829152 27.3292419,93.0943847 C27.9249097,92.5686977 28.568231,92.6164875 29.3068592,92.6403823 C31.2844765,92.8076464 33.333574,92.2819594 35.2158845,91.6845878 C37.431769,90.9438471 39.6,89.9641577 41.6729242,88.8172043 C41.8873646,88.7455197 42.0779783,88.6499403 42.2924188,88.5304659 Z" id="Shape" fill="#FFFFFF" fill-rule="nonzero"></path>
                <path d="M53.7292419,119.21147 C54.46787,124.874552 55.2779783,130.537634 55.9927798,136.224612 C51.4180505,133.596177 46.8194946,131.039427 42.2685921,128.387097 C47.0815884,126.833931 51.3227437,123.727599 53.7292419,119.21147 Z" id="Shape" fill="#015A9C" fill-rule="nonzero"></path>
                <path d="M24.7797834,128.124253 C25.4707581,128.148148 26.066426,128.434886 26.6859206,128.721625 C25.5184116,132.401434 24.231769,136.033453 23.1119134,139.713262 C21.5155235,139.593787 19.9429603,139.593787 18.3465704,139.641577 C16.8931408,139.761051 15.4158845,139.665472 13.9624549,139.784946 C14.200722,138.518519 14.6057762,137.252091 14.9870036,136.009558 C15.7732852,133.046595 17.7032491,130.203106 20.5148014,128.841099 C21.801444,128.172043 23.3740072,128.076464 24.7797834,128.124253 Z" id="Shape" fill="#FFFFFF" fill-rule="nonzero"></path>
                <path d="M103.598556,139.11589 C103.574729,141.123059 103.598556,143.130227 103.574729,145.137395 C103.122022,145.328554 102.669314,145.519713 102.216606,145.710872 C102.240433,154.217443 102.216606,162.724014 102.216606,171.25448 C102.740794,171.541219 103.264982,171.851852 103.741516,172.210275 C105.171119,169.653524 106.600722,167.072879 108.101805,164.563919 C109.769675,167.956989 111.223105,171.612903 113.296029,174.79092 C114.392058,176.415771 115.797834,178.064516 117.465704,179.091995 C118.061372,179.091995 118.466426,178.518519 118.561733,177.968937 C118.752347,176.869773 118.299639,175.72282 117.846931,174.74313 C117.012996,172.879331 115.797834,171.30227 114.511191,169.749104 C112.533574,167.383513 110.508303,165.137395 108.888087,162.485066 C107.363177,160.071685 106.243321,157.419355 105.52852,154.647551 C104.980505,152.664277 104.909025,150.489845 105.45704,148.506571 C106.791336,143.48865 111.866426,139.761051 117.012996,139.880526 C119.300361,140 121.254152,141.338112 122.922022,142.795699 C123.398556,141.81601 123.898917,140.83632 124.375451,139.856631 C125.852708,141.76822 127.163177,143.775388 128.5213,145.758662 C126.638989,151.135006 124.709025,156.51135 122.636101,161.81601 C120.872924,158.494624 119.228881,154.647551 116.91769,151.636798 C116.250542,150.800478 115.39278,149.772999 114.368231,149.414576 C113.915523,149.223417 113.748736,149.605735 113.534296,149.940263 C113.200722,150.561529 113.462816,151.373955 113.677256,151.971326 C114.344404,153.596177 115.559567,155.053763 116.679422,156.391876 C120.158123,160.382318 123.898917,163.918757 126.85343,168.410992 C129.116968,171.827957 130.713357,175.555556 130.761011,179.713262 C130.737184,182.532855 130.141516,185.567503 128.5213,187.933094 C127.258484,189.844683 125.25704,191.230585 122.993502,191.684588 C120.753791,192.0908 118.442599,191.780167 116.369675,190.872162 C114.344404,190.035842 112.771841,188.69773 111.151625,187.287933 C107.839711,184.27718 105.576173,180.573477 103.646209,176.583035 C103.598556,177.013142 103.550903,177.467145 103.527076,177.897252 C99.5241877,176.033453 95.4498195,174.360812 91.232491,173.0227 C91.232491,171.206691 91.2086643,169.390681 91.2563177,167.574671 C91.7090253,167.718041 92.1617329,167.837515 92.6144404,167.980884 C92.6144404,161.648746 92.6144404,155.316607 92.6144404,148.984468 C92.2093863,149.151732 91.7805054,149.295102 91.3754513,149.462366 C91.3754513,147.622461 91.3277978,145.782557 91.4231047,143.942652 C93.1386282,143.297491 94.8779783,142.700119 96.5935018,142.078853 C98.9285199,141.146953 101.263538,140.095579 103.598556,139.11589 Z" id="Shape" fill="#FFFFFF" fill-rule="nonzero"></path>
                <path d="M24.5415162,141.242533 C28.2823105,142.078853 31.4750903,144.587814 33.333574,147.956989 C35.4064982,151.684588 35.8592058,155.698925 35.8353791,159.880526 C36.4787004,155.67503 38.7898917,151.373955 42.6259928,149.318996 C45.1516245,147.885305 48.3205776,147.76583 50.9891697,148.864994 C52.8476534,149.62963 54.2772563,151.039427 55.3494585,152.688172 C58.6375451,150.561529 61.9732852,148.506571 65.4758123,146.762246 C65.8570397,147.9092 66.2382671,149.056153 66.6909747,150.179211 C67.167509,149.510155 67.5963899,148.817204 68.2635379,148.291517 C69.2166065,147.502987 70.5032491,147.192354 71.7184116,147.383513 C72.9574007,147.526882 74.0772563,148.052569 75.2924188,148.243728 C76.0787004,148.363202 76.7220217,148.076464 77.4606498,147.86141 C78.0086643,148.363202 78.6281588,148.769415 79.1523466,149.295102 C79.366787,149.48626 79.4620939,149.749104 79.3906137,150.107527 C79.9862816,149.940263 80.6057762,149.796894 81.201444,149.653524 C79.5574007,148.315412 79.1761733,145.925926 80.367509,144.157706 C81.6303249,142.341697 84.0606498,141.242533 86.2527076,141.696535 C87.4440433,141.911589 88.5877256,142.389486 89.2548736,143.464755 C89.9935018,144.707288 89.9458484,146.14098 89.4693141,147.479092 C89.5884477,148.888889 89.5169675,150.322581 89.5169675,151.732378 C89.5169675,156.845878 89.5407942,161.983274 89.4931408,167.096774 C89.9220217,167.240143 90.3270758,167.359618 90.7559567,167.502987 C90.7559567,169.271207 90.7559567,171.039427 90.7559567,172.807646 C86.6815884,171.756272 82.6072202,170.824373 78.4375451,170.274791 C78.4613718,168.554361 78.4375451,166.857826 78.4375451,165.137395 C78.9140794,165.20908 79.3906137,165.280765 79.867148,165.328554 C79.867148,161.887694 79.867148,158.422939 79.867148,154.982079 C79.4144404,155.029869 78.9617329,155.101553 78.4851986,155.173238 C78.4851986,154.074074 78.5090253,152.97491 78.4851986,151.851852 C78.0801444,152.592593 77.7465704,153.357228 77.4368231,154.121864 C76.0548736,157.299881 74.768231,160.525687 73.433935,163.727599 C72.6,165.639188 72.0281588,167.694146 71.4801444,169.725209 C69.2642599,169.58184 67.0722022,169.653524 64.8563177,169.677419 C64.2129964,167.789725 63.3314079,166.069295 62.4974729,164.27718 C61.2108303,161.577061 59.9241877,158.853047 58.6137184,156.176822 C58.2086643,156.46356 57.8274368,156.798088 57.4223827,157.084827 C57.2555957,156.726404 57.0888087,156.367981 56.9220217,156.009558 C57.0649819,156.726404 57.2555957,157.419355 57.4462094,158.112306 C53.7768953,159.856631 50.0837545,161.72043 46.6288809,163.894863 C47.1530686,164.348865 47.5819495,164.826762 48.3205776,164.874552 C49.8216606,164.970131 51.3942238,164.301075 52.5379061,163.321386 C53.300361,162.55675 53.9198556,161.696535 54.7061372,160.979689 C55.4447653,162.389486 56.6837545,163.225806 57.6606498,164.42055 C55.8021661,167.526882 53.3956679,170.250896 50.1552347,171.899642 C48.7494585,172.640382 47.2722022,173.046595 45.7472924,173.452808 C43.9126354,173.90681 41.8873646,173.90681 40.1718412,173.0227 C38.4801444,172.18638 37.3126354,170.657109 36.6216606,168.936679 C35.8353791,166.9773 35.5494585,164.778973 35.6209386,162.676225 C35.2158845,164.946237 34.834657,167.192354 34.0245487,169.366786 C31.9516245,175.340502 27.9249097,180.501792 22.7306859,184.086022 C19.3234657,186.356033 16.2498195,189.008363 13.2476534,191.780167 C11.53213,193.452808 9.84043321,195.197133 8.12490975,196.893668 C8.12490975,193.667861 8.10108303,190.41816 8.14873646,187.192354 C8.76823105,186.594982 9.38772563,185.973716 10.0310469,185.400239 C10.0310469,173.428913 10.0310469,161.481481 10.0310469,149.510155 C9.45920578,149.58184 8.88736462,149.653524 8.31552347,149.701314 C8.31552347,147.789725 8.31552347,145.878136 8.31552347,143.966547 C8.76823105,144.32497 9.19711191,144.707288 9.64981949,145.041816 C9.60216606,146.09319 9.60216606,147.168459 9.62599278,148.219833 C10.1978339,148.148148 10.7458484,148.052569 11.3176895,147.956989 C11.365343,149.127838 11.3415162,150.298686 11.3415162,151.469534 C11.3415162,162.986858 11.3415162,174.504182 11.3415162,186.021505 C10.7220217,186.571087 9.91191336,187.096774 9.45920578,187.789725 C9.36389892,189.749104 9.45920578,191.756272 9.43537906,193.715651 C13.3429603,189.749104 17.5841155,185.997611 22.2064982,182.867384 C26.6144404,179.737157 30.1646209,175.483871 32.2137184,170.46595 C34.0722022,165.949821 34.7393502,160.908005 34.3104693,156.057348 C33.9292419,152.258065 32.7379061,148.458781 29.9740072,145.710872 C27.6389892,143.321386 24.4462094,142.150538 21.134296,142.102748 C18.5371841,142.126643 15.9400722,142.198327 13.3429603,142.222222 C13.4382671,141.792115 13.533574,141.362007 13.6050542,140.955795 C14.9155235,140.83632 16.2259928,140.9319 17.5364621,140.83632 C20.0144404,140.88411 22.2064982,140.645161 24.5415162,141.242533 Z" id="Shape" fill="#FFFFFF" fill-rule="nonzero"></path>
                <path d="M102.26426,141.099164 C102.26426,142.174432 102.26426,143.225806 102.26426,144.301075 C101.811552,144.468339 101.358845,144.635603 100.906137,144.778973 C100.929964,153.930705 100.858484,163.082437 100.929964,172.23417 C101.382671,172.401434 101.835379,172.568698 102.26426,172.759857 C102.26426,173.787336 102.26426,174.83871 102.26426,175.866189 C99.0953069,174.384707 95.8072202,173.142174 92.4953069,172.043011 C92.4953069,171.111111 92.4953069,170.203106 92.4953069,169.271207 C92.9480144,169.414576 93.400722,169.557945 93.8772563,169.701314 C93.8772563,162.150538 93.8772563,154.599761 93.8772563,147.048984 C93.4483755,147.192354 93.0433213,147.335723 92.6382671,147.479092 C92.6382671,146.594982 92.6382671,145.734767 92.6382671,144.850657 C95.8787004,143.655914 99.1191336,142.532855 102.26426,141.099164 Z" id="Shape" fill="#A80532" fill-rule="nonzero"></path>
                <path d="M118.418773,141.457587 C120.444043,142.150538 122.016606,143.632019 123.422383,145.20908 C123.73213,144.253286 124.089531,143.297491 124.518412,142.365591 C125.47148,143.48865 126.210108,144.755078 127.020217,145.973716 C125.495307,150.155317 124.065704,154.384707 122.445487,158.542413 C120.944404,155.770609 119.633935,152.927121 117.584838,150.41816 C116.846209,149.510155 115.916968,148.602151 114.820939,148.172043 C114.439711,148.052569 113.987004,147.885305 113.605776,148.076464 C112.438267,148.626045 111.842599,149.964158 112.104693,151.206691 C112.438267,153.07049 113.72491,154.79092 114.868592,156.248507 C117.227437,159.11589 119.896029,161.72043 122.302527,164.563919 C124.542238,167.216249 126.615162,169.988053 127.997112,173.189964 C129.164621,175.890084 129.712635,178.900836 129.283755,181.839904 C128.997834,183.990442 128.354513,186.09319 126.972563,187.789725 C125.805054,189.247312 124.065704,190.203106 122.231047,190.442055 C119.610108,190.824373 116.846209,189.916368 114.701805,188.434886 C112.724188,187.02509 110.913357,185.400239 109.388448,183.48865 C107.315523,180.9319 105.766787,178.088411 104.432491,175.077658 C104.289531,174.623656 104.00361,174.289128 104.313357,173.835125 C105.52852,171.684588 106.767509,169.510155 108.006498,167.359618 C108.768953,168.936679 109.483755,170.51374 110.270036,172.0908 C111.866426,175.244922 113.844043,178.351254 116.893863,180.262843 C118.109025,180.78853 119.395668,179.761051 119.753069,178.637993 C120.32491,176.941458 119.443321,174.982079 118.704693,173.452808 C116.774729,169.772999 113.391336,166.738351 110.984838,163.273596 C108.888087,160.310633 107.363177,156.965352 106.576895,153.405018 C106.219495,151.517324 106.338628,149.48626 107.101083,147.718041 C108.220939,144.898447 110.794224,142.65233 113.65343,141.696535 C115.130686,141.218638 116.91769,140.908005 118.418773,141.457587 Z" id="Shape" fill="#A80532" fill-rule="nonzero"></path>
                <path d="M13.4144404,142.246117 C16.0115523,142.222222 18.6086643,142.150538 21.2057762,142.126643 C24.4938628,142.174432 27.7104693,143.321386 30.0454874,145.734767 C32.8093863,148.482676 34.000722,152.281959 34.3819495,156.081243 C34.8108303,160.9319 34.1436823,165.973716 32.2851986,170.489845 C30.2361011,175.507766 26.6620939,179.761051 22.2779783,182.891278 C17.6555957,186.021505 13.4144404,189.772999 9.50685921,193.739546 C9.53068592,191.780167 9.45920578,189.772999 9.53068592,187.81362 C9.9833935,187.120669 10.7935018,186.594982 11.4129964,186.0454 C11.4129964,174.528076 11.4129964,163.010753 11.4129964,151.493429 C11.4129964,150.322581 11.4368231,149.151732 11.3891697,147.980884 C10.8173285,148.076464 10.2693141,148.172043 9.69747292,148.243728 C9.69747292,147.168459 9.67364621,146.117085 9.72129964,145.065711 C10.7458484,145.806452 11.8180505,146.499403 12.9379061,147.096774 C12.7711191,145.448029 13.0808664,143.870968 13.4144404,142.246117 Z" id="Shape" fill="#A80532" fill-rule="nonzero"></path>
                <path d="M84.2274368,143.010753 C85.1805054,142.771804 86.5386282,142.939068 87.3963899,143.416965 C88.6353791,144.086022 88.7783394,145.854241 88.2541516,147.001195 C87.634657,148.243728 86.133574,148.817204 84.8231047,148.960573 C83.8700361,149.032258 82.6787004,149.103943 81.8924188,148.458781 C80.8916968,147.718041 80.701083,146.164875 81.2967509,145.113501 C81.9400722,144.038232 83.0361011,143.321386 84.2274368,143.010753 Z" id="Shape" fill="#A80532" fill-rule="nonzero"></path>
                <path d="M24.4223827,149.701314 C25.9711191,152.735962 26.0425993,156.750299 26.1617329,160.095579 C26.1617329,164.205496 25.899639,168.626045 24.6606498,172.568698 C23.7552347,175.412186 22.3018051,178.016726 19.7523466,179.689367 C19.7046931,168.817204 19.7523466,157.945042 19.7285199,147.096774 C21.7299639,146.762246 23.5407942,147.9092 24.4223827,149.701314 Z" id="Shape" fill="#FFFFFF" fill-rule="nonzero"></path>
                <path d="M21.0866426,148.410992 C21.634657,148.673835 22.2064982,148.888889 22.6115523,149.366786 C23.3025271,150.155317 23.7314079,151.25448 23.9935018,152.23417 C24.6129964,154.528076 24.7559567,157.013142 24.8274368,159.378734 C24.8750903,163.273596 24.6844765,167.407407 23.6599278,171.206691 C23.0880866,173.166069 22.3494585,175.077658 21.0389892,176.678614 C21.0151625,168.769415 21.0389892,160.860215 21.0151625,152.927121 C21.0389892,151.421744 20.967509,149.916368 21.0866426,148.410992 Z" id="Shape" fill="#015A9C" fill-rule="nonzero"></path>
                <path d="M64.7371841,148.626045 C65.3805054,150.322581 65.9523466,152.043011 66.7386282,153.691756 C67.167509,152.425329 67.5487365,151.111111 68.3588448,150.035842 C69.0021661,149.199522 69.9314079,148.602151 71.0036101,148.626045 C72.4570397,148.64994 73.9104693,149.414576 75.2924188,149.557945 C75.9357401,149.62963 76.5075812,149.48626 77.1032491,149.366786 C77.365343,149.53405 77.6512635,149.701314 77.9133574,149.868578 C77.3415162,150.919952 76.9126354,152.043011 76.4599278,153.166069 C74.7920578,156.869773 73.3386282,160.669056 71.7422383,164.42055 C71.1942238,165.710872 70.8368231,167.048984 70.4794224,168.387097 C68.9306859,168.291517 67.3581227,168.291517 65.7855596,168.387097 C65.2851986,167.096774 64.6895307,165.854241 64.0938628,164.587814 C62.4974729,161.146953 60.8057762,157.753883 59.233213,154.313023 C58.7805054,154.528076 58.3277978,154.767025 57.898917,155.005974 C57.6129964,154.360812 57.3509025,153.739546 57.0888087,153.094385 C59.5906137,151.541219 62.0924188,149.940263 64.7371841,148.626045 Z" id="Shape" fill="#A80532" fill-rule="nonzero"></path>
                <path d="M52.8,151.589008 C54.46787,153.189964 55.3494585,155.221027 55.9689531,157.419355 C52.1805054,159.21147 48.4873646,161.170848 44.9610108,163.44086 C45.3898917,164.229391 45.7711191,164.994026 46.5097473,165.543608 C47.3913357,166.212664 48.4873646,166.356033 49.5595668,166.14098 C51.5848375,165.806452 53.3241877,164.755078 54.5393502,163.082437 C55.0635379,163.584229 55.5877256,164.086022 56.0880866,164.587814 C54.0151625,167.741935 51.298917,170.37037 47.6534296,171.589008 C45.7234657,172.18638 43.9602888,172.759857 41.8873646,172.305854 C40.267148,171.899642 38.9805054,170.776583 38.2418773,169.295102 C37.0981949,167.120669 36.8599278,164.42055 36.9314079,162.007168 C37.0505415,158.685783 38.1942238,155.316607 40.3624549,152.783751 C41.6967509,151.230585 43.4837545,150.011947 45.5090253,149.58184 C48.0823105,149.080048 50.9176895,149.701314 52.8,151.589008 Z" id="Shape" fill="#A80532" fill-rule="nonzero"></path>
                <path d="M88.2064982,149.295102 C88.2064982,155.57945 88.2064982,161.887694 88.2064982,168.172043 C88.6353791,168.267622 89.0404332,168.363202 89.4454874,168.458781 C89.4454874,169.342891 89.4454874,170.250896 89.4454874,171.135006 C86.2527076,170.322581 83.0122744,169.605735 79.7241877,169.151732 C79.7241877,168.315412 79.7241877,167.479092 79.7241877,166.642772 C80.200722,166.714456 80.6772563,166.786141 81.1537906,166.857826 C81.1299639,162.389486 81.201444,157.921147 81.1061372,153.476703 C80.6534296,153.548387 80.2245487,153.620072 79.7718412,153.667861 C79.7718412,152.879331 79.7718412,152.0908 79.7718412,151.30227 C82.6310469,150.657109 85.4187726,149.940263 88.2064982,149.295102 Z" id="Shape" fill="#A80532" fill-rule="nonzero"></path>
                <path d="M46.8433213,153.500597 C47.8202166,154.480287 48.3205776,156.009558 48.7256318,157.299881 C48.4158845,157.586619 48.0584838,157.753883 47.701083,157.968937 C46.366787,158.661888 45.0801444,159.474313 43.8173285,160.310633 C43.4837545,158.805257 43.0310469,157.371565 43.1978339,155.794504 C43.2693141,154.910394 43.5790614,153.90681 44.2700361,153.333333 C45.0086643,152.712067 46.1523466,152.783751 46.8433213,153.500597 Z" id="Shape" fill="#FFFFFF" fill-rule="nonzero"></path>
                <path d="M68.8592058,153.572282 C70.2173285,153.643967 71.2180505,154.456392 72.6476534,154.217443 C71.6707581,156.296296 71.0274368,158.542413 70.0267148,160.621266 C69.3357401,158.900836 68.3826715,157.275986 67.7393502,155.531661 C67.4057762,154.671446 67.9061372,153.643967 68.8592058,153.572282 Z" id="Shape" fill="#FFFFFF" fill-rule="nonzero"></path>
                <path d="M45.7711191,154.313023 C46.5097473,154.814815 46.8433213,155.961768 47.1530686,156.750299 C46.2953069,157.228196 45.4851986,157.729988 44.6274368,158.207885 C44.4606498,157.060932 44.2462094,155.913978 44.7227437,154.79092 C44.9371841,154.384707 45.3184116,154.026284 45.7711191,154.313023 Z" id="Shape" fill="#015A9C" fill-rule="nonzero"></path>
                <path d="M22.3018051,154.74313 C22.6115523,154.719235 22.9451264,154.719235 23.2787004,154.695341 C23.6837545,157.753883 23.6599278,160.83632 23.5407942,163.918757 C23.3501805,166.284349 23.2072202,168.841099 22.3494585,171.087216 C22.2541516,170.203106 22.2541516,169.342891 22.2779783,168.458781 C22.3018051,163.894863 22.2303249,159.307049 22.3018051,154.74313 Z" id="Shape" fill="#FFFFFF" fill-rule="nonzero"></path>
                <path d="M91.2086643,154.551971 C91.3277978,158.470729 91.232491,162.413381 91.2563177,166.356033 C91.0895307,166.260454 90.9227437,166.164875 90.7559567,166.069295 C90.7797834,162.485066 90.7559567,158.876941 90.7559567,155.292712 C90.73213,154.814815 90.8512635,154.814815 91.2086643,154.551971 Z" id="Shape" fill="#FFFFFF" fill-rule="nonzero"></path>
                <path d="M103.431769,154.74313 L103.598556,154.719235 L104.194224,154.671446 C105.004332,157.514934 106.052708,160.262843 107.625271,162.795699 C106.862816,164.205496 106.028881,165.591398 105.266426,167.001195 C104.694585,167.980884 104.194224,169.008363 103.550903,169.892473 C103.384116,168.912784 103.455596,168.004779 103.455596,167.001195 C103.431769,162.939068 103.455596,158.829152 103.431769,154.74313 Z" id="Shape" fill="#FFFFFF" fill-rule="nonzero"></path>
                <path d="M68.8830325,154.886499 C69.5025271,155.029869 70.0981949,155.173238 70.7176895,155.316607 C70.4794224,155.985663 70.2411552,156.654719 69.9790614,157.299881 C69.6931408,156.774194 69.4310469,156.248507 69.2166065,155.698925 C69.0974729,155.436081 68.9783394,155.149343 68.8830325,154.886499 Z" id="Shape" fill="#015A9C" fill-rule="nonzero"></path>
                <path d="M111.032491,167.694146 C112.485921,169.127838 113.772563,170.752688 115.011552,172.353644 C116.059928,173.811231 117.108303,175.531661 117.394224,177.34767 C116.274368,176.726404 115.46426,175.555556 114.677978,174.575866 C113.200722,172.449223 112.009386,170.107527 111.032491,167.694146 Z" id="Shape" fill="#FFFFFF" fill-rule="nonzero"></path>
            </g>
        </g>
    </g>
</svg>