<?xml version="1.0" encoding="UTF-8"?>
<svg width="200px" height="200px" viewBox="0 0 200 200" version="1.1" xmlns="http://www.w3.org/2000/svg" xmlns:xlink="http://www.w3.org/1999/xlink">
    <!-- Generator: Sketch 54.1 (76490) - https://sketchapp.com -->
    <title>findlay</title>
    <desc>Created with Sketch.</desc>
    <g id="findlay" stroke="none" stroke-width="1" fill="none" fill-rule="evenodd">
        <g id="findlay_BGL">
            <g id="findlay" transform="translate(0.000000, 22.000000)">
                <g id="g10" transform="translate(99.999998, 77.618577) scale(-1, 1) rotate(-180.000000) translate(-99.999998, -77.618577) translate(0.000000, 0.006638)" fill-rule="nonzero">
                    <g id="g12">
                        <path d="M199.925036,111.49353 L199.925036,154.982749 L59.3243766,154.982749 L59.3280251,126.030511 L59.8660018,125.866 C62.635156,125.013596 63.1598658,124.157874 63.1598658,122.879599 L63.1180747,65.0696501 C63.023879,64.4341609 61.1734645,63.1396336 57.0265326,62.7631825 C51.3658362,62.7936966 49.4072956,64.3200647 49.3310104,65.0749569 L49.3034814,123.086232 C49.3034814,124.365171 49.8225527,125.219897 52.5648411,126.072302 L53.1004962,126.238471 L53.1004962,154.982749 L0,154.982749 L0,125.86998 L0.628368143,125.758206 C3.81167486,125.192368 4.54278596,124.777111 4.54278596,123.539632 L4.54278596,74.2679915 C3.9291873,60.2063003 7.36228837,49.1595344 14.7530676,41.4361515 C23.1265666,32.6809942 36.5635148,28.2414587 54.6859024,28.2414587 C55.5442772,28.2414587 56.4043104,28.2504139 57.232171,28.2699827 C66.9903798,28.3337306 75.3595338,29.9933989 82.2905452,33.2013259 L97.1449395,127.917741 L120.52736,127.917741 L135.979101,29.3996013 L160.746596,29.3996013 L160.752898,57.8281909 L160.214921,57.9940284 C157.445767,58.8470964 156.918736,59.7011594 156.918736,60.980098 L156.912766,75.3257029 L180.205966,75.3257029 L180.205966,106.859699 L156.912766,106.859699 L156.912766,122.102485 L159.438802,122.104806 C160.780095,122.104806 161.588056,122.104806 161.588056,119.361191 L161.588056,111.49353 L199.925036,111.49353" id="path14" fill="#231F20"></path>
                        <path d="M115.588057,122.141954 L116.266995,117.812601 L101.405968,117.812601 L102.084575,122.141954 L115.588057,122.141954 Z M125.32537,28.3005631 L92.2859015,28.3005631 L108.819898,38.4693191 L125.32537,28.3005631 Z M90.7107772,49.6262011 L103.863016,41.5227187 L87.8995003,31.7038466 L90.7107772,49.6262011 Z M95.3681568,79.3227178 L104.815586,71.7091193 L92.6358186,61.8931991 L95.3681568,79.3227178 Z M99.967825,108.645105 L105.424873,102.2262 L97.4995001,92.9034803 L99.967825,108.645105 Z M108.835155,106.237477 L103.905138,112.036813 L113.766166,112.036813 L108.835155,106.237477 Z M112.246763,102.2262 L117.705801,108.645105 L120.171141,92.9034803 L112.246763,102.2262 Z M100.131009,87.9741272 L108.835155,98.2129329 L117.541291,87.9741272 L100.131009,87.9741272 Z M117.830511,82.1999979 L108.954889,75.0464326 L100.080926,82.1999979 L117.830511,82.1999979 Z M113.097178,71.7091193 L122.329682,79.1499151 L125.001987,62.114758 L113.097178,71.7091193 Z M126.960528,49.6262011 L129.778438,31.6606957 L113.77877,41.5190703 L126.960528,49.6262011 Z M96.2587041,58.1366486 L108.954889,68.3718059 L121.654723,58.1366486 L96.2587041,58.1366486 Z M121.484242,52.3615244 L108.82222,44.5714748 L96.1810921,52.3615244 L121.484242,52.3615244 Z M134.743944,0 L140.589715,0 L120.52736,127.917741 L97.1449395,127.917741 L77.0805951,0 L82.9273611,0 L86.4596993,22.5237142 L131.211605,22.5237142 L134.743944,0 L134.743944,0 Z" id="path16" fill="#231F20"></path>
                        <path d="M97.1449395,127.917741 L107.341954,127.917741 C107.413264,127.932667 107.482916,127.948919 107.552236,127.965503 L107.552236,152.391704 L61.915753,152.391704 L61.9190698,127.727028 C63.4640117,127.223214 65.7296833,125.981423 65.7519055,124.122053 L65.7104461,64.9681576 C65.587063,62.5704794 62.554559,60.6368144 57.1356536,60.1704794 C50.595687,60.1844098 46.8550569,62.1386386 46.7383073,65.0006617 L46.7276937,124.327692 C46.7502476,126.18673 48.9960187,127.429516 50.5270302,127.932667 L50.5177433,152.391704 L2.58952564,152.391704 L2.58952564,127.965503 C4.76938628,127.464342 7.05482569,127.096183 7.13555538,124.289217 L7.13555538,74.2102801 C5.81429505,44.5011597 23.0248419,30.103515 57.2165823,30.8610606 C67.7061343,30.9297173 76.1426183,32.8806625 82.7784391,36.3160853 L97.1449395,127.917741" id="path18" fill="#F36717"></path>
                        <path d="M197.335318,114.084243 L197.335318,152.391704 L111.013928,152.391704 L111.013928,127.965503 C111.083579,127.948919 111.150578,127.932667 111.220229,127.917741 L120.52736,127.917741 L135.571473,31.9910771 L158.156878,31.9910771 L158.160858,56.1306785 C156.615253,56.6361512 154.349582,57.8792689 154.328354,59.7373119 L154.322716,77.916416 L177.613926,77.916416 L177.613926,104.268986 L154.322716,104.268986 L154.322716,124.693861 L160.130676,124.695188 C162.606961,124.664674 164.029183,123.453065 164.179432,119.712766 L164.179432,114.084243 L197.335318,114.084243" id="path20" fill="#F36717"></path>
                        <polyline id="path22" fill="#231F20" points="169.637475 35.0374784 169.637475 34.4129345 168.154225 34.4129345 168.154225 29.4029843 167.436148 29.4029843 167.436148 34.4129345 165.953893 34.4129345 165.953893 35.0374784 169.637475 35.0374784"></polyline>
                        <polyline id="path24" fill="#231F20" points="171.057044 29.4029843 170.386397 29.4029843 170.386397 35.0374784 171.548586 35.0374784 172.96915 30.3084901 172.984407 30.3084901 174.420891 35.0374784 175.606961 35.0374784 175.606961 29.4029843 174.888885 29.4029843 174.888885 34.4129345 174.873296 34.4129345 173.296845 29.4029843 172.617906 29.4029843 171.072964 34.4129345 171.057044 34.4129345 171.057044 29.4029843"></polyline>
                    </g>
                </g>
            </g>
        </g>
    </g>
</svg>