<?xml version="1.0" encoding="UTF-8"?>
<svg width="200px" height="200px" viewBox="0 0 200 200" version="1.1" xmlns="http://www.w3.org/2000/svg" xmlns:xlink="http://www.w3.org/1999/xlink">
    <!-- Generator: Sketch 54.1 (76490) - https://sketchapp.com -->
    <title>fitchburg-st</title>
    <desc>Created with Sketch.</desc>
    <g id="fitchburg-st" stroke="none" stroke-width="1" fill="none" fill-rule="evenodd">
        <g id="fitchburg-st_BGL">
            <g id="fitchburg-st" transform="translate(0.000000, 16.000000)">
                <g id="g10" transform="translate(99.851849, 83.952593) scale(-1, 1) rotate(-180.000000) translate(-99.851849, -83.952593) translate(0.000000, 0.397040)" fill-rule="nonzero">
                    <g id="g12">
                        <path d="M171.087996,71.3659241 C172.821922,67.1875539 171.393773,63.3588132 171.393773,63.3588132 C167.997625,68.3875538 160.802959,71.0032575 153.579848,67.9881464 C152.539255,67.4939242 151.50933,66.9434057 150.526811,66.327702 C171.310218,59.5117022 176.532144,42.0312286 176.532144,42.0312286 C188.01244,50.0289173 179.668736,69.4399983 171.087996,71.3659241" id="path14" fill="#FFFFFF"></path>
                        <path d="M129.469626,99.5081457 C126.751404,101.107553 123.786071,102.69096 120.552886,104.229331 C120.772145,99.7511086 122.836738,87.3274052 132.408293,82.6239979 C132.926811,82.3691831 133.4317,82.1505165 133.930071,81.9442942 C129.122367,86.7069608 127.437034,93.7084421 129.469626,99.5081457" id="path16" fill="#FFFFFF"></path>
                        <path d="M97.9976272,36.4988435 C97.9976272,36.4988435 92.043257,37.0671398 83.5531831,42.2013619 C85.7279979,37.7002065 87.2468126,33.0462807 88.2293311,25.8391105 C104.653034,31.5416881 119.469627,57.1631986 119.469627,57.1631986 C98.7117012,60.8474059 97.9976272,36.4988435 97.9976272,36.4988435" id="path18" fill="#FFFFFF"></path>
                        <path d="M136.219848,60.3786652 C138.345478,56.1990504 146.961774,46.1933025 149.902218,44.0138656 C149.902218,44.0138656 149.069033,49.769658 150.459255,56.2106653 C150.459255,56.2106653 142.971256,61.5496281 136.219848,60.3786652" id="path20" fill="#FFFFFF"></path>
                        <path d="M192.607403,77.3321462 C201.895699,92.8171829 190.932736,109.701331 180.513773,121.295404 C169.254514,133.820441 155.312589,144.285626 140.146367,151.60533 C110.361479,165.981625 75.4405907,171.621329 43.4664285,161.444737 C30.7029918,157.380737 9.5759405,144.460441 0,131.867849 C10.1064886,131.686515 20.3097476,128.737182 20.3097476,128.737182 C8.5127109,119.405034 2.48078809,106.678516 2.48078809,106.678516 C2.48078809,106.678516 13.6481774,107.797331 30.3645622,105.05896 C30.1268733,104.535701 29.9941918,103.982812 29.9941918,103.40859 C29.9941918,100.199109 33.9819251,97.5970346 38.9004435,97.5970346 C39.5064879,97.5970346 40.0972434,97.6379235 40.6689768,97.7131827 C40.1504583,90.3656274 41.6335397,83.0079979 44.5504581,76.1955537 C48.4173618,67.1549613 54.9675838,59.8589615 59.5887393,51.2661913 C66.138665,39.0995546 71.2995538,19.0590217 67.5472576,0 C98.617479,8.41783683 123.707849,28.7673474 131.864293,38.197925 C137.838219,31.9514066 147.124737,25.0011846 158.029033,20.7546069 C160.752589,23.3622513 163.448885,29.2893622 163.448885,29.2893622 C164.635255,25.3900438 168.110218,23.0301031 173.037033,24.5451253 C182.530366,27.4722364 191.722069,33.1307844 196.133328,42.4328878 C201.435254,53.6111394 199.663402,67.3712576 192.607403,77.3321462 Z M36.0231695,100.657183 L34.5435251,100.657183 L34.5435251,105.098664 L33.323614,105.098664 L33.323614,106.327701 L37.234488,106.327701 L37.234488,105.098664 L36.0231695,105.098664 L36.0231695,100.657183 Z M42.8430804,100.657183 L42.4277915,103.931849 L42.4113175,103.931849 L41.0446805,100.657183 L40.4680286,100.657183 L39.1643249,103.931849 L39.1465472,103.931849 L38.6728879,100.657183 L37.2009472,100.657183 L38.1671102,106.327701 L39.6234064,106.327701 L40.7680582,103.301923 L41.9865471,106.327701 L43.4610952,106.327701 L44.3189915,100.657183 L42.8430804,100.657183 Z M190.921477,48.0798803 C187.535995,36.8078806 174.87407,32.4363251 170.869329,31.1157326 C169.671107,30.7279992 169.493329,33.4015992 169.307848,35.797451 C169.141329,37.9294213 167.101625,42.693273 159.24444,48.3784877 C159.204737,42.5543693 160.17244,36.1839991 155.532441,29.3657474 C141.457774,35.4259547 131.602367,49.1469617 131.602367,49.1469617 C131.602367,49.1469617 114.628738,22.317155 75.7641463,9.88426642 C75.7641463,9.88426642 79.2213314,37.4039102 59.1731541,64.8610354 C49.6076432,77.9537758 43.9162063,91.9662199 49.9266358,107.514071 C26.9706067,114.88059 13.5655108,113.236145 13.5655108,113.236145 C20.6555847,122.808886 37.9321472,131.283552 37.9321472,131.283552 C30.9509326,135.153774 12.6705775,136.565923 12.6705775,136.565923 C12.6705775,136.565923 57.8305763,181.588144 135.423404,146.18607 C161.311403,134.377478 186.081181,109.419257 188.856292,93.9928865 C190.210366,86.4699238 187.365921,80.5659239 183.696588,77.2361462 C192.115551,68.5576279 193.901625,57.9872578 190.921477,48.0798803 L190.921477,48.0798803 Z" id="path22" fill="#FBBF16"></path>
                        <path d="M138.45096,92.4977755 C137.029923,90.6340718 137.531256,87.8494793 139.570367,86.295109 C141.609478,84.743109 144.416589,84.999109 145.848293,86.8693312 C145.871404,86.8995534 145.884441,86.9339238 145.906367,86.9653312 C144.057478,88.9084422 141.763552,90.9765903 139.021034,93.0986643 C138.814219,92.920294 138.621626,92.7223681 138.45096,92.4977755" id="path24" fill="#FBBF16"></path>
                        <path d="M91.0874051,58.8206208 C92.5831088,64.7028132 98.2500716,69.5869612 105.548442,70.7917019 L105.55259,70.7964427 C120.670219,72.9736278 115.425182,84.2210349 113.859553,87.8482941 C108.596738,98.5635531 111.078516,108.303405 111.078516,108.303405 L98.3442938,125.178071 C98.3442938,125.178071 132.440886,119.810367 158.975403,87.7374793 C158.689774,95.1922939 157.346959,99.9051827 157.346959,99.9051827 C157.346959,99.9051827 168.01244,93.4192569 176.942218,82.6826646 C178.939847,102.14222 148.94933,128.394663 127.047701,136.119108 C106.412442,143.399108 81.2942202,148.982515 54.3854209,139.778959 C54.3854209,139.778959 61.4358503,137.438811 66.2613317,132.700441 C66.2613317,132.700441 56.007643,131.526515 45.1713174,122.277923 C45.1713174,122.277923 58.9965022,120.052145 67.4820724,109.85896 C60.5244429,104.39822 57.9305467,72.1688871 91.4317014,47.5127099 C90.76622,49.7685321 89.8903681,54.1203542 91.0874051,58.8206208" id="path26" fill="#FBBF16"></path>
                        <path d="M188.856292,93.9928865 C186.081181,109.419257 161.311403,134.377478 135.423404,146.18607 C57.8305763,181.588144 12.6705775,136.565923 12.6705775,136.565923 C12.6705775,136.565923 30.9509326,135.153774 37.9321472,131.283552 C37.9321472,131.283552 20.6555847,122.808886 13.5655108,113.236145 C13.5655108,113.236145 26.9706067,114.88059 49.9266358,107.514071 C43.9162063,91.9662199 49.6076432,77.9537758 59.1731541,64.8610354 C79.2213314,37.4039102 75.7641463,9.88426642 75.7641463,9.88426642 C114.628738,22.317155 131.602367,49.1469617 131.602367,49.1469617 C131.602367,49.1469617 141.457774,35.4259547 155.532441,29.3657474 C160.17244,36.1839991 159.204737,42.5543693 159.24444,48.3784877 C167.101625,42.693273 169.141329,37.9294213 169.307848,35.797451 C169.493329,33.4015992 169.671107,30.7279992 170.869329,31.1157326 C174.87407,32.4363251 187.535995,36.8078806 190.921477,48.0798803 C193.901625,57.9872578 192.115551,68.5576279 183.696588,77.2361462 C187.365921,80.5659239 190.210366,86.4699238 188.856292,93.9928865 Z M67.4820724,109.85896 C58.9965022,120.052145 45.1713174,122.277923 45.1713174,122.277923 C56.007643,131.526515 66.2613317,132.700441 66.2613317,132.700441 C61.4358503,137.438811 54.3854209,139.778959 54.3854209,139.778959 C81.2942202,148.982515 106.412442,143.399108 127.047701,136.119108 C148.94933,128.394663 178.939847,102.14222 176.942218,82.6826646 C168.01244,93.4192569 157.346959,99.9051827 157.346959,99.9051827 C157.346959,99.9051827 158.689774,95.1922939 158.975403,87.7374793 C132.440886,119.810367 98.3442938,125.178071 98.3442938,125.178071 L111.078516,108.303405 C111.078516,108.303405 108.596738,98.5635531 113.859553,87.8482941 C115.425182,84.2210349 120.670219,72.9736278 105.55259,70.7964427 L105.548442,70.7917019 C98.2500716,69.5869612 92.5831088,64.7028132 91.0874051,58.8206208 C89.8903681,54.1203542 90.76622,49.7685321 91.4317014,47.5127099 C57.9305467,72.1688871 60.5244429,104.39822 67.4820724,109.85896 Z M145.906367,86.9653312 C145.884441,86.9339238 145.871404,86.8995534 145.848293,86.8693312 C144.416589,84.999109 141.609478,84.743109 139.570367,86.295109 C137.531256,87.8494793 137.029923,90.6340718 138.45096,92.4977755 C138.621626,92.7223681 138.814219,92.920294 139.021034,93.0986643 C141.763552,90.9765903 144.057478,88.9084422 145.906367,86.9653312 L145.906367,86.9653312 Z M88.2293311,25.8391105 C87.2468126,33.0462807 85.7279979,37.7002065 83.5531831,42.2013619 C92.043257,37.0671398 97.9976272,36.4988435 97.9976272,36.4988435 C97.9976272,36.4988435 98.7117012,60.8474059 119.469627,57.1631986 C119.469627,57.1631986 104.653034,31.5416881 88.2293311,25.8391105 Z M132.408293,82.6239979 C122.836738,87.3274052 120.772145,99.7511086 120.552886,104.229331 C123.786071,102.69096 126.751404,101.107553 129.469626,99.5081457 C127.437034,93.7084421 129.122367,86.7069608 133.930071,81.9442942 C133.4317,82.1505165 132.926811,82.3691831 132.408293,82.6239979 Z M149.902218,44.0138656 C146.961774,46.1933025 138.345478,56.1990504 136.219848,60.3786652 C142.971256,61.5496281 150.459255,56.2106653 150.459255,56.2106653 C149.069033,49.769658 149.902218,44.0138656 149.902218,44.0138656 Z M176.532144,42.0312286 C176.532144,42.0312286 171.310218,59.5117022 150.526811,66.327702 C151.50933,66.9434057 152.539255,67.4939242 153.579848,67.9881464 C160.802959,71.0032575 167.997625,68.3875538 171.393773,63.3588132 C171.393773,63.3588132 172.821922,67.1875539 171.087996,71.3659241 C179.668736,69.4399983 188.01244,50.0289173 176.532144,42.0312286 L176.532144,42.0312286 Z" id="path28" fill="#024D36"></path>
                        <polyline id="path30" fill="#024D36" points="37.234488 106.327701 33.323614 106.327701 33.323614 105.098664 34.5435251 105.098664 34.5435251 100.657183 36.0231695 100.657183 36.0231695 105.098664 37.234488 105.098664 37.234488 106.327701"></polyline>
                        <polyline id="path32" fill="#024D36" points="41.9865471 106.327701 40.7680582 103.301923 39.6234064 106.327701 38.1671102 106.327701 37.2009472 100.657183 38.6728879 100.657183 39.1465472 103.931849 39.1643249 103.931849 40.4680286 100.657183 41.0446805 100.657183 42.4113175 103.931849 42.4277915 103.931849 42.8430804 100.657183 44.3189915 100.657183 43.4610952 106.327701 41.9865471 106.327701"></polyline>
                    </g>
                </g>
            </g>
        </g>
    </g>
</svg>