<svg width="200" height="200" viewBox="0 0 200 200" fill="none" xmlns="http://www.w3.org/2000/svg">
<g clip-path="url(#clip0_10_304248)">
<path d="M199.994 83.2269C199.954 81.4121 199.539 79.9837 199.403 79.5637C198.346 76.1274 196.602 73.8621 193.915 72.4306C192.018 71.419 190 70.714 188.017 70.3584C188.303 67.6731 187.713 65.086 186.28 62.8053C186.034 62.413 185.779 62.0237 185.526 61.6343C184.902 60.678 184.315 59.7767 183.841 58.8295C183.002 57.1558 182.673 55.4699 182.86 53.8207C182.965 52.9256 183.017 52.5057 183.798 51.7025C184.601 51.0282 185.751 50.13 186.836 49.4679L189.201 47.9168C189.773 47.506 190.071 46.9849 189.247 46.7918L185.511 46.473C183.196 46.3044 181.111 46.3412 178.654 46.4883C178.387 46.5006 178.134 46.5098 177.891 46.522C176.757 46.5711 175.779 46.614 174.524 46.7765C172.52 47.034 170.702 47.4999 169.125 48.1528C168.11 48.5728 167.338 48.9835 166.554 49.4801C164.909 47.5367 163.243 45.7741 161.481 44.1157C158.587 41.3937 156.023 39.1222 152.902 36.8906C148.898 34.0306 144.713 31.5661 140.464 29.5583C135.965 27.4309 131.375 25.8001 126.43 24.5678C123.66 23.8751 121.526 23.4153 119.066 22.9769C116.99 22.6091 115.278 22.4282 112.655 22.2106C110.524 22.0358 110.026 22.0144 107.329 21.999C104.998 21.9899 104.22 22.042 101.616 22.2381C99.2512 22.4159 97.0526 22.6765 94.4882 23.0781C91.7608 23.5041 89.1809 24.154 86.558 24.8345C83.9874 25.5058 81.2262 26.4285 78.1206 27.6577C75.5991 28.654 73.09 29.8158 70.6609 31.1063C66.6235 33.252 63.3211 35.3365 60.2708 37.6692C57.9247 39.4625 55.6892 41.3201 53.626 43.19C51.9655 44.689 50.1329 46.5926 47.8544 49.1736C44.469 53.0084 41.1143 57.8149 38.4114 62.7134C35.8501 67.3605 34.0881 70.8673 32.1171 76.0692C31.8588 76.7589 31.6159 77.4731 31.3822 78.1843C28.784 74.5242 25.5953 73.948 23.3383 74.1288C21.5149 74.276 19.6546 75.1005 17.8128 76.5811C14.4581 79.2817 12.3456 82.767 10.4791 85.8447C10.3992 85.9765 10.3223 86.1052 10.2455 86.2279C10.2455 86.2279 9.43676 84.7994 9.12312 84.3794C8.84331 84.0085 7.13059 85.8263 6.8969 86.0776C5.80224 87.2057 4.96587 88.346 4.18792 89.6365C2.63511 92.2207 1.52507 95.47 0.796322 99.5745C0.565706 100.877 0.433486 102.021 0.335089 102.854C0.292041 103.228 0.255142 103.535 0.224393 103.737C0.0368249 104.875 -0.227615 111.198 0.356613 113.669C0.836296 116.198 1.33135 118.813 2.98872 121.201C3.96038 122.599 5.39021 123.478 7.0199 123.678C8.66496 123.88 10.3623 123.331 11.6753 122.176C13.7232 120.382 15.0484 118.135 16.1308 116.17C16.5582 115.395 17.0717 114.448 17.616 113.436C17.5237 114.095 17.4284 114.757 17.3269 115.447C17.0809 117.127 16.755 118.938 16.3337 120.983C16.2323 121.48 16.1277 121.976 16.0262 122.47C15.6511 124.245 15.2668 126.081 14.9685 127.917L14.7901 128.993C14.5903 130.201 14.3843 131.445 14.2028 132.687C13.8523 135.096 13.7939 137.475 13.7847 139.277C13.7724 142.199 14.7532 144.905 16.7027 147.33C18.3293 149.347 20.0667 150.742 22.0069 151.591C23.3599 152.186 25.1771 152.771 27.1973 151.989C28.6733 151.425 29.6849 150.282 30.0416 148.774C30.8195 145.509 31.5268 142.456 32.1817 139.529C32.5138 140.157 32.932 140.742 33.4147 141.343C34.451 142.628 35.9023 144.234 37.9564 145.23C39.6076 146.027 41.1481 146.196 42.5564 145.742C41.1235 147.134 39.8105 148.608 38.5283 150.046C38.2146 150.395 37.901 150.748 37.5904 151.094C36.3851 152.431 35.2351 153.899 34.122 155.318C33.7807 155.751 33.4393 156.186 33.0919 156.624L30.6074 159.754L34.6109 159.604C35.4565 159.57 36.2344 159.46 36.9201 159.362L37.2737 159.313C38.0732 159.199 38.8727 159.076 39.6691 158.951C40.2164 158.865 40.7607 158.782 41.3049 158.699L42.4211 158.534C43.5834 158.356 44.7857 158.175 45.9572 158.025C46.8336 157.918 47.7437 157.829 48.6231 157.743C49.0998 157.697 49.5764 157.651 50.056 157.602C50.3881 157.565 50.7202 157.535 51.0554 157.501C51.9655 157.412 52.9095 157.32 53.8566 157.179C53.9611 157.256 54.1303 157.415 54.2502 157.525L54.2748 157.55C58.0876 161.13 62.3863 164.318 67.4107 167.295C71.6602 169.811 76.3463 171.973 81.34 173.72C84.5378 174.836 88.0217 175.786 92.0006 176.626C93.7994 177.003 95.7919 177.3 98.0981 177.536C99.9584 177.72 102.717 177.864 103.894 177.925L104.202 177.941C104.844 177.975 106.071 177.99 106.662 177.996H106.874L106.917 177.999C107.141 177.99 108.63 177.968 109.614 177.953L110.133 177.947C111.474 177.932 114.779 177.668 117.073 177.395C121.476 176.865 125.886 175.902 130.554 174.452C133.032 173.68 135.658 172.696 138.588 171.439C143.001 169.542 147.376 167.08 151.967 163.911C153.612 162.776 155.291 161.477 157.407 159.708C159.75 157.749 161.788 155.846 163.639 153.887C166.096 151.281 168.448 148.437 170.622 145.433C173.255 141.803 175.564 137.947 177.483 133.968C179.54 129.707 181.197 125.278 182.412 120.811C183.189 117.967 183.817 115.049 184.327 111.888C184.502 110.812 184.644 109.702 184.755 108.568H185.975C186.913 109.889 188.454 110.748 190.2 110.748C193.06 110.748 195.378 108.44 195.378 105.589C195.378 103.164 193.699 101.129 191.436 100.577V98.8695C193.847 97.3644 195.87 95.3106 197.469 92.7479C198.343 91.3409 199.004 89.7745 199.545 87.831C199.643 87.4816 199.72 87.1076 199.779 86.6846C199.911 85.6883 200.025 84.6768 199.994 83.2269ZM167.526 50.6174L167.538 50.6266L167.557 50.648L167.526 50.6174Z" fill="white"/>
<path d="M107.228 174.996C148.81 174.996 182.52 141.391 182.52 99.9377C182.52 58.4839 148.81 24.8789 107.228 24.8789C65.6453 24.8789 31.936 58.4839 31.936 99.9377C31.936 141.391 65.6453 174.996 107.228 174.996Z" fill="white"/>
<path d="M39.4476 91.706C38.8542 93.91 38.027 96.9263 37.452 99.1027C36.7294 101.846 35.9853 104.587 35.4503 107.379C34.9491 109.994 34.3187 112.581 33.7499 115.184C33.1626 117.872 32.6736 120.563 32.0833 123.252C31.6313 125.306 31.1608 127.353 30.6996 129.407C30.0538 132.288 29.402 135.167 28.7624 138.048C28.1044 141.019 27.3449 143.964 26.7022 146.938C26.4316 148.231 25.9212 148.33 24.9034 148.271C24.5836 148.253 24.2669 148.185 23.9686 148.063C22.9201 147.634 22.4435 147.3 21.4903 146.601C20.1957 145.629 19.2887 144.302 18.5199 142.916C18.0126 142.003 17.7697 141.236 17.6374 140.17C17.5175 139.186 17.5329 138.033 17.6036 137.058C17.7112 135.55 17.865 134.045 18.0925 132.546C18.2893 131.228 18.7782 128.561 19.1257 126.572C19.4609 124.631 19.9036 122.706 20.2726 120.769C20.5986 119.049 20.8999 117.326 21.192 115.601C21.4811 113.872 21.7609 112.14 22.013 110.405C22.1852 109.222 22.2928 108.029 22.4466 106.84C22.6157 105.543 22.7787 104.256 22.9201 102.956C23.0093 102.134 23.0892 101.065 23.1907 100.12C23.3752 98.3915 23.7903 94.615 23.7903 94.615L23.0677 95.5867L21.7301 97.9869C19.4485 102.049 17.9326 104.761 15.688 108.844C14.4027 111.18 13.76 112.667 12.4317 114.978C11.6045 116.419 10.3838 118.295 8.9601 119.282C7.50876 120.288 6.49712 119.132 5.753 118.243C4.95045 117.057 4.71061 115.956 4.34777 114.175C4.04336 112.339 3.76047 109.172 3.88346 106.76C4.00031 104.44 4.28935 102.137 4.76596 99.8537C5.09804 98.2536 5.4947 96.6719 5.96209 95.1116C6.52787 93.4777 6.80461 92.7696 7.85622 91.0653C7.90542 90.9979 8.4958 90.0752 8.4958 90.0752C8.4958 90.0752 9.00008 90.4583 9.07695 90.489C10.3038 91.0101 11.7921 90.5994 12.9329 89.0912C13.9845 87.537 14.8147 85.8909 16.4044 83.8065C17.8896 81.8385 19.3717 80.0729 21.4411 78.672C24.0209 76.9278 26.7268 77.6573 28.3903 80.0851C29.7187 82.4301 30.7334 84.6709 31.1823 87.2581C31.3084 87.9846 31.539 88.9624 31.6251 89.7932C31.9633 89.0575 33.9344 82.3443 35.6102 77.875C36.3174 75.9867 37.4674 73.1696 38.436 71.4009C39.38 69.669 40.4101 68.1731 42.0551 66.996C43.8263 65.73 45.1669 65.9905 46.7413 66.9684C48.1434 67.8359 48.7676 69.1663 49.0382 70.7541C49.5517 73.7704 49.5486 76.8144 49.4349 79.846C49.3826 81.2408 49.2934 82.9727 49.3426 84.4012C49.6255 83.457 49.9945 82.0653 50.2743 81.1212C51.3321 77.5501 52.439 74.0984 53.6782 70.5825C54.6714 67.7684 55.8399 65.0403 57.242 62.4132C58.2352 60.5525 59.2345 58.6735 60.7043 57.1347C61.51 56.2947 62.4478 55.5591 63.7731 55.6418C64.4926 55.6878 64.9846 56.117 65.4981 56.4909C67.2692 57.7784 68.6468 59.3632 69.1972 61.5549C69.4401 62.5205 69.2495 63.4647 69.1172 64.3965C68.8651 66.1714 68.573 67.934 68.2317 69.6966C67.7089 72.4033 67.1585 75.1008 66.6204 77.8045C66.1438 80.1985 65.6057 82.5926 65.1322 84.9897C64.7693 86.8351 64.3881 88.6804 64.0683 90.535C63.8253 91.9328 63.6532 93.3429 63.4717 94.7499C63.2257 96.6412 62.3432 106.781 62.4755 110.714C62.4939 111.281 62.5708 112.103 62.7153 112.642C62.8629 113.2 63.2934 113.246 63.7792 113.044C64.182 112.875 64.4649 112.56 64.6863 112.232C65.495 111.067 65.9716 110.242 66.8972 108.495C68.164 106.34 69.7015 102.377 70.8484 99.6882C72.4197 96.0005 74.2 92.4079 76.1649 88.9042C77.3948 86.7063 78.7509 84.6004 80.2545 82.5895C80.974 81.6239 81.8042 80.7442 82.6222 79.8552C84.0581 78.2949 85.5863 76.9339 87.3636 75.7875C89.556 74.3743 90.9366 73.7459 94.5343 73.0102C95.9026 72.8263 97.4954 72.6884 98.9191 72.6914C100.721 72.7957 103.175 73.47 104.771 75.0886C105.961 76.2933 106.431 77.8443 106.797 79.4598C107.117 80.876 107.074 81.955 107.077 83.3896C107.028 84.1192 106.978 84.7629 106.92 85.4373C107.575 84.91 108.374 84.251 108.977 83.7207C111.849 81.1948 114.662 78.6107 117.396 75.9346C118.528 74.828 119.644 73.703 120.809 72.6301C123.484 70.1625 126.498 68.2466 129.929 66.9776C132.331 66.0886 134.496 65.6809 137.364 65.9262C138.601 66.0978 140.362 66.5607 141.543 67.652C143.161 69.1479 144.409 70.8645 144.99 73.044C145.617 75.3982 145.098 77.5562 143.975 79.6008C142.964 81.4431 141.62 83.0248 139.772 84.1192C138.238 85.0296 136.54 85.661 134.742 85.6917C133.441 85.7131 131.946 85.6794 130.655 85.3913C129.579 85.1522 129.508 84.723 129.859 83.69C130.132 82.8777 130.575 82.1512 131.073 81.4584C131.267 81.1887 131.427 80.9036 131.571 80.597C131.79 80.1342 131.571 79.892 131.27 79.6713C130.981 79.4598 130.707 79.5487 130.406 79.7602C128.727 80.9496 127.774 82.7213 126.691 84.3736C125.698 85.8848 124.628 87.3838 124.173 89.1678C123.574 91.5159 124.561 93.303 127.22 93.395C129.32 93.4655 131.23 92.8156 133.078 91.9818C136.513 90.4277 139.692 88.4229 142.632 86.0779C145.153 84.067 147.284 81.6638 148.975 78.908C150.556 76.3331 152.069 73.7153 153.637 71.1342C155.783 67.609 158.049 64.1636 160.488 60.8284C162.105 58.6152 163.821 56.4909 165.872 54.6732C168.242 52.5703 170.933 51.0468 174.131 50.541C176.166 50.2192 178.208 50.118 180.401 50.1395C179.896 50.8231 179.536 51.479 179.343 52.2055C178.762 54.4065 179.103 56.5553 179.81 58.649C180.502 60.6997 181.686 62.5021 182.913 64.2739C184.13 66.0334 184.521 67.98 184.238 70.1104C184.087 71.2384 183.758 72.4125 183.312 73.4884C183.685 73.5252 184.161 73.5712 184.542 73.5927C187.651 73.8593 190.342 74.5 192.958 76.2411C194.557 77.3048 195.295 78.7486 195.778 80.4744C196.018 81.3358 196.119 82.3872 196.144 83.2915C196.224 86.2281 195.363 88.9349 193.681 91.3105C191.83 93.9192 189.45 95.645 186.483 96.8956C183.285 98.2444 180.05 99.4828 176.788 100.657C172.79 102.098 168.781 103.495 164.762 104.878C161.631 105.954 158.52 107.076 155.399 108.173C149.873 110.117 144.338 112.048 138.93 114.295C136.531 115.291 134.16 116.361 131.811 117.47C129.536 118.546 127.291 119.678 125.071 120.861C122.38 122.298 119.751 123.84 117.159 125.45C114.776 126.927 112.445 128.484 110.13 130.066C107.698 131.724 105.33 133.481 103.049 135.342C100.758 137.211 98.4855 139.103 96.2439 141.034C94.3651 142.656 92.4987 144.283 90.6445 145.932C88.7689 147.6 86.6349 149.455 85.0482 150.908C84.012 151.827 83.0557 152.731 82.2501 153.544C81.9334 153.829 81.4137 154.399 81.4137 154.399C81.4137 154.399 80.3221 154.197 79.8271 154.129C78.8431 153.991 77.9668 153.912 76.9797 153.804C75.1532 153.605 73.4344 153.384 71.6048 153.219C70.8545 153.151 62.6846 152.82 61.5592 152.863C59.1976 152.891 57.0114 153.017 54.7021 153.164C52.7065 153.289 50.6248 153.446 48.6415 153.7C46.3108 154.001 40.161 154.816 39.4046 154.902C39.8012 154.399 40.5331 153.565 40.8529 153.2C42.7255 151.061 44.6688 148.979 46.7413 147.027C48.8845 145.004 51.1507 143.131 53.589 141.46C57.1805 138.999 60.8827 136.712 64.6156 134.477C66.5589 133.315 68.5668 132.261 70.5501 131.163C74.2461 129.116 78.0406 127.258 81.8473 125.422C85.2143 123.797 88.6397 122.295 92.0867 120.839C97.2586 118.651 102.544 116.772 107.842 114.911C111.64 113.577 115.437 112.238 119.244 110.929C124.361 109.169 129.487 107.428 134.603 105.666C138.029 104.486 141.445 103.275 144.867 102.085C147.149 101.291 149.421 100.467 151.724 99.7403C156.973 98.0881 161.511 96.6872 166.714 94.897C170.315 93.6555 173.925 92.4233 177.31 90.6699C179.204 89.6889 181.292 88.5149 182.316 86.5377C182.71 85.8879 182.873 84.9683 182.719 84.3644C182.458 83.4846 181.864 83.3068 181.24 83.1505C180.72 83.0217 179.533 83.2149 179.121 83.3559C176.582 84.2326 175.533 85.2012 173.728 86.7431C171.696 88.5302 169.623 90.3051 166.896 90.9641C164.097 91.6416 161.256 91.8776 158.474 90.958C157.102 90.5043 156.18 89.7288 155.906 88.4842C155.844 88.0428 155.829 87.2581 155.857 86.691C155.891 86.1239 156.084 85.5568 156.217 84.7476C155.688 85.1583 154.971 86.0074 154.504 86.4948C152.723 88.5486 151.26 90.0936 149.295 91.9634C145.454 95.5009 142.413 97.6405 137.411 100.418C134.886 101.791 132.297 103.026 129.573 103.937C127.746 104.547 126.018 104.961 124.102 105.267C122.254 105.561 120.323 105.568 118.472 105.5C116.849 105.442 115.164 105.102 113.728 104.283C112.329 103.486 111.803 102.131 111.581 100.648C111.311 98.8421 111.259 97.0152 111.289 95.1852C111.305 94.1981 110.567 93.7506 109.641 94.2012C108.15 94.9277 106.683 95.7155 105.109 96.258C104.094 96.6075 103.073 96.9385 102.04 97.2144C101.745 97.2941 101.628 97.4351 101.511 97.662C100.663 99.3173 99.8477 100.994 98.9437 102.622C97.6399 104.97 96.4899 107.41 94.9432 109.62C94.0331 110.92 93.0214 112.131 91.9452 113.302C90.1402 115.269 88.1108 116.943 85.8631 118.366C84.0489 119.512 82.1117 120.453 79.9747 120.701C76.2725 121.134 73.2253 119.822 71.0206 116.799C70.6301 116.263 70.5471 116.545 70.3718 116.83C69.1541 118.813 67.9764 120.824 66.728 122.789C65.658 124.472 64.8001 126.286 63.4256 127.779C61.9527 129.379 60.157 129.75 58.1583 129.275C56.421 128.864 54.8098 128.169 53.9058 126.458C53.4107 125.526 53.0509 124.548 52.8019 123.525C52.4175 121.943 52.2422 120.337 52.0885 118.718C51.864 116.355 51.9317 113.988 52.0085 111.634C52.0731 109.632 52.9003 102.888 53.0909 101.524C53.3338 99.7832 53.875 95.6235 53.8504 94.9369C53.4445 95.8105 50.7786 106.656 49.727 110.999C48.9183 114.35 48.125 117.7 47.5192 121.097C46.7566 125.391 45.6189 129.606 44.5642 133.836C44.063 135.853 43.6326 137.889 43.0391 139.878C42.418 141.966 41.0373 142.435 39.2355 141.249C37.6611 140.212 36.3973 138.931 35.5087 137.257C35.2904 136.847 35.2197 136.381 35.1336 135.967C34.8845 134.762 35.2566 130.903 35.3273 130.038C35.5118 127.755 35.7977 124.784 36.0407 122.531C36.2989 120.128 36.5941 117.731 36.877 115.331C37.1538 112.977 37.4582 110.625 37.7072 108.268C37.9256 106.202 38.1777 104.136 38.396 102.07C38.5344 100.789 39.4507 91.9512 39.4507 91.706H39.4476ZM55.763 87.7332C55.6953 87.9907 55.9844 89.4161 55.886 89.6767C55.7753 91.2431 55.4155 92.8861 55.1757 94.1123C54.9205 95.412 54.9051 96.5247 54.7267 97.8398C54.573 98.9832 54.4623 100.301 54.3147 101.445C54.1825 102.475 54.1763 103.106 54.1271 104.139C54.0687 105.332 53.9181 106.797 53.792 107.977C53.6198 109.565 53.6905 111.471 53.6813 113.05C53.669 114.61 53.506 115.536 53.5706 117.106C53.6352 118.712 53.9334 119.996 54.1302 121.578C54.3239 123.114 54.5515 123.571 55.3633 124.858C56.0367 125.925 56.627 126.936 57.8693 127.206C59.4467 127.549 60.7966 127.405 62.0173 126.201C63.4871 124.751 64.4864 123.246 65.5319 121.504C67.2784 118.595 69.108 116.103 70.584 113.05C70.6547 112.903 70.79 112.232 71.0206 112.265C71.159 112.284 71.2727 112.854 71.3373 112.998C71.8631 114.181 72.3828 115.343 73.1269 116.419C74.3907 118.243 75.4454 119.144 78.9015 119.126C80.8695 119.169 83.2463 118.117 84.1719 117.63C85.9645 116.689 87.4835 115.352 88.9656 113.982C92.7601 110.481 95.5736 106.496 97.8674 101.892C98.8022 100.019 99.7308 98.1494 100.77 96.3285C100.948 96.0159 101.407 95.789 101.739 95.7124C103.996 95.1944 106.157 94.3238 108.257 93.3643C109.306 92.8861 110.308 92.3252 111.452 92.0799C112.243 91.9113 112.516 92.0186 112.587 92.8217C112.731 94.4219 112.771 95.9699 112.768 97.5731C112.768 98.4161 112.919 99.3112 113.064 100.13C113.245 101.163 113.506 101.966 114.284 102.677C115.44 103.738 116.969 104.108 118.463 104.222C120.059 104.344 121.424 104.332 123.02 104.124C123.903 104.007 124.948 103.777 125.824 103.606C127.958 103.192 129.994 102.514 132.02 101.757C133.788 101.095 135.27 100.258 136.928 99.3571C138.785 98.3517 140.639 97.0121 142.367 95.8044C145.239 93.7965 147.797 91.614 150.221 89.0759C151.506 87.7271 152.278 86.4212 153.646 85.1491C154.485 84.3705 155.408 83.5214 156.404 82.9543C156.662 82.8072 157.462 82.4087 157.757 82.6386C158.043 82.8624 158.058 83.3835 157.997 83.6685C157.754 84.7782 157.536 85.8296 157.6 86.9608C157.699 88.7111 159.341 89.6092 160.85 89.8882C162.36 89.8698 163.655 89.7962 165.155 89.5541C167.689 89.1433 169.694 88.1133 171.545 86.3354C173.399 84.5544 175.521 83.5061 177.851 82.424C179.198 81.7987 180.702 81.3542 182.196 81.5412C182.713 81.6055 183.294 81.8937 183.678 82.3443C184.908 83.785 184.524 86.0503 183.469 87.5279C182.064 89.4989 179.985 90.7496 177.882 91.7703C173.737 93.7812 169.411 95.3354 165.048 96.7945C160.878 98.1892 156.705 99.5104 152.53 100.887C148.628 102.174 144.732 103.477 140.839 104.792C138.022 105.742 135.178 106.717 132.368 107.686C130.228 108.421 128.152 109.163 126.015 109.905C124.044 110.589 122.061 111.248 120.09 111.928C117.661 112.765 115.188 113.685 112.731 114.445C110.714 115.07 108.71 115.693 106.717 116.388C102.6 117.826 98.5777 119.454 94.5373 121.097C90.0265 122.933 85.5248 124.821 81.1339 126.924C77.4041 128.711 73.8003 130.642 70.2457 132.773C67.3615 134.499 64.4526 136.224 61.6452 138.067C58.8563 139.894 56.0889 141.852 53.4322 143.876C49.8531 146.601 46.9903 149.05 43.7771 152.201C43.5034 152.471 43.0022 152.885 42.624 153.292C44.8625 152.872 45.8987 152.652 48.1034 152.391C49.976 152.167 52.1131 151.888 53.9888 151.698C56.2826 151.462 58.6165 151.257 61.4269 151.242C64.0498 151.076 69.4708 151.355 69.5385 151.361C71.5556 151.539 73.6773 151.775 75.6913 151.974C77.0689 152.112 78.4587 152.287 79.8271 152.489C80.7772 152.477 80.8049 152.532 81.7858 151.913C82.8343 150.693 84.0673 149.596 85.2266 148.474C92.3972 141.534 100.235 135.384 108.42 129.677C110.727 128.067 113.036 126.458 115.413 124.95C117.488 123.635 119.573 122.338 121.707 121.118C123.122 120.309 124.576 119.573 125.987 118.767C127.986 117.624 130.086 116.698 132.183 115.781C134.502 114.767 136.888 113.902 139.268 113.041C143.797 111.404 148.277 109.641 152.767 107.906C156.546 106.444 160.334 105 164.147 103.63C167.391 102.465 170.638 101.307 173.925 100.261C178.491 98.8054 183.085 97.4045 187.301 95.0441C189.511 93.8057 191.489 92.2976 192.906 90.1671C193.847 88.7509 194.431 87.2121 194.613 85.4894C194.822 83.503 194.846 81.5596 193.952 79.7326C192.433 76.6366 189.619 75.6495 186.449 75.2664C185.01 75.0947 183.577 75.2142 182.138 75.2572C181.76 75.2694 181.086 75.9039 180.859 75.4441C180.699 75.1223 181.301 74.5245 181.486 74.1659C182.578 72.0293 182.725 69.8652 181.723 67.6581C181.188 66.4779 180.659 65.2978 180.118 64.1206C179.1 61.9136 178.039 59.7249 177.59 57.3094C177.289 55.6878 177.153 54.0662 177.928 52.5213C178.113 52.1565 177.904 52.0799 177.624 52.0707C176.117 52.0247 174.62 52.0492 173.147 52.463C170.736 53.1435 168.75 54.5383 166.96 56.2028C164.903 58.1156 162.938 60.1173 161.269 62.401C159.707 64.5375 158.135 66.6649 156.77 68.9333C154.864 72.1029 153.311 75.3001 151.204 78.3471C146.9 84.5759 141.688 89.7809 134.612 92.739C132.005 93.8272 129.148 95.0196 126.224 94.8633C124.318 94.7621 122.334 93.0792 122.331 91.191C122.331 89.5633 122.697 88.3003 123.447 86.8933C124.816 84.3276 126.818 81.6117 128.644 79.3648C129.588 78.203 130.981 77.3048 132.626 77.593C133.539 77.7524 134.437 78.4237 133.991 79.2176C133.754 79.6376 133.167 80.1066 132.89 80.502C132.3 81.3481 131.725 82.047 131.393 83.0555C131.208 83.6164 131.365 83.6869 131.925 83.8494C132.312 83.9628 133.038 84.0793 133.441 84.1345C135.403 84.395 136.691 84.2019 138.447 83.2639C140.651 82.0868 141.654 80.9189 142.693 78.6689C142.872 78.2857 143.407 77.0903 143.453 76.6274C143.588 75.2418 143.634 74.3008 143.336 72.8968C142.884 70.7848 140.562 68.7218 137.764 68.2344C137.257 68.1455 136.968 68.2129 136.479 68.1056C135.058 67.796 134.139 68.0413 132.74 68.265C130.141 68.6758 127.479 70.0613 125.342 71.499C123.85 72.5044 122.722 73.7919 121.326 74.9261C119.004 76.8082 116.892 78.6352 114.838 80.7718C112.221 83.4969 108.983 85.9737 105.542 87.5616C105.041 87.7915 104.651 87.8191 104.669 87.3286C104.737 85.612 105.087 83.1719 105.063 81.4461C105.017 78.2398 104.073 76.4833 101.158 75.1284C99.1989 74.218 97.0526 74.4479 95.0263 74.7943C93.5534 75.0456 91.9175 75.6495 90.5308 76.3024C88.7535 77.1424 87.4497 78.0283 85.9984 79.3218C85.0544 80.1648 84.3564 81.0323 83.4739 81.9489C82.0318 83.4509 80.6296 84.7138 79.4396 86.3998C78.262 88.0704 77.1458 89.787 76.1987 91.614C75.5068 92.9474 74.8058 94.2717 74.2 95.6388C73.625 96.9324 73.0746 98.2873 72.5211 99.5932C71.9123 101.025 71.2881 102.41 70.6608 103.836C70.0428 105.246 69.4831 106.824 68.7113 108.149C67.6782 109.923 66.6819 111.809 65.5596 113.531C65.0768 114.273 64.7201 114.822 63.8961 115.309C62.9951 115.84 62.0819 115.824 61.7037 114.862C61.1902 113.565 60.7966 112.612 60.6705 111.248C60.5537 109.991 60.6613 108.152 60.6705 106.889C60.692 103.842 60.8396 100.832 61.2055 97.7877C61.3624 96.4879 61.5499 95.1882 61.7037 93.8854C61.9189 92.0707 62.0634 90.4829 62.291 88.6682C62.5923 86.268 63.3887 83.7053 63.7915 81.3235C64.1113 79.4353 64.4926 77.547 64.8278 75.6587C65.4028 72.4217 66.2053 69.2368 66.8756 66.0212C67.1985 64.4732 67.1985 62.9405 67.2016 61.3894C67.2016 61.279 67.177 61.1503 67.1186 61.0645C66.4021 59.7893 65.2767 58.6581 63.8499 58.0022C63.0874 57.6527 62.4017 57.8734 61.7406 58.4221C61.0518 58.9953 60.6029 59.7433 60.1785 60.4698C58.9793 62.5113 57.9308 64.6418 57.079 66.855C54.7298 72.9673 52.9064 79.1287 50.7202 85.2993C50.0683 87.1416 49.4902 89.1954 48.9306 91.0653C48.6938 91.8531 47.8451 93.8517 47.593 94.6365C47.6053 92.6348 47.4731 89.5725 47.6514 87.5953C47.8236 85.6978 47.8021 83.6195 47.8482 81.7098C47.922 78.7118 47.7867 75.7016 47.4362 72.7252C47.2947 71.5235 47.0457 70.466 46.0771 69.6077C44.6319 68.3233 42.5041 68.6482 41.1573 70.3342C40.4316 71.2415 39.9396 72.2347 39.506 73.2953C36.3604 80.9863 33.8698 88.7387 31.4406 96.6749C31.2469 97.3095 30.9948 97.9685 30.7918 98.5969L30.3583 99.4797L30.2014 98.7931C30.2014 98.7931 30.103 96.0404 30.0631 94.7131C30.0046 92.7083 29.8663 90.6515 29.7095 88.6528C29.528 86.3538 28.6978 83.5337 27.1112 81.3756C25.8105 79.6069 24.5006 79.3923 22.5665 80.453C21.6102 80.9802 20.7677 81.5963 20.0482 82.4148C18.2063 84.5115 16.7426 86.6481 15.0115 88.8276C14.0183 90.0782 12.9298 91.3289 11.6076 92.2393C10.8881 92.7359 9.97482 93.1896 9.1692 92.7114C8.78176 92.4815 8.68644 92.6562 8.56037 92.9474C7.93309 94.3943 7.54566 95.5898 7.1244 97.1071C6.75848 98.4222 6.38642 99.6054 6.18041 100.973C6.05433 101.816 5.84217 103.085 5.66997 103.915C5.33174 105.549 5.24871 106.932 5.21182 108.572C5.17799 110.043 5.43013 111.655 5.70995 113.115C5.98669 114.558 6.14658 115.585 6.85073 116.9C7.35501 117.844 8.20061 118.084 8.87708 117.262C9.1815 116.891 9.52896 116.309 9.7811 115.901C12.0627 112.229 13.8461 108.694 15.8602 104.878C17.908 100.994 19.4824 96.911 22.0376 93.3061C22.5265 92.6164 23.0462 91.6876 23.6519 91.0898C24.0332 90.7128 24.8696 90.9396 25.1063 91.332C25.3892 91.801 25.6813 94.2931 25.3523 98.6889C25.1555 100.074 25.0448 101.846 24.8665 103.235C24.6759 104.725 24.6482 106.444 24.4299 107.928C24.2331 109.283 23.8825 111.199 23.6704 112.551C23.4182 114.141 23.1107 115.993 22.8494 117.581C22.5634 119.3 22.2467 120.784 21.9515 122.501C21.6532 124.227 21.232 126.182 20.906 127.905C20.6601 129.202 20.4817 130.471 20.3064 131.78C19.7253 135.685 19.7468 137.432 19.6699 138.226C19.5715 139.204 19.5808 140.053 19.8575 140.761C20.6447 142.524 21.1582 143.011 22.4373 144.412C23.4582 145.534 24.5098 146.276 25.2047 144.673C25.5584 143.851 25.7982 142.508 25.9888 141.653C26.8037 138.024 27.6493 134.922 28.4549 131.292C29.3558 127.243 30.1922 123.19 31.1085 119.144C31.9849 115.279 32.7105 111.367 33.6515 107.517C34.537 103.9 35.4503 100.491 36.4189 96.8956C37.2306 93.8824 38.3407 90.7526 39.4845 87.8405C39.7828 87.0834 40.9267 85.1553 41.1665 85.3821C41.4063 85.6089 41.4279 88.3248 41.4279 88.3248L41.0927 92.1995C41.0927 92.1995 40.9912 95.4886 40.7944 97.193C40.6745 98.2291 40.4777 100.041 40.3455 101.068C40.1426 102.634 40.201 103.921 40.0103 105.491C39.8904 106.478 39.9765 108.222 39.7859 109.194C39.503 110.619 38.9956 115.613 38.7004 117.259C38.3191 119.38 37.9963 121.599 37.6919 123.73C37.4428 125.474 37.3229 127.154 37.206 128.91C37.08 130.774 36.9139 131.396 36.9078 133.269C36.9047 134.526 36.7233 135.483 37.0584 136.175C37.9471 137.279 38.1992 137.57 39.6383 138.45C40.324 138.729 40.859 139.066 41.3202 138.784C41.9014 138.431 42.1259 137.26 42.255 136.66C42.7132 134.52 42.8454 133.656 43.3005 131.516C43.9616 128.414 44.5273 125.508 45.2684 122.424C45.9602 119.549 46.6183 116.805 47.2978 113.927C48.0235 110.858 48.6907 107.514 49.6163 104.498C50.6464 101.135 51.7656 97.9348 52.8326 94.5843C53.4384 92.6777 55.0035 89.6092 55.7722 87.724L55.763 87.7332Z" fill="white"/>
<path d="M46.0186 135.766C47.0672 137.353 48.1096 138.935 49.155 140.517C49.2042 140.591 49.2442 140.673 49.2995 140.741C49.5486 141.078 49.7392 141.366 49.8745 141.559C49.9053 141.605 49.9822 141.722 49.9822 141.722C49.9822 141.722 49.8715 141.804 49.8253 141.838C49.6378 141.97 49.5056 142.099 49.1519 142.341C48.8814 142.528 48.5277 142.791 48.3894 142.877C48.3371 142.911 48.2049 143.012 48.2049 143.012C48.2049 143.012 47.6821 142.402 47.4854 142.145C46.772 141.118 46.0617 140.14 45.419 139.088C45.3575 138.987 45.2622 138.806 45.2622 138.806C45.2622 138.806 45.3114 138.558 45.3391 138.463C45.5881 137.571 45.7972 136.67 46.0217 135.766H46.0186Z" fill="white"/>
<path d="M66.4881 131.251C65.7594 131.741 65.0798 132.078 64.4556 132.446C64.3511 132.514 64.2158 132.587 64.2158 132.587C64.2158 132.587 63.3733 131.324 63.0074 130.828C62.9274 130.72 62.8721 130.613 62.8721 130.613C62.8721 130.613 63.0227 130.503 63.1181 130.444C63.7361 130.067 64.4034 129.617 64.88 129.031C65.4242 129.761 65.95 130.524 66.4881 131.251Z" fill="white"/>
<path d="M178.839 85.5352L179.112 87.4265L177.117 88.622L176.818 86.6693L178.839 85.5352Z" fill="white"/>
<path d="M160.835 94.8784L158.895 95.4976C158.895 95.4976 158.787 94.9734 158.72 94.4646C158.661 94.0661 158.501 92.9258 158.501 92.9258C158.501 92.9258 158.763 93.0208 158.837 93.0423C159.356 93.1986 159.67 93.2139 160.254 93.2844C160.393 93.309 160.623 93.3273 160.623 93.3273L160.832 94.8815L160.835 94.8784Z" fill="white"/>
<path d="M79.1108 104.722C79.2215 102.086 79.9472 99.6001 80.885 97.1448C82.1058 93.9445 84.0706 91.2316 86.2661 88.6567C87.3392 87.3999 88.4185 86.1584 89.5132 84.9231C89.6177 84.7944 89.8699 84.5645 89.8699 84.5645C89.8699 84.5645 89.9037 84.8679 89.9375 85.0304C90.2573 87.1608 91.0322 89.043 92.8433 90.3733C93.1631 90.6094 93.6889 90.8669 94.064 90.9711C94.2178 91.014 94.3838 91.0692 94.3838 91.0692C94.3838 91.0692 94.2393 91.4248 94.1686 91.578C93.7289 92.9176 93.1016 94.1744 92.5266 95.4527C92.1053 96.3907 91.6533 97.3133 91.1982 98.2391C89.4763 101.746 87.3946 105.02 84.8086 107.956C84.2582 108.582 83.6033 109.133 82.8222 109.48C81.6507 109.998 80.5929 109.529 79.855 108.125C79.2984 107.067 79.0862 105.918 79.1139 104.719L79.1108 104.722ZM80.6729 104.511C80.6729 104.903 80.6667 105.243 80.6852 105.633C80.7651 107.169 81.5615 107.831 82.8868 107.126C84.086 106.488 84.8517 105.544 85.685 104.496C86.8534 103.024 87.8681 101.436 88.8398 99.8423C90.0667 97.8345 91.2874 95.8542 91.9669 93.5644C92.3052 92.4241 92.2068 91.9704 91.2659 91.2899C90.9738 91.0784 90.7739 90.7473 90.5341 90.4714C89.8791 89.7173 89.63 88.7395 89.2242 87.8536C89.055 87.4858 89.1165 87.4766 88.8675 87.7862C88.2617 88.5402 87.7267 89.3372 87.1301 90.0975C85.2575 92.4915 83.3757 94.7691 82.2226 97.6444C81.3217 99.8883 80.6944 102.071 80.6729 104.502V104.511Z" fill="white"/>
<path d="M159.802 77.4628C161.05 75.1484 162.382 73.1375 163.581 71.0469C166.025 66.7891 167.338 65.8021 170.235 63.1505C170.358 63.0371 171.21 62.375 171.21 62.375C171.21 62.375 171.462 63.0555 171.572 63.3437C172.827 67.1386 173.101 67.9908 174.088 71.1328C174.281 71.8961 174.543 73.0241 174.358 74.0387C174.128 75.4335 172.913 76.4451 171.317 76.5248C170.281 76.5524 168.642 76.3838 167.615 76.3102C164.78 76.255 163.203 76.5125 160.288 77.3034C160.205 77.3279 160.035 77.3769 159.805 77.4628H159.802ZM170.53 64.7292C169.168 65.9308 168.101 66.9761 167.062 68.328C165.361 70.5473 164.22 72.6501 162.883 75.0902C162.772 75.2894 162.612 75.6695 162.612 75.6695C162.612 75.6695 162.966 75.5714 163.193 75.5009C164.946 74.9737 166.551 74.8664 168.39 74.9216C169.331 74.9492 170.346 75.1729 171.286 75.0289C172.627 74.8235 173.079 73.6709 172.839 72.3252C172.636 71.188 172.258 70.3021 171.951 69.2016C171.502 67.6076 170.948 66.4121 170.533 64.7292H170.53Z" fill="white"/>
<path d="M165.755 73.3817C166.908 71.3341 168 69.3845 169.771 67.6035C170.177 69.0442 170.407 69.4029 170.785 70.7149C170.85 70.954 171.145 71.8368 171.201 72.079C171.434 73.2499 171.379 73.3848 170.306 73.3327C168.658 73.253 167.354 73.3848 165.755 73.3848V73.3817Z" fill="white"/>
<path d="M150.11 140.848L149.329 141.657L151.211 143.463L151.992 142.653C152.567 142.059 152.567 141.338 151.989 140.784C151.411 140.226 150.688 140.253 150.113 140.848H150.11Z" fill="#08498C"/>
<path d="M198.149 83.2654C198.118 81.794 197.802 80.5954 197.645 80.1142C196.778 77.3001 195.4 75.3046 193.045 74.0478C191.061 72.9902 188.86 72.2515 186.627 72.0124L185.831 71.9051C185.831 71.9051 185.945 71.5464 186.003 71.2767C186.566 68.6067 186.154 66.0655 184.715 63.7757C183.857 62.4086 182.913 61.0904 182.19 59.6466C181.24 57.7492 180.788 55.7168 181.028 53.6079C181.185 52.2284 181.588 51.3732 182.898 50.3892C183.817 49.8099 185.115 48.9669 186.151 48.3538C183.869 48.1883 181.108 48.1821 178.743 48.3232C177.252 48.3937 176.2 48.412 174.764 48.599C173.104 48.8167 171.388 49.206 169.835 49.8497C168.482 50.4107 167.606 50.9532 166.419 51.7962C166.235 51.928 166.204 51.8943 166.204 51.8943C166.204 51.8943 165.958 51.6338 165.881 51.5418C164.113 49.3838 162.247 47.3576 160.217 45.4478C157.474 42.8668 154.907 40.5831 151.832 38.3852C148.034 35.6723 143.893 33.2078 139.677 31.2153C135.234 29.1155 130.76 27.5399 125.984 26.3475C123.518 25.7313 121.397 25.2562 118.743 24.7841C116.732 24.4255 115.081 24.2508 112.504 24.0392C110.432 23.8676 109.989 23.8492 107.329 23.8339C105.084 23.8216 104.399 23.8676 101.757 24.0668C99.3313 24.2508 97.1789 24.5144 94.7774 24.8914C92.1515 25.3022 89.5962 25.9428 87.0287 26.6111C84.2275 27.3407 81.4877 28.3001 78.8034 29.3638C76.3158 30.3478 73.8928 31.4697 71.5312 32.7235C67.9551 34.624 64.6158 36.6655 61.3933 39.124C59.1517 40.8375 56.9563 42.6522 54.8653 44.5466C52.9405 46.2908 50.9479 48.4488 49.2383 50.3861C45.6561 54.4416 42.4243 59.2543 40.029 63.5949C37.4584 68.2573 35.7334 71.715 33.8454 76.7116C33.0951 78.698 32.5017 80.8805 31.7699 82.9128C31.2748 81.7848 30.8166 80.6751 30.1586 79.6605C28.5966 77.2511 26.4687 75.7153 23.4861 75.9575C21.8011 76.0924 20.2636 76.9691 18.9722 78.0052C15.9742 80.4176 14.0216 83.5504 12.0598 86.7875C11.6017 87.5446 11.1466 88.2926 10.344 88.7555C10.0488 88.924 9.85512 88.9332 9.59068 88.6666C9.24629 88.3171 8.98185 87.9646 8.79121 87.5262C8.72971 87.3883 8.61287 87.1001 8.61287 87.1001C8.61287 87.1001 8.35458 87.2718 8.22236 87.4098C7.24454 88.4244 6.49427 89.3747 5.77474 90.5763C4.10815 93.3504 3.17031 96.7591 2.61683 99.8889C2.28167 101.774 2.1556 103.353 2.04798 104.027C1.87271 105.103 1.65747 111.234 2.16482 113.282C2.61991 115.685 3.06577 118.073 4.50789 120.148C5.92541 122.189 8.57597 122.444 10.4609 120.795C12.232 119.241 13.4128 117.288 14.5197 115.28C16.5645 111.571 20.5557 103.975 20.7249 103.837C20.5988 104.971 20.5219 106.158 20.3897 107.169C20.2359 108.352 20.0515 109.557 19.8731 110.737C19.6148 112.451 19.4119 113.999 19.1567 115.712C18.8768 117.601 18.5294 119.477 18.145 121.35C17.6746 123.633 17.1672 125.911 16.7921 128.21C16.5338 129.785 16.2663 131.364 16.0356 132.946C15.7282 135.055 15.6451 137.161 15.6359 139.285C15.6236 141.903 16.5215 144.156 18.1481 146.173C19.4211 147.752 20.8878 149.085 22.7574 149.904C23.9627 150.431 25.1865 150.793 26.5425 150.268C27.4927 149.9 28.04 149.226 28.2522 148.343C29.2607 144.098 30.2416 139.846 31.1672 135.582C31.9359 132.039 33.4549 124.863 33.4549 124.863L34.076 121.972L33.6609 125.675C33.6609 125.675 33.581 127.03 33.5318 127.695C33.458 128.706 33.3626 129.562 33.2919 130.494C33.172 132.1 33.2212 133.703 33.1351 135.303C33.049 137.504 33.6794 138.724 34.854 140.183C35.964 141.563 37.1694 142.795 38.7652 143.567C40.0598 144.193 41.4004 144.453 42.7595 143.629C43.0854 143.429 43.3007 143.144 43.5836 142.918C43.7558 142.777 43.808 142.642 44.0663 143.105C44.4568 143.8 44.9611 144.423 45.4869 145.027C45.6899 145.263 45.6253 145.437 45.4316 145.603C43.0578 147.632 41.0468 150.005 38.9651 152.316C37.4492 153.999 36.0378 155.875 34.5434 157.757C35.4351 157.723 36.2838 157.585 37.0187 157.484C38.3593 157.297 39.6969 157.073 41.0345 156.874C42.5996 156.641 44.1617 156.393 45.7298 156.197C47.1043 156.022 48.4849 155.912 49.8656 155.768C51.1294 155.636 52.3962 155.535 53.6538 155.348C54.5087 155.219 55.0222 155.716 55.5418 156.206C59.4439 159.872 63.7641 162.987 68.358 165.709C72.6659 168.262 77.2106 170.322 81.952 171.98C85.3713 173.173 88.8552 174.08 92.3851 174.822C94.3254 175.23 96.3026 175.503 98.2859 175.702C100.288 175.904 103.372 176.051 104.297 176.1C104.977 176.137 106.391 176.152 106.862 176.155C107.145 176.146 109.088 176.119 110.118 176.103C111.36 176.085 114.617 175.83 116.858 175.561C121.338 175.024 125.708 174.025 130.009 172.688C132.688 171.858 135.289 170.846 137.86 169.743C142.478 167.759 146.795 165.243 150.919 162.395C152.761 161.123 154.51 159.731 156.226 158.293C158.357 156.512 160.396 154.636 162.299 152.619C164.756 150.017 167.025 147.255 169.131 144.352C171.696 140.812 173.934 137.087 175.825 133.164C177.818 129.034 179.429 124.758 180.638 120.32C181.422 117.438 182.037 114.526 182.51 111.589C182.808 109.738 183.005 107.865 183.107 105.983C183.202 104.275 183.38 102.571 183.362 100.861C183.362 100.738 183.356 100.548 183.356 100.548C183.356 100.548 183.562 100.465 183.706 100.404C185.671 99.5854 187.67 98.8436 189.549 97.832C192.227 96.3913 194.305 94.3344 195.907 91.7656C196.775 90.374 197.343 88.875 197.777 87.3147C197.857 87.0235 197.915 86.7292 197.955 86.4319C198.069 85.5736 198.186 84.6233 198.155 83.2592L198.149 83.2654ZM146.761 72.5366C146.651 72.184 146.488 71.5679 146.337 71.0928C147.315 72.2913 148.044 73.4316 148.868 74.7283C148.911 74.7957 149.049 75.0226 149.049 75.0226C149.049 75.0226 148.803 75.4211 148.751 75.5069C148.001 76.7514 146.958 78.5171 146.076 79.6789C145.965 79.8107 147.041 77.2112 147.103 75.7797C147.149 74.6609 147.097 73.6922 146.761 72.5335V72.5366ZM129.133 36.3774L131.292 37.1192L131.246 48.0411L128.939 47.2503L128.995 45.6195L125.689 44.4853L124.727 45.8034L122.448 45.0217L129.133 36.3774ZM115.908 33.2507L119.075 33.873C122.285 34.5044 124.078 36.9046 123.466 40.0068C122.851 43.1089 120.277 44.6508 117.07 44.0194L113.903 43.3971L115.908 33.2507ZM110.573 32.8982L112.907 33.0668L112.16 43.3848L109.826 43.2162L110.57 32.8982H110.573ZM104.291 32.8338C106.49 32.7633 107.876 33.8178 107.944 35.936C107.99 37.3552 107.163 38.4496 105.712 38.8603L108.82 43.0354L106.004 43.1243L103.31 39.1607L103.439 43.207L101.099 43.2806L100.767 32.9442L104.288 32.8307L104.291 32.8338ZM92.5112 33.9588C95.5523 33.358 98.2705 35.0838 98.8885 38.186C99.5066 41.2881 97.6586 43.9182 94.6144 44.5221C91.5734 45.126 88.8705 43.394 88.2525 40.2919C87.6344 37.1897 89.4671 34.5627 92.5112 33.9588ZM82.3979 36.9629L85.1315 44.6723L88.4954 43.486L89.218 45.5275L83.6494 47.4894L80.1901 37.7384L82.3979 36.9598V36.9629ZM77.8102 38.7009L78.7603 40.6475L75.5563 42.2047L76.408 43.9489L79.5383 42.4284L80.4915 44.3749L77.3612 45.8954L79.1539 49.5585L77.0507 50.5823L72.5029 41.285L77.8102 38.704V38.7009ZM70.249 68.432C70.5411 68.0642 71.4082 67.1875 71.9986 66.5529C74.4801 63.8799 77.3182 61.5227 80.3623 59.5087C84.3535 56.8694 88.6983 54.788 93.283 53.4239C95.7614 52.6852 98.3689 52.161 100.939 51.7993C103.956 51.3732 106.892 51.3333 109.915 51.4345C112.4 51.5173 114.899 51.9035 117.341 52.4124C120.487 53.0684 123.586 54.083 126.538 55.3337C128.586 56.2012 130.698 57.3445 132.605 58.5002C135.44 60.2137 137.906 62.1081 140.338 64.352C140.421 64.4286 140.947 64.9375 140.913 65.0111C140.879 65.0846 140.273 64.7597 140 64.6677C138.508 64.1711 136.491 63.8339 134.471 64.024C130.314 64.4164 126.612 65.9337 123.183 68.3002C121.397 69.5325 119.656 70.9609 118.14 72.5059C115.225 75.4701 112.639 77.7416 109.595 80.5709C109.549 80.6138 109.023 81.1165 108.903 81.184C108.771 80.0651 108.599 78.9984 108.307 77.9439C107.449 74.8417 105.598 72.837 102.791 71.7518C101.41 71.2552 99.9494 70.8935 98.5195 70.8996C96.9882 70.9058 95.3524 71.0406 93.8273 71.2828C91.6379 71.6261 89.4917 72.3588 87.5022 73.4654C86.0908 74.2256 84.9808 75.0532 83.7478 76.0832C82.8284 76.8526 81.6753 78.0236 80.8328 78.8696C79.3384 80.3655 78.1792 82.0116 76.983 83.7436C74.4493 87.4128 72.589 91.2231 70.6764 95.2081C69.2804 98.1324 67.9613 101.419 66.759 104.426C65.9718 106.136 65.2277 107.537 64.2315 109.039C64.2807 107.577 64.2776 107.534 64.3544 104.864C64.3821 103.947 64.3913 102.911 64.4528 102.022C64.6312 99.7571 64.9448 97.3937 65.24 94.9843C65.6582 91.6522 66.3285 88.2497 67.0173 84.9053C67.6108 82.027 68.2165 79.1087 68.7854 76.2242C69.182 74.2225 69.4741 72.4017 69.8739 70.2345C69.9692 69.5631 70.1629 68.5853 70.2552 68.4412L70.249 68.432ZM99.5066 160.099L100.352 160.865C101.582 161.978 102.037 163.069 101.84 164.403C101.53 166.53 99.9125 167.533 97.3911 167.165C96.9821 167.103 96.4132 166.99 95.5062 166.736L95.8505 164.4C96.8038 164.63 97.3142 164.734 97.6801 164.789C98.7655 164.948 99.276 164.731 99.3713 164.072C99.4328 163.652 99.2944 163.281 98.6333 162.68L97.6309 161.754C96.6562 160.847 96.238 159.808 96.4132 158.625C96.6961 156.693 98.2459 155.725 100.549 156.062C101.062 156.135 101.598 156.276 102.185 156.454L101.859 158.671C101.272 158.493 100.721 158.352 100.297 158.29C99.4174 158.162 98.9377 158.367 98.8578 158.907C98.8024 159.281 98.9654 159.612 99.5066 160.102V160.099ZM93.3906 146.283C112.206 128.529 131.762 118.229 154.716 110.535C149.483 136.578 121.44 154.735 93.3906 146.283ZM109.334 168.044C106.075 168.115 103.593 165.776 103.516 162.373C103.442 158.968 105.819 156.525 109.079 156.454C112.338 156.384 114.835 158.72 114.909 162.125C114.983 165.531 112.59 167.974 109.334 168.044ZM121.972 166.567C119.407 167.116 117.547 165.798 116.923 162.895L115.508 156.322L117.913 155.807L119.29 162.202C119.635 163.799 120.354 164.467 121.471 164.228C122.602 163.986 122.98 163.069 122.639 161.485L121.261 155.09L123.666 154.575L125.08 161.147C125.705 164.047 124.536 166.015 121.972 166.567ZM130.412 163.949L127.288 155.706L124.988 156.574L124.161 154.394L131.064 151.795L131.891 153.974L129.591 154.842L132.715 163.085L130.415 163.952L130.412 163.949ZM142.303 158.379L140.126 154.511L137.103 156.203L139.28 160.068L137.134 161.27L131.664 151.556L133.81 150.354L135.929 154.115L138.951 152.423L136.833 148.662L138.979 147.46L144.449 157.175L142.303 158.376V158.379ZM147.011 155.369L140.144 146.578L145.021 142.792L146.457 144.631L143.524 146.909L144.766 148.497L147.665 146.247L149.101 148.086L146.202 150.336L147.518 152.019L150.501 149.704L151.937 151.544L147.014 155.366L147.011 155.369ZM157.68 145.949L152.659 144.861L155.808 147.887L154.101 149.652L146.057 141.921L148.628 139.264C150.233 137.605 152.072 137.403 153.723 138.988C154.827 140.048 155.03 141.495 154.246 142.875L159.741 143.825L157.683 145.952L157.68 145.949ZM164.937 136.6L157.13 136.284L162.591 140.012L161.284 141.912L152.063 135.619L153.32 133.792L161.14 134.114L155.666 130.377L156.973 128.477L166.195 134.77L164.937 136.6ZM196.141 84.0133C196.024 86.9499 195.252 89.1049 193.669 91.3978C191.852 94.034 189.263 95.8732 185.41 97.4274C182.169 98.7332 179.352 99.8184 176.09 100.995C172.089 102.436 168.027 103.846 164.005 105.226C160.875 106.302 157.105 107.66 153.981 108.76C148.45 110.707 143.17 112.589 137.755 114.839C135.354 115.835 133.192 116.902 130.84 118.011C128.561 119.087 126.224 120.326 124.004 121.512C121.311 122.95 119.081 124.329 116.489 125.938C114.426 127.22 112.467 128.547 110.456 129.908C107.747 131.741 104.845 133.933 102.308 135.999C99.9678 137.906 97.6278 139.889 95.3432 141.863C93.4644 143.485 91.7886 144.962 89.9314 146.611C88.0557 148.279 86.3092 149.738 84.4796 151.461C83.551 152.337 83.3696 152.405 82.4994 153.328C82.1181 153.732 81.3032 154.541 81.3032 154.541C81.3032 154.541 79.7043 154.272 79.2953 154.213C78.3114 154.076 77.2413 153.984 76.2512 153.876C74.4216 153.677 73.5453 153.542 71.7096 153.38C70.9593 153.312 68.6162 153.211 67.869 153.19C66.3993 153.144 65.895 153.113 64.2591 153.058C63.1276 153.018 61.9284 152.969 60.7999 153.012C58.4845 153.098 56.6211 153.174 54.3119 153.318C52.3163 153.444 50.3914 153.594 48.4081 153.852C46.0773 154.152 43.2915 154.52 41.1852 154.796C40.4933 154.885 40.0136 154.955 39.2541 155.041C39.7892 154.367 40.3734 153.717 40.8193 153.208C42.6949 151.065 44.423 149.208 46.4955 147.255C48.6418 145.232 50.9172 143.325 53.3556 141.652C56.9501 139.187 60.7476 136.839 64.4836 134.601C66.4269 133.436 68.3211 132.449 70.3044 131.352C74.0065 129.304 77.7272 127.471 81.5369 125.635C84.907 124.01 88.4247 122.456 91.8747 120.997C97.0528 118.808 102.182 116.975 107.483 115.112C111.283 113.775 115.152 112.411 118.964 111.102C124.087 109.339 129.434 107.516 134.554 105.753C137.983 104.573 140.981 103.521 144.95 102.154C147.235 101.36 149.384 100.576 151.691 99.849C156.946 98.1937 162.179 96.5384 167.388 94.7452C170.998 93.4669 173.888 92.5167 177.277 90.7602C179.171 89.7793 181.351 88.5746 182.366 86.484C182.642 85.9169 182.898 84.8563 182.612 84.2279C182.24 83.4156 181.342 82.9895 179.709 83.293C177.938 83.6179 175.868 84.7674 173.448 87.0388C171.514 88.8535 169.356 90.4475 166.628 91.1066C163.827 91.784 161.207 91.968 158.421 91.0484C157.05 90.5947 155.925 89.6812 155.82 88.2466C155.774 87.6151 155.802 87.0143 155.832 86.4993C155.925 85.8679 156.023 85.4111 156.164 84.8318C155.7 85.2057 154.885 86.0855 154.519 86.5085C152.736 88.5654 152.213 89.0375 150.233 91.0913C146.703 94.4509 142.816 97.5132 138.524 99.849C135.996 101.225 132.426 103.058 129.699 103.969C127.869 104.579 125.938 105.063 124.023 105.367C122.172 105.661 120.241 105.667 118.389 105.6C116.763 105.541 115.078 105.201 113.639 104.383C112.237 103.586 111.723 102.298 111.502 100.815C111.231 99.0061 111.167 97.1086 111.197 95.2786C111.213 94.2915 110.475 93.844 109.549 94.2946C108.058 95.0241 106.662 95.7844 105.088 96.3269C104.073 96.6764 102.978 97.032 101.942 97.3109C101.647 97.3906 101.53 97.5316 101.413 97.7585C100.561 99.4168 99.811 100.98 98.907 102.608C97.6032 104.959 96.5793 107.234 95.0326 109.447C94.1225 110.75 92.9171 112.239 91.8409 113.41C90.0359 115.378 88.3755 116.77 86.386 118.067C84.5872 119.241 82.318 120.525 80.1778 120.773C76.4726 121.206 73.5422 120.295 71.1192 117.208C70.7072 116.684 70.5504 116.436 70.3751 116.721C69.1544 118.707 67.7891 121.028 66.5376 122.993C65.4676 124.676 64.5389 126.533 63.1645 128.029C61.6885 129.632 59.8251 129.822 57.8234 129.347C56.083 128.936 54.6993 128.198 53.8814 126.791C53.3494 125.877 52.9251 124.872 52.676 123.848C52.2917 122.266 52.1164 120.657 51.9627 119.038C51.7382 116.672 51.7751 114.336 51.852 111.976C51.9165 109.974 52.1779 108.055 52.4116 105.952C52.5623 104.582 52.7191 103.249 52.9036 101.826C53.1311 100.082 53.3064 99.1747 53.537 96.9645C53.5431 96.7316 53.7153 95.72 53.703 95.0272C53.3402 96.1798 52.8482 97.9669 52.6453 98.77C51.5568 103.108 50.5544 107.059 49.5027 111.406C48.694 114.759 47.9099 118.146 47.3073 121.546C46.5447 125.846 45.367 130.126 44.3123 134.362C43.808 136.379 43.4883 137.777 42.9532 139.785C42.3505 142.041 40.9699 142.626 39.165 141.44C37.5875 140.401 36.4683 139.331 35.5581 137.765C35.3244 137.36 35.0846 136.808 34.977 136.097C34.7556 134.656 35.1276 130.451 35.2107 129.651C35.4536 127.395 35.6258 125.049 35.8687 122.793C36.127 120.39 36.4006 118.051 36.6835 115.648C36.9603 113.291 37.2954 110.94 37.5476 108.576C37.7659 106.507 37.9873 104.441 38.2087 102.372C38.347 101.091 39.2695 92.1795 39.3033 91.7902C38.7068 93.9942 37.8797 97.0136 37.3077 99.1931C36.5851 101.94 35.7826 104.984 35.2445 107.779C34.7433 110.394 34.1129 112.95 33.5441 115.553C32.9568 118.244 32.4617 120.878 31.8713 123.569C31.4193 125.623 30.9489 127.677 30.4876 129.727C29.8419 132.612 29.1869 135.493 28.5504 138.378C27.8924 141.351 27.179 144.343 26.4841 147.307C26.1582 148.699 24.7837 148.533 23.9935 148.257C22.9695 147.837 22.2623 147.43 21.3767 146.765C20.0791 145.79 19.2858 144.699 18.514 143.313C18.0067 142.4 17.6438 141.67 17.5147 140.603C17.3947 139.619 17.364 138.359 17.4347 137.385C17.5423 135.876 17.6869 134.371 17.8929 132.869C18.1665 130.861 18.5817 128.881 18.926 126.889C19.2643 124.945 19.704 123.02 20.073 121.083C20.3989 119.363 20.7033 117.637 20.9924 115.909C21.2845 114.18 21.5797 112.377 21.8318 110.642C22.004 109.456 22.0963 108.331 22.25 107.142C22.4191 105.845 22.6067 104.668 22.7266 103.255C22.8066 102.307 22.9172 101.274 23.0156 100.327C23.2001 98.5953 23.3293 97.3783 23.5107 95.6464C23.5199 95.5667 23.6275 94.6992 23.6275 94.6992C23.6275 94.6992 22.8558 95.6771 22.4376 96.5139C22.0194 97.3508 17.896 104.625 15.6482 108.711C14.3629 111.047 13.2006 113.429 11.8722 115.74C11.042 117.184 10.1995 118.247 9.02183 119.219C7.72422 120.289 6.83558 119.746 5.92541 118.772C4.67086 117.325 4.48329 115.884 4.16965 114.281C3.78837 112.325 3.62232 109.208 3.69612 107.065C3.77914 104.741 4.08663 102.35 4.56324 100.067C4.89533 98.4666 5.31966 96.7622 5.78704 95.1989C6.30977 93.4516 7.03545 92.1672 8.05631 90.5732C8.12703 90.4629 8.32075 90.1594 8.32075 90.1594C8.32075 90.1594 8.55137 90.3249 8.59749 90.3648C9.54763 91.1587 11.5432 90.8706 12.7055 89.2398C13.8679 87.609 14.6858 85.9292 16.0572 84.1237C17.5516 82.1588 19.1874 80.1172 21.2783 78.7501C24.2487 76.8066 26.9177 78.1339 28.2337 80.1632C28.9471 81.2637 30.42 84.139 30.995 87.1492C31.1549 87.986 31.3271 88.9271 31.4624 89.859C31.8191 89.0926 34.2759 80.9204 35.6811 77.3492C36.4222 75.4701 37.2063 73.4439 38.1718 71.6752C39.1188 69.9432 40.2596 68.2389 41.9078 67.0587C43.6789 65.7897 45.0226 66.0533 46.6 67.0311C48.0022 67.9017 48.6418 69.3118 48.9124 70.8996C49.4259 73.919 49.4043 77.0641 49.2906 80.0988C49.2383 81.4966 49.1584 83.0508 49.2045 84.4793C49.4874 83.5351 49.8041 82.3335 50.0839 81.3863C51.1417 77.8121 52.2517 74.3175 53.4939 70.7985C54.4871 67.9814 55.6433 65.2287 57.0485 62.5986C58.0417 60.7349 59.1087 58.7301 60.5816 57.1913C61.3872 56.3483 62.325 55.6126 63.6534 55.6984C64.3729 55.7444 65.0432 56.3054 65.5567 56.6794C67.3279 57.9699 68.5609 59.5118 69.1113 61.7066C69.3542 62.6722 69.0467 64.1037 68.9176 65.0356C68.6654 66.8135 68.3457 68.573 68.0043 70.3356C67.4816 73.0423 66.9712 75.5161 66.4331 78.2198C65.9565 80.6169 65.4676 82.7657 64.994 85.1628C64.6312 87.0113 64.2284 89.0099 63.9055 90.8644C63.6626 92.2622 63.4351 94.2915 63.2506 95.6985C63.0538 97.222 63.0568 98.16 62.8908 99.6866C62.8232 100.297 62.7524 101.029 62.7401 101.633C62.7155 102.801 62.571 103.926 62.5126 105.088C62.408 107.2 62.2912 109.177 62.3804 111.31C62.405 111.878 62.4511 112.371 62.6448 112.895C62.8047 113.331 63.2967 113.337 63.7887 113.082C64.1761 112.88 64.5758 112.319 64.8003 111.988C65.7812 110.541 66.3224 109.416 67.168 107.886C68.5916 105.315 69.5541 102.54 70.701 99.8521C72.2754 96.1583 74.0127 92.627 75.9775 89.1172C77.2106 86.9193 78.5789 84.7582 80.0856 82.7443C80.8082 81.7787 81.6999 80.8161 82.5178 79.9272C83.9538 78.3669 85.4851 77.0028 87.2624 75.8564C89.4548 74.4401 91.435 73.6094 94.4392 73.0761C95.6138 72.8676 97.7047 72.6868 98.9869 72.7695C101.265 72.9136 103.362 73.7228 104.906 75.3935C105.967 76.5399 106.379 78.0542 106.745 79.6697C107.065 81.0859 106.985 82.1281 106.988 83.5658C106.988 84.0501 106.852 84.9881 106.837 85.5153C107.495 84.9881 108.292 84.3291 108.897 83.7987C111.772 81.2729 114.586 78.6826 117.322 76.0066C118.454 74.9 119.407 73.9252 120.573 72.8523C123.251 70.3847 125.981 68.5301 129.868 67.0434C132.263 66.1269 134.345 65.8172 136.888 65.9613C138.49 66.0502 140.31 66.6265 141.491 67.7208C143.109 69.2167 144.36 70.9334 144.941 73.1159C145.568 75.4732 145.049 77.6343 143.926 79.6789C142.915 81.5242 141.568 83.106 139.72 84.2003C138.186 85.1107 136.485 85.7422 134.686 85.7728C133.386 85.7943 131.885 85.7728 130.597 85.4724C129.61 85.2425 129.391 84.8808 129.773 83.8539C130.025 83.1734 130.237 82.6308 130.735 81.9381C130.929 81.6683 131.221 81.2759 131.366 80.9694C131.584 80.5035 131.75 80.2368 131.366 79.8659C130.803 79.3294 130.317 79.8475 130.028 80.0774C128.715 81.1165 127.387 83.1979 126.283 84.982C125.33 86.5177 124.527 87.6611 124.066 89.4452C123.528 91.5296 124.499 93.3872 127.162 93.4792C129.262 93.5497 131.175 92.8998 133.026 92.063C136.464 90.5058 139.551 88.5777 142.49 86.2296C145.015 84.2156 147.192 81.8185 148.883 79.0627C150.464 76.4848 151.992 73.8424 153.563 71.2583C155.709 67.73 158.019 64.2202 160.457 60.882C162.074 58.6688 163.726 56.6027 165.777 54.7819C168.147 52.679 170.912 51.0912 174.113 50.5823C176.148 50.2605 178.193 50.1593 180.388 50.1808C179.444 51.3456 179.291 52.2714 179.159 53.0438C178.759 55.3919 179.34 57.6388 180.075 59.4443C180.81 61.2498 181.791 62.7243 183.017 64.4991C184.235 66.2617 184.5 68.15 184.214 70.2804C184.088 71.4667 183.473 73.1251 183.303 73.5481C183.482 73.5665 184.152 73.6217 184.533 73.6523C187.547 73.8822 190.551 74.6333 193.1 76.402C194.677 77.4963 195.428 79.0781 195.846 80.8713C196.049 81.7449 196.196 82.8945 196.153 84.0041L196.141 84.0133ZM109.429 99.4413C109.586 101.302 109.854 103.025 110.97 104.625C111.877 105.928 113.156 106.486 114.626 106.933C116.729 107.601 118.7 107.528 120.994 107.537C122.012 107.516 122.814 107.421 123.918 107.325C123.927 107.353 123.927 107.387 123.937 107.414C120.794 108.527 117.067 109.597 113.888 110.746C108.482 112.641 103.79 114.425 98.4058 116.381C94.9773 117.628 91.6133 119.06 88.2679 120.513C83.1513 122.735 78.1761 125.151 73.2132 127.692C71.9802 128.323 70.6918 128.967 69.4618 129.629C69.3327 129.697 69.0375 129.81 69.0375 129.81C69.0375 129.81 68.7915 129.473 68.6716 129.31C68.0013 128.406 67.5247 127.793 66.8666 126.87C66.8051 126.781 66.636 126.496 66.636 126.496C66.636 126.496 66.7529 126.285 66.799 126.211C68.032 124.219 69.3112 122.226 70.535 120.228C70.6457 120.047 70.8701 119.743 70.8701 119.743C70.8701 119.743 71.153 120.025 71.316 120.169C72.8903 121.537 74.7414 122.321 76.8908 122.643C80.1655 123.137 83.0621 122.125 85.8848 120.602C88.9782 118.931 91.5395 116.626 93.8857 114.079C95.5799 112.239 96.9636 110.161 98.1813 107.963C99.7679 105.097 101.072 102.473 102.621 99.5885C102.726 99.3954 102.864 98.9815 103.206 98.8957C105.343 98.347 107.369 97.5224 109.399 96.5139C109.399 97.4458 109.362 98.583 109.435 99.4444L109.429 99.4413ZM137.709 102.485C137.709 102.485 139.379 101.563 140.32 100.995C142.552 99.6437 144.717 98.1907 146.743 96.5415C149.228 94.5153 151.401 92.4646 153.714 90.1962C153.861 90.046 154.117 89.7885 154.252 89.6505C154.332 90.0215 154.43 90.3433 154.615 90.5824C154.821 90.843 154.95 90.987 155.113 91.1526C155.276 92.253 155.402 93.5834 155.562 94.5889C155.666 95.2908 155.703 95.9621 155.811 96.563C155.51 96.6856 155.082 96.7959 154.867 96.8664C150.667 98.2305 147.312 99.2973 143.228 100.686C141.165 101.388 139.825 101.881 137.767 102.611L137.709 102.488V102.485ZM137.632 87.2044C136.691 88.0657 135.175 88.8106 134.317 89.2643C132.322 90.282 131.495 90.7571 129.281 91.3488C128.346 91.594 127.347 91.7135 126.603 91.5174C125.963 91.3488 125.637 90.7296 125.812 90.0153C126.144 88.6635 126.759 87.9125 127.439 86.7384C127.562 86.5269 127.912 85.9782 128.054 85.7636C128.783 87.1308 130.172 87.2841 131.479 87.4833C132.328 87.6121 133.201 87.6826 134.074 87.6611C135.231 87.6305 136.362 87.4557 137.626 87.2074L137.632 87.2044Z" fill="#08498C"/>
<path d="M109.131 158.845C107.338 158.884 106.019 160.276 106.065 162.318C106.111 164.359 107.489 165.693 109.281 165.653C111.074 165.613 112.409 164.221 112.363 162.18C112.316 160.138 110.923 158.805 109.131 158.845Z" fill="#08498C"/>
<path d="M104.322 37.2602C105.112 37.2357 105.589 36.7544 105.564 36.0126C105.539 35.2677 105.032 34.8202 104.245 34.8447L103.175 34.8784L103.252 37.2939L104.322 37.2602Z" fill="#08498C"/>
<path d="M129.182 39.6895L126.916 42.7916L129.062 43.5304L129.182 39.6895Z" fill="#08498C"/>
<path d="M121.086 39.537C121.455 37.6763 120.483 36.4103 118.644 36.0486L117.774 35.877L116.63 41.6674L117.501 41.8391C119.339 42.2008 120.72 41.3977 121.089 39.537H121.086Z" fill="#08498C"/>
<path d="M94.181 42.3417C95.8537 42.0106 96.8807 40.5178 96.5087 38.6571C96.1366 36.7964 94.6176 35.8063 92.9449 36.1374C91.2721 36.4684 90.2605 37.9582 90.6326 39.8189C91.0046 41.6796 92.5082 42.6727 94.184 42.3417H94.181Z" fill="#08498C"/>
<path d="M194.062 105.523C194.062 107.641 192.544 109.413 190.225 109.413C187.787 109.413 186.338 107.638 186.338 105.523C186.338 103.408 187.943 101.762 190.225 101.762C192.507 101.762 194.062 103.451 194.062 105.523ZM187.298 105.523C187.298 107.184 188.558 108.506 190.25 108.506C191.941 108.506 193.103 107.184 193.103 105.547C193.103 104.009 191.892 102.626 190.225 102.626C188.558 102.626 187.298 103.886 187.298 105.523ZM189.69 107.733H188.426V103.46C188.426 103.46 189.822 103.448 190.44 103.448C191.148 103.448 191.317 103.622 191.59 103.782C191.796 103.941 192.067 104.361 192.067 104.726C192.067 105.137 191.852 105.624 191.393 105.759C191.393 105.759 191.91 106.029 191.938 106.538C191.969 107.117 191.919 107.304 192.067 107.733H190.791C190.791 107.733 190.791 107.292 190.699 106.856C190.572 106.283 189.684 106.317 189.684 106.317L189.69 107.736V107.733ZM189.684 105.364H189.991C190.422 105.364 190.782 105.219 190.782 104.833C190.782 104.625 190.566 104.361 189.994 104.303C189.767 104.281 189.684 104.294 189.684 104.294V105.364Z" fill="#08498C"/>
<path d="M180.25 101.541C179.964 113.861 176.88 124.755 171.446 134.653C163.704 148.727 152.551 159.36 137.933 166.107C107.433 180.183 76.7153 170.84 58.8901 154.891C60.0647 154.891 62.4416 154.891 62.4416 154.891C62.4416 154.891 63.6716 155.936 64.1021 156.277C66.9648 158.373 69.191 159.805 72.1583 161.506C76.5492 164.023 81.1831 165.963 86.0199 167.462C88.8303 168.333 91.6777 169.041 94.5865 169.522C96.7328 169.878 98.8852 170.147 101.05 170.365C104.103 170.672 107.163 170.702 110.213 170.583C112.747 170.482 115.277 170.2 117.796 169.816C121.495 169.255 125.114 168.403 128.678 167.294C132.933 165.969 136.995 164.185 140.913 162.079C144.344 160.234 147.582 158.085 150.657 155.691C152.637 154.149 154.498 152.479 156.327 150.759C157.846 149.334 159.276 147.822 160.635 146.259C163.359 143.129 165.816 139.797 167.932 136.22C168.904 134.58 169.86 132.928 170.693 131.217C173.024 126.441 174.783 121.705 175.991 116.534C176.557 114.109 177.113 111.663 177.353 109.168C177.526 107.66 177.642 106.559 177.815 104.38C177.815 104.266 177.919 102.403 177.919 102.403C177.919 102.403 178.568 102.139 179.201 101.921C179.5 101.82 179.884 101.649 180.244 101.535L180.25 101.541Z" fill="#74C8EB"/>
<path d="M43.0638 64.4495C44.2445 62.3221 45.496 60.3787 46.8274 58.4904C48.0728 56.7186 49.4011 55.0112 50.7725 53.3344C52.765 50.8944 54.982 48.6689 57.2575 46.5048C58.798 45.0365 60.4492 43.6846 62.1435 42.3818C64.1452 40.843 66.2054 39.3962 68.3394 38.0505C69.9168 37.0573 71.5434 36.1499 73.1946 35.2824C76.9952 33.2899 80.9341 31.6438 85.0329 30.3717C87.991 29.4521 90.9859 28.7011 94.0423 28.1524C96.2255 27.76 98.4148 27.3952 100.62 27.2389C102.308 27.1193 105.976 26.9017 107.421 26.9477C109.89 27.0243 112.366 27.0948 114.816 27.3707C119.426 27.8888 123.964 28.7992 128.407 30.1755C131.947 31.2729 135.381 32.6064 138.72 34.2126C141.863 35.7239 144.883 37.4374 147.776 39.3747C149.876 40.7817 151.881 42.3113 153.843 43.9115C156.34 45.9469 158.597 48.2275 160.844 50.5204C161.831 51.5259 162.56 52.5344 163.498 53.5858C163.575 53.6778 163.698 53.8034 163.802 53.9383C163.802 53.9383 163.467 54.2786 163.393 54.3521C162.926 54.8273 162.569 55.1767 162.13 55.6335C161.241 54.625 160.454 53.595 159.624 52.6325C158.498 51.3235 156.813 49.6928 155.565 48.5065C153.062 46.1308 150.697 44.2793 147.884 42.2776C144.397 39.7977 140.455 37.56 136.58 35.7514C132.371 33.7896 128.727 32.5359 124.201 31.4446C121.901 30.8898 119.93 30.4545 117.593 30.1357C116.019 29.9211 114.503 29.7985 112.916 29.6605C111.271 29.5165 109.681 29.495 108.039 29.4214C105.942 29.3295 102.892 29.4552 100.795 29.6605C97.4278 29.9855 94.4298 30.4024 91.1212 31.1687C86.8902 32.1466 83.3571 33.2256 79.3782 34.9391C75.2794 36.7017 71.0268 38.9548 67.3585 41.4868C65.3106 42.8999 63.4718 44.2425 61.5469 45.8181C60.0925 47.0075 58.3275 48.6628 57.0084 49.9778C55.7046 51.2776 54.5054 52.5313 53.3062 53.9444C51.1138 56.5316 49.069 59.2261 47.2395 62.0738C46.9012 62.6011 46.4892 63.3919 46.0526 63.9835C45.8681 64.2349 45.6897 64.566 45.6897 64.566C45.6897 64.566 45.4437 64.4587 45.087 64.425C44.3737 64.3146 43.9001 64.3023 43.0576 64.4526L43.0638 64.4495Z" fill="#74C8EB"/>
<path d="M160.328 108.568C160.328 108.568 159.928 110.855 159.688 111.974C159.107 114.668 158.265 117.283 157.241 119.834C156.137 122.58 154.809 125.229 153.277 127.767C151.835 130.161 150.218 132.438 148.388 134.547C146.94 136.218 145.449 137.852 143.791 139.348C141.433 141.478 138.961 143.446 136.295 145.169C132.128 147.863 127.667 149.942 122.916 151.398C120.247 152.216 117.526 152.774 114.767 153.216C111.237 153.783 107.686 153.862 104.141 153.712C101.072 153.583 98 153.191 94.9958 152.471C92.9879 151.989 91.0815 151.416 90.6018 151.281C90.0914 151.137 88.8891 150.705 88.5078 150.463L90.5557 148.63C90.5557 148.63 91.0231 148.804 91.1245 148.838C93.4215 149.617 95.4509 150.077 97.8278 150.521C99.4267 150.821 101.05 151.024 102.683 151.14C104.534 151.272 106.388 151.484 108.239 151.379C110.844 151.232 113.445 151.061 116.031 150.607C119.097 150.07 122.079 149.295 124.998 148.24C128.537 146.962 131.882 145.295 135.071 143.299C138.997 140.841 142.46 137.824 145.593 134.44C147.988 131.853 150.049 129.002 151.841 125.967C153.822 122.62 155.414 119.101 156.57 115.389C157.121 113.617 157.588 111.894 157.976 110.027C158.05 109.589 158.136 109.359 158.136 109.359L160.325 108.571L160.328 108.568Z" fill="#74C8EB"/>
<path d="M71.1192 62.9753C71.0946 62.2518 71.0238 61.5805 70.827 60.9307C70.7655 60.7284 70.5811 60.3299 70.5811 60.3299C70.5811 60.3299 70.9623 60.0141 71.1714 59.8363C73.7267 57.6477 76.4172 55.6429 79.3014 53.8987C83.1574 51.5659 87.2531 49.7758 91.5702 48.4822C93.9625 47.7679 96.3855 47.2039 98.8577 46.8391C100.866 46.5418 102.874 46.3517 104.9 46.2567C105.955 46.2046 107.012 46.1157 108.061 46.177C110.419 46.3119 112.775 46.4621 115.121 46.8177C118.423 47.3173 121.637 48.1021 124.782 49.1964C129.976 51.0019 134.763 53.5523 139.188 56.82C141.955 58.8646 144.489 61.1636 146.835 63.6619C148.616 65.5563 150.196 67.6285 151.7 69.7498C151.801 69.8908 152.001 70.2096 152.001 70.2096C152.001 70.2096 151.872 70.4272 151.724 70.6387C151.377 71.2303 151.054 71.6104 150.851 72.012C141.752 58.6378 129.284 50.536 113.168 48.7152C97.0436 46.8943 83.0221 51.9031 71.1222 62.9814L71.1192 62.9753Z" fill="#74C8EB"/>
<path d="M193.942 79.8008C192.423 76.7017 189.607 75.7147 186.434 75.3315C184.991 75.1568 184.02 75.2641 182.581 75.307C182.202 75.3192 180.843 75.5277 180.843 75.5277C181.166 74.9453 181.28 74.5897 181.464 74.231C182.559 72.0914 182.704 69.9272 181.701 67.7171C181.166 66.5369 180.637 65.3537 180.096 64.1766C179.078 61.9695 178.014 59.7747 177.569 57.3592C177.267 55.7376 177.132 54.113 177.907 52.565C178.091 52.2002 177.882 52.1235 177.602 52.1143C176.096 52.0684 174.595 52.0929 173.122 52.5098C170.709 53.1903 168.722 54.5881 166.929 56.2526C164.869 58.1654 162.904 60.1701 161.232 62.4539C159.667 64.5935 158.095 66.7209 156.73 68.9923C154.821 72.165 152.963 75.3652 150.854 78.4153C146.543 84.6502 141.168 89.6192 134.087 92.5804C131.479 93.6716 128.856 94.7231 125.932 94.5667C124.026 94.4656 122.577 93.0555 122.574 91.1642C122.574 89.5334 123.162 88.0651 123.912 86.6581C125.28 84.0893 127.045 81.7841 128.872 79.5372C129.819 78.3723 131.049 77.6459 132.694 77.934C133.607 78.0934 133.893 78.4766 133.447 79.2736C133.21 79.6935 132.909 80.0767 132.632 80.4721C132.042 81.3212 131.35 82.1029 131.018 83.1084C130.833 83.6693 131.009 84.1138 131.568 84.2763C131.959 84.3897 132.368 84.4387 132.771 84.4908C134.735 84.7514 136.679 84.6226 138.438 83.6846C140.645 82.5075 142.167 80.6346 143.21 78.3846C143.388 78.0014 143.527 77.3516 143.582 76.9439C143.831 75.0617 143.548 73.575 142.979 72.0638C142.527 70.8652 141.583 69.1762 139.695 68.2597C139.074 67.9593 138.398 67.7876 137.712 67.714C136.54 67.5914 134.695 67.5393 133.303 67.6343C131.986 67.7232 130.959 68.0727 129.72 68.5264C128.131 69.1118 127.168 69.7678 125.858 70.6568C124.573 71.5304 123.334 72.4684 122.15 73.4708C119.41 75.7913 116.858 78.2405 114.466 80.7327C111.846 83.4609 109.008 85.6863 105.561 87.2773C105.284 87.3937 104.98 87.5347 104.98 87.5347C104.98 87.5347 105.023 87.2589 105.05 87.0198C105.06 86.9401 105.066 86.8604 105.069 86.7807C105.146 85.0978 105.392 83.2769 105.367 81.591C105.324 78.6145 103.916 76.3032 101.603 74.9207C101.256 74.7123 100.706 74.3996 100.045 74.2801C98.301 73.9705 96.6683 74.1145 94.8141 74.5345C93.2306 74.8931 92.0436 75.2211 90.6569 75.8771C88.8796 76.717 87.2376 77.8359 85.7862 79.1295C84.8423 79.9725 83.9721 80.7541 83.0927 81.6707C81.6505 83.1727 80.3744 84.7974 79.1845 86.4864C78.0068 88.1601 76.8998 89.8828 75.9528 91.7098C75.2609 93.0432 74.5598 94.3767 73.9541 95.7438C73.3791 97.0405 72.8625 98.3678 72.3059 99.6736C71.6971 101.108 71.0606 102.527 70.4333 103.956C69.8153 105.369 68.6929 107.929 67.9211 109.253C66.888 111.031 66.4022 111.95 65.2767 113.676C64.794 114.418 64.4527 114.933 63.6286 115.417C62.7277 115.948 62.0512 115.822 61.6699 114.856C61.1564 113.56 60.9842 112.183 60.8551 110.816C60.7382 109.559 60.7536 108.284 60.7628 107.018C60.7843 103.968 60.7044 100.921 61.0703 97.8773C61.2271 96.5776 61.4147 95.2748 61.5684 93.972C61.7837 92.1573 62.1035 90.1894 62.3617 88.5586C62.7184 86.1277 63.2565 83.7827 63.6594 81.4009C63.9791 79.5096 64.3604 77.6213 64.6956 75.73C65.2706 72.4899 66.0731 69.3019 66.7465 66.0833C67.0694 64.5352 67.4937 62.132 66.9895 61.1204C66.2515 59.7778 65.1476 58.7141 63.7178 58.055C62.9552 57.7025 62.2664 57.9263 61.6084 58.475C60.9196 59.0482 60.4707 59.7992 60.0433 60.5257C58.841 62.5703 57.7925 64.7038 56.9407 66.917C54.5884 73.0355 52.5252 79.2368 50.3359 85.4166C49.684 87.2589 49.0721 89.1318 48.5125 91.0017C48.2757 91.7895 47.8452 93.1352 47.5931 93.9199C47.6054 91.9152 47.7653 89.5947 47.7899 87.3754C47.8452 85.4411 47.8083 83.6141 47.8575 81.7044C47.9313 78.7034 47.8483 76.1316 47.4977 73.152C47.3563 71.9504 47.0211 70.384 46.0525 69.5226C44.6073 68.2382 42.1843 68.5294 40.8375 70.2154C40.1119 71.1227 39.626 72.165 39.1925 73.2286C36.0468 80.9289 33.4486 88.8161 31.0163 96.7615C30.8226 97.3961 30.4044 98.6529 30.4044 98.6529L30.2076 99.223L30.1892 98.6283C30.1892 97.298 30.2199 95.9707 30.183 94.6403C30.1246 92.6355 29.9678 90.8699 29.8171 88.8713C29.6111 86.14 28.5718 83.1175 27.2096 81.3611C25.9059 79.5893 24.147 79.2521 22.2099 80.3158C21.2505 80.843 20.3772 81.4868 19.6577 82.3052C17.8158 84.4019 16.3091 86.7592 14.5749 88.9418C13.5817 90.1924 12.5824 91.3481 11.2571 92.2616C10.5376 92.7582 9.62433 93.034 8.88943 92.6263C8.73876 92.5436 8.51737 92.329 8.51737 92.329C8.51737 92.329 8.37592 92.5804 8.29905 92.7612C7.67177 94.2111 7.19824 95.7132 6.77391 97.2305C6.408 98.5486 5.95291 99.8392 5.74689 101.206C5.62082 102.049 5.35946 103.539 5.24876 104.379C5.23646 104.48 5.15959 104.949 5.09809 105.562C5.00585 106.445 5.02122 107.656 5.02737 108.664C5.03352 110.139 5.07349 111.626 5.35331 113.085C5.63005 114.528 5.93139 115.966 6.63554 117.284C7.13982 118.228 8.13301 118.366 8.80948 117.542C9.1139 117.171 9.38756 116.772 9.6397 116.365C11.9243 112.689 13.8738 108.833 15.8879 105.01C17.9388 101.124 19.6946 97.0711 22.2529 93.4632C22.7418 92.7735 23.1877 92.047 23.7934 91.4492C24.1747 91.0722 24.5837 91.0875 24.7313 91.5197C24.8481 91.86 25.0326 92.47 25.0357 93.3375C25.0449 95.5814 24.8758 97.5156 24.7005 99.3794C24.5345 100.814 23.8303 106.534 23.6151 108.021C23.4183 109.376 23.1846 110.737 22.9693 112.091C22.7172 113.682 22.4589 115.264 22.1945 116.852C21.9085 118.572 21.641 120.301 21.3458 122.02C21.0475 123.749 20.6847 125.469 20.3557 127.192C20.1097 128.491 19.8606 130.193 19.6854 131.504C19.4916 132.957 19.138 137.234 19.0489 138.11C18.9505 139.088 19.0489 140.636 19.1657 141.065C20.0636 142.73 21.1244 144.201 22.4066 145.605C23.4306 146.727 24.8696 146.742 25.5646 145.139C25.9212 144.318 26.0965 143.456 26.2902 142.601C27.1081 138.969 27.8738 135.327 28.6825 131.695C29.5865 127.642 30.512 123.593 31.4314 119.54C32.3078 115.669 33.1349 111.788 34.0789 107.935C34.9645 104.315 35.9577 100.722 36.9263 97.1232C37.1477 96.2067 37.3998 95.4005 37.6058 94.6066C39.3185 87.97 40.5085 85.8948 40.7699 85.9162C41.2803 85.9561 40.1026 93.9567 39.9243 96.4427C39.8413 97.5861 37.984 114.887 37.6888 116.533C37.3137 118.621 37.0523 120.806 36.794 122.814C36.5634 124.629 36.3728 126.447 36.2436 128.271C36.1145 130.11 35.8624 131.943 35.8562 133.791C35.8531 135.051 36.0161 136.057 36.794 137.234C37.7442 138.515 38.313 139.643 39.7828 140.244C40.4685 140.523 40.8898 140.311 41.351 140.029C41.9322 139.677 42.1075 139.012 42.2366 138.408C42.6948 136.265 43.0637 134.107 43.5188 131.964C44.1799 128.859 44.8103 125.748 45.5513 122.661C46.2432 119.782 46.8489 116.886 47.5316 114.007C48.2603 110.936 48.946 107.852 49.8716 104.833C50.9047 101.467 52.0055 98.1256 53.0725 94.769C53.5706 93.2026 54.5946 90.502 55.311 88.8038C55.3725 88.6597 55.5847 88.7241 55.5601 88.8774C55.2096 91.0538 54.3271 96.4121 54.1887 97.4267C54.0349 98.5701 53.1924 106.332 53.0664 107.515C52.8942 109.106 52.8696 110.712 52.8573 112.294C52.845 113.857 52.8757 115.448 52.9372 117.021C53.0018 118.63 53.2017 120.206 53.3984 121.787C53.5922 123.323 54.244 124.705 55.0558 125.993C55.7292 127.06 56.6855 127.961 57.9278 128.231C59.5083 128.574 60.9934 128.209 62.2142 127.005C63.684 125.555 64.711 123.801 65.7564 122.06C67.503 119.148 69.105 116.156 70.584 113.1C70.6547 112.953 70.9099 112.438 70.9099 112.438C70.9099 112.438 71.0729 112.947 71.1375 113.094C71.6664 114.277 72.1737 115.476 72.9178 116.552C74.1816 118.379 75.387 119.455 78.7817 119.39C80.971 119.39 83.2433 118.366 84.1719 117.879C85.9677 116.938 87.4959 115.607 88.9811 114.234C92.7785 110.73 95.712 106.595 98.0089 101.991C98.9437 100.118 99.9369 98.2728 100.976 96.455C101.155 96.1423 101.388 96.0105 101.72 95.9369C103.98 95.4189 106.114 94.5575 108.218 93.595C109.331 93.0861 110.401 92.47 111.637 92.2554C111.987 92.1941 112.298 92.4485 112.326 92.8011C112.452 94.3644 112.439 96.2312 112.439 97.7731C112.439 98.6161 112.605 99.4376 112.75 100.259C112.931 101.292 113.383 102.224 114.161 102.938C115.321 103.999 116.797 104.376 118.294 104.489C119.89 104.612 121.507 104.572 123.103 104.364C123.986 104.247 124.853 104.011 125.729 103.839C127.863 103.426 129.914 102.727 131.94 101.967C133.711 101.301 135.43 100.514 137.091 99.6123C138.948 98.6038 140.578 97.2459 142.306 96.0381C145.181 94.0272 147.699 91.8508 150.125 89.3096C151.414 87.9608 152.662 86.6305 154.104 85.1622C154.944 84.3835 155.808 83.7306 156.81 83.0777C157.068 82.9306 157.382 82.6761 157.677 82.906C157.963 83.1298 157.849 83.5252 157.788 83.8134C157.545 84.923 157.339 86.0388 157.403 87.173C157.502 88.9264 158.08 89.8706 160.309 90.3212C161.902 90.4867 163.31 90.2813 165.045 90.0913C167.581 89.6805 169.891 88.6873 171.742 86.9094C174.392 84.4694 175.505 83.844 177.959 82.5566C179.085 82.0968 180.708 81.5266 182.206 81.7105C182.722 81.7749 183.196 81.9558 183.58 82.4033C184.665 83.5774 184.687 85.858 183.555 87.4704C182.003 89.6437 179.884 90.7871 177.778 91.8079C173.63 93.8188 169.279 95.3944 164.912 96.8566C160.74 98.2513 156.539 99.551 152.361 100.93C148.456 102.221 144.557 103.533 140.661 104.851C137.844 105.801 135.031 106.77 132.217 107.739C130.074 108.477 127.937 109.228 125.797 109.97C123.826 110.654 121.852 111.334 119.878 112.015C117.445 112.855 115.032 113.75 112.575 114.51C110.558 115.135 108.54 115.761 106.545 116.457C102.424 117.897 98.3625 119.43 94.3221 121.073C89.8051 122.909 85.3312 124.837 80.9402 126.943C77.2073 128.733 73.5666 130.695 70.009 132.826C67.1248 134.555 64.2159 136.256 61.4085 138.098C58.6196 139.928 55.8891 141.859 53.2293 143.882C49.6471 146.611 46.1632 149.452 42.9469 152.607C42.6702 152.876 42.3842 153.18 41.9629 153.682C44.2045 153.263 45.9388 152.981 48.1435 152.72C50.0191 152.496 52.1316 152.282 54.0073 152.092C56.3042 151.856 58.6657 151.73 61.3747 151.644C64.0529 151.534 66.685 151.623 69.311 151.675C69.434 151.675 69.5601 151.684 69.6831 151.696C71.6479 151.871 73.6128 152.03 75.5745 152.226C76.9521 152.364 78.1667 152.508 79.5381 152.708C80.0116 152.778 80.9464 152.959 80.9464 152.959C80.9464 152.959 81.3676 152.508 81.7612 152.088C82.8128 150.868 84.0428 149.823 85.2051 148.698C92.385 141.752 100.131 135.499 108.325 129.785C110.634 128.175 112.944 126.563 115.324 125.055C117.399 123.737 119.487 122.44 121.624 121.22C123.042 120.411 124.496 119.672 125.91 118.866C127.719 117.833 129.61 116.975 131.507 116.141C133.755 115.154 136.045 114.262 138.358 113.437C143.179 111.714 147.939 109.838 152.714 107.996C156.496 106.534 160.288 105.087 164.104 103.717C167.351 102.549 170.601 101.393 173.888 100.345C178.457 98.8889 183.057 97.485 187.276 95.1246C189.487 93.8862 191.467 92.375 192.888 90.2445C193.829 88.8283 194.413 87.2865 194.594 85.5637C194.803 83.5774 194.828 81.6278 193.933 79.8039L193.942 79.8008ZM94.0669 91.673C93.6272 93.0126 92.9999 94.2724 92.4219 95.5507C92.0006 96.4887 91.5486 97.4145 91.0935 98.3371C89.3716 101.847 87.2868 105.124 84.6977 108.064C84.1473 108.689 83.4924 109.244 82.7114 109.587C81.5398 110.105 80.479 109.636 79.741 108.229C79.1845 107.172 78.9723 106.019 79 104.82C79.1107 102.181 79.8363 99.692 80.7742 97.2367C81.998 94.0333 83.9628 91.3174 86.1614 88.7425C87.2345 87.4857 88.3169 86.2412 89.4115 85.0058C89.5192 84.8771 89.7682 84.6472 89.7682 84.6472C89.7682 84.6472 89.8021 84.9506 89.8359 85.1131C90.1557 87.2466 90.9336 89.1287 92.7416 90.4591C93.0614 90.6952 93.5903 90.9526 93.9624 91.0569C94.1161 91.0998 94.2822 91.155 94.2822 91.155C94.2822 91.155 94.1377 91.5136 94.0669 91.6638V91.673ZM174.331 74.1145C174.1 75.3867 173.073 76.5546 171.114 76.6251C170.078 76.6619 168.857 76.4595 167.827 76.4044C165.426 76.2787 164.039 76.4657 161.281 77.1063C161.195 77.1247 159.965 77.4589 159.759 77.5386C160.955 75.2549 162.409 73.0784 163.541 71.1166C165.432 67.8397 166.973 65.8472 170.696 62.8156C170.841 62.6991 171.176 62.4385 171.176 62.4385C171.176 62.4385 171.333 62.8432 171.4 63.0393C172.403 66.1047 173.119 68.2474 174.112 71.4262C174.306 72.1895 174.463 73.3543 174.328 74.1115L174.331 74.1145Z" fill="#C1002A"/>
<path d="M170.561 64.4316C171.031 66.0931 171.527 67.356 171.975 68.95C172.286 70.0535 172.821 71.3625 173.024 72.4997C173.264 73.8454 172.686 74.9827 171.345 75.1911C170.401 75.3352 169.34 75.1911 168.396 75.1605C166.558 75.1022 165.057 75.2034 163.043 75.8103C162.815 75.8777 162.207 76.1077 162.207 76.1077C162.207 76.1077 162.542 75.4762 162.649 75.2739C163.987 72.8308 165.118 70.5317 166.822 68.3124C167.861 66.9575 169.196 65.6333 170.561 64.4316ZM165.721 73.4561C167.326 73.3611 168.799 73.3856 170.275 73.404C171.373 73.4561 171.425 73.263 171.173 72.1503C171.118 71.9081 170.878 71.1417 170.81 70.9026C170.377 69.606 170.149 68.9899 169.74 67.6717C168.086 69.373 166.874 71.4084 165.718 73.4561H165.721Z" fill="#08498C"/>
<path d="M91.2689 91.2066C90.9768 90.9951 90.7124 90.7529 90.4725 90.477C89.8176 89.7229 89.5562 88.7696 89.1534 87.8837C89.0704 87.6998 88.9843 87.4883 88.9843 87.4883C88.9843 87.4883 88.7906 87.709 88.6645 87.8653C88.0587 88.6194 87.5452 89.398 86.9518 90.1582C85.0792 92.5553 83.1635 94.8605 82.0104 97.7358C81.1095 99.9828 80.4515 102.178 80.433 104.611C80.433 105.004 80.4146 105.424 80.433 105.813C80.513 107.349 81.6537 108.109 82.979 107.404C84.1782 106.766 85.0761 105.69 85.9094 104.642C87.0778 103.171 87.945 101.512 88.9197 99.9214C90.1497 97.9136 91.0014 96.0897 91.9761 93.9654C92.3144 92.8251 92.462 92.025 91.2689 91.2096V91.2066ZM89.7899 94.7471C88.7321 96.8591 87.6928 98.6554 86.4475 100.663C85.5589 102.095 84.7778 103.281 83.6278 104.596C83.2373 105.041 82.8099 105.458 82.3548 105.835C82.2472 105.923 82.1826 105.972 82.1826 105.972C82.0904 105.74 82.1119 104.915 82.1119 104.688C82.1119 103.287 82.4624 101.696 83.0128 100.111C84.2274 96.6231 86.2353 93.6926 88.6276 90.8541C89.0212 91.5959 89.2395 91.9545 89.999 92.4327C90.1589 92.5339 90.4725 92.7239 90.4694 92.9232C90.4602 93.6405 90.0574 94.1984 89.7837 94.744L89.7899 94.7471Z" fill="#08498C"/>
<path d="M46.363 136.838C47.4116 138.429 48.457 140.011 49.5025 141.593C49.5517 141.666 49.5916 141.749 49.647 141.816C49.8961 142.154 50.0867 142.442 50.222 142.635C50.2527 142.681 50.3296 142.797 50.3296 142.797C50.3296 142.797 50.2189 142.88 50.1728 142.914C49.9852 143.046 49.853 143.174 49.4963 143.416C49.2257 143.603 48.8721 143.87 48.7338 143.953C48.6815 143.987 48.5493 144.088 48.5493 144.088C48.5493 144.088 48.0265 143.478 47.8297 143.22C47.1164 142.193 46.4061 141.216 45.7634 140.161C45.7019 140.06 45.6035 139.879 45.6035 139.879C45.6035 139.879 45.6527 139.631 45.6804 139.533C45.9295 138.641 46.1385 137.739 46.363 136.832V136.838Z" fill="#74C8EB"/>
<path d="M66.8511 132.323C66.1193 132.813 65.4397 133.15 64.8155 133.521C64.711 133.589 64.5757 133.662 64.5757 133.662C64.5757 133.662 63.7301 132.396 63.3672 131.9C63.2873 131.793 63.2319 131.685 63.2319 131.685C63.2319 131.685 63.3826 131.575 63.4779 131.517C64.0991 131.137 64.7632 130.686 65.2398 130.104C65.7841 130.836 66.3099 131.599 66.8511 132.326V132.323Z" fill="#74C8EB"/>
<path d="M179.3 86.5664L179.577 88.4577L177.578 89.6563L177.28 87.7037L179.3 86.5664Z" fill="#74C8EB"/>
<path d="M161.281 95.9186L159.337 96.5378C159.337 96.5378 159.23 96.0136 159.162 95.5048C159.104 95.1063 158.944 93.9629 158.944 93.9629C158.944 93.9629 159.205 94.0579 159.279 94.0794C159.799 94.2357 160.112 94.2541 160.7 94.3215C160.838 94.3461 161.069 94.3645 161.069 94.3645L161.281 95.9217V95.9186Z" fill="#74C8EB"/>
</g>
<defs>
<clipPath id="clip0_10_304248">
<rect width="200" height="156" fill="white" transform="translate(0 22)"/>
</clipPath>
</defs>
</svg>
