<?xml version="1.0" encoding="UTF-8"?>
<svg width="200px" height="200px" viewBox="0 0 200 200" version="1.1" xmlns="http://www.w3.org/2000/svg" xmlns:xlink="http://www.w3.org/1999/xlink">
    <!-- Generator: Sketch 54.1 (76490) - https://sketchapp.com -->
    <title>flagler</title>
    <desc>Created with Sketch.</desc>
    <g id="flagler" stroke="none" stroke-width="1" fill="none" fill-rule="evenodd">
        <g id="flagler_BGL">
            <g id="flagler" transform="translate(0.000000, 16.000000)">
                <g id="g10" transform="translate(99.930697, 83.733890) scale(-1, 1) rotate(-180.000000) translate(-99.930697, -83.733890) translate(0.000000, 0.158008)" fill-rule="nonzero">
                    <g id="g12">
                        <path d="M167.312539,108.666387 L162.034923,109.934024 L162.034923,116.155506 L167.312539,115.003462 L167.312539,108.666387 Z M196.173245,122.1641 L199.715865,122.1641 L199.715865,129.287869 L190.669434,129.287869 L189.9659,130.198472 L187.963405,130.822173 C183.285096,132.27692 178.474008,133.641022 173.66292,134.877613 L169.167841,136.048507 L163.963683,137.200274 C161.170613,137.818985 158.299927,138.409421 155.404847,138.961327 C155.431736,141.082464 155.435894,143.193344 155.417321,145.260149 L155.401521,147.022588 L99.1634071,167.101313 L42.9252935,147.022588 L42.909493,145.260149 C42.8909206,143.207758 42.8950786,141.116005 42.9211354,139.017322 L40.7714474,138.592374 C38.0105327,138.046843 35.1991675,137.448922 32.414968,136.815797 L27.2484539,135.639359 L22.7260978,134.439359 C16.644906,132.838805 10.5272347,131.017322 4.54358963,129.025638 L0,127.513788 L0,110.528618 L1.94245872,111.186137 L1.94245872,94.0681889 L0,93.3377662 L0,76.1959787 L9.01604967,79.6496169 C11.4199027,80.570199 13.8621757,81.463061 16.2746773,82.3029778 L20.7331665,83.8544678 L20.7331665,100.599859 L25.2298816,102.057655 L25.2298816,116.154675 L29.296465,117.412055 L29.296465,103.017045 L27.2484539,102.463476 L27.2484539,85.9936222 L35.5598051,88.1532895 C39.6008306,89.2036014 43.735827,90.1663179 47.8844063,91.0225895 C53.4031865,64.1108785 62.5593886,44.9945935 69.3693676,33.5825355 C82.1868309,12.1038944 96.1746338,2.06676641 97.7275097,0.992939684 L99.1631299,0 L100.599027,0.992939684 C102.151626,2.06600965 116.136657,12.0989325 128.957447,33.5825355 C135.765762,44.9920987 144.920301,64.1033941 150.439359,91.0070663 C153.956199,90.27997 157.466386,89.4755348 160.9045,88.6087296 L165.540675,87.4406077 L170.142477,86.0911967 C172.400273,85.4289653 174.655574,84.7326382 176.846842,84.0227283 L179.872206,83.0431026 C179.872206,83.0431026 187.216627,80.4210652 189.308381,79.619402 L198.326814,76.1613287 L198.326814,93.2900878 L195.671513,94.2705451 L193.469434,102.585722 L196.173245,104.375049 L196.173245,122.1641 L196.173245,122.1641 Z" id="path14" fill="#FFFFFF"></path>
                        <path d="M152.892027,145.238804 L99.1622983,164.421618 L45.4325699,145.238804 C44.9491326,91.2083137 59.3602203,55.2812183 71.5359649,34.8770608 C84.2234213,13.6172415 97.9758811,3.89075527 99.1622983,3.07032563 C100.348993,3.89075527 114.100898,13.6172415 126.788632,34.8770608 C138.964376,55.2812183 153.375741,91.2083137 152.892027,145.238804" id="path16" fill="#231F20"></path>
                        <path d="M99.1622983,8.37446965 C94.1940378,12.3833677 84.4884248,21.4275809 75.1686745,37.0447669 C63.5589728,56.5017311 49.7081069,90.5452507 49.6512808,142.252803 L99.1725547,159.933468 L148.673593,142.252803 C148.616767,90.5455279 134.765901,56.5017311 123.155922,37.0447669 C113.836726,21.4281353 104.130559,12.3835894 99.1622983,8.37446965 L99.1622983,8.37446965" id="path18" fill="#FAB41D"></path>
                        <path d="M99.1622983,11.8517253 C94.0266089,16.2744833 85.6099771,24.7598331 77.4619523,38.4138591 C66.1652097,57.3452515 52.7143438,90.3306977 52.329867,140.373385 L99.1725547,157.097709 L145.99473,140.374217 C145.61053,90.3315293 132.159664,57.3452515 120.862921,38.4130275 C112.714897,24.7600548 104.298265,16.2752317 99.1622983,11.8517253 L99.1622983,11.8517253" id="path20" fill="#B4131D"></path>
                        <path d="M5.33945933,126.631182 L2.5234982,125.694245 L2.5234982,114.049339 L4.46594583,114.707135 L4.46594583,92.3212728 L2.5234982,91.5908501 L2.5234982,79.8674963 L8.11190555,82.0077596 C10.5399027,82.9380437 13.0065416,83.8397761 15.4439636,84.688009 L18.2075117,85.6498939 L18.2075117,97.2471216 L16.2445734,96.5604965 L16.2445734,101.799582 L22.7042267,103.894107 L22.7042267,115.410947 L16.2445734,113.316421 L16.2445734,118.51559 L16.8361188,118.691889 L16.8361188,116.203185 L28.5316694,119.81954 L28.5316694,133.358278 L23.3675393,131.998888 C17.3338873,130.410808 11.2686345,128.604571 5.33945933,126.631182" id="path22" fill="#231F20"></path>
                        <path d="M154.948021,103.78489 L154.356753,103.912957 L154.356753,109.117392 L154.948021,108.999304 L154.948021,103.78489 Z M154.356753,125.349685 L154.948021,125.235756 L154.948021,120.175188 L154.356753,120.291334 L154.356753,125.349685 Z M166.642269,117.734162 L166.642269,134.02245 L163.416489,134.736241 C157.484958,136.049893 151.419539,137.196116 145.389324,138.143586 L140.635062,138.889809 L140.635062,127.767426 L142.682741,127.43534 L142.682741,106.146636 L140.635062,106.504225 L140.635062,95.416491 L144.029657,94.8127488 C149.889393,93.769367 155.773801,92.5061654 161.520439,91.057794 L166.642269,89.7671495 L166.642269,106.231737 L159.509352,107.944834 L159.509352,119.100482 L166.642269,117.734162 L166.642269,117.734162 Z" id="path24" fill="#231F20"></path>
                        <path d="M181.95398,117.898542 L181.95398,113.290087 L181.615519,113.395701 L181.615519,118.281355 L181.95398,117.898542 Z M193.5659,92.357586 L190.564375,103.691751 L193.647674,105.732222 L193.647674,121.302561 L188.454049,128.025776 L187.212747,128.412471 C182.573246,129.855021 177.803461,131.207481 173.033953,132.433261 L167.893551,133.752734 L167.893551,122.427717 L169.83617,121.911847 L169.83617,100.234509 L167.893551,100.822451 L167.893551,89.3821183 L170.852387,88.5147587 C173.130973,87.8458744 175.409559,87.1431718 177.62328,86.4255003 L180.679136,85.4361725 L183.792372,84.339291 C185.938457,83.5819799 188.097847,82.7875239 190.211222,81.9775447 L195.801243,79.8342322 L195.801243,91.5320836 L193.5659,92.357586 L193.5659,92.357586 Z" id="path26" fill="#231F20"></path>
                        <path d="M43.8317383,103.923767 L43.4929996,103.848646 L43.4929996,125.365485 L46.174635,125.988909 L46.174635,137.087453 L41.2601514,136.116975 C38.5153144,135.574494 35.7277884,134.981286 32.9743582,134.35509 L29.7718634,133.626053 L29.7718634,122.072901 L31.819819,122.60263 L31.819819,101.085237 L29.7718634,100.531668 L29.7718634,89.2593186 L34.9239077,90.5979187 C40.6655568,92.0898106 46.5502414,93.3979187 52.4135815,94.4853753 L55.7799016,95.1093531 L55.7799016,111.374633 L43.8317383,109.088563 L43.8317383,103.923767" id="path28" fill="#231F20"></path>
                        <path d="M100.378376,114.82051 L100.378376,109.733885 L99.7441417,109.733885 L99.7441417,114.834924 L100.378376,114.82051 Z M104.55024,141.695353 C102.698819,141.728895 100.847122,141.745804 99.0453198,141.745804 C98.0357564,141.745804 96.9735249,141.739705 95.7962554,141.727231 L94.1965326,141.710322 L88.0498938,135.959525 L88.0498938,104.958279 L94.0196789,98.7179463 L95.8090066,98.7406767 C96.9532893,98.7553683 98.0673572,98.7622983 99.1215498,98.7622983 C102.000552,98.7622983 104.926401,98.7132338 107.819263,98.6159366 L112.073178,98.4731784 L112.073178,125.518777 L99.7441417,125.802907 L99.7441417,130.719609 L100.378376,130.719609 L100.378376,126.195977 L112.073178,125.947052 L112.073178,135.632429 L106.25419,141.664307 L104.55024,141.695353 L104.55024,141.695353 Z" id="path30" fill="#231F20"></path>
                        <path d="M127.472207,108.190434 L127.133192,108.227024 L127.133192,129.417599 L129.814827,129.209976 L129.814827,140.179622 L126.078167,140.525291 C123.334993,140.780038 120.54525,140.996531 117.786276,141.169504 L113.412333,141.443378 L113.412333,130.474009 L115.460843,130.314342 L115.460843,109.236033 L113.412333,109.380455 L113.412333,98.4066503 L117.254883,98.1502401 C122.994592,97.7665949 128.873732,97.1528735 134.727925,96.3257079 L139.419816,95.6637537 L139.419816,111.76604 L127.472207,113.361051 L127.472207,108.190434" id="path32" fill="#231F20"></path>
                        <path d="M77.1828117,140.972415 L73.5961174,140.667218 C72.1701992,140.545804 70.7764362,140.417183 69.4536365,140.28579 L66.4925832,139.993621 L59.042826,106.717392 L57.0425488,106.405264 L57.0425488,95.3452506 L61.7577254,96.0390828 C63.8808023,96.3512103 66.0407468,96.6406074 68.1774065,96.8992353 L71.6016614,97.3144813 L71.6016614,104.559942 L71.7735256,104.577406 L71.7735256,97.3352713 L71.7984736,97.3383205 L76.0931374,97.7344397 C78.3575864,97.9379047 80.6647242,98.1136497 82.9496861,98.2569622 L86.8080366,98.498958 L86.8080366,109.509907 L84.2084525,109.346082 L77.1828117,140.972415" id="path34" fill="#231F20"></path>
                        <path d="M5.90176007,124.941646 L4.30397772,124.409699 L4.30397772,116.53139 L6.24654177,117.188632 L6.24654177,91.0874544 L4.30397772,90.3573089 L4.30397772,82.4559924 L7.47487161,83.670684 C9.92432408,84.6084525 12.4087315,85.5168378 14.858572,86.3692286 L16.4269435,86.9150359 L16.4269435,94.7376276 L14.4641161,94.0510025 L14.4641161,103.09383 L20.9238526,105.188078 L20.9238526,112.961605 L14.4641161,110.867357 L14.4641161,119.841993 L18.6166038,121.080524 L18.6166038,118.616768 L26.751018,121.132083 L26.751018,131.048368 L23.8204845,130.276643 C17.8202906,128.697155 11.79185,126.901729 5.90176007,124.941646" id="path36" fill="#B4131D"></path>
                        <path d="M145.113233,136.383919 L142.41552,136.807758 L142.41552,129.281771 L144.462644,128.950239 L144.462644,104.026886 L142.41552,104.385029 L142.41552,96.9078285 L144.341784,96.5649318 C150.242269,95.5146199 156.168534,94.2422707 161.955367,92.7833657 L164.861812,92.0512798 L164.861812,104.827995 L156.728201,106.781425 L156.728201,101.574772 L152.576296,102.477891 L152.576296,111.288424 L157.728894,110.25918 L157.728894,117.814827 L152.576296,118.826331 L152.576296,127.506303 L156.728201,126.705194 L156.728201,121.721133 L164.861812,119.944834 L164.861812,132.592651 L163.031735,132.997363 C157.125984,134.305471 151.096878,135.44421 145.113233,136.383919" id="path38" fill="#B4131D"></path>
                        <path d="M183.734438,110.871238 L179.834784,112.084266 L179.834784,120.982118 L182.23811,120.264169 L183.734438,118.57297 L183.734438,110.871238 Z M192.081215,91.0070663 L188.516142,104.470961 L191.867493,106.688563 L191.867493,120.694938 L187.388492,126.492305 L186.684126,126.71157 C182.077612,128.144141 177.335824,129.488839 172.591264,130.708243 L169.674008,131.456961 L169.674008,123.796255 L171.616628,123.281217 L171.616628,97.8350634 L169.674008,98.4230052 L169.674008,90.7151744 L171.353287,90.2225896 C173.634646,89.5534281 175.92931,88.846013 178.172414,88.1189167 L181.227993,87.129589 L181.227993,94.8576553 L179.834784,95.2920281 L179.834784,104.306304 L180.046011,104.241439 L182.825775,93.7020074 L182.825775,86.567704 L184.384749,86.0180159 C186.54109,85.2573783 188.715726,84.4571011 190.848505,83.6396375 L194.020508,82.4232828 L194.020508,90.291058 L192.081215,91.0070663 L192.081215,91.0070663 Z" id="path40" fill="#B4131D"></path>
                        <path d="M45.6121957,102.493968 L41.7128195,101.631044 L41.7128195,126.779484 L44.3939005,127.402353 L44.3939005,134.920302 L41.605543,134.370059 C38.8820503,133.831459 36.1108792,133.242131 33.3699229,132.618708 L31.5523208,132.20457 L31.5523208,124.372 L33.6002764,124.902007 L33.6002764,99.721134 L31.5523208,99.1681195 L31.5523208,91.5609125 L34.475952,92.3212728 C40.2577953,93.8231439 46.1837826,95.1403996 52.08898,96.235895 L53.999167,96.5896026 L53.999167,109.220787 L45.6121957,107.616075 L45.6121957,102.493968" id="path42" fill="#B4131D"></path>
                        <path d="M104.517808,139.914619 C102.681356,139.947883 100.839083,139.965069 99.0453198,139.965069 C98.0415776,139.965069 96.9851674,139.958971 95.8156594,139.946774 L94.9075513,139.936795 L89.8303512,135.186414 L89.8303512,105.672069 L94.7711688,100.507828 L95.785999,100.520025 C96.9377661,100.535271 98.06015,100.542756 99.1215498,100.542756 C102.016907,100.542756 104.963268,100.493137 107.878861,100.395008 L110.292721,100.314065 L110.292721,123.778514 L99.9670107,124.016075 L99.9670107,116.610392 L102.15911,116.561605 L102.15911,107.95315 L98.1998589,107.95315 L97.9636843,108.188771 L97.9636843,132.322381 L98.1535665,132.499234 L102.061813,132.499234 L102.15911,132.398888 L102.15911,127.938458 L110.292721,127.765763 L110.292721,134.913649 L105.484405,139.897155 L104.517808,139.914619" id="path44" fill="#B4131D"></path>
                        <path d="M129.252665,106.206789 L125.353011,106.628688 L125.353011,131.341092 L128.034092,131.133469 L128.034092,138.55606 L125.913788,138.752041 C123.188355,139.005125 120.416075,139.220232 117.675396,139.391819 L115.193067,139.547051 L115.193067,132.120579 L117.2413,131.960634 L117.2413,107.325292 L115.193067,107.469713 L115.193067,100.071792 L117.373247,99.9265394 C123.151764,99.5401223 129.074702,98.92252 134.977128,98.0884244 L137.639359,97.7125409 L137.639359,110.207066 L129.252665,111.326678 L129.252665,106.206789" id="path46" fill="#B4131D"></path>
                        <path d="M70.7381826,113.630212 L71.9270945,118.937211 L73.051696,113.866387 L70.7381826,113.630212 Z M75.7823959,139.066109 L73.7471915,138.892859 C72.3780994,138.776157 70.9923752,138.6492 69.6288271,138.513649 L67.9487162,138.347606 L60.5153138,105.144557 L58.8232834,104.880663 L58.8232834,97.406789 L61.4988204,97.8006906 C63.6218972,98.1122637 65.7965334,98.4041555 67.9631307,98.6666642 L70.0180163,98.9158672 L70.0180163,106.070406 C70.748439,106.144141 71.5359649,106.223698 72.3143433,106.302146 L73.3898804,106.410808 L73.3898804,99.2792768 L75.9340244,99.5071354 C78.2187091,99.7125408 80.5410929,99.8893946 82.8379744,100.033816 L85.0273021,100.170753 L85.0273021,107.613026 L82.8005523,107.47304 L75.7823959,139.066109 L75.7823959,139.066109 Z" id="path48" fill="#B4131D"></path>
                        <path d="M6.63991667,122.725153 L6.63991667,119.78877 L8.58195405,120.446567 L8.58195405,89.470268 L6.63991667,88.7401225 L6.63991667,85.8514185 C9.10547448,86.7963942 11.5898819,87.7045023 14.0913094,88.5751884 L14.0913094,91.4464288 L12.1282603,90.7600809 L12.1282603,104.791959 L18.5879136,106.886484 L18.5879136,109.748577 L12.1282603,107.654329 L12.1282603,121.582811 L20.9524319,124.214827 L20.9524319,121.784058 L24.4148573,122.854883 L24.4148573,128.017738 C18.4121686,126.437696 12.4849616,124.671376 6.63991667,122.725153" id="path50" fill="#FAB41D"></path>
                        <path d="M162.526399,122.846012 L162.526399,130.717391 C156.665,132.014688 150.738735,133.136795 144.750932,134.076227 L144.750932,131.269851 L146.79861,130.938042 L146.79861,101.247399 L144.750932,101.605541 L144.750932,98.8648624 C150.749823,97.7962554 156.678305,96.5225201 162.526399,95.0486463 L162.526399,102.986553 L159.064722,103.818154 L159.064722,98.6769206 L150.240329,100.595146 L150.240329,114.137211 L155.393482,113.107967 L155.393482,115.892443 L150.240329,116.904224 L150.240329,130.335132 L159.064722,128.633954 L159.064722,123.601937 L162.526399,122.846012" id="path52" fill="#FAB41D"></path>
                        <path d="M177.498817,110.364793 L177.498817,124.117807 L183.545941,122.31157 L186.070127,119.45807 L186.070127,109.513234 L184.33818,108.237281 L177.498817,110.364793 Z M190.134437,89.2360338 L185.82924,105.492998 L189.53125,107.943726 L189.53125,119.897433 L185.990571,124.481217 C181.37879,125.915451 176.716558,127.23631 172.010529,128.446012 L172.010529,125.593067 L173.952317,125.077197 L173.952317,94.6868999 L172.010529,95.2753961 L172.010529,92.4643082 C174.317667,91.7873851 176.612054,91.07997 178.892303,90.3415085 L178.892303,93.1398452 L177.498817,93.5744952 L177.498817,107.464169 L181.97283,106.094245 L186.022449,90.7412313 L185.162296,91.0417164 L185.162296,88.220372 C187.349683,87.4489237 189.52432,86.6492009 191.684818,85.8206493 L191.684818,88.6630608 L190.134437,89.2360338 L190.134437,89.2360338 Z" id="path54" fill="#FAB41D"></path>
                        <path d="M42.0584882,129.257932 L42.0584882,132.078722 C39.3208583,131.537072 36.5979201,130.957169 33.8882874,130.34123 L33.8882874,127.38877 L35.936243,127.918223 L35.936243,97.9320835 L33.8882874,97.3790689 L33.8882874,94.5815638 C39.7352727,96.1006213 45.6634777,97.4189858 51.6634776,98.5322221 L51.6634776,106.395562 L47.9487168,105.684821 L47.9487168,100.617877 L39.3762984,98.7221043 L39.3762984,128.634785 L42.0584882,129.257932" id="path56" fill="#FAB41D"></path>
                        <path d="M95.8406074,137.61053 L92.1657635,134.172692 L92.1657635,106.609284 L95.7560614,102.855715 C96.8765049,102.870129 97.9983343,102.878445 99.1215498,102.878445 C102.078168,102.878445 105.023698,102.828272 107.956477,102.729311 L107.956477,121.496047 L102.3027,121.626331 L102.3027,118.894245 L104.4948,118.845181 L104.4948,105.617184 L97.23243,105.617184 L95.628272,107.221342 L95.628272,133.336379 L97.23243,134.836033 L103.058902,134.836033 L104.4948,133.336379 L104.4948,130.225638 L107.956477,130.151625 L107.956477,133.970336 L104.475396,137.578929 C102.668605,137.611916 100.859596,137.629657 99.0453198,137.629657 C97.9756039,137.629657 96.9072741,137.62245 95.8406074,137.61053" id="path58" fill="#FAB41D"></path>
                        <path d="M125.69868,133.657654 L125.69868,136.426885 C122.96105,136.680246 120.238112,136.890918 117.528479,137.060565 L117.528479,134.281078 L119.576712,134.120856 L119.576712,104.819401 L117.528479,104.963823 L117.528479,102.256685 C123.375742,101.86611 129.303947,101.248508 135.303392,100.401661 L135.303392,108.162714 L131.588631,108.658348 L131.588631,103.60471 L123.016768,104.532222 L123.016768,133.865555 L125.69868,133.657654" id="path60" fill="#FAB41D"></path>
                        <path d="M71.9376281,129.672346 L75.9010376,111.809561 L67.7499637,110.976851 L71.9376281,129.672346 Z M80.9535669,105.016214 L73.9448353,136.56604 C72.5804556,136.449615 71.2182934,136.324598 69.8600121,136.189879 L62.4465681,103.081633 L61.1586956,102.881217 L61.1586956,100.1106 C63.3250157,100.429658 65.4993747,100.720718 67.6823268,100.98489 L67.6823268,103.756893 L66.0972956,103.556477 L67.1107398,108.123906 C69.0644473,108.320995 74.7068588,108.892582 76.5075518,109.073871 L77.4674963,104.742617 L75.7252926,104.578237 L75.7252926,101.833954 C78.0390833,102.041855 80.3614672,102.218708 82.6918898,102.364793 L82.6918898,105.125985 L80.9535669,105.016214 L80.9535669,105.016214 Z" id="path62" fill="#FAB41D"></path>
                        <polyline id="path64" fill="#FCD784" points="12.0944973 106.355922 17.9785997 108.26306 17.9785997 108.910323 12.0944973 107.002354 12.0944973 106.355922"></polyline>
                        <path d="M7.82528047,121.825084 C13.083631,123.566733 18.4514756,125.172554 23.8056543,126.609837 L23.8056543,127.225776 C18.2605678,125.749685 12.6964099,124.08981 7.24889795,122.28579 L7.24889795,120.638666 L7.82528047,120.833815 L7.82528047,121.825084" id="path66" fill="#FCD784"></path>
                        <path d="M7.82528047,87.8577941 L9.7669852,88.5882168 L9.7669852,120.836033 L9.19112936,120.640884 L9.19112936,89.0483692 L7.24889795,88.3185009 L7.24889795,86.7359646 C7.44044333,86.808591 7.63340244,86.8781683 7.82528047,86.9499632 L7.82528047,87.8577941" id="path68" fill="#FCD784"></path>
                        <polyline id="path70" fill="#FCD784" points="12.0944973 89.4414392 13.4821064 89.9265397 13.4821064 90.5882167 12.0944973 90.1031163 12.0944973 89.4414392"></polyline>
                        <polyline id="path72" fill="#FCD784" points="22.1371581 124.571861 21.5615241 124.400274 21.5615241 122.610669 22.1371581 122.788632 22.1371581 124.571861"></polyline>
                        <path d="M145.973662,132.633677 C151.298402,131.78378 156.652248,130.77394 161.917113,129.629657 L161.917113,130.227578 C156.455159,131.427024 150.891472,132.480662 145.360218,133.36299 L145.360218,131.788493 L145.973662,131.689255 L145.973662,132.633677" id="path74" fill="#FCD784"></path>
                        <polyline id="path76" fill="#FCD784" points="159.673731 97.9209955 150.243655 99.9706143 150.243655 99.3740793 160.286621 97.1911272 160.286621 102.315451 161.917113 101.923767 161.917113 102.506442 159.673731 103.045042 159.673731 97.9209955"></polyline>
                        <polyline id="path78" fill="#FCD784" points="154.783364 115.391265 150.243655 116.283019 150.243655 115.673732 154.783364 114.781702 154.783364 115.391265"></polyline>
                        <path d="M145.973662,100.150794 L148.021064,99.7926517 L148.021064,130.726539 L147.408174,130.826054 L147.408174,100.521966 L145.360218,100.880386 L145.360218,99.3740793 C145.564792,99.3372117 145.769089,99.2981264 145.973662,99.2612588 L145.973662,100.150794" id="path80" fill="#FCD784"></path>
                        <polyline id="path82" fill="#FCD784" points="159.673731 124.092305 160.286621 123.958417 160.286621 128.407204 159.673731 128.525569 159.673731 124.092305"></polyline>
                        <polyline id="path84" fill="#FCD784" points="177.502698 92.309076 178.282463 92.0659714 178.282463 92.6913352 177.502698 92.934717 177.502698 92.309076"></polyline>
                        <polyline id="path86" fill="#FCD784" points="187.292026 108.387523 187.292026 118.871237 186.678582 119.564793 186.678582 109.205818 184.451555 107.563684 177.502698 109.725569 177.502698 109.099651 185.064999 106.74622 187.292026 108.387523"></polyline>
                        <polyline id="path88" fill="#FCD784" points="190.239219 87.9562002 191.076087 87.6476763 191.076087 88.2389444 190.065692 88.6117788 190.239219 87.9562002"></polyline>
                        <path d="M173.232705,126.841577 C177.575048,125.713095 182.088145,124.377544 186.311568,123.068327 L185.626052,123.955922 C181.371028,125.276781 176.999857,126.520579 172.618984,127.65904 L172.618984,126.061535 L173.232705,125.898542 L173.232705,126.841577" id="path90" fill="#FCD784"></path>
                        <path d="M173.232705,93.6365881 L175.174493,93.0483691 L175.174493,124.728479 L174.561326,124.891473 L174.561326,93.8658327 L172.618984,94.4537745 L172.618984,92.9197482 C172.823558,92.8593185 173.027854,92.7955625 173.232705,92.7348556 L173.232705,93.6365881" id="path92" fill="#FCD784"></path>
                        <path d="M185.770751,88.6514184 C185.975047,88.578792 186.179898,88.5031163 186.384472,88.4299354 L186.384472,89.3663179 L187.823973,88.7941766 L183.395699,105.583643 L182.676641,105.813996 L186.903945,89.7882167 L185.770751,90.1843359 L185.770751,88.6514184" id="path94" fill="#FCD784"></path>
                        <polyline id="path96" fill="#FCD784" points="39.3801792 97.4666642 49.1708927 99.6321527 49.1708927 104.684682 51.0539142 105.045597 51.0539142 105.658764 48.5574485 105.180871 48.5574485 100.129173 39.3801792 98.0986808 39.3801792 97.4666642"></polyline>
                        <path d="M35.1104634,129.358278 C37.2207891,129.835063 39.3444204,130.286067 41.449202,130.712956 L41.449202,131.335825 C39.1448362,130.874286 36.8119187,130.377266 34.4975736,129.854189 L34.4975736,128.175465 L35.1104634,128.334023 L35.1104634,129.358278" id="path98" fill="#FCD784"></path>
                        <path d="M35.1104634,96.4163524 L37.1578646,96.9690897 L37.1578646,128.208729 L36.5455292,128.050724 L36.5455292,97.4658326 L34.4975736,96.9122637 L34.4975736,95.367981 C34.701593,95.4200946 34.906444,95.4705451 35.1104634,95.5223815 L35.1104634,96.4163524" id="path100" fill="#FCD784"></path>
                        <polyline id="path102" fill="#FCD784" points="105.103532 118.8413 105.103532 105.008175 96.9799006 105.008175 97.5930676 104.395008 105.716699 104.395008 105.716699 118.827994 105.103532 118.8413"></polyline>
                        <polyline id="path104" fill="#FCD784" points="102.911709 119.489949 103.524876 119.475811 103.524876 120.389741 107.347745 120.301868 107.347745 120.900898 102.911709 121.002353 102.911709 119.489949"></polyline>
                        <path d="M93.3879395,133.295631 L96.6968791,136.391126 C97.7621597,136.401383 98.7331923,136.407204 99.658764,136.407204 C101.344973,136.407204 103.07498,136.391681 104.803324,136.361743 L104.212056,136.974633 C102.476505,137.00457 100.739568,137.019816 99.0453198,137.019816 C98.1203025,137.019816 97.1489927,137.014827 96.0837121,137.004293 L92.7750497,133.909075 L92.7750497,106.853497 L93.3879395,106.212887 L93.3879395,133.295631" id="path106" fill="#FCD784"></path>
                        <polyline id="path108" fill="#FCD784" points="105.716699 132.87096 105.103532 133.501591 105.103532 130.821618 105.716699 130.80859 105.716699 132.87096"></polyline>
                        <polyline id="path110" fill="#FCD784" points="123.020926 103.313372 132.811085 102.25419 132.811085 107.290642 134.694383 107.039498 134.694383 107.628826 132.197918 107.962298 132.197918 102.926124 123.020926 103.919055 123.020926 103.313372"></polyline>
                        <path d="M118.75121,103.639083 L120.798888,103.495216 L120.798888,134.013025 L120.185444,134.060981 L120.185444,104.16604 L118.13832,104.310185 L118.13832,102.826054 C118.341785,102.811917 118.546913,102.795562 118.75121,102.780871 L118.75121,103.639083" id="path112" fill="#FCD784"></path>
                        <path d="M118.75121,135.739983 C120.86209,135.602491 122.985444,135.436448 125.089671,135.251001 L125.089671,135.870821 C122.786137,136.078999 120.453219,136.260288 118.13832,136.410807 L118.13832,134.844626 L118.75121,134.79667 L118.75121,135.739983" id="path114" fill="#FCD784"></path>
                        <polyline id="path116" fill="#FCD784" points="81.0846827 103.849755 82.0823264 103.912679 82.0823264 104.476505 80.9610513 104.406096 81.0846827 103.849755"></polyline>
                        <polyline id="path118" fill="#FCD784" points="66.0654176 102.938043 65.9276491 102.317669 67.0730406 102.462645 67.0730406 103.065555 66.0654176 102.938043"></polyline>
                        <polyline id="path120" fill="#FCD784" points="72.5765748 131.805957 72.3259857 130.699373 76.6439343 111.272901 67.7197488 110.361466 67.5836435 109.759387 77.2573785 110.747606 72.5765748 131.805957"></polyline>
                        <path d="M62.3811488,101.833677 L63.5642396,102.018293 L70.9707536,135.100759 C71.840608,135.185582 72.7176697,135.266247 73.5922366,135.343864 L73.4658332,135.912679 C72.4304902,135.822866 71.3884944,135.7264 70.3578638,135.626331 L62.9507954,102.54331 L61.768259,102.358972 L61.768259,100.815798 C61.9711696,100.844904 62.1774066,100.87207 62.3811488,100.900898 L62.3811488,101.833677" id="path122" fill="#FCD784"></path>
                        <path d="M76.9471914,103.498542 L78.8249461,103.674841 L77.5980577,109.209145 L77.11268,109.160358 L78.2115019,104.200968 L76.3345788,104.023282 L76.3345788,102.499512 C76.5380438,102.517253 76.7434492,102.532222 76.9471914,102.549408 L76.9471914,103.498542" id="path124" fill="#FCD784"></path>
                        <path d="M134.736795,74.9294507 C134.88288,75.2498942 135.032845,75.5850293 135.180315,75.9160064 C135.369366,76.3351332 135.547883,76.6372815 135.711154,76.8130265 L138.536656,79.8552995 L134.946636,81.9428947 C133.020925,83.061675 131.132083,83.6770596 129.185582,83.8225897 C127.834785,83.9331926 126.571584,83.7058884 125.440607,83.1650707 L122.563545,83.1650707 L122.563545,92.9571702 L116.883157,87.209977 C114.653081,84.9543984 113.152042,83.5492703 112.148299,82.675535 C112.097849,82.700483 112.04629,82.7243223 111.99473,82.7484387 C110.92446,83.2482308 109.572,83.4411622 107.790434,83.3361033 L106.346775,83.249894 L105.823698,82.615937 C105.550933,82.8293812 105.263476,83.0231441 104.961605,83.1969487 C104.262229,83.6124719 103.540122,83.8289653 102.814135,83.8414393 L104.480385,88.63146 L101.37103,86.7445578 C101.380455,86.8834351 101.393206,87.018986 101.406512,87.148993 L102.039083,93.4827419 L96.4837121,90.3772673 C95.2124716,89.666803 94.3559228,89.1922362 93.7446962,88.8701294 C92.8867614,88.419679 90.9033934,87.0278565 91.0217579,83.8370041 C91.0666644,82.6309058 91.0375584,81.9861379 91.0112243,81.6809404 C90.0232826,82.2566854 89.4530816,82.7318067 89.1273713,83.0683278 L86.8166298,85.4583485 L84.4302127,83.1434491 C83.1063042,81.8594574 82.4923056,81.4780298 82.4931372,81.4780298 C82.0352024,81.2097 81.393761,81.0389446 80.5823958,80.9696445 L80.6455974,81.2105316 C80.6852371,81.3652093 80.7243223,81.5237679 80.7606355,81.684544 C80.8268864,81.8794158 80.9022849,82.1128185 80.989603,82.3855835 L81.0516958,82.5776833 C81.1157291,82.7780991 81.1866924,82.9987505 81.26514,83.2390832 C81.5403999,83.6446272 82.09286,84.3029778 82.3176695,84.5701989 L85.168397,87.960081 L81.1135115,89.7441419 C80.1086605,90.1865535 79.1523196,90.5643775 78.1898802,90.897295 L78.1225206,90.9203026 C76.6874548,91.3832271 75.4217583,91.6077593 74.2539136,91.6077593 C72.0523891,91.6077593 69.9340246,90.7850289 67.948439,89.1559229 C66.3675659,87.8450428 64.8629228,85.7216888 63.3510726,82.665833 C62.8970185,81.8070666 62.6672195,80.8701296 62.6672195,79.8813563 C62.6672195,78.0274409 63.415383,76.3683973 64.8252236,75.0844056 C63.3507954,73.2931375 62.9358266,72.4654175 62.7284808,71.8444888 L62.7121259,71.79487 C62.4487857,70.9499636 62.3151752,70.0842671 62.3151752,69.2227287 C62.3151752,67.4827426 62.8144128,66.0177392 63.7995826,64.867358 C65.6903656,62.5760206 68.1363808,61.3652098 70.8765055,61.3652098 C72.9466371,61.3652098 74.9690903,62.2067899 76.8970182,63.8749811 C77.3613286,64.2816339 77.8248075,64.7243227 78.2860687,65.1999984 C78.8454589,64.164101 79.6232828,63.4929991 80.3340243,63.0605667 L84.476228,60.6037407 L86.9665952,62.7783768 L90.7329153,60.5258474 L93.370753,63.2279956 C93.7912658,63.0040178 94.2636151,62.749548 94.7886324,62.4665265 L98.2727626,60.5929299 L100.625361,63.2252236 C101.443379,62.8221745 102.293553,62.3451128 103.166733,61.7993055 L105.521827,60.3268176 L107.946498,63.0040178 C108.698542,62.4360345 109.453913,61.9825348 110.237003,61.6271641 L112.618431,60.5444198 L114.227579,62.607067 C114.385583,62.8088688 114.546082,63.0145514 114.707967,63.2196796 C115.079415,63.0417171 115.584197,62.7927912 116.265832,62.4449049 C117.640745,61.7275106 118.564931,61.4353415 119.454744,61.4353415 C120.243379,61.4353415 121.00762,61.6534981 121.725569,62.0842673 L122.115312,62.3182244 L122.390849,62.609839 C123.510461,61.899652 124.805541,61.4749811 126.173247,61.373803 C127.697294,61.2612597 129.034785,61.4705459 130.14719,61.9939 C131.133191,62.4548841 132.049616,63.1916824 132.922519,64.2156602 C135.006788,66.5685361 136.134716,68.5014536 136.4729,70.3068589 L136.483157,70.3656254 C136.775603,72.1205803 136.134162,73.7616059 134.736795,74.9294507" id="path126" fill="#231F20"></path>
                        <path d="M69.6875935,71.5304209 C69.488841,72.001107 69.4214813,72.434371 69.4852373,72.820511 L69.4913358,72.8601506 C69.5118486,73.0103932 69.577545,73.1797626 69.6823267,73.3510723 L70.0218971,73.9057501 C70.58101,73.5417861 71.1994438,73.1467757 71.8796933,72.7187785 C74.3179469,71.1994438 75.3031166,70.3506566 75.5054728,70.0906427 C75.5739413,69.9495478 75.5897417,69.8993746 75.5922365,69.8918901 C75.5922365,69.7918208 75.5922365,69.6413011 75.2806634,69.4275797 L75.2401922,69.3981965 C74.892583,69.1376282 74.4429642,69.0109477 73.8666648,69.0109477 C72.9372123,69.0109477 71.9722782,69.3474688 70.9153135,70.0421327 C70.3381826,70.4185707 69.9600814,70.8759511 69.6875935,71.5304209 Z M100.006928,76.6954936 C100.142201,76.6034631 100.319332,76.3952857 100.495632,76.0346481 L100.464031,69.3325 L100.310739,69.2889796 C100.206789,69.3150364 99.9797619,69.3887717 99.5670107,69.584475 C99.3588333,69.6942464 99.2174611,69.778238 99.1209954,69.8392221 L99.1209954,76.7537056 L99.4042941,76.7537056 C99.5229358,76.7537056 99.7358256,76.7373508 100.006928,76.6954936 L100.006928,76.6954936 Z M122.411085,76.7589724 C121.914065,75.8106703 121.672901,75.0023543 121.672901,74.289118 C121.672901,73.3857224 122.092859,72.5652096 122.859872,71.9753274 C122.99875,71.8694369 123.148438,71.7610516 123.311709,71.6493399 C123.306442,71.6443503 123.302284,71.6382518 123.297849,71.6327078 C123.084959,71.3801784 122.849893,71.0990973 122.593483,70.7875242 C122.142478,70.2594577 121.818154,69.6881479 121.619401,69.0960482 L120.508105,69.6607051 L120.508105,77.6332621 L122.904501,77.6332621 C122.727093,77.3433106 122.562436,77.0522503 122.411085,76.7589724 L122.411085,76.7589724 Z M114.106719,69.0730405 C114.061536,69.0783074 113.942894,69.1043642 113.766595,69.1847523 C113.263476,69.4106705 112.92945,69.6781687 112.908937,69.8727633 C112.881771,71.2637543 112.865971,73.7150363 112.944419,77.5212732 C112.945527,77.559804 112.943587,77.5952857 112.943864,77.6332621 L114.426886,77.6332621 L114.426886,69.3995825 C114.426886,69.307552 114.414689,69.2116407 114.397225,69.1148978 L114.106719,69.0730405 Z M106.899235,75.4852372 C106.899235,74.1108783 106.899235,72.1410931 106.877059,69.4921674 C106.729311,69.5645166 106.621203,69.6246691 106.542755,69.6709615 L106.542755,75.9919593 C106.698819,75.9614673 106.798889,75.91961 106.848785,75.8771984 L106.849893,75.8769212 C106.863199,75.8453203 106.899235,75.7358262 106.899235,75.4852372 Z M91.8394987,69.4844057 L91.8394987,76.4354797 C91.8394987,76.4601505 91.897988,76.6040175 92.1854447,76.8712385 L92.9072742,77.5412316 C92.9920975,77.0788616 93.0397759,76.6328463 93.0397759,76.2234215 L93.0397759,69.0478153 C93.0397759,69.0281341 93.0361723,69.0067897 93.0342319,68.9862769 C92.5857219,69.1445582 92.1890483,69.3097696 91.8394987,69.4844057 L91.8394987,69.4844057 Z M85.8286881,69.1063046 C85.578099,69.2618139 85.578099,69.372694 85.578099,69.4342325 L85.578099,75.7543987 C85.6751191,75.6878706 85.76909,75.6266093 85.8600117,75.5692289 L85.8286881,69.1063046 Z M84.7067602,76.718224 C84.7057602,76.718224 84.7057602,76.718224 84.7007602,76.718224 L84.7007602,77.501592 C84.7007602,77.501592 84.7007602,77.501592 84.7057602,77.501592 L84.7067602,76.718224 Z M133.068881,73.5725553 C132.77394,73.7837819 132.445735,74.001107 132.087315,74.2261936 L132.246705,74.5458055 C132.530281,75.118224 132.908659,75.9570321 133.274009,76.7744957 C133.564238,77.4198179 133.851972,77.8841283 134.179622,78.2367271 L135.225499,79.3635462 L133.896047,80.1366577 C132.250309,81.0927215 130.65114,81.618016 129.016213,81.7405385 C127.353289,81.8758122 125.878029,81.3111553 124.763406,80.1025621 C124.308521,79.5936224 123.903531,79.0891179 123.539567,78.5843362 L124.785305,81.0758122 L120.472623,81.0758122 L120.472623,87.8691593 L118.370337,85.7416472 C115.567287,82.9069972 113.494938,80.9846134 112.202353,80.0202336 C111.845319,80.4534976 111.428687,80.7107395 111.110184,80.855438 C110.507828,81.1367963 109.712818,81.273456 108.679415,81.273456 C108.437419,81.273456 108.180732,81.2662488 107.914897,81.2504484 L107.379623,81.2182932 L107.03839,80.8049876 C106.612333,80.2871775 106.210947,79.8439342 105.836726,79.4749807 C105.351072,80.2929987 104.701037,80.9369349 103.894661,81.400691 C103.497156,81.6368656 103.122381,81.7521809 102.748715,81.7521809 C102.327371,81.7521809 101.933747,81.5977804 101.632707,81.3153133 C101.134301,80.8767825 100.315451,80.2225898 99.1941763,79.3668726 C99.2526656,79.8106702 99.3438645,80.2267478 99.4749802,80.6042946 L100.596532,83.8306285 L99.1606351,82.9588337 C99.2385284,83.3083832 99.2734556,83.6856528 99.2612588,84.088702 L99.2612588,86.2492009 C99.2612588,86.6608433 99.2945228,87.0408849 99.3261236,87.3582792 L99.5606351,89.7033935 L97.5032547,88.5535667 C96.2145506,87.8339548 95.345805,87.3519036 94.7162831,87.0200948 C94.0859297,86.6891177 93.0394987,85.8442113 93.110462,83.9162834 C93.2008293,81.5334699 93.0234211,80.9574477 92.9865535,80.866526 L92.6342319,79.9844748 L92.4088681,79.4220354 L92.1433102,78.7578636 L91.8677732,78.8862073 C89.9334697,79.786831 88.5053339,80.7057499 87.6243914,81.6163528 L86.7692286,82.501176 L85.8855141,81.6440728 C84.4612591,80.2630611 83.7305592,79.784059 83.5512107,79.6762281 C82.7201643,79.1883556 81.662368,78.9208573 80.3165607,78.8593189 L76.9926523,78.7038095 L79.4963251,76.7559232 C79.5259855,76.6514187 79.5758816,76.4022157 79.594454,75.9118484 C79.220788,76.3406772 78.7595268,76.7675656 78.2078983,77.1952857 L78.1776834,77.2171845 C77.6645857,77.5908505 76.2791388,78.4507257 74.5610515,79.4644471 C72.575466,80.6336778 71.2795547,81.4738718 70.5993052,82.0296584 L70.5801784,82.0449044 C69.7347176,82.7093534 69.5969491,83.088009 69.5764362,83.1720007 C69.5828118,83.1828115 69.5911279,83.1980575 69.6052651,83.2191247 C69.952597,83.6268863 70.5072747,83.8245301 71.2984043,83.8245301 C71.7336087,83.8245301 72.1344403,83.7871081 72.5252927,83.7092148 C73.1667341,83.5675655 73.9423405,83.2723472 74.8460134,82.8202335 C75.3740799,82.5660409 75.6698526,82.3664567 75.8256391,82.242271 L75.7521811,81.6163528 L78.2098387,80.1557846 L78.6217583,81.7372121 C78.6652787,81.9051955 78.7071359,82.0792772 78.7451124,82.254745 C78.8230057,82.4751192 78.9133729,82.7592495 79.0250846,83.1068586 C79.1198871,83.4017997 79.2299356,83.7466369 79.3588338,84.1347172 C79.6252232,84.5959785 80.1668726,85.2609819 80.7173923,85.9168378 L81.7721393,87.1708918 L80.2708227,87.8320144 C79.3103237,88.255022 78.4052648,88.6112244 77.5046412,88.9236291 L77.4805247,88.9316679 C76.2555767,89.3266783 75.2002753,89.5187781 74.2539136,89.5187781 C72.5494091,89.5187781 70.8784459,88.857101 69.2828812,87.547607 C67.9282034,86.4246687 66.5962561,84.516422 65.2113636,81.7130957 C64.9103241,81.1517651 64.7575867,80.5361033 64.7575867,79.8821879 C64.7575867,78.6109474 65.260428,77.5115712 66.2483698,76.6176003 C66.6067897,76.2913356 67.1287579,75.8841284 67.8356185,75.3812871 L67.4691598,74.9641007 C65.0552998,72.2145512 64.8083144,71.4735949 64.7151751,71.195563 L64.7082451,71.1736642 C64.5081065,70.5325 64.4058196,69.8766441 64.4058196,69.2241147 C64.4058196,67.9900191 64.7401231,66.9774065 65.3993054,66.2145514 C66.8814952,64.410532 68.7750503,63.4569631 70.8765055,63.4569631 C72.4293814,63.4569631 73.9900189,64.1255701 75.5198872,65.4492014 C76.8978498,66.6552998 78.2674963,68.2070669 79.6019384,70.0673579 L79.6019384,68.5901577 C79.6019384,66.8415784 80.203463,65.5886331 81.4004138,64.860428 L84.2411621,63.1753276 L86.7359646,65.3532901 L90.3900185,63.1683976 L92.9574474,65.7984738 C93.6590413,65.451419 94.6056802,64.9410933 95.7807322,64.3076907 C96.1502401,64.1086609 96.5419241,63.8963255 96.9585561,63.6737337 L97.8117786,63.2149672 L100.088424,65.7632693 L100.1641,65.7319457 C101.461397,65.1933456 102.844904,64.4670809 104.275257,63.57311 L105.146775,63.0281343 L106.410808,64.4235604 C106.88288,64.9452513 107.340261,65.4492014 107.785167,65.9381827 C108.004155,65.6920288 108.261674,65.4447662 108.559665,65.1947316 C109.40762,64.4679125 110.239221,63.9232139 111.102146,63.5318071 L111.98392,63.1306984 L112.5799,63.8943851 C113.057239,64.5064433 113.56507,65.1503795 114.037142,65.7272333 L114.288285,65.6690212 C114.505056,65.6196796 115.192236,65.3399845 117.23243,64.2999291 C118.538043,63.618848 119.088285,63.5270947 119.454744,63.5270947 C119.865278,63.5270947 120.255853,63.6421329 120.6492,63.8771987 L120.793621,63.9639624 L120.908659,64.0853761 C121.270129,64.4659721 121.720579,64.9247385 122.248646,65.4564086 C122.474564,65.1858612 122.756199,64.9166997 123.106303,64.6580718 C124.018569,63.9628536 125.133192,63.5487164 126.328479,63.4600123 C126.547745,63.4442119 126.763406,63.4356186 126.968257,63.4356186 C127.850309,63.4356186 128.623143,63.5880788 129.261258,63.8885639 C129.970614,64.2200954 130.656684,64.7808716 131.357724,65.6038792 C133.155367,67.6324307 134.15606,69.2953552 134.416629,70.6855145 L134.421064,70.7101853 C134.528895,71.3577252 134.496462,72.5898804 133.068881,73.5725553 L133.068881,73.5725553 Z" id="path128" fill="#B4131D"></path>
                        <path d="M77.4544679,76.2234215 C77.0677735,76.5058886 75.9063044,77.2440729 73.9370737,78.4052648 C71.9672886,79.5659024 70.5951472,80.4449044 69.8209269,81.0788615 C68.8363115,81.8525274 68.3434494,82.5557845 68.3434494,83.1891871 C68.3434494,83.469991 68.4493399,83.7166992 68.6248077,83.9631303 C69.2230059,84.7015918 70.1374896,85.0533589 71.2984043,85.0533589 C71.7555076,85.0533589 72.2480924,85.0181545 72.7756046,84.9130956 C73.5847521,84.7367962 74.4643086,84.3847519 75.3790695,83.928203 C76.3284804,83.469991 76.8565469,83.0483694 77.0322919,82.7318067 C77.0805248,82.6358954 77.090504,82.4784456 77.0655559,82.2655558 L77.4331235,82.047122 C77.4785843,82.2231442 77.520996,82.4038787 77.5600812,82.5912661 C77.700899,82.9776833 77.9121256,83.6812176 78.2286883,84.6317373 C78.5097693,85.158695 79.0370043,85.8278565 79.7765746,86.7071357 C78.8970181,87.0932757 78.0169073,87.4453201 77.102978,87.7629916 C76.0127493,88.1139271 75.0622296,88.2905037 74.2539136,88.2905037 C72.8465678,88.2905037 71.4397765,87.7266783 70.0676351,86.6006908 C68.8363115,85.580871 67.6049879,83.7871081 66.3029782,81.1489931 C66.092306,80.7622987 65.9864155,80.3390139 65.9864155,79.8821879 C65.9864155,78.9679814 66.3376283,78.1943154 67.0769214,77.5254312 C67.8866234,76.7864153 69.6803863,75.5553689 72.5300051,73.7613287 C74.9568935,72.2494784 76.2935532,71.1938998 76.5754659,70.7010377 C76.7160064,70.4202339 76.8210653,70.1735256 76.8210653,69.8918901 C76.8210653,69.2939692 76.5402614,68.8019387 75.9772677,68.4144127 C75.4145511,67.9927911 74.711294,67.7812873 73.8666648,67.7812873 C72.6702685,67.7812873 71.4747037,68.2042949 70.2431029,69.0126109 C69.4345097,69.540123 68.9064432,70.2084529 68.554676,71.0530821 C68.2733178,71.7214119 68.1682589,72.390019 68.2733178,73.02259 C68.3176698,73.3510723 68.4435187,73.6803862 68.6334009,73.9922365 L68.3925139,74.1532899 C66.8828812,72.4340938 66.0454592,71.2986815 65.8816338,70.806651 C65.7053345,70.2442117 65.6349256,69.7161452 65.6349256,69.2241147 C65.6349256,68.344281 65.8467066,67.5700607 66.3376283,67.0073441 C67.6049879,65.459735 69.152597,64.6855147 70.8765055,64.6855147 C72.1075519,64.6855147 73.4092844,65.24934 74.711294,66.3744959 C76.1180854,67.6055423 77.525154,69.2241147 78.8970181,71.1938998 C79.3543986,71.8625069 79.565348,72.4950779 79.565348,73.0932761 C79.565348,74.1139275 78.8620909,75.1331929 77.4544679,76.2234215" id="path130" fill="#FAB41D"></path>
                        <path d="M84.8060963,77.91268 C84.7714463,77.94733 84.7359646,77.94733 84.7007602,77.94733 C84.4546063,77.94733 84.3492702,77.8067895 84.3492702,77.490504 L84.3492702,69.4342325 C84.3492702,68.8371431 84.6655557,68.344281 85.2986812,67.9927911 L86.3539826,67.4297973 C86.8119174,67.6055423 87.0577941,68.1333316 87.0577941,69.0478153 L87.0929985,76.2943848 C86.5300048,76.5405386 85.7560616,77.1035324 84.8060963,77.91268 Z M82.0274408,65.9173927 C81.2182932,66.4099775 80.8315988,67.289534 80.8315988,68.5901577 L80.8315988,75.5204416 C80.8315988,76.6819108 80.6907811,77.3846134 80.3739412,77.6310445 C81.8863458,77.7011762 83.1531511,78.0182933 84.1732481,78.6164915 C84.7007602,78.9330542 85.5805938,79.6365884 86.7409542,80.7622987 C87.7610512,79.7067201 89.3094919,78.7221048 91.3491315,77.771585 C90.8565466,77.314759 90.6109471,76.892583 90.6109471,76.4354797 L90.6109471,68.766457 C91.2787226,68.344281 92.0884246,67.9927911 93.0727627,67.675674 L90.1882167,64.7209963 L86.6006908,66.8668036 L84.1022848,64.6855147 L82.0274408,65.9173927 L82.0274408,65.9173927 Z" id="path132" fill="#FAB41D"></path>
                        <path d="M94.3392908,83.9631303 C94.3035319,84.9130956 94.6206491,85.580871 95.2887017,85.9329154 C95.9573088,86.2844053 96.9072741,86.8124718 98.1025617,87.4808017 C98.0676344,87.129589 98.03243,86.7071357 98.03243,86.2492009 C98.03243,85.0533589 98.03243,84.3146202 98.03243,84.0687436 C98.0676344,83.0483694 97.7155901,82.3099079 97.0126102,81.9226591 C96.4141348,81.6765052 95.4650011,81.1489931 94.127787,80.4099772 C94.3392908,80.9374893 94.4094224,82.0986812 94.3392908,83.9631303 Z M100.494523,68.0629228 L97.5401223,64.7559235 C95.6404688,65.7760205 94.2334003,66.5505181 93.2837122,67.0073441 C93.952042,67.7458057 94.2686047,68.4144127 94.2686047,69.0478153 L94.2686047,76.2234215 C94.2686047,77.0328463 94.127787,77.94733 93.8464287,78.8975725 C94.6910579,79.0029086 96.1685354,79.7067201 98.3137883,81.0081754 C98.03243,80.1990278 97.8921666,79.2842669 97.8921666,78.2641699 L97.8921666,69.3995825 C97.9262623,69.1534286 98.278861,68.8717932 99.0175997,68.4845444 C99.7563385,68.1333316 100.248646,67.9927911 100.494523,68.0629228 L100.494523,68.0629228 Z" id="path134" fill="#FAB41D"></path>
                        <path d="M99.4042941,77.9825344 C100.846844,79.0733175 101.866664,79.8821879 102.464585,80.4099772 C102.639776,80.5859994 102.921688,80.5513493 103.273733,80.3390139 C104.258902,79.7768518 104.961605,78.8623681 105.349131,77.490504 C106.122797,77.9825344 107.002631,78.8271637 107.986969,80.02356 C109.18392,80.0934145 110.062645,79.9880784 110.589879,79.7413701 C111.364377,79.3898802 111.751349,78.6514187 111.716144,77.5609128 C111.645181,74.1485775 111.645181,71.5800398 111.68094,69.8223129 C111.716144,69.1176698 112.243656,68.5197488 113.26403,68.0629228 C113.650725,67.8869006 114.002215,67.8159373 114.248646,67.8525278 C113.615798,67.1836435 112.736241,66.0931376 111.610531,64.6505874 C110.837142,65.0026318 110.097572,65.4949395 109.359387,66.1283421 C108.480385,66.8668036 108.092859,67.5002062 108.092859,67.9927911 C108.127787,71.4042948 108.127787,73.9021465 108.127787,75.4852372 C108.127787,76.082881 107.986969,76.5405386 107.635479,76.8218969 C107.21358,77.173664 106.544973,77.314759 105.595008,77.2440729 C105.419817,77.2440729 105.313649,77.1384596 105.313649,76.9981963 L105.313649,69.2595963 C105.313649,68.8717932 106.158002,68.3789311 107.810947,67.7812873 C106.89674,66.7961175 105.947329,65.7410933 104.926678,64.6159374 C103.519332,65.4949395 102.077336,66.2686054 100.635341,66.8668036 C101.339152,67.4650018 101.690919,68.1688133 101.690919,68.907552 L101.725292,76.2943848 C101.374356,77.1384596 100.916144,77.6665261 100.388909,77.8777527 C100.002215,77.94733 99.6501708,77.9825344 99.4042941,77.9825344" id="path136" fill="#FAB41D"></path>
                        <path d="M114.564931,66.8668036 C115.233261,67.675674 115.655437,68.5197488 115.655437,69.3995825 L115.655437,78.8623681 L112.700482,78.8623681 C114.037419,79.8120562 116.218154,81.817323 119.24324,84.8778912 L119.24324,79.8467063 L122.796671,79.8467063 L122.303808,78.8623681 L119.278722,78.8623681 L119.278722,68.907552 L121.354398,67.8525278 C121.600829,67.7111556 122.093136,67.675674 122.831598,67.7812873 C121.63631,66.5854453 120.686345,65.6357572 120.017461,64.9316685 C119.841716,64.8266096 119.666248,64.7559235 119.454744,64.7559235 C119.173109,64.7559235 118.611224,64.9671501 117.801522,65.3896034 C116.077613,66.2686054 115.022312,66.7609131 114.564931,66.8668036" id="path138" fill="#FAB41D"></path>
                        <path d="M132.364238,72.5652096 C131.626054,73.0932761 130.640607,73.6909198 129.374633,74.3598041 C127.474702,75.3441423 126.454328,75.872486 126.278583,75.9780993 C125.505194,76.4354797 125.117391,76.8218969 125.117391,77.1384596 C125.117391,77.6665261 125.539844,77.91268 126.383642,77.91268 C126.982117,77.91268 127.721133,77.7374894 128.635063,77.3496862 C129.795977,76.8568241 130.534162,76.3653481 130.851833,75.872486 C130.922242,75.7668727 130.957724,75.6266093 130.957724,75.4505872 C130.957724,75.3754659 130.944972,75.2942462 130.92141,75.2080369 C130.993483,75.1706149 131.067772,75.1323613 131.145111,75.0924444 C131.397363,75.6002753 131.728618,76.3290348 132.153288,77.2790001 C132.470128,77.9825344 132.821341,78.5807326 133.278444,79.0733175 C131.766317,79.952874 130.324044,80.4099772 128.91753,80.5164221 C127.614966,80.6209266 126.524737,80.1990278 125.680939,79.2842669 C124.801937,78.2993743 124.062367,77.2790001 123.499373,76.1882171 C123.112679,75.4505872 122.901452,74.8166301 122.901452,74.289118 C122.901452,73.7613287 123.14816,73.3042255 123.604987,72.9519039 C124.34428,72.390019 125.434785,71.7568936 126.876504,70.9826732 C128.319332,70.2084529 129.339429,69.6110863 129.937627,69.1534286 C130.429103,68.8019387 130.676088,68.4845444 130.676088,68.2389449 C130.676088,67.7111556 130.183503,67.4297973 129.162852,67.4297973 C128.284127,67.4297973 127.404571,67.7458057 126.454328,68.344281 C125.012055,69.2939692 124.37893,70.1028396 124.589602,70.7708922 C124.624806,70.8925831 124.686068,71.014274 124.767287,71.1437266 C124.705472,71.1769906 124.639775,71.2124722 124.577128,71.2462907 C124.288285,70.8989587 123.936241,70.4856531 123.534855,69.9980578 C122.901452,69.2595963 122.620648,68.4845444 122.620648,67.7458057 C122.620648,66.9374897 123.04227,66.2342326 123.851418,65.6357572 C124.589602,65.0733178 125.469436,64.7559235 126.419401,64.6855147 C127.369089,64.6159374 128.142755,64.7209963 128.740953,65.0026318 C129.268742,65.24934 129.831736,65.7058889 130.429103,66.4099775 C132.083157,68.2741494 132.99764,69.7868312 133.209144,70.9119871 C133.31448,71.5453898 133.032845,72.1078291 132.364238,72.5652096" id="path140" fill="#FAB41D"></path>
                        <path d="M71.814274,85.8569625 C72.8194022,86.5355488 73.8342324,86.8850983 74.8388062,86.8850983 C75.5586953,86.8850983 76.4327077,86.7209958 77.4367271,86.3963942 C77.7003446,86.3054725 77.966734,86.2090069 78.2364499,86.1069972 C78.3046411,86.1965328 78.3725552,86.2855141 78.4476765,86.3800394 C77.9007604,86.602354 77.3713078,86.801661 76.8515573,86.9821184 C75.8478152,87.3064427 74.9735255,87.4702681 74.2539136,87.4702681 C73.0361728,87.4702681 71.8026316,86.9643776 70.5904348,85.9700602 C70.52557,85.9173922 70.4612595,85.8613977 70.396949,85.8031857 C70.6824653,85.8489237 70.9840592,85.8733173 71.2984043,85.8733173 C71.4738721,85.8733173 71.6449047,85.8666645 71.814274,85.8569625" id="path142" fill="#FCD784"></path>
                        <path d="M67.5581411,66.9416477 L67.5406775,66.9621605 C67.2083143,67.3422021 67.0397766,67.9057502 67.0397766,68.6383905 C67.0397766,69.0893954 67.108245,69.5270946 67.2490628,69.9769906 C67.2554384,69.9944542 67.29092,70.0870391 67.4284113,70.3057501 C67.8539138,69.3097696 68.499236,68.5363808 69.4012457,67.9487162 C70.5028395,67.2243919 72.17408,66.6661106 73.4896725,66.461814 C73.7072747,66.6145513 73.9259857,66.7797627 74.1458055,66.9685361 C74.0534978,66.9641009 73.9606357,66.9621605 73.8666648,66.9621605 C72.5241839,66.9621605 71.1922366,67.4092845 69.7957017,68.3270946 C68.878446,68.9239068 68.2253621,69.713096 67.7998597,70.734579 C67.650726,71.0882865 67.5448355,71.4383905 67.481911,71.7832276 C66.7880787,70.8867619 66.6744266,70.5951472 66.6630614,70.5618832 C66.5225209,70.1119872 66.4546068,69.6748423 66.4546068,69.2241147 C66.4546068,68.4911972 66.6231446,67.926263 66.9552305,67.5470531 L66.9729713,67.5268174 C67.2166303,67.2288271 67.4716546,66.9654869 67.7363808,66.7329159 C67.6765056,66.8008299 67.6169075,66.8698528 67.5581411,66.9416477" id="path144" fill="#FCD784"></path>
                        <path d="M67.6299359,78.1302822 C67.6934148,78.0723473 67.7668729,78.0094229 67.8447661,77.9437264 C67.537351,78.3451124 67.3915437,78.784752 67.3915437,79.2975725 C67.3915437,79.6182932 67.462507,79.9035323 67.6083143,80.1704762 L67.6235603,80.2009682 C67.8018001,80.5621601 67.8849602,80.7550915 68.0077599,80.9990278 C68.2686054,80.7013147 68.5923753,80.399998 68.9810101,80.0945233 C69.7410932,79.4727631 71.8220356,78.0676349 73.9282033,76.8266093 C75.9024236,75.662091 77.0134423,74.9541215 77.3699218,74.6949392 C77.9720008,74.2278568 78.4210653,73.7829503 78.7187784,73.3632691 C78.5904346,74.0213426 78.0016613,74.7614673 76.9629918,75.5686745 C76.6059579,75.8267479 75.4954936,76.5349946 73.5207189,77.6989586 C71.4153828,78.9399842 70.0742879,79.8120562 69.3147592,80.4340936 C68.554676,81.0320146 68.0413011,81.6102544 67.7654869,82.1837817 C67.5268174,81.7502405 67.2845444,81.2848213 67.0381134,80.7858608 L67.0231445,80.7562003 C66.87706,80.4889793 66.8066511,80.2031858 66.8066511,79.8821879 C66.8066511,79.19584 67.0674966,78.6397763 67.6299359,78.1302822" id="path146" fill="#FCD784"></path>
                        <path d="M87.0015224,78.7032551 C87.7028391,78.0934145 88.7769902,77.5323612 89.9165605,77.1331928 C89.9584177,77.2504485 90.0069278,77.3668726 90.0704066,77.4821879 C88.6941073,78.1832274 87.5941766,78.8945233 86.7423402,79.6343708 C86.2541905,79.18198 85.8012453,78.793068 85.4020769,78.4814949 C85.6346479,78.2846827 85.8514185,78.1069974 86.0543291,77.9476072 C86.400275,78.2117791 86.5422016,78.2785843 87.0015224,78.7032551" id="path148" fill="#FCD784"></path>
                        <path d="M88.4620907,68.4623684 L88.5000671,76.2436571 L88.0066506,76.4601505 C87.9775446,76.4729018 87.9445577,76.4900882 87.9129569,76.5056114 L87.8769209,69.0478153 C87.8769209,68.2353413 87.6995127,67.6842672 87.4514185,67.3128188 L88.1394295,66.9014536 C88.3320837,67.265972 88.4620907,67.7674273 88.4620907,68.4623684" id="path150" fill="#FCD784"></path>
                        <path d="M82.2358954,68.0049879 L82.2358954,74.9361035 C82.2358954,75.4874548 82.2054034,75.9476072 82.1394297,76.3301436 C82.633955,76.3980577 83.0946618,76.498127 83.5290346,76.6256391 L83.5290346,77.4051263 C82.9322225,77.1772676 82.2763666,77.0145511 81.5545371,76.9153134 C81.6196792,76.5324998 81.6504484,76.0720702 81.6504484,75.5204416 L81.6504484,68.5901577 C81.6504484,67.2593192 82.1086605,66.8268868 82.4454588,66.6220358 L82.5189169,66.5782381 C82.3564775,66.8790004 82.2358954,67.3239068 82.2358954,68.0049879" id="path152" fill="#FCD784"></path>
                        <path d="M95.1706144,81.9173923 C95.3868306,82.0343708 95.582534,82.1377665 95.769367,82.2345094 C95.7677038,82.5799009 95.759665,82.9688129 95.7435874,83.4084525 C95.7089373,84.3345786 96.1056109,84.5435876 96.2555762,84.6223125 C96.5277869,84.7659022 96.8457356,84.9377664 97.2135804,85.1395682 L97.2133032,86.0471219 C96.576297,85.6945232 96.0776137,85.4220353 95.6704065,85.2077595 C95.5209955,85.1287574 95.1232131,84.9194712 95.1581404,83.9930679 C95.1905728,83.1209958 95.19085,82.4465676 95.1706144,81.9173923" id="path154" fill="#FCD784"></path>
                        <path d="M94.534717,67.2945236 C94.7542596,67.1803171 94.9940378,67.0533594 95.2435181,66.9208576 C95.5315291,67.4400538 95.6734557,67.9501023 95.6734557,68.4623684 L95.6734557,75.6388061 C95.6734557,76.2893952 95.5897412,76.9981963 95.4295194,77.7227978 C95.8941071,77.8827423 96.4404688,78.1241838 97.0771979,78.4504485 C97.0824647,78.7656252 97.0974335,79.0747035 97.1279255,79.3732482 C96.2098382,78.8701297 95.4569623,78.5191942 94.8443497,78.3076904 C95.0042942,77.5825344 95.0877315,76.8740106 95.0877315,76.2234215 L95.0877315,69.0478153 C95.0877315,68.4665264 94.9058881,67.8869006 94.534717,67.2945236" id="path156" fill="#FCD784"></path>
                        <path d="M109.497156,67.4070669 C109.532915,70.8152442 109.532915,73.2737334 109.532915,74.9006218 C109.532915,75.7871083 109.263476,76.4521117 108.732638,76.8770598 C108.676089,76.9241838 108.615659,76.9671498 108.553843,77.0087299 C108.81358,76.6126107 108.947468,76.1045026 108.947468,75.4852372 C108.947468,73.8589032 108.947468,71.4009684 108.912818,67.9927911 C108.912818,67.9758819 108.925292,67.5858611 109.815382,66.8174619 C109.502977,67.1994439 109.497156,67.3954245 109.497156,67.4070669" id="path158" fill="#FCD784"></path>
                        <path d="M101.986137,67.1653483 C102.22453,67.0533594 102.465694,66.9349949 102.708244,66.8124723 C102.962714,67.2848216 103.095216,67.7929297 103.095216,68.322105 L103.131806,75.8708228 L103.066941,76.0241145 C103.033677,76.8263321 102.681356,77.6510029 102.172416,78.0182933 C102.786137,78.4967409 103.173386,78.8058192 103.536519,79.1129571 C103.332499,79.3147589 103.106581,79.4910583 102.851279,79.63742 C102.846013,79.6404692 102.840746,79.6440729 102.835202,79.6471221 C102.437419,79.3042253 101.903255,78.8737333 101.224114,78.3448352 C101.733054,77.9767132 102.154675,77.3957015 102.481772,76.6092843 L102.546082,76.4562697 L102.509769,68.907552 C102.509769,68.2899498 102.331252,67.7011764 101.986137,67.1653483" id="path160" fill="#FCD784"></path>
                        <path d="M108.969367,78.6353411 C109.071099,78.6383903 109.169228,78.6397763 109.264031,78.6397763 C110.134439,78.6397763 110.575465,78.518917 110.78087,78.4338165 C110.629519,78.8213425 110.371723,78.9408158 110.243379,78.999305 C110.062645,79.0838511 109.619401,79.2252232 108.679415,79.2252232 C108.584335,79.2252232 108.485375,79.2230056 108.385306,79.2210652 C107.971723,78.7331928 107.577544,78.308522 107.199443,77.9420632 C107.504918,77.8580715 107.769644,77.732777 107.999443,77.5711692 C108.31157,77.8866231 108.633677,78.2400535 108.969367,78.6353411" id="path162" fill="#FCD784"></path>
                        <path d="M118.424391,81.7385981 L118.424391,82.8986812 C117.089117,81.5789307 115.956754,80.5108781 115.013164,79.6812177 L116.251418,79.6812177 C116.898126,80.2699911 117.621341,80.9546757 118.424391,81.7385981" id="path164" fill="#FCD784"></path>
                        <path d="M117.060288,68.8144127 L117.060288,79.0960479 L116.475118,79.0960479 L116.475118,69.3995825 C116.475118,68.6841286 116.267495,67.9767135 115.843379,67.2571016 C116.054883,67.1625763 116.294384,67.0505874 116.56604,66.9203032 C116.896463,67.5548147 117.060288,68.1810101 117.060288,68.8144127" id="path166" fill="#FCD784"></path>
                        <path d="M124.024945,67.1611903 C124.024945,67.5642395 124.141923,67.9650711 124.370336,68.3573094 C124.749824,67.8857918 125.187246,67.5215506 125.713095,67.1761591 C126.582949,66.6270254 127.9185,66.2400538 128.944418,66.0920288 C129.129865,66.2372818 129.32141,66.4135812 129.519054,66.6220358 C129.40762,66.6142741 129.288146,66.6103933 129.162852,66.6103933 C128.158555,66.6103933 127.13042,66.9510725 126.004432,67.6601508 C125.328063,68.10478 124.539983,68.6918902 124.090919,69.3848909 C123.658763,68.8540523 123.439775,68.302701 123.439775,67.7458057 C123.439775,67.2288271 123.722242,66.7645167 124.307135,66.3212735 C124.119747,66.5879401 124.024945,66.865972 124.024945,67.1611903" id="path168" fill="#FCD784"></path>
                        <path d="M127.404016,78.6126106 C127.896047,78.954953 128.462367,79.1270943 129.116837,79.1270943 C129.220787,79.1270943 129.32834,79.1226591 129.43534,79.1137887 C130.252249,79.0525275 131.061119,78.8634769 131.880801,78.5435878 C131.933746,78.6336779 131.987245,78.7207188 132.041577,78.8049876 C130.96299,79.3255697 129.913233,79.6191248 128.851002,79.6989585 C128.742616,79.7075517 128.635063,79.7117097 128.532221,79.7117097 C127.629657,79.7117097 126.893691,79.3901574 126.291889,78.7381824 C126.289394,78.7359648 126.287454,78.7331928 126.284404,78.7309752 C126.317391,78.7323612 126.350378,78.7323612 126.383642,78.7323612 C126.701314,78.7323612 127.041161,78.6913355 127.404016,78.6126106" id="path170" fill="#FCD784"></path>
                        <path d="M124.101452,73.6041562 C124.185721,73.5401229 124.276643,73.473872 124.373108,73.4062352 C124.332083,73.5002061 124.30658,73.5980578 124.30658,73.7039483 C124.30658,74.0668034 124.47096,74.5660411 124.793621,75.1902961 C125.09577,74.8751194 125.49272,74.6117791 125.862783,74.3936225 C126.033538,74.2910584 127.048645,73.7823959 128.933053,72.8060966 L129.353843,72.5876628 C130.533053,71.9659026 131.507689,71.38101 132.244487,70.8543295 C132.279137,70.8304903 132.30464,70.8083142 132.334855,70.7853066 C132.362575,70.8801091 132.385582,70.9693676 132.400274,71.0475381 C132.422727,71.1814258 132.475672,71.4963253 131.888285,71.8985429 C131.149823,72.4257778 130.175465,73.0103932 128.997363,73.6321534 L128.57491,73.8505872 C126.692443,74.8271638 126.032152,75.1697833 125.861951,75.271793 C125.376296,75.5600813 124.842409,75.922382 124.541092,76.3805941 C124.42938,76.1901575 124.324321,76.0005525 124.225361,75.8078983 C123.890503,75.1689517 123.720579,74.658626 123.720579,74.289118 C123.720579,74.0252234 123.846151,73.8006912 124.101452,73.6041562" id="path172" fill="#FCD784"></path>
                        <path d="M196.977958,124.474841 L196.977958,126.528341 L196.966038,126.528341 L196.160217,124.474841 L195.903529,124.474841 L195.097431,126.528341 L195.085511,126.528341 L195.085511,124.474841 L194.67969,124.474841 L194.67969,126.934162 L195.30644,126.934162 L196.040744,125.065555 L196.763127,126.934162 L197.384056,126.934162 L197.384056,124.474841 L196.977958,124.474841 Z M193.408173,126.605679 L193.408173,124.474841 L193.002351,124.474841 L193.002351,126.605679 L192.232289,126.605679 L192.232289,126.934162 L194.178235,126.934162 L194.178235,126.605679 L193.408173,126.605679 L193.408173,126.605679 Z" id="path174" fill="#231F20"></path>
                    </g>
                </g>
            </g>
        </g>
    </g>
</svg>