<svg width="200" height="200" viewBox="0 0 200 200" fill="none" xmlns="http://www.w3.org/2000/svg">
<path d="M197.81 100.106C195.277 92.5782 189.276 87.6521 186.813 85.8828C185.841 81.4077 180.672 67.6006 153.648 54.4873C151.463 51.2957 149.867 48.4858 149.138 47.2716C148.965 46.9593 148.236 45.7105 147.924 45.537C147.612 45.3636 146.606 45.3289 146.606 45.3289C141.61 45.0513 138.106 47.7919 136.302 49.6653C130.648 48.9021 124.646 48.5898 118.332 48.798C115.071 47.1675 112.47 45.7452 110.7 44.7738C108.688 43.6637 107.162 42.9352 106.676 43.0046C106.191 43.0739 105.219 43.8371 105.219 43.8371C102.756 45.9186 101.368 48.347 100.571 50.4632C81.768 52.8915 62.2716 59.1706 42.567 69.127L42.3935 69.2311C26.7478 77.1406 14.259 87.548 8.1187 93.168C2.88033 97.9553 -0.380634 102.604 0.0356602 103.437C0.417263 104.269 6.1413 102.535 14.1203 102.014C22.0992 101.494 25.5337 101.702 30.8067 101.91C45.0995 102.465 65.5672 110.271 72.7136 127.998C79.3049 144.337 89.1225 153.426 102.687 155.612C110.18 156.861 113.163 155.334 112.574 154.745C111.637 153.843 110.458 153.357 108.341 149.992C105.878 146.072 105.185 140.521 106.607 135.352C107.509 132.022 110.076 126.298 117.118 123.245C120.865 121.615 121.559 121.615 121.559 121.615C121.802 121.684 122.114 121.788 122.357 121.892C140.084 127.131 142.269 136.012 143.31 140.279C143.761 142.048 144.143 143.748 145.947 144.372C159.337 149.229 169.675 142.256 170.092 141.944L172.034 140.591L170.959 138.475C170.959 138.44 170.82 138.197 170.543 137.711C171.757 135.838 172.208 133.861 172.312 132.23C172.52 129.143 171.306 126.298 170.265 125.951C170.057 125.882 168.635 127.027 167.108 127.616C166.761 126.957 166.172 126.09 165.547 125.916C165.235 125.847 164.437 126.541 163.015 126.957C162.286 126.055 161.592 124.841 161.141 123.731C160.343 121.684 159.754 118.527 164.055 115.023C167.525 112.179 171.583 112.803 173.179 113.428C173.179 117.556 170.577 121.476 170.681 121.719C171.375 122.898 174.671 123.141 176.197 122.829C177.55 122.551 178.418 122.17 179.25 121.719C179.979 122.69 180.499 122.898 181.158 122.864L181.991 122.725C187.333 121.58 192.121 117.521 194.167 114.121C198.712 110.201 199.822 103.922 199.857 103.645C199.857 103.645 200.03 102.361 199.995 102.222C200.03 101.979 199.093 100.973 197.81 100.106Z" fill="#CBCCCE"/>
<path d="M197.22 103.125C197.151 103.021 196.978 102.847 195.486 101.807C192.849 92.7175 184.315 87.4792 184.315 87.4792C184.315 87.4792 183.483 71.7988 151.844 56.6387C149.034 52.6146 147.057 49.0067 146.571 48.1741C146.537 48.1047 146.467 48.07 146.259 48.0353C141.472 47.8619 138.419 51.2963 137.448 52.5452C131.342 51.6085 124.82 51.2616 117.812 51.5045C112.262 48.7639 108.48 46.5089 107.336 45.9886C107.093 45.8845 106.954 45.9539 106.919 45.9886C104.352 48.2088 103.207 50.9841 102.687 52.8921C73.7893 56.2571 50.0606 68.3643 43.6774 71.5559C23.3137 81.8245 8.53527 96.3601 6.38442 98.4763C5.93343 98.9619 5.51714 99.6905 5.55183 99.9333C15.5776 93.8276 65.2206 66.04 110.423 82.6918L110.146 82.9693C93.9102 78.5982 60.6761 79.5696 31.5008 95.3887C28.7255 96.9498 26.8175 98.8232 27.095 99.1007C41.9081 98.3028 66.9205 106.143 75.2463 126.854C83.711 147.876 96.3039 152.699 107.405 153.254C107.405 153.254 107.405 153.219 107.37 153.219C99.8771 144.407 101.82 125.466 117.639 120.019C111.984 117.695 95.4019 111.451 94.6734 100.419C80.7969 95.0765 65.5675 101.841 61.6821 103.784L61.7515 103.541C80.6928 89.9769 99.5995 95.5622 100.848 95.9438C100.675 96.1866 100.501 96.6029 100.363 96.9845C97.1018 109.473 115.315 116.689 123.12 119.152C147.681 126.403 144.976 141.008 146.884 141.701C159.13 146.107 168.566 139.585 168.566 139.585C168.566 139.585 168.219 138.891 167.351 137.365C170.127 134.382 169.745 130.6 169.572 129.455C169.537 129.247 169.363 129.247 169.294 129.317C167.629 131.017 166.102 132.023 164.819 132.612C164.784 132.578 164.784 132.578 164.749 132.543C165.513 131.294 165.339 129.768 165.2 129.074C165.166 128.831 165.027 128.796 164.888 128.935C164.472 129.317 163.57 130.115 162.599 130.219C161.038 129.074 159.476 126.611 158.713 124.633C157.048 120.332 158.158 116.342 162.425 112.804C168.253 108.016 175.643 110.653 175.989 112.006C176.267 116.758 174.463 119.464 173.943 120.401C173.839 120.575 173.873 120.679 174.012 120.644C174.845 120.505 178.383 119.638 180.465 117.487C180.603 117.383 181.124 118.493 181.505 119.846C181.54 119.915 181.54 119.915 181.644 119.915C186.362 118.84 190.629 115.093 192.19 112.214C196.318 108.988 197.29 103.229 197.22 103.125Z" fill="black"/>
<path d="M162.529 84.6309C162.564 84.1453 162.772 83.6943 163.084 83.3474C163.292 83.4861 163.535 83.5902 163.674 83.5902H163.778C164.194 83.6249 164.576 83.278 164.61 82.8617C164.61 82.8617 164.749 82.7923 164.888 82.7229C164.402 82.0985 163.847 81.474 163.327 80.8496C163.327 80.8496 161.002 81.1271 161.072 83.6943C161.072 83.6943 161.627 84.1453 162.529 84.7697V84.6309Z" fill="white"/>
<path d="M166.969 85.4277C166.865 85.9481 166.553 86.3991 166.102 86.7113C166.726 86.9888 167.386 87.2317 168.114 87.4398C168.184 87.3357 168.184 87.1276 168.184 87.1276C168.184 87.1276 167.733 86.4338 166.969 85.4277Z" fill="white"/>
<path d="M102.271 59.4473C102.271 59.4473 72.8874 60.7308 40.6246 78.0764C40.5552 78.1458 40.4512 78.3539 40.4512 78.3886C53.9113 72.8727 79.9644 65.0325 106.434 68.6751C106.434 68.6404 102.548 65.657 102.271 59.4473Z" fill="#CBCCCE"/>
<path d="M157.915 132.751C158.782 132.404 159.719 131.953 160.656 131.398C157.742 128.657 152.815 122.725 156.736 116.203C156.527 116.238 156.389 116.342 156.319 116.307C153.752 118.527 151.428 125.015 155.209 130.08C156.215 131.398 157.117 132.23 157.915 132.751Z" fill="#770000"/>
<path d="M183.274 98.0937C183.205 98.0591 182.893 97.4693 182.997 97.4346C184.246 97.3305 188.686 98.5447 191.045 99.6895C189.345 93.5145 180.673 89.0394 180.673 89.0394C180.673 89.0394 179.389 78.8402 163.882 68.2247C151.74 59.9335 137.066 57.3316 128.705 58.0949C128.705 58.0949 134.742 61.5293 140.847 64.1658C141.055 64.2699 140.847 64.3046 140.743 64.3393C125.028 61.3211 110.25 53.6197 108.55 52.7871C107.127 53.2728 104.144 64.7902 115.176 71.1734C119.651 73.7753 121.698 73.3243 122.149 73.1508C111.186 69.9245 111.845 60.7661 112.054 59.2744C112.088 59.0662 112.192 59.1009 112.192 59.1009C112.956 59.1009 122.079 64.2005 134.846 66.6636C134.95 66.6983 135.088 66.6983 135.227 66.7329C135.262 66.8023 135.297 66.8717 135.297 66.9411C136.719 71.4509 129.399 71.3122 129.052 72.1448C139.39 73.1855 151.289 77.3137 158.158 82.6909C158.956 76.8628 155.209 74.9201 154.169 74.5038C153.995 74.4344 154.099 74.3997 154.238 74.365C154.654 74.2609 156.042 74.1569 157.36 74.3303C172.069 76.3424 168.288 89.1434 176.44 89.8372C176.128 90.6005 174.74 92.6472 171.167 91.6412C149.659 85.4662 125.236 90.0454 125.236 90.0454L125.167 90.2535C156.666 88.8312 171.618 95.3878 177.689 100.245C177.689 100.245 177.724 100.279 177.759 100.314C177.793 100.349 177.793 100.73 177.793 100.834C177.793 100.869 177.759 100.834 177.759 100.834C149.451 90.9474 118.61 99.2732 118.61 99.2732L118.506 99.4814C173.561 93.1329 183.899 111.97 184.697 113.844C184.836 114.19 184.801 114.433 184.87 114.433C186.744 113.948 188.721 112.525 189.692 110.444C191.08 103.332 184.836 99.0998 183.274 98.0937Z" fill="#CBCCCE"/>
</svg>
