<?xml version="1.0" encoding="UTF-8"?>
<svg width="200px" height="200px" viewBox="0 0 200 200" version="1.1" xmlns="http://www.w3.org/2000/svg" xmlns:xlink="http://www.w3.org/1999/xlink">
    <!-- Generator: Sketch 54.1 (76490) - https://sketchapp.com -->
    <title>fort-hays-st</title>
    <desc>Created with Sketch.</desc>
    <g id="fort-hays-st" stroke="none" stroke-width="1" fill="none" fill-rule="evenodd">
        <g id="fort-hays-st_BGL" transform="translate(0.000000, -0.000000)">
            <g id="fort-hays-st" transform="translate(0.000000, 1.000000)">
                <g id="g10" transform="translate(99.999998, 99.290521) scale(-1, 1) rotate(-180.000000) translate(-99.999998, -99.290521) translate(0.000000, 0.207954)" fill-rule="nonzero">
                    <g id="g12">
                        <path d="M49.9235462,170.850149 C49.9235462,170.850149 19.6483176,169.550454 12.3088682,151.12599 L28.5932715,151.12599 C28.5932715,151.12599 27.2171247,147.074002 26.4525987,141.722321 L2.75229351,128.037306 L24.5412838,132.318651 C24.5412838,132.318651 23.5474,126.202443 23.8532104,118.022015 L0,94.551068 L24.2354734,107.54801 C24.5412838,105.407337 27.5993877,91.6458693 27.5993877,91.6458693 L13.7614675,68.7865426 L27.3700299,78.1902121 C27.3700299,78.1902121 21.7889903,72.0740043 20.8715591,66.5694173 C19.9541279,61.0648303 26.2232409,58.083179 30.8103968,44.9340662 C35.3975526,31.7842194 36.850152,24.827033 44.4954117,19.6282564 C52.1406715,14.4294798 87.7669703,2.12347395 95.3363891,1.05026909 C115.290517,-1.77847702 123.009171,1.62151066 132.110088,5.17870935 C140.519874,8.46617716 163.888681,21.1064215 165.723543,29.0574916 C167.558406,37.0085618 163.877672,58.8305184 164.52599,59.9180413 C168.807335,67.1045855 171.941892,75.1321082 171.941892,75.1321082 L184.174307,59.5357783 L175.917427,84.0006095 C175.917427,84.0006095 176.834858,87.7467868 177.752289,91.6458693 L191.131494,77.8844017 L179.892962,100.514371 C179.892962,100.514371 181.345561,104.795716 181.727824,109.688682 L196.02446,98.8324134 L183.409781,117.5633 C183.409781,117.5633 183.792044,121.003667 183.715592,123.297245 L199.770637,112.288071 L184.480118,131.09541 C184.480118,132.318651 184.021402,136.523544 184.021402,136.523544 C184.021402,136.523544 176.758405,140.575532 173.853207,144.092351 C173.853207,144.092351 189.296631,149.826296 194.036692,158.159629 C194.036692,158.159629 179.434246,161.294186 171.024461,165.957794 L195.107029,179.948008 L166.972473,172.149843 L185.626907,190.269108 L162.538222,177.195714 L170.642198,190.651371 L153.746174,178.648314 C153.746174,178.648314 144.877672,187.97553 132.339446,193.021402 C122.908865,196.816509 116.743116,198.755347 91.4373066,195.085622 C82.6140652,193.806111 72.553515,183.999995 72.553515,183.999995 L54.8165124,195.926601 L64.0929648,180.53394 L33.6649533,197.914368 L57.3652585,175.845256 L23.3180422,186.293573 L49.9235462,170.850149" id="path14" fill="#FFFFFF"></path>
                        <path d="M58.2193869,171.126601 C58.2193869,171.126601 55.123546,168.818956 49.6093566,167.999384 C44.4094179,167.226907 32.658409,146.808559 32.658409,146.808559 C32.658409,146.808559 29.5740054,143.091128 29.4450146,142.730883 C29.2877669,142.290516 28.5316201,140.336388 28.4052592,138.761464 C28.3061155,137.519263 28.8350452,127.977978 28.8350452,127.977978 C28.8350452,127.977978 26.5477058,121.885012 26.4518648,120.928437 C26.3565743,119.973697 26.1683174,119.449538 26.0739443,116.297245 C25.9946171,113.642811 29.0966354,95.7620771 29.2877669,95.0935756 C29.4788983,94.4244625 30.0752286,92.7602423 30.5483173,90.90275 C31.2877668,87.9938816 38.1498461,73.5908238 38.9640969,72.2654416 C39.815106,70.8782857 40.1256871,70.2978576 40.724158,69.1626894 C42.5012222,65.7963286 114.005502,12.4103972 114.005502,12.4103972 L149.757794,60.0121698 C149.757794,60.0121698 169.43547,76.01957 172.012228,82.3009154 C172.717427,84.0171233 172.894797,84.8525973 173.557182,86.7418939 C174.929659,90.667276 177.310699,99.2752269 177.557794,100.606114 C177.872167,102.306419 178.124155,103.536389 178.313757,105.300915 C178.768191,109.529661 180.03547,112.607337 180.487457,115.634859 C180.776754,117.570028 180.897243,118.502138 180.992044,119.541893 C181.305806,122.992046 182.440974,127.953514 182.062992,133.341893 C181.894185,135.748009 179.388375,133.808559 175.755959,137.536388 C172.124766,141.264828 164.954124,144.418957 164.954124,144.418957 L168.29969,153.691739 L179.006112,156.081342 C171.534552,159.70703 173.896632,161.945562 171.191433,162.736999 C166.025072,164.249537 167.085011,164.576754 162.49602,166.297855 C157.908253,168.017733 109.703973,178.640363 109.703973,178.640363 L58.2193869,171.126601" id="path16" fill="#FFFFFF"></path>
                        <path d="M71.0128423,178.998161 C72.8073376,180.489904 78.2318023,185.082564 80.2905179,186.229965 C82.1351661,187.259323 103.130884,189.595714 103.130884,189.595714 L142.940058,182.91865 C142.940058,182.91865 149.629966,179.251983 150.007947,178.840363 C151.763299,176.927213 153.808559,172.242198 154.362687,171.766968 C154.926602,171.282565 153.715592,165.314369 153.715592,165.314369 C153.715592,165.314369 148.049538,161.470332 147.847091,161.470332 C147.645256,161.470332 131.86177,160.610394 131.86177,160.610394 L103.482566,160.256265 L74.2452581,162.228742 L69.9449524,167.590821 L69.3889891,177.05076 L71.0128423,178.998161" id="path18" fill="#FAB20B"></path>
                        <path d="M160.462381,138.655654 L160.070332,140.286235 C164.538834,140.154125 171.878283,136.795104 182.022014,128.315593 L181.892962,126.580425 L177.227519,126.455043 L160.462381,138.655654" id="path20" fill="#FAB20B"></path>
                        <path d="M161.864216,127.433636 L161.930271,125.996939 L179.705194,111.274615 L180.482564,115.779814 C176.739445,119.361465 168.725378,125.450761 161.864216,127.433636" id="path22" fill="#FAB20B"></path>
                        <path d="M160.512534,113.765746 L160.733329,115.411618 C160.733329,115.411618 167.106418,112.68012 177.508864,100.760854 C177.67706,100.56697 176.364522,95.3608539 176.364522,95.3608539 L167.532106,101.792658 L160.512534,113.765746" id="path24" fill="#FAB20B"></path>
                        <path d="M157.353513,101.618346 L157.962076,104.260548 C157.962076,104.260548 164.153513,99.2611596 172.226295,82.8703343 C172.226295,82.8703343 171.072167,78.7828726 170.061769,76.8201816 C169.766357,76.2489278 157.353513,101.618346 157.353513,101.618346" id="path26" fill="#FAB20B"></path>
                        <path d="M153.041586,90.1993861 C153.041586,90.1993861 149.705807,83.4764505 149.038528,83.1944933 C148.371862,82.9100897 137.321709,52.9162066 137.321709,52.9162066 L97.23486,57.6159007 C97.23486,57.6159007 77.2844017,70.0599371 76.8201816,70.4446466 C76.3541265,70.829356 69.6562674,77.5272152 69.3113133,78.2764506 C69.0348607,78.8782855 59.4232401,42.9902742 59.5995704,42.8044026 C59.9225673,42.4610387 69.5981634,31.8544335 69.9186527,31.898409 C70.2397536,31.940672 84.4061141,26.313088 84.4061141,26.313088 L101.707031,19.4538221 L110.146175,8.7081955 L113.14067,7.10886832 L117.429355,10.1039141 L126.921098,20.6068496 L140.377978,37.1786535 L147.176143,42.4813445 L153.612229,53.5689283 C153.612229,53.5689283 157.589599,55.7272769 157.69969,55.8973686 C158.469109,57.0689894 164.266663,65.6103959 164.338834,65.7822614 C164.700302,66.6599372 162.031189,78.5174292 162.031189,78.5174292 L154.481953,90.1944932 L153.041586,90.1993861" id="path28" fill="#FAB20B"></path>
                        <path d="M57.8941882,97.9473982 C57.8941882,97.9473982 61.2972462,90.5467867 61.6935764,89.8862363 C62.0905183,89.2256858 47.4686838,59.2538823 46.7646471,59.7235459 C46.466482,59.922812 40.306054,69.1914356 40.5485617,69.6324142 C49.4031792,85.7229336 57.8941882,97.9473982 57.8941882,97.9473982" id="path30" fill="#FAB20B"></path>
                        <path d="M54.3769405,111.29908 C54.35902,111.395104 53.8974298,116.086236 53.9631179,116.416511 C54.028072,116.748009 37.0138217,103.663606 30.5710084,90.9767561 C30.5710084,90.9767561 31.727094,86.8140651 33.7091735,82.4189582 C33.8441582,82.1204872 37.2121092,83.4440346 51.5839742,104.951679 L54.3769405,111.29908" id="path32" fill="#FAB20B"></path>
                        <path d="M28.5228127,107.033636 L26.851559,107.216511 C26.851559,107.216511 25.8799382,116.152291 26.1109474,116.45015 C26.1109474,116.45015 35.9231795,124.94067 55.1521699,130.425685 C55.1521699,130.425685 53.6128427,127.187153 53.6322311,126.658712 C53.6518029,126.108865 47.2895401,119.456878 47.2895401,119.456878 L28.5228127,107.033636" id="path34" fill="#FAB20B"></path>
                        <path d="M28.5228127,139.412229 L27.2668495,130.094798 L34.2383478,130.623238 L51.6170018,137.760853 L60.0822003,141.02018 L60.9669098,142.814675 C35.2625679,142.319874 28.5228127,139.412229 28.5228127,139.412229" id="path36" fill="#FAB20B"></path>
                        <path d="M71.2911297,179.174919 C70.5798147,177.754736 68.8293561,171.843421 72.011619,166.853207 C72.011619,166.853207 72.7914355,168.662381 73.5400593,169.409782 C73.6880716,169.557794 78.1883773,162.92232 79.1559613,162.672779 C79.4348604,162.601219 78.90642,172.840974 78.90642,172.840974 C86.3620774,172.592045 96.4085603,174.900913 96.4085603,174.900913 C99.0287437,171.781647 102.040364,167.377977 104.425685,166.665439 C108.917428,165.324155 115.46911,167.788375 115.46911,167.788375 C110.165746,169.847091 105.455043,177.302748 101.429967,181.358405 C101.429967,181.358405 106.297245,183.105194 106.29174,183.025072 L89.4507623,186.598772 L91.7590191,182.35657 C88.9204871,180.546784 86.5492333,176.995103 83.8042793,177.022626 C74.3516801,177.116204 77.7651357,183.752901 79.8103956,185.881953 C82.119264,188.283176 85.8941875,192.118038 93.381649,193.33761 C100.483178,194.494185 113.066664,195.003053 116.248927,194.834858 C129.85015,194.117426 138.883789,186.517427 141.954737,184.602442 C144.35596,183.105194 147.259935,181.826907 149.846479,179.049537 C151.473391,177.304583 148.007336,174.183482 139.33333,180.546784 L140.551067,182.918038 C140.551067,182.918038 128.165134,182.574307 128.258712,182.574307 L133.437917,180.173084 C130.817734,177.645867 128.571251,169.285623 123.642199,168.006112 C123.642199,168.006112 125.455043,166.750455 127.697856,166.914369 C129.82018,167.070944 132.222015,170.439751 137.181036,175.836693 C137.181036,175.836693 146.123544,172.85076 147.194492,172.903971 C148.442198,172.966357 149.022015,173.67706 149.59755,173.964522 C149.846479,174.089292 150.189599,164.918039 150.720486,164.667886 C150.898467,164.584705 153.309476,169.346785 154.307641,171.843421 L163.354124,165.978589 C160.95229,164.449537 153.901525,161.080118 155.149232,151.877672 C156.108865,144.807336 157.207947,142.300302 157.207947,142.300302 C152.187152,142.612229 144.199385,141.147397 144.199385,141.147397 L150.282565,148.071556 L139.364523,143.485623 L146.445256,154.748008 L134.713146,150.340669 L135.932107,156.338834 C135.932107,156.338834 133.123544,155.589599 129.130272,153.593268 C121.747398,149.902749 114.184095,152.226296 103.829967,157.930271 L105.568805,151.056877 L93.191435,155.902137 L97.4030557,145.388987 L81.4293558,151.940057 L90.6642179,139.743116 C85.8911294,140.522321 82.3657472,142.48807 76.3443406,143.579813 C72.0550441,144.357795 68.3889891,144.391434 68.3889891,144.391434 C70.6672765,160.083176 68.0110075,162.946173 65.6122308,167.007947 C64.0837904,169.596938 58.2193869,171.126601 58.2193869,171.126601 C62.8672767,173.029353 71.2281328,179.174919 71.2281328,179.174919" id="path38" fill="#231F20"></path>
                        <path d="M120.390211,140.272779 L120.444034,130.29541 C120.444034,130.29541 113.952902,126.112535 108.320487,126.165746 C102.972474,126.217122 99.0409761,129.062382 94.3198753,131.584095 C94.3198753,131.584095 92.7639121,123.376755 90.4574901,120.211618 C87.1412822,115.661771 86.0048908,113.507642 83.4831783,111.681954 C83.4831783,111.681954 89.5449519,111.950456 90.991435,104.565747 C91.285013,103.073392 91.7449518,99.3425052 90.8336369,91.9418937 C90.001221,85.1963281 95.9847071,80.8923527 101.292964,80.3547381 C105.530884,79.9259919 108.267276,83.8941875 115.83119,84.5370009 C122.447703,85.1009153 122.688682,81.5602426 128.651373,81.1051967 C134.981036,80.6238512 137.180425,86.8984688 136.965746,88.0801201 C136.409171,91.143117 135.825073,99.5902116 136.120486,102.087459 C136.805501,107.873392 137.414064,113.581649 143.617122,114.57859 C143.617122,114.57859 144.207947,114.685012 143.564522,115.758407 C141.407948,119.351067 141.150455,126.754737 142.009171,133.674614 C142.009171,133.674614 135.93333,128.375532 131.655654,127.82752 C127.042199,127.237917 123.931495,130.348009 123.931495,130.348009 L124.681342,139.951067 L139.647703,147.031801 C126.451985,152.341892 109.607948,151.538223 98.237918,146.666663 L120.390211,140.272779" id="path40" fill="#231F20"></path>
                        <path d="M67.9394478,141.674003 C67.8165121,140.536388 66.4073378,134.381036 66.4073378,134.381036 C78.521099,135.344339 85.3186523,135.369416 85.3186523,135.369416 C83.6134536,137.422015 82.2177349,139.681954 78.4709461,140.710088 C74.4165119,141.821403 67.9394478,141.674003 67.9394478,141.674003" id="path42" fill="#231F20"></path>
                        <path d="M65.3449525,131.464829 L65.7639127,123.35596 C76.072781,126.718651 84.4538205,127.806113 87.2226278,127.607336 C87.2226278,127.607336 87.59327,131.093575 86.752903,132.774309 C86.752903,132.774309 72.2660532,132.774309 65.3449525,131.464829" id="path44" fill="#231F20"></path>
                        <path d="M86.9749214,125.110706 C86.9749214,125.110706 81.46116,125.135165 66.0116191,120.75963 C66.0116191,120.75963 66.2201818,114.633025 68.7645243,108.289294 C70.3626894,104.303973 74.2819553,98.21223 77.7174292,93.5535145 L83.7363893,102.416511 C83.7363893,102.416511 77.5529033,111.097857 76.1981632,112.584095 C76.1981632,112.584095 84.2929643,116.119263 86.9749214,125.110706" id="path46" fill="#231F20"></path>
                        <path d="M102.992658,76.3730868 C102.960242,75.0183467 108.11437,71.3834845 109.930884,72.5064202 C111.748621,73.6305792 114.622627,76.2409767 118.554125,76.3730868 C123.419569,76.5370011 129.359018,73.1015272 131.373085,73.2336373 C131.950455,73.2721694 131.143116,75.5798146 129.623238,76.5058085 C126.317428,78.5174292 121.793269,79.875839 115.779202,79.5785913 C112.047092,79.3932702 103.011618,77.1400592 102.992658,76.3730868" id="path48" fill="#231F20"></path>
                        <path d="M146.604278,121.439141 C146.604278,121.439141 147.199385,114.368804 147.892963,113.443422 L142.243422,105.051374 L145.911311,100.062383 C145.911311,100.062383 153.344339,113.079508 154.006112,118.432413 C154.006112,118.432413 148.124155,121.472168 146.604278,121.439141" id="path50" fill="#231F20"></path>
                        <path d="M147.496632,132.637917 C147.496632,132.637917 146.604278,130.359018 146.406113,124.114982 C146.406113,124.114982 149.908865,123.48807 155.228742,120.679508 C155.228742,120.679508 156.549843,122.992046 157.442198,129.202443 C157.442198,129.202443 148.355348,132.308254 147.496632,132.637917" id="path52" fill="#231F20"></path>
                        <path d="M150.932718,139.511311 C154.666663,139.841587 157.672779,139.610394 157.672779,139.610394 C157.771861,139.148009 158.067886,136.636694 158.002443,135.51437 C157.936999,134.390211 157.474614,132.474003 158.069721,131.71437 L148.685623,135.018345 C148.917427,135.579202 150.932718,139.511311 150.932718,139.511311" id="path54" fill="#231F20"></path>
                        <path d="M87.6532088,77.6513742 L87.4672761,87.2941874 L86.1559611,97.0324135 C84.3773679,94.7853187 76.5131479,70.722934 76.5131479,70.722934 C94.768805,52.9365124 114.055655,20.6348007 114.055655,20.6348007 C149.726602,60.6123532 149.259323,81.4905178 149.259323,82.8941875 C149.259323,84.2990805 141.956571,98.8110067 140.364522,100.965135 C140.364522,100.965135 137.087458,96.2825664 139.896633,80.0850133 L137.555348,81.3033619 L139.896633,70.5351664 L137.368192,71.0978575 C134.278896,71.1914355 130.440364,59.3014052 114.711312,58.083179 C105.217123,57.349968 96.0807315,65.7620779 92.2409763,73.158408 L89.1516797,71.5663591 L90.4629947,79.617735 L87.6532088,77.6513742" id="path56" fill="#B9B7B8"></path>
                        <path d="M74.3590195,62.4850137 C69.3969402,50.2203046 69.6782857,32.0587148 69.6782857,32.0587148 C79.227521,21.9466661 100.012842,7.52844018 112.838529,6.12360841 C112.838529,6.12360841 137.181036,9.30715573 157.872167,56.212231 C157.872167,56.212231 156.935776,67.8226283 154.689293,71.4733927 L150.288681,59.7699068 L150.850149,52.8433014 L147.760241,54.4335155 L145.794492,43.1063598 L142.518039,46.0067878 C129.598162,26.253088 112.27645,8.46470927 112.27645,8.46470927 C109.467887,16.9858711 91.8666644,41.6078889 91.8666644,41.6078889 L86.904585,35.5217728 L86.0629948,46.2886839 L81.2868481,40.8581641 C81.2868481,40.8581641 80.9131478,55.0886225 80.4440347,55.6508243 C79.9767564,56.212231 74.3590195,62.4850137 74.3590195,62.4850137" id="path58" fill="#231F20"></path>
                        <path d="M53.2938825,171.49602 C53.2938825,171.49602 35.0415893,180.588375 32.1960848,182.184705 C32.0049533,182.29235 47.4651364,178.992044 56.3486836,173.578589" id="path60" fill="#231F20"></path>
                        <path d="M39.691314,193.219567 C39.691314,193.219567 53.2253198,182.531494 59.9574909,175.86972 L63.5663593,178.366968 C60.9286835,179.616509 42.9532099,192.663604 39.691314,193.219567" id="path62" fill="#231F20"></path>
                        <path d="M57.6667875,193.011004 C57.6667875,193.011004 63.4960229,184.752289 66.8275213,180.657488 L70.3675823,182.600607 C64.0519862,188.430576 58.1524756,192.941891 57.6667875,193.011004" id="path64" fill="#231F20"></path>
                        <path d="M33.0848921,153.499079 C30.8658096,151.819568 29.3656873,142.580425 29.3656873,142.580425 C32.0056873,143.660547 46.0440355,145.700302 61.5229342,145.279507 C61.5229342,145.279507 63.5370015,151.489904 63.9229342,156.379201 C64.6422002,165.497855 56.0576744,168.306418 48.444219,168.017733 C43.703424,167.837305 29.0058708,166.697855 15.8675225,153.618956 L33.0848921,153.499079" id="path66" fill="#231F20"></path>
                        <polygon id="path68" fill="#231F20" points="27.3253816 140.179201 25.4056874 134.300302 8.06740041 130.22018"></polygon>
                        <path d="M27.2661155,130.22018 C27.2661155,130.22018 26.2459321,124.341281 26.3056874,119.961465 C26.3056874,119.961465 36.3850144,128.481342 55.9429955,133.340058 C55.9429955,133.340058 59.1822004,139.579201 60.0822003,141.02018 C60.0822003,141.02018 38.4245862,138.379201 27.2661155,130.22018" id="path70" fill="#231F20"></path>
                        <path d="M26.7858709,107.182872 C26.7858709,107.182872 28.2858097,97.4636061 29.3649534,94.9431169 C29.3649534,94.9431169 36.6248309,106.70275 53.4826286,119.481954 C53.4826286,119.481954 52.8825063,124.880731 53.7831791,127.220792 C53.7831791,127.220792 36.9249532,122.00122 26.7858709,107.182872" id="path72" fill="#231F20"></path>
                        <polygon id="path74" fill="#231F20" points="24.0856875 115.702138 24.3859933 109.822016 6.14727813 99.4440342"></polygon>
                        <polygon id="path76" fill="#231F20" points="29.0053815 90.3822607 31.2248922 85.403056 17.1266051 72.0837902"></polygon>
                        <path d="M54.4431179,111.199997 C54.4431179,111.199997 56.5426897,102.381037 56.9026897,101.181037 C56.9026897,101.181037 41.5440968,78.6837901 38.9640969,72.2654416 C38.9640969,72.2654416 34.1647698,80.8434231 33.7449533,82.4617716 C33.7449533,82.4617716 36.5646474,94.7015267 54.4431179,111.199997" id="path78" fill="#231F20"></path>
                        <path d="M69.381038,78.2024445 C66.8030564,72.8611603 59.842812,42.6263598 59.842812,42.6263598 C55.0442188,47.9059315 46.7646471,59.7235459 46.7646471,59.7235459 C54.1432402,82.0415882 61.5828731,90.0214045 61.5828731,90.0214045 C62.2525978,88.4122302 69.381038,78.2024445 69.381038,78.2024445" id="path80" fill="#231F20"></path>
                        <path d="M165.371861,169.27706 C170.898467,172.436081 189.241585,177.536999 189.241585,177.536999 L168.346785,166.665439 L165.371861,169.27706" id="path82" fill="#231F20"></path>
                        <path d="M159.72232,172.739445 C171.930883,181.606723 180.738222,186.769414 180.738222,186.769414 L162.94128,170.674002 L159.72232,172.739445" id="path84" fill="#231F20"></path>
                        <path d="M154.620791,176.018956 L157.353513,174.196326 C161.240975,178.266662 168.346785,188.044644 168.346785,188.044644 C168.346785,188.044644 158.871556,180.452595 154.620791,176.018956" id="path86" fill="#231F20"></path>
                        <path d="M159.601219,142.856266 C158.507641,146.500914 156.892962,152.491128 160.269721,157.556571 C162.94128,161.56391 168.59021,163.507641 171.019568,162.839751 C171.019568,162.839751 179.462992,159.620791 190.941891,157.434247 C190.941891,157.434247 176.790821,143.647703 168.954736,146.258712 C168.954736,146.258712 172.234858,142.310088 182.014063,135.204278 L182.195714,131.803666 C168.164522,143.828131 159.601219,142.856266 159.601219,142.856266" id="path88" fill="#231F20"></path>
                        <path d="M160.451372,138.97125 C169.258711,137.513758 181.892962,126.580425 181.892962,126.580425 C181.8318,124.636694 180.981035,119.049538 180.981035,119.049538 C167.92232,129.860547 161.727213,130.164523 161.727213,130.164523 C161.119874,133.930272 160.451372,138.97125 160.451372,138.97125" id="path90" fill="#231F20"></path>
                        <path d="M161.910088,126.338835 C161.910088,126.338835 161.727213,120.507642 161.301525,118.077673 C161.28073,117.958407 166.161464,117.105807 178.187152,104.229967 C178.187152,104.229967 179.523543,109.999997 179.705194,111.274615 C179.705194,111.274615 176.060546,120.142505 161.910088,126.338835" id="path92" fill="#231F20"></path>
                        <path d="M160.512534,113.765746 C160.512534,113.765746 159.479507,108.785318 158.933329,107.20489 C158.933329,107.20489 165.796938,101.738224 173.509476,86.4947991 C173.509476,86.4947991 175.940057,94.0850129 176.364522,95.3608539 C176.364522,95.3608539 169.744338,107.874003 160.512534,113.765746" id="path94" fill="#231F20"></path>
                        <polygon id="path96" fill="#231F20" points="184.078283 128.402443 183.532106 125.305196 195.740056 115.891129"></polygon>
                        <polygon id="path98" fill="#231F20" points="182.863604 115.466664 182.075225 111.456878 192.702747 102.468499"></polygon>
                        <polygon id="path100" fill="#231F20" points="179.584705 98.5210985 178.551677 93.8440344 188.391433 81.6972457"></polygon>
                        <polygon id="path102" fill="#231F20" points="174.664216 81.878897 172.659323 77.8715577 181.22446 64.6281329"></polygon>
                        <path d="M170.109476,77.080732 C170.109476,77.080732 169.136999,72.5853193 164.338834,65.7822614 C164.338834,65.7822614 158.933329,83.6409765 153.041586,90.1993861 C153.041586,90.1993861 157.341892,101.63486 157.353513,101.618346 C168.894797,86.1914352 170.109476,77.080732 170.109476,77.080732" id="path104" fill="#231F20"></path>
                        <path d="M162.158406,45.7547389 C162.255042,49.9701517 162.358406,53.3792036 162.358406,53.3792036 C154.733941,37.393944 145.636082,19.2660546 127.175532,6.55724754 C127.175532,6.55724754 131.723544,6.95718637 136.338835,10.1694187 C139.857489,12.6170639 145.902749,17.4335775 148.311923,18.9315592 C150.787152,20.4677671 157.845868,25.4611003 160.35229,31.0385313 C161.819568,34.3021398 162.040363,40.6385923 162.158406,45.7547389" id="path106" fill="#231F20"></path>
                        <path d="M29.9758402,77.2978574 C29.9758402,77.2978574 23.137186,67.6825671 24.4253817,65.3045855 C29.644036,55.6715582 33.3572469,47.417797 34.5355343,44.8874607 C41.2755341,30.4164518 40.0181641,27.4703969 42.1676442,25.7582868 C49.0073382,20.3065438 64.9058088,16.3321708 70.5149829,13.7638529 C89.3473984,5.14000599 90.636695,6.13223226 93.2134533,4.84398765 C98.4470923,2.22572471 102.133331,3.753584 102.133331,3.753584 C69.1272154,16.1436693 44.5460539,51.6270323 29.9758402,77.2978574" id="path108" fill="#231F20"></path>
                        <path d="M88.6764504,169.291127 C88.6764504,169.291127 87.3137593,167.076448 88.8042791,164.436082 C89.352903,163.464828 90.1792026,162.431189 91.8709457,162.00917 C94.0984686,161.451984 95.6226276,162.019568 96.6409762,162.732718 C98.5810373,164.091739 98.7278263,166.522932 98.7278263,166.522932 C97.3217101,167.119262 95.1076429,167.629965 95.1076429,167.629965 C95.4055022,166.990822 94.9376123,165.118039 93.062383,165.373085 C91.8171231,165.543115 91.1461751,167.757794 92.5516796,168.481953 C92.5516796,168.481953 90.1675818,169.546785 88.6764504,169.291127" id="path110" fill="#FFFFFF"></path>
                        <path d="M134.077061,166.736387 C134.886847,167.332106 137.994492,168.652595 137.994492,168.652595 C136.888682,166.608559 138.592045,165.585317 139.612841,165.842198 C140.911311,166.166357 141.913146,168.140669 139.869721,169.206112 C139.869721,169.206112 143.489905,169.930271 144.04281,170.0581 C144.04281,170.0581 144.936999,168.013451 144.638528,166.820791 C144.114369,164.721708 142.516204,162.934553 141.232412,162.562075 C138.292963,161.710088 136.29174,162.90336 135.439752,163.881953 C134.623238,164.820791 134.077061,166.736387 134.077061,166.736387" id="path112" fill="#FFFFFF"></path>
                        <path d="M99.4238507,124.366969 C98.7339425,115.691129 104.846481,108.198162 104.846481,108.198162 C102.332108,113.768193 106.127826,119.931495 106.127826,119.931495 L112.536389,117.860548 L128.606113,118.993881 L131.910088,122.19755 C132.501526,121.754125 135.606724,120.177979 131.958406,110.220181 C131.958406,110.220181 140.782871,124.662994 138.761464,126.043422 C137.406724,126.968193 130.62752,122.247092 130.62752,122.247092 C127.66911,123.233024 125.106419,124.46544 122.493575,124.31804 C118.057489,124.066664 106.028744,121.113147 106.028744,121.113147 L99.4238507,124.366969" id="path114" fill="#FFFFFF"></path>
                        <path d="M104.698468,99.7688048 L105.486848,87.494799 C105.486848,87.494799 110.423239,88.5963281 110.859324,88.6764504 C111.317428,88.7608541 118.156572,89.5639121 118.944951,89.5639121 C119.784706,89.5639121 122.285012,89.1266033 125.058101,88.4788969 C126.536388,88.135166 128.064217,87.5926584 128.952902,87.1975513 L130.52966,99.0788966 L126.437917,91.733331 C126.437917,91.733331 118.896633,93.4581016 118.106419,93.4581016 C117.26911,93.4581016 109.035471,92.0782852 109.035471,92.0782852 L104.698468,99.7688048" id="path116" fill="#FFFFFF"></path>
                        <path d="M154.617122,7.39987749 L155.02018,7.39987749 C155.492351,7.39987749 155.874002,7.55779798 155.874002,7.94006096 C155.874002,8.27694169 155.626907,8.5003056 155.086846,8.5003056 C154.862993,8.5003056 154.705807,8.47761447 154.617122,8.45492334 L154.617122,7.39987749 Z M154.594492,5.33448305 L153.740057,5.33448305 L153.740057,8.99443403 C154.077672,9.06061139 154.549232,9.12917408 155.156571,9.12917408 C155.850761,9.12917408 156.165134,9.01712516 156.43547,8.83553495 C156.637305,8.68024443 156.79388,8.38899062 156.79388,8.05186524 C156.79388,7.62519859 156.479507,7.31198758 156.029354,7.17675823 L156.029354,7.13204875 C156.389599,7.02024447 156.592657,6.72782858 156.703972,6.23376131 C156.81651,5.67349833 156.883177,5.4482017 156.973085,5.33448305 L156.051984,5.33448305 C155.940669,5.47089895 155.874002,5.78530872 155.762687,6.21107018 C155.693574,6.61455641 155.469109,6.79639127 154.998773,6.79639127 L154.594492,6.79639127 L154.594492,5.33448305 Z M155.156571,10.1847092 C153.539446,10.1847092 152.328437,8.85871537 152.328437,7.2429356 C152.328437,5.60540659 153.539446,4.30332711 155.199996,4.30332711 C156.81651,4.28062986 158.005501,5.60540659 158.005501,7.2429356 C158.005501,8.85871537 156.81651,10.1847092 155.176755,10.1847092 L155.156571,10.1847092 Z M155.199996,10.9248315 C157.310088,10.9248315 158.949232,9.28611598 158.949232,7.2429356 C158.949232,5.15648917 157.310088,3.54070939 155.176755,3.54070939 C153.068498,3.54070939 151.384706,5.15648917 151.384706,7.2429356 C151.384706,9.28611598 153.068498,10.9248315 155.176755,10.9248315 L155.199996,10.9248315 L155.199996,10.9248315 Z" id="path118" fill="#231F20"></path>
                    </g>
                </g>
            </g>
        </g>
    </g>
</svg>