<?xml version="1.0" encoding="UTF-8"?>
<svg width="200px" height="200px" viewBox="0 0 200 200" version="1.1" xmlns="http://www.w3.org/2000/svg" xmlns:xlink="http://www.w3.org/1999/xlink">
    <!-- Generator: Sketch 54.1 (76490) - https://sketchapp.com -->
    <title>franklin-pierce</title>
    <desc>Created with Sketch.</desc>
    <g id="franklin-pierce" stroke="none" stroke-width="1" fill="none" fill-rule="evenodd">
        <g id="franklin-pierce_BGL">
            <g id="franklin-pierce" transform="translate(0.000000, 46.000000)">
                <g id="g10" transform="translate(99.999998, 54.463129) scale(-1, 1) rotate(-180.000000) translate(-99.999998, -54.463129) translate(0.000000, 0.185844)" fill-rule="nonzero">
                    <g id="g12">
                        <path d="M140.72271,16.2663713 C122.769908,12.7377283 94.3784637,8.98876084 94.3784637,8.98876084 C71.6678448,8.27525053 66.9115028,10.7584363 62.7005884,27.5504713 C32.4020641,26.5991439 4.21896745,1.00997933 4.27613559,1.29320941 C9.07286113,25.026489 29.5592913,44.3002939 29.5592913,44.3002939 C39.0424769,46.3752201 -3.02185833,58.211503 1.63256043,61.5392315 C20.3065187,74.8905586 35.9339224,83.3436557 38.0946893,83.518582 C50.1215327,84.4923283 19.6315039,92.0483753 19.6315039,92.0483753 C46.1660755,117.816811 129.604422,109.943655 132.593507,74.9837739 C132.593507,74.9837739 165.948373,65.4581105 196.787606,21.6515629 C196.787606,21.6515629 181.173152,25.576961 180.893801,25.576961 C180.893801,25.576961 156.502946,19.3682001 140.72271,16.2663713 L140.72271,16.2663713" id="path14" fill="#231F20"></path>
                        <path d="M30.1979343,43.1492615 C28.0574624,41.0554562 11.853333,24.7029492 6.37041282,4.60740401 C12.2157224,9.23395257 18.3034804,13.3350734 24.5026838,16.820619 C38.0050138,24.4126838 50.8430666,28.4504123 62.6607654,28.8215627 L63.6846592,28.8537161 L63.9339217,27.8598518 C67.9427712,11.8743065 71.9194672,9.55958678 94.2749239,10.2577579 C95.7811185,10.4578168 123.174628,14.1133035 140.477578,17.5141589 L140.72271,16.2663713 L140.477578,17.5141589 C156.041884,20.5734803 180.336574,26.747197 180.579936,26.8094389 L180.734509,26.8483769 L180.893801,26.8483769 C181.082591,26.8483769 181.295276,26.8483769 193.731264,23.7300584 C178.546603,44.4908543 162.999406,56.8702051 152.437164,63.6763996 C140.539525,71.3427711 132.325955,73.7377563 132.244539,73.7610601 L131.401177,74.0017681 L131.326545,74.8755144 C130.433035,85.3283165 121.561354,94.213567 106.346015,99.8952777 C92.9023576,104.915337 75.8348064,106.966959 59.5191726,105.524481 C43.5345122,104.110912 30.4206482,99.5802335 22.2397045,92.6920331 C24.317728,92.1480803 27.5276689,91.2817086 30.704719,90.3209417 C41.4911494,87.0584049 42.27876,85.6820038 42.1696155,84.3398209 C42.0250727,82.5610599 39.5351023,82.359585 38.1973442,82.2513254 C36.321238,82.0215319 21.6173446,74.2253669 2.78058105,60.7964587 C4.417758,59.2176976 11.9247785,56.1020635 17.0169612,53.9884942 C28.4468429,49.2445415 32.4277278,47.3775799 32.2209431,45.0592909 C32.1392322,44.1439517 31.4589963,43.5023588 30.1979343,43.1492615 Z M4.26035388,0 C4.06168131,0 3.85439518,0.0616471961 3.62244829,0.200612974 L2.85259875,0.662796444 L3.02970494,1.54487017 C5.55356918,14.0321825 12.3960764,25.2437162 17.691858,32.4498517 C23.4159581,40.238937 28.475309,45.0265475 28.6879049,45.2265475 L28.9440406,45.4675505 L29.1762235,45.5182879 C27.1514447,47.0286124 20.5772856,49.7575209 16.0420055,51.6395267 C4.85884944,56.2814145 0.277585834,58.4026534 0.0125599112,60.7256622 C-0.0692525056,61.4415914 0.251659286,62.1150427 0.893020627,62.5734498 C19.1065187,75.5955733 35.2840699,84.5666646 37.9920344,84.7861336 C38.1893796,84.8020628 38.3675507,84.8194669 38.5286126,84.837461 C35.3330375,86.3923282 26.8482589,88.9495553 19.3255747,90.814157 L17.1026839,91.3648945 L18.7457222,92.9604697 C27.1556925,101.127726 41.5563411,106.489083 59.2949838,108.057519 C75.9749244,109.532741 93.4489652,107.425661 107.235396,102.277579 C123.020646,96.3831834 132.404421,87.05634 133.771383,75.9451308 C136.190852,75.1401161 143.652504,72.3619451 153.814745,65.8141576 C165.035099,58.5837743 181.779052,45.1802349 197.827429,22.3837458 L199.79852,19.5834508 L196.477871,20.4186131 C190.867252,21.828908 182.484361,23.9215628 180.926544,24.2734802 C178.158698,23.5728903 155.692326,17.9126249 140.967843,15.0189082 L140.967843,15.0189082 C123.181708,11.5227431 94.8294962,7.76584051 94.5451304,7.72825939 L94.4185817,7.71802341 C83.3321513,7.37082577 75.941296,7.73035379 70.9660749,10.6041295 C65.9973435,13.4743654 63.6840692,18.7251028 61.7235973,26.2380229 C37.6044238,25.0336572 14.5961353,8.12303815 5.73952788,0.829530953 C5.15407067,0.347530965 4.73174029,0 4.26035388,0 L4.26035388,0 Z" id="path16" fill="#231F20"></path>
                        <path d="M122.395277,68.8477859 C122.395277,68.8477859 116.179938,78.1495556 109.036575,84.9014728 C103.946605,89.7123871 99.5728589,68.8477859 113.53628,64.8790544 C118.33097,63.5165176 122.395277,68.8477859 122.395277,68.8477859 L122.395277,68.8477859" id="path18" fill="#FFFFFF"></path>
                        <path d="M107.509732,84.3430657 C107.426546,84.3430657 107.370204,84.3162221 107.333036,84.298228 C106.329496,83.8132722 105.135396,80.7666646 105.470499,76.9064878 C105.695573,74.3129775 106.965779,68.0684349 113.883773,66.1023582 C116.855159,65.2578155 119.616811,67.6938036 120.790262,68.9377564 C119.130086,71.3168124 113.917401,78.5383461 108.163124,83.977284 C107.850735,84.2725643 107.644835,84.3430657 107.509732,84.3430657 L107.509732,84.3430657 Z M115.146015,63.3817093 C114.512976,63.3817093 113.858994,63.4654851 113.188493,63.6560456 C107.332741,65.3203523 103.500587,70.1914437 102.936871,76.6864288 C102.535691,81.3091425 103.919171,85.4731542 106.226546,86.5881984 C107.437755,87.1725642 108.779053,86.8940981 109.910027,85.8253666 C117.075218,79.0528004 123.195572,69.9389363 123.452504,69.5542755 L123.957224,68.7991133 L123.406487,68.0769894 C123.24159,67.8607653 119.766369,63.3817093 115.146015,63.3817093 L115.146015,63.3817093 Z" id="path20" fill="#231F20"></path>
                        <path d="M133.251029,33.6519166 L143.991442,38.5861347 C143.991442,38.5861347 133.795867,41.1569311 131.480823,42.1831848 C127.865189,43.7855446 115.35044,41.3451317 111.586428,43.5433617 C107.927136,44.6625358 104.493803,46.615928 102.033626,51.8554559 C102.033626,51.8554559 84.2560451,25.8900289 94.3784637,19.849852 C97.0035374,18.2832149 133.251029,33.6519166 133.251029,33.6519166 L133.251029,33.6519166" id="path22" fill="#FFFFFF"></path>
                        <path d="M101.989673,51.2179928 C101.128906,49.914748 98.5997025,45.9802348 96.2675492,41.319173 C92.5162219,33.822418 90.9722691,27.8625067 91.8023576,24.0834802 C92.1923281,22.3071086 93.114157,20.9743653 94.5415906,20.1230673 C96.3663693,19.031268 118.612386,27.7908253 133.122711,33.942772 L143.042179,38.499999 C140.509436,39.1495565 133.290852,41.0330373 131.351914,41.8923293 C129.745719,42.6047187 126.22802,42.4825948 122.504127,42.3530963 C118.112976,42.2011789 113.574333,42.0430668 111.458994,43.2501464 C108.23923,44.2389369 104.620646,45.9719753 101.989673,51.2179928 L101.989673,51.2179928 Z M94.9758088,19.4338933 C94.6277262,19.4338933 94.3752189,19.4817104 94.2156319,19.5766367 C92.6315611,20.5220939 91.6106172,21.9926543 91.1811187,23.947492 C89.1061925,33.3935095 101.253095,51.2784648 101.771089,52.034807 L102.084953,52.493509 L102.321236,51.9905592 C104.873154,46.556341 108.484068,44.8247776 111.679643,43.8471965 L111.7469,43.817993 C113.689673,42.6831848 118.159879,42.837757 122.482003,42.9884945 C126.281708,43.1197629 129.869908,43.2448367 131.609436,42.4737453 C133.873743,41.4702055 143.967548,38.920058 144.069318,38.8943943 L144.943654,38.6737453 L133.375218,33.3592912 C133.284362,33.3209431 124.201177,29.4733916 114.914451,25.8669905 C103.705307,21.5142178 97.2699091,19.4338933 94.9758088,19.4338933 L94.9758088,19.4338933 Z" id="path24" fill="#231F20"></path>
                        <path d="M122.381118,17.3052503 L119.906487,17.890501 L128.905896,55.9238924 L131.380528,55.3383467 L122.381118,17.3052503 Z M100.55339,17.3052503 L98.0787586,17.890501 L107.078463,55.9238924 L109.553095,55.3383467 L100.55339,17.3052503 Z M107.64159,17.3052503 L105.167254,17.890501 L114.166664,55.9238924 L116.641295,55.3383467 L107.64159,17.3052503 Z M115.068729,17.3052503 L112.594097,17.890501 L121.593802,55.9238924 L124.068433,55.3383467 L115.068729,17.3052503 L115.068729,17.3052503 Z" id="path26" fill="#231F20"></path>
                        <path d="M113.269024,74.7645999 C113.269024,78.4292016 115.564009,81.399703 118.394392,81.399703 C121.225366,81.399703 123.520056,78.4292016 123.520056,74.7645999 C123.520056,71.0999982 121.225366,68.1294968 118.394392,68.1294968 C115.564009,68.1294968 113.269024,71.0999982 113.269024,74.7645999 L113.269024,74.7645999" id="path28" fill="#231F20"></path>
                        <path d="M118.394392,81.0820039 C115.743655,81.0820039 113.587313,78.2480806 113.587313,74.7645999 C113.587313,71.2811192 115.743655,68.4471959 118.394392,68.4471959 C121.04572,68.4471959 123.202062,71.2811192 123.202062,74.7645999 C123.202062,78.2480806 121.04572,81.0820039 118.394392,81.0820039 Z M118.394392,67.8115027 C115.393212,67.8115027 112.95103,70.9306767 112.95103,74.7645999 C112.95103,78.5985231 115.393212,81.7176971 118.394392,81.7176971 C121.396162,81.7176971 123.838345,78.5985231 123.838345,74.7645999 C123.838345,70.9306767 121.396162,67.8115027 118.394392,67.8115027 L118.394392,67.8115027 Z" id="path30" fill="#231F20"></path>
                        <path d="M27.5765185,94.2032425 C27.5762825,94.2029475 109.824186,105.695573 129.679053,73.5884937 C129.679053,73.5884937 129.93097,82.4209419 120.417696,90.0625346 C103.608552,102.319761 62.6466061,110.849555 27.5765185,94.2032425 L27.5765185,94.2032425" id="path32" fill="#6A142C"></path>
                        <path d="M59.9433613,96.5238914 C63.6023583,96.5238914 67.4212373,96.4424755 71.3171074,96.2474902 C84.7002929,95.5772837 96.2017675,93.6905581 105.502652,90.6389358 C116.612681,86.9938031 124.604717,81.6640098 129.280528,74.7870188 C128.967253,77.4268417 127.457519,83.9999979 120.218581,89.814452 C111.233036,96.3663693 96.4985227,101.170204 80.8150422,102.65516 C68.0330366,103.865189 48.934807,103.431856 29.5820052,94.7775788 C34.1663708,95.3224165 45.8702053,96.5238914 59.9433613,96.5238914 L59.9433613,96.5238914 Z M129.966663,72.5191722 L129.408551,73.4212371 C124.927431,80.6678446 116.817696,86.25752 105.304422,90.034806 C96.0575197,93.0687292 84.6117973,94.9451304 71.2855439,95.612682 C48.5631256,96.7489651 28.465486,94.0056024 27.6210023,93.8884932 L27.3537751,93.8513251 L27.1911793,94.372269 L27.4403238,94.4905581 C47.5572259,104.038935 67.6023582,104.545425 80.8749242,103.288198 C96.6672542,101.792623 111.519466,96.9445403 120.605012,90.3191718 C130.143065,82.658405 129.999407,73.6693197 129.997047,73.5793492 L129.966663,72.5191722 L129.966663,72.5191722 Z" id="path34" fill="#6A142C"></path>
                        <polyline id="path36" fill="#231F20" points="130.171088 17.3052503 127.696752 17.890501 136.696162 55.9238924 139.170793 55.3383467 130.171088 17.3052503"></polyline>
                        <path d="M95.072859,71.2179923 C95.072859,71.2179923 117.43156,54.571975 122.395277,64.8790544 C124.406782,69.0563405 133.440115,71.4412961 139.410321,69.1336266 C148.171088,65.747491 161.467843,53.8914441 166.507075,50.2887893 C178.184066,41.9410019 191.453093,26.896194 191.453093,26.896194 C191.453093,26.896194 153.605601,40.0890845 141.281412,45.6250726 C129.438935,50.9451315 115.326251,45.1280225 109.824186,50.0106182 C102.680528,56.3492611 95.072859,71.2179923 95.072859,71.2179923 L95.072859,71.2179923" id="path38" fill="#6A142C"></path>
                        <path d="M127.367548,48.3822997 C131.980528,48.3822997 136.840115,47.9687304 141.411796,45.9150431 C152.364008,40.9952792 183.907075,29.8781703 190.388196,27.605899 C187.308255,31.0008842 176.179642,42.9834798 166.32212,50.0300872 C165.030969,50.9533911 163.190261,52.4238925 161.058698,54.1262523 C154.973742,58.9864292 145.778167,66.3315618 139.295572,68.8371664 C133.644244,71.0224171 124.63746,68.8020632 122.681708,64.7410013 C121.84513,63.0038332 120.478168,61.8914439 118.618876,61.4345117 C115.191738,60.5914439 110.1469,61.9445412 103.628316,65.4563405 C100.331856,67.2318567 97.4743338,69.1395263 95.9831834,70.1781693 C97.9463102,66.5351016 104.188493,55.4359868 110.0351,50.2483763 C112.609437,47.9640106 117.266074,48.1123882 122.658994,48.2834796 C124.183478,48.3318572 125.760469,48.3822997 127.367548,48.3822997 L127.367548,48.3822997 Z M191.348668,26.596135 C190.970202,26.7279639 153.346899,39.8569312 141.151324,45.3348071 C135.120941,48.0442466 128.510321,47.8336271 122.679053,47.6480814 C117.15103,47.4722702 112.377283,47.3200578 109.613272,49.7728601 C102.507077,56.0781697 94.8663693,70.923892 94.7899681,71.0731546 L95.2628295,71.4728596 C95.4156318,71.3592903 110.628611,60.1233023 118.467549,62.0519159 C120.13333,62.4613554 121.358404,63.4589955 122.108847,65.0171075 C124.223006,69.4076679 133.500587,71.7587003 139.524775,69.4300868 C146.098521,66.8893789 154.974332,59.7994085 161.455453,54.6230075 C163.579937,52.9262524 165.414745,51.4607657 166.692031,50.5474914 C178.264597,42.2743352 191.558697,27.2572265 191.691736,27.106489 L191.348668,26.596135 L191.348668,26.596135 Z" id="path40" fill="#6A142C"></path>
                        <path d="M130.466663,62.9846592 C130.466663,63.8026533 131.577873,64.4660751 132.948669,64.4660751 C134.319466,64.4660751 135.43038,63.8026533 135.43038,62.9846592 C135.43038,62.1663701 134.319466,61.5032433 132.948669,61.5032433 C131.577873,61.5032433 130.466663,62.1663701 130.466663,62.9846592 L130.466663,62.9846592" id="path42" fill="#231F20"></path>
                        <path d="M132.948669,64.148081 C131.775808,64.148081 130.784657,63.6153376 130.784657,62.9846592 C130.784657,62.3539807 131.775808,61.8212374 132.948669,61.8212374 C134.121826,61.8212374 135.112386,62.3539807 135.112386,62.9846592 C135.112386,63.6153376 134.121826,64.148081 132.948669,64.148081 Z M132.948669,61.1852492 C131.378758,61.1852492 130.148669,61.9758097 130.148669,62.9846592 C130.148669,63.9935087 131.378758,64.7837742 132.948669,64.7837742 C134.518876,64.7837742 135.748669,63.9935087 135.748669,62.9846592 C135.748669,61.9758097 134.518876,61.1852492 132.948669,61.1852492 L132.948669,61.1852492 Z" id="path44" fill="#231F20"></path>
                        <path d="M9.57746289,61.5032433 C9.57746289,61.5032433 46.0395269,91.4197617 99.1088471,83.3032428 C99.1088471,83.3032428 76.6100276,80.9330363 54.5749249,76.9643049 C39.5743353,74.26283 9.57746289,61.5032433 9.57746289,61.5032433 L9.57746289,61.5032433" id="path46" fill="#6A142C"></path>
                        <path d="M80.9831838,84.3657796 C61.6814144,84.3657796 45.6032437,79.6843638 34.562831,75.1528005 C23.2438047,70.5067829 15.3045424,65.2890839 11.7980233,62.7740397 C19.1674626,65.8168125 42.0952792,75.0398211 54.5185827,77.2772842 C72.0707947,80.4383461 90.1047175,82.6058976 96.5775787,83.3421808 C91.1843635,84.0525053 85.976694,84.3657796 80.9831838,84.3657796 L80.9831838,84.3657796 Z M9.70179917,61.2106179 L9.37581098,61.748966 C9.4672859,61.8241872 18.7088491,69.3324466 34.3215331,75.7410011 C48.7280224,81.6545702 71.6704997,87.8218267 99.1569297,83.617402 L99.1421804,82.9870186 C98.9171067,82.9634198 76.402063,80.5725644 54.6312671,76.6513255 C39.8371671,73.9870188 10.0015042,61.3380516 9.70179917,61.2106179 L9.70179917,61.2106179 Z" id="path48" fill="#6A142C"></path>
                        <path d="M10.364926,8.18849537 C10.364926,8.18849537 40.1477866,68.8477859 88.7171069,68.2551605 C88.7171069,68.2551605 73.0870188,65.5026532 53.1828895,52.793804 C34.2560463,40.7088485 10.364926,8.18849537 10.364926,8.18849537 L10.364926,8.18849537" id="path50" fill="#6A142C"></path>
                        <path d="M85.7436557,67.8961635 C75.7289067,67.4967535 65.7884939,64.4598804 56.151621,58.8492611 C47.6684354,53.9103231 39.399704,46.9775799 31.5746305,38.2433619 C22.1177871,27.6875804 15.5884657,16.9949553 12.5637165,11.6135395 C19.1586131,20.1618874 37.780825,43.3365771 53.0117981,53.0619456 C63.3188775,59.6430664 72.4566354,63.5070781 78.3073727,65.5896739 C81.418582,66.6973435 83.95811,67.4330367 85.7436557,67.8961635 Z M10.6212092,8.00032428 L10.0796163,8.32825938 C10.154277,8.48047176 17.6995866,23.7056336 31.0908547,38.6560462 C38.961061,47.4427717 47.2825947,54.4200576 55.8244824,59.3943938 C66.5162225,65.6206473 77.5899686,68.7100278 88.7209417,68.5731546 L88.7722692,67.9421812 C88.616517,67.9147476 72.9681398,65.0498509 53.353981,52.5259574 C34.6929195,40.6106185 10.8597342,8.32480805 10.6212092,8.00032428 L10.6212092,8.00032428 Z" id="path52" fill="#6A142C"></path>
                        <path d="M137.453094,30.5412972 C142.728315,32.3725656 148.918875,35.3587012 148.851619,35.2439519 C151.01799,34.5997041 173.027429,27.0731852 174.042179,26.9934507 C172.902651,26.7186424 145.862828,21.4029198 145.862828,21.4029198 C145.862828,20.9059287 127.159289,17.2510025 111.195572,15.0493212 C108.922416,14.3542474 83.7150422,8.05424759 75.9696146,17.6164892 C71.0070779,23.7421528 74.5722695,35.4533914 79.2380511,43.1542762 C89.6044225,60.2640103 99.6029474,54.4224175 99.6029474,54.4224175 C99.6029474,54.4224175 80.2713844,28.8846895 90.915042,15.6153093 C91.994688,14.2695572 98.2058972,16.282271 101.195278,16.9495571 C103.916517,17.5566957 126.23864,26.6487014 137.453094,30.5412972 L137.453094,30.5412972" id="path54" fill="#6A142C"></path>
                        <path d="M95.293213,55.0646004 C94.6858383,55.0646004 94.0250714,55.012388 93.3194667,54.8834795 C89.9321511,54.2646004 84.7864286,51.6985238 79.5100275,42.9893795 C74.6286117,34.9330375 71.5162224,23.6192029 76.2165173,17.8165187 C80.1769891,12.9277283 88.9519152,12.3914451 95.6150419,12.803864 C102.980528,13.2586722 109.807372,14.9572563 111.102652,15.3533919 L111.15221,15.3643654 C126.465779,17.4763712 143.82625,20.8477281 145.544834,21.570206 L145.544834,21.6646012 L145.801471,21.7150732 C146.041294,21.7619464 167.147193,25.9117988 172.684951,27.0350436 C170.103831,27.8197633 164.141589,29.8112087 156.879642,32.2460169 C153.075512,33.5218281 149.771973,34.6294977 148.851619,34.9120935 C148.667548,34.8371673 148.204421,34.6297926 147.680527,34.3949844 C145.6233,33.4731555 141.342179,31.5548665 137.557224,30.2410022 L137.557224,30.2407072 C131.945424,28.2928901 123.588198,25.0566955 116.214746,22.2014449 C108.933921,19.3822709 102.646015,16.9474922 101.264304,16.6392326 C100.666369,16.5055748 99.9247763,16.3144244 99.1395255,16.1120645 C94.9002926,15.0185542 91.5846585,14.2731265 90.6672544,15.4161943 C86.236576,20.939793 86.3433607,29.4828606 90.9761039,40.1215329 C94.0221215,47.116223 98.1191716,52.9277273 99.1218264,54.3053084 C98.5333309,54.5672553 97.1696141,55.0646004 95.293213,55.0646004 Z M91.9997027,12.0369024 C85.5144521,12.0369024 79.0784641,13.2734215 75.722417,17.4162238 C70.8286118,23.457551 73.9734495,35.0784652 78.9660747,43.318878 C81.9560451,48.2533911 86.8613548,54.3752199 93.2522101,55.5174027 C97.1185816,56.2088482 99.6572246,54.7589957 99.7634193,54.6970488 L100.072564,54.5162228 L99.8566347,54.2306771 C99.6645993,53.9769898 80.7964582,28.7380229 91.1631246,15.8142179 C91.8961629,14.9009141 96.331266,16.0441884 98.9808235,16.7277282 C99.771089,16.9312385 100.517697,17.1242474 101.125956,17.2598521 C102.461059,17.5574922 108.728316,19.9846603 115.985248,22.7943947 C123.363419,25.6516218 131.72625,28.8896453 137.348669,30.8415921 L137.348669,30.8415921 C141.107666,32.1463119 145.371678,34.0569313 147.420645,34.9752204 C148.71681,35.5560463 148.892622,35.6348074 149.024775,35.5238929 C149.93451,35.2457218 153.103831,34.183185 157.082002,32.8489667 C163.587902,30.6675509 173.41976,27.3704713 174.067547,27.3103238 L174.11681,26.6844241 C173.008845,26.417079 148.175513,21.5339228 146.034805,21.1129788 C145.762828,20.9282886 144.985247,20.6964302 142.760173,20.1997045 C140.706486,19.7418874 137.875808,19.1723004 134.574038,18.5528314 C126.894097,17.1127134 118.398522,15.7223595 111.261354,14.7375218 C110.671384,14.5713566 101.285248,12.0369024 91.9997027,12.0369024 L91.9997027,12.0369024 Z" id="path56" fill="#6A142C"></path>
                        <polyline id="path58" fill="#231F20" points="93.4404106 17.3052503 90.9657794 17.890501 99.9654842 55.9238924 102.440115 55.3383467 93.4404106 17.3052503"></polyline>
                    </g>
                </g>
            </g>
        </g>
    </g>
</svg>