<svg width="200" height="200" viewBox="0 0 200 200" fill="none" xmlns="http://www.w3.org/2000/svg">
<g clip-path="url(#clip0_11_241920)">
<path d="M141.96 16.4975C139.24 15.199 123.551 8.82778 104.057 8C103.314 8.49824 102.183 9.18871 100.002 10.9345C97.8251 9.19264 96.6856 8.49824 95.943 8C76.4652 8.82386 60.7438 15.2068 58.0404 16.4975C15.5838 4.99487 -16.6133 44.6069 9.27328 70.1505C-3.08453 112.532 29.8238 149.465 62.7203 160.791C73.027 184.267 90.5362 179.32 99.2122 193H100.792C109.417 179.367 127.024 184.224 137.284 160.791C170.094 149.512 203.112 112.544 190.731 70.1505C216.613 44.6108 184.424 4.99487 141.964 16.5015L141.96 16.4975Z" fill="white"/>
<path d="M141.516 21.9311C130.686 16.9565 117.578 13.92 105.503 13.2178C103.633 14.5006 101.578 16.2425 99.9981 17.9922C98.4224 16.2464 96.3634 14.5006 94.497 13.2217C82.4221 13.92 69.3138 16.9565 58.4845 21.935C16.9002 9.96156 -10.4717 47.5767 15.0809 68.4636C2.55806 108.542 31.0773 144.788 66.6615 156.73C74.9878 178.724 88.1825 173.302 100.002 186.158C111.759 173.349 125.075 178.661 133.343 156.727C168.927 144.784 197.446 108.539 184.923 68.4596C210.476 47.5728 183.104 9.95371 141.52 21.9311H141.516Z" fill="#0A2240"/>
<path d="M99.9941 49.0715C93.8408 49.2362 87.7935 50.3269 81.9584 52.1825C74.8974 63.4224 68.1153 77.1338 75.9229 82.0142C81.7816 78.3892 87.9782 76.251 94.1865 75.439C95.2592 73.5205 96.5795 71.6688 98.1512 70.0917C97.0039 62.4651 89.8918 60.6722 87.8839 69.6484C82.7089 69.209 75.5732 56.0704 99.9941 55.2544C124.391 56.039 117.264 69.2404 112.104 69.6484C110.34 61.2097 103.13 61.9237 101.861 70.0564C103.452 71.6492 104.788 73.5205 105.868 75.4586C112.273 76.3177 118.466 78.5461 124.061 82.0063C132.258 76.9141 124.313 62.2846 118.03 52.1825C112.195 50.3308 106.147 49.2402 99.9941 49.0715Z" fill="#FFB71B"/>
<path d="M76.2255 143.792C76.2255 143.792 75.086 158.233 90.7798 164.604C90.7798 164.604 103.409 170.356 115.88 161.658C115.88 161.658 108.175 161.658 105.597 157.119C105.597 157.119 116.973 156.193 123.786 144.898C123.786 144.898 100.493 163.894 76.2255 143.796V143.792Z" fill="#FFB71B"/>
<path d="M157.17 26.788C152.298 26.8037 146.903 27.7178 141.134 29.797C135.24 25.7523 123.594 22.7275 109.523 21.782C107.597 21.986 102.961 25.254 100.002 28.5299C97.0903 25.3011 92.548 22.0802 90.5676 21.7899C76.587 22.7471 65.0151 25.7523 59.1328 29.7735C34.6019 18.3846 -0.0667741 40.9976 25.9534 56.9805C18.3815 47.3806 34.0911 40.5739 43.3211 41.2212C9.29687 73.5048 22.8688 118.382 61.0032 137.256C49.9617 125.035 47.663 110.006 47.1758 105.447C58.1387 116.424 70.6262 124.918 81.1608 125.742C66.2528 115.133 62.0327 97.7185 61.2979 91.1041C66.5161 95.8746 72.8227 100.951 78.0841 103.976C77.086 100.582 76.1037 97.236 75.1331 93.9287C61.8205 85.7333 63.8559 75.4193 71.1998 62.2454C70.5397 61.6255 62.96 57.8122 57.6947 58.9264C59.0424 57.4709 60.3902 56.1018 61.7419 54.7875C58.9246 52.5003 55.0424 51.0095 51.1523 52.5945C54.3036 49.6364 57.455 47.5414 60.6063 45.7799C73.5221 50.7035 90.0647 47.1256 94.5127 40.1659C96.3791 41.4449 98.4263 43.1867 99.9981 44.9286C101.134 43.6144 103.495 41.4802 105.645 40.0561C110.045 47.1177 126.623 50.7113 139.622 45.7721C143.068 47.6984 146.14 49.8326 149.076 52.5866C144.14 50.8526 141.178 52.8416 138.486 54.7796C139.834 56.0978 141.182 57.4631 142.533 58.9186C134.902 58.6086 130.619 61.3548 130.003 61.7001C130.73 80.9274 143.193 97.8911 168.192 101.987C168.192 101.987 161.622 96.4553 159.209 90.3312C164.597 90.6019 169.465 89.2602 175.74 86.0981C175.74 86.0981 181.123 63.9441 157.131 41.1977C166.601 40.8132 181.827 47.4277 174.279 56.9727C192.542 48.1574 181.155 26.7017 157.174 26.7801L157.17 26.788Z" fill="#FFB71B"/>
<path d="M68.3511 52.5435C69.192 55.7251 73.3492 56.1174 74.9485 55.631C75.4632 54.713 76.0054 53.7714 76.5831 52.8063C74.2451 53.0888 71.5142 53.0613 68.3511 52.5435Z" fill="white"/>
<path d="M123.421 52.7906C123.999 53.7557 124.541 54.6972 125.056 55.6152C126.655 56.1017 130.812 55.7094 131.653 52.5277C128.486 53.0456 125.759 53.0691 123.421 52.7906Z" fill="white"/>
<path d="M80.147 87.0829C81.3769 91.2806 82.6342 95.549 83.9074 99.888C84.2178 99.7468 84.5282 99.6095 84.8386 99.4761C85.8642 95.0979 86.9015 90.7628 87.9507 86.4748C88.0096 86.4552 88.0725 86.4355 88.1314 86.4159C88.3986 87.3339 88.6658 88.2559 88.9369 89.1817C89.1727 88.966 89.4477 88.7541 89.7582 88.554C90.0882 87.228 90.4222 85.902 90.7523 84.5838C90.9723 84.5289 91.1924 84.4779 91.4124 84.4269C91.6953 85.4038 91.9743 86.3845 92.2572 87.3693C92.6659 87.2241 93.0981 87.0907 93.55 86.9691C93.8211 85.9334 94.0883 84.9016 94.3555 83.8737C94.5598 83.8423 94.7642 83.8149 94.9685 83.7874C95.2239 84.6897 95.4793 85.596 95.7347 86.5022C96.2023 86.4277 96.6817 86.361 97.1768 86.31C97.4283 85.3763 97.6797 84.4426 97.9312 83.5128C98.1277 83.501 98.3202 83.4932 98.5167 83.4853C98.7642 84.3798 99.0118 85.2743 99.2593 86.1727C99.5265 86.1648 99.7937 86.1609 100.065 86.1609C100.293 86.1609 100.525 86.1609 100.749 86.1688C100.996 85.2704 101.244 84.3759 101.491 83.4853C101.715 83.4932 101.943 83.505 102.167 83.5167C102.419 84.4465 102.67 85.3763 102.918 86.3061C103.413 86.3571 103.9 86.4238 104.367 86.4983C104.623 85.596 104.878 84.6976 105.134 83.7992C105.338 83.8267 105.542 83.8541 105.743 83.8855C106.01 84.9094 106.277 85.9334 106.544 86.9612C107 87.0829 107.436 87.2202 107.849 87.3653C108.128 86.3924 108.411 85.4194 108.69 84.4504C108.878 84.4936 109.071 84.5407 109.26 84.5877C109.586 85.8785 109.912 87.1731 110.234 88.4717C110.56 88.6757 110.851 88.8875 111.102 89.1033C111.362 88.2049 111.625 87.3104 111.884 86.4198C111.939 86.4395 111.994 86.4552 112.049 86.4748C113.099 90.7628 114.132 95.0939 115.161 99.4761C115.472 99.6095 115.782 99.7468 116.093 99.888C117.366 95.549 118.623 91.2806 119.853 87.0829C113.098 82.8498 97.1021 77.0514 80.147 87.0829Z" fill="white"/>
<path d="M111.318 138.021C110.898 134.176 110.627 130.23 110.513 126.197C110.285 126.232 110.061 126.263 109.833 126.299C109.153 128.488 107.271 135.506 106.568 138.351C106.462 138.378 106.352 138.409 106.246 138.437C106.132 137.652 106.014 136.864 105.896 136.075C105.668 136.287 105.413 136.487 105.126 136.671C104.843 137.837 104.572 139.002 104.301 140.167C104.14 140.194 103.978 140.222 103.821 140.245C103.672 139.335 103.519 138.425 103.358 137.511C102.996 137.637 102.611 137.754 102.21 137.852C102.022 138.731 101.833 139.61 101.652 140.489C101.483 140.5 101.314 140.508 101.145 140.516C100.996 139.724 100.843 138.931 100.686 138.143C100.23 138.177 99.7767 138.177 99.3261 138.143C99.1689 138.935 99.0157 139.728 98.8664 140.52C98.6974 140.512 98.5285 140.504 98.3595 140.493C98.1787 139.614 97.9901 138.735 97.8015 137.856C97.4007 137.758 97.0196 137.644 96.6542 137.515C96.4931 138.425 96.3398 139.339 96.1905 140.249C96.0294 140.226 95.8683 140.198 95.7111 140.171C95.4439 139.006 95.1689 137.841 94.8859 136.675C94.5952 136.491 94.3398 136.291 94.1158 136.079C93.994 136.868 93.8761 137.656 93.7622 138.445C93.6561 138.417 93.55 138.39 93.4439 138.362C92.7405 135.518 90.8584 128.496 90.1786 126.303C89.9468 126.271 89.7189 126.236 89.487 126.201C89.3691 130.234 89.1019 134.18 88.6776 138.029C88.6776 138.045 88.6776 138.056 88.6736 138.072C88.544 139.178 89.5892 141.238 90.6973 141.642C93.7229 142.741 96.8546 143.29 99.998 143.294C103.145 143.294 106.277 142.744 109.299 141.646C110.411 141.238 111.456 139.182 111.326 138.076C111.326 138.06 111.326 138.048 111.322 138.033L111.318 138.021Z" fill="white"/>
</g>
<defs>
<clipPath id="clip0_11_241920">
<rect width="200" height="185" fill="white" transform="translate(0 8)"/>
</clipPath>
</defs>
</svg>
