<?xml version="1.0" encoding="UTF-8"?>
<svg width="200px" height="200px" viewBox="0 0 200 200" version="1.1" xmlns="http://www.w3.org/2000/svg" xmlns:xlink="http://www.w3.org/1999/xlink">
    <!-- Generator: Sketch 54.1 (76490) - https://sketchapp.com -->
    <title>fredonia-st</title>
    <desc>Created with Sketch.</desc>
    <g id="fredonia-st" stroke="none" stroke-width="1" fill="none" fill-rule="evenodd">
        <g id="fredonia-st_BGL">
            <g id="fredonia-st" transform="translate(0.000000, 31.000000)">
                <g id="g10" transform="translate(99.999998, 69.042254) scale(-1, 1) rotate(-180.000000) translate(-99.999998, -69.042254) translate(0.000000, 0.262913)" fill-rule="nonzero">
                    <g id="g12">
                        <path d="M137.379809,102.103284 C137.379809,108.681218 144.203283,110.304692 147.385912,114.63333 C147.749292,111.48826 146.508917,109.193894 146.508917,109.193894 C151.720184,110.987791 152.78779,116.881687 152.090607,121.809387 C152.003752,122.418776 151.884034,123.007978 151.740372,123.577462 C153.5784,122.000936 156.295771,120.763847 156.295771,120.763847 L143.222062,93.5131432 C138.439903,96.7093873 137.379809,100.182627 137.379809,102.103284 L137.379809,102.103284 Z M162.730043,117.682626 C164.585911,116.386382 166.722062,115.949762 167.928165,115.803283 C166.031451,114.935208 164.191076,113.777462 162.638494,112.27934 C158.266663,108.06103 159.195301,102.830044 159.195301,102.830044 C161.158681,105.862908 163.724879,107.046946 163.724879,107.046946 C162.453987,102.081688 164.461498,95.5694812 160.817367,91.8107958 C160.817367,91.8107958 160.590137,94.8286361 161.38685,99.2136125 C161.38685,99.2136125 156.23239,96.2244107 154.440841,89.6840353 C152.163846,89.6492935 149.653048,90.4300447 149.653048,90.4300447 L162.730043,117.682626 Z M151.850231,67.751172 C151.850231,67.751172 152.721592,71.7267588 152.198118,73.5399043 C152.198118,73.5399043 150.942719,75.1089183 148.467602,76.0502328 C148.467602,76.0502328 146.271358,78.5600919 144.562438,79.6070403 L147.048823,84.8154908 C147.048823,84.8154908 150.339433,83.4769932 152.904691,83.1976505 C152.094832,78.3516412 155.371358,74.9347399 151.850231,67.751172 Z M190.8953,39.1116422 L190.091545,39.3417831 C184.466193,40.9455858 178.919244,42.3407971 173.562906,43.5548815 C173.245066,44.1019238 173.023939,44.7183087 173.023939,45.3867594 C173.023939,47.9070411 176.366662,49.3159612 176.366662,53.7563367 C176.366662,59.4352098 173.074644,61.9680736 173.074644,61.9680736 C172.818306,65.5661955 171.430982,67.6563363 171.430982,67.6563363 C173.803752,73.4403738 178.200935,77.972768 178.200935,77.972768 C176.983094,78.4070403 175.790606,78.5807492 174.654456,78.5774628 L174.655395,78.5779323 L174.628634,78.5779323 C174.619714,78.5779323 174.611263,78.5779323 174.602343,78.5779323 L164.173705,78.5779323 C162.978869,80.7671341 161.594832,83.1122045 161.535677,84.6708899 C169.002343,88.4638476 169.700465,97.7056314 169.700465,97.7056314 C168.761029,99.6699506 169.057742,103.974645 169.057742,103.974645 C171.233799,101.446476 176.192484,101.847885 176.192484,101.847885 C168.375583,107.02488 172.809385,115.422532 177.474174,117.863847 C175.271357,117.976523 172.138493,117.502814 169.042249,116.279809 L169.102813,116.49718 C163.465254,120.384035 168.034738,137.467133 168.034738,137.467133 C160.906099,127.24272 155.799057,124.829574 151.488259,124.479809 C150.186381,128.710795 147.662438,131.573706 147.662438,131.573706 C147.407039,118.205631 135.1061,120.768542 135.1061,120.768542 C137.284504,118.589668 141.284034,117.201406 141.284034,117.201406 C138.407508,114.103753 131.156335,111.500467 131.156335,102.786852 C131.156335,91.9375564 140.492954,87.8239415 140.492954,87.8239415 L137.692485,81.9868524 C135.239433,81.8577444 132.591546,81.3953031 132.591546,81.3953031 C131.18826,81.997181 129.469011,82.1591529 129.469011,82.1591529 C125.795772,80.4938947 124.154926,75.945538 124.154926,75.945538 C123.446476,80.6643172 131.134269,85.7037537 127.778401,100.051641 C124.730513,104.013143 126.695302,111.352579 123.081687,115.913143 C127.805161,121.959621 123.866194,131.031922 119.594833,133.043189 C120.47934,127.134269 116.283565,123.674175 116.283565,123.674175 C106.313612,129.912203 97.6891994,127.898588 97.6891994,127.898588 C95.4361478,131.355865 91.1948334,133.094363 91.1948334,133.094363 C91.8995282,128.47934 89.7046926,125.853048 89.7046926,125.853048 C80.3211248,120.773236 77.6774628,110.774645 77.6774628,110.774645 C75.9122047,112.084035 73.4633784,115.159622 73.4633784,115.159622 C69.7046931,97.8478849 78.5028149,86.3276974 78.5028149,86.3276974 C79.214552,79.1920168 77.0676037,74.3352094 77.0676037,74.3352094 C71.5610311,73.3732376 61.6389656,69.9854443 61.6389656,69.9854443 C54.3863836,72.6211249 46.9835669,68.8624396 46.2560552,63.4605618 C45.0319238,64.1802801 42.4194825,64.839435 42.4194825,64.839435 C43.168074,74.2727681 52.0173696,80.4338008 52.0173696,80.4338008 C38.7833793,84.2948336 26.9516425,73.1333315 26.9516425,64.1464773 C26.9516425,57.5873225 28.7103749,55.9361488 28.7103749,51.6765245 C28.7103749,47.9103274 26.0059148,45.0911256 23.62399,43.3369942 C17.1361498,41.8216421 8.30305144,39.6003746 0.975647863,37.2348347 L0,36.919201 L0,0.430054449 L1.83520183,1.0141596 C36.2584498,11.9591546 66.1690124,14.659624 74.5295756,15.227793 C78.3661952,15.5253987 82.2605613,15.755962 86.1051622,15.9130982 C88.7929555,16.0225818 90.5995283,16.1670888 91.9615,16.3813141 C93.8328615,16.675117 95.4389648,17.1685911 96.8694811,17.8909855 C97.5286361,18.2229103 98.1455375,18.613192 98.7136126,19.056807 C100.300936,17.9164784 102.207979,17.0437085 104.39765,16.456854 C106.429105,15.9112672 108.710326,15.5883095 111.176993,15.4944128 C113.840373,15.3930043 116.148354,15.5564315 118.24272,15.9910325 C118.876053,16.1225348 119.476992,16.2756803 120.053518,16.4526287 L120.053988,15.5004691 L121.396711,15.4390606 C121.74225,15.4219714 156.416897,13.6872767 197.37746,0.738887305 L199.715488,0 L190.8953,39.1116422 L190.8953,39.1116422 Z" id="path14" fill="#FFFFFF"></path>
                        <path d="M146.246006,86.4859133 C149.358682,85.1737068 152.079808,84.582627 154.447883,84.5140824 C153.97793,81.1859135 154.41502,78.2239417 154.697649,76.3140826 C154.810794,75.5511718 154.908447,74.8929559 154.908447,74.4896695 C154.908447,68.0234725 151.622062,64.6046932 148.053048,61.614083 C148.666663,62.7995289 148.774175,63.8544585 148.774175,63.8544585 C150.539902,65.2596228 150.293893,67.5835664 150.293893,67.5835664 C151.203283,69.6816884 151.151639,72.6356789 151.151639,72.6356789 C149.688259,74.1347399 147.693893,74.8807493 147.693893,74.8807493 C146.362907,76.4816882 145.058212,77.6370873 143.874644,78.4722985 L143.882156,78.4896694 C143.542719,78.7497633 143.174175,78.9957727 142.761029,79.2215943 L146.246006,86.4859133 Z M197.801873,2.0816807 L189.705629,37.9869005 C183.948822,39.6280741 178.286381,41.0493886 172.834268,42.2802806 C170.878399,44.7938486 171.610324,46.9347876 173.192953,49.1488251 C176.761967,54.1413132 174.01408,58.6103272 174.01408,58.6103272 C174.01408,58.6103272 173.542249,54.6427216 169.930982,53.36244 C173.730043,60.0450689 170.533329,66.394834 170.533329,66.394834 C170.533329,66.394834 170.217836,64.2638482 168.6507,62.7089186 C169.739902,70.5802799 175.694831,77.2192469 175.694831,77.2192469 C175.694831,77.2192469 170.093423,78.2896694 165.143188,72.5009372 C164.689667,74.5722986 163.607508,77.0370873 161.892015,79.8685426 C160.823001,81.6338008 160.262907,83.5868524 160.002343,85.4615002 C166.543188,88.1375565 168.623939,95.6713591 168.065723,98.1356783 C167.223939,101.857744 167.997179,108.62488 167.997179,108.62488 C168.110794,104.998119 172.961029,103.181218 172.961029,103.181218 C166.715019,109.494833 173.485911,116.199528 173.485911,116.199528 C162.230982,114.325819 160.158681,105.494833 160.158681,105.494833 C161.552578,108.400467 165.963846,109.218307 165.963846,109.218307 C162.567602,105.360091 167.65117,94.3732371 160.144127,89.67981 C160.043188,89.6164297 159.353517,89.393425 159.249292,89.335209 C158.738494,92.3525799 159.763846,96.3093873 159.763846,96.3093873 C159.763846,96.3093873 156.830982,93.605162 155.398118,88.3253499 C151.482625,88.1300447 147.744128,89.6093874 147.744128,89.6093874 L162.384503,120.122063 C163.043658,118.274175 166.658681,117.432861 166.658681,117.432861 C162.981217,121.367133 166.124409,133.002344 166.124409,133.002344 C166.124409,133.002344 159.015489,123.270419 153.645067,123.676992 C153.645067,123.676992 156.562437,121.384035 158.418306,122.025819 L143.777461,91.5117348 C143.777461,91.5117348 136.748353,95.5112652 136.074175,101.227697 C135.036616,110.019716 146.788259,112.930514 147.672766,117.993424 C147.672766,117.993424 149.794362,114.040842 148.401874,111.136147 C148.401874,111.136147 153.992484,118.277931 148.408916,128.230513 C148.408916,128.230513 147.418776,118.753049 138.585443,119.673236 C138.585443,119.673236 142.054457,117.614082 144.861968,118.631922 C141.361499,114.602345 133.919715,111.720185 132.775584,105.118307 C131.565255,98.1422511 134.544128,92.5004672 142.279339,88.3882607 L138.564316,80.6441294 C135.889198,80.6610308 133.664785,80.2544581 132.421593,79.9638478 C130.803283,80.885444 129.32441,80.6821576 129.32441,80.6821576 C124.669011,76.9694816 124.934269,72.819247 124.934269,72.819247 C125.485443,70.2807494 127.170889,69.4746462 128.287321,69.2206555 C128.116898,67.0826274 128.6338,65.6694819 129.020185,64.9333317 C126.391077,65.8422519 123.520654,66.6539889 120.446006,67.2037542 C121.98779,69.6070405 122.838025,73.7934254 122.838025,73.7934254 C122.172297,79.4309839 125.945537,85.2708899 125.945537,85.2708899 C128.491077,91.2028146 126.513142,99.4671337 126.513142,99.4671337 C124.530513,102.173237 124.521124,106.050702 124.521124,106.050702 C124.117368,113.194833 121.363377,115.907978 121.363377,115.907978 C127.370889,123.167133 120.807509,130.510325 120.807509,130.510325 C121.198589,125.523941 116.403283,121.974175 116.403283,121.974175 C106.682626,128.86103 96.8915469,126.354926 96.8915469,126.354926 C96.4502323,128.438025 92.5981198,130.690138 92.5981198,130.690138 C92.6615,126.532861 90.3234719,124.523471 90.3234719,124.523471 C90.3234719,124.523471 81.0680731,120.267133 78.5046929,108.068542 C78.5046929,108.068542 76.0671342,109.799997 74.2934254,112.154457 C73.7511719,105.458213 73.2215944,96.6455375 79.8488243,86.7586833 C79.9938947,84.6211246 80.3915473,76.1910779 77.9037539,73.120186 C77.9037539,73.120186 69.8666649,71.4291062 61.5892003,68.5234725 C58.615022,70.0732377 53.333332,69.8408433 50.1910786,67.266665 C48.8779331,66.1920171 47.4713603,64.3732378 47.3305152,61.484036 C47.2342711,61.4061018 47.1366185,61.3281675 47.0431913,61.2502332 C44.7348346,63.324881 41.5502337,63.5863834 41.5502337,63.5863834 C41.5502337,63.5863834 42.3002806,61.4887309 42.2410318,59.0483553 C41.6134731,60.0544586 40.8294825,61.5920172 40.9325342,63.5929562 C41.4552102,73.8211249 48.7845058,79.6065708 48.7845058,79.6065708 L47.181689,79.8830966 C44.7421585,80.3032844 38.9313605,79.0722985 34.2062902,75.0929559 C27.783896,69.6830968 27.5088256,63.3657261 29.1281683,57.5178389 C30.7044124,51.8253508 31.1212668,46.8755387 23.9311731,41.9628628 C17.5130043,40.4646938 8.75056316,38.2656798 1.40845067,35.8944122 L1.40845067,2.3558544 C38.3683558,14.1085442 70.0971813,16.3385911 74.4211249,16.632394 C78.2751154,16.930563 82.1877914,17.1623939 86.0483547,17.3206568 C88.6802795,17.427746 90.4375564,17.5676521 91.7431902,17.7727226 C93.4676033,18.043192 94.9380258,18.4934268 96.2356783,19.1488728 C97.1610304,19.6150699 97.9760539,20.2037554 98.6694811,20.8914549 C98.7521102,20.8206568 98.8276971,20.7469478 98.9126736,20.6774643 C100.47089,19.4023469 102.438495,18.4399056 104.762439,17.816901 C106.692955,17.2990137 108.869481,16.9910794 111.230514,16.9019714 C111.712204,16.8836146 112.190138,16.8740841 112.649293,16.8740841 C114.613612,16.8740841 116.350701,17.0365723 117.957274,17.3703282 C119.255396,17.6393892 120.41502,18.0103751 121.461969,18.4835207 L121.461969,16.8454925 C121.461969,16.8454925 156.16948,15.2426287 197.801873,2.0816807 L197.801873,2.0816807 Z" id="path16" fill="#231F20"></path>
                        <path d="M117.367133,76.4295756 C117.367133,76.4295756 110.580748,77.8990591 104.010796,76.8197164 C100.206101,77.6981201 97.5652558,81.5366177 95.8502323,84.9948336 C95.8502323,84.9948336 98.814082,82.1755848 103.938495,82.5441294 C103.938495,82.5441294 115.223471,85.0774627 119.121124,82.0211247 C119.121124,82.0211247 117.335678,79.1990591 117.367133,76.4295756 L117.367133,76.4295756 Z M115.721124,70.7244114 C115.721124,70.7244114 116.629105,72.9417822 115.704222,74.0262892 C115.704222,74.0262892 113.902345,70.1577447 110.69718,70.0093879 C110.69718,70.0093879 112.286852,71.6840358 112.49765,73.5807493 C112.49765,73.5807493 109.768542,72.6511719 109.219246,70.4760546 C109.219246,70.4760546 108.195772,71.9938949 108.874176,73.4657259 C108.874176,73.4657259 105.484035,74.0906085 104.351171,75.5051624 C104.351171,75.5051624 107.304692,74.4676038 110.945068,75.2201859 C114.585443,75.9732375 117.312204,74.4089183 117.312204,74.4089183 C117.312204,74.4089183 117.147884,72.2840358 115.721124,70.7244114 L115.721124,70.7244114 Z M92.2065705,88.7065706 C94.6652558,89.6751151 97.9253497,87.1117349 97.9253497,87.1117349 C95.7647863,87.3873218 93.9708897,87.2192466 93.9708897,87.2192466 C93.1976503,84.9643171 96.0525798,78.5652563 96.0525798,78.5652563 C91.8553968,83.5502327 92.2065705,88.7065706 92.2065705,88.7065706 L92.2065705,88.7065706 Z M91.8150212,103.967134 C92.8215939,106.817368 96.1830962,108.695302 96.1830962,108.695302 C102.120185,107.858683 108.991077,103.915021 108.991077,103.915021 C110.205631,104.164786 111.539434,106.260561 111.539434,106.260561 C111.757274,103.359152 109.011265,102.069481 109.011265,102.069481 C103.254458,105.761969 96.4225328,106.571828 96.4225328,106.571828 C94.1450681,106.349293 91.8150212,103.967134 91.8150212,103.967134 L91.8150212,103.967134 Z M109.339434,115.960091 C109.339434,115.960091 106.536617,116.454457 104.476523,115.712673 C104.476523,115.712673 112.141312,114.146476 115.026758,109.613612 C115.026758,109.613612 109.66995,112.992955 106.125349,113.404692 C106.125349,113.404692 107.472298,112.776054 108.59718,108.62441 C108.59718,108.62441 103.553519,115.581687 97.9483544,116.240842 C97.9483544,116.240842 103.405162,118.762908 109.339434,115.960091 Z M124.285443,99.7460069 C124.285443,99.7460069 120.923941,100.080279 117.083096,98.0873215 C117.083096,98.0873215 118.538495,89.9610306 121.335208,86.3309838 C121.335208,86.3309838 118.099997,85.9910777 116.750232,86.481688 C116.972767,85.8272279 117.514082,84.5737068 117.514082,84.5737068 C111.937086,85.3103265 108.957744,88.122533 101.12535,84.7450683 C100.82488,85.9976504 102.62535,90.8225329 104.630514,92.3220634 C104.630514,92.3220634 99.2464764,91.3807489 96.5413121,89.5413123 C96.5413121,89.5413123 100.775584,94.3629084 105.854927,94.7145516 C105.854927,94.7145516 109.408917,93.4445986 111.122532,93.5295751 C111.122532,93.5295751 110.016899,96.4558661 108.799997,97.673237 C108.799997,97.673237 102.004223,99.1633778 94.9953028,97.9718285 C94.9953028,97.9718285 93.7154906,99.3225327 93.0586831,101.775584 C93.0586831,101.775584 96.0065704,103.736148 99.2427205,104.109387 C99.2427205,104.109387 105.800936,101.891077 108.604223,99.8399036 C108.604223,99.8399036 110.376993,99.6605609 111.448824,100.354927 C111.448824,100.354927 113.993424,94.6920164 114.61549,90.9230024 C114.61549,90.9230024 110.912204,92.73427 107.156335,92.5737066 C107.156335,92.5737066 104.244598,90.1356785 104.349293,88.1305142 C104.349293,88.1305142 109.56995,90.276993 113.786382,88.3962419 C113.786382,88.3962419 116.734739,87.6197161 118.539434,87.9741762 C118.539434,87.9741762 114.673706,94.446007 114.531922,100.854458 C117.86103,105.058213 122.392485,105.84319 122.392485,105.84319 C122.392485,105.84319 122.263847,106.690608 121.961969,107.981218 C117.321124,105.911265 115.060561,102.670889 115.060561,102.670889 C113.563847,104.130514 115.132391,106.892955 115.132391,106.892955 C115.321124,105.447885 115.573237,105.112204 115.573237,105.112204 C116.493424,106.766195 120.385912,108.543659 121.683565,109.100467 C120.843189,112.261969 119.173236,116.934269 116.226288,119.407509 C111.50657,123.369011 104.255866,125.738964 97.3319224,124.272297 C97.3319224,124.272297 97.4309835,123.738495 97.4793403,122.914551 C100.445068,123.296711 112.819246,124.207978 118.001406,113.780279 C113.018307,117.261969 109.037556,122.427227 97.4647863,120.969011 C97.2990586,118.796241 96.5563356,116.113143 94.0943638,114.755866 C94.0943638,114.755866 91.5262888,115.330983 89.8539884,117.392955 C89.8553968,117.391077 89.8568053,117.389199 89.8572747,117.38779 C84.0934251,113.599058 83.0244111,105.980279 83.0244111,105.980279 C82.499059,112.720654 87.4615002,117.662908 88.9230025,118.964786 C88.9239414,118.962908 88.9239414,118.961969 88.9248804,118.96056 C88.6901386,119.538025 88.5262889,120.18826 88.4680729,120.923002 C88.4680729,120.923002 80.6192468,115.490607 81.1755848,105.671828 C81.1755848,105.671828 83.1802796,102.559152 84.6201857,101.809387 C84.6201857,101.809387 84.39812,94.6882605 85.8741763,91.5690118 C85.0342702,93.0403733 83.3492937,96.4333309 83.1891998,100.203753 C83.1891998,100.203753 76.5877915,106.049763 75.9685427,108.299528 C75.9685427,108.299528 74.7826272,93.033331 85.6967115,83.1187773 C85.6967115,83.1187773 85.2258195,87.0112654 85.2694814,88.6075095 C85.2694814,88.6075095 86.8488241,87.5450682 88.3906081,86.7929556 C88.3906081,86.7929556 89.3784015,80.7122046 90.4248804,76.7924863 C90.4248804,76.7924863 94.1793404,72.1258198 100.244129,69.3342706 C100.244129,69.3342706 99.9816876,73.9868526 101.77042,76.001876 C101.77042,76.001876 101.950702,70.5338011 105.051171,68.3441297 C105.051171,68.3441297 105.112204,70.4924865 106.789199,71.5389653 C106.789199,71.5389653 107.347885,68.0835664 110.194833,66.295773 C109.808448,69.0046931 114.460091,68.2197166 114.808917,71.3699513 C114.808917,71.3699513 114.911734,67.8788715 113.562438,66.6647871 C113.562438,66.6647871 118.739903,67.8051626 120.349762,74.247416 C120.349762,74.247416 120.400466,83.3943641 124.576053,86.9014063 C124.576053,86.9014063 125.793424,92.6704202 124.285443,99.7460069 L124.285443,99.7460069 Z" id="path18" fill="#2D7BC8"></path>
                        <path d="M99.3483543,102.24319 C99.0704201,102.303284 98.7962417,102.353988 98.5319224,102.390138 C98.5319224,102.390138 97.8215938,102.146476 97.0474154,101.734739 C97.5774623,101.678401 98.1103262,101.597181 98.6394342,101.501406 C98.7826266,101.830044 99.0370867,102.090138 99.3483543,102.24319" id="path20" fill="#6798D7"></path>
                        <path d="M101.422533,100.853519 C103.165256,100.363378 104.692486,99.7896689 105.687791,99.3840351 C106.0615,99.3253496 106.433331,99.2596219 106.803753,99.1835656 C106.803753,99.1835656 104.014551,100.767603 101.162908,101.731453 C101.327697,101.481218 101.42488,101.17981 101.422533,100.853519" id="path22" fill="#6798D7"></path>
                        <path d="M119.763847,102.207509 C120.542251,102.631922 121.449293,103.013143 122.489199,103.266664 C122.398588,103.460561 122.292016,103.657744 122.164786,103.857274 C122.164786,103.857274 120.727227,103.447415 119.299528,102.590608 C119.479809,102.502345 119.635678,102.368073 119.763847,102.207509" id="path24" fill="#6798D7"></path>
                        <path d="M116.666194,99.772298 C116.841781,99.971359 117.114082,100.259622 117.476523,100.586382 C117.421124,100.712674 117.380279,100.844129 117.360091,100.985913 C117.06103,100.618307 116.818307,100.214551 116.666194,99.772298" id="path26" fill="#6798D7"></path>
                        <path d="M148.635208,125.504692 C149.664316,121.466194 149.268071,118.44319 149.268071,118.44319 C148.829104,119.547415 147.208917,120.346945 147.208917,120.346945 C149.097649,117.723471 149.472766,115.440842 149.472766,115.440842 C151.086851,121.220185 148.635208,125.504692 148.635208,125.504692" id="path28" fill="#EDAE09"></path>
                        <path d="M138.862438,111.269481 C143.046006,113.97934 146.366194,118.425349 146.366194,118.425349 C146.366194,118.425349 141.816428,113.918776 138.640372,112.230983 C135.843189,110.746007 128.366194,100.884505 138.333799,92.1539883 C131.046476,99.5563355 135.303752,108.966194 138.862438,111.269481" id="path30" fill="#EDAE09"></path>
                        <path d="M161.795771,87.3896692 C170.627226,93.9915469 165.371827,101.124411 166.967132,108.073237 C164.567602,103.556335 169.019714,95.8798098 162.79624,89.3431903 C158.911733,85.2661951 152.518776,85.4394345 146.549292,87.2248804 C146.549292,87.2248804 155.479808,82.6704205 161.795771,87.3896692" id="path32" fill="#EDAE09"></path>
                        <path d="M105.025349,78.3887304 C108.457744,78.9107961 111.666664,78.7056318 113.776053,78.430045 C114.77887,78.2990591 115.615021,78.14366 116.230044,78.0150215 C116.458213,79.3183079 116.92488,80.5117351 117.329575,81.3713595 C109.767133,82.8122045 104.608448,80.7539886 104.608448,80.7539886 L104.547415,80.7488243 C102.856805,80.628167 100.689669,81.2671341 99.3699506,81.6037538 C100.74272,79.8624393 103.276054,78.8333314 105.025349,78.3887304" id="path34" fill="#FFFFFF"></path>
                        <path d="M122.488729,103.266664 C121.449293,103.013143 120.542251,102.631922 119.763847,102.207509 C119.978401,101.936617 120.107509,101.583096 120.096241,101.195303 C120.091546,101.045537 120.06103,100.904223 120.019715,100.769481 C121.05164,101.05211 122.135678,101.255866 122.990138,101.193425 C122.990138,101.193425 123.018307,102.146007 122.488729,103.266664" id="path36" fill="#FFFFFF"></path>
                        <path d="M117.858682,100.059622 C117.695772,100.199997 117.564786,100.37981 117.476523,100.586382 C117.114082,100.260091 116.841781,99.972298 116.666664,99.7732369 C116.640842,99.6985891 116.616429,99.6239412 116.596241,99.5464764 C116.596241,99.5464764 117.101875,99.7732369 117.858682,100.059622" id="path38" fill="#FFFFFF"></path>
                        <path d="M101.42488,100.821594 C101.414082,100.41596 101.250702,100.053049 100.99765,99.786852 C102.439434,99.7525797 104.064786,99.6413121 105.687791,99.3845046 C104.692016,99.7896689 103.164786,100.363378 101.422533,100.853519 C101.422063,100.84319 101.42488,100.831922 101.42488,100.821594" id="path40" fill="#FFFFFF"></path>
                        <path d="M95.3910774,100.45211 L96.058683,99.6258191 C96.058683,99.6258191 97.2042229,99.7488238 98.9309834,99.7873214 C98.6596219,100.073706 98.4943637,100.469481 98.5051619,100.904223 C98.5112651,101.117838 98.5591525,101.319716 98.6394342,101.501406 C98.1103262,101.597181 97.5784013,101.678401 97.0474154,101.734739 C96.4253497,101.403753 95.7615,100.964317 95.3910774,100.45211" id="path42" fill="#FFFFFF"></path>
                        <path d="M161.604691,120.49718 C161.399526,120.798119 161.253048,121.160091 161.1507,121.475584 L141.258212,80.0131435 L141.99718,79.6305144 L161.604691,120.49718" id="path44" fill="#EDAE09"></path>
                        <path d="M157.857743,47.8042242 C158.068541,52.0272287 163.638963,55.4873226 166.197648,58.4629093 C165.355864,65.994834 170.269479,73.6258198 170.269479,73.6258198 C166.86009,72.0103268 165.103282,68.20751 165.103282,68.20751 C165.022531,57.1610314 154.361968,57.587792 157.857743,47.8042242" id="path46" fill="#EDAE09"></path>
                        <path d="M100.438495,101.971828 C100.438495,101.971828 99.9450679,102.12535 99.6084482,102.199997 C99.6084482,102.199997 98.7061008,100.992486 99.9516407,100.018307 C99.9516407,100.018307 99.3985891,101.294833 100.438495,101.971828" id="path48" fill="#2D7BC8"></path>
                        <path d="M118.030513,101.620655 C118.030513,101.620655 118.105161,100.759622 118.859152,100.563378 C118.859152,100.563378 118.17887,101.45258 118.595302,102.120185 C118.595302,102.120185 118.194833,101.874176 118.030513,101.620655" id="path50" fill="#2D7BC8"></path>
                        <path d="M128.821124,71.2943644 C128.821124,71.2943644 132.061969,73.7779324 132.907978,76.2032845 C132.907978,76.2032845 132.626757,78.2502328 129.935678,78.5492938 C129.935678,78.5492938 127.004692,75.5779324 126.807509,73.1572752 C126.807509,73.1572752 127.32441,71.3300452 128.821124,71.2943644" id="path52" fill="#2D7BC8"></path>
                        <path d="M46.1441773,46.4291538 C47.3042242,46.5568063 47.7295763,48.2112664 47.7295763,48.2112664 C48.4366185,52.0920175 45.9723463,56.5995291 45.9723463,56.5995291 C46.4994355,53.9830972 45.7801397,51.9380269 44.8760083,50.50798 C45.3009378,49.677933 46.0354449,47.6610317 46.1441773,46.4291538" id="path54" fill="#2D7BC8"></path>
                        <path d="M165.040841,119.0061 C163.30516,123.70657 164.561498,129.879339 164.561498,129.879339 C162.572766,125.435208 163.238024,122.199527 163.238024,122.199527 C162.482625,122.471358 161.424409,123.348354 161.424409,123.348354 C162.482625,120.294363 165.040841,119.0061 165.040841,119.0061" id="path56" fill="#EDAE09"></path>
                        <path d="M165.264785,110.587321 C165.264785,110.587321 167.255395,112.704223 169.390137,114.019246 C167.869479,113.439434 164.222062,111.687791 162.784972,108.953518 C162.784972,108.953518 165.204221,110.193424 166.836616,110.163378 C166.836616,110.163378 166.171827,110.707978 165.264785,110.587321" id="path58" fill="#EDAE09"></path>
                        <path d="M90.4938945,54.846947 C90.4938945,54.846947 85.695303,66.0168998 85.0868523,70.3906086 C85.0868523,70.3906086 83.3497632,65.6835664 78.3643173,63.353989 C78.3643173,63.353989 81.9765238,63.6460078 84.1694815,64.8896697 C84.1694815,64.8896697 86.5976504,58.4629093 90.4938945,54.846947" id="path60" fill="#6798D7"></path>
                        <path d="M77.4906084,102.859152 C77.4906084,102.859152 78.872768,100.775584 81.340843,99.5732369 L79.5976506,99.5445985 C79.5976506,99.5445985 80.7492938,94.5126737 83.3004674,90.80704 C83.3004674,90.80704 79.4328619,93.4877911 77.4906084,102.859152" id="path62" fill="#6798D7"></path>
                        <path d="M89.4910776,112.827227 C89.4910776,112.827227 86.7183077,107.614082 86.508918,104.027697 C86.508918,104.027697 91.5859132,96.2558661 90.1976503,89.2093874 C90.1976503,89.2093874 92.4713592,97.6291055 88.5657255,104.47042 C88.5657255,104.47042 88.3286363,108.567603 89.4910776,112.827227" id="path64" fill="#6798D7"></path>
                        <path d="M93.8028146,126.781687 C93.8028146,126.781687 93.9798099,122.314551 90.7647865,119.795772 C90.7647865,119.795772 91.4483545,118.804692 92.5089179,118.117368 C93.1394343,118.872297 94.2826268,120.490607 94.4981197,122.523941 C94.4981197,122.523941 95.1957723,120.15211 93.7830962,117.556805 C94.0220634,117.501875 94.2694812,117.471828 94.5253497,117.477462 C94.5253497,117.477462 97.2793403,122.730983 93.8028146,126.781687" id="path66" fill="#2D7BC8"></path>
                        <path d="M121.461499,125.608448 C121.461499,125.608448 120.934269,122.835678 117.868542,120.651171 C117.961969,120.589199 118.556805,120.253049 119.376053,119.238964 C119.373706,119.241312 119.372767,119.244128 119.36995,119.246006 C119.948354,119.948823 120.823002,121.150232 121.141312,122.32441 C121.141312,122.32441 121.073236,119.835678 120.031922,118.2338 C120.031452,118.234269 120.030513,118.235678 120.030513,118.236147 C120.16056,117.986382 120.284035,117.713143 120.393894,117.409387 C120.393894,117.409387 123.16995,120.55164 121.461499,125.608448" id="path68" fill="#2D7BC8"></path>
                        <path d="M93.7826268,117.556335 C95.1957723,120.151171 94.4981197,122.523941 94.4981197,122.523941 C94.2816878,120.489668 93.1375564,118.86995 92.5075094,118.115959 C92.8887301,117.869011 93.317838,117.662908 93.7826268,117.556335" id="path70" fill="#6798D7"></path>
                        <path d="M121.141312,122.32441 C120.823002,121.150232 119.948354,119.948823 119.36995,119.246006 C119.598119,118.967603 119.82441,118.632861 120.031922,118.2338 C121.073236,119.835678 121.141312,122.32441 121.141312,122.32441" id="path72" fill="#6798D7"></path>
                        <path d="M97.4788708,122.914551 C97.5107957,122.36995 97.5197159,121.698589 97.4647863,120.969011 C109.037556,122.427227 113.018307,117.261969 118.001406,113.780279 C112.819246,124.208448 100.444598,123.296711 97.4788708,122.914551" id="path74" fill="#6798D7"></path>
                        <path d="M88.9230025,118.964786 C87.4615002,117.662908 82.499059,112.720654 83.0244111,105.980279 C83.0244111,105.980279 84.0934251,113.599058 89.8572747,117.38779 C89.4910776,117.838495 89.1680729,118.36103 88.9230025,118.964786" id="path76" fill="#6798D7"></path>
                        <path d="M116.84272,80.2159604 C117.003283,80.6431905 117.170889,81.0333313 117.329575,81.3713595 C109.767133,82.8122045 104.608448,80.7539886 104.608448,80.7539886 L104.547415,80.7488243 C102.856805,80.628167 100.689669,81.2671341 99.3699506,81.6037538 C99.9614998,80.8525801 100.77042,80.2352093 101.637087,79.7394346 C103.490608,79.5347398 105.438495,79.7460074 105.438495,79.7460074 C108.547885,81.526289 115.351171,80.4751154 116.84272,80.2159604" id="path78" fill="#6798D7"></path>
                        <path d="M138.062438,76.4619699 C138.062438,76.4619699 138.206569,77.001876 138.440372,77.2483549 C138.440372,77.2483549 142.967133,76.0225333 145.690607,72.0915475 C145.690607,72.0915475 145.670888,71.8915475 145.397649,71.8417822 C145.397649,71.8417822 143.216898,74.4971812 138.062438,76.4619699" id="path80" fill="#6798D7"></path>
                        <path d="M136.06948,72.5464771 C136.06948,72.5464771 140.73286,70.8971813 142.647414,68.9291063 L142.611734,68.2563363 C142.611734,68.2563363 138.076053,70.9713597 135.699527,71.7262893 C135.699527,71.7262893 135.772297,72.220186 136.06948,72.5464771" id="path82" fill="#6798D7"></path>
                        <path d="M133.909856,67.8295758 C133.909856,67.8295758 138.883565,66.0065711 140.837555,64.3281674 C140.837555,64.3281674 140.613142,64.0192472 140.623471,63.7046932 C140.623471,63.7046932 136.591076,66.4061016 133.766663,67.1300453 C133.766663,67.1300453 133.746945,67.5483551 133.909856,67.8295758" id="path84" fill="#6798D7"></path>
                        <path d="M132.187321,63.0253505 C132.010795,62.8647872 132.021593,62.6361487 132.054457,62.4887308 C135.247884,61.6610313 137.838494,60.0887309 138.707978,59.5206558 C138.790607,59.7220642 138.875583,59.8779328 138.946475,59.9915478 C136.201405,61.9553975 132.187321,63.0253505 132.187321,63.0253505" id="path86" fill="#6798D7"></path>
                        <path d="M167.123939,76.8845051 L167.427695,77.7051624 L167.930043,77.7061013 L167.930043,76.3544582 L167.582625,76.3535192 L167.582625,77.2755849 L167.576052,77.2755849 L167.254456,76.3535192 L166.988728,76.3530497 L166.666663,77.274646 L166.660559,77.274646 L166.660559,76.3525803 L166.312672,76.3525803 L166.312672,77.7042234 L166.81455,77.7046929 L167.123939,76.8845051 Z M166.056803,77.4239417 L165.679808,77.4234722 L165.679808,76.3516413 L165.312672,76.3507023 L165.312672,77.4234722 L164.938494,77.4225333 L164.938494,77.7023455 L166.056803,77.7042234 L166.056803,77.4239417 L166.056803,77.4239417 Z" id="path88" fill="#231F20"></path>
                        <path d="M168.212202,43.2900459 C167.223001,46.6648345 168.658681,48.2403744 168.658681,48.2403744 C168.658681,48.2403744 166.109855,47.4624401 166.297179,43.6887313 C166.931921,43.5581679 167.569949,43.42629 168.212202,43.2900459" id="path90" fill="#2D7BC8"></path>
                        <path d="M162.857742,44.3773698 C162.658212,49.2046936 165.570418,53.3798109 165.570418,53.3798109 C161.702343,50.8018767 160.164315,47.7032852 159.675583,44.9831444 C160.723001,44.7887313 161.784972,44.5868064 162.857742,44.3773698" id="path92" fill="#2D7BC8"></path>
                        <path d="M154.389668,45.9244589 C153.097649,50.650703 153.273705,56.1183085 156.366663,58.5751159 C163.535207,64.2690125 161.293893,72.1103268 158.692015,76.8492939 C159.930512,65.9553974 154.484034,61.0835665 149.691076,57.5042239 C146.931452,55.4422521 142.92394,52.7892006 143.250231,47.6483556 C146.673236,47.1722993 150.410325,46.6022993 154.389668,45.9244589" id="path94" fill="#2D7BC8"></path>
                        <path d="M164.834738,43.9858205 C165.319714,43.8882618 165.807508,43.7896233 166.297179,43.6887313 C166.109855,47.4624401 168.658681,48.2403744 168.658681,48.2403744 C168.658681,48.2403744 167.223001,46.6648345 168.212202,43.2900459 C168.692954,43.1886374 169.176522,43.085398 169.661029,42.9806562 C167.765254,47.5272289 172.495301,51.1380269 172.627695,52.832393 C170.446475,49.6887312 164.798118,50.4732382 164.834738,43.9858205" id="path96" fill="#EDAE09"></path>
                        <path d="M143.250231,47.6483556 C142.92394,52.7892006 146.931452,55.4422521 149.691076,57.5042239 C154.484034,61.0835665 159.930512,65.9553974 158.692015,76.8492939 C161.293893,72.1103268 163.535207,64.2690125 156.366663,58.5751159 C153.273705,56.1183085 153.097649,50.650703 154.389668,45.9244589 C155.046944,45.8122524 155.709855,45.6976045 156.380747,45.579905 C156.267602,45.937135 156.193423,46.1986373 156.161968,46.3064777 C152.484034,58.9117356 161.269949,56.746008 163.024409,66.1272284 C164.278869,72.8361484 159.210794,77.8338009 157.793423,84.1455378 C157.747414,84.3497631 157.70516,84.5563359 157.667602,84.7643171 C157.665724,84.7638476 157.662907,84.7633782 157.662907,84.7633782 C157.363846,84.7051622 157.05962,84.6582138 156.748822,84.6187772 L156.744597,84.6183077 C156.704221,84.4366176 156.673705,84.2577444 156.642719,84.0784017 C156.013611,80.4305144 157.252578,77.0826272 157.140841,72.8234724 C156.812672,60.2615008 143.879339,58.8469469 141.9784,51.1652569 C141.695302,50.0197171 141.599527,48.9159612 141.620184,47.8713603 C142.156334,47.7985904 142.697649,47.7253509 143.250231,47.6483556" id="path98" fill="#EDAE09"></path>
                        <path d="M158.171827,45.2591538 C158.669949,45.1694355 159.171358,45.0770411 159.675583,44.9831444 C160.164315,47.7032852 161.702343,50.8018767 165.570418,53.3798109 C165.570418,53.3798109 162.658212,49.2046936 162.857742,44.3773698 C163.416897,44.2684496 163.978869,44.1573228 164.544597,44.0441773 C164.299057,46.4972289 164.900465,49.051642 165.993423,50.8084494 C168.825348,55.3553977 168.553986,57.2164305 168.718306,58.4985901 C168.535677,57.5178389 166.711263,55.7647873 164.845536,54.3708907 C160.70563,51.2751161 158.76009,48.237088 158.171827,45.2591538" id="path100" fill="#EDAE09"></path>
                        <path d="M136.344598,48.5403744 C140.60563,53.7741771 142.180278,58.4718295 142.586381,59.9122051 C142.109386,59.9718295 141.700935,60.0492943 141.404222,60.115022 C140.107978,55.9713601 137.621123,51.9657264 135.091076,48.6882617 C135.501405,48.6403744 135.918776,48.5915481 136.344598,48.5403744" id="path102" fill="#6798D7"></path>
                        <path d="M127.555396,49.4694823 L132.100466,59.0018765 C132.100466,59.0023459 132.099997,59.0023459 132.099527,59.0032849 C131.846006,59.1347403 131.59671,59.256806 131.353048,59.3699516 L126.66995,49.5483556 C126.954926,49.5234729 127.249293,49.4971819 127.555396,49.4694823" id="path104" fill="#EDAE09"></path>
                        <path d="M136.344598,48.5403744 C137.372297,48.4187781 138.444597,48.2854448 139.557743,48.1427218 C139.641311,48.295304 139.727696,48.4483556 139.807978,48.5995293 C139.854926,51.9319236 141.176522,54.2971817 143.037555,56.3145526 C143.698588,58.4807497 143.899057,59.8225337 143.899057,59.8225337 C143.431921,59.8253506 142.985912,59.8624398 142.586381,59.9122051 C142.180278,58.4718295 140.60563,53.7741771 136.344598,48.5403744" id="path106" fill="#2D7BC8"></path>
                        <path d="M132.270419,61.2807496 C132.531452,61.1591534 132.783565,61.0375572 133.018307,60.9154914 C134.639433,60.0751159 135.620184,59.2539891 136.126288,58.7605619 C136.134738,58.7563366 136.141781,58.7516417 136.150231,58.7478859 C136.502813,58.5629093 137.41549,58.1995291 138.785443,58.4638483 C138.785443,58.4638483 138.815959,57.2568061 135.552579,57.573238 L131.020654,49.1328626 C132.272297,49.0042241 133.63333,48.8563368 135.091076,48.6882617 C137.621123,51.9657264 140.107978,55.9713601 141.404222,60.115022 C141.13286,60.1751159 140.953987,60.2225337 140.908917,60.2361487 C140.935677,60.6915478 141.167133,61.3117356 141.167133,61.3117356 C141.998119,60.815022 144.720184,60.8441299 144.720184,60.8441299 C146.09671,61.699529 146.463377,63.2732379 146.562438,64.0643176 C144.27887,63.8399045 142.84225,64.2999984 142.164785,64.6140829 C142.20563,65.1070406 142.599527,65.5507026 142.599527,65.5507026 C144.933799,64.9544585 147.108447,65.2492941 147.108447,65.2492941 C148.3061,66.2262894 148.335677,67.6539889 148.286381,68.2596227 C146.057743,67.8046931 143.932391,68.2868528 143.932391,68.2868528 C143.807039,68.8577448 144.207978,69.3549278 144.207978,69.3549278 C145.717367,69.1309842 147.706569,69.3474161 148.645536,69.4765241 C148.846006,70.5023457 148.880747,71.7957729 148.880747,71.7957729 C148.364316,72.3896696 146.685912,72.9262893 146.685912,72.9262893 C144.47887,75.5558667 142.55117,76.9643173 141.0784,77.7159605 C140.810325,77.8530497 140.559151,77.9661952 140.322062,78.0633783 C138.884504,78.6502328 138.043659,78.5638478 138.043659,78.5638478 C136.450231,77.6812187 136.738025,75.5713596 136.738025,75.5713596 C137.434738,75.3305145 138.101874,75.0511718 138.735208,74.7553972 C138.991546,74.6356789 139.240842,74.5150216 139.483565,74.3906085 C142.240842,72.9821578 144.126757,71.3568057 144.126757,71.3568057 C144.211264,69.9389654 143.357273,70.0436602 143.357273,70.0436602 C141.967602,71.3469466 140.270889,72.2708902 138.776992,72.9173691 C138.512203,73.0309841 138.253987,73.1389653 138.0061,73.2356789 C137.027696,73.6178385 136.190607,73.8722986 135.66948,74.0305146 C134.75164,73.3455381 134.227227,71.7718292 134.254457,70.8309841 C134.980278,70.6244114 135.732391,70.3455381 136.470419,70.03474 C136.726757,69.9262893 136.981687,69.8145522 137.23286,69.6999983 C139.75164,68.5516415 141.910795,67.1647871 141.910795,67.1647871 C141.773236,66.4901392 141.413611,65.8962425 141.149762,65.6741768 C139.557274,66.7112659 137.879809,67.5507025 136.497649,68.1671344 C136.230513,68.2868528 135.975583,68.3957729 135.73333,68.4985898 C134.365724,69.0760546 133.435677,69.3826274 133.435677,69.3826274 C132.176053,68.4056321 132.484973,66.1028152 132.484973,66.1028152 C133.116429,65.981219 133.738964,65.8051627 134.340842,65.5971815 C134.607039,65.5051627 134.867602,65.4061017 135.123471,65.3032848 C137.876053,64.196712 139.997649,62.5502332 139.997649,62.5502332 C140.086381,61.7164304 139.672297,61.4901393 139.434738,61.1281675 C137.674644,62.4089186 135.822532,63.2272285 134.36948,63.7319233 C134.086851,63.8309843 133.820654,63.9168998 133.570889,63.9929561 C132.430983,64.3399045 131.685443,64.4615007 131.685443,64.4615007 C130.152579,63.0004679 131.058213,61.7990595 131.058213,61.7990595 C131.493893,61.6291064 131.893424,61.4544586 132.270419,61.2807496" id="path108" fill="#2D7BC8"></path>
                        <path d="M91.2605611,51.2323931 C91.1460071,51.276994 91.0291057,51.3169001 90.9131433,51.3591536 C91.1380259,51.2784025 91.2605611,51.2323931 91.2605611,51.2323931 Z M69.1206555,64.4314538 C64.9985899,60.3183084 63.7718294,56.5624399 63.7718294,56.5624399 C73.3206554,57.3464774 87.2460072,52.6629095 90.5413123,51.4929565 C81.5319228,54.6183085 68.4183081,53.6563367 61.1389656,52.7553977 C61.5478858,51.7323931 61.812205,50.6427217 61.812205,49.4755856 C61.812205,49.1765246 61.799529,48.8802805 61.7784022,48.5863838 C71.5089184,49.6619706 79.1140825,50.0253509 80.6821576,50.1258203 C85.2281669,50.4183086 88.7769931,50.3699518 90.920655,50.0976513 C93.4258193,49.7741772 95.4159601,49.0995293 97.0145516,48.0328626 C97.5056314,47.7032852 97.9366173,47.3600927 98.3187769,47.0103275 C98.4807487,47.1591538 98.6478849,47.3075106 98.8262886,47.4539894 C100.401406,48.7478861 102.39765,49.6910786 104.7615,50.2596232 C106.809387,50.7511724 109.130044,50.9516419 111.664786,50.8549283 C114.059622,50.7638485 116.291077,50.4122053 118.295772,49.8093884 C119.439434,49.465257 120.496711,49.03521 121.461969,48.5244119 L121.461969,49.9399049 C121.461969,49.9399049 122.001875,49.9112664 123.013142,49.8399049 L128.689668,61.77136 C128.450701,61.8835665 128.209386,61.9915477 127.969011,62.0948341 C124.127696,63.7375571 120.212673,64.1234726 120.212673,64.1234726 L120.217837,64.1183083 C120.190607,64.1215946 120.171828,64.1244115 120.171828,64.1244115 C119.442251,62.3093881 119.327227,57.3760549 119.327227,57.3760549 C117.66056,59.899529 117.330513,63.9577449 117.271359,65.8854444 L115.203753,64.6028153 C114.308917,61.8399046 115.873237,53.6596231 115.873237,53.6596231 C113.707509,56.2201864 112.134739,61.455867 111.992955,63.1126745 C110.119716,62.169482 108.29765,61.8661956 108.29765,61.8661956 C106.260091,62.7868529 104.478401,64.638496 104.478401,64.638496 C103.69765,61.2572755 110.577932,52.333332 110.577932,52.333332 L103.367134,54.5746465 C100.358683,59.8333318 100.278871,65.9610312 100.278871,65.9610312 C97.3619694,66.4906087 93.9629084,68.6999983 93.9629084,68.6999983 C91.83427,65.6525805 93.1638474,55.988731 93.1638474,55.988731 C90.9262888,60.7460079 89.6530494,71.777463 89.6530494,71.777463 C85.4361481,74.1788714 82.056336,81.9685426 82.056336,81.9685426 C82.056336,81.9685426 82.8882608,72.1145522 79.5516412,65.9192472 C79.5516412,65.9192472 79.8018759,66.4835664 79.1258196,70.3901391 C79.1258196,70.3901391 68.6765241,69.5286368 57.0276981,63.6971815 C56.7319235,62.9741768 56.5422521,62.2042238 56.5422521,61.4173694 C56.5422521,59.9751159 57.7239422,58.3915478 58.9685431,56.5699516 C63.0098576,60.7356792 69.1206555,64.4314538 69.1206555,64.4314538 L69.1206555,64.4314538 Z" id="path110" fill="#2D7BC8"></path>
                        <path d="M51.0699518,47.1934261 C53.5037545,47.5610317 55.8962427,47.8845058 58.2051629,48.1685434 C58.7962427,55.088731 50.6953039,57.2816887 53.2957733,64.4760547 C48.3741772,59.5999985 54.9826277,55.3046935 51.0699518,47.1934261" id="path112" fill="#2D7BC8"></path>
                        <path d="M45.9723463,56.5995291 C45.9723463,56.5995291 48.4366185,52.0920175 47.7295763,48.2112664 C47.7295763,48.2112664 47.3042242,46.5568063 46.1441773,46.4291538 C46.0354449,47.6610317 45.3009378,49.677933 44.8760083,50.50798 C45.7801397,51.9380269 46.4994355,53.9830972 45.9723463,56.5995291 L45.9723463,56.5995291 Z M28.6449289,43.0347877 C30.1038021,43.3573698 31.2578865,43.6038487 31.9918302,43.7558675 C37.8860554,51.6666654 30.4614077,59.6309844 32.5441776,65.252111 C34.7023466,71.0718292 39.9941305,74.3666648 39.9941305,74.3666648 C39.9941305,74.3666648 33.5203747,64.2305148 38.9909849,56.4906089 C42.0585905,52.1492945 44.4221116,48.68075 44.6577923,45.3436608 C45.5564308,45.2479331 46.4150693,45.0694824 47.223473,44.7956796 L47.223473,46.5793885 C48.5126748,46.7972289 49.7962429,47.0004683 51.0699518,47.1934261 C54.9826277,55.3046935 48.3741772,59.5999985 53.2957733,64.4760547 C50.6953039,57.2816887 58.7962427,55.088731 58.2051629,48.1685434 C58.7854445,48.2403744 59.3615009,48.3093885 59.9309844,48.3760551 C59.9530501,48.6572758 59.9671347,48.9408438 59.9671347,49.2262898 C59.9671347,56.1164305 49.5460082,60.1492943 57.4615009,67.3244115 C57.4615009,67.3244115 49.6882617,66.7845054 49.6882617,60.4206558 C49.6882617,57.6873225 52.3399048,53.2798109 49.2849753,47.4544589 C49.2849753,47.4544589 51.6347405,56.3859141 44.0951632,60.8652567 C44.0951632,60.8652567 45.3018768,56.5638484 43.8783557,52.2638485 C42.9219708,54.9967122 33.1893888,62.0938952 43.4400459,77.0826272 C36.6224873,76.1633784 30.4691072,68.6680734 30.4691072,63.2816886 C30.4691072,58.6126746 32.6337081,55.2530503 32.6337081,50.5258203 C32.6337081,48.1150223 31.1889194,45.5465247 28.6449289,43.0347877 L28.6449289,43.0347877 Z" id="path114" fill="#EDAE09"></path>
                        <path d="M31.9918302,43.7558675 C32.3797175,43.8361961 32.6538489,43.8915951 32.7945062,43.9183557 C35.8214076,44.4905153 39.9552572,45.2943651 42.5661961,45.4122524 C42.7982149,45.4225341 43.0169942,45.4276514 43.2319238,45.4276514 C43.7206562,45.4276514 44.1929097,45.3930036 44.6577923,45.3436608 C44.4221116,48.68075 42.0585905,52.1492945 38.9909849,56.4906089 C33.5203747,64.2305148 39.9941305,74.3666648 39.9941305,74.3666648 C39.9941305,74.3666648 34.7023466,71.0718292 32.5441776,65.252111 C30.4614077,59.6309844 37.8860554,51.6666654 31.9918302,43.7558675" id="path116" fill="#2D7BC8"></path>
                        <path d="M74.2549277,18.7775113 C78.1342703,19.0784502 82.0732374,19.3123 85.9615002,19.4708915 C88.4722983,19.5726756 90.2042231,19.7089666 91.4093874,19.8991544 C92.9089179,20.1342248 94.1713591,20.5178868 95.2671338,21.070469 C96.729575,21.8075112 97.8384952,22.9219713 98.4751149,24.2888257 C98.9455374,23.5952107 99.542251,22.9436144 100.276054,22.3426285 C101.595772,21.2619244 103.292955,20.4390605 105.319246,19.8958211 C107.094833,19.4197648 109.111265,19.1362437 111.312673,19.0525817 C111.767133,19.0351638 112.216899,19.0263845 112.649293,19.0263845 C114.439903,19.0263845 116.07887,19.1774643 117.520185,19.4769479 C119.605631,19.9097648 121.268072,20.6178399 122.601405,21.641361 C122.985443,21.9351638 123.320185,22.2384971 123.614081,22.5441778 L123.614081,18.8182155 C123.614081,18.8182155 155.513611,17.3290606 194.901404,5.17126748 L187.892014,36.2522057 L185.84084,36.8141305 C181.412672,38.0276047 176.899526,39.1633793 172.425817,40.1887314 L168.968071,40.9816891 L165.680278,26.5872763 L165.680278,41.673614 C144.203752,46.1971819 123.614081,47.5924871 123.614081,47.5924871 L123.614081,44.1873698 C123.336147,44.497135 123.035208,44.8004684 122.701405,45.0920646 C121.379809,46.2492477 119.688729,47.1427218 117.676053,47.7474166 C115.846006,48.2976514 113.795772,48.6197171 111.582626,48.7037547 C109.245537,48.7929565 107.120655,48.6122054 105.264317,48.166196 C103.219246,47.6751162 101.513612,46.8761021 100.192486,45.7911726 C99.400467,45.139905 98.7661947,44.4230505 98.2887299,43.6474637 C97.7422511,44.6346937 96.9192464,45.5052571 95.8192464,46.2422993 C94.5037535,47.1211256 92.8140822,47.6830974 90.648824,47.9619706 C88.6525799,48.2154918 85.2023453,48.237088 80.8023454,47.9765246 C79.2230027,47.8830974 63.5262895,47.0769941 49.3755856,44.71352 L49.3755856,41.1080741 C49.1314542,41.3394825 48.8849753,41.5369943 48.6464777,41.7037079 C47.1492946,42.7459144 45.327182,43.2746468 43.2319238,43.2746468 C43.0476046,43.2746468 42.8601867,43.270797 42.6637548,43.2619707 C40.7069943,43.1741304 37.4385437,42.6995294 33.2264311,41.8093417 C31.0051635,41.3398581 18.0800465,38.7609849 3.5605539,34.2854921 L3.5605539,5.23568062 L8.10957726,6.57971815 C11.1016429,7.46333315 14.1407978,8.31370871 17.1440371,9.10615001 L19.7843188,9.80323919 L19.7843188,18.6047413 C20.772253,18.8563845 21.7635206,19.103192 22.7497647,19.3454925 L23.8546942,19.615962 L23.8546942,10.8323941 C47.4732382,16.5215958 68.5206556,18.3914549 74.2549277,18.7775113" id="path118" fill="#2D7BC8"></path>
                        <path d="M23.0233797,29.746572 L24.3783092,30.0746471 L24.3783092,38.056431 L22.188591,37.5253042 C16.9843188,36.2643183 11.7413143,34.8543653 6.60338012,33.3366189 L5.33305151,32.961032 L5.33305151,7.6074646 L7.60802798,8.27976505 C10.6160091,9.16812184 13.6722532,10.022535 16.6917836,10.8201406 L18.0118305,11.1685913 L18.0118305,19.9789197 C19.4446943,20.3506568 20.8914549,20.715023 22.3288727,21.0671356 L23.6795769,21.3981685 L23.6795769,29.1676049 L21.4856802,28.6300462 C20.3299056,28.3474641 19.1681216,28.0564312 18.0118305,27.7596707 L18.0118305,28.4886847 C19.6733798,28.9196237 21.3538023,29.3412669 23.0233797,29.746572" id="path120" fill="#EDAE09"></path>
                        <path d="M48.3535199,30.2286847 C49.3690129,31.2745532 49.863379,32.835586 49.864318,34.9985437 C49.864318,37.4502808 49.1145528,39.216384 47.6342711,40.2492478 C46.4394355,41.0807501 44.9585435,41.501783 43.2319238,41.501783 C43.0723463,41.501783 42.9109848,41.4986844 42.743567,41.4915483 C40.9046938,41.4078863 37.6513136,40.9052102 33.5823935,40.0731915 C31.3952574,39.6249755 29.1835204,39.1483089 27.0081214,38.6553511 L25.6271825,38.3426751 L25.6271825,13.0510795 L27.7906566,13.5407508 C30.8355391,14.2301405 33.9288254,14.8831921 36.9837549,15.4817837 L39.786337,16.0183564 C42.6258205,16.5492954 45.5133322,17.0488728 48.3704213,17.5032859 L49.864318,17.7407977 L49.864318,24.9662435 C49.863379,27.4563373 49.7201866,28.291173 49.4910786,28.824835 C49.2727687,29.3394359 48.8976514,29.8032387 48.3535199,30.2286847" id="path122" fill="#EDAE09"></path>
                        <path d="M69.3103269,37.4587315 L70.9192471,37.6080272 L70.9192471,45.5022993 L68.9835664,45.322581 C63.5544585,44.8200928 58.0657262,44.1717829 52.6685433,43.3956797 L51.147886,43.1779801 L51.147886,17.9393892 L53.1727686,18.2295301 C58.5056323,18.9962906 63.9291064,19.6370887 69.292017,20.1342248 L70.9014067,20.283145 L70.9014067,28.1770885 L68.964787,27.9980744 C67.3305147,27.8460556 65.6784021,27.6808444 64.0314538,27.5027693 L64.0314538,28.4160556 C65.4474162,28.5708444 66.8694819,28.7164312 68.2746462,28.8512199 L69.8779325,29.0051166 L69.8779325,36.6859146 L67.9361485,36.4999521 C66.6422519,36.3760085 65.3361486,36.2426752 64.0314538,36.1018301 L64.0314538,36.9263371 C65.7882613,37.1177925 67.5572753,37.2962432 69.3103269,37.4587315" id="path124" fill="#EDAE09"></path>
                        <path d="M97.1107957,41.9179332 C96.7812182,43.0182618 96.01596,43.9770412 94.8347394,44.768027 C93.7516408,45.4911256 92.3103263,45.9609848 90.4248804,46.2038017 C89.4835658,46.3238956 88.1769931,46.384412 86.5445988,46.384412 C84.9276974,46.384412 83.0295754,46.3244589 80.9014064,46.207088 C78.559153,46.0761491 76.1835662,45.9178862 73.8436601,45.7366655 L72.2084489,45.6093885 L72.2084489,20.3962906 L74.117369,20.545023 C78.0187774,20.8469009 81.9793407,21.0816427 85.8887302,21.2417366 C88.3309837,21.341314 89.9976503,21.470422 91.13427,21.6498117 C92.4492935,21.8562905 93.5403732,22.1845534 94.4694812,22.6535206 C95.5929554,23.2192482 96.4028145,24.0272764 96.8755844,25.0511731 C97.3061009,25.9798585 97.4976501,27.4136143 97.4976501,29.7014547 L97.4976501,37.2859615 C97.4976501,40.2765718 97.2769929,41.3609379 97.1107957,41.9179332" id="path126" fill="#EDAE09"></path>
                        <path d="M123.776992,40.1793417 C123.521124,41.4764778 122.765725,42.680844 121.534269,43.7586374 C120.404222,44.7474637 118.934739,45.5182618 117.165725,46.0502805 C115.479809,46.5568063 113.578401,46.8538955 111.515021,46.9327688 C109.341312,47.0145528 107.376523,46.8502336 105.678401,46.4427218 C103.896711,46.0145059 102.429575,45.3343181 101.317838,44.4215951 C100.092486,43.4145529 99.344129,42.2337079 99.0948332,40.9136609 C98.9009365,39.8938018 98.8065703,38.2740836 98.8070398,35.9624404 L98.8070398,32.2571823 C98.8065703,29.8868537 98.9051618,28.2408913 99.1089177,27.2276519 C99.3671337,25.9296238 100.137556,24.7474642 101.39812,23.714037 C102.522533,22.7943656 103.996242,22.0855394 105.778871,21.6074173 C107.425349,21.1656333 109.311265,20.9019244 111.380279,20.8230511 C111.812204,20.8070887 112.239434,20.7990605 112.649293,20.7990605 C114.319246,20.7990605 115.836617,20.9380276 117.160091,21.2125816 C118.97887,21.5896239 120.4061,22.1900464 121.523471,23.0479806 C122.772767,24.0056332 123.535208,25.164882 123.790138,26.4933796 C123.983565,27.5051167 124.077462,29.1191542 124.077931,31.4291541 L124.077931,35.1351634 C124.077931,37.5051164 123.97934,39.1558676 123.776992,40.1793417" id="path128" fill="#EDAE09"></path>
                        <path d="M148.292954,42.9848816 C145.697649,43.3812196 143.059151,43.7501867 140.450701,44.083567 L138.453987,44.3384965 L138.453987,40.0285905 C137.823471,41.2765717 137.193893,42.5186844 136.568072,43.7530975 L136.134738,44.6069942 L135.182626,44.7131914 C132.570419,45.0032853 129.923001,45.2657266 127.312203,45.4920176 L125.386382,45.6596702 L125.386382,20.4441779 L127.005631,20.3033328 C129.598119,20.0773704 132.217837,19.8191544 134.790137,19.5323469 L136.759621,19.3135676 L136.759621,23.1563374 C137.255865,22.0897647 137.750701,21.0262436 138.241781,19.969577 L138.654926,19.0802812 L139.626757,18.9572296 C142.325349,18.615962 145.061029,18.2346474 147.758682,17.8235207 L149.798118,17.5126756 L149.798118,42.7554449 L148.292954,42.9848816" id="path130" fill="#EDAE09"></path>
                        <path d="M162.479808,40.5004685 C159.392015,41.1117361 156.252109,41.68629 153.147883,42.2075107 L151.082625,42.5538956 L151.082625,17.3023 L152.561029,17.0539902 C155.635207,16.5369949 158.740372,15.9693893 161.791545,15.3656804 L163.907977,14.9469949 L163.907977,40.218215 L162.479808,40.5004685" id="path132" fill="#EDAE09"></path>
                        <path d="M186.397648,34.8233794 L185.372765,35.104694 C180.96854,36.3117831 176.479338,37.4407502 172.030043,38.4615014 L170.300465,38.857276 L169.90516,37.1280742 C168.338493,30.2681213 166.769479,23.3968069 165.198118,16.5131451 L164.798118,14.7604691 L166.556334,14.3848823 C169.707038,13.7116898 172.89577,12.9802814 176.03192,12.2113612 L177.923939,11.746056 L178.475582,15.4938963 C178.543658,15.4769949 178.610324,15.4595771 178.678399,15.4417837 L179.169949,11.4268072 L180.336615,11.1225349 C183.430512,10.3183565 186.556333,9.45530493 189.626756,8.55873218 L192.513141,7.71605615 L186.397648,34.8233794" id="path134" fill="#EDAE09"></path>
                        <path d="M22.3971356,36.6642714 C17.2071357,35.4060085 11.9782626,34.0005156 6.85427213,32.4868067 L6.21971815,32.2986377 L6.21971815,8.79347396 L7.35676038,9.1290608 C10.3726758,10.020704 13.4375114,10.8775115 16.4654925,11.6765725 L17.1254925,11.8511734 L17.1254925,20.6633328 C18.7784033,21.0957741 20.4542718,21.5207037 22.1179807,21.9281685 L22.7932389,22.0928633 L22.7932389,28.0380744 L21.6965722,27.7690134 C20.1740371,27.3967599 18.6412671,27.0098115 17.1254925,26.6149289 L17.1254925,29.1736143 C19.0076521,29.6662434 20.917699,30.1477927 22.8148821,30.6075579 L23.4925346,30.7722528 L23.4925346,36.9299991 L22.3971356,36.6642714" id="path136" fill="#FFFFFF"></path>
                        <path d="M38.5746939,34.0412198 L38.5746939,32.8502809 C38.5750225,31.9769476 38.3760554,31.7994358 38.3738488,31.7981682 C38.2359615,31.7145532 37.9850695,31.6019241 37.5287784,31.4728161 L37.5287784,34.4224874 C37.7915953,34.4573231 38.0186375,34.4746001 38.2088253,34.4746001 C38.3729568,34.4746001 38.4719709,34.4615484 38.523708,34.4511259 C38.5431446,34.3986376 38.5746939,34.277417 38.5746939,34.0412198 L38.5746939,34.0412198 Z M47.1150223,29.9897176 C47.0197171,30.0430978 46.9166185,30.0933326 46.8058674,30.1399053 C47.1521115,30.3473232 47.4413134,30.5684969 47.6793415,30.8060086 C48.5521115,31.6778396 48.9769941,33.0488724 48.9784025,34.9985437 C48.9784025,37.143661 48.3558673,38.6652572 47.1286373,39.5215483 C46.0845998,40.2474168 44.7733322,40.6160084 43.2319238,40.6160084 C43.0852102,40.6160084 42.9366656,40.6130976 42.7835201,40.6061023 C40.9893886,40.5248816 37.7851634,40.0276985 33.7602808,39.2046469 C31.5792011,38.7582619 29.3733326,38.2821587 27.2038021,37.7910319 L26.513004,37.6342244 L26.513004,14.1600466 L27.5949758,14.4046945 C30.6484969,15.0962907 33.7505625,15.7511733 36.8131916,16.3515958 L37.5287784,16.4920653 L37.5287784,26.2380745 C37.8139897,26.2775111 38.0560554,26.2971355 38.2537549,26.2971355 C38.3381211,26.2971355 38.4013605,26.2934735 38.4481211,26.2883092 C38.4976516,26.1304219 38.5746939,25.754835 38.5746939,24.9578398 L38.5746939,16.6934268 L39.6240366,16.8891076 C42.4702806,17.4215019 45.3666186,17.9230981 48.2309847,18.3778869 L48.9784025,18.4967132 L48.9784025,24.9657271 C48.9769941,27.4338021 48.8319237,28.1139899 48.6755856,28.4789664 C48.4413133,29.0306096 47.9314542,29.5244594 47.1150223,29.9897176 L47.1150223,29.9897176 Z" id="path138" fill="#FFFFFF"></path>
                        <path d="M69.2281673,38.3417831 L70.0328621,38.4160554 L70.0328621,44.5295764 L69.0643175,44.4402806 C63.6516416,43.9388721 58.1769939,43.2930036 52.7943649,42.5186844 L52.034271,42.4097642 L52.034271,18.9614549 L53.0460081,19.1070418 C58.3943647,19.8756803 63.8323928,20.5178868 69.2103269,21.0160089 L70.0150217,21.0909854 L70.0150217,27.2051167 L69.0464771,27.1154453 C67.0915476,26.9342247 65.111266,26.7322998 63.1450688,26.5135205 L63.1450688,29.2099523 C64.82582,29.3971824 66.5192472,29.5732387 68.1896697,29.7333326 L68.9915476,29.8103748 L68.9915476,35.7108442 L68.0211251,35.6172761 C66.4056321,35.462863 64.7704209,35.2939897 63.1450688,35.1131447 L63.1450688,37.7202338 C65.1652566,37.9454451 67.2079795,38.1539897 69.2281673,38.3417831" id="path140" fill="#FFFFFF"></path>
                        <path d="M85.4436598,38.2966657 L85.4436598,29.8816894 C85.4450683,28.3531448 85.2553969,27.9005157 85.2075096,27.8117833 C85.1497631,27.7756331 84.9173688,27.6592012 84.2497632,27.5722528 L84.2497632,39.9906563 C84.8755847,39.9873229 85.1230026,39.9323464 85.2009368,39.9088722 C85.2891997,39.8816891 85.3333312,39.8558675 85.3507021,39.8435671 C85.3737068,39.7583089 85.4450683,39.4028629 85.4436598,38.2966657 L85.4436598,38.2966657 Z M96.2614999,41.6638957 C95.9929553,42.5619708 95.3474155,43.3582618 94.3422512,44.0315012 C93.3891995,44.6676984 92.03427,45.1028627 90.3131433,45.324412 C89.407979,45.4399519 88.1399039,45.498074 86.5445988,45.498074 C84.9441293,45.498074 83.0624392,45.4390599 80.9507022,45.3220176 C78.6140825,45.1914543 76.2460075,45.0342712 73.9122047,44.8525341 L73.0943644,44.7896702 L73.0943644,21.3545535 L74.0492939,21.427699 C77.9610309,21.7319713 81.9323923,21.9667131 85.8530495,22.127699 C88.2600917,22.225821 89.8943639,22.3510793 90.9971808,22.524929 C92.2023451,22.7145534 93.2366174,23.0239431 94.0704202,23.4440839 C95.0103263,23.9183562 95.6840352,24.5844125 96.0718286,25.42399 C96.4403732,26.2188256 96.6117347,27.5779336 96.6112652,29.7014547 L96.6112652,37.2863371 C96.6117347,39.4435671 96.4967112,40.8754919 96.2614999,41.6638957 L96.2614999,41.6638957 Z" id="path142" fill="#FFFFFF"></path>
                        <path d="M112.0338,39.0821117 L112.0338,29.1296237 C112.034269,27.7844594 111.929105,27.3154923 111.887321,27.1821589 C111.839903,27.1665721 111.738964,27.1440369 111.553988,27.1440369 C111.523471,27.1440369 111.492016,27.1451167 111.459152,27.1460557 C111.187321,27.1568538 111.050701,27.1972294 110.992485,27.2201402 C110.95211,27.3624406 110.8615,27.8229571 110.8615,29.0817364 L110.8615,39.1949286 C110.86103,40.0713605 110.948824,40.4294826 110.989669,40.5488722 C111.08873,40.5943652 111.258213,40.6160084 111.458213,40.6093887 C111.735208,40.5980272 111.859152,40.5516422 111.901406,40.530938 C111.937086,40.4361023 112.033331,40.086384 112.0338,39.0821117 L112.0338,39.0821117 Z M122.907509,40.0080741 C122.690138,41.1080741 122.031922,42.1454919 120.950701,43.0919708 C119.916898,43.9972289 118.557274,44.7060083 116.910795,45.2013604 C115.296241,45.6868064 113.469011,45.9717829 111.481218,46.0473697 C109.38826,46.126196 107.504223,45.9699519 105.884974,45.580797 C104.235209,45.1845059 102.887791,44.5638956 101.880749,43.7366186 C100.820185,42.8653041 100.175584,41.8595764 99.9657252,40.7484027 C99.7821571,39.7839427 99.6929553,38.2177925 99.6934247,35.9624404 L99.6934247,32.2571823 C99.6929553,29.9464312 99.785913,28.3573702 99.9779318,27.4009852 C100.195303,26.309436 100.861969,25.2994829 101.960091,24.3999524 C102.985913,23.5596238 104.348354,22.9084032 106.007979,22.4633328 C107.591547,22.0389666 109.410326,21.7854924 111.414082,21.7088257 C111.835208,21.6929103 112.250701,21.6850229 112.649293,21.6850229 C114.258683,21.6850229 115.71549,21.8177929 116.980279,22.0802342 C118.665255,22.4301403 119.974645,22.9764314 120.984035,23.7510792 C122.055865,24.5732388 122.70657,25.5516426 122.919715,26.6600463 C123.102344,27.6159148 123.191077,29.1760087 123.191546,31.4291541 L123.191546,35.1351634 C123.191546,37.4469944 123.098588,39.0408441 122.907509,40.0080741 L122.907509,40.0080741 Z" id="path144" fill="#FFFFFF"></path>
                        <path d="M148.159621,42.1088252 C145.570888,42.5036609 142.939433,42.8722994 140.338964,43.2047877 L139.340372,43.3323933 L139.340372,36.306478 C138.15117,38.6652572 136.958213,41.0244121 135.776992,43.3525811 L135.56056,43.7793416 L135.084504,43.8323463 C132.480748,44.1221116 129.838964,44.3836139 127.235678,44.6093886 L126.272767,44.6930036 L126.272767,21.2564314 L127.082626,21.1863844 C129.682156,20.9600464 132.308447,20.7005629 134.88826,20.413192 L135.873236,20.3037084 L135.873236,27.153004 C136.938494,24.8723468 137.999527,22.5933328 139.045536,20.3427694 L139.252109,19.8980277 L139.738025,19.8371357 C142.443658,19.4943657 145.18732,19.1116427 147.892485,18.699577 L148.912203,18.5440371 L148.912203,41.9943651 L148.159621,42.1088252" id="path146" fill="#FFFFFF"></path>
                        <path d="M162.135677,38.7615483 C162.135677,31.5426753 162.135677,24.3234736 162.135677,17.1042249 C159.048353,17.7154925 155.954456,18.2812671 152.854926,18.8022531 C152.854926,26.0211261 152.854926,33.2408912 152.854926,40.4592009 C155.954456,39.9389192 159.048353,39.3731446 162.135677,38.7615483" id="path148" fill="#FFFFFF"></path>
                        <path d="M153.741311,19.5507037 C156.242719,19.1245066 158.760559,18.6656333 161.249292,18.1813141 L161.249292,38.0332854 C158.760559,38.5196704 156.24225,38.9816422 153.741311,39.4103746 L153.741311,19.5507037 Z M163.021592,16.0259151 L161.963376,16.2351639 C158.904221,16.8408916 155.790137,17.4108916 152.707977,17.9276521 L151.968541,18.0525817 L151.968541,41.5071351 L153.001874,41.3332384 C156.097179,40.8131445 159.228165,40.2407971 162.307977,39.6313605 L163.021592,39.4901868 L163.021592,16.0259151 L163.021592,16.0259151 Z" id="path150" fill="#FFFFFF"></path>
                        <path d="M178.434268,25.2079806 C178.604221,24.0460088 178.774174,22.9610323 178.942249,21.9573234 C178.589197,22.0470417 178.235207,22.1355863 177.881216,22.2239901 C178.010794,23.054929 178.195301,24.0507506 178.434268,25.2079806 L178.434268,25.2079806 Z M185.6507,34.1094358 L185.138493,34.2497644 C180.746005,35.4535202 176.26901,36.5797174 171.831451,37.5971822 L170.967132,37.7958207 L170.769479,36.9305625 C169.202343,30.0709852 167.633329,23.1991074 166.061968,16.3154925 L165.862437,15.4399527 L166.740841,15.2515959 C169.900935,14.576901 173.098118,13.8431452 176.243188,13.0712673 L177.189197,12.8394363 L177.74178,16.592394 C178.323,16.4469479 178.90516,16.3000465 179.484503,16.1507977 L179.976521,12.1323002 L180.560089,11.9807978 C183.662437,11.174272 186.796709,10.3084504 189.876052,9.40948333 L191.318305,8.98784015 L185.6507,34.1094358 L185.6507,34.1094358 Z" id="path152" fill="#FFFFFF"></path>
                        <path d="M22.605821,31.4685908 C22.605821,32.9135673 22.605821,34.3577456 22.605821,35.8032385 C17.4143658,34.5440836 12.2460091,33.1554452 7.10553973,31.636572 C7.10553973,24.4179337 7.10553973,17.1984972 7.10553973,9.97981196 C10.140657,10.8760561 13.1858682,11.7277462 16.2393423,12.5337556 C16.2393423,15.4713142 16.2393423,18.4088728 16.2393423,21.3473704 C18.125023,21.8445534 20.0145065,22.3253985 21.9070887,22.7886379 C21.9070887,24.1624407 21.9070887,25.5351167 21.9070887,26.9083561 C20.0145065,26.4451167 18.125023,25.964835 16.2393423,25.4670886 C16.2393423,26.9299993 16.2393423,28.3934735 16.2393423,29.8573232 C18.3575582,30.4159147 20.4793892,30.9530978 22.605821,31.4685908" id="path154" fill="#2D7BC8"></path>
                        <path d="M36.6426282,35.1736611 C36.6426282,33.5680743 36.6426282,31.9628631 36.6426282,30.3572293 C37.6833793,30.5615485 38.4151164,30.7869476 38.8332385,31.0398114 C39.2514075,31.29291 39.4613605,31.8957269 39.4613605,32.8502809 C39.4613605,33.2469475 39.4613605,33.6436142 39.4613605,34.0412198 C39.4604685,34.7276517 39.2587314,35.1399052 38.8558206,35.2780273 C38.4517831,35.4159146 37.7132854,35.3830977 36.6426282,35.1736611 Z M27.3996707,36.9267127 C29.5750697,37.4192948 31.7543185,37.889154 33.9376048,38.3366188 C38.3032385,39.2286375 41.2714544,39.6506563 42.8238487,39.7210788 C44.37629,39.788168 45.6422524,39.4766187 46.6219237,38.7943652 C47.6009378,38.1117831 48.0920176,36.8441775 48.0920176,34.9985437 C48.0910786,33.3131447 47.7460082,32.1258677 47.052581,31.4333795 C46.3596702,30.7408913 44.9970881,30.1712669 42.9672759,29.6999523 C44.8048815,29.7454453 46.0442242,29.578403 46.6769472,29.2187317 C47.309858,28.8587317 47.7056326,28.4952575 47.8596232,28.1328631 C48.0150223,27.7690134 48.0920176,26.713051 48.0920176,24.9657271 C48.0920176,23.0615487 48.0920176,21.1571826 48.0920176,19.2539432 C45.2098111,18.7947413 42.3332853,18.2971826 39.4613605,17.7609855 C39.4613605,20.15953 39.4613605,22.5592483 39.4613605,24.9578398 C39.4604685,26.1168538 39.3104685,26.8065721 39.0096704,27.026666 C38.7085436,27.2460087 37.9190601,27.236666 36.6426282,26.9863374 C36.6426282,23.7318304 36.6426282,20.4764314 36.6426282,17.2210794 C33.5548818,16.6154925 30.4733326,15.9652109 27.3996707,15.2690137 C27.3996707,22.4882623 27.3996707,29.707511 27.3996707,36.9267127 L27.3996707,36.9267127 Z" id="path156" fill="#2D7BC8"></path>
                        <path d="M52.920656,41.641736 C58.3169,42.4169003 63.7262895,43.0553041 69.1464771,43.5577923 C69.1464771,42.1132384 69.1464771,40.6684497 69.1464771,39.2238957 C66.8492941,39.0113136 64.5525805,38.773661 62.2586839,38.5117831 C62.2586839,37.0483089 62.2586839,35.5850226 62.2586839,34.1215484 C64.2065712,34.3441775 66.1553974,34.5488724 68.1051626,34.7357268 C68.1051626,33.361924 68.1051626,31.989248 68.1051626,30.6154452 C66.1549279,30.4282152 64.2065712,30.2239429 62.2586839,30.0014546 C62.2586839,28.50845 62.2586839,27.0154923 62.2586839,25.522112 C64.5474162,25.78399 66.836618,26.0205627 69.1286368,26.2333327 C69.1286368,24.7881684 69.1286368,23.3436144 69.1286368,21.898638 C63.7150219,21.3967131 58.3098577,20.7586849 52.920656,19.9840371 C52.920656,27.2032857 52.920656,34.4224874 52.920656,41.641736" id="path158" fill="#2D7BC8"></path>
                        <path d="M83.3633782,40.8549755 C83.3633782,36.1065719 83.3633782,31.3578396 83.3633782,26.6089195 C84.7168993,26.6741777 85.5492936,26.8694829 85.8615002,27.2084031 C86.1732373,27.5463843 86.3309838,28.4380275 86.3300448,29.882065 C86.3300448,32.6872292 86.3300448,35.4920179 86.3300448,38.2966657 C86.3309838,39.2779802 86.2779321,39.9042713 86.1741762,40.1769943 C86.0694814,40.4487783 85.8319227,40.6422525 85.4596223,40.7562901 C85.0887303,40.869999 84.3891998,40.9052102 83.3633782,40.8549755 Z M73.9807493,43.968966 C76.3192469,44.1507031 78.6586835,44.3065717 80.9995285,44.4375576 C85.5333312,44.6882148 88.6023452,44.6488252 90.2014062,44.4455857 C91.8004672,44.2394825 93.0164296,43.8512196 93.8497629,43.2942712 C94.6830962,42.7365717 95.2037535,42.1066187 95.4122042,41.4093886 C95.6211244,40.7117361 95.7253497,39.3366657 95.7253497,37.2863371 C95.7253497,34.758309 95.7253497,32.2291072 95.7253497,29.7014547 C95.7253497,27.7567599 95.573237,26.4563374 95.2676033,25.7971825 C94.9633779,25.1380745 94.4309836,24.6183562 93.6713592,24.2361496 C92.9126737,23.853051 91.9755846,23.5761496 90.8596221,23.4013609 C89.7436597,23.2253046 88.0629086,23.1042717 85.8173687,23.0127694 C81.8685426,22.8515487 77.9225333,22.6173703 73.9807493,22.3116426 C73.9807493,29.5310791 73.9807493,36.7502808 73.9807493,43.968966 L73.9807493,43.968966 Z" id="path160" fill="#2D7BC8"></path>
                        <path d="M112.920185,39.0821117 C112.919715,40.0902337 112.827227,40.7384966 112.641312,41.0271821 C112.455396,41.3160084 112.072298,41.4728159 111.492016,41.4948346 C111.001406,41.5135201 110.625819,41.4132384 110.365725,41.1944121 C110.104692,40.9760084 109.974645,40.3093887 109.975115,39.1943652 C109.975115,35.8234263 109.975115,32.4524875 109.975115,29.0817364 C109.975115,27.8238491 110.06103,27.0455392 110.231453,26.7455392 C110.402814,26.4451167 110.800936,26.2844594 111.425349,26.2606566 C112.063847,26.2360557 112.474176,26.3882623 112.65211,26.7202341 C112.830983,27.0515956 112.920185,27.8548819 112.920185,29.1305157 C112.920185,32.4479335 112.920185,35.7653043 112.920185,39.0821117 L112.920185,39.0821117 Z M122.305631,31.4291541 C122.305161,29.2530509 122.219246,27.7187786 122.049293,26.8258679 C121.877931,25.9323468 121.344128,25.1436144 120.445067,24.4544125 C119.545537,23.7643187 118.330983,23.2656802 116.799997,22.9487788 C115.269481,22.6305628 113.484974,22.5168539 111.447885,22.5948351 C109.514551,22.6676051 107.777462,22.9065722 106.237087,23.3197647 C104.69765,23.7323938 103.459622,24.3177928 102.521124,25.0854454 C101.584505,25.8535205 101.02535,26.6807975 100.846946,27.5737082 C100.668073,28.4661026 100.578871,30.0282622 100.57934,32.2568067 C100.57934,33.4925344 100.57934,34.7276517 100.57934,35.9624404 C100.578871,38.1385906 100.663847,39.6783089 100.836148,40.5826281 C101.00704,41.4867595 101.542251,42.3116421 102.44272,43.0516421 C103.343659,43.7916421 104.559622,44.3506092 106.092486,44.7197641 C107.62441,45.0872759 109.409387,45.238966 111.447885,45.1615482 C113.380279,45.0878392 115.116899,44.8154918 116.655396,44.3530036 C118.194363,43.8900928 119.431452,43.2436609 120.366664,42.4247877 C121.304222,41.6052102 121.859621,40.7403746 122.038025,39.8362431 C122.216898,38.9313605 122.305631,37.3642714 122.305631,35.1351634 C122.305631,33.8999992 122.305631,32.6648818 122.305631,31.4291541 L122.305631,31.4291541 Z" id="path162" fill="#2D7BC8"></path>
                        <path d="M148.025818,41.2333323 C148.025818,34.0135203 148.025818,26.794835 148.025818,19.5756333 C145.304222,19.9906568 142.5784,20.3707976 139.849292,20.7159619 C138.230043,24.2033327 136.608917,27.677511 134.986851,31.1394358 C134.986851,27.8577927 134.986851,24.5760088 134.986851,21.2938492 C132.379809,21.5839431 129.770889,21.8421591 127.159152,22.0690135 C127.158682,29.2888256 127.158682,36.5074639 127.159152,43.7267125 C129.770419,43.4994825 132.379809,43.2418299 134.986851,42.9511257 C136.734738,39.5061023 138.481217,36.04737 140.226757,32.5737081 C140.226757,35.8243653 140.226757,39.0751633 140.226757,42.325398 C142.829574,41.9925342 145.429574,41.62906 148.025818,41.2333323" id="path164" fill="#2D7BC8"></path>
                        <path d="M162.135677,38.7615483 C162.135677,31.5426753 162.135677,24.3234736 162.135677,17.1042249 C159.048353,17.7154925 155.954456,18.2812671 152.854926,18.8022531 C152.854926,26.0211261 152.854926,33.2408912 152.854926,40.4592009 C155.954456,39.9389192 159.048353,39.3731446 162.135677,38.7615483" id="path166" fill="#2D7BC8"></path>
                        <path d="M180.05023,20.7601403 C179.585911,23.3323938 179.120653,26.4836613 178.652578,30.2127222 C177.717366,26.3018773 177.129573,23.4145534 176.889667,21.556807 C177.944127,21.2961967 178.998118,21.0310323 180.05023,20.7601403 Z M184.904221,33.3953043 C186.647413,25.6981684 188.387319,17.9863376 190.123939,10.2596711 C187.020183,11.1667603 183.905629,12.0262908 180.783094,12.8385443 C180.619244,14.1784034 180.454925,15.5188259 180.291075,16.8581216 C179.197179,17.1412672 178.102812,17.4172766 177.007038,17.688732 C176.823,16.4370418 176.638963,15.1850231 176.454456,13.9319245 C173.28685,14.7093424 170.110324,15.4379339 166.926287,16.1183095 C168.496709,23.0019243 170.066193,29.8736612 171.633799,36.7332385 C176.074643,35.7150226 180.498587,34.6023935 184.904221,33.3953043 L184.904221,33.3953043 Z" id="path168" fill="#2D7BC8"></path>
                        <path d="M8.75145518,30.4005157 C13.0330983,31.6563842 17.3837085,32.831032 21.7200464,33.9093888 L21.7200464,34.6741306 C17.1328634,33.5451635 12.5232861,32.3022997 7.99168994,30.9736142 L7.99168994,11.1629105 C8.24436599,11.2360561 8.49840354,11.3066664 8.75145518,11.3792955 L8.75145518,30.4005157" id="path170" fill="#6798D7"></path>
                        <path d="M16.1128165,24.5169477 L16.1128165,23.7431919 L17.2251169,24.0366191 C18.4794831,24.367652 19.750422,24.6933797 21.0207506,25.0122998 L21.0207506,25.7774172 C19.4973235,25.3981214 17.9696709,25.0069477 16.4658681,24.6102811 L16.1128165,24.5169477" id="path172" fill="#6798D7"></path>
                        <path d="M41.1073229,32.2769945 L41.1073229,33.4675578 C41.1058675,34.8835672 40.3865718,35.3656799 39.934506,35.5305625 C40.1683558,35.2118301 40.3471821,34.7427221 40.3471821,34.0412198 L40.3471821,32.8506565 C40.3475107,31.5520649 40.0023934,30.7117363 39.2926751,30.2826284 C38.7797173,29.9717363 37.9915014,29.7188725 36.8131916,29.4872293 L36.5161024,29.4296706 L36.5161024,28.7074641 L37.5730038,28.9150697 C38.7510788,29.1455861 39.5393417,29.3986378 40.0518769,29.7089664 C40.7619708,30.13845 41.1073229,30.978403 41.1073229,32.2769945" id="path174" fill="#6798D7"></path>
                        <path d="M43.6751632,28.820234 L43.7490599,28.2403749 C43.9407501,28.2454923 44.125398,28.248403 44.3032853,28.248403 C46.0886373,28.248403 46.759811,28.0022998 46.9784026,27.8854923 C46.8909378,27.9971824 46.6921585,28.1900932 46.2395294,28.4483091 C46.0469942,28.5572763 45.4133791,28.8076049 43.6751632,28.820234" id="path176" fill="#6798D7"></path>
                        <path d="M41.1073229,18.9614549 L41.1073229,24.3845534 C41.1063839,25.920281 40.8624872,26.7524876 40.291783,27.1689665 C40.1732854,27.2553514 40.0344591,27.3182622 39.8831915,27.370328 C40.2037549,26.8891073 40.3471821,26.1291543 40.3471821,24.9578398 L40.3471821,18.8257272 C40.5993417,18.8723 40.8542243,18.9153986 41.1073229,18.9614549" id="path178" fill="#6798D7"></path>
                        <path d="M29.0450697,35.6449756 C30.9794828,36.0783559 32.9372292,36.4975578 34.8756799,36.8953512 C38.7547878,37.6883559 41.943567,38.186431 43.6234731,38.2623465 C43.747229,38.2680272 43.8701397,38.2698582 43.9915482,38.2698582 C44.9741303,38.2698582 45.8049284,38.0760554 46.487135,37.7130976 C46.3752571,37.8478864 46.2542242,37.9704216 46.1157735,38.0666657 C45.3748345,38.5822056 44.4046937,38.8431446 43.2319238,38.8431446 C43.1108909,38.8431446 42.9876515,38.8407972 42.8636609,38.8356328 C41.1834262,38.759154 37.9951634,38.2610789 34.1160555,37.4680742 C32.1776048,37.0714075 30.219342,36.6510789 28.2854453,36.2178864 L28.2854453,16.3765254 C28.5379805,16.4328634 28.7925345,16.4854925 29.0450697,16.5408447 L29.0450697,35.6449756" id="path180" fill="#6798D7"></path>
                        <path d="M62.1323928,33.2153982 L62.1323928,32.4825813 L63.1192472,32.5953513 C64.4807496,32.7507034 65.85305,32.8933795 67.2192471,33.0318302 L67.2192471,33.7591541 C65.6037542,33.5984968 63.9732378,33.4253982 62.3596229,33.2412668 L62.1323928,33.2153982" id="path182" fill="#6798D7"></path>
                        <path d="M54.5666653,40.2262901 C59.1018765,40.8676046 63.6957731,41.413567 68.2605617,41.8614074 L68.2605617,42.5839895 C63.4474163,42.1234731 58.5938952,41.5487314 53.8065714,40.8722056 L53.8065714,21.0051638 C54.0591536,21.0403751 54.3131442,21.0728633 54.5666653,21.1080746 L54.5666653,40.2262901" id="path184" fill="#6798D7"></path>
                        <path d="M62.1323928,24.6154454 L62.1323928,23.8835205 L63.1192472,23.9957271 C64.8197167,24.1901402 66.5356791,24.369483 68.2422518,24.5371355 L68.2422518,25.2596707 C66.2863833,25.0718773 64.312205,24.8648351 62.3596229,24.6418304 L62.1323928,24.6154454" id="path186" fill="#6798D7"></path>
                        <path d="M87.2727678,25.8887317 C87.7666645,26.4253045 87.9769931,27.4046472 87.9760541,29.1642716 L87.9760541,37.5779333 C87.9769931,39.0150225 87.8680729,39.4943652 87.7619696,39.7742244 C87.6464767,40.0731915 87.4009368,40.4474638 86.8971809,40.7117361 C86.938965,40.6361962 86.9755847,40.5619239 87.0018758,40.4923934 C87.1084485,40.212722 87.2173687,39.7337079 87.2159603,38.2966657 L87.2159603,29.8831917 C87.2173687,28.1235204 87.0070401,27.1436613 86.5126739,26.6074172 C86.0164298,26.0695299 85.0873218,25.8050698 83.4065707,25.7234735 L83.2370871,25.7150228 L83.2370871,24.9599994 L84.1661951,25.0051167 C85.8464767,25.0869477 86.7765237,25.3511731 87.2727678,25.8887317" id="path188" fill="#6798D7"></path>
                        <path d="M75.6267587,42.4295764 C77.6821577,42.583614 79.7577445,42.7191539 81.8089181,42.8337548 C83.8873218,42.9487783 85.7361481,43.0070881 87.3037537,43.0070881 C88.8037536,43.0070881 90.0300447,42.952628 90.848824,42.8473229 C92.2938944,42.6615482 93.3938944,42.3221116 94.117838,41.8388722 C94.1652559,41.8069473 94.2023451,41.7732384 94.247885,41.7407501 C94.0366174,42.023567 93.7464765,42.2976985 93.3582136,42.557229 C92.63427,43.0413604 91.53427,43.3797172 90.0896691,43.566243 C89.2699508,43.6704214 88.0436598,43.7257736 86.5445988,43.7257736 C84.9765237,43.7257736 83.1276975,43.6676515 81.0492937,43.5521116 C78.9981201,43.4380271 76.9225333,43.301783 74.8671343,43.1483088 L74.8671343,23.2680276 C75.1192469,23.2869478 75.3741765,23.2999525 75.6267587,23.3183093 L75.6267587,42.4295764" id="path190" fill="#6798D7"></path>
                        <path d="M112.049293,24.5822529 C112.104692,24.5802341 112.26103,24.5807506 112.313612,24.5807506 C113.454927,24.5807506 113.965725,25.0854454 114.192485,25.5098116 C114.377931,25.8520181 114.566664,26.4577928 114.565725,28.3390134 L114.565725,38.2911728 C114.565255,39.5361962 114.439434,40.2615013 114.145068,40.7169004 C113.98826,40.9606093 113.768072,41.145445 113.503284,41.2883088 C113.712673,40.827276 113.805631,40.1456328 113.8061,39.0821117 L113.8061,29.1305157 C113.807039,27.2487317 113.617838,26.6437552 113.43333,26.3009853 C113.2061,25.8769947 112.695302,25.3722998 111.553988,25.3722998 C111.501406,25.3722998 111.447415,25.3731919 111.391547,25.3750228 C110.821124,25.396666 110.36103,25.5206566 110.011265,25.7408914 C110.045537,25.652159 110.082157,25.5784031 110.119246,25.5140369 C110.451171,24.9319712 111.100936,24.6183562 112.049293,24.5822529" id="path192" fill="#6798D7"></path>
                        <path d="M102.476054,26.9553045 C102.308918,27.7864782 102.22488,29.3032857 102.22535,31.4653044 L102.22535,35.1712667 C102.22488,37.2839427 102.30657,38.7830037 102.466195,39.6262431 C102.59765,40.3201868 103.034739,40.9756328 103.765256,41.5755389 C104.563847,42.2315013 105.671828,42.7323463 107.059152,43.0661492 C108.267133,43.3558675 109.657274,43.5037078 111.190138,43.5037078 C111.509856,43.5037078 111.840373,43.4970881 112.173706,43.484459 C114.011734,43.4145529 115.689199,43.1548816 117.160091,42.7127219 C118.557274,42.2923933 119.691546,41.7079332 120.532391,40.9751163 C120.328166,41.2390131 120.07887,41.4995764 119.783565,41.7577924 C118.941312,42.4948816 117.803283,43.0820647 116.400467,43.5042712 C114.930044,43.9464308 113.25211,44.2055388 111.413612,44.2755857 C111.080748,44.2888252 110.749762,44.2948346 110.430514,44.2948346 C108.89765,44.2948346 107.507509,44.1479801 106.299528,43.8572759 C104.912204,43.5238956 103.804223,43.0224872 103.005631,42.3670412 C102.275115,41.7671821 101.838026,41.1107971 101.70657,40.4177455 C101.546946,39.5746938 101.465256,38.0756798 101.465725,35.9624404 L101.465725,32.2568067 C101.465256,30.0948349 101.549293,28.5774171 101.716429,27.7470416 C101.846946,27.0924876 102.281218,26.4517364 103.003753,25.840281 C102.730044,26.2056331 102.551171,26.57845 102.476054,26.9553045" id="path194" fill="#6798D7"></path>
                        <path d="M141.871827,29.4074641 L141.871827,40.4412196 C143.626287,40.21183 145.388729,39.9638488 147.139433,39.7051164 L147.139433,40.470938 C145.140841,40.7704215 143.120184,41.0539426 141.112673,41.3173229 L141.112673,30.9127222 C141.365724,30.4098584 141.618776,29.9103279 141.871827,29.4074641" id="path196" fill="#6798D7"></path>
                        <path d="M134.860091,35.331032 L134.860091,33.4991071 L135.789198,31.5155391 C137.348823,28.1873702 138.914081,24.8314548 140.446475,21.5333328 C140.748353,21.4942718 141.052109,21.4515488 141.354926,21.4121121 L134.860091,35.331032" id="path198" fill="#6798D7"></path>
                        <path d="M128.804692,41.8830506 C130.810795,41.7028159 132.832861,41.499952 134.838964,41.2821116 C134.69718,41.5619708 134.554926,41.8451163 134.413612,42.1234731 C132.298119,42.3553041 130.162438,42.5685905 128.045067,42.7582149 L128.045067,22.8807037 C128.298119,22.8577929 128.55164,22.8322999 128.804692,22.8088257 L128.804692,41.8830506" id="path200" fill="#6798D7"></path>
                        <path d="M154.500935,38.5088253 C156.748822,38.1238958 159.007508,37.7084967 161.249292,37.2760554 L161.249292,38.0332854 C158.760559,38.5196704 156.24225,38.9816422 153.741311,39.4103746 L153.741311,19.5507037 C153.994362,19.5079807 154.247883,19.4606568 154.500935,19.4164314 L154.500935,38.5088253" id="path202" fill="#6798D7"></path>
                        <path d="M172.922061,34.7417832 C176.73192,33.8567128 180.564784,32.8915485 184.34084,31.8694828 C184.279808,32.1394358 184.218305,32.4108912 184.157272,32.6808443 C180.239902,33.747417 176.257273,34.7507503 172.299526,35.6699522 C170.864315,29.3882152 169.428165,23.097652 167.989198,16.7963376 C168.253986,16.7385442 168.518775,16.6769479 168.784033,16.6187789 C170.164784,22.6691074 171.544127,28.7103749 172.922061,34.7417832" id="path204" fill="#6798D7"></path>
                        <path d="M179.567132,30.0023936 C179.99577,26.6778397 180.503751,23.2366661 180.922531,20.9173234 L181.16854,19.5567601 L179.829573,19.9013141 C178.779808,20.1718305 177.728634,20.4370417 176.67793,20.6961497 L176.629104,20.7078868 L176.532859,19.9572765 L182.058681,18.5620183 L180.326287,29.8074171 L179.567132,30.0023936" id="path206" fill="#6798D7"></path>
                        <path d="M182.012672,16.5652578 L181.193892,16.7728634 L181.589197,13.5436616 C181.764315,13.4976522 182.233798,13.376995 182.408916,13.330563 L182.012672,16.5652578" id="path208" fill="#6798D7"></path>
                    </g>
                </g>
            </g>
        </g>
    </g>
</svg>