<svg width="200" height="200" viewBox="0 0 200 200" fill="none" xmlns="http://www.w3.org/2000/svg">
<path d="M188.805 55.2725C184.2 56.7811 179.595 58.2102 174.911 59.5599C170.385 52.7318 163.16 47.7299 153.871 45.0304C147.519 43.2042 140.453 42.4897 132.989 42.8073C133.227 42.3309 133.307 41.6957 133.307 41.1399C133.227 38.9168 131.401 37.0907 129.178 37.0113C99.0075 36.4555 60.7384 56.5429 53.4339 60.5921C50.8932 61.9418 48.5113 63.4504 46.1294 64.9589C43.7475 64.5619 42.0802 64.2443 41.9214 64.2443C39.3807 62.8946 36.84 61.9418 33.8229 61.2273C26.3597 59.0836 19.3728 60.1951 13.4974 64.5619C4.76379 71.0724 0 84.2523 0 101.561C0 115.932 3.25526 126.888 9.44819 133.637C9.92457 134.987 10.5597 136.336 11.2743 137.607C15.6411 145.626 23.422 151.422 33.6641 154.439C40.0159 156.265 47.0822 156.98 54.5454 156.662C54.3073 157.218 54.2279 157.774 54.2279 158.329C54.3073 160.552 56.1334 162.379 58.3565 162.458C88.6066 163.014 126.796 142.926 134.101 138.877C136.721 137.448 139.182 135.939 141.644 134.352C142.517 134.51 143.39 134.59 144.184 134.749L151.489 135.939C151.489 135.939 152.124 133.716 152.362 132.922C152.521 133.399 153.315 136.336 153.315 136.336L158.396 137.369C162.445 138.242 166.574 139.195 170.623 140.227L178.801 142.371L180.945 134.193C184.915 118.869 188.726 102.434 192.378 85.2844C192.934 82.6643 193.331 81.4734 193.569 80.997L200 79.4091V51.5409L194.442 53.367L188.805 55.2725ZM195.713 75.9156L192.537 76.7096C190.79 77.1066 189.678 77.4242 188.249 84.1729C184.597 101.323 180.786 117.678 176.816 132.922L175.784 137.051L171.655 136.019C167.527 134.987 163.398 133.955 159.27 133.081L156.729 132.525L156.014 130.064C155.062 126.65 154.109 123.236 153.156 119.901C152.521 120.457 151.886 121.092 151.25 121.648C150.695 123.554 150.139 125.539 149.583 127.444L148.551 131.017L144.899 130.461C143.47 130.223 142.04 130.064 140.691 129.826C137.991 131.652 135.054 133.399 132.116 135.066C120.048 141.735 85.4307 158.647 58.4359 158.17C73.8388 156.9 100.675 145.229 107.185 141.894C115.84 137.448 123.303 131.97 129.416 125.935C128.543 123.395 127.59 120.775 126.638 118.234C117.983 128.397 100.595 137.607 96.7844 139.75C63.0409 158.25 26.3597 156.424 14.9266 135.622C14.212 134.272 13.5768 132.843 13.1004 131.414C7.30449 125.539 4.20802 115.376 4.20802 101.64C4.20802 85.6814 8.41604 73.7719 16.0381 68.0554C20.8019 64.4825 26.5185 63.6092 32.7114 65.3559C36.3636 66.2293 39.3013 67.4996 42.636 69.5639C42.8742 69.1669 43.1917 68.7699 43.1917 68.7699L47.0822 69.4051C49.7817 67.6584 52.5605 65.9117 55.4982 64.3237C67.5665 57.6544 102.183 40.743 129.178 41.2193C113.775 42.4897 86.9393 54.161 80.4287 57.4956C71.6157 62.0212 63.9936 67.6584 57.8007 73.8513V93.7799C57.8007 93.7799 57.8007 93.9387 57.8007 94.1769C58.6741 93.0653 59.6268 91.9537 60.659 90.8422C60.5002 90.0482 60.4208 89.1749 60.4208 88.3015C60.4208 85.205 61.3736 82.3468 63.2791 79.9649C63.1997 80.0443 63.1997 80.0443 63.1997 80.0443C63.3585 79.8855 63.5173 79.6473 63.6761 79.4885C63.7555 79.4091 63.8349 79.3297 63.9142 79.2503C72.5685 69.3257 87.1774 61.7037 90.9091 59.6393C124.653 41.1399 161.334 42.9661 172.767 63.768C172.926 64.0062 173.005 64.2443 173.085 64.4031C178.88 62.8946 184.676 61.1479 190.393 59.2424L195.951 57.4162V75.9156H195.713Z" fill="white"/>
<path d="M115.761 109.896C115.761 110.293 115.84 110.611 115.84 111.008C115.84 112.913 115.443 114.739 114.649 116.407C116.555 115.375 118.302 114.263 120.048 113.151C118.222 114.581 116.237 116.01 114.173 117.359C110.68 123.552 101.867 127.602 90.1159 127.999C90.0365 127.999 89.8777 127.999 89.7983 127.999C80.5883 130.301 72.0135 130.46 65.1854 128.713L61.4537 129.11V127.522C60.6598 127.205 59.8658 126.808 59.1512 126.49L59.0718 129.507L48.7503 131.254C56.5311 137.685 68.2818 140.384 81.6999 139.273C76.9361 141.734 48.2739 141.972 38.4287 137.764C47.0829 147.054 75.1099 144.354 79.7149 143.163C89.7983 140.543 107.98 130.619 112.903 127.681C117.19 125.14 124.653 119.503 126.4 118.153C124.892 114.104 123.383 109.976 121.795 105.768C119.969 107.117 117.984 108.546 115.761 109.896Z" fill="white"/>
<path d="M80.5879 108.627C82.0964 112.2 84.2401 113.55 88.0512 113.47C88.6863 113.47 89.1627 113.391 89.5597 113.311C88.5276 112.359 86.7808 111.326 81.6994 109.103C81.3025 108.945 80.9849 108.786 80.5879 108.627Z" fill="white"/>
<path d="M86.6211 87.2695C87.4945 87.9841 89.003 88.7781 91.3849 89.969C89.797 87.9841 88.1296 87.4283 86.6211 87.2695Z" fill="white"/>
<path d="M114.49 105.372C116.475 103.704 118.221 101.957 119.73 100.211C118.38 96.7967 117.03 93.3033 115.601 89.651C115.204 88.6189 114.966 88.2219 114.807 88.0631C114.569 87.9837 113.934 87.9043 112.187 87.9043H111.79V94.8118V99.0198C111.79 99.0198 109.805 99.0198 108.614 99.0198C111.155 100.767 113.219 102.831 114.49 105.372Z" fill="white"/>
<path d="M95.752 75.0427C96.0695 75.1221 96.3077 75.2809 96.6253 75.3603C96.7841 75.2015 97.2605 74.6457 97.5781 74.3281C96.9429 74.5663 96.3077 74.8045 95.752 75.0427Z" fill="white"/>
<path d="M98.2139 74.0885L108.694 73.9297L111.949 73.7709C117.825 73.5327 123.7 73.0564 129.496 72.4212C121.715 69.2453 110.203 69.7217 98.2139 74.0885Z" fill="white"/>
<path d="M107.503 56.2251C97.4201 58.8452 79.2383 68.7697 74.3157 71.7074C72.6483 72.7396 70.7428 74.0099 68.9961 75.2803C73.0453 73.2953 78.2855 72.422 84.1608 72.819C85.1136 72.8984 85.987 72.9778 86.7809 73.0571C104.328 65.8321 121.557 65.7527 130.687 72.422C134.26 72.025 137.754 71.5486 141.326 71.0722C133.863 62.6562 120.683 59.004 105.519 60.2743C110.282 57.813 138.944 57.5748 148.79 61.7828C140.135 52.3346 112.108 55.0341 107.503 56.2251Z" fill="white"/>
<path d="M97.4995 74.3266C97.6583 74.1678 97.7377 74.0884 97.7377 74.0884H98.2141C110.203 69.7216 121.715 69.2452 129.496 72.4211C129.893 72.3417 130.37 72.3417 130.767 72.2623C121.636 65.6723 104.407 65.6723 86.8604 72.8974C90.0362 73.215 92.8945 73.9296 95.6734 74.9617C96.3085 74.803 96.9437 74.5648 97.4995 74.3266Z" fill="#FDB71C"/>
<path d="M77.1735 126.332C76.8559 126.729 76.2207 127.682 76.2207 127.682L65.1846 128.793C72.0127 130.54 80.5875 130.302 89.7975 128.079C84.8749 128.079 80.6669 127.523 77.1735 126.332Z" fill="#FDB71C"/>
<path d="M114.172 117.36C116.236 116.011 118.221 114.661 120.047 113.152C118.38 114.264 116.554 115.375 114.648 116.408C114.489 116.725 114.331 117.043 114.172 117.36Z" fill="#FDB71C"/>
<path d="M59.1504 110.771V111.009V125.856V126.491C59.865 126.888 60.6589 127.206 61.4529 127.523V110.691H60.4207C59.865 110.691 59.468 110.691 59.1504 110.771Z" fill="#FDB71C"/>
<path d="M57.6416 94.0983C57.6416 94.4953 57.6416 95.2893 57.6416 96.0038C58.0386 96.0038 60.4205 96.0038 62.4848 96.0038C61.4526 94.3365 60.8175 92.5898 60.4999 90.7637C59.4677 91.9546 58.515 92.9868 57.6416 94.0983Z" fill="#FDB71C"/>
<path d="M114.49 105.372C115.205 106.721 115.681 108.23 115.761 109.897C117.904 108.548 119.969 107.118 121.795 105.689C121.08 103.863 120.445 102.037 119.651 100.211C118.222 101.958 116.475 103.704 114.49 105.372Z" fill="#FDB71C"/>
<path d="M61.1356 106.404V100.291C50.9729 100.291 40.8895 100.291 30.8855 100.211V107.675C31.4413 107.675 31.9971 107.595 32.5529 107.595C33.0293 107.595 33.585 107.595 34.0614 107.595C34.8554 107.675 35.173 107.595 35.2524 107.595C36.1257 107.595 36.7609 107.913 37.0785 108.469C37.5549 109.104 37.8724 110.533 37.8724 111.724V112.915V116.567C37.8724 120.14 36.1257 122.442 32.9499 122.998C29.6946 123.633 27.8685 121.41 27.4715 116.488C27.3921 114.503 27.2333 109.58 27.1539 105.293V103.308V99.9732C27.2333 97.9883 27.3127 96.0828 27.3921 94.1773C27.6303 87.3492 27.7097 86.0788 28.583 82.5854C28.8212 81.6326 29.1388 80.7593 29.4564 80.0447C30.3298 78.1392 32.3941 77.2658 34.6172 77.6628C37.5549 78.2186 40.0162 80.5211 41.4453 84.2527C41.7629 85.0467 42.0805 85.92 42.3187 86.7934C42.8744 88.2225 43.1126 89.1753 43.192 89.5723C43.2714 90.3663 43.4302 91.2396 43.5096 92.0336C43.589 92.3512 43.6684 92.6688 43.7478 93.0657C47.0031 93.2245 50.1789 93.3833 53.4342 93.5421V74.5663C50.5759 74.09 47.797 73.6136 44.9387 73.1372C44.4624 73.7724 43.986 74.4869 43.5096 75.2015C39.2222 71.9462 36.0463 70.2789 31.4413 69.1674C17.7851 65.1181 8.33691 77.901 8.33691 101.402C8.33691 124.586 17.3881 135.702 31.9177 131.494C37.793 130.065 41.8423 127.683 44.5418 124.11C44.8593 125.142 45.1769 126.254 45.4945 127.286C48.6704 126.73 51.8462 126.174 54.9427 125.698V113.391V110.851V110.533C54.9427 107.357 56.0543 106.484 60.2623 106.325C60.5799 106.404 60.8181 106.404 61.1356 106.404Z" fill="#FDB71C"/>
<path d="M100.198 98.9409C97.8166 97.6705 94.9583 96.4002 90.5915 94.2565C84.7161 91.4776 82.6518 90.0485 81.4609 87.9841C81.1433 87.349 80.9845 86.7932 80.9845 86.2374C80.9845 84.1731 83.1282 82.9028 85.9865 82.9822C91.703 83.141 95.6729 86.7932 98.293 94.1771C98.3724 94.4153 98.4518 94.6535 98.5312 94.8916C101.548 94.8916 104.565 94.8916 107.582 94.8916V78.2978C104.962 78.3772 102.263 78.4566 99.6427 78.4566C99.0075 79.1711 98.3724 79.8857 97.7372 80.6797C93.1322 78.3772 89.1624 77.4244 84.0016 77.1862C72.7273 76.4716 64.3906 80.9178 64.3906 88.5399C64.3906 92.9067 67.1695 97.0354 72.1715 100.052C74.6328 101.482 78.0468 103.149 83.287 105.451C89.3211 108.071 91.4649 109.342 92.9734 111.009C93.8468 111.962 94.3231 113.073 94.3231 114.026C94.3231 116.249 91.8618 117.837 88.0508 117.917C82.3343 118.075 78.6026 115.614 76.3795 110.056C75.5061 107.516 75.268 106.563 75.0298 104.181C71.8539 104.181 68.7574 104.26 65.5816 104.34V124.665C68.2811 124.348 71.0599 124.11 73.8388 123.871C74.3946 122.998 75.0298 122.125 75.5855 121.331C79.2378 123.395 83.9222 124.189 89.8769 124.03C102.263 123.633 111.552 118.711 111.552 111.247C111.632 106.404 108.456 103.069 100.198 98.9409Z" fill="#FDB71C"/>
<path d="M167.765 77.7412C168.162 77.6618 168.479 77.5824 168.876 77.503C172.687 76.7884 174.275 77.5824 174.355 80.2819C174.355 81.314 174.275 81.9492 173.72 84.5693C172.29 90.524 170.861 96.32 169.512 101.878C166.733 91.0798 163.874 81.0758 161.095 71.6277C157.126 72.501 153.076 73.295 149.107 73.9302C146.566 83.4577 144.025 92.509 141.485 101.163C140.214 96.3994 138.944 91.715 137.753 87.11C137.435 86.1572 137.197 84.8869 137.197 84.3311C137.197 82.6638 138.626 81.8698 141.723 81.4728C142.12 81.3934 142.437 81.3934 142.834 81.314V75.0417C132.672 76.5502 122.509 77.5824 112.267 78.0588V83.6959C117.03 83.6959 118.063 84.2517 119.65 88.1421C124.255 99.734 128.86 111.723 133.465 124.665C137.515 125.141 141.564 125.697 145.613 126.332C147.916 118.63 150.139 110.611 152.441 102.275C155.061 110.691 157.681 119.663 160.222 129.111C164.43 129.984 168.638 131.016 172.767 132.048C176.578 117.36 180.389 101.322 184.121 83.4577C185.629 76.2327 187.376 73.7714 191.504 72.7392V63.291C183.724 65.9111 175.784 68.1342 167.844 70.1191V77.7412H167.765Z" fill="#FDB71C"/>
<path d="M172.846 64.4827C172.767 64.2445 172.608 64.0063 172.529 63.8476C161.096 43.0456 124.494 41.2195 90.6708 59.7189C86.9392 61.7832 72.3302 69.4053 63.676 79.3299C63.5966 79.4093 63.5172 79.4887 63.4378 79.5681C63.279 79.7269 63.1202 79.9651 62.9614 80.1239C62.9614 80.1239 62.9614 80.1239 63.0408 80.0445C61.1353 82.4264 60.1825 85.2846 60.1825 88.3811C60.1825 89.2545 60.2619 90.0484 60.4207 90.9218C60.7383 92.7479 61.4529 94.4946 62.4056 96.162C60.4207 96.162 57.9594 96.162 57.5624 96.162C57.5624 95.4474 57.5624 94.6534 57.5624 94.2564C57.5624 94.0183 57.5624 93.8595 57.5624 93.8595V73.9309C63.7554 67.738 71.3774 62.1802 80.1905 57.5752C86.6216 54.2406 113.537 42.6487 128.94 41.2989C101.945 40.8225 67.4076 57.734 55.2599 64.4033C52.3223 65.9913 49.5434 67.738 46.8439 69.4847L42.9535 68.8495C42.9535 68.8495 42.6359 69.2465 42.3977 69.6435C39.063 67.4998 36.1253 66.3088 32.4731 65.4355C26.3596 63.6094 20.5636 64.5621 15.7998 68.135C8.17774 73.8515 3.96973 85.761 3.96973 101.72C3.96973 115.455 7.06619 125.618 12.8621 131.493C13.3385 132.923 13.9737 134.352 14.6883 135.701C26.1214 156.503 62.7232 158.329 96.5462 139.83C100.357 137.766 117.745 128.476 126.399 118.314C127.352 120.934 128.305 123.474 129.178 126.015C123.065 132.049 115.522 137.528 106.947 141.974C100.516 145.308 73.6005 156.9 58.1976 158.25C85.1924 158.726 119.73 141.815 131.878 135.146C134.895 133.478 137.753 131.732 140.452 129.906C141.882 130.144 143.311 130.302 144.66 130.541L148.313 131.096L149.345 127.524C149.901 125.618 150.456 123.633 151.012 121.728C151.647 121.172 152.283 120.616 152.918 119.981C153.87 123.316 154.823 126.73 155.776 130.144L156.491 132.605L159.031 133.161C163.16 134.034 167.289 134.987 171.417 136.098L175.546 137.131L176.578 133.002C180.548 117.758 184.359 101.402 188.011 84.2525C189.44 77.5038 190.552 77.1862 192.298 76.7892L195.474 75.9952V57.4164L189.917 59.2426C184.438 61.1481 178.642 62.8948 172.846 64.4827ZM74.3945 71.7078C79.3171 68.7701 97.4989 58.925 107.582 56.2255C112.187 55.0345 140.214 52.335 148.868 61.6244C139.023 57.4164 110.361 57.6546 105.597 60.1159C120.762 58.8456 133.942 62.4978 141.405 70.9139C137.912 71.4696 134.339 71.8666 130.766 72.2636C130.369 72.343 129.893 72.343 129.496 72.4224C123.62 73.0576 117.745 73.5339 111.949 73.7721L108.694 73.9309L98.2135 74.0897H97.7371C97.7371 74.0897 97.6577 74.1691 97.4989 74.3279C97.1813 74.6455 96.7049 75.2013 96.5462 75.3601C96.2286 75.2807 95.9904 75.1219 95.6728 75.0425C92.8939 74.0103 90.0356 73.2957 86.8598 72.9782C85.9864 72.8988 85.113 72.8194 84.2397 72.74C78.3643 72.343 73.1242 73.2957 69.0749 75.2013C70.8217 74.0103 72.6478 72.6606 74.3945 71.7078ZM86.0658 82.9027C83.1281 82.8233 81.0638 84.0937 81.0638 86.158C81.0638 86.7932 81.1432 87.3489 81.5402 87.9047C82.7311 89.969 84.7955 91.3982 90.6708 94.1771C95.0376 96.2414 97.8959 97.5911 100.278 98.8614C108.535 102.99 111.632 106.325 111.632 110.93C111.632 118.393 102.342 123.316 89.9562 123.713C84.0809 123.871 79.3965 123.077 75.6648 121.013C75.1091 121.886 74.4739 122.68 73.9181 123.554C71.1392 123.792 68.4398 124.03 65.6609 124.348V104.022C68.8367 103.943 71.9332 103.943 75.1091 103.863C75.3473 106.245 75.5855 107.277 76.4588 109.739C78.6819 115.297 82.493 117.837 88.1301 117.599C91.9411 117.52 94.4024 115.932 94.4024 113.709C94.4024 112.756 93.9261 111.724 93.0527 110.692C91.4648 108.945 89.4005 107.754 83.3663 105.134C78.1261 102.831 74.7121 101.085 72.2508 99.7348C67.2488 96.7177 64.4699 92.5891 64.4699 88.2223C64.4699 80.6002 72.8066 76.2334 84.0809 76.8686C89.2417 77.1068 93.2115 78.1389 97.8165 80.362C98.4517 79.6475 99.0868 78.9329 99.722 78.1389C102.342 78.1389 105.042 78.0595 107.662 77.9801V94.574C104.645 94.574 101.628 94.574 98.6105 94.574C98.5311 94.3358 98.4517 94.0976 98.3723 93.8595C95.7522 86.7138 91.703 83.1409 86.0658 82.9027ZM91.3854 89.969C88.9241 88.7781 87.4949 87.9841 86.5422 87.2695C86.5422 87.2695 86.4628 87.2695 86.4628 87.1902H86.5422C88.1301 87.4283 89.7974 87.9841 91.3854 89.969ZM80.5874 108.627C80.9844 108.786 81.302 108.945 81.6196 109.104C86.701 111.327 88.5271 112.359 89.4798 113.312C89.0829 113.391 88.6065 113.47 87.9713 113.47C84.2397 113.629 82.096 112.2 80.5874 108.627ZM8.33654 101.561C8.33654 78.0595 17.8641 65.3561 31.4409 69.3259C36.0459 70.4375 39.2218 72.1048 43.5092 75.3601C43.9856 74.6455 44.462 74.0103 44.9384 73.2957C47.7966 73.8515 50.5755 74.3279 53.4338 74.7249V93.7007C50.1785 93.5419 46.9233 93.4625 43.7474 93.2243C43.668 92.9067 43.5886 92.5891 43.5092 92.1921C43.4298 91.3982 43.271 90.5248 43.1916 89.7308C43.1122 89.3339 42.8741 88.3811 42.3183 86.952C42.0801 85.9992 41.7625 85.1258 41.4449 84.4113C40.0158 80.6796 37.6339 78.2977 34.6168 77.8214C32.3937 77.4244 30.3294 78.2977 29.456 80.2032C29.1384 80.9178 28.8209 81.7118 28.5827 82.7439C27.7093 86.2374 27.6299 87.5077 27.3917 94.3358C27.3123 96.2414 27.2329 98.2263 27.1535 100.132V103.466V105.451C27.2329 109.739 27.3917 114.582 27.4711 116.646C27.7887 121.569 29.6148 123.713 32.9495 123.157C36.1253 122.601 37.8721 120.299 37.8721 116.726V113.073V111.882C37.8721 110.692 37.5545 109.262 37.0781 108.627C36.7605 108.151 36.1253 107.833 35.252 107.754C35.1726 107.754 34.7756 107.754 34.061 107.754C33.5847 107.754 33.0289 107.754 32.5525 107.754C31.9967 107.754 31.4409 107.833 30.8852 107.833V100.37C40.8891 100.37 50.9725 100.37 61.1353 100.449V106.563C60.8177 106.563 60.5795 106.563 60.2619 106.563C56.0539 106.722 54.9423 107.595 54.9423 110.771V111.089V113.629V125.936C51.7665 126.412 48.5906 126.968 45.4941 127.524C45.1766 126.491 44.859 125.459 44.5414 124.348C41.9213 127.921 37.8721 130.302 31.9173 131.732C17.3878 135.86 8.33654 124.745 8.33654 101.561ZM112.981 127.603C108.059 130.541 89.8768 140.386 79.7935 143.085C75.1885 144.276 47.1615 146.976 38.5072 137.686C48.3524 141.894 77.0146 141.656 81.7784 139.195C68.3604 140.306 56.5303 137.607 48.8288 131.176L59.1504 129.429L59.2298 126.412V125.777V110.93V110.771C59.5473 110.771 59.8649 110.692 60.4207 110.692H61.4529V127.524V129.112L65.1845 128.715L76.2206 127.603C76.2206 127.603 76.8558 126.65 77.1734 126.253C80.6668 127.524 84.8749 128.079 89.7974 127.921C89.8768 127.921 90.0356 127.921 90.115 127.921C101.866 127.603 110.679 123.474 114.172 117.281C114.331 116.964 114.49 116.646 114.649 116.329C115.443 114.661 115.84 112.835 115.84 110.93C115.84 110.533 115.84 110.215 115.76 109.818C115.601 108.151 115.204 106.642 114.49 105.293C113.219 102.831 111.155 100.767 108.694 98.9408C109.885 98.9408 111.87 98.9408 111.87 98.9408V94.7328V87.8253H112.267C114.013 87.8253 114.649 87.9047 114.887 87.9841C114.966 88.1429 115.204 88.5399 115.681 89.572C117.11 93.2243 118.46 96.7177 119.809 100.132C120.524 101.958 121.238 103.784 121.953 105.61C123.541 109.818 125.129 113.947 126.558 117.996C124.732 119.425 117.269 125.062 112.981 127.603ZM191.425 72.6606C187.217 73.6927 185.55 76.154 184.041 83.3791C180.31 101.164 176.499 117.281 172.687 131.89C168.479 130.779 164.351 129.826 160.143 128.953C157.523 119.505 154.982 110.612 152.362 102.117C150.059 110.533 147.836 118.552 145.534 126.174C141.485 125.539 137.435 124.983 133.386 124.507C128.781 111.565 124.176 99.576 119.571 87.9841C117.983 84.1731 117.03 83.5379 112.187 83.5379V77.9007C122.429 77.4244 132.592 76.4716 142.755 74.8837V81.3148C142.358 81.3942 142.04 81.3942 141.643 81.4736C138.547 81.7912 137.118 82.5851 137.118 84.3319C137.118 84.8876 137.356 86.158 137.674 87.1107C138.944 91.7158 140.214 96.4001 141.405 101.164C143.946 92.5097 146.487 83.4585 149.027 73.9309C152.997 73.2163 157.046 72.4224 161.016 71.6284C163.795 81.0766 166.653 91.0806 169.432 101.879C170.861 96.3208 172.29 90.5248 173.64 84.5701C174.196 81.95 174.275 81.3148 174.275 80.2826C174.275 77.5832 172.687 76.7892 168.797 77.5038C168.4 77.5832 168.082 77.6626 167.685 77.742V70.1199C175.625 68.2144 183.565 65.9119 191.346 63.2918V72.6606H191.425Z" fill="#0C233F"/>
<path d="M144.501 137.368C144.501 136.892 144.104 136.574 143.707 136.574H142.596V139.274H143.072V138.162H143.469L143.945 139.274H144.501L143.945 138.162C144.263 138.003 144.501 137.686 144.501 137.368ZM143.707 137.606H143.072V137.051H143.707C143.866 137.051 144.025 137.209 144.025 137.368C143.945 137.527 143.866 137.606 143.707 137.606Z" fill="white"/>
<path d="M143.549 135.541C142.279 135.541 141.167 136.573 141.167 137.923C141.167 139.193 142.199 140.305 143.549 140.305C144.819 140.305 145.931 139.273 145.931 137.923C145.851 136.573 144.819 135.541 143.549 135.541ZM143.549 139.749C142.517 139.749 141.723 138.876 141.723 137.923C141.723 136.891 142.517 136.097 143.549 136.097C144.581 136.097 145.375 136.891 145.375 137.923C145.375 138.876 144.502 139.749 143.549 139.749Z" fill="white"/>
</svg>
