<?xml version="1.0" encoding="UTF-8"?>
<svg width="200px" height="200px" viewBox="0 0 200 200" version="1.1" xmlns="http://www.w3.org/2000/svg" xmlns:xlink="http://www.w3.org/1999/xlink">
    <!-- Generator: Sketch 54.1 (76490) - https://sketchapp.com -->
    <title>gallaudet</title>
    <desc>Created with Sketch.</desc>
    <g id="gallaudet" stroke="none" stroke-width="1" fill="none" fill-rule="evenodd">
        <g id="gallaudet_BGL">
            <g id="gallaudet" transform="translate(0.000000, 31.000000)">
                <g id="g10" transform="translate(99.829057, 69.182906) scale(-1, 1) rotate(-180.000000) translate(-99.829057, -69.182906) translate(0.000000, 0.464959)" fill-rule="nonzero">
                    <g id="g12" transform="translate(0.000000, 0.615385)">
                        <path d="M196.715209,77.3531605 C196.715209,77.3531605 206.187345,89.3435875 190.186662,101.727861 C190.186662,101.727861 191.076235,94.8034164 190.076576,91.6485447 C190.076576,91.6485447 186.845807,98.0335018 182.153158,101.495382 L182.076577,98.9565787 C182.076577,98.9565787 178.538115,102.341194 175.461192,104.034185 L175.538457,102.802732 C175.538457,102.802732 173.076235,104.725467 169.076235,105.802391 C169.076235,105.802391 156.179141,127.00786 141.102219,132.750766 L141.204783,130.699484 C141.204783,130.699484 130.537433,138.495039 116.281706,135.623244 L116.897091,133.571962 C116.897091,133.571962 105.61504,135.418116 94.8458096,128.854014 C94.8458096,128.854014 85.2047842,129.777091 72.4875196,125.058458 L74.3329896,123.519997 C74.3329896,123.519997 43.1517254,110.652305 9.76711087,107.883074 L0,101.353844 C0,101.353844 7.61483742,100.341194 19.1532987,98.8027326 L13.1535723,96.0335019 C13.1535723,96.0335019 24.5980165,92.4444421 39.3442725,86.9531602 L20.873914,86.9531602 L10.1420852,81.7182886 L20.6311106,74.1887161 C20.6311106,74.1887161 15.8167517,69.9685453 11.1498117,61.1479643 C11.1498117,61.1479643 3.89369563,47.9166484 6.43162377,38.3787341 C6.43162377,38.3787341 10.4321365,18.301538 41.3549391,18.0710423 C41.3549391,18.0710423 43.7393493,0.0710470068 64.893195,0.0710470068 L97.1241001,0.0710470068 C97.1241001,0.0710470068 117.047518,-0.544871781 123.277946,16.3781876 L123.362732,16.417709 C125.301877,15.1199312 127.9788,13.9412646 131.461193,13.7256749 C131.461193,13.7256749 137.409911,13.2649569 143.922731,17.1111107 L146.12786,18.5470081 C146.12786,18.5470081 153.718287,22.1872131 156.845808,23.9308028 C156.845808,23.9308028 162.486834,24.9564438 166.89709,28.238495 C166.89709,28.238495 175.050936,29.7256745 175.204098,37.9308025 C175.204098,37.9308025 175.204782,40.9046144 174.230423,42.9046143 C174.230423,42.9046143 174.845808,46.5974689 175.307346,47.7769561 L176.968884,49.7729902 C176.968884,49.7729902 182.027346,52.3453662 184.599654,57.6594857 C184.599654,57.6594857 186.107346,60.8103916 188.93538,64.1920668 C188.93538,64.1920668 190.996235,66.4676906 191.980166,68.2211265 C191.980166,68.2211265 193.148029,70.4041008 196.28444,72.5866649 C196.28444,72.5866649 201.543243,76.3699126 196.715209,77.3531605" id="path14" fill="#C6C5C5"></path>
                        <path d="M191.487858,75.8605109 C202.490251,85.2239295 192.072474,97.7449548 192.072474,97.7449548 C194.882046,88.9675191 189.497431,85.8078611 189.497431,85.8078611 C187.391448,92.0095703 183.646491,96.2242711 183.646491,96.2242711 L182.475209,94.3514506 C178.614013,98.6817069 176.03897,100.086151 176.03897,100.086151 L175.688201,99.0324762 C171.82632,102.661878 167.261534,103.245809 167.261534,103.245809 C156.495039,121.50427 143.854355,128.291279 143.854355,128.291279 L143.50427,125.48239 C131.098116,135.781193 119.510424,133.323757 119.510424,133.323757 L121.150082,129.928886 C106.052647,133.792817 95.5774335,126.068373 95.5774335,126.068373 C85.5712799,126.711792 77.4871776,123.811279 77.4871776,123.811279 L79.7025621,121.972647 L77.4570921,121.38598 C77.4570921,121.38598 68.929229,118.883416 61.0043062,116.160681 C61.0043062,116.160681 35.5817427,107.999314 10.7651963,105.513844 L6.5237742,102.709057 C34.704888,100.283758 74.4184597,94.3746985 109.840681,77.4864938 C71.7620495,92.6776045 22.1656063,96.8328181 22.1656063,96.8328181 L19.5237602,95.8010232 C34.031794,91.1856387 107.368202,68.2959299 129.046151,34.6316573 L129.112475,34.7622555 C129.19521,31.4687172 128.361706,27.994666 128.361706,27.994666 L130.034869,27.994666 C128.538116,26.3186318 126.333672,24.556649 126.333672,24.556649 C127.655381,23.1466661 129.683416,22.6180507 129.683416,22.6180507 C128.18598,20.7665636 124.219484,19.0037602 124.219484,19.0037602 C133.032475,12.9230766 143.080338,19.974085 143.080338,19.974085 C145.107689,21.4722046 147.096748,22.16082 147.096748,22.16082 L155.911791,26.6872472 C155.911791,26.6872472 161.976064,27.7251275 165.684098,30.9551445 L166.325466,31.0352813 C175.688201,33.6103239 171.239654,42.5053665 171.239654,42.5053665 C171.708714,45.782563 172.763073,49.2929902 172.763073,49.2929902 L175.101534,52.1017423 C180.36991,54.324785 182.12444,59.0064259 182.12444,59.0064259 C183.764098,63.102289 186.923756,66.263383 186.923756,66.263383 C188.795209,68.3693658 190.08273,70.7104256 190.08273,70.7104256 C191.253329,72.5839298 193.359995,73.9863229 193.359995,73.9863229 C196.988029,76.3295707 191.487858,75.8605109 191.487858,75.8605109" id="path16" fill="#0C2950"></path>
                        <path d="M167.261534,87.533673 C167.261534,87.533673 170.720679,81.5384595 169.183586,71.7757247 C169.183586,71.7757247 168.645466,75.3880323 167.414697,77.3866647 C167.414697,77.3866647 168.030765,68.700853 166.032816,60.3207506 C166.032816,60.3207506 165.109056,55.9390755 165.56991,52.3261525 C165.56991,52.3261525 167.569227,58.4772635 172.564782,64.625024 L171.258115,64.625024 C171.258115,64.625024 173.104269,66.9313488 174.181192,69.9302547 L172.642731,69.8536735 C172.642731,69.8536735 174.641363,73.0823913 174.641363,76.6181177 L173.182218,74.7740152 C173.182218,74.7740152 174.871107,85.2280321 167.261534,87.533673 L167.261534,87.533673 Z M186.283072,70.5107675 C186.283072,70.5107675 184.867004,69.0194855 183.226662,67.229947 C183.226662,67.229947 181.161705,65.112477 179.629397,61.1992463 C179.629397,61.1992463 177.708714,54.2564089 168.089568,53.6589388 C168.089568,53.6589388 169.357944,52.3917936 172.563414,53.0638619 C172.563414,53.0638619 171.519312,51.4981184 170.10256,50.3042039 C170.10256,50.3042039 168.983927,50.1559646 167.792133,40.6864263 C167.792133,40.6864263 171.669056,37.9275888 166.600338,34.3480333 C166.600338,34.3480333 168.164098,37.0309734 164.957261,38.0766486 C164.957261,38.0766486 163.839312,36.5101529 162.274868,36.2112811 L156.681022,36.1375717 C156.681022,36.1375717 154.444441,42.698187 146.988031,42.2516229 C146.988031,42.2516229 141.843415,42.177093 142.438971,35.76417 C142.438971,35.76417 143.112475,29.7996574 145.943928,28.0833497 L146.316578,28.4567514 C146.316578,28.4567514 147.734013,26.9669053 148.702902,26.9669053 C148.702902,26.9669053 143.185637,24.2064951 141.545296,22.7898114 C141.545296,22.7898114 137.072133,19.7339482 131.926151,20.1818798 C131.926151,20.1818798 135.431108,21.597196 137.667689,25.9973327 C137.667689,25.9973327 135.879655,25.1014695 131.553501,25.623931 C131.553501,25.623931 134.087518,27.0406147 136.252304,30.0240676 L133.567176,29.8750078 L134.833501,33.3798282 L130.962048,32.9011958 C130.962048,32.9011958 133.362732,38.2174349 128.497091,49.7825629 C128.497091,49.7825629 125.960339,58.4321353 122.159313,49.9324432 C122.159313,49.9324432 121.71145,53.2123064 122.233159,57.7598618 C122.233159,57.7598618 122.977775,64.0990753 119.623245,60.8183916 C119.623245,60.8183916 119.921365,68.8711094 116.938117,65.8133317 C116.938117,65.8133317 116.715895,71.1822204 117.833843,73.6430751 L116.044442,73.046152 C116.044442,73.046152 115.564442,76.4205109 116.044442,78.1928186 C116.796578,80.9709381 118.025296,82.4957244 118.025296,82.4957244 C115.359313,81.7777757 113.196578,79.3005108 113.196578,79.3005108 C80.7637587,95.6287156 46.5384604,100.789057 35.2719307,102.116237 C32.7996573,102.407519 29.6220847,102.788373 28.6853326,102.88957 C19.8570935,103.837946 13.6525125,104.293331 13.6525125,104.293331 C31.3314864,104.838288 53.0761012,110.818459 63.1271095,113.870766 C72.9039298,117.101536 82.3514509,119.870082 87.1323055,120.29333 L84.3227329,122.166151 C84.3227329,122.166151 90.2529892,123.570595 97.1186301,122.789741 C97.1186301,122.789741 108.98051,131.373672 127.392817,125.285467 L125.207518,128.096407 C125.207518,128.096407 136.129227,129.033843 145.024954,119.824954 L145.182219,121.698458 C145.182219,121.698458 154.70427,115.158288 158.136064,104.704271 C158.136064,104.704271 155.870765,105.637604 151.078971,106.835553 C151.078971,106.835553 145.616407,108.034185 141.90427,107.34222 C141.90427,107.34222 144.555894,106.250254 145.96239,104.532647 C145.96239,104.532647 139.096065,105.158288 132.38427,102.972989 L135.818116,102.19145 C135.818116,102.19145 135.113843,101.885126 133.922048,101.327177 C133.922048,101.327177 106.847177,107.315553 68.179759,107.418117 C68.179759,107.418117 108.281707,102.084784 131.154185,92.4430746 L130.436236,92.1353823 C130.436236,92.1353823 87.1535021,106.700852 39.3589734,104.956579 C39.3589734,104.956579 87.8488867,99.8030744 129.347689,81.4564082 C130.043074,81.1493997 129.55145,79.9432459 129.732646,79.2540151 C129.732646,79.2540151 129.421535,80.9695706 123.177433,80.6577758 C123.177433,80.6577758 121.459142,80.5435877 122.73504,79.6273484 C122.948373,79.4748698 124.358971,78.6010237 125.331279,77.2731605 C126.079313,76.2502545 126.982561,74.7309383 127.831108,72.5668358 C127.831108,72.5668358 128.758287,67.3749727 137.359313,65.0339129 C137.359313,65.0339129 137.943928,69.8331606 137.066663,72.1155538 C137.066663,72.1155538 143.697774,68.0964086 142.763073,51.5563748 C142.763073,51.5563748 153.529569,56.7048875 155.169227,67.1589043 C155.169227,67.1589043 157.353158,76.9121348 148.536748,76.054699 C148.536748,76.054699 152.904612,80.1907672 148.926492,82.8423911 C148.926492,82.8423911 146.898458,83.8570919 145.883073,84.5593141 C145.883073,84.5593141 145.004441,85.1664936 144.530595,85.8899124 C144.530595,85.8899124 145.375723,88.9292285 150.09709,91.7381174 C150.09709,91.7381174 148.926492,92.2851259 146.507347,91.9726473 C146.507347,91.9726473 148.566834,94.056066 152.366492,96.1497412 L149.946663,97.3791429 C154.737774,98.3999975 159.212304,97.9295702 159.212304,97.9295702 C156.778116,99.5001685 151.673842,101.227348 151.673842,101.227348 C161.48991,102.561365 167.591107,99.6526471 167.591107,99.6526471 C173.831791,97.0283736 175.765466,93.8441002 175.765466,93.8441002 L176.000679,94.7022199 C176.000679,94.7022199 181.148713,91.0365789 183.100166,87.7579465 L184.195551,89.4495704 C184.195551,89.4495704 190.831448,76.3268357 186.283072,70.5107675 L186.283072,70.5107675 Z" id="path18" fill="#CBA93E"></path>
                        <path d="M146.351449,72.5442717 C146.351449,72.5442717 152.98256,67.7839299 146.741877,57.3292977 L146.351449,55.7695029 C146.351449,55.7695029 152.436919,60.9195882 152.904612,69.1111094 C152.904612,69.1111094 153.295039,74.1046135 146.351449,72.5442717" id="path20" fill="#CBA93E"></path>
                        <path d="M145.96239,96.4184591 C145.96239,96.4184591 132.696749,93.7661515 134.258458,79.8776048 C134.258458,79.8776048 135.194527,73.0112802 142.216065,73.6362375 C142.216065,73.6362375 146.48068,74.2215366 146.575039,77.3941861 C146.575039,77.3941861 146.951791,79.7818783 143.749056,81.7921347 C143.749056,81.7921347 135.037945,87.0564081 145.96239,96.4184591" id="path22" fill="#FFFFFF"></path>
                        <path d="M147.163073,68.5641008 C147.163073,68.5641008 147.533672,67.9300496 147.612988,67.187759 C147.612988,67.187759 147.13709,67.161024 146.872475,67.0557932 L147.428372,65.3092633 L145.681364,66.155212 C145.681364,66.155212 145.125466,65.3354514 145.681364,64.2235881 C145.681364,64.2235881 146.31521,63.2964771 147.481022,63.3490582 C147.481022,63.3490582 147.455039,62.369913 147.13709,61.3114515 C147.13709,61.3114515 144.436919,61.4692634 143.827689,64.6994856 C143.827689,64.6994856 143.325125,67.8237248 147.163073,68.5641008" id="path24" fill="#FFFFFF"></path>
                        <path d="M165.395551,36.3720333 C165.395551,36.3720333 164.577774,34.401435 159.68615,34.401435 L154.908714,34.401435 C154.908714,34.401435 154.09162,37.9698452 151.529569,39.0948366 C151.529569,39.0948366 148.735039,40.5961699 146.637945,39.2828708 C146.637945,39.2828708 144.073159,38.1565119 145.353843,34.401435 C145.353843,34.401435 146.054013,32.8069052 146.054013,31.5857086 C146.054013,31.5857086 147.685466,33.5576744 147.917945,35.2470419 C147.917945,35.2470419 147.802389,36.9366828 148.965466,37.0296743 C148.965466,37.0296743 150.596919,37.4057427 150.596919,34.7788709 C150.596919,34.7788709 150.479312,32.8998282 149.083757,31.8685804 C149.083757,31.8685804 147.802389,29.5205463 150.479312,29.3347001 C150.479312,29.3347001 156.654355,29.2382215 163.063244,32.6180505 C163.063244,32.6180505 166.20991,34.6823923 165.395551,36.3720333" id="path26" fill="#FFFFFF"></path>
                        <path d="M173.325124,58.3672464 C173.325124,58.3672464 177.42085,58.9625968 179.504269,66.1845454 C179.504269,66.1845454 180.28444,68.2345282 182.676235,70.4827333 C182.676235,70.4827333 187.631448,74.1422204 183.91726,85.128203 L183.014013,83.908374 C183.014013,83.908374 179.77709,89.9582883 177.228714,91.6567498 L176.803414,89.7463225 C176.803414,89.7463225 173.353842,97.7080317 160.82803,99.5658095 C160.82803,99.5658095 171.231449,97.4953822 176.750765,84.756921 L177.38803,86.4020491 C177.38803,86.4020491 179.299141,84.1729893 180.307004,79.2376049 L181.262901,80.4047843 C181.262901,80.4047843 183.279995,76.5839297 180.254354,71.540511 C180.254354,71.540511 178.50256,68.8875196 177.811961,66.3931607 C177.811961,66.3931607 176.587346,59.3127507 173.325124,58.3672464" id="path28" fill="#FFFFFF"></path>
                        <path d="M153.838629,109.489228 C153.838629,109.489228 150.807518,115.190424 147.12068,118.0041 L146.441022,116.354185 C146.441022,116.354185 139.860509,123.094014 130.059484,124.646834 L131.417433,122.705638 C131.417433,122.705638 115.403074,128.707005 103.948715,123.868031 C103.948715,123.868031 121.016065,125.282048 134.893672,117.421536 L133.922732,119.847518 C133.922732,119.847518 141.68615,117.809912 146.925125,112.957946 L147.835894,114.681707 C147.835894,114.681707 152.695381,111.744954 153.838629,109.489228" id="path30" fill="#FFFFFF"></path>
                        <path d="M55.6276909,84.5346987 L21.556649,84.5346987 L14.9158971,81.3374339 L24.589196,74.4396563 C24.589196,74.4396563 17.056615,68.7138444 12.5352475,58.3173319 C12.5352475,58.3173319 6.80902547,46.8656399 8.61777756,40.3870075 C8.61777756,40.3870075 11.0274869,20.1968542 43.7254006,20.6495721 C43.7254006,20.6495721 43.3413322,14.5667689 48.490939,8.83411944 C48.490939,8.83411944 53.6399303,2.62419822 64.9452291,2.62419822 L96.8430745,2.62419822 C96.8430745,2.62419822 113.298459,1.61645124 119.986322,15.2040338 L130.124441,36.3274521 C130.124441,36.3274521 120.302903,52.9238961 110.432134,62.5838617 L103.318972,73.7996563 C103.318972,73.7996563 100.665297,84.3097415 75.0823913,84.3097415 L55.6276909,84.5346987" id="path32" fill="#0C2950"></path>
                        <path d="M46.7441356,22.0491618 C45.2203749,18.2590765 44.086563,10.423316 60.7932976,10.423316 L91.5063225,10.4265297 C108.471792,10.4281707 112.328202,21.5520678 112.328202,21.5520678 L131.211621,59.3005113 L105.880339,59.2983233 L103.186322,53.820238 L89.6348696,26.7288882 C89.6348696,26.7288882 87.9076901,22.4054695 81.9295706,22.4054695 L79.6745279,22.4054695 C79.6745279,22.4054695 70.3295709,21.6698798 73.5035879,27.1944609 L89.3552114,59.4521695 L48.1503578,59.4495028 L60.3664258,49.7489218 C60.3664258,49.7489218 47.229674,23.2579823 46.7441356,22.0491618" id="path34" fill="#CBA93E"></path>
                        <path d="M60.8111438,42.1578793 L44.9398963,42.1578793 C44.9398963,42.1578793 30.5229394,43.4284434 42.3859818,61.7956908 C48.709127,71.5897418 58.6658447,71.2280324 58.6658447,71.2280324 L61.832272,71.2396563 C72.1312802,70.2988017 68.0435539,64.4369898 68.0435539,64.4369898 L90.8150405,64.4374685 C90.8150405,64.4374685 93.5979464,69.2478615 94.8553822,72.5210238 C96.795895,77.5733314 92.544955,82.1846133 77.7996562,81.8830749 L23.5878968,81.8803398 L31.9124095,76.0164084 C31.9124095,76.0164084 16.7275893,69.8372632 11.1070766,46.0670074 C11.1070766,46.0670074 6.67067334,30.1688198 37.9398965,30.1717599 L44.6455373,30.1599992 L56.394255,30.1599992 L60.8111438,42.1578793" id="path36" fill="#CBA93E"></path>
                        <path d="M14.5744954,45.7224604 C15.3392133,49.8304261 17.460444,55.1089901 20.1143243,59.7798959 C20.1143243,59.7798959 26.6821874,70.691964 38.2237939,75.7599981 L33.9556915,78.9620493 L79.1432459,78.9620493 C79.1432459,78.9620493 83.1370919,78.8109382 83.8475193,78.6844425 C87.8981175,77.96581 90.1032456,76.3480323 90.1032456,76.3480323 C91.1370917,76.4273485 92.1996558,76.7726477 92.1996558,76.7726477 C88.6174337,80.2762373 81.6902544,80.3487159 81.6902544,80.3487159 L77.1705964,80.3487159 L28.7393497,80.3487159 L35.4487513,75.783246 C35.4487513,75.783246 23.6778797,71.4830751 17.0304269,57.3074174 C17.0304269,57.3074174 13.9422902,50.6386312 12.9206834,45.3141185 C12.9206834,45.3141185 12.1496065,40.0472469 16.4057432,36.8854008 C16.4057432,36.8854008 17.376615,36.3720333 18.5697089,37.0085461 C18.5697089,37.0085461 13.6142903,40.5600674 14.5744954,45.7224604" id="path38" fill="#FFFFFF"></path>
                        <path d="M46.8643407,38.5496742 L59.28499,38.5496742 L65.5541864,51.0681013 L57.3669729,56.6242037 L83.9364082,56.6242037 L86.4834166,57.898255 L52.7403747,57.898255 L63.2687164,50.1340842 L58.2224943,40.1420845 L46.9711441,40.1420845 C46.9711441,40.1420845 41.8562725,39.7256742 38.460717,42.9107682 C38.460717,42.9107682 37.1856401,42.4856058 36.4423239,42.4856058 C36.4423239,42.4856058 39.4150417,38.5496742 46.8643407,38.5496742" id="path40" fill="#FFFFFF"></path>
                        <path d="M75.4625622,19.2067004 L82.6133313,19.2067004 C82.6133313,19.2067004 89.6328183,18.5702559 92.499143,24.9393498 L108.280339,56.2454687 L126.323416,56.2454687 L128.492988,57.5275199 L107.111792,57.5275199 L91.1685447,25.6389053 C91.1685447,25.6389053 89.1015362,20.6925807 83.0509381,20.6925807 L75.7839297,20.6925807 C75.7839297,20.6925807 73.0639298,20.69682 71.7784597,22.4348029 C71.7784597,22.4348029 71.3080324,21.9631448 69.9302547,22.3979482 C69.9302547,22.3979482 71.377776,19.4925123 75.4625622,19.2067004" id="path42" fill="#FFFFFF"></path>
                        <path d="M49.3223919,23.1124781 L53.6204431,31.8501872 L56.4164088,33.3122043 L51.2331611,23.2177088 C51.2331611,23.2177088 49.053127,19.041367 50.5617081,16.6767859 C50.5617081,16.6767859 50.0328193,16.2283757 48.727315,16.3507004 C48.727315,16.3507004 47.3076911,18.4997602 49.3223919,23.1124781" id="path44" fill="#FFFFFF"></path>
                        <path d="M70.0772632,69.5781179 C70.6365794,68.7042718 70.9073487,67.5050923 70.2762376,66.0306992 L71.9439298,67.4521693 C71.9439298,67.4521693 73.0105965,68.7111094 70.8211948,71.2499127 C70.8211948,71.2499127 69.969229,70.5565794 69.3052974,70.5743572 C69.3052974,70.5743572 69.7982889,70.0157247 70.0772632,69.5781179" id="path46" fill="#FFFFFF"></path>
                        <path d="M86.4834166,57.898255 L71.5760666,27.1567856 C71.5760666,27.1567856 69.8194854,24.5587686 72.0355538,22.1148712 C72.0355538,22.1148712 70.7357247,21.5809225 70.0478615,22.2673499 C70.0478615,22.2673499 68.3680667,23.7962387 70.2010239,27.6156574 L83.9364082,56.6242037 L86.4834166,57.898255" id="path48" fill="#0C2950"></path>
                        <path d="M88.8670063,67.5985624 L90.990767,72.2940153 C91.9952114,75.2533315 89.98222,76.4806818 89.98222,76.4806818 C90.8588011,76.4806818 92.0184592,76.9948699 92.0184592,76.9948699 C94.644784,75.0051263 92.46769,71.4523059 92.46769,71.4523059 L89.7969208,66.0245454 L70.2988017,66.0245454 L72.0423914,67.5165795 L88.8670063,67.5985624" id="path50" fill="#0C2950"></path>
                        <path d="M69.6061521,70.1558957 C69.6061521,70.1558957 66.8838274,74.0656392 56.2935371,72.7124768 C56.2935371,72.7124768 48.9690244,71.7572632 43.555828,65.8659129 C43.555828,65.8659129 31.2949052,52.0403406 38.460717,42.9107682 C38.460717,42.9107682 37.7705973,42.6714519 36.4423239,42.4856058 C36.4423239,42.4856058 28.9844779,52.0924431 42.2804776,66.7420154 C42.2804776,66.7420154 46.7395544,72.3145281 56.1338106,74.0663229 C56.1338106,74.0663229 67.280477,75.8967502 71.1008529,70.8813657 L69.6061521,70.1558957" id="path52" fill="#0C2950"></path>
                        <path d="M17.4741192,38.0424606 C17.4741192,38.0424606 21.5018798,33.3026316 38.8576401,33.3026316 L56.3728533,33.3026316 L53.6204431,31.8501872 L38.5390076,31.8501872 C38.5390076,31.8501872 21.3413328,31.3122043 15.6095039,37.6020503 C15.6095039,37.6020503 16.6778799,37.7238281 17.4741192,38.0424606" id="path54" fill="#0C2950"></path>
                        <path d="M128.492988,57.5275199 L110.470425,22.1599994 C110.470425,22.1599994 106.132647,12.4436236 91.3251259,12.4436236 L58.283896,12.4436236 C58.283896,12.4436236 50.1621184,12.3643074 48.7299817,16.4252304 C48.7299817,16.4252304 49.7649902,16.2646834 50.5603406,16.6631791 C50.5603406,16.6631791 52.3130243,13.7975381 58.5216396,13.7975381 L91.3251259,13.7975381 C91.3251259,13.7975381 104.380168,13.6375381 108.998972,22.554461 L126.269399,56.2139473 L128.492988,57.5275199" id="path56" fill="#0C2950"></path>
                        <polyline id="path58" fill="#C6C5C5" points="170.341192 111.772989 168.996235 111.772989 168.996235 112.717946 172.82256 112.717946 172.82256 111.772989 171.463927 111.772989 171.463927 107.740852 170.341192 107.740852 170.341192 111.772989"></polyline>
                        <path d="M177.600679,109.645809 C177.578115,110.2441 177.556235,110.960681 177.556235,111.691621 L177.541192,111.691621 C177.379141,111.056407 177.171961,110.348031 176.980508,109.7641 L176.374696,107.821536 L175.496064,107.821536 L174.964098,109.742219 C174.801363,110.332305 174.639312,111.035211 174.514184,111.691621 L174.499141,111.691621 C174.476577,111.019484 174.447175,110.251621 174.417773,109.63145 L174.321363,107.740852 L173.280679,107.740852 L173.598628,112.717946 L175.097432,112.717946 L175.584953,111.048886 C175.747004,110.480681 175.894696,109.86051 176.005466,109.277262 L176.034867,109.277262 C176.168201,109.852305 176.338457,110.503245 176.50803,111.064613 L177.03179,112.717946 L178.508713,112.717946 L178.774696,107.740852 L177.681363,107.740852 L177.600679,109.645809" id="path60" fill="#C6C5C5"></path>
                    </g>
                </g>
            </g>
        </g>
    </g>
</svg>