<?xml version="1.0" encoding="UTF-8"?>
<svg width="200px" height="200px" viewBox="0 0 200 200" version="1.1" xmlns="http://www.w3.org/2000/svg" xmlns:xlink="http://www.w3.org/1999/xlink">
    <!-- Generator: Sketch 54.1 (76490) - https://sketchapp.com -->
    <title>george-fox</title>
    <desc>Created with Sketch.</desc>
    <g id="george-fox" stroke="none" stroke-width="1" fill="none" fill-rule="evenodd">
        <g id="george-fox_BGL" fill="#0E2B58">
            <g id="george-fox" transform="translate(0.000000, 9.000000)">
                <g id="g10" transform="translate(99.935273, 91.282850) scale(-1, 1) rotate(-180.000000) translate(-99.935273, -91.282850) translate(0.000000, 0.150166)" fill-rule="nonzero">
                    <g id="g12">
                        <path d="M199.743684,107.299933 L176.957924,23.0726208 L149.3732,0 L78.0696421,0 L89.3752728,41.9443873 L132.003103,41.9443873 L140.318961,72.5856293 L97.6569555,72.5856293 L104.51469,97.7517128 L87.2264056,107.299933 L199.743684,107.299933 Z M178.260708,140.031064 L182.920902,120.81346 L193.289833,158.980967 L178.206339,182.025627 L64.3013576,182.025627 L36.8149117,159.029122 L0,23.0005949 L15.0592618,0 L62.8675712,0 L46.0244908,8.93732016 L81.4974737,140.031064 L178.260708,140.031064 L178.260708,140.031064 Z" id="path14"></path>
                    </g>
                </g>
            </g>
        </g>
    </g>
</svg>