<?xml version="1.0" encoding="UTF-8"?>
<svg width="200px" height="200px" viewBox="0 0 200 200" version="1.1" xmlns="http://www.w3.org/2000/svg" xmlns:xlink="http://www.w3.org/1999/xlink">
    <!-- Generator: Sketch 54.1 (76490) - https://sketchapp.com -->
    <title>gordon</title>
    <desc>Created with Sketch.</desc>
    <g id="gordon" stroke="none" stroke-width="1" fill="none" fill-rule="evenodd">
        <g id="gordon_BGL">
            <g id="gordon" transform="translate(12.000000, 0.000000)">
                <path d="M76.3524008,0.275482094 C76.9954071,0.275482094 77.6200418,0.0918273646 78.263048,0.110192837 C80.9636743,0.0918273646 83.645929,0.0918273646 86.3465553,0.0918273646 C87.7060543,0.0734618916 89.0839248,0.385674931 90.2597077,1.0835629 C94.7607516,3.58126722 99.0964509,6.59320478 103.689353,8.96235078 C105.177453,9.6969697 106.812526,10.5601469 108.465971,10.835629 C108.521086,11.84573 108.11691,12.7089073 108.025052,13.7190083 C108.815031,13.9944904 109.733612,13.9577594 110.560334,14.1230487 C112.617954,14.5087236 114.712317,15.0964187 116.659708,15.8494031 C117.670146,16.2167126 118.533612,16.8411387 119.54405,17.1900826 C120.517745,17.5573921 121.528184,17.630854 122.520251,17.979798 C121.969102,18.9715335 121.289353,19.9265381 120.591232,20.8448118 C119.488935,20.4958678 118.51524,20.0183655 117.302714,20.0918274 C117.743633,21.1937557 118.294781,22.2589532 118.827557,23.3241506 C119.176618,23.9853076 118.845929,24.7199265 118.570355,25.3443526 C117.817119,26.8870523 116.861795,28.3195592 115.8881,29.7153352 C115.594154,28.9623508 115.31858,28.2644628 114.620459,27.7502296 C113.316075,26.795225 111.644259,26.2809917 110.027557,26.1891644 C108.080167,26.2258953 106.114405,26.8503214 104.516075,27.9522498 C103.781211,28.4481175 103.156576,28.9807163 102.807516,29.825528 C102.550313,30.3948577 103.43215,30.6519743 103.817954,30.7254362 C105.434656,30.87236 107.0881,30.6887052 108.723173,30.7805326 C109.200835,30.835629 109.751983,30.9458219 110.156159,31.2396694 C110.688935,31.5886134 111.093111,32.0293848 111.717745,32.2130395 C112.562839,32.3599633 113.224217,32.0477502 114.124426,31.9742883 C113.628392,32.7456382 113.095616,33.902663 112.085177,34.0863177 C111.129854,34.3801653 110.17453,34.8025712 109.329436,35.3351699 C108.962004,35.5555556 108.906889,35.9412305 108.723173,36.3085399 C108.502714,36.8962351 108.11691,37.3370064 107.675992,37.7594123 C107.106472,36.9146006 106.610438,36.0881543 105.746973,35.5188246 C103.946555,34.2699725 101.48476,34.0863177 99.4638831,34.8760331 C98.1778706,35.3719008 97.0939457,36.3820018 96.3958246,37.5573921 C96.0283925,38.1634527 95.8263048,38.8246097 95.5323591,39.4490358 C95.0914405,39.302112 94.7056367,39.0817264 94.2830898,38.8980716 C93.1807933,38.3838384 91.9866388,38.0348944 90.7741127,37.8696051 C90.7924843,38.2369146 90.7924843,38.640955 90.8843424,39.0082645 C91.325261,40.5325987 92.0968685,41.8549128 92.9235908,43.1772268 C94.2647182,45.2892562 95.8079332,47.2359963 97.3878914,49.1827365 C99.4455115,52.0293848 101.227557,55.2066116 102.293111,58.5674931 C102.366597,57.9614325 102.568685,57.3370064 102.51357,56.7493113 C102.458455,56.2534435 102.384969,55.7575758 102.384969,55.261708 C102.366597,54.2883379 101.980793,53.2966024 101.760334,52.3599633 C102.642171,52.7823691 103.487265,53.2782369 104.350731,53.7373737 C108.355741,55.8677686 112.489353,57.7226814 116.733194,59.3204775 C121.822129,61.2488522 127.113152,62.7915519 132.477662,63.7465565 C134.16785,64.077135 135.876409,64.2424242 137.566597,64.4995409 C138.319833,64.6097337 139.091441,64.5179063 139.844676,64.6464646 C140.708142,64.7933884 141.645094,64.738292 142.526931,64.7566575 C144.143633,64.738292 145.705219,64.8301194 147.303549,64.5913682 C148.68142,64.6097337 149.985804,64.3526171 151.345303,64.1689624 C155.405428,63.5261708 159.355324,62.1854913 162.992902,60.2571166 C164.885177,59.2470156 166.465136,58.1450872 168.651357,57.7961433 C169.71691,57.7043159 170.837578,57.6859504 171.921503,57.8145087 C173.427975,58.0899908 174.989562,59.0082645 175.669311,60.4407713 C176.018372,61.1019284 175.908142,61.9467401 175.88977,62.681359 C175.467223,62.3507805 175.08142,61.9651056 174.640501,61.6528926 C174.144468,62.3140496 173.868894,63.0853994 173.115658,63.5261708 C172.380793,64.0036731 171.517328,63.9118457 170.672234,63.8567493 C169.606681,63.6547291 168.632985,63.2323232 167.530689,63.1772268 C166.575365,63.2323232 165.546555,63.5261708 164.793319,64.1689624 C164.260543,64.6280992 163.893111,65.3259871 163.54405,65.9320478 C164.444259,65.6749311 165.307724,65.3443526 166.226305,65.1239669 C167.218372,64.8301194 168.33904,64.9219467 169.36785,64.9035813 C170.580376,64.8852158 171.645929,65.4912764 172.435908,66.3728191 C171.77453,66.5381084 171.094781,66.5748393 170.415031,66.6666667 C170.359916,67.1992654 170.415031,67.768595 170.359916,68.3011938 C170.212944,69.164371 169.661795,69.8989899 168.853445,70.2662994 C168.100209,70.6519743 167.328601,70.6152433 166.556994,70.835629 C166.318163,71.9926538 166.465136,72.9843893 165.583299,73.902663 C164.793319,74.7842057 163.801253,74.4903581 162.735699,74.5454545 C161.210856,74.5821855 160.090188,73.8108356 158.675574,73.3884298 C157.756994,73.0945822 156.875157,73.0762167 155.956576,72.9476584 C153.513152,73.0027548 151.216701,73.5720845 148.938622,74.4352617 C145.83382,75.610652 142.894363,77.3002755 140.175365,79.2102847 C138.521921,80.3856749 136.886848,81.6896235 135.527349,83.1772268 C134.553653,84.2424242 133.322756,85.0505051 132.036743,85.6932966 C129.960752,86.7217631 127.756159,87.4747475 125.478079,87.9155188 C124.614614,88.1359045 123.732777,88.1359045 122.850939,88.0991736 C122.410021,88.0991736 122.024217,87.8971534 121.638413,87.7134986 C121.969102,87.3461892 122.391649,87.1258035 122.795825,86.8135904 C123.383716,86.3911846 123.787891,85.785124 124.11858,85.1606979 C124.871816,83.728191 125.275992,82.0752984 126.047599,80.661157 C126.451775,79.9081726 127.039666,79.338843 127.517328,78.640955 C126.543633,78.7878788 125.643424,79.2653811 124.982046,80.0183655 C124.614614,80.4407713 124.320668,80.9182736 123.971608,81.3774105 C123.457203,80.5325987 123.053027,79.651056 122.410021,78.8797062 C121.803758,78.1083563 121.03215,77.5757576 120.2238,77.0431589 C118.698956,79.5224977 116.218789,81.2121212 113.554906,82.3140496 C111.037996,83.2874197 108.33737,83.7098255 105.728601,82.8282828 C103.781211,82.1854913 102.293111,80.8448118 101.154071,79.1735537 C98.7841336,75.7759412 97.3695198,71.3682277 94.7056367,68.0073462 C94.4851775,67.6767677 94.0626305,67.2910927 94.0810021,66.8870523 C94.0993737,65.2157943 93.8789144,63.5445363 93.5849687,61.8916437 C92.5929019,56.8778696 89.8555324,52.4701561 86.4751566,48.7052342 C85.519833,47.6951331 84.6012526,46.6483012 83.6091858,45.6932966 C81.0187891,43.1404959 78.263048,40.7713499 76.0400835,37.8696051 C74.8275574,36.271809 73.7803758,34.214876 73.908977,32.1763085 C74.0743215,30.3948577 74.9010438,28.7603306 75.9849687,27.3645546 C77.0321503,26.0055096 78.3365344,24.9403122 79.4939457,23.6914601 C77.7853862,24.6648301 76.4075157,25.9871442 75.0847599,27.4196511 C73.9457203,28.7052342 72.9169102,30.3397612 72.6229645,32.0293848 C72.5311065,33.204775 72.4759916,34.5270891 72.8985386,35.6290174 C73.6334029,37.8328742 75.2133612,39.8530762 76.7382046,41.5794307 C77.9874739,43.0853994 79.4204593,44.389348 80.7064718,45.8585859 C84.3440501,49.6602388 87.9448852,53.7373737 89.8187891,58.7327824 C90.5352818,60.7529844 91.0864301,62.9568411 90.994572,65.1056015 C88.8450939,63.3057851 86.6588727,61.5977961 84.1787056,60.2754821 C83.1498956,59.651056 81.9924843,59.2837466 80.9453027,58.6960514 C80.9820459,60.2754821 80.4492693,61.7630854 79.5306889,63.030303 C78.1160752,64.9770432 76.0217119,66.5013774 73.8722338,67.5482094 C73.8354906,66.446281 74.0192067,65.1974288 73.725261,64.1322314 C73.1557411,61.9283747 71.6308977,59.9449036 69.7202505,58.7144169 C69.4079332,59.5041322 69.1874739,60.2938476 68.6179541,60.9550046 C67.3686848,62.4242424 65.531524,63.1588613 63.7311065,63.6914601 C62.7757829,63.9669421 61.8388309,64.2240588 60.8283925,64.2607897 C61.508142,62.2405877 61.8939457,60.0918274 61.9674322,57.943067 C62.2430063,55.9412305 62.0960334,53.865932 62.0960334,51.84573 C59.6158664,53.9393939 56.2906054,54.7291093 53.0939457,54.4168962 C53.0204593,53.7190083 53.4797495,53.1864096 53.7553236,52.5803489 C54.7473904,50.6152433 55.7762004,48.3930211 56.0334029,46.1891644 C56.1068894,45.0505051 56.1068894,43.8383838 56.0150313,42.6997245 L55.7394572,42.5711662 C54.7473904,42.6997245 53.8471816,43.0853994 52.8183716,43.0853994 C51.256785,43.0853994 49.6033403,43.1955923 48.0784969,42.8650138 C46.7006263,42.5711662 45.1574113,42.2773186 43.9265136,41.5610652 C46.6638831,39.651056 49.6400835,37.4839302 51.5507307,34.7291093 C52.9286013,32.7823691 53.736952,30.3213958 54.9494781,28.2460973 C55.7762004,26.7401286 56.8417537,25.4545455 57.9073069,24.1138659 C56.5478079,24.1322314 55.280167,24.4995409 53.9022965,24.2975207 C52.5244259,24.040404 51.0179541,23.7098255 49.7870564,23.030303 C50.6872651,22.3875115 51.5507307,21.7998163 52.3590814,21.010101 C53.6450939,19.687787 54.5269311,18.2001837 55.5189979,16.6574839 C56.4559499,15.1882461 57.668476,13.8842975 58.9177453,12.6721763 C62.7757829,8.98071625 67.3319415,6.15243343 72.2555324,4.05876951 C73.725261,3.45270891 75.176618,2.86501377 76.719833,2.51606979 C76.1503132,1.70798898 75.3052192,1.17539027 74.5887265,0.477502296 C75.2133612,0.348943985 75.7645094,0.293847567 76.3524008,0.275482094 Z" id="Shape" fill="#0B1725" fill-rule="nonzero"></path>
                <path d="M160.935282,7.27272727 C164.46263,7.23599633 167.751148,8.59504132 170.506889,10.7254362 C169.753653,10.7621671 169.000418,10.7254362 168.265553,10.7254362 C168.192067,11.5518825 168.045094,12.3599633 167.475574,12.9843893 C167.034656,13.4802571 166.391649,13.7373737 165.730271,13.7006428 C164.57286,13.7190083 163.691023,12.8007346 162.62547,12.3966942 C161.541545,11.9008264 160.45762,11.9742883 159.300209,12.0293848 C158.014196,12.2130395 156.875157,12.9476584 156.195407,14.0679522 C157.297704,14.214876 158.124426,13.7373737 159.171608,13.5353535 C160.273904,13.3700643 161.3762,13.4251607 162.349896,14.0495868 C163.286848,14.600551 163.801253,15.4820937 164.242171,16.4554637 C163.507307,16.1983471 162.809186,15.9044995 162.037578,15.7943067 C161.743633,16.9513315 161.3762,18.1083563 160.163674,18.5858586 C159.208351,19.0266299 158.308142,18.4205693 157.297704,18.3654729 C157.297704,18.9164371 157.389562,19.4306703 157.444676,19.9816345 C157.37119,20.7162534 157.003758,21.4141414 156.324008,21.7630854 C155.66263,22.0936639 154.817537,22.2956841 154.064301,22.0936639 C153.108977,21.8549128 152.153653,21.8732782 151.179958,21.8732782 C150.243006,21.8916437 149.379541,21.8549128 148.497704,22.2405877 C147.138205,22.7548209 146.072651,23.7649219 145.48476,25.087236 C144.658038,26.9605142 144.602923,29.0725436 144.34572,31.0192837 C144.529436,32.2681359 144.56618,33.4802571 144.823382,34.7291093 C145.301044,37.3002755 146.274739,39.8347107 146.6238,42.405877 C146.734029,43.5996327 146.734029,44.8852158 146.642171,46.097337 C146.421712,47.6584022 145.888935,49.2378329 145.135699,50.6152433 C144.492693,49.8071625 143.99666,48.9623508 143.059708,48.466483 C142.361587,48.1359045 141.681837,47.8787879 141.075574,47.3645546 C140.101879,46.5564738 139.513987,45.5463728 138.797495,44.5179063 C138.760752,45.2892562 138.74238,46.0606061 138.944468,46.8319559 C139.091441,47.6584022 139.532359,48.2644628 139.954906,48.9623508 C138.025887,49.7153352 136.170355,50.2662994 134.774113,51.9191919 C134.16785,52.6354454 133.965762,53.4618916 133.800418,54.3434343 C133.396242,56.4187328 132.349061,58.3103765 131.210021,60.0734619 C130.897704,60.5509642 130.622129,61.046832 130.236326,61.4692378 C129.48309,61.5243343 128.766597,61.3957759 128.031733,61.2121212 C122.869311,59.9816345 117.817119,57.9981635 112.948643,55.8861341 C109.090605,54.1965106 105.324426,52.3232323 101.631733,50.3030303 C101.062213,49.9908173 100.511065,49.7337006 100.088518,49.2194674 C99.3903967,48.3746556 98.7290188,47.5114784 97.9941545,46.7033976 C98.4901879,46.7033976 98.9678497,46.7033976 99.4638831,46.758494 C100.970355,47.0523416 102.587056,46.9054178 104.148643,46.9421488 C105.067223,46.9788797 105.949061,46.7768595 106.867641,46.6850321 C112.507724,45.9504132 117.890605,43.5812672 122.28142,39.9632691 C125.82714,37.0615243 128.307307,33.6455464 131.246764,30.1928375 C133.635073,27.2910927 136.096868,24.426079 138.613779,21.6161616 C142.490188,17.5390266 146.274739,13.59045 151.0881,10.5968779 C154.064301,8.74196511 157.407933,7.38292011 160.935282,7.27272727 Z" id="Shape" fill="#0B1725" fill-rule="nonzero"></path>
                <path d="M100.419207,11.2396694 C101.503132,11.7722681 102.531942,12.5803489 103.560752,13.204775 C103.579123,14.2699725 103.027975,15.0045914 102.605428,15.922865 C102.146138,16.8227732 102.531942,18.1450872 102.311482,19.0449954 C101.705219,18.328742 101.37453,17.3370064 100.841754,16.5656566 C100.676409,16.3452709 100.400835,16.1065197 100.125261,16.0881543 C99.4455115,16.0330579 98.7473904,16.0514233 98.0492693,16.0330579 C98.9311065,14.8760331 100.088518,13.9944904 100.970355,12.855831 C100.474322,12.2130395 99.8313152,11.7171717 99.3169102,11.0927456 C99.702714,11.0743802 100.070146,11.0560147 100.419207,11.2396694 Z" id="Shape" fill="#FFFFFF" fill-rule="nonzero"></path>
                <path d="M19.1064718,39.5592287 C21.4029228,39.5592287 23.5340292,39.4306703 25.7569937,39.8530762 C29.1189979,40.3673095 32.4075157,41.5610652 35.0897704,43.7098255 C36.9269311,45.1056015 38.3599165,47.0707071 39.3519833,49.1460055 C40.1052192,50.6887052 40.491023,52.2865014 40.9870564,53.9210285 C41.3912317,55.3168044 41.6300626,56.7676768 41.7035491,58.2185491 C41.9056367,59.7061524 41.7035491,61.1386593 41.611691,62.6262626 C41.1340292,66.5013774 40.0133612,70.2846648 38.3231733,73.7924702 C38.1394572,74.1781451 37.9924843,74.56382 37.8638831,74.9678604 C38.7824635,74.5454545 39.5356994,73.9210285 40.4726514,73.553719 C41.4096033,73.1680441 42.4016701,73.1129477 43.3386221,72.7640037 C44.2204593,72.4517906 45.1757829,72.0110193 45.8555324,71.3682277 C46.3148225,70.9274564 46.6087683,70.3581267 46.902714,69.8071625 C47.0129436,70.9641873 47.2150313,72.1028466 47.1599165,73.2782369 C47.2517745,76.1432507 46.2045929,79.0082645 44.2020877,81.0835629 C43.5590814,81.7630854 42.7507307,82.2405877 42.1444676,82.9384757 C43.3569937,82.9752066 44.3123173,82.4977043 45.4146138,82.1120294 C44.0183716,85.5831038 40.9135699,88.4113866 37.6066806,90.0459137 C36.2471816,90.7621671 34.9427975,91.0376492 33.7302714,91.9191919 C32.0217119,93.0945822 30.9929019,95.0780533 30.5336117,97.0615243 C30.1478079,98.5123967 30.2212944,99.8898072 30.239666,101.37741 C30.239666,102.14876 30.3682672,102.92011 30.5336117,103.673095 C31.0847599,106.391185 32.297286,109.219467 34.2814196,111.202938 C35.5306889,112.525253 37.2025052,113.296602 38.9110647,113.810836 C40.6563674,114.306703 42.4935282,114.545455 44.2939457,114.490358 C48.0968685,114.325069 51.8446764,113.22314 55.1148225,111.239669 C57.0438413,110.045914 58.8810021,108.429752 60.0016701,106.446281 C62.3164927,102.112029 64.3373695,97.6492195 65.7152401,92.9109275 C66.8542797,89.0909091 67.5340292,85.1423324 67.9014614,81.1753903 C67.919833,80.312213 67.9014614,79.4674013 68.0484342,78.6042241 C68.1219207,77.4471993 68.0851775,76.2534435 68.0668058,75.0964187 C67.919833,74.1781451 67.919833,73.2782369 67.919833,72.3415978 C67.7177453,69.9724518 67.3686848,67.6400367 66.9645094,65.3076217 C67.5156576,64.8668503 68.2137787,64.6464646 68.8016701,64.2607897 C69.5549061,63.8016529 70.0509395,63.1404959 70.6020877,62.4793388 C70.9695198,63.067034 71.3002088,63.6730946 71.5206681,64.3342516 C71.8881002,65.2892562 71.851357,66.3544536 71.7962422,67.3645546 C71.6860125,68.3930211 71.0246347,69.4398531 70.6020877,70.3764922 C70.9878914,70.3030303 71.3553236,70.2295684 71.7411273,70.2112029 C72.8066806,70.137741 73.8906054,69.8071625 74.8826722,69.4214876 C77.3812109,68.3746556 79.6409186,66.6299357 81.165762,64.389348 C81.6985386,63.6363636 81.9924843,62.7915519 82.4701461,62.020202 C83.0212944,62.1671258 83.5356994,62.4242424 84.0317328,62.6997245 C85.7586639,63.7098255 87.3202505,64.9035813 88.9002088,66.134068 C90.1862213,67.107438 91.417119,68.1359045 92.6112735,69.2194674 C95.440501,71.9742883 97.1858038,75.4269972 98.9862213,78.8797062 C99.7210856,80.312213 100.492693,81.6345271 101.631733,82.7915519 C103.08309,84.1873278 104.938622,85.1606979 106.941127,85.43618 C107.749478,85.5280073 108.502714,85.7300275 109.329436,85.5831038 C110.009186,85.4729109 110.707307,85.4545455 111.368685,85.3076217 C112.379123,85.1239669 113.316075,84.7933884 114.271399,84.4811754 C114.161169,85.7300275 113.738622,86.8503214 113.316075,88.0257117 C112.195407,90.9274564 110.597077,93.6455464 108.5762,96.0146924 C107.712735,96.9513315 106.757411,97.9063361 105.820459,98.7695133 C103.983299,100.312213 101.94405,101.597796 99.7762004,102.571166 C97.2776618,103.709826 94.9444676,105.325987 92.8868476,107.125803 C88.9736952,110.486685 85.7035491,114.600551 82.8559499,118.879706 C82.0292276,117.961433 81.4045929,116.969697 80.7799582,115.9045 C80.136952,114.76584 79.4939457,113.719008 79.3837161,112.378329 C79.1265136,112.488522 78.8325678,112.470156 78.7407098,112.782369 C78.17119,114.031221 78.5753653,115.33517 78.9427975,116.565657 C79.8246347,119.210285 81.3127349,121.726354 82.7824635,124.077135 C84.3256785,126.446281 85.8688935,128.778696 87.1549061,131.294766 C88.6797495,134.251607 89.9473904,137.300275 90.6087683,140.56933 C91.0313152,142.222222 90.902714,144.077135 90.902714,145.785124 C90.9210856,146.97888 90.5903967,148.080808 90.2229645,149.182736 C89.4329854,151.386593 87.9816284,153.259871 86.1628392,154.710744 C82.9478079,157.153352 79.4572025,159.155188 75.5256785,160.146924 C73.5599165,160.679522 71.4471816,160.899908 69.4263048,161.248852 C68.3240084,161.469238 67.1482255,161.799816 66.3582463,162.644628 C65.3845511,163.654729 64.9987474,165.23416 64.9803758,166.593205 C64.7048017,169.12764 64.7782881,171.735537 65.108977,174.251607 C65.5682672,177.318641 66.4501044,180.220386 68.2688935,182.791552 C68.9118998,183.728191 69.7753653,184.407713 70.7123173,185.03214 C74.0375783,187.235996 77.8221294,188.760331 81.7536534,189.439853 C83.2784969,189.752066 84.7114823,190.30303 85.9791232,191.239669 C87.393737,192.24977 88.4409186,193.829201 88.6981211,195.53719 C88.7899791,196.620753 88.7899791,197.85124 88.4041754,198.898072 C88.2939457,199.100092 88.3123173,199.320478 88.0367432,199.320478 C87.7979123,198.769513 87.6141962,198.200184 87.393737,197.649219 C86.4935282,198.328742 85.611691,198.934803 84.491023,199.173554 C83.8663883,199.393939 83.3519833,199.155188 82.7824635,198.953168 C82.0475992,198.65932 81.4780793,198.145087 80.9820459,197.520661 C79.9164927,196.161616 78.9427975,194.839302 77.5832985,193.737374 C76.6463466,192.984389 75.4889353,192.635445 74.3131524,192.543618 C73.7436326,192.543618 73.1924843,192.727273 72.6229645,192.782369 C74.4968685,192.984389 76.6096033,193.99449 77.5832985,195.665748 C78.0793319,196.437098 77.9507307,197.263545 77.9323591,198.126722 C77.9139875,198.714417 77.5465553,199.302112 77.2893528,199.816345 C76.8300626,199.210285 76.4258873,198.549128 76.0033403,197.924702 C75.3052192,198.787879 74.5703549,199.375574 73.6334029,199.963269 L72.1453027,199.963269 C70.6939457,199.761249 69.7018789,198.806244 68.5812109,197.998163 C67.5340292,198.089991 66.5419624,198.714417 65.4580376,198.769513 C64.3373695,198.806244 63.2167015,198.953168 62.2246347,198.273646 C61.085595,197.465565 60.240501,196.179982 60.0200418,194.784206 C59.7812109,193.608815 60.148643,192.506887 60.0384134,191.313131 C59.9465553,189.641873 59.1749478,188.429752 58.5503132,186.923783 C57.5031315,184.407713 56.6029228,181.836547 55.7578288,179.265381 C55.4087683,178.181818 55.1331942,177.07989 54.765762,176.014692 C53.2776618,177.07989 52.0467641,178.236915 50.3749478,179.02663 C50.319833,177.612489 50.3382046,176.198347 50.3565762,174.784206 C50.3933194,173.259871 50.8158664,171.808999 51.4772443,170.449954 C51.9732777,169.292929 52.6897704,168.227732 53.1306889,167.052342 C51.6058455,167.603306 50.5402923,168.650138 49.474739,169.788797 C49.474739,169.182736 49.4379958,168.576676 49.4563674,167.970615 C49.6584551,166.262626 49.7135699,164.609734 50.2830898,162.975207 C51.0363257,160.532599 52.6530271,158.402204 54.9127349,157.153352 C56.308977,156.418733 57.8154489,155.922865 59.2484342,155.243343 C61.7653445,154.067952 64.3557411,152.727273 66.4501044,150.909091 C66.9461378,151.772268 67.3135699,152.598714 68.0668058,153.278237 C69.2425887,154.343434 70.9327766,154.710744 72.4759916,154.618916 C72.0534447,154.269972 71.6125261,153.976125 71.1348643,153.719008 C69.8488518,152.984389 68.8935282,151.735537 68.3056367,150.413223 C67.7544885,149.219467 67.6075157,147.95225 67.0012526,146.77686 C66.3582463,145.528007 65.4947808,144.426079 64.4843424,143.452709 C62.5553236,141.432507 60.148643,139.908173 57.9807933,138.218549 C56.9703549,137.337006 55.9599165,136.400367 55.1331942,135.353535 C53.6818372,133.38843 52.7632568,131.092746 52.3958246,128.668503 C52.3039666,127.38292 52.3223382,126.097337 52.377453,124.811754 C52.6530271,122.277319 53.6267223,120.055096 54.8208768,117.832874 C54.0676409,118.181818 53.3327766,118.585859 52.5611691,118.916437 C50.6872651,119.706152 48.6296451,120.110193 46.6087683,120.275482 C42.8242171,120.495868 38.9661795,119.779614 35.4572025,118.402204 C32.4993737,117.245179 29.9457203,115.13315 28.2922756,112.41506 C26.8409186,110.009183 26.0141962,107.199265 25.7202505,104.426079 C25.4446764,102.938476 25.5732777,101.359045 25.5549061,99.8347107 C25.4997912,98.2736455 25.7569937,96.7860422 25.9223382,95.2433425 C26.9695198,88.3011938 29.3210856,81.5426997 32.8484342,75.4637282 C35.1448852,71.2764004 36.5778706,66.5748393 36.8901879,61.7998163 C37.0004175,60.6244261 37.0004175,59.3755739 36.8534447,58.2185491 C36.6329854,54.8943985 35.622547,51.4600551 33.5465553,48.7970615 C32.4626305,47.5114784 31.268476,46.3544536 29.7620042,45.5647383 C27.2634656,44.1505969 24.2872651,43.6730946 21.439666,43.728191 C19.5106472,43.6730946 17.3244259,44.0036731 15.7077244,45.1056015 C14.3849687,45.9871442 13.6501044,47.5298439 13.4480167,49.0725436 C13.2826722,49.9540863 13.2275574,50.835629 13.3377871,51.7355372 C13.6501044,53.9944904 13.7787056,56.2534435 13.5949896,58.5307622 C13.1356994,61.7814509 11.702714,64.8852158 9.42463466,67.2727273 C7.60584551,69.2011019 5.34613779,70.8907254 2.86597077,71.8273646 C3.1782881,70.9274564 3.6559499,70.1193756 3.83966597,69.164371 C4.13361169,67.2359963 3.63757829,65.399449 2.88434238,63.6363636 C2.42505219,62.5160698 1.74530271,61.5426997 1.32275574,60.4224059 C0.789979123,59.5041322 0.569519833,58.5123967 0.606263048,57.4839302 C0.51440501,55.7575758 1.30438413,54.0128558 2.38830898,52.7272727 C3.08643006,51.882461 3.96826722,51.3131313 4.73987474,50.5601469 C3.82129436,50.7070707 2.90271399,50.9641873 2.05762004,51.3314968 C1.28601253,51.6804408 0.698121086,52.2130395 0.036743215,52.7272727 C0.0551148225,52.1579431 0.0918580376,51.5886134 0.257202505,51.0192837 C0.992066806,48.4848485 2.2045929,46.1524334 4.09686848,44.2975207 C6.13611691,42.2038567 8.89185804,40.9366391 11.7578288,40.4775023 C14.1277662,40.0918274 16.6814196,39.5224977 19.1064718,39.5592287 Z" id="Shape" fill="#0B1725" fill-rule="nonzero"></path>
                <path d="M126.249687,107.915519 C127.866388,108.943985 129.336117,110.247934 130.548643,111.735537 C132.440919,114.031221 133.543215,116.859504 133.855532,119.816345 C134.039248,120.955005 134.094363,122.056933 133.873904,123.195592 C133.432985,127.786961 131.761169,131.955923 129.556576,135.959596 C128.178706,138.328742 126.911065,140.77135 125.478079,143.103765 C124.890188,144.040404 124.559499,144.995409 124.945303,146.078972 C125.569937,147.493113 126.782463,148.337925 128.013361,149.201102 C130.438413,150.798898 133.194154,151.974288 135.839666,153.168044 C139.863048,155.041322 144.731524,155.592287 149.085595,156.326905 C151.951566,156.804408 154.85428,157.28191 157.683507,157.998163 C159.649269,158.494031 161.559916,159.43067 162.882672,160.991736 C164.187056,162.552801 164.885177,164.554637 164.756576,166.574839 C164.352401,166.391185 163.948225,166.152433 163.525678,165.987144 C162.992902,166.336088 162.478497,167.052342 161.853862,167.199265 C161.265971,167.272727 160.549478,167.309458 160.035073,166.97888 C159.043006,166.372819 158.51023,165.472911 157.922338,164.481175 C157.37119,163.562902 156.691441,162.736455 155.791232,162.14876 C154.725678,161.469238 153.549896,160.955005 152.245511,161.17539 C153.200835,161.799816 154.229645,162.130395 155.111482,162.865014 C156.066806,163.636364 156.728184,164.738292 156.764927,165.987144 C156.691441,166.464646 156.617954,166.942149 156.544468,167.419651 C156.195407,167.070707 155.846347,166.721763 155.497286,166.372819 C154.63382,166.887052 153.476409,167.511478 152.465971,167.199265 C151.565762,167.033976 150.757411,166.629936 150.040919,166.042241 C149.857203,165.913682 149.563257,165.583104 149.324426,165.730028 C148.736534,166.189164 148.277244,166.721763 147.579123,167.052342 C146.807516,167.456382 145.852192,167.529844 145.062213,167.144169 C143.555741,166.483012 142.563674,165.087236 141.847182,163.673095 C141.296033,162.497704 140.322338,161.524334 139.220042,160.881543 C138.246347,160.312213 137.25428,160.20202 136.170355,160 C134.682255,159.669421 133.175783,159.375574 131.687683,158.989899 C131.173278,158.879706 130.677244,158.769513 130.162839,158.714417 C130.162839,159.100092 130.273069,159.412305 130.438413,159.742883 C131.154906,161.120294 132.146973,162.093664 133.083925,163.415978 C131.448852,163.875115 129.777035,163.948577 128.105219,163.856749 C126.74572,163.636364 125.735282,162.699725 125.055532,161.5427 C124.320668,160.40404 124.045094,159.155188 123.512317,157.943067 C122.575365,159.320478 123.126514,160.844812 123.457203,162.332415 C122.924426,162.167126 122.410021,162.020202 121.987474,161.616162 C121.417954,161.120294 121.050522,160.348944 120.591232,159.742883 C119.599165,158.438935 118.441754,157.208448 117.247599,156.088154 C116.090188,155.078053 114.877662,154.233242 113.922338,153.002755 C112.783299,151.64371 111.864718,150.009183 112.066806,148.191001 C112.268894,146.740129 112.728184,145.307622 113.224217,143.911846 C114.4,140.550964 115.704384,137.226814 116.972025,133.902663 C117.082255,133.627181 117.192484,133.314968 117.357829,133.057851 C118.092693,132.708907 118.937787,132.653811 119.691023,132.323232 C121.013779,131.753903 122.373278,130.780533 123.053027,129.476584 C122.318163,129.752066 121.638413,130.174472 120.903549,130.431589 C119.617537,130.909091 118.258038,130.945822 116.898539,130.835629 C115.979958,130.688705 115.061378,130.284665 114.142797,130.284665 C113.297704,130.284665 112.434238,130.266299 111.589144,130.321396 C108.833403,130.67034 106.132777,131.404959 103.689353,132.764004 C102.587056,133.370064 101.650104,134.15978 100.529436,134.710744 C98.4350731,135.73921 96.1202505,136.216713 93.805428,135.9045 C93.2175365,135.794307 92.4275574,135.573921 92.0601253,135.078053 C91.6559499,134.288338 91.4538622,133.406795 91.0313152,132.635445 C89.4329854,129.403122 87.6509395,126.244261 85.8505219,123.12213 C85.519833,122.51607 85.0605428,121.910009 84.8400835,121.248852 C84.9503132,121.010101 85.1156576,120.789715 85.2626305,120.587695 C87.063048,118.163453 88.8634656,115.720845 90.6455115,113.278237 C90.7741127,113.094582 90.9578288,112.910927 91.1599165,113.149679 C91.8029228,114.031221 92.4091858,114.876033 93.4196242,115.371901 C95.2016701,116.382002 97.4246347,116.143251 99.1148225,115.041322 C102.072651,113.002755 105.195825,111.221304 108.447599,109.678604 C111.405428,108.337925 114.602088,107.089073 117.835491,106.629936 C120.57286,106.134068 123.787891,106.336088 126.249687,107.915519 Z" id="Shape" fill="#0B1725" fill-rule="nonzero"></path>
            </g>
        </g>
    </g>
</svg>