<?xml version="1.0" encoding="UTF-8"?>
<svg width="200px" height="200px" viewBox="0 0 200 200" version="1.1" xmlns="http://www.w3.org/2000/svg" xmlns:xlink="http://www.w3.org/1999/xlink">
    <!-- Generator: Sketch 54.1 (76490) - https://sketchapp.com -->
    <title>goucher</title>
    <desc>Created with Sketch.</desc>
    <g id="goucher" stroke="none" stroke-width="1" fill="none" fill-rule="evenodd">
        <g id="goucher_BGL">
            <g id="goucher" transform="translate(0.000000, 46.000000)">
                <g id="g10" transform="translate(99.500000, 54.189738) scale(-1, 1) rotate(-180.000000) translate(-99.500000, -54.189738) translate(0.000000, 0.689738)" fill-rule="nonzero">
                    <g id="g12">
                        <path d="M181.614719,31.5939962 C183.723513,30.541391 184.273206,28.5001925 184.273206,28.5001925 C190.221672,32.1425071 192.903063,36.9105833 192.330466,42.7822132 C190.157868,39.3249129 186.269116,34.8215392 181.614719,31.5939962" id="path14" fill="#FDDD04"></path>
                        <path d="M183.074024,48.0956977 L165.550916,48.2967149 C176.68384,42.2782821 185.691611,42.5717248 191.653165,46.2395135 C179.581182,66.4921212 167.018401,80.3020534 151.920323,88.8623498 C135.317624,98.2709683 113.586418,101.546357 89.9795479,99.6104844 L95.1590978,95.7704186 C132.246868,97.1610463 162.090957,83.5552339 183.074024,48.0956977" id="path16" fill="#FDDD04"></path>
                        <path d="M101.370795,70.300181 C95.9931264,70.5361436 72.4724726,69.8122529 56.2532501,57.3194652 C69.8524318,61.704776 82.7581165,62.3011325 82.7581165,62.3011325 C82.7581165,62.3011325 94.6894046,68.8458679 101.370795,70.300181" id="path18" fill="#FDDD04"></path>
                        <path d="M106.559997,52.5608601 C91.3503454,51.597741 82.1830654,47.1835269 75.629446,39.4526102 C85.9599161,43.4393158 96.3445375,44.7691974 96.3636786,44.7691974 C123.268218,49.0717171 151.457011,44.3705921 175.460118,31.9223842 C176.482613,32.1361385 177.534556,32.2509355 178.558687,32.2318299 C163.954188,45.2252828 137.554352,54.0088046 106.559997,52.5608601" id="path20" fill="#FDDD04"></path>
                        <path d="M184.273206,28.5001925 C184.273206,28.5001925 183.723513,30.541391 181.614719,31.5939962 C186.269116,34.8215392 190.157868,39.3249129 192.330466,42.7822132 C192.903063,36.9105833 190.221672,32.1425071 184.273206,28.5001925 Z M175.460118,31.9223842 C173.13701,31.4471932 170.951325,30.5541281 169.493656,29.9131918 C158.23427,24.730344 151.524086,24.3221043 140.772021,29.3326749 C143.047031,31.1697535 145.488258,32.5283752 148.086049,33.4501804 C142.123514,34.8726508 134.368586,34.1837055 129.556479,31.3578704 C125.262001,28.8447468 122.546091,25.9264862 121.424455,22.5488743 C129.524578,27.2467334 140.631326,25.7702121 152.128094,17.8222752 L150.472961,7.89689059 C142.39836,17.0727471 130.384128,18.4983201 114.516153,15.4333709 C97.1370119,11.6220778 87.6405704,12.036686 82.0680552,17.637261 C79.2466238,20.4725673 78.3103457,24.9153582 79.6268283,29.3103034 C81.4481779,35.402056 88.3818383,41.5256514 96.3381571,44.7468258 C96.3636786,44.7468258 96.3445375,44.7564603 96.3636786,44.7691974 C96.3445375,44.7691974 85.9599161,43.4393158 75.629446,39.4526102 C82.1830654,47.1835269 91.3503454,51.597741 106.559997,52.5608601 C137.554352,54.0088046 163.954188,45.2252828 178.558687,32.2318299 C177.534556,32.2509355 176.482613,32.1361385 175.460118,31.9223842 Z M165.208994,9.612771 L158.247031,7.97981223 L160.240978,19.9910077 C160.240978,19.9910077 164.541509,20.9350212 167.481386,22.4340773 L163.803677,12.6362921 L174.584863,24.545493 C177.259709,25.1385836 178.329648,22.4340773 178.329648,22.4340773 L165.208994,9.612771 Z M130.278606,65.4873617 C129.396807,64.8591624 127.939629,64.4827654 126.367604,64.4827654 C123.907236,64.4827654 121.226336,65.4267789 120.794925,67.4807144 C120.616112,69.2732132 123.344782,70.2395982 126.150344,70.2714409 L117.510181,73.5755697 C114.391654,73.0334274 111.650059,71.4706859 109.601797,68.9861391 C109.464537,70.2108582 109.729731,71.8310799 110.70102,73.2599188 C111.714026,74.7684461 113.880406,76.5991561 118.366623,76.7681674 C124.412103,75.7986798 135.122778,70.6829465 143.005477,63.8416658 L130.924005,68.338671 C131.355416,67.515823 131.451285,66.319844 130.278606,65.4873617 L130.278606,65.4873617 Z M141.30879,55.0996211 C125.731694,56.872851 112.448913,57.5872705 101.495458,57.1631911 C101.495458,57.1631911 106.559997,61.950373 112.410468,64.1893227 L110.224946,59.8071146 C119.040815,59.5042008 129.406295,57.9445618 141.30879,55.0996211 Z M16.7370139,18.1794033 C16.7370139,18.1794033 35.3847026,41.5543915 51.2813075,52.3631088 C43.0118599,52.2610489 28.2496516,50.6408272 28.2496516,50.6408272 C36.7715328,61.1657363 47.7665428,68.8968163 52.3581173,72.1245225 C42.197136,86.5213402 55.3681786,95.1325849 95.1590978,95.7704186 L89.9795479,99.6104844 C113.586418,101.546357 135.317624,98.2709683 151.920323,88.8623498 C167.018401,80.3020534 179.581182,66.4921212 191.653165,46.2395135 C185.691611,42.5717248 176.68384,42.2782821 165.550916,48.2967149 C149.699628,69.5666559 131.361796,82.6781717 110.14511,83.1884713 C96.242288,83.5232279 81.8442515,78.764786 68.3090371,68.2844567 C59.5604075,62.0109558 56.2532501,57.3194652 56.2532501,57.3194652 C72.4724726,69.8122529 95.9931264,70.5361436 101.370795,70.300181 C94.6894046,68.8458679 82.7581165,62.3011325 82.7581165,62.3011325 C75.6901413,58.8631012 63.6343542,49.3076797 63.6343542,49.3076797 C68.4561128,49.849822 75.8403253,49.5596452 75.8403253,49.5596452 C63.7748859,43.9432468 57.1766039,37.1785519 57.1766039,37.1785519 C63.3563992,34.8279077 70.3124727,29.3199378 70.3124727,29.3199378 C70.3124727,29.3199378 42.625275,25.4607664 16.7370139,18.1794033 L16.7370139,18.1794033 Z M197.590179,47.5311838 C184.991406,72.2138454 166.471979,89.5704008 145.580855,98.449614 C133.44196,103.616296 119.306009,106.238011 103.556316,106.238011 C94.1398749,106.238011 83.828546,105.513957 73.6835973,103.836418 L79.080407,99.8848215 C61.9440475,99.1447646 49.9936184,96.1722897 44.8971768,89.4747094 C42.0564407,85.7399694 41.2193037,80.222365 42.7785674,74.5866978 C27.1856026,64.3232254 14.7558769,47.7416722 11.145194,42.5780933 L30.9112467,44.9445772 C15.6857092,30.9623678 0,5.91947551 0,5.91947551 C0,5.91947551 36.1835574,14.8210113 65.1137816,19.1554227 C69.8012252,9.40546688 79.4511228,4.70114131 92.6507952,4.70114131 C100.709364,4.70114131 111.835416,6.78380058 120.903555,8.21582376 C124.137257,8.79947588 127.230263,9.08971798 130.061346,9.08971798 C139.03378,9.08971798 145.162369,5.35496166 148.364004,0 L169.465844,4.83509291 L186.398359,21.0467156 C195.865844,26.4686286 199.734964,35.6125444 197.590179,47.5311838 L197.590179,47.5311838 Z" id="path22" fill="#000000"></path>
                        <path d="M174.584863,24.545493 L163.803677,12.6362921 L167.481386,22.4340773 C164.541509,20.9350212 160.240978,19.9910077 160.240978,19.9910077 L158.247031,7.97981223 L165.208994,9.612771 L178.329648,22.4340773 C178.329648,22.4340773 177.259709,25.1385836 174.584863,24.545493" id="path24" fill="#FFFFFF"></path>
                        <path d="M64.6856426,85.5325836 C69.1941087,86.840257 76.0096505,87.5259364 85.0876052,87.5801506 C78.9205706,84.6555215 72.4757446,80.7102931 65.7591804,75.738097 C65.120162,75.2563741 63.9219616,74.2677809 62.1357858,72.7750933 C55.8090784,78.9689059 56.6686284,83.236317 64.6856426,85.5325836 L64.6856426,85.5325836 Z M75.8403253,49.5596452 C75.8403253,49.5596452 68.4561128,49.849822 63.6343542,49.3076797 C63.6343542,49.3076797 75.6901413,58.8631012 82.7581165,62.3011325 C82.7581165,62.3011325 69.8524318,61.704776 56.2532501,57.3194652 C56.2532501,57.3194652 59.5604075,62.0109558 68.3090371,68.2844567 C81.8442515,78.764786 96.242288,83.5232279 110.14511,83.1884713 C131.361796,82.6781717 149.699628,69.5666559 165.550916,48.2967149 L183.074024,48.0956977 C162.090957,83.5552339 132.246868,97.1610463 95.1590978,95.7704186 C55.3681786,95.1325849 42.197136,86.5213402 52.3581173,72.1245225 C47.7665428,68.8968163 36.7715328,61.1657363 28.2496516,50.6408272 C28.2496516,50.6408272 43.0118599,52.2610489 51.2813075,52.3631088 C35.3847026,41.5543915 16.7370139,18.1794033 16.7370139,18.1794033 C42.625275,25.4607664 70.3124727,29.3199378 70.3124727,29.3199378 C70.3124727,29.3199378 63.3563992,34.8279077 57.1766039,37.1785519 C57.1766039,37.1785519 63.7748859,43.9432468 75.8403253,49.5596452 L75.8403253,49.5596452 Z" id="path26" fill="#1A64B7"></path>
                        <path d="M96.3636786,44.7691974 C96.3445375,44.7564603 96.3636786,44.7468258 96.3381571,44.7468258 C88.3818383,41.5256514 81.4481779,35.402056 79.6268283,29.3103034 C78.3103457,24.9153582 79.2466238,20.4725673 82.0680552,17.637261 C87.6405704,12.036686 97.1370119,11.6220778 114.516153,15.4333709 C130.384128,18.4983201 142.39836,17.0727471 150.472961,7.89689059 L152.128094,17.8222752 C140.631326,25.7702121 129.524578,27.2467334 121.424455,22.5488743 C122.546091,25.9264862 125.262001,28.8447468 129.556479,31.3578704 C134.368586,34.1837055 142.123514,34.8726508 148.086049,33.4501804 C145.488258,32.5283752 143.047031,31.1697535 140.772021,29.3326749 C151.524086,24.3221043 158.23427,24.730344 169.493656,29.9131918 C170.951325,30.5541281 173.13701,31.4471932 175.460118,31.9223842 C151.457011,44.3705921 123.268218,49.0717171 96.3636786,44.7691974" id="path28" fill="#BAAD9F"></path>
                        <path d="M101.495458,57.1631911 C112.448913,57.5872705 125.731694,56.872851 141.30879,55.0996211 C129.406295,57.9445618 119.040815,59.5042008 110.224946,59.8071146 L112.410468,64.1893227 C106.559997,61.950373 101.495458,57.1631911 101.495458,57.1631911" id="path30" fill="#FFFFFF"></path>
                        <path d="M118.366623,76.7681674 C113.880406,76.5991561 111.714026,74.7684461 110.70102,73.2599188 C109.729731,71.8310799 109.464537,70.2108582 109.601797,68.9861391 C111.650059,71.4706859 114.391654,73.0334274 117.510181,73.5755697 L126.150344,70.2714409 C123.344782,70.2395982 120.616112,69.2732132 120.794925,67.4807144 C121.226336,65.4267789 123.907236,64.4827654 126.367604,64.4827654 C127.939629,64.4827654 129.396807,64.8591624 130.278606,65.4873617 C131.451285,66.319844 131.355416,67.515823 130.924005,68.338671 L143.005477,63.8416658 C135.122778,70.6829465 124.412103,75.7986798 118.366623,76.7681674" id="path32" fill="#FFFFFF"></path>
                        <path d="M65.7591804,75.738097 C72.4757446,80.7102931 78.9205706,84.6555215 85.0876052,87.5801506 C76.0096505,87.5259364 69.1941087,86.840257 64.6856426,85.5325836 C56.6686284,83.236317 55.8090784,78.9689059 62.1357858,72.7750933 C63.9219616,74.2677809 65.120162,75.2563741 65.7591804,75.738097" id="path34" fill="#231F20"></path>
                    </g>
                </g>
            </g>
        </g>
    </g>
</svg>