<?xml version="1.0" encoding="UTF-8"?>
<svg width="200px" height="200px" viewBox="0 0 200 200" version="1.1" xmlns="http://www.w3.org/2000/svg" xmlns:xlink="http://www.w3.org/1999/xlink">
    <!-- Generator: Sketch 54.1 (76490) - https://sketchapp.com -->
    <title>hamilton</title>
    <desc>Created with Sketch.</desc>
    <g id="hamilton" stroke="none" stroke-width="1" fill="none" fill-rule="evenodd">
        <g id="hamilton_BGL" transform="translate(0.000000, 0.000000)">
            <g id="hamilton" transform="translate(8.000000, 0.000000)">
                <g id="g10" transform="translate(92.305497, 100.079541) scale(-1, 1) rotate(-180.000000) translate(-92.305497, -100.079541) translate(0.000000, 0.656199)" fill-rule="nonzero">
                    <g id="g12">
                        <polyline id="path14" fill="#253B7D" points="0 55.5498097 21.9380101 55.5498097 21.9380101 169.483657 0 169.483657 0 197.653604 70.5148063 197.653604 70.5148063 169.483657 53.8009181 169.483657 53.8009181 123.808044 110.256542 123.808044 110.256542 169.483657 93.541863 169.483657 93.541863 197.653604 164.037945 197.653604 164.037945 169.483657 142.118554 169.483657 142.118554 55.5498097 164.037945 55.5498097 164.037945 27.3827792 93.541863 27.3827792 93.541863 55.5498097 110.256542 55.5498097 110.256542 103.258432 53.8009181 103.258432 53.8009181 55.5498097 70.5148063 55.5498097 70.5148063 27.3827792 0 27.3827792 0 55.5498097"></polyline>
                        <path d="M148.445964,161.391127 L170.213973,161.391127 L170.213973,198.440772 L182.360058,180.676074 L182.360058,142.106976 L160.427217,142.106976 L160.427217,65.2174704 L148.445964,65.2174704 L148.445964,161.391127 Z M170.213973,19.2860604 L170.213973,56.3398939 L182.360058,41.6199367 L182.360058,0 L109.334542,0 L94.3483493,19.2860604 L170.213973,19.2860604 Z M76.8432712,19.2860604 L76.8432712,56.3398939 L88.8284806,42.8899041 L88.8284806,0 L18.1757435,0 L0.823125037,19.2860604 L76.8432712,19.2860604 Z M59.9708813,95.1648415 L105.708255,95.1648415 L105.708255,75.6219243 L72.1138013,75.6219243 L72.1138013,65.2174704 L59.9708813,65.2174704 L59.9708813,95.1648415 Z M94.3483493,161.391127 L105.708255,161.391127 L105.708255,145.40677 L94.3483493,161.391127 Z M59.9708813,161.391127 L76.8432712,161.391127 L76.8432712,198.440772 L88.8284806,182.710143 L88.8284806,142.106976 L72.1138013,142.106976 L72.1138013,133.226218 L59.9708813,133.226218 L59.9708813,161.391127 Z M0.823125037,161.391127 L17.3876392,161.391127 L17.3876392,142.106976 L0.823125037,161.391127 Z" id="path16" fill="#D1B67C"></path>
                    </g>
                </g>
            </g>
        </g>
    </g>
</svg>