<?xml version="1.0" encoding="UTF-8"?>
<svg width="200px" height="200px" viewBox="0 0 200 200" version="1.1" xmlns="http://www.w3.org/2000/svg" xmlns:xlink="http://www.w3.org/1999/xlink">
    <!-- Generator: Sketch 54.1 (76490) - https://sketchapp.com -->
    <title>hamline</title>
    <desc>Created with Sketch.</desc>
    <g id="hamline" stroke="none" stroke-width="1" fill="none" fill-rule="evenodd">
        <g id="hamline_BGL" fill="#A21934">
            <g id="hamline" transform="translate(2.000000, 0.000000)">
                <g id="g10" transform="translate(97.821491, 100.215060) scale(-1, 1) rotate(-180.000000) translate(-97.821491, -100.215060) translate(0.000000, 0.573485)" fill-rule="nonzero">
                    <g id="g12">
                        <path d="M0,57.7161276 C8.55938048,58.6368444 13.907874,60.2094609 16.0500076,62.4401418 C18.1920841,64.6662349 19.2631223,70.4871667 19.2631223,79.8992095 L19.2631223,175.171322 C19.2631223,182.99211 18.0677008,188.075981 15.6772863,190.422934 C13.2875715,192.768454 8.06011958,194.226518 0,194.795694 L0,198.777056 L60.6207635,198.777056 L60.6207635,194.795694 C52.6008293,194.226518 47.3867296,192.768454 44.9747515,190.422934 C42.5632019,188.075981 41.3593549,182.99211 41.3593549,175.171322 L41.3593549,132.22781 L107.644911,132.22781 L107.644911,175.171322 C107.644911,182.99211 106.468483,188.075981 104.113341,190.422934 C101.758628,192.768454 96.5139677,194.226518 88.3817887,194.795694 L88.3817887,198.777056 L149.004266,198.777056 L149.004266,194.795694 C140.938634,194.226518 135.716109,192.768454 133.325837,190.422934 C130.936708,188.075981 129.741715,182.99211 129.741715,175.171322 L129.741715,77.3392095 C129.741715,69.4209302 130.936708,64.3459482 133.325837,62.1202852 C135.716109,59.8901777 140.938634,58.4223641 149.004266,57.7161276 L149.004266,53.7349091 L88.3817887,53.7349091 L88.3817887,57.7161276 C97.0132143,58.5645863 102.382829,60.1204286 104.489204,62.3868085 C106.590581,64.6483138 107.644911,70.4871667 107.644911,79.8992095 L107.644911,122.558277 L41.3593549,122.558277 L41.3593549,77.3392095 C41.3593549,69.4209302 42.5632019,64.3284572 44.9747515,62.0653748 C47.3867296,59.800572 52.6008293,58.351253 60.6207635,57.7161276 L60.6207635,53.7349091 L0,53.7349091 L0,57.7161276" id="path14"></path>
                        <path d="M105.58152,148.170606 L105.58152,144.189244 C97.1627313,143.620068 91.7092902,142.216627 89.2130572,139.977057 C86.7166813,137.736341 85.4682791,132.59971 85.4682791,124.566592 L85.4682791,54.4041563 C85.4682791,42.9105366 87.0262827,33.9455189 90.1507154,27.5195692 C95.967881,15.8064512 106.99729,9.9540786 123.246368,9.9540786 C141.05245,9.9540786 153.008521,15.9481 159.112011,27.9384939 C162.516484,34.6438701 164.220149,44.9921136 164.220149,58.9817906 L164.220149,116.034406 C164.220149,127.951395 162.803522,135.426233 159.970269,138.461645 C157.138444,141.491323 151.75612,143.402147 143.824725,144.189244 L143.824725,148.170606 L194.247777,148.170606 L194.247777,144.189244 C185.81942,143.260498 180.314283,141.207452 177.728083,138.034262 C175.143311,134.857201 173.850925,127.525158 173.850925,116.034406 L173.850925,58.9275971 C173.850925,43.7836548 171.544622,31.9601426 166.933446,23.4620783 C158.41655,7.82090303 142.238874,0 118.39942,0 C94.8437193,0 78.806707,7.71896755 70.2913818,23.1569887 C65.6786344,31.4437268 63.3720465,42.380214 63.3720465,55.9598552 L63.3720465,124.566592 C63.3720465,132.529746 62.1386389,137.629961 59.6723949,139.869531 C57.2074361,142.1091 51.8293962,143.549817 43.5438444,144.189244 L43.5438444,148.170606 L105.58152,148.170606" id="path16"></path>
                    </g>
                </g>
            </g>
        </g>
    </g>
</svg>