<?xml version="1.0" encoding="UTF-8"?>
<svg width="200px" height="200px" viewBox="0 0 200 200" version="1.1" xmlns="http://www.w3.org/2000/svg" xmlns:xlink="http://www.w3.org/1999/xlink">
    <!-- Generator: Sketch 54.1 (76490) - https://sketchapp.com -->
    <title>hartwick</title>
    <desc>Created with Sketch.</desc>
    <g id="hartwick" stroke="none" stroke-width="1" fill="none" fill-rule="evenodd">
        <g id="hartwick_BGL">
            <g id="hartwick" transform="translate(0.000000, 43.000000)">
                <g id="g10" transform="translate(99.960828, 57.052881) scale(-1, 1) rotate(-180.000000) translate(-99.960828, -57.052881) translate(0.000000, 0.021939)" fill-rule="nonzero">
                    <g id="g12">
                        <path d="M123.303718,14.0516095 C123.303718,14.0516095 121.672069,41.6968262 128.475986,44.650841 C135.281469,47.6104963 146.068151,45.0998814 146.068151,45.0998814 L146.218249,47.1661563 C146.218249,47.1661563 155.829217,33.5630231 175.935757,37.4126117 C175.935757,37.4126117 176.817544,47.8990979 168.98801,57.2183299 L168.539596,54.8556195 C168.539596,54.8556195 167.043631,56.3133554 166.032115,58.8433985 C165.147822,61.0679186 164.992084,62.101056 164.992084,62.101056 C164.992084,62.101056 175.634622,70.081001 181.849741,64.7595753 C188.058906,59.4350161 179.924477,49.0901672 179.924477,49.0901672 C179.924477,49.0901672 199.738655,48.4907156 199.738655,70.2314123 C199.738655,91.9583212 171.345707,93.1443768 171.345707,93.1443768 L171.644022,94.9198566 C171.644022,94.9198566 159.528394,113.849743 124.779002,113.849743 C90.0361905,113.849743 61.8011735,96.098705 44.2024274,86.197256 C26.6102304,76.2907932 0,53.0798263 0,53.0798263 C0,53.0798263 29.8675433,64.0169197 32.2337634,64.9077931 C32.2337634,64.9077931 9.16863275,49.9728934 0,24.394453 C0,24.394453 25.5770303,42.7321572 47.1664696,47.8990979 C47.1664696,47.8990979 31.7844097,28.3848642 28.53421,2.66512488 C28.53421,2.66512488 50.1160975,27.6518912 70.3727362,36.6633755 C70.3727362,36.6633755 64.7595753,21.7357143 68.6066571,0 C68.6066571,0 81.4593007,28.0936617 94.9192299,35.1887183 C94.9192299,35.1887183 93.293848,21.8791691 100.832273,8.1400703 C100.832273,8.1400703 107.930432,27.2037909 112.660553,32.5226784 C112.660553,32.5226784 113.991066,25.728789 123.303718,14.0516095" id="path14" fill="#909196"></path>
                        <path d="M182.298154,50.8556196 C185.39506,55.5904412 187.620207,65.7952197 179.042377,67.5753998 C170.462667,69.3486861 163.516486,62.9837822 163.516486,62.9837822 C163.964273,56.334977 169.429216,51.8984711 169.429216,51.8984711 L169.429216,53.5191526 C174.011747,48.6483341 174.302855,38.737171 174.302855,38.737171 C155.236972,35.3391296 146.810494,48.7915381 146.810494,48.7915381 L144.744219,49.0901672 L144.744219,47.0204454 C134.687345,48.1996071 128.185817,45.9822942 128.185817,45.9822942 C120.938501,42.3931051 121.672069,19.0796392 121.672069,19.0796392 C114.692986,26.3965211 113.139363,35.9304339 113.139363,35.9304339 C107.037678,28.6138967 100.832273,12.5364666 100.832273,12.5364666 L99.0567934,15.8624673 C99.0567934,15.8624673 94.8399506,22.8503245 96.5038754,37.706227 C96.5038754,37.706227 84.4230296,33.6037594 69.4492736,5.09950634 C69.4492736,5.09950634 66.3429674,25.950583 72.6658815,39.3670182 C72.6658815,39.3670182 56.3628658,34.7114758 30.8618559,7.54810792 C30.8618559,7.54810792 35.3005867,34.3796309 51.2607899,49.9008213 C51.2607899,49.9008213 29.9707317,46.6842135 3.5883117,28.3848642 C3.5883117,28.3848642 8.24752036,48.01598 39.4021142,68.3033277 C39.4021142,68.3033277 17.4489616,61.9838606 8.24752036,57.7695246 C8.24752036,57.7695246 26.7618951,76.625145 61.5808837,94.3639616 C96.3932604,112.107479 115.504267,112.286405 127.742417,112.367565 C158.193807,111.77532 169.854442,93.9224418 169.854442,93.9224418 L169.139048,91.3137462 C172.975789,90.8719131 198.106066,90.3332527 198.106066,70.2314123 C198.106066,50.1233047 182.298154,50.8556196 182.298154,50.8556196" id="path16" fill="#FFFFFF"></path>
                        <path d="M100.382606,20.1080763 C100.382606,20.1080763 98.0261628,25.2869246 100.240656,41.9879347 C100.240656,41.9879347 86.4889912,40.2980013 71.2629829,14.4931293 C71.2629829,14.4931293 70.5228341,29.863877 77.6194262,43.1711701 C77.6194262,43.1711701 60.3268297,41.5461016 35.9251068,16.7172107 C35.9251068,16.7172107 39.0307863,31.5017618 57.6623566,53.9722666 C57.6623566,53.9722666 37.5561291,52.9275349 10.9357772,36.2218557 C10.9357772,36.2218557 19.3649506,54.1154706 53.6658036,73.6278869 C53.6658036,73.6278869 36.9560508,71.5559716 23.0640339,66.3868374 C23.0640339,66.3868374 84.1955326,112.107479 127.143906,109.40791 C127.143906,109.40791 155.236972,109.55362 166.770697,92.5499389 C166.770697,92.5499389 165.582761,85.4549136 158.63658,85.4549136 C151.689146,85.4549136 148.871755,88.1137463 139.860866,91.6668994 C130.839636,95.2156655 125.518524,96.9911452 113.392868,94.0368171 C113.392868,94.0368171 128.162629,94.0155088 133.040028,87.6556186 C137.923381,81.297922 139.142966,72.0187996 147.548762,71.4102607 C154.1866,70.9283179 153.903952,79.1022307 153.903952,82.0568722 L157.751661,82.0568722 C157.751661,82.0568722 158.046843,72.0025051 153.755108,66.0913419 C149.474027,60.175165 144.592868,57.6598497 136.763334,57.6598497 L141.965684,52.724793 L139.269875,53.3806489 L141.343357,50.1233047 C141.343357,50.1233047 130.549468,50.7149224 126.411904,48.3500184 C122.262747,45.9822942 119.756519,39.329102 118.865019,28.3848642 C118.865019,28.3848642 115.915077,32.6802969 114.874419,41.6968262 C114.874419,41.6968262 104.821306,32.0808453 100.382606,20.1080763" id="path18" fill="#1E59AE"></path>
                        <path d="M185.546411,53.0011738 C191.97994,65.759497 179.781899,73.8497436 168.026631,67.6349376 C156.27011,61.4279656 153.385033,52.6718357 153.385033,52.6718357 C158.714606,44.3503318 168.800622,44.6890706 168.800622,44.6890706 C169.470579,47.3475899 170.240497,48.7915381 170.240497,48.7915381 C172.467837,46.2426937 172.684994,39.8088513 172.684994,39.8088513 C159.819502,39.4792 154.052797,43.8032108 150.948057,46.9060701 C147.841124,50.0111229 143.961767,55.7765752 143.961767,55.7765752 C161.372812,60.3249495 161.263137,83.3930257 161.263137,83.3930257 C166.032115,84.8300801 168.358476,90.0418309 168.358476,90.0418309 C179.224437,89.154091 196.522048,86.8296101 196.522048,70.3006641 C196.522048,53.7817456 185.546411,53.0011738 185.546411,53.0011738 L185.546411,53.0011738 Z M128.185817,45.9822942 C128.185817,45.9822942 134.687345,48.1996071 144.744219,47.0204454 L144.744219,49.0901672 L146.810494,48.7915381 C146.810494,48.7915381 155.236972,35.3391296 174.302855,38.737171 C174.302855,38.737171 174.011747,48.6483341 169.429216,53.5191526 L169.429216,51.8984711 C169.429216,51.8984711 163.964273,56.334977 163.516486,62.9837822 C163.516486,62.9837822 170.462667,69.3486861 179.042377,67.5753998 C187.620207,65.7952197 185.39506,55.5904412 182.298154,50.8556196 C182.298154,50.8556196 198.106066,50.1233047 198.106066,70.2314123 C198.106066,90.3332527 172.975789,90.8719131 169.139048,91.3137462 L169.854442,93.9224418 C169.854442,93.9224418 158.193807,111.77532 127.742417,112.367565 C115.504267,112.286405 96.3932604,112.107479 61.5808837,94.3639616 C26.7618951,76.625145 8.24752036,57.7695246 8.24752036,57.7695246 C17.4489616,61.9838606 39.4021142,68.3033277 39.4021142,68.3033277 C8.24752036,48.01598 3.5883117,28.3848642 3.5883117,28.3848642 C29.9707317,46.6842135 51.2607899,49.9008213 51.2607899,49.9008213 C35.3005867,34.3796309 30.8618559,7.54810792 30.8618559,7.54810792 C56.3628658,34.7114758 72.6658815,39.3670182 72.6658815,39.3670182 C66.3429674,25.950583 69.4492736,5.09950634 69.4492736,5.09950634 C84.4230296,33.6037594 96.5038754,37.706227 96.5038754,37.706227 C94.8399506,22.8503245 99.0567934,15.8624673 99.0567934,15.8624673 L100.832273,12.5364666 C100.832273,12.5364666 107.037678,28.6138967 113.139363,35.9304339 C113.139363,35.9304339 114.692986,26.3965211 121.672069,19.0796392 C121.672069,19.0796392 120.938501,42.3931051 128.185817,45.9822942 Z M100.499488,16.9676455 C95.5105342,25.8381192 98.7277688,40.6987847 98.7277688,40.6987847 C83.1931041,33.935291 70.4441816,10.3112884 70.4441816,10.3112884 C68.6702686,29.8287497 75.212219,41.471836 75.212219,41.471836 C54.0361914,34.4864856 34.1887966,13.1989343 34.1887966,13.1989343 C36.7351342,32.4891492 55.146728,52.559654 55.146728,52.559654 C29.0880682,47.7887963 8.12929083,33.1550325 8.12929083,33.1550325 C18.88564,56.334977 47.3814324,71.5205623 47.3814324,71.5205623 C34.0803752,68.8661166 16.115973,62.6522507 16.115973,62.6522507 C29.8598347,73.4079104 34.8352518,79.052407 68.5659207,96.1394414 C102.274655,113.216762 127.742417,110.584878 127.742417,110.584878 C127.742417,110.584878 154.94461,110.591772 167.955186,92.8532683 C167.955186,92.8532683 166.613392,85.3095161 160.108104,84.5721875 C153.61159,83.8345455 148.582213,86.344847 142.22671,89.3045023 C135.894395,92.2447294 130.606499,94.8625123 122.396863,94.4213059 C123.584799,94.4830372 133.631959,94.089461 138.252405,81.4386192 C138.252405,81.4386192 142.22671,73.0356425 147.69134,73.0356425 C153.170697,73.0356425 152.872068,78.9518194 152.872068,83.0878162 L158.93615,83.0878162 C158.93615,83.0878162 160.85734,58.5425759 139.570384,56.7714831 L145.626318,50.7149224 L141.965684,51.3472764 L143.24512,48.6248323 C143.24512,48.6248323 132.016291,49.380649 127.293691,47.3068535 C124.779002,45.913669 121.239323,43.4672923 119.905363,24.945773 C119.905363,24.945773 115.141086,30.9380016 114.134897,39.4792 C114.134897,39.4792 106.485544,31.7207983 100.499488,16.9676455 L100.499488,16.9676455 Z" id="path20" fill="#231F20"></path>
                        <path d="M137.975711,89.0444161 C137.975711,89.0444161 141.856322,86.9370914 143.078414,86.3783762 C143.078414,86.3783762 138.971246,78.6202879 147.28805,76.95887 C147.28805,76.95887 139.080608,75.620523 140.863295,85.4959634 L137.975711,89.0444161" id="path22" fill="#FFFFFF"></path>
                        <path d="M149.063529,83.3930257 C149.063529,83.3930257 150.175633,83.1611417 151.16772,83.1611417 C151.16772,83.1611417 151.942339,80.9444555 149.837207,79.9520544 C149.837207,79.9520544 150.494943,82.7202486 149.063529,83.3930257" id="path24" fill="#FFFFFF"></path>
                        <path d="M146.068151,55.2253805 C146.068151,55.2253805 162.152757,60.4349378 162.366153,82.6102604 C162.366153,82.6102604 166.253972,83.7198569 168.800622,88.4907146 C170.18942,88.464706 194.354245,88.545552 195.252326,70.5848788 C195.252326,70.5848788 194.860003,57.4495873 187.432819,54.7838608 C187.432819,54.7838608 193.866975,69.0337625 176.896823,71.1360734 C176.896823,71.1360734 161.151269,71.3579301 152.060474,52.9463363 C152.060474,52.9463363 155.719542,43.9084987 169.358084,43.4672923 L170.350172,46.1355257 C170.350172,46.1355257 171.345707,43.6888356 171.462589,41.1406179 C171.462589,41.1406179 154.385268,38.818017 146.068151,55.2253805" id="path26" fill="#909196"></path>
                        <path d="M173.238069,81.0541304 C173.238069,80.2644712 171.644022,79.612689 169.692436,79.612689 C167.728315,79.612689 166.142103,80.2644712 166.142103,81.0541304 C166.142103,81.8516235 167.728315,82.4955718 169.692436,82.4955718 C171.644022,82.4955718 173.238069,81.8516235 173.238069,81.0541304" id="path28" fill="#231F20"></path>
                    </g>
                </g>
            </g>
        </g>
    </g>
</svg>