<?xml version="1.0" encoding="UTF-8"?>
<svg width="200px" height="200px" viewBox="0 0 200 200" version="1.1" xmlns="http://www.w3.org/2000/svg" xmlns:xlink="http://www.w3.org/1999/xlink">
    <!-- Generator: Sketch 54.1 (76490) - https://sketchapp.com -->
    <title>haverford</title>
    <desc>Created with Sketch.</desc>
    <g id="haverford" stroke="none" stroke-width="1" fill="none" fill-rule="evenodd">
        <g id="haverford_BGL">
            <g id="haverford" transform="translate(0.000000, 22.000000)">
                <g id="g10" transform="translate(99.999998, 78.656255) scale(-1, 1) rotate(-180.000000) translate(-99.999998, -78.656255) translate(0.000000, 0.531256)" fill-rule="nonzero">
                    <g id="g12" transform="translate(0.000000, 0.937500)">
                        <path d="M94.0718726,135.61458 L92.8511435,137.404163 C92.5321852,137.868747 89.5731228,142.067705 83.5376021,146.342705 C77.9260397,150.317705 68.4923941,155.057288 55.4320819,155.057288 C45.3780197,155.057288 37.1947907,151.760413 32.1008325,148.994788 C26.6508327,146.036455 23.5574994,143.13333 23.2218744,142.811455 L21.3354161,140.81458 C15.5236454,137.611455 10.3845206,132.596872 6.05306235,125.89583 L5.87117694,125.57708 C5.48949986,124.813539 2.20743744,117.946872 4.43196864,111.932289 C5.49154153,109.067706 7.65217689,106.867706 10.6798956,105.565622 C11.0448956,105.388539 12.2355205,104.839581 13.9322913,104.329164 C15.1538538,102.974893 18.874062,99.6810392 26.1799993,99.6810392 C29.1519784,99.6810392 32.4124992,100.236456 35.8679158,101.329372 L36.1270824,101.422497 C36.2467699,101.468956 37.4499991,101.907602 38.8802074,101.907602 C40.1229157,101.907602 41.1498948,101.575935 41.9352073,100.917602 L42.2717698,100.671768 C42.3751031,100.602185 44.7937489,98.9269767 44.4812489,94.8343726 L44.4791656,94.798956 C44.4543739,94.6117685 44.1178114,92.4532269 41.6011448,89.3688519 C38.7621865,85.8886437 32.7189575,80.6896855 20.0398953,75.6794773 L19.978437,75.6542689 C19.4543745,75.4305189 14.7253121,73.3369773 9.90966642,68.349165 C5.38940612,63.6678109 0,55.4781236 0,43.0407281 C0,36.9498949 2.51545827,31.426145 7.27497898,27.0626035 C10.7165622,23.9062494 14.086458,22.4771869 14.4592705,22.3249994 L16.9377079,21.4041661 C17.7262496,20.2636453 18.4916662,19.2687495 19.1504162,18.4155204 C19.9105203,17.4304162 20.9513536,16.0843746 21.1035411,15.5855204 C21.2833328,14.6072913 21.1999995,13.7406247 21.1018745,12.7322913 C20.949687,11.1531247 20.7605203,9.18741644 21.9604161,7.24284357 L22.1333328,6.99056233 C24.3030202,4.12516656 27.5520826,2.67089577 31.7866659,2.67089577 C34.1113533,2.67089577 36.4343741,3.09773951 38.299999,3.43871866 C39.6501032,3.68530199 40.9261448,3.91886449 41.778124,3.92904157 L41.8555198,3.92904157 C42.7998948,3.92904157 43.3365614,3.67309366 44.3224989,3.19783325 C45.3605197,2.6989791 46.7821863,2.01660412 48.8122904,1.76758329 C49.5308321,1.68009371 50.6152071,1.54704163 51.798957,1.54704163 C52.1378112,1.54785413 52.2876029,1.53767704 53.2878112,1.66463538 C53.4968737,0.806070813 54.6687486,0.00610354151 55.070832,0.113525393 C55.4866653,0.222982286 56.4745819,0.936279143 56.9405194,1.98323953 C57.2103111,1.98527078 57.4824986,1.95719787 57.7104152,2.05729162 C58.1469777,1.46159371 58.9176027,0.905355186 59.2992694,1.00626664 C59.674061,1.10514372 60.0301027,1.47623955 60.4683318,2.42309369 C60.4980193,2.44384369 60.6758318,2.38443744 60.9708318,2.45931244 C61.1104151,2.06339578 61.3874985,1.72485412 61.9433318,1.76472912 C62.3958318,1.79565621 64.4063526,3.29915617 64.8290609,4.52392697 L164.032288,4.52392697 L175.860412,48.7666654 L167.548954,48.7666654 L178.807287,90.7873936 L187.119787,90.7873936 L199.130203,135.61458 L94.0718726,135.61458" id="path14" fill="#231F20"></path>
                        <path d="M108.740622,124.651039 L129.592705,124.651039 L126.863538,114.467705 C126.937497,114.468747 127.012497,114.471872 127.088538,114.471872 C128.42083,114.471872 129.65208,114.19583 130.767705,113.686455 L134.806247,128.762497 L108.705206,128.762497 C108.762497,128.391663 108.808331,128.003122 108.827081,127.571872 C108.873956,126.526039 108.835414,125.557289 108.740622,124.651039" id="path16" fill="#FFFFFF"></path>
                        <path d="M143.374996,128.762497 L136.124997,101.704893 C136.266663,100.445518 136.123955,99.2736434 135.68333,98.2637475 C135.979163,97.2143726 136.136455,95.9281226 135.826038,94.5698935 C135.490622,93.1143727 134.963538,92.327081 134.46458,91.7374977 C134.522913,91.355831 134.55833,90.8219769 134.45833,90.1562477 C134.18958,88.3320811 132.011455,83.8940604 127.301038,82.5842688 L126.665622,82.4080188 L126.011455,82.4959354 C124.823955,82.6570813 123.719789,83.3662479 123.055205,84.3957271 C122.230205,85.6730187 122.084372,87.4308311 122.686455,88.8778103 C122.730205,88.9803103 122.761455,89.0718728 122.78333,89.1499978 C121.931247,89.7167686 121.280205,90.7833311 120.819789,91.9132269 L118.138539,81.9051021 L134.930205,81.9051021 L146.38333,124.651039 L185.229162,124.651039 L179.094787,101.749685 L170.780204,101.749685 L153.646871,37.8031241 L161.958329,37.8031241 L155.869788,15.0728121 L117.023955,15.0728121 L128.705205,58.6661444 L111.912497,58.6661444 L100.230727,15.0728121 L66.1848942,15.0728121 C66.4005192,14.6228121 66.6162483,14.1292705 66.8338525,13.586458 L66.9027067,13.400833 C67.151665,12.6521872 67.3140608,11.8167705 67.3755191,10.9614581 L103.241768,10.9614581 L114.92083,54.555207 L123.491664,54.555207 L111.810414,10.9614581 L158.878121,10.9614581 L167.171871,41.9136448 L158.860413,41.9136448 L173.792704,97.6395809 L182.10312,97.6395809 L190.442704,128.762497 L143.374996,128.762497" id="path18" fill="#FFFFFF"></path>
                        <path d="M81.3219771,65.2213525 C81.3219771,65.2213525 81.7419771,65.1846859 82.3657271,65.1846859 C82.6281229,65.1846859 82.8816646,65.192915 83.1315604,65.2059359 L85.559477,74.266769 C84.1271854,74.4303106 82.8368729,74.6947898 81.6523938,75.0296856 L79.1190605,65.5761442 C79.7379147,65.3951025 80.4117688,65.2721859 81.1682271,65.23354 L81.3219771,65.2213525" id="path20" fill="#FFFFFF"></path>
                        <path d="M91.2329144,123.932289 L91.4254144,124.65208 L93.5098935,124.65208 C94.0722893,125.191664 94.6537476,125.728122 95.2591643,126.27708 C96.1328101,127.066663 97.0227059,127.874997 97.9053101,128.761455 L88.4159353,128.761455 L87.2668728,124.473955 C88.3911436,124.494789 89.7647894,124.374997 91.2329144,123.932289" id="path22" fill="#FFFFFF"></path>
                        <path d="M75.7889564,37.8031241 L78.1233314,46.515728 C77.3584356,46.4123947 76.5592689,46.271978 75.7389564,46.1270822 C75.1078106,46.0168738 74.4669773,45.908228 73.8228107,45.8093739 L72.7783315,41.9123948 L65.1464567,41.9123948 L59.3420818,20.2551037 C59.8636443,20.2156245 60.3605193,20.141562 60.8219776,19.9893745 C60.906561,19.9613537 60.9899985,19.9372912 61.072186,19.9112495 L61.100311,19.9031245 C61.8367693,19.6802078 62.5004151,19.4083328 63.1181234,19.0051037 L68.1555191,37.8031241 L75.7889564,37.8031241" id="path24" fill="#FFFFFF"></path>
                        <path d="M91.2329144,123.932289 C91.6117685,123.816664 91.9949977,123.688539 92.3836435,123.52708 C92.7412477,123.910414 93.123331,124.281247 93.5098935,124.65208 L91.4254144,124.65208 L91.2329144,123.932289" id="path26" fill="#A21A34"></path>
                        <path d="M118.478122,97.7591642 C118.385414,98.295935 118.994789,99.1169767 120.019789,99.2183309 C119.984372,99.3643725 119.993747,99.6952058 120.051039,99.805935 C120.054164,99.8673933 119.043747,100.884997 119.073955,102.047914 C119.088539,102.636352 119.274997,103.149372 120.288539,103.269477 C120.184372,103.646664 120.13333,103.928643 120.110414,104.341664 C119.317705,105.111456 118.905205,106.777081 119.201039,107.162497 C119.404164,107.426039 119.68333,107.611456 120.635414,107.761456 C120.566664,108.243747 120.45833,108.932289 120.712497,109.313539 L120.491664,109.515622 C119.766664,110.211456 119.653122,111.281247 120.01458,111.620831 C120.274997,111.864581 121.904164,112.399997 122.856247,112.292706 C124.161455,114.078122 125.64583,114.312497 126.303122,114.422914 L126.717705,114.46458 C126.76458,114.466664 126.81458,114.466664 126.863538,114.467705 L129.591663,124.649997 L108.740622,124.649997 C108.370831,121.14583 107.094789,118.626039 106.107289,116.681247 C105.614581,115.710414 105.178122,114.85208 104.957289,114.086455 C105.194789,112.947914 105.539581,110.395831 104.626039,107.783331 C105.162497,106.408331 105.178122,105.070831 105.104164,104.224893 C107.441664,99.4706225 105.559372,94.1630185 104.851039,92.4931227 C104.935414,85.073227 100.225831,80.592498 98.70031,79.3363522 C97.8804142,77.8402064 95.2066643,74.0714565 89.1019769,74.0714565 C87.835727,74.0714565 86.6597895,74.1414565 85.559477,74.266769 L83.1315604,65.2059359 C84.3982271,65.2669775 85.4879145,65.4838525 86.246352,65.8337484 L86.3972895,65.8996859 C86.635727,65.9953109 88.8044769,66.8367692 91.468956,66.8367692 C92.6835393,66.8367692 96.5251018,65.9586442 99.1845809,64.6659359 C100.410935,64.4958317 102.866664,63.6576026 103.147393,63.1510401 C103.297914,62.8755193 102.90531,62.5174984 102.366143,62.1806234 C102.366143,62.1806234 102.684372,62.1004151 103.476977,61.3069776 C104.223956,61.0485401 104.781247,60.8532276 104.858331,60.5916652 C104.977081,60.184686 104.521872,59.2520819 103.955102,58.7047902 C103.856247,57.7331236 103.568539,57.3038527 103.468852,56.9592694 C103.468852,56.9592694 104.981247,56.7992694 104.988539,56.4343736 C104.996872,56.0497903 104.341664,55.0753111 103.557081,54.3986445 C103.123747,53.2673945 102.286768,52.5716654 101.426977,51.7211445 C101.814789,51.5868737 102.073122,51.4119779 102.033331,51.1832279 C101.938852,50.6356237 99.5145808,48.8562488 98.397185,48.2824988 C96.9584351,46.5779155 94.478331,44.2594781 89.5910394,44.4510406 C86.5522895,44.5686447 84.5585396,45.2758322 82.9593729,45.9387489 C81.8741646,46.386353 81.1571855,46.6845822 80.2689563,46.6845822 C79.5939563,46.6845822 78.8753105,46.6178113 78.1229147,46.515728 L75.7889564,37.8031241 L68.1555191,37.8031241 L63.1181234,19.0051037 C64.2354151,18.2791662 65.2042692,17.1260412 66.1844775,15.0728121 L100.231977,15.0728121 L111.912497,58.6661444 L128.705205,58.6661444 L117.023955,15.0728121 L155.869788,15.0728121 L161.959371,37.8031241 L153.646871,37.8031241 L170.781246,101.749685 L179.094787,101.749685 L185.229162,124.649997 L146.38333,124.649997 L134.930205,81.9046855 L118.138539,81.9046855 L120.819789,91.9128102 C120.265622,93.2791643 119.992705,94.738331 119.997914,95.5257268 C119.043747,96.3297893 118.549997,97.3486434 118.478122,97.7591642" id="path28" fill="#A21A34"></path>
                        <path d="M82.1602063,144.398955 C76.8297897,148.174996 67.866665,152.674996 55.4320819,152.674996 C45.8781239,152.674996 38.0883324,149.535413 33.2364575,146.901038 C27.9740618,144.044788 24.9959369,141.212496 24.8718744,141.093746 L22.9324994,139.03333 L22.9760411,138.992705 C18.044062,136.385413 12.812083,131.962497 8.05419772,124.603122 L8.00211438,124.511455 C7.8690623,124.244789 4.75708321,117.919789 6.6666665,112.758331 C7.51220815,110.474997 9.19596852,108.784372 11.6719789,107.732289 C11.9197914,107.610414 13.4041663,106.898956 15.5615621,106.348956 L15.4292704,106.252081 C15.6437496,105.958331 20.8414578,99.0776017 35.1509366,103.600622 L35.2279158,103.629581 C35.2770825,103.649477 40.0760407,105.580206 43.4647906,102.74656 L43.5677072,102.671352 C43.7198947,102.573643 47.2822905,100.236039 46.8570822,94.6549976 L46.855103,94.6236435 C46.855103,94.5955185 46.6772905,91.8224977 43.4468739,87.8621853 C40.4292698,84.1617687 34.0727075,78.6620814 20.933437,73.4701023 L20.9106245,73.459894 C20.7210411,73.3796857 16.1926038,71.4254149 11.6231247,66.6943733 C7.40722898,62.3290609 2.38240619,54.6813528 2.38240619,43.0407281 C2.38240619,37.6363532 4.63093738,32.7177075 8.88509353,28.8174993 C12.0715622,25.8967702 15.2303121,24.5833327 15.3624996,24.5299994 L16.5177079,24.1011452 L15.4581246,26.587291 C13.0155205,27.810416 4.28873948,32.8918742 4.28873948,43.0407281 C4.28873948,51.8453112 7.19889565,59.3395818 12.9386455,65.312915 C17.1516662,69.6972899 21.4322911,71.6084357 21.6479161,71.7040607 C47.705103,82.0039563 48.7207279,93.7476018 48.7593738,94.5255185 C49.2394779,100.937914 45.2217697,103.85781 44.6427072,104.244789 C40.5094782,107.655206 35.1224991,105.639581 34.5385408,105.405206 C26.1133327,102.751872 21.2719786,104.308331 18.8781245,105.772914 C19.4563537,105.717706 20.0239578,105.688539 20.5797912,105.688539 C25.171666,105.688539 30.9321867,106.832289 33.1396867,114.373955 C27.935416,108.101039 23.7732286,107.221872 19.0262495,107.669789 C15.3812496,108.013539 12.5301039,109.436456 12.502083,109.448956 L12.4406247,109.479164 C10.4561456,110.312497 9.11539561,111.637497 8.45743729,113.415622 C6.90388524,117.597914 9.43034351,123.079164 9.68709351,123.616664 C16.3582288,133.91458 24.6789577,139.587497 34.4144783,140.473955 C41.7040615,141.141663 44.5519781,140.722913 49.7416654,138.390622 C45.8821864,141.457288 41.9897906,143.056246 34.3371866,142.38333 C32.3522909,142.20833 30.1188534,141.803121 27.7405201,141.02083 C31.4595825,143.946871 41.6207281,150.768746 55.4320819,150.768746 C67.326665,150.768746 75.8967689,146.486455 80.9904146,142.892705 C86.5291645,138.986455 89.2842686,135.022913 89.3115603,134.98333 L91.5531227,135.080205 L90.8833311,136.059372 C90.7669769,136.229163 87.9512478,140.297913 82.1602063,144.398955" id="path30" fill="#918F90"></path>
                        <path d="M100.978643,117.538539 C103.326456,118.666664 106.219789,124.184372 104.745831,129.27083 C104.329164,128.412497 103.987602,126.810413 103.676352,125.353122 C103.104685,122.679164 102.444268,119.582289 100.978643,117.538539" id="path32" fill="#FFFFFF"></path>
                        <path d="M71.1612482,117.56458 C65.2018734,116.406247 60.6322902,124.216664 62.7706234,128.416663 C63.4244776,127.722913 64.2334359,126.29583 64.965415,124.998955 C66.3127067,122.619789 67.6318733,119.415622 71.1612482,117.56458" id="path34" fill="#FFFFFF"></path>
                        <path d="M62.3697901,129.417705 C65.4638525,130.390622 66.9449983,119.849997 73.503019,117.866664 C67.8413525,117.163539 64.9145817,128.707288 62.3697901,129.417705" id="path36" fill="#918F90"></path>
                        <path d="M93.8191643,95.5415601 C92.5471852,89.3131228 84.6411437,89.9731228 83.1420813,94.5771851 C83.4253104,85.1562479 96.3667684,88.3699978 93.8191643,95.5415601" id="path38" fill="#918F90"></path>
                        <path d="M104.820831,130.347913 C101.939685,130.347913 102.997602,122.05833 99.2956225,117.50208 C98.6633309,118.155205 97.6904142,118.771872 96.1853101,119.034372 C96.1853101,119.034372 97.6009351,118.404164 98.9933309,117.090622 C99.093435,116.997914 99.1918725,116.899997 99.2895809,116.799997 C99.6936433,116.387497 100.087497,115.92083 100.433331,115.388539 C100.433331,115.388539 100.322289,116.17083 99.7017683,117.022914 C103.144164,120.18333 102.92156,129.110413 104.820831,130.347913" id="path40" fill="#918F90"></path>
                        <path d="M70.2555191,107.098956 C70.5208316,103.19906 75.3824981,97.5191642 79.7147897,102.38156 C78.2230189,97.6147892 69.8697899,99.3241642 70.2555191,107.098956" id="path42" fill="#918F90"></path>
                        <path d="M84.4164562,104.237914 C79.0751022,105.118747 79.893748,113.504164 73.6832273,113.638539 C79.7570813,116.285414 80.9167688,105.731247 84.4164562,104.237914" id="path44" fill="#918F90"></path>
                        <path d="M90.7112477,103.63156 C95.6404143,105.221872 93.6791643,113.039581 99.5344767,114.047914 C93.4146852,115.690622 93.812706,105.541664 90.7112477,103.63156" id="path46" fill="#918F90"></path>
                        <path d="M75.9135398,85.2665604 C79.148748,86.7708312 83.9803104,81.4384355 89.4018728,86.0864562 C89.4018728,86.0864562 91.3167686,83.9448937 95.4626018,84.0812479 C95.4626018,84.0812479 92.1813519,82.1655188 89.3558311,84.5353104 C82.7030188,80.1615605 79.9698938,85.5399979 75.9135398,85.2665604" id="path48" fill="#918F90"></path>
                        <path d="M79.9067688,76.2036439 C77.6981231,73.0285398 72.246144,73.8565607 72.246144,73.8565607 L71.9014565,75.2371856 C71.9014565,75.2371856 76.8701022,74.4099981 78.6641647,76.7557272 L79.9067688,76.2036439" id="path50" fill="#918F90"></path>
                        <path d="M52.7319778,78.2222897 C63.4131234,77.9044772 61.864061,65.5163525 69.8856233,62.4585401 C64.4454151,67.3420816 65.3202067,77.1110397 56.7817694,79.3346855 C47.1736447,81.4388521 43.0835406,74.649269 42.5268739,72.9809357 C42.5268739,72.9809357 47.2224988,78.3866647 52.7319778,78.2222897" id="path52" fill="#918F90"></path>
                        <path d="M17.8060412,39.5873948 C18.3357287,42.1187489 19.8774995,44.2614572 21.2410411,46.1531238 C22.0768744,47.3104155 22.8841661,48.2385405 23.4176036,49.2155196 C23.7756244,49.8710404 24.3082286,51.0978112 24.6683327,53.2063528 C24.876666,54.428332 25.8777077,56.1299986 25.8777077,56.1299986 C25.8777077,56.1299986 25.6811452,54.7546861 25.5611452,53.5941653 C25.502916,51.4790612 25.1444785,49.9605196 24.6988535,48.3821863 C24.3444786,47.1354155 23.4842702,46.4103113 22.5947911,45.176978 C21.2662495,43.3365614 19.8962495,41.4310406 19.4392703,39.2480199 C18.6031245,35.2583325 19.1577079,30.9293742 22.9174994,23.9644786 C18.6226037,28.5083326 16.9958329,35.7157283 17.8060412,39.5873948" id="path54" fill="#918F90"></path>
                        <path d="M103.115622,60.0606235 C102.888956,60.239686 101.727289,60.2376027 100.632706,60.1929152 C100.208331,60.7706235 99.3595808,61.573436 97.7702059,61.9742693 C98.622185,62.2212484 99.5344767,62.5529151 99.3160392,62.7847901 C99.0356225,63.0818734 96.8688517,63.2966651 95.6448934,63.3943734 C92.0243727,65.5387484 87.505727,63.7768734 87.2843728,63.6893734 L87.2453103,63.6731234 C84.7208312,62.5053109 81.1221855,62.8479151 81.0876021,62.8519776 L81.0461438,62.8539568 C74.2093731,63.2039568 72.0231232,68.6381233 70.5773941,72.234269 C70.4980191,72.4316649 70.4207274,72.6208315 70.3470816,72.8018732 L70.3368732,72.8344773 C69.6753108,74.8140606 65.7596859,84.6943729 53.5262487,84.6943729 C44.4644781,84.6943729 38.487499,78.3239564 37.9252074,77.7018731 C36.3708324,76.2980189 34.8051033,72.6176024 33.69302,69.5291649 C30.1521867,67.5040608 27.5012493,65.2945817 25.3536452,62.5785401 C22.9691661,59.5613527 22.0378119,56.5653111 21.2886453,54.1585403 C20.786562,52.545207 20.3539578,51.1527071 19.6223953,50.1729154 C19.3054162,49.7468738 18.9237495,49.2855196 18.522187,48.7959363 C16.4030204,46.220728 13.5005205,42.6908323 13.7390622,37.4052074 C14.1271871,28.8199993 18.2844787,23.4354161 21.0355203,19.8730203 C22.2314578,18.3227079 23.2649994,16.9864579 23.4411452,16.0448954 C23.6885411,14.7269788 23.5794786,13.5969788 23.4729161,12.5053122 C23.3386452,11.0916664 23.2084369,9.75748934 23.9888536,8.49365604 L24.0323952,8.42936437 C27.4776035,3.88142699 33.48427,4.97924988 37.8722907,5.78246861 C39.3245824,6.04777068 40.6969781,6.29883318 41.7427073,6.31143734 C43.3032281,6.33422901 44.2545822,5.87402069 45.3552072,5.3446457 C46.341978,4.87101029 47.4617696,4.33349989 49.0962488,4.13330198 C49.7867696,4.04988532 50.7572904,3.93107282 51.7981237,3.93107282 C52.6822903,3.93107282 53.6148945,4.01652073 54.4637486,4.28141656 C54.6386445,3.32926033 54.9446861,1.98038537 55.2388528,2.21557286 C55.4826028,2.41252077 55.7678111,3.72192699 55.9773944,4.86857279 C56.8827069,4.8103853 57.8409361,4.84049988 58.7186444,5.06998946 C58.7999985,4.10522906 58.970936,2.69774993 59.2911444,2.90608326 C59.5487485,3.07413534 59.9544777,4.31884364 60.272186,5.42806236 L60.6616652,5.45735403 C60.7124985,5.4593957 61.3480193,5.48868736 62.1252068,5.75398944 C62.0873943,4.90193738 62.1117693,4.01895823 62.3885401,4.14469781 C62.7034359,4.28547906 63.4012484,5.71166652 63.9119776,6.82902066 C64.0771859,6.99259358 64.2341651,7.17407274 64.3773942,7.37914565 C65.2828109,8.68041645 65.3711442,10.4520622 64.6407276,12.6501039 L64.6228109,12.697708 C63.0701026,16.5624996 61.9449985,17.1593746 60.4064568,17.6240621 C60.299061,17.6562496 60.1908318,17.6895829 60.0793735,17.7249996 C59.2773944,17.9886454 58.4761444,17.9187496 57.7002069,17.8511454 C56.9909361,17.7896871 56.3212486,17.7303121 55.7279153,17.9386454 C55.3022903,18.0876037 54.9076028,18.2564579 54.5263528,18.4199995 C53.6210403,18.8061454 52.6867695,19.205312 51.4021862,19.3135412 C48.5021863,19.5239578 46.4990613,18.4863537 44.7306239,17.5728121 C42.6395823,16.4905204 40.4813532,15.6030204 38.2470824,16.9678121 C34.4462491,19.8323953 34.5251033,23.3866661 34.5251033,23.3866661 C34.5251033,23.3866661 32.7583325,18.5416662 37.2453116,15.7613538 C40.548124,13.715833 43.2926031,14.9499996 45.4971864,16.0896871 C47.1460405,16.9449996 48.8513529,17.8251037 51.2719779,17.6501037 C52.2782279,17.5667704 53.0171862,17.2521871 53.8712487,16.8863537 C54.2765611,16.7134371 54.6972903,16.5332288 55.1754153,16.3655204 C56.1076028,16.0384371 57.0299986,16.1177079 57.8458319,16.1906246 C58.4814569,16.2446871 59.0823944,16.2980204 59.559686,16.1417704 C59.6838527,16.1010413 59.8042693,16.0636454 59.9231235,16.0282288 C60.9155193,15.7270829 61.7016651,15.4907288 63.0671859,12.1012497 C63.6116651,10.4459685 63.5949984,9.18212477 63.0146859,8.34065604 C62.6139568,7.75634356 61.9897901,7.45320815 61.4770818,7.2957394 C61.585311,7.53865606 61.679686,7.80517689 61.7520818,8.09570813 C61.9970818,9.06453102 61.3773943,11.1885414 60.0447902,12.8011455 C58.6848944,14.4490621 56.3867694,14.5499996 56.3867694,14.5499996 C56.3867694,14.5499996 58.3866652,14.1207288 59.1649985,13.022083 C60.6311443,10.9481247 60.6331235,9.19678102 60.515936,8.72721853 C60.184686,7.40844773 59.0795819,6.67073942 57.1211444,6.5710415 C57.2428111,6.86686441 57.3401027,7.19157274 57.4047902,7.55534356 C57.5805194,8.5396352 56.8122902,10.6136456 55.3718736,12.1292705 C53.898957,13.6771872 51.5998945,13.617708 51.5998945,13.617708 C51.5998945,13.617708 53.6263528,13.3301038 54.478332,12.2876039 C56.0876028,10.3218539 56.2117694,8.57503104 56.1263528,8.09773938 C55.7678111,6.09374985 53.5916653,5.2657082 49.2989571,5.78857277 C47.9354155,5.9554061 47.0324988,6.38956234 46.0774988,6.84895816 C44.8958322,7.41658315 43.6722906,8.0061873 41.7219781,7.97933313 C40.5355198,7.9654998 39.0951032,7.70222897 37.5719782,7.42309356 C33.1847908,6.62068733 28.2161451,5.71166652 25.3873952,9.40104143 C24.9251035,10.1802602 25.0138535,11.0905206 25.1346869,12.3449997 C25.2449994,13.4968747 25.3711452,14.8022913 25.0802077,16.3520829 C24.8307285,17.6876037 23.7373952,19.1019787 22.3555203,20.891562 C19.5764578,24.4917702 15.7690621,29.4217701 15.4053121,37.4801032 C15.1953121,42.1260406 17.7546871,45.237603 19.8095828,47.7364571 C20.2249995,48.2417696 20.6181245,48.7178113 20.9582286,49.1739571 C21.861562,50.3844779 22.3347911,51.9042695 22.8816661,53.663332 C23.6263536,56.0559361 24.4689577,58.7707277 26.6626035,61.5449985 C28.3553118,63.6872901 30.3979159,65.5001025 33.0020825,67.1631233 C32.4878117,65.0187484 31.88677,62.2265609 30.3483326,60.1054152 C32.6782283,61.5458318 34.5438533,66.9270817 35.1619783,68.6605191 C36.2805199,71.7947899 37.7803116,75.3532273 39.0661449,76.4843731 L39.1397907,76.5584356 C39.1984365,76.6227064 44.9731239,83.0265604 53.5262487,83.0265604 C64.6159359,83.0265604 68.1576025,74.0966648 68.7544774,72.3074982 C68.7752066,72.242394 68.7894774,72.2037482 68.7963524,72.1883315 C68.8708316,72.0052065 68.9493733,71.811144 69.0291649,71.611769 C70.5359357,67.8669775 73.0566648,61.602811 80.9419771,61.1897901 C81.2971855,61.1564568 85.0606229,60.8369776 87.9198936,62.1471859 C88.1864561,62.2477068 91.6344769,63.4989567 94.4294768,62.1471859 C91.6406227,61.8237485 88.7072894,59.7188527 88.7072894,59.7188527 C88.7072894,59.7188527 92.9398935,60.5530193 95.6156226,60.5530193 C98.7651017,60.5530193 99.4148933,59.0251027 99.4343725,58.9782277 L99.4469767,58.9457277 C99.4608308,58.9083319 99.7920808,58.025311 99.2814559,57.2827069 C98.8716642,56.6865611 96.7992684,55.5968736 93.9376018,55.5968736 C91.1018727,55.5968736 89.7293728,55.9997903 89.7293728,55.9997903 C89.7293728,55.9997903 91.770831,54.3090611 94.9206226,54.3090611 C96.7374976,54.3090611 98.1749975,54.5796861 99.2223934,55.1188528 C99.22531,54.6968736 98.972185,54.332707 98.9335392,54.277707 L98.8744767,54.1890611 C98.8260392,54.1068736 97.6240601,52.1646862 93.7894768,52.1646862 C90.5127061,52.1646862 87.679477,53.5331237 87.679477,53.5331237 C87.679477,53.5331237 89.8514561,50.4968737 93.7894768,50.4968737 C94.2773935,50.4968737 94.7293726,50.5248946 95.1521851,50.5749987 C94.2846851,49.5914571 92.6355185,48.5009363 89.5910394,48.5009363 C87.3555186,48.5009363 85.9086437,49.0998946 84.5096854,49.6793738 C83.2576021,50.1977071 81.963748,50.7353112 80.2689563,50.7353112 C78.5502064,50.7353112 76.7627064,50.4198946 75.0326023,50.1147904 C73.3508315,49.8197904 71.6113524,49.5137488 69.9951024,49.5137488 C67.3909358,49.5137488 65.7312484,50.0935404 64.1284359,50.6563529 C63.1697901,50.9908321 62.2660401,51.3073946 61.2064568,51.4965612 C59.8335402,51.7415612 58.5774985,51.7855195 57.3616652,51.8269779 C55.1440611,51.9063529 53.0513528,51.979582 50.5880196,53.3141653 C46.2674988,55.6551028 43.9168739,57.8124986 42.7335406,60.9883318 C42.8043739,58.7658319 44.9959364,54.4486445 49.7929154,51.8472904 C52.6001029,50.3271862 54.9906236,50.2424987 57.3022902,50.1603112 C58.4594777,50.1208321 59.657811,50.0781237 60.9135401,49.8543738 C61.2651026,49.7929154 61.6011443,49.7073946 61.9343735,49.6146863 C60.1541652,47.8291655 58.2535402,45.4280197 56.2557278,42.9060406 C53.3634362,39.2533324 50.3735404,35.4760408 47.7461446,33.6385408 C42.7657281,30.1541659 35.4781241,27.2374993 29.5344784,30.5176034 C29.5344784,30.5176034 31.1304159,27.9228118 36.1263533,27.847916 C40.6021865,27.847916 45.1908322,29.8164576 48.7036446,32.27177 C51.528332,34.2488533 54.5967695,38.123749 57.5627069,41.8696865 C59.7701027,44.6573947 61.8587485,47.2929155 63.7284359,49.0270821 C65.3474984,48.4622905 67.1940608,47.8458321 69.9951024,47.8458321 C71.757394,47.8458321 73.5701023,48.165728 75.3218731,48.4741655 C77.0572897,48.7781238 78.696248,49.0678113 80.2689563,49.0678113 C81.631248,49.0678113 82.6701021,48.6364571 83.8708312,48.1404155 C85.3491645,47.5272905 87.0227062,46.8342697 89.5910394,46.8342697 C92.7710393,46.8342697 94.732706,47.8624988 95.9253101,48.9749988 C97.0686434,49.4624988 98.9489559,50.3112487 99.1169767,50.6697904 C99.2501017,50.9603112 98.2731225,50.9859362 97.3836434,50.9521862 C97.4145809,51.0205196 97.4462476,51.0864571 97.4718726,51.1474987 C99.3107267,51.8859362 100.114789,53.0253112 100.288852,53.305207 C100.404893,53.463957 100.524893,53.670207 100.626664,53.9094778 C101.505518,54.555207 102.408852,55.2766653 102.472706,55.5574986 C102.541872,55.8512486 101.684581,55.7108319 100.860622,55.5135403 C100.822706,55.7690611 100.745414,56.0282278 100.614372,56.2845819 C100.633956,56.3110403 100.655102,56.3366653 100.673435,56.3631236 C101.262185,57.2379152 101.278435,58.1677069 101.186977,58.8004152 C102.077185,59.1817694 103.422081,59.8185402 103.115622,60.0606235" id="path56" fill="#918F90"></path>
                        <path d="M131.53958,99.3338517 L130.965622,98.8785392 L131.338538,98.2483309 C131.348955,98.2348934 132.182288,96.8098934 131.87708,95.4744768 C131.704163,94.7224976 131.509372,94.5031226 131.265622,94.227706 C131.022913,93.9566643 130.722913,93.6206227 130.517705,92.9597893 C130.271872,92.1704144 130.329163,91.7501019 130.422913,91.3204144 C130.46458,91.1266644 130.490622,91.0107269 130.45208,90.7490602 C130.35833,90.1147894 129.081247,87.436977 126.480205,86.5673937 C125.81458,86.4721853 126.032289,86.5616645 126.516664,87.6110395 C126.999997,88.6567686 126.965622,90.8138519 126.08333,91.5942685 L126.085414,91.5951019 C124.467705,93.0330185 123.929164,94.7461435 124.498955,96.6739559 C124.67708,97.0109351 125.759372,98.4313517 127.674997,97.2306226 C129.479163,96.1003101 129.721872,95.2576018 129.721872,95.2576018 C129.721872,95.2576018 129.35208,97.8934351 127.674997,98.6430184 C126.588539,99.128435 125.712497,99.18781 125.017705,99.0255184 C124.899997,99.8588517 125.160414,100.518747 125.274997,100.902497 C125.453122,101.23906 126.74583,103.002497 128.735413,101.926247 C130.043747,101.221143 130.217705,100.131039 130.217705,100.131039 C130.217705,100.131039 130.33958,102.376352 128.66458,103.127393 C127.347913,103.716247 126.156247,103.463956 125.22708,102.921143 C125.179164,103.048539 125.142705,103.164893 125.109372,103.269893 C125.067705,103.648227 125.149997,105.831247 127.401038,106.056247 C128.878122,106.205206 129.634372,105.402081 129.634372,105.402081 C129.634372,105.402081 129.243747,107.519789 127.03958,107.329164 C126.149997,107.253122 125.459372,107.055206 124.922914,106.780206 C124.871872,109.561456 126.059372,110.085414 126.932288,110.420831 C128.604163,110.820831 129.962497,109.901039 130.928122,108.439581 L130.918747,108.421872 C130.998955,108.329164 132.823955,105.641664 131.559372,104.265935 L131.197913,103.838331 L131.456247,103.341039 C131.471872,103.311768 132.922913,100.42031 131.53958,99.3338517 M133.15833,103.629581 C134.557288,105.792706 132.863538,108.841664 131.88958,109.909372 L131.888538,109.909372 C130.32708,111.761456 128.335413,112.139581 126.805205,112.085414 L126.697913,112.072914 C126.197914,111.988539 125.187497,111.460414 124.43333,110.505206 C123.301039,110.660414 122.029164,110.790622 121.771872,110.622914 C121.430205,110.402081 122.85208,109.581247 123.696872,109.128122 C123.506247,108.532289 123.434372,107.846872 123.55833,107.074997 C123.619789,106.704164 123.768747,106.365622 123.971872,106.060414 C123.83333,105.904164 123.717705,105.738539 123.621872,105.566664 C122.503122,105.838539 121.232289,106.101039 120.956247,105.960414 C120.494789,105.721872 122.791664,104.226039 123.20833,103.957497 C123.185414,103.078227 123.419789,102.27781 123.55208,101.916143 C123.581247,101.838747 123.62083,101.727289 123.672914,101.593018 C122.557289,101.677602 121.344789,101.722393 121.106247,101.546247 C120.778122,101.304477 122.241664,100.573331 123.110414,100.170102 C122.982289,99.5805183 122.83333,98.6368725 122.954164,97.6432267 C121.937497,97.6065601 120.92708,97.5239559 120.72708,97.3441642 C120.443747,97.0865601 121.776039,96.5596851 122.692705,96.2397893 C122.415622,94.5231226 122.726039,92.3482269 124.968747,90.3564561 C124.968747,90.3564561 124.97083,90.3523936 124.968747,90.3564561 C125.337497,89.9067686 125.296872,88.9546853 124.886455,87.9610395 C124.563539,87.1858312 124.67708,86.273227 125.055205,85.690102 C125.40208,85.1541645 125.95833,84.907602 126.328122,84.8567687 L126.497914,84.8339562 L126.663539,84.880727 C130.28333,85.8858312 131.938538,89.4055186 132.10208,90.5045811 C132.185413,91.0693727 132.10833,91.4209352 132.053122,91.6772894 C132.003122,91.9059352 131.973955,92.032081 132.10833,92.4617685 C132.20833,92.779581 132.321872,92.907706 132.509372,93.1185393 C132.832288,93.4806227 133.234372,93.932706 133.503122,95.1013518 C133.811455,96.4534351 133.391663,97.7721851 133.068747,98.5087475 C134.403122,100.136768 133.598955,102.589893 133.15833,103.629581" id="path58" fill="#918F90"></path>
                        <path d="M75.5753106,105.642706 C75.0106231,105.642706 74.552394,106.099997 74.552394,106.665622 C74.552394,107.230206 75.0106231,107.688539 75.5753106,107.688539 C76.1409356,107.688539 76.5979148,107.230206 76.5979148,106.665622 C76.5979148,106.099997 76.1409356,105.642706 75.5753106,105.642706 M73.9847898,108.657289 C73.3984357,108.189581 73.0229148,107.471872 73.0229148,106.665622 C73.0229148,105.255206 74.1645815,104.113331 75.5753106,104.113331 C76.6239564,104.113331 77.5211439,104.744789 77.9149981,105.647914 C76.7513522,107.473956 75.4369773,108.484372 73.9847898,108.657289" id="path60" fill="#231F20"></path>
                        <path d="M77.9113522,105.641664 C77.5166647,104.741664 76.6211439,104.113747 75.5745814,104.113747 C74.164269,104.113747 73.0229148,105.255206 73.0229148,106.665622 C73.0229148,107.464581 73.3927065,108.173956 73.969269,108.641664 C73.8219773,108.658331 73.6771857,108.686456 73.5278107,108.686456 C72.790519,108.686456 71.990519,108.486456 71.1417691,108.089581 C71.9706232,105.395831 74.223644,102.716456 76.5812481,102.716456 L76.5823939,102.716456 C77.4145814,102.716456 78.2052064,103.063539 78.9391647,103.750414 C78.6120814,104.462497 78.2673939,105.083331 77.9113522,105.641664" id="path62" fill="#FFFFFF"></path>
                        <path d="M75.5753106,107.688539 C75.0106231,107.688539 74.552394,107.231247 74.552394,106.665622 C74.552394,106.099997 75.0106231,105.642706 75.5753106,105.642706 C76.1409356,105.642706 76.5979148,106.099997 76.5979148,106.665622 C76.5979148,107.231247 76.1409356,107.688539 75.5753106,107.688539" id="path64" fill="#FFFFFF"></path>
                        <path d="M76.5828106,102.717289 L76.5816648,102.717289 C74.2244773,102.717289 71.9702065,105.395831 71.1421857,108.089581 C71.9897899,108.487497 72.7901023,108.686456 73.527394,108.686456 C73.6776023,108.686456 73.822394,108.659372 73.969269,108.641664 C73.9758315,108.645831 73.978644,108.652081 73.9847898,108.658331 C75.4358314,108.485414 76.7516647,107.473956 77.9149981,105.647914 C77.9057272,105.629164 77.8938522,105.612497 77.8857272,105.592706 C77.8930189,105.609372 77.9036439,105.624997 77.9117689,105.642706 C78.2673939,105.083331 78.6133314,104.461456 78.9404147,103.750414 C78.2059355,103.063956 77.4137481,102.717289 76.5828106,102.717289 M72.8076023,111.748956 C74.2639565,111.428122 75.3402064,110.092706 76.3313523,108.534372 C74.6712481,109.702081 72.669269,109.836456 70.2315607,108.494789 C71.2869774,103.915206 76.0929148,99.4799975 79.818123,103.542081 C80.6152063,102.842185 81.5255188,102.448331 82.6432271,102.609893 C78.3911439,104.412497 77.2724981,112.899997 72.8076023,111.748956" id="path66" fill="#918F90"></path>
                        <path d="M99.5418725,108.657289 C98.0883309,108.485414 96.7729142,107.474997 95.6103101,105.647914 C96.0030184,104.744789 96.9010392,104.113747 97.9492684,104.113747 C99.3591642,104.113747 100.503747,105.255206 100.503747,106.665622 C100.503747,107.472914 100.126143,108.190622 99.5418725,108.657289" id="path68" fill="#231F20"></path>
                        <path d="M100.502497,106.666664 C100.502497,105.255206 99.3595808,104.113747 97.9492684,104.113747 C96.9014559,104.113747 96.0038518,104.745831 95.6098934,105.646872 C96.7720809,107.473956 98.0891642,108.485414 99.5410392,108.658331 C100.124893,108.190622 100.502497,107.472914 100.502497,106.666664 M102.695727,92.9276018 C103.019997,84.9922895 96.9987476,80.728748 96.9987476,80.728748 C96.9987476,80.728748 95.192081,76.2158314 89.1028103,76.2158314 C77.0263522,76.2158314 73.842394,82.8462479 69.1243733,85.9131229 C63.5730192,89.5203103 59.1577069,99.6537475 63.7479151,105.710414 C63.6576026,107.066664 63.6824984,110.420831 65.5846859,114.135414 C58.721561,118.780205 59.9951027,129.888538 63.5233317,131.105205 C64.6573942,131.49583 66.0298942,130.736455 66.5421858,130.061455 C69.7513524,125.835414 74.7607273,122.81458 76.6129148,119.023955 C76.6129148,119.023955 76.7044772,120.106247 76.0139564,121.234372 C81.8180188,123.807289 87.9130186,122.13958 89.4409353,115.785414 C89.5638519,118.669789 88.3324978,120.987497 86.1409353,122.29583 C91.0160394,122.81458 94.940206,119.938539 94.940206,119.938539 C94.940206,119.938539 94.5703101,120.878122 93.385831,121.428122 C95.5880184,124.036455 98.9152059,126.215622 101.926664,130.061455 C102.857289,131.251038 106.446872,132.751038 106.685414,127.476038 C106.994789,120.547914 103.383331,117.442705 102.754685,114.08333 C102.754685,114.08333 103.529893,111.496872 102.700622,108.792706 C101.007081,109.579164 99.528435,109.639581 98.2389559,109.116664 C99.1276017,110.416664 100.108643,111.468747 101.379372,111.748956 C98.6816642,112.444789 97.2054142,109.620831 95.5208309,106.880206 C95.1701018,106.417706 94.8360393,105.904164 94.5210393,105.339581 C93.679581,104.144268 92.7347893,103.114789 91.5441644,102.60906 C92.4910394,102.473539 93.2881227,102.736768 93.9949977,103.244268 C97.1932267,100.171352 101.074268,103.033018 102.71281,106.761456 C102.758747,106.623956 102.799477,106.487497 102.83281,106.352081 C102.063852,102.530935 97.5366642,97.8234351 93.473331,102.380727 C94.8856226,97.8714559 102.436143,99.1630184 102.918331,105.902081 C103.09531,104.754164 102.884893,103.824477 102.884893,103.824477 C105.719789,99.0055184 102.695727,92.9276018 102.695727,92.9276018 M103.471664,107.756247 C104.574997,110.483331 104.064893,113.233331 103.856247,114.110414 C104.077185,115.053122 104.577081,116.03958 105.151039,117.168747 C106.406247,119.63958 107.970831,122.71458 107.755206,127.521872 C107.563539,131.818747 105.267706,132.28333 104.288539,132.28333 C102.924372,132.28333 101.671143,131.473955 101.081143,130.723955 C99.4099975,128.584372 97.5870809,126.936455 95.9778101,125.480205 C94.7835393,124.399997 93.6531227,123.378122 92.6961435,122.27083 C88.8505186,123.934372 85.620102,123.33333 84.4808312,123.030205 C82.1520813,123.760414 79.133748,123.612497 75.6921856,122.260414 C74.6476023,123.471872 73.3952065,124.631247 72.1012482,125.829164 C70.4504149,127.354163 68.7435399,128.936455 67.3958316,130.710413 C66.8026025,131.491663 65.5090609,132.28333 64.1862484,132.28333 C63.8334359,132.28333 63.4932276,132.228122 63.1734359,132.118747 C61.409061,131.50833 60.1110402,129.309372 59.7045818,126.23333 C59.206561,122.466664 60.1318735,117.085414 64.2338526,113.799997 C62.7409359,110.483331 62.6065609,107.507289 62.6594776,106.034372 C60.9639568,103.602706 60.3882277,100.499685 60.9944776,97.0267684 C61.8318735,92.2310394 64.8648942,87.4023936 68.5399983,85.013852 C69.6533316,84.2899979 70.7137482,83.3190604 71.838019,82.2912479 C75.3182273,79.105623 79.6492688,75.1444773 89.1028103,75.1444773 C94.9763518,75.1444773 97.3026017,78.9245814 97.8584351,80.033748 C99.03156,80.9558313 103.959997,85.2774979 103.773956,92.7066643 C104.334372,93.9534352 106.486456,99.3632267 104.003956,104.024268 C104.095414,104.753122 104.166664,106.276039 103.471664,107.756247" id="path70" fill="#918F90"></path>
                        <path d="M99.9967683,108.686456 C99.84781,108.686456 99.7029142,108.659372 99.5572892,108.641664 C100.131039,108.174997 100.502497,107.464581 100.502497,106.665622 C100.502497,105.255206 99.3591642,104.113331 97.9492684,104.113331 C96.9038517,104.113331 96.0083309,104.741664 95.6136434,105.641664 C95.2576018,105.083331 94.9124976,104.462497 94.5857268,103.749581 C95.3193726,103.063539 96.1116643,102.716456 96.9424976,102.716456 C99.3001017,102.716456 101.554372,105.395831 102.383227,108.089581 C101.534789,108.486456 100.734477,108.686456 99.9967683,108.686456" id="path72" fill="#FFFFFF"></path>
                        <path d="M96.9266642,106.666664 C96.9266642,106.101039 97.3852059,105.643747 97.9495809,105.643747 C98.5152059,105.643747 98.9726017,106.101039 98.9726017,106.666664 C98.9726017,107.230206 98.5152059,107.688539 97.9495809,107.688539 C97.3852059,107.688539 96.9266642,107.230206 96.9266642,106.666664" id="path74" fill="#FFFFFF"></path>
                    </g>
                </g>
            </g>
        </g>
    </g>
</svg>