<?xml version="1.0" encoding="UTF-8"?>
<svg width="200px" height="200px" viewBox="0 0 200 200" version="1.1" xmlns="http://www.w3.org/2000/svg" xmlns:xlink="http://www.w3.org/1999/xlink">
    <!-- Generator: Sketch 54.1 (76490) - https://sketchapp.com -->
    <title>hawaii-hilo</title>
    <desc>Created with Sketch.</desc>
    <g id="hawaii-hilo" stroke="none" stroke-width="1" fill="none" fill-rule="evenodd">
        <g id="hawaii-hilo_BGL">
            <g id="hawaii-hilo" transform="translate(0.000000, 32.000000)">
                <g id="g10" transform="translate(99.877897, 67.902322) scale(-1, 1) rotate(-180.000000) translate(-99.877897, -67.902322) translate(0.000000, 0.258856)" fill-rule="nonzero">
                    <g id="g12">
                        <path d="M99.4036605,85.0568965 C93.5438316,87.4012188 87.7162371,87.8642225 82.1411457,87.1120857 C83.0778978,85.540413 83.7636121,83.6869332 83.9931603,81.3118417 L92.5709379,5.96097665 L127.976065,5.96097665 L171.11941,73.9184353 C176.235893,81.9619027 179.89792,86.2407793 183.171668,88.9641003 L164.633451,88.9641003 C164.321852,87.6341858 158.603171,77.8119639 156.010253,73.6605598 L124.074722,23.5994622 L124.070327,23.637069 C124.070327,23.637069 124.069838,23.6360922 124.069838,23.6366783 C119.676187,53.6595835 118.251035,77.5189236 99.4036605,85.0568965" id="path14" fill="#231F20"></path>
                        <path d="M171.11941,73.9184353 L127.976065,5.96097665 L92.5709379,5.96097665 L83.9931603,81.3118417 C83.7636121,83.6869332 83.0778978,85.540413 82.1411457,87.1120857 C87.7162371,87.8642225 93.5438316,87.4012188 99.4036605,85.0568965 C118.251035,77.5189236 119.676187,53.6595835 124.069838,23.6366783 C124.069838,23.6360922 124.070327,23.637069 124.070327,23.637069 L124.074722,23.5994622 L156.010253,73.6605598 C158.603171,77.8119639 164.321852,87.6341858 164.633451,88.9641003 L183.171668,88.9641003 C179.89792,86.2407793 176.235893,81.9619027 171.11941,73.9184353 L171.11941,73.9184353 Z M112.148959,120.82344 C165.257627,107.56874 128.034185,41.5115496 128.034185,41.5115496 C129.743586,57.668863 127.752378,69.3147724 123.910131,77.7064694 C122.471792,80.8473728 120.772158,83.5262494 118.911841,85.8212433 C117.987299,86.9626352 117.022708,88.0078122 116.029301,88.9641003 C113.385589,91.5096436 110.543587,93.4358951 107.723563,94.8830257 C98.0317436,99.8564078 88.627104,99.2429768 88.627104,99.2429768 C125.431987,109.280583 112.148959,120.82344 112.148959,120.82344 Z M159.93455,94.8830257 C159.93455,94.8830257 159.339679,91.510132 157.240045,87.4334532 C156.217823,85.4432213 154.268128,82.1045157 151.944319,78.3345524 C158.363854,98.684735 157.391449,121.581926 130.260803,134.812207 C130.260803,134.812207 140.118189,124.679362 137.802194,116.407811 C137.802194,116.407811 113.775333,144.363855 70.0380935,126.827836 C26.6197307,109.421243 22.1115501,108.861047 0,113.163856 C0,113.163856 14.5572158,98.1899853 52.7184358,107.42222 C89.2752114,116.265687 82.8239296,107.604881 66.5514025,97.3582393 C55.3211219,90.2866888 44.2021479,77.112086 41.5947242,61.5863232 C41.5947242,61.5863232 56.5025627,79.9799736 75.8339419,85.7401688 L76.260804,85.2175803 C77.3948699,83.8290577 77.9282032,82.5343081 78.1020737,80.7443203 L78.1054926,80.6930383 L78.1123302,80.6407794 L86.6901077,5.29035396 L87.2869331,0.0429258109 L131.229789,0.0429258109 L132.973379,2.78884486 L176.113793,70.7418786 C180.406345,77.4857123 181.858359,78.947495 186.956283,84.4131847 C192.055673,89.8778976 199.541875,94.8830257 199.541875,94.8830257 L159.93455,94.8830257 L159.93455,94.8830257 Z" id="path16" fill="#EE2722"></path>
                        <path d="M112.148959,120.82344 C112.148959,120.82344 125.431987,109.280583 88.627104,99.2429768 C88.627104,99.2429768 98.0317436,99.8564078 107.723563,94.8830257 C110.543587,93.4358951 113.385589,91.5096436 116.029301,88.9641003 C117.022708,88.0078122 117.987299,86.9626352 118.911841,85.8212433 C120.772158,83.5262494 122.471792,80.8473728 123.910131,77.7064694 C127.752378,69.3147724 129.743587,57.668863 128.034185,41.5115496 C128.034185,41.5115496 165.257627,107.56874 112.148959,120.82344" id="path18" fill="#FFFFFF"></path>
                        <polyline id="path20" fill="#231F20" points="136.091327 2.8039169 138.368251 2.8039169 138.368251 2.4679511 137.419288 2.4679511 137.419288 0 137.04029 0 137.04029 2.4679511 136.091327 2.4679511 136.091327 2.8039169"></polyline>
                        <path d="M141.028568,0 L141.028568,1.65578995 C141.028568,1.73782657 141.036382,2.09325514 141.036382,2.35500849 L141.028568,2.35500849 L140.239801,0 L139.865198,0 L139.075943,2.3511892 L139.068617,2.3511892 C139.068617,2.09325514 139.075943,1.73782657 139.075943,1.65578995 L139.075943,0 L138.708666,0 L138.708666,2.8039169 L139.252255,2.8039169 L140.052255,0.433646387 L140.060558,0.433646387 L140.857139,2.8039169 L141.395845,2.8039169 L141.395845,0 L141.028568,0" id="path22" fill="#231F20"></path>
                    </g>
                </g>
            </g>
        </g>
    </g>
</svg>