<?xml version="1.0" encoding="UTF-8"?>
<svg width="200px" height="200px" viewBox="0 0 200 200" version="1.1" xmlns="http://www.w3.org/2000/svg" xmlns:xlink="http://www.w3.org/1999/xlink">
    <!-- Generator: Sketch 55.2 (78181) - https://sketchapp.com -->
    <title>hendrix</title>
    <desc>Created with Sketch.</desc>
    <g id="hendrix" stroke="none" stroke-width="1" fill="none" fill-rule="evenodd">
        <g id="hendrix_BGL">
            <g id="Group-3" transform="translate(27.000000, 0.000000)">
                <polygon id="Fill-1" fill="#F5822A" points="15.0607595 31.8091139 0 87.8875949 14.1822785 113.482532 14.5417722 164.854684 54.9797468 199.563544 58.5240506 134.940759 55.4481013 110.907848 28.2911392 95.801519 22.5594937 76.8673418 65.8632911 92.6420253 65.8835443 119.087595 72.4987342 127.269873 72.8658228 127.697722 74.2654134 125.523631 74.9112897 2.07920943 72.8658228 0.00151898734"></polygon>
                <polygon id="Fill-2" fill="#000000" points="72.8544304 127.400506 72.8670886 127.696709 73.2797468 127.268861 79.9962025 119.134684 80.0189873 92.6891139 123.325316 76.9118987 117.591139 95.8435443 90.4341772 110.954937 87.3556962 134.982785 90.9025316 199.610633 131.340506 164.894177 131.697468 113.527089 145.879747 87.9296203 130.821519 31.8536709 72.8670886 0.000506329114"></polygon>
            </g>
        </g>
    </g>
</svg>