<?xml version="1.0" encoding="UTF-8"?>
<svg width="200px" height="200px" viewBox="0 0 200 200" version="1.1" xmlns="http://www.w3.org/2000/svg" xmlns:xlink="http://www.w3.org/1999/xlink">
    <!-- Generator: Sketch 54.1 (76490) - https://sketchapp.com -->
    <title>hiram</title>
    <desc>Created with Sketch.</desc>
    <g id="hiram" stroke="none" stroke-width="1" fill="none" fill-rule="evenodd">
        <g id="hiram_BGL">
            <g id="hiram" transform="translate(0.000000, 12.000000)">
                <g id="g10" transform="translate(99.999998, 88.564105) scale(-1, 1) rotate(-180.000000) translate(-99.999998, -88.564105) translate(0.000000, 0.219119)" fill-rule="nonzero">
                    <g id="g12">
                        <path d="M150.787875,78.7496484 L133.538458,94.5995314 L75.8013967,106.497433 C75.8013967,106.497433 71.0675973,80.1445201 70.6013968,79.4470843 C70.1351964,78.7496484 102.568762,27.7248944 102.568762,27.7248944 L164.05221,40.9566423 L150.787875,78.7496484" id="path14" fill="#133A73"></path>
                        <polyline id="path16" fill="#133A73" points="28.9150109 46.2745909 28.9150109 53.2223763 20.7078783 53.2223763 20.7078783 46.2745909 23.2256871 46.2745909 23.2256871 36.8083441 6.66083899 36.8083441 6.66083899 46.2745909 9.17776201 46.2745909 9.17776201 69.2839144 6.66083899 69.2839144 6.66083899 78.7496484 23.2256871 78.7496484 23.2256871 69.2839144 20.7078783 69.2839144 20.7078783 63.5440544 28.9150109 63.5440544 28.9150109 69.2839144 26.3978548 69.2839144 26.3978548 78.7496484 42.962936 78.7496484 42.962936 69.2839144 40.4448941 69.2839144 40.4448941 46.2745909 42.962936 46.2745909 42.962936 36.8083441 26.3978548 36.8083441 26.3978548 46.2745909 28.9150109 46.2745909"></polyline>
                        <path d="M33.8101157,41.7034488 L35.5497893,41.7034488 L35.5497893,73.8545436 L33.8101157,73.8545436 L33.8101157,58.6489496 L15.8127735,58.6489496 L15.8127735,73.8545436 L14.0728668,73.8545436 L14.0728668,41.7034488 L15.8127735,41.7034488 L15.8127735,58.1174811 L33.8101157,58.1174811 L33.8101157,41.7034488 Z M47.8578077,31.9132393 L1.76573422,31.9132393 L1.76573422,51.1696957 L4.28267122,51.1696957 L4.28267122,64.3888096 L1.76573422,64.3888096 L1.76573422,83.6447532 L47.8578077,83.6447532 L47.8578077,64.3888096 L45.3399989,64.3888096 L45.3399989,51.1696957 L47.8578077,51.1696957 L47.8578077,31.9132393 L47.8578077,31.9132393 Z" id="path18" fill="#133A73"></path>
                        <polyline id="path20" fill="#133A73" points="62.4475509 36.8083441 45.8827028 36.8083441 45.8827028 46.2751504 48.3995326 46.2751504 48.3995326 69.2839144 45.8827028 69.2839144 45.8827028 78.7496484 62.4475509 78.7496484 62.4475509 69.2839144 59.9300684 69.2839144 59.9300684 46.2751504 62.4475509 46.2751504 62.4475509 36.8083441"></polyline>
                        <path d="M53.2946374,41.7034488 L55.0349637,41.7034488 L55.0349637,73.8545436 L53.2946374,73.8545436 L53.2946374,41.7034488 Z M67.3426557,31.9132393 L40.987598,31.9132393 L40.987598,51.1701619 L43.5047075,51.1701619 L43.5047075,64.3888096 L40.987598,64.3888096 L40.987598,83.6447532 L67.3426557,83.6447532 L67.3426557,64.3888096 L64.8251732,64.3888096 L64.8251732,51.1701619 L67.3426557,51.1701619 L67.3426557,31.9132393 L67.3426557,31.9132393 Z" id="path22" fill="#133A73"></path>
                        <path d="M79.4153826,46.2745909 L81.9328651,46.2745909 L81.9328651,36.8083441 L65.3678305,36.8083441 L65.3678305,46.2745909 L67.885313,46.2745909 L67.885313,69.2839144 L65.3678305,69.2839144 L65.3678305,78.7496484 L91.3482495,78.7496484 L98.0447528,72.0195786 L98.0447528,61.3216768 L95.2755221,58.5599053 L98.0447528,55.8410242 L98.0447528,46.2745909 L100.562235,46.2745909 L100.562235,36.8083441 L86.5146832,36.8083441 L86.5146832,52.4172481 L85.1552426,53.7766886 L79.4153826,53.7766886 L79.4153826,46.2745909 Z M79.4153826,63.2424227 L85.1552426,63.2424227 L86.5146832,64.5902082 L86.5146832,67.9356626 L85.1552426,69.2839144 L79.4153826,69.2839144 L79.4153826,63.2424227 L79.4153826,63.2424227 Z" id="path24" fill="#133A73"></path>
                        <path d="M72.7804178,41.7034488 L74.5202779,41.7034488 L74.5202779,73.8545436 L72.7804178,73.8545436 L72.7804178,41.7034488 Z M91.4097879,41.7034488 L93.149648,41.7034488 L93.149648,53.786945 L88.3156155,58.5328657 L93.149648,63.3533784 L93.149648,69.9990658 L89.3137507,73.8545436 L87.4983661,73.8545436 L91.4097879,69.9748234 L91.4097879,62.550115 L87.3393918,58.5151501 L91.4097879,54.4447539 L91.4097879,41.7034488 Z M105.45734,31.9132393 L60.4727258,31.9132393 L60.4727258,51.1696957 L62.9902082,51.1696957 L62.9902082,64.3888096 L60.4727258,64.3888096 L60.4727258,83.6447532 L93.3827482,83.6447532 L102.939858,74.0400914 L102.939858,59.2904414 L102.234962,58.5874111 L102.939858,57.8955696 L102.939858,51.1696957 L105.45734,51.1696957 L105.45734,31.9132393 L105.45734,31.9132393 Z" id="path26" fill="#133A73"></path>
                        <path d="M135.655474,78.7496484 L135.655474,69.2839144 L133.541255,69.2839144 L142.754775,46.2745909 L145.272724,46.2745909 L145.272724,36.8083441 L129.159904,36.8083441 L129.159904,46.2745909 L130.519344,46.2745909 L129.915148,48.1370617 L118.787876,48.1370617 L118.133797,46.2745909 L119.493237,46.2745909 L119.493237,36.8083441 L103.432165,36.8083441 L103.432165,46.2745909 L105.948715,46.2745909 L115.163633,69.2839144 L113.350114,69.2839144 L113.350114,78.7496484 L135.655474,78.7496484 Z M121.658738,56.1930056 L126.995801,56.1930056 L124.326337,62.8391593 L121.658738,56.1930056 Z" id="path28" fill="#133A73"></path>
                        <path d="M109.391139,41.7034488 L111.339857,41.7034488 L114.71002,51.2979008 L114.418645,51.2979008 L123.473657,73.8545436 L122.26713,73.8545436 L109.391139,41.7034488 Z M137.148248,41.7034488 L139.312351,41.7034488 L126.437759,73.8545436 L125.177153,73.8545436 L134.236826,51.2979008 L134.035894,51.2979008 L137.148248,41.7034488 Z M150.167828,31.9132393 L98.5370605,31.9132393 L98.5370605,51.1696957 L102.636361,51.1696957 L108.455009,65.6997653 L108.455009,83.6447532 L140.550579,83.6447532 L140.550579,64.9473177 L146.068062,51.1696957 L150.167828,51.1696957 L150.167828,31.9132393 L150.167828,31.9132393 Z" id="path30" fill="#133A73"></path>
                        <polyline id="path32" fill="#133A73" points="170.69883 41.9944512 161.535194 57.1496489 161.535194 46.2751504 164.05221 46.2751504 164.05221 36.8083441 147.487642 36.8083441 147.487642 46.2751504 150.004192 46.2751504 150.004192 69.2839144 147.487642 69.2839144 147.487642 78.7496484 160.980416 78.7496484 170.69883 62.5370614 180.416313 78.7496484 193.909552 78.7496484 193.909552 69.2839144 191.392536 69.2839144 191.392536 46.2751504 193.909552 46.2751504 193.909552 36.8083441 177.344984 36.8083441 177.344984 46.2751504 179.861534 46.2751504 179.861534 57.1496489 170.69883 41.9944512"></polyline>
                        <path d="M157.154308,73.8545436 L170.69883,51.4554766 L184.241487,73.8545436 L183.189273,73.8545436 L170.69883,53.0153833 L158.207455,73.8545436 L157.154308,73.8545436 Z M154.899297,41.7034488 L156.640089,41.7034488 L156.640089,73.8545436 L154.899297,73.8545436 L154.899297,41.7034488 Z M184.756639,41.7034488 L186.497431,41.7034488 L186.497431,73.8545436 L184.756639,73.8545436 L184.756639,41.7034488 Z M198.804657,31.9132393 L172.449879,31.9132393 L172.449879,35.4294164 L170.69883,32.5333325 L168.947315,35.4303021 L168.947315,31.9132393 L142.592537,31.9132393 L142.592537,51.1701619 L145.109087,51.1701619 L145.109087,64.3888096 L142.592537,64.3888096 L142.592537,83.6447532 L163.753376,83.6447532 L170.69883,72.0582733 L177.642886,83.6447532 L198.804657,83.6447532 L198.804657,64.3888096 L196.287641,64.3888096 L196.287641,51.1701619 L198.804657,51.1701619 L198.804657,31.9132393 L198.804657,31.9132393 Z" id="path34" fill="#133A73"></path>
                        <polyline id="path36" fill="#133A73" points="31.1312813 25.6503024 24.6199528 25.6503024 25.1409318 27.3566893 23.4001859 27.3566893 18.5344051 11.4419578 20.275524 11.4419578 18.2741254 4.89510477 6.78247069 4.89510477 8.78386924 11.4419578 10.5596268 11.4419578 15.4248481 27.3566893 13.6494635 27.3566893 13.1281116 25.6503024 6.61547769 25.6503024 9.13916061 33.9034957 33.6547777 33.9034957 31.1312813 25.6503024"></polyline>
                        <polyline id="path38" fill="#133A73" points="21.8966894 0 0.167358504 0 5.16153833 16.3370625 6.93748234 16.3370625 8.28797182 20.7551976 0 20.7551976 5.51701618 38.7986004 40.2704419 38.7986004 34.7534257 20.7551976 26.5006054 20.7551976 25.1498828 16.3370625 26.8908618 16.3370625 21.8966894 0"></polyline>
                        <polyline id="path40" fill="#133A73" points="37.9656401 11.4419578 43.0496027 11.4419578 43.4012577 12.5910486 49.9482505 12.5910486 47.5948706 4.89510477 26.2483443 4.89510477 28.2497429 11.4419578 29.9909083 11.4419578 34.8563161 27.3570623 33.1155236 27.3570623 35.1172952 33.9038686 56.4643343 33.9038686 54.1212108 26.242004 47.5743578 26.242004 47.9151503 27.3570623 42.8310945 27.3570623 41.4049873 22.6899295 42.5884838 22.6899295 42.9288567 23.8046148 49.4410244 23.8046148 46.7477844 14.9939856 40.2358498 14.9939856 40.5867589 16.1431231 39.4030293 16.1431231 37.9656401 11.4419578"></polyline>
                        <polyline id="path42" fill="#133A73" points="51.2172481 0 19.6332396 0 24.627412 16.3370625 26.3685308 16.3370625 28.2410249 22.4619575 26.4998595 22.4619575 31.4951041 38.7989734 63.0797187 38.7989734 57.7431221 21.3468992 53.8083903 21.3468992 52.6284369 17.4861534 56.5636349 17.4861534 51.2172481 0"></polyline>
                        <path d="M61.2624693,11.4419578 L63.0032618,11.4419578 L61.0018633,4.89510477 L49.5449871,4.89510477 L51.5463857,11.4419578 L53.2876444,11.4419578 L58.1529123,27.3570623 L56.4121198,27.3570623 L58.4139846,33.9038686 L76.3827487,33.9038686 L79.5911402,29.2480645 L77.3291356,21.8495099 L74.829835,19.9393468 L76.1701613,18.0583678 L74.1473175,11.4419578 L75.88811,11.4419578 L73.8867114,4.89510477 L64.171094,4.89510477 L67.471327,15.6903959 L66.8181801,16.6307688 L62.8489495,16.6307688 L61.2624693,11.4419578 Z M64.850348,23.1776218 L68.8200449,23.1776218 L70.0461521,24.1105821 L70.752912,26.4237289 L70.0974341,27.3570623 L66.1282035,27.3570623 L64.850348,23.1776218 L64.850348,23.1776218 Z" id="path44" fill="#133A73"></path>
                        <polyline id="path46" fill="#133A73" points="77.509089 0 42.9301621 0 47.9240081 16.3370625 49.6652668 16.3370625 51.537994 22.4619575 49.7967354 22.4619575 54.7920732 38.7989734 78.9543104 38.7989734 84.9641004 30.0788337 81.5566413 18.9343119 81.5566413 18.9343119 80.7627019 16.3370625 82.5034944 16.3370625 77.509089 0"></polyline>
                        <path d="M87.5193451,11.4419578 L89.2596714,11.4419578 L87.2582729,4.89510477 L75.8018629,4.89510477 L77.8032615,11.4419578 L79.5445202,11.4419578 L84.4097881,27.3570623 L82.6689956,27.3570623 L84.6708604,33.9038686 L102.639624,33.9038686 L105.84755,29.2480645 L103.586011,21.8495099 L101.086711,19.9393468 L102.427037,18.0583678 L100.404193,11.4419578 L102.14452,11.4419578 L100.143121,4.89510477 L90.4275036,4.89510477 L93.7277366,15.6903959 L93.0750559,16.6307688 L89.1053591,16.6307688 L87.5193451,11.4419578 Z M91.1067576,23.1776218 L95.0764545,23.1776218 L96.3030279,24.1105821 L97.0093216,26.4237289 L96.3538437,27.3570623 L92.3846131,27.3570623 L91.1067576,23.1776218 L91.1067576,23.1776218 Z" id="path48" fill="#133A73"></path>
                        <polyline id="path50" fill="#133A73" points="103.765499 0 69.1864785 0 74.1808839 16.3370625 75.9221426 16.3370625 77.7944036 22.4619575 76.053145 22.4619575 81.048949 38.7989734 105.21072 38.7989734 111.22051 30.0788337 107.019112 16.3370625 108.759904 16.3370625 103.765499 0"></polyline>
                        <polyline id="path52" fill="#133A73" points="113.516081 4.89510477 102.059205 4.89510477 104.060137 11.4419578 105.80093 11.4419578 110.666664 27.3570623 108.925405 27.3570623 110.92727 33.9038686 122.384146 33.9038686 120.382281 27.3570623 118.641489 27.3570623 113.776221 11.4419578 115.51748 11.4419578 113.516081 4.89510477"></polyline>
                        <polyline id="path54" fill="#133A73" points="117.137992 0 95.4438205 0 100.438226 16.3370625 102.178552 16.3370625 104.051279 22.4619575 102.310021 22.4619575 107.304892 38.7989734 128.999997 38.7989734 124.004659 22.4619575 122.2634 22.4619575 120.391605 16.3370625 122.132398 16.3370625 117.137992 0"></polyline>
                        <polyline id="path56" fill="#133A73" points="127.183214 11.4419578 132.266663 11.4419578 132.618179 12.5910486 139.165031 12.5910486 136.812118 4.89510477 115.465265 4.89510477 117.466664 11.4419578 119.208389 11.4419578 124.07319 27.3570623 122.332864 27.3570623 124.334729 33.9038686 145.681581 33.9038686 143.338458 26.242004 136.791605 26.242004 137.132864 27.3570623 132.048482 27.3570623 130.622374 22.6899295 131.805591 22.6899295 132.14685 23.8046148 138.658272 23.8046148 135.965498 14.9939856 129.452677 14.9939856 129.803726 16.1431231 128.62051 16.1431231 127.183214 11.4419578"></polyline>
                        <polyline id="path58" fill="#133A73" points="140.434495 0 108.850347 0 113.844752 16.3370625 115.586011 16.3370625 117.458272 22.4619575 115.717013 22.4619575 120.712351 38.7989734 152.296966 38.7989734 146.960835 21.3468992 143.026104 21.3468992 141.845684 17.4861534 145.780416 17.4861534 140.434495 0"></polyline>
                        <path d="M150.480183,11.4419578 L152.220509,11.4419578 L150.21911,4.89510477 L138.762234,4.89510477 L140.763633,11.4419578 L142.504892,11.4419578 L147.370159,27.3570623 L145.629367,27.3570623 L147.631232,33.9038686 L165.599996,33.9038686 L168.808387,29.2480645 L166.546849,21.8495099 L164.047082,19.9393468 L165.387408,18.0583678 L163.364565,11.4419578 L165.105357,11.4419578 L163.103959,4.89510477 L153.388341,4.89510477 L156.688574,15.6903959 L156.035894,16.6307688 L152.066197,16.6307688 L150.480183,11.4419578 Z M154.067595,23.1776218 L158.037758,23.1776218 L159.263865,24.1105821 L159.970159,26.4237289 L159.314681,27.3570623 L155.345451,27.3570623 L154.067595,23.1776218 L154.067595,23.1776218 Z" id="path60" fill="#133A73"></path>
                        <polyline id="path62" fill="#133A73" points="166.72587 0 132.147316 0 137.141255 16.3370625 138.88298 16.3370625 140.754775 22.4619575 139.013983 22.4619575 144.00932 38.7989734 168.171558 38.7989734 174.181348 30.0788337 169.979949 16.3370625 171.720275 16.3370625 166.72587 0"></polyline>
                        <polyline id="path64" fill="#133A73" points="181.599995 16.0737059 173.067595 16.0737059 169.849879 20.6960368 172.463399 29.2456869 178.519343 33.9034957 191.299762 33.9034957 194.509086 29.2526333 192.76876 23.560792 184.794401 23.560792 185.670392 26.4251742 185.048946 27.3566893 180.800462 27.3566893 179.574821 26.423356 178.687641 23.5192535 179.352909 22.6199994 187.849879 22.6199994 191.054541 17.9543585 188.478783 9.52689953 182.430765 4.89566421 169.650345 4.89566421 166.434961 9.52689953 168.138457 15.0988807 176.113282 15.0988807 175.282513 12.3823773 175.935194 11.4419578 180.184145 11.4419578 181.365963 12.3468528 182.217711 15.1332863 181.599995 16.0737059"></polyline>
                        <polyline id="path66" fill="#133A73" points="184.089972 0.000546330989 167.089506 0.000546330989 161.05967 8.68624687 168.239623 32.1729129 176.855007 38.7986004 193.869459 38.7986004 199.882512 30.0848477 196.425636 18.7798597 196.425636 18.7798597 192.701161 6.59435881 184.089972 0.000546330989"></polyline>
                        <polyline id="path68" fill="#FFFFFF" points="28.9150109 46.2745909 28.9150109 53.2223763 20.7078783 53.2223763 20.7078783 46.2745909 23.2256871 46.2745909 23.2256871 36.8083441 6.66083899 36.8083441 6.66083899 46.2745909 9.17776201 46.2745909 9.17776201 69.2839144 6.66083899 69.2839144 6.66083899 78.7496484 23.2256871 78.7496484 23.2256871 69.2839144 20.7078783 69.2839144 20.7078783 63.5440544 28.9150109 63.5440544 28.9150109 69.2839144 26.3978548 69.2839144 26.3978548 78.7496484 42.962936 78.7496484 42.962936 69.2839144 40.4448941 69.2839144 40.4448941 46.2745909 42.962936 46.2745909 42.962936 36.8083441 26.3978548 36.8083441 26.3978548 46.2745909 28.9150109 46.2745909"></polyline>
                        <path d="M23.0388805,65.8750566 L26.5840087,65.8750566 L26.5840087,66.9529121 L23.0388805,66.9529121 L23.0388805,65.8750566 Z M25.5566893,48.6055932 L26.5840087,48.6055932 L26.5840087,50.891374 L23.0388805,50.891374 L23.0388805,48.6055932 L25.5566893,48.6055932 Z M28.7288571,39.1393463 L40.6319337,39.1393463 L40.6319337,43.9435886 L38.1138918,43.9435886 L38.1138918,71.6149166 L40.6319337,71.6149166 L40.6319337,76.4186461 L28.7288571,76.4186461 L28.7288571,71.6149166 L31.2460132,71.6149166 L31.2460132,61.2130521 L18.376876,61.2130521 L18.376876,71.6149166 L20.8946848,71.6149166 L20.8946848,76.4186461 L8.99184127,76.4186461 L8.99184127,71.6149166 L11.5087643,71.6149166 L11.5087643,43.9435886 L8.99184127,43.9435886 L8.99184127,39.1393463 L20.8946848,39.1393463 L20.8946848,43.9435886 L18.376876,43.9435886 L18.376876,55.5533786 L31.2460132,55.5533786 L31.2460132,43.9435886 L28.7288571,43.9435886 L28.7288571,39.1393463 Z M45.2939383,34.4773418 L4.32983672,34.4773418 L4.32983672,48.6055932 L6.84675974,48.6055932 L6.84675974,66.9529121 L4.32983672,66.9529121 L4.32983672,81.0806507 L45.2939383,81.0806507 L45.2939383,66.9529121 L42.7758964,66.9529121 L42.7758964,48.6055932 L45.2939383,48.6055932 L45.2939383,34.4773418 L45.2939383,34.4773418 Z" id="path70" fill="#FFFFFF"></path>
                        <polyline id="path72" fill="#FFFFFF" points="62.4475509 36.8083441 45.8827028 36.8083441 45.8827028 46.2751504 48.3995326 46.2751504 48.3995326 69.2839144 45.8827028 69.2839144 45.8827028 78.7496484 62.4475509 78.7496484 62.4475509 69.2839144 59.9300684 69.2839144 59.9300684 46.2751504 62.4475509 46.2751504 62.4475509 36.8083441"></polyline>
                        <path d="M48.2135186,39.1393463 L60.1165486,39.1393463 L60.1165486,43.9441481 L57.5990662,43.9441481 L57.5990662,71.6149166 L60.1165486,71.6149166 L60.1165486,76.4186461 L48.2135186,76.4186461 L48.2135186,71.6149166 L50.7305349,71.6149166 L50.7305349,43.9441481 L48.2135186,43.9441481 L48.2135186,39.1393463 Z M64.7785532,34.4773418 L43.5517005,34.4773418 L43.5517005,48.6060594 L46.06881,48.6060594 L46.06881,66.9529121 L43.5517005,66.9529121 L43.5517005,81.0806507 L64.7785532,81.0806507 L64.7785532,66.9529121 L62.2610707,66.9529121 L62.2610707,48.6060594 L64.7785532,48.6060594 L64.7785532,34.4773418 L64.7785532,34.4773418 Z" id="path74" fill="#FFFFFF"></path>
                        <path d="M79.4153826,46.2745909 L81.9328651,46.2745909 L81.9328651,36.8083441 L65.3678305,36.8083441 L65.3678305,46.2745909 L67.885313,46.2745909 L67.885313,69.2839144 L65.3678305,69.2839144 L65.3678305,78.7496484 L91.3482495,78.7496484 L98.0447528,72.0195786 L98.0447528,61.3216768 L95.2755221,58.5599053 L98.0447528,55.8410242 L98.0447528,46.2745909 L100.562235,46.2745909 L100.562235,36.8083441 L86.5146832,36.8083441 L86.5146832,52.4172481 L85.1552426,53.7766886 L79.4153826,53.7766886 L79.4153826,46.2745909 Z M79.4153826,63.2424227 L85.1552426,63.2424227 L86.5146832,64.5902082 L86.5146832,67.9356626 L85.1552426,69.2839144 L79.4153826,69.2839144 L79.4153826,63.2424227 L79.4153826,63.2424227 Z" id="path76" fill="#FFFFFF"></path>
                        <path d="M81.7463849,65.5734249 L84.1836809,65.5734249 L84.1836809,66.9529121 L81.7463849,66.9529121 L81.7463849,65.5734249 Z M86.1146832,60.9114204 L77.0843804,60.9114204 L77.0843804,71.6149166 L86.1151494,71.6149166 L88.8456854,68.9067582 L88.8456854,63.6186464 L86.1146832,60.9114204 Z M81.7463849,48.6055932 L84.1836809,48.6055932 L84.1836809,51.4456864 L81.7463849,51.4456864 L81.7463849,48.6055932 Z M88.8456854,39.1393463 L98.231233,39.1393463 L98.231233,43.9435886 L95.7137505,43.9435886 L95.7137505,54.8634019 L91.9613031,58.5473179 L95.7137505,62.2890427 L95.7137505,71.0578071 L90.3794849,76.4186461 L67.6988328,76.4186461 L67.6988328,71.6149166 L70.2163153,71.6149166 L70.2163153,43.9435886 L67.6988328,43.9435886 L67.6988328,39.1393463 L79.6018628,39.1393463 L79.6018628,43.9435886 L77.0843804,43.9435886 L77.0843804,56.1076909 L86.1207438,56.1076909 L88.8456854,53.3827492 L88.8456854,39.1393463 Z M102.893238,34.4773418 L63.0368283,34.4773418 L63.0368283,48.6055932 L65.5543107,48.6055932 L65.5543107,66.9529121 L63.0368283,66.9529121 L63.0368283,81.0806507 L92.317014,81.0806507 L100.375755,72.9818164 L100.375755,60.3543108 L98.5892749,58.5729589 L100.375755,56.8191128 L100.375755,48.6055932 L102.893238,48.6055932 L102.893238,34.4773418 L102.893238,34.4773418 Z" id="path78" fill="#FFFFFF"></path>
                        <path d="M135.655474,78.7496484 L135.655474,69.2839144 L133.541255,69.2839144 L142.754775,46.2745909 L145.272724,46.2745909 L145.272724,36.8083441 L129.159904,36.8083441 L129.159904,46.2745909 L130.519344,46.2745909 L129.915148,48.1370617 L118.787876,48.1370617 L118.133797,46.2745909 L119.493237,46.2745909 L119.493237,36.8083441 L103.432165,36.8083441 L103.432165,46.2745909 L105.948715,46.2745909 L115.163633,69.2839144 L113.350114,69.2839144 L113.350114,78.7496484 L135.655474,78.7496484 Z M121.658738,56.1930056 L126.995801,56.1930056 L124.326337,62.8391593 L121.658738,56.1930056 Z" id="path80" fill="#FFFFFF"></path>
                        <path d="M130.44382,53.8620033 L118.211186,53.8620033 L124.325871,69.0951032 L130.44382,53.8620033 Z M131.490906,39.1393463 L142.941721,39.1393463 L142.941721,43.9435886 L141.177619,43.9435886 L130.096966,71.6149166 L133.324472,71.6149166 L133.324472,76.4186461 L115.681116,76.4186461 L115.681116,71.6149166 L118.608389,71.6149166 L107.526338,43.9435886 L105.763168,43.9435886 L105.763168,39.1393463 L117.162235,39.1393463 L117.162235,43.9435886 L114.844286,43.9435886 L117.136128,50.468064 L131.609787,50.468064 L133.725871,43.9435886 L131.490906,43.9435886 L131.490906,39.1393463 Z M147.603726,34.4773418 L126.828901,34.4773418 L126.828901,45.8060128 L121.824239,45.8060128 L121.824239,34.4773418 L101.101163,34.4773418 L101.101163,48.6055932 L104.371093,48.6055932 L111.718878,66.9529121 L111.019111,66.9529121 L111.019111,81.0806507 L137.986477,81.0806507 L137.986477,66.9529121 L136.985078,66.9529121 L144.332397,48.6055932 L147.603726,48.6055932 L147.603726,34.4773418 L147.603726,34.4773418 Z" id="path82" fill="#FFFFFF"></path>
                        <polyline id="path84" fill="#FFFFFF" points="170.69883 41.9944512 161.535194 57.1496489 161.535194 46.2751504 164.05221 46.2751504 164.05221 36.8083441 147.487642 36.8083441 147.487642 46.2751504 150.004192 46.2751504 150.004192 69.2839144 147.487642 69.2839144 147.487642 78.7496484 160.980416 78.7496484 170.69883 62.5370614 180.416313 78.7496484 193.909552 78.7496484 193.909552 69.2839144 191.392536 69.2839144 191.392536 46.2751504 193.909552 46.2751504 193.909552 36.8083441 177.344984 36.8083441 177.344984 46.2751504 179.861534 46.2751504 179.861534 57.1496489 170.69883 41.9944512"></polyline>
                        <path d="M163.866196,48.6060594 L163.977152,48.6060594 L163.866196,48.7892762 L163.866196,48.6060594 Z M177.420042,48.6060594 L177.530532,48.6060594 L177.530532,48.78881 L177.420042,48.6060594 Z M179.675986,39.1393463 L191.57855,39.1393463 L191.57855,43.9441481 L189.061534,43.9441481 L189.061534,71.6149166 L191.57855,71.6149166 L191.57855,76.4186461 L181.736592,76.4186461 L170.69883,58.0027958 L159.660136,76.4186461 L149.818644,76.4186461 L149.818644,71.6149166 L152.335194,71.6149166 L152.335194,43.9441481 L149.818644,43.9441481 L149.818644,39.1393463 L161.721208,39.1393463 L161.721208,43.9441481 L159.204192,43.9441481 L159.204192,65.5100217 L170.69883,46.4992995 L182.192536,65.5100217 L182.192536,43.9441481 L179.675986,43.9441481 L179.675986,39.1393463 Z M196.240555,34.4773418 L175.013982,34.4773418 L175.013982,44.6264791 L170.69883,37.4894163 L166.383213,44.6264791 L166.383213,34.4773418 L145.15664,34.4773418 L145.15664,48.6060594 L147.67319,48.6060594 L147.67319,66.9529121 L145.15664,66.9529121 L145.15664,81.0806507 L162.300695,81.0806507 L170.69883,67.0708608 L179.096033,81.0806507 L196.240555,81.0806507 L196.240555,66.9529121 L193.723538,66.9529121 L193.723538,48.6060594 L196.240555,48.6060594 L196.240555,34.4773418 L196.240555,34.4773418 Z" id="path86" fill="#FFFFFF"></path>
                        <polyline id="path88" fill="#FFFFFF" points="31.1312813 25.6503024 24.6199528 25.6503024 25.1409318 27.3566893 23.4001859 27.3566893 18.5344051 11.4419578 20.275524 11.4419578 18.2741254 4.89510477 6.78247069 4.89510477 8.78386924 11.4419578 10.5596268 11.4419578 15.4248481 27.3566893 13.6494635 27.3566893 13.1281116 25.6503024 6.61547769 25.6503024 9.13916061 33.9034957 33.6547777 33.9034957 31.1312813 25.6503024"></polyline>
                        <path d="M9.9324473,7.22610705 L16.5493702,7.22610705 L17.125594,9.11095548 L15.3840556,9.11095548 L21.6754307,29.6876916 L28.289976,29.6876916 L27.768997,27.9813047 L29.4063396,27.9813047 L30.5044281,31.5724934 L10.8639158,31.5724934 L9.76582726,27.9813047 L11.4029834,27.9813047 L11.9245218,29.6876916 L18.5750112,29.6876916 L12.284382,9.11095548 L10.5086244,9.11095548 L9.9324473,7.22610705 Z M19.9990671,2.5641025 L3.63235888,2.5641025 L7.05892756,13.77296 L8.83487157,13.77296 L11.7531466,23.3193001 L3.46536122,23.3193001 L7.41440541,36.2344979 L36.8050807,36.2344979 L32.8560365,23.3193001 L24.6031695,23.3193001 L21.6847081,13.77296 L23.4256404,13.77296 L19.9990671,2.5641025 L19.9990671,2.5641025 Z" id="path90" fill="#FFFFFF"></path>
                        <polyline id="path92" fill="#FFFFFF" points="37.9656401 11.4419578 43.0496027 11.4419578 43.4012577 12.5910486 49.9482505 12.5910486 47.5948706 4.89510477 26.2483443 4.89510477 28.2497429 11.4419578 29.9909083 11.4419578 34.8563161 27.3570623 33.1155236 27.3570623 35.1172952 33.9038686 56.4643343 33.9038686 54.1212108 26.242004 47.5743578 26.242004 47.9151503 27.3570623 42.8310945 27.3570623 41.4049873 22.6899295 42.5884838 22.6899295 42.9288567 23.8046148 49.4410244 23.8046148 46.7477844 14.9939856 40.2358498 14.9939856 40.5867589 16.1431231 39.4030293 16.1431231 37.9656401 11.4419578"></polyline>
                        <path d="M29.3985074,7.22610705 L45.8703019,7.22610705 L46.7976678,10.2600464 L45.1256399,10.2600464 L44.7737984,9.11095548 L34.8155236,9.11095548 L37.6782741,18.4741254 L43.7361761,18.4741254 L43.3850339,17.3249879 L45.0229359,17.3249879 L46.291141,21.4736125 L44.6547308,21.4736125 L44.3143579,20.3589272 L38.2550107,20.3589272 L41.1059663,29.6880645 L51.0652668,29.6880645 L50.7244743,28.5730063 L52.3967353,28.5730063 L53.3137516,31.5728663 L36.8422368,31.5728663 L36.2656401,29.6880645 L38.0062461,29.6880645 L31.71585,9.11095548 L29.9744981,9.11095548 L29.3985074,7.22610705 Z M49.3198123,2.5641025 L23.0984143,2.5641025 L26.5249877,13.77296 L28.2661531,13.77296 L31.7061997,25.02606 L29.9652207,25.02606 L33.39254,36.2348709 L59.6144507,36.2348709 L55.8461524,23.9110017 L51.9109544,23.9110017 L49.1636351,14.9220509 L53.098367,14.9220509 L49.3198123,2.5641025 L49.3198123,2.5641025 Z" id="path94" fill="#FFFFFF"></path>
                        <path d="M61.2624693,11.4419578 L63.0032618,11.4419578 L61.0018633,4.89510477 L49.5449871,4.89510477 L51.5463857,11.4419578 L53.2876444,11.4419578 L58.1529123,27.3570623 L56.4121198,27.3570623 L58.4139846,33.9038686 L76.3827487,33.9038686 L79.5911402,29.2480645 L77.3291356,21.8495099 L74.829835,19.9393468 L76.1701613,18.0583678 L74.1473175,11.4419578 L75.88811,11.4419578 L73.8867114,4.89510477 L64.171094,4.89510477 L67.471327,15.6903959 L66.8181801,16.6307688 L62.8489495,16.6307688 L61.2624693,11.4419578 Z M64.850348,23.1776218 L68.8200449,23.1776218 L70.0461521,24.1105821 L70.752912,26.4237289 L70.0974341,27.3570623 L66.1282035,27.3570623 L64.850348,23.1776218 L64.850348,23.1776218 Z" id="path96" fill="#FFFFFF"></path>
                        <path d="M69.6060589,20.8466195 L61.7002316,20.8466195 L64.403728,29.6880645 L71.3090891,29.6880645 L73.3151497,26.8316543 L72.0559423,22.7105356 L69.6060589,20.8466195 Z M64.413052,13.77296 L64.4475508,13.77296 L64.60839,14.2997665 L64.5738912,14.2997665 L64.413052,13.77296 Z M67.3212104,7.22610705 L72.162236,7.22610705 L72.7379935,9.11095548 L70.9976672,9.11095548 L73.6051264,17.6414914 L71.6233082,20.4232163 L75.3188792,23.2469924 L77.0326321,28.8527266 L75.1585063,31.5728663 L60.1389262,31.5728663 L59.5627025,29.6880645 L61.3030288,29.6880645 L55.012586,9.11095548 L53.2713273,9.11095548 L52.6951036,7.22610705 L59.2769216,7.22610705 L59.8531454,9.11095548 L58.1123529,9.11095548 L61.1240078,18.9617711 L68.0372943,18.9617711 L70.0312337,16.0913749 L67.3212104,7.22610705 Z M75.6116531,2.5641025 L46.3951504,2.5641025 L49.8219102,13.77296 L51.5631689,13.77296 L55.0027958,25.02606 L53.2620033,25.02606 L56.6895091,36.2348709 L77.6074573,36.2348709 L82.1496483,29.6437755 L79.339392,20.4517944 L78.0363617,19.4560368 L78.7351962,18.4755706 L77.297434,13.77296 L79.0382265,13.77296 L75.6116531,2.5641025 L75.6116531,2.5641025 Z" id="path98" fill="#FFFFFF"></path>
                        <path d="M87.5193451,11.4419578 L89.2596714,11.4419578 L87.2582729,4.89510477 L75.8018629,4.89510477 L77.8032615,11.4419578 L79.5445202,11.4419578 L84.4097881,27.3570623 L82.6689956,27.3570623 L84.6708604,33.9038686 L102.639624,33.9038686 L105.84755,29.2480645 L103.586011,21.8495099 L101.086711,19.9393468 L102.427037,18.0583678 L100.404193,11.4419578 L102.14452,11.4419578 L100.143121,4.89510477 L90.4275036,4.89510477 L93.7277366,15.6903959 L93.0750559,16.6307688 L89.1053591,16.6307688 L87.5193451,11.4419578 Z M91.1067576,23.1776218 L95.0764545,23.1776218 L96.3030279,24.1105821 L97.0093216,26.4237289 L96.3538437,27.3570623 L92.3846131,27.3570623 L91.1067576,23.1776218 L91.1067576,23.1776218 Z" id="path100" fill="#FFFFFF"></path>
                        <path d="M95.8624685,20.8466195 L87.9566412,20.8466195 L90.6592052,29.6880645 L97.5650325,29.6880645 L99.5715593,26.8316543 L98.3123519,22.7105356 L95.8624685,20.8466195 Z M90.6694616,13.77296 L90.7044266,13.77296 L90.8652658,14.2997665 L90.8303008,14.2997665 L90.6694616,13.77296 Z M93.57762,7.22610705 L98.4181794,7.22610705 L98.9944031,9.11095548 L97.2540768,9.11095548 L99.8620022,17.6414914 L97.880184,20.4232163 L101.575755,23.2469924 L103.289508,28.8527266 L101.414916,31.5728663 L86.3953358,31.5728663 L85.8191121,29.6880645 L87.5594384,29.6880645 L81.2689956,9.11095548 L79.5277369,9.11095548 L78.9519794,7.22610705 L85.5337974,7.22610705 L86.1100212,9.11095548 L84.3687625,9.11095548 L87.3808836,18.9617711 L94.2937039,18.9617711 L96.2881095,16.0913749 L93.57762,7.22610705 Z M101.868063,2.5641025 L72.6517464,2.5641025 L76.0783198,13.77296 L77.8195785,13.77296 L81.2596716,25.02606 L79.5184129,25.02606 L82.9459187,36.2348709 L103.864333,36.2348709 L108.406058,29.6437755 L105.595802,20.4517944 L104.292771,19.4560368 L104.992072,18.4755706 L103.55431,13.77296 L105.294636,13.77296 L101.868063,2.5641025 L101.868063,2.5641025 Z" id="path102" fill="#FFFFFF"></path>
                        <polyline id="path104" fill="#FFFFFF" points="113.516081 4.89510477 102.059205 4.89510477 104.060137 11.4419578 105.80093 11.4419578 110.666664 27.3570623 108.925405 27.3570623 110.92727 33.9038686 122.384146 33.9038686 120.382281 27.3570623 118.641489 27.3570623 113.776221 11.4419578 115.51748 11.4419578 113.516081 4.89510477"></polyline>
                        <path d="M105.208855,7.22610705 L111.791139,7.22610705 L112.367363,9.11095548 L110.626104,9.11095548 L116.916547,29.6880645 L118.657806,29.6880645 L119.233563,31.5728663 L112.651745,31.5728663 L112.075988,29.6880645 L113.81678,29.6880645 L107.525871,9.11095548 L105.785545,9.11095548 L105.208855,7.22610705 Z M115.241023,2.5641025 L98.9090884,2.5641025 L102.335196,13.77296 L104.075988,13.77296 L107.517014,25.02606 L105.774823,25.02606 L109.202794,36.2348709 L125.534729,36.2348709 L122.106757,25.02606 L120.366431,25.02606 L116.926337,13.77296 L118.667596,13.77296 L115.241023,2.5641025 L115.241023,2.5641025 Z" id="path106" fill="#FFFFFF"></path>
                        <polyline id="path108" fill="#FFFFFF" points="127.183214 11.4419578 132.266663 11.4419578 132.618179 12.5910486 139.165031 12.5910486 136.812118 4.89510477 115.465265 4.89510477 117.466664 11.4419578 119.208389 11.4419578 124.07319 27.3570623 122.332864 27.3570623 124.334729 33.9038686 145.681581 33.9038686 143.338458 26.242004 136.791605 26.242004 137.132864 27.3570623 132.048482 27.3570623 130.622374 22.6899295 131.805591 22.6899295 132.14685 23.8046148 138.658272 23.8046148 135.965498 14.9939856 129.452677 14.9939856 129.803726 16.1431231 128.62051 16.1431231 127.183214 11.4419578"></polyline>
                        <path d="M118.615382,7.22610705 L135.087176,7.22610705 L136.014915,10.2600464 L134.34312,10.2600464 L133.991605,9.11095548 L124.033097,9.11095548 L126.895568,18.4741254 L132.953377,18.4741254 L132.602328,17.3249879 L134.240556,17.3249879 L135.508621,21.4736125 L133.871325,21.4736125 L133.530067,20.3589272 L127.472724,20.3589272 L130.323074,29.6880645 L140.283446,29.6880645 L139.942188,28.5730063 L141.613982,28.5730063 L142.530999,31.5728663 L126.059204,31.5728663 L125.483447,29.6880645 L127.223307,29.6880645 L120.93333,9.11095548 L119.192072,9.11095548 L118.615382,7.22610705 Z M138.537526,2.5641025 L112.315615,2.5641025 L115.741722,13.77296 L117.482981,13.77296 L120.923074,25.02606 L119.182281,25.02606 L122.610253,36.2348709 L148.832164,36.2348709 L145.0634,23.9110017 L141.128202,23.9110017 L138.381349,14.9220509 L142.315148,14.9220509 L138.537526,2.5641025 L138.537526,2.5641025 Z" id="path110" fill="#FFFFFF"></path>
                        <path d="M150.480183,11.4419578 L152.220509,11.4419578 L150.21911,4.89510477 L138.762234,4.89510477 L140.763633,11.4419578 L142.504892,11.4419578 L147.370159,27.3570623 L145.629367,27.3570623 L147.631232,33.9038686 L165.599996,33.9038686 L168.808387,29.2480645 L166.546849,21.8495099 L164.047082,19.9393468 L165.387408,18.0583678 L163.364565,11.4419578 L165.105357,11.4419578 L163.103959,4.89510477 L153.388341,4.89510477 L156.688574,15.6903959 L156.035894,16.6307688 L152.066197,16.6307688 L150.480183,11.4419578 Z M154.067595,23.1776218 L158.037758,23.1776218 L159.263865,24.1105821 L159.970159,26.4237289 L159.314681,27.3570623 L155.345451,27.3570623 L154.067595,23.1776218 L154.067595,23.1776218 Z" id="path112" fill="#FFFFFF"></path>
                        <path d="M158.823306,20.8466195 L150.917013,20.8466195 L153.620975,29.6880645 L160.52587,29.6880645 L162.531931,26.8316543 L161.273189,22.7105356 L158.823306,20.8466195 Z M153.630299,13.77296 L153.664798,13.77296 L153.826103,14.2997665 L153.791138,14.2997665 L153.630299,13.77296 Z M156.538458,7.22610705 L161.379017,7.22610705 L161.955241,9.11095548 L160.214914,9.11095548 L162.822374,17.6414914 L160.840555,20.4232163 L164.536593,23.2469924 L166.250345,28.8527266 L164.375287,31.5728663 L149.356173,31.5728663 L148.77995,29.6880645 L150.520276,29.6880645 L144.230299,9.11095548 L142.488575,9.11095548 L141.912351,7.22610705 L148.494169,7.22610705 L149.070393,9.11095548 L147.330066,9.11095548 L150.341255,18.9617711 L157.255008,18.9617711 L159.248481,16.0908154 L156.538458,7.22610705 Z M164.8289,2.5641025 L135.612118,2.5641025 L139.038691,13.77296 L140.77995,13.77296 L144.220043,25.02606 L142.479251,25.02606 L145.906756,36.2348709 L166.824704,36.2348709 L171.366895,29.6437755 L168.556639,20.4517944 L167.253609,19.4560368 L167.952443,18.4755706 L166.514681,13.77296 L168.255474,13.77296 L164.8289,2.5641025 L164.8289,2.5641025 Z" id="path114" fill="#FFFFFF"></path>
                        <polyline id="path116" fill="#FFFFFF" points="181.599995 16.0737059 173.067595 16.0737059 169.849879 20.6960368 172.463399 29.2456869 178.519343 33.9034957 191.299762 33.9034957 194.509086 29.2526333 192.76876 23.560792 184.794401 23.560792 185.670392 26.4251742 185.048946 27.3566893 180.800462 27.3566893 179.574821 26.423356 178.687641 23.5192535 179.352909 22.6199994 187.849879 22.6199994 191.054541 17.9543585 188.478783 9.52689953 182.430765 4.89566421 169.650345 4.89566421 166.434961 9.52689953 168.138457 15.0988807 176.113282 15.0988807 175.282513 12.3823773 175.935194 11.4419578 180.184145 11.4419578 181.365963 12.3468528 182.217711 15.1332863 181.599995 16.0737059"></polyline>
                        <path d="M181.562699,24.9510017 L182.78228,24.9510017 L182.805124,25.0510017 L181.584611,25.0485673 L181.562699,24.9510017 Z M170.86946,7.22666649 L181.641021,7.22666649 L186.468061,10.9231233 L188.496965,17.5608387 L186.622839,20.2889972 L178.17855,20.2889972 L176.114681,23.0769225 L177.565031,27.8228897 L180.013515,29.6876916 L186.296033,29.6876916 L188.222839,26.7996264 L187.944984,25.8917942 L191.044284,25.8917942 L191.950578,28.8563629 L190.075986,31.5724934 L179.31235,31.5724934 L174.475054,27.8522138 L172.410252,21.0979482 L174.284844,18.4047082 L182.857338,18.4047082 L184.766895,15.4984145 L183.376219,10.9506291 L180.973888,9.11095548 L174.71608,9.11095548 L172.722606,11.9819111 L172.9627,12.7678785 L169.863399,12.7678785 L168.995334,9.92680628 L170.86946,7.22666649 Z M183.220508,2.56464795 L168.431231,2.56464795 L163.875054,9.12643334 L166.413516,17.429883 L169.283446,17.429883 L167.28904,20.2937524 L170.45221,30.6395797 L177.726802,36.2344979 L192.523538,36.2344979 L197.067594,29.6489037 L194.493235,21.2297897 L191.632629,21.2297897 L193.612116,18.3473655 L190.48904,8.13011635 L183.220508,2.56464795 L183.220508,2.56464795 Z" id="path118" fill="#FFFFFF"></path>
                        <polyline id="path120" fill="#A20B31" points="28.9150109 46.2745909 28.9150109 53.2223763 20.7078783 53.2223763 20.7078783 46.2745909 23.2256871 46.2745909 23.2256871 36.8083441 6.66083899 36.8083441 6.66083899 46.2745909 9.17776201 46.2745909 9.17776201 69.2839144 6.66083899 69.2839144 6.66083899 78.7496484 23.2256871 78.7496484 23.2256871 69.2839144 20.7078783 69.2839144 20.7078783 63.5440544 28.9150109 63.5440544 28.9150109 69.2839144 26.3978548 69.2839144 26.3978548 78.7496484 42.962936 78.7496484 42.962936 69.2839144 40.4448941 69.2839144 40.4448941 46.2745909 42.962936 46.2745909 42.962936 36.8083441 26.3978548 36.8083441 26.3978548 46.2745909 28.9150109 46.2745909"></polyline>
                        <polyline id="path122" fill="#A20B31" points="62.4475509 36.8083441 45.8827028 36.8083441 45.8827028 46.2751504 48.3995326 46.2751504 48.3995326 69.2839144 45.8827028 69.2839144 45.8827028 78.7496484 62.4475509 78.7496484 62.4475509 69.2839144 59.9300684 69.2839144 59.9300684 46.2751504 62.4475509 46.2751504 62.4475509 36.8083441"></polyline>
                        <path d="M79.4153826,46.2745909 L81.9328651,46.2745909 L81.9328651,36.8083441 L65.3678305,36.8083441 L65.3678305,46.2745909 L67.885313,46.2745909 L67.885313,69.2839144 L65.3678305,69.2839144 L65.3678305,78.7496484 L91.3482495,78.7496484 L98.0447528,72.0195786 L98.0447528,61.3216768 L95.2755221,58.5599053 L98.0447528,55.8410242 L98.0447528,46.2745909 L100.562235,46.2745909 L100.562235,36.8083441 L86.5146832,36.8083441 L86.5146832,52.4172481 L85.1552426,53.7766886 L79.4153826,53.7766886 L79.4153826,46.2745909 Z M79.4153826,63.2424227 L85.1552426,63.2424227 L86.5146832,64.5902082 L86.5146832,67.9356626 L85.1552426,69.2839144 L79.4153826,69.2839144 L79.4153826,63.2424227 L79.4153826,63.2424227 Z" id="path124" fill="#A20B31"></path>
                        <path d="M135.655474,78.7496484 L135.655474,69.2839144 L133.541255,69.2839144 L142.754775,46.2745909 L145.272724,46.2745909 L145.272724,36.8083441 L129.159904,36.8083441 L129.159904,46.2745909 L130.519344,46.2745909 L129.915148,48.1370617 L118.787876,48.1370617 L118.133797,46.2745909 L119.493237,46.2745909 L119.493237,36.8083441 L103.432165,36.8083441 L103.432165,46.2745909 L105.948715,46.2745909 L115.163633,69.2839144 L113.350114,69.2839144 L113.350114,78.7496484 L135.655474,78.7496484 Z M121.658738,56.1930056 L126.995801,56.1930056 L124.326337,62.8391593 L121.658738,56.1930056 Z" id="path126" fill="#A20B31"></path>
                        <polyline id="path128" fill="#A20B31" points="170.69883 41.9944512 161.535194 57.1496489 161.535194 46.2751504 164.05221 46.2751504 164.05221 36.8083441 147.487642 36.8083441 147.487642 46.2751504 150.004192 46.2751504 150.004192 69.2839144 147.487642 69.2839144 147.487642 78.7496484 160.980416 78.7496484 170.69883 62.5370614 180.416313 78.7496484 193.909552 78.7496484 193.909552 69.2839144 191.392536 69.2839144 191.392536 46.2751504 193.909552 46.2751504 193.909552 36.8083441 177.344984 36.8083441 177.344984 46.2751504 179.861534 46.2751504 179.861534 57.1496489 170.69883 41.9944512"></polyline>
                        <polyline id="path130" fill="#A20B31" points="31.1312813 25.6503024 24.6199528 25.6503024 25.1409318 27.3566893 23.4001859 27.3566893 18.5344051 11.4419578 20.275524 11.4419578 18.2741254 4.89510477 6.78247069 4.89510477 8.78386924 11.4419578 10.5596268 11.4419578 15.4248481 27.3566893 13.6494635 27.3566893 13.1281116 25.6503024 6.61547769 25.6503024 9.13916061 33.9034957 33.6547777 33.9034957 31.1312813 25.6503024"></polyline>
                        <polyline id="path132" fill="#A20B31" points="37.9656401 11.4419578 43.0496027 11.4419578 43.4012577 12.5910486 49.9482505 12.5910486 47.5948706 4.89510477 26.2483443 4.89510477 28.2497429 11.4419578 29.9909083 11.4419578 34.8563161 27.3570623 33.1155236 27.3570623 35.1172952 33.9038686 56.4643343 33.9038686 54.1212108 26.242004 47.5743578 26.242004 47.9151503 27.3570623 42.8310945 27.3570623 41.4049873 22.6899295 42.5884838 22.6899295 42.9288567 23.8046148 49.4410244 23.8046148 46.7477844 14.9939856 40.2358498 14.9939856 40.5867589 16.1431231 39.4030293 16.1431231 37.9656401 11.4419578"></polyline>
                        <path d="M61.2624693,11.4419578 L63.0032618,11.4419578 L61.0018633,4.89510477 L49.5449871,4.89510477 L51.5463857,11.4419578 L53.2876444,11.4419578 L58.1529123,27.3570623 L56.4121198,27.3570623 L58.4139846,33.9038686 L76.3827487,33.9038686 L79.5911402,29.2480645 L77.3291356,21.8495099 L74.829835,19.9393468 L76.1701613,18.0583678 L74.1473175,11.4419578 L75.88811,11.4419578 L73.8867114,4.89510477 L64.171094,4.89510477 L67.471327,15.6903959 L66.8181801,16.6307688 L62.8489495,16.6307688 L61.2624693,11.4419578 Z M64.850348,23.1776218 L68.8200449,23.1776218 L70.0461521,24.1105821 L70.752912,26.4237289 L70.0974341,27.3570623 L66.1282035,27.3570623 L64.850348,23.1776218 L64.850348,23.1776218 Z" id="path134" fill="#A20B31"></path>
                        <path d="M87.5193451,11.4419578 L89.2596714,11.4419578 L87.2582729,4.89510477 L75.8018629,4.89510477 L77.8032615,11.4419578 L79.5445202,11.4419578 L84.4097881,27.3570623 L82.6689956,27.3570623 L84.6708604,33.9038686 L102.639624,33.9038686 L105.84755,29.2480645 L103.586011,21.8495099 L101.086711,19.9393468 L102.427037,18.0583678 L100.404193,11.4419578 L102.14452,11.4419578 L100.143121,4.89510477 L90.4275036,4.89510477 L93.7277366,15.6903959 L93.0750559,16.6307688 L89.1053591,16.6307688 L87.5193451,11.4419578 Z M91.1067576,23.1776218 L95.0764545,23.1776218 L96.3030279,24.1105821 L97.0093216,26.4237289 L96.3538437,27.3570623 L92.3846131,27.3570623 L91.1067576,23.1776218 L91.1067576,23.1776218 Z" id="path136" fill="#A20B31"></path>
                        <polyline id="path138" fill="#A20B31" points="113.516081 4.89510477 102.059205 4.89510477 104.060137 11.4419578 105.80093 11.4419578 110.666664 27.3570623 108.925405 27.3570623 110.92727 33.9038686 122.384146 33.9038686 120.382281 27.3570623 118.641489 27.3570623 113.776221 11.4419578 115.51748 11.4419578 113.516081 4.89510477"></polyline>
                        <polyline id="path140" fill="#A20B31" points="127.183214 11.4419578 132.266663 11.4419578 132.618179 12.5910486 139.165031 12.5910486 136.812118 4.89510477 115.465265 4.89510477 117.466664 11.4419578 119.208389 11.4419578 124.07319 27.3570623 122.332864 27.3570623 124.334729 33.9038686 145.681581 33.9038686 143.338458 26.242004 136.791605 26.242004 137.132864 27.3570623 132.048482 27.3570623 130.622374 22.6899295 131.805591 22.6899295 132.14685 23.8046148 138.658272 23.8046148 135.965498 14.9939856 129.452677 14.9939856 129.803726 16.1431231 128.62051 16.1431231 127.183214 11.4419578"></polyline>
                        <path d="M150.480183,11.4419578 L152.220509,11.4419578 L150.21911,4.89510477 L138.762234,4.89510477 L140.763633,11.4419578 L142.504892,11.4419578 L147.370159,27.3570623 L145.629367,27.3570623 L147.631232,33.9038686 L165.599996,33.9038686 L168.808387,29.2480645 L166.546849,21.8495099 L164.047082,19.9393468 L165.387408,18.0583678 L163.364565,11.4419578 L165.105357,11.4419578 L163.103959,4.89510477 L153.388341,4.89510477 L156.688574,15.6903959 L156.035894,16.6307688 L152.066197,16.6307688 L150.480183,11.4419578 Z M154.067595,23.1776218 L158.037758,23.1776218 L159.263865,24.1105821 L159.970159,26.4237289 L159.314681,27.3570623 L155.345451,27.3570623 L154.067595,23.1776218 L154.067595,23.1776218 Z" id="path142" fill="#A20B31"></path>
                        <polyline id="path144" fill="#A20B31" points="181.599995 16.0737059 173.067595 16.0737059 169.849879 20.6960368 172.463399 29.2456869 178.519343 33.9034957 191.299762 33.9034957 194.509086 29.2526333 192.76876 23.560792 184.794401 23.560792 185.670392 26.4251742 185.048946 27.3566893 180.800462 27.3566893 179.574821 26.423356 178.687641 23.5192535 179.352909 22.6199994 187.849879 22.6199994 191.054541 17.9543585 188.478783 9.52689953 182.430765 4.89566421 169.650345 4.89566421 166.434961 9.52689953 168.138457 15.0988807 176.113282 15.0988807 175.282513 12.3823773 175.935194 11.4419578 180.184145 11.4419578 181.365963 12.3468528 182.217711 15.1332863 181.599995 16.0737059"></polyline>
                        <path d="M41.3075514,80.0559421 C41.3075514,80.0559421 54.4722597,79.0680633 64.3412571,79.7668978 C64.3412571,79.7668978 84.7566412,82.0316996 89.7156155,82.4293686 C89.7156155,82.4293686 115.215848,88.1132845 118.414915,88.9948696 C118.414915,88.9948696 127.701162,84.4834478 133.471792,85.0149163 C133.471792,85.0149163 147.062001,84.9496482 155.836826,90.6764546 C155.836826,90.6764546 164.053609,95.6624685 169.289972,101.221443 C169.289972,101.221443 174.71235,106.222841 175.462933,107.148715 C175.462933,107.148715 182.007921,113.633097 171.424238,119.26713 C171.424238,119.26713 149.340323,133.333796 144.324938,135.406057 C144.324938,135.406057 115.728202,150.062001 103.641023,152.724472 C103.641023,152.724472 105.896501,157.368294 109.82424,161.072257 C109.82424,161.072257 113.565965,165.336593 114.316081,166.449413 C114.316081,166.449413 119.18368,172.196732 109.690906,172.055474 C109.690906,172.055474 101.493704,170.791604 97.0130512,168.207921 L98.1501141,171.925404 C98.1501141,171.925404 100.396268,175.07925 93.5044266,173.994401 C93.5044266,173.994401 82.1449863,172.932397 74.6573408,164.406523 C74.6573408,164.406523 68.6606043,155.872257 67.7006976,149.732397 C67.7006976,149.732397 59.1118866,144.37622 53.8648005,137.140789 C53.8648005,137.140789 47.4881107,126.93333 45.6011644,121.730067 L41.0640549,107.417713 L38.2701622,106.688109 C38.2701622,106.688109 36.3896961,102.788342 36.7579012,102.041489 C36.7579012,102.041489 28.9051741,95.005592 37.0618639,87.5212099 C37.0618639,87.5212099 38.1717939,86.2121191 37.7975748,85.4699279 L38.7130526,82.6750562 C38.7130526,82.6750562 40.7479244,79.8708605 41.3075514,80.0559421" id="path146" fill="#133A73"></path>
                        <path d="M41.989929,82.3449863 C44.4837285,82.1766879 55.6321664,81.4927719 64.1305345,82.088576 C65.4564086,82.2354292 84.2470841,84.316548 89.3659651,84.7393918 C91.5188788,85.2195783 114.817713,90.421443 117.795801,91.2419558 L118.643354,91.4755222 L119.433563,91.091373 C121.85734,89.9160817 129.071325,86.9519792 133.257806,87.3361284 L133.370626,87.3463848 L133.483447,87.3459186 C133.484379,87.3459186 133.485778,87.3459186 133.487642,87.3459186 C133.780416,87.3459186 146.545917,87.3962682 154.563166,92.6284359 L154.627036,92.6689954 C154.706756,92.7174802 162.64242,97.5631677 167.593469,102.819578 L167.710019,102.934729 C170.236359,105.265265 173.227035,108.100697 173.652676,108.617247 L173.821907,108.804659 C173.823306,108.806058 175.39207,110.445685 175.094634,112.348249 C174.835427,114.00699 173.187408,115.687643 170.328667,117.209787 L170.171558,117.301163 C164.077385,121.183214 147.39347,131.615848 143.434495,133.251745 L143.261535,133.331465 C142.978551,133.476454 114.794403,147.880649 103.139858,150.448015 L100.252678,151.083912 L101.544053,153.742653 C101.643354,153.946849 104.002795,158.75291 108.142655,162.690439 C109.56037,164.307688 111.905359,167.043352 112.382748,167.751977 L112.53706,167.956173 C112.844752,168.3296 113.153843,168.920275 113.220044,169.239623 C112.958039,169.390672 112.113284,169.744518 109.890906,169.726336 C108.772025,169.541255 101.903494,168.337525 98.1776199,166.188807 L93.0545431,163.234495 L95.7002307,171.885777 C95.2582727,171.869926 94.6610699,171.816779 93.8671305,171.691837 L93.721676,171.673189 C93.6219091,171.663865 83.2545434,170.571091 76.4955692,162.966429 C75.8424223,162.015847 70.8153828,154.563166 70.0037279,149.372024 L69.8391591,148.318411 L68.934264,147.754309 C68.8531451,147.703959 60.7118866,142.572024 55.7990662,135.838225 C55.2484835,134.950113 49.5310011,125.689041 47.8083904,120.978552 L42.8975281,105.487177 L39.9282508,104.711885 C39.5560363,103.860137 39.2418638,103.035895 39.1061995,102.550114 L39.6308615,101.485778 L38.3132858,100.305359 C38.2961762,100.289508 35.6885772,97.8652656 35.6870854,94.7785524 C35.6861996,92.8997646 36.6788802,91.0358952 38.6376214,89.2391586 L38.8397659,89.0289022 C39.2337053,88.5641004 40.2881109,87.165499 40.2006983,85.6214431 L40.8105817,83.7599047 C41.2206983,83.2177135 41.6810712,82.6671308 41.989929,82.3449863 L41.989929,82.3449863 Z M56.1766886,77.1836811 C49.2414906,77.1836811 42.8090432,77.6116531 41.3998591,77.7118862 C39.8570619,77.5948699 38.5192531,78.9729584 36.826386,81.3058255 L36.6116541,81.6018628 L35.2826565,85.6596715 L35.3893697,85.8713265 C35.3742182,85.8937041 35.3594863,85.9146832 35.3454537,85.9337974 C32.4593931,88.6335642 31.0061531,91.6279697 31.0252673,94.8363613 C31.0480179,98.6666642 33.2397194,101.648482 34.441118,102.996734 C34.60247,103.97389 35.0766891,105.432165 36.1703954,107.700697 L36.6384606,108.671326 L39.2307682,109.348249 L43.4100222,122.524472 C45.3584138,127.897899 51.6219101,137.950579 51.8876444,138.375754 L51.9776211,138.509087 C56.4918401,144.733796 63.213052,149.544052 65.5995322,151.144518 C67.0484832,157.579017 72.5058257,165.399063 72.7496485,165.746383 L72.9058257,165.944518 C80.6620026,174.776219 92.0452191,176.184611 93.2074569,176.307222 C95.826571,176.714215 98.9841467,176.885776 100.339858,174.693702 C100.821443,173.915147 100.907224,173.07925 100.777154,172.319343 C104.908156,173.665264 109.088575,174.321208 109.335662,174.35897 L109.655941,174.386476 C111.214449,174.40932 115.951978,174.480182 117.480184,171.247082 C118.764566,168.5296 116.695102,165.68904 116.17995,165.04615 C115.283447,163.772956 112.199997,160.245684 111.576221,159.534728 L111.423307,159.376686 C109.5972,157.654075 108.158505,155.701628 107.185545,154.197199 C120.220044,150.293236 143.442421,138.475055 145.307222,137.521675 C150.508155,135.318412 170.958038,122.32727 172.600928,121.281116 C176.846616,119.001862 179.239156,116.214916 179.711884,112.995801 C180.282047,109.113284 177.738457,106.166431 177.198131,105.59114 C176.25221,104.493704 172.258737,100.788809 170.929599,99.5627015 C165.655474,93.9888088 157.745451,89.1104873 157.079716,88.7039605 C148.15664,82.8997648 135.024239,82.6890422 133.572957,82.683914 C128.222841,82.2447532 120.648016,85.4172473 118.188808,86.5286692 C112.831233,85.1953359 91.2009301,80.372026 90.2228416,80.1543104 L89.9020957,80.1053593 C85.0344967,79.7156157 64.8018632,77.4727253 64.5981336,77.4498815 L64.5058259,77.4414899 C61.8452199,77.2531449 58.9696955,77.1836811 56.1766886,77.1836811 L56.1766886,77.1836811 Z" id="path148" fill="#133A73"></path>
                        <path d="M102.049415,132.411652 C102.049415,132.411652 107.227969,132.386011 112.257806,129.842887 L110.026104,131.95291 C110.026104,131.95291 112.975755,133.619577 113.255941,134.038225 L118.141256,130.654542 C118.141256,130.654542 125.720743,134.678785 126.140323,134.537526 L118.021442,134.575754 L112.293237,137.124006 C112.293237,137.124006 98.052212,145.731465 96.6526782,145.739856 L105.16037,138.697432 C105.16037,138.697432 105.432165,137.2965 104.446151,135.761768 C104.446151,135.761768 104.855009,133.658272 105.415382,133.377153 L102.049415,132.411652" id="path150" fill="#E9E9E9"></path>
                        <path d="M41.5798125,80.1137509 C41.5798125,80.1137509 54.8298355,78.744054 64.7254063,79.4428885 C64.7254063,79.4428885 85.0829816,81.2130516 90.1305339,82.4951028 C90.1305339,82.4951028 115.543587,87.6018626 118.911885,89.0797181 C118.911885,89.0797181 128.224705,84.5533778 134.013983,85.0857788 C134.013983,85.0857788 147.642421,85.0205107 156.444285,90.7654989 C156.444285,90.7654989 164.68298,95.7678298 169.935194,101.343587 C169.935194,101.343587 175.374821,106.358039 176.126336,107.287643 C176.126336,107.287643 182.690905,113.789275 172.076453,119.442421 C172.076453,119.442421 149.927735,133.549647 144.8965,135.627036 C144.8965,135.627036 116.217247,150.324472 104.096035,152.997199 C104.096035,152.997199 106.358972,157.653143 110.296967,161.368761 C110.296967,161.368761 114.050347,165.644751 114.802328,166.759903 C114.802328,166.759903 119.684845,172.524471 110.162235,172.382746 C110.162235,172.382746 101.941256,171.11608 97.4494148,168.524005 L98.5864777,172.252676 C98.5864777,172.252676 100.841489,175.41538 93.9296014,174.327735 C93.9296014,174.327735 82.5356623,173.262 75.0279702,164.710952 C75.0279702,164.710952 69.0135181,156.151045 68.0484831,149.9958 C68.0484831,149.9958 59.4377608,144.621908 54.17529,137.365498 C54.17529,137.365498 47.7780874,127.130067 45.8863392,121.910486 L41.3381342,107.557573 L38.5334722,106.825172 C38.5334722,106.825172 36.647738,102.91375 37.0183208,102.165032 C37.0183208,102.165032 29.142983,95.1095547 37.322097,87.6018626 C37.322097,87.6018626 38.4351506,86.2895083 38.0574349,85.5454524 L38.9787403,82.7398581 C38.9787403,82.7398581 41.0192531,79.9314665 41.5798125,80.1137509" id="path152" fill="#231F20"></path>
                        <path d="M41.5934722,80.8153826 L41.6517472,80.809322 C41.7834022,80.7958022 54.9561758,79.4540773 64.6764553,80.1403243 C64.8680636,80.1571076 85.0233079,81.9193453 89.9580397,83.1729583 C90.2461516,83.2316996 115.369694,88.2895083 118.630766,89.7202775 L118.926804,89.8498812 L119.217246,89.7090887 C119.308622,89.6643334 128.426104,85.2764547 133.950113,85.7822822 L134.017246,85.7850794 C134.16037,85.7855456 147.547316,85.793471 156.061535,91.3510467 C156.1627,91.4130513 164.301161,96.3827482 169.426103,101.822841 L169.461534,101.857806 C170.963632,103.242888 174.992536,106.9972 175.58228,107.72727 L175.634028,107.784613 C175.654541,107.804659 177.790672,109.978552 177.381348,112.722142 C177.047548,114.958505 175.152443,117.012118 171.747781,118.825172 L171.700695,118.852678 C171.479716,118.99347 149.546849,132.950113 144.629833,134.980882 L144.578085,135.004659 C144.291372,135.151046 115.839624,149.691372 103.944986,152.314215 L103.079252,152.505357 L103.46713,153.303026 C103.561303,153.497432 105.822841,158.098364 109.793004,161.854541 C110.099298,162.203726 113.532864,166.127735 114.222841,167.151045 L114.268995,167.212117 C114.697899,167.72214 115.707689,169.268527 115.229368,170.275986 C114.780883,171.220509 113.004659,171.719343 110.221909,171.683912 C109.553377,171.576686 101.951513,170.314681 97.7990652,167.917945 L96.2634009,167.032164 L97.9510465,172.565497 L98.017247,172.658271 C98.1375267,172.833096 98.3188787,173.244285 98.1999975,173.433096 C98.1496479,173.513282 97.6074568,174.198131 94.0386923,173.636825 C93.8843799,173.620975 82.8074571,172.484844 75.5790191,164.27925 C75.1906741,163.718411 69.6396253,155.630299 68.7393922,149.887642 L68.689975,149.572024 L68.4191125,149.402793 C68.334264,149.349647 59.875523,144.022374 54.7557096,136.974822 C54.4368285,136.462934 48.3491829,126.653144 46.5437284,121.672258 L41.8881108,106.978552 L39.0253603,106.230767 C38.3110946,104.704426 37.632773,102.912818 37.6680643,102.428436 L37.8807916,101.999065 L37.4850806,101.644287 C37.4541249,101.616314 34.3230761,98.7496479 34.30578,94.9100209 C34.2950574,92.5375268 35.4691366,90.2522122 37.7948242,88.1174803 L37.8552904,88.0540771 C38.0696494,87.8018626 39.0358965,86.5883428 38.7946377,85.542189 L39.6086237,83.062935 C40.3682041,82.0293686 41.2481575,81.034963 41.5934722,80.8153826 Z M58.459206,78.5473174 C50.6079241,78.5473174 42.730908,79.2969677 41.6358964,79.4051262 C41.2290433,79.3300679 40.4499757,79.5249397 38.4130993,82.3286693 L38.3486237,82.4172474 L37.3024233,85.6032613 L37.4340783,85.8620025 C37.4883441,86.0242403 37.2151972,86.6303009 36.8143581,87.1188789 C34.2050807,89.5263381 32.8906285,92.1543101 32.9071787,94.9296014 C32.9301623,98.7277365 35.4454537,101.581816 36.2862462,102.4303 C36.2929595,103.33706 36.8344047,104.911419 37.9035422,107.128669 L38.0441482,107.420044 L40.7881575,108.136594 L45.2198124,122.121675 C47.1244743,127.377619 53.319346,137.315614 53.582283,137.736127 L53.6088565,137.77622 C58.4326326,144.427502 65.8834482,149.431232 67.4107209,150.418644 C68.5305344,156.62657 74.2102546,164.764098 74.455476,165.113283 L74.5025622,165.17249 C82.1062917,173.83263 93.3878765,174.979483 93.8647995,175.024238 C96.9571071,175.511884 98.7263379,175.241021 99.3906735,174.167362 C99.9440534,173.271324 99.4344963,172.286709 99.2261047,171.952909 L98.5985989,169.894634 C103.224706,172.003259 109.750114,173.026569 110.055941,173.073655 L110.151979,173.082047 C113.702095,173.128667 115.766897,172.411651 116.494636,170.871791 C117.406058,168.942187 115.613517,166.646616 115.362235,166.33939 C114.551978,165.159436 110.975755,161.081581 110.822375,160.907222 L110.777153,160.860136 C107.917946,158.162234 105.948249,154.927269 105.137993,153.469926 C117.547783,150.368761 143.732397,137.008854 145.190206,136.262001 C150.233096,134.163633 171.241021,120.803727 172.429366,120.046617 C176.239156,118.012584 178.371091,115.612585 178.766895,112.912818 C179.250345,109.617247 176.945916,107.126804 176.646616,106.819112 C175.820042,105.826571 171.061068,101.430767 170.427502,100.845685 C165.170159,95.2727249 157.146383,90.3738905 156.806989,90.1678299 C148.133796,84.5062916 135.125871,84.3864781 134.062001,84.3864781 C134.055475,84.3864781 134.050346,84.3864781 134.044752,84.3864781 C128.632631,83.9039606 120.524473,87.5496482 118.887643,88.3165479 C114.543121,86.6965013 91.282049,82.0135178 90.268063,81.809322 C85.2582729,80.5361285 65.6195788,78.818646 64.7860124,78.746385 C62.7738912,78.6041938 60.6167817,78.5473174 58.459206,78.5473174 L58.459206,78.5473174 Z" id="path154" fill="#231F20"></path>
                        <path d="M44.5964558,106.223774 C44.5964558,106.223774 51.5668985,99.7482493 54.926339,99.4526782 C54.926339,99.4526782 55.2405581,106.451279 58.9044274,111.47692 L62.568763,116.219578 C62.568763,116.219578 52.6969684,101.983214 60.2209775,94.1067576 C60.2209775,94.1067576 68.5930053,87.9044267 78.395336,87.8573405 C78.395336,87.8573405 94.0787855,87.7836808 100.243354,88.5944034 C100.243354,88.5944034 116.501163,91.3151492 117.624239,91.8713264 C117.624239,91.8713264 116.798132,94.9561748 109.797666,94.9897412 C109.797666,94.9897412 100.544053,92.5137506 95.2312331,94.7790186 C95.2312331,94.7790186 93.2988322,100.109088 105.899764,100.330534 C105.899764,100.330534 114.023307,100.010254 119.58741,92.7020956 C119.58741,92.7020956 124.320277,86.798133 136.643819,86.737527 C136.643819,86.737527 157.37622,88.3221423 167.52214,101.714683 C167.52214,101.714683 154.965963,111.577153 166.487642,119.92354 C166.487642,119.92354 144.350579,134.196267 138.759437,136.4634 C138.759437,136.4634 119.580883,146.44988 101.679252,151.014915 L88.0643335,153.882047 L87.8498813,147.907689 C87.8498813,147.907689 82.4615364,153.348714 94.1198112,170.840555 C94.1198112,170.840555 92.2596714,172.156639 84.7738907,168.270858 C84.7738907,168.270858 71.8573409,160.866196 72.7146835,144.993936 L69.3641008,147.249414 C69.3641008,147.249414 57.3878774,141.518878 49.8461526,125.686244 C49.8461526,125.686244 43.3751971,109.14079 44.5964558,106.223774" id="path156" fill="#FFFFFF"></path>
                        <path d="M96.7291351,91.858739 C96.7291351,91.858739 85.549182,96.2060582 99.3916059,101.645685 C99.3916059,101.645685 94.3575734,103.445219 90.2293684,98.7044264 C90.2293684,98.7044264 85.7151494,91.8191119 96.7291351,91.858739" id="path158" fill="#231F20"></path>
                        <path d="M99.8214427,152.518411 C99.8214427,152.518411 101.904893,159.228434 112.216314,168.139856 C112.216314,168.139856 99.3449859,170.628434 88.6386924,156.67925 C88.6386924,156.67925 87.3305339,156.124472 92.1771539,154.794402 C92.1771539,154.794402 99.3048926,161.855474 102.478785,162.026103 C102.478785,162.026103 96.6647994,156.266197 97.5832143,153.461068 L99.8214427,152.518411" id="path160" fill="#FFFFFF"></path>
                        <path d="M77.7641006,146.836826 C77.7641006,146.836826 83.0088557,150.544052 83.7543103,149.980882 C83.7543103,149.980882 82.1058255,156.710486 85.3058254,162.482513 C85.3058254,162.482513 76.3016298,153.750113 77.7641006,146.836826" id="path162" fill="#231F20"></path>
                        <path d="M88.0713265,84.8428883 C88.0713265,84.8428883 68.1939377,85.7780864 63.5878772,89.1613031 C63.5878772,89.1613031 61.7403248,83.1496483 56.4275044,84.4340305 C56.4275044,84.4340305 51.2536118,86.1403242 52.9594392,91.7328648 C52.9594392,91.7328648 55.3561758,94.7995314 56.614917,94.5123519 C56.614917,94.5123519 56.0596723,95.3561748 56.4825161,96.0554755 C56.4825161,96.0554755 44.5971551,99.6121187 42.5245677,104.942655 L40.7013043,104.529601 L41.1092297,101.867597 C41.1092297,101.867597 46.6778543,95.4018624 40.339999,87.4512799 C40.339999,87.4512799 40.5991598,83.1109536 43.3948707,82.3976669 C43.3948707,82.3976669 69.4237745,79.4722591 88.0713265,84.8428883" id="path164" fill="#A20B31"></path>
                        <path d="M61.2997654,87.2349629 C61.2997654,87.2349629 63.7347303,89.2783194 62.1916068,91.5883427 L61.0731919,91.905359 C61.0731919,91.905359 62.1808842,89.4107204 61.2997654,87.2349629" id="path166" fill="#BDBCBC"></path>
                        <path d="M60.6881104,89.5412565 C60.6759892,87.2391587 59.094171,85.3808836 57.1515137,85.3911401 C55.210255,85.3976669 53.6447539,87.2727251 53.6550103,89.5748229 C53.6666653,91.8783194 55.2503483,93.7384592 57.1920732,93.728669 C59.1342643,93.7188788 60.6983668,91.8438205 60.6881104,89.5412565" id="path168" fill="#BDBCBC"></path>
                        <path d="M41.1973882,100.088576 C41.1973882,100.088576 40.20233,100.343587 39.9521202,99.8456851 C39.9521202,99.8456851 42.6034488,94.8545431 39.2826564,89.7062915 C39.2826564,89.7062915 39.4032158,89.2083894 40.2132391,89.2666644 C40.2132391,89.2666644 43.8432623,93.6060583 41.1973882,100.088576" id="path170" fill="#BDBCBC"></path>
                        <path d="M40.4264792,94.8051258 C40.4139384,92.1580397 39.3999524,90.0177134 38.1635888,90.0242402 C36.9247077,90.0303008 35.932773,92.1804173 35.9468056,94.8256387 C35.958787,97.4694614 36.9713277,99.6116525 38.2093231,99.6055919 C39.446013,99.5995313 40.4385071,97.4494148 40.4264792,94.8051258" id="path172" fill="#BDBCBC"></path>
                        <path d="M169.363166,102.935196 C169.363166,102.935196 186.637758,113.91375 167.758504,118.624239 C167.758504,118.624239 156.94312,111.816314 169.363166,102.935196" id="path174" fill="#D3D2D2"></path>
                        <path d="M41.7724931,80.2270376 L41.8039617,80.2205108 C41.9356633,80.2107206 55.1048937,79.2386927 64.8727257,79.9310003 C65.0680636,79.9529118 85.3981331,82.2060586 90.3170141,82.5990655 C90.5403241,82.65128 115.89044,88.3039605 119.057806,89.1766877 L119.142654,89.1999978 L119.221908,89.1617693 C119.314216,89.1160817 128.54312,84.6741238 134.199064,85.1920725 C134.357106,85.1925387 147.88298,85.1962683 156.523539,90.8349628 C156.612117,90.8885758 164.802793,95.8881095 169.972024,101.374823 C170.038224,101.436827 175.41911,106.401862 176.152909,107.306757 C176.193003,107.348715 178.490905,109.672725 178.049879,112.654543 C177.696965,115.048948 175.718877,117.220044 172.172956,119.107689 C171.936126,119.258272 149.969693,133.236827 145.015381,135.284845 C144.711884,135.439624 116.206524,150.007922 104.252678,152.641022 L103.963634,152.704425 L104.092771,152.970159 C104.116081,153.017712 106.418179,157.709087 110.343121,161.410252 C110.365032,161.437292 114.079251,165.672257 114.814916,166.763632 C114.84755,166.804658 116.561302,168.859203 115.856874,170.347315 C115.316547,171.488574 113.41678,172.061068 110.372025,172.022373 C110.321676,172.012583 102.175289,170.734728 97.7715593,168.194868 L97.2596712,167.899763 L98.6032609,172.260136 C98.6088553,172.267595 99.1328647,173.020508 98.8037271,173.550578 C98.5608367,173.941254 97.6372936,174.515613 94.1724918,173.969226 C94.0447529,173.957105 82.7682963,172.809786 75.4088559,164.429833 C75.3650331,164.364565 69.4298351,155.864798 68.487644,149.831698 L68.4708608,149.726337 L68.3804179,149.669926 C68.294637,149.616313 59.7440545,144.237292 54.570628,137.102561 C54.5156164,137.013983 48.1743578,126.839624 46.3122599,121.704892 L41.7273183,107.235429 L38.9046144,106.499298 C38.0388802,104.686711 37.239766,102.533797 37.4335189,102.141722 L37.5118406,101.983214 L37.380372,101.864799 C37.3470387,101.834962 34.0677847,98.8438204 34.0457334,94.7920722 C34.0324467,92.279718 35.2573418,89.8759884 37.6866657,87.6466179 C37.8259664,87.4848463 38.8314209,86.2615363 38.5150573,85.4055923 L39.3941249,82.7212101 C40.3844279,81.3627019 41.4497892,80.2167812 41.728577,80.2125854 L41.7724931,80.2270376 Z M56.779952,79.2167812 C49.3207447,79.216315 42.3368288,79.7137509 41.8010712,79.7529118 C41.1837286,79.6736577 39.9415375,81.1738907 38.9952904,82.476921 L38.9625165,82.5417229 L38.0144513,85.4363615 L38.0579944,85.5221424 C38.3074582,86.0153825 37.6137986,87.0135176 37.3512345,87.3244733 C34.839766,89.626105 33.5640551,92.1482494 33.579533,94.798599 C33.6026565,98.6857784 36.3703954,101.545452 36.9627963,102.112818 C36.8067124,103.11375 38.1058732,105.917014 38.5310946,106.799065 L38.5779011,106.896035 L41.3607449,107.621909 L45.8708613,121.854542 C47.7529126,127.044752 54.1198122,137.260136 54.1841478,137.362701 C59.1328657,144.187875 67.1067582,149.407922 68.0438211,150.008388 C69.0536113,156.141255 74.9832149,164.632164 75.0433548,164.717945 C82.5431215,173.260136 93.9995314,174.420975 94.1142168,174.432163 C96.9874102,174.884378 98.6554754,174.676453 99.2009299,173.794401 C99.6470838,173.073189 99.126804,172.206523 99.0065243,172.023306 L98.0456852,168.877851 C102.61072,171.27552 110.253144,172.473655 110.332864,172.485777 C113.656874,172.537991 115.646151,171.883912 116.278319,170.54545 C117.110487,168.78601 115.265265,166.575753 115.186477,166.482513 C114.449414,165.386942 110.831699,161.262001 110.678319,161.087175 C107.331932,157.930066 105.186944,154.062001 104.646617,153.029833 C116.823773,150.215847 144.926337,135.85361 145.211185,135.707689 C150.185544,133.652211 171.503026,120.08671 172.407921,119.510487 C176.078317,117.557107 178.137525,115.268529 178.51235,112.718412 C178.984611,109.500697 176.599996,107.095568 176.497898,106.994403 C175.759902,106.082049 170.522606,101.248949 170.299763,101.04382 C165.098364,95.5216759 156.854542,90.4904406 156.772024,90.440091 C148.020975,84.7291354 134.354775,84.7207438 134.219577,84.7268044 C128.668528,84.2149163 120.075988,88.2358952 119.096967,88.7039605 C115.580417,87.7571074 90.640091,82.1958021 90.3864779,82.1389257 C85.4419559,81.7417229 65.1193457,79.4895085 64.9146837,79.4666647 C62.3379938,79.2839141 59.5263388,79.2167812 56.779952,79.2167812 L56.779952,79.2167812 Z" id="path176" fill="#231F20"></path>
                        <path d="M172.385077,110.34685 C172.328667,109.455941 171.559902,108.781815 170.671324,108.83776 C169.781348,108.89417 169.104425,109.662468 169.160835,110.551046 C169.218644,111.441489 169.986476,112.117946 170.876453,112.060137 C171.765031,112.003727 172.440089,111.236361 172.385077,110.34685" id="path178" fill="#FFFFFF"></path>
                        <path d="M55.9421897,87.6913731 C55.9421897,87.6913731 54.6825161,87.2130514 55.3300685,86.8368277 C55.9757562,86.4610701 57.1696955,85.9379932 57.6386932,86.2447531 C58.1025626,86.5473172 59.7445207,87.7850794 59.898833,88.444753 C60.0512805,89.1067577 58.3808843,87.423774 57.5976676,87.363168 C56.8097888,87.3011633 55.9421897,87.6913731 55.9421897,87.6913731" id="path180" fill="#7B7979"></path>
                        <path d="M39.5842414,93.6326317 C39.5842414,93.6326317 39.3159897,91.1939371 38.7683906,91.3403241 C38.2177147,91.4871772 36.9624233,92.7948695 36.9624233,92.7948695 C36.9624233,92.7948695 39.3194396,92.9808835 39.5842414,93.6326317" id="path182" fill="#7B7979"></path>
                        <path d="M38.9659664,96.863867 C38.9397659,96.4354288 38.6199524,96.1039603 38.2499291,96.1272703 C37.8818639,96.1515127 37.6056401,96.5198111 37.6330993,96.9487155 C37.6595329,97.3785523 37.9809315,97.7076899 38.3497426,97.6839136 C38.7177613,97.6620022 38.9944046,97.2941701 38.9659664,96.863867" id="path184" fill="#FFFFFF"></path>
                        <path d="M57.5100219,91.940324 C57.4843808,91.5421889 57.1659659,91.2349628 56.7958028,91.2592052 C56.4279706,91.282049 56.1491827,91.6251725 56.1762224,92.0256387 C56.1999986,92.4237739 56.5188797,92.728669 56.8885767,92.705359 C57.256875,92.6834476 57.5347305,92.3389254 57.5100219,91.940324" id="path186" fill="#FFFFFF"></path>
                        <path d="M117.117946,91.2568742 C117.117946,91.2568742 115.082048,95.6326316 108.525871,94.9897412 C101.968296,94.3477832 99.5818157,93.7165478 97.3785523,94.1930046 C95.175289,94.6689953 90.8578066,95.2778531 94.928669,97.8116526 C98.9999975,100.345452 104.297899,101.125405 106.48065,100.316081 C108.663867,99.5072236 114.439624,97.2396246 115.578086,95.8284358 C116.717013,94.4149161 117.862002,93.1137506 119.328202,91.5673637 C120.794869,90.0219092 120.744985,89.2438206 120.744985,89.2438206 L116.427969,91.6400909" id="path188" fill="#231F20"></path>
                        <path d="M117.292305,91.4265711 L120.380883,89.7123521 C120.22657,90.0694616 119.890906,90.6363614 119.159438,91.4069907 C117.696034,92.949648 116.535661,94.2685291 115.396268,95.6820489 C114.47692,96.821909 109.975289,98.7729579 106.399531,100.097433 C104.218645,100.905359 99.0223751,100.084846 95.0517459,97.6139836 C93.5902075,96.7044265 93.4433543,96.1715594 93.4857785,95.9347295 C93.6158485,95.2065244 95.5855454,94.8018624 96.8885757,94.5337972 C97.0773869,94.4946363 97.259205,94.4573403 97.4279696,94.4209767 C98.9002306,94.1025617 100.508622,94.2978997 103.430767,94.6536107 C104.772025,94.8167808 106.441023,95.0200442 108.503028,95.221909 C114.685778,95.8298344 116.983214,92.0027949 117.292305,91.4265711 L117.292305,91.4265711 Z M120.953843,88.86107 L116.314682,91.4363614 L116.510953,91.7892751 C116.224706,92.1799511 115.772957,92.6992984 115.118878,93.1944033 C113.941256,94.0862447 111.847083,95.0815827 108.548249,94.7580396 C106.491839,94.556641 104.825638,94.3538438 103.486711,94.1911398 C100.516081,93.8293683 98.8787854,93.6298345 97.3296013,93.9654988 C97.1622353,94.0013963 96.982282,94.0386923 96.7948694,94.0769207 C95.198599,94.4051258 93.2125851,94.8130512 93.0265711,95.8522121 C92.9114196,96.4969673 93.4764545,97.1827482 94.8051258,98.0093216 C98.8899742,100.551513 104.278319,101.380417 106.561769,100.534729 C108.408389,99.8508134 114.529135,97.5006969 115.759438,95.9748228 C116.890906,94.570627 118.04382,93.2610699 119.497899,91.7277366 C120.991139,90.1538439 120.983214,89.3188789 120.977619,89.228436 L120.953843,88.86107 L120.953843,88.86107 Z" id="path190" fill="#231F20"></path>
                        <path d="M78.0149165,147.267129 C78.0149165,147.267129 83.2592054,150.974355 84.0037275,150.411185 C84.0037275,150.411185 82.3566413,157.140789 85.5571074,162.911884 C85.5571074,162.911884 76.5538442,154.181348 78.0149165,147.267129" id="path192" fill="#231F20"></path>
                        <path d="M91.9678299,153.51235 C91.9678299,153.51235 96.9477831,154.409786 97.2909067,153.758971 C97.2909067,153.758971 98.3599043,159.108621 102.568762,162.160369 C102.568762,162.160369 93.2335641,158.934262 91.9678299,153.51235" id="path194" fill="#231F20"></path>
                        <path d="M95.751979,91.7421888 C95.751979,91.7421888 84.5706273,96.0890419 98.4111864,101.530534 C98.4111864,101.530534 93.3780862,103.329135 89.251746,98.5864777 C89.251746,98.5864777 84.737527,91.7016294 95.751979,91.7421888" id="path196" fill="#231F20"></path>
                        <path d="M100.319811,129.841022 C100.319811,129.841022 105.499298,129.819111 110.528202,127.272258 L108.296501,129.384612 C108.296501,129.384612 111.246151,131.051279 111.528669,131.469927 L116.412118,128.085311 C116.412118,128.085311 123.992538,132.108155 124.41072,131.966896 L116.291372,132.00699 L110.563167,134.553843 C110.563167,134.553843 96.3235407,143.162234 94.9226083,143.168761 L103.429368,136.128668 C103.429368,136.128668 103.70396,134.726337 102.716081,133.192071 C102.716081,133.192071 103.126804,131.089041 103.68438,130.806057 L100.319811,129.841022" id="path198" fill="#231F20"></path>
                        <path d="M107.752911,133.587409 C107.749648,132.984612 107.248948,132.499297 106.632631,132.501628 C106.015848,132.503959 105.517946,132.994402 105.521209,133.596733 C105.525871,134.199997 106.027969,134.687642 106.643354,134.683913 C107.258739,134.680183 107.756641,134.190206 107.752911,133.587409" id="path200" fill="#FFFFFF"></path>
                        <path d="M106.637293,134.625638 C106.057806,134.625638 105.58368,134.165498 105.579485,133.596267 C105.578086,133.325871 105.683913,133.068994 105.87692,132.874589 C106.07692,132.672258 106.345452,132.560836 106.632631,132.559903 C106.634496,132.559903 106.635895,132.559903 106.637293,132.559903 C107.217713,132.559903 107.691373,133.020043 107.694636,133.587409 L107.752911,133.587409 L107.694636,133.587409 C107.698366,134.156174 107.226105,134.621908 106.643354,134.625638 C106.641489,134.625638 106.639158,134.625638 106.637293,134.625638 L106.637293,134.625638 Z M106.637293,132.443353 C106.635895,132.443353 106.63403,132.443353 106.632165,132.443353 C106.313284,132.444286 106.015848,132.568295 105.793937,132.792071 C105.579018,133.009321 105.46107,133.295102 105.462934,133.597199 C105.468063,134.2303 105.993937,134.742188 106.637293,134.742188 C106.639624,134.742188 106.641955,134.742188 106.64382,134.742188 C107.291373,134.737992 107.814916,134.219577 107.811186,133.586477 C107.807923,132.955241 107.281582,132.443353 106.637293,132.443353 L106.637293,132.443353 Z" id="path202" fill="#FFFFFF"></path>
                    </g>
                </g>
            </g>
        </g>
    </g>
</svg>