<?xml version="1.0" encoding="UTF-8"?>
<svg width="200px" height="200px" viewBox="0 0 200 200" version="1.1" xmlns="http://www.w3.org/2000/svg" xmlns:xlink="http://www.w3.org/1999/xlink">
    <!-- Generator: Sketch 56.3 (81716) - https://sketch.com -->
    <title>hobart</title>
    <desc>Created with Sketch.</desc>
    <g id="hobart" stroke="none" stroke-width="1" fill="none" fill-rule="evenodd">
        <g id="hobart_BGL">
            <g id="Hobart_Primary_Mark_FC_PMS_WBG-Copy" transform="translate(6.000000, 0.000000)">
                <path d="M187.43274,23.0085409 C186.442705,22.5209964 185.44911,22.0455516 184.452669,21.5822064 C184.333808,21.5266904 184.214235,21.4754448 184.095374,21.4206406 C183.192171,21.0035587 182.285409,20.5928826 181.377224,20.1957295 C181.337367,20.1779359 181.297509,20.1615658 181.257651,20.144484 C179.242705,19.2647687 177.217794,18.4313167 175.18363,17.6441281 C170.100356,15.6754448 164.967972,13.994306 159.837722,12.5494662 C157.912456,9.80569395 155.170819,8.27330961 151.38363,9.4569395 C144.829893,11.5067616 146.757295,21.6797153 150.696797,24.9871886 C150.096797,24.7729537 149.548043,24.5309609 149.05694,24.255516 C148.742349,24.0790036 148.450534,23.8896797 148.175089,23.6903915 C146.435587,22.4313167 145.402135,20.7081851 144.456228,18.6718861 C143.438434,16.4854093 142.514591,13.9338078 140.933808,11.1857651 C140.802135,10.9587189 140.674021,10.7323843 140.53452,10.5024911 C139.90605,9.58291815 139.232028,8.6747331 138.491103,7.79928826 C137.086833,6.1430605 135.429181,4.61352313 133.319573,3.38149466 C130.878292,1.9544484 127.833452,0.923843416 123.875445,0.561565836 C116.446975,-0.11886121 109.013523,1.60925267 101.535231,4.44768683 C98.9758007,4.38932384 96.4925267,4.36370107 94.0982206,4.36370107 C86.1686833,4.36370107 77.2704626,4.64341637 67.8199288,5.49323843 C67.5558719,5.51672598 67.2911032,5.54163701 67.0263345,5.5658363 C66.3950178,5.62491103 65.7622776,5.686121 65.1266904,5.75017794 C64.8768683,5.77508897 64.627758,5.79928826 64.3772242,5.82562278 C63.5373665,5.91245552 62.6932384,6.00355872 61.8455516,6.09964413 C61.6455516,6.12313167 61.4434164,6.1480427 61.2419929,6.17081851 C60.5615658,6.24982206 59.8782918,6.33309609 59.1928826,6.41850534 C58.913879,6.45266904 58.6348754,6.48825623 58.3551601,6.52455516 C57.6206406,6.61850534 56.8839858,6.71672598 56.1451957,6.81921708 C55.9928826,6.83985765 55.8419929,6.85907473 55.6896797,6.88042705 C54.8213523,7.00213523 53.9494662,7.13024911 53.0754448,7.2633452 C52.8135231,7.3024911 52.5501779,7.34448399 52.2882562,7.38505338 C51.6149466,7.48967972 50.9402135,7.59786477 50.2640569,7.70960854 C50.0092527,7.75160142 49.7558719,7.79288256 49.5010676,7.83487544 C48.6149466,7.98434164 47.7259786,8.13879004 46.8355872,8.29964413 C46.6697509,8.33024911 46.5032028,8.36227758 46.3373665,8.39288256 C45.5893238,8.52953737 44.8398577,8.67188612 44.0896797,8.81779359 C43.8156584,8.87117438 43.5402135,8.9252669 43.2654804,8.98007117 C42.5117438,9.12953737 41.7572954,9.28398577 41.0014235,9.44270463 C40.8341637,9.47829181 40.6669039,9.51174377 40.4989324,9.54733096 C39.5978648,9.74021352 38.6932384,9.93950178 37.7893238,10.1451957 C37.544484,10.2014235 37.3003559,10.258363 37.0562278,10.3153025 C36.3480427,10.4790036 35.6391459,10.6476868 34.9295374,10.8199288 C34.6754448,10.8818505 34.4206406,10.9430605 34.1658363,11.0064057 C33.2533808,11.2320285 32.3402135,11.4633452 31.4263345,11.7039146 C31.3074733,11.7352313 31.1893238,11.7686833 31.0704626,11.8007117 C30.2640569,12.0142349 29.4569395,12.2355872 28.6498221,12.4604982 C28.3814947,12.5366548 28.1131673,12.6120996 27.8448399,12.688968 C27.0896797,12.9039146 26.3345196,13.1245552 25.5786477,13.3501779 C25.3992883,13.4042705 25.2199288,13.455516 25.0405694,13.5103203 C24.1266904,13.7871886 23.2128114,14.0718861 22.2989324,14.3651246 C22.0718861,14.4384342 21.8441281,14.513879 21.6170819,14.5879004 C20.8953737,14.8220641 20.1743772,15.0619217 19.4540925,15.3067616 C19.2,15.3928826 18.9451957,15.4797153 18.6918149,15.5672598 C17.7736655,15.883274 16.8569395,16.2071174 15.941637,16.5409253 C15.8790036,16.5637011 15.8163701,16.5879004 15.7530249,16.6113879 C14.8989324,16.9245552 14.0448399,17.2476868 13.1928826,17.5765125 C12.9330961,17.6761566 12.6747331,17.7779359 12.4149466,17.8797153 C11.6775801,18.1686833 10.941637,18.4633452 10.2071174,18.7637011 C10.0142349,18.8434164 9.82064057,18.9202847 9.62775801,18.9992883 C8.72384342,19.3743772 7.8227758,19.7580071 6.92313167,20.1508897 C6.71530249,20.2412811 6.50960854,20.3345196 6.3024911,20.4263345 C5.58291815,20.744484 4.86548043,21.0683274 4.14946619,21.3985765 C3.89822064,21.5145907 3.64697509,21.6298932 3.39644128,21.747331 C2.49608541,22.1686833 1.59786477,22.5964413 0.703914591,23.0377224 C0.703914591,23.0377224 0.703914591,24.5081851 0.846975089,27.2099644 C0.872597865,27.7010676 0.903914591,28.2327402 0.940213523,28.8049822 C0.993594306,29.6619217 1.06120996,30.6071174 1.1430605,31.6362989 C1.20640569,32.4199288 1.27829181,33.2519573 1.36014235,34.1309609 C1.4455516,35.0483986 1.54234875,36.0156584 1.65124555,37.0313167 C1.86975089,39.0626335 2.13879004,41.2854093 2.46975089,43.6825623 C2.58718861,44.5338078 2.71245552,45.4071174 2.84626335,46.3024911 C3.02491103,47.4946619 3.21779359,48.7252669 3.42775801,49.9914591 C4.05551601,53.7879004 4.82846975,57.9003559 5.77864769,62.2747331 C5.99501779,63.2676157 6.22064057,64.2740214 6.45480427,65.2925267 C6.68967972,66.3117438 6.93309609,67.3430605 7.18718861,68.3871886 C7.31459075,68.9088968 7.44412811,69.4341637 7.57651246,69.9615658 C7.8405694,71.0170819 8.11459075,72.0854093 8.39928826,73.1637011 C8.68398577,74.2427046 8.98007117,75.3323843 9.286121,76.433452 C10.5117438,80.8341637 11.9117438,85.4035587 13.5117438,90.0996441 C13.7060498,90.6683274 13.9024911,91.2391459 14.1024911,91.8120996 C14.9608541,94.2718861 15.8761566,96.7637011 16.8476868,99.283274 C16.9259786,99.4854093 17.0049822,99.6882562 17.083274,99.8918149 C17.1352313,100.024911 17.1864769,100.158007 17.2391459,100.291815 C17.2690391,100.370107 17.2989324,100.448399 17.3295374,100.527402 C18.0227758,102.293238 18.7437722,104.072598 19.4953737,105.86121 C19.9957295,107.054804 20.5103203,108.251246 21.0377224,109.452669 C21.8298932,111.255516 22.6519573,113.067616 23.5074733,114.886121 C24.0768683,116.099644 24.6619217,117.315302 25.2597865,118.533808 C25.858363,119.752313 26.4718861,120.973665 27.1003559,122.196441 C28.9850534,125.866904 31.0042705,129.554448 33.1672598,133.245552 C33.888968,134.474733 34.6256228,135.705338 35.3793594,136.935231 C35.7558719,137.550178 36.1373665,138.165836 36.5224199,138.780071 C37.2918149,140.009253 38.0782918,141.238434 38.8818505,142.466192 C40.0868327,144.307473 41.3302491,146.145196 42.6128114,147.980071 C43.4676157,149.202135 44.3402135,150.422064 45.230605,151.640569 C47.9010676,155.293238 50.7316726,158.921708 53.7323843,162.509609 C54.2327402,163.106762 54.7373665,163.703915 55.2469751,164.299644 C56.1893238,165.401423 57.1508897,166.498932 58.1259786,167.592171 C58.2049822,167.680427 58.283274,167.769395 58.3615658,167.858363 C59.3088968,168.916014 60.2768683,169.966548 61.2540925,171.014235 C61.6128114,171.397865 61.9772242,171.780071 62.3395018,172.161566 C62.7174377,172.560142 63.088968,172.961566 63.4718861,173.358719 C63.9587189,173.86548 64.4483986,174.370819 64.9430605,174.874733 C67.2163701,177.1879 69.5701068,179.475445 72.0071174,181.730961 C72.7587189,182.427046 73.5209964,183.118861 74.2882562,183.808541 C74.5430605,184.038434 74.8021352,184.266904 75.0590747,184.495374 C75.5758007,184.955872 76.0975089,185.414235 76.6220641,185.871174 C76.9309609,186.140925 77.2398577,186.410676 77.5523132,186.679004 C78.0505338,187.108897 78.5544484,187.535943 79.058363,187.962278 C79.5039146,188.33879 79.9501779,188.714591 80.4007117,189.088256 C80.9822064,189.572242 81.5672598,190.054804 82.1580071,190.53452 C82.6170819,190.907473 83.080427,191.27758 83.544484,191.647687 C83.8775801,191.913879 84.2120996,192.180783 84.5487544,192.446263 C85.0483986,192.839858 85.5494662,193.233452 86.055516,193.624199 C86.3487544,193.851246 86.6434164,194.076868 86.93879,194.303203 C87.4654804,194.70605 87.9914591,195.109609 88.5245552,195.51032 C88.9928826,195.862633 89.4697509,196.209964 89.9430605,196.559431 C90.2078292,196.75516 90.4704626,196.95089 90.7366548,197.146619 C91.8320285,197.950178 92.9686833,198.747331 94.0932384,199.537367 C187.423488,133.990036 187.493238,23.0377224 187.493238,23.0377224 C187.472598,23.027758 187.452669,23.0185053 187.43274,23.0085409" id="Fill-1" fill="#45275E"></path>
                <polyline id="Fill-2" fill="#45275E" points="108.511032 118.032028 108.511032 118.031317 108.511032 118.032028"></polyline>
                <path d="M36.8085409,48.2355872 C47.8782918,55.3864769 62.8875445,63.2263345 77.0818505,68.8505338 C77.2498221,68.9003559 77.4313167,68.9494662 77.6042705,68.9985765 C77.6042705,68.9985765 78.66121,74.9779359 83.5558719,77.7793594 C83.5558719,77.7793594 79.9779359,77.5658363 76.141637,72.8647687 C72.2661922,71.7900356 68.605694,70.0761566 64.9850534,68.8967972 C64.5871886,68.7672598 64.1843416,68.658363 63.7786477,68.5601423 C63.3345196,68.452669 62.8846975,68.3601423 62.4327402,68.2911032 C54.2718861,67.0327402 50.1302491,67.7487544 44.1736655,70.8177936 C43.9587189,70.9124555 43.7459075,71.0142349 43.5338078,71.119573 C43.4377224,71.1679715 43.3402135,71.2128114 43.2441281,71.2633452 C42.9402135,71.4234875 42.6384342,71.5935943 42.341637,71.7786477 C42.8021352,71.6996441 43.2661922,71.6405694 43.7309609,71.597153 C43.741637,71.5957295 43.7516014,71.5935943 43.7622776,71.5928826 C43.8782918,71.5814947 43.9950178,71.5743772 44.111032,71.5658363 C44.1879004,71.5601423 44.2640569,71.5530249 44.3409253,71.5480427 C44.5017794,71.5373665 44.6619217,71.5309609 44.8220641,71.5245552 C44.8733096,71.5224199 44.9252669,71.5188612 44.9765125,71.516726 C45.1886121,71.5103203 45.3992883,71.5053381 45.6106762,71.5046263 C45.6633452,71.5046263 45.7153025,71.5053381 45.7679715,71.5053381 C45.9259786,71.5060498 46.083274,71.5067616 46.2405694,71.5096085 C46.319573,71.5117438 46.3978648,71.5153025 46.4768683,71.5174377 C46.6078292,71.5209964 46.73879,71.5252669 46.8690391,71.5309609 C46.9530249,71.5352313 47.0362989,71.5402135 47.119573,71.544484 C47.2434164,71.5516014 47.366548,71.5587189 47.4896797,71.5672598 C47.5779359,71.5729537 47.6647687,71.5800712 47.7523132,71.5871886 C47.8697509,71.5964413 47.9871886,71.605694 48.1039146,71.6163701 C48.1921708,71.6241993 48.2790036,71.633452 48.366548,71.6419929 C48.4811388,71.6533808 48.5950178,71.6654804 48.7081851,71.6782918 C48.797153,71.6882562 48.8854093,71.6982206 48.9736655,71.7096085 C49.0839858,71.7224199 49.194306,71.7366548 49.3046263,71.7508897 C49.3900356,71.7622776 49.4761566,71.7743772 49.5622776,71.7857651 C49.6711744,71.8014235 49.7807829,71.8170819 49.888968,71.833452 C49.9736655,71.8469751 50.0576512,71.8590747 50.1423488,71.8725979 C50.2491103,71.8896797 50.3537367,71.9074733 50.4590747,71.9252669 C50.5423488,71.93879 50.6241993,71.9530249 50.7060498,71.9672598 C50.8128114,71.9864769 50.9174377,72.005694 51.0227758,72.0256228 C51.0989324,72.0398577 51.1758007,72.0533808 51.2512456,72.0683274 C51.3580071,72.0896797 51.4633452,72.1103203 51.5679715,72.1316726 C51.6405694,72.1466192 51.7145907,72.1608541 51.7864769,72.1758007 C51.8932384,72.1978648 51.9978648,72.2213523 52.1024911,72.2441281 C52.1672598,72.258363 52.233452,72.2718861 52.2975089,72.286121 C52.4135231,72.3124555 52.5266904,72.33879 52.6391459,72.3658363 C52.6896797,72.3772242 52.7423488,72.3893238 52.7921708,72.4014235 C52.9316726,72.4341637 53.0676157,72.4683274 53.2014235,72.5017794 C53.2234875,72.5074733 53.2462633,72.5124555 53.2676157,72.5181495 C53.4227758,72.5572954 53.5736655,72.5964413 53.7217082,72.6355872 C53.7594306,72.6462633 53.794306,72.6562278 53.8313167,72.6654804 C53.9395018,72.6946619 54.0462633,72.7245552 54.1501779,72.7530249 C54.2014235,72.7672598 54.2505338,72.7814947 54.3003559,72.7957295 C54.3864769,72.8199288 54.4718861,72.8441281 54.5537367,72.8676157 C54.6078292,72.8839858 54.658363,72.8989324 54.711032,72.9145907 C54.7864769,72.9366548 54.8604982,72.9587189 54.9323843,72.9807829 C54.9850534,72.9964413 55.0355872,73.0120996 55.0854093,73.027758 C55.1523132,73.0483986 55.2192171,73.0690391 55.2825623,73.088968 C55.3316726,73.1039146 55.3786477,73.1188612 55.424911,73.1338078 C55.486121,73.1530249 55.5459075,73.172242 55.6035587,73.1907473 C55.6512456,73.2064057 55.6960854,73.2213523 55.7402135,73.2362989 C55.7921708,73.252669 55.8434164,73.2704626 55.8925267,73.2868327 C55.9352313,73.3010676 55.9758007,73.3145907 56.0156584,73.3281139 C56.0654804,73.3451957 56.113879,73.3615658 56.1601423,73.3779359 C56.1928826,73.3886121 56.2256228,73.4 56.2576512,73.4113879 C56.3003559,73.4270463 56.3409253,73.4405694 56.3807829,73.4548043 C56.4128114,73.4669039 56.4448399,73.4775801 56.4740214,73.4882562 C56.5088968,73.5010676 56.5395018,73.5124555 56.5708185,73.5231317 C56.597153,73.5330961 56.6234875,73.5423488 56.6469751,73.5508897 C56.6754448,73.5615658 56.6989324,73.5708185 56.7238434,73.5793594 C56.7466192,73.5886121 56.7701068,73.597153 56.7900356,73.6049822 C56.8106762,73.6128114 56.8263345,73.6185053 56.8434164,73.624911 C56.8576512,73.630605 56.8733096,73.6362989 56.8846975,73.6412811 C56.9032028,73.6476868 56.9153025,73.6519573 56.9274021,73.6576512 C56.9516014,73.6661922 56.9672598,73.6733096 56.9672598,73.6733096 C56.5330961,73.6633452 56.1096085,73.6619217 55.6925267,73.6661922 C55.5551601,73.6669039 55.4227758,73.6718861 55.2875445,73.6747331 C55.0099644,73.6797153 54.7352313,73.6868327 54.4654804,73.6975089 C54.3131673,73.7039146 54.1629893,73.7124555 54.0120996,73.7202847 C53.7651246,73.7330961 53.5209964,73.747331 53.280427,73.7651246 C53.1295374,73.7758007 52.9814947,73.7879004 52.833452,73.8 C52.8327402,73.8 52.8327402,73.8 52.8327402,73.8 C52.7580071,73.8064057 52.6854093,73.8135231 52.6128114,73.8206406 C52.519573,73.8291815 52.4256228,73.8377224 52.3323843,73.8469751 C52.3316726,73.8469751 52.3316726,73.8469751 52.3302491,73.8469751 C51.7822064,73.9017794 51.2441281,73.9622776 50.7274021,74.0355872 C50.7217082,74.0362989 50.716726,74.0370107 50.7103203,74.0377224 C50.1871886,74.1124555 49.683274,74.1992883 49.1879004,74.2911032 C49.0747331,74.3124555 48.9615658,74.3330961 48.8491103,74.3551601 C48.3729537,74.4476868 47.9067616,74.5451957 47.4533808,74.6498221 C47.3807829,74.6661922 47.3103203,74.6846975 47.2384342,74.7010676 C46.8313167,74.797153 46.4320285,74.8967972 46.0405694,74.9992883 C45.9480427,75.0241993 45.8548043,75.0483986 45.7629893,75.0725979 C45.3366548,75.1871886 44.9181495,75.3046263 44.5074733,75.4234875 C44.4071174,75.452669 44.3088968,75.4818505 44.2092527,75.511032 C43.8491103,75.6163701 43.4932384,75.7231317 43.1437722,75.8291815 C43.0676157,75.8519573 42.9886121,75.8754448 42.9131673,75.8989324 C42.8946619,75.9046263 42.8775801,75.9103203 42.8597865,75.9145907 C42.5508897,76.0092527 42.2462633,76.1024911 41.9437722,76.194306 C41.8298932,76.2291815 41.713879,76.2640569 41.6007117,76.2989324 C41.5572954,76.3117438 41.5153025,76.3245552 41.4733096,76.3366548 C41.3822064,76.3637011 41.2925267,76.3907473 41.2021352,76.4177936 C41.0953737,76.4505338 40.9886121,76.4811388 40.8825623,76.5124555 C40.7117438,76.5637011 40.5409253,76.6156584 40.3729537,76.6647687 C40.2604982,76.6967972 40.1501779,76.7252669 40.0405694,76.7544484 C40.0341637,76.7558719 40.0284698,76.7580071 40.0213523,76.7594306 C40.0163701,76.7608541 40.0106762,76.7622776 40.0049822,76.7637011 C39.9544484,76.7772242 39.9024911,76.7914591 39.8512456,76.805694 C39.802847,76.8185053 39.7551601,76.8313167 39.7060498,76.8448399 C39.4377224,76.916726 39.1658363,76.9950178 38.9017794,77.06121 C38.7523132,77.0996441 38.605694,77.1338078 38.4576512,77.1686833 C38.119573,77.2505338 37.7829181,77.3274021 37.4505338,77.3978648 C37.2868327,77.4327402 37.1231317,77.4661922 36.9608541,77.4975089 C36.6298932,77.5629893 36.3017794,77.6206406 35.9758007,77.6733096 C35.8355872,77.6960854 35.6939502,77.7217082 35.5537367,77.741637 C35.0960854,77.8092527 34.6427046,77.8669039 34.1950178,77.9088968 C34.1921708,77.9088968 34.1893238,77.9096085 34.1857651,77.9096085 C33.8441281,77.941637 33.5060498,77.9622776 33.1686833,77.9779359 C33.0790036,77.9829181 32.9893238,77.9850534 32.8996441,77.9886121 C32.6192171,77.9985765 32.33879,78.0099644 32.0576512,78.0014235 C31.9950178,78 31.9309609,78.0021352 31.8676157,78.0014235 C31.5338078,77.9957295 31.2021352,77.9807829 30.8725979,77.9587189 C30.7893238,77.9530249 30.7060498,77.9459075 30.6227758,77.93879 C30.3466192,77.916726 30.0718861,77.8882562 29.797153,77.8533808 C29.7302491,77.8448399 29.6640569,77.8384342 29.5978648,77.8291815 C29.2711744,77.7836299 28.9466192,77.7288256 28.6227758,77.6654804 C28.5686833,77.6548043 28.5160142,77.6427046 28.4633452,77.6320285 C28.172242,77.569395 27.883274,77.5039146 27.5957295,77.430605 C27.5188612,77.4106762 27.4419929,77.3921708 27.3651246,77.3708185 C27.0427046,77.2825623 26.7202847,77.1857651 26.3985765,77.0782918 C26.3366548,77.0576512 26.2747331,77.033452 26.2120996,77.0120996 C25.9409253,76.9181495 25.6690391,76.8163701 25.397153,76.7081851 C25.313879,76.6747331 25.230605,76.6419929 25.1466192,76.6071174 C24.8234875,76.4725979 24.5003559,76.3309609 24.1758007,76.175089 C24.1359431,76.1558719 24.0953737,76.1345196 24.055516,76.1145907 C23.7644128,75.9736655 23.4733096,75.8220641 23.1822064,75.6626335 C23.0953737,75.6163701 23.0092527,75.569395 22.9231317,75.5209964 C22.5935943,75.3359431 22.2640569,75.1437722 21.9323843,74.9366548 C21.9323843,74.9366548 21.9352313,74.9437722 21.9359431,74.9451957 C21.9409253,74.9544484 21.9587189,74.9921708 21.9964413,75.0640569 C22.0042705,75.0782918 22.0163701,75.0996441 22.024911,75.1160142 C22.0412811,75.1466192 22.058363,75.1772242 22.0797153,75.2149466 C22.0939502,75.2405694 22.113879,75.2733096 22.1302491,75.3024911 C22.1516014,75.3395018 22.1729537,75.3758007 22.1992883,75.4192171 C22.2213523,75.4562278 22.2491103,75.5003559 22.2747331,75.5409253 C22.3010676,75.5822064 22.3259786,75.6234875 22.3558719,75.6697509 C22.3864769,75.7174377 22.4227758,75.7708185 22.4576512,75.8227758 C22.488968,75.8697509 22.5202847,75.9153025 22.5544484,75.9651246 C22.5921708,76.0213523 22.6362989,76.0811388 22.6790036,76.1402135 C22.716726,76.1935943 22.7544484,76.2455516 22.7950178,76.3010676 C22.8419929,76.3637011 22.8932384,76.4291815 22.9437722,76.4953737 C22.9879004,76.5530249 23.0320285,76.6099644 23.0797153,76.6690391 C23.1352313,76.73879 23.1950178,76.8113879 23.255516,76.8839858 C23.3060498,76.944484 23.3565836,77.0049822 23.4099644,77.0676157 C23.4747331,77.1430605 23.5437722,77.2199288 23.6128114,77.2975089 C23.6704626,77.3615658 23.7281139,77.4263345 23.7900356,77.4918149 C23.8633452,77.5715302 23.9409253,77.652669 24.0192171,77.7338078 C24.0846975,77.8014235 24.1501779,77.8690391 24.2185053,77.9366548 C24.3017794,78.0199288 24.3886121,78.1039146 24.4768683,78.1886121 C24.5494662,78.258363 24.6234875,78.3281139 24.7003559,78.3985765 C24.7928826,78.4839858 24.888968,78.5701068 24.9871886,78.6569395 C25.0683274,78.7281139 25.1508897,78.7992883 25.2355872,78.8711744 C25.3380783,78.9580071 25.4434164,79.0455516 25.5523132,79.1338078 C25.6412811,79.205694 25.7345196,79.2782918 25.8270463,79.3508897 C25.9402135,79.4391459 26.055516,79.5266904 26.1743772,79.6149466 C26.2725979,79.6882562 26.375089,79.7608541 26.4775801,79.833452 C26.6,79.9217082 26.7252669,80.0078292 26.8540925,80.0953737 C26.9629893,80.1686833 27.0754448,80.2412811 27.1886121,80.313879 C27.3217082,80.4 27.4562278,80.4854093 27.5950178,80.5715302 C27.713879,80.6441281 27.8377224,80.7160142 27.9608541,80.7879004 C28.1053381,80.8718861 28.2491103,80.9558719 28.3992883,81.0384342 C28.5288256,81.1096085 28.6640569,81.1800712 28.7985765,81.2498221 C28.9523132,81.3309609 29.1060498,81.4113879 29.2669039,81.4911032 C29.4085409,81.5608541 29.5565836,81.6284698 29.7024911,81.6967972 C29.8676157,81.7736655 30.0313167,81.8505338 30.2021352,81.9252669 C30.3558719,81.9928826 30.516726,82.0569395 30.6754448,82.1224199 C30.8505338,82.194306 31.0234875,82.2669039 31.205694,82.3366548 C31.3729537,82.4007117 31.5487544,82.46121 31.7224199,82.5238434 C31.9067616,82.5900356 32.0882562,82.6569395 32.2790036,82.7202847 C32.4626335,82.7814947 32.655516,82.8377224 32.8448399,82.8953737 C33.0377224,82.9544484 33.2263345,83.0156584 33.4256228,83.0718861 C33.630605,83.1288256 33.8462633,83.1807829 34.0576512,83.2355872 C34.2533808,83.2854093 34.4441281,83.33879 34.6462633,83.3857651 C34.8896797,83.4427046 35.1459075,83.4925267 35.3978648,83.544484 C35.5807829,83.5822064 35.7565836,83.6241993 35.9437722,83.658363 C36.3843416,83.7409253 36.8391459,83.8156584 37.3053381,83.8818505 C37.4690391,83.9060498 37.6427046,83.9224199 37.8085409,83.9437722 C38.1238434,83.9836299 38.4370107,84.0256228 38.7644128,84.0576512 C38.9672598,84.0775801 39.1829181,84.0903915 39.3907473,84.1074733 C39.6932384,84.1330961 39.9921708,84.1594306 40.3046263,84.1772242 C40.5302491,84.1900356 40.7672598,84.1950178 40.9978648,84.2042705 C41.3067616,84.2163701 41.6120996,84.2313167 41.9295374,84.2362989 C42.1743772,84.2405694 42.4284698,84.2362989 42.6775801,84.2362989 C42.9964413,84.2362989 43.3124555,84.2377224 43.6405694,84.230605 C43.9024911,84.2241993 44.175089,84.2106762 44.4434164,84.2 C44.7729537,84.1871886 45.1010676,84.175089 45.4391459,84.1544484 C54.8875445,84.0021352 66.4419929,80.5160142 76.7480427,87.0953737 C76.2241993,87.5565836 75.5459075,87.944484 75.5459075,87.944484 C68.4298932,92.5209964 53.8185053,95.1893238 46.3964413,95.9053381 L26.6925267,98.1580071 C24.8975089,93.6491103 23.2270463,89.0590747 21.6946619,84.3857651 C13.5978648,59.6967972 11.2405694,38.8099644 10.5551601,29.0092527 C30.1430605,20.4270463 53.5893238,15.4896797 80.458363,14.2548043 C73.4882562,17.741637 66.4491103,21.1565836 59.3088968,23.5046263 C37.1252669,30.8007117 20.1715302,33.7010676 20.1715302,33.7010676 C20.1715302,33.7010676 24.9900356,40.7508897 36.8085409,48.2355872" id="Fill-3" fill="#E26030"></path>
                <path d="M170.589324,59.5615658 C170.003559,60.8690391 165.557295,70.5928826 147.755872,74.9629893 C147.652669,70.3950178 146.492527,66.1758007 146.492527,66.1758007 C146.492527,66.1758007 146.732384,74.7508897 143.674021,83.0035587 C143.596441,83.2135231 143.508185,83.4220641 143.425623,83.6313167 C143.281851,83.975089 143.125979,84.3259786 142.969395,84.6782918 C142.343772,85.8120996 141.959431,86.3160142 141.959431,86.3160142 C141.959431,86.3160142 141.990036,88.9957295 140.719573,91.5259786 C140.313167,92.3345196 139.718149,93.0206406 139.124555,93.7039146 C138.382918,94.5580071 138.145196,96.5316726 137.498932,98.4619217 C137.335231,98.9558719 137.140925,99.4434164 136.906762,99.9103203 C136.350178,101.021352 135.559431,102.005694 134.318149,102.593594 C133.202135,103.12242 132.103915,103.408541 131.067616,103.540214 C130.486833,103.753025 129.908185,103.982918 129.33879,104.240569 C128.755872,104.503915 128.182918,104.796441 127.619929,105.118149 C127.029893,105.455516 126.453381,105.826335 125.896797,106.241993 C131.437011,109.622064 138.924555,116.492527 138.924555,116.492527 L135.02847,120.140214 L127.06121,115.666904 C127.06121,115.666904 130.501779,120.441281 132.331673,122.664769 L128.498932,126.253381 L140.12669,139.005694 C151.25694,122.373665 160.201423,103.782918 166.709609,83.7501779 C174.679004,59.2199288 176.98363,38.6967972 177.649822,29.0135231 C173.131673,27.0327402 164.32669,23.8078292 163.472598,23.6654804 C165.190036,31.4120996 162.736655,44.1850534 170.589324,59.5615658" id="Fill-4" fill="#FFFFFE"></path>
                <path d="M138.918861,73.3558719 C138.881851,73.8291815 138.730961,74.1060498 138.513167,74.2754448 C138.425623,74.3437722 138.328826,74.3950178 138.223488,74.4348754 C137.906762,74.5537367 137.521708,74.5729537 137.146619,74.6498221 C137.101779,74.7124555 137.055516,74.7765125 137.014235,74.8341637 C136.932384,74.947331 136.836299,75.052669 136.727402,75.1480427 C136.51032,75.3395018 136.242705,75.4932384 135.942349,75.5992883 C135.791459,75.6519573 135.633452,75.6932384 135.469039,75.7209964 C135.225623,75.7615658 135.005694,75.7978648 134.794306,75.8320285 C134.515302,75.8768683 134.254093,75.9181495 134.024911,75.9516014 C133.620641,76.0106762 133.28968,76.0519573 133.017082,76.080427 C132.854093,76.0960854 132.715302,76.1067616 132.590747,76.1131673 C132.575801,76.113879 132.559431,76.1153025 132.544484,76.1160142 C132.410676,76.1217082 132.297509,76.1224199 132.202135,76.1174377 C131.916726,76.1039146 131.785765,76.0448399 131.695374,75.9594306 C131.639858,75.9088968 131.580783,75.8683274 131.524555,75.8199288 C131.224911,75.5637011 130.914591,75.3423488 130.592883,75.1594306 C129.85694,74.7402135 129.07758,74.4747331 128.320285,74.1957295 C127.927402,74.0505338 127.540214,73.9010676 127.168683,73.7238434 C126.770819,73.5352313 126.392171,73.3153025 126.041993,73.033452 C125.925979,72.9402135 125.811388,72.8398577 125.701779,72.7316726 C125.592171,72.6241993 125.486121,72.5081851 125.385053,72.3843416 C125.373665,72.3708185 125.367972,72.3580071 125.358719,72.344484 C125.269751,72.2256228 125.208541,72.1053381 125.182918,71.9857651 C125.153025,71.8533808 125.160142,71.7217082 125.198577,71.594306 C125.256228,71.402847 125.382918,71.2213523 125.561566,71.0604982 C125.680427,70.9537367 125.822064,70.855516 125.981495,70.7701068 C126.140925,70.6846975 126.317438,70.6113879 126.506762,70.5544484 C126.696085,70.4967972 126.896797,70.4562278 127.105338,70.4327402 C127.22847,70.4192171 127.356584,70.427758 127.483986,70.4284698 C127.57153,70.4291815 127.656228,70.4177936 127.744484,70.424911 C127.854093,70.4348754 127.962278,70.4498221 128.070463,70.4704626 C128.509609,70.5551601 128.932384,70.6241993 129.342349,70.6782918 C129.752313,70.7330961 130.148043,70.7743772 130.529537,70.8042705 C130.911744,70.8341637 131.279004,70.8533808 131.63274,70.8633452 C131.809964,70.8683274 131.982918,70.8718861 132.153025,70.8725979 C132.492527,70.8740214 132.818505,70.8690391 133.131673,70.858363 C133.157295,70.8576512 133.181495,70.8562278 133.207829,70.8548043 C133.336655,70.8505338 133.464769,70.8455516 133.589324,70.8384342 C133.888256,70.8241993 134.173665,70.805694 134.445552,70.7850534 C135.124555,70.7352313 135.720996,70.6775801 136.237011,70.6498221 C136.444128,70.6391459 136.637722,70.6320285 136.818505,70.633452 C136.909609,70.6341637 136.997153,70.6370107 137.081851,70.6412811 C137.504626,70.6640569 137.850534,70.7409253 138.12242,70.9096085 C138.177224,70.9437722 138.229893,70.9807829 138.278292,71.0227758 C138.314591,71.0533808 138.343772,71.0925267 138.375801,71.1274021 C138.410676,71.1644128 138.447687,71.1964413 138.478292,71.2377224 C138.569395,71.3594306 138.646263,71.5053381 138.709609,71.6768683 C138.740925,71.7622776 138.767972,71.8548043 138.792883,71.9544484 C138.797153,71.9715302 138.8,71.9928826 138.803559,72.0106762 C138.822776,72.0953737 138.840569,72.1807829 138.856228,72.2747331 C138.88968,72.4960854 138.911032,72.6953737 138.921708,72.8754448 C138.931673,73.0548043 138.930961,73.2142349 138.918861,73.3558719 M117.974377,82.8014235 C118.024199,82.7060498 118.107473,82.5629893 118.232028,82.3921708 C118.356584,82.2213523 118.523132,82.0234875 118.740214,81.8170819 C118.957295,81.6113879 119.223488,81.3978648 119.549466,81.197153 C119.711744,81.0967972 119.888968,80.9992883 120.082562,80.9074733 C120.275445,80.8156584 120.484698,80.7295374 120.71032,80.6505338 C120.890391,80.5886121 121.084698,80.5281139 121.28968,80.4690391 C121.494662,80.4099644 121.712456,80.3523132 121.940925,80.2975089 C122.397865,80.1864769 122.897509,80.0825623 123.433452,79.9843416 C124.504626,79.7900356 125.716014,79.6227758 127,79.483274 C127.130961,79.4690391 127.318149,79.4797153 127.516726,79.5067616 C127.64911,79.5231317 127.786477,79.547331 127.916726,79.575089 C127.980783,79.5893238 128.044128,79.6035587 128.103203,79.6199288 C128.222776,79.6505338 128.32669,79.6839858 128.40427,79.7160142 L129.597153,80.2597865 L130.99573,80.8967972 C131.248399,81.0113879 131.44484,81.0797153 131.646263,81.1330961 C131.747331,81.1594306 131.850534,81.1822064 131.963701,81.2049822 C132.027046,81.2185053 132.104626,81.233452 132.175801,81.2462633 C132.231317,81.2569395 132.279004,81.2669039 132.340925,81.2782918 L135.048399,81.6626335 C135.352313,81.7060498 135.614235,81.8483986 135.796441,82.0476868 C135.813523,82.0669039 135.834875,82.083274 135.850534,82.1032028 C135.91032,82.1800712 135.958719,82.2654804 135.993594,82.3558719 C136.044128,82.4903915 136.101779,82.6519573 136.159431,82.8348754 C136.165836,82.8548043 136.172954,82.880427 136.178648,82.9010676 C136.231317,83.0676157 136.284698,83.2455516 136.33879,83.4412811 C136.377936,83.5871886 136.417082,83.7402135 136.456228,83.8975089 C136.531673,84.2120996 136.602847,84.5459075 136.66121,84.8846975 C136.66121,84.8846975 136.66121,84.8854093 136.661922,84.886121 C136.719573,85.2256228 136.765125,85.5686833 136.790747,85.9003559 C136.495374,85.3508897 135.535943,84.4569395 132.558719,83.4733096 C131.90605,83.2576512 131.160142,83.0384342 130.298932,82.8170819 C129.475445,82.605694 128.69395,82.4505338 127.938078,82.3231317 C122.341637,81.1800712 118.011388,82.7836299 117.974377,82.8014235 M134.703915,88.1096085 C134.66548,88.1558719 134.635587,88.2014235 134.591459,88.2476868 C134.482562,88.3637011 134.358007,88.4797153 134.225623,88.594306 C134.212811,88.605694 134.200712,88.6163701 134.1879,88.627758 C134.084698,88.7153025 133.976512,88.802847 133.866192,88.8868327 C133.639858,89.0597865 133.410676,89.2185053 133.193594,89.3637011 C133.165836,89.3814947 133.135943,89.402847 133.108185,89.4206406 C132.972954,89.5096085 132.846263,89.5893238 132.732384,89.6604982 C132.666192,89.7010676 132.614947,89.7316726 132.560854,89.7644128 C131.523132,88.2455516 129.07758,86.5117438 123.804982,87.766548 C123.41637,87.5644128 123.069039,87.3572954 122.760854,87.1501779 C122.44484,86.9380783 122.167972,86.7259786 121.928114,86.5202847 C121.807117,86.4170819 121.696797,86.3153025 121.593594,86.2170819 C121.388612,86.0192171 121.21637,85.8298932 121.072598,85.6569395 C120.923843,85.4761566 120.814235,85.319573 120.721708,85.1779359 C120.658363,85.0811388 120.599288,84.9864769 120.558719,84.9124555 C120.457651,84.7302491 120.419929,84.6241993 120.419929,84.6241993 C120.419929,84.6241993 120.488968,84.6206406 120.61637,84.6156584 C120.658363,84.6142349 120.707473,84.6128114 120.762989,84.6106762 C120.982918,84.6042705 121.303203,84.597153 121.701779,84.5964413 C122.020641,84.5957295 122.389324,84.5985765 122.797153,84.6085409 C123.204982,84.6192171 123.651246,84.6362989 124.125267,84.6640569 C124.6,84.6911032 125.101779,84.7288256 125.621352,84.7800712 C126.920285,84.9081851 128.32669,85.1202847 129.666192,85.4676157 C130.203559,85.6064057 130.687544,85.7487544 131.123132,85.8918149 C131.135231,85.8953737 131.145196,85.8989324 131.157295,85.9032028 C131.578648,86.0419929 131.956584,86.1807829 132.291815,86.316726 C132.809253,86.5274021 133.22847,86.7316726 133.567972,86.9202847 C133.906762,87.1081851 134.164413,87.280427 134.357295,87.4263345 C134.74306,87.7181495 134.870463,87.9046263 134.870463,87.9046263 C134.826335,87.972242 134.761566,88.0412811 134.703915,88.1096085 M135.454093,93.6882562 C135.530249,92.5003559 135.688256,90.8782918 136.897509,89.7345196 C139.24484,87.5160142 138.867616,83.6291815 138.867616,83.6291815 C139.102491,83.1758007 139.318861,82.7338078 139.529537,82.2932384 C139.822064,81.6818505 140.100356,81.0790036 140.349466,80.4946619 C140.586477,79.9380783 140.799288,79.3978648 140.999288,78.8683274 C141.159431,78.4434164 141.313167,78.0241993 141.449822,77.6163701 C141.486833,77.5067616 141.518861,77.4014235 141.554448,77.2932384 C141.716014,76.8007117 141.864769,76.3174377 141.995018,75.8519573 C142.026335,75.7380783 142.049822,75.6313167 142.080427,75.5188612 C142.27331,74.7957295 142.436299,74.1010676 142.560142,73.4519573 C142.606406,73.202847 142.64911,72.9594306 142.686833,72.7217082 C142.8,72.0092527 142.871174,71.3494662 142.907473,70.7459075 C142.919573,70.5459075 142.927402,70.3516014 142.931673,70.1637011 C142.94306,69.6683274 142.92669,69.2241993 142.891103,68.8213523 C142.888256,68.7857651 142.886833,68.744484 142.883986,68.7096085 C142.880427,68.6761566 142.874021,68.6476868 142.869751,68.6142349 C142.869751,68.6135231 142.869751,68.6128114 142.869751,68.6120996 C142.438434,66.7466192 140.713879,66.7231317 139.651246,66.9017794 C139.558007,66.9174377 139.471174,66.9345196 139.390036,66.9516014 C139.258363,66.9800712 139.144484,67.0085409 139.051957,67.0348754 L138.587189,68.5537367 L138.579359,68.7231317 C138.332384,68.2469751 138.119573,67.7124555 137.925267,67.1622776 C137.881139,67.0362989 137.830605,66.9145907 137.788612,66.7857651 C137.713167,66.5572954 137.642705,66.3259786 137.575089,66.0946619 C137.381495,65.430605 137.219929,64.7658363 137.086121,64.1373665 C137.060498,64.0142349 137.035587,63.8939502 137.011388,63.775089 C136.920285,63.316726 136.841993,62.883274 136.780071,62.4996441 C136.758719,62.372242 136.739502,62.2505338 136.72242,62.1338078 C136.686833,61.9010676 136.657651,61.6925267 136.633452,61.5131673 C136.617794,61.4 136.605694,61.2989324 136.594306,61.2106762 C136.585765,61.144484 136.578648,61.0854093 136.572954,61.0341637 C136.554448,60.880427 136.546619,60.7950178 136.546619,60.7950178 C136.521708,60.6975089 136.504626,60.597153 136.495374,60.4946619 C136.485409,60.3914591 136.483274,60.2868327 136.486833,60.1807829 C136.494662,59.9686833 136.527402,59.7508897 136.577224,59.5338078 C136.62847,59.3160142 136.695374,59.0996441 136.774377,58.888968 C136.852669,58.6790036 136.940925,58.4747331 137.032028,58.283274 C137.129537,58.080427 137.22847,57.8946619 137.323843,57.7259786 C137.367972,57.6476868 137.408541,57.5800712 137.449822,57.511032 C135.259075,56.0505338 133.817794,56.1658363 132.128114,56.0256228 C132.106762,56.0697509 132.088256,56.1081851 132.06548,56.1551601 C131.985765,56.3160142 131.896085,56.4953737 131.79573,56.7017794 C131.661922,56.9758007 131.508185,57.2953737 131.330961,57.6768683 C131.082562,58.2135231 131.037722,59.1074733 131.242705,59.6619217 C131.31032,59.8462633 131.369395,60.0192171 131.430605,60.1957295 C131.482562,60.347331 131.536655,60.4982206 131.585053,60.6448399 C131.666904,60.8911032 131.744484,61.1345196 131.813523,61.3658363 C131.891815,61.630605 131.962989,61.8846975 132.026335,62.1302491 C132.153025,62.6213523 132.248399,63.0761566 132.316014,63.4946619 C132.350178,63.7046263 132.377936,63.9053381 132.397865,64.0982206 C132.501068,65.0640569 132.437722,65.8170819 132.255516,66.4042705 C132.201423,66.5807829 132.135231,66.741637 132.06121,66.8896797 C131.911744,67.1857651 131.723843,67.424911 131.508897,67.6206406 C131.401423,67.7188612 131.287544,67.8049822 131.167972,67.8811388 C130.848399,68.086121 130.490391,68.2192171 130.116726,68.3074733 C130.009964,68.3323843 129.901068,68.3494662 129.792171,68.3679715 C129.250534,68.4604982 128.695374,68.4782918 128.197865,68.488968 C128.017794,68.4925267 127.846975,68.4960854 127.685409,68.5024911 C127.525267,68.5088968 127.375801,68.5181495 127.239146,68.5345196 C127.007829,68.5629893 126.812811,68.5644128 126.602135,68.5772242 C126.570107,68.5786477 126.533808,68.5836299 126.501068,68.5857651 C126.317438,68.5985765 126.121708,68.6206406 125.871886,68.6768683 C125.742349,68.7060498 125.599288,68.7437722 125.438434,68.794306 C125.205694,68.8661922 124.933808,68.9644128 124.613523,69.0953737 C124.6,69.1010676 124.590036,69.1046263 124.576512,69.1096085 C124.351601,69.202847 124.101779,69.3117438 123.822776,69.4398577 C123.822776,69.4398577 123.997865,69.1330961 124.303915,68.6960854 C124.407829,68.547331 124.52669,68.3836299 124.659075,68.2113879 C124.790036,68.0427046 124.933808,67.8654804 125.087544,67.6882562 C125.319573,67.4213523 125.576512,67.1516014 125.854093,66.9003559 C126.130961,66.6498221 126.427758,66.4185053 126.73879,66.2291815 C126.879715,66.1423488 127.004982,66.0505338 127.116726,65.9537367 C127.229893,65.8569395 127.32669,65.7551601 127.4121,65.6483986 C127.525979,65.5067616 127.615658,65.3587189 127.684698,65.202847 C127.68968,65.1914591 127.691815,65.1793594 127.697509,65.1686833 C127.765125,65.0099644 127.807829,64.8441281 127.837722,64.6761566 C127.850534,64.6071174 127.866192,64.5402135 127.872598,64.4711744 C127.750178,64.2483986 127.618505,64.0441281 127.476868,63.8569395 C127.335943,63.6697509 127.186477,63.4982206 127.027758,63.3437722 C126.67331,62.9978648 126.281139,62.7281139 125.859786,62.5217082 C125.811388,62.4982206 125.760142,62.4839858 125.711032,62.46121 C125.332384,62.2911032 124.935943,62.1601423 124.523132,62.0768683 C124.212811,62.0149466 123.89395,61.9736655 123.57153,61.9523132 C123.560854,61.9523132 123.552313,61.9494662 123.542349,61.9487544 C122.67758,61.9871886 121.878292,61.8669039 121.108185,61.6569395 C120.851246,61.5864769 120.596441,61.5060498 120.344484,61.4185053 C120.071174,61.3231317 119.8,61.2227758 119.529537,61.1153025 C119.148043,60.9629893 118.766548,60.8021352 118.380783,60.6434164 C118.172954,60.5572954 117.958007,60.4768683 117.745196,60.3935943 C117.637722,60.3508897 117.531673,60.3074733 117.422064,60.2669039 C117.350178,60.2391459 117.279715,60.2092527 117.206406,60.1822064 C116.634164,59.9736655 116.040569,59.7921708 115.4121,59.6619217 C115.163701,59.6106762 114.91032,59.5651246 114.64911,59.5330961 C114.415658,59.4007117 114.1879,59.2718861 113.973665,59.1501779 C113.847687,59.0797153 113.736655,59.0170819 113.619217,58.9508897 C113.535943,58.9046263 113.44484,58.852669 113.36726,58.8092527 C113.241993,58.73879 113.124555,58.6725979 113.015658,58.6113879 C113.464769,58.3487544 113.93452,58.1266904 114.413523,57.9266904 C115.170107,57.6113879 115.95516,57.3686833 116.756584,57.2284698 C117.043416,57.1779359 117.332384,57.1409253 117.622776,57.1153025 C117.912456,57.0896797 118.202847,57.0761566 118.492527,57.0761566 C118.519573,57.0761566 118.546619,57.0790036 118.573665,57.0797153 C118.837011,57.0811388 119.099644,57.088968 119.361566,57.1117438 C119.621352,57.1330961 119.880427,57.169395 120.138078,57.2113879 C120.16726,57.2170819 120.196441,57.2185053 120.224911,57.2227758 C120.21637,57.2199288 120.207117,57.2170819 120.2,57.2135231 C119.822064,57.058363 119.436299,56.9053381 119.044128,56.7572954 C118.642705,56.6064057 118.234875,56.4597865 117.820641,56.3209964 C117.392171,56.1772242 116.958719,56.0412811 116.523132,55.9153025 C116.269039,55.8419929 116.014235,55.7729537 115.758719,55.7074733 C115.138078,55.5466192 114.514591,55.4085409 113.895374,55.3024911 C113.516726,55.2370107 113.140925,55.1879004 112.765836,55.147331 C112.496797,55.1181495 112.22847,55.0918149 111.963701,55.0768683 C111.961566,55.0768683 111.958719,55.0761566 111.95516,55.0761566 C111.743772,55.0647687 111.532384,55.0569395 111.323843,55.055516 C111.114591,55.0533808 110.908185,55.0569395 110.702491,55.0654804 C110.446263,55.0761566 110.192883,55.0946619 109.944484,55.1231317 C109.509609,55.172242 109.08968,55.2548043 108.681139,55.3622776 C108.533808,55.4007117 108.387189,55.4419929 108.242705,55.4875445 C108.098221,55.5330961 107.955872,55.5829181 107.814947,55.6384342 C107.281139,55.8519573 106.779359,56.1302491 106.318149,56.4818505 C106.163701,56.5992883 106.014947,56.7245552 105.869751,56.858363 C105.675445,57.0377224 105.491103,57.2313167 105.315302,57.4405694 C105.107473,57.688968 104.911032,57.9558719 104.728826,58.2469751 C104.637722,58.3928826 104.550178,58.5451957 104.46548,58.7032028 C104.381495,58.8619217 104.302491,59.0263345 104.225623,59.1978648 C104.095374,59.4925267 103.975801,59.7864769 103.866192,60.080427 C103.756584,60.3736655 103.657651,60.6676157 103.568683,60.9601423 C103.390036,61.547331 103.250534,62.1309609 103.147331,62.7103203 C102.799288,64.6540925 102.853381,66.5451957 103.150178,68.316726 C103.246263,68.8868327 103.366548,69.4448399 103.507473,69.9879004 C103.577936,70.2604982 103.654093,70.5288256 103.733808,70.7935943 C103.866904,71.2327402 104.013523,71.6590747 104.16726,72.0747331 C104.291815,72.4113879 104.420641,72.7430605 104.555872,73.0626335 C104.635587,73.2512456 104.717438,73.4341637 104.799288,73.6163701 C104.821352,73.6647687 104.842705,73.7153025 104.864769,73.7637011 C105.067616,74.2064057 105.27758,74.6291815 105.488256,75.0298932 C105.495374,75.0434164 105.502491,75.058363 105.508897,75.0718861 C106.166548,76.3160142 106.834875,77.3451957 107.365125,78.0939502 C107.54306,78.3437722 107.704626,78.5622776 107.84484,78.747331 C108.197153,79.2099644 108.417082,79.4590747 108.417082,79.4590747 C108.417082,79.4590747 108.311032,79.4476868 108.12669,79.4192171 C107.909609,79.3857651 107.582918,79.3266904 107.172242,79.2284698 C106.95516,79.1772242 106.716014,79.1145907 106.459786,79.0391459 C106.011388,78.9074733 105.508897,78.7366548 104.980783,78.5181495 C104.453381,78.2989324 103.898932,78.0313167 103.345196,77.7053381 L103.901779,84.8740214 C103.861922,85.3679715 103.88968,85.8825623 103.976512,86.4035587 C104.004982,86.5779359 104.040569,86.7523132 104.081851,86.9281139 C104.165125,87.2782918 104.274733,87.630605 104.404982,87.9793594 C104.408541,87.9886121 104.414235,87.9985765 104.417794,88.0078292 C104.545907,88.347331 104.69395,88.6846975 104.862633,89.0135231 C105.357295,89.9857651 106.013523,90.8967972 106.765125,91.6483986 C106.916014,91.7992883 107.069751,91.9437722 107.227758,92.080427 C107.269751,92.1160142 107.312456,92.147331 107.354448,92.1829181 C107.632028,92.4135231 107.916726,92.6270463 108.209964,92.8085409 C108.378648,92.913879 108.550178,93.0092527 108.723132,93.0953737 C108.93452,93.2007117 109.14306,93.3032028 109.348754,93.4014235 C109.760854,93.6007117 110.163701,93.7864769 110.562278,93.9608541 C111.558719,94.3978648 112.528114,94.7629893 113.55516,95.0690391 C114.172242,95.252669 114.809964,95.4149466 115.486833,95.5587189 C115.712456,95.6064057 115.94306,95.652669 116.177936,95.6967972 C116.706762,95.7957295 117.259786,95.8846975 117.846263,95.9658363 C118.23274,96.0185053 118.608541,96.1316726 118.956584,96.3074733 L118.992171,96.3259786 C119.360854,96.7067616 119.770107,97.0633452 120.224199,97.3857651 C121.24911,98.1131673 122.499644,98.6604982 124.033452,98.8839858 C124.044128,98.886121 124.054804,98.8882562 124.064769,98.8896797 C125.853381,99.1451957 127.264057,99.2469751 128.397153,99.233452 C128.812811,99.2519573 129.221352,99.2476868 129.615658,99.2128114 C130.73452,99.113879 131.624199,98.9551601 132.336655,98.7551601 C132.340925,98.7537367 132.345196,98.7530249 132.349466,98.7516014 C133.154448,98.5252669 133.756584,97.9316726 134.288968,97.2868327 C135.462633,95.713879 135.454093,93.6882562 135.454093,93.6882562" id="Fill-5" fill="#E26030"></path>
                <path d="M94.3957295,116.271174 C94.3957295,116.271174 100.479004,128.088256 104.952313,155.153737 C104.952313,155.153737 114.005694,152.694662 121.822776,140.527402 C121.822776,140.527402 118.939502,144.390036 111.466192,145.540214 C111.466192,145.540214 107.73452,142.452669 102.545196,124.808541 L113.475445,140.825623 C113.475445,140.825623 116.432028,136.133096 125.034875,133.90605 C125.034875,133.90605 115.389324,130.513879 110.785053,122.535943 C110.785053,122.535943 115.721708,116.379359 122.341637,111.168683 L119.67331,110.254804 L108.647687,117.674021 L111.287544,107.144484 L103.724555,101.670463 L94.3957295,116.271174" id="Fill-6" fill="#FFFFFE"></path>
                <path d="M76.7786477,123.029181 C75.4405694,121.357295 72.4448399,118.44484 67.0654804,116.896085 L66.2071174,116.747331 C65.6256228,115.528114 64.6619217,114.475445 63.3985765,114.214947 C59.8725979,113.488968 62.4078292,121.068327 65.2683274,121.346619 C66.1145907,121.42847 66.5957295,120.883986 66.7644128,120.066192 L76.7786477,123.029181" id="Fill-7" fill="#E26030"></path>
                <path d="M77.0213523,149.308897 C76.4633452,148.282562 76.0341637,147.560854 74.8327402,147.487544 C71.6932384,147.296797 73.2775801,153.096797 75.8192171,152.997153 C76.5451957,152.968683 77.4106762,152.529537 77.5395018,151.871886 L86.0911032,153.878292 C83.8875445,150.801423 77.0213523,149.308897 77.0213523,149.308897" id="Fill-8" fill="#E26030"></path>
                <path d="M70.4099644,133.570819 C70.3516014,133.467616 70.2896797,133.375801 70.286121,133.374377 C69.7701068,132.585765 69.0370107,131.964413 68.1153025,131.782918 C64.8370107,131.13879 66.9409253,137.970819 69.6170819,138.214235 C70.6106762,138.304626 71.1024911,137.511744 71.1580071,136.451246 L82.5800712,139.683986 C79.227758,136.478292 72.169395,134.039146 70.4099644,133.570819" id="Fill-9" fill="#E26030"></path>
                <path d="M89.0434164,62.9779359 C89.055516,62.6669039 89.1117438,62.3864769 89.2256228,62.1537367 C89.2647687,62.0740214 89.3103203,62 89.3637011,61.9330961 C89.4270463,61.8512456 89.5024911,61.7793594 89.5893238,61.7181495 C89.7637011,61.594306 89.9850534,61.5117438 90.2540925,61.4718861 C90.3886121,61.4519573 90.5352313,61.4427046 90.6946619,61.4441281 C90.8106762,61.4462633 90.9323843,61.452669 91.06121,61.4654804 C91.3188612,61.4903915 91.602847,61.5402135 91.9238434,61.6256228 C92.0839858,61.6676157 92.2533808,61.7188612 92.433452,61.7793594 C92.1217082,60.3288256 91.5743772,59.3338078 90.9402135,58.7039146 C90.7459075,58.511032 90.5437722,58.3530249 90.3373665,58.2291815 C90.027758,58.0427046 89.7081851,57.9316726 89.3935943,57.8882562 C89.288968,57.8740214 89.1850534,57.8676157 89.0811388,57.8682741 C88.8747331,57.8697509 88.6725979,57.9010676 88.4782918,57.9601423 C88.3814947,57.9893238 88.286121,58.0256228 88.1935943,58.0690391 C88.0092527,58.1551601 87.8348754,58.2676157 87.6747331,58.4064057 C87.5145907,58.544484 87.3701068,58.7074733 87.2434164,58.8939502 C87.0747331,59.1409253 86.9466192,59.4348754 86.8533808,59.7601423 C86.8419929,59.8014235 86.8234875,59.8384342 86.8135231,59.8811388 C86.7886121,59.9793594 86.7814947,60.0896797 86.7601423,60.1907473 C86.6604982,60.6854093 86.6049822,61.2113879 86.6035518,61.7558719 C86.6014235,63.3886121 87.0953737,65.1914591 88.3879004,66.8270463 C88.569395,67.0569395 88.7658363,67.2839858 88.9772242,67.5067616 C89.1886121,67.7295374 89.4163701,67.947331 89.6619217,68.1608541 C89.9067616,68.3729537 90.1701068,68.5800712 90.452669,68.7814947 C90.7345196,68.9822064 91.0362989,69.1765125 91.3601423,69.3622776 C91.3594306,69.3615658 91.3451957,69.3373665 91.3259786,69.3039146 C91.2868327,69.2362989 91.2156584,69.1124555 91.1174377,68.9338078 C91.1124555,68.9245552 91.1096085,68.919573 91.1046263,68.9103203 C91.0733096,68.8533808 91.0384342,68.7886121 91.0021352,68.7231317 C90.994306,68.7060498 90.9857651,68.6925267 90.9765125,68.6754448 C90.8960854,68.5245552 90.8049822,68.3501779 90.7088968,68.1615658 C90.6960854,68.1373665 90.6839858,68.1145907 90.6711744,68.0896797 C90.6163701,67.9814947 90.5594306,67.8683274 90.5017794,67.7494662 C90.4213523,67.5857651 90.3395018,67.4120996 90.2569395,67.233452 C90.2149466,67.1437722 90.1736655,67.0519573 90.1316726,66.9594306 C89.9658363,66.5886121 89.8014235,66.197153 89.652669,65.7992883 C89.6455516,65.7800712 89.6384342,65.7615658 89.6313167,65.7423488 C89.405694,65.1302491 89.2177936,64.5074733 89.1174377,63.9316726 C89.088968,63.7658363 89.0676157,63.6035587 89.0540925,63.4469751 C89.0412811,63.2896797 89.0370107,63.1380783 89.0419929,62.9935943 C89.0419929,62.9886121 89.0427046,62.9836299 89.0434164,62.9779359" id="Fill-10" fill="#E26030"></path>
                <path d="M153.686121,31.2049822 C153.541637,31.3395018 153.312456,31.5323843 152.993594,31.7423488 C152.913879,31.7935943 152.827758,31.8476868 152.738078,31.9010676 C152.6,31.9807829 152.451957,32.0619217 152.28968,32.1409253 C152.127402,32.2206406 151.952313,32.2982206 151.763701,32.3715302 C151.44484,32.4548043 151.12669,32.5181495 150.809964,32.5658363 C150.550178,32.6049822 150.293238,32.624911 150.036299,32.6412811 C149.666192,32.6640569 149.298932,32.6718861 148.938078,32.6519573 C148.246975,32.6149466 147.572954,32.5017794 146.920996,32.3266904 C146.703915,32.2683274 146.488968,32.2035587 146.276868,32.1316726 C144.86548,31.655516 143.580071,30.8975089 142.501779,30.0042705 C141.962278,29.5572954 141.474733,29.0775801 141.049822,28.5814947 C140.624199,28.086121 140.260498,27.5758007 139.970107,27.0683274 C139.73452,26.6946619 139.513167,26.3096085 139.308185,25.9124555 C139.103915,25.5145907 138.916014,25.1039146 138.745907,24.6797153 C138.218505,23.3644128 137.638434,21.919573 136.927402,20.5551601 C136.690391,20.0996441 136.438434,19.6533808 136.169395,19.2241993 C135.609964,18.4192171 135.01637,17.6256228 134.377936,16.8548043 C134.34306,16.8128114 134.311032,16.7701068 134.276157,16.7281139 C134.050534,16.4590747 133.817082,16.1921708 133.577224,15.9302491 C132.377224,14.6192171 131.001423,13.4120996 129.348043,12.405694 C128.353737,11.8 127.249822,11.2740214 126.031317,10.8362989 C126.030605,10.8362989 126.030605,10.8362989 126.029181,10.8355872 C126.024911,10.8341637 126.018505,10.8327402 126.014947,10.830605 C124.402135,10.252669 122.582918,9.8341637 120.491103,9.63629893 C119.883986,9.57864769 119.279004,9.54021352 118.674733,9.51957295 C118.57153,9.51530249 118.468327,9.51743772 118.365125,9.51530249 C116.654804,9.47188612 114.951601,9.56298932 113.252669,9.77864769 C112.051246,9.9316726 110.853381,10.144484 109.65694,10.4092527 C107.264057,10.9395018 104.878292,11.680427 102.496085,12.575089 C101.345907,13.0078292 100.197153,13.4868327 99.0476868,13.9843416 C98.4113879,14.2597865 97.7758007,14.5338078 97.1395018,14.8263345 C94.7594306,15.9217082 92.3779359,17.1288256 89.9928826,18.3921708 C88.8007117,19.0241993 87.6064057,19.6690391 86.4106762,20.3217082 C85.2149466,20.9743772 84.0170819,21.633452 82.8177936,22.2925267 C81.6177936,22.9516014 80.4156584,23.6106762 79.2106762,24.2626335 C78.6085409,24.5879004 78.005694,24.9124555 77.4014235,25.2341637 C76.1935943,25.8768683 74.9822064,26.5088968 73.766548,27.1231317 C70.1224199,28.9658363 66.4434164,30.6498221 62.716726,31.9829181 C61.7202847,32.33879 60.7352313,32.6839858 59.7629893,33.0199288 C58.7907473,33.3544484 57.8320285,33.6790036 56.8875445,33.9928826 C54.997153,34.6213523 53.1651246,35.2078292 51.3992883,35.7544484 C50.516726,36.027758 49.6512456,36.2911032 48.8035587,36.544484 C47.4455516,36.9508897 46.1380783,37.3295374 44.8782918,37.686121 C43.7814947,37.997153 42.7188612,38.2918149 41.7039146,38.5658363 C41.6234875,38.5871886 41.5466192,38.6078292 41.4676157,38.6291815 C41.4676157,38.6291815 49.005694,38.2071174 59.4170819,35.5487544 C63.6170819,34.4761566 68.2811388,33.0377224 73.1117438,31.116726 C74.9508897,30.3857651 76.8128114,29.5829181 78.6818505,28.7053381 C79.366548,28.3217082 80.0505338,27.9380783 80.7309609,27.5516014 C81.8896797,26.8932384 83.0419929,26.2313167 84.1914591,25.5729537 C87.2619217,23.8135231 90.3067616,22.0768683 93.3516014,20.4996441 C94.027758,20.1494662 94.7046263,19.8064057 95.3814947,19.4725979 C95.719573,19.3067616 96.058363,19.1423488 96.3964413,18.9800712 C97.0740214,18.6562278 97.7516014,18.3423488 98.4298932,18.0405694 C99.1088968,17.73879 99.7871886,17.4476868 100.467616,17.1701068 C101.147331,16.8925267 101.82847,16.627758 102.51032,16.3779359 C103.193594,16.1274021 103.876868,15.8918149 104.562278,15.6725979 C106.27331,15.1245552 107.995018,14.6825623 109.730249,14.3558719 C110.079715,14.2903915 110.42847,14.2220641 110.779359,14.166548 C111.476868,14.0562278 112.175801,13.9658363 112.879004,13.8975089 C113.229893,13.8633452 113.581495,13.8348754 113.93452,13.8113879 C114.639146,13.7651246 115.347331,13.7423488 116.058363,13.7423488 C116.279715,13.7430605 116.501068,13.7494662 116.723843,13.7544484 C116.857651,13.7572954 116.992883,13.7572954 117.127402,13.7615658 C117.729537,13.7829181 118.333808,13.8220641 118.939502,13.8790036 C119.46548,13.9288256 119.974377,13.9921708 120.468327,14.0683274 C120.838434,14.1252669 121.199288,14.1893238 121.551601,14.2604982 C122.608541,14.4733096 123.5879,14.7494662 124.498932,15.0768683 C124.970107,15.2462633 125.419929,15.433452 125.854093,15.630605 C125.929537,15.6654804 125.999288,15.7039146 126.074021,15.7395018 C127.17153,16.2569395 128.164413,16.852669 129.06548,17.5124555 C129.095374,17.5352313 129.125979,17.5565836 129.15516,17.5793594 C129.320285,17.7017794 129.494662,17.8192171 129.654093,17.9459075 C129.792171,18.055516 129.921708,18.172242 130.055516,18.2846975 C130.074733,18.3003559 130.093238,18.316726 130.111744,18.3323843 C131.078292,19.1516014 131.942349,20.0391459 132.724555,20.9708185 C133.404982,21.7800712 134.02847,22.6185053 134.618505,23.4669039 C134.940214,23.9800712 135.257651,24.5779359 135.562989,25.2035587 C135.716014,25.5160142 135.86548,25.8362989 136.0121,26.1565836 C136.158719,26.4761566 136.300356,26.7964413 136.437722,27.1103203 C137.259786,28.8996441 138.120996,30.6348754 139.46548,31.9729537 L139.419929,31.9708185 C139.718149,32.2747331 140.017794,32.5523132 140.319573,32.8078292 C140.772954,33.1900356 141.229181,33.5209964 141.681851,33.805694 C141.984342,33.9957295 142.285409,34.1658363 142.584342,34.3174377 C142.73452,34.3935943 142.883274,34.4647687 143.030605,34.5323843 C143.32669,34.6661922 143.619929,34.7822064 143.907473,34.883274 C144.051246,34.9345196 144.194306,34.9814947 144.335943,35.0241993 C145.325267,35.3274021 146.247687,35.4540925 147.037722,35.488968 C147.150178,35.4939502 147.259786,35.4975089 147.367972,35.4989324 C147.579359,35.5010676 147.777224,35.4967972 147.963701,35.4882562 C147.975089,35.4882562 147.9879,35.4882562 147.997865,35.4882562 C148.179359,35.4797153 148.348754,35.4683274 148.503203,35.452669 C148.597153,35.4441281 148.684698,35.4341637 148.767972,35.4241993 C148.901779,35.4071174 149.023488,35.3893238 149.128826,35.3715302 C149.301068,35.3430605 149.435587,35.3153025 149.52669,35.2939502 C149.618505,35.2733096 149.666192,35.2597865 149.666192,35.2597865 L150.241993,34.6797153 L153.686121,31.205694 L153.696797,31.1950178 C153.693238,31.197153 153.688968,31.2014235 153.686121,31.2049822" id="Fill-11" fill="#E26030"></path>
                <path d="M82.827758,120.006406 L85.4939502,116.4 L99.2448399,97.9836299 C99.2113879,97.9451957 99.1779359,97.9124555 99.144484,97.8754448 C97.227758,95.6989324 95.1245552,94.0491103 93.0284698,92.7935943 C91.883274,92.1081851 90.7409253,91.5430605 89.633452,91.0725979 C86.4733096,89.7330961 83.5957295,89.1871886 81.7487544,88.9679715 C81.5281139,88.9423488 81.3288256,88.9224199 81.1395018,88.9053381 C84.8633452,90.2092527 90.4633452,92.9145907 94.3886121,97.1096085 L87.916726,105.443416 L77.4683274,100.687544 L85.716726,108.327402 L77.7679715,118.750178 L77.5003559,119.101779 C77.5003559,119.101779 78.3822064,120.503915 79.7266904,123.328114 C82.8085409,129.794306 88.3202847,143.731673 91.2604982,165.438434 C92.0953737,171.60427 92.7245552,178.392883 93.0298932,185.819929 C93.0298932,185.819929 97.9715302,155.194306 83.0818505,120.470463 C82.919573,120.16726 82.827758,120.006406 82.827758,120.006406" id="Fill-12" fill="#E26030"></path>
            </g>
        </g>
    </g>
</svg>