<?xml version="1.0" encoding="UTF-8"?>
<svg width="200px" height="200px" viewBox="0 0 200 200" version="1.1" xmlns="http://www.w3.org/2000/svg" xmlns:xlink="http://www.w3.org/1999/xlink">
    <!-- Generator: Sketch 54.1 (76490) - https://sketchapp.com -->
    <title>holy-family</title>
    <desc>Created with Sketch.</desc>
    <g id="holy-family" stroke="none" stroke-width="1" fill="none" fill-rule="evenodd">
        <g id="holy-family_BGL">
            <g id="holy-family" transform="translate(0.000000, 54.000000)">
                <g id="g10" transform="translate(99.951193, 45.844803) scale(-1, 1) rotate(-180.000000) translate(-99.951193, -45.844803) translate(0.000000, 0.163985)" fill-rule="nonzero">
                    <g id="g12">
                        <path d="M163.760792,79.3242049 C163.735487,79.2865981 163.707432,79.2575383 163.683778,79.2242049 C163.63262,79.2575383 163.670576,79.2891622 163.760792,79.3242049 Z M187.300727,26.6015416 L199.880522,45.9638837 L174.020493,44.9612483 C173.924056,45.9658358 173.678473,46.8794522 173.409464,47.6212775 L173.547287,47.9289397 C174.233671,48.0175683 175.350703,48.049584 176.352948,47.4912628 C176.968663,47.1480711 177.712831,47.1285493 178.346896,47.4350403 C178.980181,47.743093 179.424105,48.3388958 179.53655,49.0350403 C179.720054,50.1770607 179.686477,51.9090275 179.050459,53.5558796 C179.502973,53.8545619 179.830157,54.3137126 179.960171,54.8450938 C180.242455,54.8450938 180.530596,54.861492 180.810928,54.8927268 C180.783207,54.590921 180.820298,54.2805257 180.925715,53.9845765 C181.218151,53.1619313 181.977155,52.5954111 182.850557,52.5505111 C183.103558,52.5387981 183.376862,52.5411407 183.665003,52.5618337 C183.667345,52.5626146 183.667345,52.5626146 183.667345,52.5626146 C188.740259,52.9163481 191.444798,56.3084417 191.902777,59.4451913 C192.353729,60.6102474 193.051825,63.5927754 190.614734,67.4647128 C190.392187,68.275645 190.046652,69.0576849 189.589844,69.7967772 C188.541528,72.5372359 186.318004,74.4687146 183.283939,75.2847224 C182.494481,75.8934095 181.662075,76.3381142 180.814832,76.6055618 C179.761831,78.4452884 177.530108,81.1498272 171.963295,81.0358203 C171.934012,81.0401151 171.907853,81.043629 171.883646,81.0463621 C171.556462,81.0869672 171.192968,81.1135168 170.733817,81.1349907 C170.364466,81.1482654 169.99941,81.1146881 169.642553,81.0385534 C169.369639,81.1057081 169.089698,81.1537315 168.827326,81.1791097 C167.169932,81.3364548 165.391894,80.6379677 163.936355,79.4358204 C161.933427,79.4147369 158.79941,79.3585144 156.823813,79.2284997 C156.792968,79.2737901 156.759,79.3182996 156.72269,79.3624187 C156.368176,79.7922869 156.203412,79.9808667 156.034745,80.1296222 C155.557634,80.5723748 154.93411,81.1146881 154.276228,81.602731 C154.245775,81.8498759 154.191895,82.0919452 154.118883,82.3301102 C154.072031,82.4726187 154.020884,82.6116134 153.960367,82.7482654 C154.592871,83.7899442 155.052022,85.2650052 154.809171,87.2894073 L154.723276,87.9855517 C154.6284,88.7714961 154.108732,89.4434336 153.370421,89.735088 C152.633671,90.0243999 151.793456,89.8893096 151.187112,89.3762789 L150.687356,88.9546098 C150.68189,88.9491437 150.018151,88.4435312 148.924545,88.257294 C148.697702,88.2202028 148.468127,88.1956054 148.234257,88.1881872 C146.433574,89.7030724 142.950899,91.5892608 136.995214,91.1730577 C136.126888,91.1129309 135.221471,91.0028284 134.302778,90.8466546 C133.78272,90.758026 133.254853,90.6549514 132.728938,90.5386019 C132.575497,90.5358689 132.368957,90.5264985 132.12025,90.5093194 C131.583403,90.4714472 131.024301,90.4031212 130.463247,90.3098074 C129.012003,90.0630529 126.835722,89.5023892 124.70356,88.2264497 C124.172959,87.9105883 123.653682,87.707172 123.161344,87.6240095 C122.133721,87.4522184 121.32396,87.8090754 120.617274,88.1182994 C120.375985,88.2237167 120.16437,88.3142975 119.972276,88.3841852 L119.474472,88.563785 C118.819714,88.8015595 118.089602,88.7074648 117.513711,88.3096122 C116.941725,87.9137118 116.592676,87.2644195 116.582916,86.5678846 L116.572764,86.0482165 C116.572764,86.0365035 116.571203,86.0134678 116.572764,85.9771574 C108.503658,85.105708 101.239627,80.871057 97.4313299,74.7556838 C96.7047316,73.5875043 96.0605149,72.31625 95.4928234,71.19258 C93.4129796,67.0922384 91.7723745,63.8543664 86.5694463,62.5510965 C85.2095635,62.2106378 83.9898466,61.7682757 82.9251321,61.228305 C82.8380653,61.9779389 82.5374308,62.697119 82.0474357,63.2964357 C81.4664694,64.0031219 80.6758399,64.5177143 79.681794,64.8394322 C79.2901884,65.4859915 78.5745222,65.8955572 77.7901396,65.8795494 C77.7901396,65.8795494 77.5078556,65.8740833 77.0198126,65.8393346 C75.5552934,65.7374313 71.7821358,65.337236 68.3275727,63.8485099 C62.4249862,61.3020971 61.019813,57.2337711 60.8827706,54.2684223 C60.6289882,48.8101501 64.329525,45.8740838 68.1093199,45.38526 C68.6153228,45.3192766 69.3036586,45.2529027 70.1751081,45.3145914 C70.6014624,45.3438739 71.0414819,45.4028295 71.483844,45.4898964 C71.5459231,45.5016094 71.6103447,45.5180076 71.6732047,45.5351868 C72.2358205,45.7015118 72.7976556,45.8869681 73.3645662,46.0923366 C71.6607108,44.7855528 70.868129,42.5674953 70.4121017,40.9401649 L35.1485399,39.5716925 L33.6356068,32.5021368 L0,31.191722 L31.4333228,20.0448214 L30.8931178,19.6916345 L28.4272907,8.33729603 L35.8132153,8.62508519 L33.9055531,0 L180.445872,5.38373827 L182.431621,14.3605267 L194.980961,14.8557146 L186.863441,24.5618344 L187.300727,26.6015416 L187.300727,26.6015416 Z" id="path14" fill="#9FA7AA"></path>
                        <path d="M103.73255,45.655831 C104.936649,45.5535372 106.15949,45.3559774 107.365151,45.0639325 L109.315761,44.5926782 C110.694385,43.1722781 112.251046,41.7604675 113.89946,40.4466559 L100.817957,39.9390912 C101.978328,41.8030248 102.951291,43.8270365 103.73255,45.655831 Z M170.636989,42.6475343 L163.505706,42.3718877 C163.7876,42.5725709 164.045286,42.7560751 164.279547,42.9048306 C166.464418,44.3037568 169.219713,43.3311849 170.636989,42.6475343 L170.636989,42.6475343 Z M184.636794,24.3142991 L185.288819,27.3519173 L195.863343,43.6271341 L171.736453,42.6904821 C172.212392,44.6449964 171.561928,46.5768656 171.059049,47.6603209 L172.023031,49.8100524 C172.023031,49.8100524 174.888819,50.7779392 177.404388,49.3797938 C177.404388,49.3797938 178.195408,54.2856014 173.986916,55.6040982 C174.000972,55.9449474 174.171982,56.3486565 174.171982,56.3486565 C174.856804,56.4439225 176.311953,56.4665676 177.860806,55.3600767 C177.860806,55.3600767 178.377741,58.798632 174.549922,60.6114187 C175.048898,60.5044397 175.530694,60.4099546 176.001948,60.3264016 C177.438356,59.7184953 178.865003,59.2581732 180.113221,59.0637369 C179.827424,58.2660796 179.264808,57.6698863 178.558512,57.2119068 C180.550117,56.6016579 182.698287,57.4289883 184.375984,58.5999009 C185.362221,56.8753524 182.962221,54.7080513 182.962221,54.7080513 C184.698092,54.6190323 189.412587,55.7653476 189.792089,60.0078072 C189.858853,60.1214236 191.180864,62.7283537 188.609073,66.5877973 L188.609073,66.5897494 C188.421274,67.410052 188.077301,68.1682755 187.64509,68.8316235 C187.440503,69.3739368 186.514002,72.3713013 182.291845,73.3028776 C181.380181,74.0958498 180.348263,74.6096614 179.368273,74.7142978 C178.614734,76.2362109 177.248995,79.0079043 171.940259,78.8751566 L171.7794,78.8751566 C171.727082,78.8856984 171.67086,78.8962401 171.619713,78.9017062 C171.310489,78.9407496 170.987209,78.9610522 170.649483,78.97706 C170.294188,78.9903348 169.952168,78.9145905 169.637868,78.772082 C169.328644,78.9017062 168.93899,78.9981435 168.627814,79.0289878 C166.259439,79.2491927 163.574813,76.6930191 162.99736,74.1477776 C162.471445,74.0193247 161.908439,73.8928239 161.31615,73.7749127 C158.613954,73.2310377 156.240113,73.0444101 154.321909,73.2091734 C154.515955,73.5277678 154.641675,73.8701787 154.724057,74.2145418 C155.748947,74.4944833 157.373544,74.8329898 159.576375,74.9630045 C159.576375,74.9630045 157.178717,75.0153227 154.821665,74.7939464 C154.829083,74.8638341 154.833769,74.9309889 154.837673,75.0000957 C156.186624,75.3663232 158.329327,75.8188366 161.235721,75.9886755 C161.235721,75.9886755 157.985355,76.0597346 154.837673,75.7544149 C154.833769,75.8098566 154.827912,75.8602226 154.821665,75.9137121 C156.370909,76.3662255 159.072324,76.9928726 162.868127,77.2150298 C162.868127,77.2150298 158.576082,77.3099053 154.665882,76.8722284 C154.633085,76.99951 154.612392,77.0744734 154.612392,77.0744734 L155.056707,77.9857472 C154.881792,78.197753 154.655731,78.4714475 154.595994,78.5175188 C154.018932,79.0531947 152.982329,79.9593928 152.069884,80.4763279 C152.1468,80.7675919 152.207707,81.2048784 152.05778,81.6796466 C151.918005,82.1263035 151.622837,82.5140048 151.184379,82.8349418 C152.101119,83.5365523 152.934696,84.7925796 152.662954,87.0282067 L152.57862,87.7243511 L152.042944,87.2722282 C152.032012,87.2644195 151.016883,86.4218622 149.283354,86.1259129 C148.662173,86.021667 148.014052,85.9982409 147.362027,86.0560252 C146.060709,87.3776454 142.382427,90.0271329 134.665102,88.7164448 C134.116932,88.6235215 133.551973,88.5106859 132.980768,88.3802809 C132.777351,88.3818426 131.964077,88.3709104 130.824789,88.1795976 C129.556268,87.9640778 127.657976,87.4760349 125.810831,86.372277 C125.048313,85.9170306 124.278767,85.6210813 123.524838,85.4934093 C121.867835,85.212687 120.588772,85.7733507 119.74192,86.1419207 C119.551388,86.2250833 119.383111,86.3000466 119.240212,86.3519744 L118.740846,86.5315742 L118.732647,86.0021452 C118.731476,85.9170306 118.722886,85.042848 118.943872,83.9582214 C118.56476,83.9496319 118.186429,83.9441658 117.804975,83.9183971 C109.988479,83.371789 102.884526,79.4217647 99.2655905,73.6117112 C98.5940434,72.5372359 97.9982406,71.3577337 97.4211786,70.2184463 C95.2784749,65.9919944 93.2540728,61.9982415 87.0934092,60.4560258 C84.9799881,59.9273777 83.4334777,59.1816481 82.3055128,58.2980952 C78.2051713,55.5467043 71.126987,51.2987786 68.778134,53.0272315 C68.1936537,53.455538 68.42401,55.0477292 69.5754009,56.1077585 C70.7306961,57.1666164 72.8675433,58.6850156 76.4189342,58.4620776 C77.5894563,58.3875046 80.3178116,57.9728634 80.7621258,60.4482171 C80.9624187,61.5660307 80.1838926,63.0079047 77.0584656,63.0734977 C77.0584656,63.0734977 77.6105398,63.6025362 77.838163,63.7196665 C77.838163,63.7196665 63.4674459,63.4026338 63.0434342,54.1680806 C62.9907256,53.0580758 63.1254255,48.2088812 68.3873092,47.5275732 C69.0787684,47.4389446 69.9228875,47.3831125 71.0637366,47.6080027 C74.1739367,48.5224 77.0116135,50.0107357 79.4459717,51.6150304 C79.4529995,50.6334785 79.5498272,49.6706674 79.6400175,48.7820388 C79.7700322,47.4807211 79.8926286,46.2528051 79.7852591,45.1189837 C79.747387,44.7176172 79.6911644,44.3595889 79.6290854,44.0398232 L78.697509,44.5060018 C77.9314768,44.8886275 77.1588072,45.0576855 76.4021455,45.0053673 C73.377841,44.7937519 72.6805253,41.0225466 72.1315746,38.9888521 C72.1179094,38.9310288 72.1015111,38.8802333 72.0870651,38.8239717 L36.8689107,37.45792 L35.3956067,30.5674956 L35.6076126,30.3976176 L11.5410051,29.4605752 L34.3913315,21.3567589 L34.0946795,19.9727081 C34.0608288,19.8118101 34.0280323,19.6498189 33.9952359,19.4921225 L33.9857873,19.4436306 C33.9723564,19.3740942 33.9509996,19.2679351 33.926168,19.1520151 L32.7903945,18.4105022 L31.0974712,10.6218055 L38.4939375,10.9106488 L36.5856897,2.27976959 L178.738502,7.50305496 L180.72308,16.4743383 L190.393748,16.8557926 L184.541137,23.8543283 C184.568468,23.987935 184.598922,24.1401263 184.636794,24.3142991 L184.636794,24.3142991 Z" id="path16" fill="#231F20"></path>
                        <path d="M111.985942,25.2033181 C111.985942,25.1990233 111.985942,25.1947675 111.986722,25.1885206 L112.061686,24.3467832 L113.706976,24.4123762 L114.909904,30.0134302 L110.352755,29.8374224 L110.836112,32.0839426 L112.687552,32.1569929 C112.806635,32.1608191 112.927669,32.1662852 113.050266,32.1745234 C113.168177,32.17956 113.286478,32.1862754 113.403609,32.191312 C114.434746,32.2318782 114.684233,32.0776956 114.767396,31.8008777 L114.957537,31.1699358 L116.403316,31.2265097 L117.626937,36.9350894 L104.668031,36.4302578 L104.333819,34.8665682 L104.791408,34.5159191 C105.139285,34.2500724 105.070959,33.6589547 104.773448,32.3490085 C104.737918,32.1893208 104.701217,32.0308826 104.666859,31.8742403 L102.552267,22.0134694 C102.516737,21.8537818 102.485893,21.6918296 102.451144,21.5309316 C102.190725,20.2389844 102.008392,19.485407 101.257196,18.9961537 L100.876913,18.7463539 L100.49624,17.0018932 L108.687162,17.3220103 L108.993262,18.727574 L108.720739,19.0829473 C108.240505,19.7076423 108.331086,20.4104241 108.665688,21.9748945 L109.37745,25.2033181 L110.924741,25.2458364 L111.169153,25.2560657 C111.33743,25.2634059 111.829377,25.2821468 111.985942,25.2033181" id="path18" fill="#FFFFFF"></path>
                        <path d="M92.9124428,34.3952749 L93.4012666,34.0525907 C93.4828674,33.9950797 93.5101978,33.960331 93.5129308,33.960331 C93.514883,33.9482666 93.5215204,33.8733813 93.4813056,33.6924931 C93.4578796,33.5733715 93.330598,33.1943769 92.71215,32.2381251 L91.905903,30.9754604 L91.0270353,34.8770709 L91.2476307,35.9066853 L83.9711058,35.6231519 L83.6353322,34.0513803 L84.1011204,33.7042451 C84.4529017,33.4422246 84.6133703,33.0152066 84.8226431,32.2131373 L86.6623697,25.1962902 L85.8448002,21.389243 C85.8108324,21.2321713 85.7799881,21.0744748 85.7471916,20.9152167 C85.4910667,19.6393162 85.2935069,18.8334207 84.5434825,18.3433866 L84.1624186,18.0943285 L83.7844781,16.3499069 L91.9757908,16.670024 L92.277987,18.0661391 L92.0160055,18.421044 C91.5326478,19.0715076 91.6212764,19.771244 91.9550977,21.3302093 L92.7711055,25.1334303 L98.9930673,34.7338596 L99.3108809,36.221024 L93.2525111,35.9843036 L92.9124428,34.3952749" id="path20" fill="#FFFFFF"></path>
                        <path d="M51.896924,19.2160854 C51.932844,19.3753045 51.968764,19.5346798 52.0023413,19.6926886 L54.1138103,29.5262853 C54.1477781,29.6827713 54.1790128,29.8421466 54.2102475,30.0001554 C54.4652012,31.2585253 54.6580757,32.0558704 55.4077097,32.5439133 L55.7911162,32.7944941 L56.1635906,34.5371197 L48.0203014,34.2200479 L47.6876513,32.6683838 L48.1319656,32.3169928 C48.5060017,32.0191305 48.4099549,31.385885 48.1198621,30.1137718 C48.0843326,29.9545527 48.0476318,29.7951774 48.013664,29.6371686 L47.5490471,27.4658461 L45.1900428,27.3737036 L45.5816484,29.1942599 C45.6179588,29.3653873 45.6527075,29.53956 45.6874562,29.7128348 C45.9318681,30.9466464 46.1200574,31.7259924 46.8704722,32.2077884 L47.258564,32.4568464 L47.6322096,34.2052505 L39.4889204,33.8866561 L39.1570512,32.336944 L39.5986325,31.9840304 C39.9742303,31.6857386 39.8785739,31.0535473 39.5877003,29.7819026 C39.5525612,29.6211608 39.5162508,29.4633082 39.4830639,29.3052994 L38.9560556,26.856378 L30.9884228,26.5455533 L38.3315169,23.9410829 L37.3721806,19.4717028 C37.3375881,19.3152167 37.3066267,19.1575203 37.2738302,18.9978326 C37.0203602,17.739736 36.8266657,16.9418053 36.0770318,16.4517712 L35.6972953,16.205329 L35.3170904,14.4600875 L43.4608091,14.7776277 L43.7985348,16.3271836 L43.3546109,16.6805267 C42.9797939,16.9803802 43.0754504,17.6125715 43.3643718,18.8852704 C43.401463,19.044958 43.4369926,19.2028106 43.4697891,19.3592967 L44.1811604,22.6689697 L46.5382126,22.760019 L45.9029759,19.8052508 C45.8701794,19.6481401 45.8377734,19.4893895 45.8065386,19.3300142 C45.5531467,18.0713319 45.3594913,17.2747287 44.6082956,16.7851631 L44.2272317,16.5371982 L43.8492912,14.7927376 L51.9929709,15.1098093 L52.3303062,16.6602631 L51.8856014,17.0143871 C51.5123462,17.3122494 51.6064409,17.9436599 51.896924,19.2160854" id="path22" fill="#FFFFFF"></path>
                        <path d="M83.2456787,21.8475348 C82.2602224,21.1092235 81.3719843,20.7906291 80.1795978,20.743816 C79.7083435,20.7250361 79.2327945,20.7235134 78.8204958,20.7999214 L80.9120526,30.5452408 C80.9475822,30.7049285 80.9795978,30.8661388 81.011223,31.0274663 C81.2681288,32.2974711 81.4629555,33.1013755 82.2133703,33.5906287 L82.5963864,33.8396868 L82.9680799,35.5830543 L74.8251811,35.2667634 L74.4933119,33.714006 L74.9360645,33.3618342 C75.3101006,33.06323 75.2148346,32.4313511 74.9251323,31.1581837 C74.8892124,30.9997064 74.8521211,30.8407996 74.8193246,30.6834155 L72.70278,20.8238941 C72.6692027,20.6677203 72.6371871,20.508345 72.6051714,20.3498677 C72.3552935,19.1067248 72.1631998,18.3203509 71.4135658,17.8310977 L71.0328923,17.5828204 L70.6537806,15.8398825 L82.542116,16.3029376 L85.9599783,23.8790428 L83.2456787,21.8475348" id="path24" fill="#FFFFFF"></path>
                        <path d="M66.3929705,24.6411316 C66.0845274,23.2073396 65.6378705,22.185651 64.9858451,21.4223518 C64.138993,20.431 63.1090272,19.8415222 62.1563674,19.8052508 C61.1412381,19.764958 60.5227901,20.5801459 60.2873582,21.3367686 C59.9675924,22.4479838 59.9531464,24.2619808 60.2514382,25.6507558 C60.7539272,27.9946113 62.3035612,30.5577347 64.5208378,30.6448406 C65.1966797,30.6709216 65.6937026,30.4461095 66.0435318,29.9572857 C66.889603,28.7734888 66.7591979,26.3531082 66.3929705,24.6411316 L66.3929705,24.6411316 Z M71.9461183,32.6492915 C70.6190319,34.510414 68.3841857,35.4342207 65.486382,35.3210338 C59.9390907,35.1047722 55.019618,30.7810241 53.7866263,25.0398042 C53.1713017,22.1696432 53.5305013,19.6954217 54.8240103,17.8841967 C56.170228,15.9992578 58.4304524,15.0192285 61.1908233,15.1273398 C66.8259622,15.3472715 71.6415795,19.5978131 72.9015111,25.4613561 C73.5320626,28.4056215 73.2021456,30.8931178 71.9461183,32.6492915 L71.9461183,32.6492915 Z" id="path26" fill="#FFFFFF"></path>
                        <path d="M159.369835,23.3839721 C159.406926,23.5424103 159.443237,23.7008876 159.476814,23.8590526 L161.591797,33.7179884 C161.625374,33.8744355 161.65778,34.0338108 161.690967,34.1930689 C161.943188,35.4514388 162.138014,36.2483153 162.887258,36.7368268 L163.271055,36.9874076 L163.643529,38.7303065 L155.50024,38.4117121 L155.169152,36.8612582 L155.609562,36.5091255 C155.984769,36.2104823 155.889113,35.5771197 155.600191,34.3043818 C155.5631,34.145475 155.527571,33.9869977 155.494384,33.8303554 L153.377058,23.9703654 C153.344262,23.8129813 153.312246,23.6540746 153.28023,23.4948554 C153.029181,22.2524543 152.837087,21.4668613 152.088625,20.9768662 L151.70717,20.7290185 L151.327668,18.9853387 L159.472519,19.3019419 L159.809074,20.8523958 L159.366321,21.2056217 C158.991504,21.5039526 159.084427,22.1278667 159.369835,23.3839721" id="path28" fill="#FFFFFF"></path>
                        <path d="M172.465784,25.3274371 C171.480328,24.5888134 170.590528,24.2694772 169.398922,24.2234059 C168.927668,24.2057193 168.452509,24.2041966 168.040211,24.281034 L170.131377,34.0251431 C170.164954,34.1837376 170.197751,34.3472515 170.230547,34.508618 C170.488234,35.7775296 170.683061,36.5817072 171.432695,37.0709605 L171.81493,37.3204871 L172.186623,39.0637374 L164.043725,38.7466267 L163.711465,37.1939083 L164.154998,36.842205 C164.529815,36.5434447 164.433378,35.9117219 164.144847,34.6382422 C164.108146,34.4793354 164.071836,34.3203896 164.038649,34.1637864 L161.923666,24.3050067 C161.890089,24.1463732 161.85573,23.987935 161.824496,23.8285597 C161.573056,22.5874079 161.381743,21.7987305 160.633281,21.3099458 L160.251045,21.0624104 L159.872324,19.3179497 L171.76144,19.7810049 L175.180083,27.359687 L172.465784,25.3274371" id="path30" fill="#FFFFFF"></path>
                        <path d="M121.15295,27.4775981 L121.687454,28.5352457 L121.788186,27.5041086 L121.15295,27.4775981 Z M134.802925,34.3875052 L131.293701,23.2393942 L131.192969,22.9114684 C130.823228,21.7023713 130.526497,20.746549 129.655438,20.0475934 L129.635136,20.0300629 C128.936258,20.9671054 128.886673,21.38651 128.742993,22.6409365 L127.408879,34.5199015 C126.649875,34.4128054 125.878377,34.3094184 125.08111,34.2133325 C123.374131,34.6780274 121.556268,35.4772075 119.729426,36.4958507 L119.512735,35.4804091 L119.942994,35.1278078 C120.262369,34.8622734 120.232305,34.7193744 120.206927,34.6042353 C120.152657,34.3472515 119.791115,33.6429469 119.596678,33.2657874 C119.495556,33.0705702 119.404194,32.8917903 119.335087,32.7484618 L113.847533,22.0958511 C113.178328,20.8101508 112.785161,20.1584768 111.833672,19.3222445 L111.553731,19.0731864 L111.194141,17.4196189 L117.837772,17.6789063 L118.151681,19.1255046 L117.765541,19.5615417 C117.47662,19.8828692 117.480134,19.90161 117.511368,20.0448214 C117.595312,20.4345139 118.001754,21.2161244 118.219226,21.6358413 L118.895068,22.9357144 L122.221178,23.0649091 L122.370324,21.3754997 L122.37618,21.3181839 C122.417957,20.9698384 122.417957,20.9698384 122.363296,20.7165246 C122.287161,20.3568955 122.131378,20.1824104 121.531281,19.7797555 L121.157244,19.5302679 L120.780475,17.794514 L135.434257,18.364431 L135.786819,19.9887159 L135.253486,20.3205851 C134.972764,20.4935476 134.89741,20.7813367 135.016883,21.1868418 L136.545433,26.2696724 L136.908928,23.0676422 C137.050265,21.8202435 137.193554,20.5286086 138.307854,19.5940259 C138.958318,19.0528839 139.683745,18.5241186 140.5876,18.3071152 L141.295458,18.1376667 L144.904242,25.750668 L144.405267,21.7308731 C144.370909,21.4375788 144.044506,20.9475837 143.609952,20.5391503 L143.347581,20.2940356 L142.995018,18.6604583 L151.020396,18.9723763 L151.32962,20.3966808 L151.037966,20.7547872 C150.501509,21.4090771 150.636599,22.5307949 150.793944,23.8317612 L152.163198,35.347271 C152.21005,35.7517219 152.260806,35.8083349 152.815223,36.2885691 L153.268908,36.6845086 L153.62147,38.3386618 L146.180963,38.0486081 L146.015809,37.2657482 L142.495653,29.9064902 L141.601949,36.7984373 L141.77374,37.6136252 C139.727083,36.9886179 137.344262,36.3591987 134.612783,35.7797941 C134.920055,35.3819025 134.979792,34.9614047 134.802925,34.3875052 L134.802925,34.3875052 Z" id="path32" fill="#FFFFFF"></path>
                        <path d="M182.317614,37.8814241 L182.805657,37.5387399 C182.887258,37.4816975 182.915369,37.4476906 182.917321,37.4476906 C182.918883,37.4344159 182.927472,37.3605847 182.886477,37.1798917 C182.863051,37.0607702 182.735769,36.6817756 182.117321,35.723962 L181.311074,34.4628591 L180.432597,38.364899 L180.652802,39.393264 L173.375496,39.1090278 L173.039722,37.5387399 L173.506682,37.1908629 C173.858073,36.9288424 174.019322,36.5013558 174.225862,35.7001846 L176.06676,28.682908 L175.249581,24.8757046 C175.217175,24.7199994 175.183597,24.5606241 175.152363,24.4006241 C174.895457,23.1254655 174.699068,22.31957 173.948654,21.8292625 L173.56798,21.5804777 L173.19043,19.8375788 L181.380962,20.1573836 L181.683158,21.5534987 L181.421177,21.9073494 C180.936648,22.5585548 181.026447,23.2573933 181.360659,24.8163586 L182.176667,28.6211413 L188.397067,38.2215315 L188.715271,39.7079541 L182.657682,39.4721318 L182.317614,37.8814241" id="path34" fill="#FFFFFF"></path>
                        <path d="M59.4213748,20.9432889 C59.8055622,19.6994041 60.7613455,18.7420591 62.0978023,18.7931669 C63.3397739,18.842713 64.6184464,19.6002728 65.6124923,20.7653289 C66.5425069,21.8495261 66.9958012,23.2030839 67.2734,24.5009657 C67.9207401,27.5128153 67.7899446,31.7808874 64.5782317,31.6559875 C61.813566,31.5478762 59.9535368,28.512991 59.3686662,25.7901799 C59.0407013,24.2580375 59.0492909,22.2392186 59.4213748,20.9432889 L59.4213748,20.9432889 Z M65.4278168,34.3094184 C70.3500226,34.5015902 73.2677385,31.4179006 72.018739,25.6035133 C70.7830143,19.8403119 66.0072214,16.3236697 61.2493884,16.1397361 C56.4439225,15.9524447 53.4723266,19.3222445 54.6686175,24.8994821 C55.8774022,30.5304434 60.669203,34.1244306 65.4278168,34.3094184 L65.4278168,34.3094184 Z" id="path36" fill="#37A2E1"></path>
                        <path d="M77.7565622,20.0866369 C78.4206911,19.7189258 79.2769136,19.6994041 80.1194709,19.7314197 C81.4102469,19.7825276 82.480037,20.1131474 83.6981921,21.0248897 L82.0142488,17.2896823 L71.7950202,16.8913222 L71.8114184,16.9701509 C73.1365526,17.8346116 73.2899933,19.3085012 73.5851617,20.6837281 L75.6997541,30.5429373 C75.9949225,31.9184765 76.4829654,33.4314096 75.5107839,34.2052505 L75.5267917,34.2843915 L81.831916,34.5308727 L81.8151273,34.451107 C80.4896027,33.5866463 80.3310863,32.0859338 80.0312327,30.6854067 L77.7565622,20.0866369" id="path38" fill="#37A2E1"></path>
                        <path d="M91.073497,21.4703753 C90.74358,19.9367101 90.5186898,18.7748556 91.293702,17.7299752 L91.2769133,17.6511465 L84.9245464,17.4036111 L84.9428969,17.4832206 C86.2660789,18.347369 86.4320135,19.8735769 86.7260105,21.2486085 L87.600193,25.3184572 L85.6948734,32.5837376 C85.4781823,33.4137229 85.2571965,34.1126785 84.6559276,34.5612095 L84.6727163,34.6405067 L90.1110763,34.8532934 L90.0927259,34.772903 L91.4736922,28.6426152 L93.4325013,31.7064707 C93.7456297,32.1905312 94.2446048,32.9964267 94.3640777,33.5520538 C94.5163471,34.2653383 94.3625159,34.6257483 93.9381138,34.9243525 L93.9552929,35.0032202 L98.1723743,35.1668512 L98.1555856,35.0879835 L91.9359665,25.4888037 L91.073497,21.4703753" id="path40" fill="#37A2E1"></path>
                        <path d="M158.594432,23.999648 C158.299654,22.6248896 157.817858,21.1372957 158.79043,20.3638843 L158.773642,20.2830644 L152.468908,20.0382621 L152.486868,20.1175983 C153.810831,20.9815905 153.963491,22.4546993 154.259049,23.8294577 L156.374032,33.68976 C156.66881,35.0633081 157.157244,36.5774515 156.184672,37.3512924 L156.201851,37.4301601 L162.506585,37.6766023 L162.489015,37.5976174 C161.164662,36.7333129 161.007707,35.233186 160.710977,33.8584277 L158.594432,23.999648" id="path42" fill="#37A2E1"></path>
                        <path d="M166.975106,23.5662268 C167.641187,23.1975787 168.496628,23.1800482 169.340357,23.2125324 C170.6284,23.2633279 171.6978,23.5927764 172.917516,24.5055338 L171.232402,20.769897 L161.013954,20.371693 L161.030352,20.4505217 C162.355096,21.3142015 162.508537,22.7880912 162.802534,24.1631619 L164.917907,34.0216292 C165.213856,35.3971294 165.70268,36.9093207 164.729327,37.6846843 L164.745335,37.763552 L171.05085,38.0099942 L171.034061,37.9311655 C169.709708,37.0662363 169.551191,35.5665779 169.248995,34.1649967 L166.975106,23.5662268" id="path44" fill="#37A2E1"></path>
                        <path d="M180.479449,24.956993 C180.149922,23.422547 179.925423,22.2625275 180.698092,21.2178033 L180.682084,21.1389746 L174.329717,20.8902289 L174.347287,20.9698384 C175.67164,21.8347286 175.835623,23.3609365 176.132353,24.7360072 L177.004583,28.8074956 L175.100435,36.0714095 C174.884134,36.9015511 174.661196,37.6011313 174.061099,38.0486081 L174.077106,38.1279053 L179.517028,38.340653 L179.498678,38.2617853 L180.878863,32.129233 L182.838453,35.1934008 C183.15041,35.6779298 183.648214,36.4840986 183.768858,37.0382031 C183.921909,37.7519561 183.766906,38.1131079 183.342504,38.4101894 L183.360464,38.4890571 L187.578717,38.6537814 L187.561928,38.5764363 L181.340357,28.9744844 L180.479449,24.956993" id="path46" fill="#37A2E1"></path>
                        <path d="M48.7223023,33.238457 L48.7043424,33.1596283 C49.6776952,32.384538 49.1904331,30.8716049 48.8948743,29.4965342 L48.2498768,26.4844112 L44.0534884,26.3210535 L44.7000477,29.3341135 C44.9944352,30.7084424 45.1299159,32.2077884 46.4788666,33.0725224 L46.4968266,33.1513901 L40.1901405,32.9061583 L40.1733519,32.8262364 C41.1463142,32.0523564 40.6590522,30.538213 40.3638838,29.1654458 L39.6575881,25.8748261 L36.324411,25.7441087 L39.3963875,24.6559291 L38.2529615,19.3327472 C37.9578321,17.9569346 37.7992377,16.4572763 36.4758605,15.5920738 L36.4586423,15.5132061 L42.7634933,15.7595311 L42.780282,15.8398825 C41.80771,16.6122007 42.2934104,18.1263831 42.5893596,19.5002045 L43.4803308,23.6505607 L47.6759383,23.8149726 L46.7845767,19.663406 C46.4905796,18.289858 46.330892,16.7891455 45.0057578,15.9254657 L44.98975,15.8465979 L51.2944838,16.0921421 L51.3116629,16.1710098 C50.3398719,16.9456316 50.8271339,18.4585647 51.1219119,19.833284 L53.2322095,29.6667635 C53.5269874,31.0403116 53.6858942,32.5411803 55.0098571,33.4059142 L55.0278171,33.484782 L48.7223023,33.238457" id="path48" fill="#37A2E1"></path>
                        <path d="M112.889016,25.3879935 L113.006537,25.3930301 L113.77335,28.9604678 L109.215419,28.7832496 L110.134502,33.0658069 L112.746117,33.1673979 C113.894385,33.2119465 115.264809,33.4219611 115.630256,32.2053286 L115.701315,32.2077884 L116.490383,35.8829078 L105.370422,35.4483935 L105.352852,35.3698381 C106.332452,34.6214535 105.843628,33.1073101 105.54846,31.7340744 L103.431915,21.8736159 C103.131671,20.4727765 102.978621,18.9993553 101.654658,18.1344651 L101.637089,18.0552851 L107.989065,18.3031328 L108.006635,18.3820005 C107.226156,19.3995505 107.456513,20.5883841 107.786039,22.1223616 L108.683257,26.1926397 L110.983306,26.2574908 C111.827425,26.2902482 112.799997,26.3800872 112.889016,25.3879935" id="path50" fill="#37A2E1"></path>
                        <path d="M119.61581,26.4108925 L122.281695,31.6775004 L122.303169,31.6794916 L122.804096,26.5350506 L119.61581,26.4108925 Z M120.575497,36.0413461 L120.544653,36.0406043 L120.526693,35.9617365 C120.921032,35.6349039 121.240797,35.1758312 121.088528,34.4625467 C120.969836,33.9080128 120.373643,32.8617659 120.119079,32.3267537 L114.621373,21.6553631 C113.909221,20.2897799 113.4407,19.5119566 112.352169,18.55141 L112.334209,18.4725813 L117.139675,18.6604583 L117.156073,18.7381157 C116.819519,19.1184768 116.472032,19.4463636 116.630549,20.1866662 C116.749241,20.7410439 117.183794,21.5711854 117.460612,22.1063538 L118.407806,23.9261683 L123.04968,24.106588 L123.273008,21.5722786 C123.323374,21.1557633 123.342115,21.0248897 123.245287,20.5751093 C123.062954,19.7302094 122.562418,19.3432889 121.938894,18.9259927 L121.922496,18.8466955 L128.998337,19.1227326 L129.016688,19.2023421 C127.981256,20.5501215 127.995312,21.1549824 127.793457,22.8240892 L126.494872,34.3942207 C126.029865,34.332454 125.561344,34.2711558 125.08111,34.2133325 C123.637283,34.6054457 122.114589,35.2414242 120.575497,36.0413461 L120.575497,36.0413461 Z" id="path52" fill="#37A2E1"></path>
                        <path d="M135.656805,34.1411802 L132.148752,22.9930692 C131.700143,21.5590039 131.371788,20.237774 130.134892,19.2456803 L130.119274,19.1660708 L134.736161,19.346022 L134.754121,19.4264124 C134.158708,19.7950215 133.895165,20.5188477 134.158708,21.4211024 L136.911661,30.5717904 L136.98311,30.5745234 L137.771007,23.6330302 C137.927961,22.3020395 137.969738,21.2028887 138.895458,20.4259634 C139.467444,19.9499849 140.109709,19.4771689 140.860123,19.2964368 L146.382036,30.9399309 L146.450362,30.942703 L145.30639,21.6983889 C145.222056,20.9873689 144.647337,20.2565149 144.152266,19.7927179 L144.134696,19.7129522 L150.3223,19.9554509 L150.341041,20.0335378 C149.528547,21.0248897 149.731182,22.500302 149.907659,23.9758706 L151.262075,35.3776077 C151.372178,36.3256604 151.780572,36.6044305 152.468127,37.2060898 L152.484135,37.2864803 L146.882183,37.067759 L146.865785,36.9874076 L141.974033,26.7587695 L140.677791,36.7461191 L140.694579,36.8265096 L138.716248,36.7488522 C137.739382,36.4931177 136.711368,36.2415999 135.616981,35.9968366 C135.843823,35.4822441 135.880524,34.8720343 135.656805,34.1411802" id="path54" fill="#37A2E1"></path>
                        <path d="M48.8683248,6.69594908 C48.367788,6.11228877 47.7005357,5.72064407 46.990726,5.69456306 C46.4734005,5.67578317 46.0033175,5.8269203 45.7183005,6.2126304 C45.3981443,6.65768651 45.4785738,7.14725214 45.6136641,7.75757911 L46.3144937,10.9079158 C46.4304527,11.4272325 46.6241082,12.0003511 46.2231321,12.2929035 L46.2297695,12.3229279 L48.7804771,12.4165931 L48.7734492,12.3873106 C48.2350403,12.0589162 48.1749134,11.4917323 48.0597353,10.9708928 L47.4526098,8.24089779 C47.3663239,7.85003397 47.2620779,7.46978995 47.4190325,7.14846249 C47.5182028,6.95293296 47.7333321,6.85259134 47.9742301,6.86067333 C48.84607,6.89346981 49.1509993,7.9663834 49.3001452,8.63562692 L49.8346498,11.0364858 C49.9498279,11.5573252 50.1430929,12.1300143 49.7417264,12.4220592 L49.7479734,12.4528645 L52.3084418,12.5462174 L52.3018045,12.5161539 C51.7633955,12.189009 51.7040495,11.6212003 51.5888713,11.1012979 L50.7615409,7.37999005 C50.6455819,6.86067333 50.4515361,6.2875157 50.8525121,5.9943776 L50.8454843,5.96509502 L48.6883346,5.8857978 L48.8683248,6.69594908" id="path56" fill="#FFFFFF"></path>
                        <path d="M65.6343566,6.30079047 C65.298583,6.2875157 64.8265479,6.51947275 64.573156,6.65842834 C63.9441663,7.00204961 63.838749,7.33591002 63.5107842,7.95830141 L62.2403108,10.4508343 L62.2102473,10.4498972 L61.623815,7.80915549 C61.4945812,7.22881387 61.4067335,6.78957523 61.7276705,6.3945728 L61.7206427,6.36376753 L59.8699839,6.29696422 L59.8762308,6.32624679 C60.3900424,6.75146884 60.4970214,7.19254252 60.6262552,7.77237657 L61.3934587,11.2234648 C61.5648594,11.9933623 61.5859428,12.2628401 61.2021459,12.8437674 L61.2083928,12.8730499 L63.2027315,12.9464126 L63.1964845,12.9156073 L65.2462648,9.00423599 L65.8229364,11.5946898 C65.9513893,12.1740944 66.0400179,12.6145434 65.7183,13.009702 L65.7249374,13.0392969 L67.5658353,13.1076229 L67.5599788,13.0765053 C67.055928,12.6523765 66.9481682,12.2113028 66.8197153,11.6306878 L65.6343566,6.30079047" id="path58" fill="#FFFFFF"></path>
                        <path d="M77.4567087,8.35224967 C77.3411401,7.83219112 77.1498273,7.26879435 77.5504129,6.97628094 L77.5437755,6.94621749 L74.9633949,6.85134195 L74.9708132,6.88140539 C75.5092221,7.20855033 75.5670064,7.76691049 75.6829654,8.2866567 L76.512248,12.0176083 C76.628207,12.5371983 76.821472,13.1100436 76.419715,13.401659 L76.4271333,13.4329328 L79.0063426,13.5277693 L78.9997052,13.4977449 C78.4616867,13.1706 78.4019502,12.6027913 78.2863816,12.0827327 L77.4567087,8.35224967" id="path60" fill="#FFFFFF"></path>
                        <path d="M92.1405541,12.749985 C92.2373818,12.9319274 92.3615399,13.1448313 92.4029259,13.3353242 C92.4763276,13.6656707 92.3345999,13.8385941 92.1280602,13.9802827 L92.135088,14.0095653 L93.8514374,14.0724252 L93.8440191,14.0431426 L90.1255224,7.20078069 C89.7448489,7.32489977 89.3423111,7.43898468 89.0291827,7.65602714 C88.5751076,7.9663834 88.4931164,8.24242049 88.4134678,8.82381628 L87.8875527,12.9616395 C87.8512423,13.3067835 87.8055615,13.573372 87.6111252,13.8143481 L87.618153,13.8436307 L89.7850636,13.9237088 L89.7788167,13.8932159 L89.7585141,13.8436307 C89.6956542,13.562557 89.7780358,12.9909221 89.8038045,12.7231232 L90.2039997,9.08856981 L92.1405541,12.749985" id="path62" fill="#FFFFFF"></path>
                        <path d="M103.375302,8.99720817 C103.663443,8.878399 104.013272,8.87141022 104.349827,8.88359177 C104.886674,8.90342584 105.405171,9.01200563 105.870568,9.48450928 L105.919373,9.48724232 L105.200193,7.96255715 L100.951486,7.80564158 L100.958514,7.8367592 C101.498094,8.16327944 101.555488,8.72148343 101.670666,9.24232285 L102.502682,12.982723 C102.61786,13.5020006 102.811906,14.0751583 102.408197,14.3577546 L102.415224,14.3879743 L105.771398,14.5101412 C105.914297,14.5171299 106.069299,14.5226351 106.185649,14.5756951 L106.21376,14.5772178 L105.891261,13.1260514 L105.86315,13.1260514 C105.708538,13.5851241 105.150607,13.5157439 104.680915,13.4992676 L104.374424,13.4875155 L104.013272,11.8669006 L104.905024,11.8996971 C105.039724,11.9047337 105.176376,11.9199997 105.271252,11.962557 L105.319665,11.9640797 L105.008099,10.5644507 L104.960075,10.5624595 C104.915176,10.9574619 104.465395,10.9025668 104.11049,10.8888626 L103.794238,10.8771105 L103.375302,8.99720817" id="path64" fill="#FFFFFF"></path>
                        <path d="M117.667152,13.9857878 L117.164663,11.7259929 C117.783501,11.8574521 118.342994,12.4033184 118.48394,13.0334794 C118.553828,13.3536356 118.504633,13.6897605 118.288333,13.8706488 C118.152462,13.9842651 117.954902,13.9962905 117.763589,13.9896141 L117.667152,13.9857878 Z M116.737918,9.8061491 C116.621959,9.28530968 116.428694,8.71293292 116.82967,8.41963864 L116.823033,8.38961424 L114.243043,8.29551956 L114.25007,8.32523161 C114.78887,8.65163473 114.848216,9.21975575 114.964175,9.74055613 L115.791505,13.461005 C115.906683,13.9810636 116.100729,14.5534403 115.698972,14.8467346 L115.70639,14.8760172 L118.544848,14.9801851 C119.014541,14.9974032 119.399899,15.0219616 119.77823,14.7982427 C120.273691,14.4983891 120.442359,13.97876 120.293994,13.3095555 C120.128059,12.5582427 119.496727,11.9895361 118.801754,11.6869494 L119.500631,9.73782309 C119.659929,9.29784262 119.843433,8.88741803 120.154609,8.5712443 L118.810734,8.43385045 C118.159099,8.36931165 117.87252,8.44817939 117.67457,9.05577332 L117.046752,11.1957049 L116.737918,9.8061491 L116.737918,9.8061491 Z" id="path66" fill="#FFFFFF"></path>
                        <path d="M129.028401,10.4952267 C129.462564,10.0548948 130.177449,9.76284993 130.868128,9.78861859 C131.299167,9.8046264 131.918396,9.97606612 132.042164,10.5370032 C132.314296,11.7567981 129.334111,11.3991603 129.831915,13.6401754 C129.957635,14.2090772 130.348459,14.7701704 130.864223,15.1153144 C131.432696,15.4932158 132.054658,15.6361148 132.638747,15.6579401 C133.176375,15.6779303 133.72884,15.5978522 134.183306,15.4171202 L133.923276,14.2468713 C133.580085,14.501903 133.154902,14.6845872 132.675448,14.6663149 C132.300631,14.653782 131.803218,14.4648117 131.698581,13.9950802 C131.592383,13.5157439 132.106585,13.3458269 132.42518,13.1989845 C132.83865,13.0057195 133.228303,12.8315468 133.533232,12.4962027 C133.901022,12.0924936 134.050558,11.6521617 133.908049,11.011459 C133.763979,10.3613077 133.375106,9.77182992 132.780865,9.36296707 C132.11947,8.911664 131.485404,8.79878943 130.804487,8.77423111 C130.171983,8.75150783 129.565639,8.84806225 129.024106,9.06553418 L129.028401,10.4952267" id="path68" fill="#FFFFFF"></path>
                        <path d="M144.679743,10.8220593 C144.564174,10.3027425 144.37169,9.73903343 144.773056,9.44730089 L144.766809,9.41618327 L142.18721,9.32208859 L142.194238,9.35211299 C142.733818,9.6800388 142.790821,10.2368372 142.905999,10.7572472 L143.736063,14.4878474 C143.851631,15.0086868 144.044506,15.5810635 143.64353,15.8734598 L143.649777,15.9044213 L146.230157,15.9977351 L146.22352,15.9682963 C145.684721,15.6416199 145.624984,15.0734989 145.509806,14.5534403 L144.679743,10.8220593" id="path70" fill="#FFFFFF"></path>
                        <path d="M156.960465,11.3038553 C156.835135,10.7334307 156.744945,10.2836893 157.067444,9.89903343 L157.060025,9.86900903 L154.461685,9.77382113 L154.468322,9.80341606 C155.007122,10.1302486 155.067248,10.6974326 155.182427,11.2184282 L156.076912,15.239004 C155.92269,15.2734403 155.778229,15.2682866 155.606438,15.2612588 C155.162905,15.245251 154.86188,15.1250753 154.440601,14.8517712 L154.362514,14.7997654 L155.078571,16.3536941 L155.253095,16.3299166 L159.702875,16.4931182 L159.042261,14.9716346 C158.972763,15.305495 158.698288,15.3951778 158.352753,15.3826448 C158.180962,15.375656 158.024008,15.3596092 157.850264,15.3045579 L156.960465,11.3038553" id="path72" fill="#FFFFFF"></path>
                        <path d="M170.761148,11.8208684 C170.633475,11.2409953 170.545237,10.8005463 170.866565,10.4058563 L170.861099,10.3762613 L168.261196,10.2804878 L168.267834,10.3106684 C168.806633,10.6385551 168.869103,11.2156952 168.984281,11.7352852 L169.327473,13.2759782 L168.520835,16.0230743 C168.429083,16.3376863 168.335379,16.601698 168.087844,16.7714588 L168.0937,16.8016394 L170.319176,16.8832402 L170.312148,16.8530206 L170.899752,14.5346995 L171.68882,15.6934696 C171.816101,15.8769347 172.018346,16.1827229 172.064027,16.3927375 C172.124544,16.6617858 172.059732,16.7984378 171.884427,16.9108439 L171.891845,16.9418053 L173.617565,17.0046262 L173.612099,16.9753436 L171.100435,13.3403608 L170.761148,11.8208684" id="path74" fill="#FFFFFF"></path>
                        <polyline id="path76" fill="#231F20" points="142.397027 45.0065972 142.379694 44.9932639 142.397027 45.0065972"></polyline>
                        <path d="M146.045482,48.4755478 L146.045482,48.4755478 C146.053482,48.4808812 146.058815,48.4928812 146.068149,48.4968812 L146.045482,48.4755478" id="path78" fill="#FFFFFF"></path>
                        <polyline id="path80" fill="#231F20" points="137.599628 41.538244 137.576961 41.5355773 137.599628 41.538244"></polyline>
                        <path d="M98.394141,40.5872123 C96.9713983,41.3352845 96.672716,42.7279638 96.672716,42.7279638 C97.7120522,41.9795011 98.5085383,41.7612483 99.0203977,41.715958 C99.69663,43.005953 100.308441,44.3806724 100.84724,45.7104918 C100.71215,45.7042448 100.574326,45.6999501 100.439627,45.6913605 C98.2258638,45.5367485 95.5443607,44.96281 93.1361617,43.4135665 C92.8253759,40.1421171 90.8860885,39.6353333 90.8860885,39.6353333 C90.5788167,39.9593938 90.380476,40.3943377 90.246557,40.8203016 C89.9146878,40.4119072 89.5972647,39.9691547 89.2989729,39.4920439 L97.9322572,39.8266461 C98.0884309,40.074572 98.2418716,40.327183 98.394141,40.5872123" id="path82" fill="#37A2E1"></path>
                        <path d="M168.386916,51.3483638 C168.386916,51.3483638 165.148263,52.8960455 164.655145,53.5051231 C164.655145,53.5051231 165.303266,54.8423608 167.987502,55.6747668 C167.987502,55.6747668 166.456999,56.3100035 163.679449,55.4381636 C163.679449,55.4381636 165.15451,56.9592958 167.279644,57.4625657 C167.279644,57.4625657 165.035818,58.2094666 163.546702,59.6220581 C163.546702,59.6220581 164.010538,60.3958989 165.485989,60.9831122 C165.485989,60.9831122 163.388576,60.9983391 161.950996,59.8641273 C161.950996,59.8641273 162.732646,61.6288906 164.256902,62.4136636 C164.256902,62.4136636 161.922104,63.5396763 161.12679,64.2916529 L161.694481,64.9421165 C161.694481,64.9421165 157.489894,64.8780852 154.910294,62.2754499 C154.02596,61.3770604 152.989747,60.2123948 151.799313,58.9430927 C151.537722,58.3703255 150.733037,56.2643227 151.516248,53.3981441 C151.516248,53.3981441 150.318005,54.6721314 149.870567,56.9604671 C148.710196,55.8172753 147.423715,54.6588566 146.000972,53.5828195 C145.600387,52.4087835 145.245482,50.6350402 145.769054,48.7121511 C145.769054,48.7121511 144.573935,49.9869192 144.126888,52.2721314 C142.752559,51.391702 141.268518,50.6147376 139.664613,50.0107357 C139.339382,48.7695449 139.165638,47.2901892 139.522886,45.8205943 C139.522886,45.8205943 137.724936,47.1289398 137.582817,49.3505112 C135.518591,48.8113214 133.277888,48.575499 130.841968,48.7683736 C130.515956,47.8738885 130.205951,46.5124439 130.162613,44.4294767 C130.162613,44.4294767 128.947971,46.3359676 128.720739,49.0377733 C126.17784,49.4836493 123.438552,50.3941422 120.489211,51.8973145 C122.95129,51.4861871 126.576083,52.0312334 126.576083,52.0312334 C125.357147,53.4840397 124.373252,54.8673486 123.583013,56.1842836 C122.133721,56.2912626 120.187405,56.1659332 117.965834,55.2909698 C117.965834,55.2909698 119.513906,57.0967287 122.545629,58.1102963 C121.9713,59.3120532 121.574619,60.4497789 121.309904,61.5297203 C119.351876,61.0947764 118.011124,60.6731073 118.011124,60.6731073 L118.323862,61.3930683 C118.337918,61.424303 118.503462,61.8014626 118.781061,62.2922386 C118.435527,62.0681292 118.085307,61.8416773 117.78233,61.6437271 L117.181842,61.2568067 L117.194726,61.9697398 C117.197459,62.0611014 117.235722,63.743483 117.912735,65.6933122 L117.505902,65.29585 L117.336454,65.9197641 C117.315761,65.9986318 115.336259,73.6776946 121.559001,79.8984851 C120.818738,80.279549 120.275253,80.8577823 119.871154,81.5070746 C117.640602,78.299266 111.423326,68.0203009 116.570422,59.3944348 C116.570422,59.3944348 107.735283,69.9642735 114.068518,81.2732044 C112.663736,80.9436778 111.299558,80.4962401 110.001364,79.9363572 C109.256415,78.2844295 106.410149,71.2093686 109.304438,65.2946787 C109.304438,65.2946787 104.073789,70.3133218 105.552755,77.383307 C104.75744,76.7890659 104.0203,76.1386023 103.33704,75.44441 C102.861491,73.0533901 102.144653,68.03748 103.799314,65.3036587 C103.799314,65.3036587 100.821862,68.1499251 100.310002,71.320252 C99.7341117,70.2695932 99.1886749,69.1474849 98.5979478,68.0136635 C98.5304026,66.8782804 98.5713982,64.2822824 100.106977,62.542507 C100.106977,62.542507 97.9287433,63.4838442 97.1529502,65.4617846 C96.6055613,64.5993151 95.9933602,63.7559769 95.2847219,62.96769 C95.5705198,61.6050741 96.4372841,57.9486564 97.7546096,56.5899449 C97.7546096,56.5899449 94.3277673,58.4855037 93.4949708,61.2794519 C92.8468498,60.7668116 92.1335262,60.2928243 91.3335263,59.8711552 C91.3354784,58.8693006 91.5783286,57.0448009 93.0448,55.2468507 C93.0448,55.2468507 91.3460202,55.2796472 89.8397244,59.1847716 C89.149827,58.9083441 88.4021452,58.6662748 87.5927748,58.4628585 C87.1539266,58.352756 86.7509983,58.2309405 86.3746196,58.1040493 C86.4187387,57.400877 86.6643219,55.5720826 88.0363082,54.5163481 C88.0363082,54.5163481 85.863541,55.343288 84.9413351,57.5238639 C83.4315255,56.779696 82.5526578,55.8438249 82.0587583,54.7810626 C82.5671038,54.0501695 83.8282068,52.6082954 86.1661277,52.1710089 C86.1661277,52.1710089 83.0414816,51.6482174 81.5187876,52.5079538 C81.4586607,51.6255722 81.5172259,50.7006332 81.6078066,49.7538299 C82.2266451,49.4567094 83.202731,49.1240593 84.3564645,49.2407992 C84.3564645,49.2407992 83.1406519,48.322888 81.7436778,48.3697401 C81.8280116,47.4912628 81.8943855,46.6088812 81.8740829,45.7382126 C82.5491439,45.408686 83.4397246,45.0440203 84.260808,45.0947768 C84.260808,45.0947768 83.6966304,44.2795499 81.7909204,44.6297695 C81.6972161,43.8414826 81.5500224,43.1629077 81.3614426,42.5940448 C82.0025358,42.1200575 82.8778896,41.6409946 83.7462156,41.7077588 C83.7462156,41.7077588 82.2871624,41.1392864 80.9120526,41.5324538 C79.8801347,39.577549 78.4128824,39.3877979 78.4128824,39.3877979 C77.5429946,40.5766705 77.7799883,42.6690082 77.7799883,42.6690082 C75.0918478,44.014445 74.0474359,40.329916 73.7784267,39.0973148 C73.9142978,39.0259043 74.052902,38.9630444 74.1926775,38.9063143 L83.7817451,39.2780859 C83.7497295,39.3768658 83.7364547,39.4366022 83.7364547,39.4366022 C83.8133703,39.3811606 83.8856006,39.3354797 83.9597832,39.2851137 L86.8509495,39.3971684 C86.9942389,39.6232299 87.0906762,39.786041 87.1281579,39.8539766 C87.4514375,40.4423611 87.8055615,40.9928735 88.1831115,41.5082469 C86.4160056,43.2581736 86.4515352,46.4616875 86.4515352,46.4616875 C86.7873087,44.9452405 88.4162008,43.7922878 89.5707152,43.1484616 C90.5550002,44.1471926 91.6517303,44.97179 92.8351368,45.6300623 C91.7145902,49.69097 93.6312324,52.6715458 93.6312324,52.6715458 C93.5199586,49.9681784 94.0958493,47.9785249 94.8185433,46.5589056 C96.3619302,47.1566606 98.0052684,47.5221072 99.6872596,47.6896035 C98.5713982,51.8703745 100.869885,54.7182026 100.869885,54.7182026 C100.373253,51.3448499 101.220886,49.0990715 102.034941,47.7922877 C103.983209,47.779013 105.946703,47.5213263 107.847337,47.0613946 C103.347582,52.9632002 103.674766,58.182917 104.620007,62.0665675 C105.084234,60.0812088 105.760075,57.1310869 107.128938,53.8545619 C110.900925,56.5751084 114.512833,56.1893593 114.512833,56.1893593 C110.597167,54.6233271 108.880817,51.9277683 108.425571,51.0965336 C109.101413,49.8127855 109.894385,48.5099061 110.828694,47.2183492 C114.22274,49.9884809 117.628108,49.9396766 117.628108,49.9396766 C114.579207,48.3779392 113.450461,45.9209359 113.040114,44.5083444 C114.079451,43.3745231 115.254658,42.2699843 116.580183,41.2201063 C119.203901,44.5485592 122.485502,45.0533908 122.485502,45.0533908 C119.978523,43.1843815 119.479938,40.5848697 119.405365,39.215226 C120.969445,38.2243036 122.704145,37.308735 124.632891,36.4931177 C125.199802,36.5211509 125.768664,36.5614437 126.334404,36.6089986 C126.101705,40.392776 127.907464,42.7357725 127.907464,42.7357725 C127.43621,39.9957042 128.069494,37.927183 128.546605,36.8402138 C130.670177,37.1025467 132.774618,37.4824783 134.830255,37.9389351 C134.228596,42.1856505 136.290089,44.8609066 136.290089,44.8609066 C135.725912,41.5859433 136.761344,39.2765242 137.190821,38.4953041 C139.290577,39.0316828 141.310294,39.6380664 143.219128,40.27057 C141.856902,44.5184957 143.86842,46.6865777 143.86842,46.6865777 C143.665785,44.1268901 144.869103,42.0712532 145.583989,41.0904821 C147.492822,41.7788179 149.259928,42.4788667 150.813076,43.1414338 C150.030255,45.9318681 151.125423,46.7869193 151.125423,46.7869193 C151.125423,46.7869193 151.918005,41.4883347 156.799215,43.1511946 C161.680816,44.8152258 158.69087,46.0575879 164.516541,45.756563 C164.516541,45.756563 163.206633,46.9864312 162.586233,47.5568558 C162.586233,47.5568558 163.743481,48.9909212 165.691357,49.289213 C165.691357,49.289213 164.433378,50.2008772 162.613954,49.9447523 C162.613954,49.9447523 165.110391,52.0538786 168.386916,51.3483638" id="path84" fill="#37A2E1"></path>
                        <path d="M174.605755,51.9566605 C174.605755,51.9566605 171.822739,53.2564164 170.122787,52.057783 C170.122787,52.057783 168.343968,52.4275243 167.289405,54.1532441 C167.289405,54.1532441 171.217565,56.6777926 174.605755,51.9566605" id="path86" fill="#FFFFFF"></path>
                        <path d="M170.647531,44.5270853 C170.647531,44.5270853 169.355584,46.0353332 166.938795,45.6035128 C166.938795,45.6035128 165.478571,46.3547085 165.013954,47.9223024 C165.013954,47.9223024 168.52552,49.6956552 170.647531,44.5270853" id="path88" fill="#FFFFFF"></path>
                        <path d="M99.6872596,47.6896035 C99.4100512,48.7289397 99.3444582,49.6855039 99.4030234,50.5393838 C97.5160542,50.3629075 95.6700806,49.8893106 93.9303051,49.0444107 C94.1501197,48.0687152 94.4671523,47.2491935 94.8185433,46.5589056 C96.3619302,47.1566606 98.0052684,47.5221072 99.6872596,47.6896035" id="path90" fill="#FFFFFF"></path>
                        <path d="M107.847337,47.0613946 C107.060612,48.0956552 106.421081,49.1088323 105.906098,50.0966313 C104.26315,50.4472413 102.589358,50.6381637 100.936259,50.618642 C101.183794,49.4071242 101.612491,48.4728148 102.034941,47.7922877 C103.983209,47.779013 105.946703,47.5213263 107.847337,47.0613946" id="path92" fill="#FFFFFF"></path>
                        <path d="M92.8351368,45.6300623 C92.578231,46.5608578 92.4728137,47.4377733 92.4763276,48.2326977 C90.8942876,47.228891 89.4289875,45.878769 88.1304029,44.109711 C88.6149319,43.7212288 89.1267913,43.395997 89.5707152,43.1484616 C90.5550002,44.1471926 91.6517303,44.97179 92.8351368,45.6300623" id="path94" fill="#FFFFFF"></path>
                        <path d="M87.1281579,39.8539766 C87.4514375,40.4423611 87.8055615,40.9928735 88.1831115,41.5082469 C87.7946293,41.8924343 87.4951662,42.3468999 87.2628578,42.821668 C86.7599783,42.0091742 86.2879432,41.1279638 85.8502663,40.1647623 C85.8034142,40.0612972 85.6265474,39.7548062 85.3528529,39.3393841 L86.8501686,39.3971684 C86.9942389,39.6232299 87.0906762,39.786041 87.1281579,39.8539766" id="path96" fill="#FFFFFF"></path>
                        <path d="M148.714491,80.5395783 C145.824496,80.9596856 141.974033,78.2559278 141.974033,78.2559278 C141.566419,78.4546588 140.54231,78.4144441 140.54231,78.4144441 C138.725228,76.4786706 135.848508,77.1880898 135.179694,78.4683241 C134.506585,79.7442635 131.341334,79.7575383 131.341334,79.7575383 C134.13294,81.0479238 136.280328,80.1721795 136.280328,80.1721795 C136.20068,80.4333801 135.871934,81.0428481 135.871934,81.0428481 C140.589162,82.4417744 141.800289,79.1578311 141.800289,79.1578311 C146.350021,80.5067818 146.515565,81.9701297 146.515565,81.9701297 C148.063637,80.1639804 149.42313,83.2808178 149.42313,83.2808178 C148.29985,84.4993634 146.513222,84.5192756 146.513222,84.5192756 C145.919372,85.3020965 144.570031,85.135381 144.570031,85.135381 L145.169738,83.6384557 C142.524935,85.8205933 136.630939,83.5876992 136.630939,83.5876992 C137.367298,84.6223503 140.661002,85.7819403 140.661002,85.7819403 C137.955292,86.2075137 135.084038,84.9050247 135.084038,84.9050247 C136.023423,86.0669573 138.513613,86.7591974 138.513613,86.7591974 C134.095848,86.8208861 129.150607,84.0495831 129.150607,84.0495831 C130.087649,85.6573917 132.357635,86.5795976 132.357635,86.5795976 C130.754511,86.5877968 128.167884,85.9213253 125.711661,84.5622234 C123.253486,83.2019501 121.158025,83.9223015 121.158025,83.9223015 C121.563687,81.2033167 124.276034,81.3466061 124.276034,81.3466061 C127.425668,83.0387485 132.563784,84.1143952 132.563784,84.1143952 C131.595116,83.844605 130.69946,83.535381 129.87291,83.1992171 C128.27291,82.2582703 123.171105,78.8322089 122.488235,72.9850641 C123.389748,73.8432388 124.394336,74.6202031 125.469592,75.1625164 C126.846654,75.6630533 128.420104,76.1405545 129.560172,76.2217648 L130.598337,74.641677 L132.948752,74.7502178 L136.903071,75.9031704 C136.903071,75.9031704 139.417859,76.714493 141.555097,76.7156643 C141.555097,76.7156643 142.981744,74.9423115 147.027815,75.3428971 C146.581548,75.7477775 146.553827,76.20849 146.553827,76.20849 C148.883549,75.8906765 153.064711,76.7195686 153.064711,76.7195686 C153.879938,78.6764256 148.714491,80.5395783 148.714491,80.5395783" id="path98" fill="#37A2E1"></path>
                        <path d="M152.971787,76.3955081 C152.971787,76.3955081 152.463442,74.8681289 150.435916,73.3669089 L151.909806,72.8839416 C151.909806,72.8839416 154.082963,73.1623213 152.971787,76.3955081" id="path100" fill="#FFFFFF"></path>
                        <path d="M142.765053,70.8853081 C142.765053,70.8853081 148.499362,71.3901397 149.941236,72.2467527 L150.599899,72.0566112 C150.599899,72.0566112 150.384379,70.6295736 147.939089,69.6749617 C147.939089,69.6749617 148.473593,70.6233267 148.481402,71.2523164 L145.290772,70.6939953 C145.290772,70.6939953 144.402925,69.3188855 144.089406,68.6336732 C144.089406,68.6336732 143.163686,69.262663 142.765053,70.8853081" id="path102" fill="#FFFFFF"></path>
                        <path d="M142.873984,66.2246933 C142.873984,66.2246933 142.047434,65.6652009 142.428108,63.681404 L147.224203,64.6789637 C147.224203,64.6789637 148.925716,65.090872 149.370811,67.410052 C149.370811,67.410052 148.481402,65.26891 144.031622,64.8331853 C144.031622,64.8331853 143.14065,65.0701789 142.873984,66.2246933" id="path104" fill="#FFFFFF"></path>
                        <path d="M150.778718,81.5621258 L150.298483,81.3290365 C150.298483,81.3290365 150.347288,81.2353323 150.309025,81.0986803 L149.972471,80.9553909 L150.183305,80.8737901 C150.083744,80.7668111 149.923666,80.6531947 149.660514,80.55012 C149.660514,80.55012 151.058269,80.5899443 150.778718,81.5621258" id="path106" fill="#FFFFFF"></path>
                        <path d="M137.067444,79.726694 L138.022837,79.6435314 C138.022837,79.6435314 138.042359,79.4049761 138.221568,79.152365 L138.876717,79.1390903 L138.338698,78.7627115 C138.627229,78.5350883 139.225765,78.5456301 139.729816,78.5553909 C139.729816,78.5553909 137.519958,77.4504617 137.067444,79.726694" id="path108" fill="#FFFFFF"></path>
                        <path d="M150.231719,65.2884317 L150.126692,66.0732048 L148.999899,64.5192761 L149.44187,64.0640296 C149.03699,63.6283049 147.585745,63.3104913 147.585745,63.3104913 C145.316931,64.1444591 142.093115,62.7611502 141.065101,62.2688125 C137.820592,64.2838442 136.190919,70.0899934 136.190919,70.0899934 C137.455145,71.4018528 140.609855,72.1327459 140.609855,72.1327459 C147.360855,71.0848201 149.786624,73.51176 149.786624,73.51176 C150.273886,74.4530972 149.67535,74.7865281 149.67535,74.7865281 C148.218249,74.6405057 147.44636,74.9684706 147.027815,75.3428971 C142.981744,74.9423115 141.555097,76.7156643 141.555097,76.7156643 C139.417859,76.714493 136.903071,75.9031704 136.903071,75.9031704 L132.948752,74.7502178 L130.598337,74.641677 L129.560172,76.2217648 C128.420104,76.1405545 124.530988,75.6728141 122.488235,72.9850641 C123.171105,78.8322089 128.27291,82.2582703 129.87291,83.1992171 C117.699167,78.2098565 118.667054,68.4981925 118.667054,68.4981925 C121.149436,70.7845761 124.587601,71.5623213 124.587601,71.5623213 C119.931671,68.4767186 119.069592,64.8429462 119.069592,64.8429462 C122.530792,67.2183487 126.155585,66.8634439 126.155585,66.8634439 C122.200095,65.3442639 120.43377,63.0012673 120.43377,63.0012673 C121.356756,63.2460697 122.221178,63.452219 123.047728,63.627524 C134.512832,65.8233268 137.752266,60.2405061 137.752266,60.2405061 C138.193457,60.7277681 138.882964,61.0826729 138.882964,61.0826729 C139.346019,60.7668116 139.576766,59.5576364 139.576766,59.5576364 L141.426253,60.133527 C141.912734,59.6868702 142.11537,57.7143958 142.11537,57.7143958 C142.702973,58.0919458 143.458854,59.0410917 143.458854,59.0410917 C144.041382,58.7966798 144.909318,57.975206 144.909318,57.975206 C145.608586,58.7357721 146.469103,60.0601254 146.469103,60.0601254 C147.112539,59.9566603 148.628596,59.4842347 148.628596,59.4842347 C149.538308,60.5509014 149.279059,61.662468 149.279059,61.662468 C149.804193,61.7198618 151.070762,61.3770604 151.070762,61.3770604 C150.867737,62.456221 150.44802,63.0043908 150.44802,63.0043908 L151.617371,63.4049765 C151.269103,64.7683732 150.231719,65.2884317 150.231719,65.2884317" id="path110" fill="#FFFFFF"></path>
                        <path d="M133.173642,71.6134682 C133.173642,71.6134682 131.788772,71.4248884 131.171495,71.2253765 C131.171495,71.2253765 128.043335,67.8574898 137.37862,64.3947275 C137.37862,64.3947275 133.548069,66.291848 133.173642,71.6134682" id="path112" fill="#231F20"></path>
                        <path d="M131.171495,71.2253765 C131.198825,71.2347469 131.231622,71.2425556 131.260514,71.2515356 C131.263638,71.254659 131.267932,71.2620773 131.267932,71.2620773 C131.079353,71.2105399 130.894287,71.1582217 130.716249,71.1023896 C127.359684,70.0712525 125.197069,68.2311354 124.458757,67.5264014 C125.101412,67.7864307 127.02274,68.4864795 128.891358,68.3603692 C128.891358,68.3603692 127.752071,67.2745713 127.442066,65.7581243 C127.442066,65.7581243 128.814052,67.2640296 130.021666,67.8672506 C130.021666,67.8672506 132.340065,65.1884806 135.758708,65.0483146 C128.424399,68.2701789 131.171495,71.2253765 131.171495,71.2253765" id="path114" fill="#37A2E1"></path>
                        <path d="M138.932549,69.5090271 C139.198825,69.4274263 139.898093,69.5468992 140.32679,68.6453863 C141.019421,67.1941418 141.763198,66.9520725 141.763198,66.9520725 C141.763198,66.9520725 141.363393,68.373644 141.390333,68.6723262 C141.410245,68.8921408 142.179011,68.5985342 142.415223,68.4782804 C142.590138,68.3923848 142.734599,67.4740832 142.783403,67.1902375 C142.511661,66.9223995 142.273886,66.6135659 141.986136,65.8787685 C141.515663,66.0415796 139.764565,66.6350398 139.20351,67.9023897 C138.963393,68.4486074 138.696727,69.0295737 138.932549,69.5090271" id="path116" fill="#37A2E1"></path>
                        <path d="M166.558903,67.8360159 C167.307365,68.7523653 167.991016,69.7425068 168.463441,70.8650055 C168.801948,72.129232 168.891748,73.2669577 168.439234,74.2774018 C165.844017,72.3349909 166.558903,67.8360159 166.558903,67.8360159" id="path118" fill="#FFFFFF"></path>
                        <path d="M173.149434,68.5290368 C173.528546,67.1390906 172.993651,65.1806719 172.055437,63.9765723 C174.327765,64.8245957 177.052216,67.5236684 175.824691,71.0004863 C175.824691,71.0004863 173.826448,70.0068309 173.149434,68.5290368" id="path120" fill="#FFFFFF"></path>
                        <path d="M177.778034,66.0774996 C178.725227,64.8171775 177.492236,62.1770604 177.000679,61.2513406 C179.353436,62.3262063 181.748751,65.9705206 180.217858,68.5637855 C178.946604,68.2303546 178.362904,67.0910671 177.778034,66.0774996" id="path122" fill="#FFFFFF"></path>
                        <path d="M182.274276,62.8712527 C182.873983,61.43055 182.154412,59.7626144 181.314588,58.5335271 C183.574812,59.0262552 186.508536,62.4925314 184.941333,65.4789637 C183.607218,65.0924337 182.966906,63.9035611 182.274276,62.8712527" id="path124" fill="#FFFFFF"></path>
                        <path d="M185.991991,59.8297691 C186.252411,58.8735954 186.448409,57.6940932 185.88306,56.8339664 C187.217565,57.207612 189.028009,59.6798423 187.739185,62.1915065 C187.274568,61.1681781 186.606535,60.2194226 185.991991,59.8297691" id="path126" fill="#FFFFFF"></path>
                        <path d="M184.127277,69.2279143 C183.85124,68.0710574 183.452216,67.0496811 182.571396,66.4054644 C183.442455,69.8877484 180.443138,72.5251324 178.991504,72.5294272 C180.214344,71.6076117 180.503265,70.362907 180.577838,69.7725702 C182.756852,67.8489002 181.265003,63.9586124 181.265003,63.9586124 C182.267638,65.2946787 183.456901,66.5085391 185.013173,66.9079534 C185.83816,66.538993 186.291845,65.640994 186.384378,64.0987783 C187.081694,66.3711062 185.446555,68.5274751 184.127277,69.2279143" id="path128" fill="#FFFFFF"></path>
                        <path d="M182.571396,66.4054644 C182.571396,66.4054644 182.025959,65.004586 181.412977,64.1510965 C182.384769,65.4094664 183.529912,66.5261086 185.013173,66.9079534 C185.013173,66.9079534 185.054168,67.8317211 184.127277,69.2279143 C183.85124,68.0710574 183.452216,67.0496811 182.571396,66.4054644" id="path130" fill="#37A2E1"></path>
                        <path d="M177.993553,70.6338684 C178.301997,72.8698859 176.618444,75.4061475 175.454559,76.0632485 C174.246165,76.6184461 173.08228,76.65788 171.941431,76.6641269 C171.861392,76.6649078 171.7794,76.6656887 171.668907,76.6649078 C171.770811,76.6512426 171.863734,76.6367965 171.960171,76.619227 C176.337721,75.8426531 176.422055,72.5372359 176.422055,72.5372359 C177.059634,71.5560743 177.423129,69.61054 177.314588,68.0991686 C178.009561,69.5711061 177.993553,70.6338684 177.993553,70.6338684" id="path132" fill="#FFFFFF"></path>
                        <path d="M171.668907,76.6649078 C171.182817,76.735186 170.832987,76.7543173 170.560464,76.7672016 C170.74514,76.5204471 170.920445,76.274083 171.07779,76.0140537 C171.46471,75.2296711 171.604486,74.3367478 171.202338,73.5722773 C171.202338,73.5722773 171.265979,72.5372359 171.090674,71.9172261 C171.090674,71.9211305 171.092626,71.9281583 171.098873,71.9375287 C171.349142,70.8638342 171.371787,69.6636391 171.235916,68.5805742 C172.258073,70.538212 174.1345,72.2194223 176.422055,72.5372359 C176.422055,72.5372359 176.334207,75.9863329 171.668907,76.6649078" id="path134" fill="#37A2E1"></path>
                        <path d="M171.202338,73.5722773 C170.877107,75.0274261 169.854949,76.62196 168.322104,76.8386511 C165.997068,76.2775969 164.594627,73.8717405 165.111953,71.4393345 C165.635525,73.1869186 166.438258,75.1437756 168.563002,75.6497785 C170.180962,74.5280606 169.982621,71.5346005 169.613271,70.1415307 C170.269591,70.4476312 170.760367,71.1999982 171.098873,71.9375287 C171.092626,71.9281583 171.090674,71.9211305 171.090674,71.9172261 C171.265979,72.5372359 171.202338,73.5722773 171.202338,73.5722773" id="path136" fill="#FFFFFF"></path>
                        <path d="M165.111953,71.4393345 C165.635525,73.1869186 166.438258,75.1437756 168.563002,75.6497785 C168.652021,75.9578312 168.670762,76.4486072 168.670762,76.7570503 C168.557926,76.791799 168.44392,76.8187389 168.322104,76.8386511 C165.997068,76.2775969 164.594627,73.8717405 165.111953,71.4393345" id="path138" fill="#37A2E1"></path>
                        <path d="M180.017565,69.9841857 C180.229571,69.9560744 180.411123,69.8818919 180.577838,69.7725702 C180.503265,70.362907 180.214344,71.6076117 178.991504,72.5294272 C178.859146,71.8531949 178.635818,71.0121993 177.993553,70.6338684 C177.993553,70.6338684 178.009561,69.5711061 177.314588,68.0991686 C178.118492,68.8097591 178.938014,69.640213 180.017565,69.9841857" id="path140" fill="#37A2E1"></path>
                        <path d="M156.661392,61.8846251 L156.668059,61.8846251 C156.672059,61.8886251 156.684059,61.8886251 156.684059,61.8886251 C156.684059,61.8886251 156.672059,61.8886251 156.661392,61.8846251" id="path142" fill="#3E92CF"></path>
                        <path d="M156.661392,61.8846251 L156.668059,61.8846251 C156.672059,61.8886251 156.684059,61.8886251 156.684059,61.8886251 C156.684059,61.8886251 156.672059,61.8886251 156.661392,61.8846251" id="path144" fill="#3E92CF"></path>
                        <path d="M177.778034,66.0774996 C178.725227,64.8171775 177.492236,62.1770604 177.000679,61.2513406 C179.353436,62.3262063 181.748751,65.9705206 180.217858,68.5637855 C178.946604,68.2303546 178.362904,67.0910671 177.778034,66.0774996" id="path146" fill="#FFFFFF"></path>
                        <polyline id="path148" fill="#FFFFFF" points="155.882792 56.5629015 155.864125 56.5509015 155.882792 56.5629015"></polyline>
                        <polyline id="path150" fill="#3E92CF" points="153.836953 57.9068429 153.827619 57.8975095 153.836953 57.9068429"></polyline>
                        <path d="M173.149434,68.5290368 C173.528546,67.1390906 172.993651,65.1806719 172.055437,63.9765723 C174.327765,64.8245957 177.052216,67.5236684 175.824691,71.0004863 C175.824691,71.0004863 173.826448,70.0068309 173.149434,68.5290368" id="path152" fill="#FFFFFF"></path>
                        <path d="M125.02723,59.9297203 C125.712442,55.8766213 127.417469,53.6445082 128.480231,52.6082954 C133.457879,54.0259625 135.355389,56.8468507 136.036697,59.2288907 L135.823911,59.7169336 C133.487942,61.7253279 127.944165,60.6770117 125.02723,59.9297203" id="path154" fill="#37A2E1"></path>
                        <path d="M137.705414,58.4253768 L136.802339,57.4699839 L136.035136,59.2308428 C135.355389,56.848022 133.45944,54.0271338 128.480231,52.6082954 C129.015907,52.0886273 129.389553,51.8656893 129.389553,51.8656893 C135.33782,53.2091739 136.506,55.7637858 136.506,55.7637858 L136.661002,54.376963 C138.393359,55.1301109 139.091065,57.1295252 139.344457,58.1915066 L137.865882,57.6140542 L137.705414,58.4253768" id="path156" fill="#FFFFFF"></path>
                        <path d="M160.532939,71.8516331 C159.223032,71.626743 157.822934,71.4584658 156.439625,71.4131754 C156.151875,70.122009 155.98516,68.3400666 156.62352,66.6838441 C156.62352,66.6838441 153.771787,68.2303546 154.557732,71.4354301 C153.831914,71.4807205 153.126009,71.5748152 152.4529,71.7220089 L150.603022,68.7886757 L150.94309,66.8325996 L151.111368,66.2489002 C152.434159,65.3743273 152.994042,63.1886758 153.01903,63.0934098 L153.022544,63.0820872 C153.079157,63.1094177 153.133427,63.140262 153.190821,63.1683732 C154.245384,64.0464601 155.479938,64.90932 156.887453,65.6265479 C157.241968,65.8205938 157.614442,66.0080023 158.000972,66.191116 C158.530011,67.7618333 159.483842,68.7055132 159.483842,68.7055132 C159.459244,68.096826 159.494774,67.4705693 159.574423,66.85993 C160.490772,67.2046835 161.469981,67.4916528 162.508537,67.6935073 C161.934598,68.0726191 160.191699,69.435235 160.532939,71.8516331" id="path158" fill="#37A2E1"></path>
                        <path d="M162.794335,72.3057083 C162.693603,72.2830631 162.595213,72.2604179 162.492529,72.2373823 C162.221177,70.9899445 162.080621,69.304049 162.644798,67.7177143 C163.3835,67.8555376 164.150313,67.9406523 164.940162,67.9746201 C164.614149,68.45095 164.38106,68.9542198 164.207317,69.4274263 C164.020689,69.5113697 162.802534,69.9306962 162.794335,72.3057083" id="path160" fill="#37A2E1"></path>
                        <path d="M170.141138,63.1094177 C170.141138,63.1094177 168.204193,64.0132732 166.479254,62.9423118 C166.479254,62.9423118 163.943383,63.6876509 163.192578,64.7828193 C163.192578,64.7828193 167.635721,66.6518285 170.141138,63.1094177" id="path162" fill="#FFFFFF"></path>
                        <path d="M173.959586,58.114591 C173.959586,58.114591 171.306975,59.3760844 169.22596,58.2040005 C169.22596,58.2040005 167.451826,58.5296227 166.173934,60.0441176 C166.173934,60.0441176 169.896335,62.6920433 173.959586,58.114591" id="path164" fill="#FFFFFF"></path>
                        <path d="M159.0774,62.8876509 C159.0774,62.8876509 156.72269,60.3018043 155.88677,56.3955086 C155.88677,56.3955086 158.1427,58.3316725 160.840992,58.0825754 C160.840992,58.0825754 157.85495,56.1542202 156.765247,53.4262554 C156.765247,53.4262554 159.757146,54.0138591 161.58594,52.8292813 C161.58594,52.8292813 157.99043,51.733332 156.782036,50.2789641 C156.782036,50.2789641 158.668224,48.7191789 159.386624,46.758808 C159.386624,46.758808 153.553144,42.4566119 151.449093,45.6331858 C152.00351,44.178037 153.42352,42.0021463 156.799215,43.1511946 C161.680816,44.8152258 158.69087,46.0575879 164.516541,45.756563 C164.516541,45.756563 163.206633,46.9864312 162.586233,47.5568558 C162.586233,47.5568558 163.743481,48.9909212 165.691357,49.289213 C165.691357,49.289213 164.433378,50.2008772 162.613954,49.9447523 C162.613954,49.9447523 165.110391,52.0538786 168.386916,51.3483638 C168.386916,51.3483638 165.148263,52.8960455 164.655145,53.5051231 C164.655145,53.5051231 165.303266,54.8423608 167.987502,55.6747668 C167.987502,55.6747668 166.456999,56.3100035 163.679449,55.4381636 C163.679449,55.4381636 165.15451,56.9592958 167.279644,57.4625657 C167.279644,57.4625657 165.035818,58.2094666 163.546702,59.6220581 C163.546702,59.6220581 164.010538,60.3958989 165.485989,60.9831122 C165.485989,60.9831122 163.388576,60.9983391 161.950996,59.8641273 C161.950996,59.8641273 162.732646,61.6288906 164.256902,62.4136636 C164.256902,62.4136636 161.922104,63.5396763 161.12679,64.2916529 L161.694481,64.9421165 C161.694481,64.9421165 157.489894,64.8780852 154.910294,62.2754499 C154.381255,61.7370409 153.798337,61.1041468 153.158805,60.4119067 C154.699459,61.620301 156.892139,62.9423118 159.0774,62.8876509" id="path166" fill="#FFFFFF"></path>
                        <path d="M73.6031216,52.4138591 C74.159881,51.6884321 74.2980948,50.9774511 74.2980948,50.4491935 C74.6205935,50.6440202 74.9672992,50.8380661 75.3401641,51.032112 C75.3663232,51.8594423 74.9591001,52.4556356 74.6170796,52.8062456 C74.2625652,52.6590519 73.9264013,52.5274755 73.6031216,52.4138591" id="path168" fill="#37A2E1"></path>
                        <path d="M76.0160059,59.5951181 C75.7954105,60.6129804 76.3658351,61.567202 76.7176164,62.0372849 C75.8731069,62.0115163 75.155879,61.8885294 75.155879,61.8885294 C75.2530972,62.0560258 75.7145906,62.4601253 75.7145906,62.4601253 C74.763883,62.3558794 73.8897004,62.2004865 73.0818918,62.0115163 C72.8827703,61.3985343 72.6512427,60.3170312 73.0073188,59.2175681 C74.2094662,59.5201547 75.3038537,59.5939468 76.0160059,59.5951181" id="path170" fill="#37A2E1"></path>
                        <path d="M67.9105888,55.8438249 C68.0249861,56.0312333 68.1428973,56.1948253 68.2440198,56.3213261 C69.0752545,57.3661284 70.106782,58.0810137 71.1675922,58.5725705 C70.7556839,59.1359673 70.2789636,60.0886271 70.5854546,61.2365041 C69.8412867,60.9378218 69.17911,60.6059526 68.5954107,60.2522191 C68.5505107,59.6419702 68.5946298,58.804879 69.0557328,58.2262553 C69.0557328,58.2262553 68.1510964,58.0247911 67.3421164,59.3795983 C66.7346006,58.8896032 66.2383585,58.3812577 65.8424581,57.8834539 C66.0630535,57.2790615 66.628012,56.2014627 67.9105888,55.8438249" id="path172" fill="#37A2E1"></path>
                        <path d="M67.2058548,54.0927268 C66.5155669,54.1157624 65.3766699,54.3660309 64.5997056,55.6376755 C64.5481682,55.4717409 64.5056109,55.313615 64.4767187,55.167983 C64.2170799,53.8846253 64.320545,52.8464604 64.629769,52.0109309 C65.2860891,51.8746693 66.4948739,51.7770607 67.4885293,52.5879928 C67.1800862,53.0366019 67.1226923,53.5656404 67.2058548,54.0927268" id="path174" fill="#37A2E1"></path>
                        <path d="M68.6481193,51.7915068 C68.3068797,51.3003403 67.5591979,50.5183003 66.0685196,50.0568069 C66.7841857,49.4969241 67.5771579,49.2052696 68.1382121,49.1123463 C68.489603,49.0537811 68.8456791,49.0244985 69.1962891,49.0166898 C69.5949226,49.5199597 70.1356742,50.3242545 70.0290856,50.862273 C70.0290856,50.862273 70.8052691,50.1641764 70.683844,49.1123463 C71.3405546,49.2087835 71.9757913,49.3657382 72.5622237,49.5500232 C72.8558303,50.7033662 72.3486561,51.5342105 72.0179582,51.9305014 C70.3074653,51.507661 69.2540734,51.6150304 68.6481193,51.7915068" id="path176" fill="#37A2E1"></path>
                        <path d="M147.00841,81.6905787 C146.911077,81.7625787 146.80041,81.8559121 146.715077,81.9412454 C146.80041,81.8559121 146.911077,81.7625787 147.00841,81.6905787" id="path178" fill="#FFFFFF"></path>
                        <path d="M147.117172,81.6156153 C147.023838,81.6889487 146.918505,81.762282 146.809172,81.8396153 C146.918505,81.762282 147.023838,81.6889487 147.117172,81.6156153" id="path180" fill="#FFFFFF"></path>
                        <path d="M146.87324,81.7881873 C146.779907,81.8655206 146.69724,81.9441873 146.615907,82.0375206 C146.69724,81.9441873 146.779907,81.8655206 146.87324,81.7881873" id="path182" fill="#FFFFFF"></path>
                        <path d="M135.179694,78.4683241 C134.854072,79.0879434 133.942408,79.4092708 133.087747,79.5752054 C132.747288,78.394532 132.374423,75.6657863 136.963589,77.3099053 C136.138601,77.4895051 135.46354,77.9256203 135.179694,78.4683241" id="path184" fill="#FFFFFF"></path>
                        <path d="M139.198044,84.3025845 C137.735868,84.005464 136.630939,83.5876992 136.630939,83.5876992 C136.703559,83.6888217 136.797654,83.7907251 136.911661,83.8902858 C135.409269,83.4994611 132.509123,82.4558301 133.16271,80.3424089 C135.017664,80.6875529 136.280328,80.1721795 136.280328,80.1721795 C136.20068,80.4333801 135.871934,81.0428481 135.871934,81.0428481 C140.589162,82.4417744 141.800289,79.1578311 141.800289,79.1578311 C141.915077,79.1898467 142.020104,79.2218623 142.127864,79.2562206 C142.107952,79.2515354 142.091944,79.2452884 142.075936,79.238651 C142.050167,83.2300614 140.195604,84.1136143 139.198044,84.3025845" id="path186" fill="#FFFFFF"></path>
                        <path d="M146.513222,84.5192756 C145.919372,85.3020965 144.570031,85.135381 144.570031,85.135381 L144.75822,84.6641267 L144.759391,84.6598319 C146.60068,84.3447514 147.522105,82.8821844 147.522105,82.8821844 C147.367102,82.4843318 147.087551,81.9435802 146.909904,81.611711 C146.912246,81.608978 146.91537,81.6046832 146.920836,81.6019501 C148.29126,80.6902859 149.42313,83.2808178 149.42313,83.2808178 C148.29985,84.4993634 146.513222,84.5192756 146.513222,84.5192756" id="path188" fill="#FFFFFF"></path>
                        <path d="M146.828972,81.6812083 C146.824972,81.6905416 146.819639,81.699875 146.800972,81.7132083 C146.819639,81.699875 146.824972,81.6905416 146.828972,81.6812083" id="path190" fill="#37A2E1"></path>
                        <path d="M139.198044,84.3025845 L139.198044,84.3025845 C139.226044,84.3065845 139.248711,84.3119179 139.278044,84.3159179 C139.248711,84.3119179 139.226044,84.3065845 139.198044,84.3025845" id="path192" fill="#37A2E1"></path>
                        <path d="M146.935362,81.611711 L146.935362,81.611711 C146.920695,81.6143777 146.916695,81.6250443 146.899362,81.6250443 C146.916695,81.6250443 146.920695,81.6143777 146.935362,81.611711" id="path194" fill="#37A2E1"></path>
                        <path d="M146.858232,81.8611985 C146.736898,81.9731985 146.627565,82.1065319 146.515565,82.2331985 C146.627565,82.1065319 146.736898,81.9731985 146.858232,81.8611985" id="path196" fill="#37A2E1"></path>
                        <path d="M144.759391,84.6598319 L145.259391,83.6384557 L144.759391,84.6598319 Z" id="path198" fill="#37A2E1"></path>
                        <path d="M146.772594,81.7639804 C146.73526,81.7853137 146.71126,81.8186471 146.69126,81.8466471 C146.71126,81.8186471 146.73526,81.7853137 146.772594,81.7639804" id="path200" fill="#37A2E1"></path>
                        <path d="M138.139186,74.0849176 C139.313222,74.5237658 141.803803,75.3956057 141.803803,75.3956057 C140.449386,75.6407985 138.671348,75.6384559 136.770324,75.4975091 C137.633183,76.0972163 138.926302,76.4372846 138.926302,76.4372846 C138.07086,76.4681289 136.720738,76.2529996 133.040504,75.108246 C132.967883,75.0852104 132.897215,75.0688122 132.826937,75.0528044 C132.608684,75.0207888 132.388479,74.9887731 132.170617,74.9551958 C129.287259,74.8521211 128.908928,79.3913109 128.908928,79.3913109 C127.403804,76.7968746 128.455634,75.1597834 129.169348,74.442165 C126.437479,73.9349908 124.436112,73.4489001 124.436112,73.4489001 C130.984477,74.4839415 135.278083,74.094288 136.500533,73.9631021 C131.951973,73.5254252 126.934111,72.3084413 126.934111,72.3084413 C131.773154,73.0768161 135.183598,72.9253276 136.841773,72.7703252 C133.353633,72.450169 129.436014,71.4994614 129.436014,71.4994614 C134.785746,72.3498274 137.8366,71.7192759 137.81903,71.751682 C137.800289,71.7836976 140.549338,72.74768 140.549338,72.74768 C139.98516,72.8491929 139.304633,72.8819894 138.563198,72.8691051 C139.579499,73.2482168 141.589845,73.9509986 141.589845,73.9509986 C140.638747,74.1223993 139.438552,74.1489489 138.139186,74.0849176" id="path202" fill="#231F20"></path>
                        <path d="M121.211515,83.672033 C121.744458,81.2208862 124.276034,81.3466061 124.276034,81.3466061 C126.004877,82.2758398 128.333037,83.0184459 130.081793,83.4994611 C127.782134,83.2316231 125.182232,82.3141024 125.182232,82.3141024 C122.880622,81.9490463 121.792481,82.8810131 121.211515,83.672033" id="path204" fill="#FFFFFF"></path>
                        <path d="M166.558903,67.8360159 C167.307365,68.7523653 167.991016,69.7425068 168.463441,70.8650055 C168.801948,72.129232 168.891748,73.2669577 168.439234,74.2774018 C165.844017,72.3349909 166.558903,67.8360159 166.558903,67.8360159" id="path206" fill="#FFFFFF"></path>
                        <path d="M76.9780361,53.9119557 C77.4352348,53.4344545 77.576572,52.9507063 77.5906276,52.5680807 C78.281306,53.149047 79.1183972,53.9135174 80.0679336,54.858759 C80.0640292,55.1539274 79.9562694,55.3686663 79.8172747,55.5224974 C78.7880898,54.894679 77.8459717,54.3613456 76.9780361,53.9119557" id="path208" fill="#37A2E1"></path>
                    </g>
                </g>
            </g>
        </g>
    </g>
</svg>