<?xml version="1.0" encoding="UTF-8"?>
<svg width="200px" height="200px" viewBox="0 0 200 200" version="1.1" xmlns="http://www.w3.org/2000/svg" xmlns:xlink="http://www.w3.org/1999/xlink">
    <!-- Generator: Sketch 54.1 (76490) - https://sketchapp.com -->
    <title>howard-payne</title>
    <desc>Created with Sketch.</desc>
    <g id="howard-payne" stroke="none" stroke-width="1" fill="none" fill-rule="evenodd">
        <g id="howard-payne_BGL">
            <g id="howard-payne" transform="translate(0.000000, 45.000000)">
                <path d="M0,1.08910891 C8.94565217,1.12178218 17.9021739,1.02376238 26.8478261,1.14356436 C26.8369565,10.8475248 26.6956522,20.5732673 26.9130435,30.2772277 C30.6304348,30.2336634 34.3478261,30.2445545 38.0652174,30.2554455 C38.1956522,20.5405941 38.0869565,10.8148515 38.1195652,1.1 C47.1304348,1.07821782 56.1521739,1.07821782 65.1630435,1.1 C65.1630435,6.24059406 65.1630435,11.3811881 65.1521739,16.5217822 C63.423913,16.5217822 61.6956522,16.5326733 59.9673913,16.5435644 C59.9456522,31.3445545 59.9782609,46.1564356 59.9565217,60.9683168 C61.6847826,60.990099 63.423913,61.0118812 65.1630435,61.0336634 C65.1413043,66.3267327 65.2065217,71.619802 65.1086957,76.9128713 C56.1304348,76.8584158 47.1521739,76.8693069 38.173913,76.9019802 C37.9782609,66.6861386 38.3152174,56.3940594 37.9891304,46.1891089 C34.25,46.2217822 30.5108696,46.1346535 26.7608696,46.3633663 C26.8695652,56.5356436 26.7934783,66.7079208 26.8043478,76.880198 C17.8695652,76.880198 8.93478261,76.880198 0,76.880198 L0,61.0336634 C1.73913043,61.0118812 3.47826087,60.990099 5.2173913,60.9683168 C5.18478261,46.1564356 5.2173913,31.3554455 5.20652174,16.5435644 C3.4673913,16.5326733 1.73913043,16.5326733 0,16.5217822 L0,1.08910891 Z" id="Shape" fill="#08305D" fill-rule="nonzero"></path>
                <path d="M70.6847826,0.686138614 C84.076087,0.664356436 97.4782609,0.620792079 110.869565,0.707920792 C116.891304,0.969306931 123.717391,0.762376238 128.206522,5.51089109 C131.706522,8.65841584 131.630435,14.1693069 131.684783,18.5148515 C131.380435,25.3108911 132.586957,31.7910891 130.326087,37.9663366 C129.01087,42.290099 125.01087,45.0455446 120.706522,45.7752475 C112.945652,46.7336634 105.608696,46.3633663 97.8369565,46.450495 C97.8369565,51.2970297 97.826087,56.1326733 97.8369565,60.9683168 C99.5108696,61.0118812 101.184783,61.0445545 102.847826,61.0881188 C102.782609,66.3485149 102.826087,71.6089109 102.804348,76.8693069 C92.1195652,76.9128713 81.4347826,76.8257426 70.7391304,76.9128713 C70.6304348,71.6089109 70.6956522,66.3267327 70.6847826,61.0227723 C72.4891304,61.0118812 74.3043478,61.0118812 76.1086957,61.0009901 C76.0978261,46.1782178 76.1630435,31.3554455 76.076087,16.5326733 C74.2826087,16.5326733 72.4891304,16.5217822 70.6847826,16.5217822 C70.673913,11.239604 70.6847826,5.96831683 70.6847826,0.686138614 Z M97.923913,16.5762376 C97.6956522,22.0871287 97.9130435,27.619802 97.826087,33.1306931 C101.934783,33.1633663 106.054348,33.1633663 110.163043,33.1415842 C110.152174,27.5980198 110.217391,22.0544554 110.108696,16.5108911 C106.043478,16.5980198 101.978261,16.4237624 97.923913,16.5762376 Z" id="Shape" fill="#08305D" fill-rule="nonzero"></path>
                <path d="M134.586957,0.675247525 C143.532609,0.588118812 152.478261,0.773267327 161.423913,0.577227723 C161.891304,20.6712871 161.467391,40.8851485 161.630435,61.0009901 C165.358696,61.0227723 169.086957,61.0227723 172.815217,61.0009901 C172.836957,40.8960396 172.815217,20.780198 172.826087,0.675247525 C181.782609,0.631683168 190.728261,0.697029703 199.684783,0.642574257 C199.76087,5.94653465 199.826087,11.2722772 199.641304,16.5653465 C197.956522,16.5544554 196.271739,16.5326733 194.586957,16.5108911 C194.48913,30.6148515 194.586957,44.7079208 194.543478,58.8118812 C194.456522,62.9287129 194.228261,66.8059406 192.076087,70.4435644 C190.641304,73.5584158 186.836957,75.3118812 183.717391,76.1940594 C175.5,77.3267327 166.967391,76.749505 158.673913,76.8693069 C153.423913,76.7059406 146.782609,76.6188119 143.119565,72.2405941 C139.836957,68.7990099 139.956522,64.3663366 139.771739,59.9009901 C139.804348,45.4594059 139.771739,31.0178218 139.793478,16.5653465 C138.065217,16.5435644 136.326087,16.5326733 134.586957,16.5108911 C134.576087,11.2287129 134.576087,5.95742574 134.586957,0.675247525 Z" id="Shape" fill="#08305D" fill-rule="nonzero"></path>
                <path d="M0,84.0356436 C61.1630435,83.8069307 122.51087,84.0029703 183.695652,83.9376238 C189.119565,84.0356436 194.597826,83.6980198 200,84.1772277 L200,110 L0,110 L0,84.0356436 Z" id="Shape" fill="#08305D" fill-rule="nonzero"></path>
                <path d="M7.85869565,89.4158416 C9.09782609,89.2415842 10.3478261,89.1762376 11.6195652,89.2306931 C12.0978261,90.8534653 12.6630435,92.3128713 13.4347826,93.8049505 C14.0326087,92.4 14.1956522,90.4069307 15.2717391,89.2851485 C16.3804348,89.1871287 17.5,89.1326733 18.6195652,89.1 C18.826087,92.4435644 16.5,94.2514851 15.6195652,97.3227723 C14.3804348,100.274257 15.8804348,102.474257 16.2391304,105.447525 C14.3043478,105.50198 12.3586957,105.545545 10.4130435,105.578218 C10.5,103.726733 10.9456522,101.984158 11.4021739,100.19802 C11.2065217,97.3118812 9.66304348,94.349505 8.01086957,92.0079208 C7.92391304,91.1475248 7.88043478,90.2871287 7.85869565,89.4158416 Z" id="Shape" fill="#FACB4E" fill-rule="nonzero"></path>
                <path d="M21.2282609,89.1544554 C24.4565217,89.1653465 27.6847826,89.1653465 30.923913,89.1544554 C30.9673913,90.8970297 31.0108696,92.639604 31.0652174,94.3821782 C28.3043478,95.4059406 28.25,92.7267327 25.8043478,92.3237624 L25.923913,94.7851485 C26.6195652,96.5821782 29.75,94.9920792 28.5326087,98.4118812 C27.6413043,98.6079208 26.7391304,98.7930693 25.8369565,98.9564356 C26.076087,100.448515 24.9673913,102.136634 27.0978261,102.3 C28.3586957,99.8059406 28.5434783,100.023762 31.25,100.110891 C31.2391304,101.907921 31.2282609,103.70495 31.2282609,105.50198 C27.8913043,105.523762 24.5543478,105.534653 21.2173913,105.567327 C21.6630435,101.494059 22.6521739,97.7584158 21.9673913,93.5980198 C21.4673913,92.2039604 21.2173913,90.7227723 21.2282609,89.1544554 Z" id="Shape" fill="#FACB4E" fill-rule="nonzero"></path>
                <path d="M34.5543478,89.1871287 C36.5,89.1762376 38.4456522,89.1762376 40.3804348,89.1762376 C39.3478261,93.6524752 39.1304348,97.5732673 39.4130435,102.158416 L40.8913043,102.212871 C40.9891304,101.221782 41.0869565,100.219802 41.1956522,99.2287129 C42.3152174,99.2178218 43.4347826,99.2178218 44.5543478,99.2069307 C44.5652174,101.308911 44.576087,103.421782 44.576087,105.523762 C41.25,105.534653 37.9130435,105.534653 34.5869565,105.512871 C35.9456522,99.3376238 36.0108696,95.3623762 34.5543478,89.1871287 Z" id="Shape" fill="#FACB4E" fill-rule="nonzero"></path>
                <path d="M47.3152174,89.0891089 C49.2608696,89.1544554 51.2065217,89.2633663 53.1413043,89.4049505 C52.076087,93.5435644 51.5108696,97.660396 52.1956522,101.929703 L53.5326087,102.419802 C53.5978261,101.363366 53.6630435,100.306931 53.7173913,99.239604 C54.8913043,99.250495 56.0652174,99.2613861 57.2391304,99.2722772 C57.2282609,101.341584 57.2282609,103.410891 57.2282609,105.480198 C53.9347826,105.523762 50.6304348,105.545545 47.326087,105.556436 C47.5,102.626733 48.423913,99.8930693 48.2826087,96.9306931 C48.3369565,94.2623762 47.3913043,91.7574257 47.3152174,89.0891089 Z" id="Shape" fill="#FACB4E" fill-rule="nonzero"></path>
                <path d="M62.0652174,89.3722772 C64.1413043,89.2089109 68.2173913,88.4247525 69.5217391,90.5158416 C70.3913043,93.5326733 69.9130435,97.0722772 70.0108696,100.19802 C69.8586957,101.907921 70.2717391,104.674257 68.1413043,105.273267 C65.8913043,105.730693 63.0217391,105.741584 61,104.489109 C59.8804348,101.973267 60.5,98.5752475 60.326087,95.8415842 C60.5217391,93.8049505 59.8152174,90.4287129 62.0652174,89.3722772 Z" id="Shape" fill="#FACB4E" fill-rule="nonzero"></path>
                <path d="M78.4021739,89.219802 C77.3152174,93.3039604 77.25,96.4188119 77.75,100.666337 C79.0326087,97.0178218 79.4565217,93.260396 79.923913,89.4376238 C81.1086957,89.3613861 82.2826087,89.2742574 83.4673913,89.1871287 C84.0543478,93.1841584 84.7065217,97.170297 85.3478261,101.167327 C85.6195652,98.7277228 86.0869565,96.2881188 86.173913,93.8376238 C85.6195652,92.1059406 84.5434783,91.2237624 85.3695652,89.1980198 C87.1413043,89.1326733 88.9130435,89.1217822 90.6956522,89.1544554 L90.4565217,91.550495 C88.7608696,95.9287129 88.826087,100.905941 87.9456522,105.578218 C86.3586957,105.523762 84.7717391,105.469307 83.1847826,105.414851 C82.7173913,102.485149 82.2717391,99.4574257 82.0434783,96.5059406 C80.9456522,99.4356436 80.5652174,102.430693 80.1304348,105.512871 C78.5543478,105.50198 76.9673913,105.491089 75.3804348,105.491089 C74.4456522,100.709901 74.7826087,94.9920792 72.326087,90.7336634 C74.0652174,88.2287129 75.75,89.1762376 78.4021739,89.219802 Z" id="Shape" fill="#FACB4E" fill-rule="nonzero"></path>
                <path d="M104.565217,89.4594059 C106.478261,89.1 108.369565,89.1326733 110.315217,89.1 C109.413043,93.8811881 109.369565,98.2158416 109.282609,103.051485 C108.956522,106.329703 104.554348,105.610891 102.315217,105.240594 C99.8152174,104.674257 100.391304,101.265347 100.25,99.370297 C101.456522,99.3485149 102.663043,99.3376238 103.858696,99.3158416 C103.945652,100.350495 104.032609,101.374257 104.130435,102.408911 L105.434783,101.940594 C106.217391,97.5623762 105.315217,93.7069307 104.565217,89.4594059 Z" id="Shape" fill="#FACB4E" fill-rule="nonzero"></path>
                <path d="M115.119565,89.1435644 C117.173913,89.1435644 119.228261,89.219802 121.271739,89.3831683 C121.75,94.9376238 122.913043,100.132673 124.141304,105.523762 C122.695652,105.523762 121.23913,105.523762 119.793478,105.523762 C119.608696,104.173267 119.413043,102.822772 119.228261,101.472277 C118.467391,101.526733 117.706522,101.570297 116.934783,101.613861 C116.771739,102.920792 116.597826,104.238614 116.423913,105.545545 C114.945652,105.523762 113.467391,105.50198 111.98913,105.480198 C112.184783,102.855446 113.543478,100.633663 113.847826,98.0306931 C114.271739,95.0683168 114.663043,92.0950495 115.119565,89.1435644 Z" id="Shape" fill="#FACB4E" fill-rule="nonzero"></path>
                <path d="M135.793478,89.1871287 C135.771739,90.9514851 135.75,92.7049505 135.728261,94.4584158 C134.847826,94.4910891 133.956522,94.5128713 133.076087,94.5455446 C132.771739,93.0970297 131.913043,92.3891089 130.521739,92.4108911 C130.467391,95.7326733 130.48913,99.0653465 130.608696,102.387129 C132.956522,102.365347 132.282609,101.167327 132.945652,99.4247525 C133.902174,99.4356436 134.858696,99.4465347 135.815217,99.4574257 C135.880435,101.483168 135.913043,103.508911 135.934783,105.534653 C133.097826,105.186139 128.206522,106.7 126.793478,103.487129 C126.641304,99.5227723 126.608696,95.3950495 126.880435,91.4415842 C127.597826,87.9782178 133.25,89.4811881 135.793478,89.1871287 Z" id="Shape" fill="#FACB4E" fill-rule="nonzero"></path>
                <path d="M139.130435,89.3069307 C140.75,89.2415842 142.369565,89.1653465 143.98913,89.1 C144.021739,91.3544554 144.054348,93.5980198 144.076087,95.8524752 C145.054348,93.6742574 145.945652,91.4633663 146.793478,89.219802 C148,89.1980198 149.206522,89.1762376 150.423913,89.1435644 C150.913043,92.2475248 148.630435,93.260396 147.554348,95.8524752 L149.619565,96.5386139 C149.771739,99.609901 150.413043,102.49604 151.043478,105.491089 C149.380435,105.491089 147.728261,105.491089 146.076087,105.491089 C145.684783,103.628713 147.315217,98.4445545 144.173913,99.0217822 C144.097826,101.167327 144.054348,103.323762 144.065217,105.469307 C142.423913,105.491089 140.793478,105.50198 139.152174,105.50198 C140.619565,99.1089109 140.706522,95.7 139.130435,89.3069307 Z" id="Shape" fill="#FACB4E" fill-rule="nonzero"></path>
                <path d="M153.467391,89.4485149 C156.695652,88.9039604 160.108696,89.219802 163.369565,89.1871287 C163.402174,90.8425743 163.402174,92.4980198 163.358696,94.1534653 C161.326087,95.8742574 160.206522,92.8683168 158.347826,92.2148515 L158.119565,95.0683168 C160.51087,96.0920792 161.119565,95.4821782 161.184783,98.5207921 C160.23913,98.6188119 159.293478,98.7168317 158.347826,98.8257426 C158.271739,99.9584158 158.195652,101.091089 158.119565,102.223762 C159.945652,102.223762 159.956522,101.221782 160.858696,99.9366337 C161.793478,100.056436 162.728261,100.187129 163.663043,100.328713 C163.641304,102.038614 163.630435,103.748515 163.619565,105.458416 C160.195652,105.556436 156.782609,105.567327 153.358696,105.447525 C153.902174,102.550495 154.652174,99.9039604 154.576087,96.9306931 C154.673913,94.3277228 153.630435,92.0079208 153.467391,89.4485149 Z" id="Shape" fill="#FACB4E" fill-rule="nonzero"></path>
                <path d="M166.108696,89.1871287 C170.043478,89.1653465 173.967391,89.1762376 177.902174,89.1217822 C178.043478,91.2673267 178.032609,93.3475248 177.847826,95.4930693 C174.01087,95.209901 176.608696,93.2821782 174.021739,92.3128713 C173.706522,97.0069307 173.978261,100.971287 175.032609,105.534653 C173.01087,105.545545 171,105.50198 168.978261,105.327723 C170.413043,101.178218 170.293478,97.050495 170.228261,92.7158416 L169.086957,92.5960396 C168.76087,93.8267327 168.228261,94.9267327 167.478261,95.8742574 C165.380435,94.6217822 166.326087,91.2891089 166.108696,89.1871287 Z" id="Shape" fill="#FACB4E" fill-rule="nonzero"></path>
                <path d="M190.119565,89.1980198 C190.130435,90.809901 190.130435,92.4217822 190.141304,94.0227723 C188.076087,94.0663366 186.5,93.129703 184.673913,92.3346535 C184.684783,93.380198 184.706522,94.4148515 184.728261,95.460396 C186.880435,95.8633663 190.119565,94.9485149 190.456522,97.9544554 C190.565217,100.110891 191.097826,103.291089 189.445652,104.968317 C186.913043,105.883168 183.815217,105.436634 181.163043,105.567327 C181.108696,103.90099 181.043478,102.234653 180.98913,100.568317 C183.695652,100.394059 184.032609,100.492079 185.826087,102.376238 C187.23913,102.419802 186.5,99.8930693 186.73913,98.9237624 C185.01087,98.749505 183.152174,98.7930693 181.576087,97.9544554 C180.467391,95.9287129 180.75,93.0861386 181.097826,90.8861386 C182.380435,88.2069307 187.673913,89.4267327 190.119565,89.1980198 Z" id="Shape" fill="#FACB4E" fill-rule="nonzero"></path>
                <path d="M64.173913,92.5633663 L66.2282609,92.5851485 C66.25,95.7871287 66.2282609,98.9891089 66.1521739,102.20198 L64.2391304,102.223762 C64.1521739,99 64.1304348,95.7871287 64.173913,92.5633663 Z" id="Shape" fill="#08305D" fill-rule="nonzero"></path>
                <path d="M117.869565,92.5306931 C118.347826,94.5564356 118.728261,96.5821782 119.043478,98.629703 L117.467391,98.8910891 C117.532609,96.7673267 117.641304,94.6544554 117.869565,92.5306931 Z" id="Shape" fill="#08305D" fill-rule="nonzero"></path>
            </g>
        </g>
    </g>
</svg>