<?xml version="1.0" encoding="UTF-8"?>
<svg width="200px" height="200px" viewBox="0 0 200 200" version="1.1" xmlns="http://www.w3.org/2000/svg" xmlns:xlink="http://www.w3.org/1999/xlink">
    <!-- Generator: Sketch 54.1 (76490) - https://sketchapp.com -->
    <title>hunter</title>
    <desc>Created with Sketch.</desc>
    <g id="hunter" stroke="none" stroke-width="1" fill="none" fill-rule="evenodd">
        <g id="hunter_BGL">
            <g id="hunter" transform="translate(0.000000, 7.000000)">
                <g fill-rule="nonzero" id="Shape">
                    <path d="M10.6352941,0.131764706 C10.7670588,0.376470588 10.8988235,0.621176471 11.0494118,0.884705882 C14.7952941,6.72 20.5176471,10.8988235 26.7294118,13.7788235 C30.6447059,15.6047059 34.8047059,16.9411765 38.9835294,17.9576471 C44.48,19.2941176 50.1082353,20.0847059 55.7176471,20.5552941 C59.6705882,20.8188235 63.6423529,21.1011765 67.5952941,21.0635294 C70.8517647,21.0447059 74.1270588,21.12 77.4023529,20.9694118 C80.6023529,20.8752941 83.8023529,20.6494118 87.0023529,20.5741176 C88.9223529,20.4047059 90.88,20.5176471 92.8188235,20.48 C95.8305882,20.7058824 98.8423529,20.48 101.854118,20.7435294 C105.863529,20.8 109.891765,21.0635294 113.901176,21.2517647 C124.705882,21.9294118 135.642353,22.8894118 146.258824,24.9788235 C150.475294,25.8447059 154.785882,26.8988235 158.757647,28.5741176 C160.790588,29.4776471 162.729412,30.4376471 164.291765,32.0752941 C165.515294,33.28 166.305882,35.1247059 165.778824,36.8376471 C165.270588,38.6823529 164.122353,39.9435294 162.898824,41.3364706 C164.442353,41.4117647 166.004706,41.2988235 167.548235,41.4305882 C169.129412,41.5623529 170.710588,41.4494118 172.291765,41.5811765 C173.609412,41.7129412 174.908235,41.6564706 176.225882,41.7882353 C178.183529,41.9576471 180.16,42.0141176 182.098824,42.3341176 C182.418824,42.6352941 182.644706,43.0682353 182.870588,43.4447059 C188.498824,53.2705882 193.524706,63.5294118 197.402353,74.1647059 C199.943529,80.0752941 200.037647,87.0776471 198.211765,93.1952941 C196.536471,98.8611765 193.355294,103.887059 189.421176,108.254118 C187.407059,110.625882 185.355294,112.96 183.284706,115.294118 C181.364706,117.383529 179.482353,119.623529 177.28,121.449412 C177.035294,119.152941 176.621176,116.894118 176.056471,114.672941 C175.36,112 174.362353,109.270588 172.875294,106.936471 C172.178824,105.825882 171.275294,104.865882 170.296471,103.981176 C168.884706,102.776471 167.077647,102.136471 165.232941,102.098824 C165.872941,102.983529 166.550588,103.811765 167.021176,104.809412 C167.830588,106.390588 168.357647,108.385882 167.924706,110.136471 C167.604706,111.736471 166.663529,113.167059 165.496471,114.277647 C163.595294,116.028235 161.223529,117.176471 158.832941,118.098824 C152.922353,120.282353 146.315294,121.167059 140.047059,121.807059 C137.712941,121.976471 135.378824,121.788235 133.044706,122.032941 C129.468235,122.108235 125.910588,122.428235 122.352941,122.691765 C109.496471,123.802353 96.5647059,125.722353 84.0847059,129.129412 C75.1058824,131.614118 65.9764706,134.983529 58.0705882,139.971765 C54.0988235,142.512941 50.3529412,145.505882 47.3223529,149.157647 C46.1364706,150.72 45.1388235,152.432941 44.2541176,154.164706 C42.6917647,157.251765 41.2611765,160.903529 41.4494118,164.404706 C41.4870588,165.797647 41.8447059,167.152941 42.6352941,168.301176 C43.7270588,170.051765 45.7976471,171.124706 47.7364706,171.670588 C51.0870588,172.574118 54.6070588,172.574118 58.0517647,172.254118 C60.3105882,172.028235 62.5694118,171.745882 64.7905882,171.331765 C64.0564706,171.632941 63.3976471,172.028235 62.72,172.404706 C57.6188235,175.190588 52.2352941,177.562353 46.6823529,179.275294 C41.7694118,180.762353 36.5741176,181.778824 31.4164706,181.665882 C28.9505882,181.628235 26.4658824,181.289412 24.0941176,180.611765 C20.48,179.614118 17.1294118,177.694118 14.4564706,175.058824 C12.2917647,172.988235 10.56,170.352941 9.20470588,167.68 C7.75529412,164.649412 6.68235294,161.411765 5.96705882,158.136471 C5.66588235,156.065882 5.57176471,153.957647 5.36470588,151.887059 C5.19529412,149.44 4.96941176,146.992941 4.89411765,144.545882 C4.68705882,142.832941 4.83764706,141.101176 4.63058824,139.369412 C4.57411765,137.148235 4.57411765,134.908235 4.46117647,132.687059 C4.44235294,129.355294 4.44235294,126.042353 4.46117647,122.710588 C4.57411765,120.508235 4.57411765,118.305882 4.63058824,116.122353 C4.81882353,114.428235 4.68705882,112.752941 4.87529412,111.058824 C5.00705882,107.463529 5.32705882,103.868235 5.60941176,100.272941 C5.85411765,97.1294118 6.23058824,94.0235294 6.56941176,90.8988235 C6.85176471,88.2823529 7.32235294,85.7788235 7.43529412,83.1623529 C8.13176471,75.6705882 8.60235294,68.3294118 9.14823529,60.8 C9.41176471,56.0188235 9.76941176,51.2564706 10.0141176,46.4564706 C10.2776471,41.3364706 10.5788235,36.1788235 10.7482353,31.04 C10.8988235,29.4776471 10.8423529,27.9152941 10.8988235,26.3529412 C11.1058824,24.2258824 10.9929412,22.08 11.0682353,19.9529412 C11.2376471,17.3929412 11.1435294,14.8141176 11.1811765,12.2352941 C11.1623529,10.7294118 11.2376471,9.20470588 11.1058824,7.71764706 C10.9929412,6.21176471 11.0870588,4.70588235 10.9176471,3.21882353 C10.8423529,2.16470588 10.7858824,1.14823529 10.6352941,0.131764706 Z" fill="#000000"></path>
                    <path d="M17.9952941,24.96 C19.1247059,25.5623529 20.0470588,26.4282353 21.2329412,26.9364706 C23.36,27.8776471 25.5811765,28.4988235 27.8776471,28.9694118 C31.5858824,29.7788235 35.2564706,30.08 39.0211765,30.4188235 C40.6964706,30.6070588 42.3905882,30.5505882 44.0847059,30.72 C45.9105882,30.9082353 47.7176471,30.6823529 49.5435294,30.8894118 C51.8588235,31.0023529 54.2305882,31.0211765 56.5458824,30.8329412 C57.8635294,30.7576471 59.1623529,30.8329412 60.4611765,30.8141176 C61.3458824,30.7952941 62.2117647,30.6635294 63.0964706,30.6258824 C65.7317647,30.5882353 68.3670588,30.4564706 71.0023529,30.2682353 C76.2164706,30.0235294 81.3929412,29.4023529 86.6258824,29.2705882 C88.32,29.0635294 90.0141176,29.1388235 91.7082353,29.0635294 C93.9858824,28.8564706 96.2070588,28.9882353 98.4847059,28.9505882 C99.7458824,28.9317647 100.988235,28.7058824 102.249412,28.7247059 C103.454118,28.7058824 104.621176,28.9129412 105.825882,28.9505882 C107.896471,28.9882353 110.004706,28.8564706 112.037647,29.0447059 C113.298824,29.1388235 114.541176,29.0635294 115.802353,29.1952941 C116.988235,29.3270588 118.192941,29.3270588 119.378824,29.4023529 C123.971765,29.7788235 128.470588,30.1552941 133.025882,30.9647059 C134.362353,31.2094118 135.642353,31.3223529 136.941176,31.6423529 C139.896471,32.4141176 142.776471,33.4682353 145.562353,34.7105882 C146.974118,35.3882353 148.404706,36.1976471 149.571765,37.2329412 C150.4,38.0047059 151.190588,39.1529412 151.228235,40.3011765 C151.152941,41.3552941 150.625882,42.3905882 149.872941,43.1058824 C148.649412,44.2729412 147.218824,45.1388235 145.694118,45.8541176 C143.284706,47.04 140.762353,47.8494118 138.202353,48.6776471 C135.981176,49.3552941 133.76,49.7882353 131.501176,50.2588235 C122.221176,52.3482353 112.941176,54.5882353 103.774118,57.1670588 C99.5952941,58.24 95.4729412,59.5388235 91.3317647,60.7623529 C88.2823529,61.7035294 85.2517647,62.7011765 82.2023529,63.6611765 C78.0423529,65.0352941 73.92,66.5411765 69.7976471,68.0470588 C67.4258824,68.9129412 65.1294118,69.9482353 62.7952941,70.8329412 C57.3176471,73.1670588 51.8023529,75.6141176 46.6447059,78.5882353 C44.0847059,80.0752941 41.5247059,81.6188235 39.1529412,83.3694118 C38.8894118,85.0823529 38.4188235,86.7764706 38.1741176,88.4894118 C37.8352941,90.2964706 37.6470588,92.1035294 37.5152941,93.9482353 C37.2517647,96.5458824 37.2141176,99.1247059 37.7411765,101.684706 C39.3976471,101.308235 40.9976471,100.743529 42.6729412,100.385882 C45.76,99.6705882 48.8470588,98.9552941 51.9717647,98.3905882 C55.2094118,97.6941176 58.5035294,97.28 61.76,96.6776471 C65.7882353,96.1317647 69.8352941,95.4917647 73.8823529,95.2094118 C75.4635294,95.0588235 77.1011765,94.8141176 78.6823529,94.7952941 C79.5482353,94.7764706 80.4141176,94.7388235 81.2611765,94.6635294 C82.5976471,94.5317647 83.9152941,94.6070588 85.2705882,94.5882353 C86.4564706,94.5882353 87.6611765,94.5505882 88.8470588,94.5882353 C90.1458824,94.6070588 91.4823529,94.8517647 92.7811765,95.04 C93.2894118,95.1341176 93.8917647,95.2282353 94.3435294,95.5294118 C94.4752941,96.0564706 94.4376471,96.6211765 94.4188235,97.1482353 C94.3058824,98.8423529 94.0047059,100.498824 93.5529412,102.136471 C92.7247059,105.242353 91.5388235,108.348235 89.6941176,111.002353 C88.4705882,112.865882 87.04,114.597647 85.3647059,116.065882 C83.0682353,118.174118 80.3764706,119.736471 77.5152941,120.96 C75.9152941,121.656471 74.1458824,122.089412 72.4517647,122.635294 C71.04,123.087059 69.6094118,123.538824 68.2164706,124.065882 C65.1294118,125.270588 62.0235294,126.550588 59.1435294,128.169412 C56.0752941,129.807059 53.1952941,131.745882 50.4094118,133.797647 C48.4329412,135.378824 46.4376471,136.997647 44.7058824,138.861176 C43.9341176,139.651765 43.1435294,140.404706 42.3717647,141.195294 C40.2447059,143.435294 38.3247059,145.844706 36.5364706,148.385882 C35.4635294,149.703529 34.6729412,151.209412 33.5435294,152.470588 C33.2611765,151.247059 33.6564706,150.192941 33.7694118,148.969412 C34.0705882,146.522353 33.92,144.207059 33.9576471,141.741176 C33.9952941,139.727059 33.8258824,137.712941 33.6376471,135.717647 C33.28,130.428235 32.4705882,125.176471 31.8870588,119.905882 C31.1717647,114.334118 30.6258824,108.705882 30.3435294,103.096471 C30.2870588,102.362353 30.2117647,101.647059 30.1929412,100.894118 C30.1929412,98.5035294 30.1364706,96.1317647 30.1929412,93.7411765 C30.1176471,91.84 30.3811765,89.9952941 30.4376471,88.0941176 C30.7011765,85.1952941 31.0023529,82.2776471 31.4729412,79.3976471 C31.6988235,77.76 32.1129412,76.16 32.3764706,74.5223529 C32.4894118,73.8823529 32.5835294,73.1482353 32.9035294,72.5647059 C33.1482353,72.2823529 33.5435294,72.1129412 33.8823529,71.9435294 C36.48,70.7576471 38.9270588,69.2894118 41.5435294,68.1411765 C44.0658824,66.8047059 46.6635294,65.6 49.2611765,64.4141176 C52.2917647,62.9458824 55.3976471,61.6470588 58.4658824,60.2352941 C62.6447059,58.4282353 66.8423529,56.64 71.0964706,54.9647059 C75.8023529,53.0070588 80.64,51.3317647 85.44,49.5623529 C87.5482353,48.8470588 89.6752941,48.1694118 91.7835294,47.4164706 C97.1670588,45.7411765 102.569412,44.16 108.028235,42.8235294 C110.945882,42.0517647 113.901176,41.5435294 116.837647,40.9035294 C118.249412,40.5835294 119.717647,40.4894118 121.110588,40.0941176 C122.014118,39.8305882 122.804706,39.36 123.595294,38.8517647 C123.576471,38.6070588 123.557647,38.3623529 123.538824,38.1176471 C122.597647,37.7976471 121.656471,37.5341176 120.658824,37.5152941 C119.152941,37.4776471 117.628235,37.4964706 116.122353,37.6094118 C115.407059,37.6470588 114.767059,37.8729412 114.127059,38.1929412 C115.670588,38.72 117.12,38.1741176 118.437647,38.9835294 C117.515294,39.2658824 116.574118,39.4164706 115.614118,39.5670588 C113.6,39.9435294 111.585882,40.2070588 109.571765,40.64 C106.936471,41.0352941 104.357647,41.6188235 101.722353,42.0141176 C99.9152941,42.3717647 98.0894118,42.7105882 96.2635294,42.9929412 C92.9505882,43.7082353 89.5811765,44.1411765 86.2870588,44.8752941 C82.5223529,45.6094118 78.7388235,46.2870588 74.9929412,47.0964706 C71.7929412,47.7176471 68.5929412,48.3576471 65.3929412,48.9976471 C60.7247059,50.0329412 56,50.9364706 51.3505882,52.0658824 C44.3294118,53.6658824 37.2329412,55.3411765 30.4,57.6564706 C29.8541176,57.8447059 29.2141176,58.0141176 28.7435294,58.3717647 C28.3105882,59.0494118 28.2164706,59.9717647 28.0094118,60.7435294 C27.6329412,62.0988235 27.3317647,63.4541176 27.0305882,64.8282353 C25.5058824,71.3035294 24.5082353,77.9294118 23.9247059,84.5552941 C23.6611765,86.5317647 23.6235294,88.5082353 23.4352941,90.4847059 C23.2658824,93.1952941 23.1717647,95.9058824 23.1529412,98.6352941 C22.9270588,101.214118 23.04,103.774118 23.0023529,106.352941 C22.9835294,107.237647 23.0588235,108.103529 23.1152941,108.988235 C23.1905882,110.117647 22.9647059,111.228235 23.0776471,112.376471 C23.1717647,113.374118 23.2282353,114.371765 23.2094118,115.388235 C23.1717647,116.969412 23.4164706,118.512941 23.36,120.094118 C23.3035294,121.355294 23.5858824,122.597647 23.5670588,123.858824 C23.5482353,125.176471 23.7176471,126.494118 23.7176471,127.811765 C23.7176471,129.204706 23.9435294,130.56 23.9247059,131.952941 C23.8870588,134.098824 24.1129412,136.207059 24.3011765,138.352941 C24.6211765,143.058824 25.3364706,147.952941 25.2423529,152.658824 C25.2611765,155.2 24.8658824,157.76 24.2258824,160.207059 C23.4352941,162.729412 22.3623529,165.157647 20.9129412,167.397647 C20.4423529,168.131765 19.9905882,168.978824 19.3317647,169.562353 C18.8235294,169.6 18.5976471,169.242353 18.2776471,168.903529 C17.3176471,167.774118 16.5458824,166.494118 15.9811765,165.138824 C14.5882353,161.957647 13.8541176,158.701176 13.1952941,155.294118 C12.9129412,153.731765 12.7435294,152.150588 12.48,150.588235 C12.1223529,147.952941 11.9529412,145.317647 11.7270588,142.682353 C11.6517647,141.684706 11.6894118,140.668235 11.6329412,139.670588 C11.5764706,138.785882 11.5011765,137.92 11.5011765,137.035294 C11.52,133.458824 11.5011765,129.882353 11.52,126.305882 C11.52,124.8 11.4635294,123.294118 11.5952941,121.788235 C11.7647059,119.905882 11.6141176,118.023529 11.7835294,116.141176 C11.9717647,114.127059 11.9529412,112.112941 12.16,110.098824 C12.3105882,108.724706 12.3858824,107.350588 12.4423529,105.976471 C12.9882353,98.7670588 13.7035294,91.5764706 14.4941176,84.4047059 C14.7011765,82.0517647 14.9270588,79.7176471 15.1905882,77.3647059 C15.9623529,69.6658824 16.6588235,61.9482353 17.1670588,54.2117647 C17.2988235,51.52 17.4870588,48.8470588 17.6188235,46.1552941 C17.7317647,44.8376471 17.6376471,43.52 17.7694118,42.2023529 C17.8635294,41.3176471 17.9011765,40.4329412 17.8823529,39.5294118 C17.8447059,37.6470588 17.8823529,35.7647059 17.92,33.8823529 C18.0329412,30.9082353 18.0517647,27.9341176 17.9952941,24.96 Z" fill="#3F0157"></path>
                    <path d="M179.331765,46.7764706 C181.835294,51.4635294 184.282353,56.1882353 186.616471,60.9694118 C188.743529,65.3741176 190.814118,69.7035294 192.451765,74.3341176 C193.675294,77.0823529 194.202353,80.0376471 194.296471,83.0305882 C194.428235,88.1317647 193.129412,93.1011765 190.851765,97.6564706 C188.254118,102.927059 184.395294,107.670588 180.122353,111.68 C180.141176,109.157647 179.463529,106.691765 178.315294,104.432941 C176.903529,101.684706 174.663529,99.3505882 172.103529,97.6564706 C167.397647,94.5505882 161.430588,93.3082353 155.877647,92.9317647 C154.070588,92.8752941 152.263529,92.7058824 150.456471,92.7811765 C148.950588,92.8752941 147.444706,92.8564706 145.938824,92.9882353 C140.950588,93.3270588 135.943529,94.1176471 131.030588,95.0964706 C129.807059,95.3411765 128.621176,95.6611765 127.397647,95.7741176 C128.997647,95.2658824 130.484706,94.5317647 131.971765,93.7411765 C133.063529,93.1388235 134.192941,92.4423529 135.077647,91.5576471 C135.604706,90.9741176 136.075294,90.3152941 135.868235,89.4870588 C135.661176,88.8282353 134.945882,88.32 134.343529,88.0188235 C132.875294,87.2658824 131.143529,86.9082353 129.543529,86.6070588 C125.571765,85.8917647 121.505882,85.6470588 117.496471,85.4964706 C114.484706,85.3082353 111.472941,85.44 108.461176,85.2517647 C106.334118,85.2329412 104.188235,85.2517647 102.061176,85.2517647 C100.8,85.2329412 99.5576471,85.4211765 98.2964706,85.3647059 C95.2282353,85.1388235 92.3858824,83.3694118 90.9176471,80.64 C89.2611765,77.6282353 89.0729412,73.8258824 89.4305882,70.4752941 C91.5952941,72.9788235 94.1364706,75.1247059 96.9976471,76.8188235 C101.458824,79.4541176 106.691765,80.7341176 111.868235,80.4141176 C115.030588,80.2258824 118.192941,79.5670588 121.185882,78.4376471 C125.515294,76.7058824 129.656471,74.4094118 133.345882,71.5670588 C136.884706,68.8 140.047059,65.4494118 141.854118,61.2705882 C143.717647,61.4964706 145.487059,62.1552941 146.503529,63.8494118 C147.388235,65.2235294 147.087059,66.9176471 146.503529,68.3294118 C145.694118,70.2305882 144.263529,71.5294118 142.607059,72.6964706 C144.545882,72.4141176 146.409412,71.9623529 148.065882,70.8517647 C149.101176,70.1552941 149.929412,69.2329412 150.343529,68.0470588 C150.832941,66.7858824 150.644706,65.28 150.343529,64 C149.985882,62.3811765 149.044706,60.9129412 147.689412,59.9341176 C146.277647,58.8988235 144.658824,58.4282353 142.964706,58.1458824 C147.952941,57.4870588 152.941176,56.9788235 157.948235,56.6964706 C159.943529,56.5082353 161.957647,56.5835294 163.971765,56.4329412 C166.607059,56.3952941 169.242353,56.3576471 171.877647,56.5270588 C173.421176,56.5270588 174.945882,56.64 176.470588,56.7341176 C176.037647,56.2823529 175.623529,55.8305882 175.058824,55.5482353 C173.552941,54.7576471 171.764706,54.3435294 170.108235,53.9670588 C167.228235,53.4023529 164.272941,53.0823529 161.355294,52.8752941 C156.291765,52.5364706 151.171765,52.4611765 146.089412,52.48 C148.178824,50.7858824 150.663529,49.6376471 153.185882,48.7341176 C157.157647,47.3411765 161.261176,46.6635294 165.458824,46.3623529 C170.070588,46.0235294 174.72,46.2117647 179.331765,46.7764706 Z" fill="#FCB827"></path>
                    <path d="M131.538824,58.2211765 C131.632941,59.8964706 131.444706,61.4964706 130.578824,62.9647059 C129.430588,64.96 127.190588,66.2776471 125.025882,66.8423529 C123.407059,67.2376471 121.618824,67.7082353 119.943529,67.6517647 C118.324706,67.5764706 116.743529,67.1811765 115.388235,66.2964706 C113.976471,65.3741176 112.922353,64.0188235 112.32,62.4564706 C115.049412,61.8164706 117.797647,61.2329412 120.545882,60.6494118 C120.903529,61.3647059 121.185882,62.0047059 121.901176,62.4188235 C123.049412,63.1341176 124.592941,62.8141176 125.421176,61.76 C126.004706,61.0635294 126.004706,60.2917647 126.042353,59.4258824 C127.868235,59.0305882 129.712941,58.6541176 131.538824,58.2211765 Z" fill="#FCB827"></path>
                    <path d="M162.955294,63.8870588 C163.614118,63.8494118 164.272941,63.8117647 164.912941,63.9247059 C166.889412,64.2823529 168.583529,65.8258824 169.129412,67.7647059 C169.769412,69.7976471 168.997647,72.0752941 167.378824,73.4305882 C165.703529,74.8423529 163.237647,75.0870588 161.336471,74.0141176 C159.962353,73.28 159.058824,72.0188235 158.663529,70.5129412 C160.715294,71.2470588 162.917647,71.2282353 164.837647,70.1552941 C165.722353,69.6094118 166.607059,68.7247059 166.569412,67.5952941 C166.625882,66.6352941 166.08,65.8258824 165.327059,65.28 C164.385882,64.5835294 163.275294,64.2823529 162.108235,64.1882353 C162.390588,64.0941176 162.672941,63.9811765 162.955294,63.8870588 Z" fill="#231F20"></path>
                    <path d="M83.3694118,72.4329412 C83.4258824,72.8282353 83.4635294,73.2047059 83.52,73.6 C83.7835294,77.0070588 84.9129412,80.3764706 86.8329412,83.2 C87.4164706,84.0470588 88.1694118,84.7811765 88.8094118,85.5905882 C88.3388235,85.7223529 87.8682353,85.8541176 87.36,85.8917647 C82.1270588,86.1176471 76.9505882,86.6070588 71.7552941,87.1341176 C64.1694118,88.1317647 56.7905882,89.3741176 49.4870588,91.6894118 C48.1694118,92.1035294 46.8894118,92.6494118 45.5529412,93.0070588 C45.7223529,91.4070588 46.3811765,90.0141176 46.8329412,88.4894118 C47.0964706,87.68 47.2658824,86.7952941 47.6047059,86.0235294 C47.8494118,85.44 48.4894118,85.2517647 49.0164706,85.0258824 C54.4752941,82.7294118 59.9905882,80.5082353 65.5623529,78.4752941 C68.7058824,77.2329412 71.9247059,76.1976471 75.0870588,75.0305882 C77.0823529,74.3905882 79.04,73.6752941 81.0352941,73.0164706 C81.8070588,72.7717647 82.5788235,72.5835294 83.3694118,72.4329412 Z" fill="#3F0157"></path>
                    <path d="M154.202353,101.948235 C155.708235,102.192941 157.270588,102.776471 158.136471,104.112941 C158.738824,105.091765 159.04,106.428235 158.550588,107.52 C158.061176,108.705882 156.969412,109.552941 155.821176,110.08 C153.882353,110.964706 151.623529,111.303529 149.515294,111.435294 C146.447059,111.698824 143.341176,111.887059 140.272941,111.962353 C134.757647,112.075294 129.28,111.943529 123.821176,111.209412 C120.056471,110.663529 116.216471,109.891765 112.752941,108.291765 C110.945882,107.444706 109.12,106.296471 107.84,104.734118 C107.256471,104.037647 106.861176,103.265882 106.484706,102.456471 C110.475294,102.795294 114.465882,103.115294 118.456471,103.265882 C122.767059,103.548235 127.115294,103.454118 131.444706,103.454118 C136.357647,103.435294 141.289412,103.058824 146.164706,102.4 C148.856471,101.948235 151.416471,101.458824 154.202353,101.948235 Z" fill="#FCB827"></path>
                    <path d="M0.0941176471,180.122353 C1.76941176,180.141176 3.46352941,180.084706 5.13882353,180.16 C5.13882353,180.442353 5.13882353,180.743529 5.13882353,181.025882 C4.48,181.044706 3.82117647,181.063529 3.16235294,181.063529 C3.14352941,182.72 3.16235294,184.395294 3.16235294,186.051765 C2.78588235,186.051765 2.42823529,186.051765 2.05176471,186.051765 C2.05176471,184.395294 2.05176471,182.72 2.05176471,181.063529 C1.39294118,181.063529 0.752941176,181.063529 0.0941176471,181.063529 C0.0941176471,180.743529 0.0941176471,180.423529 0.0941176471,180.122353 Z" fill="#231F20"></path>
                    <path d="M6.21176471,180.141176 C6.73882353,180.122353 7.28470588,180.084706 7.79294118,180.141176 C8.43294118,181.496471 8.75294118,183.002353 9.41176471,184.357647 C10.0141176,183.002353 10.4658824,181.571765 10.9364706,180.16 C11.4823529,180.122353 12.0282353,180.122353 12.5741176,180.103529 C12.5741176,182.08 12.5741176,184.056471 12.5741176,186.032941 C12.2541176,186.032941 11.9341176,186.032941 11.6141176,186.032941 C11.5952941,184.489412 11.6705882,182.927059 11.5576471,181.383529 C10.8611765,182.870588 10.4094118,184.489412 9.84470588,186.032941 C9.56235294,186.032941 9.28,186.032941 8.97882353,186.032941 C8.41411765,184.508235 7.98117647,182.908235 7.28470588,181.44 C7.17176471,182.964706 7.24705882,184.508235 7.22823529,186.032941 C6.88941176,186.032941 6.53176471,186.032941 6.19294118,186.032941 C6.19294118,184.112941 6.19294118,182.192941 6.19294118,180.272941 L6.19294118,180.141176 L6.21176471,180.141176 Z" fill="#231F20"></path>
                </g>
            </g>
        </g>
    </g>
</svg>