<?xml version="1.0" encoding="UTF-8"?>
<svg width="200px" height="200px" viewBox="0 0 200 200" version="1.1" xmlns="http://www.w3.org/2000/svg" xmlns:xlink="http://www.w3.org/1999/xlink">
    <!-- Generator: Sketch 54.1 (76490) - https://sketchapp.com -->
    <title>husson</title>
    <desc>Created with Sketch.</desc>
    <defs>
        <path d="M93.1845095,0.0107744105 C93.6020179,0.0284175077 94.2639707,0.124713802 94.9050481,0.511111098 C95.4653175,0.899124557 96.0632973,1.47622892 96.4754185,1.99124574 C96.9333309,2.63966323 97.1239033,3.43959587 97.1239033,4.27818171 C97.1239033,4.73535342 97.5043747,5.04100997 97.8094252,5.38377091 C97.7333309,5.76491568 97.5804689,6.14612779 97.4282804,6.48962947 C97.5043747,6.5656564 97.3521861,6.79447794 97.3521861,6.94599309 C97.237708,7.06074056 97.0471356,7.44242406 96.9710413,7.6698988 C96.4370346,8.81467991 95.5225565,9.95764285 94.4168327,10.7959593 C94.607405,10.9104374 94.8363613,10.6052523 95.0269337,10.7959593 C96.0565633,10.4916496 96.9710413,11.1011445 97.7717147,11.7487539 C98.2666642,12.0538718 98.8767652,11.7871378 99.3723881,11.5967 C99.868011,10.9104374 99.1434319,10.0336698 99.715149,9.34814791 C99.715149,8.70026914 100.553533,8.81467991 100.630301,8.24228936 C100.666664,6.49434327 99.4437686,4.69434332 98.6067315,3.88282819 C98.5198629,3.75340058 98.4336676,3.65319856 98.2760918,3.51589217 C98.501681,3.53454537 98.8175059,3.5872053 99.078112,3.7152861 C100.383836,4.56228945 100.982489,5.80464632 101.315822,7.25117827 C101.163634,7.82356883 101.773735,8.20390552 101.468684,8.77575736 C101.544779,9.15690213 101.201344,9.61488191 101.544779,9.91925901 C101.963634,10.0720536 102.421546,10.0720536 102.841075,9.91925901 C103.25993,9.53858562 103.52727,9.04303008 103.564981,8.50983144 C103.25993,8.24228936 103.52727,7.82356883 103.183836,7.59467994 C103.030974,7.06074056 103.641075,6.90841734 103.831647,6.6032995 C103.793263,6.10767661 103.831647,5.45979784 103.679459,4.92579112 C103.298314,3.59272718 102.039728,2.52525246 100.859257,1.9528619 C102.078112,1.87683497 103.221546,2.8303703 103.869358,3.89703694 C104.098314,4.43104366 104.365654,5.00262614 104.632321,5.49818168 C104.593937,5.65050491 104.670704,5.99326584 104.746799,6.10767661 C104.898987,6.3752187 104.365654,6.48962947 104.403364,6.87077424 L104.403364,7.06074056 C104.517843,7.0991244 104.593937,6.94599309 104.670704,7.0991244 C105.12727,7.63313112 105.12727,8.58505029 104.936698,9.30976408 C104.632321,10.0336698 104.136698,10.7583836 103.412792,11.2155553 C102.764981,11.4443768 102.002018,11.7103027 101.315822,11.3683499 C100.553533,11.2539391 100.32525,12.1682825 99.715149,12.3974408 C98.915149,12.5878785 97.9993241,12.9306394 97.1993242,12.5878785 C96.0936003,12.3974408 95.1797956,11.4443768 93.9979774,11.8250502 C93.1979775,12.2826933 92.1683479,12.4358246 91.5582469,13.2741411 C91.0249135,15.903838 86.9461258,17.3897639 88.2808059,20.3635012 C89.1191897,22.0025584 90.452523,23.4888883 91.1393917,25.2040398 C91.3346779,25.5218849 91.4363614,26.1373731 91.7151492,26.4383832 C92.1286172,27.4909084 92.7818159,29.3097636 93.143432,31.0902349 C93.3494926,32.5225581 93.692927,33.9703695 93.3878765,35.3811439 C93.3124556,35.8760934 93.9595936,35.9905715 94.3023545,36.1811439 C96.4754185,37.7441068 98.4956204,39.9164973 100.439728,41.7845107 C101.925923,42.7750831 103.183836,44.338046 104.898987,44.8720528 C106.385856,45.5575746 107.490906,47.0821537 109.129964,47.425588 C111.302354,48.225588 113.474745,49.0646452 115.494947,50.3218843 C117.020199,51.1986519 118.391916,52.4949482 120.107741,52.9138034 C122.508414,53.2949482 124.452522,51.6942748 126.395956,50.5508405 C126.853195,50.5508405 127.311108,50.6653186 127.692253,50.8181805 C127.50168,51.0848472 127.082152,51.1602681 126.815485,51.3515139 C125.862623,52.6094263 125.138044,53.9811434 124.26195,55.2390559 C123.651849,55.5824902 123.19461,56.1535339 122.584509,56.3447797 L122.43232,56.5353521 C122.927943,58.288214 124.719189,59.4323217 126.282152,59.9656551 L127.158246,60.0801332 C125.367,60.308416 123.422893,59.851177 122.127943,58.5548807 C121.746125,58.0215474 121.479458,57.4882141 120.869357,57.2592578 C119.649829,57.5643083 118.620872,58.3265979 117.668011,59.1649817 L116.638381,59.8888874 C116.828953,60.2323217 117.286192,60.0801332 117.553532,60.3467998 C119.002017,60.6518503 120.602691,60.765655 122.051175,60.9562274 C122.698987,61.5279446 123.766327,61.2235675 124.643095,61.2612779 C126.205384,61.1851837 127.730637,60.9946113 128.987876,60.1562275 C129.33131,59.9656551 129.407404,59.6222207 129.63636,59.3555541 C130.208078,57.9070693 129.674744,56.3447797 129.33131,55.0100996 C131.275418,56.1535339 131.732657,58.3265979 132.418852,60.1562275 L132.380468,60.4228941 C132.647135,61.5279446 132.342758,62.5575742 132.151512,63.6242408 C131.542084,65.1111095 129.940737,66.3306381 128.340064,66.2929276 C126.853195,66.3690219 125.481478,66.3690219 124.071377,66.1784495 C123.270704,66.1784495 122.737371,66.7878771 122.089559,67.093601 C121.09764,67.3218838 120.069357,67.2835 119.040401,67.4740724 C116.448482,67.893601 113.627607,68.4653182 111.074071,67.8175067 C110.959593,67.893601 110.845115,67.9319848 110.806731,68.0464629 C110.921209,68.35084 111.264644,68.6175067 111.569021,68.6942744 C113.627607,69.6471363 115.685519,70.5999982 117.668011,71.7050487 C122.393936,74.1063955 127.387202,75.8215469 132.532657,77.2316479 C134.590569,77.956227 136.916495,78.2228937 138.478784,79.9003347 C134.781815,79.2518499 131.160939,78.2989879 127.577775,77.3077422 L127.311108,77.1171698 C124.223566,76.3555536 121.36498,75.0976412 118.468011,73.9919173 C117.020199,73.3057221 115.418852,73.001345 114.123229,72.048483 C112.026933,71.1333316 110.197304,69.7232306 108.29158,68.5030286 C106.919189,67.7030286 105.661277,66.7878771 104.02222,66.7117828 C102.726597,66.7501667 101.354206,66.6740724 100.210772,66.9023552 C97.9993241,67.2457896 95.7892232,67.8175067 93.5023546,67.893601 C91.519863,68.0464629 89.3858564,68.1602677 87.4424221,68.0080791 C85.4222201,67.6269343 83.3636343,67.3218838 81.267338,67.2457896 L81.0383818,67.1696953 C80.5434323,67.2457896 80.0855199,67.0552172 79.7050485,67.2457896 C79.3616142,67.1696953 79.0565637,67.3979781 78.7138027,67.3979781 C75.092254,68.8848468 71.8909073,71.4760925 68.6888872,73.9158231 C63.5811432,77.4228937 58.2451164,80.3191899 52.6807394,82.6444424 C50.4313792,83.9023548 48.4111772,85.6552167 46.2387194,87.0659911 C43.0755545,89.2006712 39.7590562,90.9535331 36.3670698,92.5925903 C35.0325917,93.1643074 33.6608072,93.6976408 32.2503696,94.1555532 L32.1359588,94.0033647 C32.6317837,92.8215465 33.7752854,91.8303007 34.6511776,90.9158226 C34.6896288,90.7629607 34.6133325,90.6484826 34.5375749,90.5340045 C32.3266659,90.2296274 30.4589891,91.4868664 28.476969,92.0208731 C25.4658579,93.0882132 22.7214809,94.6511761 19.8245786,95.9851828 C13.8023566,99.1104352 7.5515823,101.663971 0.843097622,103.150839 C0.576363622,103.150839 0.270909084,103.264644 0.0047138046,103.150839 C0.385656556,102.731984 1.03380469,102.38855 1.52909087,102.007405 C5.68390558,99.0720514 10.6389223,98.1959571 15.0983835,96.0612771 C20.3579793,93.6215465 25.4658579,90.7252503 30.8399319,88.5144759 C32.8601339,87.6370348 34.9565648,86.8754187 36.9767668,85.998651 C36.4814806,86.6848463 35.9474738,87.408752 35.7567668,88.2855197 C35.7949486,88.5905702 35.7949486,88.9333311 36.0237701,89.2006712 C36.5191237,89.4673378 37.0527937,89.1622873 37.5489553,89.0100988 C39.492861,88.4377082 41.2839047,87.3326577 42.9989888,86.2653177 C46.6201335,84.0161595 50.202827,81.7676747 53.6715811,79.0612775 C57.2161602,76.7750823 60.7609412,74.4491564 64.4969681,72.6579106 C67.2781128,71.1717154 70.1757558,70.1043754 73.0343416,68.8464629 C73.7966312,68.3131296 75.0538702,68.0841734 75.2444426,66.9407391 C75.4733988,65.9494933 74.2538702,66.026261 73.7582473,65.5299647 C73.1865302,64.8821533 72.1198635,64.3488199 72.3097625,63.3575742 L72.5003349,63.2437695 C74.7111092,63.0909075 76.5030284,64.1205371 78.5609408,64.4249142 C82.067338,65.1878772 85.6882133,65.4922543 89.4242402,65.6067324 C91.7872031,65.7212105 93.9595936,65.6067324 96.2848461,65.6828266 C96.7420851,65.5299647 97.1993242,65.6444428 97.6188528,65.6067324 C99.4100985,65.5683485 101.163634,65.4922543 102.917169,65.41616 C103.145452,65.3777761 103.336024,65.2255876 103.336024,64.9966314 C103.183836,64.6915809 102.764981,64.5393923 102.45993,64.4249142 C101.39259,64.2343418 100.401344,63.9292913 99.4484824,63.4720523 L99.0673376,63.4343418 C96.9710413,62.5952846 95.0653175,61.2996618 92.740065,60.9946113 C91.9393916,60.8417493 91.1010078,60.8040389 90.3387183,60.6134665 C90.3764287,60.0033655 91.6343411,59.4700322 90.7959573,58.8599312 C90.1481459,58.5548807 89.4242402,58.3265979 88.6996611,58.2505036 C88.585183,58.1737359 88.6612772,58.0215474 88.7380449,57.9831635 C89.0808059,57.6787864 89.5764287,57.4121198 89.652523,56.9542073 C89.4242402,56.0774397 88.585183,55.4680121 87.8989877,54.8202006 C87.5185163,54.553534 87.1373716,54.2100997 86.8700315,53.8666653 C87.0989877,52.9905711 88.7757554,53.9050492 88.5467991,52.6471367 C88.2808059,52.11313 87.5939372,51.923231 87.2518497,51.5037024 C87.4040382,51.1225576 87.8989877,51.1602681 88.242422,51.0848472 C89.0047116,50.8181805 90.1865297,51.6942748 90.2249136,50.4363624 C90.1104355,49.8653186 89.6141392,49.4835004 89.4996611,48.9501671 C90.3387183,48.4161604 91.2154859,48.9501671 92.1306374,48.9501671 C92.5111088,49.1023557 93.0067317,49.1791233 93.3124556,48.9124567 C93.540065,48.7212109 93.5784488,48.4929281 93.6168327,48.225588 C93.6545431,47.9595948 93.3494926,47.8067328 93.4639707,47.5777766 C94.4168327,47.3111099 95.3696946,47.5777766 96.2848461,47.768349 C96.6659908,47.768349 97.0471356,47.5393928 97.237708,47.1966318 C97.1993242,46.7010089 96.8565632,46.3198642 96.5898966,45.901009 C96.8565632,45.7104366 97.2754184,45.748147 97.6188528,45.7865308 C98.1521861,45.9771032 98.6861928,46.0909079 99.2195261,46.358248 C99.4100985,46.3959584 99.6390547,46.2444433 99.715149,46.0909079 C99.7535329,45.7865308 99.6006709,45.5191908 99.5629605,45.290908 C100.706395,45.0626251 101.507068,46.0909079 102.612119,45.8249147 C102.917169,45.8626251 103.374408,45.901009 103.488886,45.5575746 C103.52727,45.1387194 103.030974,44.8336689 102.764981,44.6430965 C99.7535329,43.3090898 97.237708,40.7548811 94.7218832,38.4303021 C92.6255869,36.7144772 90.5292907,34.8848476 88.6612772,32.8276086 C87.4801325,31.6835009 86.1461258,30.7683494 84.8498295,29.8922551 C85.5744086,29.7016828 86.3366982,30.2350161 87.0606039,30.4255885 C88.2808059,31.1117837 89.3481459,32.1030295 90.5292907,32.9030295 C90.7198631,32.9030295 90.872725,33.1319857 91.0632974,32.9791238 C91.1010078,32.6747467 91.4437688,32.597979 91.5582469,32.3319857 C92.0922536,30.6922551 91.4060583,29.0154875 90.872725,27.4909084 C89.5380449,24.1744102 87.5569002,21.1253193 86.5265972,17.7333329 C86.4511763,17.4289558 86.2222201,17.0094272 86.6033648,16.8565652 C87.2518497,17.0470029 87.7467992,16.5898312 88.1663278,16.1326595 C89.652523,14.6835687 90.7582469,12.9306394 91.1393917,10.9488213 C90.9104354,10.5676765 90.3764287,10.6052523 90.0720516,10.3009425 C90.3764287,9.88134655 91.0249135,10.1865317 91.4821526,9.99602669 C92.3966307,9.61488191 93.4639707,9.50020178 94.2646441,8.77575736 C95.4464623,7.6698988 96.0565633,6.33683486 96.3993242,4.88821537 C96.4754185,4.58309753 96.170368,4.39259248 95.9797956,4.27818171 C95.827607,4.20188542 95.5225565,4.31663289 95.5225565,4.04989889 L95.5225565,3.74471371 C95.3319841,2.44922553 94.9131289,0.695488198 93.3878765,0.0470707059 C93.3225566,0.0470707059 93.2552165,0.032861952 93.1845095,0.0107744105 L93.1845095,0.0107744105 Z" id="path-1"></path>
    </defs>
    <g id="husson" stroke="none" stroke-width="1" fill="none" fill-rule="evenodd">
        <g id="husson_BGL" transform="translate(0.000000, 0.000000)">
            <g id="husson" transform="translate(0.000000, 7.000000)">
                <g id="g10" transform="translate(99.999998, 93.717176) scale(-1, 1) rotate(-180.000000) translate(-99.999998, -93.717176) translate(0.000000, 0.451185)">
                    <g id="g12">
                        <path d="M13.9954205,0 L13.9954205,31.3567669 L31.5595952,31.3567669 L31.5595952,101.651176 C31.0684841,101.808078 30.6129285,102.036361 30.2254538,102.401344 C30.3016827,102.744105 30.5305716,103.011445 30.797575,103.201344 L31.5595952,103.529964 L31.5595952,105.244442 C30.9001339,105.101681 30.2206726,105.012119 29.5015481,105.031647 L27.6720532,105.298314 C26.8334673,105.717169 25.8425583,105.717169 25.1175751,106.364981 C25.0412788,106.555553 24.9276761,106.822893 25.1557569,106.975082 C25.6134,107.317842 26.2994606,107.204038 26.7952855,107.432321 L28.5103697,108.004038 L30.9111777,109.033667 L31.5595952,109.249156 L31.5595952,110.0936 L26.2231643,109.109762 L24.7369691,109.033667 L21.8784506,109.26195 L20.3540736,109.643095 L19.4765652,109.986529 L19.0958918,110.101007 L18.9433665,110.32929 L19.1340736,110.901007 L19.8197975,111.358246 L23.8986526,112.46397 L27.5191912,113.912455 L29.8066659,114.560266 L31.2915817,115.039728 L31.544107,115.292253 L30.3398646,115.474745 L28.6247804,115.284172 L22.7930634,114.2936 L22.4116493,114.179122 L19.5912453,113.53131 L17.7617504,113.149492 L15.2461949,112.730637 L13.2641748,112.692926 L11.4727943,112.959593 L9.07117822,113.607405 L8.46141393,113.912455 L8.0799998,114.064644 L7.88929273,114.33131 L7.88929273,114.750839 L8.27070686,115.055216 L9.07117822,115.36094 L12.0441074,116.084846 L14.9029626,117.075418 L18.2194608,118.29562 L22.1835685,119.857909 L23.8986526,120.354206 L27.3284842,121.154206 L29.310841,121.611445 L28.0907737,121.725923 L24.4318512,121.725923 L19.8963631,121.268684 L17.8380467,121.002017 L14.5220198,120.620199 L13.3022892,120.4303 L10.7862624,120.239728 L8.91858564,120.315822 L6.78478098,120.46801 L5.14520526,120.849155 L3.43013459,121.496967 L2.21012116,122.29764 L1.86763632,122.869357 L2.28640398,123.441074 L3.20128612,123.669357 L6.05981803,123.898313 L10.1002018,124.508414 L12.8064643,125.270704 L15.2461949,125.99461 L17.2282824,126.452522 L18.8670702,126.795283 L19.0958918,127.062623 L17.9903026,127.024239 L16.3515147,127.024239 L12.1204037,126.756899 L10.0623567,126.604711 L8.53771022,126.528616 L4.68802682,126.871377 L2.97321878,127.367 L1.25736697,128.243768 L0.342487534,129.158246 L0.0754942742,129.653869 L0,130.035014 L0.266204034,130.225586 L1.52435686,130.377775 L3.65898307,130.454542 L4.9168753,130.645115 L8.61427588,131.36902 L10.7862624,131.712455 L12.2732657,131.940737 L16.6942757,132.321882 L20.2012116,132.43636 L19.1721881,132.665317 L18.6763632,132.741411 L13.8736023,133.389222 L12.8064643,133.5037 L11.6248482,133.579795 L8.91858564,133.884845 L6.67008738,134.380468 L4.72616823,135.066663 L3.08685514,135.905047 L1.48621545,137.086192 L1.14346798,137.50572 L0.991164958,137.734677 L0.838329945,137.886865 L0.762047119,138.420872 L0.838329945,138.611444 L1.25736697,138.802017 L2.89667333,138.649828 L6.47964294,138.26801 L7.69939375,138.191916 L8.61427588,138.191916 L10.1002018,138.191916 L11.3583836,138.229626 L16.1992589,138.115821 L17.7617504,138.001343 L15.8938043,138.573061 L13.2641748,139.488212 L9.45259236,141.20269 L7.08909073,142.575754 L5.90725238,143.490232 L4.68802682,144.938717 L4.38315141,145.43434 L4.49731975,145.738717 L4.80245106,146.005384 L5.45033656,146.043767 L6.13610086,145.853195 L8.61427588,144.824239 L12.4639728,143.909087 L13.3785855,143.795283 L14.9791915,143.452522 L13.3404037,144.40471 L12.2732657,145.129289 L11.0532657,145.967673 L9.49077417,147.111107 L7.92774391,148.711781 L7.58498298,149.359592 L7.4705722,150.084171 L7.43239039,150.237033 L7.54680116,150.426932 L7.69939375,150.54141 L8.0037035,150.617505 L9.14747452,150.426932 L14.4841747,149.092926 C17.2663969,148.254542 20.0489557,147.416158 22.7167671,146.272724 C25.6760263,145.004037 28.6634336,143.736023 31.5595952,142.30168 L31.5595952,154.614138 L13.9954205,154.614138 L13.9954205,185.971039 L72.2141396,185.971039 L72.2141396,125.197303 C73.6491564,124.516495 75.082153,123.83232 76.4983146,123.098313 C77.4511765,122.488212 78.5185166,122.107068 79.3946108,121.344778 C80.2713785,120.887539 81.033668,120.277438 81.9104357,119.819526 C84.5791225,118.02828 87.0558901,115.589223 90.028954,114.408078 C90.3340045,114.33131 90.7151492,114.216832 90.9441055,114.59865 C93.0404017,115.055216 95.136698,114.865317 97.3090885,115.131984 L101.616159,115.131984 C104.856563,114.903027 107.943432,114.179122 111.030974,113.416832 C112.136024,112.921209 113.356226,112.692926 114.613465,112.501681 C115.109761,112.501681 115.680805,112.387876 116.062623,112.692926 C115.680805,113.111782 114.49966,112.959593 114.651849,113.874071 C116.02424,114.713128 117.662623,114.941411 119.073398,115.818179 C120.483499,116.389896 121.931983,116.961613 123.303701,117.723903 C123.680805,117.934677 124.060603,118.142085 124.444441,118.346125 L124.444441,185.971039 L182.960938,185.971039 L182.960938,154.614138 L165.098986,154.614138 L165.098986,126.205384 C165.40875,126.265317 165.719861,126.322556 166.032319,126.375754 C166.793935,126.719189 167.746797,126.756899 168.585854,126.909761 C171.825585,127.481478 175.217504,128.205384 178.610097,127.938717 C180.096292,128.091579 181.621544,128.129963 183.10774,128.014812 C184.213463,128.091579 185.356898,128.014812 186.538042,128.014812 L191.112453,127.633667 C191.683497,127.519189 192.598648,127.977101 193.018177,127.252522 C193.018177,126.948145 192.903699,126.642421 192.674743,126.414138 C192.026931,125.766327 191.074069,125.804037 190.387874,125.309088 C187.834339,124.622219 185.204036,124.012792 182.573733,123.669357 C181.011443,123.403364 179.486864,123.136024 177.924575,122.907741 C181.697639,122.830973 185.623564,123.212792 189.435685,123.593936 C191.37912,123.85993 193.360938,124.165653 195.304372,124.508414 C196.219524,124.546798 197.058581,125.004037 197.972386,125.004037 C198.31582,125.19461 198.735349,125.042421 199.078783,124.965653 C199.230298,124.813465 199.230298,124.546798 199.192588,124.355552 C198.849827,124.12727 198.811443,123.822219 198.544776,123.593936 C197.591914,122.602691 196.410096,122.145451 195.342756,121.496967 C192.103026,120.049155 188.443766,119.629627 184.937369,118.867337 L183.37508,118.638381 C188.139389,117.647809 193.094271,117.113802 198.162958,116.771041 C198.659254,116.580468 199.344776,116.732657 199.649827,116.16094 L199.649827,115.932657 C198.277436,114.02626 195.990567,113.835687 193.856561,113.645788 C191.074069,113.492926 188.291578,113.492926 185.585854,113.721883 C183.488884,113.835687 181.392588,113.912455 179.220198,113.912455 C182.498312,113.26397 185.54747,111.816159 188.710433,110.748819 C191.303026,109.948145 193.856561,108.880805 196.715147,108.767001 C196.829625,108.728617 197.020197,108.575755 196.944103,108.385182 C196.868009,107.699661 196.105046,107.508415 195.68619,107.08956 L194.047133,106.517842 C192.141409,106.136698 190.34949,106.517842 188.519861,106.708415 L179.41077,108.614139 C178.495618,108.767001 177.505046,108.957573 176.589895,108.957573 C180.363632,107.393937 183.870029,105.298314 187.795955,104.230974 C190.006729,103.582489 192.293598,102.973061 194.428278,102.058583 C194.504372,101.905721 194.694945,101.753533 194.580467,101.600671 C194.35151,101.562287 194.3138,101.29562 194.085517,101.220199 C192.903699,100.762287 191.645786,100.381142 190.311106,100.228954 C184.708413,100.076092 179.906393,102.591917 174.798649,103.925923 C173.502353,104.345452 172.092925,104.49764 170.720534,104.802691 C174.569693,102.096294 178.534002,99.3138022 182.688211,97.1414117 C183.37508,96.5696946 184.251174,96.3030279 184.861275,95.6168326 C184.365652,94.3589202 182.878783,94.3205364 181.621544,94.2828259 C176.589895,94.397304 172.968346,98.0942736 168.357572,99.3138022 C170.300332,97.9797955 172.320534,96.4552164 174.264642,94.9306374 C175.294272,94.1683478 176.323228,93.2154859 177.390568,92.6060583 C177.428278,92.1858563 176.932656,92.109762 176.742757,91.8430953 C176.20875,91.652523 175.560938,91.5764287 174.988548,91.6148125 C173.197302,91.9191896 171.367672,92.262624 169.614811,92.7582468 C168.280804,93.2531963 166.908413,93.6727249 165.536023,94.0922535 C167.13737,93.0249135 168.738043,91.652523 170.529289,90.9279439 C170.682151,90.699661 171.215484,90.699661 171.101006,90.3185163 C171.13939,90.1279439 170.872723,89.9373715 170.720534,89.8612772 C169.729289,89.4040382 168.395282,89.1366981 167.289558,89.5185163 C166.518514,89.6430954 165.805383,89.892927 165.098986,90.1441055 L165.098986,89.6201998 C165.495619,89.4303008 165.892925,89.2437688 166.260602,89.02222 C166.37508,88.8316476 166.451848,88.5656544 166.298986,88.3744086 C166.004036,88.0208732 165.567673,87.9104355 165.098986,87.8861931 L165.098986,31.3567669 L182.960938,31.3567669 L182.960938,0 L124.444441,0 L124.444441,78.7838364 C123.85993,79.183163 123.338717,79.7010081 122.884845,80.2565637 C122.847135,79.7225569 123.151512,79.1508398 122.961613,78.5784492 C122.694273,77.8929273 121.931983,77.5117826 121.245788,77.4350149 C120.597977,77.3589206 119.874071,77.4740721 119.645115,78.159594 C119.150165,79.0363617 118.729963,79.9892236 118.349492,80.9043751 C118.120536,79.7225569 118.082825,78.5023549 117.243768,77.5878768 C116.405384,76.9784493 115.604711,76.1777759 114.49966,76.1777759 L114.270704,76.3683483 C114.080132,77.5878768 114.232994,78.8457893 114.042421,80.0276074 C113.508415,79.4552169 113.356226,78.6168331 112.936698,77.9313112 C112.05993,75.9872035 110.002017,75.0343416 108.05791,74.9582473 C107.79057,75.1104358 107.867337,75.4148129 107.828954,75.682153 C107.905048,76.5582472 108.248482,77.3212102 108.401344,78.159594 C107.981815,77.9690216 107.714475,77.3979779 107.334004,77.1306378 C106.926597,76.7245772 106.531984,76.3050486 106.088886,75.9959577 C105.878785,74.8531968 105.424913,72.8814797 104.508415,70.6585841 C105.766327,69.4114461 107.060603,68.1131296 107.828954,66.6109074 C108.134004,65.7717829 108.744105,65.0855203 108.820199,64.1711095 C108.629627,63.3704361 107.752859,63.5616819 107.142758,63.4472038 C105.618853,63.1797291 104.589223,64.2471364 103.484172,65.0099647 C104.284172,63.8659917 105.16094,62.6465304 105.847135,61.388618 C106.22828,60.6647123 105.999324,59.6732645 105.92323,58.910975 C105.504374,58.7965642 104.970368,58.7589211 104.513129,58.6828942 C105.008752,58.1865305 105.656563,57.7298975 106.457236,57.8061938 L107.066664,57.8437696 C108.781815,58.5300995 111.336024,59.177709 112.860603,57.6154868 C113.203364,56.890773 114.080132,57.1198639 114.727943,56.890773 C116.100334,56.2815474 117.586529,54.947406 117.586529,53.3467327 C117.853869,52.1648472 117.015485,51.3644432 117.053196,50.2593927 C116.748145,48.9246452 115.642421,47.8572379 114.689559,46.9428944 C113.775081,46.1421537 112.479458,45.9898305 111.29764,46.1805376 C111.19461,46.2478776 111.19461,46.1845106 111.152859,46.4896285 C111.759593,46.5401335 113.235687,47.7838372 113.546125,48.582423 C113.76498,49.1435005 113.951512,49.5933321 114.004038,50.3729954 C114.004038,50.4874061 113.889559,50.5258573 113.813465,50.602625 C112.969021,49.6167664 112.12323,48.3057227 110.85791,47.9313793 C110.753533,47.9003355 110.646462,47.8753523 110.536024,47.8572379 C110.268011,47.8106385 109.901007,47.7493591 109.597304,47.7678103 C109.517842,47.548955 109.450502,47.3192581 109.315822,47.1333322 C108.692253,46.3031638 107.975081,45.4713793 107.078112,44.9550157 L106.886866,44.85111 C106.264644,44.5657228 105.031647,44.0995949 104.147472,44.4620864 C104.034341,44.4626252 103.937371,44.5131302 103.864644,44.6559585 C104.322556,44.7327262 104.475418,45.3419517 104.742085,45.6470696 C105.122556,46.6377093 105.656563,47.9340055 105.008752,48.9630964 C104.475418,49.0014803 103.827607,48.9246452 103.408078,49.3818169 C103.064644,49.8014129 102.874745,50.3353523 102.912455,50.9448472 C102.645789,51.2876081 102.378449,50.8685509 102.149492,50.7925913 L102.035014,50.6397294 C102.416832,49.8014129 102.455216,48.6195274 102.073398,47.7427597 C101.922556,47.1104365 102.08754,46.4775073 102.461277,45.9953524 C102.461277,45.9953524 102.561614,45.8969685 102.688213,45.7428271 L102.785856,45.6181807 C103.044442,45.2740729 103.355553,44.6235679 103.156226,44.2377093 C103.145452,44.2169013 102.993937,44.1987868 102.912455,44.1987868 C101.997304,44.0840393 101.120536,44.1603356 100.435014,44.6559585 C100.354206,43.8276083 99.9205362,43.0647801 99.3259234,42.4384501 C99.1696945,42.274073 99.0020177,42.1225579 98.8269336,41.9796623 C98.3602669,41.5756219 97.6437686,41.0153525 97.0047114,40.7744098 C96.7562265,40.237036 96.4653175,39.7211438 96.0895599,39.2432313 C95.7084151,39.3197297 96.0895599,39.7009418 95.9750818,39.8916488 C96.0127922,40.1528609 96.0134656,40.5239721 95.8700313,40.7541404 C94.1124556,39.2403357 92.465991,39.3028946 92.465991,39.3028946 C92.7575734,39.4404704 93.2033647,39.9697633 93.3575734,40.160201 C94.2201997,41.3420865 94.3744084,42.87744 94.3744084,44.3507733 C94.2599303,44.5791235 94.2976407,44.807945 94.1077418,44.9986521 C93.5353512,44.9610763 93.2309741,44.3131975 92.6592569,44.3131975 C92.4303007,44.4276083 92.1636341,44.3892245 91.9730617,44.5791235 C91.7441055,44.3507733 91.8969674,43.9696285 91.7441055,43.7413457 C91.3259236,42.27744 90.4936004,40.8127936 89.18855,39.8748138 C89.1831628,39.8505714 89.0585836,39.7501 88.8094254,39.6249148 C88.4309742,39.433669 87.7636342,39.1819519 86.798651,39.1237701 C86.6100988,39.1129957 86.4282807,39.1098307 86.2370349,39.1138037 C86.2370349,39.1138037 86.3838362,39.2613458 86.5946106,39.4923222 C86.6700315,39.5541404 86.7117823,39.62276 86.7508396,39.6624906 C87.5138025,40.9206724 87.8565635,42.5981134 87.3993244,44.0840393 C87.1703682,44.1219518 86.9037015,44.0456555 86.6363615,44.0840393 C86.0653177,44.1987868 85.4936006,44.2747464 85.0740719,44.6935342 C84.8067319,44.807945 84.5407386,44.6175073 84.3878767,44.3892245 L84.3117824,44.2363625 C84.4262605,43.5124568 84.92121,42.3305713 84.12121,41.8350158 C83.8430955,41.0701 83.9454524,40.1454535 84.1973043,39.4099653 L84.297641,39.1837701 C84.3272706,39.1487532 84.3420854,39.0929957 84.3528598,39.0322549 C84.4868666,38.6665984 84.6888868,38.1305041 84.8087521,37.8843088 C84.8323211,37.5165647 84.4585837,37.3729284 84.1973043,37.2611438 C82.9393919,37.1475412 81.7582471,37.6807398 80.9952842,38.7097633 C80.5003347,39.396026 80.2713785,40.1583828 79.966328,40.9206724 C78.8606041,41.3015478 78.4040384,42.4450494 78.2127927,43.4364299 C78.0606041,44.6935342 78.7090889,45.684982 79.4329946,46.5622211 C79.6996613,46.8665982 80.1569004,46.828147 80.5003347,46.8665982 C81.0720518,47.2093591 81.5292909,47.8195948 81.9104357,48.3536015 C82.1771023,49.4207395 82.3299643,50.5637024 82.9393919,51.4780459 C82.4444424,51.5548809 81.796631,51.2876081 81.3387185,51.6309078 C80.4619509,50.2209415 79.2424223,48.582423 77.6794593,47.8195948 C76.9548802,47.6288877 76.4215469,46.6761604 75.5454527,46.9428944 C74.8592574,47.4376419 75.0491564,48.4672042 75.2020183,49.191918 C74.3353517,48.228349 73.2781126,47.4544769 72.2141396,46.7776419 L72.2141396,0 L13.9954205,0 Z M98.834341,53.2315138 C99.7104352,53.9178438 99.2148123,55.3280121 99.0626238,56.2431636 C98.5670009,56.0148134 98.1474723,55.6328606 97.6525228,55.480874 L97.6525228,54.4513118 C97.4996609,53.9946114 97.461277,53.4222209 97.0047114,53.2315138 C96.1656542,53.4611434 95.2511761,53.3078101 94.4505027,53.5750828 C93.726597,54.1850492 93.0020179,54.6041064 92.3919169,55.4048471 C92.3158226,55.3669346 92.3158226,55.290167 92.2781122,55.21414 C92.7353512,54.3757562 92.9259236,53.3078101 93.2309741,52.3163623 C93.4976408,51.4780459 94.4882131,51.8216149 95.136698,51.5172378 C95.4410751,51.1737361 95.9750818,51.136093 96.3178427,50.8301671 C96.5467989,51.9744095 97.8430952,52.7359583 98.834341,53.2315138 L98.834341,53.2315138 Z M110.268684,50.602625 C110.49764,51.3644432 110.802017,52.5076081 110.115822,53.1179111 C109.849156,53.07946 109.734677,52.850369 109.658583,52.5839044 C109.849156,51.8976418 109.887539,51.136093 110.268684,50.602625 L110.268684,50.602625 Z" id="path14" fill="#16453B" fill-rule="nonzero"></path>
                        <path d="M132.053195,178.361612 L175.351511,178.361612 L175.351511,162.223565 L157.489558,162.223565 L157.489558,124.476765 C156.17104,124.204711 154.84242,123.981142 153.492252,123.85993 C154.559592,124.584509 155.854542,125.461276 156.083498,126.795283 C156.007404,126.948145 155.931309,127.176428 155.740063,127.138717 C155.016158,126.756899 154.253868,126.719189 153.492252,126.566327 C152.729963,126.375754 151.967,126.071377 151.090905,126.032993 C149.070703,125.689559 147.088885,125.309088 145.106394,124.965653 C141.752185,124.089559 138.321882,123.517169 135.043768,122.449829 C134.011444,122.23434 133.023566,121.942084 132.053195,121.622219 L132.053195,178.361612 Z M157.489558,86.5845096 L157.489558,23.7481476 L175.351511,23.7481476 L175.351511,7.60861934 L132.053195,7.60861934 L132.053195,78.8956209 C132.146125,78.9016815 132.23232,78.9313112 132.29966,78.9986512 C132.604037,79.0363617 132.756899,79.3791226 132.870704,79.6457893 C133.367,80.5225569 132.490232,81.1710417 132.223566,81.9333313 C132.197976,82.0579104 132.131983,82.1670013 132.053195,82.2686848 L132.053195,82.6175064 C133.087539,81.9016815 134.082152,81.0585838 135.19663,80.4848465 C136.149492,80.0653179 137.292926,80.1037017 138.359593,80.1791226 C138.703027,80.2181798 138.626259,80.637035 138.703027,80.9043751 L137.483498,83.0767656 C138.740737,82.4666646 139.770367,81.3609407 141.218852,81.2848465 C141.905047,81.247136 142.857909,81.0188532 143.428953,81.5138027 C143.734003,82.5811427 142.323902,83.2289541 142.171714,84.1824895 C143.353532,83.4956208 144.496293,82.8100989 145.868683,82.5811427 C147.012118,82.4666646 148.422219,81.9717151 149.489559,82.657237 C150.213464,83.8006713 148.346124,84.3340046 148.117168,85.2868666 C148.956225,85.1723884 149.756899,84.9441056 150.519188,84.677439 C152.310434,83.9151494 154.750164,83.9151494 156.54141,84.4868666 C156.731983,84.677439 156.846461,84.9063952 156.846461,85.2107723 C156.350838,85.9730618 155.359592,86.6215467 155.054542,87.4599305 C155.80875,87.1609406 156.637033,86.8249137 157.489558,86.5845096 L157.489558,86.5845096 Z" id="path16" fill="#B09247" fill-rule="nonzero"></path>
                        <path d="M21.6045786,7.60861934 L21.6045786,23.7481476 L39.1690226,23.7481476 L39.1690226,97.4740716 C40.3995949,97.6134656 41.5938037,97.7939369 42.8038373,97.9414117 C41.5456555,97.2558898 40.2501673,96.1124555 39.449696,94.8538697 C39.4878778,94.6639707 39.449696,94.397304 39.6398643,94.3205364 C41.7363626,93.9010078 43.7947464,94.5117821 45.7386521,94.9306374 C44.9384501,94.5117821 44.5570359,93.7488192 43.8709753,93.1393916 C43.7184501,92.9104354 43.4138036,92.5292906 43.6802683,92.262624 C44.1761605,91.9952839 44.747743,91.9952839 45.3195948,91.9191896 C46.9964971,91.7663277 48.292322,92.6814792 49.779056,92.9481458 C49.2450493,92.4915802 48.8644432,91.8814792 48.5208742,91.309762 C48.3301671,90.9279439 48.101615,90.4329944 48.292322,90.0518496 C50.6176418,89.7851829 52.6756889,90.5090886 54.6580458,91.3474725 C54.200066,90.5858563 53.8575744,89.7461257 53.5524566,88.9467991 C53.4761603,88.4888867 53.6287529,88.1454523 53.8952175,87.8787857 C55.6870693,87.4983143 57.4402679,88.2983143 59.0790558,88.7932638 L58.774746,88.1838362 C58.3933319,87.4599305 58.0119177,86.4686847 58.5455878,85.7063952 C60.1843756,85.5158228 61.6709075,86.0491561 63.0813452,86.6592571 C62.6244429,86.1259238 62.3952846,85.5158228 62.2045776,84.9063952 C62.1667325,84.677439 62.3574395,84.4484827 62.5097627,84.2962942 C63.1997291,84.1892235 63.9078099,84.1676747 64.6051836,84.2282807 L64.6051836,77.0498297 C59.1045776,74.4592574 53.4529953,72.201345 48.4067328,68.5548804 C48.2538708,68.4404023 48.3301671,68.2114461 48.4067328,68.096968 C49.2831638,67.7158232 50.2362277,67.5636347 51.1889549,67.4107727 C55.5345441,66.763702 59.4223554,68.1353518 63.3864631,69.0498299 C59.2316484,66.8005371 55.2293589,64.3616146 51.4559583,61.2742072 C51.3415475,61.0451163 51.5703691,60.9695608 51.6085509,60.7791231 C54.886598,59.0249143 58.431177,61.0074732 61.4043756,62.1125237 L58.431177,60.0923217 C56.6016821,58.834948 55.8010087,56.9291568 55.2675407,55.0620862 C55.3819515,54.7945441 55.4963622,54.4133993 55.8769683,54.4513118 C59.0027595,54.3757562 61.4806719,56.1292915 63.8055203,57.9582477 C63.6526583,57.76781 63.5385169,57.5386518 63.3483486,57.3482141 C62.1667325,55.6328606 60.7560254,54.0322545 60.7186517,51.8976418 C60.6804699,51.3644432 60.5657897,50.602625 60.7941399,50.0686856 C60.9467325,50.0302344 61.1374395,49.9158237 61.2899648,49.9918506 C62.5267998,50.1191907 63.5987189,50.6418169 64.6051836,51.3157563 L64.6051836,7.60861934 L21.6045786,7.60861934 Z M39.1690226,138.909087 L39.1690226,162.223565 L21.6045786,162.223565 L21.6045786,178.361612 L64.6051836,178.361612 L64.6051836,129.090232 L64.1106381,129.387202 C62.0138705,130.492253 60.1465305,132.13131 58.0878773,133.351512 C53.5143421,136.209424 48.8644432,138.802017 43.8709753,140.631646 C43.0323895,140.898313 42.194073,141.584508 41.2791909,141.317842 C40.9743424,141.20269 40.8599316,140.898313 40.8599316,140.631646 C41.2791909,139.640401 41.7745444,138.725922 42.4224232,137.848481 C41.2647128,138.047135 40.2220192,138.475417 39.1690226,138.909087 L39.1690226,138.909087 Z" id="path18" fill="#B09247" fill-rule="nonzero"></path>
                        <path d="M87.5138025,96.7979774 C87.4377083,96.1501659 86.7892234,95.9212097 86.3703682,95.6545431 C84.3117824,94.7784488 82.2154862,93.5966307 80.7670013,91.5764287 C80.6148128,91.3858563 80.3858566,91.1569001 80.1569004,91.1191896 C81.3003347,93.7488192 84.1595939,95.7690212 86.6747453,96.9508393 C86.941412,96.9508393 87.5521864,97.3703679 87.5138025,96.7979774" id="path20" fill="#FFFFFF" fill-rule="nonzero"></path>
                        <path d="M176.475416,126.071377 L171.44444,125.19461 C169.347471,124.698987 167.17508,124.43232 165.231646,123.669357 C162.563632,123.174408 160.047807,122.183835 157.418178,121.763633 C155.550164,121.421546 153.644441,121.154206 151.700333,120.963633 L150.098986,120.849155 C149.985181,120.887539 149.832993,121.002017 149.871377,121.154206 C150.251848,121.649829 150.785855,121.954206 151.319188,122.29764 C157.798649,123.32727 164.126595,124.584509 170.567673,125.727943 C172.282824,126.032993 173.921881,126.109761 175.675416,126.414138 L176.894272,126.375754 L176.475416,126.071377" id="path22" fill="#FFFFFF" fill-rule="nonzero"></path>
                        <path d="M72.9010083,80.0639711 C71.1077423,78.9265974 68.9703686,76.7670014 67.2742744,75.9872035 C65.2540724,75.1488197 63.0813452,74.7292911 61.1374395,73.6996615 L52.7141401,69.6215471 L51.4178438,68.8976414 C51.799258,68.7838367 52.2564297,68.8599309 52.6378438,68.8976414 C57.8593252,69.164308 62.2045776,71.5279443 66.7784495,73.3952844 C69.4464629,74.272052 72.0767659,75.4148129 74.5158231,76.9400654 C73.8680116,76.9400654 72.9151497,76.8255873 72.191244,77.0161597 C72.1151497,77.1690216 71.6572373,77.2444425 71.9245773,77.4740721 C72.2949477,78.6794593 72.3138029,79.230301 72.9010083,80.0639711" id="path24" fill="#FFFFFF" fill-rule="nonzero"></path>
                        <path d="M102.326597,45.4921874 C101.561614,45.8309753 101.134678,46.7111099 100.968348,47.4768338 C100.816159,48.2007395 100.930637,49.0014803 100.968348,49.725386 C100.777775,49.8397967 100.587203,50.0686856 100.39663,49.8397967 C99.6727248,49.0014803 99.6343409,47.6288877 100.09158,46.6761604 C100.39663,45.7993928 101.235014,44.7695612 102.187876,44.6559585 C102.399324,44.6559585 102.647135,44.6922548 102.868011,44.6391235 C102.870704,44.8195275 102.768348,45.1023558 102.326597,45.4921874" id="path26" fill="#FFFFFF" fill-rule="nonzero"></path>
                        <path d="M97.5380447,47.2861268 C98.2235666,45.9138036 97.9952837,44.3131975 97.8047114,42.826935 C97.6801322,42.4828946 97.5575733,42.1393929 97.4296272,41.7992582 C97.8653174,42.2977094 98.5750817,43.2525915 98.7872029,44.4039046 C98.7764285,45.5723894 98.5178427,46.7637025 98.1474723,47.7427597 C97.9575733,48.1623557 97.4996609,48.3911772 97.1568999,48.6579112 C96.9279437,48.9246452 97.0424218,49.4970358 96.5467989,49.4970358 C96.2801323,50.0686856 95.593937,50.2209415 95.0222198,50.1825577 C95.4794589,49.8774398 95.8989875,49.3063287 96.0518495,48.6963624 C96.1279437,48.5056554 95.8228932,48.3911772 95.9373713,48.2391907 C96.0134656,48.0860594 95.8612771,48.0860594 95.7845094,48.0860594 C95.593937,48.0860594 95.593937,48.3151503 95.593937,48.4296284 C95.4410751,49.0014803 95.0222198,49.5722547 94.4121189,49.8014129 C93.4976408,50.1825577 92.2404017,50.1062614 91.249156,49.8397967 C88.1232301,51.1737361 88.4659911,54.870571 87.1703682,57.4626248 C86.8653177,58.3393925 85.98855,58.9493588 85.9124558,59.9408066 C85.7602672,60.588416 86.141412,61.1979109 86.141412,61.8465978 C86.4080786,62.9138031 86.0269339,64.1327257 86.2936005,65.199931 C86.9037015,65.8486179 87.7804692,66.5346111 87.5521864,67.4875404 C86.598651,66.9912441 85.8740719,66.1529276 85.0356881,65.5818839 C84.4646444,64.2471364 84.5407386,62.7232981 84.1973043,61.3502342 C84.0828262,60.7030961 83.6262605,60.0552174 83.8922538,59.4067999 C85.6841729,57.6915137 86.1797958,55.3280121 86.941412,53.1179111 C87.1703682,52.2027596 87.3609406,51.1737361 88.0855197,50.4874061 C88.0855197,50.1062614 87.8942739,49.7629617 87.5898968,49.5346789 C86.8269339,49.3818169 85.98855,50.0302344 85.3791224,49.3442412 C85.3030282,49.115891 85.2269339,48.9630964 85.1885501,48.7339382 C86.4848463,48.8868001 87.6659911,48.5435005 88.7333311,48.0484836 C88.8471358,47.7812109 89.1144759,47.5912446 88.9999978,47.2861268 C89.0383816,47.0573052 88.9239035,46.828147 88.7710416,46.6377093 C89.7622873,45.0371033 89.4579102,42.787743 88.6565634,41.1487532 C88.3245769,40.6639047 87.9925904,40.092861 87.5569002,39.6546118 C88.0727251,39.8203357 88.7387183,40.1528609 89.4141392,40.8180461 C90.2141392,41.9212784 90.9380449,43.57111 90.486193,45.151514 C90.3717149,45.7615477 89.9528597,46.3709753 90.3340045,46.9428944 C90.5622873,47.1333322 90.6006711,47.5520527 90.9441055,47.5912446 C91.3636341,47.9340055 91.5151492,48.7339382 92.2020179,48.582423 C92.9259236,48.3911772 93.7643074,48.2767665 94.1077418,47.5520527 C94.2599303,47.2093591 94.0693579,46.7137362 94.6026912,46.5232985 C94.9845094,46.5622211 95.3649808,46.5993254 95.7084151,46.3333995 C96.4707047,45.227541 95.9750818,43.6268676 95.6700313,42.4834333 C95.3272703,41.3778441 94.2336677,40.1872717 93.7643074,39.8148138 C94.6343411,40.106531 95.4747451,40.9656555 95.4747451,40.9656555 C96.2572367,41.8942077 96.9326575,42.9245781 96.9663275,44.1603356 C96.9279437,45.3419517 97.0808057,46.9044433 95.8612771,47.6288877 C95.7845094,47.7427597 95.8228932,47.8956217 95.8989875,47.9716486 C96.4707047,48.2007395 97.3090885,47.9716486 97.5380447,47.2861268" id="path28" fill="#FFFFFF" fill-rule="nonzero"></path>
                        <path d="M83.5488195,38.8478778 C82.5696949,39.9991909 82.1831629,41.6161606 82.3676747,43.0552851 C82.2915804,43.0929282 82.2154862,43.2457228 82.101008,43.207339 C81.6060586,42.826935 81.643769,42.1401336 81.5292909,41.6066656 C81.3003347,40.3872044 81.8343414,39.396026 82.6350148,38.5953526 C83.280806,38.0903021 83.7434322,38.0907735 84.3764289,37.9824233 C84.1737353,38.1045108 83.867338,38.3527937 83.5488195,38.8478778" id="path30" fill="#FFFFFF" fill-rule="nonzero"></path>
                        <path d="M104.767001,44.6572379 C105.184509,44.674881 105.846462,44.7711773 106.487539,45.1575746 C107.047809,45.5455881 107.645789,46.1226924 108.05791,46.6377093 C108.515822,47.2861268 108.706395,48.0860594 108.706395,48.9246452 C108.706395,49.3818169 109.086866,49.6874735 109.391916,50.0302344 C109.315822,50.4113792 109.16296,50.7925913 109.010772,51.136093 C109.086866,51.2121199 108.934677,51.4409415 108.934677,51.5924566 C108.820199,51.7072041 108.629627,52.0888876 108.553533,52.3163623 C108.019526,53.4611434 107.105048,54.6041064 105.999324,55.4424229 C106.189896,55.556901 106.418853,55.2517158 106.609425,55.4424229 C107.639055,55.1381131 108.553533,55.747608 109.354206,56.3952174 C109.849156,56.7003353 110.459256,56.4336013 110.954879,56.2431636 C111.450502,55.556901 110.725923,54.6801333 111.29764,53.9946114 C111.29764,53.3467327 112.136024,53.4611434 112.212792,52.8887529 C112.249155,51.1408068 111.02626,49.3408068 110.189223,48.5292917 C110.102354,48.3998641 110.016159,48.2996621 109.858583,48.1623557 C110.084172,48.1810089 110.399997,48.2336688 110.660603,48.3617496 C111.966327,49.208753 112.56498,50.4511098 112.898314,51.8976418 C112.746125,52.4700324 113.356226,52.850369 113.051176,53.4222209 C113.12727,53.8033657 112.783836,54.2613454 113.12727,54.5657225 C113.546125,54.7185172 114.004038,54.7185172 114.423566,54.5657225 C114.842421,54.1850492 115.109761,53.6894936 115.147472,53.156295 C114.842421,52.8887529 115.109761,52.4700324 114.766327,52.2411435 C114.613465,51.7072041 115.223566,51.5548809 115.414139,51.249763 C115.375755,50.7541401 115.414139,50.1062614 115.26195,49.5722547 C114.880805,48.2391907 113.622219,47.171716 112.441748,46.5993254 C113.660603,46.5232985 114.804038,47.4768338 115.451849,48.5435005 C115.680805,49.0775072 115.948145,49.6490897 116.214812,50.1446452 C116.176428,50.2969684 116.253196,50.6397294 116.32929,50.7541401 C116.481479,51.0216822 115.948145,51.136093 115.985856,51.5172378 L115.985856,51.7072041 C116.100334,51.7455879 116.176428,51.5924566 116.253196,51.7455879 C116.709761,52.2795947 116.709761,53.2315138 116.519189,53.9562276 C116.214812,54.6801333 115.719189,55.4048471 114.995283,55.8620188 C114.347472,56.0908403 113.584509,56.3567663 112.898314,56.0148134 C112.136024,55.9004026 111.907741,56.8147461 111.29764,57.0439043 C110.49764,57.234342 109.581815,57.5771029 108.781815,57.234342 C107.676092,57.0439043 106.762287,56.0908403 105.580469,56.4715137 C104.780469,56.9291568 103.750839,57.0822881 103.140738,57.9206046 C102.607405,60.5503015 98.5286171,62.0362274 99.8632972,65.0099647 C100.701681,66.6490219 102.035014,68.1353518 102.721883,69.8505033 C102.917169,70.1683484 103.018853,70.7838366 103.297641,71.0848467 C103.711109,72.1373719 104.364307,73.9562271 104.725923,75.7366984 C104.931984,77.1690216 105.275418,78.6168331 104.970368,80.0276074 C104.894947,80.5225569 105.542085,80.637035 105.884846,80.8276074 C108.05791,82.3905703 110.078112,84.5629608 112.022219,86.4309743 C113.508415,87.4215466 114.766327,88.9845096 116.481479,89.5185163 C117.968347,90.2040381 119.073398,91.7286172 120.712455,92.0720516 C122.884845,92.8720516 125.057236,93.7111088 127.077438,94.9683478 C128.60269,95.8451154 129.974408,97.1414117 131.690232,97.5602669 C134.090906,97.9414117 136.035013,96.3407383 137.978448,95.197304 C138.435687,95.197304 138.893599,95.3117821 139.274744,95.4646441 C139.084172,95.7313107 138.664643,95.8067316 138.397976,95.9979774 C137.445114,97.2558898 136.720535,98.627607 135.844441,99.8855194 C135.23434,100.228954 134.777101,100.799997 134.167,100.991243 L134.014811,101.181816 C134.510434,102.934678 136.30168,104.078785 137.864643,104.612119 L138.740737,104.726597 C136.949492,104.95488 135.005384,104.49764 133.710434,103.201344 C133.328616,102.668011 133.06195,102.134678 132.451849,101.905721 C131.23232,102.210772 130.203364,102.973061 129.250502,103.811445 L128.220872,104.535351 C128.411445,104.878785 128.868684,104.726597 129.136024,104.993263 C130.584509,105.298314 132.185182,105.412119 133.633667,105.602691 C134.281478,106.174408 135.348818,105.870031 136.225586,105.907741 C137.787875,105.831647 139.313128,105.641075 140.570367,104.802691 C140.913801,104.612119 140.989895,104.268684 141.218852,104.002018 C141.790569,102.553533 141.257236,100.991243 140.913801,99.6565632 C142.857909,100.799997 143.315148,102.973061 144.001343,104.802691 L143.962959,105.069358 C144.229626,106.174408 143.925249,107.204038 143.734003,108.270704 C143.124576,109.757573 141.523229,110.977102 139.922555,110.939391 C138.435687,111.015485 137.06397,111.015485 135.653869,110.824913 C134.853195,110.824913 134.319862,111.434341 133.672051,111.740065 C132.680131,111.968347 131.651849,111.929964 130.622892,112.120536 C128.030973,112.540065 125.210098,113.111782 122.656563,112.46397 C122.542084,112.540065 122.427606,112.578448 122.389223,112.692926 C122.503701,112.997304 122.847135,113.26397 123.151512,113.340738 C125.210098,114.2936 127.26801,115.246462 129.250502,116.351512 C133.976428,118.752859 138.969693,120.46801 144.115148,121.878111 C146.17306,122.602691 148.498986,122.869357 150.061276,124.546798 C146.364306,123.898313 142.743431,122.945451 139.160266,121.954206 L138.893599,121.763633 C135.806057,121.002017 132.947471,119.744105 130.050502,118.638381 C128.60269,117.952186 127.001344,117.647809 125.705721,116.694947 C123.609425,115.779795 121.779795,114.369694 119.874071,113.149492 C118.501681,112.349492 117.243768,111.434341 115.604711,111.358246 C114.309088,111.39663 112.936698,111.320536 111.793263,111.548819 C109.581815,111.892253 107.371714,112.46397 105.084846,112.540065 C103.102354,112.692926 100.968348,112.806731 99.0249133,112.654543 C97.0047114,112.273398 94.9461256,111.968347 92.8498293,111.892253 L92.6208731,111.816159 C92.1259236,111.892253 91.6680112,111.701681 91.2875398,111.892253 C90.9441055,111.816159 90.639055,112.044442 90.296294,112.044442 C86.6747453,113.53131 83.4733986,116.122556 80.2713785,118.562287 C75.1636345,122.069357 69.8276077,124.965653 64.2632307,127.290906 C62.0138705,128.548818 59.9936685,130.30168 57.8212107,131.712455 C54.6580458,133.847135 51.3415475,135.599997 47.9495611,137.239054 C46.615083,137.810771 45.2432985,138.344104 43.8328609,138.802017 L43.7184501,138.649828 C44.214275,137.46801 45.3577766,136.476764 46.2336689,135.562286 C46.2721201,135.409424 46.1958238,135.294946 46.1200662,135.180468 C43.9091572,134.876091 42.0414804,136.13333 40.0594603,136.667337 C37.0483492,137.734677 34.3039722,139.29764 31.4070699,140.631646 C25.3848479,143.756899 19.1340736,146.310434 12.4255889,147.797303 C12.1588549,147.797303 11.8534004,147.911107 11.5872051,147.797303 C11.9681478,147.378447 12.616296,147.035013 13.1115822,146.653868 C17.2663969,143.718515 22.2214136,142.842421 26.6808748,140.707741 C31.9404706,138.26801 37.0483492,135.371714 42.4224232,133.160939 C44.4426252,132.283498 46.5390561,131.521882 48.559258,130.645115 C48.0639719,131.33131 47.5299651,132.055216 47.3392581,132.931983 C47.3774399,133.237034 47.3774399,133.579795 47.6062614,133.847135 C48.101615,134.113801 48.635285,133.808751 49.1314466,133.656562 C51.0753523,133.084172 52.866396,131.979121 54.5814801,130.911781 C58.2026248,128.662623 61.7853183,126.414138 65.2540724,123.707741 C68.7986515,121.421546 72.3434325,119.09562 76.0794594,117.304374 C78.8606041,115.818179 81.7582471,114.750839 84.6168329,113.492926 C85.3791224,112.959593 86.6363615,112.730637 86.8269339,111.587203 C87.0558901,110.595957 85.8363615,110.672725 85.3407386,110.176428 C84.7690214,109.528617 83.7023548,108.995283 83.8922538,108.004038 L84.0828262,107.890233 C86.2936005,107.737371 88.0855197,108.767001 90.1434321,109.071378 C93.6498293,109.834341 97.2707046,110.138718 101.006731,110.253196 C103.369694,110.367674 105.542085,110.253196 107.867337,110.32929 C108.324576,110.176428 108.781815,110.290906 109.201344,110.253196 C110.99259,110.214812 112.746125,110.138718 114.49966,110.062624 C114.727943,110.02424 114.918516,109.872051 114.918516,109.643095 C114.766327,109.338044 114.347472,109.185856 114.042421,109.071378 C112.975081,108.880805 111.983836,108.575755 111.030974,108.118516 L110.649829,108.080805 C108.553533,107.241748 106.647809,105.946125 104.322556,105.641075 C103.521883,105.488213 102.683499,105.450502 101.92121,105.25993 C101.95892,104.649829 103.216832,104.116496 102.378449,103.506395 C101.730637,103.201344 101.006731,102.973061 100.282152,102.896967 C100.167674,102.820199 100.243769,102.668011 100.320536,102.629627 C100.663297,102.32525 101.15892,102.058583 101.235014,101.600671 C101.006731,100.723903 100.167674,100.114476 99.481479,99.4666642 C99.1010076,99.1999975 98.7198629,98.8565632 98.4525228,98.5131289 C98.681479,97.6370346 100.358247,98.5515127 100.12929,97.2936003 C99.8632972,96.7595935 99.1764285,96.5696946 98.834341,96.1501659 C98.9865295,95.7690212 99.481479,95.8067316 99.8249133,95.7313107 C100.587203,95.4646441 101.769021,96.3407383 101.807405,95.0828259 C101.692927,94.5117821 101.19663,94.129964 101.082152,93.5966307 C101.92121,93.0626239 102.797977,93.5966307 103.713129,93.5966307 C104.0936,93.7488192 104.589223,93.8255869 104.894947,93.5589202 C105.122556,93.3676744 105.16094,93.1393916 105.199324,92.8720516 C105.237034,92.6060583 104.931984,92.4531963 105.046462,92.2242401 C105.999324,91.9575735 106.952186,92.2242401 107.867337,92.4148125 C108.248482,92.4148125 108.629627,92.1858563 108.820199,91.8430953 C108.781815,91.3474725 108.439055,90.9663277 108.172388,90.5474725 C108.439055,90.3569001 108.85791,90.3946105 109.201344,90.4329944 C109.734677,90.6235668 110.268684,90.7373715 110.802017,91.0047115 C110.99259,91.042422 111.221546,90.8909068 111.29764,90.7373715 C111.336024,90.4329944 111.183162,90.1656543 111.145452,89.9373715 C112.288886,89.7090887 113.089559,90.7373715 114.19461,90.4713782 C114.49966,90.5090886 114.956899,90.5474725 115.071378,90.2040381 C115.109761,89.7851829 114.613465,89.4801324 114.347472,89.2895601 C111.336024,87.9555534 108.820199,85.4013447 106.304374,83.0767656 C104.208078,81.3609407 102.111782,79.5313111 100.243769,77.4740721 C99.0626238,76.3299644 97.7286171,75.4148129 96.4323208,74.5387187 C97.1568999,74.3481463 97.9191895,74.8814796 98.6430952,75.072052 C99.8632972,75.7582473 100.930637,76.749493 102.111782,77.549493 C102.302354,77.549493 102.455216,77.7784492 102.645789,77.6255873 C102.683499,77.3212102 103.02626,77.2444425 103.140738,76.9784493 C103.674745,75.3387187 102.98855,73.661951 102.455216,72.1373719 C101.120536,68.8208737 99.1393915,65.7717829 98.1090885,62.3797964 C98.0336676,62.0754193 97.8047114,61.6558907 98.1858561,61.5030288 C98.834341,61.6934665 99.3292904,61.2362948 99.7488191,60.7791231 C101.235014,59.3300322 102.340738,57.5771029 102.721883,55.5952848 C102.492927,55.21414 101.95892,55.2517158 101.654543,54.947406 C101.95892,54.5278101 102.607405,54.8329953 103.064644,54.6424902 C103.979122,54.2613454 105.046462,54.1466653 105.847135,53.4222209 C107.028954,52.3163623 107.639055,50.9832984 107.981815,49.5346789 C108.05791,49.2295611 107.752859,49.039056 107.562287,48.9246452 C107.410098,48.8483489 107.105048,48.9630964 107.105048,48.6963624 L107.105048,48.3911772 C106.914475,47.0956891 106.49562,45.3419517 104.970368,44.6935342 C104.905048,44.6935342 104.837708,44.6793255 104.767001,44.6572379" id="path32" fill="#FFFFFF" fill-rule="nonzero"></path>
                        <g id="g34" transform="translate(11.582491, 44.646464)">
                            <g id="g36-Clipped">
                                <mask id="mask-2" fill="white">
                                    <use xlink:href="#path-1"></use>
                                </mask>
                                <g id="path38"></g>
                                <g id="g36" mask="url(#mask-2)" fill="#B09247">
                                    <g transform="translate(114.680132, 50.235689)" id="path42">
                                        <path d="M0.0545454532,9.81414117 C0.0545454532,9.81414117 6.37845102,12.6289559 9.32390549,15.9212117 L9.67003343,16.2680131 C9.67003343,16.2680131 17.1198649,17.7400669 17.8565652,12.8457909 C17.8565652,12.8457909 19.1555551,9.20740718 15.560269,5.09292917 L14.6511781,4.48686857 L14.3481478,4.52996622 C14.3481478,4.52996622 15.9508414,9.51043747 13.4821545,10.0303028 L12.5279458,9.59730616 C12.5279458,9.59730616 11.445791,9.85723881 9.58316474,8.38451157 C9.58316474,8.38451157 8.24040383,7.25858568 8.02424222,6.34882139 C8.02424222,6.34882139 9.5400671,5.7427608 10.4060603,4.27003356 L12.3555552,1.36835013 L13.3952859,0.544781131 C13.3952859,0.544781131 12.3117842,-0.0612794597 11.489562,0.068686867 L10.4276092,0.891582469 C10.4276092,0.891582469 10.2114476,1.8444444 8.91178429,3.18720531 C7.50437692,4.64242413 6.33467998,5.30909078 6.33467998,5.30909078 L2.5670033,6.69562273 L0.401346791,9.25117822 L0.0545454532,9.81414117"></path>
                                    </g>
                                </g>
                            </g>
                        </g>
                        <path d="M129.974408,110.519863 C130.546125,109.681479 131.384508,108.995283 132.33737,108.804711 C132.375754,108.767001 132.490232,108.728617 132.451849,108.652523 L131.117842,108.385182 C130.584509,108.575755 129.974408,108.652523 129.555552,109.071378 C129.364307,108.880805 128.8303,108.919189 128.983162,108.575755 C129.173734,108.19461 130.16498,108.767001 129.783835,108.080805 C129.478785,107.661277 128.8303,107.622893 128.373734,107.775755 C127.840401,107.966327 127.802017,108.461277 127.725923,108.919189 C127.725923,109.185856 127.916495,109.414139 128.068684,109.643095 L126.924576,110.32929 C126.086192,110.481479 125.247808,110.787203 124.447808,110.787203 C126.20067,111.167674 128.259256,111.09158 129.974408,110.519863" id="path44" fill="#16453B"></path>
                        <path d="M136.835013,109.185856 C136.682825,108.347472 135.806057,107.851849 135.119862,107.699661 C135.119862,108.270704 136.187202,108.461277 135.806057,109.109762 C135.692252,109.147472 135.539391,109.147472 135.577774,109.300334 C135.844441,109.414139 136.225586,109.719863 136.568347,109.490906 L136.835013,109.185856" id="path46" fill="#16453B"></path>
                        <path d="M126.696967,104.612119 C127.496967,103.506395 128.411445,102.286866 129.707741,101.715149 C130.96498,100.838381 132.566327,100.723903 133.710434,99.694947 C134.357572,99.237708 134.814811,98.5898965 135.311108,97.9797955 C134.738717,97.9797955 134.205384,98.3609403 133.710434,98.7420851 C132.146798,99.1616137 130.431647,99.1232298 129.212118,100.19057 C128.411445,100.838381 127.458583,101.524577 126.887539,102.439728 L126.276765,104.49764 C126.315148,104.688213 126.544105,104.688213 126.696967,104.612119" id="path48" fill="#16453B"></path>
                    </g>
                </g>
            </g>
        </g>
    </g>
</svg>