<?xml version="1.0" encoding="UTF-8"?>
<svg width="200px" height="200px" viewBox="0 0 200 200" version="1.1" xmlns="http://www.w3.org/2000/svg" xmlns:xlink="http://www.w3.org/1999/xlink">
    <!-- Generator: Sketch 54.1 (76490) - https://sketchapp.com -->
    <title>ill-wesleyan</title>
    <desc>Created with Sketch.</desc>
    <defs>
        <polygon id="path-1" points="5.08905853e-05 0.302290076 182.076845 0.302290076 182.076845 199.491094 5.08905853e-05 199.491094"></polygon>
    </defs>
    <g id="ill-wesleyan" stroke="none" stroke-width="1" fill="none" fill-rule="evenodd">
        <g id="ill-wesleyan_BGL" transform="translate(0.000000, 0.000000)">
            <g id="Group-33" transform="translate(9.000000, 0.000000)">
                <g id="Group-5" transform="translate(43.256997, 77.560305)" fill="#FEFEFE">
                    <path d="M84.5658524,110.57771 C84.5658524,110.57771 89.3103817,106.852519 90.5002036,104.261679 C91.6920611,101.671858 93.4126718,94.0952672 95.8620356,80.0082443 C96.7236132,75.0357252 97.4233588,70.7369975 97.4966412,70.1751654 C97.3439695,70.8291094 95.8289567,72.9146056 91.9958779,87.0265649 C88.0457506,101.574148 84.5658524,110.57771 84.5658524,110.57771" id="Fill-1"></path>
                    <path d="M98.8017812,32.9695674 C98.473028,33.372112 97.8954198,34.0403053 96.8898219,35.0011196 C94.7442748,37.0703308 88.3315522,41.4957761 84.7916031,43.863715 C84.9351145,41.5960305 84.9966921,39.3120611 84.9966921,37.0067176 C84.9966921,28.160916 84.0221374,19.5807634 82.186514,11.3848346 L96.2587786,19.8158779 C97.6272265,24.0794911 98.4826972,28.4881425 98.8017812,32.9695674 L98.8017812,32.9695674 Z M42.6536896,67.0993384 C48.1188295,72.6464122 52.8816794,75.9914504 56.1188295,77.901374 C56.780916,81.5914504 57.9137405,87.4550636 59.4277354,93.8560814 C60.3096692,97.5899237 61.4430025,101.364478 62.5554707,104.729873 C62.5554707,104.729873 53.375827,96.5227481 47.6155216,84.0438677 C42.5371501,73.0489567 36.5351145,62.1293639 34.5498728,58.5675318 C34.1091603,57.8021374 33.8709924,57.3634606 33.8709924,57.3634606 C35.7508906,59.7110433 38.5554707,62.933944 42.6536896,67.0993384 L42.6536896,67.0993384 Z M75.0903308,9.81536896 L41.9625954,24.999084 L41.9559796,25.004173 L41.9590331,25.0011196 L41.9559796,25.0021374 L41.9605598,24.9985751 L57.5045802,6.39704835 C51.6475827,2.54819338 44.6414758,0.306463104 37.110687,0.306463104 C21.6765903,0.306463104 8.43231552,9.70340967 2.79618321,23.0927226 C1.80229008,25.9420865 1.09745547,28.9278372 0.734096692,32.0184224 C0.617557252,33.0392875 0.528498728,34.0672774 0.488804071,35.1135878 C0.456743003,35.7385242 0.440966921,36.3746565 0.440966921,37.0067176 C0.440966921,51.6688041 5.80229008,59.5431043 7.78142494,65.858626 C9.75954198,72.1843257 9.11068702,73.6255471 9.11068702,73.6255471 C9.11068702,73.6255471 8.29287532,70.9349618 5.95903308,68.6698219 C5.21552163,67.9492112 4.54071247,67.415369 3.96208651,67.0296183 C3.51374046,66.7385242 3.13256997,66.5293639 2.81501272,66.3792366 C2.25318066,66.1135878 1.93155216,66.0428499 1.93155216,66.0428499 C1.93155216,66.0428499 2.27760814,69.1064631 2.42010178,74.3487023 C2.43791349,75.0158779 2.44961832,75.7237659 2.45979644,76.4647328 C2.48524173,78.3252926 3.09287532,80.1410687 4.2302799,81.6174046 C4.86030534,82.4286005 5.61552163,83.3354707 6.47709924,84.4718575 C9.74529262,88.787888 15.9366412,95.3380153 15.9366412,95.3380153 C15.9366412,95.3380153 19.2063613,86.7212214 18.3208651,76.6825445 C17.4475827,66.8316539 12.7600509,57.7761832 12.5844784,57.4321628 C12.8073791,57.5700763 16.2928753,59.760916 18.8496183,62.9929771 C21.4852417,66.3252926 26.1427481,75.1456489 31.5524173,88.0357252 C35.3188295,97.0255471 38.8043257,102.070331 44.1697201,105.764478 C46.4959288,107.375165 49.1926209,108.724784 52.4211196,110.033181 C63.0684478,114.338015 74.1610687,113.318168 74.1610687,113.318168 C74.1610687,113.318168 69.5717557,102.359898 67.1335878,92.0336896 C64.6882952,81.7115522 63.2516539,72.6738931 63.2516539,72.6738931 C63.2516539,72.6738931 56.9203562,70.2967939 48.2984733,61.544631 C39.6720102,52.7889059 37.3778626,48.7100254 37.3778626,48.7100254 C37.3778626,48.7100254 34.4653944,49.4438677 29.7671756,49.8438677 C26.2725191,50.1390331 22.5819338,49.7135878 22.5819338,49.7135878 C22.5819338,49.7135878 30.1437659,47.0891603 37.429771,43.7405598 C44.7152672,40.3970483 51.6760814,36.4606616 51.6760814,36.4606616 C52.9829517,37.274402 54.7086514,38.2998473 56.9676845,39.5029008 C63.8312977,43.1843257 79.4770992,48.3914504 79.4933842,48.4001018 C79.570229,52.2301272 79.3086514,61.5975573 75.4547074,70.8224936 L83.5707379,73.6255471 L87.8073791,71.6789822 C86.8099237,65.9924682 86.1020356,53.4805089 85.8506361,48.4001018 C85.921883,48.3441221 96.6267176,41.2998473 99.9040712,38.1380153 C103.198728,34.9705852 103.211959,33.9425954 103.211959,33.9425954 C102.921374,27.9950127 101.76514,22.2784733 99.8699746,16.901883 L82.4302799,6.45201018 L75.0903308,9.81536896 Z" id="Fill-3"></path>
                </g>
                <g id="Group-21" transform="translate(0.000000, 0.206616)">
                    <path d="M36.8241221,92.204631 L23.6877354,89.2275318 L32.5488041,95.8570483 C31.6236132,100.686056 31.2348092,105.730331 31.4577099,110.890636 C31.9391349,122.046361 35.2739949,132.477913 40.5620356,141.271807 C36.0979135,132.823969 33.4597455,122.934911 33.4597455,112.467226 C33.4597455,105.334402 34.6475318,98.5008142 36.8241221,92.204631" id="Fill-6" fill="#CFD4D8"></path>
                    <path d="M31.3588295,67.2476336 L38.6402545,78.4196438 C37.4489059,80.6766412 36.3908906,83.0216794 35.480458,85.4440712 L25.1878372,82.996743 L37.0550127,91.5316031 C39.0326209,85.9992875 41.7746056,80.8919084 45.1303308,76.3601018 L31.3588295,67.2476336 Z" id="Fill-8" fill="#CFD4D8"></path>
                    <path d="M80.5062595,55.4993384 L74.7591858,29.8453944 L73.3647837,49.6387786 C67.941374,51.1670229 62.8675827,53.5425954 58.2345038,56.599084 L53.0492621,50.7415776 L54.9749618,58.9263104 C51.6619847,61.4596438 48.6309415,64.3670229 45.9215267,67.5883969 L35.2395929,60.5171501 L45.9851399,75.2484478 C54.5042239,64.3120611 66.7230534,56.9563359 80.5062595,55.4993384" id="Fill-10" fill="#CFD4D8"></path>
                    <g id="Group-14">
                        <mask id="mask-2" fill="white">
                            <use xlink:href="#path-1"></use>
                        </mask>
                        <g id="Clip-13"></g>
                        <path d="M162.402595,35.9424936 C149.029567,44.8880407 137.858066,57.5659033 129.954249,72.6951654 C134.080458,77.0503817 137.564936,82.0244275 140.264682,87.4559796 L146.71659,91.3272265 L147.240254,92.8061069 C149.305394,98.6905852 150.510483,104.836641 150.818372,111.081425 L150.826514,111.22341 L150.826514,111.359796 C150.793435,113.355725 149.408702,115.531807 146.178168,118.629008 C144.134402,120.587786 139.836183,123.694148 136.393944,126.07888 C136.393944,126.07888 142.671298,133.164377 144.491654,136.379644 C146.310992,139.58626 145.860102,142.809669 145.860102,142.809669 C145.860102,142.809669 145.552723,145.769975 143.596997,157 C143.534911,157.361832 143.472316,157.731298 143.407176,158.103817 C143.359847,158.39084 143.304377,158.677863 143.255522,158.958779 C140.248397,176.13486 138.759847,181.051399 137.810738,183.226972 L137.715064,183.433588 C137.436692,184.035623 137.055522,184.651908 136.621425,185.26514 C134.690127,187.965903 131.855522,190.537405 130.280967,191.904326 C128.695725,193.268193 126.929822,194.170992 126.929822,194.170992 C126.929822,194.170992 125.315064,195.138931 114.355267,195.138931 C109.932366,195.138931 101.925242,194.607125 94.0463613,191.421374 C92.1471247,190.654453 90.4631552,189.886005 88.9333842,189.086514 C87.4743511,188.328753 86.1679898,187.538422 84.9486514,186.703817 C81.983257,184.658015 78.9781679,182.309415 76.6987786,180.452417 C76.5684987,180.346565 76.4310941,180.235623 76.3059033,180.132824 C73.9679898,178.214249 71.0438168,177.189822 68.0295674,177.202545 L59.4565394,177.25598 L57.523715,177.267684 L56.0249873,175.682443 C55.7715522,175.405598 49.6382188,168.914504 46.2631552,164.453944 C45.7654453,163.794911 45.3059033,163.227481 44.8865649,162.697201 C44.5863104,162.327226 44.3084478,161.970483 44.0458524,161.625445 C42.3527226,159.443766 41.4000509,156.692112 41.3639186,153.877354 C41.3639186,153.853944 41.3639186,153.835623 41.3517048,153.815776 C41.2672265,147.653944 40.8616285,143.916539 40.8539949,143.877863 L40.561883,141.289567 C40.3160814,142.057506 39.4061578,157.382188 24.561374,175.658015 C16.150687,186.013232 8.81888041,189.304835 7.26061069,189.959288 C8.50386768,186.315522 9.57867684,182.482952 10.4916539,178.494656 L15.3781679,173.602545 L10.9013232,176.62341 C11.8768957,172.054962 12.637201,167.29771 13.1445802,162.38117 L18.2606107,158.336387 L13.3018321,160.84631 C13.7196438,156.445802 13.9435623,151.922137 13.9578117,147.310433 L19.4051399,144.003562 L13.9501781,145.6743 C13.9435623,143.385751 13.8865649,140.363868 13.7919084,136.66514 C13.7700254,135.607634 13.6799491,133.981679 13.5634097,131.93486 L20.0300763,129.583715 L13.4687532,130.312977 C13.2545038,126.593384 12.9766412,121.881934 12.7710433,117.020356 L22.4366921,115.872265 L12.7008142,115.192366 C12.5405089,110.985242 12.4550127,106.750636 12.5262595,103.023919 L26.6850382,104.294656 L12.5964885,100.695674 C12.8260051,94.6773537 13.5471247,88.8020356 14.7038677,83.1175573 L24.377659,86.1083969 L15.2891094,80.4122137 C17.1649364,72.1806616 19.9756234,64.3735369 23.561374,57.1206107 L33.134402,63.978117 L25.2041221,53.9368957 C27.6728244,49.3465649 30.4682443,44.9989822 33.5542494,40.9363868 L42.5517048,50.848855 L36.0407634,37.7938931 C40.3079389,32.6152672 45.0667176,27.951145 50.2280407,23.9129771 L57.5852926,37.8651399 L53.766972,21.2783715 C57.1827481,18.8615776 60.7623919,16.7175573 64.464173,14.8473282 C67.0799491,13.5557252 69.7552672,12.3862595 72.4865649,11.3307888 C72.6463613,11.2681934 72.8041221,11.2142494 72.9623919,11.1572519 C73.8886005,10.8188295 74.8163359,10.5033079 75.7552672,10.2010178 L79.4300763,28.6010178 L80.3160814,8.86208651 C86.6458524,7.20966921 93.2382188,6.33791349 100.009211,6.33791349 C103.199033,6.33791349 106.359338,6.53689567 109.465191,6.91399491 L106.865191,28.2559796 L114.482494,7.69923664 C124.941527,9.67022901 134.777659,13.740458 143.635674,19.5185751 C136.764427,32.1409669 128.173588,44.6580153 117.943053,56.5903308 C117.934402,56.5989822 117.929313,56.6061069 117.929313,56.6122137 C109.288092,50.9684478 99.1817303,47.692112 88.4402545,47.6030534 L84.1288041,27.7246819 L82.4489059,55.3379135 C83.4687532,55.2676845 84.4987786,55.2402036 85.5338931,55.2402036 C98.0239695,55.2402036 109.47028,60.0676845 118.439746,68.1180662 C119.503359,65.183715 120.668244,62.2992366 121.92626,59.4798982 C125.091654,52.3547074 128.838728,45.6254453 133.105903,39.3618321 C137.366463,33.0992366 142.148651,27.3185751 147.375623,22.0849873 C147.365954,22.0763359 147.35883,22.0763359 147.34916,22.0707379 C143.69827,17.0422392 139.741018,12.4575064 135.526768,8.3735369 C150.010229,12.4351145 163.155267,19.6778626 174.175623,29.297201 C170.099288,31.2015267 166.162392,33.4254453 162.402595,35.9424936 L162.402595,35.9424936 Z M72.0290585,185.172519 L71.9471247,183.025954 C71.9394911,182.847328 71.9323664,182.658524 71.9257506,182.463104 C71.9079389,181.919593 71.8957252,181.320611 71.8957252,180.719593 L71.8738422,180.719593 C71.7532316,181.214758 71.6036132,181.746056 71.4514504,182.243766 C71.383257,182.468702 71.3145547,182.688041 71.2473791,182.892112 L70.5664631,185.082952 L69.5740967,185.082952 L68.9720611,182.921628 C68.8611196,182.507888 68.7466158,182.043766 68.642799,181.57659 C68.5791858,181.288041 68.518626,180.998982 68.4687532,180.719593 L68.4489059,180.719593 C68.4377099,180.992875 68.426514,181.280407 68.4153181,181.568448 C68.3954707,182.079389 68.3746056,182.593384 68.350687,183.042239 L68.2504326,185.172519 L67.0733333,185.172519 L67.3048855,181.560305 L67.4326209,179.561832 L69.1226972,179.561832 L69.6712977,181.437659 C69.6957252,181.528244 69.7191349,181.627481 69.7435623,181.720102 C69.8931807,182.284478 70.0392366,182.879389 70.1476336,183.442239 L70.1730789,183.442239 C70.2901272,182.957761 70.4249873,182.42341 70.5639186,181.924682 C70.6117557,181.754198 70.6595929,181.587277 70.7079389,181.428499 L71.302341,179.561832 L72.961883,179.561832 L73.1639186,183.211196 L73.2723155,185.172519 L72.0290585,185.172519 Z M65.0275318,185.172519 L63.7532316,185.172519 L63.7532316,181.58117 L63.7532316,180.633079 L62.2443257,180.633079 L62.2443257,179.561832 L66.5573028,179.561832 L66.5573028,180.633079 L65.0275318,180.633079 L65.0275318,181.573537 L65.0275318,185.172519 Z M177.039746,26.0178117 C158.064173,9.43206107 133.706412,0.302290076 108.465191,0.302290076 C95.5364377,0.302290076 82.8972519,2.64478372 70.9201527,7.27124682 C68.0712977,8.3735369 65.2433079,9.60559796 62.5359288,10.9450382 C50.8336387,16.8340967 40.5323664,25.2519084 31.9084478,35.9648855 C17.4280407,53.9521628 9.01124682,77.146056 8.2092112,101.281425 C7.92625954,110.044275 8.62244275,122.038168 9.0880916,129.980153 C9.26417303,133.030025 9.40463104,135.432061 9.4356743,136.773537 C9.5486514,141.089567 9.60463104,144.47888 9.60463104,146.844784 C9.60463104,161.715522 7.37867684,176.031552 3.13592875,188.550127 L2.61379135,190.076336 L5.08905853e-05,197.74402 L8.95526718,193.975573 C11.8524682,192.755216 19.5084478,188.787786 27.9410178,178.410687 C32.3842748,172.933842 36.0407634,167.233588 38.8270229,161.454962 C39.3191349,162.459033 39.9145547,163.400509 40.5944529,164.283969 C40.8728244,164.643257 41.1715522,165.034606 41.4738422,165.398473 L41.7405089,165.746056 C42.0672265,166.159796 42.4229517,166.59542 42.7858015,167.086005 C45.6224427,170.823919 50.2107379,175.83257 52.6850382,178.486514 L55.6524682,181.628499 L58.8768957,181.609669 C59.3898728,186.063104 63.1679898,189.522646 67.7593384,189.522646 C71.0621374,189.522646 73.9389822,187.728244 75.4886005,185.065649 C77.5064122,186.673282 79.9898728,188.573537 82.4947074,190.300763 C83.9232061,191.272774 85.3690076,192.136387 86.9140458,192.94402 C88.5608651,193.805598 90.356285,194.633079 92.4163359,195.463104 C101.09369,198.971501 109.892163,199.491094 114.355267,199.491094 C119.09369,199.491094 122.273333,199.318575 124.436692,199.080407 C127.556794,198.73944 128.561374,198.254962 129.045852,197.976081 C129.585802,197.696183 131.403104,196.679898 133.138982,195.191858 C135.91659,192.77659 138.133384,190.490585 139.733893,188.39084 C139.883511,188.194911 140.024987,187.99542 140.168499,187.797964 C140.63313,187.138422 141.021425,186.515522 141.356794,185.888041 L141.918117,184.733333 L142.157812,184.099746 C143.217863,181.328753 144.722188,175.768957 147.476896,160.110941 C147.50743,159.966412 147.533384,159.817812 147.556794,159.675318 L147.699796,158.866667 L147.888092,157.743511 C147.910483,157.6 147.93542,157.447328 147.965954,157.306361 C147.993435,157.122646 148.023969,156.949109 148.056031,156.78117 C148.133893,156.331807 148.205649,155.89771 148.276896,155.477354 C148.354758,155.015776 148.434148,154.55827 148.515064,154.103817 C148.609211,153.550127 148.694707,153.029008 148.774097,152.524682 C148.821425,152.224936 148.878931,151.935878 148.917099,151.650891 C148.979695,151.296183 149.03771,150.946565 149.08402,150.622901 C149.520662,148.033588 149.78173,146.26972 149.939491,145.119593 C149.946616,145.110941 149.946616,145.107379 149.946616,145.088041 C149.968499,144.906361 149.998015,144.721628 150.02855,144.551654 C150.034656,144.470738 150.050941,144.392366 150.056539,144.319593 C150.072316,144.243766 150.083003,144.162341 150.090636,144.092621 C150.09827,144.011705 150.112519,143.93944 150.122697,143.877863 C150.151705,143.578117 150.177659,143.398982 150.185802,143.315522 C150.287074,142.524682 150.643308,138.390331 148.276896,134.23257 C147.162901,132.259542 144.793435,129.260051 142.806158,126.870229 C143.044326,126.695165 143.304377,126.513995 143.57257,126.312977 C143.583257,126.307379 143.590891,126.307379 143.590891,126.299746 C146.124224,124.432061 147.996997,122.920102 149.197506,121.76743 C152.11659,118.96743 155.118626,115.547074 155.18173,111.430025 L155.18173,111.105344 L155.173079,110.985242 L155.164427,110.846819 C154.839746,104.200509 153.549669,97.6468193 151.350687,91.3653944 L150.826514,89.8783715 L150.303868,88.394402 L147.611247,86.7826972 L143.557812,84.3577608 C141.25145,79.9475827 138.467226,75.8300254 135.239237,72.070229 C142.69369,58.7618321 152.874351,47.556743 164.824987,39.562341 C168.410738,37.1613232 172.171043,35.0295165 176.012265,33.2498728 L182.076896,30.4234097 L177.039746,26.0178117 Z" id="Fill-12" fill="#CFD4D8" mask="url(#mask-2)"></path>
                    </g>
                    <path d="M128.25369,114.360204 C128.25369,116.665547 128.192112,118.950025 128.048601,121.21771 C131.58855,118.849262 138.001272,114.423817 140.146819,112.355115 C141.152417,111.393791 141.730025,110.725598 142.058779,110.323053 C141.739695,105.842137 140.884224,101.433486 139.515776,97.1698728 L125.443511,88.7383206 C127.279135,96.9347583 128.25369,105.514402 128.25369,114.360204" id="Fill-15" fill="#CFD4D8"></path>
                    <path d="M80.3678372,77.6601018 C87.898626,77.6601018 94.9042239,79.9018321 100.761221,83.750687 L85.2177099,102.352214 L85.2156743,102.354758 L85.2131298,102.357812 L85.2197455,102.352723 L112.579033,81.4926718 C109.855369,79.2870738 106.851807,77.4122646 103.630433,75.9303308 C98.2594402,73.4595929 92.2818321,72.0799491 85.9810687,72.0799491 C85.6370483,72.0799491 85.2960814,72.0926718 84.9535878,72.1008142 C84.6991349,72.1064122 84.4431552,72.1079389 84.1897201,72.118626 C83.839084,72.1333842 83.4909924,72.1583206 83.1429008,72.1817303 C82.8752163,72.199542 82.6070229,72.2153181 82.3408651,72.2382188 C81.9978626,72.2672265 81.6563868,72.3038677 81.3159288,72.3410178 C81.0477354,72.3705344 80.7805598,72.4015776 80.514402,72.4356743 C80.1769975,72.4789313 79.8411196,72.5262595 79.5067684,72.577659 C79.2406107,72.6188804 78.9759796,72.6636641 78.7113486,72.7094656 C78.3800509,72.766972 78.0492621,72.8244784 77.7210178,72.8896183 C77.4568957,72.9420356 77.195827,73.0005598 76.9337405,73.0580662 C76.6085496,73.1288041 76.282341,73.1969975 75.9596947,73.275369 C75.7001527,73.3384733 75.4436641,73.4107379 75.1856489,73.4789313 C74.6060051,73.6316031 74.0309415,73.7959796 73.4614758,73.9720611 C73.1897201,74.0565394 72.9164377,74.1374555 72.6472265,74.2270229 C72.3530789,74.3247328 72.0624936,74.4305852 71.7708906,74.534402 C71.5006616,74.6310941 71.2299237,74.7272774 70.9622392,74.8290585 C70.6772519,74.9374555 70.3948092,75.0509415 70.1123664,75.1654453 C69.8421374,75.2748601 69.5729262,75.3863104 69.3057506,75.5013232 C69.0314504,75.6193893 68.7581679,75.7389822 68.4869211,75.8626463 C68.2136387,75.9868193 67.9423919,76.1160814 67.6721628,76.2463613 C67.4131298,76.3710433 67.1535878,76.4947074 66.8970992,76.6244784 C66.606514,76.7720611 66.32,76.9262595 66.033486,77.0799491 C65.8034606,77.2036132 65.5713995,77.3226972 65.3439186,77.4504326 C64.8548601,77.7247328 64.3708906,78.0076845 63.8940458,78.3003053 C63.7072774,78.4148092 63.5261069,78.5364377 63.341374,78.6539949 C63.0294148,78.8519593 62.7174555,79.0504326 62.4110941,79.2565394 C62.1983715,79.399542 61.9897201,79.5486514 61.779542,79.6957252 C61.5072774,79.886056 61.2360305,80.0774046 60.968855,80.2738422 C60.7561323,80.4300763 60.5459542,80.5898728 60.336285,80.7501781 C60.0762341,80.9486514 59.8187277,81.1501781 59.563257,81.3547583 C59.3591858,81.518626 59.1561323,81.6830025 58.9551145,81.8504326 C58.6965903,82.0651908 58.4426463,82.2845293 58.1897201,82.5059033 C58.000916,82.6707888 57.8110941,82.8341476 57.6253435,83.0020865 C57.3464631,83.2545038 57.0736896,83.5135369 56.8014249,83.7735878 C56.6507888,83.9170992 56.4965903,84.0570483 56.3484987,84.2031043 C55.9444275,84.6005598 55.5479898,85.0056489 55.1596947,85.4188804 C55.017201,85.5710433 54.8803053,85.7288041 54.7393384,85.8830025 C54.4869211,86.1603562 54.2345038,86.4377099 53.9892112,86.7216794 C53.8222901,86.9145547 53.660458,87.1120102 53.4970992,87.3079389 C53.2864122,87.5608651 53.076743,87.8148092 52.8716539,88.0723155 C52.7042239,88.2835115 52.5393384,88.496743 52.3754707,88.7115013 C52.1836132,88.9623919 51.9943003,89.2163359 51.8080407,89.4718066 C51.6456997,89.6941985 51.4843766,89.9170992 51.3261069,90.1430534 C51.1464631,90.4000509 50.9713995,90.6606107 50.7973537,90.9216794 C50.644173,91.150687 50.4899746,91.3791858 50.341374,91.6112468 C50.1652926,91.886056 49.9968448,92.1659542 49.8273791,92.4448346 C49.6772519,92.6926718 49.5245802,92.9379644 49.3790331,93.188855 C49.1179644,93.6397455 48.8640204,94.0957252 48.6187277,94.5573028 C48.4762341,94.8254962 48.3429008,95.0992875 48.2060051,95.3710433 C48.0803053,95.620916 47.95257,95.869771 47.8314504,96.1221883 C47.693028,96.4117557 47.5612214,96.7048855 47.4289059,96.9985242 C47.3210178,97.2377099 47.2136387,97.4768957 47.1098219,97.7191349 C46.9790331,98.0244784 46.8523155,98.3323664 46.7286514,98.6412723 C46.6360305,98.8723155 46.5459542,99.1043766 46.4574046,99.3374555 C46.3347583,99.6606107 46.2136387,99.9847837 46.098117,100.311501 C46.0757252,100.376132 46.049771,100.438728 46.0273791,100.503359 C46.0355216,100.48402 46.0446819,100.465191 46.0528244,100.446361 C51.6889567,87.0570483 64.9337405,77.6601018 80.3678372,77.6601018" id="Fill-17" fill="#CFD4D8"></path>
                    <path d="M77.8069211,135.92112 C79.7921628,139.482952 85.7941985,150.402545 90.87257,161.397964 C96.6328753,173.876336 105.812519,182.083461 105.812519,182.083461 C105.812519,182.083461 97.9824936,164.852926 95.4919084,157.977608 C86.5677354,150.427481 79.8802036,139.519084 77.8069211,135.92112" id="Fill-19" fill="#CFD4D8"></path>
                </g>
                <g id="Group-32" transform="translate(7.124682, 6.313486)" fill="#006F51">
                    <path d="M136.002087,88.1485496 C137.897761,93.5251399 139.053486,99.2416794 139.344071,105.189262 C139.344071,105.189262 139.33084,106.217252 136.036183,109.384682 C132.75883,112.546514 122.054504,119.590789 121.982748,119.647277 C122.234148,124.727176 122.942036,137.239135 123.939491,142.926158 L119.703359,144.872214 L111.586819,142.06916 C115.441272,132.844224 115.702341,123.476794 115.625496,119.647277 C115.60972,119.638117 99.9639186,114.431501 93.0997964,110.749567 C90.8412723,109.546514 89.1150636,108.521069 87.8087023,107.707837 C87.8087023,107.707837 80.8473791,111.643715 73.561883,114.987226 C66.2763868,118.335827 58.7140458,120.960763 58.7140458,120.960763 C58.7140458,120.960763 62.404631,121.386209 65.8992875,121.090534 C70.5975064,120.690534 73.5099746,119.956692 73.5099746,119.956692 C73.5099746,119.956692 75.8041221,124.036081 84.4305852,132.791807 C93.0529771,141.543461 99.3837659,143.92056 99.3837659,143.92056 C99.3837659,143.92056 100.820407,152.958728 103.266209,163.280356 C105.704377,173.606565 110.293181,184.564835 110.293181,184.564835 C110.293181,184.564835 99.2010687,185.584682 88.5537405,181.279847 C85.3247328,179.971959 82.6285496,178.621832 80.302341,177.011145 C74.9364377,173.316997 71.4514504,168.272214 67.6845293,159.282392 C62.2748601,146.392316 57.6173537,137.571959 54.9817303,134.239644 C52.4249873,131.007583 48.9394911,128.816743 48.7165903,128.679338 C48.8926718,129.02285 53.5796947,138.078321 54.4529771,147.92972 C55.3384733,157.967888 52.0687532,166.584682 52.0687532,166.584682 C52.0687532,166.584682 45.8779135,160.034555 42.6092112,155.718524 C41.7476336,154.582137 40.9929262,153.675267 40.3623919,152.864071 C39.2249873,151.388244 38.6178626,149.571959 38.5919084,147.711399 C38.5822392,146.970433 38.5700254,146.262545 38.5527226,145.595369 C38.4097201,140.35313 38.0636641,137.290025 38.0636641,137.290025 C38.0636641,137.290025 38.3858015,137.360254 38.9471247,137.626412 C39.2646819,137.776539 39.6458524,137.9857 40.0941985,138.276285 C40.6733333,138.662036 41.3476336,139.196387 42.0916539,139.916997 C44.4254962,142.181628 45.242799,144.872214 45.242799,144.872214 C45.242799,144.872214 45.8921628,143.430992 43.9135369,137.105293 C41.934402,130.789771 36.5730789,122.915471 36.5730789,108.253384 C36.5730789,107.621832 36.5893639,106.9857 36.620916,106.360254 C36.6606107,105.313944 36.7496692,104.285954 36.8662087,103.265089 C37.2300763,100.174504 37.9349109,97.1892621 38.9282952,94.3393893 C38.9201527,94.3582188 38.9109924,94.3770483 38.9028499,94.3963868 C38.9252417,94.3317557 38.950687,94.2691603 38.9735878,94.2045293 C39.0886005,93.8778117 39.2097201,93.5536387 39.3328753,93.2304835 C39.4214249,92.9974046 39.5115013,92.7653435 39.6041221,92.5343003 C39.7277863,92.2253944 39.8539949,91.9175064 39.9852926,91.6121628 C40.0886005,91.3704326 40.1964885,91.1307379 40.3043766,90.8915522 C40.4366921,90.5979135 40.5684987,90.3047837 40.7069211,90.0152163 C40.8280407,89.762799 40.9552672,89.513944 41.0809669,89.2640712 C41.2183715,88.9923155 41.3517048,88.7185242 41.4941985,88.4503308 C41.7389822,87.9887532 41.9929262,87.5332824 42.2545038,87.081883 C42.399542,86.8315013 42.5527226,86.5856997 42.7028499,86.3378626 C42.8723155,86.0589822 43.0407634,85.779084 43.2163359,85.5042748 C43.3649364,85.2722137 43.5196438,85.043715 43.6723155,84.8147074 C43.8468702,84.5536387 44.0219338,84.2930789 44.2015776,84.0360814 C44.3593384,83.8106361 44.5206616,83.5872265 44.6835115,83.3648346 C44.869771,83.1093639 45.0585751,82.8559288 45.2509415,82.6045293 C45.4148092,82.3902799 45.5791858,82.1765394 45.7471247,81.9658524 C45.9522137,81.7078372 46.161374,81.4538931 46.37257,81.2009669 C46.5359288,81.0050382 46.6977608,80.8075827 46.8646819,80.6147074 C47.1099746,80.3307379 47.361883,80.0533842 47.6143003,79.7760305 C47.7552672,79.6218321 47.8921628,79.4640712 48.0351654,79.3119084 C48.4234606,78.8986768 48.8198982,78.4935878 49.2234606,78.0961323 C49.3720611,77.9500763 49.5262595,77.8101272 49.6768957,77.6666158 C49.9486514,77.4070738 50.2214249,77.1475318 50.5008142,76.8951145 C50.6865649,76.7271756 50.8763868,76.5638168 51.0651908,76.3989313 C51.318117,76.1780662 51.5720611,75.9582188 51.8305852,75.7434606 C52.0316031,75.5760305 52.2341476,75.4116539 52.4387277,75.2477863 C52.6936896,75.043715 52.9517048,74.8421883 53.2117557,74.6432061 C53.4214249,74.4829008 53.6316031,74.3231043 53.8443257,74.1668702 C54.1115013,73.9704326 54.3827481,73.779084 54.6545038,73.5892621 C54.8646819,73.4421883 55.0738422,73.2930789 55.2865649,73.1495674 C55.5929262,72.9434606 55.9048855,72.7449873 56.2168448,72.5470229 C56.4015776,72.4294656 56.5827481,72.3078372 56.7695165,72.1933333 C57.2463613,71.9007125 57.7298219,71.6177608 58.2193893,71.3434606 C58.4468702,71.2162341 58.6789313,71.0966412 58.9089567,70.9729771 C59.1954707,70.8192875 59.4819847,70.6650891 59.77257,70.5175064 C60.0285496,70.3882443 60.2886005,70.2640712 60.5476336,70.1393893 C60.8178626,70.0091094 61.0886005,69.8803562 61.3623919,69.7556743 C61.6336387,69.6320102 61.9064122,69.5124173 62.1807125,69.3943511 C62.4483969,69.2793384 62.7176081,69.167888 62.9878372,69.0584733 C63.2702799,68.9439695 63.5527226,68.8304835 63.8377099,68.7220865 C64.1053944,68.6203053 64.3761323,68.5241221 64.6463613,68.4279389 C64.9379644,68.3236132 65.2285496,68.2177608 65.5226972,68.1200509 C65.7919084,68.0304835 66.0651908,67.9495674 66.3364377,67.865598 C66.9064122,67.6890076 67.4809669,67.524631 68.0611196,67.3719593 C68.3191349,67.3037659 68.5751145,67.2315013 68.8351654,67.1683969 C69.1573028,67.0900254 69.4840204,67.0218321 69.8092112,66.9510941 C70.0707888,66.8935878 70.3323664,66.8350636 70.5964885,66.7826463 C70.9247328,66.7175064 71.2555216,66.66 71.5863104,66.6024936 C71.8509415,66.5566921 72.1155725,66.5119084 72.3817303,66.470687 C72.7165903,66.4192875 73.0524682,66.3719593 73.3893639,66.3287023 C73.6560305,66.2946056 73.9232061,66.2635623 74.1913995,66.2340458 C74.5318575,66.1968957 74.8728244,66.1602545 75.2163359,66.1312468 C75.4824936,66.1083461 75.7501781,66.09257 76.0178626,66.0747583 C76.3664631,66.0518575 76.7145547,66.0264122 77.0651908,66.0116539 C77.318626,66.0009669 77.5740967,65.9999491 77.8290585,65.9938422 C78.1705344,65.9856997 78.5104835,65.9694148 78.8539949,65.9694148 C85.1557761,65.9694148 91.1349109,67.3510941 96.5059033,69.8233588 C99.7272774,71.3052926 102.73084,73.1801018 105.454504,75.3856997 L78.0947074,96.2457506 L111.222952,81.0625445 L118.562392,77.6986768 L136.002087,88.1485496 Z M133.629059,141.422341 C133.555267,141.983664 132.855522,146.282392 131.994453,151.254911 C129.545089,165.342443 127.824478,172.918524 126.632621,175.508346 C125.442799,178.099186 120.69827,181.824377 120.69827,181.824377 C120.69827,181.824377 124.178168,172.820814 128.127786,158.273232 C131.961374,144.161272 133.476387,142.075776 133.629059,141.422341 L133.629059,141.422341 Z M29.9303308,85.4243766 L18.0631552,76.8900254 L28.3557761,79.3373537 C29.2662087,76.9149618 30.3242239,74.5694148 31.5155725,72.3124173 L24.2341476,61.140916 L38.0056489,70.2533842 C34.6499237,74.7846819 31.9079389,79.8920611 29.9303308,85.4243766 L29.9303308,85.4243766 Z M24.3328753,104.783664 C24.1099746,99.6233588 24.4987786,94.579084 25.4239695,89.7500763 L16.5629008,83.1205598 L29.6992875,86.097659 C27.5226972,92.3938422 26.3349109,99.2279389 26.3349109,106.360254 C26.3349109,116.827939 28.9730789,126.716997 33.437201,135.164835 C28.1491603,126.370941 24.8148092,115.939389 24.3328753,104.783664 L24.3328753,104.783664 Z M38.7969975,61.481883 C41.5059033,58.2605089 44.5369466,55.3531298 47.8499237,52.8192875 L45.9247328,44.6350636 L51.1099746,50.4920611 C55.7430534,47.4360814 60.8168448,45.0605089 66.2397455,43.5317557 L67.6346565,23.7383715 L73.3817303,49.3923155 C59.5985242,50.849313 47.3796947,58.2055471 38.8601018,69.1414249 L28.1150636,54.4106361 L38.7969975,61.481883 Z M140.224478,15.9638168 C140.234148,15.9694148 140.241272,15.9694148 140.250941,15.9780662 C135.023969,21.2116539 130.241781,26.9923155 125.981221,33.2549109 C121.714046,39.5185242 117.966972,46.2482952 114.801578,53.3729771 C113.543562,56.1923155 112.378677,59.0767939 111.315064,62.011145 C102.345598,53.9607634 90.8992875,49.1332824 78.4092112,49.1332824 C77.3740967,49.1332824 76.3435623,49.1607634 75.3242239,49.2309924 L77.0041221,21.6177608 L81.3155725,41.4961323 C92.0565394,41.5851908 102.16341,44.8615267 110.804631,50.5052926 C110.804631,50.4991858 110.80972,50.4920611 110.818372,50.4834097 C121.048906,38.5516031 129.639746,26.0340458 136.510992,13.4116539 C127.652977,7.6335369 117.816845,3.56330789 107.357812,1.59231552 L99.7405089,22.1495674 L102.340509,0.807073791 C99.2346565,0.429974555 96.0743511,0.230992366 92.8845293,0.230992366 C86.1135369,0.230992366 79.5211705,1.10274809 73.1913995,2.75516539 L72.3048855,22.4940967 L68.6305852,4.09409669 C67.6916539,4.39638677 66.7639186,4.7119084 65.8377099,5.05033079 C65.6794402,5.10732824 65.5216794,5.16127226 65.361883,5.22386768 C62.6305852,6.27933842 59.9552672,7.44880407 57.3394911,8.74040712 C53.6377099,10.6106361 50.0580662,12.7546565 46.6422901,15.1714504 L50.4606107,31.7582188 L43.1033588,17.806056 C37.9420356,21.8442239 33.183257,26.5083461 28.9160814,31.686972 L35.4270229,44.7419338 L26.4295674,34.8294656 C23.3435623,38.8920611 20.5481425,43.2396438 18.0794402,47.8299746 L26.0097201,57.8711959 L16.4366921,51.0136896 C12.8509415,58.2666158 10.0402545,66.0742494 8.16442748,74.3052926 L17.2529771,80.0014758 L7.57918575,77.0106361 C6.42244275,82.6951145 5.70132316,88.5704326 5.47180662,94.5887532 L19.5603562,98.1882443 L5.40157761,96.9169975 C5.32982188,100.643715 5.41582697,104.878321 5.57613232,109.085445 L15.3120102,109.765344 L5.64636132,110.913435 C5.85195929,115.775013 6.12982188,120.486463 6.34407125,124.206565 L12.9053944,123.476794 L6.43872774,125.827939 C6.55526718,127.875267 6.64534351,129.500712 6.66722646,130.558219 C6.76137405,134.257455 6.81888041,137.27883 6.82549618,139.567379 L12.280458,137.896641 L6.83312977,141.203511 C6.81888041,145.815216 6.59496183,150.33888 6.17715013,154.739389 L11.1359288,152.229466 L6.01989822,156.274249 C5.51251908,161.190789 4.75221374,165.948041 3.77664122,170.516997 L8.25348601,167.495623 L3.36697201,172.387735 C2.45399491,176.376031 1.37918575,180.208601 0.135419847,183.852366 C1.69419847,183.197913 9.02600509,179.90631 17.4366921,169.551094 C32.2814758,151.275267 33.1913995,135.950585 33.437201,135.182646 L33.729313,137.770941 C33.7369466,137.809618 34.1425445,141.547023 34.2270229,147.708855 C34.2392366,147.728702 34.2392366,147.747023 34.2392366,147.770433 C34.275369,150.585191 35.2280407,153.336845 36.9211705,155.518524 C37.1837659,155.863562 37.4616285,156.220305 37.761883,156.59028 C38.1812214,157.12056 38.6407634,157.688499 39.1384733,158.347023 C42.5135369,162.807583 48.6468702,169.298677 48.9003053,169.575522 L50.3990331,171.160763 L52.3318575,171.149059 L60.9048855,171.095623 C63.9191349,171.082901 66.8433079,172.107328 69.1812214,174.025903 C69.3064122,174.128702 69.4438168,174.239644 69.5740967,174.345496 C71.853486,176.202494 74.8585751,178.551094 77.8239695,180.596896 C79.0433079,181.431501 80.3496692,182.221832 81.8087023,182.979593 C83.3384733,183.779084 85.0224427,184.547532 86.9216794,185.314453 C94.8005598,188.500204 102.807176,189.03201 107.230585,189.03201 C118.190382,189.03201 119.80514,188.064071 119.80514,188.064071 C119.80514,188.064071 121.571043,187.161272 123.156285,185.797405 C124.73084,184.430483 127.565445,181.858982 129.496743,179.158219 C129.93084,178.544987 130.31201,177.928702 130.590382,177.326667 L130.686056,177.120051 C131.635165,174.944478 133.123715,170.027939 136.13084,152.851858 C136.179695,152.570941 136.235165,152.283919 136.282494,151.996896 C136.347634,151.624377 136.410229,151.254911 136.472316,150.893079 C138.428041,139.663053 138.73542,136.702748 138.73542,136.702748 C138.73542,136.702748 139.18631,133.479338 137.366972,130.272723 C135.546107,127.057455 129.269262,119.971959 129.269262,119.971959 C132.711501,117.587226 137.009211,114.480865 139.053486,112.522087 C142.28402,109.424885 143.668753,107.248804 143.701832,105.252875 L143.701832,105.116489 L143.69369,104.974504 C143.385802,98.7297201 142.180712,92.5836641 140.115573,86.6991858 L139.591908,85.2203053 L133.14,81.3490585 C130.440254,75.9175064 126.955776,70.9434606 122.829567,66.5882443 C130.732875,51.4589822 141.904885,38.7811196 155.277913,29.8355725 C159.03771,27.3185242 162.974606,25.0946056 167.050941,23.1902799 C156.030076,13.5709415 142.885547,6.32819338 128.402087,2.26661578 C132.616336,6.35058524 136.573588,10.9353181 140.224478,15.9638168 L140.224478,15.9638168 Z" id="Fill-22"></path>
                    <polygon id="Fill-24" points="78.0884478 96.2488041 78.0909924 96.2477863 78.093028 96.2452417"></polygon>
                    <path d="M88.3672265,151.870636 C90.8578117,158.745954 98.6878372,175.976489 98.6878372,175.976489 C97.575369,172.611094 96.4420356,168.837048 95.5601018,165.102697 C94.0461069,158.702188 92.9132824,152.838066 92.2511959,149.14799 C89.0140458,147.238066 84.2511959,143.893028 78.786056,138.346463 C74.6878372,134.18056 71.883257,130.957659 70.0033588,128.610076 C70.0033588,128.610076 70.2415267,129.048753 70.6822392,129.814148 C72.7555216,133.412112 79.4430534,144.320509 88.3672265,151.870636" id="Fill-26"></path>
                    <polygon id="Fill-28" points="59.4326209 174.526412 59.4326209 173.455165 55.1196438 173.455165 55.1196438 174.526412 56.6285496 174.526412 56.6285496 175.473995 56.6285496 179.065852 57.9028499 179.065852 57.9028499 175.46687 57.9028499 174.526412"></polygon>
                    <path d="M65.8369466,173.454911 L64.1779135,173.454911 L63.5830025,175.321578 C63.5351654,175.480356 63.4868193,175.647277 63.4394911,175.81827 C63.3000509,176.316489 63.1651908,176.85084 63.0486514,177.335318 L63.0232061,177.335318 C62.9143003,176.772977 62.7682443,176.177557 62.6191349,175.613181 C62.5941985,175.52056 62.5712977,175.421323 62.5463613,175.331247 L61.9982697,173.454911 L60.3081934,173.454911 L60.1799491,175.453384 L59.9489059,179.065598 L61.1260051,179.065598 L61.2257506,176.935318 C61.2501781,176.486463 61.2705344,175.972468 61.2903817,175.461527 C61.3015776,175.173486 61.3127735,174.886463 61.3244784,174.612672 L61.3443257,174.612672 C61.3936896,174.892061 61.4542494,175.181628 61.5183715,175.469669 C61.6216794,175.936845 61.7366921,176.400967 61.8476336,176.815216 L62.4491603,178.976031 L63.4415267,178.976031 L64.1229517,176.785191 C64.1896183,176.581628 64.2583206,176.361781 64.3270229,176.137354 C64.4786768,175.639135 64.6282952,175.107837 64.7489059,174.612672 L64.7712977,174.612672 C64.7712977,175.21369 64.7830025,175.812672 64.8013232,176.356183 C64.8079389,176.551603 64.8150636,176.740407 64.8226972,176.919033 L64.9041221,179.065598 L66.147888,179.065598 L66.0389822,177.104275 L65.8369466,173.454911 Z" id="Fill-30"></path>
                </g>
            </g>
        </g>
    </g>
</svg>