<?xml version="1.0" encoding="UTF-8"?>
<svg width="200px" height="200px" viewBox="0 0 200 200" version="1.1" xmlns="http://www.w3.org/2000/svg" xmlns:xlink="http://www.w3.org/1999/xlink">
    <!-- Generator: Sketch 54.1 (76490) - https://sketchapp.com -->
    <title>ithaca</title>
    <desc>Created with Sketch.</desc>
    <g id="ithaca" stroke="none" stroke-width="1" fill="none" fill-rule="evenodd">
        <g id="ithaca_BGL" fill="#1C3054">
            <g id="ithaca" transform="translate(19.000000, 0.000000)">
                <g id="g10" transform="translate(80.174879, 99.857379) scale(-1, 1) rotate(-180.000000) translate(-80.174879, -99.857379) translate(0.000000, 0.299562)">
                    <g id="g12">
                        <path d="M34.3960805,127.694795 L23.851498,118.989213 L21.9606924,79.5942724 L31.8672239,71.4976668 L40.4418832,70.5247314 L40.985046,81.8894765 L35.1587991,82.2250657 L36.6452062,116.074724 L74.0763905,119.101105 L73.9404456,113.385781 L91.6716048,114.353166 L91.8451702,125.99262 L77.8645214,133.503509 L34.3960805,127.694795 Z M73.0439847,79.9212273 L66.2309701,80.388268 L65.7275424,67.811032 L76.1062246,66.6447078 L90.9597223,74.3448442 L91.1306446,85.8451817 L73.20222,86.6064907 L73.0439847,79.9212273 Z M42.7257219,146.565847 L42.4944482,136.832088 L47.9056358,137.70432 L47.7844925,134.033016 L62.7488254,136.330775 L62.8427445,140.279608 L69.1784102,141.263732 L69.3676581,152.105843 L42.7257219,146.565847 Z M47.0648568,112.346151 L45.0326439,64.1189348 L39.4542344,64.8368083 L38.9548594,55.3092133 L66.4440063,50.5691158 L66.7995951,61.2386302 L60.4054282,62.0897174 L62.2373801,113.363755 L47.0648568,112.346151 L47.0648568,112.346151 Z" id="path14" fill-rule="nonzero"></path>
                        <path d="M147.0839,198.750883 C100.728723,198.750883 46.752351,187.60217 2.5677547,167.973421 L0,166.784894 L0.183435719,145.390536 L3.00965925,163.007865 C38.2916105,178.68778 88.618792,185.643612 139.803845,185.643612 L128.912396,81.7641923 C125.325671,47.5604433 88.390602,25.0425795 56.0126377,14.0536872 C18.2248074,21.7397269 3.92890389,54.3575991 3.92890389,54.3575991 C10.0645024,31.8592945 31.568198,11.1021944 52.7148951,3.37893946 L56.9081294,1.84674465 L62.7216011,0.00103247624 C99.1974709,12.3734508 143.573826,40.2343976 147.927939,81.7641923 L160.193814,198.750883 L147.0839,198.750883" id="path16"></path>
                    </g>
                </g>
            </g>
        </g>
    </g>
</svg>