<?xml version="1.0" encoding="UTF-8"?>
<svg width="200px" height="200px" viewBox="0 0 200 200" version="1.1" xmlns="http://www.w3.org/2000/svg" xmlns:xlink="http://www.w3.org/1999/xlink">
    <!-- Generator: Sketch 54.1 (76490) - https://sketchapp.com -->
    <title>philadelphia-u</title>
    <desc>Created with Sketch.</desc>
    <g id="philadelphia-u" stroke="none" stroke-width="1" fill="none" fill-rule="evenodd">
        <g id="philadelphia-u_BGL">
            <g id="philadelphia-u" transform="translate(0.000000, 31.000000)">
                <g id="g10" transform="translate(99.999998, 69.162794) scale(-1, 1) rotate(-180.000000) translate(-99.999998, -69.162794) translate(0.000000, 0.170548)" fill-rule="nonzero">
                    <g id="g12">
                        <path d="M199.230228,61.1634093 C197.546507,63.9849596 195.571313,66.2557348 193.577515,68.0771301 L192.52015,68.954727 C189.512398,71.4522463 186.064336,73.3708509 182.262786,74.6648043 C182.267437,74.6796105 182.271313,74.695347 182.275964,74.7102307 C182.272088,74.7113935 182.262786,74.713564 182.262786,74.713564 L182.27829,74.71744 C183.466662,78.8271298 184.793019,84.8813932 184.87829,91.6434086 C185.038755,104.298447 180.858135,121.531005 160.032554,131.765888 C152.191469,135.618601 144.523252,137.571314 137.242632,137.571314 C130.15426,137.571314 123.55116,135.697671 117.615501,132.001547 C112.15116,128.596896 106.954261,123.262788 103.631005,117.662013 C102.437982,117.734881 101.227129,117.771315 100.025579,117.771315 L99.2069743,117.771315 C98.0061991,117.771315 96.7953464,117.734881 95.6023232,117.662013 C92.2782923,123.264338 87.080618,128.598446 81.616277,132.001547 C75.6828663,135.697671 69.0800758,137.571314 61.990386,137.571314 C54.7102312,137.571314 47.0421694,135.618601 39.2008517,131.765888 C18.3775189,121.534105 14.1957361,104.299222 14.3547283,91.6434086 C14.4410074,84.8767421 15.7672864,78.824029 16.9558135,74.7165873 L16.9670538,74.713564 C16.9670538,74.713564 16.9594569,74.7117036 16.9573639,74.7110834 C16.9619376,74.695657 16.9655035,74.6796105 16.9700771,74.6648043 C13.1676741,73.3708509 9.72023232,71.4519362 6.71330216,68.9537967 L5.60350374,68.0320138 C3.6261472,66.2188356 1.66999996,63.9619364 0,61.1634093 C0,61.1634093 9.16759667,62.770076 17.6704647,57.7565102 L17.6704647,57.7565102 C18.3866662,57.3310063 19.080077,56.8719366 19.7332553,56.3611614 C22.640232,54.0906963 24.5221699,50.7324794 26.5146505,47.176588 C26.8417048,46.5921694 27.1702319,46.0062004 27.5042629,45.4233322 C30.2052706,40.6952703 32.9290689,36.8271309 37.4424797,33.3163558 C41.322092,30.3000768 46.1210066,28.5704644 50.6092235,28.5704644 C52.4655026,28.5704644 54.2641847,28.855038 55.9547273,29.4162008 C59.5703086,30.6141078 62.5490682,32.633255 64.626355,35.2846503 L66.6355022,33.265193 L75.1338741,24.7032552 L75.1338741,11.5022478 L87.1410831,0 L112.092245,0 L124.099222,11.5022478 L124.099222,24.7032552 L134.604648,35.2882937 C136.682167,32.6347279 139.662012,30.6141078 143.275965,29.4162008 C144.968989,28.855038 146.768213,28.5704644 148.624027,28.5704644 C153.112399,28.5704644 157.910849,30.3000768 161.791469,33.3163558 C166.303872,36.8271309 169.027903,40.6946501 171.728678,45.422402 C172.062786,46.0062004 172.390693,46.5906965 172.719376,47.1799213 C174.711624,50.7334096 176.593019,54.0891459 179.49767,56.3605412 C180.151158,56.8704637 180.844957,57.3301536 181.561236,57.75589 L181.561236,57.75589 C190.063561,62.7689132 199.230228,61.1634093 199.230228,61.1634093" id="path14" fill="#1A2650"></path>
                        <path d="M73.5722462,62.9457349 L73.4608509,62.8215488 C72.3903858,61.9168202 70.6023238,61.8879829 69.5151921,62.7719364 C68.5123239,63.58651 68.1565099,65.1365875 68.6264324,66.340541 L65.8930216,68.2167425 C64.4627891,65.5980604 65.1299209,62.1196884 67.4539518,60.2331768 C68.591006,59.3093008 70.0203083,58.852014 71.4495331,58.852014 C72.9908509,58.852014 74.5321687,59.3844171 75.7061221,60.4406186 L76.2890679,61.0804636 L73.5722462,62.9457349" id="path16" fill="#E3EA10"></path>
                        <path d="M125.662788,62.9457349 L125.77364,62.8215488 C126.844183,61.9168202 128.632555,61.8879829 129.720152,62.7719364 C130.722477,63.58651 131.079066,65.1365875 130.608524,66.340541 L133.342632,68.2167425 C134.77209,65.5980604 134.105423,62.1196884 131.781392,60.2331768 C130.644183,59.3093008 129.21395,58.852014 127.786043,58.852014 C126.244183,58.852014 124.703098,59.3844171 123.528679,60.4406186 L122.944958,61.0804636 L125.662788,62.9457349" id="path18" fill="#E3EA10"></path>
                        <path d="M174.623251,62.6026341 C170.459686,59.3495334 168.094569,55.1272079 165.806197,51.0434871 C165.489918,50.4805414 165.174414,49.9164329 164.852709,49.3534871 C162.552709,45.3294562 160.425577,42.2892237 156.927903,39.5690688 C154.413174,37.6132549 151.386818,36.4913169 148.624802,36.4913169 C147.620927,36.4913169 146.659686,36.6412394 145.770539,36.9355805 C141.010849,38.5117045 138.779066,41.7923245 139.136431,46.684495 C139.686043,54.2138746 145.743407,59.5675954 149.304647,62.0884481 C152.359686,64.250231 155.837205,65.9738743 159.361236,67.0712386 C162.864337,68.1616262 166.443407,68.7145719 169.999221,68.7145719 L169.999996,68.7145719 L170.000771,68.7145719 C174.150383,68.7145719 178.013949,67.9630216 181.441081,66.5089131 C178.97829,65.5275177 176.686042,64.2144945 174.623251,62.6026341 L174.623251,62.6026341 Z M152.564337,80.1596879 C154.422477,90.3953466 153.027128,96.9201526 151.914725,100.08992 C159.220151,99.7534859 167.599221,96.8170518 176.948058,91.3054241 C176.751158,82.3364321 174.039531,74.6333315 172.940306,71.8610835 C171.964337,71.941316 170.983717,71.9848819 170.000771,71.9848819 L169.999996,71.9848819 C166.080616,71.9848819 162.133329,71.3596106 158.389143,70.1937967 C158.234105,70.1453471 158.078291,70.0889905 157.923252,70.0381378 C158.646508,71.4634866 159.217825,72.9760447 159.745732,74.4740291 L160.170539,75.683719 L159.096895,76.3853469 C158.784492,76.5900756 158.472089,76.7986803 158.155035,77.0088353 C156.527128,78.0930213 154.730229,79.279843 152.564337,80.1596879 L152.564337,80.1596879 Z M149.413175,81.1116259 C146.820927,81.6356569 143.747283,81.6496104 139.948834,80.6906957 C138.984493,80.4472848 137.978291,80.0868197 136.903873,79.6061996 L131.616276,90.7395326 C132.950384,92.7480597 136.534105,97.1759666 143.217051,99.1333309 C144.87364,99.6186022 146.608523,99.9201525 148.41395,100.054261 C149.232554,98.1837185 151.317826,92.0255791 149.413175,81.1116259 L149.413175,81.1116259 Z M128.579842,92.0751915 C117.020927,94.7472845 110.716276,107.397672 109.113176,111.065889 C110.243408,113.655036 115.441082,122.698447 125.287594,127.138757 C134.351159,131.225578 144.867438,130.390694 156.538756,124.655036 C169.224802,118.422478 176.03953,108.496897 176.862011,95.1356565 C163.439531,102.693021 151.789919,105.088369 142.21395,102.247284 C134.040307,99.8232533 129.938756,94.2868193 128.579842,92.0751915 Z M70.6552696,92.0751915 C69.2956572,94.2868193 65.1950371,99.8232533 57.0212389,102.247284 C47.4448825,105.088369 35.7958131,102.693021 22.3722475,95.1356565 C23.1958909,108.496897 30.0106194,118.422478 42.6953478,124.655036 C54.3680607,130.390694 64.8837193,131.225578 73.9468199,127.138757 C83.7945715,122.698447 88.9922458,113.655036 90.1224784,111.065889 C88.5186024,107.397672 82.2139514,94.7472845 70.6552696,92.0751915 Z M62.3310062,79.6061996 C61.2569752,80.0868197 60.2506962,80.4472848 59.2862776,80.6906957 C55.487518,81.6496104 52.4134095,81.6356569 49.8219367,81.1116259 C47.9166655,92.0255791 50.003022,98.1837185 50.821239,100.054261 C52.6268979,99.9201525 54.3620141,99.6186022 56.0174405,99.1333309 C62.7013938,97.1759666 66.2841844,92.7480597 67.6189906,90.7395326 L62.3310062,79.6061996 Z M46.6696888,80.1596879 C44.5045725,79.279843 42.708371,78.0930213 41.0792238,77.0088353 C40.7634098,76.7986803 40.4508517,76.5900756 40.138061,76.3853469 L39.06403,75.683719 L39.4894564,74.4740291 C40.0163556,72.9760447 40.5886812,71.4634866 41.3114718,70.0381378 C41.1564331,70.0889905 41.0010842,70.1453471 40.8460455,70.1937967 C37.1009293,71.3596106 33.1537976,71.9848819 29.2354256,71.9848819 L29.2348055,71.9848819 C28.2512396,71.9848819 27.2701544,71.941316 26.2944955,71.8610835 C25.1958908,74.6333315 22.484263,82.3364321 22.2874413,91.3054241 C31.635193,96.8170518 40.0148052,99.7534859 47.320774,100.08992 C46.2079058,96.9201526 44.8119369,90.3953466 46.6696888,80.1596879 L46.6696888,80.1596879 Z M49.9303863,62.0884481 C53.4920142,59.5675954 59.5482156,54.2138746 60.0986807,46.684495 C60.4551148,41.7923245 58.2234094,38.5117045 53.4641847,36.9355805 C52.5744948,36.6412394 51.6145724,36.4913169 50.6101538,36.4913169 C47.8485259,36.4913169 44.8219369,37.6132549 42.3071307,39.5690688 C38.809689,42.2892237 36.681472,45.3294562 34.3825573,49.3534871 C34.0606968,49.9164329 33.7442627,50.4805414 33.4286813,51.0434871 C31.141007,55.1272079 28.7744954,59.3495334 24.6124025,62.6026341 C22.5493793,64.2144945 20.2570538,65.5275177 17.7937205,66.5089131 C21.2215499,67.9630216 25.0838753,68.7145719 29.2348055,68.7145719 L29.2354256,68.7145719 L29.2354256,68.7145719 C32.7919372,68.7145719 36.3711619,68.1616262 39.87403,67.0712386 C43.3978284,65.9738743 46.8750376,64.250231 49.9303863,62.0884481 L49.9303863,62.0884481 Z M176.282941,71.4201533 C177.623251,74.9467423 180.115499,82.6868196 180.227902,91.7023233 C180.371313,103.017827 176.627127,118.428679 157.982167,127.590694 C148.127903,132.432555 133.551159,136.444958 120.075191,128.05271 C112.487594,123.326354 107.896897,116.292245 106.298447,112.757362 C103.887594,113.041858 101.627904,113.132555 99.6232533,113.118602 L99.6232533,113.118602 C99.6217029,113.118602 99.6193774,113.118602 99.617827,113.118602 C99.6155014,113.118602 99.613951,113.118602 99.6124006,113.118602 L99.6124006,113.118602 C97.6069743,113.132555 95.3480596,113.041858 92.937207,112.757362 C91.3379822,116.292245 86.7472847,123.326354 79.1589127,128.05271 C65.6840294,136.444958 51.1073631,132.432555 41.2533323,127.590694 C22.6083715,118.428679 18.8641856,103.017827 19.0073639,91.7023233 C19.1199995,82.6868196 21.61217,74.9467423 22.9520924,71.4201533 C18.123798,70.5347269 13.543178,68.5801533 9.6853486,65.3758123 C11.25093,65.3121689 15.2879841,63.9698434 16.2766663,63.5906961 C18.5522476,62.718293 20.6946506,61.5134093 22.5986816,60.0254249 C26.7765885,56.7605412 28.9879838,52.2008514 31.5427899,47.7301538 C33.9925573,43.444185 36.351472,40.0581385 40.2994564,36.9876735 C43.2079834,34.725658 46.932557,33.2210069 50.6101538,33.2210069 C51.9234871,33.2210069 53.2310064,33.413255 54.4927893,33.8311619 C60.6110838,35.8581386 63.8278279,40.5172083 63.3599984,46.922557 C63.0011612,51.8420142 60.6604636,56.2751149 57.2695335,59.9836419 C58.6488357,60.0687582 60.1659675,60.4099985 61.7193783,61.202169 L60.2325566,64.1158124 C57.3703862,62.6553473 54.665425,63.326355 53.4248049,63.7881379 C47.6275182,65.5713937 44.9067431,70.3040293 44.9067431,70.3040293 L44.9118593,70.303099 C44.1472857,71.5216261 43.5486036,72.907285 43.0065881,74.3622462 C46.8104639,76.8952694 50.7788359,79.4620135 58.4862776,77.5201531 C61.4855799,76.7632539 64.8997658,74.5496881 67.2223239,72.9366648 L88.7193776,57.9875179 L88.7193776,65.5699208 L85.4488351,67.8458123 L85.4488351,64.2459674 L69.1299983,75.5928663 L69.1299983,75.5934865 C69.1215487,75.5992229 69.1139518,75.6044167 69.1058122,75.6101531 L65.3085255,78.2503856 L70.2449595,88.6457342 C76.8199206,89.813176 82.8914708,93.9472845 87.8519358,100.64961 C90.4837187,104.204649 92.1689899,107.606974 92.9984473,109.471315 C95.3860441,109.766664 97.6333309,109.855811 99.617827,109.840307 C101.600773,109.855811 103.84961,109.766664 106.237207,109.471315 C107.065114,107.606974 108.75116,104.204649 111.382943,100.64961 C116.344183,93.9472845 122.414726,89.813176 128.989919,88.6457342 L133.927128,78.2503856 L130.129454,75.6101531 C130.120927,75.6044167 130.113175,75.5992229 130.104648,75.5934865 L130.105423,75.5928663 L113.786044,64.2459674 L113.786044,67.8458123 L110.514726,65.5699208 L110.514726,57.9875179 L132.013175,72.9366648 C134.335656,74.5496881 137.748834,76.7632539 140.748834,77.5201531 C148.456585,79.4620135 152.424802,76.8952694 156.227903,74.3622462 C155.686043,72.907285 155.087593,71.5216261 154.322477,70.303099 L154.327903,70.3040293 C154.327903,70.3040293 151.607748,65.5713937 145.810074,63.7881379 C144.569764,63.326355 141.864338,62.6553473 139.002322,64.1158124 L137.514725,61.202169 C139.068214,60.4099985 140.586043,60.0687582 141.965888,59.9836419 C138.574415,56.2751149 136.234105,51.8420142 135.874415,46.922557 C135.406973,40.5172083 138.624028,35.8581386 144.742632,33.8311619 C146.003872,33.413255 147.311624,33.2210069 148.624802,33.2210069 C152.302322,33.2210069 156.027128,34.725658 158.935655,36.9876735 C162.883717,40.0581385 165.242632,43.444185 167.692244,47.7301538 C170.247283,52.2008514 172.45891,56.7605412 176.635654,60.0254249 C178.540306,61.5134093 180.682166,62.718293 182.958135,63.5906961 C183.947282,63.9698434 187.984491,65.3121689 189.549608,65.3758123 C185.692243,68.5801533 181.111623,70.5347269 176.282941,71.4201533 L176.282941,71.4201533 Z" id="path20" fill="#68BCE2"></path>
                        <path d="M127.889919,54.5830219 L127.889919,39.7683711 L119.448834,31.2627124 L119.448834,58.8117815 L116.177516,56.5658125 L116.177516,27.9675187 L116.154261,27.9433326 L116.177516,27.9193791 L116.177516,14.8827903 L108.9124,7.92178275 L101.303873,7.92178275 L101.303873,15.2967438 C102.17209,15.6301546 102.800773,16.3481391 103.120152,16.7853484 C103.664338,17.5293794 103.84961,18.2945732 103.980618,18.9534879 C104.053486,19.3271313 104.093796,19.7032553 104.13023,20.0790693 C104.155036,20.3234103 104.177517,20.5689917 104.219377,20.8115499 C104.329455,21.4395343 104.586819,21.9991467 104.944183,22.3876739 C105.285269,22.7589142 105.743408,22.9905421 106.169765,23.0093018 C106.516276,23.0317049 106.895346,22.9085266 107.237207,22.682325 C107.593796,22.4464335 107.919377,22.0875963 108.179842,21.644263 L111.001548,23.2955033 C110.490695,24.1696893 109.8124,24.9015498 109.041083,25.4099994 C108.127129,26.0137978 107.062788,26.3168986 106.025579,26.276666 C104.736431,26.2199993 103.465114,25.6101544 102.537982,24.6024025 C101.74961,23.7457358 101.217052,22.6296118 100.998447,21.3744181 C100.941858,21.0519375 100.908525,20.7264336 100.876742,20.3990693 C100.84961,20.1277514 100.824804,19.8549607 100.772866,19.5875964 C100.687594,19.1572863 100.617827,18.9023251 100.479842,18.713953 C100.352711,18.5395344 100.212401,18.4093019 100.137207,18.355736 C99.9279045,18.313953 99.7612378,18.2915499 99.617827,18.2875964 C99.4728657,18.2915499 99.3069743,18.313953 99.0984471,18.355736 C99.0224781,18.4093019 98.8813929,18.5395344 98.7550363,18.713953 C98.6170518,18.9023251 98.5480596,19.1572863 98.462013,19.5875964 C98.4092999,19.8549607 98.3860441,20.1277514 98.3589123,20.3990693 C98.3271293,20.7264336 98.293796,21.0519375 98.2364317,21.3744181 C98.017827,22.6296118 97.4860441,23.7457358 96.6968968,24.6024025 C95.769765,25.6101544 94.4976721,26.2199993 93.2085248,26.276666 C92.1713155,26.3168986 91.1077497,26.0137978 90.1937962,25.4099994 C89.4224784,24.9015498 88.7441838,24.1696893 88.2333311,23.2955033 L91.0558117,21.644263 C91.3162768,22.0875963 91.6418582,22.4464335 91.9984473,22.682325 C92.3395326,22.9085266 92.7178271,23.0317049 93.0658891,23.0093018 C93.4914705,22.9905421 93.9488349,22.7589142 94.2906953,22.3876739 C94.6488348,21.9991467 94.9061992,21.4395343 95.0147263,20.8115499 C95.057362,20.5689917 95.0798426,20.3234103 95.1038736,20.0790693 C95.1410829,19.7032553 95.181393,19.3271313 95.2550364,18.9534879 C95.3852689,18.2945732 95.5705402,17.5293794 96.1147263,16.7853484 C96.4333309,16.3481391 97.0635635,15.6301546 97.9310053,15.2967438 L97.9310053,7.92178275 L90.3224784,7.92178275 L83.0565871,14.8827903 L83.0565871,27.9193791 L83.0813933,27.9433326 L83.0565871,27.9675187 L83.0565871,56.5658125 L79.7868197,58.8117815 L79.7868197,31.2627124 L71.3451145,39.7683711 L71.3451145,54.5830219 C71.1906184,54.5720917 71.0361998,54.5627118 70.8817812,54.5627118 C69.9118587,54.5627118 68.948913,54.7928668 68.0737967,55.2246498 L68.0737967,38.4202316 L79.7868197,26.6199993 L79.7868197,13.4868214 L89.0093001,4.65116267 L99.5992223,4.65116267 L99.6124006,4.65116267 L99.6232533,4.65116267 L99.6356564,4.65116267 L110.225579,4.65116267 L119.448834,13.4868214 L119.448834,26.6199993 L131.161237,38.4202316 L131.161237,55.2246498 C130.286043,54.7928668 129.323253,54.5627118 128.353485,54.5627118 C128.199222,54.5627118 128.044958,54.5720917 127.889919,54.5830219" id="path22" fill="#68BCE2"></path>
                        <polyline id="path24" fill="#1A2650" points="186.667437 77.4866647 186.950383 77.4866647 187.626352 75.8593779 188.303871 77.4866647 188.565887 77.4866647 188.565887 75.6368198 188.383716 75.6368198 188.383716 77.3037965 188.37829 77.3037965 187.705422 75.6368198 187.548833 75.6368198 186.855809 77.3037965 186.849608 77.3037965 186.849608 75.6368198 186.667437 75.6368198 186.667437 77.4866647"></polyline>
                        <polyline id="path26" fill="#1A2650" points="185.688367 77.3276725 185.142631 77.3276725 185.142631 77.4866647 186.416274 77.4866647 186.416274 77.3276725 185.871313 77.3276725 185.871313 75.6368198 185.688367 75.6368198 185.688367 77.3276725"></polyline>
                    </g>
                </g>
            </g>
        </g>
    </g>
</svg>