<svg width="200" height="200" viewBox="0 0 200 200" fill="none" xmlns="http://www.w3.org/2000/svg">
<path d="M200 92.0184C173.526 76.8152 153.866 54.7313 144.037 29.4364C137.811 33.6959 133.224 40.1835 131.389 47.7195C118.414 35.9895 109.043 26.2254 103.408 20C98.2962 25.7667 95.2818 33.3683 95.0197 42.5426C94.8886 47.5885 95.5439 52.7654 96.9856 58.0079C58.4535 71.7693 21.8218 99.9476 0 131.075C12.9096 127.143 54.8493 119.083 97.1167 151.52C142.136 186.055 174.64 181.14 183.552 178.322C173.395 171.311 166.317 160.301 165.334 147.72C165.203 145.688 165.203 143.657 165.334 141.625C178.571 137.955 188.336 125.767 188.336 111.35C188.336 110.039 188.27 108.794 188.073 107.549C194.43 104.797 199.017 98.9646 200 92.0184Z" fill="white"/>
<path d="M157.864 105.256C154.128 104.797 151.31 101.914 151.573 98.8991C151.704 97.2608 152.752 95.8847 154.325 95.0328C149.672 90.7077 144.626 88.021 141.088 86.4482C140.17 88.5452 139.646 90.9043 139.646 93.329C139.646 102.765 147.313 110.367 156.684 110.367C159.305 110.367 161.795 109.777 164.089 108.663C163.499 107.222 162.844 105.911 162.123 104.6C160.878 105.19 159.371 105.452 157.864 105.256Z" fill="#A2AAB6"/>
<path d="M106.16 63.1192C78.3749 69.9999 49.2137 89.5937 21.8218 119.148C24.7051 118.886 27.8506 118.689 31.2582 118.624C48.6239 118.493 74.8362 122.818 101.442 143.788C107.536 148.637 113.696 152.831 119.856 156.435C118.938 153.29 118.414 149.948 118.349 146.474C118.218 135.531 122.87 125.373 130.406 117.706C122.608 114.364 116.579 107.484 115.465 99.6199C113.893 88.6762 122.412 79.9606 134.469 80.1572C137.222 80.2227 139.974 80.747 142.53 81.6644V81.5989C159.109 87.4967 173.263 104.993 174.443 121.507C174.64 123.997 174.509 126.291 174.05 128.388C181.651 119.803 181.717 110.039 180.275 103.027C188.532 100.275 191.284 95.0327 191.284 95.0327C191.284 95.0327 153.801 73.2765 141.874 43.1978C141.874 43.1978 136.501 51.0615 137.353 62.6605C128.309 55.1244 117.169 45.0327 104.915 32.3853C104.849 32.5163 99.5413 44.9016 106.16 63.1192Z" fill="#4B2E84"/>
<path d="M165.203 123.473C147.969 124.98 134.928 141.625 134.142 163.709C136.763 164.823 139.384 165.806 141.94 166.723C152.294 170.262 160.813 171.245 166.71 171.442C160.944 164.823 157.471 156.107 157.471 146.54C157.471 137.89 160.354 129.83 165.203 123.473Z" fill="#A2AAB6"/>
</svg>
