<?xml version="1.0" encoding="UTF-8"?>
<svg width="200px" height="200px" viewBox="0 0 200 200" version="1.1" xmlns="http://www.w3.org/2000/svg" xmlns:xlink="http://www.w3.org/1999/xlink">
    <!-- Generator: Sketch 54.1 (76490) - https://sketchapp.com -->
    <title>keystone</title>
    <desc>Created with Sketch.</desc>
    <g id="keystone" stroke="none" stroke-width="1" fill="none" fill-rule="evenodd">
        <g id="keystone_BGL">
            <g id="keystone" transform="translate(0.000000, 59.000000)">
                <path d="M54.7697086,81.5822642 L52.4923905,73.8936449 L49.7702793,81.5799676 L7.6093547,81.5799676 L34.1822787,13.1215241 L0.410014546,0.135478086 L79.2122479,0.135478086 L74.7302931,10.8559651 L86.5075991,0.13408805 L126.449773,0.134088051 L199.682123,0.135522338 L186.433754,34.266755 L147.257991,34.2645827 L142.005135,47.9674057 L181.114734,47.9699283 L168.068672,81.5799676 L96.9817592,81.5799676 L54.7697086,81.5822642 Z M100.901398,48.3026392 L83.1303904,39.7223931 L80.8778973,41.5958169 L92.4134447,70.2373358 L100.901398,48.3026392 Z M105.128062,37.3800311 L114.231236,13.8554709 L85.9471758,37.3796411 L105.128062,37.3800311 Z" id="Combined-Shape" fill="#DB6448" fill-rule="nonzero"></path>
                <path d="M94.6923325,80.0350943 L55.9243114,80.0350943 L52.6234939,68.8909644 L48.6776136,80.0327978 L9.86881846,80.0327978 L36.185567,12.2343259 L8.74426144,1.6826479 L76.8891954,1.6826479 L70.6121388,16.6968784 L87.1058513,1.68125786 L126.449742,1.68125786 L197.42268,1.6826479 L185.375415,32.7195265 L148.545343,32.7174843 L152.040633,23.5636726 L149.703969,23.5633962 L135.301674,61.1338365 L137.574202,61.1350114 L142.24863,49.5145912 L178.855331,49.5169524 L167.010309,80.0327978 L94.6914075,80.0327978 Z M92.4422047,74.44827 L102.858713,47.5297713 L85.040623,38.9267925 L106.187596,38.9272225 L117.824495,8.85497276 L79.022028,41.1274199 L92.4422047,74.44827 Z" id="Combined-Shape" fill="#03204D"></path>
                <path d="M25.3092784,4.33207547 C26.3402062,4.28050314 27.3195876,4.22893082 28.3505155,4.22893082 C42.2164948,4.28050314 56.1340206,4.17735849 70,4.28050314 C70.8907609,4.33207547 60.3092784,8.81886792 55.257732,10.881761 C46.9072165,33.2125786 38.556701,55.1308176 30.1546392,77.4100629 C25.7731959,77.4100629 20.8247423,77.4100629 16.443299,77.4100629 C25.257732,55.027673 34.0721649,32.645283 42.8350515,10.2628931 C37.0103093,8.40628931 31.2371134,6.13710692 25.3092784,4.33207547 Z" id="Shape" fill="#FEFFFE" fill-rule="nonzero"></path>
                <path d="M70,4.22893082 L70.257732,4.22893082 C66.9072165,13.0993711 63.4020619,21.918239 60.0515464,30.7886792 C58.1443299,35.9974843 56.0309278,41.1031447 54.0206186,46.2603774 C53.4020619,48.1685535 52.1649485,49.509434 52.9381443,51.6238994 C52.7835052,51.1597484 52.628866,50.7471698 52.4742268,50.2830189 C48.6597938,59.2050314 45.3092784,68.3849057 41.6494845,77.3584906 C37.628866,77.3584906 33.6597938,77.3584906 29.6391753,77.3584906 C38.0412371,55.0792453 46.3917526,32.645283 54.742268,10.3144654 C59.7938144,8.25157233 64.9484536,6.2918239 70,4.22893082 Z" id="Shape" fill="#A0A1A3" fill-rule="nonzero"></path>
                <path d="M90.6701031,4.22893082 C95.6701031,4.17735849 101.185567,4.22893082 106.185567,4.22893082 C91.7010309,16.2968553 77.3195876,28.6226415 62.8865979,40.7937107 C67.371134,52.9647799 71.8041237,65.1874214 76.1340206,77.4100629 C71.5463918,77.3069182 66.3917526,77.5647799 61.8556701,77.2553459 C58.9690722,68.6943396 55.9278351,60.1849057 52.9381443,51.6238994 C52.1649485,49.509434 53.3505155,48.2201258 54.0206186,46.2603774 C55.9793814,41.1031447 58.0927835,35.9974843 60.0515464,30.7886792 C69.6391753,22.1245283 79.5360825,13.718239 89.1752577,5.05408805 C89.6391753,4.69308176 90,4.22893082 90.6701031,4.22893082 Z" id="Shape" fill="#FEFFFE" fill-rule="nonzero"></path>
                <path d="M105.670103,4.22893082 C109.43299,4.22893082 113.247423,4.22893082 117.010309,4.22893082 C115.412371,5.7245283 113.71134,7.06540881 112.061856,8.40628931 C98.9690722,19.1849057 85.8762887,29.963522 72.7319588,40.7937107 C77.8865979,53.0679245 83.4536082,65.1358491 88.6082474,77.4100629 C84.2783505,77.4100629 79.9484536,77.4100629 75.6185567,77.4100629 C71.2886598,65.1874214 66.8041237,52.9647799 62.371134,40.7937107 C76.8041237,28.6226415 91.185567,16.2968553 105.670103,4.22893082 Z" id="Shape" fill="#A0A2A3" fill-rule="nonzero"></path>
                <path d="M125.515464,4.28050314 C126.597938,4.17735849 127.731959,4.22893082 128.865979,4.22893082 C149.536082,4.28050314 170.154639,4.17735849 190.824742,4.28050314 C186.958763,6.2918239 182.938144,8.04528302 179.072165,10.0566038 C177.835052,10.6754717 176.804124,11.3974843 175.309278,11.3459119 C161.421754,11.7069182 149.329897,11.6553459 136.082474,11.7069182 C128.298969,31.2528302 120.412371,50.3345912 112.628866,69.8805031 C112.113402,71.8918239 109.845361,71.9433962 108.298969,72.7685535 C104.793814,74.3157233 101.89876,75.6854118 97.7835052,77.3069182 C97.5773196,77.3069182 96.8556701,77.3069182 96.6494845,77.2553459 C100.773196,67.3018868 104.536082,57.245283 108.556701,47.2918239 C103.762887,44.9194969 98.7628866,43.0113208 93.8659794,40.8968553 C99.5876289,40.7937107 105.360825,40.845283 111.082474,40.845283 C115.876289,28.7257862 120.618557,16.3484277 125.515464,4.28050314 Z" id="Shape" fill="#FEFEFE" fill-rule="nonzero"></path>
                <path d="M190.824742,4.28050314 C187.628866,12.6867925 184.278351,21.1446541 180.927835,29.6025157 C177.216495,29.6540881 169.684681,29.6025157 165.973341,29.6025157 C168.138289,23.4654088 173.041237,18.8038547 175.309278,12.7183201 C169.587629,15.6579427 165.154639,17.1220126 159.43299,20.0100629 C154.484536,19.8037736 149.484536,19.9584906 144.484536,19.9069182 C138.71134,34.9144654 132.340025,51.2908449 126.618375,66.298392 C121.669922,68.2581405 123.10572,67.8691824 118.157267,69.8805031 C131.25005,69.9320755 138.041589,69.9320755 151.134373,69.8805031 C152.835404,65.6 154.224388,61.8435805 156.028512,57.5630773 C160.77078,56.0159075 169.742268,52.2995774 171.185567,53.1194969 C167.989691,61.2163522 164.639175,69.3647799 161.391753,77.4616352 C142.835052,77.4616352 124.278351,77.4616352 105.721649,77.4616352 C102.886598,77.4616352 100.103093,77.5132075 97.2680412,77.3069182 C100.618557,75.4503145 104.278351,74.3157233 107.783505,72.7685535 C109.381443,71.9433962 111.649485,71.8918239 112.113402,69.8805031 C119.896907,50.3345912 127.835052,30.7371069 135.56701,11.191195 C148.814433,11.1396226 162.061856,11.2427673 175.309278,11.3459119 C176.804124,11.3974843 177.835052,10.6754717 179.072165,10.0566038 C182.938144,8.04528302 186.907216,6.24025157 190.824742,4.28050314 Z" id="Shape" fill="#A0A1A3" fill-rule="nonzero"></path>
                <path d="M176.597938,11.3974843 C174.381443,17.4830189 171.804124,23.4654088 169.639175,29.5509434 C165,29.5509434 160.360825,29.5509434 155.721649,29.5509434 C157.010309,26.3534591 158.041237,23.1044025 159.278351,19.9069182 C165.103093,17.0704403 170.876289,14.3371069 176.597938,11.3974843 Z" id="Shape" fill="#FEFFFE" fill-rule="nonzero"></path>
                <path d="M146.752577,52.8100629 C154.742268,52.8100629 162.783505,52.7584906 170.773196,52.8616352 C170.876289,52.9647799 171.030928,53.0679245 171.134021,53.1710692 C166.237113,54.2025157 161.701031,56.6264151 156.958763,58.1220126 C155.154639,62.4025157 153.350515,66.6314465 151.649485,70.963522 C138.556701,71.0150943 125.463918,71.0150943 112.42268,70.963522 C117.319588,68.9006289 122.216495,66.8377358 127.164948,64.8779874 C131.85567,64.7232704 136.546392,64.8779874 141.185567,64.7748428 C143.092784,60.8037736 144.742268,56.7295597 146.752577,52.8100629 Z" id="Shape" fill="#FEFEFE" fill-rule="nonzero"></path>
            </g>
        </g>
    </g>
</svg>