<?xml version="1.0" encoding="UTF-8"?>
<svg width="200px" height="200px" viewBox="0 0 200 200" version="1.1" xmlns="http://www.w3.org/2000/svg" xmlns:xlink="http://www.w3.org/1999/xlink">
    <!-- Generator: Sketch 54.1 (76490) - https://sketchapp.com -->
    <title>knox</title>
    <desc>Created with Sketch.</desc>
    <g id="knox" stroke="none" stroke-width="1" fill="none" fill-rule="evenodd">
        <g id="knox_BGL">
            <g id="knox" transform="translate(0.000000, 40.000000)">
                <g id="g10" transform="translate(99.930984, 60.088338) scale(-1, 1) rotate(-180.000000) translate(-99.930984, -60.088338) translate(0.000000, 0.184958)" fill-rule="nonzero">
                    <g id="g12">
                        <path d="M199.83878,107.458382 L184.681017,107.458382 C184.060175,113.332778 180.586055,118.389783 180.586055,118.389783 C179.170182,115.656312 177.55003,113.164939 175.913591,110.962316 C174.278533,108.761074 171.704067,107.459763 168.962315,107.458382 L146.287919,107.458382 C150.008278,110.147409 155.689713,112.701446 160.622494,113.49068 C160.622494,113.49068 141.301308,122.141336 119.453137,114.901308 C99.0282929,108.133331 104.712765,115.050377 107.70048,116.944096 C98.9405082,116.200687 89.169632,113.463351 80.1783279,110.669424 C72.3166304,108.226912 66.0380936,107.734435 61.6422345,107.462247 C66.9910266,112.730156 68.0861267,119.578465 68.0861267,119.578465 C68.0861267,119.578465 64.4811578,115.125739 53.6676315,111.227879 C54.5432699,113.539818 55.2121449,118.397237 55.2121449,118.397237 C55.2121449,118.397237 54.5131801,117.588403 53.1500332,116.374876 C46.6478939,110.586885 38.2034497,107.459763 29.498688,107.458382 L0,107.458382 L19.6804964,86.2931655 L9.01440971,86.2939937 L9.01440971,66.6335387 L11.9719528,64.3094532 L11.9719528,48.722152 L9.01440971,46.4237394 L9.01440971,26.7599441 L18.0928636,27.8434776 C20.1156931,28.0852995 22.1397372,28.314423 24.1643886,28.5349889 L24.1643886,7.03718409 C45.8233253,9.3670115 67.9238078,10.6917596 89.6797769,11.0173082 L89.6728756,11.0199859 L99.9193902,0.000323500337 L110.168941,11.0228017 C132.040576,10.706418 153.900617,9.37943386 175.67453,7.03718409 L175.67453,28.5587294 C177.699927,28.3359551 179.724495,28.1051753 181.748512,27.8641815 L190.824564,26.7823596 L190.824564,46.4237394 L180.64237,56.5383009 L190.824564,66.6335387 L190.824564,86.2763263 L180.144095,86.2771545 L199.83878,107.458382" id="path14" fill="#532884"></path>
                        <path d="M95.6742557,78.9424411 L84.1562436,78.9424411 L84.1551394,77.5533452 L84.1515507,72.7930969 L84.1509986,71.9986179 L84.8356086,71.5947532 C85.5599703,71.167424 86.2846079,70.740647 87.0089695,70.3138699 L87.0040006,62.1106955 C86.8013781,62.4077279 86.5987556,62.7053124 86.3964092,63.0026209 C82.4176653,68.8447188 79.1254639,73.7137318 76.0353328,78.326016 L75.6223584,78.9424411 L74.8803294,78.9424411 L72.3058643,78.9424411 L68.2462371,78.9424411 L64.1866099,78.9424411 L60.8750847,78.9424411 L59.4870931,78.9424411 L59.4848846,77.5544494 L59.4818481,75.7327793 L59.4768791,72.6103502 L59.4754989,71.7774999 L60.2089702,71.383297 C61.0150433,70.9501708 61.8208404,70.5187008 62.6266375,70.088335 L62.6423725,67.1348499 L62.6495498,65.7879901 L62.7160785,53.2927523 L62.7425795,48.3362307 C62.5211855,48.2051058 62.3000675,48.0734287 62.0783973,47.9417517 L61.5853677,47.648584 L61.0884733,47.3545882 C60.8052435,47.1870244 60.5220137,47.0197366 60.2387839,46.8502404 L59.5632835,46.4463757 L59.5619033,45.6590741 L59.5577625,43.1447884 L59.555002,41.4743951 L59.5536217,40.6432012 L59.5511372,39.1657685 L61.0260854,39.2521729 C61.1489288,39.2593503 61.2717721,39.2656995 61.3946154,39.2717727 L61.7601089,39.2916484 C66.7387147,39.5809514 71.6742563,39.8139397 76.4298118,39.9837119 L77.7689422,40.031745 L77.7703224,41.3717036 L77.773359,43.8619727 L77.7761195,46.2139395 L77.7772237,47.0785357 L77.0020685,47.4616965 L75.8840561,48.0143535 L75.2797773,48.3127662 L74.8016544,48.5493432 L74.5305709,48.6832286 L74.5394046,55.5591428 L74.5438215,58.8933043 C77.652448,54.338715 80.6241526,50.0207027 82.9984796,46.5755682 C84.3039316,44.6818484 85.6093836,42.7892329 86.9156638,40.8968934 L87.3394043,40.2832288 L88.085022,40.2967554 C91.217389,40.352794 94.3944766,40.3870245 97.5276718,40.3980666 L98.9126269,40.4030356 L98.912903,41.7885428 L98.9134551,44.5175972 L98.9137311,47.5500333 L98.9145593,54.9719793 L98.9156635,61.9301572 L98.9167677,70.2075897 L101.380536,71.5718409 L102.092475,71.9654916 L102.09772,72.7790182 L102.117044,75.6852983 L102.12919,77.5431313 L102.1383,78.9424411 L100.73899,78.9424411 L95.6742557,78.9424411" id="path16" fill="#F5A00F"></path>
                        <path d="M124.406622,50.2881975 L124.210625,50.10131 C122.241543,50.1603852 120.249824,50.2128352 118.274669,50.2578317 L117.865007,50.6136633 L117.857002,59.5354022 L117.852861,63.8205643 L117.848996,68.4858506 L118.155691,68.7392667 C120.162592,68.7273965 122.169217,68.7138699 124.176118,68.6981349 L124.383158,68.5076587 L124.38509,66.8212544 L124.386746,65.6737044 L124.396684,57.8683215 L124.406622,50.2881975 Z M138.289576,46.3411997 L138.288747,47.0081424 L138.271356,57.828846 L138.253965,68.6495497 L138.249548,71.3192529 L138.24872,71.9591424 L137.761487,72.3748774 C135.290266,74.4830899 132.801377,76.583849 130.36411,78.6194597 L129.976808,78.9424411 L129.472737,78.9424411 L124.821253,78.9424411 L119.918562,78.9424411 L115.01587,78.9424411 L114.123117,78.9424411 L113.230639,78.9424411 L112.757761,78.9424411 L112.383158,78.6542423 C109.783848,76.6553466 107.183434,74.6619719 104.581916,72.6735662 L104.035608,72.2561749 L104.035884,71.5685282 L104.036988,67.6060715 L104.038921,62.4055195 L104.040577,57.5516894 L104.043614,47.8445813 L104.04389,47.2013791 L104.534159,46.785092 L104.73761,46.611455 L104.910694,46.464043 C107.411177,44.3395434 109.648859,42.4240155 111.752378,40.6073144 L112.13195,40.2796401 L112.633262,40.2697022 C118.216422,40.1573489 123.877706,39.9710135 129.460866,39.7151129 L129.982605,39.6913724 L130.390887,40.0168382 C132.629396,41.800413 134.898271,43.6168381 137.134848,45.4144916 L137.435745,45.6552093 L137.770045,45.9227042 L138.289576,46.3411997 L138.289576,46.3411997 Z" id="path18" fill="#F5A00F"></path>
                        <path d="M183.026911,70.909591 L183.604964,71.3258781 L183.604964,78.9427171 L182.214764,78.9424411 L178.053826,78.9427171 L172.805241,78.9424411 L171.930154,78.9424411 L170.547132,78.9424411 L167.781362,78.9424411 L165.102273,78.9424411 L163.710141,78.9424411 L163.712073,77.5503086 L163.719251,71.8376794 L163.720355,71.0534144 L164.391714,70.6484454 L164.942991,70.3138699 L165.342439,70.0712198 L165.462798,69.9983419 C164.277153,68.8651467 163.067491,67.7189769 161.846511,66.571703 L161.795165,66.6222206 C160.530017,67.8757747 159.344924,69.040716 158.206207,70.1496187 C158.544648,70.3384385 158.883364,70.5275345 159.22208,70.7171825 L159.934848,71.1158022 L159.933467,71.9323654 L159.92629,76.6393356 L159.925462,77.0962024 L159.92491,77.5547255 L159.922425,78.9424411 L158.534434,78.9424411 L154.380949,78.9424411 L149.40814,78.9424411 L144.435331,78.9424411 L141.422495,78.9424411 L140.029534,78.9427171 L140.032019,77.5497565 L140.0403,72.556796 L140.04168,71.8191838 L140.653137,71.4064854 C141.49206,70.8405779 142.330983,70.2708057 143.169907,69.6993771 L143.363696,69.5677001 L143.455345,69.5055883 C146.917319,65.8208403 150.311383,62.1280868 153.550307,58.5225658 C150.393647,55.2615583 147.106138,51.9235322 143.535124,48.353898 L142.4207,47.6690119 L141.978464,47.3976524 L141.911936,47.3565206 L141.852032,47.3200816 L141.394337,47.0385081 L140.749479,46.6423729 L140.084192,46.2349195 L140.085297,45.4550713 L140.086125,44.8913722 L140.08999,42.6771556 L140.093578,40.4670797 L140.095511,39.1646643 L141.395442,39.0818486 C147.063074,38.7218762 152.806621,38.2815725 158.467629,37.773636 L159.984537,37.6372661 L159.982329,39.1605235 L159.978188,41.9693571 L159.973771,44.7776386 L159.972667,45.5301576 L159.341611,45.9406476 L159.256863,45.995582 L159.190886,46.037818 C158.870113,46.2456855 158.549064,46.453277 158.228567,46.6600402 C159.428843,47.7264308 160.615041,48.7873004 161.774737,49.8316068 C163.017249,48.5471347 164.253964,47.2546572 165.471631,45.9679768 C165.153619,45.8070382 164.835607,45.6460996 164.517042,45.4857131 L163.753205,45.1003439 L163.753205,44.2443053 L163.753205,44.216424 L163.756518,41.3747402 L163.760106,38.5347126 L163.761487,37.2778459 L165.01228,37.1530702 C165.84237,37.0699784 166.672184,36.9799853 167.501997,36.8894401 C167.971286,36.8386464 168.440575,36.7875767 168.910141,36.7378873 C173.794337,36.220565 178.08916,35.7264311 182.040575,35.2273283 L183.604964,35.0296748 L183.604964,36.6064863 L183.604964,42.1134565 L183.604964,42.7569347 L183.114143,43.1734979 C182.177221,43.9685289 181.227877,44.7660444 180.291231,45.5453405 C177.026635,49.6187703 173.604136,53.7496191 170.105172,57.8398881 C173.582328,61.5458922 176.980534,65.2637665 180.220561,68.9062785 C181.156103,69.5685283 182.091093,70.2362991 183.026911,70.909591" id="path20" fill="#F5A00F"></path>
                        <path d="M38.0803303,78.9424411 L36.6917865,78.9424411 L36.6901302,77.5541734 L36.689026,76.7323652 L36.6887499,76.6456848 L36.6826768,72.3221514 L36.6818486,71.709591 L37.1334704,71.2955124 C37.4017934,71.0495496 37.6701164,70.803863 37.9384394,70.5587284 C37.4498265,70.1244979 36.9609377,69.688059 36.4723248,69.251344 L35.9279494,68.7652157 C34.4273283,67.4258092 33.0912345,66.2227727 31.8534154,65.0956505 L31.8539675,65.6441668 L31.8578322,69.6002743 C32.4712207,69.9831591 33.0846092,70.3632833 33.6979978,70.7431314 L33.95169,70.9007574 L34.2332635,71.0763267 L34.8927528,71.482952 L34.8935809,72.2578312 L34.8944091,72.9802604 L34.8996541,77.5505847 L34.9013104,78.9424411 L33.509454,78.9424411 L27.7545887,78.9424411 L17.6588263,78.9424411 L16.2685434,78.9424411 L16.2685434,77.552241 L16.2685434,72.0151811 L16.2685434,71.2532763 L16.9110279,70.8430624 C17.6712487,70.3580383 18.4313591,69.8763268 19.1914695,69.3976518 L19.1894267,61.5665961 L19.1848995,45.0208408 C18.3637539,44.3345745 17.5495924,43.6483081 16.7583157,42.9752922 L16.2685434,42.5590051 L16.2685434,41.916079 L16.2685434,36.6202889 L16.2685434,35.0432013 L17.8330982,35.2408549 C21.8895509,35.7532082 26.1845404,36.2481702 30.9634223,36.7541744 C31.3327804,36.7933738 31.7021386,36.8339535 32.0712207,36.8748093 C32.5824699,36.9308479 33.0934429,36.9871626 33.6046921,37.0390605 L34.8527251,37.1660446 L34.8541054,38.420703 L34.8601786,43.4835048 L34.8610067,44.2766034 L34.1788811,44.6812963 L33.6974457,44.9681148 L33.3164933,45.195582 L33.135679,45.3032425 C32.7017245,45.5610755 32.2680461,45.8191845 31.8343677,46.0783977 L31.8376804,49.4360236 L31.8434775,51.0741188 C33.9403718,49.5058649 36.0864035,47.922152 38.3271212,46.2895779 C38.0176664,46.116769 37.7082116,45.943132 37.3982047,45.769219 L37.3551405,45.7452024 L36.6454097,45.3476869 L36.6445816,44.5344364 L36.6404408,41.7035186 L36.636576,38.8728769 L36.6343676,37.3424421 L38.157901,37.4865415 C43.8804682,38.0287085 49.6913721,38.5021384 55.4299503,38.8935808 L56.723256,38.9819176 L56.7257405,40.2782599 L56.7298813,42.7861963 L56.734022,45.2938567 L56.7356784,46.2034495 L55.9028281,46.569219 L55.0893016,46.9275351 L54.5421656,47.1685288 L54.0549331,47.3827455 L52.5256026,48.0565896 C48.1692189,51.6610063 44.1921314,55.017804 40.4135256,58.2793636 C41.2726008,59.0901296 42.1918554,59.9514133 43.1955821,60.8858508 C46.0806062,63.571565 49.1254646,66.3447879 52.2459614,69.1282246 L52.5358165,69.38799 L52.7398192,69.5707367 C53.8351953,70.1429934 54.9305714,70.7108333 56.0259475,71.2753605 L56.7781904,71.6629382 L56.7792946,72.5090389 L56.7848157,75.794339 L56.7878523,77.5497565 L56.7903367,78.9424411 L55.3976522,78.9424411 L38.0803303,78.9424411" id="path22" fill="#F5A00F"></path>
                        <path d="M21.9220146,99.5365054 C21.9220146,99.5365054 22.0959212,99.5458388 22.4220146,99.5805054 C22.2548214,99.5658388 22.0878257,99.5511721 21.9220146,99.5365054" id="path24" fill="#F5A00F"></path>
                        <path d="M88.3942007,62.0303642 C88.3930965,60.5719792 88.3925444,59.1138702 88.3914402,57.6557612 C88.3809502,57.6557612 88.3701841,57.6557612 88.3596941,57.6554851 C87.322013,59.1754299 86.2846079,60.6970309 85.2472028,62.2200122 C81.7890939,67.2979969 78.3334694,72.3977898 74.8803294,77.552241 C74.0223584,77.552241 73.1638353,77.552241 72.3058643,77.552241 C69.5991701,77.552241 66.8933041,77.552241 64.1866099,77.552241 C63.0826761,77.552241 61.9790185,77.552241 60.8750847,77.552241 C60.8726003,75.9055882 60.8698397,74.2545185 60.8670792,72.6078657 C61.9155264,72.0444426 62.9639736,71.4835041 64.0124208,70.9247739 C64.0215305,69.214629 64.0306402,67.5053123 64.03975,65.7951674 C64.0723241,59.7112476 64.1046223,53.6273279 64.1371965,47.5453404 C63.5232558,47.1839878 62.9093152,46.8176662 62.2950985,46.453277 C61.8473414,46.1874385 61.3998604,45.9246365 60.9523794,45.6568657 C60.949895,44.2616966 60.9476865,42.8670797 60.9454781,41.4719106 C60.944926,41.194754 60.9443739,40.9173213 60.9440979,40.6401646 C61.1892324,40.6545193 61.434367,40.6650093 61.6795016,40.6793641 C66.5777761,40.9642502 71.4782591,41.1980666 76.3801223,41.3733599 C76.3820547,42.9874385 76.383987,44.6015172 76.3859194,46.2155958 C75.8117303,46.4993777 75.2378173,46.7828836 74.6639043,47.0666655 C74.1556917,47.3175972 73.6472031,47.5688049 73.1392666,47.8200126 C73.1458919,52.9802609 73.1525171,58.1407853 73.1591424,63.3013097 C73.1806745,63.3015857 73.2019305,63.3021378 73.2234626,63.3024139 C76.8604536,57.9489288 80.500205,52.6503783 84.1429931,47.3648021 C85.448169,45.4710824 86.7538971,43.5787429 88.0599012,41.6866794 C91.2140764,41.7432702 94.3682516,41.7772246 97.5227029,41.7885428 C97.5229789,43.7093157 97.523255,45.6298125 97.523531,47.5503094 C97.5240831,52.343684 97.5246352,57.1370586 97.5251873,61.9301572 C97.5254634,64.9625933 97.5260155,67.9950294 97.5262916,71.0271894 C98.586885,71.614629 99.6474785,72.2015165 100.70752,72.7881279 C100.71801,74.3748774 100.7285,75.9654915 100.73899,77.552241 C99.0506531,77.552241 97.3623164,77.552241 95.6742557,77.552241 C92.2978583,77.552241 88.922013,77.552241 85.5456155,77.552241 C85.5442353,75.9668718 85.542855,74.3776379 85.5417508,72.7922687 C86.4944078,72.230502 87.4470648,71.6692874 88.3997217,71.1086249 C88.3977894,68.082538 88.3961331,65.0564511 88.3942007,62.0303642" id="path26" fill="#FFFFFF"></path>
                        <path d="M124.749755,48.6939946 C122.4138,48.7657683 120.077844,48.827604 117.741612,48.8792258 C117.319528,49.2466516 116.897168,49.6132493 116.475359,49.9795709 C116.470943,54.5926832 116.467078,59.2060717 116.462661,63.819184 C116.461005,65.592821 116.459348,67.366734 116.457968,69.140647 C116.858796,69.4710818 117.259072,69.8017926 117.659624,70.1325034 C120.014076,70.1189769 122.368527,70.1029658 124.722978,70.0841942 C125.073013,69.7625931 125.422771,69.440716 125.772806,69.1185628 C125.774186,67.9710128 125.775566,66.8231867 125.776946,65.6756367 C125.783848,60.3481006 125.790749,55.0208406 125.797926,49.6933045 C125.448444,49.3601092 125.098962,49.0269139 124.749755,48.6939946 L124.749755,48.6939946 Z M136.859348,71.3170445 C134.396684,73.4180796 131.934572,75.4964784 129.472737,77.552241 C127.922702,77.552241 126.371563,77.552241 124.821253,77.552241 C121.552792,77.552241 118.284607,77.552241 115.01587,77.552241 C114.420701,77.552241 113.825808,77.552241 113.230639,77.552241 C110.630225,75.5525171 108.028431,73.5580382 105.426084,71.5688043 C105.427189,68.5145601 105.428017,65.4603158 105.429121,62.4060716 C105.430777,57.5522415 105.432434,52.6986874 105.433814,47.8448573 C105.55997,47.738025 105.68585,47.6300885 105.81173,47.5229802 C108.094407,45.5837118 110.377361,43.6317449 112.661143,41.6596263 C118.284055,41.5467208 123.905035,41.3614896 129.524634,41.1039327 C131.771701,42.894961 134.01794,44.6926145 136.263903,46.4979975 C136.475083,46.6680458 136.686815,46.8358856 136.897995,47.005934 C136.886677,54.2197364 136.875083,61.4335388 136.863489,68.6473413 C136.862384,69.5373344 136.860728,70.4270514 136.859348,71.3170445 L136.859348,71.3170445 Z" id="path28" fill="#FFFFFF"></path>
                        <path d="M171.930154,77.552241 C170.547132,77.552241 169.164385,77.552241 167.781362,77.552241 C166.888333,77.552241 165.995579,77.552241 165.102273,77.552241 C165.104758,75.6496875 165.107242,73.7418891 165.109727,71.8390596 C165.427187,71.6474792 165.744923,71.4528623 166.062936,71.2601777 C166.619181,70.9233937 167.174875,70.5874378 167.731121,70.2473412 C165.760934,68.3516891 163.790748,66.4844704 161.821114,64.6420964 C161.486538,64.9755677 161.151687,65.3029659 160.816835,65.6345049 C159.176256,67.2599017 157.5354,68.8695635 155.894268,70.4560369 C156.777084,70.9446497 157.659899,71.4360231 158.543267,71.9301569 C158.540783,73.4978588 158.538298,75.0685972 158.53609,76.6371271 C158.535538,76.9421651 158.534986,77.2474791 158.534434,77.552241 C157.150031,77.552241 155.765352,77.552241 154.380949,77.552241 C151.065835,77.552241 147.750445,77.552241 144.435331,77.552241 C143.430776,77.552241 142.426774,77.552241 141.422495,77.552241 C141.425255,75.8893011 141.428016,74.2222204 141.4305,72.5592804 C142.271356,71.9922687 143.11166,71.4211162 143.952515,70.8485835 C144.089437,70.7552777 144.226359,70.6630762 144.363557,70.5694944 C147.847615,66.8629383 151.331397,63.0777072 154.813523,59.1966859 C155.025807,58.9598329 155.238367,58.7262925 155.450652,58.4888874 C151.768664,54.6716342 148.086677,50.9366447 144.402481,47.2549333 C143.837125,46.9068311 143.271494,46.5601093 142.706139,46.2128353 C142.663627,46.1868864 142.621667,46.1609374 142.579707,46.1352645 C142.211453,45.9091776 141.843475,45.6825385 141.475497,45.4570037 C141.475773,45.269288 141.476049,45.0818484 141.476325,44.8941328 C141.478809,43.4194606 141.481294,41.9445124 141.483778,40.4692882 C147.190611,40.1068313 152.893854,39.6698403 158.591852,39.1583151 C158.589092,41.0305028 158.586607,42.9029665 158.583571,44.7754302 C158.533605,44.8077283 158.48364,44.8394744 158.433674,44.8717725 C157.59972,45.4122832 156.765766,45.9497573 155.931535,46.4819864 C157.900893,48.2230492 159.869699,49.9817793 161.838781,51.7620415 C163.812832,49.73278 165.786055,47.6698401 167.757898,45.5696331 C166.8864,45.1257408 166.014903,44.6840569 165.143405,44.2443053 C165.143405,44.2351956 165.143405,44.2260859 165.143405,44.216424 C165.145614,42.3232564 165.148098,40.4298127 165.150306,38.5360929 C166.452998,38.4063482 167.754585,38.2581081 169.056725,38.1203579 C173.445958,37.6554856 177.832984,37.1599715 182.214764,36.6064863 C182.214764,38.441959 182.214764,40.2779838 182.214764,42.1134565 C181.241403,42.9391294 180.268318,43.7565206 179.294405,44.5661825 C175.614074,49.1607993 171.92767,53.5897847 168.237401,57.8826763 C171.918836,61.7901986 175.601376,65.8026209 179.287228,69.9492046 C180.263073,70.6393357 181.238643,71.335816 182.214764,72.0380934 C182.214764,73.8741182 182.214764,75.7159401 182.214764,77.552241 C180.827601,77.552241 179.440713,77.552241 178.053826,77.552241 C176.012418,77.552241 173.971286,77.552241 171.930154,77.552241" id="path30" fill="#FFFFFF"></path>
                        <path d="M36.8538293,67.7280866 C34.73071,65.8332627 32.6084188,63.9182869 30.4872318,61.955554 C30.4781221,61.9550019 30.4690124,61.9547258 30.4599026,61.9541737 C30.4623871,64.7596947 30.4654237,67.5652157 30.4681842,70.3707367 C31.3010344,70.893304 32.1336086,71.4097981 32.9664588,71.925188 C33.1453408,72.035885 33.3242228,72.1487905 33.5033808,72.2594875 C33.5053132,74.0273273 33.5075216,75.7844011 33.509454,77.552241 C31.5911655,77.552241 29.6728771,77.552241 27.7545887,77.552241 C24.3895646,77.552241 21.0242093,77.552241 17.6588263,77.552241 C17.6588263,75.7029657 17.6588263,73.8644564 17.6588263,72.0151811 C18.6333191,71.3932349 19.6078118,70.7768098 20.5818628,70.1656297 C20.5795992,61.5668722 20.5773356,52.9686667 20.5750719,44.3701852 C19.6027324,43.5602474 18.6305309,42.74258 17.6588263,41.916079 C17.6588263,40.1509997 17.6588263,38.3853683 17.6588263,36.6202889 C22.0406344,37.1737741 26.4276046,37.6717727 30.8171145,38.136645 C31.6993781,38.2302268 32.5810896,38.3326422 33.4639053,38.4223593 C33.4658377,40.1098679 33.46777,41.7976525 33.4699785,43.4851611 C33.1817797,43.6560376 32.893857,43.8293985 32.6056583,44.000551 C31.8848853,44.4295365 31.1638363,44.8582459 30.4433395,45.2905441 C30.4447197,46.6730147 30.4458239,48.0552093 30.4472042,49.4374039 C30.4524492,50.9043466 30.4576942,52.3710132 30.4629392,53.8379559 C30.4681842,53.8382319 30.4737052,53.838508 30.4792263,53.838784 C33.9561068,51.2126971 37.4324352,48.6501023 40.9093157,46.1327801 C39.9657685,45.6124212 39.0227734,45.0870934 38.0792261,44.5573488 C38.0645953,44.5490672 38.0496885,44.5405096 38.0347817,44.5325041 C38.0320211,42.6451335 38.0295367,40.758039 38.0267761,38.8706685 C43.7913033,39.4172523 49.5613514,39.8870936 55.3352643,40.2807443 C55.3383009,41.9525179 55.3407854,43.6245676 55.3438219,45.2963412 C54.8897157,45.495651 54.4358855,45.6963412 53.9820552,45.8959271 C53.2507923,46.2178042 52.5195294,46.5391293 51.7882665,46.8621106 C47.3048987,50.5703231 42.8237394,54.3458924 38.3425801,58.2329868 C39.6444435,59.4702539 40.9463068,60.6912338 42.2484461,61.9036561 C45.2714965,64.7180108 48.295927,67.4677692 51.3206336,70.1656297 C51.527673,70.3505849 51.7347123,70.5383005 51.9417516,70.7224275 C53.090958,71.3231176 54.2401643,71.9191148 55.3890945,72.5112473 C55.3918551,74.1951672 55.3948916,75.8683211 55.3976522,77.552241 C49.6251195,77.552241 43.8525869,77.552241 38.0803303,77.552241 C38.0797782,77.2488594 38.0795022,76.946858 38.07895,76.6440284 C38.0770177,75.2022065 38.0750853,73.7645254 38.0728769,72.320219 C38.7221522,71.72505 39.3711515,71.1326414 40.0204269,70.5429934 C38.9645263,69.6160093 37.9091778,68.6699776 36.8538293,67.7280866" id="path32" fill="#FFFFFF"></path>
                        <path d="M177.778049,99.8531376 C179.392404,101.91663 180.435882,104.709728 180.238229,108.285159 C180.205102,108.900756 180.136365,109.535953 180.024012,110.195718 C175.08709,100.232158 165.432984,94.8781205 163.717042,93.986195 L163.463074,93.8572785 L163.452032,93.8517575 C163.465282,93.8528617 163.477705,93.8547941 163.490679,93.8558983 C164.240714,93.8768783 175.967974,93.4851598 181.137056,101.135677 C180.019319,100.69703 178.89965,100.269701 177.778049,99.8531376" id="path34" fill="#F5A00F"></path>
                        <path d="M154.252308,93.1660432 C156.036987,94.7279479 158.057967,96.8861259 158.827601,99.165491 C158.82346,99.1624544 158.777084,99.1301563 158.696752,99.0749458 C158.001376,98.597099 154.66059,96.3315366 152.379016,95.2817091 C152.280742,95.2367126 152.183847,95.1930963 152.090265,95.1527927 C138.509589,88.4899909 126.53195,90.9297424 130.045545,98.9592798 C133.906967,107.783572 143.839058,111.915525 145.050376,112.320218 C145.089575,112.335677 145.129879,112.354725 145.169078,112.369907 C145.169078,112.369907 145.001515,112.456864 144.651756,112.575567 C144.401653,112.660591 144.055207,112.761902 143.61021,112.860177 C143.396822,112.870115 143.186194,112.873427 142.974462,112.878948 C143.18509,112.873427 143.394889,112.870115 143.606898,112.860177 C143.607174,112.860177 143.60745,112.860729 143.607174,112.861005 C140.603447,113.521874 133.01725,114.027878 118.763558,108.298962 C117.103655,107.631743 115.363972,106.889714 113.519942,106.043614 C99.1301563,99.4412674 95.8144904,105.434918 98.402482,108.291785 C98.4714951,108.367975 98.5421645,108.443338 98.6194592,108.514559 C97.9900597,108.531122 97.2358844,108.431191 96.3660431,108.291233 C83.1701843,106.168941 66.5134559,96.3160776 47.248584,90.6263607 C47.248584,90.6260847 47.248584,90.6260847 47.248584,90.6255326 C47.1097297,90.5835726 46.9708753,90.5410605 46.8309167,90.5004808 C50.1562444,92.606761 53.0898537,96.0988244 53.0898537,96.0988244 C44.2327111,90.4256706 29.951138,87.7777756 29.951138,87.7777756 C29.951138,87.7777756 51.7261547,87.1839868 71.4401638,90.4897148 C78.8781209,91.7371958 86.0229102,93.5395422 91.5939246,96.1382999 C91.5939246,96.1382999 88.9336072,93.9193903 85.5781897,91.7374718 C83.5906121,90.4452703 81.3598323,89.1660433 79.2927516,88.3688039 C79.2927516,88.3688039 99.5215986,89.1550012 117.252447,96.9783275 C117.252447,96.9783275 117.24665,96.9725304 117.237816,96.9645248 C117.219321,96.9476856 117.180949,96.912627 117.125187,96.8632136 C116.234366,96.0731515 110.585781,91.2731516 100.925049,87.6452704 C100.449687,87.4666645 99.9641107,87.2913712 99.4694247,87.1191145 C97.2057947,86.3312608 94.7417506,85.6168371 92.0830895,85.0332622 C92.5297423,85.0931656 96.8905428,85.3918543 102.976671,85.7788798 C110.717181,86.2710813 121.24527,86.906002 130.053827,87.3739109 C132.337885,87.4950979 134.50048,87.6234623 136.462384,87.7267059 C154.343681,88.6677687 170.764661,87.2262228 170.764661,87.2262228 C166.699237,88.7298805 158.228291,89.9964091 151.084882,90.7431309 C151.084882,90.7431309 152.562867,91.6872303 154.252308,93.1660432" id="path36" fill="#F5A00F"></path>
                        <path d="M21.9220146,99.5365054 C29.0906825,98.6561742 35.2532772,97.5240831 42.1134565,99.5061397 C44.195444,100.107382 46.1308477,100.782882 47.8211168,101.707934 C51.212145,103.563835 53.7222899,105.97322 55.2251194,107.659901 C56.2953747,108.861281 56.8571414,109.69634 56.8571414,109.69634 C56.0714962,108.936919 55.2160097,108.25645 54.3384389,107.646926 C50.0565895,104.673289 45.2317449,103.429949 45.2317449,103.429949 L47.2264999,107.061143 C40.1722557,102.158728 31.0810206,100.445822 25.9377219,99.8506531 C23.8295922,99.6927511 22.1190333,99.5859188 22.1190333,99.5859188 C22.1880464,99.5734965 22.256397,99.5624544 22.3252996,99.5505841 C22.2805515,99.5486518 22.2390333,99.5469954 22.2016282,99.5456152 C22.0192679,99.5384378 21.9220146,99.5365054 21.9220146,99.5365054" id="path38" fill="#F5A00F"></path>
                        <path d="M173.361762,98.3100044 C178.278256,102.146857 180.024012,110.195718 180.024012,110.195718 C175.08709,100.232158 165.432984,94.8781205 163.717042,93.986195 L163.463074,93.8572785 L163.452032,93.8517575 C163.465282,93.8528617 163.477705,93.8547941 163.490679,93.8558983 C171.967145,94.6371267 176.614488,98.9841245 176.614488,98.9841245 C176.614488,98.9841245 174.741473,98.6310534 173.203032,98.1899216 C173.256034,98.2299492 173.309588,98.2691487 173.361762,98.3100044" id="path40" fill="#F8E506"></path>
                        <path d="M47.2264999,107.061143 C40.1722557,102.158728 31.0810206,100.445822 25.9377219,99.8506531 C23.8295922,99.6927511 22.1190333,99.5859188 22.1190333,99.5859188 C22.1880464,99.5734965 22.256397,99.5624544 22.3252996,99.5505841 C22.2805515,99.5486518 22.2390333,99.5469954 22.2016282,99.5456152 C22.0192679,99.5384378 21.9220146,99.5365054 21.9220146,99.5365054 C21.9220146,99.5365054 22.0864591,99.5373336 22.3818076,99.5409223 C36.988819,97.0227719 46.906279,102.830639 46.906279,102.830639 C43.6016552,101.869977 41.2665276,101.730018 40.1129044,101.738024 C44.1612135,103.591716 47.2264999,107.061143 47.2264999,107.061143" id="path42" fill="#F8E506"></path>
                        <path d="M118.763558,108.298962 C117.103655,107.631743 115.363972,106.889714 113.519942,106.043614 C99.1301563,99.4412674 95.8144904,105.434918 98.402482,108.291785 C98.4714951,108.367975 98.5421645,108.443338 98.6194592,108.514559 C97.9900597,108.531122 97.2358844,108.431191 96.3660431,108.291233 C83.1701843,106.168941 66.5134559,96.3160776 47.248584,90.6263607 C47.248584,90.6260847 47.248584,90.6260847 47.248584,90.6255326 C47.3507235,90.6564505 47.4531389,90.6870923 47.5555544,90.717458 C47.4600402,90.6481689 48.4444432,90.8524477 49.1020002,90.9935105 C70.2702536,95.712351 84.8002739,103.460591 94.2730135,104.691785 C94.2771543,104.692337 94.2815711,104.693165 94.2854359,104.693441 L94.2854359,104.693441 C94.2857119,104.693441 94.285988,104.693717 94.286264,104.693717 C94.2418196,104.652585 94.201792,104.610901 94.1603841,104.569494 C94.1294662,104.538852 94.096616,104.508486 94.0676305,104.477844 C94.0300874,104.438369 93.9975132,104.398341 93.9627306,104.35859 C93.9337451,104.325463 93.9022751,104.292613 93.875498,104.259211 C93.8443041,104.220563 93.817527,104.181916 93.7885415,104.143269 C93.7628686,104.10821 93.7344352,104.073427 93.7104186,104.038369 C93.680881,103.995028 93.6563124,103.951412 93.6300874,103.907796 C93.6115919,103.87743 93.5903358,103.846788 93.5734966,103.816146 C93.548928,103.771978 93.5298803,103.727534 93.5089004,103.683365 C93.4945456,103.653276 93.4777064,103.623462 93.465008,103.593372 C93.4478928,103.55224 93.4357465,103.511385 93.4213917,103.470529 C93.4097975,103.437126 93.3957189,103.404 93.386057,103.370874 C93.3750149,103.332503 93.3689418,103.294407 93.3606602,103.256036 C93.3529307,103.220701 93.3424407,103.184815 93.3371957,103.14948 C93.3302944,103.10614 93.3291902,103.062799 93.3264297,103.019459 C93.3242213,102.989922 93.3192523,102.960108 93.3189763,102.93057 C93.3184242,102.888886 93.3236692,102.847755 93.3267057,102.806623 C93.3289142,102.775705 93.3283621,102.744787 93.3325028,102.714145 C93.3374718,102.677706 93.3479618,102.641819 93.3559673,102.605657 C93.3634207,102.57115 93.3681136,102.536367 93.3783275,102.501861 C93.3882654,102.468734 93.4034483,102.43616 93.4158707,102.40331 C93.4296733,102.366871 93.4407154,102.330156 93.4572785,102.294269 C93.4724614,102.261971 93.4928893,102.230501 93.5105567,102.198755 C93.5301564,102.163144 93.5472716,102.126982 93.5699079,102.092199 C93.591164,102.059901 93.6179411,102.028707 93.6416816,101.996961 C93.6668024,101.963559 93.6891626,101.929328 93.7173199,101.896202 C93.7496181,101.858659 93.7882654,101.822496 93.8247043,101.785505 C93.8501012,101.759832 93.8724614,101.733331 93.9000667,101.707934 C93.938438,101.672323 93.9834345,101.638369 94.0259466,101.603862 C94.0571405,101.578465 94.0850218,101.55224 94.1187002,101.527396 C94.1496181,101.504483 94.1857809,101.482951 94.2186312,101.460315 C94.2697009,101.425532 94.3185622,101.389922 94.3740487,101.356243 C94.4030342,101.338576 94.4367126,101.322013 94.4668023,101.304897 C94.5319507,101.267906 94.5959949,101.230363 94.6669404,101.194752 C94.7202185,101.167975 94.7798458,101.143131 94.8364366,101.117458 C94.8905428,101.093165 94.9410604,101.067492 94.9982033,101.044028 C95.0360225,101.028293 95.0793627,101.013938 95.1185621,100.998479 C95.3214607,100.919804 95.5381619,100.84527 95.7783275,100.778189 C95.8296732,100.763835 95.8868161,100.751136 95.9403703,100.737334 C96.0350563,100.712765 96.1280859,100.687368 96.228569,100.664732 C96.2939935,100.650101 96.365491,100.637403 96.4331239,100.6236 C96.5280859,100.604 96.6205635,100.583572 96.7204945,100.565629 C96.7434068,100.561488 96.7693558,100.558452 96.7930963,100.554035 C97.0404393,100.511523 97.3013088,100.473427 97.5770852,100.441405 C97.8528616,100.409107 98.1432688,100.38233 98.449687,100.362178 C98.6084171,100.351412 98.7754289,100.344235 98.9424406,100.337058 C99.0004116,100.334573 99.0545179,100.330432 99.1133171,100.328224 C99.2295351,100.324359 99.3534827,100.323255 99.4735655,100.32077 C99.5897836,100.31801 99.702413,100.314145 99.8224958,100.313041 C99.8517573,100.313041 99.8837794,100.313869 99.9135931,100.313593 C101.112213,100.308348 102.489991,100.379294 104.065974,100.545477 C104.191578,100.558452 104.316906,100.575291 104.442233,100.59075 C104.32988,100.522289 104.216423,100.453828 104.101585,100.385367 C104.072599,100.367975 104.042509,100.350584 104.013248,100.333193 C103.927948,100.282675 103.842648,100.232158 103.755967,100.18164 C103.701585,100.149894 103.646098,100.118148 103.591164,100.086678 C103.528224,100.050239 103.46556,100.0138 103.402068,99.9773612 C103.345477,99.9450631 103.288058,99.9127649 103.230639,99.8804668 C103.16908,99.8456842 103.10752,99.8106255 103.045408,99.7755669 C102.982744,99.7402322 102.919252,99.7054495 102.856036,99.6701148 C102.798617,99.6383688 102.741198,99.6063467 102.683503,99.5746007 C102.621391,99.5400941 102.558728,99.5061397 102.496616,99.4721852 C102.437541,99.4398871 102.379017,99.407589 102.319942,99.3755669 C102.258106,99.3421645 102.195995,99.3090382 102.134159,99.2756359 C102.074256,99.2433378 102.014352,99.2110396 101.954449,99.1790175 C101.893993,99.1467194 101.833262,99.1146973 101.773082,99.0826752 C101.711523,99.050101 101.649963,99.0175269 101.588679,98.9849527 C101.525463,98.9518264 101.462247,98.9189761 101.399031,98.8858498 C101.341336,98.8557601 101.283641,98.8251183 101.225946,98.7953046 C101.163559,98.7630065 101.101723,98.7312605 101.039611,98.6989623 C100.98026,98.6685966 100.920908,98.6374026 100.861557,98.6073129 C100.801654,98.5763951 100.74175,98.5460293 100.682123,98.5153875 C100.623048,98.4852977 100.563697,98.455208 100.505173,98.4253944 C100.441129,98.3928202 100.377913,98.3610741 100.314421,98.328776 C100.259763,98.3014468 100.204828,98.2735655 100.150446,98.2465124 C100.093855,98.218079 100.038369,98.1904737 99.9820541,98.1623164 C99.9210465,98.1316746 99.8597629,98.1010327 99.7990313,98.0712191 C99.7416124,98.0425096 99.6855738,98.0149044 99.628707,97.986747 C99.5729444,97.9594178 99.5171818,97.9315365 99.4622473,97.9047595 C99.3984792,97.8732895 99.3358153,97.8426477 99.2725993,97.8120058 C99.2242901,97.7882653 99.1757049,97.7645248 99.1279478,97.7413364 C99.0743937,97.7151114 99.0224958,97.6899907 98.9697698,97.6643178 C98.9126269,97.6367125 98.854932,97.6088312 98.7986173,97.581502 C98.7494799,97.5580376 98.7019989,97.5351252 98.6534137,97.5116608 C98.5987553,97.4854358 98.5435448,97.4589348 98.4897146,97.4329858 C98.4347801,97.4067608 98.3817781,97.3816401 98.3279479,97.3559672 C98.2807429,97.3333309 98.2329858,97.3106946 98.186609,97.2886104 C98.1325027,97.2629375 98.0800528,97.2383689 98.0273267,97.2132481 C97.9845386,97.1930963 97.9409223,97.1723923 97.8992384,97.1527926 C97.849825,97.1296042 97.8026201,97.10752 97.754863,97.0851598 C97.7093143,97.0636277 97.6629375,97.0418195 97.618217,97.0211156 C97.5795697,97.0028961 97.5425787,96.9857809 97.5047595,96.9681135 C97.45507,96.9449251 97.4051045,96.9217367 97.3573475,96.8996525 C97.3217367,96.8830894 97.2877822,96.8673544 97.2529996,96.8513433 C97.2057947,96.8292591 97.1583137,96.807451 97.1130411,96.786471 C97.0738416,96.7682515 97.0368506,96.7514124 96.9993074,96.7342971 C96.9634206,96.717734 96.9264296,96.7006187 96.891923,96.6848837 C96.8554841,96.6683206 96.8215297,96.6528616 96.7870231,96.6368506 C96.7492039,96.6197353 96.7113847,96.602344 96.675774,96.586333 C96.6473406,96.5730825 96.6216677,96.5617643 96.5946146,96.549342 C96.5603841,96.533607 96.5253254,96.517872 96.4930273,96.5032412 C96.4629375,96.4897146 96.4356084,96.4772923 96.407451,96.4645939 C96.3790176,96.4516194 96.3500321,96.4386449 96.3235311,96.4267747 C96.2937174,96.4132481 96.2674924,96.4013779 96.2401632,96.3895076 C96.2208396,96.3806739 96.2004117,96.3712881 96.1821922,96.3632826 C96.1523785,96.3500321 96.1261536,96.3384379 96.0999286,96.3265676 C96.0869541,96.3207705 96.0728754,96.3144213 96.0604531,96.3091763 C96.0303634,96.2953737 96.0038623,96.2837795 95.9790176,96.2727374 C95.9746008,96.270805 95.9693558,96.2683206 95.9649389,96.2666643 C95.9411984,96.2558982 95.9215987,96.2473406 95.9036553,96.2393351 C95.8989624,96.2374027 95.8937174,96.2349182 95.8895766,96.2332619 C95.8481688,96.2150425 95.8252564,96.2048285 95.8244282,96.2045525 C95.8241522,96.2045525 95.8238761,96.2042764 95.8241522,96.2042764 C95.8277409,96.2048285 95.849273,96.2084172 95.8854358,96.2147664 C95.891785,96.2158706 95.9006187,96.2175269 95.9080721,96.2186311 C95.9458913,96.2249803 95.9950287,96.233538 96.0587968,96.2445801 C96.0717712,96.2470645 96.0877823,96.2498251 96.102137,96.2525856 C96.1278099,96.2570024 96.1537588,96.2614193 96.1827443,96.2666643 C96.1959948,96.2688727 96.2111777,96.2716332 96.2249803,96.2743937 C96.2608672,96.2807429 96.2975821,96.2870921 96.3381618,96.2945456 C96.3475476,96.2962019 96.3580376,96.2981342 96.3676995,96.2997906 C96.412696,96.3080721 96.4596249,96.3166298 96.5101425,96.3257395 C96.5305704,96.3296042 96.5526546,96.333469 96.5739106,96.3373337 C96.6142143,96.3447871 96.65507,96.3525166 96.6986863,96.3605221 C96.7320887,96.3668713 96.7682515,96.3734966 96.8033102,96.3801218 C96.8425097,96.3872992 96.8806049,96.3944765 96.9217367,96.4024821 C96.9576235,96.4091073 96.9962709,96.4162847 97.0335379,96.423462 C97.07605,96.4314676 97.1177339,96.4394731 97.1621784,96.4477547 C97.2035863,96.4557602 97.2477546,96.4643178 97.2910949,96.4725994 C97.3366435,96.4814331 97.3816401,96.4899907 97.4291211,96.4991004 C97.4680445,96.5068299 97.5091763,96.5148354 97.5492039,96.5228409 C97.6046905,96.533607 97.6596249,96.544373 97.7173198,96.5556912 C97.7565193,96.5631446 97.7982032,96.5717022 97.8385069,96.5794317 C97.9000666,96.591854 97.9613502,96.6037243 98.0253944,96.6166988 C98.0676304,96.6252564 98.1120748,96.6340901 98.1554151,96.6429237 C98.2186311,96.6556222 98.281571,96.6683206 98.3469955,96.6815711 C98.3988933,96.6920611 98.4529996,96.7031032 98.5062777,96.7141453 C98.5681135,96.7265676 98.6293971,96.739266 98.6928892,96.7522405 C98.744511,96.7627305 98.7983412,96.7740487 98.8510672,96.7850907 C98.9195282,96.7991694 98.9871611,96.8132481 99.0575545,96.8278789 C99.1108326,96.839197 99.1663191,96.8510673 99.2207015,96.8623854 C99.2930272,96.8775683 99.3648008,96.8927512 99.4390589,96.9087622 C99.4953736,96.9206325 99.5536207,96.9330549 99.6110396,96.9454772 C99.6858498,96.9614883 99.7601079,96.9772232 99.8368505,96.9940624 C99.9006186,97.007589 99.9663191,97.0222198 100.031191,97.0362985 C100.102965,97.0517574 100.174187,97.0674924 100.24734,97.0835034 C100.319942,97.0992384 100.394476,97.1158016 100.468182,97.1323647 C100.538024,97.1478237 100.607037,97.1630065 100.677982,97.1787415 C100.752516,97.1953047 100.828707,97.212972 100.904345,97.2298112 C100.977775,97.2463744 101.050377,97.2626615 101.124635,97.2795007 C101.198893,97.2963399 101.275084,97.3140072 101.350446,97.3311225 C101.428845,97.3490659 101.50614,97.3667332 101.585643,97.3852288 C101.660729,97.402344 101.737196,97.4205635 101.813386,97.4382308 C101.89565,97.4572784 101.977085,97.4763261 102.060729,97.4959258 C102.136919,97.5138692 102.21449,97.5323647 102.291509,97.5505842 C102.376533,97.570736 102.461005,97.5908878 102.547133,97.6115918 C102.624704,97.6298112 102.703931,97.6491349 102.78233,97.6681825 C102.870667,97.6894386 102.958452,97.7106946 103.047893,97.7325027 C103.128776,97.7521025 103.21104,97.7725303 103.292751,97.7926822 C103.380536,97.8142143 103.467768,97.8354703 103.556933,97.8575545 C103.642233,97.8788105 103.729466,97.9006187 103.81587,97.9224268 C103.903931,97.944511 103.99144,97.9660431 104.080605,97.9886794 C104.164249,98.0099354 104.249549,98.0317436 104.334021,98.0532757 C104.427327,98.0772922 104.52008,98.1007567 104.61449,98.1247733 C104.69979,98.1468574 104.786747,98.1697698 104.872875,98.1921301 C104.967285,98.2164227 105.060867,98.2407153 105.155829,98.2658361 C105.242509,98.2884724 105.330294,98.3119368 105.417803,98.3351252 C105.514973,98.3607981 105.611592,98.3861949 105.70959,98.4124199 C105.795719,98.4353323 105.882951,98.4590728 105.969632,98.4828133 C106.069287,98.5095904 106.168113,98.5360914 106.26832,98.5634206 C106.359694,98.5885414 106.452171,98.6142142 106.544373,98.6396111 C106.641543,98.6661121 106.738438,98.6928892 106.83616,98.7199423 C106.929466,98.7458913 107.0236,98.7726683 107.117458,98.7991694 C107.21518,98.8264986 107.312627,98.8535517 107.410901,98.8817091 C107.503655,98.907934 107.597513,98.9352632 107.690819,98.9617643 C107.791854,98.9910258 107.892889,99.0197353 107.994476,99.0492729 C108.08585,99.0757739 108.178051,99.1031031 108.269701,99.1298802 C108.37322,99.1599699 108.476464,99.1900596 108.580536,99.2209775 C108.675774,99.2491349 108.772116,99.2781204 108.86763,99.3068298 C108.96977,99.3374716 109.071357,99.3675614 109.173496,99.3984792 C109.271219,99.4280168 109.369493,99.4583826 109.467492,99.4881963 C109.568251,99.5191141 109.668458,99.5494799 109.769217,99.5806738 C109.86694,99.6107636 109.964939,99.6419575 110.062661,99.6723233 C110.165905,99.7046214 110.268872,99.7366435 110.372116,99.7692177 C110.46625,99.7990313 110.560936,99.8296731 110.655622,99.8597629 C110.762178,99.8939934 110.868458,99.9276718 110.975291,99.9621783 C111.073841,99.9939243 111.172116,100.026499 111.270667,100.058797 C111.374186,100.092751 111.477706,100.126153 111.581226,100.16066 C111.685297,100.195167 111.789645,100.230225 111.893993,100.265284 C111.991992,100.298134 112.089438,100.330432 112.187713,100.363835 C112.294269,100.399721 112.401377,100.436712 112.50821,100.473427 C112.604828,100.50683 112.701446,100.53968 112.798341,100.573082 C112.900204,100.608417 113.002068,100.644856 113.103931,100.680467 C113.205518,100.716354 113.307106,100.751688 113.408969,100.787851 C113.505863,100.822358 113.602758,100.857692 113.699376,100.892475 C113.806208,100.930846 113.913041,100.968942 114.019597,101.008141 C114.115939,101.0432 114.212281,101.079086 114.308348,101.114697 C114.414628,101.153897 114.521184,101.19282 114.627464,101.232572 C114.728223,101.270391 114.828707,101.309038 114.929466,101.347133 C115.031329,101.385781 115.132916,101.423876 115.234228,101.463075 C115.338299,101.503103 115.442095,101.543959 115.546167,101.584539 C115.643337,101.622358 115.741336,101.660177 115.838506,101.698824 C115.945339,101.740784 116.051619,101.783848 116.158175,101.82636 C116.252309,101.864456 116.346719,101.901723 116.440853,101.939818 C116.541612,101.98095 116.642095,102.022634 116.74313,102.064318 C116.842233,102.105173 116.941888,102.145753 117.041267,102.187161 C117.133468,102.225808 117.224842,102.265008 117.316767,102.303931 C117.423323,102.349204 117.530156,102.393924 117.63616,102.439749 C117.727257,102.478672 117.817526,102.5187 117.908072,102.558452 C118.0138,102.604552 118.12008,102.650101 118.225256,102.696754 C118.321046,102.739266 118.415456,102.782606 118.510694,102.825394 C118.610073,102.870115 118.710004,102.914559 118.808831,102.959556 C118.909314,103.005657 119.008969,103.052585 119.1089,103.098962 C119.201377,103.14175 119.294131,103.184538 119.386056,103.227879 C119.489576,103.276464 119.591715,103.326153 119.694407,103.375567 C119.782192,103.417527 119.870252,103.459211 119.957209,103.501723 C120.053275,103.548652 120.147961,103.596133 120.242923,103.643338 C120.335953,103.689438 120.429535,103.735263 120.522012,103.781916 C120.610349,103.82636 120.697858,103.872185 120.785642,103.916906 C120.883089,103.966871 120.980535,104.016284 121.077154,104.066802 C121.165766,104.112903 121.253275,104.160108 121.34106,104.206761 C121.43547,104.257002 121.530432,104.306692 121.623737,104.357209 C121.718976,104.408555 121.812557,104.461005 121.906967,104.513179 C121.990887,104.559832 122.076187,104.605933 122.160107,104.652861 C122.249824,104.703103 122.337609,104.754449 122.426774,104.805518 C122.513731,104.855484 122.601515,104.904621 122.68792,104.955139 C122.773772,105.005104 122.857968,105.056174 122.943268,105.106968 C123.029673,105.15859 123.117457,105.209659 123.203033,105.261557 C123.298272,105.319528 123.391301,105.378051 123.485159,105.436298 C123.559141,105.482675 123.634503,105.528224 123.707933,105.574601 C123.785504,105.623738 123.861143,105.673703 123.937885,105.723117 C124.02567,105.779984 124.114007,105.836022 124.200411,105.893165 C124.229673,105.912489 124.257554,105.932088 124.286815,105.951412 C124.487782,106.085574 124.685159,106.221391 124.8795,106.358313 C124.968113,106.420701 125.057554,106.482813 125.14451,106.546029 C125.145062,106.546305 125.145891,106.546857 125.145615,106.546857 C125.145062,106.546581 125.117181,106.536367 125.066387,106.518424 C125.064455,106.517872 125.061971,106.516768 125.060314,106.516215 C125.038782,106.508486 125.015042,106.499928 124.985504,106.489714 C124.968389,106.483365 124.947133,106.475912 124.927257,106.46901 C124.907381,106.461833 124.889162,106.455484 124.866802,106.447754 C124.847478,106.440853 124.825118,106.432848 124.803586,106.425394 C124.775704,106.415732 124.748927,106.406347 124.717733,106.395581 C124.695097,106.387575 124.669424,106.378741 124.645131,106.370184 C124.610901,106.358313 124.577775,106.346719 124.540508,106.334021 C124.517871,106.326015 124.492474,106.317182 124.468734,106.309176 C124.424842,106.293993 124.381225,106.279086 124.333468,106.262799 C124.307243,106.25369 124.278534,106.244028 124.251205,106.234642 C124.204828,106.218631 124.159003,106.203172 124.109314,106.186333 C124.06901,106.172806 124.025394,106.157899 123.982882,106.143545 C123.940646,106.129466 123.900066,106.115663 123.855621,106.100756 C123.814214,106.086954 123.770045,106.072323 123.726981,106.057968 C123.676463,106.041129 123.627326,106.024566 123.574876,106.007175 C123.534572,105.993924 123.49206,105.979846 123.450653,105.966319 C123.392958,105.946995 123.336091,105.9285 123.275911,105.908624 C123.232295,105.894269 123.185918,105.879362 123.140922,105.864732 C123.079086,105.84458 123.018354,105.824704 122.954586,105.804 C122.909038,105.789369 122.861005,105.77391 122.814076,105.759004 C122.748651,105.737748 122.683779,105.717044 122.616422,105.695512 C122.56342,105.678396 122.508209,105.661005 122.453551,105.64389 C122.389231,105.623462 122.325463,105.60331 122.25921,105.58233 C122.207312,105.566043 122.15293,105.549204 122.099928,105.532641 C122.027602,105.510004 121.956105,105.487644 121.882123,105.464732 C121.828844,105.448169 121.773358,105.431053 121.719252,105.41449 C121.64527,105.391578 121.571564,105.368941 121.495925,105.345753 C121.429949,105.325877 121.362592,105.305725 121.295787,105.285298 C121.22843,105.265146 121.161902,105.244718 121.093441,105.22429 C121.020563,105.202482 120.946029,105.180674 120.872323,105.158866 C120.807174,105.139542 120.74313,105.120218 120.67743,105.100895 C120.603724,105.079362 120.528637,105.057554 120.453827,105.035746 C120.385366,105.01587 120.317457,104.995995 120.248168,104.976119 C120.175014,104.955139 120.101032,104.933883 120.02705,104.913179 C119.954724,104.892475 119.882951,104.871771 119.809521,104.851343 C119.734711,104.830087 119.658244,104.809107 119.582606,104.788127 C119.509452,104.767699 119.437126,104.747271 119.36342,104.726843 C119.285021,104.705587 119.205518,104.684055 119.126291,104.662523 C119.053689,104.6432 118.98164,104.623324 118.908486,104.603724 C118.822909,104.580812 118.736229,104.558175 118.650101,104.535263 C118.583296,104.517596 118.516767,104.500204 118.44941,104.482537 C118.364386,104.460177 118.278258,104.438645 118.192682,104.416561 C118.122564,104.398617 118.052447,104.380398 117.982054,104.36273 C117.905587,104.343407 117.828568,104.324635 117.751826,104.305587 C117.672047,104.285712 117.592544,104.265836 117.512488,104.246236 C117.435194,104.227465 117.357347,104.209245 117.279776,104.19075 C117.200549,104.171978 117.121322,104.152654 117.041819,104.133883 C116.956519,104.114007 116.871219,104.094959 116.785918,104.07536 C116.713869,104.058797 116.642095,104.041957 116.570321,104.025946 C116.481157,104.006071 116.392544,103.987023 116.303655,103.967699 C116.235194,103.952516 116.166457,103.937333 116.097996,103.922703 C116.002758,103.902275 115.907796,103.882951 115.81311,103.863351 C115.75155,103.850653 115.689714,103.837679 115.628431,103.825256 C115.507796,103.800964 115.388265,103.777775 115.268182,103.754863 C115.232847,103.747962 115.196961,103.740508 115.161626,103.733883 C115.02774,103.708762 114.894683,103.684746 114.761902,103.661281 C114.737333,103.656864 114.712489,103.652171 114.68792,103.647754 C114.538299,103.62153 114.389783,103.596685 114.242647,103.572944 L114.242647,103.572944 C114.241819,103.572944 114.240991,103.572944 114.240163,103.572668 C114.337057,103.61518 114.433676,103.659073 114.53057,103.702137 C114.709176,103.781364 114.88723,103.859763 115.066112,103.940646 C115.140922,103.974601 115.216008,104.009659 115.290818,104.043614 C116.042233,104.385643 116.795856,104.739266 117.554172,105.101723 C117.990887,105.310694 118.429259,105.522151 118.86901,105.734711 C119.105587,105.849273 119.342716,105.963834 119.580121,106.078948 C119.844303,106.206761 120.109038,106.335125 120.374324,106.463489 C121.667354,107.089024 122.975842,107.717044 124.306967,108.322703 C124.325187,108.330984 124.34313,108.339542 124.361073,108.347547 C125.524635,108.876188 126.705311,109.387161 127.906967,109.863903 C127.915249,109.867216 127.923806,109.870529 127.932088,109.873841 C128.230501,109.991992 128.530294,110.10821 128.831467,110.221943 C129.734434,110.563144 130.6501,110.882813 131.579845,111.174324 C131.654379,111.197789 131.73057,111.219321 131.80538,111.242233 C132.043337,111.315387 132.281018,111.388541 132.520356,111.45783 C132.632433,111.490128 132.745614,111.519666 132.857968,111.551136 C133.062247,111.608279 133.265973,111.666526 133.471356,111.720632 C133.54313,111.73968 133.616008,111.756243 133.688057,111.774738 C133.9354,111.838507 134.183019,111.901999 134.433123,111.961074 C134.463489,111.968251 134.494407,111.9746 134.525048,111.981778 C134.81656,112.049963 135.109451,112.115939 135.403999,112.177499 C135.553068,112.208693 135.703792,112.235746 135.853689,112.265008 C136.031467,112.29979 136.20814,112.336505 136.387022,112.368803 C136.496339,112.388403 136.607588,112.404414 136.717181,112.423186 C136.938299,112.460729 137.159141,112.499376 137.381915,112.532778 C137.466663,112.545477 137.552516,112.555139 137.637264,112.567285 C137.886815,112.60262 138.135814,112.637954 138.387298,112.668044 C138.549065,112.687368 138.71304,112.701723 138.875911,112.718562 C139.052308,112.736781 139.228154,112.757761 139.405656,112.77322 C139.542302,112.78509 139.68088,112.792268 139.818078,112.802482 C140.024013,112.817941 140.229396,112.835332 140.436988,112.84665 C140.574462,112.854103 140.713868,112.856864 140.851894,112.862661 C141.061418,112.871219 141.269562,112.881985 141.480466,112.886678 C141.633123,112.88999 141.787712,112.887782 141.941473,112.88861 C142.140231,112.890266 142.337885,112.894131 142.537747,112.891647 C142.682674,112.889714 142.829258,112.882537 142.974462,112.878948 C143.18509,112.873427 143.394889,112.870115 143.606898,112.860177 C143.607174,112.860177 143.60745,112.860729 143.607174,112.861005 C140.603447,113.521874 133.01725,114.027878 118.763558,108.298962" id="path44" fill="#F8E506"></path>
                        <path d="M99.4694247,87.1191145 C97.2057947,86.3312608 94.7417506,85.6168371 92.0830895,85.0332622 C92.5297423,85.0931656 96.8905428,85.3918543 102.976671,85.7788798 C110.066802,89.4233242 116.396684,96.0833654 117.125187,96.8632136 C116.234366,96.0731515 110.585781,91.2731516 100.925049,87.6452704 C100.449687,87.4666645 99.9641107,87.2913712 99.4694247,87.1191145" id="path46" fill="#F8E506"></path>
                        <path d="M39.1594193,24.7371146 C39.1594193,24.4080049 39.1238085,24.1352927 39.0550715,23.9199442 C38.9855063,23.7038503 38.8723248,23.5269007 38.715803,23.3888745 C38.5595574,23.2501858 38.3544504,23.1475495 38.0988258,23.0808 C37.8434773,23.0128635 37.5251888,22.9629256 37.1431323,22.9291644 C36.4767417,22.8706136 35.8103511,22.8113176 35.1439605,22.7511381 C35.1439605,23.9080739 35.1439605,25.0652306 35.1439605,26.2228289 C35.8103511,26.2832016 36.4767417,26.3423044 37.1431323,26.4008551 C37.5254649,26.4345059 37.8437534,26.4394748 38.0988258,26.4160656 C38.3536222,26.3925459 38.5598334,26.3254928 38.715803,26.2139952 C38.8728769,26.1026909 38.9860584,25.9448441 39.0550715,25.7410346 C39.1240846,25.5364797 39.1599714,25.2701167 39.1594193,24.9413382 C39.1594193,24.8734017 39.1594193,24.8052444 39.1594193,24.7371146 L39.1594193,24.7371146 Z M40.9330563,28.11953 C40.2028975,28.6487225 38.9913034,28.8433395 37.2991019,28.6953754 C35.6477562,28.5507239 33.9969626,28.4002753 32.346445,28.2445818 C32.346445,24.2051616 32.346445,20.1659622 32.346445,16.1267353 C33.2786741,16.2147408 34.2114553,16.301228 35.1439605,16.3856449 C35.1439605,17.7471631 35.1439605,19.1086538 35.1439605,20.4701444 C35.8509308,20.5342162 36.557625,20.5970733 37.2643193,20.6589643 C38.9446505,20.8063763 40.1595573,21.2105447 40.9065552,21.8796406 C41.6543813,22.5476599 42.0281563,23.5000408 42.0284324,24.7367834 C42.0284324,24.9636709 42.0284324,25.190862 42.0284324,25.41786 C42.0289845,26.6882257 41.663491,27.5895093 40.9330563,28.11953 L40.9330563,28.11953 Z" id="path48" fill="#F5A00F"></path>
                        <path d="M53.0409925,25.8834776 C53.0412685,25.554147 53.0059338,25.2828427 52.9363686,25.0683776 C52.8665273,24.8541057 52.7561063,24.6790884 52.6056578,24.5446233 C52.4549331,24.4090815 52.2547951,24.3111657 52.0055197,24.2492748 C51.7559683,24.187163 51.4448572,24.1436019 51.0741188,24.1184535 C50.3723935,24.0703652 49.6703921,24.0213106 48.9686668,23.9715936 C48.9686668,25.0945749 48.9686668,26.2177495 48.9686668,27.3413658 C49.6703921,27.3909724 50.3723935,27.4401649 51.0741188,27.487922 C51.4448572,27.5133741 51.7565204,27.5116349 52.0055197,27.4826494 C52.254243,27.4539676 52.454381,27.385479 52.6056578,27.2759137 C52.7561063,27.1671215 52.8665273,27.0092471 52.9363686,26.804361 C53.0059338,26.5985087 53.0409925,26.3373354 53.0409925,26.0195715 C53.0409925,25.9743817 53.0409925,25.9287778 53.0409925,25.8834776 Z M55.2949607,23.7557206 C55.6714962,24.3069697 55.8605921,25.0247061 55.8605921,25.9100063 C55.8605921,26.063243 55.8605921,26.2159276 55.8605921,26.3690539 C55.8605921,27.038481 55.770323,27.6030911 55.5906128,28.0632153 C55.4103506,28.5228426 55.1326418,28.88806 54.7550021,29.1594196 C54.3784665,29.4305031 53.8931664,29.6151821 53.301862,29.7129047 C52.7102816,29.8106273 51.9969621,29.8316073 51.1610753,29.7747405 C49.4964791,29.6612829 47.8318829,29.5417522 46.1678387,29.4169765 C46.1678387,25.3775287 46.1678387,21.3383017 46.1678387,17.2994337 C47.1014481,17.3691921 48.0347814,17.4376807 48.9686668,17.5042094 C48.9686668,18.9223184 48.9686668,20.3404274 48.9686668,21.7587572 C49.6242914,21.8053273 50.2796399,21.8511796 50.9352644,21.8962313 C51.7239463,20.5319526 52.5131802,19.1663487 53.301862,17.7995579 C54.3519655,17.8680465 55.4023451,17.934023 56.4527246,17.9980672 C55.5182871,19.4956517 54.5841256,20.9916351 53.6499642,22.4853273 C54.3690808,22.78178 54.9181491,23.2046923 55.2949607,23.7557206 L55.2949607,23.7557206 Z" id="path50" fill="#F5A00F"></path>
                        <path d="M64.1142841,23.5456447 C64.619184,25.0740919 65.12436,26.602401 65.6292599,28.13002 C66.1460301,26.6514555 66.6625242,25.1720905 67.1792944,23.6925322 C66.1576243,23.6455205 65.1359542,23.5966592 64.1142841,23.5456447 L64.1142841,23.5456447 Z M64.0270515,30.5360931 C62.5349881,26.4217799 61.0432007,22.303105 59.5511372,18.1796821 C60.5151124,18.233816 61.4788114,18.286542 62.4425105,18.3371148 C62.7671482,19.3300202 63.092338,20.3227324 63.4172517,21.3148097 C64.903242,21.3907241 66.3897844,21.4622217 67.8763268,21.5287503 C68.2131108,20.5678394 68.5496187,19.6071769 68.8864027,18.6459347 C69.8909575,18.6896062 70.8957884,18.731014 71.9003433,18.7707104 C70.4019306,22.7511381 68.903794,26.7268454 67.4059334,30.6978598 C66.2796395,30.6465141 65.1533455,30.5926838 64.0270515,30.5360931 L64.0270515,30.5360931 Z" id="path52" fill="#F5A00F"></path>
                        <path d="M75.6988249,18.9095923 C76.6570029,18.9421665 77.615457,18.9727808 78.5739111,19.0017939 C78.5739111,23.0406619 78.5739111,27.0798889 78.5739111,31.1193919 C77.615457,31.0906825 76.6570029,31.0600406 75.6988249,31.0274664 C75.6988249,26.9880186 75.6988249,22.9487917 75.6988249,18.9095923" id="path54" fill="#F5A00F"></path>
                        <path d="M90.0946837,27.3557205 C90.0944077,27.0266108 90.0596251,26.756383 89.9900599,26.5460035 C89.9204946,26.3351822 89.8089695,26.1662105 89.6587969,26.0391988 C89.5069681,25.9116074 89.3073822,25.8236294 89.0575547,25.774989 C88.8077272,25.7256032 88.4968922,25.697998 88.1247735,25.6919524 C87.4216679,25.6801098 86.7188384,25.6673838 86.0157328,25.6535811 C86.0157328,26.7767557 86.0157328,27.9000683 86.0157328,29.0230497 C86.7188384,29.0368523 87.4216679,29.0498267 88.1247735,29.0614209 C88.4971682,29.0674941 88.8068991,29.0498267 89.0575547,29.0084189 C89.3073822,28.966735 89.5072441,28.88806 89.6587969,28.7704617 C89.8095216,28.6539675 89.9199425,28.4908205 89.9900599,28.2821249 C90.0599011,28.0726011 90.0952358,27.8097992 90.0946837,27.4918144 C90.0946837,27.4465142 90.0946837,27.4010207 90.0946837,27.3557205 Z M92.3519646,25.1117178 C92.7296043,25.6436433 92.9189763,26.3514693 92.9184242,27.2369903 C92.9184242,27.3898958 92.9184242,27.5431325 92.9184242,27.6960656 C92.9184242,28.3654927 92.8284311,28.9344368 92.6481688,29.404002 C92.4673545,29.8727391 92.1888176,30.2523112 91.8114539,30.5432705 C91.4340902,30.8339537 90.949066,31.0434775 90.3561054,31.1718419 C89.7634208,31.2999302 89.048721,31.3576252 88.2120061,31.3438225 C86.5443733,31.3162173 84.8770165,31.2825389 83.2096598,31.2433395 C83.2096598,27.2041125 83.2096598,23.1648855 83.2096598,19.1256862 C84.1449254,19.1475772 85.0801911,19.1677566 86.0157328,19.1861969 C86.0157328,20.6043059 86.0157328,22.0226358 86.0157328,23.440938 C86.6721855,23.4539953 87.3289143,23.4655343 87.9856431,23.4768524 C88.7757052,22.0720215 89.5660433,20.6658656 90.3561054,19.258219 C91.4078652,19.2725461 92.459349,19.2847476 93.5113848,19.2944371 C92.575567,20.8403307 91.6400253,22.3842921 90.7044836,23.9259897 C91.4255326,24.1855342 91.9746009,24.5799856 92.3519646,25.1117178 L92.3519646,25.1117178 Z" id="path56" fill="#F5A00F"></path>
                        <path d="M97.2767401,19.3195854 C98.2354703,19.3233398 99.1942004,19.3250789 100.152931,19.3250789 C100.152931,23.3644991 100.152931,27.4036984 100.152931,31.4429254 C99.1942004,31.4429254 98.2354703,31.440993 97.2767401,31.4371283 C97.2767401,27.3978737 97.2767401,23.3587848 97.2767401,19.3195854" id="path58" fill="#F5A00F"></path>
                        <path d="M107.666802,24.2724632 C109.39213,24.2547682 111.117734,24.2305032 112.843337,24.2000822 C112.994338,24.9860863 113.145615,25.77198 113.296339,26.5578737 C111.420011,26.5921594 109.543407,26.6189089 107.666802,26.6385087 C107.666526,27.438205 107.666526,28.2385086 107.666802,29.0382325 C109.578189,29.0183568 111.489576,28.9907515 113.401239,28.9556929 C113.55224,29.7416142 113.703517,30.5275355 113.854518,31.3129047 C110.8334,31.3703236 107.81173,31.4089709 104.789783,31.4280185 C104.789783,27.3888192 104.789783,23.3499511 104.789783,19.3104205 C107.689714,19.2916489 110.589369,19.2557345 113.488472,19.2022632 C113.64527,19.9878256 113.802344,20.7738021 113.959141,21.5591437 C111.861695,21.599475 109.763972,21.6303376 107.666802,21.6522286 C107.666526,22.5255481 107.666526,23.3990056 107.666802,24.2724632" id="path60" fill="#F5A00F"></path>
                        <path d="M124.676325,18.9085157 C125.635056,18.8759416 126.593234,18.841435 127.551688,18.8049961 C127.551688,20.3820561 127.551688,21.9588952 127.551688,23.5359552 C129.125739,23.4763279 130.699238,23.4111795 132.273013,23.3410898 C132.423461,24.1228979 132.574462,24.9046785 132.725463,25.6863486 C131.000963,25.7648579 129.276187,25.8363555 127.551688,25.9020283 C127.551688,26.7869973 127.551688,27.6717729 127.551688,28.5567971 C129.363696,28.48806 131.175428,28.4121456 132.986884,28.3296059 C133.137885,29.1113864 133.288886,29.893167 133.439886,30.6746714 C130.519251,30.8096611 127.598064,30.9269834 124.676325,31.0260862 C124.676325,26.986942 124.676325,22.9479359 124.676325,18.9085157" id="path62" fill="#F5A00F"></path>
                        <path d="M137.306553,18.3679499 C138.264731,18.3183432 139.222081,18.2669147 140.179707,18.2136365 C140.179707,22.2531671 140.179707,26.2923665 140.179707,30.3318143 C139.222081,30.3848164 138.264731,30.4361621 137.306553,30.4855755 C137.306553,26.4461553 137.306553,22.4071492 137.306553,18.3679499" id="path64" fill="#F5A00F"></path>
                        <path d="M151.685296,25.5826081 C151.685572,25.2535259 151.650514,24.9863072 151.580673,24.7817523 C151.510831,24.5771975 151.400962,24.4173907 151.250238,24.3034086 C151.100341,24.1890953 150.898547,24.1181498 150.6501,24.0905446 C150.400548,24.0629394 150.089713,24.0618628 149.718699,24.0872044 C149.016974,24.1355135 148.314696,24.1830498 147.612971,24.2290953 C147.612971,25.3524079 147.612971,26.4755825 147.612971,27.5988951 C148.314696,27.5525183 149.016974,27.5052857 149.718699,27.4567557 C150.090541,27.4316349 150.400272,27.3872181 150.6501,27.3239193 C150.899927,27.2612554 151.098961,27.1649683 151.250238,27.03492 C151.40041,26.9052029 151.511107,26.7323389 151.580673,26.5178461 C151.649962,26.3028289 151.68502,26.0364935 151.685296,25.7190332 C151.685296,25.673733 151.685296,25.6279083 151.685296,25.5826081 Z M153.93816,23.1455895 C154.314972,23.6455205 154.503516,24.3370318 154.503516,25.2226633 C154.503516,25.3752651 154.503516,25.5285018 154.503516,25.6817109 C154.50324,26.3511381 154.413247,26.9278392 154.233537,27.4125597 C154.053826,27.8970317 153.776118,28.3000683 153.398754,28.6236018 C153.021666,28.9463071 152.53747,29.1972387 151.94589,29.3763968 C151.354862,29.5552788 150.641542,29.6742574 149.805655,29.7319523 C148.141059,29.8467901 146.476187,29.9558309 144.811038,30.0590745 C144.811038,26.0198751 144.811038,21.9806758 144.811038,17.9414764 C145.744648,17.8834502 146.678809,17.823602 147.612971,17.7618215 C147.612971,19.1801513 147.612971,20.5984812 147.612971,22.0165902 C148.268319,21.9732224 148.92422,21.9293576 149.579568,21.8840574 C150.368526,20.4115937 151.157484,18.9380534 151.94589,17.4628015 C152.995993,17.3874116 154.045545,17.3095648 155.09482,17.2292335 C154.161763,18.854934 153.227601,20.4786744 152.293716,22.1008138 C153.012281,22.2986882 153.561901,22.6462106 153.93816,23.1455895 L153.93816,23.1455895 Z" id="path66" fill="#F5A00F"></path>
                        <path d="M161.720079,21.6786468 C163.441266,21.531014 165.162177,21.3772527 166.882536,21.217446 C167.032984,21.9919939 167.183433,22.7663486 167.333881,23.5409242 C165.463626,23.7162451 163.59199,23.8838089 161.720079,24.0444991 C161.720079,24.8443886 161.720079,25.6441954 161.720079,26.4441953 C163.627049,26.2807447 165.533191,26.1095922 167.438505,25.9310414 C167.58923,26.7055894 167.739678,27.4796128 167.890403,28.2542436 C164.878947,28.5383016 161.865558,28.803588 158.851618,29.0501028 C158.851618,25.0106826 158.851618,20.9714557 158.851618,16.9322563 C161.743819,16.6959002 164.635193,16.4422632 167.525186,16.1708485 C167.681431,16.9446511 167.837953,17.7186745 167.994199,18.492698 C165.903654,18.6903791 163.81228,18.8786469 161.720079,19.058081 C161.720079,19.9315385 161.720079,20.8049684 161.720079,21.6786468" id="path68" fill="#F5A00F"></path>
                    </g>
                </g>
            </g>
        </g>
    </g>
</svg>