<?xml version="1.0" encoding="utf-8"?>
<!-- Generator: Adobe Illustrator 26.5.0, SVG Export Plug-In . SVG Version: 6.00 Build 0)  -->
<svg version="1.1" id="Layer_1" xmlns="http://www.w3.org/2000/svg" xmlns:xlink="http://www.w3.org/1999/xlink" x="0px" y="0px"
	 width="270px" height="270px" viewBox="0 0 270 270" style="enable-background:new 0 0 270 270;" xml:space="preserve">
<style type="text/css">
	.st0{fill:#FFFFFF;}
	.st1{fill:#999999;}
	.st2{fill:#D0CFCD;}
	.st3{fill:#410099;}
</style>
<g>
	<path class="st0" d="M224.8,109.6l-0.6-4.6c-0.1-1.1-0.5-3.4-4.7-7.6c-3.4-3.4-7.2-6.7-11.4-9.8c-12.8-9.8-27.6-16.9-42.6-20.6
		c-8.3-2.1-16.8-3.1-25.2-3.1c-1.1,0-2.2,0-3.4,0.1c-2.2,0.1-4.2,0.3-6.2,0.5c-2.4,0.2-4.7,0.5-7,0.5c-0.6,0-1.2,0-1.7,0
		c-5.1-0.3-10.2-1.5-14.9-3.7c-0.8-0.4-1.8-0.9-2.8-1.4c-3.7-1.9-8.3-4.2-13.2-4.2c-0.9,0-1.8,0.1-2.7,0.2l0,0l0,0
		c-3.8,0.8-8.2,3.4-10.2,11.2c-6.8-1.1-19.4-2.9-34.1-2.9c-6,0-11.8,0.3-17.3,0.9l-10.1,1.1l6.9,7.3c40.1,42.4,58.6,98,61.9,108.7
		l1.6,5.2l5-2c11.3-4.5,22.1-6.8,31.9-6.8c7.5,0,12.1,1.4,13.2,1.8c7.1,4.3,8.8,13.9,8.8,14l0.2,1.2l0.7,1
		c0.5,0.7,13,17.5,34.6,17.5c0.9,0,1.7,0,2.6-0.1c17.6-1.1,24.1-12.1,26.2-16.8c1-2.3,0.9-5-0.4-7.2c-0.1-0.2-0.2-0.3-0.3-0.5
		c0.9-2.4,1.4-4.5,1.6-6.5l0.8-0.3c0.5-0.2,10.6-3.6,15.9-14.3c3.2-0.5,5.9-2.1,8-4.5c3.3-3.9,9.3-12.1,12.3-23.1l0-0.1l0-0.1
		C248.7,138.7,249.6,134.8,224.8,109.6z M164.3,71.9c-1.1-0.3-2.1-0.5-3.2-0.7C162.2,71.4,163.2,71.6,164.3,71.9z M160.1,71
		c-0.7-0.1-1.4-0.3-2.1-0.4C158.7,70.7,159.4,70.8,160.1,71z M156.7,70.3c-0.7-0.1-1.3-0.2-2-0.3C155.4,70.1,156.1,70.2,156.7,70.3z
		 M153.4,69.8c-0.6-0.1-1.3-0.2-1.9-0.2C152.1,69.7,152.8,69.8,153.4,69.8z M150.2,69.5c-0.6-0.1-1.3-0.1-1.9-0.2
		C148.9,69.3,149.5,69.4,150.2,69.5z M146.9,69.2c-0.7,0-1.4-0.1-2-0.1C145.6,69.1,146.3,69.1,146.9,69.2z M143.7,69
		c-0.8,0-1.6,0-2.4,0C142.1,69,142.9,69,143.7,69z M137.1,69c1.1,0,2.1-0.1,3.2-0.1c0,0,0.1,0,0.1,0C139.3,68.9,138.2,69,137.1,69
		c-0.6,0-1.2,0.1-1.8,0.1C135.9,69.1,136.5,69,137.1,69z M137,175.2c-0.1,0-0.3-0.1-0.4-0.1C136.8,175.1,136.9,175.1,137,175.2z
		 M136.3,175c-0.2,0-0.3-0.1-0.5-0.1C135.9,174.9,136.1,174.9,136.3,175z M135.4,174.8c-0.2,0-0.4-0.1-0.6-0.1
		C135,174.7,135.2,174.7,135.4,174.8z M134.4,174.6c-0.2,0-0.5-0.1-0.7-0.1C133.9,174.5,134.1,174.5,134.4,174.6z M133.3,174.4
		c-0.4-0.1-0.8-0.1-1.2-0.2C132.5,174.2,132.9,174.3,133.3,174.4z M131.7,174.1c-0.3,0-0.6-0.1-0.9-0.1
		C131.1,174.1,131.4,174.1,131.7,174.1z M130.2,174c-0.3,0-0.6-0.1-0.9-0.1C129.6,173.9,129.9,173.9,130.2,174z M128.7,173.8
		c-0.3,0-0.6,0-0.9-0.1C128.1,173.8,128.4,173.8,128.7,173.8z M127.1,173.7c-0.3,0-0.6,0-0.9,0C126.5,173.7,126.8,173.7,127.1,173.7
		z M125.5,173.7c-0.3,0-0.7,0-1,0C124.8,173.7,125.1,173.7,125.5,173.7z M125.5,69.9c0.2,0,0.4,0,0.6,0
		C125.9,69.9,125.7,69.9,125.5,69.9z M127.3,69.8c0.2,0,0.5,0,0.7-0.1C127.8,69.8,127.6,69.8,127.3,69.8z M129.2,69.7
		c0.3,0,0.5-0.1,0.8-0.1C129.7,69.6,129.4,69.6,129.2,69.7z M131.3,69.4c0.4,0,0.8-0.1,1.2-0.1C132.2,69.4,131.8,69.4,131.3,69.4z
		 M133.4,69.3c0.4,0,0.8-0.1,1.2-0.1C134.2,69.2,133.8,69.2,133.4,69.3z M123.7,70c-0.7,0-1.3,0-2-0.1C122.4,69.9,123,70,123.7,70z
		 M123.6,173.7c-0.2,0-0.5,0-0.7,0C123.1,173.7,123.4,173.7,123.6,173.7z M121.9,173.7c-0.2,0-0.5,0-0.7,0
		C121.4,173.7,121.7,173.7,121.9,173.7z M120.1,173.8c-0.2,0-0.5,0-0.7,0C119.6,173.8,119.8,173.8,120.1,173.8z M118.2,173.9
		c-0.2,0-0.5,0-0.7,0.1C117.7,173.9,117.9,173.9,118.2,173.9z M116,174.1c-0.2,0-0.3,0-0.5,0.1C115.6,174.2,115.8,174.1,116,174.1z
		 M113.4,174.4c-0.2,0-0.4,0.1-0.6,0.1C113,174.5,113.2,174.5,113.4,174.4z M111.3,174.8c-0.3,0-0.5,0.1-0.8,0.1
		C110.7,174.9,111,174.8,111.3,174.8z M109.1,175.2c-0.3,0.1-0.6,0.1-0.9,0.2C108.5,175.3,108.8,175.2,109.1,175.2z M106.8,175.7
		c-0.3,0.1-0.7,0.2-1,0.2C106.1,175.8,106.5,175.7,106.8,175.7z M104.2,65.4c-0.1,0-0.2-0.1-0.3-0.1C104,65.3,104.1,65.4,104.2,65.4
		z M103.3,65c-0.1-0.1-0.3-0.1-0.4-0.2C103,64.8,103.2,64.9,103.3,65z M102.4,64.5c-0.2-0.1-0.4-0.2-0.7-0.3
		C101.9,64.3,102.1,64.4,102.4,64.5z M101.2,63.9c-0.2-0.1-0.3-0.2-0.5-0.3C100.9,63.7,101,63.8,101.2,63.9z M100.3,63.4
		c-0.2-0.1-0.3-0.2-0.5-0.3C99.9,63.3,100.1,63.4,100.3,63.4z M99.3,63c-0.2-0.1-0.4-0.2-0.6-0.3C99,62.8,99.1,62.9,99.3,63z
		 M98.4,62.5c-0.3-0.1-0.5-0.2-0.8-0.4C97.9,62.3,98.1,62.4,98.4,62.5z M97.4,62.1c-0.3-0.1-0.6-0.3-0.9-0.4
		C96.8,61.9,97.1,62,97.4,62.1z M96.2,61.6c-0.2-0.1-0.4-0.2-0.6-0.2C95.7,61.5,96,61.6,96.2,61.6z M95.2,61.3
		c-0.2-0.1-0.4-0.1-0.6-0.2C94.8,61.2,95,61.3,95.2,61.3z M94.2,61c-0.2,0-0.4-0.1-0.6-0.1C93.8,60.9,94,61,94.2,61z M93.2,60.8
		c-0.2,0-0.4-0.1-0.6-0.1C92.8,60.8,93,60.8,93.2,60.8z M92.2,60.7c-0.2,0-0.4,0-0.6,0C91.8,60.7,92,60.7,92.2,60.7z M91.2,60.6
		c-0.2,0-0.4,0-0.6,0c0.2,0,0.3,0,0.5,0C91.1,60.6,91.2,60.6,91.2,60.6z M90.3,60.7c-0.3,0-0.6,0.1-1,0.1
		C89.6,60.7,89.9,60.7,90.3,60.7z M78.6,72.3c-0.2,0-0.5-0.1-0.7-0.1C78.1,72.2,78.4,72.2,78.6,72.3z M82.3,73
		C82.3,73,82.3,73,82.3,73C82.3,73,82.3,73,82.3,73z M82.2,73c0,0-0.1,0-0.1,0C82.1,73,82.1,73,82.2,73z M81.9,72.9
		c-0.1,0-0.1,0-0.2,0C81.8,72.9,81.9,72.9,81.9,72.9z M81.6,72.8c-0.1,0-0.2,0-0.4-0.1C81.3,72.8,81.5,72.8,81.6,72.8z M80.9,72.7
		c-0.1,0-0.3-0.1-0.4-0.1C80.7,72.7,80.8,72.7,80.9,72.7z M80.2,72.6c-0.1,0-0.3-0.1-0.4-0.1C80,72.5,80.1,72.6,80.2,72.6z
		 M79.5,72.4c-0.1,0-0.3-0.1-0.5-0.1C79.2,72.4,79.3,72.4,79.5,72.4z M44.9,69.3c-0.4,0-0.8,0-1.2,0c0.1,0,0.2,0,0.4,0
		C44.3,69.2,44.6,69.3,44.9,69.3z M77.4,72.1c-0.2,0-0.5-0.1-0.7-0.1C76.9,72,77.1,72,77.4,72.1z M76.2,71.9c-0.2,0-0.4-0.1-0.6-0.1
		C75.7,71.8,76,71.8,76.2,71.9z M75,71.7c-0.2,0-0.5-0.1-0.7-0.1C74.5,71.6,74.7,71.6,75,71.7z M73.7,71.5c-0.4-0.1-0.8-0.1-1.2-0.2
		C72.9,71.4,73.3,71.4,73.7,71.5z M71.9,71.2c-0.3,0-0.6-0.1-0.9-0.1C71.3,71.1,71.6,71.2,71.9,71.2z M70.3,71
		c-0.3,0-0.6-0.1-0.9-0.1C69.7,70.9,70,71,70.3,71z M68.7,70.8c-0.3,0-0.6-0.1-1-0.1C68.1,70.7,68.4,70.8,68.7,70.8z M67.1,70.6
		c-0.5-0.1-1.1-0.1-1.6-0.2C66,70.5,66.6,70.6,67.1,70.6z M64.9,70.4c-0.4,0-0.8-0.1-1.2-0.1C64.1,70.3,64.5,70.3,64.9,70.4z
		 M62.9,70.2c-0.4,0-0.7-0.1-1.1-0.1C62.2,70.1,62.6,70.1,62.9,70.2z M61,70c-0.4,0-0.8-0.1-1.2-0.1C60.2,69.9,60.6,70,61,70z
		 M59.1,69.8c-0.6,0-1.3-0.1-1.9-0.1C57.8,69.8,58.5,69.8,59.1,69.8z M56.7,69.7c-0.5,0-1-0.1-1.5-0.1
		C55.7,69.6,56.2,69.6,56.7,69.7z M54.4,69.5c-0.4,0-0.9,0-1.3-0.1C53.5,69.5,53.9,69.5,54.4,69.5z M52.2,69.4c-0.5,0-1,0-1.5-0.1
		C51.2,69.4,51.7,69.4,52.2,69.4z M50.1,69.3c-0.7,0-1.4,0-2.2-0.1C48.6,69.3,49.3,69.3,50.1,69.3z M47.4,69.3c-0.6,0-1.1,0-1.7,0
		C46.2,69.3,46.8,69.3,47.4,69.3z M40.1,69.3c-0.2,0-0.3,0-0.5,0C39.8,69.3,40,69.3,40.1,69.3z M36.3,69.4c-0.2,0-0.5,0-0.7,0
		C35.8,69.4,36,69.4,36.3,69.4z M31.9,69.7c-0.3,0-0.5,0-0.8,0.1C31.4,69.7,31.7,69.7,31.9,69.7z M104.4,176.2
		c-0.3,0.1-0.7,0.2-1,0.3C103.7,176.4,104.1,176.3,104.4,176.2z M102,176.9c-0.4,0.1-0.7,0.2-1.1,0.3
		C101.3,177.1,101.6,177,102,176.9z M99.4,177.6c-0.4,0.1-0.7,0.2-1.1,0.3C98.7,177.8,99.1,177.7,99.4,177.6z M96.8,178.4
		c-0.3,0.1-0.7,0.2-1,0.3C96.1,178.7,96.4,178.6,96.8,178.4z M94,179.4c-0.3,0.1-0.6,0.2-0.9,0.3C93.4,179.6,93.7,179.5,94,179.4z
		 M139.3,175.9C139.4,175.9,139.4,175.9,139.3,175.9C139.4,175.9,139.4,175.9,139.3,175.9z M137.4,175.2c0.1,0,0.2,0.1,0.4,0.1
		C137.6,175.3,137.5,175.3,137.4,175.2z M138,175.4c0.1,0,0.2,0.1,0.3,0.1C138.2,175.5,138.1,175.4,138,175.4z M138.5,175.6
		c0.1,0,0.2,0.1,0.2,0.1C138.7,175.6,138.6,175.6,138.5,175.6z M138.9,175.7c0.1,0,0.1,0,0.2,0.1C139,175.8,139,175.7,138.9,175.7z
		 M139.2,175.8c0.1,0,0.1,0,0.1,0C139.3,175.8,139.2,175.8,139.2,175.8z M151,193.6C151,193.6,151,193.6,151,193.6
		C151,193.6,151,193.6,151,193.6z M151.1,193.7C151.1,193.7,151.1,193.7,151.1,193.7C151.1,193.7,151.1,193.7,151.1,193.7z
		 M151.2,193.9c0,0,0.1,0.1,0.1,0.1C151.3,193.9,151.2,193.9,151.2,193.9z M151.4,194.1c0,0.1,0.1,0.1,0.1,0.2
		C151.5,194.2,151.4,194.2,151.4,194.1z M151.7,194.4c0.1,0.1,0.1,0.1,0.2,0.2C151.8,194.6,151.7,194.5,151.7,194.4z M152,194.8
		c0.1,0.1,0.1,0.2,0.2,0.2C152.1,195,152.1,194.9,152,194.8z M152.4,195.3c0.1,0.1,0.2,0.2,0.2,0.3
		C152.6,195.5,152.5,195.4,152.4,195.3z M152.9,195.8c0.1,0.1,0.2,0.2,0.3,0.3C153,196,153,195.9,152.9,195.8z M153.4,196.4
		c0.1,0.1,0.2,0.2,0.3,0.3C153.6,196.6,153.5,196.5,153.4,196.4z M154,197c0.1,0.1,0.2,0.2,0.3,0.3C154.2,197.2,154.1,197.1,154,197
		z M163.9,204.4c-0.2-0.1-0.4-0.2-0.7-0.4C163.5,204.2,163.7,204.3,163.9,204.4z M162.7,203.7c-0.2-0.1-0.4-0.2-0.6-0.4
		C162.3,203.5,162.5,203.6,162.7,203.7z M161.5,203c-0.2-0.1-0.4-0.3-0.6-0.4C161.1,202.8,161.3,202.9,161.5,203z M160.4,202.3
		c-0.2-0.1-0.4-0.3-0.6-0.4C160,202,160.2,202.2,160.4,202.3z M159.4,201.6c-0.2-0.1-0.3-0.3-0.5-0.4
		C159,201.3,159.2,201.4,159.4,201.6z M158.4,200.8c-0.2-0.1-0.3-0.3-0.5-0.4C158,200.6,158.2,200.7,158.4,200.8z M157.4,200.1
		c-0.2-0.1-0.3-0.3-0.5-0.4C157.1,199.8,157.3,200,157.4,200.1z M156.6,199.4c-0.1-0.1-0.3-0.2-0.4-0.4
		C156.3,199.1,156.4,199.2,156.6,199.4z M155.8,198.7c-0.1-0.1-0.3-0.2-0.4-0.4C155.5,198.4,155.6,198.5,155.8,198.7z M155,198
		c-0.1-0.1-0.2-0.2-0.4-0.3C154.8,197.7,154.9,197.8,155,198z M180.7,209.1c0.3,0,0.7,0,1,0c-0.1,0-0.1,0-0.2,0
		C181.2,209.1,181,209.1,180.7,209.1z M164.5,204.8c0.2,0.1,0.5,0.2,0.7,0.4C165,205,164.7,204.9,164.5,204.8z M165.8,205.4
		c0.2,0.1,0.5,0.2,0.7,0.3C166.3,205.7,166,205.5,165.8,205.4z M167.2,206c0.3,0.1,0.5,0.2,0.8,0.3
		C167.7,206.3,167.4,206.2,167.2,206z M168.6,206.6c0.3,0.1,0.6,0.2,0.9,0.3C169.1,206.8,168.9,206.7,168.6,206.6z M170,207.2
		c0.3,0.1,0.7,0.2,1,0.3C170.7,207.4,170.4,207.3,170,207.2z M171.5,207.6c0.5,0.2,1,0.3,1.6,0.4
		C172.6,207.9,172.1,207.8,171.5,207.6z M173.4,208.1c0.4,0.1,0.9,0.2,1.3,0.3C174.3,208.3,173.9,208.2,173.4,208.1z M175.3,208.5
		c0.4,0.1,0.7,0.1,1.1,0.2C176,208.6,175.7,208.6,175.3,208.5z M177.1,208.8c0.3,0,0.7,0.1,1,0.1
		C177.8,208.9,177.4,208.8,177.1,208.8z M178.9,209c0.3,0,0.7,0.1,1,0.1C179.6,209,179.2,209,178.9,209z M209.1,168.1l-7,9.4
		c0,0-3.8,4.9-9.5,6c-0.6-0.3-1-0.5-1.3-0.7c0.5-4.7,2.8-17.7,11.6-20.7c1.4,1.2,3.5,2.6,6.4,3.8
		C209.3,166.7,209.3,167.4,209.1,168.1z"/>
	<g>
		<path class="st1" d="M233.9,135.6l-19.6-20.4l-1.1-6.7c-4.8-6.1-11.1-11-17.7-15.1c-3.5-2.1-7.2-4.1-11-5.9
			c-49.5-13.8-70.4,5.9-70.4,5.9c0-8.8,5.1-14.4,5.1-14.4c-3.1-0.9-6.3-1.6-9.3-3.1c-2.8-1.4-5.4-3.1-8.4-3.9
			c-6.7-1.9-8.4,5.4-8.1,10.7c0.2,3.7,1.6,7.1,3.5,10.3c1,1.7,2.2,3.3,3.4,4.8c1.6,1.7,5.4,5.6,5.4,5.6c-5.8-1.7-11.6-4.3-16.1-8.5
			c-0.1-0.1-0.1-0.1-0.2-0.2c-2.5-2.5-4.5-5.5-5.7-8.7c-9.6-3.1-23.9-4.6-29.7-5.1c1.5,1.5,2.9,3.1,4.4,4.6
			c19.9,22,32.6,47.5,40.2,66.9c4.1,0.1,10,0.9,10,0.9C96.8,141.2,94.8,131,94.8,131c11.8-19.9,29.3-17.5,29.3-17.5
			s-9.1,12-9.2,18.3c0,0,8.8,21.1,36.4,25.4c-3.2,6.4-8.6,5.9-8.6,5.9c19.3,14.5,18,26.6,18,26.6c26.2,20.4,35.2,4.8,35.2,4.8
			c-10.7,0.6-15.9-7.8-15.9-7.8s-7.3-19.9,7.5-44c-13.8-1.4-35.4,0.9-35.4,0.9c13.6-7.8,40.7-6.9,40.7-6.9c-15.8-4.9-56-0.3-56-0.3
			c37.8-12.4,64.1-6.2,64.1-6.2c2.3-2.1,4.1-1.8,4.1-1.8s3.1,14.9,14.2,16.5c0,0-1.9,3.1-6.9,2.5c0,0,10.5,8.2,19.6,1
			c0.6-4.7-3.7-10.1-6.9-13.6C229.8,134,233.9,135.6,233.9,135.6z M172.5,118.5c1.8-2.5,7.3-5.2,7.3-5.2c-7.4-5.3-4.9-12.1-4.9-12.1
			c2-1.4,6-1,6-1c-2.3-8.3-12.9-6.9-12.9-6.9c3.9-3,9.3-3.8,13.7-1.6c2.3,1.1,4.1,2.8,5.7,4.7c3.2,2.9,9.5,8.2,12.2,9.6
			c3.5,1.8,5.2-0.2,5.2-0.2s5.6,3.2,2,6.9l0.1,0.1c4.1,2.9,5.2,7.1,5.2,7.1C192.4,108.5,172.5,118.5,172.5,118.5z"/>
		<path class="st2" d="M87.5,92.6C87.5,92.6,87.5,92.5,87.5,92.6c-0.6-0.7-1.1-1.4-1.6-2.2l0,0l0,0c-0.4-0.7-0.8-1.3-1.2-2l0,0
			c-0.4-0.8-0.7-1.5-1-2.3C74.1,83,59.8,81.5,54,81c1.5,1.5,2.9,3.1,4.4,4.6c0.7,0.7,1.3,1.5,2,2.2c6.6,1,18.6,3.2,28.8,6.7
			C88.6,93.9,88,93.2,87.5,92.6z"/>
		<g>
			<path class="st3" d="M220,111.9l-0.8-6.5c0-1-2.6-3.8-3.2-4.4c-3.4-3.4-7.1-6.5-10.9-9.3c-12.1-9.2-26-16.1-40.8-19.8
				c-8.9-2.2-18-3.2-27.2-2.9c-5.2,0.2-10.2,1.2-15.4,0.9c-5.7-0.3-11.4-1.7-16.7-4.1c-4.6-2.1-10.3-6-15.7-5c-5,1-6.6,6.8-7,12.2
				c0,0-26.8-5.9-55-2.9c40.9,43.2,59.5,99.3,63,110.7c31.2-12.4,49.1-4.9,49.1-4.9c9.7,5.5,11.6,17.7,11.6,17.7
				s12.2,16.7,32.8,15.4c14.1-0.9,19.8-8.9,21.9-13.8c0.8-1.8-0.4-3.9-2.3-4.1c1.3-2.6,3.2-6.9,2.8-10.6c0,0-5.4,7.3-14.1,8.2
				c-2.7-1-5-2.4-5.8-4.4c0,0,1.2-25.4,18.3-27.6c0,0,2.6,3.7,9.8,5.7c0.2,4.5-0.3,10.9-4,15.6c0,0,10.1-3.3,14.1-14.4
				c0.5,0,0.9,0,1.4,0c2.4-0.1,4.6-1.1,6.1-2.9c3.2-3.8,8.6-11.3,11.3-21.2C243.4,139.1,241.4,133.5,220,111.9z M232,148.4
				c-9.2,7.1-19.6-1-19.6-1c5,0.6,6.9-2.5,6.9-2.5c-11.1-1.6-14.2-16.5-14.2-16.5s-1.9-0.3-4.1,1.8c0,0-26.3-6.2-64.1,6.2
				c0,0,40.2-4.6,56,0.3c0,0-27.1-1-40.7,6.9c0,0,21.6-2.3,35.4-0.9c-14.8,24.1-7.5,44-7.5,44s5.3,8.5,15.9,7.8
				c0,0-9.1,15.6-35.2-4.8c0,0,1.3-12.1-18-26.6c0,0,5.4,0.5,8.6-5.9c-27.6-4.3-36.4-25.4-36.4-25.4c0.2-6.4,9.2-18.3,9.2-18.3
				s-17.5-2.4-29.3,17.5c0,0,1.9,10.2,13.7,22.3c0,0-5.8-0.8-10-0.9c-7.6-19.5-20.2-45-40.2-66.9c-1.4-1.6-2.9-3.1-4.4-4.6
				c5.8,0.5,20.1,2,29.7,5.1c1.2,3.3,3.2,6.2,5.7,8.7c0.1,0.1,0.1,0.1,0.2,0.2c4.4,4.2,10.2,6.9,16.1,8.5c0,0-3.7-3.9-5.4-5.6
				c-1.3-1.5-2.4-3.1-3.4-4.8c-1.8-3.1-3.3-6.6-3.5-10.3c-0.3-5.2,1.5-12.6,8.1-10.7c3,0.9,5.6,2.6,8.4,3.9c2.9,1.4,6.1,2.2,9.3,3.1
				c0,0-5.1,5.6-5.1,14.4c0,0,20.9-19.7,70.4-5.9c3.8,1.8,7.5,3.8,11,5.9c6.6,4.1,12.9,9,17.7,15.1l1.1,6.7l19.6,20.4
				c0,0-4.1-1.7-8.8-0.8C228.3,138.3,232.6,143.7,232,148.4z"/>
			<path class="st3" d="M206.9,112.8l-0.1-0.1c3.6-3.7-2-6.9-2-6.9s-1.7,2-5.2,0.2c-2.7-1.3-9-6.7-12.2-9.6
				c-1.6-1.9-3.5-3.5-5.7-4.7c-4.5-2.3-9.8-1.4-13.7,1.6c0,0,10.6-1.4,12.9,6.9c0,0-4-0.3-6,1c0,0-2.6,6.8,4.9,12.1
				c0,0-5.4,2.7-7.3,5.2c0,0,19.9-10,39.6,1.4C212.1,119.9,211,115.7,206.9,112.8z"/>
		</g>
		<path class="st0" d="M184.4,111.8c0.8-0.2,1.7-0.4,2.7-0.5c-0.7-0.6-1.2-1.4-1.2-2.3c0-1.1,0.6-2,1.5-2.5c-1.2-0.8-2.2-1.6-3-2.4
			c-1.4,0.8-2.4,2.2-2.4,3.8C181.9,109.6,182.9,111,184.4,111.8z"/>
		<path class="st2" d="M114.9,131.8c0.2-6.4,9.2-18.3,9.2-18.3c-13.9,7.8-18.2,18-18.2,18c23.1,35.6,45.3,25.7,45.3,25.7
			C123.7,152.8,114.9,131.8,114.9,131.8z"/>
		<path class="st2" d="M180,186.7c-3-24.7,15-42.6,15-42.6c-2-0.7-4.6-1.1-7.5-1.4C172.7,166.7,180,186.7,180,186.7z"/>
		<path class="st2" d="M184.5,87.5c-16.8-7.9-36.1-11.7-54.1-7.4c-5.3,1.3-16.3,13.2-16.3,13.2S135,73.7,184.5,87.5z"/>
		<path class="st2" d="M212.4,147.4c5,0.6,6.9-2.5,6.9-2.5c-11.1-1.6-14.2-16.5-14.2-16.5c-3.2,10.4,3.5,15.8,3.5,15.8
			c-3.7,1-6.9-2.2-6.9-2.2c3.2,9.2,12,14.3,22,13.2c1.6-0.2,3.2-0.5,4.6-1.4c2.4-1.6,3.4-3.4,3.7-5.4
			C222.8,155.6,212.4,147.4,212.4,147.4z"/>
		<path class="st2" d="M198.1,108.5c0.9,0.6,1.9,1.1,2.9,1.3c1.1,0.2,2.6,0.2,3.4-0.7c0.8-0.9,0.6-2.3,0.4-3.3c0,0-1.7,2-5.2,0.2
			c-2.7-1.3-9-6.7-12.2-9.6c1,1.2,2,2.4,2.9,3.7C192.6,103.1,194.9,106.4,198.1,108.5z"/>
		<path class="st2" d="M82.3,72.8"/>
	</g>
</g>
</svg>
