<?xml version="1.0" encoding="UTF-8"?>
<svg width="200px" height="200px" viewBox="0 0 200 200" version="1.1" xmlns="http://www.w3.org/2000/svg" xmlns:xlink="http://www.w3.org/1999/xlink">
    <!-- Generator: Sketch 54.1 (76490) - https://sketchapp.com -->
    <title>lagrange</title>
    <desc>Created with Sketch.</desc>
    <g id="lagrange" stroke="none" stroke-width="1" fill="none" fill-rule="evenodd">
        <g id="lagrange_BGL">
            <g id="lagrange" transform="translate(0.000000, 13.000000)">
                <g id="g10" transform="translate(99.999998, 86.803740) scale(-1, 1) rotate(-180.000000) translate(-99.999998, -86.803740) translate(0.000000, 0.043617)" fill-rule="nonzero">
                    <g id="g12">
                        <path d="M194.52149,66.57788 L193.846413,67.0679111 L193.005291,67.1062289 L192.248905,67.1401852 C192.248905,67.1401852 191.086911,67.1931447 190.730525,67.2096556 C190.15202,67.2912756 185.161989,68.2327086 181.689092,76.4358236 C179.835821,80.8149513 178.529591,84.8725835 177.698126,88.8140165 L184.536132,101.368845 L186.661366,105.272895 L176.218999,105.272895 C175.911211,111.652957 175.576631,117.6271 173.916195,121.243299 L170.405292,128.878501 C170.024606,140.134576 166.872893,147.81495 164.269466,152.290339 C163.4028,153.779747 162.461055,155.149529 161.465105,156.39875 C163.52523,158.713392 164.189404,160.847036 164.363547,161.561055 L164.363547,161.566974 L164.363547,161.566974 L164.397504,161.703734 L164.43551,161.860744 L164.43551,161.860744 L165.165105,164.876943 L165.599373,166.665105 L166.260432,169.397504 L163.405603,169.891585 L161.537379,170.216195 L157.720245,170.876943 C124.881617,177.184731 114.166664,169.742052 111.085667,166.247971 C111.050153,166.207784 111.017754,166.165728 110.983486,166.122737 L78.7607457,166.122737 L79.7302161,162.748594 L86.0844215,140.637068 L77.5517115,124.818065 C75.6725838,124.273829 73.8753876,123.65171 72.1669764,122.953891 C72.0302163,124.233642 71.7464157,125.53333 71.296883,126.844234 C68.7943908,134.142987 63.6878489,135.737691 60.8663536,136.038314 C56.9663537,136.455448 53.1003102,134.883797 50.779438,131.941118 C48.749843,129.362925 47.6984412,125.29034 49.3009333,121.327723 C47.2548275,119.728034 43.7501547,117.514016 41.1931454,116.540184 C36.8271019,114.875387 27.4369775,108.707474 26.2755445,100.259811 C25.6150149,95.4520225 27.758099,90.9376924 32.1514011,87.8744526 C34.7451705,86.0688452 37.6912763,84.9788141 40.9504663,84.6140166 C39.723675,82.7386272 38.3950146,81.665107 36.5012452,80.1358235 C35.9862919,79.7205588 35.4526471,79.2906522 34.8766346,78.805917 C33.1436129,77.352646 30.6268217,75.2012442 28.7815258,73.3249203 C23.0395633,67.4831759 19.472959,60.8791262 19.472959,56.0943911 L19.472959,55.6794379 L19.5095945,55.4616809 L20.7969465,48.0277247 L2.16364792,14.2962613 L0,10.3800309 L64.300933,10.3800309 L70.9227397,2.9526884 L73.5523346,0 L75.4348891,3.44554509 L79.2370697,10.4043611 L177.326475,10.4043611 L178.098126,11.8277879 L198.924917,50.0881607 L199.051708,50.3193134 L199.129279,50.5710268 C202.271023,60.8327088 194.839871,66.3495311 194.52149,66.57788" id="path14" fill="#A4A9A8"></path>
                        <path d="M196.491895,51.3289707 C199.126475,59.929282 192.876319,64.4473504 192.876319,64.4473504 L192.120867,64.4809953 L190.493453,64.5557616 C189.949216,64.6118364 183.356382,65.4800607 179.144544,75.4261663 C176.802799,80.9576304 175.52741,85.5015555 174.80903,89.2168202 L182.104045,102.611212 L173.595323,102.611212 C173.557317,103.380683 173.502799,104.491275 173.502799,104.491275 C173.199061,110.86386 172.911834,116.880682 171.403111,120.160745 L167.680993,128.260744 C167.40093,139.252021 164.377254,146.680059 161.873205,150.984731 C160.703111,152.995323 159.402177,154.777255 158.005915,156.282239 C157.913392,156.380993 157.823672,156.468843 157.731149,156.563859 C160.771024,159.019622 161.549529,161.604357 161.685354,162.169155 L162.488158,165.484108 L162.92118,167.271958 L161.054202,167.595946 L157.235822,168.257317 C124.89252,174.470089 115.333954,166.96822 113.175698,164.520557 C112.879125,164.183173 112.65358,163.826476 112.476321,163.46199 L82.3797487,163.46199 L89.0242968,140.33738 L79.4464155,122.580371 C76.0922099,121.683486 72.57383,120.422738 69.231774,118.63115 C69.7420543,120.944545 69.5735185,123.422427 68.6866026,126.00685 C66.7694687,131.600308 63.2124595,133.110589 60.565419,133.393143 C57.617444,133.708719 54.7046715,132.531772 52.9647962,130.324296 C51.138628,128.00685 50.4037371,124.154514 52.6878492,120.722115 C51.1258554,119.040807 45.9464163,115.491274 42.2003105,114.062302 C38.4803729,112.644857 29.9912454,107.114016 29.0012765,99.9093433 C28.4712142,96.0495303 30.1607469,92.5420538 33.7579431,90.0355118 C37.0109025,87.7697797 40.9224289,86.8320851 45.4158867,87.2267891 C45.1532699,86.7015555 44.8890955,86.1816178 44.6373821,85.6510882 C42.7732077,81.7345774 40.8816189,80.2052939 38.2619928,78.0915868 C37.7551392,77.682241 37.2305287,77.2576305 36.6766346,76.7947021 C34.9878496,75.3772567 32.5380054,73.2869141 30.7737064,71.4906524 C25.5787533,66.2052943 22.2224294,60.1607462 22.2224294,56.0943911 L22.2224294,55.9012447 L23.6628655,47.5707153 L4.58856686,13.0417754 L65.5588769,13.0417754 L73.0052941,4.68909646 L77.5803719,13.0663548 L175.666351,13.0663548 L196.491895,51.3289707" id="path16" fill="#231F20"></path>
                        <path d="M174.661989,22.6461365 C174.436133,22.9794698 173.918999,23.025825 173.442675,23.025825 L170.021803,23.025825 C168.756071,23.025825 168.177877,22.6707159 167.53956,21.5087222 L167.185666,20.8635197 C166.912457,20.3694387 166.69065,19.8619933 166.913391,19.5027721 C167.125853,19.1610587 167.630837,19.113364 168.145167,19.113364 L171.477877,19.113364 L171.014949,18.2754201 L165.520245,18.2754201 L165.449529,18.1298749 C165.292831,17.793769 165.139248,17.3691896 165.348594,17.0532706 C165.567909,16.7239871 166.066039,16.6778501 166.57227,16.6778501 L170.296569,16.6778501 C171.555447,16.6778501 172.160743,17.0451086 172.789715,18.1921802 C172.789715,18.1909653 173.233329,18.9965416 173.233329,18.9965416 C173.504046,19.4891584 173.723049,19.9925852 173.498438,20.3544855 C173.285042,20.6990961 172.776008,20.7464481 172.260432,20.7464481 L168.92741,20.7464481 L169.346725,21.5071334 L174.528656,21.5071334 L174.59688,21.6554823 C174.724606,21.9333016 174.869155,22.3386287 174.661989,22.6461365 Z M96.4769446,21.4214636 L95.8959478,20.3844232 L92.7052936,20.3844232 L93.3292812,21.518068 L96.328658,21.518068 C96.4196238,21.518068 96.4781907,21.5140805 96.5171315,21.5087222 C96.5074742,21.4837689 96.4999976,21.4623359 96.4769446,21.4214636 L96.4769446,21.4214636 Z M97.5124586,23.025825 L93.6968824,23.025825 C93.5077858,23.0461365 92.2884712,23.1171022 91.5127703,21.7810586 L88.9102782,17.0426787 L88.7087205,16.6778501 L90.6697797,16.6778501 L90.7417423,16.8084419 L91.8841099,18.8878811 L95.0598107,18.8878811 L94.0336425,17.0560743 L93.827412,16.6888158 L95.7461035,16.6888158 L95.8190007,16.8164793 L98.4710256,21.5248904 C98.6398729,21.8323982 98.8392499,22.2800929 98.6208698,22.6311832 C98.4018667,22.9838312 97.8834866,23.025825 97.5124586,23.025825 L97.5124586,23.025825 Z M159.736756,21.4198749 C159.736756,21.4190337 159.350463,20.7152954 159.350463,20.7152954 C159.202177,20.4445478 159.078189,20.3844232 158.691896,20.3844232 L155.967597,20.3844232 L156.59065,21.518068 L159.590027,21.518068 C159.680993,21.518068 159.73956,21.5140805 159.779124,21.5087222 C159.769466,21.4837689 159.761055,21.4595633 159.736756,21.4198749 L159.736756,21.4198749 Z M160.773516,23.025825 L155.458563,23.025825 L155.385043,22.8938001 L152.170713,17.0426787 L151.971024,16.6778501 L153.930526,16.6778501 L154.002488,16.8084419 L155.145479,18.8878811 L156.168843,18.8878811 L157.30903,16.8084419 L157.381304,16.6778501 L160.030837,16.6778501 L159.756071,17.0670401 L158.467286,18.8878811 L158.773516,18.8878811 C159.818376,18.8878811 160.497504,19.2781304 160.977878,20.1533328 L161.733329,21.5248904 C161.900619,21.8323982 162.099061,22.2800929 161.882862,22.6311832 C161.663859,22.9838312 161.143921,23.025825 160.773516,23.025825 L160.773516,23.025825 Z M143.069778,22.8938001 L139.852956,17.0426787 L139.654202,16.6778501 L146.458252,16.6778501 L146.530526,16.8084419 L147.135822,17.9093765 L147.336133,18.2754201 L142.514638,18.2754201 L143.038626,19.2277565 L145.817442,19.2277565 L145.889404,19.3585665 L146.437691,20.3572892 L146.637691,20.7233328 L143.859186,20.7233328 L144.302489,21.5289091 L149.065417,21.5289091 L149.138937,21.6610586 L149.685978,22.6597814 L149.887224,23.025825 L143.140495,23.025825 L143.069778,22.8938001 Z M135.069779,22.8938001 L133.898127,20.7572892 L130.101243,20.7572892 L131.146414,22.6597814 L131.34766,23.025825 L129.36386,23.025825 L129.290339,22.8938001 L126.076321,17.0426787 L125.876321,16.6778501 L127.858875,16.6778501 L127.931149,16.8084419 L129.24143,19.1938001 L133.038003,19.1938001 L131.853891,17.0426787 L131.655448,16.6778501 L133.650464,16.6778501 L133.722427,16.8084419 L136.936757,22.6597814 L137.136757,23.025825 L135.141741,23.025825 L135.069779,22.8938001 Z M117.124919,22.8938001 L116.553268,21.8501864 L116.350776,21.4837689 L119.117131,21.4837689 L116.678813,17.0426787 L116.477256,16.6778501 L118.461056,16.6778501 L118.53333,16.8084419 L121.101243,21.4837689 L123.880059,21.4837689 L123.953268,21.6173826 L124.526165,22.6597814 L124.727411,23.025825 L117.198128,23.025825 L117.124919,22.8938001 Z M110.658253,22.8938001 L108.969468,19.8212456 C108.904359,19.7014948 108.810589,19.512149 108.695947,19.2741117 C108.655449,19.3395945 108.619935,19.4034886 108.571025,19.4725852 C108.575075,19.464797 106.230215,22.912772 106.230215,22.912772 L106.154203,23.025825 L104.903736,23.025825 L104.831462,22.8938001 L101.615885,17.0426787 L101.415885,16.6778501 L103.259811,16.6778501 L103.332085,16.8084419 L105.068222,19.9722425 C105.117131,20.0579123 105.199063,20.2158873 105.304982,20.4323671 C105.307786,20.4267596 105.311835,20.4187222 105.315885,20.4118063 C105.318689,20.4065727 107.757318,16.7894388 107.757318,16.7894388 L107.833331,16.6778501 L109.085356,16.6778501 L109.15763,16.8084419 L112.371648,22.6597814 L112.571648,23.025825 L110.729281,23.025825 L110.658253,22.8938001 Z M85.1619916,21.4190337 L84.819001,20.795607 C84.6713374,20.5286288 84.542054,20.460716 84.159811,20.460716 L81.435512,20.460716 L82.0155743,21.518068 L85.0133935,21.518068 C85.1062284,21.518068 85.1632377,21.5140805 85.2034247,21.5087222 C85.1947019,21.4837689 85.1850446,21.4595633 85.1619916,21.4190337 L85.1619916,21.4190337 Z M86.1987517,23.025825 L80.8834871,23.025825 L80.8109014,22.8938001 L77.5959482,17.0426787 L77.3959482,16.6778501 L79.3545152,16.6778501 L79.4274123,16.8084419 L80.6071631,18.9557628 L84.2358234,18.9557628 C85.2794371,18.9557628 85.9594994,19.3448282 86.4404963,20.2212456 L87.1576302,21.5248904 C87.326166,21.8323982 87.5242969,22.2800929 87.3071629,22.6311832 C87.0881598,22.9838312 86.5697798,23.025825 86.1987517,23.025825 L86.1987517,23.025825 Z" id="path18" fill="#DD1C2B"></path>
                        <path d="M117.549218,35.6853574 C117.51277,35.6009337 117.4271,35.5451705 117.331773,35.5451705 L113.646726,35.5451705 C113.562614,35.5451705 113.48224,35.5900303 113.439873,35.6635505 C113.399063,35.7358247 113.401866,35.8255443 113.447972,35.8947032 L120.028657,45.9772574 C120.072271,46.0436126 120.148595,46.0816188 120.227411,46.0816188 L121.574763,46.0816188 C121.652022,46.0816188 121.724608,46.0448587 121.76791,45.9809957 C121.81277,45.9183789 121.820869,45.8395627 121.79252,45.7688462 L117.549218,35.6853574 Z M115.301555,50.7302168 L115.933019,47.284734 C115.943611,47.2246094 115.930215,47.1651079 115.894701,47.1133945 L101.322116,26.9707781 L107.472895,26.9707781 L110.43925,31.3320864 C110.484421,31.3962609 110.55763,31.4355132 110.636757,31.4355132 L115.323362,31.4355132 C115.402178,31.4355132 115.475698,31.397507 115.519312,31.3348902 C115.562614,31.2710273 115.571025,31.1922111 115.540807,31.1211207 L113.805916,26.9707781 L120.058876,26.9707781 L128.742053,50.768223 L115.301555,50.7302168 L115.301555,50.7302168 Z" id="path20" fill="#FFFFFF"></path>
                        <path d="M99.8190006,40.7557622 L96.2579415,40.7557622 C96.175387,40.7557622 96.0993745,40.7978183 96.0563839,40.864485 C96.0143278,40.9352015 96.0115241,41.0196251 96.0504649,41.0918993 L99.0414305,46.5352013 C99.0828636,46.6099677 99.1623028,46.6560736 99.2495302,46.6560736 L102.809343,46.6560736 C102.893767,46.6560736 102.970091,46.613706 103.013393,46.5457932 C103.054203,46.4763228 103.057007,46.3922107 103.019001,46.3211826 L100.0271,40.8753884 C99.9862903,40.8018681 99.906228,40.7557622 99.8190006,40.7557622 L99.8190006,40.7557622 Z M101.655449,38.6327093 C101.60654,38.6872264 101.585979,38.7582545 101.598128,38.8274134 C101.611835,38.8968838 101.658253,38.9554507 101.723673,38.9894071 L106.40872,41.2890955 L109.828346,47.5161982 L109.202178,50.7710268 L92.6190008,50.7710268 L93.3314618,47.8454817 C93.345169,47.7909645 93.3367578,47.7364474 93.3109011,47.6875377 L81.9305275,26.9707781 L88.2943903,26.9707781 L93.5411192,36.5208714 C93.5819291,36.5968838 93.6619914,36.6433013 93.7492188,36.6433013 L97.3102779,36.6433013 C97.3934555,36.6433013 97.4688449,36.6012452 97.5124586,36.5317748 C97.5545147,36.4635505 97.5573184,36.3794383 97.5186892,36.3084103 L92.3875366,26.9707781 L98.5426767,26.9707781 L103.714328,36.3822421 L101.655449,38.6327093 L101.655449,38.6327093 Z" id="path22" fill="#FFFFFF"></path>
                        <path d="M146.749529,50.7710268 L140.405604,39.217756 C140.353891,39.1227405 140.236757,39.076323 140.130526,39.1077872 C140.021492,39.1389398 139.953579,39.2398744 139.964482,39.3485971 L141.156694,50.7710268 L132.560433,50.7738305 L133.356694,46.4398742 C133.364483,46.3894069 133.356694,46.3376935 133.332084,46.2912761 L122.717754,26.9707781 L128.664483,26.9707781 L135.081928,38.6548277 C135.135199,38.7498433 135.250775,38.7962607 135.359498,38.7647965 C135.465729,38.7336439 135.535199,38.6314632 135.524296,38.5239866 L134.298127,26.9707781 L139.623049,26.9707781 L152.696258,50.7710268 L146.749529,50.7710268" id="path24" fill="#FFFFFF"></path>
                        <path d="M174.466351,50.7738305 L175.072893,47.8046717 C175.08255,47.7529583 175.07445,47.7012449 175.048594,47.6548275 L163.691273,26.9707781 L176.705915,26.9707781 L178.961989,31.0787843 L172.702176,31.0787843 C172.618064,31.0787843 172.543298,31.1211207 172.499684,31.1894073 C172.457317,31.2573201 172.454824,31.3429899 172.493142,31.4137064 L175.783173,37.4024913 C175.822737,37.4772576 175.903111,37.5236751 175.990027,37.5236751 L181.414326,37.5236751 L183.671646,41.6345784 L178.499372,41.6345784 C178.416506,41.6345784 178.340182,41.676946 178.297815,41.7436127 C178.254513,41.8115254 178.251709,41.8987528 178.291273,41.9694694 L180.799372,46.5352013 C180.840182,46.6099677 180.918687,46.6560736 181.006226,46.6560736 L187.351397,46.6560736 L189.60903,50.7710268 L174.466351,50.7738305" id="path26" fill="#FFFFFF"></path>
                        <path d="M72.0445465,35.5249212 L72.4261664,31.597507 C72.4308393,31.5485973 72.4208705,31.4996877 72.397506,31.4557625 L68.5629266,24.4426474 C68.5180668,24.3623358 68.4311509,24.3118374 68.3364469,24.3118374 L63.3361355,24.3118374 C63.2461043,24.3118374 63.1619922,24.3551707 63.1161978,24.4314636 C63.0688458,24.5049527 63.0666651,24.6003732 63.1093442,24.676666 L74.2510885,44.960435 C74.2953252,45.0423665 74.3828642,45.0925222 74.4775682,45.0925222 L79.4772566,45.0925222 C79.5675993,45.0925222 79.6507768,45.0476624 79.6968827,44.9728961 C79.7439232,44.8981297 79.746727,44.8040487 79.7043594,44.7277247 L76.5651071,39.0124601 L85.2345773,39.0124601 L89.2264775,46.2775689 L87.8386271,50.7249209 L65.7236744,50.738628 L66.466042,46.6831764 C66.4769454,46.6286593 66.4672881,46.5744537 66.4408083,46.5239864 L53.5900298,23.1308405 L55.1367587,18.6834263 L68.1112133,18.6834263 C68.1859796,18.6834263 68.2560731,18.6494699 68.3049827,18.5965416 L71.8417428,14.6285978 L83.2560727,35.5249212 L72.0445465,35.5249212" id="path28" fill="#FFFFFF"></path>
                        <path d="M26.5885352,24.3118374 C26.4973825,24.3118374 26.4142673,24.3579745 26.3681613,24.4314636 C26.3211831,24.5077564 26.3191271,24.6003732 26.3625539,24.676666 L40.8884725,50.7738305 L28.974641,50.738628 L29.71975,46.6831764 C29.7299681,46.6286593 29.71975,46.5716499 29.6924915,46.5227403 L14.3128034,18.6834263 L47.5822418,18.6834263 L50.6732075,24.3118374 L26.5885352,24.3118374" id="path30" fill="#FFFFFF"></path>
                        <path d="M158.667286,39.1647965 L158.555448,34.8199368 C158.552956,34.7844228 158.544856,34.7492203 158.528345,34.7193138 L156.595946,31.2003107 C156.555136,31.1255132 156.47632,31.0787843 156.387847,31.0787843 L152.532706,31.0787843 C152.451398,31.0787843 152.374763,31.1211207 152.33146,31.1894073 C152.289093,31.2573201 152.287847,31.3429899 152.325853,31.4137064 L160.632083,46.5352013 C160.672893,46.6099677 160.752021,46.6560736 160.838937,46.6560736 L164.690339,46.6560736 C164.772893,46.6560736 164.849217,46.613706 164.892831,46.5457932 C164.935198,46.4763228 164.938002,46.3922107 164.898438,46.3211826 L162.594388,42.1230519 L168.954824,42.1230519 L171.915884,47.5133945 L171.251709,50.7710268 L154.361678,50.7738305 L154.907161,47.801868 C154.91713,47.7501546 154.908719,47.6984412 154.884108,47.6548275 L145.312457,30.2286597 L146.093454,26.9707781 L156.220557,26.9707781 C156.285666,26.9707781 156.348283,26.9424292 156.3947,26.8947034 L159.04579,24.0778187 L167.329902,39.1647965 L158.667286,39.1647965" id="path32" fill="#FFFFFF"></path>
                        <path d="M49.2641732,35.5193138 L45.5601235,35.5193138 C45.4738306,35.5193138 45.3940799,35.5629275 45.3532699,35.6376938 C45.3112138,35.709968 45.3143291,35.7996876 45.3607465,35.8688465 L51.9753881,45.9672886 C52.0190018,46.0327091 52.0947027,46.0735191 52.1747651,46.0735191 L53.5283476,46.0735191 C53.6059177,46.0735191 53.680684,46.0355129 53.7242977,45.972896 C53.7685345,45.9105908 53.7766342,45.8286593 53.7467276,45.7579428 L49.4831763,35.6607468 C49.4473508,35.5738309 49.3613695,35.5193138 49.2641732,35.5193138 L49.2641732,35.5193138 Z M53.64517,31.3115257 L58.5732073,35.5193138 L55.487226,35.5152639 C55.410279,35.5152639 55.3386279,35.552024 55.2937681,35.6118371 C55.2495313,35.6716502 55.2386279,35.7504664 55.2644846,35.8214944 L60.7370701,50.768223 L47.2476624,50.7738305 L47.8834879,47.3174443 C47.8937683,47.2548275 47.8794381,47.1937683 47.8436125,47.1457932 L33.1735194,26.9298747 L39.3548277,26.9298747 L42.3383167,31.3009338 C42.3819304,31.3632391 42.4554507,31.402803 42.5352014,31.402803 L47.2479739,31.402803 C47.3264786,31.402803 47.3999988,31.3660428 47.443924,31.3009338 C47.4881608,31.238317 47.4956374,31.1591893 47.4660424,31.0887531 L45.7233633,26.9298747 L52.009656,26.9298747 L53.5785033,31.2180678 C53.5928336,31.2545164 53.6152635,31.2872266 53.64517,31.3115257 L53.64517,31.3115257 Z" id="path34" fill="#FFFFFF"></path>
                        <path d="M120.673829,150.45794 C116.686913,152.552956 117.071648,146.820869 117.470714,146.837691 C123.07009,147.078501 126.605604,145.48037 126.605604,145.48037 C118.058253,150.552644 127.559498,151.235199 127.559498,151.235199 C126.683174,151.634576 125.866664,151.887535 125.118065,152.048283 C116.892209,155.442675 138.113704,157.697504 138.113704,157.697504 C134.025853,158.465728 125.763237,157.13146 125.763237,157.13146 C122.754514,158.067597 118.483175,157.697504 118.483175,157.697504 C118.483175,157.697504 115.704358,156.62118 112.811212,153.518999 L112.811212,153.518999 C116.063549,152.089093 120.910589,153.624918 120.910589,153.624918 C120.910589,153.624918 121.247037,152.095012 120.673829,150.45794 L120.673829,150.45794 Z M125.30062,142.991585 C117.709966,146.459498 114.860745,144.133953 114.860745,144.133953 C118.249218,136.444545 126.587847,139.151087 126.587847,139.151087 C113.7352,144.078813 125.30062,142.991585 125.30062,142.991585 Z M114.773517,149.99875 C114.773517,149.99875 113.546103,150.795012 113.178502,151.134576 C113.178502,151.134576 112.428969,150.574451 112.421804,150.009654 C112.421804,150.009654 113.264483,147.748594 114.860745,146.837691 C114.860745,146.837691 115.1352,148.982551 114.773517,149.99875 L114.773517,149.99875 Z" id="path36" fill="#FFFFFF"></path>
                        <path d="M111.30872,144.402489 C107.388471,149.440183 109.009032,151.271647 109.009032,151.271647 L108.266352,153.234887 L111.240807,156.178812 C111.336134,156.945479 111.623362,157.503423 111.902178,157.887223 L89.9588763,157.887223 L94.8785023,140.771336 L95.1822406,139.709031 L94.657007,138.733641 L50.6271015,57.1068522 L88.8654183,57.1112135 C90.1513996,63.0454813 96.2626144,66.2352008 96.5999976,66.4068519 L97.5906518,66.884422 L102.281617,69.1473503 C102.877568,70.1623035 103.794701,72.1520231 104.793455,74.927724 L89.6785024,74.927724 L84.9408078,74.927724 L87.1227393,78.999375 L117.843611,136.316819 C111.11277,140.216196 111.30872,144.402489 111.30872,144.402489" id="path38" fill="#FFFFFF"></path>
                        <path d="M172.558251,97.0367577 L147.648906,97.0367577 L136.406227,76.4140168 L135.596258,74.927724 L133.860121,74.927724 L128.675386,74.927724 C128.388159,73.0227396 128.618377,71.9258549 128.647972,71.803425 L129.31495,69.7299048 L129.701243,68.5292818 L128.64548,67.7947024 L126.744234,66.4744532 C126.495324,66.2214937 125.326477,64.8538925 125.262302,61.5485966 C125.232707,59.9999985 124.723673,58.4869144 124.007785,57.1140173 L150.812769,57.1165095 L172.558251,97.0367577" id="path40" fill="#FFFFFF"></path>
                        <polyline id="path42" fill="#A4A9A8" points="135.593455 74.9006212 140.868221 69.7922101 153.036445 91.9903404 147.760432 97.0953247 135.593455 74.9006212"></polyline>
                        <path d="M124.247037,57.1859799 L150.468221,57.1859799 L144.705292,63.112148 L125.57009,63.112148 C125.499374,62.6495311 125.454202,62.1283474 125.442053,61.5473505 C125.414639,60.0242976 124.931773,58.5426777 124.247037,57.1859799" id="path44" fill="#A4A9A8"></path>
                        <path d="M62.0155748,63.112148 L102.489717,139.079747 L90.1077859,158.106227 L94.9669758,139.669155 L50.7046716,57.1859799 L88.6993747,57.1859799 C89.2386271,59.6299051 90.5806831,61.6112134 92.0065398,63.112148 L62.0155748,63.112148" id="path46" fill="#A4A9A8"></path>
                        <path d="M59.9373817,102.241742 C45.8651079,93.9573185 40.1214943,97.2797483 39.1077872,98.0376923 C38.9566968,98.1504648 38.4261673,98.7906517 38.6015567,99.8432997 C38.8199367,101.151088 40.4454819,104.644857 50.7956374,108.868222 C57.9317743,111.77819 62.1903411,115.397816 63.4532694,119.62305 C64.7875373,124.091274 62.1591885,127.420558 62.0461044,127.560744 L62.0261667,127.545791 C61.2133941,128.579125 60.0246091,129.139872 58.8252322,128.914015 C56.9342665,128.558875 55.7327089,126.389716 56.1414316,124.071025 C56.4579425,122.280994 57.6426777,120.926788 59.0361356,120.565418 C58.1467275,117.774452 54.7149519,115.091586 49.1056062,112.803735 C39.8925224,109.045169 34.8411206,104.858564 34.0959493,100.361991 C33.6429898,97.6348885 34.9451705,95.5710256 36.1999991,94.6342655 C38.3928339,92.9953248 44.2993758,90.2626146 55.8401855,95.3065397 C54.3467276,93.2230506 51.7837993,89.3277236 49.2186904,83.9364465 C45.2504662,75.5947022 39.3984414,73.7847334 34.5918994,68.8928332 C30.3015569,64.5271012 27.8188155,60.0190016 27.3329277,57.1423662 C27.8650772,57.8881605 28.8604977,58.3915873 30.0056067,58.3915873 C31.4255444,58.3915873 32.6177562,57.6186901 32.9747655,56.5654191 C33.3314633,57.6186901 34.5246097,58.3915873 35.9439243,58.3915873 C37.0831766,58.3915873 38.0750769,57.8922104 38.6084102,57.1532696 C39.1417436,57.8922104 40.1339554,58.3915873 41.2728962,58.3915873 C42.8644849,58.3915873 44.1725846,57.4199363 44.3352014,56.1735188 L44.3654195,56.1735188 C44.5205596,57.6267898 44.636759,61.2383162 41.617756,62.6996869 C41.6109024,62.6996869 41.6049834,62.7012445 41.5975067,62.7012445 C40.8448588,63.0563847 39.888784,63.2619922 38.6887841,63.2495311 C38.7146408,63.2781916 38.6613697,63.2196246 38.6887841,63.2495311 C37.1149523,63.3149517 35.1255443,63.0398738 32.5971954,62.2588769 C32.5971954,62.2588769 34.669158,64.6442351 40.3339554,64.9806837 C43.8725846,68.5975061 50.1239863,74.3956368 55.1666653,77.2084093 L76.057319,116.207474 C69.6806836,113.434265 63.283799,109.066975 59.9373817,102.241742" id="path48" fill="#DD1C2B"></path>
                        <path d="M150.935199,115.910277 C150.935199,115.910277 163.370089,124.311835 154.835199,147.786289 L154.558875,148.744233 C150.981616,142.51713 142.722738,142.9947 142.722738,142.9947 C152.357317,146.827411 150.595012,156.227099 150.595012,156.227099 C147.69657,156.047037 146.531772,156.940806 146.175074,157.31308 C154.560432,158.699996 158.180058,164.541117 158.180058,164.541117 C157.559498,164.268843 154.885666,163.887846 148.589093,164.678501 C147.157629,164.915261 145.78442,165.115884 144.47414,165.285354 C144.320557,165.310276 144.169467,165.334887 144.013081,165.362301 C138.571025,166.290962 133.732084,166.169778 130.552022,165.889404 C117.59034,164.998127 116.134265,159.394389 117.572583,159.394389 C119.653268,159.394389 122.382863,161.204357 122.382863,161.204357 C121.343299,159.508719 121.343299,158.489716 126.672271,160.752644 C132.003735,163.014015 134.862925,162.109965 134.862925,162.109965 C134.083174,161.769778 131.223984,160.299373 131.223984,160.299373 C136.135199,159.020868 138.113704,157.697504 138.113704,157.697504 C138.113704,157.697504 116.892209,155.442675 125.118065,152.048283 C125.866664,151.887535 126.683174,151.634576 127.559498,151.235199 C127.559498,151.235199 118.058253,150.552644 126.605604,145.48037 L129.452333,145.819934 C128.028969,144.122115 125.30062,142.991585 125.30062,142.991585 C125.30062,142.991585 115.264483,143.935199 124.290963,140.077255 C127.554202,141.039249 130.052333,143.557006 130.052333,143.557006 C130.052333,143.557006 135.841118,142.9947 138.317754,141.798127 C138.317754,141.798127 134.741741,141.078813 131.712458,139.641741 C131.712458,139.641741 139.206539,135.217131 120.252022,128.133642 L101.938315,94.4003092 C105.068222,94.7912749 108.135511,95.1566954 110.045792,95.3295926 C110.045792,95.3295926 113.342053,117.604981 122.28224,119.761368 C122.28224,119.761368 115.815885,113.055449 114.569468,97.2448574 C113.322739,81.4352005 107.788471,67.5442351 105.454826,65.3872258 L99.4971938,62.512148 C99.4971938,62.512148 95.6333309,61.1975063 95.0623029,57.5370702 C95.0623029,57.5370702 98.2202468,60.8965717 101.669156,57.5370702 C101.669156,57.5370702 104.005605,60.8965717 107.449842,57.5370702 C107.449842,57.5370702 109.612147,61.3691573 113.200309,57.0579425 C113.200309,57.0579425 118.967287,56.8183786 119.090028,63.2834875 C119.2109,69.7514001 122.556072,70.4183783 122.556072,70.4183783 C122.556072,70.4183783 120.706539,76.1663532 126.220246,85.2672876 C131.734576,94.3722718 135.91495,104.19034 135.91495,104.19034 C135.91495,104.19034 137.332707,100.359188 136.359498,97.9654181 C136.359498,97.9654181 155.646102,101.106851 159.49875,122.66386 C159.49875,122.66386 156.714326,117.347349 150.935199,115.910277" id="path50" fill="#DD1C2B"></path>
                        <path d="M165.927099,116.699686 C165.073828,114.787536 161.964482,108.439561 156.038002,102.687536 L167.72741,102.687536 C167.485043,107.299063 167.093454,113.536446 165.927099,116.699686" id="path52" fill="#DD1C2B"></path>
                        <path d="M189.147659,60.4205592 C188.590961,60.4112134 186.403111,60.470715 183.642051,61.8479735 C180.761366,63.2822414 176.695011,66.4856681 173.678189,73.6080978 C172.415572,76.5906523 171.442675,79.2850447 170.688469,81.7289699 L163.647659,68.7772568 C164.981304,67.960746 168.103111,65.7454812 169.208095,62.2794377 C169.439248,61.5579424 169.616195,60.9538926 169.771335,60.4205592 C170.508718,57.9015562 170.644856,57.4623039 173.009965,56.5560734 C173.363547,56.951712 174.433329,57.999687 175.966974,58.0950141 C177.128033,58.1682228 178.279123,57.6719612 179.389404,56.6336434 C179.729591,57.0336434 180.524295,57.8062291 181.743609,57.9669767 C182.906849,58.1221169 184.136132,57.6719612 185.399995,56.6470391 C185.632706,57.0171325 186.13364,57.6348895 187.050774,57.8881605 C188.152955,58.1915873 189.480992,57.86355 191.003734,56.9152634 C190.607783,57.8934565 189.861989,59.5850452 189.147659,60.4205592" id="path54" fill="#DD1C2B"></path>
                        <path d="M189.224917,11.7391897 C189.414325,11.7391897 189.569777,11.7657318 189.691273,11.8184109 C189.812145,11.8709966 189.872892,11.9975386 189.872892,12.1978502 C189.872892,12.2871648 189.851709,12.3585978 189.809653,12.4111523 C189.767597,12.4638626 189.713391,12.5046103 189.647659,12.5335822 C189.581615,12.5626788 189.508095,12.5822738 189.426163,12.5928346 C189.344544,12.6036757 189.266662,12.6086601 189.193142,12.6086601 L188.639871,12.6086601 L188.639871,11.7391897 L189.224917,11.7391897 Z M189.232706,13.1226788 C189.648905,13.1226788 189.968843,13.0485667 190.193142,12.9015885 C190.417129,12.7536134 190.528967,12.5009654 190.528967,12.1423673 C190.528967,11.9897505 190.506537,11.8591897 190.461677,11.7511212 C190.417129,11.6433019 190.354824,11.5548284 190.276319,11.4865729 C190.197192,11.417819 190.10498,11.3651088 189.999372,11.3283798 C189.893765,11.2916197 189.780681,11.2678813 189.659497,11.2570714 L190.544855,9.81065396 L189.857316,9.81065396 L189.050774,11.2255449 L188.639871,11.2255449 L188.639871,9.81065396 L187.983796,9.81065396 L187.983796,13.1226788 L189.232706,13.1226788 Z M187.106537,10.5299686 C187.222114,10.2452022 187.380369,9.99903402 187.580681,9.79068511 C187.780992,9.58261658 188.016818,9.42049821 188.288157,9.30501534 C188.559497,9.18881597 188.850463,9.1309032 189.161366,9.1309032 C189.466973,9.1309032 189.755758,9.18881597 190.027098,9.30501534 C190.298438,9.42049821 190.534263,9.58261658 190.734575,9.79068511 C190.934886,9.99903402 191.094388,10.2452022 191.212768,10.5299686 C191.331148,10.8145792 191.390649,11.1255137 191.390649,11.4629592 C191.390649,11.8000309 191.331148,12.1096259 191.212768,12.3915885 C191.094388,12.6731773 190.934886,12.9173829 190.734575,13.1226788 C190.534263,13.3283486 190.298438,13.4887224 190.027098,13.6049529 C189.755758,13.7209031 189.466973,13.778847 189.161366,13.778847 C188.850463,13.778847 188.559497,13.7209031 188.288157,13.6049529 C188.016818,13.4887224 187.780992,13.3283486 187.580681,13.1226788 C187.380369,12.9173829 187.222114,12.6731773 187.106537,12.3915885 C186.990338,12.1096259 186.932394,11.8000309 186.932394,11.4629592 C186.932394,11.1255137 186.990338,10.8145792 187.106537,10.5299686 Z M186.375073,12.6800931 C186.541117,13.0435822 186.763547,13.3533018 187.043298,13.6087224 C187.322425,13.8645168 187.644855,14.0620246 188.011522,14.2018377 C188.377565,14.3414015 188.760743,14.4109031 189.161366,14.4109031 C189.561989,14.4109031 189.945167,14.3414015 190.311833,14.2018377 C190.677877,14.0620246 191.000618,13.8645168 191.279746,13.6087224 C191.559185,13.3533018 191.781927,13.0435822 191.94797,12.6800931 C192.114014,12.3164794 192.19688,11.9105293 192.19688,11.4629592 C192.19688,11.0092832 192.114014,10.601277 191.94797,10.2374141 C191.781927,9.87380038 191.559185,9.56289696 191.279746,9.30501534 C191.000618,9.04666644 190.677877,8.84894059 190.311833,8.71177548 C189.945167,8.57513997 189.561989,8.50626147 189.161366,8.50626147 C188.760743,8.50626147 188.377565,8.57513997 188.011522,8.71177548 C187.644855,8.84894059 187.322425,9.04666644 187.043298,9.30501534 C186.763547,9.56289696 186.541117,9.87380038 186.375073,10.2374141 C186.209341,10.601277 186.126164,11.0092832 186.126164,11.4629592 C186.126164,11.9105293 186.209341,12.3164794 186.375073,12.6800931 L186.375073,12.6800931 Z" id="path56" fill="#100F0D"></path>
                    </g>
                </g>
            </g>
        </g>
    </g>
</svg>