<?xml version="1.0" encoding="UTF-8"?>
<svg width="200px" height="200px" viewBox="0 0 200 200" version="1.1" xmlns="http://www.w3.org/2000/svg" xmlns:xlink="http://www.w3.org/1999/xlink">
    <!-- Generator: Sketch 54.1 (76490) - https://sketchapp.com -->
    <title>lakeland</title>
    <desc>Created with Sketch.</desc>
    <g id="lakeland" stroke="none" stroke-width="1" fill="none" fill-rule="evenodd">
        <g id="lakeland_BGL">
            <g id="lakeland" transform="translate(0.000000, 15.000000)">
                <g id="g10" transform="translate(99.944718, 84.917637) scale(-1, 1) rotate(-180.000000) translate(-99.944718, -84.917637) translate(0.000000, 0.008850)" fill-rule="nonzero">
                    <g id="g12">
                        <path d="M82.7029277,48.4059689 C81.5699261,49.1873951 79.4003297,50.6454382 76.6867864,52.2883348 C76.993254,52.4581524 77.3045862,52.6341612 77.6260898,52.823437 C80.3515734,54.4287438 83.4812583,56.8840229 84.8128226,57.959092 C84.8676596,56.4630168 85.3032593,53.928578 87.295078,51.3888323 C85.5876153,49.9276936 83.7452715,48.9158639 82.7029277,48.4059689 L82.7029277,48.4059689 Z M28.0550573,146.526033 C26.8801762,152.841566 33.0669754,159.498061 41.8356208,160.36307 C50.6043105,161.227636 59.4538404,157.136536 61.5849625,156.268874 C60.9406287,155.79878 59.6201201,154.875839 58.1196226,154.057708 C56.008401,152.90569 49.4045317,150.571141 49.3381967,150.547702 L47.9349905,150.052401 L49.4204521,149.966608 C49.5226079,149.960859 59.6687658,149.373131 64.3179641,148.986176 C67.1456036,148.750466 69.4903244,148.296293 70.8908772,147.977442 C68.5532321,147.494966 65.1166374,146.378327 62.4437795,145.041014 C60.1870632,143.912434 58.2960737,142.324817 56.4674392,140.789825 C55.710778,140.153894 54.9952446,139.553783 54.2589262,138.987282 C51.7762287,137.077277 47.9849629,135.338416 44.3648413,134.448642 C40.6610935,133.538084 37.1026635,131.66213 36.2240787,131.180096 C35.1636033,132.308676 29.2342281,140.187061 28.0550573,146.526033 L28.0550573,146.526033 Z M198.093085,95.9478141 C199.737308,97.265227 199.758093,101.267438 198.999663,103.020008 C197.538525,106.391153 190.81083,107.001877 189.26036,107.098284 C189.295739,107.778881 189.320062,109.439467 188.838912,110.826752 C188.272853,112.45196 185.097176,116.427194 181.771582,116.427194 C181.45229,116.427194 181.136093,116.390047 180.830952,116.316194 C177.449636,115.498505 173.81669,115.434823 172.784518,115.434823 C172.243666,115.434823 171.73156,115.469317 171.236701,115.502042 C170.782528,115.532557 170.353119,115.560859 169.936093,115.560859 C169.279377,115.560859 168.422771,115.498062 167.622771,115.006299 C167.058923,114.658704 164.323268,112.715088 163.571914,112.179544 L155.891649,112.482916 C156.168929,113.361191 156.15522,114.639688 154.849747,115.558206 C153.892755,116.230843 152.999886,116.394027 152.408178,116.501932 C152.287006,116.524044 152.156989,116.547924 152.061024,116.572247 C151.986729,119.882363 151.219454,121.46202 150.495076,122.214701 L152.721721,124.255165 C154.558758,123.80453 157.071527,123.273408 158.924927,123.211495 C159.080593,123.20663 159.232721,123.203977 159.380869,123.203977 C161.85826,123.203977 163.534767,123.92924 164.101267,125.24621 C164.669537,126.56893 164.065004,128.266663 162.397343,130.025867 C161.089659,131.40652 156.670864,132.82432 156.177332,132.979543 C155.127028,133.645989 130.894856,149.028631 128.744275,150.406188 C128.064563,150.840903 127.397675,151.30569 126.692755,151.797896 C123.525481,154.008177 119.935873,156.512987 114.348256,156.512987 C113.166609,156.512987 111.916857,156.399333 110.634381,156.175563 C102.144829,154.694966 89.2528446,151.422882 87.6815898,151.021334 C86.5547795,152.045546 77.7490307,159.792589 62.9567701,165.819344 C57.1360959,168.190598 50.5375333,169.496513 44.3767816,169.496513 C37.0812594,169.496513 30.5555769,167.658592 25.5046096,164.180869 C12.9263457,155.520173 15.8975784,145.083468 18.7881919,139.632943 C22.2361962,133.131229 28.6399551,123.742175 29.4584404,122.548587 C29.0265554,121.265226 28.9712762,119.700163 29.9214144,116.183082 C30.5225421,113.956437 30.5754332,110.578217 30.5797228,109.833054 C29.8345156,109.2639 26.2332332,106.273961 27.2393139,102.349583 C28.1422657,98.8285216 30.0433381,97.6592568 30.7231391,97.344829 C30.6046206,96.4333862 30.4391369,93.1922586 33.2502369,89.4177977 C33.7268317,88.7778861 34.1802977,88.271529 34.6018344,87.8677701 L15.8573351,76.7009378 L11.9808952,58.8745148 L13.100453,58.4711981 L8.10511865,35.3981638 C7.55060235,32.8352894 7.14206726,32.1790152 6.80260901,31.7656598 L5.83106674,30.5809611 L0,3.75898277 L0.0863739061,3.81771577 L0.0656442217,3.78731223 L6.23774445,0 L54.4588157,35.4591478 L55.7576548,35.6859693 C55.7585392,35.6859693 55.8531772,35.6987498 56.0137078,35.6987498 C56.8075165,35.6987498 58.241679,35.4291202 59.4887768,33.7557095 C59.0023202,33.0569367 57.9834148,31.8589268 56.9698162,30.8143276 L55.3070191,29.1015581 L59.3821986,27.004886 C58.0325027,26.3355217 56.6328344,25.6149911 55.9876161,25.1996898 L53.2364829,23.427838 C50.8103912,23.1305246 48.4714195,22.7784627 46.4738518,22.3628518 C35.1508228,20.0053505 30.4425863,15.2765502 30.1186947,14.9248421 C30.1186947,14.9248421 30.4503696,12.7136757 36.4859692,11.7005193 L34.430469,7.73855149 C34.430469,7.73855149 38.6769255,5.33342165 43.2751344,6.08017674 C44.8185727,5.28331662 52.2304022,-1.17986509 65.6446639,3.97923705 C78.3920378,8.88181293 88.1012692,19.0248309 89.6512968,22.4008397 C91.0881127,22.611785 93.8777202,23.1101376 97.6252049,24.1927689 C98.8382507,21.3156435 100.835376,18.6370366 102.757764,16.6937751 C104.176006,15.2593031 106.914315,12.8534215 109.311219,12.8534215 C110.103259,12.8534215 110.801103,13.1184519 111.329572,13.6194137 C119.584298,21.4426086 124.287449,33.8392916 125.716746,38.0626193 C140.02653,48.5408501 146.776337,61.2696502 143.936757,72.7009379 L166.278824,74.3473724 C168.356878,73.8737406 170.630399,73.6358191 173.090101,73.6358191 L173.431505,73.6371458 C181.20685,73.7468196 185.561963,76.1605288 187.983633,79.0797106 C189.115308,78.7113303 190.484904,78.3685995 191.679818,78.3685995 C192.614257,78.3685995 193.337309,78.5821981 193.82863,79.0036464 C196.71774,81.4801527 196.5435,84.0601416 196.449304,85.4452162 C196.427635,85.7693732 196.397563,86.2124909 196.455938,86.2925352 C198.47827,87.6771675 199.178768,90.7940276 198.975783,93.2687649 C198.872742,94.5140938 198.559199,95.4533973 198.093085,95.9478141 L198.093085,95.9478141 Z" id="path14" fill="#1A1515"></path>
                        <path d="M108.858372,99.293751 C108.611606,99.4492132 108.382529,99.61644 108.184851,99.793751 C108.035376,99.688709 107.880594,99.5929106 107.728024,99.4945913 C108.067217,99.4046753 108.449749,99.3307258 108.858372,99.293751" id="path16" fill="#2D7AC8"></path>
                        <path d="M105.101158,100.322828 C108.463016,100.981313 111.407405,102.175343 114.016581,104.021667 C112.757543,104.022994 111.498947,104.05793 110.243889,104.136205 C109.158206,103.12128 107.295962,101.5372 105.101158,100.322828" id="path18" fill="#2D7AC8"></path>
                        <path d="M97.7990025,100.872524 C97.1011584,100.590379 96.4258682,100.365724 95.771363,100.183967 C95.8231043,100.168046 95.8792679,100.153895 95.9354315,100.139743 C100.496625,99.7890522 104.163181,100.943723 108.754889,104.250744 C107.315862,104.378991 105.888776,104.566498 104.477609,104.815033 C103.263237,103.847427 100.838914,102.102817 97.7990025,100.872524" id="path20" fill="#2D7AC8"></path>
                        <path d="M117.366498,101.080816 C120.10348,101.758759 122.451296,103.131893 123.801876,104.677941 C122.721501,104.537311 121.628742,104.416581 120.527581,104.317963 C119.797012,103.380871 118.702485,102.134215 117.366498,101.080816" id="path22" fill="#2D7AC8"></path>
                        <path d="M110.332778,100.495299 C113.936537,100.860141 117.154668,102.35091 118.864784,104.187062 C117.736205,104.110556 116.600992,104.058372 115.463568,104.034934 C114.3173,103.00453 112.559422,101.623878 110.332778,100.495299" id="path24" fill="#2D7AC8"></path>
                        <path d="M98.3955752,114.521611 C98.6020981,114.981534 98.8382507,115.447206 99.1009373,115.917299 C92.3409595,116.504585 59.5016016,119.839909 63.3786607,128.915862 C63.5108884,129.225425 63.6515186,129.529682 63.7987823,129.8304 C63.1111095,128.787172 62.4362616,127.601987 61.9285778,126.364618 C63.1097828,125.604861 64.0941941,124.581976 64.7513527,123.268543 C66.1819773,120.407294 66.5821984,117.982529 66.9598657,115.917742 C76.7964602,112.356437 93.7304565,113.98076 98.3955752,114.521611" id="path26" fill="#2D7AC8"></path>
                        <path d="M98.4278582,107.262352 C95.8752878,105.787946 88.5196219,102.187725 79.5409599,103.590047 C78.7294618,103.716526 77.971474,103.858041 77.2532872,104.008842 C80.1538952,103.213264 84.2250946,102.255829 86.7913743,102.331009 C91.2787152,102.462795 95.9102242,103.533441 99.9155309,106.076283 C99.3056913,106.407958 98.81039,106.805967 98.4278582,107.262352" id="path28" fill="#2D7AC8"></path>
                        <path d="M81.5889421,104.936647 C89.8078474,104.620451 95.5228279,107.07175 97.7976758,108.26976 C97.6004398,108.708013 97.4735188,109.179876 97.4129329,109.680926 C93.6216671,108.613375 80.4882235,105.330235 70.0050839,107.727582 C70.0391359,107.55688 70.0656699,107.394138 70.0802636,107.246874 C72.989274,105.879047 76.5483674,105.130346 81.5889421,104.936647" id="path30" fill="#2D7AC8"></path>
                        <path d="M97.3757853,110.614038 C97.3996659,111.345492 97.5398538,112.122938 97.7888312,112.932667 C92.0530657,112.183966 77.7331103,110.755553 67.5184063,113.438582 C67.7740171,112.61249 68.1194013,111.858925 68.6593681,111.171252 C68.8477595,110.931562 69.0958523,110.442009 69.3324471,109.865779 C78.9094508,106.872745 93.3280242,109.710998 97.3757853,110.614038" id="path32" fill="#2D7AC8"></path>
                        <path d="M100.945934,105.619013 C98.5039224,103.935431 92.5404068,100.486454 85.4531764,101.129019 C85.5823085,101.086565 85.7207275,101.042784 85.8693179,100.998118 C92.2847959,100.329904 99.5206166,101.84411 103.155332,105.06578 C102.737864,105.152015 102.320838,105.239135 101.90735,105.337311 C101.565061,105.418239 101.245326,105.512877 100.945934,105.619013" id="path34" fill="#2D7AC8"></path>
                        <path d="M155.086784,132.395795 C155.086784,132.395795 158.419012,131.739521 160.365723,129.79281 C162.311549,127.846542 161.733993,124.739853 157.191373,124.956105 C152.650964,125.1728 141.057818,128.145049 135.423767,127.599776 C128.719068,126.951462 117.748145,119.234049 121.103811,118.839135 C123.967714,118.502153 125.48369,121.029074 131.71741,120.018129 C135.200881,119.453397 140.815032,117.154668 144.691649,115.764729 C148.247647,114.490213 151.104916,115.227858 152.4325,113.926365 C153.808288,112.578438 152.256049,111.478162 150.271306,111.330898 C137.950688,110.415475 141.825535,117.659699 117.060472,113.616802 C111.61835,112.727913 113.403646,117.920174 126.831174,127.768267 C136.9393,135.180538 144.184408,132.148587 155.677166,129.714977 C156.350245,129.572578 157.439465,129.042783 156.790709,130.124485 C156.142837,131.204861 155.086784,132.395795 155.086784,132.395795" id="path36" fill="#8FB0E1"></path>
                        <path d="M129.783081,115.144276 C135.35522,115.144276 138.109007,114.089992 140.647426,113.117963 C143.242009,112.124707 145.485458,111.266774 150.249637,111.621003 C151.447205,111.709892 152.424982,112.157874 152.626641,112.710224 C152.737199,113.012269 152.603202,113.35102 152.228631,113.718516 C151.596679,114.338084 150.503037,114.449969 149.119289,114.591484 C147.861135,114.720616 146.295187,114.880705 144.593473,115.490544 C143.750135,115.793032 142.824098,116.138416 141.856492,116.499721 C138.346486,117.809173 134.36904,119.293308 131.670533,119.730677 C127.956216,120.333883 125.937863,119.651959 124.315309,119.104032 C123.212379,118.731672 122.261136,118.410611 121.069759,118.549914 C120.268875,118.64411 120.187062,119.124817 120.189273,119.326918 C120.210058,121.331561 129.545602,127.323822 135.395464,127.889438 C138.923601,128.231727 144.654944,127.227415 149.70967,126.342064 C152.685458,125.820671 155.495408,125.328908 157.205524,125.247095 C159.142506,125.157764 160.509891,125.695077 160.96716,126.729018 C161.349692,127.592258 161.032611,128.714204 160.159642,129.587172 C158.891759,130.855055 156.987503,131.56307 155.891207,131.888112 C156.247204,131.444109 156.696513,130.847537 157.040129,130.27396 C157.226751,129.96307 157.390377,129.609726 157.189604,129.348366 C156.960969,129.050743 156.524043,129.17678 156.019454,129.323159 C155.880151,129.363402 155.74129,129.403645 155.617022,129.430179 C154.190378,129.732225 152.834048,130.04223 151.522384,130.342506 C142.367271,132.435596 135.752346,133.948919 127.003645,127.533441 C117.512435,120.572689 113.909118,115.919068 114.548588,114.39469 C114.775011,113.85605 115.650633,113.681368 117.013596,113.903811 C122.508786,114.801103 126.604309,115.144276 129.783081,115.144276 L129.783081,115.144276 Z M148.214922,110.959422 C144.657155,110.95898 142.599001,111.747482 140.439134,112.574458 C136.522274,114.073629 132.082252,115.774016 117.107791,113.32935 C114.985514,112.98264 114.253176,113.595133 114.011716,114.169594 C113.095851,116.352015 117.823767,121.523048 126.658703,128.00265 C135.622329,134.576005 142.345602,133.037918 151.651959,130.909892 C152.961854,130.6105 154.31553,130.300936 155.737752,129.999776 C155.874402,129.970588 156.027415,129.926807 156.18087,129.882584 C156.316193,129.843667 156.514756,129.786177 156.654501,129.761412 C156.631505,129.813595 156.596127,129.883468 156.54129,129.974568 C155.915087,131.018681 154.879377,132.191041 154.868763,132.20254 L154.296071,132.848642 L155.142506,132.68192 C155.282694,132.65406 158.585292,131.985403 160.571804,129.998449 C161.615474,128.954336 161.979874,127.578548 161.499609,126.493308 C160.940184,125.227194 159.363622,124.560749 157.177663,124.665116 C155.431284,124.748698 152.733219,125.221445 149.609725,125.768488 C144.591262,126.647647 138.9037,127.645326 135.451627,127.309671 C129.716746,126.755552 120.787614,120.855276 120.771694,119.321169 C120.771252,119.284021 120.769925,119.171694 121.137863,119.128355 C122.196127,119.00453 123.049638,119.291097 124.129571,119.655497 C125.811827,120.223767 127.90757,120.931782 131.763844,120.30558 C134.518957,119.858925 138.525149,118.363734 142.059477,117.045437 C143.025314,116.685016 143.948697,116.340517 144.789825,116.038914 C146.424761,115.452955 147.887669,115.303037 149.178548,115.17081 C150.67595,115.017797 151.858924,114.896625 152.635928,114.134215 C153.324485,113.459809 153.308564,112.879157 153.173683,112.510334 C152.887116,111.725813 151.755883,111.14914 150.292976,111.040351 C149.545602,110.98463 148.855718,110.959422 148.214922,110.959422 L148.214922,110.959422 Z" id="path38" fill="#1A1515"></path>
                        <path d="M82.6790471,144.787172 C80.9538952,145.458482 79.0545033,146.077608 76.9415127,146.603424 C76.6699815,146.564949 76.4002192,146.522053 76.126919,146.48579 C64.9295727,144.991926 60.6297387,142.035596 56.524045,137.556658 C53.3846311,134.132888 43.5902256,132.568709 37.7610162,128.727913 C38.3094739,127.805856 40.2197447,124.635486 42.6451288,121.073739 C43.104963,120.398007 43.5589597,119.735984 43.9996009,119.096957 C44.5240453,120.282584 45.0109441,121.458925 45.3956871,122.524707 C47.1411818,127.35699 55.0173563,129.401434 60.41614,127.154005 C61.6106121,128.880483 63.2641222,130.656934 65.3209492,132.431616 C69.203315,138.108565 75.825316,142.05815 82.6790471,144.787172" id="path40" fill="#2D7AC8"></path>
                        <path d="M156.090212,130.412379 C155.513097,131.374237 154.963844,132.068543 154.873186,132.181755 L153.948918,132.958316 C153.948918,132.958316 131.021777,147.233606 126.14527,150.6503 C118.930677,155.705469 111.586951,153.636702 104.494856,152.517851 C100.294525,151.854501 95.4834691,150.38496 89.5747905,148.986176 C89.799445,148.780538 90.3867307,148.239687 91.192922,147.479488 C100.197676,149.976779 107.372911,150.599443 107.372911,150.599443 C107.372911,150.599443 100.653176,149.240018 92.2834692,146.442893 C94.622441,144.202539 97.8781623,140.970256 99.8531761,138.520284 C103.202651,134.367271 105.866664,130.930234 106.185956,130.449085 C106.852844,129.443888 105.397455,128.646542 104.696073,129.455829 C104.131341,130.108123 99.3282452,135.175232 94.3531209,138.518957 C91.9142044,140.158316 88.8844643,142.059477 84.902596,143.855386 C76.5134309,140.355552 68.509451,135.461799 66.4442217,129.096735 C63.8071847,120.970257 93.7791021,117.68977 99.8239887,117.112656 C103.111993,122.186841 109.298836,127.458703 115.874845,129.870644 C103.579434,122.998339 94.2341602,109.401435 105.772468,107.888112 C115.605083,106.59856 127.747482,108.857045 135.713872,112.153452 C133.829958,112.474956 131.960196,112.669096 129.733993,112.669096 C126.248311,112.669096 121.991816,112.19458 115.932335,111.130124 C114.920063,110.951904 114.032501,110.862131 113.293972,110.862131 C111.592258,110.861689 110.591042,111.340627 110.319953,112.285238 C109.374016,115.582971 118.683469,123.808952 127.851406,129.539411 C132.260472,132.294966 136.660251,133.634933 141.303258,133.634933 C146.553009,133.634933 151.219454,131.937642 155.337973,130.44024 L155.404308,130.416359 C155.643556,130.328355 155.993363,130.20055 156.21271,130.174458 C156.191483,130.22841 156.154336,130.305801 156.090212,130.412379" id="path42" fill="#2D7AC8"></path>
                        <path d="M134.431837,140.611605 C132.046431,143.21459 128.016359,145.446984 123.969483,147.007183 C124.277277,146.924927 123.561744,147.201323 122.218681,147.640903 C121.635818,147.838139 121.057819,148.020339 120.488665,148.187061 C117.66589,149.042782 113.995796,149.983413 111.772689,149.877719 C109.278936,149.7592 107.457377,148.831395 107.457377,148.831395 C107.457377,148.831395 108.768599,148.697398 109.694635,147.463567 C109.902927,147.186287 110.077167,146.885568 110.223988,146.579985 C110.245658,146.481367 110.272634,146.382307 110.307128,146.282362 C111.689992,142.288996 110.472081,137.785735 110.459699,137.741953 L110.180207,136.743391 L111.165503,136.42056 C111.314093,136.371915 114.848422,135.2283 118.472081,135.2283 C118.851959,135.2283 119.226089,135.241124 119.58076,135.266332 C122.128908,135.448089 123.490102,136.099941 124.931782,136.790267 C125.798117,137.205082 126.694524,137.634491 127.975674,138.028963 C130.22841,138.722827 132.00663,138.826309 132.866774,138.826309 C133.280704,138.826309 133.513761,138.802429 133.513761,138.802429 L136.383855,138.482694 L134.431837,140.611605" id="path44" fill="#1A1515"></path>
                        <path d="M117.64024,136.769925 C116.631948,137.861356 115.541401,139.31365 115.684685,142.442009 C115.801434,144.982639 116.883579,146.365944 117.825094,147.288001 C117.332446,147.333993 116.853065,147.364949 116.405967,147.364949 C114.795796,147.364949 113.505359,147.076613 112.646984,146.527802 C114.601656,142.809947 113.05605,138.944828 112.443999,137.684905 C113.322275,137.462904 115.421114,136.975563 117.64024,136.769925" id="path46" fill="#FFFFFF"></path>
                        <path d="M130.045326,142.930234 C130.278383,141.995795 130.443336,140.634601 130.234159,139.910665 C130.222219,139.869538 130.20851,139.833275 130.194358,139.797011 C131.117741,139.98098 132.035375,140.084021 132.934436,140.084021 C133.245326,140.084021 133.522606,140.072523 133.762739,140.055718 C132.66998,141.115751 131.402097,142.075397 130.045326,142.930234" id="path48" fill="#FFFFFF"></path>
                        <path d="M137.555331,119.950909 L139.722274,119.219898 C139.767382,119.635155 139.863346,120.421445 139.924375,121.20464 C140.012821,122.325702 139.882362,123.344607 139.556437,124.079599 C139.400328,123.900937 139.115088,123.394137 138.928465,122.442451 C138.716193,121.343059 137.951572,120.512103 137.369593,120.021666 C137.431948,119.997786 137.493861,119.974347 137.555331,119.950909" id="path50" fill="#FFFFFF"></path>
                        <path d="M149.401434,117.838361 C149.519068,119.112435 149.382417,120.270644 149.017133,121.099389 C149.013595,121.107349 149.010057,121.114425 149.006519,121.120616 C148.834933,120.967161 148.471859,120.405525 148.231284,119.241567 C147.990267,118.084685 147.277387,117.229848 146.614037,116.787615 C147.71962,116.492645 149.156879,116.390489 149.156879,116.390489 C149.227194,116.617797 149.328907,117.058704 149.401434,117.838361" id="path52" fill="#FFFFFF"></path>
                        <path d="M142.891318,117.893198 C143.518404,117.709229 144.189714,117.629627 144.189714,117.629627 C144.270643,117.862241 144.397122,118.32128 144.503258,119.148256 C144.675287,120.477167 144.577553,121.694635 144.226862,122.576448 C144.219786,122.593695 144.214037,122.607847 144.207846,122.619787 C144.02653,122.484463 143.609947,121.915752 143.30171,120.665558 C143.051406,119.651517 142.391152,118.865226 141.779985,118.32128 C141.779985,118.32128 142.52338,118.001545 142.891318,117.893198" id="path54" fill="#FFFFFF"></path>
                        <path d="M130.221335,121.507128 C130.409726,122.75113 130.174458,123.842562 129.90956,124.485127 C129.90956,124.486453 129.908676,124.48778 129.907791,124.489107 C129.736647,124.332114 129.384187,123.798339 129.130345,122.712214 C129.018018,122.230179 128.825646,121.84809 128.597454,121.542064 C129.10956,121.581865 129.639356,121.523048 130.221335,121.507128" id="path56" fill="#FFFFFF"></path>
                        <path d="M135.303479,121.512877 C135.498946,122.87186 135.167714,123.953562 134.855055,124.620892 C134.855055,124.622219 134.854612,124.623104 134.853728,124.62443 C134.689217,124.459477 134.362849,123.909339 134.161633,122.813043 C133.995795,121.905138 133.531008,121.431064 133.040572,121.118847 C134.010389,121.062684 135.115972,120.693861 135.115972,120.693861 C135.155773,120.868985 135.242893,121.092755 135.303479,121.512877" id="path58" fill="#FFFFFF"></path>
                        <path d="M34.9737526,111.171252 C36.4161848,111.62233 38.6955878,112.288333 38.6955878,112.288333 L32.4715083,120.283911 C31.7554442,116.858814 32.3664779,114.393806 32.6739627,110.379655 C33.3032606,110.611385 34.1798112,110.923601 34.9737526,111.171252" id="path60" fill="#2D7AC8"></path>
                        <path d="M65.3558856,95.5157522 C64.5930332,94.3955753 63.2910985,93.083027 61.1940283,92.5925903 C57.1838571,91.655498 53.0626852,88.5625185 53.0215575,88.53112 L52.3144266,87.9960177 L52.4594791,88.8711973 C52.4723038,88.9507993 52.8030943,90.8404621 54.6109439,92.2865649 C55.9031495,93.3205062 57.6260903,93.7892735 59.0107227,94.1664985 C59.5290201,94.3075709 60.0190145,94.4411253 60.3940283,94.5817555 L60.6598105,94.6808158 C61.5287989,95.0032038 63.1571018,95.6095056 64.3259243,96.3369793 C64.5563278,96.8287427 65.3894953,98.8095055 64.9990034,100.976449 C64.1928121,99.4945249 62.9532323,98.116526 62.0006618,98.116526 L61.9011593,98.116526 L61.7729117,98.1390799 C60.7770024,98.3389693 60.0703136,99.4304011 59.0920936,100.940628 C58.8811483,101.266554 58.6635696,101.602209 58.440684,101.929903 C58.2071848,102.273076 58.0015464,102.538416 57.8184618,102.757764 C57.4589261,102.90945 57.1069085,103.081921 56.7646199,103.272524 C56.907019,102.284132 56.5187382,100.304254 51.7585393,99.0509649 C48.2414582,98.1262551 43.8241227,98.1045857 43.8241227,98.1045857 C43.8241227,98.1045857 44.9928126,99.4388035 47.9677158,100.429848 C49.3200651,100.881368 51.913321,100.793806 53.82996,102.070534 C54.9939179,102.847095 54.4048632,104.260031 54.4406841,104.969815 C53.3642883,105.962629 52.4930888,107.102264 51.9411817,108.220229 C50.0581524,112.038471 39.1982743,109.24798 39.1982743,109.24798 C39.1982743,109.24798 39.1349023,109.191374 39.1982743,109.24798 C36.1662346,108.542175 33.3309002,108.344939 31.811254,106.185514 C29.6591701,103.129682 31.7485454,98.1280241 34.7946039,97.437698 C37.8401317,96.7464874 38.3238465,95.3684885 38.4577105,93.1962387 C38.591088,91.0253156 37.9990704,88.6721924 40.0827408,86.6520708 C42.4286557,84.3776651 48.305582,85.6428945 48.8711983,83.7886104 C49.4372569,81.9383064 50.1289097,78.4517393 54.3885006,79.1920378 C57.6773894,79.7634032 60.4568255,83.7762279 63.1734644,84.9795446 C65.8905456,86.1828613 68.5899375,86.8771675 68.4457694,90.5101138 C68.3511315,92.9096715 66.5618557,94.6246521 65.3558856,95.5157522" id="path62" fill="#2D7AC8"></path>
                        <path d="M56.1370909,106.613596 C56.0791584,107.621446 56.6067426,108.819013 57.5491417,109.817576 C58.59237,110.922717 59.9018227,111.555995 61.1418448,111.555995 C62.1611925,111.555995 63.0920935,111.13322 63.8346032,110.33322 C65.7278038,108.292313 66.1660569,106.212048 66.0484229,104.491761 C66.8727457,106.024541 66.7736855,108.14903 65.2784948,110.05196 C63.0867867,112.84024 64.0950786,115.453397 61.2148133,120.805746 C58.3336635,126.158095 48.6284123,124.471418 46.8475389,119.284906 C46.5578761,118.44024 46.1324477,117.583634 45.6313974,116.744276 C47.1535643,114.563181 48.2343824,113.049859 48.2343824,113.049859 C48.2343824,113.049859 49.1356538,113.320948 51.4794901,112.328577 C53.8233265,111.33709 53.0122706,109.444331 54.2739622,107.100053 C54.7506896,106.214702 55.5489207,105.497399 56.3577653,104.946377 C56.2480915,105.366056 56.1786608,105.891429 56.1370909,106.613596" id="path64" fill="#2D7AC8"></path>
                        <path d="M62.2783843,109.055608 C62.2783843,109.055608 64.7513527,107.571031 64.3197331,103.430843 C64.128246,101.591153 62.4499708,100.59259 62.4499708,100.59259 C62.4499708,100.59259 63.7939177,101.699058 63.2163611,105.657488 C62.9293517,107.62631 62.2783843,109.055608 62.2783843,109.055608" id="path66" fill="#FFFFFF"></path>
                        <path d="M20.987241,141.335541 C24.6137307,133.969704 32.6082911,122.998339 41.8784732,111.405193 C42.4574893,111.454281 43.570502,111.62233 44.4616904,112.195464 C45.4920939,112.85793 45.5712537,114.167825 45.5164168,114.822772 C37.497224,125.523048 30.6332773,135.452954 27.3193139,142.080704 C19.5802317,157.560195 41.9605075,172.16716 70.4172453,154.270422 C70.0338291,153.831284 65.0087325,155.363622 64.2865656,154.87407 C62.0860128,153.381533 58.5207282,151.838581 54.8422319,151.383523 C75.2782734,152.177332 93.7534526,142.871859 105.02023,130.331008 C57.4934203,190.881145 9.25908213,165.158647 20.987241,141.335541" id="path68" fill="#FBBF15"></path>
                        <path d="M97.4518494,49.7167483 C96.8340495,49.1692636 94.6290745,50.6476494 92.5262553,53.0180197 C90.8223305,54.9368698 89.7083449,56.8548355 89.6751774,57.8038681 L90.18065,58.4106121 C91.0633476,58.4181301 92.9490303,57.0414579 94.7613022,55.0014359 C96.8641214,52.6297389 98.0687648,50.2660021 97.4518494,49.7167483 L97.4518494,49.7167483 Z M89.0759513,60.761082 C86.197455,64.2012145 78.0669964,73.815808 68.5324472,85.5341051 C68.1875052,85.2302908 67.557765,84.7226071 66.8241,84.3555534 C66.2288541,84.0579305 65.7189591,83.778439 65.3134312,83.5462666 C75.493641,71.9040336 84.1981184,62.4128232 87.3755644,58.9802086 C86.9496938,57.0547249 88.1415124,53.9869528 90.5538949,51.2672182 C93.6247627,47.8085118 97.4960727,46.2306235 99.2017665,47.7439457 C100.907902,49.2585947 99.8023192,53.2904354 96.7332204,56.749584 C94.159865,59.6488653 91.0284112,61.2192356 89.0759513,60.761082 L89.0759513,60.761082 Z" id="path70" fill="#FBBF15"></path>
                        <path d="M68.319733,94.5919269 L85.1444976,101.029959 C85.0817005,101.06578 85.0401305,101.090545 85.0401305,101.090545 C84.9976762,101.122386 84.963182,101.152457 84.9322256,101.182087 C84.7332207,101.205968 84.5337735,101.231175 84.3334418,101.261247 C83.7191798,101.354116 83.1420654,101.453618 82.5941383,101.557543 L67.8589259,95.9080131 C67.7930331,95.6156969 67.8080691,95.3631817 67.9318944,95.1734636 C68.1437241,94.8488644 68.319733,94.5919269 68.319733,94.5919269" id="path72" fill="#FFFFFF"></path>
                        <path d="M39.6582854,77.793254 L41.4203196,82.6671068 C41.4203196,82.6671068 41.0568481,82.7113302 40.511486,82.8086215 C40.2399548,82.8563827 39.9797889,82.9165264 39.7324037,83.006742 L39.6582854,77.793254" id="path74" fill="#FFFFFF"></path>
                        <path d="M96.8928666,67.5100038 C95.1310092,66.3814245 93.0976207,65.417356 90.7661669,64.6120492 C90.1611918,64.4019884 89.5716948,64.2184616 88.9950227,64.0552776 C89.3806501,63.6108331 89.680042,63.2681023 89.8648955,63.0598105 C90.0413466,63.0549459 90.2160287,63.0394677 90.3902686,63.0208939 C90.6648955,63.1088984 90.9399646,63.1977873 91.2212249,63.2955208 C93.3607495,64.0344926 95.2742928,64.9154213 96.9729108,65.9356534 C96.9269185,66.4933096 96.8928666,67.5100038 96.8928666,67.5100038" id="path76" fill="#FFFFFF"></path>
                        <path d="M139.141179,83.4896607 C138.175342,83.9951333 138.24035,84.3276928 138.407072,86.1333312 L139.561743,98.7657245 C139.805414,100.704917 139.936757,101.069318 140.768598,101.564177 L141.214811,106.532667 L132.705359,106.280152 C132.016359,106.122717 131.314977,105.970589 130.603866,105.82421 L130.092645,101.033054 C131.007183,100.373685 130.882031,99.4878914 130.748919,98.23018 L129.369593,85.1453821 C129.165724,83.2070737 128.799555,82.6264214 128.076503,82.1673832 L127.521058,76.9821982 L138.695408,78.5207277 L139.141179,83.4896607" id="path78" fill="#FBBF15"></path>
                        <path d="M73.2882237,84.8106115 L72.9335526,82.7763385 C74.7427289,80.6606945 77.09939,77.9069079 79.484354,75.1226073 L81.6526237,88.1583173 C82.055056,90.2018772 82.1492517,90.7657247 83.3304567,91.9730215 L84.3387486,98.0798207 L73.9051391,94.1474824 L72.7991137,87.8434472 C73.7826405,87.4706446 73.5332209,86.2160288 73.2882237,84.8106115" id="path80" fill="#FBBF15"></path>
                        <path d="M88.8490857,80.2856807 C92.6217777,80.4510759 93.9197323,80.3338841 93.4646743,77.3266979 C93.0388036,75.1734641 91.9659457,74.4247632 91.2689861,74.1983398 C89.3280243,73.6389147 89.6128225,75.4741827 89.7468192,76.3312308 C89.8732979,77.1502468 90.0011033,77.9692628 90.1342155,78.8285221 L81.0954098,75.9265874 L80.7243761,73.6751778 C83.1221649,70.8771679 85.4509652,68.1631824 87.188942,66.1461564 C88.0636794,66.3486993 88.9848513,66.6149237 89.9577645,66.9527899 C92.8296273,67.9451614 95.1358738,69.1674941 96.9693729,70.6082901 C97.0856803,72.2414576 97.3196217,74.0006615 97.6933088,75.8960733 C98.8652269,75.9721374 100.050854,75.9226073 101.240462,75.7726902 C102.118737,77.516416 102.66976,79.438804 102.964287,81.5323363 L102.985957,81.6822533 C103.563071,85.7945805 102.859036,88.656272 98.5295719,89.0883339 C96.359091,89.3620763 92.275509,88.8340497 91.9301248,90.5990027 C91.8553874,91.3618551 92.203425,93.8135963 94.1284664,94.3345471 C95.4312856,94.6105007 95.7700363,93.8485328 95.3839667,91.3034803 L95.2906554,90.6856804 L103.69751,92.9600861 L104.501932,98.6348234 C103.546708,98.5512413 102.544608,98.7038118 101.681811,98.9182949 C100.836261,98.7002739 99.9774436,98.5817554 99.1243756,98.6096161 C95.9075708,98.7148676 94.4212248,99.2636791 93.7331099,99.7439444 C92.4050834,99.544055 91.1969021,99.5285768 90.1324466,99.617908 C85.9520155,97.3262552 83.5847409,93.5889418 82.6865651,88.1543372 C81.3651721,80.157433 85.2126015,80.1609709 88.8490857,80.2856807" id="path82" fill="#FBBF15"></path>
                        <path d="M69.8582625,86.3730216 C69.9648407,86.2478696 70.1174112,86.0700918 70.2956312,85.8609155 C70.5202857,86.409727 70.7975659,86.7643981 71.2588152,87.2225517 L72.3794343,93.5544476 L69.7017119,92.4784941 C70.2262006,91.6148125 70.6396887,90.7873941 70.795797,90.0068524 C71.0805952,88.5850724 70.2496389,87.0120487 69.8582625,86.3730216" id="path84" fill="#FBBF15"></path>
                        <path d="M154.542395,97.2581512 L162.660029,97.2276371 L163.083689,105.836592 L142.299609,106.657819 L141.863567,101.712767 C142.793142,101.02023 142.686564,100.177333 142.582197,98.9784387 L141.502705,86.5012693 C141.343501,84.6540609 140.991926,84.1180742 140.278603,83.7209487 L139.842561,78.7741274 L161.830842,80.3940278 L162.284131,89.5982288 L154.02852,89.3465981 L153.973241,88.4842432 C153.788388,85.6530659 153.298835,85.3828613 150.518957,85.2431156 L150.901931,90.6418993 L156.563401,90.7957965 L156.871196,95.8819213 L151.269869,95.8553873 L151.608178,100.628411 C153.775563,100.597897 154.755552,100.520064 154.595905,98.0581512 L154.542395,97.2581512" id="path86" fill="#FBBF15"></path>
                        <path d="M178.980206,94.6242099 C176.745601,95.4348235 172.700051,96.1888312 172.115861,97.65395 C171.936314,98.2655586 171.957099,100.059257 173.818459,99.8956304 C175.092533,99.7258129 175.535651,99.0430047 175.49585,97.1980075 L175.486121,96.7513519 L183.67805,96.1503569 L183.689105,101.571252 C180.624871,103.71343 177.534103,104.697841 173.500493,105.163071 C166.62863,105.953342 163.444993,103.816913 163.188498,98.512767 C162.904142,92.6177976 166.759089,91.4940828 170.402207,90.5556638 C174.192588,89.6384721 175.523268,89.196681 175.476834,87.0186822 C175.342837,85.4836905 174.355772,85.1935855 173.678713,85.2050836 C171.786839,85.2935302 171.825756,86.6281902 171.845656,87.2530658 C171.862019,87.8491963 171.879266,88.4457689 171.899167,89.0719712 L163.183191,89.3735743 L162.860361,82.5733534 C165.405413,80.8101693 168.926917,79.960197 173.341731,79.9938067 C181.622992,80.1105563 184.566054,82.9634031 184.566054,87.7457137 L184.566054,87.8531764 C184.566054,90.7935853 183.44057,93.1290192 178.980206,94.6242099" id="path88" fill="#FBBF15"></path>
                        <path d="M31.6004857,32.9477493 L42.9076827,64.5541167 L40.1734429,50.8161402 C39.4967818,47.4113863 38.8731886,46.1819778 37.7770693,44.910115 L35.9554662,35.7996674 L51.0270855,45.4067429 L51.0447748,45.5000541 C50.1488102,46.1076827 49.1639568,46.6768369 48.2166931,47.1243769 L45.1922598,48.5536749 L49.818462,51.2751784 C48.0725251,52.8030943 45.5814251,55.0620218 44.3975666,56.5054712 L43.1395014,58.0391362 L44.8061901,59.113763 C46.9457147,60.4935308 50.2668865,60.8017674 52.7270302,60.8119388 L55.5758969,75.8191247 C55.1464884,75.6466537 54.6772789,75.5020434 54.1426189,75.3897162 C53.6486443,75.2853491 53.1387494,75.2327234 52.6270855,75.2327234 L52.6266432,75.2327234 C50.6388047,75.2327234 48.7478153,76.0331656 47.439247,77.4288538 C46.8639015,78.0431158 46.6242111,78.7643983 46.3920386,79.4631268 C46.1819778,80.0955204 45.9834151,80.6929775 45.5442775,81.1215016 C45.1254826,81.5310096 44.527141,81.8374772 43.8415467,82.0802633 L36.9724258,63.0788265 L37.2419228,82.0409045 L21.482675,72.6527345 L19.3768928,62.9687104 C20.4914533,62.5676048 20.175345,61.1060239 19.6118514,58.5030389 L14.3183192,34.0533325 C13.644621,30.9399218 12.929972,29.211232 11.7176338,27.7333769 L9.61233807,18.0493528 L22.7682913,27.0615803 L24.7337971,36.4621329 C23.471,36.697401 23.8695406,38.1908227 24.4030066,40.733664 L27.4960303,55.0664442 L27.4675062,30.2116079 L31.6004857,32.9477493" id="path90" fill="#FBBF15"></path>
                        <path d="M66.7980083,57.5571019 C71.7421762,60.0221102 75.1442767,62.9001643 77.2470959,67.2632377 L71.356991,73.7379749 L70.4685444,68.6461011 C69.9944703,66.4880028 69.1829723,65.7410708 68.1578756,65.2753991 C66.5671625,64.5496944 66.5136523,65.7158635 66.7365379,66.9687103 L68.4983952,76.8796001 L63.6179089,82.2443318 C63.0213362,81.6596995 61.70525,80.3927011 60.3993351,79.2716398 L57.6530666,64.5041443 C57.3890533,62.9713638 57.2497498,61.6588155 57.2289648,60.5448299 C60.1295728,60.2007724 63.4794898,59.0430057 66.7980083,57.5571019" id="path92" fill="#FBBF15"></path>
                        <path d="M34.8327686,30.4950794 L54.0422319,42.7395899 C53.8454381,43.0748911 53.5363171,43.4418121 53.1480363,43.8216904 L33.681945,31.4135979 L33.6546592,31.337578 L24.993786,25.6039352 L24.9887888,25.5805853 L5.86755099,12.482034 L9.42438893,28.8424095 L9.80307328,29.3041894 C10.6028964,30.2793138 11.2321943,31.5015139 11.8979765,34.5769367 L17.1914645,59.0266431 C17.3319178,59.676726 17.4949692,60.4289648 17.5835927,60.9821986 L16.4956546,61.3740173 L19.2912322,74.2297383 L37.318606,84.9693732 C37.0379206,85.3541162 36.7927907,85.7578751 36.5835701,86.1527894 L18.0586839,75.1168583 L14.8750908,60.476726 L15.9913761,60.0747359 C15.9378658,59.820894 15.8822329,59.563072 15.8298725,59.3216127 L10.5365614,34.871464 C9.92986155,32.0698721 9.3940075,31.0022767 8.72596993,30.1877715 L8.13448294,29.4664006 L3.76140179,9.35097821 L26.237744,24.7477716 L26.240132,24.7585179 L34.8101705,30.4318843 L34.8327686,30.4950794" id="path94" fill="#FFFFFF"></path>
                        <path d="M71.0682127,55.4741832 C74.5061341,57.509783 77.1197327,59.8310654 79.0571567,62.6427845 C80.0017669,62.2637906 81.0281903,62.0179089 82.1258133,61.9007171 L80.5740168,63.6064108 C79.8447741,63.8076269 79.1615237,64.0809271 78.5348792,64.4364826 C76.5231601,61.117522 73.6216676,58.4915408 69.5889424,56.2312866 C70.0860126,55.9823093 70.5804294,55.7302363 71.0682127,55.4741832" id="path96" fill="#FFFFFF"></path>
                        <path d="M55.3370909,20.0587281 L58.421668,20.7844329 L54.9793242,22.290812 C52.3714746,21.9392808 49.8494183,21.5415804 47.7359855,21.1010719 C36.4859692,18.759491 33.6055713,16.1295739 33.6055713,16.1295739 C33.6055713,16.1295739 33.6988825,16.0711992 33.8586614,15.971166 C35.4218676,16.0199001 39.1896508,16.3957984 46.2920939,18.4451073 C50.7330004,19.7262129 53.5716957,20.0632389 55.3370909,20.0587281" id="path98" fill="#2D7AC8"></path>
                        <path d="M39.0669753,12.7048753 L38.1832163,10.5878604 C38.6124921,10.5878604 39.1982743,10.6051518 39.9039459,10.6640572 C41.5352118,11.0300937 43.4951896,11.5272523 45.0074063,12.0871197 C48.0986168,13.2312213 51.9354326,14.0037586 51.9354326,14.0037586 L50.9722486,15.6091096 C48.762409,15.162056 44.7986722,14.2827636 39.037611,12.7235375 C39.0549023,12.7128355 39.0669753,12.7048753 39.0669753,12.7048753" id="path100" fill="#2D7AC8"></path>
                        <path d="M121.054281,68.3909325 C120.543059,68.2626849 119.356548,68.1680469 118.394248,68.0596998 C124.004861,64.0490863 127.882363,60.0084009 127.882363,60.0084009 C127.882363,60.0084009 112.953452,70.7303465 102.63615,72.4329446 C102.045326,71.2212254 101.589384,70.1302359 101.021999,68.7177429 C102.949693,68.4028728 106.324375,67.5467092 111.239798,65.2378093 C119.505138,61.3572124 122.964287,58.922276 122.964287,58.922276 C114.155,63.3145368 103.246874,65.2055263 103.246874,65.2055263 L101.817134,61.5540062 C101.841457,61.4717508 101.864011,61.3850731 101.88966,61.3045866 C104.444884,61.2187934 113.178107,60.7442771 119.773574,58.1726906 C110.534878,60.000883 104.960528,57.8759521 103.97479,57.4509659 C106.028964,55.0912092 108.888002,54.1793242 111.698394,52.6465437 C107.598449,51.1911541 100.404199,53.0684343 97.8326123,61.3709216 C96.9313409,61.0268641 96.1092292,60.694747 95.3861778,60.3807613 C96.3294614,59.6753993 97.29751,58.8205624 98.2664431,57.8153662 C101.390821,54.5698162 103.555111,48.318849 100.550136,46.396461 C97.5451606,44.4718618 94.1793232,45.4354881 89.2519602,49.7618561 C89.0290746,49.9573232 88.8221094,50.1554437 88.62222,50.3535642 C85.7693732,47.8766157 82.5866204,46.6029839 82.5866204,46.6029839 C82.5866204,46.6029839 66.8068529,57.8936414 57.0463225,59.0191251 C52.0420109,59.5957973 47.8593686,59.1588708 45.8343825,57.8525138 C45.9776661,57.6778316 46.1448302,57.4881135 46.3274726,57.2886663 C49.6442221,56.9786608 58.7661677,55.7691528 68.3060237,51.3569915 C75.4096167,48.0725251 79.306134,45.2417899 80.5174109,44.2967374 C80.2414574,43.7453168 79.9173004,43.0579536 79.5860677,42.2757756 C77.7936962,43.4318176 70.6945256,47.8235477 62.9222759,50.1390811 C56.2087327,52.1379755 53.2033154,51.2658915 52.3555542,50.8988379 L49.0410159,48.9494736 C49.0410159,48.9494736 49.4111652,48.7747915 49.9785504,48.4678816 C53.0923149,48.3807616 59.7850731,47.9447196 65.5486993,45.8834704 C70.9395228,43.9571023 76.6111645,40.7504246 78.5852938,39.5935424 C78.3703684,38.9253279 78.1740168,38.2288105 78.0090638,37.515046 C75.7819771,38.3429952 70.0714189,40.4002643 66.1293516,41.235643 C60.3471516,42.4597447 57.3691528,42.2840454 56.0910987,42.0643439 C55.7956868,39.7187829 55.6205625,38.2398664 55.5692634,37.800773 C56.9331108,38.5684457 60.1158636,39.664344 66.2730774,38.5230283 C71.6966262,37.5172572 75.9840777,35.9005408 77.6123806,35.23582 C77.5301252,34.502155 77.4965155,33.7667653 77.5239339,33.0410605 C75.9938068,33.380165 72.7102248,34.0735425 69.0542824,34.6384513 C65.0436689,35.2584181 62.6631272,34.6583076 61.5208387,34.1917073 C61.8242107,33.4288549 58.3075718,29.8078931 58.3075718,29.8078931 L58.3190699,29.8017019 C59.5661677,30.3885012 62.28546,31.3653945 67.0045312,31.6616465 C71.4339396,31.9408284 76.2790473,30.8930893 77.9201749,30.4959639 C78.0807056,29.9414476 78.2916509,29.4036919 78.5658355,28.8919838 C77.2170241,28.5280258 73.4301806,27.5616577 70.2792686,27.2693857 C65.6313969,26.8359529 62.5861786,26.7174344 62.5861786,26.7174344 L62.5158636,26.7537417 C60.9936967,26.0237031 57.9741279,24.5555328 57.0153662,23.9372465 C57.0153662,23.9372465 63.2778315,22.6003753 69.8945256,23.9341509 C74.38452,24.8384737 78.9381959,26.2403089 80.2533977,26.6569811 C80.7730218,26.1382415 81.3094507,25.7193139 81.8441107,25.3788385 C80.6876707,24.4931779 77.4452164,22.3248198 71.7421762,20.8345379 C66.3977872,19.437523 60.6496392,20.230801 60.6496392,20.230801 L52.0910988,17.6879598 C52.0910988,17.6879598 61.0069636,14.2072744 70.2974001,17.411564 C79.6488648,20.6372576 84.0508547,24.360508 84.0508547,24.360508 C84.7345474,24.1504472 85.3585385,24.0473184 85.873298,23.9987611 C85.873298,23.9987611 78.6171346,16.0672191 67.1190696,12.5293529 C59.8483125,10.2920948 54.1098936,12.7136757 54.1098936,12.7136757 L46.9377545,10.5999334 L45.15467,9.72860119 C45.15467,9.72860119 48.6332768,7.05707003 52.2304022,6.33808718 C55.915532,5.60132656 62.5423976,6.09313418 67.4144815,8.1044553 C80.0915403,13.3378438 88.4793787,24.249419 88.4793787,24.249419 C88.4793787,24.249419 92.3414018,24.6258479 98.4667748,26.509629 C99.8231042,24.9600878 102.377886,24.8044659 102.377886,24.8044659 C102.377886,24.8044659 104.689439,26.106268 110.763955,32.8026526 C109.143613,27.201326 103.905802,23.2217573 101.52526,21.6557651 C101.52526,21.6557651 102.300937,21.0857264 103.61039,20.8898171 C104.373242,20.7756324 105.344829,21.0636147 105.344829,21.0636147 C105.344829,21.0636147 115.421114,27.9222105 119.510003,35.3460245 C120.238361,36.8717293 120.654502,37.8945706 120.654502,37.8945706 C120.367935,37.0435812 119.975674,36.1914419 119.510003,35.3460245 C118.475177,33.1790815 116.811053,29.9958423 114.80641,27.2778324 C112.134436,23.6558535 107.413596,19.6572687 105.480594,18.0847314 C107.264121,17.1039023 108.890655,16.8344053 109.709229,17.6096845 C118.409726,25.8569811 123.58872,37.3471301 124.538637,39.5657259 C135.944275,47.8531774 140.823877,56.45771 141.536315,64.2445534 C139.573684,66.4389149 134.286785,69.9480358 121.054281,68.3909325" id="path102" fill="#2D7AC8"></path>
                        <path d="M37.1500267,93.1462663 C37.1500267,94.1293509 36.3176995,94.886012 35.182752,95.3401856 C34.3876166,95.6590358 33.5199107,96.1609705 33.0706017,96.4338284 C33.2367488,95.3755642 33.4729013,94.2553874 33.8099273,93.0405726 C34.3499383,91.0965151 35.5797448,89.7300143 37.053443,88.7663881 C37.0510107,89.9661669 37.1500267,92.3502464 37.1500267,93.1462663" id="path104" fill="#2D7AC8"></path>
                        <path d="M125.331561,104.894635 C124.136205,103.108455 121.986509,100.50547 119.263236,99.8469848 C119.204419,99.8328333 119.150909,99.8248731 119.092092,99.8116061 C118.915641,98.9890523 118.645437,98.554337 117.224541,96.2790468 L114.660915,92.387394 L115.167272,96.3528997 C115.513541,98.5596437 115.692203,98.9395221 116.519179,99.5166365 L116.524044,99.5586487 C116.040683,99.5834138 115.618792,99.6510755 115.258814,99.7439444 C114.560086,99.4060782 113.825094,99.1562164 113.061357,99.0469848 C110.718847,98.7126565 109.157322,99.0982839 108.184851,99.5568798 C107.437477,99.2813684 106.652513,99.0461003 105.833497,98.8652269 L105.699058,97.9038118 C106.386288,97.4279688 106.510998,96.9008268 106.237255,94.9297931 L104.246321,80.6058576 C103.952678,78.4849068 103.555995,77.8206725 102.805525,77.2581517 L102.568046,75.5648406 C104.897289,75.1274719 107.226089,74.3261452 109.475287,73.307682 L113.322275,74.1961286 L114.010832,79.6554983 C112.970699,80.1760068 113.236039,81.2143706 113.398339,82.4756198 L114.021888,87.3773334 L115.788167,83.1557746 C116.764176,80.7756752 116.734104,80.2494176 116.511219,78.4344922 L116.066332,74.8064105 L126.61448,77.0622424 L127.176558,82.2668857 C125.925923,82.7338841 125.801655,83.4189034 125.423988,84.227748 L122.155,92.1839667 L126.688775,99.1456028 C127.702816,100.635487 128.108786,100.788499 128.73322,101.136979 L129.213485,105.549141 C127.94516,105.307239 126.647205,105.089218 125.331561,104.894635" id="path106" fill="#FBBF15"></path>
                        <path d="M180.038028,111.240683 C180.038028,111.240683 180.577994,112.502816 182.487558,112.256935 C184.761963,111.96285 185.92371,109.230732 185.48413,107.470644 C185.04455,105.709671 183.209725,104.022551 183.209725,104.022551 C183.209725,104.022551 184.97114,107.323823 184.458149,109.230732 C184.007956,110.902816 181.652621,112.414812 180.038028,111.240683" id="path108" fill="#FFFFFF"></path>
                        <path d="M193.75345,101.015807 C193.75345,101.015807 195.47816,100.743834 195.568375,99.3817554 C195.660802,98.0187925 194.207624,96.9304564 192.573572,96.5669406 C191.144274,96.2494172 189.122826,96.3851828 189.122826,96.3851828 C189.122826,96.3851828 193.934766,97.3841877 194.389382,98.8364818 C194.82277,100.225094 193.75345,101.015807 193.75345,101.015807" id="path110" fill="#FFFFFF"></path>
                        <path d="M191.146043,92.8504123 C191.146043,92.8504123 193.504031,93.0644532 194.165612,90.6361503 C194.487557,89.4558297 193.800327,88.3387485 193.294854,87.9778861 C192.789382,87.6161393 191.875728,87.6740719 191.875728,87.6740719 C191.875728,87.6740719 193.130786,88.4165815 193.17722,89.5509099 C193.224097,90.6843537 192.940625,92.0791575 191.146043,92.8504123" id="path112" fill="#FFFFFF"></path>
                        <path d="M185.550465,104.983524 C185.297508,104.608068 185.004749,104.244552 184.67219,103.89563 C184.817242,103.798781 184.963179,103.702374 185.107348,103.601103 L186.168265,102.85992 L186.149249,93.4863437 L185.220559,93.5540054 C185.868431,92.7575433 186.334987,91.854503 186.635263,90.8439999 C186.910775,91.139854 187.292864,91.4573775 187.789492,91.8080685 C187.711659,92.019456 187.630288,92.2277478 187.53963,92.4307329 L187.545822,95.532557 C186.935098,95.6997212 186.55345,95.9354315 186.399553,96.2432259 C186.135982,96.7699257 186.592367,97.9219434 187.553782,99.1783281 L187.563069,103.58474 L185.905579,104.742949 C185.78706,104.825647 185.668984,104.90348 185.550465,104.983524" id="path114" fill="#FFFFFF"></path>
                        <path d="M186.111217,83.2119382 C184.349802,79.5245972 180.089327,77.6123806 173.37711,77.5177427 L173.090101,77.516416 C169.669869,77.516416 166.708232,78.0258687 164.243224,79.0354872 L164.196347,78.085128 L140.98883,76.3754541 L140.985292,76.3365376 L124.720837,74.0966261 L124.724375,74.1258135 L115.230953,72.0950784 L112.917189,71.5604183 C112.884464,71.5789921 112.850854,71.5962392 112.817687,71.614813 C113.443889,71.2650065 114.061689,70.9045864 114.666222,70.5348794 L115.533441,70.7352111 L124.589936,72.672635 L141.733993,75.0332762 L165.526585,76.7858466 L165.542948,77.1077924 C167.76517,76.452845 170.287668,76.1233812 173.090101,76.1233812 L173.396126,76.1247079 C181.205081,76.2343817 185.136977,78.739191 186.981974,81.8763938 C186.665778,82.2859018 186.372135,82.7444977 186.111217,83.2119382" id="path116" fill="#FFFFFF"></path>
                        <path d="M187.02664,88.3250393 C187.032831,88.1684887 187.042118,88.0141493 187.042118,87.8531764 L187.042118,87.7457137 C187.042118,87.5781073 187.037253,87.4140387 187.031947,87.2499702 C187.418016,87.1770017 187.871305,87.0394671 188.40685,86.832502 C188.424097,87.1106667 188.432942,87.3870625 188.434711,87.6608049 C188.431173,87.6621316 188.427635,87.6634583 188.424097,87.664785 C187.847425,87.8832482 187.385291,88.1012692 187.02664,88.3250393" id="path118" fill="#FFFFFF"></path>
                        <path d="M143.657708,109.082584 L143.93145,109.090987 L143.929681,109.071971 L165.680482,108.212269 L165.611052,106.808179 C166.988166,107.429959 168.731892,107.799223 170.930233,107.799223 C171.809393,107.799223 172.769924,107.740406 173.78308,107.623657 C176.803533,107.274735 179.28402,106.647206 181.542947,105.634049 C181.149802,106.454834 180.554556,107.293309 179.480371,107.856271 C179.433495,107.880594 179.393694,107.908897 179.349913,107.934547 C177.713207,108.427195 175.939852,108.777001 173.942726,109.007405 C172.87606,109.130346 171.862903,109.192258 170.930233,109.192258 C169.536756,109.192258 168.259587,109.051186 167.102705,108.773906 L167.140737,109.548698 L146.208952,110.376117 C145.140516,109.959533 143.939853,109.520838 142.629073,109.077278 C142.669316,109.090987 142.712655,109.104696 142.752456,109.118405 L143.657708,109.082584" id="path120" fill="#FFFFFF"></path>
                        <path d="M190.046209,101.675177 C190.049746,101.666775 190.053284,101.65793 190.056822,101.649085 C190.076723,101.664121 190.095739,101.680042 190.115197,101.695078 C191.059365,102.403535 192.02078,102.762629 192.971582,102.762629 C194.692311,102.762629 196.193693,101.515531 196.796457,99.5860672 C196.951681,99.087228 196.95345,98.5755641 196.809282,98.0873386 C198.095296,99.557322 198.825423,101.545161 196.240128,103.555111 C193.606629,105.602651 189.897618,105.011385 189.897618,105.011385 L189.893638,104.991484 L190.053284,104.879599 L190.046209,101.675177" id="path122" fill="#2D7AC8"></path>
                        <path d="M182.349581,112.900826 C183.150908,112.900826 183.883688,112.671307 184.527137,112.21846 C185.821112,111.30746 186.557873,110.076282 186.656048,108.65804 C186.687447,108.209174 186.652511,107.752347 186.559199,107.296404 C186.738304,107.179655 186.91785,107.062905 187.095628,106.940849 C187.461797,107.323823 187.699719,107.763845 187.744384,108.261799 C187.900935,109.979876 186.680371,111.404751 184.7257,113.358096 C183.791261,114.29165 182.788276,114.999223 181.237806,114.769262 C179.877497,114.567604 174.457486,113.358538 170.735651,113.739301 C169.194026,113.898062 167.919067,113.052512 167.323821,112.564729 C167.120836,112.399334 166.89795,112.229516 166.660471,112.057488 L169.748586,111.935431 L169.734877,111.643115 C170.125811,111.665227 170.523379,111.67982 170.930233,111.67982 C171.957099,111.67982 173.06622,111.612601 174.227082,111.478604 C175.747038,111.303038 177.162627,111.056271 178.49994,110.733441 C179.147812,111.939853 180.782748,112.900826 182.349581,112.900826" id="path124" fill="#2D7AC8"></path>
                        <path d="M192.471858,86.7400752 C192.209172,86.7400752 191.932776,86.766167 191.652842,86.8015456 C191.612157,86.271308 191.547591,85.7145363 191.450741,85.1484777 C192.356877,84.3555534 192.662461,83.50735 192.352455,82.6122699 C192.007071,81.6154761 191.143389,80.6116066 190.060802,80.3493623 C190.960305,79.6355978 192.387834,79.6935303 193.072853,80.3537846 C195.98717,83.1601969 194.260692,86.9355423 194.122273,87.2247629 C193.752566,86.9063549 193.202427,86.7400752 192.471858,86.7400752" id="path126" fill="#2D7AC8"></path>
                        <path d="M195.041233,96.0849064 C194.0524,95.5431706 192.732333,95.2446632 191.16329,95.2287428 L190.837364,95.2269738 C190.629514,95.2269738 190.431394,95.2296272 190.239022,95.2340496 L190.031615,94.5423968 L190.028962,93.4969573 L190.168265,93.2961834 C190.812599,93.6490856 191.305689,93.8295167 191.825755,93.8295167 C192.253837,93.8295167 192.691206,93.7092293 193.28601,93.4279689 C194.278823,92.9596439 194.933328,92.0300696 195.130122,90.8103902 C195.347259,89.4629054 194.957651,88.0066313 194.182859,87.268544 C194.173129,87.2601415 194.160305,87.2539503 194.150576,87.2455478 C194.330565,87.2539503 195.211493,87.3326678 196.225534,88.0574881 C197.363842,88.8703129 197.527027,92.2684333 197.187834,93.7003846 C196.803975,95.3167472 195.673627,95.8876704 195.041233,96.0849064" id="path128" fill="#2D7AC8"></path>
                        <path d="M189.495186,81.1683783 C189.495186,81.1683783 191.495849,82.4371455 191.192477,83.6678807 C190.887779,84.8986159 186.892643,85.8710869 186.892643,85.8710869 C186.892643,85.8710869 188.558094,84.7500255 189.190487,84.2016563 C189.821554,83.6524026 191.032831,83.0898818 189.495186,81.1683783" id="path130" fill="#FFFFFF"></path>
                        <path d="M125.84411,144.370146 C125.84411,144.370146 125.18076,144.038471 125.263457,143.34726 C125.346597,142.656492 125.954668,142.241677 126.590157,142.435375 C127.226089,142.628631 127.433054,143.324706 127.336647,143.623656 C127.239798,143.922606 126.147924,144.397564 125.84411,144.370146" id="path132" fill="#FFFFFF"></path>
                    </g>
                </g>
            </g>
        </g>
    </g>
</svg>