<?xml version="1.0" encoding="UTF-8"?>
<svg width="200px" height="200px" viewBox="0 0 200 200" version="1.1" xmlns="http://www.w3.org/2000/svg" xmlns:xlink="http://www.w3.org/1999/xlink">
    <!-- Generator: Sketch 54.1 (76490) - https://sketchapp.com -->
    <title>letourneau</title>
    <desc>Created with Sketch.</desc>
    <g id="letourneau" stroke="none" stroke-width="1" fill="none" fill-rule="evenodd">
        <g id="letourneau_BGL">
            <g id="letourneau" transform="translate(30.000000, 0.000000)">
                <g id="g10" transform="translate(69.694938, 99.939149) scale(-1, 1) rotate(-180.000000) translate(-69.694938, -99.939149) translate(0.000000, 0.326383)" fill-rule="nonzero">
                    <g id="g12">
                        <path d="M64.2579853,138.180245 C64.2579853,138.180245 90.520466,198.807362 97.8231356,198.084574 C101.61658,197.706522 105.325031,194.475396 100.086691,172.322605 C97.5871927,161.748013 83.9351442,141.063915 83.9351442,141.063915 L64.2579853,138.180245 L64.2579853,138.180245" id="path14" fill="#EDAC09"></path>
                        <path d="M69.4549158,147.653317 C69.4549158,147.653317 89.9472676,194.960201 95.6438939,194.396522 C98.6037189,194.103463 101.496229,191.582206 97.4117655,174.290382 C95.4609871,166.039181 82.3868967,144.454149 82.3868967,144.454149 L69.4549158,147.653317 L69.4549158,147.653317" id="path16" fill="#FCCF34"></path>
                        <path d="M98.8879383,196.909619 C98.5459231,197.029291 98.1692305,197.111565 97.7286225,197.154402 C93.6584381,197.556932 78.4370635,168.344214 65.7852223,139.353159 L83.3843842,141.927453 C85.1740142,144.680573 96.9194812,162.982803 99.1769173,172.538149 C102.683423,187.361753 102.58211,195.559917 98.8879383,196.909619 Z M62.7347599,137.016849 L63.4009075,138.555577 C63.4691746,138.704487 70.0627917,153.905463 77.466094,168.820859 C92.7078671,199.526749 96.4883925,199.154136 97.9122091,199.016786 C98.5119256,198.953551 99.0368474,198.840679 99.5264119,198.665252 C104.458094,196.865423 104.911621,188.676097 100.997825,172.106381 C98.4881273,161.492352 85.2773667,141.397771 84.7157275,140.550553 L84.4879441,140.201058 L62.7347599,137.016849 L62.7347599,137.016849 L62.7347599,137.016849 Z" id="path18" fill="#1B458E"></path>
                        <path d="M67.1496113,137.385382 C67.1496113,137.385382 124.05903,189.215978 131.467092,184.956088 C135.321732,182.739449 138.609293,176.810279 121.546613,156.503554 C111.985147,145.121181 89.4339049,131.026484 89.4339049,131.026484 L67.1496113,137.385382 L67.1496113,137.385382" id="path20" fill="#EDAC09"></path>
                        <path d="M68.8130425,139.018624 C68.8130425,139.018624 121.972942,185.631958 127.616532,182.382474 C130.554598,180.694837 133.054777,176.178605 120.060921,160.711768 C112.77049,152.034239 85.7880096,134.177375 85.7880096,134.177375 L68.8130425,139.018624 L68.8130425,139.018624" id="path22" fill="#FCCF34"></path>
                        <path d="M76.1415502,121.161761 C76.1415502,121.161761 74.244488,127.816437 67.6263926,127.161645 C61.0011578,126.508892 61.7533192,123.595984 61.7533192,123.595984 C61.7533192,123.595984 57.6696717,123.975396 53.0687859,122.994907 C50.7041216,122.489024 49.3344291,122.262601 46.3401985,118.209415 C43.1024777,120.266266 41.4233396,122.017139 37.7354235,122.310197 L34.4485422,106.765846 C35.6894521,106.423831 36.818782,106.183128 37.7709849,106.043739 C44.7625091,105.039452 48.5620052,108.247459 48.5620052,108.247459 C48.5620052,108.247459 51.8316157,106.922235 57.2459945,108.847175 C65.2632923,111.701608 64.8006539,113.608869 64.8006539,113.608869 C64.8006539,113.608869 67.6423715,111.463625 72.2665116,115.066003 C77.5191302,119.165426 76.2850198,120.217989 76.1415502,121.161761" id="path24" fill="#FCCF34"></path>
                        <path d="M76.1415502,121.161761 C76.1415502,121.161761 76.0817146,121.359626 75.966123,121.657445 C75.9640831,120.76127 75.3086107,119.391849 71.8701004,116.708764 C67.2429005,113.100266 64.4027468,115.24687 64.4027468,115.24687 C64.4027468,115.24687 64.8657251,113.336209 56.8481554,110.487216 C51.4318728,108.560236 48.1636221,109.88002 48.1636221,109.88002 C48.1636221,109.88002 44.3641261,106.678812 37.3733498,107.684459 C36.6084053,107.791892 35.7186899,107.976158 34.7558119,108.215501 L34.4485422,106.765846 C35.6894521,106.423831 36.818782,106.183128 37.7709849,106.043739 C44.7625091,105.039452 48.5620052,108.247459 48.5620052,108.247459 C48.5620052,108.247459 51.8316157,106.922235 57.2459945,108.847175 C65.2632923,111.701608 64.8006539,113.608869 64.8006539,113.608869 C64.8006539,113.608869 67.6423715,111.463625 72.2665116,115.066003 C77.5191302,119.165426 76.2850198,120.217989 76.1415502,121.161761" id="path26" fill="#EDAC09"></path>
                        <path d="M46.3401985,118.209415 C49.3344291,122.262601 50.7041216,122.489024 53.0687859,122.994907 C57.6696717,123.975396 61.7533192,123.595984 61.7533192,123.595984 C61.7533192,123.595984 61.0011578,126.508892 67.6263926,127.161645 C73.1504474,127.707645 75.3772857,123.177134 75.966123,121.657445 C75.966123,122.13273 75.7954554,122.474065 75.7424192,122.797722 C75.7424192,122.797722 73.8487567,129.456478 67.2282815,128.801006 C60.6032507,128.143494 61.3535762,125.234665 61.3535762,125.234665 C61.3535762,125.234665 57.2699288,125.615437 52.6691109,124.632909 C50.3092063,124.126345 48.9346861,123.903322 45.9426314,119.847416 C42.7053865,121.906307 41.0254325,123.65446 37.3348646,123.948198 L34.0506351,108.406567 C34.2923575,108.335852 34.5247646,108.276696 34.7558119,108.215501 L37.7354235,122.310197 C41.4233396,122.017139 43.1024777,120.266266 46.3401985,118.209415" id="path28" fill="#FCCF34"></path>
                        <path d="M71.7585885,128.524266 C70.4313249,129.005671 68.9762306,129.172939 67.4399502,129.02063 C64.0149709,128.684054 61.7073545,127.694046 60.5780245,126.081883 C60.4531856,125.898977 60.3464333,125.71607 60.2566119,125.533163 C58.5527916,125.564441 55.7307246,125.472648 52.6762504,124.822615 L52.5367925,124.794057 C50.0950898,124.271855 48.4645683,123.78433 45.9303923,120.723872 C45.7899145,120.817026 45.6549443,120.913579 45.5168463,121.007412 C44.1051329,121.976341 42.7736536,122.885435 41.1276971,123.488552 C40.1130748,123.857085 39.0475242,124.080109 37.8820208,124.174622 L36.2437478,124.301773 L35.9064243,122.693689 L32.6230108,107.154778 L32.2551575,105.433823 L33.9536741,104.966697 C35.2538757,104.603603 36.4437893,104.348622 37.5035603,104.190873 C43.3508636,103.355894 47.2592198,105.19788 48.8980368,106.210326 C50.4398248,105.873071 53.5859563,105.561654 57.8736569,107.086103 C61.7268011,108.457563 64.3270682,109.853502 65.6550798,111.267799 C67.3098076,110.894506 70.0491927,110.966581 73.418348,113.59323 C78.099808,117.243885 78.651248,119.194663 78.0250134,121.323589 C78.0107345,121.371865 77.9937357,121.418782 77.9821765,121.465699 L77.9672176,121.58537 L77.9359399,121.675123 C77.880184,121.881828 76.4257696,126.823709 71.7585885,128.524266 L71.7585885,128.524266 Z M71.118075,126.768633 C74.9414374,125.374055 76.1415502,121.161761 76.1415502,121.161761 C76.2850198,120.217989 77.5191302,119.165426 72.2665116,115.066003 C69.0109081,112.529788 66.6378124,112.840525 65.5203816,113.250535 C65.0481559,113.421203 64.8006539,113.608869 64.8006539,113.608869 C64.8006539,113.608869 65.2632923,111.701608 57.2459945,108.847175 C52.1763507,107.045306 48.9851385,108.09175 48.5991985,108.23114 C48.5731564,108.239979 48.5620052,108.247459 48.5620052,108.247459 C48.5620052,108.247459 44.7625091,105.039452 37.7709849,106.043739 C36.818782,106.183128 35.6894521,106.423831 34.4485422,106.765846 L37.7354235,122.310197 C38.7898229,122.226563 39.6801502,122.024618 40.4875916,121.7268 C42.5107167,120.990413 44.0281625,119.680828 46.3401985,118.209415 C49.3344291,122.262601 50.7041216,122.489024 53.0687859,122.994907 C57.6696717,123.975396 61.7533192,123.595984 61.7533192,123.595984 C61.7533192,123.595984 61.0011578,126.508892 67.6263926,127.161645 C68.9782705,127.296275 70.1335066,127.122888 71.118075,126.768633 L71.118075,126.768633 Z" id="path30" fill="#1B458E"></path>
                        <path d="M29.3298587,107.876205 C29.3392587,107.770813 29.3384587,107.67154 29.3188587,107.573627 C29.3384587,107.67154 29.3392587,107.770813 29.3298587,107.876205 Z M29.2684064,108.286216 C29.2989064,108.170624 29.3180064,108.068632 29.3329064,107.967999 C29.3180064,108.068632 29.2989064,108.170624 29.2684064,108.286216 Z M29.1573704,108.738383 C29.1917704,108.622791 29.2255304,108.511959 29.2573704,108.401127 C29.2255304,108.511959 29.1917704,108.622791 29.1573704,108.738383 Z M28.9908505,109.237467 C29.0341634,109.112356 29.0777482,108.994724 29.1130377,108.878453 C29.0777482,108.994724 29.0341634,109.112356 28.9908505,109.237467 Z M29.0984187,107.002469 C29.2197899,107.12758 29.2936325,107.305727 29.3167509,107.525351 C29.2936325,107.305727 29.2197899,107.12758 29.0984187,107.002469 Z M28.8718592,106.84812 C28.9444099,106.879398 29.0041776,106.925635 29.0591176,106.973911 C29.0041776,106.925635 28.9444099,106.879398 28.8718592,106.84812 Z M28.5658814,106.770606 C28.6410839,106.781606 28.7053393,106.812606 28.7695946,106.842606 C28.7053393,106.812606 28.6410839,106.781606 28.5658814,106.770606 Z M28.171442,106.781606 C28.2604476,106.770606 28.3316384,106.770606 28.4092208,106.770606 C28.3316384,106.770606 28.2604476,106.770606 28.171442,106.781606 Z M27.6819456,106.898842 C27.7823743,106.862842 27.8700199,106.837842 27.9629692,106.816842 C27.8700199,106.837842 27.7823743,106.862842 27.6819456,106.898842 Z M27.1037156,107.062305 C27.2179473,107.018788 27.3202119,106.98819 27.4237683,106.954192 C27.3401344,106.98343 27.2612602,106.999749 27.1693308,107.033067 C27.1488643,107.041226 27.1236381,107.055505 27.1037156,107.062305 L27.1037156,107.062305 Z M24.399892,108.210741 C24.5632161,108.148866 24.7146411,108.09515 24.8753134,108.027834 C24.7146411,108.09515 24.5632161,108.148866 24.399892,108.210741 Z M14.5605305,110.797953 C14.4383434,110.831047 14.3108527,110.861263 14.1921333,110.897953 C14.3108527,110.861263 14.4383434,110.831047 14.5605305,110.797953 Z M15.7690068,110.502175 C15.6109863,110.535492 15.4534417,110.56881 15.3002488,110.607567 C15.4534417,110.56609 15.6109863,110.535492 15.7690068,110.502175 Z M17.1174848,110.207756 C16.9037084,110.253313 16.6853762,110.299549 16.4760874,110.343066 C16.6906798,110.299549 16.9018045,110.253313 17.1174848,110.207756 Z M18.822665,109.853502 C18.5419134,109.916057 18.2555862,109.978613 17.982858,110.034369 C18.2555862,109.978613 18.5385136,109.918777 18.822665,109.853502 Z M11.2860923,112.072181 C11.5565087,111.922592 11.8340646,111.785242 12.1097845,111.658091 C11.8340646,111.785242 11.5565087,111.922592 11.2860923,112.072181 Z M12.2895635,111.579217 C12.5684792,111.455466 12.8478709,111.340554 13.1323623,111.236521 C13.1248828,111.236521 13.122775,111.236521 13.1169274,111.236521 C12.8393715,111.345314 12.5636516,111.455466 12.2895635,111.579217 Z M10.2775896,112.710654 C10.0080572,112.895601 9.74294442,113.102986 9.473344,113.32193 C9.74294442,113.102986 10.0080572,112.895601 10.2775896,112.710654 Z M11.1612534,112.149015 C10.9155873,112.287045 10.6680852,112.445474 10.4184074,112.614101 C10.6680852,112.445474 10.9155873,112.287045 11.1612534,112.149015 Z M9.29750877,113.472199 C9.02314869,113.710182 8.74824466,113.960404 8.47014486,114.234424 C8.74824466,113.958364 9.02314869,113.710182 9.29750877,113.472199 Z M3.37717873,127.78516 C3.27677722,127.730084 3.17850396,127.657329 3.08102624,127.578455 C3.17850396,127.657329 3.27492096,127.730084 3.37717873,127.78516 Z M2.93893016,127.464903 C2.80160733,127.330273 2.66136752,127.173204 2.52989227,126.976018 C2.66136752,127.173204 2.80160733,127.330273 2.93893016,127.464903 Z M3.81807911,127.968746 C3.7245859,127.946308 3.62738016,127.908231 3.53255425,127.862674 C3.62738016,127.908231 3.7245859,127.946308 3.81807911,127.968746 Z M4.26775085,128.061543 C4.16788651,128.054543 4.06642428,128.041543 3.9615079,128.009543 C4.06642428,128.043543 4.16788651,128.054543 4.26775085,128.061543 Z M4.99126591,127.960587 C4.9336265,127.986587 4.86323801,128.003587 4.79338668,128.024587 C4.86669216,128.003587 4.92884644,127.986587 4.99126591,127.960587 Z M4.70308244,128.026542 C4.59630979,128.050542 4.47864434,128.064542 4.3538122,128.061542 C4.47864434,128.064542 4.59630979,128.050542 4.70308244,128.026542 Z M5.13814204,127.926272 C5.16257947,127.915272 5.17532854,127.903272 5.19578146,127.893272 C5.16735952,127.907272 5.1235367,127.929272 5.08236569,127.950272 C5.0988341,127.943272 5.12539297,127.933272 5.13814204,127.926272 Z M6.10680649,129.15322 C5.9689601,129.078426 5.8327048,128.994112 5.70175991,128.890079 C5.8327048,128.994112 5.9689601,129.078426 6.10680649,129.15322 Z M6.99873172,129.457604 C6.88898769,129.444604 6.78224224,129.415604 6.67201544,129.377604 C6.78224224,129.415604 6.88898769,129.444604 6.99873172,129.457604 Z M7.52807327,129.453999 C7.38439971,129.466999 7.24303797,129.466999 7.09562468,129.448999 C7.24303797,129.466999 7.38439971,129.466999 7.52807327,129.453999 Z M7.96072585,129.389843 C7.8526137,129.423843 7.73892596,129.448843 7.62823,129.462843 C7.73892596,129.448843 7.8526137,129.423843 7.96072585,129.389843 Z M8.40432564,129.276291 C8.30280901,129.31369 8.19925253,129.348649 8.0978039,129.376291 C8.19925253,129.348649 8.30280901,129.31369 8.40432564,129.276291 Z M6.53044973,129.332047 C6.42951786,129.302129 6.33469874,129.263372 6.23429723,129.215096 C6.33469874,129.263372 6.42951786,129.302129 6.53044973,129.332047 Z M9.22047036,128.934276 C9.16342251,128.964197 9.10549071,128.998056 9.03987548,129.034276 C9.10549071,128.998056 9.16124666,128.964197 9.22047036,128.934276 Z M9.68480864,128.673175 C9.63136452,128.70411 9.57907632,128.737204 9.52461228,128.773175 C9.57907632,128.737204 9.63136452,128.706988 9.68480864,128.673175 Z M10.0996465,128.404595 C10.0672809,128.435595 10.0300876,128.471595 9.99554607,128.502595 C10.0300876,128.471595 10.0672809,128.435595 10.0996465,128.404595 Z M10.5662079,128.068699 C10.5293285,128.101709 10.4994624,128.134718 10.4662079,128.168699 C10.500014,128.134718 10.5293285,128.101709 10.5662079,128.068699 Z M10.8787812,127.804878 C10.8453512,127.837637 10.8145317,127.874706 10.7787812,127.904878 C10.8145317,127.874706 10.8453512,127.837637 10.8787812,127.804878 Z M11.1239714,127.607013 C11.0912972,127.635013 11.0607887,127.670013 11.0239714,127.703013 C11.0607887,127.667013 11.0883782,127.639013 11.1239714,127.607013 Z M8.70520378,129.165459 C8.64332828,129.198478 8.58172475,129.234327 8.52277303,129.265459 C8.54106371,129.257912 8.5604423,129.249422 8.57723708,129.239044 C8.62286176,129.217346 8.66223091,129.185271 8.70520378,129.165459 Z M11.246659,127.481222 C11.234959,127.497222 11.210759,127.517222 11.193959,127.535222 C11.213459,127.511222 11.228359,127.499222 11.246659,127.481222 Z M5.31719391,127.849755 C5.31719391,127.849755 5.27344391,127.868755 5.23907391,127.885755 C5.28516391,127.868755 5.31719391,127.849755 5.31719391,127.849755 Z M11.3485944,127.478143 C11.3317944,127.471143 11.3200944,127.467143 11.3134944,127.460143 C11.3231944,127.467143 11.3302944,127.467143 11.3485944,127.478143 Z M11.4861478,127.543178 C11.4720478,127.540178 11.4654478,127.540178 11.4595478,127.530178 C11.4720478,127.533178 11.4720478,127.540178 11.4861478,127.543178 Z M11.7538128,127.652011 C11.7257128,127.642011 11.6937128,127.627011 11.6659128,127.624011 C11.6964128,127.627011 11.7257128,127.642011 11.7538128,127.652011 Z M12.0086291,127.742844 C11.9812291,127.735844 11.9629291,127.720844 11.9363291,127.717844 C11.9629291,127.727844 11.9812291,127.735844 12.0086291,127.742844 Z M12.3625014,127.832358 C12.3320029,127.818358 12.294955,127.818358 12.2625014,127.812358 C12.294955,127.818358 12.3320029,127.818358 12.3625014,127.832358 Z M12.6734901,127.873674 C12.6449901,127.873674 12.6148901,127.865674 12.5843901,127.862674 C12.6148901,127.865674 12.6449901,127.873674 12.6734901,127.873674 Z M13.0411879,127.862674 C13.0079879,127.865674 12.9786879,127.873674 12.9442879,127.875674 C12.9786879,127.873674 13.0079879,127.865674 13.0411879,127.862674 Z M13.3443859,127.789239 C13.3138859,127.805239 13.2779859,127.812239 13.2478859,127.823239 C13.2654859,127.815239 13.2896859,127.812239 13.3119859,127.808239 C13.3255859,127.805239 13.3396859,127.794239 13.3443859,127.789239 L13.3443859,127.789239 Z M13.5330364,127.683847 C13.5000252,127.711847 13.4666918,127.733847 13.4330364,127.751847 C13.4666918,127.733847 13.5000252,127.711847 13.5330364,127.683847 Z M13.7282502,127.520659 C13.6969697,127.562816 13.6614858,127.586345 13.6282502,127.620659 C13.6614858,127.586345 13.6969697,127.564776 13.7282502,127.520659 Z M13.8680421,127.303755 C13.8458421,127.3483 13.8219421,127.374664 13.7950421,127.403755 C13.8219421,127.374664 13.8458421,127.3483 13.8680421,127.303755 Z M20.2917663,109.512167 C19.9602904,109.594441 19.63541,109.675355 19.3196409,109.74607 C19.63541,109.675355 19.9602904,109.594441 20.2917663,109.512167 Z M22.0646696,109.029402 C21.5870722,109.173551 21.1183143,109.304782 20.6662831,109.423093 C21.1183143,109.304782 21.5870722,109.173551 22.0646696,109.029402 Z M23.5613769,118.344045 C23.5101086,118.407961 23.4715554,118.464397 23.4383738,118.509953 C23.4715554,118.464397 23.5101086,118.407961 23.5613769,118.344045 Z M23.4139636,118.543271 C23.3348173,118.649343 23.2909605,118.707139 23.2909605,118.707139 C23.2909605,118.707139 23.3348173,118.649343 23.4139636,118.543271 Z M23.9895418,117.744329 C23.9103275,117.852441 23.8367569,117.955793 23.7677419,118.052346 C23.8367569,117.955793 23.9103275,117.855161 23.9895418,117.744329 Z M24.26125,117.356077 C24.1833957,117.466909 24.109553,117.568222 24.0399941,117.667494 C24.109553,117.568222 24.1833957,117.466909 24.26125,117.356077 Z M24.5698796,116.912749 C24.4843418,117.03582 24.4030877,117.151412 24.3236695,117.262244 C24.4030877,117.151412 24.4843418,117.03582 24.5698796,116.912749 Z M24.8997237,116.434064 C24.8062304,116.565974 24.7146411,116.693805 24.632775,116.824356 C24.7194008,116.693805 24.8062304,116.565974 24.8997237,116.434064 Z M25.2492863,115.911182 C25.1555211,116.053292 25.0633198,116.185882 24.9749262,116.318472 C25.0633198,116.185882 25.1555211,116.053292 25.2492863,115.911182 Z M25.6168676,115.359742 C25.5215385,115.506611 25.4269574,115.646681 25.336116,115.788791 C25.4269574,115.646681 25.5215385,115.506611 25.6168676,115.359742 Z M26.3794322,114.176628 C26.2803634,114.333017 26.1825865,114.488045 26.0837897,114.642394 C26.1825865,114.488045 26.2803634,114.333017 26.3794322,114.176628 Z M26.754493,113.567392 C26.6593679,113.727181 26.5650587,113.87881 26.4702736,114.035198 C26.5650587,113.87881 26.6593679,113.727181 26.754493,113.567392 Z M27.1268339,112.948637 C27.0368085,113.102986 26.947055,113.256655 26.8527458,113.408284 C26.947055,113.256655 27.0368085,113.102986 27.1268339,112.948637 Z M23.7584265,118.065266 C23.6960071,118.152979 23.6375993,118.230494 23.5897988,118.303248 C23.6375993,118.233893 23.6960071,118.152979 23.7584265,118.065266 Z M27.4861878,112.327162 C27.4025539,112.479471 27.3156562,112.6277 27.2267187,112.777969 C27.3156562,112.6277 27.4025539,112.479471 27.4861878,112.327162 Z M27.8336426,111.708407 C27.7544963,111.855277 27.6695025,112.006905 27.5849846,112.155815 C27.6721543,112.006905 27.7544963,111.855277 27.8336426,111.708407 Z M28.1555312,111.101891 C28.0825045,111.243321 28.0041062,111.39019 27.9276118,111.53774 C28.0041062,111.39019 28.0825045,111.243321 28.1555312,111.101891 Z M28.4530096,110.503535 C28.3861025,110.644284 28.3128038,110.786394 28.2423609,110.927824 C28.3128038,110.786394 28.3861025,110.644284 28.4530096,110.503535 Z M23.5379866,108.541197 C23.1244406,108.690786 22.7246976,108.818617 22.3299863,108.941688 C22.7246976,108.818617 23.1244406,108.690786 23.5379866,108.541197 Z M25.7061451,115.224432 C25.7974625,115.078242 25.8991831,114.930693 25.9943082,114.779744 C25.8991831,114.930693 25.7974625,115.078242 25.7061451,115.224432 Z M28.9342786,109.394535 C28.8832824,109.513527 28.8354818,109.642037 28.7797259,109.771908 C28.8354818,109.642037 28.8832824,109.513527 28.9342786,109.394535 Z M28.7124788,109.933736 C28.6522351,110.066326 28.5924675,110.200277 28.5318839,110.339667 C28.5924675,110.200277 28.6522351,110.066326 28.7124788,109.933736 Z M27.5420118,114.073275 C25.9019029,116.756361 24.1196843,119.159986 24.0444818,119.264018 L23.7770572,119.625752 L23.3294457,119.642071 L15.0345921,119.963008 C15.4170643,121.407223 15.766355,123.965197 14.856649,127.272477 C14.664903,127.955827 14.2244989,128.459671 13.6109795,128.681335 C12.86011,128.952635 12.0178552,128.753409 11.4524083,128.541265 C10.9089917,129.001591 9.97215577,129.7101 8.89830976,130.099032 C7.45953425,130.619194 6.14930341,130.453966 5.11423498,129.612867 C4.874396,129.423161 4.70042383,129.202857 4.57957621,128.979833 C3.62232813,129.045108 2.54370886,128.681335 1.75300109,127.493461 C1.50784489,127.127647 1.42895702,126.651002 1.42895702,126.212434 C1.34263729,126.175716 1.25286341,126.137639 1.16388507,126.081883 C0.79628337,125.862939 0.311290233,125.405332 0.120850343,124.456801 C-0.30279085,122.346235 0.465341205,121.523494 1.21514655,120.728632 L1.41302578,120.518527 C1.82657175,120.06296 2.11077071,119.721625 2.4441029,119.321814 C3.25420286,118.341325 4.27014428,117.122174 7.80746498,113.576911 C9.30281238,112.07966 10.8853295,111.058374 12.7995264,110.364145 C14.2059363,109.849422 15.6659263,109.547524 17.2183895,109.237467 C19.0186948,108.871653 21.0558948,108.457563 23.3560318,107.615784 C24.2218809,107.300967 25.0585601,106.951473 25.9125101,106.548942 C26.2484737,106.392553 26.5624069,106.257243 26.8513859,106.15729 C28.3074322,105.622849 29.3327297,105.739801 29.9013724,106.506105 C30.5180876,107.334965 30.7226168,108.883892 27.5420118,114.073275 L27.5420118,114.073275 Z" id="path32" fill="#1B458E"></path>
                        <path d="M12.8035381,126.937261 C12.8035381,126.937261 11.883225,126.874706 10.7610345,124.639708 C10.3196105,123.753732 10.4082761,122.869117 10.4953778,122.251042 C10.5817315,121.628887 11.4603637,120.966615 12.1753998,120.925818 C13.5889491,120.829945 13.6787026,122.867077 13.6813544,124.458841 C13.6813544,125.533163 13.2399305,126.759114 12.8035381,126.937261 L12.8035381,126.937261" id="path34" fill="#FCCF34"></path>
                        <path d="M4.59365119,123.0935 C6.25634123,122.217044 9.00669389,121.911066 11.9402728,119.463244 C13.0101751,118.567749 13.5052472,117.693333 13.604316,117.399594 C13.7039288,117.105175 12.9920884,113.651026 12.130183,113.384485 C10.5618089,112.890841 8.63401295,115.090482 4.09962626,120.056841 C3.55566577,120.653158 3.216486,121.135243 2.59231173,121.889988 C1.92882952,122.700489 1.905718,123.664659 2.20187049,124.254856 C2.49456883,124.842333 3.54131881,124.815135 3.54131881,124.815135 C3.54131881,124.815135 2.87173064,126.451096 4.11024709,127.115408 C5.04305775,127.619252 6.00800287,127.148726 6.00800287,127.148726 C6.00800287,127.148726 5.40241845,127.932029 6.60428556,128.584782 C8.3222556,129.514274 10.7716417,126.617684 10.5764279,125.831661 C10.3883535,125.093235 9.1071226,125.738508 9.1071226,125.738508 C9.1071226,125.738508 10.188652,125.150351 9.79604856,124.367048 C9.4016772,123.582385 8.12357403,124.463601 8.12357403,124.463601 C8.12357403,124.463601 8.80801232,123.680978 8.61096263,122.700489 C8.38651093,121.57857 6.51929174,123.933919 4.59365119,123.0935 L4.59365119,123.0935" id="path36" fill="#FCCF34"></path>
                        <path d="M9.73097729,127.001856 C9.73097729,127.001856 10.8123028,126.412339 10.4205152,125.634476 C10.4050803,125.600478 10.3763864,125.586199 10.3625834,125.562401 C10.4595444,125.615437 10.5432463,125.694311 10.5764279,125.831661 C10.6282401,126.043806 10.4855865,126.414379 10.217346,126.81691 C9.94828951,126.896464 9.73097729,127.001856 9.73097729,127.001856" id="path38" fill="#FCCF34"></path>
                        <path d="M8.75035251,125.727629 C8.75035251,125.727629 9.38467844,124.988523 9.24787237,124.051551 C9.47150813,124.054271 9.67284151,124.129065 9.79604856,124.367048 C9.98942652,124.760059 9.81814696,125.104114 9.59634707,125.348217 C9.16661827,125.448849 8.75035251,125.727629 8.75035251,125.727629" id="path40" fill="#FCCF34"></path>
                        <path d="M5.21835582,124.357529 C6.09963301,123.890402 7.29138246,123.579665 8.64598009,123.035705 C8.64761197,123.307685 8.59049612,123.550427 8.51481761,123.760532 C7.75436084,124.06855 6.50335369,124.917128 5.21835582,124.357529" id="path42" fill="#FCCF34"></path>
                        <path d="M6.69835891,128.411394 C6.69835891,128.411394 6.64269053,128.484054 6.59647721,128.60329 C6.53825644,128.569755 6.4982285,128.537151 6.44837289,128.50641 C6.60812137,128.453313 6.69835891,128.411394 6.69835891,128.411394" id="path44" fill="#FCCF34"></path>
                        <path d="M12.7551937,114.647154 C11.1865476,114.157589 9.25902356,116.35247 4.72645234,121.320869 C4.18275703,121.918546 3.84198618,122.397231 3.22100087,123.154016 C2.82338615,123.637461 2.67411659,124.167142 2.668541,124.649227 C2.47677452,124.564913 2.30093929,124.444562 2.20187049,124.254856 C1.905718,123.664659 1.92882952,122.700489 2.59231173,121.889988 C3.216486,121.135243 3.55566577,120.653158 4.09962626,120.056841 C8.63401295,115.090482 10.5618089,112.890841 12.130183,113.384485 C12.4840293,113.493278 12.8070059,114.138551 13.0651151,114.881057 C12.9676782,114.762745 12.86011,114.677752 12.7551937,114.647154" id="path46" fill="#EDAC09"></path>
                        <path d="M3.98939947,127.031774 C3.57186899,126.744835 3.40639621,126.340265 3.37717873,125.949293 C3.75168193,126.092083 4.16549308,126.081883 4.16549308,126.081883 C4.16549308,126.081883 3.99391434,126.515692 3.98939947,127.031774" id="path48" fill="#FCCF34"></path>
                        <path d="M99.9622602,140.260894 C99.9622602,140.260894 106.421111,140.976202 113.755738,141.894815 C118.837009,142.527169 124.33101,143.259476 128.384196,143.914948 C144.253564,146.483122 132.084487,135.978565 128.380116,134.25421 C122.331276,131.431735 114.027039,129.813452 114.027039,129.813452 L99.9622602,140.260894 L99.9622602,140.260894" id="path50" fill="#FCCF34"></path>
                        <path d="M102.420282,139.598622 L114.248703,130.81298 C115.969658,131.176753 122.856878,132.708682 127.985065,135.100068 C130.364892,136.212468 135.482881,140.566871 135.397887,142.489772 C135.391087,142.614203 135.379528,142.873944 134.750574,143.103087 C133.97951,143.387306 132.269434,143.599451 128.531745,142.992255 C125.02728,142.424496 120.096278,141.742506 113.87133,140.966682 C109.261265,140.391444 104.959217,139.886921 102.420282,139.598622 L102.420282,139.598622 Z M113.798575,128.818685 L97.4953994,140.933365 L99.8534681,141.191066 C99.9228231,141.195826 106.399353,141.918613 113.639467,142.822268 C119.839257,143.594691 124.74986,144.273282 128.232567,144.835601 C131.600363,145.382282 133.940753,145.391121 135.391087,144.861439 C136.958373,144.288241 137.237833,143.180602 137.265031,142.568646 C137.4119,139.278365 130.94421,134.415358 128.775168,133.404272 C122.69097,130.570917 114.549921,128.964874 114.205186,128.897559 L113.798575,128.818685 L113.798575,128.818685 L113.798575,128.818685 Z" id="path52" fill="#1B458E"></path>
                        <path d="M130.894574,184.196583 C125.29926,186.232355 90.5259056,157.306576 69.0224672,137.820551 L89.2870355,132.04369 C92.1734259,133.880917 112.117737,146.738103 120.831305,157.10599 C132.348988,170.813115 134.093061,177.504509 133.526663,180.694837 C133.266242,182.190728 132.438062,183.319446 131.002006,184.146266 C130.968688,184.164625 130.932651,184.182304 130.894574,184.196583 Z M65.2832148,136.949534 L66.5222888,138.078932 C66.6617467,138.204723 80.6360238,150.91436 95.4562275,163.093635 C125.805143,188.041703 130.11671,186.468298 131.534407,185.952215 C131.677197,185.899179 131.809787,185.839343 131.934218,185.769988 C133.851679,184.666429 135.007595,183.067185 135.368649,181.022573 C136.303581,175.727798 132.019212,167.515354 122.263961,155.906557 C112.712694,144.536423 90.8522819,130.8157 89.9261891,130.237062 L89.5739747,130.018117 L65.2832148,136.949534 L65.2832148,136.949534 L65.2832148,136.949534 Z" id="path54" fill="#1B458E"></path>
                        <path d="M87.8414605,115.320985 C87.8305813,115.367221 86.4672803,120.000405 83.8345115,130.827259 C82.9512557,134.464315 81.0643927,136.829183 78.2337583,137.859988 C75.029831,139.025423 71.1085557,138.298556 68.4438293,137.650563 L52.805577,119.289857 L52.9901836,119.159986 C53.0467555,119.118509 58.836467,114.998008 65.7010445,112.49851 C69.9084429,110.966581 73.6563307,110.345786 76.8391796,110.655844 C79.4481501,110.908785 87.4042523,114.911655 87.738788,115.083002 L87.8931368,115.157117 L87.8414605,115.320985" id="path56" fill="#1B458E"></path>
                        <path d="M29.7730657,92.6351124 C29.7730657,92.6351124 16.8792301,127.182723 26.203325,152.789664 C34.3938061,175.28311 44.6695599,181.311552 58.1238108,178.941924 C72.1577195,176.465544 78.4268642,162.325291 76.83306,151.922727 C74.7768893,138.465824 64.5536278,123.014626 57.7461662,117.58794 C50.3867207,111.718606 38.3131095,108.851935 29.7730657,92.6351124 L29.7730657,92.6351124" id="path58" fill="#FCCF34"></path>
                        <path d="M58.7288988,118.218254 C58.7288988,118.218254 68.7056103,126.532691 73.1171299,130.198984 C75.7954554,127.908231 78.8443539,124.630189 83.8181927,125.015721 C80.9617202,120.788468 72.5894882,114.961971 69.6623008,112.953397 C65.4997111,113.589831 59.2268946,117.339078 59.2268946,117.339078 L58.7288988,118.218254" id="path60" fill="#FCCF34"></path>
                        <path d="M73.0593341,135.508719 C73.2225222,136.45181 72.3821032,137.842989 78.664167,140.055548 C84.2010049,142.006327 86.2143387,139.06622 86.2143387,139.06622 C86.2143387,139.06622 86.374807,141.024478 94.885069,141.176787 C100.631332,141.27946 103.310337,138.986666 103.310337,138.986666 C103.310337,138.986666 107.931281,140.817773 114.244623,137.643764 C118.96212,135.265296 127.715125,128.281524 130.593356,119.829057 C132.344229,114.689991 131.843105,115.425017 131.843105,115.425017 C131.843105,115.425017 134.093061,115.261149 136.881539,106.342237 C137.211995,105.294433 132.105566,102.259133 132.105566,102.259133 C132.105566,102.259133 131.159075,99.9697397 130.431527,100.674169 C129.697861,101.379957 129.230735,103.416409 127.874233,106.328638 C126.322586,105.685405 125.833701,107.050065 126.227393,108.133907 C126.756394,109.589001 128.372637,114.930693 128.372637,114.930693 C128.372637,114.930693 120.284624,119.474123 112.22381,121.245395 C106.123293,122.587617 105.282194,125.094595 102.250294,128.837043 C98.1223139,125.944533 96.7508535,126.164157 94.347908,126.438177 C89.6725675,126.971259 85.9226399,128.628298 85.9226399,128.628298 C85.9226399,128.628298 85.7084554,125.631756 79.2244463,127.115408 C72.7356776,128.597021 73.0593341,135.508719 73.0593341,135.508719 L73.0593341,135.508719" id="path62" fill="#FCCF34"></path>
                        <path d="M73.0593341,135.508719 C73.2225222,136.45181 72.3821032,137.842989 78.664167,140.055548 C84.2010049,142.006327 86.2143387,139.06622 86.2143387,139.06622 C86.2143387,139.06622 86.374807,141.024478 94.885069,141.176787 C100.631332,141.27946 103.310337,138.986666 103.310337,138.986666 C103.310337,138.986666 107.931281,140.817773 114.244623,137.643764 C118.96212,135.265296 127.715125,128.281524 130.593356,119.829057 C132.344229,114.689991 131.843105,115.425017 131.843105,115.425017 C131.843105,115.425017 134.093061,115.261149 136.881539,106.342237 C137.211995,105.294433 132.105566,102.259133 132.105566,102.259133 C132.105566,102.259133 131.159075,99.9697397 130.431527,100.674169 C129.697861,101.379957 129.230735,103.416409 127.874233,106.328638 C126.322586,105.685405 125.833701,107.050065 126.227393,108.133907 C126.756394,109.589001 128.372637,114.930693 128.372637,114.930693 C128.372637,114.930693 120.284624,119.474123 112.22381,121.245395 C106.123293,122.587617 105.282194,125.094595 102.250294,128.837043 C98.1223139,125.944533 96.7508535,126.164157 94.347908,126.438177 C89.6725675,126.971259 85.9226399,128.628298 85.9226399,128.628298 C85.9226399,128.628298 85.7084554,125.631756 79.2244463,127.115408 C72.7356776,128.597021 73.0593341,135.508719 73.0593341,135.508719 L73.0593341,135.508719" id="path64" fill="#FCCF34"></path>
                        <path d="M78.1718828,138.24756 C83.704641,140.196298 85.7172948,137.254832 85.7172948,137.254832 C85.7172948,137.254832 85.8866025,139.215809 94.3914248,139.368118 C100.139727,139.468071 102.816013,137.178677 102.816013,137.178677 C102.816013,137.178677 107.438317,139.011144 113.745539,135.832375 C118.468476,133.457308 127.221481,126.472855 130.101751,118.021069 C131.310024,114.472406 131.445334,113.724461 131.412016,113.59935 C131.76831,113.506877 133.740847,112.652859 136.18051,105.170002 C136.664635,105.639168 136.973332,106.060057 136.881539,106.342237 C134.350083,114.437729 132.269434,115.316905 131.90838,115.404619 C131.892061,115.351583 131.843105,115.425017 131.843105,115.425017 C131.843105,115.425017 131.868943,115.416858 131.90838,115.404619 C131.938978,115.532449 131.805028,116.282435 130.593356,119.829057 C127.715125,128.281524 118.96212,135.265296 114.244623,137.643764 C107.931281,140.817773 103.310337,138.986666 103.310337,138.986666 C103.310337,138.986666 100.631332,141.27946 94.885069,141.176787 C86.374807,141.024478 86.2143387,139.06622 86.2143387,139.06622 C86.2143387,139.06622 84.2010049,142.006327 78.664167,140.055548 C72.3821032,137.842989 73.2225222,136.45181 73.0593341,135.508719 C73.0593341,135.508719 73.0532145,135.482881 73.0532145,135.475401 C73.6434116,136.221987 74.9951535,137.127681 78.1718828,138.24756" id="path66" fill="#EDAC09"></path>
                        <path d="M131.939105,115.413675 C131.881105,115.431675 131.843105,115.443675 131.843105,115.443675 C131.843105,115.443675 131.915105,115.335675 131.939105,115.413675" id="path68" fill="#FCCF34"></path>
                        <path d="M127.825277,113.148543 C127.307834,111.455466 126.553769,109.036881 126.227393,108.133907 C126.142399,107.902724 126.108401,107.659981 126.105682,107.426078 C126.792432,109.516926 127.875593,113.122704 127.875593,113.122704 C127.875593,113.122704 127.859274,113.132224 127.825277,113.148543" id="path70" fill="#FCCF34"></path>
                        <path d="M136.387895,104.528809 C136.31786,104.757272 136.247825,104.954458 136.18051,105.170002 C134.843047,103.890335 132.105566,102.259133 132.105566,102.259133 C132.105566,102.259133 131.159075,99.9697397 130.431527,100.674169 C129.697861,101.379957 129.230735,103.416409 127.874233,106.328638 C126.653042,105.822075 126.096162,106.559141 126.105682,107.426078 C125.956772,106.970511 125.826902,106.583619 125.732389,106.325238 C125.340737,105.241397 125.826902,103.873336 127.380589,104.517249 C128.736411,101.607061 129.203537,99.5719686 129.933124,98.86346 C130.66543,98.1603911 131.609882,100.448425 131.609882,100.448425 C131.609882,100.448425 136.717671,103.483045 136.387895,104.528809" id="path72" fill="#FCCF34"></path>
                        <path d="M112.22381,121.245395 C106.123293,122.587617 105.282194,125.094595 102.250294,128.837043 C98.1223139,125.944533 96.7508535,126.164157 94.347908,126.438177 C89.6725675,126.971259 85.9226399,128.628298 85.9226399,128.628298 C85.9226399,128.628298 85.7084554,125.631756 79.2244463,127.115408 C72.9213041,128.556224 73.0396155,135.096669 73.0532145,135.475401 C72.481376,134.743094 72.6432043,134.167856 72.5622902,133.70073 C72.5622902,133.70073 72.2427134,126.787672 78.7287623,125.30402 C85.2168511,123.823087 85.4296757,126.81691 85.4296757,126.81691 C85.4296757,126.81691 89.1809632,125.15987 93.8535839,124.627469 C96.2572093,124.357529 97.6300296,124.137904 101.75325,127.024295 C104.78583,123.285926 105.633728,120.778268 111.734925,119.439446 C119.444885,117.744329 127.173204,113.511636 127.825277,113.148543 C128.143494,114.171868 128.372637,114.930693 128.372637,114.930693 C128.372637,114.930693 120.284624,119.474123 112.22381,121.245395" id="path74" fill="#FCCF34"></path>
                        <path d="M131.440501,113.609914 C131.391501,113.623914 131.351501,113.630914 131.351501,113.630914 C131.351501,113.630914 131.422501,113.524914 131.440501,113.609914" id="path76" fill="#FCCF34"></path>
                        <path d="M112.841885,140.283332 C108.609872,141.82138 105.240717,141.402531 103.638073,141.024478 C103.13423,141.325016 102.423681,141.694229 101.498269,142.029445 C99.5264119,142.750873 97.2852947,143.090848 94.8510714,143.045291 C90.7611685,142.973217 87.8523397,142.474133 86.1470236,141.557559 C85.8070483,141.763584 85.4140368,141.95669 84.9523503,142.125318 C82.9818534,142.840626 80.6564223,142.742033 78.0420122,141.82002 C72.4446587,139.849523 71.3016617,138.174805 71.215308,135.956806 C71.215308,135.90649 71.215308,135.856173 71.2112283,135.807217 L71.1894699,135.691625 L71.18743,135.598472 C71.0691186,133.0065 72.2352339,127.594773 77.5068911,125.674593 C77.9216609,125.522964 78.3588692,125.395813 78.8049168,125.2945 C82.1604731,124.528196 84.6660911,124.731501 86.2428966,125.902376 C86.4210437,126.034287 86.5849118,126.173677 86.7243016,126.318506 C88.2419514,125.783385 90.9971113,124.938206 94.1378032,124.581912 L94.2778731,124.564913 C96.7590129,124.283414 98.4588894,124.224938 101.838244,126.318506 C101.943636,126.183196 102.046989,126.043806 102.148301,125.911896 C103.918893,123.558587 105.448102,121.529614 109.130714,120.190791 C109.941895,119.892973 110.823791,119.639351 111.823319,119.422447 C113.692503,119.013797 115.724875,118.407961 117.876239,117.626017 C121.409943,116.339551 124.4738,114.853859 126.134919,113.999161 C125.619517,112.322403 124.805616,109.697793 124.4738,108.77442 C123.805409,106.941953 124.532956,105.051691 126.134919,104.466253 C126.296748,104.408457 126.493933,104.350662 126.717637,104.324823 C126.995057,103.666631 127.2276,103.071674 127.440425,102.519555 C128.002064,101.0699 128.408674,100.027536 129.133502,99.3312661 C129.374884,99.0953232 129.654344,98.9164962 129.960322,98.8056642 C130.631433,98.560882 132.262634,98.3242592 133.572219,100.965867 C134.078103,101.282044 134.896763,101.804926 135.708624,102.390364 C137.435019,103.632634 139.230088,105.106767 138.670489,106.901156 C137.071925,112.006905 135.363889,115.263189 133.584458,116.607451 C133.382513,117.359477 133.01058,118.526272 132.363947,120.428774 C129.312329,129.387123 120.142515,136.765947 115.079602,139.314402 C114.345256,139.683615 113.59391,140.008632 112.841885,140.283332 L112.841885,140.283332 Z M112.204771,138.527019 C112.861603,138.288357 113.542914,137.997338 114.244623,137.643764 C118.96212,135.265296 127.715125,128.281524 130.593356,119.829057 C131.799588,116.299434 131.936938,115.538569 131.90838,115.407339 C131.864863,115.422297 131.843105,115.425017 131.843105,115.425017 C131.843105,115.425017 131.864863,115.39102 131.879142,115.3883 C131.892061,115.38354 131.90362,115.3883 131.90838,115.407339 C131.926739,115.404619 131.951217,115.398499 131.975695,115.3883 C132.500617,115.198594 134.492872,113.986922 136.881539,106.342237 C137.211995,105.294433 132.105566,102.259133 132.105566,102.259133 C132.105566,102.259133 131.298464,100.308355 130.599475,100.564017 C130.542359,100.583735 130.483884,100.619772 130.431527,100.674169 C129.697861,101.379957 129.230735,103.416409 127.874233,106.328638 C127.419346,106.135532 127.052173,106.123293 126.775433,106.222566 C126.113841,106.465308 125.949293,107.370322 126.227393,108.133907 C126.756394,109.589001 128.372637,114.930693 128.372637,114.930693 C128.372637,114.930693 124.020273,117.375796 118.514713,119.37961 C116.515658,120.108517 114.372454,120.778268 112.22381,121.245395 C111.293637,121.453459 110.482456,121.684643 109.769188,121.944384 C105.814595,123.385199 104.817108,125.662354 102.250294,128.837043 C98.1223139,125.944533 96.7508535,126.164157 94.347908,126.438177 C91.2337341,126.793792 88.5309304,127.64509 87.0717564,128.178171 C86.3394496,128.445392 85.9226399,128.628298 85.9226399,128.628298 C85.9226399,128.628298 85.7084554,125.631756 79.2244463,127.115408 C78.8402742,127.201762 78.48534,127.310554 78.1467246,127.430905 C72.7723949,129.387123 73.0593341,135.508719 73.0593341,135.508719 C73.2225222,136.45181 72.3821032,137.842989 78.664167,140.055548 C81.2840167,140.976202 83.111724,140.805534 84.3118369,140.369686 C85.6506596,139.882841 86.2143387,139.06622 86.2143387,139.06622 C86.2143387,139.06622 86.374807,141.024478 94.885069,141.176787 C97.4981192,141.224384 99.4747356,140.776976 100.857755,140.273133 C102.514795,139.671376 103.310337,138.986666 103.310337,138.986666 C103.310337,138.986666 106.961672,140.437001 112.204771,138.527019 L112.204771,138.527019 Z" id="path78" fill="#1B458E"></path>
                        <path d="M132.353068,116.017254 C130.275139,124.806296 126.392621,130.477764 121.209357,136.283862 L121.105325,136.402854 L120.963895,136.337578 C114.041998,133.108493 111.53706,130.824539 108.293015,121.911066 L108.215501,121.703681 L108.429685,121.643166 C109.307502,121.388184 110.175798,121.139322 111.033896,120.89522 C114.451328,119.921531 117.679054,119.002917 120.689875,117.908197 C123.524589,116.871952 125.874498,115.778592 127.868794,114.56692 L127.907551,114.543121 L127.953787,114.541081 C129.689701,114.360215 132.151123,115.733035 132.257875,115.788791 L132.389785,115.864945 L132.353068,116.017254" id="path80" fill="#1B458E"></path>
                        <path d="M31.2073536,99.5141728 C31.2073536,99.5141728 18.6091605,126.527931 29.1390798,151.660266 C38.0010122,172.80673 46.5469035,177.777849 60.0016304,175.403461 C67.2208021,174.132634 71.8836994,170.702283 74.4987895,166.261525 C71.5532434,172.368162 66.0906562,177.535107 58.1238108,178.941924 C44.6695599,181.311552 34.3938061,175.28311 26.203325,152.789664 C16.8792301,127.182723 29.7730657,92.6351124 29.7730657,92.6351124 C38.3131095,108.851935 50.3867207,111.718606 57.7461662,117.58794 C50.3867207,111.718606 42.4198753,114.828021 31.2073536,99.5141728" id="path82" fill="#EDAC09"></path>
                        <path d="M59.3238556,120.282584 C64.6558924,126.657801 66.3722237,132.067489 66.06543,133.621176 C66.0455074,133.70481 66.0229331,133.774845 65.996891,133.84012 C66.2372535,133.851679 66.4859115,133.823121 66.7360653,133.732008 C66.8330263,133.70073 66.9281513,133.654493 67.0835201,133.575619 C67.4784354,133.432829 67.9188394,133.640214 68.0603371,134.035946 C68.2058466,134.430317 67.993702,134.873645 67.6134056,135.010315 L67.6134056,135.010315 L67.4460697,135.07559 C64.9361,135.991484 62.5979538,133.955711 61.5137726,131.720714 C61.4159957,131.564325 61.3862818,131.36646 61.4372781,131.185593 C61.4903823,130.995886 61.6239926,130.836778 61.755971,130.778982 L61.8808099,130.718467 C62.209362,130.598115 62.5700758,130.752464 62.7262605,131.072721 L62.7626379,131.157715 C63.0818747,131.682637 63.7573376,132.678764 64.6165912,133.300919 C62.636983,126.306267 59.0560911,121.400423 49.4013362,113.363407 C43.4137591,109.846702 36.3281977,105.359708 30.5454216,95.8648778 C29.8851896,100.715646 28.6185096,111.597575 29.411332,119.141627 C29.4641642,119.65567 29.0904633,120.115997 28.5778485,120.169033 C28.0644178,120.224789 27.6038873,119.847416 27.5512591,119.334053 C26.9908438,113.991001 27.4096934,107.188095 27.9483503,101.840284 C24.8110581,113.716981 20.8173681,135.268016 27.0811412,152.469407 C34.5127975,172.884244 43.7492467,180.526209 57.9649743,178.018551 C59.2207751,177.795528 60.4531856,177.469831 61.617873,177.044182 C72.3610248,173.131746 77.3205846,161.272048 75.911047,152.062796 C74.0969387,140.203098 65.7010445,126.689079 59.3238556,120.282584 L59.3238556,120.282584 Z M77.7564329,151.778577 C79.2829221,161.735094 73.900433,174.563042 62.2619902,178.799815 C60.9902106,179.262861 59.6524077,179.617795 58.285027,179.861898 C43.1959709,182.520504 33.0288733,174.269304 25.3241488,153.10856 C15.9908067,127.473742 28.7695946,92.6548309 28.8992612,92.3107759 L29.6283042,90.354558 L30.6004296,92.199944 C36.6982268,103.769984 44.4735301,108.317493 51.3381076,112.331922 C53.8773152,113.817614 56.275773,115.222392 58.326504,116.854953 C64.8893194,122.087173 75.5833108,137.529532 77.7564329,151.778577 L77.7564329,151.778577 Z" id="path84" fill="#1B458E"></path>
                        <path d="M77.6496807,111.616614 C75.9756423,109.73791 67.758643,85.1284575 72.3821032,70.5108791 C77.011887,55.8959526 94.0351307,48.7049308 97.9264881,42.3099272 C101.815806,35.9197513 108.584034,42.9096437 108.584034,42.9096437 C108.584034,42.9096437 112.372719,73.1096504 104.591364,85.8913621 C96.812049,98.671714 82.5432853,112.072181 77.6496807,111.616614" id="path86" fill="#EDAC09"></path>
                        <path d="M93.2729061,105.672486 C91.3153282,103.946091 89.1809632,102.648065 86.9752034,101.664177 C87.5218837,100.988306 88.0638044,100.315835 88.5839666,99.6420035 C92.062594,102.452919 93.2729061,105.672486 93.2729061,105.672486" id="path88" fill="#FCCF34"></path>
                        <path d="M102.830292,95.1937666 C100.212482,93.0131649 97.6817059,91.3003693 95.2556421,89.9622265 C95.8111617,89.0442932 96.3469628,88.1338393 96.8521661,87.2281451 C101.267085,91.0501475 102.830292,95.1937666 102.830292,95.1937666" id="path90" fill="#FCCF34"></path>
                        <path d="M112.996914,65.831459 C111.012818,64.082694 108.806378,62.6765561 106.481627,61.5267596 C106.723009,60.2898614 106.922235,59.1142948 107.078623,57.9989718 C111.590096,61.6069938 112.996914,65.831459 112.996914,65.831459" id="path92" fill="#FCCF34"></path>
                        <path d="M78.4010261,109.60328 C76.7181483,94.0514495 69.8601664,70.4394843 103.54832,40.014278 L105.542615,42.7697098 C105.542615,42.7697098 104.143277,79.1074948 86.3489689,99.9337023 C81.5818351,105.512017 78.4010261,109.60328 78.4010261,109.60328" id="path94" fill="#FCCF34"></path>
                        <path d="M110.901306,82.561644 C107.857167,80.1090621 104.884423,78.1535241 101.979674,76.599157 C102.377445,75.6247877 102.752778,74.6538183 103.097513,73.7018874 C108.596953,77.9339001 110.901306,82.561644 110.901306,82.561644" id="path96" fill="#FCCF34"></path>
                        <polyline id="path98" fill="#1B458E" points="63.3044905 118.676541 64.2500298 119.410208 67.4094204 115.350223 68.653934 116.315753 69.2781287 115.514091 67.0880077 113.810814 63.3044905 118.676541"></polyline>
                        <polyline id="path100" fill="#1B458E" points="70.2185004 119.676069 69.1163004 118.815931 70.1335066 117.502946 71.3873355 118.473236 72.0258091 117.651856 69.8322884 115.946539 66.0500631 120.807506 68.1602899 122.452987 68.804883 121.631607 67.635164 120.723872 68.5050248 119.602634 69.6099446 120.460732 70.2185004 119.676069"></polyline>
                        <polyline id="path102" fill="#1B458E" points="70.0988291 122.559059 69.2414113 121.889988 68.5621407 122.761004 71.2302669 124.836894 71.9081777 123.967917 71.0439604 123.293406 74.1499749 119.299376 73.2014437 118.567749 70.0988291 122.559059"></polyline>
                        <path d="M72.6459241,125.942493 L75.1080253,122.780723 C75.6601452,122.065415 76.0354779,122.013739 76.2938592,122.206845 C76.5651595,122.423749 76.6066364,122.768484 76.0354779,123.50555 L73.5774564,126.662561 L74.5239477,127.399628 L76.8514187,124.405805 C77.8223881,123.156056 77.8754243,122.108252 76.9418521,121.383425 C75.9273658,120.590602 74.9822344,120.981574 74.038463,122.204805 L71.7007927,125.206107 L72.6459241,125.942493" id="path104" fill="#1B458E"></path>
                        <path d="M73.7018874,97.3832075 C73.7018874,97.3832075 82.3481395,97.2234191 87.4015325,100.855035 C92.4528856,104.485292 87.3002198,99.8942652 87.3002198,99.8942652 C87.3002198,99.8942652 83.4448998,94.0881668 73.3829906,93.7753896 L73.7018874,97.3832075" id="path106" fill="#EDAC09"></path>
                        <path d="M74.5967024,83.1436817 C74.5967024,83.1436817 86.3115716,81.8551753 93.617641,86.1647023 C100.92303,90.4701496 93.3626595,84.8721162 93.3626595,84.8721162 C93.3626595,84.8721162 87.4110518,77.4647341 73.7141265,78.278635 L74.5967024,83.1436817" id="path108" fill="#EDAC09"></path>
                        <path d="M77.3824601,68.7450474 C77.3824601,68.7450474 90.9284363,67.2571794 99.374103,72.2352339 C107.82045,77.2111125 99.0783244,70.7447822 99.0783244,70.7447822 C99.0783244,70.7447822 92.2026638,62.1780163 76.3659339,63.1219918 L77.3824601,68.7450474" id="path110" fill="#EDAC09"></path>
                        <path d="M88.8709058,54.3041202 C88.8709058,54.3041202 98.2467448,53.273315 104.09024,56.7201207 C109.937816,60.1668584 103.886935,55.6858478 103.886935,55.6858478 C103.886935,55.6858478 99.1286408,49.7593982 88.165117,50.4143267 L88.8709058,54.3041202" id="path112" fill="#EDAC09"></path>
                        <path d="M98.422852,43.4079115 C98.1263936,43.8084704 97.2451776,44.8923797 95.1230517,47.0164774 C93.1144776,49.0252555 90.9583541,50.9854172 88.8709058,52.8783997 C88.8056305,52.9410912 88.743755,52.9960312 88.67508,53.0592666 C97.5586348,52.4852523 103.372213,55.0311234 107.078623,57.9989718 C106.922235,59.1142948 106.723009,60.2898614 106.481627,61.5267596 C99.3231067,57.9862567 91.043348,56.9825136 84.6171347,56.8051145 C81.0793516,60.1695102 77.9556585,63.5434932 75.9987606,67.2571794 C88.8545869,65.6287657 97.5851529,69.4583156 103.097513,73.7018874 C102.752778,74.6538183 102.377445,75.6247877 101.979674,76.599157 C92.0455952,71.298262 82.9077388,70.747502 74.3593996,71.5131264 C73.5645374,74.5484259 73.2470004,77.8455065 73.2476804,81.2506992 C84.9584699,79.8153234 92.3828507,83.3510666 96.8521661,87.2281451 C96.3469628,88.1338393 95.8111617,89.0442932 95.2556421,89.9622265 C86.6794249,85.2243306 79.3284788,85.1121387 73.39115,85.4609534 C73.6318525,88.8443877 74.120057,92.2577398 74.7218133,95.5521005 C81.2914962,95.2753606 85.7166148,97.3226919 88.5839666,99.6420035 C88.0638044,100.315835 87.5218837,100.988306 86.9752034,101.664177 C83.1334824,99.9534209 79.0870963,99.2109148 75.3827253,98.9341749 C76.0932737,102.361126 76.8779367,105.593611 77.5748861,108.420846 C77.755073,109.163352 77.9250607,109.8739 78.0902887,110.549771 L80.6795406,108.798898 C82.9723341,106.412272 85.0509432,104.033125 86.9752034,101.664177 C89.1809632,102.648065 91.3153282,103.946091 93.2729061,105.672486 C93.2729061,105.672486 92.062594,102.452919 88.5839666,99.6420035 C91.1297017,96.3612418 93.3368214,93.1239969 95.2556421,89.9622265 C97.6817059,91.3003693 100.212482,93.0131649 102.830292,95.1937666 C102.830292,95.1937666 101.267085,91.0501475 96.8521661,87.2281451 C98.9260155,83.5482523 100.615013,79.9880309 101.979674,76.599157 C104.884423,78.1535241 107.857167,80.1090621 110.901306,82.561644 C110.901306,82.561644 108.596953,77.9339001 103.097513,73.7018874 C104.716475,69.2414113 105.778558,65.1466807 106.481627,61.5267596 C108.806378,62.6765561 111.012818,64.082694 112.996914,65.831459 C112.996914,65.831459 111.590096,61.6069938 107.078623,57.9989718 C108.059112,51.2164644 107.714377,46.7370177 107.623264,45.8172485 C104.222151,42.9646517 99.4318988,43.2998673 98.422852,43.4079115 L98.422852,43.4079115 Z M113.87133,57.3843645 C119.357172,83.4666582 112.857524,101.48671 93.9956936,112.479471 C92.7486641,113.206338 91.5274728,113.787016 90.3661172,114.211305 C84.9931474,116.168883 82.1264756,114.322137 81.2969358,113.623148 C80.3735629,113.955644 76.9173739,114.719229 73.0130974,108.307294 C72.798233,107.94692 67.7113865,99.3530245 68.9524323,81.3758101 C70.1233073,64.413082 79.7976447,56.5601963 88.3289851,49.6316355 C94.1310037,44.9256293 99.1429197,40.8602725 100.320594,34.7598236 C102.100025,25.5640354 93.2423083,5.79923763 93.1511949,5.60215394 L90.657816,0 C90.657816,0 93.1892721,3.84119063 93.9691755,5.15620153 C94.7402395,6.46484129 107.322726,26.2474538 113.87133,57.3843645 L113.87133,57.3843645 Z" id="path114" fill="#1B458E"></path>
                        <path d="M31.2631095,135.101428 C31.559296,133.756486 24.4869936,128.919317 23.7172895,128.323001 C26.1595362,126.629244 28.2909774,127.583214 31.0262147,129.107664 C33.596972,125.321019 37.8177655,121.214797 42.8281176,121.756717 C50.5721432,122.605976 54.7545874,128.365157 56.9865254,135.35505 C57.8754928,138.139448 58.3309917,141.163868 58.4996875,144.059098 C57.7386867,131.026484 35.3608999,116.286515 31.2631095,135.101428" id="path116" fill="#EDAC09"></path>
                        <path d="M91.731458,184.348892 C88.9144226,181.111647 82.8805408,178.804574 75.2419756,175.882827 C63.1791076,171.258482 46.6942488,164.946501 34.974144,150.904161 C34.8541327,151.340009 34.6195498,151.976443 34.3114641,152.809382 C33.5056547,154.979105 32.2941866,158.255107 31.6389862,161.973757 C30.7911558,166.804806 30.8873008,170.768918 30.9873895,174.960134 C31.022747,176.398229 31.0585804,177.875082 31.0585804,179.428089 C31.0466812,195.620433 28.2240702,197.272713 28.1010672,197.333229 L27.4192807,197.689523 L27.8336426,197.04357 C29.1967396,194.909885 29.5433104,187.983908 29.5339951,184.223101 C29.5292354,180.764872 29.4857186,177.888681 29.4490013,175.435419 C29.3446288,168.389771 29.2936325,164.775153 30.2533149,160.602976 C30.1457467,160.677091 30.0365466,160.745086 29.9363899,160.783843 C29.7451878,160.851158 29.5592893,160.860677 29.383454,160.812401 C27.1085432,160.220844 24.5698796,154.533737 23.0612052,149.170287 C21.0585466,142.034205 19.9602904,132.409504 23.4574804,128.777208 C23.5632127,128.666376 23.6933553,128.582062 23.8500839,128.524266 C24.7876678,128.184291 26.3568578,128.871721 27.1343134,129.502035 C29.3295339,131.277386 29.8142707,132.213678 30.0740119,132.719561 C30.2795609,133.109853 30.3117226,133.177848 31.049333,133.261482 C31.5141473,133.314518 31.7040575,132.708682 32.0100353,131.855344 C32.7364265,129.83929 33.9869237,126.330745 40.1335413,124.662146 C44.888708,123.364121 50.9293893,129.032869 53.7524762,132.587651 C56.2850203,135.778659 60.2725907,144.213446 61.0136009,150.703575 C61.4903823,154.885271 61.7055186,160.658732 58.0879774,162.48236 C57.6948979,162.676826 57.3248688,162.840694 56.9493321,162.973284 C56.1450865,163.269063 55.3075913,163.456729 54.3978854,163.490726 C65.0481559,170.309271 72.895466,173.311933 78.7770388,175.56257 C85.0631823,177.965515 89.2156407,179.55524 92.0639539,184.103429 L91.731458,184.348892" id="path118" fill="#1B458E"></path>
                        <path d="M33.706716,162.137625 L35.1856086,162.183181 C35.1856086,162.183181 36.0660767,162.593192 35.7492197,160.514583 C35.552646,159.222676 36.0320792,158.6182 36.2313047,156.351925 C38.0904937,160.651933 42.7346244,164.4107 42.7346244,164.4107 L47.9054449,165.752242 C47.9054449,165.752242 38.2480382,161.739854 35.4862828,154.169963 C35.3135754,158.914659 33.5300649,160.444548 33.706716,162.137625 L33.706716,162.137625" id="path120" fill="#1B458E"></path>
                        <path d="M42.7856207,164.213514 C42.8031634,164.206035 39.2232914,161.276807 37.1423025,157.685988 C39.7460374,161.325764 43.6982504,163.810983 45.9936277,165.045094 L42.7856207,164.213514 L42.7856207,164.213514 Z M33.8960823,161.937719 C33.8873109,161.348202 34.1223699,160.749846 34.4323593,159.952943 C34.8660319,158.844624 35.442426,157.373211 35.6389997,155.088577 C35.8248982,155.499267 36.0275235,155.903837 36.2512273,156.296849 L36.0275235,156.334926 C35.9430736,157.303856 35.800488,157.976327 35.6939397,158.512128 C35.5380271,159.247155 35.4278071,159.776836 35.5433307,160.54518 C35.6965915,161.528389 35.5646131,161.942479 35.4052327,162.000275 C35.3401614,162.022033 35.2724383,161.998235 35.2724383,161.998235 L33.8960823,161.937719 L33.8960823,161.937719 Z M35.2822976,154.160444 C35.1829568,156.908125 34.5247646,158.582843 34.0479833,159.805394 C33.6974007,160.700209 33.4211368,161.408038 33.500351,162.153944 L33.5229254,162.33685 L35.1715337,162.389886 L35.1715337,162.389886 C35.1548069,162.396006 35.3401614,162.459921 35.5455065,162.387847 C35.99305,162.227378 36.1237365,161.603184 35.9550408,160.485345 C35.8466566,159.789075 35.9457254,159.31243 36.0957905,158.594402 C36.1803084,158.189831 36.2750935,157.719986 36.3555997,157.10599 C38.3781808,161.116339 42.5593331,164.533771 42.6052978,164.574568 L47.8528847,165.950788 L47.985679,165.559816 C47.8860663,165.521739 38.3781808,161.497111 35.6827885,154.098569 L35.2822976,154.160444 L35.2822976,154.160444 L35.2822976,154.160444 Z" id="path122" fill="#1B458E"></path>
                        <path d="M45.1675557,133.261482 C45.9121016,135.304733 47.6199336,136.556523 48.9824866,136.058119 C50.3455837,135.564475 50.8454154,133.502864 50.0998495,131.460973 C49.3553716,129.415681 47.6518233,128.158452 46.2852585,128.656856 C44.9227055,129.15322 44.4225338,131.212111 45.1675557,133.261482 L45.1675557,133.261482" id="path124" fill="#FCCF34"></path>
                        <path d="M25.9664302,135.306773 C26.5279334,136.841422 27.8094363,137.780434 28.8283423,137.406461 C29.8527559,137.033848 30.2299246,135.48968 29.6708012,133.958431 C29.1122217,132.426503 27.8309908,131.484771 26.8075971,131.855344 C25.7876712,132.229317 25.4078508,133.774845 25.9664302,135.306773 L25.9664302,135.306773" id="path126" fill="#FCCF34"></path>
                        <path d="M38.6947658,127.296275 C37.5585003,129.473477 35.6222729,131.144796 34.3489294,140.078667 C33.7271146,136.570802 33.4379316,134.341243 34.3077924,131.525568 C35.99305,127.481222 37.6841552,127.305114 38.6947658,127.296275 L38.6947658,127.296275" id="path128" fill="#FCCF34"></path>
                    </g>
                </g>
            </g>
        </g>
    </g>
</svg>