<svg width="200" height="200" viewBox="0 0 200 200" fill="none" xmlns="http://www.w3.org/2000/svg">
<path d="M106.133 84.1903C102.708 84.1119 103.636 83.9948 100.452 83.3312C97.2684 82.6667 95.2868 80.3029 87.3305 80.0484C81.2877 79.8553 79.5756 80.997 74.5417 81.4863C69.8243 81.9447 68.0088 86.0371 66.7062 88.4991C66.7746 89.6602 66.6068 89.6864 66.6058 90.0294C66.5243 90.3015 66.4406 90.6358 66.4013 90.9894C66.368 91.7327 66.6567 93.2243 66.8511 93.6181C67.237 94.3989 68.0574 98.4665 68.9735 98.935C69.8903 99.4042 72.3697 100.397 76.0363 99.8496C79.7021 99.3025 78.3495 100.039 80.2046 100.109C81.6542 100.163 83.7088 99.9774 85.5455 99.5561C86.0278 102.492 86.7167 106.565 85.9533 110.491C85.6945 111.421 84.4659 115.69 84.1718 116.547C86.62 117.489 86.6543 115.558 87.8294 115.387C89.0044 115.216 89.6655 114.801 89.6655 114.801L90.2609 113.292L89.5806 115.785L91.8887 115.865C91.8887 114.837 92.3393 112.468 92.5444 111.916C93.1545 110.27 91.4653 101.104 90.2783 97.704C91.2579 97.2373 91.95 96.8794 92.1535 96.6909C92.491 96.3786 93.1178 92.9368 93.1178 92.2731L92.4425 92.0776C92.3941 92.8586 90.9509 94.1037 90.1311 94.221C89.3104 94.3384 85.7908 94.7252 84.0057 94.8031C82.2208 94.8813 78.8563 95.1914 75.0451 95.2696C73.0353 94.717 71.3875 94.8087 70.1883 93.8483C69.871 92.766 72.8951 91.6655 75.7158 90.7726C78.8037 89.7958 79.7085 86.6843 84.1951 87.153C88.6813 87.6222 91.6724 87.9741 94.5186 88.8338C97.365 89.693 93.8519 91.1392 98.8207 91.3735C103.789 91.6085 108.035 93.0932 108.807 93.3272C109.626 92.8586 109.337 91.1004 110.929 90.7484C111.604 90.7484 111.653 90.7094 112.087 90.8657C112.666 90.3578 112.908 85.7143 114.162 85.0501C110.881 84.8552 109.558 84.2684 106.133 84.1903" fill="white"/>
<path fill-rule="evenodd" clip-rule="evenodd" d="M83.9696 117.073C84.5117 117.282 84.9657 117.365 85.3508 117.365C86.3359 117.365 86.8678 116.818 87.2567 116.418C87.5296 116.137 87.6946 115.977 87.9106 115.945C88.3471 115.882 88.7214 115.786 89.0265 115.687C88.9993 115.838 89.0353 115.995 89.1274 116.12C89.2295 116.259 89.3892 116.343 89.5612 116.349L91.8693 116.428C92.0244 116.435 92.1702 116.377 92.2798 116.27C92.3896 116.164 92.4517 116.018 92.4517 115.866C92.4517 114.895 92.8923 112.597 93.0724 112.112C93.7515 110.28 92.1095 101.617 90.9681 97.9974C92.0141 97.4874 92.3613 97.2664 92.536 97.1049C93.1386 96.5472 93.6808 92.6739 93.6808 92.2739C93.6808 92.0232 93.515 91.8026 93.2743 91.733L92.599 91.5375C92.4347 91.4897 92.2579 91.5196 92.1183 91.6179C91.9785 91.7165 91.8912 91.873 91.8806 92.0436C91.8535 92.4801 90.7006 93.5715 90.0514 93.6644C89.2444 93.7798 85.761 94.1639 83.981 94.2415C83.3938 94.2673 82.6379 94.3176 81.7626 94.3761C79.9239 94.499 77.64 94.6517 75.1143 94.7056C74.4403 94.525 73.8017 94.4118 73.2353 94.3114L73.2278 94.3101L73.2274 94.3101C72.2359 94.1344 71.4287 93.9915 70.7846 93.5838C70.8962 93.4304 71.2266 93.1157 72.2 92.6614C73.2879 92.1534 74.7413 91.6725 75.8857 91.3101C77.1435 90.9123 78.0494 90.2015 78.9256 89.514L78.9257 89.514C80.2818 88.4498 81.5635 87.4444 84.1365 87.7138C88.6329 88.184 91.5643 88.5304 94.356 89.3737C95.2179 89.6338 95.2422 89.8402 95.2826 90.1819L95.2826 90.1822C95.4099 91.2646 95.9678 91.8034 98.7941 91.9365C103.256 92.1476 107.095 93.3735 108.357 93.7763C108.478 93.8151 108.574 93.8456 108.643 93.8667C108.791 93.9116 108.952 93.8936 109.086 93.8168C109.587 93.5306 109.792 92.997 109.973 92.5262L109.973 92.5258C110.223 91.8758 110.409 91.4633 110.996 91.312C111.098 91.3116 111.186 91.3105 111.262 91.3095C111.619 91.3045 111.641 91.3044 111.896 91.396C112.088 91.4654 112.304 91.4249 112.458 91.2897C112.812 90.9791 112.964 90.3108 113.248 88.9489L113.248 88.9483C113.476 87.8572 113.899 85.8269 114.425 85.5486C114.648 85.4303 114.766 85.1781 114.712 84.9314C114.659 84.6848 114.447 84.5038 114.195 84.4888C112.731 84.4019 111.651 84.2334 110.607 84.0704L110.607 84.0703L110.605 84.0701C109.349 83.8742 108.051 83.6716 106.146 83.6282C103.837 83.5753 103.576 83.5081 102.607 83.258L102.607 83.258C102.164 83.1437 101.557 82.9871 100.567 82.7808C99.601 82.5791 98.7402 82.2069 97.7435 81.7758C95.5668 80.8343 92.8577 79.6628 87.3487 79.4865C83.5003 79.3632 81.3554 79.7776 79.085 80.2164L79.083 80.2167L79.078 80.2177C77.7312 80.4778 76.3383 80.7468 74.4872 80.9268C69.7742 81.3847 67.7854 85.2078 66.4694 87.7376C66.3799 87.91 66.2931 88.0767 66.2085 88.2365C66.1603 88.3275 66.1381 88.4301 66.1441 88.533C66.1855 89.2356 66.1345 89.4576 66.0972 89.6196L66.0972 89.6197L66.0971 89.62C66.0764 89.7102 66.0534 89.81 66.0456 89.9395C65.943 90.2939 65.8762 90.6179 65.8417 90.9279C65.8404 90.9403 65.8395 90.9525 65.8389 90.9648C65.8017 91.795 66.1049 93.3791 66.3463 93.8683C66.4444 94.0665 66.6184 94.6692 66.7869 95.2527L66.7879 95.2563C67.4214 97.4505 67.9306 99.0348 68.7169 99.4371C69.6607 99.9198 72.2713 100.981 76.1194 100.407C78.2408 100.091 78.5208 100.227 78.7916 100.36C79.1082 100.514 79.4315 100.644 80.1836 100.673C81.612 100.726 83.4404 100.559 85.0855 100.231C85.5477 103.065 86.0938 106.793 85.4049 110.362C85.1366 111.324 83.9236 115.537 83.6393 116.365C83.5409 116.651 83.687 116.964 83.9696 117.073ZM84.8794 116.183C85.7193 116.384 86.0353 116.059 86.4487 115.634L86.4493 115.633L86.4493 115.633C86.7746 115.298 87.1432 114.919 87.7483 114.831C88.474 114.725 88.9811 114.517 89.2178 114.403L89.7372 113.087C89.8466 112.808 90.1547 112.664 90.4384 112.759C90.7223 112.853 90.8827 113.153 90.8039 113.441L90.3111 115.248L91.3554 115.284C91.4597 114.086 91.8135 112.267 92.0166 111.72C92.4589 110.528 91.1542 101.921 89.7469 97.8905C89.6521 97.6192 89.7767 97.3202 90.036 97.1966C91.2301 96.6277 91.6164 96.3978 91.7384 96.3053C91.9173 95.9559 92.2474 94.4292 92.4281 93.3266C91.8341 94.0512 90.9012 94.6802 90.2107 94.7791C89.3896 94.8965 85.8437 95.2873 84.0301 95.3665C83.4559 95.3917 82.7061 95.4417 81.8378 95.4999L81.8266 95.5006C80.0562 95.6188 77.6351 95.7804 75.0566 95.8333C75.0026 95.833 74.9481 95.8275 74.8958 95.8133C74.2399 95.633 73.6255 95.5241 73.0315 95.419C71.8537 95.2104 70.7413 95.0133 69.8363 94.2885C69.7461 94.2164 69.6804 94.1183 69.648 94.0076C69.2209 92.5503 71.4871 91.5214 75.5459 90.2367C76.6091 89.9003 77.3967 89.2824 78.2306 88.6282L78.2317 88.6273C79.7041 87.472 81.2263 86.2777 84.2536 86.594C88.816 87.071 91.7944 87.4237 94.6814 88.2957C96.129 88.7327 96.3247 89.4024 96.4008 90.0508C96.4326 90.3201 96.4406 90.3523 96.5754 90.4316C96.9101 90.6287 97.6745 90.7566 98.8473 90.812C103.418 91.0282 107.335 92.2685 108.665 92.6929C108.756 92.5525 108.838 92.3412 108.922 92.1218C109.189 91.4274 109.555 90.4765 110.808 90.1994C110.847 90.1906 110.888 90.1861 110.929 90.1861C111.055 90.1861 111.159 90.1848 111.247 90.1836C111.48 90.1806 111.637 90.1806 111.798 90.2051C111.912 89.8393 112.043 89.2116 112.146 88.7191C112.423 87.3908 112.677 86.2898 113.053 85.5305C112.054 85.436 111.233 85.3081 110.433 85.1831C109.157 84.9839 107.951 84.7957 106.121 84.754C103.681 84.6982 103.367 84.6171 102.326 84.3483C101.893 84.2368 101.301 84.0842 100.337 83.8832C99.2591 83.6581 98.3059 83.2459 97.2967 82.8094L97.2964 82.8093C95.2073 81.9058 92.6074 80.7814 87.3126 80.612C83.5893 80.4933 81.5042 80.896 79.2968 81.3223L79.2966 81.3224L79.2959 81.3225L79.2959 81.3225C77.9223 81.5879 76.5019 81.8623 74.5961 82.0476C70.4913 82.4464 68.7441 85.805 67.4685 88.2574C67.4031 88.3831 67.3392 88.5059 67.2766 88.6252C67.3076 89.309 67.2557 89.6066 67.1945 89.8723C67.1752 89.9566 67.1689 89.9856 67.1689 90.0319C67.1687 90.086 67.1607 90.1399 67.1452 90.1918C67.0525 90.5009 66.9929 90.7763 66.963 91.0334C66.9382 91.7217 67.2212 93.0966 67.356 93.3696C67.4919 93.6447 67.6326 94.1228 67.8698 94.9441C68.1488 95.9106 68.8022 98.1736 69.2324 98.4361C70.0769 98.8683 72.4273 99.8197 75.9532 99.2936C78.2537 98.9501 78.7467 99.0846 79.2853 99.3477L79.286 99.348C79.4815 99.4433 79.651 99.5258 80.2257 99.5472C81.7341 99.6034 83.7247 99.3969 85.4196 99.0081C85.5713 98.9733 85.7303 99.0028 85.8593 99.0895C85.9884 99.1761 86.0758 99.3122 86.1011 99.4656L86.1208 99.5859C86.6093 102.558 87.2782 106.628 86.5059 110.599C86.5031 110.613 86.4996 110.628 86.4957 110.642C86.2672 111.464 85.3281 114.731 84.8794 116.183Z" fill="#231F20"/>
<path d="M106.133 84.1906C102.708 84.1123 103.636 83.9951 100.452 83.3315C97.2683 82.667 95.2868 80.3033 87.3305 80.0488C81.2877 79.8557 79.5756 80.9973 74.5417 81.4867C69.8243 81.9451 68.0088 86.0375 66.7062 88.4995C66.7975 90.0476 66.4684 89.5786 66.6759 90.532L67.8817 92.8081C67.8271 92.6078 70.3141 94.0889 70.3062 94.0781C69.4402 92.9237 72.6952 91.729 75.7158 90.773C78.8037 89.7961 79.7085 86.6847 84.1951 87.1534C88.6813 87.6226 91.6724 87.9744 94.5186 88.8341C97.365 89.6934 93.8519 91.1396 98.8207 91.3738C103.789 91.6089 108.035 93.0936 108.807 93.3275C109.626 92.859 109.337 91.1008 110.929 90.7487C111.604 90.7487 111.653 90.7098 112.087 90.866C112.666 90.3582 112.908 85.7147 114.162 85.0505C110.881 84.8556 109.558 84.2688 106.133 84.1906" fill="#ED1248"/>
<path d="M72.8786 91.2568C72.8786 81.2391 79.1272 73.1186 86.8356 73.1186C94.544 73.1186 100.793 81.2387 100.793 91.2568C100.793 101.274 94.544 109.395 86.8356 109.395C79.1272 109.395 72.8786 101.274 72.8786 91.2568" fill="white"/>
<path d="M100.306 96.2135C100.18 96.137 100.05 96.0591 99.9146 95.9779C98.5034 95.1318 98.373 94.8879 98.2188 94.8761C98.6271 94.7226 100.007 94.0364 98.2188 93.015C96.2238 91.8752 93.302 90.8308 90.5565 90.6535C87.8115 90.4761 84.2862 89.9409 82.2912 90.6535C80.2954 91.3662 77.3873 92.0377 76.3894 92.4645C75.3918 92.8927 73.7478 93.3522 74.2927 94.4418C74.5322 94.9207 75.524 95.5136 76.2696 95.2204C75.5255 95.5988 74.7249 95.6971 73.3125 96.639C73.2244 96.6977 74.1302 98.3187 74.0423 98.3798C73.7102 98.936 74.79 100.231 75.3521 100.472C76.8409 103.364 75.9944 103.684 78.4837 105.772C81.2141 107.86 84.1077 108.689 87.0034 108.788C94.6567 109.052 88.7247 109.292 95.9819 104.383C97.3273 103.163 98.525 100.375 99.4751 98.8163C99.827 97.2658 100.979 96.8462 100.306 96.2135" fill="#231F20"/>
<path d="M93.2645 98.5632C93.5785 97.8402 95.2576 97.7176 96.2238 97.5365C97.1898 97.3555 98.5226 95.4815 98.1564 95.6036C97.9749 95.6643 97.2394 94.2719 96.6963 94.0303C96.1526 93.7883 95.0163 93.1477 94.8355 92.8461C94.6541 92.5441 94.6537 93.5831 93.9894 94.3684C93.3247 95.1538 92.612 95.5321 92.0563 96.0866C91.8147 96.3285 91.8752 96.8111 91.513 97.1738C91.1507 97.5365 90.5994 99.4165 90.7276 100.254C90.8279 100.907 88.0988 109.873 88.0775 110.609C88.6532 110.417 89.3316 109.954 90.3577 109.098C90.8421 107.446 95.1666 101.93 95.8502 101.474C95.4226 100.334 94.12 99.1228 93.2645 98.5632" fill="white"/>
<path d="M98.388 97.5836C98.0657 97.9533 95.4525 98.9556 95.7681 99.6129C96.0533 100.208 96.3447 100.823 96.5145 101.233C96.761 101.158 92.803 106.866 93.0699 107.164C96.1886 107.227 99.6739 99.1774 99.9106 99.1062C99.9002 97.8386 99.4687 96.3491 98.388 97.5836" fill="white"/>
<path d="M80.9997 98.079C80.6858 97.3558 79.0072 97.2334 78.041 97.0521C77.0745 96.8712 75.7415 94.9972 76.1078 95.1192C76.2898 95.1801 76.6973 93.9341 77.241 93.6927C77.7844 93.4511 79.0899 93.1486 79.2711 92.847C79.4528 92.545 80.4676 92.2311 81.1316 93.0162C81.7964 93.8013 81.6525 95.0478 82.2078 95.6025C82.4493 95.8443 82.3892 96.3268 82.7518 96.6896C83.1135 97.0521 83.6651 98.9323 83.5367 99.7699C83.4363 100.423 85.8944 108.824 85.9158 109.561C85.3399 109.368 83.85 109.267 82.8239 108.411C82.3397 106.759 79.2784 101.593 78.5942 101.137C79.0221 99.9969 80.1442 98.6384 80.9997 98.079" fill="white"/>
<path d="M77.1185 99.0687C77.4408 99.4383 78.6418 99.2569 78.326 99.914C78.041 100.509 78.0466 100.679 77.8764 101.089C77.6302 101.014 81.588 106.722 81.321 107.02C80.9648 107.417 77.0574 103.598 76.729 103.499C76.7394 102.232 76.0375 97.8343 77.1185 99.0687" fill="white"/>
<path d="M86.048 104.024C86.048 104.024 85.7679 102.062 85.7679 100.521C85.7679 98.9793 85.7679 98.2788 86.8883 98.2788C88.0096 98.2788 88.587 98.4494 89.2092 98.364C89.8312 98.2788 89.9713 98.8398 89.6909 100.521C89.4108 102.202 89.5507 105.144 89.5507 105.144L87.1687 105.564L86.048 104.024" fill="white"/>
<path d="M87.8227 97.1937C87.5001 97.0155 87.1907 96.8142 86.8523 96.6761C86.3934 96.4885 85.913 96.9082 85.9971 97.1491C86.3271 98.0979 87.1792 98.001 87.8227 97.1937" fill="white"/>
<path d="M88.374 97.2775C88.6483 97.3523 89.0002 97.0478 89.3118 96.8184C89.5094 96.6728 89.7539 96.4751 89.7486 96.3032C89.7223 95.4621 88.5482 96.072 88.3545 95.238C88.0326 95.5922 87.4959 95.9463 87.4959 96.301C87.4959 96.6546 87.9849 97.1715 88.374 97.2775" fill="white"/>
<path fill-rule="evenodd" clip-rule="evenodd" d="M72.4094 91.2563C72.4094 101.516 78.881 109.863 86.8356 109.863C94.7905 109.863 101.262 101.516 101.262 91.2563C101.262 80.9962 94.7905 72.6489 86.8356 72.6489C78.881 72.6489 72.4094 80.9962 72.4094 91.2563ZM73.3478 91.2563C73.3478 81.5135 79.3984 73.5872 86.8356 73.5872C94.2729 73.5872 100.324 81.5135 100.324 91.2563C100.324 100.999 94.2729 108.925 86.8356 108.925C79.3984 108.925 73.3478 100.999 73.3478 91.2563Z" fill="#231F20"/>
<path d="M92.5444 111.916C93.2135 110.112 91.1189 99.2683 89.952 96.8939C89.952 96.8939 89.6646 95.9909 89.8473 95.672C90.0299 95.3528 89.8473 95.5455 89.8473 95.5455L85.3002 95.672C84.5708 97.2669 87.2001 104.078 85.9533 110.491C85.6945 111.421 84.4659 115.69 84.1718 116.547C86.62 117.489 86.6543 115.558 87.8294 115.387C89.0044 115.216 89.6655 114.801 89.6655 114.801L90.2609 113.292L89.5806 115.785L91.8887 115.865C91.8887 114.837 92.3393 112.468 92.5444 111.916" fill="#ED1248"/>
<path fill-rule="evenodd" clip-rule="evenodd" d="M84.0708 116.81C84.5841 117.008 85.0054 117.088 85.3584 117.088C86.213 117.088 86.6676 116.62 87.055 116.222C87.3199 115.949 87.5487 115.714 87.8701 115.667C88.5808 115.563 89.1138 115.374 89.4406 115.23L89.2154 116.055L92.1702 116.157V115.866C92.1702 114.848 92.6181 112.527 92.8084 112.015V112.014C93.2787 110.747 92.472 105.996 92.2137 104.57C91.6862 101.658 90.8648 98.1321 90.2143 96.7904C90.09 96.3908 90.0302 95.9199 90.0917 95.8127L90.0919 95.8123C90.1691 95.6772 90.3123 95.4266 90.0934 95.2641C90.0393 95.2238 89.9084 95.1551 89.7414 95.2677L85.1171 95.3963L85.0442 95.5558C84.7195 96.266 84.9577 97.7161 85.2874 99.7231C85.765 102.629 86.4188 106.609 85.679 110.427C85.4167 111.37 84.1925 115.62 83.9055 116.457L83.8175 116.713L84.0708 116.81ZM86.6512 115.83C86.1834 116.311 85.7399 116.767 84.5248 116.375C84.9224 115.123 85.9802 111.446 86.2245 110.567L86.2297 110.545C86.9919 106.625 86.328 102.584 85.8432 99.6327L85.8431 99.6319C85.5774 98.0154 85.345 96.6008 85.5029 95.9491L89.5141 95.8376C89.4689 96.2525 89.6239 96.7926 89.6838 96.9804L89.6995 97.0192C90.8745 99.41 92.8946 110.164 92.2806 111.819C92.0717 112.381 91.6815 114.441 91.6166 115.575L89.9458 115.517L90.5324 113.367L89.999 113.19L89.4402 114.606C89.244 114.711 88.6721 114.981 87.7889 115.11C87.2783 115.184 86.9596 115.512 86.6512 115.83L86.6512 115.83Z" fill="#231F20"/>
<path d="M66.4013 90.9902C66.368 91.7336 66.6567 93.2251 66.8511 93.6189C67.237 94.3998 68.0574 98.4673 68.9735 98.9359C69.8903 99.405 72.3697 100.398 76.0363 99.8505C79.7021 99.3034 78.3495 100.04 80.2046 100.11C82.3694 100.191 85.8833 99.7399 88.006 98.7627C90.1289 97.7859 91.8153 97.0052 92.1535 96.6917C92.491 96.3794 93.1178 92.9376 93.1178 92.2739L92.4425 92.0784C92.3941 92.8594 90.9509 94.1045 90.1311 94.2218C89.3104 94.3393 85.7908 94.726 84.0057 94.8039C82.2208 94.8821 78.8563 95.1922 75.0451 95.2704C72.4882 94.5673 70.5171 94.9081 69.311 92.7977C69.311 92.7977 68.869 92.1569 68.7477 91.7118L66.4458 88.8166C66.4577 88.8737 66.4934 90.1626 66.4013 90.9902" fill="#ED1248"/>
<path fill-rule="evenodd" clip-rule="evenodd" d="M80.1941 100.391C80.3654 100.397 80.5444 100.4 80.7301 100.4C82.9501 100.4 86.1139 99.9432 88.1236 99.018C90.5044 97.9226 91.982 97.234 92.3447 96.8979C92.8111 96.4663 93.3993 92.7821 93.3993 92.2735V92.0619L92.1832 91.7098L92.1614 92.0605C92.1245 92.6587 90.8282 93.8373 90.0912 93.9425C89.2806 94.0587 85.7816 94.4442 83.9934 94.5223C83.4093 94.5479 82.655 94.5983 81.7813 94.6566C79.93 94.7805 77.6281 94.9342 75.0799 94.9877C74.4001 94.8031 73.7513 94.6883 73.1776 94.5868L73.1772 94.5867L73.1772 94.5867C71.55 94.2988 70.3744 94.0908 69.5554 92.6576L69.5427 92.6376C69.4274 92.4701 69.1085 91.9644 69.0193 91.6373L69.0041 91.5816L66.6661 88.6411L66.2265 88.8472L66.1668 88.8531C66.1764 88.9493 66.2092 90.1711 66.1215 90.9585L66.1201 90.9771C66.0852 91.7566 66.3756 93.291 66.5988 93.7433C66.708 93.9643 66.8704 94.5267 67.0583 95.1779C67.6522 97.2348 68.1608 98.836 68.8452 99.1861C69.7648 99.6566 72.3105 100.691 76.0778 100.128C78.2854 99.7991 78.5911 99.9483 78.915 100.106L78.9156 100.107C79.1617 100.227 79.4409 100.363 80.1941 100.391ZM79.1611 99.5999C78.9142 99.4796 78.6867 99.3688 78.0636 99.3688C77.6219 99.3688 76.9815 99.4245 75.9947 99.5718C72.3889 100.11 69.9729 99.1309 69.1016 98.685C68.5798 98.4181 67.9422 96.2094 67.5994 95.0223L67.5993 95.0218L67.5987 95.0197C67.3954 94.3158 67.2349 93.7597 67.1036 93.494C66.9345 93.1516 66.6533 91.7209 66.6822 91.0113C66.7265 90.6072 66.7426 90.0852 66.7448 89.6446L68.4932 91.8438C68.6348 92.2949 69.014 92.8613 69.0723 92.947C70.0221 94.6002 71.4387 94.8509 73.0784 95.1411L73.0791 95.1413L73.0839 95.1421C73.6833 95.2482 74.3031 95.3579 74.9703 95.5415L75.0099 95.5523L75.0509 95.5517C77.6211 95.4989 79.9392 95.3442 81.8037 95.2197L81.819 95.2187L81.8418 95.2172C82.7022 95.1596 83.4454 95.1099 84.0179 95.0848C85.8231 95.0061 89.3534 94.6172 90.1708 94.5002C90.9993 94.3817 92.3161 93.3205 92.6474 92.4305L92.8258 92.4821C92.7426 93.4763 92.1879 96.2007 91.9622 96.4849C91.6467 96.7772 89.7361 97.6566 87.8883 98.5067C85.8658 99.4376 82.3989 99.9105 80.2151 99.8283C79.5803 99.8045 79.3676 99.7008 79.1619 99.6002L79.1611 99.5999Z" fill="#231F20"/>
<path d="M68.734 85.219L66.9948 87.9318L66.7605 88.6753L66.7271 90.645L67.1286 92.0943L67.6735 92.7061L69.0239 93.5508L68.2738 90.5042C68.2738 90.5042 67.6365 88.0613 67.842 87.6975C68.2886 86.9085 69.1633 86.023 69.1633 86.023L70.8588 83.4364C70.8588 83.4364 69.053 84.9392 68.734 85.219" fill="#ED1248"/>
<path d="M91.6618 93.5488L92.5735 90.8118C93.5427 91.1542 95.0538 89.1845 95.8117 89.3181C97.4423 89.6043 99.2482 90.4182 98.5444 88.7812C97.707 87.896 97.6023 88.8408 95.9742 87.6561C95.3688 87.2157 95.0637 86.7933 94.9262 86.212C94.8272 85.8025 94.815 85.3083 94.8409 84.6694C94.8503 84.433 94.6996 83.5609 94.6451 82.826C94.6259 82.5705 94.1509 80.9763 94.0965 80.6005C93.975 80.0506 93.5978 78.7489 93.1276 78.0768C92.6389 77.3783 90.4032 74.7937 86.7707 74.7937C83.1381 74.7937 80.5818 75.5396 79.3859 80.3251C79.3508 80.4666 79.0667 81.0063 79.06 81.2727C79.0499 81.6666 79.06 82.4954 78.7543 83.168C78.4485 83.7791 78.3078 84.5909 78.3263 85.0015C78.3782 86.1408 79.4312 88.1738 77.4704 88.3639C75.5756 88.5468 75.6905 89.8847 75.9795 88.7812C76.4719 86.8981 77.8489 90.6031 79.3484 89.6719C80.5146 88.9475 82.0274 92.3515 82.5403 92.8645L87.5573 95.4863L91.6618 93.5488" fill="#231F20"/>
<path d="M88.239 78.4335C88.7281 78.495 88.9489 77.3943 88.9727 76.9667C89.1255 77.4864 89.0338 78.4335 89.7239 78.4014C90.1774 78.3799 90.6327 78.5822 91.0395 78.4903C91.4311 78.4018 92.2121 77.8836 91.6617 77.3334C88.2394 73.9107 80.7813 74.6272 80.3806 80.7098C80.3564 81.0678 80.9077 81.5201 81.2101 81.1764C82.3902 79.834 83.7763 79.9416 84.144 77.2113C84.3888 78.8418 84.8628 78.5348 85.2439 78.5561C85.9185 78.5933 87.3224 78.5561 88.239 78.4335" fill="white"/>
<path d="M87.75 81.9802C88.2403 82.1188 89.9805 81.6584 89.8898 81.4913C89.2553 80.3339 85.2031 79.5764 85.0602 81.186C84.9828 82.0672 87.0814 81.7918 87.75 81.9802" fill="white"/>
<path d="M80.2929 85.0064C80.258 84.4213 80.4954 83.5077 79.8038 83.5077C79.1122 83.5077 79.3502 84.4213 79.3151 85.0064C79.5591 85.7687 80.0482 85.7687 80.2929 85.0064" fill="white"/>
<path d="M81.1481 83.8747C80.9838 83.8752 81.2798 85.1717 81.3522 85.2469C83.1556 87.1109 81.9022 84.7879 84.2558 83.8711C83.929 83.6902 81.4747 83.8743 81.1481 83.8747" fill="white"/>
<path d="M80.8427 85.2802C80.7345 85.156 80.9927 86.0376 81.0266 86.1359C81.3208 86.9909 84.0209 88.3975 85.3048 87.0528C82.6156 88.214 81.2712 85.769 80.8427 85.2802" fill="white"/>
<path d="M88.1061 83.9013C88.0454 84.3904 88.2595 85.6587 88.9935 85.9795C90.9488 86.8356 89.0238 85.2158 91.1022 83.9321C90.4908 84.1158 88.9621 83.9625 88.1061 83.9013" fill="white"/>
<path d="M80.5373 83.0179C80.5373 83.0179 80.1704 82.3455 87.6279 82.468C92.5784 82.549 93.5571 83.1406 93.5571 83.1406C93.5571 83.1406 91.774 82.8005 87.1286 82.8005C81.505 82.8005 80.5373 83.0179 80.5373 83.0179" fill="white"/>
<path d="M91.5906 89.4631C90.5514 92.3362 92.0796 89.3408 91.8352 90.4409C91.4864 92.0106 89.7633 93.5761 89.0339 93.6541C88.1776 93.7459 88.4128 92.864 87.8007 92.8861C86.841 92.9211 86.9552 93.8071 86.2219 93.6541C85.5813 93.5207 84.078 92.8421 83.5322 92.0649C81.3213 88.9129 83.4349 90.9127 83.3126 90.3012C83.2139 89.8078 82.5084 89.4667 81.8204 88.5192C81.4171 87.962 82.0044 87.2965 82.0044 87.2965C82.0044 87.2965 83.1049 88.0305 84.9385 87.8472C86.581 87.6828 87.232 86.3797 87.232 86.3797H87.8435C87.8435 86.3797 88.7281 87.8472 90.8064 87.8472C92.8848 87.8472 92.4464 87.3844 92.4464 87.3844C92.5072 89.1576 91.7622 88.9892 91.5906 89.4631" fill="white"/>
<path d="M85.6005 89.8915C85.7838 89.953 87.1286 89.6164 87.74 89.6777C88.3509 89.7389 90.0015 89.8915 90.0015 89.8915C90.0015 89.8915 88.7281 90.1094 87.75 90.1094C86.8315 90.1094 85.6005 89.8915 85.6005 89.8915" fill="#231F20"/>
<path d="M86.8229 91.2971C86.5187 91.1529 86.5786 90.5633 86.5786 90.5633C86.5786 90.5633 87.1879 90.5028 87.8115 90.4759C88.5952 90.441 89.2678 90.3798 89.2678 90.3798C89.2678 90.3798 89.696 91.5415 89.2678 91.4801C88.6163 91.3873 88.6569 91.1746 87.8621 91.1136C87.1806 91.0608 87.1684 91.4608 86.8229 91.2971" fill="#231F20"/>
<path d="M88.3509 86.3467C88.5044 86.2527 88.5916 86.686 88.7179 86.8129C89.0845 87.1798 89.686 88.7486 88.9599 88.8179C88.2268 88.8878 87.7894 89.3133 87.5772 88.8871C87.3524 88.4358 86.2664 88.6516 86.2419 88.4553C86.2117 88.2067 86.5639 88.3249 86.841 88.2053C86.9713 88.149 87.625 88.3507 87.8523 88.3413C88.1141 88.3318 88.5695 88.0579 88.5858 87.8185C88.5961 87.6568 88.1765 86.4536 88.3509 86.3467" fill="#231F20"/>
<path d="M82.2555 91.9314C82.4265 92.1454 82.8966 92.8294 83.1107 93.0865C83.1107 93.4705 83.1177 94.0216 83.1611 94.4492C82.6903 94.2786 82.3907 93.4661 82.1775 93.252C82.1775 92.8244 82.2339 92.3595 82.2555 91.9314" fill="#ED1248"/>
<path d="M83.2841 75.3178C84.4369 75.3178 85.8787 74.4532 87.1757 74.597C88.4727 74.7413 91.3554 75.8223 92.1483 75.8943C92.8688 76.6146 93.9497 78.2724 94.1658 78.9928C94.3818 79.7136 94.3818 81.1549 94.3818 81.8036C94.3818 82.4521 95.5349 83.3887 95.5349 83.3887C95.6067 84.1095 95.5349 84.3975 95.5349 85.1183C96.7598 86.2711 99.7152 87.7129 100.003 89.1541C101.012 89.2983 101.661 89.0821 102.525 88.6494C103.39 88.2172 104.615 87.5684 105.48 88.3616L104.687 89.1541C103.894 89.0821 102.525 89.6581 101.804 89.9464C101.084 90.2351 100.796 90.3073 100.219 90.2351C99.4265 91.0274 98.5621 91.532 98.1295 91.532C97.6967 91.532 93.9497 91.3885 93.4447 88.7936C94.0935 88.5776 94.5263 86.9916 94.4539 86.0552C94.3818 85.1183 93.6616 83.1727 92.364 83.3171C90.7783 82.6684 88.1125 81.5153 84.5813 82.5238C81.0504 83.5331 81.1228 85.1183 81.1228 86.0552C81.1228 86.9916 81.1228 89.7301 80.1132 90.4512C79.1043 91.172 76.2941 92.3974 74.5646 90.8114C73.3394 91.1001 72.9006 90.5516 72.324 90.2632C71.7473 89.9747 71.0988 90.0471 70.6663 90.1189C70.2341 90.1913 69.4416 89.8309 69.5133 89.3983C69.5859 88.9664 69.9454 89.1107 70.2341 88.8222C70.5223 88.5339 71.0988 88.3178 71.459 88.5339C71.8198 88.7498 72.1316 88.9911 72.3474 89.3513C72.9965 89.4956 73.7719 90.0194 74.2762 89.5865C74.348 87.8566 76.0057 85.1183 77.7352 85.1183C78.1676 84.9021 78.8164 84.1095 78.8164 84.1095C78.6003 83.3887 79.0286 82.4497 79.9181 81.834C80.2782 79.456 80.6176 77.9837 80.7617 77.6238C80.9062 77.2633 83.0682 75.2455 83.2841 75.3178" fill="white"/>
<path fill-rule="evenodd" clip-rule="evenodd" d="M74.4813 91.1336C75.142 91.684 75.9175 91.8848 76.6895 91.8848C78.1974 91.8846 79.6912 91.1183 80.2858 90.6935C81.3022 89.9675 81.4197 87.699 81.4197 86.0559L81.4196 86.0001C81.4183 85.0993 81.4163 83.738 84.6629 82.8101C88.011 81.8537 90.5933 82.9124 92.1359 83.5452L92.3214 83.6212L92.3968 83.6127C92.6606 83.5832 92.9054 83.6648 93.1434 83.862C93.7582 84.3711 94.1123 85.4857 94.158 86.0788C94.2296 87.006 93.777 88.3706 93.351 88.5124L93.1034 88.5948L93.1533 88.851C93.7263 91.7958 97.9501 91.8297 98.1295 91.8297C98.6543 91.8297 99.5258 91.3181 100.327 90.546C100.872 90.5954 101.214 90.5035 101.915 90.2228L102.052 90.1675C102.728 89.8956 103.99 89.3898 104.661 89.4505L104.799 89.4631L105.909 88.3531L105.681 88.1435C104.69 87.2342 103.351 87.9044 102.465 88.3479L102.392 88.3845C101.615 88.7734 101.047 88.9641 100.236 88.884C99.8936 87.8859 98.5894 86.9796 97.3253 86.1011C96.7569 85.7062 96.2179 85.3315 95.8327 84.9888C95.835 84.7973 95.8422 84.638 95.8494 84.4832L95.8495 84.4817C95.8651 84.1389 95.8786 83.8425 95.8303 83.36L95.8181 83.2371L95.7222 83.159C95.2889 82.8064 94.6788 82.1529 94.6788 81.8043C94.6788 81.1118 94.6788 79.6706 94.4503 78.908C94.2188 78.1372 93.1239 76.4503 92.3582 75.6849L92.2822 75.6089L92.1752 75.5994C91.8476 75.5695 91.0581 75.3297 90.2225 75.0757L90.2142 75.0733C89.1498 74.7501 87.9456 74.3846 87.2084 74.3027C86.4308 74.2161 85.6409 74.4538 84.8775 74.6836L84.8762 74.684L84.8735 74.6848C84.3141 74.8531 83.7851 75.0123 83.3245 75.0212C83.1737 74.9886 82.9118 75.0601 81.7948 76.0911C81.5199 76.3447 80.6131 77.1972 80.4861 77.5141C80.3182 77.9332 79.9771 79.4881 79.6433 81.6665C78.7971 82.3001 78.3441 83.2375 78.4928 84.0334C78.2585 84.3048 77.8988 84.6759 77.6558 84.8237C75.8106 84.8999 74.1501 87.6085 73.9896 89.4208C73.7726 89.5163 73.4533 89.4145 73.0153 89.2542L73.014 89.2537C72.8563 89.196 72.6944 89.1368 72.5336 89.0925C72.2667 88.7032 71.9046 88.4552 71.6118 88.28C71.1272 87.9894 70.4104 88.2265 70.0242 88.613C69.9548 88.6823 69.8749 88.711 69.7736 88.7475C69.5821 88.8163 69.2927 88.9205 69.2204 89.3504C69.1837 89.5722 69.267 89.7977 69.4552 89.9857C69.757 90.2869 70.322 90.4783 70.7149 90.4125C71.1491 90.3404 71.7096 90.2886 72.1912 90.5294C72.2969 90.5823 72.4014 90.6475 72.5119 90.7164L72.5149 90.7182C72.9502 90.9899 73.487 91.3244 74.4813 91.1336ZM74.7653 90.593L74.6494 90.4868L74.4965 90.5228C73.6453 90.7235 73.2488 90.4762 72.8293 90.2142L72.8269 90.2127C72.7093 90.1394 72.5877 90.0635 72.4568 89.9981C71.8225 89.6806 71.1406 89.7396 70.6172 89.8265C70.4307 89.8575 70.0581 89.7482 69.8748 89.5652C69.8282 89.5186 69.8019 89.4734 69.8061 89.4479C69.8207 89.3614 69.8207 89.3614 69.9747 89.3059C70.1038 89.2595 70.2808 89.1958 70.4441 89.0327C70.6595 88.8172 71.0921 88.6605 71.3066 88.789C71.6973 89.023 71.9324 89.2369 72.0927 89.5044L72.1583 89.6138L72.2829 89.6415C72.4454 89.6777 72.6231 89.7427 72.8113 89.8117L72.8114 89.8117C73.3295 90.0013 73.9745 90.2372 74.4696 89.8122L74.5676 89.7282L74.5729 89.5993C74.6382 88.0255 76.1941 85.4156 77.7352 85.4156H77.8053L77.8679 85.3843C78.3434 85.1466 78.9757 84.3842 79.0462 84.298L79.1462 84.1758L79.1008 84.0246C78.919 83.4184 79.3338 82.6 80.087 82.0786L80.1924 82.0055L80.2116 81.8789C80.581 79.4393 80.9142 78.0422 81.0352 77.7394C81.1961 77.4149 82.924 75.8039 83.307 75.6151C83.8582 75.6102 84.436 75.4364 85.0472 75.2525L85.0473 75.2524C85.7541 75.0396 86.4848 74.8198 87.1429 74.8925C87.8274 74.9687 89.008 75.3273 90.0496 75.6437L90.0555 75.6455C90.8758 75.8947 91.5938 76.1127 92.0082 76.1762C92.6946 76.8978 93.6855 78.4261 93.8815 79.0785C94.0849 79.7575 94.0849 81.1917 94.0849 81.8041C94.0849 82.4733 94.9187 83.2542 95.2504 83.5384C95.281 83.9092 95.2699 84.1538 95.2562 84.4559C95.2476 84.6421 95.238 84.853 95.238 85.1187V85.247L95.3316 85.3349C95.7518 85.7306 96.3516 86.1474 96.9865 86.5885C98.1845 87.421 99.5423 88.3647 99.7117 89.2127L99.7528 89.4188L99.9609 89.4485C101.028 89.6007 101.732 89.3788 102.658 88.9154L102.731 88.8786L102.732 88.8783C103.461 88.513 104.348 88.0691 105.02 88.4019L104.57 88.8519C104.567 88.8518 104.564 88.8518 104.561 88.8518C104.557 88.8517 104.553 88.8517 104.549 88.8517C103.731 88.8517 102.553 89.3255 101.831 89.6163L101.83 89.6165L101.694 89.6712C101.011 89.9449 100.771 90.0056 100.256 89.9409L100.112 89.9227L100.01 90.0255C99.1742 90.8603 98.4074 91.2357 98.1295 91.2357C98.0916 91.2357 94.4368 91.2089 93.7861 88.9449C94.4897 88.4263 94.8131 86.8497 94.7499 86.0329C94.6988 85.3674 94.3202 84.0651 93.5221 83.4043C93.1813 83.1221 92.8081 82.9905 92.4103 83.0155L92.3613 82.9955L92.3611 82.9955C90.747 82.3336 88.0453 81.2258 84.4998 82.2389C80.8218 83.29 80.8244 85.0534 80.8258 86.0008L80.8259 86.0557C80.8259 88.3927 80.5281 89.7904 79.9407 90.21C78.9148 90.9426 76.3 92.0006 74.7653 90.593Z" fill="#231F20"/>
<path d="M92.4361 76.614C92.47 77.4962 92.561 78.2036 92.2925 78.6318C91.5717 78.1273 90.2747 77.9111 89.4092 78.0555C88.5448 78.1998 87.4638 77.6951 86.7433 77.9834C86.0229 78.2718 85.5181 78.8479 84.6532 78.5598C84.5097 77.8393 84.2929 76.4704 83.8603 75.9654C84.1496 76.7582 84.2929 78.2718 83.8603 79.0642C82.852 79.8567 82.4198 80.2173 81.8431 80.722C81.2664 81.2259 80.7617 81.8746 80.4734 81.9467C80.1854 82.0191 80.4297 82.3038 80.4297 82.3038C80.4297 82.3038 79.8389 82.834 80.0549 83.3385C80.2709 83.8429 81.0504 84.5412 80.1854 84.2531C80.4016 84.9734 80.4734 85.8382 79.9694 86.199C79.4651 86.559 79.5368 85.8382 79.3927 85.3339C79.2485 84.8294 79.1765 84.181 78.9604 84.181C78.7442 84.181 78.1676 84.8294 78.1676 84.8294C78.1676 84.8294 78.8884 85.4781 78.5277 85.6943C78.1676 85.9104 78.0239 86.0546 78.3116 86.487C78.6003 86.9192 78.8884 87.4959 79.0322 87.9998C79.1767 88.5048 79.1043 89.0091 79.5368 89.0815C79.9694 89.1534 80.9062 88.7211 80.9062 88.7211L81.0504 86.9192C81.0504 86.9192 81.6265 84.5412 81.4829 84.3249C81.3388 84.1089 80.8341 84.181 81.2664 83.6044C81.6989 83.0277 81.6989 82.6677 82.3473 82.5232C82.9962 82.3792 83.7888 82.1632 84.3651 81.8746C84.9415 81.5869 85.7342 81.2983 86.9593 81.2259C88.1843 81.1543 90.6347 81.5869 91.6436 82.0191C92.4794 82.3768 93.3838 83.5978 93.8776 84.1089C93.9805 84.2149 93.7825 84.6879 93.7334 84.6128C91.3993 81.1063 94.0807 86.5557 93.9497 85.0457C93.9041 84.518 94.5141 86.1681 94.5221 86.5591C94.5263 86.8205 94.5263 86.9909 94.5263 86.9909L94.0218 88.5048C94.0218 88.5048 94.3818 89.2976 95.6067 89.5858C96.8319 89.8738 97.4086 89.3699 97.4807 88.8653C97.5532 88.361 97.1927 87.7118 96.9043 87.7118C96.6162 87.7118 96.7598 88.6492 96.3276 88.7211C95.8954 88.7929 95.6788 88.6487 95.5349 88.2166C95.3907 87.7839 95.6794 87.4952 95.9672 87.7118C96.2555 87.9281 96.5439 87.9279 96.6162 87.5677C96.6877 87.2077 96.4715 86.8471 96.1831 86.7027C95.8954 86.559 95.8236 86.3425 95.4628 86.559C95.1028 86.7751 95.247 87.4237 94.9582 87.4237C94.6705 87.4237 93.7334 81.9467 93.5892 81.2259C93.4447 80.5056 93.4447 80.1454 92.8688 79.3528C92.9406 78.7763 92.5806 77.1903 92.4361 76.614" fill="#231F20"/>
<path d="M77.5908 85.7671C77.2306 86.4879 76.3662 88.0731 77.8791 89.2264C77.8791 89.2264 76.51 87.5686 75.6456 88.7938C76.2941 89.0101 77.519 89.6585 76.7985 90.2353C77.4472 90.3796 77.8791 90.3071 78.3837 90.3071C77.4472 90.5232 75.7896 90.8116 75.3579 90.3796C74.9247 89.9466 74.9971 89.0823 75.5011 88.1451C76.0057 87.2086 77.0144 85.839 77.5908 85.7671" fill="#231F20"/>
<path d="M87.3623 85.0701C86.5786 85.0099 86.1829 85.9872 85.7248 86.642C85.2658 87.2975 84.2173 88.0178 83.1693 87.8868C81.8039 87.7168 81.204 86.1838 81.4664 84.9387C81.7282 83.6943 82.2521 82.9082 84.0864 82.8426C85.1343 82.9735 87.0346 83.2359 87.4927 83.2359H87.6238C88.0827 83.2359 89.9825 82.9735 91.0307 82.8426C92.8649 82.9082 93.3894 83.6943 93.6511 84.9387C93.9132 86.1838 93.313 87.7168 91.948 87.8868C90.8999 88.0178 89.8513 87.2975 89.3928 86.642C88.9345 85.9872 88.539 85.0099 87.7552 85.0701H87.3623" fill="white"/>
<path fill-rule="evenodd" clip-rule="evenodd" d="M89.1787 86.7901C89.6771 87.5028 90.6713 88.1621 91.6941 88.162C91.7892 88.162 91.8848 88.1564 91.9802 88.1445C92.5774 88.07 93.085 87.7619 93.4479 87.2533C93.9041 86.6138 94.0801 85.7058 93.9068 84.8833C93.6269 83.5522 93.0321 82.6513 91.0399 82.5799L91.019 82.5792L90.9983 82.5818C90.7687 82.6104 90.4985 82.6453 90.2113 82.6825L90.2055 82.6833C89.2061 82.8125 87.9649 82.973 87.6238 82.973H87.4927C87.1515 82.973 85.9058 82.8119 84.9047 82.6824C84.618 82.6453 84.3481 82.6104 84.1188 82.5818L84.098 82.5792L84.0772 82.5799C82.0854 82.6511 81.4908 83.5522 81.2108 84.8833C81.0374 85.7056 81.2131 86.6138 81.6692 87.2532C82.0319 87.7618 82.5396 88.07 83.1368 88.1445C84.2561 88.2844 85.3936 87.5691 85.9388 86.7902C86.0355 86.6522 86.1295 86.5003 86.2203 86.3534L86.2219 86.3509C86.6171 85.7121 86.9081 85.297 87.3424 85.329L87.7552 85.3297L87.7752 85.329C88.2103 85.2979 88.5005 85.7121 88.8956 86.3509L88.901 86.3596C88.9908 86.5045 89.0835 86.6541 89.1787 86.7901ZM89.3401 86.0762C88.9705 85.4786 88.5536 84.8047 87.8279 84.8047C87.801 84.8047 87.7736 84.8055 87.7458 84.8075H87.3718C86.5956 84.7539 86.1634 85.4525 85.7809 86.0708L85.7776 86.0762L85.7705 86.0876C85.6814 86.2314 85.5973 86.3672 85.5107 86.4908C85.0663 87.1254 84.1049 87.7388 83.2016 87.6261C82.635 87.5555 82.2868 87.2194 82.0946 86.95C81.7207 86.4257 81.5779 85.6752 81.7221 84.9911C81.969 83.8172 82.418 83.1675 84.075 83.1031C84.2992 83.1311 84.5605 83.1649 84.8378 83.2009C85.9064 83.3391 87.1179 83.4957 87.4927 83.4957H87.6238C87.9991 83.4957 89.2101 83.3391 90.2784 83.2009L90.3628 83.19C90.6089 83.1582 90.8407 83.1283 91.0421 83.1031C92.6994 83.1675 93.1486 83.8172 93.3956 84.9911C93.5396 85.6752 93.3965 86.4257 93.0226 86.95C92.8302 87.2194 92.4822 87.5555 91.9156 87.6261C91.011 87.7398 90.0509 87.1256 89.6069 86.4908C89.5182 86.3639 89.4316 86.2241 89.3401 86.0762Z" fill="#231F20"/>
<path d="M83.2014 87.6266C82.6349 87.5559 82.2868 87.2196 82.0944 86.9502C81.8168 86.5608 81.6665 86.047 81.6665 85.5284C81.6665 85.3484 81.6848 85.1677 81.7221 84.9918C81.9695 83.817 82.6118 82.9699 84.0796 83.1043C84.1276 83.1101 84.8167 83.1986 84.8167 83.1986C85.8941 83.3381 86.8437 83.496 87.2209 83.496H87.9353C88.313 83.496 89.2236 83.3381 90.3014 83.1986C90.7062 83.1465 90.6974 83.1471 91.0379 83.1043C92.3823 83.0674 93.1478 83.817 93.3955 84.9918C93.4325 85.1677 93.4504 85.3478 93.4504 85.5278C93.4504 86.0468 93.3001 86.5608 93.0225 86.9502C92.8303 87.2198 92.4822 87.5559 91.9159 87.6266C91.0016 87.7411 89.8351 87.1358 89.4031 86.5184C89.4031 86.5181 89.0066 86.0864 89.0066 86.0864C88.5522 85.5347 88.3201 85.0408 87.549 85.1002C87.549 85.1002 87.5497 85.1002 87.549 85.1002C86.793 85.0517 86.3922 85.5719 86.085 86.0864L85.7156 86.5181C85.2835 87.1358 84.1166 87.7411 83.2014 87.6266" fill="#231F20"/>
<path fill-rule="evenodd" clip-rule="evenodd" d="M89.3103 86.5933C89.7273 87.183 90.782 87.7597 91.6882 87.7597C91.7703 87.7597 91.8515 87.755 91.9304 87.745C92.5399 87.6691 92.9134 87.3088 93.1192 87.0198C93.4095 86.6128 93.5693 86.0831 93.5693 85.5284C93.5693 85.3382 93.5499 85.1496 93.5117 84.9679C93.2346 83.6538 92.3566 82.9524 91.0232 82.9871C90.7992 83.0153 90.7261 83.0247 90.5877 83.0425L90.5664 83.0453L90.2863 83.0814C89.9281 83.1278 89.5884 83.1762 89.2805 83.2201L89.2536 83.2239L89.2491 83.2245C88.649 83.3102 88.175 83.3779 87.9353 83.3779H87.2209C86.9737 83.3779 86.4655 83.3067 85.8217 83.2166L85.8116 83.2151C85.5079 83.1724 85.1764 83.126 84.8318 83.0814C84.8318 83.0814 84.1417 82.9927 84.0905 82.9866C82.7449 82.8634 81.9086 83.5298 81.6059 84.9679C81.5672 85.1501 81.5477 85.3388 81.5477 85.529C81.5477 86.0833 81.7075 86.6128 81.9978 87.0199C82.2042 87.3088 82.578 87.6691 83.1867 87.745C84.1432 87.8652 85.3615 87.2321 85.8058 86.5958L86.1753 86.1643L86.187 86.1479C86.5375 85.5607 86.9005 85.1785 87.5414 85.2193L87.5498 85.22L87.5581 85.2193C88.1447 85.1732 88.372 85.4663 88.7145 85.909L88.7161 85.9112C88.779 85.9923 88.8443 86.0767 88.9192 86.1674L89.3103 86.5933ZM91.901 87.5091C91.0266 87.6184 89.9131 87.0405 89.5004 86.4508L89.4957 86.4541C89.4557 86.4001 89.3545 86.29 89.0983 86.0113C89.0294 85.9276 88.9656 85.8452 88.9042 85.766L88.9023 85.7636C88.5564 85.3164 88.258 84.9312 87.5483 84.9816C86.7494 84.9353 86.3121 85.4769 85.9884 86.0173L85.6183 86.4503C85.2055 87.0404 84.0908 87.6186 83.2161 87.5091C82.6928 87.4439 82.3699 87.1319 82.1911 86.8818C81.9332 86.5199 81.7853 86.0268 81.7853 85.5288C81.7853 85.3552 81.8031 85.1829 81.8383 85.0166C82.116 83.6979 82.8453 83.1119 84.0655 83.2226C84.1135 83.2284 84.8013 83.3168 84.8013 83.3168C85.1451 83.3614 85.4757 83.4076 85.7788 83.4502L85.7856 83.4511C86.44 83.5428 86.9568 83.6152 87.2209 83.6152H87.9353C88.1921 83.6152 88.6744 83.5464 89.285 83.4593L89.2872 83.4589C89.6013 83.4141 89.9494 83.3643 90.3166 83.3168L90.5967 83.2807C90.6364 83.2755 90.6704 83.2711 90.7029 83.2669C90.7955 83.255 90.876 83.2446 91.0412 83.2234C92.5768 83.1806 93.102 84.1755 93.2792 85.0166C93.3141 85.1823 93.3316 85.3545 93.3316 85.5282C93.3316 86.0266 93.1838 86.5199 92.9259 86.8818C92.7475 87.1319 92.4251 87.4439 91.901 87.5091Z" fill="white"/>
<path d="M82.9252 83.7232C81.7695 84.4742 81.956 86.2252 82.4054 86.7271C84.3695 88.9227 83.0556 84.5821 85.4089 83.6653C84.7161 83.6653 83.5322 83.3289 82.9252 83.7232" fill="white"/>
<path d="M88.8753 83.7808C88.4711 84.3589 89.2966 86.233 90.0302 86.554C91.9864 87.4097 89.8005 84.8332 91.8791 83.55C90.8394 83.4923 89.7303 83.8425 88.8753 83.7808" fill="white"/>
<path d="M84.4383 75.8446C85.5974 75.5134 85.5974 75.1821 86.591 75.3477C87.5844 75.5134 89.5098 76.2569 89.5098 76.2569C87.9159 76.1758 87.4216 75.2928 86.2597 76.0101C85.098 76.7275 84.4383 75.8446 84.4383 75.8446" fill="#231F20"/>
<path d="M94.8708 93.2319C96.0297 94.0599 98.1564 95.6035 98.1564 95.6035C96.1953 94.888 95.6986 93.7288 94.5394 94.0599L94.8708 93.2319" fill="#231F20"/>
<path d="M81.1264 93.7287C81.1316 93.0151 80.2983 92.5693 79.6358 92.9006C78.9736 93.2318 77.8143 93.8942 77.8143 93.8942L76.8207 94.5566C76.8207 94.5566 80.1328 93.2318 81.1264 93.7287" fill="#231F20"/>
<path d="M83.4446 76.1763L83.7758 77.6664C83.1135 77.3353 82.2857 77.0042 81.4576 77.832C81.4576 77.832 83.0291 76.3866 83.4446 76.1763" fill="#231F20"/>
<path d="M79.1391 101.014C80.6295 103.498 82.6168 107.473 82.6168 107.473C81.9542 104.658 80.6295 101.346 80.6295 101.346C80.1328 101.346 79.1391 101.014 79.1391 101.014" fill="#231F20"/>
<path d="M93.5462 99.1937C94.5394 100.187 95.8502 101.474 95.8502 101.474L93.7113 103.168C94.2083 101.843 94.5394 100.518 93.5462 99.1937" fill="#231F20"/>
<path d="M90.5651 96.7091C87.6529 97.8107 87.2534 98.1992 83.1135 97.8681C78.9736 97.537 78.4769 98.3651 76.4896 98.3651C78.6424 98.3651 77.9802 98.0341 80.7953 98.3651C83.6104 98.6962 87.2533 98.6964 90.5651 96.7091" fill="#231F20"/>
<path d="M67.5476 94.391C68.5411 95.8816 69.2035 97.0406 69.038 97.8686C70.1971 98.5309 70.8597 99.359 73.0122 99.1934C71.5219 98.5309 69.866 97.0406 69.866 97.0406C69.866 97.0406 68.5411 94.7221 67.5476 94.391" fill="#231F20"/>
<path d="M112.286 90.8785C110.693 90.5504 108.584 89.8004 106.474 89.7537C108.537 90.269 109.708 90.9721 109.662 91.7691C109.615 92.566 109.755 92.2377 109.755 92.2377L110.083 91.5816L110.411 91.1129L111.302 90.9721L112.286 90.8785" fill="#231F20"/>
<path d="M67.4301 89.2386C67.3524 89.7635 68.4145 91.9572 68.8363 92.5198C69.2581 93.0822 70.6174 93.9727 70.6174 93.9727V94.4414C68.7894 93.6446 67.4147 92.1513 67.4301 89.2386" fill="#231F20"/>
<path d="M71.2736 83.3802C69.7738 84.5052 66.8209 86.2862 68.8363 92.7075L70.1883 93.8496C68.5701 90.5886 67.2895 87.2239 71.2736 83.3802" fill="#231F20"/>
<path d="M101.777 84.4129C105.017 85.2229 108.661 84.4129 112.914 85.8303C111.597 86.1341 109.775 86.1342 107.953 85.729C106.131 85.3241 102.735 84.9195 101.878 85.0204L101.777 84.4129" fill="#231F20"/>
<g clip-path="url(#clip0_10_342434)">
<path d="M41.517 0H33.4099H30.174L32.9196 5.60901L30.9168 28.4912H56.3363L56.9393 21.6099H39.6269L41.517 0Z" fill="#C22033"/>
<path d="M122.227 20.7764H121.921L118.83 0H108.793L102.466 20.7323H102.16L99.5904 0H91.3509L96.3519 28.4912H106.695L112.985 8.67828H113.292L116.425 28.4912H126.812L136.711 0H128.601L122.227 20.7764Z" fill="#C22033"/>
<path d="M176.923 0H160.005C156.629 0 154.536 1.40225 154.237 4.82208L153.803 9.77409C153.533 12.8409 154.2 14.2456 156.86 14.9026L172.988 18.8912L172.709 22.0904H160.743L161.081 18.2342H153.062L152.648 22.968C152.307 26.8683 154.97 28.4912 158.08 28.4912H173.988C177.889 28.4912 180.308 26.3879 180.627 22.7498L180.975 18.7613C181.294 15.1232 180.747 13.8509 177.871 13.1498L161.87 9.20535L162.121 6.35672H174.086L173.792 9.72997H181.769L182.076 6.22434C182.414 2.36814 181.656 0 176.923 0Z" fill="#C22033"/>
<path d="M63.4333 0H60.2194L62.9455 5.56734L60.9402 28.4912H85.9209L86.4773 22.1345H69.6037L70.0327 17.2266H82.5231L83.0747 10.914H70.5868L70.9839 6.35672H87.8575L88.414 0H71.5625H63.4333Z" fill="#C22033"/>
<path d="M150.236 0H142.129H138.893L141.636 5.60901L139.635 28.4912H147.743L149.289 10.8037L150.236 0Z" fill="#C22033"/>
<path d="M85.33 196.267C70.8172 182.809 58.849 166.673 49.705 148.26L46.7485 148.846C46.8661 149.081 46.9814 149.324 47.099 149.554C56.4024 168.288 68.5986 184.723 83.3517 198.403L85.0726 199.998L86.9971 198.653C96.4868 192.024 105.746 184.613 114.603 176.555C114.603 176.555 114.907 176.256 115.447 175.724L112.564 174.478C103.905 182.355 94.8149 189.641 85.33 196.267Z" fill="white"/>
<path d="M185.469 44.3901C182.669 41.968 179.065 40.4407 175.042 39.975C89.3162 30.0121 19.2158 38.8326 18.5171 38.9233L13.0356 39.6318L25.4205 53.4827C25.472 63.6073 26.2491 78.9193 29.5145 96.2342C30.5122 101.52 31.765 106.996 33.2359 112.5L33.8487 114.829C33.9419 115.184 35.6015 121.399 38.7198 129.954L36.8641 131.492L7 156.727L42.9658 140.663L45.6257 139.476L48.2856 138.29L79.6769 124.269C79.6769 124.269 79.5886 124.409 79.4636 124.657C79.3165 124.949 79.118 125.395 78.9488 125.939C78.5443 127.238 78.3163 129.104 79.3827 130.866L97.514 150.952L80.0005 165.795L117.942 151.113L106.987 160.667L115.133 167.805L117.327 169.727L119.521 171.649L132.661 183.164H132.656L133.575 183.956C137.191 187.123 143.44 187.969 147.502 185.395L164.344 174.724C165.305 174.113 165.538 172.811 164.844 171.909L164.702 171.725L159.752 165.276L146.196 147.61L145.539 146.755H145.558L145.284 146.389L144.283 145.08C144.435 144.901 144.595 144.72 144.744 144.543C156.578 129.893 167.202 113.924 176.317 97.0824C181.769 87.0117 187.27 76.3894 190.582 66.9438C193.637 58.2288 191.727 49.7981 185.476 44.3925L185.469 44.3901ZM36.6655 114.084L36.0526 111.757C34.6504 106.508 33.4075 101.162 32.3778 95.6949C29.235 79.0297 28.3304 63.5313 28.3304 52.3672L18.8922 41.8111C18.8922 41.8111 18.9584 41.8013 19.0809 41.7866C19.0957 41.7866 19.1177 41.7817 19.1349 41.7793C19.1766 41.7744 19.2207 41.7695 19.2722 41.7621C19.3138 41.7572 19.358 41.7523 19.407 41.7449C19.4683 41.7376 19.532 41.7302 19.6031 41.7204C19.6595 41.7131 19.7183 41.7057 19.7796 41.6984C19.8336 41.691 19.8924 41.6861 19.9512 41.6787C20.0346 41.6689 20.1155 41.6591 20.2086 41.6493C20.2797 41.642 20.3582 41.6322 20.4342 41.6224C20.5322 41.6101 20.6278 41.6003 20.7357 41.588C20.797 41.5807 20.8656 41.5733 20.9294 41.566C21.1255 41.5439 21.3339 41.5194 21.5594 41.4949C21.6967 41.4802 21.8291 41.4655 21.9762 41.4483C22.0816 41.436 22.1943 41.4238 22.3047 41.4115C22.4395 41.3968 22.5743 41.3821 22.7165 41.3674C22.8661 41.3502 23.0229 41.3355 23.1798 41.3184C23.3 41.3061 23.4201 41.2939 23.5427 41.2792C23.7094 41.262 23.881 41.2448 24.055 41.2252C24.1751 41.213 24.2977 41.2007 24.4227 41.1884C24.6164 41.1688 24.8125 41.1492 25.016 41.1296C25.1508 41.1149 25.293 41.1026 25.4328 41.0879C25.6313 41.0683 25.8275 41.0487 26.0334 41.0291C26.1829 41.0144 26.3398 40.9997 26.4943 40.985C26.71 40.9654 26.9208 40.9433 27.1439 40.9212C27.2395 40.9114 27.3425 40.9016 27.4381 40.8943C27.9627 40.8452 28.5094 40.7938 29.0781 40.7423C29.2154 40.73 29.3478 40.7178 29.4851 40.7055C29.7449 40.681 30.0121 40.6589 30.2818 40.6344C30.451 40.6197 30.6177 40.605 30.7917 40.5878C31.0663 40.5633 31.3482 40.5388 31.6326 40.5143C31.8213 40.4971 32.0101 40.4824 32.2013 40.4653C32.4685 40.4432 32.7407 40.4187 33.0177 40.3966C33.2432 40.377 33.4712 40.3598 33.6992 40.3402C33.9762 40.3182 34.2557 40.2937 34.54 40.2716C34.7558 40.2544 34.9764 40.2373 35.197 40.2201C35.5035 40.1956 35.8099 40.1711 36.1262 40.1466C36.3615 40.1294 36.6018 40.1098 36.842 40.0926C37.146 40.0706 37.4426 40.0461 37.754 40.024C38.0236 40.0044 38.3055 39.9823 38.5801 39.9627C39.1464 39.921 39.725 39.8794 40.3158 39.8377C40.5928 39.8181 40.8649 39.7984 41.1468 39.7788C41.4778 39.7568 41.8185 39.7323 42.1568 39.7102C42.4289 39.6906 42.7011 39.6734 42.9781 39.6538C43.3213 39.6317 43.6694 39.6072 44.02 39.5852C44.3117 39.5656 44.601 39.5484 44.8976 39.5288C45.155 39.5116 45.4173 39.4969 45.6796 39.4798L46.1528 41.1149L46.3709 41.87L46.5156 42.3701L55.1595 72.2072L41.2302 82.0965L67.1571 73.1632L57.8954 81.6552L62.0703 96.0749L39.1954 112.282L36.6581 114.079L36.6655 114.084ZM189.043 60.2145C189.006 60.7464 188.942 61.2833 188.861 61.8275C188.744 62.6096 188.577 63.4063 188.361 64.2128C188.207 64.7963 188.033 65.3847 187.824 65.9779C184.669 74.9773 179.494 85.075 173.746 95.6949C164.668 112.463 154.156 128.243 142.467 142.712L140.653 140.314L122.068 115.785C120.176 113.686 117.859 112.48 115.611 111.813C113.919 111.313 112.274 111.1 110.892 111.044C108.707 110.953 107.18 111.218 107.18 111.218L149.184 85.7002C156.749 80.8045 161.515 75.6956 164.185 71.1334C166.308 66.9046 166.81 62.8106 165.305 60.4302C164.675 59.5158 163.734 58.8931 162.662 58.4592C160.223 57.4713 157.095 57.5031 155.222 57.6502C154.244 57.7262 153.604 57.8292 153.604 57.8292C153.736 58.0277 153.854 58.2288 153.979 58.4298C154.268 58.9029 154.538 59.3785 154.781 59.8492C155.908 62.031 156.264 64.6026 156.024 67.037C155.906 68.2284 155.658 69.3879 155.259 70.4494C154.756 71.7904 153.822 72.9304 152.695 73.8129C152.415 74.0311 152.126 74.237 151.817 74.4184L146.593 77.4852C147.399 75.9972 147.944 74.4674 148.292 72.9451C149.145 69.1967 148.667 65.5244 147.22 62.6782C147.115 62.4698 147.027 62.2468 146.911 62.0482C146.666 61.6314 146.409 61.2294 146.122 60.8568C145.46 59.9987 144.585 59.2633 143.6 58.6676C140.883 57.0251 137.554 56.7726 134.495 57.6232C131.808 58.3709 129.126 59.2731 126.513 60.3297C119.06 63.345 107.237 69.4688 94.3957 76.6296L69.5547 45.1942L67.01 41.9754L66.9292 41.8724L66.5933 41.4459L64.3257 38.5776C64.6027 38.5678 64.8773 38.558 65.1567 38.5482C65.4975 38.5359 65.8431 38.5261 66.1863 38.5139C66.7992 38.4943 67.4145 38.4746 68.0372 38.455C68.4025 38.4428 68.7653 38.433 69.1355 38.4232C69.7753 38.406 70.4225 38.3864 71.0722 38.3717C71.4227 38.3619 71.7733 38.3521 72.1263 38.3447C72.8372 38.3276 73.558 38.3104 74.2812 38.2957C74.5803 38.2883 74.8744 38.2834 75.176 38.2761C76.0928 38.2565 77.017 38.2393 77.9511 38.2246C78.0687 38.2246 78.1839 38.2197 78.3041 38.2172C79.368 38.2001 80.4418 38.1854 81.5278 38.1707C81.7509 38.1682 81.9789 38.1658 82.2044 38.1633C83.0502 38.1535 83.9008 38.1461 84.7588 38.1388C85.1315 38.1363 85.5065 38.1339 85.8816 38.1314C86.6073 38.1265 87.3329 38.1216 88.0659 38.1192C88.4876 38.1192 88.9117 38.1192 89.3358 38.1167C90.032 38.1167 90.7331 38.1167 91.4367 38.1167C91.8902 38.1167 92.3462 38.1167 92.8046 38.1192C93.4935 38.1192 94.1873 38.1241 94.8835 38.129C95.3468 38.1314 95.8102 38.1339 96.276 38.1363C96.9893 38.1412 97.7101 38.1486 98.4308 38.156C98.8868 38.1609 99.3403 38.1658 99.7987 38.1707C100.588 38.1805 101.382 38.1903 102.179 38.2025C102.571 38.2074 102.961 38.2148 103.358 38.2197C104.395 38.2369 105.44 38.2565 106.489 38.2785C106.656 38.281 106.817 38.2834 106.984 38.2883C108.198 38.3153 109.418 38.3447 110.649 38.3766C111.014 38.3864 111.382 38.3962 111.747 38.4085C112.618 38.433 113.488 38.4575 114.368 38.4845C114.839 38.4992 115.312 38.5163 115.782 38.531C116.564 38.558 117.349 38.5825 118.136 38.6119C118.651 38.6315 119.168 38.6512 119.685 38.6708C120.443 38.7002 121.203 38.7296 121.968 38.7615C122.5 38.7835 123.034 38.8056 123.568 38.8301C124.333 38.8644 125.103 38.8988 125.873 38.9331C126.407 38.9576 126.944 38.9821 127.481 39.0091C128.265 39.0458 129.055 39.0875 129.844 39.1292C130.369 39.1562 130.893 39.1831 131.423 39.2125C132.281 39.2591 133.146 39.3082 134.012 39.3572C134.475 39.3841 134.934 39.4087 135.397 39.4381C136.593 39.5092 137.794 39.5852 139.003 39.6612C139.138 39.671 139.273 39.6783 139.41 39.6857C140.751 39.7739 142.099 39.8646 143.452 39.9602C143.886 39.9897 144.323 40.024 144.757 40.0559C145.686 40.122 146.615 40.1907 147.549 40.2618C148.076 40.301 148.605 40.3451 149.133 40.3868C149.983 40.453 150.834 40.5216 151.689 40.5927C152.256 40.6393 152.822 40.6883 153.388 40.7349C154.21 40.8036 155.033 40.8747 155.862 40.9482C156.455 40.9997 157.051 41.0536 157.649 41.1075C158.46 41.1811 159.277 41.2571 160.093 41.3331C160.689 41.3895 161.285 41.4459 161.883 41.5047C162.731 41.588 163.582 41.6714 164.435 41.7572C165.001 41.8136 165.567 41.87 166.139 41.9288C167.085 42.0269 168.036 42.1274 168.987 42.2303C169.463 42.2818 169.936 42.3308 170.414 42.3823C171.816 42.5368 173.221 42.6937 174.633 42.8579C174.662 42.8604 174.694 42.8653 174.724 42.8677C175.481 42.956 176.234 43.0933 176.974 43.2747C177.026 43.2869 177.077 43.2967 177.129 43.309C177.349 43.3654 177.565 43.434 177.781 43.4977C177.952 43.5492 178.129 43.5934 178.3 43.6473C178.367 43.6694 178.43 43.6963 178.497 43.7184C178.96 43.8777 179.418 44.0567 179.864 44.2528C180.311 44.4514 180.749 44.6696 181.176 44.9074C181.463 45.0667 181.735 45.2506 182.009 45.4295C182.144 45.5178 182.287 45.5938 182.419 45.6869C182.468 45.7213 182.51 45.7605 182.559 45.7948C182.909 46.0449 183.255 46.3072 183.583 46.5891C183.853 46.8244 184.11 47.0696 184.363 47.3172C184.405 47.3588 184.451 47.3956 184.493 47.4373C185.351 48.3027 186.099 49.2563 186.731 50.2859C186.942 50.6291 187.14 50.9822 187.324 51.3401C187.339 51.367 187.354 51.3916 187.368 51.4185C187.398 51.4774 187.422 51.5386 187.452 51.5975C187.864 52.4408 188.2 53.3282 188.459 54.25C188.741 55.2428 188.937 56.2749 189.033 57.3487C189.077 57.839 189.104 58.3342 189.107 58.8392C189.107 59.2903 189.094 59.7487 189.062 60.2096L189.043 60.2145Z" fill="white"/>
<path d="M57.9028 81.6584L67.1645 73.1664L41.2375 82.0996L55.1669 72.2103L46.5229 42.3732L46.3783 41.8756L46.1601 41.1156L45.687 39.4805C45.4247 39.4976 45.1648 39.5123 44.905 39.5295C44.6108 39.5491 44.319 39.5663 44.0273 39.5859C43.6768 39.6079 43.3286 39.63 42.9854 39.6545C42.7084 39.6741 42.4363 39.6913 42.1642 39.7109C41.8259 39.733 41.4851 39.7575 41.1542 39.7796C40.8723 39.7992 40.6001 39.8188 40.3231 39.8384C39.7348 39.8801 39.1562 39.9217 38.5875 39.9634C38.3129 39.983 38.031 40.0051 37.7613 40.0247C37.4524 40.0468 37.1533 40.0713 36.8494 40.0933C36.6116 40.1105 36.3689 40.1301 36.1335 40.1473C35.8173 40.1718 35.5108 40.1963 35.2044 40.2208C34.9838 40.238 34.7631 40.2551 34.5474 40.2723C34.263 40.2944 33.9836 40.3189 33.7065 40.3409C33.4761 40.3606 33.2481 40.3777 33.025 40.3973C32.7505 40.4194 32.4783 40.4439 32.2087 40.466C32.0175 40.4831 31.8287 40.4978 31.6399 40.515C31.3556 40.5395 31.0736 40.564 30.7991 40.5885C30.625 40.6033 30.4583 40.618 30.2892 40.6351C30.022 40.6596 29.7523 40.6817 29.4924 40.7062C29.3527 40.7185 29.2203 40.7307 29.0855 40.743C28.5167 40.7945 27.9676 40.846 27.4454 40.895C27.3474 40.9048 27.2469 40.9146 27.1513 40.9219C26.9282 40.944 26.7173 40.9636 26.5016 40.9857C26.3472 41.0004 26.1903 41.0151 26.0407 41.0298C25.8348 41.0494 25.6362 41.069 25.4401 41.0886C25.3004 41.1034 25.1582 41.1156 25.0234 41.1303C24.8199 41.1499 24.6238 41.172 24.4301 41.1892C24.3051 41.2014 24.1825 41.2137 24.0624 41.2259C23.8859 41.2431 23.7143 41.2627 23.55 41.2799C23.425 41.2921 23.3049 41.3044 23.1872 41.3191C23.0303 41.3362 22.8734 41.3534 22.7239 41.3681C22.5817 41.3828 22.4468 41.3975 22.312 41.4122C22.2017 41.4245 22.0865 41.4368 21.9835 41.449C21.8364 41.4637 21.704 41.4809 21.5668 41.4956C21.3437 41.5201 21.1328 41.5446 20.9367 41.5667C20.873 41.574 20.8019 41.5814 20.7431 41.5887C20.6352 41.601 20.5396 41.6133 20.4415 41.6231C20.3655 41.6329 20.2871 41.6402 20.216 41.65C20.1228 41.6598 20.0419 41.6697 19.9586 41.6795C19.8997 41.6868 19.8409 41.6942 19.787 41.6991C19.7232 41.7064 19.6669 41.7138 19.6105 41.7211C19.5394 41.7285 19.4756 41.7383 19.4143 41.7456C19.3653 41.7505 19.3236 41.7579 19.2795 41.7628C19.2256 41.7702 19.1839 41.7751 19.1422 41.78C19.1251 41.78 19.103 41.7849 19.0883 41.7873C18.9657 41.802 18.8995 41.8118 18.8995 41.8118L28.3378 52.368C28.3378 63.532 29.2399 79.0304 32.3852 95.6956C33.4173 101.162 34.6577 106.512 36.06 111.758L36.6728 114.084L39.2101 112.287L62.085 96.0805L57.9101 81.6608L57.9028 81.6584Z" fill="#000810"/>
<path d="M117.322 169.726L115.128 167.804L106.982 160.665L117.937 151.111L79.9956 165.793L97.5091 150.95L79.3778 130.865C78.3114 129.102 78.537 127.236 78.9439 125.937C79.1131 125.395 79.3116 124.947 79.4587 124.655C79.5837 124.407 79.672 124.268 79.672 124.268L48.2807 138.288L45.6208 139.474L42.9609 140.661L7 156.725L46.746 148.846L49.7025 148.26C58.8466 166.673 70.8148 182.809 85.3276 196.268C94.8124 189.639 103.903 182.356 112.561 174.479L115.444 175.724L132.651 183.162L119.511 171.648L117.317 169.726H117.322Z" fill="#000810"/>
<path d="M188.437 54.2544C188.175 53.3326 187.842 52.4452 187.43 51.6018C187.4 51.543 187.378 51.4793 187.346 51.4229C187.334 51.3959 187.317 51.3714 187.302 51.3444C187.118 50.9841 186.92 50.6335 186.709 50.2903C186.077 49.2607 185.329 48.307 184.471 47.4417C184.429 47.4 184.383 47.3632 184.341 47.3215C184.088 47.0715 183.831 46.8263 183.561 46.5934C183.233 46.3091 182.887 46.0492 182.537 45.7992C182.49 45.7648 182.446 45.7256 182.397 45.6913C182.264 45.5981 182.122 45.5221 181.987 45.4339C181.713 45.2549 181.441 45.0711 181.154 44.9117C180.727 44.6739 180.289 44.4557 179.842 44.2572C179.394 44.0586 178.938 43.8796 178.474 43.7228C178.408 43.7007 178.345 43.6713 178.278 43.6517C178.107 43.5953 177.933 43.5511 177.759 43.5021C177.54 43.4384 177.325 43.3673 177.107 43.3134C177.055 43.3011 177.004 43.2913 176.952 43.279C176.212 43.0976 175.459 42.9603 174.702 42.8721C174.672 42.8696 174.64 42.8647 174.611 42.8623C173.199 42.698 171.794 42.5411 170.392 42.3867C169.916 42.3352 169.441 42.2862 168.965 42.2347C168.014 42.1317 167.063 42.0312 166.116 41.9332C165.548 41.8743 164.981 41.8179 164.413 41.7616C163.56 41.6758 162.709 41.59 161.861 41.5091C161.263 41.4502 160.667 41.3938 160.071 41.3374C159.255 41.2615 158.441 41.1855 157.627 41.1119C157.031 41.058 156.436 41.004 155.84 40.9526C155.014 40.879 154.19 40.8079 153.366 40.7393C152.8 40.6903 152.231 40.6437 151.667 40.5971C150.812 40.526 149.961 40.4598 149.11 40.3912C148.583 40.3495 148.054 40.3078 147.527 40.2661C146.593 40.1951 145.661 40.1264 144.735 40.0602C144.301 40.0284 143.864 39.9965 143.43 39.9646C142.077 39.869 140.729 39.7758 139.388 39.69C139.253 39.6802 139.118 39.6729 138.981 39.6655C137.775 39.5871 136.571 39.5135 135.375 39.4424C134.911 39.4155 134.451 39.3885 133.99 39.3615C133.124 39.3125 132.259 39.2635 131.401 39.2169C130.871 39.1875 130.349 39.1605 129.822 39.1336C129.033 39.0919 128.243 39.0527 127.459 39.0134C126.922 38.9865 126.385 38.962 125.851 38.9374C125.079 38.9007 124.311 38.8663 123.546 38.8345C123.012 38.81 122.477 38.7879 121.946 38.7658C121.183 38.734 120.423 38.7045 119.663 38.6751C119.146 38.6555 118.629 38.6359 118.114 38.6163C117.324 38.5869 116.542 38.5624 115.76 38.5354C115.29 38.5207 114.814 38.5035 114.346 38.4888C113.468 38.4619 112.596 38.4373 111.725 38.4128C111.36 38.403 110.99 38.3908 110.627 38.381C109.396 38.3491 108.175 38.3197 106.962 38.2927C106.795 38.2902 106.633 38.2878 106.467 38.2829C105.418 38.2608 104.373 38.2412 103.336 38.2241C102.942 38.2167 102.552 38.2118 102.157 38.2069C101.36 38.1946 100.566 38.1824 99.7767 38.175C99.3183 38.1701 98.8647 38.1652 98.4087 38.1603C97.688 38.153 96.9697 38.1456 96.2539 38.1407C95.7881 38.1383 95.3248 38.1358 94.8614 38.1334C94.1652 38.1284 93.4714 38.126 92.7826 38.1235C92.3266 38.1235 91.8706 38.1235 91.4146 38.1211C90.7111 38.1211 90.0099 38.1211 89.3137 38.1211C88.8896 38.1211 88.4655 38.1211 88.0438 38.1235C87.3108 38.126 86.5828 38.1309 85.8596 38.1358C85.4869 38.1383 85.1094 38.1407 84.7368 38.1432C83.8788 38.1505 83.0281 38.1579 82.1823 38.1677C81.9568 38.1701 81.7288 38.1726 81.5057 38.175C80.4197 38.1873 79.3459 38.2044 78.282 38.2216C78.1643 38.2216 78.0491 38.2265 77.929 38.229C76.995 38.2437 76.0683 38.2608 75.1539 38.2804C74.8524 38.2878 74.5582 38.2927 74.2591 38.3001C73.5359 38.3148 72.8176 38.3319 72.1042 38.3491C71.7512 38.3589 71.4007 38.3662 71.0501 38.376C70.4005 38.3932 69.7533 38.4104 69.1134 38.4275C68.7457 38.4373 68.3804 38.4496 68.0152 38.4594C67.3925 38.479 66.7772 38.4986 66.1643 38.5182C65.8211 38.5305 65.4754 38.5403 65.1347 38.5526C64.8552 38.5624 64.5806 38.5722 64.3036 38.582L66.5712 41.4502L66.9071 41.8768L66.988 41.9797L69.5326 45.1985L94.3736 76.634C107.217 69.4757 119.038 63.3518 126.491 60.3341C129.104 59.275 131.786 58.3729 134.473 57.6276C137.532 56.7769 140.859 57.0294 143.577 58.6719C144.563 59.2677 145.438 60.0056 146.1 60.8611C146.387 61.2313 146.647 61.6358 146.889 62.0525C147.005 62.2511 147.093 62.4742 147.198 62.6826C148.647 65.5263 149.123 69.2011 148.27 72.9494C147.924 74.4718 147.38 76.0015 146.571 77.4896L151.795 74.4228C152.104 74.2414 152.393 74.0354 152.672 73.8173C153.8 72.9347 154.734 71.7948 155.237 70.4538C155.634 69.3948 155.884 68.2328 156.002 67.0413C156.244 64.607 155.886 62.0329 154.759 59.8536C154.516 59.3829 154.244 58.9073 153.957 58.4341C153.835 58.2331 153.717 58.0297 153.582 57.8335C153.582 57.8335 154.224 57.7306 155.2 57.6546C157.073 57.5075 160.201 57.4732 162.64 58.4636C163.712 58.8975 164.655 59.5226 165.283 60.4346C166.788 62.815 166.286 66.909 164.163 71.1378C161.493 75.7 156.727 80.8089 149.162 85.7045L107.158 111.222C107.158 111.222 108.685 110.957 110.87 111.048C112.252 111.104 113.897 111.318 115.589 111.818C117.839 112.482 120.153 113.688 122.046 115.789L140.631 140.319L142.445 142.714C154.134 128.245 164.646 112.465 173.723 95.6968C179.47 85.0769 184.647 74.9793 187.802 65.9798C188.011 65.3866 188.182 64.7982 188.339 64.2148C188.555 63.4082 188.722 62.6115 188.839 61.8295C188.92 61.2852 188.986 60.7459 189.021 60.2164C189.053 59.7531 189.067 59.2971 189.065 58.846C189.062 58.341 189.033 57.8458 188.991 57.3555C188.896 56.2817 188.7 55.2497 188.418 54.2568L188.437 54.2544Z" fill="#C22033"/>
<path opacity="0.4" d="M142.619 83.94C141.658 84.1729 137.395 85.1363 132.963 85.0211C130.116 84.9476 127.211 84.4327 125.091 82.9766L93.621 102.873L46.0817 132.931L43.5738 134.517L42.0097 135.505L43.6351 134.671L46.2386 133.338L96.5284 107.592L142.835 83.8861C142.835 83.8861 142.744 83.9081 142.614 83.94H142.619Z" fill="#231F20"/>
</g>
<defs>
<clipPath id="clip0_10_342434">
<rect width="185.004" height="200" fill="white" transform="translate(7)"/>
</clipPath>
</defs>
</svg>
