<?xml version="1.0" encoding="UTF-8"?>
<svg width="200px" height="200px" viewBox="0 0 200 200" version="1.1" xmlns="http://www.w3.org/2000/svg" xmlns:xlink="http://www.w3.org/1999/xlink">
    <!-- Generator: Sketch 54.1 (76490) - https://sketchapp.com -->
    <title>lincoln-mo</title>
    <desc>Created with Sketch.</desc>
    <g id="lincoln-mo" stroke="none" stroke-width="1" fill="none" fill-rule="evenodd">
        <g id="lincoln-mo_BGL" transform="translate(-0.000000, 0.000000)">
            <g id="lincoln-mo" transform="translate(4.000000, 0.000000)">
                <g id="g10" transform="translate(96.000000, 100.226084) scale(-1, 1) rotate(-180.000000) translate(-96.000000, -100.226084) translate(0.000000, 0.706853)" fill-rule="nonzero">
                    <g id="g12">
                        <path d="M191.264856,98.9320394 C190.297188,122.691051 177.258401,143.471252 165.282421,157.702021 L165.486783,166.961315 C165.837923,182.895425 156.057659,194.752362 155.641111,195.249196 L152.87581,198.548675 L134.570872,179.932288 C134.570872,179.932288 118.769601,188.401976 96.5495526,188.401976 C74.1210739,188.401976 57.2210059,179.932288 57.2210059,179.932288 L38.9160675,198.548675 L36.1507668,195.249196 C35.7342192,194.752362 25.9541431,182.895425 26.3052512,166.961315 L26.5095504,157.702334 C14.5337268,143.471566 1.49498676,122.691364 0.526893679,98.9320394 L0,86.0005621 L5.16919694,93.1204917 C5.82396856,84.0564834 8.93177093,71.8237083 19.0091575,60.0877673 L21.6149119,57.0528479 L25.6509803,60.6824008 C31.0756765,53.7941181 44.2613974,38.9216967 60.7615046,33.3982187 C62.6652307,26.5757626 65.470903,19.8160612 71.6083307,15.0316277 L76.837866,10.9554257 L77.1273526,12.7853736 C85.2902473,3.87869089 90.9065992,0 95.4541981,0 C95.6019145,0 95.7496309,0.004040687 95.8957824,0.0122445298 C96.042247,0.004040687 96.1899634,0 96.3376797,0 C100.885279,0 106.501318,3.87844013 114.663899,12.7847467 L114.953073,10.954454 L120.18386,15.0316277 C126.321601,19.816312 129.12696,26.5760134 131.030373,33.3982187 C147.530793,38.9216967 160.716671,53.7938047 166.141179,60.6824008 L170.177091,57.0525345 L172.783096,60.0877673 C182.859731,71.8237083 185.968034,84.0561699 186.622744,93.1201782 L191.791565,85.9999352 L191.264856,98.9320394" id="path14" fill="#FFFFFF"></path>
                        <polyline id="path16" fill="#182744" points="58.3758225 171.434389 37.4251335 187.720514 32.881916 172.217098 35.2363023 171.434389 35.705427 158.436458 22.5721266 141.498335 8.18802522 107.593252 13.0348437 110.517206 14.7547693 83.738635 23.1974175 66.5127562 26.6373001 71.2108941 43.6789818 52.7321158 65.8805656 39.4210384 69.867656 27.5195906 73.2291424 21.7255966 74.7973771 24.7010213 86.2059636 13.1123124 95.8141003 8.4145506 109.814609 16.7142808 116.996691 24.0743521 119.386129 21.2557828 124.130892 31.121559 126.387635 39.8909149 145.774784 50.6965068 161.253082 65.8864632 166.256661 71.6804571 170.477844 67.1393626 179.233482 84.3652414 179.233482 103.157166 180.640543 110.673936 182.516729 113.492568 173.91757 133.850539 160.315145 154.05178 157.188065 161.881696 156.875419 172.060682 158.912465 173.156851 156.719253 182.552813 152.028945 188.973414 135.143273 172.060682 116.996691 178.950845 94.0233522 181.613374 68.3820423 177.854989 58.3758225 171.434389"></polyline>
                        <path d="M50.716165,167.623029 C50.716165,167.623029 59.0148836,175.659515 58.2644093,171.76697 C58.1282724,171.05949 62.7738273,166.766029 61.6027368,164.766155 C58.6524778,159.727286 48.2124976,154.793113 47.8388252,152.13748 C44.4394708,127.991972 42.3241848,81.0497754 69.9180423,51.1660698 L63.3008493,39.1078919 L27.1706751,70.6319335 L22.5519408,67.8299149 L11.7841053,92.0384279 L13.0348437,111.456959 L9.72005061,111.20431 L17.751847,131.50147 L27.2624658,149.510372 L38.2069037,161.41182 L50.716165,167.623029" id="path18" fill="#EBF7FD"></path>
                        <path d="M137.599371,172.759384 C137.599371,172.759384 130.22607,168.753679 130.557806,164.766155 C131.032877,159.06087 141.080094,148.432383 144.941062,134.255216 C151.073796,111.736565 136.054921,78.8825132 127.482051,44.0285864 L136.92338,43.6492999 L164.845218,70.6319335 L169.463546,67.8299149 L180.231819,92.0384279 L178.981238,111.456959 L182.29578,111.20431 L174.264015,131.50147 L164.753522,149.510372 L153.809052,161.41182 L137.599371,172.759384" id="path20" fill="#EBF7FD"></path>
                        <polyline id="path22" fill="#EBF7FD" points="50.716165 167.623029 54.3108055 170.494636 39.4055345 187.981313 33.868361 178.585351 34.0451825 172.479778 34.8713928 164.595946 40.6044782 165.065822 50.716165 167.623029"></polyline>
                        <polyline id="path24" fill="#EBF7FD" points="140.720192 167.623029 137.125552 170.494636 152.030823 187.981313 157.567996 178.585351 157.391175 172.479778 156.564651 164.595946 150.831879 165.065822 140.720192 167.623029"></polyline>
                        <path d="M84.6424233,120.226315 C84.6424233,120.226315 94.3738656,114.588738 107.149142,120.226315 L115.130207,117.72083 L127.161894,111.874174 L134.726099,105.192775 L138.478471,100.912479 L140.562774,93.5004052 L134.934217,83.4254885 L126.178579,76.1698307 L113.879626,79.510687 L103.032173,79.9285291 L86.1536996,81.0015026 L74.7973771,77.8684702 L64.6299837,77.8684702 L56.964067,85.6519946 L51.6321943,93.708856 L55.8308446,102.060997 L63.3008493,111.03943 L74.7973771,117.72083 L84.6424233,120.226315" id="path26" fill="#EBF7FD"></path>
                        <path d="M138.851517,135.259855 C138.153933,136.790166 131.813395,153.263114 114.718667,153.263114 C118.362129,139.424484 103.032173,124.477459 96.26789,124.477459 C88.7597044,124.477459 73.5496119,139.424484 77.1930739,153.263114 C60.0980327,153.263114 53.757182,136.790166 53.0599107,135.259855 C68.5450936,125.494637 91.7925845,112.017739 96.3686626,115.946019 C100.841464,112.017739 123.36696,125.494637 138.851517,135.259855" id="path28" fill="#EBF7FD"></path>
                        <path d="M73.932673,108.873109 C73.932673,108.873109 66.4279299,104.018241 75.1053282,95.0921549 L72.0251914,97.0412489 L68.7729274,100.103439 L67.2097,103.940189 L69.867656,106.758821 L73.932673,108.873109" id="path30" fill="#CCCCC9"></path>
                        <path d="M57.4901502,95.1705198 C57.4901502,95.1705198 64.3692893,89.6366977 75.3137585,91.3074393 L69.9180423,92.45627 L62.3892014,97.7803875 L55.3013189,101.982632 L54.675715,97.6760053 L57.4901502,95.1705198" id="path32" fill="#CCCCC9"></path>
                        <path d="M54.675715,89.6373246 C54.675715,89.6373246 61.8681256,81.9121038 77.3986876,86.1923996 L69.9180423,86.713997 L61.9720278,90.3676863 L54.0504241,97.0497123 L51.2359889,96.4876786 L51.6321943,90.3676863 L54.675715,89.6373246" id="path34" fill="#CCCCC9"></path>
                        <path d="M88.160389,83.4254885 C87.9259831,83.5038535 83.3136018,85.930974 82.6879979,88.2800429 L81.0856508,87.6929324 C81.0856508,87.6929324 75.3137585,97.9499693 79.1506288,102.810166 L79.1506288,98.6938098 L81.2026972,93.9959854 L85.5806727,92.5866694 L93.9454255,85.304681 L88.160389,83.4254885" id="path36" fill="#CCCCC9"></path>
                        <path d="M117.866716,108.873109 C117.866716,108.873109 125.371146,104.018241 116.694061,95.0921549 L119.773885,97.0412489 L123.026149,100.103439 L124.589689,103.940189 L121.931733,106.758821 L117.866716,108.873109" id="path38" fill="#CCCCC9"></path>
                        <path d="M134.309552,95.1705198 C134.309552,95.1705198 127.4301,89.6366977 116.48563,91.3074393 L121.88166,92.45627 L129.409875,97.7803875 L136.498383,101.982632 L137.123674,97.6760053 L134.309552,95.1705198" id="path40" fill="#CCCCC9"></path>
                        <path d="M137.123674,89.6373246 C137.123674,89.6373246 129.93095,81.9121038 114.400388,86.1923996 L121.88166,86.713997 L129.827048,90.3676863 L137.749278,97.0497123 L140.562774,96.4876786 L140.166882,90.3676863 L137.123674,89.6373246" id="path42" fill="#CCCCC9"></path>
                        <path d="M103.639,83.4254885 C103.873406,83.5038535 108.485787,85.930974 109.111078,88.2800429 L110.713738,87.6929324 C110.713738,87.6929324 116.48563,97.9499693 112.649073,102.810166 L112.649073,98.6938098 L110.596379,93.9959854 L106.218716,92.5866694 L97.8539633,85.304681 L103.639,83.4254885" id="path44" fill="#CCCCC9"></path>
                        <path d="M46.7611798,82.7966878 L46.7581798,82.7966878 L46.7581798,82.7966878 L46.7611798,82.7966878 Z M53.4016613,75.9261973 L53.4026613,75.9221973 L53.4016613,75.9261973 Z M34.1049576,135.184938 L34.1296813,132.388875 L32.385251,127.757191 L32.3846251,127.754996 L34.1296813,132.388875 L30.9637,129.883076 C30.9637,129.883076 28.2262839,124.141743 24.5520894,92.0384279 L44.0895832,77.8684702 L46.7581798,82.7966878 C50.7117836,76.5792094 59.3913726,73.4593424 59.4251721,63.8201351 C59.4498958,56.7657186 64.891304,42.3437391 64.891304,42.3437391 L62.678375,53.070966 L65.9559886,40.6739379 L70.1793625,24.49163 L73.3993918,24.49163 L79.1506288,39.8849592 L70.1793625,67.3998479 L61.2087222,80.7927382 L52.7610354,90.6548156 L52.7610354,96.4234193 L56.6047908,102.68729 L64.0641549,109.617263 L68.3329078,115.162683 C22.5721266,132.545292 75.3666485,170.912164 75.3666485,170.912164 C72.2677341,170.23321 64.0043798,164.568988 58.161446,160.354519 L60.0238616,162.604535 C61.3720865,163.093846 62.4286341,163.473759 62.4286341,163.473759 L61.8552943,164.816622 L62.4286341,165.509682 L61.4653481,165.730358 L34.1049576,135.184938 Z" id="path46" fill="#2F5A8D"></path>
                        <path d="M61.0763408,142.455642 C61.0763408,142.455642 68.1326144,147.539022 78.8889956,129.732615 L75.3137585,138.235217 L75.3137585,145.751987 L74.7973771,150.606541 L68.851167,147.787909 L61.0763408,142.455642" id="path48" fill="#2F5A8D"></path>
                        <path d="M147.589943,77.8553049 L147.316104,78.6602701 L157.967957,85.6936848 L147.589943,77.8553049 Z M145.296705,82.7966878 L145.296705,82.7966878 L145.294705,82.7966878 L145.296705,82.7966878 Z M138.653224,75.9261973 L138.651224,75.9221973 L138.653224,75.9261973 Z M161.089717,129.883076 L157.923517,132.388875 L161.089717,129.883076 Z M159.667947,127.757191 L157.923517,132.388875 L157.948554,135.184938 C158.200485,134.954545 153.912016,138.999119 159.975898,133.420158 L159.667947,127.757191 Z M133.892378,160.354519 C128.048818,164.568988 119.785464,170.23321 116.68655,170.912164 C116.68655,170.912164 169.481072,132.545292 123.721229,115.162683 L127.989356,109.617263 L135.448407,102.68729 L139.292476,96.4234193 L139.292476,90.6548156 L130.844476,80.7927382 L121.874149,67.3998479 L112.903195,39.8849592 L118.654432,24.49163 L121.874149,24.49163 L126.097835,40.6739379 L129.375136,53.070966 L130.97717,57.8662765 C130.97717,57.8662765 133.711175,60.1369805 133.735586,67.191397 C133.769385,76.8306043 141.821493,77.2080101 145.774784,83.4254885 L148.790451,77.161618 L167.500984,90.9933524 L159.193502,137.338408 L133.892378,160.354519 L133.892378,160.354519 Z" id="path50" fill="#2F5A8D"></path>
                        <path d="M130.97717,142.455642 C130.97717,142.455642 123.92121,147.539022 113.164516,129.732615 L116.739753,138.235217 L116.739753,145.751987 L117.255821,150.606541 L123.201718,147.787909 L130.97717,142.455642" id="path52" fill="#2F5A8D"></path>
                        <polyline id="path54" fill="#2F5A8D" points="72.4082525 35.4535757 119.766686 33.9922253 116.996691 24.0743521 105.910765 12.485988 95.3521737 9.5627231 85.8895626 13.4336088 77.8343257 21.6158856 72.4082525 26.4754868 72.4082525 35.4535757"></polyline>
                        <path d="M50.2980525,128.786907 C50.2980525,128.786907 31.3665713,114.449248 45.2290649,90.9594987 L35.705427,98.6938098 L36.2261898,107.593252 L39.770444,119.704404 L43.7309329,123.671554 L50.2980525,128.786907" id="path56" fill="#EBF7FD"></path>
                        <path d="M41.2294562,137.76534 C41.2294562,137.76534 14.3385033,107.350947 43.0017398,80.6852215 L42.4105613,79.4175894 L30.8061254,87.8622008 L24.5520894,92.0384279 L24.9693255,105.956364 L28.3043983,121.011219 L34.350004,132.545292 L41.2294562,137.76534" id="path58" fill="#EBF7FD"></path>
                        <path d="M141.494764,128.786907 C141.494764,128.786907 160.426558,114.449248 146.563439,90.9594987 L156.087077,98.6938098 L155.566314,107.593252 L152.02206,119.704404 L148.061258,123.671554 L141.494764,128.786907" id="path60" fill="#EBF7FD"></path>
                        <path d="M150.563048,137.76534 C150.563048,137.76534 177.453687,107.350947 148.790451,80.6852215 L149.381942,79.4175894 L160.986441,87.8622008 L167.240289,92.0384279 L166.823116,105.956364 L163.487918,121.011219 L157.4425,132.545292 L150.563048,137.76534" id="path62" fill="#EBF7FD"></path>
                        <path d="M62.7537979,121.011219 L60.6028347,123.638954 L60.9470889,123.828284 L58.3758225,129.732615 L53.0599107,135.259855 C53.0599107,135.259855 51.0087811,129.966143 53.2921258,125.158294 L52.2133581,125.036358 C52.2133581,125.036358 51.9485953,114.980249 67.9827073,115.332578 L67.9827073,117.016172 L62.7537979,121.011219" id="path64" fill="#CCCCC9"></path>
                        <path d="M129.096603,121.011219 L131.247566,123.638954 L130.903312,123.828284 L133.474579,129.732615 L138.79049,135.103438 C138.79049,135.103438 140.841933,129.966143 138.558275,125.158294 L139.637356,125.036358 C139.637356,125.036358 139.902119,114.980249 123.867694,115.332578 L123.867694,117.016172 L129.096603,121.011219" id="path66" fill="#CCCCC9"></path>
                        <polyline id="path68" fill="#182744" points="60.1737687 66.9042677 81.5676068 27.2058798 111.267049 27.2058798 132.653376 69.1364161 127.977151 46.0428802 124.589689 29.0856679 118.934217 21.7255966 116.996691 24.0743521 103.873406 11.8598204 93.3088681 9.9941067 80.1239295 19.290044 75.1053282 24.3881569 72.0251914 22.5086196 66.7665509 31.5914355 60.1737687 66.9042677"></polyline>
                        <path d="M74.4797243,26.1598326 C74.4797243,26.1598326 96.147401,4.12419274 117.215762,26.1604282 L116.996691,24.0743521 L95.3521737,7.99664578 L74.2716069,25.4087512 L74.4797243,26.1598326" id="path70" fill="#FFFFFF"></path>
                        <path d="M135.672486,73.9837609 C135.672486,73.9837609 122.337953,34.8811978 112.081679,26.6189887 L96.6043203,27.8340222 L96.6043203,27.9374954 L96.0816797,27.885461 L95.5587262,27.9374954 L95.5587262,27.8340222 L80.1239295,26.3046824 C69.867656,34.5667975 56.4905609,73.9837609 56.4905609,73.9837609 L50.2066687,79.4175894 L58.4280866,67.191397 L63.3008493,50.7159413 L68.6283406,30.4345175 L73.2291424,21.7255966 L75.1053282,24.720111 L80.1239295,20.5748537 L88.7597044,11.8640835 L95.5587262,9.06965058 L95.5587262,8.64024178 L96.0816797,8.85486781 L96.6043203,8.64024178 L96.6043203,9.06965058 L103.403655,11.8640835 L112.03943,20.5748537 L117.058031,24.720111 L118.934217,21.7255966 L123.534706,30.4345175 L128.862197,50.7159413 L133.735586,67.191397 L141.956378,79.4175894 L135.672486,73.9837609" id="path72" fill="#EBF7FD"></path>
                        <path d="M96.4478411,165.789915 C79.6432254,167.953102 68.0524971,156.693934 68.9801059,156.997676 C91.6564476,164.428558 96.4478411,155.515324 96.4478411,155.515324 C96.4478411,155.515324 101.239861,164.428558 123.915889,156.997676 C124.843811,156.693934 113.252457,167.953102 96.4478411,165.789915" id="path74" fill="#2F5A8D"></path>
                        <path d="M133.650461,171.434389 L133.222334,171.603343 C133.117806,171.929969 132.95319,172.289507 132.712212,172.686975 C130.161914,176.894548 98.6416797,181.02595 96.0973277,181.353202 L96.0973277,181.374517 C96.0973277,181.374517 96.0663448,181.370756 96.0131419,181.36386 C95.9602519,181.370756 95.928956,181.374517 95.928956,181.374517 L95.928956,181.353202 C93.384604,181.02595 61.8643701,176.894548 59.3140719,172.686975 C59.0730939,172.289507 58.9081648,171.929969 58.8039496,171.603343 L58.3758225,171.434389 L58.6765756,170.994918 C58.5823751,169.952663 59.2330156,169.337028 60.0592259,168.973728 L62.4286341,165.509682 L67.6631768,168.265308 L62.9371916,170.269885 C67.0920277,172.910785 79.156575,179.252707 96.0131419,179.265559 C112.869709,179.252707 124.934882,172.910785 129.089405,170.269885 L124.36342,168.265308 L129.59765,165.509682 L131.967058,168.973728 C132.792955,169.337028 133.443909,169.952663 133.350021,170.994918 L133.650461,171.434389" id="path76" fill="#EBF7FD"></path>
                        <path d="M50.716165,167.623029 C50.716165,167.623029 27.0982878,152.241235 20.8522009,128.786907 C11.6348555,94.1746575 23.7385226,77.115226 23.7385226,77.115226 L27.1584384,82.8512298 C27.1584384,82.8512298 27.7959661,79.2266923 31.6310212,75.0119096 C38.761779,67.1754105 51.6215537,54.9862064 62.2846733,52.2622393 L63.3008493,40.9676499 L47.7443118,48.0342913 L27.1706751,70.6319335 L21.7903564,67.9223856 L12.7222608,96.4876786 L12.7222608,112.083252 L10.6895958,115.323488 L20.441443,136.594254 L37.6354416,160.790542 L50.716165,167.623029" id="path78" fill="#CCCCC9"></path>
                        <path d="M141.168036,167.623029 C141.168036,167.623029 164.785756,152.241235 171.031781,128.786907 C180.249658,94.1746575 168.145365,77.115226 168.145365,77.115226 L164.725981,82.8512298 C164.725981,82.8512298 164.088485,79.2266923 160.252866,75.0119096 C153.122109,67.1754105 140.262334,54.9862064 129.599527,52.2622393 L128.583351,40.9676499 L144.139889,48.0342913 L164.713776,70.6319335 L170.093531,67.9223856 L179.161815,96.4876786 L179.161815,112.083252 L181.19448,115.323488 L171.443008,136.594254 L154.248133,160.790542 L141.168036,167.623029" id="path80" fill="#CCCCC9"></path>
                        <path d="M37.8175834,108.591622 C37.8175834,108.591622 37.6335639,103.476895 40.2248596,98.1982296 L39.0199697,97.0497123 L35.705427,100.103439 L36.0719013,104.954859 L37.8175834,108.591622" id="path82" fill="#CCCCC9"></path>
                        <path d="M27.110149,104.295653 C27.110149,104.295653 27.9661216,93.6047873 32.031295,89.9244539 L32.031295,87.8101664 L24.2138126,91.3337699 L27.110149,104.295653" id="path84" fill="#CCCCC9"></path>
                        <path d="M153.897307,108.5888 C153.897307,108.5888 154.081326,103.474074 151.49003,98.1954085 L152.695233,97.0468912 L156.009776,100.100618 L155.643302,104.952038 L153.897307,108.5888" id="path86" fill="#CCCCC9"></path>
                        <path d="M164.604866,104.292832 C164.604866,104.292832 163.748612,93.6019662 159.683908,89.9222597 L159.683908,87.8076588 L167.500984,91.3315757 L164.604866,104.292832" id="path88" fill="#CCCCC9"></path>
                        <path d="M74.2716069,28.1458836 C74.2716069,28.1458836 96.7864621,4.13829844 117.215762,27.9393135 L117.215762,23.8094784 L95.5587262,8.64024178 L75.1053282,24.720111 L74.2716069,28.1458836" id="path90" fill="#CCCCC9"></path>
                        <path d="M159.871683,138.644596 C151.536348,151.167948 142.246177,161.296466 137.60563,166.07391 L151.644006,182.042814 C154.711624,179.306309 156.768074,173.660581 156.768074,173.660581 L153.973981,174.211957 L158.098148,172.445924 L158.411106,179.342043 L154.237492,184.993099 L154.55139,185.35013 L153.53271,185.947898 L152.030823,187.981313 C152.030823,187.981313 151.649013,187.735874 151.128563,187.357841 L150.900104,187.492002 L149.414803,185.959496 C149.237669,185.791168 149.072427,185.62096 148.923145,185.451691 L130.607566,166.551309 L128.57584,165.288693 L137.75585,157.870036 L161.958177,133.942696 L159.871683,138.644596" id="path92" fill="#2F5A8D"></path>
                        <path d="M31.964009,138.644596 C40.2996567,151.167948 49.5898276,161.296466 54.2303752,166.07391 L40.191686,182.042814 C37.1243805,179.306309 35.0676177,173.660581 35.0676177,173.660581 L37.8620235,174.211957 L33.7375444,172.445924 L33.424586,179.342043 L37.5981995,184.993099 L37.2843022,185.35013 L38.3029819,185.947898 L39.8051824,187.981313 C39.8051824,187.981313 40.1869917,187.735874 40.7074415,187.357841 L40.9355882,187.492002 L42.4208889,185.959496 C42.5983363,185.791168 42.7632654,185.62096 42.9128596,185.451691 L61.2284386,166.551309 L63.2598517,165.288693 L54.0798422,157.870036 L29.8776403,133.942696 L31.964009,138.644596" id="path94" fill="#2F5A8D"></path>
                        <path d="M153.897307,100.912479 C153.897307,100.912479 146.649189,92.7741184 146.549356,90.8638934 C146.549356,90.8638934 154.00027,97.5108119 158.586363,97.2061288 C158.586363,97.2061288 160.82871,108.95116 153.511429,119.130146 L157.415585,118.660269 C157.415585,118.660269 149.624172,125.983007 141.494138,128.787847 C141.494138,128.787847 156.846627,116.572312 153.897307,100.912479" id="path96" fill="#100F0D"></path>
                        <path d="M169.181257,71.7324915 L165.154734,76.2738994 C153.220691,57.5236648 137.12962,48.4367739 129.785738,45.0495255 C132.2434,56.0610606 135.24561,68.2305168 144.907576,78.806029 L146.862001,73.6380146 C146.862001,73.6380146 159.265483,86.8970576 169.063272,89.6109939 C169.063272,89.6109939 170.783292,115.233838 161.089717,130.092154 L167.416172,126.69895 C167.416172,126.69895 156.04827,150.404673 131.450051,164.546733 L151.706598,184.743585 C155.420788,181.48799 156.710177,173.781263 156.710177,173.781263 L153.973981,174.211957 C154.764827,171.588297 155.04336,168.61513 155.093434,165.980812 C153.116475,171.8422 149.727449,177.018991 149.727449,177.018991 C149.727449,177.018991 142.390764,169.794993 141.075713,167.623029 C145.482793,165.04294 155.68649,155.386179 155.916827,155.168011 C174.301883,134.600962 179.147731,115.371761 179.147731,115.371761 L174.327546,121.374519 C181.831976,90.4723819 169.181257,71.7324915 169.181257,71.7324915 Z M118.653806,24.7010213 C117.891753,26.7493881 117.850129,27.1606789 117.311841,28.0675186 C108.21101,15.6645347 96.9113325,12.2478211 95.8957824,11.9606918 C94.8805453,12.2478211 83.5808683,15.6645347 74.4797243,28.0675186 C73.9417488,27.1606789 73.9004383,26.7493881 73.1380715,24.7010213 C67.5223455,29.0856679 68.225876,70.6626526 44.2263461,87.4970199 C43.9449965,86.0174889 42.9807715,80.6911772 42.9807715,80.6911772 C35.8669135,88.0778613 26.9498829,93.082563 26.9498829,93.082563 C25.0699417,122.201113 41.3020625,137.76534 41.3020625,137.76534 L37.9678035,136.930283 C48.4741308,155.304679 75.1053282,171.121242 75.1053282,171.121242 C71.3927024,169.917869 67.8969567,168.464669 64.6108933,166.831856 L60.9054655,170.600898 C71.0406241,178.235843 94.3572788,178.911349 95.8957824,178.94771 C97.4342861,178.911349 120.751254,178.235843 130.886099,170.600898 L127.180672,166.831856 C123.894921,168.464669 120.399175,169.917869 116.68655,171.121242 C116.68655,171.121242 143.317747,155.304679 153.824387,136.930283 L150.489815,137.76534 C150.489815,137.76534 166.721717,122.201113 164.842089,93.082563 C164.842089,93.082563 155.925277,88.0778613 148.811419,80.6911772 C148.811419,80.6911772 147.846881,86.0174889 147.565532,87.4970199 C123.566002,70.6626526 124.269532,29.0856679 118.653806,24.7010213 Z M26.6373001,76.2738994 L22.6106205,71.7324915 C22.6106205,71.7324915 9.96015232,90.4723819 17.4649267,121.374519 L12.6440212,115.371761 C12.6440212,115.371761 17.4902137,134.600962 35.8750504,155.168011 C36.1053879,155.386179 46.3093974,165.04294 50.716165,167.623029 C49.4014266,169.794993 42.0647422,177.018991 42.0647422,177.018991 C42.0647422,177.018991 38.6754025,171.8422 36.6984441,165.980812 C36.7485174,168.61513 37.0273634,171.588297 37.8178964,174.211957 L35.0817008,173.781263 C35.0817008,173.781263 36.3710896,181.48799 40.0849672,184.743585 L60.3418273,164.546733 C35.7439209,150.404673 24.3756747,126.69895 24.3756747,126.69895 L30.7021919,130.092154 C21.008555,115.233838 22.7284806,89.6109939 22.7284806,89.6109939 C32.5263953,86.8970576 44.9298766,73.6380146 44.9298766,73.6380146 L46.884302,78.806029 C56.5465805,68.2305168 59.5484777,56.0610606 62.0064532,45.0495255 C54.6619448,48.4367739 38.5711873,57.5236648 26.6373001,76.2738994 Z M187.356318,98.7721748 C186.335135,123.840508 170.947595,145.634439 159.176289,158.762143 C159.649483,164.326057 158.761932,170.179608 158.761932,170.179608 L161.575742,167.047516 C161.898402,181.689858 152.64516,192.729918 152.64516,192.729918 L135.235283,175.023819 C132.230256,176.948776 119.207117,184.343924 95.9777776,184.739197 L95.9777776,184.743585 C95.9499243,184.742958 95.9233228,184.742018 95.8957824,184.741391 C95.8685551,184.742018 95.8419536,184.742958 95.8141003,184.743585 L95.8141003,184.739197 C72.585074,184.343924 59.561622,176.948776 56.5565952,175.023819 L39.1467178,192.729918 C39.1467178,192.729918 29.8936325,181.689858 30.2163865,167.047516 L33.0299454,170.179608 C33.0299454,170.179608 32.1423953,164.326057 32.6155884,158.762143 C20.8442518,145.634439 5.45708739,123.840508 4.43568497,98.7721748 L9.8556242,106.237537 C9.8556242,106.237537 4.04695931,83.5223476 21.9750645,62.642466 L26.220283,66.4604083 C26.220283,66.4604083 42.699109,42.4393444 63.9818468,36.5068012 C65.9065411,28.9755807 68.4267954,22.476678 74.0109126,18.123973 C74.2462573,19.6115599 74.7973771,21.3341478 74.7973771,21.3341478 C75.385113,20.9481845 89.2194403,3.15933162 95.8957824,3.94335768 C102.572125,3.15933162 116.407078,20.9481845 116.994188,21.3341478 C116.994188,21.3341478 117.545933,19.6115599 117.780965,18.123973 C123.365082,22.476678 125.88565,28.9755807 127.810031,36.5068012 C149.093082,42.4393444 165.571908,66.4604083 165.571908,66.4604083 L169.817189,62.642466 C187.744699,83.5223476 181.936504,106.237537 181.936504,106.237537 L187.356318,98.7721748 L187.356318,98.7721748 Z" id="path98" fill="#100F0D"></path>
                        <path d="M103.553249,100.912479 C103.553249,100.912479 108.24387,105.538522 107.149142,110.637575 L111.267049,111.874174 C111.267049,111.874174 107.931225,115.110648 103.032173,114.066513 C103.032173,114.066513 105.89856,107.972538 103.553249,100.912479" id="path100" fill="#100F0D"></path>
                        <path d="M137.011948,105.819068 L139.357258,105.505922 C137.453845,108.798192 130.001366,112.615821 123.720603,115.371761 C123.72342,115.371761 133.729327,115.529431 137.637239,123.515137 L134.197513,123.515137 C134.197513,123.515137 139.930911,127.847467 138.731967,135.259855 C123.253356,141.001815 124.868848,126.751298 107.149142,120.226315 C107.149142,120.226315 107.4621,117.512065 112.152721,115.371761 C112.152721,115.371761 130.758099,108.220172 132.477806,104.044258 C132.477806,104.044258 125.911312,93.7612038 116.373904,91.2554049 C116.373904,91.2554049 127.982784,91.1770399 135.682813,99.0072698 C135.682813,99.0072698 135.223703,90.7353748 114.341552,86.0877039 C114.341552,86.0877039 128.569268,82.916743 138.26253,93.9179338 C138.26253,93.9179338 135.419302,83.589428 120.908046,82.7991955 C121.298931,82.0945375 124.035126,79.667417 124.035126,79.667417 C124.035126,79.667417 110.276535,79.7454685 101.677063,85.273335 C101.677063,85.273335 106.680017,86.5575804 108.087704,90.9422584 L110.120056,90.4723819 C110.120056,90.4723819 116.68655,96.4234193 112.621533,102.84402 C112.621533,102.84402 112.269767,98.2242468 109.02564,95.0137899 C109.02564,95.0137899 106.523851,98.7721748 101.677063,97.2061288 C101.677063,97.2061288 100.351059,93.9615048 95.8957824,93.9213819 C91.4408192,93.9615048 90.1148144,97.2061288 90.1148144,97.2061288 C85.2680272,98.7721748 82.7662375,95.0137899 82.7662375,95.0137899 C79.5221105,98.2242468 79.1703452,102.84402 79.1703452,102.84402 C75.1053282,96.4234193 81.6718219,90.4723819 81.6718219,90.4723819 L83.7044869,90.9422584 C85.111548,86.5575804 90.1148144,85.273335 90.1148144,85.273335 C81.5156557,79.7454685 67.7567514,79.667417 67.7567514,79.667417 C67.7567514,79.667417 70.4929469,82.0945375 70.883832,82.7991955 C56.3725756,83.589428 53.5290353,93.9179338 53.5290353,93.9179338 C63.2229226,82.916743 77.4506387,86.0877039 77.4506387,86.0877039 C56.5684876,90.7353748 56.1087517,99.0072698 56.1087517,99.0072698 C63.8090938,91.1770399 75.4179737,91.2554049 75.4179737,91.2554049 C65.8805656,93.7612038 59.3140719,104.044258 59.3140719,104.044258 C61.0337784,108.220172 79.6394699,115.371761 79.6394699,115.371761 C84.3297778,117.512065 84.6424233,120.226315 84.6424233,120.226315 C66.9230301,126.751298 68.5385215,141.001815 53.0599107,135.259855 C51.8615928,127.847467 57.5940523,123.515137 57.5940523,123.515137 L54.1546392,123.515137 C58.0625511,115.529431 68.068458,115.371761 68.0712746,115.371761 C61.7905119,112.615821 54.3377199,108.798192 52.4346197,105.505922 L54.7799302,105.819068 C54.7799302,105.819068 48.9948936,99.3984678 48.8387274,92.4873026 C54.1095732,83.7355004 72.4082525,57.0384288 73.1380715,53.9066503 C74.2356167,49.1972278 74.1367219,35.0467047 78.3885751,27.9895297 C81.1041153,23.4821949 88.6445357,26.3256216 95.8141003,25.9591242 C95.8141003,25.9573061 95.8141003,25.9528863 95.8141003,25.9516638 C95.8413277,25.9532625 95.868868,25.953858 95.8957824,25.9554567 C95.9230098,25.953858 95.9505502,25.9532625 95.9777776,25.9516638 C95.9777776,25.9528863 95.9777776,25.9573061 95.9777776,25.9591242 C103.147342,26.3256216 110.688075,23.4821949 113.403303,27.9895297 C117.655156,35.0467047 117.556261,49.1972278 118.653806,53.9066503 C119.383625,57.0384288 137.682618,83.7355004 142.95315,92.4873026 C142.796984,99.3984678 137.011948,105.819068 137.011948,105.819068" id="path102" fill="#100F0D"></path>
                        <path d="M116.68655,95.1705198 C116.68655,95.1705198 126.034618,100.336027 127.161894,104.044258 C127.161894,104.044258 125.246902,107.593252 117.780965,108.95116 C117.780965,108.95116 123.370716,104.918811 122.862158,103.509495 C122.862158,103.509495 121.650696,100.260169 116.68655,95.1705198" id="path104" fill="#100F0D"></path>
                        <path d="M118.978031,147.517707 C118.978031,147.517707 123.841405,146.302109 130.71585,142.455642 C132.15984,141.977302 121.174373,152.598266 114.599117,153.263114 C114.599117,153.263114 115.840623,139.242991 112.903195,129.732615 C112.903195,129.732615 119.152662,135.554194 118.978031,147.517707" id="path106" fill="#100F0D"></path>
                        <path d="M50.2980525,128.787847 C42.1680185,125.983007 34.3762925,118.660269 34.3762925,118.660269 L38.280136,119.130146 C30.9629489,108.95116 33.206141,97.2061288 33.206141,97.2061288 C37.7919208,97.5108119 45.2425221,90.8638934 45.2425221,90.8638934 C45.1423754,92.7741184 37.8942582,100.912479 37.8942582,100.912479 C34.944938,116.572312 50.2980525,128.787847 50.2980525,128.787847" id="path108" fill="#100F0D"></path>
                        <path d="M84.6424233,110.637575 C83.5480077,105.538522 88.2386286,100.912479 88.2386286,100.912479 C85.8933181,107.972538 88.7597044,114.066513 88.7597044,114.066513 C83.8606532,115.110648 80.5251422,111.874174 80.5251422,111.874174 L84.6424233,110.637575" id="path110" fill="#100F0D"></path>
                        <path d="M74.0109126,108.95116 C66.5449763,107.593252 64.6299837,104.044258 64.6299837,104.044258 C65.7575729,100.336027 75.1053282,95.1705198 75.1053282,95.1705198 C70.1411816,100.260169 68.9294066,103.509495 68.9294066,103.509495 C68.4211621,104.918811 74.0109126,108.95116 74.0109126,108.95116" id="path112" fill="#100F0D"></path>
                        <path d="M61.0763408,142.455642 C67.9507856,146.302109 72.8141595,147.517707 72.8141595,147.517707 C72.6389028,135.554194 78.8889956,129.732615 78.8889956,129.732615 C75.9512548,139.242991 77.1930739,153.263114 77.1930739,153.263114 C70.6175043,152.598266 59.6323506,141.977302 61.0763408,142.455642" id="path114" fill="#100F0D"></path>
                        <path d="M64.537661,129.061811 C63.7712258,128.206692 63.3008493,127.079804 63.3008493,125.84007 C63.3008493,123.173152 65.4593235,121.011219 68.1219738,121.011219 C69.7296413,121.011219 71.1492207,121.802078 72.0251914,123.013288 C69.5615826,124.928841 67.0106585,127.173215 64.537661,129.061811" id="path116" fill="#FEFEFE"></path>
                        <path d="M127.254217,129.061811 C128.020652,128.206692 128.491029,127.079804 128.491029,125.84007 C128.491029,123.173152 126.332554,121.011219 123.669904,121.011219 C122.062237,121.011219 120.64297,121.802078 119.766686,123.013288 C122.230295,124.928841 124.781219,127.173215 127.254217,129.061811" id="path118" fill="#FEFEFE"></path>
                        <path d="M107.336917,77.8985624 C104.053044,76.4836041 97.2008191,76.4422274 95.8976602,76.4472428 L95.8976602,76.4488101 C95.8976602,76.4488101 95.8579145,76.4481832 95.7884377,76.4478697 C95.7189609,76.4481832 95.6792152,76.4488101 95.6792152,76.4488101 L95.6792152,76.4472428 C94.3760563,76.4422274 87.5241445,76.4836041 84.2399588,77.8985624 C84.2399588,77.8985624 75.3206436,76.1353501 74.6947267,76.3704451 C74.6947267,76.3704451 76.2595189,63.4402216 81.9710102,60.383987 C81.9710102,60.383987 81.8536508,71.3159032 82.792526,73.0007505 C82.792526,73.0007505 83.7251422,69.8674047 95.6792152,69.8288491 L95.6792152,69.8269684 C95.7167702,69.8269684 95.7511957,69.8279087 95.7884377,69.8279087 C95.8256798,69.8279087 95.8601052,69.8269684 95.8976602,69.8269684 L95.8976602,69.8288491 C107.852046,69.8674047 108.784349,73.0007505 108.784349,73.0007505 C109.723225,71.3159032 109.605865,60.383987 109.605865,60.383987 C115.317357,63.4402216 116.882149,76.3704451 116.882149,76.3704451 C116.256232,76.1353501 107.336917,77.8985624 107.336917,77.8985624" id="path120" fill="#FEFEFE"></path>
                        <path d="M107.512486,44.9460838 C107.727489,41.0867647 106.378012,38.3634245 106.378012,38.3634245 C105.653826,36.6525601 96.6869413,36.3541462 95.778423,36.328129 C94.8702177,36.3541462 85.9030199,36.6525601 85.1788341,38.3634245 C85.1788341,38.3634245 83.8293573,41.0867647 84.0443598,44.9460838 C83.6531617,44.3191638 79.352487,37.9650169 80.1323794,35.6206499 C80.1323794,35.6206499 82.0379833,30.4914418 95.6983057,30.4504412 L95.6983057,30.4485918 C95.725846,30.4485918 95.7511957,30.4494381 95.778423,30.4494381 C95.8056504,30.4494381 95.831,30.4485918 95.8585404,30.4485918 L95.8585404,30.4504412 C109.518863,30.4914418 111.424467,35.6206499 111.424467,35.6206499 C112.204672,37.9650169 107.903684,44.3191638 107.512486,44.9460838" id="path122" fill="#FFFFFF"></path>
                    </g>
                </g>
            </g>
        </g>
    </g>
</svg>