<?xml version="1.0" encoding="UTF-8"?>
<svg width="200px" height="200px" viewBox="0 0 200 200" version="1.1" xmlns="http://www.w3.org/2000/svg" xmlns:xlink="http://www.w3.org/1999/xlink">
    <title>lock-haven_BGD</title>
    <defs>
        <polygon id="path-1" points="-2.10607624e-14 0 54.0044374 0 54.0044374 83.8471001 -2.10607624e-14 83.8471001"></polygon>
    </defs>
    <g id="lock-haven_BGD" stroke="none" stroke-width="1" fill="none" fill-rule="evenodd">
        <g id="lock-haven" transform="translate(0.000000, 20.000000)">
            <path d="M197.268638,89.6047454 C197.268638,106.749487 190.304629,119.278108 187.872635,129.81082 C184.16277,127.067232 190.717001,112.457855 157.937325,109.061808 C151.863639,108.433061 155.689843,117.061748 169.246615,154.554616 C160.17888,156.693541 148.221577,157.743551 132.465117,157.743551 C61.1488614,157.743551 3.33528466,119.945388 3.33528466,73.3180932 C3.33528466,42.9659654 28.7226475,3.35936747 100.039274,3.35936747 C129.449948,3.35936747 149.732866,13.9224607 160.594957,27.6681907 C164.216642,32.2502242 162.795014,39.6932961 162.942105,43.4746686 C168.836467,45.2341961 170.945751,50.6176316 170.175101,54.5108965 C180.680766,58.022171 197.268638,74.0720706 197.268638,89.6047454" id="Fill-1" fill="#FFFFFE"></path>
            <path d="M76.4822047,38.1079058 C67.2988714,38.1079058 68.4967136,44.0971167 59.7127846,44.0971167 C51.5757571,44.0971167 49.9514639,42.9570733 49.7562078,42.7884936 C50.0174137,43.0267282 55.3886225,47.8236545 63.3063112,47.8236545 C71.4248135,47.8236545 71.158791,43.8310942 74.219902,42.6332521 C77.2810131,41.4354099 84.0682915,40.9029944 86.0645716,42.2338478 C88.0608517,43.5647013 84.2013027,38.1079058 76.4822047,38.1079058" id="Fill-2" fill="#8D1231"></path>
            <path d="M72.2236219,55.1437188 C72.2236219,61.9309972 78.877889,65.5245237 85.3995154,65.5245237 C91.9207712,65.5245237 94.1830739,61.6649747 94.1830739,61.6649747 C94.1830739,61.6649747 90.9893221,63.6616253 87.3957955,63.6616253 C79.5433157,63.6616253 75.8167779,58.0714482 75.8167779,53.6794837 C75.8167779,49.2875192 78.611496,45.4279702 78.611496,45.4279702 C78.611496,45.4279702 72.2236219,48.35607 72.2236219,55.1437188" id="Fill-3" fill="#8D1231"></path>
            <path d="M100.039274,62.0640084 C98.0429934,63.6616253 91.6547488,67.1217701 87.1294025,67.1217701 C82.6044268,67.1217701 76.0831709,64.8594675 76.6152159,65.3915125 C77.1476314,65.9239279 80.2087424,67.1217701 83.1368423,68.0532193 C79.5433157,68.0532193 77.6800468,67.1217701 71.4248135,65.6579055 C75.2843625,68.4526235 81.9390001,70.4489037 86.4639758,70.4489037 C96.5787582,70.4489037 100.039274,62.0640084 100.039274,62.0640084" id="Fill-4" fill="#8D1231"></path>
            <path d="M98.8414313,82.8259887 C103.63243,82.8259887 109.888033,80.5636861 112.949145,77.9019792 C116.009885,75.2402724 112.017325,78.4343947 109.089225,78.4343947 C106.161496,78.4343947 102.035554,77.3699343 102.035554,73.643026 C102.035554,69.9168587 106.959934,65.1251195 106.959934,65.1251195 C106.959934,65.1251195 103.100385,65.1251195 99.2408356,69.9168587 C95.380916,74.7082274 93.7840401,78.1683722 89.9244911,78.7007877 C86.0645716,79.2328327 78.611496,79.7656186 74.4859245,86.552897 C74.4859245,86.552897 80.2087424,81.7615283 86.0645716,81.7615283 C91.9207712,81.7615283 94.0500626,82.8259887 98.8414313,82.8259887" id="Fill-5" fill="#8D1231"></path>
            <path d="M126.39106,48.8884855 C121.733073,45.8273744 115.211447,45.2945884 111.085876,45.2945884 C106.959934,45.2945884 103.233396,45.6939926 98.0429934,45.6939926 C89.1256827,45.6939926 88.3272447,42.6332521 87.661818,42.6332521 C86.9963913,42.6332521 84.4676957,44.8955547 84.4676957,46.2267786 C84.4676957,47.5572615 86.1979533,49.2875192 86.1979533,49.2875192 C85.1331224,49.2875192 83.1368423,52.215619 83.1368423,53.4134612 C83.1368423,54.6109329 84.3346844,57.5394032 87.661818,57.5394032 C92.319805,57.5394032 92.1867937,52.6146527 92.1867937,52.6146527 C92.1867937,52.6146527 97.1111737,58.8702566 106.560529,58.8702566 C116.009885,58.8702566 126.258049,50.3523501 126.39106,48.8884855" id="Fill-6" fill="#8D1231"></path>
            <path d="M132.646294,48.6220925 L137.038258,51.2841698 C137.038258,51.2841698 142.760706,42.6332521 153.00924,42.6332521 C157.667598,42.6332521 164.987662,44.8955547 166.451527,45.4279702 C167.915021,45.9603856 165.653089,42.6332521 155.93734,39.9711747 C146.221592,37.3094679 142.495054,41.7014324 132.646294,48.6220925" id="Fill-7" fill="#8D1231"></path>
            <g id="Group-11" transform="translate(145.995563, 54.211899)">
                <mask id="mask-2" fill="white">
                    <use xlink:href="#path-1"></use>
                </mask>
                <g id="Clip-9"></g>
                <path d="M2.08929783,15.1721736 C0.625062667,15.5715778 -0.306386526,17.834251 0.0926471972,19.4311269 C0.492051425,21.0283733 0.758814917,21.1613845 2.48833156,18.4996777 C4.21895971,15.8376003 7.14668903,17.1688242 10.6068338,15.1721736 C14.0677196,13.1758935 14.5993941,10.9132204 14.5993941,10.9132204 L12.337462,7.45307556 C10.6068338,10.2481641 3.553533,14.7731399 2.08929783,15.1721736" id="Fill-8" fill="#8D1231" mask="url(#mask-2)"></path>
                <path d="M50.952589,25.245089 C49.540595,22.1924995 44.1401163,13.6316144 40.4769348,9.73093938 C32.0724028,1.11040304 23.2506823,0 23.2506823,0 C29.638927,2.92809983 47.7399414,14.9061511 47.7399414,33.0067951 C47.7399414,51.106698 41.9163462,64.5167505 41.9163462,73.9661062 C41.9163462,81.4936533 46.409088,83.8471001 46.409088,83.8471001 C51.4661087,74.2647331 53.7558286,51.6383724 53.861793,46.8477447 C53.9232968,44.076739 54.2033985,39.7047817 53.7547171,35.3891412 C53.5009213,32.9464028 53.0259341,29.7289387 50.952589,25.245089" id="Fill-10" fill="#8D1231" mask="url(#mask-2)"></path>
            </g>
            <path d="M177.758223,150.165986 C175.904588,147.593942 172.180643,141.984869 168.580818,133.933057 C163.523427,122.620433 159.92953,114.901335 161.926181,113.703122 C163.922461,112.50565 164.189224,114.368919 166.850561,115.566761 C169.512267,116.764603 175.368467,118.761254 177.764522,118.893524 C180.160206,119.026906 182.954924,119.292929 184.152767,123.285489 C185.350609,127.27879 190.062319,135.868204 190.062319,135.868204 C190.062319,135.868204 188.145327,127.411431 184.951575,120.35813 C181.757082,113.304088 180.426229,112.771673 171.508548,109.444539 C162.591607,106.117406 159.131463,104.387148 157.134812,102.789902 C155.138902,101.193026 151.278983,100.394217 143.825907,97.9985328 C136.372461,95.6032189 108.823202,86.552897 107.359338,86.2868745 C105.895473,86.0204815 90.4569066,84.1572126 86.4639758,85.754459 C90.4569066,86.2868745 96.9781624,86.9519307 103.765811,88.4161659 C110.55346,89.8800305 140.232381,97.9985328 150.214522,103.322687 C147.552445,105.58462 143.426503,105.58462 141.430593,105.58462 C139.433943,105.58462 133.711125,104.65317 128.254329,100.927003 C122.797904,97.2000948 116.675312,92.2757149 108.690191,92.2757149 C100.7047,92.2757149 92.7192092,92.4090966 88.4602559,90.8118502 C84.2013027,89.2146038 81.1405621,87.2186942 81.1405621,87.2186942 C81.1405621,87.2186942 83.1368423,91.4772769 87.2624138,92.9411416 C91.3883558,94.4053768 98.1760046,94.4053768 103.100385,94.4053768 C108.024765,94.4053768 113.348178,94.9374217 115.876874,97.5994991 C118.405569,100.261206 120.934265,103.455699 114.812413,103.455699 C108.690191,103.455699 72.3566331,103.188935 54.7887752,117.164008 C62.7738957,115.566761 78.3454735,113.437099 83.9352802,113.437099 C89.5250869,113.437099 101.902542,116.49821 93.9170514,117.296648 C85.9315603,118.095457 71.8242177,120.091366 68.2306911,128.077228 C64.6371646,136.062719 63.7057154,139.256841 66.3674222,142.051559 C68.8961179,138.324651 72.4892739,133.667035 75.4173737,133.667035 C78.3454735,133.667035 80.7411579,135.928967 80.7411579,138.458403 C80.7411579,140.987099 77.5470356,146.310883 77.5470356,146.310883 C77.5470356,146.310883 86.0645716,136.461753 97.6435892,136.19573 C91.3883558,140.321302 87.2624138,145.644715 90.0571318,145.113041 C92.8522204,144.580255 96.179354,140.853717 100.438307,140.853717 C104.69726,140.853717 101.503138,142.184571 99.6398693,144.314233 C97.97445,146.217886 94.4024127,150.03705 100.318264,153.96329 C95.4642796,153.101126 90.1890316,151.869938 84.4676957,150.126342 C63.7016399,143.794785 33.3624797,131.135005 17.6827145,106.609066 C16.9109529,104.148913 15.926151,100.237494 15.926151,96.2686457 C15.926151,89.7470193 17.5230269,84.8230098 18.5878578,82.5603367 C19.6523182,80.2976636 17.6560381,81.628517 16.3251847,84.0245719 C15.1899578,86.0682766 12.7038703,91.3068447 11.9965765,95.5294885 C10.6531259,92.131959 9.57940289,88.5443605 8.81208735,84.7637291 C9.12590496,82.8411794 9.87210173,80.40511 11.5341865,77.768968 C15.3937355,71.6467459 18.4548466,69.3840727 18.987262,68.5856348 C19.5196775,67.7871968 15.5267467,69.1180503 12.1996132,71.7801276 C10.6901764,72.9876029 9.01882906,74.6589503 7.64092152,76.1268905 C7.52124845,74.445169 7.45307556,72.7330661 7.45307556,70.9816897 C7.45307556,66.0210002 8.10701662,61.4093263 9.29485517,57.1148046 C11.0236308,54.3827019 13.9698854,50.8621648 18.987262,47.0252166 C30.2998866,38.3742988 36.0227045,39.0397255 36.0227045,37.7088721 C36.0227045,36.3780187 27.5051685,38.1079058 18.4548466,42.7662633 C17.0535972,43.4872657 15.7546072,44.191225 14.5482434,44.9051878 C31.7915392,16.2581233 76.167646,6.38824462 99.0192737,6.38824462 C127.766745,6.38824462 162.547517,19.520048 162.547517,38.6851524 C162.547517,42.2338478 164.321865,40.104927 164.321865,33.3617387 C164.321865,26.6178094 146.931849,0 97.5994991,0 C48.2671488,0 0,27.3280672 0,71.6915769 C0,116.055087 51.8158443,160.77354 140.18755,160.77354 C154.652059,160.77354 170.172878,159.404525 182.531808,157.009581 L177.758223,150.165986" id="Fill-12" fill="#8D1231"></path>
        </g>
    </g>
</svg>