<?xml version="1.0" encoding="UTF-8"?>
<svg width="200px" height="200px" viewBox="0 0 200 200" version="1.1" xmlns="http://www.w3.org/2000/svg" xmlns:xlink="http://www.w3.org/1999/xlink">
    <!-- Generator: Sketch 54.1 (76490) - https://sketchapp.com -->
    <title>loras</title>
    <desc>Created with Sketch.</desc>
    <defs>
        <polygon id="path-1" points="0.0126984127 0.13037037 199.820741 0.13037037 199.820741 129.94709 0.0126984127 129.94709"></polygon>
    </defs>
    <g id="loras" stroke="none" stroke-width="1" fill="none" fill-rule="evenodd">
        <g id="loras_BGL" transform="translate(-0.000000, -0.000000)">
            <g id="loras" transform="translate(0.000000, 35.000000)">
                <g id="Group-3">
                    <mask id="mask-2" fill="white">
                        <use xlink:href="#path-1"></use>
                    </mask>
                    <g id="Clip-2"></g>
                    <path d="M189.798095,26.7295238 C195.603175,17.1964021 199.820741,0.13037037 199.820741,0.13037037 L190.415873,7.53375661 C187.159577,10.0969312 184.27873,12.0687831 181.928466,13.5413757 C181.953228,13.352381 181.976931,13.1707937 181.999153,12.9980952 L183.118942,4.27915344 L176.00127,9.4378836 C162.86455,18.9589418 150.86455,23.1870899 143.110899,25.0573545 C134.698836,27.0867725 129.32127,26.8598942 129.278942,26.8573545 L127.620952,26.7684656 L126.563598,27.7949206 C126.339259,27.7263492 126.119788,27.6675132 125.906667,27.6167196 C125.114921,26.3621164 123.898836,25.3346032 122.354497,24.6660317 L122.182011,24.5964021 C115.427302,22.0565079 109.267725,21.2808466 103.352381,22.2243386 C99.5108995,22.837037 96.2292063,24.1157672 93.5003175,25.487619 L89.6609524,27.6419048 C88.3219048,28.4649735 87.0107937,29.3695238 85.7608466,30.3329101 L85.7104762,30.3716402 C85.6192593,30.4421164 85.5299471,30.5121693 85.4368254,30.5851852 C84.1619048,31.5879365 82.5415873,33.1132275 81.0133333,34.6292063 C78.4859259,32.637672 75.9324868,30.3919577 73.3915344,27.925291 L72.2114286,26.7678307 L70.5532275,26.8567196 C70.4998942,26.8584127 65.1219048,27.0867725 56.7098413,25.0573545 C42.6624339,21.6687831 31.0702646,14.6929101 23.8194709,9.4378836 L16.7017989,4.27915344 L17.8215873,12.9980952 C17.8438095,13.1707937 17.8673016,13.352381 17.8922751,13.541164 C15.5417989,12.0683598 12.6607407,10.0965079 9.40486772,7.53375661 L0,0.13037037 C0,0.13037037 4.71978836,18.7161905 10.0228571,26.7295238 L1.28084656,21.4495238 C1.28084656,21.4495238 9.87767196,39.3470899 16.0725926,45.6283598 L9.06645503,43.7403175 C9.06645503,43.7403175 15.8182011,56.1100529 21.0416931,60.8019048 L20.3280423,64.0759788 L6.62730159,64.0833862 L15.5500529,78.3968254 L15.7062434,78.6455026 L9.42349206,109.94709 L22.1616931,108.465185 C26.4734392,107.960847 30.8465608,107.494815 35.1606349,107.08 C36.9392593,106.90836 38.6711111,106.381376 40.2679365,105.534392 C41.5528042,105.987302 42.9297354,106.221799 44.344127,106.221799 L44.4516402,106.220741 C44.7322751,106.21545 45.0359788,106.208042 45.3978836,106.179683 C48.5354497,105.929735 51.6926984,105.702222 54.7843386,105.503069 C55.08,105.48381 55.3769312,105.454815 55.6698413,105.416508 L61.6848677,105.09672 C63.525291,104.998942 65.3964021,104.907725 67.2478307,104.82582 L70.0313228,104.701376 L70.4300529,104.687619 L66.9303704,114.034709 L80.4759788,114.034709 L99.9102646,129.94709 L119.344762,114.034709 L132.89037,114.034709 L129.627937,105.32127 C130.945608,105.401905 132.30836,105.490159 133.687196,105.584127 L138.100952,105.892487 L140.693122,106.106878 C142.592593,106.259894 144.525079,106.425608 146.438095,106.6 L151.650159,107.073016 C151.919365,107.117249 152.169312,107.151111 152.409101,107.17545 C155.150899,107.45418 157.933545,107.758519 160.671746,108.077884 C161.170794,108.137566 161.678095,108.167619 162.180106,108.167619 C165.010794,108.167619 167.719365,107.226878 170.015238,105.445291 C172.567407,103.462011 174.247831,100.755344 174.875556,97.6173545 L176.340106,90.2891005 C176.542011,89.2734392 177.078519,86.5885714 177.339259,85.2842328 L178.106878,81.442963 C178.569524,80.994709 179.032381,80.544127 179.491217,80.0960847 L195.875344,64.0865608 L178.879577,64.0772487 L179.827302,59.7295238 C184.412698,55.3269841 190.755979,43.7398942 190.755979,43.7398942 L183.747937,45.6285714 C189.340317,40.1760847 198.539894,21.4495238 198.539894,21.4495238 L189.798095,26.7295238" id="Fill-1" fill="#C9B281" mask="url(#mask-2)"></path>
                </g>
                <path d="M188.31619,32.0630688 C185.990476,33.4675132 179.278519,35.7348148 179.278519,35.7348148 C188.822222,23.7722751 192.765714,10.5189418 192.765714,10.5189418 C183.193862,18.0537566 176.736508,20.6952381 176.736508,20.6952381 C177.38328,19.1136508 178.230899,12.5140741 178.230899,12.5140741 C151.544127,31.8556614 129.075767,30.6512169 129.075767,30.6512169 C128.480423,31.2289947 127.892698,31.786455 127.310899,32.327619 C125.390688,30.9693122 123.145397,31.1159788 123.145397,31.1159788 C123.080212,29.2757672 121.443386,28.4114286 120.845079,28.1525926 C107.449735,23.1161905 98.8442328,26.5233862 91.88,30.7386243 L91.8797884,30.7384127 L91.8783069,30.7396825 C90.4408466,31.6097354 89.1703704,32.5015873 88.0787302,33.3432804 C88.0632804,33.3549206 88.0478307,33.3669841 88.0325926,33.3786243 C87.9492063,33.4431746 87.8673016,33.5073016 87.7858201,33.5712169 C85.9221164,35.0374603 83.1081481,37.8785185 81.3828571,39.6700529 C78.1580952,37.3362963 74.5911111,34.3847619 70.7449735,30.6512169 C70.7449735,30.6512169 48.2768254,31.8556614 21.5898413,12.5140741 C21.5898413,12.5140741 22.4374603,19.1136508 23.0842328,20.6952381 C23.0842328,20.6952381 16.6270899,18.0537566 7.05502646,10.5189418 C7.05502646,10.5189418 10.9985185,23.7722751 20.5424339,35.7348148 C20.5424339,35.7348148 13.8302646,33.4675132 11.5045503,32.0630688 C11.5045503,32.0630688 18.7782011,45.1913228 27.1045503,51.5003175 C27.1045503,51.5003175 23.6182011,51.5964021 17.0004233,49.8133333 C17.0004233,49.8133333 19.7047619,54.4556614 25.2067725,59.5337566 L23.3885714,67.8734392 L13.4704762,67.8789418 L18.7741799,76.3868783 L19.7297354,77.906455 L14.1773545,105.569312 L21.7204233,104.69164 C26.0560847,104.18455 30.4552381,103.715556 34.7957672,103.298201 C36.6656085,103.117884 38.4478307,102.397884 39.9908995,101.208254 C41.2575661,102.005926 42.733545,102.422646 44.344127,102.422646 L44.3625397,102.422646 L44.381164,102.422222 C44.6137566,102.417778 44.8431746,102.412275 45.095873,102.392381 C48.2465608,102.141376 51.4230688,101.912381 54.5377778,101.711746 C54.797037,101.695026 55.0548148,101.667937 55.3106878,101.631111 L61.4831746,101.303069 C63.3430688,101.204021 65.2253968,101.112169 67.0783069,101.030476 L69.8835979,100.905185 L72.9130159,100.800423 C73.9346032,100.765079 74.9591534,100.732275 75.9792593,100.702222 L72.4097354,110.235556 L88.2954497,110.235556 L86.6319577,114.164656 L99.9104762,125.036825 L113.188783,114.164656 L111.525291,110.235556 L127.411005,110.235556 L124.028148,101.200635 L126.067937,101.301376 L128.995344,101.476825 C130.589206,101.571852 132.257989,101.67873 133.951958,101.794074 L136.931852,102.002116 L136.977989,101.942434 L136.988783,101.98836 L140.998095,102.319788 C142.914286,102.474286 144.860106,102.64127 146.781587,102.816296 L152.139683,103.302857 C152.354921,103.340529 152.572275,103.373122 152.793862,103.395556 C155.552381,103.676402 158.355767,103.982646 161.12127,104.305397 C161.471111,104.34709 161.827302,104.368254 162.179894,104.368254 C164.159788,104.368254 166.062646,103.703492 167.68381,102.445291 C169.505608,101.02963 170.703915,99.1026455 171.149841,96.8728042 L172.613757,89.5477249 C172.885503,88.1820106 173.761058,83.802328 173.76127,83.8019048 L174.613545,79.5356614 C175.35746,78.8184127 176.103069,78.0948148 176.835979,77.378836 L186.55619,67.8806349 L174.163386,67.8740741 L176.346032,57.861164 C180.683598,53.4804233 182.820317,49.8133333 182.820317,49.8133333 C176.20254,51.5964021 172.716402,51.5003175 172.716402,51.5003175 C181.04254,45.1913228 188.31619,32.0630688 188.31619,32.0630688" id="Fill-4" fill="#3B2B66"></path>
                <polyline id="Fill-5" fill="#9B8967" points="99.9104762 119.45672 91.4012698 112.548995 94.8366138 101.81672 99.9104762 101.81672 99.9068783 107.265185 97.6899471 109.751958 99.1377778 111.44381 97.5720635 112.883386 99.9104762 119.45672"></polyline>
                <polyline id="Fill-6" fill="#C9B281" points="94.7542857 115.270899 91.4012698 112.548995 94.8366138 101.81672 96.8840212 101.81672 94.7542857 115.270899"></polyline>
                <path d="M84.1140741,100.515767 C83.0797884,100.532487 82.0444444,100.551746 81.0162963,100.573333 L79.9684656,100.595767 L77.6548148,107.114921 L84.1540741,107.080635 L83.042963,105.318942 L85.1843386,103.572063 L84.1140741,100.515767" id="Fill-7" fill="#9B8967"></path>
                <path d="M81.0162963,100.573333 L79.9684656,100.595767 L77.6548148,107.114921 L80.0990476,107.080635 L81.6042328,100.561693 C81.408254,100.565503 81.2118519,100.569312 81.0162963,100.573333" id="Fill-8" fill="#C9B281"></path>
                <path d="M23.6182011,43.317037 C23.6182011,43.317037 36.2573545,49.8848677 59.0893122,51.162328 C59.0893122,51.162328 47.3597884,52.4397884 39.4598942,51.7149206 L37.8162963,53.4419048 L36.4414815,51.162328 L35.4287831,52.5432804 C35.4287831,52.5432804 28.6628571,48.722328 23.6182011,43.317037" id="Fill-9" fill="#9B8967"></path>
                <path d="M23.6182011,43.317037 C23.6182011,43.317037 36.2573545,49.8848677 59.0893122,51.162328 C59.0893122,51.162328 35.1310053,53.4419048 23.6182011,43.317037" id="Fill-10" fill="#C9B281"></path>
                <path d="M19.0772487,25.5832804 C19.0772487,25.5832804 35.1310053,38.165291 57.8093122,43.5843386 C57.8093122,43.5843386 49.0258201,43.2888889 39.6038095,41.1542857 L37.4116402,43.5843386 L33.381164,39.1409524 L32.3665608,41.1136508 C32.3665608,41.1136508 23.8855026,33.2357672 19.0772487,25.5832804" id="Fill-11" fill="#9B8967"></path>
                <path d="M19.0772487,25.5832804 C19.0772487,25.5832804 35.1310053,38.165291 57.8093122,43.5843386 C57.8093122,43.5843386 32.6651852,42.3102646 19.0772487,25.5832804" id="Fill-12" fill="#C9B281"></path>
                <path d="M78.7794709,45.6497354 C72.8465608,41.3712169 69.3460317,37.5322751 69.3460317,37.5322751 C49.1993651,34.8501587 31.3157672,24.4774603 31.3157672,24.4774603 C41.967619,35.5168254 67.1367196,42.6124868 67.1367196,42.6124868 C70.9674074,44.8643386 74.2861376,46.5824339 77.1102646,47.893545 C77.5849735,47.1803175 78.138836,46.4224339 78.7794709,45.6497354" id="Fill-13" fill="#9B8967"></path>
                <path d="M78.7794709,45.6497354 C72.8465608,41.3712169 69.3460317,37.5322751 69.3460317,37.5322751 C49.1993651,34.8501587 31.3157672,24.4774603 31.3157672,24.4774603 C45.1911111,35.0979894 67.8110053,40.042963 67.8110053,40.042963 C71.3373545,42.9534392 74.7434921,45.2091005 77.7752381,46.9401058 C78.0831746,46.5180952 78.4175661,46.0863492 78.7794709,45.6497354" id="Fill-14" fill="#C9B281"></path>
                <path d="M78.7794709,45.6497354 C72.8465608,41.3712169 69.3460317,37.5322751 69.3460317,37.5322751 C49.1993651,34.8501587 31.3157672,24.4774603 31.3157672,24.4774603 C45.1911111,35.0979894 68.5132275,38.3934392 68.5132275,38.3934392 C72.1210582,41.3921693 75.5754497,43.8711111 78.608254,45.8584127 C78.6645503,45.7887831 78.7216931,45.7193651 78.7794709,45.6497354" id="Fill-15" fill="#FFFFFE"></path>
                <path d="M119.449524,100.98582 L117.114921,100.889524 C116.660317,100.871746 116.206138,100.854603 115.752593,100.837672 L115.595979,100.831958 L114.636614,103.572063 L116.777989,105.318942 L115.666878,107.080635 L122.165926,107.114921 L119.999365,101.010159 C119.816085,101.002116 119.633228,100.993651 119.449524,100.98582" id="Fill-16" fill="#9B8967"></path>
                <path d="M119.449524,100.98582 L118.303492,100.938413 L119.721693,107.080635 L122.165926,107.114921 L119.999365,101.010159 C119.816085,101.002116 119.633228,100.993651 119.449524,100.98582" id="Fill-17" fill="#C9B281"></path>
                <path d="M176.20254,43.317037 C176.20254,43.317037 163.563598,49.8848677 140.73164,51.162328 C140.73164,51.162328 152.461164,52.4397884 160.361058,51.7149206 L162.004444,53.4419048 L163.379259,51.162328 L164.392169,52.5432804 C164.392169,52.5432804 171.157884,48.722328 176.20254,43.317037" id="Fill-18" fill="#9B8967"></path>
                <path d="M176.20254,43.317037 C176.20254,43.317037 163.563598,49.8848677 140.73164,51.162328 C140.73164,51.162328 164.689735,53.4419048 176.20254,43.317037" id="Fill-19" fill="#C9B281"></path>
                <path d="M180.743492,25.5832804 C180.743492,25.5832804 164.689735,38.165291 142.011429,43.5843386 C142.011429,43.5843386 150.794921,43.2888889 160.216931,41.1542857 L162.409101,43.5843386 L166.439365,39.1409524 L167.45418,41.1136508 C167.45418,41.1136508 175.935238,33.2357672 180.743492,25.5832804" id="Fill-20" fill="#9B8967"></path>
                <path d="M180.743492,25.5832804 C180.743492,25.5832804 164.689735,38.165291 142.011429,43.5843386 C142.011429,43.5843386 167.155556,42.3102646 180.743492,25.5832804" id="Fill-21" fill="#C9B281"></path>
                <path d="M130.474709,37.5322751 C130.474709,37.5322751 130.307513,37.7155556 129.98582,38.045291 C130.039365,39.3496296 129.898413,40.8969312 129.488889,42.7365079 C127.843386,42.3138624 126.460529,42.215873 125.297778,42.3445503 C123.781587,43.6110053 121.962116,45.0289947 119.87873,46.471746 C119.593016,47.1695238 119.279788,48.1815873 119.173333,49.437037 C122.631111,48.0306878 127.116825,45.885291 132.684021,42.6124868 C132.684021,42.6124868 157.853122,35.5168254 168.504974,24.4774603 C168.504974,24.4774603 150.621376,34.8501587 130.474709,37.5322751" id="Fill-22" fill="#9B8967"></path>
                <path d="M125.297778,42.3445503 C123.781587,43.6110053 121.962116,45.0289947 119.87873,46.471746 C119.675344,46.9688889 119.459048,47.626455 119.311958,48.4175661 C122.091429,46.9997884 125.328042,45.0937566 128.765926,42.5697354 C127.434074,42.2916402 126.285714,42.2351323 125.297778,42.3445503" id="Fill-23" fill="#C9B281"></path>
                <path d="M130.474709,37.5322751 C130.474709,37.5322751 130.307513,37.7155556 129.98582,38.045291 C130.031111,39.1470899 129.935873,40.424127 129.658413,41.9028571 C130.434286,41.3142857 131.218836,40.695873 132.009947,40.042963 C132.009947,40.042963 154.62963,35.0979894 168.504974,24.4774603 C168.504974,24.4774603 150.621376,34.8501587 130.474709,37.5322751" id="Fill-24" fill="#C9B281"></path>
                <path d="M130.474709,37.5322751 C130.474709,37.5322751 130.307513,37.7155556 129.98582,38.045291 C130.004233,38.4962963 129.999577,38.9767196 129.968042,39.488254 C130.412063,39.1310053 130.858413,38.7667725 131.307513,38.3934392 C131.307513,38.3934392 154.62963,35.0979894 168.504974,24.4774603 C168.504974,24.4774603 150.621376,34.8501587 130.474709,37.5322751" id="Fill-25" fill="#FFFFFE"></path>
                <path d="M125.297778,42.3445503 C123.781587,43.6110053 121.962116,45.0289947 119.87873,46.471746 C119.836825,46.5737566 119.794921,46.6831746 119.752593,46.7985185 C121.751746,45.5339683 123.975026,44.034709 126.332487,42.2929101 C125.969735,42.2910053 125.62455,42.3083598 125.297778,42.3445503" id="Fill-26" fill="#FFFFFE"></path>
                <path d="M119.896085,32.7830688 C119.896085,32.7830688 120.474286,32.1720635 120.411005,31.2757672 C120.378201,30.8114286 120.088254,30.4033862 119.66709,30.2050794 C117.452487,29.1614815 106.084868,24.7259259 93.706455,32.7104762 C93.706455,32.7104762 96.9771429,32.0749206 100.236402,32.546455 C100.236402,32.546455 93.5826455,33.3028571 85.6962963,40.9449735 C85.6962963,40.9449735 94.1492063,36.341164 99.978836,35.6607407 C99.978836,35.6607407 89.6742857,40.1538624 84.8465608,46.8520635 C84.8465608,46.8520635 89.5506878,42.9646561 100.726138,39.0279365 C100.726138,39.0279365 85.7773545,47.1508995 81.4863492,55.8245503 C81.4863492,55.8245503 99.1779894,42.7483598 114.320847,44.4984127 C114.320847,44.4984127 113.14582,42.7873016 112.259259,40.8562963 C112.837249,40.2251852 113.703704,39.351746 114.790053,38.4639153 C110.530794,35.7826455 106.207619,34.8450794 106.207619,34.8450794 C107.625608,34.4332275 109.033016,34.1409524 110.342434,33.933545 C107.244021,32.7707937 104.297354,32.1557672 104.297354,32.1557672 C104.297354,32.1557672 110.294603,29.7085714 119.896085,32.7830688" id="Fill-27" fill="#C9B281"></path>
                <path d="M123.200847,35.9278307 C122.728466,35.9674074 122.329101,35.802328 122.308783,35.5589418 C122.288254,35.3155556 122.654603,35.0863492 123.126772,35.0465608 C123.599153,35.0069841 123.998307,35.1720635 124.018836,35.4154497 C124.039365,35.6586243 123.672804,35.8880423 123.200847,35.9278307 Z M122.672169,33.2937566 C122.672169,33.2937566 121.390688,34.6156614 120.602116,37.5466667 C119.395132,37.9731217 117.537354,38.8607407 115.559788,40.3373545 C115.559788,40.3373545 117.765079,39.3206349 120.324021,38.6110053 C123.300952,37.728254 125.478095,38.165291 125.478095,38.165291 C123.180952,38.3959788 121.450582,38.9265608 120.206984,39.4730159 C120.206772,39.4736508 120.206772,39.4740741 120.206561,39.474709 C119.592593,39.7445503 119.095661,40.0179894 118.709841,40.2617989 L119.192381,40.6091005 L120.956825,40.5925926 C122.304127,39.8069841 124.968889,38.6865608 127.905185,39.8334392 C127.905185,39.8334392 129.532063,32.8247619 122.672169,33.2937566 L122.672169,33.2937566 Z" id="Fill-28" fill="#C9B281"></path>
                <path d="M127.905185,39.8334392 C127.905185,39.8334392 129.532063,32.8247619 122.672169,33.2937566 C122.672169,33.2937566 122.401693,33.5733333 122.033228,34.1583069 C123.503069,33.9726984 127.867725,33.8808466 126.975661,39.5432804 C127.281693,39.6173545 127.591746,39.7111111 127.905185,39.8334392" id="Fill-29" fill="#FFFFFE"></path>
                <path d="M120.760847,39.8275132 C121.889947,38.962963 125.478095,38.165291 125.478095,38.165291 C123.180952,38.3959788 121.450582,38.9265608 120.206984,39.4730159 C120.206772,39.4736508 120.206772,39.4740741 120.206561,39.474709 C119.592593,39.7445503 119.095661,40.0179894 118.709841,40.2617989 L120.031958,41.213545 C120.031958,41.213545 122.740317,38.9765079 126.180317,39.3987302 L126.18455,39.3968254 C124.424127,38.8084656 120.760847,39.8275132 120.760847,39.8275132" id="Fill-30" fill="#9B8967"></path>
                <path d="M115.559788,40.3373545 C115.559788,40.3373545 116.035556,40.1180952 116.801058,39.8120635 C116.702646,39.7669841 116.597884,39.7235979 116.487196,39.6814815 C116.182434,39.8861376 115.873016,40.1034921 115.559788,40.3373545" id="Fill-31" fill="#9B8967"></path>
                <path d="M114.320847,44.4984127 C114.320847,44.4984127 113.14582,42.7873016 112.259259,40.8562963 C112.837249,40.2251852 113.703704,39.351746 114.790053,38.4639153 C110.530794,35.7826455 106.207619,34.8450794 106.207619,34.8450794 C107.625608,34.4332275 109.033016,34.1409524 110.342434,33.933545 C107.244021,32.7707937 104.297354,32.1557672 104.297354,32.1557672 L107.753228,33.7724868 L103.248042,35.0702646 C103.248042,35.0702646 106.038942,35.7502646 108.772063,36.5240212 C107.78963,36.6874074 106.005291,37.1396825 102.872381,38.3322751 C102.872381,38.3322751 106.180741,38.5974603 108.49291,39.3303704 C95.3401058,41.6304762 81.4863492,55.8245503 81.4863492,55.8245503 C81.4863492,55.8245503 99.1779894,42.7483598 114.320847,44.4984127" id="Fill-32" fill="#9B8967"></path>
                <path d="M115.559788,40.3373545 C115.559788,40.3373545 117.765079,39.3206349 120.324021,38.6110053 C123.300741,37.7284656 125.477884,38.165291 125.478095,38.165291 C123.630899,37.4055026 121.992169,37.3070899 120.604444,37.5382011 C120.60381,37.5409524 120.602963,37.5437037 120.602116,37.5466667 C119.395132,37.9731217 117.537354,38.8607407 115.559788,40.3373545" id="Fill-33" fill="#FFFFFE"></path>
                <path d="M120.360847,31.8719577 C120.403598,31.6929101 120.426243,31.4929101 120.411005,31.2757672 C120.378201,30.8114286 120.088254,30.4033862 119.66709,30.2050794 C117.452487,29.1614815 106.084868,24.7259259 93.706455,32.7104762 C93.706455,32.7104762 94.8040212,32.4977778 96.3602116,32.4099471 C99.9451852,30.6315344 109.353016,27.0857143 120.360847,31.8719577" id="Fill-34" fill="#FFFFFE"></path>
                <path d="M112.890159,33.6207407 C114.029841,34.487619 115.608889,35.3348148 116.565926,35.4025397 C117.523175,35.4700529 118.316825,34.3337566 118.316825,34.3337566 C114.929735,33.5115344 112.890159,33.6207407 112.890159,33.6207407" id="Fill-35" fill="#FFFFFE"></path>
                <path d="M52.6569312,91.5271958 C50.746455,91.632381 48.8063492,91.746455 46.8683598,91.8679365 C47.0548148,91.7559788 47.2366138,91.6279365 47.4129101,91.4833862 C48.1149206,90.9089947 48.549418,90.2287831 48.7049735,89.4622222 L52.005291,73.1765079 L45.9739683,73.1809524 L41.7487831,94.0486772 C41.5657143,94.9515344 41.7674074,95.7121693 42.3479365,96.3085714 C42.855873,96.8311111 43.5271958,97.0950265 44.346455,97.0948148 C44.4526984,97.0948148 44.5614815,97.0903704 44.6730159,97.0814815 C47.8446561,96.8289947 51.0478307,96.5978836 54.1936508,96.3951323 C55.173545,96.3318519 56.0814815,95.9674074 56.8926984,95.311746 C57.7096296,94.650582 58.2114286,93.8833862 58.3839153,93.0311111 L62.4088889,73.1710053 L56.3777778,73.1741799 L52.6569312,91.5271958" id="Fill-36" fill="#FFFFFE"></path>
                <path d="M77.002328,73.1648677 L75.2351323,81.9130159 C73.4334392,81.9386243 71.6308995,81.9674074 69.8281481,81.9997884 L71.6152381,73.1665608 L65.5843386,73.1691005 L60.9606349,95.9955556 L61.2002116,95.9826455 C63.072381,95.882963 64.9701587,95.7906878 66.8406349,95.7079365 L67.0565079,95.6982011 L68.3964021,89.0772487 C68.5458201,88.3382011 68.3714286,87.7096296 67.8783069,87.2088889 C67.7633862,87.0920635 67.6383069,86.9898413 67.5034921,86.9017989 C69.7701587,86.8385185 72.0353439,86.7830688 74.2607407,86.7360847 L72.4941799,95.4840212 L72.7284656,95.4757672 C74.5875132,95.4114286 76.4793651,95.3542857 78.3508995,95.3068783 L78.570582,95.301164 L82.9877249,73.3877249 L83.0315344,73.1633862 L77.002328,73.1648677 L77.002328,73.1648677 Z" id="Fill-37" fill="#FFFFFE"></path>
                <path d="M90.5726984,86.0734392 L93.9250794,78.165291 C93.9409524,80.7980952 93.9574603,83.4298413 93.9741799,86.0617989 C92.8408466,86.0639153 91.7070899,86.0675132 90.5726984,86.0734392 Z M88.5312169,73.1621164 L88.5513228,73.445291 C88.6380952,74.6696296 88.7257143,75.8922751 88.8131217,77.114709 C86.127619,83.0431746 83.4361905,88.9896296 80.7362963,94.9678307 L80.607619,95.2531217 L80.9028571,95.2469841 C82.805291,95.2065608 84.7168254,95.1748148 86.584127,95.1521693 L86.7631746,95.1498413 L87.6683598,92.9845503 C87.7197884,92.8789418 87.762963,92.7382011 87.8002116,92.5534392 C87.9246561,91.9326984 87.7826455,91.4112169 87.3775661,91.0033862 C87.3214815,90.9468783 87.2620106,90.8946032 87.1991534,90.8461376 C89.4617989,90.8237037 91.7377778,90.8112169 93.9877249,90.8091005 L94.034709,95.1083598 L94.2162963,95.1083598 C96.0910053,95.109418 97.9820106,95.1193651 99.8374603,95.1375661 L100.12381,95.1403175 L99.2956614,73.1616931 L88.5312169,73.1621164 L88.5312169,73.1621164 Z" id="Fill-38" fill="#FFFFFE"></path>
                <path d="M125.426032,73.3544974 C123.758942,77.8971429 122.096085,82.4179894 120.435979,86.9208466 C120.40254,82.3714286 120.364868,77.8471958 120.32381,73.3432804 L120.322328,73.1650794 L114.883598,73.1638095 L114.81037,73.3424339 C112.987937,77.8099471 111.167407,82.261164 109.348571,86.701164 C109.468571,82.2395767 109.586878,77.7896296 109.70455,73.3487831 L109.709418,73.1625397 L103.596614,73.1619048 L103.580741,74.2499471 C103.480847,81.1508995 103.380317,88.064127 103.277672,95.0006349 L103.275132,95.1813757 L103.458201,95.184127 C105.762963,95.2207407 108.097354,95.2713228 110.396825,95.3346032 L110.585608,95.3396825 L110.659471,95.1532275 C112.387937,90.7756614 114.118307,86.3858201 115.850582,81.9805291 C115.828148,86.4124868 115.80254,90.8617989 115.773545,95.3320635 L115.772275,95.5070899 L115.949418,95.5134392 C118.244021,95.5980952 120.567407,95.6973545 122.85545,95.8088889 L123.05037,95.8182011 L123.124021,95.6243386 C125.950265,88.1771429 128.770582,80.7108995 131.507302,73.4325926 L131.606349,73.1695238 L125.495026,73.1669841 L125.426032,73.3544974" id="Fill-39" fill="#FFFFFE"></path>
                <path d="M144.423069,83.4027513 C146.89291,80.1022222 149.350688,76.7750265 151.729524,73.5106878 L151.969312,73.1820106 L145.372063,73.1771429 L145.284868,73.2986243 C142.781164,76.7913228 140.181376,80.3714286 137.547937,83.9536508 L139.680212,73.1737566 L133.650794,73.1701587 L129.104127,96.1458201 L129.312593,96.1585185 C130.978201,96.2579894 132.663915,96.3661376 134.32254,96.4793651 L134.460741,96.4888889 L134.554921,96.3669841 C136.249947,94.178836 137.938201,91.9817989 139.579471,89.8298413 C140.158942,92.2040212 140.725291,94.5722751 141.264974,96.874709 L141.293968,96.9983069 L141.426032,97.0091005 C143.379048,97.1667725 145.342857,97.3354497 147.263492,97.5102646 L147.627302,97.5432804 L147.552593,97.2004233 C146.567196,92.6632804 145.514286,88.0215873 144.423069,83.4027513" id="Fill-40" fill="#FFFFFE"></path>
                <path d="M173.487831,73.2012698 L173.013122,73.2008466 C168.108995,73.1959788 163.205079,73.1911111 158.300741,73.1870899 C158.299683,73.1870899 158.299048,73.1870899 158.297778,73.1870899 C157.353439,73.1870899 156.457143,73.5157672 155.633862,74.1631746 C154.808466,74.813545 154.296296,75.615873 154.111111,76.5479365 L152.893968,82.6871958 C152.762116,83.3508995 152.839365,83.9822222 153.12254,84.5627513 C153.404021,85.1422222 153.843386,85.5769312 154.424974,85.8522751 C156.73164,87.0099471 159.008254,88.1974603 161.193651,89.3824339 L160.420106,93.2675132 C159.240635,93.1619048 158.060317,93.0590476 156.879365,92.9589418 L157.47873,89.9417989 L157.213333,89.9807407 C155.300106,90.2609524 153.387513,90.5373545 151.474921,90.8116402 L151.27746,90.84 L150.568466,94.4141799 C150.38963,95.317672 150.575238,96.1424339 151.121481,96.8656085 C151.666243,97.5875132 152.41037,98.0012698 153.332698,98.0950265 C156.133122,98.3801058 158.965503,98.6897354 161.751111,99.0152381 C161.89545,99.032381 162.038519,99.0406349 162.179894,99.0406349 C162.977989,99.0406349 163.727831,98.7720635 164.41418,98.2391534 C165.222857,97.6103704 165.731429,96.7993651 165.925503,95.8287831 L167.38836,88.5073016 C167.528677,87.8031746 167.462011,87.1318519 167.190688,86.512381 L167.190688,86.5121693 C166.91873,85.8931217 166.485926,85.4304762 165.907937,85.138836 C163.72,83.9731217 161.438519,82.8038095 159.12381,81.6628571 L159.242328,81.0668783 C159.403598,80.2546032 159.247619,79.5479365 158.778836,78.9657143 C158.650582,78.8065608 158.507513,78.6683598 158.350899,78.5515344 C160.010582,78.586455 161.66963,78.6230688 163.328677,78.6605291 L162.717884,81.7263492 L162.994286,81.6757672 C164.964868,81.3164021 166.914074,80.9532275 168.787937,80.5966138 L168.975873,80.5608466 L169.716825,76.8526984 C170.859048,75.7585185 172.001481,74.6537566 173.112804,73.5680423 L173.487831,73.2012698 L173.487831,73.2012698 Z" id="Fill-41" fill="#FFFFFE"></path>
                <path d="M30.0656085,79.1087831 C29.9303704,78.9466667 29.7798942,78.8080423 29.6141799,78.6931217 C31.6372487,78.6463492 33.6601058,78.6016931 35.682328,78.5593651 L32.792381,92.8751323 C31.2334392,93.0008466 29.6562963,93.1326984 28.0971429,93.2677249 L30.5267725,81.2046561 C30.6924868,80.3813757 30.5373545,79.6764021 30.0656085,79.1087831 Z M39.2774603,73.1862434 C39.2766138,73.1862434 39.2753439,73.1862434 39.2742857,73.1862434 C34.0302646,73.1906878 28.7860317,73.1953439 23.5417989,73.2008466 L23.0666667,73.2012698 L23.2952381,73.5680423 C23.9779894,74.6637037 24.6774603,75.768254 25.3754497,76.8526984 L20.8435979,99.4300529 L21.1009524,99.4 C25.4821164,98.887619 29.917672,98.4150265 34.2842328,97.9951323 C35.2689947,97.9003175 36.1849735,97.4880423 37.0067725,96.7703704 C37.829418,96.0507937 38.338836,95.2302646 38.5202116,94.3316402 L42.1204233,76.5348148 C42.3079365,75.607619 42.1227513,74.8084656 41.5699471,74.1597884 C41.0175661,73.5136508 40.2461376,73.1862434 39.2774603,73.1862434 L39.2774603,73.1862434 Z" id="Fill-42" fill="#FFFFFE"></path>
                <polyline id="Fill-43" fill="#C9B281" points="32.3936508 60.3587302 34.546455 60.3587302 33.2 66.24 36.9621164 66.24 36.5301587 68.1265608 30.6154497 68.1265608 32.3936508 60.3587302"></polyline>
                <path d="M47.1238095,64.2649735 L47.1288889,64.2427513 C47.3853968,63.1219048 46.7987302,62.1456085 45.6114286,62.1456085 C44.4353439,62.1456085 43.4287831,63.0996825 43.1722751,64.2203175 L43.1671958,64.2427513 C42.9106878,65.3633862 43.4973545,66.3398942 44.6734392,66.3398942 C45.8609524,66.3398942 46.8673016,65.3856085 47.1238095,64.2649735 Z M40.9538624,64.2649735 L40.9589418,64.2427513 C41.4696296,62.0122751 43.6814815,60.2035979 46.0780952,60.2035979 C48.4751323,60.2035979 49.8419048,61.9900529 49.3312169,64.2203175 L49.3261376,64.2427513 C48.8154497,66.4730159 46.6035979,68.2821164 44.2067725,68.2821164 C41.8099471,68.2821164 40.4433862,66.4952381 40.9538624,64.2649735 L40.9538624,64.2649735 Z" id="Fill-44" fill="#C9B281"></path>
                <path d="M57.384127,64.0871958 C58.1166138,64.0871958 58.6194709,63.7322751 58.7489947,63.1663492 L58.7540741,63.1439153 C58.8937566,62.5339683 58.5210582,62.2230688 57.7997884,62.2230688 L56.3904762,62.2230688 L55.9638095,64.0871958 L57.384127,64.0871958 Z M54.6647619,60.3587302 L58.3375661,60.3587302 C59.5250794,60.3587302 60.2749206,60.6696296 60.6744974,61.202328 C61.0279365,61.6459259 61.1238095,62.245291 60.9485714,63.0110053 L60.9434921,63.0330159 C60.6715344,64.2203175 59.8586243,65.0084656 58.7991534,65.418836 L60.0325926,68.1265608 L57.5470899,68.1265608 L56.5210582,65.7741799 L55.5777778,65.7741799 L55.0391534,68.1265608 L52.8863492,68.1265608 L54.6647619,60.3587302 L54.6647619,60.3587302 Z" id="Fill-45" fill="#C9B281"></path>
                <path d="M69.3337566,65.0639153 L68.973545,62.855873 L67.5913228,65.0639153 L69.3337566,65.0639153 Z M68.5369312,60.3032804 L70.6120635,60.3032804 L72.1280423,68.1265608 L69.8198942,68.1265608 L69.5714286,66.7394709 L66.5752381,66.7394709 L65.7030688,68.1265608 L63.4393651,68.1265608 L68.5369312,60.3032804 L68.5369312,60.3032804 Z" id="Fill-46" fill="#C9B281"></path>
                <path d="M75.7765079,66.9726984 L77.3028571,65.541164 C77.9286772,66.1515344 78.709418,66.4730159 79.6086772,66.4730159 C80.1853968,66.4730159 80.5417989,66.2734392 80.6179894,65.9405291 L80.6230688,65.9183069 C80.6967196,65.5964021 80.4821164,65.418836 79.4838095,65.1748148 C77.917037,64.7974603 76.7475132,64.3316402 77.1134392,62.733545 L77.1183069,62.7115344 C77.4486772,61.2687831 78.8302646,60.2256085 80.6946032,60.2256085 C82.0150265,60.2256085 82.9657143,60.5809524 83.6541799,61.2577778 L82.2298413,62.7777778 C81.6338624,62.2787302 80.9180952,62.0122751 80.2302646,62.0122751 C79.7085714,62.0122751 79.4025397,62.2340741 79.3390476,62.511746 L79.3339683,62.5339683 C79.2526984,62.8888889 79.4835979,63.0442328 80.504127,63.288254 C82.2014815,63.6768254 83.1792593,64.2537566 82.8465608,65.7075132 L82.8414815,65.7295238 C82.4780952,67.3166138 81.008254,68.2596825 79.1216931,68.2596825 C77.7458201,68.2596825 76.5354497,67.8270899 75.7765079,66.9726984" id="Fill-47" fill="#C9B281"></path>
                <path d="M93.6850794,64.2649735 L93.6901587,64.2427513 C94.208254,61.978836 96.357037,60.2035979 98.709418,60.2035979 C100.296296,60.2035979 101.164868,60.8692063 101.634286,61.8237037 L99.7271958,63.077672 C99.410582,62.5225397 98.9813757,62.167619 98.237672,62.167619 C97.1502646,62.167619 96.1737566,63.0884656 95.9144974,64.2203175 L95.9096296,64.2427513 C95.6427513,65.4080423 96.2002116,66.3178836 97.287619,66.3178836 C98.0975661,66.3178836 98.661164,65.9405291 99.2567196,65.3746032 L100.612698,66.5286772 C99.6493122,67.5386243 98.4916402,68.2821164 96.7714286,68.2821164 C94.5519577,68.2821164 93.1540741,66.584127 93.6850794,64.2649735" id="Fill-48" fill="#C9B281"></path>
                <path d="M111.062434,64.2649735 L111.067725,64.2427513 C111.324233,63.1219048 110.737566,62.1456085 109.550265,62.1456085 C108.37418,62.1456085 107.367619,63.0996825 107.110899,64.2203175 L107.106032,64.2427513 C106.849312,65.3633862 107.435979,66.3398942 108.612063,66.3398942 C109.799577,66.3398942 110.805926,65.3856085 111.062434,64.2649735 Z M104.892698,64.2649735 L104.897778,64.2427513 C105.408254,62.0122751 107.620317,60.2035979 110.016931,60.2035979 C112.413968,60.2035979 113.780529,61.9900529 113.270053,64.2203175 L113.264762,64.2427513 C112.754286,66.4730159 110.542434,68.2821164 108.145397,68.2821164 C105.748783,68.2821164 104.382222,66.4952381 104.892698,64.2649735 L104.892698,64.2649735 Z" id="Fill-49" fill="#C9B281"></path>
                <polyline id="Fill-50" fill="#C9B281" points="118.60381 60.3587302 120.756402 60.3587302 119.410159 66.24 123.172063 66.24 122.740106 68.1265608 116.825608 68.1265608 118.60381 60.3587302"></polyline>
                <polyline id="Fill-51" fill="#C9B281" points="128.768254 60.3587302 130.921058 60.3587302 129.574815 66.24 133.336508 66.24 132.904762 68.1265608 126.990053 68.1265608 128.768254 60.3587302"></polyline>
                <polyline id="Fill-52" fill="#C9B281" points="138.932698 60.3587302 145.180106 60.3587302 144.761058 62.1898413 140.644021 62.1898413 140.374815 63.3661376 144.10328 63.3661376 143.714709 65.0639153 139.986032 65.0639153 139.704127 66.2954497 143.876614 66.2954497 143.457354 68.1265608 137.154286 68.1265608 138.932698 60.3587302"></polyline>
                <path d="M148.447196,64.2649735 L148.452063,64.2427513 C148.97037,61.978836 151.152381,60.2035979 153.560423,60.2035979 C154.925291,60.2035979 155.794286,60.6251852 156.452698,61.3354497 L154.839577,62.855873 C154.391534,62.3896296 153.897778,62.1231746 153.131852,62.1231746 C152.011217,62.1231746 150.929524,63.066455 150.657778,64.2537566 L150.652698,64.2761905 C150.365714,65.5297354 151.036825,66.4287831 152.268148,66.4287831 C152.789841,66.4287831 153.214815,66.3178836 153.584762,66.1068783 L153.800847,65.1635979 L152.269418,65.1635979 L152.630053,63.5881481 L156.203386,63.5881481 L155.403386,67.0835979 C154.42709,67.7604233 153.164868,68.2821164 151.755344,68.2821164 C149.336085,68.2821164 147.908571,66.6173545 148.447196,64.2649735" id="Fill-53" fill="#C9B281"></path>
                <polyline id="Fill-54" fill="#C9B281" points="161.470053 60.3587302 167.717672 60.3587302 167.298413 62.1898413 163.181376 62.1898413 162.911958 63.3661376 166.640847 63.3661376 166.252063 65.0639153 162.523598 65.0639153 162.241481 66.2954497 166.413968 66.2954497 165.994709 68.1265608 159.691852 68.1265608 161.470053 60.3587302"></polyline>
            </g>
        </g>
    </g>
</svg>