<?xml version="1.0" encoding="UTF-8"?>
<svg width="200px" height="200px" viewBox="0 0 200 200" version="1.1" xmlns="http://www.w3.org/2000/svg" xmlns:xlink="http://www.w3.org/1999/xlink">
    <!-- Generator: Sketch 54.1 (76490) - https://sketchapp.com -->
    <title>lubbock-christian</title>
    <desc>Created with Sketch.</desc>
    <defs>
        <path d="M27.409961,0.0373946351 C27.409961,0.0373946351 26.2360147,5.33616845 14.0329498,5.68513396 C2.27432945,6.01984659 0.339463593,3.08306506 0.071264366,1.71961682 C0.071264366,1.71961682 3.74865891,4.94015313 13.9977008,4.50643667 C23.5540224,4.10114932 27.409961,0.0373946351 27.409961,0.0373946351 Z" id="path-1"></path>
        <path d="M0.0544061289,0.0400766274 C0.0544061289,0.0400766274 9.12490399,8.32183887 30.8015318,5.91034468 C30.8015318,5.91034468 28.9670491,5.40919527 27.9762445,5.13563206 C9.18237525,6.22375463 0.0544061289,0.0400766274 0.0544061289,0.0400766274 Z" id="path-3"></path>
        <path d="M0.0321839072,0.464291176 C0.0321839072,0.464291176 1.87739459,0.199616853 2.68352484,0.0344061294 C2.68352484,0.0344061294 5.10727957,1.23203062 9.80459746,0.861762431 C3.57931026,2.02375474 0.0321839072,0.464291176 0.0321839072,0.464291176 L0.0321839072,0.464291176 Z" id="path-5"></path>
        <path d="M40.9393093,0.186206892 C34.6443669,2.07049803 28.6868192,1.87739459 28.6868192,1.87739459 C31.3739456,3.36091946 35.8512635,3.97624511 35.8512635,3.97624511 C26.3072024,7.21915691 12.0636012,7.44674311 12.0636012,7.44674311 C15.6222985,9.31954 20.7973941,9.95632159 20.7973941,9.95632159 C15.4998464,11.2237545 10.5477392,11.036015 10.5477392,11.036015 C10.5477392,11.036015 15.0855935,12.5885054 24.2875856,13.1402296 L24.135555,13.29272 C24.135555,13.29272 9.97785416,13.8191567 0.0158620686,10.6957852 C0.0158620686,10.6957852 7.82390785,9.9371645 10.488199,9.14789249 C10.488199,9.14789249 7.82390785,7.39770096 7.05846726,6.11264353 C7.05846726,6.11264353 18.3327198,6.05440598 26.9818384,3.10498077 C26.9818384,3.10498077 24.2082753,2.11417619 22.7127964,0.362452098 C22.7127964,0.362452098 30.8408421,1.37624518 40.8560909,0.0628352475 L40.9393093,0.186206892 Z" id="path-7"></path>
        <path d="M0.0482758609,1.48812257 C5.97317993,1.26896549 11.2804595,0.692720289 15.5310341,0.071264366 C14.1731797,0.856704959 10.2375476,2.90038307 3.4613026,4.59693475 C2.54789266,3.5402298 1.40689652,2.43065128 0.0482758609,1.48812257 Z" id="path-9"></path>
    </defs>
    <g id="lubbock-christian" stroke="none" stroke-width="1" fill="none" fill-rule="evenodd">
        <g id="lubbock-christian_BGL">
            <g id="lubbock-christian" transform="translate(0.000000, 42.000000)">
                <g id="g10" transform="translate(99.999998, 57.961685) scale(-1, 1) rotate(-180.000000) translate(-99.999998, -57.961685) translate(0.000000, 0.490422)">
                    <g id="g12">
                        <path d="M54.7883511,56.0500369 L48.2881214,32.3907272 C48.2881214,32.3892712 48.2881214,32.3877387 48.2881214,32.3877387 C47.6619145,31.6819149 33.7299608,15.9701145 33.7299608,15.9701145 C33.7299608,15.9701145 62.4173931,15.9701145 67.0872014,15.9701145 C67.0683508,15.8944057 66.988734,15.6085054 66.988734,15.6085054 C66.5298834,13.9439843 66.3029868,12.3991568 66.3029868,10.9770112 C66.3029868,8.6054404 66.9375462,6.57477378 68.2049025,4.91199988 C71.9477377,0 79.794634,0 84.4812239,0 L110.721836,0 C110.721836,0 114.415323,13.4016089 115.131032,15.9937927 C115.946357,15.9815322 116.76015,15.9701145 116.76015,15.9701145 L125.756319,15.9701145 C134.38084,15.9701145 139.581606,17.2865896 143.701146,20.5181604 C146.783138,22.9334094 148.852104,26.1832177 150.02605,30.4451333 C150.02605,30.4451333 150.230648,31.1784667 150.561682,32.3907272 L156.862065,55.2283511 C156.863598,55.2358607 156.86513,55.2439833 156.867429,55.2493473 C157.493483,55.9542515 171.424517,71.6687338 171.424517,71.6687338 C171.424517,71.6687338 135.324135,71.6687338 130.472027,71.6687338 C131.507276,75.4253621 134.91264,87.7793082 134.91264,87.7793082 L132.092717,87.7793082 L107.512641,87.7793082 C101.337162,87.7793082 86.8758599,87.7793082 82.8873542,73.3088104 C82.8873542,73.3088104 82.629883,72.3745576 82.3869711,71.4852856 C79.4482739,71.4852856 49.5973934,71.4852856 49.5973934,71.4852856 C49.5973934,71.4852856 54.41065,57.1796921 54.7883511,56.0500369 C54.759922,55.9407649 54.5644431,55.2283511 54.5644431,55.2283511" id="path14" fill="#B2B2B1" fill-rule="nonzero"></path>
                        <path d="M65.6444428,82.9226033 C65.3137148,83.4911857 64.8183126,83.967814 64.1825271,84.3524883 C67.218006,85.146358 71.68973,86.2107258 74.7174694,86.4743273 C73.7805346,85.5816071 72.6185422,83.7409941 72.6185422,83.7409941 C72.6185422,83.7409941 74.9413008,84.2176224 78.7678141,84.3333312 C76.622067,82.8015305 72.1488871,80.1111091 65.8426037,78.9019137 C66.0575462,79.5103428 66.5882742,81.3019137 65.6444428,82.9226033 L65.6444428,82.9226033 Z M165.713406,82.5540209 C151.122602,82.5540209 142.070495,79.794634 138.571644,78.4758601 C137.121069,79.2168563 135.432181,79.9846723 133.534096,80.7685804 C144.542525,88.8298828 157.881222,93.2283502 173.224517,93.8352467 C185.395398,94.3195379 195.260532,92.1770092 199.77011,90.7287334 C195.793099,95.1931011 191.583903,99.1777753 179.593099,103.767813 C179.920302,104.30881 180.441375,105.349423 180.441375,105.349423 C180.441375,105.349423 162.926433,113.400763 130.836778,110.336396 C130.849805,110.331798 136.637544,109.128733 140.875859,107.725668 C134.626817,107.553254 124.797698,106.675093 115.150189,103.377009 C101.589269,108.283522 87.8812239,111.685821 74.5270479,113.422219 C63.9978528,114.794633 53.8236002,115.278924 44.3429874,114.454403 C21.4571642,112.462832 0,102.370112 0,102.370112 C0,102.370112 10.4983905,103.370112 30.3490414,102.295017 C28.8643671,100.720304 27.1162445,97.6996144 27.1162445,97.6996144 C27.1162445,97.6996144 38.5608419,98.9187715 49.3561673,97.1348635 C46.9588494,94.2758597 45.8940985,89.2743273 45.8940985,89.2743273 C45.8940985,89.2743273 56.6256691,93.6574689 70.4576994,91.9149402 C67.4682742,89.8030629 64.3258988,86.8689633 62.4847494,85.065132 C59.2833702,85.9716454 54.2501902,85.4773925 48.5285045,83.4045956 C50.9189259,83.1869711 54.0259757,82.6398447 55.6875848,81.1984654 C55.6875848,81.1984654 53.3740217,78.8835229 48.9077382,76.6104195 C44.6267422,74.4331016 41.305976,73.7987721 39.8144051,73.6665116 C40.4613017,75.4816073 42.1213783,78.0444425 43.734405,79.8168562 C37.5026811,77.9157069 32.2551716,74.3744043 32.2374705,70.5684274 C29.9940222,69.4408412 28.1824514,67.0458987 28.4135625,64.9904198 C28.7308805,62.1727954 31.3518,60.5163203 35.2984666,60.5459755 C40.9213017,60.5921058 52.0620677,62.6634467 58.9903434,70.0050557 C71.0203814,70.5684274 78.5601513,73.4991553 81.440611,74.853638 C91.0475073,72.349117 99.9287331,73.9895001 102.24904,74.5072778 C104.210725,74.0645958 110.881223,72.8113392 118.659001,74.0334847 C123.563982,72.8917989 133.396165,69.6069714 138.098081,66.9076612 C138.098081,66.9076612 143.426816,70.9294235 150.573943,72.5945576 C149.594632,67.4144044 158.284287,65.1268949 164.993099,64.2459754 C163.917237,64.9835233 161.101912,67.5035998 160.075858,69.3163201 C161.003061,69.6270481 163.577007,70.2861285 168.868195,70.3055921 C173.94559,70.3239063 177.176241,69.4441362 178.527965,68.9199983 C176.311107,66.992029 170.882754,65.352029 170.882754,65.352029 C170.882754,65.352029 181.687352,63.2229103 186.979306,68.301301 C189.829114,68.2920289 192.853635,69.6270481 193.950953,71.4014542 C195.147122,73.33632 194.842141,75.2532548 193.094248,76.7954004 C189.313405,80.132565 177.796164,82.5540209 165.713406,82.5540209 L165.713406,82.5540209 Z" id="path16" fill="#B2B2B1" fill-rule="nonzero"></path>
                        <path d="M165.713406,81.0796915 C150.002295,81.0796915 141.00536,77.8574693 138.441376,76.7800747 C136.344824,77.913408 133.641376,79.1210708 130.415322,80.3678141 C158.656701,102.65517 194.951719,93.4329479 194.951719,93.4329479 C194.951719,93.4329479 190.1908,98.4153232 177.183137,103.106511 C177.806126,104.003063 178.183904,104.716472 178.183904,104.716472 C178.183904,104.716472 164.254402,110.792334 140.213023,109.44061 C140.213023,109.44061 144.354019,108.397698 147.331797,106.244442 C147.331797,106.244442 130.647506,107.370112 115.045974,101.80153 C84.7823734,112.880457 59.9862054,114.104212 44.5091177,112.985438 C27.2084284,111.735629 8.71226032,104.245974 8.71226032,104.245974 C8.71226032,104.245974 24.4642139,104.967047 33.755708,103.313407 C31.9940988,101.977775 30.3355548,99.4398443 30.3355548,99.4398443 C30.3355548,99.4398443 40.9243668,100.298848 52.479309,98.1164726 C49.5193091,95.2950168 48.5003819,91.7555533 48.5003819,91.7555533 C48.5003819,91.7555533 59.4788491,95.4996145 74.6944043,92.7984651 C71.7508028,91.0973157 68.7907262,88.9915687 66.1547876,86.3954001 C66.1547876,86.3954001 72.8358602,88.2421434 79.9302662,88.1471242 C79.9302662,88.1471242 77.4467414,87.3432928 76.1452088,85.6398446 C76.1452088,85.6398446 85.1701128,86.8360132 94.1953999,84.0390784 C91.3325648,83.7992316 86.6904193,83.7946339 81.6007642,84.4927182 C81.6007642,84.4927182 74.6731016,78.0613007 62.715554,76.9586188 C63.5970099,77.9003812 65.0547876,80.4827566 63.9801517,82.2896531 C62.188964,85.2996147 55.1487343,83.6919519 54.0732554,83.4237527 C54.9329488,83.2091933 57.939079,82.3586186 57.6837533,81.0620669 C57.6218376,80.7348639 56.0557074,78.5011475 49.8985428,75.3672778 C44.0583131,72.3958603 39.8173936,72.0642128 38.790114,72.1818373 C38.5324128,72.2114158 38.1465891,72.3302664 37.9965508,72.6304963 C37.4634473,73.7084273 38.7970105,75.5555537 39.2343285,76.1173927 C37.9681217,75.5528717 33.5264359,73.3099599 34.1388497,69.8859753 C34.5929493,67.3524121 39.5219913,67.2868949 39.5219913,67.2868949 C38.1854397,66.6127953 36.3026811,66.2583891 35.3184665,66.4826037 C32.7499609,67.0609179 33.3752482,69.4070481 33.3752482,69.4070481 C31.4963211,68.537163 30.0616851,66.5837531 30.2475088,65.1416076 C30.5406123,62.8699601 32.6164743,61.9995387 35.2807654,62.0228337 C40.7216848,62.064213 51.6127956,64.1193854 58.0387725,71.4331783 C71.6250557,71.9288871 79.5425267,75.6100364 81.2099597,76.4658218 C92.0222199,73.3782357 102.253637,76.0440594 102.253637,76.0440594 C102.253637,76.0440594 109.842909,74.0334847 118.759384,75.5480441 C123.36015,74.5039828 132.659001,71.8465882 137.9272,68.8194619 C137.9272,68.8194619 144.223751,73.7009177 154.990801,74.851569 C153.260533,73.9062817 152.331797,72.9265116 152.331797,71.9288871 C152.331797,68.5934849 158.870494,66.9764734 159.960149,66.7435999 C159.377008,67.2916458 157.397697,69.2921055 158.477391,70.28314 C158.748655,70.5298067 161.558617,71.7525653 168.858233,71.7800748 C175.77854,71.803753 179.589268,70.2762435 180.37854,69.7396151 C180.57854,69.6036764 180.825283,69.3384657 180.750187,69.0214542 C180.485053,67.8804581 178.127199,66.8881976 177.380838,66.5990022 C178.826049,66.5370865 184.081988,66.5403815 185.843674,69.6983124 C187.148654,72.0386955 183.020685,74.1914924 183.020685,74.1914924 C184.601528,74.1914924 186.428348,73.6898066 187.114938,73.0833698 C188.903444,71.4966266 186.81149,69.7773163 186.81149,69.7773163 C188.979306,69.713868 191.495014,70.7543277 192.298079,72.0540212 C193.218386,73.5428334 192.867428,74.7967797 191.727198,75.8042893 C188.660532,78.508044 178.251337,81.0796915 165.713406,81.0796915" id="path18" fill="#282D74" fill-rule="nonzero"></path>
                        <path d="M190.11647,74.416933 C190.11647,74.416933 182.07739,78.8750938 168.596164,79.0835229 C145.009958,79.445975 138.117238,73.4350939 138.137161,72.134481 C138.137161,72.134481 147.078924,77.9931015 165.876624,76.9049789 C165.876624,76.9049789 155.31264,74.0011476 154.736395,71.9833698 C154.342525,70.606435 155.919536,70.0907262 155.919536,70.0907262 C155.919536,70.0907262 155.521835,70.8471247 156.455169,71.5379292 C157.14559,72.0507262 161.686586,73.6712625 168.226816,73.7852855 C174.767812,73.8972395 182.596164,71.574481 183.234478,69.28314 C183.234478,69.28314 184.443674,70.8925653 181.213789,72.8316457 C178.511873,74.4522587 173.702678,75.3609943 173.702678,75.3609943 C173.702678,75.3609943 180.004593,78.3609176 189.357083,73.6039062 C190.010723,73.2698832 190.096547,72.7960135 190.096547,72.7960135 C190.096547,72.7960135 191.473558,73.6386188 190.11647,74.416933" id="path20" fill="#FFFFFF" fill-rule="nonzero"></path>
                        <g id="g22" transform="translate(155.862065, 69.042144)">
                            <g id="g24-Clipped">
                                <mask id="mask-2" fill="white">
                                    <use xlink:href="#path-1"></use>
                                </mask>
                                <g id="path26"></g>
                                <g id="g24" mask="url(#mask-2)" fill="#B2B2B1" fill-rule="nonzero">
                                    <g transform="translate(-17.777777, 0.229885)" id="path30">
                                        <path d="M52.0321826,5.14490409 C52.0321826,5.14490409 43.9931023,9.60306489 30.5118766,9.81149401 C6.92567032,10.1739461 0.0329501907,4.16306503 0.0528735619,2.86245204 C0.0528735619,2.86245204 8.99463579,8.72107258 27.7923365,7.63295 C27.7923365,7.63295 17.2283521,4.72911866 16.6521069,2.71134093 C16.2582371,1.3344061 17.8352486,0.818697298 17.8352486,0.818697298 C17.8352486,0.818697298 17.4375475,1.57509575 18.3708808,2.26590033 C19.0613022,2.77869725 23.6022983,4.39923361 30.142528,4.51325659 C36.683524,4.62521061 44.5118763,2.30245205 45.1501904,0.0111111108 C45.1501904,0.0111111108 46.3593858,1.62053636 43.1295008,3.55961677 C40.4275852,5.18022976 35.6183899,6.08896537 35.6183899,6.08896537 C35.6183899,6.08896537 41.9203055,9.08888866 51.2727957,4.33187729 C51.9264355,3.99785431 52.0122592,3.52398459 52.0122592,3.52398459 C52.0122592,3.52398459 53.3892707,4.36658993 52.0321826,5.14490409"></path>
                                    </g>
                                </g>
                            </g>
                        </g>
                        <g id="g32" transform="translate(137.471261, 71.647508)">
                            <g id="g34-Clipped">
                                <mask id="mask-4" fill="white">
                                    <use xlink:href="#path-3"></use>
                                </mask>
                                <g id="path36"></g>
                                <g id="g34" mask="url(#mask-4)" fill="#B2B2B1" fill-rule="nonzero">
                                    <g transform="translate(0.613027, -2.375479)" id="path40">
                                        <path d="M52.0321826,5.14490409 C52.0321826,5.14490409 43.9931023,9.60306489 30.5118766,9.81149401 C6.92567032,10.1739461 0.0329501907,4.16306503 0.0528735619,2.86245204 C0.0528735619,2.86245204 8.99463579,8.72107258 27.7923365,7.63295 C27.7923365,7.63295 17.2283521,4.72911866 16.6521069,2.71134093 C16.2582371,1.3344061 17.8352486,0.818697298 17.8352486,0.818697298 C17.8352486,0.818697298 17.4375475,1.57509575 18.3708808,2.26590033 C19.0613022,2.77869725 23.6022983,4.39923361 30.142528,4.51325659 C36.683524,4.62521061 44.5118763,2.30245205 45.1501904,0.0111111108 C45.1501904,0.0111111108 46.3593858,1.62053636 43.1295008,3.55961677 C40.4275852,5.18022976 35.6183899,6.08896537 35.6183899,6.08896537 C35.6183899,6.08896537 41.9203055,9.08888866 51.2727957,4.33187729 C51.9264355,3.99785431 52.0122592,3.52398459 52.0122592,3.52398459 C52.0122592,3.52398459 53.3892707,4.36658993 52.0321826,5.14490409"></path>
                                    </g>
                                </g>
                            </g>
                        </g>
                        <g id="g42" transform="translate(171.417620, 75.249040)">
                            <g id="g44-Clipped">
                                <mask id="mask-6" fill="white">
                                    <use xlink:href="#path-5"></use>
                                </mask>
                                <g id="path46"></g>
                                <g id="g44" mask="url(#mask-6)" fill="#B2B2B1" fill-rule="nonzero">
                                    <g transform="translate(-33.333333, -5.977011)" id="path50">
                                        <path d="M52.0321826,5.14490409 C52.0321826,5.14490409 43.9931023,9.60306489 30.5118766,9.81149401 C6.92567032,10.1739461 0.0329501907,4.16306503 0.0528735619,2.86245204 C0.0528735619,2.86245204 8.99463579,8.72107258 27.7923365,7.63295 C27.7923365,7.63295 17.2283521,4.72911866 16.6521069,2.71134093 C16.2582371,1.3344061 17.8352486,0.818697298 17.8352486,0.818697298 C17.8352486,0.818697298 17.4375475,1.57509575 18.3708808,2.26590033 C19.0613022,2.77869725 23.6022983,4.39923361 30.142528,4.51325659 C36.683524,4.62521061 44.5118763,2.30245205 45.1501904,0.0111111108 C45.1501904,0.0111111108 46.3593858,1.62053636 43.1295008,3.55961677 C40.4275852,5.18022976 35.6183899,6.08896537 35.6183899,6.08896537 C35.6183899,6.08896537 41.9203055,9.08888866 51.2727957,4.33187729 C51.9264355,3.99785431 52.0122592,3.52398459 52.0122592,3.52398459 C52.0122592,3.52398459 53.3892707,4.36658993 52.0321826,5.14490409"></path>
                                    </g>
                                </g>
                            </g>
                        </g>
                        <path d="M61.091646,109.776242 C48.2504202,110.948656 35.5822213,107.724135 35.5822213,107.724135 C35.5822213,107.724135 40.645976,107.452871 45.9518762,106.183905 C45.9518762,106.183905 44.0906502,105.276626 42.1793859,103.311109 C42.1793859,103.311109 52.8316462,103.419155 62.388964,100.142526 C62.388964,100.142526 59.3842897,98.9409937 57.8822208,97.6298826 C57.8822208,97.6298826 69.4103431,98.895783 81.5670478,96.1647486 C86.4252852,98.2919516 95.7111087,101.024519 106.429116,100.271262 C106.429116,100.271262 90.9969326,107.045208 61.091646,109.776242" id="path52" fill="#ED1C24" fill-rule="nonzero"></path>
                        <g id="g54" transform="translate(34.559386, 96.934863)">
                            <g id="g56-Clipped">
                                <mask id="mask-8" fill="white">
                                    <use xlink:href="#path-7"></use>
                                </mask>
                                <g id="path58"></g>
                                <g id="g56" mask="url(#mask-8)" fill="#FFFFFF" fill-rule="nonzero">
                                    <g transform="translate(0.996169, -0.842912)" id="path62">
                                        <path d="M25.5360913,13.6842908 C12.6948656,14.8567046 0.026666666,11.6321836 0.026666666,11.6321836 C0.026666666,11.6321836 5.09042133,11.3609193 10.3963216,10.0919538 C10.3963216,10.0919538 8.53509557,9.1846741 6.62383125,7.21915691 C6.62383125,7.21915691 17.2760915,7.32720288 26.8334093,4.05057461 C26.8334093,4.05057461 23.828735,2.84904207 22.3266661,1.537931 C22.3266661,1.537931 33.8547884,2.80383135 46.0114931,0.072796933 C50.8697305,2.19999995 60.1555541,4.93256693 70.8735614,4.17931024 C70.8735614,4.17931024 55.4413779,10.9532564 25.5360913,13.6842908"></path>
                                    </g>
                                </g>
                            </g>
                        </g>
                        <path d="M105.952488,90.6137908 C113.138694,87.4559365 120.94789,88.5976989 120.94789,88.5976989 C117.704978,88.8727947 115.288886,90.7049786 115.288886,90.7049786 C124.334863,89.1241357 127.642909,92.4628329 127.642909,92.4628329 C109.517239,103.350955 83.2681972,92.4973157 83.2681972,92.4973157 C91.1593847,92.2835226 95.6842888,90.1570859 95.6842888,90.1570859 C93.3770092,89.7310322 91.2030629,88.5632162 91.2030629,88.5632162 C91.2030629,88.5632162 98.382373,86.73563 110.270495,86.757086 C107.750955,88.1471242 105.952488,90.6137908 105.952488,90.6137908" id="path64" fill="#ED1C24" fill-rule="nonzero"></path>
                        <path d="M170.569344,100.123369 C170.569344,100.123369 168.773942,100.325668 168.262065,101.013791 C167.514172,102.014557 169.547888,102.42835 169.547888,102.42835 L171.111873,101.980074 C171.111873,101.980074 170.240609,101.890419 169.989268,101.318771 C169.744057,100.746358 170.569344,100.123369 170.569344,100.123369" id="path66" fill="#FFFFFF" fill-rule="nonzero"></path>
                        <path d="M166.161682,102.003829 C166.358617,102.402296 166.829115,102.717239 167.462831,102.931032 C164.367812,103.725668 161.570111,104.437545 160.315705,104.757086 C164.906509,104.145591 168.795398,103.651338 172.413789,103.042909 C171.618387,103.665898 170.999229,104.107277 170.999229,104.107277 C170.999229,104.107277 172.830647,103.636779 174.583904,102.819155 C174.932563,103.2613 175.127965,103.533331 175.127965,103.533331 C165.662065,106.579308 154.293483,107.070495 154.293483,107.070495 C155.682755,105.911108 157.47126,103.137928 157.47126,103.137928 C133.179307,104.563216 127.168579,101.411492 120.48812,99.5126412 C124.399231,100.414557 131.384671,101.516473 139.909575,100.638312 C139.909575,100.638312 135.632181,99.9831393 128.390801,95.4965493 C128.390801,95.4965493 134.610725,97.6475071 145.251337,98.1325646 C145.251337,98.1325646 139.708042,95.7057447 135.556318,91.8459747 C142.167813,94.9195379 152.878923,97.9157064 169.668195,97.7915684 C170.229881,98.2452083 170.757084,98.7126412 171.247505,99.1793079 C170.795398,99.1854381 170.322601,99.2268174 169.847505,99.3088098 C167.619919,99.7003806 165.675858,101.006128 166.161682,102.003829" id="path68" fill="#ED1C24" fill-rule="nonzero"></path>
                        <path d="M101.289653,82.7976991 C95.8544037,81.0252853 88.7394614,80.9816072 84.9494232,81.1149405 C84.6176224,80.3501896 84.1340975,79.508044 83.5823734,78.8091934 C95.6651317,76.5179291 102.47586,79.4421436 102.47586,79.4421436 C113.022986,78.5164731 118.835246,81.3049788 122.8613,85.2796914 C114.462066,80.7555535 104.943292,82.1333313 101.289653,82.7976991" id="path70" fill="#ED1C24" fill-rule="nonzero"></path>
                        <path d="M172.078923,97.7333309 C178.003827,97.5141738 183.311107,96.9379286 187.561681,96.3164727 C186.203827,97.1019133 182.268195,99.1455914 175.49195,100.842143 C174.57854,99.7854381 173.437544,98.6758596 172.078923,97.7333309" id="path72" fill="#B2B2B1" fill-rule="nonzero"></path>
                        <g id="g74" transform="translate(172.030647, 96.245208)">
                            <g id="g76-Clipped">
                                <mask id="mask-10" fill="white">
                                    <use xlink:href="#path-9"></use>
                                </mask>
                                <g id="path78"></g>
                                <g id="g76" mask="url(#mask-10)" fill="#FFFFFF" fill-rule="nonzero">
                                    <g transform="translate(2.528736, -0.229885)" id="path82">
                                        <path d="M13.763218,0.0689655155 C12.3923369,0.864367794 7.76628333,3.37931026 0.855938676,5.08352478 C0.650574696,4.88122593 0.277394629,4.44750947 0.0122605361,4.20153246 C3.96398458,3.16475088 8.17777757,1.48275858 10.3003829,0.53333332 C11.4053637,0.396168572 12.7708809,0.214559382 13.763218,0.0689655155"></path>
                                    </g>
                                </g>
                            </g>
                        </g>
                        <path d="M181.314172,98.6521048 C181.314172,98.6521048 177.914938,99.7118749 176.314172,100.110342 C176.036011,99.8620665 175.478157,99.2321814 175.196164,98.993101 C175.554019,98.9800742 177.414555,98.993101 181.314172,98.6521048" id="path84" fill="#282D74" fill-rule="nonzero"></path>
                        <path d="M107.512641,85.6314155 C101.344825,85.6314155 88.5103426,85.6314155 84.9563197,72.7391553 C84.9563197,72.7391553 84.6099596,71.477163 84.0199213,69.3384657 L52.5844431,69.3384657 C52.5844431,69.3384657 56.506512,57.6793089 57.034558,56.1153243 C56.4433702,53.9661289 50.8165505,33.4895777 50.2239068,31.3364743 C48.8364739,29.7691947 38.5027577,18.1157084 38.5027577,18.1157084 L69.9054389,18.1157084 C69.3695768,16.1695015 69.0595385,15.0398464 69.0595385,15.0398464 C65.5082742,2.14649037 78.3233697,2.14649037 84.4812239,2.14649037 L109.085821,2.14649037 L113.501913,18.1662831 C114.690419,18.1172409 115.808426,18.1157084 116.76015,18.1157084 L125.756319,18.1157084 C133.855935,18.1157084 138.668962,19.3019919 142.374709,22.2069726 C145.083521,24.3318768 146.910341,27.2123365 147.957084,31.0153249 C147.97854,31.0850567 154.310341,54.0550178 154.928732,56.3020676 C156.317237,57.8655158 166.651337,69.5222971 166.651337,69.5222971 L127.653637,69.5222971 L132.092717,85.6314155 L107.512641,85.6314155" id="path86" fill="#282D74" fill-rule="nonzero"></path>
                        <path d="M105.898848,6.54484275 L85.6965496,6.54484275 C74.7647491,6.54484275 71.7046725,8.66735611 73.4581591,15.0398464 L89.3578522,72.7391553 C91.1042123,79.0804578 95.36858,81.2314156 106.299614,81.2314156 L126.480457,81.2314156 L122.523369,66.881301 L110.338695,73.6517989 L104.047507,73.6517989 L87.6153235,14.1271261 L93.7432927,14.1271261 L109.868196,20.9449803 L105.898848,6.54484275" id="path88" fill="#FFFFFF" fill-rule="nonzero"></path>
                        <path d="M143.556318,31.0153249 C141.803062,24.6419917 137.734096,22.5164745 126.969345,22.5164745 L117.973943,22.5164745 C107.210725,22.5164745 104.304978,24.6419917 106.058235,31.0153249 L113.377775,57.5389258 L110.832181,65.122144 L129.70651,65.122144 L120.052871,30.1011487 L129.051338,30.1011487 L138.711874,65.122144 L157.595398,65.122144 L150.870494,57.5389258 L143.556318,31.0153249" id="path90" fill="#FFFFFF" fill-rule="nonzero"></path>
                        <path d="M143.744824,57.5469717 L135.416089,27.3249035 L112.164748,27.3249035 L106.388503,25.2897312 C107.873561,23.2904975 111.499614,22.5164745 117.973943,22.5164745 L126.969345,22.5164745 C137.734096,22.5164745 141.803062,24.6419917 143.556318,31.0153249 L150.870494,57.5389258 L157.595398,65.122144 L143.744824,57.5469717" id="path92" fill="#B2B2B1" fill-rule="nonzero"></path>
                        <polyline id="path94" fill="#B2B2B1" fill-rule="nonzero" points="115.827583 76.2230632 97.5264343 76.2230632 79.7049789 11.5649039 87.6153235 14.1271261 104.047507 73.6517989 110.338695 73.6517989 122.523369 66.881301 126.480457 81.2314156 115.827583 76.2230632"></polyline>
                        <path d="M97.8413769,11.5649039 L79.7049789,11.5649039 L73.6712625,9.57946336 C75.0898066,7.38475844 78.8406111,6.54484275 85.6965496,6.54484275 L105.898848,6.54484275 L109.868196,20.9449803 L97.8413769,11.5649039" id="path96" fill="#B2B2B1" fill-rule="nonzero"></path>
                        <polyline id="path98" fill="#B2B2B1" fill-rule="nonzero" points="120.493484 57.5469717 112.164748 27.3249035 120.052871 30.1011487 129.70651 65.122144 120.493484 57.5469717"></polyline>
                        <polyline id="path100" fill="#282D74" fill-rule="nonzero" points="90.3149403 18.1196164 70.8542511 18.1196164 72.4176993 22.5164745 92.738695 22.5164745 90.3149403 18.1196164"></polyline>
                        <polyline id="path102" fill="#282D74" fill-rule="nonzero" points="99.3172389 36.9210719 83.5203044 30.1011487 75.3247491 30.1011487 77.010726 34.5141754 83.7134079 34.5003823 100.685055 41.8318763 99.3172389 36.9210719"></polyline>
                        <polyline id="path104" fill="#FFFFFF" fill-rule="nonzero" points="68.5264351 30.1011487 83.5203044 30.1011487 99.3172389 36.9210719 95.3394612 22.5164745 47.5607651 22.5164745 54.2864354 30.1011487 61.7747111 57.3566269 59.2238299 64.9377762 83.3999979 64.9377762 76.0374694 57.3566269 68.5264351 30.1011487"></polyline>
                        <polyline id="path106" fill="#B2B2B1" fill-rule="nonzero" points="76.0374694 57.3566269 83.3999979 64.9377762 69.16996 57.3482744 60.8881211 27.3380836 68.5264351 30.1011487 76.0374694 57.3566269"></polyline>
                        <polyline id="path108" fill="#B2B2B1" fill-rule="nonzero" points="99.3172389 36.9210719 87.8406108 27.3479687 60.8881211 27.3380836 47.5607651 22.5164745 95.3394612 22.5164745 99.3172389 36.9210719"></polyline>
                        <path d="M81.7808409,80.9141742 C71.7711093,74.2382357 58.0348644,74.9350173 58.0348644,74.9350173 C58.0348644,74.9350173 62.7666651,79.9639827 61.9881211,81.2061282 C61.199692,82.4689635 59.7204583,82.2965497 59.7204583,82.2965497 C59.7204583,82.2965497 60.5627571,81.8306493 60.2373931,80.8444424 C59.9973165,80.1164731 57.2587725,76.8007644 51.8139451,73.8972395 C46.3691176,70.9967798 38.2045967,69.5934849 36.1296543,71.2535614 C36.1296543,71.2535614 36.1877386,69.3758603 40.2127959,69.1286573 C43.5832939,68.9209178 48.2504202,70.2173163 48.2504202,70.2173163 C48.2504202,70.2173163 44.9437537,64.9817608 33.8622214,64.9817608 C33.0863593,64.9817608 32.6960911,65.342757 32.6960911,65.342757 C32.6960911,65.342757 32.0485816,63.9430635 34.1864359,63.7350176 C36.4295776,63.5192321 48.2680448,64.4007647 56.5567802,73.0881974 C67.6164734,73.3944043 75.3331782,76.0479674 79.1724118,77.7356302 C80.8521053,78.6582356 81.5279673,79.8505727 81.7808409,80.9141742" id="path110" fill="#FFFFFF" fill-rule="nonzero"></path>
                        <path d="M81.4796914,79.7877375 C70.1041362,73.4174694 54.8278913,73.993025 54.8278913,73.993025 C39.1561676,66.3488106 35.8803056,71.5358603 35.8803056,71.5358603 C35.8803056,71.5358603 43.1794625,69.170573 52.6221443,74.7518755 C62.0474314,80.3256685 59.4480445,82.3662815 59.4480445,82.3662815 C59.4480445,82.3662815 61.8747111,82.9118753 62.4051325,81.0927183 C62.935554,79.2720287 58.8403817,75.2675843 58.8403817,75.2675843 C58.8403817,75.2675843 72.1892702,75.085592 81.8605344,81.2436761 C81.8605344,81.2436761 82.0490401,80.994634 81.4796914,79.7877375" id="path112" fill="#B2B2B1" fill-rule="nonzero"></path>
                        <polygon id="path114" fill="#B2B2B1" fill-rule="nonzero" points="160.033712 62.0414544 159.304977 61.2194621 160.422218 61.4017609"></polygon>
                        <polygon id="path116" fill="#FFFFFF" fill-rule="nonzero" points="162.60536 61.7229103 160.104211 58.911646 165.497314 58.0316461"></polygon>
                    </g>
                </g>
            </g>
        </g>
    </g>
</svg>