<?xml version="1.0" encoding="UTF-8"?>
<svg width="200px" height="200px" viewBox="0 0 200 200" version="1.1" xmlns="http://www.w3.org/2000/svg" xmlns:xlink="http://www.w3.org/1999/xlink">
    <!-- Generator: Sketch 54.1 (76490) - https://sketchapp.com -->
    <title>luther</title>
    <desc>Created with Sketch.</desc>
    <g id="luther" stroke="none" stroke-width="1" fill="none" fill-rule="evenodd">
        <g id="luther_BGL">
            <g id="luther" transform="translate(0.000000, 18.000000)">
                <path d="M0.0261627907,0.0494186047 C1.68023256,1.86627907 3.20930233,3.77325581 4.99709302,5.46802326 C11.6482558,12.3343023 19.6104651,17.9360465 28.2238372,22.0668605 C38.9912791,27.25 50.6656977,30.0581395 62.5465116,31.0581395 C66.3575581,25.5959302 70.7412791,20.5639535 75.5901163,15.997093 C82.3081395,9.76162791 89.9331395,4.5 98.4651163,1.06976744 C98.9418605,0.840116279 99.2645349,0.962209302 99.7238372,1.14534884 C107.584302,4.31395349 114.709302,9.11337209 121.020349,14.7325581 C126.645349,19.7354651 131.619186,25.4738372 135.883721,31.6715116 C137.776163,31.6889535 139.694767,31.4593023 141.578488,31.2819767 C155.159884,29.8866279 168.412791,25.9302326 180.075581,18.7354651 C187.569767,14.1656977 194.177326,8.2994186 199.796512,1.56686047 C198.947674,5.61337209 197.706395,9.59593023 196.348837,13.5 C191.188953,28.2296512 183.331395,42.5843023 172.636628,54.0319767 C166.668605,60.4040698 159.642442,65.9854651 151.90407,70.0465116 C153.014535,76.3255814 153.674419,82.6511628 153.630814,89.0319767 C150.476744,89.0174419 147.322674,89.0145349 144.168605,89.0377907 C145.421512,104.369186 141.209302,120.069767 133.075581,133.069767 C124.848837,146.337209 112.561047,157.014535 98.2645349,163.290698 C95.5959302,162.017442 92.8982558,160.793605 90.252907,159.47093 C81.880814,155.06686 74.75,148.636628 69.0290698,141.136628 C57.8517442,126.372093 52.3401163,107.491279 53.8633721,89.0290698 C50.7093023,89.0174419 47.5523256,89.0203488 44.3982558,89.0319767 C44.3313953,81.997093 45.119186,74.9389535 46.5145349,68.0465116 C38.8197674,63.6046512 31.9011628,57.6569767 26.0203488,51.0145349 C16.3168605,39.9738372 9.10174419,26.8982558 4.02034884,13.1453488 C2.45639535,8.86337209 1.04651163,4.49418605 0.0261627907,0.0494186047 Z" id="Shape" fill="#0F437C" fill-rule="nonzero"></path>
                <path d="M20.2238372,28.3488372 C22.9796512,29.8023256 25.7383721,31.2296512 28.6133721,32.4447674 C37.6366279,36.3517442 47.1656977,38.8052326 56.9127907,40.0465116 C53.6598837,46.0087209 50.9680233,52.2616279 48.9418605,58.747093 C36.9127907,51.5436047 27.1540698,40.4418605 20.2238372,28.3488372 Z" id="Shape" fill="#FFFFFF" fill-rule="nonzero"></path>
                <path d="M180.284884,29.1598837 C176.386628,35.9331395 171.909884,42.2354651 166.438953,47.8343023 C161.526163,52.9127907 155.863372,57.3488372 149.65407,60.7354651 C147.65407,53.755814 144.872093,47.0348837 141.415698,40.6511628 C154.982558,39.4244186 168.287791,35.6540698 180.284884,29.1598837 Z" id="Shape" fill="#FFFFFF" fill-rule="nonzero"></path>
                <path d="M63.6482558,45.7674419 C62.9854651,47.497093 62.8197674,49.3255814 62.8575581,51.1627907 C62.9011628,58.4273256 62.7819767,65.7034884 62.9389535,72.9651163 C62.9389535,74.8110465 62.8372093,76.7819767 63.3226744,78.5784884 C64.3866279,78.7267442 65.494186,78.5988372 66.5697674,78.6337209 C69.5726744,78.6046512 72.5872093,78.7151163 75.5872093,78.5494186 C76.6656977,78.5290698 77.505814,78.0494186 78.4447674,77.5930233 C78.3488372,78.7267442 78.252907,79.8546512 78.2645349,80.9912791 C76.6976744,80.8226744 75.122093,80.75 73.5465116,80.7412791 C68.7122093,80.747093 63.877907,80.7412791 59.0436047,80.744186 C59.5406977,79.4709302 59.7965116,78.1162791 59.8139535,76.75 C59.8110465,67.7354651 59.8139535,58.7180233 59.8139535,49.7005814 C59.8139535,48.3517442 59.5290698,47.0377907 59.0726744,45.7703488 C60.6075581,45.8866279 62.1133721,45.8866279 63.6482558,45.7674419 Z" id="Shape" fill="#FFFFFF" fill-rule="nonzero"></path>
                <path d="M126.142442,51.9244186 L126.235465,51.9651163 C126.203488,52.7965116 126.18314,53.627907 126.229651,54.4593023 C123.883721,53.5755814 121.651163,53.8255814 119.18314,53.7616279 C118.625,53.8459302 118.014535,53.5639535 117.97093,54.3488372 C117.656977,56.9331395 117.851744,59.5959302 117.81686,62.1976744 C120.229651,62.3372093 122.69186,62.3517442 125.090116,62.0465116 C125.026163,62.9418605 124.985465,63.8343023 124.985465,64.7325581 C124.319767,64.3895349 123.744186,64.0232558 122.976744,63.9651163 C121.264535,63.8226744 119.52907,63.9127907 117.811047,63.872093 C117.805233,67.3517442 117.694767,70.9767442 118.25,74.4186047 C120.694767,74.5494186 123.136628,74.4563953 125.581395,74.3488372 C126.799419,74.2965116 127.834302,74.0813953 128.921512,73.5174419 C128.930233,67.9069767 128.924419,62.2965116 128.924419,56.6860465 C128.886628,54.9912791 128.877907,53.4302326 127.671512,52.1046512 C131.104651,52.2238372 134.75,51.5959302 137.84593,53.4331395 C140.834302,55.0784884 142.337209,58.9244186 140.869186,62.0843023 C139.729651,64.494186 137.386628,65.5784884 134.991279,66.372093 C138.087209,71.2790698 140.700581,76.3197674 144.40407,80.630814 C142.613372,80.6075581 140.776163,80.5261628 139,80.6686047 C138.953488,79.9011628 138.979651,79.2034884 138.651163,78.4912791 C136.65407,74.3575581 134.267442,70.6715116 131.988372,66.6889535 C131.950581,69.8459302 131.994186,73.005814 131.965116,76.1627907 C131.950581,77.7093023 132.15407,79.247093 132.735465,80.6889535 C131.22093,80.6453488 129.709302,80.6686047 128.194767,80.6744186 C128.677326,79.2354651 128.898256,77.8982558 128.956395,76.377907 C126.758721,76.0668605 124.593023,76.1802326 122.383721,76.1627907 C119.622093,76.122093 116.869186,76.1976744 114.107558,76.244186 C114.543605,75.0901163 114.843023,73.9186047 114.828488,72.6773256 C114.831395,66.9593023 114.819767,61.2383721 114.834302,55.5232558 C114.848837,54.2819767 114.549419,53.1046512 114.104651,51.9563953 C117.337209,52.1598837 120.601744,52.0930233 123.837209,52.1162791 C124.613372,52.127907 125.372093,52.005814 126.142442,51.9244186 Z" id="Shape" fill="#FFFFFF" fill-rule="nonzero"></path>
                <path d="M66.1656977,52.0872093 C67.6511628,52.1947674 69.119186,52.2616279 70.6017442,52.0668605 C70.0697674,53.372093 69.8168605,54.6918605 69.8313953,56.1046512 C69.8517442,58.3284884 69.8168605,60.5552326 69.8517442,62.7819767 C69.9156977,65.2209302 70.2906977,67.8459302 71.622093,69.9447674 C73.1715116,72.4156977 75.8197674,74.005814 78.6947674,74.4011628 C78.7267442,68.4011628 78.6918605,62.3982558 78.7093023,56.3953488 C78.7238372,54.9244186 78.5232558,53.4767442 77.9825581,52.1017442 C79.7063953,52.255814 81.4156977,52.1540698 83.1395349,52.1075581 C86.9186047,52.1046512 90.6976744,52.1104651 94.4767442,52.1046512 C96.8168605,52.119186 99.1918605,52.2936047 101.523256,52.0813953 C101.122093,53.502907 100.813953,54.9098837 100.799419,56.3953488 C100.793605,58.9651163 100.80814,61.5348837 100.796512,64.1046512 C103.494186,64.3895349 106.305233,64.4447674 109,64.1017442 C109.023256,62.3081395 109.005814,60.5145349 109.011628,58.7209302 C109.008721,57.119186 109.081395,55.505814 108.773256,53.9215116 C108.65407,53.2005814 108.171512,52.7034884 107.761628,52.119186 C109.59593,52.2063953 111.447674,52.2238372 113.27907,52.1133721 C112.851744,52.75 112.372093,53.2936047 112.244186,54.0697674 C111.985465,55.497093 112.049419,56.9854651 111.988372,58.4302326 C112.017442,64.1453488 111.924419,69.869186 112.061047,75.5813953 C112.005814,77.3313953 112.130814,79.0465116 112.802326,80.6831395 C111.331395,80.6598837 109.860465,80.6656977 108.386628,80.6802326 C108.688953,79.2790698 109.020349,77.9069767 109.005814,76.4593023 C109.020349,73.130814 109.005814,69.7965116 109.011628,66.4680233 C106.293605,66.1482558 103.517442,66.2325581 100.796512,66.4651163 C100.796512,69.7936047 100.80814,73.125 100.790698,76.4534884 C100.776163,77.9098837 101.093023,79.3052326 101.534884,80.6831395 C100.017442,80.6656977 98.497093,80.6511628 96.9825581,80.6860465 C97.7383721,78.9360465 97.7703488,77.1656977 97.747093,75.2906977 C97.7412791,68.8023256 97.744186,62.2994186 97.747093,55.8110465 C97.7151163,55.247093 97.7819767,54.752907 97.1017442,54.627907 C95.0232558,54.0668605 92.752907,54.0639535 90.6133721,54.0930233 C90.6424419,61.255814 90.6162791,68.4186047 90.627907,75.5813953 C90.6686047,77.3343023 90.7616279,79.0348837 91.4069767,80.6831395 C89.8953488,80.6627907 88.3837209,80.6656977 86.872093,80.6744186 C87.2819767,79.5901163 87.5755814,78.494186 87.5697674,77.3284884 C87.5872093,69.5843023 87.5610465,61.8372093 87.5813953,54.0930233 C85.5843023,53.9098837 83.6395349,54.1773256 81.7034884,54.6482558 C81.6569767,55.2296512 81.6133721,55.8110465 81.6104651,56.3953488 C81.6133721,61.4331395 81.6046512,66.4738372 81.6162791,71.5116279 C81.6947674,73.1482558 81.494186,74.6017442 82.2994186,76.0959302 C77.6860465,76.6453488 72.9709302,74.8459302 69.8459302,71.4302326 C68.1744186,69.5813953 67.0901163,67.2616279 66.9738372,64.752907 C66.8430233,61.4854651 67.0406977,58.2005814 66.8517442,54.9331395 C66.8139535,53.9302326 66.4912791,53.0232558 66.1656977,52.0872093 Z" id="Shape" fill="#FFFFFF" fill-rule="nonzero"></path>
                <path d="M136.924419,55.5116279 C138.976744,58.1017442 138.258721,62.4767442 135.337209,64.122093 C134.284884,64.7761628 133.171512,64.8284884 131.973837,64.9215116 C131.976744,62.369186 131.976744,59.8197674 131.973837,57.2674419 C131.988372,56.122093 131.857558,55.0930233 132.188953,53.9767442 C133.93314,53.6162791 135.764535,54.1366279 136.924419,55.5116279 Z" id="Shape" fill="#0F437C" fill-rule="nonzero"></path>
                <path d="M68.2209302,89.1162791 C75.5988372,89.0581395 83.0726744,89.1075581 90.4622093,89.0930233 C91.3226744,91.3313953 92.1366279,93.5 92.2034884,95.9302326 C92.3139535,100.049419 92.1598837,104.732558 90.5116279,108.569767 C89.3401163,111.322674 87.2965116,113.485465 84.6976744,114.94186 C94.2587209,115.008721 103.831395,114.947674 113.392442,114.97093 C111.593023,113.950581 109.985465,112.671512 108.81686,110.94186 C106.738372,108.008721 106.049419,104.09593 105.851744,100.578488 C105.744186,98.7296512 105.651163,96.9040698 105.866279,95.0581395 C106.037791,93.0552326 106.872093,91.002907 107.514535,89.1046512 C114.857558,89.0639535 122.203488,89.122093 129.546512,89.0755814 C129.613372,89.5116279 129.688953,89.9447674 129.723837,90.3837209 C130.002907,96.8197674 129.686047,103.252907 128.47093,109.587209 C126.389535,120.950581 121.590116,131.755814 114.229651,140.686047 C110.040698,145.811047 105.075581,150.305233 99.6395349,154.069767 C96.0174419,152.281977 92.2994186,150.299419 89.1337209,147.776163 C86.9883721,146.087209 85.0639535,144.081395 83.1976744,142.093023 C77.7790698,135.848837 73.9273256,128.273256 71.4651163,120.412791 C68.8924419,112.037791 67.6918605,103.209302 67.9505814,94.4534884 C68.252907,92.6773256 67.994186,90.9011628 68.2209302,89.1162791 Z" id="Shape" fill="#FFFFFF" fill-rule="nonzero"></path>
            </g>
        </g>
    </g>
</svg>