<?xml version="1.0" encoding="UTF-8"?>
<svg width="200px" height="200px" viewBox="0 0 200 200" version="1.1" xmlns="http://www.w3.org/2000/svg" xmlns:xlink="http://www.w3.org/1999/xlink">
    <!-- Generator: Sketch 54.1 (76490) - https://sketchapp.com -->
    <title>lycoming</title>
    <desc>Created with Sketch.</desc>
    <g id="lycoming" stroke="none" stroke-width="1" fill="none" fill-rule="evenodd">
        <g id="lycoming_BGL">
            <g id="lycoming" transform="translate(0.000000, 16.000000)">
                <g id="g10" transform="translate(99.931551, 84.177961) scale(-1, 1) rotate(-180.000000) translate(-99.931551, -84.177961) translate(0.000000, 0.399729)" fill-rule="nonzero">
                    <g id="g12">
                        <path d="M130.710469,53.0064874 C130.131687,55.3976714 129.552358,57.7878151 128.973577,60.1779588 C131.168785,59.8275139 133.332782,59.4392867 135.454069,59.0149198 L130.710469,53.0064874 Z M64.066802,59.1189581 C66.0309361,59.5060902 68.0268292,59.8614633 70.0446252,60.1834345 C69.5107443,57.981655 68.9768634,55.7787803 68.4435301,53.5754675 L64.066802,59.1189581 Z M188.11389,96.0399702 L193.694725,101.435179 L190.259817,103.171524 C173.192056,111.802324 155.278846,117.894042 136.770975,121.378231 L129.004788,141.401228 L127.302392,141.546335 C122.007937,141.996985 116.310469,142.31348 110.338122,142.48925 L108.918272,148.486239 C110.245582,149.973439 110.960161,151.756327 110.960161,153.644897 C110.960161,157.47734 107.940312,160.883774 103.500066,162.1963 C102.875836,162.970564 99.4989708,167.137025 99.4989708,167.137025 C99.4989708,167.137025 96.1801482,163.040653 95.5838443,162.301981 L95.4984233,162.195752 C91.0592722,160.883774 88.0399704,157.47734 88.0399704,153.644897 C88.0399704,151.749209 88.7594776,149.95975 90.0966439,148.469811 L88.6806275,142.48925 C82.7088275,142.31348 77.0119077,141.996985 71.7169044,141.546335 L70.0145089,141.401228 L62.2477739,121.381516 C43.7855157,117.907184 25.9154545,111.839012 8.88323044,103.243255 L5.53708405,101.554549 L11.0707732,95.9211475 L0,62.6913058 L13.1168785,52.4260083 L14.6511153,53.165228 C17.6940174,54.6310185 20.7903622,56.0257344 23.9040104,57.3338795 L22.0463239,49.6481302 L67.4924008,49.6481302 C66.4509224,45.3447764 64.0060217,35.2256802 64.0060217,35.2256802 L99.5093747,0 L135.009442,35.2256802 C135.009442,35.2256802 132.585349,45.2611625 131.554275,49.5234485 L177.463103,49.5234485 L175.616696,57.1164941 C178.568647,55.8658439 181.508004,54.5362888 184.400817,53.1416824 L185.943322,52.3981917 L199.340721,62.9804228 L188.11389,96.0399702 L188.11389,96.0399702 Z" id="path14" fill="#F3A00F"></path>
                        <path d="M184.964266,96.8021879 L189.025047,100.728266 C165.607114,112.570018 139.752495,119.9091 112.47036,121.68487 C112.029566,123.498423 111.542776,125.499244 111.322105,126.433946 C124.554685,124.989456 133.72539,121.659135 133.72539,121.659135 L127.070223,138.81834 C121.289525,139.310058 114.91088,139.648456 108.15934,139.808347 C107.402051,143.006704 106.644761,146.206157 105.887472,149.401228 C107.333057,150.505677 108.222311,151.98795 108.222311,153.644897 C108.222311,156.514164 105.568786,158.987539 101.939491,159.770564 C101.126349,160.778093 100.313755,161.787265 99.4995184,162.790413 C98.6863767,161.787265 97.8726875,160.777546 97.0584507,159.770017 C93.4302509,158.986991 90.7778211,156.513617 90.7778211,153.644897 C90.7778211,151.982474 91.6736459,150.494726 93.1279922,149.388634 C92.3717978,146.197943 91.6156035,143.002324 90.8594091,139.808347 C84.1084168,139.648456 77.7297722,139.310058 71.9490742,138.81834 L65.2922639,121.659135 C65.2922639,121.659135 74.4629687,124.989456 87.6966439,126.433946 C87.4568082,125.419846 86.9672805,123.416835 86.5461991,121.685418 C59.3122504,119.915124 33.5020936,112.601229 10.1170155,100.798902 L14.1974534,96.6444877 L3.20756186,63.6577671 L13.4629429,55.6320315 C18.1566594,57.8929486 22.9434081,59.9753578 27.8170014,61.869403 L25.5248727,52.3859809 L65.8940435,52.3859809 L59.1846666,60.8848719 C63.8220381,61.9340162 68.6609155,62.8052003 73.6624212,63.48583 C71.4507853,54.3659945 69.2396971,45.2348791 67.029704,36.083175 L99.5093747,3.85716075 L131.986307,36.083175 C129.776862,45.2331269 127.566869,54.3621615 125.355233,63.4803543 C130.533604,62.7745364 135.540585,61.8677603 140.326896,60.7698821 L133.6104,52.2612992 L173.980009,52.2612992 L171.691166,61.6733729 C176.408483,59.8253236 181.042021,57.7998617 185.589592,55.6079384 L196.126484,63.930457 L184.964266,96.8021879" id="path16" fill="#193050"></path>
                        <path d="M93.0080743,46.2805738 C93.0535227,44.1839825 95.566322,38.3517034 99.4995184,33.7878705 C99.4995184,44.258014 99.4995184,54.7317714 99.4995184,65.2046527 C97.8151926,65.2046527 96.1445561,65.1767266 94.4815856,65.1351113 C93.9909627,58.8506488 93.4997923,52.5678289 93.0080743,46.2805738" id="path18" fill="#9FA7AA"></path>
                        <path d="M105.477889,153.80643 C105.477889,155.831892 102.803557,157.516218 99.4995184,157.516218 C98.7635841,157.516218 98.0610516,157.428059 97.4094431,157.275835 C97.4099907,157.275835 97.4099907,157.275835 97.4099907,157.275835 C97.103899,156.49719 96.9812433,155.366457 98.2455828,154.519366 C98.7466094,154.262556 99.246541,154.006293 99.745925,153.746745 C99.7404493,153.672823 99.7355211,153.598353 99.7300454,153.523336 C99.7349736,153.522241 99.7409968,153.523884 99.745925,153.522789 C99.7371638,152.563446 99.7284027,151.603555 99.7201892,150.644213 C98.9508531,150.395616 97.8787108,149.90554 97.1745356,148.979052 C97.1745356,148.979052 97.4811748,149.049688 97.9236115,149.112111 C98.4060208,149.206293 99.0351789,149.281858 99.7743986,149.279668 C99.9441453,149.278573 100.127581,149.268169 100.308279,149.258312 C100.420531,149.251742 100.525665,149.251194 100.64175,149.241338 C100.946746,149.214507 101.264885,149.175082 101.59726,149.115397 C101.59726,149.116492 100.698697,148.950578 99.7015718,148.537163 C99.6988339,148.266115 99.6966436,147.996711 99.6944534,147.725664 C99.0253226,147.575629 97.4614623,147.106909 96.5360688,145.888018 C96.5360688,145.888566 96.6286081,145.909921 96.7824753,145.938942 C97.2583138,146.092809 98.3496211,146.364404 99.8368216,146.305814 C100.286924,146.288292 100.767143,146.245582 101.284597,146.153042 C101.284597,146.153042 100.496644,145.922515 99.6752884,145.564952 C99.6714554,145.13949 99.6670749,144.71348 99.6632419,144.287471 C98.6913049,144.055301 97.2216266,143.561393 96.2814487,142.575766 C96.2814487,142.575766 96.6658429,142.645855 97.2216266,142.708826 C97.8518798,142.806293 98.6754253,142.886239 99.6506477,142.87693 L99.6506477,142.87693 C100.315945,142.870359 101.047499,142.825458 101.839833,142.712111 C101.839833,142.713207 100.79945,142.512796 99.6429818,142.039695 C99.6364109,141.331687 99.6303877,140.622584 99.6238168,139.91348 C101.183297,139.912933 102.720874,139.899244 104.247499,139.879531 C103.558108,143.438189 102.867622,147.000681 102.176589,150.555506 C104.133057,151.147977 105.477889,152.369606 105.477889,153.80643" id="path20" fill="#F3A00F"></path>
                        <path d="M99.5383959,136.033398 C107.778779,136.033398 116.018614,135.811085 124.252974,135.367006 C125.396848,132.532782 126.54346,129.694179 127.687882,126.851742 C127.688429,126.832577 115.330866,130.792057 99.5383959,130.786581 C83.7453778,130.796438 71.3878148,126.838601 71.3878148,126.85667 C72.5327839,129.699107 73.676658,132.537163 74.824365,135.371386 C83.055987,135.81437 91.2969176,136.033398 99.5383959,136.033398" id="path22" fill="#F3A00F"></path>
                        <path d="M127.687882,126.851742 C127.688429,126.832577 115.330866,130.792057 99.539491,130.786581 C83.7453778,130.796438 71.3878148,126.838601 71.3878148,126.85667 C72.5327839,129.699107 72.5327839,129.701845 73.676658,132.537163 C73.6662541,132.411222 102.069265,136.669675 127.687882,126.851742" id="path24" fill="#FFFFFF"></path>
                        <path d="M105.990415,46.2805738 C105.946062,44.1850776 103.43819,38.3617786 99.5093747,33.7994242 C99.5093747,28.6287193 99.5093747,23.4574121 99.5093747,18.2871453 C107.771113,25.4324977 116.032851,32.3547699 124.284733,39.0511695 C122.522105,47.4574115 120.760024,55.8510595 118.996301,64.2370963 C114.286103,64.7107444 109.448868,65.0113605 104.515808,65.1351113 C105.007526,58.8511963 105.499244,52.5678289 105.990415,46.2805738" id="path26" fill="#9FA7AA"></path>
                        <path d="M99.5099222,127.089388 C99.5099222,125.429703 99.5099222,123.768922 99.5099222,122.109237 C99.5219688,122.109785 99.535658,122.109785 99.5482521,122.109785 C99.5613938,122.109785 99.5739879,122.110332 99.586582,122.110332 C99.5947956,122.110332 99.6030091,122.109785 99.6117703,122.109785 L100.888156,122.109785 L100.882133,122.095548 C101.894043,122.087882 102.901572,122.075835 103.90253,122.05229 C104.755644,122.033125 105.607116,122.005746 106.457492,121.976178 C106.5796,121.97125 106.700066,121.965774 106.821626,121.961393 C106.473372,123.607389 106.125117,125.25229 105.77741,126.898833 C103.750305,127.018751 101.659135,127.089388 99.5099222,127.089388" id="path28" fill="#9FA7AA"></path>
                        <path d="M168.274328,56.6505119 C123.836821,73.3399023 75.6889783,73.3809701 31.2305536,56.7748104 C32.6726344,62.8331264 34.1164126,68.8728251 35.5623263,74.898287 C77.3563293,89.4220375 122.16728,89.3820648 163.943596,74.7816545 C165.389181,68.7556451 166.833671,62.7104707 168.274328,56.6505119" id="path30" fill="#F3A00F"></path>
                        <path d="M57.7018466,77.8146456 C57.7379862,77.7834341 57.7401765,77.7308673 57.7095126,77.6585881 C56.2179315,74.656261 54.7268433,71.6391495 53.2407379,68.59904 C53.2118262,68.5273083 53.1487461,68.4605048 53.0621205,68.3986294 C52.9718262,68.3356588 52.8873361,68.294591 52.790471,68.2715931 C52.7380685,68.2579038 52.685666,68.243667 52.6321684,68.2316205 C52.0354265,68.083229 51.4354539,67.9293618 50.8382739,67.7743994 C50.7798481,67.759615 50.719944,67.7448306 50.6622301,67.7289511 C50.5681028,67.704858 50.4900193,67.704858 50.4226681,67.7278559 C50.3584929,67.7503063 50.3195607,67.7930168 50.3035169,67.8516068 C49.8430104,69.6312098 49.3831062,71.4075273 48.9221617,73.1832973 C47.9756867,71.0297039 47.0356183,68.867897 46.0945095,66.6984241 C46.0609434,66.6261448 46.0067887,66.5560558 45.9244342,66.4936328 C45.8410392,66.4295671 45.7575895,66.3841188 45.663517,66.3572879 C45.6100194,66.3425035 45.5604095,66.3271715 45.5047764,66.3134823 C44.9127436,66.139355 44.317042,65.9657752 43.723476,65.7878149 C43.6646669,65.76865 43.6058579,65.7516753 43.5491296,65.7347006 C43.4529216,65.706227 43.3748381,65.7034891 43.3031611,65.7210114 C43.2321413,65.7412715 43.1893761,65.7785062 43.1737703,65.8398341 C42.3765629,68.2715931 41.5834623,70.6962337 40.7899237,73.1175889 C40.7760154,73.1778216 40.7899237,73.2353164 40.8348244,73.2900735 C40.8825178,73.3431878 40.9514021,73.3864458 41.0429559,73.415467 C41.8813953,73.6793958 42.7170968,73.9362062 43.5544958,74.1875409 C43.647528,74.2149194 43.7294445,74.2203951 43.8004643,74.2006826 C43.8717032,74.1820652 43.9138661,74.1420926 43.9294719,74.0835026 C44.2870899,72.4988346 44.6421344,70.9141666 44.9989311,69.3273083 C45.9058168,71.2848716 46.8163712,73.2325786 47.7261042,75.1742623 C47.7757141,75.3012986 47.8965628,75.4064321 48.0875553,75.491853 C48.1111008,75.4978763 48.1339892,75.5038995 48.1575347,75.5104704 C48.8826271,75.7097859 49.609417,75.9047209 50.333469,76.0947277 C50.3563574,76.1018461 50.3820384,76.1073218 50.4050911,76.1133451 C50.5884176,76.1281295 50.6900466,76.0826812 50.7092664,75.975905 C51.1916209,74.410402 51.6728803,72.8432562 52.1569323,71.2739202 C52.9498139,73.1641323 53.7380411,75.0499639 54.5311417,76.9275819 C54.5610938,76.9998612 54.6171102,77.0666647 54.6994648,77.1258023 C54.7822026,77.1843923 54.870909,77.2254601 54.9639959,77.248458 C55.8105393,77.4488687 56.6576303,77.6427085 57.5069116,77.8316202 C57.6021888,77.8529755 57.6684448,77.8458571 57.7018466,77.8146456" id="path32" fill="#193050"></path>
                        <path d="M68.9259394,75.9956175 C69.0168361,76.7184101 69.1093754,77.4422979 69.2002721,78.165638 C67.8072536,77.9422294 66.41314,77.7056791 65.0228594,77.4527017 C64.9297725,76.7282664 64.8388759,76.0049262 64.7501695,75.2793958 C66.1371647,75.5340159 67.5340161,75.7733041 68.9259394,75.9956175 Z M70.5127977,80.2650219 C70.800272,80.30828 71.0636533,80.3099227 71.3095122,80.2699501 C71.553181,80.2299775 71.7601625,80.1604361 71.9310044,80.058588 C72.0985608,79.9572875 72.2272398,79.8269658 72.3192316,79.6681705 C72.4090331,79.5077324 72.4407922,79.328677 72.4161515,79.1320993 C72.1210112,76.8219009 71.8302515,74.5089646 71.5351111,72.1965759 C71.5236122,72.1297723 71.4891153,72.0706347 71.4157409,72.0147826 C71.3445567,71.9611207 71.2624212,71.9266238 71.167144,71.9118394 C70.3408607,71.7891837 69.51622,71.6605047 68.6915794,71.5279927 C68.5941119,71.5121132 68.5190948,71.5214219 68.4583145,71.5575615 C68.4002721,71.5909633 68.3734411,71.6402446 68.3843925,71.7070482 C68.4752892,72.4440776 68.5700188,73.1778216 68.6625582,73.9137559 C68.6713193,73.9789167 68.6488689,74.032031 68.5941119,74.0654328 C68.5393549,74.1015724 68.4670756,74.1108811 68.372346,74.0955491 C67.1967129,73.9049947 66.0232701,73.7007511 64.8531127,73.4877463 C64.7572879,73.4685813 64.6773427,73.4318941 64.6039683,73.3743993 C64.5333317,73.3169044 64.4928115,73.2561241 64.4862407,73.1898681 C64.3915111,72.4522911 64.2989717,71.7152617 64.2069799,70.9771372 C64.1889101,70.8210797 64.0657068,70.7203268 63.8406555,70.679259 C63.0242284,70.5253918 62.2072537,70.3676916 61.3941121,70.2034206 C61.1696083,70.1579722 61.0683079,70.214372 61.0852825,70.3704295 C61.3782326,72.6992453 61.6711826,75.0286087 61.9624899,77.3563293 C61.9887733,77.5545497 62.0648855,77.751675 62.1924694,77.950443 C62.3216959,78.1481158 62.4876097,78.3299091 62.6929485,78.4952752 C62.9004776,78.6589987 63.1299094,78.8057475 63.3965761,78.9322362 C63.6605049,79.0587249 63.9364803,79.1496216 64.2190265,79.2016407 C66.315125,79.5915107 68.4112235,79.9463361 70.5127977,80.2650219 L70.5127977,80.2650219 Z" id="path34" fill="#193050"></path>
                        <path d="M84.7326468,79.926076 C83.29418,79.8143717 81.8540705,79.6867879 80.4205319,79.5449672 C80.3778214,78.856124 80.3345634,78.1667332 80.2918529,77.4795326 C81.7281294,77.6240911 83.1644059,77.7511274 84.6045153,77.8633793 C84.6494161,78.551675 84.6888411,79.2377804 84.7326468,79.926076 Z M87.9058157,73.8551658 C87.9523592,73.8004088 87.9523592,73.7549605 87.9145769,73.7166306 C87.8756994,73.6777531 87.8110861,73.6563979 87.7136186,73.649827 C86.7657747,73.591237 85.8135502,73.5255286 84.8662539,73.4532494 C84.7704291,73.4450358 84.676247,73.4565348 84.5831601,73.4850084 C84.4884305,73.5134821 84.4188891,73.5561925 84.3761786,73.6082117 C83.7919212,74.3260762 83.2071163,75.0428455 82.622859,75.7552342 C82.6009562,75.7858982 82.5615311,75.7979447 82.5007508,75.792469 C81.7916475,75.7289509 81.0825442,75.6632425 80.3717981,75.5920583 C80.3104703,75.5854875 80.2803539,75.5624896 80.2787112,75.5219694 C80.230525,74.769608 80.1845291,74.0156039 80.1390808,73.2621474 C80.128677,73.107185 80.011497,73.0190262 79.7853505,72.997671 C78.9629001,72.9117025 78.1415449,72.8208058 77.3190946,72.7260762 C77.0924005,72.6992453 76.9828865,72.7622158 76.9927428,72.9182733 C77.1586565,75.6002719 77.3251178,78.2861035 77.4899365,80.9675544 C77.4986976,81.1225168 77.6142349,81.2134134 77.8431192,81.2380541 C80.534974,81.541408 83.2312094,81.7916475 85.9279924,81.9832971 C86.213824,82.0030096 86.4832285,81.9832971 86.7356583,81.9241595 C86.9875406,81.8633792 87.2038308,81.7768631 87.3817911,81.6629685 C87.5586563,81.5490739 87.6939061,81.4110863 87.8006823,81.2429822 C87.9058157,81.0759733 87.9518116,80.8952752 87.9375748,80.7030781 C87.8735091,79.6396968 87.806158,78.5774108 87.7382593,77.5151247 C87.7196419,77.2068427 87.5668698,76.9232014 87.2843236,76.6592726 C87.002325,76.3964389 86.6447617,76.2058845 86.2231327,76.0870618 C86.206158,76.0826812 86.1848028,76.0761103 86.1694708,76.0722774 C86.0835023,76.049827 86.0665276,76.022996 86.1097857,75.99507 C86.1152614,75.9879516 86.1234749,75.979738 86.1267603,75.9726196 C86.717041,75.268992 87.31444,74.5626265 87.9058157,73.8551658 L87.9058157,73.8551658 Z" id="path36" fill="#193050"></path>
                        <path d="M100.649416,80.4950014 C99.2087586,80.503215 97.7670065,80.4950014 96.3247067,80.4714559 C96.326897,79.7875408 96.326897,79.1025305 96.3247067,78.4186154 C97.7670065,78.4438037 99.2087586,78.4520172 100.649416,78.4432561 C100.650511,79.1266236 100.650511,79.8110863 100.649416,80.4950014 Z M104.218478,74.153044 C104.265021,74.0955491 104.270497,74.0495532 104.237095,74.0145088 C104.202051,73.9789167 104.1347,73.9624896 104.038875,73.9635847 C103.08665,73.9865827 102.138806,74.0013671 101.186582,74.0090331 C101.09021,74.0090331 100.997123,74.0292932 100.90075,74.0654328 C100.80383,74.1015724 100.730456,74.1481159 100.685008,74.2061583 C100.050374,74.9738517 99.4168353,75.7382596 98.7838442,76.5010248 C98.7575608,76.5333314 98.7164931,76.5470207 98.6579031,76.5486634 C97.9449668,76.545378 97.232578,76.5371644 96.5223795,76.5256654 C96.4621468,76.5245703 96.4314829,76.5054053 96.4347683,76.4654327 C96.4336732,75.7158092 96.4336732,74.9672808 96.4347683,74.2193 C96.4303877,74.0654328 96.323064,73.9876778 96.0930845,73.9838448 C95.2673487,73.9690604 94.4438033,73.9482528 93.618615,73.9236121 C93.3902783,73.9153986 93.2763837,73.9876778 93.2780264,74.141545 C93.2780264,76.8060214 93.2780264,79.4704977 93.2780264,82.1344264 C93.2774788,82.2866509 93.3908259,82.3665962 93.618615,82.3742621 C96.3208737,82.4574928 99.0225848,82.4848713 101.724296,82.4553025 C102.012318,82.4520171 102.28446,82.4098542 102.540175,82.329909 C102.800271,82.248321 103.018204,82.1453778 103.205473,82.0161513 C103.389457,81.8885674 103.536753,81.7352478 103.653385,81.5605729 C103.76509,81.385898 103.823132,81.2002718 103.823132,81.0080746 C103.823132,79.949074 103.823132,78.8911685 103.823132,77.8327154 C103.82587,77.5266237 103.686787,77.2539337 103.420121,77.0146456 C103.149073,76.7731671 102.808485,76.6132767 102.388498,76.5305936 C102.371524,76.5256654 102.352359,76.52238 102.335932,76.5196422 C102.252701,76.5054053 102.234631,76.4807647 102.281175,76.4473629 C102.288293,76.4396969 102.295412,76.4314834 102.299245,76.4227223 C102.933878,75.6698133 103.579464,74.9130714 104.218478,74.153044 L104.218478,74.153044 Z" id="path38" fill="#193050"></path>
                        <path d="M112.675699,73.7998613 C112.681722,73.6470892 112.57166,73.5759051 112.343871,73.5939749 C111.519778,73.6481843 110.696233,73.6963705 109.871592,73.7412713 C109.644898,73.7527702 109.52717,73.8354533 109.521695,73.9876778 C109.419847,76.6581774 109.320189,79.3270343 109.219984,81.9969863 C109.215603,82.1497584 109.325665,82.2198474 109.551811,82.2094435 C110.376452,82.1667331 111.198902,82.1185469 112.02409,82.064885 C112.252427,82.0506482 112.368512,81.9663224 112.37344,81.8124552 C112.472003,79.1441459 112.574946,76.4703609 112.675699,73.7998613" id="path40" fill="#193050"></path>
                        <path d="M124.901845,78.7471575 C123.504446,78.9316886 122.104309,79.1008878 120.70472,79.254755 C120.804378,77.7960282 120.90075,76.335111 121.001503,74.8763842 C122.398354,74.7203267 123.797944,74.5483896 125.194795,74.3611207 C125.098423,75.8242281 124.999312,77.2835025 124.901845,78.7471575 L124.901845,78.7471575 Z M125.832167,80.6735093 C126.119093,80.6346318 126.389593,80.5574244 126.652427,80.444625 C126.91307,80.3312779 127.140312,80.1976708 127.333056,80.0454463 C127.524706,79.8926743 127.682954,79.7212848 127.808895,79.5296352 C127.931551,79.3379857 128.003282,79.1441459 128.014781,78.950306 C128.139627,77.0546182 128.266663,75.1611206 128.3937,73.2659804 C128.407937,73.0721405 128.360298,72.8941802 128.262283,72.73648 C128.160435,72.5782323 128.021352,72.4495533 127.847225,72.3460625 C127.670907,72.2436669 127.45845,72.1741255 127.208758,72.1374383 C126.958518,72.1018462 126.689114,72.1029414 126.404925,72.1440091 C124.300613,72.4386019 122.194658,72.6992453 120.084323,72.923749 C119.799586,72.9549605 119.525801,73.0190262 119.263515,73.118684 C119.002872,73.2166991 118.772345,73.3420926 118.572482,73.489389 C118.375904,73.6377805 118.214371,73.8047894 118.095,73.9876778 C117.976178,74.172209 117.910469,74.3638585 117.89678,74.5571508 C117.770839,76.4451726 117.642708,78.3315518 117.515124,80.2190261 C117.501982,80.4128659 117.540859,80.5930165 117.637779,80.7572875 C117.73689,80.9204634 117.872687,81.0568084 118.055028,81.1641321 C118.236821,81.2709083 118.455302,81.350306 118.706636,81.4023251 C118.956328,81.4527016 119.226828,81.4647481 119.512112,81.4346318 C121.622995,81.2161513 123.729497,80.9609836 125.832167,80.6735093 L125.832167,80.6735093 Z" id="path42" fill="#193050"></path>
                        <path d="M140.373987,76.1472945 C138.9514,76.4517435 137.52936,76.7419556 136.103487,77.0162883 C136.18398,76.3164936 136.267211,75.6161514 136.350441,74.9158092 C137.775767,74.6420241 139.198354,74.3485265 140.618203,74.0413397 C140.53552,74.7433246 140.453932,75.444762 140.373987,76.1472945 L140.373987,76.1472945 Z M144.639558,68.8881571 C144.69322,68.8197108 144.703624,68.7704295 144.674055,68.7408607 C144.642296,68.7118395 144.579326,68.7091016 144.487334,68.731552 C143.551536,68.9533179 142.615739,69.168513 141.679394,69.3776848 C141.58795,69.3984924 141.487197,69.4390126 141.38973,69.4959599 C141.290619,69.5540024 141.21396,69.6164254 141.160845,69.6848716 C140.445171,70.6069798 139.730044,71.5252549 139.01218,72.4386019 C138.981516,72.4758367 138.940996,72.5010249 138.880763,72.513619 C138.179873,72.6587251 137.476793,72.8005458 136.773713,72.9385334 C136.714028,72.95058 136.687745,72.9357956 136.691578,72.8941802 C136.781379,72.1286772 136.871181,71.362079 136.962077,70.5949332 C136.978504,70.4388757 136.875014,70.382476 136.6527,70.4262816 C135.836273,70.5856245 135.018203,70.7411344 134.203967,70.8889784 C133.978368,70.928951 133.856807,71.0269661 133.839285,71.1830235 C133.518409,73.9066374 133.198628,76.6269659 132.877204,79.3467468 C132.858587,79.5028043 132.962625,79.5608467 133.187129,79.5214217 C135.862556,79.0505114 138.534699,78.5199159 141.198628,77.935111 C141.482269,77.8743307 141.754411,77.7735778 142.015602,77.6388755 C142.281174,77.5036257 142.506225,77.3514012 142.706636,77.1816545 C142.903213,77.0113602 143.069675,76.8246387 143.200544,76.6209426 C143.334151,76.4172465 143.410263,76.2168359 143.433809,76.0169728 C143.560845,74.9305936 143.686239,73.8425717 143.813275,72.7540023 C143.848319,72.439697 143.750304,72.1872672 143.513754,71.9961652 C143.278847,71.8050632 142.961803,71.7125239 142.560982,71.7152617 C142.540722,71.7141666 142.525938,71.7141666 142.50732,71.7141666 C142.42847,71.7179996 142.411495,71.6966443 142.462967,71.6528387 C142.471181,71.6424349 142.479394,71.6320311 142.48268,71.6232699 C143.202734,70.7170414 143.920599,69.8036944 144.639558,68.8881571 L144.639558,68.8881571 Z" id="path44" fill="#193050"></path>
                        <path d="M157.14168,70.246131 C157.406156,70.0911687 157.638874,69.9197792 157.84476,69.7253918 C158.049004,69.5326471 158.222583,69.3278559 158.365499,69.1153987 C158.507867,68.899656 158.596026,68.6926745 158.632166,68.4867882 C158.777819,67.6835028 158.922378,66.8813125 159.066936,66.0791222 C159.104171,65.8748786 159.084459,65.6958231 159.007251,65.5496219 C158.929496,65.3990401 158.812316,65.2867882 158.657902,65.2073906 C158.502392,65.1285405 158.307457,65.089663 158.069264,65.0913057 C157.834904,65.0940435 157.576998,65.1378492 157.296642,65.2232701 C154.979873,65.9427773 152.655985,66.6179313 150.320051,67.2492796 C150.096642,67.3084172 149.970154,67.4201215 149.940585,67.5805596 C149.848046,68.0925377 149.755506,68.6045157 149.660777,69.1164938 C149.649825,69.1832974 149.67118,69.2331263 149.726485,69.2621475 C149.780147,69.2900736 149.855712,69.2939065 149.950989,69.2687183 C151.941406,68.7342899 153.921967,68.1686499 155.902529,67.5707033 C155.996711,67.5416821 156.072275,67.5405869 156.127032,67.5630373 C156.181789,67.5860353 156.205882,67.6325787 156.193836,67.701025 C156.129223,68.0536602 156.064062,68.4068429 156.001091,68.7605732 C155.986854,68.8290195 155.944144,68.8941803 155.87296,68.9615315 C155.800133,69.028335 155.719093,69.0754261 155.625458,69.1028046 C154.220393,69.5255287 152.804377,69.9334685 151.390551,70.3249811 C151.108004,70.4021885 150.836957,70.5138928 150.572481,70.6579038 C150.305267,70.8024623 150.067074,70.968376 149.854616,71.1523596 C149.643254,71.3379859 149.468032,71.5334684 149.331139,71.7393548 C149.193152,71.9452412 149.106636,72.1483897 149.068853,72.3515382 C148.921009,73.1471577 148.779736,73.9422295 148.631345,74.7362062 C148.59411,74.9388072 148.615465,75.1178626 148.683911,75.2711822 C148.755643,75.4261446 148.876109,75.5438722 149.037642,75.6254601 C149.20246,75.7075956 149.39849,75.7546867 149.637779,75.7683759 C149.874329,75.7837079 150.13333,75.7503061 150.416423,75.6736463 C152.620393,75.0767948 154.81834,74.4394232 157.009715,73.7642692 C157.229839,73.6963705 157.353589,73.5802856 157.384801,73.4182049 C157.480626,72.8941802 157.574808,72.3701556 157.668442,71.8450358 C157.679394,71.7782323 157.658038,71.7311413 157.603281,71.7086909 C157.545239,71.6856929 157.469674,71.6884308 157.379873,71.7179996 C155.524158,72.2940434 153.667895,72.8421611 151.803419,73.3612576 C151.710879,73.3880885 151.635862,73.3853507 151.587128,73.3541392 C151.538395,73.3234752 151.51923,73.2741939 151.531824,73.2068428 C151.594794,72.8635163 151.655027,72.5201898 151.717998,72.1779585 C151.728401,72.1084171 151.772207,72.0427087 151.838463,71.9813808 C151.905267,71.9178627 151.984117,71.8729619 152.077751,71.8477737 C153.498696,71.4491426 154.914712,71.0362747 156.327443,70.6047895 C156.605061,70.5199161 156.879394,70.4005458 157.14168,70.246131" id="path46" fill="#193050"></path>
                        <path d="M168.274328,56.6505119 C168.047634,57.6142354 167.817107,58.5757686 167.587675,59.5367542 C123.569059,75.8833657 75.9550973,75.9260761 31.9164948,59.6594099 C31.690403,58.6984243 31.4598213,57.7368911 31.2305536,56.7748104 L56.7583832,56.7748104 L52.0910596,63.2810388 C83.4726879,71.1967128 116.067896,71.167144 147.438737,63.1906897 L142.746608,56.6505119 L168.274328,56.6505119" id="path48" fill="#FFFFFF"></path>
                        <path d="M27.5755229,85.5063634 L27.4339213,85.4494161 L27.4525387,85.3355215 C27.3669535,84.9746728 26.5135106,81.6306619 24.2184251,80.65982 C23.594907,80.3920582 23.2233807,80.2316202 23.0030932,80.1264867 C22.9885278,80.1253916 22.9746195,80.1221061 22.9425319,80.109512 L22.9420939,80.1100596 L22.9143321,80.0974655 C22.8901295,80.0876092 22.8576586,80.07392 22.8142363,80.054755 L22.8142363,80.054755 L22.7517585,80.0279241 C22.4597941,79.8997927 22.2292123,79.9074586 22.1121966,80.0558502 C22.0009851,80.1971233 21.9811083,80.4621472 22.0576586,80.7830233 C23.346803,86.1853503 24.6415326,91.5723454 25.9402594,96.9440085 C26.2899925,98.3890461 26.9498693,99.051606 28.0862964,100.098013 C29.0428466,100.978505 29.4979869,102.508964 29.6487878,103.126623 L29.7358514,103.483639 L29.3936201,103.349484 C26.0194381,102.028197 22.6309098,100.589183 19.3212863,99.0713185 L19.2378914,99.0329886 L19.215441,98.9437347 C18.9636682,97.9290872 18.8171385,96.6756992 19.5480351,96.4692652 C20.2827647,96.2595458 20.6513342,96.1544124 20.2973301,94.7493474 C18.8796162,89.1077322 17.4668305,83.4469521 16.0615465,77.7686497 C15.7006978,76.3110179 15.0787128,75.6232698 13.9193973,74.4350426 C13.034524,73.5266238 12.4349894,71.4929482 12.3703761,71.2635164 L12.5526075,71.2098545 L12.3697191,71.2624212 L12.248487,70.8407922 L12.6392331,71.0390126 C18.1070495,73.8146457 23.7692533,76.354276 29.4680349,78.5889097 L29.5636406,78.6266921 L29.5850506,78.727445 C30.142258,81.3650904 30.6994106,83.9999979 31.2577131,86.6332627 L31.3304304,86.9754941 L31.0031478,86.8506481 C29.8573572,86.4147822 28.715564,85.9663223 27.5755229,85.5063634" id="path50" fill="#FFFFFF"></path>
                        <path d="M43.8432843,86.2767946 C42.9733596,86.5949328 42.5994787,86.7893202 42.8486232,88.0646111 L44.0699784,94.2116335 C47.1372473,99.6856922 50.2889515,105.199176 53.4381369,110.599313 L53.6642286,110.988088 L53.22787,110.880764 C50.7291432,110.267485 48.2109776,109.596164 45.743298,108.883776 L45.6281987,108.847088 L45.6078839,108.729361 C45.5657757,108.491715 45.3935649,107.279395 46.0934143,106.784392 C46.6833664,106.364405 47.06453,105.909374 46.1918127,104.224501 C45.751183,103.380148 44.5123055,101.296096 43.5166587,99.6221741 C43.1801769,99.0565341 42.8685547,98.5330571 42.6193555,98.1103329 L41.2904028,102.509511 C40.8947286,104.054754 41.750307,104.912249 42.4386026,105.600545 L42.5299373,105.693632 C43.2567819,106.420805 43.702066,107.915671 43.7209024,107.978642 L43.8197388,108.318136 L43.4824356,108.21574 C40.2889518,107.250921 37.0809573,106.190278 33.9469944,105.061188 L33.7699102,104.998218 L33.8308547,104.820805 C35.2757281,100.588635 36.7254748,96.3400387 38.1788902,92.0728245 L37.0499649,86.3627631 C36.7868574,85.0025988 36.1762072,84.4084852 35.0297048,83.3916475 C34.1287876,82.5905524 33.7474598,81.2090329 33.5998349,80.4566715 L33.5352764,80.1242964 L33.8528671,80.2403813 C37.2681168,81.4877461 40.7632023,82.6524278 44.240656,83.7015722 L44.3508271,83.7355215 L44.3726204,83.8488685 C44.5230379,84.6269657 44.6539072,85.9778213 43.8432843,86.2767946" id="path52" fill="#FFFFFF"></path>
                        <path d="M84.3268973,112.776999 L84.3340157,112.777547 L84.3630369,112.58973 C84.3843921,112.593016 84.4632422,112.600134 84.5826125,112.600134 C84.9659116,112.600134 85.9334681,112.520736 86.6310724,111.784802 C87.2410656,111.141407 87.5143031,110.145377 87.4436665,108.825733 L86.9070478,98.8944534 C86.7011614,95.0915787 83.8269657,94.6485945 83.2525647,94.598218 L83.2043785,94.5938375 C83.1550972,94.5900045 83.0384647,94.5812434 82.8769315,94.5812434 C82.876384,94.5812434 82.876384,94.5812434 82.876384,94.5812434 C82.3123867,94.5812434 81.2605045,94.6951379 80.5530438,95.4573556 C79.9770001,96.0783001 79.7327838,97.0157402 79.8253231,98.24394 L80.5771369,108.219025 C80.89418,112.450647 84.2869247,112.586445 84.3214216,112.586445 L84.3214216,112.589183 L84.3268973,112.776999 Z M84.4977392,116.496643 C77.4685812,115.926623 74.601504,111.832441 74.2620105,108.190552 L73.2183418,96.9040359 C73.079259,95.3823385 73.5189578,94.016151 74.4897996,92.9527698 C75.8910316,91.4173831 78.2658434,90.6058841 81.3585195,90.6058841 C81.9077324,90.6058841 82.4843237,90.6321675 83.0718665,90.6836391 C90.2499635,91.2788478 93.5425028,95.0663905 93.6208053,98.556055 L93.8787109,109.710059 C93.9219689,111.548799 93.3300456,113.149895 92.1670066,114.340312 C90.5527698,115.992879 87.8915789,116.74743 84.4977392,116.496643 L84.4977392,116.496643 Z" id="path54" fill="#FFFFFF"></path>
                        <path d="M122.630524,93.0852817 C121.524432,93.8299771 120.988361,94.2433926 120.906226,95.4989709 L119.918409,110.613002 C119.837916,111.84613 120.313755,112.131962 121.310332,112.612728 C122.179874,113.030524 122.23244,114.315671 122.186445,115.044487 L122.177136,115.203283 L122.018341,115.2219 C119.463926,115.524706 116.878847,115.778779 114.333194,115.976999 L114.205062,115.986855 L114.14702,115.871866 C112.549758,112.659819 110.9514,109.427513 109.351948,106.174946 C108.130867,108.561804 106.91088,110.937164 105.690894,113.297191 C104.62587,115.446404 104.833399,116.232714 104.835589,116.239833 L104.908416,116.480216 L104.657629,116.486787 C101.798765,116.566185 98.9185465,116.580421 96.065706,116.530593 L95.8778895,116.527307 L95.8778895,116.340038 C95.8778895,115.762352 95.9775472,114.363858 96.9007505,113.850237 C97.9301824,113.275836 98.4673487,112.918272 98.4673487,111.680216 L98.4673487,96.6740564 C98.4673487,95.4442139 97.9575609,95.0926739 96.8974651,94.4761099 C95.9769997,93.9367533 95.8778895,92.5360689 95.8778895,91.9594775 L95.8778895,91.7650901 L96.0722769,91.7683755 C98.9377114,91.818752 101.826144,91.8028724 104.703077,91.7234748 L104.900203,91.7179991 L104.899655,91.9145768 C104.89856,92.4911681 104.798355,93.8918525 103.878437,94.4405178 C102.820531,95.0669381 102.311839,95.4228587 102.311839,96.6565342 L102.311839,107.209306 C104.047636,104.013687 105.782338,100.795069 107.516493,97.5512638 L107.568512,97.455439 L107.676931,97.4510585 C108.319778,97.4231324 108.962626,97.3919209 109.605473,97.3579716 L109.733604,97.3514007 L109.787814,97.466938 C111.226828,100.534426 112.665842,103.586034 114.103762,106.620668 L114.528129,96.0547546 C114.576862,94.8303878 114.08843,94.5242961 113.068854,94.0019141 C112.19548,93.5529066 112.107869,92.2694022 112.133057,91.5449669 L112.138532,91.3724823 L112.311017,91.3609833 C116.058587,91.1080059 119.848868,90.7394912 123.574535,90.2652955 L123.804514,90.2357267 L123.78973,90.4673489 C123.740449,91.1846658 123.525801,92.4796691 122.630524,93.0852817" id="path56" fill="#FFFFFF"></path>
                        <path d="M137.561667,90.667212 C136.447361,91.4924002 135.857628,91.983023 135.693905,93.2703604 L133.744555,108.640107 C133.58576,109.883639 134.028744,110.134973 134.966184,110.544008 C135.808895,110.911428 135.782064,112.21793 135.690619,112.963173 L135.674192,113.101161 L135.537847,113.127992 C132.071181,113.792194 128.542091,114.367143 125.049141,114.838053 L124.809853,114.869812 L124.833399,114.629977 C124.904035,113.911565 125.157013,112.614918 126.061051,111.996712 C127.156739,111.244898 127.733878,110.792605 127.856533,109.511838 L129.308142,94.2811749 C129.424774,93.0513324 128.991099,92.7978074 127.998354,92.3433242 C127.139764,91.947431 127.12717,90.6535227 127.196164,89.9164933 L127.209853,89.7675542 L127.357149,89.7456514 C131.113481,89.192058 134.904309,88.516904 138.6245,87.7393544 L138.887334,87.6840498 L138.852289,87.9501689 C138.759203,88.6762469 138.466253,89.9953434 137.561667,90.667212" id="path58" fill="#FFFFFF"></path>
                        <path d="M158.363309,102.490347 C158.103761,103.776041 158.472823,103.964405 159.331413,104.267759 C160.140174,104.551401 159.998901,105.909374 159.842843,106.694043 L159.821488,106.803557 L159.715807,106.838053 C156.976314,107.74483 154.181516,108.600682 151.40643,109.381517 L151.106362,109.465843 L151.168237,109.159751 C151.28925,108.563447 151.676382,107.091578 152.639558,106.311291 C153.76591,105.397396 154.416423,104.813687 154.695136,103.442571 C155.410811,99.9348367 156.12539,96.4221742 156.838326,92.9051311 C153.815739,97.7407231 150.726896,102.574672 147.652289,107.283776 C146.087881,109.822311 146.096642,110.625596 146.096642,110.632167 L146.107046,110.79151 L145.952084,110.82984 C143.488018,111.445309 140.985075,112.018615 138.512248,112.533331 L138.240106,112.590278 L138.284459,112.315398 C138.380832,111.730045 138.707731,110.291031 139.664884,109.579737 C140.802187,108.733741 141.406157,108.229977 141.620804,106.903762 C142.465705,101.709511 143.310058,96.5108805 144.152768,91.3056788 C144.355917,90.0533858 143.957833,89.8338102 143.035178,89.4554392 C142.208347,89.1099225 142.286649,87.786993 142.407115,87.0302511 L142.427375,86.9032148 L142.552221,86.8741936 C145.349209,86.2280608 148.168648,85.5085536 150.931687,84.7370273 L151.219709,84.6570821 L151.17207,84.9511272 C151.076245,85.5435981 150.753179,87.0034201 149.810811,87.7634475 C148.679531,88.6746042 148.078299,89.2117705 147.866937,90.5303194 L146.113617,101.402325 C150.273508,95.19945 154.406019,88.8553024 158.404377,82.5314148 L158.441064,82.4728248 L158.506772,82.4514695 C159.794657,82.0336735 161.079257,81.6021882 162.360571,81.1564661 L162.675971,81.0464045 L162.610263,81.3738515 C161.199722,88.4298404 159.783706,95.4688546 158.363309,102.490347" id="path60" fill="#FFFFFF"></path>
                        <path d="M186.260365,71.0247758 C186.253247,71.0412029 185.543596,72.7074588 184.716217,76.0689919 C184.082131,78.5505798 183.44695,81.0277872 182.810673,83.5017091 C182.039694,86.4427083 181.910468,87.8001347 181.889112,88.1199157 L182.018339,88.2513325 L181.776861,88.3663222 C179.747566,89.3305932 177.682679,90.2680333 175.637504,91.1518115 C175.026416,91.4124549 174.545649,91.5400388 174.170016,91.5400388 C173.690345,91.5400388 173.465293,91.3237486 173.360708,91.1419553 C172.948935,90.429019 173.68925,89.0360005 173.696916,89.0217637 L173.72977,88.9659115 L173.78836,88.9412709 C174.505129,88.6395597 175.221351,88.3323729 175.955095,88.0142346 C175.972617,88.0087589 177.729222,87.3916474 178.310194,84.9330574 L179.393835,80.3597516 L179.397668,80.3389439 C179.448592,80.1084169 179.586032,79.3232013 179.230112,78.8818598 C178.862692,78.4240911 178.029838,78.4657065 176.803281,78.9924689 L176.803829,78.9995873 L176.641748,79.0625579 C175.934835,79.3396284 172.339489,81.0091698 171.033534,86.7022566 C170.405471,89.4658431 169.775218,92.2261442 169.14387,94.9826123 C168.718955,96.8487313 168.768237,98.1273076 169.291166,98.7832966 C169.555095,99.114029 169.94825,99.282133 170.458586,99.282133 C171.015465,99.282133 171.577819,99.0789845 171.829154,98.9705656 L171.826964,98.9607094 L171.982473,98.8960961 C176.647224,96.9604356 178.074739,92.584255 178.314027,91.7267602 L178.29979,91.5701551 L178.444896,91.5701551 C178.576313,91.518136 178.841885,91.4316199 179.138668,91.4316199 C179.514301,91.4316199 179.82313,91.5723454 180.031207,91.8401072 C180.434219,92.3586561 180.452836,93.3519484 180.087059,94.7898676 L178.958517,99.2175198 L178.974944,99.3544123 L178.826005,99.3538647 C178.812863,99.3576977 177.392466,99.8346313 175.070769,101.196438 C172.988907,102.418067 170.68966,103.369197 170.25927,103.511565 L170.26146,103.516493 C167.235588,104.711839 164.659818,104.451743 163.389455,102.87255 C162.614643,101.909375 162.378641,100.511976 162.724157,98.9371639 C163.599175,94.9185466 164.472549,90.8933584 165.344828,86.8566713 C166.886786,80.5891835 172.135246,77.1104704 176.269948,75.2947278 C176.715122,75.0800803 179.054889,73.9761788 181.399585,73.2687182 C183.774397,72.5563295 185.742911,70.9815177 185.960844,70.8046526 L186.016696,70.7586567 L186.084595,70.7586567 L186.37426,70.7586567 L186.260365,71.0247758" id="path62" fill="#FFFFFF"></path>
                        <path d="M68.0744678,114.171113 C65.9449676,114.153591 64.2918533,113.844761 63.969882,113.781243 C58.2050636,112.705815 53.9829145,108.012044 53.3765353,104.279258 C52.7487461,100.413413 52.1220521,96.5442823 51.4959604,92.6718663 C51.2632431,91.2257335 51.586857,89.9367534 52.4317578,88.9451039 C53.4834757,87.7103332 55.2684449,87.0302511 57.4565352,87.0302511 C58.2800807,87.0302511 59.1545502,87.1260759 60.0553031,87.3160827 C63.3029416,87.9961648 66.0966445,89.390826 68.1352481,91.3483892 L68.1834343,91.3949327 L68.7857615,95.8297033 L68.3701557,95.3642687 C67.0696766,93.9093748 64.6340846,92.1445562 61.7336056,91.5597513 L61.6542079,91.5466096 C61.3256658,91.4655692 60.9982189,91.4245015 60.6828185,91.4245015 C59.8981505,91.4245015 59.2865146,91.6720032 58.864338,92.1598882 C58.2269664,92.8969176 58.0353168,94.1716609 58.2943175,95.9468833 L59.4272401,103.726212 C60.1774112,108.907869 63.6402448,109.832167 64.4309361,109.97563 L64.4320312,109.966322 L64.6291565,110.001914 C66.292127,110.296506 67.470498,110.03203 68.0952755,109.223269 C68.9325103,108.13689 68.5382598,106.438327 68.5409976,106.438327 L68.3066376,105.961941 L68.7676916,106.177136 C69.2260079,106.279532 71.5323733,106.963995 71.9381228,110.436684 L72.4331262,114.687471 L72.1653644,114.62012 C72.1478421,114.616287 70.3961652,114.190278 68.0744678,114.171113" id="path64" fill="#FFFFFF"></path>
                    </g>
                </g>
            </g>
        </g>
    </g>
</svg>