<?xml version="1.0" encoding="UTF-8"?>
<svg width="200px" height="200px" viewBox="0 0 200 200" version="1.1" xmlns="http://www.w3.org/2000/svg" xmlns:xlink="http://www.w3.org/1999/xlink">
    <!-- Generator: Sketch 54.1 (76490) - https://sketchapp.com -->
    <title>macalester</title>
    <desc>Created with Sketch.</desc>
    <g id="macalester" stroke="none" stroke-width="1" fill="none" fill-rule="evenodd">
        <g id="macalester_BGL" fill="#00529B">
            <g id="macalester" transform="translate(22.000000, 0.000000)">
                <path d="M21.5383482,157.164744 L33.3509587,145.335496 L41.9424535,153.939092 L29.4990313,166.400041 C33.5779276,170.829435 38.0798224,175.318277 43.0047156,179.866565 L55.4190874,167.434708 L87.9385751,200 C93.2265272,195.941207 98.2017536,191.926364 102.864254,187.95547 L68.8957212,153.939092 L77.487216,145.335496 L111.981983,179.878849 C116.907135,175.330918 121.409374,170.842422 125.488702,166.413361 L90.9638499,131.83988 L111.090957,111.684422 L143.038229,143.676693 C146.862255,137.462012 149.769412,131.376186 151.759699,125.419215 L124.567591,98.1888064 L133.660634,89.0829555 L154.861876,110.31406 C154.953959,109.02891 155,107.750231 155,106.478022 L155,83.4611459 L147.137268,75.5873394 L155,67.7135329 L155,40.7223008 L133.660634,62.0917234 L125.06914,53.4881272 L155,23.5151086 L155,0 L151.528766,0 L111.592506,39.9925112 L91.4653983,19.8370541 L111.274551,7.13747031e-15 L84.321283,8.0296541e-15 L77.9887644,6.3414381 L71.6562458,7.13747031e-15 L39.1819289,9.81402168e-15 L32.8494103,6.3414381 L26.5168917,7.13747031e-15 L0,0 L19.3727764,19.8370541 L3.56371557e-15,39.2371176 L0,67.7391369 L8.3387121,76.0895943 L3.56371557e-15,84.4400516 L3.56371557e-15,106.478022 C3.56371557e-15,108.387122 0.103678081,110.310792 0.311034243,112.249034 L19.8743248,131.83988 L10.4989098,141.2285 C13.524698,146.448666 17.2045108,151.760748 21.5383482,157.164744 Z M65.4291752,131.83988 L55.4190874,141.864067 L45.4089995,131.83988 L55.4190874,121.815692 L65.4291752,131.83988 Z M99.0329166,98.1888064 L77.487216,119.764855 L67.4771282,109.740667 L89.0228288,88.1646191 L99.0329166,98.1888064 Z M121.602594,75.5873394 L111.090957,86.1137816 L101.08087,76.0895943 L111.592506,65.5631521 L121.602594,75.5873394 Z M77.9887644,31.912079 L99.534465,53.4881272 L89.0228288,64.0145694 L67.4771282,42.4385212 L77.9887644,31.912079 Z M55.4190874,54.513546 L76.9647879,76.0895943 L55.4190874,97.6656425 L33.8733868,76.0895943 L55.4190874,54.513546 Z M21.815346,88.1646191 L43.3610465,109.740667 L33.3509587,119.764855 L11.8052581,98.1888064 L21.815346,88.1646191 Z M43.3610465,42.4385212 L21.815346,64.0145694 L11.3037098,53.4881272 L32.8494103,31.912079 L43.3610465,42.4385212 Z M65.9307236,19.8370541 L55.4190874,30.3634963 L44.9074511,19.8370541 L55.4190874,9.31061203 L65.9307236,19.8370541 Z" id="Combined-Shape" fill-rule="nonzero"></path>
            </g>
        </g>
    </g>
</svg>