<?xml version="1.0" encoding="UTF-8"?>
<svg width="200px" height="200px" viewBox="0 0 200 200" version="1.1" xmlns="http://www.w3.org/2000/svg" xmlns:xlink="http://www.w3.org/1999/xlink">
    <!-- Generator: Sketch 54.1 (76490) - https://sketchapp.com -->
    <title>martin-luther</title>
    <desc>Created with Sketch.</desc>
    <g id="martin-luther" stroke="none" stroke-width="1" fill="none" fill-rule="evenodd">
        <g id="martin-luther_BGL">
            <g id="martin-luther" transform="translate(13.000000, 0.000000)">
                <path d="M112.734788,1.0212021 C120.966618,2.31472476 129.650106,5.50476561 135.876186,11.2089088 C141.223233,15.9356156 145.385285,22.7922583 146.031205,29.9990274 C147.109356,37.1814822 145.530981,44.4855087 142.884169,51.1622252 C142.160545,53.112235 141.32522,54.9990274 140.3442,56.8323283 C138.901809,59.5701225 137.318578,62.2301109 135.774199,64.9144135 C134.093837,63.470142 132.903986,61.5882124 131.194485,60.1585295 C127.00815,56.5697335 122.574132,53.0052519 117.722452,50.3501264 C115.192196,49.158724 112.80278,47.7144524 110.30652,46.4598327 C108.053087,45.5164365 105.765658,44.6751605 103.385955,44.0964793 C99.9329575,43.2746547 96.6499386,42.5889905 93.0998102,43.2795176 C86.8397343,44.2034624 81.4149827,48.1861506 77.2869264,52.8107372 C73.7562242,56.7934254 70.4197834,61.311029 68.3363291,66.2371134 C65.3592721,72.5880179 63.4457966,79.3036374 60.4930222,85.6594048 C58.2978676,90.2207742 56.2824048,94.7821436 53.4850396,99.0274266 C48.5362286,106.74966 41.193145,113.70356 32.1939824,116.217662 C26.0164676,118.196849 19.5912694,118.619918 13.1515016,118.201712 C13.9868259,117.739739 14.8512895,117.355573 15.7546053,117.029761 C19.1978899,115.784867 22.5440438,113.878623 25.7347884,112.074499 C32.2911131,108.41276 38.0509657,102.893406 41.5719549,96.2166894 C45.6708719,88.7910912 47.7154739,81.2341957 50.8479402,73.390391 C52.4166015,69.1305194 54.1261025,64.9435907 56.0929999,60.8490566 C59.5459975,52.7134799 64.1111421,44.8259094 69.9681255,38.17837 C71.2065424,36.675744 72.5032377,35.2314725 73.9796249,33.9622642 C77.6948755,30.8354406 81.2838562,27.7669714 85.7130178,25.6759385 C90.4335715,23.1132075 95.0764207,21.4744213 100.379759,20.5747909 C105.333426,19.4514686 110.398794,20.1176814 115.420453,19.8891266 C114.876521,18.9700447 114.337446,18.2017117 113.341856,17.7348765 C109.034107,15.5417234 104.425254,15.0213966 99.6512783,15.2159113 C90.8755164,15.6778837 82.6631126,18.8484731 75.3928771,23.6918887 C71.6582003,26.3470142 68.2634811,29.5127407 65.276711,32.9848279 C62.9795691,35.6496791 61.1632243,38.5722622 59.1623311,41.4462167 C56.8797588,44.7432406 55.0294183,48.2882708 52.809981,51.6290605 C46.1662387,61.9577903 40.6637825,72.4858977 31.9560121,81.3265902 C26.9634922,86.383972 20.7859774,90.118654 13.7439991,91.4219024 C10.6358156,92.165921 7.53248856,91.9227777 4.39516579,92.3069442 C2.92849168,92.4625559 1.65607904,92.4382416 0.291392207,91.8060689 C2.86050017,90.4493289 5.60929999,89.5399728 8.12984258,88.0762498 C15.7643184,84.0497958 22.7237356,78.3164754 27.7793904,71.2847695 C31.3829407,66.397588 34.6173942,61.2624003 37.1719326,55.7430461 C41.8390644,47.3059716 46.6421793,38.6063023 52.4845931,30.9278351 C55.9084515,25.7002529 59.8179636,20.7741684 64.0625768,16.1933476 C68.2926203,12.0161447 72.8431953,8.27659988 78.224238,5.67982883 C88.7774925,0.243143357 101.142235,-0.588406925 112.734788,1.0212021 Z" id="Shape" fill="#DE1B22" fill-rule="nonzero"></path>
                <path d="M110.30652,46.4598327 C112.80278,47.7144524 115.192196,49.158724 117.722452,50.3501264 C115.342749,50.6273099 112.94362,50.4960124 110.588199,50.8510018 C103.152841,51.8527524 95.377526,54.4397977 89.4039857,59.0984244 C84.2803394,62.993581 80.9876075,68.9116903 80.0648655,75.257732 C79.8414648,78.4429099 79.9240259,81.6669909 80.0648655,84.8570317 C80.3271185,87.0258705 80.7836329,89.1898463 81.2207212,91.3343707 C82.5174165,97.4080918 85.3487775,103.175452 86.1258234,109.249173 C86.6697555,113.14433 85.4896171,117.156195 83.8869599,120.672048 C82.2405939,124.124684 79.8366082,127.275822 76.840125,129.66349 C74.8975103,131.277961 72.4886681,132.299164 70.2789438,133.500292 C77.2237914,141.373274 83.7898292,149.703365 91.089204,157.206769 C93.6923077,159.784089 96.2274199,162.444077 98.9227978,164.924139 C109.004968,174.163587 120.995758,181.535693 134.249246,185.143941 C136.905772,185.776114 139.659428,186.748687 142.393659,186.831356 C145.904935,183.266874 148.901418,179.031317 151.567657,174.800622 C154.335883,169.932892 156.953556,164.593464 158.201686,159.10815 C160.265714,151.750632 160.100592,143.629644 159.046723,136.116514 C156.385341,137.050185 153.971642,137.51702 151.130568,137.303054 C148.095233,137.337094 145.851513,135.878234 143.47181,134.224859 C141.742883,138.115153 140.09166,142.039486 138.323881,145.910329 C137.541978,147.855476 136.420118,149.333787 136.862063,151.546392 C137.590544,155.689555 138.46472,160.353044 140.73758,163.936977 C139.319471,163.83972 137.896506,163.80568 136.478397,163.776503 C134.598917,160.19257 133.690745,156.341179 133.025399,152.377942 C132.690298,149.455359 132.146366,146.333398 132.330914,143.386501 C132.928268,141.883875 134.025846,140.561175 134.817461,139.150943 C138.280172,133.179343 141.538908,127.163976 144.302278,120.837386 C146.929664,115.322894 148.857709,109.574985 150.94602,103.851391 C151.018868,109.56526 148.94027,115.463918 147.143352,120.832523 C148.396338,119.563315 149.251089,118.050963 150.139835,116.51916 C154.525287,109.268625 158.177403,101.633923 161.440996,93.8192959 C161.950932,92.3555728 162.727978,90.9647928 161.513844,89.5983272 C159.852908,87.7212605 158.031707,85.6934449 155.92397,84.3269792 C154.496148,83.7337094 153.602545,85.907411 153.107179,86.8751216 C154.340739,88.2318615 155.666574,89.4913441 156.977839,90.775141 C157.303227,91.1495818 157.847159,91.5337483 157.701463,92.1027038 C157.264374,92.8564482 156.497041,93.449718 155.919114,94.106205 C154.17076,95.8714258 152.791504,97.8992414 151.475382,100 C141.407782,95.6282824 131.082784,91.8936005 120.500391,88.980743 C113.327286,87.0842249 105.80451,85.3335927 98.3934353,85.0807236 C96.907335,84.2491733 95.6980574,82.8583933 94.2508094,81.9052713 C97.8252205,80.747909 101.302501,80.8500292 104.998325,80.4075083 C109.510048,80.3053881 114.089762,80.1789535 118.577202,80.6701031 C124.982974,80.8305777 131.349894,81.808014 137.488556,83.6559035 C139.703137,84.3415678 141.70403,85.3919471 143.787485,86.3693834 C143.277548,82.7514102 142.063414,79.2112429 140.990119,75.7245672 C140.179078,73.0159502 139.028079,70.4532192 137.72167,67.9488426 C142.155688,71.7370161 144.399408,78.5158529 146.400301,83.821241 C148.624595,81.7496596 150.67891,79.4349348 152.378698,76.9111068 C153.262588,75.8266874 152.597242,74.5915192 152.315563,73.3952538 C150.839176,68.9214161 148.362342,64.6858588 145.220163,61.1797316 C143.743776,59.589574 141.932288,58.3300914 140.3442,56.8323283 C141.32522,54.9990274 142.160545,53.112235 142.884169,51.1622252 C150.159261,55.1157362 155.860835,61.6076639 158.881601,69.3201712 C159.517807,70.9151916 159.940326,72.5637036 160.498828,74.1830383 C159.187563,75.4182066 157.924863,76.682552 156.778721,78.0684692 C160.294853,80.8792064 164.17037,84.0935616 166.569499,87.9546781 C167.259127,89.2725151 168.206152,90.4541918 167.565089,91.9908578 C164.345205,103.379693 157.997711,114.170395 150.83432,123.516826 C149.275371,125.607858 147.502735,127.387668 146.147762,129.605135 C147.366752,130.626337 148.44976,131.642677 150.013565,132.114375 C152.582673,132.829216 155.161494,132.284575 157.468349,131.029955 C157.15753,128.924334 156.249358,127.110484 155.472312,125.160475 C158.240538,124.927057 160.999051,125.111846 163.76242,124.713091 C166.958022,124.54289 170.245897,124.426182 173.446355,124.581793 C173.674612,128.846528 173.820308,133.17448 173.465781,137.434351 C172.727587,151.886792 168.356704,166.139856 161.188456,178.686053 C156.982695,185.737211 151.961036,192.768917 145.943787,198.390391 C144.84621,199.610971 143.248409,198.905855 141.903148,198.584906 C125.99799,193.84361 109.291504,187.589963 95.7563358,177.801011 C88.1072904,172.130908 81.3227085,164.890099 74.6741096,158.082085 C70.6577537,153.856254 67.1221949,149.630422 62.3142235,146.158335 C58.3367199,143.415678 53.5093223,141.718537 48.6722117,141.596966 C43.3931562,141.601828 38.7357374,144.57304 35.0641956,148.137522 C32.1794127,151.181677 29.6588702,154.551644 27.7016858,158.266874 C27.3034498,158.845555 27.133471,159.5993 26.3758513,159.745186 C21.8398459,155.674966 16.9056046,151.56098 10.9272078,149.883291 C9.06715418,149.324061 7.27023557,149.469947 5.36647315,149.421319 C5.98810986,148.47306 6.63888579,147.544252 7.36736631,146.673799 C12.1364854,140.886987 17.3184102,135.503793 23.4133638,131.098035 C30.3436418,125.909356 39.337948,121.732153 48.1574188,122.194126 C53.2422128,122.378915 57.9433404,124.178175 62.2656581,126.774947 C63.431227,127.484925 64.4753824,128.418596 65.68466,129.045905 C66.5685497,129.157751 67.5641398,128.763859 68.3751814,128.44291 C71.3910908,127.115347 74.198169,125.403618 76.3301887,122.850613 C78.5690521,120.137133 80.5165234,116.68936 80.9438986,113.154056 C81.4101262,108.97199 80.2494139,105.242171 78.8555878,101.376191 C76.631294,95.2732931 75.0334934,89.0099202 74.6304008,82.5082669 C74.5818354,79.1480257 74.3681478,75.9968878 75.1549068,72.729041 C76.8255554,64.019646 82.4834208,56.477339 90.0693312,52.0035013 C94.6441889,49.1392725 99.8358267,47.6171951 105.085743,46.5035985 C106.877805,46.231278 108.548454,45.8325229 110.30652,46.4598327 Z" id="Shape" fill="#242021" fill-rule="nonzero"></path>
                <path d="M110.588199,50.8510018 C112.94362,50.4960124 115.342749,50.6273099 117.722452,50.3501264 C122.574132,53.0052519 127.00815,56.5697335 131.194485,60.1585295 C132.903986,61.5882124 134.093837,63.470142 135.774199,64.9144135 C137.318578,62.2301109 138.901809,59.5701225 140.3442,56.8323283 C141.932288,58.3300914 143.743776,59.589574 145.220163,61.1797316 C148.362342,64.6858588 150.839176,68.9214161 152.315563,73.3952538 C152.597242,74.5915192 153.262588,75.8266874 152.378698,76.9111068 C150.67891,79.4349348 148.624595,81.7496596 146.400301,83.821241 C144.399408,78.5158529 142.155688,71.7370161 137.72167,67.9488426 C139.028079,70.4532192 140.179078,73.0159502 140.990119,75.7245672 C142.063414,79.2112429 143.277548,82.7514102 143.787485,86.3693834 C141.70403,85.3919471 139.703137,84.3415678 137.488556,83.6559035 C131.349894,81.808014 124.982974,80.8305777 118.577202,80.6701031 C114.089762,80.1789535 109.510048,80.3053881 104.998325,80.4075083 C101.302501,80.8500292 97.8252205,80.747909 94.2508094,81.9052713 C95.6980574,82.8583933 96.907335,84.2491733 98.3934353,85.0807236 C105.80451,85.3335927 113.327286,87.0842249 120.500391,88.980743 C131.082784,91.8936005 141.407782,95.6282824 151.475382,100 C152.791504,97.8992414 154.17076,95.8714258 155.919114,94.106205 C156.497041,93.449718 157.264374,92.8564482 157.701463,92.1027038 C157.847159,91.5337483 157.303227,91.1495818 156.977839,90.775141 C155.666574,89.4913441 154.340739,88.2318615 153.107179,86.8751216 C153.602545,85.907411 154.496148,83.7337094 155.92397,84.3269792 C158.031707,85.6934449 159.852908,87.7212605 161.513844,89.5983272 C162.727978,90.9647928 161.950932,92.3555728 161.440996,93.8192959 C158.177403,101.633923 154.525287,109.268625 150.139835,116.51916 C149.251089,118.050963 148.396338,119.563315 147.143352,120.832523 C148.94027,115.463918 151.018868,109.56526 150.94602,103.851391 C148.857709,109.574985 146.929664,115.322894 144.302278,120.837386 C141.538908,127.163976 138.280172,133.179343 134.817461,139.150943 C134.025846,140.561175 132.928268,141.883875 132.330914,143.386501 C132.146366,146.333398 132.690298,149.455359 133.025399,152.377942 C133.690745,156.341179 134.598917,160.19257 136.478397,163.776503 C137.896506,163.80568 139.319471,163.83972 140.73758,163.936977 C138.46472,160.353044 137.590544,155.689555 136.862063,151.546392 C136.420118,149.333787 137.541978,147.855476 138.323881,145.910329 C140.09166,142.039486 141.742883,138.115153 143.47181,134.224859 C145.851513,135.878234 148.095233,137.337094 151.130568,137.303054 C153.971642,137.51702 156.385341,137.050185 159.046723,136.116514 C160.100592,143.629644 160.265714,151.750632 158.201686,159.10815 C156.953556,164.593464 154.335883,169.932892 151.567657,174.800622 C148.901418,179.031317 145.904935,183.266874 142.393659,186.831356 C139.659428,186.748687 136.905772,185.776114 134.249246,185.143941 C120.995758,181.535693 109.004968,174.163587 98.9227978,164.924139 C96.2274199,162.444077 93.6923077,159.784089 91.089204,157.206769 C83.7898292,149.703365 77.2237914,141.373274 70.2789438,133.500292 C72.4886681,132.299164 74.8975103,131.277961 76.840125,129.66349 C79.8366082,127.275822 82.2405939,124.124684 83.8869599,120.672048 C85.4896171,117.156195 86.6697555,113.14433 86.1258234,109.249173 C85.3487775,103.175452 82.5174165,97.4080918 81.2207212,91.3343707 C80.7836329,89.1898463 80.3271185,87.0258705 80.0648655,84.8570317 C79.9240259,81.6669909 79.8414648,78.4429099 80.0648655,75.257732 C80.9876075,68.9116903 84.2803394,62.993581 89.4039857,59.0984244 C95.377526,54.4397977 103.152841,51.8527524 110.588199,50.8510018 Z" id="Shape" fill="#FFFFFF" fill-rule="nonzero"></path>
                <path d="M115.702132,54.7753355 C104.896338,56.6280879 94.8918723,63.616028 90.2684493,73.7064773 C87.5002233,79.1285742 86.6843251,84.8327174 86.1161103,90.8189068 C84.6882885,86.7730014 84.7077146,82.8194904 84.8388411,78.5985217 C85.3196383,73.4681968 87.1165569,68.5421124 90.6472591,64.7296246 C94.9987161,59.7792258 101.831863,56.9490372 108.159931,55.6457888 C110.777604,55.232445 113.016468,54.2744602 115.702132,54.7753355 Z" id="Shape" fill="#242021" fill-rule="nonzero"></path>
                <path d="M119.601931,93.8338845 C120.534387,93.9311418 121.423133,94.1013422 122.321592,94.3785256 C129.382997,96.5133243 136.264709,99.085781 143.146422,101.731181 C144.156581,102.129936 145.147315,102.57732 146.133192,103.034429 C142.553924,112.458666 139.057218,122.019062 134.351234,130.791675 C133.817015,131.812877 133.146813,132.731959 132.398906,133.607275 C133.093391,130.679829 134.215251,127.88368 134.929162,124.956234 C136.424975,119.164559 137.935358,113.202684 138.36759,107.226221 C133.792732,103.554756 129.086748,100.082669 124.210785,96.8245478 C122.690689,95.8373857 120.961762,95.0009726 119.601931,93.8338845 Z" id="Shape" fill="#242021" fill-rule="nonzero"></path>
                <path d="M91.9536675,98.2688193 C93.8185776,98.3077222 95.6446355,98.5849057 97.4901195,98.8037347 C98.7771017,101.88193 99.6464218,105.081696 100.413755,108.315503 C100.651725,109.181093 100.845986,110.129352 101.287931,110.917137 C102.001842,111.383972 102.827453,111.709784 103.604499,112.064773 C108.42704,114.102315 112.729932,117.472282 116.4209,121.138883 C122.307022,127.241782 127.051859,135.338456 128.134867,143.833884 C126.673049,142.195098 125.910573,139.992219 124.677012,138.139467 C119.665066,130.193542 113.016468,122.510212 104.954617,117.559813 C102.395222,115.916164 99.5735737,115.026259 96.6596517,114.228749 C96.1400022,111.038708 95.4066652,107.892433 94.3139444,104.848279 C93.595177,102.601634 92.4927431,100.568955 91.9536675,98.2688193 Z" id="Shape" fill="#242021" fill-rule="nonzero"></path>
                <path d="M90.7055376,116.329508 C91.0017863,116.100953 91.3077481,116.071776 91.6185665,116.241976 C92.6675784,116.674771 93.668025,117.253453 94.6781847,117.778642 C93.804008,121.114569 92.2499163,124.30461 90.4578542,127.236919 C87.9664508,131.22447 84.2463436,135.333593 79.7831863,137.059911 C79.1712627,136.335343 78.5350564,135.639953 77.889137,134.944563 C79.4966507,133.51488 81.2061516,132.235946 82.711678,130.689555 C85.4896171,128.010115 87.7381936,124.693639 89.2194373,121.134021 C89.8944959,119.587629 90.0936139,117.885625 90.7055376,116.329508 Z" id="Shape" fill="#242021" fill-rule="nonzero"></path>
                <path d="M85.9898403,136.95779 C87.4273752,139.160669 88.6075137,141.334371 90.4092888,143.294106 C96.1254326,149.713091 103.81333,154.055631 111.831473,156.910134 C119.932176,159.63334 127.396673,164.155806 133.180808,170.496985 C135.847047,173.098619 137.629396,176.171951 139.630289,179.264734 C140.222787,178.423458 140.752149,177.553005 141.096963,176.575569 C142.291671,173.259094 143.282405,169.811321 144.010885,166.368411 C144.953053,160.897685 145.895222,155.850029 143.889472,150.461972 C143.578654,149.435907 142.670481,148.11807 143.131852,147.057965 C143.860333,145.049601 144.763649,143.002334 145.802947,141.134993 C146.83739,142.292356 147.614436,143.522661 148.002959,145.044738 C148.770291,148.088893 149.260802,151.099008 148.731439,154.230694 C147.983532,163.625754 144.457687,173.132659 140.659875,181.701031 C139.227197,180.441548 138.153902,178.904882 136.808641,177.562731 C129.567545,170.496985 120.859774,164.812293 111.083566,162.030733 C99.5152953,158.967127 89.6128168,150.841276 82.8573741,141.125267 C82.5951211,140.687609 82.187172,140.220774 82.4882773,139.695585 C83.5372893,138.66952 84.8145584,137.842832 85.9898403,136.95779 Z" id="Shape" fill="#242021" fill-rule="nonzero"></path>
            </g>
        </g>
    </g>
</svg>