<?xml version="1.0" encoding="UTF-8"?>
<svg width="200px" height="200px" viewBox="0 0 200 200" version="1.1" xmlns="http://www.w3.org/2000/svg" xmlns:xlink="http://www.w3.org/1999/xlink">
    <!-- Generator: Sketch 55.2 (78181) - https://sketchapp.com -->
    <title>maryville-mo</title>
    <desc>Created with Sketch.</desc>
    <defs>
        <linearGradient x1="-0.00043510894%" y1="49.999921%" x2="99.9995647%" y2="49.999921%" id="linearGradient-1">
            <stop stop-color="#D02229" offset="0%"></stop>
            <stop stop-color="#6E0E10" offset="100%"></stop>
        </linearGradient>
        <linearGradient x1="25.9138206%" y1="50.9870175%" x2="82.6567746%" y2="49.5095492%" id="linearGradient-2">
            <stop stop-color="#EC1D24" offset="0%"></stop>
            <stop stop-color="#6E0E10" offset="100%"></stop>
        </linearGradient>
    </defs>
    <g id="maryville-mo" stroke="none" stroke-width="1" fill="none" fill-rule="evenodd">
        <g id="maryville-mo_BGL">
            <g id="Group-2" transform="translate(0.000000, 21.000000)">
                <path d="M99.9910174,59.0429149 L99.9910174,59.0319377 L100.00064,59.0373479 L100.009992,59.0319377 L100.009992,59.0426057 L100.062677,59.0722263 L200,8.38440428e-12 L200,47.4519724 L192.915833,51.6923528 L192.915833,87.798034 L200,83.3975062 L200,124.00343 L144.159322,158 L144.159322,99.2944004 L100.009992,125.408129 L100.007973,125.417561 L100.001009,125.413442 L99.9940452,125.417561 L99.9910174,125.41454 L99.9910174,125.407532 L55.8416877,99.2944004 L55.8416877,158 L1.42108547e-14,124.00343 L1.42108547e-14,83.3975062 L7.11545507,87.8604814 L7.11545507,51.7558074 L1.42108547e-14,47.4519724 L1.42108547e-14,8.38440428e-12 L99.9403513,59.0722263 L99.9910174,59.0429149 Z" id="Combined-Shape" fill="#000000"></path>
                <polygon id="Path" fill="#FFFFFF" fill-rule="nonzero" points="100.015584 65.2222418 195 9 195 45.2623408 188.741041 49.0298227 188.741041 95.5587598 195 91.6571931 195 121.150078 149.379705 149 149.379705 90.0107316 100 119.403534 50.620295 90.0107316 50.620295 149 5 121.150078 5 91.6564955 11.2569414 95.5580622 11.2569414 49.0296095 5 45.2621276 5 9.00069008"></polygon>
                <polygon id="Fill-3" fill="url(#linearGradient-1)" points="7 13 7 44.0062715 13.2705179 47.7744158 13.2705179 99.6824435 7 95.7801908 7 119.916683 48.1703021 145 48.1703021 86.0527924 99.9316434 116.801939 100 116.719025 99.9307336 67.8977381"></polygon>
                <polygon id="Fill-8" fill="url(#linearGradient-2)" points="193 13 193 44.0062715 186.722846 47.7744158 186.722846 99.6824435 193 95.7801908 193 119.916683 151.799415 145 151.799415 86.0527924 100 116.801939 100 67.8977381"></polygon>
            </g>
        </g>
    </g>
</svg>