<?xml version="1.0" encoding="UTF-8"?>
<svg width="200px" height="200px" viewBox="0 0 200 200" version="1.1" xmlns="http://www.w3.org/2000/svg" xmlns:xlink="http://www.w3.org/1999/xlink">
    <!-- Generator: Sketch 54.1 (76490) - https://sketchapp.com -->
    <title>marymount-va</title>
    <desc>Created with Sketch.</desc>
    <g id="marymount-va" stroke="none" stroke-width="1" fill="none" fill-rule="evenodd">
        <g id="marymount-va_BGL" transform="translate(0.000000, -0.000000)">
            <g id="marymount-va" transform="translate(0.000000, 60.000000)">
                <g id="g10" transform="translate(99.999998, 40.560919) scale(-1, 1) rotate(-180.000000) translate(-99.999998, -40.560919) translate(0.000000, 0.331035)" fill-rule="nonzero">
                    <g id="g12" transform="translate(0.045977, 0.045977)">
                        <path d="M107.970572,24.4382063 C105.223446,27.546712 105.529193,31.6781601 106.235859,36.034114 C106.918618,36.036275 107.43494,36.0378842 107.942526,36.0394934 C107.884595,35.3448267 107.796779,34.7318612 107.790342,34.1381141 C107.766894,32.0454245 108.152641,30.1627119 109.777009,28.9990797 C111.403675,27.8340683 113.663905,28.2817924 115.185284,30.0257004 C116.930572,32.0267578 116.788503,35.3024359 114.917239,36.3408727 C114.840457,35.6377462 114.824365,34.9328267 114.669422,34.2217922 C114.485974,33.3807348 114.037698,32.5765049 113.052411,32.3268498 C112.07402,32.0795394 111.260227,32.3277693 111.015629,33.1829877 C110.768733,34.0465279 110.728733,35.0095164 110.589423,35.9899301 C111.17517,36.1253784 111.530112,36.2074474 111.863445,36.2845048 C112.076319,37.0998611 112.270342,37.8462519 112.460687,38.5763209 C112.085514,38.6675852 111.770112,38.7439071 111.165974,38.8904358 C112.037239,40.0411484 112.712641,41.1336082 113.592641,42.0495622 C114.929652,43.4403667 116.725514,43.9827575 117.983445,43.5194012 C119.362296,43.0113093 119.391721,41.6954013 119.13471,40.3248726 C118.877698,38.9561829 118.439077,37.5737922 118.029882,36.0030336 C119.528273,37.0143899 121.125974,37.8791255 122.472641,39.0414703 C126.669882,42.6645047 126.902066,48.3291942 123.025744,50.1282746 C119.99402,51.5347114 116.279537,50.2464355 113.178848,46.6951712 C111.252871,44.4892403 109.956779,42.0422058 108.957239,39.5102519 C108.657469,38.7496542 108.239538,38.6643209 107.639078,38.6628956 C106.956779,38.6611025 106.988503,39.0806427 107.178388,39.6025277 C107.912641,41.6208725 108.532411,43.6616541 109.417009,45.651769 C111.767354,50.9429872 115.287353,55.2850561 121.03494,57.6413779 C121.085054,57.6616078 121.122756,57.7503434 121.216549,57.8726422 C117.471261,62.5052858 115.203216,67.97655 114.959537,74.7843659 L143.39264,74.7843659 L131.352181,29.8358613 C130.996319,28.4762752 130.818388,27.2463901 130.818388,26.1420683 C130.818388,22.1246431 133.375169,20.1176547 138.488732,20.1176547 C145.156318,20.1176547 149.348042,23.3545282 151.063444,29.8275855 L163.103444,74.7356303 L192.815627,74.7843659 L179.416087,24.6813787 C175.920455,11.7025744 167.699306,5.21337918 154.7531,5.21337918 L114.457009,5.21337918 C105.317699,5.21337918 100.287814,8.47503427 99.3416067,14.9779307 C101.470802,18.6781605 103.742526,22.2722753 107.970572,24.4382063 Z M97.9921815,36.7027577 C98.1117217,37.1596772 98.2257447,37.5996772 98.3595378,38.1111715 C102.811492,38.1251944 107.236319,38.1393554 111.788503,38.1537462 C111.657009,37.6496083 111.548043,37.232045 111.421147,36.7451485 C106.936089,36.7309416 102.511262,36.7169646 97.9921815,36.7027577 L97.9921815,36.7027577 Z M66.386665,5.21337918 L76.4363199,42.4504357 L54.1039067,14.5346663 L46.821608,42.4504357 L36.8204129,5.21337918 L7.10827568,5.21337918 L21.7701144,59.8308031 L23.2947121,65.5576995 L13.7036778,74.7714924 L25.7478614,74.7714924 L25.7512637,74.7843659 L55.4671251,74.7843659 L62.7535616,46.7954011 L85.0822967,74.7843659 L113.680457,74.7843659 L114.549882,74.7843659 C110.856089,68.0822971 105.688733,62.270803 99.4032159,57.8905733 C103.308043,55.9521825 105.042296,52.6528722 105.067124,48.3282747 C105.082296,45.6555391 104.618388,42.8531024 104.241377,40.0931944 C104.027584,38.5276772 103.788503,38.434068 102.230802,38.8194933 C102.306664,39.4797232 102.393101,40.1585737 102.460687,40.8345737 C102.753561,43.7607805 102.443216,46.4358609 100.828503,48.5466655 C100.001837,49.6280447 98.9383883,50.4073551 97.3857447,50.5701137 C93.4947103,50.9779298 88.1852852,47.8970103 87.7618369,42.0341139 C87.5770093,39.4716312 89.5558598,36.7304359 91.7917218,36.332275 C91.8165494,36.6682749 91.7843655,36.9836772 91.8740207,37.2965048 C92.2744805,38.6964588 92.5531011,40.1282289 93.1760896,41.4865277 C93.8487333,42.9531024 95.0864344,43.6081368 96.49517,43.6046886 C98.7797676,43.5993093 100.263906,41.0262059 99.3002274,38.7011485 C98.8432159,38.6571485 98.3788481,38.612091 97.8974688,38.5655623 C97.6753999,37.7135623 97.4740206,36.9414703 97.2685033,36.1533784 C97.7963194,36.114206 98.2441355,36.0810106 99.0078136,36.0244129 C98.1898826,34.8924129 97.5668941,33.8814704 96.7829861,32.990298 C96.0905723,32.2036774 95.1650551,32.0321371 94.3834459,32.3126888 C93.601377,32.5926888 93.6147103,33.3778842 93.8551701,34.1695624 C94.0639057,34.8552635 94.4068942,35.5354014 94.6905723,36.2180221 C93.8671241,35.7394014 93.133331,35.2007807 92.527354,34.5560451 C90.8257449,32.7457003 90.5039058,30.3416084 91.7236759,29.0409648 C92.8459747,27.8440913 94.9176988,28.0427579 96.9673539,29.5714935 C98.8924113,31.0068038 100.21471,32.8216544 101.100687,34.8834474 C101.69471,36.26616 101.730572,36.2965048 103.103905,35.9437692 C101.707584,31.6285969 99.6717216,27.6045051 95.4643654,24.4845511 C98.2197677,22.4299765 99.0873538,19.4308501 99.0147102,15.9401835 L96.1475838,5.21337918 L66.386665,5.21337918 Z M161.063444,77.3898831 L148.494249,30.5080912 C147.076778,25.1603672 143.991261,22.7751259 138.488732,22.7751259 C134.834479,22.7751259 133.475859,23.6873098 133.475859,26.1420683 C133.475859,27.0124131 133.625744,28.0253326 133.919537,29.1479993 L146.855629,77.4418371 L83.8022968,77.4418371 L63.9875846,52.6041366 L57.5213779,77.4418371 L6.95797684,77.4285038 L20.1957696,64.2524122 L3.86727806,3.39224359 L3.64331945,2.55549419 L38.8582979,2.55549419 L46.7839069,32.0648268 L52.869424,8.73655151 L70.5498833,30.8372866 L62.9163203,2.55549419 L98.1880435,2.55549419 L99.6036757,7.85149406 C102.570572,4.38020679 107.667584,2.55549419 114.457009,2.55549419 L154.7531,2.55549419 C168.990341,2.55549419 178.152179,9.76832159 181.983903,23.9944362 L196.279076,77.4473544 L161.063444,77.3898831 L161.063444,77.3898831 Z" id="path14" fill="#FFFFFF"></path>
                        <path d="M103.743446,57.9714928 C106.263905,55.6133319 107.588043,52.345286 107.611032,48.3425275 C107.611951,48.1599988 107.611032,47.9779298 107.608273,47.7949413 C110.020687,52.755401 113.257928,56.3576997 117.436779,58.7204583 C115.497009,61.6308031 114.126894,64.7360903 113.309422,68.0836765 C110.570112,64.2951708 107.342526,60.880918 103.743446,57.9714928 Z M117.037238,46.221608 C117.669422,46.221608 118.285974,46.1190793 118.862986,45.9064356 C119.963675,45.5010563 121.589882,44.4768265 121.777008,41.9508035 C123.023905,43.4594012 123.349422,45.0370104 123.207353,46.0547115 C123.088273,46.9071253 122.678618,47.4845965 121.954939,47.8202287 C120.327813,48.575631 118.21471,47.941608 116.222526,46.1659759 C116.495629,46.2027575 116.767813,46.221608 117.037238,46.221608 L117.037238,46.221608 Z M96.6859746,48.0620678 C95.3553999,48.0620678 93.8137908,47.4708034 92.641377,46.4891942 C91.6666644,45.6727805 90.4689633,44.2054702 90.2993081,41.8509415 C90.2845954,41.6462059 90.3002276,41.4357231 90.3402276,41.2253783 C90.4887334,41.6607346 90.6593081,42.1011024 90.863446,42.5468955 C91.9135609,44.8367345 93.9618367,46.1485046 96.4836757,46.1485046 C96.4896528,46.1485046 96.49517,46.1485046 96.501147,46.1485046 C97.691032,46.1462057 98.805055,45.771723 99.7324113,45.0874471 C99.5319515,45.823631 99.2252849,46.455631 98.8078136,47.0013781 C98.2133309,47.7788494 97.7034458,47.9788494 97.1209171,48.0399988 C96.9788482,48.0547114 96.8340206,48.0620678 96.6859746,48.0620678 Z M96.4841355,41.0606886 C96.225285,41.0606886 96.0363194,41.0134702 95.8905723,40.9272633 L96.6868941,41.0041369 C96.5921815,41.0632174 96.5209171,41.0608725 96.4841355,41.0606886 L96.4841355,41.0606886 Z M95.8836758,40.9231254 C95.7020666,40.8133783 95.5875838,40.6424358 95.4882735,40.4258381 C95.3383884,40.0989415 95.2101126,39.7541139 95.0937907,39.3949415 L95.5544804,39.6627117 L95.8836758,40.9231254 Z M115.221147,39.0815163 L116.099307,38.5942979 C116.311721,39.3678151 116.504825,40.1034473 116.63448,40.7941599 C116.65471,40.9046427 116.670802,41.0014243 116.682756,41.0862059 C116.388043,41.0032174 115.984825,40.8128725 115.572871,40.4304817 L115.221147,39.0815163 Z M99.2096527,24.3356776 C99.8243653,23.5255167 100.317239,22.628965 100.689653,21.6436776 C101.752641,22.9590339 102.960457,24.1733327 104.413331,25.230804 C103.721377,26.6657465 103.380687,28.1839073 103.259308,29.7246889 C102.268043,27.8959993 100.970112,26.0477695 99.2096527,24.3356776 Z M69.708504,7.75719521 L94.1940206,7.75719521 L96.4744803,16.2900686 C96.4850551,19.2308041 95.6983884,21.1365052 93.9434459,22.4455627 L91.201377,24.4906661 L92.9236758,25.7677695 C91.7512621,25.9098384 90.6942506,26.4197235 89.8680437,27.300643 C88.1176989,29.1668498 87.9967794,32.030344 89.3848254,34.5391716 C86.8174691,35.9726888 85.0009174,39.1214243 85.2248255,42.2171484 C85.4570094,45.4409184 86.9310323,48.3429873 89.3747104,50.3898838 C91.7521816,52.3806883 94.8445953,53.3940217 97.651032,53.1002286 C99.4418366,52.9121826 100.982066,52.1429872 102.241377,50.8091941 C101.708963,52.9949412 100.412871,54.5489642 98.2721815,55.6119526 L94.4248252,57.5218376 L97.9489631,59.9779295 C102.638618,63.2459754 106.749882,67.4349408 110.009652,72.240458 L86.3071243,72.240458 L61.5724123,41.2356312 L53.5006883,72.240458 L27.6943441,72.240458 L25.7478614,72.2275844 L20.0239075,72.2275844 L26.1389879,66.3531018 L24.2284592,59.1765502 L10.4252871,7.75719521 L34.8692405,7.75719521 L46.8570103,52.3912631 L55.2855159,20.0836777 L82.0717221,53.5664354 L69.708504,7.75719521 Z M102.010572,14.5075399 C102.697009,11.3931491 105.016089,7.75719521 114.457009,7.75719521 L154.7531,7.75719521 C166.508961,7.75719521 173.772409,13.5095169 176.959536,25.3430338 L189.500685,72.2349407 L165.056088,72.1949407 L153.520456,29.1688269 C151.510801,21.5856546 146.31264,17.5737927 138.488732,17.5737927 C135.417468,17.5737927 128.27402,18.4087811 128.27402,26.1420683 C128.27402,27.456551 128.481836,28.9163211 128.891031,30.4800452 L140.077238,72.240458 L117.71356,72.240458 C118.321376,67.4639064 120.126894,63.2666651 123.194939,59.4726422 L124.45425,57.9144813 L123.235399,56.3250561 C123.127353,56.1586193 122.752181,55.5954009 121.998158,55.2864354 C120.423905,54.6413779 119.006894,53.8202285 117.727353,52.8032171 C119.902066,53.4606883 122.100227,53.3618377 124.096549,52.435401 C126.377468,51.3770102 127.890572,49.3080447 128.246434,46.7586195 C128.714939,43.4042748 127.139767,39.7094243 124.13471,37.1156772 C123.068043,36.1948497 121.925514,35.4739761 120.820687,34.7765968 C120.362756,34.4874474 119.902986,34.1981141 119.45333,33.8947578 L118.951721,33.5558612 C119.004135,31.6882291 118.335169,29.766528 117.102526,28.3536085 C115.142986,26.1072177 112.321377,25.2941603 109.883216,26.1154936 L112.046434,23.6675856 L109.130112,22.1738385 C105.842296,20.4892409 103.900227,17.7227122 102.010572,14.5075399 L102.010572,14.5075399 Z M154.7531,0.0114942526 L114.457009,0.0114942526 C108.992181,0.0114942526 104.43402,1.14062526 101.022986,3.30980681 L100.141147,0.0114942526 L59.594941,0.0114942526 L64.9144811,19.7205512 L51.6878148,3.18767808 L46.7480448,22.1240914 L40.8092863,0.0114942526 L0.328125049,0.0114942526 L17.357057,63.488734 L0.0114942526,79.9714923 L59.4873548,79.9866647 L65.168734,58.1641365 L82.5774692,79.9857451 L150.170571,79.9857451 L136.376548,28.4901142 C136.144364,27.6023901 136.019767,26.7853786 136.019767,26.1420683 C136.019767,25.8543442 136.050571,25.6970109 136.069422,25.6271718 C136.217928,25.5481373 136.796778,25.3191258 138.488732,25.3191258 C142.861146,25.3191258 144.906663,26.9021143 146.034939,31.1599992 L159.110801,79.9305727 L199.594478,79.9967796 L184.441375,23.3374707 C180.33057,8.07576991 170.064823,0.0114942526 154.7531,0.0114942526 L154.7531,0.0114942526 Z" id="path16" fill="#FFFFFF"></path>
                        <path d="M111.788503,38.1537462 C107.236319,38.1393554 102.811492,38.1251944 98.3595378,38.1111715 C98.2257447,37.5996772 98.1117217,37.1596772 97.9921815,36.7027577 C102.511262,36.7169646 106.936089,36.7309416 111.421147,36.7451485 C111.548043,37.232045 111.657009,37.6496083 111.788503,38.1537462" id="path18" fill="#2C3287"></path>
                        <path d="M163.103444,74.7356303 L151.063444,29.8275855 C149.348042,23.3545282 145.156318,20.1176547 138.488732,20.1176547 C133.375169,20.1176547 130.818388,22.1246431 130.818388,26.1420683 C130.818388,27.2463901 130.996319,28.4762752 131.352181,29.8358613 L143.39264,74.7839062 L114.959537,74.7839062 L114.549882,74.7839062 L113.680457,74.7839062 L113.143905,74.7839062 L85.0822967,74.7839062 L62.7535616,46.7954011 L55.4671251,74.7839062 L25.7512637,74.7839062 L25.7478614,74.7714924 L12.9175629,74.7714924 L23.2947121,65.5576995 L21.7701144,59.8308031 L7.10827568,5.21337918 L36.8204129,5.21337918 L46.821608,42.4506196 L54.1039067,14.5346663 L76.4367797,42.4506196 L66.386665,5.21337918 L96.1475838,5.21337918 L98.8455148,15.3071261 L99.3664343,15.021195 C99.3581584,15.0064824 99.3498826,14.9926433 99.3416067,14.9779307 C100.287814,8.47503427 105.317239,5.21337918 114.457009,5.21337918 L154.7531,5.21337918 C167.699306,5.21337918 175.920455,11.7025744 179.416087,24.6813787 L192.815627,74.7839062 L163.103444,74.7356303" id="path20" fill="#2C3287"></path>
                        <path d="M111.89379,37.6393554 C107.182526,37.6242749 102.602756,37.6099301 97.9953998,37.5953554 C97.8574688,37.0659301 97.7388481,36.610252 97.61517,36.1373784 C102.292411,36.1523209 106.871721,36.1666658 111.51402,36.1813784 C111.645514,36.6853324 111.758158,37.1174703 111.89379,37.6393554 L111.89379,37.6393554 Z M98.6105722,13.3484135 C98.9379286,17.5158157 98.1875838,21.1140225 94.9995379,23.4924592 C99.3535607,26.7214246 101.460227,30.8859762 102.905745,35.352183 C101.484595,35.7171485 101.447354,35.6857003 100.832181,34.2544819 C99.9153998,32.1208728 98.5466642,30.2428038 96.5544803,28.7568269 C94.4335609,27.1751258 92.2891931,26.9692867 91.127354,28.2078154 C89.8652851,29.5540682 90.1981587,32.04239 91.9590782,33.9159532 C92.5866644,34.5831715 93.3457448,35.1406428 94.1986183,35.6359531 C93.9048252,34.9296083 93.5498827,34.2255624 93.3337908,33.5158153 C93.0845954,32.696459 93.071262,31.8836314 93.8804574,31.5941142 C94.6896528,31.3038613 95.6473539,31.4813325 96.3636758,32.2956314 C97.17517,33.2178383 97.8197677,34.2639991 98.6662044,35.4355393 C97.8758596,35.4940681 97.4128711,35.5285508 96.8666642,35.5689646 C97.079078,36.3845048 97.2873539,37.1835393 97.5172389,38.0655623 C98.01517,38.1137002 98.4960895,38.160183 98.9691929,38.2059761 C99.9664343,40.6122289 98.4303424,43.2753093 96.0662045,43.2808725 C94.6078137,43.2843208 93.3268942,42.6063438 92.6308023,41.0885507 C91.9862046,39.6828496 91.6979287,38.2009646 91.2827563,36.7519531 C91.1903425,36.4283209 91.2239058,36.1018382 91.1976989,35.754114 C88.8841357,36.166114 86.8358599,39.0032174 87.027584,41.6551714 C87.4652852,47.7232172 92.9609172,50.9112631 96.9880436,50.4896539 C98.5944803,50.3213781 99.6951699,49.5149413 100.550802,48.3958609 C102.221607,46.2110333 102.542986,43.4423437 102.239997,40.4137921 C102.170112,39.7142519 102.080457,39.0114933 102.001837,38.3283209 C103.61425,37.9296082 103.861607,38.0263899 104.083216,39.6463898 C104.473561,42.5028955 104.953101,45.4033552 104.937469,48.1691942 C104.911722,52.6455159 103.116779,56.0597687 99.0758596,58.0657457 C105.801836,62.7531019 111.307124,69.0147109 115.150802,76.2514923 C115.267124,68.8763201 117.646894,63.000918 121.651491,58.0478146 C121.55448,57.9209181 121.515399,57.8294238 121.463445,57.8078146 C115.51494,55.3696538 111.872181,50.8758608 109.439078,45.3994471 C108.524135,43.339815 107.882756,41.2275392 107.122756,39.1388496 C106.926434,38.5987577 106.893331,38.1643209 107.599538,38.166114 C108.220687,38.1679071 108.653331,38.2559071 108.963675,39.0431255 C109.998158,41.6638151 111.339767,44.1963207 113.332871,46.4790793 C116.541606,50.1549413 120.386204,51.4882746 123.524135,50.0321827 C127.536089,48.1705735 127.295629,42.3076311 122.951261,38.558022 C121.557698,37.3550795 119.903905,36.460137 118.35356,35.4134244 C118.777468,37.0391715 119.230802,38.4698381 119.497009,39.8862979 C119.762756,41.3045967 119.732871,42.6666656 118.305744,43.1923667 C117.003675,43.6720449 115.144825,43.1104357 113.761376,41.6713553 C112.850572,40.7234013 112.151262,39.5928726 111.249652,38.4017462 C111.87494,38.250022 112.200917,38.1709876 112.589882,38.0766887 C112.393101,37.3211025 112.191721,36.5486887 111.971491,35.7047347 C111.626204,35.6250106 111.258848,35.5398612 110.653331,35.3997692 C110.797239,34.3850566 110.838618,33.3880911 111.09425,32.4948038 C111.347124,31.6097463 112.189422,31.3527348 113.201836,31.6086429 C114.222066,31.8670797 114.685514,32.6993555 114.875399,33.5697003 C115.035859,34.3058382 115.052411,35.0354014 115.131951,35.7631255 C117.068503,34.6884129 117.215629,31.2979303 115.409193,29.2271717 C113.835399,27.422574 111.496089,26.958712 109.811951,28.164689 C108.131032,29.3687349 107.731951,31.3177004 107.755859,33.4833095 C107.762756,34.0977003 107.85379,34.7320451 107.913561,35.4511715 C107.388043,35.4495164 106.85379,35.4477233 106.147124,35.4455623 C105.416089,30.9369647 105.099308,26.6616545 107.942066,23.4441373 C103.450112,21.142942 101.090572,17.2850111 98.8349401,13.3489652 C98.7599975,13.3489652 98.685055,13.3484135 98.6105722,13.3484135 L98.6105722,13.3484135 Z" id="path22" fill="#FFFFFF"></path>
                    </g>
                </g>
            </g>
        </g>
    </g>
</svg>