<?xml version="1.0" encoding="UTF-8"?>
<svg width="200px" height="200px" viewBox="0 0 200 200" version="1.1" xmlns="http://www.w3.org/2000/svg" xmlns:xlink="http://www.w3.org/1999/xlink">
    <!-- Generator: Sketch 54.1 (76490) - https://sketchapp.com -->
    <title>mary-hardin-baylor</title>
    <desc>Created with Sketch.</desc>
    <g id="mary-hardin-baylor" stroke="none" stroke-width="1" fill="none" fill-rule="evenodd">
        <g id="mary-hardin-baylor_BGL">
            <g id="mary-hardin-baylor" transform="translate(0.000000, 7.000000)">
                <g fill-rule="nonzero" id="Shape">
                    <path d="M199.717647,16.7905882 C196.16,11.1811765 192.583529,5.59058824 189.007059,0 L87.0211765,0 C84.5741176,4.83764706 82.1270588,9.69411765 79.68,14.5317647 C79.5670588,14.7576471 79.4541176,14.9835294 79.2847059,15.1717647 C76.9129412,10.24 74.5411765,5.25176471 72.1694118,0.301176471 L71.9435294,0 L0,0 L0,30.1176471 C0.978823529,30.0235294 1.93882353,29.9482353 2.91764706,29.8352941 C2.89882353,43.6705882 2.91764706,57.6752941 2.89882353,71.5294118 C2.89882353,71.7929412 2.88,72.0752941 2.93647059,72.32 C6.79529412,77.0258824 10.6729412,81.7129412 14.5317647,86.4188235 L14.6635294,86.4564706 C16,86.0047059 17.3176471,85.44 18.6917647,85.0635294 C21.7411765,96.7717647 25.9764706,108.178824 31.0776471,119.134118 C34.7670588,127.002353 38.9458824,134.607059 43.7270588,141.872941 C50.4282353,152.018824 58.4470588,161.581176 67.8588235,169.336471 C76.6494118,176.602353 86.6447059,182.249412 97.6188235,185.524706 C98.24,185.675294 98.9741176,186.070588 99.5952941,185.882353 C103.303529,185.129412 106.917647,183.792941 110.381176,182.287059 C119.811765,178.070588 128.357647,171.896471 135.811765,164.781176 C143.849412,157.101176 150.795294,148.178824 156.649412,138.748235 C162.428235,129.449412 167.247059,119.567059 171.331765,109.402353 C174.588235,101.251765 177.430588,92.9129412 179.764706,84.4423529 L179.934118,84.4235294 C182.588235,85.44 185.223529,86.5317647 187.877647,87.5670588 C191.849412,82.6917647 195.783529,77.7788235 199.736471,72.9035294 L199.736471,47.04 C199.04,45.7411765 198.174118,44.4611765 197.571765,43.1247059 C198.343529,42.0517647 198.983529,40.8847059 199.736471,39.7929412 L199.736471,16.7905882 L199.717647,16.7905882 Z" fill="#492F92"></path>
                    <path d="M3.70823529,3.48235294 C4.04705882,3.48235294 4.36705882,3.50117647 4.70588235,3.50117647 C26.3529412,3.48235294 48.0564706,3.52 69.6847059,3.48235294 C69.7788235,3.59529412 69.8541176,3.70823529 69.9294118,3.84 C72.9411765,10.1835294 76.0282353,16.5835294 79.1717647,22.8705882 C79.3411765,23.1152941 79.4917647,22.6635294 79.5670588,22.5505882 C82.6917647,16.32 85.8164706,10.1082353 88.96,3.89647059 C89.1105882,3.61411765 89.2423529,3.46352941 89.5811765,3.50117647 C121.863529,3.52 154.88,3.48235294 187.105882,3.52 C188.065882,4.85647059 188.931765,6.26823529 189.835294,7.62352941 C191.943529,10.9364706 194.108235,14.3058824 196.065882,17.7129412 C196.103529,24.5082353 196.065882,31.3976471 196.084706,38.2117647 C196.084706,38.5129412 196.103529,38.8141176 196.065882,39.0964706 C195.275294,40.2447059 194.484706,41.3929412 193.656471,42.5223529 C193.468235,42.7670588 193.505882,43.0305882 193.637647,43.2941176 C194.315294,44.5176471 194.992941,45.7223529 195.632941,46.9458824 C195.858824,47.3411765 196.122353,47.68 196.065882,48.1694118 C196.065882,56.0188235 196.065882,63.8494118 196.065882,71.6988235 C196.122353,72.1694118 195.821176,72.32 195.576471,72.6588235 C192.922353,76.0847059 190.192941,79.4541176 187.407059,82.7670588 C187.237647,82.9364706 187.087059,83.2376471 186.861176,83.3317647 C186.315294,83.3505882 185.92,83.1058824 185.449412,82.9176471 C171.218824,77.3270588 156.442353,73.1294118 141.364706,70.4 C140.254118,70.2494118 139.143529,69.9105882 138.014118,69.9105882 C138.108235,69.8541176 138.202353,69.8164706 138.277647,69.76 C136.734118,69.76 135.190588,69.2705882 133.647059,69.1764706 C132.592941,68.9505882 131.501176,68.9129412 130.428235,68.7247059 C130.051765,68.6305882 129.901176,68.2541176 129.656471,67.9717647 C129.298824,67.4635294 128.865882,67.0305882 128.545882,66.5035294 C129.091765,66.5223529 129.637647,66.56 130.183529,66.5976471 C130.183529,61.76 130.145882,56.9223529 130.108235,52.0847059 C129.449412,52.0094118 128.828235,51.8776471 128.169412,51.8776471 C127.792941,51.8776471 127.491765,51.8211765 127.134118,51.6894118 C127.134118,49.28 127.115294,46.8517647 127.096471,44.4423529 C127.115294,43.9152941 127.021176,43.3505882 127.152941,42.8423529 C127.548235,42.8611765 127.943529,42.88 128.338824,42.9364706 C129.28,43.0682353 130.221176,42.9741176 131.162353,43.1811765 C131.971765,43.2188235 132.781176,43.2376471 133.590588,43.3694118 C134.287059,43.4070588 134.945882,43.4070588 135.623529,43.5952941 C135.642353,44.7058824 135.567059,45.7976471 135.736471,46.8894118 C135.736471,48.7905882 135.774118,50.7105882 135.755294,52.6305882 C134.870588,52.7435294 133.647059,52.2164706 132.781176,52.4988235 C132.894118,55.0776471 132.724706,57.6941176 132.931765,60.2729412 C132.912941,62.4941176 132.950588,64.7341176 132.950588,66.9552941 C133.421176,67.1247059 133.891765,67.1247059 134.381176,67.1811765 C135.303529,67.4070588 136.263529,67.4635294 137.204706,67.6517647 C140.687059,68.1976471 144.188235,68.8564706 147.651765,69.5717647 C149.552941,69.9294118 151.454118,70.4376471 153.355294,70.7764706 C153.28,66.3341176 153.261176,61.8917647 153.261176,57.4494118 C153.129412,56.7341176 153.185882,56.0376471 153.148235,55.3223529 C152.207059,55.0588235 151.190588,55.0588235 150.268235,54.7576471 C150.230588,53.0258824 150.287059,51.2941176 150.155294,49.5623529 C150.136471,44.7247059 150.061176,39.9058824 150.061176,35.0682353 C150.08,34.6729412 149.985882,34.3152941 149.948235,33.9388235 C149.929412,30.1176471 149.891765,26.2776471 149.872941,22.4564706 C149.891765,21.9482353 149.835294,21.4776471 149.910588,20.9694118 C150.851765,21.0070588 151.792941,21.0070588 152.734118,21.0447059 C152.734118,17.8258824 152.696471,14.5882353 152.677647,11.3694118 C152.414118,9.48705882 152.677647,7.51058824 152.489412,5.60941176 C145.807059,5.60941176 139.105882,5.62823529 132.423529,5.59058824 C132.367059,5.79764706 132.348235,6.02352941 132.348235,6.24941176 C132.367059,10.3341176 132.404706,14.4 132.423529,18.4847059 C132.442353,18.9929412 132.385882,19.5011765 132.461176,19.9905882 C132.611765,20.2541176 132.969412,20.2352941 133.232941,20.2352941 C133.948235,20.2352941 134.682353,20.2729412 135.397647,20.2729412 C135.435294,22.4376471 135.416471,24.5835294 135.454118,26.7482353 C135.454118,27.0117647 135.491765,27.3505882 135.36,27.5952941 C134.531765,27.5764706 133.703529,27.4258824 132.856471,27.4258824 C132.047059,27.3694118 131.2,27.4447059 130.409412,27.2752941 C129.261176,27.1623529 128.018824,27.3129412 126.889412,27.0682353 C126.889412,24.7152941 126.870588,22.3623529 126.870588,20.0094118 C127.830588,20.0094118 128.790588,20.0470588 129.731765,20.0470588 C129.750588,16.4517647 129.712941,12.8376471 129.694118,9.24235294 C129.468235,8.03764706 129.712941,6.77647059 129.524706,5.57176471 C122.842353,5.60941176 116.141176,5.59058824 109.458824,5.59058824 C109.421176,5.79764706 109.402353,6.02352941 109.402353,6.23058824 C109.421176,10.4282353 109.421176,14.6447059 109.44,18.8423529 C109.458824,19.1623529 109.308235,19.5011765 109.665882,19.6894118 C110.569412,19.7082353 111.491765,19.6705882 112.395294,19.7270588 C112.451765,30.0423529 112.432941,40.4329412 112.508235,50.7482353 C111.548235,50.8611765 110.550588,50.7105882 109.571765,50.7482353 C109.552941,52.16 109.571765,53.5905882 109.590588,55.0023529 C109.590588,55.1905882 109.571765,55.3788235 109.515294,55.5482353 C108.611765,55.4917647 107.764706,55.3411765 106.992941,54.8705882 C107.030588,53.4964706 106.974118,52.1223529 106.992941,50.7670588 C106.842353,50.6729412 106.691765,50.6164706 106.522353,50.6164706 C105.731765,50.6352941 104.941176,50.5788235 104.150588,50.5976471 L104.037647,50.3152941 C103.981176,40.1129412 104.037647,29.9105882 103.981176,19.7082353 C104.922353,19.6705882 105.863529,19.6705882 106.804706,19.7082353 C106.88,19.5576471 106.936471,19.4070588 106.936471,19.2564706 C106.936471,15.2282353 106.936471,11.2188235 106.936471,7.20941176 C106.917647,6.64470588 107.011765,6.13647059 106.767059,5.60941176 C101.345882,5.64705882 95.9058824,5.62823529 90.4658824,5.62823529 C89.9576471,6.36235294 89.6564706,7.20941176 89.2235294,8 C85.8917647,14.5317647 82.6164706,21.1764706 79.3035294,27.7082353 C79.1717647,27.5576471 79.0776471,27.3882353 78.9835294,27.2188235 C75.6141176,20.4611765 72.2823529,13.6658824 69.0447059,6.85176471 C68.8188235,6.41882353 68.6870588,5.94823529 68.3482353,5.60941176 C62.9082353,5.64705882 57.4682353,5.62823529 52.0470588,5.60941176 C51.8588235,7.17176471 52.0658824,8.82823529 51.8964706,10.4094118 C51.84,13.7976471 51.84,17.3176471 51.8023529,20.6870588 C52.0282353,20.8 52.2541176,20.8376471 52.48,20.7811765 C53.1952941,20.6870588 53.9294118,20.6870588 54.6447059,20.6682353 C54.7011765,22.6447059 54.6258824,24.6023529 54.6447059,26.5788235 C54.5694118,29.3270588 54.6635294,32.1129412 54.5129412,34.8611765 C54.4752941,39.5670588 54.4376471,44.2729412 54.4188235,48.9788235 C54.1929412,50.5976471 54.3623529,52.2917647 54.2682353,53.9482353 C53.3647059,54.2682353 52.3105882,54.2117647 51.3882353,54.4941176 C51.3882353,55.3035294 51.4258824,56.0941176 51.2752941,56.9035294 C51.2752941,61.1576471 51.2188235,65.4305882 51.2,69.6847059 C51.9529412,69.6847059 52.6305882,69.4023529 53.3835294,69.3082353 C56.9411765,68.6117647 60.7058824,67.9341176 64.2823529,67.3882353 C66.4094118,67.0870588 68.5552941,66.6917647 70.7011765,66.56 C70.0235294,67.3129412 69.3835294,68.0847059 68.7058824,68.8564706 C67.7458824,68.9129412 66.7670588,69.0823529 65.8070588,69.2517647 C60.1788235,70.0423529 54.7011765,71.0964706 49.1482353,72.2823529 C49.1482353,67.9717647 49.2047059,63.6611765 49.2235294,59.3505882 C49.1858824,58.5976471 49.3741176,57.8447059 49.3176471,57.0917647 C49.3552941,55.6423529 49.2611765,54.1552941 49.3929412,52.7058824 C50.3152941,52.6494118 51.2376471,52.3294118 52.16,52.3105882 C52.2729412,51.9152941 52.2729412,51.4823529 52.3294118,51.0682353 C52.3482353,46.1176471 52.4047059,41.1482353 52.4235294,36.1976471 C52.4611765,35.8776471 52.5552941,35.5764706 52.5364706,35.2564706 C52.5176471,31.1341176 52.5929412,27.0117647 52.5929412,22.8894118 C51.4823529,22.8894118 50.3717647,22.9458824 49.2611765,22.9647059 C48.96,22.9458824 48.6776471,23.0211765 48.3764706,23.0964706 C48.3576471,24.6211765 48.4705882,26.2023529 48.2635294,27.7270588 C48.2635294,32.5647059 48.1882353,37.3835294 48.1882353,42.2211765 C48.0188235,43.6517647 48.1129412,45.12 48.0752941,46.5505882 C48.0564706,50.3717647 48.0188235,54.2117647 48,58.0329412 C47.7364706,59.0682353 48.0376471,60.2729412 47.7929412,61.2517647 C44.8941176,65.5811765 42.1270588,69.8917647 39.3976471,74.3341176 C39.2658824,74.5411765 39.1717647,74.7294118 38.9082353,74.8047059 C32.5647059,76.4988235 26.3529412,78.4941176 20.16,80.7152941 C18.6164706,81.2611765 17.1105882,81.8823529 15.5670588,82.3905882 C15.1529412,81.8447059 14.5882353,81.3552941 14.2870588,80.7341176 L14.1929412,80.8470588 C13.8917647,80.3388235 13.4964706,79.9247059 13.12,79.4729412 C12.2917647,78.4752941 11.4447059,77.4776471 10.6541176,76.4611765 C10.4658824,76.1976471 10.2211765,75.9905882 9.97647059,75.8023529 C10.0705882,75.8023529 10.1647059,75.8023529 10.24,75.8211765 C10.0329412,75.6705882 9.86352941,75.52 9.76941176,75.2752941 L9.69411765,75.4070588 C9.56235294,75.2 9.43058824,75.0117647 9.22352941,74.8611765 C9.31764706,74.8611765 9.41176471,74.88 9.50588235,74.88 C9.29882353,74.7482353 9.12941176,74.5788235 9.03529412,74.3529412 C8.99764706,74.3905882 8.94117647,74.4282353 8.90352941,74.4470588 C8.77176471,74.0517647 8.52705882,73.7505882 8.28235294,73.4117647 C8.24470588,73.4494118 8.20705882,73.4870588 8.15058824,73.5247059 C7.86823529,72.7905882 7.17176471,72.2447059 6.73882353,71.5858824 C6.06117647,70.9082353 6.32470588,70.1741176 6.4,69.3270588 C6.4,54.9647059 6.38117647,40.5458824 6.43764706,26.1835294 C5.66588235,25.9388235 4.46117647,26.3152941 3.65176471,26.3341176 C3.57647059,26.0517647 3.48235294,25.7694118 3.48235294,25.4682353 C3.48235294,18.6352941 3.48235294,11.7835294 3.48235294,4.95058824 C3.50117647,4.38588235 3.52,3.97176471 3.70823529,3.48235294 Z" fill="#FEC324"></path>
                    <path d="M5.77882353,5.55294118 C12.48,5.60941176 19.1811765,5.55294118 25.8635294,5.59058824 C25.9011765,9.44941176 25.8070588,13.2894118 25.8447059,17.1482353 C25.6188235,18.8611765 25.7882353,20.6117647 25.7129412,22.3247059 C24.7717647,22.3811765 23.8494118,22.5505882 22.9082353,22.5505882 C22.8894118,22.7011765 22.8705882,22.8329412 22.8517647,22.9835294 C22.8517647,25.5623529 22.8329412,28.1411765 22.8329412,30.7011765 C22.6635294,31.5105882 22.72,32.32 22.72,33.1482353 C22.7011765,40.8094118 22.6447059,48.4517647 22.6447059,56.1129412 C22.5129412,56.9788235 22.5317647,57.8823529 22.5694118,58.7482353 C22.8141176,59.2188235 23.2658824,59.5952941 23.5670588,60.0282353 C23.7364706,60.2917647 23.9811765,60.1788235 24.2447059,60.16 C26.2588235,59.5952941 28.3482353,59.1623529 30.3623529,58.5976471 C30.7576471,57.8258824 31.3976471,57.1105882 31.68,56.3011765 C31.7364706,51.7270588 31.7552941,47.1152941 31.7741176,42.5411765 C31.8117647,41.5811765 31.7176471,40.6588235 31.8870588,39.7176471 C31.9058824,33.7882353 31.9623529,27.8964706 31.9811765,21.9482353 C31.5670588,21.8352941 31.1152941,21.9482353 30.7011765,21.9294118 C30.1552941,21.9105882 29.5341176,22.3247059 29.0823529,21.8917647 C29.1388235,19.3694118 29.12,16.8282353 29.1388235,14.3058824 C29.0823529,13.6658824 29.2894118,13.0635294 29.2517647,12.4235294 C29.2517647,10.5411765 29.2705882,8.65882353 29.2705882,6.77647059 C29.2705882,6.36235294 29.2329412,5.96705882 29.3270588,5.57176471 C36.0094118,5.57176471 42.7105882,5.60941176 49.3929412,5.55294118 C49.5058824,5.81647059 49.4682353,6.11764706 49.4682353,6.4 C49.4305882,10.9741176 49.3929412,15.5670588 49.3741176,20.1411765 C49.3929412,20.4423529 49.3176471,20.6682353 49.1858824,20.9317647 C48.4141176,20.9317647 47.6423529,20.9694118 46.8705882,20.9882353 C46.7011765,20.9882353 46.5317647,21.0258824 46.3811765,21.12 C46.4188235,23.4917647 46.3247059,25.8635294 46.3623529,28.2352941 C46.3811765,28.8 46.2494118,29.3647059 46.2682353,29.9294118 C46.2494118,34.5788235 46.2117647,39.2094118 46.1741176,43.8588235 C46.1364706,44.3670588 46.0423529,44.8564706 46.0611765,45.3647059 C46.0423529,50.0705882 45.9858824,54.7764706 45.9858824,59.4823529 C46.0047059,59.9341176 45.9858824,60.3670588 45.7035294,60.7435294 C43.0305882,64.7152941 40.4141176,68.8376471 37.8729412,72.9035294 C30.5505882,74.9364706 23.4352941,77.2141176 16.3388235,79.9247059 C16.1317647,79.7176471 15.9247059,79.5294118 15.7552941,79.3035294 C13.2705882,76.3294118 10.7482353,73.2988235 8.39529412,70.2305882 C8.45176471,64.7717647 8.41411765,59.2941176 8.43294118,53.8352941 C8.37647059,53.1388235 8.56470588,52.4611765 8.52705882,51.7647059 C8.52705882,42.4847059 8.52705882,33.1482353 8.54588235,23.8682353 C7.73647059,23.6423529 6.60705882,24.0376471 5.76,24.0376471 C5.70352941,23.8682353 5.64705882,23.7176471 5.60941176,23.5482353 C5.59058824,17.9576471 5.60941176,12.1976471 5.60941176,6.58823529 C5.60941176,6.21176471 5.53411765,5.87294118 5.77882353,5.55294118 Z" fill="#492F92"></path>
                    <path d="M155.237647,5.55294118 C155.632941,5.57176471 156.028235,5.57176471 156.423529,5.57176471 C166.287059,5.57176471 176.150588,5.57176471 186.014118,5.57176471 C186.409412,6.08 186.748235,6.62588235 187.105882,7.17176471 C189.421176,10.7105882 191.661176,14.3058824 193.863529,17.92 C194.032941,18.1458824 194.032941,18.3717647 194.032941,18.6352941 C194.032941,25.0917647 194.032941,31.5670588 194.032941,38.0235294 C194.032941,38.2870588 194.051765,38.5129412 193.863529,38.7388235 C192.978824,39.9811765 192.094118,41.2611765 191.209412,42.5035294 C191.002353,42.8047059 191.228235,43.1247059 191.36,43.3882353 C192.150588,44.7435294 192.865882,46.1364706 193.637647,47.5105882 C193.825882,47.8682353 194.051765,48.1505882 194.032941,48.5647059 C194.032941,56.0752941 194.032941,63.6423529 194.032941,71.1529412 C194.051765,71.5105882 193.694118,71.8117647 193.505882,72.0752941 C191.303529,74.88 188.8,77.9858824 186.522353,80.6964706 C186.334118,81.0164706 185.901176,80.8847059 185.618824,80.7717647 C181.571765,79.1341176 177.731765,77.8164706 173.590588,76.4235294 C167.811765,74.5411765 161.901176,72.8094118 155.990588,71.3976471 C155.915294,70.7388235 155.971765,70.0988235 155.858824,69.44 C155.858824,64.8847059 155.802353,60.3105882 155.764706,55.7364706 C156.724706,55.8117647 157.665882,56.1505882 158.625882,56.1882353 C158.625882,53.2517647 158.588235,50.3341176 158.569412,47.3976471 C158.456471,46.7011765 158.475294,46.0235294 158.475294,45.3270588 C158.456471,40.6964706 158.4,36.0282353 158.381176,31.3976471 C158.343529,31.0776471 158.249412,30.7764706 158.268235,30.4564706 C158.268235,27.4258824 158.249412,24.3952941 158.211765,21.3647059 C157.364706,21.0258824 156.329412,21.1952941 155.407059,21.1011765 C155.294118,20.9694118 155.237647,20.8188235 155.237647,20.6682353 C155.218824,16.4705882 155.181176,12.2541176 155.162353,8.03764706 C155.2,7.19058824 154.861176,6.41882353 155.237647,5.55294118 Z" fill="#492F92"></path>
                    <path d="M6.64470588,6.62588235 C6.98352941,6.53176471 7.36,6.55058824 7.71764706,6.55058824 C13.3458824,6.56941176 19.2188235,6.53176471 24.8282353,6.56941176 C24.8470588,9.01647059 24.7717647,11.4635294 24.7905882,13.9294118 C24.7341176,16.4141176 24.7905882,18.8988235 24.7152941,21.3835294 C23.7741176,21.4588235 22.8329412,21.5529412 21.8917647,21.5905882 C21.8352941,21.7411765 21.8164706,21.8917647 21.7976471,22.0235294 C21.8352941,27.4070588 21.7035294,32.8282353 21.7035294,38.2117647 C21.6470588,40.9788235 21.7411765,43.7458824 21.6094118,46.4941176 C21.6094118,50.7858824 21.5905882,54.9458824 21.5529412,59.2188235 C22.1364706,59.9529412 22.7952941,60.6494118 23.36,61.3835294 C24,61.3082353 24.6023529,61.0823529 25.2423529,60.9317647 C27.1435294,60.4611765 29.0258824,59.9529412 30.9458824,59.5388235 C31.5482353,58.6164706 32.1129412,57.6752941 32.6776471,56.7341176 C32.7341176,53.8917647 32.7341176,51.0117647 32.7529412,48.1694118 C32.8470588,46.5505882 32.7905882,44.9129412 32.8094118,43.2752941 C32.9223529,38.2682353 32.8658824,33.2235294 32.9976471,28.2164706 C33.0164706,25.7317647 32.9976471,23.2658824 33.0541176,20.7811765 C32.0752941,20.8 31.1152941,20.9505882 30.1364706,20.9317647 C30.1741176,16.1694118 30.2117647,11.3317647 30.2870588,6.56941176 C30.4752941,6.55058824 30.6823529,6.55058824 30.8705882,6.53176471 C36.7058824,6.55058824 42.6164706,6.53176471 48.4517647,6.53176471 C48.5082353,7.66117647 48.4329412,8.79058824 48.4517647,9.93882353 C48.3952941,11.8776471 48.4517647,13.8352941 48.3576471,15.7741176 C48.3388235,17.1294118 48.3952941,18.5035294 48.32,19.8588235 C47.36,19.9152941 46.4,19.9529412 45.4211765,20.0282353 C45.3270588,23.0023529 45.3270588,25.9764706 45.2894118,28.9505882 C45.1388235,39.2282353 45.0635294,49.7882353 44.8941176,60.0282353 C42.2776471,63.9811765 39.6988235,67.9529412 37.2141176,72 C30.4376471,73.8823529 23.7364706,76.0094118 17.1482353,78.4941176 C16.96,78.5317647 16.6023529,78.7576471 16.4705882,78.5505882 C14.08,75.7082353 11.7458824,72.8282353 9.43058824,69.9294118 C9.46823529,69.5717647 9.44941176,69.2141176 9.46823529,68.8564706 C9.44941176,53.4964706 9.50588235,37.9670588 9.50588235,22.5882353 C8.56470588,22.6823529 7.62352941,22.7388235 6.68235294,22.8705882 C6.62588235,22.5694118 6.62588235,22.2870588 6.62588235,21.9858824 C6.64470588,16.9223529 6.64470588,11.7270588 6.64470588,6.62588235 Z" fill="#FDFDFE"></path>
                    <path d="M53.0258824,6.56941176 C57.7882353,6.55058824 62.6258824,6.56941176 67.4070588,6.56941176 C67.5764706,6.58823529 67.7458824,6.60705882 67.8964706,6.64470588 C71.5670588,14.4564706 75.4070588,22.2117647 79.2658824,29.9482353 C79.3788235,29.8729412 79.4541176,29.76 79.5105882,29.6282353 C83.2941176,21.9858824 87.1905882,14.3058824 91.0305882,6.68235294 C91.3129412,6.49411765 91.7270588,6.58823529 92.0470588,6.56941176 C96.2447059,6.56941176 100.461176,6.56941176 104.658824,6.56941176 C105.072941,6.56941176 105.505882,6.55058824 105.92,6.62588235 C105.92,10.6164706 105.938824,14.6070588 105.938824,18.5976471 C104.96,18.6164706 103.981176,18.56 103.021176,18.6352941 C103.058824,29.5529412 103.04,40.4517647 103.077647,51.3882353 C102.757647,51.1058824 102.607059,50.6352941 102.418824,50.2776471 C100.988235,47.2094118 100.630588,43.7270588 99.8964706,40.4517647 C99.7458824,39.9058824 99.5952941,39.2282353 99.2188235,38.7952941 C98.9364706,38.4752941 98.4658824,38.6258824 98.2776471,38.9647059 C97.7882353,39.7552941 97.5623529,40.7341176 97.3176471,41.6188235 C96.7717647,43.7835294 96.2447059,45.9294118 95.4729412,48.0188235 C94.5694118,50.3341176 93.3458824,52.6870588 91.2752941,54.1741176 C90.1082353,55.04 88.8282353,55.3035294 87.5482353,55.9058824 C87.4352941,54.5505882 87.5482353,53.1764706 87.5482353,51.8211765 C88.5270588,51.7647059 89.5058824,51.7458824 90.5035294,51.7082353 C90.5411765,45.8164706 90.56,39.9623529 90.5788235,34.0894118 C90.0705882,34.8423529 89.7129412,35.7458824 89.28,36.5552941 C85.6847059,43.5576471 82.3529412,50.3341176 79.1341176,56.6964706 C75.4635294,49.5811765 71.8305882,42.5223529 68.2729412,35.3317647 C68.2164706,35.2376471 68.16,35.1435294 68.0847059,35.0494118 C68.0470588,38.0047059 68.0847059,40.96 67.9905882,43.8964706 C68.0094118,47.0211765 67.9341176,50.1270588 67.9152941,53.2517647 C68.8941176,53.1764706 69.8729412,53.0447059 70.8517647,52.9694118 C70.8705882,57.0917647 70.7764706,61.3082353 70.7576471,65.4305882 C64.5835294,66.2211765 58.4282353,67.2188235 52.3294118,68.4611765 C52.3858824,66.3529412 52.3294118,64.2447059 52.4423529,62.1552941 C52.4235294,59.8776471 52.4611765,57.5811765 52.5364706,55.3223529 C53.4964706,55.2094118 54.4376471,55.0023529 55.3788235,54.9082353 C55.4164706,54.7576471 55.4352941,54.6070588 55.4541176,54.4564706 C55.5858824,42.9741176 55.7176471,31.1152941 55.8494118,19.6329412 C54.8894118,19.6705882 53.9294118,19.6705882 52.9882353,19.7647059 C52.8564706,19.1247059 53.0070588,18.4094118 52.9505882,17.7505882 C52.9129412,14.0047059 52.9505882,10.2588235 53.0258824,6.56941176 Z" fill="#FDFDFE"></path>
                    <path d="M110.456471,6.58823529 C116.272941,6.53176471 122.164706,6.58823529 128,6.56941176 C128.225882,6.56941176 128.451765,6.58823529 128.696471,6.64470588 C128.677647,10.7670588 128.790588,14.8894118 128.790588,19.0117647 C127.811765,19.0117647 126.832941,18.9552941 125.854118,18.9552941 C125.891765,21.8729412 125.891765,24.7717647 125.910588,27.6894118 C125.910588,27.84 125.948235,27.9905882 126.004706,28.1223529 C129.487059,28.2541176 133.025882,28.4423529 136.527059,28.6305882 C136.545882,25.5058824 136.451765,22.3811765 136.432941,19.2564706 C135.454118,19.2564706 134.475294,19.1811765 133.496471,19.1623529 C133.477647,15.1152941 133.364706,10.6541176 133.383529,6.58823529 C139.425882,6.58823529 145.524706,6.55058824 151.567059,6.60705882 C151.642353,10.9364706 151.68,15.5670588 151.736471,19.9529412 C150.776471,19.8964706 149.797647,19.8776471 148.837647,19.8211765 C148.837647,21.9482353 148.8,24.0752941 148.912941,26.2023529 C148.912941,29.4588235 148.969412,32.7341176 149.007059,35.9905882 C149.082353,37.6847059 148.988235,39.3788235 149.082353,41.0729412 C149.138824,45.8917647 149.138824,50.88 149.270588,55.68 C150.230588,55.7929412 151.171765,56.0188235 152.131765,56.1317647 C152.244706,58.3905882 152.188235,60.6494118 152.225882,62.9082353 C152.32,65.1105882 152.301176,67.3129412 152.32,69.5152941 C150.287059,69.12 148.291765,68.6305882 146.258824,68.2541176 C142.211765,67.4258824 138.051765,66.7294118 133.967059,66.1270588 C133.872941,61.9105882 133.891765,57.7129412 133.835294,53.5152941 C134.814118,53.5905882 135.792941,53.7411765 136.790588,53.8352941 C136.715294,50.1082353 136.752941,46.3623529 136.64,42.6352941 C133.157647,42.3341176 129.524706,41.9576471 126.042353,41.7882353 C126.061176,45.4588235 126.098824,49.0352941 126.136471,52.7247059 C127.115294,52.8188235 128.094118,52.8941176 129.072941,52.9882353 C129.110588,54.2870588 129.054118,55.5858824 129.129412,56.8847059 C129.167059,59.7458824 129.148235,62.6070588 129.223529,65.4682353 C128.621176,65.4117647 128.037647,65.3552941 127.435294,65.2611765 C127.247059,65.2235294 127.096471,64.9976471 126.945882,64.8847059 C122.541176,60.3482353 116.818824,57.3552941 110.682353,55.8870588 L110.607059,55.7929412 C110.607059,54.4564706 110.569412,53.12 110.588235,51.7647059 C111.585882,51.8023529 112.583529,51.8588235 113.581176,51.8964706 C113.487059,40.8658824 113.468235,29.7788235 113.411765,18.7482353 C112.451765,18.7482353 111.472941,18.7482353 110.512941,18.7105882 C110.475294,18.1458824 110.418824,17.5623529 110.437647,16.9976471 C110.494118,13.4964706 110.418824,10.0141176 110.456471,6.58823529 Z" fill="#FDFDFE"></path>
                    <path d="M156.103529,6.62588235 C156.254118,6.58823529 156.423529,6.55058824 156.592941,6.55058824 C165.948235,6.55058824 175.303529,6.55058824 184.64,6.55058824 C184.903529,6.56941176 185.449412,6.47529412 185.6,6.75764706 C188.028235,10.4470588 190.362353,14.1741176 192.658824,17.9576471 C192.790588,18.2023529 193.054118,18.5035294 193.035294,18.8047059 C193.035294,24.9411765 193.035294,31.1152941 193.035294,37.2517647 C193.016471,37.5529412 193.110588,37.9482353 192.922353,38.1929412 C191.887059,39.6988235 190.814118,41.1858824 189.778824,42.6917647 C190.832941,44.5176471 191.830588,46.3811765 192.847059,48.2447059 C193.148235,48.7152941 192.997647,49.1482353 193.035294,49.6752941 C193.035294,56.5082353 193.035294,63.36 193.035294,70.1929412 C193.016471,70.4941176 193.129412,70.8705882 192.903529,71.1152941 C190.625882,74.0517647 188.291765,76.9317647 185.92,79.7741176 C178.710588,77.0070588 171.388235,74.5035294 163.952941,72.4329412 C161.618824,71.7552941 159.209412,71.1717647 156.875294,70.5317647 C156.894118,65.9764706 156.743529,61.4964706 156.743529,56.96 C157.703529,57.1294118 158.663529,57.3364706 159.642353,57.5058824 C159.548235,47.9623529 159.435294,38.1552941 159.322353,28.5929412 C159.303529,26.9552941 159.36,25.3176471 159.247059,23.6988235 C159.228235,22.5694118 159.284706,21.4023529 159.171765,20.2729412 C158.211765,20.2729412 157.251765,20.2164706 156.291765,20.1223529 C156.235294,15.6611765 156.178824,11.1247059 156.103529,6.62588235 Z" fill="#FDFDFE"></path>
                    <path d="M171.557647,21.1388235 C174.023529,21.3082353 176.508235,21.4964706 178.974118,21.7035294 C179.614118,22.5882353 180.178824,23.5482353 180.762353,24.4705882 C180.837647,26.5223529 180.818824,28.5741176 180.837647,30.6258824 C180.235294,31.4541176 179.632941,32.3011765 179.011765,33.1294118 C176.583529,32.8658824 174.136471,32.4894118 171.708235,32.2635294 C171.557647,31.6988235 171.651765,31.0776471 171.614118,30.4941176 C171.614118,27.4070588 171.576471,24.2258824 171.557647,21.1388235 Z" fill="#492F92"></path>
                    <path d="M106.070588,21.7411765 C107.501176,21.7223529 108.931765,21.7035294 110.362353,21.76 C110.4,29.4964706 110.418824,37.2517647 110.437647,44.9882353 C110.362353,46.0988235 110.832941,47.6235294 110.362353,48.6588235 C108.969412,48.6211765 107.595294,48.5270588 106.221176,48.4894118 C106.014118,48.3388235 106.145882,47.8682353 106.108235,47.6235294 C106.089412,39.0023529 106.108235,30.3623529 106.070588,21.7411765 Z" fill="#492F92"></path>
                    <path d="M128.997647,22.1176471 C130.108235,22.0988235 131.218824,22.1741176 132.329412,22.1741176 C132.705882,22.1552941 133.044706,22.2494118 133.383529,22.3435294 C133.345882,23.3411765 133.402353,24.3576471 133.383529,25.3552941 C131.934118,25.3741176 130.484706,25.1858824 129.054118,25.1858824 C128.96,24.1694118 128.997647,23.1152941 128.997647,22.1176471 Z" fill="#492F92"></path>
                    <path d="M172.574118,22.3247059 C173.477647,22.1929412 174.494118,22.3435294 175.397647,22.4564706 C176.395294,22.4564706 177.392941,22.5694118 178.390588,22.6447059 C178.767059,23.1529412 179.068235,23.7176471 179.444706,24.2258824 C179.727059,24.5835294 179.764706,25.1294118 179.821176,25.5811765 C179.84,27.0870588 179.84,28.6117647 179.821176,30.1176471 C179.576471,30.7011765 179.105882,31.1905882 178.767059,31.7176471 C178.352941,32.2635294 177.788235,31.8117647 177.148235,31.8682353 C176.263529,31.6988235 175.378824,31.6423529 174.494118,31.5105882 C173.872941,31.5294118 173.327059,31.2847059 172.705882,31.3035294 C172.611765,29.5152941 172.687059,27.7270588 172.668235,25.9388235 C172.48,24.7905882 172.555294,23.5294118 172.574118,22.3247059 Z" fill="#FEC324"></path>
                    <path d="M151.981176,23.0211765 C153.392941,22.9835294 154.729412,23.2658824 156.122353,23.2282353 C156.235294,25.1482353 156.141176,27.0682353 156.216471,28.9882353 C156.310588,29.7976471 156.254118,30.6070588 156.291765,31.4352941 C156.329412,35.8211765 156.367059,40.2258824 156.385882,44.6117647 C156.423529,44.9317647 156.498824,45.2329412 156.498824,45.5529412 C156.48,48.2823529 156.536471,51.0117647 156.536471,53.76 C155.162353,53.6094118 153.788235,53.1576471 152.395294,53.12 C152.32,52.48 152.395294,51.8588235 152.244706,51.2188235 C152.225882,46.3058824 152.169412,41.4305882 152.150588,36.5364706 C152.112941,36.2164706 152.075294,35.9152941 152.056471,35.5952941 C152.056471,31.3976471 151.981176,27.2188235 151.981176,23.0211765 Z" fill="#492F92"></path>
                    <path d="M29.8917647,24.1317647 C29.8541176,29.8352941 29.8164706,35.52 29.7976471,41.2235294 C29.8164706,41.7317647 29.7788235,42.2211765 29.7223529,42.7294118 C29.7035294,47.0023529 29.6658824,51.2752941 29.6470588,55.5294118 C29.6470588,55.9058824 29.3458824,56.3011765 29.1576471,56.6211765 C28.9505882,56.96 28.5929412,56.9411765 28.2352941,57.0352941 C27.1058824,57.3176471 25.9576471,57.5811765 24.8470588,57.9011765 L24.64,57.8635294 C24.6588235,56.2823529 24.5458824,54.6635294 24.7341176,53.1011765 C24.7529412,44.9505882 24.8094118,36.7811765 24.8282353,28.6305882 C24.96,27.52 24.8847059,26.3717647 24.9035294,25.2423529 C24.9411765,25.0164706 24.8282353,24.5647059 25.0352941,24.4517647 C25.6,24.3952941 26.1647059,24.4141176 26.7294118,24.3764706 C27.7458824,24.1317647 28.8376471,24.1882353 29.8917647,24.1317647 Z" fill="#492F92"></path>
                    <path d="M174.701176,24.5082353 C175.510588,24.5270588 176.338824,24.5647059 177.148235,24.6023529 C177.449412,24.96 177.750588,25.28 177.731765,25.7882353 C177.769412,26.9176471 177.750588,28.0658824 177.750588,29.1764706 C177.769412,29.44 177.712941,29.6658824 177.562353,29.8541176 C176.64,29.7035294 175.623529,29.7035294 174.738824,29.4588235 C174.701176,27.8964706 174.512941,26.0705882 174.701176,24.5082353 Z" fill="#492F92"></path>
                    <path d="M89.4494118,38.5694118 C89.4870588,38.8329412 89.5058824,39.0964706 89.5058824,39.3411765 C89.4682353,42.7858824 89.5058824,46.2494118 89.4682353,49.6941176 C89.4870588,50.0705882 89.4682353,50.3717647 89.3176471,50.7294118 C88.3764706,50.7858824 87.3788235,50.6541176 86.4752941,50.9176471 C86.4941176,52.7247059 86.4376471,54.5317647 86.4752941,56.3388235 C85.76,56.5835294 85.12,56.96 84.4047059,57.2235294 C84.3670588,55.8682353 84.4235294,54.5129412 84.3670588,53.1576471 C83.8776471,53.8352941 83.5952941,54.6070588 83.1811765,55.3788235 C82.7105882,56.3011765 82.2588235,57.2235294 81.8070588,58.1458824 C81.6941176,58.3341176 81.6188235,58.5976471 81.4305882,58.7105882 C80.3952941,59.2941176 79.3223529,59.8588235 78.3247059,60.4988235 C78.1552941,60.5929412 77.9670588,60.7435294 77.7788235,60.7811765 C77.5905882,60.6682353 77.5152941,60.3858824 77.4211765,60.2164706 C76.4988235,58.3905882 75.52,56.6023529 74.5976471,54.7764706 C74.3529412,54.3435294 74.1835294,53.9105882 73.8823529,53.5152941 C73.8258824,56.2070588 73.8447059,58.9176471 73.8258824,61.6094118 C73.7129412,62.3435294 73.7317647,63.0588235 73.7129412,63.7929412 C73.0729412,64.3576471 72.3952941,64.9035294 71.7929412,65.5247059 C71.6423529,64.9976471 71.7176471,64.5835294 71.7741176,64.0564706 C71.5858824,63.3411765 71.8117647,62.7011765 71.7741176,61.9858824 C71.7929412,58.6352941 71.8305882,55.2658824 71.8117647,51.9152941 C70.8517647,51.9152941 69.9105882,52.1035294 68.9505882,52.1411765 C68.6682353,51.4635294 69.0070588,50.7105882 68.9317647,49.9388235 C68.9694118,46.3811765 68.9129412,42.8235294 69.0070588,39.2658824 C72.0188235,45.3458824 75.2941176,51.6705882 78.4188235,57.7129412 C78.6258824,58.1082353 78.8141176,58.6164706 79.1717647,58.9176471 C82.3529412,52.3105882 85.7035294,45.76 89.0164706,39.2094118 C89.1294118,38.9270588 89.2423529,38.7011765 89.4494118,38.5694118 Z" fill="#FEC324"></path>
                    <path d="M98.6917647,41.0541176 L98.7858824,41.0917647 C98.7482353,48.6023529 98.7858824,56.1129412 98.7670588,63.6235294 C98.7105882,71.6423529 98.7482353,79.6988235 98.7294118,87.7176471 C98.7670588,88.9223529 98.7670588,90.1082353 98.7294118,91.2941176 C98.6164706,90.24 98.7858824,89.1670588 98.56,88.1129412 C98.2588235,81.0164706 97.6941176,73.7882353 96.2447059,66.8235294 C95.6235294,63.9623529 94.8517647,61.1576471 93.6094118,58.5035294 C93.0823529,57.4305882 92.4988235,56.4141176 91.7082353,55.5105882 C92.8,55.1341176 93.6094118,54.1364706 94.2494118,53.2141176 C95.5482353,51.2564706 96.4329412,48.9411765 97.1858824,46.72 C97.7505882,44.8376471 98.3152941,42.9552941 98.6917647,41.0541176 Z" fill="#FDFDFE"></path>
                    <path d="M129.185882,45.0635294 C130.635294,45.0823529 132.047059,45.3270588 133.515294,45.3270588 C133.628235,45.7035294 133.703529,46.0988235 133.703529,46.4941176 C133.684706,47.6235294 133.722353,48.7529412 133.703529,49.8823529 C133.703529,50.0517647 133.628235,50.2211765 133.515294,50.3717647 C132.630588,50.1270588 131.727059,50.1647059 130.823529,50.0141176 C130.277647,49.9011765 129.675294,50.0517647 129.185882,49.8070588 C129.223529,48.2447059 129.148235,46.6447059 129.185882,45.0635294 Z" fill="#492F92"></path>
                    <path d="M171.802353,46.7764706 C174.098824,47.1905882 176.395294,47.6611765 178.672941,48.1317647 C178.936471,48.2070588 179.2,48.1694118 179.331765,48.4329412 C179.877647,49.3552941 180.423529,50.2588235 180.950588,51.1811765 C181.025882,54.08 180.988235,57.0541176 181.025882,59.9529412 C180.461176,60.7058824 179.783529,61.4023529 179.2,62.1741176 C176.790588,61.5717647 174.362353,60.8752941 171.934118,60.3105882 C171.84,58.2211765 171.952941,56.1129412 171.821176,54.0235294 C171.821176,51.6141176 171.802353,49.2047059 171.802353,46.7764706 Z" fill="#492F92"></path>
                    <path d="M172.856471,48.0564706 C174.663529,48.2635294 176.470588,48.7905882 178.277647,49.0729412 C178.522353,49.1670588 178.672941,49.2988235 178.785882,49.5247059 C179.087059,50.0894118 179.425882,50.6541176 179.764706,51.2 C180.103529,51.7458824 179.971765,52.4611765 179.990588,53.0823529 C180.009412,55.2282353 179.971765,57.3741176 180.028235,59.52 C179.708235,59.9905882 179.275294,60.3482353 179.011765,60.8564706 C178.277647,61.1011765 177.731765,60.6494118 176.96,60.5552941 C175.623529,60.1223529 174.174118,59.9152941 172.875294,59.4070588 C172.894118,55.6423529 172.818824,51.84 172.856471,48.0564706 Z" fill="#FEC324"></path>
                    <path d="M174.945882,50.5035294 C175.68,50.6352941 176.414118,50.8423529 177.167059,50.9176471 C177.524706,51.4070588 178.014118,52.0658824 177.957647,52.6870588 C177.92,54.6447059 177.976471,56.6211765 177.938824,58.5976471 C176.978824,58.5035294 175.924706,58.1082353 174.964706,57.8635294 C174.945882,55.4352941 174.927059,52.9694118 174.945882,50.5035294 Z" fill="#492F92"></path>
                    <path d="M103.115294,51.5576471 C104.075294,51.52 105.035294,51.6141176 105.995294,51.6141176 C106.014118,52.4988235 106.051765,53.3835294 106.032941,54.2682353 C104.903529,53.7223529 103.755294,52.6117647 103.115294,51.5576471 Z" fill="#FDFDFE"></path>
                    <path d="M90.3905882,56.32 C90.7670588,56.5835294 90.9929412,57.0729412 91.2564706,57.4305882 C93.3458824,60.7058824 94.6070588,64.64 95.3788235,68.4235294 C95.9058824,71.1717647 96.2823529,74.0705882 96.32,76.8752941 C94.8894118,76.8941176 93.4588235,76.9882353 92.0282353,77.1388235 C86.72,77.7035294 81.4117647,78.8705882 76.4235294,80.8094118 C72.3011765,82.4282353 68.4235294,84.5929412 65.1105882,87.5294118 C64.7152941,87.8682353 64.3952941,88.2447059 63.9623529,88.5270588 C64.2635294,86.5317647 64.9788235,84.5741176 65.7505882,82.7294118 C68.0847059,77.3458824 71.6235294,72.6023529 75.8023529,68.4988235 C78.72,65.6564706 81.9388235,63.0776471 85.3647059,60.8564706 C85.1764706,60.9505882 84.9694118,61.0070588 84.8,61.1011765 C81.1105882,63.1717647 77.5717647,65.5811765 74.3529412,68.3482353 C71.0588235,71.1717647 67.9529412,74.4847059 65.92,78.3623529 C65.7129412,78.72 65.6,79.1341176 65.3364706,79.4729412 C65.6564706,78.2682353 66.2023529,77.12 66.7294118,75.9905882 C69.3270588,70.7764706 73.28,66.2023529 77.9670588,62.7576471 C81.7505882,59.9152941 85.9670588,57.8447059 90.3905882,56.32 Z" fill="#FDFDFE"></path>
                    <path d="M109.101176,57.6752941 L109.12,57.6941176 C110.776471,57.9952941 112.470588,58.5976471 114.051765,59.1623529 C117.552941,60.5176471 120.809412,62.3247059 123.727059,64.6964706 C124.950588,65.7505882 126.136471,66.7294118 127.171765,67.9905882 C129.863529,70.9458824 131.934118,74.5223529 133.270588,78.2870588 C133.44,78.9270588 133.722353,79.3788235 133.778824,80.0188235 C133.891765,80.2447059 134.023529,80.4329412 134.042353,80.6776471 C134.569412,82.8235294 135.134118,85.0823529 135.265882,87.3035294 C134.72,82.4658824 132.762353,77.7976471 130.202353,73.6941176 C127.247059,69.0070588 123.237647,65.0729412 118.569412,62.1176471 C115.632941,60.2917647 112.470588,58.7294118 109.157647,57.7129412 L109.138824,57.7129412 L109.101176,57.6752941 L109.101176,57.6752941 Z" fill="#FDFDFE"></path>
                    <path d="M45.3458824,71.4352941 L45.3647059,71.4352941 L45.44,71.4164706 C45.5152941,71.9811765 45.6470588,72.4705882 45.5905882,73.0541176 C45.4211765,74.2023529 45.5529412,75.3694118 45.4964706,76.5176471 C45.9105882,76.6305882 46.2682353,76.48 46.6635294,76.4047059 C49.9576471,75.7270588 53.3647059,74.9741176 56.6588235,74.3529412 C59.8211765,73.7317647 62.8705882,73.2611765 66.0329412,72.7529412 C65.4494118,74.0329412 64.6964706,75.2564706 64.1505882,76.5741176 C63.2847059,78.5505882 62.5317647,80.6211765 62.0235294,82.7294118 C61.5717647,84.3858824 61.3835294,86.1741176 61.0823529,87.8494118 C60.9882353,88.8282353 60.7623529,89.8070588 60.6870588,90.7858824 C60.0470588,91.3129412 59.5388235,91.9341176 59.0494118,92.5929412 C58.9176471,92.9505882 58.9741176,93.3835294 58.9929412,93.76 C59.0870588,95.4541176 59.5011765,97.1858824 59.4447059,98.8423529 C59.4823529,99.3694118 59.0117647,99.5764706 58.7670588,99.9905882 C58.2211765,100.724706 58.24,101.552941 58.4282353,102.418824 C58.4094118,103.190588 58.6541176,103.905882 58.6729412,104.658824 C59.1435294,108.178824 59.6894118,111.943529 60.4611765,115.407059 C60.6494118,116.084706 60.7058824,116.969412 61.12,117.552941 C61.6094118,118.117647 62.2682353,117.872941 62.9458824,117.910588 C63.0964706,118.588235 63.2658824,119.265882 63.36,119.962353 C57.0729412,123.501176 50.7858824,127.077647 44.4988235,130.56 C44.5176471,130.804706 44.5176471,130.992941 44.6305882,131.218824 C46.3058824,135.171765 48.6964706,138.88 51.1811765,142.362353 C51.5764706,142.757647 51.7270588,143.265882 52.1223529,143.661176 C52.5741176,144.225882 52.9505882,144.828235 53.44,145.355294 C53.6094118,145.637647 53.76,145.901176 54.0047059,146.127059 C56.7341176,149.571765 59.6517647,152.903529 62.6823529,156.103529 C65.5058824,159.115294 68.5176471,162.014118 71.7176471,164.630588 C71.8494118,164.762353 72.3011765,164.781176 72.0752941,165.025882 C72.6211765,165.270588 73.0729412,165.76 73.5623529,166.117647 C78.1741176,169.750588 83.1811765,172.950588 88.4705882,175.491765 C91.3882353,176.922353 94.4188235,178.127059 97.5058824,179.049412 C98.0329412,179.181176 98.6541176,179.482353 99.1811765,179.237647 C103.642353,177.675294 107.990588,175.774118 112.188235,173.590588 C117.835294,170.635294 123.2,167.228235 128.094118,163.162353 C132.009412,159.924706 135.548235,156.141176 138.917647,152.338824 C144.357647,146.051765 149.327059,139.218824 153.336471,131.934118 C153.449412,131.727059 153.524706,131.52 153.6,131.294118 C153.185882,131.030588 152.752941,130.861176 152.338824,130.635294 C147.256471,128.131765 142.155294,125.647059 137.091765,123.124706 C137.223529,122.051765 137.543529,120.997647 137.769412,119.943529 C138.145882,119.792941 138.484706,119.755294 138.729412,119.397647 C139.369412,118.456471 139.576471,117.12 139.858824,116.028235 C140.668235,111.905882 141.534118,107.727059 142.211765,103.585882 C142.211765,102.381176 142.569412,101.534118 142.192941,100.498824 C141.872941,99.7458824 141.214118,99.4635294 140.517647,99.1247059 C140.423529,98.2588235 140.762353,97.5058824 140.743529,96.64 C140.912941,95.4541176 140.931765,94.2682353 140.894118,93.0635294 C140.856471,92.48 140.8,91.8588235 140.385882,91.4070588 C139.482353,90.5976471 138.390588,89.8447059 137.618824,88.9223529 C137.430588,88.0752941 137.411765,87.1529412 137.185882,86.2870588 C136.376471,81.5811765 134.927059,77.0070588 132.724706,72.7717647 C134.738824,72.8658824 136.752941,73.3741176 138.748235,73.6376471 C151.134118,75.7835294 163.52,78.9270588 175.397647,83.1058824 C175.247059,84.1976471 174.832941,85.2894118 174.569412,86.3623529 C170.334118,101.214118 164.668235,115.877647 157.176471,129.411765 C154.428235,135.397647 150.682353,141.007059 146.748235,146.277647 C144.715294,148.988235 142.569412,151.623529 140.310588,154.164706 C137.242353,157.609412 134.155294,160.884706 130.654118,163.896471 C130.089412,164.367059 129.487059,164.988235 128.847059,165.327059 L128.978824,165.402353 C128.677647,165.590588 128.376471,165.816471 128.094118,166.042353 C119.830588,172.969412 110.437647,178.465882 100.009412,181.402353 C99.5388235,181.552941 99.0870588,181.665882 98.5976471,181.534118 C89.5058824,179.049412 81.1105882,174.569412 73.6188235,168.884706 C67.4823529,164.235294 61.8541176,158.682353 56.8847059,152.809412 C52.5364706,147.764706 48.4329412,142.588235 45.0823529,136.809412 C44.2541176,135.416471 43.5764706,133.948235 42.7482353,132.536471 C34.6917647,118.512941 28.6117647,103.341176 24.0941176,87.9058824 C23.7364706,86.4376471 23.1717647,85.0447059 22.7952941,83.5952941 C23.1717647,83.3505882 23.5858824,83.2564706 24.0188235,83.1058824 C29.7035294,81.1294118 35.6141176,79.3035294 41.4305882,77.7976471 C41.5811765,77.6094118 41.7129412,77.4211765 41.8447059,77.2329412 C42.8235294,75.6329412 43.8023529,74.0517647 44.8,72.4705882 C45.0258824,72.1317647 45.2705882,71.8494118 45.3458824,71.4352941 Z" fill="#FEC324"></path>
                    <path d="M61.9105882,75.7082353 C61.0823529,77.8917647 60.2352941,80.0752941 59.7458824,82.3717647 C59.2376471,84.6305882 58.9364706,87.0588235 58.5976471,89.2611765 C57.8823529,90.1270588 56.9223529,91.0494118 56.7717647,92.2352941 C56.6023529,94.1364706 57.2988235,96.1505882 57.1670588,98.0141176 C56.7152941,98.6352941 56.3764706,99.2752941 56.2070588,100.028235 C56.0188235,101.515294 56.3011765,102.832941 56.4517647,104.282353 C56.9976471,108.329412 57.5623529,112.244706 58.4658824,116.235294 C58.6541176,116.875294 58.7294118,117.477647 59.0494118,118.08 C59.2188235,118.418824 59.5011765,118.701176 59.6329412,119.04 C54.3247059,121.995294 48.9788235,125.007059 43.6894118,128 C43.5388235,128.075294 43.3882353,128.112941 43.2188235,128.112941 C41.8635294,125.609412 40.5458824,123.087059 39.3035294,120.527059 C33.6941176,109.082353 29.3270588,97.0729412 25.8447059,84.8188235 C26.1647059,84.5929412 26.5976471,84.4988235 26.9552941,84.3670588 C32.1317647,82.6164706 37.4964706,81.0352941 42.7670588,79.6423529 C42.9364706,79.4729412 43.0870588,79.3035294 43.2376471,79.1341176 C44.2541176,79.2282353 45.3082353,78.7764706 46.3058824,78.6447059 C50.5223529,77.7788235 54.4941176,76.9129412 58.7294118,76.1223529 C59.8211765,76.0282353 60.8188235,75.6517647 61.9105882,75.7082353 Z" fill="#492F92"></path>
                    <path d="M137.054118,75.52 C138.145882,75.5952941 139.181176,75.8588235 140.235294,76.0282353 C151.190588,77.9858824 161.807059,80.7341176 172.367059,84.2352941 C172.48,84.9129412 172.16,85.3835294 172.047059,86.0235294 C167.887059,100.517647 162.352941,114.729412 155.087059,127.962353 C154.974118,128.131765 154.88,128.395294 154.691765,128.508235 C154.258824,128.489412 153.825882,128.169412 153.430588,127.981176 C149.007059,125.816471 144.564706,123.614118 140.122353,121.487059 C140.103529,121.167059 140.103529,121.148235 140.329412,120.922353 C141.383529,119.905882 141.778824,118.456471 142.136471,117.082353 C142.738824,114.465882 143.190588,111.792941 143.736471,109.157647 C144.056471,107.275294 144.527059,105.374118 144.696471,103.472941 C144.941176,102.512941 144.865882,101.477647 144.884706,100.498824 C144.828235,99.1811765 144.131765,98.1647059 143.152941,97.3364706 C143.378824,96.1317647 143.397647,94.9458824 143.510588,93.7223529 C143.510588,92.6117647 143.416471,91.4258824 143.021176,90.3905882 C142.456471,89.0164706 141.007059,88.4894118 140.047059,87.3223529 C139.538824,83.6894118 138.654118,80.0564706 137.411765,76.5929412 C137.223529,76.2541176 137.091765,75.8964706 137.054118,75.52 Z" fill="#492F92"></path>
                    <path d="M107.068235,78.7576471 C108.178824,78.7011765 109.195294,78.9835294 110.305882,79.0023529 C110.795294,79.1905882 111.303529,79.0776471 111.774118,79.3035294 C112.112941,79.3788235 112.432941,79.2847059 112.752941,79.4164706 C113.110588,79.5670588 113.487059,79.4541176 113.844706,79.68 C114.898824,79.7552941 115.915294,80.1317647 116.950588,80.3576471 C125.007059,82.56 132.724706,86.9270588 138.635294,92.8941176 C138.654118,96.2635294 138.654118,99.6141176 138.616471,102.983529 C138.277647,104.169412 138.578824,105.487059 138.334118,106.710588 C138.183529,107.331765 138.315294,107.971765 138.145882,108.592941 C138.014118,109.044706 138.145882,109.496471 137.92,109.929412 C137.882353,111.378824 137.562353,112.865882 137.317647,114.277647 C137.167059,115.576471 136.734118,117.176471 136.489412,118.494118 C136.357647,118.757647 136.432941,119.152941 136.207059,119.36 C135.924706,121.223529 135.247059,123.2 134.701176,124.988235 C131.877647,133.854118 127.284706,142.155294 120.941176,149.007059 C119.887059,150.08 118.832941,151.152941 117.741176,152.207059 C112.545882,156.950588 106.541176,160.828235 99.9152941,163.294118 C99.6141176,163.425882 99.3505882,163.52 99.0117647,163.557647 C99.8588235,163.218824 100.630588,162.729412 101.421176,162.277647 C105.976471,159.604706 110.362353,156.461176 114.277647,152.903529 C115.576471,151.830588 116.705882,150.550588 117.910588,149.383529 C122.315294,144.771765 126.08,139.557647 128.997647,133.891765 C132.348235,127.435294 134.437647,120.790588 135.717647,113.694118 C135.868235,113.355294 135.774118,112.922353 135.849412,112.564706 C136.075294,111.962353 135.943529,111.322353 136.188235,110.701176 C136.225882,110.305882 136.169412,109.948235 136.357647,109.571765 C136.432941,108.8 136.32,108.065882 136.545882,107.312941 C136.621176,106.221176 136.527059,105.167059 136.752941,104.094118 C136.734118,102.268235 136.771765,100.404706 136.734118,98.5976471 C136.451765,97.6188235 136.715294,96.5458824 136.451765,95.5858824 C136.263529,94.9082353 136.621176,94.3247059 136.056471,93.7976471 C132.235294,89.4305882 126.927059,86.1741176 121.581176,83.9905882 C118.211765,82.5976471 114.992941,81.6752941 111.454118,80.8658824 C111.247059,80.8658824 111.058824,80.8282353 110.908235,80.7152941 C110.249412,80.7341176 109.703529,80.4705882 109.044706,80.4517647 C108.592941,80.2447059 108.141176,80.3952941 107.727059,80.1505882 C107.369412,80.0941176 106.992941,80.1317647 106.616471,80.1317647 C106.635294,79.6235294 106.823529,79.1905882 107.068235,78.7576471 Z" fill="#FDFDFE"></path>
                    <path d="M96.2070588,79.9435294 C96.5458824,81.8447059 96.8847059,83.7270588 97.1294118,85.6470588 C98.0141176,92.2917647 98.5035294,98.9929412 98.7105882,105.694118 C100.197647,105.675294 101.665882,105.694118 103.152941,105.675294 C103.510588,105.336471 104.282353,105.618824 104.771765,105.449412 C105.675294,105.204706 106.672941,105.468235 107.557647,105.148235 C108.028235,105.091765 108.442353,105.204706 108.894118,104.978824 C109.289412,104.903529 109.76,105.016471 110.117647,104.847059 C110.418824,104.715294 110.776471,104.752941 111.096471,104.658824 C116.517647,103.792941 121.882353,102.381176 127.058824,100.555294 C128.244706,100.178824 129.430588,99.6141176 130.597647,99.2376471 C130.183529,99.9152941 130.465882,100.574118 130.296471,101.289412 C129.976471,102.023529 130.352941,102.983529 129.995294,103.698824 C129.957647,104.583529 129.976471,105.468235 129.901176,106.352941 C129.901176,106.654118 129.825882,107.049412 129.976471,107.331765 C130.898824,108.122353 131.915294,108.818824 132.856471,109.571765 C133.741176,110.192941 134.550588,110.908235 135.454118,111.510588 C135.454118,111.887059 135.265882,112.037647 135.04,112.301176 C132.724706,115.181176 129.882353,117.647059 126.814118,119.68 C121.712941,123.087059 115.934118,125.552941 110.155294,127.454118 C106.936471,128.470588 103.962353,129.298824 100.649412,129.995294 C100.141176,130.014118 99.5952941,130.315294 99.0494118,130.258824 C98.9176471,130.409412 98.7858824,130.578824 98.6541176,130.729412 C98.7858824,131.275294 98.6917647,131.783529 98.7105882,132.348235 C98.7105882,142.795294 98.7294118,153.28 98.6917647,163.745882 C94.0611765,162.258824 89.7317647,159.510588 86.0235294,156.404706 C80.9411765,152.112941 76.7058824,146.729412 73.4305882,140.950588 C68.6117647,132.498824 65.6,122.955294 63.8117647,113.430588 C63.5858824,112.207059 63.3411765,111.021176 63.2658824,109.778824 C62.6823529,104 62.1364706,98.2023529 61.5152941,92.4235294 C61.8541176,92.0658824 62.2682353,91.8023529 62.6447059,91.5011765 C65.1670588,89.6188235 67.8588235,87.9623529 70.6447059,86.5129412 C78.4752941,82.4094118 87.3788235,79.8117647 96.2070588,79.9435294 Z" fill="#FDFDFE"></path>
                    <path d="M60.7058824,99.5952941 C60.8564706,100.517647 60.8376471,101.477647 60.9505882,102.4 C61.4023529,107.068235 62.2494118,111.717647 63.3976471,116.254118 C63.0776471,116.423529 62.9082353,116.442353 62.6258824,116.197647 C62.2117647,115.783529 62.0235294,115.124706 61.8164706,114.597647 C61.3082353,112.978824 60.9882353,111.303529 60.7058824,109.647059 C60.2729412,106.804706 59.8588235,103.943529 59.7082353,101.082353 C59.6329412,100.404706 60.2352941,99.9529412 60.7058824,99.5952941 Z" fill="#FDFDFE"></path>
                    <path d="M69.0823529,99.9717647 C73.3929412,101.571765 77.7976471,102.927059 82.2776471,104.018824 C86.8894118,105.148235 91.6329412,105.995294 96.3764706,106.24 C97.4305882,106.24 98.5976471,106.428235 99.5764706,106.089412 C100.705882,106.108235 101.835294,106.070588 102.964706,106.070588 C103.228235,106.089412 103.472941,106.014118 103.717647,105.92 C104.771765,105.844706 105.901176,105.957647 106.917647,105.731765 C107.331765,105.656471 107.727059,105.731765 108.141176,105.618824 C108.705882,105.430588 109.270588,105.6 109.816471,105.411765 C110.174118,105.298824 110.550588,105.392941 110.889412,105.242353 C111.190588,105.091765 111.604706,105.185882 111.924706,105.129412 C112.451765,104.884706 112.978824,105.016471 113.524706,104.847059 C115.068235,104.583529 116.404706,104.282353 117.891765,103.981176 C118.456471,103.774118 119.190588,103.792941 119.717647,103.491765 C119.887059,103.491765 120.037647,103.472941 120.188235,103.435294 C121.072941,103.134118 122.258824,102.964706 123.105882,102.569412 C124.028235,102.418824 124.950588,102.023529 125.835294,101.722353 C127.058824,101.345882 128.357647,100.762353 129.449412,100.404706 C129.411765,101.703529 129.392941,103.002353 129.411765,104.301176 C129.449412,104.658824 129.28,104.903529 129.242353,105.242353 C129.223529,106.014118 129.223529,106.785882 129.223529,107.557647 C128.564706,107.708235 127.981176,108.141176 127.36,108.404706 C122.183529,110.945882 116.461176,112.696471 110.870588,113.901176 C109.835294,114.127059 108.687059,114.258824 107.689412,114.541176 C107.2,114.484706 106.842353,114.748235 106.371765,114.748235 C105.769412,114.729412 105.242353,114.955294 104.64,114.974118 C104.150588,115.237647 103.642353,115.011765 103.134118,115.162353 C102.475294,115.463529 101.797647,115.124706 101.12,115.463529 C100.103529,115.482353 99.0870588,115.557647 98.0894118,115.463529 C93.7788235,115.294118 89.4870588,114.748235 85.2705882,113.844706 C80.0941176,112.677647 74.88,111.002353 70.2305882,108.442353 C68.48,109.327059 66.7670588,110.324706 64.9976471,111.171765 C65.0164706,111.303529 65.0729412,111.397647 65.1294118,111.491765 C65.8823529,112.376471 66.6917647,113.204706 67.5388235,113.976471 C71.8682353,117.910588 77.0823529,120.997647 82.3905882,123.407059 C87.4352941,125.665882 92.7058824,127.378824 98.0894118,128.658824 C98.2964706,128.734118 98.6541176,128.715294 98.7858824,128.903529 C98.8047059,129.317647 98.7294118,129.694118 98.88,130.089412 C98.7294118,130.202353 98.56,130.334118 98.3905882,130.428235 C97.9388235,130.202353 97.4494118,130.164706 96.9788235,130.014118 C92.9317647,128.978824 88.9411765,127.604706 85.0635294,126.004706 C80.0941176,123.915294 75.2376471,121.336471 70.9270588,118.098824 C68.2541176,116.065882 65.6564706,113.750588 63.6235294,111.058824 C65.6941176,110.023529 67.7458824,108.969412 69.8352941,107.952941 C69.5717647,105.261176 69.2705882,102.625882 69.0823529,99.9717647 Z" fill="#492F92"></path>
                    <path d="M129.524706,108.103529 C131.181176,109.176471 132.875294,110.324706 134.4,111.623529 C133.515294,112.865882 132.423529,114.070588 131.237647,115.049412 C127.152941,118.738824 122.108235,121.543529 117.063529,123.651765 C113.524706,125.12 110.061176,126.249412 106.334118,127.209412 C105.28,127.529412 103.981176,127.717647 102.983529,128.056471 C101.571765,128.225882 100.197647,128.621176 98.7670588,128.809412 C98.7105882,124.649412 98.7482353,120.432941 98.7482353,116.254118 C100.197647,116.291765 101.590588,116.178824 103.002353,116.009412 C103.548235,115.727059 104.112941,116.009412 104.64,115.764706 C105.091765,115.557647 105.675294,115.802353 106.164706,115.576471 C106.541176,115.407059 106.936471,115.576471 107.294118,115.388235 C107.670588,115.218824 108.084706,115.350588 108.48,115.218824 C110.983529,114.710588 113.487059,114.183529 115.934118,113.430588 C117.138824,113.185882 118.324706,112.64 119.529412,112.357647 C119.943529,112.075294 120.451765,112.131765 120.847059,111.830588 C121.938824,111.548235 122.992941,111.058824 124.047059,110.663529 C125.891765,109.872941 127.774118,109.12 129.524706,108.103529 Z" fill="#492F92"></path>
                    <path d="M76.0470588,112.545882 C76.2917647,112.602353 76.5176471,112.658824 76.7623529,112.715294 L76.7058824,112.903529 C75.6141176,114.296471 74.4847059,115.727059 73.3741176,117.12 C73.1294118,116.988235 72.8658824,116.856471 72.6211765,116.705882 C73.7129412,115.275294 74.9176471,113.92 76.0470588,112.545882 Z" fill="#492F92"></path>
                    <path d="M121.505882,113.6 C122.503529,115.011765 123.764706,116.254118 124.781176,117.647059 C124.536471,117.797647 124.310588,117.985882 124.009412,117.948235 C122.936471,116.498824 121.807059,115.105882 120.677647,113.712941 C120.96,113.6 121.204706,113.562353 121.505882,113.6 Z" fill="#FDFDFE"></path>
                    <path d="M81.1858824,114.484706 C81.4305882,114.484706 81.6752941,114.578824 81.9011765,114.635294 C81.8635294,114.785882 81.8070588,114.917647 81.7129412,115.049412 C80.5082353,116.705882 79.3223529,118.381176 78.1364706,120.037647 C77.8917647,119.905882 77.6282353,119.792941 77.3647059,119.68 C77.4588235,119.491765 77.5529412,119.303529 77.6847059,119.134118 C78.8705882,117.571765 80.0188235,116.009412 81.1858824,114.484706 Z" fill="#492F92"></path>
                    <path d="M116.272941,115.049412 C116.329412,115.275294 116.517647,115.444706 116.630588,115.651765 C117.778824,117.176471 118.945882,118.72 120.075294,120.263529 C119.830588,120.338824 119.567059,120.489412 119.341176,120.621176 C118.268235,119.077647 117.157647,117.571765 116.065882,116.028235 C115.877647,115.764706 115.689412,115.482353 115.425882,115.275294 C115.745882,115.312941 115.990588,115.2 116.272941,115.049412 Z" fill="#FDFDFE"></path>
                    <path d="M85.9670588,115.651765 C86.1929412,115.689412 86.4376471,115.745882 86.6823529,115.783529 C86.72,116.028235 86.4941176,116.291765 86.4,116.517647 C85.3835294,118.456471 84.3294118,120.376471 83.3317647,122.334118 C83.0494118,122.277647 82.7670588,122.183529 82.5035294,122.070588 C82.5411765,121.863529 82.6352941,121.675294 82.7294118,121.505882 C83.8211765,119.567059 84.8564706,117.590588 85.9670588,115.651765 Z" fill="#492F92"></path>
                    <path d="M111.435294,116.310588 C112.188235,117.76 113.054118,119.228235 113.825882,120.696471 C114.24,121.336471 114.484706,122.032941 114.955294,122.616471 C114.767059,122.710588 114.164706,123.011765 114.032941,122.767059 C112.997647,120.64 111.717647,118.512941 110.72,116.385882 C110.870588,116.310588 111.322353,116.141176 111.435294,116.310588 Z" fill="#FDFDFE"></path>
                    <path d="M90.24,116.950588 C90.4847059,116.837647 90.8611765,116.912941 91.0870588,117.007059 C90.2776471,119.171765 89.5058824,121.336471 88.7341176,123.501176 C88.5835294,123.877647 88.5082353,124.272941 88.2823529,124.611765 C88.0376471,124.517647 87.7929412,124.442353 87.5294118,124.367059 C87.5482353,123.877647 87.8117647,123.425882 87.9623529,122.955294 C88.7529412,120.941176 89.4870588,118.964706 90.24,116.950588 Z" fill="#492F92"></path>
                    <path d="M106.409412,117.176471 C106.616471,117.176471 106.974118,117.082353 107.124706,117.232941 C107.407059,118.287059 107.877647,119.36 108.254118,120.395294 C108.743529,121.675294 109.308235,123.369412 109.872941,124.592941 C109.609412,124.743529 109.308235,124.705882 109.007059,124.762353 C108.404706,122.917647 107.538824,120.696471 106.842353,118.682353 C106.672941,118.211765 106.390588,117.703529 106.409412,117.176471 Z" fill="#FDFDFE"></path>
                    <path d="M94.8141176,117.741176 C95.0776471,117.76 95.3411765,117.778824 95.6235294,117.816471 C94.8705882,120.696471 94.08,123.595294 93.3270588,126.475294 C93.0258824,126.418824 92.7247059,126.343529 92.4423529,126.268235 C93.1576471,123.576471 93.9294118,120.884706 94.6635294,118.192941 C94.7011765,118.042353 94.7576471,117.891765 94.8141176,117.741176 Z" fill="#492F92"></path>
                    <path d="M102.663529,117.910588 C102.663529,118.795294 103.152941,119.604706 103.284706,120.470588 C103.454118,121.223529 103.811765,121.957647 103.868235,122.729412 C104.207059,123.275294 104.225882,123.990588 104.470588,124.592941 C104.583529,125.157647 104.847059,125.628235 104.828235,126.230588 C104.564706,126.230588 104.301176,126.230588 104.037647,126.230588 C103.811765,124.875294 103.265882,123.52 103.04,122.164706 C102.588235,120.884706 102.343529,119.491765 101.948235,118.192941 C101.741176,117.741176 102.4,117.985882 102.663529,117.910588 Z" fill="#FDFDFE"></path>
                    <path d="M71.7364706,120.865882 C72.2258824,121.317647 72.6964706,121.769412 73.1858824,122.202353 C73.1670588,126.776471 73.2047059,131.350588 73.1670588,135.924706 C72.6588235,135.002353 72.1694118,134.042353 71.7364706,133.082353 C71.7176471,129.016471 71.6988235,124.931765 71.7364706,120.865882 Z" fill="#492F92"></path>
                    <path d="M126.983529,122.785882 C126.927059,126.588235 126.983529,130.390588 126.945882,134.192941 C126.512941,134.964706 126.061176,135.736471 125.609412,136.508235 C125.628235,132.235294 125.628235,127.962353 125.609412,123.708235 C126.117647,123.501176 126.569412,123.124706 126.983529,122.785882 Z" fill="#FDFDFE"></path>
                    <path d="M63.7552941,123.896471 C65.7129412,130.748235 68.5364706,137.524706 71.9058824,143.792941 C75.0117647,149.477647 78.7952941,155.030588 83.3882353,159.642353 C87.3223529,163.651765 92.0658824,167.096471 97.2988235,169.185882 L97.2611765,169.543529 C93.1764706,168.64 89.2423529,166.531765 85.7976471,164.178824 C79.3035294,159.698824 73.6752941,153.637647 68.8941176,147.388235 C68.6870588,147.124706 68.4988235,146.898824 68.4047059,146.578824 C68.3482353,146.616471 68.2917647,146.654118 68.2164706,146.691765 C68.1976471,146.522353 68.1223529,146.352941 68.0282353,146.24 C63.7741176,140.498824 60.0658824,134.437647 56.6776471,128.150588 C58.7858824,126.757647 60.9882353,125.477647 63.1152941,124.103529 C63.3411765,123.952941 63.4917647,123.896471 63.7552941,123.896471 Z" fill="#FEC324"></path>
                    <path d="M76.5364706,124.856471 C76.9882353,125.251765 77.4964706,125.534118 77.9670588,125.910588 C77.9294118,131.745882 77.9858824,137.618824 77.9294118,143.454118 C77.3835294,142.870588 76.9505882,142.136471 76.4988235,141.477647 C76.4423529,136.282353 76.4988235,130.955294 76.48,125.741176 C76.48,125.458824 76.4423529,125.12 76.5364706,124.856471 Z" fill="#492F92"></path>
                    <path d="M122.108235,125.910588 C122.070588,131.105882 122.127059,136.338824 122.089412,141.534118 C121.675294,142.117647 121.148235,142.588235 120.771765,143.209412 C120.790588,137.675294 120.771765,132.16 120.771765,126.625882 C121.223529,126.381176 121.637647,126.117647 122.108235,125.910588 Z" fill="#FDFDFE"></path>
                    <path d="M136.790588,126.136471 C138.051765,126.701176 139.388235,127.228235 140.649412,127.774118 C140.988235,128 140.574118,128.677647 140.423529,128.922353 C137.242353,135.058824 133.722353,140.969412 129.6,146.522353 C129.223529,147.068235 128.734118,147.557647 128.451765,148.16 C128.188235,147.934118 128.225882,148.404706 128.075294,148.517647 C125.910588,151.303529 123.557647,153.938824 121.110588,156.48 C119.228235,158.305882 117.477647,159.887059 115.444706,161.543529 C115.162353,161.694118 114.936471,161.901176 114.710588,162.108235 C110.644706,165.195294 105.995294,167.962353 101.044706,169.298824 C100.781176,169.317647 100.235294,169.505882 100.122353,169.185882 C100.781176,168.997647 101.383529,168.677647 102.023529,168.414118 C107.971765,165.703529 113.129412,161.637647 117.647059,156.950588 C119.774118,154.710588 121.712941,152.357647 123.595294,149.910588 C123.764706,149.665882 123.952941,149.496471 123.971765,149.195294 C124.047059,149.232941 124.103529,149.289412 124.16,149.327059 C124.367059,148.649412 124.931765,148.103529 125.327059,147.52 C129.392941,141.665882 132.837647,135.397647 135.661176,128.847059 C136.037647,127.962353 136.357647,127.021176 136.790588,126.136471 Z" fill="#FEC324"></path>
                    <path d="M81.7317647,128.188235 C82.2211765,128.451765 82.6917647,128.715294 83.2,128.96 L83.2376471,129.317647 C83.2188235,136.075294 83.2564706,142.927059 83.2188235,149.665882 C82.6917647,149.214118 82.1270588,148.668235 81.7505882,148.103529 C81.7317647,141.515294 81.7694118,134.795294 81.7317647,128.188235 Z" fill="#492F92"></path>
                    <path d="M116.969412,128.432941 C116.931765,134.644706 116.988235,140.950588 116.950588,147.162353 C116.48,147.670588 115.952941,148.122353 115.482353,148.649412 C115.576471,142.155294 115.463529,135.604706 115.538824,129.110588 C116.028235,128.903529 116.536471,128.790588 116.969412,128.432941 Z" fill="#FDFDFE"></path>
                    <path d="M143.378824,129.204706 C143.755294,129.167059 144.075294,129.374118 144.395294,129.543529 C146.051765,130.221176 147.595294,131.068235 149.214118,131.821176 C143.115294,141.797647 135.981176,151.228235 127.247059,159.058824 C119.604706,165.929412 110.908235,171.463529 101.232941,174.983529 C100.329412,175.228235 99.2941176,175.887059 98.3341176,175.717647 C91.7082353,173.383529 85.4776471,170.108235 79.6611765,166.136471 C73.6376471,162.032941 68.0847059,157.195294 63.0776471,151.887059 C62.4752941,151.115294 61.7223529,150.494118 61.1388235,149.722353 C56.6023529,144.583529 52.5552941,138.955294 49.28,132.931765 C49.2235294,132.818824 49.1858824,132.705882 49.1670588,132.574118 C50.4847059,131.915294 51.6894118,131.068235 52.9882353,130.371765 C53.4964706,130.127059 53.7976471,129.750588 54.3435294,129.712941 C54.9458824,131.162353 55.7176471,132.592941 56.4329412,133.985882 C61.7411765,144.150588 68.6305882,153.449412 77.4211765,160.884706 C83.4635294,166.004706 90.5035294,170.221176 98.0141176,172.687059 C98.7294118,173.101176 99.2188235,172.762353 99.9152941,172.611765 C103.962353,171.52 107.877647,169.581176 111.416471,167.341176 C117.722353,163.331765 123.237647,158.023529 128.056471,152.357647 C134.042353,145.28 139.087059,137.374118 143.378824,129.204706 Z" fill="#FDFDFE"></path>
                    <path d="M111.190588,130.823529 C111.171765,137.957647 111.171765,145.091765 111.190588,152.225882 C110.72,152.527059 110.305882,152.884706 109.854118,153.204706 C109.872941,145.901176 109.854118,138.597647 109.854118,131.312941 C110.324706,131.294118 110.776471,131.049412 111.190588,130.823529 Z" fill="#FDFDFE"></path>
                    <path d="M87.3788235,130.974118 C87.8870588,131.068235 88.3011765,131.350588 88.8094118,131.463529 C88.8658824,131.689412 88.8847059,131.915294 88.8658824,132.141176 C88.8470588,139.614118 88.8847059,147.105882 88.8470588,154.597647 C88.3388235,154.277647 87.9058824,153.863529 87.3976471,153.524706 C87.3788235,153.167059 87.36,152.828235 87.3788235,152.470588 C87.3788235,145.298824 87.3788235,138.145882 87.3788235,130.974118 Z" fill="#492F92"></path>
                    <path d="M105.731765,132.592941 C105.712941,140.385882 105.712941,148.197647 105.731765,156.009412 C105.261176,156.197647 104.790588,156.536471 104.357647,156.8 C104.376471,148.856471 104.357647,140.931765 104.357647,132.988235 C104.847059,133.007059 105.317647,132.856471 105.731765,132.592941 Z" fill="#FDFDFE"></path>
                    <path d="M92.8941176,132.931765 C93.4023529,133.082353 93.9105882,133.214118 94.4,133.402353 C94.3623529,141.609412 94.4188235,149.835294 94.3811765,158.042353 C93.8729412,157.778824 93.3647059,157.534118 92.8941176,157.195294 C92.8941176,149.12 92.9129412,141.025882 92.8941176,132.931765 Z" fill="#492F92"></path>
                </g>
            </g>
        </g>
    </g>
</svg>