<?xml version="1.0" encoding="UTF-8"?>
<svg width="200px" height="200px" viewBox="0 0 200 200" version="1.1" xmlns="http://www.w3.org/2000/svg" xmlns:xlink="http://www.w3.org/1999/xlink">
    <!-- Generator: Sketch 54.1 (76490) - https://sketchapp.com -->
    <title>mcdaniel</title>
    <desc>Created with Sketch.</desc>
    <g id="mcdaniel" stroke="none" stroke-width="1" fill="none" fill-rule="evenodd">
        <g id="mcdaniel_BGL" transform="translate(0.000000, 0.000000)">
            <g id="mcdaniel" transform="translate(0.000000, 40.000000)">
                <g id="g10" transform="translate(99.999998, 60.123754) scale(-1, 1) rotate(-180.000000) translate(-99.999998, -60.123754) translate(0.000000, 0.043915)">
                    <g id="g12">
                        <path d="M50.3504977,82.5908163 C40.443512,84.3636705 5.36379228,90.307383 5.36379228,90.307383 L116.909378,117.141314 L112.128939,106.534129 C112.128939,106.534129 174.203588,118.515766 182.43752,119.450296 C183.894606,119.615965 185.467061,119.813171 186.958878,119.880237 C188.485424,119.949298 190.219157,119.902991 191.768458,119.406384 C195.918558,118.075047 197.041911,114.270656 195.479436,109.260676 C194.086622,104.801993 192.3976,100.358081 190.76766,95.937323 C197.097799,95.5305365 200.699396,91.2171634 199.697001,84.8722534 C199.331332,83.3361257 198.689017,80.7492994 198.121752,78.5908164 C197.836722,77.4990001 197.562869,76.4910161 197.344107,75.7277426 C197.224746,75.3177626 197.119356,74.9724532 197.035923,74.7157666 C196.892211,74.2758464 196.722151,73.8882217 196.556482,73.6391199 L196.143308,73.0199583 L188.524147,69.5568845 L178.562471,39.9636717 L177.138119,39.6383623 C133.236324,29.6015961 88.6307363,18.4850694 46.4335318,2.63067458 L39.573492,0 L43.4874241,10.7265067 L21.573732,4.33413163 L37.6266258,41.6658672 L0,48.849899 L41.2926137,61.9940104 C42.875448,65.5033916 46.8774439,74.2662656 49.7656674,81.0682614 C49.9876235,81.6487006 50.1836315,82.152493 50.3504977,82.5908163" id="path14" fill="#F2CF0E"></path>
                        <path d="M186.966462,93.1157661 C194.530534,94.3656663 198.009576,90.8866245 197.139716,85.3780418 C196.413967,82.3337305 194.674247,75.5213554 194.385225,75.0862257 L186.411971,71.4618745 L176.556483,42.1816357 C132.542112,32.120598 86.3728521,20.3884226 44.0666656,4.49381226 L47.6910168,14.7855885 L26.1645502,8.40802374 L40.396007,41.4974042 C41.0570848,43.3652684 40.8870249,43.7205578 39.3559671,43.9944101 L10.7280636,49.4287413 L43.1968053,59.8658668 C44.2335318,62.2027929 48.9237513,72.4051878 52.1852282,80.0874231 C53.7053879,84.073451 54.0686613,84.5812354 52.0395197,84.942912 C52.0395197,84.942912 18.120798,90.307383 17.7579237,90.5245486 L112.342113,113.354887 L107.702193,103.062273 C107.702193,103.062273 174.558079,115.929338 182.730934,116.857482 C188.335325,117.493809 195.679436,118.666264 192.988418,110.038321 C191.218358,104.366464 188.960874,98.7201572 186.966462,93.1157661" id="path16" fill="#17412E"></path>
                        <path d="M128.528939,92.333331 L129.947302,95.907782 C130.050695,96.1712551 130.157282,96.4415146 130.226743,96.6890195 C130.295805,96.9417141 130.330536,97.1880215 130.275446,97.3904167 C130.154488,97.8135704 129.621554,98.0363249 128.305386,97.7668638 L125.843111,97.2630714 L123.484628,91.3013949 L128.528939,92.333331 Z M134.708979,101.481435 C136.974048,101.944508 137.930535,101.501395 138.276244,100.783231 C138.62315,100.05868 138.323749,99.0866243 138.137721,98.6143688 C137.040316,95.8299377 135.616364,92.1465047 135.197202,91.0566844 L129.647901,89.9221534 L126.995206,89.3788401 L122.440716,88.4475028 L122.314967,88.1325327 C120.988819,84.8271436 119.695805,81.5988004 119.282632,80.5512954 C118.896604,79.5668643 119.182033,78.853491 120.564069,79.1357266 L123.58842,79.7548882 L126.083829,86.0526925 L133.875446,87.6315347 L130.727741,79.0666647 C130.727741,79.0666647 118.558081,76.132533 114.504987,75.3349283 C111.164069,74.6782416 110.417961,76.1389203 111.627542,79.1409162 C112.986824,82.5181616 118.300596,96.0614746 119.180436,98.3049876 L134.708979,101.481435 L134.708979,101.481435 Z" id="path18" fill="#FFFFFF"></path>
                        <path d="M125.533729,70.1141699 C125.508979,70.1013955 124.296604,66.9305372 123.758081,65.807184 L114.121754,61.1720544 C114.734927,62.4618747 116.679039,67.0946091 117.071055,67.9209564 C117.196005,68.1832318 117.329738,68.4379224 117.456684,68.7001979 C117.563271,68.9233516 117.681434,69.1608765 117.715766,69.4155671 C117.819558,70.2079823 116.907782,70.0942098 116.465865,69.997603 L114.248301,69.4834314 C114.216764,69.4878226 105.599598,47.388422 104.404788,44.4479031 L95.2494986,41.7393203 C96.7496982,45.1736516 107.209977,70.4135711 107.241514,70.3057867 C112.174847,71.4762457 113.500995,71.8898186 118.362472,72.9784413 C121.061075,73.722553 124.043111,73.5313355 125.182033,72.2179623 C125.632731,71.696605 125.795606,70.999599 125.533729,70.1141699 Z M98.8550873,103.024349 C99.0479017,102.830736 93.4407162,91.8111753 93.4810356,91.6367243 C89.7496984,90.6670636 86.0027923,89.6778421 82.2407165,88.6706565 C82.9313353,90.0498979 83.6315348,91.4231514 84.3413153,92.7880216 C84.5313352,93.1532911 84.7241496,93.5165645 84.8842294,93.8997981 C85.0167643,94.2267442 85.1449081,94.5916144 85.0902174,94.9580815 C84.8439101,96.0654667 83.2283412,95.5528918 82.5572834,95.3808359 C81.261475,95.0375226 79.9624731,94.6926124 78.6634711,94.3457062 C74.3896189,86.1908162 70.2079823,77.9133713 66.1441101,69.5049883 C65.4415153,67.9700582 65.864669,66.6926131 67.5265452,67.1233516 C69.1365252,67.5844294 70.7409164,68.0407169 72.3433116,68.4942099 C73.5588804,71.0658665 74.7812357,73.6263455 76.0123733,76.178042 C74.0874233,75.6423135 72.1576828,75.1017945 70.2251479,74.5556868 C77.3588803,79.0227525 84.4578821,83.3836306 91.5181614,87.641914 C88.2379219,80.9652674 85.0167643,74.213571 81.8487005,67.3928127 C73.8826329,65.1724535 59.4686612,61.3473039 51.3357273,58.9556871 C51.30938,58.9209566 51.2950087,58.9169646 51.2950087,58.9441103 L51.3357273,58.9556871 C52.0471045,59.8962061 61.9425134,82.5433113 65.4906171,89.3904169 C66.8514953,92.0187602 52.2614757,91.5520935 52.2614757,91.5520935 C61.0439106,93.6075825 91.2662652,101.083431 98.8550873,103.024349 L98.8550873,103.024349 Z M178.194008,89.7197582 C175.704187,89.25389 173.20279,88.7756465 170.690215,88.2870237 C172.91297,94.2367242 175.157281,100.149299 177.526942,105.943311 C177.619157,106.165666 177.708578,106.390017 177.774846,106.626345 C177.832331,106.834329 177.869457,107.060676 177.816762,107.278241 C177.602391,107.97365 176.755285,107.826345 176.294606,107.754488 L174.203588,107.403191 C171.470654,100.829938 168.720155,93.731335 166.133728,86.9780417 C164.46786,86.6423132 160.078639,85.5832314 158.401194,85.2375228 C158.981633,85.6243492 166.692611,107.915367 166.908579,108.051494 C171.703788,108.880636 177.446303,110.187622 182.158079,110.92854 C183.613967,111.124149 186.22754,111.059478 185.231133,108.431534 C182.829137,102.264668 180.48782,96.0247481 178.194008,89.7197582 Z M161.672651,59.4007969 C156.36806,58.1365255 151.013968,56.8159666 145.596803,55.5141703 C142.754487,54.8922142 141.569258,56.4111762 142.774448,59.668262 C145.496204,66.7991999 148.145306,73.9229522 150.898998,80.9437106 C156.045505,82.0690598 161.141313,83.1473033 166.191613,84.1792394 C167.974048,84.5001975 170.43792,84.2850278 169.394008,81.3496986 C166.758878,74.1101778 164.190016,66.7908167 161.672651,59.4007969 L161.672651,59.4007969 Z M161.205984,78.045507 C161.306982,78.3205569 161.410774,78.5952076 161.48822,78.8814352 C161.556084,79.1449082 161.606782,79.4271437 161.544507,79.6993992 C161.301393,80.5576826 160.265864,80.3357265 159.700196,80.2215549 L157.707381,79.7944092 C155.424747,73.8107766 153.188419,67.769659 150.993609,61.6758468 C150.582032,60.4475035 151.112172,59.6179626 152.197601,59.8455075 C153.070256,60.0542899 153.94291,60.2634715 154.812771,60.4706572 C156.904986,66.3788407 159.034727,72.2383215 161.205984,78.045507 L161.205984,78.045507 Z M91.0419139,57.3500984 C91.6319338,58.7121742 92.2251474,60.0730524 92.8215546,61.4299386 C92.9540895,61.7349286 93.0890196,62.0403178 93.1988001,62.3568847 C93.29381,62.640717 93.3756464,62.9473038 93.3341294,63.2510962 C93.1584807,64.1656671 92.0063849,63.8514954 91.4331314,63.7005972 L89.2906165,63.1073837 C88.2311355,60.7353278 87.1796385,58.3536912 86.136924,55.9620744 C87.7772433,56.4299387 89.4115746,56.8922141 91.0419139,57.3500984 L91.0419139,57.3500984 Z M98.719758,68.2467049 C100.7988,68.7532917 103.220756,68.4467049 101.924948,65.3884215 C100.634728,62.4075833 99.3720534,59.4035913 98.1265445,56.3812361 C96.0646683,55.810777 93.9952072,55.2335316 91.9185606,54.6471044 C90.9940097,54.3864258 90.0682612,54.1245495 89.1409159,53.8610765 C87.6862254,53.4479029 86.2307364,53.0299388 84.7708562,52.6095795 L84.6710558,52.380837 C83.3205568,49.2662662 81.9780419,46.136925 80.6678623,42.9820349 C80.199998,41.7868253 80.5065848,40.7241507 81.7852275,41.065468 C82.7213552,41.3449091 83.6546885,41.6211566 84.5876226,41.8978033 C85.6634709,44.5257474 86.7492992,47.1433122 87.8451076,49.7485018 C90.7101774,50.5680626 93.5616743,51.372853 96.3995984,52.164869 C94.8546882,48.4654679 93.331335,44.7433123 91.8239498,40.9992006 C86.136924,39.3201188 80.399998,37.5789212 74.5912157,35.8510969 C71.2618745,34.9337317 70.6598785,37.0044302 71.9748485,40.1896198 C75.3500979,48.1281425 78.7540898,55.990817 82.2778423,63.7277429 C87.8075826,65.2874235 93.287822,66.7936111 98.719758,68.2467049 L98.719758,68.2467049 Z M115.072253,93.0870236 C115.049099,93.0722532 113.850696,89.9449079 113.32375,88.8367243 L103.745307,83.9692594 C104.345706,85.2411156 106.659878,90.1077822 107.042712,90.923351 C107.164868,91.1812352 107.295806,91.4331314 107.419957,91.6910157 C107.52375,91.9113749 107.639119,92.1461055 107.676245,92.3980017 C107.78882,93.1784408 106.924947,93.0666643 106.504189,92.9716544 L104.403191,92.4642691 C100.841914,85.0786406 97.4031912,77.5453074 94.0754467,69.8850282 C91.3325326,69.1465053 88.5780417,68.3948087 85.8099779,67.6303376 C89.699399,76.3297386 93.6722531,84.8942095 97.7980015,93.2750476 C102.477842,94.430337 103.736524,94.8387202 108.345706,95.911774 C110.907382,96.6467042 113.721354,96.4566842 114.775646,95.1616743 C115.193211,94.6479018 115.334129,93.9604767 115.072253,93.0870236 L115.072253,93.0870236 Z M51.3265456,22.7892609 L51.2031923,22.7549695 L51.1393201,22.6019954 C49.2546894,21.9983627 47.3640707,21.5018358 45.4686615,20.9936522 C43.1073842,20.2359276 40.8291407,19.4902191 39.3692206,19.0523748 C40.0139711,19.991257 49.2878231,43.116965 52.3564857,49.962873 C53.5341304,52.590817 37.4277835,51.5644698 36.0053484,51.5644698 C39.0378433,52.4067851 63.0207569,58.0802381 74.9153674,61.436725 C76.1552875,61.8874236 77.5373234,62.3381222 79.1429122,62.7948088 C77.7808364,59.7389207 76.431535,56.6674637 75.0950081,53.5816354 C75.2319342,53.6163659 66.7405173,53.9560865 65.2039904,53.9920146 L64.9345293,53.8223539 L51.3265456,22.7892609 Z M147.261473,75.7980021 C147.23832,75.78403 146.072252,72.6874233 145.553689,71.591615 L136.451494,67.1520941 C136.638719,67.3377229 138.746903,72.8487008 139.122951,73.6562856 C139.243909,73.9113754 139.37325,74.1604772 139.49301,74.4159662 C139.595206,74.6343295 139.710176,74.8662656 139.742112,75.1161658 C139.842711,75.8886209 138.965665,75.7776428 138.539717,75.6842296 L136.409577,75.1816348 C136.378041,75.1852277 126.873849,50.5680626 126.921354,50.5217552 L117.952093,47.8115757 C119.494209,51.410378 129.638719,76.0894193 129.667462,75.9836308 C134.413969,77.1277426 135.689817,77.5321338 140.364068,78.5936108 C142.958879,79.3213553 145.827541,79.1333314 146.92295,77.8526927 C147.35808,77.3437106 147.51337,76.6626727 147.261473,75.7980021 Z M190.488618,84.2327324 C190.466662,84.2215548 189.617161,81.4355269 189.216762,80.4546886 L180.746502,76.6115749 C180.908179,76.772054 183.201991,83.9732514 183.211971,84.2023931 C183.243908,84.9101775 182.620355,84.7640697 182.224347,84.7049879 L180.243109,84.3816346 C180.213968,84.386425 173.237521,62.2475034 173.285026,62.2015953 L165.000794,60.2890204 C166.165665,63.5145693 173.745704,85.6694589 173.783229,85.5700577 C178.190814,86.3137703 179.938918,87.0331316 184.286622,87.7057862 C186.688219,88.2067842 188.852291,87.4131715 189.997201,86.1548881 C190.452291,85.6558861 190.655484,85.0155667 190.488618,84.2327324 L190.488618,84.2327324 Z" id="path20" fill="#FFFFFF"></path>
                        <path d="M152.31297,97.3824327 L153.571254,100.800397 C153.663868,101.052293 153.758479,101.309778 153.819158,101.547702 C153.879836,101.789618 153.908579,102.024748 153.855086,102.217962 C153.74291,102.622752 153.254687,102.835526 152.056284,102.578041 L149.815964,102.096205 L147.722152,96.3952072 L152.31297,97.3824327 Z M157.859477,106.129738 C159.920555,106.572452 160.797601,106.149299 161.119756,105.462273 C161.443908,104.769658 161.180435,103.839918 161.014766,103.388421 C160.041114,100.726145 158.779637,97.2031912 158.407182,96.1620734 L153.356882,95.0762451 L150.94331,94.5580815 L146.797601,93.6662651 L146.685425,93.3652671 C145.510575,90.2047882 144.362871,87.1173631 143.997202,86.1157663 C143.65309,85.1748482 143.920555,84.4926127 145.179238,84.7632713 L147.932531,85.3548881 L150.145705,91.376844 L157.23792,92.8866244 L154.012371,84.2051875 C151.777242,83.7177624 143.379238,81.8906167 139.690216,81.1285409 C136.650296,80.4997984 135.954488,81.8970039 137.029138,84.7676626 C138.235525,87.996405 142.947302,100.947303 143.727741,103.091814 L157.859477,106.129738 L157.859477,106.129738 Z" id="path22" fill="#FFFFFF"></path>
                        <path d="M160.094607,43.6039909 C161.772052,47.4950088 163.455485,51.3756474 165.143309,55.246306 C166.925744,55.6223539 168.705784,55.9952082 170.481433,56.3664657 C169.173648,53.3341304 167.86786,50.2970047 166.564467,47.2542902 C168.62794,47.7025936 170.685425,48.1473042 172.740515,48.5908171 L171.726942,46.2163661 C167.861872,45.3708571 163.984028,44.4994001 160.094607,43.6039909 L160.094607,43.6039909 Z M146.247901,40.5169651 C147.978439,44.48942 149.71816,48.4494998 151.46786,52.3968051 C155.378838,53.2978031 159.273848,54.1864258 163.15289,55.0662661 L162.067461,52.5680626 C159.986822,52.0926135 157.900196,51.6131724 155.810775,51.1309368 L154.881832,49.0215557 C156.681832,49.4387213 158.475844,49.8550886 160.269058,50.2682622 L159.174447,47.7485018 C157.378439,47.3289409 155.579238,46.9089809 153.776044,46.4870248 L152.852691,44.3572843 C154.956882,44.8538911 157.056283,45.3477035 159.15289,45.8391206 L158.067062,43.3377235 C154.138918,42.4215558 150.199198,41.4814361 146.247901,40.5169651 L146.247901,40.5169651 Z M148.65828,51.7992003 C146.901394,47.8534918 145.159278,43.8938113 143.425146,39.9205579 C141.573649,39.4626337 139.720156,39.0004381 137.864268,38.5308972 C139.617961,42.5425139 141.384827,46.5417154 143.166463,50.5245496 C145.000795,50.9520945 146.829537,51.3772442 148.65828,51.7992003 Z M129.399598,36.4023544 C129.127741,38.2259072 128.859877,40.051496 128.594807,41.8774441 C127.645905,39.7377236 126.702991,37.5948094 125.765266,35.4467456 C123.898999,34.9513365 122.030336,34.451576 120.158081,33.9461868 C121.929338,38.0108573 123.723749,42.0590808 125.536524,46.0910168 C127.395606,46.5632723 129.249897,47.0327334 131.101793,47.5005976 C131.365266,45.6518951 131.631933,43.8027933 131.902592,41.9552884 C132.858679,44.1165658 133.820755,46.2754479 134.78842,48.4295397 C136.638719,48.8962064 138.486224,49.3612762 140.329338,49.8231524 C138.555286,45.8518951 136.795605,41.8646696 135.050695,37.8642705 C133.170057,37.3831927 131.286224,36.8954083 129.399598,36.4023544 L129.399598,36.4023544 Z M113.799199,36.5668654 C114.074249,37.9289811 114.352093,39.2898593 114.634328,40.6506976 C113.593211,39.0838713 112.554887,37.5126138 111.520955,35.9376438 L113.799199,36.5668654 Z M112.969658,32.0527736 C113.104987,32.7685421 113.241913,33.4827137 113.378839,34.1967656 L109.784428,33.1987616 C109.245905,32.3693405 108.710177,31.5384822 108.174848,30.7077837 C106.233131,30.157644 104.292612,29.603153 102.3485,29.0415961 C105.536524,33.5661469 108.750496,38.0530929 111.987622,42.5037914 C114.639917,43.2311366 117.285426,43.9524939 119.92335,44.66946 C119.521354,40.9992006 119.13852,37.3273843 118.77844,33.6511369 C116.844708,33.1237517 114.908181,32.5907377 112.969658,32.0527736 L112.969658,32.0527736 Z M96.2758459,31.0563266 C96.7984008,32.2702986 97.3257461,33.4827137 97.854289,34.6934123 C97.9449077,34.8994003 98.0255465,35.1097796 98.0574826,35.328542 C98.1648678,36.0842306 97.4251473,36.0702187 96.7944088,35.893053 L95.9924128,35.655568 C94.955287,33.2877836 93.927343,30.9133326 92.9137701,28.5329334 L93.7129717,28.7708975 C94.9496982,29.1613566 95.7991992,29.9892208 96.2758459,31.0563266 Z M101.456684,31.7772447 C100.747303,30.1819953 99.6183608,28.78962 97.9520934,27.8722149 C94.0802372,26.7329335 90.1976025,25.5685423 86.3069839,24.3756082 C88.0319339,28.4930133 89.7932113,32.5907377 91.5888201,36.6674642 C94.9800375,37.6743304 98.3596782,38.6706178 101.730536,39.6583224 C102.982033,40.009979 104.488221,40.0558872 104.267862,38.537005 C104.18882,38.1017555 104.034329,37.681037 103.857482,37.2710969 C103.051494,35.4434722 102.252293,33.6119752 101.456684,31.7772447 L101.456684,31.7772447 Z M65.8738506,17.9520554 C66.7896191,20.2435923 67.7197588,22.5285424 68.6614753,24.8063068 C66.9884215,22.7269056 65.3205572,20.6379236 63.6618747,18.5380834 C63.4287409,19.9869057 63.1980024,21.4355683 62.9764455,22.8857879 C62.0491002,20.6075444 61.135727,18.3221153 60.2371242,16.0299796 C58.3624736,15.383313 56.4878229,14.7277441 54.6131723,14.0642312 C56.2950086,18.4290614 58.0299387,22.7688218 59.8171642,27.0842708 C61.7173637,27.732175 63.6139705,28.3748097 65.5077828,29.0155681 C65.7133716,27.5669055 65.9257469,26.1197997 66.1441101,24.672694 C67.8319344,26.7748896 69.5269444,28.8671051 71.2303375,30.9493405 C73.1572836,31.5960072 75.0806368,32.2383225 77.0019941,32.8775241 C75.1500979,28.5592807 73.3441099,24.2174844 71.5812357,19.8515364 C69.6810362,19.2267061 67.7772438,18.5928139 65.8738506,17.9520554 L65.8738506,17.9520554 Z M83.6143692,23.6514565 C81.4946087,22.9881032 79.3720539,22.3212769 77.243511,21.6515364 C76.3856268,21.3923747 75.1241498,21.2024346 75.2131718,22.3138118 C75.2479023,22.6075843 75.3441099,22.8926541 75.4554871,23.1708577 C75.9724532,24.4319355 76.4934113,25.690658 77.0191598,26.9489015 C77.7001977,28.5101789 79.0263453,29.6263865 80.7988004,30.2092607 C82.9417145,30.8802787 85.0802374,31.5473844 87.2127723,32.2107377 C86.9520936,31.6003984 86.6926126,30.9900591 86.43393,30.3792408 L82.8970039,29.2762867 C82.0071836,28.9835921 81.3433113,28.4255083 80.9991996,27.6434724 C80.6506966,26.8122947 80.3021936,25.9788417 79.9580818,25.1448696 C79.9017944,25.0035922 79.8530918,24.8597998 79.8355269,24.7113766 C79.7896188,24.1544904 80.4347285,24.2594405 80.8566846,24.3860673 L84.3800378,25.4905782 C84.1237504,24.8771251 83.8690598,24.2650693 83.6143692,23.6514565 L83.6143692,23.6514565 Z" id="path24" fill="#F2CF0E"></path>
                        <path d="M125.533729,70.1141699 C125.508979,70.1013955 124.296604,66.9305372 123.758081,65.807184 L114.121754,61.1720544 C114.734927,62.4618747 116.679039,67.0946091 117.071055,67.9209564 C117.196005,68.1832318 117.329738,68.4379224 117.456684,68.7001979 C117.563271,68.9233516 117.681434,69.1608765 117.715766,69.4155671 C117.819558,70.2079823 116.907782,70.0942098 116.465865,69.997603 L114.248301,69.4834314 C114.216764,69.4878226 105.599598,47.388422 104.404788,44.4479031 L95.2494986,41.7393203 C96.7496982,45.1736516 107.209977,70.4135711 107.241514,70.3057867 C112.174847,71.4762457 113.500995,71.8898186 118.362472,72.9784413 C121.061075,73.722553 124.043111,73.5313355 125.182033,72.2179623 C125.632731,71.696605 125.795606,70.999599 125.533729,70.1141699 Z M98.8550873,103.024349 C99.0479017,102.830736 93.4407162,91.8111753 93.4810356,91.6367243 C89.7496984,90.6670636 86.0027923,89.6778421 82.2407165,88.6706565 C82.9313353,90.0498979 83.6315348,91.4231514 84.3413153,92.7880216 C84.5313352,93.1532911 84.7241496,93.5165645 84.8842294,93.8997981 C85.0167643,94.2267442 85.1449081,94.5916144 85.0902174,94.9580815 C84.8439101,96.0654667 83.2283412,95.5528918 82.5572834,95.3808359 C81.261475,95.0375226 79.9624731,94.6926124 78.6634711,94.3457062 C74.3896189,86.1908162 70.2079823,77.9133713 66.1441101,69.5049883 C65.4415153,67.9700582 65.864669,66.6926131 67.5265452,67.1233516 C69.1365252,67.5844294 70.7409164,68.0407169 72.3433116,68.4942099 C73.5588804,71.0658665 74.7812357,73.6263455 76.0123733,76.178042 C74.0874233,75.6423135 72.1576828,75.1017945 70.2251479,74.5556868 C77.3588803,79.0227525 84.4578821,83.3836306 91.5181614,87.641914 C88.2379219,80.9652674 85.0167643,74.213571 81.8487005,67.3928127 C73.8826329,65.1724535 59.4686612,61.3473039 51.3357273,58.9556871 C51.30938,58.9209566 51.2950087,58.9169646 51.2950087,58.9441103 L51.3357273,58.9556871 C52.0471045,59.8962061 61.9425134,82.5433113 65.4906171,89.3904169 C66.8514953,92.0187602 52.2614757,91.5520935 52.2614757,91.5520935 C61.0439106,93.6075825 91.2662652,101.083431 98.8550873,103.024349 L98.8550873,103.024349 Z M178.194008,89.7197582 C175.704187,89.25389 173.20279,88.7756465 170.690215,88.2870237 C172.91297,94.2367242 175.157281,100.149299 177.526942,105.943311 C177.619157,106.165666 177.708578,106.390017 177.774846,106.626345 C177.832331,106.834329 177.869457,107.060676 177.816762,107.278241 C177.602391,107.97365 176.755285,107.826345 176.294606,107.754488 L174.203588,107.403191 C171.470654,100.829938 168.720155,93.731335 166.133728,86.9780417 C164.46786,86.6423132 160.078639,85.5832314 158.401194,85.2375228 C158.981633,85.6243492 166.692611,107.915367 166.908579,108.051494 C171.703788,108.880636 177.446303,110.187622 182.158079,110.92854 C183.613967,111.124149 186.22754,111.059478 185.231133,108.431534 C182.829137,102.264668 180.48782,96.0247481 178.194008,89.7197582 Z M161.672651,59.4007969 C156.36806,58.1365255 151.013968,56.8159666 145.596803,55.5141703 C142.754487,54.8922142 141.569258,56.4111762 142.774448,59.668262 C145.496204,66.7991999 148.145306,73.9229522 150.898998,80.9437106 C156.045505,82.0690598 161.141313,83.1473033 166.191613,84.1792394 C167.974048,84.5001975 170.43792,84.2850278 169.394008,81.3496986 C166.758878,74.1101778 164.190016,66.7908167 161.672651,59.4007969 L161.672651,59.4007969 Z M161.205984,78.045507 C161.306982,78.3205569 161.410774,78.5952076 161.48822,78.8814352 C161.556084,79.1449082 161.606782,79.4271437 161.544507,79.6993992 C161.301393,80.5576826 160.265864,80.3357265 159.700196,80.2215549 L157.707381,79.7944092 C155.424747,73.8107766 153.188419,67.769659 150.993609,61.6758468 C150.582032,60.4475035 151.112172,59.6179626 152.197601,59.8455075 C153.070256,60.0542899 153.94291,60.2634715 154.812771,60.4706572 C156.904986,66.3788407 159.034727,72.2383215 161.205984,78.045507 L161.205984,78.045507 Z M91.0419139,57.3500984 C91.6319338,58.7121742 92.2251474,60.0730524 92.8215546,61.4299386 C92.9540895,61.7349286 93.0890196,62.0403178 93.1988001,62.3568847 C93.29381,62.640717 93.3756464,62.9473038 93.3341294,63.2510962 C93.1584807,64.1656671 92.0063849,63.8514954 91.4331314,63.7005972 L89.2906165,63.1073837 C88.2311355,60.7353278 87.1796385,58.3536912 86.136924,55.9620744 C87.7772433,56.4299387 89.4115746,56.8922141 91.0419139,57.3500984 L91.0419139,57.3500984 Z M98.719758,68.2467049 C100.7988,68.7532917 103.220756,68.4467049 101.924948,65.3884215 C100.634728,62.4075833 99.3720534,59.4035913 98.1265445,56.3812361 C96.0646683,55.810777 93.9952072,55.2335316 91.9185606,54.6471044 C90.9940097,54.3864258 90.0682612,54.1245495 89.1409159,53.8610765 C87.6862254,53.4479029 86.2307364,53.0299388 84.7708562,52.6095795 L84.6710558,52.380837 C83.3205568,49.2662662 81.9780419,46.136925 80.6678623,42.9820349 C80.199998,41.7868253 80.5065848,40.7241507 81.7852275,41.065468 C82.7213552,41.3449091 83.6546885,41.6211566 84.5876226,41.8978033 C85.6634709,44.5257474 86.7492992,47.1433122 87.8451076,49.7485018 C90.7101774,50.5680626 93.5616743,51.372853 96.3995984,52.164869 C94.8546882,48.4654679 93.331335,44.7433123 91.8239498,40.9992006 C86.136924,39.3201188 80.399998,37.5789212 74.5912157,35.8510969 C71.2618745,34.9337317 70.6598785,37.0044302 71.9748485,40.1896198 C75.3500979,48.1281425 78.7540898,55.990817 82.2778423,63.7277429 C87.8075826,65.2874235 93.287822,66.7936111 98.719758,68.2467049 L98.719758,68.2467049 Z M115.072253,93.0870236 C115.049099,93.0722532 113.850696,89.9449079 113.32375,88.8367243 L103.745307,83.9692594 C104.345706,85.2411156 106.659878,90.1077822 107.042712,90.923351 C107.164868,91.1812352 107.295806,91.4331314 107.419957,91.6910157 C107.52375,91.9113749 107.639119,92.1461055 107.676245,92.3980017 C107.78882,93.1784408 106.924947,93.0666643 106.504189,92.9716544 L104.403191,92.4642691 C100.841914,85.0786406 97.4031912,77.5453074 94.0754467,69.8850282 C91.3325326,69.1465053 88.5780417,68.3948087 85.8099779,67.6303376 C89.699399,76.3297386 93.6722531,84.8942095 97.7980015,93.2750476 C102.477842,94.430337 103.736524,94.8387202 108.345706,95.911774 C110.907382,96.6467042 113.721354,96.4566842 114.775646,95.1616743 C115.193211,94.6479018 115.334129,93.9604767 115.072253,93.0870236 L115.072253,93.0870236 Z M51.3265456,22.7892609 L51.2031923,22.7549695 L51.1393201,22.6019954 C49.2546894,21.9983627 47.3640707,21.5018358 45.4686615,20.9936522 C43.1073842,20.2359276 40.8291407,19.4902191 39.3692206,19.0523748 C40.0139711,19.991257 49.2878231,43.116965 52.3564857,49.962873 C53.5341304,52.590817 37.4277835,51.5644698 36.0053484,51.5644698 C39.0378433,52.4067851 63.0207569,58.0802381 74.9153674,61.436725 C76.1552875,61.8874236 77.5373234,62.3381222 79.1429122,62.7948088 C77.7808364,59.7389207 76.431535,56.6674637 75.0950081,53.5816354 C75.2319342,53.6163659 66.7405173,53.9560865 65.2039904,53.9920146 L64.9345293,53.8223539 L51.3265456,22.7892609 Z M147.261473,75.7980021 C147.23832,75.78403 146.072252,72.6874233 145.553689,71.591615 L136.451494,67.1520941 C136.638719,67.3377229 138.746903,72.8487008 139.122951,73.6562856 C139.243909,73.9113754 139.37325,74.1604772 139.49301,74.4159662 C139.595206,74.6343295 139.710176,74.8662656 139.742112,75.1161658 C139.842711,75.8886209 138.965665,75.7776428 138.539717,75.6842296 L136.409577,75.1816348 C136.378041,75.1852277 126.873849,50.5680626 126.921354,50.5217552 L117.952093,47.8115757 C119.494209,51.410378 129.638719,76.0894193 129.667462,75.9836308 C134.413969,77.1277426 135.689817,77.5321338 140.364068,78.5936108 C142.958879,79.3213553 145.827541,79.1333314 146.92295,77.8526927 C147.35808,77.3437106 147.51337,76.6626727 147.261473,75.7980021 Z M190.488618,84.2327324 C190.466662,84.2215548 189.617161,81.4355269 189.216762,80.4546886 L180.746502,76.6115749 C180.908179,76.772054 183.201991,83.9732514 183.211971,84.2023931 C183.243908,84.9101775 182.620355,84.7640697 182.224347,84.7049879 L180.243109,84.3816346 C180.213968,84.386425 173.237521,62.2475034 173.285026,62.2015953 L165.000794,60.2890204 C166.165665,63.5145693 173.745704,85.6694589 173.783229,85.5700577 C178.190814,86.3137703 179.938918,87.0331316 184.286622,87.7057862 C186.688219,88.2067842 188.852291,87.4131715 189.997201,86.1548881 C190.452291,85.6558861 190.655484,85.0155667 190.488618,84.2327324 L190.488618,84.2327324 Z" id="path26" fill="#FFFFFF"></path>
                        <polyline id="path28" fill="#17412E" fill-rule="nonzero" points="182.388419 47.2039908 184.225544 47.2039908 184.225544 42.4263462 184.958878 42.4263462 184.958878 47.2039908 186.796403 47.2039908 186.796403 47.8542902 182.388419 47.8542902 182.388419 47.2039908"></polyline>
                        <path d="M191.611572,47.8542902 L190.069456,43.2658672 L190.055085,43.2658672 L188.504187,47.8542902 L187.454287,47.8542902 L187.454287,42.4263462 L188.164466,42.4263462 L188.164466,45.6315358 C188.164466,45.7908172 188.148099,46.4782424 188.148099,46.9772443 L188.164466,46.9772443 L189.692211,42.4263462 L190.417959,42.4263462 L191.944107,46.98443 L191.958478,46.98443 C191.958478,46.4782424 191.944107,45.7908172 191.944107,45.6315358 L191.944107,42.4263462 L192.655883,42.4263462 L192.655883,47.8542902 L191.611572,47.8542902" id="path30" fill="#17412E" fill-rule="nonzero"></path>
                    </g>
                </g>
            </g>
        </g>
    </g>
</svg>