<?xml version="1.0" encoding="UTF-8"?>
<svg width="200px" height="200px" viewBox="0 0 200 200" version="1.1" xmlns="http://www.w3.org/2000/svg" xmlns:xlink="http://www.w3.org/1999/xlink">
    <!-- Generator: Sketch 54.1 (76490) - https://sketchapp.com -->
    <title>mcmurry</title>
    <desc>Created with Sketch.</desc>
    <g id="mcmurry" stroke="none" stroke-width="1" fill="none" fill-rule="evenodd">
        <g id="mcmurry_BGL">
            <g id="mcmurry" transform="translate(0.000000, 33.000000)">
                <path d="M121.641667,1.76666667 C140.354167,4.32916667 158.504167,10.025 175.266667,18.7375 C175.179167,12.3875 173.104167,6.3125 169.429167,1.15416667 C173.491667,2.5375 177.441667,4.45416667 180.916667,6.99166667 C186.275,10.8333333 190.466667,16.2416667 192.4,22.5833333 C193.758333,26.7625 193.85,31.1666667 193.054167,35.4708333 C195.05,33.2625 196.529167,30.7416667 198.175,28.2833333 C198.791667,30.3541667 199.333333,32.4291667 199.529167,34.5875 C200.066667,39.125 199.095833,43.6375 197.454167,47.85 C194.791667,54.0958333 190.420833,59.2541667 185.295833,63.625 C179.583333,68.5208333 173.041667,72.1916667 166.083333,74.9958333 C169,75.2875 171.916667,75.5708333 174.841667,75.7666667 C167.8625,80.5 160.0125,82.9791667 151.975,85.2 C153.266667,85.6375 154.5875,85.9541667 155.908333,86.2875 C152.866667,87.2083333 149.804167,87.9916667 146.625,88.2625 C147.320833,88.625 148.270833,88.9291667 148.7375,89.5791667 C149.904167,91.2541667 150.283333,93.2583333 149.870833,95.25 C151.820833,95.3833333 153.704167,95.7541667 155.445833,96.6833333 C156.345833,97.1916667 156.916667,98.1458333 157.020833,99.1666667 C157.2125,101.1375 156.691667,103.35 155.070833,104.625 C153.245833,105.9625 151.8125,107.5375 149.675,108.433333 C147.033333,109.645833 144.3375,109.5125 141.504167,109.5 C143.370833,108.1 144.745833,106.475 146.025,104.541667 C145.3625,104.175 144.708333,103.808333 144.054167,103.429167 C141.841667,105.025 139.325,105.483333 136.679167,105.829167 C137.625,104.645833 138.391667,103.4625 139.066667,102.1 C137.645833,102.558333 136.254167,102.783333 135.2125,103.945833 C134.458333,104.733333 134.179167,105.683333 133.845833,106.695833 C137.058333,107.120833 140.204167,107.129167 143.175,105.666667 C142.029167,107.175 140.883333,108.616667 139.370833,109.783333 C137.525,111.291667 135.175,112.195833 132.829167,112.545833 C131.295833,112.754167 129.866667,112.233333 128.354167,112.483333 C127.641667,112.545833 127.020833,112.725 126.3375,112.404167 C123.120833,111.020833 121.2375,107.920833 120.15,104.729167 C119.045833,104.620833 117.941667,104.504167 116.833333,104.4125 C117.6375,105.841667 118.416667,107.225 119.425,108.529167 C121.525,111.0875 124.091667,112.766667 126.829167,114.55 C125.016667,117.620833 123.070833,120.5 120.183333,122.666667 C120.729167,123.183333 121.270833,123.708333 121.8125,124.229167 C118.170833,126.7625 114.141667,128.545833 109.941667,129.9375 C110.254167,130.595833 110.558333,131.258333 110.85,131.925 C107.595833,133.020833 104.279167,133.8 100.833333,133.929167 C96.7583333,134.141667 92.775,133.325 88.975,131.895833 C89.2958333,131.245833 89.6166667,130.595833 89.9416667,129.95 C85.725,128.541667 81.675,126.758333 78.0166667,124.208333 C78.5708333,123.695833 79.1208333,123.179167 79.675,122.6625 C76.7375,120.508333 74.8583333,117.608333 73.0166667,114.5375 C75.3666667,113.05 77.8625,111.391667 79.75,109.325 C81.0708333,107.908333 82.0708333,106.075 83.0416667,104.408333 C81.9166667,104.508333 80.7916667,104.625 79.6666667,104.741667 C78.7291667,107.7875 76.8583333,110.720833 73.9583333,112.2125 C72.5125,113.041667 71.2958333,112.175 69.6125,112.475 C67.4,112.829167 65.2333333,112.341667 63.2166667,111.4375 C60.3875,110.216667 58.4666667,108.083333 56.675,105.658333 C59.6583333,107.133333 62.8041667,107.120833 66.0333333,106.6875 C65.6333333,105.525 65.2541667,104.45 64.3041667,103.6125 C63.3416667,102.704167 61.9875,102.5 60.7666667,102.1 C61.4708333,103.441667 62.2375,104.6625 63.2041667,105.833333 C60.5416667,105.483333 58.025,105.029167 55.8,103.420833 C55.15,103.8125 54.4916667,104.1875 53.8291667,104.558333 C55.1333333,106.495833 56.4916667,108.041667 58.325,109.495833 C55.5291667,109.5125 52.8291667,109.641667 50.2208333,108.445833 C47.9125,107.458333 46.4125,105.791667 44.425,104.320833 C42.7083333,102.65 41.975,98.9375 43.8041667,97.1166667 C45.4541667,95.8583333 47.9041667,95.4291667 49.925,95.2458333 C49.5666667,92.4125 50.1708333,89.3708333 53.1125,88.2416667 C49.975,87.9875 46.9791667,87.1875 43.9791667,86.2833333 C45.2916667,85.9625 46.5708333,85.6625 47.8416667,85.2083333 C39.75,82.9041667 32.0958333,80.5541667 25.05,75.7708333 C27.9708333,75.5708333 30.8875,75.2916667 33.8041667,75 C31.7916667,74.0666667 29.7,73.2833333 27.725,72.2791667 C20.2291667,68.5125 13.1416667,63.2708333 7.82916667,56.7416667 C3.46666667,51.3375 0.5,44.9291667 0.216666667,37.9166667 C0.075,34.5791667 0.7875,31.4041667 1.69583333,28.2166667 C3.30416667,30.7291667 4.8625,33.2416667 6.83333333,35.4916667 C6.55,33.8041667 6.3625,32.1291667 6.38333333,30.4166667 C6.16666667,24.5666667 8.4,18.6083333 11.8708333,13.9541667 C16.5708333,7.6375 23.1416667,3.72916667 30.45,1.1 C26.8541667,6.29583333 24.6541667,12.3375 24.6625,18.7 C44.1041667,8.60416667 65.6666667,2.4125 87.525,0.85 C98.9125,-0.129166667 110.3125,0.4 121.641667,1.76666667 Z" id="Shape" fill="#232021" fill-rule="nonzero"></path>
                <path d="M95.0833333,5.68333333 C95.0833333,6.325 95.0833333,6.96666667 95.0833333,7.60833333 C94.5666667,7.8875 93.975,8.12083333 93.5208333,8.5 C93.1541667,9.20833333 93.1916667,10.05 93.1666667,10.8291667 C93.1833333,16.9416667 93.1791667,23.0583333 93.1666667,29.1708333 C93.2083333,29.8791667 93.1166667,30.8 93.625,31.3625 C94.0833333,31.6333333 94.5958333,31.825 95.0875,32.0375 C95.0833333,32.675 95.0833333,33.3166667 95.0833333,33.9541667 C91.9333333,33.9833333 88.8166667,34.3291667 85.675,34.4958333 C85.6791667,33.85 85.6875,33.2041667 85.6958333,32.5583333 C86.1916667,32.3041667 86.7208333,32.0625 87.1833333,31.7458333 C87.6041667,30.9333333 87.5791667,30.0583333 87.5958333,29.1666667 C87.5708333,23.3583333 87.5916667,17.5541667 87.5916667,11.7458333 C85.2541667,19.5291667 83.0333333,27.3333333 80.725,35.125 C80.2166667,35.1583333 79.7083333,35.1875 79.1958333,35.2166667 C78.3708333,32.0083333 77.1916667,28.9166667 76.3041667,25.7291667 C74.9458333,21.7291667 73.875,17.6458333 72.4125,13.6791667 C72.3666667,19.3958333 72.425,25.1125 72.3791667,30.8291667 C72.4083333,31.7208333 72.3208333,32.6666667 72.7583333,33.475 C73.2791667,33.7125 73.8541667,33.8666667 74.4,34.0375 C74.3875,34.6791667 74.3791667,35.3166667 74.3708333,35.9541667 C72.0041667,36.3625 69.6416667,36.8 67.2958333,37.3208333 C67.3,36.675 67.3,36.0291667 67.3041667,35.3875 C67.8083333,35.0166667 68.3791667,34.65 68.7958333,34.1833333 C69.1416667,33.6 69.0708333,32.75 69.1041667,32.0958333 C69.0875,25.9791667 69.0833333,19.8625 69.1083333,13.7458333 C69.0958333,13.0375 69.1,12.2791667 68.9166667,11.5958333 C68.3875,11.325 67.8375,11.1458333 67.2791667,10.9541667 C67.2916667,10.3208333 67.3,9.69166667 67.3083333,9.0625 C70.425,8.425 73.4708333,7.6875 76.6583333,7.50416667 C78.1791667,12.2916667 79.6958333,17.0791667 81.1666667,21.8791667 C82.6333333,16.6708333 84.2458333,11.5041667 85.6791667,6.29166667 C88.8041667,6 91.95,5.82916667 95.0833333,5.68333333 Z" id="Shape" fill="#FFFFFF" fill-rule="nonzero"></path>
                <path d="M96.6125,5.65416667 C99.7458333,5.6125 102.879167,5.625 106.0125,5.72083333 C106.0125,6.37916667 106.0125,7.03333333 106.016667,7.6875 C105.5125,8 104.341667,8.06666667 104.304167,8.79583333 C103.895833,11.2125 104.2625,13.8041667 104.2,16.2541667 C104.095833,19.7291667 104.120833,23.2041667 104.133333,26.6791667 C104.2125,27.8166667 104.145833,29.125 104.979167,30.0208333 C105.945833,31.225 107.8125,31.2208333 109.195833,30.9791667 C110.9375,30.7083333 111.466667,28.5708333 111.483333,27.0875 C111.5,21.8041667 111.466667,16.5208333 111.495833,11.2375 C111.475,10.4791667 111.529167,9.54583333 111.191667,8.85 C110.745833,8.4625 110.1875,8.18333333 109.683333,7.88333333 C109.675,7.23333333 109.670833,6.58333333 109.6625,5.9375 C112.054167,6.0625 114.425,6.34166667 116.808333,6.54166667 C116.8125,7.18333333 116.820833,7.82083333 116.829167,8.45833333 C115.983333,8.84583333 114.991667,8.80833333 114.9125,9.975 C114.8125,15.95 114.916667,21.9541667 114.870833,27.9333333 C114.925,30.3708333 113.429167,32.7291667 111.2,33.7166667 C109.433333,34.5833333 107.416667,34.5416667 105.504167,34.3291667 C103.795833,34.0708333 101.945833,33.4375 100.65,32.2625 C99.0583333,30.6458333 98.4875,28.4875 98.4916667,26.2666667 C98.4875,20.9833333 98.4958333,15.6916667 98.5,10.4083333 C98.4666667,9.79166667 98.5166667,9.025 98.2083333,8.47083333 C97.825,8.02916667 97.1333333,7.85 96.6291667,7.575 C96.6208333,6.9375 96.6166667,6.29583333 96.6125,5.65416667 Z" id="Shape" fill="#FFFFFF" fill-rule="nonzero"></path>
                <path d="M118.391667,6.74583333 C121.025,7.04583333 123.641667,7.475 126.266667,7.82916667 C130.0125,8.4375 133.666667,10.2041667 135.558333,13.6416667 C136.891667,16.2291667 137.204167,19.5833333 135.983333,22.2708333 C135.179167,23.85 133.770833,24.5083333 132.15,24.9958333 C133.495833,28.2458333 134.645833,31.5708333 135.995833,34.8166667 C136.308333,35.6833333 137.029167,35.9708333 137.716667,36.4916667 C137.720833,37.1458333 137.725,37.8 137.729167,38.4541667 C135.633333,37.85 133.466667,37.5333333 131.370833,36.9583333 C130.754167,35.9833333 130.391667,34.825 129.979167,33.75 C129.204167,31.5291667 128.2,29.4041667 127.4375,27.1791667 C127.070833,26.1041667 126.616667,25.1416667 125.8,24.325 C125.670833,26.4875 125.720833,28.6666667 125.704167,30.8333333 C125.729167,31.5791667 125.679167,32.4791667 126,33.1666667 C126.420833,33.675 127.095833,34 127.6375,34.3625 C127.6375,35.0041667 127.641667,35.6458333 127.645833,36.2916667 C124.570833,35.8166667 121.5375,35.2041667 118.420833,35.0416667 C118.4125,34.3166667 118.4,33.5916667 118.391667,32.8666667 C118.895833,32.8041667 119.4,32.7375 119.9,32.675 C120.1,31.7875 120.225,30.9125 120.220833,30 C120.2125,24.0291667 120.2,18.0541667 120.225,12.0833333 C120.216667,11.3916667 120.216667,10.6666667 120.095833,9.9875 C119.679167,9.4375 118.979167,9.06666667 118.416667,8.67916667 C118.408333,8.0375 118.4,7.39166667 118.391667,6.74583333 Z" id="Shape" fill="#FFFFFF" fill-rule="nonzero"></path>
                <path d="M21.3375,10.25 C20.675,12.2583333 19.9625,14.15 19.6125,16.2541667 C18.8416667,20.9041667 19.2583333,25.6833333 21.2875,29.975 C21.8916667,31.3333333 22.7708333,32.625 22.8333333,34.1416667 C22.9458333,35.9708333 22.825,37.8166667 22.8,39.6458333 C20.8083333,36.9708333 19.05,34.2333333 18.1875,30.9708333 C17.0791667,27.5833333 17.2458333,24.2375 17.1833333,20.7375 C16.725,23.8666667 16.2583333,26.8291667 16.55,30.0083333 C16.8875,34.5958333 18.6958333,39.0875 21.4041667,42.7833333 C22.1333333,43.8791667 23,44.8583333 22.8875,46.2625 C22.9166667,47.2875 21.8291667,48.1208333 21.2166667,48.8458333 C21.1791667,50.0666667 21.1583333,51.2833333 21.1333333,52.5 C15.0166667,44.5666667 11.8125,34.525 13.65,24.5333333 C14.6875,19.2125 16.8375,13.5875 21.3375,10.25 Z" id="Shape" fill="#872434" fill-rule="nonzero"></path>
                <path d="M178.6125,10.2333333 C182.295833,13.2 184.458333,17.3708333 185.616667,21.8916667 C187.7875,29.5416667 186.729167,37.8666667 183.341667,45 C180.508333,51 176.191667,56.0666667 171.041667,60.2083333 C169.070833,61.85 166.895833,63.1958333 164.904167,64.8125 C170.070833,62.6 175.0125,59.9541667 179.566667,56.6458333 C185.854167,52.1291667 191.229167,46.4125 194.866667,39.5458333 C194,42.9916667 192.8875,46.325 191.0625,49.3958333 C186.766667,56.9166667 179.575,62.5625 172.075,66.6625 C163.716667,71.2 154.85,74.0208333 145.645833,76.2583333 C150.5625,77.4166667 155.55,77.6458333 160.583333,77.625 C156.583333,79.3041667 152.183333,80.2916667 147.954167,81.2875 C139.566667,82.8208333 130.945833,83.9208333 122.408333,83.9166902 C124.675,82.425 126.845833,81.1458333 128.595833,79.0125 C129.6,77.8875 130.325,76.5333333 131.783333,75.9625 C136.420833,74.2 141.0375,72.175 145.291667,69.6041667 C140.929167,70.975 136.695833,72.5666667 132.166667,73.3791667 C132.475,72.2875 132.7875,71.1958333 133.095833,70.1083333 C143.020833,66.2875 152.633333,61.6 162.004167,56.5916667 C163.745833,55.7 165.370833,54.5458333 167.1625,53.7666667 C167.879167,53.4041667 168.541667,53.8375 169.225,54.0833333 C170.883333,54.8291667 172.470833,55.7291667 174.095833,56.5416667 C174.158333,54.075 174.008333,51.6 174.141667,49.1416667 C174.145833,47.8166667 175.004167,47.1375 175.7875,46.2083333 C178.391667,43.4 180.4875,40.0708333 181.904167,36.5125 C183.754167,31.6125 183.729167,26.525 182.770833,21.4333333 C182.6375,24.7916667 182.733333,27.9833333 181.65,31.2208333 C180.129167,36.3833333 176.729167,40.625 172.3875,43.7208333 C172.3375,41.9291667 172.329167,40.1416667 172.358333,38.3458333 C176.016667,35.0958333 178.7875,30.9791667 179.9375,26.1875 C181.225,21.2625 180.6625,16.25 178.991667,11.4958333 C178.866667,11.075 178.7375,10.6541667 178.6125,10.2333333 Z" id="Shape" fill="#872434" fill-rule="nonzero"></path>
                <path d="M139.020833,10.5166667 C142.608333,11.6416667 146.504167,12.3 149.816667,13.9333333 C153.133333,15.5541667 155.725,18.4916667 156.641667,22.0958333 C157.1375,24.1833333 157.220833,26.9916667 155.933333,28.8208333 C155.1,30.05 153.8875,30.3375 152.554167,30.7583333 C153.633333,33.9666667 154.883333,37.1083333 155.920833,40.3333333 C156.229167,41.4416667 156.958333,42.1 157.795833,42.8291667 C157.804167,43.4958333 157.816667,44.1666667 157.833333,44.8375 C155.783333,43.9791667 153.670833,43.3083333 151.591667,42.525 C150.65,39.6416667 149.495833,36.8333333 148.529167,33.9625 C147.9125,32.2875 147.4375,30.6916667 146.4375,29.1958333 C146.2375,31.3958333 146.345833,33.6291667 146.3125,35.8416667 C146.341667,36.6041667 146.270833,37.6125 146.6875,38.2875 C147.091667,38.725 147.608333,39.0666667 148.070833,39.4333333 C148.079167,40.1 148.083333,40.7708333 148.0875,41.4375 C145.1125,40.3708333 142.1125,39.5208333 139.033333,38.8166667 C139.025,38.1083333 139.020833,37.4 139.016667,36.6916667 C139.491667,36.725 139.966667,36.7583333 140.441667,36.7875 C141.183333,34.3333333 140.725,32.0833333 140.783333,29.5833333 C140.795833,26.1125 140.775,22.6375 140.791667,19.1666667 C140.795833,17.5791667 141.020833,15.8083333 140.695833,14.2541667 C140.5875,13.3833333 139.641667,13.0125 139.033333,12.5041667 C139.029167,11.8416667 139.025,11.1791667 139.020833,10.5166667 Z" id="Shape" fill="#FFFFFF" fill-rule="nonzero"></path>
                <path d="M125.729167,11.0375 C126.966667,11.4125 128.504167,11.7083333 129.5375,12.5333333 C131.275,14.0791667 131.604167,16.5833333 131.258333,18.7708333 C131.066667,19.9291667 130.545833,20.9958333 129.395833,21.4541667 C128.2375,21.7458333 126.904167,21.5208333 125.716667,21.4458333 C125.720833,17.975 125.708333,14.5041667 125.729167,11.0375 Z" id="Shape" fill="#232021" fill-rule="nonzero"></path>
                <path d="M51.1541667,13.3833333 C51.15,14.05 51.1416667,14.7166667 51.1291667,15.3833333 C50.6,15.7958333 49.9916667,16.2 49.5583333,16.7166667 C49.2625,18.0375 49.4041667,19.4833333 49.3791667,20.8333333 C49.4333333,27.0083333 49.2791667,33.1958333 49.4625,39.3708333 C50.025,39.4125 50.5916667,39.45 51.1583333,39.4875 C51.1458333,40.175 51.1375,40.8625 51.1291667,41.55 C48.1583333,42.5458333 45.2041667,43.6208333 42.275,44.7291667 C42.2875,44.0625 42.2958333,43.3916667 42.3125,42.725 C42.8166667,42.2708333 43.4041667,41.8333333 43.8125,41.2833333 C44.1541667,40.3875 44.0291667,39.2791667 44.0583333,38.3333333 C43.9791667,32.7625 44.1541667,27.1833333 43.975,21.6166667 C41.85,29.9541667 39.6875,38.3041667 37.6083333,46.6458333 C37.1416667,46.8583333 36.675,47.0666667 36.2083333,47.2791667 C34.0041667,40.825 32.0833333,34.2708333 29.85,27.825 C29.7791667,32.7166667 29.8458333,37.6083333 29.8166667,42.5 C29.8375,44.2875 29.6833333,45.925 30.1166667,47.675 C30.6,47.5291667 31.0875,47.3833333 31.575,47.2333333 C31.5708333,47.9583333 31.5708333,48.6833333 31.5625,49.4083333 C29.3291667,50.3833333 27.225,51.5916667 25.0416667,52.6666667 C25.0625,51.9958333 25.0791667,51.3208333 25.0958333,50.65 C25.5291667,50.2041667 26.0208333,49.775 26.3666667,49.2583333 C26.7625,48.5125 26.7375,47.4916667 26.7583333,46.6666667 C26.7375,40.9708333 26.7416667,35.2791667 26.7541667,29.5833333 C26.7583333,28.4833333 26.6583333,27.4 26.4875,26.3166667 C26.0083333,26.4041667 25.5333333,26.4916667 25.0583333,26.5791667 C25.0625,25.8833333 25.0666667,25.1833333 25.0708333,24.4875 C27.8833333,22.8916667 30.8125,21.475 33.7583333,20.1333333 C35.0458333,24.5791667 36.6041667,28.95 37.9583333,33.3791667 C39.4,27.7458333 40.7791667,22.0916667 42.3125,16.4791667 C45.2541667,15.4083333 48.1458333,14.2541667 51.1541667,13.3833333 Z" id="Shape" fill="#FFFFFF" fill-rule="nonzero"></path>
                <path d="M63.3625,14.8666667 C65.1125,15.2291667 66.6708333,16.3875 66.6375,18.3291667 C66.875,20.2958333 64.975,22.4708333 62.9333333,21.775 C61.2791667,21.0166667 61.9958333,19.4625 61.9375,18.0333333 C61.1666667,18.0416667 60.2458333,17.95 59.55,18.3208333 C58.6125,18.8333333 57.925,19.8375 57.5375,20.8125 C56.6375,23.1833333 56.5291667,25.8875 56.9083333,28.375 C57.1208333,29.3875 57.4291667,30.6416667 58.275,31.3125 C59.4083333,32.3625 61.2333333,32.0291667 62.2833333,31.0208333 C63.5791667,29.9 63.85,28.4458333 64.1541667,26.8458333 C65.1166667,26.6208333 66.0833333,26.4 67.0458333,26.175 C66.9166667,27.1625 66.8333333,28.1041667 66.55,29.0625 C65.6708333,32.3625 62.6125,35.1875 59.175,35.55 C56.7083333,35.8875 54.2416667,35.1083333 53.0416667,32.8083333 C50.7666667,28.3125 51.9833333,22.2833333 55.1541667,18.5041667 C57.075,16.125 60.2083333,14.225 63.3625,14.8666667 Z" id="Shape" fill="#FFFFFF" fill-rule="nonzero"></path>
                <path d="M146.341667,15.8916667 C147.5875,16.3625 148.779167,16.8125 149.779167,17.7291667 C151.2625,18.9125 151.679167,21.1333333 151.7125,22.925 C151.666667,24.025 151.483333,25.6208333 150.6125,26.4083333 C149.516667,27.2416667 147.583333,26.5583333 146.333333,26.325 C146.320833,22.8458333 146.304167,19.3666667 146.341667,15.8916667 Z" id="Shape" fill="#232021" fill-rule="nonzero"></path>
                <path d="M156.429167,16.0166667 C159.55,17.2916667 162.691667,18.5333333 165.75,19.9541667 C165.770833,20.625 165.7875,21.2958333 165.808333,21.9708333 C165.291667,21.9666667 164.775,21.9666667 164.2625,21.9625 C165.208333,25.1 166.191667,28.2583333 167.395833,31.3041667 C168.2125,29.125 169.5625,27.1791667 170.3,24.9833333 C169.8875,24.375 169.370833,23.9041667 168.854167,23.3958333 C168.845833,22.7291667 168.841667,22.0625 168.8375,21.3958333 C170.858333,22.4083333 172.904167,23.3666667 174.85,24.5208333 C174.866667,25.1583333 174.879167,25.7916667 174.9,26.425 C174.391667,26.5333333 173.304167,26.2166667 173.15,26.8583333 C171.708333,29.7416667 170.291667,32.6583333 168.858333,35.5458333 C168.341667,36.4708333 168.520833,37.7125 168.483333,38.75 C168.558333,41.1916667 168.383333,43.6583333 168.570833,46.0916667 C168.6625,47.1166667 169.520833,47.6208333 170.208333,48.2625 C170.208333,48.9375 170.208333,49.6125 170.208333,50.2875 C167.358333,48.9125 164.504167,47.575 161.583333,46.3458333 C161.583333,45.6625 161.579167,44.9791667 161.575,44.2958333 C162.091667,44.3291667 162.608333,44.3625 163.125,44.3916667 C163.475,42.0958333 163.383333,39.8125 163.4,37.5 C163.391667,36.2 163.416667,34.9791667 162.9875,33.7333333 C161.55,29.6041667 160.116667,25.4833333 158.704167,21.3458333 C158.225,19.8458333 157.745833,18.8916667 156.4125,17.9958333 C156.416667,17.3375 156.425,16.675 156.429167,16.0166667 Z" id="Shape" fill="#FFFFFF" fill-rule="nonzero"></path>
                <path d="M97.3041667,38.6791667 C97.9541667,38.5916667 98.6208333,38.5666667 99.2791667,38.5291667 C99.2875,41.1541667 99.2833333,43.7791667 99.2791667,46.4 C98.6,46.4208333 97.9208333,46.4416667 97.2458333,46.4625 C97.2458333,45.425 97.2458333,44.3916667 97.2458333,43.3541667 C95.9541667,43.3916667 94.6625,43.425 93.3708333,43.4625 C93.375,44.4916667 93.3833333,45.5166667 93.3875,46.5416667 C92.7,46.5666667 92.0083333,46.5875 91.3208333,46.6083333 C91.3208333,44.025 91.325,41.4416667 91.3208333,38.8541667 C92.0083333,38.8333333 92.7,38.8083333 93.3875,38.7875 C93.3833333,39.8 93.3791667,40.8125 93.375,41.825 C94.6583333,41.7958333 95.9416667,41.7666667 97.225,41.7458333 C97.2416667,40.7291667 97.1958333,39.6958333 97.3041667,38.6791667 Z" id="Shape" fill="#FFFFFF" fill-rule="nonzero"></path>
                <path d="M108.745833,38.8541667 C110.070833,39 112.070833,38.7166667 112.554167,40.3625 C112.741667,42.5416667 112.575,44.7583333 112.625,46.9458333 C111.933333,46.9041667 111.245833,46.8583333 110.554167,46.8166667 C110.554167,46.1125 110.558333,45.4083333 110.558333,44.7083333 C109.166667,44.5708333 107.779167,44.4666667 106.379167,44.4041667 C106.379167,45.1166667 106.379167,45.8333333 106.379167,46.5458333 C105.6875,46.5291667 104.991667,46.5083333 104.295833,46.4916667 C104.375,44.1583333 104.125,41.7416667 104.425,39.4333333 C105.35,38.2125 107.445833,38.8791667 108.745833,38.8541667 Z" id="Shape" fill="#FFFFFF" fill-rule="nonzero"></path>
                <path d="M81.4625,39.8291667 C82.8583333,40.3791667 82.2958333,42.5875 82.375,43.7666667 C82.4333333,45.2958333 81.2375,45.3125 80.125,45.7958333 C81.1833333,46.2875 82.2208333,46.8083333 83.2333333,47.3916667 C82.1791667,47.5208333 81.075,47.7458333 80.0125,47.6708333 C78.8083333,47.2166667 77.6791667,46.55 76.525,45.9833333 C76.5208333,46.7333333 76.5208333,47.4875 76.5166667,48.2375 C75.8333333,48.3583333 75.1458333,48.475 74.4625,48.5958333 C74.4666667,45.9791667 74.4666667,43.3625 74.4625,40.7458333 C76.7583333,40.45 79.15,39.7375 81.4625,39.8291667 Z" id="Shape" fill="#FFFFFF" fill-rule="nonzero"></path>
                <path d="M117.625,39.6125 C118.3,39.6833333 118.975,39.7541667 119.65,39.8291667 C119.65,41.925 119.654167,44.0208333 119.6375,46.1166667 C120.658333,46.2791667 121.675,46.4375 122.691667,46.5875 C122.695833,44.4791667 122.6875,42.3708333 122.695833,40.2625 C123.379167,40.3916667 124.058333,40.5208333 124.741667,40.65 C124.733333,42.7333333 124.733333,44.8166667 124.725,46.9 C125.7125,47.0916667 126.704167,47.275 127.691667,47.4541667 C127.695833,45.3708333 127.691667,43.2875 127.691667,41.2041667 C128.391667,41.3333333 129.0875,41.45 129.7875,41.5666667 C129.720833,43.8375 129.904167,46.1375 129.704167,48.3958333 C129.1625,49.7125 126.904167,48.775 125.8375,48.675 C123.779167,48.1625 121.683333,47.9916667 119.5875,47.7208333 C118.716667,47.6291667 117.733333,47.1875 117.666667,46.2 C117.533333,44.0125 117.658333,41.8041667 117.625,39.6125 Z" id="Shape" fill="#FFFFFF" fill-rule="nonzero"></path>
                <path d="M5.17916667,39.9791667 C7.84583333,44.6083333 11.1041667,48.8291667 15.0833333,52.4083333 C20.8333333,57.5625 27.6166667,61.75 34.7666667,64.6666667 C32.9625,63.1583333 30.95,61.95 29.1333333,60.4583333 C27.7541667,59.3416667 26.4541667,58.15 25.15,56.9458333 C27.4541667,55.725 29.7833333,54.5541667 32.1375,53.4375 C43.3666667,59.7083333 54.85,65.45 66.8291667,70.1625 C67.125,71.2416667 67.4208333,72.3208333 67.7166667,73.4 C63.0875,72.4541667 58.5416667,71.025 54.1458333,69.3125 C58.4583333,71.9708333 63.1458333,74.0875 67.8791667,75.8666667 C69.5583333,76.4708333 70.2083333,77.8291667 71.3333333,79.0875 C73.0125,81.1 75.3166667,82.4583333 77.45,83.9375 C68.6875,83.9 59.9208333,82.7916667 51.3208333,81.1625 C47.3125,80.1833333 43.15,79.2625 39.3875,77.6541667 C44.4208333,77.5958333 49.3875,77.4541667 54.3041667,76.2583333 C51.5125,75.5375 48.7,74.9375 45.9583333,74.0375 C36.1708333,71.1083333 26.0583333,66.7541667 18.1416667,60.1875 C11.8,54.9416667 6.89583333,48.1375 5.17916667,39.9791667 Z" id="Shape" fill="#872434" fill-rule="nonzero"></path>
                <path d="M106.3625,40.2458333 C107.7625,40.3166667 109.1625,40.4166667 110.5625,40.525 C110.558333,41.3916667 110.558333,42.2625 110.558333,43.1291667 C109.170833,43.0458333 107.783333,42.975 106.391667,42.925 C106.379167,42.0333333 106.370833,41.1375 106.3625,40.2458333 Z" id="Shape" fill="#232021" fill-rule="nonzero"></path>
                <path d="M80.3291667,41.4083333 C80.3375,42.2666667 80.3458333,43.125 80.3541667,43.9791667 C79.0791667,44.1916667 77.8,44.3791667 76.5166667,44.5583333 C76.5166667,43.6916667 76.5166667,42.8208333 76.5166667,41.95 C77.7875,41.7625 79.0541667,41.5625 80.3291667,41.4083333 Z" id="Shape" fill="#232021" fill-rule="nonzero"></path>
                <path d="M68.3125,42.0208333 C68.7166667,42.1791667 69.4041667,42.45 69.4041667,42.9708333 C69.5916667,45.175 69.4375,47.425 69.4625,49.6416667 C68.7875,49.7416667 68.1125,49.8416667 67.4375,49.9375 C67.4333333,49.2291667 67.425,48.5166667 67.4166667,47.8083333 C66.0833333,48.1458333 64.75,48.4833333 63.4166667,48.8208333 C63.4083333,49.5208333 63.4041667,50.2166667 63.4,50.9166667 C62.7375,51.1125 62.0708333,51.3125 61.4083333,51.5083333 C61.4666667,49.2375 61.2916667,46.9291667 61.4916667,44.6666667 C61.6416667,43.625 62.5708333,43.3958333 63.425,43.1 C65.0208333,42.6666667 66.6625,42.1708333 68.3125,42.0208333 Z" id="Shape" fill="#FFFFFF" fill-rule="nonzero"></path>
                <path d="M134.7625,42.675 C135.420833,42.7916667 136.066667,42.9791667 136.7125,43.15 C136.7125,44.4375 136.720833,45.7208333 136.841667,47.0041667 C138.470833,46.3666667 139.825,45.3583333 141.2125,44.3208333 C141.916667,44.5375 142.625,44.7541667 143.333333,44.9708333 C142.204167,45.775 141.0875,46.5875 139.991667,47.4375 C140.920833,47.8666667 142.325,47.9083333 142.570833,49.125 C142.7625,50.2541667 142.6875,51.4416667 142.704167,52.5875 C142.029167,52.4083333 141.35,52.2333333 140.670833,52.0625 C140.666667,51.125 140.6625,50.1875 140.654167,49.25 C139.341667,48.8916667 138.029167,48.5291667 136.720833,48.1583333 C136.720833,49.1083333 136.725,50.0583333 136.725,51.0041667 C136.054167,50.8291667 135.383333,50.65 134.7125,50.475 C134.758333,47.8791667 134.65,45.2708333 134.7625,42.675 Z" id="Shape" fill="#FFFFFF" fill-rule="nonzero"></path>
                <path d="M67.4291667,43.65 C67.4291667,44.5333333 67.4291667,45.4166667 67.4291667,46.3 C66.0666667,46.6083333 64.7125,46.9416667 63.3583333,47.2791667 C63.3833333,46.425 63.3708333,45.5541667 63.475,44.7041667 C64.7458333,44.2291667 66.1166667,43.9875 67.4291667,43.65 Z" id="Shape" fill="#232021" fill-rule="nonzero"></path>
                <path d="M56.45,44.9666667 C56.3833333,47.3 56.65,49.75 56.3125,52.0458333 C55.5708333,53.5375 53.4125,53.8 51.9708333,54.2791667 C49.2875,54.9208333 47.4458333,56.4375 44.8041667,56.4291667 C44.7,53.9875 44.7625,51.5375 44.7416667,49.0916667 C45.4708333,48.8 46.2,48.5083333 46.9291667,48.2125 C46.925,50.3083333 46.9208333,52.4083333 46.9291667,54.5041667 C47.7875,54.2166667 48.6416667,53.925 49.4958333,53.625 C49.5125,51.5333333 49.5041667,49.4375 49.5,47.3458333 C50.1666667,47.0916667 50.8291667,46.8375 51.4958333,46.5791667 C51.5083333,48.675 51.5,50.7666667 51.5041667,52.8625 C52.4875,52.5333333 53.4708333,52.2166667 54.4625,51.9125 C54.4541667,49.8375 54.4583333,47.7666667 54.4541667,45.6916667 C55.1166667,45.45 55.7833333,45.2083333 56.45,44.9666667 Z" id="Shape" fill="#FFFFFF" fill-rule="nonzero"></path>
                <path d="M149.254167,46.9208333 C151.091667,47.5166667 152.916667,48.1791667 154.7,48.9291667 C154.691667,49.4291667 154.683333,49.9291667 154.675,50.4291667 C152.804167,49.7916667 150.9625,49.0791667 149.1,48.4125 C149.145833,48.9416667 149.1875,49.4708333 149.233333,50 C150.733333,50.5375 152.270833,51.0416667 153.708333,51.7416667 C154.5,52.1458333 155.1625,52.7291667 155.204167,53.6833333 C155.195833,54.5875 155.529167,55.9125 154.641667,56.475 C152.133333,56.1333333 149.791667,54.7375 147.3375,54.0791667 C147.3375,53.5416667 147.341667,53 147.341667,52.4625 C149.275,53.2 151.204167,53.9333333 153.170833,54.5708333 C153.175,54.05 153.179167,53.525 153.179167,53 C151.5875,52.3583333 149.8375,52.0041667 148.325,51.2 C146.825,50.3708333 147.141667,48.3583333 147.395833,46.9541667 C148.070833,46.6708333 148.566667,46.6958333 149.254167,46.9208333 Z" id="Shape" fill="#FFFFFF" fill-rule="nonzero"></path>
                <path d="M104.175,52.0583333 C106.429167,52.3666667 108.2625,53.6958333 110.516667,54.0208333 C111.6625,54.1958333 112.595833,54.6791667 113.5625,55.2958333 C111.775,55.6916667 110.1375,55.725 108.741667,57.0541667 C107.270833,58.3083333 105.833333,60.5 103.766667,60.6333333 C102.075,60.8458333 101.141667,59.7958333 99.9416667,58.85 C98.6416667,59.8125 97.5833333,60.8958333 95.8083333,60.6208333 C93.8791667,60.3333333 92.45,58.0833333 90.9916667,56.9125 C89.5708333,55.6541667 87.9458333,55.6791667 86.1708333,55.3666667 C87.2833333,54.6375 88.2708333,54.1875 89.5958333,53.9666667 C91.6541667,53.6 93.35,52.4333333 95.4291667,52.1208333 C98.2791667,51.6583333 101.316667,51.6166667 104.175,52.0583333 Z" id="Shape" fill="#872434" fill-rule="nonzero"></path>
                <path d="M56.4291667,57.2875 C57.5041667,57.0416667 58.4708333,57.325 59.5083333,57.575 C63.6666667,58.725 68.25,59.5 72.3083333,61.0333333 C74.2875,61.8458333 76.4958333,63.2541667 76.9916667,65.4916667 C77.1583333,67.1125 76.6833333,68.7833333 76.7208333,70.4166667 C76.7625,73.5 78.0208333,76.0375 79.2458333,78.775 C77.4166667,77.8166667 75.6666667,76.8666667 74.2125,75.3666667 C71.7,72.8583333 70.2083333,69.6833333 69.4291667,66.2458333 C63.1875,64.0875 57.1375,61.6833333 51.0958333,59.0208333 C52.875,58.4583333 54.6166667,57.725 56.4291667,57.2875 Z" id="Shape" fill="#872434" fill-rule="nonzero"></path>
                <path d="M148.791667,59.0666667 C142.741667,61.6416667 136.658333,64.1166667 130.420833,66.2041667 C129.691667,69.5291667 128.279167,72.6 125.920833,75.0875 C124.4,76.7458333 122.5375,77.7416667 120.583333,78.7833333 C122.0125,75.65 123.429167,72.7375 123.091667,69.1708333 C123.0125,67.6 122.420833,65.9333333 123.25,64.475 C124.295833,62.4958333 126.5,61.325 128.554167,60.65 C132.558333,59.375 136.725,58.5375 140.829167,57.4708333 C143.5375,56.6166667 146.225,58.2708333 148.791667,59.0666667 Z" id="Shape" fill="#872434" fill-rule="nonzero"></path>
                <path d="M87.2416667,58.9375 C87.7333333,59.3791667 88.2916667,59.8125 88.7041667,60.3333333 C88.6958333,60.775 88.675,61.2125 88.6333333,61.6541667 C88.1875,61.6125 87.7375,61.575 87.2875,61.5333333 C87.9666667,62.4625 88.5083333,63.4 89.6375,63.8375 C90.4916667,64.1708333 91.3333333,63.5625 92.125,63.2708333 C92.5708333,63.7 93.025,64.125 93.475,64.5458333 C92.0208333,64.9958333 90.7208333,65.6083333 89.1791667,65.0625 C86.8541667,64.3958333 85.8333333,61.8583333 86.45,59.625 C86.7125,59.3958333 86.975,59.1625 87.2416667,58.9375 Z" id="Shape" fill="#FFFFFF" fill-rule="nonzero"></path>
                <path d="M112.770833,58.9125 C114.554167,60.875 113.183333,64.2166667 110.841667,64.9958333 C109.216667,65.6416667 107.8875,65.0375 106.345833,64.5208333 C106.791667,64.1 107.233333,63.6875 107.679167,63.2708333 C108.316667,63.5333333 108.908333,63.8208333 109.583333,63.9583333 C110.804167,63.9375 111.658333,62.7 112.420833,61.9 L111.204167,61.3833333 C111,60.9208333 111.091667,60.4958333 111.154167,60.0208333 C111.691667,59.6458333 112.229167,59.275 112.770833,58.9125 Z" id="Shape" fill="#FFFFFF" fill-rule="nonzero"></path>
                <path d="M117.033333,59.4875 C117.5125,61.8458333 117.75,64.2291667 118.058333,66.6125 C118.266667,68.2458333 118.970833,69.65 119.791667,71.0541667 C118.966667,73.1083333 117.975,74.6041667 116.4375,76.1875 C116.079167,74.8708333 115.733333,73.5458333 115.4125,72.2208333 C114.8625,74.0708333 114.4375,75.7875 113.0625,77.2208333 C110.854167,79.5708333 107.395833,80.7 104.795833,82.7 C102.7125,84.1375 101.279167,86.1 99.9458333,88.2083333 C98.7291667,86.4166667 97.5375,84.7 95.8458333,83.3166667 C93.2958333,81.1375 90.0125,80.0541667 87.4958333,77.9083333 C85.8125,76.4791667 85.1875,74.6541667 84.375,72.6791667 C84.0375,73.8625 83.7125,75.0541667 83.375,76.2375 C82.2125,74.8083333 80.5333333,73.0375 80.2291667,71.1708333 C80.6458333,69.6708333 81.525,68.3666667 81.7625,66.7833333 C82.1083333,64.4875 82.2708333,62.1666667 82.7541667,59.8875 C83.2666667,61.9 83.5291667,63.8333333 85.0208333,65.4083333 C86.2208333,66.7208333 87.9125,67.125 89.5333333,67.6916667 C89.2291667,68.4416667 88.9291667,69.1916667 88.625,69.9416667 C89.0291667,70.55 89.4333333,71.1541667 89.8333333,71.7666667 C89.85,72.6625 89.4833333,74.0916667 90.2375,74.7458333 C92.1083333,76.6916667 95.1791667,77.4375 97.1125,79.1541667 C98.3416667,80.4666667 99.0375,82.3208333 99.9333333,83.8708333 C100.725,82.4208333 101.404167,80.8125 102.4375,79.5166667 C103.658333,78.1541667 105.720833,77.3875 107.279167,76.45 C108.458333,75.7958333 109.395833,74.875 110.325,73.9125 C110.1625,73.2708333 110,72.6291667 109.841667,71.9875 C110.279167,71.3208333 110.804167,70.6333333 111.075,69.8791667 C110.970833,69.1 110.629167,68.3375 110.370833,67.6 C112.075,67.0708333 113.675,66.725 114.9125,65.3333333 C116.458333,63.6833333 116.608333,61.6 117.033333,59.4875 Z" id="Shape" fill="#872434" fill-rule="nonzero"></path>
                <path d="M99.9458333,62.5041667 C100.841667,62.9458333 101.654167,63.6041667 102.4625,64.1833333 C102.283333,65.0875 102.095833,65.9875 101.908333,66.8916667 C102.5625,66.3083333 103.216667,65.725 103.8625,65.1375 C105.641667,66.5833333 107.808333,67.4625 108.158333,69.9791667 C106.7125,69.8333333 105.520833,69.0583333 104.195833,70.0458333 C101.8,71.7458333 100.679167,75.2875 99.9666667,78.0083333 C99.3333333,75.9 98.5625,73.6416667 97.375,71.7708333 C96.6583333,70.7375 95.5166667,69.625 94.2,69.5125 C93.3833333,69.6125 92.575,69.875 91.775,70.0625 C91.7791667,67.5625 94.3208333,66.5416667 95.95,65.1333333 C96.6125,65.7416667 97.2833333,66.3416667 97.9625,66.9333333 C97.7708333,66.0333333 97.5708333,65.1375 97.35,64.2458333 C98.175,63.6458333 99.0041667,62.9166667 99.9458333,62.5041667 Z" id="Shape" fill="#FFFFFF" fill-rule="nonzero"></path>
                <path d="M95.7166667,71.75 C96.675,73.2291667 97.3208333,74.8083333 97.8833333,76.4708333 C96.4625,75.2708333 94.7416667,74.5041667 93.3166667,73.3416667 C92.7458333,72.8875 93.0041667,72.5125 93.1208333,71.9083333 C93.975,71.7291667 94.8416667,71.7625 95.7166667,71.75 Z" id="Shape" fill="#FFFFFF" fill-rule="nonzero"></path>
                <path d="M106.479167,71.8625 C107.229167,72.2416667 106.95,73.0416667 106.404167,73.4625 C104.983333,74.5166667 103.3875,75.3083333 101.995833,76.4083333 C102.529167,74.7916667 103.125,73.225 104.1125,71.8208333 C104.879167,71.7583333 105.725,71.675 106.479167,71.8625 Z" id="Shape" fill="#FFFFFF" fill-rule="nonzero"></path>
                <path d="M88.7291667,81.8708333 C91.025,83.2416667 93.2375,84.6208333 95.0958333,86.5708333 C97.1291667,88.6041667 98.575,91 99.9458333,93.5041667 C101.383333,90.7791667 102.975,88.2125 105.216667,86.0666667 C106.991667,84.3291667 109.020833,83.15 111.129167,81.875 C110.8875,82.75 110.641667,83.625 110.404167,84.5 C111.841667,83.8 113.2375,83.05 114.608333,82.2291667 C112.5625,86.375 111.016667,90.9875 108.383333,95.05 C107.020833,97.1291667 105.175,98.9833333 102.829167,99.8958333 C100.425,100.758333 97.625,100.4875 95.4583333,99.125 C93.3291667,97.8125 91.8166667,95.7125 90.5791667,93.5833333 C88.4791667,89.9041667 87.025,86.0458333 85.3291667,82.25 C86.6666667,83.0708333 88.025,83.8125 89.4375,84.4958333 C89.2041667,83.6208333 88.9666667,82.7458333 88.7291667,81.8708333 Z" id="Shape" fill="#872434" fill-rule="nonzero"></path>
                <path d="M64.325,87.2375 C65.4833333,87.0458333 67.4333333,87.0541667 68.2458333,88.05 C69.1416667,89.5916667 68.1916667,90.6291667 67.3291667,91.8333333 C67.3375,90.9041667 67.2916667,90.0041667 67.1458333,89.0875 C65.8916667,90.75 65.8458333,92.5916667 65.65,94.5833333 C65.4875,96.5958333 65.6375,98.5708333 65.9958333,100.554167 C63.9833333,97.7958333 62.6166667,94.7208333 62.8208333,91.2375 C62.9541667,89.8916667 63.3,88.2083333 64.325,87.2375 Z" id="Shape" fill="#FFFFFF" fill-rule="nonzero"></path>
                <path d="M76.8958333,87.2666667 C80.0916667,87.9833333 83.0083333,90.0583333 84.475,93.025 C85.3875,94.8375 85.525,96.7916667 85.7666667,98.7708333 C83.8083333,98.9208333 81.8541667,99.0375 79.8916667,99.1333333 C80.5125,99.8583333 81.1291667,100.591667 81.7416667,101.325 C79.9541667,101.445833 78.2083333,101.420833 76.4333333,101.166667 C76.8625,98.8166667 77.1625,96.5083333 76.7666667,94.125 C76.45,91.8375 75.5166667,89.8625 74.7458333,87.7208333 C75.475,87.4208333 76.0833333,87.0625 76.8958333,87.2666667 Z" id="Shape" fill="#872434" fill-rule="nonzero"></path>
                <path d="M124.741667,86.9791667 C124.95,89.3791667 123.645833,91.0166667 123.245833,93.3125 C122.654167,96.0083333 122.970833,98.5916667 123.35,101.283333 C121.5625,101.375 119.775,101.3875 117.9875,101.345833 C118.65,100.6125 119.3125,99.8791667 119.979167,99.1458333 C118.0375,99.0291667 116.1,98.9208333 114.158333,98.8208333 C114.4,96.2083333 114.566667,93.8125 116.204167,91.6375 C118.254167,88.8125 121.329167,87.375 124.741667,86.9791667 Z" id="Shape" fill="#872434" fill-rule="nonzero"></path>
                <path d="M135.645833,87.2833333 C136.991667,88.9125 137.15,91.3333333 136.95,93.3458333 C136.654167,96.0208333 135.458333,98.3 133.933333,100.4625 C134.4,97.0083333 134.541667,92.9625 133.225,89.6833333 L132.4125,89.7041667 C132.441667,90.4333333 132.554167,91.1458333 132.65,91.8666667 C132.1875,91.275 131.575,90.6416667 131.35,89.9166667 C131.175,89.0875 131.275,87.9791667 132.158333,87.5916667 C133.133333,87.1208333 134.608333,87.0125 135.645833,87.2833333 Z" id="Shape" fill="#FFFFFF" fill-rule="nonzero"></path>
                <path d="M128.8125,89.4583333 C129.133333,90.3791667 129.3875,91.4 129.8875,92.2416667 C130.379167,92.8875 131.191667,93.3125 131.845833,93.7791667 C130.9,94.5791667 129.9875,95.3208333 129.241667,96.325 C128.1625,97.775 127.633333,99.4 126.979167,101.058333 C126.7875,99.4208333 126.6625,97.7791667 126.591667,96.125 C126.166667,96.7 125.733333,97.2708333 125.3,97.8375 C125.533333,94.6083333 126.920833,92 128.8125,89.4583333 Z" id="Shape" fill="#872434" fill-rule="nonzero"></path>
                <path d="M71.1291667,89.5416667 C72.0708333,91 73.1458333,92.525 73.7625,94.15 C74.25,95.4291667 74.425,96.7041667 74.6416667,98.0458333 C74.175,97.3833333 73.7125,96.7166667 73.2583333,96.05 C73.1833333,97.775 73.0708333,99.4958333 72.9291667,101.216667 C72.3125,99.6041667 71.725,97.8 70.7,96.4 C69.9458333,95.3708333 69.0125,94.6333333 68.0416667,93.825 C68.7083333,93.3083333 69.5166667,92.7916667 69.9958333,92.0958333 C70.4833333,91.3125 70.7833333,90.3916667 71.1291667,89.5416667 Z" id="Shape" fill="#872434" fill-rule="nonzero"></path>
                <path d="M57.1791667,90.6625 C58.5125,91.9125 57.875,93.0458333 57.5,94.5375 C57.1791667,93.5958333 56.8416667,92.8083333 56.1833333,92.0541667 C56.0375,93.2916667 56.0208333,94.5125 56.2916667,95.7333333 C56.8833333,98.3875 57.65,100.966667 59.1375,103.275 C55.9416667,101.05 53.3708333,98.15 52.7416667,94.1875 C52.6,93.1791667 52.4708333,91.5583333 53.4958333,90.9541667 C54.4708333,90.4416667 56.15,90.2958333 57.1791667,90.6625 Z" id="Shape" fill="#FFFFFF" fill-rule="nonzero"></path>
                <path d="M143.320833,90.4958333 C144.383333,90.4208333 145.820833,90.4791667 146.6875,91.1875 C147.495833,92.15 147.208333,93.8791667 146.954167,95.0083333 C146.116667,98.6166667 143.633333,101.1875 140.733333,103.308333 C142.6875,100.025 143.908333,95.9916667 143.791667,92.1625 C142.766667,92.8666667 142.720833,93.4458333 142.5,94.6 C142.258333,93.9208333 141.975,93.2208333 141.845833,92.5125 C141.795833,91.6833333 142.370833,90.5083333 143.320833,90.4958333 Z" id="Shape" fill="#FFFFFF" fill-rule="nonzero"></path>
                <path d="M49.1083333,98.2833333 C50.5,98.9083333 50.2083333,99.9791667 50.3666667,101.25 C49.8333333,100.6875 49.2958333,100.133333 48.75,99.5916667 C48.8583333,100.404167 48.9083333,101.1625 49.2958333,101.904167 C50.5708333,104.291667 52.3083333,106.3625 54.3458333,108.1375 C52.4541667,107.425 50.6416667,106.875 49.0708333,105.529167 C47.3166667,104.145833 45.6125,101.845833 45.5833333,99.5416667 C46.1875,98.6125 48.1083333,97.8875 49.1083333,98.2833333 Z" id="Shape" fill="#FFFFFF" fill-rule="nonzero"></path>
                <path d="M152.495833,98.3708333 C153.4,98.675 154.604167,99.2416667 154.195833,100.4125 C153.125,104.65 149.508333,106.8625 145.595833,108.1375 C146.6625,107.0875 147.729167,106.075 148.629167,104.870833 C149.820833,103.2125 150.979167,101.720833 151.2,99.6125 C150.5875,100.133333 149.995833,100.679167 149.4125,101.229167 C149.533333,100.4875 149.575,99.675 149.854167,98.9708333 C150.504167,98.0875 151.516667,98 152.495833,98.3708333 Z" id="Shape" fill="#FFFFFF" fill-rule="nonzero"></path>
                <path d="M89.1541667,102.0625 C90.8125,101.679167 92.3125,102.6875 93.7791667,103.3 C96.5125,104.5875 99.7125,104.758333 102.666667,104.345833 C104.5625,104.070833 106.1875,103.258333 107.908333,102.491667 C109.083333,101.929167 110.220833,102.066667 111.479167,102.075 C112.970833,105.516667 114.9,108.941667 117.4375,111.720833 C118.8375,113.270833 120.4875,114.445833 122.179167,115.65 C120.758333,117.225 119.195833,118.504167 117.429167,119.675 C115.029167,117.404167 113.195833,114.720833 111.0875,112.204167 C112.366667,115.945833 113.616667,119.6375 115.683333,123.0375 C113.3,124.204167 110.966667,125.066667 108.383333,125.7 C106.520833,121.191667 105.175,116.45 103.8,111.770833 C104.083333,117.4125 104.416667,123.179167 105.7375,128.683333 C101.691667,129.525 98.2,129.5 94.1541667,128.691667 C95.45,122.9875 95.775,117.291667 96.1166667,111.475 C94.7916667,116.266667 93.3583333,121.15 91.4041667,125.729167 C88.9083333,125.033333 86.5416667,124.170833 84.2083333,123.0375 C86.2,119.558333 87.5541667,115.833333 88.7875,112.0375 C86.7875,114.679167 84.8833333,117.35 82.4916667,119.666667 C80.8541667,118.541667 79.025,117.445833 77.9,115.770833 C79.0583333,114.4375 80.65,113.5875 81.875,112.291667 C84.2375,109.841667 86.1541667,106.920833 87.5833333,103.8375 C87.9958333,103.1625 88.225,102.141667 89.1541667,102.0625 Z" id="Shape" fill="#872434" fill-rule="nonzero"></path>
                <path d="M74.2958333,102.729167 C75.125,103.208333 75.9833333,103.695833 76.4708333,104.55 C76.7333333,106.141667 75.5583333,107.741667 74.8166667,109.075 C74.7625,107.966667 74.8791667,106.604167 74.4125,105.575 C73.9416667,104.733333 73.1541667,104.033333 72.4958333,103.333333 C73.0916667,103.125 73.6916667,102.920833 74.2958333,102.729167 Z" id="Shape" fill="#872434" fill-rule="nonzero"></path>
                <path d="M125.420833,102.891667 C126.075,102.966667 126.733333,103.133333 127.379167,103.283333 C126.6125,104.170833 125.395833,105.191667 125.129167,106.383333 C125.004167,107.329167 125.241667,108.358333 125.383333,109.3 C124.6,108.1625 123.416667,106.841667 123.3875,105.404167 C123.254167,104.195833 124.325,103.145833 125.420833,102.891667 Z" id="Shape" fill="#872434" fill-rule="nonzero"></path>
                <path d="M70.4375,105.075 C72.6208333,104.8625 73.6541667,108.366667 72.1791667,109.679167 C70.7875,110.745833 68.7458333,110.870833 67.0666667,110.725 C64.9666667,110.5375 63.3375,109.5625 61.55,108.545833 C64.8083333,108.7875 67.9,108.733333 70.7083333,106.845833 C69.725,106.2375 69.2916667,106.408333 68.2833333,106.708333 C68.8833333,106.129167 69.5208333,105.020833 70.4375,105.075 Z" id="Shape" fill="#FFFFFF" fill-rule="nonzero"></path>
                <path d="M129.566667,105.079167 C130.45,105.095833 131.045833,106.216667 131.583333,106.783333 C131.05,106.583333 130.516667,106.383333 129.979167,106.179167 C129.779167,106.479167 129.579167,106.775 129.379167,107.075 C132.191667,108.65 135.208333,108.833333 138.358333,108.529167 C136.720833,109.429167 135.2,110.375 133.316667,110.658333 C131.583333,110.904167 129.529167,110.820833 127.983333,109.904167 C125.9375,108.741667 127.204167,104.741667 129.566667,105.079167 Z" id="Shape" fill="#FFFFFF" fill-rule="nonzero"></path>
                <path d="M132.9625,116.616667 C133.191667,117.1875 133.420833,117.758333 133.645833,118.333333 C134.0125,117.420833 134.195833,116.7875 135.045833,116.229167 C135.075,117.3125 135.054167,118.383333 134.9875,119.4625 C134.733333,118.795833 134.479167,118.129167 134.233333,117.458333 C134.054167,118.116667 133.883333,118.775 133.704167,119.433333 C133.416667,118.745833 133.141667,118.054167 132.879167,117.358333 L132.470833,119.566667 C132.283333,118.758333 132.254167,117.941667 132.195833,117.116667 C131.804167,117.15 131.4125,117.179167 131.016667,117.208333 C131.070833,117.8125 131.125,118.416667 131.179167,119.020833 L130.670833,119.066667 C130.575,118.020833 130.5125,117.341667 129.816667,116.495833 C130.8625,116.558333 131.9125,116.608333 132.9625,116.616667 Z" id="Shape" fill="#232021" fill-rule="nonzero"></path>
            </g>
        </g>
    </g>
</svg>