<?xml version="1.0" encoding="UTF-8"?>
<svg width="200px" height="200px" viewBox="0 0 200 200" version="1.1" xmlns="http://www.w3.org/2000/svg" xmlns:xlink="http://www.w3.org/1999/xlink">
    <!-- Generator: Sketch 54.1 (76490) - https://sketchapp.com -->
    <title>me-farmington</title>
    <desc>Created with Sketch.</desc>
    <g id="me-farmington" stroke="none" stroke-width="1" fill="none" fill-rule="evenodd">
        <g id="me-farmington_BGL">
            <g id="me-farmington" transform="translate(0.000000, 28.000000)">
                <path d="M98.8420182,0 L99.7171216,0 C101.586435,0.205128205 103.478908,0.201819686 105.35153,0.340777502 C109.788255,0.600496278 114.211745,1.27377998 118.610422,1.89081886 C122.456576,2.47973532 126.266336,4.01819686 129.73201,5.75186104 C135.945409,8.92969396 141.728701,13.019024 147.055418,17.5119934 C146.764268,16.2630273 146.372208,15.0388751 146.094293,13.7882548 C152.26799,16.1935484 157.847808,20.0612076 162.17866,25.0851944 C165.237386,28.6153846 167.72043,32.6848635 169.373036,37.057072 C169.639371,37.7369727 169.761787,38.375517 170.105873,38.9942101 C170.974359,40.5806452 171.867659,42.1803143 172.83871,43.7055418 C173.239041,44.3143093 173.598015,44.8899917 174.181969,45.3432589 C177.612903,48.0198511 181.066998,51.0239868 183.74359,54.4681555 C184.741108,55.7568238 185.659222,57.1497105 186.277916,58.6617039 C186.511166,59.242349 186.70306,59.8263027 186.699752,60.4598842 C188.876758,62.1009098 190.888337,63.9851117 192.840364,65.8858561 C194.80397,67.8626964 196.764268,70.0231596 198.254756,72.3837883 C199.066998,73.6658395 199.710505,75.0355666 200,76.5326716 L200,77.9090157 C199.75517,79.4143921 198.716294,80.4168734 197.394541,81.0603805 C198.980976,83.3746898 199.637717,86.2349049 199.79818,88.9991729 C199.990074,91.1430935 199.761787,93.3316791 199.442514,95.4540943 C198.777502,99.2258065 197.396195,103.146402 195.037221,106.20182 C193.376344,108.355666 191.181141,110.016543 188.464847,110.527709 C185.002481,121.88751 178.607113,132.504549 169.7866,140.502895 C168.83871,141.313482 167.892473,142.172043 166.856907,142.865178 C166.031431,143.200993 165.090157,143.308519 164.211745,143.424318 L162.122415,143.424318 C159.502068,143.171216 157.048801,142.122415 155.08354,140.3689 C154.638544,139.983457 154.251447,139.54177 153.83292,139.131514 C153.659222,138.949545 153.421009,138.952854 153.187758,138.934657 C150.29115,138.919768 147.265509,138.26799 144.732837,136.825476 C142.06617,135.320099 139.874276,132.800662 138.977667,129.852771 C134.842018,131.210918 130.562448,131.818031 126.220017,131.935484 C121.834574,132.046319 117.445823,131.659222 113.151365,130.752688 C109.978495,130.064516 106.899917,129.047146 103.985112,127.609595 C100.008271,125.703888 96.2845327,123.058726 92.681555,120.526055 C91.483871,119.693962 90.3010753,118.812242 89.0488007,118.069479 C86.9594706,116.835401 84.7543424,115.783292 82.5293631,114.822167 C76.5078577,112.249793 70.2282878,110.210091 63.9470637,108.373863 C62.375517,107.925558 60.802316,107.472291 59.2175352,107.070306 C58.1389578,106.843672 57.0090984,106.789082 55.9139785,106.711332 C52.81555,106.496278 49.7187758,106.612076 46.6269644,106.863524 C40.3986766,107.427626 34.2464847,108.79239 28.3639371,110.913151 C20.3391232,113.788255 12.8767577,118.029777 6.20347395,123.321754 C5.97684036,123.502068 5.74855252,123.679074 5.5153019,123.852771 C7.43093466,117.272126 10.1952026,111.019024 13.5963606,105.075269 C16.2266336,100.501241 19.197684,96.1075269 22.5392887,92.0215054 C22.9148056,91.5616212 23.3167907,91.1282051 23.6658395,90.6468156 C16.7874276,94.8453267 9.92886683,99.0835401 3.0554177,103.291977 C2.54094293,103.606286 2.04631927,103.943755 1.50537634,104.211745 C3.27047146,101.472291 5.08354012,98.7609595 6.87510339,96.038048 C7.16294458,95.5649297 7.2770885,94.9942101 7.51695616,94.4929694 C8.71133168,91.8808933 10.1753515,89.3713813 11.6344086,86.8999173 C13.5831266,83.6526055 15.6195203,80.4483044 17.7981803,77.3482217 C18.9048801,75.7965261 19.9900744,74.2812242 21.3829611,72.9660877 C20.5938792,72.9875931 19.8676592,73.2373863 19.153019,73.5483871 C17.7717122,74.1753515 16.4863524,74.9346567 15.2076096,75.7468983 C9.89247312,79.1827957 4.90157155,83.2043011 0,87.1993383 L0,87.0669975 C1.4292804,84.3953681 2.76757651,81.6774194 4.30272953,79.0603805 C4.64350703,78.4946237 4.83209264,77.8428453 5.10339123,77.2241522 C7.14474773,72.4234905 10.172043,68.120761 13.5781638,64.1952026 C15.9917287,61.4375517 18.6170389,58.8602151 21.3515302,56.4251447 C25.4110835,52.8635236 29.7287014,49.5814723 34.2779156,46.6683209 C33.1761787,46.7940447 32.0860215,47.1397849 31.0107527,47.4061208 C25.8875103,48.808933 20.9214227,50.7907361 16.2233251,53.2622002 C15.6724566,53.5516956 15.1447477,53.872622 14.5740281,54.1257237 C14.8287841,53.6162117 15.1331679,53.1381307 15.4292804,52.6534326 C18.3556658,47.879239 21.7617866,43.4061208 25.5649297,39.2952854 C29.9851117,34.5822994 35.0157155,30.1670802 40.5277089,26.7791563 C40.5938792,26.7146402 40.6583954,26.6501241 40.7212572,26.5839537 C37.1811414,25.9586435 33.6311001,25.3779983 30.0976013,24.719603 C32.7245658,23.9470637 35.3085194,22.9925558 37.8610422,22.0016543 C38.2646816,21.8444996 38.6583954,21.7121588 39.0339123,21.4954508 C42.6004963,19.3283706 46.382134,17.483871 50.2117452,15.8312655 C56.5194376,13.1430935 63.0306038,10.9214227 69.6459884,9.11993383 C70.1058726,8.98097601 70.5889165,8.92473118 70.9925558,8.69478908 C68.5078577,7.64929694 66.0430108,6.57568238 63.5235732,5.6674938 C71.5748553,3.09511993 80.044665,1.70719603 88.502895,1.74689826 C93.2274607,1.82795699 98.1472291,2.25641026 102.704715,3.55831266 C101.682382,2.28122415 100.367246,1.19602978 99.0885029,0.181968569 L98.9958644,0.112489661 L98.8420182,0 Z" id="Shape" fill="#6E3146" fill-rule="nonzero"></path>
                <path d="M86.0215054,6.23986766 C87.1298594,6.20512821 88.2233251,6.33746898 89.3300248,6.35070306 C94.6269644,6.70306038 99.9007444,7.95698925 104.880066,9.77336642 C112.162117,12.4234905 119.086849,16.3622829 125.379653,20.8635236 C125.73201,21.146402 126.10091,21.1298594 126.529363,21.1331679 C126.504549,20.8684864 126.491315,20.630273 126.330852,20.4086022 C125.837883,19.6592225 125.192721,19.0008271 124.564103,18.3639371 C123.086849,16.8635236 121.513648,15.45244 119.935484,14.0578991 C117.126551,11.5583127 114.229942,9.16294458 111.346567,6.75103391 C113.540116,6.36724566 115.932175,6.66501241 118.114144,7.04383788 C122.550868,7.88254756 126.903226,9.6261373 130.903226,11.693962 C138.233251,15.5103391 144.989247,20.7014061 151.114971,26.2216708 C151.528536,26.5657568 151.91067,27.0951199 152.421836,27.2770885 C152.441687,26.7907361 152.44665,26.3076923 152.35732,25.8263027 C152.064516,24.2448304 151.614557,22.7311828 151.121588,21.2026468 C151.047146,20.9710505 151.063689,20.7444169 151.058726,20.5045492 C152.008271,20.9842845 152.878412,21.6443342 153.722084,22.2894955 C156.62531,24.6087676 159.133168,27.4540943 161.16129,30.5624483 C163.705542,34.4598842 165.573201,38.8221671 166.777502,43.3134822 C166.896609,43.9288668 167.510339,44.3705542 167.920596,44.81555 C170.987593,47.7766749 174.347395,50.7344913 177.023987,54.0843672 C178.373863,55.834574 179.695616,57.6757651 179.879239,59.9536807 C180.7378,60.4218362 181.593052,60.9048801 182.428453,61.4143921 C181.80976,61.356493 181.230769,61.3002481 180.669975,61.0090984 C180.056245,60.7030604 179.693962,60.1439206 179.09512,59.7766749 C177.669148,58.8585608 175.849462,58.426799 174.195203,58.1571547 C172.906534,57.9338296 171.685691,58.0578991 170.388751,58.165426 C167.64268,58.4813896 164.937965,59.3746898 162.99421,61.4259719 C161.010753,63.5053763 160.287841,66.3308519 160.344086,69.146402 C160.416873,71.3498759 160.901572,73.6443342 161.961952,75.5897436 C162.39206,76.2795699 162.88172,77.1215881 163.827957,77.0074442 C163.900744,75.7584781 163.89909,74.5227461 164.122415,73.2837055 C164.398677,71.6989247 164.899917,70.0843672 165.940447,68.8254756 C166.820513,67.7634409 168.157155,66.9892473 169.56493,67.0355666 C169.925558,67.0388751 170.233251,67.3300248 170.463193,67.579818 C171.062035,68.2762614 171.525227,69.1050455 171.927213,69.9288668 C172.671629,71.5401158 173.2622,73.3217535 173.399504,75.0984285 C173.468983,75.8924731 173.215881,76.6220017 173.364764,77.4210091 C173.789909,80.2183623 175.371381,82.9015715 176.709677,85.3399504 C176.527709,85.4822167 176.347395,85.6261373 176.168734,85.7717122 C176.44665,85.7684036 176.742763,85.7105045 177.014061,85.7650951 C177.442514,86.0082713 177.283706,86.4433416 177.277089,86.8519438 C177.129859,88.0281224 176.719603,89.1894127 176.289495,90.2911497 C175.310174,92.6699752 173.915633,94.9942101 172.072787,96.8039702 C170.612076,98.2514475 168.810587,99.3598015 166.751034,99.6708023 C164.828784,99.9801489 162.848635,99.4590571 161.141439,98.5756824 C158.674938,97.2870141 156.593879,95.280397 154.780811,93.197684 C151.523573,89.3763441 148.855252,84.8784119 146.529363,80.4383788 C145.146402,77.8097601 143.602978,75.2721257 141.861042,72.8651778 C139.641026,69.8378825 137.07196,67.0223325 134.008271,64.8271299 C130.64847,62.4251447 126.7378,60.8817204 122.582299,60.7559967 C118.799007,60.5971878 115.143093,61.5301902 111.72043,63.0851944 C106.641853,65.4127378 102.069479,69.0587262 98.2845327,73.1397849 C98.0959471,73.3267163 98.0033085,73.4871795 97.9288668,73.7419355 C99.0074442,73.745244 99.8990902,73.3167907 100.883375,72.929694 C103.030604,72.0082713 105.114971,70.9346567 107.162945,69.8081059 C106.956162,71.917287 106.66005,74.1571547 106.918114,76.2646816 C107.000827,77.229115 107.186104,78.1571547 107.60794,79.0339123 C104.557486,82.1306865 101.895782,85.8527709 100.686518,90.0727874 C99.6906534,93.4822167 99.7733664,97.146402 100.91646,100.509512 C101.904053,103.454094 103.72043,106.352357 105.938792,108.526055 C105.540116,110.397022 105.11828,112.223325 105.002481,114.142266 C104.985939,114.640199 105.020678,115.272126 105.325062,115.690653 C105.488834,115.723739 105.65426,115.751861 105.82134,115.773366 C109.164599,111.323408 113.033912,107.111663 117.414392,103.660877 C122.254756,99.8263027 127.847808,96.8701406 133.915633,95.5715467 C138.456576,94.5971878 143.181141,94.5740281 147.705542,95.662531 C148.148883,98.4747725 147.765095,101.510339 147.255583,104.292804 C146.145575,109.965261 144.140612,115.57651 141.937138,120.909843 C141.766749,121.282051 141.725393,121.624483 141.295285,121.779983 C136.641853,124.092639 131.548387,125.612903 126.387097,126.224979 C124.263027,126.438379 122.06617,126.542597 119.93383,126.38048 C116.476427,126.206782 112.980976,125.02895 109.862696,123.569892 C104.297767,120.924731 99.18445,116.863524 95.707196,111.745244 C93.0719603,107.905707 91.407775,103.422663 90.9578164,98.7857734 C90.6617039,95.2787428 90.898263,91.7617866 91.7270471,88.3391232 C92.4846981,84.9909016 93.7402812,81.8296112 95.18445,78.72622 C89.7667494,81.8709677 83.8924731,84.4086022 77.7535153,85.7353184 C75.8428453,86.1290323 73.9272126,86.4317618 71.9735318,86.4929694 C72.6765922,86.6865178 73.3912324,86.7493797 74.1108354,86.8436725 C78.2018197,87.4309347 82.3159636,87.9735318 86.4036394,88.560794 C85.9487179,88.6534326 85.4921423,88.7179487 85.0289495,88.7609595 C78.7808106,89.4855252 72.5558313,90.2564103 66.337469,91.2009926 C63.242349,91.6972705 60.1141439,92.1753515 57.0769231,92.9578164 C56.4119107,93.1629446 55.6095947,93.3333333 55.0587262,93.7733664 C54.8453267,93.9784946 54.9909016,94.2464847 55.2489661,94.3291977 C56.0529363,94.6401985 57.0488007,94.4747725 57.8990902,94.502895 C62.8800662,94.1588089 67.6410256,93.827957 72.6236559,94.5244003 C77.4309347,95.1778329 82.0148883,96.7477254 85.879239,99.7419355 C85.3779983,99.6889992 84.8850289,99.5980149 84.3920596,99.497105 C77.9735318,98.3176179 71.5417701,97.5086849 65.0124069,97.3498759 C61.4474773,97.3019024 57.9569892,97.3746898 54.4234905,97.9139785 C53.4706369,98.0661704 52.4764268,98.2034739 51.5715467,98.5525227 C52.0794045,98.6650124 52.560794,98.6137304 53.101737,98.6517783 C55.3647643,98.8205128 57.611249,99.1116625 59.8527709,99.4607113 C65.4987593,100.388751 71.2109181,101.864351 76.4466501,104.20182 C81.1215881,106.29115 85.655914,109.219189 88.8585608,113.275434 C87.1695616,112.383788 85.497105,111.465674 83.7733664,110.643507 C74.9991729,106.373863 65.6641853,103.320099 55.9205955,102.367246 C48.7675765,101.670802 41.528536,102.132341 34.5525227,103.882548 C29.1248966,105.204301 23.9983457,107.280397 19.0124069,109.778329 C19.325062,108.976013 19.7204301,108.205128 20.0810587,107.424318 C22.9925558,101.377998 26.17866,95.3664185 29.8842018,89.7650951 C32.127378,86.426799 34.4532672,83.3035567 37.535153,80.6832093 C37.0967742,80.630273 36.6633581,80.6170389 36.2249793,80.6848635 C34.7245658,80.8949545 33.2258065,81.3217535 31.7684036,81.7353184 C28.7047146,82.6385443 25.6972705,83.6674938 22.6931348,84.7510339 C22.2382134,84.9214227 21.783292,85.0851944 21.3151365,85.2142266 C22.0413565,83.9702233 22.8767577,82.7857734 23.7105045,81.611249 C29.0686518,74.2018197 35.7038875,67.4656741 43.3498759,62.4135649 C42.1141439,62.3639371 40.9214227,62.5310174 39.7055418,62.72622 C36.9048801,63.2241522 34.1439206,64.0082713 31.4325889,64.8585608 C28.1439206,65.9073615 24.9048801,67.0918114 21.6873449,68.3424318 C19.3134822,69.2506203 16.9859388,70.2746071 14.6286187,71.2191894 C15.7336642,69.3730356 17.2175352,67.7237386 18.63689,66.1124897 C22.4003309,62.0413565 26.592225,58.4780811 31.070306,55.2175352 C38.133995,50.08933 45.872622,45.7601323 53.7866005,42.0942928 C53.6526055,41.9735318 53.5235732,41.8560794 53.3515302,41.7915633 C52.0463193,41.2572374 50.688172,41.1596361 49.2985939,41.0322581 C45.8180314,40.8221671 42.3407775,41.0653433 38.8734491,41.3267163 C35.2307692,41.6426799 31.5947064,42.0661704 27.9751861,42.5955335 C28.8122415,41.063689 30.172043,39.7369727 31.4276261,38.5409429 C33.9818031,36.210091 36.8717949,34.1836228 39.8014888,32.3573201 C45.8014888,28.6153846 52.08933,25.6410256 58.5442514,22.7890819 C55.1100083,22.0744417 51.445823,22.1588089 47.9536807,22.0363937 C48.5310174,21.6856907 49.1894127,21.4590571 49.8114144,21.1811414 C55.4706369,18.8138958 61.3349876,16.8436725 67.3234078,15.5004136 C70.9710505,14.681555 74.6732837,14.1373036 78.4119107,13.9966915 C81.6426799,13.9321754 84.8635236,14.1753515 87.9685691,15.1199338 C87.7981803,14.54756 87.5566584,14.0297767 87.1861042,13.5616212 C86.2431762,12.3507031 84.8933002,11.4574028 83.5649297,10.72622 C81.2224979,9.45078577 78.6335815,8.53432589 76.0727874,7.80645161 C76.5194376,7.52522746 76.9958644,7.45244003 77.4954508,7.30851944 C80.3010753,6.54921423 83.1265509,6.30769231 86.0215054,6.23986766 Z" id="Shape" fill="#FEFEFE" fill-rule="nonzero"></path>
                <path d="M114.942928,24.1869313 C116.951199,24.6220017 118.946237,25.4061208 120.628619,26.598842 C122.93962,28.2349049 124.886683,30.5657568 126.954508,32.5177833 C131.695616,37.1050455 137.162945,40.5740281 142.990902,43.6079404 C145.194376,44.4681555 147.909016,43.9123242 149.870968,42.6732837 C150.453267,42.337469 150.926385,41.8693135 151.490488,41.5103391 C151.477254,42.5889165 151.00579,43.6856907 150.486352,44.6153846 C149.604632,46.1488834 148.223325,47.3730356 146.537634,47.9454094 C144.507858,48.6418528 142.324235,48.4185277 140.297767,47.8362283 C139.389578,49.3167907 138.372208,50.719603 137.176179,51.9801489 C135.422663,53.8064516 133.424318,55.2969396 130.851944,55.662531 C135.267163,57.6757651 139.376344,60.3804797 143.040529,63.5583127 C143.382961,63.8329198 143.677419,64.2001654 144.051282,64.426799 C144.506203,64.4516129 144.964433,64.4218362 145.421009,64.426799 C144.694789,64.9015715 143.917287,64.8320926 143.090157,64.7526882 C142.681555,64.6931348 142.229942,64.6534326 141.894127,64.3937138 C139.725393,62.8072787 137.419355,61.3995037 135.009098,60.2133995 C130.5244,58.0248139 125.589744,56.6451613 120.595533,56.4185277 C118.34574,56.2382134 116.049628,56.4301075 113.811414,56.681555 C108.840364,57.3548387 104.076096,58.9578164 99.624483,61.2506203 C95.8626964,63.1712159 92.3556658,65.5616212 89.1827957,68.3457403 C89.5847808,67.7055418 90.0529363,67.1430935 90.5227461,66.5343259 C93.0041356,63.3879239 95.7799835,60.5376344 99.0140612,58.1571547 C102.43507,55.6426799 106.306038,53.7617866 110.471464,52.8800662 C112.555831,52.4234905 114.708023,52.2564103 116.83871,52.2398677 C114.451613,49.8114144 113.402812,46.5310174 113.344913,43.1761787 C113.210918,39.1745244 114.335815,35.1298594 115.788255,31.4342432 C114.693135,30.5558313 113.287014,29.6211745 111.827957,29.6592225 C110.48139,29.6095947 109.2622,30.5359801 108.48139,31.5599669 C107.186104,33.2076096 106.638544,35.0322581 105.819686,36.8999173 C105.624483,35.9123242 105.470637,34.9214227 105.477254,33.9123242 C105.412738,32.0909843 105.647643,30.1588089 106.401985,28.4846981 C107.007444,27.1381307 108.003309,25.9867659 109.295285,25.2605459 C110.967742,24.306038 113.048801,24.0347395 114.942928,24.1869313 Z" id="Shape" fill="#6E3146" fill-rule="nonzero"></path>
                <path d="M119.884202,32.7526882 C121.419355,33.7733664 122.868486,34.9412738 124.362283,36.0231596 C123.751861,38.4549214 123.538462,41.0934657 124.216708,43.5334988 C124.906534,46.1323408 126.706369,48.5425972 129.114971,49.7783292 C128.80397,48.3937138 128.686518,47.019024 128.789082,45.6013234 C129.030604,46.299421 129.164599,46.9958644 129.525227,47.6492969 C130.062862,48.6980976 130.99421,49.5136476 132.175352,49.7220844 C132.908189,49.9040529 133.606286,49.7816377 134.337469,49.6757651 C131.822994,50.8370554 129.02895,51.9900744 126.220017,52.0512821 C124.526055,52.1042184 122.820513,51.6592225 121.559967,50.4846981 C120.350703,49.3961952 119.682382,47.866005 119.28536,46.3176179 C118.736146,44.0578991 118.712986,41.6807279 118.863524,39.3713813 C119.030604,37.1414392 119.37469,34.929694 119.884202,32.7526882 Z" id="Shape" fill="#FEFEFE" fill-rule="nonzero"></path>
                <path d="M183.500414,65.8544251 C183.975186,66 184.426799,66.1985112 184.876758,66.4069479 C186.866832,67.3217535 188.832093,68.344086 190.66005,69.5550041 C191.935484,70.4168734 193.239041,71.4160463 194.181969,72.6451613 C194.775848,73.4342432 195.245658,74.4284533 195.048801,75.4375517 C194.885029,76.4416873 194.067825,77.2340778 193.277089,77.8031431 C192.018197,78.6633581 190.522746,79.2506203 189.073615,79.7038875 C190.200165,78.8436725 191.194376,77.9636063 191.695616,76.5938792 C192.186931,75.3267163 191.928867,74.0215054 191.354839,72.8354012 C190.509512,71.1596361 189.081886,69.7799835 187.649297,68.6004963 C186.350703,67.573201 184.97105,66.6170389 183.500414,65.8544251 Z" id="Shape" fill="#FEFEFE" fill-rule="nonzero"></path>
                <path d="M121.746898,66.4069479 C121.133168,68.9214227 120.46981,71.356493 120.153846,73.9470637 C120.052936,74.8519438 119.940447,75.8643507 120.129032,76.7609595 C120.148883,76.9032258 120.224979,77.025641 120.355666,77.1282051 C121.1067,74.4946237 121.905707,71.8577337 122.913151,69.3085194 C123.288668,68.420182 123.66584,67.3879239 124.360629,66.7030604 C125.116625,66.8486352 125.877585,66.9511993 126.62531,67.1414392 C130.24483,67.9718776 133.622829,69.7353184 136.39206,72.2084367 C139.758478,75.2109181 142.367246,79.1480562 143.864351,83.401158 C144.200165,84.2266336 144.181969,85.1133168 144.531017,85.9321754 C145.189413,87.5550041 146.071133,89.1100083 146.933002,90.6319272 C142.797353,90.2266336 138.71464,90.3672457 134.732837,91.6443342 C134.428453,89.866005 134.243176,88.1472291 133.566584,86.4317618 C133.447477,86.1902399 133.417701,85.9503722 133.133168,85.8560794 C132.845327,87.9586435 132.491315,90.0545906 132.157155,92.1505376 C130.620347,92.3854425 129.086849,92.8767577 127.622829,93.3995037 C125.384615,94.2233251 123.200993,95.2059553 121.075269,96.2861869 C120.07775,96.7427626 119.148056,97.3416046 118.143921,97.7766749 C117.343259,95.6228288 117.179487,93.4226634 117.090157,91.1497105 C117.128205,88.7394541 117.37469,86.4135649 117.849462,84.0512821 C117.253929,85.3531844 116.795699,86.7212572 116.377171,88.0876758 C115.318445,91.6923077 114.742763,95.7320099 115.644334,99.4276261 C114.309347,100.405294 112.957816,101.359801 111.649297,102.377171 C110.956162,102.919768 110.25641,103.439206 109.644334,104.07775 C109.08354,103.450786 108.693135,102.666667 108.287841,101.935484 C106.886683,99.2340778 106.233251,96.1687345 106.497932,93.1298594 C106.808933,89.1497105 108.54756,85.2506203 110.997519,82.1290323 C119.794872,82.3573201 128.583954,83.1133168 137.308519,84.2531017 C136.363937,83.6393714 135.282051,83.2142266 134.239868,82.7923904 C130.736146,81.4441687 126.933002,80.6137304 123.242349,79.961952 C119.369727,79.3234078 115.460711,78.8304384 111.54177,78.6087676 C111.73201,76.2216708 112.097601,73.8478081 112.29115,71.4623656 C112.562448,69.7783292 113.459057,68.1968569 114.574028,66.9280397 C114.846981,66.6104218 115.325062,66.4946237 115.712159,66.3788255 C117.725393,65.8312655 119.727047,65.9867659 121.746898,66.4069479 Z" id="Shape" fill="#FEFEFE" fill-rule="nonzero"></path>
                <path d="M192.856907,82.3242349 C195.038875,85.9073615 196.148883,90.292804 195.149711,94.4383788 C194.382134,97.2406948 193.263854,100.287841 191.366419,102.531017 C190.160463,103.97684 188.512821,105.015715 186.602151,105.149711 C184.751034,105.27378 182.936311,104.590571 181.358147,103.675765 C179.401158,102.527709 177.650951,100.972705 176.135649,99.2952854 C175.789909,99.3151365 175.379653,99.9007444 175.057072,100.099256 C176.081059,98.8684864 176.947891,97.5368073 177.647643,96.0959471 C179.08354,93.1596361 179.945409,89.9205955 180.388751,86.6898263 C180.739454,86.6468156 181.070306,86.5723739 181.399504,86.4449959 C185.212572,85.0587262 189.052109,83.7336642 192.856907,82.3242349 Z" id="Shape" fill="#FEFEFE" fill-rule="nonzero"></path>
                <path d="M152.842018,98.8105873 C153.874276,99.6608768 154.949545,100.449959 156.094293,101.141439 C158.967742,102.891646 162.196857,104.158809 165.591398,104.271299 C168.241522,104.350703 170.813896,103.568238 173.02895,102.125724 C173.996691,103.487179 175.101737,104.752688 176.299421,105.917287 C178.26799,107.814723 180.770885,109.612903 183.467328,110.248139 C183.411084,110.602151 183.35153,110.954508 183.245658,111.29694 C182.160463,114.90488 180.577337,118.405294 178.782465,121.712159 C175.116625,128.430108 170.504549,134.461538 165.27378,140.033085 C163.644334,139.872622 161.892473,139.647643 160.360629,139.050455 C159.717122,138.779156 159.114971,138.522746 158.641853,137.990074 C159.83292,136.471464 160.708023,134.679901 161.581472,132.967742 C162.962779,130.226634 164.226634,127.401158 165.430935,124.575682 C167.002481,120.850289 168.492969,117.07196 169.746898,113.225806 C170.284533,111.526882 170.822167,109.788255 171.1067,108.026468 C171.179487,107.44086 171.272126,106.74938 171.086849,106.180314 C170.93962,105.875931 170.729529,105.880893 170.428453,105.920596 C170.231596,106.3689 170.158809,106.873449 170.006617,107.33995 C169.338296,109.520265 168.463193,111.655914 167.528536,113.736973 C165.44086,118.354012 163.004136,122.843672 160.496278,127.245658 C158.885029,130.038048 157.240695,132.813896 155.525227,135.543424 C153.369727,135.349876 151.234078,134.820513 149.237386,133.985112 C146.876758,132.97105 144.542597,131.439206 142.942928,129.404467 C143.478908,128.650124 143.947064,127.841191 144.400331,127.033912 C146.377171,123.411084 147.861042,119.432589 149.07196,115.492142 C150.731183,110.041356 151.953681,104.436725 152.842018,98.8105873 Z" id="Shape" fill="#FEFEFE" fill-rule="nonzero"></path>
            </g>
        </g>
    </g>
</svg>