<?xml version="1.0" encoding="UTF-8"?>
<svg width="200px" height="200px" viewBox="0 0 200 200" version="1.1" xmlns="http://www.w3.org/2000/svg" xmlns:xlink="http://www.w3.org/1999/xlink">
    <!-- Generator: Sketch 54.1 (76490) - https://sketchapp.com -->
    <title>medgar-evers</title>
    <desc>Created with Sketch.</desc>
    <defs>
        <polygon id="path-1" points="8.91883085e-05 0.325438596 157.195078 0.325438596 157.195078 199.122775 8.91883085e-05 199.122775"></polygon>
    </defs>
    <g id="medgar-evers" stroke="none" stroke-width="1" fill="none" fill-rule="evenodd">
        <g id="medgar-evers_BGL">
            <g id="Group-24" transform="translate(21.000000, 0.000000)">
                <g id="Group-3" transform="translate(0.000000, 0.551754)">
                    <mask id="mask-2" fill="white">
                        <use xlink:href="#path-1"></use>
                    </mask>
                    <g id="Clip-2"></g>
                    <path d="M130.48114,71.5374561 C130.48114,71.5374561 138.178373,74.2541228 140.892462,74.2541228 C143.610062,74.2541228 147.686462,72.8944737 147.686462,72.8944737 C147.686462,72.8944737 159.909518,38.500614 143.610062,18.1383333 C127.310607,-2.22307018 94.7064289,-5.39324561 68.4415622,9.9927193 C42.1775733,25.3786842 28.1383956,43.027807 18.6294289,57.9620175 C16.3665178,62.9400877 14.1009733,67.0128947 14.1009733,67.0128947 L3.23320667,68.8242982 L2.78027333,76.0620175 L8.21459556,81.0427193 C8.21459556,81.0427193 -0.84056,105.480439 0.0635511111,124.484825 C0.969417778,143.490088 7.30960667,172.452368 39.9137844,190.100614 C72.5170844,207.751491 126.856796,199.605877 157.195429,164.760263 L157.195429,147.109386 L149.953762,144.396228 C149.953762,144.396228 130.026451,165.212018 117.347829,168.378684 C104.666573,171.547105 88.8209289,172.000614 78.8563956,167.473421 C68.8936178,162.949737 71.6112178,162.949737 71.6112178,162.949737 L70.2532956,152.541842 L71.6112178,151.18307 L75.68674,157.066404 L81.5731178,162.949737 L81.5731178,165.666404 L87.4630067,163.404123 L92.44264,162.497982 C92.44264,162.497982 98.3298956,159.327807 99.2331289,155.709386 C100.138996,152.087456 99.2331289,147.56114 100.138996,144.847105 C101.04574,142.133947 106.932996,136.247105 107.385051,134.439211 C107.838862,132.630439 105.120384,129.010263 105.120384,129.010263 L102.857473,128.104123 C102.857473,128.104123 100.138996,128.104123 98.3298956,128.555877 C96.5181622,129.010263 93.8005622,131.726053 93.8005622,131.726053 L83.3848511,121.318158 C83.3848511,121.318158 86.0998178,115.888333 91.5358956,113.172544 C96.9719733,110.455877 103.309529,109.550614 103.309529,109.550614 C103.309529,109.550614 106.932996,107.288333 109.651473,110.004123 C112.365562,112.718158 116.441962,114.075175 116.441962,114.075175 L117.802518,115.885702 L112.820251,120.863772 L110.554707,126.747982 C110.554707,126.747982 112.365562,129.46114 114.631984,129.46114 L123.233329,129.46114 C123.233329,129.46114 123.68714,128.104123 129.123218,125.388333 C134.554029,122.674298 146.329418,113.624298 146.329418,113.624298 L152.21404,107.740088 C152.21404,107.740088 146.782351,96.877807 140.892462,90.0918421 C135.006962,83.305 130.026451,76.9672807 130.026451,76.9672807 L130.48114,71.5374561 Z M118.251062,60.6786842 L114.179051,58.4164035 C114.179051,58.4164035 103.309529,54.7953509 97.4213956,54.7953509 C91.5358956,54.7953509 72.96914,53.8892105 72.96914,53.8892105 L68.4415622,48.0085088 L71.6112178,43.9330702 C71.6112178,43.9330702 86.1033289,26.2874561 93.3485067,21.7602632 C100.590173,17.2357018 109.651473,17.6874561 115.081407,24.927807 C120.516607,32.1655263 115.081407,54.3409649 115.081407,54.3409649 L118.251062,60.6786842 Z" id="Fill-1" fill="#231F20" mask="url(#mask-2)"></path>
                </g>
                <path d="M10.8179089,74.0111404 L23.8713422,86.2664035 L34.6855644,80.3383333 L35.7388978,80.6023684 L36.3998644,80.9979825 C36.3998644,80.9979825 39.5642533,79.5462281 41.5418867,78.6251754 C43.5186422,77.7041228 48.6615422,77.305 51.2992644,75.8585088 C53.9369867,74.4102632 56.4421644,72.4330702 56.4421644,72.4330702 L54.0686533,70.3234211 L54.0686533,69.532193 L55.5187422,68.7427193 L60.3983089,71.2479825 L55.91462,66.5014912 L58.8156756,63.8646491 L57.1013756,61.4944737 L59.0790089,59.7804386 C59.0790089,59.7804386 63.1685756,62.0225439 65.4095422,62.4181579 C67.6505089,62.8111404 77.2770978,65.4479825 79.1230644,65.8418421 C80.9707867,66.2374561 86.2435978,68.4760526 87.5637756,69.927807 C88.8821978,71.3769298 90.4639533,72.5620175 90.4639533,72.5620175 L91.6498311,71.2479825 L91.7788644,69.532193 C91.7788644,69.532193 90.20062,67.4225439 89.2754422,66.8971053 C88.3564089,66.3699123 86.9036867,64.7883333 86.9036867,64.7883333 C86.9036867,64.7883333 88.0860533,63.2076316 89.6686867,63.8646491 C91.25132,64.5251754 92.5714978,65.7128947 93.4957978,65.8418421 C94.4157089,65.9734211 95.7358867,66.105 95.7358867,66.105 C95.7358867,66.105 100.350364,70.1918421 101.403698,74.6707895 C102.460542,79.1532456 102.725631,82.0488596 104.304753,83.7646491 C105.89002,85.477807 109.978709,85.7418421 109.978709,85.7418421 C109.978709,85.7418421 111.558709,86.527807 112.609409,86.6628947 C113.666253,86.7979825 114.986431,86.2699123 117.093976,87.1900877 C119.205031,88.1120175 120.259242,88.1120175 120.654242,89.4295614 C121.050998,90.7488596 121.842753,92.7234211 121.842753,92.7234211 L122.36942,92.1979825 C122.36942,92.1979825 121.711087,89.0357018 120.522576,87.7181579 C119.334064,86.3988596 118.546698,86.2664035 118.546698,86.2664035 C118.546698,86.2664035 115.906342,86.3988596 113.533709,85.7418421 C111.161076,85.082193 110.237653,84.6883333 109.312476,83.7646491 C108.388176,82.8409649 105.096509,77.9681579 104.304753,75.7269298 C103.51212,73.4857018 102.191942,70.8497368 102.191942,70.8497368 L100.348609,68.082193 L101.137731,66.7655263 C101.137731,66.7655263 103.908876,67.8207895 105.096509,67.8207895 L107.204931,67.8207895 L106.148087,65.9734211 L105.489753,64.5251754 L106.544842,63.732193 C106.544842,63.732193 110.765198,65.3164035 113.79792,68.2146491 C116.829764,71.1155263 119.334064,73.0900877 119.465731,75.8585088 C119.598276,78.6251754 119.862487,80.7348246 119.862487,80.7348246 C119.862487,80.7348246 121.711087,81.3918421 121.711087,79.5462281 C121.711087,77.7041228 122.500209,76.5164035 122.500209,76.5164035 L123.026876,76.2523684 C123.026876,76.2523684 123.951176,77.4374561 123.951176,79.9427193 C123.951176,82.4471053 124.082842,85.082193 124.082842,85.082193 C124.082842,85.082193 129.225742,87.982193 131.864342,90.8804386 C134.500309,93.7795614 138.457331,98.5199123 138.98312,99.050614 C139.508031,99.577807 140.961631,101.552368 139.77312,102.212018 C138.589876,102.872544 136.743909,101.291842 136.743909,101.291842 L133.708553,100.235702 C133.708553,100.235702 131.864342,101.951491 132.916798,103.269035 C133.972764,104.585702 135.55452,105.506754 135.55452,105.506754 L136.743909,107.879561 C136.743909,107.879561 137.136276,106.562895 138.325664,106.955877 C139.508031,107.351491 140.168998,108.935702 140.168998,108.935702 L138.19312,111.567281 C138.19312,111.567281 139.249964,112.362018 140.564876,112.097105 C141.885053,111.831316 143.468564,109.859386 144.258564,109.197105 C145.05032,108.537456 145.839442,107.219912 145.839442,107.219912 C145.839442,107.219912 137.533031,94.4365789 133.443464,89.8251754 C129.355653,85.2137719 126.05872,81.5234211 126.05872,81.5234211 C126.05872,81.5234211 128.700831,79.4146491 126.851353,76.7804386 C125.00802,74.1453509 121.838364,72.6962281 119.465731,70.9839474 C117.093976,69.2681579 113.401164,65.9760526 112.347831,64.6558772 C111.29362,63.3392105 108.258264,62.1541228 105.096509,61.4944737 C101.927731,60.8339474 89.5343867,61.6260526 88.0842978,61.6260526 L77.1384089,61.6260526 C76.2158644,61.6260526 72.5239311,60.8339474 72.5239311,60.8339474 C72.5239311,60.8339474 65.9335756,54.7760526 61.7140978,53.4567544 C57.49462,52.1392105 51.6925089,51.2155263 51.6925089,51.2155263 L49.7148756,51.2155263 L47.0771533,52.9313158 C47.0771533,52.9313158 49.7148756,56.0935965 50.3732089,60.1769298 C51.0332978,64.2628947 50.9016311,66.6365789 50.9016311,66.6365789 C50.9016311,66.6365789 49.7148756,66.2400877 49.0556644,66.2400877 C48.3964533,66.2400877 46.5504867,65.7128947 45.3628533,66.3725439 C44.1769756,67.0295614 42.9910978,67.0295614 42.9910978,67.0295614 L41.6717978,66.7655263 L40.6167089,65.7128947 L39.2974089,66.3725439 C39.2974089,66.3725439 34.5521422,69.927807 32.0452089,71.3769298 C29.5400311,72.8286842 23.0804644,75.3330702 20.3110756,75.3330702 C17.5416867,75.3330702 10.8179089,74.0111404 10.8179089,74.0111404" id="Fill-4" fill="#F4BD17"></path>
                <path d="M35.0480867,45.5297368 C35.0480867,45.5297368 37.57872,48.0586842 39.9153644,49.0297368 C42.2511311,50.0042982 49.0644422,49.8113158 52.9582644,50.0042982 C56.8512089,50.1964035 60.7459089,50.1964035 60.7459089,50.1964035 C60.7459089,50.1964035 67.9471978,37.5560526 74.3725311,30.7455263 C80.7969867,23.935 95.9799089,9.53675439 109.218553,14.207807 C122.459831,18.8779825 123.430653,34.2481579 123.430653,38.9148246 C123.430653,43.585 120.897387,54.285 120.897387,54.285 C120.897387,54.285 126.739876,61.8718421 131.605398,64.012193 C136.473553,66.1534211 141.727931,67.707807 143.28862,65.762193 C144.843164,63.8174561 147.179809,51.1683333 146.402976,42.0271053 C145.623509,32.8832456 141.146842,16.1534211 118.369387,8.3727193 C95.5936867,0.591140351 56.4623533,17.9069298 35.0480867,45.5297368" id="Fill-6" fill="#F4BD17"></path>
                <path d="M19.0864878,71.7915789 C19.0864878,71.7915789 28.43131,53.5038596 34.2720433,46.8915789 C35.6352322,49.2249123 37.5812656,50.587193 40.1118989,51.9494737 C42.6416544,53.3091228 47.3149433,56.2284211 47.3149433,56.2284211 C47.3149433,56.2284211 45.7568878,57.7854386 45.9517544,58.9521053 C46.1474989,60.1187719 48.2883989,62.2591228 48.2883989,62.2591228 L45.7577656,64.4003509 L43.0322656,64.9836842 L41.8639433,64.5933333 L37.9709989,64.5933333 C37.9709989,64.5933333 36.4138211,65.1766667 36.2180767,65.76 C36.0240878,66.3433333 32.9088544,69.8459649 30.1842322,70.6240351 C27.4587322,71.4029825 24.1486322,71.9836842 19.0864878,71.7915789" id="Fill-8" fill="#F4BD17"></path>
                <path d="M14.99894,81.9032456 C14.99894,81.9032456 16.5561178,84.0444737 16.5561178,85.0155263 C16.5561178,85.9900877 17.3338289,96.8830702 20.2550733,105.638333 C23.17544,114.391842 32.3253956,131.902368 33.6885844,134.821667 C35.0508956,137.739211 41.8633289,152.327807 44.0051067,156.997982 C46.1477622,161.666404 48.8732622,171.197982 49.26124,177.229561 C49.6518511,183.26114 49.6518511,188.709386 49.6518511,188.709386 C49.6518511,188.709386 38.35924,185.206754 29.7947622,176.643596 C21.2285289,168.083947 14.8031956,161.664649 10.9102511,149.017281 C7.01730667,136.374298 6.43358444,121.202368 7.79589556,110.501491 C9.15908444,99.7997368 13.6366289,83.2681579 14.99894,81.9032456" id="Fill-10" fill="#F4BD17"></path>
                <path d="M52.3769122,188.12114 C52.3769122,188.12114 54.9075456,187.147456 56.4647233,184.813246 C58.0227789,182.479912 59.5799567,180.143947 60.1636789,179.951842 C60.7474011,179.756228 62.4994456,178.782544 62.4994456,178.782544 L63.0840456,179.563246 C63.0840456,179.563246 65.80779,175.477281 66.3932678,173.724649 C66.97699,171.974649 67.5607122,168.279035 67.5607122,168.279035 C67.5607122,168.279035 78.8524456,176.448333 92.2842011,177.615 C105.71859,178.782544 121.288612,177.422895 132.577712,168.666754 C143.872079,159.914123 151.07249,151.546579 151.07249,151.546579 L151.65709,162.247456 C151.65709,162.247456 129.075379,185.011491 105.128723,189.873772 C81.1847011,194.736053 62.1079567,193.764123 50.2325011,188.899211 C51.3999456,188.704474 52.3769122,188.12114 52.3769122,188.12114" id="Fill-12" fill="#F4BD17"></path>
                <path d="M58.9920211,102.325877 C58.9920211,102.325877 57.8228211,107.967105 57.8228211,112.248684 C57.8228211,116.527632 58.9911433,121.582018 59.9654767,123.530263 C60.9389322,125.475 62.3021211,127.032895 62.3021211,127.032895 L62.3021211,130.145175 C62.3021211,130.145175 57.8228211,122.753947 56.0725322,119.251316 C54.3213656,115.748684 54.1256211,110.498684 55.48881,107.188158 C56.8519989,103.880263 58.9920211,102.325877 58.9920211,102.325877" id="Fill-14" fill="#F4BD17"></path>
                <path d="M84.2987933,84.2315789 C84.2987933,84.2315789 75.7343156,89.4868421 72.4250933,93.5701754 C69.1149933,97.6561404 65.6117822,103.101754 65.4160378,109.328947 C64.44346,106.021053 64.83056,98.0447368 68.72526,93.1824561 C72.61996,88.3175439 80.2101044,84.6192982 84.2987933,84.2315789" id="Fill-16" fill="#F4BD17"></path>
                <path d="M51.0101244,94.9326316 C51.0101244,94.9326316 53.3458911,84.234386 60.9395467,79.3694737 C58.2131689,84.0396491 51.0101244,94.9326316 51.0101244,94.9326316" id="Fill-18" fill="#F4BD17"></path>
                <path d="M84.1038389,103.297719 C84.1038389,103.297719 87.9994167,99.2108772 92.6727056,97.4608772 C97.3424833,95.7108772 100.654339,95.3205263 103.765183,96.4898246 C98.7047944,96.8784211 93.6435278,98.0477193 91.3095167,99.6021053 C88.9719944,101.156491 84.1038389,103.297719 84.1038389,103.297719" id="Fill-20" fill="#F4BD17"></path>
                <path d="M111.468386,74.1537719 C111.468386,74.1537719 110.078863,75.4046491 110.633619,77.6248246 C111.191008,79.845 113.27573,81.7879825 113.27573,81.7879825 L115.49563,82.3441228 L116.749097,82.3441228 C116.749097,82.3441228 114.52393,79.9871053 114.52393,79.0134211 C114.52393,78.0388596 113.55223,73.5967544 111.468386,74.1537719" id="Fill-22" fill="#FEFEFE"></path>
            </g>
        </g>
    </g>
</svg>