<?xml version="1.0" encoding="UTF-8"?>
<svg width="200px" height="200px" viewBox="0 0 200 200" version="1.1" xmlns="http://www.w3.org/2000/svg" xmlns:xlink="http://www.w3.org/1999/xlink">
    <!-- Generator: Sketch 54.1 (76490) - https://sketchapp.com -->
    <title>methodist</title>
    <desc>Created with Sketch.</desc>
    <g id="methodist" stroke="none" stroke-width="1" fill="none" fill-rule="evenodd">
        <g id="methodist_BGL" transform="translate(-0.000000, 0.000000)">
            <g id="methodist" transform="translate(0.000000, -3.000000)">
                <g id="g10" transform="translate(99.999998, 102.996259) scale(-1, 1) rotate(-180.000000) translate(-99.999998, -102.996259) translate(0.000000, 0.000007)" fill-rule="nonzero">
                    <g id="g12">
                        <path d="M184.45243,7.29664401 C184.744565,7.3033706 188.045688,12.9804491 188.045688,12.9804491 C188.045688,12.9871907 188.045688,12.9871907 188.045688,12.9871907 C188.045688,13.5047937 183.805239,22.1415725 183.805239,22.1415725 C183.805239,22.1415725 183.870407,58.9018712 183.870407,60.6103356 C184.958048,59.9889124 188.73183,57.8396989 188.73183,57.8396989 L188.73183,80.0524325 C188.73183,80.0524325 172.223217,80.0524325 150.541569,80.0524325 C148.838948,80.6479381 147.155802,81.4958781 146.482393,82.1947545 C146.508611,83.7745297 147.343067,85.1865147 147.343067,85.1865147 C144.494378,86.8172263 142.345315,89.5498105 142.494378,93.3243422 C142.494378,93.3430688 142.481644,93.356552 142.481644,93.3820201 C142.481644,94.0359527 142.97303,95.9587991 143.329584,97.370035 C143.867412,99.5393234 144.449435,101.895129 144.689135,104.164791 C147.556551,104.95805 150.806738,106.553555 153.26067,109.124342 C155.844191,111.823967 157.184266,115.14157 157.184266,118.783518 C157.184266,119.184267 157.170783,119.582769 157.138573,119.990259 C156.898872,123.062169 155.901869,125.704117 154.95655,127.937825 C158.290633,122.641944 167.730333,123.62921 174.353554,124.755802 C174.353554,124.755802 171.821719,126.823967 171.905614,130.686139 C171.905614,131.391008 172.074153,132.259173 172.656925,133.200746 C174.101119,135.544566 174.657674,137.894379 174.657674,139.843442 C174.657674,140.756551 174.353554,142.202993 174.353554,142.202993 C174.217224,142.850184 172.851681,148.541569 167.426213,149.52509 C167.115352,149.593255 158.032206,151.347562 149.091382,147.696626 C144.928835,145.990259 140.56479,143.756551 136.82921,138.998498 C135.088386,136.797 134.311607,134.265914 134.143068,131.841195 C132.828461,132.465914 129.190259,133.945315 123.441195,134.625465 C121.738574,136.223967 117.919098,139.409734 112.881645,141.477899 C112.913855,141.539322 113.328836,142.271157 113.328836,142.271157 C113.328836,142.271157 114.448686,147.906363 114.73333,149.382768 C124.127338,159.686887 124.788012,165.302618 124.788012,165.302618 L122.689885,170.870408 C122.689885,170.870408 121.084641,172.663666 120.22996,173.635202 C120.152057,174.589509 119.86142,175.755052 119.084641,177.023966 C119.180521,177.70037 119.34981,178.373778 119.34981,179.053179 C119.34981,182.248685 118.229211,185.398497 116.196252,188.123591 C117.633705,190.48389 123.42172,200.554302 123.42172,200.554302 C123.42172,200.554302 112.836701,200.650931 111.328087,200.660669 L107.670409,203.308609 L103.449436,202.046437 C101.940821,203.046437 97.5063646,205.988759 97.5063646,205.988759 C97.5063646,205.988759 91.6666644,202.952804 90.0411963,202.10786 L86.3962525,202.965538 L81.0037433,200.188759 C79.7348295,200.152804 69.9069645,199.861418 69.9069645,199.861418 C69.9069645,199.861418 71.4155787,192.917598 71.9396986,190.982018 C66.8966275,188.495875 63.8214216,184.877149 62.5526576,183.174527 C59.7299611,181.869658 52.5307103,177.664415 49.2936317,168.099621 C40.8385758,159.793254 40.63116,149.256925 40.7800739,146.427712 C28.2271154,136.088386 22.9181268,122.201495 21.3128834,114.992506 C20.8336324,114.491383 20.4453178,113.982769 20.1863665,113.458424 C19.8624714,112.788012 19.5906362,111.862169 19.5906362,110.66142 C19.5906362,109.874904 19.7720594,108.913106 20.0825463,107.874904 C19.5646437,106.719098 19.4288385,105.874155 19.4288385,105.291383 C19.4288385,104.860672 19.4999246,104.569286 19.5453179,104.404492 C19.9528834,102.665915 21.1575276,101.135578 22.1480144,100.076402 C22.1865912,98.8659151 22.4002242,97.5707841 23.1577522,96.5677878 C23.4752803,96.146065 24.2521342,95.2666643 26.8609731,94.2374508 C27.3270405,93.4471887 27.981048,92.4951288 28.8225461,91.7640426 C30.3247932,90.4756532 33.0889879,89.2584247 36.3585759,89.7116082 C38.3781264,89.9902599 41.1817967,91.1228442 43.570336,94.3273385 C44.1210476,94.6254658 45.6940813,95.1752785 47.4356542,94.7033684 C47.4356542,94.7033684 51.5464407,97.7970013 53.4696616,103.740821 C56.3567776,100.604492 59.2960285,98.4449414 61.6526576,97.0202223 C60.5975266,96.1273384 59.4710097,95.0524321 58.4477139,93.8614209 C57.2310847,93.2524321 55.1334069,91.9910089 54.00689,90.2037431 C53.8447927,89.944567 52.8414968,88.1385746 52.4399987,85.5483125 C51.1581261,84.7715335 49.9344557,83.9490616 48.7500362,83.1146047 L27.1328083,83.1146047 L25.6115349,79.7992489 L24.206741,83.1146047 L0,83.1146047 L8.33857657,72.432133 C8.33857657,72.432133 8.24142301,53.0682384 8.24142301,53.0418713 C8.14456908,53.1009725 4.06571525,47.8045681 4.06571525,47.8045681 L8.33213462,41.6608229 L8.24142301,28.8096622 C8.24142301,25.126666 9.87333309,21.8697373 12.8447188,19.6231456 C15.369288,17.7264415 18.425243,16.768464 21.921198,16.768464 L67.7638934,16.7550558 C67.7577511,16.7363292 67.7577511,16.7161045 67.7577511,16.696479 C67.7577511,16.1467412 69.1947548,13.2914603 69.2208222,13.2464416 C69.0136312,13.2982019 65.5176014,7.14770769 65.5176014,7.14770769 L69.6418709,0.227059919 L189.003741,0 C189.003741,0 184.498123,7.23139308 184.45243,7.29664401" id="path14" fill="#FBBF16"></path>
                        <path d="M84.6352039,88.6367019 C84.6352039,88.6367019 85.9887619,91.7183498 86.9468143,93.3820201 C86.9468143,93.3820201 89.3228442,92.7153535 90.4749041,92.7153535 C90.4749041,92.7153535 87.7887619,90.3655408 86.979024,87.2059903 C86.6359529,85.9243424 86.7205971,84.778275 87.0112338,83.7228443 C86.0988743,83.800747 85.1857657,83.871908 84.2471889,83.9430691 C84.6936308,85.1730316 84.9655409,86.7011214 84.6352039,88.6367019 L84.6352039,88.6367019 Z M104.698874,85.6524323 C106.167788,87.943818 110.985016,87.9183499 113.522844,90.9992487 C113.522844,90.9992487 115.555802,88.0546794 119.2779,85.743069 C124.936326,82.259923 127.888386,79.6441928 128.38127,76.5101104 C121.692881,78.1677883 114.02172,79.7872639 105.385016,81.2232189 L106.660671,82.7902601 C105.041945,83.2958781 103.773031,84.2149792 104.698874,85.6524323 L104.698874,85.6524323 Z M185.074153,64.1327325 L185.074153,76.4194737 L146.404491,76.4194737 C146.942318,77.2681629 147.376026,77.8771516 147.376026,77.8771516 C147.376026,77.8771516 144.773779,78.7250917 143.258423,80.3498107 C142.734079,81.4052414 142.585015,82.7325822 143.399996,84.2666646 C143.399996,84.2666646 139.270409,86.3767769 138.849435,93.1161025 C138.687637,95.6674133 141.503367,102.537076 141.122094,106.971533 C144.987262,107.091383 154.199247,110.832956 153.500371,119.737825 C152.762543,129.064416 143.420221,134.926588 156.290633,136.946064 C156.290633,136.946064 153.591007,125.376776 169.038198,127.397001 C169.038198,127.397001 167.005239,130.880147 169.504116,134.926588 C171.814977,138.665165 170.773029,141.529584 170.773029,141.529584 C170.773029,141.529584 169.918348,145.585764 166.726588,146.165539 C166.726588,146.165539 158.510857,147.809734 150.554303,144.556551 C146.475652,142.889135 142.850184,140.901869 139.762543,136.962543 C137.211982,133.70936 137.269659,129.235952 138.641944,126.458424 C141.54906,120.611982 141.180521,118.379023 139.373779,116.776027 C139.373779,116.776027 138.130334,123.658424 132.835203,128.614229 C132.835203,128.614229 128.918349,130.750559 121.706364,131.379023 C121.706364,131.379023 115.678649,137.81348 107.748312,139.545315 L109.819473,143.388011 L111.347563,150.982019 C111.347563,150.982019 119.634454,159.129584 121.006739,165.0764 L119.453181,169.14831 L116.540072,172.423966 C116.540072,172.423966 117.063667,174.149059 115.316102,176.166288 C116.558799,180.74007 114.746814,184.945314 111.807488,187.809733 L117.18127,197.181268 L110.240447,197.248684 L106.983518,199.657673 L102.671908,198.369283 L97.2666642,201.952055 L90.591758,198.485388 L86.8561776,199.352804 L81.9033687,196.77977 L74.5423951,196.565538 L76.2254663,189.014227 C68.7353541,186.511606 65.0254665,180.480894 65.0254665,180.480894 C65.0254665,180.480894 55.625317,177.195501 52.4078639,166.144565 C47.2155793,162.166288 40.9421713,150.930333 46.6651674,135.567038 C41.4793997,130.899622 38.721647,127.031457 38.721647,127.031457 C38.5595496,131.21348 39.6734822,134.567038 39.6734822,134.567038 C35.6399242,129.951308 32.5710853,119.343068 32.5710853,119.343068 C33.153707,131.21348 38.4366283,139.289884 38.4366283,139.289884 C28.7318345,129.983517 25.2232203,116.456177 24.6857672,113.348312 C24.1614226,112.924342 23.7149058,112.474154 23.5074151,112.033705 C23.1641942,111.318349 23.0088384,109.868162 23.9799994,107.586514 C23.9799994,107.586514 22.9374526,105.832207 23.1124339,105.158799 C23.5334826,103.375278 25.8444188,101.397001 25.8444188,101.397001 C25.8444188,101.397001 25.5790256,99.2868889 26.1361791,98.5355781 C26.5244937,98.017226 28.0717596,97.3835182 29.4958794,96.9295856 C29.4958794,96.9295856 30.2858419,95.1558029 31.2956546,94.2951287 C32.9596996,92.8644172 37.7308605,91.5827692 41.1364784,96.9558028 C41.1364784,96.9558028 42.9617218,98.263668 46.0244183,98.1790238 C46.0244183,98.1790238 49.1450175,100.940821 50.186965,105.443443 C50.186965,105.443443 51.5142309,107.278649 54.2590998,108.272656 C60.2802981,100.49363 67.5248672,97.9265893 67.5248672,97.9265893 L66.8966275,96.6194732 C66.8966275,96.6194732 63.0898861,94.1078628 60.8175266,91.1550539 C60.8175266,91.1550539 58.1179761,90.0089865 57.1468151,88.4554285 C57.1468151,88.4554285 55.9164031,86.4352038 55.9164031,83.6322076 C51.721347,81.0816459 48.4582759,78.44644 46.2184258,76.4194737 L40.9875645,76.4194737 C41.9259166,77.6247172 43.3634446,79.4696609 43.3634446,79.4696609 L29.4894375,79.4696609 C29.4894375,79.4696609 26.3237447,72.5549795 25.6244188,71.0083128 C24.9057672,72.5549795 21.7594002,79.4696609 21.7594002,79.4696609 L7.48420206,79.4696609 C7.48420206,79.4696609 11.6792506,74.0891367 11.8735578,73.8298858 C11.8735578,73.493706 11.8735578,52.2975268 11.8735578,51.967789 L8.58464398,47.6951299 L11.8735578,42.929512 L11.8735578,28.8096622 C11.8735578,26.2719095 12.9740072,24.1034451 15.0523592,22.5304114 C16.9168535,21.1183515 19.2345314,20.4067411 21.921198,20.4067411 C21.921198,20.4067411 21.921198,20.4067411 21.921198,20.3999995 L69.6871893,20.3999995 L73.2543053,13.3692881 L69.6286874,6.97916836 L71.7781255,3.63208231 L182.432954,3.63208231 L180.341569,7.00462155 L184.057673,13.3692881 L180.225464,21.1768534 C180.225464,27.2038945 180.225464,66.0817212 180.225464,66.9033691 L185.074153,64.1327325 L185.074153,64.1327325 Z" id="path16" fill="#024D36"></path>
                        <path d="M38.0483137,97.3962522 C38.0483137,97.3962522 36.1382013,96.7093609 35.4974523,97.7453159 C34.6298868,97.4022448 33.496928,97.2149788 32.3575273,97.2149788 C32.1374524,95.1558029 37.064044,95.5505594 38.0483137,97.3962522" id="path18" fill="#FFFFFF"></path>
                        <path d="M35.79528,118.22996 C33.0050179,117.439697 36.7014972,113.186514 37.9316095,113.041196 C37.2390253,113.898874 36.3131826,117.543068 39.8870402,117.223218 C39.8870402,117.223218 38.5855421,119.022469 35.79528,118.22996" id="path20" fill="#FFFFFF"></path>
                        <path d="M33.0176022,103.620971 C33.0176022,103.620971 30.6744562,103.918349 30.357003,105.38202 C29.1915349,105.531084 27.8903364,105.912357 26.7441941,106.459922 C26.6734076,106.316851 26.5955799,106.168537 26.5244937,106.009735 C25.2101117,102.756552 31.8202988,102.834454 33.0176022,103.620971" id="path22" fill="#FFFFFF"></path>
                        <path d="M35.1799242,100.2382 C35.1799242,100.2382 32.7007482,99.9984994 32.1500366,101.410484 C31.1662914,101.176776 29.9423213,101.135578 28.7579019,101.277151 C28.4728832,98.7558028 34.0794748,99.041196 35.1799242,100.2382" id="path24" fill="#FFFFFF"></path>
                        <path d="M29.5347558,110.629211 C28.5053925,110.752057 27.637827,111.08539 27.0163289,111.364042 C26.9385012,111.289885 26.8349057,111.211982 26.7573776,111.121346 C24.6986511,109.026964 30.4608232,107.388761 31.7877895,107.667413 C30.9588756,107.922844 29.2047184,109.289136 29.5347558,110.629211" id="path26" fill="#FFFFFF"></path>
                        <path d="M27.773857,113.496626 C27.773857,113.496626 28.9972277,115.125091 32.2085385,115.908611 C32.2085385,115.908611 32.2539318,114.286889 33.580898,113.296626 L32.5517595,112.302619 C32.5517595,112.302619 29.7614974,111.817226 27.773857,113.496626" id="path28" fill="#FBBF16"></path>
                        <path d="M46.8399239,112.749061 C43.7839689,110.752057 38.8251676,109.774529 38.8251676,109.774529 C38.8251676,109.774529 37.5819466,107.152806 38.1519092,103.449436 C38.1519092,103.449436 40.5989503,101.61423 43.6484633,102.15805 C43.6484633,102.15805 45.4804483,103.964042 46.7816468,108.450934 C46.7816468,108.450934 43.7259914,105.666664 40.7218716,104.142319 C40.7218716,104.142319 45.0985757,109.279398 46.8399239,112.749061" id="path30" fill="#FBBF16"></path>
                        <path d="M33.1211977,113.713855 C32.2407483,114.68539 32.2085385,115.908611 32.2085385,115.908611 C28.9972277,115.125091 27.773857,113.496626 27.773857,113.496626 C28.1624712,113.170035 28.5700367,112.946814 28.9846435,112.76554 C30.5255423,113.46142 32.0853925,113.674904 33.1211977,113.713855" id="path32" fill="#FFFFFF"></path>
                        <path d="M105.553555,191.328085 C105.974529,191.224714 106.388012,191.104864 106.809735,190.958797 C107.702619,190.849433 108.608986,190.739321 109.540821,190.632205 L105.553555,191.328085" id="path34" fill="#024D36"></path>
                        <path d="M109.528836,190.020969 L112.959548,195.322842 L102.788761,194.16404 C100.44569,195.873403 99.2674132,196.695126 96.9363272,198.30786 C93.3558029,196.513853 91.5498104,195.58801 87.9183499,193.694377 L78.2134812,194.934827 L79.9940055,189.24419 C94.0292111,194.157299 105.462919,191.594003 109.528836,190.020969" id="path36" fill="#FBBF16"></path>
                        <polyline id="path38" fill="#FFFFFF" points="97.0142298 197.54007 102.219473 191.761793 112.959548 195.322842 102.788761 194.16404 97.0846418 198.971531 87.9183499 193.694377 78.2134812 194.934827 88.0344547 191.260669 97.0142298 197.54007"></polyline>
                        <path d="M115.943817,168.714603 L114.170035,170.663666 L111.690634,170.925838 L111.969286,172.916101 L110.266664,173.288385 L110.615728,175.023217 L109.359548,175.389509 C111.211982,179.516849 109.922844,183.378273 107.507862,184.967786 C107.507862,184.967786 108.654679,183.624715 106.867413,180.6367 C106.867413,180.6367 103.494379,185.122842 99.2928814,188.328085 C87.943818,190.071905 77.8247172,186.032954 73.1182753,181.368535 C73.1182753,181.368535 85.1535559,188.573778 98.5483121,181.280894 C98.5483121,181.280894 94.3984995,182.206737 88.3647918,181.681643 C84.0981252,184.86067 76.0052415,180.432205 79.5857658,175.179022 C79.5730317,178.904864 84.6157282,181.173778 86.7850166,178.503366 C84.7198481,178.814228 81.7677882,176.842692 82.5573013,173.657674 C79.928837,170.362543 80.5573014,165.662168 80.5573014,165.662168 C80.5573014,165.662168 82.8097358,168.131831 85.5415709,168.817973 L83.7677882,162.690633 C86.8689117,157.633704 92.3528067,153.833704 92.3528067,153.833704 L89.9310839,151.966288 C96.534829,149.519097 93.3108591,143.555802 97.816477,143.426963 L104.504866,143.905614 L104.970784,145.404491 C104.970784,145.404491 102.077151,144.411232 102.251683,147.233704 C102.420222,150.0367 106.809735,147.414978 106.809735,147.414978 L107.191758,149.558049 C107.191758,149.558049 104.938574,151.198498 99.7715331,149.444191 C99.7715331,149.444191 99.5393234,149.602993 99.2082372,149.891382 C98.0561773,150.845689 95.3370763,153.370783 93.5048666,157.28464 L95.5190987,156.841195 L94.5602973,162.107861 L98.3408215,164.347561 L96.087638,165.904865 L101.591009,168.999247 C101.591009,168.999247 100.44569,169.999996 98.8786492,170.79625 C98.8786492,170.79625 96.7295856,169.446438 95.6996231,169.177524 C89.8471888,167.960295 91.2584247,173.459921 91.2584247,173.459921 C89.3033686,174.395501 86.8112338,173.978273 86.8112338,173.978273 C92.1580501,176.686887 97.0846418,175.949808 97.0846418,175.949808 C98.6719076,175.059172 100.44569,173.185014 100.44569,173.185014 C100.44569,173.185014 104.329585,171.019471 106.446439,169.14831 L99.9984994,165.607486 L102.296627,163.868161 L99.1438177,162.06891 C99.9400724,160.696625 102.399997,160.567037 102.399997,160.567037 L110.078649,162.20449 C110.078649,162.20449 108.790259,162.965539 109.883892,163.765539 C110.537825,164.247187 106.719098,166.921344 106.719098,166.921344 L108.972282,168.310108 C114.092881,167.423217 115.943817,168.714603 115.943817,168.714603" id="path40" fill="#FBBF16"></path>
                        <path d="M97.3573009,139.264416 C97.5902597,136.512356 96.7415706,132.265914 91.0838929,127.688386 C82.2014961,120.492132 78.2389494,116.856926 77.3910093,109.496626 C77.3910093,109.496626 80.1355785,111.399997 83.6059904,112.422469 C83.6059904,112.422469 76.2906348,104.439698 71.5062903,94.5670388 C71.5062903,94.5670388 67.2852418,93.0322074 65.0775265,90.4689116 C65.0775265,90.4689116 67.2267399,91.1168517 69.0785751,91.1168517 C69.0785751,91.1168517 69.8101106,90.8187243 70.4895113,90.1580502 C70.4895113,90.1580502 72.7296611,91.0838929 74.5683876,91.1168517 C74.5683876,91.1168517 75.6299607,90.7535558 76.3880131,90.1580502 C76.3880131,90.1580502 78.1812715,91.2719078 79.7925074,91.0127318 C79.7925074,91.0127318 80.5310841,90.7280876 80.9131066,90.0868891 C80.9131066,90.0868891 89.2449416,103.672657 94.9228441,110.593256 L94.2494358,113.199248 L98.3220949,115.468162 C98.3220949,115.468162 96.4119826,120.777525 99.7460649,125.42921 C102.161046,128.785765 102.671908,134.078648 100.716851,138.140821 C99.6808964,138.082394 98.5161024,139.270409 97.3573009,139.264416" id="path42" fill="#FBBF16"></path>
                        <path d="M112.104866,109.651683 C111.256926,98.2898852 123.738574,83.9947545 136.803742,84.4614211 C134.116851,86.5715334 133.223967,89.3295858 133.178274,91.2456906 C133.146064,93.1161025 134.323592,97.55805 134.323592,97.55805 C138.713854,119.065166 128.782019,125.247188 128.782019,125.247188 C127.234454,126.480896 120.799997,124.859173 116.552806,128.779023 C111.302619,133.611982 106.92584,133.5573 106.92584,133.5573 C106.92584,133.5573 107.896627,130.151308 103.294379,123.545315 C100.264417,119.194005 103.623967,114.468162 103.623967,114.468162 L99.4486867,111.959548 L99.9790237,109.689885 C96.3280875,104.614979 93.2456906,99.7273383 93.2456906,99.7273383 C94.3984995,97.8749039 96.9558028,96.6771511 96.9558028,96.6771511 C106.206739,96.6584245 110.764791,98.910859 110.764791,98.910859 C109.074904,104.757301 112.104866,109.651683 112.104866,109.651683" id="path44" fill="#FBBF16"></path>
                        <path d="M163.528835,143.598498 C163.528835,143.598498 151.93333,144.449435 144.494378,137.635952 C135.340821,129.248686 151.648685,123.81348 141.92509,113.646439 C141.92509,113.646439 144.773779,111.55805 147.298124,113.937076 C152.289884,118.647188 146.715352,128.399997 146.715352,128.399997 C146.715352,128.399997 144.429959,133.761045 148.087637,136.564042 C151.881644,139.448686 159.203741,140.762543 164.234453,139.872656 C164.234453,139.872656 161.754303,138.61348 161.424715,137.687637 C160.569284,135.26966 160.278648,131.640446 164.979022,130.562544 C164.979022,130.562544 164.007487,132.226214 166.170033,135.985015 C168.681644,140.367787 166.545314,143.689135 163.528835,143.598498" id="path46" fill="#FBBF16"></path>
                        <path d="M132.938573,120.016476 C131.041195,123.835952 128.782019,125.247188 128.782019,125.247188 C127.234454,126.480896 120.799997,124.859173 116.552806,128.779023 C111.302619,133.611982 106.92584,133.5573 106.92584,133.5573 C106.92584,133.5573 107.625465,130.569285 104.465915,125.376776 C110.092132,128.882394 111.379772,127.921345 115.600746,123.531832 C119.407488,119.573031 125.694379,128.737075 132.938573,120.016476" id="path48" fill="#FFFFFF"></path>
                        <path d="M163.528835,143.598498 C163.528835,143.598498 151.93333,144.449435 144.494378,137.635952 C140.83745,134.275652 141.250933,131.391008 142.435951,128.487637 C142.235202,130.174529 142.119098,136.350558 149.719097,139.529585 C158.290633,143.112356 165.801494,142.329584 167.205988,140.455427 C166.888385,142.420221 165.379771,143.659922 163.528835,143.598498" id="path50" fill="#FFFFFF"></path>
                        <path d="M147.298124,113.937076 C149.732581,116.235952 149.647936,119.731832 148.929584,122.716102 C148.152805,113.804492 141.92509,113.646439 141.92509,113.646439 C141.92509,113.646439 144.773779,111.55805 147.298124,113.937076" id="path52" fill="#FFFFFF"></path>
                        <path d="M88.0793985,110.800746 C86.5325821,105.912357 80.6022452,96.0232186 76.3880131,90.1580502 C78.3295861,90.8441925 79.9161029,90.6307093 79.9161029,90.6307093 C79.9161029,90.6307093 80.5700354,90.131833 80.8681628,89.7632936 C80.8681628,89.7632936 89.2449416,103.672657 94.9228441,110.593256 L94.2494358,113.199248 L88.0793985,110.800746" id="path54" fill="#FFFFFF"></path>
                        <path d="M109.851683,154.759547 L109.152806,153.095876 L108.505615,152.638947 L108.376027,151.946064 C105.015728,153.267412 100.807488,151.913854 100.807488,151.913854 C100.807488,151.913854 99.6359526,152.497374 98.9498103,153.849434 L100.807488,154.080146 L100.800747,153.261419 L104.523593,154.947562 L104.252432,153.364041 L105.540821,153.985764 L105.715353,153.42921 L106.95805,153.94082 L107.094379,153.42921 L109.851683,154.759547" id="path56" fill="#FFFFFF"></path>
                        <path d="M131.235952,85.095129 C130.769285,87.6209716 128.588012,92.2494359 126.296626,93.5048666 C114.332581,100.063668 112.104866,109.651683 112.104866,109.651683 C111.211982,98.9887616 121.512357,87.6981251 131.235952,85.095129" id="path58" fill="#FFFFFF"></path>
                        <path d="M79.2554287,83.3670391 L79.8838931,83.8396983 L80.7513088,86.4808967 C79.6052415,88.202994 77.0801479,87.2322076 77.0801479,87.2322076 L76.1999981,83.8591739 C77.2097359,83.7355784 78.2262153,83.5670391 79.2554287,83.3670391" id="path60" fill="#FFFFFF"></path>
                        <path d="M73.6622453,84.11835 L74.7820206,87.5812712 C73.1700356,88.8179753 71.1501855,87.5812712 71.1501855,87.5812712 L70.1983503,84.2666646 C71.3185001,84.247938 72.4774514,84.2082376 73.6622453,84.11835" id="path62" fill="#FFFFFF"></path>
                        <path d="M67.7317586,84.247938 L68.7807473,87.5423199 C67.2074141,88.7730315 65.1937062,87.5423199 65.1937062,87.5423199 L64.0285377,84.0329567 C65.181122,84.1370765 66.4305601,84.2149792 67.7317586,84.247938" id="path64" fill="#FFFFFF"></path>
                        <path d="M61.2061408,83.7228443 L62.5784254,87.296627 C62.5784254,87.296627 61.057152,88.2801476 58.9530322,86.519848 L58.4998487,83.8651664 L58.89483,83.3670391 C59.5809723,83.4898856 60.3578262,83.6059904 61.2061408,83.7228443" id="path66" fill="#FFFFFF"></path>
                        <path d="M116.720596,166.607486 L117.524342,165.047187 L115.74981,163.577524 L116.435952,162.690633 L114.448686,161.359547 L112.90187,162.136326 C112.90187,162.136326 114.299623,162.816475 113.64569,163.577524 C112.868911,164.49288 116.720596,166.607486 116.720596,166.607486" id="path68" fill="#FBBF16"></path>
                        <path d="M98.8786492,170.79625 C96.1011212,169.223217 93.5310838,169.714602 93.5310838,169.714602 C93.5310838,169.714602 91.4142299,170.686138 91.2584247,173.459921 L91.2584247,173.459921 L91.2584247,173.459921 C91.2584247,173.459921 89.873406,170.857674 92.6052411,167.737074 C97.6224695,167.75655 98.8786492,170.79625 98.8786492,170.79625" id="path70" fill="#FFFFFF"></path>
                        <path d="M113.931083,158.82846 L113.678649,159.748311 C113.678649,159.748311 110.447188,160.663666 103.818724,158.737824 L105.760297,158.096625 L105.566289,156.598498 L108.059173,158.382019 L108.285391,157.673404 L109.865166,158.718348 L110.285391,157.919097 L111.807488,158.524341 L111.360297,156.976775 L113.931083,158.82846" id="path72" fill="#FFFFFF"></path>
                        <path d="M76.0898857,180.352055 C76.0898857,180.352055 64.7149797,178.448685 59.6263656,169.485389 C59.6263656,169.485389 66.1197736,175.62846 74.8662903,176.545314 C74.8662903,176.545314 74.684867,178.687636 76.0898857,180.352055" id="path74" fill="#FFFFFF"></path>
                        <path d="M97.2666642,139.260671 C97.3827691,138.312356 97.3573009,137.260671 97.0726567,136.179023 C99.0599226,135.5573 103.002994,133.229959 100.399997,126.471158 C102.756552,129.996251 104.011982,135.259922 102.011982,138.901869 C102.011982,138.901869 99.1438177,139.121345 97.2666642,139.260671" id="path76" fill="#FFFFFF"></path>
                        <path d="M79.5857658,175.179022 C78.8546797,176.920595 79.5595486,179.979022 82.1820204,181.358048 C84.2277133,182.42022 85.871908,182.396999 88.3647918,181.681643 C88.3647918,181.681643 84.7393237,184.608235 80.9003725,182.002243 C76.64644,179.121344 79.5857658,175.179022 79.5857658,175.179022" id="path78" fill="#FFFFFF"></path>
                        <path d="M46.755879,125.772281 C45.8429951,125.668162 45.1114595,125.480896 45.007864,125.418723 C45.007864,125.418723 41.8097368,123.680896 39.0194747,121.239697 C45.5450925,120.456926 43.1560289,116.089885 46.2898116,117.559548 C46.2898116,117.559548 47.3385007,118.132581 48.7821711,118.379023 C47.681422,120.74157 47.0924333,123.473405 46.755879,125.772281" id="path80" fill="#FBBF16"></path>
                        <path d="M75.0344551,178.253928 C75.0344551,178.253928 65.4658411,176.483142 59.6263656,169.485389 C59.6263656,169.485389 66.1780508,175.573778 74.8662903,176.545314 C74.8662903,176.545314 74.827339,177.723591 75.0344551,178.253928" id="path82" fill="#FBBF16"></path>
                        <path d="M99.9984994,165.607486 L102.296627,163.868161 L99.1438177,162.06891 C99.1438177,162.06891 99.7138552,160.560296 102.122095,160.155801 L110.078649,162.20449 L104.057675,162.690633 L106.181271,164.49288 L99.9984994,165.607486" id="path84" fill="#FFFFFF"></path>
                        <path d="M100.445721,173.185014 C100.445721,173.185014 100.4779,175.955801 97.5970013,177.82022 C97.5970013,177.82022 90.8179753,178.075651 86.8112338,173.978273 C92.1580501,176.686887 97.0846418,175.949808 97.0846418,175.949808 C98.6719076,175.059172 100.445721,173.185014 100.445721,173.185014 L100.445721,173.185014" id="path86" fill="#FFFFFF"></path>
                        <path d="M107.507862,184.967786 C107.507862,184.967786 107.760297,183.501119 107.003743,181.99625 C105.909361,183.734827 103.623967,186.408235 99.2928814,188.328085 C81.7026197,190.832954 73.1182753,181.368535 73.1182753,181.368535 C83.6644174,188.558048 95.0067392,186.871156 95.0067392,186.871156 C95.0067392,186.871156 104.465915,184.534078 109.359548,175.389509 C111.043443,178.917599 110.240447,183.167786 107.507862,184.967786" id="path88" fill="#FFFFFF"></path>
                        <path d="M46.4580513,128.435952 C44.3799989,126.73333 41.738351,124.337825 39.0194747,121.239697 C39.0194747,121.239697 40.4049428,121.084641 41.4987256,120.644192 C41.4987256,120.644192 43.913557,122.525091 47.2155793,123.217974 C46.7945307,125.18951 46.5745307,127.041195 46.4580513,128.435952" id="path90" fill="#FFFFFF"></path>
                        <path d="M85.5415709,168.817973 C83.7093612,166.125089 83.5737807,162.548311 83.5737807,162.548311 C86.2149791,157.103367 92.4307093,153.769285 92.4307093,153.769285 C92.4307093,153.769285 85.1984997,159.867412 85.5415709,168.817973" id="path92" fill="#FFFFFF"></path>
                        <path d="M99.7715331,149.444191 L100.891383,147.356551 L94.9940051,145.890633 C94.9940051,145.890633 95.4599227,143.388011 97.816477,143.426963 L104.355054,143.135577 L104.970784,145.404491 C103.760297,146.242693 102.413481,147.084641 102.413481,147.084641 C104.892881,147.696626 106.809735,147.414978 106.809735,147.414978 L107.191758,149.558049 C107.191758,149.558049 104.938574,151.198498 99.7715331,149.444191" id="path94" fill="#FFFFFF"></path>
                        <path d="M95.6479826,181.695127 C95.417316,181.70046 95.2786493,181.70046 95.2786493,181.70046 C95.417316,181.70046 95.521316,181.695127 95.6479826,181.695127" id="path96" fill="#FFFFFF"></path>
                        <path d="M110.615728,175.023217 L107.482394,172.835202 L110.033705,171.498123 L108.972282,168.310108 C114.066664,167.399996 115.943817,168.714603 115.943817,168.714603 L114.170035,170.663666 L111.690634,170.925838 L111.969286,172.916101 L110.266664,173.288385" id="path98" fill="#FFFFFF"></path>
                        <path d="M97.3573009,173.071906 C96.7415706,173.080895 96.5161025,172.475651 97.0846418,172.262168 C97.0846418,172.262168 96.087638,171.573029 95.3827692,172.155052 C94.91011,172.528086 95.039698,173.411232 95.6674133,173.725089 C95.6674133,173.725089 95.310859,174.035951 94.8651662,174.046438 C94.3273385,173.79625 94.0554284,173.229958 94.0816456,172.492131 C94.0816456,172.492131 93.6666643,172.761044 93.6082374,173.311606 C93.3558029,172.447187 93.7123572,171.773778 94.3984995,171.414228 C95.5056156,170.827711 97.1760275,171.310857 98.3086118,172.310857 C97.8816455,172.46891 97.1498103,172.70861 97.3573009,173.071906" id="path100" fill="#FFFFFF"></path>
                        <polyline id="path102" fill="#FFFFFF" points="58.5062907 25.2492878 58.5062907 44.4636693 59.5485378 45.8104857 52.8610474 45.8104857 53.9161784 44.4636693 53.9161784 25.2492878 52.8479388 23.8764039 59.5742307 23.8764039 58.5062907 25.2492878"></polyline>
                        <polyline id="path104" fill="#FFFFFF" points="138.266663 25.2492878 138.266663 44.4636693 139.30936 45.8104857 132.62172 45.8104857 133.66966 44.4636693 133.66966 25.2492878 132.608236 23.8764039 139.34157 23.8764039 138.266663 25.2492878"></polyline>
                        <polyline id="path106" fill="#FFFFFF" points="45.2928828 45.8494371 45.2928828 32.2861415 37.3036695 45.8494371 32.6164786 45.8494371 33.6716096 44.4899614 33.6716096 25.2492878 32.5971527 23.8764039 37.7826208 23.8764039 37.7826208 37.5626208 45.7780513 23.8764039 49.3972272 23.8764039 49.4232946 44.4899614 50.4851673 45.8494371 45.2928828 45.8494371"></polyline>
                        <path d="M115.419473,23.8764039 L110.092132,33.0246434 C110.092132,33.0246434 114.208986,34.4036696 114.208986,39.5889129 C114.208986,46.4577516 108.285391,45.8494371 104.219473,45.8494371 L98.4898852,45.8494371 L99.5782747,44.4636693 L99.5782747,25.2492878 L98.4898852,23.8764039 L104.135578,23.8764039 L104.135578,43.4928079 L106.705615,43.4928079 C108.376027,43.4928079 110.092132,42.3340813 110.092132,39.648014 C110.092132,35.9895871 107.567039,34.4943812 104.970784,34.4943812 L110.25393,25.2358046 L109.223967,23.8764039 L115.419473,23.8764039" id="path108" fill="#FFFFFF"></path>
                        <polyline id="path110" fill="#FFFFFF" points="80.3947545 45.862321 81.4569268 44.4771524 81.4569268 25.2492878 80.3947545 23.8764039 96.2172261 23.8764039 96.2172261 27.2433701 95.1430688 26.6215724 86.0344548 26.6215724 86.0344548 33.9436696 94.1910089 33.9436696 95.5767766 36.6046433 86.0344548 36.6046433 86.0344548 43.0980514 95.1430688 43.0980514 96.2172261 42.4897368 96.2172261 45.862321 80.3947545 45.862321"></polyline>
                        <polyline id="path112" fill="#FFFFFF" points="140.849435 45.8104857 140.849435 42.4637443 141.911607 43.0788004 146.870408 43.0788004 146.870408 25.2299619 145.808985 23.8764039 152.405989 23.8764039 151.331082 25.2358046 151.331082 43.0788004 156.277899 43.0788004 157.352056 42.4637443 157.352056 45.8104857 140.849435 45.8104857"></polyline>
                        <path d="M31.0755797,45.8104857 L25.7411979,45.8104857 L25.7411979,28.8360292 C25.7411979,27.890636 25.4432952,27.1655424 24.8928833,26.6470405 C24.3229207,26.1294375 23.5913852,25.8839694 22.6981268,25.8839694 C20.6522092,25.8839694 19.6491381,26.9062915 19.6491381,28.9656173 L19.6491381,45.8104857 L14.3788011,45.8104857 L15.408464,44.4771524 L15.408464,28.913857 C15.408464,27.2240443 16.1013479,25.8704862 17.486816,24.8343814 C18.8717598,23.773108 20.5943066,23.255505 22.6981268,23.255505 C24.6403739,23.255505 26.3430705,23.7663664 27.7867409,24.7700368 C29.2500367,25.761048 29.9683888,27.2038945 29.9683888,29.1207483 L29.9683888,44.4636693 L31.0755797,45.8104857" id="path114" fill="#FFFFFF"></path>
                        <polyline id="path116" fill="#FFFFFF" points="72.9239682 45.8494371 74.1347547 44.2892873 69.9847923 28.9393251 65.8543804 44.3474895 67.0716088 45.8494371 61.0832194 45.8494371 67.6088373 23.8764039 72.2893615 23.8764039 78.8734063 45.8494371 72.9239682 45.8494371"></polyline>
                        <polyline id="path118" fill="#FFFFFF" points="176.658423 45.8494371 170.70861 45.8494371 171.919097 44.2892873 167.769284 36.0996246 163.664415 44.3474895 164.842693 45.8494371 158.874153 45.8494371 165.483891 33.1864411 165.483891 25.2492878 164.408985 23.8764039 170.067411 23.8764039 170.067411 33.3026209 176.658423 45.8494371"></polyline>
                        <path d="M128.931083,33.0960291 C128.892132,33.12734 121.900371,39.1227706 121.809735,39.1938567 C120.858424,40.0231451 119.841196,41.7834446 121.304117,43.1624708 C121.932581,43.7520588 123.123592,44.0113098 124.250184,44.0113098 C126.950559,44.0113098 128.516851,42.929512 129.714603,41.8741563 L129.714603,46.3737816 C129.714603,46.3737816 128.678648,45.648688 128.516851,45.5325082 C127.992506,45.7197741 125.946813,46.355055 123.816476,46.355055 C116.720596,46.355055 116.170784,42.0877143 116.170784,40.4368529 C116.170784,39.0194747 116.753555,37.9377519 117.406739,37.2261414 C117.439697,37.1871901 124.456926,31.1917595 124.528836,31.1077895 C125.499622,30.3054674 126.503368,28.525018 125.040446,27.1526585 C124.411982,26.5701117 123.318349,26.2397746 122.159548,26.2397746 C119.465915,26.2330331 117.912357,27.3211978 116.720596,28.3698869 L116.720596,23.8764039 C116.720596,23.8764039 117.763293,24.6023215 117.912357,24.7182016 C118.436701,24.5236698 120.495128,23.8892878 122.605989,23.8892878 C129.714603,23.8892878 130.24569,28.1624712 130.24569,29.8194749 C130.24569,31.3152801 129.604491,32.4800741 128.931083,33.0960291" id="path120" fill="#FFFFFF"></path>
                        <path d="M106.524342,70.5676387 C104.996252,70.5676387 103.818724,69.7521331 102.996252,68.1009721 C102.17378,66.4501107 101.759548,63.9249422 101.759548,61.0247176 C101.759548,58.0337064 102.180522,55.4441934 103.041945,53.8447927 C103.876402,52.2456916 105.074155,51.4434444 106.640447,51.4434444 C108.116851,51.4434444 109.282394,52.2591747 110.137076,53.9032945 C111.003743,55.5287627 111.432207,58.098051 111.432207,61.0247176 C111.432207,64.0156538 110.991758,66.5543055 110.124342,68.1656912 C109.256177,69.7647174 108.059173,70.5676387 106.524342,70.5676387 L106.524342,70.5676387 Z M106.582769,48.872583 C103.701121,48.872583 101.370784,49.9482385 99.5513084,52.1161036 C97.7325818,54.2787252 96.8456905,57.2510098 96.8456905,61.0247176 C96.8456905,64.5985752 97.6868889,67.5184253 99.4029938,69.7910844 C101.11835,72.0502604 103.507863,73.1964027 106.582769,73.1964027 C109.567788,73.1964027 111.930334,72.0628446 113.704117,69.8036687 C115.465166,67.5310095 116.352057,64.6119834 116.352057,61.0247176 C116.352057,57.2179012 115.406739,54.2398488 113.555802,52.0838938 C111.690634,49.9347553 109.359548,48.872583 106.582769,48.872583 L106.582769,48.872583 Z" id="path122" fill="#FFFFFF"></path>
                        <polyline id="path124" fill="#FFFFFF" points="36.0474897 74.8405225 37.3876395 76.5430692 31.3605985 76.5430692 25.6244188 63.9767774 19.8882392 76.5430692 13.8544566 76.5430692 15.188464 74.8405225 15.188464 50.9708601 13.8544566 49.248613 20.3414976 49.248613 20.3546062 65.6477886 25.6244188 55.3145305 30.8813475 65.6477886 30.8942314 49.248613 37.3876395 49.248613 36.0474897 50.9708601 36.0474897 74.8405225"></polyline>
                        <polyline id="path126" fill="#FFFFFF" points="94.1011212 50.7183508 94.1011212 71.3444926 95.2202223 72.7887622 89.2906345 72.7887622 89.2906345 62.3979011 82.8554286 62.3979011 82.8554286 72.7887622 76.9250917 72.7887622 78.0449419 71.337751 78.0449419 50.7250924 76.8861404 49.248613 82.8554286 49.248613 82.8554286 59.5490622 89.2906345 59.5490622 89.2906345 49.248613 95.2464396 49.248613 94.1011212 50.7183508"></polyline>
                        <polyline id="path128" fill="#FFFFFF" points="38.9998492 72.8074888 40.1653173 71.3310844 40.1653173 50.7303358 38.9998492 49.248613 55.9617964 49.248613 55.9617964 52.8540811 54.8159537 52.1948302 45.0661412 52.1948302 45.0661412 60.040373 53.7994743 60.040373 55.275654 62.8958786 45.0661412 62.8958786 45.0661412 69.855429 54.8159537 69.855429 55.9617964 69.2014964 55.9617964 72.8074888 38.9998492 72.8074888"></polyline>
                        <polyline id="path130" fill="#FFFFFF" points="164.467412 72.7686124 164.467412 69.1692867 165.620221 69.8299608 170.90861 69.8299608 170.90861 50.7116092 169.78876 49.248613 175.70037 49.248613 175.70037 69.8299608 181.002243 69.8299608 182.154303 69.1692867 182.154303 72.7686124 164.467412 72.7686124"></polyline>
                        <polyline id="path132" fill="#FFFFFF" points="57.5801484 72.7686124 57.5801484 69.1692867 58.7394742 69.8299608 64.0417212 69.8299608 64.0417212 50.7116092 62.8958786 49.248613 69.9587248 49.248613 68.832208 50.7183508 68.832208 69.8299608 74.1218708 69.8299608 75.2741554 69.1692867 75.2741554 72.7686124 57.5801484 72.7686124"></polyline>
                        <polyline id="path134" fill="#FFFFFF" points="144.197 50.7250924 144.197 71.3185001 145.330333 72.7557285 138.150558 72.7557285 139.283143 71.3185001 139.283143 50.7250924 138.143817 49.248613 145.343068 49.248613 144.197 50.7250924"></polyline>
                        <path d="M129.474903,53.850935 C128.529585,52.4531822 126.782019,51.7731822 124.697375,51.7731822 L124.049435,51.7731822 L124.056177,70.269811 L124.742319,70.269811 C126.814229,70.269811 128.529585,69.596178 129.474903,68.2045676 C130.400746,66.786665 131.028461,64.2620209 131.028461,61.0247176 C131.028461,57.7873394 130.400746,55.275654 129.474903,53.850935 L129.474903,53.850935 Z M136.08539,61.0577513 C136.071907,64.8059909 135.13333,67.7062904 133.262169,69.7325825 C132.892881,70.1272642 132.588761,70.4248672 132.290633,70.6390245 C130.471907,72.1348297 128.095877,72.8008222 125.131083,72.8008222 L125.131083,72.7887622 L118.002993,72.7887622 L119.155053,71.3056162 L119.155053,71.3056162 L119.142319,71.3185001 L119.142319,50.7303358 L117.990259,49.248613 L125.131083,49.248613 L125.131083,49.248613 C128.095877,49.248613 130.471907,49.9212722 132.290633,51.417377 C132.588761,51.6315343 132.892881,51.9220961 133.262169,52.3235942 C135.13333,54.3436691 136.071907,57.2442682 136.08539,60.9983505 C136.08539,60.9983505 136.08539,61.0442681 136.08539,61.0577513 L136.08539,61.0577513 L136.08539,61.0577513 Z" id="path136" fill="#FFFFFF"></path>
                        <path d="M161.456925,58.8495116 C161.411232,58.8951296 153.914603,65.3101856 153.811232,65.3947549 C152.794753,66.2749047 151.706363,68.1724328 153.286888,69.6351293 C153.94082,70.2823952 155.215726,70.5483128 156.452431,70.5483128 C159.346812,70.5541555 161.002992,69.3896612 162.279397,68.2756537 L162.279397,73.0860656 C162.279397,73.0860656 161.172281,72.3092117 161.002992,72.1991742 C160.440445,72.3805974 158.245689,73.0667397 155.985764,73.0667397 C148.372281,73.0667397 147.790258,68.4960283 147.790258,66.7219459 C147.790258,65.207489 148.417974,64.0420209 149.104865,63.277152 C149.137075,63.2387999 156.646438,56.816478 156.737075,56.7392495 C157.779771,55.8585005 158.853929,53.968538 157.287637,52.4921335 C156.614228,51.8703358 155.422468,51.5086879 154.199247,51.5086879 C151.305614,51.5019463 149.647936,52.6734818 148.372281,53.8125829 L148.372281,48.9829201 C148.372281,48.9829201 149.466663,49.7603733 149.647936,49.8636692 C150.198498,49.6690624 152.405989,49.002246 154.665914,49.002246 C162.279397,49.002246 162.861419,53.579699 162.861419,55.3408975 C162.861419,56.9586503 162.15655,58.2089873 161.456925,58.8495116" id="path138" fill="#FFFFFF"></path>
                        <path d="M88.6172262,147.473405 C88.0861401,133.25318 77.5722827,128.785765 77.5722827,128.785765 C87.3220952,138.305615 84.5250915,153.649434 84.5250915,153.649434 C69.6997735,146.094378 60.934006,122.680896 71.1627698,109.017226 C71.1627698,109.017226 70.2437436,118.478649 86.1700353,130.197 C97.5190987,138.561045 88.6172262,147.473405 88.6172262,147.473405" id="path140" fill="#FBBF16"></path>
                        <path d="M84.5250915,153.649434 C65.5501107,147.883891 61.4322831,117.640446 71.1627698,109.017226 C59.4710097,132.631457 82.0329568,147.042693 84.5250915,153.649434" id="path142" fill="#FFFFFF"></path>
                        <path d="M78.8734063,173.229958 C68.3017211,171.728086 45.3961786,161.770782 51.7992496,141.044191 C51.7731822,155.378273 65.2197737,164.217973 76.8666647,166.635951 C76.4846423,170.58876 78.8734063,173.229958 78.8734063,173.229958" id="path144" fill="#FBBF16"></path>
                        <path d="M78.8734063,173.229958 C72.1471143,173.091381 60.6232195,169.414228 54.4988001,161.583517 C47.1570775,152.199247 51.7992496,141.044191 51.7992496,141.044191 C47.5260662,167.45243 75.4943801,168.640445 78.8734063,173.229958" id="path146" fill="#FFFFFF"></path>
                        <path d="M82.4217208,157.799247 C78.8217209,160.045689 78.634455,164.221719 78.634455,164.221719 C53.7219462,158.598498 41.0650926,121.402244 68.1528073,102.4779 C52.9190249,126.778274 64.6825452,150.26067 82.4217208,157.799247" id="path148" fill="#FBBF16"></path>
                        <path d="M78.634455,164.221719 C50.1287628,157.993254 43.1109353,119.194005 68.1528073,102.4779 C54.2137814,114.319098 52.9190249,131.320596 56.7839686,142.209734 C63.4459909,159.537075 77.3587996,159.083891 78.634455,164.221719" id="path150" fill="#FFFFFF"></path>
                        <polyline id="path152" fill="#FBBF16" points="152.00524 7.27703353 152.00524 19.7656175 152.691382 20.6457673 148.346813 20.6457673 149.020221 19.7656175 149.020221 7.27703353 148.33333 6.38343055 152.703367 6.38343055 152.00524 7.27703353"></polyline>
                        <polyline id="path154" fill="#FBBF16" points="115.704866 20.665992 112.020971 20.665992 112.733331 19.7714602 112.733331 7.28376761 112.020971 6.38343055 122.800746 6.38343055 122.800746 8.57153537 122.107862 8.1706365 115.704866 8.1706365 115.704866 20.665992"></polyline>
                        <polyline id="path156" fill="#FBBF16" points="109.373031 7.27030693 109.373031 19.7849433 110.046439 20.665992 106.459922 20.665992 106.459922 14.3594753 102.549061 14.3594753 102.549061 20.665992 98.9498103 20.665992 99.6359526 19.7714602 99.6359526 7.28376761 98.9370762 6.38343055 102.549061 6.38343055 102.549061 12.6246439 106.459922 12.6246439 106.459922 6.38343055 110.059173 6.38343055 109.373031 7.27030693"></polyline>
                        <polyline id="path158" fill="#FBBF16" points="124.367038 20.665992 125.065914 19.7714602 125.065914 7.28376761 124.367038 6.38343055 134.654678 6.38343055 134.654678 8.57153537 133.955053 8.1706365 128.050184 8.1706365 128.050184 12.9295128 133.340072 12.9295128 134.232955 14.6576775 128.050184 14.6576775 128.050184 18.8787261 133.955053 18.8787261 134.654678 18.4773029 134.654678 20.665992 124.367038 20.665992"></polyline>
                        <polyline id="path160" fill="#FBBF16" points="86.7265896 20.6457673 86.7265896 18.464419 87.425466 18.8653179 90.650185 18.8653179 90.650185 7.27030693 89.9513086 6.38343055 94.2367018 6.38343055 93.5438179 7.27703353 93.5438179 18.8653179 96.7617953 18.8653179 97.4606717 18.464419 97.4606717 20.6457673 86.7265896 20.6457673"></polyline>
                        <polyline id="path162" fill="#FBBF16" points="136.130334 20.6457673 136.130334 18.464419 136.82921 18.8653179 140.040446 18.8653179 140.040446 7.27030693 139.354304 6.38343055 143.640446 6.38343055 142.94082 7.27703353 142.94082 18.8653179 146.165539 18.8653179 146.864416 18.464419 146.864416 20.6457673 136.130334 20.6457673"></polyline>
                        <path d="M80.2007471,10.9805241 L81.9161028,17.3701119 L83.6449417,10.9805241 L80.2007471,10.9805241 Z M87.6981251,6.38343055 L83.4576758,20.665992 L80.3820205,20.665992 L76.1483127,6.38343055 L80.0322077,6.38343055 L79.1715336,7.27703353 L79.7348295,9.25767767 L84.1116084,9.25767767 L84.6614211,7.27703353 L83.8134811,6.38343055 L87.6981251,6.38343055 L87.6981251,6.38343055 Z" id="path164" fill="#FBBF16"></path>
                        <path d="M161.547562,19.3191006 C163.483142,19.3191006 164.946063,17.6360295 164.946063,17.6360295 L164.946063,20.1146811 C164.946063,20.1146811 163.594003,20.8725088 161.307861,20.8725088 C159.514603,20.8725088 158.07715,20.452359 156.976775,19.525992 C156.795502,19.3835201 156.601494,19.2149808 156.381269,18.9565538 C155.248685,17.700449 154.678648,15.9003741 154.665914,13.5632955 L154.665914,13.5632955 C154.665914,13.5571532 154.665914,13.5250184 154.665914,13.5250184 C154.678648,11.1940821 155.248685,9.38726568 156.381269,8.13116085 C156.601494,7.88539306 156.795502,7.70426947 156.976775,7.56262153 C158.07715,6.63593991 159.514603,6.22249423 161.307861,6.22249423 C163.594003,6.22249423 164.946063,6.97916836 164.946063,6.97916836 L164.946063,9.45250913 C164.946063,9.45250913 163.483142,7.76921329 161.547562,7.76921329 C160.291382,7.76921329 159.242693,8.20988744 158.679397,9.07715333 C158.109359,9.96404469 157.734078,11.5303368 157.734078,13.543745 C157.734078,15.5573779 158.109359,17.1237449 158.679397,18.0111606 C159.242693,18.8854677 160.291382,19.3191006 161.547562,19.3191006" id="path166" fill="#FBBF16"></path>
                        <path d="M175.194752,12.2038948 C175.175277,12.2366289 170.623966,16.1206738 170.565539,16.1730333 C169.937823,16.7032206 169.277149,17.8561044 170.235951,18.7491381 C170.649434,19.1376774 171.414228,19.3056175 172.158797,19.3056175 C173.919846,19.3056175 174.923591,18.594007 175.70037,17.920449 L175.70037,20.8336324 C175.70037,20.8336324 175.026213,20.3677898 174.923591,20.2967036 C174.579771,20.4067411 173.25243,20.8277897 171.873404,20.8277897 C167.264415,20.8277897 166.907861,18.0562542 166.907861,16.9753554 C166.907861,16.0554303 167.289883,15.3567037 167.698123,14.8905614 C167.723591,14.8650933 172.26891,10.9737825 172.339322,10.9286889 C172.955052,10.3909361 173.621719,9.24569265 172.656925,8.35116084 C172.262168,7.96988744 171.537074,7.75573014 170.799247,7.75573014 C169.038198,7.75573014 168.027711,8.46209717 167.264415,9.1414979 L167.264415,6.22249423 C167.264415,6.22249423 167.92434,6.68158785 168.027711,6.75883878 C168.370782,6.64267399 169.698123,6.22776014 171.083891,6.22776014 C175.70037,6.22776014 176.043441,9.00516831 176.043441,10.0740072 C176.043441,11.0516102 175.621718,11.8088387 175.194752,12.2038948" id="path168" fill="#FBBF16"></path>
                        <polyline id="path170" fill="#FBBF16" points="190.501868 4.29131824 189.071156 4.29131824 189.071156 5.29728826 193.143815 5.29728826 193.143815 4.29131824 191.697373 4.29131824 191.697373 0 190.501868 0 190.501868 4.29131824"></polyline>
                        <path d="M198.228459,2.02773778 C198.205238,2.66502615 198.181268,3.42696621 198.181268,4.20441188 L198.166287,4.20441188 C197.993253,3.52879392 197.77228,2.77446435 197.568534,2.153558 L196.923591,0.086025466 L195.988759,0.086025466 L195.422467,2.13044189 C195.249433,2.75865911 195.077149,3.50626208 194.943066,4.20441188 L194.927336,4.20441188 C194.903366,3.48987257 194.871905,2.67205237 194.840445,2.01194002 L194.738572,0 L193.630707,0 L193.968534,5.29728826 L195.56404,5.29728826 L196.083141,3.52147557 C196.256175,2.91608232 196.413478,2.25626212 196.531081,1.63506363 L196.561793,1.63506363 C196.704115,2.24806736 196.884639,2.94007483 197.065913,3.53786508 L197.623216,5.29728826 L199.195501,5.29728826 L199.478647,0 L198.314602,0 L198.228459,2.02773778" id="path172" fill="#FBBF16"></path>
                    </g>
                </g>
            </g>
        </g>
    </g>
</svg>