<?xml version="1.0" encoding="UTF-8"?>
<svg width="200px" height="200px" viewBox="0 0 200 200" version="1.1" xmlns="http://www.w3.org/2000/svg" xmlns:xlink="http://www.w3.org/1999/xlink">
    <!-- Generator: Sketch 54.1 (76490) - https://sketchapp.com -->
    <title>middlebury</title>
    <desc>Created with Sketch.</desc>
    <g id="middlebury" stroke="none" stroke-width="1" fill="none" fill-rule="evenodd">
        <g id="middlebury_BGL">
            <g id="middlebury" transform="translate(-1.000000, 56.000000)">
                <g id="g10" transform="translate(100.697239, 44.333334) scale(-1, 1) rotate(-180.000000) translate(-100.697239, -44.333334) translate(0.197239, 0.333334)" fill-rule="nonzero">
                    <g id="g12" transform="translate(0.355030, 0.000000)">
                        <path d="M134.908478,86.9408262 C133.581456,86.9522661 132.403941,86.2303726 131.098222,86.1633115 C123.058774,86.9380649 114.870214,86.7171576 106.96765,84.9514772 C104.607098,84.5005896 102.308479,83.2126212 99.8639028,83.8335285 C97.0015755,84.3518717 94.1301752,83.4642977 91.5025618,82.3842188 C88.6070984,81.172779 85.3487158,81.3506883 82.4315561,80.1940808 C79.47771,79.2370789 76.8942782,77.4639034 74.1905307,75.9909251 C71.9471382,74.7696234 69.4784992,74.0595642 67.2114382,72.8911224 C55.5293872,67.3751462 43.9057188,61.6631148 31.7535692,57.2295844 C28.7808277,56.1499 25.642879,55.6773162 22.5793683,54.940827 C18.3450489,53.97633 13.5943586,53.6228783 9.67641001,55.8256396 C8.07601558,56.4950676 8.65475324,58.6114384 9.18224829,59.8899393 C11.0368834,62.8575921 14.2566466,64.6642982 17.4782639,65.7992094 C18.5198023,66.3388544 19.8152263,66.8978287 20.1414591,68.1285979 C20.3166464,68.8702152 19.9784216,69.6473355 19.5036682,70.2110436 C18.0353053,71.6437852 16.0482836,72.586586 13.9734513,72.5794854 C10.1966072,72.9558167 6.54540418,71.1155801 4.0242997,68.404732 C1.46850489,65.5088741 -0.313886777,61.6749491 0.0987735675,57.7356988 C0.182908082,55.9818526 0.711136077,54.2516752 1.50486781,52.6923064 C3.43364883,48.8370796 7.80725819,47.1668627 11.7181457,46.0946734 C16.6076524,44.5759358 21.8521888,45.1688352 26.7970408,46.1258371 C36.1757387,47.9061132 44.8820502,51.9846141 53.5526614,55.8256396 C57.1416159,57.2990124 60.6082825,59.0717934 64.2599589,60.3917145 C64.9538445,57.4402353 65.9467439,54.5396436 66.1700181,51.4950677 C64.2457578,51.7372768 62.2639038,51.7786969 60.4043377,52.3759356 C58.6508861,53.0189336 56.7530558,54.4579868 54.845758,53.5708073 C53.2934898,52.159762 53.046547,49.9309652 52.4871782,48.030768 C51.6047324,44.2138056 50.4627206,40.4497031 49.8504919,36.5771194 C49.2631151,34.4272181 51.7798804,33.7624844 53.0390519,32.6855219 C54.1285983,32.1818138 53.9751466,30.8887961 54.2579868,29.9170801 C55.1057185,30.464733 55.6197225,31.3604726 56.5483221,31.4473759 C56.7502944,31.4663503 57.0078881,31.1143976 57.2422076,31.080512 C57.1790913,30.6003543 57.418539,30.2540821 57.1605508,30.0192497 C56.263115,29.2035101 54.3794858,29.1988553 53.65562,27.901735 C52.7104523,26.3735694 51.8039435,24.7779481 51.3120303,23.0410251 C58.6990123,22.8225241 66.0934895,22.9947923 73.4828384,22.9428791 C109.515579,22.9858377 145.548714,22.8536483 181.579088,23.0074156 C179.92465,25.2773564 178.299798,27.6232735 176.222481,29.5306501 C176.687964,30.6847724 177.513211,31.8150682 177.433526,33.109585 C176.913211,34.6264686 176.133723,36.1980662 174.86469,37.2197229 C173.204335,37.8272969 171.404729,37.7913994 169.687175,38.0930957 C168.213408,38.367218 167.277708,39.652859 166.246939,40.6126223 C162.091515,44.8832336 158.089542,49.3313597 154.558576,54.1345154 C153.715184,55.0386574 154.401574,56.4090716 155.25404,57.0228783 C157.095854,57.6757382 159.095065,57.7952648 161.035499,57.7932924 C162.309266,57.3877698 163.367254,56.4907284 164.63471,56.0536475 C166.695459,55.3917146 168.911633,55.5356988 170.991317,54.9593675 C171.870213,54.8015765 171.999601,53.7794858 172.289542,53.1025628 C172.935301,51.2769218 174.60039,50.0627206 176.217353,49.1416161 C176.80039,48.796054 177.646938,48.7214978 178.259562,49.1029574 C178.763309,49.3108469 178.492698,49.9321487 179.024453,50.020906 C179.942402,50.1739632 180.984216,50.4260342 181.349897,51.0003932 C181.808279,51.7207088 181.032343,52.4599592 180.730567,53.2560144 C181.207491,53.4063103 182.528201,54.0788941 182.528201,54.0788941 C182.666268,54.220117 183.373565,53.489545 184.150291,53.3751466 C184.852461,53.2710046 185.492303,53.5380657 185.649305,53.8339237 C186.218536,54.698618 186.542007,55.6560144 186.918339,56.6299789 C187.210252,57.3834305 187.902954,57.8595646 188.127806,58.6074936 C188.429976,59.6134107 188.518338,60.8039433 187.608279,61.4879669 C186.042204,62.8319511 183.277313,64.7388544 182.084019,65.9321483 C181.762915,66.2532528 181.952658,66.4907281 181.869818,66.7581837 C181.428003,68.1775131 179.549897,68.4670594 178.450883,69.3664677 C176.766859,70.7124243 175.471396,72.5242585 173.566465,73.5865859 C172.379088,74.1652841 170.987372,74.133726 169.788161,74.6662703 C168.56686,75.5735681 167.652067,76.8639034 166.322678,77.6366844 C164.590923,78.7163688 162.439838,76.9171578 160.771199,78.044574 C158.806308,79.3723846 156.573172,80.2899388 154.262718,80.8804714 C152.715184,81.3459546 150.992896,81.3676508 149.624848,82.3104516 C145.851278,86.0891497 140.104927,87.4299781 134.908478,86.9408262 Z M85.8788933,47.2654821 C90.38698,48.3644958 95.0583803,49.1992098 99.7057174,48.5420106 C98.0189325,48.0713992 96.2840213,47.639841 94.7558162,46.7617345 C92.7960529,44.9672573 91.1049287,42.8966459 89.1325422,41.1140029 C88.2228775,40.3345158 86.9080846,40.4134112 85.8122267,40.1136085 C81.9155798,39.4946736 78.0457574,38.635502 74.0942782,38.4390523 C71.6737655,38.2855612 69.0954618,38.4789339 66.6816551,38.2556598 C65.5136078,37.5865868 64.5289925,36.1928196 63.5913199,35.2568827 C63.3080852,36.0627604 63.5309649,37.3613008 62.6027598,37.7239044 C60.8556198,38.2615375 59.0027599,38.183076 57.201182,38.3629182 C58.0145942,39.9345158 58.9408269,41.8457583 60.807888,42.3159753 C64.7420102,42.5487169 68.5905308,41.3921094 72.5203138,41.4063106 C74.4950672,41.4355019 76.9518718,41.0252455 78.4299783,42.6974348 C79.2067041,44.3672573 79.4422071,46.2457582 79.9700177,48.0043381 C81.6224832,46.6560146 83.9163687,46.7881645 85.8788933,47.2654821 Z M97.8437845,58.4816553 C100.754238,58.6114384 103.418932,56.958184 106.348715,57.1045351 C109.540037,57.2966455 112.716368,57.9897421 115.928597,57.6852057 C118.013409,57.3132136 119.706506,55.9554227 121.691516,55.3076909 C123.579484,54.4654819 125.736486,54.4295844 127.57909,53.4891505 C129.325441,51.6512808 130.383823,49.3025629 131.933725,47.3136083 C132.784612,46.2098608 134.044178,45.5526616 135.174356,44.7727799 C129.172383,46.0781054 117.353054,52.5491111 117.353054,52.5491111 C117.353054,52.5491111 115.763311,52.2366851 115.144376,52.0879671 C111.761338,51.325048 108.395264,50.4927009 105.010254,49.7510836 C105.51913,51.646547 106.674948,54.0311624 104.964494,55.6145943 C103.24694,56.5913201 100.998814,57.1786968 99.1104512,56.3199197 C97.3424039,55.5471387 95.3798793,55.60276 93.4942777,55.57633 C94.8015755,56.7159749 96.1783013,57.9132135 97.8437845,58.4816553 Z M141.576328,50.8713991 C142.141614,50.7873755 143.239839,50.8394465 143.805125,50.7554228 C145.895854,48.6343183 147.857196,46.0923065 150.250884,44.2907287 C153.221692,41.7980266 157.069819,40.3250483 159.394079,37.1119912 C160.188951,36.1356598 161.237471,35.4256007 162.246544,34.6907289 C164.362915,33.3578295 165.598812,31.1672576 167.988556,30.2237468 C166.681258,30.4134115 165.29901,30.0875338 164.120706,30.8071393 C161.080864,32.6738059 157.882047,35.481222 154.830765,37.3226421 C153.647333,38.0362515 152.239838,37.2899793 151.054434,38.367218 C148.864296,40.2911233 146.407886,41.9491114 143.565282,42.7285985 C144.542797,44.2473362 145.042994,46.0564091 144.949109,47.865482 C144.714395,49.5254425 142.779878,50.0149889 141.576328,50.8713991 Z" id="path14-path" fill="#FFFFFF"></path>
                        <path d="M131.098222,86.1633115 C123.058774,86.9380649 114.870214,86.7171576 106.96765,84.9514772 C104.607098,84.5005896 102.308479,83.2126212 99.8639028,83.8335285 C97.0015755,84.3518717 94.1301752,83.4642977 91.5025618,82.3842188 C88.6070984,81.172779 85.3487158,81.3506883 82.4315561,80.1940808 C79.47771,79.2370789 76.8942782,77.4639034 74.1905307,75.9909251 C71.9471382,74.7696234 69.4784992,74.0595642 67.2114382,72.8911224 C55.5293872,67.3751462 43.9057188,61.6631148 31.7535692,57.2295844 C28.7808277,56.1499 25.642879,55.6773162 22.5793683,54.940827 C18.3450489,53.97633 13.5943586,53.6228783 9.67641001,55.8256396 C8.07601558,56.4950676 8.65475324,58.6114384 9.18224829,59.8899393 C11.0368834,62.8575921 14.2566466,64.6642982 17.4782639,65.7992094 C18.5198023,66.3388544 19.8152263,66.8978287 20.1414591,68.1285979 C20.3166464,68.8702152 19.9784216,69.6473355 19.5036682,70.2110436 C18.0353053,71.6437852 16.0482836,72.586586 13.9734513,72.5794854 C10.1966072,72.9558167 6.54540418,71.1155801 4.0242997,68.404732 C1.46850489,65.5088741 -0.313886777,61.6749491 0.0987735676,57.7356988 C0.182908082,55.9818526 0.711136077,54.2516752 1.50486781,52.6923064 C3.43364883,48.8370796 7.80725819,47.1668627 11.7181457,46.0946734 C16.6076524,44.5759358 21.8521888,45.1688352 26.7970408,46.1258371 C36.1757387,47.9061132 44.8820502,51.9846141 53.5526614,55.8256396 C57.1416159,57.2990124 60.6082825,59.0717934 64.2599589,60.3917145 C64.9538445,57.4402353 65.9467439,54.5396436 66.1700181,51.4950677 C64.2457578,51.7372768 62.2639038,51.7786969 60.4043377,52.3759356 C58.6508861,53.0189336 56.7530558,54.4579868 54.845758,53.5708073 C53.2934898,52.159762 53.046547,49.9309652 52.4871782,48.030768 C51.6047324,44.2138056 50.4627206,40.4497031 49.8504919,36.5771194 C49.2631151,34.4272181 51.7798804,33.7624844 53.0390519,32.6855219 C54.1285983,32.1818138 53.9751466,30.8887961 54.2579868,29.9170801 C55.1057185,30.464733 55.6197225,31.3604726 56.5483221,31.4473759 C56.7502944,31.4663503 57.0078881,31.1143976 57.2422076,31.080512 C57.1790913,30.6003543 57.418539,30.2540821 57.1605508,30.0192497 C56.263115,29.2035101 54.3794858,29.1988553 53.65562,27.901735 C52.7104523,26.3735694 51.8039435,24.7779481 51.3120303,23.0410251 C58.6990123,22.8225241 66.0934895,22.9947923 73.4828384,22.9428791 C109.515579,22.9858377 145.548714,22.8536483 181.579088,23.0074156 C179.92465,25.2773564 178.299798,27.6232735 176.222481,29.5306501 C176.687964,30.6847724 177.513211,31.8150682 177.433526,33.109585 C176.913211,34.6264686 176.133723,36.1980662 174.86469,37.2197229 C173.204335,37.8272969 171.404729,37.7913994 169.687175,38.0930957 C168.213408,38.367218 167.277708,39.652859 166.246939,40.6126223 C162.091515,44.8832336 158.089542,49.3313597 154.558576,54.1345154 C153.715184,55.0386574 154.401574,56.4090716 155.25404,57.0228783 C157.095854,57.6757382 159.095065,57.7952648 161.035499,57.7932924 C162.309266,57.3877698 163.367254,56.4907284 164.63471,56.0536475 C166.695459,55.3917146 168.911633,55.5356988 170.991317,54.9593675 C171.870213,54.8015765 171.999601,53.7794858 172.289542,53.1025628 C172.935301,51.2769218 174.60039,50.0627206 176.217353,49.1416161 C176.80039,48.796054 177.646938,48.7214978 178.259562,49.1029574 C178.763309,49.3108469 178.492698,49.9321487 179.024453,50.020906 C179.942402,50.1739632 180.984216,50.4260342 181.349897,51.0003932 C181.808279,51.7207088 181.032343,52.4599592 180.730567,53.2560144 C181.207491,53.4063103 182.528201,54.0788941 182.528201,54.0788941 C182.666268,54.220117 183.373565,53.489545 184.150291,53.3751466 C184.852461,53.2710046 185.492303,53.5380657 185.649305,53.8339237 C186.218536,54.698618 186.542007,55.6560144 186.918339,56.6299789 C187.210252,57.3834305 187.902954,57.8595646 188.127806,58.6074936 C188.429976,59.6134107 188.518338,60.8039433 187.608279,61.4879669 C186.042204,62.8319511 183.277313,64.7388544 182.084019,65.9321483 C181.762915,66.2532528 181.952658,66.4907281 181.869818,66.7581837 C181.428003,68.1775131 179.549897,68.4670594 178.450883,69.3664677 C176.766859,70.7124243 175.471396,72.5242585 173.566465,73.5865859 C172.379088,74.1652841 170.987372,74.133726 169.788161,74.6662703 C168.56686,75.5735681 167.652067,76.8639034 166.322678,77.6366844 C164.590923,78.7163688 162.439838,76.9171578 160.771199,78.044574 C158.806308,79.3723846 156.573172,80.2899388 154.262718,80.8804714 C152.715184,81.3459546 150.992896,81.3676508 149.624848,82.3104516 C145.851278,86.0891497 140.104927,87.4299781 134.908478,86.9408262 C133.581456,86.9522661 132.403941,86.2303726 131.098222,86.1633115 Z M133.22406,85.0788933 C137.66548,86.5854022 142.576328,85.5037454 146.592896,83.3155798 C147.824059,82.6627198 148.445361,81.0650867 149.982245,80.9763293 C154.277314,80.0670591 158.405913,78.3562111 161.975538,75.7865859 C163.019325,76.3053235 164.218931,76.8713985 165.407096,76.5041401 C166.971199,75.8781046 168.012225,74.4579863 169.365282,73.5171579 C170.531357,73.0493078 171.860351,73.0493078 173.026031,72.5388542 C174.56252,71.9842191 175.524256,70.5881639 176.730173,69.5704125 C177.755814,68.5459549 178.896248,67.6287952 180.188161,66.9936867 C181.227609,66.4828386 180.590134,65.9905309 180.799207,65.5041404 C180.982244,65.0753435 181.347924,65.0540418 181.63037,64.8923061 C183.56607,63.2824442 186.649305,61.4611424 187.347135,60.2102549 C187.682047,59.609466 187.097037,58.2528585 186.368043,57.3952648 C185.846938,56.7830361 185.799995,55.4177501 185.052461,54.4879671 C184.497037,53.7988152 183.428792,54.8777107 182.665479,55.314397 C181.96252,54.9427994 181.195656,54.506113 180.497826,54.1345154 C180.675735,55.0220894 181.101771,56.054042 180.696642,56.8646929 C180.289147,57.6808664 179.115577,58.3447717 177.834315,58.21775 C176.217353,58.3353043 174.556603,56.4161722 175.01538,55.497829 C175.389345,54.7510834 177.052856,54.0816555 178.379088,54.340827 C178.969621,54.6859947 179.439443,55.1901367 179.950291,55.6339237 C179.8568,55.2642984 179.84181,54.792898 179.738063,54.3964483 C179.639049,54.0153833 179.450883,53.7065075 179.432737,53.4990125 C179.398023,53.107691 180.923072,52.1546338 180.676919,51.315975 C180.564098,50.9329376 179.71755,50.9491112 179.666268,50.7857975 C180.341613,52.9491111 176.267451,53.3735687 174.449305,54.5925036 C173.388556,55.3313596 173.761731,56.8138053 174.43471,57.6090715 C174.523467,57.7147915 174.432737,57.9763299 174.460351,58.0978289 C173.059562,58.148322 171.665873,58.1794857 170.274552,58.2272175 C172.138457,58.8055212 173.933329,58.7427993 175.862323,58.965679 C175.731751,59.0098605 175.789345,59.2903338 175.657984,59.3329374 C173.841021,59.921103 171.942008,60.155817 170.085203,60.5783022 C172.647333,60.7727795 175.114394,60.2915172 177.616564,59.8023654 C177.48323,59.9072963 177.585005,60.0007875 177.45325,60.1080853 C176.758181,60.6725823 175.844177,61.2737657 175.154631,61.8382628 C178.942796,60.8303732 181.218141,57.9644956 184.307293,55.7834306 C184.382638,55.9384601 184.514394,56.0919118 184.610646,56.2252451 C185.674552,57.7009848 184.935301,59.0141997 184.022086,60.2915172 C184.461139,60.3155803 185.568437,60.5984206 185.919128,60.3325429 C184.413802,61.4749492 182.853644,62.807888 181.920706,63.2702154 C181.404335,63.5258367 180.68678,63.1301759 180.431554,63.3514777 C180.247727,63.5108465 181.207096,63.9226808 181.023664,64.2493081 C180.736879,64.7577893 179.313211,64.4414185 178.513605,64.5061128 C178.863506,65.0433909 179.274946,65.4792883 179.616169,66.023667 C179.548319,66.0433909 179.540824,66.274949 179.472974,66.2891502 C176.739641,66.8603534 175.697432,69.9830357 173.084414,70.8232724 C173.712422,69.8035486 174.377116,68.8007872 174.98185,67.7641009 C174.398812,68.0950673 173.826031,68.4406295 173.245361,68.7715959 C173.890331,67.1234697 175.321889,64.2564086 175.005518,63.8615369 C174.523862,63.2603534 172.700587,62.8209057 171.069818,62.9767243 C170.984217,62.9850083 170.897826,62.964101 170.81183,62.9581838 C171.766465,63.5053239 172.945163,63.6982233 173.353447,64.5956591 C173.94753,65.9029569 172.755814,67.639446 171.531357,68.6753435 C170.06114,69.6761324 168.480075,70.4844164 166.954631,71.3869805 C167.990923,71.3577891 169.03471,71.2500968 170.059167,71.0749489 C168.999996,72.7834301 167.429582,74.2039429 165.558181,74.9518719 C164.614986,75.0339232 163.801574,75.3830356 163.280864,74.6067042 C162.164493,72.9392487 163.9783,70.7984203 164.642994,68.5483218 C164.755814,68.1660732 164.27968,67.6177498 164.063112,67.284022 C163.626426,68.4571975 163.230765,69.4398405 162.761337,70.5984203 C162.742008,70.5451659 162.612225,70.6059154 162.592501,70.5522665 C161.657195,67.9688346 160.44615,65.319525 161.304138,62.5313594 C161.695459,60.5187362 163.489937,59.2804719 165.154237,58.3329374 C162.949897,58.6497027 160.709266,59.947533 159.911633,62.1163693 C158.881258,64.7558169 160.036682,67.2800772 160.665479,69.8642981 C157.896249,69.6619312 155.157787,69.3593671 153.000391,67.5692291 C152.954237,67.5309648 152.669424,67.5794855 152.619326,67.5459549 C153.21183,68.6110436 153.694671,69.7889529 154.64615,70.5952645 C155.99684,71.5648897 158.308872,72.4954617 159.390529,72.5881639 C159.503744,72.5980258 159.561732,72.6678483 159.579089,72.6942783 C159.940035,73.2564084 159.156209,74.8994064 158.26903,75.5806687 C154.492698,78.5530552 149.622481,79.7814576 144.913211,80.191714 C145.666269,80.513213 146.433527,80.7988145 147.194474,81.1108461 C145.013803,82.5167632 142.520312,83.5195245 139.88757,83.476132 C141.767649,80.755422 144.126229,77.8836272 143.910056,74.3854025 C143.818537,73.1814577 142.722284,72.3944755 141.649701,72.0828384 C139.676131,71.5652842 137.211436,71.5814578 135.192107,71.795659 C135.029977,71.8126215 135.354632,71.5274144 135.192107,71.5203138 C135.726624,71.2418128 137.036683,71.2437852 136.702955,70.7392487 C136.155815,69.9100574 131.872975,70.0070988 129.445756,69.9475328 C130.071792,68.9301758 130.78619,67.9416157 131.184612,66.8019707 C132.521101,62.7546335 133.517156,58.5873753 135.155815,54.6453635 C135.767649,53.4216949 136.185006,51.8958567 137.559365,51.298618 C139.614987,50.1735688 143.324257,49.0189337 143.773961,48.1341211 C144.023665,47.6453637 143.923468,46.4260343 143.652067,45.5431941 C143.570411,45.2781054 143.424848,45.4737661 143.407491,45.319131 C143.045756,46.7988154 142.278497,47.96134 140.992896,48.7818528 C141.9069,47.3546339 142.497827,45.6883618 141.999602,44.0950679 C141.897038,43.7684407 141.675736,43.8418135 141.61262,43.6666656 C141.448912,44.597632 141.41972,45.3195255 141.120312,46.2169614 C140.712028,47.248914 139.692699,47.8268233 138.840628,48.4532532 C139.331752,47.2197227 139.878103,46.4205117 139.062324,44.788559 C138.962127,44.5881646 138.704533,44.362918 138.592896,44.1562119 C138.324257,45.4757385 138.452462,47.510058 136.753054,47.8102552 C135.035894,48.1751467 131.922285,49.0725826 132.126624,49.7455609 C132.290726,50.2856003 134.275342,50.3076911 135.495855,50.5881644 C132.612225,56.6027599 129.030766,62.2504915 125.80552,68.0828385 C125.32189,68.9854026 124.824849,69.9641008 125.001969,71.0291895 C125.261535,71.655225 125.65838,71.9471382 126.028005,72.5108463 C124.989346,72.472582 123.207492,72.5909252 123.195263,71.1396432 C123.291121,69.308874 124.426427,67.7230752 125.01617,66.0248504 C123.992107,67.1305703 123.210253,68.4189332 122.310451,69.6161718 C121.622088,70.429584 120.400391,71.4055209 119.368833,70.6189331 C118.953843,69.8587754 119.224849,68.9325427 119.38619,68.1285979 C120.056802,65.8781049 121.51834,63.9877696 122.613015,61.9364876 C120.770017,63.7289925 119.009464,65.6406295 117.634317,67.8236669 C117.026822,68.7668622 116.808281,70.1069016 117.236289,71.0796826 C117.712818,72.1633118 119.019326,72.9471382 120.046151,73.6315563 C120.596841,73.9988147 120.611042,74.7751461 121.376328,75.3258364 C123.310845,76.7187358 129.783429,78.8540414 131.810648,83.0674535 C125.59408,82.8295837 119.906111,79.9589724 114.755816,76.6698206 C113.591319,75.871004 111.648123,74.8678482 111.187374,75.723864 C110.54477,76.9171578 111.807098,78.3061124 112.408676,79.6426016 C109.859169,79.2753432 107.478498,78.2556193 105.077315,77.3775129 C104.340431,79.1337258 103.287177,80.7289921 102.301378,82.3510828 C110.592897,84.6540413 119.282443,85.4485186 127.864297,84.9826409 C129.632738,84.9203135 131.506111,84.3857967 133.22406,85.0788933 Z M95.2982225,82.190136 C96.5309641,82.4587751 97.8078871,82.6895443 99.0792875,82.5960532 C100.257591,82.4161715 101.134909,81.4536469 101.768834,80.5084792 C103.465086,78.0228777 104.539642,75.1009843 104.806309,72.1017733 C104.494277,68.3349095 103.030767,64.5175526 100.134514,61.982247 C101.588952,65.093884 102.889544,68.3854026 102.77199,71.8859943 C103.073765,73.8003926 101.826033,75.3455602 101.118341,76.9913196 C100.624061,78.0635089 99.6406287,79.2106489 98.2781041,78.7451657 C94.9550272,77.8863886 92.2706091,75.5684399 89.6414179,73.4745544 C86.8532523,71.2402349 84.5905304,68.4504914 82.0761321,65.9309648 C80.4497021,64.2899392 79.2212998,62.3033515 77.5826411,60.6745547 C77.4102545,62.5964481 77.4074931,64.527809 77.46272,66.4540417 C75.8733709,65.0303731 74.3976313,62.8942785 72.5570002,61.789742 C72.0974341,61.5143969 71.655225,64.2986177 71.1538444,65.4118327 C71.038657,63.6437854 70.7495051,61.7254422 71.438657,60.0437855 C71.9329371,58.2106494 73.2086767,56.7806692 74.2070987,55.2141998 C70.8070988,57.0710045 69.6177497,61.312819 69.6556196,64.9282035 C69.492306,67.5242587 71.160156,69.6690318 72.4966451,71.7321481 C60.9424048,67.2315565 50.2631151,60.7802746 38.7187367,56.2556199 C32.4041412,53.7459553 25.8831157,51.4544366 19.0622086,50.9143971 C16.6893092,50.6990125 14.258974,51.0540421 12.0519129,51.9558172 C10.6719918,52.6804721 9.57826406,53.8489138 8.61842188,55.0556199 C10.2474554,54.2856002 11.8069031,53.2560144 13.6472186,53.0859947 C17.1090726,52.6832334 20.6239048,52.9972373 24.0210645,53.7360933 C36.0626421,56.5384601 47.1037464,62.2433909 58.408677,67.0564086 C63.7009846,69.5581837 69.0820496,71.8666649 74.506507,74.064298 C78.3001953,76.4323452 82.442207,78.8481243 86.9025619,79.7116351 C86.3143963,78.9538442 85.4615363,78.1980257 84.9120294,77.4138048 C88.2228775,79.3088738 91.6540411,81.0315562 95.2982225,82.190136 Z M145.966071,74.8055208 C147.988556,72.2769213 150.289543,69.3739628 149.756604,65.8974343 C148.715578,62.0899393 144.607886,60.0532529 140.879681,60.0339235 C142.389346,60.6287953 143.905322,61.2911227 145.149898,62.3562115 C146.988951,64.0978288 148.026821,66.6796828 147.813409,69.213016 C147.467846,71.1542389 146.757787,73.0086767 145.966071,74.8055208 Z M152.978694,72.5242585 C154.003546,73.2532526 155.375144,72.9076905 156.547136,73.1191303 C154.813803,72.4023651 153.306111,71.5317536 152.082442,70.1242586 C152.014986,70.046941 151.791318,70.1487162 151.776328,70.04773 C151.929385,71.0575919 152.388556,71.7542388 152.978694,72.5242585 Z M6.43258367,68.6493079 C9.33538438,70.8544361 13.2945164,72.0343177 16.8571199,70.8974341 C17.7351475,70.7723848 18.6398417,70.264298 18.8965281,69.3664677 C19.6976721,68.2942784 18.4768043,67.6441798 17.8263506,67.1021679 C16.8304532,66.5597616 15.7632343,66.1731739 14.6811831,65.8497025 C15.6744769,66.8043376 17.2092303,67.8335289 17.2187767,68.7167636 C17.2354236,70.265087 11.3654041,69.7120298 8.7188558,68.2725821 C6.86962507,67.161734 4.9882839,65.9143968 3.76756598,64.0907282 C2.8484023,62.8410241 2.26300586,61.3940813 1.55279286,60.0244561 C1.56943586,63.5270201 3.82026815,66.5333317 6.43258367,68.6493079 Z M97.8725814,65.9719905 C98.8465459,66.8911226 99.6504906,67.9656788 100.451674,69.0335288 C99.4990113,65.2642982 97.0398398,61.8213002 93.6453626,59.8777105 C91.9731732,58.7672569 90.2717926,57.6946731 88.4895441,56.766468 C90.4303725,60.9408269 94.8808655,62.7353042 97.8725814,65.9719905 Z M143.182639,65.5546335 C144.080075,66.0986177 144.917551,66.7420102 145.771988,67.3562113 C145.464691,66.2571976 145.049701,65.1057183 144.051673,64.4414185 C141.976722,63.1049294 139.238261,62.8721878 136.930963,63.7092686 C139.051673,64.1530556 141.247334,64.5175526 143.182639,65.5546335 Z M175.026426,67.1660733 L175.229976,67.3909253 C175.715183,67.2035486 176.366859,67.3175526 176.576327,66.8398405 C176.648122,66.6753435 176.599601,66.4907281 176.446149,66.4773159 C176.168437,66.4524638 175.853645,66.1629175 176.066268,65.7384599 C176.313605,65.2437854 176.943191,64.8611424 177.942796,65.5140023 C177.9925,65.5463494 177.969226,64.8639037 177.514394,64.7388544 C176.759759,64.5309649 175.311238,64.9001956 175.005518,65.5751463 C174.874946,65.8635092 174.922284,66.5471384 175.026426,67.1660733 Z M84.2690314,59.1897421 C86.7668617,60.9601563 89.1514771,63.0639037 92.0832324,64.0666651 C90.7830352,61.6339235 88.7029564,59.7818525 87.0284002,57.627612 C86.406704,56.8307678 86.1021675,55.8426022 86.0370787,54.8445746 C90.4449682,54.5207087 95.0437846,53.5057186 99.3143959,55.1759355 C101.039051,55.9364878 103.0927,55.7514779 104.603942,54.5830361 C104.837473,53.9017738 104.902167,53.1723853 105.046151,52.4670598 C104.551477,53.5057186 103.65483,54.2426022 102.539248,54.5207087 C103.181851,53.8536476 104.102956,53.2871782 104.256802,52.2990125 C104.364889,51.3826417 104.309268,50.456409 104.242206,49.5396437 C103.954633,50.6193281 103.837078,51.8840224 103.05483,52.7502945 C102.128992,53.3980263 100.927019,53.3163695 99.8564078,53.4962511 C100.657591,53.0331348 101.471398,52.5676515 102.135698,51.9080855 C102.171595,51.3009849 102.246151,50.0867838 102.284021,49.4796832 C101.842601,50.1901368 101.497433,50.9723853 100.917157,51.5838251 C100.213804,52.1889533 99.2907273,52.4165667 98.4386563,52.7380657 C98.7096622,51.9080855 98.973962,51.0753439 99.1826405,50.2284011 C98.201181,50.9747522 97.4836268,52.4355016 96.027611,52.1408271 C90.7443764,52.1735687 83.389347,50.0244563 80.1759349,50.559762 C79.9925029,50.5905313 79.5715956,53.5731742 80.07771,54.9502945 C80.6848106,56.974752 82.7270196,57.9704128 84.2690314,59.1897421 Z M178.501376,62.5554225 C179.874157,62.2003929 181.86035,62.2674541 182.431554,60.6528584 C180.888358,60.626034 179.708477,61.7593673 178.501376,62.5554225 Z M147.105716,54.1727797 C149.264691,55.6291899 150.814986,57.7857974 152.233132,59.9305705 C151.908872,57.0804719 150.371199,54.393687 147.846939,52.9467442 C146.211042,51.795265 144.123468,51.8575924 142.221298,51.7928981 C143.865085,52.5510835 145.640233,53.0737659 147.105716,54.1727797 Z M66.2445743,59.3621287 C66.7337261,59.4674541 67.2232725,59.5731741 67.7147912,59.678894 C69.1731738,56.4422077 69.8883612,52.8702156 69.8982231,49.3262315 C70.0086768,48.7096635 69.2788937,48.5755412 68.8280062,48.4844169 C65.5222863,48.1822473 62.2678485,49.0520698 58.9964482,49.4773163 C56.9356988,49.7455609 57.4374739,51.063904 56.6303733,50.969624 C55.2646929,50.8102551 55.0781051,48.8777108 54.5356988,47.6228785 C54.77633,49.1656792 54.932543,50.9171585 56.1459552,52.037474 C57.401182,52.9084799 58.7013792,51.4138054 59.8650873,51.125837 C62.3913199,50.3676516 65.0615368,50.2118331 67.684022,50.0702157 C68.0867833,53.2682432 66.9088741,56.2986179 66.2445743,59.3621287 Z M97.8437845,58.4816553 C100.754238,58.6114384 103.418932,56.958184 106.348715,57.1045351 C109.540037,57.2966455 112.716368,57.9897421 115.928597,57.6852057 C118.013409,57.3132136 119.706506,55.9554227 121.691516,55.3076909 C123.579484,54.4654819 125.736486,54.4295844 127.57909,53.4891505 C129.325441,51.6512808 130.383823,49.3025629 131.933725,47.3136083 C132.784612,46.2098608 134.044178,45.5526616 135.174356,44.7727799 C129.172383,46.0781054 117.353054,52.5491111 117.353054,52.5491111 C117.353054,52.5491111 115.763311,52.2366851 115.144376,52.0879671 C111.761338,51.325048 108.395264,50.4927009 105.010254,49.7510836 C105.51913,51.646547 106.674948,54.0311624 104.964494,55.6145943 C103.24694,56.5913201 100.998814,57.1786968 99.1104512,56.3199197 C97.3424039,55.5471387 95.3798793,55.60276 93.4942777,55.57633 C94.8015755,56.7159749 96.1783013,57.9132135 97.8437845,58.4816553 Z M85.3037454,58.1940814 C83.9400373,57.2867836 82.381063,56.3944759 81.652069,54.8516752 C81.1936863,53.9140026 81.0272169,51.9893478 81.5980256,51.9893478 C82.2717928,51.9893478 82.433923,53.6619316 82.9041399,54.5830361 C83.5258362,55.897829 84.4733707,57.0086771 85.3037454,58.1940814 Z M177.546347,57.2698211 C178.218536,57.1167639 179.187372,57.0686376 179.493881,56.7017737 C179.732145,56.4153832 179.230765,56.1518724 179.105715,55.8039434 C178.546347,56.305324 178.070213,56.7301761 177.546347,57.2698211 Z M176.780272,56.84418 C177.249305,56.9463497 177.767648,55.9834306 178.514788,55.436685 C178.135696,55.2832333 178.142007,54.9274148 177.739246,54.8556199 C177.158181,55.1045351 176.249305,55.6205114 176.058773,55.9964483 C175.901771,56.3045351 176.442994,56.7708073 176.780272,56.84418 Z M152.5783,54.2927008 C155.210253,52.2003932 157.220903,49.4729771 159.312817,46.8698213 C161.995262,43.6619318 164.595657,40.3199201 167.849305,37.6614981 C169.638655,36.095147 172.143191,36.7782239 174.240627,36.095147 C176.061929,35.2050879 177.019325,32.9206698 176.231554,31.0162517 C176.226426,31.1345949 175.968043,31.0059164 175.984611,31.1211827 C176.270607,33.0584213 175.104532,33.9407487 173.848911,34.6169222 C174.214197,33.8489143 174.713211,33.1203936 174.859956,32.2702556 C174.847727,31.4808276 174.468635,30.7593681 174.180272,30.0414588 C174.171988,30.1542399 173.797629,30.074871 173.842599,30.1826028 C174.23037,31.100512 174.260351,32.0611432 173.717155,32.7239045 C173.074552,33.3743187 172.258378,33.7869814 171.428793,34.1369222 C171.946741,33.2781846 172.657589,32.438224 172.510844,31.3439834 C172.463507,30.7289933 172.218931,30.0698217 171.945558,29.5301768 C171.900193,29.4406304 171.783428,29.4993681 171.742008,29.4078099 C171.614591,30.6430367 171.749897,31.9423266 170.823664,32.9112812 C169.036682,33.4011431 167.139246,33.3768039 165.365676,33.9404725 C165.375933,34.2449301 165.3854,34.5494271 165.399996,34.8520701 C165.879286,34.8784212 166.359365,34.9163305 166.841416,34.9554626 C164.449306,37.7621292 161.791317,40.3368826 159.581456,43.3017741 C157.328596,46.3321487 154.743191,49.1226812 152.81617,52.385403 C152.475341,52.9637068 152.559365,53.6544365 152.5783,54.2927008 Z M96.9100567,45.9940817 C103.553449,47.5751467 117.077709,50.9577897 117.077709,50.9577897 L130.938064,44.2307681 C130.938064,44.2307681 137.955026,42.2824447 141.517945,41.5408274 C144.517156,40.885995 147.34832,39.4923067 149.653645,37.455147 C150.252856,36.8679281 150.779089,36.391005 151.403941,36.2418137 C152.260746,36.0370405 153.294671,36.2501372 153.852067,35.8746342 C156.51755,34.0770011 160.35187,31.3085594 162.921495,29.3700584 C163.667452,28.7801965 164.746741,29.1877705 165.602757,28.9573957 C168.345163,28.9695851 171.035104,28.3980664 173.760548,28.203589 C174.570015,28.0816956 175.444572,28.117593 176.186189,27.7360545 C177.32899,26.8722281 178.07613,25.6122282 178.911238,24.4686779 C171.818142,25.1375931 164.735302,25.9530566 157.628398,26.4717548 C157.743586,25.771242 157.90256,25.0607094 158.063112,24.3680467 C156.352659,24.3728594 154.644178,24.3893485 152.938458,24.4039836 C152.724257,24.9435891 152.511633,25.4812222 152.31045,26.023313 C149.854829,26.3416956 147.393685,26.5652853 144.937274,26.8319914 C145.917945,28.0339243 146.925046,29.0248908 147.921101,30.2121886 C147.860746,30.2753444 147.952265,30.4852458 147.890726,30.5482438 C145.686781,32.8323858 143.127807,34.9009064 141.400785,37.592149 C140.762127,38.5085197 140.119918,39.6051272 138.968044,39.9317544 C134.584612,41.2891508 130.199208,42.6544368 125.776723,43.8824447 C126.005125,44.1826419 126.2355,44.4828391 126.470608,44.7798805 C123.553054,46.0106497 117.04694,49.4891506 117.04694,49.4891506 C117.04694,49.4891506 101.449307,45.7637069 97.340037,44.7850087 C97.1790903,45.1830363 97.0043368,45.5763302 96.9100567,45.9940817 Z M141.576328,50.8713991 C142.141614,50.7873755 143.239839,50.8394465 143.805125,50.7554228 C145.895854,48.6343183 147.857196,46.0923065 150.250884,44.2907287 C153.221692,41.7980266 157.069819,40.3250483 159.394079,37.1119912 C160.188951,36.1356598 161.237471,35.4256007 162.246544,34.6907289 C164.362915,33.3578295 165.598812,31.1672576 167.988556,30.2237468 C166.681258,30.4134115 165.29901,30.0875338 164.120706,30.8071393 C161.080864,32.6738059 157.882047,35.481222 154.830765,37.3226421 C153.647333,38.0362515 152.239838,37.2899793 151.054434,38.367218 C148.864296,40.2911233 146.407886,41.9491114 143.565282,42.7285985 C144.542797,44.2473362 145.042994,46.0564091 144.949109,47.865482 C144.714395,49.5254425 142.779878,50.0149889 141.576328,50.8713991 Z M85.8788933,47.2654821 C90.38698,48.3644958 95.0583803,49.1992098 99.7057174,48.5420106 C98.0189325,48.0713992 96.2840213,47.639841 94.7558162,46.7617345 C92.7960529,44.9672573 91.1049287,42.8966459 89.1325422,41.1140029 C88.2228775,40.3345158 86.9080846,40.4134112 85.8122267,40.1136085 C81.9155798,39.4946736 78.0457574,38.635502 74.0942782,38.4390523 C71.6737655,38.2855612 69.0954618,38.4789339 66.6816551,38.2556598 C65.5136078,37.5865868 64.5289925,36.1928196 63.5913199,35.2568827 C63.3080852,36.0627604 63.5309649,37.3613008 62.6027598,37.7239044 C60.8556198,38.2615375 59.0027599,38.183076 57.201182,38.3629182 C58.0145942,39.9345158 58.9408269,41.8457583 60.807888,42.3159753 C64.7420102,42.5487169 68.5905308,41.3921094 72.5203138,41.4063106 C74.4950672,41.4355019 76.9518718,41.0252455 78.4299783,42.6974348 C79.2067041,44.3672573 79.4422071,46.2457582 79.9700177,48.0043381 C81.6224832,46.6560146 83.9163687,46.7881645 85.8788933,47.2654821 Z M58.49704,47.4287957 C61.8611424,46.9222868 65.0990122,46.9124249 68.4406295,46.2571981 C68.2706097,46.2165669 68.4398405,45.8063105 68.257592,45.7676517 C64.7763297,45.0295847 59.1155804,44.8098608 58.1570005,45.1467444 C57.6086771,45.3392494 57.5479276,46.2571981 58.49704,47.4287957 Z M87.7984199,38.8418531 C88.4800767,38.949861 89.0528577,38.4438255 89.5641003,38.0670602 C92.0497018,36.027652 92.8966446,32.7021688 95.1810627,30.4837073 C97.2631139,28.3980664 99.5061119,26.4646542 101.384613,24.1802361 C98.4453624,24.1377114 95.3518714,24.1202755 92.4157768,24.1230763 C92.4303724,24.223668 92.3388537,24.2939639 92.3850076,24.3979481 C92.8437847,25.4390132 92.690333,27.2844175 92.4102541,27.5309658 C92.1092679,27.79495 90.3905303,27.449309 89.1664672,27.7143583 C88.6520688,27.8260743 88.4035481,28.4099007 88.0165658,28.8375141 C86.4654811,30.5545949 85.0134101,33.0023266 82.4003924,33.0883226 C77.9617338,33.8062319 73.612227,35.0220504 69.1305703,35.5024843 C68.7061127,35.5474942 65.414594,31.6643385 63.6126217,29.6891906 C62.7033515,28.5806699 61.5278091,27.499092 61.2402352,26.0208672 C60.3932924,26.2110053 59.5167638,26.6105713 58.6437855,26.6375536 C57.3743575,26.4024057 56.1629177,25.927021 54.9203142,25.579526 C55.5222866,26.7862321 55.4875726,27.5716364 57.6863891,28.42209 C61.7427992,29.9921492 64.1305704,33.9882437 67.5372764,36.5025632 C69.5001955,36.6658768 71.4741599,36.6299794 73.4422072,36.7356993 C78.271004,37.1001174 83.007493,38.18493 87.7984199,38.8418531 Z M52.5112413,35.0819715 C53.7518724,36.0785001 55.097829,37.3352653 56.827612,37.19136 C58.6603536,37.1979872 61.2938841,37.4328196 62.0149886,36.4044172 C62.520314,35.6852457 61.816172,34.8899794 61.5715961,33.9869814 C61.6051267,34.1108867 61.2043377,33.9121096 61.2043377,34.0481648 C61.2043377,34.8130958 60.9763298,35.288007 60.5771188,35.5937269 C59.8173555,36.1751076 58.7585784,35.6820109 57.8540419,35.9148314 C58.8067046,35.5598019 59.8891504,35.4863107 60.3779078,34.7676125 C60.8414186,34.0876126 60.4504916,33.0986579 60.3400379,32.2824055 C59.973174,33.004654 59.730176,33.8997625 58.9917145,34.3387763 C58.3151859,34.6024449 57.5826416,34.5140031 56.8749493,34.6141609 C57.6930952,34.1369222 58.792109,34.0927013 59.1242589,33.1609065 C59.3195251,32.6106501 59.1534502,30.9727803 58.6497027,30.4685988 C58.5881642,30.4066659 58.4508861,30.6362517 58.4047323,30.4837073 C58.8216948,31.872228 57.9151859,33.5128591 56.3242589,33.4977506 C56.6757382,33.5009854 56.6990124,33.0066658 56.522681,32.5645751 C56.3940814,32.2414193 56.1404325,31.9913207 55.9262313,31.7530959 C55.6508862,31.4473759 55.5495055,31.5622083 55.5285982,31.4879282 C55.558184,31.5920702 55.5830361,31.6927014 55.5968428,31.7908473 C55.854831,33.5282437 53.9925036,34.4201569 52.5112413,35.0819715 Z" id="path14" fill="#37538C"></path>
                        <polyline id="path16" fill="#37538C" points="28.7008277 3.31006698 30.1366856 3.31006698 30.1366856 15.1127807 28.7008277 15.1127807 28.7008277 18.3009857 35.3689143 18.3009857 38.6056006 6.42489136 41.8666656 18.3009857 48.4859948 18.3009857 48.4859948 15.1127807 47.0500974 15.1127807 47.0500974 3.31006698 48.4859948 3.31006698 48.4859948 0.268275338 42.2560147 0.268275338 42.2560147 3.18817744 43.4970403 3.18817744 43.4970403 13.1416565 40.0899398 0.268275338 36.8532535 0.268275338 33.4462714 13.0926229 33.4462714 3.18817744 34.663155 3.18817744 34.663155 0.268275338 28.7008277 0.268275338 28.7008277 3.31006698"></polyline>
                        <polyline id="path18" fill="#37538C" points="51.5270204 3.31006698 53.133332 3.31006698 53.133332 15.1127807 51.5270204 15.1127807 51.5270204 18.3009857 58.5846139 18.3009857 58.5846139 15.1127807 56.9542392 15.1127807 56.9542392 3.31006698 58.5846139 3.31006698 58.5846139 0.268275338 51.5270204 0.268275338 51.5270204 3.31006698"></polyline>
                        <path d="M68.9751462,3.18817744 C71.6280061,3.18817744 72.6986175,4.13723856 72.6986175,9.27222857 C72.6986175,14.2366071 71.6769213,15.2591712 68.8781048,15.2591712 L66.8339234,15.2591712 L66.8339234,3.18817744 L68.9751462,3.18817744 Z M61.5775133,3.31006698 L63.0130162,3.31006698 L63.0130162,15.1127807 L61.5775133,15.1127807 L61.5775133,18.3009857 L68.6591699,18.3009857 C74.3779074,18.3009857 76.5680454,16.1834315 76.5680454,9.29672561 C76.5680454,2.2634674 74.402365,0.268275338 68.6591699,0.268275338 L61.5775133,0.268275338 L61.5775133,3.31006698 L61.5775133,3.31006698 Z" id="path20" fill="#37538C"></path>
                        <path d="M86.7151852,3.18817744 C89.3680451,3.18817744 90.4386565,4.13723856 90.4386565,9.27222857 C90.4386565,14.2366071 89.4165658,15.2591712 86.6181438,15.2591712 L84.5735679,15.2591712 L84.5735679,3.18817744 L86.7151852,3.18817744 Z M79.3171578,3.31006698 L80.7530552,3.31006698 L80.7530552,15.1127807 L79.3171578,15.1127807 L79.3171578,18.3009857 L86.3988144,18.3009857 C92.1179464,18.3009857 94.3080844,16.1834315 94.3080844,9.29672561 C94.3080844,2.2634674 92.1420095,0.268275338 86.3988144,0.268275338 L79.3171578,0.268275338 L79.3171578,3.31006698 L79.3171578,3.31006698 Z" id="path22" fill="#37538C"></path>
                        <polyline id="path24" fill="#37538C" points="97.0571968 3.31006698 98.4930942 3.31006698 98.4930942 15.1127807 97.0571968 15.1127807 97.0571968 18.3009857 104.260747 18.3009857 104.260747 15.1127807 102.313607 15.1127807 102.313607 3.16367645 106.83984 3.16367645 106.83984 6.44923061 110.100983 6.44923061 110.100983 0.268275338 97.0571968 0.268275338 97.0571968 3.31006698"></polyline>
                        <polyline id="path26" fill="#37538C" points="113.166861 3.31006698 114.602758 3.31006698 114.602758 15.1127807 113.166861 15.1127807 113.166861 18.3009857 126.624849 18.3009857 126.624849 12.3385007 123.363705 12.3385007 123.363705 15.2832343 118.350687 15.2832343 118.350687 11.0003548 122.609464 11.0003548 122.609464 7.93329369 118.350687 7.93329369 118.350687 3.16367645 123.387768 3.16367645 123.387768 6.44923061 126.648912 6.44923061 126.648912 0.268275338 113.166861 0.268275338 113.166861 3.31006698"></polyline>
                        <path d="M138.037472,3.11513996 C139.570805,3.11513996 140.22761,3.96725828 140.22761,5.62209059 C140.22761,7.15498996 139.594868,7.95810631 138.013409,7.95810631 L135.092699,7.95810631 L135.092699,3.11513996 L138.037472,3.11513996 Z M137.818537,10.7811043 C139.497432,10.7811043 139.862718,11.7056407 139.862718,13.0685993 C139.862718,14.5045756 139.448912,15.331755 137.818537,15.331755 L135.092699,15.331755 L135.092699,10.7811043 L137.818537,10.7811043 Z M129.884809,3.31006698 L131.321101,3.31006698 L131.321101,15.1127807 L129.884809,15.1127807 L129.884809,18.3009857 L137.940036,18.3009857 C142.125835,18.3009857 143.707689,16.5971593 143.707689,13.6769622 C143.707689,11.4868242 142.904533,10.2457591 141.63905,9.70998003 C143.293882,9.12631141 144.072975,7.83621282 144.072975,5.30524642 C144.072975,1.75234315 141.833922,0.268275338 138.061929,0.268275338 L129.884809,0.268275338 L129.884809,3.31006698 L129.884809,3.31006698 Z" id="path28" fill="#37538C"></path>
                        <path d="M148.306505,6.54678485 L148.306505,15.1127807 L146.968044,15.1127807 L146.968044,18.3009857 L153.976722,18.3009857 L153.976722,15.1858379 L152.127412,15.1858379 L152.127412,6.86268227 C152.127412,4.45356991 152.662718,3.26152655 155.218142,3.26152655 C157.749108,3.26152655 158.308872,4.40473362 158.308872,6.86268227 L158.308872,15.1858379 L156.458773,15.1858379 L156.458773,18.3009857 L163.37041,18.3009857 L163.37041,15.1127807 L162.007885,15.1127807 L162.007885,6.54678485 C162.007885,3.09079282 161.107294,0.000462280067 155.169227,0.000462280067 C149.304533,0.000462280067 148.306505,3.09079282 148.306505,6.54678485" id="path30" fill="#37538C"></path>
                        <path d="M174.613013,9.73451652 C176.389345,9.73451652 177.046544,10.34284 177.046544,12.4599208 C177.046544,14.6505322 176.437865,15.2591712 174.588161,15.2591712 L171.424848,15.2591712 L171.424848,9.73451652 L174.613013,9.73451652 Z M166.386978,3.31006698 L167.82327,3.31006698 L167.82327,15.1127807 L166.386978,15.1127807 L166.386978,18.3009857 L174.831948,18.3009857 C179.674552,18.3009857 180.745558,16.1349108 180.745558,12.6548715 C180.745558,10.0268242 179.991317,8.22564082 177.703349,7.42248502 L179.893881,3.31006698 L181.42682,3.31006698 L181.42682,0.268275338 L174.807491,0.268275338 L174.807491,3.11513996 L176.024059,3.11513996 L174.126228,6.91167636 L171.424848,6.91167636 L171.424848,3.21267842 L172.714394,3.21267842 L172.714394,0.268275338 L166.386978,0.268275338 L166.386978,3.31006698 L166.386978,3.31006698 Z" id="path32" fill="#37538C"></path>
                        <polyline id="path34" fill="#37538C" points="188.143191 3.31006698 189.700587 3.31006698 189.700587 6.81380654 184.930567 15.1127807 183.981455 15.1127807 183.981455 18.3009857 190.552263 18.3009857 190.552263 15.2591712 188.824453 15.2591712 191.720311 10.099842 194.519127 15.2591712 192.839837 15.2591712 192.839837 18.3009857 199.14319 18.3009857 199.14319 15.1127807 198.16962 15.1127807 193.497037 6.74126216 193.497037 3.31006698 195.078891 3.31006698 195.078891 0.268275338 188.143191 0.268275338 188.143191 3.31006698"></polyline>
                    </g>
                </g>
            </g>
        </g>
    </g>
</svg>