<?xml version="1.0" encoding="UTF-8"?>
<svg width="200px" height="200px" viewBox="0 0 200 200" version="1.1" xmlns="http://www.w3.org/2000/svg" xmlns:xlink="http://www.w3.org/1999/xlink">
    <!-- Generator: Sketch 54.1 (76490) - https://sketchapp.com -->
    <title>millersville</title>
    <desc>Created with Sketch.</desc>
    <g id="millersville" stroke="none" stroke-width="1" fill="none" fill-rule="evenodd">
        <g id="millersville_BGL" transform="translate(0.000000, -0.000000)">
            <g id="millersville" transform="translate(1.000000, 4.000000)">
                <g fill-rule="nonzero" id="g10">
                    <g transform="translate(99.000000, 95.754268) scale(-1, 1) rotate(-180.000000) translate(-99.000000, -95.754268) translate(0.000000, 0.029339)">
                        <g id="g12" transform="translate(-0.000000, 0.000000)">
                            <path d="M182.638128,48.4309435 L181.475061,48.6649377 C175.506461,49.8495795 168.744395,51.1933961 166.146928,57.5200435 C162.711995,67.1101407 162.376862,78.0543238 162.050528,88.6398135 C161.928795,92.6287189 161.801195,96.7525927 161.508595,100.764971 C161.508595,100.764971 161.064928,136.134781 161.064928,136.159721 L161.105262,138.253933 C161.222595,145.231216 161.344328,152.445428 165.944528,157.536087 C170.098128,163.193027 178.316595,162.931892 185.210661,161.970975 C185.129994,162.857806 184.830794,166.160133 184.772128,166.8049 C180.274595,167.228144 175.611328,166.923731 171.093995,166.61125 C165.477395,166.220281 159.670862,165.817577 154.043995,166.783628 C154.043995,166.783628 150.928795,167.359445 149.954195,166.424935 C146.485529,162.30913 144.010529,157.489141 142.045196,153.315388 L103.201997,72.6218426 L107.79193,65.3210749 C117.09793,85.2780715 126.689929,105.791813 136.386062,125.459801 C136.663996,126.01728 137.774262,127.911973 139.392729,127.995595 C140.895329,128.074082 141.198929,126.558621 141.198929,126.558621 C141.198929,126.558621 141.559729,118.882288 141.561196,118.877154 C141.561196,118.877154 143.168662,67.2524444 143.168662,65.5902783 C143.168662,61.1737282 142.685396,56.8994819 140.426729,53.4416482 C138.916062,50.9711382 136.360396,49.8840552 133.891262,48.8321813 C133.891262,48.8321813 132.454662,48.2079521 131.930329,47.9424163 C131.405263,47.677614 130.883863,47.3438604 130.942529,45.7697172 C130.998263,44.2968003 132.800062,43.9843189 134.011529,44.0701413 C147.782062,45.8694765 163.470995,45.9883074 181.888661,44.4259006 C182.695328,44.5073218 183.189595,44.8110009 183.422795,45.3296026 C183.798261,46.5259808 183.512995,48.1147945 182.638128,48.4309435" id="path14" fill="#EDAC09"></path>
                            <path d="M132.771462,46.0183819 C132.932062,45.9582329 133.228329,45.8914822 133.638262,45.8914822 C133.704996,45.8914822 133.770996,45.8929493 133.834062,45.8966169 C141.231196,46.8597343 149.324995,47.3482615 157.892529,47.3482615 C165.258862,47.3482615 173.283728,46.9888346 181.746395,46.2780495 C181.758861,46.4526283 181.747128,46.6176713 181.724395,46.7453045 L181.114261,46.8670696 C175.016595,48.0773847 167.424395,49.5847772 164.450728,56.8224619 L164.420662,56.900949 C160.891128,66.756582 160.549395,77.8394012 160.218662,88.5576588 C160.097662,92.5340942 159.973728,96.6198248 159.681128,100.632203 L159.675262,100.742232 C159.231595,136.123044 159.231595,136.144317 159.231595,136.159721 L159.271928,138.288408 C159.394395,145.570104 159.521995,153.102666 164.523328,158.697256 C167.353995,162.493978 171.913861,164.340992 178.460328,164.340992 C179.915261,164.340992 181.450861,164.253703 183.179328,164.069588 L183.086195,165.092855 C182.104995,165.150069 181.073928,165.17941 179.968795,165.17941 C176.951861,165.17941 173.774328,164.95862 171.220862,164.78184 C168.177528,164.569852 165.029328,164.351261 161.873795,164.351261 C158.845862,164.351261 156.183862,164.555915 153.734529,164.976224 C153.705929,164.981359 152.903662,165.125863 152.080129,165.125863 C151.579995,165.125863 151.307929,165.071582 151.185462,165.03784 C147.941929,161.128156 145.585729,156.530425 143.703996,152.533451 L105.293463,72.7406735 L107.552863,69.1464043 C117.06493,89.5339797 125.754196,108.039332 134.741929,126.271079 C135.143796,127.075755 136.647862,129.690036 139.298129,129.827205 C141.441662,129.938701 142.706662,128.369692 142.996329,126.918781 L143.030796,126.644443 C143.030796,126.644443 143.329996,120.284053 143.383529,119.145624 L143.387196,119.129486 L143.393796,118.934369 C143.459796,116.824753 145.001995,67.2605132 145.001995,65.5902783 C145.001995,61.6329145 144.656596,56.5627943 141.962329,52.4381869 C140.174462,49.5143589 137.218396,48.2548976 134.610662,47.1450753 C134.246196,46.9873676 133.204129,46.5274478 132.788329,46.322061 C132.780262,46.2538432 132.772196,46.1548175 132.771462,46.0183819 L132.771462,46.0183819 Z M133.638262,42.2238605 C130.968196,42.2238605 129.190596,43.5889493 129.110663,45.7007659 C129.037329,47.6519406 129.653329,48.8483188 131.105329,49.5803761 C131.660462,49.8598489 133.009062,50.4481354 133.160862,50.5141526 C135.479662,51.5014763 137.658396,52.4301182 138.863262,54.3981639 C141.044929,57.7408344 141.335329,61.9285248 141.335329,65.5902783 C141.335329,66.8827482 140.285196,100.973292 139.729329,118.819205 L139.739596,118.819939 C139.699996,119.415561 139.622262,121.070392 139.383196,126.139045 C138.939529,125.995274 138.345529,125.278621 138.027996,124.641188 C128.612729,105.545349 119.517196,86.1260256 109.453663,64.5457396 L108.030996,61.4957454 L101.11053,72.5044787 L140.393729,154.111262 C142.402329,158.377439 144.948462,163.330196 148.552795,167.606642 L148.685529,167.748213 C149.418129,168.450929 150.529129,168.793485 152.080129,168.793485 C153.229995,168.793485 154.262529,168.608637 154.377662,168.586631 C156.596729,168.206665 159.057062,168.018883 161.873795,168.018883 C164.901728,168.018883 167.985395,168.233072 170.967128,168.44066 C173.577061,168.621107 176.824995,168.847032 179.968795,168.847032 C181.771328,168.847032 183.398595,168.77588 184.943728,168.630642 L186.460261,168.487605 L187.244194,159.834952 L184.957661,160.154769 C182.417395,160.508327 180.352328,160.67337 178.460328,160.67337 C173.119461,160.67337 169.509262,159.292144 167.422928,156.450471 L167.305595,156.305967 C163.165928,151.726574 163.050062,144.860786 162.938595,138.223125 L162.898262,136.124511 C162.901195,135.945532 163.322128,102.387527 163.341928,100.843458 C163.636728,96.7716643 163.762128,92.6661286 163.883862,88.6955614 C164.205062,78.2523754 164.537995,67.479837 167.857795,58.1794819 C170.095195,52.7939462 176.062328,51.6085709 181.832195,50.4642729 L183.262928,50.1561927 C185.257594,49.4329377 185.806861,46.8025194 185.172528,44.7809264 L185.094794,44.5762731 C184.800728,43.9227029 184.017528,42.7982101 182.073461,42.6001585 L181.904795,42.5832875 L181.733928,42.5972244 C173.263928,43.3168118 165.242728,43.6806399 157.892529,43.6806399 C149.460662,43.6806399 141.505462,43.2009149 134.249129,42.252468 L134.142062,42.2407316 C133.980729,42.2289952 133.812796,42.2238605 133.638262,42.2238605 L133.638262,42.2238605 Z" id="path16" fill="#E8A311"></path>
                            <path d="M65.9119975,50.1547257 C64.2495308,50.7620838 62.5276642,51.3914477 60.9495309,52.4015107 C52.4890645,57.8523301 52.3885978,68.6204673 52.3071978,77.2951261 C52.3071978,77.2951261 52.9312645,94.4243864 53.4401978,108.371618 L47.3425313,119.376684 C47.0374646,111.363664 46.628998,103.382919 46.0093313,95.6060942 C45.348598,82.5728337 44.613798,70.8782552 42.2795981,59.7235506 C41.3299314,54.6086854 37.3796849,50.828101 29.948965,48.2681011 C29.4404717,47.979826 29.1310784,47.1061985 29.1310784,46.4915051 C29.1310784,46.2333046 29.1626117,45.9714364 29.2242117,45.7176369 C29.3760117,45.3369378 29.9417784,44.0987487 30.8426783,44.2491212 C39.4261981,45.2423132 51.9390645,46.3337974 66.8689974,44.348147 C68.9853974,44.0657401 70.3053974,43.8427487 71.1171973,45.2019693 C71.3555307,45.6032071 71.919464,46.8406627 70.876664,47.8426569 C69.3784641,48.8813274 67.6969308,49.5040896 65.9119975,50.1547257" id="path18" fill="#EDAC09"></path>
                            <path d="M49.8703312,47.2910466 C55.6959311,47.2910466 61.4965976,46.9125481 67.1109974,46.1665538 L67.3060641,46.1386799 C67.9895308,46.0484564 68.5805974,45.9685023 69.0139974,45.9685023 L69.0147307,45.9685023 C69.3542641,45.9685023 69.4510641,46.019849 69.4525307,46.019849 L69.4525307,46.019849 C69.4525307,46.019849 69.486264,46.0455223 69.543464,46.1430811 C69.6043307,46.2450409 69.649064,46.3880782 69.6519974,46.4584965 C68.3605974,47.3093848 66.8638641,47.8551269 65.2835308,48.4324105 C63.5264642,49.0742443 61.7092642,49.7380838 59.961731,50.8567085 C50.6659979,56.8452011 50.5596645,68.173751 50.4738645,77.275321 L50.4731312,77.3163983 L50.4745979,77.3626104 L51.5892645,107.929303 L48.9008646,112.780833 C48.6060646,106.3823 48.2599312,100.768638 47.8367979,95.4601228 C47.1760646,82.3967879 46.433198,70.6215217 44.0740647,59.3479862 C43.0092647,53.6132929 38.7295315,49.4586111 31.003645,46.6946914 C30.980765,46.6206054 30.9644117,46.5413848 30.9644117,46.4915051 C30.9644117,46.4181527 30.970425,46.3440667 30.981865,46.2707143 C31.007385,46.2149664 31.0334917,46.1650868 31.0589383,46.1203418 C35.9264382,46.6763533 42.3939981,47.2910466 49.8703312,47.2910466 L49.8703312,47.2910466 Z M69.0213307,42.3008806 C68.3539974,42.3155511 67.6360641,42.3955052 66.8198641,42.5040668 L66.6277308,42.5304737 C61.1731976,43.2551957 55.5353311,43.623425 49.8703312,43.623425 C42.3778647,43.623425 35.8992316,42.9874594 31.0867317,42.4314479 C29.5570717,42.2062559 28.2507851,43.2031155 27.5208984,45.0398605 L27.4427251,45.2833905 C27.3464384,45.6787602 27.2977451,46.0858662 27.2977451,46.4915051 C27.2977451,47.6387372 27.8448851,49.1835394 29.0454251,49.86425 L29.3519584,50.0014191 C36.0072516,52.2951497 39.6461981,55.5842728 40.4770648,60.0587713 C42.7907314,71.1144501 43.5218647,82.7393438 44.178198,95.6992517 C44.7384647,102.739618 45.161598,110.268512 45.5106646,119.446369 L45.7607313,126.015079 L55.2903977,108.814667 L54.1405311,77.2709198 C54.2219311,68.6292696 54.3267978,58.8499231 61.9417309,53.9426453 C63.3460642,53.0448115 64.9703975,52.4513904 66.5411975,51.8785079 C68.3400641,51.2205365 70.201264,50.541293 71.9209307,49.3493159 L72.146064,49.1659349 C73.7711306,47.6057286 73.4565306,45.5518604 72.693864,44.2652588 C71.5241973,42.3096829 69.649064,42.3008806 69.0213307,42.3008806 L69.0213307,42.3008806 Z" id="path20" fill="#E8A311"></path>
                            <path d="M55.4707977,146.041027 C52.9730645,150.564672 41.2125981,142.617669 42.5787981,139.746655 C42.7775314,139.457646 89.2671969,53.1445709 89.2671969,53.1445709 C108.102863,22.6804983 119.700529,-1.13608337 149.770862,2.77653544 C117.50053,23.9871252 58.1342643,141.897348 55.4707977,146.041027" id="path22" fill="#EDAC09"></path>
                            <path d="M90.8555968,54.0629433 C92.4014635,51.5616253 93.8996634,49.1043188 95.3633967,46.7049607 C110.410663,22.0226003 121.283063,4.18908326 143.508929,4.18768956 C143.945996,4.16502366 144.358862,4.19509816 144.790062,4.20742136 C125.690396,20.0143574 96.3856634,65.0533385 57.5673977,138.286208 C55.7039977,141.801256 54.2329311,144.576912 53.9285978,145.048569 L53.8662644,145.154196 C53.7914644,145.289165 53.6367311,145.570104 52.8234645,145.570104 C49.6818645,145.570104 44.816198,141.846001 44.332198,140.353279 C45.4417313,138.326552 51.8847978,126.414116 90.8555968,54.0629433 Z M143.511129,0.520067875 C143.510396,0.520067875 143.509662,0.520067875 143.508929,0.520067875 C119.223863,0.521461571 107.31233,20.0604227 92.2327968,44.7948633 C90.7639302,47.2037573 89.2605969,49.6691325 87.7081303,52.1807199 L87.6531303,52.2753445 C71.9487973,81.4314699 42.2253314,136.601302 41.0226648,138.774001 L40.9236648,138.95885 C40.5650648,139.712179 40.3604648,140.963572 41.4230648,142.646276 C43.3077314,145.63172 48.8135979,149.237726 52.8234645,149.237726 C54.7205978,149.237726 55.2309977,150.192775 56.0596644,148.736729 C56.459331,148.096362 58.5111977,144.334116 60.8065309,140.004122 C102.132063,62.0414875 132.403329,16.3867861 150.777729,4.30798755 L154.907129,1.59453432 L150.007729,0.957321732 C147.779129,0.667652971 145.593062,0.520067875 143.511129,0.520067875 L143.511129,0.520067875 Z" id="path24" fill="#E8A311"></path>
                            <path d="M38.0657182,149.833348 C38.7375982,150.874952 39.6725981,151.820465 41.9869981,153.443755 C45.2129313,155.70521 48.1506646,155.843113 48.2151979,155.883457 C38.9722648,167.330104 27.3183518,187.803502 26.8122051,188.784957 C26.3281318,189.756143 23.2358119,188.531158 20.5459453,186.778768 C17.826012,185.010974 13.8556721,181.206184 14.5031321,180.203456 C22.4113252,171.302872 33.5439849,156.743147 38.0657182,149.833348" id="path26" fill="#EDAC09"></path>
                            <path d="M16.5140054,180.697118 C23.7897719,172.414161 33.261505,160.099754 38.2499315,152.844465 C38.9399981,153.481164 39.8038648,154.151606 40.9346648,154.945279 C41.9092647,155.62819 43.2901314,156.4358 44.9995313,157.016752 C36.8943649,167.658723 27.6726984,183.485977 25.5815985,187.217416 C24.7746385,187.008361 23.2726985,186.366527 21.5462852,185.242035 C19.477992,183.897484 17.298672,181.780533 16.5140054,180.697118 L16.5140054,180.697118 Z M38.0768648,146.467938 L36.5317315,148.829153 C32.051285,155.675869 21.0922053,170.027273 13.1326788,178.985072 L12.9631321,179.208797 C10.7923189,182.571272 19.4591453,188.25902 19.5467786,188.316235 C20.4983519,188.936063 23.7829519,190.962057 26.0376585,190.962057 C27.6059651,190.962057 28.2490984,190.012143 28.4524517,189.604304 C29.1439851,188.264155 40.7439981,168.054092 49.6407979,157.03509 L50.9439312,155.42207 L49.1831979,154.326184 C48.8377979,154.111262 48.5239312,154.070184 48.3156646,154.043778 C46.006398,153.7445 44.171598,152.735904 43.0393314,151.94223 C40.8620648,150.415033 40.1111315,149.622826 39.6058648,148.838689 L38.0768648,146.467938 L38.0768648,146.467938 Z" id="path28" fill="#E8A311"></path>
                            <path d="M45.1667313,146.721738 C49.6143979,149.56121 53.8838644,149.847285 54.9105311,149.847285 C54.9105311,149.847285 56.472531,149.902299 57.3055977,151.926093 C57.6949977,152.871606 60.1164643,157.427525 63.5719309,159.388969 C65.2879308,160.362356 72.5193306,164.67988 73.1345973,165.055445 C74.3555973,165.802173 73.7769973,167.513485 71.8131307,166.49682 C69.968064,165.540304 52.0563978,154.634998 51.4389312,154.310047 C51.1851978,154.177279 50.6337312,154.098792 50.5596645,154.081921 C44.1664647,152.625875 40.1455981,149.019136 38.9722648,147.403182 C37.9310782,145.968408 36.2223382,145.427801 35.0421849,145.133657 C32.5505383,144.512362 13.1581988,139.9205 7.91171226,153.589726 C2.46751906,167.771685 11.7895055,176.121393 12.4692321,176.985485 C12.9748655,177.628052 12.5136721,178.564763 11.7029722,178.074768 C6.80599228,175.112064 -0.79662086,163.777645 3.75517903,150.959308 C8.9214389,136.411319 26.0946385,135.289027 39.4606648,141.321531 C40.8979981,142.13721 41.9532647,144.670804 45.1667313,146.721738" id="path30" fill="#EDAC09"></path>
                            <path d="M4.39684568,162.133817 C3.93851235,158.886505 4.15909902,155.301038 5.48283898,151.573268 C9.14686556,141.254781 18.7386453,139.71438 24.1298185,139.71438 C28.8801317,139.71438 33.8846183,140.832271 38.6085315,142.949222 C38.9157981,143.153142 39.3601981,143.684213 39.8287981,144.245359 C40.7718648,145.372053 42.0625314,146.915388 44.1811313,148.267273 C49.0900646,151.401623 53.8075978,151.660557 54.7792644,151.679629 C54.9134644,151.714838 55.3035977,151.879147 55.6108644,152.624408 C55.8235311,153.140809 56.4343977,154.349657 57.3737977,155.735285 C53.8215311,153.590459 52.5227978,152.807789 52.2917978,152.686757 C51.8855312,152.473302 51.4103312,152.370608 50.9571312,152.289921 C44.8939313,150.910895 41.3203981,147.516878 40.4557981,146.325634 C39.0793315,144.42874 36.9591182,143.721623 35.4847516,143.354861 C33.5525649,142.872202 29.6386917,142.063125 25.1498852,142.063125 C15.4824987,142.062391 8.9297989,145.82097 6.2001123,152.931755 C5.00243233,156.052901 4.40513234,159.141038 4.39684568,162.133817 L4.39684568,162.133817 Z M24.1306985,136.046758 L24.1298185,136.046758 C13.3102921,136.046758 5.25447899,141.258448 2.02751907,150.345348 C-0.694980863,158.012144 0.774325767,164.66741 2.48614572,168.900579 C4.35357901,173.518115 7.63011226,177.684533 10.7539655,179.643043 C14.4329521,181.949977 13.6468921,179.960659 14.2570254,178.704132 C14.6967321,177.79823 16.0181987,177.851043 15.3673654,177.024361 C15.2982854,176.936339 13.7058521,175.613061 13.5151121,175.408407 C6.48053896,167.86411 7.51607893,159.73666 9.62331221,154.246964 C11.7923655,148.595159 17.0164854,145.730013 25.1498852,145.730746 C29.4000651,145.730746 33.173285,146.557428 34.5984449,146.913187 C35.5950449,147.161119 36.8227915,147.56309 37.4888048,148.480729 C38.8439315,150.347548 43.2351314,154.294643 50.1526645,155.86952 C50.1761312,155.875388 50.2369979,155.887858 50.3213312,155.902528 C50.3931979,155.914998 50.5281312,155.93407 50.6447312,155.967078 C51.1184645,156.241416 53.5993311,157.740007 56.2187977,159.322219 C63.6100642,163.785714 69.8213974,167.529622 70.9697973,168.124511 C71.6363973,168.470001 72.2853973,168.644579 72.8991973,168.644579 C74.1619973,168.644579 75.1857306,167.90372 75.5083972,166.758688 C75.8537972,165.533703 75.2839972,164.220694 74.0915973,163.490837 C73.4235306,163.082998 66.2185308,158.782345 64.4761308,157.793554 C61.5273976,156.119651 59.2899976,151.929027 59.0010643,151.227778 C57.988331,148.76827 55.9943977,148.050884 54.9757977,148.014941 C54.7345311,148.013474 50.5479312,147.981199 46.153798,145.175468 C44.5118647,144.127996 43.518198,142.939686 42.6418647,141.892213 C41.8953314,140.999514 41.9085314,139.275732 41.0226648,138.774001 C41.0226648,138.774001 40.6347314,139.801669 39.1218648,139.195044 C33.9590516,137.124305 29.4296184,136.046758 24.1306985,136.046758 L24.1306985,136.046758 Z" id="path32" fill="#E8A311"></path>
                            <path d="M107.79193,65.3210749 C117.09793,85.2780715 126.689929,105.791813 136.386062,125.459801 C136.663996,126.01728 137.774262,127.911973 139.392729,127.995595 C140.895329,128.074082 141.198929,126.558621 141.198929,126.558621 C141.198929,126.558621 141.559729,118.882288 141.561196,118.877154 C141.561196,118.877154 143.168662,67.2524444 143.168662,65.5902783 C143.168662,61.1737282 142.685396,56.8994819 140.426729,53.4416482 C138.916062,50.9711382 136.360396,49.8840552 133.891262,48.8321813 C133.891262,48.8321813 132.454662,48.2079521 131.929596,47.9424163 C131.405263,47.677614 130.883863,47.3438604 130.942529,45.7697172 C130.998263,44.2968003 132.800062,43.9843189 134.011529,44.0701413 C147.782062,45.8694765 163.470995,45.9883074 181.888661,44.4259006 C182.695328,44.5073218 183.189595,44.8110009 183.422795,45.3296026 C183.798261,46.5259808 183.512995,48.1147945 182.638128,48.4309435 L181.475061,48.6649377 C175.506461,49.8495795 168.744395,51.1933961 166.146928,57.5200435 C162.711995,67.1101407 162.376862,78.0543238 162.050528,88.6398135 C161.928795,92.6287189 161.801195,96.7525927 161.508595,100.764971 C161.508595,100.764971 161.064928,136.134781 161.064928,136.159721 L161.105262,138.253933 C161.222595,145.231216 161.344328,152.445428 165.944528,157.536087 C170.098128,163.193027 178.316595,162.931892 185.210661,161.970975 C185.129994,162.857806 184.830794,166.160133 184.772128,166.8049 C180.274595,167.228144 175.611328,166.923731 171.093995,166.61125 C165.477395,166.220281 159.670862,165.817577 154.043995,166.783628 C154.043995,166.783628 150.928795,167.359445 149.954195,166.424935 C146.485529,162.30913 144.010529,157.489141 142.045196,153.315388 L103.201997,72.6218426 L107.79193,65.3210749" id="path34" fill="#231F20"></path>
                            <path d="M46.008598,95.6060942 C45.348598,82.5728337 44.6130647,70.8782552 42.2788647,59.7235506 C41.3291981,54.6086854 37.3796849,50.828101 29.948085,48.2681011 C29.4395917,47.979826 29.1310784,47.1061985 29.1310784,46.4915051 C29.1310784,46.2333046 29.1617317,45.9714364 29.2242117,45.7176369 C29.3760117,45.3369378 29.9417784,44.0987487 30.8426783,44.2491212 C39.4261981,45.2423132 51.9390645,46.3337974 66.8682641,44.348147 C68.9846641,44.0657401 70.304664,43.8427487 71.1171973,45.2019693 C71.3555307,45.6032071 71.9187307,46.8406627 70.876664,47.8426569 C69.3784641,48.8813274 67.6969308,49.5040896 65.9119975,50.1547257 C64.2487975,50.7620838 62.5276642,51.3914477 60.9495309,52.4015107 C52.4890645,57.8523301 52.3878645,68.6204673 52.3071978,77.2951261 C52.3071978,77.2951261 52.9312645,94.4243864 53.4401978,108.371618 L47.3425313,119.376684 C47.0374646,111.363664 46.628998,103.382919 46.008598,95.6060942" id="path36" fill="#231F20"></path>
                            <path d="M55.4707977,146.041027 C52.9730645,150.564672 41.2118648,142.617669 42.5787981,139.746655 C42.7767981,139.457646 89.2664636,53.1445709 89.2664636,53.1445709 C108.102863,22.6804983 119.700529,-1.13608337 149.770862,2.77653544 C117.50053,23.9871252 58.133531,141.897348 55.4707977,146.041027" id="path38" fill="#231F20"></path>
                            <path d="M27.8162851,164.1056 L27.8162851,164.104064" id="path40" fill="#231F20"></path>
                            <path d="M14.5031321,180.203456 C13.8556721,181.206184 17.826012,185.010974 20.5450653,186.778768 C23.2358119,188.531158 26.3278385,189.756143 26.8119118,188.784957 C27.3181318,187.803502 38.9722648,167.330104 48.2144646,155.883457 C48.1499312,155.843113 45.212198,155.70521 41.9869981,153.443755 C39.6725981,151.820465 38.7375982,150.874952 38.0648382,149.833348 C33.5431049,156.743147 22.4110319,171.302872 14.5031321,180.203456" id="path42" fill="#231F20"></path>
                            <path d="M22.7560962,139.569142 C22.7044299,139.270597 22.6542742,138.971319 22.6041186,138.673509 L22.6041186,138.673509 C22.6542742,138.971319 22.7059406,139.270597 22.7576069,139.569875 C22.7560962,139.569142 22.7560962,139.569142 22.7560962,139.569142" id="path44" fill="#231F20"></path>
                            <path d="M7.91083226,153.589726 C2.46729906,167.771685 11.7892122,176.121393 12.4692321,176.985485 C12.9739855,177.628052 12.5127921,178.564763 11.7029722,178.074768 C6.80569895,175.112064 -0.79662086,163.777645 3.75517903,150.959308 C8.92114556,136.411319 26.0946385,135.289027 39.4606648,141.321531 C40.8979981,142.13721 41.9532647,144.670804 45.165998,146.721738 C49.6136645,149.56121 53.8831311,149.847285 54.9105311,149.847285 C54.9105311,149.847285 56.472531,149.902299 57.3055977,151.926093 C57.6949977,152.871606 60.1164643,157.427525 63.5719309,159.388969 C65.2879308,160.362356 72.5193306,164.67988 73.1345973,165.055445 C74.3555973,165.802173 73.7769973,167.513485 71.8131307,166.49682 C69.9673307,165.540304 52.0556645,154.634998 51.4381978,154.310047 C51.1851978,154.177279 50.6337312,154.098792 50.5589312,154.081921 C44.1664647,152.625875 40.1448648,149.019136 38.9722648,147.403182 C37.9310782,145.968408 36.2223382,145.427801 35.0413049,145.133657 C32.550245,144.512362 13.1573188,139.9205 7.91083226,153.589726" id="path46" fill="#231F20"></path>
                            <path d="M192.787461,47.3467945 L193.310328,47.3467945 C193.905794,47.3467945 194.411061,47.5646512 194.411061,48.1235968 C194.411061,48.521167 194.122128,48.9187372 193.310328,48.9187372 C193.074928,48.9187372 192.913594,48.9011326 192.787461,48.8827945 L192.787461,47.3467945 Z M192.787461,44.8396083 L192.065128,44.8396083 L192.065128,49.3698546 C192.443528,49.4226684 192.804328,49.4784162 193.345528,49.4784162 C194.031928,49.4784162 194.482928,49.3339119 194.753528,49.1358604 C195.024128,48.9370753 195.169328,48.6304621 195.169328,48.1962157 C195.169328,47.602061 194.772594,47.2404335 194.284194,47.0959292 L194.284194,47.0585194 C194.682394,46.9873676 194.952994,46.6264736 195.041728,45.9567659 C195.150261,45.253316 195.259528,44.9826456 195.330661,44.8396083 L194.573128,44.8396083 C194.464594,44.9826456 194.355328,45.3985539 194.266594,45.9941756 C194.158061,46.5714593 193.869861,46.787849 193.292728,46.787849 L192.787461,46.787849 L192.787461,44.8396083 Z M193.544994,50.6329835 C191.758594,50.6329835 190.296328,49.0991841 190.296328,47.2052243 C190.296328,45.2723877 191.758594,43.7547258 193.563328,43.7547258 C195.366594,43.7378548 196.810528,45.2723877 196.810528,47.1846856 C196.810528,49.0991841 195.366594,50.6329835 193.563328,50.6329835 L193.544994,50.6329835 Z M193.563328,51.2652815 C195.782394,51.2652815 197.551194,49.4600781 197.551194,47.2052243 C197.551194,44.9114937 195.782394,43.1246284 193.544994,43.1246284 C191.324461,43.1246284 189.520461,44.9114937 189.520461,47.2052243 C189.520461,49.4600781 191.324461,51.2652815 193.544994,51.2652815 L193.563328,51.2652815 L193.563328,51.2652815 Z" id="path48" fill="#231F20"></path>
                            <path d="M143.911529,140.775056 C144.333929,146.354975 145.952395,153.720293 149.229662,159.216591 C145.507262,144.942941 146.484062,128.362357 146.748795,112.84685 L147.902329,80.0429083 C148.300529,71.7878254 149.770862,57.3007198 142.937662,52.380972 C146.925529,62.4889374 145.205129,74.6661749 144.975595,87.4889138 C144.444662,104.956329 143.265462,132.233165 143.911529,140.775056" id="path50" fill="#FFFFFF"></path>
                            <path d="M42.5787981,50.932995 C42.2150647,50.7422787 41.0607981,50.3828517 40.7659981,51.1677228 C40.3032648,52.4015107 41.6298647,52.7822098 42.3353314,53.5399405 C45.746798,57.2075622 45.814998,63.1087655 46.371598,68.4488226 C46.8159979,62.418519 47.1393979,55.0818086 42.5787981,50.932995" id="path52" fill="#FFFFFF"></path>
                            <path d="M127.964463,19.2578737 C127.964463,19.2578737 123.800596,18.5375528 119.278863,24.3206587 C101.395797,47.194955 50.0653979,143.332855 50.0653979,143.332855 C49.9113979,144.109657 52.3966645,145.047835 52.8234645,144.392064 C53.2143311,143.789841 105.307396,43.1246284 127.964463,19.2578737" id="path54" fill="#FFFFFF"></path>
                        </g>
                    </g>
                </g>
            </g>
        </g>
    </g>
</svg>