<?xml version="1.0" encoding="UTF-8"?>
<svg width="200px" height="200px" viewBox="0 0 200 200" version="1.1" xmlns="http://www.w3.org/2000/svg" xmlns:xlink="http://www.w3.org/1999/xlink">
    <!-- Generator: Sketch 54.1 (76490) - https://sketchapp.com -->
    <title>millsaps</title>
    <desc>Created with Sketch.</desc>
    <g id="millsaps" stroke="none" stroke-width="1" fill="none" fill-rule="evenodd">
        <g id="millsaps_BGL">
            <g id="millsaps" transform="translate(0.000000, 24.000000)">
                <g id="g10" transform="translate(99.884657, 76.410612) scale(-1, 1) rotate(-180.000000) translate(-99.884657, -76.410612) translate(0.000000, 0.055366)">
                    <g id="g12">
                        <path d="M92.7575525,58.3547852 C113.606918,74.1707017 137.582465,92.7455571 165.23183,114.494576 C168.541634,117.360551 161.533099,125.709339 157.714414,122.477506 L92.8258339,72.174854 L92.7575525,58.3547852 L92.7575525,58.3547852" id="path14" fill="#100C00"></path>
                        <path d="M92.7008051,64.0415209 C111.802996,78.6869646 134.137021,95.98385 160.304494,116.399536 C163.268277,118.812915 160.402303,121.903573 157.000227,119.161243 L92.6528235,69.2793524 L92.7008051,64.0415209 L92.7008051,64.0415209" id="path16" fill="#FFFFFF"></path>
                        <path d="M165.961242,113.816837 C172.835982,111.10588 181.477273,111.037137 189.623525,117.350401 C197.766546,123.665972 201.964009,135.731484 197.841287,144.01153 C197.919718,144.051669 197.980618,144.096421 198.04244,144.142557 C199.001148,144.887655 199.199534,146.249131 198.483501,147.17416 C197.765162,148.100112 196.397688,148.246824 195.439441,147.510492 C193.407608,149.786847 190.673121,151.468508 187.747169,152.369546 C187.308415,152.485809 186.827216,152.411069 186.446131,152.11303 C185.836674,151.642903 185.707031,150.780158 186.158242,150.19792 C186.610837,149.615221 187.476812,149.526178 188.087193,149.998151 C188.23898,150.117643 188.36078,150.260204 188.440595,150.413837 C189.663202,149.752707 190.813375,148.893191 191.79146,147.890192 L167.041749,128.739558 C164.23529,130.610377 161.227216,131.133099 159.361472,129.686271 C159.030677,129.427448 158.749246,129.120643 158.552245,128.834599 L157.469431,123.442211 C157.62168,123.639213 157.040365,123.253053 158.019373,124.014299 C159.001149,124.774161 162.668047,124.556398 165.167239,121.337944 C167.662741,118.115799 167.722256,115.101266 165.961242,113.816837 L165.961242,113.816837 Z M195.207377,138.040135 L175.535405,122.749709 C174.377389,121.898959 173.726409,120.990539 173.952937,120.359397 C175.000226,117.433446 185.783156,122.706341 187.476812,124.130562 C192.092267,128.015222 195.023755,133.124795 195.207377,138.040135 L195.207377,138.040135 L195.207377,138.040135 Z" id="path18" fill="#100C00"></path>
                        <path d="M192.610837,146.685117 L168.133329,127.708417 C171.114183,125.798843 172.17439,123.24844 172.931022,121.199074 L173.755936,123.339328 L172.340019,128.912108 L177.45236,126.203918 L176.592844,131.923872 L181.843133,129.610608 L181.098496,134.749708 L185.958473,132.799535 L184.401841,137.97739 L189.515105,135.555245 L188.027677,140.788462 L192.86274,138.1504 L190.491806,142.79446 L194.39815,139.340712 C195.271506,142.338635 194.470583,143.899881 192.610837,146.685117 L192.610837,146.685117" id="path20" fill="#FFFFFF"></path>
                        <polyline id="path22" fill="#100C00" points="141.892961 147.414529 108.679121 137.164933 88.6745076 90.3257186 68.0498253 124.637598 35.3584766 114.576698 27.6852588 112.212685 27.7014987 88.9527083 35.247427 91.2419816 35.1591225 48.4442894 27.7330097 46.1826978 27.7485114 23.0366776 35.1625366 25.3218909 59.1026513 32.70399 66.8119937 35.0817984 66.7953847 58.2246814 59.3374841 55.8994219 59.219837 78.0936543 81.0934236 39.4833208 95.6595132 43.975639 117.993077 96.2172986 117.985233 73.9792369 110.604842 71.7314861 110.620066 48.58685 118.126871 50.9005754 141.828832 58.2099178 148.777851 60.3515556 148.761242 83.4975758 141.939097 81.3647038 141.78408 124.101496 148.729869 126.266664 148.713722 149.52664 141.892961 147.414529 141.892961 147.414529"></polyline>
                        <path d="M116.685118,89.836676 L109.367933,72.7197214 L116.680043,74.9467109 L116.685118,89.836676 Z M60.5522476,73.0934238 L60.6339085,57.6710482 L67.9898484,59.9644737 L60.5522476,73.0934238 Z M29.0394456,45.2161004 L29.0529635,24.8049821 L65.5054194,36.0452586 L65.4911172,56.4502869 L58.041521,54.1277956 L57.9141854,78.0871953 L60.3557078,78.7372529 L81.7116473,41.0404142 L94.6966528,45.0445202 L116.792154,96.7303321 L119.298728,96.2168373 L119.290885,73.0122242 L111.910955,70.7649348 L111.924334,50.3552467 L147.471738,61.3153387 L147.456974,81.7222586 L140.639904,79.5903094 L140.474737,125.061127 L147.423756,127.226756 L147.409454,147.755936 L142.277736,146.167009 L109.641981,136.09596 L88.8715087,87.463435 L67.4569764,123.08927 L28.9916948,111.248901 L29.0057202,90.7128005 L36.5567234,93.0034579 L36.4628365,47.4763541 L29.0394456,45.2161004 Z M26.44429,21.2681886 L26.4266199,47.1497105 L33.8554086,49.4117635 L33.9381306,89.4800439 L26.3970466,87.192616 L26.378869,113.176468 L68.6426742,126.185925 L88.4770451,93.1880023 L107.715799,138.233907 L150.017989,151.297343 L150.035982,125.30611 L143.093422,123.142327 L143.238751,83.1390983 L150.065971,85.2733543 L150.083964,59.3877724 L109.315338,46.8184533 L109.298729,72.5587064 L96.6223736,42.9065733 L80.4747385,37.9262274 L68.1001136,59.7697794 L68.1181067,34.1185689 L26.44429,21.2681886 L26.44429,21.2681886 Z" id="path24" fill="#100C00" fill-rule="nonzero"></path>
                        <polyline id="path26" fill="#989696" points="141.892961 147.414529 108.679121 137.164933 88.6745076 90.3257186 68.0498253 124.637598 35.3584766 114.576698 27.6852588 112.212685 27.7014987 88.9527083 35.247427 91.2419816 35.1591225 48.4442894 27.7330097 46.1826978 27.7485114 23.0366776 35.1625366 25.3218909 59.1026513 32.70399 66.8119937 35.0817984 66.7953847 58.2246814 59.3374841 55.8994219 59.219837 78.0936543 81.0934236 39.4833208 95.6595132 43.975639 117.993077 96.2172986 117.985233 73.9792369 110.604842 71.7314861 110.620066 48.58685 118.126871 50.9005754 141.828832 58.2099178 148.777851 60.3515556 148.761242 83.4975758 141.939097 81.3647038 141.78408 124.101496 148.729869 126.266664 148.713722 149.52664 141.892961 147.414529 141.892961 147.414529"></polyline>
                        <path d="M28.3861585,45.6992376 L28.4007375,23.9206453 L66.1587065,35.5635516 L66.1434816,57.3374841 L58.6892719,55.0136088 L58.5670112,78.0899634 L59.7877724,78.4156843 L81.4025355,40.261683 L95.1783137,44.5103564 L117.392846,96.4738154 L118.645902,96.2168373 L118.638059,73.4957306 L111.258129,71.2479798 L111.272431,49.4708177 L148.124564,60.8332165 L148.108877,82.6094558 L141.289501,80.4775066 L141.129408,124.581312 L148.076582,126.74694 L148.061357,148.641288 L142.085348,146.790769 L109.16032,136.630216 L88.7732388,88.8945768 L67.7536315,123.863434 L28.3383615,111.731024 L28.3536786,89.8329851 L35.9021906,92.1227197 L35.810795,47.9603218 L28.3861585,45.6992376 Z M27.0963315,22.1527099 L27.0799071,46.6662041 L34.5074501,48.9277958 L34.5928942,90.3612434 L27.0492727,88.0724315 L27.0321562,112.694346 L68.3460191,125.411762 L88.5757763,91.7568605 L108.19746,137.699651 L141.700573,148.038289 L141.69965,148.038289 L149.366086,150.411992 L149.383157,125.786387 L142.438751,123.621681 L142.589154,82.2519011 L149.413606,84.3856957 L149.431138,59.8698947 L109.967241,47.7028823 L109.951554,72.2149924 L117.332408,74.4627432 L117.339328,93.0265259 L96.1407127,43.4407371 L80.7838503,38.7045896 L59.8860423,75.5935391 L59.9856963,56.785235 L67.4477492,59.1118786 L67.4648195,34.600276 L27.0963315,22.1527099 L27.0963315,22.1527099 Z" id="path28" fill="#989696" fill-rule="nonzero"></path>
                        <polyline id="path30" fill="#29358F" points="141.892961 147.414529 108.679121 137.164933 88.6745076 90.3257186 68.0498253 124.637598 35.3584766 114.576698 27.6852588 112.212685 27.7014987 88.9527083 35.247427 91.2419816 35.1591225 48.4442894 27.7330097 46.1826978 27.7485114 23.0366776 35.1625366 25.3218909 59.1026513 32.70399 66.8119937 35.0817984 66.7953847 58.2246814 59.3374841 55.8994219 59.219837 78.0936543 81.0934236 39.4833208 95.6595132 43.975639 117.993077 96.2172986 117.985233 73.9792369 110.604842 71.7314861 110.620066 48.58685 118.126871 50.9005754 141.828832 58.2099178 148.777851 60.3515556 148.761242 83.4975758 141.939097 81.3647038 141.78408 124.101496 148.729869 126.266664 148.713722 149.52664 141.892961 147.414529 141.892961 147.414529"></polyline>
                        <path d="M27.8894572,46.0668962 L27.9047744,23.2484423 L66.6555923,35.1971387 L66.6394447,58.0119939 L59.1824668,55.6871958 L59.0634357,78.0927316 L59.3559385,78.1707016 L81.1672413,39.6696645 L95.5441729,44.1033899 L117.849132,96.2786596 L118.149478,96.2172986 L118.141635,73.8634353 L110.761243,71.6156845 L110.776006,48.7986147 L148.62145,60.4668958 L148.605302,83.2848883 L141.783618,81.1520164 L141.782695,81.3642425 L141.627678,124.216375 L148.573468,126.381542 L148.55732,149.314875 L141.938635,147.26551 L108.794461,137.037136 L88.698037,89.9829274 L67.9787757,124.452131 L27.8417063,112.097344 L27.8575772,89.1635503 L35.4042436,91.4528235 L35.3153855,48.3284878 L27.8894572,46.0668962 Z M27.592433,22.8249129 L27.5767929,46.2984994 L35.0030441,48.5600911 L35.0906566,91.0311396 L27.5454203,88.7418663 L27.5288574,112.328025 L68.1208749,124.823065 L68.1840813,124.718336 L88.6505168,90.6685098 L108.56378,137.29273 L148.870123,149.738866 L148.886271,126.151323 L141.940942,123.986617 L142.094575,81.5773913 L148.917643,83.7102632 L148.933791,60.2362153 L141.874968,58.0599755 L110.463665,48.3750853 L110.44844,71.8472877 L117.829293,74.0950385 L117.836214,95.4528234 L95.7748534,43.8476575 L95.7051879,43.8260658 L81.0191445,39.2969771 L80.9573221,39.4061813 L59.379468,77.4948078 L59.4929628,56.111648 L66.9517861,58.4373688 L66.9683951,34.9664582 L59.1492488,32.5546013 L27.592433,22.8249129 L27.592433,22.8249129 Z" id="path32" fill="#FFFFFF" fill-rule="nonzero"></path>
                        <path d="M117.116952,77.4809669 C52.5337934,28.5827444 19.3762394,7.30482104 0,0 L117.182004,90.6606667 L117.116952,77.4809669 L117.116952,77.4809669" id="path34" fill="#100C00"></path>
                        <path d="M117.153861,82.9670106 C63.6835048,42.0598836 36.6410602,22.8240363 21.9016834,14.3095729 L117.153861,88.0835041 L117.153861,82.9670106 L117.153861,82.9670106" id="path36" fill="#FFFFFF"></path>
                    </g>
                </g>
            </g>
        </g>
    </g>
</svg>