<svg width="200" height="200" viewBox="0 0 200 200" fill="none" xmlns="http://www.w3.org/2000/svg">
<path d="M157.757 143.802V122.363V86.5402C152.883 84.7966 148.009 83.7663 143.016 82.8152C140.083 82.2604 136.081 81.7849 132.673 81.3886V128.03C121.974 129.496 111.67 130.012 105.528 130.012C94.5909 130.012 83.1386 129.14 72.0429 127.158V148.399C82.1083 149.825 92.2133 150.42 101.565 150.42C112.106 150.42 122.647 149.825 132.673 148.636V167.856H171.825V148.121H157.757V143.802ZM171.548 112.377C169.447 115.944 165.92 118.678 161.205 121.056V142.811C179.394 137.62 190.133 130.091 195.166 118.084C192.035 117.331 174.638 113.13 171.548 112.377ZM75.649 82.1415L100.456 115.112L126.61 80.8735C119.873 80.279 111.274 79.962 102.992 80.0016C94.2739 80.0413 85.1992 80.5961 75.649 82.1415ZM158.986 83.3304C159.223 83.4096 159.937 83.687 160.095 83.7266C167.704 86.6591 171.865 90.3048 171.865 90.3048H191.203V61.5749H168.14C168.14 62.6052 168.1 64.2299 168.1 65.2999C165.128 64.3092 161.68 63.3185 157.757 62.407V52.2624H171.825V32.4883L128.829 32.5279L110.878 56.344C108.381 56.3044 105.806 56.2648 103.15 56.2648C98.8311 56.2648 94.5909 56.3837 90.43 56.5818L72.4392 32.5279H29.2056V52.2624H43.4715V65.181C19.1798 72.948 3.4873 85.9458 3.4873 103.025C3.4873 119.074 18.9024 133.063 43.4715 141.583V148.082H29.2056V167.816H68.6349V83.4096C62.6115 84.6777 57.3807 86.025 52.1103 88.0064C48.7023 89.2745 46.0076 90.3841 43.4715 91.6918V118.52C33.7627 113.923 28.0167 108.415 28.0167 103.025C28.0167 100.132 29.8396 97.1207 33.1683 94.2279C33.2476 94.1487 33.3664 94.0694 33.4457 93.9902C33.5646 93.9109 33.6438 93.8316 33.7627 93.7524C33.9212 93.5939 34.1194 93.475 34.2779 93.3165L34.3175 93.2769C41.2127 87.8875 53.3387 82.9737 68.5953 79.9224C70.1408 79.6054 71.7259 79.328 73.3506 79.0506C82.4253 77.5051 92.4114 76.6333 102.992 76.6333C129.661 76.6333 147.652 79.3676 158.986 83.3304Z" fill="#0A2240"/>
<path d="M39.9842 112.693C37.765 111.346 35.9421 109.959 34.5552 108.612C33.1682 107.225 31.5039 105.164 31.5039 103.064C31.5039 101.32 32.8908 99.1407 35.4666 96.9215C35.5062 96.8819 35.5459 96.8423 35.5855 96.8027L35.7044 96.6838L35.7836 96.6045C35.8233 96.5649 35.9025 96.5253 35.9421 96.446C36.1007 96.3271 36.2592 96.2082 36.4177 96.0497L36.4573 96.0101C37.4876 95.1779 38.6764 94.3854 39.9445 93.6325V112.693H39.9842ZM72.1221 123.63V83.3293L72.8353 84.2804L97.6422 117.25L100.416 120.936L103.23 117.29L129.146 83.3689V124.978C119.715 126.127 110.917 126.523 105.488 126.523C94.1153 126.523 83.0592 125.572 72.6372 123.71L72.1221 123.63ZM175.312 29H171.825L128.829 29.0396H127.085L126.055 30.4266L109.174 52.8161C107.153 52.7765 105.132 52.7765 103.19 52.7765C99.5047 52.7765 95.7797 52.8558 92.1339 53.0143L75.2526 30.4662L74.2223 29.0793H25.7183V55.8278H39.9842V62.6834C14.147 71.5203 0 85.7862 0 103.064C0 111.821 4.12126 120.341 11.8883 127.712C18.6646 134.132 28.3733 139.798 40.0238 144.118V144.673H25.7579V171.421H72.1617V152.043C81.5138 153.351 91.4207 154.025 101.605 154.025C111.155 154.025 120.388 153.549 129.186 152.638V167.934V171.421H175.352V144.673H167.307C174.559 142.216 180.424 139.363 185.179 135.915C191.322 131.477 195.641 126.127 198.415 119.509L200 115.745L196.037 114.754C192.827 113.961 175.471 109.721 172.34 109.008L169.843 108.414L168.536 110.633C167.109 113.05 164.811 115.111 161.284 117.092V88.0053C166.594 90.383 169.526 92.9192 169.566 92.9588L170.557 93.8306H171.864H191.203H194.69V58.0866H164.613V60.5831C163.503 60.2661 162.393 59.9887 161.244 59.6717V55.7486H175.312V29ZM171.547 112.376C174.678 113.09 192.035 117.33 195.205 118.122C190.172 130.09 179.394 137.659 161.244 142.85V121.094C165.92 118.677 169.447 115.943 171.547 112.376ZM132.633 81.4272C136.041 81.7838 140.044 82.299 142.976 82.8538C147.969 83.7652 152.883 84.7955 157.717 86.5788V122.402V143.84V148.12H171.785V167.855H132.673V148.635C122.647 149.864 112.106 150.419 101.565 150.419C92.2132 150.419 82.0686 149.824 72.0428 148.398V127.157C83.1385 129.139 94.5908 130.01 105.528 130.01C111.67 130.01 121.973 129.495 132.673 128.029L132.633 81.4272ZM103.903 80.0006C111.908 80.0006 120.111 80.3176 126.61 80.8724L100.456 115.111L75.6489 82.1405C85.1991 80.5554 94.3135 80.0402 103.032 80.0006C103.309 80.0006 103.586 80.0006 103.903 80.0006ZM171.825 32.4872V52.2613H157.757V62.406C161.68 63.3174 165.128 64.3081 168.1 65.2988C168.1 64.2289 168.139 62.5645 168.139 61.5738H191.203V90.3037H171.864C171.864 90.3037 167.743 86.6184 160.095 83.7256C159.937 83.686 159.184 83.4086 158.986 83.3293C147.692 79.3666 129.661 76.6323 102.992 76.6323C92.4113 76.6323 82.4252 77.5041 73.3505 79.0495C71.7258 79.3269 70.1407 79.6043 68.5952 79.9213C53.3386 83.0123 41.2126 87.8865 34.3174 93.2758C34.2778 93.2758 34.2778 93.3154 34.2778 93.3154C34.0797 93.4739 33.9211 93.5928 33.7626 93.7513C33.6437 93.8306 33.5645 93.9098 33.4456 93.9891C33.3664 94.0684 33.2475 94.1476 33.1682 94.2269C29.8395 97.1197 28.0166 100.092 28.0166 103.024C28.0166 108.414 33.7626 113.922 43.4714 118.519V91.6907C46.0075 90.383 48.7022 89.2734 52.1102 88.0053C57.3806 86.0636 62.6115 84.6766 68.6348 83.4086V167.815H29.2055V148.081H43.4714V141.582C18.8627 133.062 3.48722 119.073 3.48722 103.024C3.48722 85.9447 19.2193 72.9469 43.4714 65.1799V52.2613H29.2055V32.5268H72.4391L90.43 56.5411C94.5908 56.343 98.831 56.2241 103.15 56.2241C105.805 56.2241 108.342 56.2637 110.878 56.3033L128.829 32.4872H171.825Z" fill="#CC9800"/>
<path d="M182.643 166.389V171.263H181.891V166.389H179.909V165.676H184.585V166.389H182.643Z" fill="#0A2240"/>
<path d="M190.331 166.626L188.627 171.223H187.874L186.17 166.626L186.091 171.302H185.338L185.536 165.715H186.566L188.27 170.312L189.974 165.715H190.965L191.163 171.302H190.41L190.331 166.626Z" fill="#0A2240"/>
</svg>
