<?xml version="1.0" encoding="UTF-8"?>
<svg width="200px" height="200px" viewBox="0 0 200 200" version="1.1" xmlns="http://www.w3.org/2000/svg" xmlns:xlink="http://www.w3.org/1999/xlink">
    <!-- Generator: Sketch 54.1 (76490) - https://sketchapp.com -->
    <title>mit</title>
    <desc>Created with Sketch.</desc>
    <g id="mit" stroke="none" stroke-width="1" fill="none" fill-rule="evenodd">
        <g id="mit_BGL" transform="translate(0.000000, 0.000000)">
            <g id="mit" transform="translate(0.000000, 21.000000)">
                <g id="g10" transform="translate(99.937692, 79.287231) scale(-1, 1) rotate(-180.000000) translate(-99.937692, -79.287231) translate(0.000000, 0.284117)" fill-rule="nonzero">
                    <g id="g12">
                        <path d="M53.1224909,97.6323963 C43.9466656,105.150402 44.4100674,89.4993124 46.9729583,83.9481599 C51.4945782,74.1527707 45.2215814,74.2798735 41.5747778,79.0345152 C35.0307779,87.5723343 28.3434759,101.801368 28.3434759,101.801368 C29.8738435,79.2966958 56.5188771,28.1555632 100.170465,28.1555632 L100.170465,39.6721236 C100.170465,39.6721236 70.5525216,83.3525213 53.1224909,97.6323963" id="path14" fill="#231F20"></path>
                        <path d="M145.278501,95.2787515 C154.455323,102.797256 153.993267,87.146166 151.43227,81.5930198 C146.909404,71.7971322 153.273018,74.1637365 157.119996,78.7489077 C164.522862,87.5723343 171.263298,101.801368 171.263298,101.801368 C168.640993,77.6448579 143.090339,28.1555632 99.4372561,28.1555632 L99.4362592,39.6721236 C99.4362592,39.6721236 127.84548,80.9978796 145.278501,95.2787515" id="path16" fill="#231F20"></path>
                        <path d="M153.887597,32.2402484 C151.952644,31.3695693 150.750401,31.345993 151.921741,32.611588 C152.809965,33.3183294 153.686227,34.0381798 154.544046,34.7794135 C155.20847,35.2907156 155.727348,35.743401 156.098189,36.1431019 C173.264544,51.6640486 185.067659,74.1742038 185.067659,99.2284087 C185.067659,118.17819 177.888095,135.674015 167.449715,149.792395 C175.606226,136.929093 180.342425,121.596009 180.342425,105.13196 C180.342425,59.6959487 132.258688,23.8718997 99.8200598,23.8718997 C67.3809329,23.8718997 19.3002363,59.6959487 19.3002363,105.13196 C19.3002363,121.600994 24.0377813,136.93956 32.1968341,149.805355 C21.7597502,135.684483 14.5722115,118.183175 14.5722115,99.2284087 C14.5722115,72.3489078 28.0060305,48.3972075 47.3923477,32.8637001 C48.5663788,31.6051332 47.7379178,31.4213575 46.1123478,32.0418684 C24.1767969,43.9801609 7.50644218,63.0021168 0,85.6094683 C10.0807973,41.7844725 50.5809333,0 99.8200598,0 C149.062675,0 189.567098,41.7844725 199.647596,85.6094683 C192.178438,63.1242352 175.648594,44.1904039 153.887597,32.2402484" id="path18" fill="#B20D35"></path>
                        <path d="M99.0479726,12.5313393 C116.753143,12.5313393 135.658065,25.783476 142.448345,33.9055443 C128.174452,24.751152 112.562739,18.5381678 99.0509633,18.5381678 C85.4659169,18.5381678 69.3452942,22.6980181 55.425793,34.0461549 C55.1715874,32.9396627 71.3993752,12.5313393 99.0479726,12.5313393" id="path20" fill="#B0AEAF"></path>
                        <path d="M99.7472872,6.70464781 C120.978439,6.70464781 143.646601,18.2040619 151.785666,24.8253701 C134.672146,17.3652831 115.95115,13.3876632 99.7512748,13.3876632 C83.4646708,13.3876632 64.1355747,15.68947 47.4464786,24.9390648 C47.1395876,24.0389277 66.6028644,6.70464781 99.7472872,6.70464781" id="path22" fill="#B0AEAF"></path>
                        <path d="M99.7363215,157.543672 C65.3622414,157.543672 32.9406098,129.111523 52.3942666,80.3813064 C70.9866649,33.8023668 99.7363215,40.0537311 99.7363215,40.0537311 L99.7363215,157.543672" id="path24" fill="#231F20"></path>
                        <path d="M72.5433004,126.400495 C72.5433004,118.270402 65.9499049,111.678502 57.8218054,111.678502 C49.6914131,111.678502 43.0997123,118.270402 43.0997123,126.400495 C43.0997123,134.530589 49.6914131,141.12199 57.8218054,141.12199 C65.9499049,141.12199 72.5433004,134.530589 72.5433004,126.400495" id="path26" fill="#231F20"></path>
                        <path d="M158.456818,126.400495 C158.456818,118.270402 151.866414,111.678502 143.734825,111.678502 C135.60523,111.678502 129.01333,118.270402 129.01333,126.400495 C129.01333,134.530589 135.60523,141.12199 143.734825,141.12199 C151.866414,141.12199 158.456818,134.530589 158.456818,126.400495" id="path28" fill="#231F20"></path>
                        <path d="M99.5748262,157.543672 C133.951897,157.543672 166.375074,129.111523 146.920869,80.3813064 C128.324981,33.8023668 99.5748262,40.0537311 99.5748262,40.0537311 L99.5748262,157.543672" id="path30" fill="#231F20"></path>
                        <path d="M108.377318,95.4138294 C108.377318,74.1413066 93.8846082,56.8912135 76.0074747,56.8912135 C58.1328334,56.8912135 43.637083,74.1413066 43.637083,95.4138294 C43.637083,116.69034 58.1328334,133.935947 76.0074747,133.935947 C93.8846082,133.935947 108.377318,116.69034 108.377318,95.4138294" id="path32" fill="#231F20"></path>
                        <path d="M91.8340164,95.4138294 C91.8340164,74.1413066 106.323237,56.8912135 124.200371,56.8912135 C142.080495,56.8912135 156.569217,74.1413066 156.569217,95.4138294 C156.569217,116.69034 142.080495,133.935947 124.200371,133.935947 C106.323237,133.935947 91.8340164,116.69034 91.8340164,95.4138294" id="path34" fill="#231F20"></path>
                        <path d="M60.0767586,74.9881601 C63.1636121,60.389282 75.2767582,28.1555632 99.558876,28.1555632 L99.558876,41.7101049 C99.558876,41.7101049 77.1748267,35.1022047 60.0767586,74.9881601" id="path36" fill="#231F20"></path>
                        <path d="M138.919373,74.9881601 C135.833018,60.389282 123.721368,28.1555632 99.4372561,28.1555632 L99.4372561,41.7101049 C99.4372561,41.7101049 121.820807,35.1022047 138.919373,74.9881601" id="path38" fill="#231F20"></path>
                        <path d="M70.7244842,95.9960101 C70.912397,96.6185646 67.2259173,104.675387 67.2259173,104.675387 C67.2259173,104.675387 86.0156988,86.9497798 86.1796863,86.4787517 C83.8300291,88.1704651 77.4619295,85.4200602 73.5132692,88.0119604 C68.7446712,91.1386893 70.7244842,95.9960101 70.7244842,95.9960101" id="path40" fill="#B20D35"></path>
                        <path d="M49.7418056,98.9926455 C49.7418056,98.9926455 46.2050082,111.63115 59.1955125,118.013704 C59.1955125,118.013704 63.3819299,151.298688 98.1522717,151.298688 C124.154016,151.298688 130.217567,137.278501 130.217567,137.278501 C130.217567,137.278501 123.473642,147.864918 98.404982,147.864918 C67.7118986,147.864918 63.1970078,115.284234 63.1970078,115.284234 C63.1970078,115.284234 51.1566342,111.744795 49.7418056,98.9926455" id="path42" fill="#B0AEAF"></path>
                        <path d="M62.0306527,107.149156 C62.0306527,107.149156 50.2644224,111.67601 52.0543289,119.875885 C53.8452323,128.077754 68.1669765,125.248595 68.1669765,125.248595 L62.0306527,107.149156" id="path44" fill="#231F20"></path>
                        <path d="M67.4312756,134.639249 C67.4312756,134.639249 57.0666652,138.723984 51.6426155,132.65495 C45.6781546,125.971835 49.1913757,121.095573 49.1913757,121.095573 C49.1913757,121.095573 49.1913757,132.834888 64.9839236,128.619062 L67.4312756,134.639249" id="path46" fill="#B0AEAF"></path>
                        <path d="M136.275137,134.980682 C136.275137,134.980682 147.944669,138.545043 153.423049,131.66604 C157.650339,126.368595 154.513641,121.434016 154.513641,121.434016 C154.513641,121.434016 154.513641,133.174825 138.723984,128.959498 L136.275137,134.980682" id="path48" fill="#B0AEAF"></path>
                        <path d="M100.243237,52.9290952 C96.7965085,46.8142543 89.28249,46.9717621 89.28249,46.9717621 L89.9837984,39.0031143 C89.9837984,39.0031143 92.7820538,38.969619 99.4163215,38.969619 C106.053081,38.969619 108.750651,39.1092327 108.750651,39.1092327 L109.933954,47.0918867 C109.933954,47.0918867 103.511524,46.8142543 100.243237,52.9290952" id="path50" fill="#FFFFFF"></path>
                        <polygon id="path52" fill="#231F20" points="97.8422405 38.0730209 99.8938293 49.0591888 101.769468 38.312323"></polygon>
                        <path d="M100.058315,71.8684094 C94.072521,71.8684094 88.1360726,70.1039235 88.1360726,70.1039235 L95.974577,68.0857304 C95.974577,68.0857304 93.2730195,67.4457304 90.7887828,66.0869765 C96.3095303,64.7576308 100.058315,59.2961979 100.058315,59.2961979 L100.058315,71.8684094" id="path54" fill="#B0AEAF"></path>
                        <path d="M100.058315,71.8684094 C106.045106,71.8684094 111.985542,70.1039235 111.985542,70.1039235 L104.14305,68.0857304 C104.14305,68.0857304 106.844608,67.4457304 109.324857,66.0869765 C103.808097,64.7576308 100.058315,59.2961979 100.058315,59.2961979 L100.058315,71.8684094" id="path56" fill="#B0AEAF"></path>
                        <path d="M77.263051,53.2446093 C77.263051,53.2446093 66.2559485,60.5986278 58.8112135,71.4621789 C58.8112135,71.4621789 70.2958238,59.606229 76.8159482,57.4614316 L77.263051,53.2446093" id="path58" fill="#B20D35"></path>
                        <path d="M77.7081601,60.5971324 C77.7081601,60.5971324 67.5424282,69.0726462 61.2879735,80.6629263 C61.2879735,80.6629263 71.4552007,67.6645466 77.7081601,64.8368831 L77.7081601,60.5971324" id="path60" fill="#B20D35"></path>
                        <path d="M122.847598,53.2446093 C122.847598,53.2446093 133.856694,60.5986278 141.300931,71.4621789 C141.300931,71.4621789 129.816819,59.606229 123.297692,57.4614316 L122.847598,53.2446093" id="path62" fill="#B20D35"></path>
                        <path d="M122.40548,60.5971324 C122.40548,60.5971324 132.571212,69.0726462 138.828159,80.6629263 C138.828159,80.6629263 128.658439,67.6645466 122.40548,64.8368831 L122.40548,60.5971324" id="path64" fill="#B20D35"></path>
                        <path d="M81.0846086,93.4375055 C81.0846086,93.4375055 76.6913376,93.4041098 76.7416803,87.9800601 C74.3845464,91.8345148 74.275886,95.0335179 75.4566959,97.7355739 C77.959375,95.7737048 81.0846086,93.4375055 81.0846086,93.4375055" id="path66" fill="#231F20"></path>
                        <path d="M130.42143,95.9960101 C130.233517,96.6185646 133.921492,104.675387 133.921492,104.675387 C133.921492,104.675387 115.132209,86.9497798 114.967723,86.4787517 C117.319872,88.1704651 123.686975,85.4200602 127.636632,88.0119604 C132.401741,91.1386893 130.42143,95.9960101 130.42143,95.9960101" id="path68" fill="#B20D35"></path>
                        <path d="M120.065293,93.4375055 C120.065293,93.4375055 124.458564,93.4041098 124.407224,87.9800601 C126.765355,91.8345148 126.874016,95.0335179 125.690713,97.7355739 C123.190527,95.7737048 120.065293,93.4375055 120.065293,93.4375055" id="path70" fill="#231F20"></path>
                    </g>
                </g>
            </g>
        </g>
    </g>
</svg>