<?xml version="1.0" encoding="UTF-8"?>
<svg width="200px" height="200px" viewBox="0 0 200 200" version="1.1" xmlns="http://www.w3.org/2000/svg" xmlns:xlink="http://www.w3.org/1999/xlink">
    <!-- Generator: Sketch 54.1 (76490) - https://sketchapp.com -->
    <title>molloy</title>
    <desc>Created with Sketch.</desc>
    <g id="molloy" stroke="none" stroke-width="1" fill="none" fill-rule="evenodd">
        <g id="molloy_BGL" transform="translate(-0.000000, 0.000000)">
            <g id="molloy" transform="translate(16.000000, 0.000000)">
                <g id="g10" transform="translate(84.411701, 100.052470) scale(-1, 1) rotate(-180.000000) translate(-84.411701, -100.052470) translate(0.000000, 0.232801)" fill-rule="nonzero">
                    <g id="g12">
                        <polyline id="path14" fill="#C5B180" points="41.3073427 132.663515 27.1684888 125.748446 25.500669 126.701847 25.0429032 133.178486 29.1920032 141.442708 40.8365444 158.008541 43.5260637 165.661147 42.9546071 170.157617 39.600743 171.739565 34.9484221 169.722361 30.5425551 166.797962 30.7064339 166.194812 35.2599331 169.372816 39.7663877 171.135004 42.2574159 169.536831 42.7917879 165.570498 40.4515706 158.229696 28.3761059 141.653987 21.632282 133.769997 18.7328637 126.494448 18.1953483 122.886479 33.9843275 123.343956 41.3073427 132.663515"></polyline>
                        <polyline id="path16" fill="#C5B180" points="28.7381226 168.984472 21.7854239 170.60804 15.2841689 169.345657 18.8054083 166.549648 11.5820624 162.402722 10.2272369 160.057137 14.1096807 160.598561 10.4077155 153.385091 10.7690259 152.573483 13.1166248 153.654922 20.6115008 159.155585 22.9586759 158.524922 23.1391192 156.180042 26.8414023 159.967193 29.6402682 167.091072 28.7381226 168.984472"></polyline>
                        <path d="M23.4716094,130.589876 C23.4004423,126.459529 24.4545996,125.770667 24.9677097,125.476146 C25.4810671,125.183389 25.865158,124.962587 25.865158,124.962587 C25.865158,124.962587 24.0927242,123.509381 22.6779275,121.936604 C21.264473,120.362769 20.6471021,119.439349 20.6471021,119.439349 C20.6471021,119.439349 18.1644445,120.606146 19.2441372,125.009146 C20.3241126,129.412145 21.9146904,132.331606 23.1006571,133.951648 C24.2858822,135.571336 26.9138056,138.662572 26.9138056,138.662572 C26.9138056,138.662572 23.5415758,134.71846 23.4716094,130.589876 Z M27.5531448,166.638533 C28.1167253,163.762104 23.9436086,163.172357 23.9436086,163.172357 C23.9436086,163.172357 26.2437392,162.280681 26.1306133,160.302982 C26.0174522,158.32493 23.2739307,157.257953 23.2739307,157.257953 C23.2739307,157.257953 23.6340048,158.32881 23.5612836,159.391202 C23.4901164,160.453594 21.4816477,160.6684 18.1795962,159.66597 C14.8760613,158.662483 11.3280503,153.375215 11.3280503,153.375215 C11.3280503,153.375215 12.6827345,156.770495 14.5929819,158.909739 C16.5034765,161.050395 18.502727,161.267318 18.502727,161.267318 C18.502727,161.267318 17.9347316,161.762184 16.2300391,162.059526 C14.5243929,162.3544 11.0201418,161.298004 11.0201418,161.298004 C11.0201418,161.298004 14.1777046,163.234083 16.1958506,163.780093 C18.2145264,164.32575 21.3231021,164.843895 21.2814613,166.995838 C21.2382666,169.148134 17.6159097,168.924862 17.6159097,168.924862 C17.6159097,168.924862 18.5704683,169.399975 20.1933274,169.406677 C21.8168929,169.412321 26.9889991,169.514609 27.5531448,166.638533 L27.5531448,166.638533 Z M37.5190586,171.824218 C34.5010048,170.574179 31.1127403,167.493526 31.1127403,167.493526 C31.1127403,167.493526 30.6367854,168.446927 29.3098264,170.142803 C27.9826202,171.839385 25.0313187,172.339189 18.8302374,171.633749 C12.630039,170.929721 8.41358621,166.109454 8.41358621,166.109454 C8.41358621,166.109454 11.5337817,167.386299 13.6062479,167.731611 C15.6797031,168.075866 17.0997622,166.83782 17.0997622,166.83782 C17.0997622,166.83782 12.08991,164.941246 8.7193049,162.189327 C5.34940614,159.437408 3.61864839,154.641126 3.61864839,154.641126 C3.61864839,154.641126 5.62987196,156.809294 7.88737284,158.069914 C10.1455801,159.329476 12.3285585,159.27163 12.3285585,159.27163 C12.3285585,159.27163 9.89598282,157.855813 7.24598519,152.05428 C4.59513991,146.25063 5.9932661,142.301933 5.9932661,142.301933 C5.9932661,142.301933 6.40840214,144.362874 7.41982385,145.825956 C8.43096301,147.289742 9.64295963,148.808201 13.9046557,152.66519 C18.1652568,156.523238 22.349287,157.872744 22.349287,157.872744 C22.349287,157.872744 22.4392437,157.140145 22.208436,155.995569 C21.9770632,154.851347 21.6364143,154.110988 21.6364143,154.110988 C21.6364143,154.110988 24.546075,155.763127 26.8414023,157.683686 C29.1379303,159.602834 31.1733119,165.671376 31.1733119,165.671376 C31.1733119,165.671376 31.5412621,166.310504 34.0468063,167.854358 C36.5527389,169.398917 39.6455978,170.776993 41.0544608,168.778836 C42.4636771,166.780326 41.2727304,161.590409 39.5615392,158.314349 C37.8507012,155.037936 29.8785282,146.495418 24.5311705,139.85547 C19.1839895,133.214816 16.0598029,123.173592 16.4107649,119.482028 C16.7627158,115.791522 17.7540058,115.735087 17.7540058,115.735087 C17.7540058,115.735087 19.6243784,111.842473 24.0303867,118.949421 C31.3003886,130.671002 40.2099906,130.870994 40.2099906,130.870994 C40.2099906,130.870994 42.6381515,132.916415 40.9626322,132.849751 C35.4790503,132.636356 27.4080202,126.461998 27.4080202,126.461998 C27.4080202,126.461998 26.1697818,126.235552 25.9651805,130.182132 C25.7605793,134.129771 29.3731529,139.977511 37.0638005,149.95595 C44.7551546,159.935448 45.5152131,165.117606 45.0885631,168.680075 C44.6633259,172.244307 40.5388078,173.074256 37.5190586,171.824218 L37.5190586,171.824218 Z" id="path18" fill="#231F20"></path>
                        <path d="M140.699119,39.3889122 C139.949303,44.6684203 132.629148,96.0829573 131.550162,103.667136 C136.90483,106.35098 148.893764,112.360265 148.893764,112.360265 L146.040366,124.397177 L96.3367081,124.397177 L91.6477971,124.397177 L90.2587125,119.923633 C87.2598014,110.266521 83.7286374,110.439354 80.3970241,99.9254855 C76.912834,110.893657 72.1794214,111.12363 69.3963076,119.949734 L67.9945082,124.397177 L13.0949744,124.397177 L10.1753891,112.392363 C10.1753891,112.392363 21.7595,106.420113 26.9963101,103.720397 C25.9297206,96.2420338 18.6691134,45.3516384 17.8704516,39.753977 C13.5018105,37.558297 0,30.7727111 0,30.7727111 L2.86053949,18.7389385 L52.2183498,18.7389385 L53.4181261,23.5627681 C53.4435556,23.6650215 55.9808513,33.8699073 58.4697603,44.3358057 C58.7639651,45.57103 59.0408637,46.7395903 59.3015158,47.8481882 C65.9453171,32.3086995 79.7595215,0 79.7595215,0 C79.7595215,0 92.946819,31.4933174 99.363521,46.8178941 C99.6298241,45.6560354 99.9099014,44.4345672 100.210464,43.1379696 C102.715266,32.3324022 105.286114,21.8037198 105.31225,21.6979039 L106.49684,16.8469148 L154.759141,16.8469148 L157.789133,29.6585049 C149.85408,34.1771614 142.456224,38.3907155 140.699119,39.3889122" id="path20" fill="#231F20"></path>
                        <path d="M62.8810663,117.159016 C62.8810663,117.159016 77.8000399,69.8392022 79.3862028,65.2626643 C81.1079896,69.5326888 95.8920457,117.159016 95.8920457,117.159016 L145.591466,117.159016 L124.157604,106.408826 L134.395083,34.5274121 L155.832124,22.3208068 L111.052599,22.3208068 C111.052599,22.3208068 100.815473,64.2112069 101.077538,67.5719201 L79.2544641,15.4445719 L56.7698711,68.0272812 C56.901963,64.8288191 46.7976352,24.2110316 46.7976352,24.2110316 L2.41671054,24.2110316 L23.2519977,34.6854305 L33.4880644,106.408826 L12.6534906,117.159016 L62.8810663,117.159016" id="path22" fill="#A21A34"></path>
                        <path d="M43.5988202,115.933315 C43.7962518,109.196017 45.7514952,108.427088 45.7514952,108.427088 L49.5397793,107.470159 L52.0477605,109.708519 L51.3848284,91.421414 L46.812469,83.701791 L53.4739297,84.8911618 L45.4682392,73.4718622 C45.4682392,73.4718622 60.5503851,79.9548499 68.8785354,87.4854151 C77.203507,95.0142166 86.4418202,101.544116 86.4418202,101.544116 L86.6053458,97.7728373 L84.7610031,91.1981424 L90.4081106,95.6917911 L99.875289,107.734346 L106.875809,112.411409 L120.207207,113.453343 L132.719564,106.313239 L134.242153,104.783494 L137.783913,106.685005 L134.954532,115.833848 L142.090676,109.235874 L144.188253,110.478153 L147.112289,114.197229 C147.112289,114.197229 146.745681,114.942173 145.751106,116.651805 C144.756178,118.361085 150.519484,121.411405 150.519484,121.411405 C150.519484,121.411405 144.486343,123.717133 154.540872,122.601481 C164.594694,121.485829 157.742865,122.750329 157.742865,122.750329 L166.972702,129.466111 L162.775427,131.351398 L161.020794,134.056053 L154.837902,136.974455 L153.863459,140.955955 C153.863459,140.955955 148.54976,142.268072 144.372617,141.415901 C140.197946,140.565847 137.23506,139.600101 137.23506,139.600101 L139.222444,142.049033 L135.238141,140.310478 L130.504728,138.399795 L132.422534,140.839558 L130.831073,140.130944 L126.486166,137.430875 L117.715826,133.142509 L114.413527,133.113586 L115.367838,135.913827 L115.278482,139.133805 L115.509819,144.643992 L114.924589,147.3751 L114.595418,148.243849 L114.151109,146.357151 L113.180551,144.186162 L111.51598,146.068274 L111.881882,149.560552 L115.693477,153.593196 L116.07068,152.379135 L116.174164,151.620435 L117.285291,152.755839 L119.662946,156.452694 L120.491523,159.656094 L120.925943,163.158601 L121.013886,167.667769 L118.249491,171.927212 L114.773778,174.192378 L113.555636,174.870305 L114.72751,181.211852 L113.16607,186.970706 L108.748407,189.951188 L107.009314,190.839689 L94.9850614,197.488807 L83.525908,196.907525 L72.2193315,190.587847 L63.7548511,181.494028 L53.8158147,168.264571 L49.0961764,162.140299 L59.6151458,165.472442 L64.9231938,167.81309 L59.4848198,158.709747 L52.3327824,148.249493 L67.2627047,152.253566 L65.8322972,147.28163 L53.7504751,141.487504 L44.083746,133.985861 L35.0833396,124.423631 L48.432538,124.423631 C48.432538,124.423631 44.4111504,122.806411 43.5988202,115.933315" id="path24" fill="#C5B180"></path>
                        <path d="M92.8281481,99.6059214 C89.8906916,96.3951142 86.3153792,93.727848 86.3153792,93.727848 C86.3153792,93.727848 86.8267941,95.1341413 87.4000166,97.1083134 C87.9746519,99.0838963 87.7468463,100.73921 87.7468463,100.73921 C87.7468463,100.73921 89.6879622,101.987485 92.1609778,103.44845 C94.6329339,104.912236 98.6772786,106.726979 98.6772786,106.726979 C98.6772786,106.726979 95.7652515,102.816376 92.8281481,99.6059214 Z M144.756178,111.391344 C143.84319,110.617477 142.916427,110.267579 142.916427,110.267579 C142.916427,110.267579 140.943524,112.91474 137.262609,114.948522 C133.582753,116.982656 130.806703,117.257072 130.806703,117.257072 C130.806703,117.257072 134.090283,114.099526 135.190107,112.210006 C136.825717,109.399889 137.181376,107.397146 137.181376,107.397146 C137.181376,107.397146 136.259205,106.567197 135.557069,106.18626 C134.85458,105.806381 133.789368,105.779574 133.789368,105.779574 C133.789368,105.779574 133.397683,106.176031 132.816337,106.698761 L132.850596,106.686416 C132.850596,106.686416 131.965863,107.769618 130.225357,109.141345 C123.336091,114.568643 110.675042,117.396044 95.2616068,109.070801 C85.8562361,103.992343 78.8705498,98.2634703 73.4123973,92.3899822 C67.9549513,86.5161414 53.9436685,74.7688124 53.9436685,74.7688124 C53.9436685,74.7688124 67.4474215,84.0580379 74.5931016,90.443675 C81.7398412,96.828254 85.7764158,99.2059373 85.7764158,99.2059373 C85.7764158,99.2059373 85.2250909,96.0381619 84.1114922,92.8661538 C82.9982466,89.6927348 82.1686103,88.0331887 82.1686103,88.0331887 C82.1686103,88.0331887 91.3726644,93.7863994 96.3582526,100.017545 C101.346666,106.247986 101.721398,108.125865 101.721398,108.125865 C101.721398,108.125865 104.232557,111.707028 111.121117,112.560963 C112.552231,112.738381 116.820497,112.599056 120.059575,111.87457 C123.159144,111.180418 125.135226,110.38186 127.89291,108.604506 C133.192835,104.290039 135.112759,100.969888 135.511508,98.9001294 C135.964647,96.5467836 136.366573,94.2766798 136.366573,94.2766798 C136.366573,94.2766798 138.425654,97.1083134 138.931064,101.608311 C139.437888,106.108661 139.069514,106.71675 139.069514,106.71675 L142.459403,108.130098 C142.459403,108.130098 143.524262,106.581306 143.728051,104.441708 C143.931486,102.302463 144.078412,99.2122863 144.078412,99.2122863 C144.078412,99.2122863 146.816671,103.268915 147.374354,107.39891 C147.932036,111.529258 147.216126,114.634602 147.216126,114.634602 C147.216126,114.634602 146.251925,112.658666 144.756178,111.391344 L144.756178,111.391344 Z M156.086065,131.509769 C155.649879,129.986373 154.790575,128.570909 154.022746,127.518393 C153.259156,128.009026 152.319325,128.575494 151.18842,129.225909 C151.682176,129.640002 152.246569,130.178252 152.902084,130.89639 C155.247952,133.46172 155.416069,135.581213 155.416069,135.581213 L156.589003,135.135375 C156.589003,135.135375 156.979981,134.632397 156.086065,131.509769 L156.086065,131.509769 Z M166.1413,133.573532 C164.017586,133.238448 162.509478,133.071612 162.509478,133.071612 C162.509478,133.071612 162.844299,134.242289 163.291434,137.36668 C163.738215,140.490718 161.001369,140.378906 158.991028,139.709444 C156.979981,139.039629 155.305169,138.425897 155.305169,138.425897 C155.305169,138.425897 155.247952,138.76098 154.410193,142.386233 C153.572786,146.012897 151.450485,145.901085 147.87482,144.227783 C144.300567,142.554128 133.79961,136.418216 133.79961,136.418216 C141.507917,139.597632 145.529658,140.155281 146.367064,139.486172 C147.205883,138.816357 148.880696,135.80519 148.545875,132.90407 C148.46994,132.246953 148.299351,131.581371 148.080728,130.944712 C144.624793,132.75487 142.22524,133.605277 141.452113,133.01553 C140.689583,132.432837 142.809058,128.761025 144.674239,126.442951 C142.543815,127.10818 139.740216,127.867586 137.114624,128.218542 C133.276187,128.729985 130.030751,128.706001 128.596812,128.659089 C128.905497,128.869662 129.319433,129.17018 129.832613,129.580393 C131.042632,130.552135 132.135746,132.402855 132.135746,132.402855 C132.135746,132.402855 129.388657,130.86394 125.887161,129.579687 C122.386371,128.29614 119.570058,127.912029 119.570058,127.912029 C119.570058,127.912029 120.564985,128.496132 121.769353,130.181427 C122.972662,131.870249 122.953589,132.671275 122.953589,132.671275 C122.953589,132.671275 119.810578,131.055466 116.660856,129.015688 C113.509721,126.974147 109.590052,126.065541 109.590052,126.065541 L109.572392,123.249074 C114.40611,124.623976 117.48025,127.448202 117.48025,127.448202 C117.48025,127.448202 117.124944,126.772744 116.616354,125.897294 C116.109531,125.021843 113.960035,123.027566 113.960035,123.027566 C113.960035,123.027566 116.029004,124.295594 118.978116,125.682487 C120.895569,126.584392 123.154553,127.334274 124.499842,127.748367 C124.008206,127.436562 123.506327,127.083843 123.161617,126.751933 C122.329508,125.95126 121.85765,124.814797 121.778183,124.613394 C121.85871,124.736846 122.417805,125.199967 126.278139,126.053549 C130.856502,127.066207 136.329489,127.072556 139.513823,126.572046 C142.698511,126.071184 145.599236,124.212352 145.599236,124.212352 C145.599236,124.212352 144.926061,124.307586 141.489198,124.584118 C138.053395,124.861003 135.586736,122.915754 135.586736,122.915754 C135.586736,122.915754 138.346893,122.074165 141.5005,120.438251 C144.654107,118.803395 146.439468,115.469136 146.439468,115.469136 L147.555185,116.943857 C147.555185,116.943857 148.527509,115.382015 149.834655,111.416387 C151.142506,107.451113 151.085996,106.500533 151.085996,106.500533 C151.085996,106.500533 152.116949,109.942724 152.349699,115.724858 C152.508634,119.656624 151.504876,121.901685 150.846889,122.935507 L149.31547,124.319931 C150.48028,124.413402 151.714669,124.644081 152.791183,124.70369 C154.80223,124.81515 156.197672,124.369312 156.645513,124.926962 C156.863783,125.199614 156.794558,125.453925 155.88157,126.17171 C157.020598,126.496564 158.01376,127.158619 158.879421,127.771999 C161.001369,129.278817 162.007246,132.234255 162.007246,132.234255 C162.007246,132.234255 162.788142,131.564441 162.788142,130.617036 C162.788142,129.668925 162.732339,128.496838 160.220472,125.596777 C157.706134,122.695657 154.355095,122.695657 154.355095,122.695657 C154.355095,122.695657 157.148098,120.743706 160.721998,121.301709 C164.296957,121.859006 165.749616,124.202123 165.749616,124.202123 C165.749616,124.202123 166.02828,124.202123 167.089607,124.14604 C168.151641,124.090663 168.542619,124.760478 168.709676,128.999111 C168.87744,133.238448 166.1413,133.573532 166.1413,133.573532 L166.1413,133.573532 Z" id="path26" fill="#231F20"></path>
                        <path d="M116.741029,162.466212 C114.899159,163.231966 112.235422,162.566737 110.633719,161.967114 C109.032369,161.366432 105.827197,159.166519 105.927855,158.467429 C106.02922,157.76728 100.722232,144.867616 100.722232,144.867616 L101.421895,141.268465 L105.827197,138.769093 L111.134185,137.969477 L114.338298,137.969477 L115.138267,140.369029 L115.439182,143.168213 L115.439182,145.469356 L114.539262,148.168367 L114.039502,146.568078 L113.136756,143.769247 L112.235422,145.568823 L111.235197,147.86785 L115.439182,153.665856 L116.041013,152.168208 L116.340869,151.367887 L118.24384,153.567447 L120.491523,159.656094 C120.491523,159.656094 117.943631,161.967114 116.741029,162.466212" id="path28" fill="#FFFFFF"></path>
                        <path d="M101.246714,136.796685 C101.246714,136.796685 100.789337,134.486371 101.846779,131.891059 C102.905281,129.295042 104.783529,128.427352 104.783529,128.427352 C104.783529,128.427352 103.488746,127.617508 102.326407,126.335724 C101.165481,125.052177 100.31536,123.040264 100.31536,123.040264 C100.31536,123.040264 99.5708418,123.852578 99.1049881,126.738177 C98.6412535,129.626246 99.386125,132.397565 99.386125,132.397565 C99.386125,132.397565 98.2018889,132.306563 96.5842923,131.804643 C94.9631638,131.302723 91.6590991,129.23508 91.6590991,129.23508 C91.6590991,129.23508 92.444587,133.769292 92.3192056,137.264391 C92.1920583,140.760548 88.964282,149.944663 83.4948276,156.505602 C78.0243136,163.066541 78.4965247,170.929721 84.1372748,174.439987 C89.7783781,177.948842 95.5010676,175.70872 95.5010676,175.70872 C95.5010676,175.70872 95.2714961,176.870931 94.6470614,177.84091 C94.0226267,178.809126 93.1604971,179.95617 93.1604971,179.95617 C93.1604971,179.95617 94.0226267,180.355096 97.4838596,179.210873 C100.947918,178.068062 102.043857,176.742188 102.043857,176.742188 C102.043857,176.742188 101.914591,178.199979 101.58648,179.560771 C101.259782,180.921564 99.8728167,182.838948 99.8728167,182.838948 C99.8728167,182.838948 102.968501,181.294036 104.15309,179.840125 C105.335914,178.385509 105.605749,177.43881 105.605749,177.43881 L106.658952,178.495911 L117.539939,171.97236 C117.539939,171.97236 116.199241,171.99952 113.969924,171.835858 C111.743786,171.671843 109.893792,170.786869 109.893792,170.786869 C109.893792,170.786869 111.594741,170.176312 113.635103,168.62893 C115.67723,167.080138 116.200653,165.816696 116.200653,165.816696 L115.718906,164.204767 C115.718906,164.204767 113.844543,164.019589 109.419109,162.431293 C104.99191,160.844407 104.202183,157.363769 102.604365,154.125097 C101.00796,150.885367 97.7462776,146.437219 97.7462776,146.437219 L101.404589,149.535509 C101.404589,149.535509 99.8413831,147.073878 100.054708,144.994595 C100.269446,142.916018 101.290863,137.505651 104.548307,136.826313 C107.808223,136.146975 108.538967,138.003339 109.779007,137.679542 C111.0194,137.356803 111.466534,136.154735 112.589669,136.167433 C113.71457,136.180131 114.714089,137.089442 114.714089,137.089442 C114.714089,137.089442 115.829454,130.988097 108.582409,130.491115 C101.332892,129.99378 101.246714,136.796685 101.246714,136.796685 L101.246714,136.796685 Z M76.482299,167.141511 C77.7159813,167.380303 78.5512687,166.932701 78.5512687,166.932701 C78.5512687,166.932701 77.2352938,166.262181 75.1550222,164.50211 C73.0740442,162.742039 72.2461737,161.083198 72.2461737,161.083198 C72.2461737,161.083198 72.5905311,162.676433 72.4489031,163.712018 C72.3072751,164.745839 71.7241633,165.930977 73.4395927,169.325552 C75.1557285,172.722242 80.138138,173.332094 80.138138,173.332094 C80.138138,173.332094 79.3717222,172.244307 78.9923993,171.41859 C78.6127232,170.593579 77.7813209,169.988665 76.0581214,168.699827 C74.3342155,167.410284 73.7641716,165.928508 73.7641716,165.928508 C73.7641716,165.928508 75.2482635,166.903778 76.482299,167.141511 L76.482299,167.141511 Z M92.3986727,121.257619 C88.3497366,120.493981 85.1710533,119.567739 85.1710533,119.567739 C85.1710533,119.567739 85.2000146,120.907721 84.3573103,123.461412 C83.5156656,126.016513 81.4781296,128.056996 79.4257598,134.311774 C77.3744495,140.565494 78.9828632,147.319371 78.9828632,147.319371 C78.9828632,147.319371 76.4826522,141.426836 74.3734192,138.329252 C72.2648927,135.23202 70.2697391,131.304839 70.2697391,131.304839 C70.2697391,131.304839 70.7829199,136.293001 70.2768028,138.9645 C69.7706858,141.63494 67.9609555,145.603742 67.5431352,148.146146 C67.1256681,150.689607 69.0985709,154.260541 69.0985709,154.260541 C69.0985709,154.260541 66.2010245,152.811569 63.5051478,151.951991 C60.8085648,151.09206 56.0811564,150.166171 56.0811564,150.166171 C56.0811564,150.166171 60.3554259,155.948305 62.8559901,160.294164 C65.3565543,164.640729 67.8447569,170.107884 67.8447569,170.107884 C67.8447569,170.107884 63.3257288,167.664947 60.1929598,166.394098 C57.0594845,165.123955 53.9306005,164.346561 51.7111732,164.113766 C53.166657,165.295377 55.8438147,169.384809 58.8063475,173.441438 C61.7685272,177.500183 64.8246546,183.958833 75.0529511,191.466824 C85.2837199,198.975168 95.5010676,196.786895 100.761082,192.797283 C106.021097,188.806965 105.696165,182.439317 105.696165,182.439317 C105.696165,182.439317 103.669224,187.994652 93.9159642,190.387855 C84.1609383,192.778941 74.4867923,185.839887 74.4867923,185.839887 C74.4867923,185.839887 82.5383971,188.694447 89.6974983,187.282158 C96.8541272,185.869868 99.9702964,179.550542 99.9702964,179.550542 C99.9702964,179.550542 99.1385409,180.491246 98.5109275,180.967417 C97.8833142,181.443589 92.0052224,184.29568 83.5202571,183.067863 C75.0342322,181.839693 72.3012709,176.617326 72.3012709,176.617326 C72.3012709,176.617326 76.0609469,178.958679 81.9920168,179.837304 C87.9213207,180.716281 92.4488253,177.962598 92.4488253,177.962598 C92.4488253,177.962598 90.6284993,178.416196 89.8592579,178.382335 C89.0896634,178.34671 87.2442611,177.954839 85.2194399,177.326645 C83.195325,176.699509 81.5003804,175.203978 81.5003804,175.203978 C81.5003804,175.203978 80.7018245,175.375752 77.7926229,175.049134 C74.8823618,174.722163 70.9528028,172.078176 69.5089742,169.773153 C68.0654988,167.468483 69.7908175,162.574497 70.3371978,160.121332 C70.8846377,157.666403 69.9712961,155.082378 69.9712961,155.082378 C69.9712961,155.082378 72.2274548,158.130229 73.7867756,160.09911 C75.3475091,162.067991 78.291323,163.173415 78.291323,163.173415 C78.291323,163.173415 77.3408967,160.865217 80.7731683,156.345467 C84.2061463,151.825365 87.8987167,147.974371 89.3542005,139.38988 C90.8096843,130.806093 88.2059894,122.582787 88.2059894,122.582787 C88.2059894,122.582787 90.2813164,124.901919 92.5000374,126.680331 C94.7191115,128.459802 97.054031,129.902073 97.054031,129.902073 C97.054031,129.902073 96.6920143,128.446046 97.3436444,125.725166 C97.9984531,123.003581 100.37187,122.626171 100.37187,122.626171 C100.37187,122.626171 96.4444302,122.020199 92.3986727,121.257619 L92.3986727,121.257619 Z M113.765429,183.611404 C114.200908,180.438338 111.517393,176.911494 111.517393,176.911494 L109.399684,178.51919 C109.399684,178.51919 110.728373,180.104312 110.295013,183.277379 C109.859886,186.449387 107.351552,190.393145 107.351552,190.393145 C107.351552,190.393145 113.332421,186.784118 113.765429,183.611404 L113.765429,183.611404 Z M119.549573,168.591895 C119.549573,168.591895 120.567811,167.324926 120.744405,165.523233 C120.920292,163.721189 120.420885,161.193599 120.420885,161.193599 C120.420885,161.193599 119.552398,162.409071 118.532041,163.183644 C117.509918,163.958569 116.781999,164.139161 116.781999,164.139161 L117.126357,165.732396 C117.126357,165.732396 117.999788,166.554233 118.65495,167.41628 C119.312231,168.278327 119.549573,168.591895 119.549573,168.591895 Z M118.844258,156.269985 C117.921734,153.756858 116.39314,152.071563 116.39314,152.071563 C116.39314,152.071563 116.533709,154.128624 116.364179,156.916521 C116.193236,159.703006 115.547257,160.317091 115.547257,160.317091 C115.547257,160.317091 115.393974,159.382737 115.142505,158.646258 C114.892802,157.909779 114.37291,157.066074 114.37291,157.066074 C114.37291,157.066074 114.351366,158.256855 114.001358,159.262812 C113.654528,160.269121 113.113092,160.617961 113.113092,160.617961 C113.113092,160.617961 113.138522,159.91887 113.114505,159.072343 C113.089782,158.225816 112.540576,157.097818 112.540576,157.097818 C112.540576,157.097818 112.254848,158.673417 111.942984,159.4039 C111.631119,160.134735 111.045182,160.826771 111.045182,160.826771 C111.045182,160.826771 111.187517,158.247332 110.886248,155.816741 C110.585333,153.388266 108.487048,150.220843 108.487048,150.220843 C108.487048,150.220843 108.120087,153.402727 107.742177,155.668951 C107.360029,157.936233 106.61551,158.746783 106.61551,158.746783 C106.61551,158.746783 107.183788,159.738631 108.463032,160.684625 C109.739097,161.632383 111.117232,161.327633 111.117232,161.327633 C111.117232,161.327633 112.112513,162.799532 114.978273,162.417184 C117.844386,162.035894 117.78505,160.41162 117.78505,160.41162 C117.78505,160.41162 117.994137,160.932587 119.046988,160.443365 C120.099485,159.954495 119.76643,158.785229 118.844258,156.269985 L118.844258,156.269985 Z M113.196444,143.556557 C114.213623,145.381176 114.504296,147.880195 114.504296,147.880195 C114.504296,147.880195 114.843002,146.941961 115.208198,145.305694 C115.572687,143.66978 114.651222,139.608919 114.12356,138.834699 C113.595899,138.060479 112.352681,137.890116 111.527636,138.269642 C110.702591,138.649521 109.119253,139.417039 107.286919,139.44702 C105.453525,139.478765 103.995569,139.841008 102.585293,140.913629 C101.16866,141.985896 101.059878,144.851038 101.059878,144.851038 C101.059878,144.851038 101.721398,143.606643 102.378679,142.923425 C103.034547,142.24056 103.703836,141.979548 103.703836,141.979548 C103.703836,141.979548 104.972484,142.996791 106.293404,144.652457 C107.613264,146.308123 107.817406,148.93518 107.817406,148.93518 C107.817406,148.93518 108.511772,147.97684 108.68448,145.681341 C108.857895,143.385488 107.95197,141.78661 107.95197,141.78661 C107.95197,141.78661 108.525546,142.216222 109.161636,143.217241 C109.800551,144.217201 109.953834,145.151556 109.953834,145.151556 C109.953834,145.151556 110.420748,144.301854 110.463836,143.46485 C110.509044,142.627494 110.069326,141.724531 110.069326,141.724531 C110.069326,141.724531 110.672217,141.947097 111.102752,142.91884 C111.53364,143.891288 111.557303,144.73711 111.557303,144.73711 C111.557303,144.73711 111.968413,144.302559 111.971945,143.24828 C111.97477,142.194707 111.60569,141.30162 111.60569,141.30162 C111.60569,141.30162 112.180325,141.731938 113.196444,143.556557 L113.196444,143.556557 Z M109.686472,124.985866 L109.285958,129.46329 C109.285958,129.46329 110.907439,129.948279 111.900248,130.39976 C112.894469,130.851242 113.892576,132.04026 113.892576,132.04026 C113.892576,132.04026 114.255299,132.091051 115.519709,132.10516 C116.783412,132.119974 119.665418,133.039162 122.25993,134.130476 C124.854089,135.223202 131.700619,140.320354 131.700619,140.320354 C131.700619,140.320354 131.537447,139.982449 130.680615,138.916177 C129.82343,137.851669 129.093393,137.012902 129.093393,137.012902 C129.093393,137.012902 131.212162,137.72469 133.547081,138.780027 C135.884473,139.837128 138.324289,141.276577 138.324289,141.276577 L137.042927,139.468889 C137.042927,139.468889 138.393514,140.390545 139.034195,141.110446 C139.67417,141.828936 140.351583,143.818981 140.351583,143.818981 C140.351583,143.818981 138.361727,142.176365 136.2698,141.258236 C134.17858,140.341517 131.495771,139.132747 131.495771,139.132747 C131.495771,139.132747 132.83329,140.157398 133.651978,141.112563 C134.470312,142.068786 135.326084,144.293036 135.326084,144.293036 C135.326084,144.293036 133.048028,141.662453 130.807409,140.302365 C128.566085,138.943337 127.379023,138.359233 123.52434,136.464423 C119.667184,134.568907 115.241751,133.752714 115.241751,133.752714 C115.241751,133.752714 115.70266,134.236998 115.88667,135.211915 C116.068915,136.185069 115.952716,137.292961 115.952716,137.292961 C115.952716,137.292961 116.463424,137.679542 116.590925,138.293274 C116.717719,138.907359 116.353936,139.244559 115.908921,139.921781 C115.497811,140.550327 115.683941,141.015212 115.975673,142.703681 C116.36877,144.97061 115.316979,147.778612 115.083523,148.202228 C114.849713,148.627608 114.183249,148.800441 114.152875,148.515443 C114.120735,148.22974 113.956503,147.976135 113.789799,147.145127 C113.619916,146.314472 112.946741,144.816825 112.946741,144.816825 C112.946741,144.816825 112.418373,145.38294 112.154896,146.540566 C111.891418,147.698544 113.279797,149.364439 113.993234,150.585202 C114.705613,151.807376 115.49216,153.00239 115.49216,153.00239 C115.49216,153.00239 115.46108,152.71704 115.5243,151.742123 C115.588227,150.767206 115.733387,150.717472 116.060438,150.90265 C116.386077,151.088181 117.131654,151.821837 118.571598,153.633053 C120.011541,155.44709 120.645865,157.499919 120.645865,157.499919 C120.645865,157.499919 121.130438,157.56623 121.548611,158.606753 C121.96961,159.647629 120.764183,160.748114 120.764183,160.748114 C120.764183,160.748114 121.723792,164.532797 121.639027,166.698848 C121.552496,168.865252 120.563926,169.924117 120.563926,169.924117 C120.563926,169.924117 120.486225,169.985137 120.695665,170.504694 C120.905811,171.02566 120.768421,171.005908 120.316342,171.2253 C119.86285,171.445044 118.534866,171.895115 118.534866,171.895115 L114.403638,174.845615 C114.403638,174.845615 114.780841,175.177524 115.455429,175.902363 C116.128956,176.625791 116.729727,177.902283 117.120352,180.695118 C117.512743,183.489716 113.826177,186.780943 112.217763,188.248257 C110.610056,189.71416 107.169308,191.211102 107.169308,191.211102 C107.169308,191.211102 106.239013,192.35074 104.428223,194.279764 C102.615314,196.210904 97.212612,199.197381 89.5240834,199.343055 C81.8355549,199.488375 70.8221236,191.029804 66.4189409,186.705108 C62.0154049,182.381471 55.4168116,171.994934 51.2866424,167.216288 C47.1557668,162.438347 43.9075057,159.956964 43.9075057,159.956964 C43.9075057,159.956964 49.9378211,161.13011 55.0823435,162.606594 C60.2279253,164.080257 62.8015993,165.836801 62.8015993,165.836801 C62.8015993,165.836801 61.49622,163.550472 58.2518439,158.471309 C55.0071146,153.39144 48.1934304,145.085244 48.1934304,145.085244 C48.1934304,145.085244 49.6683394,146.129647 51.476657,146.796993 C53.2849746,147.466102 54.1195556,147.017795 58.7625523,148.564471 C63.4048427,150.112205 65.4084728,150.384858 65.4084728,150.384858 C65.4084728,150.384858 64.9306107,149.758075 64.6925626,149.443801 C64.4541614,149.130586 64.3506776,148.343669 64.3506776,148.343669 C64.3506776,148.343669 54.2615368,144.437298 44.4507074,135.932521 C34.6391009,127.427039 32.5828813,121.419165 30.7723739,117.167482 C32.1764337,117.026746 33.5673902,121.37966 37.9764358,126.688797 C42.3856228,131.997933 50.2514512,138.269642 54.0019443,140.678365 C57.7531438,143.086735 64.2916954,145.17413 64.2916954,145.17413 C64.2916954,145.17413 66.1614675,139.737309 67.6254278,134.177388 C69.0897412,128.614999 66.8183954,123.106576 66.8183954,123.106576 C66.8183954,123.106576 67.8945563,125.009146 68.926922,126.204865 C69.9596409,127.398821 70.6222198,127.700044 73.1012396,131.691773 C75.5799062,135.683149 76.3922363,137.972299 76.3922363,137.972299 C76.3922363,137.972299 76.0567087,134.764314 77.4708695,130.602574 C78.884324,126.438013 80.7565685,124.586235 82.0160335,122.580318 C83.2744389,120.574401 82.8884055,118.765654 82.8884055,118.765654 C82.8884055,118.765654 80.2430346,118.05175 73.4819752,115.022593 C66.7209158,111.992026 61.3386986,105.567589 61.3386986,105.567589 C61.3386986,105.567589 68.5885688,111.193468 73.8778978,113.671324 C79.1668737,116.149885 85.723791,118.098662 92.5233477,119.307432 C99.3229045,120.515497 105.780929,122.169752 109.572392,123.249074 L109.686472,124.985866 L109.686472,124.985866 Z" id="path30" fill="#231F20"></path>
                        <path d="M45.1182308,121.023766 C45.1182308,121.023766 42.2934409,118.53039 40.514791,115.336514 C38.7354348,112.141932 37.9690189,107.718474 37.9690189,107.718474 C37.9690189,107.718474 38.4486469,108.836948 39.2397859,109.998807 C40.0298652,111.159607 41.2031526,111.847763 41.2031526,111.847763 C41.2031526,111.847763 41.9572069,109.421052 44.608582,107.7802 C47.259957,106.139701 48.5879403,105.68963 49.2095494,105.774283 C49.8315118,105.858583 50.7681638,106.724157 50.7681638,106.724157 C50.7681638,106.724157 50.666446,102.072843 48.8069162,95.6014949 C46.9487992,89.1312051 42.1429833,81.8351985 42.1429833,81.8351985 C42.1429833,81.8351985 44.5068641,81.5255106 47.4549163,82.3484056 C50.4022621,83.1730642 51.8570395,84.1091823 51.8570395,84.1091823 C51.8570395,84.1091823 50.6717438,81.2070047 47.6304502,77.2096326 C44.5895099,73.211555 41.1664211,69.6875327 41.1664211,69.6875327 C41.1664211,69.6875327 50.1776351,75.5539664 53.3506674,79.3594591 C56.5229934,83.164599 58.5615889,87.5527845 58.5615889,87.5527845 C58.5615889,87.5527845 56.0567865,86.5789255 54.1163769,86.1027539 C52.1763205,85.6283459 50.1659799,85.6699669 50.1659799,85.6699669 C50.1659799,85.6699669 53.3672672,89.2680603 53.5064229,97.5065339 C53.6455786,105.746771 53.8140488,111.460477 51.7404877,115.815154 C49.6669267,120.168421 48.7959674,120.366296 48.7959674,120.366296 C48.7959674,120.366296 50.4781973,117.329027 50.5633154,114.388756 C50.6491398,111.449543 50.2164857,108.440139 48.9736205,108.270833 C47.7304022,108.101528 45.7942308,110.682378 44.6961723,114.853993 C43.5981139,119.024198 45.1182308,121.023766 45.1182308,121.023766" id="path32" fill="#231F20"></path>
                        <path d="M107.229349,170.711387 C104.702649,172.47428 108.107019,174.430464 105.398075,174.941202 C102.690543,175.448413 91.8060249,171.615055 91.8060249,171.615055 C91.8060249,171.615055 98.4335796,172.825589 100.206225,172.716951 C101.979224,172.607608 102.295327,171.596714 103.424819,171.048235 C104.554664,170.500461 107.229349,170.711387 107.229349,170.711387" id="path34" fill="#231F20"></path>
                        <path d="M44.466954,131.787007 C53.2291711,140.423348 60.1463391,142.468417 60.1463391,142.468417 C60.1463391,142.468417 55.2592902,139.693571 51.2251879,136.137804 C45.2739863,130.893568 45.4728306,126.933584 44.857932,126.543476 C44.2437398,126.153368 40.9481515,125.985826 40.6680742,126.654936 C40.3894096,127.324398 42.0108913,129.366644 44.466954,131.787007" id="path36" fill="#FFFFFF"></path>
                        <path d="M106.401832,169.065597 C105.149078,170.73643 99.3938951,171.065518 94.7886894,170.86482 C90.1820709,170.665181 95.7896214,161.866236 96.9918701,160.666283 C98.1934124,159.467389 102.598008,164.466133 103.799903,165.86643 C105.000739,167.265669 107.004016,168.265982 106.401832,169.065597" id="path38" fill="#FFFFFF"></path>
                        <path d="M75.1221758,159.923809 C72.3899209,157.194464 69.3825333,153.917698 69.1095197,151.4603 C68.8354466,149.004313 71.2953942,141.088578 71.2953942,140.268857 C71.2953942,139.449842 77.583183,149.004313 78.1299165,151.4603 C78.6762969,153.917698 78.5396135,154.600563 78.5396135,154.600563 C78.5396135,154.600563 76.3533858,156.510893 76.0793126,157.194464 C75.806299,157.876624 75.1221758,159.923809 75.1221758,159.923809" id="path40" fill="#FFFFFF"></path>
                        <path d="M93.5518284,118.338864 C86.3302131,117.611203 76.8563241,114.687862 71.0227339,111.469648 C65.8291185,108.602742 61.3189201,105.053677 59.2690226,102.460482 C57.2187718,99.8676394 56.3128471,98.6810904 56.4717812,94.6636133 C56.6303622,90.6482524 58.0229787,90.059916 58.0229787,90.059916 C58.0229787,90.059916 61.4347654,99.9445323 72.3899209,107.23807 C83.0501651,114.336201 86.3302131,115.42681 93.5518284,118.338864" id="path42" fill="#FFFFFF"></path>
                        <path d="M84.6907189,195.002133 C81.5466479,194.456829 72.3899209,189.268675 66.6488656,182.717612 C60.9085168,176.166197 57.2187718,169.887434 56.6720383,168.931211 C56.1249516,167.976399 56.9446987,167.976399 58.8586192,168.523467 C60.7721866,169.068419 64.3256013,169.614076 65.1453484,173.4365 C65.9654487,177.25857 69.3825333,183.400125 71.8428341,186.12947 C74.303135,188.860578 84.6907189,195.002133 84.6907189,195.002133" id="path44" fill="#FFFFFF"></path>
                        <path d="M26.2095153,167.000423 C26.2095153,166.273468 23.1394017,164.565952 22.5074088,164.115177 C21.8753806,163.664753 21.604027,165.288322 21.604027,166.729888 C21.604027,168.173216 22.1460632,168.173216 23.9524383,167.81309 C25.7578244,167.452257 26.2095153,167.181369 26.2095153,167.000423" id="path46" fill="#FFFFFF"></path>
                        <path d="M84.0874754,98.1322586 L79.3950325,84.0001919 L77.4588612,92.4051492 C77.4588612,92.4051492 79.6185999,94.8604309 81.5551244,96.347497 C83.4920021,97.8342105 84.0874754,98.1322586 84.0874754,98.1322586" id="path48" fill="#B8A069"></path>
                        <path d="M148.602032,139.430442 C148.602032,139.430442 150.556922,140.545389 152.176991,139.932715 C153.795647,139.318278 154.579016,137.980059 154.579016,137.980059 C154.579016,137.980059 155.136698,135.469753 153.460119,132.90407 C151.78566,130.337329 147.708115,128.162107 147.708115,128.162107 C147.708115,128.162107 149.663006,131.509769 149.607202,134.577725 C149.551399,137.645681 148.602032,139.430442 148.602032,139.430442" id="path50" fill="#FFFFFF"></path>
                        <path d="M160.442627,135.414023 C158.817614,136.550486 157.687415,135.803426 157.687415,135.803426 C157.687415,135.803426 158.153269,134.466266 156.979981,131.397604 C155.807047,128.330001 153.349219,126.097286 153.349219,126.097286 C153.349219,126.097286 157.984445,126.897254 160.051649,129.964857 C162.1185,133.032813 161.839129,133.684992 161.839129,133.684992 C161.839129,133.684992 162.1185,134.242289 160.442627,135.414023" id="path52" fill="#FFFFFF"></path>
                        <path d="M164.129193,130.394117 C164.129193,130.394117 165.638362,130.170493 166.363455,128.441108 C167.089607,126.712076 166.252554,125.707883 166.252554,125.707883 C166.252554,125.707883 164.575269,123.031094 162.007246,122.305549 C159.437104,121.580358 156.53214,122.361279 156.53214,122.361279 C156.53214,122.361279 159.158439,122.584198 161.503248,125.486023 C163.851235,128.386084 164.129193,130.394117 164.129193,130.394117" id="path54" fill="#FFFFFF"></path>
                        <path d="M153.869463,140.302365 C153.869463,140.302365 152.901378,141.120675 151.486864,141.120675 C150.07129,141.120675 147.912964,140.377495 147.912964,140.377495 C147.912964,140.377495 146.124425,141.567571 144.784433,141.120675 C143.443735,140.674485 148.507025,143.352333 149.99818,143.872594 C151.486864,144.393561 152.752333,144.318784 153.274343,142.682518 C153.794941,141.046604 153.869463,140.302365 153.869463,140.302365" id="path56" fill="#C5B180"></path>
                        <path d="M161.688671,138.443885 C161.557639,137.386432 161.093904,136.212228 161.093904,136.212228 C161.093904,136.212228 160.49949,136.881337 159.231549,136.881337 C157.966433,136.881337 156.327292,136.361428 156.327292,136.361428 L155.657649,136.584347 L155.58242,137.626281 C155.58242,137.626281 156.178953,138.220614 158.48809,138.889723 C160.795461,139.559185 161.838422,139.633962 161.688671,138.443885" id="path58" fill="#C5B180"></path>
                        <path d="M166.307651,132.196162 C166.307651,131.299901 166.232069,130.039281 166.232069,130.039281 C166.232069,130.039281 165.934686,130.856532 165.189461,131.080157 C164.444943,131.303076 164.072683,131.451923 164.072683,131.451923 L163.626255,132.345009 C163.626255,132.345009 164.370773,132.566517 165.189461,132.641294 C166.009208,132.716071 166.307651,132.716071 166.307651,132.196162" id="path60" fill="#C5B180"></path>
                        <path d="M133.982561,104.19939 C133.982561,104.19939 137.490415,105.0826 138.279788,105.899851 C139.069514,106.71675 137.043633,96.964051 137.043633,96.964051 C137.043633,96.964051 134.98314,103.733447 133.982561,104.19939" id="path62" fill="#FFFFFF"></path>
                        <path d="M146.873888,111.896086 L143.695204,108.368889 L144.695783,101.456289 C144.695783,101.456289 146.211662,105.07872 146.461718,106.370027 C146.873888,108.496574 146.873888,111.896086 146.873888,111.896086" id="path64" fill="#FFFFFF"></path>
                        <path d="M148.463582,117.159016 C148.463582,117.159016 149.993942,118.538856 150.876909,121.184253 C150.876909,121.184253 151.58293,116.539993 151.524301,114.835299 C151.465672,113.130252 151.187714,110.058769 151.187714,110.058769 C151.187714,110.058769 149.699737,115.661369 148.463582,117.159016" id="path66" fill="#FFFFFF"></path>
                    </g>
                </g>
            </g>
        </g>
    </g>
</svg>