<svg width="200" height="200" viewBox="0 0 200 200" fill="none" xmlns="http://www.w3.org/2000/svg">
<path d="M150.375 89.62C152.744 83.2045 155.984 74.4201 169.983 52.558C182.156 33.5252 178.323 21.2535 178.159 20.7435L177.715 19.3782L176.317 19.6743C176.119 19.7072 172.352 20.579 170.822 25.9582L169.654 26.1063C169.457 26.1227 164.67 26.8465 163.913 34.0187C163.88 34.2655 163.864 34.4958 163.831 34.7426C163.683 34.4464 163.584 34.2655 163.568 34.2326L162.515 32.3902L161.034 33.9036C158.468 36.5356 158.468 38.5754 158.452 40.533C158.452 42.8524 158.435 45.4845 153.879 51.0775C153.056 52.0809 152.283 53.0021 151.526 53.8904C148.022 58.003 144.996 61.5397 141.837 69.4522C138.498 77.8088 137.758 78.4339 130.717 84.4711C129.319 85.672 127.674 87.0702 125.733 88.781C114.563 98.5853 109.151 105.906 106.848 109.541C100.219 98.2563 94.5103 91.4624 90.2827 86.3958C85.7424 80.9673 82.7321 77.3976 81.3503 71.9362C80.2481 67.6098 79.8204 64.4514 79.475 61.9181C78.7841 56.9337 78.3399 53.6437 73.8655 47.771C64.8837 35.9763 69.095 27.9651 69.2759 27.6526L72.2863 22.3392L67.0552 25.4812C62.7288 28.0803 60.4093 32.7192 60.3271 38.8715C60.3271 38.9702 60.3271 39.0689 60.3271 39.1841C50.7202 21.2206 49.9306 3.24066 49.9142 3.04326L49.799 0L47.3644 1.80951C42.5116 5.42852 40.2744 11.1202 40.8337 18.3912C40.5705 17.0587 40.4718 16.3349 40.4718 16.302L40.0112 12.6337L37.6589 15.496C33.6615 20.3487 32.658 27.5539 34.7308 36.3382C35.9645 41.5529 37.9221 45.8299 38.6788 47.3762C38.2675 48.6758 37.9879 49.9424 37.8234 51.1104C32.9213 41.2897 30.3221 33.3114 30.2892 33.2127L29.2529 30.0214L27.4269 32.8343C22.4426 40.4836 27.4927 53.5943 31.852 62.1319C29.6641 59.8454 27.3611 56.9995 25.5352 53.7424L24.104 51.1597L22.7222 53.7753C22.5084 54.203 17.5075 64.3198 37.1489 83.1716C38.8433 84.8001 39.929 86.2971 40.6199 87.4815C38.7775 86.659 36.2935 85.0469 33.9905 81.9378L31.671 78.7794L31.1446 82.6616C31.0953 82.9742 30.3715 89.3074 38.103 96.3481C37.6589 96.1342 37.1818 95.871 36.7212 95.5749L33.497 93.4858L34.2866 97.2364C34.336 97.4502 35.2901 101.661 41.6562 105.758C40.3402 106.448 39.8632 107.534 39.6822 108.291C39.2874 109.985 39.9454 111.482 40.9653 112.699C39.2874 113.522 39.0571 115.134 39.0407 115.743C39.0078 116.976 39.6493 117.898 40.6199 118.572C40.1099 119.214 39.7974 120.053 39.8138 121.105C39.8632 122.981 41.1956 124.099 42.7584 124.724C42.38 125.448 42.2155 126.32 42.4294 127.34C42.742 128.837 43.8112 129.906 45.3246 130.334C45.0779 131.387 45.2588 132.472 45.8675 133.476C46.4926 134.512 47.3973 135.203 48.4995 135.483C48.3679 136.338 48.5488 137.21 49.0423 138.033C49.7003 139.135 50.786 139.776 52.102 139.875C52.2007 140.665 52.612 141.734 53.7799 142.787C54.6189 143.543 55.6059 143.955 56.6587 144.004C56.7739 144.711 57.1029 145.435 57.7938 146.077C58.4353 146.669 59.2414 146.965 60.1297 146.965C60.2448 146.965 60.36 146.965 60.4587 146.949C60.6725 147.524 61.0509 148.1 61.6595 148.626C62.3504 149.202 63.14 149.515 63.9625 149.515C64.0941 149.515 64.2093 149.515 64.3409 149.498C64.6041 150.074 65.0318 150.6 65.6898 150.962C66.1504 151.226 66.6439 151.357 67.1539 151.357C67.4993 151.357 67.8119 151.291 68.108 151.209C68.4699 151.67 69.0127 152.147 69.8681 152.509C70.3452 152.706 70.8222 152.821 71.3157 152.821C72.0395 152.821 72.6482 152.607 73.1417 152.328C73.7668 152.805 74.6057 153.249 75.675 153.348C74.1287 154.91 72.0231 156.522 69.6543 158.332C63.2552 163.218 54.4873 169.88 48.5817 182.333C46.9532 185.771 46.7229 188.567 47.9237 190.607C48.7133 191.956 50.0129 192.713 51.1315 193.075C51.4605 195.295 52.9903 198.306 57.3332 199.539C58.4189 199.835 59.5046 200 60.5574 200C64.637 200 67.4335 197.796 68.6179 196.628C68.8976 196.644 69.1608 196.661 69.424 196.661C73.1252 196.661 75.346 194.325 76.4152 192.367C77.2049 192.532 77.978 192.597 78.6854 192.597C83.2256 192.597 86.1372 189.505 87.3381 183.418C87.7165 181.494 88.1277 179.964 88.539 178.746C89.0325 180.161 90.7597 183.237 95.0203 185.277C94.6748 184.52 94.4774 183.188 94.4116 182.333C95.0203 183.122 96.0566 185.03 102.193 188.567C102.341 188.649 102.505 188.501 102.423 188.353C101.781 187.185 100.893 185.507 99.906 183.533C99.1492 182.037 99.4125 180.655 99.8073 179.701C101.354 180.819 102.851 181.395 104.315 181.395C107.999 181.395 109.908 177.924 110.5 176.592C111.651 175.818 112.803 175.391 113.691 175.16C113.576 177.167 114.02 178.812 115.024 180.046C116.043 181.313 117.623 182.102 119.547 182.3C119.399 182.727 119.301 183.172 119.251 183.616C118.873 187.481 122.673 190.081 122.837 190.196C123.759 190.837 124.959 191.594 126.489 192.367C126.769 192.499 127.065 192.219 126.933 191.956C126.275 190.591 125.552 188.946 125.19 188.205C124.778 187.333 124.828 186.626 124.976 186.149C125.239 186.182 125.486 186.182 125.733 186.182C127.657 186.182 128.94 185.376 129.977 184.734C130.865 184.175 131.408 183.862 132.165 183.862C132.921 183.862 133.908 184.208 135.076 184.866C138.07 186.56 139.847 188.715 140.669 189.883C139.945 190.985 139.435 192.581 140.192 194.275C140.472 194.917 140.455 195.18 140.455 195.18C140.357 195.262 139.995 195.378 139.584 195.378C139.041 195.378 137.889 195.378 136.721 195.345C136.425 195.345 136.261 195.69 136.458 195.92C137.248 196.825 138.037 197.681 138.333 198.026C138.498 198.223 140.061 199.885 142.693 199.885C144.371 199.885 146.032 199.194 147.661 197.845C148.187 197.401 148.631 196.94 148.993 196.463L150.918 196.562C151.049 196.562 151.181 196.578 151.312 196.578C155.474 196.578 158.616 193.157 158.616 188.617C158.616 184.701 154.389 182.645 151.296 181.132C150.687 180.836 150.112 180.556 149.635 180.293V174.206H146.394L147.677 172.216C149.75 168.992 150.046 165.521 148.499 162.658C147.118 160.125 144.535 158.628 141.59 158.628C140.571 158.628 139.551 158.809 138.547 159.171C137.182 158.365 135.784 157.954 134.352 157.954C131.885 157.954 129.845 159.154 128.2 160.109C127.789 160.355 127.361 160.602 126.966 160.799C126.736 159.632 126.358 158.71 126.029 158.052C127.986 155.716 128.529 153.051 129.023 150.666C129.664 147.491 130.125 145.781 132.461 144.925C132.855 144.777 133.234 144.711 133.563 144.711C135.849 144.711 137.363 148.413 138.597 151.867C140.143 156.21 142.1 156.868 143.137 156.868H143.334L143.597 156.819L143.712 156.769C144.469 156.506 145.094 156.062 145.538 155.47L147.397 155.157C151.559 154.466 154.421 152.739 155.951 150.041C157.662 146.998 157.086 143.609 156.642 141.997C157.794 140.368 158.468 137.605 156.741 132.949C154.093 125.843 146.525 116.911 141.442 116.615C141.344 116.615 141.229 116.598 141.146 116.598C140.242 116.598 139.567 116.845 139.057 117.19C138.169 116.697 137.313 116.335 137.034 116.236C136.113 115.776 135.01 115.414 134.04 115.151C136.326 112.667 140.209 108.192 143.811 102.829C147.512 97.3515 148.779 93.9299 150.375 89.62Z" fill="white"/>
<path d="M142.495 101.958C151.625 88.3699 145.44 87.9586 168.634 51.6862C180.528 33.0812 176.629 21.2371 176.629 21.2371C176.629 21.2371 172.122 22.1912 171.793 30.1037C171.563 35.4171 169.177 39.1677 169.177 39.1677C171.02 32.5712 169.852 27.702 169.852 27.702C169.852 27.702 166.134 28.1955 165.492 34.1998C165.065 38.2629 163.551 42.2274 163.551 42.2274C164.094 38.411 162.17 35.0223 162.17 35.0223C157.251 40.056 163.749 41.5036 155.112 52.0975C150.572 57.6576 147.068 60.6844 143.318 70.0445C139.139 80.4903 138.531 79.6513 126.785 89.982C110.944 103.899 106.848 112.732 106.848 112.732C92.5693 87.5474 82.765 83.9612 79.804 72.331C76.5634 59.6151 79.0473 57.2134 72.5989 48.7416C62.7782 35.8612 67.8942 26.863 67.8942 26.863C58.5341 32.5054 63.0085 46.7183 63.0085 46.7183C49.1904 26.205 48.335 3.10913 48.335 3.10913C35.6191 12.5844 47.1506 34.0517 47.1506 34.0517C46.4268 39.217 47.7428 44.6127 47.7428 44.6127C40.3074 27.5868 38.9091 16.4995 38.9091 16.4995C29.9603 27.3894 40.4226 47.2447 40.4226 47.2447C38.4979 52.6403 39.3862 57.4602 39.3862 57.4602C32.4114 45.0075 28.7759 33.7063 28.7759 33.7063C21.5708 44.7443 37.9386 69.5345 37.9386 69.5345C37.9386 69.5345 29.253 63.6948 24.1699 54.5156C24.1699 54.5156 19.3007 63.777 38.284 82.0037C42.8243 86.363 43.4 89.9162 43.4 89.9162C43.4 89.9162 37.6589 89.472 32.7404 82.8755C32.7404 82.8755 31.6547 91.0348 44.3706 99.0789C44.3706 99.0789 40.3074 99.8027 35.8659 96.9239C35.8659 96.9239 37.0667 102.681 47.7428 107.123C47.7428 107.123 41.9853 105.56 41.2615 108.669C40.5377 111.795 45.3411 114.032 45.3411 114.032C45.3411 114.032 40.7516 112.93 40.6693 115.825C40.6035 117.865 44.6996 118.375 44.6996 118.375C44.6996 118.375 41.3931 118.49 41.4425 121.106C41.5083 123.721 46.2952 123.836 46.2952 123.836C46.2952 123.836 43.5316 124.757 44.0087 127.044C44.4857 129.331 47.3974 129.133 48.5324 128.656C48.5324 128.656 45.8017 130.285 47.2493 132.686C48.6969 135.088 51.6909 133.64 51.6909 133.64C51.6909 133.64 49.174 135.121 50.4242 137.243C51.5593 139.168 54.2571 137.901 54.2571 137.901C54.2571 137.901 52.6121 139.595 54.8493 141.619C56.7081 143.297 58.6986 141.866 58.6986 141.866C58.6986 141.866 57.4813 143.659 58.8631 144.909C60.2449 146.175 62.3341 144.547 62.3341 144.547C62.3341 144.547 61.0838 146.044 62.7124 147.426C64.3245 148.807 65.8708 146.949 65.8708 146.949C65.8708 146.949 65.1141 148.807 66.4959 149.581C67.8777 150.354 69.2595 148.396 69.2595 148.396C69.2595 148.396 68.3219 150.107 70.5426 151.045C72.1547 151.736 73.2734 150.156 73.2734 150.156C73.2734 150.156 75.8067 153.973 79.7711 149.794C77.6491 158.217 59.9159 162.231 50.0623 183.007C46.0978 191.347 52.7272 191.759 52.7272 191.759C52.7272 191.759 52.2337 196.414 57.8103 197.977C64.2094 199.77 68.0751 194.917 68.0751 194.917C73.9478 195.937 75.5435 190.475 75.5435 190.475C80.643 191.972 84.3936 190.426 85.8412 183.106C87.2724 175.802 89.3122 173.631 89.3122 173.631C89.1312 179.273 92.7338 181.724 92.7338 181.724C91.8948 177.398 94.3295 173.927 94.3295 173.927C92.5857 180.095 98.5407 184.241 98.5407 184.241C96.616 180.457 99.4783 177.266 99.4783 177.266C106.322 183.78 109.266 175.522 109.266 175.522C112.441 173.186 115.632 173.252 115.632 173.252C113.708 182.004 121.801 180.671 121.801 180.671C119.334 179.108 119.794 176.559 119.794 176.559C124.236 176.674 123.693 173.384 123.693 173.384C127.049 175.177 128.661 176.937 128.661 176.937C114.744 182.76 123.808 188.863 123.808 188.863C122.558 186.166 124.219 184.373 124.219 184.373C129.681 185.738 129.45 179.799 135.915 183.468C140.735 186.182 142.693 189.998 142.693 189.998C142.693 189.998 140.834 191.676 141.706 193.601C143.301 197.121 139.584 196.957 139.584 196.957C139.584 196.957 142.429 200.165 146.69 196.628C150.951 193.091 147.842 187.909 147.842 187.909C149.042 187.909 150.095 188.551 150.095 188.551C150.095 188.551 149.848 190.788 151.362 191.66C153.78 193.058 151.049 194.983 151.049 194.983C154.586 195.164 157.07 192.351 157.07 188.633C157.07 184.915 151.247 183.089 148.598 181.543C145.966 179.98 146.048 179.586 141.903 178.023C133.481 174.848 129.796 168.975 129.796 168.975C132.378 167.363 134.484 167.215 134.484 167.215C134.484 167.215 134.649 169.156 136.688 170.308C139.863 172.084 137.116 174.025 137.116 174.025C139.617 173.746 140.274 172.035 140.274 172.035C143.926 172.578 141.722 175.572 141.722 175.572C147.315 173.861 144.288 168.021 144.288 168.021C146.575 167.116 146.377 171.393 146.377 171.393C150.786 164.55 144.93 158.052 138.416 160.997C132.691 156.917 128.71 162.971 125.65 162.905C125.519 159.582 124.055 157.904 124.055 157.904C129.154 153.167 125.848 145.715 131.951 143.478C136.54 141.8 138.646 147.179 140.143 151.374C141.64 155.568 143.236 155.305 143.236 155.305C145.16 154.647 144.881 152.311 144.798 151.703C144.206 147.689 144.634 144.563 144.634 144.563H145.111C145.358 148.709 149.125 149.054 149.125 149.054C148.796 151.374 147.874 152.821 147.184 153.611C158.896 151.653 154.915 141.668 154.915 141.668C160.409 136.322 147.513 118.605 141.41 118.243C139.666 118.145 139.419 119.362 139.419 119.362C138.333 118.457 136.442 117.733 136.442 117.733C134.287 116.648 130.98 116.121 130.98 116.121C130.98 116.121 137.1 110.002 142.495 101.958Z" fill="#555759"/>
<path d="M142.66 147.705C142.66 147.705 142.577 146.192 142.939 143.428C142.939 143.428 142.067 143 141.311 141.8C141.311 141.8 141.459 145.139 142.66 147.705Z" fill="#C22032"/>
<path d="M152.859 143.675C152.924 141.964 151.608 140.944 150.885 140.5C150.26 140.599 149.602 140.796 148.911 140.928C151.263 142.013 152.859 143.675 152.859 143.675Z" fill="white"/>
<path d="M150.26 151.061C150.622 150.304 151 149.153 150.951 147.623C150.951 147.623 148.401 147.294 148.187 144.859C148.187 144.859 149.289 146.57 151.773 146.817C151.773 146.801 152.201 149.597 150.26 151.061ZM154.175 144.629C154.027 144.777 153.796 144.892 153.566 144.958C155.244 142.31 153.122 140.878 153.122 140.878L152.859 140.763C152.217 140.401 151.576 140.385 150.901 140.5C151.625 140.928 152.941 141.964 152.875 143.675C152.875 143.675 151.28 141.997 148.927 140.928C148.138 141.076 147.282 141.142 146.345 140.862C145.604 140.632 141.113 139.25 139.6 134.71C137.873 137.292 137.774 140.336 137.774 140.336C133.958 139.431 131.359 140.796 129.681 142.491C130.651 141.833 131.869 141.405 133.464 141.356C140.028 141.125 140.077 150.551 143.005 153.742C143.499 151.357 141.492 146.801 141.492 146.801C139.337 141.586 139.995 137.621 139.995 137.621C142.035 142.721 146.098 143.889 146.098 143.889C146.032 147.426 149.816 148.149 149.816 148.149C150.293 149.827 149.569 151.653 149.569 151.653C151.806 151.127 155.129 149.367 154.175 144.629Z" fill="#ECECEC"/>
<path d="M147.48 137.325C147.332 137.786 146.904 138.115 146.394 138.115C145.769 138.115 145.259 137.605 145.259 136.98C145.259 136.93 145.275 136.865 145.275 136.815C145.045 136.651 144.897 136.388 144.897 136.075C144.897 135.565 145.308 135.154 145.818 135.154C146.262 135.154 146.641 135.483 146.723 135.894C146.756 135.91 146.789 135.91 146.805 135.927C146.657 135.483 146.558 135.006 146.509 134.529C146.41 134.512 146.312 134.512 146.196 134.512C144.93 134.512 143.91 135.532 143.91 136.799C143.91 138.065 144.93 139.085 146.196 139.085C146.953 139.085 147.628 138.723 148.039 138.148C147.858 137.868 147.661 137.605 147.48 137.325Z" fill="#C22032"/>
<path d="M145.835 135.137C145.325 135.137 144.913 135.549 144.913 136.059C144.913 136.355 145.061 136.634 145.292 136.799C145.44 136.914 145.637 136.98 145.851 136.98C146.361 136.98 146.772 136.569 146.772 136.059C146.772 135.993 146.772 135.944 146.756 135.878C146.657 135.466 146.279 135.137 145.835 135.137Z" fill="white"/>
<path d="M152.678 185.59C148.138 183.451 147.085 182.003 143.597 180.145C141.229 178.878 137.231 178.286 134.122 175.851C131.671 173.943 130.075 172.314 129.055 171.064C128.315 171.212 127.805 171.492 127.46 171.837C126.983 172.314 126.818 172.907 126.769 173.384C130.454 175.835 131.227 177.842 131.227 177.842C125.157 179.816 123.627 182.398 123.627 182.398C125.387 184.224 127.23 182.711 127.23 182.711C129.746 180.901 132.214 180.49 132.214 180.49C141.327 182.168 144.486 190.278 144.486 190.278C144.486 190.278 143.022 192.203 143.449 193.074C143.828 193.831 143.959 194.473 143.992 194.966C144.042 195.871 143.729 196.348 143.729 196.348C143.729 196.348 147.447 195.246 147.447 192.219C147.447 189.061 145.44 185.919 143.712 183.797C142.396 182.168 141.229 181.148 141.229 181.148C145.9 183.451 147.233 186.132 147.233 186.132C149.306 186.132 151.905 187.547 151.905 187.547C151.905 187.547 150.802 188.863 152.48 190.064C153.155 190.541 153.533 191.018 153.747 191.413C154.076 192.005 154.01 192.433 154.01 192.433C155.458 191.232 155.787 190.048 155.787 188.781C155.754 187.514 154.75 186.56 152.678 185.59Z" fill="#ECECEC"/>
<path d="M140.274 162.05C140.686 162.395 141.113 162.872 141.442 163.464C141.821 164.139 142.067 164.978 142.067 166.03C142.067 166.359 142.035 166.656 142.002 166.919C143.466 165.866 144.667 165.899 145.39 166.08C145.851 166.195 146.114 166.376 146.114 166.376C145.867 161.688 142.545 161.573 140.274 162.05Z" fill="#ECECEC"/>
<path d="M141.936 167.248C141.837 167.676 141.673 168.038 141.475 168.35C140.899 169.255 139.995 169.716 139.156 169.946C139.205 170.028 139.222 170.077 139.222 170.077C140.899 169.847 141.985 170.39 142.643 170.949C143.186 171.41 143.416 171.887 143.416 171.887C144.338 170.11 142.479 167.857 141.936 167.248Z" fill="#ECECEC"/>
<path d="M138.202 162.708C133.563 159.418 130.322 162.773 127.164 164.172C126.588 164.418 126.012 164.616 125.436 164.698C120.978 166.195 117.458 166.508 115.369 166.508C114.958 166.524 114.547 166.524 114.102 166.524C113.724 168.251 112.885 170.275 111.273 172.446C112.293 172.084 114.25 171.459 115.649 171.492C115.649 171.492 116.06 168.383 122.245 167.412C122.245 167.412 119.235 168.58 117.837 171.541C115.846 176.164 118.034 178.253 118.034 178.253C117.442 176.493 118.248 174.766 118.248 174.766C123.528 176.509 121.719 170.719 121.719 170.719C125.256 167.363 127.279 168.416 127.279 168.416C131.901 164.879 136.096 165.307 136.096 165.307C136.096 165.307 134.961 167.297 136.952 168.251C137.231 168.383 137.478 168.515 137.675 168.646C137.955 168.63 138.268 168.597 138.613 168.515C139.584 168.268 140.62 167.626 140.62 165.981C140.653 164.435 138.202 162.708 138.202 162.708Z" fill="#ECECEC"/>
<path d="M175.363 24.2473C175.363 24.2473 173.948 25.7772 173.602 30.3338C173.339 33.9035 172.336 37.029 171.135 39.6281C167.434 48.1986 159.751 55.6176 153.994 65.0764C153.073 66.7708 151.987 68.7941 150.868 70.8997C150.704 71.2781 150.523 71.6564 150.358 72.0348C142.775 89.6857 136.376 103.405 123.479 115.529C124.252 115.512 125.009 115.479 125.749 115.463C126.934 115.447 128.036 115.447 129.023 115.496C145.062 99.4571 146.707 88.1723 149.141 82.4477C149.487 81.6416 149.848 80.7862 150.26 79.8815C152.974 73.8936 157.333 65.6357 166.644 51.4393C177.386 35.1044 175.363 24.2473 175.363 24.2473Z" fill="#C22032"/>
<path d="M78.7512 129.429C78.7512 129.429 73.7339 129.396 73.0101 124.149C73.0101 124.149 68.5193 121.517 69.2431 115.891C69.2431 115.891 70.4933 116.631 72.0725 116.351C72.0725 116.351 69.934 115.364 68.7331 111.071C68.7331 111.071 69.6379 111.153 70.7729 110.906C70.7729 110.906 66.644 108.817 67.4665 104.886C67.4665 104.886 64.7028 103.306 65.4925 100.082C65.4925 100.082 62.2189 98.4043 63.1565 94.2753C63.1565 94.2753 59.554 92.548 60.8206 88.4026C60.8206 88.4026 59.0605 87.6624 58.5012 85.3264C58.5012 85.3264 54.8822 84.3723 55.1783 80.3914C55.1783 80.3914 50.8354 78.072 52.5463 72.7421C52.5463 72.7421 47.8415 67.9716 52.5463 61.3587C52.5463 61.3587 50.7203 54.828 56.8562 53.6765C56.8562 53.6765 57.4648 51.3899 56.4778 48.2973C57.9912 50.2549 59.7843 53.0679 60.3107 57.4765C60.87 62.2141 61.6925 65.06 63.8639 69.0244C63.8639 69.0244 58.057 65.1751 56.6259 56.0618C56.6259 56.0618 50.3584 60.8652 62.2189 73.2521C62.2189 73.2521 55.9514 71.0149 53.5661 64.3855C53.5661 64.3855 48.9437 71.9361 62.9591 76.756C62.9591 76.756 59.8994 77.9239 54.3558 74.2555C54.3558 74.2555 54.5367 80.8685 64.2587 80.046C64.2587 80.046 63.1401 82.0693 57.4155 80.9507C57.4155 80.9507 58.2544 84.981 66.2492 84.1914C66.2492 84.1914 65.3938 86.2148 61.6102 85.8364C61.6102 85.8364 62.005 88.5671 69.1608 88.6987C69.1608 88.6987 65.9037 91.1662 62.844 89.7844C62.844 89.7844 63.2717 94.4233 73.4214 93.4528C73.4214 93.4528 70.0162 96.6934 65.6899 95.509C65.6899 95.509 67.5323 101.596 77.6655 99.0294C77.6655 99.0294 75.3296 101.957 67.9106 101.694C67.9106 101.694 69.1937 106.662 81.0707 103.306C81.0707 103.306 76.6456 107.616 70.082 106.613C70.082 106.613 72.5002 112.798 85.0351 108.521C85.0351 108.521 82.3702 112.486 72.5495 112.551C72.5495 112.551 76.0699 119 88.0126 113.226C88.0126 113.226 82.9295 118.72 73.882 118.737C73.882 118.737 75.2803 127.274 91.9442 117.865C91.9442 117.865 87.6343 124.461 77.4517 125.119C77.4517 125.119 83.9988 132.242 95.8922 121.484C95.8922 121.484 94.4446 128.195 83.3737 129.725C83.3737 129.725 91.6316 135.368 100.597 124.807C97.8498 136.124 84.6897 135.598 78.7512 129.429ZM141.196 120.316C140.291 120.628 140.143 121.846 140.143 121.846C131.112 115.463 119.827 118.572 115.501 117.881C106.864 116.483 106.009 114.92 102.571 109.031C95.8922 97.5489 86.6966 88.4684 80.4949 78.9274C77.9123 74.9629 76.0041 65.2903 75.4119 59.763C74.8197 54.2358 73.2075 53.2159 68.7331 46.274C64.2587 39.332 64.7193 33.262 64.7193 33.262C61.2977 43.4117 66.9565 52.673 66.9565 52.673C56.6917 43.79 53.7306 33.2784 53.7306 33.2784C53.7306 33.2784 48.2528 38.9701 48.9766 50.8964C48.9766 50.8964 46.8874 47.7709 45.7688 44.6454C45.7688 44.6454 40.8831 54.499 42.9065 64.6487C42.9065 64.6487 40.6364 63.2998 38.2676 59.0557C38.2676 59.0557 38.5801 67.3794 42.9065 73.943C42.9065 73.943 40.3403 72.9066 38.6624 71.7058C38.6624 71.7058 39.3368 85.2442 58.4518 96.5289C58.4518 96.5289 49.1246 122.668 66.1669 136.749C66.1669 136.749 66.6933 141.553 71.5954 142.178C71.5954 142.178 72.714 146.323 77.024 144.81C77.024 144.81 77.9945 146.636 81.7945 145.961C84.3936 155.091 67.5816 163.168 60.689 170.587C57.5635 173.959 54.9809 177.546 53.1549 180.819V186.675C55.6389 181.806 60.3107 175.111 68.3383 171.262C68.3383 171.262 65.3773 171.015 60.8206 174.058C60.8206 174.058 71.5461 163.333 83.0611 158.612C83.0611 158.612 82.9789 151.176 88.2594 147.722C88.2594 147.722 81.0049 159.911 91.2204 168.975C90.3156 173.351 91.3026 176.197 91.3026 176.197C92.6186 172.183 95.777 170.571 95.777 170.571C94.9381 174.173 96.6489 177.578 96.6489 177.578C97.6688 175.423 99.3467 174.716 99.3467 174.716C105.532 182.152 108.164 174.107 108.164 174.107C108.394 173.943 108.625 173.795 108.855 173.647C109.315 173.285 109.957 172.676 110.516 171.755C111.734 169.781 112.655 166.376 110.911 160.865C110.911 160.865 110.862 164.221 109.167 167.347C109.167 167.347 110.418 163.777 107.045 155.141C107.045 155.141 105.976 157.213 106.651 159.664C106.651 159.664 101.913 151.785 107.44 144.711C107.44 144.711 105.335 150.189 109.957 154.795C109.957 154.795 114.547 156.259 118.297 150.502C118.297 150.502 118.281 153.331 117.063 155.535C117.063 155.535 121.867 153.347 123.101 146.636C123.101 146.636 121.735 146.833 120.913 147.606C120.913 147.606 121.933 143.938 127.147 142.244C127.147 142.244 124.959 144.629 123.89 150.09C122.821 155.552 118.857 158.941 113.987 161.112C113.987 161.112 114.119 161.457 114.234 162.066C118.05 160.931 120.469 159.22 120.469 159.22C122.393 162.823 121.883 164.27 121.883 164.27C122.706 164.073 123.331 163.908 123.792 163.793C123.808 159.335 121.505 157.756 121.505 157.756C126.539 155.601 124.746 145.846 129.631 142.474C131.309 140.78 133.908 139.414 137.725 140.319C137.725 140.319 137.84 137.276 139.551 134.693C139.551 134.693 139.551 134.693 139.551 134.71C139.386 134.2 139.238 133.64 139.156 133.032C139.156 133.032 139.88 134.529 142.035 135.68C142.035 135.68 142.528 133.196 145.193 132.357C145.193 132.357 144.157 130.844 142.035 129.725C142.035 129.725 146.164 129.232 147.759 133.311C149.338 137.358 149.437 138.707 153.418 140.615C153.5 140.533 153.583 140.451 153.681 140.335C154.027 139.924 154.454 139.283 154.668 138.312C156.116 131.962 143.844 119.395 141.196 120.316Z" fill="#C22032"/>
<path d="M143.696 175.621V175.983H144.37V178.023H144.815V175.983H145.506V175.621H143.696Z" fill="#555759"/>
<path d="M147.809 177.036C147.792 176.723 147.776 176.345 147.776 176.016H147.759C147.677 176.312 147.578 176.641 147.48 176.937L147.134 177.973H146.789L146.476 176.953C146.377 176.641 146.295 176.312 146.229 176.016C146.213 176.328 146.197 176.707 146.18 177.036L146.131 178.006H145.719L145.884 175.604H146.46L146.772 176.575C146.855 176.855 146.937 177.134 146.986 177.414H147.003C147.068 177.151 147.151 176.855 147.249 176.575L147.578 175.604H148.154L148.286 178.006H147.858L147.809 177.036Z" fill="#555759"/>
</svg>
