<?xml version="1.0" encoding="UTF-8"?>
<svg width="200px" height="200px" viewBox="0 0 200 200" version="1.1" xmlns="http://www.w3.org/2000/svg" xmlns:xlink="http://www.w3.org/1999/xlink">
    <!-- Generator: Sketch 54.1 (76490) - https://sketchapp.com -->
    <title>montevallo</title>
    <desc>Created with Sketch.</desc>
    <g id="montevallo" stroke="none" stroke-width="1" fill="none" fill-rule="evenodd">
        <g id="montevallo_BGL">
            <g id="Asset-1" transform="translate(0.000000, 29.000000)">
                <path d="M130.863388,34.9538462 L121.803279,44.9484615 C121.114754,41.4530769 119.814208,34.9538462 119.814208,34.9538462 L106.84153,34.9538462 L119.57377,0 L24.568306,0 L5.81420765,51.5023077 L10.3934426,51.5023077 L2.10928962,74.2769231 C-4.64480874,92.8461538 5.65027322,106.652923 21.5519126,106.652923 L42.6229508,106.652923 C39.9344262,114.026 29.8142077,141.836154 29.8142077,141.836154 L144.677596,141.836154 L163.464481,90.2246154 L158.666667,90.2246154 C159.431694,88.1383077 159.704918,87.3736923 160.218579,85.9646154 L164.491803,85.9646154 L177.770492,49.5798462 L195.256831,49.5798462 L199.191257,34.9538462 L130.863388,34.9538462 Z M161.879781,82.218 L157.606557,82.218 L153.333333,93.9384615 L158.131148,93.9384615 L142.076503,138.100462 L35.1912568,138.100462 L48,102.917231 L21.5519126,102.917231 C7.26775956,102.917231 0.120218579,90.6615385 5.61748634,75.5549231 C5.61748634,75.5549231 12.3934426,56.9310769 15.7377049,47.7775385 L11.147541,47.7775385 L27.1803279,3.73569231 L114.240437,3.73569231 L101.508197,38.6895385 L116.808743,38.6895385 L119.650273,52.9550769 L132.568306,38.6895385 L177.79235,38.6895385 L161.879781,82.218 Z M184.491803,39.9784615 L182.896175,45.9315385 L181.595628,45.9315385 L183.191257,39.9784615 L181.333333,39.9784615 L181.68306,38.7004615 L186.677596,38.7004615 L186.327869,39.9784615 L184.491803,39.9784615 Z M192.502732,45.9315385 L191.256831,45.9315385 L192.568306,41.038 C192.568306,40.896 192.655738,40.6993846 192.73224,40.4481538 C192.808743,40.1969231 192.863388,40.0003077 192.896175,39.8583077 L190.163934,45.9315385 L188.918033,45.9315385 L189.387978,39.8583077 C189.387978,40.0003077 189.289617,40.1969231 189.234973,40.4481538 C189.180328,40.6993846 189.114754,40.896 189.071038,41.038 L187.759563,45.9315385 L186.557377,45.9315385 L188.502732,38.7004615 L190.382514,38.7004615 L189.967213,44.3913846 L192.612022,38.7004615 L194.459016,38.7004615 L192.502732,45.9315385 Z" id="Shape" fill="#FFFFFF" fill-rule="nonzero"></path>
                <path d="M106.31694,49.7 L81.9672131,49.7 C84.0655738,43.9435385 85.9016393,38.8752308 86.6775956,36.7670769 L91.1584699,36.7670769 L99.1803279,14.7352308 L68.284153,14.7352308 L48.1639344,69.9841538 L45.2131148,69.9841538 L65.3333333,14.7352308 L34.1857923,14.7352308 L26.1530055,36.7670769 L30.7431694,36.7670769 C28.4808743,43.0041538 16.6229508,75.5549231 16.6229508,75.5549231 C13.3442623,84.5773846 17.3442623,91.9395385 25.5628415,91.9395385 L52.0546448,91.9395385 C60.6448087,91.9395385 69.9453552,82.8624615 72.9071038,74.7138462 L74,71.7646154 L74.863388,71.7646154 L62.6010929,105.342154 L58.1202186,105.342154 L50.1967213,127.100923 L80.1967213,127.100923 L90.1967213,99.6403077 C90.4153005,100.448615 95.9234973,121.246154 95.9234973,121.246154 L114.863388,100.492308 L105.15847,127.144615 L135.060109,127.144615 L143.169399,104.948923 L138.371585,104.948923 L150.415301,71.7646154 L154.688525,71.7646154 L162.721311,49.7 L135.071038,49.7 L111.47541,75.7078462 C109.967213,68.0616923 106.306011,49.7 106.306011,49.7 L106.31694,49.7 Z M69.147541,74.692 C66.9617486,80.6341538 59.8579235,88.182 53.3879781,88.182 L26.9180328,88.182 C20.4590164,88.182 17.9234973,82.2507692 20.3606557,75.5549231 L35.9234973,32.8238462 L31.3333333,32.8238462 L36.557377,18.4709231 L60.2295082,18.4709231 L40.1092896,73.7198462 L50.5464481,73.7198462 L70.6666667,18.4709231 L94.1311475,18.4709231 L88.9071038,32.8238462 L84.4153005,32.8238462 L69.147541,74.692 Z M135.912568,53.4356923 L157.606557,53.4356923 L152.240437,68.2146154 L147.967213,68.2146154 L133.224044,108.684615 L138.021858,108.684615 L132.677596,123.365231 L110.262295,123.365231 L123.934426,85.8116923 L98.3606557,113.862154 C96.0218579,104.861538 93.5519126,95.6315385 91.1803279,86.6746154 L77.8251366,123.365231 L55.3005464,123.365231 L60.557377,108.914 L65.0491803,108.914 L79.9453552,68.0070769 L75.2459016,68.0070769 L80.557377,53.4356923 L102.73224,53.4356923 L108.699454,83.4304615 L135.912568,53.4356923 Z" id="Shape" fill="#FFFFFF" fill-rule="nonzero"></path>
                <polygon id="Shape" fill="#A25EB5" fill-rule="nonzero" points="136.491803 55.8496923 109.377049 85.9318462 109.923497 88.5752308 137.300546 58.2855385 153.453552 58.2855385 154.338798 55.8496923"></polygon>
                <path d="M78.5355191,65.5930769 L81.1147541,65.5930769 C81.9672131,63.1353846 83.0601093,60.2626154 83.7704918,58.2855385 L100.961749,58.2855385 C100.721311,57.0293846 100.546448,56.1009231 100.480874,55.8496923 L82.0874317,55.8496923 C81.1038251,58.5367692 79.5191257,62.906 78.5355191,65.5930769" id="Shape" fill="#A25EB5" fill-rule="nonzero"></path>
                <polygon id="Shape" fill="#A25EB5" fill-rule="nonzero" points="131.453552 113.534462 133.846995 113.534462 134.73224 111.098615 132.338798 111.098615"></polygon>
                <polygon id="Shape" fill="#A25EB5" fill-rule="nonzero" points="128.076503 81.0383077 113.540984 120.951231 116.120219 120.951231 132.185792 76.8438462"></polygon>
                <polygon id="Shape" fill="#A25EB5" fill-rule="nonzero" points="92.8961749 82.4036923 99.9672131 109.110615 102.284153 106.358 94.7759563 77.2589231"></polygon>
                <path d="M66.579235,111.306154 L62.0983607,111.306154 L58.5901639,120.940308 L61.2021858,120.940308 C62.0874317,118.526308 63.1147541,115.697231 63.8251366,113.742 L68.3060109,113.742 L84.9180328,68.0289231 L82.3387978,68.0289231 L66.579235,111.306154 Z" id="Shape" fill="#A25EB5" fill-rule="nonzero"></path>
                <path d="M89.9562842,23.3207692 L90.8415301,20.874 L72.1967213,20.874 L52.0765027,76.1338462 L39.3989071,76.1338462 C38.8415301,77.6849231 38.5136612,78.5696923 38.5136612,78.5696923 L53.7595628,78.5696923 L73.8797814,23.3207692 L89.9562842,23.3207692 Z" id="Shape" fill="#A25EB5" fill-rule="nonzero"></path>
                <path d="M40.8961749,32.8566154 L38.3169399,32.8566154 L22.7650273,75.5549231 C21.3442623,79.4544615 21.989071,82.8515385 24.1202186,84.5664615 C23.4705827,82.4085259 23.5903268,80.0921465 24.4590164,78.0126154 L40.8961749,32.8566154 Z" id="Shape" fill="#A25EB5" fill-rule="nonzero"></path>
                <path d="M39.7814208,23.3207692 L56.0546448,23.3207692 C56.4918033,22.1410769 56.7978142,21.3 56.9508197,20.874 L38.0874317,20.874 C37.1256831,23.5501538 35.5956284,27.7555385 34.6229508,30.4098462 L37.1584699,30.4098462 C38.0327869,28.0286154 39.0382514,25.2650769 39.7486339,23.3207692" id="Shape" fill="#A25EB5" fill-rule="nonzero"></path>
                <path d="M134.196721,45.9643077 L114.240437,67.9852308 C112.84153,60.9289231 109.868852,45.9643077 109.868852,45.9643077 L87.1147541,45.9643077 C87.9672131,43.5830769 88.6775956,41.6606154 89.0928962,40.5027692 L93.5737705,40.5027692 L104.327869,11.0104615 L31.8032787,11.0104615 L21.0601093,40.5027692 L25.6502732,40.5027692 C23.4644809,46.6087692 12.8852459,75.544 12.8852459,75.544 C8.85245902,86.6309231 13.9781421,95.6424615 24.1967213,95.6424615 L50.6885246,95.6424615 C55.3333333,95.6424615 60.0437158,93.6981538 64.1967213,90.6833846 C62.010929,96.56 60.1639344,101.770308 60.1639344,101.770308 L55.7377049,101.770308 L45.1584699,130.825692 L82.579235,130.825692 L89.2240437,112.584154 C90.6229508,117.903692 93.4644809,128.619231 93.4644809,128.619231 L105.79235,115.074615 C103.606557,121.027692 100.054645,130.825692 100.054645,130.825692 L137.431694,130.825692 L148.218579,101.202308 L143.420765,101.202308 C145.355191,96.0356923 152.852459,75.3692308 152.852459,75.3692308 L157.136612,75.3692308 L167.825137,46.008 L134.196721,45.9643077 Z M154.688525,71.7755385 L150.415301,71.7755385 C150.415301,71.7755385 140.349727,99.4 138.327869,104.948923 L143.169399,104.948923 L135.103825,127.100923 L105.15847,127.100923 L114.863388,100.492308 L95.9234973,121.246154 C95.9234973,121.246154 90.4590164,100.492308 90.1967213,99.6403077 L80.1967213,127.100923 L50.1967213,127.100923 L58.1202186,105.342154 L62.6010929,105.342154 L74.8415301,71.7427692 L73.9781421,71.7427692 L72.8852459,74.692 C69.9453552,82.8406154 60.6448087,91.9176923 52.0546448,91.9176923 L25.5628415,91.9176923 C17.3442623,91.9176923 13.3333333,84.5773846 16.6229508,75.5330769 C16.6229508,75.5330769 28.4808743,42.9823077 30.7431694,36.7561538 L26.1530055,36.7561538 L34.1857923,14.7133846 L65.3333333,14.7133846 L45.2131148,69.9841538 L48.1639344,69.9841538 L68.284153,14.7352308 L99.2240437,14.7352308 L91.2021858,36.778 L86.7213115,36.778 C85.9453552,38.8861538 84.1530055,43.9435385 81.9672131,49.7 L106.31694,49.7 C106.31694,49.7 109.978142,68.0944615 111.486339,75.7078462 L135.071038,49.7 L162.721311,49.7 L154.688525,71.7755385 Z" id="Shape" fill="#FFC629" fill-rule="nonzero"></path>
                <path d="M69.1693989,74.692 L84.4153005,32.8238462 L88.9071038,32.8238462 L94.1311475,18.4709231 L70.6666667,18.4709231 L50.5464481,73.7198462 L40.1092896,73.7198462 L60.2295082,18.4709231 L36.557377,18.4709231 L31.3333333,32.8238462 L35.9234973,32.8238462 L20.3606557,75.5549231 C17.9234973,82.2507692 20.4590164,88.182 26.9180328,88.182 L53.4098361,88.182 C59.8797814,88.182 67.0054645,80.6341538 69.1693989,74.692 L69.1693989,74.692 Z M34.6229508,30.4098462 C35.5956284,27.7555385 37.1256831,23.5501538 38.0874317,20.874 L56.9508197,20.874 C56.7978142,21.3 56.4918033,22.1410769 56.0546448,23.3207692 L39.7814208,23.3207692 C39.0710383,25.2650769 38.0655738,28.0286154 37.1912568,30.4098462 L34.6229508,30.4098462 Z M24.4590164,78.0016923 C23.5903268,80.0812234 23.4705827,82.3976028 24.1202186,84.5555385 C22,82.8406154 21.3442623,79.4435385 22.7650273,75.544 L38.3169399,32.8566154 L40.8961749,32.8566154 L24.4590164,78.0016923 Z M38.5136612,78.5696923 C38.5136612,78.5696923 38.8415301,77.6849231 39.3989071,76.1338462 L52.0765027,76.1338462 L72.1967213,20.874 L90.8415301,20.874 L89.9562842,23.3207692 L73.8797814,23.3207692 L53.7595628,78.5696923 L38.5136612,78.5696923 Z" id="Shape" fill="#3D1152" fill-rule="nonzero"></path>
                <path d="M135.934426,53.4356923 L108.73224,83.4304615 L102.73224,53.4356923 L80.557377,53.4356923 L75.2459016,68.0070769 L79.9453552,68.0070769 L65.0491803,108.903077 L60.557377,108.903077 L55.3005464,123.365231 L77.8251366,123.365231 L91.1803279,86.6746154 C93.5519126,95.6315385 96.0218579,104.861538 98.3606557,113.862154 L123.934426,85.8116923 L110.262295,123.365231 L132.677596,123.365231 L138.021858,108.684615 L133.224044,108.684615 L147.967213,68.2692308 L152.240437,68.2692308 L157.628415,53.4903077 L135.934426,53.4356923 Z M68.2622951,113.752923 L63.7814208,113.752923 C63.0710383,115.719077 62.0437158,118.537231 61.1584699,120.951231 L58.5901639,120.951231 L62.0983607,111.317077 L66.579235,111.317077 L82.3387978,68.0289231 L84.9180328,68.0289231 L68.2622951,113.752923 Z M83.7704918,58.2855385 C83.0601093,60.2626154 81.9672131,63.1353846 81.1147541,65.5930769 L78.5355191,65.5930769 C79.5191257,62.906 81.1038251,58.5367692 82.0874317,55.8496923 L100.480874,55.8496923 C100.546448,56.1555385 100.721311,57.0293846 100.961749,58.2855385 L83.7704918,58.2855385 Z M99.9672131,109.110615 L92.8961749,82.4036923 L94.7759563,77.2589231 L102.284153,106.358 L99.9672131,109.110615 Z M113.540984,120.951231 L128.076503,81.0383077 L132.240437,76.8438462 L116.174863,120.951231 L113.540984,120.951231 Z M134.73224,111.120462 L133.846995,113.556308 L131.453552,113.556308 L132.338798,111.120462 L134.73224,111.120462 Z M137.300546,58.3073846 L109.978142,88.5970769 L109.431694,85.9536923 L136.546448,55.8715385 L154.393443,55.8715385 L153.497268,58.3073846 L137.300546,58.3073846 Z" id="Shape" fill="#3D1152" fill-rule="nonzero"></path>
                <path d="M119.595628,52.966 L116.754098,38.7004615 L101.453552,38.7004615 L114.196721,3.74661538 L27.1803279,3.74661538 L11.147541,47.7666154 L15.7377049,47.7666154 C12.3934426,56.9310769 5.61748634,75.5549231 5.61748634,75.5549231 C0.153005464,90.6396923 7.26775956,102.862615 21.5519126,102.862615 L48,102.862615 L35.1912568,138.100462 L142.076503,138.100462 L158.131148,93.9384615 L153.333333,93.9384615 L157.606557,82.218 L161.879781,82.218 L177.737705,38.6895385 L132.513661,38.6895385 L119.595628,52.966 L119.595628,52.966 Z M167.825137,45.9643077 L157.125683,75.3692308 L152.852459,75.3692308 C152.852459,75.3692308 145.311475,96.1230769 143.420765,101.256923 L148.218579,101.256923 L137.431694,130.880308 L100.054645,130.880308 C100.054645,130.880308 103.628415,121.049538 105.79235,115.129231 L93.4644809,128.673846 C93.4644809,128.673846 90.6229508,117.958308 89.2240437,112.638769 L82.579235,130.880308 L45.1038251,130.880308 L55.7377049,101.781231 L60.2185792,101.781231 C60.2185792,101.781231 62.0655738,96.5709231 64.1967213,90.6615385 C60.0437158,93.6763077 55.3333333,95.6206154 50.6885246,95.6206154 L24.1967213,95.6206154 C13.9234973,95.6206154 8.89617486,86.6090769 12.8852459,75.5221538 C12.8852459,75.5221538 23.420765,46.5869231 25.6502732,40.4809231 L21.0601093,40.4809231 L31.8032787,10.9886154 L104.327869,10.9886154 L93.5737705,40.4809231 L89.0928962,40.4809231 C88.6775956,41.5732308 88,43.5503077 87.1038251,45.9424615 L109.857923,45.9424615 C109.857923,45.9424615 112.84153,60.9070769 114.229508,67.9633846 L134.185792,45.9424615 L167.825137,45.9643077 Z" id="Shape" fill="#231F20" fill-rule="nonzero"></path>
                <polygon id="Shape" fill="#231F20" fill-rule="nonzero" points="181.68306 38.7004615 181.333333 39.9784615 183.191257 39.9784615 181.595628 45.9315385 182.896175 45.9315385 184.491803 39.9784615 186.327869 39.9784615 186.677596 38.7004615"></polygon>
                <path d="M192.590164,38.7004615 L189.945355,44.3913846 L190.360656,38.7004615 L188.480874,38.7004615 L186.535519,45.9315385 L187.737705,45.9315385 L189.04918,41.038 C189.092896,40.892359 189.147541,40.6957436 189.213115,40.4481538 C189.26776,40.1969231 189.322404,40.0003077 189.36612,39.8583077 L188.896175,45.9315385 L190.163934,45.9315385 L192.961749,39.8583077 C192.961749,40.0003077 192.863388,40.1969231 192.797814,40.4481538 C192.73224,40.6993846 192.677596,40.896 192.63388,41.038 L191.256831,45.9315385 L192.459016,45.9315385 L194.393443,38.7004615 L192.590164,38.7004615 Z" id="Shape" fill="#231F20" fill-rule="nonzero"></path>
            </g>
        </g>
    </g>
</svg>