<?xml version="1.0" encoding="UTF-8"?>
<svg width="200px" height="200px" viewBox="0 0 200 200" version="1.1" xmlns="http://www.w3.org/2000/svg" xmlns:xlink="http://www.w3.org/1999/xlink">
    <!-- Generator: Sketch 54.1 (76490) - https://sketchapp.com -->
    <title>mt-aloysius</title>
    <desc>Created with Sketch.</desc>
    <g id="mt-aloysius" stroke="none" stroke-width="1" fill="none" fill-rule="evenodd">
        <g id="mt-aloysius_BGL">
            <g id="mt-aloysius" transform="translate(16.000000, 0.000000)">
                <path d="M94.3036649,1.14136126 C96.9633508,0.439790576 98.2617801,2.16753927 100.136126,3.59162304 C100.554974,6.67015707 100.78534,9.76963351 100.984293,12.8691099 C102.450262,13.7486911 103.91623,14.6387435 105.371728,15.539267 C106.659686,16.3664921 107.91623,17.2460733 109.172775,18.1151832 C111.151832,15.9057592 112.712042,13.1518325 114.973822,11.2356021 C118.240838,9.48691099 119.717277,12.3979058 122.031414,14.1675393 L122.712042,16.7120419 C123.13089,23.7801047 122.356021,30.0732984 119.455497,36.565445 C119.748691,37.486911 120.020942,38.3979058 120.293194,39.3298429 L119.518325,40.4188482 C118.680628,39.1727749 117.842932,37.9267016 117.015707,36.6701571 C120.471204,30.9424084 121.424084,24.3350785 120.931937,17.7486911 C120.701571,15.8219895 119.47644,13.9895288 118.052356,12.7015707 C115.413613,11.7801047 114.764398,14.4397906 113.371728,16.052356 C112.167539,17.9581152 110.492147,19.3089005 108.78534,20.7225131 C105.643979,17.947644 102.167539,15.7382199 98.513089,13.6963351 C98.3874346,10.7120419 99.591623,5.58115183 97.1099476,3.37172775 C94.3455497,1.61256545 90.5863874,5.23560209 88.8586387,7.20418848 C85.8534031,10.1989529 85.5602094,14.8900524 80.617801,14.6910995 C78.617801,13.6963351 76.8900524,12 75.1727749,10.5968586 C75.2251309,13.0471204 75.2984293,15.5078534 75.3717277,17.9685864 C73.7068063,17.8534031 72,17.8115183 70.3560209,17.4973822 C67.895288,16.3874346 65.8429319,14.1780105 63.7801047,12.4712042 C63.8115183,15.1832461 63.895288,17.9057592 64.0209424,20.617801 C61.8638743,21.6230366 59.3089005,22.3036649 57.8638743,24.3141361 C56.2827225,26.3246073 54.9842932,28.3664921 52.7434555,29.7382199 C48.7329843,32.3036649 46.1780105,36 43.7277487,39.9790576 C44.8272251,40.2931937 45.9267016,40.5968586 47.026178,40.9109948 C42.5445026,46.104712 39.4031414,51.2565445 37.1727749,57.7801047 C38.1780105,58.0732984 39.1832461,58.3560209 40.1884817,58.6492147 C37.4450262,62.2198953 35.2251309,65.8219895 33.3926702,69.947644 C34.6387435,70.0837696 35.8848168,70.2198953 37.1308901,70.3560209 C36,72.460733 34.9319372,74.5863874 33.947644,76.7539267 C34.921466,76.9424084 35.895288,77.1308901 36.8691099,77.3193717 C33.4450262,83.6753927 34.1675393,90.1151832 35.0471204,96.9947644 C24.7958115,97.0052356 14.5340314,97.0366492 4.27225131,97.0575916 C8.9947644,105.277487 14.460733,113.246073 18.8062827,121.643979 C19.3926702,127.560209 18.921466,133.643979 19.1308901,139.602094 C18.5340314,140.08377 17.9371728,140.575916 17.3298429,141.057592 C17.3507853,146.17801 17.3403141,151.287958 17.3507853,156.408377 C34.5759162,156.429319 51.8010471,156.387435 69.026178,156.429319 C67.7905759,157.267016 66.565445,158.104712 65.3298429,158.931937 C65.3089005,164.094241 65.3089005,169.246073 65.3193717,174.408377 C78.9842932,174.397906 92.6492147,174.439791 106.314136,174.387435 C107.005236,179.706806 108.146597,184.513089 112.513089,188.041885 C118.17801,192.60733 127.057592,193.382199 134.062827,192.722513 C140.073298,192.272251 144.670157,189.204188 149.277487,185.602094 C149.277487,178.387435 149.277487,171.162304 149.277487,163.947644 C144.502618,163.947644 139.727749,163.947644 134.95288,163.937173 C134.95288,161.643979 134.95288,159.361257 134.95288,157.068063 C139.141361,157.068063 143.329843,157.068063 147.518325,157.068063 C152.408377,149.109948 157.287958,141.151832 162.167539,133.183246 C159.287958,133.183246 156.418848,133.183246 153.539267,133.183246 C152.198953,124.513089 149.623037,116.471204 143.057592,110.335079 C137.926702,105.465969 131.664921,103.486911 124.95288,101.82199 C124.994764,102.450262 125.078534,103.057592 125.151832,103.685864 C133.036649,105.068063 140.251309,109.246073 144.973822,115.748691 C149.193717,121.434555 151.057592,127.884817 152.397906,134.743455 C154.764398,134.743455 157.13089,134.753927 159.486911,134.764398 C155.162304,141.685864 150.921466,148.680628 146.481675,155.539267 C141.874346,155.486911 137.267016,155.497382 132.659686,155.507853 C132.659686,158.858639 132.659686,162.209424 132.659686,165.570681 C137.65445,165.570681 142.649215,165.570681 147.643979,165.570681 C147.643979,172.031414 147.664921,178.492147 147.612565,184.963351 C143.455497,188.031414 139.371728,190.712042 134.041885,191.13089 C127.277487,191.769634 118.418848,191.078534 113.04712,186.408377 C108.910995,182.712042 108.356021,178.010471 107.937173,172.774869 C94.2513089,172.774869 80.5759162,172.774869 66.8900524,172.774869 C66.8795812,168.617801 66.8167539,164.471204 67.0157068,160.314136 C68.0732984,158.554974 68.9424084,156.732984 69.7172775,154.837696 C52.8062827,154.701571 35.895288,154.816754 18.9842932,154.774869 C18.973822,150.586387 18.9109948,146.408377 19.0890052,142.209424 C21.7068063,139.350785 20.408377,134.544503 20.6910995,130.890052 C20.408377,126.722513 21.6963351,121.560209 19.0680628,118.125654 C15.0575916,111.675393 11.078534,105.193717 7.14136126,98.7015707 C15.3403141,98.7539267 23.5497382,98.6073298 31.7382199,98.8481675 C35.6858639,100.188482 39.7172775,100.774869 43.8429319,101.141361 C33.1099476,101.183246 22.3769634,101.204188 11.6335079,101.235602 C15.1204188,106.858639 18.8167539,112.366492 22.2617801,118.010471 C23.5497382,120.010471 23.1832461,122.324607 23.2670157,124.60733 C23.1518325,129.507853 23.382199,134.429319 23.1727749,139.329843 C23.1308901,140.900524 22.3141361,142.251309 21.6858639,143.65445 C21.5287958,146.502618 21.5078534,149.361257 21.5078534,152.219895 C27.4973822,152.230366 33.486911,152.219895 39.4659686,152.230366 C39.4764398,149.371728 39.4764398,146.502618 39.3403141,143.643979 C38.6910995,142.293194 37.8115183,140.848168 37.7696335,139.319372 C37.5183246,134.429319 37.7382199,129.497382 37.7696335,124.596859 C40.2198953,133.790576 42.5968586,143.015707 45.0471204,152.230366 C46.7329843,152.219895 48.4293194,152.219895 50.1151832,152.219895 C52.4293194,143.026178 54.6806283,133.82199 57.0366492,124.649215 C57.0052356,129.528796 57.2251309,134.429319 57.0157068,139.298429 C56.9528796,140.95288 56.1570681,142.219895 55.4973822,143.706806 C55.3612565,146.544503 55.3507853,149.382199 55.3507853,152.219895 C61.0890052,152.230366 66.8272251,152.219895 72.565445,152.230366 C71.9581152,155.560209 71.2670157,158.732984 69.5287958,161.675393 C69.434555,164.52356 69.4240838,167.371728 69.4240838,170.219895 C75.4554974,170.230366 81.4764398,170.230366 87.5078534,170.219895 C87.5078534,167.465969 87.5078534,164.701571 87.4136126,161.947644 C86.3769634,160.397906 85.6649215,158.722513 84.9633508,156.994764 C87.9790576,156.931937 90.9842932,156.931937 94,156.994764 C93.3089005,158.670157 92.6282723,160.335079 91.8534031,161.979058 C91.7382199,164.722513 91.7382199,167.47644 91.7486911,170.219895 C98.0104712,170.230366 104.272251,170.230366 110.534031,170.219895 C110.795812,175.602094 110.471204,180.743455 114.879581,184.60733 C119.560209,188.534031 127.193717,189.04712 133.015707,188.649215 C137.664921,188.439791 141.424084,186.282723 145.120419,183.643979 C145.078534,178.471204 145.099476,173.298429 145.089005,168.125654 C141.026178,168.125654 136.963351,168.125654 132.900524,168.125654 C132.816754,170.86911 133.099476,173.82199 132.439791,176.492147 C131.633508,178.816754 127.225131,178.513089 127.13089,175.664921 C126.691099,171.256545 127.068063,166.743455 126.973822,162.303665 C127.04712,158.282723 126.659686,154.146597 127.183246,150.157068 C127.549738,147.73822 131.005236,147.39267 132.397906,149.109948 C132.712042,150.366492 132.973822,151.643979 133.183246,152.931937 C137.162304,152.95288 141.151832,152.95288 145.13089,152.910995 C148.418848,147.696335 151.769634,142.513089 155.078534,137.298429 C145.968586,137.371728 136.848168,137.151832 127.748691,137.403141 C122.534031,137.664921 116.167539,138.774869 112.931937,143.329843 C109.82199,147.602094 110.827225,154.628272 110.481675,159.675393 C107.298429,146.34555 104.858639,132.827225 101.968586,119.434555 C94.2303665,119.434555 86.5026178,119.424084 78.7643979,119.445026 C77.1099476,127.539267 75.9162304,135.748691 73.8848168,143.759162 C73.0366492,141.979058 72.2408377,140.293194 72.3141361,138.251309 C72.2827225,130.910995 72.3246073,123.560209 72.2931937,116.209424 C72.1884817,113.581152 73.3193717,111.465969 73.9267016,108.994764 C74.2617801,106.471204 74.104712,103.853403 74.0942408,101.308901 C67.7068063,101.371728 61.3089005,101.172775 54.9319372,101.371728 C57.0890052,100.513089 59.2879581,99.7591623 61.4764398,98.9947644 C61.7801047,98.9109948 62.0732984,98.8376963 62.3664921,98.7539267 C63.7486911,98.3769634 65.1204188,97.9895288 66.4921466,97.6020942 C66.8481675,97.9895288 67.1937173,98.3769634 67.5497382,98.7748691 C69.9162304,98.7539267 72.2827225,98.7539267 74.6387435,98.7643979 C73.9267016,97.5706806 73.2041885,96.3769634 72.513089,95.1623037 C74.3874346,94.4502618 76.2722513,93.7382199 78.1465969,93.026178 L78.408377,93.486911 C82.9528796,100.963351 85.078534,107.989529 84.8167539,116.816754 C91.2251309,116.827225 97.6439791,116.816754 104.052356,116.827225 C105.863874,125.727749 107.811518,134.617801 109.507853,143.539267 C112.963351,138.628272 116.596859,136.408377 122.52356,135.39267 C131.842932,134.146597 141.47644,135.015707 150.86911,134.743455 C149.04712,125.486911 145.91623,116.963351 138.240838,110.973822 C131.47644,105.685864 123.82199,104.670157 115.539267,103.863874 C120.146597,113.445026 119.371728,125.65445 116.659686,135.675393 C115.905759,125.005236 114.86911,115.078534 108.722513,105.947644 C104.743455,99.5078534 98.1256545,95.2670157 94.4816754,88.7539267 L94.3874346,88.2094241 C95.5287958,87.7696335 96.6806283,87.3193717 97.8324607,86.8691099 C99.8219895,88.3874346 101.853403,89.8534031 103.832461,91.3926702 C103.811518,90.3455497 103.801047,89.2879581 103.790576,88.2408377 L104.167539,86.104712 C106.481675,90.1884817 104,94.7225131 105.518325,98.6282723 C108.052356,100.460733 111.04712,102.219895 114.052356,103.109948 C115.078534,101.497382 115.895288,99.7905759 116.753927,98.0837696 C110.659686,97.0471204 109.39267,92.0418848 107.455497,87.0366492 C110.303665,90.8167539 111.382199,94.8691099 116.052356,96.9319372 L116.167539,94.6806283 C117.570681,95.3193717 118.921466,95.9790576 120.408377,96.3979058 C123.267016,96.104712 126.010471,94.5968586 128.764398,93.7801047 C130.52356,89.4973822 129.790576,85.0471204 131.141361,80.6492147 L132.387435,82.2408377 C131.65445,86 132.52356,91.4031414 130.062827,94.4712042 C126.460733,97.0052356 122.282723,98.565445 117.842932,98.7015707 C117.371728,99.947644 116.900524,101.204188 116.418848,102.450262 C118.628272,102.774869 120.827225,103.109948 123.026178,103.507853 C123.298429,102.240838 123.549738,100.973822 123.801047,99.7172775 C126.806283,98.1361257 131.382199,97.3193717 132.638743,93.8743455 C134.492147,89.486911 133.256545,84.460733 135.04712,79.9162304 L136.900524,78.7225131 C135.73822,83.947644 136.251309,89.6649215 134.471204,94.6701571 C133.204188,97.9790576 130.554974,99.0994764 127.560209,100.481675 C129.884817,101.13089 132.188482,101.842932 134.471204,102.659686 C146.272251,107.225131 153.717277,118.272251 155.65445,130.52356 C158.994764,131.057592 162.251309,131.308901 165.633508,131.329843 L164.397906,133.183246 L164.293194,133.340314 C161.382199,138.282723 158.701571,143.340314 155.570681,148.157068 C153.225131,151.706806 151.371728,155.82199 148.534031,158.994764 C145.13089,159.947644 140.994764,159.403141 137.434555,159.518325 C137.455497,160.303665 137.47644,161.099476 137.507853,161.884817 C141.958115,161.958115 146.408377,162.052356 150.86911,162.198953 C151.287958,170.314136 151.193717,178.418848 151.204188,186.534031 C146.743455,190.429319 142.073298,193.65445 136.062827,194.544503 C127.246073,195.853403 116.858639,194.534031 109.947644,188.397906 C108.209424,186.17801 106.78534,183.73822 105.790576,181.089005 C105.518325,180.157068 105.256545,179.225131 105.005236,178.282723 L104.418848,176.26178 C92.0314136,176.125654 79.5602094,176.020942 67.1623037,176.376963 L66.7539267,176.356021 C65.5706806,176.314136 64.3769634,176.282723 63.1937173,176.251309 C63.3926702,171.811518 63.2879581,167.39267 63.3193717,162.942408 C63.3298429,161.47644 63.3403141,160.010471 63.3507853,158.544503 C47.3717277,158.251309 31.3298429,158.994764 15.3717277,158.052356 C15.382199,152.041885 15.382199,146.031414 15.434555,140.020942 C16,139.497382 16.5759162,138.973822 17.1413613,138.460733 C17.0575916,133.801047 17.2774869,129.120419 17.0575916,124.460733 C17.0052356,122.062827 15.4136126,119.696335 14.2303665,117.685864 C9.64397906,110.293194 5.18324607,102.837696 1.0052356,95.2146597 C11.6335079,95.0680628 22.2513089,95.2565445 32.8795812,95.078534 C32.5026178,91.4764398 32.3874346,87.9057592 32.7748691,84.3036649 C33.2670157,80.3036649 32.5235602,76.3560209 33.1413613,72.3560209 L31.1518325,72.7853403 C31.9057592,68.8481675 33.4450262,65.382199 35.3193717,61.8848168 C35.2460733,60.3246073 35.0052356,58.9319372 35.4554974,57.4136126 C37.1308901,51.7382199 40.0314136,46.7434555 43.5602094,42.0314136 L40.8481675,42.2931937 C42.4502618,38.6596859 44.1780105,35.1832461 46.9005236,32.2513089 C49.6125654,29.1832461 53.2774869,27.6125654 55.5811518,24.1151832 C57.1832461,21.7696335 59.4554974,20.4921466 61.8743455,19.1413613 C61.8324607,15.4240838 62.0732984,11.8743455 62.8062827,8.23036649 C65.7277487,11.5811518 68.4816754,14.7120419 72.8795812,16.0837696 C73.2041885,12.5968586 73.6439791,9.15183246 74.2931937,5.70680628 C76.7329843,8.91099476 78.4502618,12.0942408 82.8586387,12.617801 C85.5183246,8.18848168 88.973822,2.55497382 94.3036649,1.14136126 Z" id="Shape" fill="#00549A" fill-rule="nonzero"></path>
                <path d="M97.1099476,3.37172775 C99.591623,5.58115183 98.3874346,10.7120419 98.513089,13.6963351 C102.167539,15.7382199 105.643979,17.947644 108.78534,20.7225131 C110.492147,19.3089005 112.167539,17.9581152 113.371728,16.052356 C114.764398,14.4397906 115.413613,11.7801047 118.052356,12.7015707 C119.47644,13.9895288 120.701571,15.8219895 120.931937,17.7486911 C121.424084,24.3350785 120.471204,30.9424084 117.015707,36.6701571 C117.842932,37.9267016 118.680628,39.1727749 119.518325,40.4188482 C120.879581,42.5235602 122.534031,44.9005236 123.057592,47.3717277 C123.099476,50.1570681 120.680628,53.434555 121.874346,56.0942408 C123.151832,59.8534031 124.816754,63.5811518 126.638743,67.0994764 C128.219895,70.6492147 132.86911,71.3717277 134.60733,74.8376963 C135.193717,76.3874346 135.036649,78.2827225 135.04712,79.9162304 C133.256545,84.460733 134.492147,89.486911 132.638743,93.8743455 C131.382199,97.3193717 126.806283,98.1361257 123.801047,99.7172775 C123.549738,100.973822 123.298429,102.240838 123.026178,103.507853 C120.827225,103.109948 118.628272,102.774869 116.418848,102.450262 C116.900524,101.204188 117.371728,99.947644 117.842932,98.7015707 C122.282723,98.565445 126.460733,97.0052356 130.062827,94.4712042 C132.52356,91.4031414 131.65445,86 132.387435,82.2408377 C132.691099,80.2198953 133.581152,77.6020942 132.774869,75.6544503 C130.86911,72.6701571 126.774869,72.1570681 125.109948,68.6387435 C123.04712,64.6701571 121.120419,60.4816754 119.780105,56.2198953 C118.900524,53.1413613 120.282723,50.6701571 121.298429,47.8534031 C119.842932,44.2513089 117.633508,41.1832461 115.445026,38.0104712 C115.256545,37.3193717 115.057592,36.617801 114.858639,35.9267016 C118.481675,31.1727749 119.04712,25.6753927 119.172775,19.895288 C119.162304,18.0942408 118.890052,16.3141361 118.230366,14.6282723 C116.471204,14 115.706806,16.3874346 114.743455,17.4240838 C112.994764,20.1989529 110.397906,21.6963351 107.717277,23.434555 C104.408377,20.1465969 100.52356,17.7905759 96.4816754,15.539267 C96.5549738,12.1780105 97.1204188,8.47120419 96.3036649,5.19371728 C93.8429319,3.44502618 92.5235602,5.42408377 90.7853403,6.9947644 C88.5863874,9.53926702 87.1099476,12.921466 85.6753927,15.9371728 C82.7225131,16.9947644 80.7329843,17.1623037 77.6649215,16.4293194 C77.8010471,17.5811518 77.9371728,18.7225131 78.0628272,19.8743455 C73.4554974,20.5235602 70.1884817,20.4712042 65.9790576,18.3246073 C66.460733,19.9057592 66.9424084,21.4764398 67.434555,23.0575916 C62.9947644,23.2146597 61.2984293,24.0837696 58.1256545,27.026178 C60.2408377,27.0471204 62.3560209,27.0575916 64.4712042,27.0680628 C60.2513089,28.6701571 56.2931937,29.9162304 52.8691099,32.9842932 C50.8272251,34.7958115 49.5811518,37.3193717 48.1989529,39.6439791 C50.4502618,38.565445 51.7172775,36.5549738 54.3036649,38.2408377 C52.2094241,39.895288 50.104712,41.5183246 48.2408377,43.4554974 C45.1937173,47.5287958 43.4973822,51.9685864 41.5706806,56.6282723 C43.8115183,54.3664921 45.6753927,52.3141361 48.9947644,51.7068063 C47.3507853,55.0994764 44.2303665,56.9528796 42.2408377,60.0732984 C40.2827225,63.0157068 39.3926702,66.1465969 38.1989529,69.4764398 C39.434555,68.1570681 40.6701571,66.8376963 41.8848168,65.4973822 C40.1361257,68.6701571 38.9319372,71.9267016 37.947644,75.4136126 C39.1204188,74.6073298 40.3036649,73.8010471 41.4764398,72.9947644 C36.2408377,80.1151832 35.8010471,87.9267016 37.6335079,96.3560209 C38.2198953,95.539267 38.7853403,94.7225131 39.3298429,93.8848168 C39.2670157,95.486911 39.1518325,97.078534 39.026178,98.6806283 C36.5968586,98.7329843 34.1675393,98.8062827 31.7382199,98.8481675 C23.5497382,98.6073298 15.3403141,98.7539267 7.14136126,98.7015707 C11.078534,105.193717 15.0575916,111.675393 19.0680628,118.125654 C21.6963351,121.560209 20.408377,126.722513 20.6910995,130.890052 C20.408377,134.544503 21.7068063,139.350785 19.0890052,142.209424 C18.9109948,146.408377 18.973822,150.586387 18.9842932,154.774869 C35.895288,154.816754 52.8062827,154.701571 69.7172775,154.837696 C68.9424084,156.732984 68.0732984,158.554974 67.0157068,160.314136 C66.8167539,164.471204 66.8795812,168.617801 66.8900524,172.774869 C80.5759162,172.774869 94.2513089,172.774869 107.937173,172.774869 C108.356021,178.010471 108.910995,182.712042 113.04712,186.408377 C118.418848,191.078534 127.277487,191.769634 134.041885,191.13089 C139.371728,190.712042 143.455497,188.031414 147.612565,184.963351 C147.664921,178.492147 147.643979,172.031414 147.643979,165.570681 C142.649215,165.570681 137.65445,165.570681 132.659686,165.570681 C132.659686,162.209424 132.659686,158.858639 132.659686,155.507853 C137.267016,155.497382 141.874346,155.486911 146.481675,155.539267 C150.921466,148.680628 155.162304,141.685864 159.486911,134.764398 C157.13089,134.753927 154.764398,134.743455 152.397906,134.743455 C151.057592,127.884817 149.193717,121.434555 144.973822,115.748691 C140.251309,109.246073 133.036649,105.068063 125.151832,103.685864 C125.078534,103.057592 124.994764,102.450262 124.95288,101.82199 C131.664921,103.486911 137.926702,105.465969 143.057592,110.335079 C149.623037,116.471204 152.198953,124.513089 153.539267,133.183246 C156.418848,133.183246 159.287958,133.183246 162.167539,133.183246 C157.287958,141.151832 152.408377,149.109948 147.518325,157.068063 C143.329843,157.068063 139.141361,157.068063 134.95288,157.068063 C134.95288,159.361257 134.95288,161.643979 134.95288,163.937173 C139.727749,163.947644 144.502618,163.947644 149.277487,163.947644 C149.277487,171.162304 149.277487,178.387435 149.277487,185.602094 C144.670157,189.204188 140.073298,192.272251 134.062827,192.722513 C127.057592,193.382199 118.17801,192.60733 112.513089,188.041885 C108.146597,184.513089 107.005236,179.706806 106.314136,174.387435 C92.6492147,174.439791 78.9842932,174.397906 65.3193717,174.408377 C65.3089005,169.246073 65.3089005,164.094241 65.3298429,158.931937 C66.565445,158.104712 67.7905759,157.267016 69.026178,156.429319 C51.8010471,156.387435 34.5759162,156.429319 17.3507853,156.408377 C17.3403141,151.287958 17.3507853,146.17801 17.3298429,141.057592 C17.9371728,140.575916 18.5340314,140.08377 19.1308901,139.602094 C18.921466,133.643979 19.3926702,127.560209 18.8062827,121.643979 C14.460733,113.246073 8.9947644,105.277487 4.27225131,97.0575916 C14.5340314,97.0366492 24.7958115,97.0052356 35.0471204,96.9947644 C34.1675393,90.1151832 33.4450262,83.6753927 36.8691099,77.3193717 C35.895288,77.1308901 34.921466,76.9424084 33.947644,76.7539267 C34.9319372,74.5863874 36,72.460733 37.1308901,70.3560209 C35.8848168,70.2198953 34.6387435,70.0837696 33.3926702,69.947644 C35.2251309,65.8219895 37.4450262,62.2198953 40.1884817,58.6492147 C39.1832461,58.3560209 38.1780105,58.0732984 37.1727749,57.7801047 C39.4031414,51.2565445 42.5445026,46.104712 47.026178,40.9109948 C45.9267016,40.5968586 44.8272251,40.2931937 43.7277487,39.9790576 C46.1780105,36 48.7329843,32.3036649 52.7434555,29.7382199 C54.9842932,28.3664921 56.2827225,26.3246073 57.8638743,24.3141361 C59.3089005,22.3036649 61.8638743,21.6230366 64.0209424,20.617801 C63.895288,17.9057592 63.8115183,15.1832461 63.7801047,12.4712042 C65.8429319,14.1780105 67.895288,16.3874346 70.3560209,17.4973822 C72,17.8115183 73.7068063,17.8534031 75.3717277,17.9685864 C75.2984293,15.5078534 75.2251309,13.0471204 75.1727749,10.5968586 C76.8900524,12 78.617801,13.6963351 80.617801,14.6910995 C85.5602094,14.8900524 85.8534031,10.1989529 88.8586387,7.20418848 C90.5863874,5.23560209 94.3455497,1.61256545 97.1099476,3.37172775 Z" id="Shape" fill="#FFFFFF" fill-rule="nonzero"></path>
                <path d="M100.136126,3.59162304 C101.057592,4.15706806 101.979058,4.72251309 102.910995,5.26701571 C104.366492,8.59685864 105.068063,11.9267016 105.371728,15.539267 C103.91623,14.6387435 102.450262,13.7486911 100.984293,12.8691099 C100.78534,9.76963351 100.554974,6.67015707 100.136126,3.59162304 Z" id="Shape" fill="#B9B9B9" fill-rule="nonzero"></path>
                <path d="M96.3036649,5.19371728 C97.1204188,8.47120419 96.5549738,12.1780105 96.4816754,15.539267 C100.52356,17.7905759 104.408377,20.1465969 107.717277,23.434555 C110.397906,21.6963351 112.994764,20.1989529 114.743455,17.4240838 C115.706806,16.3874346 116.471204,14 118.230366,14.6282723 C118.890052,16.3141361 119.162304,18.0942408 119.172775,19.895288 C119.04712,25.6753927 118.481675,31.1727749 114.858639,35.9267016 C115.057592,36.617801 115.256545,37.3193717 115.445026,38.0104712 L114.429319,40.3664921 C112.910995,37.6753927 111.099476,35.1727749 109.507853,32.5235602 C108.450262,34.9424084 107.193717,36.9005236 105.497382,38.921466 C105.895288,37.1099476 106.282723,35.3089005 106.659686,33.4973822 C106.397906,30.3769634 104.879581,28.4712042 102.848168,26.2827225 C102.366492,27.7486911 101.884817,29.2356021 101.434555,30.7120419 C100.052356,26.3979058 99.2879581,25.0890052 95.2984293,22.9319372 C94.7748691,17.1413613 95.1308901,11.4031414 95.0052356,5.60209424 C90.5759162,8.4921466 88.6073298,12.8795812 86.6596859,17.591623 C85.3089005,21.1727749 85.9267016,24.4712042 86.3769634,28.1465969 C83.591623,30.9947644 80.7120419,33.8638743 78.1151832,36.8900524 C72.4712042,37.6649215 67.1727749,39.4554974 61.6649215,40.7958115 C56.8900524,41.8324607 53.2774869,44.2094241 48.2408377,43.4554974 C50.104712,41.5183246 52.2094241,39.895288 54.3036649,38.2408377 C51.7172775,36.5549738 50.4502618,38.565445 48.1989529,39.6439791 C49.5811518,37.3193717 50.8272251,34.7958115 52.8691099,32.9842932 C56.2931937,29.9162304 60.2513089,28.6701571 64.4712042,27.0680628 C62.3560209,27.0575916 60.2408377,27.0471204 58.1256545,27.026178 C61.2984293,24.0837696 62.9947644,23.2146597 67.434555,23.0575916 C66.9424084,21.4764398 66.460733,19.9057592 65.9790576,18.3246073 C70.1884817,20.4712042 73.4554974,20.5235602 78.0628272,19.8743455 C77.9371728,18.7225131 77.8010471,17.5811518 77.6649215,16.4293194 C80.7329843,17.1623037 82.7225131,16.9947644 85.6753927,15.9371728 C87.1099476,12.921466 88.5863874,9.53926702 90.7853403,6.9947644 C92.5235602,5.42408377 93.8429319,3.44502618 96.3036649,5.19371728 Z" id="Shape" fill="#025BA2" fill-rule="nonzero"></path>
                <path d="M95.0052356,5.60209424 C95.1308901,11.4031414 94.7748691,17.1413613 95.2984293,22.9319372 C99.2879581,25.0890052 100.052356,26.3979058 101.434555,30.7120419 C101.884817,29.2356021 102.366492,27.7486911 102.848168,26.2827225 C104.879581,28.4712042 106.397906,30.3769634 106.659686,33.4973822 C98.460733,34.8272251 90.1884817,35.0366492 82.0104712,36.6910995 C77.5497382,39.9790576 74.4188482,45.3193717 71.3298429,49.8534031 L70.2722513,47.4450262 C72.617801,43.7486911 75.3403141,40.2722513 78.1151832,36.8900524 C80.7120419,33.8638743 83.591623,30.9947644 86.3769634,28.1465969 C85.9267016,24.4712042 85.3089005,21.1727749 86.6596859,17.591623 C88.6073298,12.8795812 90.5759162,8.4921466 95.0052356,5.60209424 Z" id="Shape" fill="#EAEAEB" fill-rule="nonzero"></path>
                <path d="M94.2513089,7.08900524 C93.8219895,12.9528796 93.8115183,18.5549738 94.617801,24.3979058 C92.9633508,25.1832461 91.2984293,25.9790576 89.6230366,26.7434555 C89.8010471,21.0680628 90.2198953,15.0366492 92.2722513,9.68586387 C92.921466,8.80628272 93.5811518,7.94764398 94.2513089,7.08900524 Z" id="Shape" fill="#00579D" fill-rule="nonzero"></path>
                <path d="M122.031414,14.1675393 C124.094241,15.9895288 125.91623,17.6230366 126.460733,20.4712042 C127.884817,26.4397906 125.109948,33.7068063 124.125654,39.382199 C124.984293,42.408377 127.068063,45.078534 128.020942,48.0942408 C128.743455,52.0732984 127.759162,56.3246073 128.439791,60.2931937 C129.361257,63.4450262 130.921466,66.4188482 132.073298,69.486911 C127.706806,67.5706806 126.324607,61.6963351 124.60733,57.6020942 C122.712042,53.2146597 126.219895,49.3298429 124.450262,45.1832461 C123.581152,42.8586387 122.17801,40.6282723 120.858639,38.5340314 C123.780105,31.5602094 125.099476,24.0732984 122.712042,16.7120419 L122.031414,14.1675393 Z" id="Shape" fill="#B0B0B0" fill-rule="nonzero"></path>
                <path d="M122.712042,16.7120419 C125.099476,24.0732984 123.780105,31.5602094 120.858639,38.5340314 L120.293194,39.3298429 C120.020942,38.3979058 119.748691,37.486911 119.455497,36.565445 C122.356021,30.0732984 123.13089,23.7801047 122.712042,16.7120419 Z" id="Shape" fill="#7A858E" fill-rule="nonzero"></path>
                <path d="M117.403141,16.7434555 C117.099476,20.6387435 117.172775,24.5445026 117.099476,28.4502618 C116.722513,26.5968586 116.387435,24.7434555 116.115183,22.8691099 C114.921466,26.7748691 112.502618,29.4031414 109.581152,32.1151832 C109.382199,30.1256545 109.172775,28.1361257 108.963351,26.1570681 C111.39267,24.0837696 113.717277,21.9581152 115.602094,19.3612565 C116.209424,18.4921466 116.806283,17.6125654 117.403141,16.7434555 Z" id="Shape" fill="#E9E9EA" fill-rule="nonzero"></path>
                <path d="M109.507853,32.5235602 C111.099476,35.1727749 112.910995,37.6753927 114.429319,40.3664921 C115.591623,42.5759162 116.827225,44.7434555 118.010471,46.9424084 C117.486911,50.0314136 116.774869,52.8167539 117.895288,55.8848168 C119.801047,61.4136126 122.596859,66.6596859 125.04712,71.9581152 C126.942408,73.0471204 129.183246,74.0837696 130.701571,75.6753927 C132.010471,77.1727749 131.319372,78.8795812 131.141361,80.6492147 L128.743455,80.8795812 C128.60733,78.9319372 129.057592,77.0994764 127.570681,75.5706806 C125.141361,73.6963351 121.465969,73.3507853 118.764398,71.895288 C115.528796,69.382199 113.298429,65.3403141 110.701571,62.1884817 C109.82199,61.1727749 108.921466,60.1884817 108,59.2146597 C108.921466,64.7748691 113.65445,68.3560209 116.670157,73.3089005 C120.890052,74.2931937 124.743455,74.9633508 127.947644,78.1675393 C127.528796,79.2774869 127.109948,80.3874346 126.691099,81.4973822 L124.366492,82.513089 C123.905759,81.3926702 123.413613,80.2722513 122.910995,79.1727749 L122.680628,78.9842932 L121.486911,78.052356 L119.382199,80.2094241 C116.08377,84.9947644 111.287958,84.2722513 106.146597,84.973822 L104.910995,84.8167539 L106.293194,84.8481675 C104.52356,82.1989529 102.659686,79.6230366 100.827225,77.026178 C101.518325,74.6492147 102.08377,72.2513089 102.586387,69.8324607 C105.528796,72.5549738 108.502618,75.1832461 111.947644,77.2670157 C108.921466,71.4450262 103.801047,66.8586387 99.9895288,61.4973822 C99.5183246,64.8167539 99.5287958,68.5445026 97.5706806,71.382199 C94.1465969,76.9005236 84.7748691,77.0052356 80.7015707,72.1884817 C74.9319372,66.104712 75.0157068,55.591623 78.9109948,48.5549738 C81.4136126,43.6544503 85.382199,40.8167539 89.3089005,37.2041885 C81.4450262,41.7277487 75.1413613,49.3298429 74.2513089,58.6073298 C73.1623037,70.4502618 81.5287958,82.9842932 93.8429319,84.2722513 C94.0104712,85.5811518 94.1884817,86.9005236 94.3874346,88.2094241 L94.4816754,88.7539267 C88.9528796,89.8429319 83.6649215,91.4659686 78.408377,93.486911 L78.1465969,93.026178 C72.9424084,84.5235602 71.1623037,75.1937173 70.9947644,65.3298429 C69.1832461,71.1099476 67.4450262,76.617801 68.104712,82.7643979 C68.5968586,87.2774869 70.3350785,91.2460733 72.513089,95.1623037 C73.2041885,96.3769634 73.9267016,97.5706806 74.6387435,98.7643979 C72.2827225,98.7539267 69.9162304,98.7539267 67.5497382,98.7748691 C67.1937173,98.3769634 66.8481675,97.9895288 66.4921466,97.6020942 C64.2722513,85.1623037 64.8062827,72.6073298 69.026178,60.6387435 C71.9790576,51.8638743 76.8376963,44.2827225 82.0104712,36.6910995 C90.1884817,35.0366492 98.460733,34.8272251 106.659686,33.4973822 C106.282723,35.3089005 105.895288,37.1099476 105.497382,38.921466 C107.193717,36.9005236 108.450262,34.9424084 109.507853,32.5235602 Z" id="Shape" fill="#F1F1F2" fill-rule="nonzero"></path>
                <path d="M78.1151832,36.8900524 C75.3403141,40.2722513 72.617801,43.7486911 70.2722513,47.4450262 C60.0942408,62.9528796 53.0471204,80.1256545 51.9581152,98.8062827 C55.1308901,98.8586387 58.3036649,98.9528796 61.4764398,98.9947644 C59.2879581,99.7591623 57.0890052,100.513089 54.9319372,101.371728 L54.0104712,102.397906 C51.1413613,104.031414 48.1989529,105.267016 45.1937173,106.638743 C44.7539267,104.806283 44.3036649,102.973822 43.8429319,101.141361 C39.7172775,100.774869 35.6858639,100.188482 31.7382199,98.8481675 C34.1675393,98.8062827 36.5968586,98.7329843 39.026178,98.6806283 C39.1518325,97.078534 39.2670157,95.486911 39.3298429,93.8848168 C38.7853403,94.7225131 38.2198953,95.539267 37.6335079,96.3560209 C35.8010471,87.9267016 36.2408377,80.1151832 41.4764398,72.9947644 C40.3036649,73.8010471 39.1204188,74.6073298 37.947644,75.4136126 C38.9319372,71.9267016 40.1361257,68.6701571 41.8848168,65.4973822 C40.6701571,66.8376963 39.434555,68.1570681 38.1989529,69.4764398 C39.3926702,66.1465969 40.2827225,63.0157068 42.2408377,60.0732984 C44.2303665,56.9528796 47.3507853,55.0994764 48.9947644,51.7068063 C45.6753927,52.3141361 43.8115183,54.3664921 41.5706806,56.6282723 C43.4973822,51.9685864 45.1937173,47.5287958 48.2408377,43.4554974 C53.2774869,44.2094241 56.8900524,41.8324607 61.6649215,40.7958115 C67.1727749,39.4554974 72.4712042,37.6649215 78.1151832,36.8900524 Z" id="Shape" fill="#006AB4" fill-rule="nonzero"></path>
                <path d="M82.0104712,36.6910995 C76.8376963,44.2827225 71.9790576,51.8638743 69.026178,60.6387435 C64.8062827,72.6073298 64.2722513,85.1623037 66.4921466,97.6020942 C65.1204188,97.9895288 63.7486911,98.3769634 62.3664921,98.7539267 C59.1204188,81.8848168 62.7225131,64.5968586 71.3298429,49.8534031 C74.4188482,45.3193717 77.5497382,39.9790576 82.0104712,36.6910995 Z" id="Shape" fill="#0075C2" fill-rule="nonzero"></path>
                <path d="M89.3089005,37.2041885 C85.382199,40.8167539 81.4136126,43.6544503 78.9109948,48.5549738 C75.0157068,55.591623 74.9319372,66.104712 80.7015707,72.1884817 C84.7748691,77.0052356 94.1465969,76.9005236 97.5706806,71.382199 C99.5287958,68.5445026 99.5183246,64.8167539 99.9895288,61.4973822 C103.801047,66.8586387 108.921466,71.4450262 111.947644,77.2670157 C108.502618,75.1832461 105.528796,72.5549738 102.586387,69.8324607 C102.08377,72.2513089 101.518325,74.6492147 100.827225,77.026178 C102.659686,79.6230366 104.52356,82.1989529 106.293194,84.8481675 L104.910995,84.8167539 L102.86911,83.2251309 C103.319372,84.1780105 103.748691,85.1413613 104.167539,86.104712 L103.790576,88.2408377 C102,83.895288 100.251309,82.4397906 96.052356,80.4921466 C96.2931937,82.8586387 96.2303665,84.9424084 97.8324607,86.8691099 C96.6806283,87.3193717 95.5287958,87.7696335 94.3874346,88.2094241 C94.1884817,86.9005236 94.0104712,85.5811518 93.8429319,84.2722513 C81.5287958,82.9842932 73.1623037,70.4502618 74.2513089,58.6073298 C75.1413613,49.3298429 81.4450262,41.7277487 89.3089005,37.2041885 Z" id="Shape" fill="#007FCE" fill-rule="nonzero"></path>
                <path d="M92.460733,38.5235602 C93.5706806,38.7643979 94.6806283,39.0052356 95.7905759,39.2356021 C98.4502618,40.0314136 102.764398,39.8115183 104.680628,42.0104712 C106.052356,45.8324607 106.010471,50.2931937 106.879581,54.2931937 C106.806283,55.5497382 107.895288,57.3717277 106.052356,57.6020942 C103.036649,56.1989529 100.146597,54.5549738 97.0994764,53.2146597 C97.3507853,52.3036649 97.6125654,51.382199 97.8638743,50.4712042 C96.4816754,48.6073298 95.1099476,46.7434555 93.7591623,44.8586387 C96.5026178,45.8115183 99.9895288,46.5340314 101.801047,49.0052356 C103.246073,51.3089005 103.664921,54.2617801 104.670157,56.7958115 C106.031414,51.8638743 104.240838,47.8534031 102.544503,43.3717277 C100.387435,43.0471204 98.104712,42.8900524 96.0418848,42.1675393 C94.6073298,41.3193717 93.5811518,39.7277487 92.460733,38.5235602 Z" id="Shape" fill="#0070BB" fill-rule="nonzero"></path>
                <path d="M115.445026,38.0104712 C117.633508,41.1832461 119.842932,44.2513089 121.298429,47.8534031 C120.282723,50.6701571 118.900524,53.1413613 119.780105,56.2198953 C121.120419,60.4816754 123.04712,64.6701571 125.109948,68.6387435 C126.774869,72.1570681 130.86911,72.6701571 132.774869,75.6544503 C133.581152,77.6020942 132.691099,80.2198953 132.387435,82.2408377 L131.141361,80.6492147 C131.319372,78.8795812 132.010471,77.1727749 130.701571,75.6753927 C129.183246,74.0837696 126.942408,73.0471204 125.04712,71.9581152 C122.596859,66.6596859 119.801047,61.4136126 117.895288,55.8848168 C116.774869,52.8167539 117.486911,50.0314136 118.010471,46.9424084 C116.827225,44.7434555 115.591623,42.5759162 114.429319,40.3664921 L115.445026,38.0104712 Z" id="Shape" fill="#006FBA" fill-rule="nonzero"></path>
                <path d="M120.293194,39.3298429 L120.858639,38.5340314 C122.17801,40.6282723 123.581152,42.8586387 124.450262,45.1832461 C126.219895,49.3298429 122.712042,53.2146597 124.60733,57.6020942 C126.324607,61.6963351 127.706806,67.5706806 132.073298,69.486911 C134.481675,70.921466 135.968586,73.0575916 137.623037,75.2251309 C137.382199,76.3979058 137.141361,77.5602094 136.900524,78.7225131 L135.04712,79.9162304 C135.036649,78.2827225 135.193717,76.3874346 134.60733,74.8376963 C132.86911,71.3717277 128.219895,70.6492147 126.638743,67.0994764 C124.816754,63.5811518 123.151832,59.8534031 121.874346,56.0942408 C120.680628,53.434555 123.099476,50.1570681 123.057592,47.3717277 C122.534031,44.9005236 120.879581,42.5235602 119.518325,40.4188482 L120.293194,39.3298429 Z" id="Shape" fill="#1E7FC0" fill-rule="nonzero"></path>
                <path d="M70.2722513,47.4450262 L71.3298429,49.8534031 C62.7225131,64.5968586 59.1204188,81.8848168 62.3664921,98.7539267 C62.0732984,98.8376963 61.7801047,98.9109948 61.4764398,98.9947644 C58.3036649,98.9528796 55.1308901,98.8586387 51.9581152,98.8062827 C53.0471204,80.1256545 60.0942408,62.9528796 70.2722513,47.4450262 Z" id="Shape" fill="#F0F0F0" fill-rule="nonzero"></path>
                <path d="M108,59.2146597 C108.921466,60.1884817 109.82199,61.1727749 110.701571,62.1884817 C113.298429,65.3403141 115.528796,69.382199 118.764398,71.895288 C121.465969,73.3507853 125.141361,73.6963351 127.570681,75.5706806 C129.057592,77.0994764 128.60733,78.9319372 128.743455,80.8795812 C128.439791,83.5706806 128.251309,86.2722513 127.958115,88.9633508 C126.282723,86.6073298 126.617801,84.2303665 126.691099,81.4973822 C127.109948,80.3874346 127.528796,79.2774869 127.947644,78.1675393 C124.743455,74.9633508 120.890052,74.2931937 116.670157,73.3089005 C113.65445,68.3560209 108.921466,64.7748691 108,59.2146597 Z" id="Shape" fill="#459CCD" fill-rule="nonzero"></path>
                <path d="M70.9947644,65.3298429 C71.1623037,75.1937173 72.9424084,84.5235602 78.1465969,93.026178 C76.2722513,93.7382199 74.3874346,94.4502618 72.513089,95.1623037 C70.3350785,91.2460733 68.5968586,87.2774869 68.104712,82.7643979 C67.4450262,76.617801 69.1832461,71.1099476 70.9947644,65.3298429 Z" id="Shape" fill="#007AC8" fill-rule="nonzero"></path>
                <path d="M137.623037,75.2251309 C138.282723,76.0837696 138.931937,76.9424084 139.570681,77.8219895 C140.335079,82.9005236 138.753927,88.0732984 138.638743,93.2984293 C138.534031,96.7958115 136.219895,99.7696335 134.471204,102.659686 C132.188482,101.842932 129.884817,101.13089 127.560209,100.481675 C130.554974,99.0994764 133.204188,97.9790576 134.471204,94.6701571 C136.251309,89.6649215 135.73822,83.947644 136.900524,78.7225131 C137.141361,77.5602094 137.382199,76.3979058 137.623037,75.2251309 Z" id="Shape" fill="#949494" fill-rule="nonzero"></path>
                <path d="M121.486911,78.052356 L122.680628,78.9842932 C122.397906,80.4712042 122.041885,81.947644 121.696335,83.4240838 L119.308901,82.2408377 L119.382199,80.2094241 L121.486911,78.052356 Z" id="Shape" fill="#0482CF" fill-rule="nonzero"></path>
                <path d="M122.680628,78.9842932 L122.910995,79.1727749 C123.413613,80.2722513 123.905759,81.3926702 124.366492,82.513089 C124.167539,83.4136126 123.926702,84.3141361 123.643979,85.2041885 C122.041885,85.0994764 120.712042,84.5340314 119.319372,83.7905759 L119.308901,82.2408377 L121.696335,83.4240838 C122.041885,81.947644 122.397906,80.4712042 122.680628,78.9842932 Z" id="Shape" fill="#317CB3" fill-rule="nonzero"></path>
                <path d="M119.382199,80.2094241 L119.308901,82.2408377 L119.319372,83.7905759 C120.712042,84.5340314 122.041885,85.0994764 123.643979,85.2041885 C123.926702,84.3141361 124.167539,83.4136126 124.366492,82.513089 L126.691099,81.4973822 C126.617801,84.2303665 126.282723,86.6073298 127.958115,88.9633508 C128.251309,86.2722513 128.439791,83.5706806 128.743455,80.8795812 L131.141361,80.6492147 C129.790576,85.0471204 130.52356,89.4973822 128.764398,93.7801047 C126.010471,94.5968586 123.267016,96.104712 120.408377,96.3979058 C118.921466,95.9790576 117.570681,95.3193717 116.167539,94.6806283 L116.052356,96.9319372 C111.382199,94.8691099 110.303665,90.8167539 107.455497,87.0366492 C109.39267,92.0418848 110.659686,97.0471204 116.753927,98.0837696 C115.895288,99.7905759 115.078534,101.497382 114.052356,103.109948 C111.04712,102.219895 108.052356,100.460733 105.518325,98.6282723 C104,94.7225131 106.481675,90.1884817 104.167539,86.104712 C103.748691,85.1413613 103.319372,84.1780105 102.86911,83.2251309 L104.910995,84.8167539 C106.356021,85.9581152 107.842932,86.9633508 109.424084,87.8848168 C111.057592,90 112.649215,92.1675393 114.26178,94.3036649 C115.350785,94 116.439791,93.7068063 117.528796,93.4136126 C116.34555,91.5706806 115.298429,88.8691099 113.287958,87.7486911 C111.089005,86.4921466 108.534031,85.7696335 106.146597,84.973822 C111.287958,84.2722513 116.08377,84.9947644 119.382199,80.2094241 Z" id="Shape" fill="#E7E7E8" fill-rule="nonzero"></path>
                <path d="M96.052356,80.4921466 C100.251309,82.4397906 102,83.895288 103.790576,88.2408377 C103.801047,89.2879581 103.811518,90.3455497 103.832461,91.3926702 C101.853403,89.8534031 99.8219895,88.3874346 97.8324607,86.8691099 C96.2303665,84.9424084 96.2931937,82.8586387 96.052356,80.4921466 Z" id="Shape" fill="#FFFFFF" fill-rule="nonzero"></path>
                <path d="M104.910995,84.8167539 L106.146597,84.973822 C108.534031,85.7696335 111.089005,86.4921466 113.287958,87.7486911 C115.298429,88.8691099 116.34555,91.5706806 117.528796,93.4136126 C116.439791,93.7068063 115.350785,94 114.26178,94.3036649 C112.649215,92.1675393 111.057592,90 109.424084,87.8848168 C107.842932,86.9633508 106.356021,85.9581152 104.910995,84.8167539 Z" id="Shape" fill="#1E68A5" fill-rule="nonzero"></path>
                <path d="M94.4816754,88.7539267 C98.1256545,95.2670157 104.743455,99.5078534 108.722513,105.947644 C114.86911,115.078534 115.905759,125.005236 116.659686,135.675393 C119.371728,125.65445 120.146597,113.445026 115.539267,103.863874 C123.82199,104.670157 131.47644,105.685864 138.240838,110.973822 C145.91623,116.963351 149.04712,125.486911 150.86911,134.743455 C141.47644,135.015707 131.842932,134.146597 122.52356,135.39267 C116.596859,136.408377 112.963351,138.628272 109.507853,143.539267 C107.811518,134.617801 105.863874,125.727749 104.052356,116.827225 C97.6439791,116.816754 91.2251309,116.827225 84.8167539,116.816754 C85.078534,107.989529 82.9528796,100.963351 78.408377,93.486911 C83.6649215,91.4659686 88.9528796,89.8429319 94.4816754,88.7539267 Z" id="Shape" fill="#E7E7E8" fill-rule="nonzero"></path>
                <path d="M11.6335079,101.235602 C22.3769634,101.204188 33.1099476,101.183246 43.8429319,101.141361 C44.3036649,102.973822 44.7539267,104.806283 45.1937173,106.638743 C46.4502618,111.82199 47.7382199,116.994764 49.0680628,122.167539 C50.7643979,115.581152 52.5863874,109.036649 54.0104712,102.397906 L54.9319372,101.371728 C61.3089005,101.172775 67.7068063,101.371728 74.0942408,101.308901 C74.104712,103.853403 74.2617801,106.471204 73.9267016,108.994764 C73.3193717,111.465969 72.1884817,113.581152 72.2931937,116.209424 C72.3246073,123.560209 72.2827225,130.910995 72.3141361,138.251309 C72.2408377,140.293194 73.0366492,141.979058 73.8848168,143.759162 C75.9162304,135.748691 77.1099476,127.539267 78.7643979,119.445026 C86.5026178,119.424084 94.2303665,119.434555 101.968586,119.434555 C104.858639,132.827225 107.298429,146.34555 110.481675,159.675393 C110.827225,154.628272 109.82199,147.602094 112.931937,143.329843 C116.167539,138.774869 122.534031,137.664921 127.748691,137.403141 C136.848168,137.151832 145.968586,137.371728 155.078534,137.298429 C151.769634,142.513089 148.418848,147.696335 145.13089,152.910995 C141.151832,152.95288 137.162304,152.95288 133.183246,152.931937 C132.973822,151.643979 132.712042,150.366492 132.397906,149.109948 C131.005236,147.39267 127.549738,147.73822 127.183246,150.157068 C126.659686,154.146597 127.04712,158.282723 126.973822,162.303665 C127.068063,166.743455 126.691099,171.256545 127.13089,175.664921 C127.225131,178.513089 131.633508,178.816754 132.439791,176.492147 C133.099476,173.82199 132.816754,170.86911 132.900524,168.125654 C136.963351,168.125654 141.026178,168.125654 145.089005,168.125654 C145.099476,173.298429 145.078534,178.471204 145.120419,183.643979 C141.424084,186.282723 137.664921,188.439791 133.015707,188.649215 C127.193717,189.04712 119.560209,188.534031 114.879581,184.60733 C110.471204,180.743455 110.795812,175.602094 110.534031,170.219895 C104.272251,170.230366 98.0104712,170.230366 91.7486911,170.219895 C91.7382199,167.47644 91.7382199,164.722513 91.8534031,161.979058 C92.6282723,160.335079 93.3089005,158.670157 94,156.994764 C90.9842932,156.931937 87.9790576,156.931937 84.9633508,156.994764 C85.6649215,158.722513 86.3769634,160.397906 87.4136126,161.947644 C87.5078534,164.701571 87.5078534,167.465969 87.5078534,170.219895 C81.4764398,170.230366 75.4554974,170.230366 69.4240838,170.219895 C69.4240838,167.371728 69.434555,164.52356 69.5287958,161.675393 C71.2670157,158.732984 71.9581152,155.560209 72.565445,152.230366 C66.8272251,152.219895 61.0890052,152.230366 55.3507853,152.219895 C55.3507853,149.382199 55.3612565,146.544503 55.4973822,143.706806 C56.1570681,142.219895 56.9528796,140.95288 57.0157068,139.298429 C57.2251309,134.429319 57.0052356,129.528796 57.0366492,124.649215 C54.6806283,133.82199 52.4293194,143.026178 50.1151832,152.219895 C48.4293194,152.219895 46.7329843,152.219895 45.0471204,152.230366 C42.5968586,143.015707 40.2198953,133.790576 37.7696335,124.596859 C37.7382199,129.497382 37.5183246,134.429319 37.7696335,139.319372 C37.8115183,140.848168 38.6910995,142.293194 39.3403141,143.643979 C39.4764398,146.502618 39.4764398,149.371728 39.4659686,152.230366 C33.486911,152.219895 27.4973822,152.230366 21.5078534,152.219895 C21.5078534,149.361257 21.5287958,146.502618 21.6858639,143.65445 C22.3141361,142.251309 23.1308901,140.900524 23.1727749,139.329843 C23.382199,134.429319 23.1518325,129.507853 23.2670157,124.60733 C23.1832461,122.324607 23.5497382,120.010471 22.2617801,118.010471 C18.8167539,112.366492 15.1204188,106.858639 11.6335079,101.235602 Z" id="Shape" fill="#FFFFFF" fill-rule="nonzero"></path>
                <path d="M76.6387435,101.361257 C79.8219895,106.230366 82.4397906,111.162304 84,116.795812 C81.5602094,116.806283 79.1099476,116.816754 76.6701571,116.827225 C76.0942408,119.748691 75.5287958,122.680628 74.921466,125.602094 C75.1937173,121.057592 73.6858639,114.910995 76.513089,111.078534 C76.6596859,107.842932 76.6492147,104.60733 76.6387435,101.361257 Z" id="Shape" fill="#E7E7E8" fill-rule="nonzero"></path>
                <path d="M54.0104712,102.397906 C52.5863874,109.036649 50.7643979,115.581152 49.0680628,122.167539 C47.7382199,116.994764 46.4502618,111.82199 45.1937173,106.638743 C48.1989529,105.267016 51.1413613,104.031414 54.0104712,102.397906 Z" id="Shape" fill="#00549A" fill-rule="nonzero"></path>
                <path d="M89.2146597,131.989529 C90.1361257,136.984293 91.0157068,141.989529 91.895288,146.984293 C90.1465969,146.984293 88.3979058,146.984293 86.6492147,146.984293 C87.4973822,141.979058 88.3246073,136.984293 89.2146597,131.989529 Z" id="Shape" fill="#00549A" fill-rule="nonzero"></path>
                <path d="M164.293194,133.340314 L164.397906,133.183246 C165.298429,133.790576 166.209424,134.397906 167.120419,134.994764 C166.86911,137.319372 166.691099,139.413613 165.277487,141.371728 C161.162304,147.570681 157.685864,154.198953 153.235602,160.146597 C153.308901,162.188482 153.235602,164.209424 153.780105,166.167539 C156.198953,172.795812 155.643979,180.554974 154.596859,187.413613 C154.198953,190.984293 151.73822,192.900524 148.921466,194.701571 C144.293194,197.434555 139.518325,199.549738 134.031414,199.507853 C126.418848,199.842932 119.015707,198.502618 112.764398,193.947644 C108.942408,191.172775 106.984293,185.832461 104.900524,181.717277 C93.6753927,181.183246 82.408377,181.801047 71.1832461,181.424084 C67.8324607,181.256545 66.0209424,179.151832 63.8638743,176.921466 C66.3560209,178.984293 68.8481675,180.680628 72.2198953,180.691099 C83.3612565,181.026178 94.6282723,180.240838 105.790576,181.089005 C106.78534,183.73822 108.209424,186.17801 109.947644,188.397906 C113.287958,193.183246 117.612565,196.167539 123.549738,196.617801 C130.659686,197.308901 140.167539,198.701571 146.314136,194.314136 C148.146597,193.183246 150.052356,191.968586 151.528796,190.397906 C153.089005,188.764398 152.921466,186.418848 153.026178,184.324607 C152.984293,176.691099 153.664921,169.486911 150.86911,162.198953 C146.408377,162.052356 141.958115,161.958115 137.507853,161.884817 C137.47644,161.099476 137.455497,160.303665 137.434555,159.518325 C140.994764,159.403141 145.13089,159.947644 148.534031,158.994764 C151.371728,155.82199 153.225131,151.706806 155.570681,148.157068 C158.701571,143.340314 161.382199,138.282723 164.293194,133.340314 Z" id="Shape" fill="#A4A4A4" fill-rule="nonzero"></path>
                <path d="M15.3717277,158.052356 C31.3298429,158.994764 47.3717277,158.251309 63.3507853,158.544503 C63.3403141,160.010471 63.3298429,161.47644 63.3193717,162.942408 C48.617801,162.628272 33.9057592,162.931937 19.1937173,162.764398 C17.9162304,161.193717 16.6492147,159.623037 15.3717277,158.052356 Z" id="Shape" fill="#A0A0A0" fill-rule="nonzero"></path>
                <path d="M150.86911,162.198953 C153.664921,169.486911 152.984293,176.691099 153.026178,184.324607 C152.921466,186.418848 153.089005,188.764398 151.528796,190.397906 C150.052356,191.968586 148.146597,193.183246 146.314136,194.314136 C140.167539,198.701571 130.659686,197.308901 123.549738,196.617801 C117.612565,196.167539 113.287958,193.183246 109.947644,188.397906 C116.858639,194.534031 127.246073,195.853403 136.062827,194.544503 C142.073298,193.65445 146.743455,190.429319 151.204188,186.534031 C151.193717,178.418848 151.287958,170.314136 150.86911,162.198953 Z" id="Shape" fill="#979797" fill-rule="nonzero"></path>
                <path d="M63.1937173,176.251309 C64.3769634,176.282723 65.5706806,176.314136 66.7539267,176.356021 L67.1623037,176.376963 C72.3769634,178.408377 77.2879581,177.581152 82.7225131,177.675393 C90.2198953,177.769634 97.539267,177.267016 105.005236,178.282723 C105.256545,179.225131 105.518325,180.157068 105.790576,181.089005 C94.6282723,180.240838 83.3612565,181.026178 72.2198953,180.691099 C68.8481675,180.680628 66.3560209,178.984293 63.8638743,176.921466 L63.1937173,176.251309 Z" id="Shape" fill="#A7A8AA" fill-rule="nonzero"></path>
                <path d="M67.1623037,176.376963 C79.5602094,176.020942 92.0314136,176.125654 104.418848,176.26178 L105.005236,178.282723 C97.539267,177.267016 90.2198953,177.769634 82.7225131,177.675393 C77.2879581,177.581152 72.3769634,178.408377 67.1623037,176.376963 Z" id="Shape" fill="#6D7A85" fill-rule="nonzero"></path>
            </g>
        </g>
    </g>
</svg>