<svg width="200" height="200" viewBox="0 0 200 200" fill="none" xmlns="http://www.w3.org/2000/svg">
<g clip-path="url(#clip0_11_241923)">
<path d="M192.763 16.7182L183.375 29.4662V9H17.6866V101.97C16.4056 102.015 15.0972 102.189 13.7888 102.513C9.41977 103.59 5.47165 106.621 2.95546 110.834C0.553652 114.85 -0.411647 119.551 0.160213 124.435C0.937942 131.094 4.90894 136.453 10.4171 139.018C12.0915 141.939 17.0415 149.954 22.234 152.423L77.2241 179.763L97.7607 190.544L100.528 191.995L103.296 190.544L153.181 164.354C162.321 159.557 169.929 152.912 175.177 145.139C180.543 137.197 183.375 128.191 183.375 119.095V87.4827C189.208 81.4761 200 65.2958 200 51.0004C200 34.067 192.763 16.7136 192.763 16.7136" fill="white"/>
<path d="M192.603 38.0789L190.562 29.9408L182.593 40.5299C182.542 40.5938 180.786 42.8942 177.437 46.468V14.9243H23.6249V108.884C22.1472 108.031 20.3539 107.479 18.2952 107.479C17.2658 107.479 16.1999 107.616 15.1202 107.88C12.1831 108.606 9.48394 110.71 7.72261 113.663C5.95213 116.625 5.24303 120.126 5.67307 123.791C6.38217 129.866 10.6139 134.266 16.209 135.01L16.2227 135.042C16.2227 135.042 18.4965 144.134 25.6287 147.663L81.854 175.491L98.8725 184.428L100.533 185.3L143.853 162.556L150.418 159.11C152.348 158.096 154.187 156.996 155.935 155.833C159.874 153.204 163.342 150.205 166.279 146.919C166.37 146.814 166.462 146.713 166.553 146.608C173.535 138.662 177.441 129.086 177.441 119.095V85.0133C177.689 84.776 177.94 84.5432 178.178 84.3058C183.929 78.6279 188.224 72.2379 190.947 65.3048C191.061 65.0081 191.175 64.716 191.285 64.4193C194.414 55.9937 194.794 46.7921 192.607 38.0743" fill="#373535"/>
<path d="M142.622 91.6544C132.845 96.9307 121.893 101.143 111.49 104.439L116.316 98.0809C120.196 96.7481 124.185 95.3195 128.266 93.7813C151.84 84.8947 167.477 73.0549 176.554 64.538C170.945 72.3338 160.825 81.8366 142.622 91.6589M78.5369 104.238V90.8739L87.188 101.81C84.2509 102.668 81.1217 103.54 78.5369 104.238ZM87.7049 110.833C78.8754 112.823 69.2499 114.526 61.985 115.535L56.7787 116.142L56.8657 113.257C64.7939 112.066 76.4324 109.793 90.3904 106.027L93.0575 109.578C91.2001 110.03 89.4068 110.45 87.7049 110.833ZM28.6295 126.343C27.8289 125.421 27.2982 124.435 26.9551 123.645C26.9414 123.609 26.9231 123.577 26.9094 123.54C27.7328 121.537 29.3569 116.662 29.3569 116.662C29.9837 118.145 29.5765 121.674 29.2791 123.632L31.562 123.271C32.8155 123.075 33.8632 122.208 34.2932 121.016C35.0984 118.798 36.0088 116.055 36.0088 116.055C36.5898 117.429 36.2833 120.564 35.9951 122.573L38.2551 122.217C39.5132 122.02 40.5562 121.149 40.9908 119.957C41.7823 117.767 42.6607 115.124 42.6607 115.124C43.2325 116.47 42.9443 119.51 42.6607 121.523L44.9527 121.162C46.2108 120.966 47.2584 120.094 47.6885 118.899C48.4662 116.735 49.308 114.202 49.308 114.202C49.5916 114.873 49.6648 115.968 49.6282 117.146C49.6282 117.301 49.6145 117.456 49.6099 117.607C49.6008 117.84 49.5779 118.059 49.5596 118.278H49.5459C49.5459 118.378 49.5413 118.565 49.5184 118.812C49.491 119.077 49.4589 119.332 49.4223 119.583C49.3446 120.058 49.2165 120.624 49.0014 121.249C48.027 124.12 45.3187 128.127 37.7747 129.145C33.7259 129.693 30.734 128.776 28.6249 126.347M187.652 44.332C187.652 44.332 184.514 49.3572 177.432 56.4364C171.75 62.1189 163.524 69.1251 152.334 75.9259V61.4526H157.998V32.2412H127.946L126.948 33.574L100.24 69.2073L73.532 33.574L72.5346 32.2412H42.4914V61.4526H48.1551V110.564L38.9321 112.408L23.6292 115.366C23.1671 115.457 22.4031 115.571 21.8084 115.658C21.5567 115.357 21.1267 114.868 20.8339 114.645C20.4176 114.33 19.9464 114.083 19.4432 113.937C17.3204 113.303 15.097 114.375 13.7749 116.023C11.2816 119.127 10.8973 124.955 14.333 127.557C16.2316 128.995 18.7569 129.113 20.8614 128.109C20.8614 128.109 20.8705 128.109 20.8934 128.105C20.9071 128.105 20.9254 128.096 20.9529 128.091C21.0032 128.077 21.0764 128.05 21.1587 128.018C21.5933 128.808 22.1195 129.638 22.7645 130.46C25.1618 133.532 29.1327 136.466 35.5788 136.466C36.5761 136.466 37.6329 136.398 38.7491 136.243C51.7326 134.49 55.9873 125.649 56.6461 119.967H56.6689L59.0662 119.757V119.779C60.0223 119.697 61.2393 119.588 62.6758 119.442H62.6803C69.7577 118.73 82.302 117.196 96.5573 114.234L100.222 119.113L100.286 119.2L100.377 119.081L105.602 112.203C119.642 108.802 134.511 103.996 146.986 97.2639C195.732 70.9645 187.652 44.3365 187.652 44.3365" fill="white"/>
<path d="M149.004 58.1301H154.668V35.5688H129.611L100.236 74.7577L85.5457 55.1633L70.8558 35.5688H45.8129V58.1301H51.4766V104.243C54.3908 100.336 60.2466 101.723 60.2466 101.723C58.2611 103.184 56.9893 105.831 56.9847 109.309C60.7315 108.593 66.6606 107.356 75.2019 105.124V80.8008L100.231 113.654L120.626 86.8576H120.667L125.265 80.8008V89.0211C125.265 89.0211 125.292 89.0119 125.306 89.0074C134.282 85.6252 142.151 81.8141 149.004 77.8842V58.1255V58.1301ZM80.8519 140.314V122.883C71.4459 124.166 64.6339 125.225 60.4799 125.512C59.6061 129.132 57.5108 132.345 55.0495 134.842C52.7209 137.202 49.7747 139.064 45.8037 140.319H80.8519V140.314ZM125.265 113.394C133.001 110.952 140.554 108.018 147.407 104.499C147.947 104.22 148.473 103.942 149.004 103.663V117.735H154.668V140.31H119.629V117.735H125.265V113.39V113.394Z" fill="#7A3F8E"/>
<path d="M80.8523 140.314H45.8041C45.0584 140.593 43.6448 140.921 42.4736 141.195V143.637H84.1828V122.409C83.0482 122.573 81.9365 122.733 80.8523 122.879V140.31V140.314Z" fill="white"/>
<path d="M152.334 114.412V101.855C151.255 102.458 150.143 103.06 149.004 103.663V117.735H154.667V140.309H119.628V117.735H125.265V113.389C124.157 113.741 123.046 114.079 121.934 114.412H116.298V143.632H157.998V114.412H152.334Z" fill="white"/>
</g>
<defs>
<clipPath id="clip0_11_241923">
<rect width="200" height="183" fill="white" transform="translate(0 9)"/>
</clipPath>
</defs>
</svg>
