<?xml version="1.0" encoding="UTF-8"?>
<svg width="200px" height="200px" viewBox="0 0 200 200" version="1.1" xmlns="http://www.w3.org/2000/svg" xmlns:xlink="http://www.w3.org/1999/xlink">
    <!-- Generator: Sketch 54.1 (76490) - https://sketchapp.com -->
    <title>msoe</title>
    <desc>Created with Sketch.</desc>
    <defs>
        <polygon id="path-1" points="0.116726547 0.338391459 138.42133 0.338391459 138.42133 111.601423 0.116726547 111.601423"></polygon>
    </defs>
    <g id="msoe" stroke="none" stroke-width="1" fill="none" fill-rule="evenodd">
        <g id="msoe_BGL">
            <g id="Group-98" transform="translate(0.000000, 44.000000)">
                <polygon id="Fill-1" fill="#010202" points="70.8407186 39.5921993 129.166068 39.5921993 129.166068 19.1567829 70.8407186 19.1567829"></polygon>
                <polygon id="Fill-2" fill="#010202" points="126.154731 70.5073082 135.427385 76.7765181 143.057325 70.9899843 128.666507 68.386084"></polygon>
                <polygon id="Fill-3" fill="#010202" points="75.6395609 70.9891872 66.3669062 77.2583972 58.7373653 71.4718633 73.1277844 68.867963"></polygon>
                <g id="Group-61" transform="translate(0.000000, 0.155445)">
                    <path d="M135.029142,91.4836327 C135.029142,91.4836327 114.166068,81.1640883 107.887425,77.7901381 C101.610379,74.414195 78.8147705,61.2017822 74.0826347,58.3089139 C69.348503,55.415647 60.4634731,49.2440883 53.89501,42.9752769 C47.3265469,36.7080598 40.7596806,27.160558 38.8271457,21.1811132 C36.89501,15.2012698 36.6051896,8.54703488 37.9580838,4.40104199 C37.9580838,4.40104199 47.7137725,16.3587359 57.7580838,24.7487715 C67.803992,33.1388071 80.0698603,42.3965438 86.542515,46.9295544 C93.0131737,51.4629637 101.126547,56.7660242 107.115768,60.7207004 C113.102994,64.6733836 135.578842,78.3736541 135.578842,78.3736541 L135.549301,78.2249851 L135.931737,76.5900242 C136.060679,76.2890989 136.274251,76.0328142 136.549301,75.854252 L146.8499,69.7636043 L151.702994,79.6714192 C151.702994,79.6714192 150.355289,83.8309637 149.782435,85.7831915 C149.782435,85.7831915 160.583234,91.9152911 163.366467,94.282437 L166.698204,93.631163 L170.681836,104.262793 L161.699401,106.28796 L161.493812,105.775789 C161.493812,105.775789 152.370459,111.822992 144.531737,108.458608 C136.779242,105.130893 134.969661,99.2008712 134.974451,91.4868214 L135.029142,91.4836327 Z" id="Fill-4" fill="#221E1F"></path>
                    <path d="M137.046627,93.3903032 C137.391936,100.448296 139.8099,104.2272 145.332854,106.598332 C152.084152,109.495186 160.289741,104.142702 160.371976,104.088495 L162.44982,102.711414 L162.939242,103.932253 L167.967585,102.798303 L165.400719,95.9483673 L162.796327,96.4573495 L162.051417,95.8240114 C159.888543,93.9845808 151.737645,89.2231858 148.779561,87.5439829 L147.384351,86.7516128 L147.835848,85.213506 C148.264591,83.7535203 149.101317,81.1340754 149.521677,79.8279402 L145.993134,72.6240683 L137.810699,77.46199 L137.624271,78.2591431 L138.470978,82.5091644 L134.522076,80.1021609 C133.603114,79.5417623 111.946427,66.3377196 105.997126,62.4101466 L103.342036,60.6592 C97.8242715,57.0225879 90.9572056,52.496353 85.3771657,48.5875132 C78.6586028,43.8819189 66.2390419,34.4723246 56.4566068,26.3023032 C49.5312575,20.5169651 42.8354491,13.1767801 39.1935329,8.99132811 C38.9731737,12.4892356 39.5152894,16.7145452 40.7576048,20.5592142 C42.6126946,26.2991146 48.9987226,35.5026448 55.2965269,41.5111858 C61.1851497,47.1315132 69.7116966,53.2628157 75.1416367,56.5813637 C79.8977246,59.4889794 102.74523,72.724111 108.849421,76.0071858 C115.025868,79.3261324 135.721277,89.5659616 135.929661,89.6691929 L142.753613,93.0443388 L137.046627,93.3903032 Z M149.727665,111.50441 C147.758403,111.50441 145.719281,111.172794 143.730858,110.319442 C134.773573,106.473976 133.118483,99.3956555 132.96,92.7194989 C128.437844,90.4783032 112.379162,82.5039829 106.926068,79.5732498 C100.678962,76.2136484 78.0334531,63.0984883 73.0234731,60.0358263 C68.698523,57.3928655 59.5073054,51.1328228 52.4937325,44.4391288 C45.6677844,37.9267872 38.9627944,28.1951431 36.8969261,21.802773 C34.8566068,15.4885238 34.5160878,8.41179786 36.0294611,3.77356299 L37.1815569,0.243370819 L39.5308583,3.12149181 C39.6270659,3.23986904 49.2861477,15.0313566 59.0598004,23.1953993 C68.7564072,31.2940754 81.0566068,40.61399 87.7073054,45.2717552 C93.2402395,49.1479117 100.080559,53.6562107 105.576766,57.2788726 L108.234651,59.0318121 C112.996727,62.1753851 128.484152,71.6642961 134.353613,75.2518833 C134.634251,74.8146448 135.003513,74.4419758 135.443433,74.156595 L135.515689,74.1115559 L147.706906,66.9032996 L153.88495,79.516652 L153.633054,80.2950719 C153.622275,80.326958 152.813094,82.8260327 152.191537,84.8296769 C154.958403,86.4271715 161.044631,89.9996128 163.889341,92.1164527 L167.995529,91.3137196 L173.396327,105.727043 L160.609102,108.609947 C158.275768,109.806873 154.181557,111.50441 149.727665,111.50441 L149.727665,111.50441 Z" id="Fill-6" fill="#010202"></path>
                    <path d="M74.4323752,41.7886349 C95.6878643,55.3796954 132.762914,77.0351544 135.548144,78.2253039 L135.932176,76.5903431 C136.059521,76.2894178 136.27509,76.0331331 136.549741,75.8545708 L146.848743,69.7627274 L151.703433,79.6717381 C151.703433,79.6717381 150.354132,83.8312826 149.781277,85.7823146 C149.781277,85.7823146 160.582076,91.9140157 163.365309,94.2831544 L166.698244,93.6314819 L170.682275,104.26351 L161.699441,106.288678 L161.492655,105.774514 C161.492655,105.774514 152.369301,111.82371 144.530579,108.458927 C136.78008,105.131211 134.968503,99.20119 134.97489,91.4871402" id="Fill-8" fill="#C12033"></path>
                    <path d="M135.905549,81.9784996 L137.430499,77.7280797 C137.54986,77.3956669 137.773413,77.1098875 138.069621,76.9129907 L145.762236,72.366827 L148.877206,79.237489 C148.877206,79.237489 145.914731,87.4242505 146.197764,93.4865993 C146.479202,99.5501438 151.645669,101.980663 154.398962,101.69608 C157.154251,101.415083 160.62491,99.6481936 160.177804,98.910827 C159.81014,98.3025993 157.28,99.1288484 157.28,99.1288484 C157.28,99.1288484 156.533493,96.7055032 155.76024,96.3794676 C155.021717,96.0705708 152.78978,96.9582007 152.78978,96.9582007 C152.78978,96.9582007 151.572615,94.0864569 150.797764,93.7281367 C150.142275,93.4220299 148.009341,94.503368 148.009341,94.503368 C148.009341,94.503368 147.798962,91.8779445 149.032495,88.288763 C149.032495,88.288763 156.165828,91.8249338 161.886786,96.4787132 L165.345469,95.4902434 L168.253253,102.761076 L161.190978,104.101489 L160.472814,103.106243 C160.472814,103.106243 154.933892,107.736905 148.297565,103.684977 C142.141078,99.9240085 143.081597,92.7639801 146.12511,79.3829694 L143.88,75.1871544 L138.881198,78.1529623 L137.094371,82.4464285 L135.905549,81.9784996 Z" id="Fill-10" fill="#FEFEFE"></path>
                    <path d="M137.504271,94.4270007 L140.981317,96.0902605 C140.981317,96.0902605 140.527824,102.484623 145.855968,106.646161 C145.855968,106.646161 138.938204,104.642118 137.504271,94.4270007" id="Fill-12" fill="#FEFEFE"></path>
                    <path d="M64.6585629,48.7310406 C96.7100599,69.0719943 122.265349,83.0632256 139.37992,91.8781438 C139.37992,91.8781438 141.474531,86.1729196 140.527226,83.8846918 C140.527226,83.8846918 81.4597605,51.1743146 67.082515,40.1887488" id="Fill-14" fill="#FEFEFE"></path>
                    <polygon id="Fill-16" fill="#C22032" points="165.032615 96.6119972 166.688503 101.445933 163.689701 99.9480826 162.846986 97.2668584"></polygon>
                    <path d="M140.772735,82.3655972 C140.772735,82.3655972 65.0066667,40.1627217 38.5918962,6.58942633 C38.5918962,6.58942633 31.2897006,31.4602021 76.082515,58.3577395 C115.761956,82.1870349 139.229421,92.3164584 139.229421,92.3164584 C139.229421,92.3164584 141.233014,86.349768 140.772735,82.4632484" id="Fill-18" fill="#FEFEFE"></path>
                    <path d="M39.2792415,9.12170249 C39.0860279,11.6805637 39.2433134,16.2908982 41.6017964,22.1882363 C47.7914172,37.6649623 64.0660679,49.9064427 76.6289421,57.4503004 C111.071257,78.1344285 133.507186,88.5795246 138.564271,90.8609765 C139.068064,89.1000655 139.93513,85.6149125 139.758683,83.0110121 C136.615768,81.2389409 119.042515,71.2370619 99.0013972,57.9493181 C79.3686627,44.933005 53.4201597,26.0998662 39.2792415,9.12170249 L39.2792415,9.12170249 Z M139.868064,93.7454747 L138.808583,93.2883075 C138.573453,93.1866705 114.821756,82.8583573 75.5359281,59.2650192 C62.6237525,51.5115103 45.8996008,38.8865993 39.5530938,22.7745423 C35.6908184,12.9699587 37.4952096,6.55965267 37.5742515,6.29141068 L38.153493,4.31805836 L39.4257485,5.93508327 C50.157485,19.5751687 71.1638723,36.9511117 100.174251,56.1852185 C122.12994,70.7416313 141.100399,81.335795 141.289621,81.4410192 L140.714371,82.4701438 L141.825749,82.3390121 C142.308782,86.4144569 140.31996,92.3998804 140.235329,92.6529765 L139.868064,93.7454747 Z" id="Fill-20" fill="#C12033"></path>
                    <path d="M139.260359,89.5995217 C139.260359,89.5995217 103.155768,71.3877637 82.3473852,58.5456285 C55.877525,42.2055858 49.7445908,32.7457708 47.1777246,24.430269 C47.1777246,24.430269 66.8172455,40.4052157 74.2435928,45.3814434 L73.9537725,45.5333011 C73.9537725,45.5333011 68.94499,41.8105964 67.7697405,43.1924612 C66.4148503,44.7859701 72.1757285,48.4891445 72.7817166,48.9339559 C73.3893014,49.3787673 103.812854,69.6272512 121.670739,78.5446036 C121.670739,78.5446036 124.798483,80.3664968 125.538603,79.4521623 C126.277126,78.5382263 123.727026,77.0220413 123.04479,76.5955644 L123.04479,76.4600484 C123.04479,76.4600484 139.336208,85.5113224 139.993693,85.868447 L139.260359,89.5995217 Z" id="Fill-22" fill="#C12033"></path>
                    <path d="M138.880838,89.2916612 L136.562675,90.5216683 L137.359082,92.9800883 C137.359082,92.9800883 141.271657,92.4013552 141.125948,92.1849281 C140.981836,91.9681025 140.183832,89.1461808 140.183832,89.1461808 L138.880838,89.2916612 Z" id="Fill-24" fill="#C12033"></path>
                    <path d="M136.440998,90.0156356 C136.440998,90.0156356 139.163154,88.6070662 139.581916,82.4327174 C140.057365,75.4313224 142.13002,89.5261836 142.13002,89.5261836 L135.841796,91.1049452 L136.440998,90.0156356 Z" id="Fill-26" fill="#C12033"></path>
                    <path d="M125.779281,58.4056484 C130.511417,55.5123815 139.398044,49.3412214 145.966507,43.0720114 C152.533772,36.8032 159.102236,27.2560968 161.034371,21.2778477 C162.965309,15.2984028 163.254731,8.64416797 161.903832,4.49777651 C161.903832,4.49777651 152.147745,16.4554705 142.102236,24.845506 C132.057924,33.2355416 119.790459,42.4936769 113.319401,47.0266875 C106.848343,51.5581039 98.7349701,56.8631573 92.7461477,60.8158406 C86.7569261,64.7705167 64.2830739,78.4703886 64.2830739,78.4703886 L64.3126148,78.3217196 L63.9285828,76.6867587 C63.8012375,76.3858335 63.5856687,76.1295488 63.3126148,75.9509865 L53.012016,69.8607374 L48.1569261,79.7685523 C48.1569261,79.7685523 49.5066267,83.9276982 50.079481,85.8803246 C50.079481,85.8803246 39.2786826,92.0120256 36.4950499,94.3791715 L33.1621158,93.7278975 L29.178483,104.359527 L38.1609182,106.384695 L38.3681038,105.872125 C38.3681038,105.872125 47.4914571,111.919727 55.3297804,108.555741 C63.0806786,105.227627 64.8922555,99.2976057 64.8854691,91.5839544 L64.8327745,91.5803673 C64.8327745,91.5803673 85.6954491,81.2612214 91.9728942,77.8852783 C93.6104192,77.0060185 96.370499,75.4567516 99.6407585,73.5969936" id="Fill-28" fill="#221E1F"></path>
                    <g id="Group-32" transform="translate(26.347305, 0.000000)">
                        <mask id="mask-2" fill="white">
                            <use xlink:href="#path-1"></use>
                        </mask>
                        <g id="Clip-31"></g>
                        <path d="M23.786986,111.601423 C19.3338922,111.601822 15.2416766,109.905082 12.9075449,108.707359 L0.116726547,105.824057 L5.51752495,91.4107331 L9.62491018,92.2134662 C12.47002,90.0962278 18.5558483,86.5241851 21.3227146,84.9266904 C20.7007585,82.9234448 19.8903792,80.4247687 19.88,80.392484 L19.6273054,79.6136655 L25.8077445,67.0007117 L38.0768064,74.2571957 C38.5151297,74.5433737 38.881996,74.9152456 39.1602395,75.3488968 C45.0293014,71.7613096 60.5163273,62.272 65.28,59.1268327 L67.7877844,57.4731388 C73.3291018,53.8221779 80.2249102,49.2780071 85.8073453,45.3687687 C92.4684232,40.7022349 104.772216,31.3791317 114.453253,23.2920142 C124.237285,15.1207972 133.887585,3.33688256 133.983792,3.21890391 L136.333892,0.338391459 L137.48519,3.87097509 C138.996966,8.50960854 138.656447,15.5859359 136.617725,21.8993879 C134.553054,28.2873737 127.848064,38.0186192 121.020918,44.5357438 C114.013333,51.2242562 104.818922,57.4866904 100.491178,60.1328399 L98.3726148,56.6787758 C102.563034,54.116726 111.458044,48.0595587 118.217725,41.6081993 C124.516727,35.595274 130.903154,26.3917438 132.757046,20.6558292 C133.997764,16.8127544 134.539481,12.5874448 134.31992,9.08913879 C130.677605,13.2753879 123.982196,20.6143772 117.056447,26.3989181 C107.289581,34.5573808 94.8668263,43.9697651 88.1370858,48.6845267 C82.5071457,52.626847 75.5845908,57.1885552 70.022515,60.8538648 L67.5171257,62.5055658 C61.5662275,66.4347331 39.9115369,79.6387758 38.9925749,80.1987758 L35.0432735,82.6061779 L35.88998,78.3569537 L35.7027545,77.5578078 L27.5211178,72.7206833 L23.9913772,79.9245552 C24.4121357,81.231089 25.2500599,83.8501352 25.6784032,85.3109181 L26.1299002,86.8486263 L24.7346906,87.6405979 C21.7766068,89.3201993 13.6261078,94.0815943 11.4632335,95.9210249 L10.7183234,96.554363 L8.11233533,96.0453808 L5.54546906,102.895317 L10.5778044,104.030064 L11.07002,102.810819 L13.1426747,104.18511 C13.2221158,104.236925 21.4664271,109.576655 28.1817964,106.694947 C33.7063473,104.323018 36.1239122,100.543715 36.4668263,93.4837295 L30.7853892,93.1289964 L37.58499,89.7658078 C37.7929741,89.6629751 58.4883832,79.4231459 64.6636327,76.102605 C66.1738124,75.2911032 68.7390818,73.8566263 72.2895808,71.8370391 L74.2975649,75.3564698 C70.7187226,77.392 68.1243114,78.8428185 66.5865868,79.668669 C61.1346906,82.6005979 45.0728144,90.5773096 40.5534531,92.8173096 C40.3957685,99.4922705 38.7410778,106.570192 29.7837924,110.416057 C27.7957685,111.269409 25.7554491,111.601025 23.786986,111.601423" id="Fill-30" fill="#010202" mask="url(#mask-2)"></path>
                    </g>
                    <path d="M125.428064,41.8853694 C104.172575,55.4764299 67.097525,77.131889 64.3126946,78.3220384 L63.9282635,76.6854833 C63.8009182,76.384558 63.5857485,76.1298676 63.3122954,75.9513053 L53.0116966,69.8594619 L48.1586028,79.7684726 C48.1586028,79.7684726 49.5063074,83.9280171 50.0791617,85.8786505 C50.0791617,85.8786505 39.2783633,92.0107502 36.4951297,94.379889 L33.1621956,93.7282164 L29.1781637,104.360245 L38.160998,106.385412 L38.3677844,105.871248 C38.3677844,105.871248 47.4915369,111.920046 55.3298603,108.55606 C63.0807585,105.227946 64.8919361,99.2979246 64.8855489,91.5838747" id="Fill-33" fill="#C12033"></path>
                    <path d="M63.9550898,82.0752342 L62.4301397,77.8248142 C62.3107784,77.4908071 62.0872255,77.2066221 61.7926148,77.0097253 L54.098004,72.4635616 L50.9834331,79.3342235 C50.9834331,79.3342235 53.945509,87.5209851 53.662475,93.5833338 C53.3810379,99.6472769 48.2149701,102.077398 45.4612774,101.793213 C42.705988,101.512216 39.2373253,99.7445295 39.6828343,99.007163 C40.0500998,98.3989352 42.5802395,99.2255829 42.5802395,99.2255829 C42.5802395,99.2255829 43.3271457,96.8018391 44.1003992,96.4766007 C44.8389222,96.1669068 47.0708583,97.0549352 47.0708583,97.0549352 C47.0708583,97.0549352 48.2896208,94.1831915 49.0628743,93.8248712 C49.7183633,93.5187644 51.8512974,94.6001025 51.8512974,94.6001025 C51.8512974,94.6001025 52.0616766,91.974679 50.8277445,88.3854975 C50.8277445,88.3854975 43.6948104,91.9216683 37.9738523,96.5754477 L34.5147705,95.5869779 L31.6073852,102.857811 L38.6692615,104.198622 L39.3878244,103.203377 C39.3878244,103.203377 44.9283433,107.834038 51.5630739,103.781711 C57.7191617,100.020743 56.7786427,92.8607146 53.7355289,79.4797039 L55.9806387,75.283889 L60.9794411,78.2496968 L62.7678643,82.543163 L63.9550898,82.0752342 Z" id="Fill-35" fill="#FEFEFE"></path>
                    <path d="M62.3561277,94.5237352 L58.8790818,96.186995 C58.8790818,96.186995 59.3325749,102.581358 54.0044311,106.742497 C54.0044311,106.742497 60.9237924,104.738853 62.3561277,94.5237352" id="Fill-37" fill="#FEFEFE"></path>
                    <path d="M135.201876,48.8273765 C103.150379,69.1683302 77.5950898,83.1595616 60.480519,91.9744797 C60.480519,91.9744797 58.3863074,86.2692555 59.3332136,83.9810278 C59.3332136,83.9810278 118.400679,51.2706505 132.777924,40.2870776" id="Fill-39" fill="#FEFEFE"></path>
                    <polygon id="Fill-41" fill="#C22032" points="34.8281836 96.7081338 33.1722954 101.54207 36.1710978 100.044219 37.0138124 97.362995"></polygon>
                    <path d="M59.0882635,82.4621324 C59.0882635,82.4621324 134.854331,40.2592569 161.269102,6.68596157 C161.269102,6.68596157 168.571297,31.5567374 123.778882,58.455869 C84.0990419,82.2835701 60.6315768,92.4129936 60.6315768,92.4129936 C60.6315768,92.4129936 58.627984,86.4463032 59.0882635,82.5597836" id="Fill-43" fill="#FEFEFE"></path>
                    <path d="M60.1024351,83.1074676 C59.9255888,85.7149552 60.7922555,89.1977167 61.2964471,90.9578306 C66.3535329,88.6759801 88.7898603,78.2312826 123.232176,57.5483502 C135.79505,50.004094 152.069701,37.7618164 158.259321,22.2846918 C160.617804,16.3881509 160.775489,11.7782149 160.581477,9.21815801 C146.440559,26.1963217 120.492455,45.0294605 100.859721,58.0461722 C80.8186028,71.3335174 63.2453493,81.335795 60.1024351,83.1074676 L60.1024351,83.1074676 Z M59.9930539,93.8423288 L59.6257884,92.749432 C59.5411577,92.4967345 57.5523353,86.5109125 58.0349701,82.4354676 L59.1467465,82.5665993 L58.571497,81.5374747 C58.7607186,81.431852 77.7427545,70.831311 99.6992415,56.2733039 C128.703234,37.0427843 149.70523,19.6692327 160.43497,6.03193737 L161.707625,4.41451388 L162.286866,6.38786619 C162.365509,6.65610819 164.170299,13.0664142 160.308423,22.8713964 C153.961517,38.983852 137.237764,51.6091616 124.32519,59.363069 C85.0393613,82.9548128 61.2876647,93.283126 61.0521357,93.384763 L59.9930539,93.8423288 Z" id="Fill-45" fill="#C12033"></path>
                    <path d="M60.6002794,89.6960569 C60.6002794,89.6960569 96.7064671,71.4842989 117.513253,58.6421637 C143.984711,42.302121 150.116048,32.842306 152.682515,24.5268043 C152.682515,24.5268043 133.044591,40.5017509 125.616647,45.4779786 L125.906467,45.6298363 C125.906467,45.6298363 130.91525,41.9071317 132.090898,43.2889964 C133.445389,44.8825053 127.68491,48.5856797 127.078922,49.0304911 C126.471337,49.4753025 96.0473852,69.7237865 78.1899002,78.6411388 C78.1899002,78.6411388 75.0621557,80.463032 74.3232335,79.5486975 C73.5831138,78.6347616 76.1332136,77.1185765 76.8154491,76.6920996 L76.8154491,76.5565836 C76.8154491,76.5565836 60.5240319,85.6078577 59.8665469,85.9649822 L60.6002794,89.6960569 Z" id="Fill-47" fill="#C12033"></path>
                    <path d="M60.9798004,89.3883559 L63.2979641,90.618363 L62.5015569,93.0767829 C62.5015569,93.0767829 58.5885828,92.4980498 58.7342914,92.2816228 C58.8784032,92.0647972 59.6748104,89.2448683 59.6748104,89.2448683 L60.9798004,89.3883559 Z" id="Fill-49" fill="#C12033"></path>
                    <path d="M63.2138124,90.2777794 C63.2138124,90.2777794 60.3164072,89.3371388 60.0992415,82.5390178 C59.882475,75.7393025 58.2513373,90.2777794 58.2513373,90.2777794 L63.7934531,91.471516 L63.2138124,90.2777794 Z" id="Fill-51" fill="#C12033"></path>
                    <path d="M100.293932,41.0128854 L5.59532934,41.0128854 L12.907505,47.1067217 L12.907505,76.0772555 C12.907505,76.0772555 47.7817565,68.1930135 100.35022,68.1930135" id="Fill-53" fill="#010202"></path>
                    <path d="M10.8792016,78.6116441 L10.8792016,48.0539786 L0.000159680639,38.9875587 L100.293972,38.9875587 L100.293972,43.0382918 L11.190978,43.0382918 L14.9358882,46.1591459 L14.9358882,73.5907758 C23.836487,71.8358434 56.0173253,66.1680854 100.350259,66.1680854 L100.350259,70.2184199 C58.9798004,70.2184199 25.3550499,75.3429181 13.3550499,78.0524413 L10.8792016,78.6116441 Z" id="Fill-55" fill="#010202"></path>
                    <path d="M99.3928144,41.0128854 L194.091417,41.0128854 L186.719361,46.9843587 L186.719361,76.0772555 C186.719361,76.0772555 153.747705,68.1930135 99.3365269,68.1930135" id="Fill-57" fill="#010202"></path>
                    <path d="M188.747904,78.6439288 L186.247305,78.0468612 C174.906387,75.3389324 142.146307,70.2184199 99.3363273,70.2184199 L99.3363273,66.1680854 C144.983433,66.1680854 175.975449,71.7792456 184.691218,73.5676584 L184.691218,46.0192456 L188.371856,43.0378932 L99.393014,43.0378932 L99.393014,38.9875587 L199.810579,38.9875587 L188.747904,47.949153 L188.747904,78.6439288 Z" id="Fill-59" fill="#010202"></path>
                </g>
                <polygon id="Fill-62" fill="#C22032" points="13.141477 41.1527858 5.54467066 41.1527858 15.6484631 49.3048712"></polygon>
                <polygon id="Fill-63" fill="#C22032" points="186.537844 41.0319374 194.134651 41.0303431 184.030858 49.1824285"></polygon>
                <path d="M22.7161677,54.3634448 L29.0199601,54.3634448 L29.0199601,48.1408683 L22.7161677,48.1408683 L22.7161677,54.3634448 Z M30.5664671,71.7585196 L27.0526946,60.6557722 L22.7161677,60.6557722 L22.7161677,73.1176655 L13.6423154,74.7394733 L13.6423154,41.8489395 L34.5948104,41.8489395 L38.1285429,45.3767402 L38.1285429,57.1263772 L35.9776447,59.2719146 L39.8770459,70.7521139 L30.5664671,71.7585196 Z" id="Fill-64" fill="#C12033"></path>
                <path d="M23.4123752,53.6683274 L28.3237525,53.6683274 L28.3237525,48.8359858 L23.4123752,48.8359858 L23.4123752,53.6683274 Z M22.0199601,55.0589609 L29.7161677,55.0589609 L29.7161677,47.4457509 L22.0199601,47.4457509 L22.0199601,55.0589609 Z M14.338523,42.5440569 L14.338523,73.9088399 L22.0199601,72.5361423 L22.0199601,59.9606548 L27.5628743,59.9606548 L31.0582834,71.0064057 L38.938523,70.1542491 L35.1792415,59.0857794 L37.4323353,56.8382064 L37.4323353,45.664911 L34.3065868,42.5440569 L14.338523,42.5440569 Z M12.9461078,75.5701068 L12.9461078,41.1538221 L34.8834331,41.1538221 L38.8247505,45.0885694 L38.8247505,57.4141495 L36.7760479,59.4584484 L40.8151697,71.3499786 L30.0742515,72.511032 L26.542515,61.3508897 L23.4123752,61.3508897 L23.4123752,73.6995872 L12.9461078,75.5701068 Z" id="Fill-65" fill="#C12033"></path>
                <path d="M50.8778443,54.3634448 L57.1832335,54.3634448 L57.1832335,48.1408683 L50.8778443,48.1408683 L50.8778443,54.3634448 Z M57.1832335,69.1514306 L57.1832335,60.6557722 L50.8778443,60.6557722 L50.8778443,69.650847 L41.805988,70.5436584 L41.805988,45.3767402 L45.3393214,41.8489395 L62.7568862,41.8489395 L66.2902196,45.3767402 L66.2902196,68.5483843 L57.1832335,69.1514306 Z" id="Fill-66" fill="#C12033"></path>
                <path d="M51.5740519,53.6683274 L56.4870259,53.6683274 L56.4870259,48.8359858 L51.5740519,48.8359858 L51.5740519,53.6683274 Z M50.1816367,55.0589609 L57.8794411,55.0589609 L57.8794411,47.4457509 L50.1816367,47.4457509 L50.1816367,55.0589609 Z M42.5021956,45.664911 L42.5021956,69.7767972 L50.1816367,69.0206975 L50.1816367,59.9606548 L57.8794411,59.9606548 L57.8794411,68.4088826 L65.594012,67.8975089 L65.594012,45.664911 L62.4682635,42.5440569 L45.6279441,42.5440569 L42.5021956,45.664911 Z M41.1093812,71.3105196 L41.1093812,45.0885694 L45.0510978,41.1538221 L63.0451098,41.1538221 L66.9864271,45.0885694 L66.9864271,69.1988612 L56.4870259,69.8943772 L56.4870259,61.3508897 L51.5740519,61.3508897 L51.5740519,70.2805979 L41.1093812,71.3105196 Z" id="Fill-67" fill="#C12033"></path>
                <polygon id="Fill-68" fill="#C12033" points="69.6037525 68.4173324 69.6037525 41.8486206 78.6776048 41.8486206 78.6776048 68.0502434"></polygon>
                <path d="M70.3000399,42.5438975 L70.3000399,67.6932783 L77.981477,67.3827872 L77.981477,42.5438975 L70.3000399,42.5438975 Z M68.9076248,69.1413068 L68.9076248,41.1536626 L79.3738922,41.1536626 L79.3738922,68.7176199 L68.9076248,69.1413068 Z" id="Fill-69" fill="#C12033"></path>
                <path d="M91.5377246,61.0196726 L97.841517,61.0196726 L97.841517,48.1408683 L91.5377246,48.1408683 L91.5377246,61.0196726 Z M103.41477,67.6157153 L82.4658683,67.9034875 L82.4658683,41.8489395 L103.41477,41.8489395 L106.9501,45.3767402 L106.9501,64.0859217 L103.41477,67.6157153 Z" id="Fill-70" fill="#C12033"></path>
                <path d="M92.2339321,60.3241566 L97.1449102,60.3241566 L97.1449102,48.8359858 L92.2339321,48.8359858 L92.2339321,60.3241566 Z M90.841517,61.71479 L98.5377246,61.71479 L98.5377246,47.4457509 L90.841517,47.4457509 L90.841517,61.71479 Z M83.1620758,42.5440569 L83.1620758,67.1988043 L103.122555,66.9245836 L106.253892,63.7981495 L106.253892,45.664911 L103.126547,42.5440569 L83.1620758,42.5440569 Z M81.7696607,68.6081708 L81.7696607,41.1538221 L103.702994,41.1538221 L107.646307,45.0885694 L107.646307,64.3740925 L103.707385,68.3072456 L81.7696607,68.6081708 Z" id="Fill-71" fill="#C12033"></path>
                <polygon id="Fill-72" fill="#C12033" points="113.382036 67.7696456 109.827146 67.7002932 109.827146 41.8490192 113.360479 41.8490192 130.338922 41.8490192 130.338922 48.140948 118.897405 48.140948 118.897405 51.3203929 129.027545 51.3203929 129.027545 57.6143146 118.897405 57.6143146 118.897405 61.0197523 130.338922 61.293973 130.338922 68.417731"></polygon>
                <path d="M110.523273,67.0186078 L113.408703,67.0752057 L129.642635,67.6953907 L129.642635,61.9726292 L118.201118,61.6984085 L118.201118,56.9190776 L128.331257,56.9190776 L128.331257,52.0153907 L118.201118,52.0153907 L118.201118,47.4461096 L129.642635,47.4461096 L129.642635,42.5444157 L110.523273,42.5444157 L110.523273,67.0186078 Z M131.03505,69.139832 L113.361996,68.4646434 L109.130858,68.3821381 L109.130858,41.1537822 L131.03505,41.1537822 L131.03505,48.8363445 L119.593533,48.8363445 L119.593533,50.6251559 L129.724072,50.6251559 L129.724072,58.3093125 L119.593533,58.3093125 L119.593533,60.3412555 L131.03505,60.6154762 L131.03505,69.139832 Z" id="Fill-73" fill="#C12033"></path>
                <path d="M142.759681,54.3634448 L149.063473,54.3634448 L149.063473,48.1408683 L142.759681,48.1408683 L142.759681,54.3634448 Z M150.838723,69.9402135 L147.096607,60.6557722 L142.76008,60.6557722 L142.76008,69.2741922 L133.687824,68.6225196 L133.687824,41.8489395 L154.640319,41.8489395 L158.174052,45.3767402 L158.174052,57.1263772 L156.02475,59.2719146 L160.528543,70.8625196 L150.838723,69.9402135 Z" id="Fill-74" fill="#C12033"></path>
                <path d="M143.456287,53.6683274 L148.367265,53.6683274 L148.367265,48.8359858 L143.456287,48.8359858 L143.456287,53.6683274 Z M142.063473,55.0589609 L149.759681,55.0589609 L149.759681,47.4457509 L142.063473,47.4457509 L142.063473,55.0589609 Z M151.326148,69.2881423 L159.471058,70.0637722 L155.211577,59.1009253 L157.477445,56.8382064 L157.477445,45.664911 L154.351697,42.5440569 L134.384032,42.5440569 L134.384032,67.9756299 L142.063872,68.5272598 L142.063872,59.9606548 L147.566866,59.9606548 L151.326148,69.2881423 Z M161.585629,71.6616655 L150.350898,70.5922847 L146.625948,61.3508897 L143.456287,61.3508897 L143.456287,70.0211246 L132.991617,69.2694093 L132.991617,41.1538221 L154.928942,41.1538221 L158.870259,45.0885694 L158.870259,57.4141495 L156.837924,59.4433025 L161.585629,71.6616655 Z" id="Fill-75" fill="#C12033"></path>
                <polygon id="Fill-76" fill="#C12033" points="182.985389 74.1536456 165.7798 71.4588698 161.850858 67.8218591 161.850858 60.7578875 170.922715 61.6734178 170.922715 65.3801794 176.951457 66.2729907 176.93509 61.4836954 161.850858 56.1587132 161.850858 45.2409053 165.385788 41.712706 186.008942 41.712706 186.008942 45.2409053 186.008942 51.3873537 176.93509 51.3873537 176.93509 48.0050335 170.922715 48.0050335 170.922715 52.1330904 186.008942 57.0646776 186.008942 71.3333181"></polygon>
                <path d="M166.097685,70.8050847 L182.757964,73.4141665 L185.312455,71.0314762 L185.312455,57.5683587 L170.226627,52.6367715 L170.226627,47.3097964 L177.631417,47.3097964 L177.631417,50.6925153 L185.312455,50.6925153 L185.312455,42.4081025 L165.674132,42.4081025 L162.546786,45.5289566 L162.546786,55.6671488 L177.629421,60.9913338 L177.650579,67.0791915 L170.226627,65.9799174 L170.226627,62.302252 L162.546786,61.5266221 L162.546786,67.5184228 L166.097685,70.8050847 Z M183.212655,74.8928854 L165.462156,72.1128142 L161.154371,68.1254548 L161.154371,59.9889139 L171.619042,61.0451416 L171.619042,64.7806007 L176.252575,65.4665509 L176.240599,61.9758178 L161.154371,56.6500384 L161.154371,44.9530135 L165.097685,41.0178676 L186.705269,41.0178676 L186.705269,52.0827502 L176.238603,52.0827502 L176.238603,48.7004299 L171.619042,48.7004299 L171.619042,51.6291701 L186.705269,56.5607573 L186.705269,71.6353196 L183.212655,74.8928854 Z" id="Fill-77" fill="#C12033"></path>
                <path d="M21.8771257,72.1278804 L18.5110579,70.2729053 L18.5110579,57.9632683 L21.8771257,59.8182434 L21.8771257,72.1278804 Z M31.7521756,57.6324498 L18.5110579,57.6324498 L18.5110579,45.4483644 L21.8771257,47.3049338 L21.8771257,55.1991402 L29.8942914,55.1991402 L31.7521756,57.6324498 Z M38.8292216,69.9970904 L34.7046707,68.4163359 L31.3002794,58.617731 L33.8867066,55.9990833 L33.8867066,46.5029979 L31.9561677,45.2088199 L14.394491,45.2088199 L11.4060679,42.6842363 L34.2292216,42.6842363 L37.2531737,45.7046491 L37.2531737,56.7611616 L34.9960878,59.0541722 L38.8292216,69.9970904 Z" id="Fill-78" fill="#FEFEFE"></path>
                <path d="M50.0405589,68.7590719 L46.6740918,66.9044954 L46.6740918,57.963627 L50.0405589,59.8170078 L50.0405589,68.7590719 Z M59.914012,57.7224883 L46.6740918,57.7224883 L46.6740918,45.4491217 L50.0405589,47.3052925 L50.0405589,55.1994989 L58.0561277,55.1994989 L59.914012,57.7224883 Z M65.4162076,67.6613922 L62.0501397,65.80841 L62.0501397,47.1366947 L60.1196008,45.2075843 L46.470499,45.2075843 L45.7040319,42.6849936 L62.3926547,42.6849936 L65.4162076,45.7054064 L65.4162076,67.6613922 Z" id="Fill-79" fill="#FEFEFE"></path>
                <polygon id="Fill-80" fill="#FEFEFE" points="77.8388423 67.211479 74.4727745 64.6207317 74.4727745 45.2072655 72.3003194 45.2072655 70.4424351 42.6842762 77.8388423 42.6842762"></polygon>
                <path d="M100.573253,64.3801907 L87.3317365,64.3801907 L87.3317365,45.4494007 L90.6998004,47.3043758 L90.6998004,61.8560057 L98.7153693,61.8560057 L100.573253,64.3801907 Z M106.075449,63.7241338 L103.050299,66.7792228 L100.776846,64.925842 L102.709381,62.9600626 L102.709381,47.1720484 L100.776846,45.2078633 L85.1608782,45.2078633 L83.302994,42.6852726 L103.050299,42.6852726 L106.075449,45.7040911 L106.075449,63.7241338 Z" id="Fill-81" fill="#FEFEFE"></path>
                <path d="M129.501756,67.4405409 L126.973214,66.2535801 L126.973214,64.8350463 L114.693772,64.380669 L114.693772,55.9623345 L118.06024,57.8157153 L118.06024,61.8560854 L129.501756,62.1633879 L129.501756,67.4405409 Z M128.154052,56.9806975 L125.623912,55.795331 L125.623912,54.6829039 L114.693772,54.6829039 L114.693772,45.449879 L118.06024,47.3044555 L118.06024,52.1583203 L128.154052,52.1583203 L128.154052,56.9806975 Z M129.501756,47.5077295 L126.973214,46.3207687 L126.973214,45.2083416 L112.378802,45.2083416 L110.612335,42.6853523 L129.501756,42.6853523 L129.501756,47.5077295 Z" id="Fill-82" fill="#FEFEFE"></path>
                <path d="M141.923752,68.3425993 L138.557285,66.4876242 L138.557285,57.9636669 L141.923752,59.8170477 L141.923752,68.3425993 Z M151.797206,57.7221295 L138.557285,57.7221295 L138.557285,45.4491616 L141.923752,47.305731 L141.923752,55.1995388 L149.939721,55.1995388 L151.797206,57.7221295 Z M159.01477,69.5195957 L154.870659,67.8268413 L151.345309,58.6185281 L153.933333,55.9998804 L153.933333,47.1714107 L152.000798,45.2076242 L136.38483,45.2076242 L134.527345,42.6846349 L154.275848,42.6846349 L157.299401,45.7054463 L157.299401,56.7619587 L155.041118,59.0549694 L159.01477,69.5195957 Z" id="Fill-83" fill="#FEFEFE"></path>
                <path d="M185.171856,70.8862349 L182.471257,73.5810107 L179.836926,72.0863488 L181.803792,70.120968 L181.803792,59.8245409 L166.719561,54.7311317 L166.719561,45.449879 L170.085629,47.3048541 L170.085629,52.886121 L185.171856,57.855573 L185.171856,70.8862349 Z M185.171856,50.6871744 L181.994212,49.3100925 L181.994212,46.984 L179.836926,45.2087402 L166.514371,45.2087402 L165.749102,42.6841566 L189.081238,42.6841566 L185.171856,45.7045694 L185.171856,50.6871744 Z M179.361477,70.5043986 L167.39022,68.5517722 L167.39022,64.9857082 L164.197804,64.5676014 L162.689222,61.8481139 L170.085629,62.6448683 L170.085629,66.3926833 L177.649301,67.4807972 L179.361477,70.5043986 Z" id="Fill-84" fill="#FEFEFE"></path>
                <polyline id="Fill-85" fill="#C12033" points="53.0739321 69.4466562 48.0998802 79.7658021 49.9972854 85.3701865 52.4695409 84.9967203 51.0455888 79.0898164 54.0392016 72.6288911 62.1046707 77.2579587 62.7801198 79.3560655 64.2292216 78.4150263 63.7473852 76.485916"></polyline>
                <polyline id="Fill-86" fill="#C12033" points="146.61984 69.4892641 151.593892 79.8088085 149.696487 85.4131929 147.224232 85.0393281 148.648184 79.1324242 145.654571 72.6718975 137.589102 77.3009651 136.912056 79.3986733 135.462954 78.4580327 135.946387 76.5289224"></polyline>
                <g id="Group-97" transform="translate(57.485030, 23.272883)">
                    <path d="M6.02602794,66.8257765 C6.02602794,66.8257765 3.30387226,65.4172071 2.88510978,59.2428584 C2.40966068,52.2414633 0.338203593,66.3363246 0.338203593,66.3363246 L6.62522954,67.9150861 L6.02602794,66.8257765 Z" id="Fill-87" fill="#C12033"></path>
                    <polygon id="Fill-89" fill="#FEFEFE" points="23.8628343 5.60633737 23.8628343 12.6176968 20.9203194 12.6176968 20.9203194 0.228344484 24.1558483 0.228344484 26.6576447 6.0096968 28.9542515 0.228344484 32.337485 0.228344484 32.337485 12.6176968 29.323513 12.6176968 29.323513 5.47719858 27.2273054 10.397227 25.9774052 10.397227"></polygon>
                    <path d="M34.8761277,9.93834591 L39.5272255,9.93834591 C39.6565669,9.93834591 39.7292216,9.86540641 39.7292216,9.77293665 L39.7292216,7.97455943 C39.7292216,7.8816911 39.6565669,7.80915018 39.5272255,7.80915018 L36.3284232,7.80915018 C35.4641517,7.80915018 34.8761277,7.22244555 34.8761277,6.35912883 L34.8761277,1.67904342 C34.8761277,0.816125267 35.4641517,0.227427758 36.3284232,0.227427758 L42.7443912,0.227427758 L42.7443912,2.88912171 L38.2589621,2.88912171 C38.147984,2.88912171 38.0753293,2.98159146 38.0753293,3.09080142 L38.0753293,4.90910747 C38.0753293,4.98204698 38.147984,5.07451673 38.2589621,5.07451673 L41.4581637,5.07451673 C42.3224351,5.07451673 42.9100599,5.66161993 42.9100599,6.52453808 L42.9100599,11.168353 C42.9100599,12.0312712 42.3224351,12.6183744 41.4581637,12.6183744 L34.8761277,12.6183744 L34.8761277,9.93834591 Z" id="Fill-91" fill="#FEFEFE"></path>
                    <path d="M50.9820359,3.10977367 C50.9820359,2.9989694 50.8894212,2.90809395 50.7800399,2.90809395 L48.2598802,2.90809395 C48.1872255,2.90809395 48.0962076,2.9989694 48.0962076,3.10977367 L48.0962076,9.77237865 C48.0962076,9.8648484 48.1872255,9.93738932 48.2598802,9.93738932 L50.7800399,9.93738932 C50.8894212,9.93738932 50.9820359,9.8648484 50.9820359,9.77237865 L50.9820359,3.10977367 Z M52.7289421,0.228464057 C53.5932136,0.228464057 54.1812375,0.815168683 54.1812375,1.67808683 L54.1812375,11.1673964 C54.1812375,12.0303146 53.5932136,12.6174178 52.7289421,12.6174178 L46.3493014,12.6174178 C45.4846307,12.6174178 44.897006,12.0303146 44.897006,11.1673964 L44.897006,1.67808683 C44.897006,0.815168683 45.4846307,0.228464057 46.3493014,0.228464057 L52.7289421,0.228464057 Z" id="Fill-93" fill="#FEFEFE"></path>
                    <polygon id="Fill-95" fill="#FEFEFE" points="56.498523 0.22790605 64.605509 0.22790605 64.605509 2.8896 59.6773653 2.8896 59.6773653 5.05546477 63.9444311 5.05546477 63.9444311 7.6988242 59.6773653 7.6988242 59.6773653 9.9388242 64.605509 9.9388242 64.605509 12.6188527 56.498523 12.6188527"></polygon>
                </g>
            </g>
        </g>
    </g>
</svg>