<?xml version="1.0" encoding="UTF-8"?>
<svg width="200px" height="200px" viewBox="0 0 200 200" version="1.1" xmlns="http://www.w3.org/2000/svg" xmlns:xlink="http://www.w3.org/1999/xlink">
    <!-- Generator: Sketch 54.1 (76490) - https://sketchapp.com -->
    <title>metro-st</title>
    <desc>Created with Sketch.</desc>
    <g id="metro-st" stroke="none" stroke-width="1" fill="none" fill-rule="evenodd">
        <g id="metro-st_BGL" transform="translate(0.000000, 0.000000)">
            <g id="metro-st" transform="translate(0.000000, 59.000000)">
                <g id="g10" transform="translate(99.932657, 41.082829) scale(-1, 1) rotate(-180.000000) translate(-99.932657, -41.082829) translate(0.000000, 0.140069)" fill-rule="nonzero">
                    <g id="g12" transform="translate(0.000000, 0.242424)">
                        <path d="M142.319727,56.5115137 L114.997977,80.8975064 C113.782623,81.9639037 111.972522,81.1722539 112.351782,79.3866647 L112.728886,78.0134661 C112.771984,77.9000654 112.670974,77.8814795 112.617371,77.9008735 C108.833667,79.2789206 105.015216,79.959594 101.127001,79.9773717 C94.8764959,80.0043078 89.4717823,78.3539374 84.2478093,76.7547456 C79.8548128,75.4620857 75.7088197,74.1893584 71.6773046,74.2068668 C67.0954865,74.2262608 63.1434328,75.938584 59.1350827,79.4324559 C57.7063959,80.6836343 55.9560929,79.9428936 56.3385845,78.0277422 C56.884039,75.4919846 57.8394598,73.0860588 59.4634329,70.9861262 C59.5377763,70.894005 59.4925238,70.8223551 59.4060591,70.8118501 C57.5989211,70.5987861 55.0847124,70.3372373 52.1713118,70.3498972 C47.4028271,70.3703686 43.2282817,71.0491565 39.7459923,72.3649814 C37.9808745,73.0429611 36.469494,71.4863282 37.9194603,69.9674057 C40.5818172,67.0324562 42.9424905,65.2379782 44.90478,64.1368334 C44.9990561,64.0837694 44.9869349,63.9369681 44.8837699,63.9178435 C42.2529282,63.3707728 39.236632,62.9982476 35.3931304,63.015756 C31.9897635,63.0303015 25.386262,63.7354866 23.7890364,63.9878772 C22.1897099,64.2405371 21.4116089,62.2076752 22.5016829,61.3274059 C25.909198,58.5939379 29.1746794,57.0782477 31.9113797,56.3563622 C32.0172383,56.3294262 32.0366322,56.1995946 31.9418174,56.1575744 C14.4861141,48.9295611 3.88110428,41.8898306 1.82828278,40.3894939 C-1.51609963,38.0404031 -0.0130471377,35.0486187 4.23569013,35.925925 C6.4315958,36.3752179 22.3933193,39.7327936 35.7834334,40.9823559 C35.9560934,40.9990562 35.9854536,40.9298306 35.8292247,40.8775747 C25.8792182,37.6552179 17.8215484,33.9178443 14.17204,30.9990565 C12.6500468,29.7492248 13.868471,27.7589219 15.6687673,28.3897636 C20.3436493,30.004309 30.974006,32.3103022 39.3451842,33.5016827 C39.4933323,33.5224234 39.5280798,33.4402685 39.396632,33.3766995 C34.8191237,31.2158915 29.5059925,27.9542081 25.11006,23.7581139 C23.7369422,22.4175079 24.8712182,20.2356897 26.9788545,21.3252251 C36.2769014,26.1400398 45.5714467,28.7264639 51.3915139,30.0654538 C51.5019516,30.0899656 51.5773724,29.9999992 51.5073388,29.9264639 C50.1411435,28.5618848 48.5034331,26.7803091 47.0798641,24.4377098 C45.8540056,22.4660196 46.5274062,21.0076762 50.6814802,21.7756762 C76.1753516,26.4490768 101.72929,19.3392318 119.066394,1.0265158 C120.732388,-0.736953517 122.317573,0.0441919181 122.177505,1.73032454 C122.052253,3.21505716 121.69993,5.59512444 121.791512,8.27830282 C122.135485,18.3560669 124.46195,24.683932 137.42168,27.2875414 C150.980198,29.9528612 173.37077,30.8608746 182.160804,31.2783831 L187.967133,35.2142752 C175.765652,37.3796624 150.556225,39.943164 135.136966,39.753265 C133.544508,39.7360259 133.379121,40.073265 135.018448,40.2798643 C142.60471,41.2328609 168.647538,43.7979787 192.764709,36.4484839 L199.722823,38.7469351 C186.243228,47.9797968 167.117572,53.0620862 142.319727,56.5115137" id="path14" fill="#FFFFFF"></path>
                        <path d="M130.716495,46.2833658 C146.185316,49.7764297 167.322824,46.8945443 171.707201,46.2375746 C172.228683,46.1610763 172.010231,46.2895611 171.754609,46.3762951 C160.832858,50.1115139 143.47232,52.1155543 141.240131,52.3722546 C141.080131,52.3889549 140.901815,52.2580458 140.853869,52.1890896 C138.692252,49.1835678 131.859391,46.9998641 130.570771,46.5853187 C130.220064,46.4716487 130.13737,46.1532648 130.716495,46.2833658 M118.058179,68.31084 C116.869223,69.1124562 111.56525,72.4180453 107.147203,73.5566312 C96.47057,76.2863281 85.0480787,72.088079 82.0985838,71.2026918 C72.5379106,68.3566313 66.316766,70.5661935 64.0474058,71.5940723 C63.6568334,71.777776 63.6207392,71.6199309 63.8868671,71.4146783 C65.2280118,70.4530622 68.0220858,68.4272037 72.1018164,67.5590556 C75.2751496,66.8673384 79.5550148,67.1886852 84.5486848,68.1828939 C87.8052503,68.8247794 95.5781794,71.4426918 101.03057,69.9221531 C101.166327,69.8844427 101.16525,69.7597289 101.033802,69.741143 C94.7248461,68.7507054 91.909762,65.9803351 88.9209405,62.6704361 C45.4540056,58.4692241 6.53944765,40.8522549 2.68371172,39.119999 C2.5700767,39.0663963 2.49905179,39.1030293 2.64004573,39.2061943 C4.64867328,40.5457229 17.0355551,48.922019 37.8637028,56.9381804 C38.0255883,57.0020188 38.0293593,57.0766316 37.8079452,57.0623555 C35.9932651,56.9481467 29.8901003,56.8956215 23.4539253,62.3253856 C23.3644708,62.4043082 23.4512856,62.5268671 23.5822755,62.5053183 C36.8703021,60.6020187 43.5795275,61.7594597 49.809561,63.6576415 C49.9663287,63.7042408 50.1090897,63.785857 49.7780459,63.815756 C48.4075409,63.9369681 44.3975746,64.8401331 39.0246455,70.8202002 C38.9026253,70.9465302 39.0268004,71.0685504 39.2129283,71.0012103 C48.5880123,67.3869343 60.0369009,69.3325235 62.0492914,69.7244427 C62.2634328,69.7653855 62.2327257,69.9237693 62.1233655,70.0347457 C60.9128604,71.2500992 58.5163622,73.9490891 57.7683487,78.1888196 C57.7290221,78.3943415 57.9498975,78.4802674 58.1430288,78.3103011 C76.0032304,62.4479446 89.8216813,86.5163615 114.703297,75.5008735 C114.901815,75.4136008 114.929559,75.5008735 114.89131,75.6436345 L113.767001,79.6748802 C113.726327,79.8553515 113.843229,79.9038364 114.005115,79.7775064 L141.664643,55.1410087 C164.732386,51.9997293 184.195282,46.9230965 196.499928,39.0847128 L192.73885,37.859393 C164.705989,45.9700999 137.103296,42.093467 124.555418,40.2373054 C115.7503,38.9893593 106.477842,40.8207397 103.102489,44.1610763 C102.952455,44.307339 103.137236,44.4713794 103.364577,44.404578 C113.515957,41.4531976 122.309223,46.9882817 119.187876,53.9816822 L110.837169,57.0346114 C106.641075,57.634746 103.247674,55.710975 103.097641,52.3054532 C102.978314,49.4171031 104.627068,46.8773052 107.657371,45.7696958 C107.914071,45.6775746 107.929964,45.5140729 107.660603,45.5345443 C103.69589,45.8055207 99.1752164,49.5065307 101.24956,54.8797293 C101.268954,54.9317158 101.176024,54.9847798 101.107607,54.9581131 C99.4362265,54.3305037 97.3831625,53.9938034 95.7834319,54.3951502 C95.6193915,54.4355542 95.620469,54.5667326 95.7888192,54.5993252 C99.4130615,55.2616821 105.698314,61.0769008 112.207135,59.0074059 L121.104913,55.9369683 C123.777505,55.0254532 126.069222,55.54047 126.750973,55.7575744 C126.908818,55.8087528 126.874071,55.8927932 126.798919,55.9364296 L113.249829,61.7715809 C98.8180447,67.0313788 89.6401324,58.937911 88.124981,57.3923218 C87.9676746,57.2350154 87.9604018,57.3952848 87.9989204,57.5199986 C90.4977755,65.436766 102.139257,70.023702 114.082152,65.6377088 L134.155148,56.6682814 C134.279862,56.5947461 134.355013,56.6925238 134.246192,56.7946114 L117.614812,71.1668669 C117.497371,71.2832305 117.385317,71.2500992 117.444307,71.0954864 L118.239189,68.4053855 C118.296563,68.2362273 118.213061,68.2076751 118.058179,68.31084 M112.267472,54.6098303 C109.4303,54.8511771 107.604846,53.6075407 107.438112,51.5873388 C107.273263,49.6134668 109.47663,47.7247126 112.298718,47.4195274 C114.78599,47.1523221 116.886731,48.158652 117.541007,49.7327934 L115.091176,49.7432984 C115.091176,49.7432984 115.024374,49.7327934 115.044846,49.8211435 C115.388819,51.4669347 114.023162,52.8220862 111.718785,53.3519179 C111.604038,53.3780458 111.698852,53.4222209 111.698852,53.4222209 L115.755149,53.406598 C115.184644,53.9989212 113.327674,54.5220188 112.267472,54.6098303 M50.3641738,23.2756627 C68.6728602,31.1148814 112.733196,45.1657901 184.179389,34.3218847 L181.667336,32.6006726 C181.667336,32.6006726 150.963229,31.3169016 137.180333,28.6022888 C127.26168,26.622464 120.404576,22.6184775 120.350435,7.974653 C120.36929,5.92487527 120.524172,3.76325917 120.771445,1.50683902 C120.792455,1.3322801 120.590435,1.29692657 120.518785,1.47800939 C118.947337,5.50410761 112.969964,17.2528481 124.450367,28.4234336 C125.902758,29.7869353 125.623431,33.2382483 121.083364,33.4044436 C105.316361,33.9706389 81.6818835,30.7571709 70.3321195,27.2379791 C69.814409,27.0804034 69.863702,26.8802687 70.3663282,26.9419253 C91.5547452,29.4461946 105.837034,28.5422215 115.26626,25.9991643 C115.528886,25.9280263 115.51892,25.7277031 115.166327,25.7530499 C113.440805,25.8749893 98.918516,26.73107 89.6886173,23.6427738 C89.2576409,23.4976964 89.3061257,23.2217907 89.7327924,23.2414809 C105.019526,23.8984506 111.951782,21.7966055 113.811714,21.0159995 C114.0536,20.9128884 114.024778,20.7738715 113.712859,20.7840803 C111.941277,20.8455483 106.679863,20.7865045 101.58626,19.1399322 C101.229627,19.0273665 101.265452,18.7507335 101.626664,18.7302083 C109.757573,18.0972117 113.267068,16.4463296 114.400267,15.7829222 C114.700603,15.6083767 114.666125,15.4887538 114.387607,15.458343 C113.367001,15.3406057 110.801344,14.9902218 109.149358,14.2540064 C108.892657,14.1424643 108.968347,13.8817236 109.217775,13.8591242 C115.358381,13.3414407 117.364307,6.30944092 117.779391,4.54704366 C117.83892,4.29354871 117.675687,4.34723221 117.576293,4.44770359 C110.172118,12.0388145 86.20121,29.614006 50.418854,23.0924977 C50.1384499,23.0399725 50.0953523,23.1609961 50.3641738,23.2756627" id="path16" fill="#104076"></path>
                        <path d="M15.2210636,29.9186525 C21.8740466,32.005117 40.3846455,36.0918509 47.8925241,35.7691574 C48.2230291,35.752457 48.2585847,35.5299654 47.962019,35.4362281 C42.5632313,33.7705042 32.8183157,29.7069353 26.1669758,23.0042014 C26.0007266,22.834693 26.0870027,22.7056964 26.2974539,22.809454 C40.1085512,29.8055211 53.6654532,32.2464638 56.6424228,32.8899655 C56.9336013,32.9508409 57.0060592,32.8441743 56.7051838,32.6494268 C55.384241,31.7605379 51.7236351,29.1577097 48.3159584,23.9552856 C48.1777766,23.7411711 48.3003355,23.6797031 48.4412109,23.7705045 C63.8063284,33.5302349 77.7362944,38.1651169 91.4410752,41.2185848 C91.8534657,41.3112448 91.8152166,41.5463963 91.3678092,41.5652515 C79.1620182,42.0670697 58.9306383,38.9648475 50.7544768,36.2620866 C50.422625,36.148686 50.3862614,36.322154 50.6855206,36.5185176 C60.1152847,42.40377 80.1290216,46.2243759 86.0223548,47.4138709 C86.7189204,47.5453187 86.4530618,47.7225577 85.9854524,47.7610762 C76.2381126,48.5080123 61.0238369,46.5252514 49.0615476,43.5754871 C48.6949483,43.4822885 48.6602008,43.7031639 49.0351503,43.8979114 C56.2426922,47.6406722 71.5321194,52.4385172 82.6930619,53.2455206 C83.0615467,53.2719179 83.0429609,53.470167 82.6483481,53.5353522 C66.8630286,56.2232983 27.7645784,49.1030291 3.90268004,37.6070024 C3.81322549,37.5652516 3.73589216,37.5022213 3.91897633,37.5420866 C6.89931296,38.1756219 32.7531305,43.5789888 46.4942749,43.080403 C46.8325914,43.0725915 46.8414803,42.8689552 46.5193254,42.7841067 C32.1090901,39.0278778 19.5450231,33.8968342 15.1279457,30.1532652 C14.828067,29.9006053 15.0179929,29.8575077 15.2210636,29.9186525" id="path18" fill="#D2103E"></path>
                    </g>
                </g>
            </g>
        </g>
    </g>
</svg>