<?xml version="1.0" encoding="UTF-8"?>
<svg width="200px" height="200px" viewBox="0 0 200 200" version="1.1" xmlns="http://www.w3.org/2000/svg" xmlns:xlink="http://www.w3.org/1999/xlink">
    <!-- Generator: Sketch 54.1 (76490) - https://sketchapp.com -->
    <title>mt-st-joseph</title>
    <desc>Created with Sketch.</desc>
    <g id="mt-st-joseph" stroke="none" stroke-width="1" fill="none" fill-rule="evenodd">
        <g id="mt-st-joseph_BGL">
            <g id="Group-165" transform="translate(19.000000, 0.000000)">
                <path d="M140.669886,99.5594889 L142.462118,100.811278 C144.940206,84.8770358 141.270139,77.6940716 141.270139,77.6940716 C141.900063,42.0494378 129.549865,27.1663032 129.549865,27.1663032 C126.896817,2.89407155 110.327798,5.34722317 110.327798,5.34722317 C98.0481979,-4.39451448 79.6354484,5.45216354 79.6354484,5.45216354 C57.5795747,6.08044293 50.8969895,29.8950937 50.8969895,29.8950937 C50.8969895,29.8950937 34.7921432,39.6456899 39.2483368,75.1935605 C39.2483368,75.1935605 22.0483705,92.3748211 27.3653811,124.862726 L29.5542568,124.549949 L51.2001853,122.112811 L66.4148842,96.6201363 L74.7580547,91.2262692 L97.6583747,88.1199659 L107.474552,91.0630664 L140.669886,99.5594889 Z" id="Fill-1" fill="#FFD457"></path>
                <path d="M82.1417419,98.5593186 L77.2353587,104.933083 L68.4000493,103.954889 L59.5255187,108.756593 C63.6658977,99.8308688 71.3794851,94.7698807 77.4147524,92.0540375 C84.5874303,94.7501193 95.1873461,94.3034412 95.1873461,94.3034412 C95.8049924,97.6993526 97.2715187,100.641772 99.1166135,103.143986 L98.4218893,104.260511 L82.1417419,98.5593186 Z M153.243712,120.659489 L152.421776,113.265963 L149.486336,112.157615 L145.242277,115.400886 L140.244832,113.403612 L135.247388,112.408041 L129.002715,112.157615 L120.75879,109.41247 L118.603338,106.436661 L126.236778,95.0703918 C125.081973,94.0802726 124.013456,93.0601704 123.005645,92.0264395 L123.026449,92.0264395 C112.352184,80.2571039 109.501666,62.371925 109.501666,62.371925 C97.0457419,89.8939012 85.7640619,88.2939012 85.7640619,88.2939012 C76.6852408,89.0291652 69.4924408,82.8230324 69.4924408,82.8230324 C69.3952408,84.046201 70.439544,85.5269506 71.5295482,86.720477 C57.8410598,94.9320613 52.146504,111.952164 50.4282808,118.366133 C47.6135735,119.578399 45.3196535,121.157615 45.3196535,121.157615 C42.4418514,118.058807 36.0887229,122.810085 36.0887229,122.810085 C27.4525882,119.810426 26.2278682,124.58862 26.2278682,124.58862 C13.8435651,123.853015 18.3648998,136.978739 18.3648998,136.978739 C19.0620114,138.713322 19.8133503,139.163748 20.6431314,139.766133 C19.9545461,141.280273 17.9743945,145.573969 17.5453503,145.719455 L13.8449293,150.647223 L13.7579608,153.298671 L35.3066893,157.292879 L67.2800324,158.681295 L109.655481,177.764429 L143.377742,182.281295 L154.888268,143.254719 L161.745131,139.028825 L153.243712,120.659489 Z" id="Fill-3" fill="#005999"></path>
                <path d="M141.419929,76.8474957 C142.052241,41.2062692 129.70102,26.321431 129.70102,26.321431 C127.045925,2.04817717 110.477247,4.50201022 110.477247,4.50201022 C98.2000345,-5.23870528 79.7866029,4.60286201 79.7866029,4.60286201 C57.7314114,5.23863714 51.0474619,29.0498807 51.0474619,29.0498807 C51.0474619,29.0498807 34.9439798,38.8008177 39.3981272,74.3469847 C39.3981272,74.3469847 22.1998661,91.5296082 27.5172177,124.017853 L29.7060935,123.704736 C29.7060935,123.704736 22.6674493,98.2863373 39.7627124,77.7323339 C41.2865356,81.0509029 46.5060051,82.2880409 46.5060051,82.2880409 C42.5555924,78.6216014 41.8560935,73.3411925 41.8560935,73.3411925 L41.8185777,73.186167 C40.6835545,67.193322 38.4612556,47.1813969 54.8072261,30.2812266 C54.8072261,30.2812266 61.4052303,5.97117547 80.2108724,6.59706985 C80.2108724,6.59706985 95.1605735,-5.14194208 110.71462,5.97117547 C110.71462,5.97117547 126.249567,3.71529813 126.482847,30.9275639 C126.482847,30.9275639 142.016089,49.6679387 139.027786,79.972879 C139.027786,79.972879 142.616001,81.5330153 140.823769,98.714276 L142.616001,99.9647019 C145.091702,84.0321635 141.419929,76.8474957 141.419929,76.8474957" id="Fill-5" fill="#005999"></path>
                <path d="M97.188336,0.453356048 C88.1906855,0.453356048 80.0170181,4.73989779 79.8949213,4.80497445 C79.8635444,4.82201022 79.8290981,4.83120954 79.7932876,4.83223169 C68.4928497,5.15795571 61.3413171,11.7378535 57.3315613,17.2002044 C52.9783655,23.1303578 51.2850392,29.0526746 51.2683276,29.1116184 C51.2529802,29.1678365 51.2161465,29.2155366 51.1666939,29.2458603 C51.1264497,29.2700511 47.1371571,31.7484157 43.7392497,38.5082112 C38.0491276,49.8267802 38.3618728,64.2291652 39.6261549,74.3184327 C39.6350223,74.3886201 39.6108076,74.4591482 39.5606728,74.5092334 C39.5177002,74.5518228 35.2398771,78.8836797 31.6649634,87.1122998 C28.3806265,94.671414 25.0379697,107.154208 27.7077297,123.758978 L29.4201549,123.514003 C29.1046813,122.242453 27.761616,116.289131 28.0941423,108.416559 C28.4399697,100.239387 30.7141086,88.2523339 39.5859107,77.5855537 C39.6363865,77.5249063 39.7148286,77.4945826 39.7925886,77.5048041 C39.8706897,77.5150256 39.9385592,77.56477 39.9713002,77.636661 C41.0630097,80.0131516 44.1788665,81.3054855 45.7013255,81.8107666 C42.3017128,78.1821465 41.635296,73.4220102 41.628816,73.3715843 L41.5953928,73.2404089 C40.4934518,67.4237138 38.1841844,47.1739693 54.601776,30.1637479 C54.7838981,29.5245656 56.4970055,23.7289949 60.2656371,18.0772061 C65.527056,10.1862351 72.3883528,6.13819421 80.1367276,6.36511073 C80.6714981,5.96374787 84.3217844,3.32286201 89.5695613,1.89526405 C94.7859613,0.476524702 102.692584,-0.00592844974 110.77485,5.73240204 C111.460365,5.65642249 115.569027,5.36545145 119.491814,8.72660988 C124.179582,12.7433049 126.608559,20.1852129 126.711557,30.8455196 C127.188008,31.4407496 130.824311,36.118092 134.088184,43.9981601 C137.29101,51.730017 140.78373,64.2189438 139.270138,79.8550596 C139.959747,80.3654514 142.638033,83.3678365 141.066121,98.6032709 L142.444656,99.5654514 C144.76586,84.1620443 141.251313,77.0223509 141.215502,76.9514821 C141.19845,76.918092 141.189923,76.880954 141.190605,76.8434753 C141.813368,41.7146848 129.646997,26.6162181 129.524218,26.4676661 C129.49557,26.4329131 129.477494,26.3906644 129.472719,26.3463714 C128.521864,17.6523339 125.69181,11.4332538 121.061338,7.86255537 C116.011372,3.96851789 110.565784,4.72081772 110.510875,4.72899489 C110.449144,4.73887564 110.384685,4.72115843 110.334551,4.68163543 C106.342189,1.51400341 101.662947,0.453356048 97.188336,0.453356048 M27.5170813,124.247223 C27.4065802,124.247223 27.3090392,124.167155 27.2909634,124.054719 C24.5349171,107.217581 27.9242981,94.5606814 31.2529718,86.9078705 C34.5946055,79.2257581 38.5511571,74.9024191 39.1568665,74.266644 C37.8942897,64.1051448 37.6074644,49.650971 43.3473802,38.2652811 C46.586016,31.8410903 50.2598349,29.2843612 50.8515613,28.9020784 C51.0783613,28.1453492 52.8463781,22.5347871 56.9611781,16.9289949 C61.0251613,11.392368 68.2718476,4.7249063 79.7271234,4.37499148 C80.7925718,3.82473595 98.6019992,-5.11529813 110.54498,4.26289608 C111.329742,4.17737649 116.522951,3.78316865 121.341683,7.49935264 C126.063216,11.1402385 128.949885,17.4421124 129.922227,26.2301874 C130.735296,27.2669847 142.24514,42.5893015 141.650344,76.7974787 C141.977073,77.4959455 145.190812,84.8898126 142.842664,99.9998637 C142.830728,100.078228 142.779229,100.144668 142.706243,100.175673 C142.633599,100.206678 142.5497,100.198501 142.484218,100.152845 L140.692328,98.9020784 C140.623776,98.8543782 140.586601,98.7732879 140.595128,98.690494 C142.331427,82.0451789 138.965919,80.1978194 138.931814,80.1811244 C138.845528,80.1392164 138.789936,80.0458603 138.799485,79.95046 C141.744134,50.0860647 126.460883,31.2601704 126.306045,31.073799 C126.272281,31.0329131 126.253864,30.9821465 126.253523,30.9293356 C126.162462,20.3644293 123.787031,13.011448 119.193052,9.07482112 C115.144757,5.60667802 110.791561,6.19134583 110.747565,6.19816014 C110.688904,6.20599659 110.62922,6.19202726 110.581132,6.15795571 C95.3425592,-4.73028961 80.5006307,6.6611925 80.3529549,6.77737649 C80.3099823,6.81076661 80.2588244,6.82746167 80.2032328,6.82643952 C70.5920286,6.51298126 64.2655023,12.9065077 60.6479571,18.3317206 C56.7139149,24.2315503 55.0454855,30.280954 55.0287739,30.3412606 C55.0185423,30.3787394 54.9994434,30.4128109 54.9725002,30.4407496 C38.6650686,47.3007155 40.9542139,67.3886201 42.0442181,73.1436457 L42.0793465,73.2874276 C42.0906013,73.3630664 42.8214771,78.55523 46.6624118,82.1201363 C46.7388076,82.1910051 46.7579065,82.3044634 46.7084539,82.3961158 C46.6593423,82.488109 46.5539571,82.5351278 46.4530055,82.5112777 C46.242576,82.4615332 41.4333928,81.2891312 39.7155107,78.1497785 C31.1114349,88.6496082 28.8928876,100.398501 28.5531992,108.43598 C28.1817928,117.22201 29.9099065,123.580102 29.9273002,123.643475 C29.9450349,123.707189 29.9344623,123.775332 29.8983107,123.830187 C29.8621592,123.885383 29.8041802,123.922181 29.7386981,123.932061 L27.5498223,124.245179 C27.5389086,124.246542 27.5279949,124.247223 27.5170813,124.247223" id="Fill-7" fill="#005999"></path>
                <polygon id="Fill-9" fill="#FFD457" points="55.1679234 17.9612947 46.0536328 10.4764566 53.7556244 23.0846337 52.3723149 26.151414 51.1162181 27.4069506 49.858416 29.6812266 49.9041171 32.6716865 49.5323697 34.7146167 47.6623781 38.2785009 47.7817465 44.5653833 48.7841002 47.111891 48.9549676 50.0706644 47.7875444 53.165724 48.0109339 56.8359114 49.3475192 59.728586 53.3494307 62.7977513 57.6941002 63.9463032 59.4014097 65.7895741 63.4889255 71.2982624 68.4996707 76.3030324 72.9527949 79.9739012 76.9622097 81.1984327 81.6383823 80.5299489 86.8728581 77.6382964 93.9988118 62.6205792 98.6006349 52.3207496 102.462033 47.0468143 103.804075 28.1241567 103.945612 24.1960477 105.022656 18.5694719 103.925831 13.272368 102.954854 9.17935264 102.587199 7.00797274 101.131928 4.77526405 98.7455823 5.58616695 94.6659107 8.00252129 92.3276539 10.8945145 89.1637086 10.6556729 85.9840749 10.651925 82.0500328 11.3602726 79.0770771 11.6733901 76.9530013 12.04477 69.9760876 11.9009881 65.164176 13.2825894 61.9309971 14.4417036"></polygon>
                <path d="M105.076167,24.8229983 L105.09322,24.7034072 C107.995578,14.7674617 101.481131,3.87853492 101.481131,3.87853492 C96.3875103,4.88637138 92.8889924,7.67376491 90.5456198,10.5470187 C88.0774219,10.0420784 83.043144,9.52998296 76.4666261,11.5868825 C76.4666261,11.5868825 68.3475272,9.78177172 62.1506008,14.1231687 C62.1506008,14.1231687 49.2809798,11.6417376 43.8896198,7.66013629 L52.5465587,23.8993186 L53.9042893,23.2080068 L47.8216156,13.3633731 C49.5323356,15.8495741 52.5690682,19.4529813 56.2128745,20.1848382 C56.2128745,20.1848382 59.6015735,13.0819421 70.7011314,12.7204429 C70.7011314,12.7204429 64.8220661,15.8321976 63.8064114,27.4601363 C63.8064114,27.4601363 69.5227945,9.34599659 89.9743566,11.2768313 C87.2442303,14.9269165 86.3179314,18.4819421 86.3179314,18.4819421 L83.4459272,22.2008518 L90.6595314,19.1115843 C94.0216282,5.5572402 101.310264,4.91022147 101.310264,4.91022147 C107.926685,19.8795571 99.7574514,29.8478705 99.7574514,29.8478705 L99.5517966,30.0741056 C99.5517966,30.0741056 108.675637,40.6287905 95.0069293,54.1940375 L87.5211651,72.2117547 C83.3224661,85.1449744 72.4173082,79.0921635 72.4173082,79.0921635 C82.0561377,81.225724 83.9213545,74.8608177 83.9213545,74.8608177 L86.4966429,60.2240204 L78.8024956,61.6448041 C69.8553208,64.4908007 57.3918935,63.6683135 57.3918935,63.6683135 L57.1807819,64.3756388 C59.0299693,69.2189097 71.5257966,79.9551959 71.5257966,79.9551959 C82.9732282,88.9429302 89.7199314,74.8117547 89.7199314,74.8117547 L90.6213335,72.9149915 C92.4534682,69.6373083 94.4111103,65.2192504 96.3285082,59.2683135 C96.3285082,59.2683135 99.3352282,58.1074957 100.087249,54.2839864 C100.087249,54.2839864 113.368862,46.9439523 105.076167,24.8229983" id="Fill-11" fill="#005999"></path>
                <path d="M57.4234067,64.3657922 C59.3264804,69.1347871 71.5518531,79.6751618 71.6756552,79.7814651 C74.8413057,82.266644 77.9411331,83.1824872 80.8799836,82.4956048 C86.3460341,81.2192845 89.481672,74.7780579 89.5127078,74.7129813 L90.4137688,72.8165588 C92.4662236,69.1443271 94.3798699,64.567155 96.1100299,59.1981601 C96.1308341,59.132402 96.1809688,59.0795911 96.2450867,59.0547189 C96.2740762,59.0431346 99.1447162,57.885724 99.8619499,54.2397274 C99.8752509,54.1732879 99.9168594,54.1160477 99.9762025,54.083339 C100.008603,54.0652811 103.276569,52.2148552 105.499209,47.720477 C109.220093,40.1940716 107.206177,31.1582964 104.861099,24.9034412 C104.847798,24.8676661 104.843365,24.8288245 104.848821,24.7906644 L104.865533,24.671414 C107.53768,15.5153663 102.100619,5.43666099 101.364628,4.13649063 C97.1389857,5.00940375 93.5596383,7.21417376 90.7237857,10.6918569 C90.6695583,10.7579557 90.5836131,10.7889608 90.4993731,10.7715843 C88.0925646,10.2789097 83.0787499,9.75897785 76.5353141,11.8056559 C76.4971162,11.8175809 76.456872,11.8192845 76.4166278,11.8107666 C76.3364804,11.7927087 68.3217436,10.0799319 62.2823836,14.310937 C62.2312257,14.3470528 62.168472,14.3603407 62.1067415,14.3484157 C61.6036888,14.2516525 50.2398152,12.029506 44.5333225,8.37942078 L52.642872,23.5927087 L53.5780383,23.1167291 L47.6259878,13.4836797 C47.5608467,13.3777172 47.5918825,13.239046 47.6962446,13.1712436 C47.8012888,13.1027598 47.9404383,13.1310392 48.0106952,13.2332538 C49.8278236,15.873799 52.6923246,19.1545486 56.0898909,19.9238842 C56.3552299,19.4380239 57.2644762,17.9463714 59.1494741,16.4104259 C61.215912,14.7269506 64.8958699,12.6799319 70.6937646,12.4911755 C70.8015373,12.488109 70.8953267,12.5582964 70.922952,12.6611925 C70.9502362,12.7640886 70.9028299,12.8727768 70.8090404,12.922862 C70.7541309,12.9521635 65.5998025,15.813833 64.2239962,25.7944123 C64.9944341,24.0755026 66.5138236,21.2196252 69.0529604,18.4884497 C72.724392,14.5388756 79.3391078,10.0424532 89.9959794,11.0482453 C90.0785141,11.0560818 90.1504762,11.1078705 90.1842404,11.1838501 C90.2176636,11.2594889 90.2081141,11.3477342 90.1579794,11.413833 C87.4892425,14.9824872 86.5493015,18.5044634 86.5400931,18.5395571 C86.5325899,18.56954 86.5186067,18.5974787 86.4998488,18.6220102 L84.1673899,21.6424532 L90.4642446,18.9453492 C93.8386194,5.49526405 100.9864,4.70855196 101.289937,4.68163543 C101.384409,4.67379898 101.480927,4.72763203 101.520489,4.81758092 C108.117811,19.7433049 100.017811,29.8925383 99.9349352,29.9933901 L99.8544467,30.0819761 C100.35443,30.7194549 102.12995,33.2094037 102.633003,37.0168995 C103.160611,41.0168995 102.298771,47.2642589 95.2014657,54.3242249 L87.7334362,72.2996934 C86.4159499,76.36 84.2922152,78.9985009 81.4277141,80.1249063 C77.0151752,81.8594889 72.4958867,79.3981601 72.3059204,79.2925383 C72.2063331,79.2373424 72.1623373,79.1170698 72.2025815,79.0107666 C72.2431667,78.9041227 72.3540088,78.8434753 72.4668973,78.8680068 C81.7650152,80.9259284 83.6261394,75.0475639 83.7011709,74.7961158 L86.2133646,60.5099148 L78.8442404,61.8703918 C70.5737141,64.5031005 59.1419709,63.9940716 57.5598278,63.9078705 L57.4234067,64.3657922 Z M78.9619036,83.1760136 C76.5005267,83.1760136 73.9603667,82.1586371 71.3840552,80.1358092 C70.8639499,79.6894719 58.8149015,69.2993526 56.9663962,64.4574446 C56.9483204,64.4104259 56.9466152,64.3586371 56.9609394,64.3102555 L57.1717099,63.6029302 C57.2024046,63.5003748 57.2982404,63.4329131 57.4066952,63.4393867 C57.5311794,63.4482453 69.9308299,64.2260988 78.7327162,61.4260988 L86.4551709,59.9985009 C86.5278152,59.9855537 86.6048931,60.0080409 86.6584383,60.0611925 C86.7119836,60.1140034 86.7358573,60.189983 86.7228973,60.2639182 L84.1472678,74.9007155 C84.1244173,74.9845315 82.3939162,80.5538671 74.3958909,79.6577853 C76.0997899,80.2080409 78.7306699,80.6935605 81.2623036,79.6969676 C83.9917478,78.6220102 86.0240804,76.0799319 87.3026867,72.1409199 L94.7945899,54.106167 C94.8061857,54.0782283 94.8232383,54.0526746 94.8450657,54.0312095 C98.7054404,50.2002044 103.111158,44.1487564 102.177356,37.0772061 C101.620417,32.8594889 99.4001646,30.2499489 99.3779962,30.2237138 C99.3019415,30.1361499 99.3036467,30.0053152 99.3817478,29.9194549 L99.5877436,29.6935605 C99.6603878,29.604293 107.52131,19.7334242 101.170569,5.16340716 C100.68491,5.2523339 99.1525604,5.6370017 97.3606699,7.13069847 C95.3518699,8.80497445 92.5975288,12.2519932 90.8820341,19.1668143 C90.8649815,19.2363203 90.8158699,19.2939012 90.7500467,19.3221806 L83.5364425,22.4117888 C83.4399246,22.453356 83.3287415,22.4240545 83.2646236,22.3416014 C83.2005057,22.2588075 83.2001646,22.1436457 83.2642825,22.0608518 L86.1083204,18.3773765 C86.2263246,17.957615 87.1693352,14.7736286 89.5481773,11.4693697 C79.3111415,10.6315503 72.9436888,14.9766951 69.3892383,18.8005451 C65.4841857,23.0012266 64.0394867,27.4843612 64.0255036,27.5293356 C63.9903752,27.6407496 63.8774867,27.7088927 63.7618699,27.6850426 C63.6469352,27.6622147 63.5678109,27.5569336 63.5777015,27.4404089 C64.3928173,18.1099148 68.2651288,14.2254174 69.8858109,12.989983 C64.6895331,13.3296763 61.3523331,15.2077002 59.4397099,16.7657922 C57.2702741,18.5337649 56.4282152,20.2663032 56.4200299,20.2836797 C56.3746699,20.3783986 56.2726952,20.4305281 56.1673099,20.4097445 C53.8280299,19.9398978 51.7401057,18.3398978 50.0440509,16.5235434 L54.0998488,23.0877683 C54.1336131,23.1422828 54.1428215,23.2083816 54.1254278,23.2700511 C54.1080341,23.3317206 54.0657436,23.3835094 54.0084467,23.4124702 L52.6507162,24.1037819 C52.539192,24.1610221 52.4024299,24.1174106 52.3434278,24.0070187 L43.6868299,7.76783646 C43.6363541,7.67311755 43.6585225,7.55659284 43.7396931,7.48640545 C43.8208636,7.41587734 43.9398909,7.41212947 44.0261773,7.47550256 C49.0734152,11.2029302 60.9171499,13.6427939 62.0995794,13.8792504 C68.0117267,9.79850085 75.6895036,11.197138 76.4551667,11.3501193 C82.9484678,9.33172061 87.9626236,9.8039523 90.4557183,10.2949233 C93.3833141,6.75011925 97.0772552,4.5160477 101.43659,3.65369676 C101.533449,3.63529813 101.628603,3.67788756 101.678396,3.76102215 C101.743878,3.87073254 108.210236,14.8502896 105.313676,24.7678365 L105.310607,24.7940716 C107.682628,31.1419421 109.69859,40.2935605 105.897217,47.9508007 C103.793946,52.187598 100.861234,54.090494 100.291676,54.4305281 C99.5662573,57.8990119 97.0653183,59.1927087 96.5145183,59.4387053 C94.7843583,64.7933901 92.8693478,69.3644293 90.8220088,73.0267802 L89.9274278,74.9102555 C89.7968046,75.1835094 86.6686699,81.613833 80.9870741,82.9419421 C80.318952,83.0979898 79.6429857,83.1760136 78.9619036,83.1760136 L78.9619036,83.1760136 Z" id="Fill-13" fill="#005999"></path>
                <path d="M137.10916,98.8068484 C137.10916,98.8068484 134.164512,93.6586371 128.750301,95.420477 C128.750301,95.420477 119.708314,87.2405792 116.510605,97.9134923 C116.510605,97.9134923 112.35215,110.16494 125.269177,112.020136 C125.269177,112.020136 127.918474,114.348245 132.92615,113.266133 C132.92615,113.266133 137.104727,115.801056 140.10292,114.439216 C140.10292,114.439216 145.136857,119.234446 149.292243,114.000034 C149.292243,114.000034 155.839089,103.673629 145.20916,102.235809 C145.20916,102.235809 144.940411,97.6974787 137.10916,98.8068484" id="Fill-15" fill="#005999"></path>
                <path d="M140.103023,114.209915 C140.160661,114.209915 140.217616,114.231721 140.261271,114.273288 C140.283781,114.294412 142.527907,116.386405 145.1564,116.204804 C146.626677,116.102249 147.957124,115.312129 149.112269,113.857274 C149.128981,113.828313 152.176286,108.948586 150.604715,105.57891 C149.817566,103.892027 147.992252,102.843646 145.178227,102.463066 C145.069772,102.448416 144.986214,102.358807 144.980075,102.249438 C144.979052,102.237853 144.886286,101.025928 143.705562,100.067836 C142.338623,98.9584668 140.129966,98.6105963 137.141322,99.0337649 C137.045486,99.0463714 136.956471,99.0020784 136.910088,98.9206474 C136.792766,98.7172402 133.989995,93.9571039 128.821684,95.6385349 C128.743924,95.6640886 128.657296,95.6460307 128.596248,95.590494 C128.554981,95.5526746 124.388682,91.8337649 120.846168,92.8218399 C118.985044,93.3410903 117.60037,95.0763543 116.730686,97.9792504 C116.709882,98.0402385 114.954825,103.355741 117.434619,107.38845 C118.900463,109.772095 121.547372,111.253867 125.302021,111.79322 C125.345675,111.799353 125.387284,111.818433 125.420366,111.847734 C125.445945,111.870221 128.053974,114.084532 132.877482,113.041942 C132.933755,113.029336 132.994804,113.039557 133.045621,113.070221 C133.086206,113.095094 137.154623,115.526099 140.00821,114.230698 C140.038564,114.216729 140.070623,114.209915 140.103023,114.209915 M144.817734,116.675673 C142.463448,116.675673 140.541275,115.132232 140.058345,114.708722 C137.197595,115.888961 133.491035,113.86 132.88669,113.509404 C128.206766,114.487939 125.585435,112.572095 125.17208,112.237853 C121.308976,111.670221 118.573393,110.118944 117.042067,107.625928 C114.449385,103.40753 116.216379,98.0654514 116.293115,97.8398978 C117.208501,94.783339 118.700265,92.9434753 120.724071,92.3795911 C124.236572,91.4010562 128.120821,94.5720954 128.804631,95.1625554 C133.753646,93.6368313 136.704092,97.7530153 137.225221,98.5591482 C140.279347,98.148586 142.560307,98.539046 144.00637,99.7206474 C145.063633,100.58402 145.342273,101.614344 145.414235,102.033083 C148.295448,102.456252 150.181469,103.58402 151.021482,105.386405 C152.698779,108.98402 149.61805,113.914514 149.486063,114.122692 C148.233035,115.703612 146.790383,116.551652 145.185389,116.663066 C145.061928,116.671584 144.93949,116.675673 144.817734,116.675673" id="Fill-17" fill="#005999"></path>
                <path d="M143.73936,103.654549 C142.241798,98.9131516 136.746417,100.161874 136.746417,100.161874 C129.752109,94.4214991 128.273646,98.6433049 128.273646,98.6433049 C121.758518,91.1755026 119.009293,96.9162181 119.009293,96.9162181 C113.167743,108.301227 124.756712,108.645349 124.756712,108.645349 C129.028055,112.346882 134.49888,111.390835 134.49888,111.390835 C135.933347,113.554719 141.742838,113.389472 141.742838,113.389472 C145.490665,116.381295 147.662829,113.894072 147.662829,113.894072 C155.256025,105.004463 143.73936,103.654549 143.73936,103.654549" id="Fill-19" fill="#FFD457"></path>
                <path d="M126.77032,96.7855196 C129.932901,100.16201 127.285651,105.657411 127.285651,105.657411 C130.386843,100.802555 129.008308,97.6008518 129.008308,97.6008518 L126.77032,96.7855196 Z" id="Fill-21" fill="#005999"></path>
                <path d="M127.465079,97.2827939 C128.411841,98.6551959 128.749142,100.447359 128.441171,102.521295 C128.40843,102.742078 128.36955,102.956729 128.32726,103.162862 C129.519239,100.198296 128.977306,98.2122658 128.829971,97.7798978 L127.465079,97.2827939 Z M127.285685,105.886542 C127.247487,105.886542 127.209289,105.877342 127.17382,105.857581 C127.067752,105.798637 127.026144,105.667121 127.078666,105.557751 C127.104245,105.504259 129.619508,100.163203 126.602898,96.9420784 C126.530253,96.8647359 126.520022,96.7475298 126.578683,96.6589438 C126.637344,96.5703578 126.749891,96.5339012 126.848797,96.570017 L129.087125,97.3853492 C129.146809,97.4068143 129.194216,97.4521295 129.219453,97.5100511 C129.277432,97.6453152 130.610266,100.879727 127.479062,105.780579 C127.435407,105.849063 127.361399,105.886542 127.285685,105.886542 L127.285685,105.886542 Z" id="Fill-23" fill="#005999"></path>
                <path d="M134.739424,98.3387053 C138.834784,102.143816 135.514296,109.101227 135.514296,109.101227 C140.666919,102.728484 137.4791,99.4184327 137.4791,99.4184327 L134.739424,98.3387053 Z" id="Fill-25" fill="#005999"></path>
                <path d="M135.580733,98.9170017 C137.731411,101.678501 136.973933,105.540852 136.302741,107.659421 C139.710539,102.645792 137.649558,99.9623169 137.344998,99.612402 L135.580733,98.9170017 Z M135.514569,109.33063 C135.472619,109.33063 135.429988,109.319387 135.392131,109.295537 C135.293567,109.233526 135.257074,109.107802 135.307209,109.002862 C135.339609,108.934719 138.505941,102.151755 134.582813,98.5067802 C134.502325,98.4314821 134.486295,98.309506 134.545297,98.2164906 C134.603958,98.1227939 134.720939,98.0853152 134.823596,98.1251789 L137.563272,99.205247 C137.593967,99.2171721 137.621592,99.2359114 137.644784,99.2594208 C137.780523,99.400477 140.91275,102.789574 135.692939,109.245451 C135.64792,109.301329 135.581756,109.33063 135.514569,109.33063 L135.514569,109.33063 Z" id="Fill-27" fill="#005999"></path>
                <path d="M141.938841,100.161908 C145.775001,103.8154 143.487902,109.470937 143.487902,109.470937 C147.784142,102.60586 143.881818,101.390869 143.881818,101.390869 L141.938841,100.161908 Z" id="Fill-29" fill="#005999"></path>
                <path d="M143.087915,101.160239 C144.625381,103.419864 144.50192,106.080511 144.179625,107.791584 C145.447317,105.29448 145.400934,103.799761 145.086143,102.95138 C144.694273,101.895162 143.822202,101.612709 143.813675,101.609983 C143.794235,101.604191 143.77616,101.595673 143.759107,101.58477 L143.087915,101.160239 Z M143.48797,109.700273 C143.452501,109.700273 143.417031,109.692095 143.383608,109.6754 C143.277882,109.621227 143.230475,109.495162 143.275153,109.385111 C143.296981,109.329915 145.456185,103.829063 141.78032,100.327871 C141.695056,100.24644 141.685166,100.11356 141.758151,100.020545 C141.830795,99.9275298 141.962442,99.905724 142.061688,99.968075 L143.982155,101.182726 C144.168029,101.249847 145.086825,101.633152 145.516892,102.791925 C146.115099,104.40385 145.497793,106.691755 143.682711,109.592606 C143.639397,109.661772 143.564366,109.700273 143.48797,109.700273 L143.48797,109.700273 Z" id="Fill-31" fill="#005999"></path>
                <path d="M146.280611,110.625928 C146.705563,112.668518 144.853988,114.324055 144.853988,114.324055 C147.846043,113.516218 147.605601,110.689642 147.605601,110.689642 C147.605601,110.689642 147.5923,109.685554 146.88598,109.52201 C146.88598,109.52201 146.039487,109.483509 146.280611,110.625928" id="Fill-33" fill="#005999"></path>
                <path d="M140.875064,108.235605 C141.264205,110.624361 139.027923,112.446508 139.027923,112.446508 C142.540083,111.667291 142.409118,108.378365 142.409118,108.378365 C142.409118,108.378365 142.449363,107.211414 141.643796,106.989608 C141.643796,106.989608 140.659177,106.895911 140.875064,108.235605" id="Fill-35" fill="#005999"></path>
                <path d="M132.940235,105.333867 C133.245819,108.136593 130.539907,110.119557 130.539907,110.119557 C134.66869,109.42586 134.71712,105.597581 134.71712,105.597581 C134.71712,105.597581 134.831031,104.242215 133.908484,103.934889 C133.908484,103.934889 132.772437,103.766576 132.940235,105.333867" id="Fill-37" fill="#005999"></path>
                <path d="M124.548499,101.798092 C124.545088,104.796388 121.615446,106.713935 121.615446,106.713935 C125.824036,106.271687 126.294347,102.19707 126.294347,102.19707 C126.294347,102.19707 126.559345,100.765724 125.668516,100.37322 C125.668516,100.37322 124.551909,100.115639 124.548499,101.798092" id="Fill-39" fill="#005999"></path>
                <polygon id="Fill-41" fill="#FEFEFE" points="79.1971617 111.30552 83.1247238 105.914719 89.0136796 109.837376 96.6989596 108.118126 102.622362 111.409438 108.448564 111.324259 113.283667 112.226133 121.253385 115.637036 133.112126 117.380818 137.997364 120.168893 126.555389 119.317104 107.905608 117.356968 104.017267 115.09632 97.8472838 115.720511 86.0693722 111.797853"></polygon>
                <path d="M66.3044173,41.9156729 C66.3044173,41.9156729 68.6781436,40.5940375 69.4785941,37.8039182 C69.4785941,37.8039182 76.9831162,36.4856899 81.0102657,34.6199319 L82.8113646,36.0809199 L79.9656215,36.8662692 C79.9656215,36.8662692 70.9273857,44.5541738 66.3044173,41.9156729" id="Fill-43" fill="#005999"></path>
                <path d="M66.7680442,41.8917206 C71.2992695,43.8671891 79.7300905,36.7656559 79.8167179,36.6913799 C79.8422968,36.6695741 79.8719684,36.6539012 79.9043684,36.6450426 L82.3207263,35.9782624 L80.9762968,34.8879727 C77.2472274,36.5741738 70.6973116,37.8143782 69.6584653,38.0044974 C68.9958,40.1455537 67.4637916,41.4092675 66.7680442,41.8917206 M68.5889242,42.7019421 C67.6769495,42.7019421 66.8764989,42.5067121 66.1906421,42.1148893 C66.11868,42.0740034 66.0746842,41.9973424 66.0750253,41.9145486 C66.0753663,41.8320954 66.1203853,41.7557751 66.1926884,41.71523 C66.2155389,41.7026235 68.4944526,40.4017717 69.2577284,37.7407836 C69.2819432,37.6562862 69.3522,37.5932538 69.4388274,37.5779216 C69.5135179,37.5649744 76.9600611,36.243339 80.9138842,34.4116525 C80.9926674,34.3751959 81.0864568,34.3864395 81.1553495,34.4416354 L82.9564484,35.9026235 C83.0229537,35.957138 83.0539895,36.0436797 83.0362547,36.1278365 C83.01852,36.2119932 82.9554253,36.2791141 82.8728905,36.3019421 L80.0748947,37.0740034 C79.7594211,37.3370358 77.6019221,39.1097785 74.9809326,40.5803066 C72.4629411,41.9932538 70.3245411,42.7019421 68.5889242,42.7019421" id="Fill-45" fill="#005999"></path>
                <path d="M75.0245874,37.8517206 C75.0245874,37.8517206 74.4318379,40.0742078 72.4001874,41.0183305 C72.4001874,41.0183305 75.2162589,40.1863032 77.0862505,37.3144123 L75.0245874,37.8517206 Z" id="Fill-47" fill="#FEFEFE"></path>
                <path d="M55.3884139,39.2045997 C55.3884139,39.2045997 56.0568771,42.2529813 53.8959676,42.613799 C53.8959676,42.613799 50.5638834,43.0792164 49.7726413,39.2955707 L47.6199171,37.7524702 L48.3255549,36.5463373 C48.3255549,36.5463373 50.7654455,38.9913118 55.3884139,39.2045997" id="Fill-49" fill="#005999"></path>
                <path d="M49.3347297,48.3979216 C49.3480176,48.3451107 49.3619869,48.2953663 49.373912,48.2418739" id="Fill-51" fill="#231F20"></path>
                <path d="M100.235164,9.10899489 C100.235164,9.10899489 105.051509,17.4149574 98.3501659,26.6323339 L98.2949154,26.6408518 C98.2949154,26.6408518 103.045437,18.4865077 100.235164,9.10899489" id="Fill-53" fill="#005999"></path>
                <path d="M101.129779,12.1210562 C101.819046,16.9834072 100.721539,21.2989097 99.7393074,23.9612606 C102.225922,19.1759114 101.839168,14.8328109 101.129779,12.1210562 M98.2946084,26.8702896 C98.2199179,26.8702896 98.1486379,26.8334923 98.1053242,26.77046 C98.0551895,26.6972061 98.0517789,26.6018058 98.0961158,26.5254855 C98.1431811,26.4447359 102.76308,18.3438842 100.014878,9.17488927 C99.9817958,9.0634753 100.037046,8.94456559 100.143796,8.89856899 C100.250886,8.85291312 100.375371,8.89311755 100.434032,8.99396934 C100.483143,9.07846678 105.247307,17.5360477 98.5360737,26.7670528 C98.4999221,26.8164566 98.4460358,26.849506 98.3856695,26.859046 L98.3304189,26.8675639 C98.3184821,26.8696082 98.3065453,26.8702896 98.2946084,26.8702896" id="Fill-55" fill="#005999"></path>
                <path d="M72.4653625,74.8950596 L71.4555057,76.683816 C71.4555057,76.683816 68.1217162,74.2517888 67.1991688,70.4681431 C67.1991688,70.4681431 71.0810299,75.0609881 72.4653625,74.8950596" id="Fill-57" fill="#FEFEFE"></path>
                <path d="M75.5661448,71.4777513 L76.6114712,70.9605451 C80.0533743,69.7326065 81.8224143,73.5431687 81.8224143,73.5431687 C79.0124817,78.5404429 72.6740185,78.0981942 72.6740185,78.0981942 C66.9327385,75.2583305 70.9387427,70.8688927 70.9387427,70.8688927 C70.9387427,70.8688927 73.2507385,69.1380579 75.1746164,71.5029642 L75.5661448,71.4777513 Z" id="Fill-59" fill="#FFD457"></path>
                <path d="M72.7537907,77.7931175 C73.3837149,77.8166269 78.8971718,77.9031687 81.4717781,73.5334923 C81.1239044,72.8779557 79.5291423,70.2585349 76.7321697,71.245247 L75.6476223,71.7815332 L75.0350918,71.8210562 L74.9348223,71.6973765 C73.3056139,69.6949915 71.3960602,70.9249744 71.1474328,71.0990801 C70.9666749,71.3089608 69.6041697,72.963816 69.9418118,74.7467802 C70.1689528,75.9450767 71.1146918,76.9699489 72.7537907,77.7931175 M73.0170834,78.4142419 C72.7913065,78.4142419 72.6613655,78.4064055 72.6521571,78.405724 L72.5914497,78.4016354 L72.5368813,78.3747189 C70.6781444,77.4551278 69.6004181,76.2718228 69.3343971,74.8571721 C68.9196771,72.6541056 70.6372181,70.7413288 70.7105444,70.6612606 L70.7535171,70.6220784 C70.7784139,70.603339 73.2438834,68.8036797 75.3103213,71.1849404 L75.4845992,71.1736968 L76.5077571,70.6701193 C78.0291928,70.1270187 79.4851465,70.4360477 80.7163465,71.563816 C81.6238876,72.3951618 82.0832855,73.3719932 82.1023844,73.4135605 L82.1688897,73.556661 L82.0914707,73.6943101 C79.6137234,78.1011244 74.4348392,78.4142419 73.0170834,78.4142419" id="Fill-61" fill="#005999"></path>
                <path d="M72.7724463,77.8077683 C72.7724463,77.8077683 73.5459537,71.5324702 77.9550821,70.8803407 L74.8187621,70.8721635 C74.8187621,70.8721635 72.1401347,72.2578535 72.7724463,77.8077683" id="Fill-63" fill="#005999"></path>
                <path d="M82.8398084,73.990017 L81.7747011,75.7521976 C81.7747011,75.7521976 79.4667979,74.0867802 78.6619137,70.2826917 C78.6619137,70.2826917 81.4544526,74.1136968 82.8398084,73.990017" id="Fill-65" fill="#FEFEFE"></path>
                <path d="M79.1721625,71.3162181 C79.9211141,73.6644293 81.2249583,74.9768654 81.7150509,75.4068484 L82.4592278,74.176184 C81.4081036,73.8910051 80.0091057,72.3451789 79.1721625,71.3162181 L79.1721625,71.3162181 Z M81.8422636,76.0841908 L81.6400194,75.9383646 C81.5428194,75.8681772 79.2509457,74.1768654 78.4371941,70.3298467 L78.8474804,70.1475639 C79.8979225,71.5884497 81.9067225,73.8494378 82.8193794,73.7615332 L83.270592,73.7213288 L81.8422636,76.0841908 Z" id="Fill-67" fill="#005999"></path>
                <path d="M79.9655192,62.6479387 C79.0542265,65.6513458 82.1189255,70.0244293 82.1189255,70.0244293 C77.7923318,66.8734923 77.0348539,63.3106303 77.0348539,63.3106303 C77.0348539,63.3106303 78.4024749,63.1627598 79.3901634,62.8578194 L79.9655192,62.6479387 Z" id="Fill-69" fill="#FEFEFE"></path>
                <path d="M64.9229154,64.1120954 C64.9229154,64.1120954 64.5405954,65.7311755 66.6864985,67.79523 C66.6864985,67.79523 65.9208354,65.6787053 66.7946122,65.0061329 L67.9869322,65.7809199 L68.7079175,64.8834753 L69.799968,65.7287905 L70.6195175,64.725724 L71.7432859,65.5052811 L72.4939427,64.506644 C72.4939427,64.506644 73.1627469,66.165247 75.6227596,67.348552 C75.6227596,67.348552 73.2261827,63.113799 74.9423596,63.1867121 L64.9229154,64.1120954 Z" id="Fill-71" fill="#FEFEFE"></path>
                <path d="M62.3579949,64.0502215 L58.9829381,63.9718569 C58.9829381,63.9718569 59.7110855,67.7411925 66.3486518,72.2229642 C66.3486518,72.2229642 61.4102097,66.0570358 62.3579949,64.0502215" id="Fill-73" fill="#FEFEFE"></path>
                <path d="M59.3518206,64.253356 C59.671728,65.1593186 60.9019048,67.8094037 65.0511512,70.9593186 C63.7176354,69.1078705 61.7156564,65.9916865 61.9949785,64.3146848 L59.3518206,64.253356 Z M66.1957238,72.4492675 C59.5411048,67.9555707 58.7454291,64.1821465 58.7147343,64.0237138 L58.6502754,63.6911755 L62.7841743,63.7872572 L62.6051217,64.1668143 C61.8872059,65.6867462 65.2179259,70.3746508 66.5620143,72.0526746 L66.1957238,72.4492675 Z" id="Fill-75" fill="#005999"></path>
                <path d="M54.0595023,41.1628961 C52.5121465,40.8657922 52.6850602,39.6559114 52.6850602,39.6559114 L52.6724413,39.6388756 L53.8579402,39.9925383 C53.8579402,39.9925383 53.8258813,40.5046337 54.0216455,41.092368 L54.0595023,41.1628961 Z" id="Fill-77" fill="#FEFEFE"></path>
                <path d="M69.1467499,40.1673595 C69.1467499,40.1673595 71.4287331,39.7878024 71.7220383,38.3782624 C71.7220383,38.3782624 71.033112,38.5687223 69.9683457,38.7322658 C69.9683457,38.7322658 69.8987709,39.5503237 69.1467499,40.1673595" id="Fill-79" fill="#FEFEFE"></path>
                <path d="M51.7983575,53.7427257 C51.7983575,53.7427257 50.3990185,51.5526065 53.4766775,51.7836116 C53.4766775,51.7836116 55.566648,51.9904259 56.059128,52.4115503 C56.059128,52.4115503 59.1299659,51.028586 61.7298101,51.9331857 C61.7298101,51.9331857 63.4013091,52.8163203 61.0463406,53.4817376 C61.0463406,53.4817376 60.1558522,52.4831005 59.5610564,53.2902555 C59.5610564,53.2902555 59.0958606,54.0078024 60.0528543,54.4016695 C60.0528543,54.4016695 59.1323533,56.4626576 58.3220122,56.7243271 C58.3220122,56.7243271 57.4311827,57.3989438 56.4653217,56.9021806 C56.4653217,56.9021806 55.9547659,57.4173424 55.2654985,57.3222828 C55.2654985,57.3222828 53.7693006,56.9021806 52.7706985,54.5996252 C52.7706985,54.5996252 53.2109975,53.0715162 51.7983575,53.7427257" id="Fill-81" fill="#005999"></path>
                <path d="M55.5216291,57.9502896 C55.5216291,57.9502896 56.9277891,61.6889608 59.7394269,63.7707325 C59.7394269,63.7707325 57.9795954,60.6235434 58.3745343,57.4412606 C58.3745343,57.4412606 57.7169848,58.1656218 56.7040585,57.6041227 C56.7040585,57.6041227 56.4550901,57.9990119 55.5216291,57.9502896" id="Fill-83" fill="#005999"></path>
                <path d="M51.411672,51.7067462 C51.411672,51.7067462 51.819912,51.0549574 52.7404131,51.1997615 L52.9133267,50.8501874 C54.7826362,47.6321295 55.059912,42.8052129 55.059912,42.8052129 C55.059912,42.8052129 53.8259836,43.9878365 51.9368931,42.9425213 C51.9368931,42.9425213 53.1653646,46.5650085 51.411672,51.7067462" id="Fill-85" fill="#005999"></path>
                <path d="M65.5240547,42.7806133 C65.5240547,42.7806133 67.12632,43.936661 69.8885053,43.2985009 C69.8885053,43.2985009 65.3139663,46.0961158 63.05688,51.8347871 C63.05688,51.8347871 62.7124168,50.7301874 60.6077811,50.7165588 C60.6077811,50.7165588 63.2591242,44.7632368 65.5240547,42.7806133" id="Fill-87" fill="#005999"></path>
                <path d="M59.4567284,63.8086542 L59.4222821,63.5013288 C59.4222821,63.5013288 51.7315453,62.9888927 49.4069305,58.2137649 C48.5710105,57.6648722 47.7078063,56.8570358 47.7078063,56.8570358 C47.7078063,56.8570358 50.5075074,57.3868484 51.6793642,57.7428961 L50.8263916,56.5667462 C50.8263916,56.5667462 49.98024,56.2822487 48.9147916,56.1275639 C48.5259916,55.8198978 47.3544758,54.7759455 47.3544758,54.7759455 C47.3544758,54.7759455 47.9086863,54.8580579 48.6798063,55.0096763 C49.5000379,55.1500511 50.3386863,55.3687905 51.4228926,55.7343782 L50.4979579,54.5364225 L48.5560042,53.9391482 C48.5560042,53.9391482 47.8152379,53.1272232 47.4622484,52.679523 C48.2504211,52.8427257 50.25888,53.3592504 50.8772084,53.6744123 L49.7063747,52.2955366 C49.7063747,52.2955366 49.4505853,52.1817376 48.7763242,52.007632 C48.9178611,50.8836116 49.1688758,49.6563543 49.5696126,48.2979216 C49.5696126,48.2979216 44.7894189,36.146644 50.6408589,35.3612947 C54.06912,36.6648722 56.0080042,36.2945145 56.0080042,36.2945145 C51.8761516,35.2389779 50.6067537,33.3963884 50.2169305,32.3088245 C50.0910821,30.0924702 50.4471411,27.4393186 52.8276884,27.1936627 C52.8276884,27.1936627 53.6230232,24.1599319 54.11448,23.5132538 L52.4521895,21.0362521 L51.3406989,21.2410221 L52.4191074,24.3623169 L51.6254779,26.6846337 C51.6254779,26.6846337 48.0703453,27.6478365 48.5768084,34.2532879 C48.5768084,34.2532879 43.8603916,39.3231346 48.3489853,47.9793526 C48.3489853,47.9793526 47.6815453,49.5647019 47.3681179,51.7476661 C47.3681179,51.7476661 46.9220211,54.6035434 47.6535789,57.1006474 C48.5785137,60.2195571 51.9617558,63.7112095 58.1238947,64.6621465" id="Fill-89" fill="#005999"></path>
                <path d="M81.3047646,27.431448 C81.3047646,27.431448 79.4508025,31.4140716 70.1526846,35.0522317 C70.1526846,35.0522317 75.4669667,34.7254855 81.8681836,30.8706303 C81.8681836,30.8706303 83.1307604,28.9329813 81.3047646,27.431448" id="Fill-91" fill="#005999"></path>
                <path d="M81.3760105,27.8879387 C80.7808737,28.8320613 78.6247389,31.5962862 72.4953411,34.3775468 C74.6183937,33.9053152 77.9637789,32.8749915 81.6587432,30.6606814 C81.8227895,30.3758433 82.4895474,29.0426235 81.3760105,27.8879387 M70.1523095,35.3400681 C70.0179347,35.3400681 69.9006126,35.2467121 69.8712821,35.1141738 C69.8409284,34.9758433 69.9152779,34.8358092 70.0476063,34.7840204 C79.0947095,31.2446678 81.0257495,27.3482453 81.0438253,27.309063 C81.0820232,27.2289949 81.1550084,27.1703918 81.2416358,27.150971 C81.3289453,27.1315503 81.4196653,27.153356 81.4878758,27.2092334 C83.4895137,28.85523 82.1235979,31.0058262 82.1096147,31.027632 C82.0860821,31.0640886 82.0540232,31.094753 82.0171895,31.1172402 C75.6289326,34.9639182 70.2242716,35.3359796 70.1703853,35.3393867 C70.1642463,35.3397274 70.1581074,35.3400681 70.1523095,35.3400681" id="Fill-93" fill="#005999"></path>
                <polygon id="Fill-95" fill="#FEFEFE" points="76.2149293 143.669847 73.5874598 154.391141 72.1311651 154.391141 65.8670514 179.542078 67.3257335 179.542078 63.363384 195.164566 46.7892493 195.164566 53.7978808 167.153322 36.2756198 189.329813 29.485944 167.153322 22.4759482 195.164566 6.12315663 195.164566 10.0080872 179.479727 13.4400998 179.479727 19.7001208 154.391141 16.2694724 154.391141 18.9723145 143.669847 35.3257882 143.669847 41.8259103 167.153322 60.2253587 143.669847"></polygon>
                <path d="M12.2465861,190.376491 L18.7337482,190.376491 L29.0222829,149.267121 L38.1826156,179.188416 L39.6651714,177.312095 L31.6787419,148.457922 L22.7076935,148.457922 L22.4191629,149.603066 L25.8341229,149.603066 L17.1846872,184.267462 L13.7594956,184.267462 L12.2465861,190.376491 Z M52.927344,190.376491 L59.6334619,190.376491 L61.1668345,184.330153 L59.7357777,184.330153 L68.3852135,149.603066 L69.8265019,149.603066 L70.1071882,148.457922 L62.5603756,148.457922 L50.1811882,164.257922 L58.4479629,168.31448 L52.927344,190.376491 Z M67.0933061,199.9523 L40.6508135,199.9523 L43.738704,187.612266 L34.3682829,199.470869 L29.9499461,185.039523 L26.2178072,199.9523 L6.82105263e-05,199.9523 L6.25701979,174.691652 L9.69585347,174.691652 L13.5661187,159.179216 L10.1201229,159.179216 L15.2372766,138.881772 L38.9731756,138.881772 L43.9116177,156.723339 L57.8903419,138.881772 L82.3226703,138.881772 L77.3484177,159.179216 L75.8774577,159.179216 L71.9983251,174.754003 L73.4842914,174.754003 L67.0933061,199.9523 Z" id="Fill-97" fill="#005999"></path>
                <path d="M113.998854,143.671823 L110.201915,158.845588 L97.7906691,158.845588 L98.8844248,154.393799 L90.8519533,154.393799 L88.4410522,164.022078 L97.8609259,164.022078 C102.679317,164.095673 108.228244,164.241158 108.228244,170.807428 C108.228244,172.777785 107.790332,174.597888 107.061844,177.661942 L105.09056,185.248654 C104.43301,187.727019 102.826993,190.427189 101.365583,191.81322 C97.8609259,195.17029 93.4064375,195.17029 90.0487743,195.17029 L67.4117469,195.17029 L71.2847406,179.560409 L84.5714691,179.560409 L83.3314017,184.445247 L91.3625091,184.445247 L93.993048,174.088518 L83.9872459,174.088518 C79.9737385,174.014923 74.2007406,174.014923 74.2007406,167.234344 C74.2007406,165.776422 74.4984796,164.388007 74.7890564,163.001295 L76.8350312,154.76109 C77.5607912,152.281704 79.0303869,150.30385 80.3376417,147.609131 C81.9075069,144.383237 80.8007912,143.742351 84.1598185,143.671823 L113.998854,143.671823 Z" id="Fill-99" fill="#FEFEFE"></path>
                <path d="M73.5374615,190.382453 L90.0488425,190.382453 C93.4951794,190.382453 96.0858152,190.236968 98.0485731,188.35724 C98.8698278,187.578365 100.022927,185.660818 100.457769,184.021976 L102.422914,176.453322 C103.075689,173.707836 103.435499,172.19506 103.435499,170.807325 C103.435499,169.586542 103.21552,169.490801 102.936198,169.369165 C101.799811,168.874446 99.5106657,168.835945 97.8241604,168.810051 L82.3014909,168.810051 L87.1103331,149.605622 L104.995474,149.605622 L103.901718,154.057751 L106.459613,154.057751 L107.860657,148.459796 L85.1994152,148.459796 C85.0490109,148.834923 84.8682531,149.249915 84.647592,149.702726 C84.1257815,150.778705 83.5858952,151.744293 83.1094446,152.596082 C82.3700425,153.918058 81.7824088,154.969165 81.4597731,156.021976 L79.4618867,164.069336 C79.2105309,165.267973 78.9932804,166.302726 78.9932804,167.234583 C78.9932804,168.553833 79.2599836,168.675809 79.4956509,168.783135 C80.487432,169.236627 82.3741352,169.270698 83.8904552,169.297956 L84.0306278,169.300681 L100.153891,169.300681 L95.0909646,189.23322 L77.1713773,189.23322 L78.4114446,184.348382 L75.0346825,184.348382 L73.5374615,190.382453 Z M90.0488425,199.958262 L61.2861688,199.958262 L67.5345941,174.772572 L71.8952931,174.772572 C70.5164173,173.137138 69.4079962,170.734412 69.4079962,167.234583 C69.4079962,165.309881 69.7650783,163.607325 70.0802109,162.105111 L70.1371667,161.848893 L72.2349815,153.417206 C72.8553562,151.298296 73.8143962,149.583475 74.7413773,147.925554 C75.1939541,147.116014 75.6216341,146.351448 76.0244173,145.520784 C76.3269309,144.900341 76.4746067,144.445826 76.6314909,143.964736 C77.7941394,140.396763 79.8766067,138.972572 84.0592762,138.884668 L84.1598867,138.883986 L120.137188,138.883986 L113.944354,163.63356 L110.773588,163.63356 C112.243525,165.511244 113.021125,167.948722 113.021125,170.807325 C113.021125,173.316354 112.515003,175.444804 111.748998,178.666269 L111.700569,178.864906 L109.729626,186.451959 C108.872219,189.682624 106.839887,193.223339 104.665676,195.28569 C99.7872594,199.958262 93.6912846,199.958262 90.0488425,199.958262 L90.0488425,199.958262 Z" id="Fill-101" fill="#005999"></path>
                <path d="M155.633571,143.63724 L153.004737,154.36092 L149.644345,154.36092 L142.782025,181.931959 C142.052173,184.705043 141.393941,187.69414 139.569309,190.103339 C136.135933,194.622249 131.682467,195.135026 128.615381,195.135026 L119.711861,195.135026 C114.380867,195.135026 108.830236,194.622249 108.830236,189.078807 C108.830236,187.110494 109.48608,184.705043 109.998682,182.950698 L111.970307,175.879148 L123.945347,175.879148 L121.755789,184.409983 L128.180198,184.409983 L135.700749,154.36092 L131.979183,154.36092 L134.675545,143.63724 L155.633571,143.63724 Z" id="Fill-103" fill="#FEFEFE"></path>
                <path d="M113.668443,189.549642 C113.989373,189.813015 115.199087,190.347257 119.711895,190.347257 L128.615415,190.347257 C131.083613,190.347257 133.655832,189.967019 135.751941,187.208245 C136.832737,185.780988 137.375352,183.688313 137.949344,181.4723 L138.137264,180.751687 L145.897575,149.572811 L149.244325,149.572811 L149.525352,148.425281 L138.413175,148.425281 L138.124645,149.572811 L141.83939,149.572811 L131.92192,189.198024 L115.57936,189.198024 L117.768577,180.667189 L115.610396,180.667189 L114.599516,184.292061 C114.307234,185.292743 113.622741,187.635503 113.622741,189.078773 C113.622741,189.341124 113.65139,189.48661 113.668443,189.549642 M128.615415,199.923066 L119.711895,199.923066 C116.601495,199.923066 113.331824,199.766678 110.491196,198.631073 C106.329331,196.967359 104.037457,193.574514 104.037457,189.078773 C104.037457,186.610971 104.719563,183.934991 105.389731,181.638228 L108.329946,171.091039 L126.573192,171.091039 L129.562177,159.14862 L125.833449,159.14862 L130.937984,138.849131 L161.741857,138.849131 L156.765217,159.14862 L153.391525,159.14862 L147.417306,183.149642 L147.228704,183.872641 C146.480434,186.760204 145.632577,190.033118 143.39152,192.992232 C138.125327,199.923066 130.967655,199.923066 128.615415,199.923066" id="Fill-105" fill="#005999"></path>
                <polygon id="Fill-107" fill="#FEFEFE" points="76.1922834 144.179591 73.5685655 154.904634 70.1351886 154.904634 63.8738034 180.053526 67.8115971 180.053526 63.8553865 195.67908 46.7683086 195.67908 53.7783044 167.670221 36.2563844 189.842624 29.4650034 167.670221 22.4550076 195.67908 6.09744126 195.67908 9.98578232 179.991175 13.4164307 179.991175 19.6808855 154.904634 16.2481907 154.904634 18.9503507 144.179591 35.3028013 144.179591 41.8042876 167.670221 60.2057823 144.179591"></polygon>
                <path d="M50.5397368,192.737513 L61.5625579,192.737513 L64.0293916,182.995094 L60.1069453,182.995094 L67.8331516,151.962726 L71.2566379,151.962726 L72.4414547,147.121158 L61.6406589,147.121158 L40.5230211,174.07925 L33.0618126,147.121158 L21.2457032,147.121158 L20.0257579,151.962726 L23.4502674,151.962726 L15.7168989,182.933083 L12.2903432,182.933083 L9.86034316,192.737513 L20.1556989,192.737513 L29.1792695,156.68402 L37.4279684,183.613152 L51.4674,165.847564 L56.6350295,168.38385 L50.5397368,192.737513 Z M66.1483516,198.620988 L42.9966758,198.620988 L47.5971347,180.239727 L35.0852779,196.072436 L29.7508737,178.656763 L24.7541116,198.620988 L2.33433474,198.620988 L7.68135789,177.049608 L11.1157579,177.049608 L15.9112989,157.846201 L12.47076,157.846201 L16.6547937,141.238024 L37.5442674,141.238024 L43.0856905,161.261193 L58.7710421,141.238024 L79.9432484,141.238024 L75.8802884,157.846201 L72.4373621,157.846201 L67.6407979,177.111959 L71.5935979,177.111959 L66.1483516,198.620988 Z" id="Fill-109" fill="#FEFEFE"></path>
                <path d="M113.975867,144.181908 L110.177223,159.358058 L97.7673411,159.358058 L98.8607558,154.904566 L90.8282842,154.904566 L88.4211347,164.533186 L97.8430547,164.533186 C102.660082,164.605758 108.209349,164.753288 108.209349,171.31615 C108.209349,173.287871 107.769051,175.112061 107.038516,178.175434 L105.065185,185.760784 C104.412411,188.239148 102.804347,190.939659 101.344301,192.324327 C97.8430547,195.680375 93.3834505,195.680375 90.0291979,195.680375 L68.2451432,195.680375 L72.1157495,180.072538 L84.5529158,180.072538 L83.3104611,184.957376 L91.3412274,184.957376 L93.9704021,174.598944 L83.9700568,174.598944 C79.9527979,174.527053 74.1852568,174.527053 74.1852568,167.742726 C74.1852568,166.285145 74.4809495,164.900136 74.7687979,163.511721 L76.8110211,155.269472 C77.5398505,152.792129 78.2737958,150.311721 80.3190884,148.121261 C83.8193116,144.327394 88.1288526,144.255503 91.4875389,144.181908 L113.975867,144.181908 Z" id="Fill-111" fill="#FEFEFE"></path>
                <path d="M92.1917785,161.591687 L94.1869364,161.591687 L95.1064143,157.846201 L93.127968,157.846201 L92.1917785,161.591687 Z M87.0971343,182.015537 L89.0500017,182.015537 L90.1857069,177.54092 L88.2345448,177.54092 L87.0971343,182.015537 Z M72.0082838,192.738876 L90.0291638,192.738876 C93.1368354,192.738876 96.6588859,192.738876 99.3054543,190.201908 C100.323837,189.23632 101.683614,187.038365 102.217362,185.012129 L104.198195,177.392368 C104.885757,174.508893 105.264667,172.920477 105.264667,171.316048 C105.264667,168.430528 104.286869,167.574651 97.8211933,167.475162 L84.6507638,167.475162 L88.5285322,151.962726 L102.615029,151.962726 L101.521273,156.416559 L107.878153,156.416559 L110.204132,147.123543 L91.4919385,147.124225 C88.3569827,147.192709 85.1149364,147.263578 82.4843975,150.114685 C80.9104396,151.801227 80.3228059,153.765451 79.6543427,156.037683 L77.6288312,164.221329 C77.3723596,165.458126 77.1298712,166.626099 77.1298712,167.742964 C77.1298712,170.862896 78.3218501,171.557615 83.8431512,171.654719 L83.9956017,171.657445 L97.7550291,171.657445 L93.6323848,187.899012 L79.5237196,187.899012 L80.7661743,183.014174 L74.4198669,183.014174 L72.0082838,192.738876 Z M90.0291638,198.622351 L64.4819343,198.622351 L69.8115638,177.130698 L78.7993238,177.130698 C77.9385069,176.955571 77.0811006,176.700034 76.2601869,176.324225 C73.9700185,175.277547 71.2405743,172.938876 71.2405743,167.742964 C71.2405743,166.023032 71.5707133,164.43121 71.8623133,163.027121 L71.9104017,162.805315 L73.9857069,154.440068 C74.7609196,151.806337 75.6387891,148.821329 78.1659891,146.114685 C82.4820101,141.43632 87.8263048,141.319455 91.3630206,141.242112 L91.4878459,141.240409 L117.747534,141.240409 L112.476566,162.299693 L104.620077,162.299693 C105.094823,162.435639 105.559677,162.598501 106.009185,162.794072 C108.356309,163.815877 111.153964,166.124225 111.153964,171.316048 C111.153964,173.611448 110.665917,175.658126 109.927197,178.755911 L109.888659,178.915366 L107.915328,186.500716 C107.148301,189.413152 105.322987,192.6077 103.371484,194.458126 C99.0274964,198.622351 93.6122627,198.622351 90.0291638,198.622351 L90.0291638,198.622351 Z" id="Fill-113" fill="#FEFEFE"></path>
                <path d="M155.609595,144.148961 L152.982466,154.870256 L149.625485,154.870256 L142.760778,182.44402 C142.030925,185.217104 141.376786,188.206542 139.546698,190.612675 C136.11639,195.135332 131.661902,195.648109 128.592769,195.648109 L119.686521,195.648109 C114.357573,195.648109 108.808988,195.135332 108.808988,189.590528 C108.808988,187.624259 109.234281,185.503646 110.230837,181.316593 L111.54423,176.317274 L124.812201,176.299898 L121.731813,184.924429 L128.161338,184.924429 L135.679161,154.870256 L131.950432,154.870256 L134.655662,144.148961 L155.609595,144.148961 Z" id="Fill-115" fill="#FEFEFE"></path>
                <path d="M113.087937,182.029949 C112.165389,185.907632 111.753739,187.922624 111.753739,189.590426 C111.753739,190.978842 111.753739,192.70661 119.686623,192.70661 L128.592872,192.70661 C131.397347,192.70661 134.612792,192.246644 137.199676,188.836082 C138.508636,187.115128 139.093541,184.855843 139.712893,182.46368 L139.906952,181.719557 L147.323482,151.928416 L150.671596,151.928416 L151.857095,147.090596 L136.950025,147.090596 L135.729398,151.928416 L139.450282,151.928416 L130.460476,187.866065 L117.554703,187.866065 L120.633044,179.247325 L113.816766,179.255843 L113.087937,182.029949 Z M128.592872,198.590085 L119.686623,198.590085 C116.761756,198.590085 113.704219,198.44937 111.154851,197.429608 C107.743301,196.064702 105.864442,193.280716 105.864442,189.590426 C105.864442,187.327734 106.327933,184.999284 107.366097,180.636082 L107.382467,180.569983 L109.271899,173.378501 L128.020244,173.353969 L131.907903,157.811891 L128.171672,157.811891 L132.361162,141.207462 L159.362299,141.207462 L155.2932,157.811891 L151.927693,157.811891 L145.608669,183.192129 L145.414611,183.937615 C144.71136,186.653799 143.913979,189.732845 141.891537,192.392129 C137.190467,198.590085 130.719335,198.590085 128.592872,198.590085 L128.592872,198.590085 Z" id="Fill-117" fill="#FEFEFE"></path>
                <polygon id="Fill-119" fill="#005999" points="76.1922834 144.179591 73.5658371 154.904634 70.1351886 154.904634 63.8703928 180.053526 67.8092097 180.053526 63.851976 195.67908 46.7676265 195.67908 53.7769402 167.670221 36.2543381 189.842624 29.4629571 167.670221 22.4522792 195.67908 6.09403074 195.67908 9.98510021 179.991175 13.4133613 179.991175 19.6788392 154.904634 16.2468265 154.904634 18.9483044 144.179591 35.3014371 144.179591 41.8036055 167.670221 60.2033949 144.179591"></polygon>
                <path d="M48.3388901,194.453424 L62.8970627,194.453424 L66.2332396,181.279319 L62.3009027,181.279319 L69.1765238,153.678637 L72.6030796,153.678637 L74.6289322,145.405383 L60.8012943,145.405383 L41.2695512,170.340647 L34.3680101,145.405383 L19.9049912,145.405383 L17.8211596,153.678637 L21.2494206,153.678637 L14.3717533,181.216968 L10.9448564,181.216968 L7.66188379,194.453424 L21.4942964,194.453424 L29.3443048,163.092947 L36.7424185,187.247291 L52.8141827,166.910664 L54.9675891,167.967905 L48.3388901,194.453424 Z M64.8072985,196.904872 L45.1960901,196.904872 L51.2020269,172.907257 L35.7666669,192.438433 L29.5820185,172.247632 L23.4099891,196.904872 L4.52590484,196.904872 L9.02541221,178.76552 L12.4546964,178.76552 L18.1079848,156.130085 L14.6729027,156.130085 L17.9920269,142.953935 L36.2352733,142.953935 L42.3373869,164.999932 L59.6055638,142.953935 L77.7557027,142.953935 L74.5286627,156.130085 L71.0942627,156.130085 L65.4402922,178.827871 L69.385248,178.827871 L64.8072985,196.904872 Z" id="Fill-121" fill="#005999"></path>
                <path d="M113.972184,144.181908 L110.177291,159.358058 L97.7650219,159.358058 L98.8604829,154.904566 L90.8266472,154.904566 L88.4212029,164.533186 L97.8397124,164.533186 C102.659468,164.605758 108.208736,164.753288 108.208736,171.31615 C108.208736,173.287871 107.767072,175.112061 107.037902,178.175434 L105.064912,185.760784 C104.40975,188.239148 102.801005,190.939659 101.342664,192.324327 C97.8397124,195.680375 93.3824956,195.680375 90.0255145,195.680375 L68.2445293,195.680375 L72.1137714,180.072538 L84.5485503,180.072538 L83.3091651,184.957376 L91.3412956,184.957376 L93.9653545,174.598944 L83.9677377,174.598944 C79.9511608,174.527053 74.1853251,174.527053 74.1853251,167.742726 C74.1853251,166.285145 74.4755608,164.900136 74.7661377,163.511721 L76.8104072,155.269472 C77.5375314,152.792129 78.2701124,150.311721 80.3160872,148.121261 C83.8186977,144.327394 88.1272156,144.255503 91.4869251,144.181908 L113.972184,144.181908 Z" id="Fill-123" fill="#005999"></path>
                <path d="M69.8122118,194.454753 L90.0257192,194.454753 C93.2872055,194.454753 97.3464139,194.454753 100.493307,191.439421 C101.866043,190.136525 103.31961,187.562419 103.878595,185.447598 L105.877845,177.751175 C106.566431,174.859182 106.981492,173.113697 106.981492,171.316082 C106.981492,166.273833 103.354738,165.842147 97.8215002,165.758671 L86.8505192,165.759012 L89.8681528,153.678603 L100.425778,153.678603 L99.3303171,158.132436 L109.219138,158.132436 L112.401159,145.407734 L91.4537065,145.408756 C88.1223044,145.48167 84.3461697,145.564123 81.2180349,148.952198 C79.3654371,150.935843 78.697656,153.19615 77.9950876,155.589336 L75.9624139,163.784566 C75.677976,165.144702 75.412296,166.422044 75.412296,167.742998 C75.412296,172.82954 78.8930792,173.283714 83.8107171,173.370256 L83.9897697,173.373663 L95.5412223,173.373322 L92.2964476,186.183203 L81.7323423,186.183203 L82.9717276,181.298365 L73.0736981,181.298365 L69.8122118,194.454753 Z M90.0257192,196.906201 L66.6769149,196.906201 L71.1535718,178.846576 L86.1251002,178.846576 L84.8857149,183.731414 L90.3858707,183.731414 L92.3892139,175.82477 L83.7677444,175.821704 C79.7245655,175.750494 72.9584223,175.631244 72.9584223,167.742998 C72.9584223,166.161397 73.2660518,164.69155 73.5634497,163.269744 L73.5750455,163.216934 L75.6329571,154.9246 C76.3873655,152.353901 77.1676939,149.695298 79.4189823,147.285077 C83.2493444,143.135843 87.9603044,143.032947 91.4001613,142.957649 L91.4601865,142.956627 L115.543277,142.956286 L111.135513,160.583884 L96.200136,160.583884 L97.2955971,156.130392 L91.7852097,156.130392 L89.9919549,163.307564 L97.8399171,163.307564 C102.468683,163.37707 109.435707,163.48201 109.435707,171.316082 C109.435707,173.401261 108.995067,175.252027 108.264873,178.318467 L108.23145,178.458842 L106.252321,186.069063 C105.569193,188.65339 103.898035,191.588995 102.187997,193.212845 C98.3330792,196.906201 93.5317402,196.906201 90.0257192,196.906201 L90.0257192,196.906201 Z" id="Fill-125" fill="#005999"></path>
                <path d="M155.607582,144.148961 L152.9825,154.870256 L149.623132,154.870256 L142.758765,182.44402 C142.030618,185.217104 141.373069,188.206542 139.546732,190.612675 C136.115742,195.135332 131.659208,195.648109 128.592803,195.648109 L119.686555,195.648109 C114.357608,195.648109 108.809022,195.135332 108.809022,189.590528 C108.809022,187.624259 109.229881,185.503646 110.228824,181.316593 L111.5429,176.317274 L123.919018,176.389847 L121.728096,184.924429 L128.159667,184.924429 L135.67749,154.870256 L131.949784,154.870256 L134.652627,144.148961 L155.607582,144.148961 Z" id="Fill-127" fill="#005999"></path>
                <path d="M112.487752,177.548722 L111.415483,181.628109 C110.463605,185.618228 110.036266,187.725213 110.036266,189.59063 C110.036266,193.631857 113.574687,194.422317 119.68635,194.422317 L128.59294,194.422317 C131.630355,194.422317 135.509146,193.905451 138.56907,189.872402 C140.087437,187.871721 140.744986,185.327939 141.381049,182.867632 L141.572039,182.132709 L148.663887,153.644463 L152.019504,153.644463 L154.044333,145.374617 L135.608733,145.374617 L133.52422,153.644463 L137.249197,153.644463 L129.11782,186.150085 L120.146771,186.150085 L122.340081,177.606303 L112.487752,177.548722 Z M128.59294,196.874106 L119.68635,196.874106 C115.757765,196.874106 107.582051,196.874106 107.582051,189.59063 C107.582051,187.478876 108.030536,185.243441 109.035618,181.032538 L110.59798,175.08569 L125.497887,175.173254 L123.309352,183.698637 L127.201445,183.698637 L134.106397,156.095911 L130.375281,156.095911 L133.696451,142.923169 L157.171104,142.923169 L153.945428,156.095911 L150.582308,156.095911 L143.949517,182.739523 L143.757163,183.480579 C143.060392,186.174957 142.340089,188.960988 140.524666,191.353492 C136.770018,196.301704 131.916839,196.874106 128.59294,196.874106 L128.59294,196.874106 Z" id="Fill-129" fill="#005999"></path>
                <polygon id="Fill-131" fill="#FFD457" points="76.1922834 144.179591 73.5658371 154.904634 70.1328013 154.904634 63.8690286 180.053526 67.8092097 180.053526 63.8506118 195.67908 46.7655802 195.67908 53.7762581 167.670221 36.2539971 189.842624 29.4619339 167.670221 22.451256 195.67908 6.09403074 195.67908 9.98168968 179.991175 13.4126792 179.991175 19.6774749 154.904634 16.2468265 154.904634 18.9462581 144.179591 35.3014371 144.179591 41.8012181 167.670221 60.2027128 144.179591"></polygon>
                <path d="M113.972184,144.181908 L110.177291,159.358058 L97.7650219,159.358058 L98.8604829,154.904566 L90.8266472,154.904566 L88.4212029,164.533186 L97.8397124,164.533186 C102.659468,164.605758 108.208736,164.753288 108.208736,171.31615 C108.208736,173.287871 107.767072,175.112061 107.037902,178.175434 L105.064912,185.760784 C104.40975,188.239148 102.801005,190.939659 101.342664,192.324327 C97.8397124,195.680375 93.3824956,195.680375 90.0241503,195.680375 L68.2445293,195.680375 L72.1089966,180.072538 L84.5485503,180.072538 L83.3091651,184.957376 L91.3412956,184.957376 L93.9653545,174.598944 L83.9663735,174.598944 C79.9511608,174.527053 74.1822556,174.527053 74.1822556,167.742726 C74.1822556,166.285145 74.4728324,164.900136 74.7661377,163.511721 L76.8104072,155.269472 C77.5375314,152.792129 78.2701124,150.311721 80.3160872,148.121261 C83.8186977,144.327394 88.1238051,144.255503 91.4869251,144.181908 L113.972184,144.181908 Z" id="Fill-133" fill="#FFD457"></path>
                <path d="M155.607582,144.148961 L152.9825,154.870256 L149.623132,154.870256 L142.758765,182.44402 C142.030618,185.217104 141.373069,188.206542 139.546732,190.612675 C136.115742,195.135332 131.659208,195.648109 128.592803,195.648109 L119.686555,195.648109 C114.357608,195.648109 108.809022,195.135332 108.809022,189.590528 C108.809022,187.624259 109.229881,185.503646 110.228824,181.316593 L111.5429,176.317274 L123.951077,176.32477 L121.728096,184.924429 L128.159667,184.924429 L135.67749,154.870256 L131.949784,154.870256 L134.652627,144.148961 L155.607582,144.148961 Z" id="Fill-135" fill="#FFD457"></path>
                <path d="M26.9648147,125.444225 C31.5008147,121.035026 36.5623768,124.15598 36.5623768,124.15598 C42.1246042,120.39925 45.6360821,124.229915 45.6360821,124.229915 C51.8159558,116.416286 56.5613621,122.905554 56.5613621,122.905554 C66.0542211,136.877615 49.2089495,136.522249 49.2089495,136.522249 C44.1081663,139.501465 38.3273242,137.628893 38.3273242,137.628893 C36.2172316,139.762794 29.1444821,138.129744 29.1444821,138.129744 C21.3923558,141.154957 20.2334589,137.222078 20.2334589,137.222078 C15.1398379,125.198228 26.9648147,125.444225 26.9648147,125.444225" id="Fill-137" fill="#FFD457"></path>
                <path d="M47.5079154,121.956559 C43.1663154,125.083646 44.9449048,131.913629 44.9449048,131.913629 C42.5043322,125.711584 44.5891869,123.094208 44.5891869,123.094208 L47.5079154,121.956559 Z" id="Fill-139" fill="#005999"></path>
                <path d="M44.7368627,123.283135 C44.5301848,123.59523 43.4224459,125.508688 44.3818269,129.418058 C44.2890606,127.40477 44.5677006,124.616354 46.3940375,122.637138 L44.7368627,123.283135 Z M44.9449048,132.143101 C44.8531617,132.143101 44.7668754,132.087223 44.7310648,131.997274 C42.2707112,125.744463 44.3211196,123.062692 44.4097933,122.951278 C44.4346901,122.919932 44.4681133,122.8954 44.5056291,122.880409 L47.4243575,121.74276 C47.531448,121.700852 47.654568,121.745486 47.7098185,121.847019 C47.7650691,121.948552 47.7360796,122.074957 47.6422901,122.14276 C43.4763322,125.143101 45.1498775,131.789097 45.1672712,131.855537 C45.1979659,131.973083 45.1314606,132.094037 45.0158438,132.131857 C44.9926522,132.139353 44.9687785,132.143101 44.9449048,132.143101 L44.9449048,132.143101 Z" id="Fill-141" fill="#005999"></path>
                <path d="M38.4986349,122.575571 C34.1556707,125.706065 35.9352834,132.533322 35.9352834,132.533322 C33.4981213,126.335366 35.5799065,123.712538 35.5799065,123.712538 L38.4986349,122.575571 Z" id="Fill-143" fill="#005999"></path>
                <path d="M35.7279234,123.901363 C35.5212455,124.21448 34.416576,126.128961 35.3715234,130.032198 C35.2794392,128.019591 35.5597844,125.234242 37.3857802,123.255366 L35.7279234,123.901363 Z M35.9352834,132.763032 C35.8435402,132.763032 35.7569128,132.707155 35.7214434,132.617206 C33.2641592,126.368143 35.3114981,123.681261 35.4001718,123.570187 C35.4254097,123.538501 35.4588328,123.513629 35.4963486,123.498978 L38.4150771,122.36167 C38.5221676,122.319761 38.6452876,122.364395 38.7005381,122.465928 C38.7557886,122.567462 38.7267992,122.694208 38.6330097,122.76167 C34.4656876,125.765758 36.140256,132.409029 36.1576497,132.475468 C36.1883444,132.593015 36.1218392,132.713969 36.0062223,132.751789 C35.9830307,132.759284 35.9591571,132.763032 35.9352834,132.763032 L35.9352834,132.763032 Z" id="Fill-145" fill="#005999"></path>
                <path d="M29.0634139,123.365315 C25.3817507,126.017785 26.8915907,131.805179 26.8915907,131.805179 C24.8234476,126.551687 26.5890771,124.327836 26.5890771,124.327836 L29.0634139,123.365315 Z" id="Fill-147" fill="#005999"></path>
                <path d="M26.7373326,124.516218 C26.5599853,124.789131 25.7213368,126.28385 26.3567179,129.281465 C26.3529663,129.052504 26.3560358,128.814003 26.3676316,128.56937 C26.4546,126.696797 27.0132442,125.15029 27.9978632,124.026269 L26.7373326,124.516218 Z M26.8914884,132.034787 C26.7997453,132.034787 26.7134589,131.97925 26.6776484,131.889302 C24.5852905,126.573458 26.3335263,124.280443 26.40924,124.185383 C26.4344779,124.153697 26.4679011,124.128825 26.5057579,124.114174 L28.9800947,123.151652 C29.0871853,123.110085 29.2099642,123.154037 29.2652147,123.255571 C29.3204653,123.357445 29.2914758,123.48385 29.1976863,123.551312 C25.6841621,126.082828 27.0991895,131.691346 27.1138547,131.747564 C27.1442084,131.86477 27.0780442,131.986065 26.9624274,132.023543 C26.9392358,132.03138 26.9150211,132.034787 26.8914884,132.034787 L26.8914884,132.034787 Z" id="Fill-149" fill="#005999"></path>
                <path d="M21.9586055,125.999864 C19.1650434,128.013492 20.3109802,132.398501 20.3109802,132.398501 C18.7431613,128.416218 20.0824749,126.731721 20.0824749,126.731721 L21.9586055,125.999864 Z" id="Fill-151" fill="#005999"></path>
                <path d="M20.2316855,126.919864 C20.1003802,127.128382 19.6014202,128.062964 19.8541402,129.873186 C19.911096,128.814583 20.1835971,127.611175 20.960856,126.635366 L20.2316855,126.919864 Z M20.3108097,132.627871 C20.2190665,132.627871 20.1327802,132.572334 20.0969697,132.482385 C18.4994792,128.423782 19.8445907,126.662283 19.9025697,126.589029 C19.9278076,126.557683 19.9612307,126.532811 19.9987465,126.51816 L21.8748771,125.786303 C21.9823086,125.744736 22.1050876,125.789029 22.1599971,125.890221 C22.2155886,125.991414 22.1865992,126.11816 22.0928097,126.185963 C19.4612476,128.082726 20.5222623,132.298399 20.533176,132.340647 C20.5638707,132.458194 20.4973655,132.579148 20.3817486,132.616627 C20.358216,132.624123 20.3346834,132.627871 20.3108097,132.627871 L20.3108097,132.627871 Z" id="Fill-153" fill="#005999"></path>
                <path d="M23.5059954,132.675094 C22.5513891,135.366746 24.7576585,137.951414 24.7576585,137.951414 C20.846808,136.309165 21.6953469,132.51598 21.6953469,132.51598 C21.6953469,132.51598 21.8934985,131.156865 22.8774354,131.065894 C22.8774354,131.065894 24.0397427,131.167768 23.5059954,132.675094" id="Fill-155" fill="#005999"></path>
                <path d="M31.399488,131.45431 C30.3200564,134.498262 32.8138333,137.418876 32.8138333,137.418876 C28.3941322,135.559591 29.351808,131.279523 29.351808,131.279523 C29.351808,131.279523 29.5789491,129.741874 30.6914627,129.640341 C30.6914627,129.640341 32.002128,129.751414 31.399488,131.45431" id="Fill-157" fill="#005999"></path>
                <path d="M39.7705907,130.428518 C38.5434834,133.883714 41.3796771,137.20569 41.3796771,137.20569 C36.3542665,135.093254 37.4418834,130.222385 37.4418834,130.222385 C37.4418834,130.222385 37.7007423,128.472811 38.9657065,128.356286 C38.9657065,128.356286 40.4578118,128.488143 39.7705907,130.428518" id="Fill-159" fill="#005999"></path>
                <path d="M48.7382286,128.805792 C47.4988434,132.299148 50.3640265,135.651789 50.3640265,135.651789 C45.286776,133.516865 46.3876939,128.599319 46.3876939,128.599319 C46.3876939,128.599319 46.6465528,126.832709 47.9261823,126.717547 C47.9261823,126.717547 49.4309065,126.845656 48.7382286,128.805792" id="Fill-161" fill="#005999"></path>
                <path d="M68.695128,46.6991823 L68.4083027,47.2698807 C73.5159069,47.4460307 76.8677722,48.3124702 79.0542606,49.4828279 C73.0203575,49.6119591 68.0113175,51.4317206 68.0113175,51.4317206 L67.3762775,52.5400681 C71.6793385,50.7932198 76.5519575,50.418092 80.6418606,50.5315503 C80.9569933,50.5111073 84.4193596,50.6143441 84.4193596,50.6143441 L81.7710859,51.5874276 C81.7710859,51.5874276 81.8222438,51.5700511 81.6718396,51.5969676 C74.9234312,51.2368313 68.6811448,53.4545486 68.6811448,53.4545486 L68.2565343,54.2964566 C73.7536206,52.6691993 78.5423406,52.4330835 82.3750901,52.7642589 C83.0179743,52.7823169 86.0315154,52.9870869 86.0315154,52.9870869 L82.3061975,54.3693697 C82.3061975,54.3693697 82.2338943,54.3741397 82.2008122,54.3693697 C74.9599238,53.2967973 68.1477385,55.5611925 68.1477385,55.5611925 L67.5099701,56.6378535 C73.6192459,55.1823169 78.8516754,55.2579557 82.8573385,55.8242249 C83.106648,55.8422828 86.6859954,56.3032709 86.6859954,56.3032709 L83.6632459,57.0835094 L82.3416669,57.3816354 C81.830088,64.1959455 58.8758817,63.5012266 58.8758817,63.5012266 C65.3749806,65.5748211 77.7111954,62.9179216 83.4644122,61.5850426 C85.3845385,61.1421124 86.6082354,60.832402 86.6082354,60.832402 C89.7053343,43.3250767 68.695128,46.6991823 68.695128,46.6991823" id="Fill-163" fill="#005999"></path>
            </g>
        </g>
    </g>
</svg>