<?xml version="1.0" encoding="UTF-8"?>
<svg width="200px" height="200px" viewBox="0 0 200 200" version="1.1" xmlns="http://www.w3.org/2000/svg" xmlns:xlink="http://www.w3.org/1999/xlink">
    <title>nazareth_BGD</title>
    <defs>
        <polygon id="path-1" points="0 0 200 0 200 175.026254 0 175.026254"></polygon>
    </defs>
    <g id="nazareth_BGD" stroke="none" stroke-width="1" fill="none" fill-rule="evenodd">
        <g id="nazareth-copy" transform="translate(0.000000, 12.000000)">
            <g id="Group-3">
                <mask id="mask-2" fill="white">
                    <use xlink:href="#path-1"></use>
                </mask>
                <g id="Clip-2"></g>
                <path d="M200,13.5020253 L148.564785,13.5020253 C110.257039,13.5020253 100.106016,0.160024004 99.9849977,0 C99.8634795,0.160024004 89.7144572,13.5020253 51.4037106,13.5020253 L-0.0300045007,13.5020253 L-0.0300045007,32.0373056 L2.53037956,31.9282892 L2.51987798,42.2938441 L-0.0300045007,42.7929189 L-0.0300045007,61.7157574 L2.50637596,61.0096514 C2.68490274,60.960144 10.1195179,58.9203381 22.473371,56.5279792 L22.473371,79.0118518 C31.500225,76.2584388 40.6395959,74.0061009 49.8489773,72.2368355 C50.6185928,76.8110217 51.8727809,81.1096664 53.4835225,85.1407711 C51.160174,87.6856528 49.0113517,90.4415662 47.053058,93.4165125 L44.2076311,97.7371606 L51.3672051,95.9208881 L49.7379607,98.2912437 C49.5099265,98.6247937 44.1156173,106.615492 40.7286093,119.306896 L39.2578887,124.817223 L44.2381357,121.161174 C42.2088313,126.588488 39.6729509,134.53318 38.9158374,141.992299 L38.4757714,146.328949 L43.6175426,142.760914 C43.3319998,143.9971 43.0749612,145.282292 42.9279392,146.419963 L42.6018903,148.972346 L45.1582737,148.6693 C45.1702755,148.6678 46.3554533,148.53028 48.4567685,148.53028 C51.8092714,148.53028 57.2420863,148.870831 64.0876131,150.495074 C82.3153473,154.819723 98.3082462,173.088963 98.4672701,173.272991 L99.9859979,175.026254 L101.503225,173.272491 C101.662249,173.088463 117.626144,154.826224 135.882382,150.495074 C142.727909,148.870831 148.161224,148.53028 151.513227,148.53028 C153.615042,148.53028 154.79972,148.6678 154.808221,148.6688 L157.372606,148.981347 L157.041556,146.419963 C156.894534,145.282292 156.638496,143.9971 156.352453,142.760914 L161.494224,146.328949 L161.054158,141.992299 C160.297045,134.53318 157.760664,126.588488 155.73186,121.161174 L160.712607,124.817223 L159.241386,119.306896 C155.852878,106.611492 150.460569,98.6247937 150.228534,98.2852428 L148.60279,95.9208881 L155.762864,97.7371606 L152.917438,93.4165125 C150.958644,90.4415662 148.810322,87.6856528 146.486473,85.1407711 C148.097215,81.1096664 149.351403,76.8110217 150.121018,72.2368355 C159.3304,74.0061009 168.46977,76.2584388 177.496624,79.0118518 L177.496624,56.5624844 C189.842476,58.9408411 197.289093,60.9621443 197.46862,61.0116517 L200,61.7082562 L200,42.7929189 L197.450118,42.2938441 L197.439616,31.9282892 L200,32.0373056 L200,13.5020253" id="Fill-1" fill="#C9A069" mask="url(#mask-2)"></path>
            </g>
            <path d="M151.172676,115.325299 L157.302095,119.824474 C153.984098,107.394109 148.637796,99.5149272 148.574786,99.4219133 L143.927589,92.6648997 L151.240686,94.520178 C149.109366,91.2831925 146.750013,88.3157474 144.178627,85.6073411 C146.056909,81.1566735 147.383608,76.5719858 148.163224,71.8637796 C116.316447,65.9928989 83.653048,65.9928989 51.806771,71.8642796 C52.5858879,76.5724859 53.913087,81.1571736 55.7908686,85.6078412 C53.219983,88.3157474 50.8606291,91.2831925 48.7293094,94.520178 L56.0424064,92.6648997 L51.3952093,99.4219133 C51.3321998,99.5149272 45.9853978,107.394109 42.6679002,119.824474 L48.7973196,115.325299 C48.7973196,115.325299 42.186828,129.634445 40.9126369,142.195329 L46.9870481,137.979697 C46.9870481,137.979697 45.373306,143.154473 44.9187378,146.677002 C44.9187378,146.677002 52.693404,145.729359 64.5511827,148.542281 C83.6490474,153.073961 99.9849977,171.959794 99.9849977,171.959794 C99.9849977,171.959794 116.320948,153.073961 135.418813,148.542281 C147.276591,145.729359 155.051258,146.677002 155.051258,146.677002 C154.59669,143.154473 152.982447,137.979697 152.982447,137.979697 L159.057359,142.195329 C157.782667,129.634445 151.172676,115.325299 151.172676,115.325299" id="Fill-4" fill="#40314C"></path>
            <path d="M197.9997,15.5023253 L148.564785,15.5023253 C117.284093,15.5023253 104.162624,6.65099765 99.9844977,2.86793019 C95.8058709,6.65099765 82.6839026,15.5023253 51.4037106,15.5023253 L1.97029554,15.5023253 L1.97029554,29.9499925 L4.5326799,29.8404761 L4.5186778,43.9405911 L1.97029554,44.4396659 L1.97029554,59.0828624 C1.97029554,59.0828624 46.8520278,46.8815322 99.9849977,46.8815322 C153.117968,46.8815322 197.9997,59.0828624 197.9997,59.0828624 L197.9997,44.4396659 L195.451318,43.9405911 L195.437316,29.8404761 L197.9997,29.9499925 L197.9997,15.5023253" id="Fill-5" fill="#40314C"></path>
            <path d="M5.97089563,47.7326599 C6.81852278,47.566635 7.66715007,47.4026104 8.51577737,47.2410862 C8.52327849,40.0490074 8.53027954,32.8574286 8.53778067,25.6653498 C7.68215232,25.7013552 6.82652398,25.7378607 5.97089563,25.7743662 C5.97089563,23.6840526 5.97089563,21.5937391 5.97089563,19.5029254 C8.77031555,19.5029254 11.5697355,19.5029254 14.3691554,19.5029254 C16.7540131,25.2647897 19.1258689,30.7516127 21.4892234,35.9988998 C22.0273041,37.2045807 22.4348652,39.0548582 22.4348652,39.0548582 L22.5623844,39.0383558 C22.5623844,39.0383558 22.3803571,36.9880482 22.3888583,35.6018403 C22.4083613,32.1103165 22.4278642,28.6187928 22.4473671,25.126769 C21.5472321,25.1587738 20.6475971,25.1912787 19.7474621,25.2237836 C19.7564635,23.3169975 19.7659649,21.4102115 19.7754663,19.5029254 C23.4550183,19.5029254 27.1345702,19.5029254 30.8146222,19.5029254 C30.8011202,21.2841926 30.7876181,23.0654598 30.7746162,24.8472271 C29.9164875,24.8737311 29.0583588,24.9017353 28.2007301,24.9302395 C28.1432215,33.0739611 28.086713,41.2176827 28.0287043,49.3614042 C26.1089163,49.7094564 24.1906286,50.0725109 22.2743412,50.4495674 C19.9089863,45.4813222 17.5376306,40.2875431 15.1552733,34.8312247 C14.6146922,33.573536 14.2041306,31.5967395 14.2041306,31.5967395 L14.0756113,31.6062409 C14.0756113,31.6062409 14.2621393,33.7835675 14.2571386,35.2427864 C14.2461369,38.8918338 14.2341351,42.5403811 14.2231335,46.1899285 C15.1157674,46.0309046 16.0094014,45.8743812 16.9025354,45.7208581 C16.8955343,47.6636495 16.8875331,49.6059409 16.8795319,51.5487323 C13.2344852,52.3173476 9.59843977,53.1374706 5.97089563,54.0081012 C5.97089563,51.9162874 5.97089563,49.8244737 5.97089563,47.7326599" id="Fill-6" fill="#FFFFFE"></path>
            <path d="M45.0567585,32.9479422 C44.6752013,31.3041956 44.293144,29.6499475 43.9115867,27.9856979 C43.5415312,26.3219483 43.4870231,25.1322698 43.4870231,25.1322698 L43.3590039,25.1367705 C43.3590039,25.1367705 43.2849927,26.3259489 42.8819323,28.0317048 C42.4593689,29.739961 42.0368055,31.4592189 41.6147422,33.1904786 C42.7614142,33.106966 43.9090864,33.026454 45.0567585,32.9479422 Z M31.8342751,43.3870081 C32.4648697,43.2984948 33.0949642,43.2109816 33.7255588,43.1244687 C35.8758814,34.9662449 38.033205,27.1055658 40.193029,19.5029254 C42.3823574,19.5029254 44.5711857,19.5029254 46.7595139,19.5029254 C48.7813172,26.8505276 50.8041206,33.9695954 52.8309246,40.8996349 C53.4655198,40.8386258 54.0991149,40.7786168 54.7342101,40.7196079 C54.7187078,42.2918438 54.7047057,43.8640796 54.6897035,45.4358154 C51.4752213,45.79987 48.2642396,46.2029304 45.0572586,46.6439966 C45.0722608,44.9987498 45.0882632,43.353003 45.1032655,41.7077562 C45.7678652,41.633245 46.4324649,41.5592339 47.0975646,41.4877232 C46.820023,40.3295494 46.5419813,39.166375 46.2639396,37.9986998 C44.2896434,38.1812272 42.3163475,38.373256 40.3440516,38.5762864 C40.0435065,39.8379757 39.7424614,41.1051658 39.4424164,42.3788568 C40.1070161,42.2963445 40.7716157,42.2148322 41.4367155,42.1353203 C41.4217133,43.8120718 41.4057109,45.4893234 41.3907086,47.1660749 C38.1872281,47.6371456 34.9872481,48.1472221 31.793269,48.6963044 C31.806771,46.926539 31.820273,45.1567735 31.8342751,43.3870081 L31.8342751,43.3870081 Z" id="Fill-7" fill="#FFFFFE"></path>
            <path d="M56.6439966,41.26669 C59.9709956,35.786368 63.2959944,30.5545832 66.6124919,25.4988248 C67.0685603,24.7952193 67.6526479,24.3026454 67.6526479,24.3031455 L67.653148,24.2326349 C67.653148,24.2326349 66.9095364,24.3486523 66.2649397,24.3591539 C64.7617143,24.3841576 63.259989,24.4106616 61.7572636,24.4386658 C61.746762,25.626344 61.7362604,26.8145222 61.7252588,28.0022003 C60.1145172,28.0547082 58.5042756,28.1097165 56.893534,28.1682252 C56.9205381,25.280292 56.9475421,22.3913587 56.9740461,19.5029254 C62.8629294,19.5029254 68.7518128,19.5029254 74.640196,19.5029254 C74.6321948,20.7206081 74.6236936,21.9377907 74.6161924,23.1554733 C71.2971946,28.080212 67.9681952,33.1394709 64.6326949,38.4052608 C64.1746262,39.1338701 63.5900385,39.66645 63.5900385,39.66645 L63.5890384,39.7354603 C63.5890384,39.7354603 64.33365,39.5784368 64.9777467,39.53343 C66.6675001,39.4139121 68.3577537,39.3043957 70.0480072,39.2028804 C70.0570086,38.0032005 70.06651,36.8035205 70.0755113,35.6038406 C71.6907536,35.5248287 73.3059959,35.4518178 74.9217383,35.3853078 C74.9032355,38.1447217 74.8847327,40.9051358 74.8662299,43.6645497 C68.7713157,44.0456068 62.6834025,44.5651848 56.6074911,45.2237836 C56.6189928,43.9045857 56.6319948,42.5853878 56.6439966,41.26669" id="Fill-8" fill="#FFFFFE"></path>
            <path d="M89.9699955,31.1381707 C89.5754363,29.6969545 89.1813772,28.2537381 88.7878182,26.8090214 C88.406761,25.3653048 88.3477522,24.3431515 88.3477522,24.3431515 L88.2162324,24.3441516 C88.2162324,24.3441516 88.1497225,25.3663049 87.7556633,26.8185228 C87.3426014,28.2727409 86.9295394,29.7289593 86.5149772,31.1881782 C87.66665,31.1691754 88.8183227,31.1526729 89.9699955,31.1381707 Z M76.7175076,39.1808771 C77.3526029,39.1503726 77.9881982,39.1213682 78.6232935,39.0938641 C80.7641146,32.4723709 82.8949342,25.9548932 85.0147522,19.5029254 C87.2035805,19.5029254 89.3924089,19.5029254 91.5812372,19.5029254 C93.6565485,25.9023854 95.7433615,32.26634 97.8426764,38.6337951 C98.4792719,38.6307946 99.1163675,38.6292944 99.7529629,38.6292944 C99.7529629,40.046507 99.7524629,41.4637196 99.7524629,42.8809321 C96.5224784,42.8829324 93.2929939,42.9234385 90.0640096,43.0029504 C90.0685103,41.5787368 90.0725109,40.153523 90.0765115,38.7288093 C90.7446117,38.7158074 91.413212,38.7038056 92.0813122,38.6928039 C91.793269,37.6591489 91.5052258,36.6249937 91.2176827,35.5903386 C89.2343852,35.6203431 87.2515877,35.6603491 85.2682902,35.7098565 C84.9722458,36.7640146 84.6772016,37.819673 84.3806571,38.8768315 C85.0497575,38.8558284 85.7188578,38.8358254 86.3879582,38.8173226 C86.3824574,40.2485373 86.3764565,41.679752 86.3709556,43.1109666 C83.1424714,43.2204831 79.9154873,43.3685053 76.6895034,43.5555333 C76.6990049,42.0973146 76.7080062,40.6390959 76.7175076,39.1808771 L76.7175076,39.1808771 Z" id="Fill-9" fill="#FFFFFE"></path>
            <path d="M112.646397,30.1870281 C114.455168,30.2140321 115.581337,29.3078962 115.571336,27.1545732 C115.566835,26.0619093 115.303796,25.0312547 114.302645,24.5281792 C113.787068,24.2576386 113.044457,24.1206181 112.078812,24.1156173 C111.391209,24.1116167 110.704106,24.1076161 110.016502,24.1041156 C110.022003,26.1204181 110.028504,28.1372206 110.034505,30.153523 C110.905136,30.1635245 111.775766,30.1750263 112.646397,30.1870281 Z M101.676752,38.6317948 C102.539381,38.6347952 103.40201,38.640296 104.26514,38.6477972 C104.258639,33.6835525 104.252138,28.720308 104.246137,23.7560634 C103.387008,23.7545632 102.528379,23.753063 101.66925,23.7525629 C101.66875,22.3363505 101.66775,20.9196379 101.66675,19.5029254 C105.13227,19.5029254 108.59729,19.5029254 112.062309,19.5029254 C113.79957,19.5029254 115.342801,19.566935 116.666,19.9679952 C119.437416,20.8281242 121.287193,23.1829774 121.307696,26.7030055 C121.327199,29.8559784 119.886483,31.9617943 117.59914,33.1624744 L117.59964,33.2299845 C117.59964,33.2299845 118.506776,33.6505476 119.029854,34.7007051 C119.627944,35.8963845 120.227034,37.0975646 120.826124,38.3037456 C121.122168,38.8848327 121.575236,39.1028654 122.317848,39.1373706 C122.587888,39.1493724 122.856428,39.1623744 123.125969,39.1748762 C123.13547,40.6325949 123.144972,42.0903135 123.153973,43.5475321 C121.880782,43.4745212 120.607591,43.4070111 119.3344,43.3460019 C117.456618,43.2564885 116.709006,42.7624144 116.056909,41.4452168 C115.109266,39.5649347 114.163124,37.6971546 113.217483,35.8383758 C112.827924,35.0722608 112.405861,34.7967195 111.211182,34.7747162 C110.823624,34.7677152 110.435565,34.7612142 110.047507,34.7547132 C110.052008,36.0804121 110.056008,37.406611 110.059509,38.7323098 C110.86863,38.7488123 111.677252,38.7673151 112.485873,38.7883182 C112.491374,40.2175326 112.496875,41.6462469 112.501375,43.0754613 C108.894334,42.9629444 105.287293,42.8994349 101.679252,42.8844327 C101.678252,41.4672201 101.677752,40.0495074 101.676752,38.6317948 L101.676752,38.6317948 Z" id="Fill-10" fill="#FFFFFE"></path>
            <path d="M125.629844,39.2993949 C126.491474,39.3444017 127.353603,39.3919088 128.214232,39.4414162 C128.176226,34.2716407 128.138221,29.1018653 128.100215,23.9320898 C127.241586,23.9215882 126.382957,23.9110867 125.524329,23.9010852 C125.514327,22.4348652 125.504326,20.9691454 125.494824,19.5029254 C131.405211,19.5029254 137.315597,19.5029254 143.226984,19.5029254 C143.250488,22.0338051 143.273491,24.5646847 143.296995,27.0960644 C141.687253,27.0440566 140.076511,26.9950493 138.46577,26.9495424 C138.458769,26.1139171 138.451268,25.2787918 138.443767,24.4431665 C136.919038,24.4141621 135.395309,24.3876581 133.870581,24.3616542 C133.884083,26.039906 133.898085,27.7181577 133.912087,29.3959094 C136.157424,29.4724209 138.40176,29.5559334 140.646097,29.646947 C140.661099,31.3076962 140.676101,32.9684453 140.691104,34.6291944 C138.445767,34.493174 136.19943,34.3686553 133.952593,34.2546382 C133.966595,35.9913987 133.981097,37.7276591 133.996099,39.4639196 C135.653348,39.5774366 137.310097,39.6989548 138.966345,39.8289743 C138.958844,38.9923489 138.951343,38.1552233 138.943842,37.3185978 C140.556583,37.4296144 142.168825,37.5471321 143.780567,37.6716507 C143.804071,40.206531 143.828074,42.7419113 143.851578,45.2767915 C137.79717,44.6136921 131.73176,44.0876131 125.659849,43.700055 C125.649847,42.2328349 125.639846,40.766615 125.629844,39.2993949" id="Fill-11" fill="#FFFFFE"></path>
            <path d="M151.071161,41.2951943 C151.93029,41.3857079 152.789418,41.4777217 153.648547,41.5722358 C153.595539,35.9758964 153.543031,30.380057 153.490024,24.7837176 C152.578387,24.759714 151.66625,24.7362104 150.754113,24.7137071 C150.766115,25.9673951 150.777617,27.2215832 150.790119,28.4747712 C149.179877,28.4057609 147.569135,28.339751 145.958394,28.2772416 C145.93089,25.3523028 145.902885,22.4278642 145.875881,19.5029254 C152.837926,19.5029254 159.80047,19.5029254 166.762514,19.5029254 C166.789018,22.7609141 166.815022,26.0179027 166.840526,29.2758914 C165.234285,29.1843777 163.626544,29.0968645 162.018803,29.0123519 C162.007301,27.6831525 161.995799,26.3539531 161.983798,25.0252538 C161.072661,24.9972496 160.161024,24.9707456 159.249887,24.9437416 C159.301395,30.7091064 159.353403,36.4754713 159.404911,42.2408361 C160.262039,42.3453518 161.118668,42.4523679 161.974796,42.5613842 C161.989798,44.2696404 162.004801,45.9783968 162.019803,47.6871531 C158.390759,47.1215682 154.755713,46.6054908 151.116668,46.139921 C151.101665,44.5251788 151.086663,42.9104366 151.071161,41.2951943" id="Fill-12" fill="#FFFFFE"></path>
            <path d="M169.274391,43.5480322 C170.129519,43.6700505 170.983648,43.7945692 171.837776,43.9210882 C171.792769,37.5901385 171.748762,31.2591889 171.703756,24.9277392 C170.847127,24.899735 169.989498,24.8717308 169.13237,24.8452268 C169.119368,23.0639596 169.105866,21.2836926 169.091864,19.5029254 C172.728409,19.5029254 176.364455,19.5029254 180.001,19.5029254 C180.010502,21.4077112 180.019503,23.3119968 180.029004,25.2172826 C179.172876,25.1852778 178.316247,25.1547732 177.459619,25.1242686 C177.472621,27.4316147 177.485623,29.7384608 177.498625,32.0453068 C180.236535,32.2628394 182.972946,32.4913737 185.707356,32.7314097 C185.699855,30.2985448 185.692354,27.8651798 185.684853,25.4318148 C184.827724,25.3983097 183.970596,25.3653048 183.113467,25.3322998 C183.105966,23.3890084 183.097965,21.4462169 183.090964,19.5029254 C186.726509,19.5029254 190.363054,19.5029254 193.9991,19.5029254 C193.9991,21.5937391 193.9991,23.6840526 193.9991,25.7743662 C193.143472,25.7378607 192.287843,25.7013552 191.432215,25.6653498 C191.439716,32.8574286 191.446717,40.0490074 191.454218,47.2410862 C192.302845,47.4026104 193.151473,47.566635 193.9991,47.7326599 C193.9991,49.8244737 193.9991,51.9162874 193.9991,54.0081012 C190.413562,53.146972 186.819523,52.3363505 183.217483,51.5757364 C183.210482,49.6314447 183.20248,47.686653 183.194979,45.7428614 C184.046607,45.8898835 184.898235,46.0389058 185.749362,46.1904286 C185.741861,43.833575 185.73486,41.4772216 185.727359,39.1208681 C182.99845,38.7648147 180.26654,38.4257639 177.53263,38.1032155 C177.545632,40.3375506 177.558134,42.5718858 177.570136,44.8062209 C178.423764,44.9432415 179.275391,45.0817623 180.127519,45.2237836 C180.13652,47.1295694 180.146022,49.0353553 180.155023,50.9411412 C176.548982,50.2085313 172.93544,49.5259289 169.314897,48.893334 C169.300895,47.1115667 169.287893,45.3302995 169.274391,43.5480322" id="Fill-13" fill="#FFFFFE"></path>
            <path d="M38.7513127,55.6243437 C41.7062559,55.1807771 43.2439866,56.6634995 43.2434865,56.6584988 C42.9509426,57.1945792 42.6583988,57.7326599 42.3658549,58.2727409 C42.3658549,58.2752413 40.9861479,57.1015652 38.8883332,57.4321148 C35.986398,57.8871831 34.2381357,60.6966045 34.2351353,63.8250738 C34.2316347,67.2250838 36.1814272,69.1403711 38.7653148,68.6032905 C40.8956343,68.1627244 42.2633395,66.1374206 42.2633395,66.139921 C42.2643397,65.4588188 42.2658399,64.7782167 42.26684,64.0971146 C41.5967395,64.2186328 40.9261389,64.3416512 40.2565385,64.4661699 C40.2575386,63.8870831 40.2585388,63.3084963 40.2595389,62.7289093 C41.4537181,62.5158774 42.6488973,62.306846 43.8440766,62.1028154 C43.8395759,64.4581687 43.8345752,66.8125219 43.8295744,69.166875 C43.3224984,69.2678902 42.8154223,69.3699055 42.3088463,69.4729209 C42.3093464,69.1793769 42.3103466,68.8858329 42.3108466,68.5922888 C42.3108466,68.2922438 42.3293494,67.9881982 42.3293494,67.9881982 L42.2943442,67.9951993 C42.2943442,67.993199 40.9446417,69.9824974 38.500275,70.5060759 C35.1842776,71.2256839 32.4518678,68.7218083 32.4553649,64.2106316 C32.4593689,59.9509926 35.1492724,56.1574236 38.7513127,55.6243437" id="Fill-14" fill="#FFFFFE"></path>
            <path d="M52.0608091,66.0889133 C54.5846877,65.6443467 56.6274941,63.0609591 56.6365221,60.0705106 C56.6449967,57.1745762 54.6146922,55.2177827 52.0893134,55.5308296 C49.5634345,55.8433765 47.5086263,58.4072611 47.5016073,61.4362154 C47.4946242,64.5646847 49.5364305,66.53348 52.0608091,66.0889133 Z M52.0938141,53.7995699 C55.6723509,53.3860079 58.4382657,56.0449067 58.4267998,59.8289743 C58.4157624,63.7085563 55.6313447,67.1770766 52.0563084,67.8381757 C48.4807721,68.499775 45.706856,65.8578787 45.7153378,61.7282592 C45.7243587,57.7011552 48.5157774,54.2106316 52.0938141,53.7995699 L52.0938141,53.7995699 Z" id="Fill-15" fill="#FFFFFE"></path>
            <path d="M60.9741461,53.0494574 C61.5542331,52.9919488 62.1343201,52.9354403 62.7144072,52.8804321 C62.7024054,56.6880032 62.6909036,60.4945742 62.6789018,64.2996449 C64.5306796,64.0416062 66.3829574,63.8005701 68.2362354,63.5765365 C68.2347352,64.093614 68.233235,64.6106916 68.2317348,65.1277692 C65.7973696,65.4348152 63.3650048,65.773366 60.9346402,66.1409211 C60.9476421,61.7792669 60.9611442,57.4151123 60.9741461,53.0494574" id="Fill-16" fill="#FFFFFE"></path>
            <path d="M74.2396359,62.9159374 C77.0405561,62.6343952 78.8783317,60.8516277 78.8853556,57.8181727 C78.8928339,54.8042206 77.0470571,53.2814922 74.2656398,53.4720208 C73.5145272,53.5250288 72.7634145,53.5805371 72.0123018,53.6380457 C72.0033005,56.8090214 71.9942991,59.9789968 71.9847977,63.1489723 C72.7364105,63.0684603 73.4880232,62.9909486 74.2396359,62.9159374 Z M70.2745412,52.2343352 C71.6472471,52.1298195 73.019953,52.0328049 74.3926589,51.9432915 C78.1952293,51.7037556 80.6921038,53.8325749 80.6836242,57.6971546 C80.6751013,61.5842376 78.1647247,64.0231035 74.3581537,64.4241636 C72.9839476,64.5661849 71.6102415,64.7187078 70.2370356,64.8822323 C70.2495374,60.6671001 70.2620393,56.4514677 70.2745412,52.2343352 L70.2745412,52.2343352 Z" id="Fill-17" fill="#FFFFFE"></path>
            <path d="M83.3029954,51.4607191 C85.7113567,51.3577037 88.119718,51.2771916 90.5285793,51.2181827 C90.5280792,51.7077562 90.5275791,52.1968295 90.5270791,52.6859029 C88.6993049,52.73341 86.8720308,52.7949192 85.0452568,52.8704306 C85.0427564,54.1381207 85.040256,55.4063109 85.0377557,56.6745012 C86.5244787,56.6024904 88.0117018,56.5404811 89.4994249,56.4899735 C89.4984248,56.980047 89.4979247,57.4696204 89.4974246,57.9591939 C88.0097015,58.013202 86.5224784,58.0782117 85.0347552,58.1547232 C85.0327549,59.4569185 85.0302545,60.7591139 85.0277542,62.0613092 C86.9565435,61.9482922 88.8858329,61.8562784 90.8156223,61.786768 C90.8151223,62.2758414 90.8146222,62.7644147 90.8141221,63.253488 C88.3012452,63.3490024 85.7888683,63.4830225 83.2779917,63.6555483 C83.286493,59.5909386 83.2949942,55.5258289 83.3029954,51.4607191" id="Fill-18" fill="#FFFFFE"></path>
            <path d="M93.4010102,51.159674 C93.9765965,51.1496725 94.5526829,51.1411712 95.1287693,51.1341701 C96.9725459,53.7105566 98.8178227,56.2904436 100.6656,58.8908336 C101.124169,59.5364305 101.706756,60.6255938 101.706756,60.6260939 L101.742761,60.6260939 C101.742761,60.6260939 101.618243,59.5564335 101.618243,58.8948342 C101.617743,56.2994449 101.617243,53.7035555 101.616743,51.1076661 C102.19833,51.1101665 102.780417,51.1136671 103.362504,51.1191679 C103.364005,55.1137671 103.366005,59.1088663 103.367505,63.1039656 C102.796419,63.0959644 102.225334,63.0899635 101.654748,63.0854628 C99.79997,60.4825724 97.946692,57.9041856 96.0959144,55.3343001 C95.6378457,54.6777017 95.0562584,53.5985398 95.0562584,53.5985398 L95.0212532,53.5990399 C95.0212532,53.5990399 95.1442716,54.6677002 95.1437716,55.3473021 C95.1417713,57.9406911 95.140271,60.5345802 95.1387708,63.1279692 C94.5561834,63.139971 93.973096,63.153473 93.3905086,63.1694754 C93.3940091,59.1658749 93.3975096,55.1627744 93.4010102,51.159674" id="Fill-19" fill="#FFFFFE"></path>
            <path d="M111.274191,51.2686903 C113.560034,51.3352003 115.844877,51.4217133 118.129219,51.5282292 C118.13022,52.0253038 118.13122,52.5218783 118.13222,53.0184528 C116.428964,52.93344 114.725709,52.8604291 113.021953,52.7989198 C113.023954,54.1251188 113.025954,55.4518178 113.028454,56.7790169 C114.480172,56.8410262 115.93189,56.913537 117.383107,56.9960494 C117.384108,57.4916237 117.385608,57.9876982 117.386608,58.4837726 C115.93489,58.3962594 114.483172,58.319748 113.030955,58.2542381 C113.033955,59.9809971 113.036956,61.7077562 113.039456,63.4345152 C112.456869,63.4030105 111.874281,63.373506 111.292194,63.346502 C111.286193,59.3208981 111.280192,55.2947942 111.274191,51.2686903" id="Fill-20" fill="#FFFFFE"></path>
            <path d="M120.453568,51.6432465 C121.035155,51.6742511 121.616242,51.7057559 122.19733,51.7387608 C122.206831,55.3583037 122.215832,58.9768465 122.225334,62.5948892 C124.082112,62.7559134 125.937391,62.9354403 127.791669,63.1339701 C127.793669,63.6445467 127.794669,64.1546232 127.79667,64.6646997 C125.360304,64.3921588 122.921938,64.1526229 120.483072,63.9480922 C120.473571,59.846977 120.46357,55.7458619 120.453568,51.6432465" id="Fill-21" fill="#FFFFFE"></path>
            <path d="M131.529729,59.7194579 C130.13202,57.1250688 128.73431,54.5756864 127.337101,52.0658099 C127.994199,52.1118168 128.651298,52.1593239 129.307896,52.2088313 C130.080512,53.6505476 130.853128,55.1052658 131.625244,56.5739861 C132.014302,57.3145972 132.386858,58.2572386 132.386858,58.2572386 L132.421863,58.2607391 C132.421863,58.2607391 132.788418,57.4126119 133.173476,56.7260089 C133.925589,55.3988098 134.677202,54.0621093 135.428814,52.7159074 C136.084913,52.7754163 136.741511,52.8364255 137.39711,52.8989348 C136.022403,55.2682902 134.646697,57.6036405 133.270991,59.9099865 C133.276491,61.7182577 133.281992,63.5260289 133.287493,65.3338001 C132.706906,65.2572886 132.126319,65.1827774 131.545232,65.1097665 C131.540731,63.3129969 131.53473,61.5167275 131.529729,59.7194579" id="Fill-22" fill="#FFFFFE"></path>
            <path d="M139.223884,53.0774616 C141.625244,53.3179977 144.024104,53.5795369 146.421963,53.8620793 C146.423464,54.4106616 146.425464,54.9587438 146.426964,55.5073261 C144.607691,55.280292 142.788918,55.0657599 140.968145,54.8632295 C140.972146,56.2409361 140.976646,57.6186428 140.980647,58.9953493 C142.460869,59.1848777 143.941591,59.3829074 145.420813,59.5899385 C145.422813,60.1355203 145.424314,60.6811022 145.425814,61.2271841 C143.946092,61.0096514 142.46587,60.8016202 140.985148,60.6030905 C140.989648,62.0178027 140.994149,63.4315147 140.99815,64.8457269 C142.917938,65.1362704 144.835725,65.4438166 146.753013,65.766865 C146.754513,66.3149472 146.756013,66.8635295 146.757514,67.4121118 C144.262139,66.9745462 141.764265,66.5634845 139.26389,66.1834275 C139.250888,61.8162724 139.236886,57.4476171 139.223884,53.0774616" id="Fill-23" fill="#FFFFFE"></path>
            <path d="M153.519028,61.4382157 C154.86673,61.6607491 155.704856,60.8306246 155.701366,59.2573886 C155.698855,58.2232335 155.347802,57.433615 154.716708,56.9450418 C154.383157,56.6980047 153.980597,56.5209781 153.017453,56.3844577 C152.351853,56.2904436 151.686253,56.1979297 151.020153,56.1074161 C151.024154,57.7516627 151.027654,59.3959094 151.032155,61.0396559 C151.860779,61.1701755 152.690404,61.3026954 153.519028,61.4382157 Z M149.279392,54.2096314 C150.542581,54.3671551 151.804271,54.5306796 153.06546,54.700205 C154.361654,54.8747312 154.905236,55.0702605 155.378307,55.3353003 C156.639496,56.0479072 157.46462,57.5966395 157.46862,59.4604191 C157.472121,61.2651898 156.60049,62.6343952 155.253788,62.8954343 L155.254288,62.9354403 C155.254288,62.9354403 155.394809,63.1374706 155.623344,63.6345452 C156.501975,65.6028404 157.379107,67.593139 158.256739,69.6044407 C157.604641,69.4709206 156.952043,69.3389008 156.299445,69.2083813 C155.426814,67.1695754 154.553683,65.153273 153.680052,63.1589738 C152.79892,63.0084513 151.918288,62.8609291 151.036655,62.7159074 C151.040656,64.5411812 151.045157,66.3659549 151.049657,68.1907286 C150.472071,68.0822123 149.893984,67.9756964 149.315397,67.8696805 C149.303896,63.3194979 149.292394,58.7658149 149.279392,54.2096314 L149.279392,54.2096314 Z" id="Fill-24" fill="#FFFFFE"></path>
            <path d="M160.556583,66.9220383 C160.556083,66.9195379 161.86878,68.7218083 163.701055,69.1093664 C164.852228,69.3514027 165.827874,68.7948192 165.826374,67.4081112 C165.824374,64.2281342 159.853978,63.7710657 159.844477,59.4074111 C159.840476,57.1895784 161.499225,55.6753513 163.823073,56.0389058 C166.111417,56.4004601 167.316597,58.086713 167.316597,58.086713 C167.055558,58.6112917 166.795019,59.13337 166.53348,59.6539481 C166.53348,59.6529479 165.39781,58.1882282 163.825574,57.9286893 C162.515877,57.7126569 161.590239,58.5212782 161.592239,59.659949 C161.59874,62.6158924 167.567635,62.9189378 167.570138,67.7056558 C167.572136,69.9794969 166.110417,71.5222283 163.66855,70.9876481 C161.051658,70.4160624 159.579937,68.2412362 159.580437,68.2437366 C159.905486,67.8046707 160.231035,67.3641046 160.556583,66.9220383" id="Fill-25" fill="#FFFFFE"></path>
            <path d="M84.6471971,109.913487 C84.6406961,109.951993 84.6416963,109.990499 84.6336951,110.029004 C84.3246487,111.516728 83.0184528,112.365855 81.7162574,111.925789 C80.4140621,111.485723 79.6089413,109.922988 79.9184878,108.434765 C79.926489,108.396259 79.9419913,108.363254 79.9514927,108.325749 L77.3290994,107.439116 C77.320098,107.479622 77.3070961,107.517128 77.2985948,107.558134 C76.7030055,110.427064 78.2552383,113.442016 80.766615,114.290644 C83.2779917,115.139771 85.7968695,113.502525 86.3929589,110.632595 C86.4014602,110.592089 86.4049607,110.551083 86.4124619,110.510077 L84.6471971,109.913487" id="Fill-26" fill="#FFFFFE"></path>
            <path d="M115.323298,109.913487 C115.329799,109.951993 115.328799,109.990499 115.3363,110.029004 C115.645347,111.516728 116.951543,112.365855 118.253738,111.925789 C119.555933,111.485723 120.361054,109.922988 120.052008,108.434765 C120.043507,108.396259 120.028004,108.363254 120.019003,108.325749 L122.640896,107.439116 C122.649897,107.479622 122.662899,107.517128 122.671401,107.558134 C123.26749,110.427064 121.714257,113.442016 119.203381,114.290644 C116.692004,115.139771 114.173126,113.502525 113.577537,110.632595 C113.568535,110.592089 113.565035,110.551083 113.557534,110.510077 L115.323298,109.913487" id="Fill-27" fill="#FFFFFE"></path>
            <path d="M90.4955743,123.610542 C89.6749512,124.604691 88.206731,125.26779 86.6479972,125.710857 C88.1137171,127.056058 90.9626444,127.611642 90.9626444,127.611642 C86.6659999,129.339401 80.5850878,126.594489 80.5850878,126.594489 C84.5021753,132.238836 91.0676601,132.091814 91.0676601,132.091814 C97.2205831,136.978047 99.9849977,153.93259 99.9849977,153.93259 L99.9849977,106.678002 C89.2578887,108.759314 90.4955743,123.610542 90.4955743,123.610542" id="Fill-28" fill="#C9A069"></path>
            <path d="M109.474421,123.610542 C110.295044,124.604691 111.763264,125.26779 113.321998,125.710857 C111.856278,127.056058 109.007851,127.611642 109.007851,127.611642 C113.303996,129.339401 119.384908,126.594489 119.384908,126.594489 C115.46832,132.238836 108.901835,132.091814 108.901835,132.091814 C102.749412,136.978047 99.9849977,153.93259 99.9849977,153.93259 L99.9849977,106.678002 C110.711607,108.759314 109.474421,123.610542 109.474421,123.610542" id="Fill-29" fill="#9F7F55"></path>
            <path d="M150.803621,132.165825 C150.803621,132.165825 149.353403,119.012852 139.808971,104.009101 C139.808971,104.009101 143.672051,105.231285 147.678152,107.980197 C147.678152,107.980197 140.381057,95.3047957 126.501475,84.4626694 C126.501475,84.4626694 128.218733,84.3101465 131.652748,85.2262839 C131.652748,85.2262839 123.311497,78.0207031 111.229684,74.7992199 C104.391159,75.2892934 99.9849977,76.7625144 99.9849977,76.7625144 C99.9849977,76.7625144 95.579837,75.2892934 88.7423113,74.7992199 C76.659999,78.019703 68.3177477,85.2262839 68.3177477,85.2262839 C71.7517628,84.3101465 73.4685203,84.4626694 73.4685203,84.4626694 C59.5894384,95.3047957 52.2918438,107.980197 52.2918438,107.980197 C56.2984448,105.231285 60.1615242,104.009101 60.1615242,104.009101 C50.6170926,119.012852 49.166375,132.165825 49.166375,132.165825 C52.3088463,129.411412 55.6033405,127.945692 55.6033405,127.945692 C53.1274691,135.752363 51.9282892,140.897635 51.9282892,140.897635 C51.9282892,140.897635 78.306746,141.53623 95.7898685,156.846527 C93.0714607,140.659599 88.6357954,135.922388 88.6357954,135.922388 C76.0439066,134.547682 73.8975846,121.109166 73.8975846,121.109166 C73.8975846,121.109166 77.1890784,122.636395 80.3365505,122.636395 C83.4845227,122.636395 85.8993849,121.593739 85.8993849,121.593739 C85.8993849,119.437416 86.4129619,117.428614 86.4129619,117.428614 C83.0554583,119.755463 78.546782,118.041206 78.546782,118.041206 C78.546782,118.041206 69.9624944,115.435815 73.6430465,103.583538 C71.9257889,101.445217 71.8507776,97.6926539 71.8507776,97.6926539 C78.9023354,105.082262 90.0990149,107.129569 90.0990149,107.129569 C93.833575,102.075311 99.9849977,102.096815 99.9849977,102.096815 C99.9849977,102.096815 106.136921,102.075311 109.871481,107.129569 C109.871481,107.129569 121.06816,105.082262 128.119718,97.6926539 C128.119718,97.6926539 128.044207,101.445217 126.327949,103.583538 C130.008001,115.435815 121.423213,118.041206 121.423213,118.041206 C121.423213,118.041206 116.915037,119.755463 113.557534,117.428614 C113.557534,117.428614 114.071111,119.437416 114.071111,121.593739 C114.071111,121.593739 116.485973,122.636395 119.633945,122.636395 C122.781417,122.636395 126.072411,121.109166 126.072411,121.109166 C126.072411,121.109166 123.926089,134.547682 111.3347,135.922388 C111.3347,135.922388 106.899035,140.659599 104.180627,156.846527 C121.66375,141.53623 148.042206,140.897635 148.042206,140.897635 C148.042206,140.897635 146.843026,135.752363 144.367155,127.945692 C144.367155,127.945692 147.661649,129.411412 150.803621,132.165825" id="Fill-30" fill="#FFFFFE"></path>
            <path d="M95.7893684,156.846027 C95.4898235,155.062259 95.1697755,153.432515 94.8367255,151.944792 C94.8367255,151.944792 85.7828674,140.767115 56.8490274,137.480122 C59.3108966,127.191579 61.2786918,121.680752 61.2786918,121.680752 C57.939691,122.613392 55.1352703,124.279142 55.1352703,124.279142 C58.9808471,110.966145 68.2777417,98.1682252 68.2777417,98.1682252 C64.4711707,98.9273391 62.6143922,100.091514 62.6143922,100.091514 C68.6908036,90.8296244 82.7139071,81.1781767 82.7139071,81.1781767 C76.1694254,81.1781767 71.6687503,82.7224084 71.6687503,82.7224084 C69.5184278,84.1871281 68.3172476,85.2247837 68.3172476,85.2247837 C71.7512627,84.3086463 73.4685203,84.4611692 73.4685203,84.4611692 C59.5889383,95.3037956 52.2913437,107.978697 52.2913437,107.978697 C56.2979447,105.229784 60.1615242,104.008101 60.1615242,104.008101 C50.6165925,119.011852 49.166375,132.164325 49.166375,132.164325 C52.3083463,129.409911 55.6028404,127.944692 55.6028404,127.944692 C53.126969,135.750863 51.9277892,140.896134 51.9277892,140.896134 C51.9277892,140.896134 78.306746,141.53473 95.7893684,156.846027" id="Fill-31" fill="#DEDED8"></path>
            <path d="M90.0990149,107.13007 C90.0990149,107.13007 78.9023354,105.082262 71.8507776,97.693154 C71.8507776,97.693154 77.1715757,100.461069 85.8993849,99.5879382 C85.8993849,99.5879382 85.8993849,103.359504 90.0990149,107.13007" id="Fill-32" fill="#DEDED8"></path>
            <path d="M109.871481,107.13007 C109.871481,107.13007 121.06816,105.082262 128.119718,97.693154 C128.119718,97.693154 122.79892,100.461069 114.071111,99.5879382 C114.071111,99.5879382 114.071111,103.359504 109.871481,107.13007" id="Fill-33" fill="#DEDED8"></path>
            <path d="M104.180627,156.846027 C104.480172,155.062259 104.80072,153.432515 105.13327,151.944792 C105.13327,151.944792 114.187128,140.767115 143.120968,137.480122 C140.659099,127.191579 138.691304,121.680752 138.691304,121.680752 C142.030305,122.613392 144.835225,124.279142 144.835225,124.279142 C140.989148,110.966145 131.692254,98.1682252 131.692254,98.1682252 C135.498825,98.9273391 137.355603,100.091514 137.355603,100.091514 C131.279192,90.8296244 119.385408,82.7144072 119.385408,82.7144072 C125.929389,82.7144072 128.301245,82.7224084 128.301245,82.7224084 C130.452068,84.1871281 131.652748,85.2247837 131.652748,85.2247837 C128.218733,84.3086463 126.501475,84.4611692 126.501475,84.4611692 C140.381057,95.3037956 147.678152,107.978697 147.678152,107.978697 C143.672051,105.229784 139.808971,104.008101 139.808971,104.008101 C149.353403,119.011852 150.803621,132.164325 150.803621,132.164325 C147.661649,129.409911 144.367155,127.944692 144.367155,127.944692 C146.843026,135.750863 148.042206,140.896134 148.042206,140.896134 C148.042206,140.896134 121.66375,141.53473 104.180627,156.846027" id="Fill-34" fill="#DEDED8"></path>
        </g>
    </g>
</svg>