<?xml version="1.0" encoding="UTF-8"?>
<svg width="200px" height="200px" viewBox="0 0 200 200" version="1.1" xmlns="http://www.w3.org/2000/svg" xmlns:xlink="http://www.w3.org/1999/xlink">
    <!-- Generator: Sketch 54.1 (76490) - https://sketchapp.com -->
    <title>neb-wesleyan</title>
    <desc>Created with Sketch.</desc>
    <g id="neb-wesleyan" stroke="none" stroke-width="1" fill="none" fill-rule="evenodd">
        <g id="neb-wesleyan_BGL" transform="translate(0.000000, 0.000000)">
            <g id="neb-wesleyan" transform="translate(0.000000, 28.000000)">
                <g id="g10" transform="translate(99.999998, 72.550726) scale(-1, 1) rotate(-180.000000) translate(-99.999998, -72.550726) translate(0.000000, 0.570052)">
                    <g id="g12" transform="translate(0.000000, 0.869565)">
                        <path d="M199.999995,118.462799 L199.999995,94.9437657 L193.582604,94.9437657 L193.582604,72.4667615 C193.582604,65.3864718 192.393232,58.3597087 186.208691,51.9428973 C180.241541,45.7412549 172.583571,43.797197 165.41932,43.797197 L162.657967,43.797197 C155.822218,43.797197 148.428016,45.4076317 142.417388,51.3031871 C138.216422,55.4310131 136.137195,59.8920758 135.168113,64.4682109 L68.038549,64.4682109 L68.038549,44.9622211 L46.6613515,44.9622211 L38.2646367,57.7597087 L38.2646367,44.9622211 L0,44.9622211 L0,68.4812543 L6.41417375,68.4812543 L6.41417375,94.9437657 L0,94.9437657 L0,118.462799 L27.9623181,118.462799 L36.1885015,105.651205 L36.1885015,118.462799 L199.999995,118.462799" id="path14" fill="#100F0D" fill-rule="nonzero"></path>
                        <path d="M165.414489,62.7227037 C168.073426,62.7227037 170.443474,63.7455057 172.095648,65.8317858 C173.798063,68.0377761 173.9913,70.8703364 173.9913,73.9651189 L173.9913,100.703379 L168.57874,100.703379 L168.57874,112.703379 L194.238642,112.703379 L194.238642,100.703379 L187.82415,100.703379 L187.82415,72.4667615 C187.82415,66.1401916 186.7913,60.846955 182.058933,55.9360372 C177.504343,51.2031871 171.55845,49.5557476 165.41932,49.5557476 L162.657967,49.5557476 C156.715938,49.5557476 151.016421,50.9390325 146.45217,55.4113996 C141.282122,60.4940081 140.162315,66.1356505 140.162315,72.7997083 L140.162315,100.703379 L133.748789,100.703379 L133.748789,112.703379 L159.41159,112.703379 L159.41159,100.703379 L153.996131,100.703379 L153.996131,73.9651189 C153.996131,68.1434766 155.587436,62.7227037 162.669561,62.7227037 L165.414489,62.7227037 L165.414489,62.7227037" id="path16" fill="#ADA157" fill-rule="nonzero"></path>
                        <polyline id="path18" fill="#ADA157" fill-rule="nonzero" points="62.2792255 50.7208683 49.7716896 50.7208683 26.0073423 86.9361331 26.0073423 62.7227037 32.5049267 62.7227037 32.5049267 50.7208683 5.75936217 50.7208683 5.75936217 62.7227037 12.1739127 62.7227037 12.1739127 100.703379 5.75936217 100.703379 5.75936217 112.703379 24.8162313 112.703379 48.4446365 75.8994184 48.4446365 100.703379 41.9482115 100.703379 41.9482115 112.703379 68.6937181 112.703379 68.6937181 100.703379 62.2792255 100.703379 62.2792255 50.7208683 62.2792255 50.7208683"></polyline>
                        <path d="M165.414489,60.220385 L162.669561,60.220385 C159.066663,60.220385 155.547822,61.7972931 153.45217,64.9411578 C151.547822,67.7951674 151.490817,71.1692736 151.490817,73.9651189 L151.490817,103.206761 L156.906276,103.206761 L156.906276,110.199031 L136.253137,110.199031 L136.253137,103.206761 L142.667629,103.206761 L142.667629,72.7997083 C142.667629,66.4685008 143.71304,61.6161337 148.205793,57.1992256 C152.140093,53.3431871 157.103378,52.0599021 162.657967,52.0599021 L165.41932,52.0599021 C171.112073,52.0599021 176.314005,53.5778731 180.256034,57.6740082 C184.355551,61.9293704 185.319802,66.4639597 185.319802,72.4667615 L185.319802,103.206761 L191.734295,103.206761 L191.734295,110.199031 L171.080189,110.199031 L171.080189,103.206761 L176.495648,103.206761 L176.495648,73.9651189 C176.495648,70.9050224 176.35072,67.2365201 174.061831,64.2795153 C171.883087,61.5330419 168.751687,60.220385 165.414489,60.220385 L165.414489,60.220385" id="path20" fill="#633917" fill-rule="nonzero"></path>
                        <polyline id="path22" fill="#633917" fill-rule="nonzero" points="59.7746845 53.228018 59.7746845 103.206761 66.1892737 103.206761 66.1892737 110.199031 44.4515931 110.199031 44.4515931 103.206761 50.9491775 103.206761 50.9491775 67.3641529 23.4473424 110.199031 8.26389351 110.199031 8.26389351 103.206761 14.6788402 103.206761 14.6788402 60.220385 8.26389351 60.220385 8.26389351 53.228018 30.0003857 53.228018 30.0003857 60.220385 23.5028013 60.220385 23.5028013 95.3159396 51.1231871 53.228018 59.7746845 53.228018 59.7746845 53.228018"></polyline>
                        <polyline id="path24" fill="#100F0D" fill-rule="nonzero" points="161.095648 118.033813 150.994199 118.033813 133.535262 52.1505301 109.906277 52.1505301 100.10821 87.1089833 90.3098528 52.1505301 66.9931384 52.1505301 48.2171002 118.033813 38.9025111 118.033813 38.9025111 142.939127 83.1337177 142.939127 83.1337177 121.23961 88.8583553 142.939127 110.943959 142.939127 116.864731 121.984538 116.864731 142.939127 161.095648 142.939127 161.095648 118.033813 161.095648 118.033813"></polyline>
                        <polyline id="path26" fill="#ADA157" fill-rule="nonzero" points="156.155552 122.975842 147.192267 122.975842 129.732364 57.0915928 113.65507 57.0915928 100.10821 105.423186 86.5640558 57.0915928 70.7242494 57.0915928 51.9470518 122.975842 43.8443467 122.975842 43.8443467 137.997098 78.1917855 137.997098 78.1917855 122.975842 70.0083074 122.975842 79.4531381 87.9110123 92.6653117 137.997098 107.205794 137.997098 121.249272 88.2827997 130.225118 122.975842 121.807726 122.975842 121.807726 137.997098 156.155552 137.997098 156.155552 122.975842 156.155552 122.975842"></polyline>
                        <polyline id="path28" fill="#633917" fill-rule="nonzero" points="153.650238 125.48019 153.650238 135.493716 124.309176 135.493716 124.309176 125.48019 133.458934 125.48019 121.355553 78.6952637 105.311108 135.493716 94.5946836 135.493716 79.4784521 78.1910125 66.741351 125.48019 75.6872445 125.48019 75.6872445 135.493716 46.3477283 135.493716 46.3477283 125.48019 53.8375832 125.48019 72.6147808 59.5957473 84.6652153 59.5957473 100.10821 114.703379 115.552654 59.5957473 127.805794 59.5957473 145.265697 125.48019 153.650238 125.48019 153.650238 125.48019"></polyline>
                        <path d="M181.588401,36.7893711 L182.565213,36.7893711 C183.091783,36.7893711 183.605793,36.6232841 183.605793,36.0511102 C183.605793,35.3940088 183.199029,35.2619315 182.565213,35.2619315 L181.588401,35.2619315 L181.588401,36.7893711 Z M180.763281,32.3856031 L181.588401,32.3856031 L181.588401,34.6154581 L182.278256,34.6154581 L183.688884,32.3856031 L184.561348,32.3856031 L183.128498,34.6154581 C183.914971,34.6154581 184.428981,35.2037672 184.428981,36.0144919 C184.428981,36.9689846 183.855068,37.4339121 182.69758,37.4339121 L180.763281,37.4339121 L180.763281,32.3856031 Z M178.924633,34.9045402 C178.924633,36.9689846 180.417387,38.567342 182.423184,38.567342 C184.40386,38.567342 185.89758,36.9689846 185.89758,34.9045402 C185.89758,32.837777 184.40386,31.2394195 182.423184,31.2394195 C180.417387,31.2394195 178.924633,32.837777 178.924633,34.9045402 L178.924633,34.9045402 Z M178.102411,34.9045402 C178.102411,32.5294678 180.03671,30.5951683 182.410623,30.5951683 C184.785503,30.5951683 186.719802,32.5294678 186.719802,34.9045402 C186.719802,37.2792261 184.785503,39.213429 182.410623,39.213429 C180.03671,39.213429 178.102411,37.2792261 178.102411,34.9045402 L178.102411,34.9045402 L178.102411,34.9045402 Z" id="path30" fill="#100F0D"></path>
                        <path d="M98.3990314,24.2202892 C84.3840559,24.1825115 67.0067616,22.3226081 47.8886945,14.3535262 C43.0000955,17.575845 39.1768106,20.1758449 34.1258929,22.9759415 C30.4155548,25.0377772 29.9453133,25.5121733 26.4428979,27.3418351 L27.2705307,30.5827045 C33.372946,35.7363276 33.1427045,35.9178735 39.5674386,39.7554579 C44.8853129,42.9302405 50.1192258,46.4900471 53.8888875,48.490337 C55.3173899,51.4304335 56.9145879,53.8590325 58.1857956,56.7878247 C58.7865686,58.1684043 60.200385,59.4561338 61.9376796,60.6461821 C65.8438631,63.3246361 67.9249258,64.0247327 73.6209643,66.3168099 C78.6488869,68.3386456 81.4594183,68.9896601 87.6449253,70.713718 C91.9187417,74.0632832 99.4299492,78.2544908 106.86763,81.8349738 C113.639611,85.0950703 120.170045,85.6178723 127.747823,85.6717853 C132.903378,85.7099495 133.233813,85.5985486 139.890818,84.5429931 C136.842509,83.9383554 135.172943,83.411882 132.298547,82.1180656 C131.43961,81.7312057 128.968113,80.3060849 126.856035,78.5239594 C133.000963,78.5628 137.547823,77.6079208 143.751687,76.1586454 C147.685987,75.2430899 149.907243,74.5576793 153.770044,73.0638629 C150.028982,72.7555537 147.938161,72.4618339 144.295649,71.7391286 C141.39903,71.1647325 139.785504,70.7672446 136.970045,69.9350707 C135.983571,67.7999983 135.256035,66.6809645 133.767146,64.9920757 C131.629948,62.5660854 131.701446,62.6981627 128.38647,60.8129453 C146.63188,55.1132353 155.635745,47.4007718 161.296614,41.6821246 C166.965213,35.957487 171.511107,30.1653133 174.968112,24.1855066 C163.920769,34.3904339 150.424151,41.5198057 137.317871,45.2607718 C138.510141,44.7218346 137.317871,45.2607718 137.317871,45.2607718 C144.589368,41.202028 148.423185,38.2268589 154.040576,32.2848301 C159.247339,26.7738158 163.309175,21.2424149 166.266663,15.5381639 C156.465697,24.998067 144.591301,32.0202891 132.869562,36.2368107 C139.815455,31.2956514 143.414489,27.9468592 148.741059,21.4685019 C152.722701,16.6300479 155.563281,12.2135263 158.214489,7.4339515 C149.457001,16.3662798 139.342992,22.9759415 128.765214,27.5943954 C134.014489,23.8579704 136.735262,21.3285019 140.762315,16.4300479 C145.228982,11.0039611 148.571011,5.70539116 150.844441,0.300423181 C136.497581,15.4404827 116.825118,24.998067 98.3990314,24.2202892 L98.3990314,24.2202892" id="path32" fill="#ADA157" fill-rule="nonzero"></path>
                        <path d="M43.0423178,33.5303373 L43.0094675,33.5122697 C42.0905303,32.9573905 41.1631874,32.3807721 40.2573903,31.7949751 L40.0777768,31.6802891 L43.976424,30.6608688 L44.0195158,30.649178 L44.0560375,30.6763277 C44.869081,31.2831876 45.7000955,31.8908205 46.5975834,32.5294678 L46.766279,32.6494678 L43.080482,33.5208687 L43.0423178,33.5303373" id="path34" fill="#D1C990" fill-rule="nonzero"></path>
                        <path d="M72.2165199,45.725796 C64.5659887,44.3353612 54.6180663,40.2860859 44.9253129,34.6154581 L44.713139,34.4908204 L48.4020278,33.739033 L48.4412548,33.7314967 L48.4744915,33.7544919 C56.5662788,39.3236705 64.5697568,43.2899506 72.261061,45.5430906 L72.2165199,45.725796" id="path36" fill="#D1C990" fill-rule="nonzero"></path>
                        <path d="M125.967147,38.5518831 C113.911108,41.9844434 105.420287,44.0685013 95.843186,43.8405786 C88.8545872,43.6790327 79.1969062,42.3863758 71.2031866,39.458743 C56.2368102,33.9787431 50.1377765,31.1855065 38.1864725,22.6724632 L47.5181631,15.7103378 L60.9261821,20.6706275 L102.69565,25.4155549 L114.874393,23.8330429 L133.782605,15.1807726 L145.294682,7.66945875 L138.673426,17.4037677 L125.143958,28.1959413 L132.352654,26.8569075 L144.624151,19.9380671 L154.269561,13.9322702 L142.589368,25.1132361 L125.967147,38.5518831 L125.967147,38.5518831" id="path38" fill="#D1C990"></path>
                        <path d="M116.829949,67.1489838 C113.025118,65.885409 107.740094,63.3711095 101.657968,58.9571966 C105.151688,59.808984 107.169079,60.1562304 110.745891,60.5185492 C115.762316,61.0311096 118.654103,61.0450226 123.678258,60.5827038 L128.724634,63.8681143 L135.190335,70.5664717 C127.906277,70.4049258 120.764248,68.4567133 116.829949,67.1489838 L116.829949,67.1489838" id="path40" fill="#D1C990" fill-rule="nonzero"></path>
                        <path d="M77.3241527,56.6209648 C71.9939112,56.6209648 67.3259887,55.7593223 63.0513994,53.9847329 C63.0050226,53.964733 62.9672448,53.9281146 62.944926,53.8817378 L60.4197086,48.4631872 C60.3842497,48.3877283 60.3989357,48.2990326 60.456327,48.2386461 C60.495554,48.1959408 60.5491772,48.1743949 60.6046362,48.1743949 C60.6299502,48.1743949 60.6559405,48.178936 60.6804816,48.189564 C67.7083075,51.0020277 74.6297566,53.4703368 88.2004809,55.1453126 C88.3012538,55.1573899 88.3770992,55.2403851 88.3808674,55.3434769 C88.3831862,55.4434769 88.3117852,55.5321725 88.2129447,55.5491774 C84.3482105,56.2613513 80.6842492,56.6209648 77.3241527,56.6209648" id="path42" fill="#100F0D" fill-rule="nonzero"></path>
                        <path d="M99.9739105,51.0560374 C99.9758429,51.0560374 99.9758429,51.0560374 99.9787415,51.0560374 C100.3942,51.0661823 100.808693,51.0711098 101.225118,51.0711098 C121.631881,51.0711098 142.998064,39.0522696 156.457001,26.281352 C142.422219,37.0105305 120.752654,44.5440569 103.175843,44.5440569 C100.623186,44.5440569 98.1913019,44.3795158 95.9560362,44.0591293 L95.8208672,44.0443467 C95.7144904,44.031883 95.6351667,43.9421245 95.6385483,43.8330424 C95.6423164,43.7255062 95.7280169,43.6405786 95.8355532,43.6374868 C119.689852,42.7196125 138.02705,28.5408689 146.954586,20.0241541 C133.790335,30.0298543 113.10821,37.2871488 96.9545869,37.2871488 C95.2936208,37.2871488 93.6888865,37.2056029 92.1927513,37.0519798 L91.9210605,37.0346851 C91.8119784,37.0270522 91.7289832,36.9391295 91.7289832,36.8289846 C91.730046,36.7206754 91.8157465,36.6326561 91.9232827,36.6282116 C112.143959,35.697487 129.197098,24.4666661 139.146856,13.5624151 C127.041543,23.4812555 111.767147,29.3391297 97.7623164,29.3391297 C96.7516884,29.3391297 95.7389348,29.3100476 94.7588382,29.2462795 C94.6927513,29.2444437 88.158935,28.9892746 85.2593215,28.580579 C70.7257953,26.5187433 64.8645394,24.3402892 55.1554576,20.7284053 C52.9204818,19.8984536 50.3902403,18.958357 47.5203853,17.9332363 C44.5652163,19.3131396 40.4532357,22.1026081 39.0628976,23.4857965 C38.6394193,25.2898544 38.2672454,26.3111105 37.4199991,27.9981636 C36.6658928,29.5082118 36.1333324,30.3480186 35.116231,31.6195161 C38.8251198,34.9022213 41.1107236,36.7138155 45.1823177,39.5999024 C49.4387427,42.6185497 51.9912064,44.2202887 56.5647329,46.7345882 C56.6025107,46.7542017 56.6330421,46.786279 56.6515928,46.8252162 C56.6515928,46.8252162 59.2187425,52.2335253 60.33024,54.5301436 C60.5306265,54.9415445 60.6789357,55.2743948 60.8065685,55.5567136 C61.2141047,56.4670517 61.382897,56.8418343 62.3475347,57.845699 C62.8864719,58.4087908 68.2076311,60.9620275 72.1089837,62.1792255 C77.3252155,63.8069549 86.7919785,65.5770998 95.2445387,65.6167133 C95.3351667,65.6167133 95.4147802,65.6751674 95.4389348,65.7628003 C95.4650218,65.8487906 95.4294662,65.9439597 95.3521715,65.9911095 C95.2593213,66.0495636 93.2121716,67.3252157 88.9768094,68.1329452 C90.7113987,68.3461819 94.0217368,68.6764234 97.9855048,68.6764234 C99.0956497,68.6764234 100.203862,68.6518823 101.273427,68.6009645 C101.366181,68.5888872 101.457002,68.6594186 101.481157,68.7548775 C101.506278,68.8481142 101.459901,68.9462785 101.371978,68.9877277 L96.5274372,71.3107229 C101.209659,72.9517856 104.7942,73.9601914 109.84734,74.5406745 C111.172944,74.6923653 112.374876,74.8392252 113.50048,74.9766165 C117.669562,75.4856986 120.681156,75.8525585 124.858934,75.8525585 C125.781639,75.8525585 126.72077,75.8355537 127.732364,75.7978725 C129.12077,75.7472445 130.180673,75.7220271 131.025117,75.6997083 C134.352654,75.6167131 134.352654,75.6167131 138.277291,74.5553605 C138.704344,74.4399015 139.17391,74.3127518 139.697581,74.1708194 C137.689852,73.903573 135.650238,73.5760368 133.730431,72.8827035 C132.778741,72.5354571 132.411591,71.7572929 131.987436,70.8559403 C131.877291,70.6181625 131.760383,70.368404 131.625117,70.1162301 C131.1942,69.2983558 129.481156,67.2913027 128.824151,66.7112061 C127.064731,65.1532351 126.128499,64.5663752 123.820287,63.5691772 C123.475359,63.420095 123.225118,63.2246361 122.936229,62.9963269 C122.596132,62.7275347 122.171978,62.3916893 121.421253,62.0169067 C121.391301,62.002897 121.367147,61.9802883 121.347823,61.9557472 C121.016422,61.5104332 120.435746,60.9544912 119.820287,60.364926 C118.767147,59.3561338 117.772944,58.4031869 117.635746,57.6936217 C117.626084,57.6370034 117.638644,57.5785493 117.672461,57.5324623 C117.706277,57.4853126 117.758451,57.455844 117.816422,57.4513029 C135.774876,55.6321725 152.276325,47.4158442 166.91787,33.0094678 C152.03961,44.4995158 129.277291,52.3241533 110.086954,52.3241533 C106.452171,52.3241533 103.036712,52.035361 99.9371956,51.4598055 C99.8318816,51.4409649 99.760384,51.344733 99.7700458,51.2371968 C99.7826062,51.134105 99.8676304,51.0560374 99.9739105,51.0560374 L99.9739105,51.0560374 Z M161.441542,41.8258927 C156.934296,46.3798056 150.563281,51.8618345 139.851204,56.699129 L136.329465,67.4724621 L135.687919,67.122607 C136.18647,67.8856988 136.61932,68.6990321 137.116905,69.7663751 C139.849272,70.5721721 141.483088,70.9729451 144.335262,71.5391286 C147.96618,72.2580658 150.085987,72.5543943 153.787436,72.8611576 C153.884054,72.8686938 153.959416,72.9411576 153.973909,73.0347808 C153.985503,73.1299499 153.931397,73.2212542 153.844441,73.2551673 C149.985503,74.7463749 147.732363,75.441544 143.798064,76.3568097 C137.737195,77.7736212 133.302412,78.7077275 127.42705,78.7285004 C129.468596,80.371399 131.650238,81.6013506 132.382605,81.9315922 C135.231881,83.2137177 136.853137,83.7326549 139.930431,84.34251 C140.028016,84.3618336 140.096615,84.447824 140.093716,84.5467612 C140.093716,84.6459882 140.021253,84.7293699 139.922702,84.7448288 L138.714972,84.9362298 C133.20676,85.8125582 132.592267,85.9080172 127.744924,85.8763264 C119.628016,85.8186452 113.289852,85.1524616 106.780674,82.0191284 C98.4985483,78.0333314 91.4934277,73.9821238 87.5505292,70.8994185 C86.5801911,70.6276311 85.6921718,70.3853123 84.8659882,70.157776 C80.4480173,68.9435732 77.7819304,68.2095635 73.5450223,66.5055056 L71.861834,65.8317858 C67.3814476,64.0417375 65.3359404,63.2246361 61.8225105,60.8148777 C59.8022207,59.4315927 58.5514961,58.1420275 57.9981628,56.8682111 C57.2762305,55.2037667 56.4617377,53.7269552 55.5989358,52.1656026 C54.9796122,51.0416412 54.3391291,49.8811582 53.7344914,48.6394191 C51.380192,47.3863756 48.4360374,45.5302404 45.3219312,43.5691777 C43.4171004,42.3701439 41.4462792,41.1285014 39.4622212,39.9286947 C32.8415451,35.9284049 30.6464727,34.3806755 26.5368109,31.1371973 C26.4908206,31.1024147 26.4625114,31.0485016 26.4601926,30.989178 L26.2398061,27.3546853 C26.2344921,27.2735259 26.2775839,27.198067 26.3488882,27.1602892 C28.334492,26.1247336 29.3493712,25.5197095 30.523091,24.8203859 C31.4134292,24.2919801 32.4226079,23.6888883 34.0270523,22.7981637 C38.4665691,20.3343956 41.9882115,18.0087918 46.065023,15.3128499 L47.7766172,14.1817388 C47.8351679,14.1458934 47.9060858,14.1402895 47.9672452,14.1644441 C63.7552641,20.7457966 80.2520753,23.9681153 98.407727,24.0171975 C99.0995144,24.0462796 99.8048284,24.0609656 100.504345,24.0609656 C117.750722,24.0609656 136.514972,15.1237677 150.695648,0.160401542 C150.737194,0.118885891 150.790334,0.0966183551 150.844441,0.0966183551 C150.847339,0.0966183551 150.847339,0.0966183551 150.849272,0.0966183551 C150.982605,0.0917119494 151.060866,0.185688401 151.060866,0.300423181 C151.060866,0.350619315 151.040576,0.395153613 151.01159,0.431763274 C148.756518,5.77483077 145.453136,11.0511108 140.919803,16.5595165 C137.30048,20.9612555 134.759417,23.4367144 130.486953,26.5971974 C140.95362,21.7787434 150.225117,15.2879223 158.067629,7.29280175 C158.141059,7.22109161 158.251204,7.2086375 158.337194,7.27053122 C158.417387,7.3312945 158.441542,7.44339112 158.393233,7.53245392 C155.415455,12.8997098 152.486953,17.2376807 148.897581,21.5979705 C143.861832,27.7227046 140.407726,31.0231876 134.210625,35.5246368 C146.107243,31.0261828 157.116904,24.0878255 166.124634,15.3914006 C166.196131,15.3227049 166.308208,15.3128499 166.389368,15.3740093 C166.470527,15.4359416 166.493716,15.5430914 166.447339,15.631787 C163.495648,21.3255067 159.486953,26.817294 154.189368,32.4253132 C149.000962,37.9128493 145.255069,40.926569 138.968112,44.558453 C152.171977,40.5015449 164.849271,33.2571006 174.828015,24.036811 C174.900479,23.9681153 175.015455,23.9681153 175.095648,24.0262796 C175.173909,24.0908207 175.196131,24.2009656 175.143957,24.2889849 C171.686952,30.2694678 167.204827,36.0069556 161.441542,41.8258927 L161.441542,41.8258927 Z" id="path44" fill="#100F0D" fill-rule="nonzero"></path>
                    </g>
                </g>
            </g>
        </g>
    </g>
</svg>