<?xml version="1.0" encoding="UTF-8"?>
<svg width="200px" height="200px" viewBox="0 0 200 200" version="1.1" xmlns="http://www.w3.org/2000/svg" xmlns:xlink="http://www.w3.org/1999/xlink">
    <title>new-jersey-city_BGL</title>
    <defs>
        <polygon id="path-1" points="0 1.02891566 171.574699 1.02891566 171.574699 190.361446 0 190.361446"></polygon>
    </defs>
    <g id="new-jersey-city_BGL" stroke="none" stroke-width="1" fill="none" fill-rule="evenodd">
        <g id="new-jersey-city" transform="translate(14.000000, 0.000000)">
            <g id="Group-5">
                <path d="M29.0987952,63.9807229 C37.4325301,41.7722892 48.5373494,38.253012 55.8975904,38.8626506 C65.1072289,36.1710843 74.9409639,39.5975904 80.8084337,46.3891566 C80.8084337,46.3891566 82.013253,40.9240964 79.1349398,32.753012 C79.1349398,32.753012 94.5361446,42.4216867 92.0036145,65.0903614 C92.0036145,65.0903614 103.139759,69.546988 106.762651,58.8 C115.2,33.7698795 103.139759,10.6674699 103.139759,10.6674699 C103.139759,10.6674699 103.410843,15.4325301 99.6493976,21.3144578 C91.873494,9.05060241 78.3807229,0.922891566 63.0144578,0.922891566 C45.213253,0.922891566 29.9048193,11.8156627 23.1144578,27.4313253 C29.2566265,23.4963855 39.4783133,19.2253012 52.8614458,21.7518072 C52.8614458,21.7518072 21.7795181,23.7253012 18.6325301,52.0457831 C16.5963855,70.353012 12.6168675,81.2795181 7.98313253,88.7975904 C15.4180723,85.926506 23.4349398,79.0746988 29.0987952,63.9807229" id="Fill-1" fill="#F6C03C"></path>
                <path d="M35.2746988,65.5638554 C38.9481928,49.513253 47.1409639,41.4216867 55.8975904,38.8626506 C48.5373494,38.253012 37.4325301,41.7722892 29.0987952,63.9807229 C23.4349398,79.0746988 15.4180723,85.926506 7.98313253,88.7975904 C5.44698795,92.9096386 2.71686747,96.0060241 0,98.7240964 C0,98.7240964 27.739759,98.4951807 35.2746988,65.5638554" id="Fill-3" fill="#FFFFFE"></path>
                <path d="M147.642169,126.081928 L152.519277,119.990361 L149.789157,82.0843373 L145.184337,79.6614458 C137.550602,62.2650602 121.090361,54.9542169 116.833735,53.3120482 C119.103614,21.2819277 103.139759,10.6674699 103.139759,10.6674699 C103.139759,10.6674699 115.2,33.7698795 106.762651,58.8 C103.139759,69.546988 92.0036145,65.0903614 92.0036145,65.0903614 C94.5361446,42.4216867 79.1349398,32.753012 79.1349398,32.753012 C82.013253,40.9240964 80.8084337,46.3891566 80.8084337,46.3891566 C69.360241,33.1385542 42.8108434,32.6337349 35.2746988,65.5638554 C27.739759,98.4951807 0,98.7240964 0,98.7240964 C31.2240964,106.33494 47.2686747,89.7192771 47.2686747,89.7192771 L45.0891566,119.990361 L49.9674699,126.081928 L49.1698795,141.515663 C48.8168675,148.322892 51.3060241,154.993976 56.0843373,159.855422 C75.8650602,179.979518 98.8048193,190.625301 98.8048193,190.625301 C98.8048193,190.625301 121.743373,179.979518 141.525301,159.855422 C146.304819,154.993976 148.792771,148.322892 148.439759,141.515663 L147.642169,126.081928" id="Fill-4" fill="#164B3A"></path>
            </g>
            <path d="M57.7156627,9.40361446 C57.7156627,9.40361446 81.7855422,10.0048193 100.824096,42.6349398 C100.824096,42.6349398 95.3903614,2.12771084 57.7156627,9.40361446" id="Fill-6" fill="#FFFFFE"></path>
            <path d="M129.23012,111.919277 L98.8036145,125.128916 L68.3783133,111.919277 L68.3783133,104.40241 L59.0638554,98.0578313 L57.7686747,116.044578 L62.5915663,122.06747 L61.3915663,142.138554 C61.3915663,145.346988 62.4698795,148.498795 64.5807229,150.755422 C64.5939759,150.768675 64.6072289,150.781928 64.6180723,150.795181 C71.6722892,158.296386 82.6698795,167.822892 98.8048193,176.56506 C114.939759,167.822892 125.937349,158.296386 132.989157,150.795181 C133.00241,150.781928 133.015663,150.768675 133.028916,150.755422 C135.139759,148.498795 136.218072,145.346988 136.218072,142.138554 L135.016867,122.06747 L139.839759,116.044578 L138.545783,98.0578313 L129.23012,104.40241 L129.23012,111.919277" id="Fill-7" fill="#FFFFFE"></path>
            <path d="M139.839759,116.044578 L138.545783,98.0578313 L129.23012,104.40241 L129.23012,111.919277 L98.8036145,125.128916 L98.8036145,169.237349 C82.6698795,160.495181 70.7710843,150.044578 63.7168675,142.543373 C63.7048193,142.53012 63.6927711,142.516867 63.6795181,142.503614 C62.1746988,140.895181 61.8096386,138.83012 61.7216867,136.618072 L61.3915663,142.138554 C61.3915663,145.346988 62.4698795,148.498795 64.5807229,150.755422 C64.5939759,150.768675 64.6072289,150.781928 64.6180723,150.795181 C71.6722892,158.296386 82.6698795,167.822892 98.8048193,176.56506 C114.939759,167.822892 125.937349,158.296386 132.989157,150.795181 C133.00241,150.781928 133.015663,150.768675 133.028916,150.755422 C135.139759,148.498795 136.218072,145.346988 136.218072,142.138554 L135.016867,122.06747 L139.839759,116.044578" id="Fill-8" fill="#F6C03C"></path>
            <path d="M112.724096,64.8891566 L112.473494,64.8289157 C112.473494,64.8493976 112.478313,64.8686747 112.478313,64.8891566 C112.478313,69.473494 106.301205,73.1891566 98.6819277,73.1891566 C91.0626506,73.1891566 84.8855422,69.473494 84.8855422,64.8891566 C84.8855422,64.8891566 64.1012048,73.3277108 62.213253,90.7240964 L98.8036145,115.607229 L135.395181,90.7240964 C133.508434,73.3277108 112.724096,64.8891566 112.724096,64.8891566" id="Fill-9" fill="#FFFFFE"></path>
            <path d="M112.724096,64.8891566 L112.473494,64.8289157 C112.473494,64.8493976 112.478313,64.8686747 112.478313,64.8891566 C112.478313,69.4481928 106.36747,73.1457831 98.8036145,73.1855422 L98.8036145,73.1855422 C98.7626506,73.1855422 98.7228916,73.1891566 98.6819277,73.1891566 C91.4385542,73.1891566 85.5096386,69.8289157 84.9421687,65.5590361 C83.8939759,66.8192771 83.2915663,68.2361446 83.2915663,69.7409639 C83.2915663,74.9060241 90.2301205,79.0927711 98.8036145,79.1204819 L98.8036145,115.607229 L135.395181,90.7240964 C133.508434,73.3277108 112.724096,64.8891566 112.724096,64.8891566" id="Fill-10" fill="#F6C03C"></path>
            <path d="M124.356627,121.071084 L125.204819,147.06747 L126.015663,146.316867 C127.016867,145.390361 127.950602,144.495181 128.818072,143.63494 C129.721687,142.739759 130.239759,141.46506 130.239759,140.137349 L129.23012,124.618072 L124.356627,121.071084" id="Fill-11" fill="#164B3A"></path>
            <path d="M113.885542,155.675904 L114.655422,155.107229 C115.748193,154.3 116.795181,153.5 117.8,152.709639 C118.943373,151.809639 119.626506,150.371084 119.626506,148.857831 L118.957831,128.733735 L113.40241,125.645783 L113.885542,155.675904" id="Fill-12" fill="#164B3A"></path>
            <path d="M102.56747,162.671084 L103.3,162.226506 C104.26988,161.639759 105.216867,161.050602 106.139759,160.461446 C107.477108,159.609639 108.307229,158.040964 108.307229,156.368675 L108.00241,134.578313 L102.446988,131.490361 L102.56747,162.671084" id="Fill-13" fill="#164B3A"></path>
            <path d="M67.3698795,140.137349 C67.3698795,141.46506 67.8879518,142.739759 68.7903614,143.63494 C69.6578313,144.495181 70.5915663,145.390361 71.5939759,146.316867 L72.4048193,147.06747 L73.2518072,121.071084 L68.3783133,124.618072 L67.3698795,140.137349" id="Fill-14" fill="#164B3A"></path>
            <path d="M77.9843373,148.857831 C77.9843373,150.371084 78.6662651,151.809639 79.8084337,152.709639 C80.813253,153.5 81.860241,154.3 82.9542169,155.107229 L83.7240964,155.675904 L84.2072289,125.645783 L78.6518072,128.733735 L77.9843373,148.857831" id="Fill-15" fill="#164B3A"></path>
            <g id="Group-20" transform="translate(0.000000, 9.638554)">
                <mask id="mask-2" fill="white">
                    <use xlink:href="#path-1"></use>
                </mask>
                <g id="Clip-17"></g>
                <path d="M89.3036145,146.73012 C89.3036145,148.40241 90.1325301,149.971084 91.4698795,150.822892 C92.3927711,151.412048 93.339759,152.001205 94.3096386,152.587952 L95.0409639,153.03253 L95.1626506,121.851807 L89.6084337,124.939759 L89.3036145,146.73012" id="Fill-16" fill="#164B3A" mask="url(#mask-2)"></path>
                <path d="M171.575904,126.76747 L170.324096,126.76747 L170.324096,123.114458 L170.186747,123.114458 L169.038554,125.66988 L168.161446,125.66988 L167,123.06988 L166.831325,123.06988 L166.831325,126.76747 L165.644578,126.76747 L165.644578,122.095181 L167.677108,122.095181 L168.620482,124.379518 L169.6,122.095181 L171.575904,122.095181 L171.575904,126.76747 Z M164.90241,123.108434 L163.566265,123.108434 L163.566265,126.76747 L162.307229,126.76747 L162.307229,123.108434 L160.972289,123.108434 L160.972289,122.095181 L164.90241,122.095181 L164.90241,123.108434 L164.90241,123.108434 Z" id="Fill-18" fill="#BBBFBD" mask="url(#mask-2)"></path>
                <path d="M156.055422,119.122892 L160.972289,112.981928 L157.680723,67.2831325 L151.520482,64.0433735 C143.545783,47.153012 124.439759,38.0072289 124.439759,38.0072289 C124.008434,9.58674699 103.139759,1.02891566 103.139759,1.02891566 C103.139759,1.02891566 119.103614,11.6433735 116.833735,43.673494 C121.090361,45.3156627 137.550602,52.626506 145.184337,70.0228916 L149.789157,72.4457831 L152.519277,110.351807 L147.642169,116.443373 L148.439759,131.877108 C148.792771,138.684337 146.304819,145.355422 141.525301,150.216867 C121.743373,170.340964 98.8048193,180.986747 98.8048193,180.986747 C98.8048193,180.986747 75.8650602,170.340964 56.0843373,150.216867 C51.3060241,145.355422 48.8168675,138.684337 49.1698795,131.877108 L49.9674699,116.443373 L45.0891566,110.351807 L47.2686747,80.0807229 C47.2686747,80.0807229 31.2240964,96.6963855 0,89.0855422 C0,89.0855422 11.9060241,100.736145 37.9481928,94.7975904 L36.6385542,112.981928 L41.5542169,119.122892 L40.813253,131.446988 C40.2421687,140.926506 43.8361446,150.214458 50.7240964,156.753012 C76.5289157,181.251807 98.8048193,190.361446 98.8048193,190.361446 C98.8048193,190.361446 121.081928,181.251807 146.886747,156.753012 C153.772289,150.214458 157.36747,140.926506 156.79759,131.446988 L156.055422,119.122892" id="Fill-19" fill="#BBBFBD" mask="url(#mask-2)"></path>
            </g>
        </g>
    </g>
</svg>