<?xml version="1.0" encoding="UTF-8"?>
<svg width="200px" height="200px" viewBox="0 0 200 200" version="1.1" xmlns="http://www.w3.org/2000/svg" xmlns:xlink="http://www.w3.org/1999/xlink">
    <!-- Generator: Sketch 54.1 (76490) - https://sketchapp.com -->
    <title>north-park</title>
    <desc>Created with Sketch.</desc>
    <g id="north-park" stroke="none" stroke-width="1" fill="none" fill-rule="evenodd">
        <g id="north-park_BGL">
            <g id="north-park" transform="translate(62.000000, 0.000000)">
                <g id="g10" transform="translate(38.000000, 100.744747) scale(-1, 1) rotate(-180.000000) translate(-38.000000, -100.744747) translate(0.000000, 0.744747)" fill-rule="nonzero">
                    <g id="g12">
                        <polyline id="path14" fill="#FFFFFF" points="31.4250858 40.9700151 36.8401931 38.7156377 38.9282504 38.6878253 44.5646559 40.9978276 46.1167002 25.2619998 37.930237 7.78940151 29.8636167 25.2619998 31.4250858 40.9700151"></polyline>
                        <polyline id="path16" fill="#FFFFFF" points="33.5321775 144.07022 33.5321775 137.971815 37.4310917 138.018015 42.4484166 137.971815 42.4484166 144.0887 33.5321775 144.07022"></polyline>
                        <path d="M29.8636167,25.2619998 C29.8636167,25.2619998 30.8890729,35.0658342 31.4250858,40.9700151 C32.987941,40.2347876 34.5799945,39.5923298 36.1876637,38.9642864 C36.4041571,38.8791859 36.6247161,38.8051734 36.8401931,38.7156377 L37.0528057,38.6416253 C37.0528057,37.976437 37.0711933,37.2928612 37.0802486,36.6088233 C37.0986362,35.9804103 37.1170238,35.3708469 37.1170238,34.7424339 C37.126079,34.1974581 37.1444666,33.624208 37.154261,33.0698074 C37.1726486,32.5616069 37.1816115,32.0722561 37.2000915,31.5640556 L37.2466611,30.2054047 C37.2556239,29.7990291 37.2740115,29.4016163 37.283806,28.9952407 C37.3021936,28.6534527 37.3296364,28.30224 37.348024,27.9326396 C37.3570792,27.6276269 37.3754668,27.3226142 37.3852613,27.0176015 C37.4036489,26.7404013 37.4220365,26.4820506 37.4498489,26.2048503 C37.4591813,25.9828129 37.4776613,25.7518127 37.4866241,25.5208125 C37.5050118,25.3360123 37.5234918,25.1422493 37.5331938,24.9385995 C37.5512118,24.7816118 37.5606366,24.6151992 37.5974119,24.4582114 C37.6064671,24.3290361 37.6252243,24.1993988 37.6346491,24.0702235 C37.6620919,23.802448 37.7086616,23.5436354 37.764194,23.2942475 C37.8006921,23.1829978 37.8284121,23.0722101 37.8656493,22.9708472 C37.9024246,22.9152223 37.9396618,22.8228223 38.0042495,22.8133974 C38.1334248,22.8133974 38.1890496,23.1367978 38.2078069,23.2108102 C38.2904125,23.5525982 38.3366126,23.9038109 38.3831822,24.2550236 C38.4106251,24.4765991 38.4200499,24.6892117 38.4474927,24.9112491 C38.4846375,25.1974122 38.4936927,25.4930001 38.5214128,25.7796251 C38.5492252,26.1492255 38.5676128,26.509401 38.5954252,26.8700386 C38.6232377,27.3226142 38.6416253,27.7756519 38.6698073,28.2282275 C38.6972501,28.7826281 38.7156377,29.318641 38.7430806,29.8730415 C38.7614682,30.5104173 38.7896502,31.1666428 38.798613,31.8040186 C38.798613,31.8780311 38.798613,31.9336559 38.817093,31.9982436 C38.8636627,33.8278578 38.9008075,36.0454599 38.9282504,38.6878253 C39.205081,38.7618378 39.9814266,39.0484629 39.9814266,39.0484629 C40.1846144,39.140863 40.3600822,39.1960258 40.5178091,39.2700383 L40.9426647,39.427026 L40.9981972,39.4454137 L41.0440276,39.4642633 C41.3490403,39.5934386 41.6356654,39.7226139 41.9586961,39.8522513 C42.2636164,39.9814266 42.5686291,40.1110639 42.8920294,40.249664 C43.252667,40.4066518 43.6034177,40.5542147 43.9178552,40.7116645 L43.9828125,40.7390149 C43.9828125,40.7390149 44.0376981,40.7668273 44.0654182,40.785215 L44.1581879,40.831415 L44.3426184,40.9148523 C44.4350185,40.9426647 44.4996986,40.9888648 44.5646559,40.9978276 C45.0450439,36.1840601 46.1167002,25.2619998 46.1167002,25.2619998 L37.9951942,7.92800165 L37.930237,7.78940151 L29.8636167,25.2619998 Z M33.5321775,144.07022 C34.0032332,144.09794 34.4652336,144.125661 34.9181788,144.144141 C35.8790474,144.171861 36.8766912,144.190341 37.9118494,144.190341 L37.9951942,144.190341 C38.5770376,144.190341 39.1318078,144.190341 39.7042263,144.171861 C40.1106943,144.171861 40.4990519,144.162621 40.9148523,144.144141 L41.6630158,144.116421 C41.9312533,144.09794 42.1806411,144.09794 42.4484166,144.0887 L42.4484166,137.971815 C41.2750278,137.990295 39.8890265,138.018015 38.5402624,138.018015 C38.4474927,140.263337 38.318225,141.325938 38.2164925,141.815658 C38.2078069,141.935778 38.1150372,142.425499 37.9951942,142.453219 L37.9854922,142.453219 C37.8840369,142.453219 37.782212,141.945018 37.764194,141.815658 C37.6530367,141.325938 37.5331938,140.263337 37.4310917,138.018015 C37.4310917,138.018015 34.6871786,137.990295 33.5321775,137.971815 L33.5321775,144.07022 Z M75.906674,114.400552 L75.906674,134.580731 C66.4631076,136.465693 56.9188251,137.352734 47.3084765,137.787014 C46.7732028,137.814734 46.2184327,137.842454 45.7380446,137.860934 L45.7380446,143.8577 C49.1846604,143.5343 52.6124265,142.961419 55.9298669,141.945018 C58.3135121,141.224298 60.6148287,140.300297 62.8411165,139.200736 C62.8966489,141.529218 62.8692061,143.88542 62.8692061,146.213903 L62.8692061,148.117344 L61.4366351,149.087545 C61.4092847,149.124505 61.1966721,149.253866 60.8916594,149.457146 C60.7992593,149.494106 60.716284,149.540306 60.6512343,149.604986 C60.5776839,149.641946 60.4942466,149.688146 60.4387141,149.715866 C60.2726712,149.817506 60.0691138,149.937626 59.8662032,150.048506 C59.5612829,150.224066 59.2006453,150.427347 58.7755125,150.630627 C58.6184324,150.704547 58.4986818,150.778467 58.3597121,150.852387 C58.221112,150.926307 58.0640318,151.000227 57.8886564,151.074147 C57.0014308,151.517668 55.8836669,151.998148 54.6175085,152.478629 C53.4072521,152.949869 52.0396383,153.41187 50.5240921,153.81843 C50.4966492,153.84615 50.413674,153.86463 50.3396615,153.87387 C49.8310914,154.01247 49.3045033,154.14183 48.7688599,154.27119 C47.6788161,154.529911 46.523815,154.760911 45.2760441,154.973431 C45.525432,155.610992 45.6824197,156.303992 45.6824197,157.033953 C45.6824197,157.810114 45.525432,158.493875 45.4330319,158.983595 C45.3774994,159.131435 45.1280192,160.683757 45.0728563,161.358277 C44.9526438,162.494798 44.8786314,163.68676 44.8230989,164.906441 L44.8230989,165.054281 C44.8230989,165.664122 44.7956561,166.227762 44.8230989,166.772923 C44.8230989,167.308843 44.8511885,167.789324 44.8511885,168.306764 C44.8230989,170.200966 44.9984743,172.104408 45.1280192,174.05405 L45.2204193,175.061211 C45.3222442,176.280892 45.4052195,177.435893 45.5810568,178.535454 C45.91342,180.725336 45.1562012,182.203738 44.4632006,183.063058 C44.315268,183.238619 44.1300982,183.395699 43.9828125,183.562019 L47.5492712,186.509582 L50.5890493,189.041344 L47.5304215,191.563867 L39.9814266,197.745433 L37.9118494,199.436354 L35.8328473,197.745433 L28.3390152,191.591587 L25.2436122,189.069064 L28.3112028,186.537302 L31.8780311,183.571259 C31.4990059,183.238619 31.1756056,182.832058 30.8890729,182.379298 C29.9101864,180.725336 30.1592046,179.015935 30.2700847,178.018014 C30.3072295,177.888653 30.3072295,177.740813 30.335042,177.611453 C30.4180173,176.789092 30.4920297,175.975972 30.5476546,175.162851 C30.7414176,173.240929 30.9172549,171.208127 30.9446054,169.184565 C30.9724178,168.888885 30.9724178,168.602444 30.9724178,168.306764 L30.9724178,167.040883 C30.9724178,166.200042 30.9724178,165.405401 30.9446054,164.629241 C30.9172549,163.557399 30.8522053,162.504038 30.7508424,161.515357 C30.6674051,160.803877 30.6122422,160.147836 30.5198422,159.519516 C30.4920297,159.362435 30.4642173,159.205355 30.4180173,159.039035 C30.2700847,158.503115 30.1592046,157.819354 30.1592046,157.033953 C30.1592046,156.673593 30.1592046,156.322472 30.2426419,155.971352 C30.2700847,155.795792 30.3072295,155.638712 30.3624848,155.481632 C30.4180173,155.306071 30.4920297,155.112031 30.5476546,154.927231 C29.3554162,154.733191 28.1820275,154.502191 27.091614,154.24347 C25.9647949,153.97551 24.9480243,153.68907 23.9774538,153.39339 C23.5804106,153.254789 23.174035,153.125429 22.7671974,152.986829 C22.7120345,152.977589 22.6658345,152.959109 22.6102096,152.931389 C21.9082462,152.700389 21.2982208,152.450909 20.6976202,152.219908 C20.0875948,151.988908 19.5516743,151.739428 19.0249937,151.508428 C18.6926306,151.360588 18.4060055,151.231227 18.1291749,151.083387 C17.4541922,150.759987 16.8908289,150.473547 16.3915912,150.214826 C16.2811731,150.140906 16.1516281,150.048506 16.0036032,149.993066 C15.14419,149.484866 14.6359895,149.152225 14.5435894,149.087545 L13.1486252,148.117344 L13.1486252,139.311616 C13.1486252,139.339336 16.179071,140.549777 16.4194036,140.651417 C18.6644486,141.510738 20.6701774,142.148299 22.9704776,142.730419 C25.3543999,143.33102 27.8492024,143.64518 30.2700847,143.83922 L30.2700847,137.888654 C29.3832286,137.860934 28.3206276,137.814734 27.5720021,137.787014 L26.9162386,137.759294 C17.9346727,137.426654 8.8242086,136.299373 0,134.599211 L0,83.1233058 C0,76.7660872 0,71.8316452 0,71.8316452 L0,71.0462445 L0.360216207,70.344281 C0.563424333,69.956293 5.42417173,60.5866467 15.5326399,51.5960255 C16.0866709,51.087825 16.6691611,50.5796245 17.2784472,50.0624612 C17.7870173,49.6282732 18.3046426,49.2214356 18.8221756,48.81506 L18.9698309,48.6948475 C19.3300064,48.4082224 19.7277888,48.1036717 20.1154072,47.8076218 L20.6976202,47.4012462 C21.2054511,47.022221 21.7324088,46.6436579 22.2406093,46.2830203 C22.7209974,45.95962 23.1927922,45.6456445 23.6731803,45.3406318 C23.950011,45.1652564 24.1900664,44.9988439 24.5138363,44.7862313 C25.2436122,44.315268 26.0106254,43.8716552 26.7682137,43.4280423 C27.2764142,43.1230296 27.7846147,42.8458294 28.3112028,42.5780539 C28.3112028,42.4856538 28.2098399,41.5706157 28.1910827,41.3396155 C28.1542151,40.9148523 28.0896274,40.4896271 28.0621846,40.0276266 C27.9510273,38.8358503 27.8127967,37.5238614 27.6734574,36.2024477 C27.6366821,35.9714475 27.4706392,34.058858 27.3966267,33.4672202 L27.3966267,33.4120574 C27.3042266,32.4880565 27.091614,30.2516047 27.0732264,30.0022169 C27.0270264,29.5774536 26.9714015,29.170616 26.9436815,28.7920529 C26.9162386,28.5054278 26.851651,27.6644022 26.8238386,27.5168392 C26.7494565,26.9068138 26.5184563,24.7075993 26.5184563,24.7075993 L26.9162386,23.8948481 L34.9738037,6.40340016 L37.9118494,0 L40.9148523,6.38499407 L49.073503,23.8759985 L49.4618606,24.6892117 L49.3784233,25.5764373 C49.3784233,25.5764373 49.1564783,27.6644022 48.8980353,30.3996296 C48.8796477,30.6400547 48.8522048,30.9078301 48.8240228,31.1482552 C48.7966724,31.4254554 48.7688599,31.7210433 48.7410475,31.9982436 C48.7132351,32.460244 48.6486474,32.9406321 48.6115026,33.4210202 C48.4916597,34.4284584 48.3992596,35.4448594 48.3161919,36.4150603 C48.2696223,36.8582111 47.7062589,42.5040414 47.7062589,42.6058663 L47.8541915,42.6888416 L48.3161919,42.9476543 C48.6115026,43.1140668 50.3486243,44.1304678 50.9492249,44.4906434 L51.7346256,44.9988439 C52.1594813,45.2666193 52.5662265,45.5438196 52.973064,45.8210199 C53.4996522,46.1816574 54.1096776,46.588033 54.6452285,46.9854458 C55.5512114,47.6228216 56.410255,48.2884719 57.2512806,48.9626229 L57.7132811,49.3232605 L58.1102319,49.6466608 C58.4152446,49.8960486 58.7018696,50.1364737 59.0065127,50.4042491 C59.1451129,50.506074 59.2562702,50.6074369 59.3761131,50.7182247 L59.5147132,50.8384372 C59.893646,51.1618375 60.2444891,51.476275 60.6235143,51.7996753 C60.716284,51.8826506 60.7992593,51.9750507 60.9191022,52.058026 L61.9910356,53.0654641 C62.4256857,53.4812645 62.8042488,53.8508649 63.183274,54.2110405 L63.6820497,54.7470534 L64.171493,55.2184786 L64.2920751,55.3292663 C64.2920751,55.3292663 64.3195179,55.3754664 64.3472379,55.393854 C65.1976884,56.3084301 66.1122645,57.2512806 66.9532901,58.2304444 C67.5906659,58.9606823 68.1634541,59.6442582 68.7182242,60.3094464 C69.133655,60.8360345 69.5588802,61.3904351 70.0114559,61.972648 C70.4641239,62.5364734 70.8986815,63.1276491 71.3512572,63.7466374 C71.406882,63.8484623 71.5082449,63.9776376 71.6284574,64.1256625 C71.8728557,64.4259628 72.0800167,64.7908508 72.3009453,65.1142511 C72.5481155,65.4748886 72.7917746,65.8369122 73.0321996,66.2018001 C73.5129573,66.9326849 73.9793005,67.6718856 74.4322458,68.4204187 C74.702978,68.8676351 74.9739875,69.3148516 75.232061,69.7714928 C75.3425715,69.9663646 75.4399612,70.1760204 75.5648861,70.3626686 L75.9157292,71.0650941 C75.9157292,71.0650941 75.9157292,114.400552 75.906674,114.400552 L75.906674,114.400552 Z" id="path18" fill="#0E2B58"></path>
                        <path d="M68.271747,121.860935 L64.8233756,122.835756 L63.9213659,119.343956 L63.0630615,122.835756 L59.5562009,121.860935 L62.1458982,124.377913 L59.5562009,126.894892 L63.0630615,125.920071 L63.9213659,129.41187 L64.8233756,125.920071 L68.271747,126.894892 L65.6968337,124.377913 L68.271747,121.860935 Z M50.9868317,123.374448 L47.5095391,124.349269 L46.6219439,120.856546 L45.7200266,124.349269 L43.4793244,123.708937 L42.2567788,123.374448 L43.4500336,124.509121 L44.8613525,125.890503 L43.3483011,127.345804 L42.2567788,128.408405 L43.3190102,128.102561 L45.7200266,127.4188 L46.6219439,130.925384 L47.5095391,127.4188 L50.9868317,128.408405 L48.3966724,125.890503 L50.9868317,123.374448 Z M32.4068368,124.595977 L33.6874096,123.374448 L32.377546,123.737581 L30.195333,124.349269 L29.3226142,120.856546 L28.4202349,124.349269 L24.9574491,123.374448 L27.517948,125.890503 L24.9574491,128.408405 L28.4202349,127.4188 L29.3226142,130.925384 L30.195333,127.4188 L32.5378601,128.073917 L33.6874096,128.408405 L32.5089389,127.258948 L31.0825587,125.890503 L32.4068368,124.595977 Z M16.3587891,121.860935 L12.895911,122.835756 L11.9936241,119.343956 L11.1060288,122.835756 L7.64322457,121.860935 L10.2188956,124.377913 L7.64322457,126.894892 L11.1060288,125.920071 L11.9936241,129.41187 L12.895911,125.920071 L16.3587891,126.894892 L13.7539382,124.377913 L16.3587891,121.860935 Z M71.559527,132.060057 C71.559527,132.060057 71.559527,132.060057 71.559527,132.074841 L71.5458518,132.074841 C71.5161913,132.074841 71.4869929,132.089625 71.4436573,132.089625 C63.0919827,133.762066 48.6880099,134.723027 37.3538452,134.678675 C26.0196806,134.650031 14.4522981,134.009699 3.29319465,131.870637 L3.29319465,114.251787 C12.6194499,116.070221 22.2222217,116.69577 31.7083845,117.015474 C39.84181,117.276966 47.9162843,117.015474 56.0207886,116.361281 C59.1490861,116.113649 62.2628767,115.807805 65.3470993,115.415105 C66.8020311,115.226608 68.2425485,115.022404 69.6681895,114.789556 C70.6139044,114.629704 71.4144588,114.498496 72.6217584,114.251787 L72.6217584,131.870637 C72.2731329,131.928849 71.9233985,132.001845 71.559527,132.060057 L71.559527,132.060057 Z" id="path28" fill="#0F2B57"></path>
                        <path d="M59.5342096,146.384843 L59.5342096,144.129357 C57.467774,144.987753 55.2851915,145.584658 53.1029786,146.050354 C50.5710313,146.574263 48.0105324,146.922611 45.4500335,147.141599 C44.7227524,147.199812 43.9803177,147.258024 43.252667,147.301452 C42.7581417,147.330096 42.234418,147.359664 41.7254783,147.374448 C41.5071369,147.388308 41.2887955,147.388308 41.0415328,147.403092 C40.5903432,147.417876 40.1828588,147.43266 39.7320387,147.43266 C39.135781,147.447444 38.5095855,147.447444 37.8840369,147.447444 C36.8657879,147.447444 35.8180633,147.43266 34.7706159,147.403092 C34.0433348,147.374448 33.3156841,147.330096 32.5738962,147.286668 C32.3843836,147.272808 32.2245314,147.272808 32.0350188,147.258024 C29.4453215,147.097247 26.884453,146.807111 24.3379989,146.341415 C21.6468463,145.860934 18.9257561,145.191958 16.379764,144.129357 L16.379764,146.384843 C16.379764,146.384843 22.9415564,150.939243 33.5340255,152.015704 L33.5484399,152.015704 C34.9452521,152.146912 36.4146907,152.233768 37.9717246,152.233768 C38.7135125,152.233768 39.4262868,152.218984 40.1395231,152.175556 C40.1395231,152.175556 40.1395231,152.175556 40.1539376,152.175556 C40.8523898,152.146912 41.5508421,152.0887 42.2200036,152.029564 C52.5792549,151.011315 59.1122184,146.675903 59.519056,146.399627 C59.5342096,146.384843 59.5342096,146.384843 59.5342096,146.384843" id="path32" fill="#F7D117"></path>
                        <polyline id="path34" fill="#F7D117" points="45.3665962 189.009004 37.8389457 195.18595 30.3577724 189.038572 37.8660189 183.386459 45.4019855 189.009004 45.3665962 189.009004"></polyline>
                        <path d="M68.278215,121.854467 L64.8298436,122.829288 L63.9278339,119.337488 L63.0695295,122.829288 L59.5630385,121.854467 L62.1527358,124.371445 L59.5630385,126.888424 L63.0695295,125.913603 L63.9278339,129.405402 L64.8298436,125.913603 L68.278215,126.888424 L65.7029321,124.371445 L68.278215,121.854467 Z M47.5156375,124.342801 L46.6285043,120.850078 L45.7264946,124.342801 L43.4857924,123.702469 L42.2636164,123.367056 L43.456594,124.502653 L44.8678205,125.884959 L43.3543995,127.339336 L42.2636164,128.401937 L43.3255706,128.096093 L45.7264946,127.412332 L46.6285043,130.918916 L47.5156375,127.412332 L50.9932997,128.401937 L48.4036024,125.884959 L50.9932997,123.367056 L47.5156375,124.342801 Z M32.4133048,124.589509 L33.6935081,123.367056 L32.3843836,123.731113 L30.201801,124.342801 L29.3290822,120.850078 L28.4267029,124.342801 L24.9639171,123.367056 L27.5247856,125.884959 L24.9639171,128.401937 L28.4267029,127.412332 L29.3290822,130.918916 L30.201801,127.412332 L32.5446977,128.066525 L33.6935081,128.401937 L32.5151297,127.251556 L31.0893963,125.884959 L32.4133048,124.589509 Z M16.3648876,121.854467 L12.902841,122.829288 L12.0004617,119.337488 L11.1129588,122.829288 L7.65008066,121.854467 L10.2253636,124.371445 L7.65008066,126.888424 L11.1129588,125.913603 L12.0004617,129.405402 L12.902841,125.913603 L16.3648876,126.888424 L13.7607758,124.371445 L16.3648876,121.854467 Z M72.3229365,131.922381 C72.0756739,131.966733 71.8284112,132.010161 71.5663646,132.053589 C71.5663646,132.053589 71.5663646,132.053589 71.5519502,132.068373 C71.5227517,132.068373 71.4938305,132.082233 71.4498481,132.082233 C69.8641701,132.402861 68.0454591,132.693921 66.0808484,132.955414 C65.6741032,133.013626 65.2666188,133.057054 64.844258,133.115266 C64.393438,133.173478 63.9423407,133.21783 63.4918903,133.276042 C63.0840363,133.31947 62.6764595,133.362898 62.2545607,133.406326 C61.1631308,133.52275 59.9846601,133.639174 58.704734,133.755598 C51.7642861,134.381147 44.0239305,134.701775 37.3603132,134.672207 C26.0265182,134.643563 14.4591357,134.003231 3.29933002,131.864169 L3.29933002,114.244395 C12.6260103,116.063753 22.2286897,116.689302 31.7152221,117.009006 C37.7533832,117.198426 43.7474695,117.110646 49.7567093,116.762298 C51.8519738,116.659734 53.9324542,116.514666 56.0276262,116.354813 C59.1555541,116.107181 62.2689751,115.802261 65.3539369,115.408637 C66.8088687,115.219216 68.2490165,115.015936 69.6751195,114.783088 C70.6207421,114.623236 71.4209268,114.492028 72.6283188,114.244395 L72.6283188,131.864169 C72.5853528,131.864169 72.4831583,131.893737 72.3229365,131.922381 L72.3229365,131.922381 Z" id="path36" fill="#F7D117"></path>
                        <path d="M26.9281583,106.643564 L26.9281583,84.1653017 L17.9996299,109.334255 C17.9996299,109.334255 16.3724644,109.22707 13.6647721,108.923074 C12.5385998,108.79741 11.2605218,108.637558 10.5008082,108.52021 C6.97909892,108.056361 6.65750041,107.913141 6.65750041,107.913141 L9.13317602,105.518131 C9.16024001,97.7057033 9.24074821,75.8261935 9.24943382,73.9590649 C7.84607049,73.270407 7.22055884,72.9665031 7.22055884,72.9665031 C7.22055884,72.9665031 10.017833,66.9604973 17.6419492,59.4262863 L17.5433583,84.5951469 L27.0533604,55.0372821 C25.7215055,54.3846602 24.3271881,53.7501488 24.3271881,53.7501488 C24.3271881,53.7501488 29.4489251,49.800045 36.3132354,47.1276495 L36.3132354,110.155691 C29.0554855,110.155691 24.4881491,109.772231 24.4881491,109.772231 L26.9281583,106.643564" id="path38" fill="#FFFFFF"></path>
                        <path d="M58.2012459,85.0506793 L49.4156606,81.7343477 L49.4156606,101.844303 C49.4156606,101.844303 56.1994904,101.656731 58.2012459,101.102331 L58.2012459,85.0506793 Z M66.49554,84.6125181 L66.4688364,105.518131 L69.3289888,107.913141 C69.3289888,107.913141 69.3108784,107.957493 67.2195871,108.279046 C55.5468686,110.147375 39.6377906,110.147375 39.6377906,110.147375 L39.6377906,47.1276495 C39.6377906,47.1276495 42.3101861,48.0830665 46.2068827,50.2472614 C48.8168156,51.694986 51.6588576,53.7501488 51.6588576,53.7501488 C51.6588576,53.7501488 50.6489246,54.4384371 49.4156606,55.0372821 L49.4156606,70.4456439 C49.4156606,72.2698989 49.4156606,73.1447429 49.4156606,73.1447429 L58.2012459,76.8094229 L61.2760437,78.0964637 C62.7328236,78.6686051 64.1542142,79.2764129 65.405219,79.8217582 C67.0496634,80.5995822 67.8274873,80.8233752 68.9088456,81.483851 L66.49554,83.4058653 L66.49554,84.6125181 L66.49554,84.6125181 Z" id="path40" fill="#FFFFFF"></path>
                    </g>
                </g>
            </g>
        </g>
    </g>
</svg>