<?xml version="1.0" encoding="UTF-8"?>
<svg width="200px" height="200px" viewBox="0 0 200 200" version="1.1" xmlns="http://www.w3.org/2000/svg" xmlns:xlink="http://www.w3.org/1999/xlink">
    <!-- Generator: Sketch 54.1 (76490) - https://sketchapp.com -->
    <title>north-central-mn</title>
    <desc>Created with Sketch.</desc>
    <g id="north-central-mn" stroke="none" stroke-width="1" fill="none" fill-rule="evenodd">
        <g id="north-central-mn_BGL">
            <g id="north-central-mn" transform="translate(3.000000, 0.000000)">
                <path d="M122.721941,0 L131.435443,0 L131.842616,0.0407331976 C134.896414,0.448065173 137.828059,0.773930754 140.841139,1.42566191 C150.93903,3.58452138 160.507595,8.22810591 168.447468,14.7861507 C172.967089,18.2484725 176.835232,22.5254582 179.970464,27.2912424 C187.014557,37.2708758 192.104219,48.7983707 192.877848,61.0997963 C193.040717,65.1323829 193.081435,69.3279022 192.307806,73.3197556 C191.04557,81.3441955 187.828903,89.1649695 183.512869,96.0081466 C180.092616,101.466395 176.020886,106.354379 171.623418,110.997963 C171.216245,111.486762 170.646203,111.97556 170.442616,112.627291 C170.279747,114.582485 170.68692,116.374745 170.07616,118.370672 C169.424684,120.977597 168.040295,123.095723 166.696624,125.376782 C162.421308,132.545825 158.431013,139.8778 154.277848,147.12831 C152.730591,150.142566 150.898312,153.034623 149.432489,156.089613 C148.699578,158.778004 148.984599,161.832994 148.903165,164.602851 C148.862447,168.594705 148.088819,172.545825 146.215823,176.089613 C145.116456,178.044807 143.732068,179.837067 141.859072,181.099796 C140.148945,182.403259 138.072363,182.688391 135.955063,183.217923 C128.137342,184.928717 120.197468,183.095723 113.071941,179.755601 C111.28038,179.063136 109.366667,177.678208 107.452954,177.474542 C104.480591,177.922607 101.386076,178.329939 98.6987342,176.619145 C97.2329114,175.804481 96.5814346,174.501018 95.7263713,173.11609 C93.2833333,177.107943 91.6546414,181.629328 90.3109705,186.069246 C89.6187764,188.309572 89.293038,190.468432 88.1529536,192.586558 C86.9721519,194.90835 85.5063291,197.637475 83.3483122,199.144603 C81.8824895,200.285132 79.6837553,200.1222 78.1364979,199.226069 C75.8970464,197.922607 74.0240506,195.641548 73.4947257,193.075356 C72.6803797,185.09165 71.5402954,176.293279 67.9978903,169.04277 C65.7177215,164.236253 61.97173,160.1222 57.0042194,158.004073 C54.0725738,156.822811 51.1409283,156.008147 47.9649789,156.293279 C41.0837553,156.985743 34.0396624,156.537678 27.2398734,155.274949 C19.7478903,153.645621 12.2151899,150.875764 5.94472574,146.354379 C3.17594937,144.07332 0.651476793,141.221996 0,137.515275 L0,134.867617 C0.488607595,132.830957 1.83227848,130.916497 2.76877637,129.04277 C12.2151899,112.09776 24.7561181,96.5376782 39.9029536,84.3177189 C43.9339662,81.0997963 48.25,78.1670061 52.6067511,75.4378819 C54.9683544,74.0936864 57.2078059,72.7494908 59.6915612,71.7311609 C59.3658228,69.8167006 58.8364979,67.9429735 58.6736287,65.98778 C57.6964135,56.6598778 59.528692,47.4541752 63.071097,38.8594705 C67.7535865,27.5763747 75.8563291,17.8004073 86.2799578,11.3645621 C90.2702532,8.75763747 94.5455696,7.00610998 98.943038,5.29531568 C106.59789,2.44399185 114.578481,0.692464358 122.721941,0 Z M125.042827,45.9063136 C121.541139,44.8472505 117.428692,45.7433809 114.130591,46.9653768 C109.77384,48.7169043 105.050633,51.6904277 102.933333,56.0081466 C102.444726,56.8635438 102.159705,57.7189409 101.956118,58.6558045 C107.290084,57.8818737 112.705485,57.8004073 118.080169,58.4521385 C118.731646,54.9898167 120.156751,51.7718941 122.233333,48.9613035 C123.047679,47.8207739 124.228481,47.0468432 125.042827,45.9063136 Z" id="Shape" fill="#B7A364" fill-rule="nonzero"></path>
                <path d="M125.00211,3.299389 C127.160127,3.13645621 129.318143,3.09572301 131.516878,3.3401222 C138.683122,3.58452138 145.849367,5.17311609 152.44557,7.98370672 C161.403376,11.8126273 169.098945,18.0855397 174.880802,25.8655804 C179.074684,31.2423625 182.29135,37.4745418 185.060127,43.6659878 C190.801266,57.5152749 190.556962,73.6456212 184.164346,87.2505092 C180.051899,96.2525458 173.862869,103.869654 166.574473,110.468432 C166.778059,112.219959 167.022363,113.930754 166.737342,115.682281 C166.085865,119.063136 164.375738,121.91446 162.665612,124.806517 C161.281224,127.087576 159.489662,128.961303 158.186709,131.323829 C154.196414,138.411405 149.921097,145.417515 146.582278,152.749491 C145.971519,154.13442 145.19789,155.723014 145.19789,157.230143 C145.320042,161.995927 145.279325,166.802444 144.587131,171.486762 C144.342827,173.360489 143.487764,175.112016 141.940506,176.211813 C139.049578,178.411405 135.059283,179.10387 131.516878,179.389002 C128.992405,179.592668 126.630802,180.1222 124.106329,179.429735 C121.052532,178.615071 117.958017,177.759674 115.026371,176.619145 C113.397679,175.967413 111.891139,175.519348 110.791772,174.093686 C108.145148,174.419552 105.661392,174.745418 103.014768,174.01222 C100.816034,173.482688 98.9023207,172.016293 98.0472574,169.9389 C96.9886076,167.535642 97.4364979,164.602851 97.5586498,162.077393 C95.6042194,166.10998 93.8533755,170.305499 92.1025316,174.419552 C90.1481013,179.226069 88.1936709,184.032587 86.6056962,188.92057 C85.9135021,191.038697 84.9362869,192.953157 83.4297468,194.582485 C82.4525316,195.560081 81.1902954,196.04888 79.8059072,195.763747 C78.6658228,195.600815 78.0550633,194.663951 77.5257384,193.727088 C76.5485232,191.97556 76.3449367,190.101833 76.3449367,188.14664 C76.3449367,185.417515 75.9377637,182.647658 75.3270042,180 C74.1462025,175.234216 72.6803797,170.590631 70.3594937,166.232179 C68.8529536,163.177189 66.8170886,159.918534 64.0890295,157.881874 C58.7550633,153.727088 51.8331224,152.423625 45.1962025,153.075356 C40.9208861,153.564155 36.6862869,153.197556 32.4924051,152.464358 C26.7105485,151.486762 21.0508439,149.775967 15.5540084,147.780041 C13.2331224,146.965377 11.3601266,145.621181 9.2835443,144.276986 C6.88122363,142.647658 4.31603376,140.448065 3.25738397,137.678208 C2.48375527,134.378819 4.23459916,131.242363 5.98544304,128.553971 C9.5278481,122.321792 13.2331224,116.171079 17.671308,110.509165 C23.6974684,102.281059 30.7822785,94.8676171 38.5592827,88.2281059 C44.9111814,82.9327902 51.914557,78.3299389 59.4065401,74.8676171 C60.9130802,74.1751527 62.4196203,73.604888 63.9261603,72.8309572 C62.4603376,66.3543788 61.7274262,59.5519348 62.5417722,52.9531568 C63.3154008,44.6435845 66.2063291,36.5784114 70.9295359,29.7352342 C73.2504219,26.598778 75.571308,23.6252546 78.5436709,21.0590631 C83.0632911,16.8635438 88.3158228,13.4419552 93.8126582,10.6720978 C96.7035865,9.16496945 99.9202532,8.18737271 103.014768,7.12830957 C110.099578,4.9287169 117.510127,3.62525458 125.00211,3.299389 Z M127.042827,45.9063136 C123.233333,42.9765625 117.428692,44.7433809 114.130591,45.9653768 C109.77384,47.7169043 104.050633,51.6904277 101.933333,56.0081466 C101.444726,56.8635438 101.159705,58.7189409 100.956118,59.6558045 C106.290084,58.8818737 113.705485,58.8004073 119.080169,59.4521385 C119.731646,55.9898167 121.156751,51.7718941 123.233333,48.9613035 C124.047679,47.8207739 126.228481,47.0468432 127.042827,45.9063136 Z" id="Shape" fill="#FEFDFB" fill-rule="nonzero"></path>
                <path d="M146.745148,7.98370672 C153.300633,10.2647658 159.326793,13.7270876 164.620042,18.2484725 C169.506118,22.4439919 173.496414,27.3727088 176.998101,32.7494908 C182.047046,40.6924644 185.793038,49.694501 186.97384,59.1038697 C187.543882,65.3360489 187.177426,71.6089613 185.426582,77.6374745 C182.209916,89.4093686 174.717932,99.9185336 165.597257,107.861507 C164.782911,108.553971 163.927848,109.124236 163.235654,109.979633 C163.154219,109.368635 163.032068,108.757637 162.950633,108.105906 C166.66748,103.810059 170.827004,99.7556008 174.410127,94.8268839 C179.744093,87.3319756 183.40865,78.8187373 184.4673,69.6537678 C185.485232,60.3665988 183.490084,50.9572301 179.621941,42.5254582 C174.450844,31.5682281 166.999578,22.5885947 156.738819,15.9490835 C146.396624,9.2688391 135.140717,6.74338086 122.966245,7.6395112 C113.6827,8.25050916 104.480591,10.6130346 95.9706751,14.3197556 C90.4331224,16.8452138 86.3841772,20.389002 82.0274262,24.6252546 C73.8839662,32.4867617 68.0613924,42.0366599 66.7584388,53.3604888 C65.9440928,59.9185336 66.7343445,66.2436891 68.7294922,72.5166016 C68.2408846,72.6388012 66.735654,73.2382892 66.2470464,73.3197556 C63.9668776,66.2321792 63.5189873,58.6965377 64.5369198,51.3238289 C65.7991561,43.0142566 69.4229958,35.4786151 74.3905063,28.7983707 C80.4166667,21.0590631 88.3158228,14.6639511 97.4772152,11.0794297 C104.154852,8.3095723 111.117511,6.47657841 118.283755,5.62118126 C127.811603,4.35845214 137.583755,4.9694501 146.745148,7.98370672 Z" id="Shape" fill="#B7A364" fill-rule="nonzero"></path>
                <path d="M122.966245,6.6395112 C135.140717,5.74338086 147.396624,8.2688391 157.738819,14.9490835 C167.999578,21.5885947 175.450844,31.5682281 180.621941,42.5254582 C184.490084,50.9572301 186.485232,60.407332 185.4673,69.6537678 C184.449367,78.8594705 180.744093,87.3319756 175.410127,94.8268839 C171.827004,99.7556008 167.714557,104.276986 162.950633,108.105906 C163.032068,108.716904 163.154219,109.327902 163.235654,109.979633 C163.764979,113.482688 164.009283,116.985743 162.014135,120.1222 C159.245359,124.276986 156.96519,128.676171 154.522152,132.99389 C152.038397,137.433809 149.717511,141.955193 147.070886,146.313646 C145.035021,149.083503 143.935654,152.219959 142.79557,155.397149 C142.673418,155.885947 142.429114,156.374745 142.469831,156.863544 C142.754852,160.081466 142.673418,163.340122 142.6327,166.598778 C142.469831,168.798371 142.429114,171.323829 140.881857,173.11609 C138.845992,175.397149 135.751477,176.293279 132.819831,176.700611 C127.322996,177.556008 122.274051,176.578411 116.940084,175.397149 C115.270675,174.989817 113.6827,174.623218 112.257595,173.564155 C112.257595,173.156823 112.257595,172.749491 112.257595,172.342159 C109.733122,172.464358 107.167932,172.586558 104.64346,172.260692 C103.381224,172.057026 101.793249,171.771894 100.897468,170.753564 C99.7981013,169.572301 99.4723629,167.739308 99.4723629,166.191446 C99.5130802,163.380855 100.245992,160.651731 101.426793,158.08554 C102.363291,156.211813 102.07827,153.645621 101.996835,151.608961 C98.0472574,154.826884 95.7263713,158.940937 93.3647679,163.340122 C89.1301688,171.894094 86.1985232,180.733198 83.2668776,189.816701 C82.8597046,190.916497 82.4932489,192.423625 81.5567511,193.156823 C81.0274262,193.401222 80.2945148,193.238289 79.6837553,193.197556 C79.2765823,192.464358 79.0322785,191.812627 78.9915612,190.997963 C78.5029536,184.887984 77.4850211,178.696538 75.571308,172.830957 C73.3725738,165.906314 69.7080169,158.940937 63.7225738,154.582485 C59.4065401,151.364562 54.1947257,150.101833 48.9014768,150.142566 C45.3183544,150.427699 41.6945148,150.509165 38.1113924,150.183299 C30.1308017,149.735234 21.743038,148.02444 14.6582278,144.195519 C11.5637131,142.525458 8.34704641,140.407332 6.22974684,137.556008 C5.45611814,136.415479 4.84535865,135.193483 5.65970464,133.89002 C11.7672996,122.566191 18.9742616,111.649695 27.6470464,102.077393 C38.4778481,89.9796334 51.5481013,80 66.4099156,73.3604888 C66.6542194,74.3380855 66.9392405,75.2342159 67.3056962,76.1710794 C62.4196203,78.4928717 57.6556962,80.9775967 53.0953586,83.910387 C37.1748945,94.2158859 23.8196203,108.228106 13.2738397,123.910387 C11.4822785,126.720978 9.5685654,129.531568 8.10274262,132.505092 C7.53270042,133.238289 7.16624473,133.971487 7.61413502,134.90835 C8.63206751,136.578411 10.5050633,137.841141 12.0523207,138.940937 C14.8618143,141.059063 18.5670886,142.077393 22.0280591,142.484725 C25.4890295,142.892057 28.9092827,142.321792 32.1259494,141.099796 C39.8622363,138.655804 47.3542194,134.949084 54.3575949,130.835031 C57.4113924,129.083503 59.4879747,126.639511 61.8902954,124.114053 C66.8170886,118.533605 72.1103376,113.564155 78.7065401,110.020367 C81.2310127,108.594705 82.7045581,107.167294 85.4326172,106.189697 C86.1655286,104.723302 88.0308017,103.503055 88.6008439,101.955193 C90.7995781,102.688391 93.0390295,102.810591 95.3191983,103.136456 C92.4689873,109.857434 90.0259494,116.94501 88.885865,124.154786 C88.5194093,127.209776 88.2751055,130.997963 89.7816456,133.767821 C90.6367089,135.397149 92.021097,136.008147 93.4869198,137.026477 C96.6221519,139.144603 99.6759494,141.14053 102.52616,143.625255 C104.724895,145.98778 106.964346,148.748348 107.778692,151.925537 C108.348734,154.817594 108.389451,158.116991 106.842194,160.764648 C105.539241,162.964241 104.887764,164.510339 104.64346,167.19873 C104.480591,168.502193 104.161538,169.349169 105.383057,169.919434 C106.441706,170.163833 106.679325,170.280479 107.778692,170.239746 C107.700232,170.136836 107.401781,170.027484 107.330802,169.919434 C105.74421,167.504184 107.194086,164.453739 107.778692,161.80249 C108.308017,163.024486 108.674473,164.928717 109.040928,166.191446 C109.488819,167.739308 109.899195,168.895551 110.835693,170.239746 C111.120714,170.239746 110.699058,169.603728 111.469482,170.239746 C111.062309,164.94443 110.354899,160.692464 110.477051,155.397149 C110.395616,151.812627 110.384599,147.494908 111.891139,144.195519 C112.461181,143.217923 114.371635,142.69459 115.145264,143.224121 C118.117627,145.260781 121.500422,147.576375 123.984177,150.183299 C125.327848,151.486762 126.164979,154.663951 126.368565,156.415479 C126.694304,159.755601 123.251266,162.443992 121.174684,164.765784 C118.853797,167.535642 118.199711,169.450102 116.000977,172.342159 C118.403297,173.156823 118.60376,172.912424 121.418987,174.704684 C124.024895,175.723014 126.752954,175.763747 129.52173,175.641548 C132.046203,175.437882 134.367089,175.356415 136.60654,174.093686 C138.56097,173.075356 139.863924,171.160896 140.311814,169.04277 C140.556118,166.924644 140.352532,164.725051 140.271097,162.566191 C139.823207,156.904277 139.375316,151.160896 138.520253,145.539715 C138.845992,141.384929 140.386687,136.863544 143.114746,133.767821 C143.562636,133.238289 145.19789,132.378035 145.80865,131.970703 C144.627848,136.410622 143.24346,141.751527 142.6327,146.313646 C142.306962,148.391039 142.266245,148.534179 142.469831,150.611572 C143.324895,149.389576 142.836287,149.529292 143.528481,148.22583 C144.30211,146.718702 145.405625,145.661914 146.219971,144.195519 C150.495287,136.741344 153.911392,129.411039 158.308861,122.03833 C159.367511,120.286803 161.393771,118.242638 161.556641,116.124512 C161.71951,113.476854 162.217722,111.07943 161.199789,108.594705 C158.756751,101.099796 154.178481,94.4820738 148.844515,88.6572266 C149.333122,82.5472469 147.455274,76.1303462 144.80865,70.6313646 C142.365612,66.2321792 141.28903,64.4089355 139.599854,62.4032587 C138.378335,61.1812627 138.72384,61.4663951 137.298734,60.4480652 C145.116456,69.0427699 145.912869,76.0061582 147.622996,87.4929199 C145.098523,85.2525941 141.103376,81.9959267 138.741772,79.592668 C139.474684,75.4786151 139.008861,71.7718941 137.298734,68.1059063 C135.018565,63.095723 131.801899,59.4928717 129.643882,54.4419552 C126.630802,57.4154786 125.798523,60.6517312 125.920675,64.8879837 C125.961392,66.3543788 125.947401,67.0384494 126.232422,68.4641113 C125.743814,68.8307101 123.49557,70.6089613 122.966245,70.6313646 C122.925527,69.898167 122.821308,70.1649695 122.3327,70.1242363 C117.894515,69.0244399 114.497046,68.8615071 109.936709,68.8615071 C104.724895,68.8207739 99.9721766,68.8798371 94.8417969,69.6537678 C94.1088855,67.9022403 93.1611814,65.1323829 92.5911392,63.3401222 C92.4689873,62.5661914 93.5276371,62.5254582 93.8533755,63.0549898 C93.9348101,63.9511202 93.8533755,64.8472505 93.9348101,65.7433809 C103.747679,64.3991853 113.723418,64.3991853 123.49557,66.0285132 C123.454852,63.9918534 123.373418,62.0773931 123.984177,60.0814664 C124.961392,56.5376782 127.037975,53.7678208 129.52173,51.1608961 C133.837764,54.1751527 137.746624,57.8004073 141.28903,61.6700611 C142.958439,63.4623218 144.179958,65.5804481 145.80865,67.3319756 C146.012236,63.2179226 145.686498,58.8594705 144.342827,54.9083503 C143.080591,51.1201629 140.963291,47.6985743 137.787342,45.2545825 C134.489241,42.5661914 130.091772,41.0997963 125.89789,40.610998 C119.138819,39.796334 112.379747,41.9551935 106.842194,45.8248473 C102.444726,48.9613035 98.6172996,53.0753564 96.0521097,57.8004073 C95.2377637,59.185336 94.8305907,60.7331976 94.2198312,62.1995927 C93.5048523,63.760498 93.9348101,64.3691063 93.242616,63.9487305 C90.7093506,60.4480652 95.278481,56.3523422 96.5814346,54.4378819 C100.327426,48.694501 105.742827,43.7657841 112.094726,41.0366599 C117.75443,38.4704684 124.309916,37.9816701 130.295359,39.6517312 C134.733544,40.8737271 138.886709,44.2769857 141.655485,47.9837067 C145.930802,53.5641548 148.193038,60.8553971 147.622996,67.7393075 C147.419409,69.0835031 148.355907,69.3869654 148.844515,70.6089613 C150.554641,74.6822811 151.020464,78.0814664 151.549789,82.4806517 C154.318565,79.3034623 155.005907,79.0631365 156.657384,73.401222 C158.308861,67.7393075 158.693249,61.4663951 156.86097,55.7637475 C155.476582,51.3238289 152.95211,47.4541752 150.224051,43.7474542 C146.030169,38.0855397 141.411181,33.99389 134.692827,31.5498982 C125.775738,28.1690428 115.637131,28.7576375 107.778692,34.0529532 C100.368143,38.7372709 94.7491561,45.9063136 93.3647679,54.7046843 C93.1204641,56.6191446 93.0797468,58.5336049 93.242616,60.4480652 C93.242616,61.0590631 93.4054852,61.8737271 93.0797468,62.4032587 C92.3875527,62.4847251 92.5097046,61.7922607 92.3875527,61.3441955 C91.3696203,54.9898167 93.2018987,48.3910387 96.8257384,43.1364562 C100.775316,37.4745418 106.312869,33.2382892 112.542616,30.3462322 C117.998734,27.8615071 124.187764,27.0875764 130.091772,28.2281059 C137.135865,29.5315682 143.487764,33.3197556 148.577426,38.3299389 C152.486287,42.3625255 155.947257,47.0468432 158.308861,52.1792261 C161.444093,59.0224033 161.729114,66.8839104 159.448945,74.01222 C157.779536,79.1446029 155.051477,83.9511202 151.468354,87.9837067 C153.504219,90.1832994 155.295781,92.6272912 156.96519,95.1120163 C159.408228,98.7780041 161.48481,102.647658 162.706329,106.88391 C164.620042,103.380855 166.085865,99.592668 167.388819,95.8452138 C170.279747,87.2912424 172.112025,78.0855397 171.827004,69.0427699 C171.704852,62.4032587 170.279747,55.6822811 167.388819,49.694501 C165.760127,46.2729124 163.479958,43.0549898 161.03692,40.1221996 C156.883755,35.0712831 151.631224,30.9164969 145.767932,28.0651731 C140.718987,25.6211813 135.262869,24.4399185 129.684599,24.1547862 C120.31962,23.9511202 110.995359,26.8431772 103.299789,32.0977597 C94.871308,38.0855397 90.5552743,48.3095723 90.4331224,58.4521385 C90.3516878,61.1812627 91.2474684,63.9511202 91.9396624,66.598778 C92.7947257,69.7759674 94.0976793,72.8309572 95.8485232,75.6008147 C97.8029536,78.5743381 101.223207,80.5295316 104.847046,80.407332 C109.000211,80.5702648 113.194093,78.8187373 116.817932,76.9450102 C122.029747,74.0936864 126.915823,70.5498982 131.272574,66.4765784 C131.47616,66.4358452 131.720464,66.3543788 131.924051,66.3136456 C131.435443,72.9124236 129.236709,79.1446029 125.89789,84.8065173 C124.024895,87.9837067 121.907595,91.1201629 119.016667,93.401222 C115.962869,95.8044807 112.583333,97.7596741 109.040928,99.2668024 C103.544093,101.466395 97.7622363,102.566191 91.8582278,101.466395 C86.2392405,100.448065 81.3938819,97.2301426 77.7293249,92.9124236 C72.9246835,87.2912424 70.0744726,80.1629328 67.957173,73.1568228 C65.9620253,66.8839104 65.1883966,60.0814664 66.0027426,53.5234216 C67.2649789,42.1995927 73.12827,31.6496945 81.27173,23.7881874 C85.628481,19.5519348 90.6774262,16.0081466 96.2149789,13.4826884 C104.480591,9.61303462 113.6827,7.25050916 122.966245,6.6395112 Z" id="Shape" fill="#012049" fill-rule="nonzero"></path>
                <path d="M134.489241,30.3869654 C141.207595,32.8309572 146.826582,37.9226069 151.020464,43.5845214 C153.748523,47.2912424 156.272996,51.1608961 157.657384,55.6008147 C159.489662,61.3441955 159.367511,67.5763747 157.453797,73.2382892 C156.110127,77.2301426 154.114979,81.1405295 151.346203,84.3177189 C150.857595,79.9185336 149.351055,75.5193483 147.640928,71.4460285 C147.152321,70.2240326 146.215823,68.9205703 146.419409,67.5763747 C146.989451,60.6924644 145.727215,53.401222 141.451899,47.8207739 C138.642405,44.0733198 134.529958,41.7107943 130.091772,40.4887984 C124.106329,38.8187373 117.550844,39.3075356 111.891139,41.8737271 C105.579958,44.6028513 100.12384,49.5315682 96.3778481,55.2749491 C95.0748945,57.1486762 94.3419831,59.2668024 93.3240506,61.3034623 C92.7132911,59.0631365 92.835443,56.8228106 93.0797468,54.5417515 C94.464135,45.7433809 100.083122,38.5336049 107.493671,33.8900204 C115.433544,28.5947047 125.572152,27.00611 134.489241,30.3869654 Z" id="Shape" fill="#B7A364" fill-rule="nonzero"></path>
                <path d="M122.559072,42.892057 C126.997257,42.7291242 131.47616,44.3177189 134.814979,47.1690428 C138.520253,50.1832994 141.899789,54.4195519 142.917722,59.185336 C141.370464,57.6782077 140.189662,55.885947 138.683122,54.3380855 C136.036498,51.5274949 132.779114,48.6761711 129.07384,47.4541752 C123.94346,50.9979633 122.029747,56.8228106 120.645359,62.6476578 C117.469409,62.6069246 114.374895,62.0773931 111.198945,62.1181263 C106.516456,62.0773931 101.671097,61.9144603 97.0700422,62.9735234 C97.0700422,61.9144603 97.0293249,60.9368635 97.3550633,59.9592668 C98.5765823,56.1710794 101.01962,53.2382892 103.910549,50.5906314 C106.027848,48.7169043 107.982278,46.9246436 110.588186,45.7841141 C114.374895,44.0325866 118.283755,42.8105906 122.559072,42.892057 Z M125.042827,45.9063136 C121.541139,44.8472505 117.428692,45.7433809 114.130591,46.9653768 C109.77384,48.7169043 105.050633,51.6904277 102.933333,56.0081466 C102.444726,56.8635438 102.159705,57.7189409 101.956118,58.6558045 C107.290084,57.8818737 112.705485,57.8004073 118.080169,58.4521385 C118.731646,54.9898167 120.156751,51.7718941 122.233333,48.9613035 C123.047679,47.8207739 124.228481,47.0468432 125.042827,45.9063136 Z" id="Shape" fill="#B7A364" fill-rule="nonzero"></path>
                <path d="M129.603165,53.3197556 C131.761181,58.3706721 134.977848,62.9735234 137.258017,67.9837067 C138.968143,71.6496945 140.433966,75.3156823 139.701055,79.4704684 C142.103376,81.8329939 144.505696,84.1955193 146.989451,86.4358452 C145.320042,74.9490835 140.271097,63.9511202 132.412658,55.3564155 C133.837764,56.3747454 135.1,57.5152749 136.362236,58.7372709 C139.986076,62.1995927 143.324895,66.1507128 145.767932,70.509165 C148.414557,75.9674134 149.961814,82.3217923 149.473207,88.4317719 C154.807173,94.2566191 158.716034,100.977597 161.159072,108.472505 C162.177004,110.95723 162.054852,113.482688 161.891983,116.130346 C161.769831,118.248473 160.181857,120 159.123207,121.751527 C154.725738,129.124236 150.816878,136.741344 146.582278,144.195519 C145.767932,145.661914 144.709283,146.965377 143.976371,148.472505 C143.284177,149.775967 142.917722,151.201629 142.062658,152.423625 C141.859072,150.346232 141.859072,148.268839 142.18481,146.191446 C142.79557,141.629328 143.976371,137.230143 145.157173,132.749491 C144.587131,133.156823 144.017089,133.604888 143.528481,134.13442 C140.800422,137.230143 138.886709,141.262729 138.520253,145.417515 C138.11308,147.046843 138.275949,148.594705 138.235232,150.224033 C138.11308,153.604888 138.275949,157.026477 138.235232,160.407332 C138.194515,162.158859 138.398101,163.991853 138.194515,165.743381 C137.258017,168.92057 134.733544,171.160896 131.761181,172.464358 C128.46308,173.808554 124.961392,174.501018 121.418987,174.582485 C118.894515,174.297352 116.451477,173.604888 114.008439,172.790224 C116.207173,169.9389 118.853797,167.413442 121.174684,164.643585 C123.210549,162.321792 125.694304,159.633401 125.368565,156.293279 C125.164979,154.541752 125.287131,152.179226 123.94346,150.875764 C121.459705,148.268839 118.080169,146.272912 115.107806,144.236253 C114.334177,143.665988 113.316245,143.421589 112.746203,144.399185 C111.239662,147.698574 110.954641,151.486762 111.036076,155.071283 C110.913924,160.366599 111.483966,165.498982 111.891139,170.753564 C111.606118,170.753564 111.321097,170.753564 110.995359,170.712831 C110.058861,169.409369 109.285232,168.02444 108.796624,166.435845 C108.389451,165.173116 108.389451,163.869654 107.860127,162.647658 C107.249367,165.417515 106.964346,168.309572 108.755907,170.712831 C107.65654,170.753564 106.475738,170.835031 105.417089,170.631365 C104.236287,170.0611 103.462658,168.553971 103.625527,167.250509 C103.869831,164.562118 105.335654,162.851324 106.638608,160.651731 C108.185865,158.004073 107.900844,154.90835 107.330802,152.016293 C106.516456,148.879837 104.724895,145.906314 102.52616,143.503055 C102.07827,142.158859 100.978903,141.181263 100.245992,139.918534 C98.0065401,136.537678 95.7263713,133.11609 94.056962,129.409369 C93.1611814,127.576375 93.4869198,125.784114 93.5683544,123.828921 C94.3419831,116.863544 95.2377637,109.9389 96.3778481,103.05499 C98.4544304,102.810591 100.57173,102.729124 102.648312,102.321792 C107.697257,101.14053 112.501899,99.1446029 116.85865,96.293279 C119.098101,94.7046843 121.215401,93.197556 123.006962,91.0386965 C125.368565,88.1059063 127.282278,84.8879837 128.992405,81.5478615 C131.63903,75.8452138 133.715612,69.3279022 132.901266,62.9735234 C131.354008,63.5845214 130.254641,65.1731161 128.992405,66.1507128 C128.340928,62.6476578 128.707384,58.9409369 128.666667,55.3971487 C126.50865,59.2668024 125.816456,63.706721 126.630802,68.0651731 C126.305063,68.3095723 125.979325,68.5539715 125.653586,68.8391039 C125.327848,67.413442 125.042827,66.0285132 125.00211,64.5621181 C124.757806,60.5295316 126.590084,56.2525458 129.603165,53.3197556 Z" id="Shape" fill="#B7A364" fill-rule="nonzero"></path>
                <path d="M114.008439,68.1059063 C117.225105,68.1466395 120.360338,68.7169043 123.577004,69.0835031 C123.658439,69.490835 123.739873,69.9389002 123.821308,70.3462322 C123.291983,70.7535642 122.762658,71.1608961 122.233333,71.5274949 C121.296835,70.8757637 119.993882,71.0794297 118.894515,71.1201629 C116.125738,71.3238289 113.519831,72.5050916 111.606118,74.5417515 C110.22173,76.0488798 108.511603,77.107943 107.127215,78.6150713 C103.788397,79.1038697 100.408861,78.3706721 98.0065401,75.9266802 C96.3778481,74.01222 95.1156118,71.6904277 94.6270042,69.2464358 C97.4364979,68.9205703 100.164557,68.3095723 103.014768,68.1873727 C106.679325,67.5356415 110.303165,67.8207739 114.008439,68.1059063 Z" id="Shape" fill="#B7A364" fill-rule="nonzero"></path>
                <path d="M118.894515,71.1608961 C119.993882,71.1201629 121.256118,70.9164969 122.233333,71.5682281 C121.500422,72.0977597 120.848945,72.6272912 119.953165,72.790224 C116.573629,72.3828921 113.194093,74.5010183 111.402532,77.311609 C110.22173,78.1670061 108.552321,78.4114053 107.127215,78.6965377 C108.511603,77.1894094 110.22173,76.1303462 111.606118,74.6232179 C113.519831,72.5458248 116.085021,71.3645621 118.894515,71.1608961 Z" id="Shape" fill="#012049" fill-rule="nonzero"></path>
                <path d="M119.912447,72.7494908 C118.81308,73.9714868 117.387975,74.5824847 116.003586,75.3564155 C114.456329,76.1303462 113.112658,77.0264766 111.361814,77.2708758 C113.153376,74.5010183 116.573629,72.3421589 119.912447,72.7494908 Z" id="Shape" fill="#B7A364" fill-rule="nonzero"></path>
                <path d="M68.0793249,78.6558045 C69.8708861,83.706721 72.3953586,88.6761711 75.7341772,92.8716904 C78.9915612,97.107943 83.4297468,100.366599 88.5601266,102.03666 C87.9493671,103.543788 87.257173,105.050916 86.5649789,106.517312 C83.8369198,107.494908 81.1902954,108.676171 78.6658228,110.101833 C72.0696203,113.645621 66.7763713,118.615071 61.8495781,124.195519 C59.4879747,126.720978 57.3706751,129.164969 54.3168776,130.916497 C47.3542194,135.03055 39.8622363,138.778004 32.0852321,141.181263 C28.8685654,142.403259 25.4483122,142.973523 21.9873418,142.566191 C18.5263713,142.158859 14.821097,141.181263 12.0116034,139.022403 C10.464346,137.922607 8.59135021,136.659878 7.57341772,134.989817 C7.08481013,134.093686 7.49198312,133.319756 8.06202532,132.586558 C8.83565401,131.731161 9.3649789,130.753564 10.057173,129.816701 C11.6451477,127.739308 13.314557,125.743381 14.9839662,123.747454 C20.3993671,116.985743 26.1812236,110.509165 32.4109705,104.521385 C34.7318565,102.484725 36.8084388,100.244399 39.2107595,98.2892057 C47.028481,91.4052953 55.5791139,85.2138493 64.7812236,80.2851324 C65.8805907,79.6741344 66.9392405,79.1038697 68.0793249,78.6558045 Z" id="Shape" fill="#B7A364" fill-rule="nonzero"></path>
                <path d="M127.363713,92.586558 C131.720464,94.9898167 136.15865,98.9409369 137.746624,103.788187 C138.642405,106.558045 138.520253,109.694501 137.543038,112.423625 C135.629325,118.044807 134.163502,123.747454 132.860549,129.531568 C132.331224,128.14664 131.679747,126.558045 131.801899,125.050916 C131.964768,123.217923 132.860549,121.670061 133.389873,119.959267 C133.634177,119.307536 133.14557,118.940937 132.860549,118.411405 C131.109705,115.845214 129.52173,113.11609 128.46308,110.183299 C127.770886,107.942974 127.322996,105.295316 128.096624,103.014257 C128.666667,101.181263 129.928903,99.592668 131.679747,98.7372709 C130.173207,100.407332 129.195992,102.443992 129.114557,104.725051 C128.870253,107.169043 129.562447,109.368635 130.661814,111.527495 C130.783966,110.875764 130.783966,110.264766 131.191139,109.694501 C132.575527,107.657841 134.570675,106.924644 136.565823,105.702648 C135.54789,102.973523 134.244937,100.448065 132.494093,98.1262729 C131.109705,95.885947 129.236709,94.3380855 127.363713,92.586558 Z" id="Shape" fill="#012049" fill-rule="nonzero"></path>
                <path d="M132.53481,98.0855397 C134.326371,100.407332 135.588608,102.93279 136.60654,105.661914 C134.611392,106.88391 132.616245,107.617108 131.231857,109.653768 C130.824684,110.224033 130.783966,110.835031 130.702532,111.486762 C129.643882,109.327902 128.951688,107.12831 129.155274,104.684318 C129.236709,102.403259 130.213924,100.366599 131.720464,98.6965377 C131.964768,98.4928717 132.249789,98.2892057 132.53481,98.0855397 Z" id="Shape" fill="#FEFDFB" fill-rule="nonzero"></path>
                <path d="M153.544937,98.9816701 C155.132911,100.692464 156.435865,102.647658 157.657384,104.602851 C159.286076,107.331976 160.792616,110.468432 160.996203,113.645621 C161.159072,116.130346 159.937553,118.08554 158.960338,120.244399 C156.680169,124.806517 154.237131,129.287169 151.468354,133.604888 C149.961814,136.04888 148.781013,138.737271 147.233755,141.181263 C146.948734,141.629328 146.582278,141.955193 146.175105,142.281059 C147.070886,139.674134 148.618143,137.270876 149.758228,134.704684 C151.712658,130.386965 154.033544,125.86558 154.929325,121.181263 C155.173629,116.700611 156.5173,112.790224 156.191561,108.309572 C155.987975,105.010183 154.888608,101.995927 153.544937,98.9816701 Z" id="Shape" fill="#012049" fill-rule="nonzero"></path>
                <path d="M148.536709,108.961303 C147.193038,111.731161 145.849367,114.541752 144.505696,117.352342 C142.999156,120.529532 141.696203,124.07332 139.131013,126.598778 C138.520253,127.250509 137.746624,127.576375 136.891561,127.861507 C137.583755,127.331976 138.235232,126.843177 138.601688,126.069246 C139.701055,123.991853 140.474684,121.751527 140.963291,119.470468 C141.248312,118.126273 141.818354,116.94501 142.551266,115.804481 C144.220675,113.238289 146.215823,110.875764 148.536709,108.961303 Z" id="Shape" fill="#012049" fill-rule="nonzero"></path>
                <path d="M81.3938819,127.494908 C81.7196203,130.997963 83.1040084,134.256619 85.5063291,136.822811 C88.478692,139.714868 91.8582278,141.466395 95.278481,143.747454 C93.4869198,145.254582 91.8175105,146.843177 90.3109705,148.635438 C85.1805907,154.297352 81.0681435,160.529532 76.4670886,166.558045 C75.4898734,164.806517 74.7162447,163.014257 73.6983122,161.303462 C70.6445148,156.293279 66.4913502,152.09776 61.157384,149.572301 C61.6052743,146.395112 64.2111814,143.584521 66.2063291,141.181263 C70.8481013,136.171079 76.0599156,131.690428 81.3938819,127.494908 Z" id="Shape" fill="#B7A364" fill-rule="nonzero"></path>
                <path d="M110.262447,136.578411 C112.054008,136.904277 113.560549,138.533605 114.863502,139.714868 C116.451477,141.14053 117.795148,142.729124 119.301688,144.236253 C117.550844,142.93279 116.24789,141.344196 114.212025,140.366599 C113.153376,139.837067 111.687553,139.226069 110.547468,139.8778 C109.366667,140.448065 109.244515,141.873727 108.878059,142.973523 C108.959494,140.733198 109.285232,138.574338 110.262447,136.578411 Z" id="Shape" fill="#012049" fill-rule="nonzero"></path>
                <path d="M138.520253,145.498982 C139.375316,151.120163 139.823207,156.863544 140.271097,162.525458 C140.352532,164.643585 140.556118,166.88391 140.311814,169.002037 C139.863924,171.120163 138.56097,173.075356 136.60654,174.052953 C134.326371,175.315682 132.046203,175.437882 129.52173,175.600815 C126.752954,175.723014 124.024895,175.682281 121.418987,174.663951 C124.961392,174.582485 128.46308,173.89002 131.761181,172.545825 C134.692827,171.201629 137.258017,169.002037 138.194515,165.824847 C138.438819,164.07332 138.194515,162.240326 138.235232,160.488798 C138.275949,157.107943 138.11308,153.686354 138.235232,150.305499 C138.275949,148.676171 138.11308,147.12831 138.520253,145.498982 Z" id="Shape" fill="#FEFDFB" fill-rule="nonzero"></path>
                <path d="M115.8,147.209776 C116.492194,146.965377 117.062236,147.576375 117.632278,147.90224 C117.998734,148.187373 118.528059,148.431772 118.446624,149.002037 C118.324473,152.057026 117.469409,155.071283 117.428692,158.126273 C118.120886,155.274949 118.650211,152.179226 120.075316,149.613035 C121.256118,150.753564 123.658439,152.138493 123.577004,153.971487 C123.658439,155.274949 124.065612,156.782077 123.739873,158.044807 C123.373418,159.8778 121.98903,161.425662 120.848945,162.810591 C118.650211,165.336049 116.410759,167.780041 114.130591,170.224033 C113.23481,166.476578 114.089873,162.281059 114.212025,158.452138 C114.456329,155.315682 114.659916,152.179226 115.067089,149.083503 C115.148523,148.472505 115.270675,147.576375 115.8,147.209776 Z" id="Shape" fill="#FEFDFB" fill-rule="nonzero"></path>
                <path d="M133.756329,150.346232 C134.855696,153.604888 135.832911,157.026477 136.117932,160.488798 C136.199367,162.118126 136.240084,163.869654 135.588608,165.417515 C134.774262,167.209776 132.9827,168.594705 130.946835,168.065173 C130.498945,167.046843 130.295359,166.028513 130.132489,164.96945 C131.02827,164.521385 131.842616,164.276986 132.371941,163.380855 C133.104852,162.03666 133.349156,160.407332 133.59346,158.940937 C133.959916,156.008147 134.407806,153.279022 133.756329,150.346232 Z" id="Shape" fill="#012049" fill-rule="nonzero"></path>
            </g>
        </g>
    </g>
</svg>