<svg width="200" height="200" viewBox="0 0 200 200" fill="none" xmlns="http://www.w3.org/2000/svg">
<path d="M71.6048 178.904C71.6048 178.778 71.6681 178.651 71.6681 178.524C71.7314 178.081 71.7947 177.575 71.9213 177.068C72.048 176.625 72.1113 176.118 72.2379 175.675C72.3012 175.549 72.3012 175.422 72.3645 175.295C72.4278 174.979 72.5544 174.599 72.6811 174.282C72.7444 174.156 72.7444 174.029 72.8077 173.903C73.1242 173.016 73.4408 172.193 73.8207 171.37C73.884 171.307 73.884 171.18 73.9473 171.117C74.1372 170.8 74.2638 170.42 74.4538 170.104C74.5171 170.041 74.5171 169.977 74.5804 169.914C74.7703 169.534 75.0236 169.154 75.2135 168.774C72.1113 170.104 69.3889 171.623 67.173 173.396C72.2379 162.063 82.431 156.809 94.0169 154.529C88.2556 149.591 90.978 144.4 93.1306 141.677C94.0802 140.538 94.9033 139.778 94.9033 139.778C94.9033 139.778 94.5867 140.538 94.4601 141.614C93.8903 145.033 94.4601 152.187 108.072 152.25C109.275 152.25 110.478 152.313 111.554 152.313C120.987 151.68 130.864 152.377 139.791 153.833C143.273 154.403 146.439 154.719 149.351 154.783C154.542 154.909 158.974 154.213 162.71 152.947C158.721 152.947 154.922 152.187 153.213 151.617C152.96 151.554 152.643 151.427 152.39 151.364C144.729 149.021 135.232 147.502 122.38 149.274C122.38 149.274 124.596 139.271 140.994 139.271C146.312 139.271 151.947 142.31 158.025 144.4C161.127 145.476 164.292 146.236 167.648 146.236C171.573 146.236 177.461 143.766 178.664 137.055C175.562 134.206 173.219 130.724 173.219 130.724C170.497 131.991 167.838 133.004 165.242 133.89C154.163 137.562 144.096 137.689 134.726 136.296C115.606 133.383 99.3984 123.887 82.9375 123.887C80.7216 123.887 78.5057 124.013 76.2898 124.33C75.4668 124.457 74.6437 124.583 73.8207 124.773C69.9587 125.533 66.16 126.862 62.6146 128.698C58.1828 131.041 54.1309 134.333 50.8387 138.702C50.2689 139.398 49.7624 140.158 49.2559 140.917C46.4702 145.096 44.3177 150.161 42.9248 156.112C42.9248 156.112 50.902 153.516 57.613 155.036C57.613 155.036 57.613 155.099 57.5497 155.162C57.5497 155.226 57.4864 155.226 57.4231 155.289C57.2964 155.479 57.0432 155.796 56.7899 156.302L56.7267 156.365C56.6633 156.492 56.5367 156.682 56.4101 156.872C56.4101 156.872 56.4101 156.872 56.4101 156.935C56.0935 157.505 55.7137 158.138 55.3338 158.898C55.3338 158.898 55.3338 158.898 55.3338 158.961C55.2072 159.214 55.0805 159.468 54.9539 159.784C54.8906 159.847 54.8906 159.911 54.8273 159.974C54.764 160.164 54.6374 160.354 54.5741 160.544C54.5107 160.734 54.4474 160.86 54.3208 161.05C54.2575 161.24 54.1309 161.43 54.0676 161.62C54.0043 161.81 53.8776 162.063 53.8143 162.253C53.751 162.443 53.6877 162.57 53.6244 162.76C53.4978 163.013 53.4345 163.266 53.3078 163.52C53.2445 163.709 53.1812 163.836 53.1179 164.026C52.9913 164.343 52.8647 164.659 52.8014 164.976C52.738 165.102 52.738 165.229 52.6747 165.356C52.5481 165.799 52.3582 166.305 52.2316 166.812C52.1049 167.192 51.9783 167.635 51.915 168.015C51.915 168.015 51.915 168.015 51.915 168.078C51.915 168.141 51.915 168.205 51.8517 168.268C51.8517 168.268 51.8517 168.268 51.8517 168.331C51.7884 168.648 51.6618 168.964 51.5984 169.344C51.5984 169.407 51.5984 169.471 51.5351 169.534C51.5351 169.597 51.5351 169.597 51.5351 169.661C53.8776 171.243 56.3468 172.763 58.8159 174.219C58.8159 174.219 58.8159 174.219 58.8792 174.219C59.639 174.662 60.462 175.105 61.285 175.549C61.3484 175.549 61.3484 175.612 61.4117 175.612C62.1714 176.055 62.9311 176.435 63.6909 176.815C63.8175 176.878 63.8808 176.941 64.0074 176.941C64.7039 177.321 65.4003 177.638 66.0967 178.018C66.2233 178.081 66.4133 178.144 66.5399 178.271C67.2363 178.588 67.8694 178.904 68.5658 179.221C68.7558 179.284 68.9457 179.411 69.1356 179.474C70.022 179.854 70.9083 180.297 71.7314 180.677C71.7314 180.36 71.7947 180.044 71.7947 179.79C71.7947 179.601 71.858 179.474 71.858 179.284C71.6048 179.157 71.6048 179.031 71.6048 178.904Z" fill="white"/>
<path d="M112.187 99.5109C115.606 99.7008 119.404 100.524 123.456 102.36C122.886 100.967 121.937 99.6375 120.67 98.4346C118.011 95.9654 114.656 94.9525 111.87 95.4589C110.541 95.7122 109.338 96.3453 108.388 97.3583C107.755 97.9914 107.375 98.7511 107.059 99.5742C108.641 99.4476 110.351 99.3842 112.187 99.5109Z" fill="white"/>
<path d="M124.343 113.692C124.026 113.376 123.71 113.059 123.393 112.742C123.14 112.932 122.887 113.122 122.57 113.186H122.507C122.317 113.249 122.127 113.249 122 113.312H121.937C121.557 113.376 121.177 113.376 120.797 113.376H120.734C120.481 113.376 120.228 113.312 119.974 113.249C119.215 113.059 118.645 112.742 118.202 112.426C117.948 112.236 117.695 111.983 117.569 111.856C117.505 111.793 117.442 111.666 117.379 111.603C117.632 111.729 117.948 111.793 118.265 111.729C118.328 111.729 118.328 111.729 118.392 111.729C118.518 111.729 118.645 111.666 118.708 111.603C118.835 111.54 118.898 111.476 119.025 111.413C119.341 111.16 119.595 110.843 119.658 110.4C119.721 110.273 119.721 110.083 119.721 109.957C119.721 109.893 119.721 109.893 119.721 109.83C119.721 109.64 119.595 109.45 119.531 109.26C119.341 109.134 119.151 109.007 118.961 108.88C118.328 108.437 117.759 108.057 117.125 107.741C116.809 107.551 116.492 107.424 116.176 107.234C116.112 107.424 116.049 107.678 115.986 107.867C115.859 108.311 115.796 108.817 115.796 109.26C115.796 109.514 115.796 109.83 115.859 110.083C115.923 110.463 115.986 110.843 116.112 111.223C116.176 111.476 116.302 111.666 116.366 111.856C116.429 111.919 116.429 111.983 116.492 112.046C116.809 112.679 117.252 113.249 117.759 113.692C117.822 113.755 117.885 113.819 117.948 113.882C118.328 114.199 118.772 114.452 119.278 114.705C119.468 114.768 119.595 114.832 119.784 114.895C120.418 115.085 121.114 115.212 121.81 115.212C122 115.212 122.19 115.212 122.38 115.148C122.444 115.148 122.444 115.148 122.507 115.148C122.76 115.085 122.95 115.085 123.203 115.022C123.9 114.832 124.533 114.515 125.039 114.072C124.723 114.072 124.533 113.882 124.343 113.692Z" fill="white"/>
<path d="M131.813 145.538C132.826 145.475 133.839 145.475 134.789 145.475C140.614 145.475 145.299 146.361 149.477 147.438C147.895 145.855 145.425 143.449 141.437 143.069C137.068 142.689 132.89 144.145 131.813 145.538Z" fill="white"/>
<path d="M59.2594 99.0047C60.5256 97.9284 61.9184 96.9154 63.3113 95.9658C65.4639 94.5096 67.7431 93.1168 70.1489 91.8506C71.4784 91.1541 72.8713 90.4577 74.2008 89.8879C74.0742 89.1915 73.9476 88.5584 73.8209 87.9253C73.2511 85.0762 72.4914 82.2906 71.6683 79.6315C70.5921 76.2127 69.3892 72.9838 67.9963 69.9449C67.4898 68.9319 67.0466 67.8556 66.5402 66.9059C66.097 66.0829 65.6538 65.2599 65.2106 64.4368C65.0207 64.1203 64.8308 63.7404 64.6408 63.4238C64.5142 63.7404 64.3876 64.1203 64.261 64.4368C63.5012 66.3361 62.8048 68.3621 62.235 70.4514C61.6652 72.3507 61.222 74.3134 60.7788 76.3393C60.4623 77.7955 60.2723 79.2516 60.0191 80.7078C59.0694 86.5324 58.8162 92.7369 59.2594 99.0047Z" fill="white"/>
<path d="M83.824 192.072L86.8629 193.021L89.9019 192.072C105.413 187.26 119.785 179.789 132.384 170.103C133.903 170.293 135.359 170.482 136.815 170.736C141.184 171.495 145.426 171.812 149.414 171.812C169.484 171.812 181.64 163.075 187.654 155.224C195.758 144.715 200 126.481 200 117.491C189.427 114.389 181.576 111.73 173.852 108.627V20.6249L150.807 14.1671L150.554 14.1038C149.668 13.9139 148.845 13.8506 147.958 13.8506C145.806 13.8506 143.59 14.3571 141.69 15.3701L139.285 14.2305C137.449 13.3441 135.423 12.9009 133.397 12.9009C132.194 12.9009 131.054 13.0275 129.915 13.3441L124.47 14.7369L90.5983 6.50649C89.3954 6.18993 88.1292 6 86.9262 6C85.7233 6 84.5204 6.18993 83.3175 6.44318L49.3827 14.7369L43.938 13.2808C42.7984 12.9642 41.5954 12.8376 40.4558 12.8376C38.4299 12.8376 36.4039 13.2808 34.5679 14.1671L32.1621 15.3067C30.1994 14.2938 28.0468 13.7873 25.8943 13.7873C25.0079 13.7873 24.1216 13.8506 23.2985 14.0405L23.0453 14.1038L0 20.5616V97.6746V117.301L0.949668 119.327C16.7142 154.211 46.9769 180.676 83.824 192.072ZM88.699 177.13H87.3061V182.132H85.66V177.13H84.2672V175.737H88.699V177.13ZM88.8889 182.132L89.9652 175.674H91.6113L92.9408 179.093L94.3337 175.674H95.9797L96.9294 182.132H95.2833L94.8401 178.46L93.3207 182.132H92.6876L91.2314 178.46L90.7249 182.132H88.8889ZM191.896 122.936C191.453 128.381 188.667 140.979 181.07 149.97C175.688 156.364 166.572 164.468 149.351 164.468C146.375 164.468 143.21 164.215 139.918 163.771C139.285 163.708 138.588 163.582 137.955 163.455C131.497 162.379 124.786 161.809 118.582 161.809C108.072 161.809 99.1453 163.392 92.6242 166.367C88.5723 168.267 83.0009 171.559 81.4815 179.029C81.1016 180.992 81.0383 182.828 81.3549 184.664C77.9994 183.461 74.6439 182.132 71.415 180.676C71.415 180.359 71.4783 180.106 71.4783 179.789C71.4783 180.106 71.415 180.422 71.415 180.676C70.5286 180.296 69.6423 179.916 68.8192 179.473C68.6293 179.409 68.4394 179.283 68.2494 179.219C67.553 178.903 66.9199 178.586 66.2235 178.27C66.0969 178.206 65.9069 178.143 65.7803 178.016C65.0839 177.637 64.3875 177.32 63.691 176.94C63.6277 176.877 63.5011 176.814 63.3745 176.814C62.6148 176.434 61.855 175.991 61.0953 175.611C61.032 175.611 61.032 175.547 60.9687 175.547C60.1456 175.104 59.3859 174.661 58.5628 174.218C58.5628 174.218 58.5628 174.218 58.4995 174.218C56.0304 172.762 53.6246 171.242 51.2187 169.659C45.2042 165.607 39.5062 160.986 34.3146 155.984C34.2513 155.921 34.188 155.858 34.1247 155.794C33.1751 154.845 32.2254 153.958 31.2757 153.009C31.0858 152.819 30.8959 152.565 30.7059 152.375C29.9462 151.552 29.1864 150.729 28.4267 149.906C28.1102 149.59 27.8569 149.273 27.5404 148.893C26.9073 148.197 26.2741 147.437 25.641 146.741C25.2612 146.298 24.8813 145.854 24.5647 145.411C24.0582 144.778 23.4884 144.145 22.9819 143.449C22.5388 142.942 22.1589 142.372 21.7157 141.866C21.2725 141.296 20.8294 140.726 20.3862 140.156C19.943 139.523 19.4998 138.953 19.0567 138.32C18.6768 137.814 18.2969 137.244 17.9171 136.738C17.4106 136.041 16.9674 135.345 16.5242 134.648C16.2077 134.142 15.8911 133.699 15.5746 133.192C15.0681 132.432 14.6249 131.673 14.1184 130.913C13.8651 130.47 13.5486 130.027 13.2953 129.583C12.7889 128.76 12.3457 127.937 11.8392 127.178C11.5859 126.734 11.3327 126.355 11.1428 125.911C10.6363 125.088 10.1931 124.202 9.74992 123.316C9.55998 122.936 9.30674 122.493 9.11681 122.113C8.67363 121.226 8.23045 120.34 7.78727 119.454C7.72396 119.264 7.59733 119.074 7.47071 118.884C7.15416 118.187 6.77428 117.554 6.45773 116.858L6.07788 116.098V115.212V101.726C12.2824 93.5594 20.5761 85.5188 31.529 79.5676C33.8715 78.3014 36.2773 77.1618 38.8097 76.0855C39.3162 73.3631 39.886 70.6407 40.5825 67.9816C43.6847 56.3324 48.8129 45.886 55.7772 37.9088L61.2852 31.641L67.3631 37.339C68.566 38.4153 69.7056 39.6182 70.7819 40.8211C72.3647 42.5305 73.8208 44.3033 75.277 46.2026C76.5432 44.1766 77.9361 42.2773 79.3922 40.5046C79.7721 40.0614 80.1519 39.5549 80.5951 39.1117C87.8759 45.886 94.1437 55.2561 98.5755 66.5888C99.5885 69.1212 100.475 71.7803 101.235 74.5027C103.894 75.1991 106.426 75.9588 108.832 76.7186C116.999 79.3143 123.773 82.2267 129.915 85.6455L132.637 87.1649L133.966 89.9506C137.195 96.535 142.64 102.296 145.046 103.626C152.643 107.868 160.494 111.413 167.521 114.325C169.737 115.212 171.827 116.035 173.852 116.858C184.362 120.783 191.896 122.936 191.896 122.936ZM6.14117 29.3618V25.4365L24.3748 20.3716C24.818 20.3083 25.3245 20.245 25.7676 20.245C27.0339 20.245 28.2368 20.5616 29.3131 21.1314L31.8455 22.5242L37.1004 20.0551C38.1133 19.5486 39.1896 19.3587 40.3292 19.3587C40.9623 19.3587 41.5954 19.422 42.2285 19.6119L49.1928 21.4479L84.837 12.6477C85.4701 12.4577 86.1665 12.3944 86.8629 12.3944C87.5593 12.3944 88.1925 12.4577 88.8889 12.6477L89.0788 12.711L124.533 21.3213L131.497 19.4853C132.13 19.2953 132.764 19.232 133.397 19.232C134.473 19.232 135.613 19.4853 136.626 19.9285L141.944 22.3976L144.476 21.0047C145.552 20.4349 146.819 20.1184 148.022 20.1184C148.528 20.1184 148.971 20.1817 149.414 20.245L167.648 25.3099V29.2352V105.905C161.95 103.436 155.935 100.524 148.591 96.9149C147.388 96.0918 143.273 91.85 140.677 86.5318L138.335 81.6569L133.65 79.0611C126.432 75.0092 118.392 71.717 108.705 68.8047C108.009 68.6148 107.249 68.4248 106.553 68.1716C101.868 54.3697 94.5869 42.5306 85.4068 34.0469L80.3419 29.3618L75.7835 34.5533C75.5935 34.8066 75.4036 35.0598 75.1504 35.2498C74.2007 34.2368 73.1877 33.2238 72.1747 32.2741L60.9687 21.8278L50.9022 33.3504C42.4185 43.037 36.4039 56.0158 33.2384 70.4508C32.7952 70.6407 32.352 70.8306 31.8455 71.0206C21.3359 76.0855 12.9155 82.8598 6.20449 90.0772V29.3618H6.14117Z" fill="#B0B3B2"/>
<path d="M132.953 59.4985L138.081 56.8394L141.31 66.9059L144.476 56.8394L149.604 59.4985L146.692 53.8638L155.239 51.1414L146.692 48.4824L149.604 42.8477L144.476 45.5067L141.31 35.377L138.081 45.5067L132.953 42.8477L135.929 48.4824L127.318 51.1414L135.929 53.8638L132.953 59.4985Z" fill="#B0B3B2"/>
<path d="M51.5989 168.265C51.5989 168.202 51.6622 168.075 51.6622 168.012C51.7889 167.569 51.8522 167.189 51.9788 166.809C52.1054 166.302 52.2953 165.859 52.422 165.353C52.4853 165.226 52.4853 165.099 52.5486 164.973C52.6752 164.656 52.7385 164.34 52.8651 164.023C52.9284 163.833 52.9918 163.707 53.0551 163.517C53.1817 163.263 53.245 163.01 53.3716 162.757C53.4349 162.567 53.4983 162.377 53.5616 162.25C53.6249 162.06 53.7515 161.807 53.8148 161.617C53.8781 161.427 54.0047 161.237 54.068 161.048C54.1314 160.858 54.1947 160.731 54.3213 160.541C54.3846 160.351 54.5112 160.161 54.5745 159.971C54.6378 159.908 54.6378 159.845 54.7012 159.781C54.8278 159.528 54.9544 159.212 55.081 158.958C55.081 158.958 55.081 158.958 55.081 158.895C55.4609 158.135 55.8408 157.439 56.1573 156.932C56.1573 156.932 56.1573 156.932 56.1573 156.869C56.2839 156.679 56.3472 156.552 56.4739 156.362L56.5372 156.299C56.7904 155.856 57.0437 155.539 57.1703 155.286C57.2336 155.223 57.2336 155.16 57.2969 155.16C57.3602 155.096 57.3602 155.033 57.3602 155.033C50.6492 153.513 42.672 156.109 42.672 156.109C44.0016 150.158 46.2175 145.093 49.0032 140.915C49.5096 140.155 50.0161 139.458 50.5859 138.699C53.9414 134.394 57.93 131.101 62.3618 128.696C65.9072 126.796 69.6426 125.53 73.5679 124.77C74.3909 124.58 75.214 124.454 76.037 124.327C78.2529 124.01 80.4688 123.884 82.6847 123.884C99.1456 123.884 115.417 133.381 134.473 136.293C143.843 137.686 153.91 137.559 164.989 133.887C167.585 133.064 170.244 131.988 172.966 130.721C172.966 130.721 175.942 128.379 180.311 126.796C178.728 126.48 175.309 125.783 170.371 124.39C168.281 123.757 165.939 123.061 163.343 122.111C157.012 119.895 149.288 116.73 140.488 112.235C135.613 109.765 128.965 102.168 125.103 94.1276C120.988 91.8484 116.43 89.7591 110.985 87.7332C108.769 86.9101 106.363 86.1504 103.767 85.3274C102.248 84.8842 100.602 84.3777 98.8924 83.9345C96.6131 83.3014 94.2073 82.6683 91.6116 82.0352C90.5986 81.7819 89.5856 81.592 88.5726 81.3388C88.3827 84.5043 86.9265 87.1001 84.6473 88.0497C84.5207 87.4799 84.4574 86.9101 84.3308 86.3403C83.8876 84.2511 83.3811 82.2251 82.8113 80.1991C81.8616 76.5904 80.6587 73.1716 79.3925 69.9427C79.0126 69.0564 78.6961 68.17 78.2529 67.2837C77.8097 66.2074 77.3032 65.1944 76.7968 64.1814C75.024 60.5094 73.0614 57.0906 70.9088 53.9883C69.4527 51.8357 67.9332 49.8731 66.3504 48.0371C64.8309 46.2644 63.3115 44.6816 61.7287 43.1621C56.4106 49.24 52.232 57.0273 49.383 65.8908C48.6233 68.2333 47.9902 70.7025 47.4204 73.1716C46.9139 75.5141 46.4707 77.8566 46.0908 80.3258C45.9009 81.4654 45.7743 82.6683 45.6477 83.8712C45.0779 89.3793 44.9512 95.0773 45.3311 100.839C42.0389 100.205 38.9367 96.7867 37.8604 92.165C37.4805 90.5822 37.4172 88.9994 37.5438 87.5432C37.4805 87.6066 37.3539 87.6699 37.2906 87.6699C34.8214 88.9994 32.5422 90.3923 30.3897 91.8484C15.7648 101.852 9.37036 113.881 7.28109 118.629C7.28109 118.692 7.21777 118.692 7.21777 118.756C7.28108 118.946 7.40771 119.136 7.53433 119.325C7.97751 120.212 8.42069 121.098 8.86387 121.985C9.0538 122.364 9.30705 122.808 9.49698 123.187C9.94016 124.074 10.4466 124.897 10.8898 125.783C11.1431 126.226 11.333 126.606 11.5862 127.049C12.0294 127.872 12.5359 128.696 13.0424 129.455C13.2957 129.898 13.6122 130.342 13.8654 130.785C14.3086 131.545 14.8151 132.304 15.3216 133.064C15.6382 133.57 15.9547 134.014 16.2713 134.52C16.7144 135.217 17.2209 135.913 17.6641 136.609C18.044 137.116 18.4238 137.686 18.8037 138.192C19.2469 138.825 19.6901 139.458 20.1332 140.028C20.5764 140.598 21.0196 141.168 21.4628 141.738C21.906 142.244 22.2858 142.814 22.729 143.32C23.2355 143.954 23.8053 144.587 24.3118 145.283C24.6917 145.726 25.0715 146.169 25.3881 146.613C26.0212 147.372 26.6543 148.069 27.2874 148.765C27.604 149.082 27.8572 149.462 28.1738 149.778C28.9335 150.601 29.6932 151.424 30.453 152.247C30.6429 152.437 30.8328 152.69 31.0228 152.88C31.9724 153.83 32.9221 154.78 33.8718 155.666C33.9351 155.729 33.9984 155.793 34.0617 155.856C39.3165 160.858 44.9512 165.479 50.9658 169.531C50.9658 169.405 51.0291 169.341 51.0291 169.215C51.4723 168.898 51.5356 168.582 51.5989 168.265ZM60.7157 76.2105C61.1589 74.1846 61.6021 72.2219 62.1719 70.3226C62.7417 68.2333 63.4381 66.2707 64.1978 64.308C64.3245 63.9915 64.4511 63.6116 64.5777 63.2951C64.7676 63.6116 64.9576 63.9282 65.1475 64.308C65.5907 65.1311 66.0339 65.9541 66.477 66.7772C66.9835 67.7902 67.49 68.8031 67.9332 69.8161C69.326 72.9184 70.5923 76.1472 71.6052 79.5027C72.4283 82.1618 73.188 84.9475 73.7578 87.7965C73.8844 88.4296 74.0111 89.126 74.1377 89.7591C72.7448 90.3923 71.4153 91.0254 70.0858 91.7218C67.6799 92.988 65.4007 94.3809 63.2482 95.837C61.8553 96.7867 60.4625 97.7997 59.1963 98.8759C58.8164 92.6081 59.0696 86.4036 59.956 80.4524C60.2092 79.1229 60.4625 77.6667 60.7157 76.2105ZM108.389 97.4198C109.339 96.4068 110.542 95.7737 111.871 95.5205C114.657 94.9507 118.012 95.9636 120.671 98.4961C121.938 99.6357 122.824 101.029 123.457 102.421C126.116 106.347 131.244 115.084 140.488 117.743C140.488 117.743 135.233 122.048 126.306 117.3C125.926 117.553 125.546 117.806 125.166 117.996C128.142 120.212 129.852 122.934 129.598 125.72C126.179 122.681 120.228 120.149 113.201 119.009C107.503 118.059 102.185 118.249 98.1326 119.325C99.7787 115.907 104.717 113.754 110.732 113.691C110.732 113.691 110.732 113.691 110.732 113.627C110.605 113.438 110.542 113.311 110.478 113.184C110.352 112.868 110.162 112.488 110.035 112.108C109.782 111.475 109.655 110.778 109.529 110.145C109.465 109.639 109.402 109.196 109.465 108.689C109.465 107.486 109.719 106.283 110.162 105.144L110.225 104.954C109.339 104.574 108.516 104.257 107.629 104.004C105.223 103.181 103.008 102.675 101.298 102.358C99.3989 102.042 98.1959 101.915 98.1959 101.915C98.3859 101.978 99.4622 101.472 101.235 100.902C102.754 100.459 104.717 99.9522 107.123 99.6357C107.376 98.8126 107.819 98.0529 108.389 97.4198Z" fill="#CE0E2D"/>
<path d="M31.7826 71.1476C32.2258 70.9577 32.669 70.7678 33.1755 70.5778C36.341 56.1429 42.2923 43.2274 50.8393 33.4775L60.9058 21.9548L72.1119 32.4012C73.1248 33.3509 74.1378 34.3638 75.0875 35.3768C75.2774 35.1236 75.4674 34.8703 75.7206 34.6804L80.279 29.4889L85.3439 34.1739C94.524 42.6576 101.805 54.4968 106.49 68.2986C107.25 68.4886 107.946 68.6785 108.642 68.9317C118.329 71.8441 126.37 75.1362 133.587 79.1882L138.272 81.7839L140.615 86.6589C143.21 91.977 147.326 96.2189 148.528 97.0419C155.873 100.651 161.887 103.563 167.585 106.032V29.3623V25.437L149.351 20.3721C148.908 20.3088 148.402 20.2454 147.959 20.2454C146.692 20.2454 145.49 20.562 144.413 21.1318L141.881 22.5246L136.563 20.0555C135.55 19.6123 134.473 19.3591 133.334 19.3591C132.701 19.3591 132.068 19.4224 131.434 19.6123L124.47 21.4484L89.0159 12.838L88.826 12.7747C88.1929 12.5848 87.4965 12.5215 86.8001 12.5215C86.1036 12.5215 85.4705 12.5848 84.7741 12.7747L49.1932 21.4484L42.229 19.6123C41.5959 19.4224 40.9627 19.3591 40.3296 19.3591C39.19 19.3591 38.1138 19.6123 37.1008 20.0555L31.8459 22.5246L29.3135 21.1318C28.2372 20.562 26.971 20.2454 25.7681 20.2454C25.2616 20.2454 24.8184 20.3088 24.3752 20.3721L6.1416 25.437V29.3623V90.2043C12.8526 82.9868 21.273 76.2125 31.7826 71.1476ZM135.93 48.4822L132.954 42.8475L138.082 45.5066L141.311 35.3768L144.477 45.5066L149.605 42.8475L146.629 48.4822L155.239 51.2046L146.629 53.927L149.605 59.5617L144.477 56.9026L141.311 67.0324L138.082 56.9026L132.954 59.5617L135.93 53.927L127.383 51.2046L135.93 48.4822Z" fill="black"/>
<path d="M145.046 103.563C142.64 102.233 137.196 96.5354 133.967 89.8877L132.637 87.102L129.915 85.5826C123.774 82.1638 116.999 79.3148 108.832 76.6557C106.426 75.896 103.894 75.1362 101.235 74.4398C100.412 71.7174 99.5254 69.0583 98.5757 66.5259C94.144 55.1932 87.8762 45.8231 80.5954 39.0488C80.2155 39.492 79.7723 39.9985 79.3925 40.4417C77.9363 42.2144 76.5435 44.1137 75.2772 46.1397C73.8211 44.2404 72.3649 42.4676 70.7821 40.7582C69.6425 39.5553 68.5029 38.3524 67.3633 37.2761L61.2855 31.5781L55.7774 37.8459C48.8132 45.8231 43.685 56.2062 40.5827 67.9187C39.8863 70.5778 39.3165 73.2369 38.81 76.0226C36.2775 77.0989 33.8084 78.2385 31.5292 79.5047C20.5764 85.4559 12.2826 93.4965 6.07812 101.664V115.149V116.035L6.45798 116.795C6.77453 117.491 7.09109 118.124 7.47096 118.821C7.47096 118.758 7.53427 118.758 7.53427 118.694C9.62354 113.946 15.9547 101.917 30.6429 91.9137C32.7321 90.4575 35.0746 89.0647 37.5438 87.7351C37.6071 87.6718 37.7337 87.6085 37.797 87.6085C37.6704 89.0647 37.7337 90.6475 38.1136 92.2302C39.1899 96.8519 42.2921 100.271 45.5843 100.904C45.2044 95.0792 45.3311 89.4445 45.9009 83.9365C46.0275 82.7336 46.1541 81.594 46.344 80.391C46.6606 77.9852 47.1038 75.5794 47.6736 73.2369C48.2434 70.7677 48.8765 68.2986 49.6362 65.9561C52.4852 57.0925 56.6637 49.3053 61.9819 43.2274C63.5647 44.7469 65.1474 46.3929 66.6036 48.1023C68.1864 49.9384 69.7059 51.9643 71.162 54.0536C73.3146 57.2192 75.2772 60.5746 77.0499 64.2467C77.5564 65.2597 77.9996 66.336 78.5061 67.3489C78.886 68.2353 79.2658 69.1217 79.6457 70.008C80.9752 73.3002 82.1148 76.719 83.0645 80.2644C83.6343 82.2904 84.1408 84.3163 84.584 86.4056C84.7106 86.9754 84.7739 87.5452 84.9005 88.115C87.2431 87.1653 88.6359 84.5696 88.8258 81.404C89.8388 81.6573 90.8518 81.8472 91.8648 82.1004C94.4605 82.7336 96.8664 83.3667 99.1456 83.9998C100.855 84.443 102.438 84.9494 104.021 85.3926C106.616 86.1524 108.959 86.9754 111.238 87.7984C116.683 89.7611 121.178 91.8504 125.356 94.1929C129.282 102.17 135.929 109.767 140.741 112.3C149.541 116.795 157.329 119.961 163.596 122.176C166.192 123.063 168.535 123.823 170.624 124.456C175.562 125.912 178.981 126.608 180.564 126.861C176.195 128.444 173.22 130.787 173.22 130.787C173.22 130.787 175.562 134.269 178.664 137.118C177.461 143.829 171.574 146.298 167.648 146.298C164.356 146.298 161.127 145.475 158.025 144.462C151.947 142.373 146.312 139.334 140.994 139.334C124.597 139.334 122.381 149.337 122.381 149.337C135.233 147.564 144.793 149.084 152.39 151.426C152.643 151.49 152.96 151.616 153.213 151.679C154.923 152.249 158.721 153.009 162.71 153.009C158.975 154.275 154.606 154.908 149.351 154.845C146.439 154.782 143.21 154.528 139.791 153.895C130.928 152.376 120.988 151.679 111.555 152.376C110.415 152.313 109.275 152.313 108.072 152.313C94.3972 152.186 93.8907 145.095 94.4605 141.676C94.6504 140.6 94.9037 139.84 94.9037 139.84C94.9037 139.84 94.0807 140.537 93.131 141.74C90.9784 144.462 88.256 149.717 94.0173 154.592C82.4314 156.934 72.3016 162.126 67.1734 173.458C69.3893 171.686 72.175 170.166 75.2139 168.837C74.9607 169.217 74.7707 169.596 74.5808 169.976C74.5175 170.04 74.5175 170.103 74.4542 170.166C74.2643 170.483 74.0743 170.863 73.9477 171.179C73.8844 171.243 73.8844 171.369 73.8211 171.433C73.4412 172.256 73.1247 173.142 72.8081 173.965C72.7448 174.092 72.7448 174.218 72.6815 174.345C72.5548 174.661 72.4915 175.041 72.3649 175.358C72.3016 175.484 72.3016 175.611 72.2383 175.738C72.1117 176.181 71.9851 176.687 71.9217 177.131C71.7951 177.637 71.7318 178.08 71.6685 178.587C71.6685 178.713 71.6052 178.84 71.6052 178.967C71.6052 179.093 71.5419 179.22 71.5419 179.41C71.5419 179.6 71.4786 179.726 71.4786 179.916C71.4786 180.233 71.4152 180.486 71.4152 180.803C74.6441 182.259 77.9996 183.588 81.3551 184.791C81.0386 182.955 81.1019 181.119 81.4817 179.156C83.0012 171.749 88.5726 168.394 92.6245 166.494C99.0822 163.519 108.072 161.936 118.582 161.936C124.85 161.936 131.498 162.506 137.955 163.582C138.588 163.709 139.285 163.772 139.918 163.898C143.147 164.342 146.312 164.595 149.351 164.595C166.572 164.595 175.689 156.491 181.07 150.097C188.668 141.043 191.453 128.444 191.896 123.063C191.896 123.063 184.362 120.91 173.789 116.858C171.763 116.099 169.674 115.276 167.458 114.326C160.494 111.35 152.644 107.741 145.046 103.563ZM134.79 145.475C133.777 145.475 132.827 145.475 131.814 145.538C132.89 144.145 137.132 142.689 141.437 143.069C145.489 143.449 147.895 145.791 149.478 147.438C145.299 146.298 140.551 145.475 134.79 145.475Z" fill="black"/>
<path d="M98.1961 101.918C98.1961 101.918 99.399 102.045 101.298 102.362C103.008 102.678 105.224 103.185 107.629 104.008C108.453 104.261 109.339 104.641 110.225 104.957L110.162 105.147C109.719 106.287 109.466 107.49 109.466 108.693C109.466 109.199 109.466 109.706 109.529 110.149C109.592 110.782 109.782 111.478 110.035 112.112C110.162 112.491 110.352 112.871 110.478 113.188C110.542 113.314 110.605 113.441 110.732 113.631C110.732 113.631 110.732 113.631 110.732 113.694C104.717 113.694 99.7789 115.91 98.1328 119.329C102.185 118.253 107.503 118.126 113.201 119.012C120.228 120.152 126.18 122.748 129.598 125.723C129.852 123.001 128.142 120.215 125.167 117.999C125.547 117.81 125.926 117.556 126.306 117.303C135.233 122.051 140.488 117.746 140.488 117.746C131.245 115.087 126.053 106.413 123.457 102.425C119.405 100.526 115.543 99.7658 112.188 99.5759C110.352 99.4493 108.642 99.5759 107.123 99.7025C104.717 99.9558 102.755 100.462 101.235 100.969C99.4623 101.475 98.3861 101.982 98.1961 101.918ZM122.318 115.34C122.254 115.34 122.254 115.34 122.191 115.34C122.001 115.34 121.811 115.404 121.621 115.404C120.925 115.404 120.228 115.277 119.595 115.087C119.405 115.024 119.279 114.961 119.089 114.897C118.646 114.707 118.202 114.391 117.759 114.074C117.696 114.011 117.633 113.948 117.569 113.884C117.063 113.441 116.62 112.871 116.303 112.238C116.303 112.175 116.24 112.111 116.176 112.048C116.05 111.858 115.987 111.605 115.923 111.415C115.797 111.035 115.733 110.655 115.67 110.275C115.607 109.959 115.607 109.706 115.607 109.452C115.607 108.946 115.67 108.503 115.797 108.06C115.86 107.87 115.923 107.616 115.987 107.426C116.303 107.553 116.62 107.743 116.936 107.933C117.569 108.25 118.202 108.693 118.772 109.073C118.962 109.199 119.152 109.326 119.342 109.452C119.405 109.642 119.469 109.769 119.532 110.022C119.532 110.086 119.532 110.086 119.532 110.149C119.532 110.275 119.532 110.465 119.469 110.592C119.405 111.035 119.152 111.352 118.836 111.605C118.772 111.668 118.646 111.732 118.519 111.795C118.392 111.858 118.329 111.858 118.202 111.922C118.139 111.922 118.139 111.922 118.076 111.922C117.759 111.985 117.443 111.922 117.189 111.795C117.253 111.858 117.316 111.922 117.379 112.048C117.506 112.238 117.759 112.428 118.013 112.618C118.456 112.935 119.025 113.251 119.785 113.441C120.038 113.504 120.228 113.504 120.545 113.568H120.608C120.988 113.568 121.305 113.568 121.748 113.504H121.811C122.001 113.504 122.128 113.441 122.318 113.378H122.381C122.698 113.314 122.951 113.124 123.204 112.935C123.521 113.251 123.837 113.568 124.154 113.884C124.344 114.074 124.534 114.264 124.724 114.454C124.154 114.897 123.521 115.214 122.887 115.404C122.761 115.277 122.571 115.277 122.318 115.34Z" fill="black"/>
<path d="M84.2676 177.131H85.5971V182.133H87.3065V177.131H88.6994V175.738H84.2676V177.131Z" fill="black"/>
<path d="M91.1046 178.461L92.624 182.133H93.2571L94.7766 178.461H94.8399L95.2831 182.133H96.9292L95.9795 175.738H94.3334L92.9406 179.157L91.611 175.738H89.965L88.8887 182.133H90.5348L91.1046 178.461Z" fill="black"/>
</svg>
