<?xml version="1.0" encoding="UTF-8"?>
<svg width="200px" height="200px" viewBox="0 0 200 200" version="1.1" xmlns="http://www.w3.org/2000/svg" xmlns:xlink="http://www.w3.org/1999/xlink">
    <!-- Generator: Sketch 54.1 (76490) - https://sketchapp.com -->
    <title>northeastern-st</title>
    <desc>Created with Sketch.</desc>
    <defs>
        <polygon id="path-1" points="0.000983606557 2.82442553 198.718033 2.82442553 198.718033 150.723404 0.000983606557 150.723404"></polygon>
    </defs>
    <g id="northeastern-st" stroke="none" stroke-width="1" fill="none" fill-rule="evenodd">
        <g id="northeastern-st_BGL" transform="translate(0.000000, 0.000000)">
            <g id="northeastern-st" transform="translate(0.000000, 24.000000)">
                <path d="M171.168525,49.4110638 C171.168525,49.4110638 177.922623,42.1075319 172.673443,31.9533617 C165.181639,17.4478723 138.493115,9.60370213 121.427541,7.89659574 C70.5816393,2.80148936 23.922623,23.3948936 23.922623,23.3948936 C23.922623,23.3948936 36.8668852,28.952 42.4701639,32.9756596 C25.7816393,42.382766 3.88327869,58.6379574 3.88327869,58.6379574 C5.9357377,97.1281277 33.0865574,124.484426 55.9357377,139.474851 C58.8472131,141.385106 56.8013115,128.675191 59.5488525,130.254511 C73.5160656,138.121617 89.5029508,144.877957 89.5029508,144.877957 C93.2439344,100.57183 136.470164,87.7537872 136.470164,87.7537872 C157.60459,92.829234 175.840656,104.117106 175.840656,104.117106 C175.840656,104.117106 175.666885,94.8443404 170.322623,87.6391064 C173.201311,88.6057021 175.607869,91.0926383 175.607869,91.0926383 C175.607869,91.0926383 175.457049,88.2845957 173.217705,85.3553191 C178.08,88.0454043 182.535738,96.7677021 181.532459,104.005702 C181.532459,104.005702 200.575082,90.2145106 193.325902,69.5817872 C190.775082,62.3339574 179.876721,53.575617 171.168525,49.4110638 M81.175082,128.44583 C81.175082,128.44583 71.037377,125.074213 59.5488525,116.964638 C59.4636066,116.899106 59.3554098,116.89583 59.2406557,116.938426 C67.1685246,89.4019149 92.1390164,67.9369362 92.1390164,67.9369362 C64.2570492,83.3369362 52.2734426,108.491362 47.8406557,120.958809 C43.2242623,116.794255 38.584918,112.072681 34.2767213,106.826851 C53.037377,72.9009787 77.2045902,57.1241702 96.3685246,50.5087234 C85.9488525,49.0113191 47.9980328,62.7173191 26.4242623,95.9780426 C22.2209836,89.303617 18.7488525,81.9869787 16.5062295,74.1002128 C15.6537705,71.0890213 14.9718033,68.0024681 14.5127869,64.8274468 C27.28,49.9844681 57.2636066,33.8177447 57.2636066,33.8177447 C50.0537705,27.2219574 42.1947541,24.0371064 42.1947541,24.0371064 C42.1947541,24.0371064 72.2734426,15.1542553 105.017705,14.6267234 C132.820984,14.168 150.716066,21.2028511 158.198033,27.1891915 C158.489836,27.4218298 158.765246,27.6479149 159.037377,27.8772766 C159.096393,27.9297021 159.158689,27.9854043 159.220984,28.0378298 C159.765246,28.5031064 160.28,28.968383 160.748852,29.4238298 C160.781639,29.4533191 160.814426,29.4860851 160.847213,29.5155745 C161.040656,29.7088936 161.234098,29.9022128 161.417705,30.0922553 C161.457049,30.1315745 161.499672,30.1708936 161.535738,30.2102128 C161.535738,30.2102128 161.532459,30.2069362 161.52918,30.2069362 C170.899672,39.9417021 164.939016,47.464766 163.558689,48.2151064 C160.991475,37.3400851 153.647213,33.6408085 153.647213,33.6408085 C153.647213,33.6408085 156.558689,40.4790638 154.499672,47.4254468 C137.840656,36.3734894 107.542295,33.3000426 93.4537705,34.0274468 C93.4537705,34.0274468 112.870164,38.0576596 125.775082,43.565617 C117.234098,42.6481702 108.739016,43.0708511 108.739016,43.0708511 C122.312787,45.5020851 126.35541,50.8822553 126.761967,51.4753191 C126.594754,52.7630213 126.683279,54.1129787 127.060328,55.4629362 C127.965246,58.6641702 130.339016,61.2428511 133.381639,62.7566383 C115.883279,61.7114043 101.768525,70.1748511 98.9357377,75.4468936 C98.9357377,75.4468936 113.378361,78.3434043 126.716066,82.989617 C126.716066,82.989617 91.9947541,91.6234468 81.175082,128.44583 M135.243934,53.8115319 C135.716066,55.8397447 137.932459,57.2159149 140.211148,56.8849787 C141.460328,56.704766 142.466885,56.0363404 143.043934,55.1385532 C144.122623,56.0658298 145.125902,56.9537872 146.027541,57.782766 C144.850492,58.9787234 143.217705,59.8339149 141.289836,60.1124255 C136.719344,60.7775745 132.25377,58.0088511 131.316066,53.932766 C130.758689,51.5179149 131.571803,49.1915319 133.263607,47.553234 C134.50623,48.4182553 135.699672,49.2898298 136.834098,50.1450213 C135.578361,50.9379574 134.90623,52.343617 135.243934,53.8115319 M184.073443,92.7997447 C184.201311,90.9320851 181.116066,83.2877872 173.840656,79.6999149 C166.457049,76.0563404 141.991475,74.9029787 141.991475,74.9029787 C159.978361,80.2634894 168.984918,94.3266383 168.984918,94.3266383 C143.063607,78.1238723 117.896393,73.8806809 117.896393,73.8806809 C122.857049,68.3202979 132.25377,67.3602553 144.076721,67.8681277 C150.607869,68.1466383 158.68,69.5850638 158.68,69.5850638 C156.516066,67.5339149 154.932459,66.2003404 154.932459,66.2003404 C156.886557,64.971617 161.975082,59.735617 161.50623,52.327234 C167.581639,56.3869362 183.837377,64.1655745 187.401311,73.1205106 C192.35541,85.5617447 184.073443,92.7997447 184.073443,92.7997447" id="Fill-1" fill="#000000"></path>
                <path d="M162.110492,64.7317702 C166.182623,65.1249617 170.795738,65.6721532 174.808852,66.419217 C171.31377,64.0895574 167.618689,62.0941106 164.58918,60.5967064 C163.956393,62.2841532 163.051475,63.6537702 162.110492,64.7317702" id="Fill-3" fill="#000000"></path>
                <polygon id="Fill-5" fill="#000000" points="2.58819672 53.0172851 2.58819672 53.7086468 3.40786885 53.1483489 3.40786885 56.5297957 4.20131148 55.9891574 4.20131148 52.6109872 5.02098361 52.053966 5.02098361 51.3626043"></polygon>
                <polygon id="Fill-7" fill="#000000" points="6.22229508 52.0923021 6.23213115 52.0857489 7.12065574 54.0615362 7.39606557 53.8714936 8.32393443 50.6637064 8.33377049 50.6604298 8.65508197 52.9671532 9.45508197 52.4232383 8.8452459 48.6584298 8.2747541 49.0450681 7.31409836 52.3806426 6.3042623 50.3851957 5.74360656 50.7652809 5.06163934 55.408217 5.86163934 54.8643021"></polygon>
                <path d="M133.380328,62.7572936 C130.334426,61.2435064 127.967213,58.6648255 127.055738,55.4603149 C126.681967,54.1103574 126.596721,52.7636766 126.760656,51.4759745 C126.354098,50.8829106 122.311475,45.4994638 108.737705,43.0715064 C108.737705,43.0715064 117.232787,42.6422723 125.777049,43.5662723 C112.868852,38.0615915 93.4491803,34.0248255 93.4491803,34.0248255 C107.540984,33.3006979 137.839344,36.3675915 154.498361,47.4228255 C156.557377,40.4797191 153.652459,33.6381872 153.652459,33.6381872 C153.652459,33.6381872 160.990164,37.3407404 163.557377,48.2157617 C164.937705,47.4654213 170.898361,39.9423574 161.527869,30.2043149 C109.816393,7.15346383 59.6,27.0686128 59.6,27.0686128 C67.0819672,30.771166 71.3114754,36.8459745 71.3114754,36.8459745 C54.747541,40.8794638 28.3442623,63.4617617 16.5081967,74.1008681 C18.7508197,81.987634 22.2229508,89.3042723 26.4262295,95.9786979 C47.9967213,62.7146979 85.9442623,49.0119745 96.3672131,50.5093787 C77.2032787,57.1215489 53.0360656,72.901634 34.2754098,106.82423 C38.5836066,112.073336 43.2229508,116.794911 47.8393443,120.959464 C52.2754098,108.48874 64.2590164,83.3375915 92.1409836,67.9375915 C92.1409836,67.9375915 67.1704918,89.4025702 59.242623,116.939081 C59.357377,116.893209 59.4622951,116.896485 59.547541,116.96857 C71.0360656,125.074868 81.1737705,128.449762 81.1737705,128.449762 C91.9934426,91.6208255 126.718033,82.9869957 126.718033,82.9869957 C113.377049,78.3440596 98.9344262,75.4475489 98.9344262,75.4475489 C101.767213,70.1755064 115.881967,61.7120596 133.380328,62.7572936" id="Fill-9" fill="#008265"></path>
                <g id="Group-13" transform="translate(0.000000, 0.453481)">
                    <mask id="mask-2" fill="white">
                        <use xlink:href="#path-1"></use>
                    </mask>
                    <g id="Clip-12"></g>
                    <path d="M196.86,67.823566 C194.204262,60.2710128 184.778033,52.2630128 176.499344,47.479183 C176.83377,46.7812681 177.155082,46.0079915 177.446885,45.1495234 C178.748525,41.2470979 179.158361,35.8145021 176.004262,29.7102043 C167.492787,13.2453106 138.738689,5.3454383 121.804262,3.6514383 C95.807541,1.04654468 70.9714754,5.01450213 52.6993443,9.58535319 C34.3157377,14.1889702 14.555082,22.9243745 14.555082,22.9243745 L22.4501639,26.3123745 C22.5583607,26.3582468 29.4829508,29.3399489 35.1714754,32.4002894 C26.3321311,37.7509702 17.8436066,43.7897362 10.8009836,48.7799915 L10.417377,45.0217362 L0.000983606557,51.2046723 L0.14852459,58.3181617 C2.08295082,94.5802468 25.3681967,121.563013 46.7485246,137.280843 C52.2632787,141.340545 56.4239344,143.680034 62.0272131,146.229226 L62.0272131,136.769694 C74.1845902,143.971651 93.3321311,150.724715 93.3321311,150.724715 C93.3321311,112.015013 130.122295,93.217183 136.591148,91.1070553 C146.437049,93.5743319 155.630492,97.4046723 162.466557,100.684545 C167.240328,102.978162 178.955082,109.921268 178.955082,109.921268 C178.955082,109.921268 185.846885,104.813055 187.000984,103.695736 C188.823934,101.932928 191.18459,99.3411404 193.305902,96.0219489 C197.571475,89.3508 200.978033,79.5406723 196.86,67.823566 L196.86,67.823566 Z M5.74852459,50.3101617 L6.30918033,49.9300766 L7.30918033,51.9255234 L8.26983607,48.5932255 L8.84360656,48.2065872 L9.45672131,51.9648426 L8.65672131,52.5087574 L8.33213115,50.2053106 L8.32229508,50.2118638 L7.39770492,53.4196511 L7.12557377,53.6031404 L6.2304918,51.6339064 L6.21737705,51.6404596 L5.86,54.409183 L5.06,54.9530979 L5.74852459,50.3101617 Z M2.59114754,53.2558213 L2.59114754,52.5677362 L5.02393443,50.9097787 L5.02393443,51.6011404 L4.20098361,52.1581617 L4.20098361,55.5363319 L3.41081967,56.0769702 L3.41081967,52.6988 L2.59114754,53.2558213 Z M181.532131,103.551566 C182.53541,96.313566 178.079672,87.5879915 173.220656,84.901183 C175.456721,87.8304596 175.61082,90.6417787 175.61082,90.6417787 C175.61082,90.6417787 173.200984,88.1482894 170.322295,87.1816936 C175.669836,94.3902043 175.840328,103.66297 175.840328,103.66297 C175.840328,103.66297 157.604262,92.3718213 136.473115,87.2996511 C136.473115,87.2996511 93.2436066,100.117694 89.502623,144.423821 C89.502623,144.423821 73.5157377,137.670757 59.5518033,129.800374 C56.8009836,128.224332 58.8468852,140.934247 55.9386885,139.023991 C33.0862295,124.030289 5.93540984,96.6772681 3.88295082,58.1870979 C3.88295082,58.1870979 25.7813115,41.9319064 42.4731148,32.5280766 C36.8698361,28.4978638 23.9190164,22.944034 23.9190164,22.944034 C23.9190164,22.944034 70.5813115,2.35062979 121.427213,7.43918298 C138.492787,9.14956596 165.181311,16.9937362 172.676393,31.4992255 C177.922295,41.6566723 171.171475,48.9536511 171.171475,48.9536511 C179.876393,53.1247574 190.778033,61.8830979 193.322295,69.1276511 C200.574754,89.7636511 181.532131,103.551566 181.532131,103.551566 L181.532131,103.551566 Z" id="Fill-11" fill="#B5B7B9" mask="url(#mask-2)"></path>
                </g>
                <path d="M161.501967,52.3259234 C161.977377,59.7408596 156.882295,64.9703064 154.931475,66.1990298 C154.931475,66.1990298 156.515082,67.5391574 158.682295,69.5903064 C158.682295,69.5903064 150.603607,68.1453277 144.082295,67.8635404 C132.249508,67.3589447 122.856066,68.3222638 117.898689,73.8793702 C117.898689,73.8793702 143.062623,78.1225617 168.987213,94.3253277 C168.987213,94.3253277 159.977377,80.2621787 141.987213,74.9082213 C141.987213,74.9082213 166.459344,76.0550298 173.84623,79.6986043 C181.118361,83.2864766 184.197049,90.9274979 184.06918,92.8017106 C184.06918,92.8017106 192.354426,85.5637106 187.403607,73.1224766 C183.839672,64.1642638 167.580656,56.3823489 161.501967,52.3259234 M162.111803,64.7311149 C163.056066,63.6531149 163.957705,62.2834979 164.587213,60.5960511 C167.616721,62.0934553 171.311803,64.0889021 174.813443,66.4185617 C170.79377,65.6714979 166.187213,65.1243064 162.111803,64.7311149" id="Fill-14" fill="#B5B7B9"></path>
                <path d="M136.835082,50.1437106 C135.694098,49.2852426 134.507213,48.4234979 133.26459,47.5519234 C131.569508,49.1902213 130.756393,51.5133277 131.310492,53.9314553 C132.254754,58.0075404 136.720328,60.7762638 141.284262,60.1111149 C143.212131,59.8326043 144.848197,58.9774128 146.028525,57.7814553 C145.120328,56.9524766 144.126885,56.0677957 143.044918,55.1372426 C142.471148,56.0383064 141.46459,56.7034553 140.205574,56.8869447 C137.936721,57.2146043 135.710492,55.838434 135.244918,53.8069447 C134.907213,52.3423064 135.576066,50.9366468 136.835082,50.1437106" id="Fill-16" fill="#FFFFFF"></path>
                <path d="M59.5970492,27.0732 C59.5970492,27.0732 109.813443,7.15477447 161.528197,30.2056255 C161.531475,30.2089021 161.534754,30.2089021 161.538033,30.2089021 C161.49541,30.169583 161.456066,30.1335404 161.423279,30.0942213 C161.233115,29.9009021 161.042951,29.7108596 160.84623,29.5142638 C160.810164,29.4847745 160.780656,29.4585617 160.754426,29.4257957 C160.275738,28.9670723 159.77082,28.5050723 159.223279,28.0397957 C159.157705,27.980817 159.098689,27.9316681 159.033115,27.875966 C158.760984,27.6498809 158.485574,27.4172426 158.197049,27.1878809 C150.711803,21.204817 132.82,14.169966 105.02,14.6221362 C72.272459,15.1529447 42.1937705,24.0357957 42.1937705,24.0357957 C42.1937705,24.0357957 50.0527869,27.2206468 57.2593443,33.8229872 C57.2593443,33.8229872 27.2822951,49.9831574 14.5085246,64.8261362 C14.977377,68.0011574 15.6560656,71.0942638 16.5085246,74.1021787 C28.3478689,63.4565191 54.7478689,40.8807745 71.315082,36.8407319 C71.315082,36.8407319 67.0822951,30.7724766 59.5970492,27.0732" id="Fill-18" fill="#FFFFFF"></path>
            </g>
        </g>
    </g>
</svg>