<?xml version="1.0" encoding="UTF-8"?>
<svg width="200px" height="200px" viewBox="0 0 200 200" version="1.1" xmlns="http://www.w3.org/2000/svg" xmlns:xlink="http://www.w3.org/1999/xlink">
    <!-- Generator: Sketch 54.1 (76490) - https://sketchapp.com -->
    <title>northwest-nazarene</title>
    <desc>Created with Sketch.</desc>
    <g id="northwest-nazarene" stroke="none" stroke-width="1" fill="none" fill-rule="evenodd">
        <g id="northwest-nazarene_BGL">
            <g id="northwest-nazarene" transform="translate(0.000000, 25.000000)">
                <g id="g10" transform="translate(100.000000, 75.717860) scale(-1, 1) rotate(-180.000000) translate(-100.000000, -75.717860) translate(0.000000, 0.852188)" fill-rule="nonzero">
                    <g id="g12" transform="translate(0.000000, 0.986372)">
                        <path d="M198.461784,1.82369132 C198.440923,1.89175102 196.299948,8.6944331 193.221336,16.0284411 L193.141186,16.2236333 C190.284357,23.1073075 181.545886,40.0785033 162.140968,48.9898305 C154.613519,52.445422 146.778649,54.4762533 139.866045,56.2670673 L139.460907,56.3722803 C134.454319,57.6688121 123.694548,62.2006456 118.806537,70.0718979 L116.229682,74.221238 C115.164684,87.2282029 118.473863,103.055097 124.701355,114.659221 C129.371974,123.36341 140.071359,131.719081 154.053572,137.582517 L157.391297,138.96563 C157.391297,138.96563 153.476058,140.720277 153.074213,140.879193 C150.928847,141.727473 145.904692,143.71337 140.849796,144.478356 C134.956076,145.370476 130.835523,145.57323 120.557745,144.526579 C111.978474,143.653091 102.117913,141.046876 92.7876536,137.187968 L88.4705699,135.388386 L87.5406182,133.369611 L86.4789142,132.82053 C78.9097445,128.906823 71.916991,124.268681 65.6905968,119.031043 L62.229903,116.120148 L61.9268727,114.141923 L60.9332407,113.116096 C55.247031,107.257044 50.2272682,101.885698 46.3691216,95.4775645 L43.9734256,91.5002916 L43.7933641,88.6420034 C39.4290691,82.2952446 35.8465044,75.6098312 33.1400926,68.7600225 L30.7905098,62.8187724 L32.5120732,60.3342097 C32.0816824,58.4239351 31.7479099,56.2944665 31.5283227,54.056497 C26.6205495,56.2835068 22.3462852,58.4173592 19.4312655,59.895822 L5.31071248,67.0535981 L3.4892369,58.4458544 C3.38054125,57.9285569 0.8157631,45.6734271 1.85111661,36.7148636 L2.07070378,34.8067808 L2.2244148,34.6120271 L3.28172703,28.9403854 L3.35968047,28.5927439 C3.48484516,28.1029552 3.59244287,27.6654442 3.69674678,27.2459071 C4.21387457,25.159291 4.58717276,23.6523331 5.77733522,20.6777625 L6.17917974,19.670457 L6.06828822,19.5004722 L7.82388765,16.0275644 C11.4953851,8.31303574 17.47145,2.77926705 20.6873041,0.176339718 L198.976716,0.176339718 L198.461784,1.82369132" id="path38" fill="#C21B32"></path>
                        <path d="M186.908205,13.6109518 C186.600783,14.4316137 179.169953,33.8238059 159.33135,42.8480179 C152.181592,46.1008551 144.521293,48.0856557 137.761302,49.8370148 C130.756471,51.6519401 118.829594,57.2205607 113.057745,66.5143812 C112.499994,64.8419319 111.669954,62.0976245 111.669954,62.0976245 C110.468813,65.8874867 109.835304,69.7551627 109.525686,73.2337696 C108.104957,89.1998518 112.512071,106.459178 118.758228,117.882467 C121.386687,122.691581 128.775795,132.310904 139.793581,137.809383 C135.202014,138.543682 130.244833,138.725613 121.245053,137.809383 C113.288312,136.999461 103.983306,134.509419 95.3930554,130.956286 L93.5122913,130.172668 L92.7140919,128.441036 L89.5893665,126.824481 C82.4659587,123.142024 75.8915188,118.782258 70.0494021,113.867931 L68.5419362,112.599894 L68.2498853,110.653453 C68.2015761,110.334526 68.1137412,109.724071 68.0061435,108.862639 L65.4721076,106.249848 C60.0812425,100.694379 55.3370617,95.6244244 51.8467236,89.8289382 L50.8025866,88.0951146 L50.9958233,87.1383334 L50.042815,85.7870031 C45.660953,79.5728566 42.0904656,73.0101918 39.431265,66.2809397 L38.4079888,63.6933559 L39.8287178,61.6417012 L39.3928372,60.001035 C38.0808039,55.0735566 37.7975364,48.9503756 38.0819018,43.91878 C30.3216912,47.0050299 23.068727,50.4770609 16.3691224,53.875662 L10.1075942,57.0495894 C10.1075942,57.0495894 7.65151172,45.4399856 8.56938609,37.4871932 L10.9310461,34.5033069 L9.33794119,33.3568133 L9.91435751,30.259823 C10.6346034,27.4419761 10.8168608,26.2890163 12.0597242,23.1775591 C12.9655213,22.2570544 14.0799261,21.6670941 15.1306508,20.9474806 C14.6717136,20.4234976 14.2775546,19.7033361 13.8636328,19.0697562 C17.5362282,11.8026023 23.4804529,6.68957627 23.4804529,6.68957627 L25.3524335,6.584692 C28.0709227,6.43235225 46.7852393,6.38182806 70.4051333,6.38182806 C115.351333,6.38182806 178.050058,6.56507415 182.028978,6.57570505 L189.526782,6.59883 L186.908205,13.6109518" id="path40" fill="#FFFFFF"></path>
                        <path d="M14.0030706,49.2265598 C30.0131712,41.1087145 51.6128633,31.1802181 76.6227441,28.9094791 C63.2103597,32.027512 51.8774658,35.0469077 43.7285859,39.9535627 C43.0182214,44.493068 42.8216909,52.5802262 44.4400484,58.6628564 C50.3601185,51.7429056 61.2582297,43.1340659 72.6438245,38.1301985 C60.7597669,44.745141 49.6739086,56.5947621 44.2896311,64.3684731 C46.70509,70.4806944 49.9967017,76.6641538 54.3137855,82.7862389 C57.0169035,73.2863761 62.794242,59.7007394 71.8697798,49.0172297 C63.44422,60.8734267 58.3465039,77.1299408 56.324106,87.1438132 C59.5904652,92.5688617 64.2226566,97.467845 69.2237544,102.622189 C68.9349972,92.7661362 70.4677157,77.409413 76.3317911,64.0473541 C70.6862049,80.6863615 72.1157174,101.218252 73.4145755,109.88189 C78.8065385,114.415916 84.9879173,118.574024 91.9916501,122.196203 C88.7329765,112.985676 85.9057917,94.5054397 87.78436,79.3185917 C87.1541448,96.5242153 93.620987,117.933978 97.4066698,126.146076 C102.490113,128.266777 113.28941,132.224323 124.211676,132.862177 C104.28414,118.099469 91.7665733,55.8407352 122.743735,40.4697643 C119.833108,42.127966 117.653705,45.530951 117.338597,52.4366542 C123.4541,46.034001 141.880757,45.0553003 157.164024,38.1041144 C175.261301,29.8728362 182.013607,11.7893411 182.013607,11.7893411 C182.013607,11.7893411 33.474963,11.3509533 25.6455824,11.7893411 C23.8460656,13.4473236 21.5217354,16.3452859 20.1866454,19.1434054 C32.8601189,19.1434054 46.2198024,19.1434054 46.2198024,19.1434054 C46.2198024,19.1434054 30.4666187,21.1422344 17.7843617,23.0088894 C16.4833077,25.7915557 15.776237,28.4171696 14.9747439,31.5496694 C21.2307824,30.8724699 32.3693416,29.314111 41.5469874,28.8723257 C30.4666187,31.6704452 20.9870406,33.8028729 13.9547615,36.6009924 C13.3212525,40.877465 13.2762371,45.2010642 14.0030706,49.2265598" id="path42" fill="#000000"></path>
                        <path d="M91.9916501,122.196203 C84.9879173,118.574024 78.8065385,114.415916 73.4145755,109.88189 C72.9929681,107.066345 72.5581855,102.997011 72.3561654,98.2163921 C77.4988969,107.61433 87.5142677,117.848492 91.9916501,122.196203" id="path44" fill="#C21B32"></path>
                        <path d="M124.211676,132.862177 C113.28941,132.224323 102.490113,128.266777 97.4066698,126.146076 C96.2176052,123.566164 94.7639382,119.683145 93.3486989,115.038426 C100.815761,122.196203 113.660512,130.068551 124.211676,132.862177" id="path46" fill="#C21B32"></path>
                        <path d="M69.2237544,102.622189 C64.2226566,97.467845 59.5904652,92.5688617 56.324106,87.1438132 C56.8126875,84.7217208 57.4835263,81.9335747 58.3366224,78.9317145 C60.946416,86.3174523 62.7733812,91.8992244 69.2237544,102.622189" id="path48" fill="#C21B32"></path>
                        <path d="M44.4400484,58.6628564 C42.8216909,52.5802262 43.0182214,44.493068 43.7285859,39.9535627 C46.310931,38.3990398 49.2171672,37.0355442 52.405573,35.7969892 C47.8030259,42.0863192 46.208823,48.5624024 44.4400484,58.6628564" id="path50" fill="#83888A"></path>
                        <path d="M114.267671,37.6974001 C100.629112,47.4006748 97.4846232,62.8023328 98.2103588,79.8917837 C93.7121156,73.8091535 89.7946805,55.2708311 98.5002139,40.7886914 C92.987478,42.381135 87.9095246,50.7817404 85.8783433,63.0916687 C83.3399156,51.5269996 85.6730293,41.7476647 91.1154973,36.1600839 C89.1095685,35.395426 82.562577,37.5570065 78.9866,41.2829736 C85.28436,24.7953196 109.444438,28.4822702 114.267671,37.6974001" id="path52" fill="#C21B32"></path>
                        <path d="M54.3137855,82.7862389 C49.9967017,76.6641538 46.70509,70.4806944 44.2896311,64.3684731 C45.9650813,61.9485727 48.2015766,59.1330273 50.8355247,56.204597 C50.0032893,64.7378148 51.4723275,72.4052167 54.3137855,82.7862389" id="path54" fill="#83888A"></path>
                        <path d="M150.323884,24.5299854 C152.413256,23.6258106 155.631306,23.7122826 157.711894,25.1481121 C154.009655,24.5847838 151.451464,26.5159915 151.795118,29.8967283 C150.439167,30.5042242 149.568504,30.8732371 148.286115,31.327078 C146.860994,28.7746749 147.427529,25.7859663 150.323884,24.5299854" id="path56" fill="#FFFFFF"></path>
                        <path d="M145.907986,24.3907973 C142.909523,26.706471 143.000652,30.6061493 144.614618,32.4692973 C141.440485,33.7429233 139.038201,34.7314877 137.325422,36.1668789 C147.440705,34.5460497 154.50153,32.0493218 163.034687,28.0841045 C153.767011,38.5108286 138.614398,38.8045484 127.875488,43.0639239 C128.681373,40.9497989 131.112203,38.0908532 132.92709,37.0838765 C130.660951,37.0813557 126.272501,36.8826565 122.138773,33.4612592 C128.792264,33.9643092 134.02283,31.561725 137.047644,28.9455365 C129.155681,29.5418534 117.880978,28.8260758 110.315102,24.5059836 C118.960249,24.5059836 133.720898,24.3907973 145.907986,24.3907973" id="path58" fill="#83888A"></path>
                        <path d="M165.21958,26.3065518 C168.599026,23.8188108 172.250761,19.4349332 174.166659,15.8105624 C171.645798,15.8105624 159.041495,15.8105624 157.630647,15.8105624 C161.764376,19.1323361 163.706624,22.4818378 165.21958,26.3065518" id="path60" fill="#FFFFFF"></path>
                        <path d="M83.6176934,77.2165224 C82.8348651,85.3913581 82.6910355,95.424958 83.7154097,104.52808 C81.2351726,102.509304 78.9053527,100.392987 76.7204604,98.2098162 C76.3811982,90.6717387 77.325423,76.335363 79.9209434,65.7767938 C81.3175178,71.5547445 83.2257303,76.7090885 83.6176934,77.2165224" id="path62" fill="#FFFFFF"></path>
                        <path d="M97.4956026,113.712303 C95.1899373,106.169842 92.0948561,93.4675567 91.8950318,81.1170775 C94.8891029,86.0960665 97.882076,90.2804776 100.815761,93.4850922 C102.209041,102.478617 104.836402,111.152119 108.32125,118.538953 C104.501531,117.151455 100.894812,115.528325 97.4956026,113.712303" id="path64" fill="#FFFFFF"></path>
                        <path d="M66.046328,85.610552 C64.7760162,83.8416574 63.581462,82.0672829 62.4626654,80.3005803 C64.5498414,72.8753876 69.5750938,60.9512405 73.7340748,53.6246851 C73.7340748,56.2144607 73.5342505,58.0074667 73.4683744,60.7210869 C70.9639827,67.381293 67.6262577,77.1441884 66.046328,85.610552" id="path66" fill="#FFFFFF"></path>
                        <path d="M94.6837889,18.2084339 C94.6837889,18.2084339 130.121864,18.2084339 135.16688,18.2084339 C140.212993,18.2084339 145.643384,21.9094129 145.643384,21.9094129 C145.643384,21.9094129 114.679397,21.9094129 109.096393,21.9094129 C102.263938,21.9094129 94.6837889,18.2084339 94.6837889,18.2084339" id="path68" fill="#C21B32"></path>
                        <path d="M14.0030706,49.2265598 C13.6736899,45.996738 12.934779,41.6523153 13.9547615,36.6009924 C24.6299918,31.5783838 41.5469874,28.8723257 41.5469874,28.8723257 C41.5469874,28.8723257 19.5685075,34.3367196 14.0030706,49.2265598" id="path70" fill="#C21B32"></path>
                        <path d="M14.9747439,31.5496694 C14.9747439,31.5496694 16.5349107,25.0701887 17.7843617,23.0088894 C25.6422886,21.0592695 38.0116339,19.7715054 44.9912121,19.3010058 C31.1517307,22.4124629 20.0109756,24.0586089 14.9747439,31.5496694" id="path72" fill="#83888A"></path>
                        <path d="M20.1866454,19.1434054 C20.1866454,19.1434054 22.6317485,13.8335432 25.6455824,11.7893411 C34.5794865,11.7893411 53.7988536,11.5940393 53.7988536,11.5940393 C53.7988536,11.5940393 33.7198027,11.7597499 20.1866454,19.1434054" id="path74" fill="#83888A"></path>
                    </g>
                </g>
            </g>
        </g>
    </g>
</svg>