<?xml version="1.0" encoding="UTF-8"?>
<svg width="200px" height="200px" viewBox="0 0 200 200" version="1.1" xmlns="http://www.w3.org/2000/svg" xmlns:xlink="http://www.w3.org/1999/xlink">
    <!-- Generator: Sketch 54.1 (76490) - https://sketchapp.com -->
    <title>nova-southeastern</title>
    <desc>Created with Sketch.</desc>
    <g id="nova-southeastern" stroke="none" stroke-width="1" fill="none" fill-rule="evenodd">
        <g id="nova-southeastern_BGL" transform="translate(0.000000, 0.000000)">
            <g id="nova-southeastern" transform="translate(0.000000, 32.000000)">
                <g id="g10" transform="translate(99.999998, 68.209402) scale(-1, 1) rotate(-180.000000) translate(-99.999998, -68.209402) translate(0.000000, 0.260686)" fill-rule="nonzero">
                    <g id="g12">
                        <path d="M121.252561,70.8452974 C122.38504,70.9854683 138.979911,75.0982887 148.482048,78.9282032 C157.984611,82.7581176 161.244868,83.1846133 162.664526,86.0200833 C164.083757,88.8568354 164.792304,91.1239293 165.358116,91.9764934 C165.927346,92.8273481 169.898714,95.0987156 169.898714,95.0987156 C169.898714,95.0987156 176.137175,98.6435873 177.415808,100.202562 C178.691876,101.762818 179.543158,103.323502 179.543158,103.747861 C179.543158,104.173074 182.308542,106.878202 169.472218,108.996578 C154.540594,111.45769 136.993586,112.825211 132.456407,112.683331 C127.917518,112.54145 125.930766,112.967946 124.513672,112.54145 C123.096151,112.115809 117.138459,111.976066 116.570937,111.832903 C116.005125,111.689313 86.646579,102.755126 85.085468,101.195724 C83.5252116,99.6358949 67.3568359,87.0111089 67.3568359,86.5876047 C67.3568359,86.161109 65.3717932,81.7658099 65.3717932,81.7658099 C65.3717932,81.7658099 59.9807677,81.0564082 62.2512805,78.9282032 C64.5209386,76.8004254 66.2230753,75.2401691 75.8662374,71.4115367 C85.5128184,67.5816222 82.1076903,67.4397419 86.5029893,67.4397419 C90.9012798,67.4397419 99.9764932,68.1495709 102.104698,68.1495709 C104.232903,68.1495709 121.252561,70.8452974 121.252561,70.8452974" id="path14" fill="#FFFFFF"></path>
                        <path d="M57.2504259,81.7021347 C57.2504259,81.7021347 62.1764942,85.1786303 71.0132461,90.2487157 C79.8478613,95.3183737 85.0619637,97.9247839 89.6974337,97.635895 C94.334613,97.3452967 94.768801,97.1995702 94.768801,97.1995702 C94.768801,97.1995702 95.6367497,98.6499975 95.9256386,99.0841856 C96.2162369,99.5188009 98.0991428,101.692305 98.244442,101.25598 C98.3888864,100.820938 99.1132454,99.8068351 99.4021343,99.0841856 C99.6931599,98.3593993 99.7085445,96.3410232 100.126493,96.1880318 C100.545724,96.0333309 101.140596,95.7529891 101.429485,95.0294848 C101.720083,94.3038438 101.720083,93.5794848 102.299997,93.000425 C102.879912,92.4200832 102.444442,92.7102541 103.024356,91.9863225 C103.604271,91.2615362 105.039314,90.7683738 104.031621,90.9423054 C103.024356,91.1175191 99.9816214,91.8414507 98.3888864,92.7102541 C96.7948694,93.5794848 93.0290575,94.7384592 93.0290575,94.7384592 C93.0290575,94.7384592 90.5662371,95.0294848 91.7256387,94.1598267 C92.8850404,93.2897413 97.8089719,93.000425 93.7546985,92.8542712 C89.6974337,92.7102541 90.8559806,92.5653823 88.103844,92.2743567 C85.3529893,91.9863225 83.7593996,91.6961516 82.7457244,91.2615362 C81.7316219,90.8269208 81.5858954,90.3918781 83.1799125,90.3918781 C84.7726475,90.3918781 89.6974337,90.2487157 90.4213653,90.2487157 C91.1452969,90.2487157 97.0850403,89.6692285 97.0850403,89.6692285 C97.0850403,89.6692285 89.6974337,88.7987157 87.5243568,88.7987157 C85.3529893,88.7987157 84.6273483,88.9440149 82.3111091,88.7987157 C79.9910236,88.655126 83.1799125,87.929485 79.9910236,87.3495705 C76.8064083,86.7705107 77.5303399,87.7846132 75.6465793,86.6269209 L78.2542715,85.4675192 L77.2405964,84.8888868 L74.9235024,79.2397416 C74.9235024,79.2397416 85.78675,78.2256391 86.3658098,77.5004254 C86.945297,76.7752118 83.9055535,76.3410237 83.9055535,76.3410237 L62.3209386,76.3410237 C62.3209386,76.3410237 59.1333319,69.6786307 59.1333319,70.1136735 C59.1333319,70.5474341 57.20299,68.7982889 57.20299,68.7982889 L53.4841867,76.3410237 L57.2504259,81.267092" id="path16" fill="#D3D5D7"></path>
                        <polyline id="path18" fill="#B3B5B7" points="91.2897413 76.3188015 59.8576908 76.3188015 57.20299 68.7982889 55.3200841 76.3076904 25.8650421 76.3076904 18.0476919 55.2777764 23.7316233 55.2777764 15.2035039 32.338418 8.74867499 32.338418 1.08556835 11.725598 39.3112383 11.725598 42.7606827 21.0051277 45.0841869 11.725598 62.7089728 11.725598 74.6329041 0.874735021 97.7534164 0.75804699 117.964954 9.57213651 121.004698 17.7482474 125.976065 11.7439741 158.792731 11.7439741 175.739739 23.3264951 187.066235 55.2777764 190.935038 55.2777764 198.753414 76.3076904 166.202987 76.3170921 163.363244 76.3188015 148.169654 76.3188015"></polyline>
                        <path d="M91.2897413,75.563246 L163.363244,75.563246 C163.363244,75.563246 192.05085,75.5538443 197.665807,75.5525622 C196.997858,73.7555537 190.741021,56.9235029 190.410679,56.0329046 C189.625209,56.0329046 186.530337,56.0329046 186.530337,56.0329046 C186.530337,56.0329046 175.271363,24.2679908 175.109397,23.809743 C174.71709,23.541837 158.931193,12.7538886 158.559825,12.499145 C158.103842,12.499145 127.020082,12.499145 126.331621,12.499145 C125.918373,12.9966236 120.75427,19.2376064 120.75427,19.2376064 C120.75427,19.2376064 117.576493,10.6922647 117.3688,10.1337177 C116.802989,9.88850403 97.8811941,1.63678628 97.5982882,1.51241877 C97.2871771,1.51408971 75.4871776,1.62443158 74.9260665,1.6286068 C74.5136734,2.00337174 63.0008531,12.4781193 63.0008531,12.4781193 C63.0008531,12.4781193 46.7735031,12.4781193 45.6717937,12.4781193 C45.4205117,13.4867518 42.902563,23.5513669 42.902563,23.5513669 C42.902563,23.5513669 39.1145717,13.3615381 38.7858965,12.4781193 C37.7943153,12.4781193 4.19337596,12.4781193 2.17064097,12.4781193 C2.838376,14.2721791 8.94316217,30.6922642 9.27316216,31.5837172 C10.1595724,31.5837172 15.7279911,31.5837172 15.7279911,31.5837172 L24.8176917,56.0329046 C24.8176917,56.0329046 20.5532046,56.0329046 19.133632,56.0329046 C19.801367,57.8299131 26.0575207,74.6611092 26.389401,75.5525622 C27.3809822,75.5525622 53.6217935,75.5525622 54.7320499,75.5525622 C54.9769217,74.5773486 57.0803405,66.182477 57.0803405,66.182477 C57.0803405,66.182477 60.0833318,74.6858956 60.3918788,75.563246 C61.4247848,75.563246 91.2897413,75.563246 91.2897413,75.563246 Z M91.2897413,77.0726476 L59.3235028,77.0726476 C59.3235028,77.0726476 58.110255,73.6367503 57.3260669,71.4123914 C56.7683746,73.6371776 55.910255,77.0615365 55.910255,77.0615365 L25.3405549,77.0615365 L16.959615,54.5230756 C16.959615,54.5230756 21.2239738,54.5230756 22.6457259,54.5230756 C21.9693157,52.7059816 15.0135039,33.9910675 14.6798287,33.0922641 C13.7937176,33.0922641 8.22316219,33.0922641 8.22316219,33.0922641 L0,10.9692305 L39.8362383,10.9692305 C39.8362383,10.9692305 41.654999,15.8637176 42.6195288,18.4580337 C43.276922,15.8328201 44.494016,10.9692305 44.494016,10.9692305 C44.494016,10.9692305 61.8504258,10.9692305 62.4170925,10.9692305 C62.8320497,10.5901279 74.3393144,0.119190595 74.3393144,0.119190595 L97.9081172,0 L118.558971,9.00858952 C118.558971,9.00858952 120.598288,14.4897005 121.256835,16.2620081 C122.412817,14.8654697 125.621364,10.9892305 125.621364,10.9892305 L159.026492,10.9892305 L176.368372,22.841367 C176.368372,22.841367 187.251277,53.5499987 187.597859,54.5230756 C188.390166,54.5230756 191.458115,54.5230756 191.458115,54.5230756 L199.839311,77.0615365 L163.363244,77.0726476 L91.2897413,77.0726476 L91.2897413,77.0726476 Z" id="path20" fill="#231F20"></path>
                        <polyline id="path22" fill="#1C4E9D" points="87.7034166 71.543588 83.4952971 60.1038447 79.6474339 60.1038447 63.6123916 16.5491449 49.0183748 16.5491449 42.6732895 47.9132467 42.2108536 47.9132467 34.6267513 27.5140164 39.3521358 27.5140164 35.2761102 16.5491449 8.69773483 16.5491449 12.7741022 27.5140164 17.9340166 27.5140164 30.0502557 60.1038447 24.801025 60.1038447 29.0319651 71.4841862 50.7717936 71.4841862 58.0393148 42.4923066 64.6538445 60.1038447 59.5132464 60.1038447 63.7457249 71.5025623 87.7034166 71.543588"></polyline>
                        <polyline id="path24" fill="#1C4E9D" points="191.99914 71.4841862 187.767944 60.1038447 183.897859 60.1038447 171.030338 25.4892729 157.548287 16.5683329 131.10427 16.5683329 123.744869 25.4892729 136.612817 60.1038447 132.611535 60.1038447 136.818373 71.4217931 160.178201 71.4217931 155.971364 60.1038447 152.153842 60.1038447 141.552561 31.6782043 143.485466 27.4298711 155.459825 27.601666 159.322646 31.0999138 169.871363 60.1038447 164.884184 60.1038447 169.114953 71.4841862 191.99914 71.4841862"></polyline>
                        <polyline id="path26" fill="#1C4E9D" points="128.382475 54.5482892 124.958544 45.3444433 109.223929 45.3444433 111.54786 51.5944432 110.28504 53.3153833 101.447861 53.3153833 98.6487155 51.5944432 94.6709378 41.4127767 113.598715 41.4127767 121.225638 33.5144436 114.258972 14.7704697 98.4619634 6.45132463 77.5529895 6.45132463 68.5978615 14.4948714 72.2850409 24.4132473 88.4226474 24.4132473 86.0470064 18.0213243 87.5598269 15.9571791 96.3957241 15.9571791 99.4363223 18.0213243 103.74957 29.8936745 85.2076902 30.0372215 77.5628186 38.4683751 83.5397415 54.5482892 99.8760659 62.9038446 118.168373 62.9038446 128.382475 54.5482892"></polyline>
                        <path d="M85.211109,69.800853 C84.2564082,67.2076906 82.8059808,63.2679471 82.2824766,61.8414514 C81.1448698,61.8414514 78.4333314,61.8414514 78.4333314,61.8414514 C78.4333314,61.8414514 63.1944429,20.4452132 62.4004258,18.2876064 C60.5794857,18.2876064 52.5431611,18.2876064 50.4401697,18.2876064 C49.9256398,20.8316661 44.0944433,49.6529902 44.0944433,49.6529902 L41.0039306,49.6529902 L32.1275633,25.7747429 C32.1275633,25.7747429 35.7443581,25.7747429 36.8511102,25.7747429 C35.9154692,23.2580336 34.5836743,19.6748286 34.0681615,18.2876064 C32.0835035,18.2876064 15.0971364,18.2876064 11.1992732,18.2876064 C12.1335894,20.8051277 13.4653843,24.3880336 13.9810253,25.7747429 C15.3999569,25.7747429 19.1427773,25.7747429 19.1427773,25.7747429 L32.5508966,61.8414514 C32.5508966,61.8414514 28.6722215,61.8414514 27.300854,61.8414514 C28.2623925,64.4273488 29.7128625,68.3286308 30.23923,69.7448701 C32.2519223,69.7448701 47.1726484,69.7448701 49.4158107,69.7448701 C50.0170928,67.3470069 57.710255,36.665341 57.710255,36.665341 L67.1611094,61.8414514 C67.1611094,61.8414514 63.332477,61.8414514 62.0123916,61.8414514 C62.972648,64.4299129 64.4307676,68.3499983 64.9551266,69.7658102 C66.892306,69.7696564 81.4299125,69.7931606 85.211109,69.800853 L85.211109,69.800853 Z M87.7012799,73.28034 L62.5363232,73.2371777 L57.0128191,58.3641011 C57.0128191,58.3641011 60.828631,58.3641011 62.1427335,58.3641011 C61.2705113,56.0414516 59.9444429,52.5055542 58.3713661,48.3192296 C56.5777764,55.4730755 52.1282038,73.2213657 52.1282038,73.2213657 L27.8225207,73.2213657 L22.2995294,58.3641011 C22.2995294,58.3641011 26.1785464,58.3641011 27.5504267,58.3641011 C26.10376,54.4790585 17.4526064,31.2042727 16.7264098,29.2508112 C15.3091449,29.2508112 11.5656835,29.2508112 11.5656835,29.2508112 L6.19606822,14.8110253 L36.4828623,14.8110253 L41.8527767,29.2508112 C41.8527767,29.2508112 38.2358537,29.2508112 37.1285888,29.2508112 C38.1214948,31.9260676 40.2298708,37.5936315 42.0150417,42.3994861 C43.4752126,35.1862812 47.5957253,14.8110253 47.5957253,14.8110253 L64.82393,14.8110253 C64.82393,14.8110253 80.0645279,56.2059815 80.8593997,58.3641011 C81.9970065,58.3641011 84.7072628,58.3641011 84.7072628,58.3641011 L90.197861,73.2846136 L87.7012799,73.28034 L87.7012799,73.28034 Z" id="path28" fill="#FFFFFF"></path>
                        <path d="M189.499995,69.7448701 C188.538457,67.1598274 187.087175,63.2581181 186.560252,61.8414514 C185.417517,61.8414514 182.687602,61.8414514 182.687602,61.8414514 C182.687602,61.8414514 169.980338,27.6577344 169.599141,26.6269224 C168.749568,26.0632045 157.812817,18.828632 157.024782,18.3067944 C156.051706,18.3067944 133.430339,18.3067944 131.923074,18.3067944 C131.106834,19.2973927 126.705552,24.6337601 125.724783,25.8231617 C126.386749,27.6008113 139.114526,61.8414514 139.114526,61.8414514 C139.114526,61.8414514 135.814954,61.8414514 135.113244,61.8414514 C136.0688,64.4170924 137.501706,68.2713658 138.026065,69.6833316 C139.95427,69.6833316 153.921364,69.6833316 157.679056,69.6833316 C156.720082,67.1098274 155.288458,63.2538446 154.763671,61.8414514 C153.632475,61.8414514 150.945723,61.8414514 150.945723,61.8414514 L139.67521,31.6132471 L142.373928,25.6744011 L156.141022,25.8722216 L160.808543,30.1016659 L172.354269,61.8414514 C172.354269,61.8414514 168.629056,61.8414514 167.387175,61.8414514 C168.34615,64.4273488 169.797004,68.3286308 170.3235,69.7448701 C172.241449,69.7448701 185.767517,69.7448701 189.499995,69.7448701 Z M191.99914,73.2213657 L167.906406,73.2213657 L162.386748,58.3641011 C162.386748,58.3641011 166.137603,58.3641011 167.390594,58.3641011 C165.978201,54.4811952 158.099996,32.8235035 157.837603,32.0978624 C157.372646,31.6782043 155.452988,29.9388881 154.779483,29.3312813 C153.724355,29.3137172 146.34786,29.2085463 144.597432,29.1833753 C144.168372,30.1273497 143.735039,31.0765377 143.432902,31.7439736 C143.893586,32.9752556 152.599996,56.3303405 153.36068,58.3641011 C154.488885,58.3641011 157.177346,58.3641011 157.177346,58.3641011 L162.679483,73.1602546 L135.61068,73.1602546 L130.109398,58.3641011 C130.109398,58.3641011 133.407689,58.3641011 134.113245,58.3641011 C132.599142,54.2901696 121.766664,25.1558968 121.766664,25.1558968 L130.282903,14.8312389 L158.072218,14.8312389 L172.461962,24.3529481 C172.461962,24.3529481 184.318371,56.2465798 185.104696,58.3641011 C186.25085,58.3641011 188.976064,58.3641011 188.976064,58.3641011 L194.500422,73.2213657 L191.99914,73.2213657 L191.99914,73.2213657 Z" id="path30" fill="#FFFFFF"></path>
                        <path d="M117.547433,61.1653831 C118.333758,60.5235028 124.821792,55.2123918 126.316664,53.9897422 C125.752134,52.4632466 124.305552,48.5726484 123.749997,47.0811954 C122.044441,47.0811954 114.940595,47.0811954 111.724784,47.0811954 C112.404271,48.9123919 113.503416,51.866238 113.503416,51.866238 L111.164527,55.0538448 L100.954698,55.0538448 L97.2427326,52.7679474 L92.1260661,39.6761529 C92.1260661,39.6761529 111.49786,39.6761529 112.859826,39.6761529 C113.657262,38.8505118 118.074783,34.2756829 119.217518,33.0939308 C118.558971,31.3242727 113.267946,17.096538 112.859826,15.9974355 C111.798288,15.4388885 98.7290574,8.55636731 98.0324762,8.18978612 C97.2350403,8.18978612 79.4410237,8.18978612 78.2179468,8.18978612 C77.4260664,8.90089721 71.9820495,13.7905552 70.6388871,14.9974783 C71.2068358,16.5204269 72.9170922,21.1239738 73.4940153,22.6755977 C75.2158101,22.6755977 82.6675193,22.6755977 85.9213654,22.6755977 C85.2239295,20.7949567 84.0901688,17.7482474 84.0901688,17.7482474 L86.6790577,14.2187603 L96.9303395,14.2187603 L100.877775,16.8995295 L106.223502,31.6132471 C106.223502,31.6132471 87.3846132,31.7594864 85.9824765,31.7701701 C85.1794851,32.6547428 80.6418783,37.6594008 79.5589724,38.8529905 C80.1820493,40.5240161 84.5264936,52.2145286 84.9337586,53.3085457 C86.0239295,53.8653833 99.6111086,60.814101 100.295297,61.1653831 C101.068374,61.1653831 116.415809,61.1653831 117.547433,61.1653831 Z M118.168373,64.6401693 L99.4585445,64.6401693 L82.1470065,55.7884601 L75.5653827,38.0824349 L84.4320492,28.3051275 C84.4320492,28.3051275 97.5735018,28.2026061 101.276066,28.173589 C100.245297,25.3413669 98.2722198,19.9110251 97.994442,19.1423072 C97.4427326,18.7667089 96.3910232,18.0547004 95.8619634,17.6939739 C95.018801,17.6939739 89.7730747,17.6939739 88.4405961,17.6939739 C88.2423055,17.9654269 88.2059807,18.0153414 88.0012799,18.294444 C88.4884593,19.6003414 90.923502,26.1533327 90.923502,26.1533327 L71.0773487,26.1533327 L66.5559812,13.9913672 L76.8850408,4.71405971 L98.8918779,4.71405971 L115.655125,13.5426492 L123.238031,33.9349564 L114.335467,43.152563 C114.335467,43.152563 101.030767,43.152563 97.2162369,43.152563 C98.2303394,45.7491442 99.7696556,49.6846141 100.057262,50.4175201 C100.604271,50.7555543 101.461109,51.2811953 101.941878,51.5777765 C102.725211,51.5777765 108.064955,51.5777765 109.404271,51.5777765 C109.494442,51.4538449 109.498715,51.4465799 109.590596,51.3205115 C109.108972,50.0217936 106.722647,43.6064092 106.722647,43.6064092 L126.166236,43.6064092 L130.442304,55.1072636 L118.787604,64.6401693 L118.168373,64.6401693 L118.168373,64.6401693 Z" id="path32" fill="#FFFFFF"></path>
                        <polyline id="path34" fill="#1B4A96" points="87.7034166 71.543588 83.4952971 60.1038447 79.6474339 60.1038447 63.6123916 16.5491449 49.0183748 16.5491449 42.6732895 47.9132467 42.2108536 47.9132467 34.6267513 27.5140164 39.3521358 27.5140164 35.2761102 16.5491449 8.69773483 16.5491449 12.7741022 27.5140164 17.9340166 27.5140164 30.0502557 60.1038447 24.801025 60.1038447 29.0319651 71.4841862 50.7717936 71.4841862 58.0393148 42.4923066 64.6538445 60.1038447 59.5132464 60.1038447 63.7457249 71.5025623 87.7034166 71.543588"></polyline>
                        <polyline id="path36" fill="#1B4A96" points="191.99914 71.4841862 187.767944 60.1038447 183.897859 60.1038447 171.030338 25.4892729 157.548287 16.5683329 131.10427 16.5683329 123.744869 25.4892729 136.612817 60.1038447 132.611535 60.1038447 136.818373 71.4217931 160.178201 71.4217931 155.971364 60.1038447 152.153842 60.1038447 141.552561 31.6782043 143.485466 27.4298711 155.459825 27.601666 159.322646 31.0999138 169.871363 60.1038447 164.884184 60.1038447 169.114953 71.4841862 191.99914 71.4841862"></polyline>
                        <polyline id="path38" fill="#1B4A96" points="128.382475 54.5482892 124.958544 45.3444433 109.223929 45.3444433 111.54786 51.5944432 110.28504 53.3153833 101.447861 53.3153833 98.6487155 51.5944432 94.6709378 41.4127767 113.598715 41.4127767 121.225638 33.5144436 114.258972 14.7704697 98.4619634 6.45132463 77.5529895 6.45132463 68.5978615 14.4948714 72.2850409 24.4132473 88.4226474 24.4132473 86.0470064 18.0213243 87.5598269 15.9571791 96.3957241 15.9571791 99.4363223 18.0213243 103.74957 29.8936745 85.2076902 30.0372215 77.5628186 38.4683751 83.5397415 54.5482892 99.8760659 62.9038446 118.168373 62.9038446 128.382475 54.5482892"></polyline>
                        <path d="M121.946151,101.394869 C121.946151,101.394869 122.813245,98.9324762 123.104698,98.3525616 C123.393587,97.7730745 123.538886,94.2974335 123.538886,94.2974335 C123.538886,94.2974335 125.652988,95.9645275 126.000852,96.4705104 C126.522219,97.2282027 125.981621,97.24316 128.753843,99.8012796 C128.753843,99.8012796 128.464099,99.2209377 130.057262,99.0782027 C131.649997,98.9324762 134.11068,100.089741 134.982048,100.380767 C135.850851,100.67222 137.642732,101.25598 137.642732,101.25598 L140.684612,103.429485 L142.13333,103.429485 C142.13333,103.429485 141.118373,101.692305 141.118373,101.112391 C141.118373,100.532903 139.671364,98.5046984 140.395723,98.5046984 C141.118373,98.5046984 152.998287,100.820938 155.026492,100.967091 C157.054697,101.112391 162.556834,102.415382 162.993586,102.561109 C163.426064,102.705126 164.439312,102.994442 164.874782,102.994442 C165.30897,102.994442 166.324782,102.561109 166.902987,102.561109 C167.482474,102.561109 167.048286,102.84957 168.931192,102.561109 C170.81538,102.270083 171.20256,102.318374 172.98632,102.125211 C174.771363,101.932049 173.903414,99.2277753 173.903414,99.2277753 C173.903414,99.2277753 177.913243,102.415382 177.043585,103.139314 C176.173927,103.863673 166.902987,107.775638 163.136321,108.208972 C159.371791,108.645296 140.684612,107.919655 140.249569,107.775638 C139.816236,107.629484 133.87692,106.037177 133.442732,105.892732 C133.008116,105.747433 130.201706,106.609399 130.201706,106.609399 C130.201706,106.609399 128.030766,106.89957 127.595296,106.89957 C127.160253,106.89957 126.435894,107.333331 125.709826,106.89957 C124.797005,106.350852 125.84957,106.467091 121.207262,104.871365 L121.946151,101.394869" id="path40" fill="#D3D5D7"></path>
                        <path d="M55.143161,77.0799126 C66.0273488,92.1743567 93.9478609,103.960254 93.9478609,103.960254 C93.9478609,103.960254 108.625638,109.367946 115.386322,110.721365 C122.143159,112.073929 134.311108,112.073929 139.914954,112.073929 C145.514526,112.073929 164.055124,110.334613 169.076491,108.208972 C174.095295,106.084613 178.733756,105.698715 179.312816,105.120083 C179.892303,104.539741 179.119226,102.029057 179.119226,102.029057 C178.348713,99.7119633 170.81538,96.1153822 170.81538,96.1153822 C174.097004,99.5901685 175.930765,101.835468 175.159825,102.415382 C174.386748,102.994442 169.472218,104.897861 164.150423,103.863673 C158.936321,102.84957 156.910252,102.029057 152.659398,101.64316 C148.411962,101.25598 145.99615,100.244442 145.030766,100.820938 C144.064954,101.40128 148.411107,105.45769 146.479484,106.037177 C144.547432,106.615382 135.664954,104.539741 132.765809,103.960254 C129.869655,103.382049 127.552561,102.415382 123.68974,101.835468 C123.251706,101.770938 122.667518,95.9196557 122.262817,95.8098267 C122.262817,95.8098267 120.259399,102.415382 120.259399,102.84957 C120.259399,103.284613 121.273501,106.471792 121.273501,106.471792 L118.232903,101.835468 C118.232903,101.835468 116.061536,97.9247839 116.784612,95.4623908 C117.509826,93.000425 119.826065,89.6692285 119.826065,89.6692285 L115.047433,95.3183737 C115.047433,95.3183737 114.612818,98.070083 114.612818,99.5188009 C114.612818,100.967091 114.323074,104.588886 114.612818,105.311536 C114.901707,106.037177 112.872647,102.561109 112.872647,102.561109 C112.872647,102.561109 111.57051,96.3324762 111.715809,95.6076899 C111.858544,94.8837583 114.177775,90.9722199 114.177775,90.9722199 C114.177775,90.9722199 110.844014,93.5794848 110.265809,94.7384592 C109.687177,95.8978609 109.396151,101.547006 109.396151,101.547006 L109.687177,104.443587 C109.687177,104.443587 107.120937,101.410254 107.265809,99.8166642 C107.410254,98.2243565 106.500425,96.7653822 106.500425,96.7653822 L106.646579,94.5927327 L108.961963,91.9863225 C108.961963,91.9863225 105.486322,93.7243566 104.761963,96.0427326 C104.038459,98.3593993 104.038459,99.8068351 104.038459,100.244442 C104.038459,100.677775 104.183758,102.415382 104.183758,102.415382 C104.183758,102.415382 101.864527,98.3593993 101.720083,97.9247839 C101.574784,97.4905959 101.429485,95.0294848 101.429485,95.0294848 L104.031621,90.9423054 C104.031621,90.9423054 99.837177,94.3038438 99.5470061,95.1739292 C99.2576898,96.0427326 98.5333309,99.6619633 98.5333309,100.098288 C98.5333309,100.532903 97.0850403,97.2495702 97.8089719,95.2705104 C97.8089719,95.2705104 97.6649548,97.4905959 89.5521345,96.3324762 C82.4764937,95.3196557 61.2683745,80.6247843 55.9474345,76.9205109 L55.143161,77.0799126" id="path42" fill="#B3B5B7"></path>
                        <path d="M149.714954,107.388886 C149.714954,107.388886 149.032048,106.236322 149.686321,105.202561 C150.338885,104.17051 152.719654,103.165809 154.072646,105.468373 C154.072646,105.468373 152.314099,106.359826 151.501706,107.147861 C150.665381,107.961108 149.714954,107.388886 149.714954,107.388886" id="path44" fill="#FFFFFF"></path>
                        <path d="M149.673073,107.003416 C149.673073,107.003416 150.272218,107.072647 150.572646,106.911536 C150.875637,106.749143 152.723928,105.868801 152.792304,105.823929 C152.86068,105.778202 153.81068,105.108117 153.81068,105.108117 C153.81068,105.108117 154.156834,105.016237 154.041022,105.547006 C153.923073,106.077775 151.521791,107.142305 151.288885,107.281194 C151.058543,107.419228 150.06709,107.813245 149.948287,107.789741 C149.83333,107.764955 149.601278,107.32863 149.601278,107.32863 L149.673073,107.003416" id="path46" fill="#2D7AC8"></path>
                        <path d="M152.858971,106.608117 C153.179483,106.052989 152.98333,105.352989 152.429911,105.043587 C151.870509,104.730767 150.870082,104.943587 150.555124,105.498288 C150.233757,106.052134 150.337603,106.917519 150.894013,107.22863 C151.447432,107.538886 152.543586,107.162818 152.858971,106.608117" id="path48" fill="#231F20"></path>
                        <polyline id="path50" fill="#FFFFFF" points="149.956834 106.471792 151.621791 105.818801 150.173073 105.747433 149.956834 106.471792"></polyline>
                        <path d="M143.194441,110.286322 C100.326921,113.858544 63.4829044,84.0829039 54.7880328,76.7752118 C53.4948705,75.6884596 52.7598277,76.3410237 52.7598277,76.3410237 C93.6093994,126.751706 157.506406,112.073929 167.461534,110.067519 C177.869654,107.970937 180.720936,105.002561 180.720936,105.002561 C180.720936,105.002561 180.691021,102.879057 176.827346,99.1910232 C174.434184,96.9106813 171.900423,95.6076899 171.466235,95.8239292 C177.563671,100.464955 178.347431,102.994442 178.491449,104.443587 C178.491449,104.443587 175.376491,107.847006 161.327346,105.238886 C161.327346,105.238886 161.213244,106.956835 156.457261,104.844442 C156.457261,104.844442 153.721364,104.057262 151.982475,104.057262 C151.982475,104.057262 154.059825,104.396151 153.914953,105.553844 C153.914953,105.553844 153.017518,106.014527 151.018372,107.098715 C149.594441,107.869655 149.696577,106.953416 149.696577,106.953416 C149.696577,106.953416 149.232475,106.471792 149.858971,104.877775 C149.522646,105.2641 148.749996,105.505126 149.040167,107.388886 C149.040167,107.388886 147.63803,107.919655 146.915381,107.341023 C146.915381,107.341023 146.915381,108.933758 147.420936,109.367946 C147.420936,109.367946 144.380338,110.020083 143.366236,110.309826" id="path52" fill="#231F20"></path>
                        <path d="M112.680339,87.7367499 C112.680339,87.7367499 113.839741,87.5431602 113.260681,84.8405962 C112.391023,80.7850407 105.265382,77.1551263 104.570938,75.1820494 C103.410681,71.8995709 100.89957,70.5474341 100.89957,70.5474341 L98.9675189,73.0576905 L96.6508523,75.1820494 C96.6508523,75.1820494 103.410681,83.1021347 103.990596,83.4880321 C104.570938,83.8747842 112.680339,87.7367499 112.680339,87.7367499" id="path54" fill="#B3B5B7"></path>
                        <path d="M88.7316217,64.7546992 C88.7316217,64.7546992 129.485039,72.8653828 137.016236,75.7628186 C144.547432,78.6602544 144.547432,82.5217928 143.776065,82.9081176 C143.002988,83.2952971 126.201279,85.419656 126.201279,85.419656 L118.861963,82.9081176 L107.273502,77.8867502 C107.273502,77.8867502 93.7546985,66.6850411 88.7316217,64.7546992" id="path56" fill="#FFFFFF"></path>
                        <path d="M155.459825,91.1175191 C155.459825,91.1175191 156.474782,90.8269208 157.778629,89.8145277 C159.082047,88.7987157 159.226492,87.6410235 159.226492,87.2064081 C159.226492,86.7705107 159.082047,86.1927329 158.501278,85.9029893 C157.923073,85.6128184 157.344441,85.3230748 156.910252,85.1786303 C156.474782,85.0341859 151.838885,84.5995705 151.838885,84.5995705 L153.720509,84.1645278 C153.720509,84.1645278 151.113671,81.7021347 149.811535,81.1222202 C148.507689,80.542733 147.78333,80.6880322 146.479484,80.542733 C145.175637,80.3970065 143.291877,79.8196561 143.291877,79.8196561 C143.291877,79.8196561 140.105979,78.8029895 139.382475,78.3692288 C138.657261,77.9346134 134.166663,76.0525622 133.730766,75.7628186 C133.297005,75.4726477 129.966663,74.4585451 129.53333,74.1692289 C129.095723,73.8799127 118.957262,70.9816222 118.957262,70.9816222 C118.957262,70.9816222 132.716663,73.0098272 142.566663,76.3410237 C152.417518,79.674357 159.661534,82.1363227 160.820936,83.7286304 C161.978628,85.3230748 162.702133,86.3371773 162.702133,87.0611089 C162.702133,87.7846132 162.702133,88.655126 162.702133,88.655126 C162.702133,88.655126 160.820936,90.8269208 155.459825,91.1175191" id="path58" fill="#D3D5D7"></path>
                        <path d="M124.462817,70.9329042 C124.462817,70.9329042 143.009825,64.9431608 154.108543,55.5012807 C154.108543,55.5012807 148.121364,66.5867505 128.034185,71.6093999 L124.462817,70.9329042" id="path60" fill="#D3D5D7"></path>
                        <path d="M163.818799,85.7991432 C163.640167,85.1260662 146.075637,70.7752119 91.6935875,65.389742 C91.6935875,65.389742 160.023928,77.3957246 161.918372,87.8226474 C161.918372,87.8226474 159.599569,91.4017071 148.507689,92.5645276 C148.507689,92.5645276 165.308116,91.4106815 163.818799,85.7991432" id="path62" fill="#231F20"></path>
                        <path d="M89.1641003,103.763245 C99.7358949,112.311536 88.0773482,134.036321 87.0901688,134.6688 C86.1046987,135.299569 86.953844,135.836321 86.953844,135.836321 C105.345297,133.799569 118.448715,112.121365 118.448715,112.121365 L89.1641003,103.763245" id="path64" fill="#231F20"></path>
                        <path d="M148.604697,108.112818 C148.604697,108.112818 150.00427,109.32051 151.451706,108.499997 C152.468372,107.923502 154.446577,104.491878 155.991449,106.037177 C155.991449,106.037177 154.348714,105.167946 152.804697,107.967519 C152.354697,108.779057 150.486748,110.477348 148.604697,108.112818" id="path66" fill="#B3B5B7"></path>
                        <path d="M124.027775,111.687604 L118.861963,105.120083 C118.861963,105.120083 118.090168,102.994442 118.090168,102.221792 C118.090168,101.45128 117.895296,100.871365 118.090168,99.9046984 C118.282903,98.9388864 118.476493,93.3376045 118.476493,93.3376045 L120.405553,89.2829038 C120.405553,89.2829038 116.350424,93.1448695 116.350424,96.4299121 C116.350424,99.7119633 116.156835,104.539741 116.350424,105.311536 C116.543159,106.086322 115.62692,109.94786 115.62692,109.94786 L124.027775,111.687604" id="path68" fill="#231F20"></path>
                        <path d="M117.654271,110.670937 L113.333331,104.721792 C113.333331,104.721792 112.661108,102.626493 112.664527,101.92051 C112.669655,101.216664 112.49957,100.649997 112.676493,99.8068351 C112.850852,98.9658095 113.050425,93.8957241 113.050425,93.8957241 L114.774783,90.5944422 C114.774783,90.5944422 111.173074,93.2841857 111.157262,96.2799121 C111.139741,99.2752112 110.946151,103.638032 111.113672,104.383331 C111.279912,105.127775 112.14957,109.94786 112.14957,109.94786 L117.654271,110.670937" id="path70" fill="#231F20"></path>
                        <path d="M112.872647,110.093587 L107.923074,104.12051 C107.923074,104.12051 107.249997,102.285468 107.254271,101.668374 C107.258544,101.049997 107.09145,100.553844 107.265809,99.8166642 C107.44145,99.0824762 107.639314,94.6435874 107.639314,94.6435874 L109.364527,91.7517071 C109.364527,91.7517071 105.766237,94.1072626 105.74957,96.7294848 C105.733758,99.3512796 105.538886,103.171365 105.70598,103.822647 C105.873074,104.475211 106.211108,108.645296 106.211108,108.645296 L112.872647,110.093587" id="path72" fill="#231F20"></path>
                        <path d="M128.929057,110.892732 L123.979484,104.920083 C123.979484,104.920083 123.306835,103.08504 123.310681,102.467946 C123.314954,101.849143 123.148288,101.353416 123.322646,100.615809 C123.49786,99.8820488 123.695723,95.44316 123.695723,95.44316 L125.420937,92.5508524 C125.420937,92.5508524 121.822647,94.9068352 121.80598,97.5290574 C121.790168,100.150852 121.595723,103.970938 121.76239,104.62222 C121.929484,105.274784 122.267518,109.444869 122.267518,109.444869 L128.929057,110.892732" id="path74" fill="#231F20"></path>
                        <path d="M106.935467,109.656835 L102.64145,103.590596 C102.64145,103.590596 101.994442,101.712391 101.998715,101.081621 C102.00128,100.450425 101.839314,99.9440146 102.009827,99.1901685 C102.178203,98.4388864 102.368374,93.8982883 102.368374,93.8982883 L104.031621,90.9423054 C104.031621,90.9423054 100.559827,93.3499977 100.545724,96.0333309 C100.529912,98.7149548 100.341878,102.619656 100.502989,103.285895 C100.663245,103.953416 101.467946,107.442732 101.467946,107.442732 L106.935467,109.656835" id="path76" fill="#231F20"></path>
                        <path d="M119.826065,107.196151 C119.826065,107.196151 123.593159,109.367946 124.462817,109.656835 C125.331621,109.94786 125.765809,110.236322 125.910681,109.513245 C126.05598,108.788459 126.201279,107.629484 126.201279,107.629484 C126.201279,107.629484 129.966663,109.223074 130.979911,109.802561 C131.994014,110.382476 132.28333,110.816664 133.297005,110.816664 C134.311108,110.816664 134.891877,110.961963 135.90598,110.961963 C136.920082,110.961963 139.237176,110.961963 140.249569,110.816664 C141.263672,110.670937 137.208971,112.264527 135.470937,112.264527 C133.730766,112.264527 130.400424,112.264527 129.67521,112.264527 C128.952988,112.264527 124.317518,112.409399 124.317518,112.409399 L122.578629,112.120937 L119.826065,107.196151" id="path78" fill="#231F20"></path>
                        <path d="M172.262389,97.1995702 C172.262389,97.1995702 170.379483,95.3183737 167.048286,96.3324762 C163.715381,97.3452967 162.268372,97.77863 161.398287,97.9247839 C160.529483,98.070083 159.515381,98.5046984 158.357688,98.7927326 C157.198287,99.0841856 154.155979,99.2303394 154.155979,99.2303394 L156.619227,97.635895 C156.619227,97.635895 154.735466,97.635895 154.155979,97.635895 C153.576065,97.635895 154.880338,97.77863 152.273073,97.4905959 C149.666236,97.1995702 151.547859,97.0559805 148.797432,96.7653822 C146.045723,96.4764933 144.741022,96.4764933 144.741022,96.4764933 C144.741022,96.4764933 143.580766,96.1880318 144.161535,96.3324762 C144.741022,96.4764933 145.755125,95.8978609 145.175637,95.6076899 C144.594868,95.3183737 142.858116,94.7384592 142.858116,94.7384592 C142.858116,94.7384592 142.277774,94.3038438 141.844014,94.0145276 C141.408116,93.7243566 139.382475,91.9863225 139.382475,91.9863225 L144.016663,93.000425 C144.016663,93.000425 146.479484,95.7529891 150.535039,96.1880318 C154.589312,96.6217925 157.778629,97.0072625 157.778629,97.0072625 C157.778629,97.0072625 159.371791,97.0559805 159.951278,96.6217925 C160.529483,96.1880318 163.282475,94.4482882 164.874782,94.4482882 C166.468372,94.4482882 166.124355,93.6606814 167.454697,94.2705105 C168.787603,94.8837583 168.787603,95.0294848 169.366235,95.1739292 C169.94615,95.3183737 171.990594,96.8871771 171.990594,96.8871771" id="path80" fill="#D3D5D7"></path>
                        <path d="M120.550424,92.7102541 L122.143159,89.6692285 C122.143159,89.6692285 122.578629,88.7987157 123.158971,88.363673 C123.738031,87.929485 125.187176,86.1927329 125.187176,86.1927329 C125.187176,86.1927329 122.287604,86.9158098 121.564527,87.2064081 C120.839313,87.4957243 119.391023,88.363673 119.391023,88.363673 L117.076065,90.1034166 C117.076065,90.1034166 119.102561,87.0611089 119.682476,86.4829038 C120.259399,85.9029893 121.564527,85.0341859 121.564527,85.0341859 C121.564527,85.0341859 121.708971,84.1645278 120.550424,84.8888868 C119.391023,85.6128184 115.336322,87.929485 115.336322,87.929485 C115.336322,87.929485 115.62692,86.4829038 115.915809,86.0470064 C116.205125,85.6128184 116.641023,84.7444423 117.364527,84.5995705 C118.090168,84.4534167 118.090168,84.4534167 118.090168,84.4534167 C118.090168,84.4534167 116.929912,83.2952971 116.495724,83.2952971 C116.061536,83.2952971 115.62692,83.0046988 115.62692,83.0046988 L112.583758,79.674357 L109.542305,77.3551263 L99.4021343,70.402135 C99.4021343,70.402135 114.467519,79.8196561 115.192732,80.1081177 C115.915809,80.3970065 116.929912,80.6880322 117.364527,81.1222202 C117.798715,81.5568356 118.811963,82.2811945 118.811963,82.2811945 L119.971365,83.0046988 L119.682476,84.1645278 C119.682476,84.1645278 120.694869,83.5850406 121.853416,83.4393142 C123.013672,83.2952971 123.158971,83.4393142 123.882476,83.1495706 C124.608544,82.8593996 124.608544,82.2811945 124.608544,82.8593996 C124.608544,83.4393142 123.013672,85.1786303 123.013672,85.1786303 C123.013672,85.1786303 125.910681,85.0341859 126.635467,85.0341859 C127.358971,85.0341859 129.82051,84.8888868 129.82051,84.8888868 C129.82051,84.8888868 129.241877,85.4675192 128.084185,86.1927329 C126.924783,86.9158098 129.966663,89.2324764 129.966663,89.2324764 C129.966663,89.2324764 130.688458,90.2487157 131.124356,90.5371772 C131.559826,90.8269208 133.008116,91.4059806 133.008116,91.4059806 L137.208971,93.4341857 C137.208971,93.4341857 133.008116,92.5653823 131.848715,92.1307669 C130.688458,91.6961516 129.966663,91.1175191 129.53333,91.1175191 C129.095723,91.1175191 126.635467,91.6961516 126.635467,91.6961516 L126.924783,90.5371772 C126.924783,90.5371772 126.344869,90.3918781 125.765809,90.3918781 C125.187176,90.3918781 124.896578,89.8145277 124.896578,89.8145277 L120.550424,92.7102541" id="path82" fill="#D3D5D7"></path>
                        <path d="M102.250852,69.7747846 C102.250852,69.7747846 114.420083,73.2521349 116.350424,74.0239298 C118.282903,74.7970067 119.438886,75.5692289 120.211535,75.954699 C120.985467,76.3410237 122.337604,77.3076904 122.916236,77.6935878 C123.496151,78.0799126 122.143159,77.5004254 124.849142,78.0799126 C127.552561,78.6602544 128.325638,79.0461519 128.905552,79.2397416 C129.485039,79.4337587 128.905552,80.2038441 129.67521,80.7850407 C130.448287,81.3632458 131.412817,80.9777758 132.764099,80.7850407 C134.117945,80.5905963 134.891877,80.9769211 136.822646,81.5568356 C138.754697,82.1363227 142.036749,83.3914509 144.355552,83.3914509 C141.748714,82.4252116 141.070082,80.3017074 138.368373,79.9149553 C135.664954,79.5286305 134.117945,78.8529895 133.345296,78.8529895 C132.573074,78.8529895 131.994014,79.2397416 131.220937,78.6602544 C130.448287,78.0799126 127.938886,76.9205109 127.166236,76.7273485 C126.394014,76.5341861 126.201279,76.9205109 125.234612,76.147434 C124.269228,75.3769212 120.791877,74.0239298 120.791877,74.0239298 L116.543159,72.8653828 L102.250852,69.7747846" id="path84" fill="#D3D5D7"></path>
                        <path d="M45.3726484,78.6602544 C45.3726484,78.6602544 56.6700841,83.5850406 94.2243566,86.0333312 C101.452989,86.505126 103.809826,88.1593995 106.554698,88.3457243 C109.299143,88.5337585 115.431621,89.4021345 111.109826,85.7363226 C106.786749,82.0709381 103.366237,80.0380322 102.444442,78.8029895 C101.521365,77.5722203 98.4854676,73.920511 94.3012797,74.7192289 C90.1179465,75.5222203 79.8478613,80.6880322 45.3726484,78.6602544" id="path86" fill="#231F20"></path>
                        <path d="M146.959398,77.6606818 C146.959398,77.6606818 157.904697,74.6585451 156.973073,55.1414516 C156.973073,55.1414516 155.608543,54.266238 154.108543,55.5012807 C152.694441,56.6658105 136.816663,70.552135 126.82051,71.5341862" id="path88" fill="#231F20"></path>
                        <path d="M169.582474,94.7384592 C169.582474,94.7384592 168.887175,93.700425 168.304697,92.8542712 C167.554269,91.7688011 165.961534,91.0448695 165.961534,91.0448695 C165.961534,91.0448695 165.358116,87.0111089 164.005124,86.6269209 C162.654697,86.2401688 164.923073,87.4666645 159.515381,89.9581174 C156.738458,91.2380319 150.439312,92.4679464 148.507689,92.5645276 C146.576492,92.6615361 142.277774,92.7816216 142.277774,92.7816216 C142.277774,92.7816216 145.313672,94.5688011 147.564526,95.5350403 C150.102988,96.6217925 156.134184,97.1042711 157.778629,97.0072625 C159.420081,96.9106813 162.123073,96.427348 162.509398,96.1384591 C162.894868,95.8491429 165.636748,95.2303395 166.409825,95.2303395 C167.182047,95.2303395 168.373073,94.2666643 168.373073,94.2666643" id="path90" fill="#231F20"></path>
                        <path d="M162.832475,95.9282027 C162.832475,95.9282027 167.105124,93.7482883 171.990594,96.8871771 C176.872218,100.026921 176.525209,100.550852 176.525209,100.550852 C176.525209,100.550852 176.699568,99.4162368 175.477773,98.1952967 C174.258115,96.9743566 170.245295,94.184613 167.454697,94.2705105 C164.66538,94.3581173 162.832475,95.9282027 162.832475,95.9282027" id="path92" fill="#231F20"></path>
                        <path d="M161.785893,96.3649549 C161.785893,96.3649549 157.514099,97.8465788 157.253415,97.8465788 C157.253415,97.8465788 158.720936,97.0042711 159.171364,96.6264933 C159.619654,96.2461514 161.785893,96.3649549 161.785893,96.3649549" id="path94" fill="#231F20"></path>
                        <polyline id="path96" fill="#2D7AC8" points="30.163589 70.1136735 49.138033 70.1136735 57.3961524 38.9691871 56.2363234 35.3492299 47.2559817 67.9401692 32.0467941 67.9401692 30.163589 70.1136735"></polyline>
                        <polyline id="path98" fill="#2D7AC8" points="64.7833317 70.2572632 85.2076902 70.2572632 82.3111091 62.0008532 77.964528 62.0008532 62.731195 18.6423072 61.572648 22.1914952 76.3709383 64.0299129 80.7162373 64.0299129 82.2858954 68.3739299 67.2457248 68.3739299 64.7833317 70.2572632"></polyline>
                        <polyline id="path100" fill="#2D7AC8" points="41.1728622 50.123503 32.3364094 26.2226062 37.0431187 26.2226062 34.2681615 18.4979483 32.9151701 20.5739311 34.3646573 24.4858541 29.5848283 24.4858541 38.1306828 47.5179475 41.1728622 50.123503"></polyline>
                        <polyline id="path102" fill="#2D7AC8" points="91.5739293 38.1026486 111.715809 38.1026486 116.784612 32.5966659 110.844014 16.8077346 99.6773479 10.8692305 98.0991428 7.97175194 112.872647 15.503803 119.102561 33.1764094 112.872647 39.9841443 92.4495703 39.8380759 97.2303394 52.4414517 94.768801 51.2811953 90.4089721 39.9482469 91.5739293 38.1026486"></polyline>
                        <polyline id="path104" fill="#2D7AC8" points="123.882476 46.9376057 126.344869 54.0354687 117.364527 61.2773489 100.560681 61.2773489 103.313673 59.2491438 116.350424 59.1038447 123.882476 53.4555542 121.564527 47.0811954 123.882476 46.9376057"></polyline>
                        <polyline id="path106" fill="#2D7AC8" points="82.0700834 17.4435893 83.3444424 21.2990593 75.3576904 21.2990593 73.1846136 23.0367088 86.2217927 23.0367088 84.5311945 17.9897859 86.8059807 14.6876492 95.5940147 14.6876492 93.7290575 13.032521 85.4559808 13.032521 82.0700834 17.4435893"></polyline>
                        <polyline id="path108" fill="#2D7AC8" points="170.767517 69.9675196 189.790594 69.9675196 186.560252 61.855554 182.546577 61.855554 169.366235 27.0935036 157.669227 18.6555124 160.334184 23.3815806 167.627774 28.540683 180.665807 64.3188018 185.152987 64.3188018 186.602987 67.9401692 173.275637 67.9401692 170.767517 69.9675196"></polyline>
                        <polyline id="path110" fill="#2D7AC8" points="149.08803 57.6564088 139.237176 31.7272642 142.13333 25.7880763 154.139312 25.7880763 151.805552 23.4717088 140.684612 23.4717088 136.340168 31.1491873 146.915381 59.2491438 149.08803 57.6564088"></polyline>
                        <path d="M87.7666645,135.248287 C87.7666645,135.248287 103.604271,132.448287 115.192732,113.133331 L110.844014,112.988886 C110.844014,112.988886 103.024356,130.226492 87.7666645,135.248287" id="path112" fill="#2D7AC8"></path>
                        <path d="M55.8999986,80.0128185 C55.8999986,80.0128185 82.2136732,82.4252116 89.5521345,82.4252116 C96.8918779,82.4252116 96.1183737,82.1363227 98.244442,82.7145278 C100.367946,83.2952971 101.527348,83.3914509 102.879912,84.1645278 C104.231194,84.93675 110.168801,86.963673 110.168801,86.963673 C110.168801,86.963673 107.466237,88.3162371 103.990596,86.7705107 C100.513245,85.2277756 96.0709378,84.4534167 89.6974337,84.2615364 C83.3252116,84.0675193 64.7833317,82.3286304 55.8999986,80.0128185" id="path114" fill="#2D7AC8"></path>
                        <path d="M143.668372,74.3444426 C143.668372,74.3444426 153.141877,67.216665 155.751278,60.4085455 C155.751278,60.4085455 154.386321,71.1111093 147.049569,74.9743571 L143.668372,74.3444426" id="path116" fill="#2D7AC8"></path>
                        <path d="M120.405553,111.10769 C120.405553,111.10769 138.005125,113.641023 149.88333,112.193587 C165.622645,110.273929 177.188884,106.32692 177.188884,106.32692 C177.188884,106.32692 169.801705,107.775638 167.7735,108.208972 C165.74444,108.645296 160.916663,108.741023 159.614099,108.741023 C158.310252,108.741023 155.605124,108.065382 155.170082,108.499997 C154.735466,108.933758 151.403415,112.483331 148.144013,110.670937 C148.144013,110.670937 146.045723,111.179484 143.580766,111.396578 C141.130338,111.613245 134.311108,111.68504 120.405553,111.10769" id="path118" fill="#2D7AC8"></path>
                        <path d="M113.38333,110.403843 C113.38333,110.403843 79.8286305,104.879912 61.7427335,84.1645278 C82.4136732,102.642305 113.38333,110.403843 113.38333,110.403843" id="path120" fill="#2D7AC8"></path>
                        <path d="M164.67521,91.4106815 C164.67521,91.4106815 165.100851,90.2209379 164.76538,89.4619636 L162.926064,90.0482883 C162.926064,90.0482883 164.745295,90.9200832 164.67521,91.4106815" id="path122" fill="#FFFFFF"></path>
                        <path d="M149.132048,95.3572626 L150.970082,94.6405959 L152.369654,95.510254 L153.287176,94.6405959 L155.170082,95.850425 L156.041449,94.351707 C156.041449,94.351707 156.783757,94.8474335 157.30256,95.3029891 C157.819227,95.760254 158.019654,95.8978609 158.019654,95.8978609 L158.22521,94.184613 C158.22521,94.184613 158.618372,94.1649549 159.038885,94.6277754 C159.455124,95.0893139 160.796577,95.7213651 160.796577,95.7213651 C160.796577,95.7213651 161.010252,94.7145275 160.870936,93.9461515 C160.73162,93.1773481 160.73162,93.1773481 160.73162,93.1773481 C160.73162,93.1773481 161.429483,93.3316216 161.755552,93.8982883 C162.082902,94.4632455 162.529483,94.9743566 162.529483,94.9743566 L162.943586,94.0277754 L162.867517,92.5752114 C162.867517,92.5752114 164.207261,93.3957242 164.440167,94.0619635 C164.440167,94.0619635 165.21709,93.0363225 164.874782,92.1794849 C164.874782,92.1794849 166.118372,93.0534165 166.452987,93.8141002 C166.452987,93.8141002 166.759398,92.5974336 166.373073,91.8414507 C166.373073,91.8414507 167.383756,92.3290575 167.621791,93.0944421 C167.860252,93.8598267 167.683329,94.2551258 167.683329,94.2551258 C167.683329,94.2551258 166.520081,93.7730746 164.369227,94.4482882 C163.150423,94.8324763 161.085466,96.0692284 159.619654,96.2461514 C158.15256,96.4239292 155.328629,96.2948694 153.651706,96.1918779 C151.970082,96.0884591 149.132048,95.3572626 149.132048,95.3572626" id="path124" fill="#FFFFFF"></path>
                        <path d="M162.499569,92.1824763 C162.499569,92.1824763 162.927346,90.9935875 162.591022,90.2350405 L160.751705,90.8209379 C160.751705,90.8209379 162.5735,91.6935875 162.499569,92.1824763" id="path126" fill="#FFFFFF"></path>
                        <path d="M146.094013,93.2897413 L147.445295,94.400425 L148.218372,93.4341857 L149.811535,94.2064079 L151.308116,93.000425 L152.273073,94.1598267 L153.770509,92.6128182 C153.770509,92.6128182 154.735466,93.5311942 154.832902,94.1598267 C154.832902,94.1598267 155.798714,93.4350404 155.412389,92.2269208 C155.412389,92.2269208 157.199996,92.4696558 157.48974,93.5311942 C157.48974,93.5311942 158.310252,92.4200832 158.019654,91.6961516 C158.019654,91.6961516 159.75897,91.9871772 159.806834,93.0961515 C159.806834,93.0961515 160.482047,91.9384592 160.192304,90.9243567 C160.192304,90.9243567 160.531193,90.730767 159.85427,90.8752114 C159.179056,91.0196558 157.969654,91.2615362 157.585466,91.4059806 C157.199996,91.5512798 154.782902,92.1794849 153.045723,92.4200832 C151.308116,92.6628182 150.150424,92.8542712 149.377347,92.9034165 C148.604697,92.9508524 148.218372,92.9508524 147.928629,93.000425 C147.63803,93.0478609 146.094013,93.2897413 146.094013,93.2897413" id="path128" fill="#FFFFFF"></path>
                        <path d="M94.7499976,13.032521 L85.4559808,13.032521" id="path130" fill="#1C4E9D"></path>
                        <path d="M86.8059807,14.6876492 L96.0999976,14.6876492" id="path132" fill="#1C4E9D"></path>
                        <path d="M171.871363,14.3871791 C172.343585,14.3871791 172.76538,14.4208971 172.76538,14.9858116 C172.76538,15.4405552 172.352132,15.5251706 171.964098,15.5251706 L171.205551,15.5251706 L171.205551,14.3871791 L171.871363,14.3871791 Z M171.205551,12.32188 L170.649141,12.32188 L170.649141,15.9979483 L172.048286,15.9979483 C172.916662,15.9979483 173.347004,15.6764099 173.347004,14.9517518 C173.347004,14.2943586 172.934184,14.0077347 172.39444,13.9401279 L173.439739,12.32188 L172.81538,12.32188 L171.84615,13.9149142 L171.205551,13.9149142 L171.205551,12.32188 Z M171.87991,11.5038886 C173.321791,11.5038886 174.459825,12.6333758 174.459825,14.1679911 C174.459825,15.6764099 173.321791,16.8153842 171.87991,16.8153842 C170.421363,16.8153842 169.283756,15.6764099 169.283756,14.1679911 C169.283756,12.6333758 170.421363,11.5038886 171.87991,11.5038886 L171.87991,11.5038886 Z M168.642303,14.1679911 C168.642303,15.9979483 170.126491,17.3465808 171.87991,17.3465808 C173.616662,17.3465808 175.100423,15.9979483 175.100423,14.1679911 C175.100423,12.32188 173.616662,10.9727348 171.87991,10.9727348 C170.126491,10.9727348 168.642303,12.32188 168.642303,14.1679911 L168.642303,14.1679911 Z" id="path134" fill="#231F20"></path>
                    </g>
                </g>
            </g>
        </g>
    </g>
</svg>