<?xml version="1.0" encoding="UTF-8"?>
<svg width="200px" height="200px" viewBox="0 0 200 200" version="1.1" xmlns="http://www.w3.org/2000/svg" xmlns:xlink="http://www.w3.org/1999/xlink">
    <title>occidental_BGL</title>
    <g id="occidental_BGL" stroke="none" stroke-width="1" fill="none" fill-rule="evenodd">
        <g id="occidental_bgl" transform="translate(0.000000, 1.000000)">
            <path d="M196.09457,134.269935 C190.25802,132.208253 184.356438,130.343655 178.403227,128.672665 C177.087682,128.302823 175.766181,127.954825 174.445175,127.604344 L174.445175,160.608129 L140.630717,194.418616 L59.3672975,194.418616 L25.5543283,160.606143 L25.5543283,127.604344 C24.2338194,127.954825 22.9123177,128.302823 21.5962768,128.672665 C15.6430655,130.343655 9.74148309,132.208253 3.90493329,134.269935 C3.90493329,132.433137 3.90493329,130.596835 3.90493329,128.760534 C65.5280174,106.823705 134.471486,106.823705 196.09457,128.760037 C196.09457,130.596835 196.09457,132.433137 196.09457,134.269935 Z M23.3645672,96.4855104 L23.3645672,112.913931 L23.2742166,113.027118 C22.1681663,114.41663 21.0660875,115.812597 19.9630158,117.216506 L19.8801117,117.322743 L19.750543,117.358982 C16.2829662,118.343407 12.8749612,119.403785 9.62134657,120.510828 L9.42922743,120.576357 L9.25994415,120.465157 C8.17970835,119.752777 7.09897611,119.050326 6.01725101,118.3583 L5.8256283,118.235681 L5.8256283,101.737263 L5.90704313,101.627552 C6.98727893,100.155631 8.07148619,98.6941359 9.15569345,97.2405833 L9.23363326,97.1373255 L9.35426621,97.0961216 C12.6222774,95.9841142 16.0441824,94.9192678 19.52417,93.9318647 L19.7147999,93.8777536 L19.8766367,93.9914365 C20.9836798,94.7738132 22.0882408,95.5636364 23.1928017,96.3614024 L23.3645672,96.4855104 Z M33.148247,96.2189265 L33.148247,108.271796 C34.0378529,108.075209 34.9274589,107.88309 35.8175613,107.695935 L35.8175613,104.116165 L36.1466956,104.047161 C38.3116351,103.595408 40.5371393,103.159541 42.7631399,102.75197 L43.2521253,102.662612 L43.2521253,108.477816 L43.1533354,108.593484 C42.0487744,109.889172 40.943717,111.191809 39.8421347,112.498418 L39.7478126,112.609618 L39.6053366,112.637419 C36.1685386,113.31058 32.7590444,114.048278 29.4706795,114.830158 L29.2800496,114.87583 L29.1251629,114.757183 C28.0434378,113.933602 26.9627056,113.116475 25.8799876,112.307788 L25.7131865,112.183183 L25.7131865,95.694198 L25.8050264,95.5810115 C26.8867515,94.2267453 27.9684766,92.8779398 29.0541731,91.5360844 L29.1430344,91.4263729 L29.2800496,91.3941049 C32.5838039,90.6077567 36.0042197,89.8680732 39.4454856,89.1944151 L39.6336333,89.1571827 L39.7820664,89.2763264 C40.8891095,90.1545144 41.9936705,91.0391561 43.0972386,91.9302513 L43.2521253,92.0548557 L43.2521253,97.7633261 L42.9130624,97.8253801 C40.6920261,98.2319578 38.4729755,98.6668321 36.3169718,99.1165994 L35.8175613,99.2208501 L35.8175613,95.6420726 C34.9274589,95.8297239 34.0378529,96.0223394 33.148247,96.2189265 Z M52.9012721,92.6014272 L52.9012721,104.665219 C53.7908781,104.535154 54.6794912,104.40906 55.5695935,104.286938 L55.5695935,100.706174 L55.9280174,100.65802 C58.1346572,100.358672 60.3601613,100.08067 62.542476,99.8314614 L63.0041576,99.7788396 L63.0041576,105.568725 L62.8959355,105.686876 C61.7928638,106.906112 60.6892957,108.131306 59.586224,109.360472 L59.4829662,109.475644 L59.3295687,109.494508 C55.9339746,109.918461 52.5239839,110.403475 49.191933,110.93565 L49.0067639,110.965436 L48.8618058,110.84381 C47.7800807,109.936333 46.6993484,109.033323 45.6166305,108.136271 L45.466708,108.012659 L45.466708,91.5281415 L45.565498,91.4119764 C46.6472231,90.1450822 47.7304375,88.8826559 48.8131554,87.6256904 L48.9124418,87.511511 L49.0623643,87.4871859 C52.3775365,86.9569966 55.7979522,86.4704933 59.2278002,86.0420726 L59.4094943,86.0192367 L59.5494881,86.1398697 C60.6550419,87.0969904 61.7596029,88.058579 62.863171,89.0256283 L63.0041576,89.1492398 L63.0041576,94.8716103 L62.636798,94.913807 C60.4594477,95.1615265 58.2399007,95.4385355 56.0397146,95.7373875 L55.5695935,95.8009308 L55.5695935,92.2221533 C54.6794912,92.3442755 53.7898852,92.4703692 52.9012721,92.6014272 Z M75.0024201,102.640273 L75.0024201,107.934223 L74.6196711,107.963512 C71.3298169,108.21421 68.0201055,108.516537 64.7823767,108.862054 L64.3236736,108.911201 L64.3236736,103.614272 L65.9618989,103.442011 L65.9618989,90.5392491 L64.3236736,90.7120074 L64.3236736,85.4483401 L64.6935154,85.4091219 C67.9337263,85.062116 71.2513807,84.7582997 74.5561278,84.5071052 L75.0024201,84.4733478 L75.0024201,89.7340366 L73.3636984,89.862116 L73.3636984,102.76736 L75.0024201,102.640273 Z M76.3000931,89.6397146 L76.3000931,84.3795222 L76.6853242,84.3522184 C81.5791499,84.012659 86.5757369,83.7773503 91.5395594,83.6527459 L91.7123177,83.648278 L91.8369221,83.7694074 C92.931058,84.825318 94.0256904,85.886193 95.1178405,86.9520323 L95.2434378,87.0741545 L95.2434378,103.555197 L95.1228048,103.676823 C94.0296618,104.776419 92.9365188,105.88098 91.8443686,106.98852 L91.7262178,107.107664 L91.5599131,107.112132 C86.6228979,107.235247 81.6372324,107.469563 76.7434068,107.809618 L76.3000931,107.840397 L76.3000931,102.544958 L77.6052125,102.456593 L77.6052125,89.5508532 L76.3000931,89.6397146 Z M97.1120074,88.8186162 L97.1120074,83.5599131 L97.5240459,83.5569345 C102.965436,83.5192057 108.487248,83.6110456 113.916227,83.8329507 L114.313869,83.8493329 L114.313869,91.4849519 L113.882966,91.4670804 C112.084393,91.3926156 110.285821,91.3335402 108.488241,91.2883649 L108.084145,91.2784362 L108.084145,88.9030096 C107.328079,88.8846416 106.571517,88.8697487 105.815451,88.856345 L105.815451,92.1273348 C107.36978,92.1536457 108.924604,92.1908781 110.480422,92.2385355 L110.882035,92.2514428 L110.882035,97.9822526 L110.455104,97.9688489 C108.907726,97.9211914 107.362333,97.8834626 105.815451,97.8571517 L105.815451,101.763574 C106.59336,101.776978 107.373751,101.792864 108.15166,101.812225 L108.15166,99.0014272 L108.576109,99.0123487 C110.378653,99.0580205 112.182191,99.1180887 113.982253,99.1920571 L114.379895,99.2089358 L114.379895,107.311697 L113.948992,107.294322 C108.502637,107.069935 102.981818,106.979584 97.5290102,107.015824 L97.1120074,107.019299 L97.1120074,101.725349 L98.3818802,101.718399 L98.3818802,88.8111697 L97.1120074,88.8186162 Z M115.811604,89.1765436 L115.811604,83.9158548 L116.245982,83.9372014 C118.812535,84.0603165 121.413342,84.2161961 123.975923,84.398883 L124.230096,84.4167546 L124.327893,84.6515669 C125.544151,87.5457648 126.759417,90.4444307 127.973193,93.3475644 L127.973193,84.709153 L128.423456,84.7473782 C130.777536,84.9479367 133.143034,85.1757989 135.455414,85.4250078 L135.825256,85.4642259 L135.825256,90.7278933 L134.721688,90.6102389 L134.721688,108.809432 L134.263978,108.762271 C132.10847,108.53838 129.948992,108.335836 127.789016,108.156128 L127.537325,108.135278 L127.441018,107.902451 C126.239652,105.010239 125.035805,102.122991 123.831958,99.2407074 L123.831958,107.849333 L123.388644,107.818554 C121.015203,107.652746 118.599069,107.51027 116.205275,107.394601 L115.811604,107.375737 L115.811604,102.08278 L117.083959,102.145827 L117.083959,89.2385976 L115.811604,89.1765436 Z M150.545951,93.0958734 L150.545951,105.591064 C151.177412,105.690847 151.80937,105.793608 152.441328,105.897859 L152.788334,105.955445 L152.788334,111.25982 L152.306298,111.179398 C148.681353,110.580701 144.955631,110.038101 141.233881,109.565994 L140.871486,109.520323 L140.871486,104.219919 L141.338132,104.279491 C141.940304,104.355445 142.542972,104.433881 143.144151,104.513807 L143.144151,92.0166305 L142.682966,91.9550729 L142.682966,94.7301272 L142.214831,94.6695625 C140.641142,94.4645361 139.064971,94.2719206 137.490289,94.0917158 L137.122929,94.0500155 L137.122929,85.6076947 L137.584114,85.6608129 C143.914614,86.385107 150.187527,87.3015203 156.226621,88.3832454 L156.568663,88.4443065 L156.568663,96.8940738 L156.081663,96.8071983 C154.506485,96.5252249 152.931803,96.2566553 151.355631,96.0019857 L151.007136,95.9453925 L151.007136,93.1698418 L150.545951,93.0958734 Z M167.683276,107.981384 C166.658641,107.750543 165.634006,107.527149 164.60937,107.309215 L164.483773,108.160596 L165.269128,108.326404 L165.269128,113.639218 L164.768228,113.532485 C162.234936,112.992367 159.634626,112.477567 157.036302,112.001986 L156.696742,111.940428 L156.696742,106.634564 L157.712442,106.82023 L160.961589,89.2743407 L161.372138,89.3557555 C164.872479,90.051753 168.357927,90.8187403 171.731679,91.6358672 L171.994787,91.7004034 L175.292088,110.693888 L176.276016,110.950543 L176.276016,116.270307 L175.757245,116.134781 C173.075023,115.433323 170.30543,114.760161 167.525411,114.13565 L167.201241,114.063171 L167.201241,108.750853 L167.797456,108.883897 L167.683276,107.981384 Z M177.573689,98.4181198 L177.573689,93.1291343 L178.095935,93.2716103 C181.528266,94.2044058 184.905492,95.2106733 188.134285,96.2606267 L188.42023,96.3534595 L188.42023,101.654856 L187.877133,101.478126 C187.356376,101.30785 186.833633,101.141049 186.311387,100.975737 L186.311387,113.843252 C186.899659,114.028917 187.48942,114.217561 188.078188,114.408688 L188.078188,109.690599 L188.622277,109.868321 C190.404468,110.453615 192.180205,111.065219 193.899845,111.686255 L194.174372,111.784549 L194.174372,121.84623 L193.620354,121.645672 C188.654049,119.855538 183.35861,118.191499 177.879988,116.70121 L177.573689,116.618802 L177.573689,111.295067 L178.877816,111.652498 L178.877816,98.7760472 L177.573689,98.4181198 Z M3.90493329,87.1128762 C9.74148309,85.051691 15.6430655,83.1865963 21.5962768,81.5156066 C22.9123177,81.1462612 24.2338194,80.7977661 25.5543283,80.4477816 L25.5543283,37.7710208 L59.3672975,3.95755507 L140.630717,3.95755507 L174.445175,37.7690351 L174.445175,80.4472851 C175.766181,80.7977661 177.087682,81.1462612 178.403227,81.5156066 C184.356438,83.1865963 190.25802,85.051691 196.09457,87.1128762 C196.09457,88.9571207 196.09457,90.8013652 196.09457,92.6451132 C134.471486,70.7082842 65.5280174,70.7087806 3.90493329,92.6451132 C3.90493329,90.8013652 3.90493329,88.9571207 3.90493329,87.1128762 Z M197.395222,83.4308408 C191.124791,81.2162581 184.788334,79.2325163 178.403227,77.4602544 L178.403227,36.1298169 L142.270431,0 L57.727583,0 L21.5962768,36.1313062 L21.5962768,77.4602544 C15.2116661,79.2330127 8.87520943,81.2162581 2.60428173,83.4308408 L0,84.3507291 L0,139.790258 L5.20508843,137.95197 C10.6226497,136.038225 16.0903506,134.303196 21.5962768,132.72901 L21.5962768,162.245858 L57.727583,198.376171 L142.270431,198.376171 L178.403227,162.247347 L178.403227,132.72901 C183.909153,134.303196 189.37735,136.038225 194.794912,137.95197 L200,139.790258 L200,84.3507291 L197.395222,83.4308408 L197.395222,83.4308408 Z" id="Fill-1" fill="#FFFFFE"></path>
            <path d="M74.478188,58.0343779 L79.6306547,52.8819113 L120.36736,52.8819113 L125.521812,58.0348743 L125.521812,67.9089047 C108.543345,66.4315234 91.4566553,66.4315234 74.478188,67.9089047 L74.478188,58.0343779 Z M125.521812,71.8992243 C126.841328,72.014893 128.160844,72.1390009 129.478871,72.2725411 L129.478871,56.3956562 L122.006578,48.9238598 L77.9914365,48.9238598 L70.5211294,56.3946634 L70.5211294,72.2725411 C71.8391561,72.1390009 73.1581756,72.014893 74.478188,71.8992243 C91.4506981,70.414893 108.549302,70.414893 125.521812,71.8992243 L125.521812,71.8992243 Z" id="Fill-2" fill="#FFFFFE"></path>
            <path d="M125.521812,122.909091 L125.521812,140.341297 L120.36736,145.494756 L79.6306547,145.494756 L74.478188,140.34229 L74.478188,122.909091 C91.4546696,121.390506 108.544834,121.390506 125.521812,122.909091 Z M70.5211294,119.4296 L70.5211294,141.982004 L77.9914365,149.452312 L122.006578,149.452312 L129.478871,141.981011 L129.478871,119.4296 C128.160844,119.29606 126.841328,119.171952 125.521812,119.056283 C108.549302,117.571952 91.4506981,117.571952 74.478188,119.056283 C73.1581756,119.171952 71.8391561,119.29606 70.5211294,119.4296 L70.5211294,119.4296 Z" id="Fill-3" fill="#FFFFFE"></path>
            <path d="M64.4095563,182.240149 L37.7327955,155.561899 L37.7327955,124.657028 C35.8552901,125.067577 33.9812597,125.495501 32.1121936,125.944276 L32.1121936,157.890164 L62.0822836,187.861247 L137.915234,187.861247 L167.887806,157.890661 L167.887806,125.944276 C166.018244,125.495501 164.144213,125.067577 162.266708,124.657028 L162.266708,155.562395 L135.587962,182.240149 L64.4095563,182.240149" id="Fill-4" fill="#FFFFFE"></path>
            <path d="M124.723549,42.3664908 L136.03624,53.6791809 L136.03624,73.0072603 C137.912752,73.2400869 139.78579,73.4947564 141.657338,73.764319 L141.657338,51.3509153 L127.050822,36.7453925 L72.9471921,36.7453925 L58.3426621,51.3509153 L58.3426621,73.764319 C60.2137139,73.4947564 62.0872479,73.2400869 63.963264,73.0072603 L63.963264,53.678188 L75.2744648,42.3664908 L124.723549,42.3664908" id="Fill-5" fill="#FFFFFE"></path>
            <path d="M135.587962,16.1360223 L162.266708,42.813776 L162.266708,77.499969 C164.144213,77.9110146 166.018244,78.3384424 167.887806,78.7872169 L167.887806,40.4855104 L137.915234,10.5154204 L62.0822836,10.5154204 L32.1121936,40.4865033 L32.1121936,78.7872169 C33.9812597,78.3384424 35.8552901,77.9110146 37.7327955,77.499969 L37.7327955,42.8147688 L64.4095563,16.1360223 L135.587962,16.1360223" id="Fill-6" fill="#FFFFFE"></path>
            <path d="M75.2744648,156.010177 L63.963264,144.697983 L63.963264,120.164319 C62.0872479,120.397146 60.2137139,120.651815 58.3426621,120.920881 L58.3426621,147.026249 L72.9471921,161.630779 L127.050822,161.630779 L141.657338,147.025256 L141.657338,120.920881 C139.78579,120.651815 137.912752,120.397146 136.03624,120.164319 L136.03624,144.69699 L124.723549,156.010177 L75.2744648,156.010177" id="Fill-7" fill="#FFFFFE"></path>
            <path d="M87.8088737,89.662054 C86.8860068,89.6953149 85.9616506,89.7325473 85.0387837,89.7732547 L85.0387837,101.441886 C85.9616506,101.401675 86.8860068,101.363947 87.8088737,101.330686 L87.8088737,89.662054" id="Fill-8" fill="#FFFFFE"></path>
            <path d="M13.2601924,113.578157 C14.1502948,113.295687 15.0399007,113.020664 15.9295067,112.750605 L15.9295067,100.715607 C15.0399007,100.985666 14.1502948,101.262675 13.2601924,101.546137 L13.2601924,113.578157" id="Fill-9" fill="#FFFFFE"></path>
            <path d="M165.345579,102.389078 C165.894632,102.506733 166.443686,102.626869 166.99274,102.747999 L166.21632,96.914924 L165.345579,102.389078" id="Fill-10" fill="#FFFFFE"></path>
            <path d="M125.521812,119.056283 C126.841328,119.171952 128.160844,119.29606 129.478871,119.4296 L129.478871,141.981011 L122.006578,149.452312 L77.9914365,149.452312 L70.5211294,141.982004 L70.5211294,119.4296 C71.8391561,119.29606 73.1581756,119.171952 74.478188,119.056283 C91.4506981,117.571952 108.549302,117.571952 125.521812,119.056283 Z M136.03624,120.164319 C137.912752,120.397146 139.78579,120.651815 141.657338,120.920881 C148.568663,121.916227 155.443252,123.163264 162.266708,124.657028 C164.144213,125.067577 166.018244,125.495501 167.887806,125.944276 L167.887806,157.890661 L137.915234,187.861247 L62.0822836,187.861247 L32.1121936,157.890164 L32.1121936,125.944276 C33.9812597,125.495501 35.8552901,125.067577 37.7327955,124.657028 C44.5562519,123.163264 51.4313373,121.916227 58.3426621,120.920881 C60.2137139,120.651815 62.0872479,120.397146 63.963264,120.164319 L63.963264,144.697983 L75.2744648,156.010177 L124.723549,156.010177 L136.03624,144.69699 L136.03624,120.164319 Z M3.90493329,128.760534 C3.90493329,130.596835 3.90493329,132.433137 3.90493329,134.269935 C9.74148309,132.208253 15.6430655,130.343655 21.5962768,128.672665 C22.9123177,128.302823 24.2338194,127.954825 25.5543283,127.604344 L25.5543283,160.606143 L59.3672975,194.418616 L140.630717,194.418616 L174.445175,160.608129 L174.445175,127.604344 C175.766181,127.954825 177.087682,128.302823 178.403227,128.672665 C184.356438,130.343655 190.25802,132.208253 196.09457,134.269935 C196.09457,132.433137 196.09457,130.596835 196.09457,128.760037 C134.471486,106.823705 65.5280174,106.823705 3.90493329,128.760534 L3.90493329,128.760534 Z" id="Fill-11" fill="#1A1919"></path>
            <path d="M167.887806,78.7872169 C166.018244,78.3384424 164.144213,77.9110146 162.266708,77.499969 C155.443252,76.0067018 148.568663,74.7591685 141.657338,73.764319 C139.78579,73.4947564 137.912752,73.2400869 136.03624,73.0072603 L136.03624,53.6791809 L124.723549,42.3664908 L75.2744648,42.3664908 L63.963264,53.678188 L63.963264,73.0072603 C62.0872479,73.2400869 60.2137139,73.4947564 58.3426621,73.764319 C51.4313373,74.7591685 44.5562519,76.0067018 37.7327955,77.499969 C35.8552901,77.9110146 33.9812597,78.3384424 32.1121936,78.7872169 L32.1121936,40.4865033 L62.0822836,10.5154204 L137.915234,10.5154204 L167.887806,40.4855104 L167.887806,78.7872169 Z M129.478871,72.2725411 C128.160844,72.1390009 126.841328,72.014893 125.521812,71.8992243 C108.549302,70.414893 91.4506981,70.414893 74.478188,71.8992243 C73.1581756,72.014893 71.8391561,72.1390009 70.5211294,72.2725411 L70.5211294,56.3946634 L77.9914365,48.9238598 L122.006578,48.9238598 L129.478871,56.3956562 L129.478871,72.2725411 Z M178.403227,81.5156066 C177.087682,81.1462612 175.766181,80.7977661 174.445175,80.4472851 L174.445175,37.7690351 L140.630717,3.95755507 L59.3672975,3.95755507 L25.5543283,37.7710208 L25.5543283,80.4477816 C24.2338194,80.7977661 22.9123177,81.1462612 21.5962768,81.5156066 C15.6430655,83.1865963 9.74148309,85.051691 3.90493329,87.1128762 C3.90493329,88.9571207 3.90493329,90.8013652 3.90493329,92.6451132 C65.5280174,70.7087806 134.471486,70.7082842 196.09457,92.6451132 C196.09457,90.8013652 196.09457,88.9571207 196.09457,87.1128762 C190.25802,85.051691 184.356438,83.1865963 178.403227,81.5156066 L178.403227,81.5156066 Z" id="Fill-12" fill="#1A1919"></path>
            <path d="M42.4235805,97.0737822 L42.4235805,92.4500155 C41.4232702,91.6433137 40.4214707,90.8405833 39.417189,90.0433137 C36.0970524,90.6956252 32.7997518,91.4089978 29.6081911,92.1660565 C28.585045,93.4329507 27.5628917,94.705802 26.5422277,95.9841142 L26.5422277,111.768663 C27.5197021,112.500403 28.4946944,113.237605 29.4706795,113.97977 C32.6652187,113.222712 35.9714552,112.50785 39.3030096,111.853056 C40.342538,110.621409 41.3835557,109.394725 42.4235805,108.17251 L42.4235805,103.655973 C40.4800496,104.015389 38.5399938,104.395656 36.6461061,104.78883 L36.6461061,108.368601 L36.3159789,108.437108 C35.1513497,108.68036 33.9872169,108.932051 32.8240769,109.191685 L32.3192057,109.303878 L32.3192057,95.5556935 L32.6433757,95.4837108 C33.81148,95.2230841 34.9785914,94.9708967 36.1481849,94.7276451 L36.6461061,94.6233944 L36.6461061,98.2031648 C38.5414831,97.8109836 40.4810425,97.4317096 42.4235805,97.0737822" id="Fill-13" fill="#1A1919"></path>
            <path d="M62.1756128,94.1334161 L62.1756128,89.5240459 C61.1673596,88.6399007 60.1566243,87.7612163 59.1473782,86.8860068 C55.8401489,87.3015203 52.5428483,87.7706485 49.3423518,88.280484 C48.3251629,89.4605026 47.3094632,90.6444927 46.2952529,91.8329507 L46.2952529,107.623456 C47.2806702,108.44108 48.2641018,109.262675 49.2480298,110.088241 C52.479305,109.57493 55.7830593,109.105306 59.0739063,108.692771 C60.1074775,107.541049 61.1405523,106.392305 62.1756128,105.249519 L62.1756128,100.706671 C60.2648464,100.927087 58.325287,101.170338 56.3981384,101.429476 L56.3981384,105.00875 L56.0397146,105.057896 C54.8755818,105.216755 53.7109525,105.381074 52.5478126,105.553335 L52.0727273,105.623332 L52.0727273,91.8870617 L52.4256904,91.8349364 C53.594291,91.6621781 54.760906,91.4963698 55.9280174,91.3380081 L56.3981384,91.2744648 L56.3981384,94.8537388 C58.3262799,94.5950977 60.2663357,94.3538318 62.1756128,94.1334161" id="Fill-14" fill="#1A1919"></path>
            <path d="M16.7585479,113.365684 L16.4636674,113.454049 C15.2990382,113.805026 14.1349054,114.165932 12.9717654,114.538256 L12.4316475,114.711511 L12.4316475,100.94198 L12.7200745,100.849643 C13.8881787,100.476326 15.0552901,100.113931 16.2243872,99.7619609 L16.7585479,99.6016134 L16.7585479,113.365684 Z M22.5355259,112.625504 L22.5355259,96.9084704 C21.5456407,96.1936084 20.5537698,95.4842073 19.5599131,94.7812597 C16.2015513,95.7388768 12.9007757,96.7664908 9.74197952,97.8377909 C8.71089047,99.2203537 7.68129072,100.60937 6.65417313,102.007819 L6.65417313,117.782935 C7.61923674,118.401489 8.58231461,119.027986 9.54588892,119.662426 C12.7151101,118.588148 16.0263109,117.558052 19.3946013,116.599442 C20.4410797,115.268011 21.4880546,113.943531 22.5355259,112.625504 L22.5355259,112.625504 Z" id="Fill-15" fill="#1A1919"></path>
            <path d="M65.1522184,104.359417 L65.1522184,107.990816 C68.1253491,107.677567 71.1570586,107.401055 74.1733788,107.167732 L74.1733788,103.53385 L72.5351536,103.663419 L72.5351536,89.0981074 L74.1733788,88.9680422 L74.1733788,85.3664288 C71.150605,85.6002482 68.1188954,85.8777536 65.1522184,86.191995 L65.1522184,89.7916227 L66.7909401,89.6213466 L66.7909401,104.189637 L65.1522184,104.359417" id="Fill-16" fill="#1A1919"></path>
            <path d="M84.2102389,88.9824387 L84.6053987,88.9650636 C85.8052746,88.9094632 87.0081291,88.8613093 88.2089978,88.8201055 L88.6374186,88.8052125 L88.6374186,102.129941 L88.2372944,102.143841 C87.0399007,102.185541 85.8410177,102.234192 84.643624,102.288303 L84.2102389,102.307664 L84.2102389,88.9824387 Z M77.1286379,103.318399 L77.1286379,106.95377 C81.8382873,106.632578 86.6263729,106.40968 91.3717654,106.289047 C92.3859758,105.260441 93.4001862,104.235309 94.414893,103.214645 L94.414893,87.4221533 C93.4066398,86.4392181 92.3973937,85.4602544 91.3866584,84.4847657 C86.6228979,84.6063916 81.8278622,84.8307788 77.1286379,85.1514738 L77.1286379,88.7530872 L78.4342538,88.6662116 L78.4342538,103.231027 L77.1286379,103.318399 L77.1286379,103.318399 Z" id="Fill-17" fill="#1A1919"></path>
            <path d="M97.9405523,102.548433 L97.9405523,106.18579 C98.6181818,106.181322 99.2968042,106.179336 99.9769159,106.179336 C104.494446,106.179336 109.049209,106.269687 113.55135,106.449891 L113.55135,100.003227 C112.028297,99.9421657 110.504251,99.8915296 108.980205,99.8508222 L108.980205,102.660627 L108.555756,102.649705 C107.502327,102.622898 106.448402,102.601551 105.394477,102.584673 L104.98641,102.578715 L104.98641,97.0156997 L105.407384,97.0226497 C106.956748,97.0474713 108.505119,97.082718 110.052994,97.1283897 L110.052994,93.0541731 C108.500155,93.0075085 106.947813,92.9727583 105.394477,92.9479367 L104.98641,92.9414831 L104.98641,88.014893 L105.407384,88.021843 C106.441948,88.0382253 107.47552,88.0600683 108.508594,88.0853863 L108.913186,88.0953149 L108.913186,90.471238 C110.437232,90.5109525 111.961278,90.5615886 113.485324,90.6221533 L113.485324,84.643624 C108.334843,84.439094 103.100465,84.3462612 97.9405523,84.3820043 L97.9405523,87.9856035 L99.2104251,87.9791499 L99.2104251,102.542972 L97.9405523,102.548433" id="Fill-18" fill="#1A1919"></path>
            <path d="M116.640149,102.951536 L116.640149,106.587403 C118.76041,106.692647 120.897052,106.818244 123.003413,106.961713 L123.003413,95.1143655 L123.799193,97.017189 C125.23686,100.45498 126.674527,103.899721 128.109215,107.352405 C130.037853,107.514738 131.965994,107.694943 133.893143,107.892026 L133.893143,89.6913435 L134.996215,89.8070121 L134.996215,86.2078809 C132.956376,85.9909401 130.876823,85.7903816 128.802234,85.6101769 L128.802234,97.4744027 L128.006454,95.57009 C126.558858,92.1084704 125.112256,88.6542972 123.663171,85.2060813 C121.33292,85.0417623 118.973875,84.8997828 116.640149,84.7846106 L116.640149,88.3882097 L117.912504,88.4527459 L117.912504,103.016568 L116.640149,102.951536" id="Fill-19" fill="#1A1919"></path>
            <path d="M155.739621,95.9056779 L155.739621,89.1373255 C149.968601,88.1107043 143.988086,87.2359913 137.951474,86.5355259 L137.951474,93.3113249 C139.252125,93.4622401 140.55377,93.6210984 141.853925,93.7878995 L141.853925,91.0118523 L143.973193,91.2923363 L143.973193,105.45951 L143.504065,105.396463 C142.902886,105.316041 142.30121,105.237108 141.700031,105.159665 L141.700031,108.791064 C145.147254,109.232392 148.594974,109.733788 151.959293,110.283835 L151.959293,106.6574 C151.328824,106.554142 150.698356,106.452374 150.066894,106.353087 L149.71691,106.29848 L149.71691,92.1268383 L151.836177,92.464412 L151.836177,95.2409556 C153.137822,95.4534285 154.439466,95.6748371 155.739621,95.9056779" id="Fill-20" fill="#1A1919"></path>
            <path d="M178.402234,112.380267 L178.402234,115.986348 C183.59094,117.405647 188.613342,118.979336 193.345827,120.66919 L193.345827,112.36587 C191.89426,111.84412 190.404468,111.33081 188.906733,110.833881 L188.906733,115.550481 L188.364133,115.372262 C187.500838,115.089296 186.63655,114.812287 185.773751,114.541731 L185.482346,114.450884 L185.482346,99.8493329 L186.019981,100.01663 C186.545206,100.180453 187.068942,100.347254 187.591188,100.515545 L187.591188,96.9546385 C184.626993,95.9955321 181.539684,95.0746509 178.402234,94.2128452 L178.402234,97.786162 L179.706361,98.1465715 L179.706361,112.740676 L178.402234,112.380267" id="Fill-21" fill="#1A1919"></path>
            <path d="M167.390878,103.685262 C166.523612,103.490661 165.656841,103.301024 164.788582,103.116351 L164.40484,103.03444 L165.712938,94.811542 L166.803599,95.0528079 L167.969221,103.815327 L167.390878,103.685262 Z M168.030282,113.400931 C170.531803,113.966863 173.022898,114.571021 175.446975,115.199504 L175.446975,111.589947 L174.567298,111.361092 L171.272479,92.3765436 C168.124108,91.6184921 164.881415,90.9031337 161.622339,90.2498294 L158.376171,107.784797 L157.525783,107.627428 L157.525783,111.250884 C159.846603,111.678312 162.168911,112.137512 164.440583,112.616568 L164.440583,108.99758 L163.550481,108.808936 L163.917841,106.316848 L164.348743,106.407695 C165.616134,106.675271 166.882532,106.951288 168.148433,107.238225 L168.430406,107.302761 L168.767484,109.951722 L168.030282,109.784424 L168.030282,113.400931 L168.030282,113.400931 Z" id="Fill-22" fill="#1A1919"></path>
            <path d="M141.657338,147.025256 L127.050822,161.630779 L72.9471921,161.630779 L58.3426621,147.026249 L58.3426621,120.920881 C51.4313373,121.916227 44.5562519,123.163264 37.7327955,124.657028 L37.7327955,155.561899 L64.4095563,182.240149 L135.587962,182.240149 L162.266708,155.562395 L162.266708,124.657028 C155.443252,123.163264 148.568663,121.916227 141.657338,120.920881 L141.657338,147.025256" id="Fill-23" fill="#E26030"></path>
            <path d="M58.3426621,51.3509153 L72.9471921,36.7453925 L127.050822,36.7453925 L141.657338,51.3509153 L141.657338,73.764319 C148.568663,74.7591685 155.443252,76.0067018 162.266708,77.499969 L162.266708,42.813776 L135.587962,16.1360223 L64.4095563,16.1360223 L37.7327955,42.8147688 L37.7327955,77.499969 C44.5562519,76.0067018 51.4313373,74.7591685 58.3426621,73.764319 L58.3426621,51.3509153" id="Fill-24" fill="#E26030"></path>
            <path d="M29.4706795,113.97977 C28.4946944,113.237605 27.5197021,112.500403 26.5422277,111.768663 L26.5422277,95.9841142 C27.5628917,94.705802 28.585045,93.4329507 29.6081911,92.1660565 C32.7997518,91.4089978 36.0970524,90.6956252 39.417189,90.0433137 C40.4214707,90.8405833 41.4232702,91.6433137 42.4235805,92.4500155 L42.4235805,97.0737822 C40.4810425,97.4317096 38.5414831,97.8109836 36.6461061,98.2031648 L36.6461061,94.6233944 L36.1481849,94.7276451 C34.9785914,94.9708967 33.81148,95.2230841 32.6433757,95.4837108 L32.3192057,95.5556935 L32.3192057,109.303878 L32.8240769,109.191685 C33.9872169,108.932051 35.1513497,108.68036 36.3159789,108.437108 L36.6461061,108.368601 L36.6461061,104.78883 C38.5399938,104.395656 40.4800496,104.015389 42.4235805,103.655973 L42.4235805,108.17251 C41.3835557,109.394725 40.342538,110.621409 39.3030096,111.853056 C35.9714552,112.50785 32.6652187,113.222712 29.4706795,113.97977 Z M39.7478126,112.609618 L39.8421347,112.498418 C40.943717,111.191809 42.0487744,109.889172 43.1533354,108.593484 L43.2521253,108.477816 L43.2521253,102.662612 L42.7631399,102.75197 C40.5371393,103.159541 38.3116351,103.595408 36.1466956,104.047161 L35.8175613,104.116165 L35.8175613,107.695935 C34.9274589,107.88309 34.0378529,108.075209 33.148247,108.271796 L33.148247,96.2189265 C34.0378529,96.0223394 34.9274589,95.8297239 35.8175613,95.6420726 L35.8175613,99.2208501 L36.3169718,99.1165994 C38.4729755,98.6668321 40.6920261,98.2319578 42.9130624,97.8253801 L43.2521253,97.7633261 L43.2521253,92.0548557 L43.0972386,91.9302513 C41.9936705,91.0391561 40.8891095,90.1545144 39.7820664,89.2763264 L39.6336333,89.1571827 L39.4454856,89.1944151 C36.0042197,89.8680732 32.5838039,90.6077567 29.2800496,91.3941049 L29.1430344,91.4263729 L29.0541731,91.5360844 C27.9684766,92.8779398 26.8867515,94.2267453 25.8050264,95.5810115 L25.7131865,95.694198 L25.7131865,112.183183 L25.8799876,112.307788 C26.9627056,113.116475 28.0434378,113.933602 29.1251629,114.757183 L29.2800496,114.87583 L29.4706795,114.830158 C32.7590444,114.048278 36.1685386,113.31058 39.6053366,112.637419 L39.7478126,112.609618 L39.7478126,112.609618 Z" id="Fill-25" fill="#E26030"></path>
            <path d="M52.4256904,91.8349364 L52.0727273,91.8870617 L52.0727273,105.623332 L52.5478126,105.553335 C53.7109525,105.381074 54.8755818,105.216755 56.0397146,105.057896 L56.3981384,105.00875 L56.3981384,101.429476 C58.325287,101.170338 60.2648464,100.927087 62.1756128,100.706671 L62.1756128,105.249519 C61.1405523,106.392305 60.1074775,107.541049 59.0739063,108.692771 C55.7830593,109.105306 52.479305,109.57493 49.2480298,110.088241 C48.2641018,109.262675 47.2806702,108.44108 46.2952529,107.623456 L46.2952529,91.8329507 C47.3094632,90.6444927 48.3251629,89.4605026 49.3423518,88.280484 C52.5428483,87.7706485 55.8401489,87.3015203 59.1473782,86.8860068 C60.1566243,87.7612163 61.1673596,88.6399007 62.1756128,89.5240459 L62.1756128,94.1334161 C60.2663357,94.3538318 58.3262799,94.5950977 56.3981384,94.8537388 L56.3981384,91.2744648 L55.9280174,91.3380081 C54.760906,91.4963698 53.594291,91.6621781 52.4256904,91.8349364 Z M56.0397146,95.7373875 C58.2399007,95.4385355 60.4594477,95.1615265 62.636798,94.913807 L63.0041576,94.8716103 L63.0041576,89.1492398 L62.863171,89.0256283 C61.7596029,88.058579 60.6550419,87.0969904 59.5494881,86.1398697 L59.4094943,86.0192367 L59.2278002,86.0420726 C55.7979522,86.4704933 52.3775365,86.9569966 49.0623643,87.4871859 L48.9124418,87.511511 L48.8131554,87.6256904 C47.7304375,88.8826559 46.6472231,90.1450822 45.565498,91.4119764 L45.466708,91.5281415 L45.466708,108.012659 L45.6166305,108.136271 C46.6993484,109.033323 47.7800807,109.936333 48.8618058,110.84381 L49.0067639,110.965436 L49.191933,110.93565 C52.5239839,110.403475 55.9339746,109.918461 59.3295687,109.494508 L59.4829662,109.475644 L59.586224,109.360472 C60.6892957,108.131306 61.7928638,106.906112 62.8959355,105.686876 L63.0041576,105.568725 L63.0041576,99.7788396 L62.542476,99.8314614 C60.3601613,100.08067 58.1346572,100.358672 55.9280174,100.65802 L55.5695935,100.706174 L55.5695935,104.286938 C54.6794912,104.40906 53.7908781,104.535154 52.9012721,104.665219 L52.9012721,92.6014272 C53.7898852,92.4703692 54.6794912,92.3442755 55.5695935,92.2221533 L55.5695935,95.8009308 L56.0397146,95.7373875 L56.0397146,95.7373875 Z" id="Fill-26" fill="#E26030"></path>
            <path d="M22.5355259,112.625504 C21.4880546,113.943531 20.4410797,115.268011 19.3946013,116.599442 C16.0263109,117.558052 12.7151101,118.588148 9.54588892,119.662426 C8.58231461,119.027986 7.61923674,118.401489 6.65417313,117.782935 L6.65417313,102.007819 C7.68129072,100.60937 8.71089047,99.2203537 9.74197952,97.8377909 C12.9007757,96.7664908 16.2015513,95.7388768 19.5599131,94.7812597 C20.5537698,95.4842073 21.5456407,96.1936084 22.5355259,96.9084704 L22.5355259,112.625504 Z M19.8766367,93.9914365 L19.7147999,93.8777536 L19.52417,93.9318647 C16.0441824,94.9192678 12.6222774,95.9841142 9.35426621,97.0961216 L9.23363326,97.1373255 L9.15569345,97.2405833 C8.07148619,98.6941359 6.98727893,100.155631 5.90704313,101.627552 L5.8256283,101.737263 L5.8256283,118.235681 L6.01725101,118.3583 C7.09897611,119.050326 8.17970835,119.752777 9.25994415,120.465157 L9.42922743,120.576357 L9.62134657,120.510828 C12.8749612,119.403785 16.2829662,118.343407 19.750543,117.358982 L19.8801117,117.322743 L19.9630158,117.216506 C21.0660875,115.812597 22.1681663,114.41663 23.2742166,113.027118 L23.3645672,112.913931 L23.3645672,96.4855104 L23.1928017,96.3614024 C22.0882408,95.5636364 20.9836798,94.7738132 19.8766367,93.9914365 L19.8766367,93.9914365 Z" id="Fill-27" fill="#E26030"></path>
            <path d="M15.9295067,112.750605 C15.0399007,113.020664 14.1502948,113.295687 13.2601924,113.578157 L13.2601924,101.546137 C14.1502948,101.262675 15.0399007,100.985666 15.9295067,100.715607 L15.9295067,112.750605 Z M12.7200745,100.849643 L12.4316475,100.94198 L12.4316475,114.711511 L12.9717654,114.538256 C14.1349054,114.165932 15.2990382,113.805026 16.4636674,113.454049 L16.7585479,113.365684 L16.7585479,99.6016134 L16.2243872,99.7619609 C15.0552901,100.113931 13.8881787,100.476326 12.7200745,100.849643 L12.7200745,100.849643 Z" id="Fill-28" fill="#E26030"></path>
            <path d="M74.1733788,103.53385 L74.1733788,107.167732 C71.1570586,107.401055 68.1253491,107.677567 65.1522184,107.990816 L65.1522184,104.359417 L66.7909401,104.189637 L66.7909401,89.6213466 L65.1522184,89.7916227 L65.1522184,86.191995 C68.1188954,85.8777536 71.150605,85.6002482 74.1733788,85.3664288 L74.1733788,88.9680422 L72.5351536,89.0981074 L72.5351536,103.663419 L74.1733788,103.53385 Z M75.0024201,89.7340366 L75.0024201,84.4733478 L74.5561278,84.5071052 C71.2513807,84.7582997 67.9337263,85.062116 64.6935154,85.4091219 L64.3236736,85.4483401 L64.3236736,90.7120074 L65.9618989,90.5392491 L65.9618989,103.442011 L64.3236736,103.614272 L64.3236736,108.911201 L64.7823767,108.862054 C68.0201055,108.516537 71.3298169,108.21421 74.6196711,107.963512 L75.0024201,107.934223 L75.0024201,102.640273 L73.3636984,102.76736 L73.3636984,89.862116 L75.0024201,89.7340366 L75.0024201,89.7340366 Z" id="Fill-29" fill="#E26030"></path>
            <path d="M77.1286379,88.7530872 L77.1286379,85.1514738 C81.8278622,84.8307788 86.6228979,84.6063916 91.3866584,84.4847657 C92.3973937,85.4602544 93.4066398,86.4392181 94.414893,87.4221533 L94.414893,103.214645 C93.4001862,104.235309 92.3859758,105.260441 91.3717654,106.289047 C86.6263729,106.40968 81.8382873,106.632578 77.1286379,106.95377 L77.1286379,103.318399 L78.4342538,103.231027 L78.4342538,88.6662116 L77.1286379,88.7530872 Z M76.3000931,102.544958 L76.3000931,107.840397 L76.7434068,107.809618 C81.6372324,107.469563 86.6228979,107.235247 91.5599131,107.112132 L91.7262178,107.107664 L91.8443686,106.98852 C92.9365188,105.88098 94.0296618,104.776419 95.1228048,103.676823 L95.2434378,103.555197 L95.2434378,87.0741545 L95.1178405,86.9520323 C94.0256904,85.886193 92.931058,84.825318 91.8369221,83.7694074 L91.7123177,83.648278 L91.5395594,83.6527459 C86.5757369,83.7773503 81.5791499,84.012659 76.6853242,84.3522184 L76.3000931,84.3795222 L76.3000931,89.6397146 L77.6052125,89.5508532 L77.6052125,102.456593 L76.3000931,102.544958 L76.3000931,102.544958 Z" id="Fill-30" fill="#E26030"></path>
            <path d="M85.0387837,89.7732547 C85.9616506,89.7325473 86.8860068,89.6953149 87.8088737,89.662054 L87.8088737,101.330686 C86.8860068,101.363947 85.9616506,101.401675 85.0387837,101.441886 L85.0387837,89.7732547 Z M88.2372944,102.143841 L88.6374186,102.129941 L88.6374186,88.8052125 L88.2089978,88.8201055 C87.0081291,88.8613093 85.8052746,88.9094632 84.6053987,88.9650636 L84.2102389,88.9824387 L84.2102389,102.307664 L84.643624,102.288303 C85.8410177,102.234192 87.0399007,102.185541 88.2372944,102.143841 L88.2372944,102.143841 Z" id="Fill-31" fill="#E26030"></path>
            <path d="M97.9405523,87.9856035 L97.9405523,84.3820043 C103.100465,84.3462612 108.334843,84.439094 113.485324,84.643624 L113.485324,90.6221533 C111.961278,90.5615886 110.437232,90.5109525 108.913186,90.471238 L108.913186,88.0953149 L108.508594,88.0853863 C107.47552,88.0600683 106.441948,88.0382253 105.407384,88.021843 L104.98641,88.014893 L104.98641,92.9414831 L105.394477,92.9479367 C106.947813,92.9727583 108.500155,93.0075085 110.052994,93.0541731 L110.052994,97.1283897 C108.505119,97.082718 106.956748,97.0474713 105.407384,97.0226497 L104.98641,97.0156997 L104.98641,102.578715 L105.394477,102.584673 C106.448402,102.601551 107.502327,102.622898 108.555756,102.649705 L108.980205,102.660627 L108.980205,99.8508222 C110.504251,99.8915296 112.028297,99.9421657 113.55135,100.003227 L113.55135,106.449891 C109.049209,106.269687 104.494446,106.179336 99.9769159,106.179336 C99.2968042,106.179336 98.6181818,106.181322 97.9405523,106.18579 L97.9405523,102.548433 L99.2104251,102.542972 L99.2104251,87.9791499 L97.9405523,87.9856035 Z M97.1120074,101.725349 L97.1120074,107.019299 L97.5290102,107.015824 C102.981818,106.979584 108.502637,107.069935 113.948992,107.294322 L114.379895,107.311697 L114.379895,99.2089358 L113.982253,99.1920571 C112.182191,99.1180887 110.378653,99.0580205 108.576109,99.0123487 L108.15166,99.0014272 L108.15166,101.812225 C107.373751,101.792864 106.59336,101.776978 105.815451,101.763574 L105.815451,97.8571517 C107.362333,97.8834626 108.907726,97.9211914 110.455104,97.9688489 L110.882035,97.9822526 L110.882035,92.2514428 L110.480422,92.2385355 C108.924604,92.1908781 107.36978,92.1536457 105.815451,92.1273348 L105.815451,88.856345 C106.571517,88.8697487 107.328079,88.8846416 108.084145,88.9030096 L108.084145,91.2784362 L108.488241,91.2883649 C110.285821,91.3335402 112.084393,91.3926156 113.882966,91.4670804 L114.313869,91.4849519 L114.313869,83.8493329 L113.916227,83.8329507 C108.487248,83.6110456 102.965436,83.5192057 97.5240459,83.5569345 L97.1120074,83.5599131 L97.1120074,88.8186162 L98.3818802,88.8111697 L98.3818802,101.718399 L97.1120074,101.725349 L97.1120074,101.725349 Z" id="Fill-32" fill="#E26030"></path>
            <path d="M116.640149,88.3882097 L116.640149,84.7846106 C118.973875,84.8997828 121.33292,85.0417623 123.663171,85.2060813 C125.112256,88.6542972 126.558858,92.1084704 128.006454,95.57009 L128.802234,97.4744027 L128.802234,85.6101769 C130.876823,85.7903816 132.956376,85.9909401 134.996215,86.2078809 L134.996215,89.8070121 L133.893143,89.6913435 L133.893143,107.892026 C131.965994,107.694943 130.037853,107.514738 128.109215,107.352405 C126.674527,103.899721 125.23686,100.45498 123.799193,97.017189 L123.003413,95.1143655 L123.003413,106.961713 C120.897052,106.818244 118.76041,106.692647 116.640149,106.587403 L116.640149,102.951536 L117.912504,103.016568 L117.912504,88.4527459 L116.640149,88.3882097 Z M115.811604,102.08278 L115.811604,107.375737 L116.205275,107.394601 C118.599069,107.51027 121.015203,107.652746 123.388644,107.818554 L123.831958,107.849333 L123.831958,99.2407074 C125.035805,102.122991 126.239652,105.010239 127.441018,107.902451 L127.537325,108.135278 L127.789016,108.156128 C129.948992,108.335836 132.10847,108.53838 134.263978,108.762271 L134.721688,108.809432 L134.721688,90.6102389 L135.825256,90.7278933 L135.825256,85.4642259 L135.455414,85.4250078 C133.143034,85.1757989 130.777536,84.9479367 128.423456,84.7473782 L127.973193,84.709153 L127.973193,93.3475644 C126.759417,90.4444307 125.544151,87.5457648 124.327893,84.6515669 L124.230096,84.4167546 L123.975923,84.398883 C121.413342,84.2161961 118.812535,84.0603165 116.245982,83.9372014 L115.811604,83.9158548 L115.811604,89.1765436 L117.083959,89.2385976 L117.083959,102.145827 L115.811604,102.08278 L115.811604,102.08278 Z" id="Fill-33" fill="#E26030"></path>
            <path d="M149.71691,92.1268383 L149.71691,106.29848 L150.066894,106.353087 C150.698356,106.452374 151.328824,106.554142 151.959293,106.6574 L151.959293,110.283835 C148.594974,109.733788 145.147254,109.232392 141.700031,108.791064 L141.700031,105.159665 C142.30121,105.237108 142.902886,105.316041 143.504065,105.396463 L143.973193,105.45951 L143.973193,91.2923363 L141.853925,91.0118523 L141.853925,93.7878995 C140.55377,93.6210984 139.252125,93.4622401 137.951474,93.3113249 L137.951474,86.5355259 C143.988086,87.2359913 149.968601,88.1107043 155.739621,89.1373255 L155.739621,95.9056779 C154.439466,95.6748371 153.137822,95.4534285 151.836177,95.2409556 L151.836177,92.464412 L149.71691,92.1268383 Z M151.355631,96.0019857 C152.931803,96.2566553 154.506485,96.5252249 156.081663,96.8071983 L156.568663,96.8940738 L156.568663,88.4443065 L156.226621,88.3832454 C150.187527,87.3015203 143.914614,86.385107 137.584114,85.6608129 L137.122929,85.6076947 L137.122929,94.0500155 L137.490289,94.0917158 C139.064971,94.2719206 140.641142,94.4645361 142.214831,94.6695625 L142.682966,94.7301272 L142.682966,91.9550729 L143.144151,92.0166305 L143.144151,104.513807 C142.542972,104.433881 141.940304,104.355445 141.338132,104.279491 L140.871486,104.219919 L140.871486,109.520323 L141.233881,109.565994 C144.955631,110.038101 148.681353,110.580701 152.306298,111.179398 L152.788334,111.25982 L152.788334,105.955445 L152.441328,105.897859 C151.80937,105.793608 151.177412,105.690847 150.545951,105.591064 L150.545951,93.0958734 L151.007136,93.1698418 L151.007136,95.9453925 L151.355631,96.0019857 L151.355631,96.0019857 Z" id="Fill-34" fill="#E26030"></path>
            <path d="M193.345827,120.66919 C188.613342,118.979336 183.59094,117.405647 178.402234,115.986348 L178.402234,112.380267 L179.706361,112.740676 L179.706361,98.1465715 L178.402234,97.786162 L178.402234,94.2128452 C181.539684,95.0746509 184.626993,95.9955321 187.591188,96.9546385 L187.591188,100.515545 C187.068942,100.347254 186.545206,100.180453 186.019981,100.01663 L185.482346,99.8493329 L185.482346,114.450884 L185.773751,114.541731 C186.63655,114.812287 187.500838,115.089296 188.364133,115.372262 L188.906733,115.550481 L188.906733,110.833881 C190.404468,111.33081 191.89426,111.84412 193.345827,112.36587 L193.345827,120.66919 Z M193.899845,111.686255 C192.180205,111.065219 190.404468,110.453615 188.622277,109.868321 L188.078188,109.690599 L188.078188,114.408688 C187.48942,114.217561 186.899659,114.028917 186.311387,113.843252 L186.311387,100.975737 C186.833633,101.141049 187.356376,101.30785 187.877133,101.478126 L188.42023,101.654856 L188.42023,96.3534595 L188.134285,96.2606267 C184.905492,95.2106733 181.528266,94.2044058 178.095935,93.2716103 L177.573689,93.1291343 L177.573689,98.4181198 L178.877816,98.7760472 L178.877816,111.652498 L177.573689,111.295067 L177.573689,116.618802 L177.879988,116.70121 C183.35861,118.191499 188.654049,119.855538 193.620354,121.645672 L194.174372,121.84623 L194.174372,111.784549 L193.899845,111.686255 L193.899845,111.686255 Z" id="Fill-35" fill="#E26030"></path>
            <path d="M175.446975,115.199504 C173.022898,114.571021 170.531803,113.966863 168.030282,113.400931 L168.030282,109.784424 L168.767484,109.951722 L168.430406,107.302761 L168.148433,107.238225 C166.882532,106.951288 165.616134,106.675271 164.348743,106.407695 L163.917841,106.316848 L163.550481,108.808936 L164.440583,108.99758 L164.440583,112.616568 C162.168911,112.137512 159.846603,111.678312 157.525783,111.250884 L157.525783,107.627428 L158.376171,107.784797 L161.622339,90.2498294 C164.881415,90.9031337 168.124108,91.6184921 171.272479,92.3765436 L174.567298,111.361092 L175.446975,111.589947 L175.446975,115.199504 Z M171.994787,91.7004034 L171.731679,91.6358672 C168.357927,90.8187403 164.872479,90.051753 161.372138,89.3557555 L160.961589,89.2743407 L157.712442,106.82023 L156.696742,106.634564 L156.696742,111.940428 L157.036302,112.001986 C159.634626,112.477567 162.234936,112.992367 164.768228,113.532485 L165.269128,113.639218 L165.269128,108.326404 L164.483773,108.160596 L164.60937,107.309215 C165.634006,107.527149 166.658641,107.750543 167.683276,107.981384 L167.797456,108.883897 L167.201241,108.750853 L167.201241,114.063171 L167.525411,114.13565 C170.30543,114.760161 173.075023,115.433323 175.757245,116.134781 L176.276016,116.270307 L176.276016,110.950543 L175.292088,110.693888 L171.994787,91.7004034 L171.994787,91.7004034 Z" id="Fill-36" fill="#E26030"></path>
            <path d="M165.345579,102.389078 L166.21632,96.914924 L166.99274,102.747999 C166.443686,102.626869 165.894632,102.506733 165.345579,102.389078 Z M165.712938,94.811542 L164.40484,103.03444 L164.788582,103.116351 C165.656841,103.301024 166.523612,103.490661 167.390878,103.685262 L167.969221,103.815327 L166.803599,95.0528079 L165.712938,94.811542 L165.712938,94.811542 Z" id="Fill-37" fill="#E26030"></path>
        </g>
    </g>
</svg>