<svg width="205" height="200" viewBox="0 0 205 200" fill="none" xmlns="http://www.w3.org/2000/svg">
<path d="M127.603 51.9692H119.499L104.848 131.062L80.731 150.122H26.5981L9.54785 131.126L24.1994 52.034H10.1961L20.2448 29.7974H69.3209L65.1718 52.034H57.1329L44.1021 122.31L49.094 127.95H66.4684L73.5997 122.31L86.6305 52.034H78.5268L82.6759 29.7974H131.687L127.603 51.9692Z" fill="#B21F36" stroke="white" stroke-width="4.5898" stroke-miterlimit="10"/>
<path d="M197.36 68.7603L182.125 151.094L158.008 170.154H95.7713L78.7859 151.094L94.0209 68.7603L118.073 49.7651H180.309L197.36 68.7603ZM162.805 77.5771L157.813 71.9369H132.335L125.204 77.5771L113.211 142.277L118.202 147.917H143.681L150.812 142.277L162.805 77.5771Z" fill="#B21F36" stroke="white" stroke-width="4.5898" stroke-miterlimit="10"/>
<path d="M75.4149 25.1945L16.7439 25L3 56.637L18.3647 56.8314L3.90761 132.293L24.5883 154.724L75.6094 154.465L93.9562 174.692L159.629 174.951L187.052 153.039L203 67.658L181.736 45.0324H133.567L137.327 25.2593L78.1378 25.1945L73.0162 56.248L81.1199 56.1831L68.8023 120.818L63.94 123.865L51.5575 123.736L49.2237 120.624L60.893 55.9887L69.645 56.1831L75.4149 25.1945Z" stroke="#6D6E71" stroke-width="3.0599" stroke-miterlimit="10"/>
<path d="M153.859 76.799L134.864 76.6045L130.844 79.6515L118.592 139.878L120.472 143.055L142.06 142.796L145.626 139.23L157.165 80.2998L153.859 76.799Z" stroke="#6D6E71" stroke-width="3.0599" stroke-miterlimit="10"/>
</svg>
