<?xml version="1.0" encoding="UTF-8"?>
<svg width="200px" height="200px" viewBox="0 0 200 200" version="1.1" xmlns="http://www.w3.org/2000/svg" xmlns:xlink="http://www.w3.org/1999/xlink">
    <!-- Generator: Sketch 54.1 (76490) - https://sketchapp.com -->
    <title>otterbein</title>
    <desc>Created with Sketch.</desc>
    <g id="otterbein" stroke="none" stroke-width="1" fill="none" fill-rule="evenodd">
        <g id="otterbein_BGL">
            <g id="otterbein" transform="translate(32.000000, 0.000000)">
                <g id="g10" transform="translate(67.189248, 100.530502) scale(-1, 1) rotate(-180.000000) translate(-67.189248, -100.530502) translate(0.000000, 0.312196)" fill-rule="nonzero">
                    <g id="g12" transform="translate(0.000000, 0.407208)">
                        <path d="M42.3548803,144.131117 C42.3548803,144.131117 41.4259494,144.027053 41.3195325,143.302676 C41.2635188,142.922163 34.6532732,145.045524 28.8993851,144.850065 C21.0770635,144.584475 18.8142563,142.753398 16.0551988,140.913725 C13.5691514,139.25639 12.6363294,135.42321 12.2224255,133.766327 C11.8086574,132.109445 11.6602076,130.89099 11.2464395,129.440878 C10.831133,127.991219 7.45823276,124.133154 6.00753319,121.647378 C4.55705985,119.161149 1.86477537,113.15348 1.65710856,111.703369 C1.4508534,110.25371 1.13979207,107.870189 1.55353758,106.524141 C1.96764052,105.176737 2.78700548,105.080817 2.78700548,103.940636 C2.78700548,102.800907 0,100.723696 0,96.0620741 C0,91.4009049 0.745841374,88.7726063 1.42416773,87.9052542 C2.60584789,86.3940617 3.17530052,86.0995149 3.69367575,85.9949982 C4.21081578,85.8913865 4.83292035,86.8243443 5.55829276,85.373328 C6.28289599,83.9232167 7.00754448,82.1627226 7.6291242,81.333829 C8.25038721,80.5044829 8.51973239,79.3597772 8.51973239,78.738107 C8.51973239,78.1159843 8.21889649,72.7761358 9.08937052,71.435518 C9.55435632,70.7206425 10.4967251,69.8243334 12.9219629,68.0172368 C13.8498079,67.3263413 16.2881216,65.5314608 17.2202649,65.5314608 C18.152363,65.5314608 18.5666289,66.2047106 19.1884348,65.7902638 C19.8096526,65.3749121 20.9446758,65.4368982 21.7518517,65.246868 C22.6325512,65.040097 22.6843118,64.9360329 25.0148059,65.4025117 C25.7546568,65.5500114 27.4396817,66.2359299 28.4750295,66.7544409 C29.5105131,67.2724994 29.3136509,67.6824216 29.9350496,67.5770001 C30.5566294,67.4747458 32.006424,64.781294 32.7319774,63.9524004 C33.4565807,63.1235067 35.9429448,60.7417949 37.3929204,60.223284 C38.84362,59.7061304 40.2932337,57.8415722 41.0185609,57.1158378 C41.7432093,56.3914608 43.4009966,54.0079392 43.9186931,53.5934924 C44.4368874,53.1799505 45.5760279,54.3183219 46.1976981,53.9047799 C46.8193683,53.4894282 47.7514212,49.5539934 51.8945319,45.2035687 C53.1668294,43.8676112 58.4202594,39.4031684 58.3166477,38.8842503 C58.2139409,38.3674586 57.4226008,37.4024672 56.763377,36.5030362 C55.6236483,34.9493131 53.290349,33.5073006 53.8627018,31.8413692 C55.0015257,28.5266092 59.249153,29.4596122 60.0775942,28.8374895 C60.9064878,28.2162718 61.1042097,28.223511 60.7933746,27.496917 C60.4825395,26.7724947 58.3166477,22.1054888 56.8665363,19.4119918 C55.4159725,16.7186757 53.2410316,13.5074821 53.2410316,13.5074821 C53.2410316,13.5074821 51.160201,14.3422124 49.2960952,15.0672228 C47.4310846,15.7915093 48.3635899,14.7557995 46.8098668,15.1702463 C45.2561437,15.585598 42.8826213,17.029918 40.1896672,17.029918 C37.4961249,17.029918 36.3572559,15.0617481 36.3572559,14.2328093 C36.3572559,12.2646394 37.4972108,11.7460832 36.9788356,11.3325413 C36.461501,10.9180944 33.9647305,10.9235691 33.8616617,8.95539924 C33.7582762,6.988089 35.3121803,5.01869749 37.4873021,4.91580971 C39.6624239,4.8127862 43.2872047,5.74474858 45.0483774,5.22637335 C46.8098668,4.70921974 46.39542,3.67264574 48.3635899,3.36176086 C50.3313073,3.05140536 51.9881897,3.98476581 53.8527479,3.25907669 C55.7173061,2.53461824 57.944279,0.131671018 60.4825395,0.048426594 C63.8062581,-0.0620353576 66.0956695,2.52207172 63.288652,5.22089867 C61.9674897,6.49269838 58.6175288,7.60935201 60.688858,11.8565721 C62.761092,16.1027064 65.3509321,20.3499718 66.076214,21.5933122 C66.800591,22.835793 68.043479,24.389878 68.7683085,24.596649 C69.4944953,24.8034199 69.804878,23.8715028 71.9793664,24.1822022 C74.1552121,24.4927206 74.7764299,25.4246829 76.4337646,27.0833751 C78.0910994,28.7403027 80.2669452,30.9152435 80.8881629,31.640073 C81.5098332,32.366305 82.0369407,33.9127436 82.3477758,32.3593825 C82.6586109,30.8056594 82.6586109,30.0808752 83.2798287,27.0766335 C83.9014989,24.0736587 83.7983397,24.0736587 83.3834404,23.3474719 C82.9689936,22.6226424 81.3116588,21.897813 78.5150478,20.0332548 C77.2020296,19.157849 73.4394317,17.9618352 72.4037671,16.8222422 C71.368555,15.6821062 71.3681026,14.0260383 71.6784852,13.1971447 C71.9893203,12.3691107 72.7146022,12.2646394 72.7146022,11.5393122 C72.7146022,10.814528 72.5073788,11.2280699 72.7146022,10.1924053 C72.9213732,9.1557906 73.5425909,8.84599614 74.4750963,8.84599614 C75.4076016,8.84599614 76.123382,9.68018345 76.7445998,9.88785931 C77.36627,10.0955352 77.9870353,10.5091223 78.1947111,10.1987397 C78.402387,9.88785931 78.5055462,9.26627959 79.3344399,8.74858304 C80.162881,8.23056977 80.1633335,8.02289391 81.5098332,8.43824563 C82.8558804,8.85183278 83.9951567,9.26713925 84.7204386,9.47395545 C85.445268,9.68158606 88.0382753,10.7968371 88.8730508,11.7469881 C91.1520558,14.3363757 89.3911093,18.7898691 92.1877204,22.8294134 C93.367265,24.5333508 96.0204485,25.2120301 96.538507,27.9055724 C96.7927855,29.2316212 96.4348953,31.944076 95.3992307,32.0481402 C94.3626612,32.1517066 92.8098431,31.8404643 92.0845611,31.0133353 C91.3592792,30.1835367 90.6244958,28.7403027 90.1068897,28.8429642 C89.5888312,28.9474356 89.9096203,30.4944171 89.9096203,32.6702629 C89.9096203,34.8452489 90.3231622,38.7829913 89.0802742,39.6099394 C87.8373862,40.4397379 85.6624454,40.4388783 85.6624454,40.4388783 C85.6624454,40.4388783 86.0669382,40.8596594 86.3777734,41.9994786 C86.6886085,43.13785 86.8442522,43.34444 87.5686293,44.1744195 C88.2934587,45.0031321 97.056113,50.9009455 99.1278946,52.2478976 C101.199676,53.5953022 106.171681,57.1683223 107.51818,58.4107579 C108.865132,59.6540983 108.760616,59.5495817 108.967839,59.9649334 C109.175967,60.3793802 109.166466,62.4041067 108.596375,62.0407871 C108.026737,61.6792772 107.198296,64.060989 107.094684,65.2532023 C106.99062,66.4436057 106.887461,68.2054571 106.887461,68.2054571 C106.887461,68.2054571 107.043105,68.7235157 106.628206,68.7746428 C106.213759,68.82577 105.902924,68.4633553 105.281706,67.8421375 C104.660488,67.2200148 103.727983,66.081191 103.261504,65.4083936 C102.79593,64.7342389 102.277871,64.2166328 101.967489,64.4754359 C101.656654,64.7342389 102.597756,65.7382318 103.012202,66.4635137 C103.426649,67.189248 106.663949,72.2906539 106.663949,72.2906539 C106.663949,72.2906539 107.336747,73.3272234 107.129523,74.0000208 C106.922752,74.6741755 106.042279,76.2260888 105.5758,76.9513707 C105.110226,77.6771051 105.032404,78.272533 104.177721,78.4281768 C103.32349,78.5838206 103.15925,77.9933696 103.15925,77.9933696 C103.15925,77.9933696 102.537127,77.1124439 102.226744,76.5952903 C101.915457,76.0767793 101.743525,75.4501322 101.069822,75.0877174 C100.397025,74.7243978 100.034158,75.1397495 99.5681313,75.5532914 C99.1021048,75.9677382 98.4284025,76.6925677 98.1184723,76.8993386 C97.8071848,77.1070145 96.6936983,77.0821296 96.4869274,76.5636186 C96.2792515,76.046465 94.4056443,72.0875026 93.1111767,70.12069 C91.8162566,68.1525202 90.003278,65.0975585 89.6928954,64.6310796 C89.3820603,64.1650532 88.8124221,63.7497015 88.8124221,64.786271 C88.8124221,65.822388 88.5536191,69.3438285 89.020098,69.9650463 C89.485672,70.586264 90.987363,71.0536478 91.7126449,72.0372803 C92.4379268,73.0218177 93.7776397,75.2293352 92.5935706,78.9254225 C91.3592792,82.7785109 87.8808217,83.3268838 87.9319489,84.0530706 C87.9319489,84.0530706 88.8124221,84.7263205 90.987363,87.5745111 C93.1627563,90.4236067 94.4056443,94.1002386 95.0273145,95.4462858 C95.6485322,96.7936904 97.1384595,98.3388169 98.174124,98.4940082 C99.2097886,98.649652 102.17426,98.2442542 104.608456,97.9845463 C107.043105,97.7257433 112.89513,97.6212266 113.361156,97.2597168 C113.827183,96.8968496 113.681493,95.3639394 113.577881,94.4314341 C113.473817,93.4989287 113.396448,93.0075649 114.276921,92.3338627 C115.157847,91.6610653 115.122555,91.3556596 114.708108,89.9571278 C114.293209,88.5585961 113.739407,84.5127627 114.842487,83.9612227 C115.902132,83.4318529 117.19298,84.3639057 117.400655,84.0530706 C117.608331,83.7422355 117.40156,83.2762091 117.297496,82.6545389 C117.193884,82.0328686 117.452687,81.1533003 117.142305,80.7379486 C116.83147,80.3239542 115.24517,80.1474976 113.743479,79.5258274 C112.241788,78.9046097 110.531969,78.2318123 109.703528,77.6105945 C108.875086,76.9884718 108.098677,75.6419722 108.098677,74.8642057 C108.098677,74.0882491 107.995066,72.6892649 108.513577,71.4468293 C109.03073,70.2034889 109.891748,69.0325409 109.839716,68.566967 C109.787684,68.1004881 109.166466,67.7389783 109.062854,67.1177605 C108.95879,66.4956378 108.761068,65.040097 110.003956,63.7456294 C111.247297,62.4507094 110.936462,62.8131241 112.490185,62.1919063 C113.261617,61.8824286 114.345694,61.988755 115.018491,61.7308569 C115.691741,61.4716014 117.090725,60.4359368 118.696028,60.3839047 C120.300878,60.3318727 121.388575,61.4195693 122.062277,61.4195693 C122.735527,61.4195693 122.891171,61.0580595 123.668032,61.0060274 C124.444441,60.9530904 126.775026,61.4204742 128.898387,63.6465422 C131.022201,65.8744201 132.558731,71.0749131 132.145189,74.5434166 C131.730742,78.0146349 129.986084,78.9973625 129.468478,79.3081976 C128.950419,79.6185802 128.588005,79.5665482 128.898387,80.6031176 C129.209222,81.6383298 129.312834,82.965374 129.779313,83.5870442 C130.245339,84.2082619 130.504142,83.4214464 131.436648,83.473931 C132.368701,83.5259631 132.810295,83.0074521 133.09353,83.1124211 C134.334156,83.5716608 133.19126,86.6867987 133.300301,89.058104 C133.401198,91.2380219 134.033727,93.3337835 134.058612,95.1196148 C134.110192,98.8487312 133.817907,100.263099 133.559556,101.765242 C133.301206,103.266933 132.750118,105.106154 131.509945,106.002011 C130.45754,106.762132 129.986084,106.737699 129.312834,107.56614 C128.639584,108.394581 125.688234,113.418618 123.668032,115.282724 C121.64783,117.147734 118.985145,119.213634 116.727406,120.099537 C112.637232,121.705744 110.15779,121.292202 109.528881,122.27493 C109.528881,122.27493 109.537477,128.317438 106.99062,132.37413 C105.115656,135.361676 103.36602,137.86374 95.5974051,138.485411 C87.8283372,139.106628 83.2703272,136.050762 81.3541894,136.569273 C79.4380516,137.086879 77.3142379,139.313399 75.5541963,139.106628 L50.3313073,128.282599 L43.8055799,125.382376 L44.0130748,141.644889 L42.9764601,144.027053 L42.3548803,144.131117" id="path14" fill="#100F0D"></path>
                        <path d="M39.7659904,141.644436 C39.7659904,141.644436 26.0522803,144.025696 19.8877912,140.499278 C14.8125371,137.595888 14.6988809,135.01555 14.1814106,133.358667 C13.6630354,131.700428 13.3522908,128.800205 13.4557215,127.764993 C13.5597857,126.728423 14.0771202,124.347164 14.0771202,124.347164 C14.0771202,124.347164 13.1447959,124.863865 12.5230352,125.382376 C11.9018174,125.900435 11.176988,126.522105 10.5557702,125.590052 C9.93419048,124.657547 8.27721766,121.964095 7.13744369,119.891861 C5.99766972,117.820984 4.34071952,114.298639 3.92679755,113.055751 C3.51163587,111.81241 3.20092745,110.258687 3.20092745,109.326634 C3.20092745,108.394581 3.30520426,107.151241 3.61591268,106.530023 C3.92679755,105.908353 4.54769407,107.462076 5.06534538,107.048082 C5.58353963,106.634087 3.51163587,103.630253 2.78700548,100.625514 C2.06237058,97.622584 1.64721341,93.2722499 2.47629706,90.7864739 C3.30520426,88.300698 4.29529778,88.2590723 4.29529778,88.2590723 C4.29529778,88.2590723 5.99766972,90.2679629 8.17261056,91.9248453 C10.3479134,93.5826325 15.9415427,95.0322914 15.9415427,95.0322914 C15.9415427,95.0322914 15.631341,96.5860145 15.1136897,99.3826256 C14.5953145,102.179237 14.698338,103.214901 14.0771202,103.630253 C13.4557215,104.044247 12.3169882,103.422577 10.8662886,103.733412 C9.41577001,104.044247 8.69116677,105.183976 8.89884263,105.597518 C9.10488966,106.01287 10.5557702,105.287135 11.5911181,105.494359 C12.6276875,105.702035 13.7662399,106.219188 13.7662399,106.219188 C13.7662399,106.219188 13.3522908,113.366133 13.6630354,117.406085 C13.9739157,121.445584 14.5953145,123.310594 15.319963,125.1747 C16.0458331,127.039258 16.4597369,126.936099 16.4597369,126.936099 L16.5631224,126.417588 C16.5631224,126.417588 14.492291,122.378089 14.8028094,114.609474 C15.1136897,106.840406 20.335629,90.4136528 23.0885331,85.3995703 C25.989706,80.1167308 30.5854506,75.1053631 35.6228797,70.0691104 C35.6228797,70.0691104 37.7981825,68.4122281 37.5905066,67.7910103 C37.3830117,67.1697926 36.9689269,67.0657284 35.8293339,67.0657284 C34.6909173,67.0657284 33.7582762,67.0657284 33.7582762,67.0657284 C33.7582762,67.0657284 36.0369645,63.3361596 38.0044557,62.0928192 C39.9733043,60.8503836 45.4624622,59.8147191 53.7491362,60.7472244 C62.0362625,61.6792772 68.2511549,63.1293886 73.7407653,66.7544409 C79.2303757,70.380398 82.6482045,70.380398 84.4096035,70.6903282 C86.1710024,71.0016157 90.2095965,73.0738498 90.0028256,77.1133488 C89.7956022,81.1533003 86.6886085,83.3282412 86.6886085,83.3282412 C86.6886085,83.3282412 84.927662,81.6700015 83.4775506,81.2564596 C82.0269868,80.8420128 80.369652,80.5316301 80.0592693,81.0487837 C79.7479818,81.5672947 84.4096035,84.3639057 86.5849968,87.0573575 C88.7599376,89.7499044 90.1059848,93.1690906 91.8669313,95.1368081 C93.6287827,97.104073 95.4928884,99.1763071 95.4928884,99.1763071 C95.4928884,99.1763071 89.3716539,98.8718063 88.7599376,99.1763071 C88.1482214,99.4812603 87.8278847,100.522354 89.1743844,100.522354 C90.5213365,100.522354 94.6639948,100.625514 97.4610583,100.625514 C100.257217,100.625514 104.40078,100.522354 106.782944,100.211972 C109.166014,99.9011366 111.238248,99.5903014 115.070523,99.5903014 C118.901894,99.5903014 122.259094,101.201486 122.735074,100.833189 C123.211055,100.464893 122.010245,99.0717905 119.523564,98.3474135 C117.037336,97.622584 115.278199,97.5185199 115.070523,97.104073 C114.862847,96.6905311 114.8633,95.0336488 116.002576,94.2047552 C117.141852,93.3749567 116.727406,92.1320687 116.830565,91.4076917 C116.935081,90.6815049 117.037336,88.9219157 116.830565,87.5745111 C116.623794,86.2284639 116.105735,85.2959586 116.727406,84.9855759 C117.348623,84.6742884 119.627176,85.7108579 120.766905,86.1253047 C121.906633,86.5388466 123.460356,87.5745111 125.63575,86.9528409 C127.810691,86.3311707 128.949514,85.7108579 129.77886,85.5036345 C130.607754,85.2959586 131.332131,84.9855759 131.436195,85.5036345 C131.539807,86.0207881 130.889632,88.2608821 131.096856,90.435823 C131.304079,92.6112163 132.027551,95.8684243 131.509945,98.9763229 C130.992339,102.084222 129.77886,104.665465 128.846355,105.597518 C127.91385,106.530023 126.56735,106.94447 125.738909,107.772911 C124.910468,108.601805 123.787027,111.863085 120.626644,114.542511 C115.861411,118.58201 113.532184,118.399219 110.512061,119.270643 C108.462449,119.861999 107.922221,121.342425 107.094232,121.239265 C106.265338,121.134749 106.152678,119.652513 103.338873,117.366269 C98.9306252,113.784652 92.6591763,112.255814 92.3858947,112.744916 C92.1121608,113.233565 98.3804425,115.851004 101.273426,117.848584 C103.870505,119.642107 108.026285,122.27493 105.022903,129.007881 C105.022903,129.007881 103.054733,136.776044 93.9396178,136.361597 C84.8240503,135.947603 74.2588238,132.42571 64.3148151,126.417588 C54.3708064,120.410372 51.3742112,117.88297 44.6346545,112.43408 C40.5261564,109.113077 39.4644758,108.803599 38.4291732,108.803599 C37.3934634,108.803599 34.5691622,117.566253 36.0369645,128.903817 C37.1764218,137.709002 39.7659904,141.644436 39.7659904,141.644436" id="path16" fill="#C79A48"></path>
                        <path d="M41.1120376,141.127283 C42.044,141.230442 40.5949293,130.250769 40.1797585,124.760706 C39.7973001,119.695044 40.5862422,116.059585 41.216328,116.059585 C42.1929927,116.059585 44.9264414,119.116809 49.398802,122.482606 C52.0388644,124.468874 55.4331657,126.296331 59.0319756,128.386663 C68.6651492,133.979885 75.8120944,136.154374 77.5734934,136.361597 C79.3344399,136.569273 79.5421157,136.258438 79.6448225,135.739927 C79.7479818,135.223226 70.9441542,133.66905 60.4825395,126.522105 C50.0204722,119.374707 47.8450789,117.510601 45.1516271,115.335208 C42.4595327,113.160267 39.0410252,109.430246 38.2121316,109.326634 C37.3830117,109.223475 36.6582275,119.374255 37.3830117,125.795918 C38.1090628,132.218939 39.3517246,135.844443 39.7659904,137.398166 C40.1797585,138.951889 40.1797585,141.023219 41.1120376,141.127283" id="path18" fill="#100F0D"></path>
                        <path d="M41.7286856,58.8577813 C41.7286856,58.8577813 56.3095668,56.4529944 65.5540834,60.5870561 C74.7986001,64.7211178 74.0801049,65.026071 77.1287322,66.6006069 C81.7880917,69.0053938 86.1479273,69.981787 86.1479273,69.981787 L86.0728201,64.5709034 C86.0728201,64.5709034 83.2843532,63.1253166 79.4584119,61.0376991 C75.010348,58.6120994 69.1492738,55.4164249 64.5016781,54.1228622 C59.004376,52.5931191 51.4999931,52.5447067 48.8689797,53.3717905 C46.2379664,54.1979694 45.3362279,55.1001604 45.3362279,55.1001604 C45.3362279,55.1001604 44.5847942,55.7019227 43.6829199,56.5290065 C42.7808195,57.3556378 41.7286856,58.8577813 41.7286856,58.8577813" id="path20" fill="#100F0D"></path>
                        <path d="M64.9364853,52.8740924 C64.9364853,52.8740924 64.4179743,50.3883164 62.4502569,46.4524291 C61.0191485,43.5903028 59.6536458,41.1705398 59.6536458,41.1705398 C59.6536458,41.1705398 56.8570348,43.8639011 55.0956358,45.6235355 C53.3355943,47.3849344 50.9525251,50.5950874 50.9525251,50.5950874 C50.9525251,50.5950874 50.6421425,50.9063749 50.8493659,51.4248859 C51.0556844,51.9420395 51.4710361,51.9420395 51.4710361,51.9420395 C51.4710361,51.9420395 55.9245295,51.5275927 58.721593,51.8384278 C61.5177516,52.1497153 64.9364853,52.8740924 64.9364853,52.8740924" id="path22" fill="#E41D25"></path>
                        <path d="M57.2710291,34.2289629 C58.1094243,35.2596957 60.9996931,37.7517155 63.0719271,43.3455259 C65.1437087,48.938205 65.5577031,52.4596455 65.5577031,52.4596455 C65.5577031,52.4596455 65.4540914,53.3921509 66.5933676,53.702986 C67.7330964,54.0142735 73.5330894,56.7077253 76.6409881,58.5713786 C79.7479818,60.4359368 85.6529439,63.5438354 86.4813851,63.5438354 C87.3098262,63.5438354 87.206667,61.4716014 87.206667,59.0885322 C87.206667,56.7077253 86.8953794,47.5926103 84.0987684,42.2052089 C81.3017048,36.8201151 81.7166041,36.4056683 80.162881,33.8153758 C78.6091579,31.2264858 76.7445998,30.0863499 75.1908767,28.5329888 C73.6371536,26.9792657 71.8757546,25.3225191 70.529255,25.3225191 C69.1836602,25.3225191 68.1475432,25.8399894 68.8723726,26.357143 C69.5976546,26.8756992 71.3581486,28.0140706 71.3581486,28.0140706 C71.3581486,28.0140706 70.6328667,27.8063947 68.9759843,27.7031902 C67.319102,27.6005287 67.1114262,28.0140706 66.5933676,28.3253129 C66.076214,28.6361933 65.1437087,29.1542065 63.3823098,29.1542065 C61.6213633,29.1542065 62.0362625,30.0863499 60.4825395,30.3966873 C58.9288164,30.7075676 57.5918182,30.0799703 56.970148,31.2201515 C56.3484778,32.3599254 56.4321816,33.1987278 57.2710291,34.2289629" id="path24" fill="#E51B24"></path>
                        <path d="M89.5888312,48.6282748 C89.5888312,48.6282748 90.5213365,51.5275927 90.210049,55.4643849 C89.9001188,59.3993673 89.3820603,60.5395485 89.5888312,61.4716014 C89.7956022,62.4041067 90.6244958,63.2330003 90.6244958,63.2330003 C90.6244958,63.2330003 93.4211069,67.5824296 94.3536122,69.3438285 C95.285665,71.104775 96.643476,74.4126578 96.643476,74.4126578 C96.643476,74.4126578 96.788261,75.3057997 97.5135429,75.3057997 C98.2392772,75.3057997 99.2292441,74.0131419 99.2292441,74.0131419 L100.050446,72.9693332 C100.050446,72.9693332 99.4283233,71.2083867 97.1497708,68.2054571 C94.8716707,65.2007178 94.0427771,63.9573773 94.0427771,63.9573773 C94.0427771,63.9573773 93.7328469,63.4388664 94.2500005,63.1284837 C94.768059,62.8176486 95.0779892,63.1284837 95.5965001,63.8542181 C96.1150111,64.5785951 98.289952,67.7892005 99.2220048,69.3438285 C100.15451,70.8970991 101.59693,73.3824226 102.191905,74.4832404 C102.826697,75.657808 103.579126,76.9984258 103.579126,76.9984258 C103.579126,76.9984258 103.813949,77.5400119 104.002169,77.2332488 C104.479054,76.4618167 106.161727,73.8380427 106.161727,73.4873917 C106.161727,73.0729449 102.743898,67.4792703 101.604169,65.6147121 C100.465345,63.7497015 98.7039463,60.5395485 98.4967229,59.8147191 C98.289952,59.0885322 97.7718934,58.0537726 98.289952,57.9501609 C98.807558,57.8460967 101.812297,61.2639255 102.951121,62.6117826 C104.090397,63.9573773 105.954956,66.0300638 105.954956,66.0300638 C105.954956,66.0300638 106.058115,64.2686649 106.472562,63.1284837 C106.887461,61.9896599 107.197391,60.8503836 107.197391,60.8503836 C107.197391,60.8503836 103.15925,57.742485 99.8432226,55.4643849 C96.528553,53.184475 89.5888312,48.6282748 89.5888312,48.6282748" id="path26" fill="#E41D25"></path>
                        <path d="M111.445471,77.2839235 C111.445471,77.2839235 113.514085,78.1001485 115.293582,78.7249859 C117.072627,79.3516331 119.188297,80.5533478 120.247036,80.5533478 C121.305776,80.5533478 122.364516,79.7366704 123.469858,79.7366704 C124.576105,79.7366704 125.537567,79.3991406 126.691775,79.3032206 C127.846887,79.2077531 132.800341,77.9562685 129.866184,69.3474481 C127.393529,62.0910093 123.71011,62.3253799 123.277565,62.3737924 C122.845021,62.4208475 122.796608,63.1429622 123.133233,63.4795871 C123.469858,63.8153071 124.480185,64.344677 124.480185,64.344677 C124.480185,64.344677 121.450108,64.6337944 119.574239,65.1142993 C117.697917,65.5952567 115.341542,66.5576239 115.341542,66.5576239 C115.341542,66.5576239 115.197662,66.0766665 115.63066,65.6436691 C116.062752,65.2106717 116.880335,64.3930894 113.802298,64.152837 C110.724261,63.9125845 110.484914,65.3545517 111.061339,66.9426612 C111.638216,68.5289609 112.936303,68.1452809 113.177008,69.0112757 C113.417713,69.8763655 114.235295,71.800195 114.52396,72.4738973 C114.813078,73.1462422 115.534287,74.9261918 115.63066,75.1664442 C115.726127,75.4066967 115.96638,76.8500213 115.14925,75.8396941 C114.331668,74.8298193 113.89867,73.9647295 113.562045,72.9059898 C113.225873,71.8472501 112.119626,69.7804455 111.350003,69.7804455 C110.580381,69.7804455 109.859171,71.3187852 109.570054,72.6177773 C109.281389,73.9158645 109.233881,75.5505767 109.714839,76.0799465 C110.194891,76.6093164 111.445471,77.2839235 111.445471,77.2839235" id="path28" fill="#E41D25"></path>
                        <path d="M116.880787,64.6822068 C116.880787,64.6822068 117.891114,64.3930894 118.708697,64.2976219 C119.525826,64.200797 120.968246,64.200797 121.016659,63.7682521 C121.065523,63.3352547 119.286026,62.4226573 118.372072,62.3253799 C117.458117,62.2290075 115.870912,62.5656324 115.870912,62.9986298 C115.870912,63.4307222 116.111617,63.5759596 116.35187,63.9125845 C116.592122,64.2492094 116.880787,64.6822068 116.880787,64.6822068" id="path30" fill="#ED1C24"></path>
                        <path d="M10.2498216,81.6880996 C10.2498216,81.6880996 12.5622629,84.179305 13.6291014,84.9344488 C14.6960757,85.6904975 16.4743964,86.5786624 17.3190354,86.6673432 C18.1633124,86.7578337 18.8305446,87.0682164 19.3195557,86.2234869 C19.8089739,85.3787575 21.0530383,82.8450215 21.8094489,81.6446641 C22.5648642,80.4438542 24.1654162,78.3996723 24.3431849,77.999704 C24.5208179,77.5992832 24.4766585,74.6637691 25.2322095,73.8638325 C25.9879415,73.0638958 26.5213381,72.3978852 27.7217408,72.35264 C28.9223244,72.3082996 29.9007537,71.3753418 29.8558704,70.7532191 C29.8108061,70.1301916 28.3445874,69.3302549 27.2777941,68.7959081 C26.2106388,68.2629187 25.4996091,67.3281511 24.5208179,67.9511786 C23.5425696,68.5742062 22.3872312,70.0849463 21.986539,70.3971387 C21.5871136,70.7079738 21.0981026,71.2853037 20.475256,71.1966229 C19.8524094,71.1083946 19.719705,70.8848829 20.3416466,70.6197455 C20.9644932,70.3518935 21.497347,69.7288659 22.0756269,69.1519885 C22.6540879,68.5742062 23.2762106,67.8195149 23.5425696,67.5516628 C23.8096072,67.2847156 24.1208496,66.8408593 23.2762106,66.8408593 C22.4313906,66.8408593 21.2315309,66.6634978 20.3416466,67.3299609 C19.452984,67.9959715 19.2310106,69.1076481 18.5632807,69.1519885 C17.8971796,69.1972338 17.1409047,69.507164 16.5631224,69.5962972 C15.9852044,69.6858829 15.5279555,69.6944795 16.4174778,69.027564 C17.3061405,68.3611009 19.2661662,67.6815167 17.5413707,67.5064175 C17.0069334,67.4525756 14.4289928,69.0637602 13.4507445,69.8193565 C12.4730392,70.5745003 10.7388779,71.5531558 10.5167235,73.8638325 C10.2945239,76.176319 10.2945239,78.3557843 10.2945239,78.8874164 C10.2945239,79.4222157 10.1167552,80.2216999 10.0274863,80.5777803 C9.93894124,80.9334082 10.2498216,81.6880996 10.2498216,81.6880996" id="path32" fill="#E51B24"></path>
                        <polyline id="path34" fill="#100F0D" points="53.4844513 107.956607 61.8285867 108.601805 67.0082669 104.665465 68.4579258 98.4505727 67.6299371 98.2442542 66.076214 104.044247 61.3109806 107.462076 53.4844513 107.024554 53.4844513 107.956607"></polyline>
                        <polyline id="path36" fill="#100F0D" points="63.7777536 90.5643196 69.7012663 91.0968566 71.5092678 81.089052 68.5692292 76.8549982 67.9480115 77.3721519 70.6803742 80.9863452 69.079596 90.0602871 63.8338577 89.6200505 63.7777536 90.5643196"></polyline>
                        <polyline id="path38" fill="#100F0D" points="28.3619163 107.21006 36.4044467 106.961663 41.6442127 101.565711 47.2098351 80.6682709 43.555283 75.5374556 43.0376317 75.9519024 46.1741706 80.8759467 40.6081861 101.047652 35.8867502 105.821482 28.9145875 106.104265 28.3619163 107.21006"></polyline>
                        <path d="M38.2121316,81.6700015 L34.8977335,81.9808366 L33.8616617,82.9128894 L29.4078516,97.9334191 L30.2363832,98.7609554 L33.5507813,98.6582486 L34.2761537,97.9334191 L38.6265784,82.7065709 L38.2121316,81.6700015 Z M39.8696021,99.7979773 L35.3121803,104.9763 L27.2327298,105.391199 L23.5038849,99.7979773 L29.2005377,80.9456245 L33.6545288,76.3876145 L41.3195325,75.6632374 L45.0483774,81.463683 L39.8696021,99.7979773 L39.8696021,99.7979773 Z" id="path40" fill="#E41D25"></path>
                        <polyline id="path42" fill="#E41D25" points="52.4030889 106.116029 60.7933746 106.530023 65.040097 103.733412 66.800591 97.104073 61.1042097 96.4828553 59.8613217 99.9011366 55.3033117 99.6934607 58.6179813 83.6390763 63.2791505 84.0530706 63.0719271 88.506564 68.2511549 88.9219157 69.5976546 81.463683 66.3865967 77.4241839 58.5143696 76.8029662 53.5423652 80.4271135 48.674425 98.6582486 52.4030889 106.116029"></polyline>
                        <path d="M66.0499718,24.6496764 C66.0499718,24.6496764 61.0933508,17.253475 60.2545032,15.1183047 C59.4156556,12.9830892 57.814425,10.771545 58.7297371,8.71342745 C59.6450492,6.65422405 60.1780387,5.58602812 60.8648621,5.28098441 C61.5507806,4.97698134 63.4578694,4.29105377 62.3896282,1.77446578 C61.3227444,-0.741597366 57.3565427,3.90876731 55.602383,4.4421685 C53.8482233,4.97698134 50.8751557,4.82323786 49.8069145,5.12896025 C48.7400307,5.43490886 46.6804653,7.11215157 44.8504293,7.41615464 C43.0204837,7.72246522 35.6241013,6.80710786 35.3954316,8.48439582 C35.1665357,10.1616385 37.6067949,9.78076372 39.1324207,9.93274263 C40.6567796,10.0856265 42.1053526,10.6195661 42.8683238,10.4666822 C43.6307521,10.3136174 44.0118079,9.32369585 45.4606524,9.09430226 C46.9094065,8.86540636 48.5101846,8.94141844 49.2734726,8.63637473 C50.0358556,8.331512 50.1118677,7.41791921 51.256121,6.88311994 C52.3994693,6.34936132 54.8395475,6.50224513 54.8395475,6.50224513 C54.8395475,6.50224513 54.9160121,7.11215157 54.153629,7.11215157 C53.391246,7.11215157 52.2465403,8.71342745 51.6370863,9.47481511 C51.0267274,10.2385103 50.4168209,10.9244288 46.9094065,11.3049416 C43.4019015,11.6869023 42.9443359,14.2798191 45.9180823,14.0518281 C48.8925073,13.8218916 50.9502628,12.7536957 52.1709806,11.9917651 C53.391246,11.2289748 54.6110588,10.6186612 55.2205128,10.3136174 C55.8308717,10.0087547 56.1358249,10.4666822 55.3734419,11.1520578 C54.6110588,11.8397861 54.6870709,12.6025764 55.5259185,13.7459248 C56.3647661,14.8903137 58.9573209,19.997873 59.6436919,21.2177311 C60.3296104,22.4389918 60.5585515,22.9715288 61.7028048,25.4884788 C61.7028048,25.4884788 62.5411999,27.0906143 64.3709192,26.4037909 C66.201091,25.7173294 66.0499718,24.6496764 66.0499718,24.6496764" id="path44" fill="#FAB63D"></path>
                        <path d="M85.0380605,38.2992287 C85.0380605,38.2992287 87.2161685,38.6774793 87.7061749,37.3070449 C88.9522301,33.8254655 87.4233919,26.5584393 88.621487,25.9464063 C89.4159942,25.5395607 91.2389268,27.9267472 91.8999604,28.9198812 C93.4310608,31.2201515 95.8258937,30.9550141 94.8816246,27.4911256 C94.2604069,25.2120301 92.1289015,26.0224184 90.4516588,22.5141442 C90.4516588,22.5141442 88.2405217,17.6352547 88.3925459,15.1951765 C88.545475,12.7542386 87.4052938,12.3618715 84.8091193,11.3818586 C81.9328766,10.2959718 80.5868293,8.63917994 79.6547765,10.0891556 C78.80507,11.4104536 83.1875283,12.6147926 83.7978872,13.3003492 C84.4077937,13.9871726 85.1900846,14.8892279 85.1900846,15.8042233 C85.1900846,16.7195354 84.8091193,16.1096289 84.1987604,15.4991795 C83.588854,14.8903137 81.9880758,14.5834602 81.1487758,13.9749564 C80.3103807,13.364145 79.0896629,12.2959491 78.556221,11.7628692 C78.0232315,11.2289748 76.421096,10.848462 75.8111895,10.6195661 C75.2012831,10.3904892 73.0489649,10.1503272 74.3624355,12.0677771 C74.9940597,12.9894688 75.5822484,13.136154 76.8789782,13.5170289 C76.8789782,13.5170289 78.7847096,14.432341 79.8529508,15.1183047 C80.9202871,15.8042233 81.8351468,16.1865007 82.6735419,17.1772819 C83.5128419,18.1686513 84.2761299,19.9227658 83.0558645,19.0845064 C81.8351468,18.2446182 79.0145557,16.7204403 77.7942904,15.9571071 C76.5735726,15.1951765 74.5909242,14.5074934 74.285971,13.7459248 C73.9810178,12.9830892 72.4557992,12.6025764 72.6847403,14.7372489 C72.9136815,16.8724192 76.1125231,17.046704 77.7902183,17.9618352 C79.4679134,18.8768305 81.4546339,19.8458941 82.3690411,20.7617491 C83.2839008,21.6751609 84.7331073,22.4381322 85.2670016,22.7438998 C85.7995386,23.0484006 85.4190258,24.8776674 85.0380605,27.0897094 C84.6561903,29.300937 84.6561903,31.4364692 84.4272491,32.1983998 C84.1987604,32.96119 83.2839008,34.257377 83.588854,35.4769184 C83.8942597,36.6979981 85.0380605,38.2992287 85.0380605,38.2992287" id="path46" fill="#FAB63D"></path>
                        <path d="M42.7985104,14.6055852 C41.1085085,15.1264036 40.1896672,15.3720855 39.304036,15.1861727 C38.6451289,15.0477673 37.0000556,13.3694387 38.4086318,12.8328749 C39.8168913,12.2968088 40.1896672,12.3682058 41.1217653,12.5619461 C42.0256304,12.7492616 43.1070832,12.8188941 43.2345392,13.4178964 C43.2972491,13.715158 42.7985104,14.6055852 42.7985104,14.6055852" id="path48" fill="#F9B020"></path>
                        <path d="M81.3541894,136.569273 C81.3541894,136.569273 76.9522756,136.733513 72.3042275,135.110565 C69.1252938,134.00115 65.6074729,132.145641 61.1689104,129.905095 C50.2412692,124.389695 42.1099224,116.646416 42.1099224,116.646416 C42.1099224,116.646416 41.9024275,116.232422 41.2810288,116.336034 C40.659449,116.440098 40.659449,117.889757 40.659449,117.889757 C40.659449,117.889757 40.5563803,130.940759 40.9701484,136.223599 C41.3849572,141.505986 41.6954756,146.167155 41.2810288,151.65767 C40.8670796,157.148186 40.659449,158.234977 40.659449,158.234977 C40.659449,158.234977 39.6241012,158.856648 37.8112583,159.943892 C35.9982798,161.031588 35.2734503,162.118833 34.8076049,162.118833 C34.3413522,162.118833 32.3221004,161.704838 30.6906007,161.704838 C29.2922499,161.704838 27.3758858,161.679049 27.9971036,164.112792 C28.6186833,166.546989 30.3018079,169.007427 33.9267244,171.90765 C37.5520029,174.808325 40.2454999,175.377511 40.6078242,175.791958 C40.6078242,175.791958 41.9678522,179.182639 43.4566935,181.489244 C45.0621772,183.975472 46.4605732,187.445786 53.1057482,189.237499 C53.1057482,189.237499 55.8752121,190.24104 62.0493837,190.190365 C69.3524251,190.130189 69.0936221,189.827045 75.9808593,191.122418 C82.8699064,192.41779 87.9269719,196.704781 88.962184,197.740898 C89.9987535,198.777015 90.9330686,199.879643 91.8171615,199.627174 C92.5306796,199.423118 91.841594,197.368982 91.3579219,196.007099 C90.7973328,194.426681 88.9065323,190.709781 89.216915,190.398946 C89.5282025,190.088563 90.9796713,191.694318 91.5108509,192.438151 C92.1112559,193.275641 93.0080174,194.853796 93.5505084,194.681412 C94.6730439,194.324426 94.3671858,190.144215 93.7554695,188.053882 C92.9795129,185.405223 91.673734,183.716669 92.0366011,183.353802 C92.3999208,182.990935 93.0550725,183.988594 93.8065967,184.739213 C94.5567635,185.489832 95.0472224,186.499707 95.5399435,186.421885 C96.0317598,186.344063 97.2637889,180.430504 94.4671778,177.167414 C92.4886015,174.859452 91.6796158,174.748602 91.5705747,173.524717 C91.4601762,172.300379 92.6713925,162.109784 89.6539844,156.370872 C87.0125647,151.346835 86.4429266,150.156432 84.1127944,146.788825 C81.4944498,143.007677 80.5388693,142.232173 79.8656195,140.781609 C79.1919172,139.331045 79.3543478,138.477719 79.6004821,138.030695 C80.4723588,136.444396 81.3541894,136.569273 81.3541894,136.569273" id="path50" fill="#100F0D"></path>
                        <path d="M44.1222969,177.339347 C44.1222969,177.339347 43.2421404,175.993299 42.8276483,176.304134 C42.4132015,176.61497 43.1385739,177.49499 43.1385739,177.49499 C43.1385739,177.49499 46.5311559,183.140697 49.2241552,184.849611 C51.9171546,186.558526 53.4903331,187.499175 58.2619009,187.646222 C63.0334686,187.79327 65.2278649,187.646222 68.7235157,188.034879 C72.279795,188.429871 77.7218979,189.485896 80.3054037,190.68761 C85.1348854,192.934039 88.4034048,195.881317 88.8694312,196.244184 C89.3363625,196.605694 89.7499044,197.279396 90.1132241,197.07172 C90.4756388,196.865402 90.1132241,196.08854 90.1132241,196.08854 C90.1132241,196.08854 88.9214633,193.4987 87.782187,191.738206 C86.6429107,189.976807 85.0380605,187.232228 85.0380605,187.232228 C85.0380605,187.232228 84.6236137,186.403334 85.0380605,186.092499 C85.4516024,185.782117 86.3578654,186.368948 86.3578654,186.368948 C86.3578654,186.368948 87.7192961,187.163003 89.1291391,188.423084 C90.5389822,189.683165 91.9773298,191.634142 91.9773298,191.634142 C91.9773298,191.634142 92.1845532,192.100621 92.599,191.89385 C93.0134468,191.685721 92.7541914,190.909312 92.7541914,190.909312 C92.7541914,190.909312 92.2365853,187.853898 90.8380535,185.782117 C89.4395218,183.709883 88.8694312,182.881894 88.8694312,182.881894 C88.8694312,182.881894 88.0405376,181.845777 88.5590485,181.172527 C89.0771071,180.499277 90.9977694,180.912819 91.9660185,181.677464 C92.9351725,182.442562 94.0002465,183.860097 94.3599465,183.865074 C94.7196465,183.870051 95.3951586,181.794197 93.7898559,179.308421 C92.1850057,176.822193 91.3547547,177.346586 90.1652562,175.734496 C89.1603584,174.373971 89.3363625,172.678177 89.3363625,172.678177 C89.3363625,172.678177 90.4557309,163.958958 88.8730508,159.766078 C85.7660571,151.530984 79.1335508,143.986332 78.7186515,142.795476 C78.3042047,141.603716 77.7865987,141.069821 77.94179,140.033704 C78.0073957,139.601159 78.1788753,138.995777 78.0146349,138.545587 C77.8074115,137.975044 77.2861858,137.936133 77.2861858,137.936133 C77.2861858,137.936133 69.3850017,136.28649 63.59632,133.21343 C58.841493,130.689648 56.0091381,129.019192 48.3206069,123.647672 C45.0093307,121.33428 42.7239009,119.075183 42.2062496,119.178795 C41.6885983,119.281954 41.3778537,120.421683 41.8953692,126.481384 C42.4132015,132.541085 42.8276483,139.325163 42.8276483,143.31263 C42.8276483,147.301454 41.9471298,157.606973 41.9471298,157.606973 C41.9471298,157.606973 45.1067438,152.842644 45.7280521,144.55597 C46.3497223,136.269749 46.194531,133.21343 46.1420464,132.022574 C46.0904668,130.831718 45.5728607,128.759937 45.9868551,128.552261 C46.4013019,128.345942 48.0066046,128.811969 50.5964447,131.298197 C53.1858324,133.783973 55.0300302,136.388744 57.5881986,139.843674 C58.6243156,141.241753 59.6079481,143.986332 61.6281501,148.855177 C61.6281501,148.855177 62.353432,151.807432 64.9943993,155.380905 C67.635819,158.954377 70.0175308,159.834398 73.177009,160.042074 C76.3369397,160.248393 79.3919014,159.731239 80.1687629,159.523563 C80.9456245,159.31634 81.4632305,158.850766 81.8776773,159.265213 C82.2921241,159.679207 82.5513796,163.511935 81.4121033,165.480105 C80.2728271,167.447822 78.8227157,168.846354 78.0463066,169.311928 C77.2689926,169.778407 76.8029662,169.311928 77.0097371,171.694997 C77.2169605,174.076709 77.94179,179.048713 76.3885194,182.053 C74.8347963,185.057287 72.918206,185.418797 71.4680946,185.418797 C70.0175308,185.418797 67.7910103,184.902096 64.1655057,182.571059 C60.5404534,180.240474 57.3289431,177.805373 56.1385397,177.49499 C54.9467789,177.184155 54.1694649,176.925805 53.3414762,179.203905 C52.5125825,181.483815 52.249255,182.991388 49.5087481,182.208192 C48.0586367,181.794197 45.9868551,179.515192 45.417217,178.842395 C44.8476241,178.16824 44.1222969,177.339347 44.1222969,177.339347" id="path52" fill="#E51B24"></path>
                        <path d="M42.2567886,156.609314 C42.4773593,153.904551 43.0538747,146.525498 43.0538747,143.31263 C43.0538747,139.654096 42.6965275,133.197142 42.1206907,126.461929 C41.7286856,121.871794 41.7723473,119.495965 42.2506352,119.400497 L42.2509519,119.400497 C42.4771783,119.400497 43.4563316,120.18686 44.4031344,120.946981 C45.4249087,121.76773 46.6967536,122.788916 48.1912054,123.832725 C56.0616227,129.331837 58.8971447,130.975146 63.4899935,133.412962 C69.2411217,136.466114 77.1608564,138.141094 77.2395832,138.157835 C77.2825662,138.163264 77.6499579,138.203532 77.8024345,138.622956 C77.9132855,138.927457 77.8354636,139.350048 77.7662383,139.722869 C77.7481402,139.820146 77.730947,139.913352 77.7182783,139.99977 C77.6006405,140.782966 77.8427028,141.319575 78.1232236,141.941245 C78.243576,142.209098 78.3806693,142.512693 78.5046413,142.869679 C78.6335904,143.239333 79.2104678,144.031578 80.1655957,145.344596 C82.360897,148.360646 86.4460937,153.974229 88.6617553,159.84571 C90.2064294,163.938598 89.1228048,172.562802 89.1119459,172.649673 C89.1038018,172.727947 88.938204,174.454055 89.9829177,175.868875 C90.5204316,176.597324 91.0041037,176.91947 91.4714875,177.230758 C92.0822989,177.637965 92.7139231,178.058747 93.6002782,179.431036 C95.0295767,181.644435 94.5490718,183.368733 94.3337042,183.627084 C94.1703688,183.543832 93.7418959,183.095452 93.4229167,182.761994 C93.0161616,182.336688 92.5546596,181.853921 92.1062789,181.500103 C91.3497777,180.902413 90.0820048,180.517375 89.216915,180.625059 C88.8336874,180.672567 88.5522617,180.810565 88.3794248,181.034981 C87.7609217,181.838538 88.6531587,182.973289 88.6929746,183.023059 L88.6929746,183.023059 C88.6920697,183.023059 89.2639701,183.85331 90.6507381,185.908351 C92.004477,187.914527 92.5266076,190.916552 92.5311321,190.946866 C92.6008098,191.165853 92.6750121,191.60247 92.4971981,191.691603 C92.4193762,191.730062 92.3750359,191.721918 92.3478887,191.712416 C92.2614702,191.681197 92.1954121,191.568536 92.1841008,191.541841 L92.1592159,191.499763 C92.0999445,191.419227 90.6910064,189.515758 89.2798059,188.254319 C87.8690579,186.993785 86.5284402,186.206065 86.4718835,186.173488 C86.3746062,186.110145 85.4267175,185.516979 84.9023246,185.911518 C84.3525944,186.323703 84.7842344,187.231323 84.8353616,187.333577 C84.8584367,187.373846 86.4628345,190.11571 87.5921568,191.860821 C88.7097153,193.588286 89.8955943,196.157765 89.907358,196.183103 C90.0317826,196.450955 90.1005554,196.818799 90.0010158,196.875356 C89.8987614,196.932817 89.6372437,196.66587 89.4444988,196.470863 C89.3060482,196.33015 89.1630731,196.185365 89.0083342,196.065013 C88.9594693,196.027007 88.8780278,195.959591 88.7662719,195.865933 C87.7690659,195.032968 84.7340122,192.497874 80.4008712,190.482649 C77.8716598,189.306272 72.5096411,188.227624 68.748853,187.81001 C66.4132914,187.550302 64.6161487,187.528132 62.3403109,187.50008 C61.1806742,187.485602 59.8662987,187.469313 58.2691401,187.419996 C53.4636384,187.272044 51.913535,186.288411 49.3454126,184.658224 C46.7288778,182.997722 43.3662029,177.434362 43.3326309,177.378257 C43.1387097,177.138457 42.9036604,176.750253 42.9275047,176.552531 C42.9319387,176.51543 42.9446526,176.499142 42.9633842,176.485116 C43.0906592,176.455706 43.56026,176.89368 43.9329906,177.463319 L43.9520841,177.488204 C43.9524461,177.488656 44.6761897,178.31574 45.244561,178.988085 C45.5000158,179.290323 47.7880699,181.952103 49.446762,182.425821 C52.1664561,183.203588 52.6677739,181.785148 53.3609316,179.82286 C53.4224652,179.648213 53.4862611,179.467232 53.554129,179.281274 C54.2943419,177.245689 54.8662423,177.395451 56.0046136,177.693617 L56.0815306,177.713525 C56.8307925,177.909437 58.55871,179.082195 60.559004,180.440458 C61.6154814,181.157596 62.8126716,181.970201 64.0428909,182.761541 C67.0616563,184.701659 69.4899708,185.645023 71.4680946,185.645023 C73.0127687,185.645023 74.9904401,185.248675 76.5894084,182.156612 C78.0006089,179.426964 77.5743983,175.126852 77.3192149,172.557825 C77.2875432,172.235678 77.2576813,171.939774 77.2350586,171.675089 C77.0862017,169.956673 77.274422,169.884733 77.6866066,169.72728 C77.8191753,169.676153 77.9843206,169.613262 78.1621345,169.50603 C79.0326538,168.9839 80.4823127,167.536956 81.6080154,165.593218 C82.7966091,163.539535 82.5509272,159.617673 82.0378456,159.105044 C81.6424018,158.710053 81.1741131,158.901893 80.7221127,159.086494 C80.5302727,159.164768 80.3316459,159.245757 80.1103965,159.305028 C79.5357814,159.458862 76.5002752,160.032573 73.1914875,159.8163 C70.1048542,159.613601 67.803679,158.800543 65.1767378,155.246074 C62.5963992,151.755853 61.854829,148.830293 61.8475897,148.800883 C61.3883501,147.687397 60.990644,146.710551 60.6323014,145.83053 C59.3604564,142.705438 58.5930964,140.819615 57.7700846,139.708843 L57.0638057,138.75281 C54.8558358,135.762097 53.1120826,133.399388 50.7529934,131.134862 C48.2979842,128.778035 46.5085332,128.038727 45.8859581,128.350014 C45.4859898,128.550451 45.5724083,129.315096 45.7597238,130.648927 C45.8284966,131.136219 45.8990792,131.640251 45.91582,132.032528 L45.9194396,132.105373 C45.9714717,133.288085 46.1108272,136.429465 45.5027305,144.538777 C45.0432647,150.664084 43.1661283,154.883207 42.2567886,156.609314 L42.2567886,156.609314 Z M42.2435317,118.948949 C42.2150724,118.948949 42.188242,118.951664 42.1619092,118.957093 C41.5505549,119.079255 41.0917225,119.730788 41.6700025,126.500387 C42.2444366,133.223836 42.6014219,139.66586 42.6014219,143.31263 C42.6014219,147.245803 41.7306311,157.484811 41.7218083,157.587517 L42.1355764,157.73185 C42.1675649,157.68389 45.335323,152.823189 45.953826,144.572711 C46.5641849,136.436252 46.4239245,133.275416 46.37144,132.085465 L46.3678204,132.01262 C46.3501747,131.599078 46.2777823,131.084187 46.2076521,130.586036 C46.1198762,129.959389 45.9723766,128.910151 46.1049453,128.742291 C46.2877362,128.65361 47.6907925,128.822375 50.4394436,131.461533 C52.7709331,133.699364 54.5047324,136.048047 56.6995812,139.021567 L57.4063125,139.978053 C58.1953903,141.042674 58.9550586,142.909042 60.21333,146.001105 C60.5721251,146.882031 60.9698312,147.859329 61.4191169,148.942048 C61.4385723,149.031634 62.1747131,151.946335 64.8129657,155.515283 C67.5322073,159.19463 70.0234127,160.06153 73.1620781,160.267848 C76.2256363,160.466475 79.2968863,159.990494 80.2271293,159.742098 C80.4764308,159.675587 80.6976803,159.585097 80.8935924,159.505013 C81.3686679,159.31091 81.549649,159.257973 81.7179615,159.424928 C82.024272,159.753862 82.3446087,163.417825 81.2161913,165.366539 C80.0574595,167.367738 78.6159447,168.706546 77.9300262,169.118278 C77.7852413,169.204697 77.6526726,169.255371 77.5246285,169.304689 C76.857713,169.559872 76.6206277,169.834059 76.7844156,171.714905 C76.8070382,171.980495 76.8369001,172.278661 76.8690243,172.602165 C77.1192307,175.121875 77.5372971,179.338283 76.1871778,181.948936 C74.7008702,184.823822 72.884272,185.192571 71.4680946,185.192571 C69.5795564,185.192571 67.2308737,184.272734 64.2876679,182.381029 C63.0619732,181.592856 61.8674976,180.781608 60.8132825,180.065827 C58.6944458,178.62748 57.0203703,177.491371 56.1955487,177.276003 L56.1190842,177.256095 C54.811043,176.914041 53.966766,176.820836 53.1288233,179.126535 C53.0605029,179.313851 52.9962546,179.496189 52.9342686,179.672193 C52.2338716,181.655294 51.8827682,182.651595 49.5707341,181.990562 C48.0142963,181.546706 45.6886887,178.812533 45.5900539,178.696253 C45.05901,178.067796 44.3932257,177.305413 44.3029161,177.202253 C44.1659586,176.994577 43.5671373,176.12813 43.0625618,176.039449 C42.9255591,176.015017 42.7971078,176.043974 42.6920935,176.123153 C42.5708813,176.214096 42.4968148,176.34395 42.4782642,176.499142 C42.4236532,176.956571 42.8732556,177.528472 42.9639271,177.63887 C43.0840986,177.843379 46.3958725,183.322583 49.1028979,185.040546 C51.9547082,186.850358 53.535126,187.727211 58.2546616,187.872449 C59.8563447,187.921766 61.1729825,187.938055 62.3348814,187.952533 C64.6862789,187.98149 66.3856918,188.002755 68.6981783,188.259748 C72.4241275,188.673743 77.7246126,189.737007 80.2099361,190.892572 C84.4892352,192.883364 87.4903549,195.3895 88.4757972,196.212965 C88.593435,196.311147 88.6789485,196.382182 88.7305282,196.422903 C88.8621919,196.524252 88.9943082,196.658631 89.1218999,196.788485 C89.4503807,197.120585 89.821392,197.500193 90.2254324,197.268085 C90.7538973,196.967204 90.363883,196.091707 90.3181852,195.993073 C90.3064214,195.967735 89.1069689,193.369299 87.9722172,191.615591 C86.8487768,189.878625 85.249356,187.14581 85.2330676,187.11821 C85.133528,186.915511 84.9760744,186.421885 85.1737963,186.27348 C85.3710658,186.125981 85.9230582,186.356732 86.2347983,186.558978 C86.2569684,186.572099 87.6034681,187.362987 88.9784723,188.591849 C90.2865135,189.760987 91.6411573,191.561749 91.7832275,191.75178 C91.8234958,191.831411 91.9542547,192.051756 92.1949596,192.138174 C92.3067155,192.178443 92.4849819,192.20378 92.699897,192.096096 C93.2736072,191.808336 93.0016831,190.936007 92.9691065,190.837372 C92.9559853,190.74462 92.4352121,187.743952 91.025369,185.654977 C89.6259324,183.581838 89.0562942,182.75385 89.0562942,182.75385 C89.039101,182.732132 88.3418712,181.826321 88.7382199,181.310978 C88.8581199,181.154881 89.0952052,181.096063 89.2725667,181.073892 C90.0177565,180.981592 91.1633671,181.33179 91.8262106,181.855278 C92.249254,182.189641 92.6989921,182.660192 93.0957933,183.074639 C93.7500401,183.758748 94.076711,184.087681 94.3567793,184.0913 C94.3585892,184.0913 94.3599465,184.0913 94.3613039,184.0913 C94.470345,184.0913 94.6287035,184.036101 94.7712262,183.778203 C95.1594307,183.077354 95.2879273,181.210986 93.9798861,179.185807 C93.0428563,177.733885 92.3411019,177.266954 91.7225989,176.854317 C91.2674313,176.551174 90.8376011,176.264771 90.3471422,175.600118 C89.408755,174.32963 89.5598742,172.717541 89.5612316,172.701252 C89.6064769,172.348792 90.6692886,163.883399 89.0847988,159.685994 C86.8478719,153.757504 82.7391475,148.111797 80.5316301,145.078101 C79.6977595,143.93249 79.0389881,143.027132 78.9326617,142.720822 C78.8014504,142.344833 78.6602851,142.031736 78.5358606,141.755287 C78.2639364,141.153525 78.0680243,140.718265 78.1653017,140.067186 C78.1779704,139.985744 78.1942587,139.897063 78.2114519,139.805216 C78.2865591,139.396651 78.3806693,138.888546 78.2272877,138.468217 C77.9730092,137.768273 77.3305262,137.712621 77.3029266,137.710811 C77.2540617,137.698143 69.3954081,136.035831 63.7021939,133.013446 C59.1260858,130.584226 56.3005178,128.9468 48.4500084,123.462166 C46.9682253,122.426502 45.7031672,121.410745 44.6865961,120.59452 C43.2119165,119.409998 42.6171673,118.948949 42.2435317,118.948949 L42.2435317,118.948949 Z" id="path54" fill="#ED1C24"></path>
                        <path d="M54.633229,164.206903 C54.633229,164.206903 55.1503826,164.379287 54.9200841,164.896441 C54.7884204,165.192797 54.1160754,165.240757 53.7713064,164.896441 C53.4274422,164.551672 50.0955794,163.63274 47.5681778,163.575731 C45.0418621,163.517817 44.3620969,164.106911 41.6629442,164.106911 C38.9641534,164.106911 38.32805,163.426874 36.4320011,163.097036 C34.7264801,162.801132 33.0380618,162.484415 31.8321844,162.656799 C30.6261261,162.829184 30.3961896,163.230962 30.6837234,163.9205 C30.9702165,164.609133 33.2466425,168.949061 38.0917791,171.32851 C41.5047667,173.004848 45.042586,175.237703 53.6572882,173.052356 C61.3530587,171.099117 60.9512806,162.02427 58.3085035,159.841638 C58.3085035,159.841638 55.5517083,157.200218 51.2448097,157.200218 C46.9370061,157.200218 42.8016775,158.693312 41.3085831,159.325389 C39.8156697,159.957013 37.0588745,161.679501 37.0588745,161.679501 C37.0588745,161.679501 36.7474965,162.16996 37.517526,162.426953 C38.3794939,162.713808 39.6433757,163.000663 41.1362891,162.943202 C42.6293835,162.886193 46.0750834,162.31203 47.9129469,162.369039 C49.7517152,162.427406 51.6461353,163.000663 52.4505965,163.230962 C53.2546052,163.460355 54.633229,164.206903 54.633229,164.206903" id="path56" fill="#FAB63D"></path>
                        <path d="M39.9301855,167.997553 C40.0376431,168.244139 40.676416,168.859475 41.4232799,169.03186 C42.1705511,169.204244 42.9740168,169.375271 42.9169173,168.973493 C42.85932,168.571715 42.2847049,168.399331 41.8828363,168.054562 C41.4809224,167.710697 40.6774567,167.136535 40.160303,167.251005 C39.6433757,167.365928 39.822909,167.751418 39.9301855,167.997553" id="path58" fill="#100F0D"></path>
                        <path d="M55.3793238,166.217151 C55.3793238,166.217151 56.8154091,166.389535 57.3895718,165.470603 C57.9637345,164.551672 57.9637345,163.230962 57.1027167,163.230962 C56.2412465,163.230962 56.4710925,163.977509 56.1837849,164.436749 C55.8969298,164.896441 55.6670838,165.528517 55.3793238,165.700449 C55.0924687,165.872382 55.3793238,166.217151 55.3793238,166.217151" id="path60" fill="#100F0D"></path>
                        <path d="M50.0955794,175.636314 C50.0955794,175.636314 49.5214167,175.751237 48.9472541,175.693776 C48.3730914,175.636314 47.4537072,175.981083 48.0283223,176.498237 C48.602485,177.014938 49.1766477,176.957024 49.6938013,176.72763 C50.2109549,176.498237 50.2105024,176.324947 50.2684164,176.038092 C50.3258779,175.751237 50.0955794,175.636314 50.0955794,175.636314" id="path62" fill="#FFFFFF"></path>
                        <path d="M73.0702302,168.342322 C73.0702302,168.342322 72.9557596,171.443886 71.4617603,172.133424 C69.9691183,172.822057 68.1887164,172.304904 67.8439473,171.558356 C67.4991782,170.811809 68.8203406,170.180185 68.762879,169.376176 C68.7054175,168.571715 68.533033,168.342322 67.9588703,168.571715 C67.3847077,168.802014 67.2593782,169.870255 66.4657759,169.606022 C65.4314687,169.261253 65.5468442,166.906236 65.3165457,166.619381 C64.9079808,166.107657 63.9953834,165.528065 63.7089807,167.13563 C63.4212207,168.7441 64.9726815,172.592211 65.8916133,173.683528 C67.1231899,175.14676 69.5659829,176.842101 71.0604346,176.43987 C72.5539815,176.038092 73.1847007,174.659468 73.4149992,173.166374 C73.6452977,171.673279 73.4466709,169.949434 73.4149992,169.318262 C73.3570853,168.169937 73.0702302,168.342322 73.0702302,168.342322" id="path64" fill="#FFFFFF"></path>
                    </g>
                </g>
            </g>
        </g>
    </g>
</svg>