<?xml version="1.0" encoding="UTF-8"?>
<svg width="200px" height="200px" viewBox="0 0 200 200" version="1.1" xmlns="http://www.w3.org/2000/svg" xmlns:xlink="http://www.w3.org/1999/xlink">
    <!-- Generator: Sketch 54.1 (76490) - https://sketchapp.com -->
    <title>ozarks-ar</title>
    <desc>Created with Sketch.</desc>
    <g id="ozarks-ar" stroke="none" stroke-width="1" fill="none" fill-rule="evenodd">
        <g id="ozarks-ar_BGL">
            <g id="ozarks-ar" transform="translate(0.000000, 64.000000)">
                <g id="g10" transform="translate(99.663297, 36.486482) scale(-1, 1) rotate(-180.000000) translate(-99.663297, -36.486482) translate(0.000000, 0.662409)" fill-rule="nonzero">
                    <g id="g12">
                        <path d="M166.876764,54.3513375 L166.712454,54.3851338 L166.619524,54.523969 C163.169019,59.7429281 156.125249,63.8317391 145.686192,66.6759002 C134.437572,69.7413594 119.56498,71.295989 101.478785,71.295989 L0,71.295989 L85.8911763,56.181069 L38.1265984,53.7942394 L105.751243,43.7244304 L59.9862611,41.4379082 L152.115821,27.7198567 C152.964306,27.5577697 154.061949,27.3987919 155.334676,27.2154808 C161.944777,26.2602623 175.698312,24.2720938 179.163632,17.550281 C180.542756,14.8756422 180.204709,11.593711 178.130635,7.51862129 L174.300332,0 L181.365652,4.58362933 C181.569019,4.7209234 201.88013,19.2153569 199.018177,34.0788325 C197.195955,43.5465267 186.38114,50.3670247 166.876764,54.3513375" id="path14" fill="#9C9A9B"></path>
                        <path d="M152.502353,29.95244 C159.534003,28.591666 190.514473,26.8575104 180.138716,6.48730706 C180.28013,6.57866521 226.572385,40.3965768 165.294272,52.3568154 C159.698313,62.4798873 138.29764,69.0289335 101.478785,69.0289335 C49.719056,69.0289335 25.9527266,69.0289335 25.9527266,69.0289335 L106.117977,54.9231708 L61.0558907,52.6715265 L128.679997,42.6013119 L82.9151494,40.3147897 L152.502353,29.95244" id="path16" fill="#582D70"></path>
                        <path d="M157.024912,38.9106212 C191.795281,34.1480473 189.714473,23.2407661 186.210096,17.8275459 C189.928615,22.1016957 193.771039,27.9637308 192.6505,33.0627807 C191.538042,38.132225 185.555551,42.3979934 175.182487,45.6044507 C175.174406,45.6070192 170.537369,47.0804025 165.574407,48.0181821 C162.060602,43.36281 129.672185,38.4474768 125.394071,38.2336139 L153.294272,34.0751825 C153.979794,33.9420251 155.030299,33.7904825 156.246461,33.6146066 C163.567673,32.5558362 176.456561,30.687577 182.778447,23.5612902 C181.853194,28.6054548 177.092251,33.4519788 157.024912,38.9106212" id="path18" fill="#FFFFFF"></path>
                        <path d="M190.606056,31.0324344 C190.606056,37.0269509 182.813463,41.6517712 167.239053,45.4850822 C166.767673,45.0255878 165.87205,44.3739952 164.216831,43.7128045 C170.996629,42.7132452 189.103026,39.2876527 190.606056,31.0324344" id="path20" fill="#9C9A9B"></path>
                        <path d="M130.982219,56.9066078 C150.029626,58.0742023 157.870703,50.7736617 159.439727,49.0564043 C160.41077,49.4841302 161.155552,49.9144247 161.63636,50.3195747 C156.614137,59.4055059 134.124576,64.8302169 101.478785,64.8302169 L74.0351497,64.8302169 L128.025047,54.8688264 L103.533196,50.5903506 L129.641748,46.7022896 C135.426259,45.8410248 140.801343,45.7459896 145.457235,46.0912526 C143.892252,48.3968358 139.341411,54.865582 130.982219,56.9066078" id="path22" fill="#9C9A9B"></path>
                        <path d="M154.567,50.1299099 C153.893599,50.0554228 152.588548,49.7116469 154.366326,48.1111895 C147.507067,47.3269803 147.140737,51.7399654 148.106394,53.3659727 C145.47205,54.3344394 142.385182,55.0763357 138.906394,55.237882 C143.123229,53.1980727 147.956899,47.4499988 148.616831,45.6149952 C148.616831,45.6149952 154.527942,45.7691063 158.259929,47.2715544 C158.259929,47.2715544 156.958919,48.575821 154.567,50.1299099" id="path24" fill="#FFFFFF"></path>
                    </g>
                </g>
            </g>
        </g>
    </g>
</svg>