<?xml version="1.0" encoding="UTF-8"?>
<svg width="200px" height="200px" viewBox="0 0 200 200" version="1.1" xmlns="http://www.w3.org/2000/svg" xmlns:xlink="http://www.w3.org/1999/xlink">
    <!-- Generator: Sketch 54.1 (76490) - https://sketchapp.com -->
    <title>pitt-bradford</title>
    <desc>Created with Sketch.</desc>
    <g id="pitt-bradford" stroke="none" stroke-width="1" fill="none" fill-rule="evenodd">
        <g id="pitt-bradford_BGL">
            <g id="pitt-bradford" transform="translate(0.000000, 36.000000)">
                <path d="M133.787781,0.0964630225 C135.340836,-0.170418006 136.66881,0.225080386 138.109325,0.742765273 C140.607717,1.45659164 143.048232,2.32797428 145.59164,2.75884244 C147.199357,3.08681672 149.109325,3.29581994 150.543408,4.11575563 C151.266881,4.50803859 151.938907,5.21864952 152.736334,5.42122186 C154.299035,4.90675241 155.710611,3.92282958 157.305466,3.45659164 C159.466238,2.88424437 161.726688,2.77813505 163.897106,3.35691318 C165.254019,3.68488746 166.78135,4.24115756 168.167203,3.95176849 C170.273312,3.57234727 172.475884,3.75884244 174.524116,4.35691318 C177.109325,5.25401929 179.681672,6.50160772 181.864952,8.16720257 C182.504823,8.66237942 182.845659,9.32797428 183.196141,10.0321543 C183.819936,11.3151125 184.813505,12.2861736 185.511254,13.5209003 C186.21865,14.7909968 187.003215,15.9646302 187.59164,17.2893891 C188.405145,19.3086817 190.083601,20.9807074 191.463023,22.6881029 C193.765273,24.2604502 195.948553,25.9646302 198.299035,27.4565916 C198.864952,27.8199357 199.176849,28.3633441 199.55627,28.9003215 C198.717042,28.3022508 198.633441,28.3697749 197.749196,28.7974277 C197.514469,28.6237942 197.276527,28.4501608 197.038585,28.2829582 C195.536977,28.0450161 195.073955,29.7942122 194.405145,30.7717042 C195.21865,30.5176849 196.006431,30.1768489 196.823151,29.9389068 C197.318328,29.9003215 197.707395,30.5016077 198.041801,30.7942122 C197.389068,31.977492 197.302251,32.4212219 197.659164,33.7459807 C198.07074,33.1672026 198.4791,32.585209 198.893891,32.0064309 C197.800643,33.8810289 198.26045,35.9453376 197.389068,37.8649518 C197.048232,38.9163987 195.987138,39.5723473 195.189711,40.2926045 C194.807074,41.2797428 194.315113,42.0418006 193.617363,42.8360129 C193.430868,42.2411576 193.289389,41.6141479 193.025723,41.0482315 C192.688103,40.5498392 192.141479,40.7684887 191.62701,40.7909968 C189.942122,41.1125402 188.334405,41.6913183 186.78135,42.4180064 C186.700965,42.6398714 186.617363,42.8617363 186.536977,43.0836013 C187.842444,43.6463023 189.286174,43.9163987 190.700965,44.0192926 C191.601286,44.0803859 192.305466,43.2636656 192.983923,42.7652733 C192.906752,44.1864952 192.565916,45.2604502 191.836013,46.4726688 C190.996785,47.7588424 190.508039,49.170418 189.469453,50.3279743 C188.855305,49.3311897 188.109325,49.4340836 187.115756,49.7041801 C185.038585,50.3794212 183.041801,50.0192926 180.983923,49.4951768 C178.829582,48.8745981 177.131833,47.733119 175.209003,46.6527331 C174.913183,47.4855305 174.594855,48.3022508 174.157556,49.0707395 C172.848875,51.3504823 171.762058,53.5369775 169.88746,55.4244373 C168.713826,56.8424437 167.585209,58.3311897 166.713826,59.9581994 C165.672026,61.7459807 164.090032,62.8488746 162.807074,64.4083601 C161.495177,65.9678457 160.07074,67.4212219 158.758842,68.9807074 C158.717042,68.5466238 158.675241,68.1125402 158.633441,67.6784566 C156.688103,67.5016077 154.845659,69.3858521 153.22508,70.2861736 C151.324759,71.2411576 149.755627,72.6463023 147.810289,73.5401929 C144.536977,75.5369775 141.048232,77.022508 137.434084,78.2765273 C134.315113,79.14791 131.170418,79.9163987 128.045016,80.7620579 C123.755627,81.8745981 119.395498,82.5434084 115.093248,83.5498392 C112.115756,84.1897106 109.292605,85.6623794 106.575563,86.9710611 C105.549839,87.5691318 104.707395,88.5594855 104.106109,89.5691318 C103.392283,90.9196141 102.553055,92.3376206 102.215434,93.8231511 C101.720257,96.8038585 102.032154,99.7652733 103.26045,102.530547 C103.845659,103.694534 104.090032,105.051447 104.932476,105.990354 C106.292605,107.630225 107.797428,109.553055 109.675241,110.601286 C110.456592,111.080386 111.189711,111.620579 111.935691,112.151125 C113.533762,113.241158 115.475884,113.620579 117.099678,114.414791 C117.974277,114.819936 118.411576,115.540193 118.951768,116.292605 C120.620579,116.115756 122.202572,116.009646 123.778135,116.717042 C125.270096,117.418006 126.813505,118.40836 127.623794,119.88746 C126.672026,119.504823 125.684887,119.090032 124.681672,118.864952 C123.37299,118.59164 122.138264,118.762058 120.839228,118.961415 C122.710611,119.765273 124.369775,120.688103 125.37299,122.543408 C126.016077,123.681672 125.874598,124.855305 126.07074,126.173633 C125.382637,124.466238 124.504823,123.70418 122.797428,123.064309 C123.038585,123.919614 123.414791,124.826367 123.453376,125.713826 C123.427653,126.868167 123.057878,127.858521 122.672026,128.926045 C122.514469,128.102894 122.569132,126.916399 121.858521,126.347267 C121.202572,125.951768 120.356913,125.745981 119.59164,125.778135 C117.675241,125.926045 116.122186,127.282958 114.157556,127.382637 C111.919614,127.430868 109.974277,126.311897 107.713826,126.376206 C105.347267,126.154341 103.292605,127.22508 100.942122,127.167203 C99.3279743,127.315113 97.6977492,126.720257 96.4244373,125.758842 C95.4598071,124.263666 94.7299035,122.038585 94.7459807,120.254019 C94.8938907,117.11254 95.7909968,113.742765 95.4276527,110.601286 C95.1897106,108.430868 94.8617363,106.11254 93.9807074,104.102894 C93.7427653,103.559486 93.414791,102.938907 92.9292605,102.578778 C92.414791,102.29582 91.8327974,102.128617 91.2861736,101.926045 C92.1993569,99.5980707 93.1672026,97.3601286 93.4726688,94.8488746 C93.903537,92.4051447 93.2475884,89.9228296 91.8617363,87.8906752 C91.1800643,86.8649518 90.2186495,86.096463 89.4983923,85.0900322 C88.2926045,83.6688103 87.8424437,81.5948553 87.2797428,79.8231511 C86.7073955,77.8874598 87.1189711,76.0675241 87.7299035,74.2090032 C88.1768489,72.9581994 88.266881,71.6398714 88.7138264,70.392283 C89.9549839,66.7620579 90.6881029,62.8167203 89.8874598,59.0064309 C89.5369775,57.7202572 89.0257235,56.2636656 88.1061093,55.2700965 C86.8681672,54.4630225 85.4083601,53.8906752 83.9196141,53.8199357 C80.8424437,53.4790997 77.6237942,54.4855305 74.6012862,55.1125402 C72.8778135,55.414791 71.7041801,56.414791 70.1157556,57.1800643 C68.9871383,57.7266881 68.0578778,58.5144695 67.096463,59.3054662 C67.85209,56.8778135 69.5080386,55.2958199 71.3729904,53.6945338 C72.5562701,52.3954984 74.0707395,51.7073955 75.5369775,50.7974277 C77.1864952,49.7974277 79.0707395,49.1639871 80.8778135,48.5080386 C83.0064309,47.9453376 85.2700965,47.7588424 87.4662379,47.7041801 C89.5755627,47.8713826 91.7202572,48.6334405 93.1286174,50.2829582 C94.7620579,52.1382637 95.8617363,54.5080386 96.1511254,56.9678457 C96.9549839,60.8038585 97.6045016,64.6623794 98.3601286,68.5016077 C98.6173633,70.1093248 99.5273312,71.2508039 100.459807,72.5241158 C101.594855,73.9196141 103.212219,75.1157556 104.874598,75.8006431 C108.475884,76.8135048 112.482315,76.170418 116.099678,75.5337621 C119.318328,74.7717042 122.511254,73.8745981 125.73955,73.1350482 C127.92283,72.5530547 130.051447,71.7491961 132.237942,71.170418 C133.07074,70.9581994 134.009646,70.8231511 134.787781,70.4630225 C137.59164,68.9453376 140.40836,67.7588424 143.019293,65.829582 C144.045016,64.926045 145.038585,63.9935691 146.154341,63.192926 C148.900322,61.4405145 150.778135,58.2540193 151.636656,55.1672026 C152.463023,53.3279743 152.446945,51.488746 152.684887,49.5176849 C152.948553,47.1286174 152.334405,44.9614148 151.530547,42.7459807 C151.254019,42.0064309 151.080386,40.5273312 150.22508,40.2282958 C149.533762,40.8874598 148.935691,41.6366559 148.257235,42.3118971 C147.906752,41.2475884 147.617363,40.1639871 146.919614,39.2636656 C145.829582,37.9003215 144.466238,36.733119 143.019293,35.7652733 C140.5209,34.4437299 137.508039,33.829582 134.733119,33.3794212 C128.527331,33.0546624 122.22508,33.1286174 116.080386,34.1093248 C112.418006,34.5594855 108.823151,35.3826367 105.154341,35.8199357 C102.395498,36.4565916 99.585209,36.7459807 96.8199357,37.3472669 C93.7749196,37.9742765 90.8327974,38.8810289 87.7299035,39.2057878 C82.7909968,40.2765273 77.9356913,41.7652733 72.9903537,42.8102894 C70.7459807,43.4115756 68.5241158,44.0932476 66.3054662,44.7845659 C64.8778135,45.2250804 63.5980707,45.9581994 62.192926,46.4694534 C60.6623794,47.096463 59.1639871,47.2540193 57.6977492,48.0128617 C55.0418006,49.5369775 52.1864952,50.7041801 49.4340836,52.0353698 C47.414791,53.3376206 45.3215434,54.4951768 43.0578778,55.3215434 C41.681672,55.8360129 40.7845659,56.8392283 39.5434084,57.5530547 C36.9003215,59.0289389 34.3504823,60.6173633 32.0482315,62.5819936 C30.1864952,63.5691318 28.6977492,64.9903537 27.0032154,66.2154341 C25.2604502,67.4790997 24.0578778,69.2604502 22.3536977,70.5787781 C20.3890675,72.0418006 19.1189711,73.9421222 17.6366559,75.8424437 C17.1254019,76.488746 16.8488746,77.2250804 16.4565916,77.9389068 C13.0032154,83.0610932 10.2475884,88.7009646 9.27009646,94.85209 C8.94533762,97.7234727 8.90675241,100.643087 9.09003215,103.527331 C9.1511254,105.659164 9.9807074,108 11.1318328,109.78135 C12.5241158,111.215434 14.0836013,112.4791 15.85209,113.427653 C17.3633441,114.427653 18.8971061,115.163987 20.6463023,115.659164 C24.2636656,116.884244 28.0289389,117.40836 31.8327974,117.588424 C37.4244373,117.617363 42.85209,117.504823 48.2475884,115.845659 C51.903537,114.672026 55.5787781,113.967846 59.4244373,114.572347 C59,114.96463 58.5723473,115.353698 58.1543408,115.755627 C59.4630225,115.996785 60.8102894,116.151125 62.0192926,116.73955 C62.903537,117.138264 63.6334405,117.720257 64.4019293,118.29582 C64.7395498,119.581994 64.977492,120.810289 64.5948553,122.125402 C64.2893891,123.681672 62.977492,124.617363 61.6913183,125.363344 C60.1639871,126.340836 58.0418006,126.350482 56.2604502,126.569132 C52.4083601,126.665595 48.5498392,126.55627 44.6945338,126.601286 C42.3279743,126.655949 39.9807074,126.411576 37.6141479,126.437299 C33.585209,126.160772 29.3022508,126.308682 25.4115756,125.411576 C22.2475884,124.710611 18.9517685,123.980707 16.0160772,122.581994 C13.8038585,121.617363 11.3697749,120.646302 9.50160772,119.099678 C8.61093248,118.344051 7.58199357,117.868167 6.75884244,117.03537 C4.77813505,115.115756 3.27974277,112.646302 1.9903537,110.22508 C0.938906752,108.382637 0.948553055,106.305466 0.649517685,104.202572 C0.135048232,99.8745981 0.903536977,95.9903537 1.21221865,91.7073955 C1.31511254,90.4855305 1.72025723,89.2990354 1.77813505,88.0803859 C1.66237942,86.9324759 0.945337621,87.926045 0.318327974,88.0514469 C0.92926045,86.4855305 1.21864952,84.9228296 2.14790997,83.4919614 C3.35369775,81.5755627 4.414791,79.6430868 5.93890675,77.9485531 C7.1607717,76.2829582 8.49196141,74.6688103 9.50803859,72.8713826 C10.3344051,71.6045016 11.392283,70.755627 12.3826367,69.6237942 C13.437299,68.4244373 14.585209,67.3247588 15.7106109,66.1961415 C16.7717042,65.1446945 17.4051447,63.9163987 18.6752412,63.0610932 C20.1511254,62.073955 21.392283,60.8456592 22.7909968,59.7717042 C24.8938907,58.3054662 26.4308682,56.4051447 28.807074,55.1864952 C31.0578778,54.0868167 32.8135048,52.3344051 35.0257235,51.0932476 C36.8874598,49.9421222 38.8488746,48.9614148 40.6784566,47.7588424 C41.6270096,47.1414791 42.7427653,46.8842444 43.7138264,46.2926045 C45.5594855,45.1897106 47.5369775,44.3633441 49.3987138,43.2893891 C52.2958199,41.8745981 55.2958199,40.6623794 58.2765273,39.437299 C60.2540193,38.9903537 62.1575563,38.5241158 64.0643087,37.8135048 C66.562701,36.8424437 69.1672026,36.2250804 71.6945338,35.340836 C74.0643087,34.4437299 76.5755627,33.8392283 79.0257235,33.2057878 C81.807074,32.4405145 84.6109325,31.7524116 87.4405145,31.1897106 C87.1832797,30.7427653 86.926045,30.2958199 86.6559486,29.8553055 C87.5787781,29.5466238 88.4598071,29.2025723 89.3954984,29.0289389 C95.0514469,28.073955 100.836013,28.1768489 106.430868,27.0128617 C109.459807,26.5916399 112.424437,25.8842444 115.440514,25.3987138 C118.823151,24.807074 122.080386,23.7073955 125.482315,23.2315113 C127.273312,22.9678457 128.990354,21.9581994 130.710611,21.3344051 C132.926045,20.4951768 134.987138,19.5337621 137.061093,18.3890675 C138.700965,17.6398714 140.067524,16.4855305 141.652733,15.6463023 C142.414791,15.2540193 143.022508,14.6848875 143.646302,14.1093248 C142.446945,12.3697749 140.807074,11.266881 139.858521,9.34083601 C138.508039,7.0096463 138.411576,4.79421222 136.70418,2.86173633 C135.707395,1.86495177 135.128617,0.704180064 133.787781,0.0964630225 Z" id="Shape" fill="#182854" fill-rule="nonzero"></path>
                <path d="M140.282958,5.87138264 C141.771704,6.15434084 142.919614,7.7170418 144.118971,8.59163987 C145.453376,9.71061093 146.980707,9.99678457 148.540193,10.6270096 C149.318328,10.9163987 149.469453,11.5659164 149.871383,12.2186495 C149.385852,12.8585209 149.118971,13.4823151 148.241158,13.6173633 C146.430868,13.9839228 144.749196,12.6430868 143.630225,11.3697749 C142.237942,9.63344051 140.839228,8.08038585 140.282958,5.87138264 Z" id="Shape" fill="#9A936B" fill-rule="nonzero"></path>
                <path d="M174.900322,11.7009646 C175.337621,12.3022508 175.762058,12.8938907 176.299035,13.4115756 C177.363344,14.4790997 178.726688,15.1254019 179.755627,16.2411576 C175.954984,15.1800643 171.440514,14.659164 167.623794,15.8906752 C165.987138,16.8778135 164.620579,18.2572347 163.688103,19.9292605 C163.562701,18.9646302 163.311897,17.9453376 163.540193,16.9839228 C163.935691,14.8263666 165.678457,12.778135 167.85209,12.2861736 C170.353698,11.9614148 172.646302,12.585209 174.926045,13.5530547 C174.919614,12.9356913 174.913183,12.318328 174.900322,11.7009646 Z" id="Shape" fill="#9A936B" fill-rule="nonzero"></path>
                <path d="M145.009646,15.7299035 C146.363344,15.4726688 148.041801,15.4790997 149.115756,16.4726688 C149.996785,17.2347267 150.909968,18.0578778 151.221865,19.221865 C151.530547,20.2411576 151.842444,21.2540193 152.199357,22.2572347 C152.263666,21.4501608 152.234727,20.511254 152.55627,19.7652733 C152.919614,18.8681672 153.578778,18.2250804 154.215434,17.5241158 C154.350482,19.3376206 154.575563,21.3344051 155.546624,22.9196141 C156.633441,24.4790997 158.189711,25.7524116 159.855305,26.6527331 C161.829582,27.6237942 163.813505,26.6720257 165.752412,27.7395498 C164.575563,27.903537 163.530547,27.9871383 162.681672,28.9131833 C161.4791,30.2733119 161.369775,32.3697749 161.594855,34.0803859 C161.951768,36.9131833 162.463023,39.9324759 161.167203,42.607717 C160.765273,40.7845659 160.456592,38.9549839 159.919614,37.1672026 C159.385852,35.4565916 159.289389,33.8456592 158.44373,32.244373 C157.565916,30.5948553 156.691318,29.0289389 155.18328,27.8778135 C155.14791,28.7813505 155.080386,29.6430868 154.823151,30.511254 C153.755627,28.4662379 152.26045,26.8199357 150.33119,25.5562701 C147.900322,24.2282958 145.228296,23.3633441 142.446945,23.2508039 C139.279743,22.8810289 136.186495,22.6913183 132.996785,22.6205788 C134.684887,21.9067524 136.257235,20.9678457 137.942122,20.2475884 C139.55627,19.4855305 141.180064,18.607717 142.578778,17.488746 C143.334405,16.8971061 144.038585,15.8971061 145.009646,15.7299035 Z" id="Shape" fill="#9A936B" fill-rule="nonzero"></path>
                <path d="M176.527331,17.1575563 C178.707395,16.8713826 180.96463,18.5434084 182.897106,19.4437299 C181.302251,19.5659164 179.726688,19.4405145 178.138264,19.6527331 C177.199357,19.7524116 176.125402,19.8874598 175.424437,19.1061093 C174.897106,18.2282958 175.533762,17.1864952 176.527331,17.1575563 Z" id="Shape" fill="#FFFFFF" fill-rule="nonzero"></path>
                <path d="M179.472669,23.9485531 C182.823151,23.733119 186.299035,24.1897106 189.463023,25.3215434 C190.707395,25.733119 191.401929,27.0482315 190.996785,28.2990354 C190.848875,29.3440514 189.266881,29.5305466 188.463023,29.8810289 C188.482315,29.3440514 188.508039,28.807074 188.533762,28.2733119 C187.032154,26.5209003 185.080386,26.5144695 182.954984,26.2475884 C180.909968,26.0321543 179.122186,26.5594855 177.273312,25.4405145 C177.826367,24.3697749 178.299035,24.1157556 179.472669,23.9485531 Z" id="Shape" fill="#9A936B" fill-rule="nonzero"></path>
                <path d="M197.038585,28.2829582 C197.276527,28.4501608 197.514469,28.6237942 197.749196,28.7974277 C198.633441,28.3697749 198.717042,28.3022508 199.55627,28.9003215 C199.951768,30.0900322 199.649518,31.0643087 198.893891,32.0064309 C198.4791,32.585209 198.07074,33.1672026 197.659164,33.7459807 C197.302251,32.4212219 197.389068,31.977492 198.041801,30.7942122 C197.707395,30.5016077 197.318328,29.9003215 196.823151,29.9389068 C196.006431,30.1768489 195.21865,30.5176849 194.405145,30.7717042 C195.073955,29.7942122 195.536977,28.0450161 197.038585,28.2829582 Z" id="Shape" fill="#9A936B" fill-rule="nonzero"></path>
                <path d="M186.109325,29.340836 C186.787781,29.5562701 186.78135,30.1189711 187.067524,30.6848875 C185.247588,30.829582 183.491961,30.3890675 181.675241,30.6109325 C179.5209,30.8263666 177.389068,31.221865 175.244373,31.4919614 C173.215434,31.7363344 171.488746,32.6463023 169.569132,33.2347267 C170.971061,31.8713826 172.688103,31.4533762 174.540193,31.0803859 C175.913183,30.6655949 177.498392,30.5884244 178.745981,29.8842444 C178.855305,29.5466238 178.961415,29.2090032 179.07074,28.8713826 C181.427653,28.5080386 183.85209,28.5048232 186.109325,29.340836 Z" id="Shape" fill="#9A936B" fill-rule="nonzero"></path>
                <path d="M182.958199,31.9324759 C184.337621,31.9389068 185.594855,31.807074 186.861736,32.4823151 C185.662379,33.2700965 184.340836,33.1414791 182.951768,33.2508039 C180.813505,33.2926045 178.646302,33.4212219 176.533762,33.778135 C174.14791,34.2797428 171.819936,35.3601286 169.511254,36.0482315 C171.501608,34.585209 173.723473,33.7877814 176.03537,32.9871383 C178.286174,32.3858521 180.620579,31.9581994 182.958199,31.9324759 Z" id="Shape" fill="#FFFFFF" fill-rule="nonzero"></path>
                <path d="M190.485531,34.9967846 C190.958199,35.4726688 191.771704,36.0128617 191.85209,36.7170418 C192.019293,37.6109325 191.33119,38.3826367 190.575563,38.7363344 C189.983923,38.8874598 189.292605,38.7299035 188.688103,38.6784566 C189.135048,38.1093248 189.662379,37.5594855 190.009646,36.926045 C190.250804,36.3151125 190.347267,35.6366559 190.485531,34.9967846 Z" id="Shape" fill="#9A936B" fill-rule="nonzero"></path>
                <path d="M185.360129,36.2122186 C186.151125,36.0032154 186.942122,35.7073955 187.723473,36.0996785 C187.607717,36.511254 187.504823,36.733119 187.11254,36.9389068 C185.871383,37.6109325 184.356913,37.8327974 183.03537,38.3440514 C181.778135,38.8392283 180.472669,39.1511254 179.170418,39.5048232 C181.40836,38.5369775 183.048232,36.8938907 185.360129,36.2122186 Z" id="Shape" fill="#FFFFFF" fill-rule="nonzero"></path>
                <path d="M171.942122,39.0128617 C172.78135,39.1897106 173.286174,39.7299035 173.450161,40.5659164 C174.022508,43.0868167 172.697749,45.9163987 171.633441,48.1543408 C170.376206,50.6109325 169.016077,53.2765273 167.016077,55.2154341 C167.231511,54.562701 167.463023,53.9196141 167.768489,53.3054662 C169.038585,50.7652733 170.221865,48.0482315 170.839228,45.2700965 C170.945338,44.1061093 171.199357,42.2347267 170.18328,41.3858521 C169.70418,40.8392283 168.726688,41.022508 168.067524,40.9356913 C168.311897,40.4019293 168.488746,39.7041801 168.916399,39.2893891 C169.790997,38.807074 170.987138,38.8392283 171.942122,39.0128617 Z" id="Shape" fill="#9A936B" fill-rule="nonzero"></path>
                <polygon id="Shape" fill="#9A936B" fill-rule="nonzero" points="71.4919614 55.3376206 71.7419614 55.2057878 71.9919614 55.340836 71.9919614 55.607717 71.7419614 55.7395498 71.4919614 55.6045016"></polygon>
                <path d="M90.4983923,71.8199357 C90.7717042,73.5691318 90.8488746,75.5980707 91.6205788,77.2057878 C91.9196141,77.8327974 92.4630225,78.0836013 93.0032154,78.4630225 C93.681672,80.3569132 93.8327974,82.2990354 94.2958199,84.2411576 C94.6012862,85.5434084 94.8102894,86.8392283 94.8938907,88.1768489 C93.4758842,86.4405145 91.7942122,85.2572347 90.6495177,83.2958199 C89.7845659,81.829582 89.0868167,79.8199357 88.8456592,78.1414791 C88.7652733,76 89.5691318,73.7266881 90.4983923,71.8199357 Z" id="Shape" fill="#9A936B" fill-rule="nonzero"></path>
                <path d="M53.3762058,117.234727 C56.1061093,117.289389 58.926045,117.533762 61.5434084,118.353698 C61.5916399,118.778135 61.6430868,119.199357 61.6945338,119.620579 C59.7234727,120.819936 57.8971061,120.289389 55.7974277,119.832797 C53.6334405,119.263666 51.4212219,119.019293 49.1961415,118.845659 C47.1736334,118.697749 45.3794212,119.025723 43.5369775,118.463023 C46.8167203,118.054662 50.0803859,117.347267 53.3762058,117.234727 Z" id="Shape" fill="#9A936B" fill-rule="nonzero"></path>
                <path d="M96.511254,117.446945 C97.4823151,119.437299 98.096463,121.524116 99.6559486,123.186495 C100.424437,123.881029 101.37299,124.379421 102.199357,125.009646 C100.501608,125.337621 98.4951768,125.405145 97.3954984,123.81672 C96.2636656,121.993569 96.0771704,119.514469 96.511254,117.446945 Z" id="Shape" fill="#9A936B" fill-rule="nonzero"></path>
            </g>
        </g>
    </g>
</svg>