<?xml version="1.0" encoding="UTF-8"?>
<svg width="200px" height="200px" viewBox="0 0 200 200" version="1.1" xmlns="http://www.w3.org/2000/svg" xmlns:xlink="http://www.w3.org/1999/xlink">
    <!-- Generator: Sketch 54.1 (76490) - https://sketchapp.com -->
    <title>point-loma</title>
    <desc>Created with Sketch.</desc>
    <g id="point-loma" stroke="none" stroke-width="1" fill="none" fill-rule="evenodd">
        <g id="point-loma_BGL" transform="translate(0.000000, 0.000000)">
            <g id="point-loma" transform="translate(12.000000, 0.000000)">
                <g id="g10" transform="translate(87.677653, 99.762798) scale(-1, 1) rotate(-180.000000) translate(-87.677653, -99.762798) translate(0.000000, 0.361468)" fill-rule="nonzero">
                    <g id="g12">
                        <path d="M174.864054,116.663469 C174.864054,148.074418 163.080435,176.687801 143.760407,198.194634 L31.1036476,198.194634 C11.7857204,176.687801 0,148.074418 0,116.663469 C0,60.9821998 37.0278203,14.0933014 87.4308667,0 C137.837008,14.0933014 174.864054,60.9821998 174.864054,116.663469" id="path14" fill="#FAB217"></path>
                        <path d="M136.680436,12.5260264 L138.806619,12.5260264 L140.508597,9.7449837 L142.238941,12.5260264 L144.336758,12.5260264 L144.336758,5.32507127 L142.349828,5.32507127 L142.349828,9.53369778 L140.531806,6.68458456 L140.463469,6.68458456 L138.64029,9.53369778 L138.64029,5.32507127 L136.680436,5.32507127 L136.680436,12.5260264 Z M131.406883,10.77016 L129.254913,10.77016 L129.254913,12.5260264 L135.557389,12.5260264 L135.557389,10.77016 L133.414444,10.77016 L133.414444,5.32507127 L131.406883,5.32507127 L131.406883,10.77016 L131.406883,10.77016 Z" id="path16" fill="#FAB217"></path>
                        <path d="M40.7942202,177.84318 L134.069447,177.84318 C147.330692,160.327891 154.588597,138.813312 154.588597,116.755254 C154.588597,96.7347929 148.791557,77.8407946 138.550033,61.9025012 C137.361227,62.377433 136.172422,62.8464266 135.001667,63.3405932 C113.764334,72.3685577 103.950497,81.4402845 113.07181,83.603619 C118.350262,84.8577539 128.793702,83.5239688 140.770341,80.4393002 C125.449316,89.0824396 108.032665,95.9919939 89.6262893,100.20661 C63.5784189,106.175725 39.9077734,105.747008 21.6197621,100.224296 C20.7383438,105.621014 20.2724918,111.142693 20.2724918,116.755254 C20.2724918,138.814603 27.5302674,160.329182 40.7942202,177.84318" id="path18" fill="#FFFFFF"></path>
                        <path d="M70.3350136,112.516884 L70.3350136,149.047777 L102.99855,149.047777 L102.99855,112.516884 L96.4660489,112.516884 L96.4660489,142.979132 L76.8740904,142.979132 L76.8740904,112.516884 L70.3350136,112.516884 Z M96.4660489,60.0346599 L96.4660489,92.9008707 L106.86926,92.9008707 C115.990573,92.9008707 123.384378,100.304979 123.384378,109.434797 L123.384378,153.116777 C123.384378,162.251372 115.990573,169.652252 106.86926,169.652252 L50.7364793,169.652252 L50.7364793,112.516884 L35.6427713,112.516884 L46.4881102,92.9008707 L50.7364793,92.9008707 L50.7364793,57.6424442 L70.3350136,57.6424442 L70.3350136,92.9008707 L76.8740904,92.9008707 L76.8740904,39.7126388 L118.564299,39.7126388 L129.50892,60.0346599 L96.4660489,60.0346599 L96.4660489,60.0346599 Z" id="path20" fill="#1E513D"></path>
                        <path d="M84.9956199,105.018409 L62.2209625,105.018409 L62.2209625,158.87689 L104.335763,158.87689 C108.213952,158.87689 111.369445,155.715411 111.369445,151.832305 L111.369445,112.064544 C111.369445,108.180146 108.213952,105.018409 104.335763,105.018409 L88.3661809,105.018409 L88.3661809,134.315725 L84.9956199,134.315725 L84.9956199,105.018409 Z M88.3661809,51.7081848 L88.3661809,101.64638 L104.335763,101.64638 C110.075039,101.64638 114.744003,106.318372 114.744003,112.064544 L114.744003,151.832305 C114.744003,157.578218 110.075039,162.251372 104.335763,162.251372 L58.8515619,162.251372 L58.8515619,105.047584 L48.2972354,105.047584 L50.1623196,101.671554 L58.8515619,101.671554 L58.8515619,64.1605896 L62.2209625,64.1605896 L62.2209625,101.64638 L84.9956199,101.64638 L84.9956199,48.3295723 L114.540024,48.3295723 L116.519475,51.7081848 L88.3661809,51.7081848 L88.3661809,51.7081848 Z" id="path22" fill="#FAB217"></path>
                        <path d="M169.932186,116.297878 C169.932186,63.2952817 134.993931,18.6629225 87.4333165,5.24489183 C39.8724444,18.6629225 4.93186801,63.2952817 4.93186801,116.297878 C4.93186801,145.815297 15.7782384,172.725948 33.5943376,193.105803 L141.271909,193.105803 C159.085945,172.725948 169.932186,145.815297 169.932186,116.297878 Z M38.3085587,182.932012 C23.3850485,164.181307 15.1914428,140.778102 15.1914428,116.755254 C15.1914428,70.8758595 44.1511139,30.6015387 87.4333165,16.0215581 C130.70933,30.6015387 159.672611,70.8758595 159.672611,116.755254 C159.672611,140.778102 151.478619,164.181307 136.555367,182.932012 L38.3085587,182.932012 L38.3085587,182.932012 Z" id="path24" fill="#1E513D"></path>
                    </g>
                </g>
            </g>
        </g>
    </g>
</svg>