<?xml version="1.0" encoding="UTF-8"?>
<svg width="200px" height="200px" viewBox="0 0 200 200" version="1.1" xmlns="http://www.w3.org/2000/svg" xmlns:xlink="http://www.w3.org/1999/xlink">
    <!-- Generator: Sketch 54.1 (76490) - https://sketchapp.com -->
    <title>post</title>
    <desc>Created with Sketch.</desc>
    <g id="post" stroke="none" stroke-width="1" fill="none" fill-rule="evenodd">
        <g id="post_BGL">
            <g id="post" transform="translate(0.000000, 19.000000)">
                <g id="g10" transform="translate(100.000000, 81.058937) scale(-1, 1) rotate(-180.000000) translate(-100.000000, -81.058937) translate(0.000000, 0.058937)" fill-rule="nonzero">
                    <g id="g12" transform="translate(-0.000000, 0.000000)">
                        <path d="M187.957527,77.9555427 C181.943768,81.1309867 167.189129,85.2043833 167.189129,85.2043833 C169.796648,89.4769926 171.492573,108.681776 145.323565,111.97757 C114.68068,141.37005 86.7890232,116.60936 37.2842765,161.715542 C37.2842765,161.715542 31.7057584,147.346433 31.3990903,135.720705 C31.1232573,135.903846 30.866299,136.079512 30.6267204,136.260784 L16.8393654,146.359713 C16.8393654,146.359713 5.53176089,116.904442 11.625074,93.4875978 L1.93434458,101.432188 C-1.57475282,80.3761834 1.22478458,41.5835147 51.8696039,13.7114806 C51.8696039,13.7114806 56.3832868,17.9162529 66.1286408,21.3297805 C69.3274447,22.446568 73.0943601,23.4831846 77.4559237,24.2555545 C79.0182302,24.530827 80.6642584,24.7694711 82.382048,24.9709265 L80.9111253,22.2282936 L76.5383489,14.0415085 C76.5383489,14.0415085 83.7522432,15.794992 92.2808296,17.159207 C96.8410453,17.8870998 101.775766,18.5075373 106.183489,18.6878754 C106.183489,18.6878754 109.380798,13.5311426 115.443519,8.72275185 C115.934075,8.33647344 116.436219,7.95542763 116.956115,7.57438182 C117.655416,7.07149105 118.385364,6.57439352 119.145961,6.09467572 C119.529249,5.85752656 119.919826,5.62093804 120.316196,5.38883461 C120.710323,5.15747869 121.119214,4.93266353 121.53315,4.71214658 C125.864253,2.39298105 131.072751,0.697056223 137.091555,0.596328566 C137.315623,0.592030354 137.545484,0.588292779 137.777774,0.589787809 C138.848589,0.596328566 139.9508,0.649028379 141.075063,0.759847489 C141.075063,0.759847489 140.750268,1.60528704 140.396133,3.2543053 C139.626005,6.88012719 138.691611,14.3934012 140.666359,25.3220717 C140.679441,25.4220518 140.694017,25.5169862 140.712331,25.6169664 C141.464145,29.6845697 142.615318,34.2111472 144.312551,39.1787587 C144.312551,39.1787587 152.165944,38.2787505 154.702637,33.7484354 C154.702637,33.7484354 153.541933,26.3177618 146.115744,18.7798197 C161.135378,16.6176323 198.226515,30.3861126 199.065601,46.1299014 C199.809378,59.9464094 193.27049,75.5537767 187.957527,77.9555427 L187.957527,77.9555427 Z" id="path76" fill="#5B254B"></path>
                        <path d="M124.712145,67.9369718 C116.664024,70.455537 110.951887,73.4426073 110.951887,73.4426073 C110.807991,65.6221045 113.519975,64.4535516 124.712145,67.9369718" id="path30" fill="#F47216"></path>
                        <path d="M129.099498,14.5006696 C129.099498,14.5006696 115.558075,19.3346628 112.371605,35.4645431 L100.834084,32.0278425 L108.0377,30.4466613 C108.267561,30.0641204 115.185813,12.6886931 133.612994,7.32994439 C132.050874,15.9299185 132.70196,28.1106767 135.82134,38.0627186 C131.747944,34.8792388 128.369549,21.8509854 129.099498,14.5006696" id="path32" fill="#F47216"></path>
                        <path d="M31.778828,87.2307098 L52.193091,73.6608817 C51.8098026,74.1637724 39.3027541,90.3383168 35.1805822,110.049729 C35.8045704,109.785482 36.4266899,109.527776 37.0471274,109.275864 C38.2625869,108.783064 39.4546866,108.320353 40.6204363,107.886046 C57.9016768,101.444522 69.5464667,101.194105 69.5464667,101.194105 C69.5173136,101.218959 64.4839208,107.424643 62.5590695,114.331869 C88.4716796,101.642427 103.115313,119.207536 127.464309,98.9618376 C130.336822,96.5739007 133.299224,93.6613951 136.399543,90.1149967 C136.419913,90.2616965 136.43449,90.3915773 136.454299,90.5332314 C136.481957,90.6989928 136.508867,90.8698 136.523631,91.0290207 C136.530919,91.0880744 136.532975,91.1413349 136.540263,91.1938478 C136.540263,91.1938478 136.540263,91.2297285 136.545496,91.2472951 C136.547738,91.3121421 136.555026,91.3713827 136.562315,91.4304363 C136.576891,91.5954503 136.591468,91.767005 136.600251,91.9260388 C136.602307,91.9619196 136.602307,91.9968659 136.607539,92.0267665 L136.61109,92.1626274 C136.620621,92.375856 136.629404,92.5881503 136.633142,92.7948382 C136.635197,92.8714585 136.629404,92.9488263 136.631647,93.0254466 C136.633142,93.1203811 136.629404,93.214568 136.631647,93.3095024 C136.627909,93.4160233 136.627909,93.5217967 136.624358,93.6232718 C136.625667,93.6699915 136.620621,93.7234388 136.620621,93.7707192 L136.614828,93.835753 C136.607539,94.0314151 136.598756,94.2263296 136.584179,94.4161984 C136.578386,94.4810454 136.573154,94.5402859 136.569603,94.6051329 C136.563623,94.665121 136.552784,94.7241747 136.547738,94.7892085 C136.538207,94.913296 136.529424,95.0431767 136.512605,95.1622185 C136.507559,95.2037056 136.507559,95.2388388 136.501579,95.2745326 L136.496533,95.3162066 C136.49074,95.3578806 136.485507,95.3935744 136.479714,95.4287076 C136.460092,95.5769025 136.443273,95.7249105 136.421408,95.8673121 C136.421408,95.8673121 136.416175,95.9031928 136.410382,95.9265527 L136.405336,95.9798131 C136.388517,96.0629742 136.377492,96.1461352 136.36142,96.2294831 C136.344788,96.32367 136.328716,96.4243977 136.311897,96.5198927 L136.306664,96.555026 C136.24107,96.9170101 136.173233,97.2259207 136.105957,97.5047439 C136.065778,97.6529387 136.030831,97.7953404 135.997941,97.9317619 C135.968788,98.0390303 135.94169,98.145738 135.912537,98.2404856 C135.752008,98.7872929 135.625678,99.1268516 135.607364,99.180112 C135.607364,99.180112 135.631471,99.1675912 135.643992,99.1617979 C136.13511,98.887273 136.614828,98.6019091 137.076979,98.3100045 C137.249842,98.2004935 137.412613,98.08575 137.578375,97.976239 C137.914196,97.7579646 138.237496,97.5331494 138.55519,97.3040361 C138.679277,97.2126523 138.80486,97.122203 138.931003,97.0310062 C139.863341,96.3294633 140.735691,95.5935347 141.527684,94.8467671 L141.545998,94.8293874 C141.772308,94.6124211 141.973016,94.4021825 142.1883,94.1911964 C142.354809,94.0233793 142.533652,93.8548146 142.694181,93.6860631 C142.717541,93.6619557 142.741648,93.6328026 142.770801,93.6086953 C143.075227,93.2839 143.36003,92.9656454 143.639601,92.6473909 C143.681088,92.6057169 143.721267,92.5634823 143.757895,92.5218084 C143.794336,92.485367 143.823489,92.443693 143.858622,92.4012716 C144.166599,92.0480707 144.45869,91.6939354 144.736018,91.3465278 C144.760126,91.3166272 144.783485,91.2859791 144.807593,91.2566391 C145.074082,90.9150247 145.329545,90.5851837 145.564639,90.2566508 C145.582766,90.2325434 145.606873,90.2018953 145.630233,90.1727422 C146.055756,89.5915493 146.433251,89.035398 146.771315,88.5155013 C147.395303,87.5476562 147.871283,86.7109999 148.199816,86.0913099 C148.356794,85.7926776 148.479387,85.5422601 148.574321,85.3510831 C148.593944,85.3086616 148.610763,85.2722203 148.629077,85.2357789 C148.610763,85.2722203 148.593944,85.3071666 148.574321,85.3495881 C148.607212,85.2817511 148.629077,85.2327888 148.652437,85.1823316 L148.678039,85.1247729 L148.685327,85.1189797 C148.696166,85.0948723 148.707192,85.0655323 148.720274,85.0416119 L148.725506,85.029091 C148.736345,84.9999379 148.749427,84.9758305 148.754659,84.9582639 C148.765498,84.9459299 148.765498,84.9341566 148.765498,84.9341566 C136.941865,131.932672 79.1787591,106.827565 45.2668032,138.421103 C43.5293913,129.800385 43.0207072,116.78241 43.0207072,116.78241 C43.0207072,116.78241 30.0027322,121.459612 23.1261541,126.500106 C23.1261541,126.500106 16.1677231,99.0698536 27.6519841,71.6431516 C27.3638171,71.7958316 20.5003205,75.4879954 15.1968879,81.1171577 C15.1968879,81.1171577 15.7384626,75.7457012 18.8468171,67.8588565 C18.8468171,67.8588565 18.8628887,67.8231627 18.868682,67.8055961 L18.8761571,67.7940096 C19.4724873,66.2756196 20.1695451,64.6615477 20.9763007,62.9803862 C25.5204449,59.9479045 32.1159573,55.8109691 40.1022215,51.5792863 C40.1022215,51.6026461 33.6074367,76.1786993 31.778828,87.2307098" id="path44" fill="#F47216"></path>
                        <path d="M189.775857,51.2638349 C189.450688,56.1000706 188.264008,62.724923 184.986154,68.810817 C184.750687,69.2400775 184.509614,69.6700856 184.257327,70.0941135 C184.005041,70.5183283 183.739673,70.9423562 183.461224,71.3547977 C183.175299,71.7863007 182.844524,72.1826706 182.468897,72.5338158 C182.097009,72.8842135 181.682138,73.188639 181.226154,73.4390566 C181.100945,73.5061461 180.97013,73.572488 180.837446,73.6397644 C180.824364,73.6470526 180.813152,73.6543409 180.80007,73.6608817 C180.766432,73.6784483 180.736531,73.6960149 180.704762,73.7133946 C180.69168,73.7193747 180.686074,73.7199354 180.686074,73.7199354 L180.67673,73.7259155 L180.674861,73.7259155 C180.573947,73.7746908 180.471163,73.8236531 180.362774,73.8726153 C180.243171,73.9346591 180.123569,73.9894146 179.996491,74.0449175 C179.88997,74.0936929 179.774106,74.1434027 179.665716,74.1923649 C179.59844,74.223013 179.534901,74.2471204 179.469119,74.2732834 C179.418102,74.2945876 179.365589,74.3171999 179.310833,74.3398122 L179.296257,74.344858 L179.292519,74.346353 C179.286726,74.3521462 179.281493,74.3521462 179.281493,74.3521462 C179.230475,74.3704604 179.184503,74.3887745 179.140587,74.4069017 C179.12601,74.4134425 179.109938,74.4194226 179.095362,74.4259634 L179.051632,74.44353 C179.007903,74.4596015 178.965481,74.4754862 178.920257,74.4938004 C178.781592,74.5500509 178.65003,74.5997606 178.505573,74.6550767 C178.385223,74.6982457 178.257398,74.7419754 178.139103,74.7909376 C178.055195,74.8223332 177.969044,74.8529813 177.890928,74.8785837 C177.83038,74.9026911 177.770391,74.9215659 177.709843,74.9406275 C177.644248,74.9647348 177.578467,74.9894028 177.511377,75.0084645 C177.445596,75.0333194 177.385047,75.0581742 177.319266,75.077049 C177.175556,75.1267587 177.029604,75.1704884 176.887202,75.2201981 C176.850761,75.2332796 176.81787,75.2443055 176.781242,75.255892 C176.750033,75.2661703 176.719198,75.2764486 176.687803,75.2887826 C176.655099,75.2975659 176.624451,75.3078443 176.59156,75.3186832 C176.558669,75.3297091 176.522228,75.3412956 176.489337,75.3508264 C176.4215,75.3711962 176.355719,75.3925004 176.28863,75.4136177 C176.228081,75.4332399 176.169588,75.4523016 176.107544,75.4698682 L176.074653,75.4786515 C176.062319,75.4822022 176.049238,75.4851922 176.036717,75.4887429 C175.903099,75.5326594 175.771723,75.5705958 175.638852,75.6135779 C175.481874,75.658242 175.332371,75.7019716 175.180439,75.7457012 C175.041775,75.7836376 174.908904,75.8210134 174.777528,75.864743 C174.691377,75.8851128 174.613262,75.9099677 174.530848,75.93258 C174.463572,75.9523891 174.390689,75.9705164 174.324908,75.9903255 L174.319114,75.9903255 L174.313882,75.9903255 C174.18045,76.0282619 174.047579,76.0654508 173.916017,76.097594 C173.759226,76.1420711 173.602247,76.1859876 173.445269,76.223924 C173.318939,76.2553196 173.186068,76.293256 173.059738,76.3253992 C173.02909,76.33493 172.999937,76.3422183 172.968541,76.350254 C172.921074,76.362588 172.873607,76.3764171 172.829877,76.3881904 C172.77886,76.3997769 172.733448,76.4115503 172.685981,76.4223893 C172.653277,76.430425 172.620386,76.4377133 172.588991,76.4451885 C172.548812,76.4567749 172.514426,76.4663058 172.477985,76.4758366 C172.477985,76.4758366 172.426967,76.4881706 172.401364,76.4954589 C172.375762,76.5012521 172.351655,76.5077928 172.326239,76.5145205 C172.288303,76.5231169 172.251674,76.5326477 172.215233,76.539936 C172.149452,76.5589976 172.088903,76.5720791 172.029102,76.5853475 C171.931925,76.6100155 171.840728,76.6290772 171.751587,76.6479519 C171.689543,76.6677611 171.623949,76.6800951 171.5634,76.6933635 C171.503412,76.7114907 171.442863,76.7247591 171.383062,76.7378406 C171.300462,76.7567154 171.226084,76.7765245 171.147221,76.7955862 C171.096203,76.8079202 171.044998,76.8202542 170.997531,76.832775 C170.986692,76.8348307 170.979404,76.8355782 170.979404,76.8355782 C170.957352,76.8408108 170.941281,76.845109 170.930442,76.8458565 C170.815137,76.8714589 170.701889,76.8968744 170.587332,76.9224768 C170.423066,76.9604132 170.260294,76.9983496 170.103316,77.0312403 C170.006887,77.0560952 169.917185,77.0759043 169.820755,77.0955266 C169.780763,77.1050574 169.744135,77.1138407 169.707694,77.122624 C169.674803,77.1299123 169.639857,77.1372005 169.609209,77.1459838 C169.56903,77.1545803 169.526608,77.1633636 169.485121,77.1721469 C169.435411,77.1824252 169.386449,77.1932642 169.336926,77.2035425 C169.260119,77.216624 169.174716,77.2364332 169.090807,77.2553079 C168.860946,77.3065127 168.632393,77.3517374 168.415614,77.3962145 C167.97757,77.4612483 167.543264,77.5006798 167.110266,77.5262821 C166.075892,77.5883259 165.055347,77.548147 164.053864,77.4107911 C163.799895,77.3750972 163.544245,77.3313676 163.292519,77.2846479 C162.734126,77.1801827 162.181338,77.0488069 161.635465,76.8933238 C161.32506,76.8056776 161.018579,76.7114907 160.714153,76.609268 C159.61923,76.2342023 158.553274,75.7567271 157.516844,75.2071166 C157.073007,74.9705281 156.648045,74.6945081 156.217289,74.4332516 C161.266754,74.2973908 170.362517,73.4280307 177.242646,69.307167 C177.242646,69.307167 160.61193,71.7438793 147.619558,67.1178822 C147.385959,66.8596157 147.134047,66.5989199 146.911474,66.341214 C146.433251,65.7908561 145.975585,65.2447963 145.542587,64.7082673 L145.539036,64.7024741 C142.511787,60.9568629 140.735691,57.8470133 140.735691,57.8470133 C139.206275,60.7632565 138.879985,63.5365375 139.011361,65.7813252 C137.48344,63.6781916 135.208191,61.0495548 131.996119,58.5076298 C129.796743,56.7651721 127.168666,55.0649491 124.047978,53.6218712 C118.985432,51.2763558 112.645383,49.5972501 104.800212,49.4630711 C104.800212,49.4630711 100.427436,46.7226808 97.9030774,39.9591644 C110.207176,44.6187996 118.762859,47.9153411 127.194269,48.9446694 C129.354961,49.210411 131.507057,49.3279577 133.716712,49.2789955 C135.92132,49.2302202 138.182927,49.0207291 140.560399,48.6264148 C142.341541,48.3300251 144.190706,47.9381403 146.125275,47.4328201 C146.603311,47.3094802 147.086579,47.1795994 147.575641,47.0424304 C147.086579,47.1795994 146.603311,47.3102277 146.126583,47.4335677 C144.190706,47.9373928 142.341541,48.3322677 140.560399,48.6271624 C138.184235,49.019234 135.923563,49.2322758 133.715217,49.2804905 C131.508552,49.3287053 129.353466,49.2126535 127.190531,48.9476595 C135.304434,51.2296361 142.876761,51.6164752 142.876761,51.6164752 L138.7815,54.6891359 C155.426792,60.2515825 164.540683,55.3919869 169.417097,49.6097709 C169.422891,49.6039777 169.422891,49.6039777 169.422891,49.6039777 C173.742406,44.4939646 174.755663,38.6708222 174.755663,38.6708222 C183.732198,42.308978 187.107229,47.0657902 189.773989,51.2660775 C189.790808,51.0033259 189.805758,50.7448726 189.820708,50.49296 C189.912279,48.7271425 189.887985,47.2431382 189.816971,46.162792 C189.775857,45.5188078 189.588979,44.889587 189.245122,44.3399765 C188.656454,43.385026 187.557606,41.90831 185.96353,40.2613474 C187.557606,41.9075625 188.658322,43.383531 189.24699,44.3369865 C189.590847,44.8873444 189.777726,45.5167521 189.818839,46.1605495 C189.886116,47.2416432 189.914148,48.7249 189.824446,50.494455 C189.809496,50.7433775 189.788939,51.0040734 189.775857,51.2638349" id="path54" fill="#F47216"></path>
                        <path d="M189.816971,46.162792 C189.887985,47.2431382 189.912279,48.7271425 189.820708,50.49296 C189.805758,50.7448726 189.790808,51.0033259 189.773989,51.2660775 C187.107229,47.0657902 183.732198,42.308978 174.755663,38.6708222 C174.755663,38.6708222 173.742406,44.4939646 169.430366,49.5979976 C169.430366,49.5979976 169.422891,49.6039777 169.417097,49.6097709 C164.540683,55.3919869 155.426792,60.2515825 138.7815,54.6891359 L142.876761,51.6164752 C142.876761,51.6164752 135.304434,51.2296361 127.190531,48.9476595 C129.353466,49.2126535 131.508552,49.3287053 133.715217,49.2804905 C135.923563,49.2322758 138.184235,49.019234 140.560399,48.6271624 C142.341541,48.3322677 144.190706,47.9373928 146.126583,47.4335677 C146.603311,47.3102277 147.086579,47.1795994 147.575641,47.0424304 C149.070671,46.6240088 150.618214,46.1414879 152.235276,45.5976706 C152.600251,45.4735831 152.979801,45.3364141 153.353559,45.205599 C154.436148,44.8267957 155.539854,44.4296783 156.684486,43.993877 L156.66991,44.0222826 C156.656828,44.0501275 156.638514,44.0918015 156.60581,44.1581435 C156.594784,44.1837459 156.57647,44.2171972 156.561894,44.2472846 C156.518164,44.3369865 156.463409,44.4414517 156.388844,44.5756306 L156.388844,44.5771257 L156.386788,44.5801157 C156.237098,44.8471655 156.027607,45.1990582 155.735516,45.6210305 C155.645814,45.7473605 155.549384,45.8824739 155.447162,46.0211379 C155.321019,46.1911976 155.188148,46.367798 155.036215,46.5554243 C154.977909,46.6320446 154.908577,46.7124025 154.845038,46.7890228 C154.762438,46.8882554 154.685818,46.9846849 154.598172,47.0876551 C154.578549,47.1095199 154.558179,47.1328797 154.53837,47.153997 C154.342708,47.3803072 154.133217,47.6139057 153.904664,47.8577825 C153.476151,48.313206 152.98709,48.7979696 152.426453,49.3060929 C151.970282,49.7200294 151.466644,50.1498506 150.914043,50.591632 C150.765849,50.7104869 150.618214,50.8280336 150.462731,50.949318 L150.462731,50.949318 L150.459181,50.9515605 C150.534306,50.9573537 150.60887,50.9609044 150.685491,50.964642 C150.700067,50.966137 150.714644,50.9674452 150.72922,50.9681927 L150.775193,50.9704353 C150.849757,50.9749203 150.924882,50.9799661 150.999447,50.9835168 C150.999447,50.9835168 151.035888,50.9829561 151.059996,50.9887494 C151.229308,50.9915526 151.406656,50.9945426 151.586994,50.9915526 C151.623435,50.990805 151.652775,50.9902444 151.691459,50.9952901 C151.758549,50.9945426 151.831618,50.9923001 151.903006,50.9894969 L151.954211,50.9894969 C151.970282,50.9887494 151.987101,50.9880019 152.005229,50.9872543 C152.072505,50.9842643 152.141837,50.9822086 152.209674,50.9807136 C152.258636,50.9799661 152.308159,50.9734253 152.355626,50.9726778 C152.519893,50.9638945 152.689392,50.9551112 152.859451,50.9405346 C152.925046,50.9390396 152.985034,50.9324989 153.050628,50.9259581 C153.209849,50.9113816 153.371873,50.896805 153.541933,50.8820416 C153.615002,50.8682126 153.693118,50.8609243 153.771794,50.8543835 C153.928772,50.8340138 154.08575,50.8134571 154.242728,50.7930873 C154.333925,50.7800058 154.41802,50.7659899 154.506975,50.7536559 C154.658907,50.7265585 154.817193,50.7011429 154.966883,50.6740455 C155.071349,50.6551708 155.166096,50.6353616 155.268319,50.6164869 C155.414458,50.590137 155.558168,50.5645346 155.7101,50.5316439 C155.817369,50.5062284 155.92688,50.4813735 156.034896,50.4557711 C156.180848,50.423628 156.319512,50.3914848 156.458176,50.3600892 C156.503587,50.3477552 156.54956,50.3361687 156.594784,50.3236478 C156.607866,50.3200971 156.620387,50.3163596 156.634963,50.3128089 C156.64954,50.3083238 156.664116,50.3055206 156.678693,50.3010355 C156.724665,50.289449 156.76989,50.2769281 156.813806,50.2653417 C156.868562,50.2528208 156.918085,50.2374967 156.970784,50.2236677 C156.985361,50.2193695 156.999937,50.2163794 157.014514,50.2120812 L157.060486,50.1995603 C157.112999,50.1857313 157.166446,50.1726498 157.217464,50.1578864 C157.281003,50.1390116 157.343047,50.11995 157.407333,50.1010752 C157.470685,50.0827611 157.534971,50.0638863 157.597015,50.0455722 C157.729886,50.0076358 157.856216,49.9637193 157.981799,49.9257829 C158.115417,49.8828008 158.251838,49.8330911 158.385457,49.7893614 C158.505993,49.7454449 158.626343,49.708256 158.74688,49.6652739 C158.89059,49.6097709 159.029254,49.5535204 159.167918,49.5038107 C159.283409,49.4615761 159.396471,49.4178464 159.505982,49.3688842 C159.655672,49.3068404 159.805362,49.2455442 159.95636,49.1775203 C160.057087,49.1345382 160.160805,49.0913692 160.255739,49.0483871 C160.425799,48.9687768 160.593616,48.8891664 160.754332,48.8037628 C160.838241,48.7665739 160.916356,48.7301326 160.995219,48.6869636 C161.241151,48.5643711 161.480543,48.4367329 161.721616,48.3023671 L161.721616,48.3016195 L161.722925,48.300872 L161.722925,48.300872 L161.725167,48.3001245 L161.725167,48.2950788 C161.726662,48.2943313 161.730213,48.2913412 161.730213,48.2913412 C161.730213,48.2913412 161.747032,48.285548 161.75432,48.2818104 L161.774129,48.2702239 C161.774129,48.2702239 161.779923,48.2672339 161.781418,48.2657388 C161.836173,48.2350907 161.88364,48.2051901 161.936901,48.174542 C161.966054,48.1564147 162.002495,48.1381006 162.03333,48.1197865 L162.075565,48.0956791 C162.175545,48.0285897 162.285056,47.9680409 162.385784,47.9007646 L162.434746,47.870864 C162.469692,47.8460091 162.511366,47.8219017 162.547808,47.7979813 C162.555096,47.7927487 162.564627,47.7869554 162.564627,47.7869554 C162.597517,47.7658381 162.624615,47.7482715 162.652273,47.7284624 C162.675633,47.7088401 162.707028,47.6884703 162.736181,47.6686612 L162.750758,47.6583828 L162.781406,47.638013 C162.812802,47.6183908 162.825322,47.6096075 162.842142,47.5978341 C162.889609,47.567186 162.942122,47.5307446 162.991645,47.500844 C163.02603,47.4709434 163.062472,47.4401084 163.104893,47.4161879 C163.183008,47.3554523 163.265422,47.3006969 163.343537,47.2401481 C163.354563,47.2313648 163.367645,47.223329 163.380166,47.2160408 C163.380166,47.2160408 163.404086,47.2007167 163.415112,47.1919334 C163.504253,47.1197982 163.59545,47.0474761 163.685152,46.9803866 C163.732619,46.9437584 163.774293,46.9080646 163.82176,46.8716232 L163.825311,46.8693807 L163.84213,46.8540566 C163.849418,46.8475158 163.856706,46.8415357 163.856706,46.8415357 L163.875021,46.8269592 C163.883804,46.8189234 163.893335,46.8123826 163.893335,46.8123826 C163.911462,46.7935079 163.922488,46.7839771 163.934822,46.7744462 L163.940802,46.7694005 C163.986027,46.7335198 164.029756,46.6933409 164.073486,46.6533488 L164.120953,46.6116748 C164.157581,46.58682 164.185239,46.5576669 164.221681,46.5277663 L164.223176,46.5255237 C164.270643,46.4890824 164.313064,46.4474084 164.36184,46.4049869 C164.39118,46.3750863 164.420333,46.3451857 164.456774,46.3152851 C164.510035,46.2663229 164.56479,46.2181081 164.61749,46.1641002 C164.659724,46.1226131 164.701398,46.0859849 164.741577,46.0437503 C164.807172,45.983949 164.861927,45.9181677 164.92042,45.857619 C164.956862,45.8209908 164.999283,45.7852969 165.028436,45.7488556 C165.057589,45.7254957 165.080949,45.6955951 165.105057,45.6714877 C165.154019,45.623273 165.194198,45.5692651 165.236432,45.5210503 C165.270818,45.4853565 165.302214,45.442935 165.336413,45.4072412 C165.373041,45.3648197 165.407987,45.3291258 165.444428,45.2867044 C165.449661,45.2751179 165.462743,45.2691378 165.462743,45.2691378 C165.481057,45.2450304 165.491896,45.2334439 165.504417,45.220923 C165.504417,45.220923 165.526281,45.1910224 165.539363,45.1786884 C165.568516,45.1370145 165.597856,45.1013206 165.628504,45.0588991 C165.675971,44.9990979 165.721943,44.94509 165.770906,44.8852888 C165.79277,44.8552013 165.810898,44.8253007 165.835005,44.7954001 L165.858365,44.7712927 C165.864345,44.7597062 165.869391,44.7537261 165.869391,44.7537261 C165.948254,44.6457102 166.019081,44.5502151 166.08318,44.4603264 C166.119808,44.4063185 166.148961,44.3581038 166.183347,44.3106365 C166.219788,44.2573761 166.254735,44.2033681 166.291363,44.1435669 C166.325562,44.089559 166.360695,44.0362985 166.394894,43.9763104 L166.426289,43.9340758 C166.437315,43.9165092 166.449649,43.8924019 166.449649,43.8924019 C166.513936,43.7909267 166.561403,43.7012249 166.606628,43.6178769 C166.643069,43.5522825 166.678202,43.4865012 166.712588,43.4267 C166.725669,43.4091334 166.730715,43.3910061 166.741741,43.3668988 C166.747534,43.3493322 166.759868,43.3259723 166.773136,43.3076582 C166.829387,43.1886164 166.889936,43.0748072 166.948242,42.9557655 L166.964313,42.9082983 C166.993467,42.8484971 167.006735,42.8185965 167.017574,42.7886958 C167.046914,42.7294553 167.068779,42.6696541 167.092139,42.6106004 C167.116246,42.5565924 167.139606,42.5091252 167.156425,42.461658 C167.167264,42.4325049 167.174552,42.4083976 167.185578,42.3790576 L167.185578,42.378497 L167.185578,42.3777494 C167.197912,42.3484095 167.208938,42.3185089 167.219777,42.2893558 C167.219777,42.2893558 167.233045,42.2557176 167.238091,42.2383379 C167.241828,42.2280595 167.245379,42.2185287 167.245379,42.2185287 L167.262198,42.1725565 C167.269487,42.1557375 167.276775,42.1404134 167.284063,42.1220993 C167.295089,42.0871529 167.307423,42.0565048 167.318449,42.0213716 C167.329288,41.991471 167.340314,41.9557772 167.353395,41.9198965 C167.371709,41.8726161 167.382735,41.8316897 167.39862,41.7834749 C167.449825,41.616966 167.495797,41.4446637 167.541021,41.2665683 C167.546815,41.260775 167.546815,41.2549818 167.546815,41.2549818 C167.55784,41.2075146 167.562886,41.1718207 167.576155,41.13594 C167.586994,41.0849221 167.595777,41.0286716 167.606803,40.9746636 L167.608858,40.9673754 L167.610353,40.9628903 C167.621379,40.9068266 167.638198,40.8541268 167.649037,40.7980632 C167.646982,40.7739558 167.65427,40.7563892 167.660063,40.7330294 C167.670902,40.6672481 167.679685,40.6024011 167.692954,40.5373673 C167.709025,40.4657927 167.719864,40.3942182 167.73089,40.3175979 C167.736683,40.2701307 167.741729,40.2226635 167.752755,40.1751963 C167.752755,40.1512758 167.756493,40.1279159 167.756493,40.1038086 C167.762286,40.0628821 167.773125,40.0146674 167.778357,39.9672002 C167.789196,39.8373194 167.803773,39.7007111 167.814799,39.5708303 C167.814799,39.5708303 167.813304,39.5233631 167.818536,39.5000033 C167.818536,39.4650569 167.82433,39.423383 167.829375,39.3876891 C167.838906,39.1978203 167.847689,39.008699 167.842457,38.8137844 L167.833113,38.2109135 C167.825825,38.1750328 167.825825,38.1400865 167.825825,38.1101859 C167.818536,38.0634662 167.817041,38.015999 167.817041,37.9685317 C167.80751,37.8444442 167.792934,37.7145635 167.785646,37.5794502 C167.771069,37.4962891 167.763781,37.4136887 167.756493,37.3247344 C167.736683,37.189621 167.716314,37.0537602 167.694262,36.9122929 C167.694262,36.8881856 167.686974,36.8648257 167.686974,36.8354858 C167.67464,36.7822253 167.667351,36.7355056 167.660063,36.6764519 C167.646982,36.5998316 167.627172,36.5172312 167.614091,36.4348177 C167.594282,36.3581974 167.5812,36.275597 167.566624,36.1931834 C167.554103,36.139923 167.546815,36.0932033 167.539526,36.0457361 L167.533733,36.0339627 C167.521399,35.974909 167.508131,35.9098752 167.488508,35.8515691 C167.475427,35.7983086 167.462906,35.7456088 167.449825,35.6865551 C167.430015,35.6340422 167.422727,35.5800342 167.409646,35.5215411 C167.397312,35.4682807 167.384043,35.421561 167.371709,35.3683006 C167.358628,35.3273741 167.346107,35.2864477 167.338819,35.2389804 C167.318449,35.18572 167.305928,35.1332071 167.292846,35.0799466 C167.25491,34.9448333 167.208938,34.8099068 167.171001,34.6740459 C167.152687,34.6273262 167.132317,34.5740658 167.119797,34.5215528 C167.099427,34.4681055 167.081113,34.4155926 167.068779,34.3623321 C167.024862,34.2272188 166.973844,34.0863122 166.920584,33.944845 C166.904512,33.903171 166.887693,33.8564513 166.871622,33.8134692 L166.865828,33.8024433 L166.85854,33.7826342 C166.843964,33.7359145 166.831443,33.6936799 166.813315,33.6454652 C166.776687,33.5512783 166.730715,33.4578389 166.692779,33.3578588 C166.654095,33.2636719 166.617653,33.1644392 166.579717,33.0702523 C166.528512,32.9411191 166.471701,32.8175922 166.420496,32.6942522 C166.387606,32.620622 166.353407,32.5520375 166.320516,32.4789679 L166.30949,32.4533655 L166.296409,32.4277631 C166.263518,32.3541329 166.234365,32.2803158 166.199979,32.207433 C166.143168,32.0898863 166.086918,31.9730871 166.02992,31.8497471 C165.975164,31.7437868 165.924146,31.6380134 165.872941,31.5328007 L165.849582,31.4920611 L165.824166,31.4445939 C165.767168,31.3335879 165.710918,31.2218344 165.654106,31.1110153 C165.641586,31.0934487 165.635792,31.0758821 165.635792,31.0758821 C165.635792,31.0758821 165.617478,31.0409358 165.61019,31.0342081 C165.5431,30.9058224 165.473768,30.7832299 165.404436,30.6539098 C165.365752,30.5898104 165.329124,30.5189834 165.291188,30.4489038 C165.254746,30.38387 165.216063,30.3137905 165.178126,30.2437109 C165.159812,30.2145578 165.141498,30.191198 165.128416,30.161858 C165.105057,30.1211185 165.073661,30.0736513 165.048059,30.0276791 C164.949573,29.8523868 164.8438,29.6780289 164.732794,29.4976909 C164.81446,29.5137625 164.893323,29.529834 164.969943,29.5459056 C165.225593,29.6006611 165.475077,29.650184 165.729232,29.7107327 C165.814635,29.7268043 165.905832,29.748856 165.997029,29.7647407 C166.033657,29.776514 166.070099,29.7815597 166.10654,29.7925856 C166.52627,29.8918182 166.946186,29.9977785 167.353395,30.1028043 L167.390023,30.1138302 C168.011956,30.2780966 168.620059,30.4554446 169.214894,30.644379 C169.811412,30.8335003 170.393913,31.0336475 170.959595,31.2431386 C170.966883,31.2431386 170.966883,31.2431386 170.966883,31.2431386 C172.267746,31.612411 173.503575,32.0504549 174.671568,32.5395166 C176.363007,33.2476003 177.910551,34.0629523 179.319616,34.9317517 C179.370634,34.9631474 179.421652,34.9923005 179.471362,35.0229486 C179.574145,35.0872349 179.665716,35.1535768 179.76663,35.2171156 C180.766432,35.8558673 181.689613,36.5172312 182.54178,37.186631 C183.223888,37.724655 183.868619,38.2664165 184.457288,38.8007029 C185.002974,39.2970529 185.500071,39.785554 185.96353,40.2613474 C187.557606,41.90831 188.656454,43.385026 189.245122,44.3399765 C189.588979,44.889587 189.775857,45.5188078 189.816971,46.162792" id="path72" fill="#FFFFFF"></path>
                        <path d="M93.6385038,50.5142642 C94.4867466,50.2872065 95.355546,50.095282 96.2555541,49.9383038 C96.2555541,49.9383038 95.1146592,50.8616718 93.6786828,52.4822845 C93.1384163,53.0946862 92.5559151,53.7954816 91.9756566,54.5919589 C91.2075848,55.6453945 90.44269,56.8528183 89.7929125,58.1878802 C89.6286461,58.5222063 89.4716679,58.8625126 89.3206699,59.2076777 C93.6897086,57.6558363 98.9017575,56.3497406 104.289099,56.2359315 L104.500832,56.2321939 C110.542997,56.1307187 116.806426,57.5280113 122.361584,61.7269903 C119.250426,60.8094156 116.294004,60.4216421 113.53829,60.4384612 C103.684733,60.4909742 96.3286237,65.7002199 93.437796,70.1423282 L102.752581,71.8001298 C94.0634662,76.4874231 88.2634967,80.3279687 88.2634967,80.3279687 C88.2634967,80.3279687 93.8808856,81.5281041 102.157559,81.3886925 C105.396542,81.3346846 109.045163,81.0782869 112.928691,80.4571019 C114.079864,79.4505728 115.225992,78.5204772 116.363336,77.6677494 C117.492644,76.8152084 118.61672,76.045081 119.719118,75.3646554 C120.821329,74.6836692 121.901675,74.0864046 122.963894,73.5842614 C123.312797,73.4177524 123.660952,73.2587186 124.010041,73.1105237 C126.090376,72.2301378 128.061386,71.7300502 129.866075,71.6526824 C130.949971,71.6577281 132.103387,71.8453544 133.189713,72.3067581 C133.366314,72.3805752 133.55095,72.4659788 133.727737,72.5571757 C134.07664,72.7403169 134.417507,72.9535455 134.744545,73.1966748 C135.230056,73.572488 135.686227,74.0142694 136.081849,74.5455658 C136.348338,74.9019436 136.585674,75.2938284 136.799464,75.7283215 C136.905424,75.9451009 137.001667,76.1734667 137.089313,76.4085602 C137.184247,76.6436537 137.26311,76.8910812 137.33973,77.1502821 C136.518398,76.9867631 135.724163,76.9224768 134.943197,76.9415385 C123.821668,77.2173715 116.034803,94.7847234 101.257551,94.9088109 C100.483686,94.9160992 99.6879565,94.8766677 98.8688668,94.7774351 L108.652344,86.672316 C105.208916,87.1030716 101.923961,87.3234016 98.8361631,87.3987138 C95.7534109,87.4680458 92.8648257,87.3929205 90.2075965,87.2125825 C88.079608,87.0716759 86.1013093,86.8679781 84.2872771,86.6321371 C83.3762431,86.5117871 82.5134238,86.3839621 81.6885409,86.2503437 C81.2738569,86.1862443 80.8724413,86.1161648 80.4841073,86.0460852 C79.7065047,85.9109719 78.970763,85.7700653 78.2794984,85.6269162 C77.591037,85.4854489 76.9472397,85.3430473 76.3499751,85.2051308 C75.75514,85.0662799 75.2075852,84.9341566 74.7147859,84.8005382 C73.4739109,84.478733 72.5490478,84.1984148 71.9700974,84.0130311 C71.7387415,83.9399615 71.5612067,83.883711 71.4444074,83.8384863 C71.3298507,83.7990549 71.269302,83.7764426 71.269302,83.7764426 L83.028088,69.8969564 C82.4842707,69.9532069 81.9585808,70.0212308 81.4330777,70.094861 C81.2811452,70.1152308 81.1314553,70.1415807 80.9804573,70.1619505 C80.5876381,70.2159584 80.2007991,70.2817398 79.8197532,70.3467736 C79.6810892,70.3663958 79.5422383,70.3927458 79.4088068,70.4189088 C78.9087192,70.5043124 78.4196575,70.6007418 77.936389,70.703712 C77.8962101,70.716046 77.8522936,70.7225868 77.810059,70.7358552 C77.3705201,70.8313502 76.9412596,70.9335729 76.5202217,71.0410282 C76.3866034,71.0724238 76.2610208,71.1043801 76.1331958,71.1357757 C75.7719591,71.2365034 75.4105356,71.3314378 75.0543446,71.4381456 C74.9579152,71.4628136 74.8556925,71.4942092 74.7587024,71.5198116 C74.3133703,71.6577281 73.8738314,71.795084 73.4410202,71.9440264 C73.3972906,71.9563604 73.3556166,71.9686944 73.3131951,71.9877561 C72.9285986,72.1176368 72.5490478,72.2549927 72.1765985,72.3972074 C72.0868966,72.4338357 71.9904672,72.4710246 71.8934771,72.5082134 C71.5378468,72.6440743 71.1911867,72.7915216 70.840789,72.9337364 C70.7933218,72.9578437 70.7458546,72.9769054 70.6910991,73.0010127 C70.2896835,73.1740625 69.8918186,73.3579512 69.501242,73.5418399 C69.4771346,73.5536133 69.4537748,73.5659473 69.4246217,73.5842614 C69.0684308,73.7558161 68.7200887,73.9273708 68.3842676,74.110512 C68.3259614,74.1411601 68.2654127,74.1712476 68.2054246,74.2018957 C67.4659453,74.5982656 66.7601042,75.0127627 66.0884619,75.4435183 L66.0703347,75.4560391 C65.7418018,75.6683334 65.4183146,75.8808146 65.1066008,76.1041347 C65.0774478,76.1231963 65.0533404,76.1415105 65.0226923,76.1588902 C64.0423263,76.8495941 63.1408231,77.5685167 62.3122026,78.3152843 C53.6471947,86.0767334 49.873178,95.9672922 49.7584344,96.2769503 C66.822148,89.5214697 86.5722438,93.3283771 90.2455329,94.1299002 L90.2563719,94.1299002 C90.3294415,94.1525125 90.3972785,94.1627908 90.4572666,94.1796099 C90.5849048,94.207268 90.6835767,94.2293197 90.7491712,94.2459519 C90.7805668,94.2511845 90.8039267,94.2569777 90.8222408,94.2620235 L90.8463482,94.2680036 C90.8478432,94.2971567 89.1358468,96.1177296 88.6066061,96.6878968 C88.5043834,96.7966602 88.4460772,96.8564614 88.4460772,96.8564614 L85.9407805,99.4172612 C87.2182837,99.7450466 88.4227174,100.043679 89.5666023,100.320259 C89.9498907,100.408653 90.3206582,100.497047 90.6856324,100.585253 C91.4208135,100.756061 92.1274021,100.916029 92.813621,101.058431 C93.1544878,101.129071 93.4961022,101.200645 93.8225794,101.265679 C94.4852515,101.402101 95.1292358,101.52189 95.7496733,101.624113 C97.6207035,101.940872 99.3375588,102.137282 100.986016,102.192037 C101.538617,102.212407 102.077202,102.215397 102.615226,102.205866 C102.887508,102.201568 103.153997,102.190542 103.420486,102.174471 C103.95851,102.148308 104.491301,102.102896 105.030073,102.04758 C105.568097,101.984789 106.106868,101.910971 106.648443,101.813234 C106.914932,101.767262 107.19226,101.715309 107.46473,101.662796 C108.013593,101.547492 108.568436,101.420415 109.134118,101.27521 C110.552528,100.907993 112.032234,100.434255 113.633037,99.8334402 C114.271789,99.5925535 114.926612,99.3326051 115.612831,99.0545295 C117.083754,98.3208434 118.443857,97.5054914 119.724911,96.6439803 C120.042418,96.4264534 120.359925,96.208179 120.670331,95.9899046 C121.908963,95.105968 123.079198,94.1876457 124.208507,93.2642777 C124.488077,93.0349775 124.76335,92.7991365 125.04292,92.5700231 C125.872849,91.876516 126.685398,91.1830089 127.484678,90.5063208 C128.551943,89.6018276 129.614162,88.7264874 130.690957,87.9103878 C131.229542,87.5052347 131.767566,87.1118549 132.317363,86.7358548 C132.592449,86.5482285 132.868469,86.3656479 133.149535,86.189795 C136.227989,84.2399019 139.60414,82.9179215 143.90964,82.8990468 C144.301712,82.8982992 144.703128,82.9091382 145.108281,82.9259573 C145.128651,81.9973567 145.057263,81.0644579 144.920654,80.1680004 C144.873187,79.8673125 144.82572,79.5666245 144.765171,79.2717298 C144.65211,78.6882943 144.515501,78.1233598 144.367306,77.5817851 C143.622781,74.8916653 142.595696,72.9103765 142.595696,72.9103765 C142.595696,72.9103765 142.624849,72.9103765 142.691938,72.9090684 C142.982535,72.8987901 143.896559,72.9184123 145.128651,73.4003727 C146.495295,73.933164 148.253077,75.0383651 149.994226,77.315296 C150.342381,77.7649263 150.689041,78.2678171 151.032151,78.8241552 C151.80097,80.0702628 152.552783,81.5710862 153.239002,83.3924067 C153.932509,85.2137272 154.563973,87.3497515 155.096764,89.8537402 C155.096764,89.8537402 156.217289,88.8178711 156.715134,86.4445108 C156.899957,85.5781408 156.9962,84.5355441 156.932848,83.3012099 C156.914534,82.9937943 156.885381,82.6755398 156.848753,82.339158 L156.853985,82.339158 C156.903508,82.3733568 159.981962,86.2482881 160.055032,90.3442969 C160.11558,93.7548345 158.082526,97.3186126 150.472262,98.9369828 C151.162218,95.093634 151.251173,92.2831642 151.052708,90.234786 C150.991972,89.6207023 150.910306,89.0725869 150.805841,88.5900659 C150.600087,87.6227814 150.320517,86.9008687 150.034218,86.367143 C149.720449,85.7876319 149.41023,85.4262084 149.170651,85.2116715 C148.929765,84.9904071 148.772787,84.9225701 148.772787,84.9225701 L148.772787,84.9276158 C148.772787,84.9276158 148.765498,84.9459299 148.754659,84.9582639 C148.749427,84.9758305 148.736345,84.9999379 148.725506,85.029091 L148.720274,85.0416119 C148.707192,85.0655323 148.696166,85.0948723 148.685327,85.1189797 L148.678039,85.1247729 L148.663462,85.1627093 C148.629077,85.2327888 148.607212,85.2817511 148.574321,85.3495881 C148.593944,85.3071666 148.610763,85.2722203 148.629077,85.2357789 C148.610763,85.2722203 148.593944,85.3086616 148.574321,85.3510831 C148.479387,85.5422601 148.356794,85.7926776 148.199816,86.0913099 C147.871283,86.7109999 147.395303,87.5476562 146.771315,88.5155013 C146.433251,89.035398 146.055756,89.5915493 145.630233,90.1727422 C145.606873,90.2018953 145.582766,90.2325434 145.564639,90.2566508 C145.329545,90.5851837 145.074082,90.9150247 144.807593,91.2566391 C144.783485,91.2859791 144.760126,91.3166272 144.736018,91.3465278 C144.45869,91.6939354 144.166599,92.0480707 143.858622,92.4012716 C143.823489,92.443693 143.794336,92.485367 143.757895,92.5218084 C143.721267,92.5634823 143.681088,92.6057169 143.639601,92.6473909 C143.36003,92.9656454 143.075227,93.2839 142.770801,93.6086953 C142.741648,93.6328026 142.717541,93.6619557 142.694181,93.6860631 C142.533652,93.8548146 142.354809,94.0233793 142.1883,94.1911964 C141.973016,94.4021825 141.772308,94.6124211 141.551791,94.8234073 L141.527684,94.8467671 C140.735691,95.5935347 139.863341,96.3294633 138.931003,97.0310062 C138.80486,97.122203 138.679277,97.2126523 138.55519,97.3040361 C138.237496,97.5331494 137.914196,97.7579646 137.578375,97.976239 C137.412613,98.08575 137.249842,98.2004935 137.076979,98.3100045 C136.614828,98.6019091 136.13511,98.887273 135.643992,99.1617979 C135.631471,99.1675912 135.620633,99.1743188 135.620633,99.1743188 C135.625678,99.1268516 135.752008,98.7872929 135.912537,98.2404856 C135.94169,98.145738 135.968788,98.0390303 135.997941,97.9317619 C136.030831,97.7953404 136.065778,97.6529387 136.105957,97.5047439 C136.173233,97.2259207 136.24107,96.9170101 136.300871,96.5783858 L136.311897,96.5198927 C136.328716,96.4243977 136.344788,96.32367 136.36142,96.2294831 C136.377492,96.1461352 136.388517,96.0629742 136.405336,95.9798131 L136.410382,95.9446799 C136.416175,95.9031928 136.421408,95.8848787 136.421408,95.8848787 C136.443273,95.7249105 136.460092,95.5769025 136.479714,95.4287076 C136.485507,95.3935744 136.49074,95.3578806 136.496533,95.3162066 L136.501579,95.2745326 C136.507559,95.2388388 136.507559,95.2037056 136.512605,95.1622185 C136.529424,95.0431767 136.538207,94.913296 136.547738,94.7892085 C136.552784,94.7241747 136.563623,94.665121 136.569603,94.6051329 C136.573154,94.5402859 136.578386,94.4810454 136.584179,94.4161984 C136.598756,94.2263296 136.607539,94.0314151 136.614828,93.835753 L136.614828,93.7882858 C136.620621,93.7234388 136.625667,93.6699915 136.624358,93.6232718 C136.627909,93.5217967 136.627909,93.4160233 136.631647,93.3095024 C136.629404,93.214568 136.633142,93.1203811 136.631647,93.0254466 C136.629404,92.9488263 136.635197,92.8714585 136.633142,92.7948382 C136.629404,92.5881503 136.620621,92.375856 136.61109,92.1626274 L136.607539,92.0267665 C136.602307,91.9968659 136.602307,91.9619196 136.600251,91.9260388 C136.591468,91.767005 136.576891,91.5954503 136.562315,91.4304363 C136.555026,91.3713827 136.547738,91.3121421 136.545496,91.2472951 C136.540263,91.2297285 136.540263,91.2114144 136.540263,91.2114144 C136.532975,91.1413349 136.530919,91.0880744 136.523631,91.0290207 C136.508867,90.8698 136.481957,90.6989928 136.454299,90.5332314 C136.43449,90.3915773 136.419913,90.2616965 136.399543,90.1149967 C133.299224,93.6613951 130.336822,96.5739007 127.464309,98.9618376 C103.115313,119.207536 88.4716796,101.642427 62.5590695,114.331869 C64.4839208,107.424643 69.5173136,101.218959 69.5464667,101.194105 C69.5464667,101.194105 57.9016768,101.444522 40.6204363,107.886046 C39.4546866,108.320353 38.2625869,108.783064 37.0471274,109.275864 C36.4266899,109.527776 35.8045704,109.785482 35.1805822,110.049729 C39.3027541,90.3383168 51.8098026,74.1637724 52.193091,73.6608817 L31.778828,87.2307098 C33.6074367,76.1786993 40.1022215,51.6026461 40.1022215,51.5792863 C32.1159573,55.8109691 25.5204449,59.9479045 20.9763007,62.9803862 C23.909363,56.8535658 28.3017616,49.7667491 34.8570951,42.6915189 C34.8995166,42.643491 34.9482919,42.5892962 34.994451,42.5412684 C35.0542522,42.4812803 35.1198466,42.4156858 35.1783397,42.349157 C42.6899318,34.19302 49.2219054,30.1284067 49.2219054,30.1284067 C49.3205774,30.6051345 49.4132693,31.0941962 49.5009155,31.5840055 C49.5285735,31.7490194 49.5481958,31.9138465 49.5775357,32.0730672 C49.6307962,32.4096359 49.6797584,32.745457 49.7270388,33.0818388 C49.7563787,33.2767534 49.7767485,33.4769005 49.8059016,33.6718151 C49.8402873,33.9908171 49.8767287,34.3090717 49.9133569,34.6280737 C49.9279334,34.8338273 49.9497983,35.0412627 49.9666173,35.2477637 C49.9957704,35.5667658 50.0249235,35.891748 50.0482834,36.2165433 C50.0593092,36.4172511 50.0738858,36.623939 50.0907048,36.8246468 C50.1088321,37.1728019 50.1271462,37.5276847 50.1454603,37.8816331 C50.149011,38.0597286 50.1577943,38.236329 50.1673251,38.4138639 C50.1819017,38.8810608 50.1964782,39.3475102 50.2037665,39.8081664 L50.2075041,40.0154149 C50.2162874,40.5534389 50.2147924,41.0914629 50.2110548,41.6352801 C50.2089991,41.7834749 50.2037665,41.9316698 50.2017108,42.0791172 C50.1964782,42.475487 50.190685,42.8660637 50.1796591,43.2558928 C50.1761084,43.439034 50.1673251,43.6231096 50.1650826,43.8055032 C50.1542436,44.17272 50.1359295,44.5341436 50.1235955,44.8946327 C50.1163072,45.0779608 50.1052814,45.2553087 50.0979931,45.4391974 C50.079679,45.8056667 50.0555716,46.1786767 50.0322118,46.5458935 C50.0228679,46.7058617 50.0140846,46.8716232 50.0045537,47.0314046 C49.9754006,47.4401084 49.9447525,47.8482517 49.9169076,48.2504148 C49.9060686,48.3636633 49.902331,48.4754168 49.8913052,48.5884785 C49.763667,50.2046061 49.6029513,51.7676601 49.4241083,53.2494218 C49.41682,53.2787618 49.4190626,53.3086624 49.4132693,53.338563 C49.3547763,53.8123007 49.3022633,54.2686587 49.2439571,54.7190365 L49.2271381,54.8255574 C49.168645,55.2877086 49.1030506,55.7380864 49.0445575,56.1766909 C48.2854559,61.522545 47.4480522,65.2440488 47.4480522,65.2440488 C47.5794279,65.1702317 49.3753329,64.2300446 51.846244,62.1723224 C54.3223877,60.1144134 57.4759669,56.9397169 60.3157767,52.4099624 C60.3157767,52.4099624 61.1296338,58.6756338 57.9672712,71.311068 C57.9672712,71.311068 74.622094,62.6767082 75.3135455,44.5836664 L65.938772,47.0241163 C70.5159937,39.3248979 77.6917647,34.4681055 83.7266408,31.5350432 C89.5761332,28.6931778 94.3480825,27.6550662 94.6437247,27.59676 C94.6203649,27.6274082 94.5487903,27.6814161 94.4465676,27.7595315 C94.2152117,27.9471577 93.796977,28.2676548 93.2458716,28.6969154 C92.9720942,28.9144423 92.6676686,29.1560765 92.3260542,29.4218181 C90.9812746,30.4730112 89.1965824,31.8919817 87.3584428,33.419155 C86.8985341,33.8054334 86.4386255,34.1915249 85.9787168,34.5835966 C85.5188082,34.9696881 85.0611421,35.367553 84.6135674,35.7596247 C83.7178575,36.5435811 82.8542907,37.3209968 82.0731374,38.0604761 C81.8834555,38.2473549 81.6920916,38.4342336 81.5074554,38.6145717 C80.7760119,39.3306911 80.1387553,40.0088742 79.6481985,40.6089419 C79.2794867,41.052779 78.9890771,41.4594272 78.802759,41.8053398 L90.0009086,40.3934707 C90.0009086,40.3934707 89.8936402,40.5198007 89.6906898,40.7533992 C89.4483081,41.0469857 89.0629641,41.5147433 88.5847413,42.1316301 C88.3875842,42.3777494 88.1818307,42.6470417 87.9555205,42.9404414 C87.7307053,43.234028 87.4933693,43.551535 87.2509875,43.8924019 C86.7546375,44.5632966 86.2181085,45.3231457 85.6559772,46.1547562 C85.0953409,46.9854324 84.5113447,47.8884306 83.9237979,48.849735 C83.6281557,49.333751 83.3345691,49.8295404 83.040422,50.3367293 C81.7191891,52.6355251 80.4256142,55.2058557 79.396286,57.9133553 C79.645956,57.7083493 79.9087075,57.4973632 80.171646,57.2914227 C83.6193724,54.6029848 88.1270752,51.9545389 93.6385038,50.5142642" id="path74" fill="#FFFFFF"></path>
                        <path d="M177.242646,69.307167 C170.362517,73.4280307 161.266754,74.2973908 156.217289,74.4332516 C156.202713,74.4332516 156.184585,74.4347467 156.170009,74.4354942 C156.064049,74.3712079 155.967059,74.2880468 155.861098,74.221518 C154.928947,73.6412594 154.016418,73.01914 153.147805,72.342452 C153.057917,72.2731199 152.972513,72.1994897 152.884867,72.1286626 C152.676871,71.960098 152.468875,71.790599 152.264429,71.6205393 C152.235276,71.5956844 152.203881,71.571577 152.173233,71.546909 C152.046903,71.4439388 151.919078,71.3424637 151.79499,71.2359428 C151.724163,71.1744596 151.652775,71.1131634 151.583443,71.0496246 C151.437304,70.9197439 151.289857,70.7926663 151.143904,70.6620381 C150.849757,70.3977915 150.570934,70.1305548 150.287626,69.8635051 C150.154755,69.737175 150.012353,69.6130875 149.882473,69.4845149 C149.855375,69.4576044 149.827717,69.4297595 149.80062,69.4035964 C149.55394,69.1597196 149.311558,68.9145347 149.068616,68.6684154 C148.991808,68.5917951 148.915188,68.5151748 148.837073,68.4385545 C148.786055,68.3873497 148.732794,68.3363318 148.683832,68.285127 C148.307832,67.8947372 147.942858,67.5011706 147.593955,67.1098464 L147.619558,67.1178822 C160.61193,71.7438793 177.242646,69.307167 177.242646,69.307167" id="path78" fill="#FFFFFF"></path>
                    </g>
                </g>
            </g>
        </g>
    </g>
</svg>