<?xml version="1.0" encoding="UTF-8"?>
<svg width="200px" height="200px" viewBox="0 0 200 200" version="1.1" xmlns="http://www.w3.org/2000/svg" xmlns:xlink="http://www.w3.org/1999/xlink">
    <!-- Generator: Sketch 54.1 (76490) - https://sketchapp.com -->
    <title>principia</title>
    <desc>Created with Sketch.</desc>
    <g id="principia" stroke="none" stroke-width="1" fill="none" fill-rule="evenodd">
        <g id="principia_BGL">
            <g id="principia">
                <g id="g10" transform="translate(100.000000, 100.887409) scale(-1, 1) rotate(-180.000000) translate(-100.000000, -100.887409) translate(0.000000, 0.887409)">
                    <g id="g12">
                        <path d="M198,99.497366 C198,45.0966446 153.898982,1 99.501756,1 C45.0993205,1 1,45.0966446 1,99.497366 C1,153.901716 45.0993205,198 99.501756,198 C153.898982,198 198,153.901716 198,99.497366" id="path14-path" fill="#FFFFFF"></path>
                        <path d="M193.902217,99.7179234 C193.902217,151.737478 151.739255,193.906366 99.721479,193.906366 C47.7044136,193.906366 5.5370369,151.737478 5.5370369,99.7179234 C5.5370369,47.7083247 47.7044136,5.53541912 99.721479,5.53541912 C151.739255,5.53541912 193.902217,47.7083247 193.902217,99.7179234 M199.439402,99.7179234 C199.439402,44.6430804 154.792292,0 99.721479,0 C44.6453915,0 0,44.6430804 0,99.7179234 C0,154.796441 44.6453915,199.44118 99.721479,199.44118 C154.792292,199.44118 199.439402,154.796441 199.439402,99.7179234" id="path14" fill="#B09247" fill-rule="nonzero"></path>
                        <path d="M166.349625,102.204442 L166.3277,145.075552 L166.3277,145.8797 L165.7517,146.456293 L147.3357,164.916144 L146.759107,165.489181 L145.950811,165.489181 L46.1384285,165.489181 L44.1780137,165.489181 L44.1780137,163.531255 L44.1724433,133.156145 L44.1724433,131.203552 L46.12711,131.203552 L53.352769,131.203552 L53.3414505,67.4275539 L46.12711,67.4275539 L44.1724433,67.4275539 L44.1724433,65.4743687 L44.1780137,35.9118213 L44.1780137,33.9525325 L46.1384285,33.9525325 L97.6361457,33.9525325 L99.5999975,33.9525325 L99.5946642,35.9118213 L99.5887383,65.4577761 L99.5887383,67.4168872 L97.628442,67.4168872 L89.4322941,67.4168872 L89.4322941,82.1914054 L146.392293,82.1914054 L147.204144,82.1914054 L147.778959,82.7685905 L165.778366,100.817775 L166.353181,101.390812 L166.349625,102.204442 Z M159.512292,104.237034 L144.301033,89.0340718 L82.5748128,89.0340718 L82.5748128,60.5599985 L84.5333312,60.5599985 L92.7869606,60.5599985 L92.7869606,40.7696582 L50.9819247,40.7696582 L50.9819247,60.5599985 L58.2168874,60.5599985 L60.1754059,60.5599985 L60.1754059,62.5197021 L60.1754059,136.0557 L60.1754059,138.010663 L58.2168874,138.020737 L50.9863691,138.020737 L50.9863691,158.646515 L143.652145,158.646515 L159.704292,142.774515 L159.512292,104.237034 L159.512292,104.237034 Z" id="path16" fill="#B09247" fill-rule="nonzero"></path>
                        <path d="M137.050663,116.42133 L137.030515,131.365923 L137.030515,132.161182 L136.463404,132.729478 L131.849478,137.423404 L131.274663,138.020737 L130.449775,138.020737 L83.6776275,138.020737 L81.7179239,138.020737 L81.7179239,136.0557 L81.7179239,111.626664 L81.7179239,109.669923 L83.6776275,109.669923 L130.424886,109.669923 L131.256293,109.669923 L131.829923,110.254812 L136.496589,115.046516 L137.054811,115.62133 L137.050663,116.42133 Z M130.171256,118.264293 L128.456886,116.541627 L89.3961459,116.541627 L89.3570348,131.186367 L128.388145,131.186367 L130.174812,129.38133 L130.171256,118.264293 L130.171256,118.264293 Z" id="path18" fill="#B09247" fill-rule="nonzero"></path>
                        <path d="M145.10933,87.07022 L161.470218,103.42459 L161.663996,143.5917 L144.45333,160.609774 L49.0268432,160.609774 L49.0268432,136.061034 L58.2168874,136.0557 L58.2168874,62.5197021 L49.0229321,62.5197021 L49.0229321,38.8183101 L94.7460717,38.8183101 L94.7460717,62.5197021 L84.5374794,62.5197021 L84.5374794,87.07022 L145.10933,87.07022 Z M83.6776275,111.626664 L83.6776275,136.0557 L130.449775,136.0557 L135.072589,131.361774 L135.097478,116.414812 L130.424886,111.626664 L83.6776275,111.626664 L83.6776275,111.626664 Z" id="path20" fill="#104076" fill-rule="nonzero"></path>
                    </g>
                </g>
            </g>
        </g>
    </g>
</svg>