<?xml version="1.0" encoding="UTF-8"?>
<svg width="200px" height="200px" viewBox="0 0 200 200" version="1.1" xmlns="http://www.w3.org/2000/svg" xmlns:xlink="http://www.w3.org/1999/xlink">
    <!-- Generator: Sketch 54.1 (76490) - https://sketchapp.com -->
    <title>puget-sound</title>
    <desc>Created with Sketch.</desc>
    <g id="puget-sound" stroke="none" stroke-width="1" fill="none" fill-rule="evenodd">
        <g id="puget-sound_BGL">
            <g id="puget-sound" transform="translate(0.000000, 11.000000)">
                <path d="M153.590406,0 L157.059041,0 C156.361624,1.63458118 156.597786,3.28020683 156.900369,4.97001034 C157.566421,7.47710445 158.51476,9.72097208 159.693727,12.042151 C162.833948,18.0172079 166.98155,23.5891417 171.586716,28.5315408 C172.195572,29.2255016 173.071956,29.8513547 173.568266,30.6079007 C174.210332,31.2540021 174.859779,31.8945812 175.50369,32.537001 C176.020295,32.8167942 176.411439,33.380062 176.837638,33.7868666 C179.175277,35.9331748 181.845018,38.1807239 184.448339,40.0049018 C184.660517,40.2331541 184.356089,40.42091 184.232472,40.5976215 C183.411439,41.3670527 182.586716,42.3242399 181.734317,43.0531748 L181.610701,43.0421303 C181.483395,42.4843847 181.564576,41.8438056 181.464945,41.293423 C181.345018,40.781696 181.402214,40.2736505 181.352399,39.7600827 C181.156827,39.3035781 181.324723,38.749514 181.154982,38.2966908 C181.04428,38.2653981 180.95572,38.3445502 180.889299,38.5304654 C180.54428,39.8834126 180.035055,41.4830196 179.629151,42.8304447 C179.234317,42.5745812 178.972325,41.7701758 178.656827,41.372575 C178.060886,40.3141468 177.418819,39.2704447 176.826568,38.223061 C176.317343,37.4904447 175.979705,36.6197725 175.429889,35.9166081 L175.306273,35.9166081 C175.164207,36.1761531 175.372694,36.5479835 175.429889,36.8148914 C175.911439,38.6593175 176.415129,40.4890176 176.915129,42.3371251 C177.001845,42.8230817 177.298893,43.476546 177.269373,43.9459359 C176.990775,44.0140434 176.656827,43.9367322 176.383764,43.8575801 C175.392989,43.7232058 174.413284,43.563061 173.431734,43.4139607 C172.706642,43.3403309 171.95572,43.1010341 171.228782,43.1268046 C171.103321,43.3734643 171.47786,43.4470941 171.618081,43.5722647 C173.154982,44.4815926 174.695572,45.4424612 176.239852,46.3407446 C176.5,46.5597932 176.929889,46.6610341 177.123616,46.9389866 C177.160517,47.202213 176.678967,47.288728 176.523985,47.4323061 C174.721402,48.3858118 172.638376,49.5491624 170.876384,50.4824199 C170.415129,50.776939 169.780443,51.0070321 169.372694,51.3567735 C169.291513,51.6623371 169.843173,51.5058738 169.979705,51.4285626 C172.671587,50.6996277 175.359779,49.9909411 178.04428,49.2049431 C178.230627,49.14788 178.402214,49.1405171 178.557196,49.1846949 C178.597786,49.3816546 178.363469,49.5638883 178.265683,49.7203516 C177.701107,50.5578904 177.062731,51.3843847 176.51107,52.225605 C176.289668,52.4262461 176.190037,52.6765874 176.097786,52.9490176 C176.297048,53.0631437 176.501845,52.8330507 176.671587,52.7465357 C177.260148,52.2348087 177.885609,51.7672596 178.48155,51.2463289 C178.656827,51.1045915 178.915129,50.7806205 179.04428,51.1726991 C179.04428,52.4041572 178.939114,53.6190486 178.97048,54.8541882 C178.968635,55.108211 178.815498,55.9825646 179.083026,56.0746019 C179.370849,55.597849 179.583026,55.0253775 179.739852,54.4860393 C180.225092,53.4220889 180.54428,52.2661013 181.049815,51.2039917 C181.136531,51.194788 181.215867,51.266577 181.289668,51.4193588 C182.697417,54.0810755 184.020295,56.7832885 185.45203,59.4229162 C185.839483,59.5094312 185.577491,58.9075078 185.597786,58.7197518 C184.909594,55.9641572 184.162362,52.8937952 183.51476,50.1179524 C183.413284,49.9449224 183.389299,49.7553257 183.446494,49.5510031 C183.795203,49.4258325 184.302583,49.5602068 184.686347,49.5381179 C185.357934,49.674333 186.070111,49.49394 186.715867,49.6688108 C187.394834,49.7093071 188.064576,49.7350776 188.745387,49.7350776 C188.905904,49.7516443 189.48155,49.8823371 189.420664,49.5749328 C188.48893,49.0797725 187.321033,48.5956567 186.333948,48.0894519 C185.186347,47.6016546 184.066421,46.9702792 182.916974,46.4935264 C182.876384,46.2118925 183.107011,45.9192141 183.175277,45.6504654 C183.763838,43.995636 184.385609,42.2708583 185.001845,40.6344364 C185.167897,40.4153878 185.359779,40.6841365 185.50738,40.7798552 C187.957565,42.4254809 190.715867,44.1318511 193.47786,45.177394 C195.243542,45.8603102 197.370849,46.4972079 199.261993,46.0259772 C199.516605,45.9891624 199.756458,45.775636 200,45.869514 L200,47.5188211 C199.845018,47.4728025 199.767528,47.5850879 199.771218,47.8593588 C199.830258,48.4576008 199.571956,48.9233092 199.614391,49.516029 C199.333948,50.3001861 199.298893,51.3512513 198.972325,52.1685419 C198.46679,54.3277353 197.47048,56.3709617 196.444649,58.322151 C195.394834,60.0911065 194.092251,62.0699069 192.704797,63.5885212 C192.553506,64.0431851 191.98893,64.2732782 191.819188,64.7334643 C191.49631,65.0850465 191.149446,65.4182213 190.809963,65.7550776 C190.357934,66.1453154 190.201107,66.6331127 189.667897,66.9754912 C189.204797,67.3049845 188.979705,67.8829783 188.424354,68.1572492 C187.717712,68.7518097 187.070111,69.6316856 186.308118,70.1010755 C185.98155,70.3679835 185.715867,70.8005584 185.315498,70.9459772 C184.51845,71.7374974 183.555351,72.4332989 182.645756,73.0609928 C181.793358,73.7917684 180.835793,74.334788 179.889299,74.9367115 C176.928044,76.705667 173.594096,78.1175181 170.180812,78.6752637 C169.889299,78.8869493 169.584871,78.6771044 169.289668,78.8832678 C169.009225,78.9495346 168.728782,78.8869493 168.450185,78.9918718 C167.924354,79.1078387 167.439114,78.9366494 166.97417,79.1575388 C166.123616,79.1188831 165.090406,79.2937539 164.285978,79.076546 C164.741697,77.8708583 164.53321,76.7498449 164.559041,75.4705274 C164.315498,74.658759 164.258303,73.7954498 163.964945,72.9339814 C163.671587,72.4038469 163.669742,71.6877973 163.345018,71.192637 C163.075646,70.2796277 162.590406,69.3463702 162.214022,68.475698 C161.826568,67.5626887 161.287823,66.4968976 160.758303,65.6611996 C160.132841,64.2806412 159.166052,62.977394 158.439114,61.6649431 C157.629151,60.4776629 156.811808,59.2774974 155.97417,58.1141468 C155.210332,57.1827301 154.603321,56.1979317 153.789668,55.3014891 C153.616236,54.9057291 153.195572,54.7768769 153.073801,54.3571872 C152.289668,53.5711892 151.571956,52.5256463 150.726937,51.7433299 C150.095941,50.8045502 148.97417,50.0590486 148.361624,49.1239504 C147.666052,48.4097415 146.939114,47.7176215 146.245387,46.9997311 C145.285978,46.3039297 144.750923,45.5455429 143.804428,44.8350155 C143.226937,44.2091624 142.557196,43.7710651 141.98155,43.1580972 C141.690037,43.0494933 141.47786,42.8046743 141.265683,42.5874664 C140.852399,42.460455 140.701107,42.0370838 140.293358,41.8953464 C139.97048,41.5032678 139.53321,41.3468046 139.219557,40.9455222 C138.306273,40.4890176 137.512915,39.6220269 136.607011,39.1305481 C135.182657,38.0978904 133.274908,36.9437435 131.734317,36.0712306 C129.699262,34.9962358 127.315498,33.8144778 125.04428,33.394788 C124.702952,33.2051913 124.239852,33.409514 123.948339,33.1886246 C122.937269,33.0174354 122.219557,33.2714581 121.274908,33.4260807 C121.140221,32.9640538 121.254613,32.3400414 121.234317,31.8448811 C121.498155,31.4049431 121.245387,30.8932161 121.501845,30.4716856 C121.47786,29.5439504 121.894834,28.4174147 122.04059,27.4933609 C122.182657,27.117849 122.217712,26.5950776 122.440959,26.260062 C123.016605,24.0493278 123.964945,22.3263909 124.99262,20.3310238 C125.383764,19.9223785 125.527675,19.4032885 125.881919,18.9780765 C126.391144,18.1957601 126.950185,17.3490176 127.590406,16.6661013 C127.714022,16.2537746 128.143911,16.1083557 128.282288,15.696029 C128.771218,15.2873837 129.0369,14.7554085 129.505535,14.3430817 C129.769373,14.0246329 130.108856,13.8313547 130.293358,13.4558428 C130.822878,12.8907342 131.392989,12.3495553 131.940959,11.8028542 C132.878229,11.1457084 133.607011,10.0762358 134.551661,9.43933816 C134.856089,9.19820062 134.98893,8.88527404 135.369004,8.77482937 C135.804428,8.24469493 136.359779,7.93913133 136.846863,7.47342296 C140.634686,4.5098242 144.880074,1.98064116 149.594096,0.85778697 C150.363469,0.642419855 151.776753,0.42705274 152.583026,0.250341262 C152.876384,0.184074457 153.487085,0.377352637 153.590406,0 Z" id="Shape" fill="#A8A9AD" fill-rule="nonzero"></path>
                <path d="M19.800738,31.708666 C19.9428044,31.6331954 20.1070111,31.6037435 20.295203,31.6239917 C42.6199262,31.6239917 64.9446494,31.622151 87.2693727,31.6239917 C88.3118081,31.6718511 89.3634686,31.6184695 90.4059041,31.6663289 C91.2416974,31.7491624 92.0682657,31.7362771 92.9077491,31.7454809 C93.4298893,31.9884592 94.095941,31.8007032 94.6494465,31.9958221 C95.3929889,32.0289555 96.800738,32.3050672 97.601476,32.292182 C98.9391144,32.6713754 100.584871,32.7855016 101.845018,33.2456877 C104.678967,33.8439297 107.673432,35.0717063 110.147601,36.5958428 C112.134686,37.8254602 113.900369,39.3588004 115.276753,41.2547673 C115.341328,41.4388418 115.448339,41.5824199 115.597786,41.6836608 C116.813653,43.4636608 117.717712,45.6081282 118.250923,47.6752844 C118.295203,48.1888521 118.623616,48.6637642 118.560886,49.14788 C118.708487,50.1382006 118.813653,50.9223578 118.935424,51.9089969 C119,53.897001 119.023985,55.8224199 118.811808,57.7993795 C118.610701,58.7694519 118.666052,59.8444467 118.422509,60.7445708 C118.103321,62.7288935 117.601476,65.096091 117.00369,67.0031024 C116.939114,67.6418407 116.643911,68.0486453 116.48155,68.6597725 C116.247232,69.6813857 115.664207,70.7766287 115.321033,71.7890383 C115.180812,72.3210134 114.806273,72.7167735 114.699262,73.2616339 C112.785978,77.1824199 110.322878,80.8326163 107.075646,83.8201448 C105.797048,85.0552844 104.332103,86.1284385 102.990775,87.2954705 C102.835793,87.4850672 102.601476,87.4188004 102.667897,87.7188418 C103.123616,87.7777456 103.590406,87.4592968 104.059041,87.4316856 C104.623616,87.3654188 104.98524,87.1150776 105.535055,87.1205998 C105.99262,87.0506515 106.372694,86.9346846 106.817343,86.8352844 C107.116236,86.6972285 107.52952,86.794788 107.830258,86.5996691 C108.520295,86.5812616 109.114391,86.3585315 109.778598,86.3051499 C110.130996,86.1542089 110.47786,86.2609721 110.784133,86.0474457 C111.896679,86.038242 113.214022,85.6940228 114.391144,85.6001448 C115.845018,85.4749741 117.747232,85.1105067 119.188192,85.1491624 C119.750923,84.9577249 120.405904,85.007425 121.03321,84.9650879 C121.714022,84.7460393 122.54428,84.935636 123.267528,84.7441986 C125.217712,84.6337539 127.108856,84.5711686 129.066421,84.589576 C129.188192,84.4938573 129.339483,84.4552017 129.520295,84.4699276 C133.557196,84.438635 137.46679,84.4055016 141.512915,84.5122647 C142.638376,84.6668873 143.607011,84.3962978 144.649446,84.7810134 C147.071956,84.7129059 148.695572,85.0700103 151.023985,85.1270734 L151.116236,85.1786143 C152.350554,85.3424405 153.765683,85.598304 154.98155,85.6737746 C156.236162,85.9977456 156.928044,85.9425233 158.130996,86.2701758 C160.118081,86.621758 162.429889,87.2494519 164.354244,87.8679421 C167.935424,89.0460186 171.666052,90.8057704 174.422509,93.4398759 C175.96679,94.9345605 177.324723,96.8562978 178.092251,98.8387797 C179.346863,101.999338 179.516605,105.355016 179.250923,108.72726 C179.145756,109.089886 179.169742,109.516939 179.142066,109.892451 C179.01845,110.194333 179.02583,110.490693 178.99631,110.812823 C179.00369,111.099979 178.802583,111.256443 178.859779,111.549121 C178.808118,111.712947 178.658672,111.782896 178.413284,111.757125 C166.789668,111.755284 155.164207,111.758966 143.542435,111.755284 L143.394834,111.696381 L143.339483,111.549121 C143.464945,109.888769 143.54059,107.990962 143.049815,106.395036 C142.592251,104.270817 141.217712,102.500021 139.402214,101.323785 C138.874539,101.104736 138.579336,100.756836 138.00738,100.561717 C136.498155,100.018697 135.175277,99.6155739 133.568266,99.4554292 C130.04428,99.0302172 126.232472,99.0725543 122.774908,99.85303 C122.151292,100.119938 121.583026,100.12546 120.961255,100.427342 C118.789668,101.185729 116.706642,102.479772 115.337638,104.370217 C114.505535,105.454416 114.04797,106.755822 113.730627,108.051706 C113.693727,109.204012 113.557196,110.280848 114.02214,111.365047 C114.662362,113.200269 116.654982,114.260538 118.324723,114.978428 C120.328413,115.817808 123.005535,116.684798 125.101476,117.216774 C125.787823,117.395326 126.309963,117.669597 127.0369,117.708252 C127.625461,117.980683 128.324723,118.144509 128.96679,118.253113 C129.961255,118.59181 130.95203,118.683847 131.928044,119.040951 C132.616236,119.28393 133.260148,119.306019 134.016605,119.569245 C134.854244,119.817746 135.479705,119.860083 136.346863,120.145398 C137.099631,120.384695 137.739852,120.410465 138.560886,120.695781 C139.586716,120.826474 140.651292,121.306908 141.612546,121.389741 C142.616236,121.825998 143.472325,121.835202 144.464945,122.192306 C146.228782,122.586225 147.442804,123.026163 149.273063,123.464261 C151.54428,124.161903 153.837638,124.806163 156.088561,125.562709 C160.352399,127.062916 165.066421,128.809783 168.750923,131.502792 C170.531365,132.829969 172.027675,134.621013 173.055351,136.583247 C173.162362,136.921944 173.354244,137.275367 173.531365,137.588294 C173.859779,138.700103 174.330258,139.638883 174.407749,140.81696 C174.782288,142.793919 174.754613,144.706453 174.483395,146.696298 C174.330258,147.058925 174.453875,147.546722 174.254613,147.892782 C174.238007,148.949369 173.822878,149.851334 173.715867,150.858221 C173.252768,151.984757 173.01476,153.275119 172.409594,154.337229 C172.217712,155.062482 171.795203,155.72515 171.501845,156.380455 C170.199262,158.856256 168.564576,161.09092 166.581181,163.069721 C162.939114,166.762254 158.680812,169.250941 153.994465,171.301531 C152.284133,171.949473 150.647601,172.698656 148.885609,173.173568 C148.095941,173.532513 147.302583,173.633754 146.494465,173.930114 C146.057196,174.139959 145.487085,174.11787 145.01845,174.324033 C143.321033,174.738201 141.961255,175.135801 140.221402,175.430321 C139.158672,175.761655 138.546125,175.722999 137.453875,175.969659 C136.429889,176.183185 135.175277,176.286267 133.948339,176.521882 C133.053506,176.717001 131.094096,176.805357 130.062731,177.022565 C128.891144,177.182709 127.210332,177.313402 126.01476,177.341013 C124.520295,177.674188 122.940959,177.549018 121.402214,177.709162 C120.570111,177.714685 119.734317,177.701799 118.904059,177.716525 C118.649446,177.920848 118.206642,177.817766 117.896679,177.843537 C116.950185,177.939255 115.979705,177.869307 115.02583,177.9006 L114.933579,178 L107.302583,178 L107.302583,177.9006 C106.138376,177.902441 105.035055,177.885874 103.874539,177.838014 C103.418819,177.585832 102.719557,177.749659 102.214022,177.760703 C101.660517,177.72757 101.107011,177.740455 100.553506,177.738614 C99.8505535,177.539814 99.101476,177.666825 98.3837638,177.556381 C97.7380074,177.388873 97.1125461,177.549018 96.4944649,177.341013 C95.2712177,177.33365 93.6457565,177.151417 92.4354244,177.015202 C91.9889299,177.026246 91.5701107,176.884509 91.1439114,176.78879 C89.7619926,176.740931 88.7712177,176.457456 87.4538745,176.282585 C86.8321033,176.264178 86.103321,175.984385 85.4391144,175.912596 C84.9667897,175.711954 84.3892989,175.811355 83.9483395,175.583102 C82.7324723,175.286743 81.6346863,175.065853 80.4520295,174.646163 C78.0535055,173.983495 76.0811808,173.195657 73.8819188,172.024943 C71.8265683,170.90393 69.9575646,169.49576 68.4907749,167.658697 C68.3597786,167.273981 67.9630996,167.19667 67.8634686,166.780662 C66.6346863,164.927032 65.8726937,162.708935 65.6199262,160.512927 C65.4354244,159.968066 65.5645756,159.333009 65.398524,158.784467 C65.3708487,157.72788 65.3819188,156.674974 65.398524,155.620228 C65.5904059,154.999897 65.4261993,154.272802 65.601476,153.645109 C65.8099631,151.951624 65.9132841,150.560021 66.2287823,148.916236 C66.2103321,148.627239 66.3357934,148.483661 66.6051661,148.483661 C78.6586716,148.483661 90.7140221,148.485502 102.767528,148.483661 C102.96679,148.459731 103.130996,148.494705 103.258303,148.590424 C103.343173,149.065336 103.110701,149.3709 103.132841,149.836608 C102.869004,151.874312 102.870849,153.912017 103.361624,155.911065 C103.442804,156.525874 103.815498,157.032079 103.95941,157.667135 C104.339483,158.158614 104.48893,158.651934 104.900369,159.121324 C106.208487,160.766949 108.186347,161.884281 110.177122,162.477001 C111.177122,162.786246 111.924354,162.793609 112.915129,163.029224 C115.50369,163.259317 118.274908,163.207777 120.848708,162.92062 C121.020295,162.92062 121.171587,162.881965 121.300738,162.806494 C122.627306,162.773361 123.994465,162.434664 125.276753,162.132782 C125.791513,161.994726 126.322878,161.775677 126.852399,161.716774 C127.197417,161.462751 127.640221,161.400165 128.03321,161.199524 C130.806273,160.082192 133.53321,158.112596 134.760148,155.242875 C135.178967,154.484488 135.295203,153.702172 135.523985,152.886722 C135.780443,151.3 135.50369,149.74273 134.647601,148.386101 C133.835793,147.057084 132.162362,146.304219 130.811808,145.661799 C129.736162,145.315739 128.453875,144.640186 127.387454,144.413775 C126.723247,144.099007 125.891144,144.062192 125.285978,143.717973 C123.005535,143.06819 121.140221,142.615367 119.199262,142.055781 C118.241697,141.877229 117.618081,141.586391 116.688192,141.468583 C115.743542,141.109638 114.758303,141.034168 113.837638,140.695471 C111.640221,140.183744 109.166052,139.598387 107.01107,139.007508 C106.542435,138.926515 106.160517,138.838159 105.719557,138.661448 C104.863469,138.545481 103.824723,138.177332 102.95203,137.936194 C102.049815,137.805502 101.138376,137.418945 100.184502,137.245915 C99.2859779,136.918263 98.6642066,136.840951 97.702952,136.483847 C96.5922509,136.255595 95.7859779,135.854312 94.6918819,135.598449 C94.1918819,135.324178 93.6900369,135.3297 93.1734317,135.103289 C89.9778598,134.024612 87.1494465,133.037973 84.1328413,131.558014 C83.5442804,131.241406 82.8874539,131.022358 82.3874539,130.593464 C81.4464945,130.217952 80.2915129,129.360165 79.4538745,128.739835 C77.8856089,127.547032 76.6309963,126.041303 75.8616236,124.241055 C75.3800738,123.331727 75.2250923,122.451851 74.9261993,121.489142 C74.6531365,120.491458 74.7250923,119.519545 74.5424354,118.54395 C74.5405904,117.625419 74.498155,116.695843 74.599631,115.782834 C74.6697417,115.318966 74.5166052,114.915843 74.7306273,114.494312 C74.8062731,113.224199 75.2066421,112.331437 75.3616236,111.079731 C75.7306273,110.118862 75.8413284,109.338387 76.202952,108.419855 C76.3413284,107.852906 76.6881919,107.333816 76.8210332,106.763185 C77.7416974,104.791748 78.5553506,103.177415 79.902214,101.432389 C81.1568266,99.6395036 82.7066421,98.0969597 84.3302583,96.63909 C85.7084871,95.5162358 87.1863469,94.4670114 88.6143911,93.3864943 C88.7712177,93.1766494 89.1512915,93.158242 89.0295203,92.8582006 L88.7453875,92.8508376 C87.8394834,93.1030196 86.2084871,93.2834126 85.2398524,93.4325129 C84.300738,93.5171872 83.1900369,93.6000207 82.2878229,93.8006618 C80.6715867,93.8153878 79.1125461,93.9589659 77.4907749,93.9497622 C71.7841328,93.9460807 66.0350554,93.9534436 60.3321033,93.9479214 C59.9446494,93.8522027 60.2527675,93.3147053 60.2324723,93.0385936 C60.6660517,91.6064943 60.7564576,90.189121 61.1771218,88.9079628 C61.2564576,87.7464529 61.6494465,86.8555326 61.804428,85.778697 C62.103321,84.4680869 62.2656827,83.4059772 62.597786,82.1064116 C62.7767528,81.5946846 62.7103321,80.9283351 62.9335793,80.4405377 C63.2546125,79.3655429 63.3726937,77.9003102 63.7527675,76.8602896 C63.7693727,76.5381593 63.8191882,76.2105067 63.9095941,75.9012616 C64.1383764,75.6122647 64.4280443,75.776091 64.7601476,75.7282316 C67.1531365,75.444757 69.2250923,75.1115822 71.4852399,74.2666805 C73.4686347,73.6316236 75.3782288,72.4572285 76.8634686,70.9809514 C78.1881919,69.5967115 79.1476015,68.0376008 79.8413284,66.2668046 C80.0369004,65.5710031 80.4760148,64.7205791 80.5276753,63.9566701 C80.9446494,62.9203309 81.0332103,61.8416546 81.195572,60.7445708 C81.50369,58.999545 81.3099631,57.550879 80.9114391,55.8555533 C80.6642066,55.2462668 80.4501845,54.6774767 80.0885609,54.1178904 C79.1291513,52.5403723 77.5350554,51.4340848 75.8302583,50.7935057 C75.0313653,50.4916236 73.8819188,50.1915822 73.0627306,49.9614891 C71.7638376,49.8528852 70.7619926,49.6099069 69.3726937,49.6209514 C64.295203,49.6080662 59.0092251,49.6504033 53.9594096,49.6007032 C53.7232472,50.7438056 53.4704797,51.8740228 53.2546125,53.0134436 C52.900369,54.1694312 52.9428044,54.826577 52.5904059,55.958635 C51.9188192,59.4707756 51.1180812,62.5871562 50.501845,65.7053775 C50.0202952,68.0376008 49.4704797,70.3679835 49.0202952,72.7094105 C48.695572,73.7420683 48.6918819,74.5685626 48.3597786,75.6546019 C47.9575646,77.8248397 47.3099631,80.3080041 46.9630996,82.384364 C46.6826568,83.2605584 46.6900369,83.8293485 46.4667897,84.6742503 C46.1531365,85.7474043 46.1180812,86.6199173 45.8136531,87.6194416 C45.402214,89.7988831 44.7509225,92.4293071 44.3800738,94.5332782 C43.9870849,95.8052327 43.9575646,96.7587384 43.6070111,97.9276112 C43.4594096,99.2179731 43.0719557,100.145708 42.9132841,101.425026 C42.4501845,103.258407 42.1088561,105.283226 41.6863469,107.131334 C41.2287823,108.795367 40.9280443,111.072368 40.4741697,112.653568 C39.9833948,115.123847 39.3302583,118.030383 38.8081181,120.568769 C38.6752768,121.549886 38.3671587,122.254891 38.2915129,123.250734 C38.1254613,123.615202 38.1439114,124.036732 37.9594096,124.406722 L37.8228782,124.47667 C25.5221402,124.480352 13.2232472,124.478511 0.922509225,124.47667 C0.623616236,124.454581 0.274907749,124.535574 5.68434189e-14,124.410403 L5.68434189e-14,124.167425 L0.0996309963,124.165584 C0.169741697,123.593113 0.343173432,122.836567 0.453874539,122.306432 C0.745387454,121.413671 0.769372694,120.519069 1.04797048,119.637353 C1.92619926,115.514085 2.83579336,111.158883 3.70110701,107.131334 C3.90774908,106.60304 3.86162362,105.982709 4.06457565,105.474664 C4.12177122,104.933485 4.35055351,104.471458 4.32841328,103.900827 C4.53505535,103.646805 4.43357934,103.324674 4.56273063,103.072492 C4.68819188,102.494498 4.87822878,101.923868 4.88191882,101.323785 C5.08856089,101.066081 4.98523985,100.751313 5.11439114,100.49545 C5.21586716,99.9671562 5.42435424,99.3854809 5.42804428,98.8479835 C5.87453875,97.2796691 6.08302583,95.6469286 6.49815498,94.0620476 C6.5904059,93.1379938 7.04059041,92.0298656 7.09594096,91.0156153 C7.27675277,90.6308997 7.28782288,90.1246949 7.4797048,89.7436608 C7.50922509,88.646577 7.95756458,87.7464529 8.01107011,86.6990693 C8.19557196,86.1486867 8.28782288,85.4492037 8.46678967,84.8583247 C8.60701107,83.5274664 9.06457565,82.7414685 9.12546125,81.4437435 C9.6402214,80.1018407 9.55719557,78.9661013 10.0627306,77.5947466 C10.1605166,76.6743744 10.3302583,75.7852947 10.6236162,74.918304 C10.7066421,73.8985315 11.101476,72.8898035 11.1549815,71.8718718 C11.4261993,71.3527818 11.4114391,70.6827508 11.6088561,70.1323681 C11.7416974,68.9174767 12.202952,68.0468046 12.2619926,66.717787 C12.6826568,65.7513961 12.7103321,64.497849 13.0332103,63.4780765 C13.2195572,62.7196898 13.398524,61.6502172 13.5535055,60.8255636 C13.8523985,60.1684178 13.7712177,59.5775388 14.0055351,58.9038263 C14.9833948,54.1123681 16.0867159,49.3411582 17.0369004,44.5460186 C17.5147601,42.7899483 17.8726937,40.4742916 18.3191882,38.6648397 C18.7804428,36.4301758 19.3173432,33.9801448 19.800738,31.708666 Z" id="Shape" fill="#680001" fill-rule="nonzero"></path>
                <path d="M143.090406,45.7351396 C146.383764,48.6987384 149.656827,52.0912306 152.468635,55.52606 C152.575646,55.7027715 152.819188,55.864757 152.721402,56.0948501 C147.647601,60.6028335 142.579336,65.1218614 137.51107,69.6353671 C137.332103,69.8323268 137.138376,69.7936711 137.02214,70.0679421 C132.343173,74.24091 127.664207,78.4046743 122.983395,82.5702792 C122.680812,82.7819648 122.245387,82.6567942 121.942804,82.7746019 C120.588561,82.9016132 118.894834,83.0359876 117.527675,83.0948914 C116.918819,83.2513547 116.217712,83.2587177 115.581181,83.2863289 C115.086716,83.4851293 114.450185,83.4538366 113.920664,83.4704033 C113.568266,83.6876112 113.03321,83.6213444 112.630996,83.6544778 C112.387454,83.8054188 112.079336,83.7686039 111.808118,83.8716856 C111.199262,83.8680041 110.418819,84.2122234 109.854244,84.0520786 C110.372694,83.4280662 110.99262,82.8445502 111.505535,82.1561117 C111.876384,81.9554705 111.97786,81.3995657 112.361624,81.1621096 C114.149446,78.6605377 115.409594,76.6228335 116.739852,73.8138573 C117.005535,73.3444674 117.064576,72.8106515 117.383764,72.3486246 C117.583026,71.884757 117.690037,71.3214891 117.942804,70.8778697 C118.45203,69.4733816 118.822878,68.2805791 119.245387,66.8576836 C119.610701,66.4453568 120.070111,66.0900931 120.479705,65.7201034 C127.861624,59.1320786 135.234317,52.5716649 142.607011,45.9965253 C142.789668,45.8639917 142.828413,45.6670321 143.090406,45.7351396 Z" id="Shape" fill="#231F20" fill-rule="nonzero"></path>
                <path d="M74.4391144,106.663785 L74.6383764,106.663785 C74.6642066,106.811044 74.6088561,106.954623 74.4741697,107.090838 C72.9095941,111.061324 72.1826568,115.363144 72.5073801,119.648397 C72.5535055,120.984778 72.896679,121.965895 73.1476015,123.247053 C73.5110701,123.78455 73.5332103,124.528211 73.900369,125.067549 C74.0147601,125.404405 74.4280443,125.822254 74.0313653,126.131499 C63.3634686,135.635264 52.7121771,145.085646 42.0350554,154.582048 C41.7250923,154.675926 41.6863469,154.918904 41.4464945,155.104819 C37.4612546,158.602234 33.5221402,162.167756 29.50369,165.635719 C29,165.887901 28.1660517,165.354085 27.6752768,165.173692 C27.3413284,165.07061 26.8708487,164.949121 26.6678967,164.647239 C26.2269373,164.558883 25.8653137,164.207301 25.4612546,163.999297 C24.2785978,163.242751 23.095941,162.268997 22.2250923,161.166391 C21.4059041,160.102441 20.9760148,158.983268 20.4815498,157.75181 C20.2509225,156.956608 19.8062731,156.09698 20.0110701,155.259442 C29.7915129,146.549038 39.5608856,137.834953 49.3450185,129.119028 C50.204797,128.327508 51.1457565,127.587528 51.9298893,126.727901 C52.3265683,126.565915 52.6051661,126.149907 52.9446494,125.890362 C53.5719557,125.417291 54.0885609,124.828252 54.7121771,124.351499 C55.4833948,123.607839 56.398524,122.921241 57.095941,122.126039 C57.3284133,122.056091 57.4501845,121.888583 57.6254613,121.739483 C63.0516605,116.907528 68.4760148,112.06637 73.904059,107.236256 C74.0830258,107.061386 74.3708487,106.910445 74.4391144,106.663785 Z" id="Shape" fill="#231F20" fill-rule="nonzero"></path>
            </g>
        </g>
    </g>
</svg>