<?xml version="1.0" encoding="UTF-8"?>
<svg width="200px" height="200px" viewBox="0 0 200 200" version="1.1" xmlns="http://www.w3.org/2000/svg" xmlns:xlink="http://www.w3.org/1999/xlink">
    <!-- Generator: Sketch 56.3 (81716) - https://sketch.com -->
    <title>purdue-northwest</title>
    <desc>Created with Sketch.</desc>
    <g id="purdue-northwest" stroke="none" stroke-width="1" fill="none" fill-rule="evenodd">
        <g id="purdue-northwest_BGL">
            <g id="Group" transform="translate(0.000000, 20.000000)">
                <path d="M188.775904,73.7355925 C189.126104,73.5580825 189.672289,73.3612953 189.672289,73.3612953 C183.702008,62.6359941 176.784739,56.3974399 176.784739,56.3974399 C179.195984,30.9886046 149.627309,12.227962 122.469076,3.86651621 C122.900402,6.26410657 123.093976,8.69462866 123.093976,8.69462866 C105.816064,0.756476051 85.4594378,-2.38810226 60.0883534,1.97254031 C60.0883534,1.97254031 62.0738956,4.38137565 64.3791165,7.8592873 C44.2208835,10.8584841 31.7911647,18.3781628 23.5349398,25.4416166 C23.5349398,25.4416166 29.2273092,25.3564761 33.1172691,25.8793676 C24.7831325,32.0801708 8.09959839,50.0191267 0,61.2295684 C30.7903614,63.4729419 61.3791165,99.7508536 68.3485944,142.578163 C80.7855422,154.938002 94.9228916,158.724348 101.979116,160.024749 C102.603213,151.766918 104.559839,145.026356 108.185542,139.944428 C110.350201,143.166918 115.711647,148.138002 115.711647,148.138002 C115.711647,148.138002 116.521285,144.32756 118.593574,139.923544 C119.967068,140.856878 121.813655,141.432781 123.850602,141.432781 C126.470683,141.432781 128.781526,140.48499 130.167068,139.037601 C132.188755,140.978163 134.368675,142.759689 136.610442,144.391817 C136.610442,144.391817 134.914859,148.216717 133.269076,150.596637 C151.745382,156.316315 161.562249,146.30748 164.182329,134.285793 C166.840161,129.938805 166.705221,125.191817 165.35261,120.409488 C165.742972,120.325151 166.133333,120.234388 166.538153,120.124348 C168.070683,121.003062 170.46506,121.225552 170.46506,121.225552 C177.75502,120.047239 183.795984,115.313103 187.098795,108.770131 C192.443373,105.35005 197.877108,99.1797692 199.599197,89.0793676 C197.077912,83.9878014 192.406426,77.7612953 188.775904,73.7355925 Z" id="Path" fill="#E4D1AD"></path>
                <path d="M158.500402,125.111496 C158.236948,125.344428 157.976707,125.546837 157.714859,125.733183 C157.628112,126.246436 157.491566,126.733986 157.295582,127.171737 C156.708434,128.46491 156.04498,129.516315 155.42249,130.324348 C155.990361,130.611898 156.548594,130.876958 157.057028,131.122741 C159.313253,128.337199 158.500402,125.111496 158.500402,125.111496" id="Fill-1" fill="#FFFFFE"></path>
                <path d="M152.448193,128.697842 C155.326908,125.813504 154.395181,122.12756 154.395181,122.12756 C151.748594,124.490613 148.608032,124.354066 147.408835,124.191014 C147.617671,124.553263 147.857831,124.912299 148.129317,125.248042 C149.077108,126.453665 150.702008,127.640813 152.448193,128.697842" id="Fill-2" fill="#FFFFFE"></path>
                <path d="M151.404819,61.1853917 C151.404819,61.1853917 156.321285,66.2078817 165.539759,72.75246 C165.214458,69.2343877 164.591968,67.0231427 164.591968,67.0231427 C164.591968,67.0231427 169.593574,70.1596889 170.382329,76.0649098 C169.538153,76.9388054 168.551807,77.7355925 167.624096,78.4030624 C170.195984,79.9741467 173.789558,82.8376005 175.843373,87.3861949 C176.114859,88.080974 176.323695,89.6102913 176.26988,90.7050704 C169.429719,87.8239459 164.946185,83.7452311 164.946185,83.7452311 C168.048193,89.2287652 172.093976,91.8914158 175.236145,93.3452311 C166.466667,92.3588857 160.811245,88.0376005 160.811245,88.0376005 C164.648193,93.9219379 171.452209,96.4239459 175.019277,96.9283636 C169.746988,97.7315765 161.466667,94.6070785 161.466667,94.6070785 C164.504418,97.1629018 167.636948,98.5612953 170.407229,99.3131026 C168.428916,100.240813 166.015261,100.444829 164.073896,100.414307 C166.439357,102.023946 169.435341,103.32756 173.661044,103.539609 C182.942169,103.996637 186.586345,97.650452 187.746988,94.8094881 C185.414458,92.9878014 184.84498,89.9813756 184.84498,89.9813756 C182.527711,88.8223395 179.981526,88.0600905 179.981526,88.0600905 C179.981526,88.0600905 183.128514,86.5910142 187.743775,87.1612953 C181.638554,77.427962 172.252209,71.8456327 172.252209,71.8456327 C172.694779,71.2496487 174.409639,70.725954 174.409639,70.725954 C166.731727,60.2046688 154.652209,55.5629018 151.587149,54.7629018 C149.464257,54.2102913 147.016064,53.9307732 144.858635,54.1476407 C146.350201,55.9886046 148.742972,58.7869981 151.404819,61.1853917" id="Fill-3" fill="#FFFFFE"></path>
                <path d="M160.320482,75.3878014 C160.128514,75.0416166 160.128514,74.5725403 160.204016,74.1090865 C160.335743,74.1861949 160.475502,74.2400102 160.640161,74.2400102 C161.107631,74.2400102 161.495582,73.843223 161.495582,73.3693275 C160.37992,72.6633034 159.137349,71.9669178 157.95743,71.1556728 C157.697189,72.3500503 157.391165,75.1235443 159.780723,76.303464 C160.66988,76.7436246 161.509237,76.7829821 162.205622,76.6616969 C161.454618,76.5122993 160.783133,76.2207331 160.320482,75.3878014" id="Fill-4" fill="#FFFFFE"></path>
                <path d="M164.562249,112.790211 C164.562249,112.790211 168.749398,111.872139 171.916466,108.104267 C170.412048,108.033584 168.909237,107.848846 167.473896,107.542018 C167.053815,108.693825 166.126104,110.88258 164.562249,112.790211" id="Fill-5" fill="#FFFFFE"></path>
                <path d="M174.334137,112.04001 C174.334137,112.04001 177.277108,110.39744 178.690763,107.603866 C178.690763,107.603866 177.097992,107.959689 175.906024,108.031175 C175.758233,108.762902 175.358233,110.228765 174.334137,112.04001" id="Fill-6" fill="#FFFFFE"></path>
                <path d="M128.563855,55.4825805 C130.033735,56.027962 131.477108,56.6584841 132.885141,57.3982431 C132.748594,56.6400102 131.592771,50.6488455 127.967068,47.1275604 C123.636145,42.9058736 119.001606,41.9669178 116.820884,42.0376005 C115.873896,42.0633034 114.546185,42.1821789 113.257831,42.5950303 C114.981526,42.8343877 117.64739,43.5548696 120.296386,45.6777612 C126.702811,50.8183234 128.563855,55.4825805 128.563855,55.4825805" id="Fill-7" fill="#FFFFFE"></path>
                <path d="M181.387149,72.4777612 C181.387149,72.4777612 182.275502,71.763705 183.26988,71.3307732 C179.900402,65.7837853 175.534137,61.7235443 172.143775,57.8303716 C177.004016,28.8729419 130.906024,11.4689259 127.766265,10.378966 C128.027309,12.3934238 128.26747,14.488203 128.471486,16.6030624 C106.158233,2.8970383 80.1212851,3.70025115 68.0160643,5.34924714 C91.0811245,8.79663669 114.40241,19.4721387 130.167068,44.8689259 C111.454618,26.2070785 86.8176707,7.89623509 59.1767068,13.2914158 C49.2915663,15.2215363 41.7823293,18.7114961 36.5678715,21.6143074 C61.9156627,22.763705 92.8361446,33.378966 108.858635,57.2865965 C90.0706827,41.6231427 62.4409639,30.7179218 36.1839357,29.0817773 C34.8056225,30.190211 24.5614458,38.5315765 15.1253012,49.0520584 C40.6674699,45.1693275 75.3116466,49.1765564 95.788755,70.5966367 C72.2787149,57.0576809 28.8369478,50.839207 7.99839357,58.2151106 C20.6835341,60.7428214 61.297992,80.8110945 72.4409639,140.423946 C83.784739,151.770131 98.1180723,154.726757 98.1180723,154.726757 C98.8578313,148.018323 101.483534,139.654468 108.62008,132.688203 C110.283534,135.990211 113.857831,139.764508 113.857831,139.764508 C115.585542,134.605472 118.538153,130.561295 121.857831,127.838404 C120.381526,124.644829 119.205622,120.771737 118.983133,117.523544 C110.547791,109.661697 105.567068,98.4890062 108.685944,85.7058736 C110.462651,100.295432 118.270683,111.72756 123.256225,116.458484 C123.720482,119.356476 124.248193,121.95246 125.703614,125.336396 C128.628112,132.844026 136.509237,139.173344 142.089157,142.807882 C142.089157,142.807882 141.015261,145.609488 140.045783,147.387801 C140.045783,147.387801 152.077912,149.678564 157.06506,140.497038 C158.368675,138.086597 159.509237,135.447239 160.016064,132.610291 C163.535743,128.910693 161.17992,121.497842 160.612048,120.141215 C160.513253,119.886597 160.429719,119.754066 160.28755,119.746837 C160.167871,119.742821 160.031325,119.845633 159.795984,120.133986 C159.106024,120.944428 158.412851,121.585392 157.713253,122.088203 C157.44498,119.913906 156.829719,117.90507 156.51245,117.157279 C156.406426,116.913906 156.326104,116.775753 156.194378,116.770934 C156.072289,116.764508 155.93253,116.871335 155.702008,117.147641 C155.378313,117.52997 155.053815,117.865713 154.729317,118.170131 C155.318876,113.873745 154.666667,109.270532 154.666667,109.270532 C155.833735,107.560492 157.518072,105.476958 159.601606,103.938002 C160.679518,104.717119 162.404016,105.847239 163.950201,106.476958 C162.366265,111.125151 159.326908,115.473745 158.859438,115.902661 C158.572691,116.168524 158.575904,116.321938 158.595984,116.388605 C158.650602,116.558082 158.839357,116.579769 158.989558,116.589408 C160.477108,116.668926 166.083534,116.578163 171.006426,113.491416 C170.326104,114.906677 169.715663,115.989408 169.555823,116.22234 C169.326908,116.534789 169.367068,116.683384 169.396787,116.749247 C169.48996,116.90507 169.679518,116.893022 169.832932,116.861697 C171.626506,116.567721 179.412048,115.283384 183.676305,105.677761 C188.518876,102.925151 193.425703,97.7468375 194.985542,89.6914158 C191.711647,82.9813756 184.88755,75.541215 181.387149,72.4777612 Z M157.295582,127.171737 C157.491566,126.733986 157.628112,126.246436 157.714859,125.733183 C157.976707,125.546837 158.236948,125.344428 158.500402,125.111496 C158.500402,125.111496 159.313253,128.337199 157.057028,131.122741 C156.548594,130.876958 155.990361,130.611898 155.42249,130.324348 C156.04498,129.516315 156.708434,128.46491 157.295582,127.171737 Z M111.536546,53.3468375 C111.145382,52.9548696 109.057028,50.7492471 109.090763,47.9026608 C109.136546,44.7420182 111.143775,43.2721387 113.257831,42.5950303 C114.546185,42.1821789 115.873896,42.0633034 116.820884,42.0376005 C119.001606,41.9669178 123.636145,42.9058736 127.967068,47.1275604 C131.592771,50.6488455 132.748594,56.6400102 132.885141,57.3982431 C131.477108,56.6584841 130.033735,56.027962 128.563855,55.4825805 C127.899598,54.6086849 125.868273,52.0159138 124.383133,50.8199299 C121.983936,48.9042672 117.666667,46.8384038 116.373494,46.9516568 C118.292369,48.4938254 120.953414,51.4665162 121.416064,53.605472 C119.376707,52.005472 115.039357,49.1355925 112.742169,48.5420182 C112.742169,48.5420182 113.846586,49.7131026 114.551004,50.6785644 C115.335743,51.7556728 115.550201,52.2520584 115.870683,53.1436246 C114.427309,53.1243475 112.982329,53.1918174 111.536546,53.3468375 Z M147.567871,112.583785 C148.240964,111.092219 149.139759,109.441617 150.114056,107.827159 C150.827309,110.046436 152.041767,114.856074 151.322088,120.289006 C149.686747,120.834388 147.995984,120.825552 146.198394,120.566918 C145.961446,118.803866 146.196787,116.615111 146.702008,114.852862 C147.969478,116.297842 148.40241,117.448042 148.40241,117.448042 C148.40241,117.448042 148.814458,114.984589 147.567871,112.583785 Z M154.395181,122.12756 C154.395181,122.12756 155.326908,125.813504 152.448193,128.697842 C150.702008,127.640813 149.077108,126.453665 148.129317,125.248042 C147.857831,124.912299 147.617671,124.553263 147.408835,124.191014 C148.608032,124.354066 151.748594,124.490613 154.395181,122.12756 Z M154.571888,93.3974399 C149.646586,92.4110945 147.410442,93.7693275 146.742169,94.8159138 C146.742169,94.8159138 150.159036,95.7171186 151.282731,96.7926206 C151.282731,96.7926206 145.546988,105.72756 143.543775,110.39503 C142.391968,113.089809 140.485944,118.788605 142.44257,124.226356 C143.873092,128.205472 147.55502,131.922741 154.212851,134.798243 C154.212851,134.798243 153.84739,138.22234 150.6249,140.930773 C149.224096,142.106677 147.571084,142.219127 147.571084,142.219127 C147.571084,142.219127 147.97751,141.329167 148.215261,140.444829 C144.781526,137.712299 136.449799,129.954066 133.350201,117.183785 C133.350201,117.183785 143.053012,104.70507 134.795984,93.5564761 C134.795984,93.5564761 136.889157,103.861697 131.456225,110.17736 C131.456225,110.17736 122.8249,107.075352 120.415261,92.016717 C120.303614,91.3106929 120.26747,90.5516568 120.586345,89.8592873 C126.045783,77.778966 132.249799,70.6303716 141.223293,64.3861949 C141.223293,64.3861949 137.452209,60.8986447 139.728514,56.778966 C140.6249,55.1604921 142.57992,54.3765564 144.858635,54.1476407 C147.016064,53.9307732 149.464257,54.2102913 151.587149,54.7629018 C154.652209,55.5629018 166.731727,60.2046688 174.409639,70.725954 C174.409639,70.725954 172.694779,71.2496487 172.252209,71.8456327 C172.252209,71.8456327 181.638554,77.427962 187.743775,87.1612953 C183.128514,86.5910142 179.981526,88.0600905 179.981526,88.0600905 C179.981526,88.0600905 182.527711,88.8223395 184.84498,89.9813756 C184.84498,89.9813756 185.414458,92.9878014 187.746988,94.8094881 C186.586345,97.650452 182.942169,103.996637 173.661044,103.539609 C169.435341,103.32756 166.439357,102.023946 164.073896,100.414307 C160.053012,97.6785644 157.857831,94.0552712 154.571888,93.3974399 Z M164.562249,112.790211 C166.126104,110.88258 167.053815,108.693825 167.473896,107.542018 C168.909237,107.848846 170.412048,108.033584 171.916466,108.104267 C168.749398,111.872139 164.562249,112.790211 164.562249,112.790211 Z M174.334137,112.04001 C175.358233,110.228765 175.758233,108.762902 175.906024,108.031175 C177.097992,107.959689 178.690763,107.603866 178.690763,107.603866 C177.277108,110.39744 174.334137,112.04001 174.334137,112.04001 L174.334137,112.04001 Z" id="Fill-8" fill="#1A1919"></path>
                <path d="M167.624096,78.4030624 C168.551807,77.7355925 169.538153,76.9388054 170.382329,76.0649098 C169.593574,70.1596889 164.591968,67.0231427 164.591968,67.0231427 C164.591968,67.0231427 165.214458,69.2343877 165.539759,72.75246 C156.321285,66.2078817 151.404819,61.1853917 151.404819,61.1853917 C151.404819,61.1853917 151.99759,64.3653114 154.73253,68.0761548 C154.581526,68.6777612 154.421687,69.5781628 154.443373,70.5765564 C151.256225,68.5709339 148.030522,67.9468375 148.030522,67.9468375 C148.030522,67.9468375 153.817671,72.7420182 156.253815,79.1837853 C154.648996,79.8865965 152.866667,80.8600905 151.028112,82.2335845 C151.028112,82.2335845 158.243373,80.2817773 164.427309,80.4159138 C169.486747,82.4665162 173.414458,85.2890062 175.843373,87.3861949 C173.789558,82.8376005 170.195984,79.9741467 167.624096,78.4030624 Z M159.780723,76.303464 C157.391165,75.1235443 157.697189,72.3500503 157.95743,71.1556728 C159.137349,71.9669178 160.37992,72.6633034 161.495582,73.3693275 C161.495582,73.843223 161.107631,74.2400102 160.640161,74.2400102 C160.475502,74.2400102 160.335743,74.1861949 160.204016,74.1090865 C160.128514,74.5725403 160.128514,75.0416166 160.320482,75.3878014 C160.783133,76.2207331 161.454618,76.5122993 162.205622,76.6616969 C161.509237,76.7829821 160.66988,76.7436246 159.780723,76.303464 L159.780723,76.303464 Z" id="Fill-9" fill="#1A1919"></path>
                <polyline id="Fill-10" fill="#1A1919" points="122.278715 133.75246 122.278715 132.562099 118.568675 132.562099 118.568675 133.75246 119.718876 133.75246 119.718876 137.947641 121.122892 137.947641 121.122892 133.75246 122.278715 133.75246"></polyline>
                <polyline id="Fill-11" fill="#1A1919" points="128.387952 132.562099 126.995984 132.562099 126.158233 134.645633 125.840161 135.44001 124.907631 132.970131 124.75261 132.562099 123.372691 132.562099 122.462651 137.947641 123.852209 137.947641 124.301205 134.843223 124.318072 134.843223 125.548594 137.947641 126.105221 137.947641 127.033735 135.720331 127.399197 134.843223 127.412048 134.843223 127.807229 137.947641 129.203213 137.947641 128.387952 132.562099"></polyline>
            </g>
        </g>
    </g>
</svg>