<?xml version="1.0" encoding="UTF-8"?>
<svg width="200px" height="200px" viewBox="0 0 200 200" version="1.1" xmlns="http://www.w3.org/2000/svg" xmlns:xlink="http://www.w3.org/1999/xlink">
    <!-- Generator: Sketch 54.1 (76490) - https://sketchapp.com -->
    <title>randolph</title>
    <desc>Created with Sketch.</desc>
    <g id="randolph" stroke="none" stroke-width="1" fill="none" fill-rule="evenodd">
        <g id="randolph_BGL">
            <g id="randolph" transform="translate(0.000000, 15.000000)">
                <g id="g10" transform="translate(99.913865, 84.761415) scale(-1, 1) rotate(-180.000000) translate(-99.913865, -84.761415) translate(0.000000, 0.006895)">
                    <g id="g12" transform="translate(0.000000, 0.620155)">
                        <path d="M51.7126602,28.4824799 C-0.445736423,49.624805 -6.5541566,78.1705407 4.84038575,107.421875 C11.5199997,122.11128 27.78074,136.686991 39.3612393,141.349867 C42.2868551,142.528162 40.3442539,145.327817 40.2314546,148.875793 C39.3777079,175.791899 37.7890774,170.168471 54.4037885,159.731951 C62.5344343,154.566749 68.6289044,151.563131 74.9726079,150.065113 C88.667698,146.831349 98.7307469,149.93488 112.69526,148.140565 C128.788283,146.072692 140.955724,143.056672 155.677515,136.144699 C158.479927,134.829282 165.89767,130.329713 170.126438,126.100255 C175.060805,117.40706 182.814121,110.124373 198.141597,98.180187 C198.972605,97.322995 199.677514,95.8180855 199.592071,94.6783783 C198.827213,84.4513329 196.54711,74.6191196 191.059427,65.7810836 C187.843578,60.5994128 183.669935,56.4115059 177.97071,53.9583105 C177.582769,53.7909375 177.136257,53.7710236 176.387248,53.6143311 C176.228075,56.6951924 176.241856,59.5838745 175.900082,62.4303171 C175.076654,69.3250629 173.953484,70.307664 167.089057,70.0044771 C157.967955,69.6055107 150.542632,66.0099208 145.544871,58.0830304 C141.25271,51.2793097 142.232555,44.2288361 145.013605,37.3506278 C146.643235,33.3085952 150.737636,31.8222214 154.971917,33.8073377 C159.107662,35.7450465 162.854776,38.5185176 166.73488,40.9872858 C167.83531,41.6868207 168.79655,42.6038921 169.908695,43.4899558 C175.530745,27.2434791 173.953484,10.0050988 152.434105,1.98993277 C149.17898,0.77869421 149.347111,1.22227732 145.985182,0.285314722 C142.047886,-1.06320066 140.357619,4.25899042 139.349523,5.92458211 C135.941426,11.563066 134.650126,13.559414 132.183287,15.5555552 C123.020152,24.0137806 114.626009,27.0725919 109.110764,28.6829967 C106.076139,29.5696117 99.2978442,31.7864592 98.9588261,28.986597 C98.2573619,23.1277169 106.337982,19.3908695 108.912314,14.0250815 C109.193451,13.4380703 111.481134,9.57257513 109.143839,8.05312641" id="path14" fill="#231F20"></path>
                        <path d="M127.031866,125.711625 C126.910591,125.356069 126.78656,124.999136 126.662529,124.640824 C129.633761,122.463391 132.549178,120.200514 135.600341,118.14091 C137.240996,117.036345 139.019463,115.838757 140.89991,115.444614 C150.567438,113.427043 156.847541,111.795346 164.476137,105.53178 C164.997067,105.10663 165.633071,104.821358 166.213949,104.473382 C163.383286,109.85495 162.548833,112.458912 159.201374,117.351935 C158.617739,118.204993 157.541426,119.029799 156.552623,119.254433 C146.728679,121.4801 136.87786,123.578291 127.031866,125.711625 L127.031866,125.711625 Z M59.8514369,131.470798 C52.4752442,137.045991 44.4285949,151.133157 45.7213425,160.638067 C48.5190686,159.104217 56.6160882,153.830143 59.2387927,152.698704 C71.5362601,146.541254 82.9574484,144.982598 95.0608073,144.779325 C116.495432,144.418257 126.811366,145.235483 157.791555,130.681823 C164.311452,127.333675 167.073209,121.808093 168.01171,120.461668 C173.298187,112.884752 184.047541,105.483546 193.052881,96.8034429 C183.341942,99.4046487 184.928161,93.0604628 173.529711,95.5858719 C172.235655,95.8718322 180.057877,85.4725215 188.97295,86.7521081 C191.579668,87.1248902 192.609814,86.2091279 192.739358,83.9138653 C192.83307,82.2484045 192.870968,80.4947439 192.461666,78.8975002 C190.63841,71.8222204 187.279237,65.6021344 181.99276,62.8981207 C181.043234,67.4528838 179.831865,70.4289388 178.909901,74.9746751 C178.427558,77.3450454 176.824802,78.1381548 174.625319,78.5729524 C153.945216,82.6473709 137.810849,69.0356572 137.835655,47.2757955 C137.841168,43.4899558 138.237378,39.5645124 139.286818,35.9463901 C141.334708,28.8924024 146.486818,25.4427556 153.329195,28.1268555 C157.139014,28.4189485 158.581908,28.0558133 162.255293,30.0072344 C163.130401,30.4729019 164.25357,30.8279751 167.541081,33.294814 C168.636688,24.8944697 167.736774,20.8007574 162.381391,14.4296293 C158.369677,9.6578809 152.934363,7.28144685 147.111796,5.56336248 C144.834449,4.89233407 144.468558,6.50812731 143.810505,7.93736414 C140.176396,15.8284923 135.099394,22.6590864 127.109041,26.3318512 C122.513692,28.4431345 65.8645289,126.925061 59.8514369,131.470798 L59.8514369,131.470798 Z" id="path16" fill="#FFFFFF"></path>
                        <path d="M127.031866,125.711625 C126.910591,125.356069 126.78656,124.999136 126.662529,124.640824 C129.633761,122.463391 132.549178,120.200514 135.600341,118.14091 C137.240996,117.036345 139.019463,115.838757 140.89991,115.444614 C150.567438,113.427043 156.847541,111.795346 164.476137,105.53178 C164.997067,105.10663 165.633071,104.821358 166.213949,104.473382 C163.383286,109.85495 162.548833,112.458912 159.201374,117.351935 C158.617739,118.204993 157.541426,119.029799 156.552623,119.254433 C146.728679,121.4801 136.87786,123.578291 127.031866,125.711625 L127.031866,125.711625 Z M100.580876,15.6734535 C79.3791539,22.9726782 50.5728153,32.0585694 43.0536423,37.4606709 C29.8969157,45.0955372 31.1703007,44.519551 16.9411882,56.5546928 C12.8305251,59.7265101 4.95881469,71.8270439 5.89766049,79.5803598 C6.60260449,94.6191191 12.9462874,104.248748 26.103014,113.647542 C15.7657877,112.708352 2.37349176,93.6771725 9.71252344,106.380015 C20.1708867,123.457017 25.4572948,128.038584 37.0801024,137.168644 C36.9921093,137.127301 38.3042884,138.29457 41.8860282,139.390866 C42.9309205,139.709902 42.9529705,138.568817 43.4899558,137.84737 C51.6203949,126.947111 64.8086116,120.43824 77.0707991,121.275449 C79.0883701,121.412572 81.0900927,121.81085 83.0890591,122.129885 C83.3674398,122.175363 83.6072331,122.466836 84.5567593,123.1242 C82.6845802,123.402581 81.442892,123.571401 80.2074054,123.772607 C72.9019792,124.963304 65.8645289,126.925061 59.8514369,131.470798 C52.4752442,137.045991 44.4285949,151.133157 45.7213425,160.638067 C48.5190686,159.104217 56.6160882,153.830143 59.2387927,152.698704 C71.5362601,146.541254 82.9574484,144.982598 95.0608073,144.779325 C116.495432,144.418257 126.811366,145.235483 157.791555,130.681823 C164.311452,127.333675 167.073209,121.808093 168.01171,120.461668 C173.298187,112.884752 184.047541,105.483546 193.052881,96.8034429 C183.341942,99.4046487 184.928161,93.0604628 173.529711,95.5858719 C172.235655,95.8718322 171.360547,102.135398 157.791555,104.250127 C145.099049,106.228421 130.891986,95.0869916 138.769333,76.9371212 C142.819635,67.6066133 137.82532,55.7754336 137.835655,47.2757955 C137.841168,43.4899558 138.237378,39.5645124 139.286818,35.9463901 C141.334708,28.8924024 162.843751,12.6208438 147.111796,5.56336248 C144.944699,4.59194476 144.468558,6.50812731 143.810505,7.93736414 C140.176396,15.8284923 135.099394,22.6590864 127.109041,26.3318512 C122.513692,28.4431345 104.835139,35.998621 99.8180854,37.113453 C95.0608073,38.1712996 91.417741,37.9067002 90.7128315,35.8801714 C89.3037015,31.8275961 90.008611,28.3031862 99.8759665,19.66863 C100.613951,19.0221528 102.943667,15.1068386 100.580876,15.6734535 L100.580876,15.6734535 Z" id="path18" fill="#FACF07"></path>
                        <path d="M58.5806704,142.880272 C80.1474571,134.422047 87.5934517,140.878549 107.466664,131.609299 C112.890953,129.492503 111.406716,128.791728 98.9257512,129.245819 C95.3853551,129.375363 91.5004284,129.789489 90.0382406,125.127301 C89.3801873,123.390178 86.6515052,122.474416 86.1395327,122.306285 C76.9205838,119.240652 70.1209285,119.408093 60.4666996,122.070626 C47.0620488,125.625492 45.3455975,135.489402 42.2439955,139.649264 C53.637208,132.610505 60.1746755,128.074415 71.9503858,133.161065" id="path20" fill="#231F20"></path>
                        <path d="M151.764337,69.9989647 C156.734535,76.9371212 170.795517,77.9176552 180.875103,78.3469403 C186.043062,77.171402 181.99276,76.4093004 180.23152,69.7130043 C170.597067,75.1179998 158.821012,72.3066304 151.764337,69.9989647" id="path22" fill="#FFFFFF"></path>
                        <path d="M140.89991,115.444614 C139.019463,115.838757 137.240996,117.036345 135.600341,118.14091 C132.549178,120.200514 129.633761,122.463391 126.662529,124.640824 C126.78656,124.999136 126.910591,125.356069 127.031866,125.711625 C136.87786,123.578291 144.138498,124.975707 153.962442,122.749351 C154.949867,122.524717 158.617739,118.204993 159.201374,117.351935" id="path24" fill="#231F20"></path>
                        <path d="M64.9076986,86.278034 C77.74539,90.68458 91.6547781,93.1410829 106.236001,94.3565868 C126.007232,96.0068882 146.070625,95.1655446 166.357274,92.1770864 C170.16227,91.6182578 172.573984,90.6335895 171.580357,87.2117119 C134.53712,94.8864748 99.2068881,93.1376376 64.9076986,86.278034" id="path26" fill="#231F20"></path>
                        <path d="M170.335224,93.5538306 C132.79724,102.084407 96.6490932,102.201548 61.2376212,96.4389295 C61.0586031,96.8737271 84.9970694,101.579326 97.4725212,102.53781 C119.914553,104.265286 142.681133,102.47855 165.48699,97.9383266 C168.901288,97.2582232 170.745904,96.2432362 170.335224,93.5538306" id="path28" fill="#231F20"></path>
                        <path d="M171.808437,81.4394467 C135.779497,87.6244595 102.637724,83.966923 70.5564151,75.9434951 C71.7085253,76.4148129 72.8082669,76.9515915 74.0237708,77.3505579 C102.670798,86.7817377 133.543494,90.1643388 167.259944,85.7040461 C172.243923,85.0446146 172.232898,84.9398773 171.808437,81.4394467" id="path30" fill="#231F20"></path>
                        <path d="M140.269419,39.5701627 C141.246508,35.0785865 142.47786,22.2655636 158.774845,23.6197066 C162.758308,24.6242199 165.274759,26.2351759 167.188971,32.8267348 C154.883717,26.8354171 148.600858,26.0456841 140.269419,39.5701627" id="path32" fill="#FFFFFF"></path>
                        <path d="M156.676654,113.765372 C154.481994,114.97743 152.392072,116.29905 150.16227,117.31886 C147.816706,118.393795 146.023769,119.225492 142.116792,119.080789 C145.878377,121.250643 150.038239,120.197758 151.63755,119.833933 C154.578463,116.434795 154.977429,116.331436 156.676654,113.765372" id="path34" fill="#FFFFFF"></path>
                        <path d="M42.3140041,98.3758804 C42.3140041,98.3758804 8.17185165,71.4204978 29.3930053,42.6921609 L39.7410498,35.8696976 L47.3336767,34.8258389 C25.9528676,53.3285086 28.7184833,73.3829439 42.3140041,98.3758804" id="path36" fill="#231F20"></path>
                        <path d="M138.056155,94.2063715 C138.056155,94.2063715 129.24513,79.4039601 144.223252,67.0699036 L157.205164,76.2907819 C157.205164,76.2907819 138.408265,66.8932972 138.056155,94.2063715" id="path38" fill="#231F20"></path>
                        <path d="M143.813261,67.364615 C143.813261,67.364615 139.818084,61.37061 138.761065,56.2026515 L139.113175,72.4141239 C139.113175,72.4141239 142.403442,68.5373282 143.813261,67.364615" id="path40" fill="#FACF07"></path>
                        <path d="M45.7213425,160.638067 C45.7213425,160.638067 43.4307655,155.527989 48.6289049,146.188455 L49.7741934,153.94177 L58.2324189,153.236861 C58.2324189,153.236861 46.426321,161.431176 45.7213425,160.638067" id="path42" fill="#FFFFFF"></path>
                        <path d="M58.3922811,62.6590854 C58.3922811,62.6590854 39.7303005,42.3998611 65.4570182,25.3079063 L74.770024,24.2885782 C60.7229614,31.862876 54.7962088,54.1402915 58.3922811,62.6590854" id="path44" fill="#231F20"></path>
                    </g>
                </g>
            </g>
        </g>
    </g>
</svg>