<svg width="200" height="200" viewBox="0 0 200 200" fill="none" xmlns="http://www.w3.org/2000/svg">
<g clip-path="url(#clip0_11_241816)">
<path d="M31.3674 144.923C31.3674 144.923 31.3674 144.894 31.353 144.879C31.353 144.879 31.353 144.908 31.3674 144.923Z" fill="#B9529F"/>
<path d="M22.8486 3.84863H178.121V135.452C178.121 135.568 177.977 146.321 172.672 153.355C177.977 146.321 178.121 135.553 178.121 135.452V3.84863H22.8486V135.467C22.8486 140.526 23.9874 145.441 26.1207 149.694C24.0018 145.441 22.8486 140.526 22.8486 135.467V3.84863Z" fill="#B9529F"/>
<path d="M170.106 156.281C168.218 158.17 165.263 160.649 161.386 162.566C165.263 160.649 168.204 158.17 170.106 156.281Z" fill="#B9529F"/>
<path d="M156.081 157.059C156.081 157.059 163.245 152.894 166.618 148.973C171.058 143.813 170.553 136.995 170.539 136.749V133.78L171.173 39.8125V10.8828H29.9404H30.0413H171.058V39.8125L170.423 133.78V136.749C170.423 137.009 170.942 143.813 166.503 148.973C163.144 152.894 156.038 157.016 155.966 157.059L100.196 188.872L100.254 188.901L156.081 157.059Z" fill="#B9529F"/>
<path d="M33.8613 148.973C32.7946 147.733 32.0163 146.393 31.4541 145.081C32.0307 146.393 32.7946 147.733 33.8613 148.973C36.7442 152.332 42.3658 155.834 43.9658 156.8C42.3802 155.849 36.7586 152.332 33.8613 148.973Z" fill="#B9529F"/>
<path d="M144.91 142.717C140.052 144.173 134.647 139.286 134.647 132.843C134.647 124.958 139.966 117.203 139.966 107.459C139.966 104.375 139.476 100.944 138.322 97.5854C135.901 90.4503 130.539 83.7476 120.737 81.8017V81.5134C136.189 74.6377 138.135 65.3116 138.135 60.2809C138.135 44.5116 123.072 33.744 107.49 33.744C100.859 33.744 95.3387 33.3692 75.8504 43.935C73.7603 45.0737 71.7279 46.371 69.5657 47.3656C67.1729 48.4611 64.6072 49.1386 62.027 49.6143C59.9369 49.989 57.0252 50.7242 55.1945 49.2107C53.3783 47.7116 53.4072 44.5404 54.4594 42.6665C55.0504 41.5999 55.8144 40.5764 56.5207 39.5963C57.645 38.0539 58.8702 36.8143 59.3891 34.8972C60.0954 32.3026 59.5044 28.6413 56.4342 27.9782C55.281 27.7188 53.9837 27.8053 52.8594 28.18C51.9657 28.4827 49.9477 30.1836 51.4035 31.1206C51.9945 31.4954 52.6432 31.0341 53.2342 30.9332C53.8396 30.8323 54.4306 31.2359 54.7189 31.7404C55.1081 32.4323 54.9063 33.1818 54.5315 33.8161C53.3927 35.762 51.5477 37.0017 50.1639 38.7314C48.8378 40.4035 47.5981 42.7242 47.5981 44.9296C47.5981 45.5062 47.5981 53.535 58.6396 53.535L64.9963 53.2467C65.645 55.6827 66.1639 57.4125 66.4234 62.2845L66.5531 79.6395C66.5531 82.926 66.481 90.1476 66.3513 97.5854C66.1927 107.027 65.9333 116.858 65.645 119.51C64.6072 129.975 64.4342 129.124 61.2918 129.167C51.2882 129.326 52.009 132.122 52.009 134.27C54.9927 133.838 63.699 132.843 73.7026 132.843C73.7026 132.843 96.2468 133.564 96.2612 133.564C98.7405 133.65 101.191 134.068 103.67 134.241C105.227 134.342 109.22 134.717 109.695 132.555C109.926 131.531 108.931 129.47 107.735 129.528C105.659 129.614 103.598 129.715 101.522 129.802C89.0828 129.975 89.4144 129.701 88.636 122.955C87.7567 116.483 87.6126 106.58 87.5981 97.5854V92.9728L87.4684 71.1782C87.4684 60.8575 88.1171 52.8143 90.3225 47.6539C94.6035 38.1836 101.234 37.0449 104.088 37.0449C113.703 37.0449 119.93 48.2305 119.93 61.5638C119.93 71.0341 116.816 79.0629 113.04 79.0629C108.095 79.0629 102.56 76.3818 98.2504 80.0431C97.1837 80.9368 96.3909 82.1476 95.9729 83.4737C95.1657 86.0395 95.8432 92.526 99.8792 91.6611C100.759 91.4737 101.205 90.753 101.364 89.9314C101.522 89.1242 101.436 88.2737 101.177 87.4954C100.903 86.7026 100.413 86.1836 99.9369 85.5206C99.3315 84.6557 100.095 83.171 100.658 82.4503C101.321 81.5854 102.344 81.0954 103.411 80.9368C111.368 79.7116 117.09 88.6629 120.103 97.5999C120.78 99.6179 121.328 101.679 121.731 103.74C122.38 106.609 124.456 121.384 125.104 124.685C125.479 126.703 125.969 128.706 126.604 130.652C128.218 135.596 130.885 140.367 135.036 143.625C139.36 147.027 145.299 148.685 150.474 146.191C151.497 145.701 152.636 145.139 153.083 144.029C153.486 143.034 153.313 141.809 152.607 141.002C150.2 138.234 147.216 142.025 144.852 142.746L144.91 142.717ZM84.2684 68.3674L83.8648 85.1746V98.162C84.1243 111.092 83.8648 115.041 85.4071 129.369C85.508 130.292 85.1333 131.012 82.9279 130.162C80.8089 129.34 80.5062 127.049 80.5062 126.789C80.5062 124.771 80.4198 117.103 80.29 111.077V101.189V97.4413L80.3909 60.1368C80.6792 57.8161 80.3044 48.7062 80.6936 47.1206C81.3423 44.2521 86.6035 44.1224 87.3531 43.9206C87.8864 43.7764 85.9981 45.7368 85.09 52.6845L84.7441 54.9764C83.9801 60.1656 84.254 62.2557 84.254 68.3674H84.2684Z" fill="white"/>
<path d="M159.915 163.272L160.204 163.128C160.607 162.955 160.996 162.753 161.386 162.566C165.263 160.649 168.204 158.169 170.106 156.281C171.735 154.667 172.586 153.485 172.6 153.456L172.643 153.398L172.658 153.355C177.962 146.321 178.106 135.553 178.106 135.452V3.84863H22.8486V135.467C22.8486 140.526 23.9874 145.441 26.1207 149.694C26.7982 151.063 27.5766 152.36 28.4558 153.571C30.2865 156.108 32.5207 158.054 34.7982 159.654C36.3694 160.75 37.9694 161.686 39.4829 162.508L98.7693 194.912L98.8558 194.955L100.283 195.748L159.93 163.272H159.915ZM100.196 188.858L100.139 188.886L44.3838 157.045C44.3838 157.045 44.2108 156.944 43.9513 156.786C42.3657 155.834 36.7441 152.317 33.8468 148.959C32.7802 147.719 32.0018 146.378 31.4396 145.067C31.4108 145.009 31.382 144.966 31.3676 144.908C31.3676 144.908 31.3676 144.879 31.3531 144.865C29.6378 140.771 29.9261 136.923 29.9405 136.735V10.8829H30.0414H171.159V39.8126L170.524 133.78V136.75C170.524 137.009 171.043 143.813 166.604 148.973C163.231 152.894 156.139 157.016 156.067 157.059L100.24 188.901L100.182 188.872L100.196 188.858Z" fill="white"/>
<path d="M175.742 155.676C181.566 147.964 181.941 136.85 181.969 135.596V0H19V135.467C19 142.948 21.2486 150.184 25.3423 155.834C28.8883 160.735 33.5586 163.676 37.6523 165.895L96.9243 198.285L100.023 200.014H100.514L161.76 166.659C170.827 162.652 175.699 155.748 175.742 155.69V155.676ZM159.915 163.272L100.268 195.748L98.8414 194.955L98.755 194.897L39.4685 162.494C37.955 161.672 36.355 160.735 34.7838 159.64C32.5063 158.04 30.2721 156.094 28.4414 153.557C27.5622 152.346 26.7838 151.034 26.1063 149.679C23.9874 145.427 22.8342 140.512 22.8342 135.452V3.84865H178.106V135.452C178.106 135.568 177.962 146.335 172.658 153.355H172.643V153.398L172.6 153.456C172.6 153.456 171.721 154.667 170.106 156.281C168.218 158.169 165.263 160.649 161.386 162.566C160.996 162.753 160.607 162.955 160.204 163.128L159.915 163.272Z" fill="#B9529F"/>
<path d="M175.742 155.676C181.566 147.964 181.941 136.85 181.969 135.596V0H19V135.467C19 142.948 21.2486 150.184 25.3423 155.834C28.8883 160.735 33.5586 163.676 37.6523 165.895L96.9243 198.285L100.023 200.014H100.514L161.76 166.659C170.827 162.652 175.699 155.748 175.742 155.69V155.676ZM159.915 163.272L100.268 195.748L98.8414 194.955L98.755 194.897L39.4685 162.494C37.955 161.672 36.355 160.735 34.7838 159.64C32.5063 158.04 30.2721 156.094 28.4414 153.557C27.5622 152.346 26.7838 151.034 26.1063 149.679C23.9874 145.427 22.8342 140.512 22.8342 135.452V3.84865H178.106V135.452C178.106 135.568 177.962 146.335 172.658 153.355H172.643V153.398L172.6 153.456C172.6 153.456 171.721 154.667 170.106 156.281C168.218 158.169 165.263 160.649 161.386 162.566C160.996 162.753 160.607 162.955 160.204 163.128L159.915 163.272Z" fill="black"/>
<path d="M172.6 153.456C172.6 153.456 171.721 154.667 170.106 156.281C171.735 154.667 172.586 153.485 172.6 153.456Z" fill="white"/>
<path d="M172.6 153.456C172.6 153.456 171.721 154.667 170.106 156.281C171.735 154.667 172.586 153.485 172.6 153.456Z" fill="black"/>
<path d="M28.4557 153.571C27.5765 152.361 26.7981 151.049 26.1206 149.694C26.7981 151.063 27.5765 152.361 28.4557 153.571Z" fill="white"/>
<path d="M28.4557 153.571C27.5765 152.361 26.7981 151.049 26.1206 149.694C26.7981 151.063 27.5765 152.361 28.4557 153.571Z" fill="black"/>
<path d="M85.1047 52.6701C86.0128 45.7368 87.9011 43.762 87.3678 43.9062C86.6182 44.1224 81.3569 44.2377 80.7083 47.1062C80.3191 48.6773 80.7083 57.7873 80.4056 60.1224L80.3047 97.4269V111.063C80.4488 117.088 80.5209 124.757 80.5209 126.775C80.5209 127.049 80.838 129.326 82.9425 130.148C85.1479 131.012 85.5227 130.277 85.4218 129.355C83.8651 115.027 84.1389 111.063 83.8795 98.1476V85.1602L84.2831 68.353C84.2831 62.2413 84.0092 60.1512 84.7732 54.962L85.1191 52.6701H85.1047Z" fill="#CE0E2D"/>
<path d="M166.503 148.973C170.942 143.813 170.438 136.995 170.423 136.749V133.78L171.057 39.8125V10.8828H29.9404V136.749C29.9404 136.937 29.6521 140.8 31.353 144.879C31.353 144.879 31.353 144.908 31.3674 144.922C31.3962 144.98 31.425 145.023 31.4395 145.081C32.016 146.393 32.78 147.733 33.8467 148.973C36.7295 152.331 42.3512 155.834 43.9512 156.8C44.2106 156.958 44.3836 157.059 44.3836 157.059L100.139 188.901L100.196 188.872L155.966 157.059C155.966 157.059 163.144 152.894 166.503 148.973ZM153.14 144C152.694 145.11 151.569 145.672 150.531 146.162C145.357 148.656 139.418 146.998 135.094 143.596C130.942 140.339 128.275 135.567 126.661 130.623C126.027 128.677 125.537 126.674 125.162 124.656C124.513 121.355 122.438 106.58 121.789 103.712C121.385 101.65 120.838 99.5747 120.16 97.5711C117.162 88.6486 111.439 79.6828 103.468 80.908C102.402 81.0666 101.378 81.5711 100.715 82.4216C100.153 83.1423 99.389 84.627 99.9944 85.4918C100.47 86.1549 100.96 86.6738 101.234 87.4666C101.494 88.245 101.566 89.0954 101.421 89.9026C101.263 90.7387 100.816 91.445 99.9367 91.6324C95.8863 92.5116 95.2088 86.0252 96.0304 83.445C96.4485 82.1188 97.2557 80.908 98.3079 80.0143C102.618 76.3531 108.153 79.0342 113.097 79.0342C116.859 79.0342 119.987 71.0053 119.987 61.5351C119.987 48.2017 113.746 37.0161 104.146 37.0161C101.292 37.0161 94.6611 38.1549 90.38 47.6252C88.1746 52.7855 87.5259 60.8143 87.5259 71.1495L87.6557 92.9441V97.5567C87.6701 106.551 87.8142 116.454 88.6935 122.926C89.4719 129.672 89.1404 129.931 101.58 129.773C103.656 129.686 105.717 129.6 107.793 129.499C108.975 129.441 109.969 131.503 109.753 132.526C109.277 134.688 105.284 134.328 103.728 134.213C101.248 134.04 98.798 133.622 96.3187 133.535L73.7602 132.814C63.7566 132.814 55.0503 133.823 52.0665 134.241C52.0665 132.094 51.3458 129.297 61.3494 129.139C64.4917 129.095 64.6647 129.946 65.7025 119.481C65.9908 116.829 66.2503 107.013 66.4088 97.5567C66.5385 90.1044 66.6106 82.8972 66.6106 79.6107L66.4809 62.2558C66.2214 57.3837 65.7025 55.654 65.0539 53.2179L58.6971 53.5062C47.6557 53.5062 47.6557 45.4774 47.6557 44.9008C47.6557 42.7098 48.8809 40.3747 50.2214 38.7026C51.6052 36.9729 53.4647 35.7333 54.589 33.7873C54.9638 33.1531 55.1656 32.4035 54.7764 31.7116C54.4881 31.1927 53.8971 30.8035 53.2917 30.9044C52.7007 31.0053 52.0376 31.4666 51.4611 31.0918C49.9908 30.1405 52.0088 28.454 52.9169 28.1513C54.0413 27.7621 55.3386 27.69 56.4917 27.9495C59.562 28.6125 60.153 32.2738 59.4467 34.8684C58.9277 36.7855 57.6881 38.0252 56.5782 39.5675C55.8575 40.5477 55.1079 41.5855 54.5169 42.6378C53.4647 44.5116 53.4503 47.6828 55.2521 49.1819C57.0683 50.6954 59.9944 49.9603 62.0845 49.5855C64.6647 49.1243 67.2304 48.4324 69.6232 47.3369C71.7998 46.3423 73.8178 45.045 75.9079 43.9062C95.3962 33.3549 100.917 33.7152 107.548 33.7152C123.13 33.7152 138.193 44.4684 138.193 60.2522C138.193 65.2684 136.247 74.5945 120.794 81.4846V81.7729C130.596 83.7188 135.958 90.436 138.38 97.5567C139.519 100.915 140.023 104.36 140.023 107.431C140.023 117.189 134.704 124.93 134.704 132.814C134.704 139.272 140.11 144.144 144.967 142.688C147.331 141.982 150.315 138.176 152.722 140.944C153.429 141.766 153.602 142.976 153.198 143.971L153.14 144Z" fill="#CE0E2D"/>
</g>
<defs>
<clipPath id="clip0_11_241816">
<rect width="162.969" height="200" fill="white" transform="translate(19)"/>
</clipPath>
</defs>
</svg>
