<svg width="200" height="200" viewBox="0 0 200 200" fill="none" xmlns="http://www.w3.org/2000/svg">
<path d="M188.188 69.019C188.843 68.2764 190.58 66.3756 190.895 66.0357L194.671 62.0328C195.25 61.5922 195.829 61.1139 196.131 61.7684C207.272 86.1385 193.035 118.099 170.251 127.867C169.067 128.371 162.925 131.115 157.638 131.933C157.638 131.933 152.703 132.613 148.965 132.613C147.202 132.613 143.35 132.16 142.318 132.072C133.658 131.329 129.29 128.786 124.104 126.684C114.197 139.02 101.118 152.93 68.5912 167.154L44.2841 175.827L55.8271 150.928C54.2033 150.387 51.5976 149.833 50.3766 149.43L43.3652 147.089C36.5048 144.836 32.8291 144.068 24.4834 138.592C17.6104 134.086 11.8703 124.594 8.37092 117.268L7.69118 115.833L0 108.734L8.63527 101.861C15.7222 96.0326 18.5293 86.6798 18.8566 85.056L19.1335 83.8853C19.2594 83.1426 19.8007 79.681 19.8007 79.681L21.2483 72.4807L27.8695 73.5129C34.8054 61.7558 44.5107 56.4941 52.9445 54.5934C59.0874 39.79 68.5283 30.8527 86.2268 26.0189C90.7836 24.7727 95.6425 23.8161 100.124 24.03C115.305 24.7476 123.26 27.5924 138.668 40.4572C140.581 42.0559 142.369 43.8056 144.144 45.5679C147.429 48.8407 151.696 51.7359 155.724 54.6059C159.337 57.1865 164.876 56.4186 167.695 56.4564L174.858 56.255C175.399 56.2424 175.726 56.834 175.45 57.2872C175.45 57.2872 168.463 67.5337 167.507 68.7547C166.55 69.9757 164.8 71.7506 162.383 73.5003C161.93 73.8276 161.641 74.2052 160.029 74.822L160.193 74.8724C160.218 74.8724 160.231 74.885 160.256 74.885C161.389 75.2123 167.557 76.8361 169.785 76.7983C171.195 76.7732 172.126 77.1382 176.847 76.1312C181.932 75.0612 184.198 72.6192 184.198 72.6192C186.225 71.1716 186.804 70.6051 188.188 69.019Z" fill="#B6B8BA"/>
<path d="M59.5655 150.248C59.9179 149.141 60.0942 148.889 60.3082 148.146L53.6618 146.082C51.8114 145.528 35.6863 140.518 28.612 136.1C22.381 132.21 17.3332 123.587 14.2115 117.042L13.5946 115.758L6.72168 109.413L14.438 103.271C20.7697 98.0592 23.7656 88.9959 24.0426 87.5483C24.1559 86.8812 24.7727 83.1426 24.7727 83.1426L25.465 78.9256L30.9155 80.1467C34.9688 69.3966 44.5734 61.3152 56.8213 58.3949C60.8117 44.6615 71.9519 34.4528 87.7749 30.1351C91.8533 29.0274 95.957 28.4609 99.9725 28.4609C112.623 28.4609 125.048 34.0625 136.893 45.0895C138.617 46.6882 140.342 48.2994 142.054 49.9106C144.899 52.5793 148.033 55.1472 151.369 57.5263C154.604 59.8299 157.172 60.8747 159.689 60.9124L167.72 61.0509L162.824 67.4203C162.459 67.8987 159.072 72.0527 152.162 72.1408H151.872C149.443 72.1408 147.164 71.7632 144.961 71.2093C146.447 72.317 148.071 73.3744 149.846 74.4192C153.421 76.5088 157.549 78.2081 162.131 79.4669C164.624 80.1467 167.393 80.5369 170.162 80.5747H170.578C174.115 80.5747 177.954 79.9453 181.366 78.7998C182.901 78.2837 183.732 77.8053 184.752 77.0501C186.904 75.464 186.992 75.1871 188.025 74.3437C188.025 74.3563 194.633 67.2819 194.684 68.2511L195.363 75.5647C196.798 100.526 181.466 121.435 157.222 127.615C156.63 127.779 154.453 128.295 150.752 128.295C144.81 128.295 135.193 126.948 122.303 120.768C113.442 131.795 101.571 147.429 67.1056 163.151C67.1056 163.151 66.2119 163.931 50.7162 169.772C50.9302 169.885 59.5655 150.248 59.5655 150.248Z" fill="#0D1132"/>
<path d="M121.171 115.708L126.835 108.872C126.835 108.872 104.945 58.1684 60.1323 61.8189" fill="#0064A4"/>
<path d="M60.1322 61.8188C47.3555 64.0469 37.2475 72.3171 33.9746 83.7846L33.6599 84.8924L28.7758 83.7972C28.7758 83.7972 27.8443 89.3988 28.0332 88.203C27.8192 89.5751 24.6596 100.099 16.9558 106.418L12.9277 109.628L16.9181 113.303L17.8622 115.292C20.2287 120.252 25.0624 129.114 30.7647 132.663C37.537 136.893 54.2788 141.941 54.9838 142.155L59.2007 143.401L59.9434 139.07C59.956 139.02 59.9937 138.806 60.0692 138.441C60.17 137.988 60.3965 137.094 60.7868 135.949L60.8497 135.772C61.0133 135.307 61.2022 134.816 61.4036 134.312C61.756 135.307 62.1337 136.238 62.4609 137.056C62.6875 137.61 62.8763 138.101 63.0274 138.491C64.1855 141.727 64.475 143.753 64.2862 146.535C64.1855 148.058 63.5309 149.682 62.7505 152.263L58.2188 162.257L76.3579 153.811C99.2804 142.973 112.397 126.634 119.849 117.344C120.315 116.765 120.743 116.224 121.171 115.707" fill="#0064A4"/>
<path d="M79.5551 117.621C80.8516 116.802 81.2419 111.767 80.9272 109.111C79.9453 108.809 79.039 108.356 78.2334 107.777L40.004 111.717L39.9159 111.729L36.6809 112.057L21.374 113.618C23.1237 117.268 27.7687 126.218 32.829 129.378C39.2362 133.381 56.1165 138.441 56.1165 138.441C56.1165 138.441 56.1668 138.139 56.2801 137.61C56.4312 136.918 56.7207 135.835 57.1613 134.539C57.1739 134.526 57.1739 134.513 57.1739 134.501C58.5837 130.498 61.63 124.494 67.8484 121.586C74.2052 118.602 77.4277 118.955 79.5551 117.621ZM52.3779 131.757C52.3779 131.769 52.3653 131.794 52.3527 131.807C52.1261 132.361 51.9499 132.852 51.8115 133.242C51.1695 133.015 49.3316 132.361 47.1539 131.543C44.0699 130.372 40.3062 128.849 38.3928 127.716C34.0752 125.161 29.7449 117.746 28.3855 115.267L32.3129 114.864C34.2136 118.086 37.4991 122.996 40.2306 124.619C40.7971 124.959 41.5398 125.324 42.358 125.702C44.0699 126.495 46.1973 127.351 48.1358 128.081C48.1862 128.094 48.2365 128.119 48.2743 128.131C50.4771 128.962 52.4157 129.642 53.1961 129.919C52.8814 130.573 52.6045 131.203 52.3779 131.757ZM54.7948 127.124C52.9821 126.47 47.7708 124.531 44.6867 122.769C44.4979 122.668 44.3091 122.542 44.1329 122.417C44.0825 122.379 44.0322 122.341 43.9818 122.303C41.1747 120.302 38.6068 116.248 37.4991 114.323L40.5202 114.008L40.6083 113.995L40.923 113.957C42.1062 115.909 44.1958 118.829 46.2602 120.012C49.0925 121.623 54.7948 123.738 56.7459 124.443C56.0032 125.349 55.3612 126.256 54.7948 127.124ZM58.5963 122.467C56.5319 121.749 53.5486 120.579 51.7485 119.244C49.5079 117.583 47.2546 114.713 46.298 113.429L49.4827 113.102C50.5275 114.385 51.9751 116.034 53.3723 117.067C55.3864 118.565 59.4649 119.924 61.0258 120.402C60.132 121.057 59.3264 121.749 58.5963 122.467Z" fill="#B6B8BA"/>
<path d="M74.3941 100.337C74.3941 99.4561 74.5326 98.6127 74.7592 97.8071L31.8849 88.4795C32.187 88.5802 28.9646 101.596 19.4355 109.426C19.4355 109.426 65.2427 104.844 75.1116 103.849C74.6459 102.767 74.3941 101.583 74.3941 100.337ZM31.6332 103.623C31.6332 103.623 35.2459 98.7134 35.2837 98.147C35.3592 97.2532 35.2207 95.6672 35.2207 95.6672L57.5264 101.672L31.6332 103.623Z" fill="#B6B8BA"/>
<path d="M83.5706 106.178C86.7931 106.178 89.4114 103.56 89.4114 100.337C89.4114 97.1022 86.7931 94.4839 83.5706 94.4839C80.3356 94.4839 77.7173 97.1022 77.7173 100.337C77.7173 103.56 80.3356 106.178 83.5706 106.178ZM83.5706 97.2406C85.2826 97.2406 86.6672 98.6253 86.6672 100.337C86.6672 102.049 85.2826 103.434 83.5706 103.434C81.8587 103.434 80.474 102.049 80.474 100.337C80.474 98.6253 81.8587 97.2406 83.5706 97.2406Z" fill="#B6B8BA"/>
<path d="M104.87 105.864C101.232 110.999 91.6649 115.883 92.1684 115.254C96.7756 109.388 99.6079 105.499 100.237 102.729C100.577 101.735 100.879 100.703 101.093 99.6452C104.165 84.5775 92.3573 69.4595 74.7343 65.8719C57.8288 62.4229 41.7037 70.8567 37.7134 84.8544C51.9251 88.442 65.6836 92.1428 76.5721 94.4086C78.2589 92.4323 80.7638 91.1609 83.5583 91.1609C88.6187 91.1609 92.7223 95.2646 92.7223 100.337C92.7223 104.882 89.4243 108.633 85.0941 109.363C85.6857 115.418 84.6535 119.081 81.8338 120.856C80.2855 121.838 78.6617 122.215 76.9497 122.618C75.1119 123.046 72.8335 123.587 69.6236 125.085C67.2823 126.18 65.5074 127.892 64.1605 129.78C64.1605 129.806 64.1605 129.818 64.1731 129.843C64.5507 132.285 66.0738 135.533 66.6654 137.195C68.0627 141.097 68.0249 143.564 67.7858 146.711C67.6599 148.31 66.7661 152.791 65.1171 155.409C97.2036 140.669 113.48 118.326 120.541 110.408C112.498 111.503 106.959 108.671 104.87 105.864ZM53.4356 84.4768C53.4356 84.4768 48.4131 83.5453 44.4353 82.639C44.4353 82.639 50.9055 69.0315 62.6499 67.9112C62.6625 67.9112 55.135 71.4861 53.4356 84.4768ZM70.6054 148.562C70.6054 148.562 100.615 126.961 104.341 111.881C104.341 111.881 105.851 114.587 112.787 114.197C112.787 114.197 92.6342 138.441 70.6054 148.562Z" fill="#B6B8BA"/>
<path d="M60.1323 61.8183C63.3296 47.1535 74.6965 37.8888 88.8452 34.037C106.38 29.2536 121.36 36.1391 134.136 48.0472C135.861 49.6459 137.573 51.2445 139.285 52.8558C142.344 55.7384 145.591 58.3819 149.015 60.8239C152.175 63.0771 155.636 64.9024 159.614 64.9653C159.614 64.9653 157.248 68.0367 152.099 68.1123C145.264 68.2004 139.096 64.4618 132.361 63.8324C133.192 64.8772 133.331 65.1164 133.57 65.4562C134.375 66.5891 135.294 67.6717 136.213 68.7165C139.524 72.4551 143.502 75.4132 147.794 77.9308C151.91 80.3351 156.442 82.1226 161.037 83.3813C163.932 84.1744 167.091 84.5898 170.087 84.6275C174.266 84.6905 178.672 83.973 182.637 82.6387C184.437 82.0344 186.149 81.2036 187.635 80.0078C188.415 79.3784 191.373 76.886 191.31 75.8035C192.67 99.4686 177.615 118.275 156.152 123.713C156.152 123.713 143.766 127.388 121.171 115.707L125.186 110.168L126.898 106.518C126.898 106.518 114.814 108.305 109.615 104.101L104.693 99.0658C104.693 99.0658 107.589 85.7604 96.1965 73.7642C96.1965 73.7642 86.4913 63.9583 74.7972 62.7624C74.7846 62.7624 68.6795 61.1638 60.1323 61.8183Z" fill="#0D1132"/>
<path d="M126.357 58.5206C121.674 65.6201 118.364 40.2682 96.6747 41.4263C74.9858 42.5844 70.9199 59.6409 70.9199 59.6409C83.8602 42.3578 105.939 47.7454 117.508 57.3121C129.063 66.8663 126.357 58.5206 126.357 58.5206Z" fill="#0064A4"/>
<path d="M128.081 91.0475C126.596 89.902 125.123 88.7061 123.625 87.5229C120.201 84.8291 116.4 82.9157 112.321 81.4178C111.729 81.2038 110.836 81.0905 110.294 80.7632C123.537 88.6935 120.956 104.806 146.472 110.823C172 116.84 181.177 92.6839 181.177 92.6839C176.481 98.6631 168.413 100.035 161.3 100.362C153.37 100.74 145.037 99.1289 137.56 96.5232C133.997 95.2896 130.989 93.2755 128.081 91.0475Z" fill="#0064A4"/>
<path d="M84.4517 61.3154C101.747 57.3125 112.334 85.333 132.147 76.9747C115.116 79.5426 103.497 42.0056 84.4517 61.3154Z" fill="#0064A4"/>
</svg>
