<?xml version="1.0" encoding="UTF-8"?>
<svg width="200px" height="200px" viewBox="0 0 200 200" version="1.1" xmlns="http://www.w3.org/2000/svg" xmlns:xlink="http://www.w3.org/1999/xlink">
    <!-- Generator: Sketch 54.1 (76490) - https://sketchapp.com -->
    <title>rockford</title>
    <desc>Created with Sketch.</desc>
    <g id="rockford" stroke="none" stroke-width="1" fill="none" fill-rule="evenodd">
        <g id="rockford_BGL" transform="translate(0.000000, -0.000000)">
            <g id="rockford" transform="translate(13.000000, 0.000000)">
                <g id="g10" transform="translate(87.323230, 100.103220) scale(-1, 1) rotate(-180.000000) translate(-87.323230, -100.103220) translate(0.000000, 0.239961)" fill-rule="nonzero">
                    <g id="g12">
                        <path d="M155.849693,96.2427747 C153.547471,96.3938047 151.134239,96.4728484 148.648885,96.4728484 C147.116663,96.4728484 145.68838,96.3112322 144.350602,96.0303447 C139.218683,94.599089 136.444138,91.0795266 136.444138,88.3066451 C136.444138,84.7242712 142.64232,80.7226834 150.959592,80.7226834 C152.667875,80.7226834 154.375451,80.899826 155.986158,81.237879 C156.110602,83.2146775 155.566865,85.1201955 154.517572,86.7003639 C154.697875,86.6770743 154.865451,86.6431984 155.033733,86.6043823 C157.420804,86.0179062 159.341915,84.5294849 160.524844,82.5936197 L162.675754,83.3043074 C162.675754,83.3043074 165.979188,74.9574327 165.979188,68.4489595 C165.979188,65.2703437 165.533733,62.1884859 164.678178,59.2995795 L162.829188,53.1328292 C162.829188,53.1328292 153.073734,59.4041007 139.957572,61.1240777 C139.68535,60.6024598 139.406057,60.0809124 139.121815,59.5601414 C138.795855,58.9673842 138.477673,58.3991869 138.152421,57.8332481 L137.966461,57.5134739 C137.70838,57.0632777 137.424138,56.5818873 137.132825,56.0992267 L136.941209,55.7802289 C136.235552,54.618498 135.500199,53.4603665 134.753532,52.3333585 L134.634744,52.1538869 C134.246562,51.5760915 133.942522,51.1237074 133.62929,50.6735111 L133.313936,50.2188687 C133.026158,49.8059359 132.72636,49.3855221 132.425855,48.966167 L132.117572,48.5363668 C131.73434,48.0098793 131.332724,47.4651128 130.922623,46.920911 C126.935451,41.6581525 122.374845,36.6346425 117.358886,31.9775564 L117.122724,31.7600451 C116.659593,31.3337736 116.248785,30.9605038 115.833734,30.5892101 L115.33525,30.1417663 C114.901108,29.755793 114.462724,29.3725722 114.019391,28.9899865 L113.852522,28.8474255 L113.686361,28.7026767 C113.092421,28.1960206 112.522522,27.7154772 111.94626,27.2382508 L111.750401,27.0794577 C111.157876,26.5953855 110.674947,26.2058129 110.189896,25.8190634 L109.640502,25.3856639 C109.231815,25.0631373 108.782826,24.7160507 108.329593,24.3686818 L107.835351,23.9890603 C107.126866,23.453398 106.392927,22.914207 105.654745,22.3785447 C105.149189,22.0143791 104.656361,21.6564945 104.155755,21.3044677 L103.719492,21.0009258 C103.165149,20.616364 102.690705,20.2916496 102.212018,19.9690525 L102.070604,19.8722945 L101.659088,19.5935949 C101.104745,19.2252653 100.547573,18.8589118 99.9868662,18.4955225 L99.7429268,18.3367293 C99.0584824,17.8970486 98.4016137,17.4834807 97.7412097,17.0768996 L97.44424,16.8962988 L97.273836,16.7904367 C96.723735,16.4566182 96.2224218,16.1516647 95.7161592,15.852569 L95.0819168,15.4784523 C94.5622199,15.1749809 94.0418158,14.8744736 93.5185835,14.5791889 L93.3248462,14.4692335 L93.0052502,14.2877858 C92.3307048,13.9095758 91.6335331,13.5236025 90.9299977,13.1467334 L90.6252503,12.9849055 C89.9818159,12.6400773 89.402018,12.3365354 88.8165634,12.0357458 L88.3689877,11.8063779 L88.172422,11.7068675 C87.6286847,11.4309203 87.1174726,11.1739576 86.6034322,10.9222881 L86.2993918,10.7703407 L85.9543413,10.6024434 C85.2239373,10.2495697 84.4963615,9.89951896 83.7603009,9.56146595 L80.8577758,8.21779345 L77.4850486,6.65800698 L74.1123214,8.21779345 L71.2013114,9.56287745 C70.4709073,9.90085988 69.7472912,10.2482288 69.0244528,10.5966563 L68.6991296,10.7571432 L68.401665,10.902386 L66.8251094,11.6914116 L66.6892105,11.7606455 L66.1332408,12.0434385 C65.5622812,12.3392878 64.9842509,12.6414182 64.4110994,12.9490535 L64.0244024,13.1522382 C63.3367055,13.5222616 62.6406651,13.9068233 61.9501399,14.295549 L61.6366954,14.4719859 L61.4654429,14.5709317 C60.9268672,14.8744736 60.4056854,15.1749809 59.8897359,15.4762644 L59.2448167,15.8567329 C58.7476046,16.1503238 58.2407763,16.4579591 57.7353622,16.765665 L57.5226753,16.8962988 L57.2395642,17.0677954 C56.564241,17.4863037 55.9097057,17.8978955 55.2606148,18.3132985 L55.066736,18.4404036 C54.4195542,18.8589118 53.864433,19.2252653 53.3134128,19.5921834 L52.7306451,19.9839437 C52.2804532,20.2888266 51.8089785,20.6127647 51.3399785,20.9394552 L51.1626452,21.0610554 L50.8104533,21.3072201 C50.3064533,21.6600939 49.811221,22.0179078 49.3181806,22.3743808 C48.5793624,22.9114546 47.8468372,23.4506456 47.1237867,23.995412 L46.7627564,24.2722062 L46.634918,24.3714343 C46.1855039,24.7160507 45.7358776,25.0631373 45.2897867,25.4154464 L44.7705847,25.8261914 C44.2858171,26.2108237 43.8024636,26.6003257 43.3246252,26.9934271 L43.0374131,27.2263943 C42.4477161,27.7127248 41.8795848,28.1924213 41.3166858,28.6724001 L40.9521202,28.988575 C40.5087869,29.3695374 40.073797,29.7527583 39.6387364,30.1362614 L39.3703323,30.3782622 L39.1512818,30.5737543 C38.7190495,30.9605038 38.3074637,31.3337736 37.8987061,31.7093018 L37.6542718,31.9336589 C32.595676,36.6324546 28.0369791,41.6553296 24.0556055,46.9073607 C23.6385045,47.4615135 23.2380196,48.0035275 22.8430499,48.5482234 L22.5723833,48.9237516 C22.2561813,49.3642791 21.9647974,49.7728363 21.6789288,50.1841459 L21.4192924,50.557698 C21.0237571,51.1286477 20.7149793,51.5829373 20.4097369,52.0403322 L20.2191813,52.3256658 C19.4938682,53.4209153 18.7688379,54.5597799 18.0648076,55.7187583 L17.8714945,56.0412848 C17.5615854,56.5557041 17.2721107,57.0447871 16.986242,57.5360578 L16.8426359,57.7858219 C16.4849996,58.409138 16.1651208,58.9786761 15.8546461,59.5460265 C12.9311209,64.8849351 10.6281917,70.3249773 8.99994927,75.7217572 C8.85443412,76.1974309 8.72511089,76.6455805 8.59946443,77.0937302 L8.53264625,77.340036 L8.21693919,78.502402 L8.17967656,78.6513147 C8.05289879,79.1474551 7.95313111,79.5469082 7.85923213,79.9463612 L7.82281799,80.0952739 L7.55264628,81.2865755 L7.49056547,81.5858124 L7.23835335,82.8131072 L7.21374729,82.9464934 C7.12734326,83.3960546 7.04668063,83.8449099 6.96851397,84.294471 C6.68816751,85.9339222 6.47079984,87.6008976 6.31667964,89.2502293 C6.14626853,91.1056393 6.0578847,92.9321136 6.05291399,94.6851902 L6.05291399,160.448146 L6.05291399,168.456967 L13.9218683,168.456967 L9.98822197,176.407212 L19.8230803,178.810282 C22.9121307,179.568255 26.44607,180.36222 30.3504437,181.175241 C37.6015243,186.601027 54.9396754,189.982263 63.014352,187.04212 C60.735746,188.816369 59.839746,189.474125 56.523938,191.146747 C66.1304125,193.56252 77.0940385,193.047324 87.0644423,190.235627 L88.2883816,190.384539 L90.0051493,190.592029 L93.9265633,191.06982 L95.6687855,191.158744 C100.441513,191.635124 104.798482,191.992232 108.613836,192.220188 L118.797775,192.839835 L117.119189,182.79352 L114.716563,168.456967 L140.890906,168.456967 L148.916158,168.456967 L148.916158,160.448146 L148.915451,138.746413 L165.140602,134.571917 C165.140602,134.571917 163.411814,131.118695 160.502218,128.627406 C164.273733,124.732386 166.387875,119.683469 166.387875,114.103124 C166.387875,108.167789 164.850703,102.835161 160.666966,98.8589804 C160.655653,97.9168076 160.493026,96.9591083 160.165653,96.0218758 C159.402016,93.8284128 157.836562,92.1261501 155.921814,91.1070508 C156.420299,92.8460124 156.364441,94.6244959 155.849693,96.2427747 L155.849693,96.2427747 Z M147.889491,53.9529782 L147.002118,53.9529782 L147.002118,56.9982077 L146.991511,56.9982077 L145.935855,53.9529782 L145.207572,53.9529782 L144.151916,56.9678606 L144.139895,56.9678606 L144.139895,53.9529782 L143.253936,53.9529782 L143.253936,58.2490039 L144.584643,58.2490039 L145.591512,55.2953098 L145.604946,55.2953098 L146.555956,58.2490039 L147.889491,58.2490039 L147.889491,53.9529782 Z M142.758986,57.4569436 L141.468582,57.4569436 L141.468582,53.9529782 L140.523229,53.9529782 L140.523229,57.4569436 L139.234946,57.4569436 L139.234946,58.2490039 L142.758986,58.2490039 L142.758986,57.4569436 Z M166.54838,96.1355011 C171.058784,101.378499 172.53939,107.830441 172.53939,114.103124 C172.53939,119.293897 171.107571,124.158614 168.487168,128.350753 L169.007572,129.095317 C170.073127,130.667722 173.984642,138.636316 173.984642,138.636316 L154.968683,143.529263 L154.968683,160.446734 L154.968683,168.457673 L154.968683,174.499577 L148.915451,174.499577 L140.890198,174.499577 L121.965451,174.499577 L123.185856,181.78289 L126.136461,199.436456 L108.243331,198.348899 C104.39121,198.11812 100.002422,197.760306 95.1929269,197.281809 L93.3969674,197.183004 L89.2634321,196.686864 L87.5162604,196.475845 C68.5751094,201.457011 59.2762813,198.282559 40.8150899,192.417798 C40.8150899,192.417798 31.2033831,189.107137 27.8641003,186.927083 C24.3665751,186.188165 21.1812217,185.46548 18.3576056,184.772436 L1.07717977,180.551361 L4.07200596,174.499577 L0,174.499577 L0,168.457673 L0,160.446734 L0,94.6668407 C0.00773358567,92.7232124 0.104679694,90.7139495 0.290009286,88.6926889 C0.459595948,86.8739778 0.699613215,85.0510322 1.00564543,83.2577281 C1.08849997,82.7785256 1.1887626,82.2308656 1.28101411,81.7502516 L1.30311007,81.628863 L1.5737838,80.3175843 L1.61410804,80.1143291 L1.64034743,79.9901175 L1.95273126,78.6181446 L1.9880848,78.4798181 C2.09524843,78.027434 2.2095959,77.5616407 2.32836257,77.1113738 L2.35984843,76.9765761 C2.48248277,76.5107828 2.61008781,76.043578 2.73934741,75.5784905 L2.77166054,75.4599249 C2.91059286,74.9687247 3.05200699,74.4768187 3.20474133,73.9785611 C4.95474129,68.1807049 7.42091901,62.3513724 10.5405856,56.6516858 C10.8714947,56.0454487 11.2123027,55.4400586 11.5882522,54.7885832 L11.7550502,54.4971801 C12.0354037,54.0164249 12.3212724,53.5364461 12.6861209,52.9255511 L12.9145047,52.5464942 C13.6285047,51.3698721 14.3874744,50.1744772 15.186535,48.9697663 L15.3707976,48.6938191 C15.6925855,48.2110879 16.0143026,47.7361198 16.3546158,47.2456254 L16.4393935,47.1254366 L16.6981814,46.7508259 C17.0058986,46.3091691 17.3149592,45.8763343 17.6576763,45.3980492 L17.9355551,45.0117937 C18.3501107,44.4389385 18.7752016,43.8671419 19.2273733,43.2631633 C23.4280802,37.7257985 28.2209589,32.4439849 33.5814739,27.4657132 C33.5814739,27.4657132 33.6297668,27.4210394 33.8532012,27.6046749 L33.6576961,27.3978909 L33.795787,27.268598 C34.2246961,26.8754967 34.6564335,26.4817602 35.118787,26.0682628 L35.3198072,25.8887912 L35.6355143,25.6051513 L35.9031405,25.3724664 C36.2680597,25.0485283 36.6304334,24.7300951 36.9709587,24.438692 L37.3799991,24.0827836 C37.9680698,23.5796562 38.6251505,23.0299496 39.2399485,22.5210351 L39.4738475,22.3319654 C39.9806758,21.9143041 40.4930899,21.5034885 40.9932717,21.1081994 C41.6594737,20.5788888 42.3284333,20.0536716 43.0907262,19.4695245 L43.4745949,19.1772745 C44.2230999,18.6119002 44.9857464,18.0509016 45.7717968,17.475788 C46.2863322,17.1058352 46.8044736,16.7347532 47.3367564,16.3584487 L47.7576756,16.0661987 C47.7576756,16.0661987 47.8283826,16.0182785 48.0631301,16.2887209 L47.8620392,15.994283 C48.362221,15.6450087 48.8646654,15.3020154 49.3140089,14.9998849 C49.5463523,14.8405272 49.7711301,14.6872388 49.9435139,14.5764365 C50.623221,14.1198885 51.308231,13.6716683 51.9956452,13.2272592 C52.6695542,12.7952712 53.3531502,12.3660356 54.1085845,11.897631 L54.3320188,11.7641742 L54.5758875,11.6122974 C55.1067562,11.2883593 55.6420794,10.9658327 56.158241,10.6595384 L56.8329986,10.2614262 C57.3729885,9.94687461 57.9165137,9.63429908 58.4205844,9.34974173 L58.671948,9.20449891 L58.9812915,9.03137907 C59.7068874,8.621975 60.4360187,8.21976954 61.1917358,7.8147411 L61.4786651,7.66152334 C62.1100793,7.32297631 62.74616,6.99186079 63.3830893,6.66214266 L63.9249883,6.38701409 L64.0840792,6.30430755 C64.6140994,6.03634937 65.1551499,5.76397321 65.7468266,5.47450386 L66.0276751,5.33693957 L66.3859478,5.15967699 C67.1385539,4.7977062 67.8950488,4.4340769 68.66017,4.07982699 L71.5661598,2.7375307 L77.4843415,0 L83.4025232,2.7375307 L86.2909069,4.07293184 C87.1952503,4.49004267 88.091816,4.92396441 88.9890887,5.35789321 L89.282523,5.5040041 C89.9019169,5.80890815 90.5177755,6.1209826 91.1336341,6.43139854 L91.5776745,6.66076645 C92.1963613,6.97559332 92.843331,7.31937699 93.4570684,7.64691437 L93.7900987,7.82165743 C94.5275734,8.21701713 95.2608057,8.62359821 95.9869673,9.03215539 L96.3355531,9.22849432 C96.9422198,9.57198159 97.5467652,9.91716265 98.1470683,10.2708127 L98.8187854,10.6644786 L100.126159,11.4507518 L100.501614,11.6792728 L100.675553,11.7887342 L100.914543,11.9320715 C101.695149,12.4120503 102.470098,12.9038857 103.328482,13.4593795 C103.892725,13.8254507 104.459795,14.196815 105.06929,14.6017728 L105.591816,14.9576812 C106.000502,15.2336991 106.733735,15.7304747 107.016563,15.9350003 L107.208179,16.0657047 L107.389896,16.1927392 L107.640906,16.3661414 L109.014745,17.3479066 C109.849795,17.953579 110.682725,18.5633448 111.506462,19.1850377 L112.016967,19.578139 C112.468785,19.9224731 112.909997,20.2662427 113.320805,20.5923686 C113.537876,20.7566666 113.750704,20.9268223 113.962825,21.0969074 C114.452825,21.4858448 114.932926,21.875982 115.428583,22.2784697 L115.579189,22.3997877 L115.808987,22.5875165 C116.409997,23.085139 117.007472,23.5887604 117.661512,24.1470066 L117.7803,24.2515278 L117.980401,24.4216129 C118.448482,24.8246653 118.91232,25.2313169 119.382522,25.6503192 L119.876058,26.0935991 L121.118381,27.2200425 L121.245654,27.3355734 L121.482522,27.5566841 C126.755855,32.4522421 131.556158,37.7425953 135.760401,43.2904052 C136.191007,43.8622017 136.615249,44.4389385 137.006259,44.9737539 L137.221209,45.2745434 L137.34636,45.447381 C137.663128,45.8920724 137.982724,46.3378225 138.291714,46.7825139 L138.602118,47.2293932 C139.008683,47.816575 139.406057,48.4087677 139.804138,49.002019 L140.647673,50.2972066 C141.524441,49.8583023 142.51434,49.6112907 143.561512,49.6112907 C145.900501,49.6112907 147.951006,50.8449372 149.096461,52.6944894 C150.108986,52.3529783 151.070602,51.9973521 151.973532,51.6394676 C156.6204,49.7954202 166.39141,43.6011457 166.39141,43.6011457 L170.573733,57.5495376 C171.601814,61.0204034 172.129996,64.6993941 172.129996,68.4489595 C172.129996,72.5628318 171.11747,76.9299968 170.244238,79.9950578 C169.428279,82.8589808 166.930905,89.2304684 166.365248,90.6631357 L165.518885,92.8693021 C165.686461,93.2362907 165.838481,93.6138656 165.972824,94.0020267 C166.221006,94.7084798 166.410501,95.4170502 166.54838,96.1355011 L166.54838,96.1355011 Z" id="path14" fill="#C6C5C5"></path>
                        <path d="M133.584744,147.194915 L136.562219,141.924393 L141.338481,140.695687 L141.338481,160.885003 L140.654744,160.885003 L120.899189,160.885003 C123.615754,157.389436 125.611108,153.454189 126.731108,149.138543 L133.584744,147.194915" id="path16" fill="#C6C5C5"></path>
                        <path d="M67.4954125,163.945124 C82.151008,166.157642 95.6977754,167.048295 106.192119,166.734944 L109.103836,184.130912 C105.409391,183.907895 101.158482,183.559962 96.4748461,183.091346 L94.9885835,175.256138 C91.6717149,174.987248 88.721816,174.735296 85.0662605,174.33302 L84.5239373,181.758189 C80.0877758,181.214763 75.4246446,180.593706 70.5933013,179.901367 L71.6644427,172.649813 C69.7149781,172.379511 68.2933417,172.177668 66.2942408,171.876313 C64.2879277,171.573548 62.8713116,171.346297 60.9180288,171.028005 L59.7905339,178.269679 C54.9692309,177.506061 50.3290795,176.717741 45.9289079,175.928009 L47.6209281,168.679983 C44.0126757,167.984116 41.1213929,167.353884 37.8738879,166.634022 L34.1332719,173.678087 C29.5163124,172.739443 25.3506761,171.819854 21.7523934,170.939081 L29.5655245,155.137396 C39.5128071,158.55392 52.7717967,161.719902 67.4954125,163.945124" id="path18" fill="#C6C5C5"></path>
                        <path d="M48.9082917,136.585414 C48.9082917,135.020772 49.3029786,133.508355 50.0197361,132.134265 C50.6406149,138.360369 55.7622107,144.438266 65.8498468,143.270959 C65.853665,143.270254 65.8655438,143.268136 65.8736044,143.268136 C67.8859983,144.688806 70.0182407,146.006436 72.2371699,147.199855 C70.0182407,148.103212 67.0488266,149.106785 64.3478873,149.106785 C55.5757562,149.106785 48.9082917,143.237083 48.9082917,136.585414" id="path20" fill="#C6C5C5"></path>
                        <path d="M132.176259,81.4185503 C132.1303,80.9859271 132.103431,80.5462465 132.11828,80.0896279 C132.25333,74.478936 137.797471,70.0639213 144.489188,70.2373235 C145.370905,70.2450161 146.227168,70.3734621 147.055148,70.5507459 C151.233936,64.4989618 155.346966,62.7288062 158.347774,62.555404 C158.697067,64.4691793 158.886562,66.4370148 158.886562,68.4489595 C158.886562,70.4730431 158.562723,72.6842203 158.137774,74.7697039 C155.832016,74.2262784 153.387673,73.9326875 150.959592,73.9326875 C142.727168,73.9326875 135.751916,76.9299968 132.176259,81.4185503" id="path22" fill="#C6C5C5"></path>
                        <path d="M46.2689382,91.7676304 C44.9909787,90.8473357 44.0690292,90.5629195 41.2310596,90.5629195 C39.4578677,90.5629195 37.3297263,90.776761 35.8410597,91.2714899 C35.3438476,91.4853314 35.20109,91.7676304 35.20109,92.5460698 L35.20109,114.072072 C35.20109,114.638787 35.3438476,114.923909 35.8410597,115.064352 C36.5503223,115.276782 37.8277162,115.347357 39.6001303,115.347357 C43.7850696,115.347357 50.454726,112.444618 50.454726,102.389835 C50.454726,96.5822392 48.3970796,93.3259207 46.2689382,91.7676304 Z M115.700098,97.6592098 C112.934038,97.6592098 108.463937,97.446074 107.611917,97.446074 C107.541917,97.446074 103.071816,97.6592098 99.454442,97.6592098 C98.4610076,97.6592098 97.964644,97.5166488 97.964644,97.0212141 C97.964644,96.5257794 98.3895935,96.3839242 99.1701995,96.3839242 C99.9508056,96.3839242 101.157068,96.3133495 101.724139,96.1722 C104.066664,95.6753538 104.632321,94.5440407 104.775856,92.1353248 C104.91727,89.8698756 104.91727,87.8881368 104.91727,77.1240773 L104.91727,68.2725227 C104.91727,60.9793289 104.704442,54.6063592 100.802826,50.7115509 C97.964644,47.8794571 94.133735,46.8878115 91.0113109,46.8878115 C88.6001998,46.8878115 85.3356544,47.1720159 82.1439373,49.79048 C78.6672708,52.6234207 76.6111092,56.9433712 76.6111092,67.2103022 L76.6111092,77.1240773 C76.6111092,87.8881368 76.6111092,89.8698756 76.7525233,92.1353248 C76.8939375,94.6139097 77.4631294,95.8179148 79.3771697,96.1722 C80.2291899,96.3133495 80.6548465,96.3839242 81.4340384,96.3839242 C82.1439373,96.3839242 82.5688868,96.5257794 82.5688868,97.0212141 C82.5688868,97.5166488 82.0732303,97.6592098 81.009796,97.6592098 C78.4551496,97.6592098 73.9857557,97.446074 72.2831295,97.446074 C70.1547053,97.446074 65.6857357,97.6592098 61.9253217,97.6592098 C60.8605439,97.6592098 60.3655945,97.5166488 60.3655945,97.0212141 C60.3655945,96.5257794 60.7901197,96.3839242 61.5703722,96.3839242 C62.5633116,96.3839242 63.7697863,96.3133495 64.3370691,96.1722 C66.6792408,95.6753538 67.2463115,94.5440407 67.3885034,92.1353248 C67.5294226,89.8698756 67.5294226,87.8881368 67.5294226,77.1240773 L67.5294226,69.0623246 C66.7063216,69.6790773 65.8125135,70.4548348 64.8552105,71.4449279 C60.6708369,75.8353825 55.7757158,82.1370012 49.4604432,90.0688963 C56.6263925,95.8743746 58.8258066,100.689689 58.8258066,105.929158 C58.8258066,110.674604 55.9884026,114.284502 54.0019582,115.631068 C50.1702715,118.250096 45.4176958,118.674956 40.9479485,118.674956 C38.7488879,118.674956 33.3579689,118.463232 30.9448073,118.463232 C29.4552922,118.463232 24.9855448,118.674956 21.2245651,118.674956 C20.1612015,118.674956 19.6648379,118.533101 19.6648379,118.038372 C19.6648379,117.542232 20.0907773,117.400376 20.8710298,117.400376 C21.8647469,117.400376 23.0703732,117.330507 23.6380095,117.188652 C25.9793327,116.691806 26.5463327,115.559787 26.6891609,113.152483 C26.8300094,110.886328 26.8300094,108.903178 26.8300094,98.1405295 L26.8300094,85.6777359 C26.8300094,79.1636873 26.8300094,73.5692276 26.4759084,70.595208 C26.1914539,68.5421182 25.8365044,66.983969 24.418262,66.7003292 C23.7794236,66.5583328 22.9281812,66.4171833 21.8647469,66.4171833 C21.0127267,66.4171833 20.7301813,66.2046122 20.7301813,65.8498329 C20.7301813,65.3558098 21.2245651,65.142674 22.1484237,65.142674 C24.9855448,65.142674 29.4552922,65.3558098 30.8039588,65.3558098 C31.8673224,65.3558098 37.1165445,65.142674 41.2310596,65.142674 C42.1544232,65.142674 42.6507161,65.3558098 42.6507161,65.8498329 C42.6507161,66.2046122 42.3670393,66.4171833 41.8000394,66.4171833 C40.9479485,66.4171833 39.3860293,66.5583328 38.3235142,66.7003292 C36.1959385,66.983969 35.7700698,68.5421182 35.5559688,70.595208 C35.20109,73.5692276 35.20109,79.1636873 35.20109,85.7483107 L35.20109,86.7398858 C35.20109,87.1647457 35.4148375,87.3073067 35.7700698,87.3073067 L41.9417363,87.1647457 C42.4375343,87.1647457 42.8642515,87.0934652 43.2182817,86.6693111 C44.1394534,85.6071612 47.4041402,80.7911408 50.2406957,76.8982381 C54.2143623,71.4449279 56.9095036,68.1164819 59.9615036,66.487758 C61.8051904,65.4961123 63.57916,65.142674 67.5523316,65.142674 L67.5567155,65.142674 C67.8318367,55.9544779 70.423675,51.0988651 73.8443416,48.0211712 C79.0222202,43.348347 85.8334322,43.1352113 89.5929271,43.1352113 C94.2044421,43.1352113 99.3116137,43.9142859 104.349492,48.2342364 C110.308684,53.3319205 111.088583,61.6878287 111.088583,69.5472436 L111.088583,77.1240773 C111.088583,87.8881368 111.088583,89.8698756 111.230704,92.1353248 C111.373533,94.6139097 111.939189,95.8179148 113.856058,96.1722 C114.707371,96.3133495 115.133734,96.3839242 115.913633,96.3839242 C116.764947,96.3839242 117.189189,96.5257794 117.189189,97.0212141 C117.189189,97.5166488 116.692825,97.6592098 115.700098,97.6592098 L115.700098,97.6592098 Z" id="path24" fill="#C6C5C5"></path>
                        <path d="M126.3203,138.054074 L123.786159,142.403596 C123.786159,142.403596 122.328886,143.153805 119.811714,144.033167 C119.783431,144.412153 119.743835,144.791139 119.689391,145.171537 C119.06929,149.925452 116.805957,154.164876 113.354038,157.680204 C113.74929,155.126104 113.759189,152.603057 113.35333,150.172463 C110.037876,152.088568 105.922725,152.870536 101.512725,152.547303 C105.13222,151.626303 107.56525,149.576812 109.097472,146.476464 C99.514543,147.557669 86.6776746,146.060073 75.0739375,134.974898 C81.8893919,134.767409 84.3683817,134.027785 87.2157554,131.856201 L86.7872706,131.393936 C82.1962606,126.285031 81.4050485,119.490094 85.041513,116.232364 C88.0550483,113.538527 95.3067653,113.249876 97.4470683,117.313569 C100.733533,123.509326 108.342321,128.274533 117.756967,129.865287 C113.918987,131.492035 110.829795,132.219661 109.752927,132.342461 C112.798987,138.354017 121.968987,138.399891 126.3203,138.054074" id="path26" fill="#C6C5C5"></path>
                        <path d="M146.037673,128.225836 C147.019794,129.123547 148.356865,130.163818 149.961208,130.952844 L129.730502,135.544437 C128.114845,134.757528 126.120199,133.506944 123.984845,131.525205 C128.303633,131.386879 132.733431,130.866037 138.067572,128.328875 C130.636966,127.415638 124.715956,123.779627 122.910098,119.099816 C124.474845,118.931143 126.088381,118.818223 127.739391,118.766703 C133.213532,118.595913 138.322118,119.1224 142.611209,120.176081 C140.379693,118.096243 136.845047,116.089803 132.60828,115.132104 C136.951108,114.966254 141.03939,114.857568 144.522421,115.707994 C142.291613,113.637331 138.756259,111.633714 134.52232,110.676015 C138.865855,110.510164 142.95131,110.400068 146.42232,111.251199 C143.319693,108.37175 137.698481,105.618629 131.18636,105.627804 C134.221815,104.360987 137.843431,103.625598 141.734441,103.625598 C152.446562,103.625598 158.967168,109.206649 158.967168,116.089803 C158.967168,121.993381 154.166158,126.939964 146.037673,128.225836" id="path28" fill="#C6C5C5"></path>
                        <path d="M39.6001303,115.347357 C37.8277162,115.347357 36.5503223,115.276782 35.8410597,115.064352 C35.3438476,114.923909 35.20109,114.638787 35.20109,114.072072 L35.20109,92.5460698 C35.20109,91.7676304 35.3438476,91.4853314 35.8410597,91.2714899 C37.3297263,90.776761 39.4578677,90.5629195 41.2310596,90.5629195 C44.0690292,90.5629195 44.9909787,90.8473357 46.2689382,91.7676304 C48.3970796,93.3259207 50.454726,96.5822392 50.454726,102.389835 C50.454726,112.444618 43.7850696,115.347357 39.6001303,115.347357" id="path30" fill="#53369A"></path>
                        <path d="M141.734441,103.625598 C137.843431,103.625598 134.221815,104.360987 131.18636,105.627804 C137.698481,105.618629 143.319693,108.37175 146.42232,111.251199 C142.95131,110.400068 138.865855,110.510164 134.52232,110.676015 C138.756259,111.633714 142.291613,113.637331 144.522421,115.707994 C141.03939,114.857568 136.951108,114.966254 132.60828,115.132104 C136.845047,116.089803 140.379693,118.096243 142.611209,120.176081 C138.322118,119.1224 133.213532,118.595913 127.739391,118.766703 C126.088381,118.818223 124.474845,118.931143 122.910098,119.099816 C124.715956,123.779627 130.636966,127.415638 138.067572,128.328875 C132.733431,130.866037 128.303633,131.386879 123.984845,131.525205 C126.120199,133.506944 128.114845,134.757528 129.730502,135.544437 L149.961208,130.952844 C148.356865,130.163818 147.019794,129.123547 146.037673,128.225836 C154.166158,126.939964 158.967168,121.993381 158.967168,116.089803 C158.967168,109.206649 152.446562,103.625598 141.734441,103.625598 L141.734441,103.625598 Z M150.959592,73.9326875 C153.387673,73.9326875 155.832016,74.2262784 158.137774,74.7697039 C158.562723,72.6842203 158.886562,70.4730431 158.886562,68.4489595 C158.886562,66.4370148 158.697067,64.4691793 158.347774,62.555404 C155.346966,62.7288062 151.233936,64.4989618 147.055148,70.5507459 C146.227168,70.3734621 145.370905,70.2450161 144.489188,70.2373235 C137.797471,70.0639213 132.25333,74.478936 132.11828,80.0896279 C132.103431,80.5462465 132.1303,80.9859271 132.176259,81.4185503 C135.751916,76.9299968 142.727168,73.9326875 150.959592,73.9326875 L150.959592,73.9326875 Z M117.756967,129.865287 C108.342321,128.274533 100.733533,123.509326 97.4470683,117.313569 C95.3067653,113.249876 88.0550483,113.538527 85.041513,116.232364 C81.4050485,119.490094 82.1962606,126.285031 86.7872706,131.393936 L87.2157554,131.856201 C84.3683817,134.027785 81.8893919,134.767409 75.0739375,134.974898 C86.6776746,146.060073 99.514543,147.557669 109.097472,146.476464 C107.56525,149.576812 105.13222,151.626303 101.512725,152.547303 C105.922725,152.870536 110.037876,152.088568 113.35333,150.172463 C113.759189,152.603057 113.74929,155.126104 113.354038,157.680204 C116.805957,154.164876 119.06929,149.925452 119.689391,145.171537 C119.743835,144.791139 119.783431,144.412153 119.811714,144.033167 C122.328886,143.153805 123.786159,142.403596 123.786159,142.403596 L126.3203,138.054074 C121.968987,138.399891 112.798987,138.354017 109.752927,132.342461 C110.829795,132.219661 113.918987,131.492035 117.756967,129.865287 L117.756967,129.865287 Z M115.913633,96.3839242 C115.133734,96.3839242 114.707371,96.3133495 113.856058,96.1722 C111.939189,95.8179148 111.373533,94.6139097 111.230704,92.1353248 C111.088583,89.8698756 111.088583,87.8881368 111.088583,77.1240773 L111.088583,69.5472436 C111.088583,61.6878287 110.308684,53.3319205 104.349492,48.2342364 C99.3116137,43.9142859 94.2044421,43.1352113 89.5929271,43.1352113 C85.8334322,43.1352113 79.0222202,43.348347 73.8443416,48.0211712 C70.423675,51.0988651 67.8318367,55.9544779 67.5567155,65.142674 L67.5523316,65.142674 C63.57916,65.142674 61.8051904,65.4961123 59.9615036,66.487758 C56.9095036,68.1164819 54.2143623,71.4449279 50.2406957,76.8982381 C47.4041402,80.7911408 44.1394534,85.6071612 43.2182817,86.6693111 C42.8642515,87.0934652 42.4375343,87.1647457 41.9417363,87.1647457 L35.7700698,87.3073067 C35.4148375,87.3073067 35.20109,87.1647457 35.20109,86.7398858 L35.20109,85.7483107 C35.20109,79.1636873 35.20109,73.5692276 35.5559688,70.595208 C35.7700698,68.5421182 36.1959385,66.983969 38.3235142,66.7003292 C39.3860293,66.5583328 40.9479485,66.4171833 41.8000394,66.4171833 C42.3670393,66.4171833 42.6507161,66.2046122 42.6507161,65.8498329 C42.6507161,65.3558098 42.1544232,65.142674 41.2310596,65.142674 C37.1165445,65.142674 31.8673224,65.3558098 30.8039588,65.3558098 C29.4552922,65.3558098 24.9855448,65.142674 22.1484237,65.142674 C21.2245651,65.142674 20.7301813,65.3558098 20.7301813,65.8498329 C20.7301813,66.2046122 21.0127267,66.4171833 21.8647469,66.4171833 C22.9281812,66.4171833 23.7794236,66.5583328 24.418262,66.7003292 C25.8365044,66.983969 26.1914539,68.5421182 26.4759084,70.595208 C26.8300094,73.5692276 26.8300094,79.1636873 26.8300094,85.6777359 L26.8300094,98.1405295 C26.8300094,108.903178 26.8300094,110.886328 26.6891609,113.152483 C26.5463327,115.559787 25.9793327,116.691806 23.6380095,117.188652 C23.0703732,117.330507 21.8647469,117.400376 20.8710298,117.400376 C20.0907773,117.400376 19.6648379,117.542232 19.6648379,118.038372 C19.6648379,118.533101 20.1612015,118.674956 21.2245651,118.674956 C24.9855448,118.674956 29.4552922,118.463232 30.9448073,118.463232 C33.3579689,118.463232 38.7488879,118.674956 40.9479485,118.674956 C45.4176958,118.674956 50.1702715,118.250096 54.0019582,115.631068 C55.9884026,114.284502 58.8258066,110.674604 58.8258066,105.929158 C58.8258066,100.689689 56.6263925,95.8743746 49.4604432,90.0688963 C55.7757158,82.1370012 60.6708369,75.8353825 64.8552105,71.4449279 C65.8125135,70.4548348 66.7063216,69.6790773 67.5294226,69.0623246 L67.5294226,77.1240773 C67.5294226,87.8881368 67.5294226,89.8698756 67.3885034,92.1353248 C67.2463115,94.5440407 66.6792408,95.6753538 64.3370691,96.1722 C63.7697863,96.3133495 62.5633116,96.3839242 61.5703722,96.3839242 C60.7901197,96.3839242 60.3655945,96.5257794 60.3655945,97.0212141 C60.3655945,97.5166488 60.8605439,97.6592098 61.9253217,97.6592098 C65.6857357,97.6592098 70.1547053,97.446074 72.2831295,97.446074 C73.9857557,97.446074 78.4551496,97.6592098 81.009796,97.6592098 C82.0732303,97.6592098 82.5688868,97.5166488 82.5688868,97.0212141 C82.5688868,96.5257794 82.1439373,96.3839242 81.4340384,96.3839242 C80.6548465,96.3839242 80.2291899,96.3133495 79.3771697,96.1722 C77.4631294,95.8179148 76.8939375,94.6139097 76.7525233,92.1353248 C76.6111092,89.8698756 76.6111092,87.8881368 76.6111092,77.1240773 L76.6111092,67.2103022 C76.6111092,56.9433712 78.6672708,52.6234207 82.1439373,49.79048 C85.3356544,47.1720159 88.6001998,46.8878115 91.0113109,46.8878115 C94.133735,46.8878115 97.964644,47.8794571 100.802826,50.7115509 C104.704442,54.6063592 104.91727,60.9793289 104.91727,68.2725227 L104.91727,77.1240773 C104.91727,87.8881368 104.91727,89.8698756 104.775856,92.1353248 C104.632321,94.5440407 104.066664,95.6753538 101.724139,96.1722 C101.157068,96.3133495 99.9508056,96.3839242 99.1701995,96.3839242 C98.3895935,96.3839242 97.964644,96.5257794 97.964644,97.0212141 C97.964644,97.5166488 98.4610076,97.6592098 99.454442,97.6592098 C103.071816,97.6592098 107.541917,97.446074 107.611917,97.446074 C108.463937,97.446074 112.934038,97.6592098 115.700098,97.6592098 C116.692825,97.6592098 117.189189,97.5166488 117.189189,97.0212141 C117.189189,96.5257794 116.764947,96.3839242 115.913633,96.3839242 L115.913633,96.3839242 Z M72.2371699,147.199855 C70.0182407,146.006436 67.8859983,144.688806 65.8736044,143.268136 C65.8655438,143.268136 65.853665,143.270254 65.8498468,143.270959 C55.7622107,144.438266 50.6406149,138.360369 50.0197361,132.134265 C49.3029786,133.508355 48.9082917,135.020772 48.9082917,136.585414 C48.9082917,143.237083 55.5757562,149.106785 64.3478873,149.106785 C67.0488266,149.106785 70.0182407,148.103212 72.2371699,147.199855 L72.2371699,147.199855 Z M34.1332719,173.678087 L37.8738879,166.634022 C41.1213929,167.353884 44.0126757,167.984116 47.6209281,168.679983 L45.9289079,175.928009 C50.3290795,176.717741 54.9692309,177.506061 59.7905339,178.269679 L60.9180288,171.028005 C62.8713116,171.346297 64.2879277,171.573548 66.2942408,171.876313 C68.2933417,172.177668 69.7149781,172.379511 71.6644427,172.649813 L70.5933013,179.901367 C75.4246446,180.593706 80.0877758,181.214763 84.5239373,181.758189 L85.0662605,174.33302 C88.721816,174.735296 91.6717149,174.987248 94.9885835,175.256138 L96.4748461,183.091346 C101.158482,183.559962 105.409391,183.907895 109.103836,184.130912 L106.192119,166.734944 C95.6977754,167.048295 82.151008,166.157642 67.4954125,163.945124 C52.7717967,161.719902 39.5128071,158.55392 29.5655245,155.137396 L21.7523934,170.939081 C25.3506761,171.819854 29.5163124,172.739443 34.1332719,173.678087 L34.1332719,173.678087 Z M140.654744,160.885003 L141.338481,160.885003 L141.338481,140.695687 L136.562219,141.924393 L133.584744,147.194915 L126.731108,149.138543 C125.611108,153.454189 123.615754,157.389436 120.899189,160.885003 L140.654744,160.885003 Z M160.165653,96.0218758 C160.493026,96.9591083 160.655653,97.9168076 160.666966,98.8589804 C164.850703,102.835161 166.387875,108.167789 166.387875,114.103124 C166.387875,119.683469 164.273733,124.732386 160.502218,128.627406 C163.411814,131.118695 165.140602,134.571917 165.140602,134.571917 L148.915451,138.746413 L148.916158,160.448146 L148.916158,168.456967 L140.890906,168.456967 L114.716563,168.456967 L117.119189,182.79352 L118.797775,192.839835 L108.613836,192.220188 C104.798482,191.992232 100.441513,191.635124 95.6687855,191.158744 L93.9265633,191.06982 L90.0051493,190.592029 L88.2883816,190.384539 L87.0644423,190.235627 C77.0940385,193.047324 66.1304125,193.56252 56.523938,191.146747 C59.839746,189.474125 60.735746,188.816369 63.014352,187.04212 C54.9396754,189.982263 37.6015243,186.601027 30.3504437,181.175241 C26.44607,180.36222 22.9121307,179.568255 19.8230803,178.810282 L9.98822197,176.407212 L13.9218683,168.456967 L6.05291399,168.456967 L6.05291399,160.448146 L6.05291399,94.6851902 C6.0578847,92.9321136 6.14626853,91.1056393 6.31667964,89.2502293 C6.47079984,87.6008976 6.68816751,85.9339222 6.96851397,84.294471 C7.04668063,83.8449099 7.12734326,83.3960546 7.21374729,82.9464934 L7.23835335,82.8131072 L7.49056547,81.5858124 L7.55264628,81.2865755 L7.82281799,80.0952739 L7.85923213,79.9463612 C7.95313111,79.5469082 8.05289879,79.1474551 8.17967656,78.6513147 L8.21693919,78.502402 L8.53264625,77.340036 L8.59946443,77.0937302 C8.72511089,76.6455805 8.85443412,76.1974309 8.99994927,75.7217572 C10.6281917,70.3249773 12.9311209,64.8849351 15.8546461,59.5460265 C16.1651208,58.9786761 16.4849996,58.409138 16.8426359,57.7858219 L16.986242,57.5360578 C17.2721107,57.0447871 17.5615854,56.5557041 17.8714945,56.0412848 L18.0648076,55.7187583 C18.7688379,54.5597799 19.4938682,53.4209153 20.2191813,52.3256658 L20.4097369,52.0403322 C20.7149793,51.5829373 21.0237571,51.1286477 21.4192924,50.557698 L21.6789288,50.1841459 C21.9647974,49.7728363 22.2561813,49.3642791 22.5723833,48.9237516 L22.8430499,48.5482234 C23.2380196,48.0035275 23.6385045,47.4615135 24.0556055,46.9073607 C28.0369791,41.6553296 32.595676,36.6324546 37.6542718,31.9336589 L37.8987061,31.7093018 C38.3074637,31.3337736 38.7190495,30.9605038 39.1512818,30.5737543 L39.3703323,30.3782622 L39.6387364,30.1362614 C40.073797,29.7527583 40.5087869,29.3695374 40.9521202,28.988575 L41.3166858,28.6724001 C41.8795848,28.1924213 42.4477161,27.7127248 43.0374131,27.2263943 L43.3246252,26.9934271 C43.8024636,26.6003257 44.2858171,26.2108237 44.7705847,25.8261914 L45.2897867,25.4154464 C45.7358776,25.0631373 46.1855039,24.7160507 46.634918,24.3714343 L46.7627564,24.2722062 L47.1237867,23.995412 C47.8468372,23.4506456 48.5793624,22.9114546 49.3181806,22.3743808 C49.811221,22.0179078 50.3064533,21.6600939 50.8104533,21.3072201 L51.1626452,21.0610554 L51.3399785,20.9394552 C51.8089785,20.6127647 52.2804532,20.2888266 52.7306451,19.9839437 L53.3134128,19.5921834 C53.864433,19.2252653 54.4195542,18.8589118 55.066736,18.4404036 L55.2606148,18.3132985 C55.9097057,17.8978955 56.564241,17.4863037 57.2395642,17.0677954 L57.5226753,16.8962988 L57.7353622,16.765665 C58.2407763,16.4579591 58.7476046,16.1503238 59.2448167,15.8567329 L59.8897359,15.4762644 C60.4056854,15.1749809 60.9268672,14.8744736 61.4654429,14.5709317 L61.6366954,14.4719859 L61.9501399,14.295549 C62.6406651,13.9068233 63.3367055,13.5222616 64.0244024,13.1522382 L64.4110994,12.9490535 C64.9842509,12.6414182 65.5622812,12.3392878 66.1332408,12.0434385 L66.6892105,11.7606455 L66.8251094,11.6914116 L68.401665,10.902386 L68.6991296,10.7571432 L69.0244528,10.5966563 C69.7472912,10.2482288 70.4709073,9.90085988 71.2013114,9.56287745 L74.1123214,8.21779345 L77.4850486,6.65800698 L80.8577758,8.21779345 L83.7603009,9.56146595 C84.4963615,9.89951896 85.2239373,10.2495697 85.9543413,10.6024434 L86.2993918,10.7703407 L86.6034322,10.9222881 C87.1174726,11.1739576 87.6286847,11.4309203 88.172422,11.7068675 L88.3689877,11.8063779 L88.8165634,12.0357458 C89.402018,12.3365354 89.9818159,12.6400773 90.6252503,12.9849055 L90.9299977,13.1467334 C91.6335331,13.5236025 92.3307048,13.9095758 93.0052502,14.2877858 L93.3248462,14.4692335 L93.5185835,14.5791889 C94.0418158,14.8744736 94.5622199,15.1749809 95.0819168,15.4784523 L95.7161592,15.852569 C96.2224218,16.1516647 96.723735,16.4566182 97.273836,16.7904367 L97.44424,16.8962988 L97.7412097,17.0768996 C98.4016137,17.4834807 99.0584824,17.8970486 99.7429268,18.3367293 L99.9868662,18.4955225 C100.547573,18.8589118 101.104745,19.2252653 101.659088,19.5935949 L102.070604,19.8722945 L102.212018,19.9690525 C102.690705,20.2916496 103.165149,20.616364 103.719492,21.0009258 L104.155755,21.3044677 C104.656361,21.6564945 105.149189,22.0143791 105.654745,22.3785447 C106.392927,22.914207 107.126866,23.453398 107.835351,23.9890603 L108.329593,24.3686818 C108.782826,24.7160507 109.231815,25.0631373 109.640502,25.3856639 L110.189896,25.8190634 C110.674947,26.2058129 111.157876,26.5953855 111.750401,27.0794577 L111.94626,27.2382508 C112.522522,27.7154772 113.092421,28.1960206 113.686361,28.7026767 L113.852522,28.8474255 L114.019391,28.9899865 C114.462724,29.3725722 114.901108,29.755793 115.33525,30.1417663 L115.833734,30.5892101 C116.248785,30.9605038 116.659593,31.3337736 117.122724,31.7600451 L117.358886,31.9775564 C122.374845,36.6346425 126.935451,41.6581525 130.922623,46.920911 C131.332724,47.4651128 131.73434,48.0098793 132.117572,48.5363668 L132.425855,48.966167 C132.72636,49.3855221 133.026158,49.8059359 133.313936,50.2188687 L133.62929,50.6735111 C133.942522,51.1237074 134.246562,51.5760915 134.634744,52.1538869 L134.753532,52.3333585 C135.500199,53.4603665 136.235552,54.618498 136.941209,55.7802289 L137.132825,56.0992267 C137.424138,56.5818873 137.70838,57.0632777 137.966461,57.5134739 L138.152421,57.8332481 C138.477673,58.3991869 138.795855,58.9673842 139.121815,59.5601414 C139.406057,60.0809124 139.68535,60.6024598 139.957572,61.1240777 C153.073734,59.4041007 162.829188,53.1328292 162.829188,53.1328292 L164.678178,59.2995795 C165.533733,62.1884859 165.979188,65.2703437 165.979188,68.4489595 C165.979188,74.9574327 162.675754,83.3043074 162.675754,83.3043074 L160.524844,82.5936197 C159.341915,84.5294849 157.420804,86.0179062 155.033733,86.6043823 C154.865451,86.6431984 154.697875,86.6770743 154.517572,86.7003639 C155.566865,85.1201955 156.110602,83.2146775 155.986158,81.237879 C154.375451,80.899826 152.667875,80.7226834 150.959592,80.7226834 C142.64232,80.7226834 136.444138,84.7242712 136.444138,88.3066451 C136.444138,91.0795266 139.218683,94.599089 144.350602,96.0303447 C145.68838,96.3112322 147.116663,96.4728484 148.648885,96.4728484 C151.134239,96.4728484 153.547471,96.3938047 155.849693,96.2427747 C156.364441,94.6244959 156.420299,92.8460124 155.921814,91.1070508 C157.836562,92.1261501 159.402016,93.8284128 160.165653,96.0218758 L160.165653,96.0218758 Z" id="path32" fill="#53369A"></path>
                        <polyline id="path34" fill="#53369A" points="139.234946 57.4569436 140.523229 57.4569436 140.523229 53.9529782 141.468582 53.9529782 141.468582 57.4569436 142.758986 57.4569436 142.758986 58.2490039 139.234946 58.2490039 139.234946 57.4569436"></polyline>
                        <polyline id="path36" fill="#53369A" points="145.604946 55.2953098 145.591512 55.2953098 144.584643 58.2490039 143.253936 58.2490039 143.253936 53.9529782 144.139895 53.9529782 144.139895 56.9678606 144.151916 56.9678606 145.207572 53.9529782 145.935855 53.9529782 146.991511 56.9982077 147.002118 56.9982077 147.002118 53.9529782 147.889491 53.9529782 147.889491 58.2490039 146.555956 58.2490039 145.604946 55.2953098"></polyline>
                    </g>
                </g>
            </g>
        </g>
    </g>
</svg>