<?xml version="1.0" encoding="UTF-8"?>
<svg width="200px" height="200px" viewBox="0 0 200 200" version="1.1" xmlns="http://www.w3.org/2000/svg" xmlns:xlink="http://www.w3.org/1999/xlink">
    <!-- Generator: Sketch 54.1 (76490) - https://sketchapp.com -->
    <title>rogers-st</title>
    <desc>Created with Sketch.</desc>
    <g id="rogers-st" stroke="none" stroke-width="1" fill="none" fill-rule="evenodd">
        <g id="rogers-st_BGL" transform="translate(-0.000000, 0.000000)">
            <g id="rogers-st" transform="translate(10.000000, 0.000000)">
                <g id="g10" transform="translate(89.846152, 99.699701) scale(-1, 1) rotate(-180.000000) translate(-89.846152, -99.699701) translate(0.000000, 0.215604)" fill-rule="nonzero">
                    <g id="g12">
                        <path d="M111.733096,198.373489 L111.647382,198.340489 C111.647382,198.340489 111.696906,198.359489 111.747382,198.377489 C111.74262,198.375489 111.736906,198.375489 111.733096,198.373489 L111.733096,198.373489 Z M111.74892,198.373753 C111.671382,198.339873 110.418459,197.800257 110.418459,197.800257 L110.482459,197.812577 L110.444305,197.792249 C110.444305,197.792249 110.459074,197.799641 110.471382,197.804569 C110.452305,197.793481 110.37169,197.742969 110.37169,197.742969 C110.37169,197.742969 110.454766,197.788553 110.518766,197.823665 C107.669536,196.574416 107.213536,191.757907 107.140305,190.190801 C96.1661514,189.837217 85.3790748,186.992526 84.8959979,186.863782 C72.457229,183.377835 64.8756907,179.300527 62.0338446,177.602829 C57.224737,179.193959 53.542091,181.110953 49.2002449,183.682139 L49.2612911,183.644563 C42.328122,188.061903 36.6923068,189.079536 36.0721222,189.18056 L35.9999991,189.191648 C30.1086762,189.956721 26.489907,186.274886 26.1214147,185.881261 C23.073784,182.787706 22.7427687,178.811422 22.7427687,177.243085 C22.7475687,177.047197 23.2127379,164.034184 29.7673223,154.16031 C23.7415994,146.061134 18.8713841,137.641638 15.3225842,129.17471 L15.3761842,129.292982 C6.08220908,110.324476 1.00769228,92.1105698 0.293750147,75.1570013 L0,68.1734025 C0,68.1734025 6.28535369,76.3378744 8.28726133,78.938629 C10.5726151,57.9021469 20.1651687,30.1643174 50.7552603,7.39514881 L60.6903985,0 L53.9182756,10.4072685 C53.8658448,10.4874102 50.2865218,16.0937549 50.2865218,22.4864243 C50.2865218,24.6676825 50.733168,26.9365359 51.849291,29.1127428 C76.5507673,15.2399781 110.638766,8.18800318 153.275688,8.18800318 L161.86215,8.18800318 L154.346458,12.3465 C154.107073,12.4790634 132.033843,24.8619074 123.319382,42.3563245 C138.615997,37.9369514 152.785842,37.4571485 153.439381,37.4381757 L162.829534,37.1626386 L154.551381,41.6084382 C138.109535,50.4401004 128.187689,60.7241688 125.002458,72.1811024 C125.737228,73.3065355 126.546458,74.4165686 127.417228,75.5081216 C129.962458,74.9463291 135.230766,74.1985043 139.424612,76.3729865 L139.106458,76.2380823 C150.367381,79.997534 152.420304,93.0505867 152.50215,93.6043713 L152.599996,94.2641079 L152.317535,94.8684045 C152.013535,95.5182851 151.610458,96.1774058 151.333535,96.5975182 C153.405535,99.5635611 154.479381,103.008236 154.479381,106.852696 C154.479381,108.81897 154.193227,110.886884 153.628919,112.99915 C153.628304,112.997918 153.319996,113.941631 153.319996,113.941631 L151.025842,120.952334 L149.081842,113.674287 L148.876919,112.96527 L148.841227,112.83283 C148.795073,112.62339 147.674458,107.885729 144.362458,105.225223 C141.95692,109.698619 141.167996,113.678599 141.167996,116.936626 C141.167996,120.259333 141.968612,122.810808 142.657843,124.411177 C144.363689,124.247937 150.904612,123.620849 150.904612,123.620849 C159.497227,122.799104 164.517534,126.410715 166.947688,128.95603 C167.098457,129.005926 167.268304,129.063214 167.268304,129.063214 C170.55015,130.277351 172.508303,132.489409 172.52738,132.511585 C176.931072,137.295446 179.182765,142.669435 179.182765,148.440129 C179.182765,152.281508 178.179072,156.18264 176.232611,160.040652 C173.90338,170.979591 165.316304,174.471698 162.599381,175.308227 C162.593227,175.310691 162.358765,175.387691 162.127996,175.463459 C158.698458,177.899125 154.909535,179.361511 152.889227,180.032336 C146.02215,186.127045 134.582766,187.512431 129.828304,187.825359 C129.146458,188.348344 126.742151,190.54377 124.732305,192.432428 L124.793228,192.372676 C120.855997,196.369287 117.315689,197.916681 116.323689,198.295521 L116.392612,198.259177 L116.073843,198.397777 L116.015382,198.399625 L115.743997,198.461225 L115.887382,198.424265 L114.899074,198.644794 C114.880613,198.646642 113.955074,198.71933 113.955074,198.71933 C113.205536,198.742738 112.447997,198.624466 111.74892,198.373753 L111.74892,198.373753 Z" id="path14" fill="#FFFFFF"></path>
                        <path d="M174.131073,159.318699 C172.113842,169.403861 164.218457,172.50296 161.882457,173.210129 C161.634457,173.295753 161.385227,173.379529 161.126765,173.458377 L160.954458,173.581577 C157.69415,175.922996 154.014765,177.328093 152.110765,177.955182 L151.764304,178.06791 L151.489227,178.316774 C145.083689,184.067755 134.01415,185.338565 129.553843,185.621925 L129.051074,185.652725 L128.638151,185.944093 C127.707074,186.612454 123.955689,190.121193 123.216612,190.815426 C119.50092,194.585966 116.167382,195.981207 115.533536,196.223911 C115.514459,196.231919 115.491689,196.234999 115.472612,196.241775 C115.44492,196.254711 115.428305,196.260871 115.428305,196.260871 C115.373536,196.276271 115.324305,196.281199 115.267074,196.295367 C115.030151,196.364359 114.801843,196.417952 114.579074,196.4506 C114.576613,196.4506 114.574151,196.4506 114.571689,196.4506 C114.353843,196.4814 114.142766,196.500496 113.941536,196.501728 C113.374766,196.518976 112.889228,196.4352 112.46892,196.279967 C111.993843,196.127199 111.694151,195.952871 111.663997,195.936239 L111.553228,195.866015 L111.411074,195.797023 C110.039382,195.203198 109.366151,191.819507 109.341536,189.717713 L109.321843,188.008927 C97.7969206,188.008927 85.4664594,184.721332 85.4664594,184.721332 C73.0689213,181.246473 65.6135368,177.178405 62.98646,175.592203 L62.2996908,175.177019 L61.5348292,175.425883 C56.4267063,177.095861 52.5985833,179.092935 48.0721219,181.773769 C41.3731067,186.040805 35.9423376,186.95495 35.7143991,186.99191 C30.8141531,187.628239 27.8321839,184.472468 27.709107,184.336332 C25.2216609,181.821201 24.9579071,178.538534 24.9579071,177.243085 C24.9603071,177.161157 25.3814763,164.518976 31.7872607,155.108951 L32.45723,154.120886 L31.5865223,152.895045 C25.3894147,144.567333 20.7339072,136.352965 17.365415,128.316621 C10.3721228,114.043271 3.34783376,95.0291807 2.50721225,75.0639852 L10.0137228,84.8146587 C11.1783382,62.557941 19.919938,33.1112643 52.0769218,9.17477455 C52.0644295,9.17477455 43.8336604,21.958019 51.0439987,32.0960337 C72.2707674,19.6232535 104.465844,10.4048661 153.275688,10.4048661 C153.275688,10.4048661 126.643689,25.1181637 119.406766,45.8963567 C136.231381,40.1613296 153.503996,39.6550387 153.503996,39.6550387 C132.902766,50.7201959 125.012305,62.6909971 122.590766,72.5661028 C123.707074,74.3672885 125.019689,76.1820263 126.569843,78.0097001 C126.569843,78.0097001 133.53292,75.8155059 138.405535,78.3417244 C148.503996,81.7130957 150.310765,93.9290036 150.310765,93.9290036 C150.005535,94.5825802 149.540304,95.3051489 149.353842,95.5724932 L148.633842,96.5969022 L149.365535,97.6139192 C151.291073,100.26457 152.264612,103.374141 152.264612,106.852696 C152.264612,108.629242 152.003073,110.503116 151.489227,112.42627 C151.443073,112.605526 151.348304,112.883958 151.241842,113.173478 C151.167381,112.904286 151.093535,112.627702 151.003689,112.348654 C150.840612,111.619925 149.476919,106.056823 145.225843,103.05998 L143.643689,101.946867 L142.692304,103.638405 C135.008612,117.340106 141.513843,127.116652 141.794458,127.529372 L142.381535,128.383765 C142.381535,128.383765 148.273842,127.703701 155.896611,128.701005 C153.51815,126.740892 151.115073,125.827979 151.115073,125.827979 C159.200611,125.054898 163.701534,128.592589 165.729842,130.886576 C166.002457,130.975896 166.270765,131.063984 166.54338,131.158848 C169.175996,132.133361 170.843688,133.952411 170.860303,133.971507 C174.91938,138.382687 176.96738,143.240468 176.96738,148.440129 C176.96738,152.021556 176.012919,155.681216 174.131073,159.318699" id="path16" fill="#16243A"></path>
                        <path d="M152.787073,172.371136 C150.941535,173.195345 149.327381,173.706009 148.631381,173.909906 C148.631381,173.909906 136.507074,182.742122 121.571074,178.211438 C121.571074,178.211438 123.793843,180.41056 126.832612,181.500881 C124.47692,182.485866 114.450459,183.103715 114.450459,183.103715 C99.2369206,184.38438 86.1341517,180.56764 86.1341517,180.56764 C73.9458443,176.998533 68.156306,174.038034 65.7304599,172.539304 C70.0418444,170.563174 80.5938441,169.005309 80.5938441,169.005309 C68.8658444,165.414641 54.8170448,172.283048 54.8336602,172.283664 C51.5329218,173.687529 45.2889219,177.397085 45.2889219,177.397085 C39.8689836,180.851 35.4807991,181.754057 34.9836299,181.853233 C32.8978453,182.096554 31.6004915,180.892888 31.4579069,180.754288 C30.26443,179.545695 30.1490454,177.870173 30.1466454,177.305917 C30.1742762,176.6585 30.7432608,165.855698 36.0689837,158.030642 C36.0706453,158.028794 36.5819683,157.276041 37.1949529,156.3736 C38.5942144,154.480015 41.5997528,150.963267 46.3774142,148.086544 C46.3774142,148.086544 41.586522,149.020401 37.4514452,151.805956 C36.683876,151.023019 35.7091068,149.691226 35.5817222,149.562482 C23.3478148,133.050586 16.5577227,115.770537 15.4081842,98.1874157 C15.4050458,98.1362877 15.3617842,97.5455431 15.3617842,96.5088141 C15.3617842,94.8530045 15.475015,92.0483537 16.0196919,88.4730863 C20.7567379,118.139059 41.8949528,124.66805 41.8949528,124.66805 C18.3790765,80.3548143 46.0420912,42.7116952 47.888245,40.2816345 C45.9447373,47.9623612 43.6153835,67.0140893 60.3949523,86.9250768 C60.3949523,86.9250768 58.866337,65.8239762 71.5495367,43.5240768 C62.4073831,66.1603125 69.0209214,83.6430256 78.099075,95.5694132 C61.6467677,103.343341 56.5903986,115.285128 58.3803062,126.281971 C54.2283679,123.15392 51.993291,117.923459 51.993291,117.923459 C52.295691,148.092088 78.2886134,158.361434 78.2886134,158.361434 C74.4652289,153.248629 71.5661521,148.151224 69.3618444,143.301452 C64.575383,131.44344 63.5249215,115.479169 85.5046132,106.523752 C82.5341518,115.389849 80.8793826,130.245319 94.2178438,144.975125 C94.2178438,144.975125 86.6923055,129.312078 92.5581515,109.733115 C96.5993822,112.74351 99.4806129,114.276735 99.4806129,114.276735 C99.4806129,114.276735 105.271382,88.0332618 124.461535,83.5395375 L124.478151,83.5592495 C125.588305,83.2475532 126.750766,83.0134729 127.968612,82.8711768 L127.998766,82.8594728 C128.009843,82.8594728 128.026458,82.8594728 128.037535,82.8594728 C130.432612,82.5872005 133.030151,82.6642006 135.847381,83.2068971 L136.382766,83.3658253 L136.767381,83.4958014 C136.905227,83.5420015 137.031381,83.6005215 137.161227,83.6498016 C137.191381,83.6627376 137.22092,83.6732096 137.251073,83.6849136 C138.515073,84.1795621 139.587073,84.8861148 140.491689,85.7121716 C140.49415,85.7158676 140.497227,85.7177156 140.499073,85.7207956 C140.753227,85.9511798 140.993843,86.190188 141.219689,86.4341243 C142.087996,87.3568932 142.75015,88.3498861 143.250458,89.2972951 C143.856612,90.4079441 144.281227,91.4896412 144.579073,92.4050181 C109.028305,86.2068201 105.766151,129.060134 105.766151,129.060134 C108.29292,122.650648 111.03569,117.604371 113.800613,113.627471 L113.799382,113.629319 C107.656613,136.230381 118.761843,147.704624 122.735997,150.965115 C122.833228,151.175787 122.921228,151.363668 123.005535,151.541076 C115.964305,148.691457 112.16369,145.618846 112.16369,145.618846 C115.719997,149.414642 119.435689,152.148452 123.120612,154.087006 C122.903382,154.680215 122.812305,155.047967 122.812305,155.047967 C122.683689,155.641176 122.622766,156.202968 122.611689,156.729033 C115.070766,153.798102 110.993228,150.495723 110.993228,150.495723 C114.920613,154.691303 119.038766,157.575418 123.103997,159.5343 C123.202458,159.790556 123.311997,160.025868 123.425843,160.24886 C119.911997,160.901821 111.549536,161.483941 98.4141514,156.865785 C98.4141514,156.865785 101.691074,159.343955 107.102767,161.80303 C101.695997,162.879183 97.8030745,165.441129 98.0892283,167.957492 C98.1556899,168.548236 98.4572283,169.086621 98.9347668,169.567101 C95.3335361,169.736501 91.2879977,169.753134 86.7483055,169.551701 C86.7483055,169.551701 104.834459,178.222526 131.574151,168.506348 C134.80615,170.865631 141.719996,174.347882 152.787073,172.371136" id="path18" fill="#C21B32"></path>
                        <path d="M108.510151,163.915296 C107.806767,164.482632 107.367997,165.274193 107.367997,166.151378 C107.367997,167.149299 107.935382,168.03634 108.815997,168.607988 C107.696613,168.781701 106.503997,168.939397 105.24369,169.079229 C104.143382,168.689916 103.42769,168.094244 103.344613,167.357507 C103.186459,165.938858 105.428305,164.491872 108.510151,163.915296" id="path20" fill="#FFFFFF"></path>
                        <path d="M116.427689,165.879106 C116.454151,166.115034 116.411074,166.350962 116.311997,166.583194 C116.286766,166.740891 116.239997,166.890579 116.182766,167.034723 C115.167997,167.321779 114.047997,167.602059 112.820305,167.868172 C112.36492,167.477011 112.075074,166.897971 112.075074,166.250554 C112.075074,165.324705 112.667074,164.553472 113.487997,164.259024 C114.279382,164.509736 115.093536,164.746897 115.931074,164.969273 C116.208612,165.240313 116.390151,165.543385 116.427689,165.879106" id="path22" fill="#FFFFFF"></path>
                        <path d="M162.396919,136.856853 C162.396919,136.856853 162.396919,131.67752 157.50215,128.142909 C157.50215,128.142909 161.942765,128.442901 165.307073,133.347498 C165.307073,133.347498 165.853534,134.907828 162.396919,136.856853" id="path24" fill="#FFFFFF"></path>
                        <path d="M133.763689,145.85539 C133.763689,145.85539 137.345227,138.808343 133.123689,130.597671 C133.123689,130.597671 139.243073,134.569027 140.436304,144.003076 C140.436304,144.003076 139.815381,145.594206 133.763689,145.85539" id="path26" fill="#FFFFFF"></path>
                        <path d="M43.7795681,172.697 C37.1627683,177.195037 35.0167991,176.928925 35.0167991,176.928925 C35.8461529,166.668203 39.514399,161.143293 41.2103374,159.112955 C41.2103374,159.112955 39.6987682,163.639944 39.6987682,167.664275 C39.6987682,167.664275 43.3930451,162.093782 47.7764296,159.029179 C47.3293527,160.628933 46.6045527,163.653496 46.6045527,166.437202 C46.6045527,166.437202 50.1286141,161.125429 54.3779063,158.022634 C57.724737,158.873947 61.61846,160.589509 65.9624599,163.744664 C60.0540908,165.077073 53.1978448,166.490794 43.7795681,172.697" id="path28" fill="#16243A"></path>
                        <path d="M142.263996,99.4107929 C142.263996,99.4107929 147.369842,100.26457 150.046765,105.683527 C150.046765,105.683527 150.483073,101.252635 146.201842,97.1211187 C146.201842,97.1211187 144.756304,96.3209339 142.263996,99.4107929" id="path30" fill="#FFFFFF"></path>
                        <path d="M171.71938,140.782625 C171.724919,140.793097 171.729226,140.804801 171.73415,140.814657 C172.670765,145.21167 170.58338,149.442362 170.58338,149.442362 C171.795073,148.230689 172.550765,146.828055 173.025226,145.534454 C173.101534,146.396239 173.115073,147.31716 173.029534,148.314465 C172.918765,150.386691 172.317534,152.29198 171.533534,153.945942 C168.065842,149.053665 163.240611,147.596824 163.240611,147.596824 C163.237534,147.596824 163.237534,147.595592 163.237534,147.593744 C163.237534,147.593744 164.43815,141.656114 167.960611,136.381301 C167.960611,136.381301 168.827688,136.907365 169.84738,138.035263 C171.028303,142.210515 168.953227,146.419031 168.953227,146.419031 C170.772919,144.599981 171.458457,142.309691 171.71938,140.782625" id="path32" fill="#FFFFFF"></path>
                        <path d="M154.927381,171.344263 C153.197535,171.304223 151.180919,170.868711 149.603073,169.663197 C153.71815,169.072453 157.730458,167.210899 161.033842,163.240159 C161.111996,163.327631 161.215996,163.386151 161.337842,163.426191 C161.337842,163.424959 161.338458,163.423111 161.339073,163.422495 C161.350765,163.426191 161.363688,163.428655 161.375381,163.432967 C161.456611,163.455143 161.537227,163.479167 161.640611,163.479167 C161.664611,163.479167 161.687996,163.474239 161.711996,163.473623 C162.865842,163.413255 163.788919,161.918222 163.788919,160.078844 C163.788919,158.415026 163.033842,157.032105 162.036919,156.735193 C161.841227,154.688839 161.305842,152.402861 160.280611,149.85385 C160.280611,149.85385 164.625227,149.424498 167.99138,153.720486 C167.859688,153.73219 167.730457,153.76607 167.628304,153.841222 C167.112611,154.218214 167.249227,155.286975 167.935996,156.220832 C168.58215,157.102945 169.473842,157.543386 170.00615,157.285897 C170.308303,158.036186 170.588919,158.853619 170.827688,159.757908 C170.827688,159.757908 169.102765,170.527446 154.927381,171.344263" id="path34" fill="#C21B32"></path>
                        <path d="M112.990151,49.8695606 C112.990151,49.8695606 107.058459,38.1205812 111.855997,25.00599 C111.855997,25.00599 86.1969209,43.6645866 96.9064591,85.0444269 C96.9064591,85.0444269 76.6529212,68.3163146 78.7963057,29.6986826 C78.8732288,28.2763372 78.9784596,26.8280582 79.1175365,25.3479319 C80.2252288,24.9937316 81.348921,24.654192 82.4836902,24.3185333 C97.9144591,19.7755289 115.823997,17.0035262 136.146458,16.0222988 C126.654151,23.8293672 115.599382,35.6522668 112.990151,49.8695606" id="path36" fill="#C21B32"></path>
                        <path d="M129.764304,110.386692 C126.192612,121.287438 117.923689,126.188339 117.923689,126.188339 C115.371074,119.470852 116.582766,112.800182 116.582766,112.809422 C119.940305,109.508891 123.10892,107.514281 125.623997,106.311232 C127.371074,107.399089 128.726766,108.867634 129.764304,110.386692" id="path38" fill="#FFFFFF"></path>
                        <path d="M133.550766,113.811039 C134.009843,109.815043 133.329227,106.61492 132.308304,104.185414 C136.307689,103.149301 138.196304,103.303917 138.196304,103.303917 C138.646766,107.952873 136.065227,111.504117 133.550766,113.811039" id="path40" fill="#FFFFFF"></path>
                        <path d="M132.107689,115.016552 C130.483074,116.259641 129.171689,116.90829 129.171689,116.90829 C129.891689,115.094784 130.365535,113.395855 130.67692,111.867557 C131.305227,112.999766 131.77292,114.096247 132.107689,115.016552" id="path42" fill="#FFFFFF"></path>
                        <path d="M122.626458,102.797564 C122.626458,102.797564 128.419074,103.766533 131.457843,109.916683 C131.457843,109.916683 131.955689,104.886422 127.096612,100.201738 C127.096612,100.201738 125.456612,99.2931368 122.626458,102.797564" id="path44" fill="#FFFFFF"></path>
                        <path d="M155.523688,164.731497 C154.658458,165.206433 143.832612,170.821279 131.035074,162.31431 C143.191381,165.056745 153.142765,160.907981 153.142765,160.907981 C142.32492,161.800566 133.34092,160.249476 126.48492,158.092858 C126.087381,156.947713 126.273843,155.838912 126.326151,155.58204 C140.979689,161.585582 154.314458,156.029872 154.314458,156.029872 C143.351996,156.934161 134.278766,155.328863 127.389535,153.128509 C128.902766,150.495723 132.233843,146.952487 139.144612,147.327016 C139.144612,147.327016 154.589535,146.759063 157.771688,153.59667 L157.771688,153.595438 C157.788304,153.639174 157.793842,153.677366 157.809842,153.721102 C158.172919,154.589663 158.494765,155.540152 158.697227,156.520209 C159.30215,159.423419 158.879381,162.589047 155.523688,164.731497" id="path46" fill="#FFFFFF"></path>
                        <path d="M117.834459,52.5164536 C122.177843,50.826764 126.689843,49.5300827 130.990766,48.5420793 C125.087381,54.1539064 121.337228,59.7681975 119.055997,65.0712234 C117.645536,60.7482544 117.331689,56.5457135 117.834459,52.5164536" id="path48" fill="#C21B32"></path>
                        <polyline id="path50" fill="#FFFFFF" points="166.902765 11.5760065 165.843688 11.5760065 165.843688 8.18800318 164.859073 8.18800318 164.859073 11.5760065 163.788304 11.5760065 163.788304 12.4136441 166.902765 12.4136441 166.902765 11.5760065"></polyline>
                        <polyline id="path52" fill="#FFFFFF" points="169.96615 8.18800318 169.289842 8.18800318 168.26215 11.6306457 168.249842 11.6306457 168.249842 8.18800318 167.419073 8.18800318 167.419073 12.4136441 168.963073 12.4136441 169.70215 9.88200483 170.476919 12.4136441 172.02215 12.4136441 172.02215 8.18800318 171.037534 8.18800318 171.037534 11.6306457 171.012303 11.6306457 169.96615 8.18800318"></polyline>
                    </g>
                </g>
            </g>
        </g>
    </g>
</svg>