<?xml version="1.0" encoding="UTF-8"?>
<svg width="200px" height="200px" viewBox="0 0 200 200" version="1.1" xmlns="http://www.w3.org/2000/svg" xmlns:xlink="http://www.w3.org/1999/xlink">
    <!-- Generator: Sketch 54.1 (76490) - https://sketchapp.com -->
    <title>roger-williams</title>
    <desc>Created with Sketch.</desc>
    <g id="roger-williams" stroke="none" stroke-width="1" fill="none" fill-rule="evenodd">
        <g id="roger-williams_BGL">
            <g id="roger-williams" transform="translate(0.000000, 43.000000)">
                <path d="M81.1647255,0.0994236311 C82.1630616,0.231988473 83.1946755,0.497118156 84.1930116,0.729106628 C96.5723794,3.61239193 108.985025,6.42939481 121.397671,9.31268012 C125.490849,10.240634 129.317804,11.6657061 133.27787,13.1239193 C139.06822,15.443804 145.058236,17.962536 150.349418,21.3097983 C153.710483,23.3976945 157.004992,25.0878963 160.066556,27.573487 C165.391015,31.7161383 170.282862,36.7536023 172.745424,43.1167147 C173.544093,45.0720461 173.544093,47.0936599 174.542429,48.9495677 C175.041597,49.9106628 175.47421,50.8717579 176.039933,51.7997118 C176.572379,52.7276657 177.637271,53.3573487 178.43594,54.0201729 C180.266223,55.4121037 181.797005,57.0028818 183.793677,57.9971182 C187.254576,59.7867435 190.449251,62.1066282 193.144759,64.8904899 C195.9401,67.8069164 198.169717,71.4193084 199.201331,75.3299712 C200.565724,80.3011527 200,85.7363112 198.369384,90.574928 C196.638935,95.7118156 192.978369,100.152738 188.718802,103.466859 C183.028286,107.87464 176.239601,110.989914 169.284526,112.878963 C166.455907,109.829971 163.627288,106.747839 160.831947,103.665706 C160.399334,103.201729 159.833611,102.969741 159.234609,102.737752 C155.440932,101.445245 151.580699,100.318444 147.620632,99.6556196 C141.663894,98.6282421 135.840266,98.4956772 129.816972,98.2636888 C129.251248,98.2305476 128.951747,98.1311239 128.552413,97.7334294 C120.831947,90.0778098 109.650582,86.4654179 98.8685524,87.6585014 C90.8153078,88.4207493 83.4941764,91.4365994 76.5391015,95.4466859 C73.0116473,97.4351585 70.1164725,99.9538905 66.8885191,102.40634 C61.4309484,106.548991 56.0732113,110.791066 50.6156406,114.867435 C52.9450915,106.051873 55.2745424,97.2363112 57.6705491,88.4207493 C47.8535774,90.6412104 37.8036606,91.6685879 27.7204659,91.1383285 C21.4975042,90.7737752 15.2745424,90.3760807 9.08485857,90.0115274 C12.1131448,85.70317 15.0748752,81.3285303 18.1031614,77.0201729 C20.4326123,73.407781 23.2612313,70.259366 26.3227953,67.2766571 C29.3178037,64.7910663 32.312812,62.3386167 35.640599,60.3501441 C26.7221298,56.4063401 18.968386,50.0432277 13.5440932,41.9567723 C9.15141431,35.3616715 4.62562396,28.832853 0.299500832,22.1714697 C8.31946755,23.7291066 16.3394343,25.3198847 24.3261231,26.8775216 C25.6239601,27.1426513 26.921797,27.3414986 28.2196339,27.5072046 C27.2878536,26.778098 26.3227953,26.1152738 25.3244592,25.4193084 C28.8851913,22.7017291 32.5790349,20.1498559 36.1730449,17.4654179 C46.8885191,9.71037464 59.733777,5.63400576 72.8785358,4.77233429 C77.5707155,4.37463977 82.2628952,4.4740634 86.9550749,4.8054755 C84.9916805,3.28097983 83.0282862,1.72334294 81.1647255,0.0994236311 Z" id="Shape" fill="#9BC9EA" fill-rule="nonzero"></path>
                <path d="M88.7520799,3.77809798 C97.437604,5.76657061 106.156406,7.82132565 114.875208,9.77665706 C118.269551,10.5720461 121.797005,11.2680115 125.124792,12.295389 C131.547421,14.3170029 137.770383,16.8688761 143.826955,19.8184438 C147.221298,21.4755043 150.382696,23.629683 153.710483,25.5518732 C157.104825,27.4409222 160.166389,29.926513 162.995008,32.5446686 C167.154742,36.4884726 170.78203,41.2608069 171.846922,46.9942363 C172.146423,48.7838617 173.111481,50.1426513 173.91015,51.7997118 C174.342762,52.6945245 174.808652,53.4899135 175.607321,54.0864553 C177.204659,55.3789625 178.801997,56.6714697 180.366057,57.9639769 C181.996672,59.3227666 183.960067,60.018732 185.723794,61.2449568 C190.715474,64.426513 195.074875,68.8674352 196.971714,74.5677233 C198.668885,79.6051873 198.169717,85.4048991 196.339434,90.3429395 C194.542429,95.148415 191.214642,99.0259366 187.154742,102.108069 C182.096506,105.985591 176.073211,108.736311 169.983361,110.592219 C167.387687,107.808357 164.792013,105.024496 162.262895,102.207493 C161.697171,101.544669 160.998336,101.213256 160.199667,100.948127 C157.870216,100.152738 155.507488,99.3904899 153.111481,98.7939481 C147.088186,97.2694524 141.031614,96.7060519 134.808652,96.5072046 C133.211314,96.3746398 131.580699,96.4409222 129.983361,96.1757925 C128.951747,95.5129683 128.1198,94.5518732 127.121464,93.7896254 C122.462562,90.1440922 116.938436,87.5590778 111.148087,86.332853 C105.690516,85.1397695 100.033278,85.2060519 94.5424293,86.2665706 C86.4559068,87.7910663 78.6356073,91.4697406 71.8136439,96.0432277 C65.8236273,100.649856 59.8668885,105.223343 53.8768719,109.79683 C56.0399334,101.743516 58.1364393,93.6902017 60.3660566,85.6700288 C50.4492512,88.3213256 40.1996672,89.5144092 29.9500832,89.2492795 C24.1597338,89.0172911 18.4026622,88.5201729 12.6455907,88.2881844 C14.7088186,85.1397695 16.9384359,82.0576369 19.0682196,78.9423631 C21.9966722,74.5014409 25.5241265,70.2925072 29.6505824,66.9783862 C32.7787022,64.2608069 36.3061564,62.1729107 39.7670549,59.9524496 C34.3094842,57.8314121 29.1846922,55.0144092 24.6921797,51.3025937 C20.6988353,47.9884726 17.2379368,44.0446686 14.4093178,39.70317 C11.1148087,34.7651297 7.72046589,29.8602305 4.45923461,24.889049 C10.8818636,26.2146974 17.3044925,27.4409222 23.7271215,28.7334294 C27.5540765,29.462536 31.4808652,29.9596542 35.374376,30.1253602 C33.1780366,28.5014409 30.8818636,26.9769452 28.6855241,25.3198847 C32.1464226,22.8674352 35.5074875,20.315562 39.0016639,17.8962536 C46.5557404,12.8256484 55.1414309,9.44524496 64.1264559,7.82132565 C73.843594,5.93227666 83.5607321,6.16426513 93.344426,7.39048991 C91.7803661,6.23054755 90.2163062,5.03746398 88.7520799,3.77809798 Z" id="Shape" fill="#01295F" fill-rule="nonzero"></path>
                <path d="M76.8718802,14.0850144 C92.81198,13.6873199 109.018303,17.9293948 123.627288,24.0273775 C125.357737,24.6902017 126.955075,25.5850144 128.718802,26.1152738 C125.557404,23.8285303 122.562396,21.2435159 119.500832,18.7910663 C122.728785,19.5201729 125.823627,20.5806916 128.918469,21.7074928 C137.104825,24.8227666 145.224626,28.7665706 152.34609,33.8040346 C156.139767,36.554755 159.800333,39.7363112 162.329451,43.7463977 C163.760399,46.0662824 164.52579,48.7175793 164.359401,51.4351585 C163.527454,50.573487 162.795341,49.5792507 161.996672,48.7175793 C160.066556,46.7291066 157.803661,45.1714697 155.440932,43.7795389 C156.738769,45.8674352 158.169717,47.8559078 159.267887,50.0763689 C159.53411,52.3631124 159.633943,54.9481268 158.90183,57.1685879 C158.469218,58.4942363 157.437604,59.5878963 156.006656,59.8198847 C153.477537,60.184438 150.881864,59.2564841 148.685524,58.0634006 C144.359401,55.7103746 140.532446,53.1916427 135.77371,51.7002882 C134.009983,51.20317 132.379368,50.6397695 130.549085,50.6066282 C127.387687,49.6455331 124.159734,48.9827089 120.865225,48.7838617 C117.50416,48.4193084 114.209651,48.7507205 110.848586,49.0489914 C114.342762,49.9769452 117.770383,50.8717579 121.031614,52.462536 C123.660566,53.721902 126.289517,55.4783862 127.787022,58.0302594 C128.452579,59.0907781 128.519135,60.2175793 128.718802,61.4106628 C128.452579,60.5158501 128.153078,59.6541787 127.920133,58.759366 C122.628952,56.704611 116.87188,55.445245 111.181364,55.5446686 C113.510815,56.1743516 115.906822,56.9365994 118.103161,57.9971182 C120.066556,58.9582133 121.763727,60.184438 123.460899,61.5763689 C122.229617,61.4769452 121.064892,61.278098 119.866889,60.9798271 C113.377704,59.5216138 106.821963,58.8919308 100.199667,58.5273775 C97.5374376,58.4942363 94.8086522,58.3948127 92.1464226,58.5936599 C97.8036606,59.5216138 103.361065,60.648415 108.851913,62.2723343 C111.314476,63.0345821 113.74376,63.7305476 116.039933,64.9567723 C110.083195,65.2881844 104.22629,65.9841499 98.5024958,67.574928 C92.4792013,69.1988473 86.5890183,71.5518732 81.2645591,74.7665706 C81.6306156,72.4798271 82.4625624,70.4582133 83.2612313,68.3040346 C83.7603993,66.945245 84.3926789,65.6195965 85.0582363,64.3270893 C82.6289517,64.592219 80.3327787,65.221902 77.9700499,65.8184438 C68.1530782,68.2708934 58.5024958,71.7507205 48.6189684,74.037464 C42.9617304,75.1642651 36.9051581,76.3242075 31.1148087,76.092219 C35.6073211,71.4193084 40.9650582,67.9726225 46.7221298,65.056196 C52.81198,62.1066282 59.1680532,59.7536023 65.6905158,57.8976945 C61.0648918,57.1685879 56.5058236,56.6051873 51.9467554,55.5115274 C43.8269551,53.721902 35.8735441,50.6397695 29.4509151,45.2377522 C26.1896839,42.6195965 23.5607321,39.4380403 21.2312812,35.9913545 C28.5524126,37.5489914 36.1397671,38.2118156 43.6272879,37.5489914 C50.6489185,36.9855908 57.171381,35.129683 63.9600666,33.3731988 C56.2063228,31.7492795 48.3860233,29.8270893 41.8302829,25.1873199 C45.4575707,22.7348703 49.1846922,20.481268 53.2778702,18.8573487 C60.7321131,15.7752161 68.7520799,14.2838617 76.8718802,14.0850144 Z" id="Shape" fill="#9BC9EA" fill-rule="nonzero"></path>
                <path d="M135.806988,51.7002882 C140.599002,53.1916427 144.392679,55.7103746 148.718802,58.0634006 C150.881864,59.2896254 153.510815,60.184438 156.039933,59.8198847 C157.470882,59.5878963 158.469218,58.4942363 158.935108,57.1685879 C159.667221,54.9481268 159.600666,52.3631124 159.301165,50.0763689 C160.399334,52.2636888 161.430948,54.4841499 161.364393,57.0028818 C161.430948,59.554755 160,62.073487 157.703827,63.2665706 C155.008319,64.6916427 151.813644,64.2939481 149.21797,62.8688761 C147.254576,61.8083573 145.990017,60.2175793 144.326123,58.759366 C140.366057,55.1138329 135.673877,52.3299712 130.582363,50.6066282 C132.412646,50.6397695 134.043261,51.20317 135.806988,51.7002882 Z" id="Shape" fill="#FDFEFD" fill-rule="nonzero"></path>
                <path d="M111.181364,55.5446686 C116.87188,55.445245 122.628952,56.704611 127.920133,58.759366 C128.186356,59.6541787 128.452579,60.5158501 128.718802,61.4106628 C129.351082,64.0619597 130.249584,66.5475504 132.113145,68.6023055 C133.610649,70.1930836 135.540765,71.0216138 137.637271,71.4855908 C127.986689,72.314121 118.369384,73.0432277 108.785358,74.5345821 C98.1364393,76.1916427 87.0881864,78.8097983 77.4043261,83.6152738 C73.7770383,85.3717579 70.4825291,87.5259366 67.2212978,89.8789625 C69.0183028,83.184438 72.4126456,77.0533141 76.9384359,71.7838617 C61.1647255,78.7766571 43.9933444,82.5878963 26.6888519,81.4610951 C28.0199667,79.5720461 29.4509151,77.7492795 31.0815308,76.1253602 C36.8718802,76.3573487 42.9284526,75.1974063 48.5856905,74.0706052 C58.469218,71.7838617 68.0865225,68.3040346 77.936772,65.851585 C80.2995008,65.2550432 82.5956739,64.592219 85.0249584,64.3602305 C84.359401,65.6527378 83.7271215,66.9783862 83.2279534,68.3371758 C82.4292845,70.4913545 81.5640599,72.5129683 81.2312812,74.7997118 C86.5557404,71.5850144 92.4792013,69.2319885 98.469218,67.6080692 C104.22629,66.0172911 110.083195,65.3213256 116.006656,64.9899135 C113.710483,63.7636888 111.281198,63.0677233 108.818636,62.3054755 C103.327787,60.6815562 97.7703827,59.554755 92.1131448,58.6268012 C94.7753744,58.4279539 97.5041597,58.5273775 100.166389,58.5605187 C106.788686,58.925072 113.344426,59.554755 119.833611,61.0129683 C121.031614,61.3112392 122.196339,61.4769452 123.427621,61.6095101 C121.730449,60.2507205 120.033278,58.9913545 118.069884,58.0302594 C115.906822,56.9697406 113.510815,56.1743516 111.181364,55.5446686 Z" id="Shape" fill="#FDFEFD" fill-rule="nonzero"></path>
                <path d="M132.645591,55.9092219 C134.475874,57.2348703 135.9401,58.8919308 137.603993,60.5158501 C137.570715,62.4380403 137.570715,64.2608069 138.935108,65.7853026 C140.366057,67.0446686 141.896839,66.8789625 143.660566,66.8126801 C144.368273,66.7648535 144.676272,66.7356244 146.637156,65.9935679 C144.826006,67.1981732 143.697182,67.6659461 143.527454,67.740634 C139.234609,69.629683 133.577371,67.0115274 132.1797,62.537464 C131.580699,60.4164265 131.780366,57.9639769 132.645591,55.9092219 Z" id="Shape" fill="#FEB71C" fill-rule="nonzero"></path>
                <path d="M141.797005,62.4711816 C142.396007,62.7694524 142.895175,63.1340058 143.394343,63.5317003 C143.161398,64.1945245 143.12812,64.9899135 142.396007,65.2881844 C141.464226,65.7853026 140.698835,65.1556196 140.299501,64.3270893 C140.299501,63.8299712 140.499168,63.3991354 140.698835,62.9351585 C141.064892,62.7694524 141.430948,62.6037464 141.797005,62.4711816 Z" id="Shape" fill="#FDFEFD" fill-rule="nonzero"></path>
                <path d="M169.883527,64.8573487 C172.412646,64.5590778 174.875208,64.5590778 177.204659,65.7521614 C181.56406,67.8400576 186.289517,70.9221902 188.618968,75.29683 C190.449251,78.5446686 190.615641,82.3227666 189.750416,85.9020173 C188.652246,90.1772334 186.55574,94.3530259 183.527454,97.6008646 C181.331115,99.8213256 178.668885,101.610951 175.574043,102.373199 C174.409318,98.6613833 173.477537,95.148415 171.347754,91.8342939 C170.449251,90.5417867 169.018303,89.6138329 167.587354,88.9841499 C163.12812,87.0951009 158.103161,86.6974063 153.643927,85.2391931 C149.750416,83.6152738 145.990017,81.6599424 142.229617,79.8040346 C139.966722,78.7435159 137.33777,78.445245 134.975042,77.6167147 C134.631046,77.4974948 133.651325,77.2271248 132.035881,76.8056046 L134.143095,76.4899135 C138.036606,76.0590778 141.896839,75.462536 145.757072,74.9654179 C148.851913,74.5677233 152.079867,74.2694524 155.108153,73.407781 C158.336106,72.4798271 161.09817,70.6570605 163.527454,68.4365994 C165.291181,66.7132565 167.454243,65.3876081 169.883527,64.8573487 Z" id="Shape" fill="#FEB71C" fill-rule="nonzero"></path>
                <path d="M172.046589,69.4971182 C172.479201,69.5965418 172.878536,69.7291066 173.311148,69.8616715 C173.211314,70.6570605 173.410982,71.3530259 172.712146,71.9495677 C171.281198,73.1757925 169.21797,73.4740634 167.387687,73.4409222 C168.519135,71.5850144 169.717138,69.8616715 172.046589,69.4971182 Z" id="Shape" fill="#01295F" fill-rule="nonzero"></path>
                <path d="M132.046589,76.8213256 C132.778702,76.7550432 133.477537,76.6887608 134.209651,76.6224784 L134.342762,77.0864553 C134.542429,77.2521614 134.742097,77.4510086 134.975042,77.5835735 C134.009983,77.2521614 133.044925,77.0533141 132.046589,76.8213256 Z" id="Shape" fill="#FEB71C" fill-rule="nonzero"></path>
                <path d="M131.913478,80.8645533 C132.312812,80.8976945 132.678869,80.9639769 133.078203,80.9971182 C141.597338,83.6152738 149.916805,87.1613833 157.936772,91.0720461 C158.744662,91.5077284 161.340596,92.7981805 164.025046,94.1120159 C161.4309,93.2745449 157.50576,91.9783482 157.171381,91.8674352 C150.415973,89.9783862 143.460899,88.9841499 136.40599,88.851585 C135.440932,85.8688761 133.577371,83.5158501 131.913478,80.8645533 Z" id="Shape" fill="#FEB71C" fill-rule="nonzero"></path>
            </g>
        </g>
    </g>
</svg>