<svg width="200" height="200" viewBox="0 0 200 200" fill="none" xmlns="http://www.w3.org/2000/svg">
<path d="M193.866 38.2271C193.866 38.2271 189.134 23.5675 180.317 14.7299C180.546 26.5014 166.365 28.3403 164.735 41.4515C164.735 41.4515 147.728 25.3401 123.334 27.5864C123.334 27.5864 109.097 -0.979079 69.1877 9.18795C69.1877 9.18795 71.3526 10.3544 72.6871 12.1117C68.9789 13.375 57.9409 17.7606 53.708 26.4505C59.8103 26.2671 74.0166 29.1807 80.4907 40.0711C80.4907 40.0711 68.6325 42.134 67.2878 52.0718C67.2878 52.0718 56.2039 55.9328 52.837 63.171C53.7436 63.3289 54.8184 63.6804 56.0307 64.368C49.1186 73.1903 44.4629 84.7428 42.0027 96.983H23.5023L0 161.561H60.7322L58.0427 168.952C56.8406 172.258 56.3465 175.125 56.3465 177.606C56.3465 183.25 58.9087 186.892 61.5166 189.143C67.0739 193.926 74.4088 193.926 78.7894 193.926C79.6757 193.926 100.494 193.952 103.799 193.926C110.457 193.916 115.938 192.76 120.537 190.381C126.482 187.31 130.73 182.359 133.165 175.67L136.842 165.559H148.14V158.77C167.216 155.392 188.859 144.854 188.895 123.2C188.895 123.2 205.918 105.591 196.515 70.5008C196.52 70.4957 205.898 53.1924 193.866 38.2271Z" fill="white"/>
<path d="M193.53 70.297C200.993 55.1177 194.768 45.0322 194.768 45.0322C194.361 47.6096 192.451 49.9323 192.451 49.9323C194.259 37.5139 181.652 20.6232 181.652 20.6232C182.523 27.1635 165.887 31.213 167.15 47.6198C148.889 28.3249 127.669 29.7307 121.73 30.5814C119.748 26.3179 108.15 5.27076 74.2104 10.6242C74.2104 10.6242 79.406 11.0317 81.851 13.222C81.851 13.222 68.587 13.3035 58.476 24.1175C58.476 24.1175 76.9203 25.2941 84.9734 42.3122C84.9734 42.3122 70.2373 42.6178 69.8961 54.1346C69.8961 54.1346 61.6595 56.5287 56.9988 61.7293C56.9988 61.7293 58.751 62.417 60.1314 63.8993C60.1314 63.8993 48.5993 75.355 44.3562 99.7284H25.4331L3.93262 158.8H42.7008C42.7008 158.8 43.1847 157.465 43.6533 156.177C44.9828 157.486 45.9506 158.8 46.7554 158.8H64.6597L60.6255 169.884C58.1805 176.608 58.4301 182.847 63.3099 187.05C68.0929 191.165 74.5313 191.165 78.7897 191.165C78.7897 191.165 100.443 191.191 103.774 191.165H103.713C109.958 191.165 115.052 190.106 119.274 187.926C124.587 185.18 128.387 180.739 130.577 174.718L136.858 157.455C190.362 152.117 186.027 122.334 186.027 122.334C203.672 100.508 193.53 70.297 193.53 70.297Z" fill="#571C00"/>
<path d="M124.016 90.0705C120.613 89.1588 118.454 85.5117 119.203 81.9206C119.309 81.4061 119.478 80.9222 119.686 80.4689C118.219 78.9917 116.885 77.7285 115.78 76.7148C113.696 81.6252 114.048 88.7818 120.588 93.2133C125.432 96.4937 129.222 95.6379 131.519 94.3849C130.358 92.76 129.171 91.2166 127.994 89.7496C126.787 90.2946 125.407 90.4424 124.016 90.0705Z" fill="white"/>
<path d="M119.681 80.4693C120.288 79.1552 121.276 78.1211 122.478 77.5099C121.225 75.8646 119.962 74.1888 118.739 72.5537C117.552 73.5062 116.508 74.9681 115.77 76.7153C116.88 77.7289 118.209 78.9922 119.681 80.4693Z" fill="#C09A87"/>
<path d="M133.985 92.4397C133.985 92.4397 132.549 90.6059 130.374 87.7993C129.742 88.6602 128.917 89.3223 127.979 89.7502C129.156 91.2172 130.338 92.7606 131.504 94.3855C133.109 93.5094 133.985 92.4397 133.985 92.4397Z" fill="#C09A87"/>
<path d="M175.07 84.6055C175.559 85.125 175.952 85.7414 176.252 86.4341C175.651 87.677 174.872 88.8536 174.001 89.9488C174.052 90.1271 174.092 90.3104 174.123 90.4938C174.515 93.0661 172.758 95.4652 170.186 95.8626C169.411 95.9848 168.652 95.9033 167.96 95.669C166.971 96.4076 166.065 97.0137 165.352 97.4722C164.481 96.9832 163.936 96.5706 163.936 96.5706C163.936 96.5706 169.197 100.62 173.425 98.2057C177.429 95.9135 178.284 87.9928 175.07 84.6055Z" fill="white"/>
<path d="M167.96 95.664C167.491 95.501 167.053 95.2718 166.656 94.9814C165.785 95.6793 164.868 96.2345 163.931 96.5656C163.931 96.5656 164.476 96.9782 165.347 97.4672C166.07 97.0087 166.972 96.4026 167.96 95.664Z" fill="#C09A87"/>
<path d="M174.006 89.9488C174.877 88.8536 175.656 87.677 176.257 86.4341C175.951 85.7414 175.559 85.125 175.075 84.6055C175.05 84.58 175.024 84.5546 174.999 84.5291C174.841 84.3712 174.683 84.2235 174.505 84.0859C174.505 84.0859 173.787 85.6446 172.574 87.6719C173.247 88.2628 173.751 89.0421 174.006 89.9488Z" fill="#C09A87"/>
<path d="M134.351 104.318C151.925 106.029 152.454 96.3919 152.454 96.3919C147.274 99.005 140.143 93.6566 140.143 93.6566C138.233 98.5669 132.757 101.807 132.757 101.807C126.38 111.413 117.843 108.856 115.78 108.057C116.365 107.965 116.936 107.848 117.491 107.71C119.172 107.394 120.843 106.651 122.361 105.754C126.39 103.513 128.769 100.589 128.769 100.589C119.473 99.5093 114.165 95.6686 111.129 91.614C107.304 85.2826 107.752 77.2956 110.477 73.5772C110.477 73.5772 108.277 68.7484 103.198 67.0726C103.157 67.0471 103.132 67.0318 103.132 67.0318C111.053 65.9723 118.311 70.2714 118.311 70.2714C116.727 67.1388 112.774 61.9585 112.774 61.9585C112.774 61.9585 94.2333 59.8243 90.2093 79.2363C86.1802 98.6484 107.762 108.189 107.762 108.189C107.762 108.189 100.544 113.023 93.9634 109.065C94.814 112.05 97.5137 118.616 105.231 121.524C105.231 121.524 104.645 118.259 106.591 117.001C109.81 125.854 136.104 134.472 145.068 127.122C143.52 112.427 134.351 104.318 134.351 104.318Z" fill="#FFCF01"/>
<path d="M186.741 69.8745C184.617 76.0175 179.248 80.0925 179.248 80.0925C183.007 80.3523 185.075 79.2673 185.075 79.2673C183.577 81.7021 180.868 84.5546 180.868 84.5546C183.633 90.9573 181.734 101.15 175.158 103.906C175.265 104.318 175.351 104.721 175.422 105.108C175.427 105.143 175.438 105.179 175.443 105.22C175.453 105.271 175.458 105.316 175.468 105.367C175.606 106.233 175.723 107.405 175.667 108.709C175.667 108.714 175.667 108.724 175.667 108.729C175.667 108.775 175.662 108.821 175.657 108.867C175.412 112.351 173.879 114.154 173.879 114.154C173.497 107.919 170.965 105.459 169.463 104.537C172.31 131.106 160.916 141.609 152.577 145.699C159.617 144.283 171.021 140.361 176.905 129.573C178.769 126.16 177.872 121.484 177.872 121.484C201.808 92.6943 186.741 69.8745 186.741 69.8745Z" fill="#FFCF01"/>
<path d="M123.808 86.826C123.808 86.826 127.19 88.3592 129.105 85.089L126.945 82.8682C126.94 82.8682 126.63 85.7308 123.808 86.826Z" fill="#FFCF01"/>
<path d="M171.016 94.1664C172.106 91.8844 170.18 89.7705 170.18 89.7705L168.652 91.3088C170.838 93.1476 171.016 94.1664 171.016 94.1664Z" fill="#FFCF01"/>
<path d="M130.318 79.6031C130.409 79.7407 130.496 79.8782 130.588 80.0106C136.787 89.4136 143.541 95.1797 152.893 92.5564C152.893 92.5564 155.908 93.0454 161.868 90.7278C163.157 90.2235 164.308 89.6224 165.352 88.9552C166.432 88.2624 167.39 87.4933 168.23 86.6783C174.088 80.9835 174.475 73.0679 174.475 73.0679C183.379 74.3617 189.644 57.415 181.968 47.9916C174.292 38.5683 180.272 29.639 180.272 29.639C167.206 38.4766 171.154 52.5912 171.154 52.5912C177.557 58.6935 176.772 63.6497 176.772 63.6497C149.266 29.3283 123.91 35.5732 123.91 35.5732C130.465 45.0322 132.095 54.1092 138.233 59.0959C126.095 55.7086 122.703 25.2635 101.289 18.9881C110.743 25.1464 111.761 34.1011 117.415 39.7042C107.503 37.1115 105.679 13.8282 83.8682 18.005C107.87 27.8919 118.062 60.7564 130.318 79.6031Z" fill="#FFCF01"/>
<path d="M164.384 103.243C162.515 102.555 161.104 100.752 160.37 99.6113C161.038 106.62 161.792 122.125 156.489 129.364C156.489 129.364 160.493 118.458 156.784 102.413C153.825 105.332 148.665 108.704 141.162 107.639C151.365 121.147 151.39 141.599 151.39 141.599C167.97 131.528 164.384 103.243 164.384 103.243Z" fill="#FFCF01"/>
<path d="M141.161 160.379H140.311V162.804H139.48V160.379H138.635V159.748H141.161V160.379V160.379ZM143.571 161.602L144.258 159.748H145.394V162.799H144.61V160.715H144.594L143.871 162.799H143.27L142.542 160.715H142.526V162.799H141.742V159.748H142.878L143.571 161.602Z" fill="#571C00"/>
<path d="M110.203 136.031L98.0339 169.461C97.6468 170.531 96.9642 171.152 95.9455 171.361C95.3903 171.473 94.8911 171.473 94.5192 171.433C94.9216 170.327 107.406 136.031 107.406 136.031H80.2161C80.318 135.496 80.3689 134.972 80.3689 134.468C80.3689 132.155 79.3094 130.494 78.1837 129.44C82.1568 127.489 84.5458 123.567 85.1978 121.784L87.5154 115.422C88.7226 112.111 87.8363 109.789 86.8838 108.429C84.5712 105.128 79.4521 103.656 70.2834 103.656H28.184L9.54102 154.878H39.9504C39.9504 154.878 44.9219 141.212 46.0832 138.028C46.7047 138.028 48.1156 138.038 48.3856 138.054C47.4382 140.662 45.1103 147.059 45.1103 147.059C44.3208 149.581 45.4516 152.545 47.0358 154.032L47.9424 154.883H70.2732L64.3238 171.234C62.2405 176.969 62.6378 181.289 65.8773 184.08C69.5601 187.243 74.8983 187.243 78.795 187.243C78.795 187.243 100.433 187.269 103.744 187.243H103.718C109.322 187.243 113.824 186.327 117.477 184.442C121.883 182.165 125.056 178.447 126.895 173.383L140.485 136.036H110.203V136.031Z" fill="#FFCF01"/>
<path d="M14.0283 151.735L30.3791 106.798H70.2781C81.8357 106.798 86.3996 109.294 84.5608 114.347L82.2432 120.714C81.6064 122.472 78.81 128.233 67.6344 128.767C66.8806 128.803 66.254 128.89 65.5205 128.89C66.2286 128.951 66.8347 128.951 67.5173 129.078C75.713 129.949 78.4025 132.262 76.7674 136.754L73.2477 146.427C72.4276 148.674 72.5193 149.428 73.8335 151.17C74.0117 151.358 74.1849 151.541 74.3581 151.73H49.1799C48.1816 150.793 47.8403 149.728 48.1561 147.859C48.2733 147.548 51.8592 137.687 51.8592 137.687C52.0732 137.101 52.6691 134.88 47.7792 134.88H43.8774L37.7446 151.73C37.8668 151.735 14.0283 151.735 14.0283 151.735ZM50.4024 124.647C55.6337 124.647 57.4776 123.582 58.6186 118.779C58.8987 117.342 57.1465 116.466 53.0104 116.466H50.8201L47.8454 124.642H50.4024V124.647Z" fill="#571C00"/>
<path d="M112.402 139.174C109.805 146.311 107.207 153.452 104.609 160.588C103.402 163.904 102.195 167.22 100.987 170.536C100.254 172.548 98.736 173.995 96.5814 174.438C93.8461 174.998 90.1684 174.199 91.4266 170.745L102.918 139.174H79.329L67.2723 172.304C66.2128 175.228 65.194 179.343 67.9242 181.691C70.7512 184.126 75.4171 184.096 78.9114 184.096C83.2054 184.096 99.22 184.131 103.718 184.096C112.937 184.096 120.598 181.488 123.94 172.304L135.996 139.174H112.402V139.174Z" fill="#571C00"/>
<path d="M96.9842 176.394C95.0078 176.801 92.2165 176.689 90.5254 175.141C91.5238 177.576 94.692 178.559 98.0233 177.876C100.769 177.311 102.913 175.421 103.907 172.701C103.907 172.701 114.552 143.443 114.843 142.653C116.773 142.653 127.434 142.653 132.604 142.653C132.798 142.118 132.976 141.619 133.139 141.171C129.029 141.171 115.958 141.171 113.804 141.171C113.513 141.96 102.867 171.219 102.867 171.219C101.874 173.944 99.7297 175.834 96.9842 176.394Z" fill="white"/>
<path d="M70.181 174.468C70.181 174.468 80.8777 145.078 81.7589 142.653C83.6894 142.653 94.3506 142.653 99.5207 142.653C99.7448 142.042 99.9231 141.538 100.061 141.171C95.9449 141.171 82.8796 141.171 80.7198 141.171C79.8386 143.596 69.1418 172.986 69.1418 172.986C68.4899 174.779 68.1689 176.256 68.1689 177.438C68.1689 178.89 68.6427 179.725 69.3965 180.321C69.0654 179.251 69.0705 177.53 70.181 174.468Z" fill="white"/>
<path d="M68.271 132.542C72.132 132.955 74.2052 133.642 75.2188 134.305C75.1883 133.902 75.0558 133.693 74.9947 133.592C74.4751 132.761 72.7178 131.651 67.3083 131.075C67.3083 131.075 66.6971 130.989 66.4424 130.968L68.271 132.542Z" fill="white"/>
<path d="M61.5981 120.725C62.0464 119.161 61.0124 117.903 60.4673 117.439C60.7067 118.046 60.7271 118.606 60.5641 119.243C59.0768 125.498 55.9747 126.644 50.4022 126.644H47.2899L46.75 128.126H51.4362C57.0087 128.126 60.1108 126.98 61.5981 120.725Z" fill="white"/>
<path d="M54.7727 139.857C55.3534 138.308 54.9968 136.683 53.754 135.649C54.192 136.989 53.9373 137.707 53.7336 138.375C53.7336 138.375 50.1731 148.165 50.1018 148.348C49.9337 149.138 50.0814 149.565 50.1527 149.733C50.331 149.733 50.6875 149.733 51.1714 149.733C51.5484 148.705 54.7727 139.857 54.7727 139.857Z" fill="white"/>
<path d="M32.8132 110.278C35.4212 110.278 71.3114 110.278 71.3114 110.278C78.5037 110.278 81.6109 111.266 82.9454 112.157C82.9097 111.724 82.7467 111.5 82.6652 111.378C81.9878 110.41 79.4817 108.795 70.2723 108.795C70.2723 108.795 34.3821 108.795 31.7741 108.795C30.9285 111.118 18.5457 145.139 16.875 149.733C17.308 149.733 17.8428 149.733 18.449 149.733C21.3575 141.762 32.0288 112.432 32.8132 110.278Z" fill="white"/>
<path d="M60.8848 81.5235C54.2681 87.1266 51.166 94.3189 49.7041 99.7284H53.2952C56.7334 95.5668 59.3872 94.8435 59.3872 94.8435C58.3125 96.4073 57.5484 98.0831 57.0085 99.7284H65.0769C65.4691 96.1781 66.3452 91.334 68.3012 86.933C68.617 88.3134 69.162 90.0605 70.028 91.1047C70.028 91.1047 71.2148 90.8246 73.2523 91.2219C73.2523 91.2219 70.1298 94.3443 67.1806 99.7284H70.2674C74.7753 99.7284 78.3816 100.075 81.2901 100.788C83.1392 101.241 84.7284 101.858 86.0986 102.632C83.3429 98.348 83.0118 93.4122 83.0118 93.4122C72.478 81.498 79.324 69.6093 79.324 69.6093C78.4886 72.961 80.7757 77.6013 80.7757 77.6013C81.9014 76.2617 83.5772 75.6708 83.5772 75.6708C87.9935 56.4217 106.402 54.9344 106.402 54.9344C93.7035 49.7999 84.5501 60.1605 81.825 63.7872C76.9248 60.6546 75.5954 57.5729 75.5954 57.5729C61.1293 64.5869 55.7605 78.2126 55.7605 78.2126C59.0561 78.0547 60.8848 81.5235 60.8848 81.5235ZM74.434 70.3072C74.434 70.3072 70.7054 72.5891 69.6205 76.4756C69.6205 76.4756 64.1193 72.3192 60.0341 74.9526C60.0392 74.9526 64.1651 68.0048 74.434 70.3072Z" fill="#FFCF01"/>
</svg>
