<svg width="200" height="200" viewBox="0 0 200 200" fill="none" xmlns="http://www.w3.org/2000/svg">
<g clip-path="url(#clip0_10_304131)">
<path d="M119.796 185.467L120.936 189.84C150.55 166.795 147.236 138.545 147.236 138.545C161.31 131.459 198.431 132.162 198.431 132.162L170.678 102.229C146.104 10.3407 1.95532 10.6738 1.95532 10.6738C76.0102 68.1619 14.1666 114.673 14.1666 114.673C14.1666 114.673 96.1326 102.215 119.796 185.467Z" fill="#002A54"/>
<path d="M120.544 191L119.149 185.644C107.013 142.957 79.1758 126.118 57.9581 119.508C34.9166 112.328 14.472 115.303 14.2703 115.337L11.6398 115.735L13.7633 114.136C14.0014 113.957 37.4911 95.9616 37.69 69.1226C37.8356 49.4252 25.6748 29.9378 1.54357 11.2034L0 10.0052L1.95537 9.9996C2.25512 9.9772 38.5248 10.0444 77.2905 21.3488C113.101 31.7882 158.453 54.2348 171.286 101.897L200 132.865L198.42 132.834C198.053 132.823 162.019 132.227 147.947 138.945C148.082 140.709 148.325 147.123 145.835 155.737C143.185 164.905 136.787 178.354 121.345 190.37L120.538 190.997L120.544 191ZM25.4423 113.358C33.7036 113.358 45.6151 114.262 58.3082 118.209C79.8622 124.911 108.137 141.988 120.443 185.286L121.328 188.679C135.876 177.069 141.975 164.231 144.527 155.435C147.345 145.72 146.577 138.696 146.569 138.626L146.516 138.162L146.936 137.949C159.511 131.619 189.576 131.417 196.876 131.476L170.073 102.571L170.031 102.412C157.419 55.2538 112.448 33.0116 76.9431 22.6534C43.5281 12.8999 12.0012 11.5589 3.93596 11.3742C27.378 30.0078 39.1859 49.4364 39.0346 69.1478C38.8581 92.2382 21.9097 108.895 16.3265 113.755C18.2847 113.571 21.4335 113.358 25.4423 113.358Z" fill="white"/>
<path d="M68.2644 105.461C101.377 102.051 117.409 112.79 117.409 112.79C113.241 106.998 105.445 99.9292 105.445 99.9292C105.445 99.9292 105.156 99.5653 104.568 98.9326C109.218 101.057 120.984 103.135 120.984 103.135C120.984 103.135 112.907 97.5665 105.778 89.3443C99.542 82.1523 84.0307 70.8955 84.0307 70.8955C84.0307 70.8955 108.117 74.1261 122.236 88.2721C122.236 88.2721 108.703 65.0837 92.9503 56.9846C92.9503 56.9846 103.965 57.8581 124.306 79.3612C138.54 94.7249 161.991 103.305 161.991 103.305C143.171 29.7565 19.5762 18.0098 19.5762 18.0098C19.5762 18.0098 22.9519 20.2802 27.4593 24.6838C27.4677 24.6866 27.4733 24.6894 27.4817 24.6922C30.7285 27.8641 34.5608 32.1417 38.1438 37.4888C39.9843 38.0851 41.8473 38.645 43.6766 39.1125C54.4507 41.9064 67.3652 48.6253 71.6205 54.2439C71.6205 54.2439 58.1626 48.211 43.5225 46.954C45.3994 50.9181 47.013 55.2685 48.184 60.0025C57.832 62.9308 65.4854 68.7314 65.4854 68.7314C65.4854 68.7314 58.8882 66.4582 49.6744 68.4991C49.7024 68.821 49.7052 70.5483 49.411 73.1547L49.313 73.5466C47.3856 88.5856 40.0488 98.3643 35.8271 102.877C35.3985 103.305 34.9558 103.728 34.502 104.143L34.6141 104.123C33.4935 105.22 32.7876 105.775 32.7876 105.775C32.7876 105.775 107.422 105.5 124.939 172.566L125.312 174.214C139.409 159.402 137.882 143.353 137.882 143.353C114.073 101.346 68.2616 105.461 68.2616 105.461H68.2644Z" fill="#E11A27"/>
<path d="M132.853 93.0131C132.45 93.9174 132.329 95.2219 132.357 96.269C132.45 100.085 135.887 102.814 139.706 102.719C141.919 102.669 143.832 101.563 145.062 99.9195C135.153 106.288 135.086 90.7679 132.853 93.0131Z" fill="white"/>
<path d="M162.638 106.365C162.638 106.365 169.403 114.078 183.819 126.522C183.819 126.522 169.532 125.119 145.829 130.069L147.799 109.691L162.638 106.365Z" fill="#F4B233"/>
</g>
<defs>
<clipPath id="clip0_10_304131">
<rect width="200" height="181" fill="white" transform="translate(0 10)"/>
</clipPath>
</defs>
</svg>
