<?xml version="1.0" encoding="UTF-8"?>
<svg width="200px" height="200px" viewBox="0 0 200 200" version="1.1" xmlns="http://www.w3.org/2000/svg" xmlns:xlink="http://www.w3.org/1999/xlink">
    <!-- Generator: Sketch 60.1 (88133) - https://sketch.com -->
    <title>saint-johns-mn</title>
    <desc>Created with Sketch.</desc>
    <defs>
        <polygon id="path-1" points="0.0365853659 0.523170732 199.446341 0.523170732 199.446341 98.7439024 0.0365853659 98.7439024"></polygon>
    </defs>
    <g id="saint-johns-mn" stroke="none" stroke-width="1" fill="none" fill-rule="evenodd">
        <g id="saint-johns-mn_BGD">
            <g id="Saint-John's" transform="translate(0.000000, 51.000000)">
                <g id="Group-4">
                    <mask id="mask-2" fill="white">
                        <use xlink:href="#path-1"></use>
                    </mask>
                    <g id="Clip-2"></g>
                    <path d="M194.304878,12.1835366 C188.457927,10.779878 175.357317,8.15121951 168.818293,7.0695122 L161.003659,5.8445122 L161.016463,40.6158537 L163.938415,41.1341463 C163.938415,46.1359756 163.968293,53.5140244 163.947561,60.1603659 C162.681098,59.9786585 161.343293,59.8170732 160.054268,59.6414634 C159.589634,71.7402439 160.110366,83.8390244 160.357317,95.9365854 C165.012195,96.627439 169.676829,97.3871951 173.797561,98.1719512 L176.869512,98.7573171 L179.292073,96.7804878 C183.509756,93.3402439 187.77439,89.925 191.968902,86.629878 L194.532317,84.6152439 L194.532317,47.5341463 L199.446341,48.7140244 L199.446341,13.4176829 L194.304878,12.1835366" id="Fill-1" fill="#79A5C3" mask="url(#mask-2)"></path>
                    <path d="M164.662195,60.1195122 C162.990854,59.8920732 153.512805,58.5079268 151.89878,58.2981707 C151.90061,52.6762195 151.903659,44.9030488 151.906098,39.1713415 L155.434756,39.6615854 L155.439634,4.86036585 L149.685366,4.02195122 C143.010976,3.09329268 128.431707,1.56036585 120.828659,1.24817073 L118.446951,1.15 L116.737805,1.06036585 C106.483537,0.519512195 96.0756098,0.38597561 85.8042683,0.664634146 L79.2786585,0.841463415 L79.2786585,35.5128049 L83.9621951,35.3865854 L83.9621951,46.1310976 C78.8695122,46.2932927 73.7463415,46.5646341 68.6743902,46.9262195 L68.6743902,45.3689024 L66.4731707,43.372561 C65.3969512,42.3963415 64.3158537,41.420122 63.2304878,40.445122 L69.047561,39.9329268 L69.047561,17.7621951 L66.8115854,15.7628049 C62.2689024,11.7 57.652439,7.65060976 53.0926829,3.72560976 L50.8396341,1.78658537 L47.8896341,2.15365854 C37.8707317,3.39939024 27.7719512,5.05914634 17.8762195,7.08597561 L15.4670732,7.57987805 L13.947561,9.51341463 C9.74207317,14.8658537 5.5097561,20.3384146 1.3695122,25.7786585 L0,27.5780488 L0,56.8780488 L2.74268293,58.8878049 C3.75121951,59.6262195 4.76768293,60.3743902 5.78902439,61.1304878 C5.65060976,61.1634146 5.51280488,61.1963415 5.375,61.2292683 L0.229268293,62.4615854 L0.229268293,84.5810976 L2.82926829,86.595122 C7.10304878,89.9054878 11.4512195,93.3402439 15.7530488,96.804878 L18.2060976,98.7804878 L21.2926829,98.154878 C30.7573171,96.2359756 40.4164634,94.6634146 50.0030488,93.4835366 L52.5097561,93.1743902 L54.1902439,91.2890244 C57.5969512,87.4676829 61.0707317,83.625 64.5487805,79.8280488 C67.4707317,82.8579268 70.397561,85.9237805 73.2835366,88.979878 L75.3993902,91.220122 L78.477439,91.0743902 C85.7195122,90.7304878 93.1128049,90.595122 100.44939,90.6737805 L103.231098,90.702439 L105.217073,88.754878 C109.485366,84.5689024 113.85,80.3615854 118.189024,76.2506098 L119.671341,74.8463415 L121.07439,76.3506098 C125.446341,81.0371951 129.85,85.8408537 134.164024,90.6268293 L135.870122,92.5195122 L138.402439,92.802439 C143.54939,93.5164634 150.752439,94.545122 162.337805,96.2219512 C162.090854,84.1237805 164.196951,72.2176829 164.662195,60.1195122" id="Fill-3" fill="#79A5C3" mask="url(#mask-2)"></path>
                </g>
                <path d="M167.74939,64.0195122 C164.935976,63.6353659 151.114024,61.5762195 148.544512,61.2481707 C148.545732,54.547561 148.55122,41.729878 148.554268,35.3189024 L152.085976,35.779878 L152.081098,7.76036585 L149.189634,7.35792683 C141.695122,6.3152439 127.613415,4.88292683 120.691463,4.59878049 L118.27561,4.49939024 L116.561585,4.40914634 C106.396341,3.87317073 96.0792683,3.74146341 85.8945122,4.01707317 L82.6323171,4.1054878 L82.6323171,32.0676829 L86.0756098,31.975 C86.4890244,31.9634146 86.9030488,31.9530488 87.3158537,31.9432927 L87.3158537,49.3878049 L85.375,49.4432927 C78.9439024,49.6268293 72.4481707,49.975 66.0670732,50.4792683 L65.3207317,50.5378049 L65.3207317,46.854878 L64.220122,45.8560976 C61.2670732,43.1786585 58.2731707,40.4957317 55.2847561,37.8518293 C57.7384146,37.5865854 60.1908537,37.3463415 62.6347561,37.1310976 L65.6939024,36.8615854 L65.6939024,19.2628049 L64.5756098,18.2628049 C60.0487805,14.2140244 55.4493902,10.1786585 50.904878,6.26768293 L49.7786585,5.29817073 L48.3036585,5.48170732 C38.3707317,6.71707317 28.3597561,8.36219512 18.5487805,10.3719512 L17.3445122,10.6182927 L16.5847561,11.5853659 C12.3902439,16.9243902 8.16829268,22.3829268 4.03841463,27.8091463 L3.35365854,28.7091463 L3.35365854,55.177439 L4.725,56.1823171 C7.64329268,58.320122 10.6317073,60.5414634 13.6085366,62.7847561 C11.1134146,63.3304878 8.62682927,63.8993902 6.1554878,64.4908537 L3.58292683,65.1073171 L3.58292683,82.9365854 L4.88292683,83.9432927 C9.17256098,87.2670732 13.5378049,90.7152439 17.8560976,94.1932927 L19.0829268,95.1810976 L20.6262195,94.8676829 C30.1756098,92.9317073 39.9213415,91.3457317 49.5932927,90.154878 L50.8463415,90.0006098 L51.6871951,89.0579268 C55.8731707,84.3609756 60.1615854,79.6292683 64.4329268,74.9939024 L64.4835366,74.9390244 C68.2335366,78.8036585 72.0103659,82.747561 75.7219512,86.6768293 L76.779878,87.797561 L78.3189024,87.7243902 C85.6256098,87.377439 93.0841463,87.2420732 100.484756,87.320122 L101.87561,87.3347561 L102.868293,86.3603659 C107.15122,82.1609756 111.529268,77.9402439 115.882927,73.8158537 L117.82561,72.0987805 L117.82561,32.6737805 L120.359756,32.8073171 C121.09878,32.8536585 120.835976,32.8457317 121.617073,32.902439 C121.620122,38.8871951 121.598171,71.7939024 121.598171,71.7939024 L123.52622,74.0628049 C127.911585,78.7634146 132.328659,83.5810976 136.654878,88.3817073 L137.508537,89.3280488 L138.785976,89.4768293 C143.816463,90.2006098 154.792073,91.877439 161.537195,92.8682927 C161.302439,83.0268293 167.512805,73.8603659 167.74939,64.0195122" id="Fill-5" fill="#FFFFFE"></path>
                <path d="M193.255488,15.9396341 C187.465854,14.5493902 174.485976,11.9457317 168.004268,10.8731707 L164.103049,10.2280488 L164.106707,37.6945122 L167.063415,38.2091463 C167.053659,43.4780488 167.063415,55.0823171 167.063415,63.8670732 C164.75122,63.5365854 162.235976,63.1426829 159.682317,62.8 C159.445732,72.6408537 158.787195,82.6841463 159.021951,92.5256098 C164.929268,93.4402439 176.336585,95.1932927 176.336585,95.1932927 L176.905488,94.677439 C181.139024,91.2237805 185.420122,87.7957317 189.629878,84.4878049 L190.912195,83.4810976 L190.912195,43.7768293 C191.171341,43.8384146 191.430488,43.9006098 191.689634,43.9628049 L195.82561,44.9554878 L195.82561,16.5567073 L193.255488,15.9396341" id="Fill-6" fill="#FFFFFE"></path>
                <path d="M6.70731707,53.477439 C6.70731707,45.5981707 6.70731707,37.7195122 6.70731707,29.8402439 C10.8670732,24.375 15.0390244,18.9804878 19.2219512,13.6567073 C29.002439,11.6536585 38.8420732,10.0378049 48.7176829,8.80914634 C53.2518293,12.7121951 57.7932927,16.6963415 62.3402439,20.7628049 C62.3402439,25.104878 62.3402439,29.447561 62.3402439,33.7902439 C54.1182927,34.5146341 45.9140244,35.5060976 37.7396341,36.7646341 C37.7396341,35.5243902 37.7396341,34.2835366 37.7396341,33.0426829 C35.1390244,33.4432927 32.5414634,33.8707317 29.947561,34.325 C29.947561,36.4963415 29.947561,38.6676829 29.947561,40.8384146 C36.679878,39.6591463 43.4353659,38.6615854 50.2079268,37.8463415 C54.122561,41.2835366 58.0426829,44.7817073 61.9670732,48.3408537 C61.9670732,56.4670732 61.9670732,64.5945122 61.9670732,72.7213415 C57.7006098,77.3512195 53.4384146,82.052439 49.1829268,86.8262195 C39.3993902,88.0317073 29.6512195,89.6158537 19.9603659,91.5817073 C15.6067073,88.075 11.2646341,84.645122 6.93658537,81.2926829 C6.93658537,76.7786585 6.93658537,72.2658537 6.93658537,67.752439 C14.1402439,66.0280488 21.3810976,64.5152439 28.6506098,63.2158537 C28.6506098,65.1396341 28.6506098,67.0628049 28.6506098,68.9859756 C31.6756098,68.4445122 34.7054878,67.9408537 37.7396341,67.4737805 C37.7396341,63.6902439 37.7396341,59.904878 37.7396341,56.120122 C30.3713415,57.2554878 23.0268293,58.6073171 15.7176829,60.1756098 C12.7085366,57.9060976 9.70426829,55.6731707 6.70731707,53.477439" id="Fill-7" fill="#AF2534"></path>
                <path d="M85.9859756,7.3695122 L85.9859756,28.622561 C87.3012195,28.5871951 88.6164634,28.5579268 89.9317073,28.5359756 L90.670122,28.5237805 L90.670122,64.4073171 L89.9560976,64.4195122 C88.7091463,64.4396341 87.4621951,64.4670732 86.2152439,64.5006098 L85.470122,64.520122 L85.470122,52.795122 C79.1036585,52.9768293 72.6719512,53.3219512 66.3310976,53.822561 L66.3310976,72.0256098 C70.2542683,76.0640244 74.2310976,80.2152439 78.1597561,84.3737805 C85.577439,84.0219512 93.1,83.8878049 100.520732,83.9664634 C104.830488,79.7396341 109.220732,75.5079268 113.576829,71.3817073 L113.576829,29.0579268 L114.336585,29.0932927 C115.019512,29.1256098 117.123171,29.2268293 117.806098,29.2634146 L117.806098,7.80731707 C107.722561,7.27560976 96.0823171,7.09573171 85.9859756,7.3695122" id="Fill-8" fill="#AF2534"></path>
                <path d="M156.678049,65.9439024 C156.672561,66.1847561 156.707317,66.2286585 156.582927,65.925 C156.496341,73.6158537 155.827439,80.7353659 156.253659,88.3414634 C156.50122,88.377439 156.74939,88.4128049 156.996951,88.4481707 C156.803049,80.8664634 156.591463,73.5256098 156.678049,65.9439024" id="Fill-9" fill="#AF2534"></path>
                <path d="M167.72378,13.6865854 L167.72378,34.9890244 L170.728049,35.5195122 C170.728049,35.5195122 170.592073,56.5835366 170.592073,68.0243902 C167.543902,67.4786585 163.728659,66.9164634 159.885366,66.3884146 C159.79878,73.970122 160.004268,81.552439 160.198171,89.1341463 C165.539024,89.9463415 170.639634,90.7426829 175.052439,91.5835366 C179.321341,88.1006098 183.579268,84.6914634 187.825,81.354878 L187.825,39.0603659 C189.465244,39.4317073 191.102439,39.8134146 192.739634,40.2060976 L192.739634,18.7054878 C187.237805,17.3847561 174.263415,14.7682927 167.72378,13.6865854" id="Fill-10" fill="#AF2534"></path>
                <path d="M171.312195,68.0018293 C159.015244,66.020122 148.44939,64.6164634 145.190854,64.2012195 C145.190854,57.8719512 145.203049,31.4664634 145.203049,31.4664634 L148.727439,31.9573171 L148.727439,10.6792683 C141.735976,9.70670732 128.586585,8.2847561 121.598171,7.99817073 C121.598171,15.5664634 121.617073,21.9609756 121.617073,29.529878 C123.446341,29.7012195 124.208537,29.7585366 125.926829,29.970122 C125.926829,43.9908537 125.978659,57.754878 125.978659,71.7756098 C130.373171,76.4859756 134.763415,81.2731707 139.146951,86.1365854 C144.217073,86.7030488 162.083537,89.375 168.613415,90.4036585 C168.186585,82.797561 171.22561,75.6926829 171.312195,68.0018293" id="Fill-11" fill="#AF2534"></path>
            </g>
        </g>
    </g>
</svg>