<svg width="200" height="200" viewBox="0 0 200 200" fill="none" xmlns="http://www.w3.org/2000/svg">
<path d="M36.614 30.6973V87.9293C36.614 89.074 37.4465 116.858 39.2155 126.327C41.0885 136.629 44.9387 151.301 52.9512 162.747C61.1718 174.402 78.5495 190.219 96.0313 198.023C96.8638 198.335 99.5693 199.376 101.234 199.688C102.483 199.896 103.107 200 103.523 200C104.46 200 105.397 199.792 106.437 199.48L106.957 199.376C108.414 198.96 110.495 198.231 111.12 197.919C128.497 190.219 145.979 174.402 154.096 162.747C162.108 151.301 166.063 136.629 167.832 126.327C169.496 116.858 170.433 88.2415 170.433 87.9293V30.6973H36.614Z" fill="#CFD4D8"/>
<path d="M107.998 100.625C105.084 101.769 101.858 101.665 98.9448 100.416C95.6149 98.9596 93.4297 96.2541 92.077 93.0283C91.0364 92.4039 89.9958 91.8836 88.8511 91.2593C81.0468 86.6807 74.387 81.8941 68.7679 77.3155C68.7679 77.3155 68.6638 77.3155 68.6638 77.2114C68.2476 81.79 68.0395 88.866 70.2247 97.0866C72.0978 104.579 75.2195 110.302 77.6129 113.944C75.4276 112.071 73.0343 109.99 70.745 107.596C69.2882 106.14 67.9354 104.683 66.6867 103.226C66.2705 111.134 67.207 125.599 76.3642 139.75C82.2955 148.804 89.6836 154.839 95.9271 158.585C97.488 159.522 99.0489 160.354 100.402 161.082C100.922 160.25 101.546 159.417 102.067 158.585C104.252 155.359 106.749 152.237 109.351 149.428C113.409 145.057 117.883 141.207 122.67 137.877L116.843 136.421L117.363 135.9C121.109 132.154 125.376 129.032 130.058 126.743C132.868 125.286 135.885 124.142 138.903 123.205C137.446 122.789 136.094 122.269 134.637 121.852C122.15 117.274 113.409 109.886 109.351 106.036C112.368 105.515 115.282 104.995 118.3 104.475C115.178 103.33 111.64 102.081 107.998 100.625Z" fill="white"/>
<path d="M163.149 42.0395V39.7502H160.86C151.182 39.5421 141.401 39.4381 131.723 39.334C122.046 39.2299 112.265 39.1259 102.587 39.0218C92.9097 39.0218 83.1282 38.9178 73.4508 39.0218C63.7733 39.0218 53.9919 39.1259 44.3145 39.334C53.9919 39.9584 63.6693 40.5827 73.4508 40.9989C83.1282 41.5192 92.8056 41.9355 102.587 42.3517C112.265 42.7679 121.942 43.1842 131.723 43.4963C140.672 43.8085 149.621 44.1207 158.57 44.3288C158.57 57.0239 158.466 69.719 158.57 82.3101C158.57 85.6399 158.57 89.0739 158.57 92.2997L158.154 102.393C157.842 109.053 157.634 115.817 156.906 122.373C156.801 123.205 156.697 123.933 156.593 124.766L156.177 127.159C155.865 128.824 155.553 130.385 155.241 132.05C154.512 135.276 153.68 138.502 152.743 141.623C150.766 147.971 148.269 154.006 144.419 159.417C140.672 164.932 136.822 170.343 132.14 175.13C127.457 179.813 122.046 183.871 116.011 186.889C122.254 184.495 128.185 180.957 133.284 176.379C135.886 174.089 138.279 171.696 140.464 169.095C142.65 166.493 144.731 163.788 146.812 161.082C147.852 159.729 148.893 158.273 149.725 156.816C150.142 156.087 150.662 155.359 151.078 154.527C151.494 153.798 151.911 152.966 152.327 152.237C153.888 149.115 155.137 145.994 156.281 142.664C157.426 139.438 158.362 136.108 159.195 132.778C159.611 131.113 160.027 129.448 160.339 127.784L160.86 125.286C160.964 124.454 161.172 123.517 161.276 122.685C162.108 115.817 162.525 109.157 162.941 102.393C163.149 99.0635 163.253 95.6295 163.357 92.2997C163.461 88.8657 163.357 85.5359 163.461 82.206C163.253 68.9906 163.253 55.5671 163.149 42.0395Z" fill="white"/>
<path d="M161.172 117.69C156.593 116.753 151.182 115.192 145.459 112.903C139.528 110.51 134.429 107.804 130.266 105.203C132.035 105.411 134.949 105.515 138.279 104.682C142.025 103.642 144.73 101.769 146.291 100.416C148.372 102.393 150.662 104.578 152.951 107.18C156.281 110.822 158.986 114.36 161.172 117.69Z" fill="#FFCD00"/>
<path d="M152.327 92.6121C152.951 93.5486 153.055 94.4851 153.159 95.0054C152.847 94.7973 152.431 94.4851 151.911 94.3811C151.286 94.173 150.87 94.173 150.454 94.173C150.558 93.7567 150.662 93.2364 150.766 92.7161C150.87 92.1959 150.974 91.6756 150.974 91.1553C151.39 91.3634 151.911 91.8837 152.327 92.6121Z" fill="white"/>
<path d="M103.211 87.0966C101.755 87.9291 100.09 88.0332 98.8409 87.2007C97.0719 85.952 96.3435 83.1424 97.3841 80.645C98.1125 81.6856 99.049 82.7262 99.9855 83.8708C101.13 85.0155 102.275 86.1601 103.211 87.0966Z" fill="white"/>
<path d="M68.2477 76.8994C65.5422 74.6101 63.1488 72.4249 60.9636 70.4478" stroke="black" stroke-width="0.8241" stroke-miterlimit="10"/>
<path d="M130.058 126.639C132.868 125.182 135.886 124.037 138.903 123.101C137.446 122.685 136.094 122.164 134.637 121.748C131.515 122.997 127.977 124.766 124.335 127.159C117.988 131.321 114.033 135.38 110.807 139.23C112.368 139.646 113.825 139.958 115.386 140.374C112.056 142.248 107.79 145.161 103.523 149.323C101.13 151.717 99.0489 154.006 97.488 156.191C99.0489 157.128 100.506 157.96 101.963 158.585C101.338 159.417 100.818 160.25 100.298 161.082C102.899 156.92 105.917 152.966 109.351 149.323C113.409 144.953 117.883 141.103 122.67 137.773L116.843 136.316L117.363 135.796C121.109 132.154 125.376 129.032 130.058 126.639Z" fill="#CFD4D8"/>
<path d="M97.488 156.192C96.1353 155.359 94.6785 154.319 93.2216 153.278C86.1457 147.659 82.3996 141.207 80.7347 137.669C84.0645 137.877 87.3944 138.19 90.6202 138.398C87.7066 137.253 81.4631 134.131 76.4683 127.368C73.0343 122.685 71.6816 118.002 71.1613 115.193C73.4506 117.378 77.6129 120.708 83.5442 122.789C87.8106 124.35 91.6608 124.766 94.4704 124.87C86.8741 119.563 77.0926 110.822 72.3059 97.6069C69.4964 89.6984 69.0801 81.8941 68.6639 77.3155C68.6639 77.3155 68.5598 77.3155 68.5598 77.2114C68.1436 81.79 67.9355 88.866 70.1207 97.0866C71.9938 104.579 75.1155 110.302 77.5088 113.944C75.3236 112.071 72.9303 109.99 70.641 107.596C69.1842 106.14 67.8314 104.683 66.5827 103.226C66.1665 111.134 67.103 125.599 76.2601 139.75C82.1915 148.804 89.5796 154.839 95.8231 158.585C97.384 159.522 98.9449 160.354 100.298 161.082C100.818 160.25 101.442 159.417 101.963 158.585C100.61 157.857 99.0489 157.128 97.488 156.192Z" fill="#002D62"/>
<path d="M142.337 75.6506C142.649 76.6912 142.858 77.7318 143.17 78.7723C143.586 80.5413 143.794 82.2063 143.898 83.559C143.066 79.5008 140.88 71.5923 134.221 65.0366C132.244 63.0595 130.162 61.6027 128.393 60.4581C128.81 61.9149 129.226 63.3717 129.642 64.8285C127.561 63.0595 124.855 60.9784 121.526 59.1053C117.675 57.0242 114.137 55.7755 111.328 54.943C111.432 55.9836 111.64 57.0242 111.744 58.0647C108.935 56.3998 104.148 54.0065 97.6962 52.1334C86.0417 48.9076 80.0063 50.9888 70.0167 47.2427C69.2883 46.9305 68.3518 46.6183 67.4153 46.2021C66.6869 45.8899 65.8544 45.4737 65.126 45.0575C64.7098 44.8493 64.3976 44.6412 63.9814 44.4331C61.9002 43.2885 59.6109 41.7276 57.2176 39.7505C57.2176 39.7505 57.2176 39.7505 57.1135 39.7505C58.3622 41.8317 59.715 43.8088 61.1718 45.5778C64.1895 49.2198 67.7275 52.4456 71.5776 54.943L74.3872 56.712L62.5246 52.8618C65.4382 56.9201 68.664 60.8743 71.9939 64.6204C74.075 66.9097 76.1562 69.199 78.2374 71.2801C79.7982 64.7245 82.1916 60.8743 85.3133 59.8337C90.1 58.2729 94.7826 63.3717 100.818 69.8233C108.206 77.7318 117.363 87.6173 130.787 90.635C136.51 91.8837 140.464 91.3634 142.337 89.0741C144.731 86.3686 144.002 80.8535 142.337 75.6506Z" fill="#002D62"/>
<path d="M65.022 45.2654C65.8545 45.6816 66.5829 46.0979 67.3113 46.4101C68.2478 46.8263 69.1843 47.2425 69.9127 47.4506C79.7983 51.1967 85.9377 49.0115 97.5922 52.3414C104.044 54.1104 108.831 56.6078 111.64 58.2727C111.536 57.2321 111.328 56.1915 111.224 55.151C114.033 55.8794 117.571 57.2321 121.422 59.3133C124.856 61.1863 127.561 63.2675 129.538 65.0365C129.122 63.5797 128.706 62.1229 128.289 60.666C130.162 61.8107 132.14 63.2675 134.117 65.2446C140.776 71.8003 143.066 79.7087 143.794 83.767C143.69 82.3102 143.378 80.7493 143.066 78.9803C142.858 77.9397 142.649 76.8991 142.233 75.8585C141.817 74.6098 141.401 73.4652 140.88 72.3206C136.51 62.2269 127.145 55.3591 113.201 51.717C108.935 50.5724 104.98 50.0521 102.067 49.5318L100.922 49.3237C100.714 49.3237 100.506 49.2196 100.298 49.2196H100.09C97.6963 48.8034 95.407 48.5953 93.3259 48.3872C91.765 48.2831 90.2041 48.2831 88.3311 48.075C86.9783 47.9709 85.8337 47.7628 84.689 47.5547C82.3997 47.3466 80.0064 46.9303 77.3009 46.4101L77.4049 45.9938H77.3009L77.1968 46.4101C74.5954 45.8898 71.8899 45.1614 68.8722 44.3289C64.8139 43.0802 60.8597 41.6234 57.0095 40.0625C59.4029 42.0396 61.6921 43.6005 63.7733 44.7451C64.2936 44.8492 64.7098 45.0573 65.022 45.2654Z" fill="white"/>
<path d="M151.078 94.173C151.286 94.173 151.598 94.277 151.91 94.3811C152.431 94.5892 152.951 94.7973 153.159 95.0054C153.055 94.4851 152.951 93.5486 152.327 92.6121C151.91 91.8837 151.39 91.4674 150.974 91.1553C150.87 91.6756 150.766 92.1959 150.766 92.7161C150.766 92.9243 150.662 93.2364 150.558 93.4446C150.766 93.6527 150.974 93.8608 151.078 94.173Z" fill="white"/>
<path d="M172.514 122.685C169.809 116.649 166.375 111.03 162.421 105.931C161.276 104.475 160.131 103.018 158.883 101.665C159.403 99.6879 159.611 96.9824 158.883 93.9647C157.946 90.4267 155.969 88.0334 154.304 86.5766C155.449 79.0844 154.512 72.4247 151.703 66.7015C142.962 49.2197 117.571 43.8086 93.0137 38.6057C90.4122 38.0854 87.9148 37.5651 85.6255 37.1489C74.6994 35.0677 66.791 33.5069 59.9231 26.639C56.3851 23.101 53.3675 18.6265 51.1822 13.4236L46.8118 3.53809L44.1063 13.9439C42.0251 22.1645 39.5277 38.3976 46.6037 55.255C48.8929 60.7701 52.1188 65.869 55.9689 70.3435C52.0147 74.818 48.7889 79.8128 46.4996 85.1198C36.406 108.013 44.3144 130.489 48.2686 139.022L57.5298 159.521L55.1364 137.253C55.1364 136.941 55.0324 136.629 55.0324 136.316C56.9054 145.161 60.8596 155.463 68.664 165.245C79.5901 179.084 93.0137 185.536 102.379 188.658L106.541 190.011L107.166 185.64C108.622 174.818 113.097 159.001 126 145.057C132.14 138.398 139.32 132.987 147.54 129.032C150.558 129.24 153.68 129.24 156.697 129.136C161.068 129.032 165.438 128.512 169.705 127.888L174.387 127.055L172.514 122.685ZM156.697 125.911C156.177 125.911 154.72 125.911 152.847 125.911C150.974 125.911 149.101 125.807 146.916 125.703C144.002 127.055 141.193 128.616 138.591 130.281C135.053 132.57 131.619 135.068 128.602 137.877C124.647 141.519 121.213 145.37 118.404 149.324C108.831 162.747 105.293 176.899 104.044 185.224L103.94 185.744L103.419 185.536C96.1354 183.143 82.1916 177.107 71.2655 163.163C58.6744 147.243 56.5933 130.177 56.6973 120.604C55.1364 122.685 53.9918 124.974 53.1593 127.367C52.1188 130.593 51.7025 134.027 52.1188 137.357L52.4309 139.958L51.3903 137.565C47.6442 129.345 40.048 107.909 49.6214 86.2644C52.2228 80.3331 55.9689 74.9221 60.5475 70.1354C55.9689 65.4528 52.3269 59.9377 49.7254 53.7982C42.9616 37.7733 45.355 22.3726 47.3321 14.5683L47.6442 13.3196L48.1645 14.4642C50.5579 20.0834 53.7837 24.87 57.6338 28.7202C66.1666 37.1489 75.5319 38.7098 86.458 40.4788C88.331 40.7909 90.3081 41.1031 92.3893 41.5194C99.2571 42.7681 107.166 44.2249 114.554 46.0979C133.284 50.9887 144.21 57.8565 148.893 67.8461C151.39 73.2571 152.119 79.9169 150.87 87.6172C152.015 88.3456 154.824 90.4267 155.865 94.5891C156.697 97.9189 155.969 100.729 155.345 102.289C156.905 104.058 158.466 105.827 159.923 107.7C163.669 112.591 166.999 118.002 169.601 123.829C167.103 124.662 161.484 125.807 156.697 125.911Z" fill="white"/>
<path d="M91.0364 81.0616C91.4526 79.3966 92.4932 75.5465 95.0946 74.5059C96.3433 73.9856 97.8001 74.1937 99.4651 74.9221C96.3433 72.0085 93.3256 69.8233 90.412 68.3664C87.0821 66.7015 84.8969 66.3893 83.7523 67.4299C82.5036 68.4705 82.3995 70.7598 82.3995 72.7369C82.3995 73.5694 82.2955 74.4018 82.1914 75.1302C84.8969 77.6276 87.9146 80.125 90.9323 82.5184C90.8282 81.9981 90.9323 81.4778 91.0364 81.0616Z" fill="white"/>
<path d="M98.841 87.0967C100.09 87.9291 101.755 87.9292 103.211 86.9926C102.171 86.0561 101.13 85.0155 100.09 83.7668C99.1531 82.6222 98.2166 81.5816 97.4882 80.541C96.3436 83.1425 97.072 85.952 98.841 87.0967Z" fill="white"/>
<path d="M159.819 107.908C158.362 106.035 156.801 104.162 155.24 102.497C155.865 100.936 156.593 98.1267 155.761 94.7969C154.72 90.7386 151.911 88.5534 150.766 87.825C151.911 80.1246 151.286 73.4649 148.789 68.0539C144.106 58.0643 133.18 51.1964 114.45 46.3057C106.957 44.3286 99.1531 42.9758 92.2852 41.7271C90.3081 41.3109 88.331 40.9987 86.3539 40.6866C75.4278 38.9176 66.0625 37.3567 57.5298 28.928C53.6796 25.0778 50.4538 20.2911 48.0605 14.672L47.5402 13.5273L47.228 14.776C45.2509 22.5804 42.8575 38.0851 49.6213 54.006C52.2228 60.1455 55.8648 65.6605 60.4434 70.3432C55.8648 75.1298 52.1187 80.5409 49.5173 86.4722C39.9439 108.116 47.5402 129.552 51.2863 137.773L52.3268 140.166L52.0147 137.565C51.7025 134.131 52.0147 130.801 53.0552 127.575C53.8877 125.078 55.0324 122.789 56.5932 120.811C56.5932 130.385 58.6744 147.45 71.1614 163.371C82.1916 177.107 96.1354 183.142 103.419 185.536L103.94 185.744L104.044 185.224C105.293 176.899 108.83 162.747 118.404 149.427C121.213 145.473 124.543 141.623 128.602 137.981C131.723 135.171 135.053 132.57 138.591 130.385C141.297 128.72 144.002 127.159 146.916 125.806C148.997 125.91 150.974 126.014 152.847 126.014C154.72 126.014 156.177 126.014 156.697 126.014C161.588 125.91 167.103 124.766 169.601 124.141C166.895 118.314 163.669 112.903 159.819 107.908ZM150.662 93.4441C150.766 93.236 150.766 92.9238 150.87 92.7157C150.974 92.1954 151.078 91.6751 151.078 91.1548C151.39 91.3629 151.911 91.8832 152.431 92.6116C153.055 93.5482 153.159 94.4847 153.263 95.005C152.951 94.7969 152.535 94.4847 152.015 94.3806C151.702 94.2766 151.39 94.2766 151.182 94.1725C150.974 94.1725 150.766 94.1725 150.558 94.1725C150.558 93.8603 150.558 93.6522 150.662 93.4441ZM71.5776 55.0466C67.6234 52.5492 64.0854 49.4275 61.1718 45.6814C59.715 43.8083 58.2582 41.9353 57.1135 39.8541C57.1135 39.8541 57.1135 39.8541 57.2176 39.8541C61.0677 41.519 65.022 42.9758 69.0802 44.1205C71.9939 44.9529 74.6994 45.6814 77.4049 46.2016L77.5089 45.7854H77.613L77.5089 46.2016C80.2145 46.7219 82.6078 47.0341 84.8971 47.3463C86.6661 47.5544 88.4351 47.6585 90.1 47.8666C91.2446 47.9706 92.3893 48.0747 93.5339 48.1787C95.6151 48.3869 97.9044 48.595 100.298 49.0112H100.506C100.714 49.0112 100.922 49.1153 101.13 49.1153L102.275 49.3234C105.188 49.7396 109.143 50.364 113.409 51.5086C127.457 55.1507 136.718 62.0185 141.089 72.1122C141.609 73.2568 142.025 74.4014 142.441 75.6501C144.106 80.749 144.835 86.2641 142.441 89.1777C140.568 91.467 136.614 91.9873 130.891 90.7386C117.467 87.7209 108.31 77.8354 100.922 69.9269C94.8867 63.4753 90.1 58.3765 85.3133 59.9373C82.1916 60.9779 79.7982 64.8281 78.2374 71.3837C76.1562 69.3026 73.971 67.1174 71.9939 64.724C68.664 60.9779 65.5422 57.0237 62.5245 52.9654L74.3872 56.8156L71.5776 55.0466ZM134.741 121.748C136.094 122.268 137.551 122.684 139.007 123.101C135.886 124.037 132.972 125.182 130.162 126.639C125.48 129.032 121.213 132.154 117.467 135.796L116.947 136.316L122.774 137.773C117.988 141.103 113.513 144.953 109.455 149.323C106.749 152.237 104.356 155.255 102.171 158.481C101.546 159.313 101.026 160.145 100.506 160.978C99.1531 160.25 97.5922 159.417 96.0313 158.481C89.7878 154.63 82.3997 148.699 76.4684 139.646C67.3112 125.494 66.3747 111.134 66.7909 103.122C68.0396 104.578 69.3924 106.035 70.8492 107.492C73.1385 109.885 75.5318 111.966 77.7171 113.84C75.3237 110.093 72.306 104.474 70.3289 96.9821C68.2478 88.7615 68.3518 81.6855 68.768 77.1069C68.768 77.1069 68.8721 77.1069 68.8721 77.211C74.3872 81.7896 81.0469 86.5763 88.9554 91.1548C89.9959 91.7792 91.1406 92.4035 92.1812 92.9238C93.5339 96.1496 95.8232 98.8551 99.049 100.312C101.963 101.561 105.188 101.665 108.102 100.52C111.744 101.977 115.282 103.226 118.508 104.266C115.49 104.786 112.577 105.307 109.559 105.827C113.513 109.781 122.254 117.169 134.741 121.748ZM82.0875 75.1298C82.1916 74.5055 82.2956 73.673 82.2956 72.7365C82.3997 70.7594 82.5037 68.4701 83.6484 67.4295C84.793 66.389 86.9782 66.7011 90.3081 68.3661C93.2217 69.8229 96.2394 72.0081 99.3612 74.9217C97.6962 74.0893 96.2394 73.9852 94.9907 74.5055C92.3893 75.5461 91.4528 79.3962 90.9325 81.0612C90.8284 81.4774 90.7243 81.9977 90.6203 82.518C87.7067 80.1246 84.793 77.6272 82.0875 75.1298ZM97.4881 80.6449C98.2165 81.6855 99.1531 82.7261 100.09 83.8707C101.13 85.1194 102.275 86.16 103.211 87.0965C101.755 87.929 100.09 88.0331 98.8409 87.2006C97.0719 85.9519 96.3435 83.1423 97.4881 80.6449ZM145.459 112.903C140.36 110.822 135.886 108.533 132.14 106.347C131.515 105.931 130.891 105.619 130.371 105.203C130.787 105.307 131.307 105.307 131.931 105.307C133.7 105.411 135.886 105.307 138.383 104.578C142.129 103.538 144.835 101.665 146.396 100.312C148.477 102.289 150.766 104.474 153.055 107.076C156.281 110.718 159.091 114.36 161.276 117.586C156.593 116.753 151.286 115.192 145.459 112.903Z" fill="black"/>
</svg>
