<svg width="200" height="200" viewBox="0 0 200 200" fill="none" xmlns="http://www.w3.org/2000/svg">
<path d="M101.037 104.373C104.528 104.864 110.202 103.827 110.202 103.827C112.33 103.991 117.076 108.465 117.076 108.465C117.076 108.465 123.404 108.792 123.786 108.901C122.859 109.338 122.313 110.047 121.768 110.92C120.458 113.156 120.24 116.321 120.295 118.667H99.9455C100.6 117.957 101.528 116.975 101.8 116.757L103.055 115.775L102.891 114.575C102.837 114.138 102.837 113.647 102.837 113.32C102.837 112.938 102.837 112.611 102.728 112.338L102.564 111.793L102.128 111.52C101.037 110.811 97.7632 108.683 95.7447 107.101C97.054 106.337 99.018 105.3 101.037 104.373ZM61.7567 118.612L62.084 118.121C62.575 117.357 63.1206 116.484 63.6661 115.721C63.8298 115.721 64.048 115.721 64.2117 115.721C69.5581 115.721 73.3224 112.884 73.8134 110.265C74.0316 108.956 74.5226 107.865 75.1228 106.937C77.796 109.938 81.724 111.902 83.4152 112.72C82.706 113.047 81.8876 113.538 81.2875 113.975C79.2144 114.739 77.796 116.593 77.0867 118.557L61.7567 118.612ZM56.3011 66.1842L55.4828 65.0386C54.7736 64.0566 54.4463 62.9655 54.5008 62.5836C54.5554 62.529 54.719 62.529 54.9373 62.4745C55.1009 62.4745 55.2646 62.4199 55.4283 62.4199C55.9193 62.3654 56.3011 62.3654 56.5194 62.3654C56.5739 62.4199 56.6285 62.4199 56.683 62.4745C57.0649 62.8564 57.3923 63.511 56.3011 66.1842ZM189.798 138.47C190.507 137.815 199.127 129.85 199.127 129.85H192.417L192.799 127.45L200 118.83H184.124L157.065 118.776C156.465 116.43 155.101 113.266 152.1 110.374C153.082 110.538 154.064 110.647 154.992 110.647C166.83 110.592 172.122 98.8629 173.213 92.6436L173.868 89.2066L170.649 90.6796C170.595 90.6796 166.558 92.5345 163.011 92.5345C162.466 92.5345 161.975 92.4254 161.211 92.2617C160.284 92.0435 159.083 91.7707 157.665 91.7707C157.174 91.7707 156.738 91.8253 156.247 91.8798C153.792 92.2072 151.5 93.4619 149.918 95.3714C148.445 94.1166 146.918 92.4254 145.445 90.4614C145.663 90.3523 145.881 90.2977 146.099 90.2432C147.627 90.625 149.154 90.7887 150.791 90.7342C154.719 90.6796 157.883 89.3703 159.302 88.7702C161.538 89.4248 163.339 89.5339 164.921 89.4794H165.412C168.031 89.4248 170.322 88.9338 171.849 88.1155L173.541 87.1881C174.959 87.5699 176.378 87.7336 177.851 87.6791H177.96C185.652 87.5154 191.817 83.5874 194.817 81.2415L194.926 81.187L198.691 78.5138L194.108 77.9136C189.853 77.3135 184.506 74.7494 179.269 71.4216C183.852 69.8395 187.398 67.3299 189.416 65.6932L189.525 65.6387L195.035 61.6562L188.271 62.3654C186.47 62.529 184.779 62.6381 183.142 62.6381C174.086 62.6381 168.412 59.6922 162.411 56.528C160.829 55.7096 159.247 54.8367 157.501 54.073C156.683 53.6911 155.865 53.3092 155.046 52.9273C146.045 46.1624 135.57 39.2884 123.35 33.7784C117.458 31.1051 110.147 29.8504 101.691 30.014C92.7441 30.1777 87.0704 31.5961 85.3792 31.978C83.0333 32.5236 81.724 33.6147 81.0147 34.9786C77.9596 35.3605 76.4866 35.6878 73.5952 36.397C72.3404 36.7243 71.3584 37.4881 70.7583 38.6338C70.7038 38.7975 70.5947 38.9066 70.5401 39.0702C68.0851 38.9066 65.1391 38.9066 63.066 39.0157C62.6841 39.0702 62.2477 39.0702 61.8658 39.1248C56.7921 39.7249 51.773 42.3435 49.4272 45.3441C47.6814 45.9988 45.7174 47.4172 45.3355 50.3086C45.0627 50.4177 44.7354 50.5269 44.4626 50.6905C40.6438 52.5454 38.6798 55.546 39.0071 58.9284C39.88 67.6572 52.9187 68.6392 53.0824 68.6392L55.1555 68.7483C55.0464 68.912 54.9918 69.1302 54.8827 69.2939L53.1915 71.5307C50.6819 71.0942 47.8451 71.0397 44.7354 71.4216C43.9716 71.5307 43.2624 71.5852 42.4986 71.7489C40.2073 70.6578 37.425 70.1668 34.8609 70.4396C32.9514 70.6578 31.1511 71.3125 29.6781 72.2944C29.1871 72.2399 28.6961 72.2399 28.2051 72.2944C28.096 72.2944 27.9869 72.349 27.8778 72.349C24.5499 72.8946 22.0949 74.8586 21.0584 77.8045C19.1489 79.8231 18.2761 82.0599 19.9127 86.2606L21.4403 90.1886L24.1135 89.5339L28.2597 92.8618L26.8958 88.8793C27.3868 88.7702 27.8778 88.6611 28.4233 88.5519C28.5325 88.6065 28.6416 88.7156 28.7507 88.7702L32.8423 91.4979L31.4784 87.9518C32.2968 87.7882 33.1697 87.6791 34.0426 87.5154C34.2608 87.6791 34.479 87.8973 34.6972 88.0609L38.407 90.9524L37.3704 87.1335C37.4795 87.1335 37.6432 87.1335 37.7523 87.079C40.4801 86.8607 44.4081 88.4974 44.5717 88.4428L45.6628 88.5519L47.7905 87.079L49.3726 87.2426C50.2455 87.3517 52.6459 88.4974 54.9373 89.5885C56.192 90.1886 57.665 90.8978 59.3017 91.6616C57.7741 91.2252 56.3557 91.0615 54.9918 91.0615C54.1189 91.0615 53.246 91.1706 52.4277 91.3343C50.7911 91.6616 49.2635 92.8073 48.1178 94.553C45.4992 95.6441 44.1353 97.99 43.6989 99.4085L42.7714 102.409L45.7174 101.372C45.7174 101.372 46.3175 101.154 47.0813 101.154C47.2995 101.7 47.6268 102.136 48.0087 102.573C47.8451 103.173 47.7905 103.718 47.8451 104.318C47.9542 105.682 48.5543 107.046 49.4817 108.246C49.5908 109.447 49.8091 110.374 49.8636 110.592L50.8456 114.138L53.0278 111.138C53.0278 111.083 53.0824 111.083 53.0824 111.029C53.8462 111.356 54.6645 111.52 55.4828 111.574C56.1375 112.775 57.0649 113.757 58.2106 114.411C58.3742 115.775 58.8107 117.084 59.4654 118.121L59.7927 118.667H53.3552L53.4097 119.267C52.4823 118.885 51.4457 118.667 50.3546 118.667H35.952L38.6252 115.23H28.4233L18.7125 115.12C15.1664 115.12 12.3841 117.575 11.784 121.231L10.0382 131.596C9.60175 134.16 10.2019 136.506 11.7294 138.252H9.00164L6.92853 150.745C6.87398 150.8 6.81942 150.909 6.76487 150.963L0 159.692H1.36388L1.36388 159.747L17.5123 159.692H20.0764H20.24C21.3312 159.638 24.2771 159.201 25.9138 156.364L61.3748 156.419L49.9727 169.567L161.757 169.676L173.377 156.31H184.179H192.744L189.253 149.218L190.944 138.797H189.634L189.689 138.525C189.689 138.579 189.798 138.47 189.798 138.47Z" fill="white"/>
<path d="M96.7267 120.194L98.2542 118.23C99.6727 116.703 100.818 115.393 101.255 115.23C101.146 114.248 101.2 113.429 101.146 113.211C100.491 112.829 94.5444 108.956 93.0169 107.319C94.5444 105.846 98.036 103.937 101.364 102.409C106.438 102.791 110.256 102.136 110.256 102.136C114.621 103.173 117.785 106.774 117.785 106.774C117.785 106.774 126.077 106.883 129.351 109.01C129.296 109.01 129.242 109.01 129.242 109.01C121.386 108.792 121.986 118.012 122.259 120.249H108.62L96.7267 120.194ZM188.434 137.597L188.598 137.434C188.652 137.379 195.09 131.433 195.09 131.433H190.507L191.271 126.85C191.326 126.795 191.38 126.686 191.435 126.632L196.618 120.467L162.52 120.412H155.81C155.592 119.485 154.228 114.63 151.009 111.902C147.518 109.665 145.39 107.265 144.19 105.246C148.009 107.647 151.718 108.901 155.155 108.901C168.576 108.847 171.631 92.371 171.631 92.371C171.631 92.371 167.267 94.3896 163.23 94.3896C162.466 94.3896 161.811 94.2259 160.993 94.0622C160.065 93.844 159.083 93.6258 157.829 93.6258C157.447 93.6258 157.01 93.6258 156.628 93.6804C154.228 94.0077 151.991 95.4807 150.736 97.6083C150.682 97.772 150.573 97.8811 150.518 98.0448C148.391 96.5718 146.045 94.1713 143.863 91.1708C143.426 90.6252 143.044 90.0251 142.553 89.4796C144.572 89.0431 146.154 88.3885 146.154 88.3885C153.137 90.3525 159.302 86.8609 159.302 86.8609C162.084 87.8429 164.212 87.7338 165.576 87.6793C167.867 87.6247 169.94 87.2428 171.195 86.5336L173.541 85.2243C175.014 85.6607 176.541 85.8789 178.069 85.8789C186.961 85.7153 193.672 80.0415 194.108 79.7142C188.762 79.005 181.997 75.077 175.668 70.6034C183.088 69.0213 188.271 64.3841 188.652 64.1659C173.104 65.8571 166.285 60.1833 156.901 55.7098C156.628 55.6007 156.41 55.4916 156.137 55.3279C146.754 48.3448 135.679 41.1981 122.804 35.4152C117.13 32.8511 110.093 31.6509 101.909 31.8146C93.1806 31.9782 87.4522 33.3967 85.9793 33.724C83.8516 34.215 82.815 35.3061 82.4332 36.6154C78.7779 37.0519 77.3049 37.3247 74.1953 38.0884C72.8314 38.4158 72.2313 39.616 72.0676 41.089C71.6857 41.0344 71.3584 40.9799 70.9765 40.9253H70.8674C68.467 40.598 65.9574 40.2706 63.3388 40.4343C62.9569 40.4343 62.575 40.4889 62.1931 40.5434C57.0103 41.1981 52.4277 43.8713 50.6274 46.4354C48.9907 46.9264 47.0813 48.1812 47.0267 51.2363C46.4266 51.3999 45.8811 51.6182 45.3355 51.8909C42.1713 53.4185 40.4801 55.8735 40.7528 58.6558C41.5166 66.1844 53.1915 67.0573 53.3006 67.0573L54.9918 67.1664L54.1189 65.9117C53.6279 65.2024 52.4277 63.0748 53.0824 61.9291C53.3551 61.4927 53.9007 61.2199 54.7736 61.0562C54.9372 61.0562 55.1009 61.0017 55.2646 61.0017C56.2466 60.8926 56.9012 60.8926 57.3377 61.0017L57.665 61.2745C57.7196 61.329 57.7741 61.329 57.8287 61.3836C59.4108 62.6929 59.138 64.2205 56.5193 69.185L55.1009 71.3126C55.1009 71.3126 57.8287 71.0399 59.1926 70.6034L55.9192 73.1675C55.8101 73.2766 55.701 73.3312 55.5374 73.4403C52.5914 72.5129 49.0453 72.2401 44.9536 72.7311C44.0262 72.8402 43.1533 72.9493 42.2258 73.1675C40.1527 72.0219 37.4795 71.5309 35.0791 71.8036C33.2242 72.0219 31.533 72.6765 30.1691 73.7676C29.5144 73.6585 28.9689 73.6585 28.4233 73.7131C28.3688 73.7131 28.2597 73.7131 28.2051 73.7676C25.3682 74.2586 23.4042 75.8953 22.5859 78.4594C20.7856 80.3143 20.0764 82.0055 21.4948 85.6607L22.5314 88.3339L24.3862 87.8975C24.8772 88.4976 25.4228 89.0431 26.0229 89.5887C25.7501 88.8249 25.5865 88.1703 25.4773 87.6247L25.7501 87.5702C26.623 87.3519 27.605 87.1337 28.6416 86.9155C29.1326 87.461 29.7327 87.952 30.4419 88.3885C30.1691 87.7338 30.0054 87.1883 29.8963 86.6973C31.3693 86.4245 32.9514 86.1517 34.5335 85.9335C35.0245 86.479 35.5701 86.97 36.1702 87.461C36.0065 86.8064 35.8974 86.2608 35.7883 85.7698C36.3884 85.7153 36.9885 85.6062 37.5886 85.5516C40.3164 85.2243 43.0987 86.3154 44.1898 86.6973C44.5717 86.8609 44.6808 86.9155 44.8445 86.9155L45.2264 86.97L47.354 85.497L49.6454 85.7698C50.8456 85.9335 52.9733 86.97 55.7556 88.2794C57.8832 89.3159 60.5564 90.5707 63.557 91.8255L63.8298 91.9346L64.3208 91.8255C63.8298 92.0982 63.2842 92.4256 62.6841 92.7529L60.0109 93.4621C57.2831 92.5892 54.9918 92.3165 52.7005 92.8075C51.1729 93.1348 49.9181 94.335 49.1544 95.7535C46.0993 96.79 45.1718 99.7906 45.1718 99.7906C45.1718 99.7906 46.5903 99.2996 48.2269 99.5723C48.2269 99.5723 48.2269 99.5723 48.2269 99.6269C48.5543 100.882 49.2635 101.591 49.9182 101.973C49.5908 102.682 49.4272 103.391 49.4817 104.1C49.5908 105.246 50.1364 106.501 51.0638 107.537C51.1184 108.519 51.282 109.447 51.4457 110.047L51.5548 110.429L51.773 110.102C52.1004 109.611 52.3731 109.229 52.6459 108.901C53.8461 109.665 55.1555 109.992 56.4102 109.829C56.4648 109.829 56.4648 109.829 56.5193 109.829C57.0103 111.302 58.0469 112.611 59.7381 113.266C59.7927 114.684 60.1746 116.103 60.8292 117.194C60.8292 117.194 61.8658 115.557 63.0114 114.03C68.1942 114.575 72.0131 111.902 72.395 109.938C72.8314 107.428 73.9771 105.573 75.4501 104.155C78.9962 109.447 88.3251 112.066 88.8161 114.139C87.6159 115.121 85.5428 112.393 81.8876 115.557C79.6508 116.157 78.6688 118.448 78.3415 120.085L55.1009 120.14L55.3737 122.813C54.228 121.122 52.4823 120.14 50.4091 120.14H32.7878L35.461 116.703H28.4233H18.7125C15.9302 116.703 13.8025 118.612 13.3115 121.504L11.5657 131.869C11.1838 134.16 11.8385 136.234 13.3661 137.707L15.4392 139.834H10.3655L8.45607 151.345C8.40151 151.454 8.2924 151.673 8.01962 151.945L3.21875 158.11H4.58263V158.165H17.5668H20.1309H20.1855C21.3311 158.11 23.8952 157.619 24.9863 154.782L64.9209 154.837L53.4643 167.985L160.993 168.148L172.559 154.837H190.071L187.452 149.545L188.925 140.434H187.507L188.161 137.979C188.216 137.87 188.325 137.761 188.434 137.597Z" fill="#045C4B"/>
<path d="M157.01 96.7898C154.392 97.1172 152.7 99.7904 153.137 100.772C154.228 101.318 157.283 101.918 161.102 100.009C153.355 108.301 143.972 96.6807 141.189 92.9164C140.371 91.8253 139.553 90.6796 138.516 89.6431C136.388 89.534 134.479 89.2066 132.733 88.1155C132.733 88.1155 130.606 88.7156 127.823 88.2246C128.642 88.9339 129.46 89.6976 130.278 90.516C136.061 89.8613 138.789 97.4991 145.172 101.809C151.937 106.392 160.666 108.574 166.448 96.9535C161.648 98.4265 159.956 96.408 157.01 96.7898Z" fill="#B09B64"/>
<path d="M52.5914 76.0044C47.8451 75.0224 42.5532 76.2226 41.1348 76.4954C39.7709 75.0769 35.1337 73.713 32.3514 76.1135C31.3694 76.9864 30.6056 78.5685 30.7693 80.4779C30.3874 79.7687 30.1146 78.5139 30.4965 77.15C29.0781 76.659 27.4414 77.0955 26.4048 77.9684C25.7502 78.7867 25.2592 80.1506 25.5865 81.7327C25.2592 81.2417 24.9864 80.4779 24.9864 79.5505C24.1135 79.8232 23.6225 80.3142 23.4043 80.8598C25.532 80.1506 25.8047 83.4239 25.5865 84.4604C25.9138 84.4059 26.2957 84.2968 26.6776 84.2422C25.6411 82.0055 25.8047 79.8778 27.1141 79.3322C30.0601 78.0775 30.3328 82.6601 29.9509 83.5876C30.8238 83.4239 31.7513 83.2602 32.6242 83.0966C31.4239 80.3688 31.9149 77.8592 33.6062 77.4228C37.425 76.4954 36.8795 81.8418 36.2794 82.551C39.389 82.1691 42.1168 81.9509 43.5352 82.1146C43.0988 79.9869 42.335 78.0229 41.5167 77.5319C42.8806 77.9138 44.9537 79.6596 45.3356 80.096C46.9177 80.1506 50.5729 79.8232 56.9013 82.06C56.0284 79.0595 53.9008 76.2771 52.5914 76.0044Z" fill="#B09B64"/>
<path d="M57.2828 55.1098C56.1372 54.4551 50.7908 52.6548 46.9173 54.5097C41.8982 56.9101 44.6806 61.6565 49.1541 62.7476C48.554 61.7656 47.1901 59.6925 48.4449 58.274C50.4634 56.0372 57.883 56.31 64.3205 57.0738C60.8289 55.328 57.2828 55.1098 57.2828 55.1098Z" fill="#B09B64"/>
<path d="M33.6607 78.5137C32.406 79.2775 32.9515 82.7145 34.8064 84.7876C33.2243 81.5688 33.6607 78.5137 33.6607 78.5137Z" fill="white"/>
<path d="M27.3324 80.2049C26.2413 81.0778 27.0051 84.242 28.86 85.9878C27.1687 83.0964 27.3324 80.2049 27.3324 80.2049Z" fill="white"/>
<path d="M22.968 81.678C21.9315 82.5509 22.8589 85.606 24.7683 87.2427C22.968 84.5149 22.968 81.678 22.968 81.678Z" fill="white"/>
<path d="M71.9586 165.093C71.0857 165.202 70.2128 165.257 69.3399 165.257C67.1577 165.257 64.1572 164.657 64.43 162.147C64.7027 159.856 67.4305 158.71 70.5402 158.71C71.3585 158.71 72.1768 158.765 72.9951 158.874L72.9406 160.292C72.2314 160.183 71.5222 160.074 70.8129 160.074C68.467 160.074 67.4305 161.165 67.3214 162.093C67.2123 163.238 68.3579 163.838 69.94 163.838C70.8129 163.838 71.6313 163.729 72.4496 163.566L71.9586 165.093Z" fill="#B09B64"/>
<path d="M81.4509 162.092C81.3418 163.129 82.3238 163.838 83.8514 163.838C85.488 163.838 86.6337 162.911 86.7428 161.874C86.8519 160.838 85.9245 160.074 84.3969 160.074C82.7057 160.128 81.56 161.001 81.4509 162.092ZM89.6342 161.82C89.3615 164.111 86.7428 165.202 83.6332 165.202C80.7963 165.202 78.2867 164.275 78.505 162.147C78.7777 159.528 81.9419 158.71 84.6151 158.71C87.5066 158.71 89.907 159.747 89.6342 161.82Z" fill="#B09B64"/>
<path d="M95.0898 165.148C95.69 163.075 96.0718 160.947 96.2901 158.874H99.2906C99.1269 159.529 98.5814 162.366 98.3632 163.839H99.8907C100.764 163.839 101.691 163.839 102.564 163.784L102.237 165.148H95.0898Z" fill="#B09B64"/>
<path d="M107.965 165.148C108.565 163.075 108.947 160.947 109.165 158.874H112.166C112.002 159.529 111.456 162.366 111.238 163.839H112.766C113.639 163.839 114.566 163.839 115.439 163.784L115.112 165.148H107.965Z" fill="#B09B64"/>
<path d="M129.569 158.819L129.296 160.238C128.478 160.183 127.605 160.183 126.787 160.183H124.713L124.495 161.274H126.077C126.841 161.274 127.605 161.274 128.369 161.22L128.096 162.584H124.222L124.004 163.729H124.932C126.186 163.729 127.441 163.675 128.696 163.675L128.423 165.093H120.895C121.167 164.057 121.713 161.82 122.04 158.819H129.569Z" fill="#B09B64"/>
<path d="M141.735 162.802H140.48L140.699 161.493H144.681C144.408 162.693 144.19 163.838 144.027 165.039C142.772 165.202 141.517 165.257 139.935 165.257C135.134 165.257 134.861 163.238 134.97 162.202C135.189 160.456 137.153 158.71 141.244 158.71C142.39 158.71 143.536 158.819 144.572 158.983L144.518 160.456C143.59 160.238 142.663 160.129 141.681 160.129C139.662 160.129 138.08 160.838 137.916 162.311C137.807 163.347 138.68 163.948 140.208 163.948C140.644 163.948 141.135 163.893 141.572 163.838L141.735 162.802Z" fill="#B09B64"/>
<path d="M159.029 158.819L158.756 160.238C157.938 160.183 157.065 160.183 156.246 160.183H154.173L153.955 161.274H155.537C156.301 161.274 157.065 161.274 157.883 161.22L157.61 162.584H153.737L153.519 163.729H154.446C155.701 163.729 156.956 163.675 158.21 163.675L157.938 165.093H150.354C150.627 164.057 151.173 161.82 151.555 158.819H159.029Z" fill="#B09B64"/>
<path d="M60.1746 138.088L58.047 140.107L60.2292 132.087L60.1746 138.088ZM63.9935 151.618H64.2117L63.8844 150.745C63.6116 150.036 63.448 149.491 63.5025 149.163L63.5571 125.65C63.5571 125.322 63.6662 124.831 63.939 124.231L64.3208 123.358H58.5925L58.6471 124.013C58.7016 124.613 58.7016 125.104 58.5925 125.432L52.2641 148.836C51.8822 149.6 51.6094 150.2 51.3367 150.582L50.6274 151.564H55.8648L55.6465 150.8C55.3738 149.927 55.4283 149.491 55.4829 149.272L56.3012 146.163L60.0655 142.507V145.017L60.011 149C60.011 149.163 59.9564 149.6 59.4654 150.582L58.9744 151.509H63.8298H63.9935V151.618Z" fill="white"/>
<path d="M75.2866 149.491L79.2146 125.868C79.2691 125.704 79.3782 125.268 80.0329 124.45L80.8512 123.413H75.1229L75.5593 124.34C75.8321 124.886 75.9412 125.322 75.8867 125.595L74.6865 132.797L71.795 135.361L73.3226 125.868C73.3771 125.704 73.4862 125.268 74.0863 124.45L74.9047 123.413H69.2309L69.6674 124.34C69.9401 124.886 70.0492 125.322 69.9947 125.595L66.0667 149.218C66.0122 149.436 65.903 149.872 65.2484 150.582L64.3755 151.618H64.8665H70.0493L69.6128 150.691C69.34 150.145 69.2855 149.709 69.34 149.436L70.7585 140.98C71.6859 140.107 72.6679 139.18 73.7045 138.252L71.9041 149.163C71.8496 149.381 71.7405 149.818 71.0858 150.527L70.2129 151.564H75.9412L75.5593 150.691C75.2866 150.036 75.2866 149.654 75.2866 149.491Z" fill="white"/>
<path d="M23.8405 136.452L21.4401 134.106L20.4581 133.124L19.1488 131.815C18.9305 131.596 18.876 131.214 18.9851 130.614L20.0216 124.341H22.1493H22.3675C22.4766 124.341 22.5312 124.395 22.5857 124.45C22.6949 124.613 22.7494 124.995 22.6403 125.432L21.5492 131.924H25.5863L27.1138 122.758C27.1684 122.54 27.3321 121.94 28.0958 120.958L28.9687 119.812H26.732H18.7123C17.4575 119.812 16.6392 120.576 16.421 121.995L14.6752 132.36C14.457 133.669 14.7843 134.706 15.5481 135.415L18.2759 138.198L19.1488 138.961L20.0762 139.943C20.1853 140.052 20.2399 140.38 20.1307 141.034L19.6943 143.653L19.6398 143.98L18.6032 150.473H16.6938C16.3664 150.473 16.1482 150.418 16.0391 150.254C15.93 150.145 15.93 149.927 15.93 149.709L17.0756 142.944H13.0386L11.511 152.055C11.4564 152.273 11.2928 152.873 10.529 153.855L9.60156 155.055H10.9654H17.5121H17.6212H19.9671C21.9856 154.946 22.2039 153.255 22.313 152.546V152.437L23.5677 144.526L24.3861 139.507C24.6588 138.088 24.4406 137.052 23.8405 136.452Z" fill="white"/>
<path d="M148.718 143.544H145.39L144.681 147.908H142.607L144.135 138.689C144.135 138.689 144.135 138.634 144.19 138.579H148.227L148.663 136.943C148.718 136.779 148.827 136.343 149.427 135.524L149.754 135.142C149.918 134.979 150.027 134.87 150.027 134.87L150.409 134.488H149.918C148.39 134.488 145.608 134.488 144.844 134.488L146.044 127.123H148.118L147.736 129.523H151.064L151.664 125.868C151.718 125.704 151.827 125.268 152.427 124.45L153.246 123.413H142.171L142.607 124.34C142.88 124.886 142.989 125.322 142.935 125.595L139.007 149.218C138.952 149.436 138.843 149.872 138.188 150.582L137.37 151.618H137.861H147.899H148.499L148.063 150.691C147.79 150.145 147.681 149.709 147.736 149.436L148.718 143.544Z" fill="white"/>
<path d="M131.587 135.797H131.533L132.951 127.177H135.352C135.625 127.177 135.625 127.177 135.734 127.395C135.897 127.668 135.897 127.723 135.897 128.105C135.897 128.541 135.843 129.196 135.788 129.468C135.734 129.741 135.679 130.069 135.625 130.396C135.352 131.869 134.915 134.051 134.152 134.651C133.442 135.197 132.351 135.579 131.587 135.797ZM132.242 149.818C132.188 150.09 132.024 150.363 131.806 150.69L130.933 151.727H136.661C136.661 151.727 135.734 149.654 135.679 149.218C135.788 148.727 136.77 143.544 137.098 140.761C137.207 139.67 136.825 138.743 135.897 137.87C137.152 137.052 137.916 135.851 138.298 134.215C138.68 132.96 139.061 130.396 139.28 129.196L139.334 128.868C139.607 127.341 139.552 126.195 139.28 125.431C138.734 124.122 137.861 123.467 136.552 123.467H129.078L129.569 124.395C129.842 124.886 129.951 125.322 129.896 125.65L127.878 137.925C124.659 140.761 124.986 144.962 124.986 144.962C124.986 144.962 126.023 143.107 127.168 142.344L125.968 149.272C125.914 149.436 125.805 149.872 125.15 150.636L124.332 151.672H130.005L129.569 150.745C129.296 150.199 129.242 149.818 129.296 149.49L130.878 139.834C131.206 139.67 131.478 139.561 131.806 139.452L132.188 139.343C133.333 139.67 133.824 140.489 133.661 141.798C133.388 143.926 132.46 149.163 132.406 149.218V149.272C132.406 149.381 132.351 149.599 132.351 149.709L132.242 149.818Z" fill="white"/>
<path d="M103.164 138.197L101.037 140.216L103.219 132.196L103.164 138.197ZM106.929 124.395L107.311 123.522H101.582L101.637 124.177C101.691 124.777 101.691 125.268 101.582 125.595L95.2538 148.999C94.872 149.818 94.5992 150.363 94.3264 150.745L93.6172 151.727H98.8545L98.6363 150.963C98.3635 150.09 98.4181 149.654 98.4726 149.436L99.2909 146.326L103.11 142.671V145.18L103.055 149.163C103.055 149.327 103.001 149.763 102.51 150.745L102.019 151.672H107.201L106.874 150.8C106.601 150.09 106.438 149.545 106.492 149.218L106.547 125.704C106.547 125.431 106.656 124.94 106.929 124.395Z" fill="white"/>
<path d="M120.131 149.6L126.787 126.195C127.169 125.377 127.496 124.831 127.714 124.45L128.423 123.468H123.186L123.404 124.231C123.622 125.104 123.622 125.541 123.568 125.759L119.858 138.689L120.349 125.977C120.349 125.813 120.458 125.322 120.949 124.395L121.495 123.468H115.985L116.148 124.231C116.312 124.941 116.367 125.486 116.312 125.759L112.93 138.689L113.148 125.923C113.148 125.759 113.202 125.322 113.748 124.395L114.294 123.413H109.056L109.384 124.231C109.656 124.941 109.765 125.486 109.82 125.813L109.384 149.272C109.384 149.654 109.22 150.145 109.002 150.745L108.674 151.618H113.366L113.312 150.964C113.257 150.363 113.257 149.872 113.366 149.545L116.694 136.888L116.203 149.272C116.203 149.6 116.039 150.091 115.767 150.745L115.385 151.618H120.131L120.076 150.964C120.022 150.418 120.022 149.927 120.131 149.6Z" fill="white"/>
<path d="M45.3355 135.688H45.2809L46.6993 127.068H49.0998C49.3726 127.068 49.3726 127.068 49.4817 127.232C49.6453 127.505 49.6453 127.559 49.6453 127.941C49.6453 128.378 49.5908 129.032 49.5362 129.305C49.4817 129.578 49.4271 129.905 49.3726 130.232C49.0998 131.705 48.6633 133.888 47.8996 134.488C47.1903 135.088 46.1538 135.47 45.3355 135.688ZM46.0447 149.763C45.9901 150.036 45.8265 150.309 45.6082 150.582L44.7353 151.618H50.4637C50.4637 151.618 49.5362 149.545 49.4817 149.109C49.5908 148.618 50.5728 143.435 50.9001 140.653C51.0092 139.561 50.6273 138.634 49.6999 137.761C50.9547 136.943 51.7184 135.743 52.1003 134.106C52.4822 132.851 52.8641 130.287 53.0823 129.087L53.1369 128.759C53.4097 127.232 53.3551 126.086 53.0823 125.322C52.5368 124.013 51.6639 123.358 50.3545 123.358H42.8259L43.3169 124.286C43.5897 124.777 43.6988 125.213 43.6442 125.541L41.6257 137.816C38.4069 140.653 38.7343 144.853 38.7343 144.853C38.7343 144.853 39.7708 142.998 40.9165 142.235L39.7163 149.163C39.6617 149.327 39.5526 149.763 38.8979 150.582L38.0796 151.618H43.7533L43.3169 150.691C43.0441 150.145 42.9896 149.763 43.0441 149.436L44.6262 139.78C44.9536 139.616 45.2809 139.507 45.5537 139.398L45.9356 139.289C47.0812 139.616 47.5722 140.434 47.4086 141.744C47.1358 143.871 46.2083 149.109 46.1538 149.163V149.218C46.1538 149.327 46.0992 149.545 46.0992 149.654L46.0447 149.763Z" fill="white"/>
<path d="M55.2643 103.282C52.8093 103.5 51.8819 105.028 51.991 107.319C52.9184 104.701 55.2643 103.282 55.2643 103.282Z" fill="white"/>
<path d="M60.9383 114.248C60.6655 113.156 61.7021 109.01 63.8843 107.81C63.2296 110.429 62.2476 111.574 60.9383 114.248Z" fill="white"/>
<path d="M52.7551 97.1172C51.7186 96.5171 48.9363 96.1352 46.8086 98.5356C49.3727 97.2809 52.7551 97.1172 52.7551 97.1172Z" fill="white"/>
<path d="M105.401 74.2042C104.092 70.9854 102.455 68.6395 102.073 68.0394C105.019 58.1103 89.9074 43.9805 89.9074 43.9805C89.9074 43.9805 83.3607 37.8157 89.0891 36.1245C89.5255 36.0154 106.874 32.0329 121.495 38.1976C158.538 53.6914 173.977 79.7143 186.252 80.5326C180.96 83.1512 174.195 84.4606 168.031 78.2958C161.866 72.1311 127.769 35.7426 93.8354 41.3073C93.7263 41.3618 110.42 58.4377 105.401 74.2042Z" fill="white"/>
<path d="M82.324 55.7099C83.5242 59.2014 80.7965 62.693 79.5963 63.7841C78.1233 65.0388 70.2673 69.8397 68.1942 74.8042C67.8123 68.6395 74.9045 64.7115 76.7594 63.0203C79.2144 60.7835 81.7785 54.2914 75.941 49.1087C77.1413 49.4906 79.869 50.0361 85.9247 55.6553C84.4517 55.5462 83.1969 55.6008 82.324 55.7099ZM93.5079 61.3836C89.4708 53.5277 82.6514 48.6177 80.0873 47.3629C81.5057 46.6537 83.0878 44.9079 84.8336 43.2167C75.941 46.3263 69.7763 43.1076 63.5024 43.4895C57.7741 43.8168 53.7916 47.1447 53.5188 48.3449C53.3551 49.1087 54.6099 50.418 57.4468 48.945C60.2836 47.472 62.7932 46.6537 68.4124 46.8173C65.0845 47.1992 62.3022 49.5451 60.6655 51.1272C56.8467 50.6908 54.719 50.6908 50.791 51.6182C52.3731 51.4545 55.3737 52.1092 57.8287 53.364C61.3748 53.3094 65.2482 53.3094 72.2313 54.837C69.9945 54.9461 68.1396 55.2734 66.7757 55.5462C71.0311 57.5102 73.8134 60.1834 74.3589 60.9472C71.7403 60.4016 66.5575 60.4016 64.3753 60.8926C64.4299 61.6018 64.5935 63.9477 62.0294 66.9483C64.048 66.2391 64.4299 66.0208 65.8483 65.4207C65.6846 66.5664 62.5204 69.7852 61.9203 75.077C61.4293 80.3143 63.9934 83.0421 68.2487 86.3154C66.7757 80.3689 68.4124 76.1136 75.5592 71.5855C82.7059 67.1119 86.1975 63.4022 85.7065 59.5287C87.0158 59.256 90.5073 59.9652 93.5079 61.3836Z" fill="white"/>
<path d="M89.1434 150.418H86.5793L91.2165 122.594C91.271 122.376 91.4347 121.776 92.1985 120.794L93.0714 119.648H86.2519L86.7429 120.63C87.0703 121.34 87.2339 121.885 87.1794 122.267L82.2148 151.945C82.1603 152.163 82.1057 152.382 81.9421 152.654C81.7784 152.982 81.5056 153.309 81.1783 153.691L80.7964 154.127L80.5782 154.4L80.1963 154.891L92.3621 154.946L94.0534 145.126L89.1434 150.418Z" fill="white"/>
<path d="M82.7602 85.9882C82.1056 86.8066 82.4329 92.8622 82.8148 94.0079C81.1236 92.3167 79.2141 85.7155 80.0325 83.4787C81.5055 82.9877 90.7799 83.1514 92.5802 71.5856C95.7444 81.2419 85.0516 85.8791 82.7602 85.9882ZM138.407 117.412C138.352 117.576 138.243 117.794 138.134 118.121C143.535 118.067 148.99 117.958 150.736 117.903C149.809 115.557 147.572 113.702 147.245 113.157C141.462 109.011 140.534 104.974 140.534 103.01C138.843 102.791 135.243 101.155 134.042 100.445C133.224 98.1541 129.569 93.0804 125.313 89.8071C125.477 91.1164 125.532 91.5529 125.259 92.5349C123.513 88.8251 117.948 84.6789 112.166 83.0968C106.383 81.5147 105.783 79.7144 104.364 78.1323C103.982 79.387 103.382 80.2054 102.291 81.5693C102.018 79.1143 102.509 71.3674 95.5262 66.2392C93.2349 64.057 90.5071 62.3658 88.5977 62.2567C88.6522 63.9479 85.3243 69.0215 80.5235 71.6402C73.4313 75.5136 68.8486 80.4782 71.9583 87.7886C70.8126 80.6964 75.2316 75.8955 79.4869 74.4225C73.3767 79.7689 74.686 86.3701 74.7406 87.8977C74.195 88.4432 70.2125 92.3167 62.7384 94.9899C63.4476 95.2627 67.3211 98.4814 67.6484 102.355C64.3751 97.8813 59.7924 95.59 55.3189 94.7717C53.4095 94.9353 52.8093 95.1535 52.2092 95.4809C52.2638 95.4809 52.3729 95.4809 52.4275 95.4809C53.464 95.6445 54.2278 96.572 54.2278 96.572C54.2278 97.1175 54.0641 99.9544 50.8999 100.173C51.2818 100.391 51.7728 100.445 52.4275 100.227C53.7368 99.7908 55.0461 99.3543 56.8464 99.9544C54.937 100.336 51.5 102.137 51.6091 103.992C51.6637 103.882 51.7182 103.773 51.8273 103.664C52.3183 103.01 52.9185 102.573 53.7368 102.355C54.3914 102.191 55.1552 102.191 55.9736 102.355C57.5011 103.064 57.6102 104.046 57.5011 104.592C57.3374 105.41 55.8099 107.047 54.5551 107.047C55.2643 107.21 56.0827 107.21 56.901 106.883C58.0467 106.447 58.6468 104.046 61.3745 103.882C59.6288 105.137 58.5922 108.192 59.9015 109.883C60.0106 109.392 60.1743 108.902 60.338 108.52C60.7199 107.592 61.4291 106.556 62.793 106.337C63.1203 106.283 63.9932 106.283 63.9932 106.283C65.6844 106.556 66.9392 107.81 66.8301 109.065C66.721 110.102 65.6844 111.356 65.248 111.411C65.1934 111.411 65.1389 111.466 65.0297 111.52C70.158 111.466 69.6124 105.737 70.3216 104.483C72.9403 99.8453 78.123 95.9173 86.3609 96.4629C87.1792 86.0974 95.9626 82.9877 97.5993 81.7875C97.5448 80.2599 97.3811 77.6958 96.8901 75.3499C98.254 77.2048 99.6179 79.9872 100.163 84.6789C95.6899 85.9337 93.4531 88.3887 91.5982 92.9713C95.5808 96.9539 99.8361 91.7711 109.22 96.081C107.91 94.608 105.292 93.0804 102.073 91.9348C114.566 93.0804 117.13 100.009 119.694 102.737C123.677 103.064 126.95 104.864 129.678 105.737C132.569 106.392 133.988 107.756 135.679 109.665C138.134 109.338 139.934 110.374 141.244 111.738C139.225 110.484 136.934 110.156 134.97 112.175C133.933 110.593 130.878 110.702 129.896 112.393C128.041 111.138 127.005 112.12 126.405 113.648C129.569 113.157 128.587 117.576 128.041 117.739C127.987 117.849 127.878 118.012 127.823 118.23C128.369 118.23 129.023 118.23 129.787 118.23C129.023 115.666 129.678 113.484 131.151 113.266C134.533 112.829 133.442 117.412 132.897 117.576C132.788 117.739 132.733 117.958 132.624 118.23C133.388 118.23 134.206 118.23 134.97 118.23C135.079 118.23 135.133 118.23 135.243 118.23C134.37 115.557 134.97 113.211 136.497 112.939C139.989 112.284 138.952 117.248 138.407 117.412Z" fill="#B09B64"/>
<path d="M33.6606 138.088L31.5329 140.107L33.7152 132.087L33.6606 138.088ZM37.534 151.618H37.7523L37.4249 150.745C37.1521 150.036 36.9885 149.491 37.043 149.163L37.0976 125.65C37.0976 125.322 37.2067 124.831 37.4795 124.231L37.8614 123.358H32.0785L32.1331 124.013C32.1876 124.613 32.1876 125.104 32.0785 125.432L25.8046 148.89C25.4227 149.654 25.15 150.254 24.8772 150.636L24.168 151.618H29.4053L29.2416 150.854C28.9688 149.982 29.0234 149.545 29.0779 149.327L29.8963 146.217L33.6606 142.562V145.072L33.606 149.054C33.606 149.218 33.5515 149.654 33.0605 150.636L32.5695 151.564H37.4249H37.534V151.618Z" fill="white"/>
<path d="M119.804 80.0412C116.858 79.7684 110.857 76.2223 109.165 73.3854C113.148 57.1279 99.6182 43.9255 99.6182 43.9255C99.6182 43.9255 116.53 40.8704 143.972 60.9468C145.226 61.8742 147.027 63.2927 148.063 64.2201C159.138 73.1127 166.176 82.3325 169.94 83.2054C167.921 84.2965 160.447 84.8421 156.083 80.9141C153.628 78.7319 145.226 69.021 135.134 61.5469C135.134 61.5469 120.022 49.9812 109.656 49.272C130.387 55.9277 150.737 82.4962 156.574 84.1874C153.028 85.0603 147.245 85.1694 144.244 82.2234C141.353 79.332 128.151 61.7651 113.421 55.3276C128.86 65.8568 140.316 84.0237 143.917 85.0057C140.262 85.7695 135.625 84.6784 134.043 83.2054C131.479 80.805 122.531 66.3478 115.385 61.8197C118.494 64.7657 129.787 83.0417 132.406 83.9146C130.442 84.6238 124.441 83.26 122.641 80.6413C122.095 79.7684 117.24 68.8028 113.966 65.9113C116.967 71.0941 118.331 75.4585 119.804 80.0412Z" fill="white"/>
<path d="M170.158 143.653L169.449 147.963H166.776L170.213 127.177H172.613C172.668 127.177 172.722 127.232 172.722 127.232C172.777 127.341 172.832 127.559 172.777 127.996L171.904 133.233H175.232L176.432 125.868C176.487 125.704 176.596 125.268 177.196 124.45L177.96 123.413H177.469H176.541H170.704H170.54H168.958C167.976 123.413 167.267 124.068 167.049 125.268L163.012 149.6C162.902 150.2 163.012 150.745 163.23 151.073C163.503 151.454 163.884 151.618 164.43 151.618H170.377C171.359 151.618 172.068 150.964 172.231 149.818L173.268 143.599H170.158" fill="white"/>
<path d="M160.066 149.49L163.993 125.868C164.048 125.65 164.157 125.213 164.812 124.504L165.685 123.467H159.902L160.393 124.395C160.666 124.886 160.775 125.322 160.72 125.65L159.52 132.796L158.756 123.522H154.01L154.501 124.449C154.774 124.94 154.883 125.377 154.828 125.704L150.9 149.327C150.846 149.545 150.737 149.981 150.082 150.69L149.209 151.727H154.883L154.446 150.854C154.228 150.309 154.119 149.872 154.174 149.545L156.519 135.524L157.392 144.908L156.683 149.054C156.683 149.054 156.629 149.381 155.919 150.745L155.374 151.672H160.829L160.393 150.745C160.12 150.199 160.011 149.763 160.066 149.49Z" fill="white"/>
<path d="M179.105 123.359H178.669L179.269 124.177C179.542 124.722 179.651 125.159 179.596 125.432L175.668 149.054C175.614 149.272 175.505 149.709 174.85 150.418L173.977 151.455H184.561H185.161L184.724 150.582C184.452 150.036 184.343 149.6 184.397 149.327L185.379 143.38H181.997L181.287 147.745H179.214L180.742 138.525C180.742 138.525 180.742 138.47 180.796 138.416H184.834L185.27 136.725C185.325 136.561 185.434 136.125 186.034 135.306L186.361 134.924C186.525 134.761 186.634 134.652 186.634 134.652L187.016 134.27H186.525C184.997 134.27 182.215 134.27 181.451 134.27L182.651 126.905H184.724L184.343 129.305H187.67L188.271 125.65C188.325 125.486 188.434 125.05 189.034 124.231L189.853 123.304L179.105 123.359Z" fill="white"/>
</svg>
