<?xml version="1.0" encoding="UTF-8"?>
<svg width="200px" height="200px" viewBox="0 0 200 200" version="1.1" xmlns="http://www.w3.org/2000/svg" xmlns:xlink="http://www.w3.org/1999/xlink">
    <!-- Generator: Sketch 54.1 (76490) - https://sketchapp.com -->
    <title>schreiner</title>
    <desc>Created with Sketch.</desc>
    <g id="schreiner" stroke="none" stroke-width="1" fill="none" fill-rule="evenodd">
        <g id="schreiner_BGL" fill="#8B2332">
            <g id="schreiner" transform="translate(0.000000, 16.000000)">
                <g id="Group-3" transform="translate(0.000000, 0.810938)">
                    <path d="M190.551831,65.3134689 C190.551831,65.3134689 182.546197,77.7059279 178.729296,79.0114361 L178.357465,72.5797639 L184.594085,59.9081574 L191.763099,54.5056656 C191.763099,54.5056656 191.856056,62.2400262 190.551831,65.3134689 L190.551831,65.3134689 Z M120.456056,26.7375344 C120.456056,26.7375344 116.639155,26.0833705 115.709577,26.2722885 C115.709577,26.2722885 117.385634,24.2223869 119.340563,23.3821246 L121.199718,23.2890754 C121.199718,23.2890754 119.526479,25.2459279 120.456056,26.7375344 L120.456056,26.7375344 Z M127.903944,28.7874361 C127.532113,28.598518 127.253239,28.7874361 127.253239,28.7874361 C125.577183,28.8804852 124.644789,27.8541246 124.644789,27.8541246 C125.856056,27.4819279 125.949014,26.1792393 125.949014,26.1792393 C127.810986,27.1097311 127.903944,28.7874361 127.903944,28.7874361 L127.903944,28.7874361 Z M113.940563,126.438321 L110.495493,123.364879 C109.844789,120.567764 111.241972,114.231961 111.241972,114.231961 C118.222254,97.1814033 122.692676,97.0883541 122.692676,97.0883541 C111.056056,109.85301 113.940563,126.438321 113.940563,126.438321 L113.940563,126.438321 Z M150.058873,77.1476328 C150.058873,77.1476328 147.82507,76.7726164 143.54338,73.6061246 C143.54338,73.6061246 131.627887,64.1010098 130.323662,64.1010098 C130.323662,64.1010098 126.413803,62.7983213 123.622254,65.2204197 C123.622254,65.2204197 108.168732,70.8118295 96.9969014,97.6466492 C96.9969014,97.6466492 91.7856338,114.045862 96.2532394,122.617666 C96.2532394,122.617666 105.191268,123.737075 110.963099,131.192289 C110.963099,131.192289 120.644789,141.813993 132.74338,135.289272 C132.74338,135.289272 149.687042,127.836879 152.478592,131.564485 C152.478592,131.564485 158.064507,134.35878 155.830704,141.0696 C155.830704,141.0696 147.264507,153.36901 133.118028,155.043895 C133.118028,155.043895 111.149014,157.093797 106.678592,151.319108 C106.678592,151.319108 90.1095775,134.919895 84.5264789,134.544879 L95.323662,134.35878 C95.323662,134.35878 70.7490141,106.962846 33.3264789,98.766059 C33.3264789,98.766059 70.7490141,101.374256 89.3659155,119.82337 C89.3659155,119.82337 88.0616901,87.0249443 105.563099,73.0478295 C105.563099,73.0478295 120.084225,60.3734033 128.089859,60.5595016 L137.957465,64.6621246 L136.839155,59.8151082 L120.084225,55.3431082 L120.270141,57.0208131 C120.270141,57.0208131 102.02507,61.3067148 93.8335211,72.6756328 C93.8335211,72.6756328 83.5940845,78.0809443 83.9659155,112.182059 C83.9659155,112.182059 64.7912676,96.7133377 62.3687324,96.341141 C62.3687324,96.341141 69.4447887,96.341141 72.0504225,97.4605508 C72.0504225,97.4605508 66.4673239,79.1975344 44.3095775,68.5758295 C44.3095775,68.5758295 33.1405634,63.170518 37.4222535,60.1873049 C37.4222535,60.1873049 40.5884507,54.0376 59.2053521,55.5292066 L47.1039437,49.7488787 C47.1039437,49.7488787 71.3067606,47.8878951 84.8983099,51.4294033 C84.8983099,51.4294033 70.9349296,35.960682 44.123662,31.1164852 C44.123662,31.1164852 43.38,29.4387803 45.2419718,28.6943869 L50.0814085,25.5250754 C50.0814085,25.5250754 43.38,17.1393705 25.6926761,16.9532721 C25.6926761,16.9532721 19.1771831,16.2088787 20.295493,20.6808787 L22.3405634,29.6248787 C22.3405634,29.6248787 12.2898592,21.9863869 13.4053521,16.7671738 C13.4053521,16.7671738 14.1490141,11.3618623 25.5067606,10.9896656 C25.5067606,10.9896656 46.3574648,8.75366557 63.4870423,18.072682 L61.8109859,22.544682 C61.8109859,22.544682 76.7067606,13.7839607 91.4138028,12.1090754 C91.4138028,12.1090754 113.382817,8.93976393 120.456056,10.4313705 C120.456056,10.4313705 125.670141,11.5479607 127.903944,13.9728787 C127.903944,13.9728787 142.982817,24.5945836 146.706761,24.9667803 L152.664507,25.7111738 C152.664507,25.7111738 151.73493,27.3888787 150.244789,27.574977 C150.244789,27.574977 176.495493,36.7050754 179.475775,39.3160918 C179.475775,39.3160918 177.427887,40.0633049 172.957465,39.1299934 C172.957465,39.1299934 149.501127,30.9303869 137.213803,30.7442885 L142.053239,27.016682 L133.675775,27.3888787 C133.675775,27.3888787 125.29831,19.1892721 122.132113,19.0031738 C122.132113,19.0031738 111.520845,18.2587803 96.0673239,23.6612721 L108.726479,24.0362885 L105.563099,27.2027803 C105.563099,27.2027803 130.323662,30.7442885 132.185634,32.046977 C132.185634,32.046977 138.515211,37.0800918 139.072958,38.9438951 C139.072958,38.9438951 134.419437,40.0604852 133.675775,40.4355016 C133.675775,40.4355016 102.768732,28.5082885 99.9771831,28.5082885 L129.58,40.0633049 L157.132113,51.8016 L143.729296,42.8576 L148.754648,39.3160918 L144.472958,35.7745836 L143.729296,34.6579934 C143.729296,34.6579934 164.765915,39.5021902 166.627887,40.9937967 C166.627887,40.9937967 178.915211,53.6654033 179.847606,57.2069115 C179.847606,57.2069115 181.523662,65.406518 175.751831,70.8118295 C175.751831,70.8118295 172.213803,75.8421246 150.058873,77.1476328 L150.058873,77.1476328 Z M155.458873,100.627043 C155.458873,100.627043 156.853239,87.7693377 156.853239,86.5568787 C156.853239,86.5568787 154.06169,90.2873049 152.664507,90.2873049 L152.757465,87.6762885 C152.757465,87.6762885 150.619437,89.7261902 149.872958,89.7261902 L149.687042,84.4167475 C149.687042,84.4167475 144.658873,98.577141 140.470141,99.2313049 C140.470141,99.2313049 143.171549,86.0944525 141.495493,83.948682 C141.495493,83.948682 132.185634,75.0977311 128.182817,74.8185836 C128.182817,74.8185836 126.695493,74.2574689 124.923662,74.5366164 C124.923662,74.5366164 127.253239,71.556223 131.999718,71.4631738 L148.010986,81.1543869 C148.010986,81.1543869 154.154648,83.6695344 163.464507,81.8057311 C163.464507,81.8057311 163.650423,94.7593049 155.458873,100.627043 L155.458873,100.627043 Z M128.926479,132.21583 L135.444789,128.86042 C135.444789,128.86042 137.118028,128.022977 137.585634,125.877207 L140.656056,117.770649 C140.656056,117.770649 141.585634,116.467961 141.774366,118.145666 L142.332113,125.693928 C142.332113,125.693928 147.546197,124.38842 149.315211,124.667567 L153.036338,118.145666 C153.036338,118.145666 153.410986,117.029075 153.875775,118.334584 C153.875775,118.334584 153.968732,126.252223 152.664507,128.488223 C152.664507,128.488223 149.78,126.066125 148.847606,126.345272 L129.672958,132.588026 C129.672958,132.588026 128.089859,133.24219 128.926479,132.21583 L128.926479,132.21583 Z M199.208169,46.7713049 C184.872958,32.4219934 165.69831,26.4583869 165.69831,26.4583869 L162.718028,21.2391738 C152.106761,22.9168787 137.585634,11.1757639 137.585634,11.1757639 C131.256056,4.46776393 120.456056,0.367960656 120.456056,0.367960656 C100.906761,-2.0541377 63.4870423,8.56756721 63.4870423,8.56756721 C25.6926761,-7.64554754 5.7715493,7.63425574 5.7715493,7.63425574 C-7.44535211,16.0227803 18.0588732,38.9438951 18.0588732,38.9438951 C8.00535211,45.2796984 1.11802817,57.9513049 1.11802817,57.9513049 C3.35183099,56.8347148 8.56591549,57.3930098 8.56591549,57.3930098 C3.35183099,64.4760262 -0.000281690141,97.6466492 -0.000281690141,97.6466492 C10.4278873,97.0883541 42.8222535,112.554256 42.8222535,112.554256 C76.7067606,127.092485 96.4391549,162.499108 96.4391549,162.499108 C97.5574648,165.296223 101.653239,166.598911 101.653239,166.598911 C118.594085,169.396026 144.101127,161.1936 144.101127,161.1936 C155.458873,157.83819 164.58,137.71419 164.58,137.71419 C165.884225,131.375567 158.622254,125.600879 158.622254,125.600879 C159.554648,115.35137 156.946197,111.809862 156.946197,111.809862 C154.526479,108.082256 153.596901,111.065469 153.596901,111.065469 L148.010986,121.687174 L146.149014,121.687174 C147.081408,112.929272 143.54338,109.198846 143.54338,109.198846 C140.563099,106.590649 139.072958,112.554256 139.072958,112.554256 C134.233521,128.395174 127.34338,128.209075 127.34338,128.209075 C122.132113,129.514584 123.436338,124.484289 123.436338,124.484289 C122.318028,119.451174 125.29831,109.387764 125.29831,109.387764 C127.157465,105.846256 134.98,99.3243541 134.98,99.3243541 C135.351831,100.629862 134.419437,104.354649 134.419437,104.354649 C133.675775,105.660157 134.605352,106.218452 134.605352,106.218452 C139.633521,106.218452 148.382817,97.4605508 148.382817,97.4605508 L150.988451,97.6466492 L149.872958,106.032354 C163.089859,106.404551 169.608169,85.9055344 169.608169,85.9055344 L171.470141,86.2777311 C182.82507,88.5165508 196.788451,65.0343213 196.788451,65.0343213 L196.41662,51.2433049 L199.208169,46.7713049 Z" id="Fill-1"></path>
                </g>
                <path d="M135.909577,54.1049902 L122.320845,49.2579738 C121.388451,49.8162689 120.458873,54.8493836 120.458873,54.8493836 L108.354648,52.799482 C92.7180282,46.0886623 86.9461972,33.7920721 86.9461972,33.7920721 C84.7123944,44.9720721 97.7433803,55.593777 97.7433803,55.593777 C100.537746,57.6464984 100.163099,60.6268918 100.163099,60.6268918 C101.653239,58.3908918 110.963099,55.035482 110.963099,55.035482 L103.701127,52.2411869 L144.658873,60.6268918 L136.095493,56.5242689 L135.909577,54.1049902 Z" id="Fill-4"></path>
                <path d="M138.888732,47.5816787 L129.767606,42.9235803 C129.023944,42.9235803 124.367606,46.2761705 124.367606,46.2761705 C121.790141,45.3062033 106.269014,41.9733508 102.122535,41.0907934 C109.711268,43.0025311 150.246479,56.5256787 150.246479,56.5256787 L137.959155,49.2593836 L138.888732,47.5816787 Z" id="Fill-6"></path>
            </g>
        </g>
    </g>
</svg>