<?xml version="1.0" encoding="UTF-8"?>
<svg width="200px" height="200px" viewBox="0 0 200 200" version="1.1" xmlns="http://www.w3.org/2000/svg" xmlns:xlink="http://www.w3.org/1999/xlink">
    <!-- Generator: Sketch 54.1 (76490) - https://sketchapp.com -->
    <title>scranton</title>
    <desc>Created with Sketch.</desc>
    <g id="scranton" stroke="none" stroke-width="1" fill="none" fill-rule="evenodd">
        <g id="scranton_BGL">
            <g id="scranton" transform="translate(26.000000, 0.000000)">
                <g id="g10" transform="translate(73.255352, 99.693547) scale(-1, 1) rotate(-180.000000) translate(-73.255352, -99.693547) translate(0.000000, 0.301863)" fill-rule="nonzero">
                    <g id="g12">
                        <path d="M140.477997,36.2854741 C140.477997,19.7419861 126.546964,5.5217602 110.296056,5.5217602 L9.29326966,5.5217602 L9.29326966,63.2770896 L59.5041812,63.2770896 L59.5041812,44.9928482 L88.2355193,44.9928482 L88.2355193,83.3034831 L37.4464426,83.3034831 C18.5810176,83.3034831 5.5217602,100.717642 5.5217602,119.292107 L5.5217602,163.698103 C5.5217602,181.403075 22.9345942,193.012023 40.6378727,193.012023 L134.092633,193.012023 L134.092633,137.867309 L88.2355193,137.867309 L88.2355193,154.411238 L58.3428446,154.411238 L58.3428446,118.711954 L111.455625,118.711954 C128.580444,118.711954 140.477997,103.03899 140.477997,85.9156438 L140.477997,36.2854741" id="path14" fill="#67428A"></path>
                        <path d="M111.455625,124.233715 L63.8646048,124.233715 L63.8646048,148.889478 L82.7137591,148.889478 L82.7137591,132.345548 L139.614394,132.345548 L139.614394,198.533784 L40.6378727,198.533784 C21.856084,198.533784 0,186.177557 0,163.698103 L0,119.292107 C0,95.2312213 17.5427794,77.7817229 37.4464426,77.7817229 L82.7137591,77.7817229 L82.7137591,50.5146084 L65.0259414,50.5146084 L65.0259414,68.7988498 L3.77148001,68.7988498 L3.77148001,0 L110.296056,0 C129.648721,0 145.999757,16.6176269 145.999757,36.2854741 L145.999757,85.9156438 C145.999757,107.772243 130.246543,124.233715 111.455625,124.233715" id="path16" fill="#231F20"></path>
                        <path d="M140.477997,36.2854741 C140.477997,19.7419861 126.546964,5.5217602 110.296056,5.5217602 L9.29326966,5.5217602 L9.29326966,63.2770896 L59.5041812,63.2770896 L59.5041812,44.9928482 L88.2355193,44.9928482 L88.2355193,83.3034831 L37.4464426,83.3034831 C18.5810176,83.3034831 5.5217602,100.717642 5.5217602,119.292107 L5.5217602,163.698103 C5.5217602,181.403075 22.9345942,193.012023 40.6378727,193.012023 L134.092633,193.012023 L134.092633,137.867309 L88.2355193,137.867309 L88.2355193,154.411238 L58.3428446,154.411238 L58.3428446,118.711954 L111.455625,118.711954 C128.580444,118.711954 140.477997,103.03899 140.477997,85.9156438 L140.477997,36.2854741" id="path18" fill="#FFFFFF"></path>
                        <path d="M111.455625,113.190194 L80.6699716,113.190194 L64.9606374,88.8252433 L93.7572795,88.8252433 L93.7572795,39.471088 L53.982421,39.471088 L53.982421,57.7561392 L44.9301946,57.7561392 L14.8150299,11.0435204 L110.296056,11.0435204 C123.433427,11.0435204 134.956237,22.83881 134.956237,36.2854741 L134.956237,85.9156438 C134.956237,100.845011 124.802824,113.190194 111.455625,113.190194" id="path20" fill="#6E4990"></path>
                        <polygon id="path22" fill="#6E4990" points="100.138962 143.389069 128.570873 143.389069 128.570873 187.490263"></polygon>
                    </g>
                </g>
            </g>
        </g>
    </g>
</svg>