<?xml version="1.0" encoding="UTF-8"?>
<svg width="200px" height="200px" viewBox="0 0 200 200" version="1.1" xmlns="http://www.w3.org/2000/svg" xmlns:xlink="http://www.w3.org/1999/xlink">
    <!-- Generator: Sketch 54.1 (76490) - https://sketchapp.com -->
    <title>seton-hill</title>
    <desc>Created with Sketch.</desc>
    <g id="seton-hill" stroke="none" stroke-width="1" fill="none" fill-rule="evenodd">
        <g id="seton-hill_BGL">
            <g id="Group-141" transform="translate(0.000000, 11.000000)">
                <polygon id="Fill-1" fill="#BC1F36" points="66.7231993 76.7491479 80.879397 76.7491479 80.879397 66.871195 66.7231993 66.871195"></polygon>
                <g id="Group-140" transform="translate(0.000000, 0.860419)">
                    <g id="Group-4" transform="translate(19.849246, 20.941176)" fill="#BC1F36">
                        <path d="M43.0678392,61.3852894 C43.0678392,61.3852894 37.3224456,64.0050306 33.6876047,74.1468424 C30.0548576,84.2886541 31.4074539,83.6981129 26.2525126,90.7113129 C21.0975712,97.7266071 20.3375209,104.572278 20.0820771,108.205572 C19.828727,111.84096 18.3086265,115.051242 13.3232831,118.940019 C8.3379397,122.826701 7.74539363,125.109289 7.66164154,130.011619 C7.66164154,130.011619 5.02135678,133.961125 4.3241206,138.207995 C4.3241206,138.207995 0.605527638,140.955478 0.182579564,145.51856 C-0.240368509,150.081642 3.73366834,151.350678 3.73366834,151.350678 C3.73366834,151.350678 5.59087102,153.928536 8.42169179,152.533854 C8.42169179,152.533854 11.3383585,155.871878 14.9711055,153.419666 C14.9711055,153.419666 19.2382747,155.323219 20.6746231,152.659501 C20.6746231,152.659501 28.5766332,153.717031 29.2089615,144.928019 C29.2089615,144.928019 31.110134,141.250748 31.618928,136.434278 C32.1235343,131.615713 32.1675042,129.377101 34.7030988,127.010748 C37.2365997,124.644395 41.1666667,121.729384 42.0963149,120.967125 C42.0963149,120.967125 41.5896147,126.587736 40.0255444,128.363548 C40.0255444,128.363548 45.2642379,124.221384 47.6302345,120.755619 C49.9962312,117.291948 51.7298995,114.755972 55.8672529,111.796984 C60.0108878,108.840089 61.9958124,107.826536 63.6436348,105.627713 C63.6436348,105.627713 63.980737,110.699666 67.5737018,115.558019 C67.5737018,115.558019 67.6574539,116.529689 65.3752094,119.235289 C63.0929648,121.938795 61.6147404,122.150301 62.4606365,126.924889 C63.3065327,131.701572 60.6850921,136.095031 60.3877722,136.434278 C60.3877722,136.434278 59.4602178,136.011266 57.3454774,139.474936 C55.2370184,142.940701 54.5188442,144.716513 55.6159966,147.166631 C56.7152429,149.616748 60.0108878,152.152725 61.8680905,151.139172 C61.8680905,151.139172 63.8551089,153.633266 67.190536,152.998748 C67.190536,152.998748 69.3911223,155.111713 72.2617253,154.307572 C72.2617253,154.307572 75.7164992,156.621572 79.108459,152.565266 C82.498325,148.50896 81.4514238,145.307054 81.4514238,145.307054 C81.4514238,145.307054 83.4593802,141.462254 82.741206,136.264654 C82.020938,131.067054 81.5979899,129.588607 88.1494975,122.319925 C88.1494975,122.319925 88.7818258,124.981548 89.6256281,126.883007 C89.6256281,126.883007 96.4095477,112.282819 103.000838,104.423595 C103.000838,104.423595 101.669179,95.4859012 106.738275,89.2119247 C106.738275,89.2119247 106.83459,91.05056 107.119347,92.3489129 C107.119347,92.3489129 112.854271,93.2368188 115.0067,93.0148424 C115.0067,93.0148424 125.710218,98.8260188 138.38191,96.5434306 C151.059883,94.2608424 156.468174,87.1617835 165.678811,86.99216 C174.889447,86.8246306 176.514238,85.2812659 177.529732,81.9851247 C177.529732,81.9851247 178.35469,81.6689129 178.987018,81.2877835 C178.987018,81.2877835 179.621441,78.05656 178.605946,74.3792894 C177.592546,70.7041129 174.487437,67.8498306 171.189698,69.4350776 C171.189698,69.4350776 168.172529,65.9483718 163.859296,68.1471953 C163.859296,68.1471953 161.116415,64.8510541 156.468174,67.4707953 C156.468174,67.4707953 155.115578,65.6112188 153.425879,65.06256 C153.425879,65.06256 153.128559,62.0616894 152.412479,60.9203953 C152.412479,60.9203953 154.862228,48.4122306 153.384003,45.4972188 C151.903685,42.5822071 151.059883,41.2712894 151.059883,41.2712894 C151.059883,41.2712894 151.947655,37.7636424 151.989531,35.1857835 C151.989531,35.1857835 155.201424,36.6642306 157.946399,39.7069835 C157.946399,39.7069835 159.510469,35.9040659 160.609715,31.2991012 C161.706868,26.6920424 163.017588,19.7207247 154.778476,14.6068894 C154.778476,14.6068894 155.000419,13.4970071 153.920017,11.6918776 C153.920017,11.6918776 158.675042,12.3892188 162.381072,13.7839012 C162.381072,13.7839012 158.157873,-1.40892235 129.005863,0.283124706 C129.005863,0.283124706 90.1344221,4.42319529 82.69933,15.2414071 L74.9250419,25.2135953 C74.9250419,25.2135953 62.6721106,32.4822776 57.8542714,36.36896 C57.8542714,36.36896 54.7261307,50.4833129 49.1524288,55.8924188 L43.0678392,61.3852894 Z" id="Fill-2"></path>
                    </g>
                    <path d="M72.7828727,82.8334518 L60.5090034,89.2561106 C59.0726549,83.8051224 61.2250838,80.1299459 61.6082496,79.1561812 C61.9872278,78.1845106 64.4788526,74.0025576 56.8343802,74.8464871 C49.1836265,75.6925106 45.3414992,80.0440871 41.8343802,83.7213576 C38.3272613,87.3965341 33.4696399,89.7628871 33.4696399,89.7628871 C33.4696399,89.7628871 33.044598,94.7929576 28.3984506,98.0890988 C28.3984506,98.0890988 28.5680486,97.2011929 28.6915829,96.65044 C28.6915829,96.65044 26.4972781,99.6931929 22.3578308,100.664864 C22.3578308,100.664864 22.8226549,99.0607694 22.906407,98.4262518 C22.906407,98.4262518 20.6639447,101.004111 20.4964405,102.610299 C20.4964405,102.610299 18.9323702,96.9038282 20.1572446,93.6516635 C20.1572446,93.6516635 19.6086683,94.2422047 19.2296901,94.83484 C19.2296901,94.83484 18.5973618,91.3690753 20.7937605,88.2425576 C20.7937605,88.2425576 19.9499581,88.4121812 19.0182161,88.7074518 C19.0182161,88.7074518 22.653057,83.3821106 30.1321189,83.5517341 C30.1321189,83.5517341 35.2012144,80.6136871 38.3063233,77.2547224 C41.4114322,73.8957576 45.4671273,67.9379929 54.7824539,66.4804871 C54.7824539,66.4804871 62.0730737,65.4020165 66.444933,66.6710518 C70.8188861,67.9379929 72.3389866,73.3889812 72.0856365,76.0506047 C71.8322864,78.7143224 72.7828727,82.8334518 72.7828727,82.8334518" id="Fill-5" fill="#BC1F36"></path>
                    <path d="M159.579564,25.85272 C159.579564,25.85272 165.283082,13.6817082 160.592965,8.48620235 C155.904941,3.28650824 142.025126,3.35142588 131.566583,9.11862588 C121.110134,14.88792 119.715662,15.5203435 114.20268,14.9507435 C114.20268,14.9507435 107.167504,29.6556376 116.738275,42.01512 L159.579564,25.85272 Z" id="Fill-7" fill="#BC1F36"></path>
                    <g id="Group-11" fill="#BC1F36">
                        <path d="M121.005863,18.6684306 C121.005863,18.6684306 124.63861,4.13106588 111.795226,1.25793647 C98.9518425,-1.61519294 88.7278057,1.89245412 76.9396985,7.21779529 C65.1494975,12.5410424 46.8978224,26.1067365 0.000837520938,21.0347835 C0.000837520938,21.0347835 9.19053601,28.0710188 14.3873534,29.6562659 C14.3873534,29.6562659 15.1683417,38.5730188 20.239531,41.6576541 L18.5477387,42.2063129 C18.5477387,42.2063129 20.9974874,51.7554894 28.0138191,54.2495835 L26.1963987,55.0516306 C26.1963987,55.0516306 29.8731156,60.2073482 37.6034338,63.4595129 L36.4644054,64.3055365 C36.4644054,64.3055365 48.6733668,71.1721482 64.391541,67.9409247 C64.391541,67.9409247 72.1197655,73.8358659 83.4032663,71.1093247 L109.194724,70.6653718 L128.208543,53.2988541 L124.469012,31.4928071 C124.469012,31.4928071 119.25335,23.2733953 121.005863,18.6684306" id="Fill-9"></path>
                    </g>
                    <path d="M115.090452,17.4854635 C115.090452,17.4854635 120.161642,18.7524047 127.38526,14.1893224 C134.608878,9.62624 143.166248,6.83687529 150.073702,7.09026353 C156.981156,7.34365176 164.267588,10.0052753 156.727806,25.7258165 L116.798995,39.3543341 C116.798995,39.3543341 111.097571,30.2260753 115.090452,17.4854635" id="Fill-12" fill="#231F20"></path>
                    <path d="M122.103853,34.6002682 C122.103853,34.6002682 116.781407,29.1911624 118.175879,20.9089271 C118.175879,20.9089271 122.252513,20.5277976 127.637772,17.4222212 C133.025126,14.3166447 139.806951,10.3859859 146.714405,9.94412706 C153.621859,9.50017412 161.414992,10.5137271 153.305695,25.5997506 L122.103853,34.6002682 Z" id="Fill-14" fill="#FEFEFE"></path>
                    <path d="M145.910595,21.7113929 C145.910595,21.7113929 149.526591,15.0562871 140.104481,17.99224 C140.104481,17.99224 146.800461,16.2604047 145.889657,21.7532753" id="Fill-16" fill="#231F20"></path>
                    <path d="M146.904313,25.2607129 C146.904313,25.2607129 153.537479,17.1062188 148.76361,14.9932541 C143.98974,12.8802894 137.145101,16.0068071 137.145101,16.0068071 C137.145101,16.0068071 144.454564,10.1328071 151.171482,13.0478188 C157.890494,15.9649247 149.862856,25.5978659 149.862856,25.5978659 L146.904313,25.2607129 Z" id="Fill-18" fill="#231F20"></path>
                    <path d="M121.680486,34.1351647 C121.680486,34.1351647 116.948492,29.7396118 118.384841,19.9370471 C119.821189,10.1323882 118.891541,3.37257647 103.596315,3.20295294 C88.3052764,3.03332941 75.120603,11.4851882 70.3048576,13.5981529 C65.4870184,15.7111176 46.391541,27.8800353 8.36599665,23.9514706 C8.36599665,23.9514706 17.811139,28.8956824 24.0820771,30.2254471 L17.6185092,30.9227882 C17.6185092,30.9227882 17.9556114,39.7138941 25.9413735,42.2058941 L21.6323283,43.5586941 C21.6323283,43.5586941 23.870603,52.0524353 33.3387772,53.8701294 L30.2085427,54.9674471 C30.2085427,54.9674471 35.068258,61.9827412 43.2215243,61.9827412 L41.5737018,63.1240353 C41.5737018,63.1240353 52.6017588,68.1101294 65.279732,64.6443647 C65.279732,64.6443647 74.1072027,71.5738 82.8530151,67.8148588 L107.69598,66.8410941 L123.458124,52.4314706 L121.680486,34.1351647 Z" id="Fill-20" fill="#231F20"></path>
                    <path d="M116.949121,37.0082941 C116.949121,37.0082941 114.920226,31.2599412 115.596524,23.7399647 C116.272822,16.2178941 119.738065,6.07608235 105.037479,5.48344706 C90.3327052,4.89290588 77.5730737,12.8379882 69.2920854,16.7246706 C61.0090034,20.6113529 48.4210637,27.4591176 19.77366,26.6130941 C19.77366,26.6130941 28.3079983,30.4997765 37.3930067,30.2045059 L20.0270101,32.7823647 C20.0270101,32.7823647 20.3641122,43.3053059 34.434464,41.0646 L24.1245812,44.4026235 C24.1245812,44.4026235 25.2657035,53.9099176 42.7992044,51.9665765 L33.3352178,55.8113765 C33.3352178,55.8113765 37.8599246,63.4193059 51.0383166,58.7703647 L45.715871,62.3617765 C45.715871,62.3617765 56.1095059,66.6714706 67.135469,62.1502706 C67.135469,62.1502706 60.5881491,62.4455412 55.8980318,56.7411647 L57.7992044,55.5579882 C57.7992044,55.5579882 53.3017169,55.2627176 48.9905779,48.7981765 L51.0487856,47.6254706 C51.0487856,47.6254706 47.0244975,47.3092588 43.3519682,39.3851176 L50.8917504,37.1674471 L45.5378978,40.0196353 C45.5378978,40.0196353 47.8494556,45.8810706 52.696608,45.9459882 C57.5458543,46.0088118 61.3796064,43.9796118 61.3796064,43.9796118 L51.4633585,48.9887412 C51.4633585,48.9887412 55.4541457,56.4040118 65.7849665,52.6639176 L58.4001256,56.8793765 C58.4001256,56.8793765 63.883794,64.5585059 78.6283501,57.9683176 L67.686139,63.9260824 C67.686139,63.9260824 75.7975293,70.1791176 87.3322864,65.1930235 L99.8385678,64.6862471 L106.302136,64.4328588 L120.498116,51.5435647 L119.061767,37.2616824 L116.949121,37.0082941 Z" id="Fill-22" fill="#FEFEFE"></path>
                    <path d="M96.139866,58.4321647 L91.5481575,58.5578118 C83.9727806,57.672 81.9124791,54.8826353 81.9124791,54.8826353 L84.7349246,53.044 C79.0628141,52.3152471 75.2583752,47.4673647 75.2583752,47.4673647 L77.0967337,46.1355059 C71.4560302,45.2161882 68.7005863,40.3348 68.7005863,40.3348 L71.298995,38.7830588 C67.2118928,38.6239059 64.1046901,33.4891294 64.1046901,33.4891294 L69.4606365,30.7018588 L66.2906198,33.2671529 C66.2906198,33.2671529 68.6063652,39.2270118 79.0921273,35.8659529 L71.6130653,40.3033882 C71.6130653,40.3033882 76.7177554,47.5930118 85.6520101,42.1734353 L78.30067,47.1490588 C78.30067,47.1490588 81.818258,53.3602118 91.8308208,49.8106824 L84.9547739,54.7234824 C84.9547739,54.7234824 87.9677554,57.0688941 94.0167504,57.0688941 L96.139866,58.4321647 Z" id="Fill-24" fill="#231F20"></path>
                    <path d="M95.1051089,15.9638776 C95.1051089,15.9638776 104.78057,9.49933647 105.710218,21.20336 C105.710218,21.20336 103.936767,13.4697835 95.1051089,15.9638776" id="Fill-26" fill="#231F20"></path>
                    <path d="M112.38526,28.5153906 C112.429229,28.6410376 110.232831,24.5847318 109.638191,18.2039553 C109.047739,11.8231788 104.273869,10.0075788 96.2022613,11.0211318 C88.1348409,12.0346847 80.1490787,15.2051788 80.1490787,15.2051788 C80.1490787,15.2051788 90.7123116,8.90816706 101.06407,8.86628471 C111.413735,8.82440235 111.83459,14.3172729 111.920436,17.3160494 C112.004188,20.31692 111.244137,25.1773671 112.38526,28.5153906" id="Fill-28" fill="#231F20"></path>
                    <path d="M32.0008375,86.3090588 C32.0008375,86.3090588 29.930067,84.2379765 23.3366834,87.6618588 C23.3366834,87.6618588 24.1846734,87.576 24.7311558,87.9152471 C24.7311558,87.9152471 22.451005,89.0565412 21.3957286,91.9715529 C21.3957286,91.9715529 22.0720268,91.4543059 23.0226131,91.1045882 C23.0226131,91.1045882 20.9916248,92.9432235 21.0565327,98.5847765 C21.0565327,98.5847765 23.7512563,94.7818588 25.8722781,94.5598824 C25.8722781,94.5598824 25.8429648,96.4299294 24.6369347,97.7596941 C24.6369347,97.7596941 26.8877722,97.3178353 29.548995,93.1652 C29.548995,93.1652 29.548995,93.7683059 29.2977387,94.2122588 C29.2977387,94.2122588 31.3873534,93.1652 31.5778894,87.9047765 L32.0008375,86.3090588 Z" id="Fill-30" fill="#231F20"></path>
                    <path d="M30.035804,86.2558682 C38.0529732,81.9147624 37.5776801,79.8227388 45.4336265,73.1990447 C53.2916667,66.5774447 61.3758375,66.2905506 65.5571608,68.0328565 C69.7405779,69.7751624 70.184464,73.00848 69.9311139,75.60728 C69.6777638,78.20608 70.2786851,79.7599153 70.2786851,79.7599153 L69.8997069,81.3430682 L62.546273,86.4464329 C62.3578308,83.2466212 63.4968593,81.8812565 64.2275963,80.0447153 C64.9562395,78.20608 67.9985343,71.8043624 58.5554858,72.1205741 C49.1103434,72.4367859 43.9784338,78.6814447 39.2883166,83.1502918 C34.5981993,87.6191388 30.5739112,89.2022918 30.5739112,89.2022918 L30.035804,86.2558682 Z" id="Fill-32" fill="#231F20"></path>
                    <path d="M68.1987018,81.2272635 C68.1987018,81.2272635 67.6082496,79.1561812 68.1149497,76.7898282 C68.6216499,74.4234753 68.916876,71.4665812 64.0152848,69.1839929 L64.6497069,70.4090518 C55.6903266,63.9047224 43.1023869,76.6222988 40.4830402,79.4095694 C37.8636935,82.1989341 34.9470268,84.3537812 34.9470268,84.3537812 C34.9470268,84.3537812 36.4692211,84.1862518 38.7074958,82.3266753 C40.9457705,80.4670988 46.4817839,74.7627224 52.0157035,71.6780871 L51.9298576,72.4801341 C51.9298576,72.4801341 56.7916667,69.8185106 61.014866,70.6226518 C65.2422529,71.4246988 66.9738275,73.8748165 66.4210637,77.2966047 C65.8745812,80.7204871 67.0575796,82.2408165 67.0575796,82.2408165 L68.1987018,81.2272635 Z" id="Fill-34" fill="#F3BC46"></path>
                    <path d="M30.5,86.7957318 C30.5,86.7957318 29.4865997,86.4481082 27.8387772,87.0177082 L29.0427136,88.0312612 C29.0427136,88.0312612 25.2717755,88.6971906 24.1306533,89.7107435 C24.1306533,89.7107435 25.5879397,89.5850965 26.0632328,89.5850965 C26.0632328,89.5850965 23.2742881,92.5629318 22.5142379,95.2266494 C22.5142379,95.2266494 23.9715243,93.8947906 27.5205193,92.3723671 C27.5205193,92.3723671 27.6168342,93.0068847 27.3948911,93.7356376 C27.3948911,93.7356376 29.2332496,92.9126494 30.2152429,89.1725553 C30.2152429,89.1725553 30.5942211,89.8070729 30.531407,90.3766729 C30.531407,90.3766729 30.881072,89.36312 31.0067002,87.3653318 L29.9618928,87.6522259 L30.5,86.7957318 Z" id="Fill-36" fill="#F3BC46"></path>
                    <polygon id="Fill-38" fill="#231F20" points="25.2715662 92.5945529 28.313861 90.9778941 28.0605109 92.1506 29.2016332 89.9643412"></polygon>
                    <path d="M167.106156,61.1561929 C167.106156,61.1561929 169.302554,65.0009929 170.485553,67.2835812 C171.668551,69.5661694 170.994347,76.2840988 169.346524,80.6356753 C169.346524,80.6356753 170.020729,82.7716753 170.401801,84.67104 C170.782873,86.5745929 169.809255,89.4686635 169.809255,89.4686635 C169.809255,89.4686635 171.310511,88.3064282 172.640075,88.6016988 C173.971734,88.8969694 175.872906,90.9680518 175.872906,90.9680518 C175.872906,90.9680518 177.753141,89.7429929 179.549623,89.5105459 C181.344012,89.2780988 182.949958,90.9889929 182.949958,90.9889929 C182.949958,90.9889929 184.281616,90.54504 185.971315,90.3356282 C187.661013,90.1220282 188.590662,90.4193929 190.512772,92.4046165 C190.512772,92.4046165 193.153057,91.89784 194.315117,92.46744 C195.477178,93.0391341 197.610762,96.5237459 196.576424,100.475346 C196.576424,100.475346 195.942002,100.814593 195.054229,100.877416 C195.054229,100.877416 195.539992,104.89184 189.625,104.975605 C183.710008,105.061464 180.458333,105.145228 171.710427,109.645487 C162.964615,114.145746 153.965452,119.91504 136.664363,111.737511 C136.664363,111.737511 132.84108,112.076758 129.75691,111.061111 C129.75691,111.061111 129.038735,107.174428 129.208333,104.596569 C129.208333,104.596569 126.249791,106.498028 125.403894,107.174428 C124.560092,107.850828 119.193677,116.807369 120.125419,124.668687 C120.125419,124.668687 111.970059,136.119322 109.771566,142.246711 C109.771566,142.246711 109.941164,139.373581 110.322236,137.555887 C110.322236,137.555887 103.856575,143.936664 101.999372,147.274687 C100.140075,150.614805 99.6312814,152.304758 100.435302,156.319181 C101.237228,160.333605 99.9725712,164.473675 99.6333752,165.403464 C99.6333752,165.403464 100.223827,167.960381 98.703727,170.527769 C97.1815327,173.095158 94.7422529,175.34424 93.5069095,173.664758 C93.5069095,173.664758 93.1258375,174.445864 91.034129,173.983064 C88.9424204,173.516075 88.6890704,172.311958 88.6471943,172.037628 C88.6471943,172.037628 84.5914992,173.771558 82.7112647,170.326734 C82.7112647,170.326734 81.0425042,171.065958 79.8197236,169.524687 C79.8197236,169.524687 76.8800251,168.699605 77.1752513,165.868358 C77.4725712,163.037111 81.214196,159.35984 81.9721524,158.89704 C81.9721524,158.89704 82.7740787,157.290852 83.4085008,155.979934 C84.0408291,154.671111 85.2677973,150.951958 84.9704774,147.613934 C84.6752513,144.275911 84.5914992,144.529299 86.0697236,142.923111 C87.5479481,141.316922 89.3234925,139.543205 89.9579146,136.414593 C89.9579146,136.414593 85.4353015,129.654781 85.9001256,121.625934 C85.9001256,121.625934 82.6903266,124.880193 79.1832077,127.499934 C75.6760888,130.119675 67.8180486,135.528781 64.3528057,141.865581 C64.3528057,141.865581 66.6036432,136.393652 66.6978643,134.050334 C66.6978643,134.050334 64.2690536,137.049111 58.6492881,141.402781 C53.0295226,145.754358 49.8615997,148.543722 49.3967755,153.318311 C48.9319514,158.092899 48.2137772,163.460122 47.0307789,164.938569 C47.0307789,164.938569 47.7489531,169.480711 43.9780151,170.906805 C43.9780151,170.906805 42.3406616,172.693087 40.8624372,171.637652 C40.8624372,171.637652 38.2430905,174.004005 36.5094221,172.291016 C36.5094221,172.291016 35.7493719,172.037628 35.3473618,171.679534 C35.3473618,171.679534 34.8615997,172.311958 34.1224874,172.439699 C34.1224874,172.439699 31.7941792,175.995511 29.3381491,171.336099 C29.3381491,171.336099 26.7711474,173.157981 24.8699749,170.906805 C24.8699749,170.906805 18.8502931,168.467158 26.2016332,159.688616 C26.2016332,159.688616 27.6798576,155.347511 28.6095059,153.741322 C29.5391541,152.135134 29.9181323,151.754005 30.0877303,148.585605 C30.2573283,145.415111 30.7640285,145.036075 33.8481993,142.416334 C36.9323702,139.796593 41.7502094,135.824052 42.3406616,129.612899 C42.9332077,123.401746 43.946608,119.554852 47.453727,113.978216 C50.9608459,108.399487 52.2275963,107.427816 53.9591709,101.467958 C55.6928392,95.5101929 56.5785176,90.65184 65.5776801,82.3256282 C65.5776801,82.3256282 67.5646985,80.7215341 68.7895729,79.7917459 C70.0144472,78.8619576 78.9926717,71.5513929 80.5776801,60.7750635 C80.5776801,60.7750635 91.6476131,52.5347106 99.5475293,49.4081929 C99.5475293,49.4081929 103.307998,43.2808047 113.111181,39.0569694 L150.416457,39.4778871 L164.359087,55.8308518 L167.106156,61.1561929 Z" id="Fill-40" fill="#231F20"></path>
                    <path d="M166.419179,64.6736824 C166.419179,64.6736824 168.701424,68.3509529 169.270938,69.7435412 C169.842546,71.1382235 168.226131,79.1880118 167.528894,80.6476118 C167.528894,80.6476118 169.147404,84.8295647 168.226131,87.1121529 C168.226131,87.1121529 167.116415,82.3270941 165.217337,79.8853529 C165.217337,79.8853529 166.262144,83.2129059 166.322864,84.7981529 C166.387772,86.3834 166.322864,87.0493294 165.311558,88.8544588 C164.296064,90.6616824 163.663735,91.6124118 163.536013,92.5945529 C163.536013,92.5945529 162.608459,92.8898235 161.213987,93.5034 C159.819514,94.1169765 160.535595,94.2216824 158.381072,94.7494 C156.228643,95.2792118 154.811139,96.6508588 154.811139,96.6508588 C154.811139,96.6508588 156.925879,96.0603176 158.067002,96.2069059 C158.067002,96.2069059 157.007538,97.2853765 157.116415,99.8422941 C157.116415,99.8422941 157.738275,96.9691647 161.224456,95.6373059 C164.710637,94.3054471 167.273451,92.9756824 169.080402,91.8658 C170.889447,90.7559176 171.871441,89.9329294 175.072864,92.1820118 C175.072864,92.1820118 174.585008,94.4331882 174.924204,95.6163647 C175.261307,96.7995412 176.994975,99.1030706 176.994975,99.1030706 C176.994975,99.1030706 170.675879,101.616012 169.241625,94.7075176 C169.241625,94.7075176 168.921273,95.3629765 169.218593,96.8204824 C169.218593,96.8204824 162.334171,98.4894941 162.711055,101.373094 C163.092127,104.256694 168.353853,104.131047 170.636097,103.624271 C172.916248,103.117494 176.054858,102.007612 181.092546,102.388741 C181.092546,102.388741 178.219849,101.701871 172.832496,102.6526 C167.443049,103.603329 165.014238,102.376176 165.458124,100.537541 C165.90201,98.701 169.028057,98.6591176 169.028057,98.6591176 C169.028057,98.6591176 171.670436,102.101847 178.092127,100.0538 C178.092127,100.0538 184.005025,101.563659 186.03392,100.011918 C186.03392,100.011918 189.090871,101.119706 191.64531,100.707165 C191.64531,100.707165 191.909129,100.950082 192.413735,100.983588 C192.413735,100.983588 192.118509,104.353024 184.325377,104.003306 C176.528057,103.655682 174.566164,104.131047 170.730318,105.873353 C170.730318,105.873353 172.958124,105.397988 175.007956,105.821 C175.007956,105.821 161.825377,114.019471 154.390285,114.230976 C146.953099,114.442482 140.403685,110.892953 139.262563,110.130694 C139.262563,110.130694 142.539363,111.799706 146.046482,111.081424 C146.046482,111.081424 142.369765,110.490882 139.392379,107.787376 L134.955611,107.871141 C137.36139,102.926929 140.213149,99.8841765 152.698492,92.0249529 C165.183836,84.1636353 163.154941,73.5799647 163.154941,73.5799647 C161.636935,88.8544588 142.179229,95.5744824 137.61474,97.2225529 C133.052345,98.8706235 130.200586,100.772082 126.523869,104.003306 C122.849246,107.236624 120.43928,108.377918 117.336265,109.898247 C114.229062,111.420671 112.897404,112.687612 112.897404,112.687612 C112.897404,112.687612 116.257956,111.546318 117.401173,111.399729 C117.401173,111.399729 115.116834,117.948035 115.751256,122.322647 C115.751256,122.322647 116.544807,116.427706 118.665829,113.003824 C118.665829,113.003824 117.495394,117.441259 118.443886,124.383259 C118.443886,124.383259 113.311977,132.749259 111.980318,134.904106 L112.327889,131.450906 C112.327889,131.450906 111.251675,133.794224 105.167085,141.339329 C99.0845896,148.880247 98.4480737,150.656059 99.2751256,156.107047 C100.095896,161.558035 98.3245394,165.825847 98.3245394,165.825847 C99.0845896,170.811941 95.4497487,171.699847 95.4497487,171.699847 C95.4497487,171.699847 96.0422948,170.579494 96.0820771,170.453847 C96.0820771,170.453847 94.8572027,171.616082 94.1809045,171.932294 C94.1809045,171.932294 93.5695142,170.388929 92.1541039,171.869471 C90.7386935,173.347918 89.1955611,172.122859 90.0833333,171.002506 C90.9731993,169.882153 91.3500838,169.691588 91.5217755,169.184812 C91.5217755,169.184812 90.5690955,170.051776 89.5159129,170.347047 C89.5159129,170.347047 89.0720268,168.805776 87.3362647,170.263282 C85.6046901,171.720788 84.2751256,170.516671 84.0845896,170.305165 C84.0845896,170.305165 86.4275544,168.573329 86.8735343,167.578624 C86.8735343,167.578624 86.0485762,168.255024 85.118928,168.340882 C85.118928,168.340882 85.1419598,167.769188 84.5703518,167.432035 C84.0008375,167.092788 83.3643216,167.348271 82.7969012,167.834106 C82.2252931,168.319941 80.8936348,169.333494 79.3525963,168.255024 C77.8115578,167.178647 78.2952261,164.2406 81.611809,161.009376 C81.611809,161.009376 81.3165829,162.783094 81.6746231,164.493988 C81.6746231,164.493988 82.5414573,159.750812 84.0971524,156.676647 C85.64866,153.602482 85.998325,152.398365 86.0925461,150.339847 C86.1867672,148.279235 86.0276382,144.888859 88.3412898,142.478529 C90.6528476,140.070294 93.6323283,137.155282 95.818258,128.755776 C95.818258,128.755776 97.1834171,134.587894 94.1390285,139.720576 C94.1390285,139.720576 99.1139028,135.7606 99.748325,129.453118 C99.748325,129.453118 101.873534,128.470976 102.602178,124.636647 C103.328727,120.802318 104.50335,117.347024 108.242881,114.811047 C108.242881,114.811047 106.088358,115.223588 102.979062,116.077988 C99.8760469,116.934482 94.2667504,118.519729 85.7093802,118.613965 C85.7093802,118.613965 84.0008375,122.670271 78.2638191,126.538106 C72.5288945,130.403847 71.008794,131.829941 69.2960637,133.383776 C69.2960637,133.383776 69.8027638,130.393376 69.2562814,127.436482 C69.2562814,127.436482 67.4577052,133.478012 58.2051926,140.007471 C48.9526801,146.534835 47.5582077,151.100012 47.4304858,154.458976 C47.3048576,157.817941 47.1792295,161.683682 45.7198492,164.600788 C45.7198492,164.600788 46.4170854,167.674953 44.1997487,169.798388 C44.1997487,169.798388 44.4321608,168.001635 42.9120603,169.270671 C42.9120603,169.270671 43.1025963,168.445588 43.0167504,167.938812 C43.0167504,167.938812 42.4451424,169.712529 40.6319095,170.707235 C40.6319095,170.707235 40.6863484,169.894718 40.0058626,169.681118 C39.1285595,169.406788 38.8249581,170.420341 37.7236181,171.339659 C37.7236181,171.339659 36.7332496,171.498812 36.1951424,170.876859 C36.1951424,170.876859 36.6578727,170.125071 36.7625628,168.910482 C36.7625628,168.910482 35.7721943,170.569024 34.7776382,171.117682 C34.7776382,171.117682 34.1641541,169.618294 32.8785595,170.791 C31.5866834,171.963706 30.4371859,172.598224 29.94933,170.388929 C29.94933,170.388929 31.4443049,169.203659 31.5092127,167.737776 C31.5092127,167.737776 31.1344221,169.048694 29.3379397,169.492647 C29.3379397,169.492647 29.0552764,166.988082 28.1863484,168.424647 C27.3195142,169.861212 25.9920436,171.044388 24.6373534,169.756506 C23.2868509,168.466529 23.7495812,163.775706 26.1155779,161.662741 C26.1155779,161.662741 25.5879397,164.749471 26.1155779,165.974529 C26.1155779,165.974529 26.6139028,160.986341 28.7684255,156.360435 C30.9229481,151.732435 31.1113903,151.606788 31.5238693,148.501212 C31.9363484,145.393541 33.0774707,144.920271 35.4539363,142.891071 C37.8324958,140.861871 43.7244556,135.348059 43.8186767,130.625824 C43.9149916,125.903588 44.8341709,120.262035 50.2529313,112.559871 C55.669598,104.8598 55.7973199,103.211729 56.5573702,101.722812 C56.5573702,101.722812 56.6222781,96.2718235 59.028057,92.4668118 C61.4380235,88.6638941 63.6344221,84.6075882 69.5096315,81.9040824 C69.5096315,81.9040824 69.1997487,82.6747176 69.1369347,82.9909294 C69.1369347,82.9909294 63.3412898,87.9351412 61.4380235,91.2626941 L64.1620603,89.3947412 C64.1620603,89.3947412 62.3886097,91.6124118 61.1532663,93.9892353 C61.1532663,93.9892353 66.1930486,88.5382471 67.269263,87.4283647 C67.269263,87.4283647 66.2223618,87.6189294 65.7470687,87.7780824 C65.7470687,87.7780824 67.9015913,85.9080353 68.4082915,85.5897294 C68.4082915,85.5897294 67.5226131,88.6953059 68.1863484,92.4039882 C68.1863484,92.4039882 64.9221106,97.9198941 67.5540201,102.862012 C70.1838358,107.808318 70.1838358,108.631306 70.1838358,108.631306 C70.1838358,108.631306 76.7772194,109.328647 80.3262144,106.792671 C80.3262144,106.792671 95.9585427,105.314224 102.631491,97.5387647 C109.308626,89.7633059 112.855528,87.0598 114.970268,85.2839882 C117.082915,83.5102706 116.827471,83.0014 120.548157,82.2412353 C124.262563,81.4810706 127.304858,80.8046706 129.080402,78.2707882 C130.855946,75.7348118 132.545645,75.9023412 133.477387,75.9023412 C133.477387,75.9023412 134.478224,65.9720353 125.319933,66.4494941 C125.319933,66.4494941 122.721524,63.7857765 116.511307,65.6872353 C116.511307,65.6872353 114.578727,64.0705765 111.980318,65.1490471 C109.38191,66.2275176 107.953936,67.3353059 107.953936,67.3353059 C107.953936,67.3353059 105.801508,66.2903412 104.409129,66.9876824 C103.014657,67.6850235 102.53727,68.9205529 100.730318,69.8712824 C98.9254606,70.8220118 92.9664992,74.0239176 89.7985762,80.2350706 C89.7985762,80.2350706 84.6331658,81.4391882 82.0347571,83.0558471 C82.0347571,83.0558471 88.4355109,81.0580588 90.5900335,81.4077765 C90.5900335,81.4077765 91.3814908,82.0087882 92.1122278,82.4213294 C92.1122278,82.4213294 91.0339196,79.7597059 94.2332496,77.1609059 C97.4367672,74.5621059 97.4974874,73.4836353 100.349246,72.0889529 C103.203099,70.6942706 104.25,69.0462 105.514657,68.4451882 C106.785595,67.8420824 107.736181,68.5394235 109.444724,69.5236588 C109.444724,69.5236588 107.669179,70.4094706 109.603853,72.4386706 C111.536432,74.4657765 112.043132,76.3044118 112.043132,76.3044118 C112.043132,76.3044118 106.211893,78.2372824 104.913735,74.2773059 C104.913735,74.2773059 104.693886,74.8154941 104.947236,75.8290471 C104.947236,75.8290471 99.3044389,77.6990941 100.286432,81.0266471 C101.270519,84.3542 107.321608,83.2778235 107.321608,83.2778235 C107.321608,83.2778235 102.252513,83.4998 101.366834,80.901 C100.479062,78.3022 105.644472,76.9703412 105.644472,76.9703412 C105.644472,76.9703412 106.475712,77.8058941 109.141122,77.8477765 C111.800251,77.8896588 113.257538,77.7828588 113.745394,76.6646 C113.745394,76.6646 113.850084,76.9808118 115.583752,76.9179882 C117.315327,76.8551647 121.519682,76.9179882 121.75,76.1557294 C121.75,76.1557294 121.976131,76.5263882 122.784338,76.5263882 C123.592546,76.5263882 125.732412,76.5892118 125.747069,77.8414941 C125.763819,79.0937765 124.815327,80.4884588 120.788945,81.0266471 C116.764657,81.5648353 112.660804,82.6747176 109.63526,84.2913765 C109.63526,84.2913765 112.750838,83.1710235 114.779732,83.1710235 C114.779732,83.1710235 105.610972,91.1998706 103.328727,93.7358471 C101.046482,96.2718235 99.8425461,98.1083647 95.2801508,100.263212 C90.7198492,102.420153 86.1532663,104.510082 78.931742,104.954035 C78.931742,104.954035 76.5196817,106.876435 71.8756281,106.834553 C71.8756281,106.834553 70.2675879,103.814835 69.7629816,102.673541 C69.2562814,101.532247 66.4443049,96.2278471 70.541876,92.2574 C70.541876,92.2574 68.1549414,84.5447647 75.0623953,76.6206235 C81.9698492,68.6985765 82.6670854,61.7272588 82.6670854,61.7272588 C82.6670854,61.7272588 89.8718593,55.9998471 101.997069,50.3792353 C101.997069,50.3792353 105.504188,43.2382941 115.01005,43.2822706 L147.373953,43.2822706 L163.410385,56.5924824 L166.419179,64.6736824 Z" id="Fill-42" fill="#F3BC46"></path>
                    <path d="M186.980946,101.447435 C186.980946,101.447435 188.942839,101.679882 190.550879,101.648471 C190.550879,101.648471 189.399288,103.307012 186.759003,102.588729 C186.759003,102.588729 188.300042,102.398165 188.553392,101.964682 C188.553392,101.964682 187.70959,101.818094 186.980946,101.447435" id="Fill-44" fill="#231F20"></path>
                    <path d="M157.463358,102.610089 C157.463358,102.610089 158.160595,102.482348 158.581449,102.440466 C158.581449,102.440466 158.962521,103.941948 161.370394,105.378513 C161.370394,105.378513 158.581449,104.681172 157.463358,102.610089" id="Fill-46" fill="#231F20"></path>
                    <path d="M155.434883,103.581551 C155.434883,103.581551 156.069305,103.455904 156.490159,103.476845 C156.490159,103.476845 156.699539,104.511339 158.707496,105.757339 C158.707496,105.757339 156.638819,105.271504 155.434883,103.581551" id="Fill-48" fill="#231F20"></path>
                    <path d="M195.022822,95.2387953 C195.022822,95.2387953 194.980946,96.10576 194.991415,96.4847953 C195.001884,96.8659247 195.152638,97.2344894 195.942002,98.5663482 C195.942002,98.5663482 196.205821,96.7695953 195.022822,95.2387953" id="Fill-50" fill="#FEFEFE"></path>
                    <path d="M194.008794,95.0915788 C194.008794,95.0915788 193.717755,98.0275318 194.909129,99.3426376 C194.909129,99.3426376 194.211893,99.5813671 193.244556,98.9321906 C193.244556,98.9321906 194.193049,96.4590376 192.340034,94.0822141 C192.340034,94.0822141 193.430905,94.1827318 194.008794,95.0915788" id="Fill-52" fill="#F3BC46"></path>
                    <path d="M191.949749,98.9259082 C191.949749,98.9259082 191.315327,97.3825435 190.957286,96.5490847 C190.597152,95.7135318 190.471524,95.2172259 190.777219,94.5094141 C190.777219,94.5094141 192.397822,95.00572 191.949749,98.9259082" id="Fill-54" fill="#FEFEFE"></path>
                    <path d="M183.891332,93.4636118 C183.891332,93.4636118 183.171064,94.2761294 183.818049,95.6708118 C184.458752,97.0654941 184.724665,97.9115176 184.873325,98.6088588 C184.873325,98.6088588 185.072236,96.7388118 184.998953,95.5032824 C184.923576,94.2656588 183.891332,93.4636118 183.891332,93.4636118" id="Fill-56" fill="#FEFEFE"></path>
                    <path d="M176.475084,93.2263482 C176.475084,93.2263482 176.016541,94.6210306 175.999791,95.14456 C175.985134,95.6659953 175.970477,95.9361365 177.649707,98.2187247 C177.649707,98.2187247 177.521985,94.5247012 176.475084,93.2263482" id="Fill-58" fill="#FEFEFE"></path>
                    <path d="M189.404104,93.4114682 C189.404104,93.4114682 188.876466,94.8270918 189.508794,96.4751624 C190.14531,98.1232329 190.375628,99.3797035 190.375628,99.3797035 C190.375628,99.3797035 187.946817,99.5388565 186.868509,98.8415153 C186.868509,98.8415153 186.424623,97.0887388 186.447655,95.4616094 C186.468593,93.83448 184.820771,92.2492329 184.820771,92.2492329 C184.820771,92.2492329 186.742881,90.7917271 188.074539,92.1026447 L189.404104,93.4114682" id="Fill-60" fill="#F3BC46"></path>
                    <path d="M182.907873,99.5250353 C182.907873,99.5250353 183.458543,97.5816941 182.824121,96.1660706 C182.189698,94.7504471 182.041039,94.2855529 182.696399,92.4888 C182.696399,92.4888 181.703936,90.8616706 180.585846,90.8616706 C179.463568,90.8616706 177.438861,92.1516471 177.438861,92.1516471 C177.438861,92.1516471 178.556951,94.3693176 179.000838,95.5315529 C179.444724,96.6937882 179.317002,99.2088235 179.317002,99.2088235 C179.317002,99.2088235 180.646566,99.7365412 182.907873,99.5250353" id="Fill-62" fill="#F3BC46"></path>
                    <path d="M137.83794,95.5740635 C137.83794,95.5740635 149.182161,88.0938753 153.365578,75.6087459 C153.365578,75.6087459 152.012982,84.8207694 147.280988,90.6926753 C147.280988,90.6926753 142.886097,93.7773106 137.83794,95.5740635" id="Fill-64" fill="#231F20"></path>
                    <path d="M120.028476,77.9049459 C120.028476,77.9049459 121.707705,77.9677694 121.707705,78.6336988 C121.707705,79.2996282 120.679648,79.4901929 120.187605,79.4901929 C120.187605,79.4901929 123.468593,79.7121694 123.468593,78.5708753 C123.468593,77.4295812 120.028476,77.9049459 120.028476,77.9049459" id="Fill-66" fill="#231F20"></path>
                    <path d="M118.269891,69.1798047 C118.269891,69.1798047 117.794598,70.1828871 118.776591,71.2718282 C119.270729,71.8142047 119.697864,72.4194047 120.005653,72.8884871 C120.313442,73.3575694 120.499791,73.6905341 120.499791,73.6905341 C120.499791,73.6905341 120.575168,70.3943929 118.269891,69.1798047" id="Fill-68" fill="#FEFEFE"></path>
                    <path d="M126.180905,67.7003106 C126.180905,67.7003106 128.842127,71.1870165 128.525963,74.3972988 C128.525963,74.3972988 129.723618,76.0034871 131.561977,74.8307812 C131.561977,74.8307812 131.832077,74.0873694 131.11809,73.2622871 C130.408291,72.4392988 129.723618,72.1691576 129.993719,69.1892282 C129.993719,69.1892282 129.227387,67.5097459 126.180905,67.7003106" id="Fill-70" fill="#F3BC46"></path>
                    <path d="M130.855318,69.7544306 C130.855318,69.7544306 130.601968,71.2538188 131.045854,71.9721012 C131.48974,72.6903835 132.017379,73.2851129 132.333543,73.7688541 C132.333543,73.7688541 132.036223,70.5145953 130.855318,69.7544306" id="Fill-72" fill="#FEFEFE"></path>
                    <path d="M125.763819,69.48052 C125.763819,69.48052 124.622697,69.8176729 125.594221,71.1914141 C126.565745,72.5651553 126.927973,73.1787318 127.03057,73.5158847 C127.03057,73.5158847 127.68593,70.7055788 125.763819,69.48052" id="Fill-74" fill="#FEFEFE"></path>
                    <path d="M110.322027,70.3466471 C110.322027,70.3466471 109.224874,70.8953059 110.721943,72.1224588 C112.223199,73.3475176 112.941374,75.0793529 112.941374,75.0793529 C112.941374,75.0793529 112.644054,71.4020824 110.322027,70.3466471" id="Fill-76" fill="#FEFEFE"></path>
                    <path d="M109.794598,68.1706494 C109.794598,68.1706494 113.257747,71.2134024 114.059673,73.1148612 C114.865787,75.01632 114.610343,76.4110024 119.869975,75.4183906 C119.869975,75.4183906 119.765285,74.1702965 117.715452,71.6573553 C115.667714,69.14232 117.694514,68.3402729 117.694514,68.3402729 C117.694514,68.3402729 116.130444,66.1644847 114.526591,66.1205082 C112.918551,66.0786259 110.975503,67.2827435 109.794598,68.1706494" id="Fill-78" fill="#F3BC46"></path>
                    <path d="M118.22299,66.6277035 C118.22299,66.6277035 120.484296,69.0359388 121.560511,72.3739624 C122.638819,75.7119859 122.025335,75.4585976 126.03706,75.1633271 C126.03706,75.1633271 126.018216,74.0869506 124.519054,71.8462447 C123.017797,69.6076329 124.454146,68.5501035 124.642588,68.4035153 C124.642588,68.4035153 124.198702,66.8392094 122.153057,66.4790212 C120.101131,66.1209271 118.22299,66.6277035 118.22299,66.6277035" id="Fill-80" fill="#F3BC46"></path>
                    <path d="M91.4246231,85.5166447 C91.4246231,85.5166447 92.1846734,85.2213741 92.4840871,85.1355153 C92.4840871,85.1355153 92.9886935,86.6579388 96.6214405,87.5018682 C96.6214405,87.5018682 93.0326633,87.9667624 91.4246231,85.5166447" id="Fill-82" fill="#231F20"></path>
                    <path d="M93.095268,83.7843906 C93.095268,83.7843906 94.1505444,83.5938259 95.0173786,83.6587435 C95.0173786,83.6587435 95.5219849,85.4324612 100.149288,86.5946965 C100.149288,86.5946965 95.3335427,87.5244847 93.095268,83.7843906" id="Fill-84" fill="#231F20"></path>
                    <path d="M71.7994137,90.1546965 C71.7994137,90.1546965 72.1825796,84.4189082 74.7453936,80.8358729 C77.3144891,77.2549318 79.2470687,76.1471435 80.6708543,73.3263671 C80.6708543,73.3263671 80.5138191,74.6561318 77.6934673,78.4590494 C74.8752094,82.2640612 74.3015075,86.3517788 74.4606365,88.4752141 L71.7994137,90.1546965 Z" id="Fill-86" fill="#231F20"></path>
                    <path d="M70.5213568,94.0740471 C70.5213568,94.0740471 69.8680905,95.7849412 70.2470687,96.8843529 C70.2470687,96.8843529 71.9367672,97.0309412 74.1771357,95.5964706 C74.1771357,95.5964706 71.281407,96.4613412 70.5213568,94.0740471" id="Fill-88" fill="#231F20"></path>
                    <path d="M70.8607621,101.394245 C70.8607621,101.394245 71.9390704,104.395115 72.8226549,105.789798 C72.8226549,105.789798 75.0211474,105.26208 77.4499581,103.611915 C77.4499581,103.611915 81.084799,104.141727 82.9440955,102.979492 C82.9440955,102.979492 81.0010469,103.570033 77.7682161,102.451774 L73.096943,103.930221 L70.8607621,101.394245 Z" id="Fill-90" fill="#231F20"></path>
                    <path d="M87.868928,145.365689 C87.868928,145.365689 89.7868509,144.002419 90.6725293,143.051689 C90.6725293,143.051689 88.6603853,146.077689 87.8207705,148.502678 C87.8207705,148.502678 87.9484925,146.063031 87.868928,145.365689" id="Fill-92" fill="#231F20"></path>
                    <path d="M99.233459,145.435214 C99.233459,145.435214 97.3636935,149.682085 97.3008794,154.023191 C97.2380653,158.366391 97.6191374,160.077285 95.3368928,164.005849 C95.3368928,164.005849 95.906407,161.882414 95.8100921,160.868861 C95.8100921,160.868861 95.1777638,162.728438 93.5299414,163.467661 C93.5299414,163.467661 94.4805276,162.09392 94.7129397,158.967402 C94.7129397,158.967402 93.1069933,161.587144 91.0362228,162.475049 C91.0362228,162.475049 92.8955193,160.74112 92.8012982,152.915402 L99.233459,145.435214 Z" id="Fill-94" fill="#231F20"></path>
                    <path d="M43.0177973,162.317991 C43.0177973,162.317991 44.4122697,161.113873 44.7598409,154.90272 C45.1095059,148.691567 49.5776801,144.951473 49.5776801,144.951473 C49.5776801,144.951473 39.9420017,149.229755 39.8477806,158.230273 C39.8477806,158.230273 40.5785176,156.044014 41.2401591,155.028367 C41.2401591,155.028367 41.1899079,155.440908 41.464196,156.561261 C41.7405779,157.681614 41.9478643,158.695167 40.1346315,162.879214 C40.1346315,162.879214 41.696608,162.160932 42.9445142,159.750602 C42.9445142,159.750602 43.1538945,160.238532 43.0177973,162.317991" id="Fill-96" fill="#231F20"></path>
                    <path d="M32.7389028,151.554016 C32.7389028,151.554016 33.7523032,148.785593 34.0056533,147.011875 C34.2610972,145.236064 34.5353853,145.215122 35.4001256,144.561758 C36.2690536,143.906299 38.7376466,141.560887 39.7552345,140.335828 C39.7552345,140.335828 38.5282663,142.890652 37.366206,144.180628 C36.2041457,145.468511 35.9926717,145.236064 35.3582496,147.011875 C34.7238275,148.785593 33.584799,150.37084 32.7389028,151.554016" id="Fill-98" fill="#231F20"></path>
                    <path d="M96.2154523,172.079929 C96.2154523,172.079929 94.9110134,174.3688 94.1865578,173.405506 L96.2154523,172.079929 Z" id="Fill-100" fill="#FEFEFE"></path>
                    <path d="M26.2795226,170.860106 C26.2795226,170.860106 27.3431742,171.5742 28.2435092,170.703047 C29.1480318,169.8298 28.9281826,168.246647 28.1806951,169.323024 C27.4373953,170.401494 27.1505444,170.717706 26.2795226,170.860106" id="Fill-102" fill="#FEFEFE"></path>
                    <path d="M31.1603853,172.761984 C31.1603853,172.761984 31.8890285,173.570313 32.9484925,172.793395 C34.0121441,172.016478 34.0121441,170.766289 33.1725293,171.478289 C32.3329146,172.192384 32.1109715,172.523254 31.1603853,172.761984" id="Fill-104" fill="#FEFEFE"></path>
                    <path d="M37.5134003,172.270075 C37.5134003,172.270075 38.9225293,172.506711 39.7160804,171.558075 C40.5096315,170.605252 39.858459,169.702687 39.1612228,170.622005 C38.4639866,171.541322 38.131072,171.905699 37.5134003,172.270075" id="Fill-106" fill="#FEFEFE"></path>
                    <path d="M43.3653685,169.675045 C43.3653685,169.675045 43.5894054,170.282339 42.9989531,170.874974 C42.406407,171.467609 41.6023869,171.184904 41.6023869,171.184904 L43.3653685,169.675045 Z" id="Fill-108" fill="#FEFEFE"></path>
                    <path d="M91.2979481,173.231275 C91.2979481,173.231275 92.443258,173.541205 93.1760888,172.854334 C93.9089196,172.167464 93.4461893,171.396828 92.7950168,172.064852 C92.1438442,172.734969 91.8381491,172.99464 91.2979481,173.231275" id="Fill-110" fill="#FEFEFE"></path>
                    <path d="M85.9018007,171.617758 C85.9018007,171.617758 87.4072446,172.12244 88.4373953,171.414628 C89.4675461,170.706816 88.9085008,169.749805 87.9872278,170.447146 C87.0680486,171.144487 86.6409129,171.41044 85.9018007,171.617758" id="Fill-112" fill="#FEFEFE"></path>
                    <path d="M80.8615997,169.401972 C80.8615997,169.401972 81.8121859,169.322395 82.8130235,168.482654 C83.8075796,167.642913 84.3017169,168.024042 84.3812814,168.118278 C84.4608459,168.212513 84.9822027,168.958019 83.1899079,169.592536 C81.4018007,170.22496 80.8615997,169.401972 80.8615997,169.401972" id="Fill-114" fill="#FEFEFE"></path>
                    <path d="M51.0025126,123.357979 C51.0025126,123.357979 50.8329146,120.10372 52.9874372,115.961555 C55.1419598,111.821485 57.2546064,109.750402 57.6356784,105.229202 C57.6356784,105.229202 57.1289782,107.723296 52.608459,113.216167 C48.0879397,118.709038 47.6231156,123.232332 46.9886935,127.244661 L51.0025126,123.357979 Z" id="Fill-116" fill="#231F20"></path>
                    <path d="M85.6585008,61.7368918 C85.6585008,61.7368918 95.8615997,55.1027271 101.690745,52.4620447 L99.9591709,55.3561153 C99.9591709,55.3561153 94.8272613,57.2052212 85.6585008,61.7368918" id="Fill-118" fill="#231F20"></path>
                    <path d="M114.356365,42.4255671 C109.350084,47.5917553 105.516332,55.0070259 105.516332,55.0070259 C114.672529,50.9193082 121.295226,50.2219671 121.295226,50.2219671 C119.394054,54.1840376 117.461474,61.5678965 117.461474,61.5678965 C119.299832,59.5386965 123.418342,56.7828376 123.418342,56.7828376 C126.431323,60.9333788 133.244556,64.1038729 137.93258,66.4492847 C142.622697,68.7926024 145.219012,72.3442259 145.219012,72.3442259 C144.649497,69.6490965 143.606784,67.4000141 143.606784,67.4000141 C146.933836,68.3821553 154.09464,73.66352 154.09464,73.66352 C160.514238,68.8889318 163.726131,64.0284847 163.726131,64.0284847 C164.994975,66.6482259 164.911223,69.5653318 164.911223,69.5653318 C169.852596,63.5217082 169.724874,52.87312 169.724874,52.87312 C171.837521,53.0846259 176.739112,56.8875435 176.739112,56.8875435 C178.430905,52.6616141 179.781407,46.0693318 177.880235,42.0130259 C175.981156,37.95672 172.090871,36.4992141 172.090871,36.4992141 C172.281407,34.5349318 170.98325,33.3936376 170.98325,33.3936376 C171.967337,31.8083906 171.2366,30.3508847 171.2366,30.3508847 C173.70938,30.0346729 177.612228,31.2953318 177.612228,31.2953318 C172.497069,26.3741553 164.048576,21.9911671 143.294807,24.1941788 C122.465662,26.4055671 107.005025,38.63312 107.005025,38.63312 C107.005025,38.63312 110.491206,37.95672 112.074121,38.24152 C112.074121,38.24152 109.06742,40.3649553 107.195561,43.8830729 L110.838777,42.3941553 L114.356365,42.4255671 Z" id="Fill-120" fill="#231F20"></path>
                    <path d="M152.488484,37.4501529 C152.488484,37.4501529 151.104481,37.5548588 150.174832,36.5936588 C149.245184,35.6324588 149.456658,33.7645059 149.456658,33.7645059 C149.456658,33.7645059 151.177764,34.0597765 152.538735,34.7675882 C152.538735,34.7675882 151.768216,35.7183176 152.488484,37.4501529" id="Fill-122" fill="#FEFEFE"></path>
                    <path d="M153.343174,35.0092494 C153.343174,35.0092494 153.500209,35.0406612 153.828936,35.1998141 C153.828936,35.1998141 153.376675,36.6677906 153.479271,37.3023082 C153.479271,37.3023082 153.089824,36.5295788 153.343174,35.0092494" id="Fill-124" fill="#FEFEFE"></path>
                    <path d="M157.706658,36.1903318 C157.706658,36.1903318 156.875419,36.08772 156.104899,35.9055318 C156.104899,35.9055318 156.343593,36.2615318 156.249372,36.8562612 C156.249372,36.8562612 157.359087,36.3641435 157.706658,36.1903318" id="Fill-126" fill="#FEFEFE"></path>
                    <path d="M168.860553,35.4429412 C168.860553,35.4429412 170.012144,35.6858588 170.686348,35.9811294 C170.686348,35.9811294 170.843384,35.2837882 170.286432,34.4712706 C170.286432,34.4712706 169.809045,35.0199294 168.860553,35.4429412" id="Fill-128" fill="#FEFEFE"></path>
                    <path d="M140.657663,57.2684635 C140.657663,57.2684635 150.037898,53.0425341 160.113275,51.7755929 C170.190745,50.5065576 171.710846,51.2688165 175.957077,53.8026988 C175.957077,53.8026988 180.712102,42.3939459 171.648032,38.0214282 C162.586055,33.6468165 156.120394,35.1901812 149.910176,47.0010047 C149.910176,47.0010047 147.121231,47.5496635 144.966709,48.7747224 C144.966709,48.7747224 142.305486,52.8729106 140.657663,57.2684635" id="Fill-130" fill="#F3BC46"></path>
                    <path d="M121.116206,55.5148494 C122.510678,51.5632494 124.654732,48.0681671 124.654732,48.0681671 C118.193258,48.2252259 110.902638,50.4764024 110.902638,50.4764024 C114.420226,44.6442847 119.870394,40.3345906 119.870394,40.3345906 C117.271985,40.4288259 111.947446,41.3795553 111.947446,41.3795553 C115.718384,37.2918376 120.885888,34.3768259 120.885888,34.3768259 C120.188652,34.3454141 118.013191,34.5757671 118.013191,34.5757671 C118.013191,34.5757671 128.743928,27.8159553 146.486809,26.1260024 C164.233878,24.4360494 171.076424,28.7038612 171.076424,28.7038612 C169.198283,28.4923553 167.020729,28.5447082 167.020729,28.5447082 C167.464615,28.7352729 170.222152,30.0336259 169.681951,32.4104494 C169.143844,34.7872729 165.12165,34.3119082 165.12165,34.3119082 C165.375,30.9529435 162.267797,28.3541435 162.267797,28.3541435 C164.453727,31.7780259 163.632956,34.3119082 163.632956,34.3119082 C159.922739,35.9599788 156.976759,34.7558612 151.557998,33.0763788 C146.139238,31.3968965 144.968802,32.5486612 144.968802,32.5486612 C146.721315,32.7392259 148.201633,33.4575082 148.201633,33.4575082 C147.851968,40.0183788 154.663107,38.40172 154.663107,38.40172 C154.663107,38.40172 152.15892,40.3031788 148.737647,46.0703788 C148.737647,46.0703788 145.917295,46.7363082 143.923995,47.8776024 C143.923995,47.8776024 139.610762,55.1672259 138.21629,59.9836965 C138.21629,59.9836965 151.811348,52.5998376 167.401801,52.5998376 C167.401801,52.5998376 167.816374,58.6832494 165.626256,63.6274612 C165.626256,63.6274612 164.487228,60.8716024 163.821399,60.04652 C163.821399,60.04652 160.590662,65.3090376 154.313442,70.8542612 C154.313442,70.8542612 146.551717,64.6431082 138.850712,62.7730612 C138.850712,62.7730612 140.088149,64.4211318 140.751884,65.8472259 C140.751884,65.8472259 138.281198,64.5153671 136.189489,63.5018141 C134.097781,62.4882612 125.954983,58.8424024 124.307161,53.6133906 L121.116206,55.5148494 Z" id="Fill-132" fill="#FEFEFE"></path>
                    <path d="M143.319933,54.5957412 C143.319933,54.5957412 145.631491,50.0954824 146.362228,49.1133412 C146.362228,49.1133412 160.242044,47.6872471 165.974874,49.3667294 C165.974874,49.3667294 158.952261,49.4714353 143.319933,54.5957412" id="Fill-134" fill="#231F20"></path>
                    <path d="M145.315536,52.9156306 C145.315536,52.9156306 152.068049,50.9199365 161.634631,49.2718659 C161.634631,49.2718659 151.146776,49.0813012 146.963358,50.0320306 C146.963358,50.0320306 146.490159,50.69796 146.383375,50.9513482 C146.383375,50.9513482 149.297948,50.59116 151.684883,50.4655129 C151.684883,50.4655129 147.45959,51.2885012 145.769891,52.0486659 C145.769891,52.0486659 145.409757,52.7250659 145.315536,52.9156306" id="Fill-136" fill="#FEFEFE"></path>
                    <path d="M157.747487,39.8171341 C157.747487,39.8171341 160.197236,37.7251106 162.184255,36.75344 C162.184255,36.75344 163.536851,37.5136047 164.234087,37.99944 C164.234087,37.99944 161.447236,37.8319106 157.747487,39.8171341" id="Fill-138" fill="#231F20"></path>
                </g>
            </g>
        </g>
    </g>
</svg>