<?xml version="1.0" encoding="UTF-8"?>
<svg width="200px" height="200px" viewBox="0 0 200 200" version="1.1" xmlns="http://www.w3.org/2000/svg" xmlns:xlink="http://www.w3.org/1999/xlink">
    <!-- Generator: Sketch 60.1 (88133) - https://sketch.com -->
    <title>shaw</title>
    <desc>Created with Sketch.</desc>
    <g id="shaw" stroke="none" stroke-width="1" fill="none" fill-rule="evenodd">
        <g id="shaw_BGD" transform="translate(0.000000, 0.000000)">
            <g id="Shaw-Athletics-Primary-EPS[1]" transform="translate(0.000000, 29.000000)">
                <path d="M199.717983,115.346218 L178.311261,115.346218 L179.240672,112.023529 L174.41916,112.023529 L174.627563,111.278655 L193.495462,67.8043697 C193.763697,67.4833613 193.908571,67.1384874 193.994958,66.9334454 C194.053109,66.7952941 194.10958,66.6534454 194.163697,66.5089076 C195.067899,65.7842017 196.797647,64.092437 196.94521,61.6796639 L196.956975,61.6594958 L196.956303,61.307563 C196.958319,61.2668908 196.958992,61.2258824 196.958992,61.1858824 L196.958992,61.1831933 C196.958319,61.0884034 196.95395,60.9929412 196.946218,60.897479 C196.787899,57.0497479 194.683025,54.2631933 189.914622,51.5831933 C185.506891,49.1055462 180.087059,47.3445378 174.933109,46.7035294 C172.933109,42.5784874 169.666218,40.509916 168.383193,39.8245378 C165.129076,36.2732773 160.561345,34.9055462 159.287059,34.5801681 C155.977479,32.7576471 152.351261,31.9704202 148.506218,32.2423529 C148.001345,32.2779832 147.49042,32.3327731 146.977479,32.4067227 C146.914958,32.182521 146.845378,31.9589916 146.768739,31.737479 C145.789244,28.8951261 143.889748,26.6742857 142.203025,24.702521 C141.809748,24.2420168 141.429244,23.7973109 141.097143,23.3815126 C141.73479,22.4897479 142.068235,21.629916 142.228235,21.1139496 C142.711597,20.4356303 143.562689,19.0262185 143.848403,17.1872269 C145.552605,13.2389916 144.615126,9.46285714 143.215462,7.27865546 C142.858487,4.88033613 141.517647,1.82453782 137.292437,0.228235294 L136.911933,0.0843697479 L136.505882,0.0961344538 C131.770756,0.231932773 128.959664,2.17411765 127.563697,3.53176471 C126.901176,3.21680672 126.242353,2.95697479 125.594958,2.75563025 C123.714958,1.64134454 121.177815,0.979495798 118.767395,0.979495798 C116.643025,0.979495798 114.650756,1.48470588 112.953613,2.44739496 C111.257143,1.48470588 109.264874,0.979495798 107.140504,0.979495798 C104.73042,0.979495798 102.192941,1.64134454 100.312269,2.75563025 C99.6642017,2.95731092 99.0057143,3.21714286 98.3435294,3.53176471 C96.9478992,2.17411765 94.1368067,0.231596639 89.4023529,0.0961344538 L88.9973109,0.0843697479 L88.6151261,0.22789916 C84.3902521,1.82453782 83.0490756,4.88033613 82.6914286,7.2789916 C81.292437,9.46386555 80.3552941,13.24 82.0591597,17.1872269 C82.3448739,19.0268908 83.1959664,20.4356303 83.6796639,21.1139496 C83.8393277,21.629916 84.1727731,22.4897479 84.810084,23.3818487 C84.4793277,23.7959664 84.0971429,24.2430252 83.6937815,24.7152941 C82.0178151,26.6746218 80.1179832,28.8954622 79.1388235,31.737479 C79.0618487,31.96 78.9922689,32.1835294 78.9297479,32.4077311 C78.4144538,32.3334454 77.9015126,32.2779832 77.3946218,32.2423529 C73.5519328,31.9707563 69.9240336,32.7579832 66.6137815,34.5801681 C65.3398319,34.9055462 60.7717647,36.2732773 57.5179832,39.8248739 C56.2517647,40.5011765 53.034958,42.5364706 51.0278992,46.5885714 C45.8332773,47.2709244 40.1707563,49.1885714 35.7391597,51.7808403 C31.0181513,54.5428571 28.9620168,57.3657143 28.8692437,61.2144538 C28.8635294,61.3092437 28.8608403,61.405042 28.8618487,61.5089076 C28.8621849,61.542521 28.8635294,61.5764706 28.8658824,61.6201681 L28.8672269,61.9801681 L28.885042,62.0087395 C29.072605,64.2820168 30.687395,65.9048739 31.5519328,66.6191597 L31.8884034,67.1159664 C31.9008403,67.1455462 31.9129412,67.1741176 31.9243697,67.2 C32.0389916,67.4591597 32.2561345,67.9505882 32.7052101,68.3213445 L38.3270588,76.6194958 L37.5347899,79.3801681 L37.4783193,79.6036975 C37.1317647,81.0484034 37.0255462,82.4447059 37.1620168,83.7492437 C37.3314286,85.4248739 37.887395,86.9946218 38.8131092,88.4131092 C38.8682353,88.4981513 38.9247059,88.5828571 38.9818487,88.6672269 L34.9169748,88.6672269 L31.7556303,99.8036975 C31.1042017,101.999328 31.1865546,104.309244 31.9939496,106.482353 C32.5435294,107.962353 33.4036975,109.29479 34.5559664,110.451765 L33.1865546,115.346218 L7.54655462,115.346218 L23.3193277,128.57916 L0,142.521008 L46.8312605,142.521008 L48.5226891,136.47395 L146.333109,136.47395 L144.641681,142.521008 L190.895126,142.521008 L175.828908,128.985882 L199.717983,115.346218" id="Fill-1" fill="#FFFFFE"></path>
                <path d="M195.682689,61.192605 C195.682689,61.12 195.677983,61.0470588 195.671597,60.9741176 C195.547899,57.7791597 193.887731,55.2806723 189.289412,52.6957983 C184.570756,50.0436975 178.884034,48.3912605 174.070924,47.890084 C172.156975,43.4006723 168.555294,41.3368067 167.589244,40.8504202 C164.422185,37.2729412 159.786218,36.0104202 158.815126,35.7784874 C155.68437,34.0191597 152.247395,33.2581513 148.596303,33.5156303 C147.667227,33.5811765 146.796303,33.7095798 145.994286,33.8715966 C145.903529,33.3001681 145.76,32.7277311 145.561681,32.1529412 C144.661176,29.5398319 142.844034,27.4161345 141.242017,25.542521 C140.574118,24.7613445 139.935462,24.0144538 139.474622,23.3452101 C140.53042,22.2413445 140.938487,21.017479 141.06521,20.5401681 C141.418824,20.0766387 142.365042,18.6860504 142.609748,16.8322689 C144.173445,13.3593277 143.445714,9.81815126 141.989244,7.74184874 C141.738824,5.60268908 140.623193,2.85142857 136.840672,1.42218487 L136.696471,1.36773109 L136.542185,1.37243697 C132.252773,1.49512605 129.328739,3.28672269 127.84437,5.10857143 C127.098824,4.70016807 126.135798,4.24705882 125.070924,3.9307563 C123.368739,2.8810084 121.022857,2.25613445 118.767395,2.25613445 C116.581513,2.25613445 114.585546,2.83932773 112.953613,3.94957983 C111.322353,2.83932773 109.32605,2.25613445 107.140504,2.25613445 C104.885378,2.25613445 102.538824,2.8810084 100.835966,3.9307563 C99.772437,4.24705882 98.8084034,4.70016807 98.0628571,5.10857143 C96.5788235,3.28672269 93.6551261,1.49512605 89.3653782,1.37243697 L89.2114286,1.36773109 L89.0665546,1.42218487 C85.2847059,2.85142857 84.1684034,5.60268908 83.9173109,7.74184874 C82.4628571,9.81815126 81.7341176,13.3593277 83.297479,16.8322689 C83.5421849,18.6860504 84.4887395,20.0766387 84.8426891,20.5401681 C84.9690756,21.017479 85.3771429,22.2413445 86.432605,23.3452101 C85.9727731,24.0144538 85.3334454,24.7613445 84.6658824,25.542521 C83.0635294,27.4161345 81.2463866,29.5398319 80.3455462,32.1529412 C80.147563,32.7280672 80.0033613,33.3008403 79.9129412,33.872605 C79.1089076,33.7102521 78.2359664,33.5811765 77.3048739,33.5156303 C73.6537815,33.2581513 70.2164706,34.0191597 67.0857143,35.7784874 C66.114958,36.0104202 61.4789916,37.2729412 58.3115966,40.8504202 C57.3546218,41.332437 53.8114286,43.3660504 51.885042,47.7704202 C47.0047059,48.3082353 41.1754622,50.0796639 36.3835294,52.8830252 C31.8305882,55.5465546 30.2137815,58.0736134 30.1448739,61.269916 C30.1401681,61.3431933 30.137479,61.4161345 30.1378151,61.4884034 C30.1388235,61.5220168 30.1411765,61.5563025 30.1428571,61.5902521 C30.1428571,61.5989916 30.142521,61.607395 30.142521,61.6164706 L30.1442017,61.6188235 C30.1667227,63.6709244 31.7438655,65.1505882 32.5015126,65.7448739 L33.017479,66.5065546 C33.0426891,66.5663866 33.0689076,66.6312605 33.092437,66.6840336 C33.1932773,66.9136134 33.3458824,67.2564706 33.6339496,67.4164706 L39.7186555,76.3979832 L38.7616807,79.732437 L38.7196639,79.9015126 C38.4070588,81.205042 38.3105882,82.4594958 38.4319328,83.6208403 C38.5808403,85.0917647 39.0705882,86.4719328 39.8833613,87.7176471 C40.36,88.4504202 40.9337815,89.172437 41.5862185,89.8591597 C41.6114286,89.8857143 41.6379832,89.9132773 41.6678992,89.9438655 L35.8816807,89.9438655 L32.9794958,100.166723 C32.4070588,102.095462 32.48,104.125378 33.1909244,106.037647 C33.7589916,107.569076 34.7028571,108.915966 35.9929412,110.052437 L34.154958,116.622857 L11.0544538,116.622857 L25.5142857,128.754286 L4.62285714,141.24437 L45.862521,141.24437 L47.5542857,135.197311 L148.015798,135.197311 L146.32437,141.24437 L187.564034,141.24437 L173.66084,128.754286 L194.907563,116.622857 L171.806723,116.622857 L173.421849,110.850756 L192.413109,67.0917647 C192.61916,66.9109244 192.736134,66.6332773 192.818487,66.4383193 C192.899496,66.2453782 192.99395,66.0036975 193.089412,65.7226891 C193.560336,65.3855462 195.693445,63.7260504 195.678992,61.3230252 L195.680336,61.3203361 C195.680336,61.3115966 195.679664,61.3031933 195.679328,61.2944538 C195.680672,61.2605042 195.682689,61.2262185 195.682689,61.192605" id="Fill-3" fill="#1A1919"></path>
                <path d="M71.8968067,39.0937815 C71.8968067,39.0937815 76.2615126,38.4978151 80.9862185,39.9583193 C80.8117647,39.6137815 80.6554622,39.2702521 80.5196639,38.9277311 C80.0507563,38.370084 79.4369748,37.7586555 78.7989916,37.4601681 C78.7989916,37.4601681 79.2366387,37.389916 80.0763025,37.5435294 C79.9398319,36.9878992 79.8544538,36.4329412 79.8198319,35.8783193 C77.5166387,35.3865546 74.4884034,35.1976471 71.1092437,36.1579832 C71.1092437,36.1579832 74.5428571,36.2363025 77.4426891,38.1942857 C77.4426891,38.1942857 70.9485714,35.4393277 63.5915966,39.2144538 C63.5915966,39.2144538 67.3872269,38.389916 70.8467227,40.267563 C70.8467227,40.267563 60.0110924,39.1179832 54.3946218,46.9519328 C54.3946218,46.9519328 56.8621849,45.1633613 60.3021849,44.3939496 C60.3021849,44.3939496 58.0994958,45.2315966 55.6376471,47.6131092 C56.5781513,47.6477311 57.4433613,47.7462185 58.212437,47.9112605 C60.5115966,46.1405042 63.6030252,44.7401681 67.6927731,44.5757983 C67.6927731,44.5757983 66.2870588,43.4692437 62.5489076,43.8413445 C62.5489076,43.8413445 68.3667227,39.5337815 78.3660504,42.8373109 C78.3660504,42.8373109 76.3216807,40.2541176 71.8968067,39.0937815" id="Fill-4" fill="#55192A"></path>
                <path d="M154.004034,39.0937815 C154.004034,39.0937815 149.639328,38.4978151 144.914622,39.9583193 C145.089076,39.6137815 145.245714,39.2702521 145.381513,38.9277311 C145.85042,38.370084 146.464202,37.7586555 147.102185,37.4601681 C147.102185,37.4601681 146.664538,37.389916 145.824538,37.5435294 C145.961345,36.9878992 146.046723,36.4329412 146.081008,35.8783193 C148.384538,35.3865546 151.412773,35.1976471 154.791597,36.1579832 C154.791597,36.1579832 151.358319,36.2363025 148.458151,38.1942857 C148.458151,38.1942857 154.952605,35.4393277 162.309244,39.2144538 C162.309244,39.2144538 158.513613,38.389916 155.054118,40.267563 C155.054118,40.267563 165.890084,39.1179832 171.506555,46.9519328 C171.506555,46.9519328 169.038655,45.1633613 165.598992,44.3939496 C165.598992,44.3939496 167.801681,45.2315966 170.263529,47.6131092 C169.323025,47.6477311 168.457479,47.7462185 167.688403,47.9112605 C165.38958,46.1405042 162.297815,44.7401681 158.208403,44.5757983 C158.208403,44.5757983 159.614118,43.4692437 163.352269,43.8413445 C163.352269,43.8413445 157.534118,39.5337815 147.53479,42.8373109 C147.53479,42.8373109 149.57916,40.2541176 154.004034,39.0937815" id="Fill-5" fill="#55192A"></path>
                <path d="M130.775462,12.4104202 C131.993277,9.53983193 134.110924,8.66957983 134.110924,8.66957983 C131.09479,8.90184874 129.789916,11.2793277 129.789916,11.2793277 C129.789916,11.2793277 129.628908,6.81042017 135.285714,5.5287395 C136.533109,6.13142857 138.728403,7.72705882 139.735798,11.714958 C139.735798,11.714958 139.200672,10.9042017 138.322689,10.2662185 C138.717647,11.0171429 139.268571,12.6789916 138.749916,15.6292437 C138.749916,15.6292437 138.497479,14.8134454 137.722353,13.9294118 C137.529076,15.0638655 137.051765,16.8373109 135.877311,18.142521 C134.378151,16.8121008 134.287731,13.4568067 130.775462,12.4104202 Z M117.059832,9.91697479 C117.059832,9.91697479 117.098487,9.24201681 117.41479,8.42016807 C116.543529,8.84336134 114.220504,10.1408403 112.942185,12.4621849 C111.664538,10.1408403 109.34084,8.84336134 108.470588,8.42016807 C108.787227,9.24201681 108.824874,9.91697479 108.824874,9.91697479 C106.824538,6.98823529 103.258151,6.46621849 103.258151,6.46621849 C105.42084,5.7805042 107.471597,6.28201681 108.397311,6.59092437 C107.867899,5.83663866 107.171765,5.53815126 107.171765,5.53815126 C110.805378,5.7297479 112.366387,7.3989916 112.942185,8.27831933 C113.518319,7.3989916 115.079664,5.7297479 118.712941,5.53815126 C118.712941,5.53815126 118.017143,5.83663866 117.488067,6.59092437 C118.413109,6.28201681 120.464202,5.7805042 122.627899,6.46621849 C122.627899,6.46621849 119.061176,6.98823529 117.059832,9.91697479 Z M96.0951261,11.2793277 C96.0951261,11.2793277 94.789916,8.90184874 91.7751261,8.66957983 C91.7751261,8.66957983 93.8917647,9.53983193 95.1092437,12.4104202 C91.5969748,13.4568067 91.507563,16.8121008 90.007395,18.142521 C88.8336134,16.8373109 88.354958,15.0638655 88.1626891,13.9294118 C87.3882353,14.8134454 87.1347899,15.6292437 87.1347899,15.6292437 C86.6161345,12.6789916 87.167395,11.0171429 87.5623529,10.2662185 C86.6836975,10.9042017 86.1489076,11.714958 86.1489076,11.714958 C87.1556303,7.72705882 89.3512605,6.13142857 90.5993277,5.5287395 C96.2561345,6.81042017 96.0951261,11.2793277 96.0951261,11.2793277 Z M137.091429,20.1821849 C137.451429,21.5630252 138.079328,22.2678992 138.079328,22.2678992 C138.079328,22.2678992 139.596303,20.4208403 139.134454,17.3868908 C139.134454,17.3868908 139.959328,18.2114286 139.794622,19.7284034 C139.794622,19.7284034 142.334118,16.6944538 140.487059,13.4621849 C140.487059,13.4621849 141.443361,13.7919328 141.641681,15.012437 C141.641681,15.012437 143.389244,9.93344538 138.639664,6.37210084 C138.639664,6.37210084 139.69479,6.33882353 140.388235,7.13042017 C140.388235,7.13042017 140.031597,4.47058824 136.587563,2.91495798 C129.585546,3.13243697 126.76605,7.84369748 128.46958,10.1626891 C126.878655,9.01714286 127.195966,7.36235294 127.195966,7.36235294 C125.879664,6.58285714 124.733109,6.24672269 123.847731,6.11798319 C124.532773,5.7687395 125.096134,5.5805042 125.096134,5.5805042 C123.000672,4.6 120.976134,4.53512605 119.538487,4.69042017 C120.289076,4.17411765 120.896134,3.9892437 120.896134,3.9892437 C116.881008,3.05512605 114.132773,4.82756303 112.953613,5.83798319 C111.77479,4.82756303 109.026555,3.05512605 105.011429,3.9892437 C105.011429,3.9892437 105.618824,4.17411765 106.368739,4.69042017 C104.931429,4.53512605 102.907227,4.6 100.811429,5.5805042 C100.811429,5.5805042 101.374118,5.7687395 102.059832,6.11798319 C101.17479,6.24672269 100.028571,6.58285714 98.7105882,7.36235294 C98.7105882,7.36235294 99.0292437,9.01714286 97.4389916,10.1626891 C99.142521,7.84369748 96.3216807,3.13243697 89.32,2.91495798 C85.8759664,4.47058824 85.5196639,7.13042017 85.5196639,7.13042017 C86.212437,6.33882353 87.267563,6.37210084 87.267563,6.37210084 C82.5186555,9.93344538 84.2665546,15.012437 84.2665546,15.012437 C84.4642017,13.7919328 85.4205042,13.4621849 85.4205042,13.4621849 C83.5737815,16.6944538 86.1132773,19.7284034 86.1132773,19.7284034 C85.9485714,18.2114286 86.7731092,17.3868908 86.7731092,17.3868908 C86.3112605,20.4208403 87.8282353,22.2678992 87.8282353,22.2678992 C87.8282353,22.2678992 88.4564706,21.5630252 88.8164706,20.1821849 C90.052437,24.3357983 82.2416807,27.4742857 83.1445378,33.9089076 C84.8188235,29.3909244 88.8638655,26.8433613 90.5132773,23.1539496 C90.1909244,27.0806723 86.9068908,30.4289076 86.182521,33.1122689 C87.667563,32.4366387 88.9522689,32.3109244 88.9522689,32.3109244 C87.8645378,42.7519328 92.2551261,49.4242017 96.8658824,53.6305882 C98.7831933,50.6289076 101.051429,49.8433613 101.051429,49.8433613 C99.64,56.1778151 101.321008,58.4894118 101.321008,58.4894118 C102.086387,55.5731092 103.799664,53.7270588 104.467227,53.0941176 C104.369748,52.5011765 104.32605,51.8884034 104.32605,51.2645378 C104.32605,48.4689076 104.944874,45.7247059 104.77479,43.2309244 C101.722017,44.8460504 100.381176,46.5811765 100.381176,46.5811765 C99.9401681,42.9388235 101.260504,40.777479 101.260504,40.777479 C97.7381513,42.4984874 96.8188235,45.9405042 96.8188235,45.9405042 C95.417479,39.7364706 98.9794958,36.1334454 98.9794958,36.1334454 C96.2978151,36.4941176 95.417479,37.5347899 95.417479,37.5347899 C96.7845378,33.4991597 99.1031933,32.0302521 99.9226891,31.6221849 C99.7868908,30.8564706 99.7085714,30.0087395 99.7085714,29.0490756 C99.7085714,28.2776471 99.7882353,27.5616807 99.9105882,26.8931092 C97.0779832,28.0329412 95.7710924,30.1351261 95.7710924,30.1351261 C95.8692437,28.4598319 96.7566387,27.08 96.7566387,27.08 C92.1247059,29.6423529 90.6789916,35.4571429 90.6789916,35.4571429 C90.7294118,32.062521 91.672605,29.68 92.0910924,28.7858824 C90.7512605,29.4961345 89.7586555,30.4638655 89.7586555,30.4638655 C90.5142857,27.7368067 92.3539496,25.6339496 92.3539496,25.6339496 C96.2443697,24.6732773 97.4756303,21.9405042 97.8631933,20.4527731 C96.4110924,20.4020168 95.3768067,21.0678992 95.3768067,21.0678992 C96.1163025,19.0638655 97.3398319,17.874958 97.9556303,17.3737815 C96.6322689,17.367395 95.8366387,17.8484034 95.8366387,17.8484034 C97.6359664,15.7152941 99.0742857,15.2658824 99.8171429,15.1979832 C98.9942857,14.9764706 98.2322689,15.1206723 98.2322689,15.1206723 C102.460168,12.469916 104.147563,16.407395 108.081681,16.8702521 C109.256134,16.3657143 110.832605,16.0003361 112.941513,16.0003361 C115.037647,16.0003361 116.607731,16.3610084 117.779832,16.8611765 C121.657143,16.3542857 123.34958,12.4880672 127.548235,15.1206723 C127.548235,15.1206723 126.785546,14.9764706 125.963025,15.1979832 C126.705546,15.2658824 128.144202,15.7152941 129.943529,17.8484034 C129.943529,17.8484034 129.147899,17.367395 127.824874,17.3737815 C128.44,17.874958 129.663866,19.0638655 130.404034,21.0678992 C130.404034,21.0678992 129.369412,20.4020168 127.917311,20.4527731 C128.304202,21.9405042 129.535462,24.6732773 133.425882,25.6339496 C133.425882,25.6339496 135.265546,27.7368067 136.021176,30.4638655 C136.021176,30.4638655 135.028571,29.4961345 133.688739,28.7858824 C134.106555,29.68 135.050084,32.062521 135.101513,35.4571429 C135.101513,35.4571429 133.655798,29.6423529 129.023193,27.08 C129.023193,27.08 129.910924,28.4598319 130.009076,30.1351261 C130.009076,30.1351261 128.738151,28.0843697 125.979832,26.9351261 C126.097815,27.5919328 126.174118,28.2937815 126.174118,29.0490756 C126.174118,30.0211765 126.094454,30.8793277 125.956639,31.6531092 C126.823193,32.1001681 129.066891,33.5915966 130.402689,37.5347899 C130.402689,37.5347899 129.521681,36.4941176 126.84,36.1334454 C126.84,36.1334454 130.402689,39.7364706 129.001345,45.9405042 C129.001345,45.9405042 128.080336,42.4984874 124.557983,40.777479 C124.557983,40.777479 125.879664,42.9388235 125.438655,46.5811765 C125.438655,46.5811765 124.103866,44.8541176 121.065882,43.2420168 C120.892101,45.7539496 121.531429,48.4847059 121.531429,51.2645378 C121.531429,51.8991597 121.48605,52.5230252 121.384874,53.1257143 C122.07395,53.7862185 123.74521,55.6184874 124.497815,58.4894118 C124.497815,58.4894118 126.179496,56.1778151 124.768067,49.8433613 C124.768067,49.8433613 127.036639,50.6289076 128.953613,53.6305882 C133.563697,49.4242017 137.954958,42.7519328 136.866891,32.3109244 C136.866891,32.3109244 138.151933,32.4366387 139.636975,33.1122689 C138.912941,30.4289076 135.628571,27.0806723 135.305882,23.1539496 C136.974454,26.887395 141.09916,29.4497479 142.735798,34.0702521 C143.797983,27.4954622 135.799328,24.5415126 137.091429,20.1821849 L137.091429,20.1821849 Z" id="Fill-6" fill="#55192A"></path>
                <path d="M119.377479,33.2816807 C118.921008,31.3159664 117.368403,31.2097479 116.564706,32.0605042 C115.515966,30.594958 114.650084,31.7468908 114.650084,31.7468908 C113.765714,30.6369748 113.00605,31.6477311 112.94521,31.7314286 C112.885042,31.6477311 112.125042,30.6369748 111.241008,31.7468908 C111.241008,31.7468908 110.375798,30.594958 109.32605,32.0605042 C108.522353,31.2097479 106.969748,31.3159664 106.513613,33.2816807 C106.057815,35.247395 107.325042,37.6645378 108.655798,38.0964706 C109.52,38.3771429 109.148571,37.912605 108.831933,37.2947899 C108.303529,36.2615126 108.432269,34.6584874 108.731092,34.1502521 C109.029244,33.6413445 109.44437,33.3354622 109.44437,33.3354622 C109.44437,33.3354622 110.135462,35.2134454 111.168067,33.2507563 C111.168067,33.2507563 112.069916,34.647395 112.94521,33.1747899 C113.821513,34.647395 114.723025,33.2507563 114.723025,33.2507563 C115.756639,35.2134454 116.445714,33.3354622 116.445714,33.3354622 C116.445714,33.3354622 116.861513,33.6413445 117.160336,34.1502521 C117.458487,34.6584874 117.587227,36.2615126 117.058487,37.2947899 C116.742521,37.912605 116.371092,38.3771429 117.235294,38.0964706 C118.56605,37.6645378 119.833613,35.247395 119.377479,33.2816807" id="Fill-7" fill="#FFFFFE"></path>
                <path d="M116.368739,44.7031933 C116.074958,44.5408403 115.924706,44.4810084 116.063193,45.0171429 C116.299496,45.9287395 115.58958,47.5310924 115.62958,48.1983193 C115.62958,48.1983193 114.86958,47.6742857 114.389244,48.6151261 C114.389244,48.6151261 113.563025,47.9183193 112.942521,48.9583193 C112.323025,47.9183193 111.496807,48.6151261 111.496807,48.6151261 C111.016134,47.6742857 110.255462,48.1983193 110.255462,48.1983193 C110.295798,47.5310924 109.586555,45.9287395 109.821513,45.0171429 C109.961345,44.4810084 109.811429,44.5408403 109.516639,44.7031933 C108.827563,45.0823529 107.863193,46.8658824 108.263193,48.5821849 C108.663193,50.2984874 109.825546,49.8994958 109.825546,49.8994958 C110.42521,51.3294118 111.407059,50.509916 111.407059,50.509916 C111.990588,51.5284034 112.738487,50.885042 112.942521,50.6773109 C113.147563,50.885042 113.895126,51.5284034 114.479328,50.509916 C114.479328,50.509916 115.460168,51.3294118 116.06084,49.8994958 C116.06084,49.8994958 117.222857,50.2984874 117.622857,48.5821849 C118.023529,46.8658824 117.058151,45.0823529 116.368739,44.7031933" id="Fill-8" fill="#FFFFFE"></path>
                <path d="M112.936134,26.8463866 C111.143193,25.222521 105.861849,26.5203361 105.861849,22.1405042 C105.861849,18.4793277 109.771092,17.4245378 112.936134,17.4245378 C116.101176,17.4245378 120.010084,18.4793277 120.010084,22.1405042 C120.010084,26.5203361 114.728067,25.222521 112.936134,26.8463866 Z M120.357311,20.0719328 C120.357311,20.0719328 119.203361,16.7206723 112.941513,16.7206723 C106.678992,16.7206723 105.525042,20.0719328 105.525042,20.0719328 C103.767059,20.0719328 97.0652101,26.9384874 102.558655,36.0578151 C101.845042,31.0036975 105.909244,29.850084 109.096134,29.3552941 C110.883697,29.0779832 112.10084,28.5929412 112.941513,27.8228571 C113.781513,28.5929412 114.998992,29.0779832 116.786555,29.3552941 C119.972773,29.850084 124.037983,31.0036975 123.324034,36.0578151 C128.817143,26.9384874 122.11563,20.0719328 120.357311,20.0719328 L120.357311,20.0719328 Z" id="Fill-9" fill="#55192A"></path>
                <path d="M119.704202,42.0527731 C118.018824,46.892437 123.289076,54.8510924 112.928739,54.8510924 C102.568403,54.8510924 107.837983,46.892437 106.152941,42.0527731 C106.653445,46.2752941 100.442017,57.9603361 112.928739,58.005042 C125.415462,57.9603361 119.203361,46.2752941 119.704202,42.0527731" id="Fill-10" fill="#55192A"></path>
                <path d="M112.93479,29.152605 C110.784874,30.4383193 106.945546,29.2652101 106.143529,32.2013445 C106.653445,31.2121008 107.487059,30.8339496 108.19563,30.8339496 C108.552269,30.8339496 108.90521,30.9243697 109.22521,31.0914286 C109.59563,30.7623529 109.998319,30.5959664 110.426218,30.5959664 C110.731092,30.5959664 110.993277,30.6840336 111.20437,30.7983193 C111.541849,30.5694118 111.858487,30.509916 112.098487,30.509916 C112.432941,30.509916 112.718655,30.622521 112.94521,30.7647059 C113.172101,30.622521 113.457479,30.509916 113.793277,30.509916 C114.031933,30.509916 114.348908,30.5694118 114.686387,30.7979832 C114.897815,30.6840336 115.159664,30.5959664 115.464538,30.5959664 C115.892437,30.5959664 116.29479,30.7623529 116.66521,31.0914286 C116.98521,30.9243697 117.337815,30.8339496 117.695126,30.8339496 C118.381513,30.8339496 119.185546,31.1885714 119.699832,32.1109244 C118.842353,29.290084 115.061176,30.4242017 112.93479,29.152605" id="Fill-11" fill="#55192A"></path>
                <path d="M105.839328,40.5065546 C104.999328,36.9102521 101.989244,34.2131092 105.468571,31.6134454 C103.807731,33.2551261 105.722689,37.789916 105.839328,40.5065546" id="Fill-12" fill="#55192A"></path>
                <path d="M120.02958,40.5065546 C120.870252,36.9102521 123.88,34.2131092 120.401345,31.6134454 C122.062185,33.2551261 120.147227,37.789916 120.02958,40.5065546" id="Fill-13" fill="#55192A"></path>
                <path d="M109.169748,44.0719328 C109.324706,43.9862185 109.537815,43.8689076 109.791933,43.8689076 C110.041345,43.8689076 110.270588,43.9798319 110.421176,44.1744538 C110.693782,44.5263866 110.58084,44.9636975 110.520336,45.1979832 C110.424202,45.5667227 110.613782,46.3236975 110.751261,46.8766387 C110.791261,47.0369748 110.830252,47.1912605 110.863866,47.3381513 C111.100168,47.3593277 111.418824,47.4457143 111.717311,47.7176471 C111.837983,47.6867227 111.972101,47.6658824 112.116303,47.6658824 C112.316975,47.6658824 112.625546,47.7095798 112.942521,47.9179832 C113.261176,47.7095798 113.569076,47.6658824 113.769748,47.6658824 C113.913277,47.6658824 114.047395,47.6867227 114.169748,47.7176471 C114.466555,47.4457143 114.786218,47.3593277 115.022857,47.3381513 C115.055798,47.1912605 115.095126,47.0369748 115.135126,46.8766387 C115.272269,46.3236975 115.461513,45.5667227 115.36605,45.1973109 C115.30521,44.9636975 115.192605,44.5263866 115.464538,44.1744538 C115.614454,43.9798319 115.84437,43.8689076 116.093109,43.8689076 C116.339832,43.8689076 116.546891,43.9788235 116.70084,44.0635294 L116.70084,42.210084 C116.70084,41.1337815 115.827899,40.2611765 114.752269,40.2611765 C113.921008,40.2611765 113.21479,40.7808403 112.933782,41.5119328 C112.652773,40.7808403 111.945546,40.2611765 111.11563,40.2611765 C110.039328,40.2611765 109.166723,41.1337815 109.166723,42.210084 L109.166723,44.0742857 C109.167395,44.0729412 109.169412,44.0722689 109.169748,44.0719328" id="Fill-14" fill="#55192A"></path>
                <path d="M112.938487,19.7478992 C113.714622,17.8702521 116.515294,18.7398319 116.883025,18.8379832 C115.432269,18.2248739 113.719328,18.1452101 112.936134,18.1452101 C112.151933,18.1452101 110.432269,18.2252101 108.980504,18.8413445 C109.351597,18.7411765 112.162689,17.8581513 112.938487,19.7478992" id="Fill-15" fill="#FFFFFE"></path>
                <path d="M108.14958,22.6184874 C107.691092,22.0413445 108.059496,20.9865546 108.973109,20.262521 C109.886723,19.5384874 110.997647,19.4194958 111.455462,19.9973109 C111.61042,20.1922689 111.670588,20.4430252 111.647059,20.7169748 C112.150588,19.3744538 110.455126,18.5384874 108.712269,19.9119328 C107.714622,20.6978151 107.108571,22.0060504 108.14958,22.6184874" id="Fill-16" fill="#1A1919"></path>
                <path d="M117.728739,22.6184874 C118.186218,22.0413445 117.817479,20.9865546 116.903866,20.262521 C115.991261,19.5384874 114.879664,19.4194958 114.422185,19.9973109 C114.267227,20.1922689 114.206723,20.4430252 114.231261,20.7169748 C113.726723,19.3744538 115.421849,18.5384874 117.165714,19.9119328 C118.162689,20.6978151 118.769076,22.0060504 117.728739,22.6184874" id="Fill-17" fill="#1A1919"></path>
                <path d="M112.93916,22.4477311 C112.049076,23.8084034 109.87563,24.8188235 107.721345,23.8272269 C109.007731,25.4484034 111.399328,24.6729412 112.93916,25.5028571 C114.479328,24.6729412 116.870252,25.4484034 118.156303,23.8272269 C116.002353,24.8188235 113.827899,23.8084034 112.93916,22.4477311" id="Fill-18" fill="#1A1919"></path>
                <path d="M103.796975,18.2897479 C103.801345,18.3257143 103.804706,18.3704202 103.804706,18.4063866 C103.804706,18.9969748 103.32605,19.4752941 102.736134,19.4752941 C102.14521,19.4752941 101.666891,18.9969748 101.666891,18.4063866 C101.666891,18.1089076 101.78958,17.8396639 101.985882,17.6457143 C101.50521,17.4759664 101.020504,17.4205042 100.468235,17.7492437 C100.468235,17.7492437 100.866555,17.6917647 101.256471,17.8164706 C101.183193,17.9993277 101.141849,18.1979832 101.141849,18.4063866 C101.141849,19.287395 101.855798,20.0006723 102.736134,20.0006723 C103.538824,20.0006723 104.203025,19.4053782 104.311597,18.6315966 C104.486387,18.5529412 104.731092,18.4047059 104.904202,18.1438655 C104.49916,18.3072269 104.136134,18.332437 103.796975,18.2897479" id="Fill-19" fill="#FFFFFE"></path>
                <path d="M103.50084,18.2393277 C103.428571,18.2215126 103.358319,18.2020168 103.287395,18.1794958 C103.289748,18.2047059 103.292101,18.2305882 103.292101,18.2568067 C103.292101,18.6463866 102.977143,18.9620168 102.587563,18.9620168 C102.327395,18.9620168 102.100504,18.8211765 101.978487,18.6114286 C102.069244,18.9455462 102.373109,19.1919328 102.736134,19.1919328 C103.169076,19.1919328 103.521008,18.8403361 103.521008,18.4063866 C103.521008,18.3492437 103.512605,18.2934454 103.50084,18.2393277" id="Fill-20" fill="#55192A"></path>
                <path d="M102.551597,17.9035294 C102.453782,17.9035294 102.372437,17.9569748 102.323025,18.032605 C102.342185,18.0631933 102.355966,18.0971429 102.355966,18.1357983 C102.355966,18.1919328 102.332101,18.2426891 102.29479,18.2789916 C102.334454,18.3828571 102.433277,18.457479 102.551597,18.457479 C102.704538,18.457479 102.828571,18.3334454 102.828571,18.1801681 C102.828571,18.0272269 102.704538,17.9035294 102.551597,17.9035294" id="Fill-21" fill="#FFFFFE"></path>
                <path d="M102.355966,18.1357983 C102.355966,18.2460504 102.266218,18.3354622 102.156303,18.3354622 C102.045714,18.3354622 101.956639,18.2460504 101.956639,18.1357983 C101.956639,18.0252101 102.045714,17.9357983 102.156303,17.9357983 C102.266218,17.9357983 102.355966,18.0252101 102.355966,18.1357983" id="Fill-22" fill="#55192A"></path>
                <path d="M121.982521,18.2897479 C121.978151,18.3257143 121.97479,18.3704202 121.97479,18.4063866 C121.97479,18.9969748 122.453445,19.4752941 123.043361,19.4752941 C123.634286,19.4752941 124.112605,18.9969748 124.112605,18.4063866 C124.112605,18.1089076 123.989916,17.8396639 123.793613,17.6457143 C124.274286,17.4759664 124.759328,17.4205042 125.310924,17.7492437 C125.310924,17.7492437 124.912941,17.6917647 124.523025,17.8164706 C124.596303,17.9993277 124.637311,18.1979832 124.637311,18.4063866 C124.637311,19.287395 123.923697,20.0006723 123.043361,20.0006723 C122.240672,20.0006723 121.576471,19.4053782 121.467899,18.6315966 C121.293109,18.5529412 121.048739,18.4047059 120.875294,18.1438655 C121.280336,18.3072269 121.643361,18.332437 121.982521,18.2897479" id="Fill-23" fill="#FFFFFE"></path>
                <path d="M122.278655,18.2393277 C122.351261,18.2215126 122.421176,18.2020168 122.491765,18.1794958 C122.489748,18.2047059 122.487395,18.2305882 122.487395,18.2568067 C122.487395,18.6463866 122.802353,18.9620168 123.191933,18.9620168 C123.451765,18.9620168 123.678992,18.8211765 123.801008,18.6114286 C123.710252,18.9455462 123.406387,19.1919328 123.043361,19.1919328 C122.61042,19.1919328 122.258487,18.8403361 122.258487,18.4063866 C122.258487,18.3492437 122.267227,18.2934454 122.278655,18.2393277" id="Fill-24" fill="#55192A"></path>
                <path d="M123.227899,17.9035294 C123.325378,17.9035294 123.406723,17.9569748 123.456134,18.032605 C123.437311,18.0631933 123.423529,18.0971429 123.423529,18.1357983 C123.423529,18.1919328 123.447059,18.2426891 123.485042,18.2789916 C123.445042,18.3828571 123.346218,18.457479 123.227899,18.457479 C123.074958,18.457479 122.950924,18.3334454 122.950924,18.1801681 C122.950924,18.0272269 123.074958,17.9035294 123.227899,17.9035294" id="Fill-25" fill="#FFFFFE"></path>
                <path d="M123.423529,18.1357983 C123.423529,18.2460504 123.513277,18.3354622 123.623193,18.3354622 C123.733782,18.3354622 123.822857,18.2460504 123.822857,18.1357983 C123.822857,18.0252101 123.733782,17.9357983 123.623193,17.9357983 C123.513277,17.9357983 123.423529,18.0252101 123.423529,18.1357983" id="Fill-26" fill="#55192A"></path>
                <path d="M112.924706,53.2847059 C108.757983,53.2847059 107.818824,51.6406723 107.713613,49.5284034 C108.150588,50.6763025 108.96,50.9042017 109.411765,50.9361345 C109.865882,51.6278992 110.44,51.7445378 110.77479,51.7445378 C110.929412,51.7445378 111.072941,51.7213445 111.202689,51.6853782 C111.540168,51.9922689 111.895462,52.069916 112.168403,52.069916 C112.463866,52.069916 112.726387,51.9778151 112.942521,51.8578151 C113.160336,51.9778151 113.422857,52.069916 113.717647,52.069916 C113.990924,52.069916 114.345882,51.9922689 114.683025,51.6853782 C114.813445,51.7213445 114.956303,51.7445378 115.110588,51.7445378 C115.446387,51.7445378 116.02084,51.6278992 116.47395,50.9361345 C116.911933,50.9052101 117.683697,50.6904202 118.129076,49.6363025 C117.996639,51.6964706 117.020504,53.2847059 112.924706,53.2847059" id="Fill-27" fill="#55192A"></path>
                <path d="M104.606723,56.6746218 C104.219496,57.5798319 103.320672,60.509916 106.14521,63.6332773 C106.14521,63.6332773 104.703866,60.1603361 106.564034,58.2238655 C105.969748,57.9586555 105.220504,57.4890756 104.606723,56.6746218" id="Fill-28" fill="#55192A"></path>
                <path d="M121.212773,56.6746218 C121.599664,57.5798319 122.498824,60.509916 119.674622,63.6332773 C119.674622,63.6332773 121.115966,60.1603361 119.255798,58.2238655 C119.849748,57.9586555 120.598655,57.4890756 121.212773,56.6746218" id="Fill-29" fill="#55192A"></path>
                <path d="M52.2662185,100.003025 C52.302521,100.003025 52.3368067,100.002689 52.3687395,100.002017 C52.5909244,99.3327731 52.8016807,98.6433613 52.9976471,97.9472269 C53.1828571,97.2870588 53.3680672,96.6218487 53.5539496,95.9509244 C53.1337815,95.5616807 52.2689076,94.7788235 51.2430252,93.8544538 L49.5331092,99.9989916 C50.4460504,100.001008 51.4678992,100.002017 52.2662185,100.003025 Z M45.9226891,109.869916 C44.6594958,109.869916 43.4211765,109.716303 42.2423529,109.413109 C40.9331092,109.078319 39.7741176,108.532437 38.7989916,107.790924 C37.7005042,106.958655 36.9263866,105.954286 36.5011765,104.808739 C36.0504202,103.59563 36.0063866,102.365714 36.3704202,101.153277 L38.549916,93.474958 L50.8215126,93.474958 C50.2779832,92.9855462 49.7021849,92.467563 49.1321008,91.954958 C45.5993277,88.7768067 44.3838655,87.6773109 44.1492437,87.429916 C43.6433613,86.8971429 43.2036975,86.3458824 42.8443697,85.7929412 C42.3394958,85.0198319 42.0366387,84.1684034 41.9448739,83.2648739 C41.8645378,82.4944538 41.9347899,81.6379832 42.1536134,80.7247059 L42.1727731,80.6487395 L43.5687395,75.7845378 L37.7996639,67.2692437 L62.4110924,67.2692437 C63.6705882,67.2692437 64.9082353,67.4228571 66.0894118,67.7253782 C67.3989916,68.0615126 68.5563025,68.6070588 69.5317647,69.3462185 C70.6309244,70.1815126 71.4040336,71.1831933 71.8305882,72.3253782 C72.2830252,73.5445378 72.327395,74.7747899 71.9633613,75.9862185 L69.7838655,83.6642017 L56.9852101,83.6642017 L58.8003361,77.1405042 C57.8877311,77.1384874 56.8658824,77.1368067 56.0672269,77.1357983 C56.0426891,77.1357983 56.0194958,77.1361345 55.9973109,77.1364706 L54.7519328,81.6588235 C55.8594958,82.7489076 57.0853782,83.8554622 58.3989916,84.9495798 C59.8110924,86.1267227 63.5865546,89.4315966 64.0894118,89.930084 C64.6779832,90.5156303 65.1620168,91.1357983 65.5290756,91.7741176 C65.9401681,92.4964706 66.2097479,93.2645378 66.3337815,94.062521 C66.4628571,94.8964706 66.4084034,95.7929412 66.1721008,96.7267227 L66.1515966,96.8036975 L64.4356303,102.818487 C63.8030252,105.058151 62.4151261,106.841008 60.3119328,108.112269 C58.3821849,109.278655 55.8252101,109.869916 52.7119328,109.869916 L45.9226891,109.869916 L45.9226891,109.869916 Z" id="Fill-30" fill="#F2AF36"></path>
                <path d="M70.1764706,72.9428571 C69.8685714,72.1189916 69.2931092,71.3821849 68.4648739,70.7529412 C67.6776471,70.1559664 66.7310924,69.7129412 65.6514286,69.4356303 C64.6127731,69.1694118 63.5226891,69.034958 62.4110924,69.034958 L41.1284034,69.034958 L45.4934454,75.4776471 L43.8773109,81.109916 L43.8705882,81.1361345 C43.6984874,81.8544538 43.6416807,82.5112605 43.7015126,83.0863866 C43.7647059,83.7068908 43.9744538,84.2941176 44.3247059,84.8305882 C44.6252101,85.2931092 44.9979832,85.7593277 45.4312605,86.2157983 C45.8504202,86.6581513 53.5757983,93.5509244 54.8682353,94.7620168 C55.2763025,95.1452101 55.4255462,95.3428571 55.4736134,95.4171429 C55.4776471,95.4527731 55.4826891,95.5589916 55.4363025,95.7694118 C55.1892437,96.6631933 54.9431933,97.5485714 54.6971429,98.4255462 C54.452437,99.2947899 54.1855462,100.15395 53.902521,100.980168 C53.7744538,101.271261 53.622521,101.476975 53.4507563,101.592605 C53.4070588,101.621849 53.1438655,101.768739 52.2642017,101.768739 C52.2642017,101.768739 47.3005042,101.763361 47.2114286,101.755294 C47.2134454,101.748571 47.2154622,101.741176 47.2178151,101.734118 L49.0245378,95.2406723 L39.8840336,95.2406723 L38.0648739,101.649412 C37.810084,102.489076 37.8410084,103.345546 38.1566387,104.194286 C38.4631933,105.019832 39.0389916,105.757647 39.867563,106.385546 C40.6541176,106.983193 41.6013445,107.426555 42.6813445,107.703193 C43.7169748,107.969412 44.807395,108.104202 45.9226891,108.104202 L52.7119328,108.104202 C55.4988235,108.104202 57.7482353,107.598319 59.3983193,106.601008 C61.1062185,105.569076 62.229916,104.132773 62.7378151,102.334454 L64.4534454,96.3189916 L64.4605042,96.2934454 C64.6383193,95.5905882 64.6816807,94.9310924 64.5889076,94.3327731 C64.4981513,93.747563 64.2994958,93.1831933 63.9973109,92.6531092 C63.7095798,92.1512605 63.3223529,91.6568067 62.8460504,91.1835294 C62.4104202,90.7512605 58.6752941,87.4786555 57.2685714,86.3058824 C55.8763025,85.1462185 54.577479,83.9707563 53.4077311,82.8127731 L53.3895798,82.7956303 C52.9351261,82.370084 52.8561345,82.192605 52.8554622,82.1922689 C52.8551261,82.1912605 52.8235294,82.0729412 52.8971429,81.7435294 L54.4584874,76.0739496 L54.4695798,76.0292437 C54.5055462,75.8662185 54.6144538,75.3704202 56.0695798,75.3704202 C56.0695798,75.3704202 61.0332773,75.3761345 61.1220168,75.3838655 C61.1189916,75.3942857 61.1159664,75.405042 61.112605,75.4164706 L59.3092437,81.8981513 L68.4497479,81.8981513 L70.2685714,75.490084 C70.5233613,74.6514286 70.4927731,73.7946218 70.1764706,72.9428571" id="Fill-31" fill="#55192A"></path>
                <polyline id="Fill-32" fill="#F2AF36" points="84.3663866 109.869916 88.9919328 93.5028571 86.1401681 93.5028571 81.5146218 109.869916 68.7008403 109.869916 78.312605 75.7842017 72.5969748 67.2692437 93.5310924 67.2692437 88.9055462 83.6363025 91.7569748 83.6363025 96.3828571 67.2692437 109.196975 67.2692437 97.1831933 109.869916 84.3663866 109.869916"></polyline>
                <polyline id="Fill-33" fill="#55192A" points="97.7186555 69.034958 93.0931092 85.4016807 86.5717647 85.4016807 91.1973109 69.034958 75.9085714 69.034958 80.2336134 75.4776471 71.0332773 108.104202 80.1788235 108.104202 84.8043697 91.7371429 91.3257143 91.7371429 86.6998319 108.104202 95.8467227 108.104202 106.864202 69.034958 97.7186555 69.034958"></polyline>
                <polyline id="Fill-34" fill="#F2AF36" points="121.838319 109.869916 121.838319 101.942857 117.851765 101.942857 113.52437 109.869916 100.126387 109.869916 123.131092 67.2692437 134.372101 67.2692437 134.372101 109.869916 121.838319 109.869916"></polyline>
                <path d="M120.222521,93.8416807 L123.604034,87.5838655 L123.604034,93.8416807 L120.222521,93.8416807 Z M103.086723,108.104202 L112.476975,108.104202 L116.804034,100.177143 L123.604034,100.177143 L123.604034,108.104202 L132.606387,108.104202 L132.606387,69.034958 L124.184202,69.034958 L103.086723,108.104202 L103.086723,108.104202 Z" id="Fill-35" fill="#55192A"></path>
                <polyline id="Fill-36" fill="#F2AF36" points="158.598655 109.869916 158.598655 94.5939496 150.369076 109.869916 138.796639 109.869916 141.917647 75.9448739 136.04 67.2692437 155.346891 67.2692437 154.399664 77.5647059 159.966723 67.2692437 171.122353 67.2692437 171.159328 77.0618487 175.398992 67.2692437 188.486387 67.2692437 169.997983 109.869916 158.598655 109.869916"></polyline>
                <polyline id="Fill-37" fill="#55192A" points="176.558655 69.034958 169.42521 85.5109244 169.363361 69.034958 161.01916 69.034958 151.852101 85.9892437 153.411429 69.034958 139.368739 69.034958 143.734118 75.4776471 140.732101 108.104202 149.314622 108.104202 160.364034 87.5932773 160.364034 108.104202 168.839328 108.104202 185.79563 69.034958 176.558655 69.034958"></polyline>
                <polyline id="Fill-38" fill="#55192A" points="183.686387 119.801008 167.413109 119.801008 169.203361 113.401345 38.5610084 113.401345 36.7704202 119.801008 20.497479 119.801008 31.0836975 128.682353 15.3882353 138.066218 43.5734454 138.066218 33.4514286 131.666555 164.094118 131.666555 150.391261 138.066218 178.576807 138.066218 168.131429 128.682353 183.686387 119.801008"></polyline>
                <path d="M47.8877311,117.562353 L45.7122689,125.422857 C45.7065546,125.44 45.7018487,125.447059 45.7018487,125.447059 C45.6994958,125.449076 45.6423529,125.488403 45.4652101,125.488403 L44.3270588,125.488403 C44.2968067,125.488403 44.2662185,125.487731 44.2339496,125.485714 L46.4137815,117.562353 L44.074958,117.562353 L41.8789916,125.583866 C41.8171429,125.811765 41.8258824,126.028235 41.9048739,126.227227 C41.9784874,126.413782 42.1152941,126.583193 42.3112605,126.730756 L42.3132773,126.732101 C42.6867227,127.00605 43.1815126,127.144874 43.7842017,127.144874 L45.4282353,127.144874 C46.1035294,127.144874 46.6440336,127.026891 47.0806723,126.783193 C47.5489076,126.522353 47.8652101,126.121345 47.9939496,125.627227 L50.2070588,117.562353 L47.8877311,117.562353" id="Fill-39" fill="#FFFFFE"></path>
                <polyline id="Fill-40" fill="#FFFFFE" points="61.2376471 117.562353 60.2003361 121.327395 59.5973109 117.562353 57.4436975 117.562353 54.8006723 127.144874 57.1210084 127.144874 58.1583193 123.379832 58.7613445 127.144874 60.914958 127.144874 63.5579832 117.562353 61.2376471 117.562353"></polyline>
                <polyline id="Fill-41" fill="#FFFFFE" points="70.7942857 117.562353 68.1509244 127.144874 70.4712605 127.144874 73.1146218 117.562353 70.7942857 117.562353"></polyline>
                <polyline id="Fill-42" fill="#FFFFFE" points="81.8931092 122.380168 81.8631933 117.562353 79.5216807 117.562353 79.5801681 127.144874 81.6998319 127.144874 86.8154622 117.562353 84.4588235 117.562353 81.8931092 122.380168"></polyline>
                <polyline id="Fill-43" fill="#FFFFFE" points="98.3344538 119.218824 98.7838655 117.562353 93.0685714 117.562353 90.4252101 127.144874 96.1428571 127.144874 96.592605 125.488403 93.1983193 125.488403 93.8406723 123.181849 97.2386555 123.181849 97.6884034 121.525378 94.2937815 121.525378 94.9361345 119.218824 98.3344538 119.218824"></polyline>
                <path d="M109.258824,119.218824 C109.292101,119.218824 109.327059,119.219832 109.369412,119.222521 L108.563361,122.186555 C108.563025,122.186891 108.503529,122.225546 108.312605,122.225546 L107.051092,122.225546 L107.872605,119.218824 L109.258824,119.218824 Z M110.841345,122.37479 L111.725378,119.121345 C111.845714,118.669916 111.699832,118.28437 111.29042,117.97479 C110.916639,117.701176 110.415462,117.562353 109.801681,117.562353 L106.021176,117.562353 L103.377815,127.144874 L105.698487,127.144874 L106.599664,123.881681 L107.062185,123.881681 L107.515966,127.144874 L109.883025,127.144874 L109.398655,123.738487 C110.344874,123.459496 110.706555,122.857815 110.841345,122.37479 L110.841345,122.37479 Z" id="Fill-44" fill="#FFFFFE"></path>
                <path d="M122.917311,123.270252 C122.848739,123.151933 122.755966,123.034286 122.641345,122.920672 C122.534118,122.815798 122.411765,122.704202 122.28,122.592269 C121.96437,122.313277 121.629916,122.027227 121.285714,121.741849 C120.945546,121.459832 120.628571,121.17479 120.339832,120.890084 C120.226218,120.784874 120.203697,120.737143 120.201345,120.732437 C120.201345,120.732101 120.19395,120.707899 120.207395,120.646723 L120.57042,119.257479 C120.571092,119.257143 120.630252,119.218824 120.82084,119.218824 L121.958992,119.218824 C122.000336,119.218824 122.029916,119.22084 122.051429,119.223193 C122.051092,119.224538 122.050756,119.225882 122.05042,119.227563 L121.622857,120.799664 L123.941176,120.799664 L124.405378,119.129748 C124.468571,118.915294 124.46084,118.701513 124.381849,118.493782 C124.308571,118.299496 124.171765,118.125378 123.974454,117.976134 C123.784538,117.832941 123.55563,117.727059 123.295462,117.660168 C123.041681,117.594958 122.774454,117.562353 122.501513,117.562353 L120.857479,117.562353 C120.153613,117.562353 119.601345,117.688067 119.168067,117.946555 C118.70958,118.220504 118.405714,118.61479 118.291092,119.082017 L117.882689,120.616134 C117.841008,120.796975 117.827563,120.960672 117.843361,121.102857 C117.859496,121.252101 117.910252,121.392269 117.99395,121.518992 C118.065546,121.629244 118.15563,121.74084 118.260168,121.850084 C118.360336,121.95563 118.481681,122.068571 118.617143,122.183193 C118.943866,122.469244 119.270252,122.756639 119.597311,123.046387 C119.923025,123.33479 120.242353,123.625546 120.556975,123.917983 C120.66958,124.022857 120.704538,124.07395 120.711933,124.085378 C120.711933,124.085714 120.716975,124.105546 120.707227,124.150588 C120.648403,124.368739 120.58958,124.584538 120.531092,124.798319 C120.474622,125.003025 120.412437,125.208067 120.345882,125.407059 C120.328403,125.44605 120.314622,125.463866 120.31563,125.465882 C120.298151,125.471933 120.236303,125.488403 120.093445,125.488403 L118.955294,125.488403 C118.913613,125.488403 118.883697,125.486723 118.862521,125.484034 C118.862521,125.484034 118.862521,125.483361 118.862857,125.483361 L119.291765,123.907899 L116.973109,123.907899 L116.509244,125.576471 C116.445378,125.790924 116.453109,126.005042 116.531765,126.213109 C116.605042,126.408067 116.742185,126.582185 116.93916,126.73042 C117.128403,126.873613 117.356975,126.980168 117.618487,127.047059 C117.872269,127.112269 118.139496,127.144874 118.412437,127.144874 L120.056134,127.144874 C120.761008,127.144874 121.311597,127.018487 121.739496,126.758992 C122.19395,126.483361 122.491092,126.102857 122.621513,125.628908 L123.030588,124.163361 C123.074286,123.985546 123.08437,123.820168 123.06084,123.671261 C123.037647,123.530756 122.98958,123.395966 122.917311,123.270252" id="Fill-45" fill="#FFFFFE"></path>
                <polyline id="Fill-46" fill="#FFFFFE" points="131.746555 117.562353 129.103193 127.144874 131.423866 127.144874 134.066891 117.562353 131.746555 117.562353"></polyline>
                <polyline id="Fill-47" fill="#FFFFFE" points="140.416807 117.562353 139.967395 119.218824 142.440672 119.218824 140.249412 127.144874 142.569748 127.144874 144.761008 119.218824 146.821849 119.218824 147.271261 117.562353 140.416807 117.562353"></polyline>
                <polyline id="Fill-48" fill="#FFFFFE" points="161.316975 117.562353 158.725378 117.562353 156.713277 120.776807 156.058824 117.562353 153.602689 117.562353 154.940168 123.863866 154.072269 127.144874 156.391261 127.144874 157.247395 123.958992 161.316975 117.562353"></polyline>
                <path d="M170.186891,54.3976471 C172.559328,57.3411765 172.98521,58.64 172.98521,58.64 C173.092437,58.3448739 172.885042,57.4477311 172.885042,57.4477311 C172.210756,56.1045378 170.186891,54.3976471 170.186891,54.3976471" id="Fill-49" fill="#55192A"></path>
                <path d="M173.544874,51.4339496 C173.544874,51.4339496 176.299496,53.5082353 178.53042,58.6517647 C178.53042,58.6517647 178.572437,57.9082353 178.42958,57.3670588 C178.42958,57.3670588 176.74521,52.9630252 173.544874,51.4339496" id="Fill-50" fill="#55192A"></path>
                <path d="M169.374454,62.4823529 C169.107563,63.0894118 169.54958,63.8067227 169.900168,64.3068908 C170.250756,64.8067227 170.635294,65.6178151 170.768067,66.1045378 C170.891092,66.5576471 171.003697,66.4339496 171.189916,65.9909244 C171.376134,65.547563 172.65916,62.5102521 171.300504,59.6255462 C171.02521,59.0406723 171.000672,59.0090756 170.640336,58.9986555 C170.279664,58.9878992 169.908571,59.2228571 169.845714,59.4087395 C169.812773,59.5065546 169.830588,59.7085714 169.835966,59.9240336 C169.866555,61.1505882 169.640672,61.8759664 169.374454,62.4823529" id="Fill-51" fill="#FFFFFE"></path>
                <path d="M174.857815,62.4487395 C174.590924,63.0554622 175.032941,63.7731092 175.383529,64.2729412 C175.734118,64.7727731 176.118655,65.5838655 176.251092,66.0709244 C176.374454,66.5240336 176.486723,66.4003361 176.673613,65.9569748 C176.859832,65.5136134 178.142521,62.4766387 176.783866,59.5915966 C176.508571,59.0067227 176.483697,58.9754622 176.123361,58.965042 C175.763025,58.9542857 175.391261,59.1889076 175.329076,59.3747899 C175.296134,59.4729412 175.31395,59.674958 175.319328,59.8897479 C175.34958,61.1169748 175.12437,61.8423529 174.857815,62.4487395" id="Fill-52" fill="#FFFFFE"></path>
                <path d="M180.301176,62.4151261 C180.034286,63.0218487 180.475966,63.7394958 180.826555,64.2393277 C181.177479,64.7394958 181.562017,65.5502521 181.694454,66.0369748 C181.817815,66.4904202 181.93042,66.3663866 182.116303,65.9233613 C182.303193,65.4803361 183.585882,62.4430252 182.227227,59.5579832 C181.951597,58.9731092 181.927395,58.9421849 181.566723,58.9314286 C181.206387,58.9206723 180.835294,59.1552941 180.772437,59.3411765 C180.739496,59.4393277 180.757311,59.6413445 180.762689,59.8564706 C180.793277,61.0833613 180.567395,61.8084034 180.301176,62.4151261" id="Fill-53" fill="#FFFFFE"></path>
                <path d="M185.73042,62.3818487 C185.463529,62.9885714 185.905882,63.7058824 186.256471,64.2060504 C186.607395,64.7058824 186.991597,65.5169748 187.124034,66.0036975 C187.247059,66.4568067 187.359664,66.3331092 187.546218,65.890084 C187.732437,65.4467227 189.015798,62.4097479 187.656807,59.5247059 C187.38084,58.9398319 187.356639,58.9085714 186.996303,58.8978151 C186.635966,58.887395 186.264538,59.1220168 186.202353,59.3078992 C186.169076,59.4060504 186.186891,59.6080672 186.191933,59.8228571 C186.222521,61.0497479 185.996975,61.7751261 185.73042,62.3818487" id="Fill-54" fill="#FFFFFE"></path>
                <path d="M190.466555,62.3522689 C190.199664,62.9589916 190.641681,63.6766387 190.992269,64.1764706 C191.342857,64.6766387 191.727395,65.4877311 191.859832,65.9744538 C191.983193,66.427563 192.095798,66.3038655 192.282017,65.8608403 C192.468571,65.417479 193.751597,62.3805042 192.392605,59.4954622 C192.116975,58.9102521 192.092437,58.8796639 191.732101,58.8685714 C191.371429,58.8578151 191.000336,59.0927731 190.937815,59.2783193 C190.904874,59.3768067 190.922689,59.5784874 190.928403,59.7936134 C190.958319,61.0205042 190.732773,61.7458824 190.466555,62.3522689" id="Fill-55" fill="#FFFFFE"></path>
                <path d="M169.374454,62.4823529 C169.640672,61.8759664 169.866555,61.1505882 169.835966,59.9240336 C169.830588,59.7085714 169.812773,59.5065546 169.845714,59.4087395 C169.877647,59.3142857 169.98958,59.207395 170.138487,59.1263866 C170.182521,59.2087395 170.232269,59.312605 170.295126,59.4467227 C171.367395,61.7223529 170.795966,64.0914286 170.41479,65.2087395 C170.258487,64.8833613 170.075294,64.5563025 169.900168,64.3068908 C169.54958,63.8067227 169.107563,63.0894118 169.374454,62.4823529" id="Fill-56" fill="#7E7973"></path>
                <path d="M174.857815,62.4487395 C175.12437,61.8423529 175.34958,61.1169748 175.319328,59.8897479 C175.31395,59.674958 175.296134,59.4729412 175.329076,59.3747899 C175.357311,59.2907563 175.450756,59.1973109 175.576134,59.1206723 C175.609748,59.1878992 175.646723,59.2655462 175.69042,59.3589916 C176.739496,61.5858824 176.214454,63.902521 175.834622,65.0480672 C175.693109,64.7657143 175.535462,64.4897479 175.383529,64.2729412 C175.032941,63.7731092 174.590924,63.0554622 174.857815,62.4487395" id="Fill-57" fill="#7E7973"></path>
                <path d="M180.301176,62.4151261 C180.567395,61.8084034 180.793277,61.0833613 180.762689,59.8564706 C180.757311,59.6413445 180.739496,59.4393277 180.772437,59.3411765 C180.796639,59.269916 180.866891,59.1912605 180.964034,59.1220168 C180.964706,59.1233613 180.965042,59.1240336 180.965378,59.1253782 C181.992269,61.3052101 181.510924,63.5714286 181.133782,64.7401681 C181.033277,64.5576471 180.928739,64.3848739 180.826555,64.2393277 C180.475966,63.7394958 180.034286,63.0218487 180.301176,62.4151261" id="Fill-58" fill="#7E7973"></path>
                <path d="M185.73042,62.3818487 C185.996975,61.7751261 186.222521,61.0497479 186.191933,59.8228571 C186.186891,59.6080672 186.169076,59.4060504 186.202353,59.3078992 C186.22521,59.2389916 186.290756,59.1636975 186.382185,59.0968067 C186.409076,59.1519328 186.438655,59.2137815 186.471261,59.2840336 C187.488739,61.4436975 187.025882,63.6880672 186.65042,64.8662185 C186.52437,64.6248739 186.387899,64.3932773 186.256471,64.2060504 C185.905882,63.7058824 185.463529,62.9885714 185.73042,62.3818487" id="Fill-59" fill="#7E7973"></path>
                <path d="M190.928403,59.7936134 C190.922689,59.5784874 190.904874,59.3768067 190.937815,59.2783193 C190.963025,59.2040336 191.038655,59.1223529 191.142185,59.0510924 C191.217479,59.1391597 191.290756,59.2890756 191.413782,59.5509244 C192.454118,61.7589916 191.946218,64.0551261 191.567395,65.2104202 C191.398655,64.8426891 191.190588,64.4601681 190.992269,64.1764706 C190.641681,63.6766387 190.199664,62.9589916 190.466555,62.3522689 C190.732773,61.7458824 190.958319,61.0205042 190.928403,59.7936134" id="Fill-60" fill="#7E7973"></path>
                <path d="M162.543529,60.7321008 C161.347563,58.1398319 162.34521,53.5163025 165.04605,50.4894118 C167.746218,47.462521 175.570756,48.7482353 178.481008,49.4036975 C184.280672,50.8534454 188.170084,52.8564706 191.227563,54.9509244 C192.743193,55.9889076 193.585882,57.0336134 194.053109,57.9220168 C192.999664,56.7878992 191.483025,55.6588235 189.643697,54.6302521 C189.643697,54.6302521 190.229244,55.6470588 190.301176,56.1284034 C190.301176,56.1284034 188.001681,53.7563025 185.588571,53.0487395 C185.588571,53.0487395 188.874286,56.9468908 189.513277,59.6137815 C189.513277,59.6137815 187.289076,54.9734454 183.175462,52.1015126 C183.175462,52.1015126 179.50958,50.6423529 178.752269,50.6127731 C178.752269,50.6127731 183.118992,54.5509244 183.791597,57.9973109 C183.791597,57.9973109 183.265882,56.9509244 182.320672,55.5858824 C182.32,55.5848739 182.319328,55.5842017 182.318992,55.5831933 C182.318992,55.5831933 182.318655,55.5828571 182.318319,55.5828571 C182.144874,55.3321008 181.956975,55.0712605 181.75563,54.8030252 C181.754958,54.8026891 181.754622,54.8016807 181.754286,54.8010084 C181.748908,54.7946218 181.744202,54.7878992 181.73916,54.7811765 C181.738151,54.7805042 181.737815,54.7794958 181.736471,54.7784874 C181.603361,54.6016807 181.464538,54.4221849 181.319328,54.2410084 C181.316975,54.2383193 181.314622,54.2356303 181.312941,54.2329412 C181.311933,54.2319328 181.310924,54.2309244 181.310252,54.2295798 C181.236303,54.137479 181.160672,54.0453782 181.084034,53.952605 C181.081345,53.9492437 181.078319,53.9458824 181.075294,53.9421849 C181.074622,53.9415126 181.07395,53.9405042 181.073277,53.9398319 C180.847731,53.6682353 180.610084,53.3956303 180.360336,53.125042 C180.360336,53.125042 180.360336,53.125042 180.36,53.125042 C180.350252,53.1142857 180.340504,53.1038655 180.330756,53.0934454 L180.33042,53.0931092 C180.16,52.909916 179.984874,52.7287395 179.80437,52.549916 C179.802689,52.5478992 179.801008,52.5458824 179.798992,52.5438655 C179.71563,52.4615126 179.631261,52.3798319 179.545546,52.2984874 C179.540168,52.2934454 179.535126,52.2884034 179.529748,52.2836975 C179.348908,52.112605 179.162689,51.9442017 178.972437,51.7805042 C178.972101,51.7801681 178.971765,51.7801681 178.971765,51.7798319 C178.957647,51.7677311 178.943866,51.7556303 178.930084,51.7442017 C178.929412,51.7438655 178.929076,51.7435294 178.928739,51.7431933 C178.840336,51.6678992 178.751597,51.5936134 178.66084,51.5203361 C178.659832,51.5196639 178.65916,51.5186555 178.658151,51.5179832 C178.645042,51.5072269 178.631597,51.4968067 178.618487,51.4860504 C178.617815,51.4857143 178.617479,51.4853782 178.616807,51.4847059 C178.527731,51.4131092 178.437983,51.342521 178.347227,51.2732773 C178.343866,51.2705882 178.340504,51.2678992 178.336807,51.2652101 C178.335126,51.2638655 178.333445,51.262521 178.331429,51.2615126 C178.331429,51.2608403 178.330756,51.2601681 178.33042,51.2598319 C178.329076,51.2591597 178.328067,51.2584874 178.327059,51.257479 C178.232941,51.1858824 178.137143,51.1159664 178.040672,51.0470588 C178.038319,51.0453782 178.035966,51.0433613 178.033613,51.0413445 C178.032941,51.0413445 178.032605,51.0410084 178.031933,51.0406723 C178.029916,51.0389916 178.027899,51.0379832 178.025882,51.0363025 C177.965378,50.9929412 177.904538,50.9505882 177.843361,50.9082353 C177.841345,50.9068908 177.839328,50.9058824 177.837311,50.9042017 C177.834622,50.902521 177.832269,50.9005042 177.829244,50.8984874 C177.812101,50.8867227 177.794622,50.8746218 177.776807,50.8628571 C177.776471,50.8628571 177.776471,50.8628571 177.776471,50.8628571 C177.775462,50.8615126 177.774118,50.8611765 177.772773,50.8601681 C177.691092,50.805042 177.609076,50.7505882 177.52605,50.697479 C177.525378,50.6971429 177.524706,50.6968067 177.52437,50.6961345 C177.516303,50.6910924 177.508235,50.6863866 177.500168,50.6810084 C177.496471,50.6789916 177.492773,50.6763025 177.489076,50.6739496 C177.419496,50.6302521 177.34958,50.5868908 177.278655,50.5445378 L177.278655,50.5442017 C177.276303,50.5428571 177.273613,50.5415126 177.271597,50.5401681 C177.248739,50.5263866 177.225882,50.512605 177.203361,50.4994958 C177.202689,50.4991597 177.201681,50.4988235 177.201008,50.4984874 C177.132437,50.457479 177.062857,50.4178151 176.992941,50.3788235 C176.991261,50.3778151 176.989244,50.3764706 176.986891,50.3754622 C176.972101,50.3670588 176.957311,50.3583193 176.942185,50.349916 C176.941513,50.3495798 176.941176,50.3495798 176.940504,50.3489076 C176.855798,50.3021849 176.770084,50.2568067 176.684034,50.2127731 C176.683697,50.2121008 176.683025,50.2121008 176.682353,50.2114286 C176.661513,50.2010084 176.64,50.1905882 176.61916,50.1798319 C176.618487,50.1794958 176.618151,50.1791597 176.617815,50.1791597 C176.550924,50.1455462 176.483697,50.1129412 176.416471,50.0810084 C176.41479,50.08 176.413445,50.0793277 176.412101,50.0786555 C176.386891,50.0668908 176.362017,50.0551261 176.336807,50.0436975 C176.336807,50.0433613 176.336471,50.0433613 176.336134,50.0430252 C176.249076,50.0030252 176.161681,49.9636975 176.073613,49.9263866 C176.071933,49.9257143 176.070252,49.9247059 176.068235,49.9240336 L176.277647,50.4386555 C172.427899,49.4860504 167.575798,49.2161345 165.819832,51.2198319 C164.749916,52.4406723 162.511597,55.5845378 162.543529,60.7321008" id="Fill-61" fill="#55192A"></path>
                <path d="M55.512605,54.2547899 C53.1915966,57.2389916 52.7878992,58.5448739 52.7878992,58.5448739 C52.6759664,58.2517647 52.867563,57.3512605 52.867563,57.3512605 C53.5186555,55.9963025 55.512605,54.2547899 55.512605,54.2547899" id="Fill-62" fill="#55192A"></path>
                <path d="M52.1038655,51.3495798 C52.1038655,51.3495798 49.3858824,53.4709244 47.2436975,58.652437 C47.2436975,58.652437 47.1889076,57.9095798 47.3223529,57.3660504 C47.3223529,57.3660504 48.9307563,52.9334454 52.1038655,51.3495798" id="Fill-63" fill="#55192A"></path>
                <path d="M56.4645378,62.3247059 C56.7418487,62.9267227 56.3122689,63.6517647 55.9704202,64.1576471 C55.6282353,64.6638655 55.2578151,65.4810084 55.1337815,65.970084 C55.0184874,66.4255462 54.9038655,66.3038655 54.709916,65.8638655 C54.5156303,65.4238655 53.1805042,62.4094118 54.4894118,59.5015126 C54.7546218,58.9115966 54.7788235,58.88 55.1388235,58.8631933 C55.4991597,58.8460504 55.8742857,59.0746218 55.9401681,59.2591597 C55.9747899,59.3569748 55.9603361,59.5589916 55.9586555,59.7744538 C55.9495798,61.0016807 56.1878992,61.7226891 56.4645378,62.3247059" id="Fill-64" fill="#FFFFFE"></path>
                <path d="M50.9815126,62.3852101 C51.2588235,62.987563 50.8292437,63.712605 50.487395,64.2181513 C50.1452101,64.7243697 49.7744538,65.5418487 49.6507563,66.0309244 C49.5351261,66.4860504 49.4205042,66.3643697 49.2265546,65.9243697 C49.032605,65.4847059 47.697479,62.4702521 49.0063866,59.5620168 C49.2715966,58.972437 49.2957983,58.9408403 49.6557983,58.9240336 C50.0161345,58.9072269 50.3912605,59.1354622 50.4571429,59.32 C50.4917647,59.417479 50.4773109,59.6198319 50.4756303,59.8346218 C50.4665546,61.0621849 50.7045378,61.7835294 50.9815126,62.3852101" id="Fill-65" fill="#FFFFFE"></path>
                <path d="M45.5381513,62.4457143 C45.8154622,63.0477311 45.3862185,63.7727731 45.0443697,64.2789916 C44.7018487,64.7848739 44.3314286,65.6023529 44.207395,66.0910924 C44.0921008,66.5465546 43.977479,66.4245378 43.7838655,65.9845378 C43.5892437,65.5448739 42.2541176,62.5304202 43.5630252,59.6221849 C43.8285714,59.032605 43.852437,59.0010084 44.2127731,58.9842017 C44.5727731,58.967395 44.9482353,59.1956303 45.0137815,59.3801681 C45.0487395,59.4779832 45.0342857,59.68 45.032605,59.8954622 C45.0231933,61.1223529 45.2615126,61.8436975 45.5381513,62.4457143" id="Fill-66" fill="#FFFFFE"></path>
                <path d="M40.1089076,62.5058824 C40.3862185,63.1078992 39.9566387,63.8329412 39.6147899,64.3391597 C39.272605,64.8447059 38.9021849,65.662521 38.7784874,66.1512605 C38.6628571,66.6067227 38.5482353,66.485042 38.3542857,66.045042 C38.16,65.605042 36.8252101,62.5905882 38.1341176,59.6823529 C38.3993277,59.0927731 38.4231933,59.0615126 38.7835294,59.0443697 C39.1438655,59.027563 39.5189916,59.2557983 39.5845378,59.4406723 C39.6194958,59.5381513 39.605042,59.7405042 39.6033613,59.9552941 C39.5939496,61.182521 39.8322689,61.9038655 40.1089076,62.5058824" id="Fill-67" fill="#FFFFFE"></path>
                <path d="M35.3734454,62.5583193 C35.6504202,63.1603361 35.2211765,63.8853782 34.8793277,64.3912605 C34.5371429,64.897479 34.1667227,65.7146218 34.0426891,66.2036975 C33.927395,66.6591597 33.812437,66.5371429 33.6184874,66.097479 C33.4245378,65.657479 32.0894118,62.6430252 33.3986555,59.7351261 C33.6635294,59.1452101 33.6877311,59.1139496 34.0477311,59.0971429 C34.4080672,59.08 34.7831933,59.3082353 34.8490756,59.4927731 C34.8836975,59.5905882 34.8692437,59.792605 34.867563,60.0080672 C34.8584874,61.234958 35.0964706,61.9563025 35.3734454,62.5583193" id="Fill-68" fill="#FFFFFE"></path>
                <path d="M56.4645378,62.3247059 C56.1878992,61.7226891 55.9495798,61.0016807 55.9586555,59.7744538 C55.9603361,59.5589916 55.9747899,59.3569748 55.9401681,59.2591597 C55.9065546,59.1653782 55.7929412,59.0608403 55.6423529,58.982521 C55.6,59.0652101 55.5522689,59.1697479 55.4914286,59.3052101 C54.4588235,61.5986555 55.0712605,63.9579832 55.4712605,65.0682353 C55.6218487,64.7401681 55.7996639,64.410084 55.9704202,64.1576471 C56.3122689,63.6517647 56.7418487,62.9267227 56.4645378,62.3247059" id="Fill-69" fill="#7E7973"></path>
                <path d="M50.9815126,62.3852101 C50.7045378,61.7835294 50.4665546,61.0621849 50.4756303,59.8346218 C50.4773109,59.6198319 50.4917647,59.417479 50.4571429,59.32 C50.4272269,59.2366387 50.332437,59.1448739 50.2057143,59.0702521 C50.1734454,59.1381513 50.1378151,59.2164706 50.0954622,59.3105882 C49.085042,61.5552941 49.650084,63.862521 50.0494118,65.0010084 C50.1862185,64.7166387 50.3388235,64.4379832 50.487395,64.2181513 C50.8292437,63.712605 51.2588235,62.987563 50.9815126,62.3852101" id="Fill-70" fill="#7E7973"></path>
                <path d="M45.5381513,62.4457143 C45.2615126,61.8436975 45.0231933,61.1223529 45.032605,59.8954622 C45.0342857,59.68 45.0487395,59.4779832 45.0137815,59.3801681 C44.9889076,59.3092437 44.9169748,59.2322689 44.8184874,59.1643697 C44.8181513,59.1657143 44.817479,59.1667227 44.8171429,59.1680672 C43.8282353,61.365042 44.3485714,63.622521 44.7458824,64.7845378 C44.8433613,64.6006723 44.9448739,64.4262185 45.0443697,64.2789916 C45.3862185,63.7727731 45.8154622,63.0477311 45.5381513,62.4457143" id="Fill-71" fill="#7E7973"></path>
                <path d="M40.1089076,62.5058824 C39.8322689,61.9038655 39.5939496,61.182521 39.6033613,59.9552941 C39.605042,59.7405042 39.6194958,59.5381513 39.5845378,59.4406723 C39.5603361,59.3721008 39.4934454,59.2981513 39.4010084,59.232605 C39.3751261,59.2880672 39.3465546,59.3505882 39.314958,59.4211765 C38.3351261,61.5983193 38.8366387,63.8342857 39.232605,65.0060504 C39.3542857,64.7626891 39.4867227,64.5287395 39.6147899,64.3391597 C39.9566387,63.8329412 40.3862185,63.1078992 40.1089076,62.5058824" id="Fill-72" fill="#7E7973"></path>
                <path d="M34.867563,60.0080672 C34.8692437,59.792605 34.8836975,59.5905882 34.8490756,59.4927731 C34.8228571,59.4191597 34.7455462,59.3384874 34.6406723,59.2689076 C34.5667227,59.3583193 34.4964706,59.509916 34.3778151,59.7734454 C33.3757983,61.9993277 33.9230252,64.2860504 34.3216807,65.434958 C34.4840336,65.0645378 34.6853782,64.6783193 34.8793277,64.3912605 C35.2211765,63.8853782 35.6504202,63.1603361 35.3734454,62.5583193 C35.0964706,61.9563025 34.8584874,61.234958 34.867563,60.0080672" id="Fill-73" fill="#7E7973"></path>
                <path d="M63.2642017,60.4564706 C64.4151261,57.8443697 63.3381513,53.2383193 60.5855462,50.2584874 C57.8332773,47.2786555 50.032605,48.6991597 47.1337815,49.405042 C41.36,50.9542857 37.5055462,53.0242017 34.4847059,55.1707563 C32.987563,56.234958 32.1626891,57.2941176 31.7109244,58.1905882 C32.7445378,57.0383193 34.2413445,55.8833613 36.0628571,54.8231933 C36.0628571,54.8231933 35.4947899,55.8497479 35.4312605,56.332437 C35.4312605,56.332437 37.6894118,53.9210084 40.0897479,53.1721008 C40.0897479,53.1721008 36.8722689,57.1260504 36.2789916,59.8036975 C36.2789916,59.8036975 38.4228571,55.1257143 42.4863866,52.1831933 C42.4863866,52.1831933 46.1263866,50.6611765 46.8830252,50.6184874 C46.8830252,50.6184874 42.5852101,54.6312605 41.9721008,58.0884034 C41.9721008,58.0884034 42.4796639,57.0336134 43.4013445,55.6521008 C43.4020168,55.6510924 43.4026891,55.6507563 43.4030252,55.6497479 L43.4033613,55.6494118 C43.572437,55.3956303 43.7559664,55.1314286 43.9529412,54.8598319 C43.9532773,54.8594958 43.9536134,54.8584874 43.9542857,54.8578151 C43.9589916,54.8510924 43.9636975,54.8443697 43.9687395,54.8376471 C43.9694118,54.8369748 43.970084,54.8359664 43.9710924,54.834958 C44.1015126,54.6557983 44.2373109,54.4739496 44.3791597,54.2904202 C44.3815126,54.2877311 44.3835294,54.2847059 44.3855462,54.2820168 C44.3865546,54.2810084 44.387563,54.28 44.3882353,54.2789916 C44.4605042,54.1855462 44.5344538,54.0921008 44.6094118,53.9979832 C44.6121008,53.9946218 44.6151261,53.9909244 44.6181513,53.9872269 C44.6188235,53.9865546 44.6194958,53.9855462 44.6201681,53.9848739 C44.8406723,53.7095798 45.0739496,53.4329412 45.3189916,53.1583193 C45.3189916,53.1583193 45.3189916,53.1583193 45.3193277,53.1579832 C45.3287395,53.1472269 45.3381513,53.1368067 45.3478992,53.1257143 L45.3482353,53.1253782 C45.5152941,52.9394958 45.687395,52.7552941 45.8648739,52.5731092 C45.8665546,52.5714286 45.8682353,52.5694118 45.8702521,52.567395 C45.9519328,52.4836975 46.034958,52.4003361 46.1193277,52.3176471 C46.1193277,52.3176471 46.1193277,52.3176471 46.1193277,52.3173109 C46.1243697,52.3122689 46.1294118,52.3072269 46.1347899,52.302521 C46.312605,52.1280672 46.4957983,51.9566387 46.6833613,51.7895798 C46.6836975,51.7892437 46.6840336,51.7892437 46.6840336,51.7889076 C46.6978151,51.7768067 46.7115966,51.7647059 46.7253782,51.7522689 C46.7257143,51.7522689 46.7260504,51.7519328 46.7263866,51.7519328 C46.8131092,51.6746218 46.9011765,51.5989916 46.9902521,51.5240336 C46.9912605,51.5233613 46.9922689,51.5223529 46.9932773,51.5216807 C47.0060504,51.5109244 47.0191597,51.5001681 47.0322689,51.4894118 C47.032605,51.4887395 47.0332773,51.4887395 47.0339496,51.4880672 C47.1213445,51.4147899 47.210084,51.3428571 47.2994958,51.2715966 C47.3028571,51.2689076 47.3065546,51.2662185 47.309916,51.2635294 C47.3115966,51.2621849 47.3132773,51.2608403 47.3152941,51.2594958 C47.3156303,51.2588235 47.3163025,51.2584874 47.3166387,51.2581513 C47.3176471,51.257479 47.3186555,51.2568067 47.3196639,51.2557983 C47.412437,51.182521 47.5068908,51.1112605 47.6023529,51.0403361 C47.6043697,51.0383193 47.6070588,51.0363025 47.6094118,51.0346218 C47.610084,51.0342857 47.6104202,51.0342857 47.6107563,51.0336134 C47.6127731,51.0319328 47.6151261,51.0309244 47.6168067,51.0292437 C47.6766387,50.9848739 47.7368067,50.9411765 47.7973109,50.8981513 C47.7993277,50.8968067 47.8013445,50.8957983 47.8030252,50.8941176 C47.8057143,50.8921008 47.8080672,50.890084 47.8110924,50.8884034 C47.8282353,50.8759664 47.8453782,50.8635294 47.8628571,50.8517647 C47.8631933,50.8514286 47.8631933,50.8514286 47.8631933,50.8514286 C47.8642017,50.8504202 47.8655462,50.8497479 47.8668908,50.8487395 C47.947563,50.7922689 48.0289076,50.7368067 48.1109244,50.6820168 C48.1112605,50.6816807 48.1122689,50.6813445 48.112605,50.6806723 C48.1206723,50.6752941 48.1284034,50.6705882 48.1361345,50.6652101 C48.1401681,50.6628571 48.1435294,50.6601681 48.147563,50.6578151 C48.2161345,50.6127731 48.2857143,50.5684034 48.3556303,50.5247059 L48.3556303,50.5243697 C48.3579832,50.5230252 48.3603361,50.5216807 48.3626891,50.52 C48.3852101,50.5058824 48.4077311,50.4921008 48.429916,50.4783193 C48.4305882,50.4779832 48.4315966,50.4776471 48.4322689,50.4773109 C48.5001681,50.4352941 48.5694118,50.3942857 48.6383193,50.3539496 C48.64,50.3529412 48.6420168,50.3519328 48.6440336,50.3505882 C48.6591597,50.3421849 48.6739496,50.3331092 48.6887395,50.3243697 C48.6890756,50.3240336 48.6897479,50.3236975 48.690084,50.3233613 L48.6904202,50.3233613 C48.7741176,50.274958 48.8588235,50.2282353 48.9442017,50.1828571 C48.9448739,50.1821849 48.9452101,50.1821849 48.9458824,50.1815126 C48.9667227,50.1704202 48.9878992,50.16 49.0087395,50.1485714 C49.0094118,50.1485714 49.0097479,50.1482353 49.010084,50.1482353 C49.0763025,50.1132773 49.1428571,50.0793277 49.2097479,50.0463866 C49.2110924,50.0453782 49.2127731,50.0447059 49.2137815,50.0440336 C49.2389916,50.0315966 49.2635294,50.0194958 49.2884034,50.0077311 C49.2887395,50.007395 49.2890756,50.007395 49.2894118,50.0070588 C49.3754622,49.9653782 49.4621849,49.9243697 49.549916,49.8860504 C49.5512605,49.885042 49.5532773,49.8843697 49.554958,49.8833613 L49.5552941,49.8833613 L49.3542857,50.4016807 C53.1872269,49.3828571 58.0336134,49.0289076 59.8242017,51.0026891 C60.9152941,52.2047059 63.2070588,55.3092437 63.2642017,60.4564706" id="Fill-74" fill="#55192A"></path>
                <path d="M79.987563,52.9193277 C79.987563,52.9193277 79.7536134,43.5092437 84.3048739,39.6090756 C84.3048739,39.6090756 84.2776471,41.0578151 84.7008403,43.3341176 C84.7008403,43.3341176 80.8480672,46.982521 79.987563,52.9193277" id="Fill-75" fill="#55192A"></path>
                <path d="M145.913613,52.9193277 C145.913613,52.9193277 146.147227,43.5092437 141.595966,39.6090756 C141.595966,39.6090756 141.623193,41.0578151 141.200336,43.3341176 C141.200336,43.3341176 145.053109,46.982521 145.913613,52.9193277" id="Fill-76" fill="#55192A"></path>
                <polyline id="Fill-77" fill="#1A1919" points="174.028908 115.342521 174.535462 113.550252 173.975798 113.550252 174.045378 113.299832 175.470924 113.299832 175.401345 113.550252 174.935462 113.550252 174.428908 115.342521 174.028908 115.342521"></polyline>
                <polyline id="Fill-78" fill="#1A1919" points="175.564706 115.342521 175.16437 115.342521 175.740504 113.299832 176.291765 113.299832 176.291765 114.566387 176.973782 113.299832 177.558319 113.299832 176.982185 115.342521 176.581849 115.342521 176.916975 114.155294 176.275294 115.342521 175.895462 115.342521 175.891765 114.155294 175.564706 115.342521"></polyline>
            </g>
        </g>
    </g>
</svg>