<?xml version="1.0" encoding="UTF-8"?>
<svg width="200px" height="200px" viewBox="0 0 200 200" version="1.1" xmlns="http://www.w3.org/2000/svg" xmlns:xlink="http://www.w3.org/1999/xlink">
    <!-- Generator: Sketch 54.1 (76490) - https://sketchapp.com -->
    <title>shenandoah</title>
    <desc>Created with Sketch.</desc>
    <g id="shenandoah" stroke="none" stroke-width="1" fill="none" fill-rule="evenodd">
        <g id="shenandoah_BGL">
            <g id="Asset-4" transform="translate(11.000000, 1.000000)">
                <path d="M47.8707292,41.6542056 C48.3353074,41.1785974 48.6859794,40.6033624 48.89625,39.9719626 C49.34375,38.4018692 48.8030208,36.2336449 46.1926042,33.6168224 C39.7659949,27.5503872 32.6941084,22.2099515 25.1041667,17.6915888 C22.3072917,16.4018692 20.6291667,15.6728972 20.6291667,15.6728972 C36.2585048,18.8184872 51.2277616,24.6488803 64.8757292,32.9065421 C64.1858333,28.3457944 57.3241667,22.5700935 51.8236458,19.5981308 C40.3000175,13.6199848 28.1739825,8.88925154 15.6507292,5.48598131 C12.6725897,5.2364129 9.67886866,5.2364129 6.70072917,5.48598131 C10.6748937,12.5227685 15.6144852,18.9656579 21.375,24.6261682 C25.6290824,29.1665613 30.3264517,33.2680601 35.3966667,36.8691589 C38.8461458,39.2242991 42.743125,41.6542056 46.3977083,41.8224299 L46.3977083,41.8224299 L47.7215625,41.6542056" id="Shape" fill="#FFFFFF" fill-rule="nonzero"></path>
                <path d="M77.8532292,46.3271028 C76.7158333,48.8878505 75.8208333,51.2429907 75.1122917,53.3738318 C73.5531486,57.6214717 72.6599833,62.0856464 72.4645833,66.6074766 C70.2779539,69.3732649 67.0272994,71.0840464 63.5145833,71.317757 C61.8886317,71.5320922 60.263879,70.9142944 59.18875,69.6728972 C58.6443909,68.9724683 58.2737366,68.1524653 58.1072917,67.2803738 C57.3428125,63.317757 59.7667708,57.5794393 63.0670833,54.3084112 C67.2182856,50.4024755 72.3152273,47.6512336 77.8532292,46.3271028 M83.5402083,84.0093458 C83.5402083,84.0093458 77.76,81.635514 68.3811458,84.588785 L68.3811458,84.588785 C59.5989583,87.411215 53.0729167,93.5607477 53.0729167,99.1121495 C53.0729167,99.1121495 50.7794792,96.9065421 51.3015625,90.7009346 C51.6453718,87.4355617 52.8344852,84.31695 54.7510417,81.6542056 C57.2348958,78.3564364 60.8358539,76.0828642 64.8757292,75.2616822 C63.750304,77.2251717 63.0751464,79.4152408 62.8992708,81.6728972 C64.6862474,80.8370357 66.5631504,80.2098661 68.4930208,79.8037383 C75.3360417,78.3457944 81.5451042,80.2149533 83.5961458,83.9345794 M86.0014583,100.327103 C81.1863239,99.0824448 76.0840931,99.6337751 71.6441667,101.878505 C69.6720409,102.834007 67.8194709,104.0198 66.125,105.411215 C63.6264583,107.523364 60.8482292,110.495327 60.53125,113.691589 C59.3170544,112.765356 58.7258705,111.233179 59.0022917,109.728972 C56.6489157,107.380638 55.8000243,103.911835 56.8020833,100.738318 C57.8941835,97.615263 60.1632828,95.0453584 63.1230208,93.5794393 C62.7957862,96.1248161 63.56928,98.6890508 65.2486458,100.626168 C66.593747,99.7168487 68.0237567,98.9406202 69.5185417,98.3084112 C73.7398894,96.5892536 78.414471,96.3391553 82.794375,97.5981308 C84.2373077,97.9873042 85.4205904,99.0217691 86.0014583,100.401869 M89.8425,115.616822 C86.2520647,114.957906 82.5481527,115.353873 79.1770833,116.757009 C74.2732292,118.626168 69.4253125,122.775701 69.0896875,126.252336 C68.0256443,125.328377 67.5713091,123.882503 67.915,122.514019 C65.8780352,120.454254 65.0646224,117.476239 65.7707292,114.663551 C65.7707292,114.663551 66.3673958,111.280374 71.0475,108.588785 C70.8929523,110.914858 71.6111888,113.214855 73.06125,115.037383 C74.3358932,114.293346 75.6941034,113.703553 77.1073958,113.280374 C78.6684714,112.890037 80.2718338,112.695403 81.8807292,112.700935 C85.3861458,112.700935 88.6491667,113.747664 89.8052083,115.672897 M101.216458,147.018692 C95.6525956,143.509171 90.8261801,138.943937 87.0083333,133.579439 C84.9013542,130.009346 86.3370833,128.588785 86.821875,128.457944 C87.6808186,128.337068 88.5356708,128.704332 89.0407292,129.411215 C89.5667537,130.078402 90.0112014,130.806324 90.3645833,131.579439 C93.2970716,137.168959 96.9589749,142.342147 101.25375,146.962617 M90.3645833,37.1682243 C93.4854787,35.6298123 96.7778445,34.4690094 100.172292,33.7102804 C99.091151,38.9707449 99.9175964,44.4452974 102.503021,49.1495327 C99.1109126,46.7657756 96.8033853,43.1278811 96.0888542,39.0373832 C94.3161367,38.0563832 92.3735774,37.422075 90.3645833,37.1682243 M107.891667,40.1214953 C109.564964,39.783207 111.303906,40.1117349 112.739583,41.0373832 C114.147535,45.2802136 117.397481,48.6549804 121.577708,50.2149533 C121.214313,51.9459103 121.259005,53.7380064 121.708229,55.4485981 C122.543575,53.8933213 123.849134,52.6434525 125.437396,51.8785047 C128.532604,53.4485981 126.817187,61.635514 126.817187,61.635514 C125.805464,60.4122241 124.530522,59.4345002 123.088021,58.7757009 C121.652292,57.9345794 119.15375,56.9065421 116.729792,55.3364486 C114.305833,53.7663551 111.471667,51.1682243 110.408854,44.5514019 L110.408854,44.5514019 C109.703508,45.7836893 109.306823,47.1690814 109.252812,48.588785 C108.112216,46.7851651 107.522439,44.6866452 107.556042,42.5514019 C107.592519,41.7327533 107.704878,40.9192806 107.891667,40.1214953 M119.918229,26.3457944 C125.698437,26.1028037 128.047812,28.9065421 128.458021,29.3364486 C130.300299,31.3857107 131.53391,33.9107849 132.019375,36.6261682 C132.187187,35.9158879 133.417812,31.0186916 132.019375,27.8598131 C133.621957,28.7701877 134.919604,30.1360604 135.748542,31.7850467 C135.748542,31.7850467 138.433542,37.0560748 132.597396,45.317757 C128.420729,43.7102804 128.234271,35.6168224 124.150833,32.2336449 C121.802585,30.7876082 119.07178,30.0901959 116.319583,30.2336449 C113.854788,30.2382255 111.433124,30.8821531 109.290104,32.1028037 C111.825866,28.6325795 115.798689,26.5071659 120.086042,26.3271028 M130.098854,59.317757 C130.594674,57.6725972 130.925719,55.9820014 131.087083,54.271028 C132.495133,53.2679938 133.635032,51.9327083 134.406042,50.3831776 L134.406042,50.3831776 C134.288004,53.8361556 132.724425,57.0795524 130.098854,59.317757 M128.10375,46.8317757 C123.849776,47.371786 119.677494,45.3501121 117.456979,41.6728972 L117.456979,41.6728972 C116.662276,40.6244321 116.581154,39.1976122 117.251875,38.0654206 C116.067549,36.8670687 114.417224,36.2518055 112.739583,36.3831776 C114.534943,35.1572324 116.726056,34.656513 118.874062,34.9813084 C119.985779,35.1117668 121.038729,35.5521119 121.913333,36.2523364 C122.379986,36.7050184 122.720633,37.2720085 122.901562,37.8971963 L122.901562,37.8971963 C122.901562,37.8971963 124.561042,44.8691589 127.973229,46.5700935 C128.10375,46.5700935 128.085104,46.8130841 127.973229,46.8317757 M138.39625,47.7102804 C141.874859,45.2564083 143.637472,41.0172118 142.927187,36.8130841 C142.927187,36.8130841 151.411042,34.3831776 163.568125,32.2897196 L143.971354,45 L143.971354,45 C142.58547,46.6184931 140.654283,47.6696147 138.545417,47.953271 C138.447162,47.9750833 138.345338,47.9750833 138.247083,47.953271 C138.153854,47.953271 138.153854,47.8037383 138.358958,47.6728972 M45.7264583,48.7383178 C47.7215625,48.3457944 56.0376042,46.4579439 62.5077083,47.2990654 C59.0116803,50.6205001 56.1049499,54.5140788 53.9119792,58.8130841 C52.92375,60.7943925 49.4369792,68.3457944 50.9472917,74.5514019 C46.1926042,82.0280374 44.5890625,89.2056075 47.218125,99.4672897 C47.4517337,100.791651 47.9325035,102.05994 48.6352083,103.205607 C49.3059774,104.244035 50.2935578,105.037349 51.4507292,105.46729 C50.919677,107.141207 50.8872771,108.934067 51.3575,110.626168 C52.9942606,113.131651 54.8141119,115.51201 56.8020833,117.747664 C58.2187792,119.249131 60.1850699,120.106431 62.2466667,120.121495 C62.2052443,121.264418 62.3117918,122.407903 62.5636458,123.523364 C62.6746121,123.982701 62.8372512,124.427921 63.0484375,124.850467 C63.999375,126.17757 64.9130208,127.523364 66.0504167,128.869159 C66.2632012,129.094831 66.5009108,129.295499 66.7589583,129.46729 C67.7746578,130.108533 68.9104751,130.534715 70.0965625,130.719626 C70.7126499,130.823083 71.3364866,130.873113 71.9611458,130.869159 C71.9455582,132.402526 72.4968635,133.887378 73.50875,135.037383 C73.7511458,135.242991 74.5342708,135.766355 75.2241667,136.214953 C75.9140625,136.663551 76.7717708,137.205607 77.6108333,137.785047 C78.8671463,138.695643 80.2407992,139.431313 81.6942708,139.971963 C83.4454588,140.448871 85.2272071,140.804846 87.0269792,141.037383 C96.0888542,150.065421 110.707188,153.542056 110.707188,153.542056 C110.707188,153.542056 100.153646,142.663551 95.0073958,131.373832 C95.0781588,129.839482 95.2777536,128.313837 95.6040625,126.813084 C96.3498958,121.971963 95.3803125,120.570093 93.981875,119.504673 C93.7827472,119.329867 93.5636904,119.179288 93.3292708,119.056075 C94.5114631,118.25852 95.2504986,116.949918 95.324375,115.523364 C95.0819792,112.383178 94.8022917,109.11215 94.5226042,105.785047 C94.3460486,104.173958 93.3618244,102.764474 91.9121875,102.046729 C92.8360907,101.071001 93.4802566,99.863455 93.7767708,98.5514019 C93.310625,96.1028037 92.6580208,93.6728972 92.2851042,90.8504673 C91.6955385,87.097267 89.9327721,83.6285306 87.2507292,80.9439252 C91.1669954,79.5490319 94.860193,77.5908635 98.2144792,75.1308411 C93.5430977,76.0649392 88.7336731,76.0649392 84.0622917,75.1308411 C89.2135525,74.6266679 94.2994991,73.593203 99.24,72.046729 C103.64327,70.7005224 107.794866,68.6354184 111.527604,65.9345794 C112.629201,64.9539532 113.578216,63.8136006 114.343125,62.5514019 C113.914271,62.364486 112.665,61.7476636 112.478542,61.635514 C110.781195,60.6288214 109.278081,59.3246143 108.040833,57.7850467 C106.995549,56.4666377 106.233741,54.9456484 105.803333,53.317757 C109.049609,56.2774291 112.673745,58.7916366 116.580625,60.7943925 C119.459397,62.2327389 122.221229,63.8951547 124.840729,65.7663551 C126.003874,66.6646529 127.112186,67.6321244 128.159688,68.6635514 C132.348178,64.6783434 135.541962,59.760653 137.482604,54.3084112 L151.094062,45.728972 C162.934167,37.3551402 175.911667,26.4205607 173.618229,24.588785 C173.334741,24.3906575 172.993845,24.292081 172.648646,24.3084112 C172.051979,24.3084112 171.436667,24.3084112 170.784062,24.3084112 C161.349271,24.3084112 149.490521,26.8691589 140.335417,29.2429907 C138.981924,26.9831913 137.209819,25.0037138 135.114583,23.411215 C130.594648,17.005599 124.232984,12.1346127 116.878958,9.44859813 C127.618958,19.728972 128.066458,23.2990654 128.066458,23.2990654 L128.066458,23.2990654 C126.112874,20.9874099 123.219182,19.6882396 120.197917,19.7663551 C118.40519,19.8124524 116.623028,20.0569256 114.883854,20.4953271 C106.636616,13.6669965 96.93296,8.83204225 86.5235417,6.36448598 C91.6614063,9.10907039 96.4984131,12.3855076 100.955417,16.1401869 C103.466215,18.2358837 105.702785,20.6412284 107.611979,23.2990654 C105.590043,24.6213382 103.847686,26.3298623 102.484375,28.3271028 C98.556028,28.8538601 94.6856122,29.7487434 90.9239583,31 C77.6688746,20.4194442 62.5445475,12.4360672 46.3417708,7.46728972 C36.3943099,4.39125469 26.0596726,2.75480304 15.6507292,2.60747664 C11.0159724,2.49030416 6.37995925,2.78428439 1.796875,3.48598131 L1.796875,3.48598131 C5.9921875,3.93457944 10.6536458,4.64485981 14.5692708,5.35514019 L15.669375,5.54205607 C19.5104167,6.19626168 22.4378125,6.73831776 23.1277083,6.90654206 C33.5537877,8.93174281 43.7268597,12.0970828 53.4644792,16.3457944 C63.0484375,21.0186916 82.4401042,32.3831776 92.8817708,53.1495327 L92.8817708,53.1495327 C84.2610687,45.4769116 74.8907843,38.6949646 64.9130208,32.9065421 C51.2593346,24.6468847 36.2836057,18.8164277 20.6478125,15.6728972 C20.6478125,15.6728972 22.3259375,16.4018692 25.1228125,17.6915888 C34.3338542,21.9345794 55.7019792,32.2149533 69.1829167,42.3084112 C66.7777417,41.6103825 64.3212639,41.1041313 61.8364583,40.7943925 C57.163659,40.4997828 52.4724481,40.7886016 47.8707292,41.6542056 L47.8707292,41.6542056 L46.546875,41.8224299 L46.546875,41.8224299 C42.1175947,42.4237483 37.6149546,41.5223264 33.7558333,39.2616822 C30.7588567,37.2958043 27.8707064,35.1680542 25.1041667,32.8878505 C20.0590558,28.4996681 15.3240527,23.7655368 10.9333333,18.7196262 C11.522661,21.4050539 12.6381253,23.9464209 14.215,26.1962617 C18.6270145,33.3457278 24.3157977,39.6187451 30.99625,44.7009346 C33.0516069,46.333927 35.3729748,47.5986359 37.8579167,48.4392523 L38.0257292,48.4392523 C40.4907097,49.2546296 43.1370454,49.3454355 45.651875,48.7009346" id="Shape" fill="#00205C" fill-rule="nonzero"></path>
                <path d="M56.5596875,146.495327 C46.9019974,136.457844 38.2406648,125.502886 30.6979167,113.785047 C23.3029377,102.502903 17.1747485,90.4358494 12.425,77.8037383 L12.425,77.8037383 C8.02451912,66.8190856 4.62335913,55.4582357 2.26302083,43.8598131 L0.864583333,43.8598131 C1.20020833,47.8971963 1.72229167,52.7009346 2.26302083,56.6448598 C4.1972732,72.4737598 8.45082417,87.9299321 14.88625,102.514019 C23.3285685,121.164932 34.887454,138.232894 49.0640625,152.981308 C64.3082356,168.935641 82.1607852,182.160361 101.850417,192.084112 L101.850417,181 C85.0421985,171.95005 69.7585315,160.306211 56.5596875,146.495327" id="Shape" fill="#00205C" fill-rule="nonzero"></path>
                <path d="M64.894375,32.9065421 C74.8795743,38.7050339 84.2506941,45.5063738 92.863125,53.2056075 L92.863125,53.2056075 C82.4214583,32.4392523 63.0297917,21.0747664 53.4458333,16.4018692 C43.7576304,12.1154827 33.627748,8.91235161 23.2395833,6.85046729 C22.49375,6.68224299 19.5104167,6.12149533 15.78125,5.48598131 C28.2391135,8.88980529 40.3019845,13.6077492 51.7677083,19.5607477 C57.3614583,22.5327103 64.2044792,28.3084112 64.8197917,32.8691589" id="Shape" fill="#C1C5C8" fill-rule="nonzero"></path>
                <path d="M48.89625,39.9719626 C48.6859794,40.6033624 48.3353074,41.1785974 47.8707292,41.6542056 L47.8707292,41.6542056 C52.4724481,40.7886016 57.163659,40.4997828 61.8364583,40.7943925 C64.3212639,41.1041313 66.7777417,41.6103825 69.1829167,42.3084112 C55.7019792,32.2149533 34.4270833,21.9158879 25.1041667,17.6915888 C32.6789399,22.2312331 39.743073,27.5768014 46.1739583,33.635514 C48.784375,36.2523364 49.3251042,38.4205607 48.8776042,39.9906542" id="Shape" fill="#C1C5C8" fill-rule="nonzero"></path>
                <path d="M176.545625,24.0280374 C176.0394,22.4081898 174.508009,21.3335853 172.816458,21.411215 L171.231563,21.411215 C161.908646,21.411215 150.348229,23.7663551 141.659271,25.953271 C140.374713,24.2466403 138.862744,22.7246721 137.165625,21.4299065 C136.718125,20.8504673 128.644479,10.2149533 117.382396,7.57943925 C117.158646,7.57943925 115.088958,6.98130841 114.361771,7.85981308 C113.634583,8.73831776 114.119375,9.87850467 114.958438,10.7196262 C116.901073,12.6516406 118.690293,14.7327287 120.309792,16.9439252 C118.746025,16.8873122 117.182295,17.0572893 115.666979,17.4485981 C115.666979,17.4485981 101.682604,5.65420561 86.6354167,4.60747664 C86.3930208,4.60747664 84.2673958,4.60747664 83.7826042,5.63551402 C83.2978125,6.6635514 84.0622917,7.65420561 85.0691667,8.25233645 C92.0811321,12.0144951 98.3897359,16.9662533 103.715,22.8878505 C102.699271,23.7638998 101.774689,24.7408503 100.955417,25.8037383 C97.8016914,26.293533 94.6863313,27.0055782 91.6325,27.9345794 C79.5076125,18.4081366 65.8316625,11.0538193 51.2083333,6.19626168 C41.8604087,3.19012585 32.1660947,1.39978364 22.3632292,0.869158879 C20.5359375,0.869158879 8.32291667,0.682242991 1.77822917,3.48598131 L1.77822917,3.48598131 C6.36745741,2.78318312 11.0097589,2.4891998 15.6507292,2.60747664 C26.0596726,2.75480304 36.3943099,4.39125469 46.3417708,7.46728972 C62.5456108,12.4515214 77.6693827,20.4472869 90.9239583,31.0373832 C94.6856122,29.7861265 98.556028,28.8912433 102.484375,28.364486 C103.843882,26.3537737 105.586486,24.6323031 107.611979,23.2990654 C105.705258,20.6280785 103.468589,18.2100651 100.955417,16.1028037 C96.4949828,12.3526826 91.6584673,9.07657824 86.5235417,6.3271028 C96.9560203,8.79765979 106.679901,13.6459462 114.939792,20.4953271 C116.660766,20.0609924 118.423947,19.8165499 120.197917,19.7663551 C123.232115,19.6767818 126.141911,20.9770202 128.10375,23.2990654 L128.10375,23.2990654 C128.10375,23.2990654 127.637604,19.728972 116.91625,9.44859813 C124.2566,12.1412191 130.604491,17.0116195 135.114583,23.411215 C137.19417,24.9779453 138.959275,26.9249599 140.316771,29.1495327 C149.471875,26.7757009 161.330625,24.271028 170.765417,24.2149533 C171.380729,24.2149533 172.014688,24.2149533 172.63,24.2149533 C172.9752,24.198623 173.316095,24.2971996 173.599583,24.4953271 C175.893021,26.364486 162.915521,37.2616822 151.075417,45.635514 L137.482604,54.3271028 C135.541962,59.7793446 132.348178,64.697035 128.159688,68.682243 C127.112186,67.650816 126.003874,66.6833444 124.840729,65.7850467 C122.221229,63.9138463 119.459397,62.2514305 116.580625,60.8130841 C112.673745,58.8103282 109.049609,56.2961207 105.803333,53.3364486 C106.233741,54.96434 106.995549,56.4853293 108.040833,57.8037383 C109.278081,59.3433059 110.781195,60.647513 112.478542,61.6542056 C112.665,61.7663551 113.914271,62.3831776 114.343125,62.5700935 C113.537406,63.8626704 112.537392,65.0227597 111.378438,66.0093458 C107.6457,68.7101848 103.494103,70.7752887 99.0908333,72.1214953 C94.1503325,73.6679693 89.0643858,74.7014343 83.913125,75.2056075 C88.5845064,76.1397055 93.3939311,76.1397055 98.0653125,75.2056075 C94.7089345,77.6622765 91.0162409,79.6201776 87.1015625,81.0186916 C89.7762861,83.708625 91.5377693,87.1748364 92.1359375,90.9252336 C92.5088542,93.7476636 93.1614583,96.1775701 93.6276042,98.6074766 C93.3342266,99.9261881 92.6898648,101.140561 91.7630208,102.121495 C93.2126577,102.83924 94.196882,104.248725 94.3734375,105.859813 C94.653125,109.186916 94.9328125,112.457944 95.1752083,115.598131 C95.101332,117.024684 94.3622964,118.333287 93.1801042,119.130841 C93.4145237,119.254054 93.6335805,119.404633 93.8327083,119.579439 C95.2311458,120.64486 96.2007292,122.046729 95.4548958,126.88785 C95.1285869,128.388604 94.9289921,129.914249 94.8582292,131.448598 C100.004479,142.663551 110.558021,153.616822 110.558021,153.616822 C110.558021,153.616822 95.9583333,150.065421 86.8778125,141.056075 C85.0780404,140.823538 83.2962921,140.467563 81.5451042,139.990654 C80.0916325,139.450004 78.7179797,138.714334 77.4616667,137.803738 C76.6226042,137.224299 75.8208333,136.719626 75.075,136.233645 C74.3291667,135.747664 73.6019792,135.261682 73.3595833,135.056075 C72.3476968,133.90607 71.7963915,132.421217 71.8119792,130.88785 C71.18732,130.891804 70.5634832,130.841775 69.9473958,130.738318 C68.7613084,130.553407 67.6254911,130.127225 66.6097917,129.485981 C66.3517442,129.314191 66.1140346,129.113523 65.90125,128.88785 C64.8384375,127.542056 63.8502083,126.196262 62.8992708,124.869159 C62.6880846,124.446612 62.5254455,124.001393 62.4144792,123.542056 C62.1626251,122.426594 62.0560776,121.28311 62.0975,120.140187 C60.0852331,120.08024 58.1796609,119.219283 56.8020833,117.747664 C54.8578792,115.499859 53.087602,113.10662 51.5066667,110.588785 C51.0364438,108.896684 51.0688436,107.103824 51.5998958,105.429907 C50.4427245,104.999966 49.4551441,104.206652 48.784375,103.168224 C48.0816702,102.022557 47.6009004,100.754268 47.3672917,99.4299065 C44.6636458,89.1682243 46.2671875,82.0841121 51.0964583,74.5140187 C49.4369792,68.271028 52.9051042,60.682243 53.9119792,58.8130841 C56.1274187,54.5354668 59.053098,50.6671273 62.5636458,47.3738318 C56.0376042,46.5327103 47.6469792,48.4205607 45.7823958,48.8130841 C43.2587008,49.4274484 40.612258,49.3042069 38.15625,48.4579439 C40.3225502,50.0661723 42.9211143,50.9844139 45.6145833,51.0934579 C48.2063542,51.2056075 50.2760417,50.5514019 56.0748958,50.2149533 C52.7152647,54.3229451 50.2394553,59.083073 48.8030208,64.1962617 C47.8579201,67.3501703 47.5847566,70.6680178 48.00125,73.9345794 C42.9482292,82.4205607 41.96,90.0841121 44.5890625,100.102804 C44.5890625,100.327103 44.9060417,101.448598 44.9246875,101.485981 C45.4893865,103.590522 46.6952877,105.465889 48.3741667,106.850467 C48.1268696,108.467019 48.2936941,110.12006 48.8589583,111.654206 L49.0267708,111.990654 C50.6705068,114.682439 52.5419763,117.22763 54.6205208,119.598131 L54.6205208,119.598131 C55.9263277,120.96814 57.574658,121.962147 59.3938542,122.476636 C59.5566062,123.74316 59.9416766,124.970815 60.53125,126.102804 L60.755,126.476636 C61.87375,128.028037 62.8433333,129.317757 63.7942708,130.551402 L63.9434375,130.719626 C65.4392676,132.170281 67.3488593,133.11762 69.4066667,133.429907 C69.6740503,134.589651 70.2178753,135.667143 70.9915625,136.570093 C68.4326982,136.078705 65.8390371,135.791203 63.2348958,135.71028 C59.9231589,135.632609 56.6215161,136.106332 53.4644792,137.11215 C43.6008333,127.691589 24.5447917,103.299065 12.4995833,77.8037383 C17.2256941,90.4325889 23.3288077,102.499519 30.6979167,113.785047 C38.2170889,125.499585 46.8533522,136.454428 56.4851042,146.495327 C69.7138276,160.309403 85.0215102,171.958671 101.850417,181.018692 L101.850417,176.570093 C86.5545882,168.19352 72.6215725,157.529029 60.53125,144.943925 L59.8972917,144.327103 L59.8972917,144.327103 C58.8344792,143.205607 56.839375,141.018692 56.0376042,140.102804 C60.0393274,138.726176 64.3205759,138.372813 68.4930208,139.074766 C70.5641435,139.368275 72.6090511,139.824508 74.6088542,140.439252 C76.8810955,141.156763 79.0941986,142.050426 81.228125,143.11215 C83.6494282,144.353755 85.9909387,145.745878 88.2389583,147.280374 L88.2389583,147.280374 C104.348958,157.878505 118.389271,157.616822 118.426562,157.616822 C116.257092,156.288056 114.333101,154.59332 112.739583,152.607477 L112.739583,152.607477 C111.675374,151.353858 110.67948,150.043538 109.75625,148.682243 C109.75625,148.682243 112.161562,148.383178 118.128229,144.943925 C118.948646,144.476636 119.787708,144.046729 120.626771,143.672897 C125.745448,141.352529 131.415872,140.535851 136.979167,141.317757 C130.399142,138.559648 122.916405,139.008196 116.711146,142.53271 C113.93545,144.15006 110.965493,145.406281 107.873021,146.271028 C103.852779,141.553995 100.421471,136.363019 97.6551042,130.813084 C97.6988156,130.032112 97.8111254,129.256524 97.9907292,128.495327 C98.3760273,126.652686 98.5263962,124.768462 98.4382292,122.88785 C98.4226591,121.414255 97.9466201,119.982634 97.0770833,118.794393 C97.7229438,117.727588 98.0286773,116.488611 97.9534375,115.242991 C97.7669792,113.037383 97.114375,105.35514 97.114375,105.317757 C96.9186359,103.95154 96.3653559,102.661685 95.5108333,101.579439 C95.9601444,100.754884 96.2570377,99.8556861 96.3871875,98.9252336 C96.4431802,98.6288019 96.4431802,98.3244691 96.3871875,98.0280374 C96.219375,97.1495327 95.100625,92.271028 94.9141667,90.5514019 C94.5342232,87.5156611 93.427521,84.6170662 91.6884375,82.1028037 C94.5107255,80.860415 97.1923364,79.3189346 99.6875,77.5046729 C100.623689,76.868185 101.193688,75.8159771 101.216458,74.682243 C102.335208,74.271028 103.901458,73.5420561 103.901458,73.5420561 C114.697396,69.0560748 115.834792,65.5046729 116.636563,64.1962617 C118.333333,65.1121495 120.235208,66.1962617 121.279375,66.8317757 C123.763649,68.4563023 125.988948,70.4476019 127.88,72.7383178 C133.247403,68.4304747 137.351643,62.7466538 139.757396,56.2897196 L143.486563,53.953271 L152.809479,48.046729 C158.397085,44.1199699 163.780355,39.908844 168.938125,35.4299065 C176.135417,28.9065421 177.216875,26.271028 176.545625,24.0280374" id="Shape" fill="#FFFFFF" fill-rule="nonzero"></path>
                <path d="M49.0640625,153.018692 C34.8928562,138.265884 23.3346351,121.198903 14.88625,102.551402 C8.46766371,87.9338284 4.23910836,72.4456656 2.33760417,56.588785 C1.796875,52.6448598 1.27479167,47.8598131 0.864583333,43.8598131 L0.864583333,43.8598131 C0.491666667,79.3738318 10.1875,100.308411 12.64875,106.158879 C21.375,126.663551 32.8421875,141.261682 46.9384375,156.457944 C62.5594653,173.556647 81.1699822,187.645393 101.850417,198.028037 L101.850417,192.102804 C82.1642961,182.181243 64.3123869,168.963318 49.0640625,153.018692" id="Shape" fill="#C1C5C8" fill-rule="nonzero"></path>
                <path d="M123.274479,146.775701 C122.193021,147.392523 121.1675,148.028037 120.179271,148.64486 C117.858659,150.262458 115.355114,151.598868 112.720938,152.626168 L112.720938,152.626168 C114.329195,154.613762 116.272994,156.302944 118.463854,157.616822 C118.463854,157.616822 104.367604,157.878505 88.2576042,147.280374 C79.4654886,143.701829 69.7959346,142.886994 60.53125,144.943925 C72.6333138,157.515821 86.564205,168.178686 101.850417,176.570093 C117.403458,167.942854 131.5716,157.01657 143.878125,144.158879 L143.878125,144.158879 C136.973551,142.13537 129.539939,143.090562 123.367708,146.794393" id="Shape" fill="#8A2432" fill-rule="nonzero"></path>
                <polyline id="Shape" fill="#8A2432" fill-rule="nonzero" points="59.971875 144.308411 59.971875 144.327103 59.971875 144.308411"></polyline>
                <path d="M120.645417,143.71028 C119.806354,144.084112 118.967292,144.514019 118.146875,144.981308 C112.180208,148.383178 109.774896,148.719626 109.774896,148.719626 C110.698125,150.080922 111.69402,151.391241 112.758229,152.64486 L112.758229,152.64486 C115.392405,151.617559 117.895951,150.28115 120.216562,148.663551 C121.204792,148.065421 122.230312,147.429907 123.311771,146.794393 C129.484001,143.090562 136.917614,142.13537 143.822187,144.158879 L143.822187,144.158879 L144.530729,143.448598 C142.137289,142.354732 139.590378,141.636064 136.979167,141.317757 L136.979167,141.317757 C131.406244,140.543916 125.728695,141.373653 120.608125,143.71028" id="Shape" fill="#C40D3C" fill-rule="nonzero"></path>
                <path d="M88.3135417,147.261682 L88.3135417,147.261682 C86.0655221,145.727186 83.7240115,144.335064 81.3027083,143.093458 C79.168782,142.031735 76.9556789,141.138072 74.6834375,140.420561 C72.6836344,139.805816 70.6387269,139.349583 68.5676042,139.056075 C64.3951592,138.354121 60.1139107,138.707484 56.1121875,140.084112 C56.9139583,141 58.9090625,143.186916 59.971875,144.308411 L59.971875,144.308411 L60.6058333,144.925234 C69.8645798,142.872191 79.5270338,143.686976 88.3135417,147.261682" id="Shape" fill="#C40D3C" fill-rule="nonzero"></path>
                <path d="M138.247083,47.9345794 C138.345338,47.9563917 138.447162,47.9563917 138.545417,47.9345794 C140.654283,47.6509231 142.58547,46.5998015 143.971354,44.9813084 L143.971354,44.9813084 L163.530833,32.2149533 C151.37375,34.3271028 142.889896,36.7570093 142.889896,36.7570093 C143.577318,40.9425939 141.81731,45.1537449 138.358958,47.5981308 C138.153854,47.728972 138.153854,47.8224299 138.247083,47.8785047" id="Shape" fill="#C1C5C8" fill-rule="nonzero"></path>
                <path d="M102.465729,49.1495327 C99.8803047,44.4452974 99.0538593,38.9707449 100.135,33.7102804 C96.7533271,34.4718425 93.4736364,35.63259 90.3645833,37.1682243 C92.3735774,37.422075 94.3161367,38.0563832 96.0888542,39.0373832 C96.8033853,43.1278811 99.1109126,46.7657756 102.503021,49.1495327" id="Shape" fill="#C40D3C" fill-rule="nonzero"></path>
                <path d="M128.010521,46.5140187 C124.598333,44.8130841 122.9575,37.9158879 122.938854,37.8411215 L122.938854,37.8411215 C122.01215,38.4961604 121.392505,39.5021787 121.223438,40.6261682 C121.123017,41.3811014 121.19963,42.1491089 121.447188,42.8691589 C119.946925,43.024759 118.447555,42.5664301 117.289167,41.5981308 L117.289167,41.5981308 C119.509682,45.2753458 123.681964,47.2970196 127.935938,46.7570093 C128.122396,46.7570093 128.141042,46.5514019 127.935938,46.4953271" id="Shape" fill="#C1C5C8" fill-rule="nonzero"></path>
                <path d="M121.447187,42.8691589 C121.198744,42.1428399 121.122144,41.3685654 121.223437,40.6074766 C121.395219,39.4895206 122.014825,38.4903165 122.938854,37.8411215 L122.938854,37.8411215 C122.757925,37.2159337 122.417278,36.6489436 121.950625,36.1962617 C121.07602,35.4960372 120.023071,35.0556921 118.911354,34.9252336 C116.744011,34.6069292 114.537106,35.1282616 112.739583,36.3831776 C114.335438,36.3075073 115.890225,36.9038421 117.028125,38.0280374 C116.357404,39.160229 116.438526,40.5870489 117.233229,41.635514 L117.233229,41.635514 C118.391617,42.6038133 119.890987,43.0621422 121.39125,42.9065421" id="Shape" fill="#FFFFFF" fill-rule="nonzero"></path>
                <path d="M134.238229,50.3271028 C133.467219,51.8766335 132.32732,53.211919 130.919271,54.2149533 C130.757907,55.9259267 130.426862,57.6165224 129.931042,59.2616822 C132.556613,57.0234776 134.120192,53.7800808 134.238229,50.3271028 L134.238229,50.3271028 Z" id="Shape" fill="#8A2432" fill-rule="nonzero"></path>
                <path d="M68.4370833,79.8785047 L68.4370833,79.8785047 C66.5072129,80.2846324 64.6303099,80.911802 62.8433333,81.7476636 C63.0192089,79.4900072 63.6943665,77.2999381 64.8197917,75.3364486 C60.7799164,76.1576305 57.1789583,78.4312028 54.6951042,81.728972 C52.7785477,84.3917163 51.5894343,87.510328 51.245625,90.7757009 C50.7235417,96.9813084 53.0169792,99.1869159 53.0169792,99.1869159 C53.0169792,93.5794393 59.5430208,87.4859813 68.3252083,84.6635514 C68.3252083,84.6635514 68.3252083,81.5046729 68.3252083,79.953271" id="Shape" fill="#C40D3C" fill-rule="nonzero"></path>
                <path d="M68.4370833,79.8785047 L68.4370833,79.8785047 C68.4370833,81.4299065 68.4370833,84.5514019 68.4370833,84.588785 L68.4370833,84.588785 C77.76,81.635514 83.5961458,84.0093458 83.5961458,84.0093458 C81.5078125,80.271028 75.3360417,78.4018692 68.4930208,79.8785047" id="Shape" fill="#8A2432" fill-rule="nonzero"></path>
                <path d="M65.1927083,100.626168 C63.5130261,98.6885974 62.7335293,96.1269326 63.0484375,93.5794393 C60.1119801,95.0543264 57.8693963,97.6245274 56.8020833,100.738318 C55.8374466,103.939656 56.7450407,107.412863 59.1514583,109.728972 C58.8750371,111.233179 59.4662211,112.765356 60.6804167,113.691589 C60.9228125,110.495327 63.7010417,107.523364 66.2741667,105.411215 C67.9491517,104.050858 69.7762889,102.890413 71.71875,101.953271 C70.9473085,100.776295 70.2377979,99.5596801 69.593125,98.3084112 C68.0964582,98.9366858 66.6660721,99.7131186 65.3232292,100.626168" id="Shape" fill="#C40D3C" fill-rule="nonzero"></path>
                <path d="M69.4626042,98.3084112 C70.107277,99.5596801 70.8167877,100.776295 71.5882292,101.953271 C76.0281556,99.7085415 81.1303864,99.1572111 85.9455208,100.401869 C85.3646529,99.0217691 84.1813702,97.9873042 82.7384375,97.5981308 C78.3585335,96.3391553 73.6839519,96.5892536 69.4626042,98.3084112" id="Shape" fill="#8A2432" fill-rule="nonzero"></path>
                <path d="M59.18875,69.6728972 C60.2617437,70.9160624 61.8907408,71.5284353 63.5145833,71.2990654 C67.0281814,71.0839174 70.2836502,69.3774011 72.4645833,66.6074766 C72.6599833,62.0856464 73.5531486,57.6214717 75.1122917,53.3738318 C68.0728645,56.7820292 62.4410563,62.5466519 59.18875,69.6728972" id="Shape" fill="#8A2432" fill-rule="nonzero"></path>
                <path d="M58.1072917,67.2803738 C58.2737366,68.1524653 58.6443909,68.9724683 59.18875,69.6728972 C62.4410563,62.5466519 68.0728645,56.7820292 75.1122917,53.3738318 C75.8208333,51.2429907 76.7158333,48.8878505 77.8532292,46.3271028 C72.3195974,47.6523485 67.2244144,50.3962001 63.0670833,54.2897196 C59.7667708,57.5794393 57.3428125,63.317757 58.1072917,67.3738318" id="Shape" fill="#C40D3C" fill-rule="nonzero"></path>
                <path d="M110.464792,44.5140187 L110.464792,44.5140187 C111.527604,51.1308411 114.193958,53.728972 116.785729,55.2803738 C119.3775,56.8317757 121.708229,57.8971963 123.143958,58.7383178 C124.58646,59.397117 125.861402,60.3748409 126.873125,61.5981308 C126.873125,61.5981308 128.588542,53.411215 125.493333,51.8411215 C123.905071,52.6060694 122.599512,53.8559381 121.764167,55.411215 L121.764167,55.411215 C121.314943,53.7006232 121.27025,51.9085272 121.633646,50.1775701 C117.426929,48.6191214 114.154631,45.228761 112.739583,40.9626168 C111.293535,40.062714 109.555305,39.7611284 107.891667,40.1214953 C107.726886,40.9337794 107.639479,41.7599228 107.630625,42.588785 C107.593619,44.7218638 108.176705,46.8196305 109.30875,48.6261682 C109.383508,47.2098745 109.778839,45.8292127 110.464792,44.588785" id="Shape" fill="#C40D3C" fill-rule="nonzero"></path>
                <path d="M86.821875,128.495327 C86.3370833,128.626168 84.9572917,130.046729 87.0083333,133.616822 C90.8299628,138.945847 95.6493165,143.478649 101.197812,146.962617 C96.9227253,142.338744 93.2797441,137.165713 90.3645833,131.579439 C90.0261701,130.822082 89.6006466,130.106954 89.0966667,129.448598 C88.5916083,128.741715 87.7367561,128.374451 86.8778125,128.495327" id="Shape" fill="#FFFFFF" fill-rule="nonzero"></path>
                <path d="M123.927083,32.1775701 C128.010521,35.5420561 128.196979,43.635514 132.373646,45.2616822 C132.445423,42.3521514 132.308333,39.4412132 131.963438,36.5514019 C131.474679,33.8426393 130.241267,31.3244474 128.402083,29.2803738 C127.991875,28.8504673 125.6425,26.046729 119.862292,26.2897196 C115.574939,26.4697827 111.602116,28.5951964 109.066354,32.0654206 C111.209374,30.84477 113.631038,30.2008423 116.095833,30.1962617 C118.846095,30.0472159 121.576758,30.7380742 123.927083,32.1775701" id="Shape" fill="#C40D3C" fill-rule="nonzero"></path>
                <path d="M132.429583,45.2429907 C138.265729,36.9813084 135.580729,31.7102804 135.580729,31.7102804 C134.751791,30.061294 133.454144,28.6954213 131.851562,27.7850467 C133.343229,30.9439252 132.13125,35.8411215 131.851562,36.5327103 C132.196458,39.4225216 132.333548,42.3334598 132.261771,45.2429907" id="Shape" fill="#8A2432" fill-rule="nonzero"></path>
                <path d="M73.0426042,114.981308 C71.592543,113.15878 70.8743064,110.858783 71.0288542,108.53271 C66.34875,111.149533 65.7520833,114.607477 65.7520833,114.607477 C65.0696664,117.436642 65.9191782,120.417229 67.9895833,122.457944 C67.6458924,123.826428 68.1002277,125.272302 69.1642708,126.196262 C69.4998958,122.719626 74.3478125,118.719626 79.2516667,116.700935 C79.2516667,116.700935 78.0769792,114.831776 77.1819792,113.261682 C75.7659879,113.677407 74.4068986,114.267582 73.1358333,115.018692" id="Shape" fill="#C40D3C" fill-rule="nonzero"></path>
                <path d="M77.08875,113.224299 C77.98375,114.88785 79.1770833,116.757009 79.1770833,116.757009 C82.5460986,115.392566 86.23572,115.029187 89.8052083,115.71028 C88.6491667,113.841121 85.3861458,112.775701 81.8807292,112.738318 C80.2718338,112.732787 78.6684714,112.92742 77.1073958,113.317757" id="Shape" fill="#8A2432" fill-rule="nonzero"></path>
                <polygon id="Shape" fill="#00205C" fill-rule="nonzero" points="147.719167 143.859813 148.949792 143.859813 148.949792 147.186916 149.621042 147.186916 149.621042 143.859813 150.851667 143.859813 150.851667 143.280374 147.719167 143.280374"></polygon>
                <polygon id="Shape" fill="#00205C" fill-rule="nonzero" points="153.350208 146.327103 153.350208 146.327103 152.26875 143.280374 151.317813 143.280374 151.317813 147.186916 151.951771 147.186916 151.951771 144.158879 151.970417 144.158879 153.051875 147.186916 153.61125 147.186916 154.692708 144.158879 154.692708 144.158879 154.692708 147.186916 155.345312 147.186916 155.345312 143.280374 154.394375 143.280374"></polygon>
            </g>
        </g>
    </g>
</svg>