<?xml version="1.0" encoding="UTF-8"?>
<svg width="200px" height="200px" viewBox="0 0 200 200" version="1.1" xmlns="http://www.w3.org/2000/svg" xmlns:xlink="http://www.w3.org/1999/xlink">
    <title>shippensburg_BGL</title>
    <defs>
        <polygon id="path-1" points="1.35924714e-14 0 72.5331381 0 72.5331381 33.4683717 1.35924714e-14 33.4683717"></polygon>
    </defs>
    <g id="shippensburg_BGL" stroke="none" stroke-width="1" fill="none" fill-rule="evenodd">
        <g id="shippensburg_bgl" transform="translate(0.000000, 11.000000)">
            <path d="M72.8840806,169.93489 C72.3580137,172.473402 71.4665696,175.205123 73.4244947,176.718283 L73.3938872,176.864625 L60.9232338,176.864625 L60.9538414,176.718283 C63.5382642,175.205123 63.7812114,172.473402 64.3072783,169.93489 L68.0815687,151.732021 C68.6076355,149.194466 69.5086445,146.413007 67.5516759,144.899848 L67.5813269,144.753506 L80.0519803,144.753506 L80.0223292,144.899848 C77.4369499,146.413007 77.1844378,149.194466 76.658371,151.732021 L72.8840806,169.93489" id="Fill-1" fill="#FFFFFE"></path>
            <g id="Group-5" transform="translate(102.546598, 143.973014)">
                <mask id="mask-2" fill="white">
                    <use xlink:href="#path-1"></use>
                </mask>
                <g id="Clip-3"></g>
                <path d="M11.6471196,27.4740793 C13.0455009,28.1091855 14.7413491,28.206747 16.3635479,28.206747 C18.9594486,28.206747 21.4616137,27.7677203 23.6883111,25.5228496 L23.9197805,25.5228496 L20.5376491,32.8916112 L1.35924714e-14,32.8916112 L0.0306075247,32.745269 C2.61598687,31.2321095 2.85797762,28.5003879 3.38500093,25.9618763 L7.16885617,7.71022676 C7.694923,5.17267167 8.59688849,2.39121287 6.62844206,0.926834106 L6.6580931,0.780491879 L22.8848636,0.780491879 C23.5802283,0.780491879 24.3215043,0.780491879 24.8829611,0.536588167 L25.0216514,0.536588167 L23.5544032,7.61266528 L23.4157129,7.61266528 C22.6390469,5.3190139 19.9455848,5.56291761 17.6739325,5.56291761 L16.1904241,5.56291761 L14.5510085,13.4692238 L18.8628436,13.4692238 C19.512297,13.4692238 20.1703588,13.4204431 20.6294716,13.2253201 L20.860941,13.2253201 L19.4443865,20.056537 L19.2119606,20.056537 C18.9680569,18.1043508 16.7949227,18.3004303 15.0789883,18.3004303 L13.5495686,18.3004303 L11.6471196,27.4740793" id="Fill-2" fill="#FFFFFE" mask="url(#mask-2)"></path>
                <path d="M47.910341,24.7423578 C50.0413899,26.9872284 53.5191699,28.5482122 56.857303,28.5482122 C58.9424406,28.5482122 61.9228484,27.816501 62.4890876,25.0828665 C63.7239099,19.1297029 49.3316779,20.350178 51.5985477,9.41755275 C52.1743517,6.63609394 54.0299329,3.95315311 56.4957516,2.34243212 C59.2236473,0.585368909 62.2203152,0 65.0486418,0 C67.6445425,0 70.3246139,0.486850939 72.5331381,1.46342227 L71.3490095,7.1736386 C69.6751605,5.85655855 67.6062831,4.87998722 65.2877631,4.87998722 C63.4809627,4.87998722 61.0830544,5.70925984 60.6076813,8.00291122 C60.1217868,10.3453433 62.6182131,11.2731339 64.1715449,12.0536258 C66.1839897,13.0789779 68.0778303,14.005812 69.5785555,15.713138 C71.3786605,17.7628856 72.1295013,19.959932 71.4810044,23.082856 C70.8229426,26.2545608 68.9845782,29.0857568 66.1323395,30.9882058 C62.9625477,33.0867342 59.9037082,33.5257609 56.6124428,33.5257609 C53.5536033,33.5257609 50.6143245,32.9403919 47.9830338,31.7696541 L47.910341,24.7423578" id="Fill-4" fill="#FFFFFE" mask="url(#mask-2)"></path>
            </g>
            <path d="M25.751362,143.401992 L22.9584254,156.882694 C26.6074162,156.226545 29.8699871,153.065361 30.648566,149.307331 C31.0435944,147.398187 30.7279543,145.370438 29.4319169,144.237004 C28.6169915,143.521553 27.4519926,143.401992 26.3185577,143.401992 L25.751362,143.401992 Z M20.5844293,168.33469 C19.9416713,171.437528 18.8398004,174.836876 21.2338827,176.685762 L21.1975363,176.864625 L5.953076,176.864625 L5.98942244,176.685762 C9.14964936,174.836876 9.45763757,171.437528 10.1003956,168.33469 L14.6991762,146.145191 C15.3419342,143.044267 16.4428486,139.643005 14.0497228,137.795076 L14.0870257,137.615866 L30.8609057,137.615866 C33.6385386,137.615866 35.9168862,137.556911 38.1703652,138.987813 C41.1182524,140.896957 42.1636907,144.058141 41.3353745,148.054336 C40.4085404,152.527817 36.7251161,155.808561 32.6380551,157.47954 L36.9221521,169.348565 C37.8958539,172.033418 39.0206805,174.538453 40.8791311,176.506899 L32.9469998,177.043488 C29.100973,177.282609 27.3993859,176.745064 26.1817804,173.047293 L22.3022766,160.042921 L20.5844293,168.33469 L20.5844293,168.33469 Z" id="Fill-6" fill="#FFFFFE"></path>
            <path d="M51.8691454,153.00032 L51.8222777,153.00032 L46.7691666,162.614909 L53.0743167,162.614909 L51.8691454,153.00032 Z M44.4841236,167.153431 L42.6830621,170.472435 C42.1560388,171.447093 41.3325051,172.960252 41.1201654,173.985605 C40.8360893,175.351465 41.5391059,175.985615 42.2220363,176.718283 L42.1914287,176.864625 L32.6877923,176.864625 L32.7183998,176.718283 C34.834145,175.01 35.7303716,173.594402 37.0809286,171.106584 L47.5161815,151.63446 C47.9963371,150.658845 49.1335979,148.755439 49.3459376,147.730087 C49.6194924,146.413007 48.966213,145.534954 48.1704174,144.899848 L48.2010249,144.753506 L59.5602425,144.753506 L63.1107154,169.886109 C63.5755671,173.009033 63.5746107,174.131947 65.6807909,176.718283 L65.6607048,176.816801 L65.6501834,176.864625 L51.6491539,176.864625 L51.6797614,176.718283 C52.897367,175.985615 53.8739383,175.303641 54.1981868,173.741701 C54.3693976,172.912428 54.3273123,172.668525 54.2115776,171.887076 L53.6635116,167.153431 L44.4841236,167.153431 L44.4841236,167.153431 Z" id="Fill-7" fill="#FFFFFE"></path>
            <path d="M85.5489004,171.643172 C86.3226969,171.935857 87.1376222,172.033418 87.9716773,172.033418 C90.8927829,172.033418 92.9396611,171.106584 95.0257552,168.42173 C96.7426461,166.177816 97.6599153,163.5427 98.1965035,160.956364 C99.2390723,155.929078 98.8143929,149.926177 93.1118284,149.926177 C92.0922153,149.926177 91.0419946,150.073476 89.9812526,150.268599 L85.5489004,171.643172 Z M80.4431827,154.903726 C80.7875173,153.245181 81.7086125,148.80422 81.7698276,147.388622 C81.7870443,146.413007 81.3145407,145.338874 80.5703952,144.899848 L80.6010027,144.753506 L90.4298441,144.753506 C95.4360874,144.753506 100.169732,144.509602 103.703945,147.583745 C107.239114,150.658845 108.283596,155.685174 107.190333,160.956364 C106.20898,165.689052 103.296482,170.56904 99.1089903,173.546578 C94.1515278,177.108529 89.566138,176.864625 84.3733802,176.864625 L73.9429096,176.864625 L73.9725607,176.718283 C76.5588965,175.205123 76.8104521,172.423664 77.3365189,169.886109 L80.4431827,154.903726 L80.4431827,154.903726 Z" id="Fill-8" fill="#FFFFFE"></path>
            <path d="M140.076206,149.487151 L137.788293,160.516381 C140.77444,159.979793 143.443033,157.393457 144.081009,154.318357 C144.404301,152.756417 144.147006,151.097871 143.086264,150.170081 C142.420551,149.584712 141.466935,149.487151 140.539144,149.487151 L140.076206,149.487151 Z M135.845672,169.886109 C135.319605,172.423664 134.418596,175.205123 136.376521,176.718283 L136.345914,176.864625 L123.874304,176.864625 L123.905868,176.718283 C126.491247,175.205123 126.742803,172.423664 127.268869,169.886109 L131.034552,151.732021 C131.559662,149.194466 132.461627,146.413007 130.502746,144.899848 L130.533353,144.753217 L144.256046,144.753217 C146.527698,144.753217 148.391887,144.704725 150.235991,145.875463 C152.64729,147.437403 153.502388,150.023739 152.82424,153.293961 C152.06479,156.953474 149.051862,159.638327 145.707034,161.004188 L149.211595,170.716338 C150.008347,172.912428 150.92753,174.961219 152.447384,176.57194 L145.958589,177.011924 C142.811753,177.207047 141.419111,176.767063 140.424366,173.741701 L137.252661,163.102717 L135.845672,169.886109 L135.845672,169.886109 Z" id="Fill-9" fill="#FFFFFE"></path>
            <path d="M26.7078472,142.445507 L23.9149106,155.926209 C27.5639014,155.27006 30.8264722,152.108876 31.6050511,148.350846 C32.001036,146.441702 31.6834829,144.413953 30.388402,143.280518 C29.5744332,142.565068 28.4084778,142.445507 27.2750429,142.445507 L26.7078472,142.445507 Z M21.5409144,167.378205 C20.8981564,170.481043 19.797242,173.880391 22.1903678,175.729277 L22.1540214,175.90814 L6.90956115,175.90814 L6.94590758,175.729277 C10.1061345,173.880391 10.4141227,170.481043 11.0568807,167.378205 L15.6556613,145.188706 C16.2984193,142.087781 17.3993337,138.687477 15.0062079,136.838591 L15.0435108,136.65844 L31.8173908,136.65844 C34.5940672,136.65844 36.8733713,136.600426 39.1268503,138.031328 C42.0747375,139.940472 43.1201758,143.101656 42.2918597,147.097851 C41.3650256,151.571332 37.6816013,154.852076 33.5954967,156.523055 L37.8786372,168.392079 C38.8523391,171.076933 39.9771656,173.581968 41.8356163,175.550414 L33.9034849,176.087002 C30.0574582,176.326124 28.3558711,175.788579 27.1382655,172.090807 L23.2587617,159.086435 L21.5409144,167.378205 L21.5409144,167.378205 Z" id="Fill-10" fill="#DC3B41"></path>
            <path d="M52.8256306,152.043835 L52.7787628,152.043835 L47.7256518,161.658424 L54.0308019,161.658424 L52.8256306,152.043835 Z M45.4406088,166.196946 L43.6395472,169.514993 C43.1125239,170.490608 42.2889902,172.003767 42.0766505,173.029119 C41.7925744,174.39498 42.495591,175.02913 43.1785214,175.761797 L43.1479139,175.90814 L33.6442775,175.90814 L33.674885,175.761797 C35.7906301,174.053515 36.6868567,172.637917 38.0374137,170.150099 L48.4726667,150.677975 C48.9537787,149.70236 50.0900831,147.798954 50.3024228,146.773602 C50.5759775,145.456522 49.9226982,144.578469 49.127859,143.943363 L49.1584665,143.79702 L60.5167276,143.79702 L64.0672005,168.929624 C64.5320523,172.052548 64.5310958,173.175462 66.6372761,175.761797 L66.6171899,175.859359 L66.6066686,175.90814 L52.605639,175.90814 L52.6362465,175.761797 C53.8538521,175.02913 54.8304234,174.347156 55.1546719,172.785216 C55.3258828,171.955943 55.2837974,171.712039 55.1680627,170.930591 L54.6199967,166.196946 L45.4406088,166.196946 L45.4406088,166.196946 Z" id="Fill-11" fill="#DC3B41"></path>
            <path d="M73.8405657,168.978405 C73.3144989,171.516916 72.4230547,174.248638 74.3809798,175.761797 L74.3503723,175.90814 L61.879719,175.90814 L61.90937,175.761797 C64.4947494,174.248638 64.7376966,171.516916 65.2637634,168.978405 L69.0380538,150.775536 C69.5641206,148.237981 70.4651296,145.456522 68.508161,143.943363 L68.5378121,143.79702 L81.0084654,143.79702 L80.9788144,143.943363 C78.393435,145.456522 78.1409229,148.237981 77.6148561,150.775536 L73.8405657,168.978405" id="Fill-12" fill="#DC3B41"></path>
            <path d="M86.506342,170.685731 C87.2801385,170.979372 88.0941074,171.076933 88.9281624,171.076933 C91.8483116,171.076933 93.8961463,170.150099 95.9822404,167.465245 C97.6991312,165.221331 98.6164005,162.586215 99.1529886,159.998922 C100.194601,154.972593 99.770878,148.969692 94.0683136,148.969692 C93.0487004,148.969692 91.9984797,149.116991 90.9377377,149.312114 L86.506342,170.685731 Z M81.4006243,153.947241 C81.7440025,152.288695 82.6650977,147.847735 82.7263127,146.432137 C82.7435295,145.456522 82.2710258,144.382389 81.5268804,143.943363 L81.5574879,143.79702 L91.3863292,143.79702 C96.3925725,143.79702 101.126217,143.553117 104.66043,146.62726 C108.196556,149.70236 109.240081,154.728689 108.146818,159.998922 C107.165465,164.732567 104.252967,169.612554 100.065475,172.590093 C95.1080129,176.152043 90.5226232,175.90814 85.3298653,175.90814 L74.8993948,175.90814 L74.9290458,175.761797 C77.5144252,174.248638 77.7669372,171.467179 78.2930041,168.929624 L81.4006243,153.947241 L81.4006243,153.947241 Z" id="Fill-13" fill="#DC3B41"></path>
            <path d="M115.150203,170.490608 C116.548584,171.125714 118.244432,171.223275 119.866631,171.223275 C122.462532,171.223275 124.964697,170.784249 127.191394,168.539378 L127.422864,168.539378 L124.040732,175.90814 L103.503083,175.90814 L103.533691,175.761797 C106.11907,174.248638 106.361061,171.516916 106.888084,168.978405 L110.671939,150.726755 C111.198006,148.1892 112.099972,145.407741 110.131525,143.943363 L110.161176,143.79702 L126.387947,143.79702 C127.083311,143.79702 127.824587,143.79702 128.385088,143.553117 L128.524734,143.553117 L127.05653,150.629194 L126.918796,150.629194 C126.14213,148.335542 123.448668,148.579446 121.177016,148.579446 L119.693507,148.579446 L118.054092,156.485752 L122.365927,156.485752 C123.01538,156.485752 123.674398,156.436972 124.131598,156.241849 L124.364024,156.241849 L122.94747,163.073066 L122.715044,163.073066 C122.47114,161.120879 120.298006,161.316959 118.582071,161.316959 L117.052652,161.316959 L115.150203,170.490608" id="Fill-14" fill="#DC3B41"></path>
            <path d="M141.032691,148.530665 L138.745735,159.559896 C141.730925,159.023307 144.399518,156.436972 145.037494,153.361872 C145.360786,151.799932 145.102535,150.141386 144.04275,149.213596 C143.376079,148.628227 142.42342,148.530665 141.49563,148.530665 L141.032691,148.530665 Z M136.802157,168.929624 C136.27609,171.467179 135.375081,174.248638 137.333006,175.761797 L137.302399,175.90814 L124.830789,175.90814 L124.862353,175.761797 C127.447732,174.248638 127.699288,171.467179 128.225355,168.929624 L131.991037,150.775536 C132.516147,148.237981 133.418112,145.456522 131.460187,143.943363 L131.489838,143.796732 L145.212531,143.796732 C147.484183,143.796732 149.349329,143.74824 151.192476,144.918977 C153.603775,146.480918 154.458873,149.067254 153.780725,152.337476 C153.021276,155.996988 150.008347,158.681842 146.664475,160.047703 L150.16808,169.759853 C150.964833,171.955943 151.884015,174.004734 153.40387,175.615455 L146.915074,176.055438 C143.768238,176.250561 142.375596,175.810578 141.380851,172.785216 L138.209147,162.146231 L136.802157,168.929624 L136.802157,168.929624 Z" id="Fill-15" fill="#DC3B41"></path>
            <path d="M151.413424,167.758886 C153.544473,170.003757 157.022253,171.564741 160.360386,171.564741 C162.445524,171.564741 165.425931,170.83303 165.992171,168.099395 C167.226993,162.146231 152.834761,163.366706 155.100674,152.435038 C155.677435,149.652622 157.533016,146.969682 159.998835,145.358961 C162.72673,143.601897 165.723398,143.016528 168.550768,143.016528 C171.147626,143.016528 173.828653,143.503379 176.036221,144.479951 L174.852093,150.190167 C173.178244,148.873087 171.109366,147.896516 168.790846,147.896516 C166.983089,147.896516 164.586137,148.725788 164.110764,151.01944 C163.62487,153.361872 166.121296,154.289662 167.674628,155.070154 C169.688029,156.095506 171.580913,157.02234 173.081639,158.729666 C174.881744,160.779414 175.632584,162.976461 174.984087,166.099385 C174.326026,169.271089 172.487661,172.102285 169.636379,174.004734 C166.465631,176.103263 163.406791,176.542289 160.115526,176.542289 C157.056686,176.542289 154.117408,175.95692 151.486117,174.786183 L151.413424,167.758886" id="Fill-16" fill="#DC3B41"></path>
            <path d="M177.646942,73.8463922 C177.318868,73.8463922 177.020444,73.6283136 176.928622,73.3002392 C176.707674,72.507313 176.670371,72.3705356 176.359513,70.993197 C176.312645,70.7827703 176.3576,70.5618222 176.484813,70.3886984 C176.612025,70.2146181 176.808105,70.1036658 177.023314,70.0845361 C179.004195,69.9104558 181.730177,69.6168149 184.615893,69.3069137 C189.527444,68.7789339 195.093231,68.1811307 198.466754,68.0118328 C198.479189,68.0118328 198.491623,68.0108763 198.505014,68.0108763 C198.878043,68.0108763 199.196552,68.2892135 199.244377,68.6631992 C199.294114,69.0505757 199.036819,69.4111706 198.655182,69.4896023 C198.655182,69.4896023 182.580493,72.8229531 177.801893,73.8301319 C177.749286,73.8416098 177.698592,73.8463922 177.646942,73.8463922" id="Fill-17" fill="#FFFFFE"></path>
            <path d="M198.505014,67.2638614 C198.48971,67.2638614 198.474406,67.2638614 198.459102,67.2648179 C198.445712,67.2657744 198.432321,67.2657744 198.41893,67.2667309 C195.024364,67.4369852 189.455708,68.0357449 184.542244,68.5637247 C181.656528,68.8736259 178.932458,69.1663104 176.957316,69.3403907 C176.527855,69.3776936 176.136652,69.5995981 175.882227,69.9477587 C175.627802,70.2949628 175.535979,70.7359025 175.631628,71.156756 C175.936747,72.5178343 175.977876,72.6756544 176.208388,73.5001446 C176.392034,74.1572499 176.989837,74.5934071 177.645986,74.5934071 C177.74833,74.5934071 177.85163,74.5828857 177.95493,74.5608866 C182.584318,73.5862282 198.017206,70.3848724 198.779525,70.2270524 C199.472977,70.0979269 200,69.4896023 200,68.7578912 C200,67.937227 199.340982,67.2705568 198.520317,67.2638614 C198.514579,67.2638614 198.510753,67.2638614 198.505014,67.2638614 Z M198.504057,68.7578912 C198.504057,68.7578912 182.427455,72.0921984 177.647899,73.0993773 C177.42982,72.3188854 177.393474,72.184021 177.088355,70.8286815 C182.46954,70.3552214 193.187913,69.0247506 198.504057,68.7578912 L198.504057,68.7578912 Z" id="Fill-18" fill="#FFFFFE"></path>
            <g id="Group-24" fill="#FFFFFE">
                <path d="M111.109053,136.756333 C98.7091795,136.756333 86.1170526,134.634849 73.6837022,130.453096 C60.6104632,126.054221 48.3425847,119.465951 38.1789735,111.388434 C36.8408508,111.783463 35.5983766,112.21962 34.4831149,112.684472 C33.3047252,113.175148 32.3568485,113.41427 31.5859214,113.41427 C30.0928481,113.41427 29.4988708,112.474045 29.4414817,111.595035 C29.3831361,110.719851 29.810685,109.595981 30.4859635,108.6548 C20.6045155,110.150742 6.61400724,112.980982 6.45236125,113.014459 C6.40262402,113.024024 6.35288679,113.028806 6.30314956,113.028806 C5.97985758,113.028806 5.68526016,112.817423 5.58865516,112.497 C5.47770288,112.127797 5.66613046,111.734682 6.0238559,111.589296 C6.0238559,111.589296 6.13576466,111.543385 6.34810437,111.460171 C6.35193031,111.441997 6.35671273,111.423824 6.36053867,111.407564 C7.73979025,106.400364 9.11808535,101.017266 9.9263153,95.432349 C5.15154145,96.1975371 1.66515309,96.8316867 1.62785017,96.8374256 C1.58289537,96.846034 1.53794057,96.8498599 1.49394225,96.8498599 C1.20221428,96.8498599 0.932485468,96.6786491 0.811011855,96.4060508 C0.671365024,96.0904107 0.765100568,95.720251 1.03769883,95.5107807 C1.0979574,95.4648695 6.68000471,91.1731206 12.2917031,87.3357022 C12.0822328,87.1922294 11.9052831,86.9999759 11.7952873,86.7417249 C11.3830422,85.773762 12.3070068,84.7283237 12.6111691,84.3849455 C13.0769774,83.8569657 13.6728676,83.2409893 14.2744968,82.6297953 C10.4198616,74.7560096 8.42941604,66.8315301 8.35098426,59.0533929 C8.35098426,59.0533929 8.10708055,59.0744356 8.08412491,59.0744356 C7.8010053,59.0744356 7.53988486,58.9127896 7.4145853,58.6564516 C7.02529585,57.8663948 6.96312431,57.2207674 7.22424476,56.6841792 C7.47197441,56.1743726 7.93969565,55.9065568 8.44280684,55.7420413 C8.68671055,51.7515853 9.42894302,47.8883418 10.653244,44.2508288 C11.3208706,42.2651656 12.1434479,40.3225443 13.1573221,38.3368811 C12.9153314,38.281405 12.7001222,38.2259289 12.5078687,38.1647138 C12.3768302,38.1455841 12.2486612,38.0968034 12.1510997,38.0183716 C11.9779759,37.8806377 11.8364161,37.6816888 11.8306772,37.4607407 C11.8163299,36.8916321 12.2802252,36.2756556 13.6240869,34.5778945 C15.7168764,31.9360825 19.2128296,27.5238166 18.6140699,24.4152398 C18.5738975,24.2794189 18.5672021,24.1359462 18.6006791,24.0039512 C18.7489343,23.4243212 19.2233509,23.2865874 21.7169077,22.6514812 C22.4553142,22.4640101 23.53136,22.1894989 23.9283013,22.0374178 C23.9837775,21.9714203 24.0516879,21.9159442 24.1282067,21.8719458 C25.2472944,21.2425786 26.2200398,20.6505143 27.1009626,20.1148826 C29.7552089,18.4993792 31.6901783,17.321946 34.2573844,17.1794297 C37.0723202,15.6069681 40.1015087,14.197109 43.2693875,12.9852423 C43.6070267,12.1550132 44.618988,11.55721 45.6070372,11.0722721 C48.5970098,9.54572176 51.9504467,8.76905582 55.5611781,8.76905582 C56.404798,8.76905582 57.2675476,8.81305414 58.1255148,8.90009428 C63.7228658,7.8948284 69.5966411,7.38502181 75.5871076,7.38502181 C87.9802856,7.38502181 100.556152,9.50267993 112.96846,13.6786941 C144.641509,24.3301127 168.850148,46.329271 176.162477,71.1012798 C176.503942,71.6091734 176.60533,71.9037709 176.744977,72.3504494 C176.803322,72.538877 176.873146,72.7646075 176.993663,73.0792911 C177.074008,73.2906743 177.055834,73.5269261 176.942969,73.7220491 C176.920013,73.759352 176.896101,73.7937855 176.86932,73.826306 C179.058714,82.8832638 178.76603,91.6437113 175.998918,99.872353 C168.458946,122.278018 142.988703,136.756333 111.113835,136.756333 C111.110966,136.756333 111.110966,136.756333 111.109053,136.756333" id="Fill-19"></path>
                <path d="M75.5871076,6.6389634 C69.5889893,6.6389634 63.7056491,7.14590053 58.0958637,8.14638399 C57.2484179,8.06412627 56.3961896,8.02204092 55.5611781,8.02204092 C51.830886,8.02204092 48.3636274,8.82644493 45.2569636,10.4122973 C44.5797721,10.7441976 43.3210377,11.362087 42.7289734,12.393178 C39.6816117,13.5725242 36.7633755,14.9336026 34.0412188,16.4448491 C31.3793206,16.6371026 29.4032223,17.8394045 26.7135861,19.4759505 C25.847967,20.0029739 24.8666133,20.5998206 23.7618729,21.2215359 C23.6767458,21.2693602 23.5973575,21.3248363 23.5246646,21.3870079 C23.0932898,21.5304806 22.1741076,21.7648195 21.5323061,21.9283785 C18.9268405,22.5912227 18.1396532,22.7911281 17.8775763,23.8193496 C17.8134918,24.0689922 17.8192307,24.3339386 17.8852282,24.5835812 C18.3921653,27.3564317 14.9134288,31.747655 13.038718,34.1139992 C11.6403367,35.8796708 11.0607067,36.6113819 11.0836623,37.4808269 C11.0960966,37.9227231 11.3017409,38.3359247 11.6479886,38.6104359 C11.7761576,38.7127798 11.9196303,38.7921681 12.0697985,38.8466877 C11.2319175,40.5721869 10.5202926,42.3024686 9.94448851,44.012664 C8.7479256,47.5688758 8.00378015,51.3345578 7.72831243,55.2236264 C7.28067738,55.4426615 6.82825991,55.7898656 6.5518357,56.3589743 C6.18932783,57.1059892 6.25341234,57.9897814 6.74313273,58.9854825 C6.92390842,59.3527728 7.24241798,59.6215451 7.61544718,59.7449317 C7.79813585,67.2581225 9.73119233,74.8956564 13.3725313,82.4824966 C12.8923757,82.9741299 12.4313499,83.4590679 12.0506688,83.8904427 C11.6699877,84.320861 10.5107277,85.6331586 11.1085309,87.0344094 C11.1314866,87.088929 11.1563552,87.1415357 11.1821803,87.1912729 C5.79334298,90.9120002 0.640757499,94.8747181 0.582411905,94.9196729 C0.0362588866,95.3395699 -0.151212202,96.0789329 0.129037946,96.7102131 C0.371985173,97.2563661 0.911442795,97.5968748 1.49394225,97.5968748 C1.58193888,97.5968748 1.67184849,97.589223 1.76175809,97.5729627 C1.79523507,97.5662673 4.79477249,97.0220273 9.03391466,96.3324015 C8.23524956,101.409425 6.98512347,106.313324 5.72351956,110.904453 C5.02145947,111.200963 4.65321269,111.980498 4.87320427,112.713166 C5.06641427,113.354011 5.6565656,113.775821 6.30314956,113.775821 C6.40166753,113.775821 6.50114199,113.767213 6.60061644,113.74617 C6.75461055,113.715563 19.3926488,111.157921 29.1076684,109.624676 C28.811158,110.325779 28.6552509,111.033578 28.6954233,111.644772 C28.7968107,113.173235 29.9302456,114.161285 31.5849649,114.161285 C32.4572794,114.161285 33.4998482,113.903034 34.771017,113.374097 C35.7590661,112.961852 36.8485027,112.574476 38.020197,112.21675 C48.3186726,120.344005 60.233608,126.716109 73.4455374,131.160895 C85.9573196,135.36943 98.6297913,137.503348 111.110009,137.503348 C126.682544,137.503348 141.010692,134.126956 152.546859,127.738591 C164.496228,121.121627 172.851126,111.568253 176.707674,100.110518 C179.490089,91.8350083 179.811468,83.037258 177.666072,73.9449102 C177.821979,73.5871847 177.8325,73.1806785 177.691897,72.8124317 C177.579032,72.5168778 177.512078,72.3045381 177.457558,72.1275884 C177.310259,71.6560412 177.187829,71.3069241 176.847321,70.7818138 C173.288239,58.8152281 165.604794,47.1403704 154.617649,37.0083233 C143.326342,26.596026 129.006803,18.2832136 113.206625,12.9699386 C100.716842,8.76905582 88.0606304,6.6389634 75.5871076,6.6389634 Z M9.26634055,111.134009 C9.26155812,111.135922 9.25773218,111.137835 9.25294975,111.139748 C9.22808114,111.1474 9.20416901,111.156008 9.1793004,111.16653 C9.17643094,111.167486 9.172605,111.169399 9.16877906,111.170356 C9.19651713,111.159834 9.22521168,111.149313 9.25294975,111.139748 C9.25773218,111.137835 9.26155812,111.135922 9.26634055,111.134009 L9.26634055,111.134009 Z M12.1664035,110.062746 C16.7230987,108.411852 23.5122303,106.106723 31.003422,104.078975 C30.9871617,104.063671 30.9728144,104.048367 30.9575107,104.033063 C24.9680007,105.641871 18.7125878,107.635186 12.1664035,110.062746 L12.1664035,110.062746 Z M18.9861426,93.3223427 L21.4452659,93.0573963 C21.4309186,93.0382666 21.4184843,93.0191369 21.4050935,93.0000072 C20.5987766,93.1033076 19.7905466,93.210434 18.9861426,93.3223427 L18.9861426,93.3223427 Z M75.5871076,8.1329932 C87.474305,8.1329932 100.104691,10.1387425 112.730295,14.3864931 C145.019321,25.2445125 168.529726,47.7859979 175.4652,71.3748346 L175.447026,71.3786605 C176.00944,72.1773256 175.90327,72.3188854 176.296385,73.3461505 C176.198824,73.3614542 176.090741,73.3777145 175.992223,73.3930182 C178.231355,82.2185067 178.144314,91.1492085 175.291119,99.6341882 C167.563676,122.594614 141.831356,136.009318 111.110009,136.009318 C99.2113342,136.009318 86.5599052,133.994961 73.921867,129.745297 C60.302475,125.162777 48.2507621,118.499901 38.3406195,110.562987 C36.8618935,110.98671 35.4711641,111.46304 34.1961694,111.994846 C33.0579521,112.468306 32.2057238,112.666298 31.5849649,112.666298 C28.5156041,112.666298 31.1497642,107.813093 33.1612525,107.54719 C33.6375821,107.484062 34.092869,107.427629 34.5567643,107.367371 C34.5471994,107.358762 34.5366781,107.350154 34.5271133,107.341546 C24.9125246,108.508457 6.30410605,112.281791 6.30410605,112.281791 C6.30410605,112.281791 6.725916,112.11058 7.49110411,111.81407 C7.33997946,111.79781 7.20033263,111.740421 7.08077199,111.605556 C8.61593065,106.032117 10.0363111,100.365899 10.8043687,94.5351659 C5.45666021,95.3816552 1.49394225,96.102845 1.49394225,96.102845 C1.49394225,96.102845 7.99995421,91.0937323 14.0870257,87.0229316 C13.007154,86.9779768 11.5284279,86.737899 13.1707129,84.8794483 C13.6996492,84.2797322 14.3997963,83.5642813 15.1802882,82.7761375 C11.1773979,74.7579225 9.0377406,66.4345888 9.09704267,58.2403805 C8.75749045,58.2690751 8.41602525,58.2958567 8.08412491,58.3264642 C7.38589075,56.9060838 8.14820941,56.5416629 9.15921421,56.3264538 C9.35625015,52.3226069 10.0592667,48.357976 11.361043,44.4889936 C12.1453608,42.1570828 13.1362794,39.9361243 14.2792792,37.8050754 C13.6221739,37.6769064 13.0549782,37.5630847 12.6532544,37.4263073 L12.5776921,37.441611 C12.5489976,36.3454791 20.3462645,29.1517543 19.3371726,24.2258558 C19.0062288,23.9169111 24.7374878,22.8485172 24.4945406,22.5233122 C29.0206283,19.9752358 31.1870671,18.0354839 34.4687677,17.9178362 C37.4214373,16.257378 40.5740123,14.7968252 43.8997112,13.5447862 C43.9322317,12.7748156 45.1804448,12.1129279 45.9360681,11.7427681 C48.9241277,10.2171743 52.2153931,9.51607072 55.5611781,9.51607072 C56.4229712,9.51607072 57.2895468,9.56293849 58.1542093,9.65380458 C63.7085186,8.64949518 69.5516863,8.1329932 75.5871076,8.1329932 L75.5871076,8.1329932 Z" id="Fill-21"></path>
                <path d="M50.7213633,7.26833062 C50.5826729,7.26833062 50.4449391,7.22911473 50.3244219,7.15450889 C50.1455592,7.04260013 50.0221726,6.85895498 49.9858262,6.65139771 L49.1469887,1.89862301 C49.1096858,1.68532683 49.1661184,1.46724821 49.3009828,1.29986331 L49.5219309,1.02535208 C49.6634907,0.84935881 49.8777434,0.747014899 50.1034739,0.747014899 C50.1063433,0.747014899 50.1082563,0.747014899 50.1101693,0.747014899 C54.56739,0.78623079 59.1929522,1.44524906 63.6664332,2.08226816 C66.1360779,2.43329821 68.4689451,2.76519856 70.7779003,3.00145039 C71.1710157,3.04162276 71.4646566,3.38213148 71.4474399,3.77715984 C71.4302232,4.17314469 71.1078877,4.48687182 70.7119028,4.49165425 C64.1685879,4.58347682 56.5874867,5.63656697 50.9250946,7.24059256 C50.8581406,7.25972226 50.7902302,7.26833062 50.7213633,7.26833062" id="Fill-22"></path>
                <path d="M50.1034739,0 C49.6520129,0 49.2235075,0.204687821 48.9403879,0.556674355 L48.7194398,0.831185592 C48.4487546,1.16691188 48.3368458,1.60402559 48.4114516,2.02774851 L49.2502891,6.78147969 C49.3239385,7.19755072 49.5697551,7.56292805 49.9284371,7.78674557 C50.1685148,7.93787023 50.4439826,8.01534552 50.7213633,8.01534552 C50.8581406,8.01534552 50.994918,7.99717231 51.1288259,7.9589129 C56.7328724,6.37114756 64.2403243,5.32953523 70.7224241,5.23866914 C71.5134374,5.22814781 72.1590648,4.60069355 72.1944548,3.81063682 C72.2288883,3.01962361 71.6406499,2.33860618 70.8534626,2.25826143 C68.5588547,2.02392257 66.2336394,1.69297871 63.7716466,1.34194866 C59.2742534,0.702060097 54.6238227,0.039215891 50.1168646,0 C50.1120822,0 50.1082563,0 50.1034739,0 Z M50.1034739,1.4940298 C56.8964314,1.55428836 64.0853737,3.06840435 70.7013815,3.74463935 C63.7544299,3.84220083 56.0891579,5.00146083 50.7213633,6.52131573 L49.8825258,1.76854104 L50.1034739,1.4940298 L50.1034739,1.4940298 Z" id="Fill-23"></path>
            </g>
            <path d="M23.722657,16.0813848 C23.6499642,16.0813848 23.5763148,16.0708634 23.5045784,16.0488643 C23.2912822,15.9828668 23.1181584,15.8260032 23.0330313,15.6194024 C22.6523502,14.6983072 22.4677485,13.359228 22.2726256,11.9426735 C22.1645427,11.1564427 22.052634,10.3434304 21.9072482,9.63467488 C21.8775972,9.49024562 21.890988,9.34007745 21.9464641,9.20330008 L22.1396741,8.72983993 C22.2534959,8.44863329 22.5260941,8.26403166 22.8302564,8.26307518 C24.5681899,8.26116221 26.7336723,8.177948 29.0254107,8.08899488 C31.7140904,7.98569448 34.4936363,7.87856815 37.0484081,7.87856815 C39.149806,7.87856815 40.8064382,7.9522175 42.1139534,8.10334216 C42.4602011,8.14351453 42.7318428,8.41802577 42.7701022,8.76427339 C42.8083616,9.11052102 42.6027173,9.43668245 42.27273,9.55146067 C40.6237496,10.1243953 38.7155617,10.656201 36.6945086,11.2195708 C32.3128501,12.4400458 27.3467793,13.8240798 24.1358586,15.9560852 C24.012472,16.0383429 23.8680428,16.0813848 23.722657,16.0813848" id="Fill-25" fill="#FFFFFE"></path>
            <path d="M37.0493646,7.13155325 C34.4802455,7.13155325 31.6930478,7.23867959 28.9976726,7.34293647 C26.7126296,7.4309331 24.5538426,7.51414731 22.8292999,7.51701676 C22.2219318,7.51797325 21.6757788,7.88622003 21.4471789,8.44863329 L21.2549254,8.92209344 C21.1439731,9.19564819 21.116235,9.49598453 21.1755371,9.78484304 C21.3151839,10.4687299 21.4251797,11.269308 21.5323061,12.044061 C21.7341244,13.5093962 21.924465,14.8953432 22.342449,15.904435 C22.5127033,16.3176366 22.858951,16.6323202 23.2864998,16.7633587 C23.4299726,16.8064005 23.5763148,16.8283997 23.722657,16.8283997 C24.014385,16.8283997 24.302287,16.7432725 24.5500167,16.578757 C27.6614629,14.5117926 32.5663187,13.1449754 36.8934575,11.9398041 C38.9259884,11.3735649 40.8466106,10.8379332 42.5185466,10.2573467 C43.1766084,10.0287468 43.5888535,9.3754674 43.5132912,8.68201567 C43.4367724,7.98952042 42.8915759,7.44241092 42.2000371,7.36206617 C40.8638273,7.20615909 39.179457,7.13155325 37.0493646,7.13155325 Z M37.0493646,8.62558305 C38.9125976,8.62558305 40.6314015,8.68392864 42.0278698,8.84557463 C36.7442458,10.6829826 28.5050828,12.1578827 23.722657,15.3334134 C23.1726781,14.0029425 23.0397266,11.4395623 22.6389594,9.48450671 L22.8312129,9.01104656 C26.5959384,9.00435116 32.2975464,8.62558305 37.0493646,8.62558305 L37.0493646,8.62558305 Z" id="Fill-26" fill="#FFFFFE"></path>
            <path d="M42.0278698,8.84557463 C36.7442458,10.6829826 28.5050828,12.1578827 23.722657,15.3334134 C23.1726781,14.0029425 23.0397266,11.4395623 22.6389594,9.48450671 L22.8312129,9.01104656 C28.0727515,9.00148171 37.0694508,8.27072706 42.0278698,8.84557463" id="Fill-27" fill="#DC3B41"></path>
            <g id="Group-31" transform="translate(9.075485, 8.119731)" fill="#DC3B41">
                <path d="M189.428572,60.63816 C189.428572,60.63816 173.35197,63.9724672 168.571457,64.9796461 C168.354335,64.2001107 168.317989,64.0642898 168.01287,62.7089503 C173.394055,62.2354902 184.112428,60.9050194 189.428572,60.63816" id="Fill-28"></path>
                <path d="M166.389714,63.2551034 C159.454241,39.6662667 135.943836,17.1247812 103.65481,6.26676187 C58.3891507,-8.96048165 13.0010611,4.51448108 2.28555799,36.3692624 C-3.44283155,53.390872 1.88957314,72.2173692 15.0029845,88.3800552 L114.17519,74.6697971 L166.389714,63.2551034" id="Fill-30"></path>
            </g>
            <path d="M175.798056,72.5733105 C178.25718,81.6647018 178.232311,90.8871315 175.291119,99.6341882 C164.570834,131.487057 119.189439,144.970628 73.921867,129.745297 C54.3311382,123.154158 37.9723727,112.264575 26.5901995,99.4572385 L104.781904,89.890474 L156.822348,76.077872 L175.798056,72.5733105" id="Fill-32" fill="#121B2C"></path>
            <path d="M46.3291835,85.5346407 C48.0814643,84.2194736 49.5276698,82.8603082 50.7758829,81.6235729 C58.1742955,74.6345359 63.4282684,67.1758648 61.0915752,57.8128317 C60.1532633,54.477568 56.6707009,51.5373326 53.4377811,50.7654491 C50.3684202,50.5722391 47.8117354,50.0681715 44.5290784,50.5980642 C43.8585823,49.9763489 50.8141423,47.1183713 54.9710268,43.4292081 C56.3780164,41.4196328 57.8978713,39.314409 57.1030322,36.8093744 C55.8146467,31.6692232 49.7907032,29.1517543 45.2330515,28.1350106 C45.3755678,28.0680566 50.6572788,24.6811427 51.1996058,22.022114 C51.6032426,19.5247313 50.6630177,16.7853578 48.5013612,15.3860201 C47.0809808,14.7566528 45.458782,13.8623392 43.8930158,13.6949543 C43.749543,12.8608993 45.1316641,12.1377965 45.9360681,11.7427681 C54.4162654,7.41467285 65.3383693,9.69684641 72.9988588,15.8948702 L74.529235,17.9101844 C75.3824198,19.2138736 75.5947595,21.0340648 75.3250307,22.6141783 C74.7702693,23.827958 74.0022117,24.9633058 72.9414697,25.7351893 C76.9768805,27.3631271 81.3059323,28.9595008 84.9185767,32.1331185 C86.9377168,34.0422628 88.1859299,37.0456262 87.4159594,39.8777787 C87.0936239,41.4167633 86.3179145,42.853404 85.3700377,44.2087434 C86.9530206,44.9232379 88.8449482,45.3039189 90.6077503,45.8491155 C99.5824505,48.8017851 108.748448,56.7721758 113.175061,64.7942168 C115.743223,69.735419 114.790564,75.7373633 111.424693,79.8712921 C110.494989,80.8803839 109.538504,82.1372054 108.587758,82.9483048 L114.253976,82.2911995 L140.676878,77.6761587 C151.71376,75.1462555 163.86973,72.4747925 175.218426,71.0639769 C176.047699,72.1629783 175.855445,72.1945423 176.296385,73.3461505 C172.717218,73.8970859 167.672715,74.6154062 163.642087,75.6044119 C129.81312,83.9296586 121.335792,96.0043271 110.0024,111.289916 C111.002883,105.474487 102.658507,101.014396 93.6331129,99.7298367 C71.0093697,96.522742 44.2163078,97.6437426 9.1793004,111.16653 C8.48776164,111.431476 7.60205639,112.195708 7.08077199,111.605556 C8.62836495,105.988119 10.0621362,100.276946 10.8263678,94.397432 L11.1496598,94.1630932 L92.109432,85.4638608 C97.9564257,84.6317187 103.51743,83.5853239 107.670489,79.3595726 C108.814445,78.0329277 109.272601,76.3791649 108.912007,74.5264531 C107.0306,70.3992197 102.029139,69.4322132 97.872255,69.3136091 C80.9663801,69.8798483 46.3330094,85.5480315 46.3330094,85.5480315" id="Fill-33" fill="#FFFFFE"></path>
            <path d="M12.5776921,37.441611 C12.5489976,36.3454791 20.3462645,29.1517543 19.3371726,24.2258558 C19.0062288,23.9169111 24.7374878,22.8485172 24.4945406,22.5233122 C31.2482822,18.7231967 32.7327471,16.2516391 40.5357529,19.2138736 L42.1694296,20.8217251 C43.848061,24.5204532 41.0522549,27.8949328 38.8886855,30.296667 C38.597914,30.619959 38.5194823,30.5855255 38.3367936,30.7060426 C41.5151937,32.2861561 44.2813488,35.1039613 44.5156876,38.8705998 C45.2531377,44.3761283 41.6931,49.3795021 37.604126,52.8505867 C41.8222255,53.5105615 49.5544514,56.1504605 50.8342285,60.2929977 C53.2598748,65.5058417 54.1522755,73.2696316 49.4894104,78.2423979 C41.785879,76.1802159 23.5504897,78.4021309 14.9449929,87.0659734 C14.5298783,86.9349349 10.9220163,87.4256118 13.1707129,84.8794483 C16.4973682,81.1099404 26.1406515,73.1538969 25.0913873,66.7865753 C24.7920074,63.7736471 23.3496278,61.2447004 20.5930376,59.8683183 C16.8962226,57.6511857 12.1884027,57.9496091 8.08412491,58.3264642 C6.78330511,55.6808263 10.5442047,56.6927876 11.5552095,55.5230062 C13.1994075,54.7865127 20.2630503,49.8108769 21.3209228,45.6300804 C21.3677906,44.3254346 21.7408198,42.2890778 20.5853858,40.3550648 C18.3309503,38.1283674 14.2314549,37.9648084 12.6532544,37.4263073" id="Fill-34" fill="#FFFFFE"></path>
            <path d="M125.239208,52.5942487 C148.757265,63.1041075 146.868207,62.5656064 169.794199,70.4020892 C170.353743,70.9233736 139.175197,64.7387406 126.14213,75.4532872 C123.450581,57.7889196 114.37545,51.739151 100.416506,37.4712621 C101.426554,37.6281256 124.239681,52.1666999 125.239208,52.5942487" id="Fill-35" fill="#FFFFFE"></path>
            <path d="M21.954116,82.4002388 C15.9990395,84.9330115 1.49394225,96.102845 1.49394225,96.102845 C1.49394225,96.102845 19.8230671,92.7666249 30.871427,92.017697 C34.2315593,91.7919665 21.954116,82.4002388 21.954116,82.4002388" id="Fill-36" fill="#DC3B41"></path>
            <path d="M81.9056485,41.017909 C82.00321,41.853877 82.6564893,42.727148 82.2040718,43.5803327 C76.331253,42.4631581 62.1953591,45.0686236 55.9112517,46.2020585 C58.9978292,43.0791345 70.9405028,38.9978124 75.3776374,38.5320041 C77.8185874,38.4478334 80.5063107,38.8361664 81.9056485,41.017909" id="Fill-37" fill="#DC3B41"></path>
            <path d="M69.3336077,23.5104049 L69.3441291,24.855223 C65.0552497,24.4544557 56.6200072,25.4501568 52.0183571,26.1856938 C52.4210374,25.3392045 56.9796456,23.3831924 57.948565,22.6715674 C61.0169694,21.1708422 67.2169061,19.8623705 69.3336077,23.5104049" id="Fill-38" fill="#DC3B41"></path>
            <path d="M35.9465372,50.132256 C36.0986183,50.9605721 36.8092868,51.7869753 36.4171279,52.6669416 C30.485007,51.9495777 19.1793526,55.1643243 13.6346082,55.9830756 C17.3562919,52.7300696 24.8685262,48.8496094 29.2654885,48.0892037 C31.6892218,47.8424305 34.4018137,48.0480748 35.9465372,50.132256" id="Fill-39" fill="#DC3B41"></path>
            <path d="M37.3822214,29.3860931 L37.6385594,30.7060426 C33.6174959,30.4783992 26.6418497,30.7299548 16.0439943,35.4023847 C17.2462961,34.1685189 20.3730461,32.00208 23.562924,30.3483172 C27.0674856,28.297613 34.6256312,26.1952587 37.3822214,29.3860931" id="Fill-40" fill="#DC3B41"></path>
            <path d="M37.5132599,102.439559 C21.341009,106.177503 6.30410605,112.281791 6.30410605,112.281791 C6.30410605,112.281791 30.7604747,107.320503 38.085238,107.016341 C45.4109577,106.711222 39.8843866,101.890537 37.5132599,102.439559" id="Fill-41" fill="#121B2C"></path>
            <path d="M33.1612525,107.548146 C40.4898417,106.57827 46.3043149,106.00151 54.571216,105.663871 C64.8716045,105.239191 74.3503723,106.095245 83.2016858,111.434345 C74.2021171,106.853738 47.7256518,106.358279 34.1961694,111.994846 C27.4261675,114.814564 30.743258,107.866656 33.1612525,107.548146" id="Fill-42" fill="#FFFFFE"></path>
            <path d="M79.6225184,17.0761293 L117.418029,44.2135259 C117.418029,44.2135259 77.7296343,12.2755304 79.6225184,17.0761293" id="Fill-43" fill="#FFFFFE"></path>
            <path d="M121.198058,37.187186 C136.226353,46.1475388 140.946607,50.4239839 155.901252,57.5813623 C156.233153,57.9811731 135.490816,51.2666473 125.75571,57.5201472 C129.844684,51.1499562 122.101937,41.7993574 119.141615,36.2029628 C119.819763,36.3856514 120.557213,36.8198957 121.198058,37.187186" id="Fill-44" fill="#FFFFFE"></path>
            <path d="M70.7013815,3.74463935 C63.7544299,3.84220083 56.0891579,5.00146083 50.7213633,6.52131573 L49.8825258,1.76854104 L50.1034739,1.4940298 C56.8964314,1.55428836 64.0853737,3.06840435 70.7013815,3.74463935" id="Fill-45" fill="#DC3B41"></path>
            <path d="M9.30077401,82.5771886 L9.30077401,83.3194211 L9.67762916,83.3194211 C10.0745705,83.3194211 10.2572592,83.2295115 10.2572592,82.9588262 C10.2572592,82.6814455 10.0688316,82.5771886 9.66710782,82.5771886 L9.30077401,82.5771886 Z M10.6274189,82.9320446 C10.6274189,83.2295115 10.4399478,83.4495031 10.1262207,83.5011532 L10.6073327,84.482507 L10.2046525,84.482507 L9.75606094,83.5528034 L9.30077401,83.5528034 L9.30077401,84.482507 L8.9411356,84.482507 L8.9411356,82.3428497 L9.73501827,82.3428497 C10.329952,82.3428497 10.6274189,82.5303208 10.6274189,82.9320446 Z M10.8627143,82.2797217 C10.5442047,81.9612122 10.136742,81.7938273 9.68336807,81.7938273 C9.23955896,81.7938273 8.83687872,81.9554733 8.53462941,82.264418 C8.21133743,82.5877099 8.03725713,83.0047375 8.03725713,83.4437641 C8.03725713,83.8770519 8.21133743,84.2845146 8.52315159,84.6030241 C8.83687872,84.9205772 9.24912381,85.0889186 9.67762916,85.0889186 C10.1214383,85.0889186 10.5336834,84.9205772 10.8569753,84.6030241 C11.1649636,84.2998183 11.3380874,83.8980946 11.3380874,83.4542855 C11.3380874,83.0047375 11.1707025,82.5877099 10.8627143,82.2797217 Z M11.0195778,82.1228582 C11.3686949,82.4729317 11.5571225,82.9425659 11.5571225,83.4437641 C11.5571225,83.9554837 11.3686949,84.4145966 11.0138389,84.7598877 C10.6436792,85.1195261 10.1730885,85.3175185 9.68336807,85.3175185 C9.18695228,85.3175185 8.7221005,85.1195261 8.3615056,84.7598877 C8.00664961,84.4040752 7.81343961,83.9401799 7.81343961,83.4437641 C7.81343961,82.9473483 8.01238852,82.4729317 8.37872233,82.1065979 C8.7221005,81.7574808 9.17643094,81.5690533 9.68336807,81.5690533 C10.1950876,81.5690533 10.6589829,81.7632197 11.0195778,82.1228582 L11.0195778,82.1228582 Z" id="Fill-46" fill="#FFFFFE"></path>
        </g>
    </g>
</svg>