<?xml version="1.0" encoding="UTF-8"?>
<svg width="200px" height="200px" viewBox="0 0 200 200" version="1.1" xmlns="http://www.w3.org/2000/svg" xmlns:xlink="http://www.w3.org/1999/xlink">
    <!-- Generator: Sketch 54.1 (76490) - https://sketchapp.com -->
    <title>southern-wesleyan</title>
    <desc>Created with Sketch.</desc>
    <g id="southern-wesleyan" stroke="none" stroke-width="1" fill="none" fill-rule="evenodd">
        <g id="southern-wesleyan_BGL" transform="translate(0.000000, 0.000000)">
            <g id="southern-wesleyan" transform="translate(0.000000, -1.000000)">
                <g id="g10" transform="translate(99.955134, 101.437418) scale(-1, 1) rotate(-180.000000) translate(-99.955134, -101.437418) translate(0.000000, 0.226115)" fill-rule="nonzero">
                    <g id="g12">
                        <path d="M160.930279,38.6960959 L157.849435,22.0202417 C157.849435,22.0202417 135.947238,24.0190214 119.431491,26.8274556 L113.152442,25.7051945 C101.497351,22.9842255 94.0098675,5.83935382 94.0098675,5.83935382 L61.0347226,26.3383394 C52.8646016,45.9965892 12.9361684,57.5662615 12.9361684,57.5662615 C14.6253922,57.871331 26.7098423,61.2866741 37.7037227,65.5267817 C39.1720044,66.5999086 40.7432919,67.9149377 41.6247634,69.1642872 C41.6247634,69.1642872 31.4211926,66.3651845 21.2180524,70.8087914 C21.2180524,70.8087914 40.1435611,73.9362925 41.7898599,84.3039907 C41.7898599,84.3039907 28.665338,82.5751437 22.8639564,88.1302804 C22.8639564,88.1302804 42.1186172,95.1655427 42.4470155,103.558544 C42.4470155,103.558544 33.6025115,100.473753 28.5412285,102.078059 C28.5412285,102.078059 41.4607437,107.673752 44.9162842,116.066753 L31.9413182,110.389589 L31.9169126,110.455986 C33.2855263,111.689903 42.6716903,120.224672 45.1427535,124.380437 L45.0483614,124.442886 C36.1525339,119.283263 29.3754322,114.7205 28.6578728,114.239208 L28.6015246,114.263972 C32.386289,133.518166 50.5119772,149.227453 50.5119772,149.227453 C41.1316275,146.019198 35.2209592,137.125883 35.2209592,137.125883 L35.1730094,137.145622 C35.9633908,155.876892 64.5828607,167.741943 64.5828607,167.741943 L64.5652743,167.85751 C54.2779708,171.517986 35.4426191,164.620543 33.4111432,163.860382 L33.3475093,163.976667 C48.3434712,187.614531 74.5805275,179.714666 74.5805275,179.714666 C73.0986074,186.133329 64.4586794,187.490709 64.4586794,187.490709 L64.4751891,187.619915 C86.2420795,191.216864 86.4768036,179.610224 86.4768036,179.610224 L86.5995492,179.607712 C87.8370548,187.507936 76.8491681,197.859484 76.8491681,197.859484 L76.9223848,198.005917 C103.383039,197.545441 112.349571,182.67707 112.349571,182.67707 C116.532613,186.860112 112.839477,196.184114 112.39264,197.262624 L112.440015,197.31969 C126.901388,190.03463 123.581513,178.48039 123.581513,178.48039 C129.795241,179.76563 129.491607,186.67384 129.264061,188.70345 L129.339431,188.724984 C135.615609,173.149569 122.786538,166.729471 120.382949,165.678237 L120.43176,165.566259 C123.886942,166.117896 134.617493,171.253473 136.119512,171.978102 L136.219647,171.881557 C131.652217,160.772001 124.813276,160.036245 124.813276,160.036245 L124.832298,159.94293 C133.780167,159.220454 136.563478,154.828888 136.970477,154.044321 L136.911616,153.917986 C135.341046,154.212289 130.902823,153.648089 126.125075,152.861369 C143.491428,150.505514 150.907847,140.28425 152.747955,137.256165 L154.765362,146.894209 C154.798022,146.86119 179.440821,121.433106 179.731534,93.4363368 C185.253652,94.8906212 190.883441,96.6621779 195.22799,98.3318055 C195.298694,93.0849685 194.229156,64.9238207 160.930279,38.6960959 Z M199.047101,104.154686 L199.032386,104.256974 L184.550915,100.637054 C183.459843,121.654551 170.955222,143.450871 153.252576,156.883262 L153.153518,156.945353 L150.314936,149.086403 C149.572719,149.545084 144.847013,152.429606 141.678597,153.462177 C141.521396,154.053294 139.924626,159.40852 133.526421,161.209148 C134.590575,162.148403 141.475097,168.616236 138.850423,176.376846 L138.70722,176.423863 C138.678148,176.403046 135.856793,174.417223 132.220365,172.851678 L132.138534,172.975859 C132.712424,173.910808 134.305963,176.531534 134.735932,179.930009 C135.231221,183.852844 134.436605,189.619376 127.8349,194.81166 L127.682366,194.732341 C127.686314,194.656971 128.003227,187.272494 126.164555,185.297797 L126.123999,185.306411 C126.035708,186.074468 125.581334,189.055895 123.551724,192.318703 C121.387166,195.797214 116.942482,200.31978 108.046655,202.112153 L107.940778,201.983306 C107.97954,201.890349 111.744098,192.777384 111.295107,189.134136 C110.655897,189.754325 107.758454,192.466572 103.257422,195.146518 C98.5471487,197.94921 91.0686384,201.288824 82.1763999,201.288824 C78.0346324,201.288824 73.8892759,200.567783 69.8566156,199.145441 L69.839747,198.976397 C69.8824568,198.950197 74.1677864,196.30004 78.0113036,191.353607 L77.8943004,191.269623 C71.8445922,192.919511 64.9546866,190.902822 56.3922821,186.551812 L56.4238658,186.373795 C56.4859564,186.366617 62.3702093,185.727048 64.8247628,183.918524 L64.8060998,183.850691 C62.9911155,183.850691 56.4956469,183.607712 49.1222958,180.484877 C39.5743373,176.440731 32.5779445,169.372091 28.3305152,159.473841 L28.4488463,159.347865 C28.6268992,159.412827 46.1900392,165.744276 54.2575132,165.921575 L54.2822777,165.807084 C41.7123363,160.870341 32.3550284,150.020633 31.0399992,134.292684 C30.6031397,133.72346 22.7363655,123.171643 25.2491335,110.252128 L25.319802,110.198651 L31.6764819,113.729203 L31.7029691,113.693313 L26.9009235,107.043874 L26.9198737,106.979988 L32.3009054,108.03194 L32.3188507,107.975233 C28.2629692,104.690531 23.1388778,103.276444 23.1388778,103.276444 C23.1388778,103.1074 23.254553,99.1576467 33.400053,98.3824112 L33.4345438,98.3056054 C26.6136557,92.779899 17.2002508,89.5149372 17.2002508,89.5149372 L17.2156837,89.4349013 C17.2291427,89.3606079 17.588048,87.5883334 19.9319869,85.6301459 C22.0599366,83.8542823 26.2975319,81.5949733 34.4379354,80.8653188 C32.8029781,79.7785534 22.3353965,73.0971718 11.9979539,72.7608775 L11.9184564,72.6183921 C11.951691,72.5613261 15.2789947,66.8245833 24.5081735,65.7091056 C22.1868097,64.9737086 10.7354686,61.3548661 0,58.0672933 L0,57.8881995 C22.2891336,50.186809 46.9943461,37.8558986 56.3524436,21.8085593 L56.366082,21.7855535 L95.3155651,0 L95.3582749,0.0911282167 C95.4533848,0.290769306 104.970836,20.1195868 113.378553,21.4298783 L161.40188,16.6872674 L166.118614,37.2619102 C182.302014,47.3503802 204.301116,71.8991458 199.047101,104.154686 L199.047101,104.154686 Z" id="path14" fill="#100F0D"></path>
                        <polygon id="path16" fill="#94A0AB" points="154.769618 146.904312 154.764285 146.909645 154.766952 146.890979"></polygon>
                        <path d="M111.13037,149.743199 C107.042797,149.399009 100.35639,148.270252 96.7357535,147.130728 C93.1488537,141.279853 88.6334657,132.537996 85.872407,126.249974 C79.9493923,125.417673 71.985642,123.806188 69.0078045,122.638669 C67.5750544,118.614981 66.5765798,115.749481 65.6477328,111.272855 C70.5708372,112.6812 77.1707473,114.241002 82.5981137,114.751007 C75.0140852,89.3362023 74.5076697,63.3575579 79.2258392,19.6199188 L80.2677414,18.8386177 C81.6480913,54.2930449 87.745175,90.129742 97.2920568,114.907489 C104.82871,114.967785 114.03176,113.957467 120.023326,113.130908 C120.023326,113.130908 124.153608,118.114308 129.058768,122.403586 C116.074291,125.529651 100.906592,126.228081 100.906592,126.228081 C100.906592,126.228081 104.177297,136.634182 111.13037,149.743199" id="path18" fill="#2A3C98"></path>
                        <path d="M118.358364,165.893939 L118.418301,165.823235 C129.360607,169.361683 129.715564,181.320408 129.715564,181.320408 L129.623685,181.320408 C128.264151,173.828618 121.605381,171.527676 121.605381,171.527676 C121.605381,169.368143 118.972451,166.542122 118.358364,165.893939" id="path20" fill="#2A3C98"></path>
                        <path d="M90.747777,165.27411 L90.804484,165.311077 C90.7736182,166.285864 90.0041252,175.337456 74.2912498,178.60493 C52.2311337,183.047102 39.4404656,169.164285 37.7776572,167.224042 L37.8383122,167.126061 C76.0832641,186.413275 90.747777,165.27411 90.747777,165.27411" id="path22" fill="#2A3C98"></path>
                        <path d="M88.4030485,163.545981 C60.8778809,176.259843 41.2536553,147.376578 41.2536553,147.376578 C58.0576029,162.500848 86.8285308,163.420364 88.3962293,163.46415 L88.4030485,163.545981" id="path24" fill="#2A3C98"></path>
                        <path d="M49.5278588,127.221531 L49.4194694,127.230504 C47.8496175,122.80233 38.7642879,115.124986 37.641991,114.202958 L37.7012104,114.106054 C50.8834442,118.157736 49.5278588,127.221531 49.5278588,127.221531" id="path26" fill="#2A3C98"></path>
                        <path d="M85.9933581,176.693401 L86.0576022,176.712782 C84.9873465,189.79524 69.3537892,187.08048 69.3537892,187.08048 L69.3537892,186.927586 C79.3259738,185.552261 85.4004465,177.499143 85.9933581,176.693401" id="path28" fill="#2A3C98"></path>
                        <path d="M77.9933583,155.482096 L77.9592623,155.541674 C47.9458041,156.676892 33.8683168,123.460921 33.1034177,121.591024 L33.171538,121.555852 C41.2357101,137.930189 77.9933583,155.482096 77.9933583,155.482096" id="path30" fill="#2A3C98"></path>
                        <path d="M80.462627,152.191293 L80.4235063,152.211033 C79.1630308,151.285416 50.3580068,130.122563 39.8959165,125.777655 L39.9163741,125.692236 C43.0000887,126.519871 77.3200519,136.164375 80.462627,152.191293" id="path32" fill="#2A3C98"></path>
                        <path d="M63.4286211,125.496991 L63.3471496,125.529651 C55.1181682,110.060832 62.029967,92.7809757 62.029967,92.7809757 C54.1308196,102.324268 53.3491238,109.053384 53.3491238,109.053384 L53.2471947,109.037593 C52.8617304,91.331716 67.9551351,83.9766691 67.9551351,83.9766691 C59.4311336,95.2915185 63.0209047,122.556121 63.4286211,125.496991" id="path34" fill="#2A3C98"></path>
                        <path d="M58.985732,89.0781494 C58.985732,89.0781494 53.890712,82.5503793 64.494211,69.4944801 L64.581425,69.5748749 C64.581425,69.5748749 58.8217123,83.6468351 58.985732,89.0781494" id="path36" fill="#2A3C98"></path>
                        <path d="M34.6353334,103.755224 L34.6678861,103.716821 C35.9325249,103.641092 46.771107,103.41893 48.4195591,117.880661 L48.3316273,117.933779 C48.3316273,117.933779 44.6890971,107.160159 34.6353334,103.755224" id="path38" fill="#2A3C98"></path>
                        <path d="M49.3663514,108.693761 L49.3107211,108.711348 C42.0716006,91.29762 28.0087925,88.1152064 26.7398468,87.8611014 L26.7503627,87.8040355 C49.9944357,86.2176739 49.4607435,106.842169 49.3663514,108.693761" id="path40" fill="#2A3C98"></path>
                        <path d="M51.3697609,100.824403 L51.2412728,100.810047 C51.1501109,98.011662 49.6348126,72.2598457 24.6143018,70.8199175 L24.6144453,70.7553145 C26.4160065,70.5633002 41.2866746,69.1976654 46.2305955,74.7592624 C46.2305955,74.7592624 44.6679217,68.835171 42.1993709,67.1895901 L42.2514121,67.1099131 C44.2544628,67.5919229 56.5857321,71.8722279 51.3697609,100.824403" id="path42" fill="#2A3C98"></path>
                        <path d="M52.5591732,110.808073 L52.6363378,110.795152 C55.7771184,124.521845 68.118796,130.796228 68.118796,130.796228 L72.8908012,135.73333 L72.8179434,135.798292 C53.0289803,130.225928 52.5243594,113.088916 52.5591732,110.808073" id="path44" fill="#2A3C98"></path>
                        <path d="M55.7652745,89.5720031 C55.7681458,88.2149821 55.7649156,82.9308189 54.2122912,80.6018822 C54.2122912,80.6018822 54.6781503,69.9298323 51.8463872,64.5911155 L51.9468807,64.5419454 C51.9468807,64.5419454 59.5610573,70.8095092 55.8578721,89.5720031 L55.7652745,89.5720031" id="path46" fill="#2A3C98"></path>
                        <path d="M120.405201,159.641091 L120.386897,159.74625 C129.142392,161.094298 132.343828,167.661189 132.81543,168.744007 L132.742931,168.782051 C128.387615,163.266035 110.993627,159.722203 106.913591,158.935124 C106.663793,158.888107 106.417225,158.845756 106.165632,158.796586 L106.12364,158.688197 C106.12364,158.688197 107.954775,158.039655 109.12696,156.34634 C109.12696,156.34634 122.15953,159.492863 135.563209,154.66774 L135.61525,154.84791 C133.882814,155.958363 128.659306,158.863343 120.405201,159.641091" id="path48" fill="#2A3C98"></path>
                        <path d="M110.167785,166.920409 L110.283712,166.920409 C120.848449,190.524176 83.8851482,196.15899 79.8855072,196.684428 L79.8410029,196.551991 C107.659037,188.409506 110.167785,166.920409 110.167785,166.920409" id="path50" fill="#2A3C98"></path>
                        <path d="M87.8259287,191.37873 L87.7433805,191.255267 C89.5375482,189.306052 104.716372,172.875725 106.671689,161.892145 L106.768952,161.909013 C107.154416,163.897349 108.762312,177.116191 87.8259287,191.37873" id="path52" fill="#2A3C98"></path>
                        <path d="M117.410136,167.948313 L117.491249,167.908116 C127.695286,184.693759 116.834093,193.087478 116.834093,193.087478 L116.778104,193.023234 C122.260383,185.840103 118.039297,170.102822 117.410136,167.948313" id="path54" fill="#2A3C98"></path>
                        <path d="M95.1895894,146.750647 C81.2956462,143.103451 72.307939,130.77254 69.3222055,123.893402 C70.0985178,124.144636 71.3719139,124.544815 72.9198726,124.984474 C74.832838,131.423954 80.1087463,139.249167 93.7101816,144.214981 C93.8684588,144.498875 95.0076244,146.205829 95.1895894,146.750647" id="path56" fill="#94A1AC"></path>
                        <path d="M193.915832,95.5991003 C193.91332,95.5395221 193.912243,95.4533848 193.898245,95.3493022 C191.043871,73.4305948 176.75262,53.8246734 158.508744,41.1269617 C153.545443,42.4172264 139.34643,54.5001332 139.34643,54.5001332 C141.302823,54.254642 143.291876,54.5543279 145.310719,55.3679663 C144.211392,56.1510977 143.311257,56.8150726 141.995869,57.8117527 C144.178731,59.6482713 154.742392,69.2899041 159.01516,80.735395 C161.990485,80.6230577 164.285685,80.5835781 166.987883,80.6890962 C167.287569,81.2371447 167.586896,81.7923712 167.886941,82.3558526 C154.853652,82.1107202 146.145174,83.4472837 128.407713,88.620904 L128.407713,88.7285756 C131.458767,88.366799 147.071867,86.9437394 166.958811,88.2185711 C184.61803,89.3505586 193.92301,95.7132322 193.92301,95.7132322 C193.92301,95.7132322 193.921574,95.672317 193.915832,95.5991003 L193.915832,95.5991003 Z M155.73979,24.7483529 C155.73979,24.7483529 122.625031,45.0476436 113.725255,70.071241 L113.816417,70.188603 C113.816417,70.188603 133.441719,44.1952434 154.917538,30.9742478 L157.745712,37.1395235 L157.930189,37.0878412 C157.930189,37.0878412 156.288197,29.7127314 155.73979,24.7483529 L155.73979,24.7483529 Z M145.64486,27.9888732 L138.116102,29.1136825 C138.116102,29.1136825 109.098607,48.4016139 104.814712,72.1270507 L110.162402,69.3498412 C110.162402,69.3498412 120.142482,47.0252119 145.673931,28.0937454 L145.64486,27.9888732 Z M128.696632,31.2176215 C126.049705,31.5116008 112.790307,33.2619821 106.08775,39.4189313 C103.482815,46.539613 102.55648,54.4983387 102.701119,58.2628967 L106.955942,58.8708823 C106.955942,58.8708823 113.157467,41.0429779 128.734676,31.4304164 L128.696632,31.2176215 Z M110.950558,99.6845197 C118.34975,99.6845197 119.892684,94.5536091 119.414622,89.8139053 C119.09412,86.634363 116.508566,82.2302357 114.453115,81.3039011 C114.453115,81.3039011 113.092505,82.1143093 112.544815,83.271779 C112.977296,84.7770279 113.681828,86.5098229 114.445578,88.3319852 C117.947059,96.6804821 105.839387,98.4671128 104.814712,90.8558075 C104.090442,85.4722276 106.637952,83.3880643 109.870971,81.8379522 C109.285955,80.6524879 108.28748,79.8998634 107.358992,79.5951528 C98.3590823,82.6350809 97.6800334,99.6845197 110.950558,99.6845197 Z M120.392281,76.9787329 C119.550648,77.8781497 118.125076,79.4763551 118.125076,79.4763551 C122.001253,83.7545067 123.745174,88.541227 123.745174,88.541227 C125.197664,87.7670682 126.617493,87.131088 128.34634,86.4441432 C125.683981,81.3329724 122.459216,78.4857764 120.392281,76.9787329 L120.392281,76.9787329 Z M128.563478,68.944996 C127.035977,70.34042 125.782321,71.5212185 124.398741,72.8846998 C129.873842,77.2687284 132.922024,82.798024 133.720589,84.587167 C135.951903,83.9052469 137.94957,83.408163 140.454371,82.8791366 C135.593357,74.9107204 129.119423,69.4097784 128.563478,68.944996 Z M146.440194,43.9145794 L148.710629,38.218034 L148.63813,38.1164638 C148.63813,38.1164638 122.389948,58.7133229 113.140598,73.9764899 L118.074829,73.0523086 C118.074829,73.0523086 133.721666,51.0822778 146.440194,43.9145794 L146.440194,43.9145794 Z M136.891517,61.7934484 C135.250961,63.1152968 134.351186,63.8643322 132.814712,65.187975 C140.111257,71.5768488 143.887659,79.9239101 144.77595,82.0683694 C147.980974,81.527858 150.58232,81.2156104 154.071598,80.9575574 C148.250512,71.40924 138.819557,62.9336907 137.186179,61.556212 C137.175412,61.5648257 136.902285,61.7848347 136.891517,61.7934484 L136.891517,61.7934484 Z M167.365451,90.9139502 C157.283442,89.6075348 147.417852,90.1534298 147.417852,90.1534298 C145.817852,92.715296 144.839476,99.2717786 144.839476,99.2717786 L141.341226,100.362492 L144.470162,102.717988 C156.59865,99.0187503 164.172988,97.1298316 164.172988,97.1298316 L167.365451,90.9139502 Z M159.389857,130.399279 L158.001252,136.873213 C158.001252,136.873213 175.760606,115.865408 176.340956,92.6506931 C176.340956,92.6506931 174.598111,91.9856415 171.172719,91.608432 C171.172719,91.608432 168.40843,96.2257491 166.671687,99.8295175 C166.671687,99.8295175 155.498246,102.842528 144.589678,104.752981 C144.589678,104.752981 135.612738,100.986987 125.105425,95.7132322 C122.937996,97.082815 121.927319,98.9501994 121.927319,98.9501994 C121.927319,98.9501994 129.306771,124.92023 159.389857,130.399279 Z M195.228349,98.3318055 C190.8838,96.6621779 185.254011,94.8906212 179.731534,93.4363368 C179.44118,121.433106 154.798022,146.86119 154.765721,146.894209 L156.384384,131.787525 C127.940419,126.238131 116.596498,100.523281 116.596498,100.523281 C109.012828,103.533779 101.682187,100.53046 99.4185709,93.7733489 C97.7593515,88.8211732 99.095915,82.3386251 104.85168,76.5634795 L104.591114,76.2594867 C96.2185709,80.7346772 92.7583647,89.6929542 96.5117966,97.2511416 C102.246386,108.799997 114.06801,104.651769 114.06801,104.651769 C115.604125,107.302285 117.198741,109.710899 118.823146,111.907041 C112.645309,112.796408 105.003856,113.360607 98.1598899,113.513501 C89.4761754,88.4981584 83.4454892,62.4322999 81.2924161,18.1656703 L92.1765791,11.5380885 C93.8713301,22.1782318 105.142393,26.3245933 105.142393,26.3245933 C100.607624,27.5869352 96.6345422,29.1714304 92.889724,32.2106407 C91.4426177,37.5368317 90.9376379,42.2851492 91.5004015,48.1891419 C92.5322543,59.0130088 96.9711954,59.8252116 96.9711954,59.8252116 C96.5078486,45.6416319 97.5705673,38.5880654 99.4605628,34.1215245 C107.185641,29.0196135 119.43185,26.8274556 119.43185,26.8274556 C135.947238,24.0190214 157.849794,22.0202417 157.849794,22.0202417 L160.930638,38.6960959 C194.229515,64.9238207 195.299053,93.0849685 195.228349,98.3318055 L195.228349,98.3318055 Z" id="path58" fill="#94A1AC"></path>
                        <path d="M76.8401955,95.4322094 C74.9997289,98.9031828 71.9235514,104.5039 71.7498412,111.538086 C69.6437847,111.086942 67.1870777,110.503003 65.5630311,110.076982 C64.1697606,101.334408 67.121757,88.1568394 71.492865,82.5758616 C71.492865,82.5758616 66.5952428,80.8251214 62.151277,83.5402402 L62.0995947,83.4971715 C63.7326139,77.8228783 65.8598458,71.2017927 69.1100925,62.6465664 L69.0243141,62.5816045 C65.9542379,64.5875264 62.1911155,67.5836681 58.4753687,74.4319407 L58.379182,74.426916 C58.3285764,71.8237757 56.9058757,65.1872572 47.4612819,59.7502004 L47.3837583,59.7842964 C47.3837583,59.7842964 50.5342293,63.08802 50.8174056,68.8326587 C39.8173162,62.8626274 24.3424669,58.2506939 24.3424669,58.2506939 C62.9609675,46.4585004 65.9671585,27.4983214 65.9671585,27.4983214 L78.275099,20.0036603 C72.0183024,67.8148031 76.7235512,94.7894099 76.8401955,95.4322094" id="path60" fill="#94A1AC"></path>
                        <path d="M144.589678,135.94975 C144.589678,135.94975 131.842078,130.911796 125.638759,124.498157 C127.038131,124.200625 128.410226,123.876175 129.718436,123.519782 C139.510091,131.632478 148.091517,133.474739 149.193357,133.684339 C142.212289,148.586807 124.82189,150.472136 112.425659,149.705514 C112.158633,149.218839 111.863254,148.663612 111.551007,148.064599 C119.676623,148.352441 135.037771,147.09376 144.589678,135.94975" id="path62" fill="#94A1AC"></path>
                        <path d="M110.162402,69.3498412 L104.814712,72.1270507 C109.098607,48.4016139 138.116102,29.1136825 138.116102,29.1136825 L145.64486,27.9888732 L145.673931,28.0937454 C120.142482,47.0252119 110.162402,69.3498412 110.162402,69.3498412" id="path64" fill="#25346D"></path>
                        <path d="M118.074829,73.0523086 L113.140598,73.9764899 C122.389948,58.7133229 148.63813,38.1164638 148.63813,38.1164638 L148.710629,38.218034 L146.440194,43.9145794 C133.721666,51.0822778 118.074829,73.0523086 118.074829,73.0523086" id="path66" fill="#25346D"></path>
                        <path d="M141.341226,100.362492 L144.839476,99.2717786 C144.839476,99.2717786 145.817852,92.715296 147.417852,90.1534298 C147.417852,90.1534298 157.283442,89.6075348 167.365451,90.9139502 L164.172988,97.1298316 C164.172988,97.1298316 156.59865,99.0187503 144.470162,102.717988 L141.341226,100.362492" id="path68" fill="#25346D"></path>
                        <path d="M167.745891,80.720321 C164.699143,80.5742465 162.266483,80.6126494 159.01516,80.735395 C154.742392,69.2899041 144.178731,59.6482713 141.995869,57.8117527 C143.718974,56.506414 144.726421,55.7738882 146.407533,54.5923719 C159.331714,63.9684147 166.468906,77.948854 167.745891,80.720321" id="path70" fill="#25346D"></path>
                        <path d="M137.186179,61.556212 C138.819557,62.9336907 148.250512,71.40924 154.071598,80.9575574 C150.58232,81.2156104 147.980974,81.527858 144.77595,82.0683694 C143.887659,79.9239101 140.111257,71.5768488 132.814712,65.187975 C134.351186,63.8643322 135.250961,63.1152968 136.891517,61.7934484 C136.902285,61.7848347 137.175412,61.5648257 137.186179,61.556212" id="path72" fill="#25346D"></path>
                        <path d="M140.454371,82.8791366 C137.94957,83.408163 135.951903,83.9052469 133.720589,84.587167 C132.922024,82.798024 129.873842,77.2687284 124.398741,72.8846998 C125.782321,71.5212185 127.035977,70.34042 128.563478,68.944996 C129.119423,69.4097784 135.593357,74.9107204 140.454371,82.8791366" id="path74" fill="#25346D"></path>
                        <path d="M123.745174,88.541227 C123.745174,88.541227 122.001253,83.7545067 118.125076,79.4763551 C118.125076,79.4763551 119.550648,77.8781497 120.392281,76.9787329 C122.459216,78.4857764 125.683981,81.3329724 128.34634,86.4441432 C126.617493,87.131088 125.197664,87.7670682 123.745174,88.541227" id="path76" fill="#25346D"></path>
                        <path d="M79.2258392,19.6199188 C74.5076697,63.3575579 75.0140852,89.3362023 82.5981137,114.751007 C77.1707473,114.241002 70.5708372,112.6812 65.6477328,111.272855 C66.5765798,115.749481 67.5750544,118.614981 69.0078045,122.638669 C71.985642,123.806188 79.9493923,125.417673 85.872407,126.249974 C88.6334657,132.537996 93.1488537,141.279853 96.7357535,147.130728 C100.35639,148.270252 107.042797,149.399009 111.13037,149.743199 C104.177297,136.634182 100.906592,126.228081 100.906592,126.228081 C100.906592,126.228081 116.074291,125.529651 129.058768,122.403586 C124.153608,118.114308 120.023326,113.130908 120.023326,113.130908 C114.03176,113.957467 104.82871,114.967785 97.2920568,114.907489 C87.745175,90.129742 81.6480913,54.2930449 80.2677414,18.8386177 L79.2258392,19.6199188 Z M65.9671585,27.4983214 C65.9671585,27.4983214 62.9609675,46.4585004 24.3424669,58.2506939 C24.3424669,58.2506939 39.8173162,62.8626274 50.8174056,68.8326587 C50.5342293,63.08802 47.3837583,59.7842964 47.3837583,59.7842964 L47.4612819,59.7502004 C56.9058757,65.1872572 58.3285764,71.8237757 58.379182,74.426916 L58.4753687,74.4319407 C62.1911155,67.5836681 65.9542379,64.5875264 69.0243141,62.5816045 L69.1100925,62.6465664 C65.8598458,71.2017927 63.7326139,77.8228783 62.0995947,83.4971715 L62.151277,83.5402402 C66.5952428,80.8251214 71.492865,82.5758616 71.492865,82.5758616 C67.121757,88.1568394 64.1697606,101.334408 65.5630311,110.076982 C67.1870777,110.503003 69.6437847,111.086942 71.7498412,111.538086 C76.432479,112.58609 80.6442331,113.122653 80.6442331,113.122653 C80.6442331,113.122653 77.8218016,102.636875 76.8401955,95.4322094 L76.8401955,95.4322094 C76.7235512,94.7894099 72.0183024,67.8148031 78.275099,20.0036603 L65.9671585,27.4983214 Z M24.6144453,70.7553145 L24.6143018,70.8199175 C49.6348126,72.2598457 51.1501109,98.011662 51.2412728,100.810047 L51.3697609,100.824403 C56.5857321,71.8722279 44.2544628,67.5919229 42.2514121,67.1099131 L42.1993709,67.1895901 C44.6679217,68.835171 46.2305955,74.7592624 46.2305955,74.7592624 C41.2866746,69.1976654 26.4160065,70.5633002 24.6144453,70.7553145 L24.6144453,70.7553145 Z M26.7503627,87.8040355 L26.7398468,87.8611014 C28.0087925,88.1152064 42.0716006,91.29762 49.3107211,108.711348 L49.3663514,108.693761 C49.4607435,106.842169 49.9944357,86.2176739 26.7503627,87.8040355 L26.7503627,87.8040355 Z M34.6678861,103.716821 L34.6353334,103.755224 C44.6890971,107.160159 48.3316273,117.933779 48.3316273,117.933779 L48.4195591,117.880661 C46.771107,103.41893 35.9325249,103.641092 34.6678861,103.716821 L34.6678861,103.716821 Z M37.7012104,114.106054 L37.641991,114.202958 C38.7642879,115.124986 47.8496175,122.80233 49.4194694,127.230504 L49.5278588,127.221531 C49.5278588,127.221531 50.8834442,118.157736 37.7012104,114.106054 L37.7012104,114.106054 Z M39.9163741,125.692236 L39.8959165,125.777655 C50.3580068,130.122563 79.1630308,151.285416 80.4235063,152.211033 L80.462627,152.191293 C77.3200519,136.164375 43.0000887,126.519871 39.9163741,125.692236 Z M33.171538,121.555852 L33.1034177,121.591024 C33.8683168,123.460921 47.9458041,156.676892 77.9592623,155.541674 L77.9933583,155.482096 C77.9933583,155.482096 41.2357101,137.930189 33.171538,121.555852 Z M41.2536553,147.376578 C41.2536553,147.376578 60.8778809,176.259843 88.4030485,163.545981 L88.3962293,163.46415 C86.8285308,163.420364 58.0576029,162.500848 41.2536553,147.376578 Z M37.8383122,167.126061 L37.7776572,167.224042 C39.4404656,169.164285 52.2311337,183.047102 74.2912498,178.60493 C90.0041252,175.337456 90.7736182,166.285864 90.804484,165.311077 L90.747777,165.27411 C90.747777,165.27411 76.0832641,186.413275 37.8383122,167.126061 L37.8383122,167.126061 Z M69.3537892,186.927586 L69.3537892,187.08048 C69.3537892,187.08048 84.9873465,189.79524 86.0576022,176.712782 L85.9933581,176.693401 C85.4004465,177.499143 79.3259738,185.552261 69.3537892,186.927586 Z M79.8410029,196.551991 L79.8855072,196.684428 C83.8851482,196.15899 120.848449,190.524176 110.283712,166.920409 L110.167785,166.920409 C110.167785,166.920409 107.659037,188.409506 79.8410029,196.551991 L79.8410029,196.551991 Z M87.7433805,191.255267 L87.8259287,191.37873 C108.762312,177.116191 107.154416,163.897349 106.768952,161.909013 L106.671689,161.892145 C104.716372,172.875725 89.5375482,189.306052 87.7433805,191.255267 L87.7433805,191.255267 Z M87.7498408,146.693222 C87.9748744,149.613994 88.9227434,155.058229 95.4533848,156.763029 C102.678149,158.648717 106.299145,156.02835 107.714668,152.454011 C104.90408,152.013635 101.937727,151.40529 98.8030482,150.595241 C94.7000425,149.532522 91.0323889,148.215698 87.7498408,146.693222 L87.7498408,146.693222 Z M95.1895894,146.750647 C95.0076244,146.205829 93.8684588,144.498875 93.7101816,144.214981 C89.3279475,137.111885 85.1420347,127.34966 85.1420347,127.34966 C80.462627,126.779719 76.4267365,125.980795 72.9198726,124.984474 C71.3719139,124.544815 70.0985178,124.144636 69.3222055,123.893402 C72.307939,130.77254 81.2956462,143.103451 95.1895894,146.750647 Z M52.6363378,110.795152 L52.5591732,110.808073 C52.5243594,113.088916 53.0289803,130.225928 72.8179434,135.798292 L72.8908012,135.73333 L68.118796,130.796228 C68.118796,130.796228 55.7771184,124.521845 52.6363378,110.795152 L52.6363378,110.795152 Z M54.2122912,80.6018822 C55.7649156,82.9308189 55.7681458,88.2149821 55.7652745,89.5720031 L55.8578721,89.5720031 C59.5610573,70.8095092 51.9468807,64.5419454 51.9468807,64.5419454 L51.8463872,64.5911155 C54.6781503,69.9298323 54.2122912,80.6018822 54.2122912,80.6018822 L54.2122912,80.6018822 Z M64.581425,69.5748749 L64.494211,69.4944801 C53.890712,82.5503793 58.985732,89.0781494 58.985732,89.0781494 C58.8217123,83.6468351 64.581425,69.5748749 64.581425,69.5748749 L64.581425,69.5748749 Z M67.9551351,83.9766691 C67.9551351,83.9766691 52.8617304,91.331716 53.2471947,109.037593 L53.3491238,109.053384 C53.3491238,109.053384 54.1308196,102.324268 62.029967,92.7809757 C62.029967,92.7809757 55.1181682,110.060832 63.3471496,125.529651 L63.4286211,125.496991 C63.0209047,122.556121 59.4311336,95.2915185 67.9551351,83.9766691 L67.9551351,83.9766691 Z M132.742931,168.782051 L132.81543,168.744007 C132.343828,167.661189 129.142392,161.094298 120.386897,159.74625 L120.405201,159.641091 C128.659306,158.863343 133.882814,155.958363 135.61525,154.84791 L135.563209,154.66774 C122.15953,159.492863 109.12696,156.34634 109.12696,156.34634 C107.954775,158.039655 106.12364,158.688197 106.12364,158.688197 L106.165632,158.796586 C106.417225,158.845756 106.663793,158.888107 106.913591,158.935124 C110.993627,159.722203 128.387615,163.266035 132.742931,168.782051 L132.742931,168.782051 Z M116.834093,193.087478 C116.834093,193.087478 127.695286,184.693759 117.491249,167.908116 L117.410136,167.948313 C118.039297,170.102822 122.260383,185.840103 116.778104,193.023234 L116.834093,193.087478 Z M129.623685,181.320408 L129.715564,181.320408 C129.715564,181.320408 129.360607,169.361683 118.418301,165.823235 L118.358364,165.893939 C118.972451,166.542122 121.605381,169.368143 121.605381,171.527676 C121.605381,171.527676 128.264151,173.828618 129.623685,181.320408 L129.623685,181.320408 Z M149.193357,133.684339 C148.091517,133.474739 139.510091,131.632478 129.718436,123.519782 C128.410226,123.876175 127.038131,124.200625 125.638759,124.498157 C125.638759,124.498516 125.639118,124.498516 125.639118,124.498516 C121.004214,125.484429 116.045578,126.159889 111.9336,126.608162 C111.052487,126.704349 110.210495,126.789768 109.41875,126.865856 C107.83526,127.018032 106.453115,127.131446 105.364555,127.212917 C103.732254,127.334945 102.760338,127.385192 102.760338,127.385192 C106.079854,136.824043 109.340868,143.826645 111.549212,148.064599 L111.551007,148.064599 C111.863254,148.663612 112.158633,149.218839 112.425659,149.705514 C124.82189,150.472136 142.212289,148.586807 149.193357,133.684339 L149.193357,133.684339 Z M96.9711954,59.8252116 C96.9711954,59.8252116 92.5322543,59.0130088 91.5004015,48.1891419 C90.9376379,42.2851492 91.4426177,37.5368317 92.889724,32.2106407 C96.6345422,29.1714304 100.607624,27.5869352 105.142393,26.3245933 C105.142393,26.3245933 93.8713301,22.1782318 92.1765791,11.5380885 L81.2924161,18.1656703 C83.4454892,62.4322999 89.4761754,88.4981584 98.1598899,113.513501 C105.003856,113.360607 112.645309,112.796408 118.823146,111.907041 C117.198741,109.710899 115.604125,107.302285 114.06801,104.651769 C114.06801,104.651769 102.246386,108.799997 96.5117966,97.2511416 C92.7583647,89.6929542 96.2185709,80.7346772 104.591114,76.2594867 L104.85168,76.5634795 C99.095915,82.3386251 97.7593515,88.8211732 99.4185709,93.7733489 C101.682187,100.53046 109.012828,103.533779 116.596498,100.523281 C116.596498,100.523281 127.940419,126.238131 156.384384,131.787525 L154.765721,146.894927 L152.748314,137.256165 C150.908206,140.28425 143.491786,150.505514 126.125434,152.861369 C130.903182,153.648089 135.341046,154.212289 136.911616,153.917986 L136.970836,154.044321 C136.563837,154.828888 133.780526,159.220454 124.832657,159.94293 L124.813276,160.036245 C124.813276,160.036245 131.652217,160.772001 136.220006,171.881557 L136.119871,171.978102 C134.617852,171.253473 123.886942,166.117896 120.43176,165.566259 L120.383308,165.678237 C122.786538,166.729471 135.615968,173.149569 129.33979,188.724984 L129.264061,188.70345 C129.491966,186.67384 129.795241,179.76563 123.581513,178.48039 C123.581513,178.48039 126.901746,190.03463 112.440015,197.31969 L112.39264,197.262624 C112.839836,196.184114 116.532972,186.860112 112.349571,182.67707 C112.349571,182.67707 103.383398,197.545441 76.9223848,198.005917 L76.8491681,197.859484 C76.8491681,197.859484 87.8374137,187.507936 86.5999081,179.607712 L86.4771625,179.610224 C86.4771625,179.610224 86.2420795,191.216864 64.4751891,187.619915 L64.4590383,187.490709 C64.4590383,187.490709 73.0989663,186.133329 74.5805275,179.714666 C74.5805275,179.714666 48.3434712,187.614531 33.3475093,163.976667 L33.4111432,163.860382 C35.4426191,164.620543 54.2783297,171.517986 64.5652743,167.85751 L64.5828607,167.741943 C64.5828607,167.741943 35.9637497,155.876892 35.1730094,137.145622 L35.2209592,137.125883 C35.2209592,137.125883 41.1316275,146.019198 50.5123361,149.227453 C50.5123361,149.227453 32.386289,133.518166 28.6015246,114.263972 L28.6578728,114.239208 C29.3755758,114.7205 36.1528928,119.283263 45.0483614,124.442886 L45.1427535,124.380437 C42.6720492,120.224672 33.2855263,111.689903 31.9169126,110.455986 L31.9413182,110.389589 L44.9166431,116.066753 C41.4611026,107.673752 28.5412285,102.078059 28.5412285,102.078059 C33.6026551,100.473753 42.4470155,103.558544 42.4470155,103.558544 C42.1186172,95.1655427 22.8639564,88.1302804 22.8639564,88.1302804 C28.6654457,82.5751437 41.7898599,84.3039907 41.7898599,84.3039907 C40.1435611,73.9362925 21.2180524,70.8087914 21.2180524,70.8087914 C31.4211926,66.3651845 41.6247634,69.1642872 41.6247634,69.1642872 C40.7432919,67.9149377 39.1720044,66.5999086 37.7037227,65.5267817 C26.7098423,61.2866741 14.6255357,57.871331 12.9361684,57.5662615 C12.9361684,57.5662615 52.8646016,45.9965892 61.0350815,26.3383394 L94.0098675,5.83935382 C94.0098675,5.83935382 101.497351,22.9842255 113.152801,25.7051945 L119.43185,26.8274556 C119.43185,26.8274556 107.185641,29.0196135 99.4605628,34.1215245 C97.5705673,38.5880654 96.5078486,45.6416319 96.9711954,59.8252116 L96.9711954,59.8252116 Z" id="path78" fill="#25346D"></path>
                        <path d="M178.215159,81.7557629 C176.044859,81.4126494 174.103181,81.1732595 171.739789,80.981963 C170.916461,78.6774319 164.720319,62.9509181 150.514846,51.7853733 C151.890171,50.8719592 152.875007,50.2453105 154.195061,49.4313133 C155.612737,50.4864949 172.153966,63.1074008 178.215159,81.7557629" id="path80" fill="#25346D"></path>
                        <path d="M182.271148,82.5108997 C181.409058,80.0940312 173.90686,60.7343188 157.745712,47.3266924 C159.07402,46.5694022 160.364285,45.8691779 161.603944,45.2364278 C163.413186,46.9372801 182.702553,65.3878853 188.447191,84.1643765 C186.547864,83.5366511 184.478775,82.9839369 182.271148,82.5108997" id="path82" fill="#25346D"></path>
                        <path d="M107.358992,79.5951528 C108.28748,79.8998634 109.285955,80.6524879 109.870971,81.8379522 C106.637952,83.3880643 104.090442,85.4722276 104.814712,90.8558075 C105.839387,98.4671128 117.947059,96.6804821 114.445578,88.3319852 C113.681828,86.5098229 112.977296,84.7770279 112.544815,83.271779 C113.092505,82.1143093 114.453115,81.3039011 114.453115,81.3039011 C116.508566,82.2302357 119.09412,86.634363 119.414622,89.8139053 C119.892684,94.5536091 118.34975,99.6845197 110.950558,99.6845197 C97.6800334,99.6845197 98.3590823,82.6350809 107.358992,79.5951528" id="path84" fill="#C8DBF1"></path>
                        <path d="M121.927319,98.9501994 C121.927319,98.9501994 122.937996,97.082815 125.105425,95.7132322 C135.612738,100.986987 144.589678,104.752981 144.589678,104.752981 C155.498246,102.842528 166.671687,99.8295175 166.671687,99.8295175 C168.40843,96.2257491 171.172719,91.608432 171.172719,91.608432 C174.598111,91.9856415 176.340956,92.6506931 176.340956,92.6506931 C175.760606,115.865408 158.001252,136.873213 158.001252,136.873213 L159.389857,130.399279 C129.306771,124.92023 121.927319,98.9501994 121.927319,98.9501994" id="path86" fill="#C8DBF1"></path>
                        <path d="M106.955942,58.8708823 L102.701119,58.2628967 C102.55648,54.4983387 103.482815,46.539613 106.08775,39.4189313 C112.790307,33.2619821 126.049705,31.5116008 128.696632,31.2176215 L128.734676,31.4304164 C113.157467,41.0429779 106.955942,58.8708823 106.955942,58.8708823" id="path88" fill="#C8DBF1"></path>
                        <path d="M154.917538,30.9742478 C133.441719,44.1952434 113.816417,70.188603 113.816417,70.188603 L113.725255,70.071241 C122.625031,45.0476436 155.73979,24.7483529 155.73979,24.7483529 C156.288197,29.7127314 157.930189,37.0878412 157.930189,37.0878412 L157.745712,37.1395235 L154.917538,30.9742478" id="path90" fill="#C8DBF1"></path>
                        <path d="M125.639118,124.498516 C131.842437,130.912155 144.589678,135.94975 144.589678,135.94975 C135.037054,147.094478 119.674111,148.3528 111.549212,148.064599 C109.340868,143.826645 106.079854,136.824043 102.760338,127.385192 C102.760338,127.385192 115.04495,126.751365 125.639118,124.498516" id="path92" fill="#C8DBF1"></path>
                        <path d="M72.9198726,124.984474 C76.4267365,125.980795 80.462627,126.779719 85.1420347,127.34966 C85.1420347,127.34966 89.3279475,137.111885 93.7101816,144.214981 C80.1087463,139.249167 74.832838,131.423954 72.9198726,124.984474" id="path94" fill="#C8DBF1"></path>
                        <path d="M95.4533848,156.763029 C88.9227434,155.058229 87.9748744,149.613994 87.7498408,146.693222 C91.0323889,148.215698 94.7000425,149.532522 98.8030482,150.595241 C101.937727,151.40529 104.90408,152.013635 107.714668,152.454011 C106.299145,156.02835 102.678149,158.648717 95.4533848,156.763029" id="path96" fill="#C8DBF1"></path>
                        <path d="M76.8401955,95.4322094 C77.8218016,102.636875 80.6442331,113.122653 80.6442331,113.122653 C80.6442331,113.122653 76.432479,112.58609 71.7498412,111.538086 C71.9235514,104.5039 74.9997289,98.9031828 76.8401955,95.4322094" id="path98" fill="#C8DBF1"></path>
                        <path d="M161.603944,45.2364278 C160.364285,45.8691779 159.07402,46.5694022 157.745712,47.3266924 C173.90686,60.7343188 181.409058,80.0940312 182.271148,82.5108997 C184.478775,82.9839369 186.547864,83.5366511 188.447191,84.1643765 C182.702553,65.3878853 163.413186,46.9372801 161.603944,45.2364278 Z M150.514846,51.7853733 C164.720319,62.9509181 170.916461,78.6774319 171.739789,80.981963 C174.103181,81.1732595 176.044859,81.4126494 178.215159,81.7557629 C172.153966,63.1074008 155.612737,50.4864949 154.195061,49.4313133 C152.875007,50.2453105 151.890171,50.8719592 150.514846,51.7853733 Z M166.958811,88.2185711 C147.071867,86.9437394 131.458767,88.366799 128.407713,88.7285756 L128.407713,88.620904 C146.145174,83.4472837 154.853652,82.1107202 167.886941,82.3558526 C167.586896,81.7923712 167.287569,81.2371447 166.987883,80.6890962 C167.238399,80.6987867 167.487479,80.7077593 167.745891,80.720321 C166.468906,77.948854 159.331714,63.9684147 146.407533,54.5923719 C146.009866,54.8719591 145.651679,55.1249874 145.310719,55.3679663 C143.291876,54.5543279 141.302823,54.254642 139.34643,54.5001332 C139.34643,54.5001332 153.545443,42.4172264 158.508744,41.1269617 C176.75262,53.8246734 191.043871,73.4305948 193.898245,95.3493022 C193.912243,95.4533848 193.91332,95.5395221 193.915832,95.5991003 C193.921574,95.672317 193.92301,95.7132322 193.92301,95.7132322 C193.92301,95.7132322 184.61803,89.3505586 166.958811,88.2185711 L166.958811,88.2185711 Z" id="path100" fill="#C8DBF1"></path>
                    </g>
                </g>
            </g>
        </g>
    </g>
</svg>