<?xml version="1.0" encoding="UTF-8"?>
<svg width="200px" height="200px" viewBox="0 0 200 200" version="1.1" xmlns="http://www.w3.org/2000/svg" xmlns:xlink="http://www.w3.org/1999/xlink">
    <!-- Generator: Sketch 54.1 (76490) - https://sketchapp.com -->
    <title>southern-va</title>
    <desc>Created with Sketch.</desc>
    <defs>
        <polygon id="path-1" points="0.000443697479 0 174.778353 0 174.778353 199.719852 0.000443697479 199.719852"></polygon>
    </defs>
    <g id="southern-va" stroke="none" stroke-width="1" fill="none" fill-rule="evenodd">
        <g id="southern-va_BGL">
            <g id="Group-3" transform="translate(12.000000, 0.000000)">
                <mask id="mask-2" fill="white">
                    <use xlink:href="#path-1"></use>
                </mask>
                <g id="Clip-2"></g>
                <path d="M84.6239059,-0.000148148148 C54.8074353,-0.000148148148 10.6358723,20.8072593 10.6358723,66.788 C10.6358723,91.7539259 19.3426958,107.73763 19.3426958,122.130222 C19.3426958,144.908 0.000443697479,149.908 0.000443697479,149.908 C0.000443697479,149.908 0.164611765,149.913926 0.469284034,149.913926 C4.56017479,149.913926 34.0586622,148.805778 34.0586622,116.841333 C34.0586622,109.270963 30.396679,92.1539259 30.396679,83.1835556 C30.396679,51.4191111 55.5129143,40.7435556 70.703637,40.7435556 C82.8180571,40.7435556 87.1426286,43.550963 87.1426286,43.550963 C78.1193008,43.550963 40.9759059,56.0931852 40.9759059,89.1317037 C40.9759059,106.796889 49.7699899,117.77763 49.7699899,131.773185 C49.7699899,146.082815 33.5868639,149.908 33.5868639,149.908 C64.6501244,153.953926 107.406292,170.873926 138.546461,199.719852 C133.920175,182.83837 128.474528,166.183556 123.830494,153.894667 L144.672444,153.894667 C151.875133,136.183556 164.248376,111.373185 174.778797,97.2265185 L140.935032,97.2265185 C122.131133,97.2265185 117.72078,90.9568889 114.209654,87.4398519 L152.052612,87.4398519 C147.890729,72.7287407 140.214763,61.5865185 126.32999,52.2857778 C134.319503,43.105037 140.285755,32.0783704 143.123939,19.9257778 C143.123939,19.9257778 123.329116,-0.000148148148 84.6239059,-0.000148148148" id="Fill-1" fill="#8C2232" mask="url(#mask-2)"></path>
            </g>
        </g>
    </g>
</svg>