<?xml version="1.0" encoding="UTF-8"?>
<svg width="200px" height="200px" viewBox="0 0 200 200" version="1.1" xmlns="http://www.w3.org/2000/svg" xmlns:xlink="http://www.w3.org/1999/xlink">
    <!-- Generator: Sketch 54.1 (76490) - https://sketchapp.com -->
    <title>spalding</title>
    <desc>Created with Sketch.</desc>
    <g id="spalding" stroke="none" stroke-width="1" fill="none" fill-rule="evenodd">
        <g id="spalding_BGL">
            <g id="spalding" transform="translate(0.000000, 37.000000)">
                <g id="g10" transform="translate(99.909171, 62.757497) scale(-1, 1) rotate(-180.000000) translate(-99.909171, -62.757497) translate(0.000000, 0.268851)" fill-rule="nonzero">
                    <g id="g12">
                        <path d="M53.9949124,43.0713886 C52.5553484,43.0642678 51.0612158,43.0620153 49.511788,43.0620153 C27.3529512,43.0620153 17.5891004,43.6832687 21.4341866,51.0430505 C22.0364754,52.1960387 23.4207442,54.5012884 26.3090275,57.9592356 L35.9800899,69.5802344 L31.1350401,72.5005613 L69.0355659,72.5005613 L57.3459023,58.4020331 C56.9800531,58.0481003 56.7489904,57.6044309 56.4245581,56.9836861 C55.6366199,55.4762566 56.5743855,54.8555118 59.6361111,54.8555118 C63.2390902,54.8555118 64.969081,56.0967107 66.8948939,58.4020331 L75.7420508,69.1323507 C76.2470462,69.7533134 76.7040853,70.2855568 76.9366012,70.7282816 C77.631969,72.0580545 77.6871915,72.8574005 73.8790172,74.1863742 L57.7480821,79.8612151 C52.147501,81.9008154 50.3468107,85.0049025 52.4776009,89.0841031 C53.1720968,90.4138034 54.1817243,91.6555835 55.1447761,92.8079904 L62.0674281,101.231605 C72.9794714,114.532967 79.5327864,116.041414 109.43651,116.041414 C131.234874,116.041414 141.451041,115.596727 137.512803,108.058853 C136.449043,106.019253 134.342594,103.714439 132.324792,101.231605 L126.144229,93.7373274 L125.877563,93.4125317 L130.752404,90.5017234 L93.3929132,90.5017234 L101.827427,100.789098 C102.697908,101.764212 102.931151,102.207445 102.931151,102.207445 C103.717345,103.714439 102.781469,104.334966 99.718072,104.334966 C96.1148023,104.334966 94.159489,103.005992 92.2797434,100.789098 L86.7306064,93.9611239 C86.3658471,93.6065372 85.8615782,92.9852838 85.4452295,92.1874636 C84.7970914,90.9456835 85.4147118,90.05849 88.775293,88.9060832 L103.607627,83.8510424 C110.063576,81.7227954 112.225247,78.6201615 110.185647,74.7189809 C109.584012,73.5651208 108.66848,72.5005613 107.751496,71.4370191 L96.5667551,57.9592356 L96.4323318,57.7960385 L68.8760019,24.0219431 C68.4139492,23.4891911 68.1337676,22.956657 67.8996532,22.5133509 C67.1054661,21.001925 67.9166559,20.4700449 71.0062108,20.4700449 C75.1854659,20.4700449 76.6139854,21.8026516 78.5097165,24.0219431 L126.106446,81.3071733 L162.886099,81.3071733 L152.459942,76.0603069 L108.811623,23.5776924 C104.324793,18.1602175 101.225066,14.341798 94.4152565,11.7660306 C86.647046,8.74688443 76.7847392,8.65831041 60.9724235,8.65831041 C38.9793269,8.65831041 28.8993272,9.19019051 32.638546,16.29653 C33.2935868,17.5397634 34.783723,20.0255762 37.7432143,23.5776924 L53.986411,43.0554758 L53.9949124,43.0713886" id="path14" fill="#F9D915"></path>
                        <path d="M111.053948,99.1600339 L119.393276,99.1600339 L125.64432,106.740778 C125.731514,106.846864 125.819434,106.954402 125.908807,107.063394 C121.276655,107.350406 115.237781,107.379471 110.834511,107.382377 C112.122068,104.851587 112.197636,101.933512 111.053948,99.1600339 Z M62.0206342,87.5371459 L75.7929136,82.692096 L78.3258836,85.7809243 C77.9117147,86.375293 77.5469554,87.0365101 77.2534041,87.7725682 C76.1692987,90.4900976 76.3531316,93.4815599 77.7707519,96.1954563 C78.5860108,97.758399 79.5088082,98.9246115 80.249226,99.7151655 L85.6312422,106.336055 C77.0826502,104.99037 73.9204341,102.028699 68.7616332,95.7405971 L62.0206342,87.5371459 Z M79.6846483,81.159671 L84.7309697,81.159671 C84.247046,81.3456837 83.7100797,81.5694802 83.1498617,81.8426864 L78.1478636,81.8426864 C78.6274276,81.6530406 79.1484086,81.4285175 79.6846483,81.159671 L79.6846483,81.159671 Z M59.0494445,63.5328594 C59.0498445,63.5328594 59.0498445,63.5328594 59.0498445,63.5328594 C59.0498445,63.5328594 59.0498445,63.5328594 59.0494445,63.5328594 Z M64.1046702,52.985846 C64.1038702,52.983046 64.1022702,52.981146 64.1010702,52.977946 C64.1022702,52.981146 64.1038702,52.983046 64.1046702,52.985846 Z M32.6862117,52.085303 C37.6149673,51.7464111 44.2413068,51.7217062 48.5661023,51.7203257 C47.0807618,54.5669015 47.139254,57.9124418 48.7513884,60.9953845 C49.1362749,61.7328232 49.6801441,62.7730411 50.5912431,63.8419603 L42.4696084,63.8419603 L32.9646495,52.4210704 C32.869536,52.3067017 32.7770382,52.1954574 32.6862117,52.085303 L32.6862117,52.085303 Z M130.169661,72.6487175 L85.0935492,18.398619 C85.0499525,18.3469569 85.0063557,18.2961667 84.9620324,18.2445045 C87.3700251,18.612025 89.4445028,19.1237779 91.2784718,19.8365118 L91.3518597,19.8649223 C95.7529495,21.5295907 97.6712056,23.7006352 101.96621,28.8871201 L138.360759,72.6487175 L130.169661,72.6487175 Z M44.0880643,17.6632148 C49.0454484,17.3421976 55.6440313,17.318946 59.9815426,17.3166208 C59.1240676,19.0190731 58.0679368,22.4159849 60.2344762,26.5403808 C60.5809976,27.1957123 61.1869921,28.342161 62.2303345,29.5731146 L89.876837,63.4564925 L100.180197,75.8713877 L86.8461377,80.4163468 L84.2717508,77.311533 C84.6604883,76.738236 85.0041759,76.1024504 85.2839216,75.3954568 C86.3876454,72.6024323 86.1609424,69.6823961 84.6096255,66.715784 C83.9912786,65.5401255 83.2465011,64.6304798 82.6477727,63.8995806 L82.4574003,63.667428 L73.5752933,52.8942403 C71.8221962,50.7952758 69.4899165,48.5107345 65.9287177,47.2260842 L61.2324054,38.2240862 L44.3928781,18.0324791 C44.2889726,17.9072838 44.1873922,17.7847044 44.0880643,17.6632148 Z M60.9724235,0 C39.7695176,0 29.3767113,0.332652489 24.8492637,7.83149844 C23.5620703,9.9633785 21.8676107,14.4209987 24.9761302,20.3284282 C25.9269748,22.1332601 27.7577468,25.1197814 31.0913707,29.1204352 L35.6400354,34.5751127 C23.6915525,35.0264115 17.0487189,36.6357121 13.6180196,42.2990725 C12.3101178,44.4570379 10.5897908,48.9844129 13.7602176,55.052787 C14.6426881,56.7421603 16.3842321,59.5836497 19.6639414,63.5098985 L22.8757851,67.3694443 L0,81.159671 L43.8575829,81.159671 C43.8510434,81.1763831 43.8442133,81.1938218 43.8376737,81.2105338 C42.8187455,83.8372368 42.159127,88.0312421 44.8030507,93.0920958 C45.8870107,95.1673001 47.2805801,96.9002701 48.5016518,98.3607605 L55.3780913,106.729153 C68.6716786,122.934057 78.0781089,124.699724 109.43651,124.699724 C130.470478,124.699724 140.783284,124.366209 145.336963,116.850133 C146.648498,114.685556 148.372022,110.144956 145.187281,104.049407 C143.931695,101.644321 142.100632,99.4484989 140.328425,97.3246116 C139.904084,96.8152564 139.471749,96.297182 139.043775,95.7703882 L138.968207,95.6795616 L148.534783,89.9662103 L199.351857,89.9662103 L157.963302,69.136565 L115.303903,17.8420341 C110.701541,12.2840324 106.354221,7.03423052 97.5157106,3.68188183 C88.0130768,0 76.6670281,0 60.9724235,0 L60.9724235,0 Z" id="path16" fill="#F9D915"></path>
                        <path d="M53.706302,42.839454 C52.2652848,42.8329145 50.7723148,42.8300807 49.2214338,42.8300807 C27.0634689,42.8300807 17.2993275,43.4514067 21.1449949,50.8106073 C21.7469931,51.9630141 23.1309713,54.2694264 26.0186733,57.7265017 L35.6894451,69.3475005 L30.8452672,72.2694986 L68.746011,72.2694986 L57.0563473,58.1706797 C56.6902075,57.815875 56.4589268,57.3731502 56.1347852,56.7509523 C55.3474282,55.2452666 56.2840313,54.6242312 59.3466289,54.6242312 C62.9493172,54.6242312 64.6795261,55.86543 66.6039584,58.1706797 L75.4521325,68.9004161 C75.9578546,69.5205796 76.4148936,70.052823 76.6474095,70.4955477 C77.3413241,71.8267739 77.3972733,72.6248847 73.589099,73.9545849 L57.4577279,79.6294258 C51.857946,81.6697527 50.0570378,84.7738398 52.1874646,88.8523139 C52.8826145,90.1805609 53.8913701,91.4230677 54.8549305,92.5762011 L61.7773645,100.999089 C72.6895531,114.300451 79.2414149,115.808171 109.146591,115.808171 C130.943503,115.808171 141.161849,115.364938 137.224338,107.82779 C136.157671,105.78819 134.054129,103.481923 132.034874,100.999089 L125.855038,93.5048115 L125.587644,93.1800158 L140.804356,83.9636673 L111.097545,71.0178366 L81.3914603,88.7324228 L101.538962,100.556582 C102.408717,101.531696 102.639779,101.975656 102.639779,101.975656 C103.4267,103.481923 102.490824,104.103903 99.4281537,104.103903 C95.8248841,104.103903 93.8695708,102.774203 91.9912784,100.556582 L86.4414147,93.728608 C86.0759288,93.3740213 85.5723866,92.7534945 85.1553112,91.9549477 C84.5071732,90.7131676 85.1247935,89.8274274 88.4846481,88.6742939 L103.319888,83.6199797 C109.774384,81.4917327 111.933875,78.3883722 109.896455,74.486465 C109.29482,73.3326049 108.377836,72.2694986 107.461578,71.2057385 L96.2761102,57.7265017 L96.1431402,57.5641766 L68.5865196,23.7908804 C68.124467,23.2572565 67.8442853,22.7247951 67.6100982,22.2809077 C66.8154025,20.7708623 67.6257204,20.2384009 70.7166558,20.2384009 C74.8970009,20.2384009 76.3247937,21.5687551 78.2205248,23.7908804 L125.816527,81.0746574 L162.596908,81.0746574 L152.16857,75.8270644 L108.522431,23.3467024 C104.035601,17.9291549 100.934421,14.1093548 94.1267915,11.5335147 C86.3571277,8.51524048 76.4955476,8.42586718 60.68236,8.42586718 C38.689554,8.42586718 28.6100629,8.9592005 32.3487004,16.0632149 C33.0035232,17.3064483 34.4939501,19.7927697 37.4534414,23.3467024 L53.6960568,42.8235412 L53.706302,42.839454" id="path18" fill="#2B338E"></path>
                        <path d="M60.6744147,54.3914383 C60.6737147,54.3894383 60.6733147,54.3887383 60.6721147,54.3863383 C60.6733147,54.3887383 60.6737147,54.3894383 60.6744147,54.3914383 Z M37.4333142,14.657947 C42.0273922,13.5419433 53.9010341,13.5419433 60.68236,13.5419433 C76.3204341,13.5419433 85.4982722,13.6696818 92.2732039,16.3021976 C97.7692982,18.3824155 100.268117,21.4001811 104.408353,26.400726 L104.582014,26.6099176 L145.623248,75.9585812 L135.241414,75.9585812 L124.230333,71.1594533 L82.1558563,20.5211257 C79.7071733,17.651589 77.0267011,15.1223248 70.7166558,15.1223248 C68.8558748,15.1223248 64.98325,15.1223248 63.049517,18.3259578 C62.3904072,19.4164573 61.5182546,21.6916253 63.0827232,24.6633963 C63.3727868,25.2148949 63.850171,26.120835 64.6610701,27.0737141 L92.3218869,60.9730048 L100.806537,71.1974551 L71.3427775,88.7673002 L80.5398708,94.1653019 C80.5653023,94.2168914 80.5921869,94.2692075 80.6190716,94.3207969 C81.1640307,95.3649386 81.8688445,96.3553109 82.6259743,97.145865 L88.0864646,103.862668 C90.1994528,106.357127 93.3979995,109.220706 99.4281537,109.220706 C101.149498,109.220706 105.178562,109.220706 107.16294,105.946591 C107.699906,105.060851 108.775292,102.670297 107.175293,99.6069003 C106.833058,98.9500429 106.203812,98.0999067 105.357309,97.1509512 L104.821796,96.5507696 L96.1569458,91.4652112 L104.969298,88.4628497 C110.346228,86.6906427 113.665392,84.1373276 115.071387,80.6735675 C115.311169,80.0828318 115.526246,79.3801978 115.648317,78.5816511 L117.913894,79.569117 L123.415074,86.1907335 L127.250133,86.1907335 L117.881196,91.8663011 L128.087917,104.254312 C128.526791,104.794911 128.993276,105.353676 129.450315,105.902268 C130.523521,107.189825 131.626518,108.512259 132.306627,109.554221 C127.96294,110.692095 116.405447,110.692095 109.146591,110.692095 C80.0254294,110.692095 75.1564014,109.241051 65.7328231,97.7540393 L58.807628,89.3275182 C57.9861929,88.344412 57.1733319,87.343867 56.7211612,86.4799252 C56.5823782,86.2147117 56.5108069,86.0228861 56.4739677,85.9000887 C56.7254482,85.6537672 57.4517697,85.0768371 59.2095171,84.4359652 L75.286465,78.7814694 C76.3909154,78.3956384 77.4880998,77.9574912 78.4726593,77.3856475 L79.6345121,77.3856475 L79.2312423,76.8995439 C80.3008154,76.1431407 81.1792895,75.1738401 81.6980906,73.8637584 C82.7669371,71.1657021 81.5760198,68.8811609 81.1843758,68.1304252 C80.7331497,67.2717876 80.1634857,66.5772917 79.6127137,65.9053934 L79.4194349,65.6690265 L70.5512062,54.9151667 C68.1976368,52.0952576 65.227101,49.5078643 59.3466289,49.5078643 C57.6251393,49.5078643 53.5936045,49.5078643 51.6104619,52.782996 C51.0742948,53.6685182 49.9991268,56.0589995 51.6005073,59.1215244 C51.9777644,59.8447215 52.4417789,60.735112 53.2470831,61.5922964 L57.8576552,67.1528412 L40.519672,67.1528412 L29.9514616,54.4539133 C27.8429058,51.9303166 26.6660847,50.1456118 26.067211,49.1328598 C30.5844134,47.9461568 42.9129871,47.9470288 49.2214338,47.9470288 C50.7646127,47.9470288 52.2502439,47.9489906 53.6832684,47.9555301 L63.0532228,47.9970197 L57.8363655,39.7993087 L41.3828146,20.0698269 C39.3511343,17.6305899 38.1184368,15.789936 37.4333142,14.657947 Z M60.68236,3.30892635 C40.830226,3.30892635 31.1305351,3.56919882 27.5916433,9.43004518 C26.4912618,11.2531151 25.6374925,14.2975473 27.8210347,18.4465754 C28.6898449,20.0959123 30.3834325,22.8528241 33.5221063,26.6215434 L42.7949126,37.7400899 C26.6612891,37.8993633 19.3905899,38.8947493 16.3575654,43.9027055 C15.2321885,45.7598535 14.3622158,48.8777463 16.6102085,53.1795082 C17.4131149,54.7173102 19.01653,57.3249032 22.0918432,61.006211 L27.9467386,68.0424324 L12.4571114,77.3856475 L50.7470287,77.3856475 C48.8794175,78.7538582 47.5786364,80.382196 46.8497718,82.261215 C46.0961296,84.2049025 45.6236138,87.3366009 47.6526782,91.2210695 C48.5765655,92.986737 49.7777281,94.479925 50.9286817,95.856855 L57.8247397,104.247772 C70.2440673,119.386736 78.6383268,120.924974 109.146591,120.924974 C128.834148,120.924974 138.455219,120.663394 142.018525,114.782922 C143.14768,112.917708 144.020342,109.786737 141.759125,105.459035 C140.675019,103.385284 139.040142,101.424157 137.309352,99.348953 C136.878471,98.8323318 136.439597,98.3062646 136.005083,97.771478 L133.299906,94.4908242 L147.001631,86.1907335 L184.147498,86.1907335 L155.420886,71.736238 L112.290642,19.8742956 C107.800906,14.4521704 103.923703,9.77009966 95.9367823,6.74812699 C87.499362,3.46957303 77.5455021,3.30892635 60.68236,3.30892635 L60.68236,3.30892635 Z" id="path20" fill="#2B338E"></path>
                        <path d="M53.1729687,43.2180916 C51.7322421,43.2109708 50.2392721,43.2087183 48.6889724,43.2087183 C26.5310075,43.2087183 16.7668661,43.8291724 20.6116616,51.1889542 C21.2136598,52.3416517 22.5985099,54.6477734 25.4865025,58.1063019 L35.1572743,69.7269374 L30.3116432,72.6470463 L68.213259,72.6470463 L56.5235953,58.5490267 C56.1577461,58.194222 55.9261748,57.7514972 55.6023238,57.1304618 C54.8138043,55.6227416 55.7509886,55.0025781 58.8132955,55.0025781 C62.4159839,55.0025781 64.1459748,56.2434863 66.0717876,58.5490267 L74.9187992,69.2779638 C75.4237947,69.8995078 75.8815603,70.4316785 76.1133496,70.874476 C76.8087174,72.2039582 76.8646666,73.002723 73.0564923,74.3331498 L56.9252665,80.0079907 C51.3246127,82.047591 49.5237045,85.1494983 51.6550032,89.2294256 C52.3495718,90.5591258 53.3591267,91.800906 54.3216698,92.9547661 L61.2454844,101.378381 C72.1562925,114.679016 78.7095348,116.18601 108.613258,116.18601 C130.411623,116.18601 140.629969,115.743503 136.691005,108.206355 C135.625791,106.166028 133.520069,103.861214 131.502994,101.378381 L125.322431,93.8833764 L125.054311,93.560034 L129.929152,90.6477725 L92.5696616,90.6477725 L101.004902,100.934421 C101.876837,101.910987 102.107899,102.352768 102.107899,102.352768 C102.895547,103.861214 101.958217,104.481741 98.8962736,104.481741 C95.2915508,104.481741 93.3362374,103.152041 91.4586716,100.934421 L85.908808,94.1078996 C85.5440487,93.7525862 85.0397799,93.1313328 84.6227045,92.3320595 C83.9745665,91.0924591 84.5914602,90.2052657 87.9520414,89.054312 L102.785828,83.9978181 C109.240324,81.8702977 111.402722,78.7662106 109.362395,74.8650299 C108.761487,73.7118964 107.845229,72.6470463 106.930424,71.5840854 L95.7442301,58.1063019 L95.6098069,57.9430322 L68.0543489,24.1686461 C67.5916423,23.6358941 67.3121146,23.1025607 67.0770555,22.6595453 C66.2832318,21.1487007 67.0935496,20.6167479 70.1831045,20.6167479 C74.3636675,20.6167479 75.7914604,21.947974 77.6871915,24.1686461 L125.283194,81.4546755 L162.063575,81.4546755 L151.63669,76.206356 L107.989825,23.7238868 C103.502268,18.3069205 100.401814,14.4879924 93.5941848,11.9121523 C85.824521,8.89220686 75.9629409,8.80508607 60.1498986,8.80508607 C38.1570926,8.80508607 28.0770202,9.33696616 31.816239,16.4418524 C32.4707712,17.6855945 33.9614887,20.1722792 36.92098,23.7238868 L53.1641767,43.2013795 L53.1729687,43.2180916" id="path22" fill="#FFFFFF"></path>
                    </g>
                </g>
            </g>
        </g>
    </g>
</svg>