<svg width="200" height="200" viewBox="0 0 200 200" fill="none" xmlns="http://www.w3.org/2000/svg">
<path d="M126.671 42.3485C131.646 43.2743 135.625 46.2315 139.532 48.7004C143.359 51.1233 147.376 53.3113 151.669 55.2505C155.492 56.8673 166.496 59.7508 166.496 59.7508C168.551 60.3081 169.919 60.7872 169.956 61.2616C170.071 62.7218 168.882 63.2008 168.058 64.0714C167.616 64.5366 167.031 65.1631 166.584 65.6237C166.372 65.8402 166.04 65.9415 166.372 66.0659C166.777 66.2179 168.118 65.9507 168.763 65.9185C169.656 65.877 170.513 65.8909 171.153 65.9185C176.045 66.1396 180.255 66.9181 184.152 68.2078C189.173 69.866 192.434 73.7767 195.046 78.0329C196.248 79.9951 197.381 83.2517 197.856 85.716C198.496 89.0187 197.519 92.1279 196.382 94.5093C195.267 96.8401 193.779 98.8161 192.024 100.566C190.467 102.119 186.556 105.025 186.262 104.924C186.464 102.883 185.898 101.336 185.207 99.8986C183.102 100.018 181.508 99.8249 179.868 99.3827C178.297 98.9589 176.681 98.6273 174.949 98.7194C171.379 98.9083 169.14 100.355 166.519 101.75C165.276 102.414 164.253 103.344 163.148 104.113C161.955 104.942 160.6 105.458 159.145 105.887C156.984 106.518 153.438 106.329 151.273 105.96C150.867 105.891 145.487 106.158 143.825 106.476C142.24 106.78 140.715 107.167 139.117 107.513C135.962 108.194 132.811 108.549 129.771 109.581C125.662 110.981 121.728 113.049 118.034 115.122C116.777 115.832 115.248 116.518 114.52 117.411C95.5605 140.691 124.713 156.15 124.713 156.15L115.961 157.817C115.036 157.992 114.05 158.273 113.009 158.573C111.051 159.13 108.836 159.761 106.334 159.881C105.105 159.941 103.866 159.968 102.645 159.968C93.2528 159.968 84.0588 158.204 76.044 154.869L74.7957 154.247L72.7275 153.948C68.499 153.335 52.345 146.366 42.6857 137.665L41.8382 136.9L41.6263 135.781C41.0966 132.957 40.8755 130.106 40.9538 127.246L39.9496 126.546C39.9496 126.546 27.6003 117.586 23.768 114.146L22.2387 112.778C22.2387 112.778 25.0531 104.85 25.7993 103.376L24.6708 101.985C21.2714 97.7936 7.87189 85.1264 6.51306 84.0993L2.94324 81.1282C2.94324 81.1282 17.7937 66.6509 54.4822 56.9732C58.0613 56.1994 52.7457 54.2648 50.2676 53.2606C50.028 53.1639 50.0971 52.8092 50.3551 52.8092C56.2372 52.7908 62.4833 51.8235 67.1678 51.1187C70.7975 50.5752 73.8422 49.0597 77.2324 47.7608C81.2029 46.2361 101.535 37.6685 126.671 42.3485Z" fill="#00205C"/>
<path d="M111.535 40.9669C116.298 40.9669 121.374 41.363 126.671 42.3533C131.646 43.2792 135.626 46.2364 139.532 48.7053C143.359 51.1282 147.376 53.3161 151.669 55.2554C155.492 56.8721 166.496 59.7556 166.496 59.7556C168.551 60.313 169.919 60.792 169.956 61.2665C170.071 62.7266 168.883 63.2057 168.058 64.0763C167.616 64.5415 167.031 65.1679 166.584 65.6286C166.372 65.8451 166.04 65.9464 166.372 66.0708C166.46 66.103 166.593 66.1168 166.754 66.1168C167.33 66.1168 168.261 65.9464 168.763 65.9234C169.168 65.9049 169.564 65.8957 169.942 65.8957C170.393 65.8957 170.808 65.9049 171.153 65.9234C176.045 66.1445 180.255 66.9229 184.152 68.2127C189.173 69.8709 192.434 73.7816 195.046 78.0377C196.248 80 197.381 83.2566 197.856 85.7209C198.496 89.0236 197.519 92.1328 196.382 94.5142C195.267 96.8449 193.779 98.821 192.024 100.571C190.495 102.096 186.686 104.933 186.28 104.933C186.271 104.933 186.266 104.933 186.262 104.929C186.464 102.888 185.898 101.341 185.207 99.9035C184.797 99.9265 184.41 99.9357 184.037 99.9357C182.48 99.9357 181.19 99.7422 179.868 99.383C178.477 99.0098 177.045 98.7012 175.529 98.7012C175.336 98.7012 175.142 98.7058 174.949 98.7151C171.379 98.9039 169.14 100.35 166.52 101.746C165.276 102.409 164.253 103.34 163.148 104.109C161.955 104.938 160.601 105.454 159.145 105.882C158.127 106.177 156.8 106.292 155.455 106.292C153.949 106.292 152.42 106.149 151.278 105.951C151.231 105.942 151.13 105.942 150.983 105.942C149.753 105.942 145.312 106.186 143.829 106.472C142.245 106.776 140.72 107.163 139.122 107.508C135.966 108.19 132.816 108.545 129.776 109.577C125.667 110.977 121.733 113.045 118.039 115.118C116.782 115.827 115.252 116.513 114.524 117.407C95.5653 140.687 124.718 156.145 124.718 156.145L115.966 157.813C115.04 157.988 114.055 158.269 113.014 158.568C111.056 159.126 108.84 159.757 106.339 159.876C105.109 159.936 103.87 159.964 102.65 159.964C93.2576 159.964 84.0635 158.2 76.0487 154.865L74.8004 154.243L72.7322 153.944C68.5037 153.331 52.3497 146.362 42.6905 137.661L41.8429 136.896L41.631 135.777C41.1013 132.953 40.8802 130.102 40.9585 127.241L39.9544 126.541C39.9544 126.541 27.6051 117.582 23.7727 114.141L22.2434 112.773C22.2434 112.773 25.0578 104.846 25.804 103.372L24.6755 101.981C21.2761 97.7892 7.87664 85.1221 6.5178 84.0949L2.94798 81.1239C2.94798 81.1239 17.7984 66.6465 54.487 56.9689C58.066 56.195 52.7504 54.2558 50.2677 53.2563C50.0282 53.1595 50.0973 52.8095 50.3552 52.8048C56.2374 52.7864 62.488 51.8191 67.1725 51.1144C70.8022 50.5708 73.8469 49.0554 77.2371 47.7564C80.3647 46.5588 93.6997 40.9669 111.535 40.9669ZM111.54 39C94.2755 39 81.3505 44.0438 77.0989 45.7021C76.8778 45.7896 76.689 45.8633 76.5231 45.9232C75.7355 46.2272 74.9616 46.5404 74.2154 46.8444C71.7603 47.8439 69.4388 48.7882 66.8685 49.1751L66.3526 49.2534C61.7095 49.949 55.9426 50.8196 50.4473 50.8426C49.5445 50.8472 48.6832 51.3355 48.3285 52.1646C47.8264 53.33 48.4022 54.6289 49.5215 55.0849C49.7103 55.1632 49.9176 55.2461 50.1387 55.3337C50.4335 55.4534 50.8481 55.6146 51.2949 55.8035C16.4765 65.4766 2.16953 79.1386 1.56151 79.7282L0 81.2529L1.67666 82.6486L5.24649 85.6196L5.28333 85.6472L5.32018 85.6748C6.47635 86.55 19.8252 99.148 23.137 103.234L23.4733 103.648C22.9252 104.818 20.5299 111.949 20.0923 113.248C20.0509 113.372 20.0877 113.506 20.1845 113.593L20.9122 114.247L22.4415 115.615C26.3061 119.084 38.2731 127.776 38.7798 128.144L38.7936 128.153L38.8074 128.163L38.9548 128.264C38.9502 130.908 39.1943 133.557 39.678 136.145L39.8899 137.265L40.0142 137.919L40.5071 138.365L41.3547 139.13C51.4561 148.227 67.9003 155.243 72.4328 155.897L74.1924 156.15L75.1597 156.629L75.2196 156.657L75.2795 156.68C83.5292 160.111 92.9858 161.926 102.636 161.926C103.889 161.926 105.165 161.894 106.422 161.834C109.149 161.705 111.48 161.037 113.539 160.452C114.538 160.167 115.483 159.899 116.321 159.738L125.073 158.071L125.976 157.9C127.5 157.61 127.809 155.56 126.436 154.833L125.625 154.404C125.497 154.335 112.627 147.366 110.397 136.306C109.246 130.595 111.144 124.653 116.031 118.646C116.362 118.241 117.357 117.707 118.154 117.278C118.435 117.126 118.712 116.979 118.979 116.827C122.535 114.832 126.381 112.796 130.384 111.433C132.318 110.774 134.327 110.406 136.455 110.019C137.45 109.834 138.481 109.65 139.509 109.425C140.121 109.291 140.72 109.153 141.319 109.019C142.295 108.793 143.221 108.582 144.175 108.402C145.428 108.162 149.67 107.909 150.955 107.909C150.978 107.909 151.001 107.909 151.024 107.909C152.374 108.13 153.972 108.259 155.432 108.259C157.127 108.259 158.555 108.093 159.675 107.771C160.987 107.389 162.687 106.808 164.249 105.726C164.668 105.436 165.059 105.132 165.442 104.841C166.114 104.325 166.75 103.842 167.422 103.482C167.726 103.321 168.026 103.16 168.321 102.999C170.462 101.833 172.314 100.829 175.032 100.682C175.193 100.673 175.35 100.668 175.511 100.668C176.879 100.668 178.21 100.977 179.334 101.281C180.863 101.695 181.757 101.893 183.346 101.898C185.539 102.607 185.202 106.619 185.202 106.619C185.202 106.619 187.363 106.79 189.891 104.883C191.324 103.8 192.632 102.704 193.392 101.949C195.433 99.9127 196.98 97.757 198.132 95.3479C199.818 91.8195 200.366 88.4524 199.763 85.334C199.21 82.4643 197.948 79.0373 196.699 76.9967C194.3 73.0768 190.771 68.3232 184.746 66.3287C180.564 64.9468 176.137 64.1638 171.218 63.9427C171.153 63.9381 171.084 63.9381 171.02 63.9335C171.554 63.2702 171.992 62.3674 171.895 61.1007C171.743 59.1292 169.435 58.5027 166.989 57.8441C166.865 57.8118 156.105 54.9836 152.434 53.4405C148.325 51.5842 144.442 49.4884 140.563 47.0333C140.02 46.6878 139.476 46.3377 138.924 45.9784C135.524 43.772 131.669 41.2755 127.012 40.4049C121.982 39.479 116.772 39 111.54 39Z" fill="#EBA900"/>
<path fill-rule="evenodd" clip-rule="evenodd" d="M163.627 62.1644C163.71 62.4914 163.106 62.8461 162.784 63.2054C161.835 64.2464 160.794 65.7434 159.896 66.6232C159.702 65.6974 159.154 64.9143 158.555 64.3201C156.059 61.8328 151.904 60.4417 148.122 59.4191C148.058 60.0087 148.753 60.2021 149.108 60.4601C150.296 61.3122 151.457 62.2888 152.632 63.2837C153.337 63.8779 154.06 64.4583 154.82 65.3657C155.087 65.6836 156.75 67.1898 156.372 68.1156C156.234 68.4565 155.064 68.696 154.608 68.6361C153.723 68.5164 152.392 67.0884 151.646 66.4804C150.633 65.6559 149.601 64.9604 148.753 64.251C147.809 63.4587 146.957 62.5974 146.003 61.8742C143.166 59.7231 139.776 57.899 135.994 56.7475C132.392 55.6466 127.726 54.647 123.373 55.6328C123.548 56.1855 124.216 56.2776 124.644 56.4481C127.887 57.7609 131.277 59.3822 134.585 60.7595C130.734 60.4923 126.805 60.8747 124.082 62.321C123.797 62.473 123.226 62.6388 123.235 63.0626C123.442 63.4864 124.055 63.2745 124.363 63.2837C127.104 63.385 130.13 63.818 133.106 63.8042C131.604 71.1419 135.953 75.9048 142.692 75.3935C144.87 75.2276 146.326 74.3847 147.768 73.3115C148.836 74.1452 149.633 75.2599 150.872 75.914C148.122 78.6362 145.299 80.9762 141.987 83.3438C141.084 83.9887 139.628 85.2416 138.606 85.3475C137.68 85.4442 136.814 85.0343 135.999 85.0527C132.452 85.1172 129.338 86.8399 128.246 89.9537C126.998 91.4692 125.064 93.2103 124.58 95.601C124.124 97.8672 124.635 100.608 126.556 101.322C128.398 102.008 131.793 101.28 133.889 100.949C134.695 100.824 135.487 100.437 136.077 100.428C137.159 100.41 138.445 101.133 139.463 101.543C140.605 102.004 141.577 102.635 142.494 102.952C136.441 103.63 130.522 103.855 125.713 105.776C120.955 107.674 116.634 110.018 112.673 112.533C108.638 115.094 104.971 117.978 101.673 121.451C98.4488 124.85 95.358 128.835 94.4829 134.229C95.054 134.418 95.5469 133.745 95.8924 133.409C98.7805 130.636 101.71 127.19 104.773 124.791C103.774 127.66 103.087 130.733 103.221 134.302C103.345 137.564 104.391 140.659 105.478 142.994C107.776 147.946 111.024 151.953 115.34 154.51C112.433 155.063 109.536 156.357 106.183 156.514C94.9389 157.053 85.0724 154.975 77.3477 151.76C75.2933 147.476 73.824 142.52 73.824 136.232C73.824 134.04 74.4642 131.626 75.0907 129.471C79.1349 115.569 88.656 107.222 98.7759 99.7512C99.0983 99.5116 99.5543 99.2813 99.6925 98.8576C94.5566 99.3781 90.13 101.732 86.5095 104.431C79.4067 109.728 73.9529 117.319 70.8576 127.163C69.6692 130.94 66.2744 144.832 73.2113 150.613C70.1021 150.162 54.4916 143.759 44.9429 135.159C39.2358 104.721 73.8194 81.3263 73.6766 81.0269C64.699 83.2563 58.2089 88.7054 52.6676 94.5507C47.8357 99.6452 39.3694 116.288 39.6965 122.262C34.929 118.941 30.2952 115.477 26.0206 111.635C26.2509 110.755 30.9999 101.018 33.28 97.5218C39.807 87.517 48.3792 78.9403 58.8031 72.7817C60.2172 71.948 62.0366 71.0913 63.81 70.2575C64.3582 69.9996 65.2472 69.6771 65.1504 69.2902C65.0537 68.9033 64.4457 69.1428 63.7409 69.2902C59.8809 70.0963 56.6796 71.188 53.5888 72.708C50.148 74.3985 47.071 76.7201 44.2843 79.0232C38.4528 83.8367 31.3822 93.4268 27.2965 99.8617C23.7129 95.4443 9.94027 82.3949 8.4801 81.3539C8.65053 80.9532 40.3091 61.1188 58.1029 59.9304C59.7566 59.8198 62.442 59.1243 61.6958 56.66C61.249 55.1906 59.6921 54.7991 57.3475 54.4674C57.3383 54.4674 57.3337 54.449 57.3475 54.449C63.4968 54.5641 69.2684 54.7207 74.0358 53.1638C77.5228 52.0261 80.5859 50.4508 83.9761 49.1518C87.9466 47.6318 92.7601 46.6 97.5828 45.734C101.051 45.1122 104.621 44.5871 108.509 44.3936C114.465 44.1034 120.374 44.822 125.004 46.1025C129.785 47.4245 133.751 49.723 137.551 51.8234C145.57 56.273 153.263 60.6259 163.627 62.1644Z" fill="#E1E2EB"/>
<path fill-rule="evenodd" clip-rule="evenodd" d="M163.626 62.174C163.626 62.1693 163.622 62.1647 163.617 62.1647C153.258 60.6263 145.57 56.2734 137.541 51.8376C133.741 49.7372 129.775 47.4387 124.994 46.1167C120.365 44.8361 114.45 44.1176 108.499 44.4078C104.611 44.6012 101.037 45.1263 97.573 45.7482C92.7503 46.6141 87.9414 47.6413 83.9663 49.166C80.5761 50.4649 77.5129 52.0403 74.026 53.178C69.254 54.7349 63.3903 54.5599 57.2363 54.4447C57.2225 54.4447 57.2225 54.4631 57.2363 54.4677C60.0554 54.979 61.2714 55.1863 61.686 56.6741C62.0084 57.8303 61.6353 58.5028 61.0549 59.0003C61.0503 59.0049 61.0503 59.0141 61.0595 59.0187C61.8518 59.2352 62.4874 59.4333 63.2797 59.4425C63.2889 59.4425 63.2935 59.4563 63.2843 59.4609C48.1022 65.0667 34.0578 72.2662 20.0135 79.8664C20.0089 79.8711 20.0043 79.8757 20.0089 79.8803C22.2889 82.6855 24.1867 88.6828 26.0845 87.8813C42.7866 76.6789 59.4888 65.882 78.4618 61.0639C78.4756 61.0592 78.4802 61.0777 78.471 61.0823C73.98 63.6065 69.4152 66.2459 64.9978 69.1201C65.0761 69.1524 65.1268 69.2077 65.1498 69.2998C65.2466 69.6867 64.3576 70.0091 63.8094 70.2671C63.2106 70.5481 62.6118 70.8336 62.0176 71.1146C50.8337 78.83 40.981 88.3465 36.3517 101.898C35.214 105.495 39.5439 109.954 41.8285 113.561C41.8331 113.57 41.8424 113.566 41.847 113.561C50.6725 91.5662 64.6662 83.2935 73.6437 81.0502C73.6529 81.0456 73.6667 81.0595 73.6575 81.0641C73.3489 81.3589 72.0776 82.4551 71.4373 83.0171C79.6456 77.789 89.0838 74.4127 98.2179 72.28C98.2317 72.2754 98.2363 72.2938 98.2225 72.2984C76.5871 82.3262 56.117 102.336 54.2193 127.135C53.837 130.738 60.6634 135.537 64.8458 139.139C64.8504 139.144 64.8596 139.139 64.8642 139.13C66.3889 123.916 75.5092 111.106 85.3896 100.295C92.2206 92.6948 100.949 86.6929 110.811 85.0807C110.821 85.0807 110.83 85.0945 110.821 85.0991C105.546 88.9085 101.088 93.7358 97.4395 99.2034C97.4348 99.2126 97.4394 99.2218 97.4487 99.2172C98.181 99.0606 98.9319 98.9408 99.6965 98.8625C99.5583 99.2863 99.1023 99.5166 98.7799 99.7561C97.6974 100.553 96.6241 101.364 95.5647 102.184C95.5647 102.184 95.5647 102.184 95.5601 102.188C90.3274 111.041 87.0616 121.286 85.7673 131.539C84.694 138.573 83.9847 147.274 85.9838 154.589C85.9838 154.593 85.9884 154.593 85.993 154.598C87.3058 154.925 88.6554 155.215 90.0419 155.468C90.0511 155.468 90.0557 155.464 90.0557 155.455C88.637 146.979 90.7374 137.905 95.3851 130.797C96.3524 128.167 97.8448 125.901 99.5168 123.87C99.5168 123.87 99.5168 123.87 99.5168 123.865C100.346 120.853 101.507 117.983 102.87 115.113C105.15 110.705 108.19 106.302 110.47 101.493C111.207 100.327 112.658 99.1619 114.132 98.365C114.146 98.3604 114.132 98.3466 114.123 98.3512C111.166 99.512 108.573 100.323 106.343 102.64C106.334 102.649 106.32 102.64 106.325 102.63C113.557 89.4474 127.596 80.2672 142.778 80.2672C144.299 79.8664 147.707 79.4657 147.339 76.2736C147.339 76.269 147.329 76.2644 147.325 76.2644C140.867 78.2635 133.271 78.6596 128.333 73.0585C128.333 73.0585 128.333 73.0585 128.333 73.0538C127.956 72.257 127.578 71.0594 128.324 69.8663C128.329 69.8617 128.324 69.8525 128.315 69.8525C123.773 69.8525 119.605 69.0556 115.063 68.6549C115.054 68.6549 115.049 68.6411 115.058 68.6365C117.32 67.4389 119.208 65.8497 121.47 64.2606C121.479 64.256 121.475 64.2421 121.465 64.2421C118.453 63.846 115.067 63.0583 112.055 63.4361C112.041 63.4361 112.041 63.4222 112.05 63.4176C118.163 60.594 124.741 59.097 131.286 59.3503C131.295 59.3503 131.3 59.3365 131.291 59.3319C129.057 58.3416 126.818 57.3282 124.648 56.4484C124.225 56.278 123.552 56.1859 123.377 55.6331C127.725 54.6474 132.391 55.6469 135.998 56.7478C139.78 57.8994 143.17 59.7234 146.007 61.8745C146.961 62.5977 147.813 63.4591 148.757 64.2514C149.6 64.9607 150.637 65.6563 151.65 66.4808C152.396 67.0888 153.727 68.5167 154.612 68.6365C155.068 68.6964 156.238 68.4568 156.376 68.116C156.754 67.1901 155.091 65.6839 154.824 65.3661C154.068 64.4632 153.341 63.8829 152.636 63.2841C151.461 62.2891 150.3 61.3126 149.112 60.4604C148.753 60.2025 148.057 60.009 148.126 59.4194C151.908 60.442 156.067 61.8331 158.559 64.3205C159.154 64.9147 159.697 65.6885 159.895 66.6051C159.895 66.6143 159.904 66.619 159.914 66.6097C160.807 65.7253 161.848 64.2421 162.793 63.2057C163.101 62.8465 163.695 62.4964 163.626 62.174Z" fill="white"/>
<path fill-rule="evenodd" clip-rule="evenodd" d="M105.463 142.995C104.376 140.659 103.331 137.564 103.206 134.303C103.073 130.738 103.754 127.665 104.759 124.791C103.068 126.113 101.424 127.753 99.8023 129.425C97.3287 138.255 95.7396 147.666 97.5636 156.417C100.327 156.615 103.197 156.657 106.168 156.519C109.521 156.357 112.566 155.141 115.473 154.589C111.677 151.18 107.762 147.942 105.463 142.995Z" fill="white"/>
<path fill-rule="evenodd" clip-rule="evenodd" d="M135.639 64.021C136.777 64.0348 137.739 64.2329 138.739 64.3895C138.974 65.3153 138.725 65.7299 138.808 66.5452C139.034 68.6917 141.949 71.2942 144.308 69.8893C144.994 69.4794 145.938 68.5489 145.436 67.2868C146.376 68.056 147.394 68.7424 148.467 69.3688C148.421 69.765 147.933 69.7465 147.693 69.963C147.56 70.0828 147.555 70.2901 147.412 70.4098C146.464 71.1699 145.04 71.9667 143.746 72.1187C142.705 72.2431 141.544 71.8239 140.572 71.4508C139.697 71.1146 138.564 70.7783 137.965 70.2624C137.302 69.6913 136.85 68.5627 136.482 67.5862C136.049 66.4208 135.883 65.0896 135.639 64.021Z" fill="white"/>
<path fill-rule="evenodd" clip-rule="evenodd" d="M144.663 66.6236C143.82 66.6743 143.553 67.333 142.903 67.5863C142.198 66.9184 141.894 65.8267 141.563 64.7627C142.894 64.7903 143.668 65.9972 144.663 66.6236Z" fill="white"/>
<path fill-rule="evenodd" clip-rule="evenodd" d="M137.984 91.7048C138.813 91.2718 139.974 91.1843 141.144 91.1152C139.362 90.9724 136.8 90.3552 135.032 91.1889C133.848 91.7462 133.263 92.8471 132.434 93.6256C133.148 93.4413 133.797 93.1926 134.401 92.8886C139.15 94.9614 144.737 96.6058 151.052 95.6938C153.77 95.3022 156.382 94.4225 158.924 93.6256C161.517 92.8149 164.037 91.7232 166.934 91.7048C168.27 91.6956 169.67 91.9765 171.011 92.2944C174.917 93.2248 178.316 94.2889 181.2 96.2097C179.178 95.8135 177.151 95.141 174.383 95.3207C170.315 95.5878 166.985 97.656 163.775 99.1623C161.775 100.102 160.334 101.557 157.593 101.746C153.507 102.027 149.693 101.078 146.561 99.9729C145.46 99.586 144.286 99.3465 143.258 98.9365C138.583 97.0895 133.779 97.6146 127.938 98.1996C128.021 97.5547 127.98 97.0895 128.219 96.4999C128.463 95.8964 129.057 95.5464 129.205 95.095C129.338 94.6758 129.237 94.1783 129.348 93.7638C130.025 91.2165 132.756 88.0797 135.322 87.7803C136.391 87.6559 137.878 87.8356 139.256 87.9277C140.665 88.0244 141.844 88.2455 143.051 88.6647C150.329 84.0492 155.856 77.6005 160.619 70.3411C161.946 69.5857 161.858 69.6272 162.517 69.3047C194.037 64.7538 193.379 86.2602 193.434 87.3335C193.701 92.755 190.053 94.966 188.515 98.7108C188.164 98.1811 187.731 97.2737 187.672 97.1586C186.902 95.6707 184.995 94.4178 183.383 93.3907C181.66 92.2944 179.763 91.3731 178.114 90.6592C176.11 89.7932 174.18 89.4293 171.932 88.8858C169.749 88.3561 167.436 88.0152 164.977 88.2962C160.909 88.7614 156.722 90.5993 152.471 91.6219C148.15 92.6629 142.406 92.2529 137.984 91.7048ZM170.942 75.5231C171.02 75.0994 170.693 74.367 170.449 74.1182C169.822 73.4826 167.238 72.8746 166.091 73.1555C165.225 73.3674 164.332 74.1919 163.42 74.8552C162.503 75.5277 161.619 76.145 160.748 76.9234C159.445 78.0934 158.394 79.3463 157.376 80.6913C157.04 81.1335 156.483 81.5389 156.534 82.0962C159.882 81.4744 162.535 79.9681 165.037 78.1809C165.732 77.6834 166.842 76.5549 167.496 76.4075C167.828 76.3338 168.233 76.4674 168.482 76.4075C168.588 76.4306 168.404 76.7161 168.625 76.776C169.325 76.2048 170.758 76.495 170.942 75.5231Z" fill="#EBA900"/>
</svg>
