<?xml version="1.0" encoding="UTF-8"?>
<svg width="200px" height="200px" viewBox="0 0 200 200" version="1.1" xmlns="http://www.w3.org/2000/svg" xmlns:xlink="http://www.w3.org/1999/xlink">
    <!-- Generator: Sketch 54.1 (76490) - https://sketchapp.com -->
    <title>st-thomas-aquinas</title>
    <desc>Created with Sketch.</desc>
    <g id="st-thomas-aquinas" stroke="none" stroke-width="1" fill="none" fill-rule="evenodd">
        <g id="st-thomas-aquinas_BGL">
            <g id="st-thomas-aquinas">
                <g id="g10" transform="translate(99.401055, 100.391016) scale(-1, 1) rotate(-180.000000) translate(-99.401055, -100.391016) translate(0.000000, 0.584242)" fill-rule="nonzero">
                    <g id="g12" transform="translate(0.000000, 0.730293)">
                        <path d="M5.04707439,67.6728877 C6.10225919,63.8601066 7.40150807,60.1265218 8.86178666,56.9619168 C10.2415545,53.7966626 11.7008431,51.2007128 13.16143,48.9280395 C14.6223415,46.6576383 16.0835776,44.5469279 17.706452,42.6004523 L40.6691507,66.1321308 C29.4722912,66.6991631 18.3559263,67.2665199 12.5122803,67.5106002 C6.66994876,67.834526 6.10225919,67.7550051 5.77736786,67.7550051 C5.20967829,67.7550051 5.29082201,67.7550051 5.04707439,67.6722385 L5.04707439,67.6728877 Z M1.39560705,102.15913 C0.584171483,99.2371451 0.178452889,96.235639 0.0164823179,93.0718454 C-0.145170981,86.823779 0.910010577,80.0878766 2.45079185,73.4350654 L31.5008842,89.7441415 L1.39560705,102.15913 Z M8.94228123,133.562561 C7.23890418,129.991426 5.7786337,126.259626 4.80459261,122.849967 C3.75004073,119.442743 3.18108532,116.359281 2.77599965,113.519251 C2.37028105,110.597266 2.20704423,107.921146 2.12716636,105.162259 L34.1789515,113.601206 L8.94228123,133.562561 Z M42.2112059,134.455142 L25.9019676,160.906371 C25.3329878,160.987515 25.0905304,160.745707 24.6036681,160.258844 C24.3595878,160.094934 24.1168058,159.770359 23.7110872,159.364641 C23.3053686,158.87859 22.8188309,158.311395 22.0882128,157.175383 C21.2767756,156.118892 20.2219073,154.579596 18.2738089,151.169937 C16.2452159,147.682379 13.3246912,142.244127 10.484661,136.727977 L42.2112059,134.455142 Z M56.8991927,149.871637 L47.8107716,182.815175 C47.5676651,182.734843 47.4050531,182.654511 47.079829,182.490601 C46.7562279,182.329125 46.3505093,182.084882 45.4569547,181.518499 C44.6455175,180.867726 43.4283617,179.975145 40.3445758,176.81054 C37.2614391,173.647558 32.3123214,168.29045 27.5241928,162.854632 L56.8991927,149.871637 Z M72.8841807,163.340683 L76.0487858,196.123557 C74.6686934,195.79817 73.371043,195.473596 71.5849075,194.907212 C69.8000703,194.25644 67.4478762,193.445003 63.7142914,191.740984 C59.9823295,189.957446 54.7884823,187.359224 49.7582209,184.519193 L72.8841807,163.340683 Z M115.078833,168.048641 L135.12052,193.689245 C133.98532,194.175296 132.768164,194.662158 131.063334,195.150644 C129.360128,195.637506 127.088104,196.203889 122.867819,196.690751 C118.730301,197.26038 112.644522,197.665287 106.558743,197.907907 L115.078833,168.048641 Z M136.988449,162.287437 L162.223334,180.867726 C161.411897,181.76193 160.520127,182.490601 159.139873,183.465948 C157.760429,184.43805 155.812169,185.575685 151.91727,187.197748 C147.942851,188.74029 142.017736,190.768883 135.931958,192.472089 L136.988449,162.287437 Z M153.865531,151.088793 L184.537857,160.014602 C183.401033,161.881719 182.183877,163.585737 180.642958,165.533186 C179.101227,167.479013 177.15459,169.590372 174.394892,172.024684 C171.554862,174.458995 167.741107,177.216259 163.846208,179.65057 L153.865531,151.088793 Z M91.7086309,168.940411 L105.908782,198.15215 C104.773581,198.396392 103.47447,198.638201 101.69012,198.719344 C99.9049579,198.883255 97.5509786,198.963587 93.4134604,198.638201 C89.193987,198.232482 83.1082081,197.421045 77.103005,196.367799 L91.7086309,168.940411 Z M198.657675,134.615806 C198.657675,135.266579 198.494576,135.915729 198.16919,137.050118 C197.764283,138.18613 197.195465,139.729484 195.166872,143.541616 C193.057136,147.275849 189.486812,153.197718 185.754201,158.958922 L167.172289,134.615806 L198.657675,134.615806 L198.657675,134.615806 Z" id="path14" fill="#67130B"></path>
                        <path d="M23.142432,19.3105822 L60.3069043,61.7493962 C60.3069043,61.7493962 44.8895978,118.145254 90.4111428,139.48443 C90.4111428,139.48443 109.642204,146.870131 133.497646,137.050118 C133.497646,137.050118 119.459783,147.923376 92.8454544,143.705526 C92.8454544,143.705526 68.3391588,138.105798 57.7904753,116.359281 C57.7904753,116.359281 51.137015,106.54008 51.137015,90.4752464 L43.8340803,71.8923611 L18.5990329,74.0020977 L38.5597386,89.0941803 L38.5597386,93.2333214 L22.7367134,100.941163 L40.2647304,109.705496 L40.9940501,113.276631 L27.687454,127.637447 L48.3791023,129.341465 L49.433646,131.775776 L39.6152561,147.923376 L59.9011857,145.16449 L62.7412159,147.193083 L59.2513868,165.127468 L76.3736852,156.363135 L78.1585224,157.013096 L78.1585224,174.540139 L91.790586,160.176078 L95.279766,160.906371 L103.394138,178.110463 L111.751941,161.962863 L114.591971,161.231758 L126.844673,174.945858 L131.388721,157.418814 L132.849308,156.363135 L151.349264,167.237204 L148.591189,147.923376 L150.295207,145.16449 L169.282837,150.357688 L159.463636,133.562561 L146.806027,128.288219 C146.806027,128.288219 172.041724,100.293636 188.189324,61.7493962 C188.189324,61.7493962 173.826886,76.4364093 166.118232,84.8755183 C166.118232,84.8755183 160.114409,93.9628034 140.152242,95.7495881 C140.152242,95.7495881 126.520098,95.7495881 120.190888,93.2333214 C120.190888,93.2333214 125.465229,85.5246681 139.503093,84.1452249 L158.409579,84.1452249 L191.35474,0.0801928117 L103.394138,43.4920595 C103.394138,43.4920595 89.0316996,54.3662915 74.6693425,43.1684584 L23.142432,19.3105822" id="path16" fill="#EDC038"></path>
                        <polygon id="path18" fill="#EDC038" points="16.8128974 59.2349147 36.450651 65.2385761 17.5444891 45.2765722"></polygon>
                        <polygon id="path20" fill="#EDC038" points="8.05034136 90.0695278 2.77599965 76.4364093 27.3625545 89.420378"></polygon>
                        <polygon id="path22" fill="#EDC038" points="3.82991861 108.650628 12.2701474 120.579566 28.7419977 114.654452"></polygon>
                        <polygon id="path24" fill="#EDC038" points="12.9189726 138.431184 23.467656 146.545556 38.8849626 135.996873"></polygon>
                        <polygon id="path26" fill="#EDC038" points="30.4453667 164.071788 43.1047605 168.940411 54.626844 153.197718"></polygon>
                        <polygon id="path28" fill="#EDC038" points="52.5982511 185.088822 65.9048472 185.088822 71.0993435 166.831486"></polygon>
                        <polygon id="path30" fill="#EDC038" points="79.4568219 196.367799 93.7372239 191.499176 91.22258 173.077929"></polygon>
                        <path d="M108.66848,197.015326 C110.047923,197.015326 121.244945,189.306673 121.244945,189.306673 L115.646028,171.781253 L108.66848,197.015326" id="path32" fill="#EDC038"></path>
                        <path d="M138.042506,191.010691 C139.097374,190.363164 147.537132,179.814481 147.537132,179.814481 L138.042506,165.774994 L138.042506,191.010691" id="path34" fill="#EDC038"></path>
                        <polygon id="path36" fill="#EDC038" points="156.299842 153.523104 165.38875 177.704744 170.663092 165.127468"></polygon>
                        <path d="M170.663092,136.402591 C170.663092,136.402591 185.754201,157.013096 186.080399,155.957416 C186.403351,154.901736 187.458219,142.649035 187.458219,142.649035 L170.663092,136.402591" id="path38" fill="#EDC038"></path>
                        <path d="M79.5373165,54.3662915 C85.461376,56.1504796 91.6282986,57.1242043 97.4706464,55.419537 C98.5255147,55.0956113 99.5795716,54.6080998 100.554108,54.0407429 L179.101227,14.7681568 L153.865531,78.8716946 C151.025501,78.546146 148.103515,78.465976 145.102821,78.465976 C142.017736,78.546146 138.771988,78.7895771 135.040188,79.5218181 C131.388721,80.2501641 127.331535,81.4674822 123.354681,83.0903565 C122.381768,83.5788417 121.408043,84.0640812 120.514651,84.5517549 C119.622882,85.0369943 118.810633,85.6074347 117.999196,86.1746293 C117.187759,86.6598687 116.457465,87.3098299 115.808315,87.8770245 C113.374004,89.9875726 111.994561,92.0161656 110.939692,94.1275251 C110.047111,95.9118755 109.641393,98.0199893 109.641393,100.293636 L118.810633,98.5076631 L127.168436,99.5633429 C127.574155,99.7248189 127.898729,99.8879177 128.547879,100.048582 C129.116697,100.130537 129.928134,100.293636 131.387909,100.37478 C132.931263,100.454301 135.12052,100.536256 140.476817,100.130537 C145.914258,99.6428637 154.434348,98.6699505 162.954439,97.4527947 C161.979903,99.4821991 160.843079,101.347693 158.976774,103.86396 C157.191612,106.379415 154.676968,109.462065 149.482959,114.168401 C144.370904,118.875548 136.663062,125.203135 128.629023,131.128249 C125.95128,131.858543 123.354681,132.50607 120.758894,132.992932 C113.455959,134.45433 106.396455,135.021525 99.2558082,134.048612 C94.7929036,133.398651 90.4103314,132.425738 85.9474269,130.071758 C83.7565465,128.854602 81.5656661,127.312872 79.5373165,125.528521 C78.239017,124.635941 77.103005,123.661404 75.9666683,122.527015 C74.8306563,121.390192 73.6946442,120.173036 72.6401004,118.792781 C71.5849075,117.333006 70.6115075,115.791275 69.7189266,113.924158 C68.7448774,112.059476 67.8522964,109.949739 67.0408593,107.432661 C66.3099166,104.917205 65.5802723,101.996843 65.0122663,98.3453756 C64.4436111,94.6127646 63.9573979,90.2310038 64.1999365,83.9837489 C64.4436111,77.6535651 65.4170923,69.4580495 66.9590664,61.3430285 L49.7572472,40.3274545 L79.5373165,54.3662915 Z M43.4283617,82.2789193 L47.4050531,90.9612972 C47.7296279,95.9913964 48.5410651,101.02393 49.596258,105.162259 C50.7312964,109.299778 52.110415,112.625859 53.5713265,115.547033 C55.0325626,118.469829 56.5733195,121.065617 58.1961939,123.338452 C59.7392229,125.689997 61.4419427,127.71859 63.2274291,129.586519 C65.0135646,131.533968 66.7984018,133.237986 68.7458511,134.860049 C70.6936249,136.482923 72.6407496,137.944322 74.7508108,139.322954 C79.3756782,141.918741 84.2442202,144.111244 88.4636936,145.570209 C92.7643107,146.951275 96.3346343,147.598801 99.580383,147.923376 C102.908087,148.329095 105.909593,148.410239 108.749623,148.329095 C111.589653,148.248763 114.186252,147.923376 116.782851,147.437325 C119.297495,146.951275 121.651475,146.300502 124.004642,145.489065 C128.548691,144.030101 132.931263,141.918741 137.231069,139.24181 C139.340805,137.861555 141.451353,136.402591 143.479946,134.860049 L152.080369,137.214028 C147.374033,141.431879 142.180835,145.247257 137.555643,147.923376 C132.931263,150.683074 128.874077,152.305949 125.060322,153.523104 C121.245756,154.74026 117.757387,155.551697 114.429684,156.118892 C111.102791,156.687709 107.938186,156.930329 104.773581,156.930329 C95.847772,157.013096 87.2465378,155.307455 78.4830973,151.90023 C72.8841807,148.734814 67.5286953,145.083346 63.4715094,141.757265 C59.4143234,138.511516 56.7365807,135.509199 54.4648812,132.831456 C52.2736762,130.071758 50.4885144,127.557114 49.1090711,125.122803 C47.6484842,122.768824 46.5936159,120.415656 45.701035,118.225587 C43.9161977,113.762682 42.9421485,109.624353 42.5364299,105.404068 C42.2112059,100.453489 42.1307113,95.4233903 42.1307113,92.0153541 C42.2112059,88.6081294 42.4552862,86.8229676 42.6990419,85.4419015 C42.9421485,84.0632697 43.1855797,83.1715002 43.4283617,82.2781079 L43.4283617,82.2789193 Z M26.1453988,76.1929781 L39.4532932,75.2997481 L37.0998008,82.2789193 L26.1453988,76.1929781 Z M27.524842,100.941975 L37.8304188,97.2085521 L38.3169566,104.675397 L27.524842,100.941975 Z M42.2933234,117.819868 L45.7821787,125.528521 L33.3675143,125.772764 L42.2933234,117.819868 Z M51.0565204,136.238681 L56.655437,142.32446 L44.7276349,145.16449 L51.0565204,136.238681 Z M81.3222349,158.798258 L87.5711127,160.581796 L80.9164352,167.237204 L81.3222349,158.798258 Z M66.2307204,150.763406 L72.5596059,154.254209 L62.3354973,160.581796 L65.1755275,151.088793 L66.2307204,150.763406 Z M107.613611,161.962863 L102.988419,172.105827 C102.013883,169.590372 101.040159,167.073294 100.391009,165.533186 C99.8230028,164.071788 99.5795716,163.585737 99.4172842,163.261162 C99.3361405,162.934964 99.2558082,162.7743 99.173853,162.610389 L107.613611,161.962863 Z M127.169247,158.066341 L125.465229,169.671516 L118.080339,161.232569 L127.169247,158.066341 Z M137.717119,156.363946 L146.156878,151.089604 L146.806027,161.232569 L137.717119,156.363946 Z M158.734154,138.836903 L163.683921,146.545556 L154.514681,143.705526 L158.734154,138.836903 L158.734154,138.836903 Z" id="path40" fill="#67130B"></path>
                    </g>
                </g>
            </g>
        </g>
    </g>
</svg>