<?xml version="1.0" encoding="UTF-8"?>
<svg width="200px" height="200px" viewBox="0 0 200 200" version="1.1" xmlns="http://www.w3.org/2000/svg" xmlns:xlink="http://www.w3.org/1999/xlink">
    <!-- Generator: Sketch 54.1 (76490) - https://sketchapp.com -->
    <title>st-olaf</title>
    <desc>Created with Sketch.</desc>
    <g id="st-olaf" stroke="none" stroke-width="1" fill="none" fill-rule="evenodd">
        <g id="st-olaf_BGL" transform="translate(-0.000000, 0.000000)">
            <g id="st-olaf" transform="translate(14.000000, 0.000000)">
                <g id="g10" transform="translate(85.999998, 100.133271) scale(-1, 1) rotate(-180.000000) translate(-85.999998, -100.133271) translate(0.000000, 0.599707)" fill-rule="nonzero">
                    <g id="g12">
                        <path d="M164.579899,178.900545 C139.423861,186.176074 112.805408,190.079122 85.2588191,190.079122 C57.5310073,190.079122 30.744293,186.125266 5.44608489,178.758116 L5.44511271,137.381306 C5.44511271,78.7357135 47.0614423,32.7138089 84.8242491,8.0233298 C124.627707,32.9685149 164.551648,78.6075276 164.551648,137.381306 L164.579899,178.900545" id="path14" fill="#231F20"></path>
                        <path d="M85.8296597,198.415787 C58.6485087,198.415787 31.7732185,194.531063 5.95112507,186.869894 L0,185.104943 L0,178.883887 L0,137.940193 C0,109.707643 8.82426451,82.3611507 26.228753,56.6601685 C43.8731274,30.6031976 65.6489916,13.0976175 80.8090047,2.99947519 L85.3119979,0 L89.872075,2.9103281 C105.45677,12.8620686 127.761098,30.2775271 145.518644,56.7359639 C162.529194,82.0822901 171.154952,109.403629 171.154952,137.940193 L171.181542,179.018819 L171.185696,185.256534 L165.215551,187.015654 C139.546006,194.580205 112.835321,198.415787 85.8296597,198.415787 M85.8296597,190.086619 C112.586045,190.086619 138.441716,186.224383 162.872363,179.02465 L162.845774,137.940193 C162.845774,79.7811075 124.067668,34.6200225 85.4083843,9.93678136 C48.7290944,34.366899 8.30917854,79.9082939 8.30917854,137.940193 L8.30917854,178.883054 C32.8809982,186.173575 58.8994459,190.086619 85.8296597,190.086619" id="path16" fill="#CB831A"></path>
                        <path d="M37.7590677,144.301179 L34.153632,140.133263 L24.3913443,137.716138 L20.747271,140.136595 L20.747271,146.470928 C20.747271,146.470928 23.6467588,147.275525 26.3985095,147.968512 L26.3985095,144.255369 C26.3985095,144.255369 29.3742756,145.039976 32.1081615,145.635512 L32.1081615,153.706476 C28.542693,152.944357 24.3913443,151.876558 24.3913443,151.876558 L20.747271,154.801762 L20.747271,165.809591 L24.3913443,170.021652 C24.3913443,170.021652 29.4047703,171.224384 34.153632,172.112273 L37.7590677,169.531064 L37.7590677,163.77894 C35.1806465,163.315838 32.1081615,162.644507 32.1081615,162.644507 L32.1081615,165.845406 C29.3476031,165.279856 26.3985095,164.577707 26.3985095,164.577707 L26.3985095,157.952686 C26.3985095,157.952686 30.4985905,158.961349 34.153632,159.69848 L37.7590677,156.778274 L37.7590677,144.301179" id="path18" fill="#CB831A"></path>
                        <path d="M58.0185068,169.903377 C55.0881919,169.619353 52.2796895,169.239543 52.2796895,169.239543 L52.2796895,143.448272 C49.6713553,143.09345 46.4807969,142.551221 46.4807969,142.551221 L46.4807969,168.434112 C46.4807969,168.434112 43.7127603,168.031813 40.7412318,167.502911 L40.7412318,173.356651 C40.7412318,173.356651 49.3802017,174.850071 58.0185068,175.686319 L58.0185068,169.903377" id="path20" fill="#CB831A"></path>
                        <path d="M56.7270111,144.034646 L56.7270111,149.895049 C56.7270111,149.895049 59.6164449,150.245707 62.5064603,150.509741 L62.5064603,144.664331 C62.5064603,144.664331 59.8550014,144.429448 56.7270111,144.034646" id="path22" fill="#CB831A"></path>
                        <path d="M83.5537757,151.547556 L83.5537757,171.296847 C80.2065893,171.289351 76.9582821,171.176074 76.9582821,171.176074 L76.9582821,151.420952 C76.9582821,151.420952 80.2556135,151.547556 83.5537757,151.547556 M89.3527514,149.016321 L85.6260848,145.739627 C80.3390376,145.76628 74.8656986,145.537228 74.8656986,145.537228 L71.1791654,148.638177 L71.1791654,173.476591 L74.8656986,176.856567 C74.8656986,176.856567 79.7515787,177.040642 85.6260848,177.040642 L89.3527514,173.788102 L89.3527514,149.016321" id="path24" fill="#CB831A"></path>
                        <path d="M108.020152,144.563548 C100.796152,145.321502 93.6926353,145.558051 93.6926353,145.558051 L93.6926353,176.890717 C93.6926353,176.890717 96.6008478,176.829081 99.492442,176.625849 L99.492442,151.092783 C99.492442,151.092783 103.775823,150.838744 108.020152,150.411457 L108.020152,144.563548" id="path26" fill="#CB831A"></path>
                        <path d="M122.436577,156.605027 L120.563688,166.635012 L118.689968,157.181405 L122.436577,156.605027 Z M124.987494,142.203894 L123.592383,150.530564 L117.534161,151.452603 L116.13905,143.604861 C113.326393,144.008825 110.241195,144.329498 110.241195,144.329498 L116.498838,175.122434 C116.498838,175.122434 120.563688,174.662664 124.629369,174.000495 L130.88618,141.088619 C130.88618,141.088619 128.133349,141.67999 124.987494,142.203894 L124.987494,142.203894 Z" id="path28" fill="#CB831A"></path>
                        <path d="M149.131475,163.088452 C144.871359,164.226216 139.96562,165.29235 139.96562,165.29235 L139.96562,158.773942 C139.96562,158.773942 144.134335,157.854402 147.856016,156.853236 L147.856016,151.259367 C144.578876,152.162248 139.96562,153.225883 139.96562,153.225883 L139.96562,139.042142 C137.128866,139.738461 134.165813,140.394799 134.165813,140.394799 L134.165813,172.362981 C142.696847,170.69215 149.131475,169.028815 149.131475,169.028815 L149.131475,163.088452" id="path30" fill="#CB831A"></path>
                        <path d="M63.177011,103.409126 C62.7567327,103.609026 62.245469,103.609859 61.790126,103.705645 L60.8809357,103.89555 L61.27504,101.989836 C61.5619559,101.9282 62.3626284,101.792435 63.0296892,102.015656 C63.8582805,102.292185 65.7220293,102.223053 65.7220293,102.223053 L67.1024331,102.292185 C67.1024331,102.292185 64.5827578,102.74196 63.177011,103.409126 M124.91105,121.286854 C124.098412,119.312008 122.694161,117.164748 120.928461,114.769279 C120.490567,114.175409 120.091726,113.638178 119.726123,113.145924 C116.533736,108.838911 115.869002,107.942693 114.262007,103.493251 C112.729794,99.2528711 114.000268,95.6263511 114.61764,92.4645987 C114.668326,92.1988982 114.721504,91.9315319 114.774683,91.6633327 C115.549099,87.7119752 116.350934,83.626518 116.272828,79.8125917 C116.269504,79.6620003 116.261195,79.5152404 116.25621,79.3662316 C116.18392,77.5295666 115.906393,75.9229533 115.404519,74.4745109 C114.79878,72.7259685 113.888925,71.2502064 112.623437,69.9650157 C110.533678,67.8436598 108.636693,66.7176395 104.60591,66.8458254 L104.60591,66.8458254 C104.536113,66.8480743 104.464654,66.8506563 104.393195,66.8533217 L104.384886,66.8539047 C104.174664,66.8607346 103.89963,66.8982159 103.589698,66.9557704 C103.553138,66.9622672 103.517408,66.9690971 103.480017,66.9765934 C103.354548,66.4107929 102.66821,63.3407447 101.369485,60.7505399 C101.369485,60.7479578 101.368654,60.7447095 101.368654,60.7421274 C101.360345,60.7281344 101.352036,60.7131419 101.343727,60.6988157 C100.188751,58.5967002 98.4230507,56.155171 95.7109348,53.7422942 C95.7109348,53.7422942 97.0794565,52.0279847 99.2805579,50.2190559 C99.2805579,50.2190559 101.501601,48.5922027 101.399398,45.9652662 C101.297196,43.3374135 99.2631086,42.2256361 99.2631086,42.2256361 C99.2631086,42.2256361 95.7109348,39.9149582 95.7109348,37.3211718 L95.7109348,35.2180568 C95.7109348,35.2180568 95.5846353,31.3658163 93.1350895,32.3064293 C93.1350895,32.3064293 92.2850605,32.637014 91.2522296,31.9755114 C91.2522296,31.9755114 90.2808866,31.3209221 89.0602683,31.3999659 C88.0556886,31.467682 87.1084423,31.8848068 85.847109,31.4891713 C85.2264133,31.295185 84.5741428,31.2253032 83.9243651,31.257787 C83.0119342,31.3026812 82.1573351,30.6487582 81.1040637,30.6390131 C79.373428,30.6220216 79.7080386,31.9306172 79.6639168,32.8409953 C79.6184656,33.7998492 79.872311,34.7485415 80.3478453,35.5831242 C80.8840366,36.5244036 81.8535516,37.7903539 83.4424327,38.5224045 L85.0112056,39.2993493 C85.542993,39.5618847 86.0207708,39.926036 86.4013312,40.3805587 C86.4910703,40.4882549 86.5708384,40.5956178 86.6290027,40.6905704 C86.6290027,40.6905704 86.8500268,41.0462259 87.3627031,41.2843568 C87.5654471,41.3793926 87.7864712,41.4291177 88.0083263,41.452606 C88.7561524,41.5274019 91.3128866,41.8898873 92.2219107,43.3816414 C93.2904711,45.1365972 92.2019687,46.3817246 91.6361137,46.7692809 C90.2642683,47.7069787 88.1986065,47.9519395 87.4582587,50.3540717 C86.9779882,51.914125 84.9920945,52.6546713 84.9920945,52.6546713 C84.9920945,52.6546713 84.5816211,52.8134253 84.21851,53.2133087 C83.8296404,53.6415112 83.6750897,54.231383 83.7448868,54.8069285 C83.7822781,55.109194 83.7839399,55.543227 83.5629158,55.811926 C83.1948192,56.2592856 81.2264579,58.0068285 82.331911,60.799682 C82.5893293,61.4501067 84.0988578,63.1494237 82.7575071,64.4703465 C82.7575071,64.4703465 81.7912327,65.678076 79.7405275,64.4378628 C79.7405275,64.4378628 77.2600715,62.9910029 78.2166241,58.7349644 C78.2166241,58.7349644 78.9368637,55.9703468 76.2409508,54.5453093 C76.2409508,54.5453093 75.819343,54.2928522 74.8731769,53.3824741 C74.8731769,53.3824741 74.1899131,52.635431 73.0523035,53.4017145 C73.0523035,53.4017145 69.9921992,55.7963504 65.5049104,55.9843398 C65.5049104,55.9843398 65.0164138,56.0429771 63.3799211,55.6414279 C63.3799211,55.6414279 62.3311366,55.3990491 61.7268101,57.5161571 C61.7268101,57.5161571 61.6680642,58.8839732 59.6923908,60.2732785 C59.6923908,60.2732785 59.1944217,60.5023307 58.969243,61.7208047 C58.8692005,62.2605348 58.6806652,62.7827737 58.3833628,63.2450426 C58.2421898,63.4665984 58.0760063,63.6930685 57.8932043,63.8873047 C57.8932043,63.8873047 57.3190401,64.3503232 57.9396527,65.5857055 C57.9396527,65.5857055 59.0383753,68.4267016 58.7861087,69.3237531 C58.7861087,69.3237531 58.7407406,69.6868215 58.1191309,70.1609178 C58.1191309,70.1609178 59.0912217,72.0066615 60.7248062,71.7076444 C60.7248062,71.7076444 61.9131018,71.5625503 63.3023134,69.4620173 C63.7155288,68.8373296 64.0419965,68.159252 64.3062283,67.4597684 C64.5398824,66.8399117 65.0361897,65.8261686 65.9164641,65.3055956 C66.2215771,65.1250192 66.5006824,64.9050459 66.7181336,64.6252691 C67.0096196,64.2504565 67.3355056,63.6823239 67.4451867,62.9285342 C67.4926321,62.6054457 67.5692428,62.286272 67.7019403,61.9888374 C68.100864,61.1002817 69.0538437,59.5893705 70.7234069,60.3197553 C70.7234069,60.3197553 73.4548001,61.7126421 71.1713547,66.8324987 C71.1713547,66.8324987 70.5893799,67.9760936 70.9701064,71.0078276 C70.9701064,71.0078276 71.0989818,72.0473079 71.329146,73.9372795 C71.329146,73.9372795 71.3521625,74.9725952 72.6787228,74.9534381 C72.9695441,74.9481907 73.260033,74.9683473 73.5420465,75.0393118 C74.200632,75.2048957 75.3324252,75.6411775 76.6661314,76.7932681 C76.6661314,76.7932681 80.2247864,80.1148572 85.0436114,79.2851888 C85.0436114,79.2851888 87.5430123,79.007994 89.1898915,77.7394617 C89.2646741,77.6812408 89.3718625,77.6171062 89.4956693,77.5536379 C90.2709156,77.1590019 91.1732924,77.7377958 91.1392248,78.6097765 C91.11679,79.2093933 90.9572538,80.029983 90.4678431,81.0571361 C89.4940074,83.1059449 87.808906,84.7401278 85.7415824,85.6663314 C84.9846162,86.0069944 84.0913795,86.3126748 83.0716772,86.5100761 C83.0716772,86.5100761 78.1461623,87.273028 77.7793952,91.4959164 C77.7793952,91.4959164 77.6765275,93.9780086 76.412286,93.883889 C76.412286,93.883889 75.6041353,93.8614003 75.1818629,92.8718951 C75.1818629,92.8718951 74.8355363,91.9540207 72.784831,92.1605841 C72.582004,92.181407 72.3794262,92.2405441 72.1824156,92.291352 C71.5433567,92.4537708 71.3264871,93.1217701 69.2067326,92.0681303 C69.2067326,92.0681303 69.0356466,91.9840057 68.7565413,91.9465244 C68.4715365,91.9090432 68.1797181,91.9540207 67.9158186,92.0681303 C66.856066,92.52207 65.9164641,92.5187383 64.7998766,92.0489732 C64.4019501,91.8815569 63.9897317,91.7499561 63.5638863,91.6749935 L63.4139888,91.6483402 L64.0205588,88.7164729 L61.6910806,88.2283836 L61.0711328,91.2402109 C58.8718594,91.0286501 58.2713551,91.4467743 58.2713551,91.4467743 C58.2713551,91.4467743 56.65173,92.1897362 56.760414,93.7131411 C56.9393107,96.2177221 56.1564199,97.4371123 56.1564199,97.4371123 C55.760072,98.2841888 55.8730769,98.9954998 55.8730769,98.9954998 C56.037931,100.518905 57.5780372,101.104445 57.5780372,101.104445 L58.9422381,101.570879 L58.4174304,104.120437 L56.8296295,104.320337 C55.840588,104.54106 55.1320643,105.926201 55.1320643,105.926201 C54.4728141,106.96818 55.1476025,108.10178 55.1476025,108.10178 C55.5550015,108.703979 54.6798788,110.778775 54.6798788,110.778775 C54.5429436,111.731631 55.1729455,112.666997 55.1729455,112.666997 L56.3832604,113.991335 L55.0596914,120.413124 C52.0268412,119.349489 50.5918461,115.551388 50.0608896,113.698148 C45.5382037,115.024152 42.5702482,123.763115 46.5151969,130.628849 C47.7868336,129.047973 50.5928432,126.136928 53.8148933,126.457601 L53.5286421,127.84774 C53.3994344,128.444941 53.8148933,129.042142 54.4562788,129.181239 C55.0398324,129.307843 55.5955503,129.011324 55.7909822,128.506577 L56.3011657,126.039477 C57.514472,125.990335 58.4839869,124.991668 58.4839869,123.763115 C58.4839869,122.858568 57.9578498,122.078957 57.1957319,121.709975 L58.6926304,114.476092 C60.021185,114.644342 62.7417762,113.505744 64.20818,113.476592 C65.2267191,113.455769 65.2500679,111.979008 67.2507519,111.405128 C69.2518514,110.832081 70.3729258,111.465098 71.9072156,109.821753 C72.6358475,109.042143 73.9922378,108.569879 74.5904986,108.812258 C75.37206,109.1271 75.837457,108.763116 76.7125797,108.664832 C77.974827,108.523236 79.2569333,111.587537 81.5292443,111.218555 C84.0839013,110.802929 85.371824,111.765781 85.6410413,113.940527 C85.7482297,114.805095 85.837138,115.907044 85.2779302,116.667497 C84.8583167,117.02815 84.3340076,117.274693 83.7548578,117.35382 C83.641853,117.362982 83.5213699,117.371311 83.3934085,117.379641 L82.1914028,117.180573 C82.1602434,117.178075 81.7672192,117.177242 81.7330685,117.178908 C80.3575671,117.248873 79.176085,118.22755 79.0699768,119.652671 C78.9804038,120.863732 80.2257835,122.133097 81.7289139,121.350988 C82.5886646,120.903712 83.3959013,121.047806 84.0207515,121.86823 C81.0258743,123.871395 79.5711033,123.148423 76.3925102,123.256702 C74.016916,123.338328 71.4053412,126.057801 74.4388561,128.813923 C74.548288,128.912207 73.2716658,124.525234 79.1854743,124.26703 C79.1854743,124.26703 82.1443728,124.153753 84.1952443,122.121436 C84.2351283,122.187237 84.2750124,122.255536 84.3140655,122.327167 C84.6622201,122.977675 84.6065486,123.78727 84.157853,124.371978 C83.2895438,125.503079 81.9947245,124.623518 81.1573255,125.597198 C80.3422782,126.545058 80.4493835,128.170078 80.7126183,129.302012 C80.8937584,130.077458 81.2484772,131.10611 81.8425004,131.683322 C82.0859593,131.91987 82.382597,131.945691 82.6909506,131.915706 C83.4133506,131.84574 85.5729061,131.003662 87.7316307,130.683821 C88.6448094,131.373477 89.852133,131.619187 90.9713794,131.316005 C91.6012151,131.144425 92.1853504,130.683821 92.8043842,130.438944 C93.150046,130.357318 93.5023552,130.335662 93.8471861,130.370645 C94.3814662,131.328499 95.1035339,132.194733 96.1014662,132.532897 C96.3989348,132.63368 96.6839396,132.455436 96.851785,132.226384 C97.6403261,131.156918 97.8065096,129.610192 97.7716111,128.230881 C97.9062198,128.090118 98.0391666,127.945191 98.1696207,127.79943 C98.3673792,127.646174 98.5784323,127.516239 98.7828381,127.420453 C98.7953019,127.414623 98.8069347,127.409625 98.8185676,127.403795 C98.8185676,127.403795 100.311727,126.724968 100.325022,124.196232 L100.325022,121.804928 C100.325022,121.804928 100.149698,120.644675 101.150123,119.222886 C101.484983,118.746457 101.843939,118.10761 101.946973,117.799431 C102.181292,117.099781 102.346645,115.90038 101.840616,115.647174 C101.202471,115.326501 100.144712,114.30118 100.933254,113.062633 C103.38363,109.211225 102.901698,107.82775 101.474181,107.20806 C99.6702584,106.424285 101.33708,102.753621 101.33708,102.753621 C101.33708,102.753621 102.968171,97.9485233 99.6802294,94.49525 C99.6802294,94.49525 96.7329638,91.8882203 98.3540845,90.4172891 C101.170065,87.8577356 102.045022,84.0429764 102.426413,80.6188552 L102.43306,80.6338477 C102.462142,80.3465747 102.486239,80.0641326 102.510336,79.7843558 C102.624171,78.5616339 102.688152,77.4111258 102.772075,76.4093767 C102.888403,75.2182223 103.051263,74.2786088 103.40191,73.7472912 L103.405234,73.7440428 C103.461737,73.6757436 103.52821,73.6155237 103.589698,73.5514724 C103.751727,73.3864716 103.922896,73.2316324 104.115669,73.1043627 C104.502046,72.8476577 104.915843,72.6495068 105.354567,72.50966 L105.368693,72.5054121 C105.521582,72.4588521 105.932055,72.3853888 106.438084,72.36973 C107.241582,72.3446592 108.404867,72.4546875 109.506664,73.0867881 C109.581447,73.1310993 109.657891,73.1766598 109.732674,73.2251356 C111.071282,74.092202 112.234567,75.5872045 112.785466,77.5604678 C113.083765,78.6315989 113.330548,79.5901196 113.473466,80.6280173 C113.771765,82.8085103 113.941273,83.9113755 112.809562,88.5232362 C111.670374,93.1659147 109.674509,95.817922 109.741814,100.692984 C109.848171,108.411625 114.257021,112.158918 116.797137,115.156585 C117.105408,115.52057 117.396229,115.864565 117.687881,116.218554 C119.833311,118.824751 122.551243,121.585038 123.099649,124.715972 C123.325659,126.013657 123.308209,127.104778 122.227185,128.510741 C120.997427,130.111608 118.994915,130.744624 117.254973,130.383139 C114.917601,129.898381 113.895572,126.997331 113.55905,124.889219 C113.55905,124.889219 113.199263,123.296682 113.979495,120.861233 C113.979495,120.861233 112.748905,121.103612 112.040132,122.306344 C111.537427,121.543392 110.974065,121.157751 110.63505,121.03448 C109.742645,120.712141 108.703166,120.697148 108.164732,120.713807 C107.86477,120.723802 107.608017,120.747123 107.397794,120.77461 C107.781678,121.631681 108.093273,122.42795 108.343379,123.189236 C108.458877,123.537395 108.563572,123.893883 108.646664,124.18124 L108.667437,124.248706 C108.935823,125.161583 109.21335,126.105278 109.688635,126.986504 C110.893466,129.226217 112.172248,130.06663 114.108287,130.833747 C114.51876,130.996165 114.990722,131.1261 115.506722,131.221053 C116.318528,131.370145 117.240016,131.43428 118.213852,131.402629 C121.485176,131.299347 125.078065,129.28702 125.61733,125.642176 C125.818412,124.272028 125.545871,122.832747 124.91105,121.286854" id="path32" fill="#CB831A"></path>
                    </g>
                </g>
            </g>
        </g>
    </g>
</svg>