<?xml version="1.0" encoding="UTF-8"?>
<svg width="200px" height="200px" viewBox="0 0 200 200" version="1.1" xmlns="http://www.w3.org/2000/svg" xmlns:xlink="http://www.w3.org/1999/xlink">
    <!-- Generator: Sketch 54.1 (76490) - https://sketchapp.com -->
    <title>st-norbert</title>
    <desc>Created with Sketch.</desc>
    <g id="st-norbert" stroke="none" stroke-width="1" fill="none" fill-rule="evenodd">
        <g id="st-norbert_BGL" transform="translate(0.000000, -0.000000)">
            <g id="st-norbert" transform="translate(8.000000, 0.000000)">
                <g id="g10" transform="translate(92.164009, 99.957090) scale(-1, 1) rotate(-180.000000) translate(-92.164009, -99.957090) translate(0.248421, 0.203988)" fill-rule="nonzero">
                    <g id="g12" transform="translate(0.447157, 0.000000)">
                        <path d="M113.441226,194.071775 C113.441226,194.071775 109.552948,191.359784 108.589076,187.286077 L107.886543,186.272127 L106.460609,185.665648 L106.228585,183.299435 L107.351445,182.983011 L107.736994,181.741695 L106.20722,180.563066 L106.289199,176.964989 C106.289199,176.964989 98.9493667,174.919677 97.4727552,168.136466 L100.581986,166.387677 L98.3665722,159.990046 L103.988825,158.60992 C103.988825,158.60992 108.84644,153.080464 112.082365,148.218682 L112.764528,156.675556 L118.554713,158.115881 C118.554713,158.115881 126.64726,166.472753 127.243469,173.382335 L124.092503,175.514713 L125.115002,183.19197 L125.966588,184.130794 L125.348021,187.200503 C125.348021,187.200503 120.252419,196.079773 113.441226,194.071775" id="path14" fill="#FFFFFF"></path>
                        <path d="M63.2488553,4.95869935 C63.2488553,4.95869935 57.621634,2.93012922 60.5480276,0 C60.5480276,0 147.65966,1.57710401 181.875611,6.53678846 C181.875611,6.53678846 182.776383,8.79021353 180.975832,8.56573173 C179.174286,8.34070267 120.648898,4.50879047 76.3043468,8.34070267 C76.3043468,8.34070267 65.049904,10.1442189 63.2488553,4.95869935" id="path16" fill="#113D10"></path>
                        <path d="M76.5622073,158.14225 C76.5622073,158.14225 79.1224291,165.526965 86.8781174,165.1986 C86.8781174,165.1986 94.4360629,164.953322 97.5259172,155.09692 C97.5259172,155.09692 99.0472444,141.366315 86.5372844,139.658323 C86.5372844,139.658323 78.1113576,139.358318 75.597342,149.665475 L2.71826193,154.019785 C2.71826193,154.019785 -1.14021039,155.317322 1.58717354,156.083008 C1.58717354,156.083008 4.6147985,156.593962 6.28697657,156.374555 L76.4851969,157.268602 L76.5622073,158.14225" id="path18" fill="#FAB63D"></path>
                        <path d="M76.1875892,150.204291 C77.2945509,144.73404 81.6260109,140.593167 86.651061,140.719537 C92.3915621,140.863819 96.9118217,146.379842 96.7438895,153.038672 C96.5784414,159.698498 91.7864098,164.980686 86.0464055,164.836902 C81.8118295,164.729935 78.2435173,161.70351 76.7271585,157.451192 L75.8134679,157.481044 C77.5345252,162.178644 81.5032912,165.511541 86.2039041,165.629952 C92.6315363,165.792144 97.9959288,159.877606 98.1822442,152.421248 C98.3695533,144.96489 93.3087307,138.789651 86.8810984,138.627458 C81.0536501,138.481187 76.1011388,143.326551 75.0865895,149.787368 L75.0836084,150.283397 L76.1875892,150.204291" id="path20" fill="#113D10"></path>
                        <path d="M78.7979919,151.086397 C79.3683654,147.54653 81.8277284,144.847475 84.9702478,144.6818 C88.7750564,144.478314 92.1366827,148.06644 92.4790062,152.69588 C92.8213296,157.322334 90.0161652,161.238825 86.2108599,161.441316 C83.7594463,161.57117 81.4923607,160.128357 80.0972311,157.84722 L78.8471791,157.943241 C80.3237906,161.030861 83.1344203,163.066222 86.2014199,162.903533 C90.4608379,162.67716 93.6033574,158.292501 93.2178087,153.11131 C92.8347443,147.929124 89.0701799,143.912134 84.8122524,144.138506 C81.3179695,144.324082 78.5734197,147.308217 77.9146085,151.234161 L78.7979919,151.086397" id="path22" fill="#113D10"></path>
                        <path d="M83.8081367,161.222904 C83.8081367,161.222904 85.9341194,160.49105 84.8907533,158.773107 C83.8453998,157.056658 82.5605689,156.781528 81.6091183,156.757647 L3.50369802,156.123307 C3.50369802,156.123307 2.68197266,156.344206 1.34360717,155.525286 C1.34360717,155.525286 1.28848762,154.980002 3.66866414,154.980002 L80.238334,154.487455 C80.238334,154.487455 85.6901705,153.96058 87.1677757,157.381042 C87.1677757,157.381042 86.5770317,158.910921 88.1028305,157.68055 C89.6301198,156.450179 88.4759581,156.117834 87.9393698,153.082952 C87.4037751,150.049562 88.3259121,149.194322 87.1488957,150.06996 C85.9693951,150.947091 86.4299668,151.562525 86.6863367,152.233682 C86.9412162,152.904839 84.6343833,152.725731 84.6343833,152.725731 L4.36327273,154.392926 L75.3916498,150.262999 L75.4120203,149.426167 L2.34330595,153.616792 C2.34330595,153.616792 -0.0584175733,154.463077 0.0533715963,155.491952 C0.161861364,156.522319 4.17016553,156.683516 4.17016553,156.683516 L79.8766337,158.103443 C79.8766337,158.103443 80.0997153,159.981588 83.8081367,161.222904" id="path24" fill="#113D10"></path>
                        <path d="M69.08475,151.912283 C69.08475,151.912283 80.650712,151.598844 82.2271886,151.093362 C83.8031683,150.58987 85.401009,149.301289 83.8667639,148.054997 C82.3345062,146.808705 80.0455597,148.623665 79.8860737,149.585872 C79.725594,150.548079 69.2323117,151.432175 69.0305943,151.366502 C68.8278831,151.301326 68.4781071,151.715762 69.08475,151.912283" id="path26" fill="#113D10"></path>
                        <path d="M143.823551,70.0470762 C143.823551,70.0470762 143.93683,64.7091658 150.16672,65.7524689 C156.398597,66.7962694 150.16672,65.7524689 150.16672,65.7524689 L150.62282,71.7988502 C150.62282,71.7988502 144.927035,71.852085 143.823551,70.0470762" id="path28" fill="#113B18"></path>
                        <path d="M105.203105,166.092647 C103.600296,166.699623 101.479281,167.320033 98.6825631,167.869297 L100.128867,169.613608 L97.8563165,170.990748 C97.8563165,170.990748 96.220219,168.179253 95.9057187,166.11205 C95.9057187,166.11205 100.324623,165.968266 105.088334,164.793618" id="path30" fill="#113D10"></path>
                        <path d="M105.264713,166.581711 C103.059236,168.018056 100.137314,169.460371 96.398585,170.445464 C96.398585,170.445464 99.5972474,176.214726 106.191818,177.481416 L106.388567,176.252538 C104.489144,175.595311 102.253856,174.239565 99.9117478,171.608172 C99.9117478,171.608172 102.250875,170.298198 105.52307,167.747404" id="path32" fill="#113D10"></path>
                        <path d="M96.2122696,154.463574 L96.5262731,156.397939 C96.6465086,157.730302 97.251661,157.070588 97.251661,157.070588 C98.4649467,155.28349 98.6363569,158.347726 98.6363569,158.347726 C99.5261992,162.816964 102.892297,165.578209 102.892297,165.578209 C102.489359,165.973242 100.13781,168.681252 97.9710868,165.732441 C95.8033694,162.782137 94.5413932,155.381502 94.5413932,155.381502" id="path34" fill="#113D10"></path>
                        <path d="M98.739203,152.024723 L94.3724673,153.289423 C94.3724673,153.289423 93.760856,152.317763 93.8363758,151.558545 L98.1156675,151.311774 C98.1156675,151.311774 98.1733011,151.463021 98.739203,152.024723" id="path36" fill="#FFFFFF"></path>
                        <path d="M97.6367128,150.749077 L92.5470734,150.811268 C92.5470734,150.811268 91.6244396,149.804781 91.554385,148.674412 C91.554385,148.674412 95.8520598,148.68088 96.226678,148.701776 C96.226678,148.701776 97.4036943,149.437113 97.6367128,150.749077" id="path38" fill="#FFFFFF"></path>
                        <path d="M90.6873974,111.05381 C90.6873974,111.05381 87.6367936,106.740795 86.7394987,102.96759 C86.7394987,102.96759 80.0997153,96.6789157 84.2269737,85.7165224 C84.2269737,85.7165224 82.7916,79.0676423 81.535089,75.8337512 C80.2790749,72.5983676 79.3817801,64.1519415 80.0997153,58.9418942 C80.8171538,53.7313494 77.9459095,49.5972922 78.1252691,49.0587747 C78.3046287,48.5190632 75.0746653,44.9246679 76.5110327,39.7142723 C76.5110327,39.7142723 72.9208595,27.6736499 72.5626371,26.2369067 C72.203421,24.7983725 68.2560191,22.821868 69.6913928,19.2274727 C69.6913928,19.2274727 69.6913928,15.813827 67.8963062,14.7361452 C66.1022133,13.6579659 63.5896883,11.5003138 63.5896883,10.4220847 C63.5896883,9.34445271 62.5130338,4.67262437 62.5130338,4.67262437 C62.5130338,4.67262437 68.6147383,3.41463078 72.9218531,4.49324292 C72.9218531,4.49324292 74.1773704,8.62538459 74.5365865,11.1412026 C74.5365865,11.1412026 72.7419967,12.7596905 73.1012127,15.0947091 L73.8181543,17.2523612 C73.8181543,17.2523612 76.1523134,17.7902817 77.2284711,18.8689088 C78.3046287,19.9471378 77.9459095,22.821868 77.7670468,23.7201434 C77.5866935,24.6189662 79.7409961,33.4239561 81.1763698,38.2774793 C81.1763698,38.2774793 84.0476141,41.3316159 84.5856929,44.3862996 C84.5856929,44.3862996 85.304125,46.5420114 85.1242686,48.8776271 C85.1242686,48.8776271 90.3281814,54.6278835 93.7384981,68.4654547 C93.7384981,68.4654547 96.7881083,70.2630007 97.5070373,72.2391569 C97.5070373,72.2391569 102.531094,70.2630007 103.966467,70.2630007 C103.966467,70.2630007 103.608245,67.2082174 104.505043,65.0509633 C104.505043,65.0509633 101.454439,55.8871109 99.301627,50.136755 C99.301627,50.136755 95.7124475,48.1599023 95.7124475,45.643736 C95.7124475,43.1275697 95.5325911,39.7142723 98.5826981,38.8154496 L100.736504,34.1434222 C100.736504,34.1434222 98.5826981,28.3927678 103.249029,27.8524592 C103.249029,27.8524592 106.299136,23.0026176 110.248028,23.7201434 C114.19543,24.4394106 114.37479,33.4252994 110.427885,35.2210542 C110.427885,35.2210542 107.017568,35.9401224 105.402835,34.8624903 C105.402835,34.8624903 103.608245,39.5351147 103.428885,40.4333404 C103.428885,40.4333404 104.864259,42.9495564 104.864259,47.6201907 C104.864259,52.2925166 112.5802,56.7856351 112.939913,57.504554 C113.298632,58.2224778 116.886818,62.8942067 118.143826,67.9276338 C118.143826,67.9276338 120.117278,67.3873252 123.348732,67.7465359 C123.348732,67.7465359 122.809163,62.535991 126.757062,59.8404184 C126.757062,59.8404184 126.757062,52.8313326 126.21948,50.8556739 C125.680407,48.8776271 119.938416,38.0963814 119.938416,38.0963814 C119.938416,38.0963814 114.554646,33.9636179 115.810164,30.0093153 C115.810164,30.0093153 115.99002,27.1353314 115.450947,26.0557591 C114.913366,24.9794704 112.760057,19.2274727 118.323682,16.5319001 C123.885817,13.8373225 125.680407,22.6424617 124.784106,24.9794704 C123.885817,27.315086 120.117278,27.6736499 120.117278,27.6736499 L119.938416,29.8309041 C119.938416,29.8309041 122.6303,29.1118359 123.527098,32.1663207 C124.42489,35.2210542 124.784106,37.3773133 126.21948,39.7142723 C127.65535,42.0497387 130.525104,47.0805289 131.602752,48.3396569 C132.679407,49.5972922 138.781111,53.011933 138.781111,55.7080031 C138.781111,55.7080031 136.268089,66.6684063 138.781111,70.9819195 C138.781111,70.9819195 141.156508,71.9361662 141.887361,71.142619 C141.887361,71.142619 139.270003,59.5001136 140.215988,47.9807447 C140.215988,47.9807447 137.345241,44.3862996 137.165384,41.6907768 C137.165384,41.6907768 134.473003,30.0100616 131.602752,24.7983725 C131.602752,24.7983725 127.116278,21.3852741 128.013573,16.891857 C128.013573,16.891857 127.834213,13.1182544 125.142328,12.2197799 C122.450444,11.3215542 121.015567,9.52385904 120.83571,8.62538459 C120.656351,7.7271589 120.117278,4.3134734 120.117278,4.3134734 C120.117278,4.3134734 121.014573,1.79710313 129.987522,2.69555769 C129.987522,2.69555769 131.602752,7.36819698 131.602752,8.98394848 C131.602752,8.98394848 130.166882,12.0406223 130.346738,12.7596905 C130.525104,13.4787586 131.602752,15.2745134 131.602752,15.2745134 C131.602752,15.2745134 134.473003,14.5554453 135.90937,19.4085706 C137.345241,24.2600042 138.600758,29.2909935 139.857269,32.345727 C141.113283,35.4008088 144.34275,38.635695 144.523103,39.5351147 C144.701966,40.4333404 146.318189,43.3081203 146.675915,46.0042402 C146.675915,46.0042402 150.445448,53.011933 152.060181,57.6841593 C153.674418,62.3568832 158.520605,69.5430868 161.03313,72.5983676 C163.545158,75.6531508 170.364798,85.8961278 170.543661,99.5540937 C170.723517,113.210567 153.854771,122.555517 145.77862,123.093836 C145.77862,123.093836 132.679407,125.250095 122.809163,124.351571 C122.809163,124.351571 112.938919,151.846113 107.197424,155.259609 C107.197424,155.259609 92.8412033,143.040974 90.6873974,111.05381" id="path40" fill="#113D10"></path>
                        <path d="M90.6943532,111.05381 C90.6943532,111.05381 86.8656963,107.679121 86.4056215,102.157625 C86.4056215,102.157625 80.432102,98.9356742 79.2063952,90.4987011 C79.2063952,90.4987011 79.1547237,90.0399861 79.5129461,90.0399861 C79.8696779,90.0399861 80.1255511,89.7325176 80.0236987,89.1693231 C79.9213494,88.6076211 79.3087444,86.2548409 79.3087444,86.2548409 C79.3087444,86.2548409 78.9500252,86.051852 78.594287,86.152849 C78.2365615,86.2548409 78.031863,85.7951308 77.9806884,85.5389072 C77.9295138,85.2836785 77.6229629,82.9831382 77.7759899,82.7279095 C77.9295138,82.4721834 85.2827608,78.9950042 99.3244817,79.0974936 C113.365706,79.1999831 122.045021,81.6025154 123.475427,82.0124733 C124.905832,82.4199436 130.879352,86.2045912 140.529992,82.8806487 C150.180135,79.5572037 157.58406,76.745211 167.081672,77.512887 C167.081672,77.512887 171.217377,77.7173684 173.566441,77.0014347 C173.566441,77.0014347 169.787469,73.8824711 164.885138,73.5755002 C164.885138,73.5755002 163.251525,72.6545875 163.506901,71.7346699 C163.506901,71.7346699 172.85099,70.7112677 182.246751,76.3357506 C182.246751,76.3357506 183.982713,77.3586553 182.757007,78.7387805 C182.757007,78.7387805 181.990381,79.6094435 181.326601,79.0974936 C181.326601,79.0974936 180.101391,80.8870792 179.999539,82.1144653 L181.429447,82.4199436 C181.429447,82.4199436 182.144402,82.7786567 181.174071,83.953803 C180.203244,85.1314369 177.905354,87.6359612 176.783984,89.2733051 C175.658639,90.908659 172.494259,97.3510675 171.268055,102.464596 C170.042845,107.576631 159.012974,122.711739 142.367807,123.477922 C142.367807,123.477922 128.631146,124.552072 121.995337,124.348088 C121.995337,124.348088 108.668571,113.303106 90.6943532,111.05381" id="path42" fill="#113D10"></path>
                        <path d="M92.1843794,110.318971 C92.1843794,110.318971 88.8038731,105.985557 88.8038731,102.735745 C88.8038731,102.735745 101.980594,100.501375 120.066104,109.374177 C120.066104,109.374177 121.055314,112.224479 119.161356,111.547849 C119.161356,111.547849 110.334479,108.515455 106.954966,108.650781 C106.954966,108.650781 120.168453,112.64787 124.22516,117.252433 C124.22516,117.252433 124.763239,118.698729 123.141053,117.886774 C121.517873,117.073823 105.508165,107.83584 92.1843794,110.318971" id="path44" fill="#FAB63D"></path>
                        <path d="M81.2742475,89.1190734 L80.5086155,85.6677653 C80.5086155,85.6677653 89.7756942,80.9890712 106.932608,82.2169547 C106.932608,82.2169547 115.892639,82.9831382 122.32673,85.1314369 C128.760822,87.2777455 134.19825,88.5056291 139.635678,86.5115621 C145.073603,84.5174951 158.400866,79.2248592 165.524573,80.068656 C165.524573,80.068656 170.501429,80.1457719 172.876329,79.838801 C175.250732,79.5318301 178.0082,78.6114149 179.692988,79.3775983 C179.692988,79.3775983 178.467778,81.296042 178.467778,81.9856071 C178.467778,81.9856071 172.952843,83.9035533 166.596259,83.2901091 C160.238681,82.6761673 151.354667,85.5906494 143.235788,89.1941992 C135.117902,92.799739 130.292086,90.6534303 116.889302,87.7389482 C116.889302,87.7389482 102.719893,82.2920805 81.2742475,89.1190734" id="path46" fill="#FAB63D"></path>
                        <path d="M137.312946,91.7624062 C137.312946,91.7624062 140.965721,85.2175081 141.830721,84.5443613 C142.695722,83.8707169 149.998788,80.9831009 149.998788,80.9831009 L153.652557,80.2134348 C153.652557,80.2134348 154.133499,82.7154715 150.384833,84.1582844 C150.384833,84.1582844 150.769388,86.4687752 150.096169,88.491201 C149.422949,90.5116366 137.312946,91.7624062 137.312946,91.7624062" id="path48" fill="#113D10"></path>
                        <path d="M150.076792,162.439842 L147.072394,165.775228 C144.632905,165.508059 138.10193,158.312402 138.10193,158.312402 L150.076792,162.439842" id="path50" fill="#FFFFFF"></path>
                        <path d="M133.992557,153.648634 L136.062397,156.601923 L144.262261,160.064176 L151.987145,154.30387 L154.547864,145.994262 C154.547864,145.994262 156.22818,139.897631 152.78706,134.399021 C152.78706,134.399021 144.73277,115.094682 140.776922,121.847046 L142.980411,137.123948 L142.895949,142.401161 C142.895949,142.401161 133.529005,151.863028 133.992557,153.648634" id="path52" fill="#FFFFFF"></path>
                        <path d="M121.719094,163.287619 C121.719094,163.287619 118.570115,153.607837 121.904415,147.281849 C121.904415,147.281849 129.483228,154.145161 131.757767,154.477008 L134.48294,154.446659 C134.48294,154.446659 143.72617,164.961282 147.65022,166.79664 C147.65022,166.79664 144.682092,175.061968 131.29322,172.269379 L129.78332,173.259945 L122.30785,163.930417" id="path54" fill="#FFFFFF"></path>
                        <path d="M149.125838,166.876244 C149.125838,166.876244 151.538995,163.671209 152.223642,161.18559 C152.223642,161.18559 142.486552,159.703473 135.435881,155.542699 C135.435881,155.542699 136.935347,159.1761 148.567886,162.932389 L146.541271,164.8573 L149.125838,166.876244" id="path56" fill="#113D10"></path>
                        <path d="M156.564542,131.345731 L157.116035,130.828806 C157.116035,130.828806 159.129235,133.527861 159.549066,134.979132 L160.065284,134.785596 C160.065284,134.785596 160.989905,136.127412 161.239319,139.128463 L161.855899,139.526978 C161.855899,139.526978 161.831057,141.258353 159.552047,143.982782 L158.574264,143.875317 C158.574264,143.875317 157.609895,147.404239 156.308669,148.748045 L155.455593,148.242065 C155.455593,148.242065 152.832769,157.122828 149.750367,160.418909 C146.667469,163.714991 144.180779,160.054226 143.74505,159.51143 C143.74505,159.51143 148.269781,156.621326 150.009221,151.277943 C150.009221,151.277943 150.665052,147.549515 151.891255,149.914733 C151.891255,149.914733 152.535658,150.811765 152.876988,149.197307 L153.544245,146.874378 L151.159905,145.291264 C151.159905,145.291264 146.257078,141.678759 144.471928,142.326532 C144.471928,142.326532 141.307051,144.869366 140.184687,146.068891 C139.063814,147.26742 138.341904,148.592321 138.099445,150.052547 C137.856987,151.512276 135.17802,153.366042 134.672236,153.475496 C134.672236,153.475496 138.811915,161.612961 150.989986,166.420016 C150.989986,166.420016 143.597488,176.677919 131.239561,172.758443 L129.78332,173.259945 L129.583093,172.824613 C129.583093,172.824613 131.049271,172.242513 130.89376,171.399213 C130.89376,171.399213 137.473922,175.343565 146.518416,167.333466 C146.518416,167.333466 140.633831,163.052292 134.457104,155.434737 C134.457104,155.434737 129.489687,157.86314 129.991994,167.582724 C129.991994,167.582724 126.545407,163.6528 129.882689,154.271034 C129.882689,154.271034 125.924356,152.76205 122.177678,148.551026 C122.177678,148.551026 119.762534,157.042727 124.019965,164.862773 L120.059148,161.866697 C120.059148,161.866697 118.177611,151.168488 121.874605,146.039537 C121.874605,146.039537 123.636403,149.537114 131.620142,153.470521 C131.620142,153.470521 134.586779,150.492356 135.436874,149.512238 C136.284982,148.531623 139.302297,143.575809 140.469377,142.712609 L141.303573,141.895181 C141.303573,141.895181 140.660164,141.741944 140.648737,141.080241 L140.95181,137.561269 C140.95181,137.561269 140.978142,136.573191 141.71148,136.654287 C141.71148,136.654287 140.160839,128.222787 140.395845,121.557489 C140.395845,121.557489 141.037763,120.966433 141.165451,122.054513 C141.165451,122.054513 141.871462,128.410353 142.382712,130.531288 C142.891974,132.65272 143.656612,135.462723 143.658103,136.206518 L145.116828,136.449308 C145.116828,136.449308 146.607351,134.13434 149.550637,134.37514 C149.550637,134.37514 150.808639,134.183595 152.09645,135.232868 L153.019084,134.344294" id="path58" fill="#113D10"></path>
                        <path d="M150.802676,143.517102 L155.967339,145.704207 C155.967339,145.704207 156.857678,144.602694 156.874571,143.663373 L151.671155,142.73649 C151.671155,142.73649 151.577748,142.911618 150.802676,143.517102" id="path60" fill="#FFFFFF"></path>
                        <path d="M152.337915,142.116578 L158.56383,142.935996 C158.56383,142.935996 159.838724,141.836971 160.090126,140.463811 C160.090126,140.463811 154.826095,139.845392 154.363039,139.815043 C154.363039,139.815043 152.814386,140.544907 152.337915,142.116578" id="path62" fill="#FFFFFF"></path>
                        <path d="M156.248551,132.293012 C156.248551,132.293012 152.979834,131.066621 149.916809,131.271103 L150.529911,136.792598 C150.529911,136.792598 155.226052,136.588615 156.248551,132.293012" id="path64" fill="#113D10"></path>
                        <path d="M144.886294,108.2856 L144.988643,104.820858 L142.183975,105.204945 L144.945418,100.997902 C144.945418,100.997902 141.677694,98.4794468 141.157005,97.3968395 L137.721846,98.0779468 C137.721846,98.0779468 136.031593,101.294425 135.980915,101.697915 L144.886294,108.2856" id="path66" fill="#FFFFFF"></path>
                        <path d="M143.111578,82.6199473 C143.111578,82.6199473 142.699199,83.4552863 143.174179,84.0135056 C143.174179,84.0135056 134.323454,99.3700106 132.683381,103.666608 L134.594232,102.517333 C134.594232,102.517333 138.536665,93.28134 145.273333,84.8762083 C145.273333,84.8762083 146.980975,85.1861643 147.456949,83.5746915 C147.456949,83.5746915 151.732763,83.220456 152.486968,81.3716653 C153.240675,79.5208846 154.212496,78.2099149 154.1648,71.1739629 C154.1648,71.1739629 153.601879,70.6072857 152.59975,71.22272 C151.596628,71.8366618 145.370714,70.5600211 144.529065,70.2316568 L143.93683,68.9689467 C143.93683,68.9689467 143.366954,68.4893358 142.944639,70.5401203 C142.944639,70.5401203 138.705591,79.1432656 143.111578,82.6199473" id="path68" fill="#FFFFFF"></path>
                        <path d="M143.748528,74.5964147 C143.748528,74.5964147 146.823974,77.3601478 150.844411,75.8576323 C150.844411,75.8576323 152.742344,74.8800021 151.435652,72.7789679 C151.435652,72.7789679 146.088152,72.4391606 145.338419,72.0326854 C145.338419,72.0326854 143.983037,73.8332164 143.748528,74.5964147" id="path70" fill="#113D10"></path>
                        <path d="M142.214779,76.2665951 C142.214779,76.2665951 142.641566,79.6183989 146.545743,79.5840699 C146.545743,79.5840699 150.521464,79.7273561 151.933983,77.2342748 C151.933983,77.2342748 153.279926,81.0602168 149.135278,81.9443128 L149.030445,79.955221 C149.030445,79.955221 146.329617,81.2154435 144.126127,79.4785953 L143.976578,81.375148 C143.976578,81.375148 141.748743,80.3691591 142.214779,76.2665951" id="path72" fill="#113D10"></path>
                        <path d="M142.599334,79.8278555 C142.599334,79.8278555 144.596635,84.1806729 150.961169,81.271166 L150.878693,80.5517496 C150.878693,80.5517496 145.934628,83.2015502 142.982896,79.2502328 L142.599334,79.8278555" id="path74" fill="#113D10"></path>
                        <path d="M139.18554,96.0246747 L144.523103,87.7687995 L141.925121,95.3744138 C141.925121,95.3744138 139.753429,96.5042856 139.18554,96.0246747" id="path76" fill="#FFFFFF"></path>
                        <path d="M145.997727,86.6702715 C145.997727,86.6702715 147.916527,85.4334326 148.263819,84.3334121 L149.497475,84.0846512 C149.497475,84.0846512 150.230812,94.4729045 146.322661,98.9356742 C146.322661,98.9356742 140.894176,98.5048204 145.997727,86.6702715" id="path78" fill="#FFFFFF"></path>
                        <path d="M149.371774,66.6748741 L149.847748,65.54948 C149.847748,65.54948 152.669308,67.8092236 152.316551,69.8172212 L151.290574,70.3858885 C151.290574,70.3858885 150.976074,67.1913016 149.371774,66.6748741" id="path80" fill="#FFFFFF"></path>
                        <path d="M112.187696,156.912376 C112.187696,156.912376 110.180955,122.50477 134.385559,106.74975 C134.385559,106.74975 158.445085,119.602228 150.758954,162.888607 L112.187696,156.912376" id="path82" fill="#FFFFFF"></path>
                        <path d="M111.670981,157.195466 C111.670981,157.195466 110.24455,122.092822 133.308904,106.973137 C133.308904,106.973137 134.210671,106.337305 134.771107,106.651738 C135.333035,106.969157 134.691613,107.092543 134.07702,107.575636 C133.462925,108.056242 113.474017,117.611644 112.764528,156.675556 L130.263269,159.637303 L130.159429,160.588564 L111.670981,157.195466" id="path84" fill="#113D10"></path>
                        <path d="M151.551416,163.712503 C151.551416,163.712503 161.218948,124.036639 136.777351,106.87015 C136.777351,106.87015 134.619074,106.306458 134.005475,106.638803 C133.395355,106.969157 134.011437,107.077119 134.547032,107.545287 C135.086601,108.01644 156.441822,118.635046 149.976927,162.742833 L130.15297,159.613422 L130.063042,160.560703 L151.551416,163.712503" id="path86" fill="#113D10"></path>
                        <path d="M134.058637,113.370769 C136.199525,114.933982 135.254037,115.723549 135.254037,115.723549 C137.234445,114.354867 137.623968,117.135516 137.623968,117.135516 C135.163115,116.268833 134.931587,117.988268 134.931587,117.988268 L135.967997,118.09822 C135.967997,118.09822 136.403727,118.187774 136.408695,118.665395 C136.431053,119.34899 135.857699,119.262421 135.857699,119.262421 L134.895318,119.150976 C134.895318,119.150976 135.298753,120.397268 136.939322,121.103749 C138.639512,121.836598 139.51743,120.711702 138.596783,119.57785 C140.588122,118.880822 143.369935,121.01917 142.90837,123.625686 C142.426931,126.352105 137.83612,127.573521 134.734838,121.049022 C134.734838,121.049022 136.119534,125.794384 135.755846,128.56956 C135.37626,131.484042 132.837899,133.508955 132.837899,133.508955 L132.837899,133.508955 C132.837899,133.508955 130.68608,130.51487 130.672666,127.632229 C130.660742,124.902327 132.492594,120.758966 132.492594,120.758966 C128.954093,126.024736 125.386774,123.625686 125.294859,121.156486 C125.207415,118.812661 127.594239,117.46985 129.177174,118.492257 C128.280376,119.333567 128.893478,120.553987 130.454553,120.275375 C132.037985,119.991788 132.565133,118.882812 132.565133,118.882812 L131.650946,118.777835 C131.650946,118.777835 131.113861,118.736043 131.210745,118.091752 C131.271856,117.639505 131.682247,117.64249 131.682247,117.64249 L132.669967,117.746472 C132.669967,117.746472 132.650093,116.033505 130.293576,116.415602 C130.293576,116.415602 130.952884,113.864808 132.629226,115.489216 C132.629226,115.489216 131.824343,114.570791 134.058637,113.370769 L134.058637,113.370769" id="path88" fill="#113D10"></path>
                        <path d="M92.0656344,168.52105 C92.0656344,168.52105 88.2752343,162.595567 90.9561884,156.579037 L85.8715174,151.116248 C85.8715174,151.116248 85.1312243,148.987353 86.0558455,147.228614 C86.0558455,147.228614 87.9055846,140.747896 84.4848342,133.526368 C84.4848342,133.526368 83.6521286,132.786056 82.4502702,132.786056 C82.4502702,132.786056 80.4162031,130.655668 81.2484118,126.490416 L81.8957956,125.564031 C81.8957956,125.564031 82.266439,125.008797 82.1735297,124.545107 C82.0806205,124.082411 81.8957956,122.694326 82.7275075,121.954014 C82.7275075,121.954014 83.5597162,119.269386 85.5018677,118.990774 C87.4430256,118.713655 88.460556,118.250462 89.8467424,119.269386 C91.2334257,120.287316 92.435781,120.935089 92.435781,120.935089 L95.2096444,125.378953 C95.2096444,125.378953 97.7052768,128.434234 99.1848694,128.619312 C100.664462,128.805385 108.05994,128.897426 108.152353,142.876294 C108.152353,142.876294 108.152353,153.801373 108.799737,155.281998 C109.447121,156.763617 111.5736,159.356203 110.093511,164.17072 C110.093511,164.17072 109.630952,168.150894 107.967528,166.946892 C107.967528,166.946892 106.580845,164.077186 106.025873,163.244335 C105.471399,162.410986 104.269044,161.021906 103.714569,159.448244 C103.714569,159.448244 101.773411,160.652247 97.1512991,160.466671 C97.1512991,160.466671 94.654673,161.855254 94.192114,164.539882 C93.7300518,167.225006 93.545227,169.817592 92.0656344,168.52105" id="path90" fill="#113D10"></path>
                        <path d="M107.197424,173.494775 C107.197424,173.494775 104.119494,169.308627 104.440951,159.372124 L105.267694,160.154228 C105.267694,160.154228 104.992941,167.698647 107.426965,172.989293 L107.197424,173.494775" id="path92" fill="#113D10"></path>
                        <path d="M114.606318,194.48024 C114.606318,194.48024 115.377912,199.915665 122.446469,198.914651 C122.446469,198.914651 126.853449,195.533991 130.749179,195.438965 C130.749179,195.438965 134.360717,196.771825 135.02698,197.247456 C135.02698,197.247456 134.457104,194.107099 133.505653,193.250864 C133.505653,193.250864 136.737107,193.439923 138.543621,194.963832 C138.543621,194.963832 139.208394,187.634839 129.989013,186.778107 L123.240918,188.110968 C123.240918,188.110968 122.046512,192.976232 118.272508,193.256835 C118.272508,193.256835 115.476286,190.8548 114.606318,194.48024" id="path94" fill="#FAB63D"></path>
                        <path d="M107.479133,186.220883 C107.479133,186.220883 108.905564,192.950361 114.606318,194.48024 L114.656499,194.02053 C114.656499,194.02053 110.232626,192.401595 109.163921,186.080084 L107.479133,186.220883" id="path96" fill="#113D10"></path>
                        <path d="M108.1921,186.884577 C108.1921,186.884577 108.651181,186.068641 113.944526,186.017396 C113.944526,186.017396 115.064405,185.915902 114.351438,185.660673 C114.351438,185.660673 112.117144,185.262158 107.077189,185.670126 C107.077189,185.670126 106.629535,184.988024 106.629535,183.357148 C106.629535,183.357148 107.377778,183.162617 108.802221,183.162617 C108.802221,183.162617 108.651181,184.028802 108.751543,184.589509 C108.751543,184.589509 109.0571,184.997477 109.516182,184.589509 C109.516182,184.589509 109.770067,175.873924 112.061001,169.654902 C112.061001,169.654902 111.552236,169.348429 110.788591,169.704654 C110.788591,169.704654 109.210624,173.375867 108.905564,180.817797 C108.905564,180.817797 108.312833,180.806354 107.038932,180.857101 C107.038932,180.857101 106.691143,180.715307 106.741324,180.409331 C106.741324,180.409331 106.887893,174.561461 110.095498,169.515596 C110.095498,169.515596 110.882494,168.935486 111.696817,168.731999 C112.511636,168.527021 117.265908,167.5877 122.76246,171.716135 C122.76246,171.716135 124.141691,172.772373 122.613408,182.610865 C122.613408,182.610865 124.839255,183.468592 125.6029,184.130794 L125.348021,186.578103 C125.348021,186.578103 121.326589,185.711918 117.761755,185.81391 C117.761755,185.81391 117.609722,186.170633 118.219842,186.425861 C118.219842,186.425861 120.257388,187.240802 121.529797,188.413461 C121.529797,188.413461 121.326589,190.911517 118.272508,193.256835 C118.272508,193.256835 117.609722,194.02053 118.474722,194.071775 C119.341213,194.12302 123.311469,192.491149 124.839255,188.361718 C124.839255,188.361718 125.194994,188.209974 125.500054,188.413461 C125.500054,188.413461 125.399195,189.688111 124.076108,191.318987 C124.076108,191.318987 125.551725,191.267743 126.621424,189.789606 C127.688639,188.311966 130.031244,188.158232 130.386982,190.248321 C130.386982,190.248321 132.779769,187.649267 134.969347,189.279646 C137.157932,190.911517 138.074603,194.173767 138.074603,194.173767 C138.074603,194.173767 133.84897,191.931437 132.525883,192.899116 C132.525883,192.899116 132.117976,193.052353 132.525883,193.562313 C132.933292,194.071775 134.25638,195.39767 134.56144,196.671326 C134.56144,196.671326 131.495435,194.118045 128.339997,195.188711 C125.182076,196.258881 122.862822,198.150458 121.844795,198.405687 C120.827264,198.660418 118.525897,199.102217 116.54052,197.012128 C114.55564,194.92204 115.60944,193.057328 115.60944,193.057328 C115.60944,193.057328 113.411415,192.9827 114.963546,196.213606 C116.495307,199.404213 120.83571,199.662427 122.465349,199.101222 C122.465349,199.101222 129.471801,194.377751 132.728594,196.671326 L135.172555,197.997221 C135.172555,197.997221 136.240763,198.354442 136.038549,197.487262 C135.834347,196.621076 134.918172,194.48024 134.40891,193.612563 C134.40891,193.612563 137.768549,194.683727 138.889423,195.856385 C138.889423,195.856385 139.499543,196.416097 139.295838,195.703646 C139.295838,195.703646 139.754423,186.272127 131.711064,185.711918 C131.711064,185.711918 132.728594,184.947227 133.237856,184.845733 C133.237856,184.845733 133.544904,184.437765 132.933292,184.182536 C132.321681,183.927307 128.708156,181.837219 126.264195,185.150713 L126.366545,183.927307 C126.366545,183.927307 125.907464,183.417348 125.6029,183.162617 C125.6029,183.162617 126.264195,179.544141 125.143819,176.128157 C125.143819,176.128157 127.790988,173.222133 132.42403,173.528606 C132.42403,173.528606 128.758834,163.894098 115.82805,158.031303 C115.82805,158.031303 111.870214,156.220821 111.870214,157.189496 C111.870214,157.189496 115.064405,158.744749 115.471318,158.948733 C115.878231,159.152717 126.925491,164.505553 125.143819,172.712173 C125.143819,172.712173 124.825344,170.534521 124.775163,170.380786 C124.723988,170.228047 124.391602,169.947943 124.035367,169.693211 C123.679132,169.437983 115.368472,165.272731 109.717899,168.688218 C109.717899,168.688218 105.798817,173.375867 105.595609,180.817797 C105.595609,180.817797 105.798817,181.123773 106.20722,181.225267 L107.377778,181.735227 L107.224751,182.856641 L106.157039,182.907885 C106.157039,182.907885 105.697958,182.907885 105.697958,183.366601 C105.697958,183.366601 105.595609,185.405942 106.460609,186.220883 L107.886543,186.272127 L108.1921,186.884577" id="path98" fill="#113D10"></path>
                        <path d="M110.940625,182.958633 C110.940625,182.958633 110.788591,181.582488 111.145323,180.869042 C111.145323,180.869042 115.676016,180.409829 120.81683,182.143692 C120.81683,182.143692 120.715972,183.468592 120.614119,183.876063 C120.614119,183.876063 115.217432,182.907885 110.940625,182.958633" id="path100" fill="#113D10"></path>
                        <path d="M117.660896,194.48024 C117.660896,194.48024 118.272508,195.243936 118.628246,194.327004 C118.984481,193.409076 118.219842,192.390152 117.457688,192.134426 C116.693547,191.880192 114.097553,192.186665 114.453291,194.12302 L115.11558,194.071775 C115.11558,194.071775 115.26811,193.001606 116.134104,192.848369 C116.999601,192.69563 117.609722,193.867791 117.660896,194.48024" id="path102" fill="#113D10"></path>
                        <polygon id="path104" fill="#113D10" points="114.495025 157.623832 120.567913 161.557736 120.38905 158.338771"></polygon>
                        <path d="M85.2857419,139.605586 C85.2857419,139.605586 83.5194721,136.442343 83.6123813,136.071689 C83.7042969,135.701036 85.1799148,133.2791 85.1799148,132.259181 L87.7863427,138.122474 L85.2857419,139.605586" id="path106" fill="#113D10"></path>
                        <path d="M88.3413142,144.981806 C88.3413142,144.981806 87.4946971,149.817219 87.879252,150.823208 C87.879252,150.823208 91.2617457,154.330736 92.1371795,155.736235 C92.1371795,155.736235 97.135897,160.464184 101.395315,158.60992 C101.395315,158.60992 101.857377,156.81934 102.042699,156.477045 C102.228021,156.135745 103.641533,154.25561 104.912949,153.418779 C104.912949,153.418779 105.792358,150.327179 105.837571,149.710252 C105.837571,149.710252 100.861708,150.730172 98.370547,149.290344 C98.370547,149.290344 96.323562,146.740545 96.2097854,144.90867 C96.2097854,144.90867 97.0395099,141.617564 100.098063,141.971799 C100.098063,141.971799 100.741969,135.836859 94.6084668,134.875647 C94.6084668,134.875647 89.4348612,134.949778 86.0757191,132.259181 C86.0757191,132.259181 85.4193921,135.634368 84.5081857,135.847307 C84.5081857,135.847307 84.494771,136.567719 85.0671318,136.856281 C85.0671318,136.856281 90.7196921,144.187264 92.9768409,150.149564 C92.9768409,150.149564 92.9197041,150.825696 92.4208758,150.113245 L88.3413142,144.981806" id="path108" fill="#FAB63D"></path>
                        <polyline id="path110" fill="#113D10" points="116.716898 142.097672 119.174771 142.477779 119.27712 140.883719 122.127 141.321041 121.922799 144.465876 117.796534 143.822083 116.541017 144.818619 116.204655 150.016228 117.279819 151.335655 122.654645 152.209801 124.045303 151.108786 124.205783 148.627147 121.67885 148.22515 121.585444 149.675426 118.737054 149.218203 118.923369 146.349493 123.087394 147.007714 124.326515 145.999238 124.668342 140.684711 123.538526 139.277719 118.320204 138.48865 116.876384 139.661309 116.716898 142.097672"></polyline>
                        <polyline id="path112" fill="#113D10" points="145.79601 147.317173 148.377595 147.718175 148.594715 144.273335 147.470861 142.896692 141.815816 142.041452 140.507137 143.091721 139.815534 153.955605 140.834058 155.190454 146.635174 156.133257 147.908081 155.147169 148.069057 152.588913 145.487968 152.177462 145.403008 153.522761 142.432893 153.04713 142.973456 144.539011 145.941584 144.994244 145.79601 147.317173"></polyline>
                        <polyline id="path114" fill="#113D10" points="123.595662 155.681508 128.757344 156.535255 135.059275 146.990301 134.624042 153.830229 133.574217 153.659579 133.34418 157.293975 139.623754 158.333298 139.854785 154.705868 138.774652 154.529247 139.549227 142.347428 140.632341 142.513601 140.864862 138.839403 135.506929 138.044861 129.313309 147.511704 129.740095 140.860336 130.802341 141.020538 131.036353 137.379674 124.810439 136.454284 124.579408 140.051366 125.657553 140.215548 124.881487 152.249603 123.831662 152.078953 123.595662 155.681508"></polyline>
                        <path d="M68.043868,6.98764263 L68.043868,6.49111597 L67.0839712,6.49111597 L67.0839712,3.9840593 L66.4887556,3.9840593 L66.4887556,6.49111597 L65.5293556,6.49111597 L65.5293556,6.98764263 L68.043868,6.98764263 Z M71.284762,3.9840593 L71.1749601,5.75125143 C71.1640296,5.98289754 71.1640296,6.26956955 71.1530991,6.59022229 L71.1193139,6.59022229 C71.0423036,6.32554074 70.9543627,5.97220082 70.8664218,5.69622553 L70.3258588,4.02876163 L69.7087823,4.02876163 L69.1682192,5.73995769 C69.1130699,5.97220082 69.0246322,6.32554074 68.9590492,6.59022229 L68.925264,6.59022229 C68.925264,6.314247 68.9148303,6.0266297 68.903403,5.75125143 L68.7931043,3.9840593 L68.2197497,3.9840593 L68.440844,6.98764263 L69.3331705,6.98764263 L69.8513756,5.51940632 C69.9179523,5.28716319 69.9731017,5.06656206 70.0501121,4.75755133 L70.0610426,4.75755133 C70.1385498,5.03352662 70.2046296,5.28716319 70.2707095,5.50831158 L70.7889146,6.98764263 L71.6494433,6.98764263 L71.8804744,3.9840593 L71.284762,3.9840593 L71.284762,3.9840593 Z" id="path116" fill="#FFFFFF"></path>
                    </g>
                </g>
            </g>
        </g>
    </g>
</svg>