<?xml version="1.0" encoding="UTF-8"?>
<svg width="200px" height="200px" viewBox="0 0 200 200" version="1.1" xmlns="http://www.w3.org/2000/svg" xmlns:xlink="http://www.w3.org/1999/xlink">
    <!-- Generator: Sketch 54.1 (76490) - https://sketchapp.com -->
    <title>cal-st-stanislaus</title>
    <desc>Created with Sketch.</desc>
    <g id="cal-st-stanislaus" stroke="none" stroke-width="1" fill="none" fill-rule="evenodd">
        <g id="cal-st-stanislaus_BGL" transform="translate(0.000000, -0.000000)" fill="#E21D25">
            <g id="cal-st-stanislaus" transform="translate(0.000000, 28.000000)">
                <g id="g10" transform="translate(99.915609, 72.040510) scale(-1, 1) rotate(-180.000000) translate(-99.915609, -72.040510) translate(0.000000, 0.141777)" fill-rule="nonzero">
                    <g id="g12" transform="translate(0.000000, 0.607595)">
                        <path d="M92.4678458,67.1912219 L93.5453141,70.18734 C92.9660736,69.8180573 92.3416011,69.496032 91.6597445,69.2286903 L92.4678458,67.1912219" id="path14"></path>
                        <path d="M39.2365222,89.4980568 L39.2370623,89.4001665 C39.4746994,88.6784788 39.7454842,87.9736687 40.0474589,87.2857362 L41.1273576,89.4980568 L56.7449775,89.4980568 L54.485737,85.9071708 L64.0835765,85.9071708 L71.0973822,85.9071708 L87.3154409,85.9071708 L88.4253142,85.9071708 L110.54717,85.9071708 L111.658394,85.9071708 L130.35949,85.9071708 C113.996959,93.5736685 98.1934153,99.3356937 100.508352,108.018225 C101.770124,112.556959 103.5362,115.835271 111.856875,115.835271 C111.856875,115.835271 132.034427,115.835271 127.748858,102.972487 L125.223963,95.657044 L179.703624,95.657044 C181.46835,111.798816 176.423962,142.821937 110.344639,142.821937 C110.344639,142.821937 49.0564038,142.821937 40.23075,108.773668 C37.5316784,101.217213 37.4530286,94.888774 39.2053999,89.4980568 L39.2365222,89.4980568" id="path16"></path>
                        <path d="M115.70025,67.1912219 L116.777719,70.1859898 C116.197803,69.8180573 115.57333,69.496032 114.891474,69.2286903 L115.70025,67.1912219" id="path18"></path>
                        <path d="M51.2982266,80.8425296 L48.5134165,76.4185635 C48.9538553,76.0432048 49.4040156,75.6745973 49.8647076,75.3120656 L52.8916105,79.7974664 L51.2982266,80.8425296" id="path20"></path>
                        <path d="M161.067338,61.5480153 L147.899406,61.5480153 L148.580587,63.4416862 C144.733836,60.8633909 140.337549,60.7634753 140.060081,60.7594922 L140.006748,60.7594922 C138.618056,60.7594922 131.546326,60.9689099 128.598815,65.1078465 C128.486748,65.265011 128.376706,65.4366903 128.270039,65.6194414 L126.838815,61.5480153 L117.939575,61.5480153 L113.669533,61.5480153 L105.467002,61.5480153 L104.486748,64.0506313 L103.606411,61.5480153 L94.7071706,61.5480153 L90.4371285,61.5480153 L82.233922,61.5480153 L81.254344,64.0519815 L80.3740064,61.5480153 L76.2140065,61.5480153 C93.9341749,54.3710366 109.975356,48.9290789 104.290293,37.9019062 C101.266495,32.1004549 95.7157782,26.8051301 87.898732,26.8051301 C87.898732,26.8051301 67.7218548,27.0540415 72.0074244,39.6650792 L75.7927407,50.7632055 L0,50.7632055 L19.9820417,37.6790539 C21.8117125,21.2038476 34.7705645,0.0667194042 89.409618,0.0667194042 C89.409618,0.0667194042 150.698393,0.0667194042 161.797802,42.9454166 C164.481346,50.4878975 163.938561,56.8114754 161.30835,62.2347326 L161.067338,61.5480153" id="path22"></path>
                        <polygon id="path24" points="71.2337535 81.1226984 71.4538379 73.3583104 73.6621079 79.4977195"></polygon>
                        <path d="M56.4477961,68.5299561 L61.7022769,76.7871711 L61.2521166,68.5664118 L56.4477961,68.5299561 Z M69.6600826,63.8367579 L69.0970447,83.6935 L51.3045726,83.6935 L56.2215007,80.4658208 L44.9994925,63.8367579 L53.6321337,63.8367579 L54.9828847,65.9767747 L60.988893,65.9767747 L60.9514921,63.8367579 L69.6600826,63.8367579 L69.6600826,63.8367579 Z" id="path26"></path>
                        <path d="M87.2621075,75.5854833 C87.2621075,75.5854833 86.6990696,75.3235424 85.4224451,75.3235424 L83.0204199,75.3235424 L84.2963692,78.9272554 L86.3237109,78.9272554 C87.4491117,78.9272554 87.8622763,78.5140909 87.8622763,78.5140909 C88.2754408,78.1016014 88.3125716,77.8011795 88.3125716,77.4251457 C88.3125716,77.0126563 87.9750189,75.9230361 87.2621075,75.5854833 L87.2621075,75.5854833 Z M95.5193225,75.9615171 C96.7210102,79.6023609 94.6187318,81.7039642 94.6187318,81.7039642 C94.6187318,81.7039642 92.5164534,83.6935 88.6129936,83.6935 L71.6853991,83.6935 L76.5643863,80.4273398 L70.5964539,63.8367579 L78.9664115,63.8367579 L81.331306,70.5566227 L83.9581414,63.8367579 L91.5780568,63.8367579 L88.8384788,70.7436269 C90.1893648,71.006243 91.7664112,71.4943442 93.0794913,72.5083526 C93.0794913,72.5083526 95.144639,74.1218547 95.5193225,75.9615171 L95.5193225,75.9615171 Z" id="path28"></path>
                        <path d="M110.493837,75.5854833 C110.493837,75.5854833 109.931474,75.3235424 108.65485,75.3235424 L106.252149,75.3235424 L107.528099,78.9272554 L109.55544,78.9272554 C110.681516,78.9272554 111.094681,78.5140909 111.094681,78.5140909 C111.507845,78.1016014 111.545651,77.8011795 111.545651,77.4251457 C111.545651,77.0126563 111.207423,75.9230361 110.493837,75.5854833 L110.493837,75.5854833 Z M118.751727,75.9615171 C119.95274,79.6023609 117.850461,81.7039642 117.850461,81.7039642 C117.850461,81.7039642 115.748858,83.6935 111.845398,83.6935 L94.9171284,83.6935 L99.7967908,80.4273398 L93.8281833,63.8367579 L102.198816,63.8367579 L104.56371,70.5566227 L107.191221,63.8367579 L114.810461,63.8367579 L112.070208,70.7436269 C113.421769,71.006243 114.998141,71.4943442 116.311896,72.5083526 C116.311896,72.5083526 118.376368,74.1218547 118.751727,75.9615171 L118.751727,75.9615171 Z" id="path30"></path>
                        <polyline id="path32" points="132.413161 83.6935 118.149533 83.6935 123.02852 80.4273398 117.060588 63.8367579 125.43122 63.8367579 132.413161 83.6935"></polyline>
                        <path d="M137.628351,68.9795763 L140.443541,77.049112 C141.232064,80.3152723 143.559153,80.3152723 143.559153,80.3152723 C143.559153,80.3152723 146.562022,80.3152723 145.924047,78.4006731 L143.108182,70.3311375 C142.321009,67.0648422 139.956115,67.0648422 139.956115,67.0648422 C139.956115,67.0648422 136.95257,67.0648422 137.628351,68.9795763 L137.628351,68.9795763 Z M140.218731,63.0487748 C140.218731,63.0487748 149.001853,63.1616524 151.553751,70.6315594 L153.319152,75.8494496 C156.245734,84.4435422 143.333667,84.295019 143.333667,84.295019 C143.333667,84.295019 134.55122,84.1816013 131.998646,76.7115593 L130.234596,71.4943442 C127.269533,62.9358972 140.218731,63.0487748 140.218731,63.0487748 L140.218731,63.0487748 Z" id="path34"></path>
                        <path d="M167.955439,75.5854833 C167.955439,75.5854833 167.392401,75.3235424 166.117127,75.3235424 L163.713751,75.3235424 L164.990376,78.9272554 L167.017717,78.9272554 C168.143793,78.9272554 168.556283,78.5140909 168.556283,78.5140909 C168.968772,78.1016014 169.006578,77.8011795 169.006578,77.4251457 C169.006578,77.0126563 168.669025,75.9230361 167.955439,75.5854833 Z M175.312738,81.7039642 C175.312738,81.7039642 173.21046,83.6935 169.307,83.6935 L152.378055,83.6935 L157.257718,80.4273398 L151.29046,63.8367579 L159.660418,63.8367579 L162.025312,70.5566227 L164.652148,63.8367579 L172.272738,63.8367579 L169.53181,70.7436269 C170.883371,71.006243 172.459743,71.4943442 173.772823,72.5083526 C173.772823,72.5083526 175.83797,74.1218547 176.213329,75.9615171 C177.414342,79.6023609 175.312738,81.7039642 175.312738,81.7039642 L175.312738,81.7039642 Z" id="path36"></path>
                        <path d="M191.525396,77.5385635 L199.633413,77.5385635 C199.896029,79.9412638 199.145311,84.5569599 189.31105,84.5569599 C189.31105,84.5569599 180.190375,84.5569599 178.87662,79.4902934 C176.24911,72.1323189 190.287253,72.5832893 188.410459,68.9424455 C187.960164,68.0789856 187.13451,67.2903274 185.970628,67.2903274 C185.970628,67.2903274 182.967759,67.3269857 183.606409,69.2050616 L184.169447,70.8556944 L175.949363,70.8556944 C175.536198,68.6798295 175.573329,63.3119984 186.196113,63.3119984 C186.196113,63.3119984 195.316788,63.3119984 196.968771,69.6924877 C199.145311,75.8109686 187.096704,76.5616858 187.847421,79.3768757 C188.035101,80.0533313 188.297717,80.5407575 189.536535,80.5407575 C189.536535,80.5407575 192.539404,80.5407575 191.90143,78.6261584 L191.525396,77.5385635" id="path38"></path>
                        <polyline id="path40" points="9.483139 63.4572811 20.2478982 63.4572811 27.543493 75.9338378 27.543493 63.4572811 37.8573493 63.4572811 52.8546822 87.2830358 42.7215517 87.2830358 37.2270708 76.0236268 37.1817037 87.2830358 27.0930626 87.2830358 20.2022611 76.0236268 21.2389531 87.2830358 2.95358642 87.2830358 10.6096875 82.2838798 9.483139 63.4572811"></polyline>
                    </g>
                </g>
            </g>
        </g>
    </g>
</svg>