<svg width="200" height="200" viewBox="0 0 200 200" fill="none" xmlns="http://www.w3.org/2000/svg">
<g clip-path="url(#clip0_11_241896)">
<path d="M199.027 133.627L191.809 125.794L182 99.7529C183.698 97.7798 184.644 95.3296 184.644 92.7932C184.644 91.1032 184.237 89.4643 183.455 87.963L184.798 86.033C185.248 85.3861 185.11 84.5317 184.472 84.033C178.172 79.13 171.722 74.7148 164.789 70.2107C165.533 66.1891 167.113 62.6311 167.113 62.6311L152.315 39.8275L149.843 39.7844C149.843 39.7844 146.029 44.143 145.083 50.8277C145.083 50.8277 139.713 47.1457 132.94 47.1457C130.401 47.1457 128.597 47.9678 128.597 47.9678C128.597 47.9678 132.204 50.7037 130.425 52.6552L116.279 36H114.099C114.099 36 110.473 40.9246 108.937 47.6686C105.638 46.6093 100.54 45.5931 93.7937 45.5931C77.4539 45.5931 69.1357 53.356 69.1357 53.356C79.4404 56.3022 84.427 59.1513 86.33 60.5044C86.7289 60.7874 86.6211 61.0165 86.3543 60.9437C83.3381 60.1135 75.5455 58.5475 64.5723 58.5475C31.3239 58.5475 21.0569 80.1246 21.0569 80.1246C21.0569 80.1246 27.836 78.3321 33.7768 78.3321C44.1327 78.3321 47.9036 83.3969 47.9036 83.3969C47.9036 83.3969 44.1704 82.8012 39.5181 82.8012C17.8817 82.8012 2.29924 95.5561 -0.00537109 97.5507C14.639 102.823 32.332 111.198 51.4401 122.263C74.2598 135.478 95.2439 150.301 111.538 164.166L143.741 145.958L143.757 149.533L158.574 163.492C159.032 163.926 159.665 164.169 160.323 164.169H182.108C182.738 164.169 183.31 163.791 183.558 163.212L186.612 156.977H190.299C191.011 156.977 191.652 156.578 191.911 155.969L199.685 137.737C200.272 136.363 200.016 134.786 199.022 133.627H199.027Z" fill="#C7C8CA"/>
<path d="M53.1492 87.0602C53.1492 87.0602 50.3944 85.5534 40.0358 85.5534C22.4615 85.5534 9.03 94.0926 5.31836 96.718C17.3832 101.373 30.9737 107.845 45.1922 115.697C45.1922 115.697 49.0494 110.276 55.2867 104.365C53.1627 103.729 50.2273 103.812 50.2273 103.812C50.2273 103.812 59.4539 94.5805 79.9447 83.5912C78.3059 82.9308 76.791 82.6235 76.791 82.6235C76.791 82.6235 90.4408 74.7042 113.034 69.2972C131.077 64.4346 140.188 64.2324 139.646 58.3213L155.404 67.9225C147.202 48.2969 132.835 49.3427 132.835 49.3427C136.897 53.2376 129.803 61.4103 112.026 52.0732C112.026 52.0732 106.217 48.2969 93.794 48.2969C81.3706 48.2969 74.7667 52.5988 74.7667 52.5988C74.7667 52.5988 90.3519 56.8819 90.3519 61.8847C90.3519 65.0626 82.8747 61.1785 65.3866 61.1785C38.0358 61.1785 26.6717 76.6746 26.6717 76.6746C44.5803 72.9279 53.1438 82.9146 53.1438 87.0602H53.1492Z" fill="#005F48"/>
<path d="M196.798 135.417L189.013 126.797L178.423 99.0226C180.318 97.47 181.477 95.222 181.477 92.7961C181.477 91.0117 180.852 89.3055 179.744 87.9011L180.625 86.6316C181.081 85.9766 180.933 85.1114 180.28 84.6154C174.407 80.1598 167.649 75.5937 161.35 71.5397C162.097 66.5801 163.625 62.8792 163.625 62.8792L151.808 43.8278L150.374 43.7847C148.032 47.9276 147.38 52.2133 147.382 55.7066C150.25 58.4102 153.083 62.4453 155.401 67.9251L139.644 58.3239C139.843 60.58 138.676 62.0329 135.9 63.262L116.255 40.0029H114.638C107.697 55.9169 112.32 67.661 113.037 69.2998C90.4353 74.7069 76.7936 82.6261 76.7936 82.6261C76.7936 82.6261 78.3085 82.9334 79.9473 83.5938C59.4565 94.5805 50.2299 103.815 50.2299 103.815C50.2299 103.815 53.1653 103.732 55.2893 104.368C49.0547 110.279 45.1948 115.699 45.1948 115.699C47.8202 117.155 50.2892 118.548 52.7691 119.982C74.3246 132.468 94.8505 146.708 111.538 160.708L136.15 146.805C135.98 146.576 128.67 136.737 131.848 125.495L146.929 140.716V148.36L159.916 160.598C160.374 161.032 161.008 161.274 161.665 161.274H181.027L184.582 154.08H188.402C189.113 154.08 189.755 153.681 190.014 153.072L197 136.683C197.181 136.258 197.105 135.775 196.795 135.417H196.798Z" fill="#1A1617"/>
<path d="M143.326 91.1221C142.754 91.7124 142.441 92.4725 142.441 93.2596C142.441 95.0278 144.029 96.4833 145.962 96.4833C146.97 96.4833 147.929 96.0871 148.595 95.3971L143.326 91.1221Z" fill="#005F48"/>
<path d="M174.431 93.583L175.547 96.5399C176.922 96.106 177.849 94.9146 177.849 93.583C177.849 92.4995 177.234 91.4887 176.226 90.9199L174.434 93.583H174.431Z" fill="#005F48"/>
<path d="M189.86 136.621L169.056 92.8903L172.048 88.4751C172.461 87.866 172.385 87.0492 171.865 86.5317C163.531 78.2513 141.773 65.3077 141.773 65.3077C141.479 65.5449 139.646 66.3185 137.398 67.1298L139.261 70.0921H137.088L117.446 48.5474C113.913 58.3238 117.611 66.8953 117.611 66.8953C117.611 66.8953 121.004 69.1945 127.905 69.9223C130.067 70.1487 133.04 75.3456 133.04 75.3456L128.773 75.3671C128.773 75.3671 127.802 73.2054 126.743 73.0221C122.083 72.2135 117.667 72.0194 117.667 72.0194C89.8396 82.2971 71.4054 99.6154 62.8042 110.125C81.0821 95.1356 104.193 93.1787 104.193 93.1787C104.193 93.1787 80.1063 99.4375 64.8366 122.131C81.7317 132.508 97.7211 143.81 111.514 155.131L111.64 155.22L126.441 146.586C123.916 141.036 123.261 132.672 126.137 124.346C124.374 123.783 122.73 123.139 121.247 122.486C116.624 120.422 113.673 118.414 113.673 118.414C113.673 118.414 111.042 109.23 115.845 95.5588H119.595C116.824 108.025 120.18 115.157 120.18 115.157C120.18 115.157 127.916 119.993 138.894 121.465L137.541 123.432L152.204 138.977V146.487L162.56 156.433H178.261L180.011 152.95L165.399 152.969L158.698 146.861H155.401L160.533 143.031L167.35 149.169L186.706 149.19L190.022 139.546C190.35 138.586 190.291 137.538 189.857 136.621H189.86ZM149.328 98.7933C148.145 99.4025 146.8 99.734 145.417 99.734C141.042 99.734 137.441 96.4375 137.441 92.4321C137.441 91.1113 137.832 89.8256 138.56 88.7042L136.212 86.5047L134.705 87.3323L135.023 82.9198L150.679 91.7124L154.797 101.761L153.309 102.521L149.328 98.7933ZM165.598 129.079L152.913 112.4L154.725 108.977L166.307 128.659L165.598 129.082V129.079ZM180.358 140.268L176.609 144.613C175.167 143.532 173.914 141.926 173.078 140.09C171.493 136.611 171.746 133.028 173.49 131.282C174.164 130.548 175.129 130.203 176.016 130.203C176.687 130.203 177.016 130.3 177.016 130.3L180.48 135.346L176.019 135.36L175.951 135.883C179.771 138.236 180.358 140.271 180.358 140.271V140.268Z" fill="#C7C8CA"/>
<path d="M131.845 125.489C128.667 136.735 135.978 146.57 136.147 146.8L146.927 140.71L131.845 125.489Z" fill="#005F48"/>
<path d="M72.8529 127.163C82.4056 103.456 104.196 93.1758 104.196 93.1758C104.196 93.1758 80.0175 99.4077 64.8394 122.125C67.5348 123.78 70.2087 125.462 72.8529 127.16V127.163Z" fill="#005F48"/>
<path d="M165.735 93.1759L185.436 127.322L169.056 92.8902L172.048 88.475C172.46 87.8659 172.385 87.0492 171.865 86.5316C163.53 78.2512 141.773 65.3076 141.773 65.3076L146.444 68.747C152.606 73.394 163.153 81.758 167.299 87.5101C167.611 87.9467 167.684 88.5101 167.477 89.006L165.738 93.1786L165.735 93.1759Z" fill="white"/>
<path d="M117.449 48.5498L134.393 70.0919H137.088L117.449 48.5498Z" fill="white"/>
<path d="M95.481 142.694C97.0605 143.853 98.6185 145.018 100.158 146.185C99.3354 132.721 106.694 116.443 106.694 116.443C106.694 116.443 97.5268 127.284 95.481 142.694Z" fill="white"/>
<path d="M196 161.743H195.067V164.228H194.482V161.743H193.55V161.309H196.003V161.743H196ZM198.28 163.398L199.046 161.309H199.86V164.228H199.323V161.819L198.429 164.228H198.124L197.181 161.819V164.228H196.66V161.309H197.458L198.283 163.398H198.28Z" fill="#C7C8CA"/>
</g>
<defs>
<clipPath id="clip0_11_241896">
<rect width="200" height="128.228" fill="white" transform="translate(0 36)"/>
</clipPath>
</defs>
</svg>
