<svg width="200" height="200" viewBox="0 0 200 200" fill="none" xmlns="http://www.w3.org/2000/svg">
<g clip-path="url(#clip0_11_241799)">
<path d="M111.149 37.2548C109.289 34.5242 105.898 33.3584 105.898 33.3584C109.116 32.3132 118.704 33.8724 118.704 33.8724C118.471 32.5429 118.012 31.3198 116.226 30.0621C140.951 31.828 150.533 57.1675 150.533 57.1675C152.39 60.4351 153.033 64.2655 156.137 67.0047C158.38 68.8079 161.182 70.5422 162.012 72.6785C162.879 74.9066 163.385 78.2862 161.691 81.0599C159.994 83.8336 155.221 85.8866 151.583 86.8772C147.948 87.8678 146.168 94.693 139.61 90.4262C139.61 90.4262 149.105 106.204 165.616 94.9342C166.118 97.0877 166.19 101.179 165.116 104.174C166.638 103.181 168.005 101.756 169.001 99.9275C170.201 102.707 169.101 109.202 167.91 111.927C169.854 111.72 171.645 110.58 173.164 108.8C171.565 116.056 166.066 126.048 160.981 131.176C164.622 132.196 179.039 151.123 197.08 160.024C198.274 160.719 200.462 162.043 199.911 163.637C198.541 167.056 194.114 165.902 192.27 169.109C190.605 171.165 192.041 175.283 188.851 176.018C186.002 176.477 181.773 173.557 179.829 177.597C179.829 177.597 177.48 180.916 174.557 178.085C172.696 176.282 172.337 173.979 171.091 170.918C169.845 167.857 165.363 157.3 163.385 153.027C161.892 155.1 162.256 157.618 161.708 159.913C160.197 165.098 156.93 169.951 152.095 173.063C152.367 174.976 151.761 177.336 149.783 178.183C147.354 179.222 144.173 176.848 141.646 175.645C126.057 177.847 114.245 168.687 103.316 158.224C103.316 158.224 45.8724 141.823 35.9031 137.729C32.4546 136.227 28.8597 134.432 27.1541 130.622C26.4937 127.211 27.9696 124.311 30.7519 122.531C33.807 120.374 37.7896 120.673 41.3069 119.76C41.8726 119.3 42.7455 119.24 42.9752 118.413C42.8575 117.377 42.5474 116.397 42.0707 115.476C38.2719 117.698 33.6606 118.488 29.4139 118.416C28.2022 122.522 23.3324 128.529 19.1661 130.252C20.0131 128.962 20.105 126.717 19.5824 126.114C16.9494 128.193 14.0407 129.936 10.7129 130.148C11.646 129.005 12.2433 127.507 12.5017 125.939C10.041 127.001 7.32755 127.535 5.02761 127.489C7.99657 122.91 6.12733 116.053 4.29829 109.13C3.16124 104.826 3.92215 102.092 4.51652 98.7014C3.72116 94.6901 0.605756 92.1978 0.106144 88.0774C-1.11417 79.6817 8.67134 76.8477 11.9648 70.6082C13.7105 67.4613 17.1188 63.8204 20.5012 63.7888C23.8837 63.7601 28.5553 66.775 32.8595 67.7943C34.9268 68.4289 36.5377 69.9162 37.9159 71.5845C39.1362 70.1862 40.4857 68.7304 42.0162 67.6048C40.5058 67.5072 38.9323 68.182 37.8786 69.4884C35.8543 65.8476 35.6964 61.7617 36.6353 57.8394C34.7086 58.4338 32.6211 59.7948 31.6018 61.8133C30.2925 56.1023 31.3865 49.4982 34.9929 45.016C32.7102 44.9184 30.5136 45.6161 28.4233 46.4747C30.2753 40.9875 37.5426 31.0499 45.8236 25.9733C56.861 19.2085 79.8259 17.7843 91.4491 31.6729C95.848 32.7985 100.864 35.2305 101.746 40.2295C102.386 41.0938 103.325 41.7456 104.201 42.2997C105.048 42.0786 105.984 41.9896 106.773 41.6049C104.393 39.816 103.213 39.2533 103.213 39.2533C106.081 37.3668 111.146 37.2491 111.146 37.2491L111.149 37.2548Z" fill="white"/>
<path d="M142.367 115.998C142.367 115.998 149.413 111.195 149.732 107.671C149.732 107.671 151.012 112.794 149.091 117.598C149.091 117.598 155.759 113.374 161.88 101.466C161.88 101.466 163.818 103.827 164.14 106.391C164.459 108.952 167.023 111.513 167.023 111.513L168.944 114.396C168.944 114.396 162.541 136.813 140.764 140.014L132.759 124.004C132.759 124.004 130.838 119.521 124.114 118.56L125.394 122.083C125.394 122.083 116.427 122.083 113.866 119.521C113.866 119.521 114.184 114.718 110.343 111.516C110.343 111.516 118.988 108.955 125.073 112.797C125.073 112.797 123.792 101.59 108.1 92.6227C108.1 92.6227 123.789 91.9824 142.364 115.998H142.367Z" fill="#EEE1C6"/>
<path d="M126.678 48.3237C126.678 48.3237 133.724 53.1275 135.323 60.1709C135.323 60.1709 136.604 58.2499 135.645 55.3671C135.645 55.3671 141.729 60.4896 140.767 70.4187L143.969 67.5358C143.969 67.5358 146.208 69.138 145.568 70.4187C145.568 70.4187 149.091 66.2552 152.612 66.8955C152.612 66.8955 162.538 69.138 159.977 79.0642C159.977 79.0642 157.415 82.5874 153.252 83.868C153.252 83.868 146.527 88.3501 145.247 89.6308C143.966 90.9114 135.32 84.827 135.32 84.827L129.236 73.6202C129.236 73.6202 138.844 64.653 126.675 48.3237H126.678Z" fill="#EEE1C6"/>
<path d="M119.206 79.92C109.444 73.2642 108.04 71.7338 103.236 74.9353C93.0542 81.7232 85.9046 88.244 85.9046 88.244C78.8612 86.6418 73.3281 89.8002 73.5004 93.9321C71.1918 95.9593 66.8532 96.6369 58.7934 90.699C47.9139 82.6851 45.6484 87.575 45.6484 87.575L47.6957 99.5025C47.6957 99.5025 70.3218 107.031 75.7659 107.35C79.7743 107.585 81.4884 100.318 81.4884 100.318C82.4503 98.397 88.7874 97.2083 88.7874 97.2083C88.4658 91.1239 96.7927 86.3202 96.7927 86.3202C111.793 77.8641 129.911 93.7943 134.924 98.4315C130.384 92.2897 125.69 84.3361 119.209 79.9171L119.206 79.92Z" fill="#EEE1C6"/>
<path d="M11.0203 103.318C11.0203 103.318 9.41808 108.441 11.9822 113.244C14.5434 118.048 12.6225 122.209 12.6225 122.209L14.8621 125.41L19.9846 121.887L23.8351 124.779L28.9087 115.788C28.9087 115.788 38.0309 114.473 41.4392 111.321C41.4392 111.321 39.5183 100.754 47.5236 100.114L44.3967 94.2505C44.3967 94.2505 40.1069 99.0542 34.393 106.198C32.2567 108.866 29.0551 111.43 25.2133 111.214C21.9888 111.036 17.1018 109.721 15.6058 105.024C15.6058 105.024 14.5377 108.441 15.178 110.04C15.178 110.04 10.6958 105.236 11.0145 103.315L11.0203 103.318Z" fill="#EEE1C6"/>
<path d="M29.0007 77.8726C29.0007 77.8726 26.9591 82.817 20.4556 81.7891C20.4556 81.7891 25.7503 85.384 25.7503 87.3049C25.7503 87.3049 35.7253 82.6763 29.0007 77.8726Z" fill="#EEE1C6"/>
<path d="M27.3867 75.2454C33.4711 76.3135 35.0532 73.4594 36.1213 72.71C36.1213 72.71 38.628 77.6199 33.896 80.1869C33.896 80.1869 31.3147 77.2495 27.3867 75.2454Z" fill="#EEE1C6"/>
<path d="M18.586 81.522C19.2263 86.6444 8.88379 89.444 8.88379 89.444C8.88379 89.444 15.5625 100.163 18.7641 100.481L21.9685 98.6122C21.9685 98.6122 24.5756 90.426 25.1729 88.9099C23.5075 84.4622 18.586 81.522 18.586 81.522Z" fill="#EEE1C6"/>
<path d="M48.85 70.7515C49.8291 70.4414 50.9346 68.9196 51.8965 66.9986C51.8965 66.9986 54.2682 62.884 61.3116 60.9602C61.3116 60.9602 56.5222 57.3079 56.9501 51.9701C56.9501 51.9701 56.8639 47.3214 62.2017 44.7601C62.2017 44.7601 63.9274 44.4788 67.9875 45.4722C67.9875 45.4722 76.4637 52.3261 79.0249 53.3943C81.5861 54.4624 84.3139 54.2126 86.2348 53.5723C88.1557 52.932 88.9942 51.08 88.8161 47.4305C90.3293 50.0118 89.6172 50.8129 91.7535 51.8811C91.7535 51.8811 93.1777 51.1316 93.1777 47.0744C93.1777 43.0172 94.286 36.5022 98.3404 37.9953C102.398 39.4884 99.0525 36.3041 97.6283 35.3249C96.2041 34.3458 92.3565 32.6546 89.7953 32.6546C89.7953 32.6546 80.3601 20.015 59.0863 23.7535C59.0863 23.7535 74.5772 22.5963 77.1384 32.5254C77.1384 32.5254 70.4137 29.6426 65.61 31.2448C65.61 31.2448 71.0541 34.1276 70.7325 36.3672C70.7325 36.3672 67.663 37.9867 62.0869 36.0456C54.7219 33.4844 47.0382 36.6859 42.8748 42.13C42.8748 42.13 44.477 41.8084 45.7576 41.4897C45.7576 41.4897 39.3545 49.1763 49.2807 57.1815C49.2807 57.1815 42.7714 59.3236 41.686 64.1187C41.686 64.1187 46.2945 69.2613 48.85 70.7486V70.7515Z" fill="#EEE1C6"/>
<path d="M111.149 37.2548C109.289 34.5242 105.898 33.3584 105.898 33.3584C109.116 32.3132 118.704 33.8724 118.704 33.8724C118.471 32.5429 118.012 31.3198 116.226 30.0621C140.951 31.828 150.533 57.1675 150.533 57.1675C152.39 60.4351 153.033 64.2655 156.137 67.0047C158.38 68.8079 161.182 70.5422 162.012 72.6785C162.879 74.9066 163.385 78.2862 161.691 81.0599C159.994 83.8336 155.221 85.8866 151.583 86.8772C147.948 87.8678 146.168 94.693 139.61 90.4262C139.61 90.4262 149.105 106.204 165.616 94.9342C166.118 97.0877 166.19 101.179 165.116 104.174C166.638 103.181 168.005 101.756 169.001 99.9275C170.201 102.707 169.101 109.202 167.91 111.927C169.854 111.72 171.645 110.58 173.164 108.8C171.565 116.056 166.066 126.048 160.981 131.176C164.622 132.196 179.039 151.123 197.08 160.024C198.274 160.719 200.462 162.043 199.911 163.637C198.541 167.056 194.114 165.902 192.27 169.109C190.605 171.165 192.041 175.283 188.851 176.018C186.002 176.477 181.773 173.557 179.829 177.597C179.829 177.597 177.48 180.916 174.557 178.085C172.696 176.282 172.337 173.979 171.091 170.918C169.845 167.857 165.363 157.3 163.385 153.027C161.892 155.1 162.256 157.618 161.708 159.913C160.197 165.098 156.93 169.951 152.095 173.063C152.367 174.976 151.761 177.336 149.783 178.183C147.354 179.222 144.173 176.848 141.646 175.645C126.057 177.847 114.245 168.687 103.316 158.224C103.316 158.224 45.8724 141.823 35.9031 137.729C32.4546 136.227 28.8597 134.432 27.1541 130.622C26.4937 127.211 27.9696 124.311 30.7519 122.531C33.807 120.374 37.7896 120.673 41.3069 119.76C41.8726 119.3 42.7455 119.24 42.9752 118.413C42.8575 117.377 42.5474 116.397 42.0707 115.476C38.2719 117.698 33.6606 118.488 29.4139 118.416C28.2022 122.522 23.3324 128.529 19.1661 130.252C20.0131 128.962 20.105 126.717 19.5824 126.114C16.9494 128.193 14.0407 129.936 10.7129 130.148C11.646 129.005 12.2433 127.507 12.5017 125.939C10.041 127.001 7.32755 127.535 5.02761 127.489C7.99657 122.91 6.12733 116.053 4.29829 109.13C3.16124 104.826 3.92215 102.092 4.51652 98.7014C3.72116 94.6901 0.605756 92.1978 0.106144 88.0774C-1.11417 79.6817 8.67134 76.8477 11.9648 70.6082C13.7105 67.4613 17.1188 63.8204 20.5012 63.7888C23.8837 63.7601 28.5553 66.775 32.8595 67.7943C34.9268 68.4289 36.5377 69.9162 37.9159 71.5845C39.1362 70.1862 40.4857 68.7304 42.0162 67.6048C40.5058 67.5072 38.9323 68.182 37.8786 69.4884C35.8543 65.8476 35.6964 61.7617 36.6353 57.8394C34.7086 58.4338 32.6211 59.7948 31.6018 61.8133C30.2925 56.1023 31.3865 49.4982 34.9929 45.016C32.7102 44.9184 30.5136 45.6161 28.4233 46.4747C30.2753 40.9875 37.5426 31.0499 45.8236 25.9733C56.861 19.2085 79.8259 17.7843 91.4491 31.6729C95.848 32.7985 100.864 35.2305 101.746 40.2295C102.386 41.0938 103.325 41.7456 104.201 42.2997C105.048 42.0786 105.984 41.9896 106.773 41.6049C104.393 39.816 103.213 39.2533 103.213 39.2533C106.081 37.3668 111.146 37.2491 111.146 37.2491L111.149 37.2548ZM109.843 43.7067C115.161 46.8968 114.27 52.5935 112.797 56.0075C116.14 55.4706 122.37 55.8869 124.016 58.807C124.642 59.9154 124.062 62.3847 123.235 63.5419C123.973 67.6364 121.035 74.5793 107.87 73.3217C102.71 75.7106 99.5376 80.1066 94.3319 83.1244C88.1901 86.6848 81.4252 84.5486 75.7285 84.5486C67.8955 86.3288 55.0779 85.2607 49.3811 77.2496C44.5889 84.5543 46.1767 93.8058 50.4005 99.023C56.3815 99.4451 71.8694 107.278 77.3939 105.07C78.2208 98.6124 84.2765 96.568 86.7659 96.4761C88.0121 88.5828 97.5363 81.7892 106.437 82.2343C120.254 82.9263 133.859 93.8546 141.212 107.215C141.597 107.987 142.045 108.829 141.562 109.549C129.092 90.4664 108.04 81.9672 95.9714 88.6948C92.8244 90.7507 90.8605 93.8058 90.0134 97.7165C99.3309 102.816 107.023 110.523 114.871 118.361C117.208 120.271 120.295 120.627 123.111 120.808C121.839 118.017 119.347 114.93 115.939 112.254C121.96 112.286 126.913 115.522 131.306 118.964C129.822 110.721 125.876 102.787 118.669 97.2944C117.386 96.2062 119.166 96.3842 120.415 97.1423C129.023 102.276 134.186 111.838 135.986 121C136.724 122.611 138.306 123.998 139.65 124.988C138.097 125.37 135.604 124.897 134.063 124.184C135.211 128.968 138.573 134.866 140.336 138.355C150.679 137.596 162.696 127.983 166.71 115.932C165.159 116.886 163.201 117.715 161.412 117.799C163.261 115.815 164.614 113.09 164.734 110.178C163.321 112.016 160.117 114.273 158.182 114.31C159.879 110.712 161.363 106.319 161.369 102.27C153.993 104.565 144.589 103.743 139.449 97.372C133.184 89.4385 131.051 79.8109 123.697 72.4775C127.28 68.5064 129.537 63.2232 128.851 57.3972C128.765 56.9952 129.144 56.8172 129.313 57.1589C131.745 61.2879 130.301 67.7197 128.716 71.1768C131.912 74.7602 135.627 78.3321 135.874 83.0784C136.423 85.3238 139.268 84.4395 140.793 84.8012C142.318 85.163 142.582 87.3165 144.141 87.842C145.7 88.3674 146.432 86.9634 147.035 86.4092C149.697 82.9464 152.232 80.9393 156.183 79.6587C156.381 80.8015 155.758 81.7806 155.012 82.9579C159.141 80.4454 159.256 77.1721 158.529 73.7351C157.803 70.2981 151.96 68.4289 149.763 64.7593C148.31 61.0582 147.052 57.2996 145.014 53.765C141.132 45.0964 132.44 37.4127 123.775 35.1415C123.775 35.1415 126.789 37.2232 127.002 39.526C127.002 39.526 119.996 36.5944 115.6 36.5341C115.6 36.5341 118.902 38.7938 119.465 40.1606C119.465 40.1606 115.652 39.5318 110.575 40.2496C110.575 40.2496 113.047 41.1742 113.693 42.7017C113.693 42.7017 111.517 42.6156 109.849 43.6981L109.843 43.7067ZM45.8236 72.9771L44.0031 70.6973C42.0822 71.194 40.7212 72.621 39.5497 74.1084C39.8311 76.1212 39.297 78.0192 38.3897 79.3744C40.1239 81.0254 41.5855 82.9579 41.4878 85.3037C41.3414 88.7436 38.7629 91.6666 36.486 93.7885C37.9848 94.337 38.2719 97.0159 37.4105 99.1206C36.931 97.3031 36.6209 95.6492 34.634 95.5802C31.4898 97.8945 29.8015 105.317 27.8691 105.501C25.796 105.644 23.7057 103.453 22.8242 101.452C21.7905 101.616 20.7166 102.012 19.4302 102.469C17.874 103.02 16.1024 101.94 14.8648 100.76C12.9783 98.6583 9.98354 95.9133 10.9253 92.7003C9.99789 91.9164 8.65698 90.7363 8.26074 89.4614C8.12866 89.091 8.43876 88.8211 8.75748 89.1284C11.5455 91.7269 14.1527 88.0372 17.3198 89.269C19.1201 90.1793 20.4266 93.2746 19.413 94.5782C18.4683 92.8008 17.2825 91.9451 16.4038 91.9049C15.2065 91.8504 14.2848 92.5223 13.4406 93.3894C14.2503 95.5487 16.3321 98.5578 17.8366 99.0517C19.3412 99.5484 20.685 98.5952 21.9082 97.8744C22.4624 94.7102 23.3927 91.4915 24.6388 89.1284C23.2635 85.1085 20.7223 83.0067 16.1942 80.1669C16.1942 80.1669 16.0708 79.4749 16.7025 79.6099C19.8925 81.1087 25.0207 81.7031 27.0938 85.9814C28.854 84.6692 31.6076 82.7023 30.4389 80.3047C29.1526 77.666 26.2439 75.4723 21.1329 73.1953C20.8803 73.0891 21.1243 72.532 21.512 72.6325C25.5318 73.6318 31.1625 75.2024 33.8357 79.7621C34.8464 78.7111 35.8256 77.689 36.2993 76.3882C36.8822 74.0309 35.2197 72.2679 32.825 71.0217C30.4303 69.7756 22.6863 66.6602 20.461 66.6602C18.5028 66.6602 17.2136 68.3083 16.5618 69.4281C17.762 68.5323 18.4138 68.4117 19.0656 68.5323C16.1397 73.6892 8.4445 78.6796 5.8603 80.8905C4.25235 82.2687 3.75561 84.0088 3.81591 86.3345C3.95086 91.5317 8.25787 94.1675 7.64053 98.845C6.21922 108.676 10.9426 114.287 11.0574 122.183C13.2511 121.761 14.9423 121.227 16.2402 119.955C16.668 121.23 16.9006 123.05 16.5445 124.156C18.7698 123.182 21.7503 120.156 22.5858 118.485C23.3152 119.516 23.6224 121.135 23.3984 122.47C25.2389 120.928 27.4929 116.834 27.5102 114.057C31.9234 114.824 36.8277 113.876 40.5202 111.134C38.5907 104.194 43.6356 99.6834 46.6878 99.4479C41.3787 93.4555 40.8447 78.1455 45.8293 72.9828L45.8236 72.9771ZM39.297 65.0579C41.8927 63.4041 44.6664 63.1428 46.059 63.6079C45.3469 65.9624 47.0697 68.7074 48.982 70.1747C50.0932 69.8186 51.0293 66.4793 52.5855 64.7909C54.1878 63.0566 57.5099 61.1702 60.2836 60.9864C58.0612 58.7324 56.815 57.001 56.4619 53.1965C56.0886 49.168 58.6843 45.6535 61.6015 44.5882C59.3705 44.0426 55.4052 43.8129 53.2919 44.7921C53.8317 44.0197 55.1784 43.1583 56.3786 42.6386C64.7198 39.3624 71.4301 48.0367 78.419 52.5562C80.6442 54.0033 83.9434 53.5841 86.0538 52.4183C87.4723 51.6086 88.394 50.0954 87.9231 47.7897C87.1679 44.0972 82.8695 39.7615 78.7118 38.0875C81.7095 38.7938 84.8192 39.5232 87.7451 38.8427C87.702 41.1656 89.2123 48.855 91.8137 51.1607C93.4849 48.3669 91.6616 44.3154 92.8187 39.8218C93.258 38.1162 94.5099 34.8113 98.7825 37.2175C97.0482 35.5952 91.7506 33.3986 89.3616 33.2723C88.3136 31.3915 86.4759 29.9817 84.7273 28.681C78.6889 24.5262 69.9744 23.1939 61.9605 23.7279C49.9238 24.529 39.3516 35.2994 34.9268 42.1303C36.8305 41.513 39.5899 40.8468 41.6371 41.0249C38.3868 44.4073 35.0302 49.5125 34.5162 54.7412C36.664 53.4807 39.3659 52.0192 41.7262 52.2403C39.0558 55.4907 38.4787 60.771 39.2941 65.0579H39.297Z" fill="#004275"/>
<path d="M158.547 149.443C157.674 150.276 156.732 150.713 155.434 151.405L154.469 146.854C155.664 145.906 157.028 143.982 158.213 141.872C159.043 141.608 160.137 142.297 161.022 142.719C161.062 140.982 158.811 140.178 158.811 140.178C159.46 138.785 159.549 136.353 159.666 134.217C162.871 135.164 175.479 152.315 192.98 160.771C194.352 161.454 196.666 162.7 195.271 163.671C192.819 165.242 188.848 166.264 188.759 169.867C186.436 168.414 178.574 160.188 176.949 158.25C176.357 157.584 175.958 158.092 176.469 158.907C176.978 159.72 182.402 167.826 185.276 172.167C183.553 172.543 181.621 171.013 180.182 172.305C178.936 173.25 178.491 175.607 177.024 175.578C175.413 175.547 168.412 158.158 165.512 149.883C166.405 148.556 166.98 145.828 165.541 143.267C165.257 145.182 164.932 146.331 163.939 147.078C163.233 146.274 161.831 145.49 160.766 145.254C161.714 146.454 162.308 148.143 162.248 149.438C161.358 150.744 159.655 152.84 159.043 154.362C159.104 152.435 158.928 151.005 158.547 149.443Z" fill="#F79239"/>
<path d="M158.724 158.856C157.74 163.033 155.382 166.958 151.443 169.434C150.412 164.302 147.828 155.935 145.528 150.305C147.5 150.098 149.436 149.311 151.276 148.456C151.276 148.456 152.818 154.913 152.577 156.283L155.42 154.787C155.42 154.787 155.595 159.703 154.952 160.63C156.674 160.329 158.724 158.858 158.724 158.858V158.856Z" fill="#EEE1C6"/>
<path d="M153.717 143.342C153.763 142.466 153.645 141.515 153.289 140.565C151.394 143.479 147.825 146.311 144.405 146.423C143.84 145.334 143.369 144.252 143.033 143.109C146.852 141.78 152.933 138.664 156.112 135.549C156.494 139.138 153.717 143.339 153.717 143.339V143.342Z" fill="white"/>
<path d="M147.948 172.087C140.621 155.669 119.1 131.791 105.797 118.91C98.0731 111.43 86.5016 101.283 81.2241 105.234C85.6115 95.9421 98.0731 107.247 103.534 112.306C116.231 123.625 132.233 141.726 138.84 151.574C142.593 157.168 149.433 168.041 147.948 172.087Z" fill="#F79239"/>
<path d="M144.377 174.254C125.291 161.81 95.8424 152.676 82.1978 148.636C68.5533 144.596 54.0616 140.12 40.4027 135.606C37.9305 134.633 34.6083 134.039 33.6579 131.664C32.7075 129.289 34.7031 128.773 37.1064 128.282C40.3022 127.627 44.457 126.206 46.5933 124.305C49.278 121.778 46.6794 116.811 46.3722 114.987C46.0018 112.794 47.604 111.82 48.7296 111.309C53.8319 108.995 64.9497 113.241 68.4298 113.979C72.3463 114.809 75.1746 114.694 77.9253 112.911C79.7888 111.542 80.8856 108.55 83.6507 108.667C87.4782 108.667 90.7315 111.82 94.0708 114.347C111.669 127.693 143.466 165.635 145.146 172.77C145.341 173.488 144.741 173.913 144.374 174.252L144.377 174.254Z" fill="#A32638"/>
<path d="M127.984 128.908C130.465 131.17 133.345 133.1 135.49 135.701C138.424 140.916 140.968 146.242 142.656 151.919C139.145 147.388 135.831 141.995 131.808 137.413C132.788 137.507 134.123 137.24 134.861 136.833C132.569 134.705 129.621 133.582 126.944 132.115C124.874 129.29 122.528 126.901 120.197 124.161C123.186 125.095 126.109 125.491 128.96 125.255C128.486 123.119 126.298 120.139 126.298 120.139C127.097 120.271 128.096 121.052 129.009 121.511C130.192 123.978 130.953 126.556 131.941 129.077C130.74 128.741 129.259 128.511 127.987 128.908H127.984Z" fill="#F79239"/>
<path d="M115.29 162.93C122.813 165.572 129.733 169.474 136.791 173.123C130.385 173.201 119.583 167.625 115.29 162.93Z" fill="#EEE1C6"/>
<path d="M88.8164 79.2967C94.5418 78.1395 98.0908 73.6143 102.811 69.626C109.734 63.78 118.159 64.136 119.591 67.4438C117.168 69.1121 114.302 69.827 111.155 69.6289C112.137 68.7933 113.384 68.2593 112.996 67.26C107.954 67.8171 105.243 70.5678 102.791 72.5347C100.342 74.5015 92.0581 84.6 84.1849 81.9125C84.1849 81.9125 75.5681 79.4632 69.3976 80.8587C69.3976 80.8587 70.0694 81.5019 70.9653 82.1852C63.6262 83.127 50.2745 78.3204 52.9994 71.4321C55.1816 65.9163 61.1338 63.4555 72.958 62.6515C73.4145 61.77 72.2 60.8139 72.8575 59.7486C76.9779 57.3109 79.9669 57.9713 86.5021 57.2218C92.7329 56.5098 105.105 55.0856 105.246 45.0244C109.823 45.4723 113.295 52.6823 108.445 56.8543C101.519 59.137 95.0271 64.8194 90.5765 70.9411C90.5363 71.1651 90.588 71.3919 90.7775 71.5297C99.2882 63.958 107.515 58.3216 115.781 58.8901C121.303 59.2691 121.007 61.8217 120.031 63.1483C119.611 63.1626 119.298 62.9243 118.876 63.0018C118.81 60.1621 112.95 60.5354 110.205 61.6437C101.838 65.0261 96.0321 74.7485 89.7008 76.0923C83.3723 77.4361 78.9361 72.7874 75.6398 70.6568C72.3435 68.5263 66.9741 65.81 61.9292 67.0131C58.2539 67.8544 54.6303 71.1076 54.6877 74.7542L56.9704 73.3387C61.8029 77.0886 67.379 80.0633 74.342 79.1703C75.324 79.2565 78.738 78.777 81.3279 78.6793C83.915 78.5846 85.9336 79.8767 88.8106 79.2967H88.8164Z" fill="#F79239"/>
<path d="M44.744 109.345C44.1898 108.001 44.1611 106.207 45.189 104.952C48.1465 101.34 56.2351 103.829 60.8206 105.523C65.4061 107.217 71.3785 109.486 77.147 108.636C75.9066 111.608 69.0987 110.554 63.6632 109.124C58.2249 107.694 49.9181 105.024 44.744 109.348V109.345Z" fill="#F79239"/>
<path d="M71.1604 56.5383C69.7362 57.6983 68.6078 58.3788 68.6078 58.3788C67.3473 58.9387 66.2935 59.7427 63.6835 60.0987C60.0053 58.7923 58.5897 54.7408 59.1152 51.792C59.6406 48.8402 61.8458 46.4513 64.5047 46.4082C68.3838 47.6056 71.5682 50.7353 74.362 53.9167C73.179 54.5226 72.5272 55.5304 71.1604 56.5383Z" fill="white"/>
<path d="M29.6694 128.996C30.1001 125.376 35.5585 121.815 42.0966 123.148C37.221 124.543 32.2364 125.967 29.6694 128.996Z" fill="#F79239"/>
<path d="M71.3267 72.322L71.3152 72.3421L69.6498 71.4606C69.1646 71.4176 66.4454 74.777 66.4454 74.777C66.4282 74.5157 67.8122 70.6538 67.8122 70.6538C67.0254 70.2346 66.1009 70.0537 65.3256 70.0853C64.8518 70.2001 63.4478 73.1605 63.4478 73.1605C63.3473 72.9193 63.5052 69.7809 63.5052 69.7809C61.9346 69.5857 60.2261 69.6086 58.9312 70.5188C61.2713 73.3356 64.9897 75.4288 69.3082 76.072L69.2794 76.1237C71.4157 76.6348 75.1054 76.4453 76.5812 75.782L71.3238 72.3192L71.3267 72.322Z" fill="white"/>
<path d="M71.6281 55.6281C71.7171 55.2865 71.7343 54.9419 71.7343 54.5744C71.7343 52.3232 69.9599 50.4971 67.769 50.4971C65.5782 50.4971 63.8037 52.3232 63.8037 54.5744C63.8037 56.8255 65.5782 58.6517 67.769 58.6517C67.97 58.6517 67.8695 58.6804 68.0619 58.6517C68.0619 58.6517 69.756 57.9568 70.5169 57.3337C71.0883 56.8657 71.6252 55.6253 71.6252 55.6253L71.6281 55.6281Z" fill="#A32638"/>
<path d="M67.7694 56.84C69.0213 56.84 70.0349 55.8265 70.0349 54.5746C70.0349 53.3227 69.0213 52.3091 67.7694 52.3091C66.5175 52.3091 65.5039 53.3227 65.5039 54.5746C65.5039 55.8265 66.5175 56.84 67.7694 56.84Z" fill="#004275"/>
<path d="M63.4424 53.5322L65.2054 51.1289L67.3704 54.0921L63.4424 53.5322Z" fill="white"/>
<path d="M95.5954 40.1978C94.9264 41.1683 94.4814 43.2471 94.5847 45.0187C94.958 46.0065 95.1044 47.8757 94.6881 50.1986C94.5129 51.7032 94.1885 52.6594 94.1885 52.6594C94.1885 52.6594 95.6414 51.9415 97.4934 51.7405C98.2313 51.6601 99.1559 51.06 99.756 50.816C100.996 50.4341 102.177 49.4406 102.435 47.3991C102.734 45.0302 99.4689 40.8151 95.5983 40.2006L95.5954 40.1978Z" fill="white"/>
<path d="M97.4903 51.7404C97.4903 51.7404 98.6302 51.5481 99.2275 51.2581C100.29 50.747 100.611 50.4483 100.611 50.4483C101.255 49.7535 101.481 48.9553 101.53 47.9646C101.637 45.7767 99.9223 43.9218 97.6741 43.8098C96.3877 43.7467 95.1157 44.3353 94.5386 45.1163C94.9406 47.4966 94.685 50.1985 94.685 50.1985C95.354 51.1088 96.3963 51.4964 96.3963 51.4964C96.7323 51.6026 97.1199 51.7232 97.4903 51.7404Z" fill="#A32638"/>
<path d="M95.3601 47.6748C95.2998 48.9238 96.2617 49.9891 97.5107 50.0494C98.7598 50.1097 99.825 49.1478 99.8853 47.8988C99.9456 46.6497 98.9837 45.5845 97.7347 45.5242C96.4857 45.4639 95.4204 46.4258 95.3601 47.6748Z" fill="#004275"/>
<path d="M99.2332 43.1382L101.547 45.0189L98.478 47.0317L99.2332 43.1382Z" fill="white"/>
<path d="M26.6977 100.459C25.6124 98.7042 26.1579 95.7324 26.6317 93.7225C28.0674 88.7895 34.7863 82.8573 36.9886 81.9873C39.0473 85.8435 35.7108 90.5037 33.7784 92.2868C31.846 94.0699 28.6445 96.9183 26.6977 100.456V100.459Z" fill="#EEE1C6"/>
<path d="M73.9914 71.6707L70.5889 75.3431L72.326 70.9385L73.9914 71.6707Z" fill="#004275"/>
</g>
<defs>
<clipPath id="clip0_11_241799">
<rect width="200" height="158.234" fill="white" transform="translate(0 21)"/>
</clipPath>
</defs>
</svg>
