<svg width="200" height="200" viewBox="0 0 200 200" fill="none" xmlns="http://www.w3.org/2000/svg">
<g clip-path="url(#clip0_11_241794)">
<path d="M71.7204 86.2882L26.3232 150.836L64.7755 174.1C64.7755 174.1 144.027 160.915 147.665 161.563C151.303 162.212 170.095 153.79 170.095 153.79L139.443 139.5C139.443 139.5 138.021 85.1975 135.909 84.1758C133.796 83.1541 75.6484 84.1758 75.6484 84.1758" fill="white"/>
<path d="M86.5489 188.521C85.0094 188.521 83.5252 188.494 82.1514 188.459C79.5833 188.397 77.0428 188.245 74.599 188.01C72.5487 187.81 70.2222 187.582 67.8958 187.251C64.8375 186.816 62.0071 186.312 59.2388 185.705C54.9863 184.773 50.8373 183.599 46.9024 182.211C43.2919 180.934 40.0679 179.595 37.0442 178.111C33.1507 176.198 29.7266 174.21 26.5786 172.036C23.7758 170.096 21.332 168.17 19.109 166.14C14.9394 162.343 11.5498 158.429 8.74696 154.176C6.57928 150.89 5.09504 147.432 3.65221 144.084C3.35536 143.4 3.06542 142.71 2.76167 142.026C1.52595 139.224 0.352362 132.935 0.0278992 127.398C-0.234432 123.007 1.07032 113.991 1.2222 112.984L2.34056 105.383L8.40869 110.091C13.8003 114.274 31.4317 127.964 32.1566 128.572C32.9712 129.255 34.2621 130.774 33.8617 133.356C33.7651 134.005 33.6546 134.633 33.5511 135.261C33.4682 135.737 33.3923 136.221 33.3164 136.697C33.2335 137.222 33.1576 137.753 33.0747 138.278C33.6615 137.601 34.2552 136.932 34.842 136.255C36.0985 134.819 37.3549 133.39 38.6251 131.968C39.2119 129.973 39.8056 127.985 40.4062 125.99L42.7948 117.975C43.568 115.372 44.3412 112.77 45.1213 110.167C45.715 108.172 46.3156 106.184 46.9162 104.189C46.4536 104.189 45.9842 104.189 45.5217 104.195C43.7544 104.182 42.1873 103.464 41.0897 102.097C40.0058 100.737 38.9082 99.3768 37.8174 98.0237L29.8646 88.1104C29.6851 87.8895 29.5126 87.6617 29.3055 87.3993L23.3271 79.7917H37.5137C43.0847 79.7917 48.6489 79.7917 54.22 79.7917C54.8137 77.8035 55.4074 75.8222 56.008 73.834C55.3729 72.5983 54.6549 71.335 53.9094 70.0164C52.9567 68.3389 51.9695 66.5992 51.1135 64.8319L45.2455 52.7026H86.9355H89.835C93.3281 52.7026 96.8212 52.7026 100.314 52.6957C100.452 52.6957 100.591 52.6957 100.722 52.7095C98.3055 49.7548 96.8489 46.3514 96.407 42.5614C95.6546 36.1343 97.5116 29.9626 101.93 24.2189C105.002 20.2218 109.061 17.0393 113.997 14.7612C116.745 13.4909 119.699 12.6349 122.785 12.2276C124.546 11.9929 126.354 11.9238 128.17 12.0343C133.458 12.345 138.014 14.0708 141.721 17.1705C145.746 20.5394 148.128 24.8609 148.79 30.0247C149.26 33.6352 148.811 37.3079 147.465 40.9253C146.133 44.5013 144.062 47.7873 141.3 50.6867C140.631 51.3909 139.926 52.0674 139.202 52.7026C151.069 52.7095 170.074 52.6542 178.489 52.6266C181.517 52.6174 183.108 52.6197 183.259 52.6335L191.689 53.4136L183.908 62.8644C182.721 64.3073 181.416 65.9089 180.091 67.5312C179.2 68.6219 178.303 69.7265 177.433 70.7896L176.604 71.8044C175.424 73.2472 174.209 74.7384 172.973 76.2019C172.973 76.2157 172.966 76.2295 172.959 76.2433L172.904 76.4159C172.566 77.5343 172.235 78.6595 171.896 79.7779H197.218L190.329 87.5788C190.039 87.9171 189.769 88.2208 189.486 88.5108C188.893 89.1114 188.299 89.712 187.698 90.3126C187.063 90.9477 186.428 91.5897 185.8 92.2248C183.308 94.7653 180.829 97.3127 178.344 99.8601L177.592 100.633C177.067 101.172 176.535 101.71 176.025 102.269C174.934 103.464 173.491 104.092 171.855 104.092H171.834C169.446 104.085 167.05 104.092 164.662 104.085C163.674 107.461 162.673 110.83 161.672 114.199C161.051 116.297 160.423 118.389 159.801 120.481L155.88 133.652C156.426 134.93 156.964 136.214 157.51 137.491C157.565 137.27 157.62 137.056 157.675 136.835C158.103 135.157 158.531 133.473 158.945 131.789C159.332 130.221 160.25 128.979 161.672 128.095C162.604 127.515 163.081 127.246 163.667 126.901C165.435 125.879 168.396 124.167 191.557 109.47L199.973 104.126L198.392 113.971C198.281 114.661 195.575 131.002 186.635 143.497C185.02 145.754 183.211 147.756 181.658 149.42C181.395 149.696 181.14 149.979 180.885 150.255C180.215 150.987 179.525 151.746 178.745 152.492L178.662 152.575C177.088 154.08 175.465 155.64 173.753 157.138C171.482 159.119 169.08 161.038 166.408 163.006C163.032 165.491 159.442 167.825 155.756 169.958C152.615 171.773 149.805 173.264 147.182 174.528C140.886 177.545 134.397 180.099 127.908 182.108C122.751 183.703 117.545 185.007 112.43 185.981C110.131 186.422 107.68 186.816 104.491 187.258C102.02 187.603 99.5412 187.831 97.1457 188.052L96.3656 188.121C95.268 188.224 94.2186 188.259 93.2038 188.293C92.6447 188.314 92.0855 188.335 91.5332 188.362C89.8418 188.459 88.1574 188.494 86.5351 188.494L86.5489 188.521ZM9.18878 122.062C9.0231 123.953 8.92645 125.734 8.98858 126.88C9.28543 131.899 10.3486 136.98 10.9768 138.423C11.2874 139.134 11.5912 139.838 11.8949 140.549C13.2411 143.676 14.5113 146.624 16.2372 149.247C18.6258 152.865 21.5391 156.227 25.1496 159.513C27.0756 161.266 29.2088 162.951 31.6802 164.663C34.4554 166.582 37.5068 168.349 40.993 170.061C43.7061 171.394 46.6124 172.602 49.8916 173.762C53.4675 175.025 57.2575 176.102 61.1511 176.951C63.6985 177.51 66.3149 177.973 69.1522 178.38C71.2785 178.684 73.5014 178.898 75.462 179.091C77.6849 179.305 80.0044 179.443 82.3585 179.498C84.9956 179.56 88.0608 179.609 91.0361 179.443C91.6575 179.409 92.2719 179.388 92.8932 179.36C93.8251 179.326 94.7088 179.298 95.5441 179.215L96.3311 179.139C98.7266 178.918 100.998 178.711 103.262 178.394C106.3 177.973 108.612 177.6 110.759 177.193C115.543 176.281 120.424 175.059 125.263 173.561C131.339 171.684 137.414 169.295 143.316 166.465C145.739 165.305 148.342 163.917 151.29 162.219C154.7 160.251 158 158.098 161.113 155.806C163.578 153.997 165.787 152.23 167.865 150.414C169.418 149.061 170.895 147.639 172.462 146.134L172.545 146.051C173.111 145.506 173.677 144.884 174.278 144.235C174.561 143.932 174.837 143.621 175.12 143.317C176.473 141.868 178.04 140.142 179.352 138.312C182.776 133.528 185.165 127.923 186.773 123.173C172.131 132.424 169.715 133.818 168.175 134.709C167.906 134.867 167.665 135.006 167.381 135.171C167.057 136.469 166.726 137.774 166.394 139.072C166.001 140.618 165.607 142.164 165.228 143.718C164.958 144.808 164.247 146.32 162.418 147.349L161.852 147.666C160.858 148.226 159.857 148.785 158.876 149.372C157.206 150.366 155.728 150.2 154.783 149.889C153.837 149.579 152.553 148.826 151.8 147.038C150.33 143.531 148.846 140.024 147.361 136.524L147.147 136.013C146.643 134.833 146.581 133.549 146.954 132.306L151.234 117.94C151.856 115.855 152.484 113.764 153.105 111.679C154.368 107.419 155.625 103.16 156.874 98.8936C157.551 96.574 159.477 95.1381 161.9 95.1381H161.935C164.779 95.1519 167.623 95.1381 170.474 95.1519C170.716 94.9034 170.964 94.6479 171.206 94.3994L171.952 93.6331C173.526 92.0177 175.106 90.4023 176.68 88.7869H166.684C165.987 88.7869 163.861 88.7869 162.439 86.8816C161.023 84.9762 161.624 82.9466 161.824 82.277L162.791 79.0392C163.302 77.3134 163.819 75.5875 164.337 73.8616L164.378 73.7305C164.586 73.0401 164.924 71.8804 165.877 70.7551C167.154 69.2432 168.431 67.6761 169.673 66.1574L170.502 65.1426C171.372 64.0864 172.262 62.9887 173.153 61.898L173.36 61.6494C163.591 61.677 148.39 61.7185 138.566 61.7116C138.09 62.3329 137.621 62.9473 137.144 63.5686L133.465 68.3734C131.131 71.4247 128.791 74.483 126.451 77.5274C126.403 77.5895 126.354 77.6585 126.306 77.7207C125.975 78.1832 125.422 78.9633 124.497 79.6813L114.756 87.282L119.154 66.7649C120.024 62.678 120.9 58.5981 121.757 54.5113C122.15 52.6266 123.386 51.239 125.236 50.6039C129.026 49.3061 132.16 47.3248 134.804 44.5358C136.751 42.4854 138.145 40.2901 139.063 37.8256C139.906 35.5544 140.182 33.3867 139.899 31.2052C139.526 28.3126 138.242 25.9793 135.971 24.0808C133.748 22.2238 131.028 21.2228 127.659 21.0295C126.416 20.9536 125.181 21.0019 123.986 21.1607C121.798 21.4506 119.706 22.0512 117.78 22.9487C114.121 24.64 111.27 26.856 109.061 29.7348C106.037 33.6697 104.857 37.4252 105.34 41.5673C105.616 43.9352 106.583 45.9579 108.281 47.7528C109.406 48.9402 110.752 49.8514 112.409 50.528C114.881 51.5428 116.054 54.1109 115.212 56.6375C113.707 61.1386 112.202 65.6396 110.704 70.1407L108.647 76.2986C108.136 78.1073 106.645 79.4258 104.795 79.6951L101.281 80.199L100.011 76.9682C99.8933 76.6921 99.7345 76.2986 99.6448 75.7808C99.1822 73.2058 98.7197 70.6032 98.2572 68.0006L97.9189 66.0745C97.6635 64.6455 97.408 63.1889 97.1526 61.7254C94.7157 61.7254 92.2857 61.7254 89.8488 61.7254H86.9493H59.5771C60.2191 62.9818 60.9509 64.2727 61.7241 65.6258C62.7458 67.4276 63.802 69.2847 64.7064 71.19C65.307 72.4671 65.4105 73.8409 65.0101 75.1595L64.8582 75.6565C63.9125 78.7838 62.9667 81.9111 62.0485 85.0383C61.3651 87.3648 59.4321 88.8076 56.9952 88.8076H56.9883C51.9626 88.8007 46.93 88.7938 41.9043 88.7938L44.8244 92.4319C45.5769 93.3708 46.3294 94.3028 47.0818 95.2416C47.8343 95.2416 48.5937 95.2416 49.3462 95.2416C50.3955 95.2416 51.431 95.2416 52.4803 95.2416C54.7999 95.2485 56.0287 96.4981 56.5534 97.2575C56.9814 97.865 57.8789 99.5287 57.0435 101.745C56.9883 101.897 56.9469 102.055 56.8986 102.214L55.9528 105.369C55.2072 107.834 54.4685 110.305 53.7299 112.77C52.9567 115.365 52.1835 117.968 51.4103 120.564L49.0217 128.592C48.4004 130.663 47.786 132.734 47.1716 134.805C46.8471 135.917 46.2672 136.932 45.4595 137.836C44.1686 139.279 42.8845 140.735 41.6074 142.192C39.6192 144.463 37.6379 146.728 35.6704 149.013C33.9101 151.056 31.0796 151.36 28.9534 149.724L28.3114 149.227C27.5934 148.667 26.91 148.143 26.2472 147.701C23.9415 146.175 22.975 143.842 23.5273 141.136C23.7827 139.886 23.9691 138.602 24.1693 137.235C24.2659 136.593 24.3557 135.958 24.4592 135.316C24.5214 134.916 24.5904 134.509 24.6594 134.108C21.6495 131.754 15.2569 126.79 9.18188 122.068L9.18878 122.062ZM108.481 74.1654C108.481 74.1654 108.481 74.193 108.488 74.2068C108.488 74.193 108.488 74.1792 108.481 74.1654ZM105.464 56.962C105.464 56.962 105.471 57.0034 105.478 57.0241L105.527 57.3072C105.554 57.2243 105.582 57.1415 105.609 57.0517C105.561 57.0241 105.513 56.9896 105.464 56.962Z" fill="white"/>
<path d="M31.8454 84.2999C32.163 84.2999 32.3563 84.2999 32.5496 84.2999C40.454 84.2999 48.3585 84.2999 56.2699 84.3137C56.7048 84.3137 56.8912 84.1964 57.0154 83.7684C57.9888 80.4616 58.9898 77.1549 59.9839 73.855C60.0668 73.5858 60.0322 73.3511 59.9149 73.0956C58.3133 69.706 56.7186 66.3095 55.1239 62.913C54.3162 61.201 53.5154 59.4889 52.7077 57.7769C52.4453 57.2246 52.4453 57.2246 53.0667 57.2246C64.1191 57.2246 75.1715 57.2246 86.2239 57.2246C90.6905 57.2246 95.1501 57.2246 99.6167 57.2177C100.031 57.2177 100.231 57.2522 100.314 57.7561C100.832 60.911 101.398 64.0521 101.957 67.2001C102.419 69.8027 102.882 72.3984 103.345 75.001C103.358 75.0769 103.4 75.1529 103.434 75.2357C103.6 75.215 103.593 75.0769 103.621 74.9872C105.823 68.3875 108.018 61.7947 110.227 55.195C110.331 54.8981 110.262 54.7808 109.972 54.6634C107.818 53.7729 105.899 52.5164 104.29 50.8251C101.964 48.3674 100.549 45.4611 100.148 42.0715C99.4786 36.3623 101.349 31.4333 104.774 26.9874C107.535 23.3907 111.069 20.7605 115.163 18.869C117.552 17.7644 120.051 17.0603 122.66 16.7082C124.172 16.508 125.684 16.4597 127.189 16.5425C131.248 16.7772 134.962 17.9922 138.117 20.6363C141.238 23.2527 143.095 26.5939 143.619 30.6256C144.006 33.6286 143.592 36.5556 142.535 39.386C141.376 42.4995 139.608 45.2126 137.323 47.6219C134.127 50.9839 130.316 53.3517 125.946 54.8429C125.636 54.9533 125.484 55.0776 125.408 55.4228C124.386 60.3035 123.344 65.1774 122.301 70.0512C121.88 72.0394 121.452 74.0276 120.997 76.1331C121.535 75.712 121.818 75.215 122.15 74.7801C125.325 70.6518 128.487 66.5097 131.649 62.3746C132.829 60.8351 134.017 59.3025 135.183 57.7561C135.459 57.3972 135.742 57.2108 136.239 57.2108C151.261 57.2315 166.283 57.2384 181.298 57.2384C181.367 57.2384 181.43 57.2384 181.499 57.2384C181.609 57.2453 181.754 57.1901 181.823 57.3005C181.906 57.4386 181.775 57.549 181.699 57.6388C181.043 58.4396 180.38 59.2335 179.724 60.0343C177.564 62.6783 175.403 65.3292 173.242 67.9733C171.689 69.8648 170.149 71.7702 168.568 73.641C168.182 74.0966 168.058 74.6213 167.899 75.1529C167.057 77.9557 166.228 80.7585 165.393 83.5613C165.179 84.2861 165.186 84.2999 165.945 84.2999C172.6 84.2999 179.255 84.2999 185.91 84.2999C186.089 84.2999 186.269 84.2999 186.559 84.2999C186.193 84.7072 185.903 85.0731 185.578 85.4045C184.357 86.6471 183.114 87.8759 181.892 89.1254C179.2 91.8799 176.507 94.6344 173.822 97.3958C173.214 98.0171 172.6 98.6453 172.013 99.2873C171.772 99.5497 171.516 99.6532 171.15 99.6532C167.823 99.6394 164.495 99.6532 161.168 99.6325C160.747 99.6325 160.56 99.7568 160.443 100.157C159.193 104.43 157.937 108.697 156.667 112.963C155.631 116.456 154.582 119.949 153.54 123.449C152.532 126.832 151.524 130.222 150.516 133.604C150.447 133.839 150.447 134.046 150.543 134.274C152.104 137.954 153.664 141.626 155.203 145.313C155.362 145.685 155.493 145.734 155.845 145.527C157.046 144.816 158.268 144.132 159.483 143.449C159.808 143.269 160.036 143.055 160.132 142.655C160.94 139.403 161.782 136.159 162.583 132.907C162.7 132.445 162.935 132.189 163.322 131.954C167.063 129.635 170.798 127.288 174.54 124.954C178.993 122.179 183.445 119.411 187.898 116.636C190.218 115.193 192.53 113.75 194.85 112.307C194.919 112.266 194.981 112.204 195.119 112.252C195.133 112.894 194.905 113.515 194.781 114.15C194.063 117.871 192.986 121.489 191.557 124.996C190.473 127.667 189.175 130.236 187.753 132.741C186.124 135.606 184.274 138.319 182.272 140.936C180.829 142.827 179.296 144.657 177.667 146.403C176.756 147.377 175.886 148.385 174.926 149.31C173.339 150.835 171.751 152.361 170.087 153.811C167.823 155.792 165.462 157.656 163.039 159.437C159.753 161.853 156.335 164.076 152.801 166.12C150.095 167.68 147.347 169.178 144.524 170.531C138.483 173.43 132.27 175.888 125.864 177.869C120.935 179.395 115.943 180.658 110.876 181.625C108.315 182.115 105.74 182.508 103.158 182.867C100.528 183.233 97.877 183.468 95.233 183.71C93.6797 183.855 92.1126 183.855 90.5593 183.944C87.5494 184.117 84.5326 184.076 81.5227 184.007C79.1134 183.951 76.7041 183.813 74.3017 183.579C72.1271 183.365 69.9594 183.151 67.7986 182.847C65.0027 182.453 62.2275 181.963 59.4731 181.363C55.476 180.486 51.5341 179.388 47.6751 178.021C44.4788 176.889 41.3446 175.619 38.3002 174.121C34.8691 172.436 31.5555 170.559 28.4075 168.384C25.9568 166.693 23.6096 164.87 21.4074 162.861C17.7555 159.534 14.4901 155.875 11.7702 151.747C9.4023 148.157 7.51765 144.332 6.14387 140.259C5.14286 137.298 4.45252 134.26 4.09354 131.147C3.94166 129.828 3.87953 128.496 3.77598 127.17C3.64482 125.486 3.74146 123.815 3.83121 122.145C3.97618 119.508 4.35587 116.891 4.92886 114.309C5.03931 113.812 5.17738 113.322 5.25332 112.818C5.31545 112.425 5.46733 112.501 5.68133 112.68C6.35097 113.239 7.02061 113.791 7.69024 114.351C9.82341 116.152 11.9566 117.954 14.0828 119.763C16.1884 121.551 18.2801 123.353 20.3857 125.134C22.3877 126.832 24.4035 128.517 26.4124 130.215C27.1304 130.815 27.8345 131.437 28.5525 132.037C28.7872 132.238 28.7389 132.486 28.7044 132.721C28.5387 133.825 28.3385 134.916 28.1659 136.021C27.8483 138.03 27.6067 140.052 27.1994 142.04C27.013 142.965 27.2546 143.469 28.0002 143.96C29.0288 144.636 29.9884 145.416 30.9687 146.169C31.2241 146.362 31.3553 146.314 31.5555 146.086C33.5299 143.801 35.5181 141.523 37.5132 139.245C38.8041 137.774 40.0951 136.304 41.3998 134.847C41.745 134.46 42.0004 134.046 42.1454 133.542C43.0566 130.436 43.9955 127.336 44.9137 124.236C46.177 119.984 47.4403 115.731 48.7037 111.486C49.7254 108.069 50.754 104.658 51.7826 101.241C51.8931 100.882 51.9897 100.509 52.1209 100.157C52.2589 99.7913 52.1347 99.7222 51.7826 99.7222C49.4423 99.7361 47.1021 99.7222 44.7687 99.7361C44.3752 99.7361 44.1129 99.6118 43.8851 99.3218C42.2351 97.2577 40.5714 95.1936 38.9215 93.1294C36.8366 90.5268 34.7449 87.9242 32.66 85.3216C32.4184 85.0179 32.1768 84.7072 31.8592 84.2999H31.8454ZM158.572 153.479C158.765 153.479 158.904 153.341 159.048 153.245C165.13 149.489 170.508 144.898 175.216 139.528C178.82 135.413 181.961 130.974 184.439 126.087C184.529 125.907 184.702 125.741 184.605 125.451C177.543 129.87 170.501 134.274 163.405 138.713H170.398C170.398 138.899 170.246 138.989 170.149 139.106C166.732 143.311 163.315 147.508 159.905 151.719C159.442 152.292 158.91 152.81 158.558 153.466C158.51 153.473 158.462 153.486 158.517 153.548C158.538 153.528 158.551 153.5 158.572 153.479ZM133.568 90.8237C133.623 90.9894 133.54 91.1344 133.492 91.2931C132.374 95.0279 131.262 98.7627 130.144 102.497C125.774 117.167 121.397 131.83 117.027 146.5C116.912 146.882 117.055 147.073 117.455 147.073C129.212 147.073 140.975 147.073 152.732 147.073C152.911 147.073 153.084 147.073 153.319 147.073C153.229 146.838 153.16 146.652 153.084 146.479C151.42 142.524 149.756 138.568 148.079 134.612C147.92 134.24 147.899 133.908 148.017 133.528C150.599 124.865 153.174 116.201 155.749 107.537C159.138 96.1463 162.521 84.7487 165.904 73.3511C165.986 73.0749 166.104 72.8402 166.29 72.6193C168.002 70.5344 169.721 68.4496 171.426 66.3578C172.945 64.4939 174.457 62.63 175.976 60.7661C176.259 60.4347 176.535 60.1033 176.887 59.6891C176.625 59.6891 176.48 59.6891 176.342 59.6891C173.277 59.6615 170.218 59.6684 167.153 59.6546C157.205 59.6063 147.257 59.627 137.31 59.6063C136.971 59.6063 136.771 59.7167 136.571 59.9791C135.197 61.7878 133.809 63.5896 132.429 65.3914C123.537 76.9754 114.645 88.5663 105.754 100.15C105.664 100.268 105.609 100.44 105.395 100.482C105.236 99.6049 105.077 98.7489 104.932 97.8928C103.703 90.9272 102.475 83.9617 101.253 76.9961C100.266 71.3905 99.2715 65.7918 98.2981 60.1862C98.2222 59.7443 98.0703 59.6063 97.6146 59.6063C84.0286 59.6201 70.4357 59.6201 56.8497 59.6201C56.691 59.6201 56.5253 59.5787 56.3734 59.6615C56.3665 59.8617 56.477 60.0067 56.5529 60.1724C58.5135 64.3766 60.4741 68.5808 62.4554 72.7781C62.6279 73.1509 62.6555 73.4684 62.5382 73.8619C59.48 84.0514 56.4286 94.2478 53.3773 104.437C50.3605 114.523 47.3506 124.602 44.3269 134.688C44.2233 135.033 44.175 135.392 43.9127 135.675C43.3811 136.262 42.8633 136.856 42.3456 137.457C39.7775 140.397 37.2163 143.331 34.6482 146.272C34.4342 146.507 34.1788 146.707 34.02 147.052C34.234 147.052 34.3997 147.052 34.5585 147.052C45.4107 147.052 56.2629 147.052 67.1083 147.066C67.5777 147.066 67.7503 146.921 67.8815 146.486C69.9939 139.327 72.1202 132.175 74.2465 125.017C74.7297 123.38 75.1991 121.737 75.6686 120.094C75.7031 120.005 75.7445 119.915 75.7721 119.818C78.3885 111.002 80.998 102.194 83.6144 93.378C83.6628 93.2054 83.6766 93.0121 83.8699 92.8464C83.9044 93.0949 83.9389 93.2882 83.9665 93.4884C84.3117 96.1325 84.6569 98.7696 84.9951 101.414C85.3472 104.12 85.6993 106.826 86.0514 109.532C86.2101 110.719 86.3827 111.907 86.5484 113.094C86.5553 113.274 86.5484 113.453 86.576 113.633C87.1283 117.844 87.6806 122.048 88.2328 126.252C88.7989 130.574 89.3581 134.895 89.9242 139.217C90.2832 141.985 90.6422 144.753 91.008 147.529C91.1047 148.26 91.2082 148.999 91.3256 149.821C91.4706 149.627 91.5534 149.531 91.6224 149.42C96.945 141.978 102.268 134.536 107.597 127.094C116.144 115.138 124.697 103.188 133.243 91.231C133.347 91.086 133.409 90.9065 133.589 90.8237H133.568ZM36.2567 149.482C36.2913 149.662 36.4293 149.703 36.5329 149.765C38.1828 150.787 39.888 151.719 41.6345 152.554C43.7953 153.583 45.963 154.619 48.2066 155.475C51.3201 156.662 54.4888 157.697 57.6989 158.595C60.1634 159.285 62.6694 159.796 65.1753 160.266C66.8459 160.583 68.5304 160.839 70.2148 161.073C71.6231 161.273 73.0383 161.391 74.4536 161.563C74.7021 161.591 74.8056 161.508 74.8816 161.273C75.1025 160.569 75.3441 159.872 75.5788 159.168C76.6558 155.944 77.7327 152.727 78.8096 149.503C80.1972 145.347 81.5779 141.191 82.9655 137.029C83.9182 134.177 84.8709 131.333 85.8097 128.482C85.9064 128.192 85.9754 127.881 85.9409 127.564C85.7338 125.824 85.5405 124.085 85.3196 122.352C85.078 120.481 84.8018 118.617 84.5602 116.753C84.3462 115.096 84.1667 113.439 83.9389 111.789C83.6559 109.732 83.3797 107.675 83.145 105.611C83.1036 105.245 83.1243 104.838 82.8413 104.444C82.3511 106.046 81.8403 107.565 81.4191 109.111C80.3698 112.991 79.1065 116.801 78.0019 120.66C77.4151 122.704 76.8214 124.754 76.1725 126.784C75.3924 129.235 74.7228 131.72 73.991 134.184C73.6389 135.379 73.2524 136.566 72.9003 137.767C71.8302 141.467 70.7602 145.168 69.6418 148.854C69.49 149.344 69.2553 149.434 68.8065 149.434C59.2038 149.42 49.6011 149.434 40.0053 149.42C39.5428 149.42 37.2854 149.379 36.8642 149.42C36.664 149.441 36.4431 149.372 36.2498 149.482H36.2567ZM126.927 104.196C125.491 106.198 124.062 108.2 122.626 110.202C121.528 111.734 120.417 113.26 119.326 114.799C116.302 119.031 113.285 123.27 110.262 127.502C110.117 127.702 109.993 127.888 109.93 128.144C109.42 130.208 109.047 132.307 108.612 134.385C108.011 137.249 107.335 140.101 106.762 142.979C106.071 146.445 105.312 149.897 104.573 153.355C104.021 155.93 103.455 158.505 102.882 161.073C102.813 161.384 102.868 161.515 103.2 161.474C103.993 161.377 104.787 161.267 105.588 161.198C107.839 160.99 110.068 160.666 112.291 160.293C115.971 159.672 119.637 158.982 123.254 158.043C126.713 157.145 130.164 156.227 133.561 155.109C137.71 153.742 141.79 152.175 145.801 150.456C146.394 150.2 147.009 149.993 147.665 149.51H146.657C135.901 149.51 125.153 149.51 114.397 149.51C113.631 149.51 113.651 149.51 113.858 148.806C114.397 146.928 115.025 145.078 115.536 143.2C116.482 139.769 117.573 136.387 118.567 132.969C119.471 129.87 120.389 126.77 121.349 123.684C122.798 119.004 124.131 114.289 125.512 109.587C125.767 108.711 126.975 104.127 126.927 104.189V104.196ZM95.0466 179.844C95.012 179.816 94.9982 179.795 94.9844 179.795C93.7763 179.678 92.5613 179.575 91.3532 179.436C82.3442 178.429 73.4664 176.73 64.7749 174.1C56.8221 171.698 49.1662 168.598 42.0349 164.29C36.0565 160.673 30.6995 156.324 26.3227 150.842C23.3404 147.108 21.007 143 19.3502 138.52C19.1569 137.995 19.1638 138.002 19.7299 137.988C21.2762 137.947 22.8226 137.905 24.369 137.857C24.7556 137.843 25.1491 137.885 25.6254 137.753C20.4961 133.08 15.4221 128.454 10.2652 123.753C10.2445 124.029 10.2307 124.16 10.2307 124.292C10.2031 125.976 10.3066 127.647 10.5207 129.317C11.3215 135.634 13.3304 141.55 16.499 147.066C20.5514 154.121 26.1018 159.775 32.7912 164.345C38.597 168.315 44.9137 171.221 51.5617 173.458C57.0638 175.308 62.697 176.627 68.413 177.607C73.3628 178.456 78.3471 179.043 83.359 179.374C85.3127 179.505 87.2664 179.637 89.22 179.713C91.153 179.789 93.0929 179.878 95.0604 179.844H95.0466ZM119.602 43.7007C120.21 43.6662 120.665 43.6593 121.128 43.6041C125.014 43.1484 129.177 39.6415 129.667 35.7065C129.778 34.8022 129.833 33.8702 129.564 33.0211C129.101 31.5782 128.142 30.4461 126.775 29.7833C124.773 28.8238 122.647 28.8928 120.582 29.5141C118.525 30.1423 116.744 31.309 115.419 33.0487C114.273 34.5467 113.465 36.169 113.493 38.1434C113.513 39.6346 114.072 40.8565 115.06 41.8989C116.33 43.2313 117.966 43.6731 119.602 43.7007ZM114.507 50.2383C114.418 50.1692 114.328 50.1071 114.238 50.0381C110.676 47.2284 108.695 43.5834 108.715 39.0271C108.736 34.8781 110.158 31.1364 112.568 27.7744C113.534 26.4283 114.687 25.2616 116.095 24.2675C115.971 24.2675 115.923 24.2537 115.881 24.2675C115.453 24.447 115.025 24.6127 114.611 24.8129C110.02 27.0565 106.624 30.4047 105.07 35.3751C103.966 38.8959 104.256 42.2786 106.465 45.3437C108.163 47.6978 110.538 49.1268 113.265 50.0174C113.665 50.1485 114.066 50.3073 114.507 50.2521V50.2383Z" fill="#B5B6B7"/>
<path d="M34.6281 146.258C37.1962 143.317 39.7573 140.383 42.3254 137.443C42.8432 136.849 43.3609 136.248 43.8925 135.661C44.1548 135.372 44.2032 135.013 44.3067 134.674C47.3235 124.595 50.3403 114.509 53.3571 104.423C56.4085 94.2269 59.4598 84.0374 62.518 73.8479C62.6354 73.4613 62.6078 73.1369 62.4352 72.7641C60.4608 68.5668 58.5002 64.3626 56.5327 60.1584C56.4568 59.9996 56.3463 59.8477 56.3532 59.6475C56.5051 59.5578 56.6708 59.6061 56.8296 59.6061C70.4156 59.6061 84.0085 59.6061 97.5945 59.5923C98.0501 59.5923 98.202 59.7304 98.2779 60.1722C99.2513 65.7778 100.245 71.3765 101.233 76.9821C102.461 83.9477 103.69 90.9133 104.912 97.8788C105.064 98.7349 105.223 99.5909 105.375 100.468C105.589 100.419 105.644 100.254 105.734 100.136C114.625 88.5523 123.517 76.9683 132.409 65.3774C133.789 63.5756 135.177 61.7738 136.551 59.9651C136.751 59.7027 136.951 59.5923 137.289 59.5923C147.237 59.613 157.185 59.5923 167.133 59.6406C170.198 59.6544 173.256 59.6406 176.321 59.6751C176.466 59.6751 176.611 59.6751 176.867 59.6751C176.515 60.0893 176.232 60.4207 175.956 60.7521C175.838 60.7106 175.776 60.8004 175.693 60.8487C173.843 61.9257 172 63.0026 170.15 64.0864C164.869 67.1792 159.594 70.2788 154.313 73.3716C149.916 75.9535 145.511 78.5216 141.114 81.1034C137.538 83.2021 133.969 85.3077 130.386 87.3994C125.802 90.0848 121.211 92.7634 116.627 95.4488C112.623 97.796 108.633 100.157 104.629 102.497C100.004 105.21 95.3716 107.916 90.7463 110.623C89.3379 111.444 87.9296 112.259 86.5213 113.073C86.3557 111.886 86.1831 110.699 86.0243 109.511C85.6653 106.805 85.3201 104.099 84.9681 101.393C84.6229 98.7487 84.2777 96.1116 83.9394 93.4675C83.9118 93.2742 83.8842 93.0809 83.8428 92.8255C83.6495 92.9912 83.6426 93.1914 83.5874 93.3571C80.971 102.166 78.3546 110.982 75.745 119.797C75.7174 119.894 75.676 119.977 75.6415 120.073C75.4551 120.177 75.2618 120.274 75.0823 120.384C69.8771 123.718 64.6719 127.053 59.4667 130.387C51.8108 135.296 44.1617 140.211 36.5058 145.112C35.8914 145.506 35.3253 146.003 34.6143 146.238L34.6281 146.258Z" fill="#1C3765"/>
<path d="M86.5352 113.087C87.9435 112.273 89.3518 111.458 90.7601 110.637C95.3924 107.931 100.018 105.224 104.643 102.511C108.647 100.164 112.637 97.8031 116.641 95.4629C121.225 92.7774 125.816 90.0989 130.4 87.4134C133.976 85.3148 137.552 83.2161 141.128 81.1175C145.525 78.5356 149.93 75.9606 154.327 73.3856C159.608 70.2929 164.883 67.1932 170.164 64.1005C172.007 63.0166 173.857 61.9397 175.707 60.8627C175.79 60.8144 175.852 60.7178 175.969 60.7661C174.451 62.63 172.939 64.494 171.42 66.3579C169.715 68.4496 168.003 70.5345 166.284 72.6193C166.104 72.8402 165.98 73.0819 165.897 73.3511C162.515 84.7487 159.125 96.1394 155.742 107.537C153.167 116.201 150.592 124.865 148.01 133.529C147.893 133.908 147.914 134.24 148.073 134.612C149.75 138.561 151.414 142.517 153.078 146.479C153.154 146.659 153.216 146.838 153.312 147.073C153.078 147.073 152.905 147.073 152.726 147.073C140.969 147.073 129.205 147.073 117.449 147.073C117.053 147.073 116.91 146.882 117.021 146.5C121.391 131.83 125.768 117.167 130.137 102.497C131.249 98.7627 132.367 95.0279 133.486 91.2932C133.534 91.1344 133.617 90.9894 133.562 90.8168C133.631 90.8445 133.631 90.8099 133.61 90.7547C133.596 90.7754 133.582 90.803 133.568 90.8237C133.389 90.9066 133.327 91.0861 133.223 91.231C124.67 103.181 116.123 115.138 107.577 127.095C102.254 134.536 96.9318 141.978 91.6024 149.42C91.5264 149.524 91.4436 149.627 91.3055 149.821C91.1951 148.999 91.0846 148.267 90.988 147.529C90.629 144.76 90.27 141.992 89.9041 139.217C89.338 134.895 88.7788 130.574 88.2128 126.252C87.6605 122.048 87.1082 117.837 86.5559 113.633C86.5352 113.453 86.5421 113.274 86.5283 113.094L86.5352 113.087Z" fill="#640E0D"/>
<path d="M95.0469 179.844C93.0863 179.878 91.1465 179.788 89.2066 179.712C87.2529 179.636 85.2993 179.505 83.3456 179.374C78.3337 179.043 73.3494 178.456 68.3996 177.607C62.6835 176.626 57.0503 175.308 51.5483 173.458C44.9002 171.221 38.5836 168.308 32.7778 164.345C26.0883 159.775 20.5448 154.121 16.4856 147.066C13.3169 141.55 11.308 135.634 10.5072 129.317C10.2932 127.646 10.1897 125.976 10.2173 124.291C10.2173 124.16 10.2311 124.029 10.2518 123.753C15.4087 128.454 20.4896 133.079 25.612 137.753C25.1425 137.884 24.749 137.843 24.3556 137.857C22.8092 137.905 21.2628 137.946 19.7164 137.988C19.1434 138.002 19.1365 137.995 19.3367 138.519C20.9936 143.007 23.3269 147.107 26.3092 150.842C30.686 156.33 36.0431 160.673 42.0215 164.29C49.1528 168.605 56.8087 171.697 64.7615 174.1C73.446 176.723 82.3239 178.421 91.3398 179.436C92.5479 179.574 93.7629 179.671 94.971 179.795C94.9848 179.795 94.9986 179.816 95.0331 179.844H95.0469Z" fill="#1D3866"/>
<path d="M34.6281 146.258C35.3392 146.024 35.8984 145.527 36.5197 145.133C44.1756 140.232 51.8247 135.316 59.4806 130.408C64.6858 127.067 69.891 123.732 75.0962 120.405C75.2757 120.288 75.469 120.198 75.6554 120.094C75.179 121.737 74.7165 123.38 74.2333 125.016C72.1139 132.175 69.9807 139.327 67.8683 146.486C67.7371 146.921 67.5645 147.066 67.0951 147.066C56.2429 147.052 45.3906 147.052 34.5453 147.052C34.3865 147.052 34.2208 147.052 34.0068 147.052C34.1656 146.707 34.421 146.5 34.6351 146.272L34.6281 146.258Z" fill="#640E0D"/>
<path d="M158.559 153.465C158.911 152.81 159.442 152.285 159.905 151.719C163.315 147.508 166.739 143.31 170.15 139.106C170.246 138.989 170.405 138.892 170.398 138.713H163.405C170.502 134.274 177.543 129.869 184.605 125.451C184.702 125.741 184.529 125.914 184.44 126.086C181.961 130.974 178.82 135.413 175.217 139.527C170.508 144.898 165.131 149.496 159.049 153.244C158.897 153.334 158.766 153.479 158.572 153.479L158.559 153.465Z" fill="#1D3866"/>
<path d="M114.508 50.2383C114.059 50.2935 113.666 50.1347 113.265 50.0036C110.539 49.1199 108.164 47.6909 106.465 45.3299C104.256 42.2648 103.973 38.8821 105.071 35.3614C106.624 30.3909 110.021 27.0496 114.612 24.7991C115.026 24.5989 115.454 24.4332 115.882 24.2537C115.923 24.2399 115.972 24.2537 116.096 24.2537C114.687 25.2547 113.535 26.4214 112.568 27.7607C110.159 31.1226 108.737 34.8643 108.716 39.0133C108.695 43.5696 110.67 47.2215 114.239 50.0243C114.329 50.0933 114.418 50.1624 114.508 50.2245V50.2383Z" fill="#1D3966"/>
<path d="M158.573 153.48C158.573 153.48 158.538 153.528 158.517 153.549C158.455 153.487 158.504 153.473 158.559 153.466L158.573 153.48Z" fill="#1D3866"/>
<path d="M133.568 90.8234C133.568 90.8234 133.596 90.7751 133.61 90.7544C133.631 90.8096 133.631 90.8372 133.562 90.8165V90.8234H133.568Z" fill="#B5B6B7"/>
</g>
<defs>
<clipPath id="clip0_11_241794">
<rect width="200" height="176.521" fill="white" transform="translate(0 12)"/>
</clipPath>
</defs>
</svg>
