<?xml version="1.0" encoding="UTF-8"?>
<svg width="200px" height="200px" viewBox="0 0 200 200" version="1.1" xmlns="http://www.w3.org/2000/svg" xmlns:xlink="http://www.w3.org/1999/xlink">
    <!-- Generator: Sketch 54.1 (76490) - https://sketchapp.com -->
    <title>suny-potsdam</title>
    <desc>Created with Sketch.</desc>
    <g id="suny-potsdam" stroke="none" stroke-width="1" fill="none" fill-rule="evenodd">
        <g id="suny-potsdam_BGL">
            <g id="suny-potsdam" transform="translate(0.000000, 27.000000)">
                <g id="g10" transform="translate(99.999998, 72.848023) scale(-1, 1) rotate(-180.000000) translate(-99.999998, -72.848023) translate(0.000000, 0.051090)" fill-rule="nonzero">
                    <g id="g12">
                        <path d="M199.875857,15.5277135 L197.016087,31.5948907 L196.68352,33.4610464 L194.661553,33.4610464 L192.347122,46.3862057 L194.395653,46.3862057 L190.969344,64.5016587 L178.965513,64.5016587 C175.906509,86.9494231 165.733329,101.287865 157.608936,109.430649 C149.826816,117.230648 142.547123,120.910086 140.369601,121.90651 C131.184671,135.440099 119.595144,137.84112 116.538439,138.244952 C110.481479,143.023751 102.958363,145.453892 94.1537652,145.453892 C89.3979543,145.453892 83.8796914,142.228094 79.8485293,139.29757 C77.4423991,139.597187 75.3785422,139.489652 73.6842893,138.972666 C71.7734337,141.001018 68.7826292,141.90932 65.2937404,141.429371 C59.6375464,140.653125 55.2051072,135.532819 55.4143026,130.015067 C55.4475082,129.157085 55.6158351,128.26181 55.9052349,127.349678 C56.111876,125.976753 56.5846729,124.575731 57.3180062,123.167813 C55.5836512,120.253126 53.3948901,114.669984 56.1279679,107.67918 L56.4043409,106.972156 C54.2786704,103.5507 52.2028084,98.5892696 51.3353755,96.4204318 C48.215069,94.3711343 42.941506,88.1371625 41.9080449,85.7254129 C41.3890156,84.5139187 38.8858228,82.4888868 37.1203056,81.3146851 C30.6270746,80.4646212 24.5726686,77.5961666 22.8908296,75.3537657 C22.2808934,74.5409943 20.3480199,73.0033187 19.1703699,72.1708794 L14.4353764,68.8252856 C14.4353764,68.8252856 17.949195,68.3696024 19.4792588,68.1708795 C19.4249804,67.9882486 19.3784925,67.8186445 19.3388756,67.6600239 C18.29014,66.6477633 17.4597952,65.4191555 16.9194121,64.5016587 L8.08569584,64.5016587 L5.13708799,46.5698584 L6.99123865,46.5698584 L4.95042133,33.6439327 L4.86321827,33.6439327 L2.9383141,33.6439327 L0,15.5277135 L22.0590799,15.5277135 L19.2598463,0 L185.155295,0 L182.357084,15.5277135 L199.875857,15.5277135" id="path14" fill="#B3B5B7"></path>
                        <path d="M197.175729,17.7898591 L194.788245,31.1984667 L192.7673,31.1984667 L189.644695,48.6475084 L191.665129,48.6475084 L189.093993,62.240356 L176.971132,62.240356 C171.871005,106.679435 138.86794,120.096038 138.86794,120.096038 C128.877391,135.275092 115.650316,136.065897 115.650316,136.065897 C108.64955,141.840354 100.699359,143.191823 94.1529989,143.191823 C89.4492953,143.191823 83.4564475,139.187736 80.4554258,136.934096 C77.7632164,137.374454 74.8661539,137.40485 72.9136636,136.180329 C71.5936125,138.770111 68.6666649,139.609958 65.6020418,139.188502 C61.0561926,138.564747 57.5080445,134.495527 57.6745835,130.100891 C57.7034468,129.341248 57.8661544,128.588758 58.1121314,127.861299 C58.6421441,126.098592 59.4684532,124.744569 60.230139,123.537162 C58.8158351,121.578541 55.4329488,115.667941 58.2344813,108.502935 L59.8250304,109.713663 C59.9946345,108.758363 60.1504455,108.160917 60.1504455,108.160917 C57.39489,105.773177 53.1461034,94.8477626 53.1461034,94.8477626 C51.2758608,94.179308 45.0883769,87.4056172 43.9867167,84.8344806 C42.8840347,82.2615561 37.9251587,79.1399725 37.9251587,79.1399725 C31.2932304,78.3948895 25.8020428,75.4656431 24.6996673,73.996933 C23.5977516,72.5274567 20.4750442,70.3236253 20.4750442,70.3236253 L22.9786201,69.999232 C21.8086585,68.9402282 21.3939714,66.464877 21.3939714,66.464877 C19.5567811,64.9959115 18.2712639,62.240356 18.2712639,62.240356 L10.0058746,62.240356 L7.8014302,48.8321827 L9.63780308,48.8321827 L6.88288616,31.3816084 L4.86270741,31.3816084 L2.65813531,17.7898591 L24.764827,17.7898591 L21.9656955,2.26103443 L182.448271,2.26103443 L179.65057,17.7898591 L197.175729,17.7898591" id="path16" fill="#231F20"></path>
                        <path d="M24.8717746,65.7374185 C24.8664872,65.7440597 24.3139458,66.4022972 23.5004592,66.1461031 C23.4931795,66.1425271 22.7541246,65.8459754 21.8664107,65.0452091 C21.048352,64.3065118 19.9308552,62.9726676 19.2522856,60.815835 L19.2074836,60.6748388 L19.3236266,60.7670483 C19.348071,60.7859499 21.789297,62.7172398 24.0664873,63.6117481 C24.7634221,63.886333 25.1613276,64.2429103 25.2492459,64.6712628 C25.3660785,65.2431657 24.8889394,65.7208157 24.8685818,65.7415054 L24.8717746,65.7374185" id="path18" fill="#FFFFFF"></path>
                        <path d="M31.5128983,65.1014032 L31.5159635,65.0980827 C31.5098332,65.1047238 30.9039584,65.7310328 30.1054909,65.4441874 C30.0779047,65.4342257 29.4143032,65.1869716 28.6186455,64.4257966 C27.8858231,63.7254135 26.9029367,62.4388235 26.3831411,60.2835234 L26.3514681,60.1517226 L26.4561935,60.2375464 C26.477394,60.2546601 28.632694,61.9920802 30.866155,62.9683254 C31.54074,63.2643662 31.9151972,63.6257966 31.977777,64.0469971 C32.0638562,64.6219652 31.535376,65.0835233 31.5128983,65.1014032" id="path20" fill="#FFFFFF"></path>
                        <path d="M36.1415061,65.8196663 L36.1389518,65.8196663 L36.136653,65.8181337 C36.1103439,65.8097046 35.485312,65.6040852 34.6733069,64.9121312 C33.9264359,64.2743279 32.8781601,63.0878656 32.1259251,61.0521058 L32.069731,60.8998708 L32.1969341,61.0002539 C32.2176237,61.0168567 34.2934857,62.65466 36.637547,63.2832679 C37.3376747,63.4699856 37.7517232,63.7667928 37.8666657,64.1619396 C38.0288624,64.7208158 37.5397181,65.2610456 37.5185176,65.2835233 C37.5159633,65.2876101 36.97369,65.9844173 36.1415061,65.8196663" id="path22" fill="#FFFFFF"></path>
                        <path d="M43.6891432,66.0536382 C43.6858227,66.0569588 43.0176234,66.6615564 42.2252863,66.3734338 L42.2217103,66.3724121 L42.2186452,66.3701133 C42.2114932,66.3667927 41.5305226,65.9795641 40.7742008,65.1014032 C40.0773936,64.289909 39.170114,62.8812245 38.8048522,60.7731786 L38.7785431,60.6214544 L38.8832685,60.7340981 C38.9039582,60.7563203 40.9836516,62.9941236 43.1885047,63.9619397 C43.8395902,64.2462308 44.1936132,64.5931018 44.2418891,64.9918247 C44.3113654,65.569347 43.714686,66.0337148 43.6891432,66.0536382" id="path24" fill="#FFFFFF"></path>
                        <path d="M49.8283512,67.2434211 C49.8058736,67.2641107 49.183396,67.7795641 48.4796923,67.5103431 L48.4725403,67.5070226 L48.4658992,67.501914 C48.4403564,67.4796918 45.8500627,65.183651 45.4592581,61.5404838 L45.4403565,61.3611734 L45.5420167,61.5111096 C45.5616847,61.5392066 47.5591304,64.4406114 49.4968059,65.3435488 C50.0577254,65.6056178 50.3588749,65.9169843 50.3910588,66.2694747 C50.4398455,66.8043406 49.8533832,67.226052 49.8283512,67.2434211" id="path26" fill="#FFFFFF"></path>
                        <path d="M107.085055,67.7014032 L107.077647,67.7006369 L107.071773,67.6980826 C107.063599,67.6932295 106.243931,67.2886318 105.282245,66.4211989 C104.395144,65.6204326 103.19872,64.2513394 102.544825,62.270752 L102.491951,62.1100878 L102.618133,62.2227315 C102.644953,62.24572 105.370368,64.6408668 107.71775,65.183651 C108.403573,65.3425271 108.80766,65.6122589 108.916983,65.9851835 C109.078669,66.5399728 108.533841,67.1031912 108.510853,67.1279677 C108.489397,67.1542767 107.918771,67.8349919 107.085055,67.7014032" id="path28" fill="#FFFFFF"></path>
                        <path d="M115.450827,66.5874824 C115.425029,66.60996 114.718005,67.1961669 113.936906,66.9335871 L113.930265,66.9310328 L113.92388,66.926946 C113.917239,66.9220928 113.212002,66.3931018 112.472028,65.3831401 C111.790546,64.4505731 110.939461,62.9065118 110.751977,60.8403561 L110.736907,60.679692 L110.834225,60.8091939 C110.854659,60.8372909 112.961428,63.633204 115.119537,64.5361414 C115.730265,64.7915693 116.060533,65.1095769 116.101913,65.4802027 C116.167813,66.070241 115.480712,66.5667927 115.450827,66.5874824" id="path30" fill="#FFFFFF"></path>
                        <path d="M121.896038,66.2498068 C121.866408,66.270241 121.081223,66.7836509 120.350955,66.4408668 L120.344825,66.4375462 L120.33895,66.4319268 C120.332564,66.4257966 119.71545,65.8263074 119.137673,64.7415054 C118.60485,63.7404837 117.996676,62.1108541 118.122858,60.026563 L118.131798,59.8684532 L118.20766,60.0076613 C118.224263,60.0383127 119.879946,63.0467417 121.874582,64.1688362 C122.424773,64.4784147 122.702679,64.8211989 122.701657,65.1862053 C122.700636,65.7951452 121.927966,66.2326931 121.896038,66.2498068" id="path32" fill="#FFFFFF"></path>
                        <path d="M128.491695,66.3685807 C128.459767,66.3864607 127.613024,66.8273291 126.938694,66.4160903 L126.932053,66.4112372 L126.9272,66.4056178 C126.922091,66.3997429 126.394888,65.7407391 125.972411,64.6020418 C125.582628,63.5524888 125.203573,61.8669205 125.613024,59.7956562 L125.643675,59.6411224 L125.70038,59.7892705 C125.712896,59.8204327 126.937672,62.9808413 128.75121,64.2870993 C129.242909,64.6408668 129.473049,65.0025527 129.43499,65.3601516 C129.368324,65.9795641 128.5272,66.3535105 128.491695,66.3685807" id="path34" fill="#FFFFFF"></path>
                        <path d="M134.981095,66.0495514 C134.822985,66.6163457 133.984926,66.848785 133.949422,66.857725 C133.917493,66.8694747 133.084288,67.1542767 132.563981,66.6962946 L132.558107,66.6914415 L132.55402,66.6830124 C132.550699,66.6763713 132.210469,66.0158349 132.054658,64.9374186 C131.911619,63.944826 131.898081,62.3810968 132.654403,60.575222 L132.715195,60.4260521 L132.740227,60.5849282 C132.74508,60.6155796 133.224007,63.6102155 134.573943,65.0173675 C134.931797,65.3905475 135.06743,65.7374185 134.981095,66.0495514" id="path36" fill="#FFFFFF"></path>
                        <path d="M189.980327,11.4447762 L189.980327,9.68559363 L189.19974,9.68559363 L189.19974,12.9372155 L189.811745,12.9372155 L190.995653,10.9453893 L191.037032,10.9453893 L192.198973,12.9372155 L192.790033,12.9372155 L192.790033,9.68559363 L192.008935,9.68559363 L192.008935,11.4610214 L191.142269,9.98293717 L190.847505,9.98293717 L189.980327,11.4447762 Z M187.488629,9.68559363 L186.643929,9.68559363 L186.643929,12.4547123 L185.502933,12.4547123 L185.502933,12.9372155 L188.691949,12.9372155 L188.691949,12.4547123 L187.488629,12.4547123 L187.488629,9.68559363 L187.488629,9.68559363 Z" id="path38" fill="#231F20"></path>
                        <path d="M32.8383134,58.2125145 C31.3348651,59.3213267 29.3450823,59.3642386 27.2385689,59.4086831 C27.2240095,59.4086831 12.9368324,59.4086831 12.9368324,59.4086831 L12.3477392,59.4086831 L12.2517494,58.8286064 L11.1808426,52.3302669 L11.0477647,51.5228595 L11.8658235,51.5228595 L12.9993866,51.5228595 L9.28020411,28.4051078 L7.92234974,28.4051078 L7.33297555,28.4051078 L7.23739446,27.8240095 L6.16768822,21.3264362 L6.03478912,20.518237 L6.85264351,20.518237 L17.3232946,20.518237 L17.9376241,20.518237 L18.0125411,21.128965 L18.8074836,27.6263084 C18.8051847,27.608173 19.9324388,34.9604078 20.262707,37.1123873 L24.7798972,37.1123873 C27.0311615,37.1123873 30.1134092,37.1123873 32.057215,40.1770105 C33.0842904,41.798211 33.3836518,43.8337154 33.6240094,45.4692198 C33.6275854,45.49323 34.4934857,51.7231149 34.492464,51.7187727 C34.7690924,53.6153243 35.1867169,56.4807138 32.8383134,58.2125145 L32.8383134,58.2125145 Z M25.3513148,51.5228595 L24.2820173,43.9384408 L21.2597696,43.9384408 L22.3306763,51.5228595 L25.3513148,51.5228595 L25.3513148,51.5228595 Z" id="path40" fill="#B3B5B7"></path>
                        <path d="M49.7657714,59.4086831 L44.4232428,59.4086831 C42.3568316,59.4086831 39.2342263,59.4086831 37.4983388,55.9039577 C36.6832686,54.3205606 36.4607909,52.5047241 36.2457207,50.7468697 L34.2745841,34.6176237 C34.0270745,32.5908038 33.7203057,30.0722853 35.4610464,28.2740734 C37.0572149,26.6735626 39.6791816,26.6735626 41.2457206,26.6735626 L47.0840346,26.6735626 C49.3361418,26.6735626 53.1052349,26.6735626 54.6112375,31.1062572 C55.1185171,32.6145586 55.2896538,34.4314168 55.455171,36.187994 C55.4559373,36.1961677 56.7821186,50.0909311 56.7821186,50.0909311 C57.0120037,52.5690919 57.209194,54.6978275 56.4753498,56.4166014 C55.1908032,59.4086831 52.0551711,59.4086831 49.7657714,59.4086831 L49.7657714,59.4086831 Z M48.1180065,51.8250306 L46.4495518,34.2584921 L43.0991049,34.2584921 L45.2462313,51.8250306 L48.1180065,51.8250306 L48.1180065,51.8250306 Z" id="path42" fill="#B3B5B7"></path>
                        <polyline id="path44" fill="#B3B5B7" points="60.1489129 59.4086831 59.5039576 59.4086831 59.4574698 58.7652603 58.6641109 47.7619401 58.6104711 47.0181342 59.3555541 47.0181342 64.6196663 47.0181342 65.2651325 47.0181342 65.3113649 47.6623232 65.6104709 51.8250306 66.9501899 51.8250306 65.2712627 34.2584921 64.121582 34.2584921 63.4761159 34.2584921 63.429628 33.6140477 62.9823739 27.417113 62.9287341 26.6735626 63.6738171 26.6735626 75.1264349 26.6735626 75.7841616 26.6735626 75.8194106 27.3297567 76.1458474 33.5269468 76.1846724 34.2584921 75.453638 34.2584921 74.4217095 34.2584921 75.7869713 51.8250306 77.1614285 51.8250306 76.9476354 47.7486578 76.9093212 47.0181342 77.6403557 47.0181342 82.9029353 47.0181342 83.5614283 47.0181342 83.5959111 47.67535 84.1752214 58.6776486 84.213791 59.4086831 83.4827565 59.4086831 60.1489129 59.4086831"></polyline>
                        <path d="M106.675604,40.638824 C106.661555,42.3747116 106.6401,44.9989772 104.363727,46.5946349 C102.859512,47.6814803 101.017111,47.7289899 99.5369068,47.7678149 L99.3348634,47.772668 C99.3197932,47.772668 95.9782862,47.772668 94.4763706,47.772668 L94.6446975,51.8250306 L97.7719005,51.8250306 L97.7846719,49.9409949 L97.789525,49.2523615 L98.4781585,49.2523615 L105.100125,49.2523615 L105.798976,49.2523615 L105.794123,49.9507012 L105.72669,58.7197942 L105.721581,59.4086831 L105.032692,59.4086831 L92.9979543,59.4086831 C91.5205597,59.4086831 89.2870987,59.4086831 87.5476351,57.5443153 C86.0786696,55.9698581 85.9652597,54.2383128 85.856192,52.5650051 C85.8551703,52.547636 85.6518497,47.6145582 85.6518497,47.6145582 C85.6217092,45.9938686 85.5849276,43.9961675 87.0911856,42.2784153 C88.5800744,40.534354 90.5226031,40.4850565 92.0832672,40.4457206 L92.2127691,40.4421446 C92.227073,40.4421446 96.2273284,40.4421446 97.8610448,40.4421446 L97.9374177,34.2584921 L94.0122582,34.2584921 L94.074838,38.0446989 L94.0863323,38.7509569 L93.381096,38.7509569 L86.337418,38.7509569 L85.6646211,38.7509569 L85.6439314,38.0776491 L85.3126415,27.3874834 L85.2906748,26.6735626 L86.0056173,26.6735626 L99.6901635,26.6735626 C101.078158,26.6735626 102.515451,26.6735626 103.951722,27.5310338 C106.698592,29.1277132 106.731543,32.0268191 106.756319,34.1432942 L106.75683,34.2715189 C106.75683,34.2878663 106.675604,40.6380577 106.675604,40.6342263 L106.675604,40.638824" id="path46" fill="#B3B5B7"></path>
                        <path d="M130.259767,50.997189 C130.125412,53.373945 129.92439,56.965005 126.953509,58.6061288 C125.520303,59.4086831 123.819665,59.4086831 122.320048,59.4086831 L108.654148,59.4086831 L107.942781,59.4086831 L107.960661,58.6968057 L108.120304,52.501659 L108.137673,51.8250306 L108.814301,51.8250306 L109.878414,51.8250306 L110.358363,34.2584921 L109.330521,34.2584921 L108.619665,34.2584921 L108.637034,33.5476365 L108.791313,27.3499355 L108.80766,26.6735626 L109.484799,26.6735626 L124.269729,26.6735626 C126.35402,26.6735626 129.503956,26.6735626 130.715195,30.1318 C131.139205,31.2975727 131.24393,33.508556 131.041376,37.0858228 C131.041376,37.0850565 130.259767,50.997189 130.259767,50.997189 L130.259767,50.997189 Z M121.39259,51.8250306 L122.376498,34.2584921 L119.176498,34.2584921 L118.69706,51.8250306 L121.39259,51.8250306 L121.39259,51.8250306 Z" id="path48" fill="#B3B5B7"></path>
                        <path d="M157.726177,33.6556824 L157.646484,34.2584921 L155.549166,34.2584921 L150.105233,58.8648772 L149.984926,59.4086831 L149.427838,59.4086831 L137.5484,59.4086831 L136.907787,59.4086831 L136.856957,58.7701135 L134.883777,34.2584921 L133.511363,34.2584921 L132.774709,34.2584921 L132.818898,33.5236262 L133.188247,27.3246481 L133.227072,26.6735626 L133.880712,26.6735626 L142.322091,26.6735626 L142.969856,26.6735626 L143.013534,27.3200504 L143.46462,33.9238817 L146.851082,33.9238817 L148.139715,27.2352484 L148.248017,26.6735626 L148.820175,26.6735626 L157.857467,26.6735626 L158.649038,26.6735626 L158.544313,27.4569597 L157.726177,33.6556824 Z M145.691184,40.4561931 L143.816855,40.4561931 L144.181095,48.1054905 L145.691184,40.4561931 Z" id="path50" fill="#B3B5B7"></path>
                        <path d="M193.699612,21.3373941 L192.511873,27.8786711 L192.407403,28.4485306 L190.526687,28.4485306 L186.307275,51.4452094 L187.352741,51.4452094 L188.184414,51.4452094 L188.034733,52.2625785 L186.849037,58.8022974 L186.7461,59.3724123 L186.166023,59.3724123 L177.138693,59.3724123 L176.606381,59.3724123 L176.468195,58.8582361 L173.39361,47.3805863 C173.227071,46.8983385 173.11034,46.5524893 173.003061,46.2270742 C172.798974,46.6028085 172.589523,46.9678149 172.256701,47.5468698 C172.264619,47.5323104 166.031669,59.0099602 166.031669,59.0099602 L165.833968,59.3724123 L165.421452,59.3724123 L156.231158,59.3724123 L155.438821,59.3724123 L155.542014,58.5872271 L156.407659,52.0482746 L156.487863,51.4452094 L157.096037,51.4452094 L158.412257,51.4452094 L160.763981,34.4922086 L159.36347,34.5024257 L158.559383,34.5072788 L158.671516,33.7095777 L159.598974,27.1701143 L159.683265,26.5734348 L160.286075,26.5734348 L169.570622,26.5734348 L170.36347,26.5734348 L170.25951,27.3588754 L168.494504,40.7075341 L174.324389,30.3961678 L175.104721,29.0137924 L175.589778,30.5249035 L178.97905,41.0896541 C179.563725,37.637547 182.361426,21.0968322 182.361426,21.0968322 L182.458744,20.518237 L183.045972,20.518237 L193.016598,20.518237 L193.848782,20.518237 L193.699612,21.3373941" id="path52" fill="#B3B5B7"></path>
                        <path d="M26.8383135,52.1192835 L25.572924,43.1478916 L25.4889138,42.5496797 L19.6610468,42.5496797 L19.773103,43.3420168 L21.0397696,52.3136641 L21.1240863,52.9100881 L21.7270237,52.9100881 L26.1507018,52.9100881 L26.9499355,52.9100881 L26.8383135,52.1192835 Z M32.0140477,57.0952732 C30.8646225,57.9422719 29.1706251,57.9785426 27.2240095,58.0204328 L13.5257979,58.0204328 L12.68378,52.9100881 L13.8141504,52.9100881 L14.6288374,52.9100881 L14.4996165,52.1060013 L10.5567558,27.601021 L10.4629627,27.0168576 L9.87108532,27.0168576 L8.5118261,27.0168576 L7.67082995,21.9075346 L16.7086841,21.9075346 C16.9064364,23.5239075 17.4296547,27.7997439 17.4320558,27.8166021 L18.9800762,37.9113656 L19.0706764,38.5011485 L19.6663597,38.5011485 L24.7798972,38.5011485 C26.9218384,38.5011485 29.34968,38.5011485 30.8845458,40.9200501 C31.7535113,42.2924638 32.0288625,44.1657716 32.2505739,45.6717741 C32.2505739,45.6717741 32.2505739,45.6717741 32.2531282,45.6891432 C32.2521065,45.68429 33.1180068,51.9141749 33.1187731,51.9182618 C33.4326939,54.0733064 33.5662827,55.9501902 32.0140477,57.0952732 L32.0140477,57.0952732 Z" id="path54" fill="#8B1535"></path>
                        <path d="M49.57088,52.4536385 L47.7706246,33.4988497 L47.7113653,32.8710081 L41.5323106,32.8710081 L41.6275852,33.6487859 L43.9435493,52.6028084 L44.0183897,53.2125146 L44.6319274,53.2125146 L48.8799477,53.2125146 L49.6426552,53.2125146 L49.57088,52.4536385 Z M49.7657714,58.0211991 L44.4232428,58.0211991 C42.394635,58.0211991 40.0952736,58.0211991 38.7361421,55.2786704 C38.0296287,53.9070229 37.8229876,52.2148135 37.6227321,50.5785428 C37.6227321,50.5785428 35.651851,34.4495521 35.6513401,34.4459762 C35.4288625,32.625542 35.1770106,30.5616851 36.4500629,29.2459763 C37.6329493,28.0605357 39.8066401,28.0605357 41.2457206,28.0605357 L47.0840346,28.0605357 C49.3238813,28.0605357 52.1111098,28.0605357 53.2973167,31.5512125 C53.7522336,32.9039583 53.9159629,34.6390796 54.0753499,36.3279684 C54.0753499,36.3279684 55.4012758,50.2229873 55.4017866,50.2309055 C55.62171,52.6028084 55.7954009,54.4753499 55.1994878,55.8710075 C54.3430382,57.8664098 52.4068952,58.0211991 49.7657714,58.0211991 L49.7657714,58.0211991 Z" id="path56" fill="#8B1535"></path>
                        <polyline id="path58" fill="#8B1535" points="60.7946345 58.0211991 60.1014034 48.4053628 63.9736893 48.4053628 64.2727953 52.5690919 64.3190278 53.2125146 64.9647493 53.2125146 67.7131528 53.2125146 68.4763712 53.2125146 68.4035743 52.4528723 66.5923355 33.4988497 66.5325654 32.8710081 65.9019141 32.8710081 64.7667928 32.8710081 64.4194109 28.0605357 74.4684528 28.0605357 74.7226035 32.8710081 73.6722842 32.8710081 72.922859 32.8710081 72.9808411 33.61839 74.4533826 52.5724125 74.5029356 53.2125146 75.1445703 53.2125146 77.8922075 53.2125146 78.6229865 53.2125146 78.5849278 52.4827573 78.3713901 48.4053628 82.2454641 48.4053628 82.7514666 58.0211991 60.7946345 58.0211991"></polyline>
                        <path d="M103.55964,45.4643667 C102.394633,46.3054905 100.923369,46.3440601 99.5006361,46.3803309 C99.5006361,46.3803309 99.2960384,46.386972 99.3151955,46.3862057 L93.7535098,46.3862057 L93.030649,46.3862057 L93.0607895,47.1085557 L93.2860769,52.547636 L93.3136631,53.2125146 L93.9787971,53.2125146 L98.4605339,53.2125146 L99.1496782,53.2125146 L99.1542759,52.5238812 L99.1673028,50.63959 L104.40153,50.63959 L104.344825,58.0211991 L92.9979543,58.0211991 C91.2975712,58.0211991 89.7900361,57.9141748 88.5616836,56.598466 C87.4306492,55.3859501 87.3425266,54.0370357 87.2411217,52.4901647 C87.2411217,52.4901647 87.0380566,47.5568315 87.0380566,47.5731789 C87.0053618,45.7790538 87.0646211,44.4130257 88.1402277,43.1862058 C89.2334588,41.9052352 90.6344805,41.8699862 92.1182608,41.8326937 C92.1182608,41.8326937 92.2487844,41.8296286 92.230649,41.8296286 L98.5466131,41.8296286 L99.2316706,41.8296286 L99.2398443,41.1440603 L99.3333309,33.5729238 L99.3420154,32.8710081 L98.6395888,32.8710081 L93.3070219,32.8710081 L92.6015303,32.8710081 L92.6132799,33.5754781 L92.6758598,37.3634729 L87.0097041,37.3634729 L86.7213261,28.0605357 L99.6901635,28.0605357 C101.000764,28.0605357 102.13282,28.0605357 103.248273,28.7254144 C105.320048,29.9315446 105.346102,32.1772661 105.369091,34.1596415 L105.369346,34.2878663 C105.369346,34.2707527 105.28812,40.6201778 105.28812,40.6273298 C105.274582,42.3369083 105.259257,44.2730513 103.55964,45.4643667" id="path60" fill="#8B1535"></path>
                        <path d="M123.109831,32.8710081 L117.827072,32.8710081 L117.808682,33.5450822 L117.291696,52.499871 L117.271772,53.2125146 L117.985182,53.2125146 L122.048017,53.2125146 L122.704211,53.2125146 L122.740482,52.5575977 L123.801785,33.6028089 L123.842653,32.8710081 L123.109831,32.8710081 Z M128.874837,50.9190281 C128.75121,53.1144303 128.581351,56.1215822 126.27969,57.3936129 C125.157596,58.0211991 123.715961,58.0211991 122.320048,58.0211991 L109.366025,58.0211991 L109.489652,53.2125146 L110.554276,53.2125146 L111.229882,53.2125146 L111.247762,52.5376743 L111.764237,33.5826301 L111.783139,32.8710081 L111.070751,32.8710081 L110.041632,32.8710081 L110.161172,28.0605357 L124.269729,28.0605357 C126.759128,28.0605357 128.583905,28.2418895 129.408681,30.5989775 C129.759384,31.5609188 129.842142,33.7180068 129.65568,37.0076619 L128.874837,50.9190281 L128.874837,50.9190281 Z" id="path62" fill="#8B1535"></path>
                        <path d="M146.534862,39.0687091 L142.361171,39.0687091 L142.395654,39.794635 L143.066152,53.8574699 L144.438566,53.9581085 L147.215322,39.8968062 L147.378796,39.0687091 L146.534862,39.0687091 Z M154.992844,32.8710081 L154.437033,32.8710081 L154.315705,33.414814 L148.871005,58.0211991 L138.187481,58.0211991 L136.214811,33.508556 L136.163981,32.8710081 L135.523879,32.8710081 L134.247251,32.8710081 L134.533585,28.0605357 L141.674581,28.0605357 L142.125156,34.6646224 L142.170111,35.3111102 L142.817621,35.3111102 L147.422729,35.3111102 L147.995909,35.3111102 L148.1037,34.7494244 L149.393355,28.0605357 L157.066663,28.0605357 L156.431669,32.8710081 L154.992844,32.8710081 L154.992844,32.8710081 Z" id="path64" fill="#8B1535"></path>
                        <path d="M191.249548,27.059514 L189.369344,27.059514 L189.26564,27.6291181 L184.791566,52.0140472 L184.640353,52.8337152 L185.474069,52.8337152 L186.520302,52.8337152 L185.586713,57.9833957 L177.672537,57.9833957 C177.074325,55.7540216 174.733074,47.0145582 174.719536,46.9752223 C174.302933,45.7601521 174.194376,45.4214548 173.830136,44.1989772 L173.329242,42.5131535 L172.544057,44.0865889 C171.886075,45.4040857 171.742269,45.6536387 171.043929,46.8697306 L165.007914,57.9833957 L157.023751,57.9833957 L157.705743,52.8337152 L159.016343,52.8337152 L159.62043,52.8337152 L159.704211,52.2347369 L162.25006,33.8886326 L162.358872,33.0934858 L161.557595,33.0985943 L160.159128,33.1083006 L160.88914,27.9627068 L168.778029,27.9627068 C168.37292,31.0250312 166.912129,42.0817359 166.912129,42.0835239 C166.821196,42.7818636 166.765002,43.0799478 166.685564,43.4919529 L166.548399,44.2326937 L167.837544,44.6947626 L174.752486,32.4592584 L178.594887,44.4311611 L179.947888,44.2730513 C180.021196,43.32899 180.058744,43.0916975 180.246228,41.9300117 L183.633201,21.9075346 L192.184925,21.9075346 L191.249548,27.059514" id="path66" fill="#8B1535"></path>
                        <path d="M46.9713909,15.6865641 L40.0079173,15.6865641 L40.6600245,19.2800251 L47.429373,19.2800251 L46.9713909,15.6865641 Z M46.0991049,8.85644933 L38.7690923,8.85644933 L39.4536389,12.6309065 L46.5803309,12.6309065 L46.0991049,8.85644933 Z M56.1713907,20.295836 L50.0291175,22.3351719 L27.8916979,22.3351719 L31.0584922,18.4546611 L28.7629622,5.80280956 L47.9131533,5.80280956 L55.4809692,8.3169602 L56.0360139,12.6674326 L50.3187727,14.278416 L55.6112374,15.9182371 L56.1713907,20.295836 L56.1713907,20.295836 Z" id="path68" fill="#FFFFFF"></path>
                        <path d="M96.1665365,11.8220176 L98.3690908,19.2800251 L99.6914407,19.2800251 L102.200508,11.8220176 L96.1665365,11.8220176 Z M95.2406106,22.3351719 L87.0160898,22.3351719 L90.2727947,19.0707786 L84.709321,5.80280956 L94.3713897,5.80280956 L95.2546592,8.76704959 L103.237801,8.76704959 L104.24342,5.80280956 L113.905233,5.80280956 L106.449039,22.3351719 L95.2406106,22.3351719 L95.2406106,22.3351719 Z" id="path70" fill="#FFFFFF"></path>
                        <path d="M126.441887,15.4163725 L126.225284,19.2800251 L132.779562,19.2800251 L133.183138,15.4163725 L126.441887,15.4163725 Z M137.119792,13.9111363 L142.30983,15.5062576 L141.860277,19.8204082 L134.351465,22.3351719 L121.254914,22.3351719 L116.602807,22.3351719 L113.030904,22.3351719 L116.803828,18.7537926 L117.5272,5.80280956 L126.979052,5.80280956 L126.612513,12.3621964 L133.501402,12.3621964 L134.185948,5.80280956 L143.6378,5.80280956 L142.970622,12.1829116 L137.119792,13.9111363 L137.119792,13.9111363 Z" id="path72" fill="#FFFFFF"></path>
                        <polyline id="path74" fill="#FFFFFF" points="174.039076 13.0822985 166.354274 15.595172 157.37854 15.8651592 156.956829 19.2800251 163.401528 19.2800251 163.793099 17.0334351 173.034989 17.0334351 172.54891 19.8204082 164.86513 22.3351719 155.184926 22.3351719 154.372665 22.3351719 146.960405 22.3351719 149.103445 20.4245461 147.4378 19.8204082 148.017365 15.1453636 155.574964 12.6309065 164.712129 12.3621964 165.323112 8.85644933 158.038566 8.85644933 157.758617 11.103729 148.20204 11.103729 148.549677 8.3169602 156.105743 5.80280956 168.05951 5.80280956 174.869727 8.3169602 174.039076 13.0822985"></polyline>
                        <polyline id="path76" fill="#FFFFFF" points="61.814047 22.3351719 58.304724 22.3351719 61.327457 18.8181349 59.5266907 5.80280956 80.1264348 5.80280956 80.391058 8.85644933 69.1915692 8.85644933 69.7634721 12.9902934 79.1731781 12.9902934 79.4385676 16.0465641 70.1859497 16.0465641 70.6337147 19.2800251 81.2939954 19.2800251 81.5578524 22.3351719 66.5297557 22.3351719 61.814047 22.3351719"></polyline>
                        <path d="M51.8224764,65.4372908 C54.9527445,66.1361414 58.1254136,67.0750941 61.1486575,68.3315436 C61.1486575,68.3315436 62.94125,69.5565755 63.4929741,70.6492958 C64.0426548,71.7415052 63.4365246,74.7629611 65.2150686,75.2669202 C66.9954006,75.7688359 69.0860775,77.5800747 71.7593852,79.9392062 L75.9994872,85.1632163 C75.9994872,85.1632163 76.3964221,85.5665368 77.7688359,87.0595125 L78.0222203,87.3665368 C76.9867158,88.6937398 76.3749662,91.0321816 76.3749662,91.0321816 C74.6753493,92.0030628 72.9297555,94.6916962 72.9297555,94.6916962 L71.9039573,92.5777755 C65.369347,95.3366515 64.9338426,99.5524879 64.9338426,99.5524879 L63.7504454,98.554276 C62.488121,100.334608 61.6357584,102.842398 61.162706,104.524902 C56.6592578,97.6776476 55.3662821,93.0919517 55.3662821,93.0919517 C55.3662821,93.0919517 49.1440601,88.4498062 47.3024254,85.2074053 C45.4602798,81.9662815 43.3547882,79.7900363 41.2418891,78.249551 L38.9803311,76.5987209 C34.6017871,76.0155792 29.9284795,74.7744553 26.7785434,72.2296278 L28.3660274,71.8802025 C28.3660274,71.8802025 26.1565766,69.986716 24.8133072,67.648785 C24.8133072,67.648785 26.9994885,66.9509562 26.813537,64.3994875 C26.813537,64.3994875 28.802809,67.3667927 30.9422725,67.1363968 C32.6587476,66.9509562 33.1226045,65.6515948 33.1226045,65.6515948 C33.1226045,65.6515948 35.1637284,67.599232 36.6482749,67.4607901 C38.1323107,67.3223483 39.0137921,65.9762436 39.1992327,65.6515948 C39.1992327,65.6515948 41.0084281,68.1560647 42.5394625,68.0638553 C44.0702416,67.9706241 44.951723,67.2745832 45.5083003,66.4401005 C45.5083003,66.4401005 47.2247753,69.177776 48.5701137,69.177776 C49.9149413,69.177776 50.8888876,68.7131528 51.538696,67.7392065 C52.1877382,66.765771 51.8738173,65.6888872 51.8224764,65.4372908" id="path78" fill="#8B1535"></path>
                        <path d="M109.540227,80.4888869 L103.780585,82.2211985 L91.4676861,76.2388231 L81.8998702,79.0416328 L66.565771,72.6888871 L76.1619393,74.7997427 L71.6408667,70.4825014 L81.7872266,75.9468691 L85.7885036,74.5141744 L67.9573419,64.084545 L96.2344804,76.149168 L94.271262,72.8418883 L91.3116197,71.5404835 L87.2176223,63.7386957 L101.495272,77.4643659 L104.196677,76.9670479 C106.34789,79.1325651 107.941249,79.915196 109.540227,80.4888869" id="path80" fill="#B3B5B7"></path>
                        <path d="M146.242397,68.9793086 L171.640098,64.3014032 L146.140737,71.9787977 C145.809447,70.8962945 146.001018,69.7734338 146.242397,68.9793086" id="path82" fill="#B3B5B7"></path>
                        <path d="M103.773944,67.3925909 C103.773944,67.3925909 104.566281,71.9844171 107.487609,74.6646214 L105.817877,75.2602791 C105.817877,75.2602791 110.939461,81.3256685 126.996421,77.7432931 C126.996421,77.7432931 122.355042,80.4127694 116.81379,80.1065114 C116.81379,80.1065114 119.696804,82.3208153 120.096038,85.5721562 C120.494505,88.8234971 119.432436,90.2830118 122.020176,93.1363961 C122.020176,93.1363961 120.096038,92.80434 119.498848,92.2738163 C119.498848,92.2738163 115.850061,93.6005085 113.79259,95.4584906 C113.79259,95.4584906 109.88199,92.3489121 105.202296,91.4155788 C105.202296,91.4155788 115.746613,97.0556808 114.67024,109.958107 L116.581351,108.502935 C116.581351,108.502935 119.16296,117.463854 113.890419,123.778286 C113.890419,123.778286 117.175987,126.576242 117.110086,129.760916 C117.110086,129.760916 120.343037,126.634735 121.887098,123.126178 C122.616855,121.46743 122.351466,123.657213 122.351466,123.657213 C122.351466,123.657213 121.555808,128.633202 118.901146,132.614045 C118.901146,132.614045 130.047762,130.092972 137.943547,116.358873 C137.943547,116.358873 158.047506,107.202552 165.029881,87.7844167 C165.029881,87.7844167 157.583904,96.5864599 145.906254,100.766536 C145.906254,100.766536 150.218898,97.5151955 152.274837,93.9325647 C152.274837,93.9325647 141.593355,102.226051 133.033458,105.079435 C133.033458,105.079435 139.617876,99.8998698 142.695271,92.7690909 L139.07688,93.3816069 C139.07688,93.3816069 147.365003,86.7662814 142.654403,82.1223479 C137.943547,77.4779036 144.57854,74.6255409 144.57854,74.6255409 C144.57854,74.6255409 142.786714,74.2934847 142.986203,72.103191 C143.185692,69.9141745 144.048272,66.264877 136.683266,65.2033189 C136.683266,65.2033189 136.948145,67.9238808 134.161938,68.4544044 C131.375731,68.9856943 130.844441,66.4641107 130.844441,66.4641107 C130.844441,66.4641107 129.915961,68.1231145 127.859001,68.1890149 C125.801785,68.2551707 124.475093,65.8007646 124.475093,65.8007646 C124.475093,65.8007646 123.943803,67.5259242 122.152487,67.9238808 C120.361427,68.3218374 118.570367,67.4592576 117.840099,66.1328208 C117.840099,66.1328208 117.308809,68.3218374 114.588247,68.5862052 C111.868963,68.8521056 110.740483,66.2656433 110.740483,66.2656433 C110.740483,66.2656433 110.67356,68.3218374 108.285566,69.2503176 C105.897826,70.179564 103.773944,67.3925909 103.773944,67.3925909" id="path84" fill="#8B1535"></path>
                        <path d="M84.1047233,136.114428 C84.1047233,136.114428 89.659257,140.228604 93.636013,140.434224 C97.6137907,140.640099 102.893995,139.81711 104.951466,138.856957 C104.951466,138.856957 102.897571,138.372666 101.900636,136.180329 C101.900636,136.180329 95.96858,140.09144 84.1047233,136.114428" id="path86" fill="#8B1535"></path>
                        <path d="M87.1961664,100.768069 L88.0406108,99.9555531 L88.9287334,100.768069 L89.6784141,99.9157063 L90.6143017,100.68199 C91.2240079,100.213024 91.8804575,98.1650039 91.8804575,98.1650039 C92.7578521,99.762705 92.6286056,101.005617 92.6286056,101.005617 C89.4919518,101.731032 87.1961664,101.587992 87.1961664,101.587992 C87.1961664,101.587992 84.902169,101.731032 81.7655152,101.005617 C81.7655152,101.005617 81.6472521,99.6809681 82.5116199,98.1650039 C82.5116199,98.1650039 83.1701129,100.213024 83.7772648,100.68199 L84.7139187,99.9157063 L85.4643657,100.768069 L86.3529991,99.9555531 L87.1961664,100.768069" id="path88" fill="#FFFFFF"></path>
                        <path d="M81.8061282,100.971134 C81.7961665,100.76858 81.7744552,99.5961661 82.5016582,98.2707511 C82.6395892,98.6817344 83.2079162,100.296294 83.7509558,100.715962 C83.7667923,100.728222 83.7890145,100.727711 83.8043402,100.715195 L84.7090656,99.9749656 L85.4321818,100.796166 C85.4398446,100.804851 85.4505726,100.810215 85.4620668,100.810725 C85.4745828,100.810981 85.4847999,100.807405 85.4934845,100.799742 L86.3522328,100.014301 L87.1665368,100.79872 C87.1828842,100.814812 87.2094486,100.814812 87.225796,100.798976 L88.0413771,100.014301 L88.8998701,100.799487 C88.9082992,100.807405 88.9164729,100.811236 88.9312877,100.810725 C88.9425265,100.810215 88.9532545,100.804851 88.9609173,100.796166 L89.6832672,99.9749656 L90.5869709,100.715195 C90.602552,100.727711 90.6247742,100.728222 90.6403553,100.715962 C91.1849275,100.29706 91.751211,98.6870984 91.8901637,98.2727945 C92.6280947,99.6641099 92.5999977,100.775987 92.588248,100.970879 C89.5098317,101.678669 87.2219646,101.546358 87.1987207,101.545336 C87.1711345,101.546868 84.8845445,101.678669 81.8061282,100.971134 L81.8061282,100.971134 Z M82.5116199,98.1220921 C82.4962942,98.1220921 82.4819903,98.1302657 82.4745829,98.1438034 C81.6132802,99.6538928 81.7215816,100.995911 81.7228587,101.009448 C81.7243913,101.027839 81.7376736,101.043165 81.7558089,101.047252 C84.8628331,101.766026 87.1757322,101.632181 87.1987207,101.630904 C87.2168561,101.631926 89.5317985,101.76577 92.6383119,101.047252 C92.6561918,101.043165 92.6694741,101.028095 92.6712621,101.009959 C92.6725392,100.997443 92.791824,99.7353743 91.9180054,98.1443143 C91.9098317,98.129244 91.8937397,98.1197932 91.8763706,98.1223475 C91.859257,98.1238801 91.844953,98.1356297 91.839589,98.1517217 C91.8332033,98.1719005 91.1994869,100.133075 90.6145571,100.626562 L89.7054895,99.8825007 C89.6876095,99.8681967 89.6613004,99.8699847 89.6462302,99.8873538 L88.9254128,100.706766 L88.0694742,99.92388 C88.0528714,99.9085543 88.0270732,99.9093206 88.0109812,99.9246463 L87.1961664,100.708554 L86.3826287,99.9246463 C86.3665368,99.9088098 86.340994,99.9082989 86.3238803,99.92388 L85.4676862,100.706766 L84.7461026,99.8873538 C84.7305215,99.8699847 84.7044679,99.8681967 84.6868433,99.8825007 L83.7770094,100.626562 C83.1943785,100.13282 82.5588741,98.1719005 82.5524884,98.1517217 C82.5471244,98.1356297 82.5330758,98.1241355 82.5162176,98.1223475 C82.514685,98.1220921 82.5131525,98.1220921 82.5116199,98.1220921 L82.5116199,98.1220921 Z" id="path90" fill="#FFFFFF"></path>
                        <path d="M99.031926,119.526689 C98.7529988,119.277647 98.4681968,119.068707 98.1828839,118.892206 C98.1862044,118.860278 98.2028073,118.83448 98.2028073,118.803062 C98.2028073,118.302679 97.7652594,117.893994 97.2260512,117.893994 C96.9397166,117.893994 96.688631,118.015578 96.5095761,118.197443 C96.0421432,118.089397 95.5923348,118.041887 95.1787971,118.038567 C95.3552977,117.440866 96.4492952,117.127711 97.6845442,117.339461 C98.9527434,117.555808 99.879691,118.241887 99.7540205,118.87356 C99.6970601,119.162449 99.4250294,119.385438 99.031926,119.526689" id="path92" fill="#FFFFFF"></path>
                        <path d="M75.9634719,119.526689 C76.2423991,119.277647 76.5272012,119.068707 76.8122586,118.892206 C76.8091935,118.860278 76.7928461,118.83448 76.7928461,118.803062 C76.7928461,118.302679 77.2301386,117.893994 77.7688359,117.893994 C78.0556813,117.893994 78.306256,118.015578 78.4853109,118.197443 C78.9532547,118.089397 79.4022969,118.041887 79.8158345,118.038567 C79.6398448,117.440866 78.5458473,117.127711 77.3100875,117.339461 C76.0416328,117.555808 75.1157069,118.241887 75.2413774,118.87356 C75.2973161,119.162449 75.5701131,119.385438 75.9634719,119.526689" id="path94" fill="#FFFFFF"></path>
                        <path d="M87.185183,91.8441867 L87.8610451,92.7499338 L88.7496785,92.0584907 L89.2380565,92.9943783 L90.1586184,92.3527435 C90.5941229,92.8924626 91.2403553,94.8699849 91.2403553,94.8699849 C91.9910577,93.2717729 91.8794358,92.0298828 91.8794358,92.0298828 C89.5300105,90.7100871 87.2349914,90.6020412 87.2349914,90.6020412 C87.2349914,90.6020412 84.7468689,90.7644933 82.591058,92.0298828 C82.591058,92.0298828 82.4899085,93.3519772 83.2293721,94.8699849 C83.2293721,94.8699849 83.8768817,92.8911854 84.3131524,92.3527435 L85.2334589,92.9961663 L85.7218369,92.0607895 L86.6089378,92.7499338 L87.185183,91.8441867" id="path96" fill="#FFFFFF"></path>
                        <path d="M82.6293721,92.0533821 C84.7486569,90.816856 87.2127692,90.643165 87.2375457,90.6416325 C87.2559365,90.6429096 89.5340974,90.7642378 91.841377,92.053893 C91.8508278,92.2183885 91.8878649,93.3463578 91.2462302,94.7624497 C91.1100871,94.3565749 90.5747104,92.8051062 90.1895252,92.327967 C90.1764984,92.3118751 90.1532545,92.30881 90.1358854,92.3203042 L89.2523605,92.9361407 L88.7846721,92.0403553 C88.7793081,92.0298828 88.7696019,92.0224753 88.7581076,92.0199211 C88.7466134,92.0171114 88.7346083,92.0201765 88.7251574,92.0273285 L87.8684525,92.6937397 L87.2168561,91.8204319 C87.2089378,91.8099594 87.1966773,91.8005086 87.1836504,91.8045954 C87.1706236,91.8048508 87.1586185,91.8117474 87.151722,91.8227308 L86.5987207,92.6916963 L85.7461026,92.0293719 C85.7369072,92.0222199 85.7246466,92.0199211 85.7134078,92.0219645 C85.7019136,92.0245188 85.6922073,92.0319262 85.6865879,92.0423987 L85.219155,92.9379287 L84.3358855,92.3203042 C84.3187718,92.3082991 84.2957833,92.3118751 84.2822457,92.327967 C83.8960388,92.8045954 83.3583632,94.3611726 83.222731,94.7642377 C82.5895254,93.4109811 82.620943,92.2224753 82.6293721,92.0533821 L82.6293721,92.0533821 Z M87.2367794,90.5627053 C87.2074052,90.5642378 84.7103427,90.7399722 82.5708792,91.9956554 C82.5596403,92.0022966 82.5524884,92.0140462 82.5514666,92.0268176 C82.5504449,92.0403553 82.4582355,93.3772646 83.1938677,94.8873539 C83.2007642,94.9019133 83.2148127,94.9105979 83.2321818,94.9095762 C83.2482738,94.9085545 83.2620669,94.8978265 83.2671754,94.8825008 C83.2735611,94.8628329 83.8947616,92.9724115 84.3213261,92.4068942 L85.2107258,93.0286056 C85.2201767,93.0352467 85.2319263,93.0375456 85.2429097,93.0347359 C85.2538931,93.0319262 85.263344,93.0245187 85.268708,93.0145571 L85.7351192,92.1210705 L86.5846722,92.781096 C86.5933567,92.7877371 86.604851,92.7908023 86.6155789,92.7887589 C86.6265623,92.7869709 86.6362686,92.7805852 86.6423989,92.7711343 L87.1877373,91.9139185 L87.8291166,92.7734332 C87.8355023,92.7821177 87.8452085,92.7874817 87.8556811,92.7890143 C87.8666645,92.790036 87.8768816,92.7874817 87.8853107,92.781096 L88.7363962,92.1190271 L89.2028075,93.0125136 C89.2081715,93.0227308 89.2176223,93.0301382 89.2286057,93.0326924 C89.2398445,93.036013 89.2513388,93.0332033 89.2607896,93.0268176 L90.1504447,92.4068942 C90.5762429,92.9736886 91.1964217,94.8628329 91.2028074,94.8825008 C91.207916,94.8978265 91.2217091,94.9085545 91.237801,94.9095762 C91.2582353,94.9088099 91.2692187,94.9014025 91.2763706,94.8868431 C92.0227308,93.2973157 91.9197934,92.0388227 91.9187716,92.0265622 C91.9174945,92.0132799 91.9100871,92.0017857 91.8988483,91.9954 C89.5683247,90.6860769 87.2600234,90.5634716 87.2367794,90.5627053 L87.2367794,90.5627053 Z" id="path98" fill="#FFFFFF"></path>
                        <path d="M85.8574691,85.3363963 C85.8574691,85.3363963 91.9798189,84.9974436 93.0429096,90.1363962 C93.0429096,90.1363962 96.0556809,93.6804574 96.3215812,98.4648762 C96.5872262,103.24955 96.853382,104.667175 97.0303935,105.109831 C97.2068941,105.553254 99.5108532,109.185949 97.2068941,111.666919 C94.9034459,114.14789 89.4822455,118.001785 91.9713898,122.144314 C91.9713898,122.144314 91.40434,117.685055 98.4477625,121.413279 C104.472539,124.602807 105.85849,123.153254 105.85849,123.153254 C105.85849,123.153254 102.48199,122.947123 100.420943,119.654914 C100.420943,119.654914 102.942015,118.9719 100.042909,117.16015 C97.9164726,115.831415 96.4040844,116.642143 96.4040844,116.642143 C96.4040844,116.642143 96.7647485,114.679435 98.9795633,113.172922 C101.194378,111.666919 101.847762,107.411747 100.280968,104.444697 C100.280968,104.444697 104.436524,106.814046 104.100381,112.385693 C104.100381,112.385693 107.176498,106.099359 101.040355,99.2252849 C101.040355,99.2252849 105.533586,100.784161 107.660789,105.693739 L109.043165,104.371134 C109.043165,104.371134 112.331798,107.587226 111.547635,115.475093 L113.523113,114.298848 C113.523113,114.298848 113.370112,121.507788 104.403573,129.301657 C104.403573,129.301657 105.806894,133.269218 109.65849,132.923368 C109.65849,132.923368 110.82835,131.598464 109.201274,127.879435 C109.201274,127.879435 110.703956,126.606893 111.177009,126.003317 C111.177009,126.003317 117.498337,130.627583 111.915706,134.969345 C106.33282,139.310852 103.361939,131.391057 103.361939,131.391057 C103.361939,131.391057 100.381351,136.905233 87.4089378,131.640099 L87.4089378,129.12158 C87.4089378,129.12158 85.6237526,132.285565 81.9351193,133.184416 C81.9351193,133.184416 85.4232418,130.273815 86.1323095,125.666153 C86.1323095,125.666153 80.6086825,131.356829 71.4533826,131.391057 C71.4533826,131.391057 70.1839063,137.982117 64.0702411,135.057979 C57.9563204,132.134096 63.7346089,126.953254 63.7346089,126.953254 L65.4355028,127.866153 C65.4355028,127.866153 63.7644939,130.584671 64.9803304,132.910086 C64.9803304,132.910086 68.3647492,133.085565 70.381352,129.41992 C70.381352,129.41992 75.5908027,130.688886 79.79821,127.33614 C79.79821,127.33614 64.2199218,131.310852 61.3540215,114.444952 L63.2681977,115.475093 C63.2681977,115.475093 62.2436766,109.945591 64.884545,105.93282 C64.884545,105.93282 63.8929741,112.819154 67.171135,118.57803 C67.171135,118.57803 64.7338426,108.016089 69.8510838,102.575732 C69.8510838,102.575732 68.3228591,107.856702 70.4490404,111.755553 C70.4490404,111.755553 70.6888871,106.785438 74.4234975,104.707277 C74.4234975,104.707277 72.5757325,109.628605 75.3226035,112.46411 C77.3289891,114.535118 78.058491,115.992079 78.306256,116.626817 C78.306256,116.626817 77.281735,115.957341 74.8840339,117.056447 C72.4868437,118.155042 73.519283,119.220176 73.519283,119.220176 C73.519283,119.220176 72.1200493,120.671006 69.972412,121.41098 C69.972412,121.41098 71.4883762,121.618132 73.3862051,120.88531 C73.3862051,120.88531 72.253638,122.616089 69.057725,123.149167 C69.057725,123.149167 71.7351195,124.407149 75.8970607,121.510597 C79.1243914,119.676115 82.8089379,118.801785 82.8089379,122.122602 C82.8089379,125.027072 81.1614284,126.212002 81.1614284,126.212002 C81.1614284,126.212002 85.8656428,124.877902 88.1662813,120.650827 C88.1662813,120.650827 85.5052341,120.385948 83.6408664,118.621453 C83.6408664,118.621453 85.7386952,119.120304 87.6370348,118.72107 C87.6370348,118.72107 83.2482738,118.058235 81.0306493,113.811236 C81.0306493,113.811236 80.8439316,115.225029 81.1772649,115.757596 C81.1772649,115.757596 74.9734336,111.591057 77.3596405,107.548145 L75.9167286,108.132564 C75.9167286,108.132564 77.8809687,105.569346 77.7478908,101.407149 C77.6150683,97.2452083 78.6804578,98.5100869 79.1131526,99.6750933 C79.5455919,100.840866 81.044187,102.672284 83.208427,102.805361 C85.3726671,102.938184 87.1639825,103.877392 87.1639825,103.877392 C87.1639825,103.877392 88.569091,103.038312 91.0329479,102.838567 C93.4970602,102.638822 95.1616834,100.840866 94.628861,98.2436757 C94.0962939,95.6469963 93.4094485,86.1389506 83.3810963,89.3614282 C83.3810963,89.3614282 85.1060004,86.9900361 89.3348637,87.788759 C89.3348637,87.788759 88.6733056,86.1471243 85.8574691,85.3363963" id="path100" fill="#8B1535"></path>
                        <path d="M87.1522328,104.717494 C84.3486569,106.54508 82.2127693,105.918516 82.2127693,105.918516 C80.4950171,107.667941 80.5335867,109.589014 80.5335867,109.589014 C80.5335867,111.984927 82.4051065,112.149678 82.4051065,112.149678 C84.8868433,111.081734 87.1522328,110.983905 87.1522328,110.983905 C87.1522328,110.983905 89.415068,111.081734 91.8983374,112.149678 C91.8983374,112.149678 93.7696017,111.984927 93.7696017,109.589014 C93.7696017,109.589014 93.8074051,107.667941 92.0888866,105.918516 C92.0888866,105.918516 89.7131523,106.59872 87.1522328,104.717494" id="path102" fill="#231F20"></path>
                    </g>
                </g>
            </g>
        </g>
    </g>
</svg>