<?xml version="1.0" encoding="UTF-8"?>
<svg width="200px" height="200px" viewBox="0 0 200 200" version="1.1" xmlns="http://www.w3.org/2000/svg" xmlns:xlink="http://www.w3.org/1999/xlink">
    <!-- Generator: Sketch 54.1 (76490) - https://sketchapp.com -->
    <title>brockport</title>
    <desc>Created with Sketch.</desc>
    <g id="brockport" stroke="none" stroke-width="1" fill="none" fill-rule="evenodd">
        <g id="brockport_BGL">
            <g id="brockport" transform="translate(0.000000, 15.000000)">
                <path d="M123.300971,0.339805825 C137.742718,0.77184466 152.572816,4.54368932 164.839806,12.3398058 C171.538835,16.6165049 177.757282,22.8398058 180.898058,30.2330097 C181.781553,32.131068 182.043689,34.2087379 182.776699,36.1456311 C183.57767,37.1067961 184.621359,37.8834951 185.529126,38.7378641 C189.76699,42.6796117 193.446602,47.2621359 196.092233,52.4174757 C198.509709,57.3786408 199.975728,62.907767 199.834951,68.4563107 C199.631068,76.723301 197.184466,84.9757282 191.985437,91.5 C187.213592,97.723301 179.873786,101.941748 172.135922,103.087379 C173.067961,101.024272 174.432039,99.2281553 175.427184,97.1941748 C177.538835,93.0194175 179.184466,88.3398058 179.509709,83.6456311 C175.825243,82.2087379 172.145631,80.7961165 168.635922,78.9563107 C167.024272,78.2038835 165.558252,77.1456311 163.932039,76.4320388 C162.88835,76.3543689 161.752427,76.9320388 160.786408,77.2864078 C155.553398,79.5242718 150.582524,82.4029126 146.063107,85.8543689 C145.524272,86.2912621 144.854369,86.7718447 144.567961,87.4126214 C144.723301,91.7038835 145.334951,95.9563107 146.368932,100.126214 C150.291262,116.645631 158.038835,132.849515 169.902913,145.145631 C171.76699,147.203883 174.043689,148.81068 175.878641,150.883495 C170.854369,151.305825 165.699029,151.247573 160.665049,150.936893 C151.199029,150.42233 141.606796,149.252427 132.373786,147.067961 C129.970874,146.529126 127.665049,145.665049 125.262136,145.131068 C122.864078,147.626214 120.631068,150.31068 118.004854,152.475728 C106.446602,162.398058 91.2815534,167.941748 76.1893204,169.067961 C78.6067961,163.063107 81.1359223,157.242718 82.461165,150.859223 C83.1893204,147.072816 84.038835,143.208738 84.3495146,139.364078 C65.7864078,147.776699 44.4854369,149.699029 24.8398058,144.082524 C21.4417476,143.067961 17.9271845,142.048544 14.7621359,140.42233 C18.7038835,137.11165 22.4271845,133.597087 25.9271845,129.820388 C29.1359223,126.043689 32.1165049,121.990291 34.4902913,117.635922 C29.3446602,116.830097 24.3398058,115.65534 19.5631068,113.524272 C12.5776699,110.543689 5.76213592,106.558252 0.174757282,101.383495 C15.723301,91.7135922 29.9708738,79.5 41.2621359,65.0485437 C42.8640777,62.8349515 44.9951456,60.4466019 45.6699029,57.7815534 C47.4126214,51.7864078 49.723301,45.9466019 52.4951456,40.3543689 C55.8398058,33.9126214 59.7184466,27.8058252 65.0048544,22.7718447 C68.3834951,19.2378641 72.3300971,16.8737864 76.4660194,14.3495146 C80.6165049,11.9271845 84.8009709,9.58737864 89.2475728,7.73300971 C99.8349515,3.19417476 111.708738,-0.101941748 123.300971,0.339805825 Z" id="Shape" fill="#1A2820" fill-rule="nonzero"></path>
                <path d="M124.271845,5.18446602 C138.101942,5.86893204 152.402913,9.76699029 163.912621,17.6407767 C168.276699,20.6359223 172.315534,24.2281553 175.126214,28.7621359 C176.946602,31.7864078 178.228155,35.0242718 178.038835,38.6165049 C176.427184,39.6019417 174.830097,40.592233 173.174757,41.4951456 C171.461165,39.2524272 171.18932,36.5533981 169.694175,34.1747573 C166.019417,27.961165 159.820388,23.1407767 153.533981,19.7621359 C141.883495,13.7669903 128.621359,10.8058252 115.533981,11.1213592 C109.757282,11.3300971 103.490291,12.0291262 98.2135922,14.5339806 C101.640777,15.5631068 105.019417,15.5582524 108.276699,17.1796117 C105.480583,17.7961165 102.65534,18.131068 99.8737864,18.8058252 C90.3737864,21.184466 81.4271845,25.2087379 74.3349515,32.1019417 C71.1650485,35.3398058 68.184466,38.9368932 66.538835,43.2087379 C69.0679612,42.6067961 71.4660194,41.6359223 73.9660194,40.9417476 C83.3592233,38.3786408 93.3349515,37.9417476 102.898058,39.8203883 C104.087379,40.0631068 105.208738,40.5 106.315534,40.9902913 C99.961165,42.8058252 93.868932,44.8883495 88.2330097,48.4223301 C78.4660194,54.368932 70.5194175,63.2184466 65.9417476,73.7184466 C64.7718447,76.2961165 63.7621359,78.9174757 63.2475728,81.7135922 C65.8252427,80.4708738 68.0485437,78.723301 70.5339806,77.3300971 C74.907767,74.8009709 79.4417476,72.5339806 84.0582524,70.4854369 C86.2087379,69.5242718 88.3786408,68.6941748 90.7087379,68.276699 C92.8009709,71.7087379 94.3980583,75.4514563 96.0582524,79.1067961 C100.165049,89.6407767 102.825243,100.548544 104.674757,111.68932 C105.61165,117.665049 105.417476,123.592233 105.88835,129.597087 C106.038835,133.81068 105.533981,138.033981 105.42233,142.247573 C104.873786,147.121359 104.475728,152.053398 103.441748,156.849515 C97.5291262,159.985437 90.8106796,162.252427 84.0970874,162.567961 C87.4805825,152.65534 89.4271845,142.043689 89.1650485,131.553398 C89.3446602,123.417476 88.1553398,115.31068 85.815534,107.519417 C85.6359223,106.907767 85.3932039,106.31068 85.1359223,105.728155 C83.9126214,107.990291 83.1893204,110.402913 82.1359223,112.737864 C77.9708738,121.820388 72.5873786,130.291262 65.8058252,137.650485 C64.184466,139.34466 62.4708738,140.88835 61.1165049,142.825243 C55.631068,143.902913 50.2184466,143.970874 44.6504854,143.800971 C37.8446602,143.373786 30.9174757,142.456311 24.4271845,140.257282 C25.9368932,138.582524 27.6456311,137.135922 29.2281553,135.538835 C37.7281553,127.063107 43.7815534,115.941748 47.2718447,104.514563 C48.4951456,100.378641 49.7038835,95.9417476 49.8543689,91.6262136 C49.8883495,91.1796117 49.9174757,90.7378641 49.9368932,90.2912621 C46.8883495,93.2087379 44.1893204,96.4708738 41.0728155,99.3300971 C36.223301,103.718447 31.4805825,108.024272 26.1067961,111.776699 C19.6990291,109.684466 13.368932,106.271845 8.62135922,101.427184 C10.3737864,100.223301 12.2427184,99.2087379 14,98.0097087 C19.5728155,94.1504854 24.7572816,89.6796117 29.5339806,84.8737864 C35.5145631,79.0242718 41.0242718,72.6650485 46.1553398,66.0582524 C47.5,64.2961165 49.184466,62.5825243 49.815534,60.4417476 C52.0145631,52.8349515 54.9805825,45.3640777 58.9223301,38.4902913 C62.5242718,32.3592233 67.2087379,26.2135922 73.1407767,22.1699029 C81.0825243,16.7912621 89.538835,12.3058252 98.6650485,9.2961165 C106.932039,6.44660194 115.490291,4.72330097 124.271845,5.18446602 Z" id="Shape" fill="#F8CD21" fill-rule="nonzero"></path>
                <path d="M115.533981,11.1213592 C128.621359,10.8058252 141.883495,13.7669903 153.533981,19.7621359 C159.820388,23.1407767 166.019417,27.961165 169.694175,34.1747573 C171.18932,36.5533981 171.461165,39.2524272 173.174757,41.4951456 C160.563107,48.2621359 146.373786,51.9174757 132.038835,51.592233 C129.626214,51.4757282 127.223301,51.2475728 124.815534,51.1213592 C133.427184,56.0582524 141.558252,62.1213592 149.757282,67.7184466 C152.427184,69.5728155 155.223301,71.2330097 157.776699,73.223301 C151.694175,76.368932 145.961165,79.4029126 140.699029,83.8834951 C139.291262,84.907767 139.737864,87.3106796 139.718447,88.8349515 C140.5,101.364078 143.160194,114.271845 148.640777,125.626214 C151.34466,131.349515 154.980583,136.572816 159.281553,141.203883 C160.893204,142.917476 162.776699,144.364078 164.495146,145.975728 C157.601942,146.07767 150.364078,145.257282 143.621359,143.815534 C144.480583,143.771845 145.334951,143.694175 146.18932,143.621359 C144.859223,141.42233 143.208738,139.461165 141.834951,137.296117 C138.713592,132.31068 135.917476,127.126214 133.635922,121.703883 C126.325243,104.597087 121.65534,86.1699029 122.106796,67.4660194 C120.985437,70.8834951 120.543689,74.3980583 120.169903,77.961165 C119.723301,82.3737864 119.31068,86.8203883 119.26699,91.2621359 C119.174757,96.6699029 120.184466,101.932039 120.373786,107.330097 C120.179612,105.84466 119.975728,104.432039 119.140777,103.145631 C119.038835,103.713592 118.951456,104.281553 118.873786,104.849515 C118.184466,113.946602 119.121359,122.820388 120.631068,131.781553 C120.951456,134.024272 122.538835,137.116505 121.23301,139.18932 C117.281553,146.747573 110.932039,152.839806 103.441748,156.849515 C104.475728,152.053398 104.873786,147.121359 105.42233,142.247573 C105.533981,138.033981 106.038835,133.81068 105.88835,129.597087 C105.417476,123.592233 105.61165,117.665049 104.674757,111.68932 C102.825243,100.548544 100.165049,89.6407767 96.0582524,79.1067961 C94.3980583,75.4514563 92.8009709,71.7087379 90.7087379,68.276699 C88.3786408,68.6941748 86.2087379,69.5242718 84.0582524,70.4854369 C79.4417476,72.5339806 74.907767,74.8009709 70.5339806,77.3300971 C68.0485437,78.723301 65.8252427,80.4708738 63.2475728,81.7135922 C63.7621359,78.9174757 64.7718447,76.2961165 65.9417476,73.7184466 C70.5194175,63.2184466 78.4660194,54.368932 88.2330097,48.4223301 C93.868932,44.8883495 99.961165,42.8058252 106.315534,40.9902913 C105.208738,40.5 104.087379,40.0631068 102.898058,39.8203883 C93.3349515,37.9417476 83.3592233,38.3786408 73.9660194,40.9417476 C71.4660194,41.6359223 69.0679612,42.6067961 66.538835,43.2087379 C68.184466,38.9368932 71.1650485,35.3398058 74.3349515,32.1019417 C81.4271845,25.2087379 90.3737864,21.184466 99.8737864,18.8058252 C102.65534,18.131068 105.480583,17.7961165 108.276699,17.1796117 C105.019417,15.5582524 101.640777,15.5631068 98.2135922,14.5339806 C103.490291,12.0291262 109.757282,11.3300971 115.533981,11.1213592 Z" id="Shape" fill="#BB9A34" fill-rule="nonzero"></path>
                <path d="M125.257282,21.1456311 C126.126214,21.1650485 127.169903,21.0533981 127.92233,21.5485437 C129.582524,22.6019417 131.019417,24 132.626214,25.1407767 C138.495146,29.4417476 144.951456,33.0485437 151.781553,35.5825243 C154.601942,36.6650485 157.563107,37.2475728 160.398058,38.276699 C159.140777,38.9417476 157.864078,39.5533981 156.524272,40.0291262 C149.762136,42.4320388 142.597087,43.461165 135.436893,43.3398058 C130.135922,43.0825243 124.650485,42.5048544 119.597087,40.8203883 C120.621359,40.4271845 121.660194,40.0631068 122.694175,39.6990291 C121.286408,38.038835 119.805825,36.3980583 119.315534,34.2038835 C118.961165,32.4029126 119.063107,30.4757282 119.033981,28.6456311 C111.834951,26.4466019 104.058252,25.5776699 96.5776699,24.9805825 C100.208738,23.7378641 103.84466,23.2087379 107.616505,22.6165049 C113.461165,21.723301 119.349515,21.315534 125.257282,21.1456311 Z" id="Shape" fill="#1A2820" fill-rule="nonzero"></path>
                <path d="M130.325243,31.3300971 C131.043689,31.3543689 131.519417,31.6359223 131.402913,32.4320388 C130.927184,33.7427184 129.786408,33.6650485 128.631068,33.9368932 C129.140777,33.0436893 129.674757,32.131068 130.325243,31.3300971 Z" id="Shape" fill="#FFFFFF" fill-rule="nonzero"></path>
                <path d="M123.718447,33.6407767 C124.84466,34.5097087 126.063107,35.7378641 127.441748,36.1504854 C128.5,36.3980583 129.684466,36.4126214 130.737864,36.1262136 C132.456311,35.5436893 133.237864,33.8300971 134.995146,33.2087379 C134.31068,36.6262136 130.509709,38.5048544 127.330097,37.1990291 C125.533981,36.5679612 124.660194,35.1796117 123.718447,33.6407767 Z" id="Shape" fill="#FFFFFF" fill-rule="nonzero"></path>
                <path d="M155.150485,59.776699 C157.417476,59.7524272 159.509709,60.0631068 161.660194,60.7621359 C164.208738,61.6067961 166.791262,62.6699029 168.723301,64.6019417 C163.839806,65.2912621 158.378641,63.6213592 155.150485,59.776699 Z" id="Shape" fill="#FFFFFF" fill-rule="nonzero"></path>
                <path d="M122.106796,67.4660194 C121.65534,86.1699029 126.325243,104.597087 133.635922,121.703883 C135.917476,127.126214 138.713592,132.31068 141.834951,137.296117 C143.208738,139.461165 144.859223,141.42233 146.18932,143.621359 C145.334951,143.694175 144.480583,143.771845 143.621359,143.815534 C139.684466,142.878641 135.708738,141.868932 131.932039,140.402913 C130.378641,139.873786 129.917476,138.616505 129.223301,137.276699 C127.38835,133.402913 125.737864,129.470874 124.514563,125.359223 C122.640777,119.441748 121.106796,113.509709 120.373786,107.330097 C120.184466,101.932039 119.174757,96.6699029 119.26699,91.2621359 C119.31068,86.8203883 119.723301,82.3737864 120.169903,77.961165 C120.543689,74.3980583 120.985437,70.8834951 122.106796,67.4660194 Z" id="Shape" fill="#F8CD21" fill-rule="nonzero"></path>
                <path d="M49.9368932,90.2912621 C49.9174757,90.7378641 49.8883495,91.1796117 49.8543689,91.6262136 C48.5533981,95.0145631 47.4174757,98.4126214 45.8446602,101.68932 C43.8349515,106.014563 41.5776699,110.723301 38.3543689,114.276699 C34.1456311,114.038835 30.1165049,113.019417 26.1067961,111.776699 C31.4805825,108.024272 36.223301,103.718447 41.0728155,99.3300971 C44.1893204,96.4708738 46.8883495,93.2087379 49.9368932,90.2912621 Z" id="Shape" fill="#BB9A34" fill-rule="nonzero"></path>
                <path d="M85.1359223,105.728155 C85.3932039,106.31068 85.6359223,106.907767 85.815534,107.519417 C85.4126214,109.286408 85.2961165,110.820388 85.407767,112.626214 C85.3398058,119.621359 85.1601942,126.548544 83.8980583,133.485437 C83.6699029,135.053398 82.2184466,135.616505 81.0097087,136.34466 C74.8300971,139.572816 68.038835,141.912621 61.1165049,142.825243 C62.4708738,140.88835 64.184466,139.34466 65.8058252,137.650485 C72.5873786,130.291262 77.9708738,121.820388 82.1359223,112.737864 C83.1893204,110.402913 83.9126214,107.990291 85.1359223,105.728155 Z" id="Shape" fill="#BB9A34" fill-rule="nonzero"></path>
                <path d="M27.461165,118.286408 C27.9223301,118.194175 28.3883495,118.116505 28.8592233,118.058252 C28.9854369,119.898058 29.8640777,122.223301 28.6456311,123.791262 C28.0291262,122.548544 27.9708738,121.252427 27.8446602,119.898058 C27.4368932,121.252427 26.9563107,122.548544 26.2087379,123.757282 C25.1796117,122.669903 24.8543689,121.359223 24.4805825,119.961165 C24.368932,121.043689 24.2184466,122.121359 24.0825243,123.203883 C23.723301,123.213592 23.3640777,123.228155 23.0048544,123.242718 C23.1019417,121.601942 23.1747573,119.956311 23.1699029,118.31068 C23.7427184,118.228155 24.3203883,118.140777 24.8932039,118.053398 C25.3009709,119.004854 25.6990291,119.961165 26.1116505,120.907767 C26.5631068,120.038835 26.9417476,119.116505 27.461165,118.286408 Z" id="Shape" fill="#1A2820" fill-rule="nonzero"></path>
                <path d="M18.3446602,118.237864 C19.907767,118.165049 21.4708738,118.15534 23.0339806,118.281553 C22.4514563,118.728155 21.8495146,119.15534 21.2475728,119.57767 C21.2330097,120.796117 21.2184466,122.014563 21.1893204,123.23301 C20.8203883,123.23301 20.4514563,123.228155 20.0825243,123.228155 C20.0339806,122.063107 20.1796117,120.776699 19.8737864,119.650485 C19.3980583,119.145631 18.8543689,118.708738 18.3446602,118.237864 Z" id="Shape" fill="#1A2820" fill-rule="nonzero"></path>
            </g>
        </g>
    </g>
</svg>