<?xml version="1.0" encoding="UTF-8"?>
<svg width="200px" height="200px" viewBox="0 0 200 200" version="1.1" xmlns="http://www.w3.org/2000/svg" xmlns:xlink="http://www.w3.org/1999/xlink">
    <!-- Generator: Sketch 54.1 (76490) - https://sketchapp.com -->
    <title>oneonta-st</title>
    <desc>Created with Sketch.</desc>
    <g id="oneonta-st" stroke="none" stroke-width="1" fill="none" fill-rule="evenodd">
        <g id="oneonta-st_BGL">
            <g id="oneonta-st" transform="translate(0.000000, 57.000000)">
                <path d="M92.6596759,0.236415634 C110.516683,0.240228789 128.375596,0.236415634 146.234509,0.238322212 C146.743565,0.234509056 147.250715,0.194470925 147.759771,0.190657769 C156.530029,0.190657769 165.300286,0.190657769 174.070543,0.190657769 C177.569113,0.154432793 181.130601,0.385128694 184.564347,1.06959009 C188.200191,1.79408961 192.038132,3.09818875 195.006673,5.37654909 C197.090562,6.94947569 198.71306,9.06577693 199.464252,11.5843661 C200.22307,14.122021 200.00572,16.8922784 198.920877,19.3021926 C190.888465,37.4547188 182.85796,55.6091516 174.823642,73.7597712 C173.876072,75.9294566 172.320305,77.6987607 170.451859,79.128694 C167.984747,81.0257388 164.966635,82.3489037 162.015253,83.2926597 C157.462345,84.7321258 152.606292,85.4775977 147.84938,85.8245949 C146.36225,85.9218303 144.867493,86.0057197 143.374643,85.986654 C130.091516,85.986654 116.810296,85.986654 103.527169,85.986654 C100.648236,85.914204 97.8017159,85.7483317 94.9532888,85.3040991 C91.4528122,84.7569113 87.6777884,83.7673975 84.7321258,81.7254528 C82.4137274,80.1448999 80.6558627,77.8226883 79.9828408,75.0772164 C79.3918017,72.6348904 79.7159199,70.0648236 80.7530982,67.7883699 C87.1572927,53.3155386 93.5557674,38.8427073 99.9618684,24.3698761 C74.6577693,18.2783603 49.336511,12.2097235 24.0285987,6.12583413 C16.0419447,4.19828408 8.04194471,2.30505243 0.0610104862,0.354623451 C0.932316492,0.316491897 1.79599619,0.337464252 2.66920877,0.333651096 C13.7273594,0.333651096 24.78551,0.333651096 35.8436606,0.333651096 C36.4156339,0.329837941 36.9876072,0.284080076 37.5595806,0.284080076 C55.1000953,0.287893232 72.6406101,0.284080076 90.1811249,0.287893232 C91.0085796,0.306959009 91.8322212,0.251668255 92.6596759,0.236415634 Z" id="Shape" fill="#231F20" fill-rule="nonzero"></path>
                <path d="M165.872259,3.86272641 C169.174452,3.76358437 172.482364,3.83412774 175.786463,3.81315539 C180.352717,3.90657769 185.258341,4.50142993 189.481411,6.32793136 C191.775024,7.3250715 194.125834,8.88083889 195.357483,11.1191611 C196.366063,12.871306 196.554814,15.0104862 195.954242,16.9304099 C195.752145,17.5805529 195.452812,18.1811249 195.176358,18.8160153 C187.28122,36.663489 179.384175,54.5090562 171.490944,72.35653 C170.493804,74.5395615 168.726406,76.07245 166.709247,77.2926597 C163.773117,79.0619638 160.282173,80.1334604 156.955195,80.8884652 C152.873213,81.7807436 148.695901,82.2592946 144.518589,82.3641563 C131.42612,82.3641563 118.335558,82.3641563 105.243089,82.3641563 C102.775977,82.3889418 100.303146,82.2726406 97.8493804,82.0285987 C95.0886559,81.7368923 92.2402288,81.2449952 89.6453765,80.2306959 C87.2068637,79.2850334 84.8598665,77.7102002 83.8226883,75.2125834 C83.0314585,73.3231649 83.1935176,71.1916111 84.0228789,69.3460439 C91.1591992,53.21449 98.2917064,37.0772164 105.433746,20.9494757 C89.2488084,17.0486177 73.0505243,13.1801716 56.8617731,9.28884652 C49.8970448,7.60915157 42.9056244,5.96949476 35.9523356,4.25548141 C39.6644423,4.20400381 43.3822688,4.30123928 47.092469,4.19256435 C51.2240229,4.19828408 55.3536702,4.19065777 59.485224,4.1963775 C64.5033365,4.09914204 69.5271687,4.16587226 74.5471878,4.14871306 C79.5653003,4.0514776 84.5891325,4.11820782 89.6091516,4.10104862 C94.6901811,4.00571973 99.778837,4.0686368 104.861773,4.05338418 C109.879886,3.95614871 114.903718,4.02287893 119.923737,4.00571973 C124.941849,3.90848427 129.965682,3.97521449 134.985701,3.95805529 C140.003813,3.86272641 145.027645,3.92564347 150.047664,3.91039085 C155.319352,3.81506196 160.598665,3.87797903 165.872259,3.86272641 Z" id="Shape" fill="#E71939" fill-rule="nonzero"></path>
                <path d="M128.503337,7.48141087 C137.464252,7.48522402 146.425167,7.48141087 155.386082,7.48331745 C161.609152,7.38608198 167.843661,7.45662536 174.070543,7.435653 C176.636797,7.39942803 179.193518,7.53098189 181.733079,7.91801716 C184.003813,8.27645377 186.234509,8.80457579 188.333651,9.75977121 C189.685415,10.3851287 190.93041,11.1534795 191.853194,12.3469971 C192.413727,13.0676835 192.716873,13.963775 192.667302,14.8789323 C192.638704,15.8303146 192.158246,16.6615825 191.790276,17.5157293 C183.93899,35.2697807 176.081983,53.0238322 168.226883,70.7759771 C167.591992,72.257388 166.249762,73.3326978 164.911344,74.1582459 C162.35081,75.6968541 159.321258,76.6425167 156.425167,77.3212583 C152.587226,78.2001907 148.642517,78.6463298 144.709247,78.7416587 C130.981888,78.7397521 117.254528,78.7435653 103.527169,78.7397521 C100.29552,78.6558627 97.0162059,78.4270734 93.8531935,77.7254528 C92.4575786,77.399428 91.0314585,76.9742612 89.7559581,76.3088656 C88.7454719,75.7540515 87.778837,75.0867493 87.2602479,74.0209724 C86.7435653,72.9857007 86.8789323,71.792183 87.3517636,70.7702574 C94.9132507,53.6758818 102.474738,36.5853194 110.034318,19.4928503 C93.7654909,15.5481411 77.4985701,11.5805529 61.2259295,7.64728313 C63.1877979,7.58817922 65.1496663,7.67397521 67.1115348,7.57864633 C76.3908484,7.57864633 85.6701621,7.57673975 94.9475691,7.57864633 C95.7750238,7.59580553 96.5986654,7.55004766 97.4261201,7.53098189 C106.766444,7.53288847 116.112488,7.52907531 125.452812,7.53288847 C126.470925,7.55004766 127.485224,7.46043851 128.503337,7.48141087 Z" id="Shape" fill="#FFFFFF" fill-rule="nonzero"></path>
                <path d="M71.2354623,8.81410867 C71.435653,8.8293613 71.6358437,8.8465205 71.8360343,8.86558627 C84.4880839,10.6024786 97.1630124,12.3546235 109.816969,14.0953289 C110.653956,14.221163 111.49285,14.3203051 112.335558,14.4022879 C111.624404,14.5090562 110.91897,14.5490944 110.200191,14.5433746 C106.068637,14.6348904 101.93899,14.7435653 97.8074357,14.8312679 C97.0543375,14.8427073 96.3698761,14.9494757 95.6301239,14.7702574 C88.0629171,12.920877 80.4880839,11.0905624 72.9189704,9.24690181 C72.3546235,9.11725453 71.7902765,8.98760724 71.2354623,8.81410867 Z" id="Shape" fill="#B8B7B7" fill-rule="nonzero"></path>
                <path d="M184.938036,12.5929457 C186.022879,12.6272641 187.06959,12.8751192 187.86082,13.6644423 C188.711153,14.491897 188.989514,15.6244042 189.060057,16.772164 C189.149666,18.8617731 188.50715,21.0257388 187.647283,22.9132507 C180.842707,38.4690181 173.998093,54.0057197 167.168732,69.5519542 C166.896092,70.1677788 166.680648,70.7759771 166.244042,71.2983794 C165.672069,71.9885605 164.911344,72.5471878 164.158246,73.0238322 C162.265014,74.1925643 160.183031,74.9094376 158.051478,75.5042898 C154.4347,76.4690181 150.7245,76.9380362 146.99714,77.2221163 C146.102955,77.2907531 145.224023,77.2621544 144.327931,77.264061 C130.854147,77.2659676 117.382269,77.2621544 103.908484,77.2659676 C102.329838,77.3060057 100.810296,77.1172545 99.2449952,76.943756 C97.0238322,76.6653956 94.7473785,76.2688275 92.6253575,75.5405148 C91.1935176,75.029552 89.7731173,74.3775024 88.7550048,73.2106768 C89.5977121,73.4242135 90.4194471,73.6854147 91.2774071,73.8398475 C93.7578646,74.3012393 96.3336511,74.1468065 98.6520496,73.1020019 C101.250715,71.950429 103.155386,69.9714013 104.726406,67.6491897 C104.959009,68.6444233 105.321258,69.5672069 106.062917,70.2955195 C107.311725,71.5424214 109.231649,72.1048618 110.960915,72.1182078 C122.083889,72.1163012 133.206864,72.1201144 144.327931,72.1163012 C146.623451,72.0610105 149.241182,71.5233556 151.054337,70.0266921 C151.895138,69.3555767 152.488084,68.465205 152.896092,67.4775977 C159.952336,51.6472831 167.020019,35.8188751 174.083889,19.9923737 C173.13632,18.7321258 171.651096,18.0152526 170.152526,17.6396568 C167.620591,17.0352717 164.86368,17.2869399 162.486177,18.3527169 C160.957102,19.0409914 159.635844,20.122021 158.888465,21.6491897 C158.734032,21.128694 158.600572,20.6558627 158.13346,20.3222116 C157.187798,19.6129647 155.771211,19.4566254 154.625357,19.3803622 C153.037178,19.313632 151.445186,19.3670162 149.857007,19.349857 C148.102955,19.3746425 146.442326,19.2659676 144.703527,19.5004766 C143.317445,19.6720686 141.748332,20.0305052 140.612011,20.884652 C139.763584,21.5138227 139.511916,22.4366063 139.088656,23.3536702 C133.096282,36.907531 127.103908,50.4613918 121.111535,64.0152526 C120.177312,62.835081 118.928503,62.0419447 117.445186,61.7578646 C115.199237,61.349857 112.888465,61.877979 110.827455,62.78551 C108.50715,63.8169685 106.432793,65.3479504 104.84652,67.336511 C105.012393,66.8636797 105.191611,66.3946616 105.389895,65.9332698 C107.197331,61.6415634 109.258341,57.4509056 111.157293,53.1992374 C112.64061,49.8970448 114.085796,46.5795996 115.517636,43.2564347 C119.113441,35.0981888 122.7245,26.9456625 126.318398,18.7874166 C126.93041,17.3574833 128.053384,16.1620591 129.361296,15.3441373 C131.084843,14.2516683 133.151573,13.792183 135.174452,13.7750238 C145.536702,13.7769304 155.897045,13.7750238 166.257388,13.7769304 C168.394662,13.8131554 170.741659,14.3298379 172.345091,15.8341277 C173.458532,16.8560534 174.074357,18.2135367 174.179218,19.7178265 C175.447092,17.0829361 177.567207,14.8331745 180.236416,13.5996187 C181.70448,12.907531 183.317445,12.5853194 184.938036,12.5929457 Z" id="Shape" fill="#B8B7B7" fill-rule="nonzero"></path>
                <path d="M146.425167,20.970448 C148.650143,20.9742612 150.873213,20.9742612 153.098189,20.970448 C153.971401,20.9742612 154.917064,21.0505243 155.740705,21.3593899 C156.137274,21.5100095 156.541468,21.7483317 156.749285,22.1315539 C156.917064,22.3889418 156.711153,22.7244995 156.623451,22.9837941 C150.631077,36.5014299 144.655863,50.0324118 138.669209,63.5538608 C138.432793,64.0838894 137.940896,64.3698761 137.433746,64.5986654 C136.375596,65.042898 135.174452,65.2125834 134.032412,65.2068637 C131.490944,65.2030505 128.947569,65.2030505 126.406101,65.2068637 C125.580553,65.2030505 124.703527,65.1191611 123.923737,64.8293613 C123.513823,64.6653956 122.945663,64.3984747 122.968541,63.8741659 C123.08103,63.4013346 123.336511,62.957102 123.525262,62.5109628 C129.370829,49.2907531 135.216397,36.0705434 141.065777,22.8522402 C141.311725,22.2669209 141.843661,21.9656816 142.388942,21.7044805 C143.632031,21.1515729 145.07531,20.9685415 146.425167,20.970448 Z" id="Shape" fill="#E71939" fill-rule="nonzero"></path>
                <path d="M146.232602,24.5929457 C148.13918,24.5967588 150.043851,24.5929457 151.948522,24.5967588 C146.526215,36.8503337 141.092469,49.115348 135.681602,61.3727359 C135.13632,61.5157293 134.598665,61.593899 134.032412,61.5862726 C131.988561,61.5786463 129.942803,61.5843661 127.898951,61.5824595 C133.290753,49.3593899 138.70734,37.1477598 144.102955,24.9265968 C144.812202,24.7016206 145.487131,24.5872259 146.232602,24.5929457 Z" id="Shape" fill="#231F20" fill-rule="nonzero"></path>
                <path d="M177.389895,71.313632 C178.263108,71.300286 179.138227,71.3040991 180.011439,71.3098189 C179.931363,71.5157293 179.84938,71.7216397 179.769304,71.92755 C179.469971,71.92755 179.168732,71.92755 178.869399,71.92755 C178.583413,72.7206864 178.29552,73.5119161 178.007626,74.3031459 C177.746425,74.306959 177.485224,74.3088656 177.224023,74.3107722 C177.508103,73.5157293 177.807436,72.7264061 178.087703,71.9294566 C177.790276,71.92755 177.494757,71.9237369 177.197331,71.9218303 C177.262154,71.7197331 177.325071,71.5157293 177.389895,71.313632 Z" id="Shape" fill="#231F20" fill-rule="nonzero"></path>
                <path d="M181.408961,71.3021926 C181.399428,71.8531935 181.410867,72.4022879 181.466158,72.9494757 C181.876072,72.4041945 182.28408,71.8570067 182.693994,71.3098189 C183.067684,71.3079123 183.441373,71.3060057 183.815062,71.3040991 C183.452812,72.3050524 183.084843,73.3060057 182.720686,74.306959 C182.482364,74.306959 182.244042,74.3088656 182.00572,74.3088656 C182.272641,73.5653003 182.549094,72.8236416 182.817922,72.0800763 C182.265014,72.8083889 181.740705,73.5614871 181.203051,74.3012393 C181.052431,74.306959 180.901811,74.3126787 180.749285,74.3183985 C180.743565,73.5729266 180.743565,72.8255481 180.730219,72.0800763 C180.467112,72.821735 180.20591,73.5653003 179.931363,74.3031459 C179.691134,74.306959 179.452812,74.3107722 179.21449,74.3145853 C179.580553,73.3479504 179.893232,72.3527169 180.2898,71.399428 C180.499523,71.2049571 181.117255,71.3460439 181.408961,71.3021926 Z" id="Shape" fill="#231F20" fill-rule="nonzero"></path>
            </g>
        </g>
    </g>
</svg>