<?xml version="1.0" encoding="UTF-8"?>
<svg width="200px" height="200px" viewBox="0 0 200 200" version="1.1" xmlns="http://www.w3.org/2000/svg" xmlns:xlink="http://www.w3.org/1999/xlink">
    <!-- Generator: Sketch 54.1 (76490) - https://sketchapp.com -->
    <title>morrisville-st</title>
    <desc>Created with Sketch.</desc>
    <g id="morrisville-st" stroke="none" stroke-width="1" fill="none" fill-rule="evenodd">
        <g id="morrisville-st_BGL">
            <g id="morrisville-st" transform="translate(0.000000, 38.000000)">
                <g id="g10" transform="translate(99.956080, 62.053581) scale(-1, 1) rotate(-180.000000) translate(-99.956080, -62.053581) translate(0.000000, 0.217834)" fill-rule="nonzero">
                    <g id="g12">
                        <path d="M168.264203,37.0937189 C167.208779,36.2498015 167.31383,35.0886596 167.631089,34.5616504 C167.842244,35.5105832 168.58076,35.9325419 168.58076,35.9325419 C168.58076,35.9325419 168.264203,33.6119447 166.576368,31.501835 C164.887479,29.3910577 163.199996,28.2306888 161.300655,30.3407634 C159.401314,32.4515407 158.662798,35.8278428 155.708736,36.1440483 C152.754673,36.4595511 153.281683,33.611242 154.019847,32.6622038 C154.759065,31.7124981 156.447603,30.9741582 156.86921,30.9741582 C155.814489,29.7080713 153.387436,28.6526826 152.226961,30.9741582 C151.06719,33.2955986 151.171538,33.5055591 149.694858,33.2955986 C148.218178,33.0842328 147.373909,34.3502846 147.900919,36.9879657 C148.42863,39.6258225 148.586382,40.4697399 146.476588,43.4238022 C144.366443,46.3782158 143.363721,45.533947 141.359329,47.7491424 C139.35564,49.9650405 135.662359,53.5525678 135.662359,53.5525678 C135.662359,53.5525678 134.608341,51.653578 132.497493,51.5478248 C130.386997,51.442423 128.381903,52.0755367 123.739654,57.4563007 C119.098109,62.8374161 118.570397,64.7360546 119.62582,67.0577058 C120.680542,69.3790057 122.894683,70.4340782 123.950809,70.2232745 C123.212645,71.4891506 120.363985,70.53948 118.992355,68.957047 C117.620726,67.3739114 114.033199,64.1036435 119.941323,56.9289402 C123.473339,52.6401392 127.043651,50.0869553 130.33535,49.2444432 C130.310054,47.8889755 130.609746,44.5034684 133.963282,42.4681588 L133.4173,42.0820367 L105.270792,42.0483081 C95.1732958,55.7744387 102.155465,72.8685094 106.607639,75.0717592 C96.5498439,70.0943329 90.9231422,55.4996912 97.6586713,42.3402712 L70.2464629,61.6625369 C57.4043025,72.1046974 26.2568636,61.3712765 10.1830827,79.8165988 C32.6041626,80.6721104 45.4928403,89.8297738 50.7372846,96.596572 C55.9820803,103.36337 65.4960019,106.837415 74.9821676,107.891433 C84.4683334,108.945452 88.0245916,112.980937 91.7614382,116.717432 C98.8391719,116.717432 112.42301,123.455069 130.701095,110.576721 C138.729904,104.919453 143.134647,101.612997 145.761964,97.6836164 C145.430651,95.9293784 145.212469,93.656212 145.949579,92.5905994 C146.161437,94.4895892 147.268508,97.8642048 149.484054,99.1304323 C149.694858,96.7037306 151.911107,90.9027645 152.649623,88.2649078 C153.387436,85.627051 151.699952,81.6175649 152.226961,79.9297301 C152.754673,78.2418953 155.603685,71.7003056 156.975314,70.8556855 C158.346592,70.0117681 156.975314,68.4293351 157.71383,65.6860765 C158.451643,62.9428179 162.356079,49.5427304 164.044265,45.533947 C165.7321,41.5248123 166.364862,40.4700912 167.736491,40.0477812 C169.108472,39.6258225 169.318924,37.9376363 168.264203,37.0937189" id="path14" fill="#FFFFFF"></path>
                        <path d="M195.084756,7.72328483 L169.423975,7.72328483 C169.423975,7.72328483 169.423975,13.0750282 169.423975,13.8875008 C163.595253,14.5085284 152.044968,15.3210009 137.942201,15.5598064 C137.942201,14.1263062 137.942201,4.05277109 137.942201,4.05277109 L94.8999537,4.05277109 L94.8999537,15.5124458 C87.0429491,15.5124458 73.7113728,14.986842 61.5743507,13.9828894 C61.5743507,13.3618969 61.5743507,8.01011838 61.5743507,8.01011838 L28.8420897,8.01011838 L28.8420897,40.2164241 L61.5743507,40.2164241 L61.5743507,36.967588 L145.849799,36.967588 C145.557484,36.1036442 145.491784,35.0756249 146.318486,33.7176276 C147.795517,31.2904691 149.906013,31.818181 150.644529,30.3407634 C151.382693,28.8640485 152.015455,27.7036796 153.914796,27.7036796 C155.814489,27.7036796 158.979355,29.4967406 158.873602,31.396152 C159.929728,30.0244173 161.195604,28.3363366 162.672284,27.7036796 C164.149667,27.0702848 168.264203,30.8684753 168.896965,32.6622038 C169.530431,34.4559675 169.740883,35.7220896 169.636184,36.7768107 C170.268595,37.4102757 170.796307,38.3599463 170.480101,39.4146674 C170.377159,39.7579261 170.237326,40.0291602 170.066926,40.2638549 L195.084756,40.2638549 L195.084756,7.72328483" id="path16" fill="#FFFFFF"></path>
                        <path d="M99.473691,8.93238449 C99.473691,8.40674551 99.874218,8.1432409 100.674921,8.1432409 C101.483353,8.1432409 101.887744,8.3511636 101.887744,8.76771168 L101.887744,9.23843631 C101.887744,9.78810691 101.546594,10.1888447 100.863239,10.4399822 L100.203423,10.6403862 C98.8528741,11.0877819 98.1775997,11.8302676 98.1775997,12.866438 L98.1775997,14.5387436 C98.1775997,15.6380497 99.0021934,16.1876851 100.651381,16.1876851 C101.829071,16.1876851 102.551425,15.9248832 102.818091,15.3985416 L102.818091,16.1876851 L104.125426,16.1876851 L104.125426,13.1374964 L102.830037,13.1374964 L102.830037,13.9732979 C102.830037,14.5311898 102.42178,14.8090993 101.605268,14.8090993 C100.811943,14.8090993 100.415983,14.6368727 100.415983,14.2916817 L100.415983,13.7496 C100.415983,13.2390335 100.76135,12.8739918 101.452084,12.6544046 L102.311811,12.4423712 C103.481772,12.0649272 104.086427,11.3856124 104.125426,10.4049888 L104.125426,8.41429931 C104.125426,7.31499323 103.301183,6.76535776 101.651996,6.76535776 C100.474657,6.76535776 99.7519518,7.02815968 99.4849338,7.55450135 L99.4849338,6.76535776 L98.1775997,6.76535776 L98.1775997,9.87457156 L99.473691,9.87457156 L99.473691,8.93238449" id="path18" fill="#00452A"></path>
                        <polyline id="path20" fill="#00452A" points="109.425382 8.11991196 110.085197 8.11991196 110.085197 6.76535776 106.304433 6.76535776 106.304433 8.11991196 106.951952 8.11991196 106.951952 14.8214313 106.009659 14.8214313 106.009659 13.1374964 104.714271 13.1374964 104.714271 16.1876851 111.663063 16.1876851 111.663063 13.1374964 110.368025 13.1374964 110.368025 14.8214313 109.425382 14.8214313 109.425382 8.11991196"></polyline>
                        <path d="M114.359593,6.76535776 L111.357046,6.76535776 L111.357046,8.13157643 L112.287393,8.13157643 L113.995254,16.1876851 L116.739567,16.1876851 L118.942114,8.13157643 L119.471934,8.13157643 L119.471934,6.76535776 L115.702764,6.76535776 L115.702764,8.13157643 L116.268069,8.13157643 L116.080102,9.12108892 L114.0072,9.12108892 L113.806585,8.13157643 L114.359593,8.13157643 L114.359593,6.76535776 Z M114.254191,10.2986383 L115.856299,10.2986383 L115.302588,13.2898372 L115.078082,14.5270791 L114.866927,13.2898372 L114.254191,10.2986383 L114.254191,10.2986383 Z" id="path22" fill="#00452A"></path>
                        <polyline id="path24" fill="#00452A" points="123.876677 8.11991196 124.536141 8.11991196 124.536141 6.76535776 120.75608 6.76535776 120.75608 8.11991196 121.403598 8.11991196 121.403598 14.8214313 120.460954 14.8214313 120.460954 13.1374964 119.165214 13.1374964 119.165214 16.1876851 126.114709 16.1876851 126.114709 13.1374964 124.818969 13.1374964 124.818969 14.8214313 123.876677 14.8214313 123.876677 8.11991196"></polyline>
                        <polyline id="path26" fill="#00452A" points="130.790335 10.8400524 130.001226 10.8400524 130.001226 8.11991196 132.462711 8.11991196 132.462711 9.87457156 133.758099 9.87457156 133.758099 6.76535776 126.880278 6.76535776 126.880278 8.11991196 127.527445 8.11991196 127.527445 14.8214313 126.880278 14.8214313 126.880278 16.1876851 133.758099 16.1876851 133.758099 13.1374964 132.462711 13.1374964 132.462711 14.8214313 130.001226 14.8214313 130.001226 12.1122878 130.790335 12.1122878 130.790335 13.4902061 131.780058 13.4902061 131.780058 9.52115918 130.790335 9.52115918 130.790335 10.8400524"></polyline>
                        <path d="M99.473691,8.93238449 C99.473691,8.40674551 99.874218,8.1432409 100.674921,8.1432409 C101.483353,8.1432409 101.887744,8.3511636 101.887744,8.76771168 L101.887744,9.23843631 C101.887744,9.78810691 101.546594,10.1888447 100.863239,10.4399822 L100.203423,10.6403862 C98.8528741,11.0877819 98.1775997,11.8302676 98.1775997,12.866438 L98.1775997,14.5387436 C98.1775997,15.6380497 99.0021934,16.1876851 100.651381,16.1876851 C101.829071,16.1876851 102.551425,15.9248832 102.818091,15.3985416 L102.818091,16.1876851 L104.125426,16.1876851 L104.125426,13.1374964 L102.830037,13.1374964 L102.830037,13.9732979 C102.830037,14.5311898 102.42178,14.8090993 101.605268,14.8090993 C100.811943,14.8090993 100.415983,14.6368727 100.415983,14.2916817 L100.415983,13.7496 C100.415983,13.2390335 100.76135,12.8739918 101.452084,12.6544046 L102.311811,12.4423712 C103.481772,12.0649272 104.086427,11.3856124 104.125426,10.4049888 L104.125426,8.41429931 C104.125426,7.31499323 103.301183,6.76535776 101.651996,6.76535776 C100.474657,6.76535776 99.7519518,7.02815968 99.4849338,7.55450135 L99.4849338,6.76535776 L98.1775997,6.76535776 L98.1775997,9.87457156 L99.473691,9.87457156 L99.473691,8.93238449" id="path28" fill="#00452A"></path>
                        <polyline id="path30" fill="#00452A" points="109.425382 8.11991196 110.085197 8.11991196 110.085197 6.76535776 106.304433 6.76535776 106.304433 8.11991196 106.951952 8.11991196 106.951952 14.8214313 106.009659 14.8214313 106.009659 13.1374964 104.714271 13.1374964 104.714271 16.1876851 111.663063 16.1876851 111.663063 13.1374964 110.368025 13.1374964 110.368025 14.8214313 109.425382 14.8214313 109.425382 8.11991196"></polyline>
                        <path d="M114.359593,6.76535776 L111.357046,6.76535776 L111.357046,8.13157643 L112.287393,8.13157643 L113.995254,16.1876851 L116.739567,16.1876851 L118.942114,8.13157643 L119.471934,8.13157643 L119.471934,6.76535776 L115.702764,6.76535776 L115.702764,8.13157643 L116.268069,8.13157643 L116.080102,9.12108892 L114.0072,9.12108892 L113.806585,8.13157643 L114.359593,8.13157643 L114.359593,6.76535776 Z M114.254191,10.2986383 L115.856299,10.2986383 L115.302588,13.2898372 L115.078082,14.5270791 L114.866927,13.2898372 L114.254191,10.2986383 L114.254191,10.2986383 Z" id="path32" fill="#00452A"></path>
                        <polyline id="path34" fill="#00452A" points="123.876677 8.11991196 124.536141 8.11991196 124.536141 6.76535776 120.75608 6.76535776 120.75608 8.11991196 121.403598 8.11991196 121.403598 14.8214313 120.460954 14.8214313 120.460954 13.1374964 119.165214 13.1374964 119.165214 16.1876851 126.114709 16.1876851 126.114709 13.1374964 124.818969 13.1374964 124.818969 14.8214313 123.876677 14.8214313 123.876677 8.11991196"></polyline>
                        <polyline id="path36" fill="#00452A" points="130.790335 10.8400524 130.001226 10.8400524 130.001226 8.11991196 132.462711 8.11991196 132.462711 9.87457156 133.758099 9.87457156 133.758099 6.76535776 126.880278 6.76535776 126.880278 8.11991196 127.527445 8.11991196 127.527445 14.8214313 126.880278 14.8214313 126.880278 16.1876851 133.758099 16.1876851 133.758099 13.1374964 132.462711 13.1374964 132.462711 14.8214313 130.001226 14.8214313 130.001226 12.1122878 130.790335 12.1122878 130.790335 13.4902061 131.780058 13.4902061 131.780058 9.52115918 130.790335 9.52115918 130.790335 10.8400524"></polyline>
                        <polyline id="path38" fill="#00452A" points="45.4257345 23.133526 49.5662702 36.7279745 57.8462875 36.7279745 57.8462875 33.1432578 56.0853741 33.1432578 56.0853741 15.5632495 57.8462875 15.5632495 57.8462875 12.0107156 48.5157651 12.0107156 48.5157651 15.5632495 50.2148428 15.5632495 50.2148428 30.5486861 44.7462439 12.0107156 42.212735 12.0107156 36.6204646 30.5486861 36.6204646 15.5632495 38.3817294 15.5632495 38.3817294 12.0107156 32.1404296 12.0107156 32.1404296 15.5632495 33.8397532 15.5632495 33.8397532 33.1432578 32.1404296 33.1432578 32.1404296 36.7279745 41.9341228 36.7279745 45.4257345 23.133526"></polyline>
                        <polyline id="path40" fill="#00452A" points="183.36653 22.7005001 181.296087 22.7005001 181.296087 15.5632495 187.754058 15.5632495 187.754058 20.1676938 191.152213 20.1676938 191.152213 12.0107156 173.108823 12.0107156 173.108823 15.5632495 174.807901 15.5632495 174.807901 33.1432578 173.108823 33.1432578 173.108823 36.7279745 191.152213 36.7279745 191.152213 28.725445 187.754058 28.725445 187.754058 33.1432578 181.296087 33.1432578 181.296087 26.0375575 183.36653 26.0375575 183.36653 29.6524894 185.961524 29.6524894 185.961524 19.2406495 183.36653 19.2406495 183.36653 22.7005001"></polyline>
                        <path d="M70.4565639,20.8100127 C70.4551585,18.9119363 68.9588037,17.8743957 65.9703102,17.6699161 C64.8344296,17.5923755 64.2673677,17.5518661 63.1314872,17.4695472 C60.1862084,17.2561085 58.714096,18.1324194 58.714096,20.1272195 C58.7147987,23.8382427 58.7147987,27.5492659 58.714096,31.2602891 C58.714096,33.2544217 60.2104508,34.2514879 63.2021065,34.2514879 C64.3383383,34.2514879 64.9071569,34.2514879 66.0437401,34.2514879 C68.9928837,34.2514879 70.4664014,33.2825639 70.464996,31.3440133 C70.462888,27.8326914 70.459726,24.3213345 70.4565639,20.8100127 L70.4565639,20.8100127 Z M65.9780396,31.1463848 C65.9780396,31.602037 65.5153255,31.8250321 64.589546,31.8154406 C63.6641179,31.8058139 63.2010524,31.5704516 63.2010524,31.1100212 C63.1996471,27.5979967 63.1989444,24.0859722 63.1968364,20.5739477 C63.196485,20.1134821 63.6588478,19.9124457 64.5839246,19.9680276 C65.5093528,20.0236095 65.9717155,20.2788928 65.9724182,20.7338423 C65.9748776,24.2046898 65.9759316,27.6755373 65.9780396,31.1463848 L65.9780396,31.1463848 Z" id="path42" fill="#00452A"></path>
                        <path d="M155.683439,34.2322697 C154.838468,34.2322697 154.121384,34.2322697 153.453839,34.2322697 C153.505135,33.620166 153.748261,33.0121731 154.019847,32.6622038 C154.230651,32.3918481 154.518749,32.140008 154.832495,31.9156075 C155.09881,31.9135697 155.33737,31.9114968 155.685547,31.9087563 C155.684845,32.8385763 155.684845,33.3024498 155.683439,34.2322697" id="path44" fill="#00452A"></path>
                        <path d="M157.08177,23.444356 C157.082473,22.2448831 157.082473,21.6444439 157.083878,20.4456385 C155.972943,20.5012204 155.418529,20.5279573 154.307594,20.5794286 C154.304783,23.5877728 154.301972,26.596117 154.299162,29.6044613 C153.512864,29.5783919 152.744133,29.9400256 152.226961,30.9741582 C151.06719,33.2955986 151.171538,33.5055591 149.694858,33.2955986 C149.286601,33.2372763 148.928938,33.2955986 148.632407,33.4609741 C148.63311,32.9826957 148.633813,32.5750716 148.634515,31.9615978 C149.104608,31.9588573 149.339302,31.9574871 149.809395,31.9533765 C149.813611,28.2279484 149.816773,24.5024851 149.820989,20.777057 C149.350897,20.7962753 149.115499,20.805902 148.64611,20.8244176 C148.646812,19.9241102 148.647515,19.4739389 148.648218,18.5736315 C152.245582,18.4055156 155.841893,18.2113302 159.435393,17.9896702 C159.433637,20.1334031 159.432934,21.2052696 159.431529,23.34967 C158.491344,23.3887741 158.021252,23.4072897 157.08177,23.444356" id="path46" fill="#00452A"></path>
                        <path d="M167.863676,31.7927792 C167.863676,32.5462618 167.863676,33.0108029 167.863676,33.6318305 C167.606847,33.0567932 167.263237,32.4275442 166.805442,31.8044436 C167.164159,31.8010357 167.430475,31.7975925 167.863676,31.7927792" id="path48" fill="#00452A"></path>
                        <path d="M169.253926,22.8981285 C169.254629,21.6382603 169.254629,21.0076411 169.255332,19.7477378 C168.144748,19.8197975 167.589631,19.8547909 166.480101,19.9227399 C166.477993,23.7414838 166.476588,27.5602628 166.475182,31.3797094 C165.027313,29.6024235 163.576632,28.5573291 161.989631,29.7094415 C161.991739,26.5350542 161.99455,23.3606318 161.996307,20.1848743 C161.526566,20.2116113 161.291169,20.2239784 160.821076,20.2500478 C160.821779,19.3113039 160.822482,18.8419495 160.823184,17.9032055 C164.41809,17.6746943 168.011239,17.418076 171.601928,17.1353531 C171.601928,19.3922876 171.601928,20.5204387 171.601928,22.7766705 C170.663149,22.8267715 170.193408,22.8508031 169.253926,22.8981285" id="path50" fill="#00452A"></path>
                        <path d="M109.566971,21.4742551 C110.054982,21.4769955 110.298811,21.4790684 110.786822,21.4811062 C110.786119,20.6247162 110.786119,20.1965388 110.785768,19.3401488 C108.031267,19.323671 106.654016,19.3085634 103.900217,19.2653487 C103.900568,20.1258493 103.901271,20.5568023 103.901622,21.4173029 C104.372066,21.4234865 104.607112,21.426227 105.077204,21.4317079 C105.07861,24.9766529 105.080366,28.5209303 105.082474,32.0659105 C104.612031,32.0645403 104.377336,32.0638376 103.907244,32.06317 C103.907244,32.9312245 103.907946,33.3655855 103.908298,34.2329372 C106.660691,34.2329372 108.036888,34.2329372 110.789281,34.2329372 C110.78893,33.3696961 110.78893,32.9373729 110.78893,32.0734643 C110.301271,32.0727616 110.057441,32.0727616 109.570133,32.0727616 C109.569079,28.5401486 109.569079,25.0068681 109.566971,21.4742551" id="path52" fill="#00452A"></path>
                        <path d="M114.848306,22.7760029 C114.848306,21.9449797 115.574876,21.5305396 117.029773,21.5277641 C118.497669,21.5243561 119.231969,21.8489235 119.231969,22.5063148 C119.231969,22.8048128 119.231266,22.9530429 119.231266,23.2515409 C119.231266,24.1202629 118.611503,24.7556955 117.371626,25.1543955 C116.892399,25.2820371 116.653137,25.3458404 116.173559,25.4728145 C113.722263,26.1809743 112.496791,27.348897 112.496791,28.9868767 C112.496791,30.0429681 112.496791,30.572015 112.497494,31.6281064 C112.497494,33.3655855 113.993497,34.2329372 116.985153,34.2329372 C119.122702,34.2329372 120.432847,33.817127 120.918047,32.9847335 C120.918047,33.4843031 120.917344,33.7340703 120.917344,34.2329372 C121.86561,34.2329372 122.340269,34.2329372 123.288886,34.2329372 C123.28994,32.3005701 123.28994,31.333719 123.290643,29.4013519 C122.350809,29.404795 121.880015,29.4061653 120.93983,29.4089057 C120.93983,29.9379527 120.93983,30.20216 120.939127,30.7312421 C120.939127,31.6129988 120.198152,32.054246 118.716554,32.0556162 C117.277467,32.0562838 116.558276,31.7845578 116.558276,31.239033 C116.558276,30.8966176 116.558276,30.7250585 116.558276,30.3826431 C116.558276,29.5770217 117.185065,29.0006141 118.44005,28.6506449 C119.063677,28.5154494 119.375315,28.4482031 119.999646,28.3123401 C122.12279,27.7105307 123.220726,26.6277025 123.292751,25.0727442 C123.293453,23.8114706 123.293453,23.1808514 123.294156,21.919613 C123.294156,20.1779881 121.798152,19.3291519 118.804389,19.3442595 C116.666137,19.3552213 115.354235,19.7690289 114.869738,20.6000171 C114.869738,20.1011501 114.869738,19.8520504 114.869738,19.3531835 C113.920067,19.3531835 113.445759,19.3524809 112.495737,19.3483702 C112.49644,21.3136929 112.49644,22.2963192 112.496791,24.2609392 C113.437327,24.2630121 113.907419,24.2643824 114.848306,24.2643824 C114.848306,23.6687565 114.848306,23.3709261 114.848306,22.7760029" id="path54" fill="#00452A"></path>
                        <path d="M133.310844,34.2329372 C135.490203,34.2329372 136.580058,34.2322697 138.759417,34.2322697 C138.760822,33.3470699 138.760822,32.9044524 138.762228,32.0192526 C138.086953,32.0219931 137.749316,32.0240308 137.074041,32.0274739 C136.049535,27.7187521 135.020111,23.4121031 133.986119,19.107527 C131.993321,19.1589982 130.996923,19.1816245 129.004125,19.220061 C127.6729,23.5033811 126.338161,27.7846282 124.999558,32.0659105 C124.615192,32.066578 124.422307,32.066578 124.037942,32.0679483 C124.037942,32.9339649 124.037239,33.3669557 124.037239,34.2329372 C126.772065,34.2329372 128.139479,34.2329372 130.873954,34.2329372 C130.875359,33.3601046 130.876062,32.9236707 130.876062,32.0501353 C130.465697,32.0521731 130.261218,32.0528758 129.850853,32.054246 C130.43759,29.3018526 131.024327,26.5508294 131.608956,23.7991386 C131.771626,23.0051817 131.853839,22.607887 132.01651,21.8132274 C132.170396,22.6017034 132.24734,22.9962577 132.400172,23.7854012 C133.040313,26.5364245 133.679399,29.2874477 134.317432,32.0384709 C133.9155,32.0398411 133.714885,32.0412113 133.312952,32.0418789 C133.311547,32.9188573 133.311547,33.3566614 133.310844,34.2329372" id="path56" fill="#00452A"></path>
                        <path d="M145.504783,20.9438027 C145.992794,20.9266574 146.235569,20.9170658 146.72358,20.8992177 C146.724283,20.0036886 146.724283,19.5562929 146.725688,18.6607988 C143.973295,18.7815542 142.596747,18.8357659 139.84365,18.9297843 C139.842245,19.8095032 139.841542,20.2500478 139.84084,21.1297667 C140.310932,21.1160645 140.546329,21.1085107 141.017124,21.0941058 C141.012908,24.7323665 141.009395,28.3699598 141.004476,32.0075881 C140.535087,32.0103286 140.300392,32.0109961 139.830651,32.0137366 C139.829246,32.9010093 139.829246,33.344997 139.82784,34.2322697 C142.580234,34.2322697 143.956782,34.2322697 146.709175,34.2322697 C146.709878,33.3292218 146.71058,32.8776803 146.711283,31.9746325 C146.223975,31.9780756 145.980146,31.9787432 145.493189,31.9821863 C145.497054,28.3027134 145.500567,24.6232756 145.504783,20.9438027" id="path58" fill="#00452A"></path>
                        <path d="M85.0480435,20.9527267 C84.805268,20.9438027 84.6844072,21.0494856 84.6847585,21.2690728 C84.6865152,22.6277728 84.6868666,23.3071228 84.6886233,24.6658228 C84.6900286,25.7136577 84.0498881,26.3003595 82.7678504,26.4280011 C84.0498881,26.6132624 84.6917853,27.2267363 84.6928393,28.2746062 C84.6942447,29.8583743 84.6949474,30.6502583 84.6967041,32.2333237 C84.6981094,33.5659544 83.6729009,34.2322697 81.6214297,34.2322697 C78.5089133,34.2322697 75.3963969,34.231567 72.2838805,34.2322697 C72.2824751,33.294896 72.2824751,32.8262091 72.2814211,31.8888705 C72.7515133,31.8929812 72.9865594,31.8950541 73.4566517,31.8991648 C73.4538409,28.0844964 73.4499762,24.2705659 73.4464628,20.4559327 C72.9763706,20.4326038 72.7416758,20.4209042 72.271935,20.3969077 C72.2708809,19.4677905 72.2701783,19.0025116 72.2698269,18.074097 C74.9772489,18.2360294 76.3316626,18.3101269 79.0408412,18.4466926 C79.0418953,19.3538511 79.0418953,19.8074655 79.0433006,20.7152915 C78.5985048,20.6967759 78.376107,20.6864817 77.9320139,20.6665959 C77.9334192,22.4967232 77.9351759,23.4121031 77.9365813,25.2415628 C78.5949914,25.260746 78.9238452,25.2703727 79.5822554,25.2888883 C79.9810257,25.2998852 80.1805865,25.1152914 80.1795325,24.7358097 C80.1781271,23.0209568 80.1770731,22.1631966 80.1753164,20.4490465 C80.173911,19.1507417 80.8853735,18.5379706 82.310055,18.603144 C83.4041262,18.653245 83.9508104,18.6772767 85.0448815,18.7225643 C85.7538845,18.7527444 86.1083861,18.7671493 86.8173891,18.7945889 C86.8180918,19.6825643 86.8184432,20.126552 86.8194972,21.0137895 C86.1111968,20.9904606 85.7563439,20.9781286 85.0480435,20.9527267 L85.0480435,20.9527267 Z M80.1833972,27.9994372 C80.1826945,27.6192527 79.9827824,27.4243647 79.5843634,27.4161434 C78.9259532,27.4017384 78.5970995,27.3948873 77.9386893,27.3797797 C77.940446,29.2016506 77.9418514,30.1129549 77.9439594,31.9348257 C78.6023696,31.9396391 78.9305206,31.9423795 79.5885795,31.9471929 C79.9877011,31.9499333 80.1865593,31.7351595 80.1865593,31.3028363 C80.1848026,29.9812026 80.1844512,29.3203682 80.1833972,27.9994372 L80.1833972,27.9994372 Z" id="path60" fill="#00452A"></path>
                        <path d="M100.807727,21.3699424 C100.565303,21.3658317 100.444793,21.4694417 100.444793,21.6828453 C100.445496,22.9983306 100.44655,23.6557219 100.447253,24.9705044 C100.447604,25.9853836 99.8064095,26.5618263 98.5240204,26.6976893 C99.8071121,26.8623621 100.448307,27.4511368 100.449361,28.4653484 C100.450415,29.998348 100.450415,30.7648653 100.451469,32.2978297 C100.452523,33.5879131 99.4273142,34.2329372 97.3761943,34.2329372 C94.2636779,34.2322697 91.1508102,34.2322697 88.0382938,34.2322697 C88.0372398,33.3401836 88.0361858,32.8941582 88.0358344,32.0007019 C88.5055753,32.0034423 88.7409727,32.0048477 89.2107136,32.0068855 C89.2072002,28.3685895 89.2036868,24.7296261 89.2005248,21.0913653 C88.7300812,21.0769253 88.4950351,21.0694066 88.0249429,21.054299 C88.0235375,20.1690992 88.0228349,19.7271493 88.0224835,18.8419495 C90.7320135,18.9441892 92.0878326,18.9881067 94.7984166,19.0649798 C94.7994706,19.9371449 94.799822,20.3735788 94.800876,21.2457439 C94.3560802,21.2347821 94.1336823,21.229266 93.6888865,21.2176016 C93.6902919,22.9736314 93.6913459,23.8519801 93.6931026,25.6073072 C94.3511615,25.618269 94.6803665,25.6230824 95.3391281,25.6333766 C95.7371957,25.6395602 95.9371078,25.4604473 95.9364052,25.0947029 C95.9349998,23.4450587 95.9342971,22.6195515 95.9332431,20.9698721 C95.9318377,19.7210008 96.6443542,19.116451 98.0697384,19.1507417 C99.1641609,19.1768111 99.7115478,19.1884756 100.80597,19.2104343 C101.515325,19.2248744 101.869826,19.2310228 102.579181,19.2433899 C102.579532,20.1059635 102.579532,20.5362138 102.580235,21.3987873 C101.87088,21.3877904 101.517081,21.3823095 100.807727,21.3699424 L100.807727,21.3699424 Z M95.9395672,28.235467 C95.9388645,27.8690551 95.738601,27.6837586 95.3398307,27.679648 C94.6817719,27.6714266 94.3529182,27.6672808 93.694508,27.6590595 C93.6962647,29.4068328 93.6973187,30.2810708 93.6983727,32.0288442 C94.3567829,32.0315846 94.6856366,32.0329548 95.3443981,32.0356953 C95.7428171,32.0377682 95.9420266,31.8298455 95.9413239,31.4140001 C95.9409726,30.1424674 95.9402699,29.5070348 95.9395672,28.235467 L95.9395672,28.235467 Z" id="path62" fill="#00452A"></path>
                        <path d="M134.291433,75.2874816 C134.291433,75.2874816 138.089061,75.4982853 139.46069,74.8655229 C140.831617,74.2320579 141.887041,70.7502837 143.68098,68.1131296 C145.474568,65.4752728 145.790774,63.7867353 146.529289,64.1036435 C147.268508,64.4198491 148.322877,67.6911709 148.850589,66.8461995 C149.378301,66.0029847 160.245934,43.6349572 160.245934,43.6349572 C160.245934,43.6349572 149.062096,63.4701785 148.850589,63.8921372 C148.640137,64.3140959 148.745187,65.0533141 147.900919,61.9934987 C147.057001,58.9336832 146.318486,60.4107143 144.419847,63.1539729 C142.520506,65.8968802 142.626259,67.3739114 139.143782,67.2688609 C135.662359,67.1631077 135.240401,72.121913 136.928587,72.4384699 C135.76741,74.0212542 134.291433,75.2874816 134.291433,75.2874816" id="path64" fill="#00452A"></path>
                        <path d="M160.772943,34.8924014 C159.652521,35.4062354 159.335262,36.9893711 159.652521,38.0971444 C159.968727,39.2045664 159.256562,39.0865164 159.335262,39.7986815 C159.415016,40.5101439 160.958099,40.9855062 162.065872,40.1939384 C163.173294,39.4027219 163.648305,37.1871752 163.173294,36.4349574 C163.054541,37.0294238 162.421779,38.8490109 161.62986,38.7696082 C160.839346,38.6905568 160.958099,38.0971444 161.354058,38.018093 C161.749315,37.9390417 161.669913,37.0691251 161.076149,37.3059279 C160.483439,37.5430821 159.915323,35.8422477 160.772943,34.8924014" id="path66" fill="#00452A"></path>
                        <path d="M167.631089,34.5616504 C167.32964,35.0632578 167.221779,36.1370215 168.120154,36.967588 C168.166179,37.0101001 168.212908,37.0526122 168.264203,37.0937189 C169.318924,37.9376363 169.108472,39.6258225 167.736491,40.0477812 C167.654278,40.0730776 167.573821,40.1011848 167.496526,40.1317513 C167.470527,40.1419401 167.445582,40.154237 167.419583,40.1654799 C167.369341,40.1869116 167.318749,40.2083433 167.269912,40.2325857 C167.238995,40.2480447 167.208779,40.2663143 167.178564,40.2831786 C167.137457,40.3056643 167.095648,40.3281501 167.055947,40.3530952 C167.022921,40.3738242 166.990597,40.3970126 166.958274,40.419147 C166.922086,40.4440921 166.885547,40.4690372 166.850062,40.4964417 C166.817036,40.5220895 166.783307,40.5508993 166.750633,40.5783038 C166.717607,40.6067623 166.684581,40.6352208 166.651555,40.665436 C166.617475,40.6970565 166.583746,40.7307851 166.550018,40.7652164 C166.5191,40.7968369 166.488533,40.8288088 166.457616,40.8628887 C166.423184,40.9008334 166.38805,40.9408861 166.354673,40.9816415 C166.324458,41.0171268 166.294945,41.0536661 166.265433,41.0916107 C166.229596,41.1369335 166.194814,41.1833103 166.158977,41.2321465 C166.13087,41.2711452 166.10206,41.3126033 166.07325,41.3544127 C166.036711,41.4071136 165.99982,41.4615712 165.963281,41.5188395 C165.935174,41.561703 165.907769,41.6070257 165.879662,41.6523485 C165.841366,41.714887 165.802016,41.7784794 165.763017,41.8455853 C165.737018,41.890908 165.710316,41.9397442 165.683615,41.9871751 C165.641454,42.0609563 165.599645,42.135089 165.557132,42.214843 C165.533944,42.2594632 165.508999,42.3075967 165.484405,42.3539735 C165.437677,42.4442677 165.390598,42.5349133 165.341761,42.631883 C165.325951,42.6635035 165.309438,42.6982862 165.293628,42.730258 C164.937018,43.4540174 164.53614,44.3657433 164.044265,45.533947 C162.356079,49.5427304 158.451643,62.9428179 157.71383,65.6860765 C156.975314,68.4293351 158.346592,70.0117681 156.975314,70.8556855 C155.603685,71.7003056 152.754673,78.2418953 152.226961,79.9297301 C151.699952,81.6175649 153.387436,85.627051 152.649623,88.2649078 C151.911107,90.9027645 149.694858,96.7037306 149.484054,99.1304323 C147.268508,97.8642048 146.161437,94.4895892 145.949579,92.5905994 C145.212469,93.656212 145.430651,95.9293784 145.761964,97.6836164 C143.134647,101.612997 138.729904,104.919453 130.701095,110.576721 C112.42301,123.455069 98.8391719,116.717432 91.7614382,116.717432 C88.0245916,112.980937 84.4683334,108.945452 74.9821676,107.891433 C65.4960019,106.837415 55.9820803,103.36337 50.7372846,96.596572 C45.4928403,89.8297738 32.6041626,80.6721104 10.1830827,79.8165988 C26.2568636,61.3712765 57.4043025,72.1046974 70.2464629,61.6625369 L97.6586713,42.3402712 C90.9231422,55.4996912 96.5498439,70.0943329 106.607639,75.0717592 C102.155114,72.8685094 95.1729445,55.7744387 105.270792,42.0483081 L133.4173,42.0820367 L133.963282,42.4681588 C130.609746,44.5034684 130.310054,47.8889755 130.33535,49.2444432 C127.043651,50.0869553 123.473339,52.6401392 119.941323,56.9289402 C114.033199,64.1036435 117.620726,67.3739114 118.992355,68.957047 C120.363985,70.53948 123.212645,71.4891506 123.950809,70.2232745 C122.894683,70.4340782 120.680542,69.3790057 119.62582,67.0577058 C118.570397,64.7360546 119.098109,62.8374161 123.739654,57.4563007 C128.381903,52.0755367 130.386997,51.442423 132.497493,51.5478248 C134.608341,51.653578 135.662359,53.5525678 135.662359,53.5525678 C135.662359,53.5525678 139.35564,49.9650405 141.359329,47.7491424 C143.363721,45.533947 144.366443,46.3782158 146.476588,43.4238022 C147.138512,42.496266 147.577686,41.7767227 147.851731,41.1443117 C147.853136,41.1422036 147.853136,41.1404469 147.85419,41.1383389 C147.920242,40.9855062 147.973646,40.838295 148.021779,40.6938945 C148.034779,40.6545444 148.04567,40.6151944 148.057616,40.5765471 C148.092399,40.4602537 148.121911,40.3450144 148.146154,40.2318831 C148.152829,40.2002625 148.161261,40.1686419 148.167234,40.1373727 C148.193233,39.9961343 148.212557,39.8555985 148.223448,39.7150627 C148.225556,39.6915229 148.225556,39.6672805 148.226962,39.6437408 C148.234691,39.524988 148.23715,39.4044786 148.235042,39.2829151 C148.235042,39.2435651 148.233988,39.2031611 148.232583,39.1638111 C148.227664,39.0394369 148.218881,38.912252 148.20553,38.781905 C148.203773,38.7604733 148.202368,38.7390416 148.20026,38.7172586 C148.183044,38.5633719 148.161261,38.4038638 148.134911,38.2383829 C148.128235,38.1965735 148.119803,38.1512507 148.113128,38.1087386 C148.090993,37.9769863 148.066399,37.8396126 148.039698,37.6983741 C148.02986,37.6474299 148.020374,37.594729 148.010185,37.542028 C147.976457,37.3656556 147.940269,37.1829591 147.900919,36.9879657 C147.899513,36.9805876 147.898811,36.9742635 147.897757,36.967588 C147.378828,34.3441362 148.222043,33.0849355 149.694858,33.2955986 C151.171538,33.5055591 151.06719,33.2955986 152.226961,30.9741582 C153.387436,28.6526826 155.814489,29.7080713 156.86921,30.9741582 C156.447603,30.9741582 154.759065,31.7124981 154.019847,32.6622038 C153.281683,33.611242 152.754673,36.4595511 155.708736,36.1440483 C158.662798,35.8278428 159.401314,32.4515407 161.300655,30.3407634 C163.199996,28.2306888 164.887479,29.3910577 166.576368,31.501835 C168.264203,33.6119447 168.58076,35.9325419 168.58076,35.9325419 C168.58076,35.9325419 167.842244,35.5105832 167.631089,34.5616504 L167.631089,34.5616504 Z M128.276852,104.302149 C127.116378,101.136581 125.322087,97.3382497 127.116378,92.6960012 C128.910317,88.0537527 129.754235,82.9895456 127.327182,82.0395236 C124.90048,81.089853 120.679839,82.3560805 122.157221,86.4713198 C122.684933,85.7328042 124.90048,85.8378547 125.428192,87.5260409 C125.68994,88.3643368 125.509351,90.7140952 125.338952,93.3698703 C123.892487,93.2230104 122.330783,93.028017 120.622219,92.781728 C102.338162,90.1449253 84.6471652,82.9442228 73.8037751,65.6400511 C63.5678508,74.0317944 29.8230998,69.1573105 18.4924018,77.8715835 C32.1946413,77.8715835 49.6611318,87.6599012 54.9533583,95.0155444 C65.4935425,97.1235812 87.8278415,97.3347363 95.8457596,90.5001295 C88.4676306,99.9265676 69.5546755,98.6635021 59.0144913,98.6635021 C59.0144913,98.6635021 66.8135249,103.148351 76.2996907,104.202369 C85.7858564,105.256387 90.6596376,108.501359 94.3964842,112.237854 C101.474218,112.237854 115.790599,108.781728 120.270177,104.302149 C116.355904,110.266137 112.033726,112.915237 104.284582,114.65261 C109.074745,114.984626 112.329554,114.916115 113.64532,114.916115 C115.584714,114.916115 123.685197,111.361613 129.120067,107.67817 C147.592794,95.1574855 145.918661,88.829159 147.499689,79.9297301 C143.496878,87.973296 141.038907,92.0252941 135.189105,93.2570903 C136.84286,89.444003 138.795605,85.2757115 139.671845,84.4669281 C137.984011,84.9939373 134.184977,88.7922683 133.446813,91.6412801 C132.708297,94.4895892 128.382605,102.825118 128.276852,104.302149 L128.276852,104.302149 Z M148.850589,63.8921372 C148.640137,64.3140959 148.745187,65.0533141 147.900919,61.9934987 C147.057001,58.9336832 146.318486,60.4107143 144.419847,63.1539729 C142.520506,65.8968802 142.626259,67.3739114 139.143782,67.2688609 C135.662359,67.1631077 135.240401,72.121913 136.928587,72.4384699 C135.76741,74.0212542 134.291433,75.2874816 134.291433,75.2874816 C134.291433,75.2874816 138.089061,75.4982853 139.46069,74.8655229 C140.831617,74.2320579 141.887041,70.7502837 143.68098,68.1131296 C145.474568,65.4752728 145.790774,63.7867353 146.529289,64.1036435 C147.268508,64.4198491 148.322877,67.6911709 148.850589,66.8461995 C149.378301,66.0029847 160.245934,43.6349572 160.245934,43.6349572 C160.245934,43.6349572 149.062096,63.4701785 148.850589,63.8921372 Z M163.173294,36.4349574 C163.054541,37.0294238 162.421779,38.8490109 161.62986,38.7696082 C160.839346,38.6905568 160.958099,38.0971444 161.354058,38.018093 C161.749315,37.9390417 161.669913,37.0691251 161.076149,37.3059279 C160.483439,37.5430821 159.915323,35.8422477 160.772943,34.8924014 C159.652521,35.4062354 159.335262,36.9893711 159.652521,38.0971444 C159.968727,39.2045664 159.256562,39.0865164 159.335262,39.7986815 C159.415016,40.5101439 160.958099,40.9855062 162.065872,40.1939384 C163.173294,39.4027219 163.648305,37.1871752 163.173294,36.4349574 L163.173294,36.4349574 Z" id="path68" fill="#FFFFFF"></path>
                        <path d="M147.499689,79.9297301 C145.918661,88.829159 147.592794,95.1574855 129.120067,107.67817 C123.685197,111.361613 115.584714,114.916115 113.64532,114.916115 C112.329554,114.916115 109.074745,114.984626 104.284582,114.65261 C112.033726,112.915237 116.355904,110.266137 120.270177,104.302149 C115.790599,108.781728 101.474218,112.237854 94.3964842,112.237854 C90.6596376,108.501359 85.7858564,105.256387 76.2996907,104.202369 C66.8135249,103.148351 59.0144913,98.6635021 59.0144913,98.6635021 C69.5546755,98.6635021 88.4676306,99.9265676 95.8457596,90.5001295 C87.8278415,97.3347363 65.4935425,97.1235812 54.9533583,95.0155444 C49.6611318,87.6599012 32.1946413,77.8715835 18.4924018,77.8715835 C29.8230998,69.1573105 63.5678508,74.0317944 73.8037751,65.6400511 C84.6471652,82.9442228 102.338162,90.1449253 120.622219,92.781728 C122.330783,93.028017 123.892487,93.2230104 125.338952,93.3698703 C125.509351,90.7140952 125.68994,88.3643368 125.428192,87.5260409 C124.90048,85.8378547 122.684933,85.7328042 122.157221,86.4713198 C120.679839,82.3560805 124.90048,81.089853 127.327182,82.0395236 C129.754235,82.9895456 128.910317,88.0537527 127.116378,92.6960012 C125.322087,97.3382497 127.116378,101.136581 128.276852,104.302149 C128.382605,102.825118 132.708297,94.4895892 133.446813,91.6412801 C134.184977,88.7922683 137.984011,84.9939373 139.671845,84.4669281 C138.795605,85.2757115 136.84286,89.444003 135.189105,93.2570903 C141.038907,92.0252941 143.496878,87.973296 147.499689,79.9297301" id="path70" fill="#00452A"></path>
                        <path d="M166.274919,44.7350011 C165.680101,46.0911714 164.931397,48.0474296 163.938511,50.9147111 C163.203509,53.0371528 162.589368,54.8556859 162.07325,56.4202006 L196.983043,81.2785223 L151.263589,99.9097033 C151.259373,99.9409725 151.254454,99.9718903 151.250238,100.002457 C151.204564,100.478522 150.992355,102.877116 151.118485,105.673427 C150.984274,105.525162 150.843387,105.369167 150.70004,105.208957 C150.000172,104.436361 149.198064,103.561526 148.455332,102.688096 C148.45463,102.687744 148.452873,102.685285 148.452873,102.685285 C148.452873,102.685285 147.092135,104.751864 142.691257,108.410362 C138.29073,112.06886 129.547647,117.846637 125.974525,119.747033 C122.401402,121.647779 114.875008,123.624766 107.729115,123.624766 C100.582167,123.624766 92.4476042,120.659461 89.8627997,121.41976 C88.2663131,119.822922 84.3889307,114.577775 78.2306524,113.208956 C72.0727255,111.840489 68.6520844,112.600436 59.7572229,109.027314 C50.8623615,105.454191 47.5931477,99.6001732 46.0725505,98.0036866 C44.5516019,96.4068487 39.6859015,91.3900724 29.8788223,87.9683772 C20.0716376,84.5470335 11.5567498,84.4711441 8.36367129,84.4711441 C5.17059276,84.4711441 0,84.0920488 0,84.0920488 C3.00299334,81.088799 8.36282807,73.0680702 16.5736316,68.9626685 C24.7843999,64.8572667 32.4630646,63.8689488 45.3874385,62.8043902 C58.3118123,61.7401829 62.1129541,61.4362743 69.1074203,56.6464632 C76.1018865,51.8570035 90.3947276,41.6695642 90.3947276,41.6695642 L90.6185309,41.4823002 L66.0827388,41.4823002 L66.0827388,44.7353524 L24.3850323,44.7353524 L24.3850323,3.53124278 L66.0563883,3.53124278 L66.0563883,9.8924196 C66.0563883,9.8924196 71.6384699,10.3329642 80.0249431,10.6444969 C88.4107136,10.9566971 91.1891062,11.008871 91.1891062,11.008871 L91.1891062,0 L141.636536,0 C141.636536,0 141.636536,9.45046968 141.636536,10.982099 C149.113391,10.982099 160.847075,10.2547209 164.92437,9.91778631 L164.92437,3.27116373 L199.587171,3.27116373 L199.587171,44.7350011 L166.274919,44.7350011 Z M70.2464629,61.6625369 C57.4043025,72.1046974 26.2568636,61.3712765 10.1830827,79.8165988 C32.6041626,80.6721104 45.4928403,89.8297738 50.7372846,96.596572 C55.9820803,103.36337 65.4960019,106.837415 74.9821676,107.891433 C84.4683334,108.945452 88.0245916,112.980937 91.7614382,116.717432 C98.8391719,116.717432 112.42301,123.455069 130.701095,110.576721 C138.729904,104.919453 143.134647,101.612997 145.761964,97.6836164 C145.430651,95.9293784 145.212469,93.656212 145.949579,92.5905994 C146.161437,94.4895892 147.268508,97.8642048 149.484054,99.1304323 C149.694858,96.7037306 151.911107,90.9027645 152.649623,88.2649078 C153.387436,85.627051 151.699952,81.6175649 152.226961,79.9297301 C152.754673,78.2418953 155.603685,71.7003056 156.975314,70.8556855 C158.346592,70.0117681 156.975314,68.4293351 157.71383,65.6860765 C158.451643,62.9428179 162.356079,49.5427304 164.044265,45.533947 C164.53614,44.3657433 164.937018,43.4540174 165.293628,42.730258 C165.309438,42.6982862 165.325951,42.6635035 165.341761,42.631883 C165.390598,42.5349133 165.437677,42.4442677 165.484405,42.3539735 C165.508999,42.3075967 165.533944,42.2594632 165.557132,42.214843 C165.599645,42.135089 165.641454,42.0609563 165.683615,41.9871751 C165.710316,41.9397442 165.737018,41.890908 165.763017,41.8455853 C165.802016,41.7784794 165.841366,41.714887 165.879662,41.6523485 C165.907769,41.6070257 165.935174,41.561703 165.963281,41.5188395 C165.99982,41.4615712 166.036711,41.4071136 166.07325,41.3544127 C166.10206,41.3126033 166.13087,41.2711452 166.158977,41.2321465 C166.194814,41.1833103 166.229596,41.1369335 166.265433,41.0916107 C166.294945,41.0536661 166.324458,41.0171268 166.354673,40.9816415 C166.38805,40.9408861 166.423184,40.9008334 166.457616,40.8628887 C166.488533,40.8288088 166.5191,40.7968369 166.550018,40.7652164 C166.583746,40.7307851 166.617475,40.6970565 166.651555,40.665436 C166.684581,40.6352208 166.717607,40.6067623 166.750633,40.5783038 C166.783307,40.5508993 166.817036,40.5220895 166.850062,40.4964417 C166.885547,40.4690372 166.922086,40.4440921 166.958274,40.419147 C166.990597,40.3970126 167.022921,40.3738242 167.055947,40.3530952 C167.095648,40.3281501 167.137457,40.3056643 167.178564,40.2831786 C167.208779,40.2663143 167.238995,40.2480447 167.269912,40.2325857 C167.318749,40.2083433 167.369341,40.1869116 167.419583,40.1654799 C167.445582,40.154237 167.470527,40.1419401 167.496526,40.1317513 C167.573821,40.1011848 167.654278,40.0730776 167.736491,40.0477812 C169.108472,39.6258225 169.318924,37.9376363 168.264203,37.0937189 C168.212908,37.0526122 168.166179,37.0101001 168.120154,36.967588 L168.120154,36.967588 C167.221779,36.1370215 167.32964,35.0632578 167.631089,34.5616504 C167.842244,35.5105832 168.58076,35.9325419 168.58076,35.9325419 C168.58076,35.9325419 168.264203,33.6119447 166.576368,31.501835 C164.887479,29.3910577 163.199996,28.2306888 161.300655,30.3407634 C159.401314,32.4515407 158.662798,35.8278428 155.708736,36.1440483 C152.754673,36.4595511 153.281683,33.611242 154.019847,32.6622038 C154.759065,31.7124981 156.447603,30.9741582 156.86921,30.9741582 C155.814489,29.7080713 153.387436,28.6526826 152.226961,30.9741582 C151.06719,33.2955986 151.171538,33.5055591 149.694858,33.2955986 C148.222043,33.0849355 147.378828,34.3441362 147.897757,36.967588 L147.897757,36.967588 C147.898811,36.9742635 147.899513,36.9805876 147.900919,36.9879657 C147.940269,37.1829591 147.976457,37.3656556 148.010185,37.542028 C148.020374,37.594729 148.02986,37.6474299 148.039698,37.6983741 C148.066399,37.8396126 148.090993,37.9769863 148.113128,38.1087386 C148.119803,38.1512507 148.128235,38.1965735 148.134911,38.2383829 C148.161261,38.4038638 148.183044,38.5633719 148.20026,38.7172586 C148.202368,38.7390416 148.203773,38.7604733 148.20553,38.781905 C148.218881,38.912252 148.227664,39.0394369 148.232583,39.1638111 C148.233988,39.2031611 148.235042,39.2435651 148.235042,39.2829151 C148.23715,39.4044786 148.234691,39.524988 148.226962,39.6437408 C148.225556,39.6672805 148.225556,39.6915229 148.223448,39.7150627 C148.212557,39.8555985 148.193233,39.9961343 148.167234,40.1373727 C148.161261,40.1686419 148.152829,40.2002625 148.146154,40.2318831 C148.121911,40.3450144 148.092399,40.4602537 148.057616,40.5765471 C148.04567,40.6151944 148.034779,40.6545444 148.021779,40.6938945 C147.973646,40.838295 147.920242,40.9855062 147.85419,41.1383389 C147.853136,41.1404469 147.853136,41.1422036 147.851731,41.1443117 L147.851731,41.1443117 C147.577686,41.7767227 147.138512,42.496266 146.476588,43.4238022 C144.366443,46.3782158 143.363721,45.533947 141.359329,47.7491424 C139.35564,49.9650405 135.662359,53.5525678 135.662359,53.5525678 C135.662359,53.5525678 134.608341,51.653578 132.497493,51.5478248 C130.386997,51.442423 128.381903,52.0755367 123.739654,57.4563007 C119.098109,62.8374161 118.570397,64.7360546 119.62582,67.0577058 C120.680542,69.3790057 122.894683,70.4340782 123.950809,70.2232745 C123.212645,71.4891506 120.363985,70.53948 118.992355,68.957047 C117.620726,67.3739114 114.033199,64.1036435 119.941323,56.9289402 C123.473339,52.6401392 127.043651,50.0869553 130.33535,49.2444432 C130.310054,47.8889755 130.609746,44.5034684 133.963282,42.4681588 L133.4173,42.0820367 L105.270792,42.0483081 C95.1729445,55.7744387 102.155114,72.8685094 106.607639,75.0717592 C96.5498439,70.0943329 90.9231422,55.4996912 97.6586713,42.3402712 L70.2464629,61.6625369 Z M143.91427,43.4891513 C144.073426,43.2945092 144.239961,43.068598 144.419847,42.7906884 C144.800699,42.2021948 145.214577,41.7057521 145.584889,41.257443 L141.095824,41.4823002 L141.095824,41.4823002 L143.91427,43.4891513 Z M195.084756,7.72328483 L169.423975,7.72328483 C169.423975,7.72328483 169.423975,13.0750282 169.423975,13.8875008 C163.595253,14.5085284 152.044968,15.3210009 137.942201,15.5598064 C137.942201,14.1263062 137.942201,4.05277109 137.942201,4.05277109 L94.8999537,4.05277109 L94.8999537,15.5124458 C87.0429491,15.5124458 73.7113728,14.986842 61.5743507,13.9828894 C61.5743507,13.3618969 61.5743507,8.01011838 61.5743507,8.01011838 L28.8420897,8.01011838 L28.8420897,40.2164241 L61.5743507,40.2164241 L61.5743507,36.967588 L145.849799,36.967588 C145.557484,36.1036442 145.491784,35.0756249 146.318486,33.7176276 C147.795517,31.2904691 149.906013,31.818181 150.644529,30.3407634 C151.382693,28.8640485 152.015455,27.7036796 153.914796,27.7036796 C155.814489,27.7036796 158.979355,29.4967406 158.873602,31.396152 C159.929728,30.0244173 161.195604,28.3363366 162.672284,27.7036796 C164.149667,27.0702848 168.264203,30.8684753 168.896965,32.6622038 C169.530431,34.4559675 169.740883,35.7220896 169.636184,36.7768107 C170.268595,37.4102757 170.796307,38.3599463 170.480101,39.4146674 C170.377159,39.7579261 170.237326,40.0291602 170.066926,40.2638549 L195.084756,40.2638549 L195.084756,7.72328483 L195.084756,7.72328483 Z" id="path72" fill="#00452A"></path>
                        <path d="M187.260074,80.1545874 L162.638907,90.1572222 C162.638907,90.1572222 176.051291,84.2961771 178.159328,79.8165988 C180.267365,75.3370205 170.154058,68.0590233 170.154058,68.0590233 L187.260074,80.1545874" id="path74" fill="#FFFFFF"></path>
                    </g>
                </g>
            </g>
        </g>
    </g>
</svg>