<?xml version="1.0" encoding="UTF-8"?>
<svg width="200px" height="200px" viewBox="0 0 200 200" version="1.1" xmlns="http://www.w3.org/2000/svg" xmlns:xlink="http://www.w3.org/1999/xlink">
    <!-- Generator: Sketch 54.1 (76490) - https://sketchapp.com -->
    <title>suny-canton</title>
    <desc>Created with Sketch.</desc>
    <g id="suny-canton" stroke="none" stroke-width="1" fill="none" fill-rule="evenodd">
        <g id="suny-canton_BGL">
            <g id="suny-canton" transform="translate(0.000000, 10.000000)">
                <g id="g10" transform="translate(99.941620, 89.578519) scale(-1, 1) rotate(-180.000000) translate(-99.941620, -89.578519) translate(0.000000, 0.144780)" fill-rule="nonzero">
                    <g id="g12">
                        <path d="M197.919902,111.554463 C197.919902,111.554463 193.618209,121.33333 193.24226,122.185169 C193.24226,123.648333 193.24226,143.339634 193.24226,144.803733 C193.804082,146.082425 199.828133,159.777229 199.828133,159.777229 C199.828133,159.777229 164.256388,159.777229 157.657906,159.777229 C158.721304,161.632687 161.950259,167.264444 161.950259,167.264444 C149.220779,173.759715 135.72072,176.803265 127.318152,178.660591 L125.386103,173.050784 C117.061994,174.732045 108.511848,175.582949 99.9131324,175.582949 C91.317219,175.582949 82.7652052,174.732045 74.4406286,173.050784 L72.5090466,178.660591 C64.1064783,176.803265 50.6073543,173.759715 37.8776406,167.264444 C37.8776406,167.264444 41.1057083,161.632687 42.1692459,159.777229 C35.5717446,159.777229 9.09494679e-14,159.777229 9.09494679e-14,159.777229 C9.09494679e-14,159.777229 6.02288368,146.082425 6.58475173,144.803733 C6.58475173,143.339634 6.58475173,123.648333 6.58475173,122.185169 C6.21076458,121.33333 1.90911379,111.554463 1.90911379,111.554463 L19.008149,98.0726187 C19.008149,98.0726187 20.4128425,98.0726187 22.1066661,98.0726187 C21.1571273,96.9480419 20.4657555,95.6347904 20.0552943,94.1772306 C17.0552243,93.773728 14.2978163,92.3754793 12.3777697,90.1510777 C11.1391007,88.7196709 10.4285345,86.5466412 10.4285345,84.2059524 C10.4285345,82.6844112 10.7386337,81.0956197 11.3908228,79.5904242 C10.5854055,78.1711598 10.1320721,76.5001732 10.1320721,74.8147092 C10.1320721,73.5995311 10.3619379,72.381084 10.8526792,71.2555732 C13.0855805,66.1090468 17.6445063,64.3778151 21.9817391,64.7406872 C23.8324804,61.5009909 27.1499351,59.2004655 29.9711843,57.2502029 C47.1103316,45.4234198 53.5019251,25.5023928 53.8736706,22.9044244 L54.1221236,21.0600812 C55.486747,10.6764271 56.258259,7.76653804 58.053472,6.23976634 C64.2577917,0.951364833 69.7204886,1.15915 73.2105061,2.26649381 C77.5304125,3.63488607 80.8761217,7.10612942 81.4981883,9.53606514 C81.6714515,10.2094101 81.8054854,10.9934848 81.9105642,11.8529361 C82.1356664,10.3734265 82.3574994,9.2753763 82.4966704,8.80471665 C83.3270265,6.03712769 86.8670148,4.40072377 88.5436055,3.76787848 C88.7131326,3.60533324 88.915818,3.38441556 89.026968,3.24431049 C89.4309376,2.54578861 90.4527707,1.34322005 93.7452399,0.403896779 C95.1430216,0.00602012828 97.2063023,-0.391309272 98.9776975,0.761274937 C99.2602427,0.945709258 99.543722,1.1660852 99.8122567,1.43096786 C100.081258,1.1660852 100.366606,0.943883222 100.649151,0.759448901 C102.41681,-0.391309272 104.478223,0.00419585745 105.877405,0.403896779 C109.168474,1.34121655 110.191708,2.54195907 110.596611,3.24431049 C110.708228,3.38441556 110.908579,3.60351188 111.080441,3.76787848 C112.751427,4.39688956 116.296086,6.03143009 117.122239,8.80270848 C117.273552,9.30437805 117.492583,10.4097137 117.711614,11.8711497 C117.81716,11.0010038 117.952128,10.2075888 118.127259,9.52896649 C118.75493,7.09921757 122.104375,3.6292305 126.424282,2.2626596 C129.912431,1.16097604 135.370458,0.954647962 141.574778,6.2415877 C143.364386,7.76835941 144.136365,10.6746057 145.500989,21.0493398 L145.750843,22.9044244 C146.123055,25.5023928 152.515116,45.4234198 169.652769,57.2502029 C172.480089,59.2042017 175.803848,61.5117323 177.651834,64.760769 C182.070281,64.4287199 186.625565,66.3117321 188.774776,71.2607104 C189.261875,72.381084 189.491647,73.5976631 189.491647,74.809105 C189.491647,76.494569 189.03724,78.1692917 188.233037,79.5885561 C188.885926,81.0937516 189.196026,82.6844112 189.196026,84.2059524 C189.196026,86.5447731 188.484759,88.7196709 187.245763,90.1524788 C185.321186,92.3764133 182.564852,93.7727939 179.567538,94.1772306 C179.15703,95.6347904 178.463977,96.9480419 177.514998,98.0726187 C179.301338,98.0726187 180.819143,98.0726187 180.819143,98.0726187 L197.919902,111.554463" id="path14" fill="#D3D5D7"></path>
                        <path d="M153.644363,89.6429633 C150.448099,85.8605933 143.850084,75.9439561 139.929477,68.1176866 C140.325507,71.4068867 140.911147,77.4141253 140.230703,79.5175695 C140.078922,79.9901906 137.419261,82.3290114 133.868998,84.5342653 C134.732046,87.923874 134.16462,90.9534128 133.792408,92.7570321 C132.821946,97.4598925 129.892349,102.080558 126.010038,105.050785 C138.031987,103.278456 149.800814,100.270867 161.224514,96.0462323 C158.821712,94.7535294 156.249383,92.7196708 153.644363,89.6429633 L153.644363,89.6429633 Z M112.961118,86.7726773 C112.538001,87.4110895 112.070984,88.0863959 111.560067,88.7981297 C112.419378,89.7475751 113.382367,90.6470497 114.414942,91.3330975 C116.131696,92.477756 115.699238,95.0547554 115.987388,96.9181529 C116.01681,97.1030916 116.035023,97.2955025 116.049501,97.4925837 C117.033039,96.6500851 117.784469,95.5058937 118.065613,94.0646795 C118.59988,91.3340316 117.269816,88.0130743 112.961118,86.7726773 Z M102.675537,93.0960864 C102.675537,93.0960864 100.575362,93.6126071 99.8122567,93.6126071 C99.04775,93.6126071 96.94991,93.0960864 96.94991,93.0960864 C96.755631,93.886279 96.5291278,94.6475166 96.2830099,95.3872714 C98.1739614,96.3241073 101.3366,97.3678902 104.405368,98.1328639 C103.717452,96.5879719 103.121072,94.9085791 102.675537,93.0960864 Z M89.6980713,106.662461 C92.8303538,106.83946 95.9775808,106.934265 99.1360162,106.946874 C96.8420291,106.067948 94.4779895,104.970459 92.092467,103.633389 C91.2854618,104.782718 90.4681822,105.793342 89.6980713,106.662461 L89.6980713,106.662461 Z M84.8887311,83.8538216 C83.7412705,83.0823097 82.6129577,82.2248666 81.5346156,81.3165187 C80.4119069,84.3100971 78.3346157,88.7271431 77.4902491,88.7444228 C70.0525377,88.8938682 59.6950365,80.4623447 59.3914755,79.5175695 C58.7119658,77.4141253 59.2985391,71.4068867 59.6941024,68.1176866 C55.7730284,75.9439561 49.1736123,85.8605933 45.9765546,89.6429633 C43.4033848,92.6846445 40.8603376,94.7077618 38.4823808,96.0023327 C46.1498646,98.8445976 53.9731452,101.134849 61.9245752,102.874487 C61.9862215,102.684411 62.055807,102.484995 62.1408041,102.2697 C64.0233492,97.4907156 68.0074706,92.8471664 78.2561568,92.0555727 C80.4035006,91.8893147 82.483127,91.9378844 84.4422629,92.1312295 C84.6342069,91.8239323 84.8821929,91.5521285 85.2114398,91.3330975 C86.2412121,90.6470497 87.2018659,89.7475751 88.0625781,88.7981297 C86.7026248,86.9076452 85.6639792,85.2749541 84.8887311,83.8538216 L84.8887311,83.8538216 Z M81.9497936,106.055806 C81.9815508,105.947458 82.0179781,105.838643 82.0609437,105.733097 C82.9987136,103.423232 83.3167521,101.675654 83.4400446,100.271801 C79.7879723,99.4923501 76.686513,99.4675982 75.5983636,99.5040255 C69.5855207,99.6983046 67.5166358,102.133798 66.7460579,103.857557 C71.7674238,104.809805 76.8378265,105.543488 81.9497936,106.055806 Z M179.481607,101.934849 L193.182015,112.734615 C191.992523,115.437242 189.741501,120.556214 189.382365,121.37256 C189.382365,122.846465 189.382365,144.142437 189.382365,145.614474 L193.913831,155.9164 L153.575244,155.9164 L150.997311,155.9164 L156.523055,165.560299 C146.268765,170.41027 134.210388,173.111029 129.837708,174.119785 L127.922005,168.553878 C118.87542,170.644713 109.484177,171.723055 99.9121983,171.723055 C90.3430217,171.723055 80.9499104,170.644713 71.9023917,168.553878 L69.9866883,174.119785 C65.6140089,173.111029 53.554698,170.41027 43.3021355,165.560299 L48.8289538,155.9164 L46.2529352,155.9164 L5.91434895,155.9164 L10.4458608,145.614474 C10.4458608,144.142437 10.4458608,122.846465 10.4458608,121.37256 C10.0864913,120.556214 7.8343956,115.437242 6.64859295,112.734615 L20.3480672,101.934849 L29.0198241,101.934849 L30.651628,97.9768802 C28.5555159,97.8685323 26.9273548,97.2161097 25.994255,96.4922334 C23.9765552,94.9221226 23.3480905,92.5945102 23.4794623,90.3103305 C20.6709627,90.7894898 17.3881607,90.047867 15.3012022,87.6282523 C14.0588438,86.1945104 13.5909395,82.0497353 16.1631753,79.1836524 C14.3014591,78.1692917 13.4394859,74.9842363 14.3917801,72.7967291 C16.5480907,67.8295371 21.6670164,68.1485097 24.4554343,69.2324559 C24.9087676,65.4668985 28.6804897,62.8343242 32.1639688,60.428253 C50.3336823,47.8897828 57.2361924,26.6661056 57.695737,23.4517215 C58.1552817,20.2409802 59.2546395,10.2860476 60.5543476,9.18253334 C70.3598348,0.823299454 77.3996478,9.09660222 77.7583168,10.4938234 C79.4867464,17.1984584 76.9111481,37.6517912 76.9111481,37.6517912 C77.2053688,37.8217854 77.8643296,38.0058835 78.5218895,38.1609331 C81.6915333,29.3277284 85.0582582,24.3222878 85.0582582,24.3222878 C84.6697002,18.5040976 85.8563901,11.051862 86.1973125,9.90640956 C86.5405699,8.76259172 89.7349656,7.42939853 90.3009902,7.23731447 C90.8637455,7.04593094 92.1583164,5.6176998 92.3371839,5.23624038 C92.5160514,4.85515458 95.9948604,3.4265545 96.8714512,3.99773954 C97.748976,4.56891991 97.3127822,5.80927014 97.1460571,6.47509616 C96.865847,7.58426134 96.1891395,12.3091649 96.1891395,12.3091649 C97.1287775,11.9295268 98.5844692,11.9094918 98.8870962,12.383981 C99.654405,13.5916401 96.7117314,18.8875652 96.1718598,19.8398127 C95.6315213,20.7939283 95.5750122,21.9375593 95.015993,22.3173841 C94.4588418,22.7002913 92.6005815,24.6048797 92.6005815,24.6048797 C90.8273182,28.1075066 90.0221811,35.0945 89.7190871,38.5624742 C93.5084623,35.2388082 97.4706339,33.2501568 99.8122567,33.2501568 C102.152011,33.2501568 106.112782,35.2388082 109.903558,38.5624742 C109.6042,35.0945 108.796261,28.1075066 107.022998,24.6048797 C107.022998,24.6048797 105.164271,22.7002913 104.607586,22.3173841 C104.049501,21.9375593 103.992992,20.7939283 103.451253,19.8398127 C102.910914,18.8875652 99.9705754,13.5916401 100.736483,12.383981 C101.037709,11.9094918 102.497137,11.9295268 103.436308,12.3091649 C103.436308,12.3091649 102.757732,7.58426134 102.478923,6.47509616 C102.310797,5.80927014 101.87507,4.56891991 102.753996,3.99773954 C103.629653,3.4265545 107.108929,4.85515458 107.287329,5.23624038 C107.466197,5.6176998 108.757966,7.04593094 109.321655,7.23731447 C109.889081,7.42939853 113.081608,8.76259172 113.422531,9.90640956 C113.767189,11.051862 114.953412,18.5040976 114.566255,24.3222878 C114.566255,24.3222878 117.930645,29.3277284 121.101223,38.1609331 C121.759717,38.0058835 122.420079,37.8217854 122.710096,37.6517912 C122.710096,37.6517912 120.135899,17.1984584 121.867131,10.4938234 C122.226734,9.09660222 129.264679,0.823299454 139.070166,9.18253334 C140.36894,10.2860476 141.467364,20.2409802 141.928776,23.4517215 C142.388788,26.6661056 149.289897,47.8897828 167.459657,60.428253 C170.940334,62.8343242 174.712897,65.4668985 175.167304,69.2324559 C177.954928,68.1485097 183.075769,67.8295371 185.231986,72.7967291 C186.182365,74.9842363 185.319318,78.1692917 183.458723,79.1836524 C186.036656,82.0497353 185.565903,86.1945104 184.325039,87.6282523 C182.230935,90.047867 178.951076,90.7894898 176.145238,90.3103305 C176.274602,92.5945102 175.64553,94.9221226 173.629418,96.4922334 C172.726674,97.1936928 171.170574,97.8255667 169.168939,97.9633367 L170.805366,101.934849 L179.481607,101.934849 L179.481607,101.934849 Z" id="path16" fill="#18468B"></path>
                        <path d="M77.7956781,160.983067 C77.6863962,161.437474 77.3889064,161.775127 76.9144172,161.98762 C76.4474003,162.197311 75.9103309,162.23187 75.3162853,162.089897 C75.3158183,162.089897 70.6437811,160.962518 69.9988307,160.807468 C69.9666065,160.940568 69.6966708,162.062343 69.6658476,162.196377 C69.8171611,162.23187 76.3619362,163.80992 76.3619362,163.80992 L75.9523624,165.510329 L69.1768809,163.877637 C68.57116,163.732395 68.101341,163.446114 67.7851705,163.0272 C67.4638629,162.60595 67.3536469,162.174427 67.4563906,161.746639 L67.8276691,160.202681 C67.8650304,160.052769 67.9290117,159.910796 68.019146,159.779097 C68.2082878,159.458256 68.516519,159.229418 68.9316971,159.104258 C69.3394028,158.980965 69.8082878,158.980965 70.3252755,159.107994 C70.3252755,159.107994 75.4914167,160.352127 75.6431972,160.389488 C75.6749543,160.255454 75.9504943,159.114999 75.9831855,158.980965 C75.8300039,158.944538 68.7462913,157.238058 68.7462913,157.238058 L69.150261,155.555863 L76.465614,157.321187 C77.1044931,157.474369 77.5859876,157.756914 77.8942187,158.161817 C78.1085795,158.437357 78.2150593,158.738583 78.2150593,159.059424 C78.2150593,159.182716 78.1996478,159.307877 78.1688247,159.434439 L77.7956781,160.983067" id="path18" fill="#CBA569"></path>
                        <path d="M96.6963198,167.892582 L94.4686491,167.738466 C94.4686491,167.738466 94.8992387,161.556096 94.9104471,161.399179 C94.7553975,161.389371 89.0068863,160.990539 88.8518367,160.979797 C88.8406283,161.135781 88.4114397,167.318151 88.4114397,167.318151 L86.1664894,167.161233 L86.6096884,160.749558 C86.6423796,160.2718 86.8768221,159.886044 87.3036756,159.603966 C87.7197876,159.325157 88.254522,159.204666 88.8920001,159.248566 L95.1107974,159.680556 L95.1107974,159.680556 C95.7669562,159.726324 96.2820758,159.920603 96.6416788,160.261992 C97.0064191,160.607585 97.1750122,161.017159 97.1413869,161.479506 L96.6963198,167.892582" id="path20" fill="#CBA569"></path>
                        <path d="M114.380382,161.8718 C114.152478,162.07682 107.984586,167.618443 107.984586,167.618443 L106.596144,167.755746 L105.800815,159.711847 L108.022881,159.490948 C108.022881,159.490948 108.493167,164.242378 108.522589,164.539867 C108.748625,164.335314 114.900172,158.813306 114.900172,158.813306 L116.306827,158.674602 L117.102157,166.718968 L114.880091,166.938466 C114.880091,166.938466 114.409337,162.169757 114.380382,161.8718" id="path22" fill="#CBA569"></path>
                        <path d="M132.570224,163.355046 C132.570224,163.355046 129.025566,160.4049 128.863511,160.268998 C128.785052,160.467013 127.108462,164.760299 127.108462,164.760299 L124.636541,165.397311 C124.636541,165.397311 127.420429,159.276587 127.442379,159.224748 C127.429302,159.170107 126.741853,156.508111 126.741853,156.508111 L128.901806,155.951893 C128.901806,155.951893 129.591123,158.615291 129.6042,158.668998 C129.649501,158.702156 135.023931,162.719903 135.023931,162.719903 L132.570224,163.355046" id="path24" fill="#CBA569"></path>
                        <path d="M65.5019248,169.45055 L56.313834,163.8272 L59.9121993,155.9164 L52.9078796,155.9164 L48.3297127,163.904724 C56.1377686,167.336365 65.5019248,169.45055 65.5019248,169.45055" id="path26" fill="#00A363"></path>
                        <path d="M134.323406,169.45055 L143.510563,163.8272 L139.913131,155.9164 L146.916517,155.9164 L151.495618,163.904724 C143.685694,167.336365 134.323406,169.45055 134.323406,169.45055" id="path28" fill="#00A363"></path>
                        <path d="M166.990772,111.063628 C169.178279,110.252887 171.35271,109.401515 173.514532,108.508579 L172.399762,105.80315 C174.888028,105.80315 177.223113,105.80315 178.138933,105.80315 C179.116867,106.574195 182.079622,108.91068 184.812138,111.063628 L166.990772,111.063628" id="path30" fill="#00A363"></path>
                        <path d="M32.837127,111.063628 C30.651628,110.252887 28.4761697,109.401515 26.3143951,108.508579 L27.4290244,105.80315 C24.9388902,105.80315 22.604693,105.80315 21.6889195,105.80315 C20.7120135,106.574195 17.7493983,108.91068 15.015668,111.063628 L32.837127,111.063628" id="path32" fill="#00A363"></path>
                        <polyline id="path34" fill="#FFFFFF" points="97.4113227 146.989372 99.6394604 152.056038 89.8461157 152.056038 89.8461157 137.628018 82.3948608 152.056038 71.6287198 152.056038 73.8568575 146.989372 73.8568575 128.193809 71.6287198 123.125741 81.4206635 123.125741 81.4206635 137.55563 88.8728524 123.126675 88.8728524 123.125741 88.8728524 123.125741 99.6394604 123.125741 97.4113227 128.193809 97.4113227 146.989372"></polyline>
                        <polyline id="path36" fill="#FFFFFF" points="185.520135 146.42755 187.99766 152.056038 177.633621 152.056038 177.633621 133.767656 170.504608 152.056038 159.493283 152.056038 161.966604 146.426616 161.966604 120.562752 159.493283 114.932863 169.856855 114.932863 169.856855 133.221246 176.984467 114.932863 187.99766 114.932863 185.520135 120.55995 185.520135 146.42755"></polyline>
                        <polyline id="path38" fill="#FFFFFF" points="120.843897 146.265962 126.435023 144.243779 126.435023 152.056038 102.234206 152.056038 102.234206 144.243779 107.823932 146.265962 110.064212 146.265962 110.064212 128.193809 107.836541 123.125741 120.83082 123.125741 118.603616 128.193809 118.603616 146.265962 120.843897 146.265962"></polyline>
                        <path d="M51.8888487,132.693984 L54.9436063,141.781666 L57.99743,132.693984 L51.8888487,132.693984 Z M61.1638047,149.183884 L62.4270854,152.056038 L47.4605943,152.056038 L48.723875,149.183884 L39.9645991,123.125741 L50.902976,123.125741 L49.6387612,125.997895 L50.0511371,127.226617 L59.8356085,127.226617 L60.2489185,125.997895 L58.9856378,123.125741 L69.9213059,123.125741 L61.1638047,149.183884 L61.1638047,149.183884 Z" id="path40" fill="#FFFFFF"></path>
                        <path d="M37.8603143,127.865029 L29.3244593,127.865029 L29.3244593,121.939051 C29.3244593,121.310446 27.8732509,120.799997 26.0845294,120.799997 C24.2939865,120.799997 22.8437122,121.310446 22.8437122,121.939051 L22.8437122,145.048916 C22.8437122,145.677521 24.2939865,146.188438 26.0836421,146.188438 C27.8732509,146.188438 29.3244593,145.680323 29.3244593,145.051718 L29.3244593,139.123873 L37.8603143,139.123873 L37.8603143,146.426616 L40.3367649,152.056038 L11.8304726,152.056038 L14.3069699,146.426616 L14.3069699,120.562752 L11.8304726,114.932863 L40.3367649,114.932863 L37.8603143,120.562752 L37.8603143,127.865029" id="path42" fill="#FFFFFF"></path>
                        <path d="M145.95166,129.80922 C145.95166,129.180616 144.499237,128.670633 142.709629,128.670633 C140.92002,128.670633 139.469932,129.180616 139.469932,129.80922 L139.469932,145.37396 C139.469932,146.003032 140.92002,146.51208 142.709629,146.51208 C144.499237,146.51208 145.95166,146.003032 145.95166,145.37396 L145.95166,129.80922 Z M154.162752,146.989372 L156.391823,152.056038 L129.027434,152.056038 L131.256973,146.989372 L131.256973,128.193809 L129.027434,123.125741 L156.391823,123.125741 L154.162752,128.193809 L154.162752,146.989372 L154.162752,146.989372 Z" id="path44" fill="#FFFFFF"></path>
                        <path d="M70.863279,116.222764 C70.863279,116.222764 71.5311132,112.245648 71.5838861,111.937417 C71.303209,112.096203 65.5757135,115.335899 65.5757135,115.335899 L64.4791578,115.153762 L65.6284864,108.291416 L67.3737286,108.583301 C67.3737286,108.583301 66.7096306,112.547808 66.6573247,112.856039 C66.9375348,112.698187 72.6496187,109.468298 72.6496187,109.468298 L73.760185,109.652303 L72.6103893,116.51465 L70.863279,116.222764" id="path46" fill="#CBA569"></path>
                        <path d="M84.5520119,115.091649 L84.6767054,113.570108 C84.6767054,113.570108 86.7227065,113.737767 86.8707509,113.750844 C86.8824263,113.617744 86.9580831,112.680908 86.9692915,112.547808 C86.8165769,112.535666 82.4532379,112.17653 82.3009904,112.163453 C82.2888479,112.3143 81.9913581,115.920604 81.9787487,116.071918 C82.1356664,116.08406 88.1559815,116.580032 88.1559815,116.580032 L88.0298869,118.102507 L81.7737283,117.587388 C81.2945689,117.550026 80.9022747,117.369291 80.608054,117.052653 C80.3124323,116.733214 80.1774644,116.382951 80.2073535,116.01214 L80.5450067,111.940219 L80.6472834,111.466664 C80.884061,110.853938 81.4542887,110.580266 82.3434889,110.654054 L88.8574409,111.191124 L88.5090462,115.419028 L84.5520119,115.091649" id="path48" fill="#CBA569"></path>
                        <path d="M133.000814,113.999764 C132.976996,113.851252 132.38622,110.281842 132.360534,110.132397 C132.20922,110.157615 127.889314,110.872151 127.738,110.896436 C127.763219,111.046349 128.354463,114.616226 128.380149,114.765204 C128.531462,114.740452 132.851369,114.02545 133.000814,113.999764 L133.000814,113.999764 Z M133.329127,115.494685 L128.551544,116.286278 C128.073318,116.365671 127.650201,116.286278 127.289197,116.051836 C126.92399,115.816926 126.708695,115.510096 126.647049,115.140686 L125.981083,111.107528 L125.964737,110.623698 C126.045064,109.972677 126.531696,109.568707 127.412957,109.422531 L132.192875,108.632805 C132.787387,108.533331 133.252536,108.59918 133.575712,108.83082 C133.848917,109.026033 134.022647,109.340336 134.093634,109.765788 L134.761468,113.796144 C134.82685,114.183301 134.717568,114.548976 134.442028,114.881959 C134.170224,115.21214 133.794276,115.418094 133.329127,115.494685 L133.329127,115.494685 Z" id="path50" fill="#CBA569"></path>
                        <path d="M148.412372,110.567189 C148.374077,110.42148 147.482075,106.913249 147.443779,106.766606 C147.295735,106.804901 143.051018,107.884644 142.902974,107.922005 C142.941269,108.069116 143.833271,111.575479 143.869699,111.722122 C144.019611,111.684761 148.262927,110.605485 148.412372,110.567189 L148.412372,110.567189 Z M148.864912,112.027551 L144.169057,113.223582 C143.700172,113.34127 143.27145,113.298304 142.8941,113.094685 C142.510679,112.892467 142.268298,112.606185 142.175361,112.242846 L141.169874,108.281609 C141.168006,108.280674 141.113365,107.798246 141.113365,107.798246 C141.137183,107.143021 141.587854,106.699822 142.45417,106.480791 L147.150026,105.287096 C147.735665,105.137184 148.20455,105.163804 148.543604,105.366489 C148.833621,105.537884 149.034439,105.836775 149.140452,106.253821 L150.145472,110.215993 C150.245881,110.596611 150.16929,110.969758 149.919436,111.324224 C149.676587,111.67542 149.32072,111.911731 148.864912,112.027551 L148.864912,112.027551 Z" id="path52" fill="#CBA569"></path>
                        <path d="M163.773026,105.743839 L164.26713,107.190657 L159.13368,108.950844 C158.668531,109.110564 158.230469,109.104959 157.834906,108.935432 C157.433271,108.764037 157.168939,108.497837 157.050317,108.143839 L156.607118,106.85674 C156.607118,106.855806 156.539401,106.45744 156.539401,106.45744 C156.536132,106.43082 156.536132,106.4042 156.536132,106.378982 C156.536132,106.08803 156.636073,105.809688 156.835022,105.555164 C157.046581,105.28336 157.35668,105.076471 157.756447,104.938701 C157.756447,104.938701 161.215174,103.752945 161.749908,103.568474 C161.707877,103.442379 161.402915,102.554113 161.359482,102.427551 C161.211438,102.478456 155.892115,104.303558 155.892115,104.303558 L155.403148,102.877289 L160.945238,100.976063 C161.436073,100.80747 161.879272,100.806536 162.264094,100.972327 C162.621829,101.117569 162.873551,101.390307 163.008519,101.780733 L163.44985,103.072502 C163.501222,103.218211 163.526441,103.362519 163.526441,103.506361 C163.526441,103.741737 163.45919,103.975246 163.32609,104.20315 C163.114532,104.569291 162.775011,104.832689 162.322471,104.989606 C162.322471,104.989606 158.863744,106.175362 158.327608,106.3589 C158.371041,106.485461 158.668531,107.35458 158.71243,107.481609 C158.860008,107.42977 163.773026,105.743839 163.773026,105.743839" id="path54" fill="#CBA569"></path>
                        <path d="M43.1497946,106.040394 C42.7147216,106.212724 42.2996837,106.233739 41.9165897,106.102508 C41.9165897,106.102508 40.5757375,105.64343 40.2336943,105.526676 C40.4608046,105.87974 42.9162861,109.700873 42.9162861,109.700873 L40.4872845,108.870984 C40.4872845,108.870984 37.8329471,104.743488 37.8028245,104.696787 C37.7635951,104.684177 37.5109389,104.597312 37.4088023,104.561819 C37.359532,104.706127 36.4127487,107.477872 36.4127487,107.477872 L34.738026,106.907645 L36.9873663,100.322239 L38.6602676,100.893868 C38.6602676,100.893868 37.9050078,103.104259 37.9013651,103.115934 C38.0417971,103.164504 42.1902149,104.580032 42.3343364,104.628602 C42.3836066,104.487096 43.0950602,102.410272 43.0950602,102.410272 L44.7688489,102.981901 L43.9835132,105.282426 C43.8676463,105.611673 43.587623,105.866197 43.1497946,106.040394" id="path56" fill="#CBA569"></path>
                        <path d="M117.687796,116.083126 C117.675187,115.94162 117.545356,114.396728 117.532747,114.255222 C117.381433,114.267831 113.27869,114.609221 113.125041,114.62183 C113.138117,114.763336 113.265613,116.308228 113.276821,116.449734 C113.430003,116.437125 117.536483,116.095736 117.687796,116.083126 L117.687796,116.083126 Z M117.488847,112.725274 C118.088964,112.675304 118.545239,112.780382 118.847866,113.037242 C119.107061,113.256273 119.254638,113.587388 119.291532,114.021713 L119.457323,116.022881 C119.488146,116.414241 119.351311,116.770108 119.050552,117.079273 C118.749326,117.385636 118.3589,117.561702 117.891883,117.599063 L111.640394,118.117919 L111.065496,111.185987 L112.828018,111.038876 C112.828018,111.038876 112.986804,112.950844 112.999413,113.097487 C113.139985,113.086746 114.385987,112.982601 114.435023,112.978865 C114.473319,112.945239 117.080207,110.685812 117.080207,110.685812 L119.767423,110.463512 C119.767423,110.463512 117.377697,112.481025 117.045648,112.762169 C117.249734,112.744422 117.488847,112.725274 117.488847,112.725274 L117.488847,112.725274 Z" id="path58" fill="#CBA569"></path>
                        <path d="M56.3311136,109.925975 C56.1835362,109.88768 51.9392865,108.807003 51.7912421,108.769641 C51.7566829,108.907411 51.374663,110.410272 51.3391698,110.547108 C51.4867471,110.584469 55.7309969,111.666547 55.8785742,111.703908 C55.9136005,111.566138 56.2965543,110.062811 56.3311136,109.925975 L56.3311136,109.925975 Z M56.8046687,113.045648 C56.3848205,113.251603 55.9729116,113.304842 55.5796834,113.204434 L50.8838283,112.008404 C50.4906,111.907995 50.1534138,111.663745 49.883011,111.282659 C49.6112072,110.895502 49.5173368,110.529828 49.6032679,110.193576 L50.9650892,104.849034 L52.6799753,105.286162 C52.6799753,105.286162 52.2054861,107.143955 52.1690588,107.288264 C52.3166362,107.326559 56.5608859,108.407236 56.7089303,108.444597 C56.7462916,108.300756 57.2189128,106.442496 57.2189128,106.442496 L58.9342659,106.879624 L57.5724446,112.223698 C57.4869805,112.560418 57.2287201,112.836892 56.8046687,113.045648 L56.8046687,113.045648 Z" id="path60" fill="#CBA569"></path>
                        <path d="M102.152011,116.904142 C102.152011,116.761702 102.152011,115.211206 102.152011,115.068765 C101.99883,115.068765 97.6191453,115.068765 97.4668977,115.068765 C97.4668977,115.211206 97.4668977,116.761702 97.4668977,116.904142 C97.6191453,116.904142 101.99883,116.904142 102.152011,116.904142 Z M103.379799,117.974078 C103.024399,118.277639 102.63911,118.431754 102.232338,118.431754 L97.3865708,118.431754 C96.9807331,118.431754 96.5940431,118.277639 96.2391103,117.974078 C95.8799743,117.667247 95.6973706,117.336133 95.6973706,116.988672 L95.6973706,111.47507 L97.4668977,111.47507 C97.4668977,111.47507 97.4668977,113.392175 97.4668977,113.540219 C97.6191453,113.540219 101.99883,113.540219 102.152011,113.540219 C102.152011,113.392175 102.152011,111.47507 102.152011,111.47507 L103.921539,111.47507 L103.921539,116.988672 C103.921539,117.336133 103.739402,117.667247 103.379799,117.974078 L103.379799,117.974078 Z" id="path62" fill="#CBA569"></path>
                        <path d="M117.561702,105.733097 C116.766372,103.776296 116.417977,102.223932 116.254054,100.941504 C118.716635,99.5834184 120.610388,97.2408616 121.133914,94.5690578 C121.810622,91.1234069 120.774311,88.1284275 118.140336,85.9044929 C117.127843,85.050786 115.954696,84.3722104 114.746991,83.8468164 C115.888847,83.0785735 117.014825,82.2229985 118.088964,81.3165187 C119.213073,84.3100971 121.287096,88.7271431 122.133797,88.7444228 C124.625333,88.7943936 127.442379,87.8799745 130.10204,86.6087544 C130.67507,89.1185033 130.392057,91.3760631 130.085694,92.9429049 C129.259074,97.1479252 127.050084,100.878456 123.625916,103.481609 C121.779798,104.886396 119.732863,105.898888 117.776996,106.569524 C117.736833,106.283243 117.669583,106.002099 117.561702,105.733097" id="path64" fill="#CBA569"></path>
                        <path d="M95.2504354,98.0600092 C97.8582579,99.2476332 102.27437,100.600581 106.103442,101.422064 C107.606769,103.966372 109.272151,106.000231 110.686279,107.494218 C105.507061,107.008053 98.5643875,104.565555 93.4608266,101.566372 C93.4533543,101.561702 93.4472831,101.557966 93.4407449,101.554697 C94.0828932,100.481025 94.6960864,99.3162847 95.2504354,98.0600092" id="path66" fill="#CBA569"></path>
                        <path d="M76.8616443,94.5218891 C79.5469916,94.3182697 81.8344405,94.3439556 83.8159932,94.5218891 C83.7510779,95.3438388 83.7492098,96.1844693 83.6380598,96.9181529 C83.5778146,97.3057769 83.5549308,97.7181528 83.5395192,98.1669561 C79.9481591,97.5710425 76.9699922,97.6046677 75.8739035,97.6224144 C70.8553397,97.7041423 65.4304712,100.38155 64.4263848,105.206769 C64.3946277,105.360885 64.2951531,105.594393 64.0112068,105.607003 C63.7823685,105.615409 63.6053691,105.48838 63.5418548,105.215642 C63.4339739,104.742554 63.4951531,104.013541 63.851954,103.093051 C64.9629873,100.196145 68.5875056,95.1486258 76.8616443,94.5218891" id="path68" fill="#CBA569"></path>
                        <path d="M117.561702,105.733097 C117.385169,105.299705 117.237125,104.891066 117.102157,104.495969 C118.902974,103.873903 120.757965,102.947341 122.436424,101.613074 C125.590657,99.0991219 128.741153,93.1063608 126.358432,88.0826598 C127.60817,87.7067112 128.870516,87.1976627 130.100172,86.6087544 C130.673202,89.1185033 130.392057,91.3760631 130.085694,92.9429049 C129.259074,97.1479252 127.050084,100.878456 123.625916,103.481609 C121.779798,104.886396 119.732863,105.898888 117.776996,106.569524 C117.736833,106.283243 117.669583,106.002099 117.561702,105.733097" id="path70" fill="#FFFFFF"></path>
                        <path d="M63.5553983,105.089081 C63.8318723,105.068999 63.9304129,104.833623 63.9631041,104.680441 C64.955515,99.8332725 70.0833608,96.7374173 76.1657891,96.5333309 C78.3766472,96.4581412 80.9415041,96.5613519 83.6296535,96.9872714 C83.5759465,97.3557477 83.5539967,97.7452398 83.5395192,98.1669561 C79.9481591,97.5710425 76.9699922,97.6046677 75.8739035,97.6224144 C70.8553397,97.7041423 65.4304712,100.38155 64.4263848,105.206769 C64.3946277,105.360885 64.2951531,105.594393 64.0112068,105.607003 C63.7823685,105.615409 63.6053691,105.48838 63.5418548,105.215642 C63.574546,105.189489 63.5287783,105.129244 63.519905,105.085345 C63.5325145,105.083477 63.5418548,105.089081 63.5553983,105.089081" id="path72" fill="#FFFFFF"></path>
                        <path d="M94.0361915,100.51932 C98.7684739,103.051486 104.253588,105.016226 108.923757,105.480441 C109.533214,106.235607 110.127726,106.906244 110.686279,107.494218 C105.507061,107.008053 98.5643875,104.565555 93.4608266,101.566372 C93.4533543,101.561702 93.4472831,101.557966 93.4407449,101.554697 C93.6415622,101.217978 93.8419124,100.873786 94.0361915,100.51932" id="path74" fill="#FFFFFF"></path>
                        <path d="M92.0817257,83.0295367 C92.5104472,96.9181529 85.0661975,108.368941 85.0661975,108.368941 C92.2255669,102.072619 95.6618774,88.4800912 95.6618774,88.4800912 C97.2333893,90.0548722 99.8122567,89.8307041 99.8122567,89.8307041 C99.8122567,89.8307041 102.387388,90.0548722 103.961702,88.4800912 C103.961702,88.4800912 107.398947,102.072619 114.557382,108.368941 C114.557382,108.368941 107.112198,96.9181529 107.539519,83.0295367 C107.539519,83.0295367 108.438526,84.7677737 109.909162,86.761936 C111.720721,84.5599512 115.929011,79.0762385 112.83876,74.9534132 C110.24308,71.4942189 107.727259,68.7687081 106.835257,65.7914753 C105.831638,68.6374764 104.821013,70.640512 103.936483,72.0452988 C105.100289,72.0910665 107.085111,72.1727945 107.380733,72.2330396 C108.066314,72.3717437 109.788672,74.394861 110.399997,75.859893 L108.411439,75.555398 C111.779098,80.9769974 111.570809,76.5805001 111.570809,76.5805001 C112.579565,78.4084043 110.768474,82.622298 105.107295,75.5441896 C103.206536,73.5248084 102.325275,75.7977798 102.325275,75.7977798 L100.855105,71.30461 L102.763337,73.070401 C102.834323,72.8462329 102.907645,72.6089883 102.986104,72.3591342 C102.994977,72.3315802 103.002449,72.3026252 103.011323,72.2732031 C103.885111,69.398247 104.999881,65.0965541 104.5819,64.1662564 C104.193342,63.3069453 103.53298,63.3106814 102.962286,63.1682413 C102.962286,63.1682413 102.389256,63.9252757 99.8122567,63.9252757 C97.2333893,63.9252757 96.6617606,63.1682413 96.6617606,63.1682413 C96.0905989,63.3106814 95.432105,63.3069453 95.043547,64.1662564 C94.6400443,65.0708682 95.679157,69.152129 96.535666,72.0163438 L96.535666,72.0163438 C96.5814337,72.1657892 96.6215971,72.3082294 96.6659637,72.4502025 C96.6869795,72.5160519 96.7070612,72.5800332 96.7252749,72.6435475 C96.7598341,72.7621698 96.7967285,72.877056 96.8331558,72.988673 C96.8429631,73.01576 96.8513694,73.043314 96.8602428,73.072269 L98.7694079,71.30461 L97.3011067,75.7977798 C97.3011067,75.7977798 96.4217139,73.5248084 94.5134828,75.5441896 C88.8555728,82.622298 87.0449482,78.4084043 88.0509026,76.5805001 C88.0509026,76.5805001 87.8458822,80.9769974 91.2126072,75.555398 L89.2259172,75.859893 C89.8377094,74.394861 91.5563316,72.3717437 92.2405114,72.2330396 C92.5384682,72.1727945 94.5260922,72.0910665 95.6884973,72.0452988 C94.8016322,70.640512 93.7928756,68.6374764 92.7878552,65.7896072 C91.899122,68.7687081 89.3819009,71.4942189 86.7838857,74.9534132 C83.6936348,79.0762385 87.9014572,84.556215 89.7153509,86.761936 C91.1831851,84.7677737 92.0817257,83.0295367 92.0817257,83.0295367" id="path76" fill="#CBA569"></path>
                        <path d="M74.7255089,16.2749792 C72.9541138,9.37919416 65.9353165,11.6960184 65.9353165,11.6960184 C65.9353165,11.6960184 70.6316386,12.9237592 70.4191459,14.7498887 C68.9050771,27.6931692 60.4684165,45.998411 58.3495607,50.3089304 C49.1525966,69.0040847 38.7505419,76.3451236 35.4166483,76.8999397 C29.0225328,77.9689414 25.6667828,74.7306461 24.7500753,72.105544 C21.2027549,70.2575581 18.3805716,72.4796246 18.1096551,73.8423799 C17.7748974,75.5114984 18.3103323,76.5968457 19.1039341,77.1642713 C19.6420777,76.9415042 20.231313,76.7518953 20.8835021,76.6094552 C21.5375126,76.465614 26.6509742,76.3469917 27.164506,79.6105059 C25.5682422,78.1692917 23.1793573,78.5288947 22.3018792,78.6876805 C19.0993574,79.2784569 18.0722938,83.3214223 18.9443078,84.857441 C20.2987969,87.2340901 22.5299235,87.1794491 24.4162516,86.3785151 C24.8677168,85.3207217 25.4286976,84.417511 26.0042492,83.7954445 C30.6671329,78.7768807 36.849643,80.8345572 37.6997539,82.6040843 C33.8240739,80.6743704 30.772959,83.7884392 30.1034435,84.6019827 C27.1389602,88.2050182 28.2855334,92.0765885 29.1739864,92.8700502 C33.4254749,96.6837104 40.9305769,89.6256837 42.6709155,87.4605933 C66.0179785,58.4013996 70.7950946,28.7093046 71.4718021,21.6201279 C72.4333899,32.9690126 69.0437811,46.1768582 64.2979552,57.9273774 C63.5507281,63.2121409 62.6844117,75.0262678 62.9889068,77.7606519 C63.106595,78.8044347 69.8666649,83.3779314 75.4241662,84.3722104 C76.1667231,84.5053102 77.5392859,81.5150009 78.4350243,78.4705176 C75.2625784,75.2742538 73.04238,72.105544 73.0288365,70.75353 C72.961119,61.1708099 74.3234074,52.7462917 76.1536467,45.7937642 C74.8240495,44.9946982 73.1180367,44.547763 73.1180367,44.547763 C75.1831855,30.4901802 75.1075288,17.7652301 74.7255089,16.2749792" id="path78" fill="#CBA569"></path>
                        <path d="M112.828018,24.9877869 C112.828018,24.9877869 112.278806,14.5820428 111.454054,12.3256039 C111.280791,11.8491065 109.58085,10.461179 109.58085,10.461179 C109.58085,10.461179 110.08803,12.9752244 109.478573,14.1206768 C109.478573,14.1206768 108.157849,9.31936929 105.131112,7.25608855 C104.7589,7.00049019 104.374078,7.13004069 104.664095,8.02008153 C104.950844,8.90890813 106.399063,13.1684293 105.88301,15.1986453 C105.88301,15.1986453 104.556682,14.4215291 103.372794,14.1841911 C103.05709,14.1206768 102.980499,14.5018093 103.469466,15.13826 C103.956565,15.771675 105.470634,17.9974777 105.756915,18.8875652 C106.045064,19.7757847 106.335082,20.6023579 106.645181,20.7939283 C106.957149,20.9834904 109.339869,23.8459772 109.628018,24.7341967 C109.9143,25.6209684 114.23981,36.8733674 113.60887,42.3389131 C113.60887,42.3389131 109.162869,46.7241086 108.132163,49.0120245 C108.132163,49.0120245 109.14092,51.1738458 108.62113,52.4431978 C108.62113,52.4431978 107.916868,49.938586 106.324341,48.7182708 C105.740569,48.2675995 103.98552,46.7114991 106.795094,43.5881834 C104.098538,41.4977223 101.475304,40.807985 99.8122567,40.807985 C98.1501435,40.807985 95.5250414,41.4977223 92.8289527,43.5881834 C95.6371255,46.7114991 93.8802078,48.2675995 93.3011068,48.7182708 C91.7076451,49.938586 91.0033836,52.4431978 91.0033836,52.4431978 C90.4826597,51.1738458 91.4923503,49.0120245 91.4923503,49.0120245 C90.461644,46.7241086 86.0123738,42.3389131 86.0123738,42.3389131 C85.383769,36.8733674 89.7074117,25.6209684 89.9955611,24.7341967 C90.2846446,23.8459772 92.6654968,20.9834904 92.9802662,20.7939283 C93.2875633,20.6023579 93.5775808,19.7757847 93.8657303,18.8875652 C94.1538797,17.9974777 95.6674816,15.771675 96.1545802,15.13826 C96.644948,14.5018093 96.5674232,14.1206768 96.2512527,14.1841911 C95.0678318,14.4215291 93.7429048,15.1986453 93.7429048,15.1986453 C93.2282522,13.1684293 94.6741366,8.90890813 94.962286,8.02008153 C95.2495014,7.13004069 94.8637454,7.00049019 94.4905989,7.25608855 C91.4675984,9.31936929 90.1478086,14.1206768 90.1478086,14.1206768 C89.5360164,12.9752244 90.0422628,10.461179 90.0422628,10.461179 C90.0422628,10.461179 88.3446563,11.8491065 88.1695249,12.3256039 C87.3415039,14.5820428 86.7960282,24.9877869 86.7960282,24.9877869 C75.2354914,46.9141845 75.8272018,69.6042014 76.5048434,70.7483929 C78.4350243,74.0156432 80.9690581,76.8102725 82.9702256,78.7511948 C82.5545805,75.7889065 84.0182116,74.3112649 85.3520119,72.6598931 C89.0661974,68.075655 90.270167,64.4562739 90.6157596,62.1795665 C88.9036755,60.3096307 90.792759,58.3140674 91.2233486,57.7737289 C91.7963783,57.058726 92.7985966,55.9859881 93.5135995,54.2659648 C93.9040257,53.3300629 94.3500268,52.6804423 94.822648,52.2447156 C94.6760046,51.9962626 94.5984798,51.6992398 94.5984798,51.3232912 C94.5984798,49.2908336 96.9326304,48.473554 99.8122567,48.473554 C102.690482,48.473554 105.023698,49.2908336 105.023698,51.3232912 C105.023698,51.6791581 104.950844,51.9691756 104.817277,52.2096893 C105.284294,52.6748381 105.724224,53.3408043 106.112782,54.2659648 C106.825917,55.9859881 107.827668,57.058726 108.402099,57.7737289 C108.832688,58.3140674 110.720838,60.3096307 109.005952,62.1814345 C109.354346,64.4562739 110.556448,68.0775231 114.2711,72.6598931 C115.606302,74.3112649 117.069466,75.7940436 116.651486,78.7511948 C118.652653,76.8121405 121.190423,74.0156432 123.120604,70.7483929 C123.795443,69.6042014 124.384819,46.9141845 112.828018,24.9877869" id="path80" fill="#CBA569"></path>
                        <path d="M126.508345,44.547763 C126.508345,44.547763 124.799063,44.9946982 123.467131,45.7937642 C125.300639,52.7462917 126.665262,61.1708099 126.590073,70.75353 C126.581199,72.1111482 124.359133,75.2742538 121.186687,78.4705176 C122.086162,81.5150009 123.454521,84.5053102 124.198479,84.3722104 C129.761118,83.3779314 136.517918,78.8044347 136.632805,77.7606519 C136.939635,75.0262678 136.069115,63.2121409 135.327025,57.9273774 C130.579798,46.1768582 127.192525,32.9690126 128.151777,21.6201279 C128.828485,28.7093046 133.608403,58.4013996 156.951777,87.4605933 C158.690481,89.6270847 166.19731,96.6837104 170.448098,92.8700502 C171.334497,92.0765885 172.485693,88.2050182 169.517334,84.6019827 C168.848099,83.7884392 165.798011,80.6743704 161.923172,82.6040843 C162.773142,80.8345572 168.95738,78.7768807 173.618676,83.7954445 C174.194975,84.417511 174.754928,85.3207217 175.2056,86.3785151 C177.093749,87.1794491 179.323288,87.2359581 180.680439,84.857441 C181.550492,83.3214223 180.521653,79.2784569 177.321653,78.6876805 C176.445997,78.5288947 174.054403,78.1692917 172.458139,79.6105059 C172.972792,76.3469917 178.08616,76.465614 178.740918,76.6094552 C179.392406,76.7518953 179.981782,76.9415042 180.519785,77.1642713 C181.315115,76.5968457 181.84985,75.5114984 181.515932,73.8423799 C181.244129,72.4796246 178.421945,70.2575581 174.871683,72.105544 C173.955863,74.7306461 170.599412,77.9689414 164.205016,76.8999397 C160.874252,76.3451236 150.470049,69.0040847 141.274019,50.3089304 C139.152361,45.9997186 130.718502,27.6931692 129.206301,14.7498887 C128.989139,12.9256272 133.686862,11.6997078 133.686862,11.6997078 C133.686862,11.6997078 126.667131,9.37919416 124.897136,16.2749792 C124.512314,17.7652301 124.43946,30.4901802 126.508345,44.547763" id="path82" fill="#CBA569"></path>
                        <path d="M106.399063,58.634908 C105.251603,57.3450073 104.702391,56.0210144 104.220896,55.1999986 C103.786571,54.4574417 101.050319,53.2917675 100.529128,54.3369514 C100.281142,54.8277861 101.064796,57.336134 101.661644,58.0441316 C103.055222,58.7297125 104.337651,59.2789244 104.735549,59.5016914 C106.196845,60.3189711 106.665263,61.9203721 106.64378,62.637243 L107.208871,61.8732034 C107.582951,60.9882063 107.532046,59.9103313 106.399063,58.634908" id="path84" fill="#FFFFFF"></path>
                        <path d="M92.4147087,61.8750714 L92.9821343,62.6428472 C92.9573824,61.9222401 93.4243993,60.3208391 94.8894314,59.5016914 C95.2877968,59.2789244 96.5683572,58.7297125 97.9614687,58.0441316 C98.5597173,57.336134 99.3396356,54.8277861 99.0958527,54.3369514 C98.5713927,53.2917675 95.8360747,54.4574417 95.402683,55.1999986 C94.9221226,56.0210144 94.3719766,57.3450073 93.2273182,58.634908 C92.0891979,59.9136004 92.0406282,60.9900744 92.4147087,61.8750714" id="path86" fill="#FFFFFF"></path>
                        <path d="M19.7487911,82.2939851 C21.2784583,84.5889062 23.7631284,84.6145922 25.9185049,83.8939851 C25.3748972,84.5104474 24.8458604,85.3734947 24.4162516,86.3785151 C22.5299235,87.1794491 20.2987969,87.2340901 18.9443078,84.857441 C18.4371274,83.9635706 18.5739633,82.2248666 19.4031052,80.8074703 C19.3848448,81.3931095 19.4997777,81.9203716 19.7487911,82.2939851" id="path88" fill="#FFFFFF"></path>
                        <path d="M73.815293,80.9550476 C74.4555732,81.0680657 75.5619362,78.8660809 76.4301207,76.3068282 C77.0405118,77.0129578 77.7125491,77.7405702 78.4350243,78.4705176 C77.5392859,81.5150009 76.1667231,84.5053102 75.4241662,84.3722104 C69.8666649,83.3779314 63.106595,78.8044347 62.9889068,77.7606519 C62.941271,77.3431388 62.9230574,76.7173361 62.9258595,75.9402199 C65.2637462,77.707879 69.8447151,80.2437808 73.815293,80.9550476" id="path90" fill="#FFFFFF"></path>
                        <path d="M77.9624032,67.5283112 C79.724925,70.3430222 81.9194375,72.8004652 83.8192624,74.6685329 C83.1490931,75.7323974 82.7203715,76.9746624 82.9702256,78.7511948 C80.9690581,76.8102725 78.4350243,74.0156432 76.5048434,70.7483929 C76.0560401,69.9927595 75.6464663,59.8370096 78.7516618,46.7171033 C76.8387605,58.2500861 77.5276104,66.8371262 77.9624032,67.5283112" id="path92" fill="#FFFFFF"></path>
                        <path d="M121.661176,67.5283112 C119.900522,70.3430222 117.700406,72.8004652 115.803383,74.6685329 C116.476354,75.7323974 116.905076,76.9746624 116.655222,78.7511948 C118.654521,76.8102725 121.190423,74.0156432 123.120604,70.7483929 C123.565671,69.9927595 123.974311,59.8370096 120.872852,46.7171033 C122.782951,58.2500861 122.095035,66.8371262 121.661176,67.5283112" id="path94" fill="#FFFFFF"></path>
                        <path d="M19.1039341,77.1642713 C19.6420777,76.9415042 20.231313,76.7518953 20.8835021,76.6094552 C21.0294449,76.5748959 21.4052534,76.5478089 21.8996375,76.5566823 C21.0322003,75.9201382 20.2230935,74.8035008 19.8956679,73.1217728 C19.816275,72.7238744 19.8838057,72.2512533 20.1018092,71.8136584 C18.9753177,72.3189708 18.2392056,73.18015 18.1096551,73.8423799 C17.7748974,75.5114984 18.3103323,76.5968457 19.1039341,77.1642713" id="path96" fill="#FFFFFF"></path>
                        <path d="M179.873901,82.2939851 C178.347223,84.5907743 175.862226,84.6145922 173.706009,83.8939851 C174.249616,84.5104474 174.776878,85.3734947 175.2056,86.3785151 C177.093749,87.1794491 179.323288,87.2359581 180.680439,84.857441 C181.18762,83.9649716 181.047047,82.2267347 180.219026,80.8074703 C180.238641,81.3931095 180.121887,81.9203716 179.873901,82.2939851" id="path98" fill="#FFFFFF"></path>
                        <path d="M180.519785,77.1642713 C179.981782,76.9415042 179.392406,76.7518953 178.740918,76.6094552 C178.593341,76.5786321 178.217392,76.5478089 177.72142,76.5566823 C178.591472,75.9201382 179.399879,74.8035008 179.728192,73.1217728 C179.80665,72.7238744 179.737065,72.2512533 179.519902,71.8136584 C180.647281,72.3189708 181.380965,73.18015 181.515932,73.8423799 C181.84985,75.5114984 181.315115,76.5968457 180.519785,77.1642713" id="path100" fill="#FFFFFF"></path>
                        <path d="M99.8122567,52.009339 C98.0955025,52.009339 96.7042591,52.2391114 96.7042591,51.7011079 C96.7042591,51.1645054 98.0955025,50.7283116 99.8122567,50.7283116 C101.529945,50.7283116 102.918386,51.1645054 102.918386,51.7011079 C102.918386,52.2391114 101.529945,52.009339 99.8122567,52.009339" id="path102" fill="#FFFFFF"></path>
                        <path d="M103.961702,88.4800912 C102.387388,90.0548722 99.8122567,89.8307041 99.8122567,89.8307041 C99.8122567,89.8307041 97.2333893,90.0548722 95.6618774,88.4800912 C95.6618774,88.4800912 92.2241658,102.072619 85.0661975,108.368941 C85.0661975,108.368941 92.6262674,99.6044342 94.2360747,85.6088712 C95.3316964,86.597546 97.4150589,87.2691163 99.8122567,87.2691163 C102.208521,87.2691163 104.290015,86.6012821 105.384703,85.6107392 C106.995444,99.6044342 114.557382,108.368941 114.557382,108.368941 C107.398947,102.072619 103.961702,88.4800912 103.961702,88.4800912" id="path104" fill="#FFFFFF"></path>
                        <path d="M92.0891979,80.7799163 C90.6148255,82.3070616 89.5065944,82.6937516 88.6986551,82.5204883 C89.5467578,83.3214223 90.4537047,84.0163435 91.2396942,84.4941018 C90.848334,85.1292448 90.3332143,85.9227066 89.7153509,86.761936 C88.2596592,84.9924089 85.2707509,81.1194376 85.7358998,77.5290115 C85.6747206,78.4761218 86.2145921,79.5941603 87.0300037,80.6776395 C87.010389,80.6159933 86.9917083,80.5538801 86.9744286,80.4917668 C86.4018659,78.3318136 88.0509026,76.5805001 88.0509026,76.5805001 C87.0449482,78.4084043 88.8555728,82.622298 94.5134828,75.5441896 C96.4217139,73.5248084 97.3011067,75.7977798 97.3011067,75.7977798 C95.3900735,74.4312883 94.2398108,78.5489764 92.0891979,80.7799163" id="path106" fill="#FFFFFF"></path>
                        <path d="M109.909162,86.761936 C109.290832,85.9227066 108.772443,85.1292448 108.382017,84.4941018 C109.168474,84.0163435 110.074953,83.3214223 110.925391,82.5204883 C110.115117,82.6918835 109.00782,82.3051935 107.535782,80.7799163 C105.384703,78.5489764 104.235374,74.4312883 102.325275,75.7977798 C102.325275,75.7977798 103.206536,73.5248084 105.107295,75.5441896 C110.768474,82.622298 112.579565,78.4084043 111.570809,76.5805001 C111.570809,76.5805001 113.22545,78.3318136 112.647283,80.4917668 C112.630937,80.5538801 112.610855,80.6173944 112.590774,80.6813757 C113.408053,79.5960284 113.949793,78.4761218 113.88768,77.5290115 C114.352828,81.1194376 111.362986,84.9924089 109.909162,86.761936" id="path108" fill="#FFFFFF"></path>
                        <path d="M125.809687,80.9550476 C125.167539,81.0680657 124.061643,78.8660809 123.193459,76.3068282 C122.584002,77.0129578 121.912898,77.7405702 121.186687,78.4705176 C122.086162,81.5150009 123.454521,84.5053102 124.198479,84.3722104 C129.761118,83.3779314 136.517918,78.8044347 136.632805,77.7606519 C136.68044,77.3431388 136.698654,76.7192042 136.694918,75.9402199 C134.357965,77.709747 129.775595,80.2437808 125.809687,80.9550476" id="path110" fill="#FFFFFF"></path>
                        <path d="M28.2025445,89.3127824 C28.1186216,91.0603597 28.6850664,92.4319883 29.1739864,92.8700502 C33.4254749,96.6837104 40.9323983,89.6270847 42.6709155,87.4605933 C61.5761806,63.9271438 68.3040263,39.9780959 70.5396363,27.956053 C67.8753048,39.879602 58.9473424,62.6666651 41.5617503,83.6403949 C38.6885221,87.1047264 32.3947219,92.50531 28.2025445,89.3127824" id="path112" fill="#FFFFFF"></path>
                        <path d="M171.420428,89.3127824 C171.504024,91.0603597 170.937065,92.4319883 170.448098,92.8700502 C166.19731,96.6837104 158.690481,89.6270847 156.951777,87.4605933 C138.046932,63.9271438 131.318619,39.9780959 129.082075,27.956053 C131.747341,39.879602 140.67577,62.6666651 158.060942,83.6403949 C160.932629,87.1047264 167.226149,92.50531 171.420428,89.3127824" id="path114" fill="#FFFFFF"></path>
                        <path d="M148.430586,6.64840614 L149.48511,6.64840614 L150.470049,3.98131922 L150.497603,3.98131922 L151.480673,6.64840614 L152.535198,6.64840614 L152.535198,3.16969519 L151.844013,3.16969519 L151.844013,6.07542308 L151.827667,6.07542308 L150.761934,3.16969519 L150.203849,3.16969519 L149.140452,6.07542308 L149.122238,6.07542308 L149.122238,3.16969519 L148.430586,3.16969519 L148.430586,6.64840614 Z M145.940452,6.09181538 L144.840627,6.09181538 L144.840627,6.64840614 L147.730061,6.64840614 L147.730061,6.09181538 L146.632104,6.09181538 L146.632104,3.16969519 L145.940452,3.16969519 L145.940452,6.09181538 L145.940452,6.09181538 Z" id="path116" fill="#18468B"></path>
                    </g>
                </g>
            </g>
        </g>
    </g>
</svg>