<svg width="200" height="200" viewBox="0 0 200 200" fill="none" xmlns="http://www.w3.org/2000/svg">
<g clip-path="url(#clip0_11_241797)">
<path d="M14.4461 171.738H13.1982V171.068H16.506V171.738H15.2472V175.447H14.4461V171.738Z" fill="#B6B8B9"/>
<path d="M20.6913 173.661C20.6641 173.094 20.6314 172.413 20.6368 171.825H20.615C20.4733 172.359 20.2881 172.947 20.0973 173.503L19.4598 175.398H18.844L18.2609 173.53C18.092 172.969 17.934 172.375 17.8195 171.831H17.8086C17.7868 172.403 17.765 173.094 17.7323 173.693L17.6342 175.452H16.8877L17.182 171.079H18.2337L18.8058 172.838C18.9639 173.35 19.1001 173.873 19.2091 174.358H19.2309C19.3453 173.884 19.4979 173.345 19.6668 172.833L20.2717 171.079H21.3125L21.5686 175.452H20.7894L20.7077 173.666L20.6913 173.661Z" fill="#B6B8B9"/>
<path d="M126.179 8.41063C125.165 8.43787 124.359 9.06963 123.993 9.95737C121.727 10.3822 119.307 11.2154 117.046 13.3558C113.247 16.3621 111.04 19.7443 109.46 24.9835C108.659 27.6468 108.245 30.3699 108.245 32.8969C108.245 33.8664 108.305 34.8086 108.43 35.7072C108.512 36.2954 108.779 36.8346 109.171 37.2485C109.52 39.732 110.261 42.5531 111.16 44.688C111.046 45.3852 110.937 46.0768 110.85 46.7576C110.545 46.4472 110.169 46.2184 109.727 46.1204C108.588 45.8644 107.482 46.311 106.948 47.3512L106.174 48.8653C105.411 50.7497 105.248 52.2311 105.553 54.2789C106.103 57.9605 108.016 60.6183 111.242 62.2031C110.959 62.5354 110.735 62.9221 110.588 63.3578C110.55 63.4667 110.517 63.5702 110.485 63.6791C110.359 63.6791 110.234 63.6954 110.109 63.7009C109.526 63.6355 108.883 63.5974 108.201 63.5974C106.883 63.5974 105.695 63.739 104.85 63.9623C104.501 63.5157 104.044 62.9874 103.7 62.7859C103.046 62.4047 99.0575 61.969 95.9459 61.4734C92.8344 60.9832 60.9887 55.7984 60.9887 55.7984C60.9887 55.7984 60.5527 55.8528 60.3348 55.9073C60.1168 55.9618 19.0945 64.0984 19.0945 64.0984C19.0945 64.0984 16.3644 64.6975 16.3644 67.9217C16.3644 71.1459 16.3099 150.901 16.3099 150.901V152.044L13.618 152.284C8.69181 153.074 6.8336 154.266 6.8336 154.266C4.48496 155.497 2.01642 157.414 1.417 160.203C1.417 160.203 1.01375 162.572 2.73573 164.522C4.1362 166.107 7.91801 168.16 14.1575 167.61C17.8303 167.288 20.0427 167.071 21.3669 166.923C35.9764 183.78 57.1088 190.62 58.0188 190.909L58.8308 191.165L60.1332 191.579L61.4464 191.208L62.2693 190.974C62.8251 190.816 65.9094 189.923 70.247 188.213C72.7646 188.093 77.5218 187.783 83.3689 186.977C83.3689 186.977 122.489 182.222 138.592 160.252C139.502 160.012 140.211 159.664 140.772 159.293C142.325 159.718 144.003 159.729 145.752 159.326C147.387 159.037 148.368 158.188 148.984 157.376C151.883 158.357 155.469 157.447 156.166 157.251C156.809 157.071 157.387 156.717 157.834 156.222C158.76 155.192 159.338 153.607 159.556 151.494C161.277 151.271 163.37 151.064 165.414 150.857C168.416 150.558 171.522 150.242 173.767 149.871V149.85C174.421 149.757 175.042 149.545 175.538 149.381C176.279 149.136 177.266 148.787 178.285 148.433C179.783 147.911 182.045 147.121 182.541 147.001C182.791 146.941 183.031 146.854 183.255 146.745C184.17 147.11 185.205 147.077 186.099 146.642C188.104 145.667 190.382 144.561 192.458 142.96C192.823 142.682 193.118 142.339 193.341 141.958C194.186 141.816 194.965 141.364 195.515 140.673C196.627 139.267 197.286 137.361 197.87 135.678C198 135.308 198.12 134.954 198.235 134.649C198.316 134.426 198.382 134.197 198.425 133.963C199.052 130.466 198.382 127.128 196.502 124.328C196.186 123.86 195.744 123.49 195.243 123.234C195.221 123.223 195.199 123.212 195.178 123.201C195.145 122.907 195.074 122.613 194.965 122.33L194.943 122.27C194.398 120.848 193.919 119.585 193.129 118.283C193.657 117.145 193.543 115.789 192.791 114.748C191.81 113.392 189.26 110.125 186.05 108.066C186.437 106.917 186.208 105.642 185.423 104.695C183.631 102.533 181.647 100.79 179.511 99.4881C179.375 98.0122 179.086 96.057 178.481 93.9983C177.369 90.2186 175.495 87.2668 173.004 85.3333C172.863 83.5579 172.432 81.9403 171.718 80.5025C170.705 78.4057 167.958 76.505 165.975 75.3722C165.828 74.4245 165.604 73.7219 165.283 73.1338C163.991 70.7211 161.91 69.4902 159.899 68.8258C160.106 68.2267 160.286 67.6167 160.438 67.0067C161.109 64.3108 161.637 61.054 161.877 58.0803C161.882 58.0095 161.882 57.9442 161.882 57.8734C161.882 57.6773 161.861 57.4867 161.817 57.2961C161.626 56.4846 161.457 55.3736 161.294 54.3007C161.294 54.3007 161.239 53.9684 161.196 53.6743C161.452 53.1134 161.599 52.4816 161.599 51.8117C161.599 51.3597 161.539 50.8968 161.414 50.4338C161.294 49.9818 161.109 49.5679 160.885 49.1866C160.934 48.9089 161 48.6366 161 48.3479C161 47.1824 160.591 45.8917 159.779 44.5573C159.697 44.4266 159.61 44.3014 159.506 44.187C159.016 43.6369 158.171 43.0052 157.256 42.5313C155.049 37.0688 150.406 30.0976 145.371 27.9027C145.398 27.6958 145.426 27.4997 145.426 27.4997C145.442 27.3908 145.447 27.2819 145.447 27.1784C145.447 26.5956 145.224 26.0782 144.864 25.6589C144.908 25.1524 144.968 24.6513 144.968 24.1285C144.968 22.6526 144.793 21.1439 144.445 19.766C144.254 19.009 143.709 18.4916 143.028 18.2139C142.15 14.3089 139.9 11.6185 136.129 10.0227C134.347 9.27114 131.704 8.60125 129.661 8.44331C127.508 8.27448 126.184 8.40519 126.184 8.40519L126.179 8.41063Z" fill="white" stroke="white" stroke-width="5" stroke-miterlimit="10"/>
<path d="M126.179 8.41063C125.165 8.43787 124.359 9.06963 123.993 9.95737C121.727 10.3822 119.307 11.2154 117.046 13.3558C113.247 16.3621 111.04 19.7443 109.46 24.9835C108.659 27.6468 108.245 30.3699 108.245 32.8969C108.245 33.8664 108.305 34.8086 108.43 35.7072C108.512 36.2954 108.779 36.8346 109.171 37.2485C109.52 39.732 110.261 42.5531 111.16 44.688C111.046 45.3852 110.937 46.0768 110.85 46.7576C110.545 46.4472 110.169 46.2184 109.727 46.1204C108.588 45.8644 107.482 46.311 106.948 47.3512L106.174 48.8653C105.411 50.7497 105.248 52.2311 105.553 54.2789C106.103 57.9605 108.016 60.6183 111.242 62.2031C110.959 62.5354 110.735 62.9221 110.588 63.3578C110.55 63.4667 110.517 63.5702 110.485 63.6791C110.359 63.6791 110.234 63.6954 110.109 63.7009C109.526 63.6355 108.883 63.5974 108.201 63.5974C106.883 63.5974 105.695 63.739 104.85 63.9623C104.501 63.5157 104.044 62.9874 103.7 62.7859C103.046 62.4047 99.0575 61.969 95.9459 61.4734C92.8344 60.9832 60.9887 55.7984 60.9887 55.7984C60.9887 55.7984 60.5527 55.8528 60.3348 55.9073C60.1168 55.9618 19.0945 64.0984 19.0945 64.0984C19.0945 64.0984 16.3644 64.6975 16.3644 67.9217C16.3644 71.1459 16.3099 150.901 16.3099 150.901V152.044L13.618 152.284C8.69181 153.074 6.8336 154.266 6.8336 154.266C4.48496 155.497 2.01642 157.414 1.417 160.203C1.417 160.203 1.01375 162.572 2.73573 164.522C4.1362 166.107 7.91801 168.16 14.1575 167.61C17.8303 167.288 20.0427 167.071 21.3669 166.923C35.9764 183.78 57.1088 190.62 58.0188 190.909L58.8308 191.165L60.1332 191.579L61.4464 191.208L62.2693 190.974C62.8251 190.816 65.9094 189.923 70.247 188.213C72.7646 188.093 77.5218 187.783 83.3689 186.977C83.3689 186.977 122.489 182.222 138.592 160.252C139.502 160.012 140.211 159.664 140.772 159.293C142.325 159.718 144.003 159.729 145.752 159.326C147.387 159.037 148.368 158.188 148.984 157.376C151.883 158.357 155.469 157.447 156.166 157.251C156.809 157.071 157.387 156.717 157.834 156.222C158.76 155.192 159.338 153.607 159.556 151.494C161.277 151.271 163.37 151.064 165.414 150.857C168.416 150.558 171.522 150.242 173.767 149.871V149.85C174.421 149.757 175.042 149.545 175.538 149.381C176.279 149.136 177.266 148.787 178.285 148.433C179.783 147.911 182.045 147.121 182.541 147.001C182.791 146.941 183.031 146.854 183.255 146.745C184.17 147.11 185.205 147.077 186.099 146.642C188.104 145.667 190.382 144.561 192.458 142.96C192.823 142.682 193.118 142.339 193.341 141.958C194.186 141.816 194.965 141.364 195.515 140.673C196.627 139.267 197.286 137.361 197.87 135.678C198 135.308 198.12 134.954 198.235 134.649C198.316 134.426 198.382 134.197 198.425 133.963C199.052 130.466 198.382 127.128 196.502 124.328C196.186 123.86 195.744 123.49 195.243 123.234C195.221 123.223 195.199 123.212 195.178 123.201C195.145 122.907 195.074 122.613 194.965 122.33L194.943 122.27C194.398 120.848 193.919 119.585 193.129 118.283C193.657 117.145 193.543 115.789 192.791 114.748C191.81 113.392 189.26 110.125 186.05 108.066C186.437 106.917 186.208 105.642 185.423 104.695C183.631 102.533 181.647 100.79 179.511 99.4881C179.375 98.0122 179.086 96.057 178.481 93.9983C177.369 90.2186 175.495 87.2668 173.004 85.3333C172.863 83.5579 172.432 81.9403 171.718 80.5025C170.705 78.4057 167.958 76.505 165.975 75.3722C165.828 74.4245 165.604 73.7219 165.283 73.1338C163.991 70.7211 161.91 69.4902 159.899 68.8258C160.106 68.2267 160.286 67.6167 160.438 67.0067C161.109 64.3108 161.637 61.054 161.877 58.0803C161.882 58.0095 161.882 57.9442 161.882 57.8734C161.882 57.6773 161.861 57.4867 161.817 57.2961C161.626 56.4846 161.457 55.3736 161.294 54.3007C161.294 54.3007 161.239 53.9684 161.196 53.6743C161.452 53.1134 161.599 52.4816 161.599 51.8117C161.599 51.3597 161.539 50.8968 161.414 50.4338C161.294 49.9818 161.109 49.5679 160.885 49.1866C160.934 48.9089 161 48.6366 161 48.3479C161 47.1824 160.591 45.8917 159.779 44.5573C159.697 44.4266 159.61 44.3014 159.506 44.187C159.016 43.6369 158.171 43.0052 157.256 42.5313C155.049 37.0688 150.406 30.0976 145.371 27.9027C145.398 27.6958 145.426 27.4997 145.426 27.4997C145.442 27.3908 145.447 27.2819 145.447 27.1784C145.447 26.5956 145.224 26.0782 144.864 25.6589C144.908 25.1524 144.968 24.6513 144.968 24.1285C144.968 22.6526 144.793 21.1439 144.445 19.766C144.254 19.009 143.709 18.4916 143.028 18.2139C142.15 14.3089 139.9 11.6185 136.129 10.0227C134.347 9.27114 131.704 8.60125 129.661 8.44331C127.508 8.27448 126.184 8.40519 126.184 8.40519L126.179 8.41063Z" fill="#082057"/>
<path d="M65.9852 86.1939L64.2632 78.7325C64.1978 78.4548 63.9526 78.2642 63.6692 78.2642H41.1691C36.3628 78.2642 32.4502 82.1746 32.4502 86.9781V123.098C32.4502 127.901 36.3628 131.812 41.1691 131.812H54.2201V123.119H44.6239C43.8392 123.119 43.2017 122.482 43.2017 121.698V88.356C43.2017 87.5718 43.8392 86.9346 44.6239 86.9346H65.3912C65.5765 86.9346 65.7508 86.8529 65.8653 86.7058C65.9797 86.5588 66.0233 86.3736 65.9797 86.1939H65.9852Z" fill="white"/>
<path d="M51.3757 108.099C51.4411 108.371 51.6864 108.556 51.9643 108.556H56.6234V123.114H56.6071V131.806H56.6234V148.602L67.6146 147.671V131.294C67.6146 131.261 67.6364 131.234 67.6364 131.196V108.022C67.6364 107.979 67.6364 107.93 67.6201 107.886L65.8763 100.321C65.8109 100.044 65.5657 99.853 65.2823 99.853H50.1006C49.9153 99.853 49.7355 99.9402 49.6211 100.087C49.5066 100.234 49.463 100.425 49.5121 100.61L51.3812 108.088L51.3757 108.099Z" fill="white"/>
<path d="M78.3503 146.168L78.7264 146.734L90.1753 145.765L89.0037 143.995L88.1046 142.715L77.0262 125.973H77.0316L75.6693 123.887L89.4724 108.12C89.5922 107.984 89.6358 107.799 89.5977 107.625L87.8866 100.016C87.8321 99.7602 87.6142 99.5859 87.3635 99.5859H77.9526C77.7891 99.5859 77.6256 99.6676 77.5275 99.8038C77.4294 99.9345 77.3913 100.103 77.4294 100.261L78.443 105L70.1328 114.59V133.816L77.4621 144.888L78.3613 146.168H78.3503Z" fill="white"/>
<path fill-rule="evenodd" clip-rule="evenodd" d="M117.504 165.42L123.629 165.273L125.83 158.569C125.83 158.569 127.579 159.664 128.8 159.359C129.29 159.375 129.819 158.923 129.819 158.923C130.375 159.201 130.713 159.32 131.323 159.446C132.495 159.685 134.385 159.293 134.385 159.293C129.492 165.545 119.7 171.269 119.7 171.269C110.212 176.471 99.2321 181.024 88.5732 182.957C88.5732 182.957 106.327 177.021 117.504 165.42Z" fill="#B6B8B9"/>
<path d="M121.65 135.079H121.612L121.596 135.046L121.607 135.079L118.392 135.161L120.637 146.761C121.263 144.605 120.866 143.521 122.228 142.246C122.974 141.549 123.536 141.244 124.522 140.999L121.645 135.085L121.65 135.079Z" fill="white"/>
<path d="M121.819 147.088C122.141 146.119 122.353 145.46 122.353 144.953C122.353 144.447 122.484 143.276 123.715 142.366C124.941 141.462 127.53 141.751 127.53 141.751C127.53 141.751 126.462 142.764 126.01 144.899C126.01 144.899 121.476 148.951 123.078 154.468C123.078 154.468 120.331 151.614 121.824 147.083L121.819 147.088Z" fill="white"/>
<path d="M133.399 141.517C133.399 141.517 130.892 147.301 131.345 152.529L134.707 153.488C134.707 153.488 133.028 147.143 139.001 141.969C139.001 141.969 139.426 140.901 139.775 140.477C140.123 140.052 135.562 139.224 133.399 141.517Z" fill="white"/>
<path d="M132.064 143.357C132.064 143.357 132.331 142.05 132.756 141.44C132.756 141.44 131.606 140.4 130.113 140.613C128.62 140.825 128.004 141.92 127.443 143.063C126.882 144.207 125.895 146.794 125.683 148.798C125.47 150.802 125.71 152.344 127.094 153.76L128.429 153.891C128.429 153.891 126.533 149.174 131.203 144.479C131.203 144.479 131.361 144.055 132.059 143.357H132.064Z" fill="white"/>
<path d="M163.277 127.095C161.141 125.815 160.1 126.082 160.1 126.082L145.027 135.973C149.882 135.864 152.765 137.438 152.765 137.438C143.534 136.103 140.521 137.65 140.521 137.65C140.521 137.65 146.259 138.314 150.711 139.73C150.711 139.73 154.552 139.093 155.724 140.106C155.724 140.106 156.683 140.88 156.874 143.33C156.874 143.33 156.885 143.352 156.901 143.385C157.479 143.826 158.062 144.414 158.525 145.177C158.547 145.182 158.563 145.193 158.585 145.199C167.146 147.41 173.124 143.494 173.124 143.494C173.603 135.335 165.413 128.375 163.282 127.095H163.277Z" fill="#B6B8B9"/>
<path d="M148.232 144.719C147.54 144.719 146.553 144.343 146.553 144.343C146.423 142.982 145.567 142.16 145.567 142.16C144.82 147.225 141.164 152.823 141.164 152.823C140.499 153.09 138.418 152.85 138.418 152.85L137.322 150.955C137.644 144.343 140.766 140.264 140.766 140.264C146.341 138.265 149.649 140.079 149.649 140.079C149.649 140.079 148.581 141.735 148.608 144V144.534C148.608 144.534 148.526 144.719 148.232 144.719Z" fill="white"/>
<path d="M154.82 151.968C154.128 151.609 153.997 149.452 153.997 149.452C153.828 147.987 152.613 146.93 151.288 147.083C149.964 147.235 149.022 148.548 149.19 150.008C149.19 150.008 149.561 152.464 150.733 154.239C150.733 154.239 152.901 155.127 155.888 154.06C155.888 154.06 157.027 153.205 156.672 151.004C156.672 151.004 155.572 152.355 154.825 151.963L154.82 151.968Z" fill="#B6B8B9"/>
<path d="M154.466 142.475C153.648 144.964 153.681 147.682 153.681 147.682C153.681 145.514 152.596 143.755 151.267 143.755C150.264 143.755 149.409 144.746 149.038 146.157C149.038 146.157 149.49 142.192 149.594 141.729C149.697 141.266 150.161 140.732 150.913 140.591C151.665 140.449 153.545 140.166 154.754 140.661C155.964 141.157 155.926 142.333 155.926 142.796C155.926 142.796 155.179 142.23 154.645 142.121L154.466 142.475Z" fill="white"/>
<path d="M155.174 150.938C154.907 151.047 154.89 150.372 154.852 149.98C154.814 149.588 154.743 149.266 154.601 148.842C154.46 148.417 154.493 147.987 154.493 147.987C155.419 145.781 157.838 147.382 157.838 147.382C157.054 144.359 154.71 145.002 154.71 144.61C154.71 144.218 155.065 143.118 155.065 143.118C155.065 143.118 157.626 144.147 158.193 146.385C158.759 148.624 157.626 149.904 155.168 150.933L155.174 150.938Z" fill="#B6B8B9"/>
<path d="M117.792 145.465L118.435 150.726L13.7217 155.029L117.792 145.465Z" fill="white"/>
<path d="M139.082 107.979L139.137 105.637C134.728 102.353 120.391 94.3848 120.391 94.3848C119.857 94.8096 118.827 95.2017 118.827 95.2017C118.827 95.2017 131.807 102.38 139.082 107.984V107.979Z" fill="#B6B8B9"/>
<path d="M112.904 136.806C111.035 136.909 106.991 136.615 106.991 136.615V138.293C106.991 138.293 108.354 138.407 109.612 138.472C110.926 137.857 112.01 137.301 112.904 136.806Z" fill="#B6B8B9"/>
<path d="M126.462 121.066C125.405 121.382 123.334 121.719 121.345 121.997L120.757 120.679C120.266 120.935 119.776 121.18 119.285 121.409L119.65 122.226C117.841 122.46 116.419 122.613 116.419 122.613C112.337 124.143 109.128 124.611 109.128 124.611L111.433 129.802C108.784 129.785 107.035 129.611 107.035 129.611L106.997 131.288C106.997 131.288 108.986 131.512 112.179 131.468L114.212 136.048C114.822 135.678 115.296 135.362 115.651 135.117L114.005 131.419C115.912 131.337 118.114 131.158 120.5 130.804C121.04 130.205 121.585 129.54 122.081 128.892C118.969 129.502 115.858 129.725 113.28 129.785L110.921 124.475C113.765 124.551 117.4 124.192 120.364 123.811L122.424 128.446C122.849 127.879 123.236 127.345 123.547 126.899L122.059 123.577C124.255 123.261 125.775 122.983 125.775 122.983C126.364 121.73 126.467 121.066 126.467 121.066H126.462Z" fill="#B6B8B9"/>
<path d="M152.052 127.808C151.196 127.917 150.346 127.977 149.539 127.994C150.842 126.79 152.003 125.712 152.684 125.08C152.825 124.258 152.934 123.386 152.973 122.509L152.847 122.618C152.847 122.618 149.856 125.428 147.142 127.95C145.839 127.874 144.788 127.732 144.205 127.64C144.145 128.201 144.079 128.74 144.008 129.268C144.319 129.323 144.831 129.399 145.491 129.475C144.799 130.112 144.188 130.673 143.72 131.087C143.562 131.986 143.376 132.895 143.147 133.87C144.096 133.015 145.899 131.354 147.736 129.66C148.864 129.715 150.144 129.726 151.469 129.622C151.627 129.181 151.839 128.56 152.052 127.808Z" fill="#B6B8B9"/>
<path d="M152.106 120.886C149.191 121.251 145.404 120.717 145.404 120.717L148.711 117.33C148.711 117.33 148.15 116.769 147.376 116.29L144.652 119.013C144.668 120.069 144.652 121.115 144.603 122.264C146.107 122.493 149.518 122.885 152.973 122.438C152.973 122.319 152.978 122.193 152.984 122.073L152.106 120.881V120.886Z" fill="#B6B8B9"/>
<path d="M140.549 45.9079C140.669 45.9025 140.788 45.8971 140.908 45.8916C143.023 45.8208 144.859 46.3436 146.636 46.8501C146.968 46.9427 147.306 47.0408 147.649 47.1334C149.545 47.6507 151.491 47.7379 153.78 47.4166C154.499 47.3131 155.153 47.068 155.692 46.7957C155.709 46.0931 155.224 44.6553 155.224 44.6553C150.221 30.1901 142.603 29.7544 142.603 29.7544C142.603 29.7544 142.254 30.2881 141.481 30.6857C141.481 30.6857 142.042 33.4034 138.652 33.8064C138.652 33.8064 141.17 39.4051 140.609 45.4559L140.549 45.9079Z" fill="#B6B8B9"/>
<path d="M130.276 49.056C131.835 48.8872 133.824 48.4188 136.374 47.6454C138.924 46.8721 141.377 46.725 141.377 46.725C143.169 46.7359 144.75 47.188 146.406 47.6563C146.744 47.7544 147.082 47.847 147.425 47.9395C148.657 48.2718 149.905 48.4406 151.245 48.4406C152.085 48.4406 152.962 48.3752 153.888 48.2445C154.989 48.0866 155.943 47.6454 156.629 47.237C156.319 45.6249 155.845 44.6064 155.845 44.6064C156.455 44.6718 157.403 45.102 158.177 46.9048C158.177 46.9048 158.738 48.2119 158.231 49.4373C158.231 49.4373 157.485 48.6639 156.068 50.1834C156.068 50.1834 155.212 50.8206 153.856 51.1419C152.493 51.4633 149.589 51.0875 147.213 49.9928C144.837 48.8981 141.851 47.4875 136.303 48.1792C136.303 48.1792 133.851 48.6312 132.276 49.0342C130.701 49.4373 129.563 49.263 128.876 49.0615C128.876 49.0615 129.786 49.1105 130.276 49.0615V49.056Z" fill="#B6B8B9"/>
<path d="M157.986 57.0563C142.587 70.4922 141.769 70.209 141.769 70.209L141.698 66.0481C151.66 60.5746 156.352 54.7417 156.352 54.7417C146.608 58.761 141.66 60.0027 141.66 60.0027C137.285 60.0027 128.037 57.6227 128.037 57.6227C135.682 58.5159 141.322 57.3831 141.322 57.3831L141.017 52.0512C141.017 52.0512 141.377 51.1471 142.837 51.3269C144.298 51.5066 144.26 52.0403 147.001 52.1819C149.742 52.3235 155.54 51.6482 155.54 51.6482C155.54 51.6482 155.431 53.6742 157.071 54.2243L157.997 57.0509L157.986 57.0563Z" fill="#B6B8B9"/>
<path d="M158.607 57.748C154.711 62.1758 142.014 71.5052 142.014 71.5052C125.688 67.0284 117.846 58.6031 117.846 58.6031L118.326 61.0048C130.064 70.4432 142.014 73.1609 142.014 73.1609C150.553 67.1373 158.127 59.6705 158.127 59.6705C157.49 77.1094 139.72 87.3429 139.72 87.3429C120.674 82.0655 117.846 67.0829 117.846 67.0829C116.457 62.6551 116.086 59.7794 116.032 57.8569C115.977 55.9344 117.1 53.1623 117.525 51.1363C117.95 49.1103 119.394 48.2062 120.511 48.5765C121.628 48.9469 122.86 49.9109 126.859 51.5611C130.859 53.2113 134.009 51.719 136.461 50.5481C138.913 49.3771 141.371 49.2137 141.371 49.2137C138.385 48.4676 135.878 49.6385 133.954 50.2267C132.031 50.8149 130.167 51.1308 127.818 50.5481C125.47 49.9599 122.909 48.0973 120.56 47.3511C118.211 46.605 116.876 48.1517 116.184 49.7529C115.492 51.3541 114.424 56.3646 114.424 56.3646C111.383 37.1176 124.364 31.0723 124.364 31.0723C124.097 30.9144 123.971 30.8218 123.971 30.8218C109.389 37.1503 113.16 57.5519 113.16 57.5519C113.874 61.0375 114.865 62.0287 114.865 62.0287C117.781 84.3529 139.48 88.9767 139.48 88.9767C161.462 73.6891 159.326 57.9059 159.326 57.9059L158.351 53.4073C158.351 53.4073 158.367 53.6579 158.122 53.9737L158.602 57.7425L158.607 57.748Z" fill="#B6B8B9"/>
<path d="M183.614 116.208C186.023 116.159 188.415 116.393 190.682 116.927C190.682 116.927 185.271 109.427 181.058 109.912C179.832 110.103 178.666 110.386 177.533 110.74C177.533 110.74 172.405 112.456 166.885 116.322C166.885 116.322 170.007 116.213 174.993 117.548C174.993 117.548 178.29 116.328 183.62 116.203L183.614 116.208Z" fill="#B6B8B9"/>
<path d="M188.082 122.215C189.804 122.635 191.319 123.13 192.42 123.707C191.782 122.036 191.319 120.81 190.393 119.53C189.172 119.062 187.886 118.735 186.578 118.506C186.578 118.506 180.132 117.199 171.331 119.329L175.467 120.451C175.467 120.451 182.687 120.854 188.082 122.21V122.215Z" fill="#B6B8B9"/>
<path d="M191.036 134.687C192.093 136.005 192.937 137.334 193.493 138.641C193.88 138.156 194.218 137.475 194.523 136.746C196.131 133.336 195.88 131.632 195.88 131.632C195.891 129.785 195.401 128.053 194.365 126.485C193.488 126.027 192.551 125.603 191.564 125.194C191.564 125.194 183.608 121.948 171.979 120.505L174.726 122.64C174.726 122.64 185.025 127.275 191.041 134.687H191.036Z" fill="#B6B8B9"/>
<path d="M183.8 139.502C184.268 140.498 184.644 141.441 184.922 142.29C184.922 142.29 189.189 141.713 191.047 140.324C190.622 138.821 189.756 137.242 188.595 135.651C188.595 135.651 182.274 126.85 171.571 122.074L173.947 125.913C173.947 125.913 181.723 133.745 183.8 139.491V139.502Z" fill="#B6B8B9"/>
<path d="M178.252 139.594C178.252 139.594 178.688 141.887 178.731 142.339C179.494 142.197 180.666 142.089 182.197 142.268C182.039 141.473 181.837 140.683 181.603 139.899C181.603 139.899 178.617 130.679 170.438 124.241L171.898 127.939C171.898 127.939 175.505 130.314 178.257 139.594H178.252Z" fill="#B6B8B9"/>
<path d="M170.797 101.792C173.059 100.191 175.489 99.3464 175.489 99.3464C173.5 97.9685 171.408 96.7976 169.016 96.2856C169.016 96.2856 169.01 96.2965 168.999 96.3074C168.596 97.3858 167.768 99.0088 167.234 100.016C167.234 100.016 163.441 106.906 162.318 108.719L164.907 107.467C164.907 107.467 167.621 103.949 170.797 101.792Z" fill="#B6B8B9"/>
<path d="M176.355 101.536C175.685 101.753 175.02 102.037 174.355 102.374C174.355 102.374 173.282 102.843 171.522 104.09C171.522 104.09 167.271 107.194 163.489 111.709C164.884 111.769 166.939 112.08 168.993 113.201C173.5 109.71 178.513 108.022 178.513 108.022C180.213 107.456 181.897 107.102 183.445 107.042C181.456 104.645 179.112 102.707 176.355 101.536Z" fill="#B6B8B9"/>
<path d="M175.2 143.047C175.2 143.047 176.372 142.796 177.265 142.584C177.265 142.584 176.41 133.091 169.331 127.405L170.65 131.425C170.65 131.425 175.129 135.901 175.2 143.047Z" fill="#B6B8B9"/>
<path fill-rule="evenodd" clip-rule="evenodd" d="M133.824 138.037L141.072 135.913C142.2 131.561 142.619 129.018 142.941 124.53C143.224 120.587 143.202 118.332 142.854 114.395C141.028 113.937 139.742 113.752 138.156 113.774C138.156 113.774 138.189 128.446 133.824 138.042V138.037Z" fill="white"/>
<path d="M156.793 50.6626C156.749 50.6626 156.711 50.6626 156.667 50.6789C156.531 50.7171 156.417 50.8151 156.324 50.973C156.128 51.3161 156.09 51.8662 156.237 52.3999C156.449 53.1951 157.027 53.7942 157.479 53.6744C157.616 53.6362 157.73 53.5382 157.823 53.3803C158.019 53.0372 158.057 52.4871 157.91 51.9534C157.708 51.2127 157.218 50.6626 156.793 50.6626Z" fill="white"/>
<path d="M120.244 49.5297C119.601 49.2846 118.832 49.7203 118.533 50.5046C118.233 51.2888 118.511 52.1275 119.159 52.3726C119.802 52.6177 120.571 52.182 120.87 51.3977C121.17 50.6135 120.892 49.7748 120.244 49.5297Z" fill="#B6B8B9"/>
<path d="M142.657 74.0705L142.253 74.3592L141.779 74.7132C141.518 76.8753 140.924 81.4611 140.079 85.8017C143.403 83.6069 154.765 75.2578 156.738 62.519C153.855 65.1877 148.455 69.9804 142.657 74.0705Z" fill="#B6B8B9"/>
<path d="M142.657 74.0705L142.253 74.3592L141.779 74.7132C141.518 76.8753 140.924 81.4611 140.079 85.8017C143.403 83.6069 154.765 75.2578 156.738 62.519C153.855 65.1877 148.455 69.9804 142.657 74.0705Z" fill="#B6B8B9"/>
<path d="M137.649 73.9126L136.614 84.9194L134.652 72.6763L137.649 73.9126Z" fill="#B6B8B9"/>
<path d="M130.102 70.4924L131.916 81.8097L126.783 68.7061L130.102 70.4924Z" fill="#B6B8B9"/>
<path d="M141.698 64.7846C141.698 64.7846 133.579 64.4632 121.361 56.0542C121.868 56.6098 122.707 57.4158 123.977 58.3308C124.44 58.6575 124.903 58.968 125.361 59.2675C125.372 59.273 125.383 59.2839 125.399 59.2893C125.508 59.3601 125.612 59.4255 125.715 59.4963C134.08 64.8445 141.693 66.0481 141.693 66.0481C151.654 60.5746 156.346 54.7417 156.346 54.7417C156.346 54.7417 149.055 61.2663 141.693 64.7846H141.698Z" fill="white"/>
<path d="M144.69 73.6293L143.071 83.1166L147.289 71.6577C146.439 72.3167 145.573 72.9757 144.69 73.6238V73.6293Z" fill="#082057"/>
<path fill-rule="evenodd" clip-rule="evenodd" d="M149.692 69.7515L147.316 79.179L151.24 68.4717C150.739 68.891 150.221 69.3213 149.687 69.7515H149.692Z" fill="#082057"/>
<path d="M117.716 81.8479C115.977 81.2597 114.157 81.4721 112.664 82.2781C116.549 83.7323 118.647 88.3507 117.34 92.5879C117.171 93.127 116.953 93.6444 116.691 94.1346C118.947 93.7751 120.925 92.2066 121.71 89.8974C122.832 86.5752 121.045 82.9698 117.721 81.8479H117.716Z" fill="#B6B8B9"/>
<path d="M26.1298 151.184L25.9282 72.3878L60.5912 64.7086L97.5592 71.1842V145.139L103.265 144.654V66.3969L60.4604 58.8975L20.2119 67.813L20.4299 151.669L26.1298 151.184Z" fill="#B6B8B9"/>
<path d="M115.65 82.5393C117.018 82.5011 117.863 82.9695 118.898 83.8681C121.121 85.7907 121.454 89.0257 119.667 91.3567C119.667 91.3567 120.522 85.4421 115.65 82.5393Z" fill="white"/>
<path d="M3.93945 160.818C6.24995 154.843 13.7209 155.023 13.7209 155.023L118.435 150.721L118.522 151.538L3.93945 160.818Z" fill="#B6B8B9"/>
<path d="M158.209 82.6045C155.087 82.6045 152.553 85.1424 152.553 88.2577C152.553 91.3729 155.092 93.9109 158.209 93.9109C161.326 93.9109 163.871 91.3729 163.871 88.2577C163.871 85.1424 161.332 82.6045 158.209 82.6045Z" fill="#B6B8B9"/>
<path d="M155.626 84.293C153.507 85.7035 152.814 88.345 153.975 90.6106C155.19 92.9852 157.517 94.3522 160.465 92.7946C158.765 92.5876 157.708 92.0266 156.585 90.7304C154.923 88.8079 154.596 86.6131 155.626 84.293Z" fill="#082057"/>
<path d="M157.898 83.318C159.19 83.2308 160.007 83.6502 161.021 84.4562C163.19 86.1936 163.62 89.2435 162.018 91.5091C162.143 89.7718 161.947 88.6934 161.212 87.1085C160.389 85.3276 159.184 84.8157 157.904 83.318H157.898Z" fill="white"/>
<path fill-rule="evenodd" clip-rule="evenodd" d="M139.377 95.556L139.426 93.4755C139.426 93.4755 127.928 85.475 122.326 83.3945C122.326 83.3945 123.182 84.5165 123.394 85.3661C123.394 85.3661 132.685 90.2241 139.377 95.5505V95.556Z" fill="#B6B8B9"/>
<path fill-rule="evenodd" clip-rule="evenodd" d="M146.232 85.1046C142.869 88.4105 139.507 90.0662 139.507 90.0662L139.447 92.5224C139.447 92.5224 149.752 85.4804 152.629 84.9467C152.629 84.9467 153.267 84.0426 153.91 83.6124C153.91 83.6124 155.457 81.1616 154.444 78.5474C154.444 78.5474 151.027 82.5449 148.842 83.7213C146.657 84.8977 146.226 85.1101 146.226 85.1101L146.232 85.1046Z" fill="#B6B8B9"/>
<path fill-rule="evenodd" clip-rule="evenodd" d="M164.689 78.5962C164.689 78.5962 164.678 78.6071 164.661 78.6234C164.52 79.5602 164.225 80.7638 163.626 81.853C171.735 87.5062 165.441 101.846 165.441 101.846C168.536 96.8847 170.138 89.1565 170.138 89.1565C171.685 79.827 164.694 78.5962 164.694 78.5962H164.689Z" fill="white"/>
<path fill-rule="evenodd" clip-rule="evenodd" d="M159.953 81.3628C160.7 81.5534 161.397 81.8584 162.035 82.2614C162.373 81.5806 163.991 78.1604 163.468 76.1997C162.269 71.7229 157.119 71.6685 157.119 71.6685C157.119 71.6685 157.01 72.3601 156.694 72.8394C156.694 72.8394 163.817 74.3698 159.958 81.3628H159.953Z" fill="white"/>
<path d="M151.163 90.4635C151.163 90.4635 142.744 95.4468 139.284 99.3408L139.186 103.551C142.815 100.457 152.896 93.3717 152.896 93.3717C152.111 92.5603 151.512 91.5636 151.163 90.458V90.4635Z" fill="white"/>
<path d="M160.198 95.3653C159.566 95.545 158.896 95.6376 158.209 95.6376C157.92 95.6376 157.637 95.6213 157.359 95.5886C157.359 95.5886 144.308 103.981 140.466 109.526C140.466 109.526 132.57 111.339 128.036 112.619C123.524 113.893 113.841 115.217 107.122 108.981V113.322C110.779 117.303 122.576 115.413 128.625 113.523C134.761 111.606 139.404 111.443 139.404 111.443C149.539 110.751 155.681 118.12 155.681 118.12C155.866 118.299 156.068 118.49 156.28 118.697C164.176 108.153 160.204 95.3599 160.204 95.3599L160.198 95.3653Z" fill="#B6B8B9"/>
<path d="M154.34 94.5372C154.34 94.5372 148.068 97.9738 139.137 105.631L139.082 107.973C143.371 103.687 155.468 95.1036 155.468 95.1036C155.076 94.9457 154.694 94.755 154.34 94.5317V94.5372Z" fill="white"/>
<path d="M174.508 97.3312C174.508 97.3312 174.508 97.3421 174.514 97.3639C174.982 97.6416 175.544 98.0174 176.127 98.513C176.127 98.4967 176.127 98.4804 176.127 98.464C175.664 90.4308 171.271 88.5791 171.271 88.5791C171.271 88.5791 171.217 89.6466 170.972 90.6432C170.972 90.6432 173.462 92.0102 174.508 97.3258V97.3312Z" fill="white"/>
<path d="M130.102 21.6828C124.233 16.6342 118.364 19.0523 118.364 19.0523C119.574 19.3028 119.928 19.586 119.928 19.586C110.217 24.6674 113.492 36.9323 113.492 36.9323L112.675 35.5816C112.713 37.8909 113.492 39.7753 113.492 39.7753C113.492 39.7753 112.926 40.9462 112.817 41.5507C112.817 41.5507 111.324 37.4987 111.498 34.4434L110.964 35.2984C110.108 23.992 115.443 18.4478 115.443 18.4478C122.593 10.7686 129.263 17.1679 129.263 17.1679C129.372 15.5667 128.358 14.3413 128.358 14.3413C139.404 17.1679 137.802 30.6038 137.802 30.6038C137.802 30.6038 136.2 29.9121 134.761 27.14C133.322 24.3678 131.775 21.4868 129.851 20.3158L130.102 21.6828Z" fill="#B6B8B9"/>
<path d="M111.803 57.737C111.765 57.7097 111.743 57.6934 111.743 57.6934C107.651 55.5585 108.686 49.6221 108.686 49.6221C108.686 49.6221 105.416 56.0323 112.217 59.8283C112.054 59.0931 111.912 58.3796 111.803 57.737Z" fill="#B6B8B9"/>
<path d="M142.897 27.271C142.57 27.7558 141.932 27.8157 141.91 27.832C143.3 21.2203 141.91 20.5286 141.91 20.5286C141.856 21.4871 141.126 21.754 141.126 21.754C140.592 9.41827 126.08 10.9487 126.08 10.9487C126.08 10.9487 139.665 10.2897 139.829 25.3267C139.829 25.3267 140.842 24.9019 141.109 23.5131C141.109 23.5131 141.801 27.0859 139.829 30.7131C139.829 30.7131 143.038 30.1194 142.902 27.271H142.897Z" fill="white"/>
<path d="M181.053 109.912C179.827 110.103 178.661 110.386 177.527 110.74C179.031 111.769 181.778 113.812 183.614 116.203C186.023 116.154 188.415 116.388 190.682 116.922C190.682 116.922 185.271 109.422 181.058 109.907L181.053 109.912Z" fill="white"/>
<path d="M190.398 119.536C189.178 119.067 187.892 118.74 186.584 118.512C187.118 119.694 187.816 121.306 188.088 122.215C189.81 122.635 191.325 123.13 192.426 123.707C191.788 122.035 191.325 120.81 190.398 119.53V119.536Z" fill="white"/>
<path d="M178.514 108.022C180.214 107.456 181.898 107.102 183.446 107.042C181.457 104.645 179.113 102.707 176.356 101.536C175.686 101.753 175.021 102.037 174.356 102.374C174.356 102.374 173.283 102.843 171.522 104.09C173.108 104.531 175.757 105.577 178.514 108.022Z" fill="white"/>
<path d="M191.042 140.33C190.616 138.826 189.75 137.247 188.589 135.657C187.401 136.937 185.478 138.81 183.794 139.502C184.263 140.498 184.639 141.441 184.916 142.29C184.916 142.29 189.183 141.713 191.042 140.324V140.33Z" fill="white"/>
<path d="M169.009 96.2856C169.009 96.2856 169.004 96.2965 168.993 96.3074C168.59 97.3858 167.762 99.0088 167.228 100.016C168.257 100.163 170.791 101.792 170.791 101.792C173.053 100.191 175.483 99.3464 175.483 99.3464C173.494 97.9685 171.402 96.7976 169.009 96.2856Z" fill="white"/>
<path d="M194.518 136.746C194.213 137.481 193.875 138.156 193.488 138.641C192.932 137.334 192.087 136 191.03 134.687C191.902 131.327 191.701 127.03 191.559 125.194C192.545 125.603 193.488 126.033 194.36 126.485C195.395 128.054 195.886 129.786 195.875 131.632C195.875 131.632 196.125 133.336 194.518 136.746Z" fill="white"/>
<path d="M172.993 140.907C173.124 141.751 173.173 142.611 173.118 143.488C173.118 143.488 167.141 147.41 158.58 145.193C158.558 145.193 158.542 145.177 158.52 145.171C158.057 144.403 157.473 143.821 156.896 143.379C156.879 143.347 156.869 143.325 156.869 143.325C156.787 142.257 156.558 141.511 156.329 141.005C156.329 141.005 159.081 142.508 164.454 142.045C169.827 141.582 172.988 140.901 172.988 140.901L172.993 140.907Z" fill="white"/>
<path d="M179.467 140.095C179.096 140.057 178.715 140.035 178.328 140.03C178.459 140.716 178.693 142.007 178.726 142.339C179.489 142.198 180.66 142.089 182.192 142.268C182.039 141.506 181.848 140.738 181.62 139.981C180.998 140.095 180.23 140.172 179.462 140.095H179.467Z" fill="white"/>
<path d="M174.955 140.34C175.102 141.19 175.189 142.094 175.2 143.047C175.2 143.047 176.372 142.796 177.266 142.584C177.266 142.584 177.173 141.598 176.819 140.073C176.121 140.128 175.473 140.22 174.961 140.34H174.955Z" fill="white"/>
<path d="M139.491 88.9766C161.474 73.689 159.338 57.9058 159.338 57.9058L158.362 53.4072C158.362 53.4072 158.378 53.6578 158.133 53.9736L158.613 57.7424C154.717 62.1702 142.02 71.4996 142.02 71.4996V73.1553C150.559 67.1318 158.133 59.665 158.133 59.665C157.496 77.1038 139.726 87.3373 139.726 87.3373L139.497 88.9712L139.491 88.9766Z" fill="white"/>
<path d="M141.431 31.8076C141.589 31.1976 141.48 30.6857 141.48 30.6857C142.254 30.2881 142.602 29.7544 142.602 29.7544C142.602 29.7544 150.22 30.1955 155.223 44.6553C155.223 44.6553 155.702 46.0931 155.691 46.7957C155.152 47.068 154.498 47.3131 153.779 47.4166C152.989 47.5255 152.237 47.5908 151.517 47.6017C151.517 47.6017 149.812 38.1253 141.436 31.8076H141.431Z" fill="white"/>
<path d="M95.8098 159.201L67.3099 162.076L94.7798 160.628C85.0256 173.492 64.7161 180.392 60.6672 181.661L60.3948 181.748L60.1223 181.65C56.613 180.392 44.3412 175.545 33.7804 166.036L33.2028 165.518L26.9307 166.15C40.5485 180.43 58.6783 186.301 59.4956 186.557L60.3076 186.813L61.1304 186.579C62.4546 186.203 91.9625 177.691 101.804 158.591L95.8098 159.195V159.201Z" fill="#B6B8B9"/>
<path d="M94.7796 160.628C85.0253 173.492 64.7158 180.392 60.667 181.661C82.9437 177.364 94.2946 164.887 97.7004 160.47L94.7796 160.622V160.628Z" fill="white"/>
<path d="M110.468 158.509L117.666 157.79L116.871 164.2L116.511 158.721L110.468 158.509Z" fill="#B6B8B9"/>
<path d="M153.942 97.8923C155.959 96.4872 157.359 95.5885 157.359 95.5885C157.637 95.6212 157.92 95.6375 158.209 95.6375C158.896 95.6375 159.566 95.545 160.198 95.3652C160.198 95.3652 164.165 108.158 156.275 118.702C156.062 118.495 155.861 118.305 155.675 118.125C155.675 118.125 157.07 105.245 153.942 97.8923Z" fill="white"/>
<path d="M100.022 71.8865C100.36 71.429 100.518 70.8898 100.507 70.367L106.583 65.7322L99.8148 68.8257L99.7767 68.793C99.2372 68.3246 98.5234 68.1776 97.8476 68.3355L93.3356 62.4209L96.36 69.0217L60.5908 64.7029L95.9349 70.8952C95.9404 70.9715 95.9513 71.0532 95.9622 71.1294L90.0225 75.6607L96.8668 72.5346C97.0793 72.6762 97.3191 72.7742 97.5643 72.8341V145.138L99.8475 144.948V74.4789L103.281 78.972L100.033 71.881L100.022 71.8865Z" fill="white"/>
</g>
<defs>
<clipPath id="clip0_11_241797">
<rect width="200" height="186" fill="white" transform="translate(0 7)"/>
</clipPath>
</defs>
</svg>
