<?xml version="1.0" encoding="UTF-8"?>
<svg width="200px" height="200px" viewBox="0 0 200 200" version="1.1" xmlns="http://www.w3.org/2000/svg" xmlns:xlink="http://www.w3.org/1999/xlink">
    <!-- Generator: Sketch 54.1 (76490) - https://sketchapp.com -->
    <title>texas-lutheran</title>
    <desc>Created with Sketch.</desc>
    <g id="texas-lutheran" stroke="none" stroke-width="1" fill="none" fill-rule="evenodd">
        <g id="texas-lutheran_BGL">
            <g id="texas-lutheran" transform="translate(11.000000, 0.000000)">
                <path d="M72.0575263,5.64192375 C72.185587,5.52653391 72.3461412,5.37456026 72.5501038,5.17475955 C73.9423128,3.80991941 74.7160504,3.18923216 75.930815,2.65760631 C80.2544879,0.703636141 84.1527304,-0.13044784 87.7686478,0.784591348 C91.7193286,1.96318848 94.8961379,4.79271052 96.3093339,8.40889431 C96.8418857,9.72690815 97.1500727,10.7542742 97.7505637,13.0084375 C98.1642113,14.5612001 98.4391501,15.5134567 98.7258409,16.2963822 C99.9248873,16.8050146 100.832995,17.0089706 101.767949,16.9895441 C103.405901,17.0124981 105.019137,16.5934178 107.535067,15.5895023 C107.955741,15.4216433 108.236985,15.306268 109.103351,14.9481357 C113.574713,13.099794 115.809179,12.4127704 118.866634,12.3606954 C121.036031,12.2784266 122.968087,12.7233269 125.146242,13.6663405 C125.492859,13.5276559 125.701917,13.4043392 125.874312,13.2570046 C126.662883,12.5904956 127.208439,11.8615904 128.381104,9.99904947 C129.804637,7.73798824 130.542949,6.71871281 131.815488,5.51877966 C134.087091,3.38266084 137.149041,2.37271208 140.306995,2.5675692 C142.137873,2.66310263 143.652357,3.20450824 145.447873,4.20019184 C150.025724,3.43286489 154.727285,4.38337532 158.409829,6.99961208 C159.784636,7.97189023 160.559993,8.96386567 161.801483,10.9340546 C162.715265,12.3848377 163.067091,12.815576 163.306858,12.9518748 C163.791172,13.022417 164.322568,13.0650304 165.350256,13.1279597 C167.834247,13.2800639 169.035384,13.4348758 170.632367,13.970187 C172.493957,14.5425525 173.730489,15.3914302 175.64996,17.0760862 L176.913382,18.1849497 L176.872346,19.8629501 C176.868266,20.029787 176.866176,20.1621539 176.862027,20.4822477 C176.823247,23.4738647 176.535824,24.9995523 175.080778,26.9530751 C173.247313,29.2134805 170.96919,30.9464217 168.476576,31.9765235 C168.120873,32.1363047 168.063001,32.1622638 167.980173,32.1993135 C165.280526,33.4068863 163.616162,33.9595809 161.54118,34.0613059 C161.098746,34.0938455 160.607097,34.1574297 159.977083,34.2603244 C159.713793,34.3033252 159.4892,34.3421312 159.008149,34.4268344 C156.265282,34.9097972 155.011889,35.0441903 153.274863,34.8551988 C150.778631,34.4933052 149.396248,33.5974633 147.117798,31.552695 C146.021953,30.5838664 145.448765,29.9366942 144.399593,28.6402816 C144.149068,29.6870329 144.090829,30.2405262 143.977807,30.9018306 C143.878963,31.5900444 143.896493,32.2735749 144.036704,32.9998883 C145.223211,33.1856686 146.102177,33.4529676 147.131394,33.9578305 C147.650837,34.1884391 147.922277,34.3292186 149.007021,34.9072535 C150.450165,35.6762717 151.052675,35.8868626 151.380064,35.8468804 C151.903359,35.8074882 152.181786,35.7735612 152.978019,35.6633485 C153.492688,35.5921092 153.776867,35.5551063 154.113292,35.5185265 C156.627462,35.2451594 158.573872,35.4824896 160.445832,36.7716066 C162.568828,38.4408411 163.618723,40.6913496 164.255186,43.4684951 C165.009006,47.3768619 164.303517,51.5507753 162.584669,55.5334117 C162.180045,56.5410867 161.714229,57.2183607 160.885551,58.1953933 C161.456406,59.7064789 161.667842,60.5108267 161.591164,61.7774674 C161.581757,61.9560275 161.575128,62.0873467 161.557128,62.4481735 C161.434003,64.9163865 161.290274,66.5302867 160.955507,67.9960832 C162.346296,69.426667 163.265786,70.7062834 163.834494,72.2648241 C164.380971,72.6097098 164.938487,72.960396 165.098082,73.0626759 C167.608741,74.671684 169.237913,75.9713452 170.551579,77.6768323 C172.250275,79.7551142 173.005054,82.4131561 173.215306,85.5585833 C173.139918,87.2150968 172.721259,88.2578147 172.056297,89.2260413 C171.664791,89.7960987 171.341023,90.1638534 170.636525,90.9053085 C170.293453,91.2664105 170.117201,91.4605429 170.01078,91.5929882 C169.907119,93.0269819 169.546491,94.2107193 168.888229,95.7033258 C168.66173,96.2074473 168.529438,96.4977975 168.49223,96.5798588 C168.220555,97.1790197 168.067032,97.5476223 167.938305,97.9242209 C166.705816,101.178469 166.217211,104.228179 166.596613,106.69848 C167.206889,108.506724 168.307962,110.068032 171.117226,113.399238 C174.110231,116.9483 175.35316,118.638219 176.446995,121.088934 C178.024918,124.336079 178.186078,128.124579 177.511006,132.7029 C176.313523,139.610131 172.714988,145.39395 166.198144,152.793617 C162.514928,157.304169 158.528199,160.287614 153.905117,160.940384 C153.137404,161.09072 152.544334,161.141123 151.370992,161.199925 C150.242773,161.256465 149.855696,161.309751 149.522542,161.444456 C149.01769,161.63272 148.656739,161.743636 148.066986,161.910783 C147.792918,161.988152 147.668632,162.023364 147.54569,162.059017 C147.136549,162.17767 146.86218,162.271846 146.697865,162.338016 C144.700149,164.751417 143.453965,166.203095 142.179785,167.535891 C142.315047,168.469227 142.446661,169.44457 142.579776,170.491491 C142.746228,171.800602 142.870225,172.84282 143.144966,175.206978 L143.649152,179.543249 L139.261628,179.178591 C138.814914,179.141464 138.423154,179.11054 137.652693,179.050904 C136.496529,178.961413 136.052193,178.926125 135.43578,178.873085 C132.780576,178.644616 130.71138,178.375451 128.784431,177.954584 C117.293215,184.6274 103.50768,188.247026 89.4715188,188.522728 C89.4033889,188.636348 89.2277559,188.929384 89.1696448,189.026055 C87.8424963,191.233841 86.9722242,192.446182 85.6569267,193.626751 C85.5072096,193.762496 85.3468762,193.911326 85.1489405,194.097766 C85.0308712,194.208978 84.6082412,194.609496 84.59221,194.624655 C83.6513711,195.514305 83.0492957,196.046702 82.3306329,196.58427 C81.1841052,197.29262 80.3884006,197.641802 79.1532561,198.107175 C78.2831785,198.432776 78.0546181,198.520451 77.8325842,198.610669 L75.1573449,199.697692 L73.5105279,197.33063 C71.7678434,194.825773 70.3744512,192.160079 69.382176,189.389075 C69.0505261,188.31984 68.8653249,187.58486 68.5454568,186.171322 C59.022442,183.764441 49.8939292,179.550671 41.6743256,173.818533 C40.6550002,174.123663 39.4916973,174.50159 37.7053237,175.095918 C33.0704007,176.63666 30.8368838,177.284142 28.0911512,177.784208 C26.929989,177.89432 26.3170508,177.918451 24.969774,177.953812 C23.7484432,177.985867 23.2197781,178.00668 22.5900566,178.056263 L17.1321249,178.48601 L18.8927611,173.315659 C19.0069996,172.980181 19.1160094,172.656934 19.2909402,172.135978 C19.583504,171.264704 19.5880253,171.251255 19.6966917,170.930134 C20.4103426,168.821219 20.9370689,167.38109 21.5547915,165.92489 C22.1860317,164.601978 22.6824149,163.715362 23.7933229,161.825291 C24.5330463,160.566635 24.8588762,159.998067 25.2070626,159.345212 C25.2609763,159.150807 25.2654852,158.968031 25.2654852,158.550146 C18.6692402,150.105479 13.9144285,140.753634 11.4163948,130.917524 C9.61802863,130.456272 8.52541933,130.034553 7.22565576,129.199359 C7.04943695,129.091597 6.85672802,128.976873 6.60469305,128.82912 C6.51027156,128.773767 6.08203862,128.52382 5.96411972,128.454652 C4.82029161,127.783712 4.09492837,127.317187 3.3501747,126.729154 L2.86812111,126.34854 L2.53980709,125.830087 C2.02327821,125.014418 1.7045464,124.291253 1.2568906,123.086495 C1.09105244,122.638618 1.04784552,122.522945 1.00225181,122.403579 L0.304366989,120.576488 L1.46269641,118.999116 C3.81612858,115.794295 6.64439447,113.015665 9.76215205,110.933894 C10.5409472,103.135883 12.9007945,95.3771851 16.6885691,87.4925317 C15.6323603,86.5138399 14.8891747,85.6141481 14.1832127,84.4372538 C13.8897208,83.9709487 13.5501125,83.4783207 13.0541837,82.7908383 C12.7584848,82.3826393 12.6936979,82.293502 12.5700026,82.1233291 C10.6150392,79.4330037 9.74563441,78.0251532 9.0680155,76.029868 L7.73166029,72.0948984 L11.8280415,71.3406483 C13.0345551,71.1184979 13.9982757,70.9344449 16.1677768,70.5151136 C18.3581491,70.0917483 19.3359054,69.9050147 20.5892407,69.6742952 C22.0040966,69.42156 23.2008701,69.2905282 25.4949783,69.0970554 C27.5633177,68.9229373 28.4916334,68.8305971 29.4091238,68.691914 C29.8636859,68.2254015 29.985057,68.1034995 30.110565,67.9833557 C34.1346286,63.6957748 38.6228041,59.9139471 43.4140167,56.805596 C43.6318149,56.6644025 43.8424724,56.5330167 44.1287621,56.3582175 C43.8900756,55.0512331 43.5802145,53.7053207 43.2226747,52.4154897 C42.9804714,51.5810057 42.6226371,50.8864074 41.7128147,49.4019413 C39.989197,46.5850731 39.2903686,45.0393124 39.0075856,42.7830462 C38.6988418,39.6404111 38.9358509,37.1361251 40.192163,34.9398421 C41.3650329,32.7218484 42.5948492,31.2491867 45.4664594,28.243764 C48.1953116,25.3877515 49.2358587,24.0862214 49.9333326,22.4205549 C50.1701925,21.7173942 50.344538,21.0173791 50.6435416,19.64699 C51.3172616,16.5560922 51.7261909,15.1561111 52.6584336,13.3928427 C54.1894559,10.2267875 56.6745724,8.2459117 60.5527921,6.34587208 C63.0215226,5.38759443 65.1896221,5.10918741 67.6539366,5.21094268 C68.7534318,5.2563425 69.5449308,5.33735071 71.4644698,5.57054433 C71.6886736,5.59778153 71.883389,5.62125009 72.0575263,5.64192375 Z" id="Shape" fill="#FFFFFF" fill-rule="nonzero"></path>
                <path d="M86.8820253,4.26966292 C89.5858228,5.07865169 91.9291139,7.1011236 92.9655696,9.75280899 C94.1822785,12.7640449 94.5427848,16 95.9397468,18.9662921 C97.8324051,19.9101124 99.68,20.6292135 101.843038,20.5842697 C107.656203,20.6741573 112.928608,16.0449438 118.967089,15.9550562 C121.130127,15.8651685 123.022785,16.5842697 124.915443,17.5280899 C126.132152,17.1685393 127.258734,16.8089888 128.205063,16 C130.863797,13.752809 131.810127,10.4719101 134.288608,8.13483146 C135.865823,6.65168539 137.983797,6.02247191 140.101772,6.15730337 C141.904304,6.24719101 143.301266,7.1011236 144.833418,8 C148.753924,7.01123596 153.034937,7.59550562 156.324557,9.93258427 C158.803038,11.6853933 159.433924,15.5955056 162.408101,16.4494382 C164.751392,16.8539326 167.139747,16.5842697 169.528101,17.3932584 C171.01519,17.8426966 172.141772,18.7865169 173.268354,19.7752809 C173.223291,21.6179775 173.358481,23.2359551 172.186835,24.8089888 C170.834937,26.4719101 169.032405,27.8651685 167.04962,28.6741573 C165.247089,29.4831461 163.309367,30.3820225 161.326582,30.4719101 C158.757975,30.6516854 156.144304,31.5505618 153.665823,31.2808989 C151.818228,31.011236 150.556456,29.7977528 149.24962,28.6292135 C147.717468,27.2808989 146.681013,25.4831461 145.193924,24.1348315 C144.337722,23.4157303 143.211139,22.741573 142.039494,23.011236 C140.552405,24.988764 140.822785,28 140.417215,30.3370787 C140.101772,32.4494382 140.507342,34.3820225 141.318481,36.3146067 C142.80557,36.4494382 144.247595,36.5393258 145.599494,37.2134831 C147.537215,38.0674157 149.610127,39.6853933 151.818228,39.4157303 C153.936203,39.2808989 156.50481,38.4269663 158.397468,39.7303371 C159.704304,40.7640449 160.380253,42.6966292 160.740759,44.2696629 C161.371646,47.5505618 160.560506,51.1460674 159.253671,54.1573034 C158.757975,55.4157303 157.721519,56.1797753 157.000506,57.3033708 C156.91038,58.6966292 158.082025,60.1348315 157.991899,61.5730337 C157.856709,64.1348315 157.811646,66.6067416 156.865316,69.0337079 C158.577722,70.6966292 160.245063,72.0898876 160.740759,74.5617978 C163.084051,76.0898876 166.013165,77.6629213 167.72557,79.9101124 C169.032405,81.4831461 169.483038,83.7752809 169.618228,85.7977528 C169.483038,87.9101124 166.328608,89.1235955 166.418734,91.2808989 C166.283544,93.3483146 165.202025,94.7865169 164.526076,96.7640449 C163.264304,100.089888 162.453165,104 163.084051,107.550562 C164.841519,113.168539 170.789873,117.213483 173.178228,122.606742 C174.57519,125.438202 174.394937,129.123596 173.944304,132.179775 C172.727595,139.191011 168.041013,145.258427 163.444557,150.47191 C160.921013,153.573034 157.406076,156.853933 153.305316,157.393258 C151.547848,157.752809 149.835443,157.438202 148.168101,158.11236 C146.951392,158.561798 145.329114,158.786517 144.292658,159.595506 C142.4,161.88764 140.507342,164.179775 138.344304,166.292135 C138.84,169.393258 139.200506,172.494382 139.561013,175.595506 C135.775696,175.280899 131.85519,175.101124 128.205063,174.11236 C116.128101,181.483146 101.572658,184.988764 87.4678481,184.94382 C86.1159494,186.921348 85.0344304,189.348315 83.2318987,190.966292 C82.2405063,191.865169 81.2491139,192.898876 80.1675949,193.707865 C79.0410127,194.382022 77.6891139,194.786517 76.4724051,195.280899 C74.9402532,193.078652 73.678481,190.696629 72.7772152,188.179775 C72.281519,186.561798 71.9660759,184.853933 71.5605063,183.191011 C61.0156962,180.853933 51.0567089,176.224719 42.3594937,169.88764 C37.3124051,171.235955 32.6258228,173.303371 27.4435443,174.247191 C25.7311392,174.382022 24.0187342,174.337079 22.3063291,174.47191 C23.1174684,172.089888 23.8835443,169.662921 24.8749367,167.325843 C25.9113924,165.168539 27.2632911,163.146067 28.3898734,161.033708 C29.1108861,159.865169 28.7503797,158.606742 28.9306329,157.168539 C21.9007595,148.674157 16.7635443,138.696629 14.4202532,127.955056 C12.5726582,127.460674 10.8151899,127.235955 9.1478481,126.157303 C7.97620253,125.438202 6.66936709,124.764045 5.5878481,123.910112 C5.04708861,123.05618 4.73164557,122.067416 4.37113924,121.123596 C6.71443038,117.932584 9.73367089,115.011236 13.2035443,113.033708 C13.8344304,103.685393 16.8987342,94.8314607 21.1797468,86.5617978 C19.6926582,85.3932584 18.2506329,84.2247191 17.2592405,82.5617978 C15.6820253,80.0449438 13.4288608,77.6629213 12.4825316,74.8764045 C15.4116456,74.3370787 18.2956962,73.752809 21.2248101,73.2134831 C24.2440506,72.6741573 27.3534177,72.6741573 30.3726582,72.1797753 C31.4091139,72 31.9498734,71.1910112 32.6708861,70.5168539 C36.4562025,66.4719101 40.7372152,62.8314607 45.3787342,59.8202247 C46.28,59.2359551 47.2263291,58.741573 48.0374684,58.0674157 C47.7670886,55.8651685 47.2713924,53.5280899 46.6855696,51.4157303 C45.6941772,48 43.035443,45.9325843 42.5848101,42.3370787 C42.404557,40.494382 42.404557,38.2921348 43.3508861,36.6741573 C45.8744304,31.8651685 51.236962,28.7640449 53.3098734,23.6853933 C54.3012658,20.8089888 54.3913924,17.7977528 55.878481,15.011236 C57.1402532,12.3595506 59.5736709,10.8314607 62.1422785,9.57303371 C65.7924051,8.17977528 69.2172152,8.98876404 72.8673418,9.34831461 C74.6698734,8.6741573 75.5711392,6.74157303 77.4187342,5.93258427 C80.3027848,4.62921348 83.8627848,3.50561798 86.8820253,4.26966292 Z" id="Shape" fill="#251F20" fill-rule="nonzero"></path>
                <path d="M95.2472508,119.116924 C106.649202,122.971091 112.350178,130.541316 112.350178,141.827598 C112.350178,153.113881 105.540223,154.94265 91.9203125,147.313904 L89.0859111,124.154961 L95.2472508,119.116924 Z" id="Path-2" fill="#B31F44"></path>
                <path d="M88.3050515,7.06731637 C90.5265338,8.85621819 91.6010732,10.8329602 93.1711713,15.0419786 C94.5440876,18.7265139 95.2452372,20.1475355 96.5212795,21.4591586 C97.7391617,22.5707225 98.9487999,23.2702932 99.885311,23.3238745 C100.123424,23.3059666 100.36631,23.2771666 100.614332,23.237609 C102.35712,22.9596476 104.077269,22.260538 106.84579,20.8389889 C107.012124,20.7535817 107.180546,20.6666592 107.409235,20.5483102 C107.689963,20.4029571 107.836802,20.3269437 107.96958,20.258357 C108.421619,20.0248567 108.755157,19.8546302 109.06449,19.7004901 C110.863553,18.7753078 112.947632,18.2516736 115.580215,17.9409442 C116.626512,17.8174475 117.281139,17.7647029 119.314036,17.621949 C122.689477,17.362988 125.857968,18.6739425 128.014792,21.234888 C130.130196,23.6963158 131.157271,25.9416942 132.964842,31.1393499 C134.001421,34.120014 134.502277,35.4156873 135.256143,36.8935889 C136.042615,38.3643145 136.761948,39.1116334 137.612491,39.2530377 C138.277821,39.3596822 139.019542,39.3168281 140.037988,39.1359608 C140.333417,39.0834951 140.586104,39.0332651 141.115893,38.9239923 C143.119959,38.5106396 143.99726,38.3959214 145.204858,38.5304052 C145.975831,38.6402522 146.634706,38.9066158 147.616864,39.4169285 C148.12783,39.684343 148.228303,39.7360427 148.322056,39.7827948 L150.416836,40.8274082 L150.014736,41.0920908 C151.065382,40.8052548 151.673377,40.6106835 152.348501,40.3408787 C155.034691,39.0429282 158.562201,40.4501082 159.645375,43.2117545 C159.983236,44.0204707 160.114314,44.8472556 160.16211,45.9913096 C160.169961,46.1792484 160.17426,46.3224445 160.183006,46.6559807 C160.189921,46.9197117 160.193483,47.0410416 160.199001,47.1841351 C160.2,48.6422029 160.181377,49.2547465 160.082821,50.0540159 C159.996212,50.7563929 159.852625,51.4154665 159.639451,52.0530461 C159.113869,53.6838551 158.368147,55.0110907 156.779857,57.4261287 C156.229962,58.2622583 155.977807,58.6464841 155.787926,58.9451478 C157.004378,62.5556703 156.872782,65.8337812 155.419994,69.5262307 L155.029255,70.519345 L153.970332,70.3684712 C153.456351,70.2952401 153.035909,70.2416697 152.081544,70.1247777 C151.109454,70.0057146 150.677448,69.9506708 150.139952,69.8740892 L149.62536,69.800771 L148.797564,69.7942645 C147.88472,70.0450955 147.069107,70.2365542 145.499023,70.582418 C144.557566,70.7898056 144.444112,70.8149296 144.061315,70.9018519 C140.154794,71.7889124 137.906781,72.6327546 135.978772,74.1847945 C134.784148,75.1186385 134.087556,76.3647917 133.376527,78.5867683 C133.724181,78.8675049 134.083532,79.1883506 134.659844,79.7174409 C135.708227,80.6799212 136.180092,81.0682009 136.821642,81.4445831 C139.765801,83.3121921 143.178223,84.0108323 147.53724,83.865917 L150.515731,83.7668972 L148.62859,86.0672869 C144.27223,91.3776109 139.127698,95.1113592 133.622628,96.3648506 C131.229047,96.956885 128.839569,96.9041711 125.242136,96.3990266 C124.819787,96.3397212 124.460794,96.2867597 123.742143,96.1788925 C119.670003,95.5676771 117.974596,95.4371774 116.033121,95.7572316 C114.770113,95.9213486 113.959496,96.5571439 112.368532,98.390454 C111.890408,98.9412192 111.703099,99.1530812 111.508983,99.3642706 C106.075722,105.753136 102.874648,111.941004 97.5517132,124.869544 C95.8111585,129.118029 95.328379,133.742665 96.3936655,137.599983 C96.8984559,139.577831 98.1464942,141.465001 100.019301,143.286489 C102.732691,145.82615 106.440228,147.737555 110.123294,148.509869 C113.056081,148.830391 116.05466,147.998478 121.229164,145.84325 C122.440391,145.376998 123.43598,144.750626 124.970425,143.571331 C125.134826,143.444981 125.952243,142.810006 126.18824,142.629196 C126.665691,142.263393 127.068788,141.965433 127.438987,141.707865 C133.255654,137.356931 137.461439,134.979971 142.065501,134.053736 C145.545761,133.292961 149.246802,133.670903 152.635753,135.062728 C152.926382,135.178671 153.185673,135.308153 153.425967,135.457634 C153.429831,135.399605 153.46402,135.01338 153.528533,134.298958 L154.400344,134.035473 C154.681137,133.95061 154.703128,133.943489 155.508374,133.679693 C156.648868,133.306071 157.301104,133.120212 158.054426,132.986999 C158.547372,132.899829 159.01843,132.853933 159.478987,132.853933 C161.634379,133.049553 163.572672,134.259875 164.319431,136.036667 C165.062732,137.704659 165.245627,139.711178 165.062166,142.0895 C164.933464,143.629828 163.941702,144.989885 162.528703,145.69444 C160.600183,146.6796 158.335136,146.965084 155.716668,146.73242 C154.342187,146.571872 153.176066,146.327314 151.677871,145.878272 L150.996906,146.872757 C147.463978,152.032257 145.018024,155.02959 141.925411,157.520226 C140.72796,158.538873 139.6342,159.090904 137.510786,159.914869 C137.449308,159.938725 137.103414,160.072604 137.004262,160.111132 C136.823711,160.181288 136.674533,160.2398 136.532587,160.296306 C133.337372,161.742732 129.226281,161.469817 124.779569,160.072512 L123.229373,159.585389 C121.600543,160.686528 120.403998,161.358343 118.902348,162.008177 C118.029971,162.371621 117.241379,162.736942 115.895149,163.387595 C115.794854,163.436069 115.422701,163.616141 115.339185,163.656513 C115.121153,163.761911 114.948,163.845359 114.780417,163.925704 C112.070905,165.224735 110.314074,165.912013 108.254908,166.352093 C105.51713,166.785254 103.875453,166.785254 102.172906,166.050919 C101.712616,165.856879 101.692169,165.848339 100.430581,165.322266 C94.8369377,162.989754 92.221412,161.698714 89.3023151,159.540617 C88.7827768,159.142031 88.2782825,158.883207 87.1142477,158.376915 C86.3318829,158.035391 85.9856642,157.875432 85.630046,157.691979 C85.0543397,157.301615 84.706107,156.982007 84.3876763,156.59635 L84.5963522,157.636963 L82.2791832,156.712553 C82.1371476,156.655889 81.9935554,156.597003 81.8153597,156.522733 C81.7782506,156.507266 81.4244896,156.359133 81.3236048,156.317321 C81.145336,156.243436 81.0012082,156.185229 80.8651683,156.132592 C80.042057,155.814107 79.4655,155.69081 78.8188842,155.729478 C77.9046156,155.762044 77.0585002,155.967041 75.5967718,156.457665 C75.4848158,156.495242 75.4333587,156.512642 75.1783697,156.599013 C73.5870853,157.138018 72.8007253,157.36338 71.774887,157.511215 C70.2974435,157.773614 69.1284396,158.133707 66.6878254,159.006464 C66.4665753,159.085601 66.3604966,159.123522 66.2443311,159.164951 C63.2817532,160.221527 61.6107334,160.677892 59.5392789,160.846062 C52.349681,161.62426 45.8515905,160.950155 40.8446418,158.346007 C36.1794482,155.75022 32.161507,152.341034 29.2708543,148.376792 C23.7659352,140.654628 21.6320101,130.85976 22.8566577,120.648849 C23.6204857,115.803201 25.5373518,111.15197 28.4742176,106.634246 C31.2860323,102.334227 34.2859774,98.9441985 39.5774224,93.7097551 C40.0986097,93.1941823 41.8887156,91.4326866 42.1342694,91.1903749 C43.1471,90.1909168 43.9360123,89.4040188 44.6998139,88.6280276 C44.9073787,88.4171502 45.1104492,88.2097059 45.33775,87.9769601 C51.3890149,82.11095 55.348935,77.488444 58.1745776,72.4995879 C60.3697124,68.6682866 61.6863222,64.4347079 62.1463267,59.865413 C59.6769749,60.7178338 57.0482562,61.0916694 54.3478054,60.9880631 C52.4991906,60.9285884 50.9466661,59.97081 49.9993721,58.3758395 C49.0604472,56.8726139 48.5527482,55.3682475 47.8635345,52.5588601 C47.8321617,52.4309777 47.8041193,52.3161322 47.7453541,52.0751829 C47.3189121,50.3273952 47.0977192,49.5247643 46.7622055,48.6272893 C46.5242722,47.9528506 46.256113,47.3597027 45.7408794,46.3200991 C45.4677954,45.7695018 45.4061368,45.6442953 45.3470195,45.5230279 C44.5898856,43.969916 44.1881093,42.8836745 43.9995553,41.6125241 C43.7289971,40.1213026 43.9926445,38.6045597 44.73078,37.2454609 C45.5924304,35.7779613 46.4690159,34.4639955 47.9619372,32.3381205 C48.3589463,31.773585 48.3589463,31.773585 48.4911039,31.5858096 C51.804071,26.8781122 53.1650696,24.6183775 54.1518472,21.7118871 C55.4324591,18.0626961 56.4385569,15.9411575 58.1070192,13.8611538 C59.7004151,11.8482032 62.0420969,10.4484427 64.5364665,10.0850439 C65.5765208,9.8961873 66.5659365,10.0133701 67.7673517,10.3701933 C68.0884845,10.4655705 68.292666,10.5333004 68.9078522,10.7433491 C70.052029,11.134016 70.5949485,11.2804502 71.2176809,11.3301367 L72.5261925,11.4345401 C75.574871,8.45162753 77.4947316,7.03290814 80.2206536,6.12703954 C83.557865,5.10292756 86.2532403,5.19898752 88.3050515,7.06731637 Z M125.954532,122.925885 C127.272448,131.230066 128.194591,134.956617 130.442299,139.290666 L130.981296,140.329964 L130.025527,141.008538 C129.505594,141.377678 128.999503,141.765452 128.305192,142.318938 C128.146074,142.445783 127.532773,142.937522 127.385151,143.055253 C125.174961,144.817911 123.766397,145.730427 121.871219,146.432484 L120.813482,146.824316 L120.2378,145.856452 C117.046765,140.49154 116.473646,133.930569 118.296145,127.366791 C118.653209,126.094943 119.126574,124.973254 119.921959,123.376679 C120.051282,123.117089 120.536731,122.155536 120.488825,122.250739 C120.752263,121.727213 120.941515,121.341969 121.111455,120.980487 C121.44398,120.23429 121.903947,119.637918 122.646877,118.876375 C122.760888,118.759508 122.851962,118.668059 123.05824,118.462328 L124.906479,116.61899 L125.346759,119.188614 C125.522625,120.21503 125.623535,120.840276 125.954532,122.925885 Z M111.552444,137.002593 C112.570777,136.579412 113.396437,136.481106 115.150323,136.4334 C116.164357,136.405844 116.583688,136.378533 117.054834,136.291973 L118.377982,136.048882 L118.628082,137.367337 C118.710963,137.804258 118.774889,138.184708 118.89427,138.929741 C118.958945,139.333361 118.97153,139.411553 119.000449,139.587799 C119.197915,140.791263 119.360078,141.571636 119.573663,142.270255 C119.786415,142.906818 120.143131,143.415376 120.89086,144.212449 C120.955571,144.281431 121.023829,144.353467 121.111778,144.445745 C121.142608,144.478092 121.299386,144.642304 121.344176,144.689327 L122.610424,146.018685 L120.96067,146.827888 C118.350895,148.107981 115.328819,148.777773 111.517039,149.118221 L110.751568,149.186589 L110.301114,148.565555 C108.555436,146.158809 107.996963,142.885793 108.775973,139.949962 C109.095128,138.54111 110.0724,137.635142 111.552444,137.002593 Z M100.539309,138.683199 C101.395582,139.451801 101.655497,140.340578 101.726102,141.713718 C101.730944,141.807882 101.733959,141.877051 101.740892,142.045585 C101.756442,142.423592 101.7664,142.58548 101.787535,142.75411 L102.337991,147.14608 L99.4259257,143.806084 C98.19654,142.396038 97.4710701,141.444525 96.8308861,140.295249 L95.8142611,138.470175 L97.9003891,138.296792 C97.9479395,138.29284 98.0133113,138.281161 98.1937912,138.243632 C98.2473543,138.232498 98.2473543,138.232498 98.3060816,138.220555 C99.2140203,138.03786 99.8674157,138.080098 100.539309,138.683199 Z M102.628864,139.431409 C103.431164,139.308306 104.164399,139.365571 105.149477,139.561013 C105.296839,139.59025 105.399685,139.611793 105.67383,139.670122 C106.782233,139.905954 107.259171,139.961373 107.820955,139.879378 L109.090687,139.694056 L109.342355,140.949057 C110.002505,144.241059 110.357353,145.671134 111.031182,147.368923 L111.932796,149.640647 L109.525038,149.190389 C105.000948,148.344372 102.282784,147.200686 100.577037,144.60408 L100.466501,144.435814 L100.410025,144.242697 C99.9695268,142.73642 100.664797,141.095874 101.849978,139.839958 L102.168918,139.501982 L102.628864,139.431409 Z" id="Combined-Shape" fill="#251F20" fill-rule="nonzero"></path>
                <path d="M87.4227848,8.08988764 C91.9741772,11.7303371 91.7488608,18.5168539 95.5792405,22.4269663 C96.7058228,23.4606742 98.3281013,24.6292135 99.9053165,24.6741573 C103.285063,24.4494382 106.709873,22.3820225 109.684051,20.8988764 C112.568101,19.4157303 116.218228,19.1910112 119.417722,18.9662921 C122.346835,18.741573 125.095696,19.8651685 126.988354,22.1123596 C130.773671,26.5168539 131.494684,32.494382 134.063291,37.5280899 C134.784304,38.8764045 135.775696,40.3146067 137.397975,40.5842697 C139.921519,40.988764 142.580253,39.5955056 145.013671,39.8651685 C145.96,40 146.906329,40.5842697 147.717468,40.988764 C145.464304,42.4719101 143.211139,43.7752809 141.453671,45.9325843 C142.895696,45.2134831 144.202532,44.4044944 145.68962,43.8202247 C148.032911,42.8314607 150.556456,42.5168539 152.899747,41.5730337 C154.882532,40.5842697 157.586329,41.6629213 158.397468,43.7303371 C158.848101,44.8089888 158.803038,46.0674157 158.848101,47.2359551 C158.848101,48.7640449 158.848101,50.1573034 158.352405,51.6404494 C157.541266,54.1573034 155.693671,56.494382 154.296709,58.7865169 C155.648608,62.3820225 155.558481,65.4831461 154.161519,69.0337079 C152.899747,68.8539326 151.592911,68.7191011 150.331139,68.5393258 C149.204557,67.1910112 148.032911,66.0674157 146.455696,65.258427 C147.537215,64.494382 148.528608,63.7303371 149.069367,62.4719101 C150.150886,60.2247191 149.79038,57.8426966 149.24962,55.505618 C150.105823,54.247191 151.007089,53.258427 152.358987,52.494382 C152.629367,53.5730337 152.854684,54.6966292 153.170127,55.7752809 C153.846076,55.7303371 153.936203,54.9213483 154.026329,54.4269663 C154.026329,53.4382022 153.981266,52 153.125063,51.3258427 C152.404051,50.6966292 151.367595,50.247191 150.466329,50.8314607 C147.852658,52.4044944 145.644557,55.6404494 142.67038,56.9438202 C141.318481,57.5730337 140.011646,57.3932584 138.56962,57.3483146 C138.614684,55.2808989 138.659747,53.3033708 137.848608,51.3258427 C137.217722,49.6629213 136.136203,48.3595506 134.829367,47.1460674 C135.370127,49.1685393 136.406582,50.9662921 137.082532,52.9438202 C137.397975,54.0674157 137.533165,55.8202247 136.631899,56.7191011 C135.460253,58.0674157 133.252152,58.4269663 131.539747,58.6067416 C126.177215,59.0561798 121.17519,56.5842697 116.894177,53.7078652 C115.091646,52.5842697 113.289114,50.8314607 111.261266,50.3370787 C109.548861,49.8876404 107.475949,49.8426966 105.853671,50.6966292 C101.978228,52.6741573 98.6886076,56.0449438 96.9762025,60.0449438 C98.8688608,59.0561798 99.68,57.4382022 101.212152,56 C102.654177,54.6067416 104.321519,53.2134831 106.124051,52.3595506 C107.025316,51.8651685 108.242025,52.5842697 109.098228,52.8539326 C110.990886,53.7078652 113.424304,54.741573 114.100253,56.8539326 C115.271899,60.1348315 116.218228,63.4157303 117.88557,66.6067416 C118.741772,68.3595506 120.499241,69.5730337 121.941266,70.8314607 C120.499241,71.6404494 119.102278,72.3595506 117.88557,73.5280899 C116.668861,74.6966292 115.902785,76.0449438 115.046582,77.4831461 C111.486582,76.988764 108.196962,77.6179775 104.862278,78.9213483 C107.340759,78.7865169 109.774177,78.1123596 112.207595,78.247191 C113.78481,78.3370787 115.136709,79.1460674 116.623797,79.7303371 C116.533671,78.4269663 116.037975,77.3033708 117.119494,76.2696629 C119.192405,74.247191 121.400506,71.7752809 124.104304,70.6516854 C125.951899,69.8426966 127.88962,70.741573 129.466835,69.7078652 C131.900253,68.3146067 133.883038,66.1573034 135.14481,63.6404494 C135.820759,62.247191 136.001013,60.8539326 136.451646,59.4157303 C136.812152,58.4719101 138.254177,58.2921348 138.749873,59.2359551 C139.380759,60.4044944 140.327089,61.752809 140.462278,63.1011236 C139.606076,64.1348315 138.97519,64.6292135 139.020253,66.0674157 C139.561013,65.8426966 140.101772,65.5730337 140.642532,65.3483146 C143.571646,65.752809 146.275443,66.2921348 148.438481,68.494382 C144.022278,69.7078652 138.885063,70.1123596 135.14481,73.1235955 C133.477468,74.4269663 132.711392,76.2247191 132.080506,78.2022472 C129.647089,78.5168539 126.943291,78.7865169 124.73519,79.8651685 C123.473418,80.4494382 122.707342,81.4382022 121.851139,82.4269663 C125.050633,80.5393258 128.385316,79.2359551 132.12557,79.3258427 C133.522532,80.3595506 134.604051,81.7078652 136.136203,82.6067416 C139.606076,84.8089888 143.526582,85.3483146 147.582278,85.2134831 C143.932152,89.6629213 139.020253,93.752809 133.297215,95.0561798 C127.664304,96.4494382 121.265316,93.5280899 115.812658,94.4269663 C113.379241,94.741573 112.027342,96.8089888 110.49519,98.4719101 C103.915949,106.202247 100.130633,115.05618 96.3002532,124.359551 C94.5878481,128.539326 93.8668354,133.52809 95.0835443,137.932584 C95.7144304,140.404494 97.2916456,142.516854 99.0941772,144.269663 C102.023291,147.011236 105.988861,149.033708 109.909367,149.842697 C113.829873,150.292135 118.155949,148.58427 121.715949,147.101124 C124.284557,146.11236 125.996962,144.359551 128.250127,142.786517 C132.395949,139.685393 137.217722,136.404494 142.354937,135.370787 C145.644557,134.651685 149.069367,135.05618 152.133671,136.314607 C154.386835,137.213483 154.386835,139.910112 157.000506,140 C156.279494,138.921348 155.513418,137.88764 154.702278,136.853933 C154.747342,136.359551 154.747342,135.820225 154.792405,135.325843 C156.279494,134.876404 157.901772,134.202247 159.478987,134.202247 C160.921013,134.337079 162.498228,135.191011 163.084051,136.58427 C163.805063,138.202247 163.850127,140.224719 163.714937,141.977528 C163.62481,143.05618 162.903797,144 161.912405,144.494382 C160.06481,145.438202 157.901772,145.573034 155.873924,145.393258 C150.871899,144.808989 146.681013,142.202247 141.814177,141.52809 C137.938734,140.853933 133.342278,143.910112 132.711392,147.820225 C134.018228,145.932584 135.460253,144.089888 137.848608,143.640449 C142.309873,143.011236 145.82481,144.719101 149.880506,146.11236 C147.356962,149.797753 144.563038,153.662921 141.048101,156.494382 C139.515949,157.797753 137.803544,158.337079 136.001013,159.05618 C132.756456,160.539326 128.475443,159.820225 125.185823,158.786517 C127.348861,157.258427 129.241519,155.505618 131.404557,154.022472 C132.891646,152.988764 134.558987,152.539326 136.271392,151.955056 C134.423797,151.41573 132.846582,152.134831 131.179241,152.853933 C126.402532,155.011236 123.157975,158.696629 118.381266,160.764045 C114.821266,162.247191 111.756962,164.224719 107.971646,165.033708 C106.259241,165.303371 104.366582,165.52809 102.699241,164.808989 C98.3281013,162.966292 93.956962,161.303371 90.1265823,158.47191 C88.9549367,157.573034 87.5579747,157.168539 86.2511392,156.494382 C84.4035443,155.191011 83.8627848,152.134831 82.5559494,150.337079 C79.4465823,146.382022 74.3544304,143.505618 69.2172152,144.988764 C69.1270886,145.303371 69.036962,145.662921 68.9468354,145.977528 C70.7493671,145.932584 72.3265823,145.707865 74.0840506,146.247191 C78.5002532,147.460674 81.88,150.966292 82.7812658,155.460674 C81.4293671,154.921348 80.2577215,154.292135 78.7706329,154.382022 C76.2470886,154.47191 74.0840506,155.820225 71.5605063,156.179775 C67.2344304,156.94382 63.8096203,159.146067 59.3934177,159.505618 C53.5802532,160.134831 46.7756962,159.910112 41.5032911,157.168539 C37.2222785,154.786517 33.2567089,151.550562 30.3726582,147.595506 C24.8298734,139.820225 23.0724051,130.202247 24.1989873,120.808989 C24.9650633,115.955056 26.9478481,111.460674 29.6065823,107.370787 C34.3382278,100.134831 40.3316456,95.0561798 46.28,88.9438202 C51.1017722,84.2696629 56.0136709,79.0561798 59.3483544,73.1685393 C61.8718987,68.7640449 63.2237975,63.9550562 63.5843038,58.9213483 C66.9640506,57.5280899 69.8931646,55.505618 72.6420253,53.2134831 C74.2192405,51.8202247 75.8865823,50.741573 76.6977215,48.7640449 C79.2212658,43.2808989 78.5002532,37.7078652 79.4465823,32 C79.716962,30.4269663 80.0324051,28.6741573 80.8435443,27.2359551 C81.6546835,25.8876404 82.9164557,24.7640449 84.5837975,24.8988764 C87.4227848,24.7640449 90.0364557,27.505618 92.6050633,28.5842697 C92.6501266,27.1460674 91.2982278,26.5617978 90.3068354,25.752809 C88.2789873,24.3595506 85.6653165,22.8764045 83.0967089,23.5955056 C81.0237975,24.0898876 79.9422785,26.0224719 78.9959494,27.7303371 C76.6526582,32.5842697 77.1483544,38.2921348 75.7513924,43.3707865 C75.1205063,45.6179775 74.5797468,47.9550562 73.3179747,49.9325843 C71.2450633,53.2134831 67.9103797,55.5955056 64.5306329,57.3483146 C61.3762025,59.0561798 57.9063291,59.7752809 54.3913924,59.6404494 C52.9944304,59.5955056 51.8678481,58.8764045 51.1468354,57.6629213 C49.4344304,54.9213483 49.1640506,51.1910112 48.0374684,48.1797753 C47.1812658,45.752809 45.6941772,43.8651685 45.3336709,41.3932584 C45.1083544,40.1797753 45.3336709,38.9662921 45.9194937,37.8876404 C48.9837975,32.6741573 53.4901266,27.8651685 55.4278481,22.1573034 C56.3741772,19.4606742 57.3655696,16.9438202 59.1681013,14.6966292 C60.52,12.988764 62.5478481,11.7303371 64.7559494,11.4157303 C66.9189873,11.011236 68.8567089,12.494382 71.1098734,12.6741573 C69.7579747,14.5617978 67.64,15.4157303 66.558481,17.4382022 C68.7665823,17.0337079 70.0283544,15.5505618 71.6956962,14.1573034 C74.3544304,11.5505618 76.9681013,8.62921348 80.6182278,7.41573034 C82.961519,6.69662921 85.5751899,6.38202247 87.4227848,8.08988764 Z" id="Shape" fill="#FDBE10" fill-rule="nonzero"></path>
                <path d="M143.075949,9.66292135 C141.769114,10.5617978 140.597468,11.1460674 140.282025,12.8988764 C142.53519,11.5955056 144.157468,9.93258427 146.906329,9.61797753 C149.339747,9.34831461 152.67443,9.30337079 154.341772,11.4606742 C156.820253,14.2022472 159.343797,17.3033708 162.948861,18.6067416 C165.562532,19.5955056 168.086076,18.3820225 170.654684,19.7303371 C170.068861,21.3033708 169.437975,22.7865169 168.176203,23.9101124 C166.283544,25.5730337 163.940253,26.741573 161.777215,27.8651685 C159.208608,28.9438202 156.009114,29.7977528 153.21519,29.2134831 C150.962025,28.7191011 149.79038,27.1011236 148.393418,25.4382022 C147.131646,23.8651685 145.68962,22.4719101 144.112405,21.1685393 C144.743291,20.8539326 145.374177,20.494382 145.96,20.1797753 C145.509367,20 145.058734,19.7752809 144.608101,19.5955056 C143.526582,19.9101124 142.039494,20.0898876 141.228354,20.8988764 C139.335696,22.6067416 138.299241,24.9438202 137.848608,27.4157303 C137.217722,30.8764045 137.443038,34.1573034 137.217722,37.6179775 C134.333671,34.4269663 133.207089,29.752809 131.404557,25.8876404 C130.368101,23.4606742 128.835949,21.3483146 127.123544,19.3707865 C131.269367,16.9438202 132.621266,12.8539326 136.001013,9.79775281 C138.073924,7.91011236 140.822785,8.40449438 143.075949,9.66292135 Z" id="Shape" fill="#FDBE10" fill-rule="nonzero"></path>
                <path d="M94.9934177,26.6516854 C93.9118987,28.3595506 92.6951899,29.8876404 91.7488608,31.7303371 C90.9827848,33.1685393 90.5321519,34.6067416 89.9913924,36.0898876 C89.4956962,32.494382 91.5235443,30.0224719 93.9118987,27.5955056 C94.2273418,27.2808989 94.6329114,26.9662921 94.9934177,26.6516854 Z" id="Shape" fill="#251F20" fill-rule="nonzero"></path>
                <path d="M116.758987,37.258427 C120.679494,39.2808989 123.428354,43.8651685 126.357468,47.011236 C127.258734,48.1348315 128.385316,48.7640449 128.29519,50.3820225 C123.698734,48.0449438 121.896203,42.8314607 117.61519,40 C115.767595,38.8314607 113.604557,38.5617978 111.531646,39.3258427 C107.250633,41.0786517 103.465316,43.9550562 101.843038,48.4494382 C101.167089,48.3595506 100.536203,48.2247191 99.9053165,48.1348315 C102.068354,44.4494382 104.862278,40.7640449 108.602532,38.5617978 C110.900759,37.1235955 114.05519,36.5842697 116.758987,37.258427 Z" id="Shape" fill="#251F20" fill-rule="nonzero"></path>
                <path d="M147.492152,55.7303371 C148.032911,57.5280899 148.348354,59.9101124 147.356962,61.5730337 C146.050127,63.3258427 144.022278,63.4157303 142.039494,63.7752809 C141.904304,63.2808989 141.769114,62.8314607 141.633924,62.3370787 C142.625316,62.4269663 143.211139,62.5617978 143.977215,61.7977528 C145.419241,60.7640449 145.013671,58.8314607 145.419241,57.3033708 C145.644557,56.4044944 146.771139,56.1348315 147.492152,55.7303371 Z" id="Shape" fill="#FFFFFF" fill-rule="nonzero"></path>
                <path d="M120.859747,58.9662921 C121.44557,58.5617978 122.121519,59.2808989 122.346835,59.8202247 C121.670886,60.4494382 120.364051,59.9101124 120.859747,58.9662921 Z" id="Shape" fill="#FFFFFF" fill-rule="nonzero"></path>
                <path d="M124.19443,59.8651685 L124.73519,60 C124.915443,61.258427 123.924051,61.8426966 123.157975,62.6516854 C123.473418,61.7078652 123.788861,60.7640449 124.19443,59.8651685 Z" id="Shape" fill="#FFFFFF" fill-rule="nonzero"></path>
                <path d="M134.423797,60.4494382 C134.333671,62.9662921 132.801519,64.4494382 131.44962,66.4269663 C130.818734,67.3707865 129.511899,67.9101124 128.610633,68.5393258 C126.357468,68.6292135 123.022785,69.0786517 121.130127,67.505618 C119.643038,65.9775281 118.651646,63.9550562 117.434937,62.1573034 C118.471392,63.011236 119.552911,64.1348315 120.76962,64.7191011 C121.941266,65.258427 123.383291,65.258427 124.239494,64.1797753 C125.230886,63.1460674 125.951899,60.8988764 127.438987,60.5842697 C129.917468,60.7191011 132.035443,61.3932584 134.423797,60.4494382 Z" id="Shape" fill="#FFFFFF" fill-rule="nonzero"></path>
                <path d="M60.9706329,60.8988764 C61.0156962,62.5617978 61.0607595,64.1348315 60.4749367,65.7078652 C59.0779747,69.2134831 57.8612658,72.7191011 55.8334177,75.9101124 C53.9407595,79.4606742 51.236962,82.3820225 48.3529114,85.1235955 C50.155443,77.8426966 53.084557,70.8314607 56.9149367,64.3595506 C57.8612658,62.6966292 59.438481,62.0224719 60.9706329,60.8988764 Z" id="Shape" fill="#FDBE10" fill-rule="nonzero"></path>
                <path d="M54.3012658,65.3483146 C53.4450633,67.8651685 52.4086076,70.1573034 50.9665823,72.3595506 C48.443038,77.5730337 47.5417722,83.5955056 45.0632911,88.8089888 C46.3701266,80.6292135 49.1640506,72 54.3012658,65.3483146 Z" id="Shape" fill="#FFFFFF" fill-rule="nonzero"></path>
                <path d="M36.4562025,70.7865169 C36.0506329,72.988764 36.2308861,74.6516854 36.8617722,76.8089888 C35.4648101,79.8651685 33.8875949,82.8764045 32.5807595,85.9775281 C31.724557,88.0898876 30.2825316,90.0224719 28.9756962,91.8651685 C28.0744304,92.988764 27.5336709,94.2022472 25.8663291,94.0674157 C28.5701266,91.1460674 31.0936709,88.2696629 32.4005063,84.4044944 C33.3918987,81.4382022 34.6086076,78.5168539 35.6901266,75.5955056 C35.3296203,75.1460674 35.0141772,74.6966292 34.6536709,74.247191 C33.8425316,76.1797753 33.3918987,78.1573034 32.5356962,80.0898876 C31.0936709,83.2359551 29.0207595,86.2022472 27.3083544,89.258427 C22.3964557,86.7865169 19.2420253,81.8426966 15.8172152,77.6629213 C20.3686076,78.8314607 23.4779747,82.247191 27.8491139,83.6853933 C29.561519,82.9662921 30.8683544,82.4269663 31.4992405,80.494382 C30.3726582,79.5955056 29.2911392,78.741573 27.9392405,78.2022472 C24.6496203,76.9438202 21.044557,76.8988764 17.7098734,75.6853933 C21.7205063,75.8202247 25.7311392,76.3595506 29.7417722,76.6292135 C30.5979747,76.7191011 31.2739241,76.4494382 32.0850633,76.1348315 C30.1022785,74.5617978 28.0744304,75.1460674 25.7311392,74.6067416 C29.6065823,73.8426966 33.2567089,73.3932584 36.4562025,70.7865169 Z" id="Shape" fill="#FFFFFF" fill-rule="nonzero"></path>
                <path d="M142.039494,75.6853933 C143.571646,75.4157303 145.193924,75.5505618 146.771139,75.5955056 C146.771139,76.3146067 146.816203,77.0337079 146.816203,77.752809 C144.292658,78.9213483 141.048101,79.8202247 139.020253,77.3483146 C139.966582,76.5842697 140.822785,75.9101124 142.039494,75.6853933 Z" id="Shape" fill="#FFFFFF" fill-rule="nonzero"></path>
                <path d="M161.011139,76.6292135 C164.255696,77.0337079 165.382278,79.505618 167.18481,81.7977528 C168.086076,83.011236 167.995949,84.6741573 167.815696,86.0674157 C167.59038,87.1460674 167.04962,87.8202247 166.103291,88.3146067 C163.35443,89.8876404 159.569114,90.2022472 156.594937,89.1235955 C155.017722,88.5842697 153.891139,87.1910112 152.358987,86.6067416 C151.547848,86.5168539 150.736709,86.4719101 149.92557,86.4269663 C151.683038,84.4494382 153.755949,83.3258427 155.828861,81.6179775 C157.721519,80.1797753 159.343797,78.4269663 161.011139,76.6292135 Z" id="Shape" fill="#FDBE10" fill-rule="nonzero"></path>
                <path d="M130.052658,83.8202247 C130.818734,83.7752809 131.224304,84.9438202 131.58481,85.4831461 C130.953924,85.8876404 130.323038,86.247191 129.692152,86.6516854 C129.511899,86.2022472 129.331646,85.7977528 129.151392,85.3483146 C129.421772,84.8089888 129.692152,84.2696629 130.052658,83.8202247 Z" id="Shape" fill="#251F20" fill-rule="nonzero"></path>
                <path d="M148.844051,86.9662921 C151.728101,88.2696629 153.530633,90.6966292 156.50481,91.9101124 C157.315949,92.3595506 158.172152,92.3146067 158.127089,93.4831461 C158.217215,95.0561798 157.090633,95.6853933 156.009114,96.5393258 C155.243038,96.4494382 154.522025,96.3595506 153.755949,96.2696629 C153.846076,94.8764045 154.161519,93.5280899 154.206582,92.1348315 C153.936203,91.5955056 153.48557,91.1011236 153.08,90.6516854 C152.80962,92.1797753 152.854684,93.752809 152.67443,95.3258427 C152.584304,96.2247191 152.133671,97.0337079 151.277468,97.3483146 C149.565063,97.8426966 147.492152,97.3033708 145.779747,97.0337079 C145.419241,95.1460674 145.284051,93.3033708 144.382785,91.505618 C145.644557,89.7977528 147.131646,88.3146067 148.844051,86.9662921 Z" id="Shape" fill="#FFFFFF" fill-rule="nonzero"></path>
                <path d="M125.411139,88.6292135 C126.267342,88.8089888 125.726582,89.8426966 125.050633,89.3932584 C124.825316,89.0337079 124.960506,88.7640449 125.411139,88.6292135 Z" id="Shape" fill="#251F20" fill-rule="nonzero"></path>
                <path d="M130.863797,89.258427 C132.080506,89.0337079 131.72,90.5168539 131.494684,91.1910112 C130.863797,91.1910112 130.458228,91.0561798 130.007595,90.6067416 C129.782278,89.9775281 130.277975,89.2134831 130.863797,89.258427 Z" id="Shape" fill="#251F20" fill-rule="nonzero"></path>
                <path d="M163.62481,90.6966292 C163.62481,92.1348315 163.714937,93.4831461 163.084051,94.7865169 C162.227848,96.6292135 160.830886,98.1573034 159.343797,99.5505618 C159.118481,96.988764 159.388861,94.4269663 159.163544,91.8202247 C160.650633,91.505618 162.137722,91.0561798 163.62481,90.6966292 Z" id="Shape" fill="#FFFFFF" fill-rule="nonzero"></path>
                <path d="M143.616709,91.4606742 C144.202532,93.752809 144.517975,96.0449438 144.427848,98.3820225 C143.301266,99.011236 142.26481,99.6853933 140.957975,99.9550562 C139.11038,100.314607 137.443038,99.9101124 135.640506,99.6404494 C135.325063,98.1573034 134.784304,96.8988764 136.136203,95.7303371 C138.479494,93.9775281 141.453671,93.7078652 143.616709,91.4606742 Z" id="Shape" fill="#FFFFFF" fill-rule="nonzero"></path>
                <path d="M118.381266,96 C120.724557,96.0449438 123.067848,96.4044944 125.411139,96.7191011 C125.906835,100.808989 126.898228,104.719101 126.898228,108.853933 C125.050633,107.955056 123.293165,107.011236 121.986329,105.348315 C119.778228,102.651685 118.786835,99.4157303 118.381266,96 Z" id="Shape" fill="#FFFFFF" fill-rule="nonzero"></path>
                <path d="M157.856709,96.0449438 C157.946835,98.0224719 157.811646,99.8651685 157.451139,101.842697 C157.946835,102.022472 158.442532,102.247191 158.938228,102.382022 C159.79443,101.88764 160.47038,100.94382 161.146329,100.224719 C160.830886,104.404494 160.60557,109.573034 163.444557,112.988764 C166.824304,116.94382 170.158987,120.764045 171.646076,125.932584 C172.547342,129.617978 172.276962,133.573034 170.74481,137.078652 C167.860759,144 162.453165,149.932584 156.144304,153.977528 C154.522025,155.05618 152.80962,154.966292 150.916962,155.280899 C149.11443,155.550562 147.402025,155.460674 145.644557,155.05618 C146.996456,153.52809 148.168101,151.910112 149.339747,150.247191 C150.421266,148.719101 151.773165,147.101124 153.710886,146.876404 C155.918987,146.876404 157.811646,147.640449 160.06481,147.05618 C162.813671,146.516854 164.616203,144.314607 165.787848,141.932584 C166.91443,139.370787 165.968101,136.719101 164.481013,134.561798 C163.534684,133.168539 162.182785,132.539326 160.695696,131.820225 C160.154937,128.359551 159.388861,124.94382 158.532658,121.573034 C157.090633,118.202247 155.243038,115.101124 151.863291,113.393258 C151.367595,113.977528 150.736709,114.247191 150.781772,115.146067 C150.736709,119.101124 150.781772,122.921348 149.745316,126.831461 C148.708861,125.213483 147.717468,123.640449 147.041519,121.797753 C146.275443,119.730337 146.320506,117.393258 147.131646,115.325843 C149.069367,110.067416 150.376203,104.539326 153.846076,100 C154.927595,98.3820225 156.279494,97.1235955 157.856709,96.0449438 Z" id="Shape" fill="#FDBE10" fill-rule="nonzero"></path>
                <path d="M134.063291,96.5842697 C134.198481,97.9775281 135.234937,100.674157 134.018228,101.752809 C132.486076,103.011236 129.511899,102.337079 127.664304,102.202247 C127.574177,100.449438 127.438987,98.6516854 127.348861,96.8988764 C129.602025,96.8089888 131.810127,96.6741573 134.063291,96.5842697 Z" id="Shape" fill="#FFFFFF" fill-rule="nonzero"></path>
                <path d="M95.0835443,110.067416 C90.8926582,118.651685 86.2511392,126.786517 85.8906329,136.629213 C86.0708861,139.730337 87.1524051,143.505618 89.6759494,145.573034 C91.0729114,146.741573 92.6050633,146.786517 94.1822785,147.460674 C94.5427848,148.674157 94.0921519,149.483146 92.8303797,149.617978 C90.396962,149.573034 88.0536709,147.325843 86.6116456,145.573034 C84.358481,140.988764 84.0881013,135.370787 85.2597468,130.426966 C86.9270886,123.05618 91.2081013,116.449438 95.0835443,110.067416 Z" id="Shape" fill="#251F20" fill-rule="nonzero"></path>
                <path d="M20.3235443,110.921348 C21.044557,114.876404 21.675443,118.696629 20.9544304,122.696629 C20.7741772,120.988764 20.5488608,119.325843 20.0531646,117.662921 C19.4222785,118.292135 18.9265823,119.191011 17.9351899,119.370787 C15.7270886,119.910112 13.4739241,120.359551 11.2658228,120.898876 C11.6713924,121.707865 11.8967089,122.516854 12.7979747,122.966292 C14.0146835,123.640449 15.2764557,124.314607 16.5382278,125.033708 C17.7098734,125.707865 19.2420253,125.123596 20.5037975,124.898876 C20.5488608,125.573034 20.5488608,126.202247 20.5939241,126.876404 C17.8450633,126.921348 15.1412658,126.786517 12.5275949,125.932584 C10.4096203,125.213483 8.06632911,124.089888 6.98481013,122.067416 C8.38177215,121.168539 7.84101266,119.505618 9.05772152,118.651685 C12.6627848,115.955056 16.5382278,113.483146 20.3235443,110.921348 Z" id="Shape" fill="#FFFFFF" fill-rule="nonzero"></path>
                <path d="M152.404051,116.044944 C153.620759,117.258427 154.747342,118.47191 155.558481,120 C157.451139,123.550562 157.901772,127.41573 158.352405,131.325843 C156.099241,131.640449 154.837468,133.213483 152.899747,134.11236 C151.908354,134.606742 150.962025,133.842697 150.060759,133.52809 C151.277468,127.730337 151.998481,121.88764 152.404051,116.044944 Z" id="Shape" fill="#FFFFFF" fill-rule="nonzero"></path>
                <path d="M124.014177,119.41573 C125.230886,126.516854 125.861772,133.393258 129.241519,139.910112 C126.582785,141.797753 124.554937,144 121.400506,145.168539 C118.246076,139.865169 117.975696,133.573034 119.597975,127.730337 C120.228861,125.483146 121.355443,123.640449 122.346835,121.52809 C122.707342,120.719101 123.338228,120.089888 124.014177,119.41573 Z" id="Shape" fill="#FFFFFF" fill-rule="nonzero"></path>
                <path d="M144.698228,131.146067 C145.509367,131.191011 146.36557,131.191011 147.131646,131.41573 C147.447089,131.820225 147.672405,132.314607 147.897722,132.764045 C146.816203,132.808989 145.68962,132.808989 144.608101,132.808989 C144.653165,132.269663 144.698228,131.730337 144.698228,131.146067 Z" id="Shape" fill="#FFFFFF" fill-rule="nonzero"></path>
                <path d="M142.760506,131.910112 C142.895696,132.359551 143.030886,132.764045 143.211139,133.213483 C141.273418,133.797753 139.290633,134.292135 137.307848,134.741573 C137.262785,133.977528 136.992405,133.123596 137.217722,132.359551 C138.659747,131.370787 141.048101,132 142.760506,131.910112 Z" id="Shape" fill="#FFFFFF" fill-rule="nonzero"></path>
                <path d="M133.837975,132.58427 C135.41519,132.764045 136.361519,134.966292 135.00962,136.044944 C133.612658,137.033708 132.035443,137.617978 130.728608,138.741573 C129.917468,137.303371 129.331646,135.865169 128.881013,134.247191 C130.458228,133.348315 131.99038,132.404494 133.837975,132.58427 Z" id="Shape" fill="#FFFFFF" fill-rule="nonzero"></path>
                <path d="M117.299747,137.617978 C117.61519,139.280899 117.795443,141.078652 118.291139,142.696629 C118.696709,143.910112 119.507848,144.719101 120.364051,145.617978 C117.61519,146.966292 114.415696,147.505618 111.396456,147.775281 C109.864304,145.662921 109.413671,142.786517 110.08962,140.269663 C110.314937,139.235955 111.126076,138.651685 112.072405,138.247191 C113.694684,137.573034 115.587342,137.932584 117.299747,137.617978 Z" id="Shape" fill="#FFFFFF" fill-rule="nonzero"></path>
                <path d="M99.6349367,139.685393 C100.536203,140.494382 100.310886,141.842697 100.446076,142.921348 C99.5448101,141.88764 98.6886076,140.853933 98.0126582,139.640449 C98.5534177,139.595506 99.1843038,139.280899 99.6349367,139.685393 Z" id="Shape" fill="#FFFFFF" fill-rule="nonzero"></path>
                <path d="M102.83443,140.764045 C104.591899,140.494382 106.169114,141.483146 108.016709,141.213483 C108.467342,143.460674 108.917975,145.707865 109.774177,147.865169 C106.890127,147.325843 103.420253,146.47191 101.707848,143.865169 C101.392405,142.786517 102.113418,141.52809 102.83443,140.764045 Z" id="Shape" fill="#FFFFFF" fill-rule="nonzero"></path>
                <path d="M32.8511392,155.865169 C33.3918987,157.078652 33.6172152,158.202247 34.6987342,159.05618 C36.1407595,160.314607 37.5377215,161.573034 39.0698734,162.741573 C38.078481,162.831461 37.4025316,162.921348 36.681519,163.685393 C33.5721519,166.741573 29.876962,168.674157 26.4972152,171.41573 C27.398481,171.820225 28.3448101,172.269663 29.2010127,172.808989 C27.9392405,172.94382 26.6774684,172.898876 25.3706329,172.853933 C25.1002532,172.539326 24.7848101,172.224719 24.5144304,171.955056 C25.2805063,169.303371 26.4972152,166.831461 28.0293671,164.539326 C29.5164557,162.202247 31.3189873,160.089888 32.6258228,157.662921 C31.9048101,157.932584 31.1837975,158.247191 30.4627848,158.561798 C30.4177215,157.842697 30.3726582,157.078652 30.4627848,156.314607 C31.2739241,156.179775 32.0850633,156 32.8511392,155.865169 Z" id="Shape" fill="#FFFFFF" fill-rule="nonzero"></path>
                <path d="M36.1407595,157.438202 C38.7994937,158.561798 41.5934177,159.011236 44.4324051,159.325843 C45.964557,161.752809 47.8572152,163.460674 48.3078481,166.47191 C45.6040506,164.089888 45.0632911,160.94382 41.5483544,159.460674 C42.1792405,161.348315 43.6663291,162.426966 44.7027848,164.044944 C45.4237975,165.123596 46.3250633,166.382022 46.595443,167.685393 C46.7306329,168.404494 46.1898734,169.213483 45.964557,169.88764 C42.4496203,165.752809 40.1063291,161.168539 36.1407595,157.438202 Z" id="Shape" fill="#FFFFFF" fill-rule="nonzero"></path>
                <path d="M90.8025316,164.359551 C83.7726582,164.898876 76.6075949,163.41573 70.2086076,160.539326 C69.6678481,160.179775 68.9468354,160.134831 69.036962,159.280899 C76.3822785,156.404494 85.3048101,158.876404 90.8025316,164.359551 Z" id="Shape" fill="#FDBE10" fill-rule="nonzero"></path>
                <path d="M134.288608,163.280899 C134.829367,163.41573 135.370127,163.505618 135.865823,163.730337 C136.902278,166.292135 137.533165,169.213483 137.217722,172 C136.361519,170.606742 136.271392,169.258427 136.226329,167.640449 C136.181266,165.842697 135.189873,164.674157 134.288608,163.280899 Z" id="Shape" fill="#FFFFFF" fill-rule="nonzero"></path>
                <path d="M40.8273418,164.853933 C41.9539241,166.426966 43.3058228,167.820225 44.116962,169.617978 C43.0805063,169.078652 42.3144304,168.314607 41.5032911,167.460674 C37.8081013,169.258427 34.0678481,171.595506 30.0121519,172.494382 C33.0764557,170.651685 36.4111392,169.303371 39.5655696,167.595506 C40.6470886,166.966292 40.6470886,165.842697 40.8273418,164.853933 Z" id="Shape" fill="#FFFFFF" fill-rule="nonzero"></path>
                <path d="M131.539747,164.719101 C133.792911,167.460674 135.820759,170.157303 136.496709,173.752809 C133.657722,174.022472 131.44962,173.393258 128.971139,172 C127.438987,171.280899 125.906835,169.797753 124.19443,169.617978 C124.32962,170.561798 124.87038,171.280899 125.366076,172.089888 C124.19443,172.314607 123.067848,172.58427 121.941266,172.988764 C121.535696,170.696629 122.527089,169.258427 123.518481,167.325843 C126.357468,166.921348 128.835949,165.617978 131.539747,164.719101 Z" id="Shape" fill="#FFFFFF" fill-rule="nonzero"></path>
                <path d="M121.670886,167.011236 C121.400506,168.089888 121.04,169.123596 120.589367,170.11236 C120.63443,168.719101 120.093671,167.640449 121.670886,167.011236 Z" id="Shape" fill="#FFFFFF" fill-rule="nonzero"></path>
                <path d="M75.075443,172 C75.5711392,172 76.0668354,172 76.5174684,172 C78.8607595,172.314607 80.9336709,173.303371 83.276962,173.752809 C85.8906329,174.247191 88.5043038,175.370787 90.5321519,177.168539 C91.7488608,178.292135 92.0643038,179.685393 92.3346835,181.213483 C91.0278481,179.640449 89.8111392,178.067416 88.0987342,176.898876 C84.043038,174.067416 79.716962,173.213483 75.075443,172 Z" id="Shape" fill="#FFFFFF" fill-rule="nonzero"></path>
                <path d="M77.2835443,174.337079 C75.7513924,174.561798 74.1291139,174.516854 73.0475949,175.775281 C72.5518987,176.314607 72.6870886,176.94382 72.596962,177.617978 C72.2364557,178.11236 71.9210127,178.606742 71.5605063,179.05618 C70.5240506,177.752809 70.3437975,177.258427 70.4789873,175.550562 C72.6420253,174.247191 74.8050633,174.11236 77.2835443,174.337079 Z" id="Shape" fill="#FFFFFF" fill-rule="nonzero"></path>
                <path d="M75.7964557,177.033708 L76.0668354,176.94382 C78.7706329,176.898876 81.2941772,176.898876 83.6374684,178.426966 C82.7812658,179.05618 81.4744304,179.550562 81.2941772,180.764045 C80.8435443,183.05618 81.564557,185.348315 80.1675949,187.41573 C79.1311392,189.033708 78.4551899,190.382022 78.9058228,192.404494 C78.0496203,192.764045 77.1483544,193.078652 76.2921519,193.393258 C74.1741772,189.258427 73.2278481,184.808989 72.8673418,180.269663 C72.8673418,179.640449 72.6420253,178.651685 73.1377215,178.157303 C73.9939241,177.662921 74.8951899,177.348315 75.7964557,177.033708 Z" id="Shape" fill="#FFFFFF" fill-rule="nonzero"></path>
                <path d="M87.7832911,179.235955 C88.7296203,179.865169 89.6759494,180.224719 89.6759494,181.573034 C89.7660759,182.606742 88.9549367,182.426966 88.2789873,182.831461 C87.918481,182.47191 87.603038,182.11236 87.2875949,181.752809 C84.8992405,184.674157 84.3134177,187.910112 81.3392405,190.292135 C83.2318987,186.831461 85.44,183.820225 85.3048101,179.640449 C86.0708861,180.224719 86.8820253,180.808989 87.6481013,181.348315 C87.6931646,180.629213 87.7382278,179.955056 87.7832911,179.235955 Z" id="Shape" fill="#FFFFFF" fill-rule="nonzero"></path>
            </g>
        </g>
    </g>
</svg>