<?xml version="1.0" encoding="UTF-8"?>
<svg width="200px" height="200px" viewBox="0 0 200 200" version="1.1" xmlns="http://www.w3.org/2000/svg" xmlns:xlink="http://www.w3.org/1999/xlink">
    <!-- Generator: Sketch 54.1 (76490) - https://sketchapp.com -->
    <title>thiel</title>
    <desc>Created with Sketch.</desc>
    <g id="thiel" stroke="none" stroke-width="1" fill="none" fill-rule="evenodd">
        <g id="thiel_BGL">
            <g id="thiel" transform="translate(0.000000, 5.000000)">
                <path d="M147.971983,0.0517241379 C146.31681,9.01077586 145.385776,18.0689655 144.881466,27.1616379 C144.5625,31.5215517 144.362069,36 143.668103,40.3060345 C143.073276,44.3017241 141.971983,48.2327586 140.284483,51.9073276 C138.859914,54.9827586 137.090517,57.862069 135.088362,60.5926724 C145.655172,63.9547414 155.517241,69.575431 163.857759,76.875 C169.258621,81.6573276 174.05819,87.2650862 177.482759,93.6357759 C180.709052,99.6163793 182.622845,106.24569 182.698276,113.0625 C177.913793,111.5 173.168103,110.346983 168.103448,110.30819 C165.872845,110.409483 163.752155,110.702586 161.855603,111.967672 C168.05819,115.165948 173.064655,120.064655 177.096983,125.704741 C180.721983,130.786638 183.556034,136.461207 185.603448,142.353448 C187.150862,146.883621 188.323276,151.674569 188.588362,156.465517 C188.719828,159.331897 188.631466,162.506466 187.18319,165.068966 C185.269397,164.459052 183.37069,163.803879 181.456897,163.200431 C171.301724,159.918103 161.099138,157.439655 150.43319,156.584052 C143.170259,156.021552 135.868534,156.206897 128.661638,157.301724 C127.256466,155.418103 125.696121,153.681034 123.840517,152.230603 C122.31681,151.075431 120.633621,150.1875 118.709052,149.965517 C116.911638,149.801724 115.12069,150.508621 113.862069,151.790948 C111.984914,153.625 110.978448,156.329741 110.355603,158.829741 C109.549569,162.18319 109.301724,165.739224 109.321121,169.181034 C109.334052,173.237069 109.734914,177.30819 110.301724,181.323276 C106.676724,183.739224 103.112069,185.959052 98.9224138,187.286638 C93.0301724,189.215517 86.9267241,189.243534 80.8125,188.663793 C75,188.015086 69.3685345,186.767241 63.7392241,185.209052 C65.0646552,184.086207 66.5193966,182.982759 67.6487069,181.659483 C68.299569,180.868534 68.8146552,179.926724 68.575431,178.866379 C68.2952586,177.778017 67.3383621,177.073276 66.6422414,176.25 C64.8900862,174.228448 63.4310345,171.905172 62.0581897,169.612069 C60.7672414,167.400862 59.5474138,165.144397 58.4331897,162.840517 C56.4159483,161.864224 54.1594828,161.25 51.9913793,160.674569 C45.7262931,159.135776 39.1724138,158.295259 32.7564655,157.661638 C31.3469828,157.543103 29.9439655,157.443966 28.5538793,157.165948 C22.6422414,156.017241 16.8728448,153.887931 11.6810345,150.827586 C7.91810345,148.571121 4.20905172,145.612069 1.97844828,141.771552 C0.424568966,139.127155 -0.252155172,136.015086 0.243534483,132.971983 C0.4375,131.55819 1.03448276,130.273707 1.26508621,128.868534 C2.65948276,121.394397 4.98275862,114.109914 8.32974138,107.278017 C9.67456897,104.493534 11.1939655,101.829741 12.7392241,99.1551724 C13.3146552,98.1465517 13.9073276,97.1314655 14.3943966,96.0775862 C14.8663793,95.0646552 15.0258621,94.0086207 15.3405172,92.8965517 C16.6659483,88.174569 19.0172414,83.8426724 21.9827586,79.9568966 C25.875,74.8491379 30.862069,70.4267241 36.0086207,66.6185345 C41.3663793,62.6681034 47.1293103,59.1681034 52.9784483,55.9978448 C58.6336207,52.8577586 64.4676724,50.0301724 70.3017241,47.2392241 C79.987069,42.6702586 89.7715517,38.3146552 99.4698276,33.7693966 C105.538793,30.9202586 111.536638,27.9655172 117.424569,24.7543103 C124.571121,20.8275862 131.422414,16.6443966 137.681034,11.3814655 C141.614224,8.04310345 145.150862,4.39008621 147.971983,0.0517241379 Z" id="Shape" fill="#00183E" fill-rule="nonzero"></path>
                <path d="M137.793103,21.9116379 C138.040948,25.6810345 137.135776,29.4978448 135.810345,33.0043103 C133.420259,39.2974138 129.594828,45.1077586 125.165948,50.1487069 C127.603448,48.5560345 130.295259,47.6314655 132.375,45.737069 C133.206897,45.0107759 133.855603,44.1443966 134.487069,43.2456897 C133.655172,46.7413793 132.685345,50.0344828 130.622845,53.0301724 C129.247845,55.0883621 127.4375,56.7413793 125.418103,58.1508621 C123.963362,57.9762931 122.521552,57.7284483 121.075431,57.4956897 C114.323276,56.450431 107.646552,55.4612069 100.834052,54.862069 C102.885776,52.8771552 105.088362,51.0862069 107.428879,49.4525862 C113.329741,45.2823276 119.508621,42.2176724 125.741379,38.6530172 C127.637931,37.5366379 129.644397,36.3922414 131.327586,34.9827586 C131.980603,34.4353448 132.642241,33.8060345 133.071121,33.0646552 C133.396552,32.5301724 133.448276,31.8943966 133.549569,31.2909483 C132.323276,33.2176724 130.508621,34.2090517 128.564655,35.2737069 C125.329741,36.9806034 121.907328,38.3922414 118.564655,39.8814655 C112.80819,42.4331897 106.681034,45.0926724 101.530172,48.7349138 C99.0409483,50.512931 96.4051724,52.8405172 95.0797414,55.6487069 C93.9719828,58.0150862 93.9784483,60.5366379 94.9461207,62.9482759 C96.1573276,60.5086207 97.7155172,58.0193966 99.6896552,56.1293103 C100.428879,56.075431 101.211207,56.3275862 101.939655,56.4525862 C114.006466,58.7974138 125.743534,62.8728448 136.670259,68.5043103 C145.452586,73.0646552 153.75431,78.5862069 161.084052,85.2521552 C163.515086,87.5301724 165.948276,89.9224138 168.056034,92.5043103 C169.881466,94.7155172 171.678879,97.1659483 172.827586,99.8060345 C173.428879,101.18319 173.728448,102.538793 173.31681,104.023707 C169.836207,102.627155 165.984914,102.825431 162.325431,103.18319 C158.202586,103.678879 154.12069,104.614224 150.215517,106.032328 C147.329741,107.112069 144.293103,108.465517 141.911638,110.450431 C144.5,111.198276 147.034483,112.088362 149.454741,113.282328 C157.030172,116.905172 163.506466,122.594828 168.698276,129.146552 C172.706897,134.237069 176.056034,139.909483 178.403017,145.956897 C179.387931,148.564655 180.278017,151.318966 180.599138,154.096983 C179.6875,153.726293 178.788793,153.329741 177.887931,152.9375 C172.493534,150.640086 166.950431,148.849138 161.161638,147.862069 C151.56681,146.185345 142.096983,146.728448 132.530172,148.275862 C129.586207,145.232759 126.314655,142.478448 122.428879,140.721983 C119.260776,139.265086 115.756466,138.657328 112.282328,138.9375 C111.413793,139.021552 110.329741,139.034483 109.592672,139.553879 C108.765086,140.122845 108.094828,140.980603 107.547414,141.814655 C106.4375,143.534483 105.603448,145.459052 104.87069,147.366379 C103.178879,151.846983 102.002155,156.553879 101.107759,161.25431 C100.232759,166.040948 99.6163793,170.799569 99.8965517,175.678879 C94.6767241,179.3125 88.2931034,181.196121 81.9396552,180.224138 C79.424569,179.803879 76.8491379,179.040948 74.9741379,177.226293 C78.8577586,175.237069 82.3146552,172.709052 84.8275862,169.088362 C87.0775862,165.849138 88.1788793,161.909483 88.0581897,157.974138 C87.9137931,152.883621 86.0323276,148.05819 83.3793103,143.769397 C80.0344828,138.4375 75.4525862,133.868534 70.1314655,130.508621 C65.6422414,127.704741 60.3189655,125.594828 54.9568966,125.68319 C51.3448276,125.625 47.7284483,126.732759 44.7866379,128.831897 C41.9568966,130.849138 39.8017241,133.631466 38.2068966,136.698276 C36.1982759,140.547414 34.9676724,144.851293 34.2327586,149.118534 C30.1228448,149.293103 25.9030172,148.786638 22.0215517,147.385776 C18.4482759,146.099138 15.1853448,144.006466 12.612069,141.206897 C12.6616379,138.989224 13.0193966,136.797414 13.8232759,134.726293 C15.237069,130.993534 17.6788793,127.87069 20.5517241,125.146552 C17.8922414,122.668103 14.174569,121.394397 10.674569,120.672414 C11.5021552,118.612069 12.4073276,116.586207 13.3297414,114.568966 C15.75,113.94181 18.049569,113.62931 20.5517241,113.637931 C19.575431,111.592672 17.5732759,110.640086 15.5280172,109.959052 C16.1681034,108.592672 16.8685345,107.258621 17.5280172,105.900862 C17.8081897,105.364224 18.0237069,104.864224 18.6099138,104.601293 C20.0086207,103.911638 21.512931,103.338362 23.0603448,103.103448 C24.1724138,102.926724 25.2543103,103.040948 26.362069,103.170259 C25.3965517,101.168103 24.299569,98.9784483 22.2392241,97.9094828 C22.3469828,97.0258621 22.3469828,96.1422414 22.3685345,95.2564655 C22.3728448,94.4461207 22.762931,93.8491379 23.112069,93.1508621 C24.5107759,90.4288793 26.2349138,87.8599138 28.1551724,85.4762931 C33.0215517,79.4461207 39.3642241,74.4030172 45.8297414,70.1831897 C51.5581897,66.4439655 57.6681034,63.1530172 63.8081897,60.1443966 C77.0064655,53.6724138 91.0387931,48.1702586 104.482759,42.1982759 C111.739224,38.9353448 119.12931,35.487069 125.892241,31.2844828 C130.234914,28.637931 134.288793,25.612069 137.793103,21.9116379 Z" id="Shape" fill="#B6964B" fill-rule="nonzero"></path>
                <path d="M102.855603,75.299569 C100.321121,75.2974138 97.9655172,75.8275862 95.6853448,76.9267241 C92.6271552,78.3943966 89.8599138,80.487069 87.5668103,82.9827586 C89.4461207,85.8448276 89.9288793,89.3146552 89.7241379,92.674569 C89.4612069,96.0107759 88.5452586,99.3146552 86.2047414,101.80819 C89.0581897,102.209052 91.6702586,103.340517 94.1357759,104.793103 C97.875,107.00431 101.306034,109.793103 104.381466,112.855603 C106.484914,115.023707 108.637931,117.4375 110.0625,120.114224 C110.543103,120.969828 110.780172,121.881466 110.900862,122.851293 C109.603448,120.633621 108.178879,118.530172 106.349138,116.713362 C101.842672,112.211207 95.8060345,109.224138 89.5560345,108.092672 C87.5258621,107.775862 85.1443966,107.50431 83.2090517,108.342672 C82.9331897,107.275862 82.6034483,106.282328 81.8125,105.478448 C80.7133621,104.303879 79.2672414,103.956897 77.7909483,103.489224 C79.6918103,101.448276 82.1616379,99.7349138 83.5775862,97.3599138 C84.7112069,95.4913793 84.9159483,93.3297414 84.5538793,91.2047414 C83.9719828,87.7478448 82.3081897,84.4353448 80.6530172,81.3793103 C82.1012931,80.9267241 83.5086207,80.6982759 85.0021552,81.112069 C87.9892241,78.9849138 91.0193966,77.1206897 94.5431034,76.0064655 C97.2801724,75.125 100.00431,74.8836207 102.855603,75.299569 Z" id="Shape" fill="#00183E" fill-rule="nonzero"></path>
                <path d="M57.9418103,76.2543103 C57.7758621,76.8685345 57.6400862,77.4482759 57.3017241,77.9956897 C56.262931,79.6465517 54.6142241,81.075431 53.7090517,82.799569 C53.0625,83.9353448 53.4784483,85.0646552 53.2413793,86.4267241 C52.7931034,89.0926724 51.7672414,91.7176724 50.6271552,94.1616379 C49.2672414,96.950431 47.5021552,99.7758621 45.1982759,101.881466 C43.6702586,103.260776 41.7715517,104.385776 39.6551724,104.394397 C37.575431,104.405172 35.737069,103.331897 34.2564655,101.950431 C33.4806034,101.247845 33.1357759,100.060345 32.7823276,99.1012931 C31.9267241,96.7262931 31.5926724,93.9137931 32.3943966,91.4849138 C33.2306034,88.9461207 35.0797414,87.0193966 37.1594828,85.4288793 C39.2241379,83.8987069 41.5237069,82.6487069 43.8512931,81.5711207 C47.7952586,79.7327586 51.9741379,78.2413793 56.0818966,76.8168103 C56.6939655,76.6056034 57.3168103,76.424569 57.9418103,76.2543103 Z" id="Shape" fill="#00183E" fill-rule="nonzero"></path>
                <path d="M121.390086,80.0603448 C117.418103,80.5 113.394397,81.0021552 109.506466,81.9482759 C106.422414,82.7349138 103.55819,83.9051724 101.239224,86.1530172 C99.1551724,88.1508621 97.6422414,90.7823276 96.3383621,93.3340517 C96.6594828,91.8081897 97.1875,90.1314655 97.0172414,88.5732759 C96.8706897,87.075431 96.1594828,85.8081897 95.487069,84.4978448 C101.127155,81.9806034 107.161638,80.5431034 113.318966,80.1271552 C116.015086,79.9913793 118.693966,79.8232759 121.390086,80.0603448 Z" id="Shape" fill="#00183E" fill-rule="nonzero"></path>
                <path d="M49.2737069,83.7931034 C49.5668103,83.7349138 49.8577586,83.6767241 50.1508621,83.6228448 C50.0258621,84.7801724 49.8275862,85.9267241 49.5862069,87.0646552 C48.7456897,90.1443966 47.3469828,93.112069 45.4482759,95.6810345 C44.3965517,97.0818966 43.1443966,98.4547414 41.6594828,99.4051724 L41.7262931,99.612069 C41.5646552,99.6400862 41.4030172,99.6681034 41.2413793,99.6961207 C40.1853448,100.168103 39.137931,100.614224 37.987069,100.133621 C36.5625,99.5517241 36.0323276,98.0905172 35.5431034,96.7564655 C35.1508621,95.2823276 35.0581897,93.799569 34.8642241,92.2974138 C35.137931,93.0538793 35.4806034,93.7672414 35.950431,94.4202586 C37.3922414,96.4418103 38.9935345,98.3038793 41.0991379,99.6616379 C41.2758621,99.5818966 41.4525862,99.5043103 41.6271552,99.424569 C41.0603448,98.3448276 40.512931,97.2543103 40.0107759,96.1422414 C39.0474138,93.7715517 38.325431,91.4913793 38.75,88.9008621 C39.1961207,88.1982759 40.012931,87.6896552 40.7176724,87.2758621 C42.299569,86.4159483 44.0301724,85.7801724 45.7112069,85.1400862 C46.8987069,84.6918103 48.1034483,84.2823276 49.2737069,83.7931034 Z" id="Shape" fill="#FEFEFF" fill-rule="nonzero"></path>
                <path d="M54.0948276,117.334052 C58.9784483,117.601293 63.737069,119.452586 67.7586207,122.19181 C62.9008621,120.512931 57.7047414,119.911638 52.5862069,120.377155 C48.8318966,120.698276 44.8793103,121.596983 41.5711207,123.459052 C39.5603448,124.584052 37.8965517,126.172414 36.8987069,128.271552 C36.9784483,126.961207 37.2780172,125.724138 37.9461207,124.584052 C39.2198276,122.377155 41.3383621,120.605603 43.5883621,119.450431 C46.8189655,117.801724 50.4827586,117.12069 54.0948276,117.334052 Z" id="Shape" fill="#00183E" fill-rule="nonzero"></path>
                <path d="M9.31034483,124.450431 C10.1961207,124.301724 11.3771552,124.327586 12.049569,125.019397 C12.8340517,125.793103 12.9116379,126.978448 12.8900862,128.017241 C12.8081897,130.146552 12.1551724,132.297414 11.5,134.314655 C11.0883621,135.452586 10.7456897,136.635776 10.2198276,137.726293 C9.84267241,137.443966 9.67241379,137.05819 9.46551724,136.650862 C8.71982759,135.101293 8.09051724,133.403017 7.90086207,131.685345 C7.73922414,130.381466 8.09051724,128.989224 8.32327586,127.689655 C8.56465517,126.605603 8.80387931,125.446121 9.31034483,124.450431 Z" id="Shape" fill="#B6964B" fill-rule="nonzero"></path>
                <path d="M41.5452586,136.454741 L41.5991379,136.396552 C43.3663793,140.601293 45.3060345,144.506466 48.5344828,147.801724 C51.8943966,151.258621 56.3663793,153.842672 60.6400862,156.006466 C58.6077586,155.747845 56.5603448,155.74569 54.5280172,155.506466 C52.0668103,155.24569 49.5409483,154.743534 47.2306034,153.842672 C43.112069,152.290948 39.6228448,149.532328 36.8900862,146.109914 C37.0646552,144.851293 37.1810345,143.553879 37.5840517,142.349138 C38.3340517,140.114224 39.9159483,138.125 41.5452586,136.454741 Z" id="Shape" fill="#FEFEFF" fill-rule="nonzero"></path>
                <path d="M193.75,160.101293 C194.547414,160.0625 195.349138,160.073276 196.146552,160.081897 C196.301724,160.693966 196.459052,161.303879 196.612069,161.915948 C196.788793,161.306034 196.950431,160.69181 197.107759,160.075431 C198.025862,160.079741 198.943966,160.079741 199.862069,160.079741 C199.588362,160.398707 199.265086,160.706897 199.051724,161.071121 C198.954741,161.788793 199.015086,162.536638 199.017241,163.260776 C199.321121,163.577586 199.627155,163.892241 199.931034,164.209052 C198.911638,164.224138 197.892241,164.224138 196.87069,164.209052 C197.159483,163.892241 197.448276,163.573276 197.737069,163.256466 C197.741379,162.377155 197.741379,161.497845 197.730603,160.62069 C197.418103,161.825431 197.116379,163.034483 196.803879,164.239224 C196.523707,164.217672 196.241379,164.196121 195.961207,164.172414 C195.161638,164.237069 194.364224,164.221983 193.560345,164.217672 C193.866379,163.890086 194.172414,163.56681 194.478448,163.241379 C194.474138,162.484914 194.471983,161.726293 194.489224,160.967672 C194.137931,160.642241 193.868534,160.381466 193.37931,160.303879 C193.405172,160.887931 193.431034,161.471983 193.463362,162.053879 C193.002155,161.474138 192.713362,160.890086 191.926724,160.717672 C191.892241,161.556034 191.898707,162.394397 191.903017,163.234914 C192.213362,163.560345 192.523707,163.885776 192.831897,164.211207 C191.786638,164.221983 190.741379,164.221983 189.698276,164.215517 C190.00431,163.885776 190.3125,163.55819 190.62069,163.230603 C190.622845,162.387931 190.627155,161.545259 190.594828,160.704741 C189.818966,160.898707 189.528017,161.467672 189.073276,162.043103 C189.099138,161.387931 189.127155,160.732759 189.150862,160.077586 C190.571121,160.101293 191.935345,160.012931 193.344828,160.155172 C193.480603,160.135776 193.616379,160.118534 193.75,160.101293 Z" id="Shape" fill="#00183E" fill-rule="nonzero"></path>
                <path d="M195.215517,160.741379 C195.463362,161.700431 195.700431,162.657328 196.00431,163.601293 C195.918103,163.717672 195.834052,163.834052 195.747845,163.950431 C195.56681,163.702586 195.383621,163.456897 195.198276,163.211207 C195.196121,162.387931 195.196121,161.564655 195.215517,160.741379 Z" id="Shape" fill="#FEFEFF" fill-rule="nonzero"></path>
                <path d="M64.7262931,161.534483 C68.6788793,163.939655 73.5107759,164.362069 78.0107759,163.724138 C80.1228448,163.474138 82.1530172,162.918103 84.1724138,162.269397 C84.0387931,163.482759 83.7672414,164.663793 83.2672414,165.780172 C81.825431,169.103448 78.9978448,171.829741 75.7521552,173.387931 C75.3318966,173.547414 74.9784483,173.834052 74.5517241,173.521552 C72.2219828,172.096983 70.2413793,169.965517 68.6853448,167.741379 C67.2564655,165.732759 66.1271552,163.556034 64.7262931,161.534483 Z" id="Shape" fill="#FEFEFF" fill-rule="nonzero"></path>
            </g>
        </g>
    </g>
</svg>