<svg width="200" height="200" viewBox="0 0 200 200" fill="none" xmlns="http://www.w3.org/2000/svg">
<path d="M176.668 85.9582C176.119 84.9434 175.537 83.7847 174.926 82.5643C172.595 77.9225 169.784 72.3277 165.561 68.2551C166.541 64.724 164.978 60.8022 163.929 58.1831C163.86 58.0048 163.798 57.854 163.75 57.7443C162.77 54.892 161.474 51.8821 158.67 49.1464C156.202 46.7398 153.548 45.5194 150.778 45.5194C148.118 45.5194 145.039 46.7398 143.113 49.8389C141.748 44.4292 139.554 38.7933 136.531 33.0614C132.424 25.2863 127.412 20.0891 121.268 17.2163C121.255 13.5962 118.869 10.1131 117.244 7.74083C117.059 7.46658 116.894 7.24032 116.812 7.11005L116.709 6.93864L116.599 6.77408C114.323 3.40075 109.942 0 105.307 0C105.046 0 104.779 0.0137135 104.525 0.0342826C102.331 0.219404 100.343 1.25471 98.9305 2.94824C96.2496 6.16387 96.661 10.3805 96.9627 13.4659C96.9901 13.7333 97.0244 14.0761 97.0381 14.3092C97.0244 14.3915 97.0107 14.4806 96.997 14.5698C96.757 16.1124 96.3456 18.8413 97.7032 21.4878C96.9216 22.5643 96.2428 23.7504 95.708 25.0463L95.5846 25.3548L95.5229 25.5537C95.0498 24.4909 94.467 23.3459 93.7402 22.2077C95.5846 19.3486 95.1183 16.2564 94.8578 14.5698C94.8441 14.4806 94.8304 14.3915 94.8166 14.3092C94.8372 14.0761 94.8715 13.7333 94.8921 13.4659C95.1937 10.3874 95.6051 6.17072 92.9243 2.94824C91.5119 1.25471 89.5235 0.219404 87.3295 0.0342826C87.069 0.0137135 86.8084 0 86.5479 0C81.913 0 77.5318 3.40075 75.2555 6.77408L75.1663 6.90435L75.0635 7.07576C74.9606 7.24032 74.7961 7.47343 74.611 7.74083C72.9791 10.1268 70.5863 13.6236 70.5863 17.2575C69.9349 17.6003 69.1464 18.0391 68.3305 18.5602C56.7981 25.6154 49.1533 36.3867 46.781 48.0494C45.396 47.1786 43.7916 46.6781 42.0707 46.6781C39.239 46.6781 36.5787 48.0151 34.5698 50.4354C31.1554 54.4463 29.359 58.6904 28.7488 64.1687L28.7145 64.4498C28.5019 66.1844 28.166 69.0024 29.0985 71.6969C26.6233 75.036 25.1081 78.6699 24.251 80.7405C18.9442 93.5139 10.9222 112.828 24.4224 129.153C28.1591 133.678 32.794 136.49 37.9706 137.436C26.9181 149.695 23.5379 162.996 28.2071 175.92C33.4111 190.326 46.4245 200 60.576 200H60.8845C68.4951 199.925 75.1046 197.484 81.5016 195.132C87.0758 193.075 92.3415 191.135 97.5729 191.135H97.6483C102.276 191.155 106.987 192.348 111.971 193.61C117.607 195.043 123.428 196.517 129.839 196.517C131.073 196.517 132.307 196.462 133.507 196.346C141.975 195.55 149.297 192.204 154.584 187.014H158.245C158.78 187.014 159.218 186.575 159.218 186.04V181.124C160.555 178.882 161.611 176.442 162.331 173.836C165.43 162.619 162.503 150.525 155.015 142.009C161.865 141.104 168.132 137.792 172.938 132.437C178.738 125.979 182.009 118.025 182.4 109.434C182.77 101.694 180.782 93.5687 176.668 85.9582Z" fill="white"/>
<path d="M170.381 89.3591C167.384 83.8123 164.189 75.7492 158.889 71.9645C153.624 68.2003 146.383 70.2778 143.305 75.7355C141.447 79.0265 139.212 82.7632 137.045 86.7468V79.6847H132.074C132.437 79.2322 132.787 78.7728 133.123 78.286C141.7 65.8692 136.62 48.55 130.195 36.4005C127.179 30.6892 123.12 25.5058 116.935 23.1335C111.368 20.9943 104.834 21.5908 102.297 27.7615C100.754 32.7872 102.187 36.2497 102.475 40.5555C102.77 44.9161 101.947 48.7831 100.85 52.9792C98.8619 60.6035 97.5043 68.55 100.261 76.2085C100.72 77.477 101.262 78.6357 101.879 79.6847H87.2198C93.4591 73.8431 93.1917 62.5644 92.7803 54.4259C92.4032 46.8908 92.5815 38.7591 90.1612 31.5531C87.3775 23.2706 83.8122 19.6162 75.1046 22.9826C75.1046 22.9826 73.6648 23.6203 72.1084 24.6145C59.6092 32.2524 50.9908 45.9857 53.5962 61.0012C54.8509 68.2415 58.8756 75.4201 64.6829 79.6779H53.37C50.9017 75.7629 48.07 71.5805 43.058 71.3131C36.4827 70.9566 32.9654 78.3752 30.8468 83.4763C25.3549 96.7022 19.4927 111.971 29.9281 124.594C39.5818 136.27 54.1516 129.208 61.3645 119.061C61.3919 119.027 61.4125 118.992 61.433 118.958H66.7193C65.9582 120.041 65.1903 121.131 64.4087 122.235C58.6014 130.401 50.0309 134.789 43.4214 142.057C35.3857 150.902 30.6548 161.659 34.9332 173.487C38.8688 184.374 48.927 192.965 60.8228 192.849C73.7059 192.726 84.7309 183.929 97.6826 183.977C109.722 184.018 120.658 190.374 132.849 189.229C143.25 188.248 152.568 182.386 155.454 171.93C158.32 161.557 154.536 149.86 146.02 143.305C140.432 139.006 133.699 136.483 129.098 130.95C126.143 127.398 124.388 123.216 122.461 119.116H129.729C130.113 120.37 130.621 121.598 131.251 122.804C138.718 136.928 157.107 139.383 167.631 127.659C177.532 116.654 177.203 101.982 170.381 89.3591Z" fill="black"/>
<path d="M40.0549 55.0223C37.4564 58.0665 36.2976 61.001 35.852 64.964C35.708 66.2804 35.0429 70.3188 37.0381 70.36C38.3751 70.3805 39.7395 68.1659 41.1451 67.8163C43.01 67.35 44.683 68.7144 46.2668 68.4333C48.6459 68.0082 46.1022 65.5125 45.4509 64.3881C43.9768 61.8238 44.3813 59.6298 44.3127 56.8118C44.251 54.3641 42.105 52.4991 40.0549 55.0223Z" fill="black"/>
<path d="M81.1657 10.7711C82.5712 8.69359 85.1218 7.01378 86.7262 7.15091C88.7556 7.32232 87.6792 12.492 87.6518 14.4049C87.6381 15.406 88.31 17.4972 87.7135 18.3542C86.8633 19.5952 85.2246 18.1211 83.9288 17.8743C82.7152 17.6411 78.7454 18.7793 77.9157 17.7028C76.949 16.4413 80.4526 11.9572 81.1657 10.7711Z" fill="black"/>
<path d="M110.668 10.7711C109.263 8.69359 106.712 7.01378 105.108 7.15091C103.078 7.32232 104.155 12.492 104.182 14.4049C104.196 15.406 103.524 17.4972 104.121 18.3542C104.971 19.5952 106.609 18.1211 107.905 17.8743C109.119 17.6411 113.089 18.7793 113.918 17.7028C114.885 16.4413 111.382 11.9572 110.668 10.7711Z" fill="black"/>
<path d="M148.406 56.3661C148.749 52.5609 150.73 51.3884 153.678 54.2612C155.386 55.9273 156.243 57.8745 157.004 60.1029C157.326 61.0422 159.465 65.6977 158.464 66.637C157.621 67.4323 156.894 66.1022 152.725 66.2187C149.448 66.3147 147.583 67.782 147.124 66.3901C146.829 65.5057 148.269 62.8591 148.365 61.7347C148.509 59.9794 148.351 58.1419 148.406 56.3661Z" fill="black"/>
<path d="M75.701 169.249V144.792H80.3428V114.974H57.1409V83.6748H133.061V115.139H110.099V144.84H115.214V169.249H75.701Z" fill="#B52C1F"/>
<path d="M129.071 111.149H113.603V103.984H106.109V148.831H111.224V165.259H79.6915V148.783H84.3333V103.984H76.8393V110.984H61.1313V87.6587H129.078V111.149H129.071Z" fill="white"/>
<path d="M154.131 183.785H153.589V183.332H153.322V184.944H153.507V185.513H152.403V184.944H152.561V183.332H152.3V183.771H151.752V182.77H154.131V183.785ZM157.724 185.513H156.757V184.032L156.099 185.142C155.859 184.786 155.605 184.422 155.372 184.073V185.513H154.405V184.95L154.597 184.944V183.332H154.399V182.756H155.352L156.071 183.936L156.771 182.756H157.703V183.332L157.518 183.339V184.93H157.724V185.513Z" fill="black"/>
</svg>
