<?xml version="1.0" encoding="UTF-8"?>
<svg width="200px" height="200px" viewBox="0 0 200 200" version="1.1" xmlns="http://www.w3.org/2000/svg" xmlns:xlink="http://www.w3.org/1999/xlink">
    <!-- Generator: Sketch 54.1 (76490) - https://sketchapp.com -->
    <title>tiffin</title>
    <desc>Created with Sketch.</desc>
    <g id="tiffin" stroke="none" stroke-width="1" fill="none" fill-rule="evenodd">
        <g id="tiffin_BGL" transform="translate(-0.000000, 0.000000)">
            <g id="tiffin" transform="translate(0.000000, -3.000000)">
                <g id="g10" transform="translate(99.899293, 102.356500) scale(-1, 1) rotate(-180.000000) translate(-99.899293, -102.356500) translate(0.000000, 0.443109)" fill-rule="nonzero">
                    <g id="g12" transform="translate(0.161128, 0.000000)">
                        <path d="M149.520238,203.039673 C151.706743,197.836853 149.989926,193.206843 147.491638,188.644507 C144.458405,183.105736 139.97905,178.893853 135.194357,174.943802 C134.251759,174.16636 133.297076,173.405031 132.4004,172.67915 C137.38328,169.275323 140.367368,164.749241 140.535747,158.487811 C141.744206,158.871295 142.996975,159.303924 144.302111,159.544004 C148.253773,160.270691 152.23766,160.340781 156.228798,160.078949 C161.865857,159.70916 167.420741,158.83907 172.721043,156.804024 C176.815303,155.232222 180.373007,152.859613 183.015504,149.279352 C184.038666,147.893652 184.821748,146.39194 184.926481,144.622756 C184.96354,144.012081 184.891838,143.419936 184.613087,142.806844 C184.217518,142.962333 184.094255,143.316009 183.872704,143.56334 C181.371999,146.354881 178.322654,147.646321 174.558707,146.961527 C174.217115,146.899493 173.878747,146.77059 173.561325,146.621547 C171.828394,145.807851 171.565756,144.452766 172.9434,143.117821 C175.172604,140.957902 177.807851,139.323259 180.325474,137.536351 C184.663842,134.457197 188.853973,131.183078 192.157901,126.963139 C194.53212,123.930712 196.135343,120.511578 196.422956,116.597782 C196.522855,115.238668 196.400398,113.902112 195.3007,112.792746 C194.874517,113.24471 194.797981,113.794962 194.574013,114.260622 C193.36072,116.77905 191.713188,118.917218 189.260015,120.342394 C187.74783,121.220541 186.146219,121.703119 184.371395,121.298688 C181.950449,120.746825 180.931315,119.236251 181.315605,116.770188 C181.648334,114.631216 182.568374,112.735546 183.69063,110.918829 C185.583883,107.856593 188.061224,105.286604 190.520841,102.691639 C193.97784,99.0445091 196.952261,95.069484 198.332321,90.1293029 C199.186299,87.0751237 199.229804,84.0370573 197.862634,81.086 C197.301103,79.8735126 196.5293,78.8255368 195.369179,77.9408641 C195.158908,79.5336133 194.79637,81.0070473 193.986702,82.3299073 C192.368172,84.9683765 190.188112,86.9196353 187.051758,87.3965738 C181.513792,88.2384671 177.785293,83.8437038 179.187911,78.2596556 C180.133732,74.4932912 181.954477,71.1597162 184.161929,68.0063629 C186.428998,64.7702703 188.878142,61.6505926 190.61349,58.0689613 C193.102916,52.931479 193.015907,47.7744198 190.681163,42.619294 C190.38066,41.9568167 190.078545,40.9878741 189.405031,40.9513786 C188.981264,40.9296264 188.990932,42.0842688 188.801607,42.7036445 C187.096873,48.2867259 181.815101,51.9564942 176.248938,51.2531709 C173.30352,50.8808849 171.56495,48.865175 170.448334,46.2978438 C169.284991,43.6237653 169.282574,40.8990926 170.282372,37.3533123 C168.344809,37.8449135 166.425776,38.1832015 164.462433,38.0994955 C159.79053,37.9005831 155.562534,36.2666658 151.508556,34.0769377 C145.678143,30.9293044 140.489825,26.8576831 135.310369,22.7763136 C129.827993,18.454783 124.472102,13.9643098 118.561931,10.2146221 C114.691639,7.75837241 110.673915,5.59762322 106.101911,4.78379847 C104.975627,4.5839596 104.393955,4.20128086 103.92185,3.10894655 C103.181468,1.39633431 101.454177,0.782980846 99.7905312,0.224068474 C99.549645,0.142560319 99.2998968,0.0862283966 99.0549824,0.018567492 C98.3460197,0.018567492 97.637057,0.018567492 96.9280943,0.018567492 C94.6054357,0.596991727 92.2642474,1.1102759 89.9649524,1.76831416 C84.7581046,3.25874715 79.9902498,5.54129291 76.3113777,9.6837057 C74.9619317,11.2031417 73.8261412,12.8877338 72.6652147,14.5459009 C71.7154463,15.901631 71.2018512,17.4719835 71.0951845,19.1484386 C71.0287998,20.1900498 71.3132711,20.9538766 72.3630999,21.481651 C76.9235026,23.7736147 80.0761309,27.4949439 82.6279939,31.8067263 C83.6592124,33.5485994 84.6549828,35.3153667 85.9109747,36.9143193 C87.0001992,38.3025167 88.2739152,39.3740171 90.2807631,39.4039869 C89.5822737,40.037139 88.9482354,40.5535539 88.3850935,41.1366757 C87.5174198,42.0358499 87.5722032,42.6173605 88.5679736,43.3314793 C92.3899272,46.0743594 95.2298063,49.6305325 97.3349422,53.8104317 C97.9850932,55.1009855 98.673915,56.3730097 99.5286984,57.5452956 C100.863643,59.3765947 101.637863,59.8130901 103.903321,59.9757488 C103.361125,60.5454164 102.793955,61.0482966 102.338769,61.6377024 C101.633029,62.553795 101.776433,63.1187094 102.794761,63.6171585 C107.316815,65.8304918 110.995365,69.0096257 113.839272,73.1665641 C114.420138,74.0140163 115.058205,74.8269065 115.718023,75.6149024 C116.820138,76.9281753 118.248537,77.6497866 120.079755,77.798991 C119.369181,78.3163727 118.694861,78.7398973 118.182474,79.3545197 C117.753069,79.8709346 117.666865,80.2246908 118.399191,80.6042276 C123.468275,83.226584 126.673914,87.3031197 127.925878,92.9015083 C128.253773,94.3677721 129.434841,94.971196 130.716613,95.4167146 C128.283582,96.9804608 128.295666,96.9740157 129.695062,99.5568958 C130.56757,101.166563 131.418325,102.793149 131.571397,104.669484 C131.59476,104.953875 131.566563,105.243099 131.567368,105.529101 C131.569785,106.100299 131.39899,106.243703 130.814095,105.991538 C125.989926,103.909766 120.961125,103.70755 115.852565,104.501911 C115.051759,104.625979 114.39758,104.460018 113.732122,104.126483 C111.539171,103.025979 109.550853,101.604831 107.583482,100.155486 C103.768779,97.3446099 100.16032,94.292042 96.7734115,90.9752243 C96.1828778,90.3967752 95.6632403,89.771599 95.4811658,88.9780441 C93.8110752,81.6958691 88.3689807,77.5210454 82.7270876,73.5476316 C80.7234622,72.1362318 78.4809648,71.1556075 75.9871884,70.8688804 C73.5004211,70.5827978 72.296393,71.4980043 71.9489207,73.9567353 C71.7852953,75.1154865 71.7636236,76.2691622 71.9552852,77.4188097 C72.0578431,78.0359296 71.8473295,78.2952649 71.2688804,78.5379235 C67.7322843,80.0144995 65.3587899,82.5579033 64.366806,86.3065437 C63.9246711,87.9774399 63.9649531,88.004026 65.5929087,87.5963724 C68.1706327,86.9518609 70.7637445,86.5039253 73.405114,87.2225557 C75.92741,87.9081549 76.6584472,89.2753251 75.8971985,91.7881145 C75.6432609,92.6275908 75.2564734,93.3961709 74.7879135,94.1293028 C74.3220928,94.8584065 73.6971583,95.453774 72.9468663,96.1740157 C74.436977,95.8638445 75.7319619,95.4513571 77.0962317,95.5335324 C77.2891824,95.5456169 77.4836637,95.5327267 77.675567,95.5512564 C80.6839859,95.8340359 81.8996958,97.8561909 80.7452145,100.640481 C80.373573,101.537963 79.7944794,102.294459 79.0618309,103.08318 C80.0522034,102.927691 80.9216495,102.770592 81.796574,102.658608 C83.5673695,102.431417 85.2576011,102.702918 86.1736132,104.378648 C87.1613271,106.186503 86.918024,108.043502 85.6692829,109.724871 C85.6161106,109.796573 85.5798569,109.881165 85.505738,110.014096 C86.0229586,109.939171 86.4862013,109.856996 86.9526665,109.807047 C89.8271881,109.497681 92.2376613,110.92044 93.333331,113.595163 C93.8714982,114.909967 94.2686784,116.262636 94.222757,117.709564 C94.1808637,119.020339 93.7554861,120.124065 92.4962716,120.704932 C91.1540763,121.323663 89.8287994,121.186704 88.6839857,120.268275 C84.439877,116.862031 79.9556073,113.785294 75.5668058,110.576432 C73.5527071,109.103723 71.3796558,108.426986 68.9533115,108.283582 C67.8628785,108.219937 66.7802602,108.012888 65.6895049,107.958104 C64.8898272,107.917016 64.3747013,107.513391 63.9388504,106.922857 C62.6592532,105.18751 62.5897265,103.05176 63.80165,101.198789 C61.4756077,101.051357 59.220784,101.09325 57.0603813,101.949645 C55.6602604,102.505536 54.6179241,103.462636 53.9900893,104.862032 C53.8881759,105.088416 53.9382061,105.554882 53.5577026,105.497681 C53.1791326,105.442092 53.0790722,105.062636 53.0186492,104.684791 C52.8027379,103.336956 53.1092837,102.125274 53.9256381,101.049746 C54.9789312,99.6624346 56.3954064,98.8285977 58.0771788,98.4233611 C58.2313782,98.3863017 58.3890418,98.3613268 58.539777,98.3121828 C58.5917407,98.2960701 58.6263027,98.2259794 58.6939764,98.1534719 C58.1224557,97.3341365 57.2375414,96.9997962 56.3434427,96.7895243 C52.9478335,95.9911356 49.5795355,95.9726059 46.3378035,97.4573994 C45.4399183,97.8682755 45.3927884,96.9369563 44.9301097,96.6791517 C44.4373,96.403623 44.9367159,96.1337337 45.1000996,95.9323239 C47.0635235,93.5081548 49.6824962,92.0354458 52.5251951,90.9164126 C54.2893843,90.2211458 56.1068264,89.6837843 57.9607639,89.2769363 C58.499495,89.4356473 59.0168767,89.2567954 59.5423953,89.1842878 C60.5692633,88.8845899 61.6801596,88.9466242 62.6642482,88.4616292 C62.8584073,87.8590109 62.2891425,87.8380643 62.0071686,87.5963724 C60.028357,86.574016 57.9150842,85.9689807 55.7329291,85.575023 C54.9005424,85.5105719 54.0851547,85.0795548 53.2319826,85.4549828 C44.6585286,84.8531701 36.7333727,87.065456 29.280241,91.1258789 C27.7222148,91.9742172 26.2257395,92.6082555 24.4394757,92.8902293 C19.2468877,93.7111759 14.3661628,95.456191 10.0985295,98.6441063 C9.03669665,99.4368555 8.11746203,100.380259 7.34013275,101.463844 C7.05690214,101.858608 7.0342395,102.137359 7.31999176,102.556291 C11.7028799,108.993351 16.2320238,115.32326 21.0054375,121.478345 C22.2277537,123.054176 23.8261424,123.983884 25.6904727,124.516412 C26.8013689,124.833834 27.9238664,125.132726 29.0596569,125.335747 C32.2746417,125.908557 35.1749437,127.146019 37.879556,128.998184 C43.9715598,133.172202 49.8505526,137.596774 55.0953461,142.817318 C55.6422947,143.361124 56.1401799,143.954075 56.6559502,144.528496 C56.7614085,144.646119 56.8447921,144.783078 56.98449,144.973209 C52.5928688,146.920439 48.204309,148.804024 44.9068267,152.74199 C47.2215094,152.910369 49.3001398,152.972403 51.3598376,153.30191 C56.1694246,154.072101 60.2155876,156.141789 63.4913176,159.828395 C66.9961715,163.772806 70.7200788,167.519835 74.2884171,171.410268 C76.4309346,173.746622 79.1537543,175.151657 82.5063423,174.980862 C89.0416896,174.646521 95.1959694,176.118425 101.059413,178.970388 C103.871901,180.338364 106.872908,181.182674 109.901306,181.931919 C112.602616,182.599794 115.205637,182.409663 117.665254,181.062634 C118.44189,180.638062 119.112988,180.683178 119.922656,181.001405 C128.78469,184.479351 136.567167,189.596773 143.357096,196.256188 C144.967569,197.836047 146.540983,199.446521 147.999191,201.166561 C148.493853,201.75065 149.008657,202.326682 149.326884,203.039673 C149.391336,203.039673 149.455787,203.039673 149.520238,203.039673" id="path14" fill="#221D1E"></path>
                        <path d="M59.4568364,88.9925456 C58.9312372,88.9498467 58.4497871,89.1399776 57.9594749,89.2769363 C64.3243488,94.6586079 70.6904313,100.039474 77.0490212,105.427591 C77.8099477,106.072908 78.5237443,106.771397 79.2733112,107.43041 C79.8055166,107.897681 80.3593938,108.345617 81.0038248,108.650148 C81.2777422,108.780662 81.5983867,109.051357 81.8884169,108.760521 C82.1856978,108.462434 81.9069466,108.150652 81.7522638,107.889625 C81.0561913,106.715808 80.06171,105.786906 79.1509346,104.791941 C70.1558089,94.9607227 61.1014688,85.1850935 52.2186492,75.250834 C50.7348225,73.5920223 49.3409857,71.871257 48.511177,69.7667656 C48.1955275,68.9674907 48.0410058,68.1425965 48.2414489,67.3102098 C48.6511972,65.6095855 50.2681156,64.8385885 51.9432817,65.4902703 C52.7249936,65.7949631 53.2952253,66.3427979 53.7496865,67.0260608 C56.003624,70.4201392 61.3047316,70.4982057 63.6187698,67.1692229 C63.5750236,67.1437647 63.5149229,67.0839862 63.4903509,67.096232 C61.4117205,68.1417103 60.1592734,67.7832007 59.0310559,65.7521031 C58.1684578,64.1997164 57.85877,62.496514 57.8458797,60.7364335 C57.8379845,59.6679945 57.7476723,58.6086592 57.4222745,57.5903309 C56.7667257,55.5384478 55.3197166,54.4998979 53.1614891,54.5112574 C52.647894,54.5134327 52.1342988,54.6022141 51.6216704,54.5997167 C51.141751,54.5965747 50.726041,54.396051 50.5570179,53.9133118 C50.3773603,53.4003612 50.5271286,52.9330098 50.9761921,52.636615 C51.8485385,52.0596966 52.7901699,51.7938356 53.7997167,52.2690017 C54.6415293,52.6645707 55.4619926,53.1061417 56.2991325,53.5129896 C58.2735131,54.4725868 60.1840871,54.2918818 61.9640669,53.0632817 C63.8060004,51.7922243 65.0487798,50.0858799 65.4588503,47.8338759 C65.5419118,47.3772395 65.5104113,46.9511368 65.3279339,46.5086796 C65.258085,46.5933523 65.1709148,46.6569173 65.1415895,46.7409455 C64.3951646,48.8629998 62.6561112,49.7853764 60.0591324,48.5599182 C58.1765947,47.6705728 56.7321637,46.2808448 55.5346613,44.6018921 C54.3882363,42.9927885 52.9478335,41.8013283 50.8792737,41.6830604 C49.5049333,41.6049939 48.2191327,42.0584884 46.9458196,42.5207643 C45.3112577,43.1136344 43.6430201,43.3320432 41.9216102,42.963866 C41.3110161,42.8335941 40.7430403,42.616716 40.3266858,42.1324461 C39.8677936,41.5993544 39.6607442,41.0126878 40.1753061,40.395568 C40.6520836,39.8234834 41.2289214,39.8889013 41.833151,40.1803011 C42.4783071,40.4916002 42.8710563,41.1052558 43.5249939,41.6707341 C43.4822144,39.5738963 42.6708549,37.9941179 41.3869073,36.6364543 C39.1270081,34.2453164 36.2519226,32.8854775 33.1510969,32.0402006 C24.9650749,29.8086599 16.9778848,30.0988512 9.38255767,34.2670686 C6.06810055,36.0853969 3.40099085,38.5048127 2.31274919,42.2985689 C1.65565353,44.5880351 1.72583279,46.9332516 1.68869281,49.2859605 C1.64306139,52.1805425 2.67969379,54.8391527 3.22916407,57.6022544 C3.24175621,57.6652554 3.261583,57.727209 3.27353869,57.7910962 C3.82710162,60.7534325 3.07307142,61.8117205 0.0185675725,62.181509 C1.52599392,63.029364 2.9698529,63.1766349 4.40804017,62.4298071 C5.71720429,61.7512975 6.55274102,60.7115393 6.4495225,59.1112976 C6.42749631,58.7682563 6.49421132,58.3984678 6.60876519,58.0712171 C6.85139963,57.3791728 7.1846685,56.7195152 8.11021128,56.9448526 C8.93123845,57.1456179 9.42565938,57.9723651 9.25889201,58.806927 C9.09550833,59.6229592 8.67762315,60.3351445 8.07967754,60.8708142 C5.73546008,62.972083 5.66370983,65.603946 6.39350639,68.3358694 C7.74924452,73.411398 11.7123059,76.1360706 17.3445313,76.0048319 C17.6598586,75.996695 17.9748636,75.9686587 18.5174618,75.936272 C17.7980257,75.6561512 17.2558304,75.491559 16.7579452,75.2404412 C16.0369785,74.8759699 15.4661023,74.3532711 15.5340177,73.4478934 C15.5888012,72.7259599 16.0517217,72.2777827 16.6937357,72.0418109 C17.489627,71.7484776 18.1401003,72.0741976 18.6889824,72.6412872 C18.9110972,72.8710556 19.1496471,73.1117806 19.2853167,73.3937545 C20.386787,75.6841874 22.3624566,76.7837242 24.7016308,77.3445298 C26.2632018,77.7184271 27.8518422,77.9755066 29.4212279,78.3179034 C29.9184685,78.4258591 30.413534,78.5964129 30.8726679,78.8157886 C31.9738159,79.343563 32.3451351,80.1658792 32.0874111,81.3502497 C31.8894655,82.2622336 31.4312983,83.0710956 31.0237253,83.9508539 C33.5517414,82.6223544 35.8317816,78.208417 35.4512781,75.4594946 C35.2417312,73.9423144 33.9293446,72.8741976 32.0543799,72.7291019 C31.3387303,72.6727877 30.6209056,72.6066447 30.0528492,72.1393738 C29.4124464,71.6131301 28.8988512,70.9727273 29.1940375,70.0585682 C29.4297676,69.3300285 30.2967968,68.9554867 31.3038461,69.1119419 C32.6400797,69.3189912 33.7823959,69.9568965 34.8640475,70.7341775 C37.3737755,72.5390516 39.8300896,74.413694 42.225578,76.3673697 C45.7190724,79.2154663 49.2132113,82.0632406 52.7033219,84.9152043 C52.8971588,85.0731097 53.0564337,85.2745195 53.2319826,85.4549828 C54.0706532,85.5766343 54.9094045,85.6974802 55.7477529,85.8199374 C55.6108747,84.9844893 54.8360107,84.6823745 54.3095253,84.2223544 C49.6551045,80.1529084 45.0481358,76.0281149 40.2725468,72.1006226 C37.9585086,70.1976216 35.5661623,68.3890416 33.042255,66.7664032 C31.1480355,65.5491625 29.159395,64.9370377 26.9027184,65.7241474 C24.8895059,66.4265844 23.5639873,68.2272692 23.8456389,70.0100687 C24.2003619,72.252969 25.9321645,73.723261 28.3685794,73.714399 C25.251802,74.0294846 22.4641283,73.6370576 20.0217518,71.7695853 C18.8664648,70.8858794 18.2817317,69.7337344 18.2858404,68.2769771 C18.2876934,67.6013679 18.3097679,66.9243891 18.2653772,66.2484576 C18.2398384,65.8578835 18.1445313,65.4814888 17.9317619,65.1488403 C17.6862835,64.7661615 17.3451758,64.5219722 16.8762936,64.6670679 C16.4419734,64.8017708 16.2509563,65.199515 16.3462634,65.5894445 C16.7497277,67.2378634 15.8594155,68.140099 14.6305737,68.7660809 C15.2155485,68.3641473 15.2895062,67.7300285 15.0443501,67.0260608 C14.885478,66.5691021 14.6352464,66.1517808 14.4227992,65.7175412 C13.5438466,63.9243489 13.6030611,62.2614285 15.0081769,60.7146813 C15.926203,59.7035232 15.9113793,58.5803812 15.0824568,57.5629391 C14.6182474,56.9942383 14.046485,56.6405625 13.31005,56.9376018 C12.6262232,57.2142584 12.3776029,57.78449 12.5047328,58.5127075 C12.5201205,58.6005222 12.5456593,58.6996159 12.4055586,58.7905725 C10.6400803,57.6605021 9.37498466,56.0451144 8.41579032,54.2113179 C6.57634626,50.6958295 6.02184074,46.9785285 6.85077123,43.0623957 C7.4036977,40.4513182 9.08358487,38.6619124 11.1196775,37.1827584 C13.8060017,35.2290827 16.8435041,34.142114 20.1715201,33.8746417 C26.2499893,33.3855379 31.440402,35.3345409 35.8197776,39.5263636 C36.355125,40.0386697 36.7962931,40.6420131 37.2215096,41.2477734 C37.6082971,41.7988308 37.9591531,42.3766354 38.3059809,43.0913182 C37.9238661,42.9927885 37.6753263,42.8083776 37.3999588,42.7029999 C36.4853969,42.3523856 35.5991935,42.6853564 35.2033022,43.5278136 C34.8300495,44.3230603 35.148841,45.1390925 36.0366557,45.6209455 C36.8951451,46.0882164 37.7983475,46.1952053 38.7506133,45.9519827 C39.5304723,45.7521036 40.321288,45.5346615 41.128861,45.5856585 C42.2979244,45.6605829 43.2590523,46.1857793 44.1106132,47.0090623 C45.8616706,48.7025164 47.8873704,49.0168769 49.8677933,47.9903311 C51.3953663,47.1969374 52.0634831,45.8159908 51.8202605,43.9564138 C51.799475,43.8292839 51.9870279,43.9073504 51.858045,43.9073504 C51.8453965,43.9073504 51.8457187,43.9306333 51.8488607,43.9781661 C51.87875,44.4335135 52.0147419,44.8653362 52.1500893,45.2939364 C52.7385284,47.1614087 52.2391125,48.7783271 51.0545808,50.2549031 C50.450029,51.008901 49.7894852,51.7179443 49.2305325,52.5075516 C47.1311972,55.4730298 48.8645305,59.7205222 52.4436643,60.3270076 C53.8271084,60.5614486 54.8728284,59.9468263 55.606766,58.9036038 C54.3353864,62.4314184 50.2750441,63.719797 46.4929696,62.6906732 C45.7782869,62.4949833 45.0872093,62.2221132 44.3784883,62.0037044 C43.5938761,61.7626571 42.909727,61.9495654 42.3407844,62.524228 C41.7516203,63.1193539 41.7138358,63.8154264 41.9766354,64.5833619 C42.4704118,66.0252954 43.4586092,67.1475512 44.3932315,68.2876921 C46.8422949,71.2764534 49.4451549,74.132687 52.0298074,77.0046305 C54.4199785,79.6607432 56.8715394,82.2606223 59.2425363,84.9329284 C60.1164134,85.9190311 61.098649,86.8036232 61.9495654,87.8122838 C62.1321233,88.0870069 62.5824758,87.9879132 62.7026772,88.350451 C63.0242885,89.148034 63.68451,89.702314 64.2462824,90.2904308 C66.5776418,92.7347409 68.8339963,95.248336 71.182677,97.674922 C73.6867655,100.264247 76.1612871,102.882575 78.4425358,105.378447 C73.5725259,101.045718 68.4526065,96.6614276 63.4157487,92.1828779 C62.4307739,91.3071478 61.4035836,90.4781448 60.4462422,89.5718004 C60.1554869,89.295466 59.8073701,89.1488397 59.4568364,88.9925456" id="path16" fill="#98591D"></path>
                        <path d="M119.579453,150.719029 C113.856191,151.0719 108.628396,153.323662 103.256392,155.010671 C100.978044,155.726884 98.6634416,156.165958 96.2787489,156.273914 C94.6787489,156.345615 93.1399775,156.108757 91.6721024,155.465857 C91.1307127,155.228999 90.9301085,155.226582 91.0453149,155.950046 C91.3208436,157.676532 92.582475,158.636854 93.7659594,159.671295 C93.9786482,159.857398 94.2283964,159.999996 94.49748,160.18771 C93.7788496,160.289221 92.8217499,160.041084 91.666463,159.525474 C90.2010048,158.871295 88.971599,157.886804 87.8710955,156.755686 C83.5109748,152.273108 78.2688399,149.385696 72.178689,148.04189 C66.8079742,146.858405 61.5351445,147.241084 56.3840469,149.184286 C56.0878939,149.29627 55.8163128,149.475122 55.533775,149.62336 C55.6533319,149.867469 55.8893843,149.889221 56.1106129,149.894055 C59.576071,149.973813 62.4786289,151.53917 65.2800789,153.366361 C66.0375411,153.860218 66.689948,154.482171 67.3329288,155.117821 C71.1093638,158.848737 74.8627574,162.607851 79.1415086,165.783682 C79.6856375,166.187307 80.2433011,166.565152 80.8700886,166.834236 C81.47029,167.092846 81.9520624,166.863239 82.3419919,166.434638 C82.7633413,165.97059 82.3718006,165.583077 82.1123847,165.241486 C80.0733112,162.554679 78.2153455,159.700298 75.3260001,157.786099 C75.2470475,157.734538 75.1907333,157.653974 75.1853355,157.495263 C75.7883566,157.029603 76.285839,157.262433 76.8718611,157.665253 C79.9162921,159.758304 82.1389708,162.652161 84.4938549,165.41631 C85.0392728,166.055182 85.6217501,166.651355 86.2235628,167.232221 C86.7464228,167.735746 87.351458,168.016109 88.0982858,168.121647 C92.7452142,168.779049 97.0771376,170.361325 101.142394,172.689623 C102.317017,173.362332 103.539977,173.941587 104.763744,174.515202 C105.146422,174.69486 105.575828,174.975222 106.020541,174.602211 C104.921649,173.615303 103.900098,172.571194 103.040481,171.351456 C99.107349,165.77482 102.409665,157.017519 109.74179,156.186099 C113.065053,155.80906 115.794559,156.832222 118.250954,158.909966 C119.668074,160.108757 120.750853,161.593551 121.637862,163.20483 C122.223562,164.270691 123.079151,164.907146 124.201407,165.235847 C127.21611,166.121245 130.105938,165.720036 132.868476,164.306139 C133.504931,163.980661 134.28479,163.796169 134.597378,163.015504 C135.989523,161.915001 136.301306,160.340781 136.42618,158.714195 C136.565555,156.901507 136.020138,155.20483 135.365153,153.550852 C135.142796,152.990933 135.200802,152.777438 135.844508,152.858002 C139.357096,153.294659 142.627992,152.366562 145.769986,150.949442 C150.82054,148.6719 154.949442,145.168979 158.638465,141.086804 C160.657398,138.851155 162.446723,136.473713 163.863037,133.80624 C165.916612,129.936754 167.340177,125.846523 168.347226,121.594357 C169.402614,117.136754 169.717619,112.612283 169.483178,108.058809 C169.188314,102.32749 168.657398,96.6163118 166.810872,91.1274902 C165.588717,87.4924449 164.11198,83.9500483 162.789925,80.3511762 C160.54622,74.2421734 158.194558,68.1684575 156.361728,61.9190317 C155.182272,57.8949432 154.233229,53.8104317 154.242091,49.5808245 C154.246119,47.2161116 154.525676,44.8845105 155.69627,42.7545609 C155.850147,42.4748428 155.99919,42.1793343 155.908959,41.8359708 C152.795968,41.0995357 149.79335,40.0500292 147.005032,38.4749235 C146.126885,37.9796164 145.88761,38.2590927 145.600802,39.0751249 C144.805636,41.3375216 144.921648,43.6760513 145.151255,45.9592335 C145.645918,50.8616301 146.819734,55.637622 148.518828,60.2634426 C151.146018,67.4150235 153.532322,74.6491019 155.871899,81.8964733 C157.70634,87.5778427 159.595565,93.2487389 160.971597,99.0686783 C161.803017,102.584489 162.232423,106.155083 162.058405,109.765959 C161.761929,115.93474 160.427791,121.844911 156.717821,126.912384 C152.184488,133.102917 146.58771,138.050349 139.151658,140.513189 C135.269282,141.798989 131.291034,142.055988 127.289423,140.979654 C127.206442,140.957902 127.131517,140.911175 126.848738,140.785495 C128.336754,140.336754 129.541991,139.692242 130.635243,138.856794 C133.410671,136.73474 135.096069,133.88197 135.870289,130.535344 C137.292242,124.392343 136.140984,118.805234 131.671296,114.202615 C128.792746,111.237057 125.073914,109.840883 121.019937,109.256795 C119.030007,108.969987 117.037661,109.044912 115.04612,109.09325 C114.226785,109.113391 113.550853,108.903925 112.883784,108.456795 C109.537963,106.215506 106.424972,103.67613 103.346624,101.092445 C100.907953,99.0461204 98.5031194,96.9619311 96.2400782,94.7182252 C94.4048315,92.8990913 92.9434015,90.846322 92.2988899,88.3085577 C91.4859997,85.1069465 89.5556876,82.7303101 87.0638448,80.6477321 C84.913593,78.8494643 82.7875105,77.0440263 80.373573,75.6045097 C79.315849,74.9744996 78.1948822,74.4974 77.0068863,74.1808642 C76.5732106,74.0656578 76.1301089,73.9696255 75.6992529,74.2091422 C77.1809044,75.7720021 77.710854,77.7048923 77.7222136,79.7784471 C77.7366345,82.3476314 78.5627372,84.5744188 80.0050735,86.6948619 C83.3224551,91.5722031 86.6094641,96.490632 90.5442072,100.881367 C94.6731094,105.488819 99.1758283,109.747429 104.5003,113.012686 C104.978849,113.305133 105.102112,113.457399 104.637258,113.898084 C102.065657,116.327087 101.150451,119.461024 100.936956,122.865657 C100.659816,127.257197 101.842495,131.201608 104.561528,134.689221 C107.725274,138.748033 111.90332,140.945012 116.957902,141.601608 C118.014901,141.738566 119.062233,141.867469 120.01611,141.664448 C115.780058,142.230007 111.510974,142.254981 107.479554,140.175626 C104.99174,138.890631 102.915607,137.102917 101.431619,134.752061 C99.5754255,131.813088 96.6743178,130.905133 93.6692827,130.223562 C96.1135928,129.445314 97.66606,127.730913 98.148638,125.05619 C98.7198364,121.885999 98.8326259,118.732726 97.9504507,115.593955 C97.6620318,114.566765 97.2914376,113.570994 96.8273893,112.613894 C96.6960701,112.342394 96.6235625,111.911377 96.1337337,112.022555 C96.6428979,113.678144 97.1391718,115.340178 97.2422936,117.08036 C97.4340358,120.330309 96.6026159,123.068678 93.0513572,124.052363 C91.034036,124.610672 89.199595,124.232827 87.5133916,122.963139 C83.4594138,119.908154 79.3394542,116.940984 75.3285782,113.832021 C72.8621935,111.920239 70.1724857,110.898688 67.063523,110.568376 C63.2140971,110.159917 59.3359905,109.915002 55.531197,109.099695 C53.8063229,108.729907 52.3652756,107.900904 51.0476523,106.784287 C49.0279142,105.073915 47.2413281,103.113794 45.6256182,101.050551 C43.2241681,97.9826763 40.0947422,96.5083561 36.3642287,95.9073491 C32.9182671,95.3522635 29.4565149,95.2056371 25.99009,95.3683763 C23.2408453,95.4980842 20.6428998,96.3987891 18.119637,97.458205 C16.2798787,98.2300076 14.5084387,99.1436028 12.8905536,100.33031 C12.576757,100.560723 12.2683582,100.783885 12.0553471,101.115003 C12.1869081,101.299494 12.3807449,101.304328 12.5758708,101.286604 C12.8002414,101.265657 13.02147,101.220541 13.2471296,101.201206 C16.1738566,100.962737 17.3980257,101.926281 17.4364548,104.81611 C17.4499895,105.79174 17.7605635,106.706946 18.3317619,107.531921 C20.478066,110.632827 22.7391737,113.64753 25.1227385,116.569584 C26.0309359,117.682978 27.1648734,118.393552 28.591097,118.690833 C30.2621543,119.039675 31.8919629,119.579453 33.5759911,119.867872 C35.8321038,120.252968 37.7262428,121.385697 39.5839668,122.623965 C46.5011066,127.233834 53.4632816,131.776835 60.3965342,136.36334 C63.5400588,138.442695 66.7097667,140.48338 69.8624756,142.549845 C70.4280345,142.921245 71.0133316,143.258808 71.6584876,143.477942 C72.0682359,143.851759 72.2907535,143.53192 72.4804816,143.231416 C72.7510959,142.802011 73.0180042,142.363743 73.2319821,141.903723 C73.9139559,140.438264 75.1494845,139.760722 76.648135,139.438466 C77.8383062,141.202011 79.7526667,141.254377 80.8298066,139.551255 C81.9278932,138.055183 83.5609244,137.451759 85.2342375,136.927288 C85.7675709,136.759715 86.3234621,136.662232 86.86888,136.532524 C89.5291015,136.011276 92.1611256,136.105535 94.7625354,136.894256 C96.3383662,137.372806 97.5017095,138.408859 98.5369562,139.630208 C99.3683762,140.611477 100.199796,141.590329 101.090028,142.522454 C103.717218,145.275324 106.942193,146.093048 110.608658,145.568576 C111.080763,145.500903 111.545617,145.351859 112.111175,145.409865 C111.938769,145.805434 111.593955,145.925475 111.296674,146.0576 C108.872505,147.125877 106.382273,147.762333 103.709967,147.182272 C103.415909,147.118627 103.056594,146.945414 102.840682,147.321648 C102.662636,147.630208 102.760924,147.957297 102.932525,148.239271 C103.560924,149.273712 104.478547,149.848133 105.696674,149.923863 C106.827792,149.993954 107.941186,149.859412 109.056191,149.669281 C111.118628,149.318022 113.192344,149.073914 115.295063,149.158506 C116.534136,149.209261 117.716009,149.459815 118.818124,150.041487 C119.127489,150.205031 119.471498,150.329906 119.579453,150.719029" id="path18" fill="#105F33"></path>
                        <path d="M128.615505,25.2045915 C122.601407,19.9184688 114.543401,16.0363339 106.100299,14.3863038 C106.302515,16.0812886 106.9575,17.6041889 107.560924,19.1314396 C108.541387,21.6137759 109.331719,24.1402612 109.939171,26.7481967 C110.458809,28.9765954 109.626583,30.4081362 107.897681,31.5722852 C107.712384,31.6971593 107.535949,31.834118 107.166966,32.1022348 C108.232021,32.1022348 109.104529,32.0855581 109.975425,32.1063436 C111.594761,32.1450143 112.216714,32.6397575 112.659816,34.1761119 C113.859413,38.3307946 115.314398,42.3782467 117.71037,46.0205427 C118.380662,47.0411267 119.13474,48.0063634 119.795365,49.0329091 C120.87895,50.7191125 120.754881,52.5912575 119.477943,54.13019 C120.696875,53.9133118 121.873914,53.8393541 123.042897,54.1528285 C123.59476,54.3000993 124.029,54.5408244 124.236855,55.1444095 C125.803018,59.6849935 128.42618,63.5133116 132.006442,66.7125864 C133.121447,67.7077123 133.748234,69.0055169 133.859413,70.5233416 C133.915002,71.2918411 133.736955,71.9848522 133.121447,72.6340365 C134.398385,72.8613073 135.602816,72.6495047 136.795968,72.8364131 C138.0576,73.0343587 138.719835,73.6612268 139.105737,74.815547 C140.091034,77.772566 140.951457,80.7814683 142.533733,83.503724 C143.503722,85.1713977 144.47049,86.8422939 145.425173,88.5196352 C145.647529,88.9103704 145.845716,89.3196352 146.004427,89.7393734 C146.735948,91.6624348 146.40483,92.4430994 144.518023,93.3212464 C144.404427,93.3744186 144.3005,93.4485374 144.116814,93.5581044 C144.519634,93.8723038 144.965152,93.8755264 145.363944,93.9931497 C146.947831,94.459615 148.079755,95.2910349 148.415706,97.0747206 C148.897479,99.6382654 149.059412,102.231619 148.481769,104.735546 C147.747026,107.922656 147.166965,111.14038 146.413692,114.321044 C146.160721,115.387711 145.725676,116.392344 144.973209,117.23182 C144.385898,117.884388 143.679352,118.30332 142.801205,118.341185 C142.322655,118.362938 142.182474,118.466865 142.355686,118.960722 C143.248335,121.505737 143.520641,124.14904 143.543199,126.827791 C143.899291,127.14763 144.214296,126.873713 144.512383,126.734337 C149.914196,124.220742 153.481567,120.136956 154.980057,114.341991 C156.044306,110.226785 155.987912,106.065657 155.332927,101.885999 C154.476532,96.412485 152.720238,91.2032203 150.752061,86.0551842 C147.792947,78.3154059 144.278748,70.822959 140.422152,63.5004214 C137.39053,57.7417105 134.439473,51.9523854 132.042696,45.8996967 C130.53615,42.0956284 129.168174,38.2323455 128.493854,34.1808652 C128.068476,31.6301301 128.124871,29.0571594 128.605032,26.5023961 C128.68479,26.0784686 128.928899,25.6378644 128.615505,25.2045915" id="path20" fill="#105F33"></path>
                        <path d="M192.008052,88.4044288 C186.234839,92.4157077 180.107146,90.3025154 177.018324,85.4259797 C176.146622,84.0507532 175.871093,82.4845901 175.859814,80.8700886 C175.41913,79.9540766 175.628596,78.9919819 175.738163,78.0664633 C176.131315,74.7293435 177.426783,71.6931301 178.910771,68.7122641 C180.447125,65.62594 182.556289,62.8811263 184.107951,59.8068062 C184.974819,58.0897468 185.2721,56.2805223 185.148837,54.3831608 C185.130308,54.101187 185.154477,53.7924659 184.850751,53.6178033 C181.377639,55.6140167 177.809462,56.2723047 174.003621,54.5279342 C171.170993,53.2301296 168.654981,51.5826775 166.988918,48.7075114 C166.226783,49.8715798 165.993148,51.0976825 165.780459,52.310895 C165.153672,55.8871285 165.326884,59.4659401 165.728898,63.0582864 C166.555484,70.4314182 168.27633,77.5991119 170.822151,84.5446102 C172.243299,88.4229585 173.415504,92.3343381 173.994759,96.4140963 C174.29204,98.5071476 174.449945,100.62034 174.662634,102.725476 C174.942191,105.483985 174.931718,108.254579 174.83343,111.017117 C174.547428,119.04048 173.20201,126.855183 169.621748,134.126079 C167.641486,138.148637 165.118223,141.830409 162.087408,145.164145 C157.894054,149.777237 152.84914,153.085193 147.02195,155.238667 C147.19194,155.785696 147.704327,155.78489 148.120037,155.877539 C151.499694,156.633229 154.901104,156.800802 158.370187,156.576028 C163.78489,156.225575 168.751657,154.526482 173.522654,152.084588 C174.590127,151.537559 175.540781,150.822957 176.44068,150.040681 C176.773409,149.752262 177.141587,149.439674 176.95629,148.89909 C175.485998,148.907146 174.0149,148.971597 172.575222,148.531718 C171.701103,148.265052 170.908354,147.856592 170.227589,147.266059 C169.015102,146.213088 168.930509,145.20765 169.816713,143.203219 C171.075927,141.167368 172.947428,139.749443 174.769784,138.276734 C178.142191,135.552061 181.496874,132.804025 184.474517,129.637862 C185.798183,128.23041 187.014698,126.730309 187.824366,124.957097 C187.982271,124.609866 188.401204,124.206241 187.921043,123.775223 C185.881969,124.500299 183.855786,124.544609 181.869079,123.603622 C179.336954,122.404831 178.041486,119.747026 178.617518,116.992545 C178.656189,116.808859 178.653772,116.617117 178.67069,116.428597 C178.547428,114.472505 179.30634,112.712988 179.995162,110.967973 C181.312382,107.633431 183.571395,104.899091 185.848938,102.187309 C187.601204,100.101508 189.666863,98.2638445 190.983278,95.8308133 C192.124064,93.7232605 192.750851,91.4972787 192.319028,89.0714983 C192.275524,88.8249726 192.277941,88.5478326 192.008052,88.4044288" id="path22" fill="#105F33"></path>
                        <path d="M61.9495654,87.8122838 C62.2296863,87.5198367 61.877219,87.4312163 61.7616903,87.3039253 C58.4460006,83.662435 55.1032413,80.0450332 51.8039061,76.3884774 C48.9579847,73.2342378 46.0728287,70.1117404 43.4875316,66.73023 C42.9182668,65.9859802 42.3917814,65.2231202 42.1500896,64.2956681 C41.7925468,62.9245503 42.7294249,61.9077527 44.1282567,62.2130095 C44.7850946,62.3574607 45.4088206,62.6425765 46.0586494,62.8238454 C49.2352858,63.709082 52.191902,63.4988907 54.6276724,60.9796561 C55.3757891,60.2055171 55.8839865,59.2846712 55.9592332,57.9616501 C55.6848324,58.3862221 55.5299885,58.6521637 55.3499281,58.899495 C54.5559704,59.9846108 53.4236442,60.3650337 52.113191,59.9952452 C48.7887198,59.0581254 47.48302,55.2895052 49.5367561,52.5106936 C50.0522042,51.8130098 50.6482968,51.1741377 51.1924257,50.4965949 C52.9525062,48.3046916 53.1218516,46.0873302 51.7230199,43.5215296 C51.6568769,44.2038257 51.7799786,44.8750845 51.5813884,45.5362728 C50.7093643,48.4406836 46.9496061,49.2833825 44.5637854,47.0694852 C43.67444,46.2437048 42.7778438,45.5145205 41.516857,45.3471086 C40.7237855,45.2414087 39.9820332,45.4210663 39.2336747,45.5919425 C38.2792337,45.8093846 37.3334935,45.9399787 36.3888007,45.5636645 C35.5220938,45.219012 35.0764946,44.4688005 35.3193949,43.7647522 C35.6008047,42.9493645 36.4841078,42.5770785 37.3816708,42.9453363 C37.8229195,43.1259607 38.225417,43.4013282 38.6876929,43.657441 C38.7742186,43.1961319 38.4919225,42.8609858 38.3009054,42.5223756 C35.7102912,37.9424764 31.6235239,35.3304321 26.659093,34.1364745 C19.8971193,32.5116608 13.8466059,33.9705933 8.78243684,38.9098883 C7.17365541,40.4792739 6.48193337,42.4999788 6.31294244,44.6412073 C5.86196964,50.3468265 7.51510958,55.2571185 12.1223763,58.9325262 C12.3574619,59.1194346 12.5758708,59.3910156 12.9559715,59.3419522 C13.0818929,58.9888404 12.8080561,58.7320831 12.7467469,58.431499 C12.644753,57.9352251 12.7300702,57.5226572 13.1436049,57.2324658 C13.5514196,56.9483168 13.9885596,56.9819925 14.415629,57.2302906 C15.4947025,57.8578032 15.8197781,59.5981455 14.9127892,60.5019119 C13.2212686,62.189082 13.2936955,64.0168363 14.2651356,65.9843689 C14.3220943,66.0986086 14.3775223,66.2153458 14.4369785,66.3290215 C15.2422957,67.8798775 15.2218324,67.9943588 13.9357096,69.0794746 C15.8657801,68.8780647 16.8992544,67.6060406 16.5933531,65.7634626 C16.5225374,65.3373599 16.5093249,64.9505724 16.9659613,64.808941 C17.4313792,64.6639259 17.6649341,65.0192129 17.8238062,65.3961716 C18.0828193,66.0092632 18.0945011,66.6619117 18.0214296,67.299817 C17.7098888,70.0285985 19.0162332,71.7720828 21.3588716,72.9176215 C23.7798987,74.101831 26.3016308,74.3501291 28.9322047,73.6990112 C28.5620939,73.6354463 28.1932722,73.5611663 27.8216307,73.5089609 C25.6105532,73.1979841 24.1056187,71.6389912 24.090231,69.6371382 C24.0747627,67.6479339 25.4569178,66.1823146 27.6925673,65.7555673 C29.3227787,65.4446711 30.827391,65.7392129 32.2334735,66.5829591 C35.1960515,68.3616499 37.9469074,70.4449529 40.5708751,72.6752852 C45.6696867,77.0103505 50.6935738,81.4332306 55.7480751,85.8199374 C57.9012272,86.2147008 59.9757488,86.8576011 61.9495654,87.8122838" id="path24" fill="#FFF201"></path>
                        <path d="M103.325677,20.8726682 C102.408054,17.8005232 101.520239,14.7199191 100.887007,11.5722857 C100.634036,10.312185 100.385899,9.05152042 100.116815,7.79361914 C99.748638,6.0728216 98.8946602,5.34208244 97.1206421,5.23414287 C94.6956673,5.08685586 92.4108738,5.78361315 90.1373593,6.46997768 C88.7274902,6.89703105 87.3458186,7.42478934 85.9754258,7.96701692 C81.530713,9.72495444 78.6064834,13.1076734 76.3485177,17.1513389 C75.6464029,18.4098283 75.8339558,19.0936551 76.8016899,19.8599794 C80.5969768,22.8584083 83.494862,26.5877133 85.7305115,30.8534937 C86.2807632,31.9042892 86.8253755,32.95726 87.3732103,34.0093446 C88.0153049,33.7739367 88.6783462,33.679838 89.3591116,33.7320435 C90.1768356,33.7949639 90.8761307,33.5388511 91.4763321,32.989969 C91.5947611,32.8820133 91.7325254,32.7936346 91.8477318,32.6831815 C93.5564931,31.0382268 95.5883158,30.2325874 97.9577015,29.9552863 C101.032827,29.5968573 101.757097,29.251963 102.201004,25.256797 C102.293653,24.4212683 102.130108,23.5923458 102.051156,22.7618121 C101.92467,21.4259008 102.085798,21.2198182 103.325677,20.8726682" id="path26" fill="#FFF201"></path>
                        <path d="M155.908959,41.8359708 C153.981064,44.8766152 153.786905,48.2515194 154.063239,51.6971588 C154.603823,58.4387498 156.848334,64.7469873 159.11621,71.0362923 C161.415505,77.4105922 163.825172,83.7446102 166.175222,90.1019111 C167.702715,94.2348416 168.43343,98.5401788 168.833833,102.905133 C169.154477,106.399192 169.474316,109.910168 169.22054,113.413089 C168.072503,129.288214 161.376028,141.884387 147.240278,149.938365 C143.627791,151.996774 139.705132,153.045716 135.48197,152.578445 C135.291034,152.556693 135.096875,152.549442 134.904327,152.547025 C134.845515,152.54622 134.786704,152.582474 134.673914,152.619533 C136.255384,156.09345 137.08197,159.575424 134.597378,163.015504 C135.938768,162.424165 136.644508,161.235847 137.3148,160.042695 C138.030208,158.768173 138.375022,157.359916 138.627187,155.928294 C138.679553,155.627791 138.659412,155.331315 139.139574,155.270087 C146.458808,154.334739 152.431013,150.7577 157.723259,145.809463 C165.709563,138.342796 170.354074,129.206039 171.581869,118.343602 C172.319835,111.826785 172.445514,105.302716 171.53917,98.7907327 C170.697277,92.7419916 168.848334,86.9607229 166.847126,81.2116797 C164.310973,73.9278129 161.919835,66.5917405 160.63484,58.956776 C159.964548,54.9729694 159.547227,50.9758698 160.489019,46.9678135 C160.704125,46.0561519 161.027992,45.1866253 161.445313,44.3456988 C161.861829,43.5054974 162.428999,42.7769576 163.233833,41.8835035 C160.6292,42.3756686 158.259815,42.4086998 155.908959,41.8359708" id="path28" fill="#FFF201"></path>
                        <path d="M128.615505,25.2045915 C127.601205,29.2638865 127.8147,33.2874111 128.894257,37.3077131 C130.669886,43.9212074 133.342998,50.1799786 136.402011,56.277058 C140.221547,63.8897064 144.308556,71.3692631 147.661628,79.2113575 C150.595767,86.0753251 153.38489,92.9941568 154.80201,100.363341 C155.822755,105.670088 156.01772,110.971196 154.134135,116.162736 C152.290832,121.243099 148.691235,124.638869 143.825978,126.797177 C143.742997,126.833431 143.637459,126.818929 143.543199,126.827791 C143.426381,126.97039 143.203219,127.117016 143.207247,127.256392 C143.25478,128.965153 142.562736,130.426583 141.561326,131.939574 C143.175827,131.752665 144.472907,131.189523 145.659614,130.438667 C151.801003,126.553068 155.685797,121.068275 157.267267,113.953673 C158.520036,108.317419 157.956089,102.77462 156.606643,97.2406824 C154.122856,87.0541771 150.025374,77.4653757 145.767569,67.9396559 C142.730309,61.1432815 139.48761,54.4354468 136.928899,47.4310562 C134.959916,42.0383474 133.774015,36.5093244 134.027791,30.7320033 C134.055183,30.1066659 133.902917,29.6500295 133.392142,29.2374615 C131.770389,27.9299087 130.301709,26.4394757 128.615505,25.2045915" id="path30" fill="#D3D2D3"></path>
                        <path d="M115.520642,47.7807037 C114.299292,45.8569173 112.934539,44.0219123 111.951659,41.9505327 C111.371598,40.7282165 110.880964,39.4810866 110.610269,38.1470283 C110.087409,35.5585892 108.333532,34.3098481 105.671699,34.5175419 C101.828799,34.8174815 98.4161103,36.3648732 95.0638446,38.0979648 C93.8062414,38.7487604 92.5575002,39.4256586 91.5609242,40.4632417 C90.5973794,41.4661822 90.6594136,42.0849133 91.8259796,42.8559103 C94.338769,44.5188307 96.068477,46.8447924 97.5210449,49.4269474 C98.7327266,51.5794549 99.7856974,53.8229997 101.189121,55.8669875 C102.017319,55.8059201 102.848739,55.7864236 103.67613,55.7398576 C104.68318,55.6825767 105.579856,55.2539765 106.162334,54.4323048 C107.097681,53.1101699 108.401206,52.7961316 109.885194,52.868478 C111.531115,52.9496865 112.826583,52.3092837 113.803018,51.005759 C114.15186,50.5409856 114.400803,50.0100692 114.61188,49.4719021 C114.848738,48.8686393 115.154076,48.3100089 115.520642,47.7807037" id="path32" fill="#FFF201"></path>
                        <path d="M105.427591,161.270489 C102.901105,164.593752 103.518225,169.295464 106.940581,172.245716 C109.66042,174.590127 112.930511,175.943601 116.265858,177.124668 C120.28761,178.549039 124.419735,179.709965 128.098285,181.950449 C134.140581,185.63061 140.124065,189.405836 145.155283,194.464446 C146.151054,195.465856 147.050147,196.562331 147.994357,197.615302 C148.563138,197.509763 148.164347,197.154476 148.120037,196.965957 C147.589926,194.707749 146.258204,192.88217 144.813692,191.152462 C140.68479,186.207448 135.73333,182.160721 130.585294,178.342795 C126.47331,175.294255 122.234841,172.431818 117.727288,169.991537 C117.01752,169.607247 116.651759,169.101305 116.416513,168.334336 C115.10332,164.046723 111.195163,160.804024 106.442696,161.034437 C106.085798,161.051355 105.733734,161.052161 105.427591,161.270489" id="path34" fill="#FFFFFF"></path>
                        <path d="M96.1337337,112.022555 C97.3051335,113.607248 97.6870066,115.483582 98.0841869,117.350249 C98.6569965,120.049141 98.2944588,122.735143 97.8304104,125.39617 C97.4807629,127.403018 96.2408838,128.799191 94.4072484,129.658808 C93.9440057,129.876331 93.4590108,130.043098 92.9095646,130.263038 C93.5081548,130.648939 94.1671678,130.538567 94.754479,130.698889 C97.4598163,131.434438 99.7204406,132.639674 101.398588,135.096069 C105.055385,140.447932 110.374217,142.532927 116.738768,142.218728 C117.832827,142.163944 118.922051,142.07049 119.991941,141.83766 C120.25619,141.78046 120.578446,141.85619 120.882172,141.49768 C119.065455,141.578244 117.356694,141.441285 115.655989,141.16334 C104.695264,139.36757 98.0559895,127.296674 102.518426,117.265657 C103.213693,115.703522 104.243301,114.415304 105.69748,113.366362 C101.744207,111.332122 98.564348,108.384287 95.3772383,105.44612 C88.6864026,99.2773389 83.6447109,91.8211457 78.8239255,84.1949626 C78.3125862,83.3861006 78.127853,82.5127875 78.115849,81.5403806 C78.0916798,79.4829386 77.9679336,77.4219517 77.0090615,75.5277323 C76.7157282,74.9487192 76.4041874,74.3806628 75.6986084,74.2091422 C74.9389709,74.4121633 74.8684775,75.0276718 74.8590515,75.6567957 C74.813694,78.6401592 75.6353657,81.4332306 76.7469064,84.1627371 C78.3185479,88.0201388 80.9135931,91.2370571 83.2805619,94.595768 C86.6569968,99.3869059 90.5297057,103.795365 94.0334317,108.48902 C94.8559896,109.59033 95.6648516,110.707752 96.1337337,112.022555" id="path36" fill="#D3D2D3"></path>
                        <path d="M128.223159,67.2652551 C125.897278,65.2262622 124.164347,62.7382059 122.609463,60.0830599 C120.509161,56.4938556 119.017923,55.935628 115.015506,57.036776 C112.336754,57.7740972 109.779655,58.8034628 107.461025,60.3656782 C107.034036,60.6527276 106.610269,60.9497669 106.321045,61.3938353 C105.919836,62.0115997 105.896473,62.5481555 106.668275,62.882657 C109.560521,64.133654 111.535949,66.3991927 113.340581,68.8651745 C114.574015,70.5497666 115.742192,72.2891422 117.185898,73.8110757 C118.583683,72.7378834 120.186905,73.0891422 121.736956,73.1954866 C122.766563,73.2666246 123.572202,72.966685 124.170792,72.1336538 C124.71621,71.3755471 125.469483,70.8865239 126.293652,70.5063426 C127.110571,70.1293034 127.596371,69.5386085 127.520641,68.625094 C127.468275,67.9912168 127.759111,67.5997566 128.223159,67.2652551" id="path38" fill="#FFF201"></path>
                        <path d="M71.6584876,143.477942 C69.3309147,141.936754 67.0072088,140.390732 64.6748826,138.856794 C55.9120228,133.093249 47.1216907,127.371598 38.4004019,121.546825 C36.2493445,120.11037 33.8104322,119.784891 31.442255,119.124267 C31.2877334,119.081568 31.1260415,119.06465 30.9705531,119.025173 C25.7049742,117.676533 26.8973206,118.381467 23.5378846,114.184891 C21.8699692,112.101508 20.383645,109.873915 18.7742191,107.742998 C18.085639,106.830209 17.6922453,105.836855 17.6986098,104.713794 C17.7143198,102.025375 16.329909,100.22316 12.5258406,101.081971 C12.3741387,101.116614 12.212044,101.105335 12.0550249,101.115003 C11.7040883,101.483985 11.2393149,101.757903 11.0854378,102.289625 C12.3353874,102.768175 13.024612,103.821951 13.7254377,104.864449 C16.4910368,108.983683 19.1641486,113.164952 22.1500901,117.132726 C22.5956893,117.724871 23.0929299,118.27754 23.5340981,118.87049 C25.0648131,120.924871 27.341389,121.50896 29.6547827,122.019735 C30.5041684,122.207449 31.3444504,122.443501 32.2047927,122.571598 C34.8703315,122.967973 37.0685187,124.377842 39.2765348,125.778849 C46.4589716,130.336351 53.5832414,134.976834 60.3829995,140.09909 C61.6688806,141.068274 62.8449531,142.173612 64.1691827,143.092846 C66.6814888,142.909161 69.1657586,143.278949 71.6584876,143.477942" id="path40" fill="#D3D2D3"></path>
                        <path d="M141.273712,86.7802597 C139.595565,83.780864 138.30332,80.592143 136.753269,77.5330494 C135.57623,75.2130495 134.192142,74.50312 131.554478,74.9914986 C128.610672,75.5374805 125.816714,76.3705117 123.327288,78.0841068 C122.147832,78.8963525 122.014901,79.7774804 123.148436,80.5139154 C126.978446,83.0034219 128.839473,86.6779435 129.668476,91.0114781 C131.24189,90.3605214 132.831417,90.4902294 134.444307,90.8600179 C135.440077,91.0888195 136.44471,91.2934519 137.461427,90.8439051 C138.302514,90.4725053 138.922857,89.9375607 139.181467,89.0344389 C139.216915,88.911176 139.264448,88.7911357 139.295868,88.6670673 C139.56334,87.6261811 140.145817,86.9188296 141.273712,86.7802597" id="path42" fill="#FFF201"></path>
                        <path d="M105.427591,161.270489 C107.929101,161.123863 110.316211,161.48479 112.380259,163.021144 C114.206644,164.381063 115.547228,166.143802 116.176432,168.344004 C116.422152,169.206038 116.759715,169.75065 117.591941,170.201808 C122.797177,173.019935 127.643099,176.393148 132.354478,179.966964 C135.503723,182.355685 138.537761,184.890227 141.332524,187.675323 C143.715606,190.048736 146.05196,192.514799 147.468274,195.651959 C147.747831,196.27069 148.148234,196.874114 147.994357,197.615302 C148.062836,197.720035 148.140178,197.92064 148.197378,197.914194 C148.509966,197.881163 148.344004,197.633832 148.329503,197.488011 C148.090228,195.096068 147.395767,192.849139 146.214699,190.744809 C143.883179,186.592543 140.600198,183.247528 137.152867,180.049945 C133.020742,176.217518 128.414901,172.970791 123.965354,169.533128 C122.388718,168.315001 121.114196,166.871295 120.144206,165.129502 C119.141991,163.328093 118.009262,161.610469 116.411679,160.260218 C113.635445,157.915807 110.330712,157.491235 107.58751,159.135545 C106.69889,159.668878 105.92467,160.333531 105.427591,161.270489" id="path44" fill="#D3D2D3"></path>
                        <path d="M106.020541,174.602211 C105.243905,174.629603 104.609866,174.222755 103.960521,173.89486 C100.925677,172.361728 98.0060398,170.593349 94.7617298,169.489623 C92.6267852,168.763742 90.4499474,168.198183 88.2191317,167.900097 C87.3562919,167.78489 86.6851942,167.459412 86.1349425,166.842292 C84.3794541,164.874115 82.6312165,162.900298 80.8958691,160.915202 C79.6141773,159.451356 78.0903908,158.271094 76.5395348,157.118224 C75.7527474,156.534135 75.20741,157.325273 74.2431401,157.413088 C77.7942377,159.421547 79.7444492,162.581265 81.9858993,165.467065 C82.1478328,165.675726 82.6287995,165.924669 82.2485377,166.246924 C81.8988902,166.5434 81.5581047,167.000197 80.9168157,166.634437 C79.0014079,165.543601 77.3347816,164.132121 75.6816094,162.700499 C72.8093436,160.211879 70.1538754,157.494457 67.432667,154.84632 C64.6679541,152.154679 61.3078736,150.532121 57.5519019,149.733732 C56.9011063,149.595162 56.2075313,149.65478 55.533775,149.62336 C55.0352454,149.938365 54.3340973,149.881164 53.9822746,150.466059 C57.2198979,150.51198 60.0519622,151.70191 62.6478937,153.549241 C64.3488403,154.758506 65.5831605,156.431819 66.9483166,157.965756 C70.2454766,161.670087 73.6263426,165.285796 77.2992529,168.6292 C79.1616496,170.324266 81.3486384,170.863238 83.7583061,171.014699 C86.5466242,171.190328 89.3486382,171.23061 92.1135929,171.721244 C94.9865032,172.230409 97.7329281,173.119029 100.356896,174.390328 C101.226181,174.811677 102.08177,175.260419 102.952666,175.678545 C104.427792,176.387508 105.98187,176.729905 107.621347,176.662231 C107.842898,175.946018 107.397379,175.527891 106.914801,175.150852 C106.641689,174.936552 106.320239,174.78348 106.020541,174.602211" id="path46" fill="#D3D2D3"></path>
                        <path d="M133.457398,102.90755 C133.454176,102.939776 133.444508,102.972001 133.446925,103.003421 C133.551658,104.252163 133.185898,105.570189 133.639473,106.739172 C134.117217,107.9718 135.593954,108.159514 136.552665,108.925677 C138.984891,110.869685 141.287408,112.900702 142.466865,115.891236 C142.630409,116.306946 142.829402,116.240883 143.120238,116.075727 C143.749443,115.718829 143.929906,115.075929 144.065253,114.46042 C144.265052,113.55327 144.373813,112.625173 144.491436,111.701911 C144.717016,109.946422 145.065857,108.250551 145.768375,106.588517 C146.952665,103.788114 146.949442,100.830612 146.399191,97.8690811 C146.220339,96.9015082 145.597579,96.2714981 144.752464,95.8678727 C141.061024,94.1067449 137.281769,93.6088597 133.393753,95.1983863 C132.895062,95.4030188 132.423763,95.7051336 131.985495,96.0249724 C130.665052,96.9869059 130.570792,97.6153047 131.479554,99.0082553 C134.375827,99.1629381 137.285797,99.7268857 140.122454,98.5498465 C141.131114,98.1317196 142.211477,97.8698868 143.323259,98.0165132 C144.538969,98.1768354 144.858002,98.602213 144.790329,99.8219512 C144.694458,101.549242 144.198184,102.006845 142.471698,102.036654 C141.436452,102.054378 140.418929,101.982676 139.42477,101.674116 C138.153471,101.280964 136.910369,101.473512 135.788919,102.09466 C135.04048,102.509564 134.217116,102.59174 133.457398,102.90755" id="path48" fill="#FFF201"></path>
                        <path d="M119.579453,150.719029 C119.381266,149.795767 118.578849,149.56052 117.861024,149.3148 C115.991135,148.673511 114.046321,148.800802 112.126483,148.973209 C110.690027,149.102111 109.271296,149.417116 107.839675,149.609664 C106.487812,149.791738 105.135949,149.867469 103.929907,149.036049 C103.174217,148.515606 102.938165,148.040278 102.989726,147.295867 C106.272706,148.145817 109.318023,147.467469 112.220742,145.865857 C112.48177,145.722454 112.89184,145.509765 112.712182,145.154478 C112.552666,144.838667 112.120037,144.997378 111.830007,145.062635 C110.18328,145.43484 108.519635,145.601608 106.851155,145.341386 C104.543804,144.981265 102.633633,143.845314 101.064247,142.131719 C100.413291,141.421145 99.7228575,140.731517 99.1693832,139.94763 C97.0473289,136.940178 93.9842877,136.014498 90.5224549,135.95327 C89.277742,135.930712 88.0249726,135.954075 86.86888,136.532524 C88.6404812,136.4576 90.3991921,136.42618 92.1047308,137.073914 C95.4569966,138.346824 97.8755263,142.644105 97.172203,146.139775 C96.9546804,147.222554 97.181065,147.494055 98.3000982,147.564951 C98.9156068,147.603622 99.4900277,147.40624 100.08459,147.259614 C100.08459,147.378848 100.103925,147.444911 100.082173,147.490832 C98.9631395,149.854578 99.581065,151.137962 102.117218,151.862232 C104.228799,152.46485 106.256594,151.964548 108.294861,151.505334 C111.208859,150.847932 114.087409,149.993148 117.118225,150.024568 C118.006845,150.034236 118.842293,150.191336 119.579453,150.719029" id="path50" fill="#D3D2D2"></path>
                        <path d="M103.325677,20.8726682 C102.15186,20.5334134 101.765959,20.7879955 101.733734,21.9842089 C101.720843,22.4613086 101.778044,22.946223 101.852968,23.4192139 C102.098688,24.9779651 101.906946,26.4828996 101.374418,27.9597979 C100.940984,29.1600396 99.8702895,29.3541987 98.8358485,29.5783276 C98.1792523,29.7208452 97.507349,29.8159106 96.8378626,29.8690828 C94.7278929,30.0389922 93.105335,31.1606035 91.6342374,32.54155 C90.7963724,33.3285792 89.8747208,33.6468068 88.7363523,33.4888209 C88.2287994,33.4180052 87.6028175,33.2559105 87.3732103,34.0093446 C87.6036232,34.829405 88.0249726,35.5513385 88.5937541,36.1707141 C89.780461,37.4632015 91.7180239,37.6702508 93.1351437,36.5769981 C95.8445092,34.486122 98.9172181,33.2961925 102.250954,32.6954272 C102.985697,32.5632217 103.684187,32.3199992 104.295667,31.8897877 C105.127087,31.3056991 105.563744,30.5362329 105.655586,29.4735139 C105.93031,26.3072702 104.783079,23.5545613 103.325677,20.8726682" id="path52" fill="#FFFA99"></path>
                        <path d="M80.8298066,139.551255 C80.473714,139.763944 80.1243082,139.988718 79.7601591,140.188516 C78.5275308,140.862836 78.0406828,140.77341 77.1075912,139.688214 C76.9760303,139.535143 76.8775006,139.383682 76.648135,139.43766 C75.3052952,141.15045 75.4710958,142.936552 76.4236839,144.743602 C76.1146406,144.84189 75.8295248,144.89909 75.5755872,145.021547 C75.094701,145.252766 74.818125,145.662836 74.9263224,146.192141 C75.0368561,146.73192 75.4600585,146.962333 76.0036235,146.967167 C76.4535731,146.970389 76.8951441,146.95911 77.3379235,146.822151 C77.6359296,146.729503 77.7526667,146.597378 77.7570978,146.289624 C77.7920625,143.802615 79.1956476,142.425777 81.461428,141.756291 C82.4910352,141.557298 83.5021127,141.305938 84.5792527,141.408254 C86.6980844,141.611275 88.3730089,142.564347 89.6273895,144.253773 C90.6441065,145.622554 90.42175,147.639875 89.1657581,149.054578 C88.8451136,149.414699 88.4108739,149.659614 88.1546806,150.079352 C89.6402797,152.207046 91.8324247,152.337559 94.1059392,152.125676 C94.9123843,152.049946 95.7566945,151.968576 96.5365535,151.460218 C95.4384669,151.43202 94.4112766,151.416713 93.4799574,150.893048 C92.2747208,150.217116 92.0829786,149.40342 92.8853955,148.337559 C94.3927469,146.336351 94.0986885,143.245918 92.2110752,141.255183 C89.4300078,138.322655 86.1164128,137.649141 82.3468257,138.941386 C81.8320221,139.117821 81.3349426,139.346623 80.8298066,139.551255" id="path54" fill="#FFFFFF"></path>
                        <path d="M64.1691827,143.092846 C62.7146006,141.391336 60.8717004,140.142595 59.0901899,138.839876 C51.7928688,133.504931 44.2503916,128.535747 36.5326073,123.829201 C34.5210062,122.602212 32.2117212,122.455586 30.0285995,121.84894 C29.162537,121.608053 28.2918019,121.376835 27.411238,121.198789 C25.539093,120.820138 24.3514193,119.539171 23.2382673,118.134136 C19.7992341,113.792545 16.8812886,109.087611 13.7619332,104.523663 C13.4176835,104.019333 13.0589322,103.522253 12.6627187,103.059011 C12.2579655,102.5861 11.7761931,102.206644 11.0854378,102.289625 C11.1395768,102.899494 11.5863844,103.304731 11.8910772,103.774418 C15.3386502,109.089222 18.8157901,114.382273 22.7426379,119.365959 C23.9781666,120.932927 25.4311373,121.986704 27.4338765,122.270289 C28.2898684,122.391135 29.1207243,122.678748 29.9726075,122.838265 C32.9481563,123.397379 35.6589719,124.553471 38.2162327,126.180863 C45.9623755,131.110571 53.4790722,136.357701 60.2580448,142.56193 C61.6695251,143.85337 62.8276319,143.256391 64.1691827,143.092846" id="path56" fill="#FFF201"></path>
                        <path d="M192.008052,88.4044288 C192.726682,92.4946603 191.17502,95.8308133 188.540579,98.7995947 C186.151053,101.492042 183.695464,104.126483 181.718424,107.15891 C180.190932,109.501709 179.12346,112.024972 178.590126,114.764952 C178.484588,115.303119 178.254175,115.894458 178.67069,116.428597 C178.985695,113.698285 180.297276,111.396573 181.767568,109.153673 C183.900902,105.897278 186.805232,103.340179 189.450146,100.539776 C192.541385,97.2672685 195.003419,93.5548819 196.203822,89.1448115 C196.737961,87.1806625 196.73071,85.2261812 195.458605,83.2604209 C195.032422,85.5959697 193.665252,87.1025154 192.008052,88.4044288" id="path58" fill="#FFF201"></path>
                        <path d="M115.520642,47.7807037 C114.774619,47.8719827 114.721447,48.523745 114.520037,49.0408044 C113.89325,50.6482968 113.048134,52.0370581 111.229,52.5189111 C110.532122,52.7026774 109.826382,52.6066452 109.125476,52.6259 C107.954076,52.6589312 106.947832,52.9459 106.225174,53.9970178 C105.465456,55.1032413 104.353673,55.5737348 102.991337,55.5270882 C102.38469,55.506061 101.698285,55.2813682 101.189121,55.8669875 C102.190531,58.6335534 104.657399,59.4948626 107.130712,57.8660207 C109.147228,56.5382463 111.261226,55.5224155 113.687812,55.2457589 C114.003623,55.2095857 114.316211,55.1073501 114.621548,55.0081759 C117.439675,54.0914387 118.311377,51.4296865 116.572001,49.0313784 C116.252162,48.5914187 115.872706,48.1957692 115.520642,47.7807037" id="path60" fill="#FFFA99"></path>
                        <path d="M184.850751,53.6178033 C185.226179,56.3865444 184.544608,58.9123852 183.059009,61.2414889 C181.174618,64.1949631 179.307146,67.1582662 177.83202,70.3452148 C176.734739,72.7152449 175.841285,75.1516598 175.506944,77.7612065 C175.371597,78.8148218 175.345816,79.8709346 175.701909,80.8974804 C175.706743,80.9127875 175.754276,80.9240665 175.777639,80.9192326 C175.806642,80.9127875 175.832423,80.887007 175.859814,80.8700886 C175.814699,77.2489004 177.109361,74.0156276 178.799593,70.9139156 C180.233631,68.2804414 182.025373,65.883664 183.815504,63.4827779 C186.048737,60.4858797 188.129703,57.3945605 189.053772,53.6902303 C189.545212,51.7164136 189.488011,49.6145003 188.849139,48.1942385 C188.20785,50.5724056 186.806038,52.3051749 184.850751,53.6178033" id="path62" fill="#FFF201"></path>
                        <path d="M128.223159,67.2652551 C127.39899,67.1821131 127.122655,67.5569772 127.275727,68.3471483 C127.461024,69.3139157 127.042091,69.922254 126.142998,70.3058996 C125.222152,70.6980043 124.408456,71.2396357 123.842897,72.1280143 C123.441689,72.7580244 122.796372,73.0466044 122.018124,72.9676518 C121.252766,72.8911966 120.486603,72.7992731 119.718829,72.7759901 C118.734337,72.7461009 117.791739,72.8854765 117.185898,73.8110757 C118.291236,75.5214483 119.705133,76.7016295 121.886805,76.626705 C122.493451,76.606564 122.972001,76.4489004 123.432827,76.0057987 C124.236855,75.230693 125.249544,74.8020122 126.364549,74.6708541 C126.942998,74.6031804 127.503723,74.4838652 128.05478,74.2984876 C129.165757,73.9256376 130.322655,73.5759901 130.543401,72.192546 C130.797177,70.5957686 130.636855,69.0980849 129.22618,68.0129691 C128.895868,67.7590315 128.557499,67.5150839 128.223159,67.2652551" id="path64" fill="#FFFA99"></path>
                        <path d="M107.621347,176.662231 C107.435244,176.448737 107.1718,176.397176 106.919635,176.399593 C104.943401,176.418928 103.231417,175.60201 101.548437,174.706944 C96.9764326,172.274719 92.0853955,171.106542 86.9260804,170.928495 C85.1601187,170.867267 83.3965739,170.685998 81.6354461,170.525675 C79.4266244,170.325071 77.9097664,168.886199 76.3912972,167.490832 C72.4474504,163.868677 68.9315592,159.837257 65.3933518,155.830812 C62.7382059,152.824971 59.5471486,150.847126 55.5069473,150.351658 C54.9729694,150.286401 54.4889412,150.415303 53.9825968,150.466059 C55.111056,150.787509 56.2427378,151.09768 57.367491,151.431215 C60.6385483,152.401205 63.0652149,154.525676 65.292083,157.020741 C69.0203407,161.197982 72.7092832,165.414699 76.8598571,169.198787 C78.9243082,171.080761 81.311579,171.617317 84.0298066,171.679351 C88.8185275,171.788113 93.6153048,172.042695 98.0785474,174.142191 C99.8203399,174.961526 101.601609,175.698686 103.379655,176.439069 C104.392344,176.861224 105.454177,177.124668 106.562737,177.127891 C106.979252,177.128696 107.420743,177.164145 107.621347,176.662231" id="path66" fill="#FFF201"></path>
                        <path d="M176.95629,148.89909 C176.555887,149.841688 175.726078,150.376633 174.925273,150.885797 C170.612685,153.632222 165.896471,155.327287 160.843501,156.038667 C156.384286,156.667066 151.938768,156.584085 147.548033,155.459412 C147.365152,155.412685 147.195968,155.313591 147.02195,155.238667 C146.646522,155.320036 146.26626,155.385293 145.897277,155.489221 C145.595163,155.573813 145.306744,155.705132 144.866864,155.870288 C146.451557,156.856391 148.085394,157.172202 149.744206,157.372 C157.195565,158.267871 164.410872,157.311577 171.365957,154.49909 C174.352463,153.291436 177.234235,151.879956 179.542392,149.54199 C180.032221,149.046522 180.49063,148.521245 180.783883,147.783279 C179.464245,148.168375 178.21067,148.534135 176.95629,148.89909" id="path68" fill="#FFF201"></path>
                        <path d="M133.457398,102.90755 C134.151054,103.136352 134.789926,102.961528 135.379654,102.600602 C136.776633,101.747429 138.231618,101.551659 139.805837,102.051156 C140.953874,102.41611 142.156693,102.367772 143.347428,102.330712 C144.173209,102.305738 144.64048,101.843301 144.859614,101.083583 C145.650752,98.3444084 144.742796,97.368779 141.886804,97.7965736 C140.630812,97.9842876 139.50614,98.5691818 138.277539,98.821347 C136.90473,99.1033208 135.536754,99.0654557 134.153471,98.8938545 C133.264851,98.7834819 132.358506,98.6892221 131.479554,99.0082553 C131.494055,99.3949623 131.760722,99.6430992 131.983078,99.9145997 C132.705737,100.797581 133.052967,101.86747 133.457398,102.90755" id="path70" fill="#FFFA99"></path>
                        <path d="M187.921043,123.775223 C187.762332,125.113391 186.981667,126.147832 186.221949,127.181467 C183.87351,130.375828 180.859613,132.902313 177.855383,135.433632 C175.8864,137.092444 173.871496,138.698083 171.931516,140.389926 C171.043702,141.164146 170.172,142.003622 169.816713,143.203219 C171.900096,141.026381 174.396773,139.36193 176.79919,137.581467 C180.93776,134.514397 184.997377,131.352263 188.653369,127.709161 C190.21067,126.157499 191.504527,124.393149 192.540579,122.451558 C192.880559,121.813491 193.210871,121.154478 193.189119,120.294861 C191.570589,121.766764 189.840881,122.918829 187.921043,123.775223" id="path72" fill="#FFF201"></path>
                        <path d="M141.273712,86.7802597 C140.377841,86.464449 139.791336,86.8173191 139.435243,87.6430995 C139.282977,87.9959696 139.128295,88.3488397 139.015505,88.7137944 C138.520037,90.3170169 137.301104,91.0670672 135.633431,90.788316 C134.184085,90.5458185 132.750853,90.2130894 131.258003,90.2984872 C130.607046,90.3363522 130.067268,90.479756 129.668476,91.0114781 C129.663642,93.5484367 131.278949,94.5474297 133.542796,93.4058386 C135.517419,92.4100682 137.601608,92.3198366 139.734135,92.6759292 C140.220742,92.7572988 140.696875,92.7403804 141.165757,92.6251739 C142.02054,92.4140964 142.546623,91.9540763 142.632826,90.9824751 C142.77623,89.3679736 142.079352,88.0660602 141.273712,86.7802597" id="path74" fill="#FFFA99"></path>
                        <path d="M56.1184276,88.1538749 C56.7220932,88.0958689 57.3260006,88.0386685 58.2074507,87.9532707 C57.1569774,87.5375608 56.3050943,87.4255769 55.4591728,87.3329283 C49.7221337,86.7029183 44.0621943,86.86888 38.5910967,88.9885174 C37.6406839,89.3566946 36.9263233,89.9286987 36.5471089,90.8882153 C36.1385691,91.9218507 36.4700092,92.6735123 37.5274109,92.969182 C38.2338762,93.1665636 38.9649134,93.2761306 39.6846717,93.4251739 C40.071137,93.34461 40.2590121,93.0263824 40.4692034,92.7476311 C41.6584884,91.1734116 43.2707341,90.2074499 45.0846313,89.5427974 C47.4987299,88.6573996 50.014178,88.2924449 52.5682968,88.2771378 C53.7556482,88.2706927 54.9297871,88.0072486 56.1184276,88.1538749" id="path76" fill="#D3D2D3"></path>
                        <path d="M59.4568364,88.9925456 C64.7230598,93.619333 69.9880748,98.2485373 75.257118,102.873713 C76.5291421,103.989524 77.8153455,105.089222 79.0949426,106.196171 C79.1593938,106.132525 79.2239255,106.068074 79.2887795,106.003623 C78.0044291,104.605033 76.733694,103.195164 75.4349226,101.811881 C71.3837646,97.4952644 67.3225361,93.1883159 63.2628383,88.8789504 C63.0868866,88.6928477 62.8899078,88.5260804 62.7026772,88.350451 C61.6137749,88.5293029 60.5157689,88.6630391 59.4568364,88.9925456" id="path78" fill="#FFF201"></path>
                        <path d="M56.1184276,88.1538749 C56.0404417,88.102314 55.963342,88.0064429 55.8836643,88.0048316 C51.6223149,87.8952647 47.399314,88.024167 43.4579647,89.9633412 C41.8567563,90.7520622 40.6152659,91.9145999 39.6846717,93.4251739 C40.7483575,93.8489403 41.9014692,94.0680742 42.8426978,94.7705918 C43.1253161,94.982475 43.2562326,94.8898264 43.4523252,94.6465233 C46.7021942,90.5909343 51.1719625,88.9055365 56.1184276,88.1538749" id="path80" fill="#FFFFFF"></path>
                        <path d="M88.1546806,150.079352 C90.2847913,149.265656 91.2604207,146.093048 89.8779434,144.154679 C87.9033211,141.388919 84.6130895,140.423763 81.461428,141.756291 C83.4118811,141.446925 85.2785477,141.661225 87.0195346,142.652967 C89.3413875,143.975827 89.7256775,147.067871 87.7969767,148.889422 C87.1299072,149.519432 87.7615285,149.765152 88.1546806,150.079352" id="path82" fill="#D3D2D2"></path>
                        <path d="M66.7673699,85.6918408 C67.7747415,85.4936535 68.7748623,85.2294037 69.7916599,85.112586 C71.2408441,84.9458186 72.6822137,85.0336333 74.2604614,85.8239656 C73.8346809,84.8652547 73.4985682,84.1071479 73.1621331,83.3474299 C72.4008844,82.6271883 71.4507938,82.8463222 70.6010858,82.9639456 C69.162536,83.1637441 67.9748623,83.937158 66.995527,85.0086585 C66.8252954,85.1947612 66.6503105,85.4001993 66.7673699,85.6918408" id="path84" fill="#FEFEFE"></path>
                        <path d="M66.7673699,85.6918408 C68.3137949,83.5625357 70.6656176,82.7005015 73.1621331,83.3474299 C72.9321231,81.7579033 71.7903708,81.0022135 70.2791523,81.5492427 C68.4617103,82.2058388 67.3385683,83.6374601 66.4705724,85.2857985 C66.2689208,85.6684772 66.3201595,85.6950633 66.7673699,85.6918408" id="path86" fill="#D3D2D2"></path>
                        <path d="M58.4567156,106.712585 C59.5263631,106.860823 60.5960106,107.009061 61.806081,107.177439 C60.9073097,105.854579 60.6882563,104.556694 61.1464234,103.123462 C61.3494446,102.489423 60.8777427,102.665858 60.5409854,102.812485 C59.4319421,103.322455 58.5148827,104.03464 58.1583873,105.260823 C58.0098274,105.769987 57.8052755,106.344408 58.4567156,106.712585" id="path88" fill="#FEFEFE"></path>
                        <path d="M58.4567156,106.712585 C58.0456783,105.614499 58.5234225,104.384287 59.6957085,103.519031 C59.9915393,103.300702 60.3842885,103.197581 60.5409854,102.812485 C58.6357286,102.858406 57.0468465,103.535143 55.9935535,105.185093 C55.4412071,106.049544 55.574057,106.321045 56.5575011,106.487812 C57.1853359,106.594156 57.8234829,106.639272 58.4567156,106.712585" id="path90" fill="#D2D1D2"></path>
                        <path d="M49.3366352,100.605033 C49.8728688,101.299494 50.4087802,101.995566 51.0495053,102.826986 C51.2858799,100.650954 52.5166553,99.3724044 54.1962524,98.43464 C54.1823954,97.9762312 53.8180047,98.0382654 53.5649533,98.0696854 C52.2126875,98.2396753 50.9107742,98.5756269 49.8379041,99.4771375 C49.5043694,99.7566944 49.1059001,100.053975 49.3366352,100.605033" id="path92" fill="#FEFEFE"></path>
                        <path d="M49.3366352,100.605033 C49.7274509,99.3740156 50.8389917,99.0042271 51.8696462,98.7045293 C52.595044,98.4934517 53.3591125,97.9198364 54.1962524,98.43464 C54.45591,98.3927468 54.6730299,98.2864024 54.8665444,97.9327267 C52.568619,97.6918405 50.360039,97.6580036 48.1964137,98.4104709 C47.5994349,98.6175202 47.3772395,98.8761305 48.0053966,99.3659592 C48.4815295,99.737359 48.8953865,100.189323 49.3366352,100.605033" id="path94" fill="#D3D2D2"></path>
                        <path d="M82.1792527,144.066864 C81.3687794,144.088617 80.3125055,144.935344 80.1284169,145.735344 C79.969142,146.428999 80.2357281,146.862433 80.9619315,146.962333 C81.8553857,147.085596 83.1186283,146.251759 83.3748217,145.379251 C83.5947613,144.630812 83.059011,144.044307 82.1792527,144.066864" id="path96" fill="#FEFEFE"></path>
                        <path d="M79.7800584,94.2831799 C79.0470877,93.2849926 78.3137946,92.2868053 77.4188097,91.0678728 C77.5109749,92.2505516 77.2107936,93.1319211 76.4712166,94.0294035 C77.7114986,93.7796553 78.7154059,93.9802595 79.7800584,94.2831799" id="path98" fill="#F7F6F7"></path>
                        <path d="M88.1482355,105.220541 C88.2835829,106.334741 88.2223543,107.183885 87.8324248,108.057198 C88.6783462,108.111981 89.4807631,107.978245 90.4225556,108.38751 C89.7393734,107.207248 89.0666644,106.289625 88.1482355,105.220541" id="path100" fill="#F9F9F9"></path>
                        <path d="M82.6038247,98.090632 C82.7488398,99.1178223 82.4862014,100.025778 82.1188298,100.945818 C82.9462215,100.963542 83.7518609,100.769383 84.5937542,101.057802 C83.9307129,100.068477 83.2676716,99.0799572 82.6038247,98.090632" id="path102" fill="#F9F9F9"></path>
                        <path d="M90.5869061,130.396774 C88.7500481,129.290631 86.7158085,129.102112 84.7307129,129.491235 C81.7369567,130.079352 79.0769769,129.372806 76.4806426,128.006442 C74.9685379,127.211276 73.5369166,126.292041 72.178689,125.260823 C71.7456578,124.931316 71.3393738,124.555082 70.9736941,124.152263 C69.8986488,122.96475 69.1890416,121.644307 69.7702299,119.756694 C67.7376015,121.376029 65.556091,121.810269 63.2666248,121.736956 C61.0491828,121.666059 58.8859603,121.212484 56.721771,120.599393 C57.2910358,120.999796 57.85877,121.40181 58.4296461,121.800601 C63.7805422,125.537963 69.0694041,129.36475 74.5468662,132.918426 C75.7266446,133.683783 76.0611461,133.674115 77.0742378,132.730712 C77.5553656,132.282776 77.792707,132.464045 77.9994341,132.937761 C78.3233012,133.679755 78.0730695,134.393552 77.8417705,135.095263 C77.5465842,135.992746 77.4140565,136.896673 77.6375409,138.068879 C78.7556879,135.33615 80.4608238,133.363944 82.9276918,132.113592 C85.3252748,130.898688 87.9081549,130.496673 90.5869061,130.396774" id="path104" fill="#D3D2D3"></path>
                        <path d="M35.558267,115.179856 C38.59013,114.663441 41.2845911,115.312787 43.75444,117.037661 C44.5921439,117.622555 45.5602003,118.018124 46.4614691,118.514398 C48.4686393,119.618124 50.6517611,119.27331 53.0233219,119.328899 C52.0487399,118.946221 51.2650944,118.688416 50.5258396,118.337157 C49.1811468,117.697479 48.182315,116.700903 47.4732717,115.36757 C45.3779646,111.427993 42.0953061,108.978849 37.8122045,107.825979 C37.3740978,107.708356 36.8847524,107.541588 36.5433223,107.923462 C36.1984281,108.309363 36.5606436,108.702515 36.7214492,109.076332 C36.9694251,109.652364 37.4640877,110.232424 36.9395358,110.86324 C36.3972599,111.515002 35.5963737,111.486805 34.8813687,111.327288 C33.2534131,110.965556 31.8199388,110.163945 30.5551654,109.086805 C28.9082772,107.683381 27.6878946,105.966563 26.9367163,103.930712 C26.7544807,103.437661 26.4860416,102.985697 25.908237,103.160521 C25.3165754,103.338567 25.4065653,103.847732 25.5054173,104.368175 C26.7673709,111.005032 30.4566357,115.606845 36.8523656,117.939171 C37.3228591,118.110772 38.0111169,118.522454 38.2952659,117.853773 C38.6137352,117.104529 37.813413,116.942595 37.3130303,116.700098 C36.5807846,116.344005 35.7855379,116.063643 35.558267,115.179856" id="path106" fill="#252122"></path>
                        <path d="M111.114599,109.887611 C105.735345,105.438064 100.654982,100.880561 95.4610248,96.4205414 C96.1893229,97.7192322 96.6936532,99.1701889 97.735345,100.240078 C101.186704,103.784892 104.743603,107.228195 107.908154,111.042898 C108.157903,111.345012 108.327087,111.298285 108.613089,111.093653 C109.32044,110.5861 110.127691,110.262233 111.114599,109.887611" id="path108" fill="#252122"></path>
                        <path d="M42.9635437,52.3190319 C41.916857,53.6895858 41.0958298,53.9262021 39.5364341,53.3695052 C38.07871,52.8499483 36.9278541,51.856756 35.7832821,50.8720229 C33.8254976,49.1867863 31.7113386,47.9717209 28.994239,48.1369575 C28.0334333,48.1957692 27.4034233,47.4417712 27.5239469,46.623886 C27.6494656,45.7707139 28.591097,45.121449 29.4624766,45.3068267 C30.0648532,45.4364541 30.5652359,45.7877129 31.2439871,46.2864842 C30.3514997,43.9419929 28.9397777,42.2526475 27.2126479,40.8578439 C23.6326278,37.9667261 19.5874315,37.1424764 15.158912,38.4821743 C11.9744609,39.4448329 9.80140962,42.3709959 9.67991919,45.6807239 C9.57639452,48.4938558 10.1230209,51.1168567 11.7601608,53.4532112 C12.7249946,54.8310157 13.9504528,55.7946411 15.9041285,55.8437045 C15.4752061,55.4997771 15.1478747,55.2498677 14.8348033,54.9832816 C14.2673914,54.502476 13.8859211,53.9133118 13.9900903,53.1385284 C14.077905,52.4849131 14.2872101,51.8501498 15.0188919,51.6600188 C15.7694256,51.4649735 16.2440278,51.9275717 16.5971396,52.5044096 C17.1469079,53.4041477 17.3583883,54.4323048 17.4178445,55.4522443 C17.6938566,60.1548424 20.84721,62.9736137 26.4513991,62.2366148 C25.7943196,62.0223147 25.2092642,61.877219 24.6639269,61.6396359 C24.0574415,61.3758696 23.4453972,60.9894043 23.687653,60.1989109 C23.9253166,59.4231606 24.6015704,59.1251546 25.3735341,59.211358 C26.2468473,59.308921 27.03581,59.6931304 27.7863437,60.1409854 C30.6470083,61.8447517 33.1665651,64.003946 35.7049739,66.1310759 C41.6710564,71.1297465 47.6592133,76.1030394 53.5375616,81.3446103 C53.5573803,80.9973796 53.3204418,80.8644491 53.1725264,80.710572 C47.5607642,74.852687 42.2110765,68.7603608 36.9905328,62.5554063 C36.1861018,61.5993539 35.3127886,60.68165 34.7516608,59.5415091 C34.5106134,59.0517609 34.2865651,58.555487 34.2796366,57.9875111 C34.2667464,56.9385686 34.7577031,56.4340771 35.8100293,56.4850741 C36.1911773,56.5036844 36.5684583,56.6043893 36.9467866,56.6704518 C40.4223152,57.2834628 42.3548831,55.9290218 42.9635437,52.3190319" id="path110" fill="#FFFA99"></path>
                    </g>
                </g>
            </g>
        </g>
    </g>
</svg>