<?xml version="1.0" encoding="UTF-8"?>
<svg width="200px" height="200px" viewBox="0 0 200 200" version="1.1" xmlns="http://www.w3.org/2000/svg" xmlns:xlink="http://www.w3.org/1999/xlink">
    <!-- Generator: Sketch 54.1 (76490) - https://sketchapp.com -->
    <title>tufts</title>
    <desc>Created with Sketch.</desc>
    <g id="tufts" stroke="none" stroke-width="1" fill="none" fill-rule="evenodd">
        <g id="tufts_BGL">
            <g id="tufts" transform="translate(9.000000, 0.000000)">
                <g id="g10" transform="translate(90.585239, 99.984734) scale(-1, 1) rotate(-180.000000) translate(-90.585239, -99.984734) translate(0.000000, 0.239189)" fill-rule="nonzero">
                    <g id="g12">
                        <path d="M168.220861,89.8488527 L163.92824,92.338929 L163.876332,87.5328222 L163.862591,86.2697179 C163.864627,86.1292599 163.866663,85.9419826 163.866663,85.7277332 C163.866663,85.2554686 163.852413,84.6661556 163.804067,84.156232 C163.165899,84.5404559 162.141981,85.2839673 160.600505,86.7638655 C159.829004,87.5053413 157.744525,89.7414736 155.730785,92.0569952 C157.050887,94.8895651 158.241726,97.9872749 159.217808,101.261066 L160.745543,101.725697 L162.226459,108.629005 L161.157757,109.755214 C161.307884,110.690582 161.433075,111.633076 161.539436,112.581168 L162.759283,113.448343 L163.053431,119.563356 L161.892617,120.455977 C161.875314,121.170989 161.84478,121.886002 161.796943,122.601015 L162.894144,123.643254 L161.908393,129.56132 L160.706866,130.069717 C160.600505,130.534348 160.490072,130.996943 160.370479,131.458012 L161.181675,132.4916 L159.166917,138.662083 L157.642235,138.918063 C157.438673,139.346052 157.223915,139.771498 157.002032,140.194907 L157.475314,141.851396 L154.601523,146.568953 L152.757757,146.711956 C152.573024,146.947579 152.388291,147.17964 152.205085,147.407121 L152.303813,149.379131 L148.472261,153.445289 L147.116027,153.36081 L146.762337,153.338927 C146.464118,153.629004 146.160302,153.920607 145.849869,154.213228 L146.018826,156.036637 L140.54249,159.752159 L139.295671,159.227986 C136.386765,161.090581 132.793381,163.823914 132.680913,167.394398 C132.679895,167.419334 132.679895,167.441726 132.679895,167.464118 C132.679895,167.874805 132.80305,167.991853 132.905849,168.086001 C133.819335,168.939436 136.632058,169.160301 138.310938,168.991344 L138.779131,168.945034 L139.244271,169.047833 C139.829513,169.17964 145.024933,170.440199 147.033584,174.117553 C147.566409,175.092616 147.833075,176.137909 147.833075,177.217298 C147.833075,178.028494 147.68193,178.859538 147.377604,179.692616 C146.116536,183.149614 143.8402,184.005593 142.334348,184.570988 C141.414755,184.918062 140.74707,185.204067 140.035111,186.077858 C140.054958,186.558265 140.089055,187.065644 140.089055,187.505848 C140.089055,194.189817 137.909411,196.34656 135.709411,197.540453 C134.467172,198.215262 130.138419,200.302285 126.644781,198.83511 C125.471753,198.34198 123.931295,197.255466 123.250379,194.873278 L123.250379,194.874295 C122.874806,193.561318 122.207631,192.22544 120.07786,189.505339 C113.390328,185.575059 110.407631,180.122133 109.094654,176.215772 C108.227478,173.634601 107.577605,170.610174 107.577605,167.334856 C107.577605,161.510937 109.632058,154.898724 116.167427,148.605594 C117.115519,147.690073 118.035112,146.913991 118.917554,146.236638 C118.893636,146.232057 118.816282,146.218826 118.816282,146.218826 C118.816282,146.218826 116.288547,144.360811 114.822389,143.282948 C112.125188,144.867681 108.039692,147.288546 107.02188,147.967426 C99.7521604,152.818826 86.7185729,147.521625 86.5872752,147.46819 C84.253433,146.502795 79.7231532,143.921116 77.6457996,142.7145 C74.1597946,143.70076 63.8376574,146.410683 54.3353676,146.817299 C44.9014238,147.221879 28.4772512,139.1145 16.3830021,130.901778 C16.240254,130.805086 1.88255466,120.627987 0.448672253,116.544526 C0.150087528,115.690073 0,114.835621 0,113.980659 C0,110.414247 2.59721113,106.837147 7.7562339,103.31501 L7.94371481,103.186257 C9.16564863,102.345545 11.9980659,98.5781146 14.0177605,95.451906 C14.2447834,94.8050867 22.070432,72.4707361 22.070432,72.4707361 C22.070432,72.4707361 23.7217806,70.6045784 23.8062589,70.5083952 C23.8887526,70.4071229 25.3552157,68.5826955 25.3552157,68.5826955 C27.4222894,66.0173011 37.828396,53.1435101 39.8536886,51.3089046 C45.5162838,46.1704823 49.568243,43.8624925 53.397963,43.5893628 C55.0956729,43.4677343 56.8946551,43.9531796 58.7195914,44.7817292 C58.8162835,44.7002024 59.1114489,44.4499226 59.1114489,44.4499226 C72.481932,33.1245793 80.6732804,20.0035618 84.8834584,3.15620857 L85.6737892,0 L88.7165372,1.15020862 C102.359285,6.30228992 128.939946,29.8346049 134.59847,58.8361308 C138.912974,60.8111944 141.846307,63.4315506 143.775569,65.8259526 C145.443253,64.9241714 146.968953,64.1541969 148.088546,63.5938915 L148.355721,63.4600493 C161.823915,56.7043243 169.959283,58.1333319 174.412209,60.521627 C178.607629,62.7720086 180.440708,66.3516523 180.757756,68.9506344 C181.470224,74.82239 178.614754,83.8188274 168.220861,89.8488527" id="path14" fill="#D3D2D2"></path>
                        <path d="M166.767935,87.3435093 C166.624423,85.1552142 167.975568,75.6661559 158.595416,84.6753159 C157.521116,85.707377 154.609665,88.8656466 152.311447,91.5954176 C160.577604,107.959285 162.238164,129.427478 151.138928,144.069717 C148.006103,148.205594 144.998979,151.130276 141.27277,154.496179 C139.499742,156.097706 130.018317,159.974551 129.786765,167.303304 C129.611702,172.823405 138.608139,171.872769 138.608139,171.872769 C138.608139,171.872769 146.500251,173.647833 144.656994,178.70025 C143.071752,183.046306 140.014246,180.561828 137.107376,185.177095 C137.648852,193.04885 135.53791,194.338926 134.328241,194.994906 C133.11959,195.650886 127.263101,198.375059 126.03562,194.077858 C125.476842,192.128239 124.488038,190.387781 122.055468,187.330275 C121.878877,187.108901 114.735366,183.910428 111.839692,175.292616 C109.164883,167.331802 110.017809,158.548088 118.176078,150.69109 C124.020862,145.062083 128.474806,145.001523 130.745035,142.192363 C131.239691,141.101778 131.336383,139.732312 130.551142,138.072261 C127.399997,142.019335 122.880404,143.951141 119.971498,143.474297 L115.002542,139.819844 C115.002542,139.819844 107.022898,144.484475 105.414756,145.557757 C100.413229,148.895162 90.5592853,145.975569 87.6926187,144.791345 C84.8269699,143.606612 78.0330769,139.587274 78.0330769,139.587274 C78.0330769,139.587274 65.3725174,143.445798 54.2111946,143.922643 C46.1994899,144.266663 31.0776583,137.380149 18.0099232,128.506358 C16.0379131,127.166918 4.0851602,118.157249 3.18165386,115.584221 C1.5247277,110.864119 7.95562321,106.694145 9.58569951,105.572516 C12.1079895,103.834603 16.6354703,96.7424912 16.6354703,96.7424912 L24.6157246,73.9643747 L26.0217805,72.3765885 L27.6131291,70.3974537 C27.6131291,70.3974537 39.8397954,55.2300241 41.7984722,53.4534338 C46.8109912,48.9074288 50.4069199,46.7058512 53.6045788,46.4778105 C57.3898204,46.2092609 62.7791333,50.5613728 65.8610671,53.1460547 C64.7689551,49.581729 60.9832046,46.6594899 60.9832046,46.6594899 C74.1180643,35.5343503 83.1679369,21.9603048 87.6926187,3.85853934 C101.669718,9.13842216 127.402032,33.2403045 132.039691,60.8692097 C137.475824,62.9882936 140.958775,66.434095 142.930785,69.6147565 C145.536892,68.1002528 148.094144,66.8305327 149.65394,66.0488533 C169.36081,56.1638663 177.303812,64.5501256 177.883456,69.3007616 C178.348596,73.1430007 176.96997,81.4244254 166.767935,87.3435093" id="path16" fill="#713907"></path>
                        <polyline id="path18" fill="#713907" points="157.33791 128.353177 159.313991 127.51501 159.785238 124.684984 157.583711 122.594908"></polyline>
                        <polyline id="path20" fill="#713907" points="157.546052 120.147071 160.087528 118.190328 159.934347 114.992872 156.978113 112.892109"></polyline>
                        <polyline id="path22" fill="#713907" points="156.304322 110.66361 159.074805 107.744018 158.270225 103.999997 154.358266 102.809667"></polyline>
                        <polyline id="path24" fill="#713907" points="153.682439 136.645798 156.958266 136.09618 157.948597 133.064119 156.1145 130.731803"></polyline>
                        <polyline id="path26" fill="#713907" points="150.259029 144.002541 152.899233 143.795925 154.34249 141.427477 153.35623 137.973533"></polyline>
                        <polyline id="path28" fill="#713907" points="144.355213 150.288546 147.295162 150.470734 149.349615 148.29109 149.1888 145.062083"></polyline>
                        <polyline id="path30" fill="#713907" points="136.897198 155.074296 140.218317 156.473279 142.978622 154.599996 142.504322 149.468699"></polyline>
                        <path d="M117.135366,83.4167918 C114.279895,88.5730258 107.157249,89.6885474 103.71043,84.3557231 C101.280913,80.5974535 102.999489,74.281932 107.470226,70.3613214 C110.651906,67.5720085 116.475824,64.602034 123.065646,64.8320594 C126.942999,64.9674284 132.799488,66.0971994 135.571498,71.7765885 C129.513483,69.6819321 122.010684,72.2625936 118.92875,74.3180643 C116.153687,76.1674281 115.435112,80.8941456 117.135366,83.4167918" id="path32" fill="#FFFFFF"></path>
                        <path d="M168.767426,80.6366392 C169.085492,76.2921101 168.544016,73.676334 166.421879,73.2457997 C163.075314,72.5659015 153.019335,82.6814229 150.156739,85.7857485 C148.538419,83.7175552 144.226968,78.2040693 142.407121,76.4666648 C145.14249,74.4147564 149.917045,71.2402018 153.657503,69.1765886 C157.396943,67.1145021 169.576586,62.6223903 173.277349,68.9384207 C175.297706,72.3872755 172.975059,77.4636113 168.767426,80.6366392" id="path34" fill="#FFFFFF"></path>
                        <path d="M98.0773512,118.396435 C97.6452902,118.095162 96.9603029,117.932821 96.1323131,117.918572 C95.4712444,118.02646 94.9424913,118.630531 94.7674277,119.381676 C94.5399467,120.35216 95.1394378,121.311447 95.9674276,121.55674 C95.7435091,122.097198 95.5318042,122.677351 95.2865116,123.324679 C90.1496161,123.121117 92.4773514,115.329768 99.5007609,117.225442 C98.9374021,117.633585 98.4722622,118.019335 98.0773512,118.396435" id="path36" fill="#FFFFFF"></path>
                        <path d="M129.307376,122.806104 C129.22188,122.562847 129.12875,122.326206 129.032058,122.093127 C129.599997,121.712465 129.686002,121.319081 129.788801,120.907885 C129.867172,120.596944 130.084984,119.630022 128.967427,118.724679 C128.327732,118.206104 127.661574,118.495162 127.247325,118.790837 C126.91501,118.263101 126.577096,117.738419 126.245289,117.203559 C130.658521,115.690073 133.139437,122.67277 129.307376,122.806104" id="path38" fill="#FFFFFF"></path>
                        <path d="M130.609666,178.846815 C134.618317,176.768443 139.244271,178.824932 139.125696,180.040708 C139.348597,179.906357 145.329258,178.975059 138.753177,176.271751 C134.634093,174.813227 131.214755,176.776586 130.609666,178.846815" id="path40" fill="#D3D2D2"></path>
                        <path d="M76.6468174,133.40763 C75.7659014,131.950124 74.9430007,127.269717 75.2631024,124.802541 C72.1760796,124.188801 64.7847312,128.234093 60.6936372,130.702287 C57.0966907,132.870735 50.0850878,137.318572 40.287429,133.846816 C50.998472,140.329767 60.2692097,141.847834 76.6468174,133.40763" id="path42" fill="#D3D2D2"></path>
                        <path d="M87.8427459,120.43562 C86.9190818,115.047834 93.0610664,110.702796 97.2992342,111.042745 C94.7267152,108.746562 90.2361301,109.664119 87.2076314,111.100761 C82.4524152,113.35674 80.102797,118.393381 87.8697179,120.564882" id="path44" fill="#D3D2D2"></path>
                        <path d="M56.6274795,105.890583 C45.1196935,110.297198 25.95318,111.588801 17.1437655,106.165901 C24.8041724,106.660048 40.1896682,106.920608 52.9796424,100.603051 C42.7391338,102.4916 26.7881418,100.950125 23.6985236,98.7984708 C30.0463097,99.2147558 50.8706858,95.2539416 59.008141,90.1114481 C50.1675814,93.1597941 31.8125692,94.1068679 27.3397958,91.5450359 C28.9543504,87.1735347 32.1852918,78.4503797 32.1852918,78.4503797 C32.1852918,78.4503797 48.2580141,56.2544515 52.4498715,55.9638663 C60.2773522,55.4198459 73.8865121,68.4707362 75.7999981,72.6356216 C77.643764,76.6524154 78.043255,80.4442728 75.2244256,86.1430004 C73.1826954,91.0300232 61.9679374,103.845799 56.6274795,105.890583" id="path46" fill="#D3D2D2"></path>
                        <path d="M94.7399467,17.323053 C93.0727712,23.6478366 88.5435092,32.7210679 83.1206086,37.8590321 C83.1206086,37.8590321 92.2966898,31.2752664 99.5832036,32.9989814 C99.5832036,32.9989814 96.7099212,33.8076327 95.8061045,40.5862585 C95.8061045,40.5862585 108.414756,31.7090068 116.948598,43.7929251 C116.948598,43.7929251 109.725697,26.5760299 94.7399467,17.323053" id="path48" fill="#D3D2D2"></path>
                        <path d="M143.182185,128.370989 C143.533839,131.400506 143.596434,134.076841 143.394907,136.4402 L141.199996,136.847834 L143.129767,138.568444 C142.628495,141.585747 141.64478,144.037655 140.266154,146.065645 L137.445289,145.43104 L138.839691,147.873788 C137.169971,149.695671 135.111447,151.109411 132.752668,152.262592 L130.313483,151.117553 L130.620353,153.352159 C121.920608,158.015772 117.223916,163.75623 120.781167,173.027985 C121.806104,175.699232 125.653941,180.320606 128.631549,181.164372 L128.617808,181.232057 C132.69618,183.942489 133.366918,187.849359 133.366918,187.849359 C133.366918,187.849359 133.255467,191.833583 131.965391,191.980148 C130.83104,192.107883 129.595926,191.825949 129.220862,190.830021 C128.518572,188.954194 126.416282,185.089563 125.214246,183.702285 C120.035112,182.205593 117.308394,178.256484 115.916028,173.721115 C113.634094,166.29567 114.715519,156.968953 125.550633,151.120607 C130.30534,148.552159 137.145035,147.222897 137.125187,135.985747 C137.110938,127.653941 133.014246,119.572516 130.760811,110.534348 C130.382185,110.574552 129.796434,110.784221 129.410175,110.999488 C128.880913,111.292109 127.553177,112.549107 127.553177,112.549107 C126.098216,113.329768 123.876333,113.931295 120.731804,113.31043 C114.268191,112.033585 110.940455,105.275824 110.940455,105.275824 C114.433076,123.540964 121.925188,119.634094 124.774043,117.350124 C124.106358,118.563356 122.9659,120.0173 122.345035,120.660557 C121.409666,121.629005 118.966409,123.578114 116.990328,123.083966 C114.462593,122.452923 112.569463,119.083966 112.569463,119.083966 C112.569463,119.083966 112.676842,125.424424 115.467682,126.927223 C118.781676,128.711447 122.501778,123.618318 124.045798,121.166409 C126.168445,122.410684 126.907376,125.018826 127.168445,125.893127 C127.168445,125.893127 127.166409,134.558775 130.503305,129.562338 C130.397961,132.217299 127.543508,134.210175 126.204577,134.240709 C122.870735,139.06819 118.769463,137.150633 118.125697,130.118572 C115.377096,131.93791 111.857504,132.408648 108.727733,127.114501 C108.210684,130.250378 106.660048,133.811193 103.126715,136.637656 C98.7134835,140.168444 93.7150104,137.715009 93.1155193,137.284475 C92.219845,136.639691 86.7424915,135.617299 84.1389292,129.72875 C88.7200996,135.343508 93.7735346,135.158775 97.2305319,132.744017 C98.2106846,130.637147 98.1160281,127.245289 98.9791324,124.350124 C99.8366387,121.464119 102.806613,119.517045 104.599997,118.442745 C105.016282,118.182185 105.345036,118.011702 105.607631,117.892618 C105.478369,117.323152 105.134349,115.620353 105.134349,115.620353 C103.16641,106.475315 93.0234073,105.044272 90.9923641,101.776079 C87.7175551,97.9251884 90.2122115,91.2340944 90.9440181,86.3592854 C87.5959266,88.6290054 85.3786238,91.3577585 85.3786238,91.3577585 C85.080405,87.5053413 85.5358757,84.2066137 87.0325678,80.5414738 C90.495672,72.0697183 100.292109,72.033586 100.292109,72.033586 C96.1618297,75.7882933 96.3628475,79.7582677 96.9770968,82.5251888 C98.1160281,87.6381657 103.448852,93.1572496 110.99389,91.1852395 C113.718572,89.8101759 120.174043,87.4631021 122.433585,87.7272243 C123.332821,87.8325678 124.544526,89.2870207 125.681422,90.6971988 C124.650887,93.1374023 124.591345,95.4066134 124.591345,95.4066134 C125.58931,94.3531783 126.60305,93.5384201 127.586765,92.9022878 C127.712465,93.0178094 127.833585,93.122644 127.946053,93.2010155 C130.279895,94.8269696 132.157249,96.5236617 133.692109,98.2778601 C132.355213,100.512975 131.619335,102.266155 131.619335,102.266155 C133.039691,101.494654 134.284475,100.898216 135.378623,100.420863 C137.008648,102.72926 138.135874,105.125697 138.974551,107.582695 C137.960811,108.740964 136.981676,109.893636 136.702796,110.336384 L139.77506,110.239692 C140.37506,112.516028 140.806612,114.834603 141.224933,117.176078 L138.928241,119.056486 L141.658521,119.579132 C141.823406,120.480404 141.994398,121.383203 142.182185,122.288038 C142.459538,123.623407 142.687019,124.89618 142.875823,126.121625 L140.648851,127.707885 L143.182185,128.370989" id="path50" fill="#D3D2D2"></path>
                        <path d="M108.381677,84.2407104 C108.381677,84.2407104 106.6173,78.2020337 113.140964,72.5867666 C118.981168,67.5572502 128.736892,68.2310416 128.736892,68.2310416 C128.736892,68.2310416 120.46819,63.9389297 111.367427,70.2183189 C102.041219,76.6524154 103.820354,84.2519063 108.381677,84.2407104" id="path52" fill="#D3D2D2"></path>
                        <path d="M171.53282,70.1781153 C172.639181,72.957759 170.678876,76.6819319 170.678876,76.6819319 C171.859029,71.1989804 169.051904,69.0569957 165.787782,69.3918558 C157.1145,70.2793876 147.860556,79.0178097 147.860556,79.0178097 L145.62137,76.4473263 C157.386765,67.6839678 163.935874,67.4895657 165.652413,67.341983 C168.562846,67.0931281 170.890581,68.5603036 171.53282,70.1781153" id="path54" fill="#D3D2D2"></path>
                    </g>
                </g>
            </g>
        </g>
    </g>
</svg>