<svg width="200" height="200" viewBox="0 0 200 200" fill="none" xmlns="http://www.w3.org/2000/svg">
<g clip-path="url(#clip0_10_304374)">
<path d="M176.471 41.8469C179.247 39.6623 181.419 30.8856 181.673 27.0879C186.882 31.0888 189.747 48.585 183.122 53.8243C183.122 53.8243 180.892 47.48 176.477 41.8469H176.471Z" fill="white"/>
<path d="M158.22 152.115C158.106 155.645 142.809 171.922 129.202 181.556C129.202 181.569 129.189 181.569 129.189 181.569C128.986 181.696 128.846 181.753 128.776 181.753C128.008 174.831 112.959 131.405 122.78 108.701C122.78 108.701 134.525 122.584 145.934 120.933C149.53 128.28 152.738 137.654 153.062 145.376L158.226 152.121L158.22 152.115Z" fill="white"/>
<path d="M191.087 127.606L189.518 131.537L183.458 77.0292L183.293 75.6003V75.5622L185.751 79.036V79.0487L185.974 79.3535L186.069 79.4805C186.234 79.3281 186.406 79.1693 186.59 79.0106C187.746 77.9246 188.998 76.5465 189.773 74.9842C189.773 74.9588 189.792 74.9334 189.804 74.9017C189.969 74.5524 190.116 74.2095 190.211 73.8475C190.471 73.0155 190.56 72.1582 190.44 71.2627L188 67.8715L182.829 60.6952C179.736 69.4401 172.494 75.5749 172.494 75.5749C167.742 47.2063 152.198 43.6245 152.198 43.6245C150.654 44.8375 149.092 45.9235 147.535 46.9015C147.815 45.9552 147.815 44.6152 146.925 42.8434C144.931 38.8869 140.096 27.7414 141.157 23.1816C139.969 23.6706 132.69 27.8685 133.839 49.5942C133.909 50.858 134.163 52.109 134.621 53.2712L134.76 53.6459C134.748 53.6459 130.447 53.8618 130.079 49.8482C130.079 49.8482 111.727 56.0211 97.9735 72.7933C89.2897 83.3799 83.1914 96.0304 82.3846 118.15C81.5779 145.35 87.6508 158.775 93.8 165.329C91.7481 156.038 86.6598 133.798 89.8805 116.588C90.6365 111.215 92.0721 107.011 93.3045 102.153L97.6622 107.043C99.6633 99.3899 103.837 89.4892 107.591 80.3823C107.667 80.2045 108.773 77.5563 108.741 77.7468C107.782 83.8752 100.743 112.339 102.541 123.694C102.541 123.694 96.9952 119.102 96.9889 119.109C96.8428 119.382 92.377 153.047 107.267 174.696C109.294 177.643 115.297 181.797 120.639 185.277C120.614 185.118 120.893 171.432 118.568 159.575C117.736 155.346 112.806 140.136 114.935 111.602C116.218 94.4555 119.572 75.6955 131.425 57.45L129.837 67.6555C129.837 67.6555 129.825 67.6809 129.825 67.6936C129.825 67.6936 122.138 96.4369 126.299 103.042C131.254 110.91 139.353 115.025 147.326 115.495L155.457 134.427L158.582 129.022L159.141 127.422C159.668 126.838 154.72 113.323 154.053 109.278C153.862 108.071 153.265 106.96 152.382 106.141C152.382 106.141 149.587 102.946 149.587 102.934L143.698 98.1071L143.304 97.2879C143.216 96.9703 150.61 101.111 154.097 103.581C154.739 104.045 155.266 104.617 155.685 105.283C156.06 105.88 156.327 106.554 156.473 107.258L163.118 129.784C163.035 129.848 163.194 130.197 163.118 130.28C163.099 130.445 163.041 130.553 162.845 130.851C157.623 135.252 157.115 143.184 157.115 143.184C157.115 143.184 161.104 150.831 163.003 151.478C163.003 151.478 168.32 151.396 169.908 151.739L170.08 151.77C170.683 151.904 171.274 152.024 171.84 152.094L171.922 152.107C172.081 152.139 172.24 152.145 172.392 152.171C174.482 152.393 182.994 153.225 184.144 152.723C185.294 152.221 185.967 148.627 185.923 148.1V147.662C185.65 147.693 185.319 147.712 184.932 147.738C183.687 147.833 181.896 147.947 180.015 148.036H179.748C179.672 148.055 179.59 148.055 179.52 148.055C179.189 148.074 178.878 148.081 178.58 148.1H178.567C175.626 148.208 172.786 148.246 171.821 148.062C169.889 147.693 167.857 145.217 166.046 143.051C166.046 143.051 164.255 143.496 163.149 143.4C162.394 143.337 162.419 143.051 162 142.6C160.888 141.419 164.788 138.745 164.788 138.745C165.538 139.202 169.559 144.569 171.738 146.023C173.663 147.293 182.455 146.366 186.819 145.794H186.876C188.178 145.502 189.023 145.299 189.023 145.299C191.195 143.038 193.025 140.568 193.781 137.875C193.952 137.272 194.073 136.662 194.13 136.033C194.315 133.989 195.102 132.267 196.087 130.604C196.373 129.073 192.625 126.863 191.126 127.612L191.087 127.606ZM141.03 47.3841L136.501 48.4955C136.374 48.5336 136.317 48.3939 136.406 48.3113C139.957 44.8629 139.144 39.8967 139.144 39.8967C139.131 38.5122 138.667 35.5401 138.985 34.1937L139.703 31.863C139.703 31.863 141.805 38.6329 142.663 43.0784C143.031 44.9455 142.796 46.8443 141.03 47.3778V47.3841ZM161.409 92.4359C161.409 92.4359 156.626 85.3105 155.336 83.7101C147.465 85.1581 146.69 75.613 146.69 75.613C146.398 74.1015 143.946 62.5115 144.442 61.2223L144.696 61.343C146.265 63.5085 153.456 69.5481 154.929 72.1899C156.759 75.5114 157.705 80.1982 160.005 79.7219C160.081 79.7092 160.177 79.6838 160.253 79.6583C160.494 79.5758 160.736 79.4424 160.958 79.2583C160.971 79.2583 160.971 79.2456 160.971 79.2456C161.187 79.0804 161.403 78.8645 161.606 78.6105C161.619 78.5978 161.625 78.5851 161.625 78.5724C161.695 78.4898 161.765 78.3946 161.828 78.2993C162.101 77.9183 162.324 77.4801 162.533 76.9974C162.743 76.5084 162.927 75.9813 163.067 75.4224C163.092 75.3526 163.099 75.27 163.124 75.2002C163.404 74.8191 163.594 74.4698 163.658 74.1904C163.658 74.1586 163.658 74.1205 163.677 74.0951C163.721 73.9427 163.734 74.038 163.715 74.2857V74.2984C163.715 74.4762 163.702 74.7366 163.67 75.0541C163.448 77.5182 163.721 82.3066 160.774 83.7482C161.187 86.5997 161.447 92.455 161.422 92.4423L161.409 92.4359ZM162.324 96.0558V96.0431C162.298 95.9034 162.273 95.7574 162.254 95.6303C162.241 95.4906 162.228 95.3573 162.228 95.2303C162.228 95.1858 162.228 95.1477 162.247 95.0969V95.0778C162.305 94.8746 162.508 94.7793 162.559 95.0207L175.918 125.021C176.019 125.231 175.823 125.46 175.607 125.402L172.862 124.647C172.017 124.418 171.141 124.482 170.347 124.837L168.981 125.434C168.809 125.523 168.638 125.383 168.619 125.218C168.6 125.161 168.606 125.091 168.651 125.028C169.407 123.91 171.09 122.595 171.382 121.713C171.395 121.668 171.382 121.56 171.319 121.382C171.319 121.382 162.794 99.0407 162.324 96.0495V96.0558ZM176.763 137.011C176.661 137.037 176.509 137.011 176.324 136.961C175.746 136.796 175.13 136.224 174.978 135.849C174.806 135.424 174.095 134.503 173.733 134.166C173.58 134.09 173.44 134.02 173.294 133.976C173.269 133.963 173.243 133.963 173.212 133.963C173.028 133.919 172.799 133.9 172.576 133.906H172.564C172.329 133.944 170.645 134.211 170.461 135.602C170.359 136.072 170.182 136.465 170.417 136.986C170.537 137.208 170.372 137.469 170.163 137.392C170.093 137.367 169.997 137.323 169.896 137.265C169.896 137.265 169.883 137.253 169.87 137.253C169.184 136.84 168.079 135.748 167.996 134.293C167.933 132.985 167.768 132.953 168.524 131.296C169.273 129.626 170.715 129.518 171.617 129.302C174.965 128.502 176.528 134.008 177.068 136.192C177.169 136.592 176.966 136.999 176.75 137.011H176.763Z" fill="white"/>
<path fill-rule="evenodd" clip-rule="evenodd" d="M158.226 130.744L155.107 136.789L147.116 116.213C139.182 114.448 129.475 111.977 125.816 104.96C123.777 101.054 123.936 94.17 124.069 88.918L127.169 76.3753L130.651 62.3848C130.479 70.5391 124.889 100.457 135.231 105.163C143.762 109.043 148.691 109.774 149.27 109.532L143.908 99.0473C143.571 98.6091 143.286 97.2755 143.355 97.3136C145.757 98.6409 153.85 106.389 154.04 107.595C154.707 111.641 160.342 126.317 159.815 126.908L158.226 130.737V130.744Z" fill="#DCDDDE"/>
<path d="M153.055 145.369L158.226 152.107C158.112 155.638 134.621 180.793 127.811 182.184C135.955 167.298 154.046 151.008 143.196 129.219C139.182 128.533 122.608 121.319 120.207 117.197C121.535 111.704 120.906 113.564 122.773 108.693C122.773 108.693 134.957 122.487 145.928 120.925C149.524 128.273 152.725 137.646 153.049 145.369H153.055Z" fill="#DCDDDE"/>
<path fill-rule="evenodd" clip-rule="evenodd" d="M193.743 137.844C192.987 140.536 191.164 143.007 188.991 145.268C188.991 145.268 188.146 145.471 186.844 145.763H186.787C182.423 146.335 173.625 147.262 171.7 145.985C169.521 144.544 165.157 138.923 164.719 139.133C164.719 139.133 160.926 141.673 162.19 142.689C162.47 142.911 162.584 143.14 162.946 143.21C164.223 143.458 165.976 142.835 165.976 142.835C167.787 145.001 169.864 147.649 171.795 148.011C172.761 148.195 175.6 148.157 178.541 148.049H178.554C178.853 148.03 182.467 147.884 182.467 147.884C179.501 148.672 173.142 146.163 168.74 146.36L168.473 148.843C168.27 149.008 170.042 150.418 170.633 150.793C175.664 150.285 185.834 150.659 185.79 150.697C185.675 150.78 185.167 152.177 185.046 152.253C183.852 152.92 181.788 152.977 180.371 153.206C178.954 153.428 174.457 152.342 172.373 152.12C172.227 152.101 172.062 152.088 171.903 152.056L171.821 152.044L170.061 151.72L169.889 151.688C168.301 151.339 162.826 151.847 162.826 151.847C160.926 151.199 157.096 143.134 157.096 143.134C157.096 143.134 157.604 135.195 162.819 130.801C163.022 130.502 163.073 130.394 163.099 130.229C163.175 130.147 163.022 129.797 163.099 129.734L156.46 107.208C156.308 106.503 156.048 105.83 155.673 105.233C158.544 104.255 159.618 97.4342 160.024 92.8807V92.868L155.698 85.7299C155.698 85.7299 149.581 88.0098 146.9 81.386C144.219 74.7749 143.203 58.3965 143.203 58.3965L153.729 67.5415C153.729 67.5415 158.925 74.8194 159.516 75.8926C159.967 76.7055 161.377 76.3118 163.2 75.2449C163.061 75.7783 162.711 76.496 162.521 76.9596C162.311 77.4486 162.089 77.8868 161.822 78.2678C161.765 78.3631 161.701 78.4583 161.619 78.5409C161.619 78.5536 161.606 78.5663 161.593 78.579C161.403 78.8267 161.187 79.0426 160.964 79.2141C160.964 79.2141 160.964 79.2268 160.952 79.2268C160.723 79.4046 160.501 79.5379 160.246 79.6268C160.164 79.6523 160.075 79.6777 159.992 79.6904C157.686 80.1667 156.746 75.4735 154.917 72.1584C153.449 69.5165 146.258 63.4707 144.683 61.3114L144.429 61.1844C143.933 62.4736 146.392 74.0636 146.678 75.5751C146.678 75.5751 147.459 85.1265 155.33 83.6722C156.619 85.2726 161.085 91.636 161.085 91.636C161.11 91.6487 161.11 86.7142 160.443 83.6786C162.584 82.11 163.747 74.6352 163.658 74.2796C163.639 74.2796 163.702 74.0192 163.702 74.0192C163.689 73.9493 165.595 84.428 163.067 86.1173C161.244 87.3493 162.4 94.8812 162.4 94.8812L166.942 110.066L166.967 110.123L167.24 110.834L171.3 121.338V121.351L171.478 121.808C170.48 122.932 169.464 124.063 168.6 125.187C167.666 126.368 165.798 127.117 165.494 128.343C164.388 132.814 167.336 136.593 169.858 137.221C169.87 137.221 169.883 137.234 169.883 137.234C169.985 137.291 170.08 137.336 170.15 137.361C170.36 137.437 170.525 137.177 170.404 136.955C170.169 136.427 170.34 136.04 170.448 135.564C170.633 134.173 172.31 133.906 172.551 133.868H172.564C172.78 133.868 173.009 133.881 173.193 133.925C173.224 133.925 173.25 133.925 173.275 133.938C173.428 133.982 173.561 134.052 173.714 134.128C174.076 134.465 174.597 135.405 174.762 135.83C174.914 136.205 175.727 136.758 176.305 136.923C177.239 138.555 177.805 140.073 177.805 140.073C177.805 140.073 187.854 141.476 187.93 138.663C188.083 133.614 189.277 131.804 189.277 131.804C189.639 136.135 191.304 137.793 193.724 137.831L193.743 137.844Z" fill="#DCDDDE"/>
<path d="M190.287 74.0006C190.166 74.3436 190.027 74.7119 189.881 75.0549C189.868 75.093 189.862 75.112 189.849 75.1374C189.074 76.706 187.822 78.0778 186.666 79.1701C186.361 79.3987 186.158 79.5448 186.158 79.5448C186.101 79.4876 185.98 79.3733 185.834 79.2082V79.1955C185.275 78.5731 184.233 77.2585 183.382 75.7534C183.255 75.5185 183.122 75.2771 183.001 75.0422C182.728 74.5087 183.452 73.3783 184.17 73.7403L184.849 73.9625C185.612 74.4452 186.628 74.1531 187.016 73.3275C187.556 72.1399 188.083 70.2283 187.683 67.5547L188.083 68.031L190.522 71.4223C190.643 72.3114 190.554 73.1751 190.293 74.0006H190.287Z" fill="#DCDDDE"/>
<path d="M109.465 75.4668C109.465 75.4668 101.791 115.952 107.254 137.538L100.451 129.225C100.451 129.225 100.108 147.661 110.748 167.501C110.748 167.501 121.039 185.207 121.141 185.81C100.839 176.487 98.6596 158.604 96.5125 146.614C92.8154 125.987 96.7031 118.156 96.7031 118.156L102.115 123.351C100.318 111.996 105.514 90.2195 106.473 84.0847L109.465 75.4668Z" fill="#DCDDDE"/>
<path d="M173.275 37.7886C173.479 37.4266 181.667 21.01 156.956 14.3164C156.956 14.3164 163.829 19.8606 160.901 23.6392L173.275 37.7949V37.7886Z" fill="#0058A4" stroke="#231F20" stroke-width="0.5" stroke-miterlimit="10"/>
<path d="M130.072 11.3633C128.129 15.8342 128.599 19.6001 134.233 24.9792C134.233 24.9792 136.177 21.5434 140.008 18.9905C140.008 18.9905 132.556 15.8405 130.072 11.3633Z" fill="#0058A4" stroke="#231F20" stroke-width="0.5" stroke-miterlimit="10"/>
<path d="M132.372 28.4525V28.4652C132.372 28.4652 132.372 28.4652 132.372 28.4779C132.27 28.7129 131.622 30.3513 130.924 32.3963C128.586 31.0626 121.014 26.922 116.936 27.0871C116.936 27.0871 127.697 32.6312 129.882 35.8637C129.367 37.8007 129.031 39.6678 129.208 40.8046C129.208 40.8046 114.331 31.4437 101.035 35.1398C99.4409 35.5907 97.8338 36.2194 96.2457 37.0831C96.1885 37.1212 96.1313 37.1529 96.0742 37.1783C95.9725 37.2291 95.8836 37.2863 95.8137 37.3244C95.7819 37.3498 95.7438 37.3752 95.7121 37.3879C95.6867 37.4006 95.6549 37.426 95.6358 37.4387C93.5332 38.3913 91.3035 39.9155 88.4195 40.9506C64.2358 49.6003 55.7426 33.641 55.7426 33.641C63.0542 39.998 89.7217 20.9777 100.661 16.8752C111.269 12.8806 131.464 27.6586 132.347 28.4461L132.359 28.4588L132.372 28.4715V28.4525Z" fill="#0058A4" stroke="#231F20" stroke-width="0.5" stroke-miterlimit="10"/>
<path d="M105.037 58.5562C104.053 59.4072 103.062 60.309 102.084 61.2552C101.709 61.6045 101.34 61.9728 100.966 62.3475C99.4664 63.8527 97.9735 65.4784 96.5125 67.2249C92.0594 64.5639 49.4918 62.519 44.7783 71.7529C44.3209 56.9495 54.2879 52.8787 59.9352 50.9353C66.186 48.7825 94.3971 55.5841 105.037 58.5689V58.5562Z" fill="#0058A4" stroke="#231F20" stroke-width="0.5" stroke-miterlimit="10"/>
<path d="M97.6813 47.2263C107.178 48.0519 112.146 49.6205 114.515 51.6655C110.742 53.1388 108.372 55.0885 108.372 55.0885C108.372 55.0885 100.75 52.5165 82.3783 47.347C95.9153 45.1497 94.702 42.9333 101.296 40.2342C112.044 35.8395 127.29 45.264 127.29 45.264C124.59 46.2991 121.719 47.6899 119.07 49.0998C112.089 46.6929 100.438 45.4672 97.675 47.2263H97.6813Z" fill="#0058A4" stroke="#231F20" stroke-width="0.5" stroke-miterlimit="10"/>
<path d="M144.969 20.5078C144.969 20.5078 145.509 26.2234 146.773 30.072C148.031 33.9205 148.66 34.5619 148.66 34.5619C148.66 34.5619 167.806 44.3166 172.399 62.3208C173.212 65.5025 174.076 69.713 174.076 69.713C174.076 69.713 177.989 64.7975 178.173 60.098C178.694 46.6409 160.59 23.5244 144.975 20.5142L144.969 20.5078Z" fill="#0058A4" stroke="#231F20" stroke-width="0.5" stroke-miterlimit="10"/>
<path d="M62.0379 109.216C61.5932 108.778 68.3776 100.553 71.4458 99.7341C69.9848 102.903 67.05 108.504 66.1543 113.585C65.2586 118.666 67.8948 133.298 68.3395 136.257C61.2947 128.439 55.2027 112.582 57.1719 105.462C60.5197 93.3771 84.1317 87.2042 84.589 86.9375C83.1915 90.3224 70.2135 95.9999 67.5391 97.8543C64.6487 99.8548 62.7303 100.344 62.0442 109.209L62.0379 109.216Z" fill="#0058A4" stroke="#231F20" stroke-width="0.5" stroke-miterlimit="10"/>
<path d="M93.7936 70.6402C92.8217 71.9485 91.8688 73.3202 90.9541 74.7618C81.7748 74.6983 65.1632 77.4291 63.7466 82.4779C66.7513 81.1824 83.7377 79.3534 88.3051 79.1692C87.5301 80.5918 86.7742 82.0651 86.0691 83.5956C55.0374 88.6444 53.2143 103.029 53.2143 103.029C40.9922 67.3506 81.7685 69.2113 84.2396 69.2494C86.9584 69.2939 92.034 70.2782 93.7936 70.6402Z" fill="#0058A4" stroke="#231F20" stroke-width="0.5" stroke-miterlimit="10"/>
<path d="M82.0861 95.2559C82.0861 95.2559 61.1548 112.053 74.9015 144.696L84.1379 156.667C84.1379 156.667 70.2706 125.352 82.0925 95.2559H82.0861Z" fill="#0058A4" stroke="#231F20" stroke-width="0.5" stroke-miterlimit="10"/>
<path d="M62.0442 109.209L62.0633 108.999C62.0188 109.107 62.0125 109.177 62.0442 109.209ZM62.0442 109.209L62.0633 108.999C62.0188 109.107 62.0125 109.177 62.0442 109.209ZM62.0442 109.209L62.0633 108.999C62.0188 109.107 62.0125 109.177 62.0442 109.209ZM62.0442 109.209L62.0633 108.999C62.0188 109.107 62.0125 109.177 62.0442 109.209ZM62.0442 109.209L62.0633 108.999C62.0188 109.107 62.0125 109.177 62.0442 109.209ZM62.0442 109.209L62.0633 108.999C62.0188 109.107 62.0125 109.177 62.0442 109.209ZM62.0442 109.209L62.0633 108.999C62.0188 109.107 62.0125 109.177 62.0442 109.209ZM62.0442 109.209L62.0633 108.999C62.0188 109.107 62.0125 109.177 62.0442 109.209ZM62.0442 109.209L62.0633 108.999C62.0188 109.107 62.0125 109.177 62.0442 109.209ZM62.0442 109.209L62.0633 108.999C62.0188 109.107 62.0125 109.177 62.0442 109.209ZM62.0442 109.209L62.0633 108.999C62.0188 109.107 62.0125 109.177 62.0442 109.209ZM142.663 43.0851C141.799 38.6396 139.703 31.8698 139.703 31.8698L138.985 34.2005C138.667 35.5468 139.131 38.519 139.144 39.9034C139.144 39.9034 139.963 44.8633 136.406 48.3181C136.317 48.4006 136.374 48.5403 136.501 48.5022L141.03 47.3909C142.796 46.8574 143.031 44.9586 142.663 43.0915V43.0851ZM163.664 74.0955C163.664 74.0955 163.651 74.159 163.645 74.1908C163.582 74.4766 163.391 74.8259 163.111 75.2006C163.086 75.2704 163.08 75.353 163.054 75.4228C162.915 75.9817 162.73 76.5088 162.521 76.9978C162.311 77.4868 162.089 77.925 161.816 78.2997C161.752 78.395 161.682 78.4902 161.612 78.5728C161.612 78.5855 161.612 78.5982 161.593 78.6109C161.39 78.8649 161.174 79.0808 160.958 79.2459C160.958 79.2459 160.958 79.2586 160.945 79.2586C160.723 79.4428 160.482 79.5762 160.24 79.6587C160.164 79.6841 160.069 79.7095 159.992 79.7223C157.686 80.1986 156.746 75.5117 154.917 72.1903C153.449 69.5421 146.258 63.5089 144.683 61.3433L144.429 61.2227C143.933 62.5119 146.385 74.1019 146.678 75.6134C146.678 75.6134 147.459 85.1584 155.323 83.7105C156.607 85.3109 161.396 92.4363 161.396 92.4363C161.422 92.449 161.155 86.5937 160.742 83.7422C163.696 82.307 163.423 77.5122 163.639 75.0545C163.67 74.737 163.69 74.4766 163.683 74.2988V74.2861C163.702 74.0384 163.683 73.9431 163.645 74.0955H163.664ZM175.918 125.028L162.559 95.0274C162.508 94.7861 162.305 94.8814 162.248 95.0846V95.1036C162.228 95.1544 162.228 95.1925 162.228 95.237C162.228 95.364 162.241 95.4974 162.254 95.6371C162.273 95.7641 162.298 95.9102 162.324 96.0499V96.0626C162.8 99.0474 171.319 121.395 171.319 121.395C171.382 121.573 171.395 121.681 171.382 121.726C171.09 122.615 169.407 123.923 168.651 125.041C168.606 125.104 168.6 125.174 168.619 125.231C168.638 125.396 168.81 125.536 168.981 125.447L170.347 124.85C171.141 124.495 172.018 124.431 172.862 124.66L175.607 125.415C175.823 125.473 176.02 125.244 175.918 125.034V125.028ZM177.08 136.193C176.54 134.002 174.978 128.502 171.63 129.302C170.722 129.518 169.28 129.626 168.536 131.296C167.78 132.954 167.946 132.986 168.009 134.294C168.092 135.748 169.197 136.847 169.883 137.253C169.896 137.253 169.909 137.266 169.909 137.266C170.01 137.323 170.105 137.367 170.175 137.393C170.385 137.469 170.55 137.209 170.429 136.986C170.194 136.459 170.372 136.066 170.474 135.602C170.658 134.211 172.342 133.944 172.577 133.906H172.589C172.812 133.906 173.04 133.919 173.225 133.964C173.256 133.964 173.282 133.964 173.307 133.976C173.453 134.021 173.593 134.091 173.745 134.167C174.108 134.503 174.819 135.424 174.99 135.85C175.143 136.224 175.759 136.796 176.331 136.955C176.515 137.012 176.668 137.031 176.769 137.005C176.985 136.993 177.188 136.586 177.087 136.186L177.08 136.193ZM177.08 136.193C176.54 134.002 174.978 128.502 171.63 129.302C170.722 129.518 169.28 129.626 168.536 131.296C167.78 132.954 167.946 132.986 168.009 134.294C168.092 135.748 169.197 136.847 169.883 137.253C169.896 137.253 169.909 137.266 169.909 137.266C170.01 137.323 170.105 137.367 170.175 137.393C170.385 137.469 170.55 137.209 170.429 136.986C170.194 136.459 170.372 136.066 170.474 135.602C170.658 134.211 172.342 133.944 172.577 133.906H172.589C172.812 133.906 173.04 133.919 173.225 133.964C173.256 133.964 173.282 133.964 173.307 133.976C173.453 134.021 173.593 134.091 173.745 134.167C174.108 134.503 174.819 135.424 174.99 135.85C175.143 136.224 175.759 136.796 176.331 136.955C176.515 137.012 176.668 137.031 176.769 137.005C176.985 136.993 177.188 136.586 177.087 136.186L177.08 136.193ZM171.319 121.389C171.382 121.567 171.395 121.675 171.382 121.719C171.09 122.608 169.407 123.917 168.651 125.034C168.606 125.098 168.6 125.168 168.619 125.225C168.638 125.39 168.81 125.53 168.981 125.441L170.347 124.844C171.141 124.488 172.018 124.425 172.862 124.653L175.607 125.409C175.823 125.466 176.02 125.238 175.918 125.028L162.559 95.0274C162.508 94.7861 162.305 94.8814 162.248 95.0846V95.1036C162.228 95.1544 162.228 95.1925 162.228 95.237C162.228 95.364 162.241 95.4974 162.254 95.6371C162.273 95.7641 162.298 95.9102 162.324 96.0499V96.0626C162.8 99.0474 171.319 121.395 171.319 121.395V121.389ZM163.658 75.0481C163.69 74.7306 163.709 74.4702 163.702 74.2924V74.2797C163.721 74.032 163.702 73.9368 163.664 74.0892C163.651 74.1146 163.651 74.1527 163.645 74.1844C163.582 74.4702 163.391 74.8195 163.111 75.1942C163.086 75.2641 163.08 75.3466 163.054 75.4165C162.915 75.9753 162.73 76.5024 162.521 76.9915C162.311 77.4805 162.089 77.9187 161.816 78.2933C161.752 78.3886 161.682 78.4839 161.612 78.5664C161.612 78.5791 161.612 78.5918 161.593 78.6045C161.39 78.8586 161.174 79.0745 160.958 79.2396C160.958 79.2396 160.958 79.2523 160.945 79.2523C160.723 79.4365 160.482 79.5698 160.24 79.6524C160.164 79.6778 160.069 79.7032 159.992 79.7159C157.686 80.1922 156.746 75.5054 154.917 72.184C153.449 69.5357 146.258 63.5026 144.683 61.337L144.429 61.2163C143.933 62.5055 146.385 74.0955 146.678 75.607C146.678 75.607 147.459 85.1521 155.323 83.7041C156.607 85.3045 161.396 92.43 161.396 92.43C161.422 92.4427 161.155 86.5873 160.742 83.7359C163.696 82.3006 163.423 77.5059 163.639 75.0481H163.658ZM139.703 31.8698L138.985 34.2005C138.667 35.5468 139.131 38.519 139.144 39.9034C139.144 39.9034 139.963 44.8633 136.406 48.3181C136.317 48.4006 136.374 48.5403 136.501 48.5022L141.03 47.3909C142.796 46.8574 143.031 44.9586 142.663 43.0915C141.799 38.646 139.703 31.8761 139.703 31.8761V31.8698ZM62.0442 109.209L62.0633 108.999C62.0188 109.107 62.0125 109.177 62.0442 109.209ZM199.936 129.429C198.469 126.641 193.216 122.456 193.216 122.456L188.636 85.0632C188.636 85.0632 195.426 73.8034 195.217 71.8918C195.007 69.9676 187.321 57.698 187.321 57.698C200.826 38.4427 179.78 18.9969 179.78 18.9969C179.615 19.5685 178.77 21.9754 178.008 25.0872C172.265 13.6369 156.162 7.85146 144.848 10.8109C147.415 12.9638 150.985 14.4943 151.912 16.7361C135.967 14.8563 130.231 5 130.231 5C129.552 5.38104 124.692 7.89592 124.711 16.1645C117.539 14.3101 107.407 7.00682 96.1886 13.0019C90.8462 15.847 64.1596 33.7115 50.2732 26.9543C49.3012 30.9362 52.2742 38.2967 56.8035 45.111C47.0525 50.5091 36.7933 59.7303 41.6974 78.2679L47.4209 76.8073C36.7488 97.0914 60.4942 156.229 122.411 193.108C122.411 193.108 155.812 169.978 162.978 155.708C162.978 155.708 184.551 157.029 187.016 155.67C188.4 154.298 188.178 151.923 188.801 150.742L189.646 149.37C190.922 149.154 191.272 148.723 192.282 147.878C195.394 145.198 197.135 140.721 197.866 135.113C198.221 132.35 200.4 130.286 199.949 129.442L199.936 129.429ZM181.673 27.0814C186.876 31.0823 189.747 48.5848 183.115 53.8178C183.115 53.8178 180.886 47.4734 176.464 41.8404C179.247 39.6557 181.413 30.8854 181.667 27.0814H181.673ZM173.275 37.7886L160.901 23.6329C163.829 19.8606 156.962 14.3165 156.962 14.3165C181.667 21.0101 173.479 37.433 173.275 37.7886ZM178.167 60.0923C177.989 64.7981 174.076 69.7072 174.076 69.7072C174.076 69.7072 173.205 65.503 172.399 62.3214C167.8 44.3171 148.653 34.5625 148.653 34.5625C148.653 34.5625 148.024 33.9211 146.767 30.0725C145.515 26.224 144.969 20.5084 144.969 20.5084C160.583 23.5123 178.688 46.6288 178.167 60.0923ZM130.072 11.3634C132.556 15.847 140.008 18.9906 140.008 18.9906C136.177 21.5436 134.233 24.9793 134.233 24.9793C128.605 19.6002 128.135 15.8343 130.072 11.3634ZM55.7553 33.6416C63.0733 39.9796 89.7218 20.972 100.661 16.8631C111.269 12.8685 131.464 27.6466 132.347 28.4341L132.359 28.4468V28.4595V28.4722C132.258 28.7135 131.61 30.3456 130.911 32.3905C128.573 31.0569 121.001 26.9162 116.923 27.0814C116.923 27.0814 127.684 32.6255 129.869 35.858C129.348 37.795 129.012 39.6557 129.196 40.7925C129.196 40.7925 114.318 31.4316 101.023 35.1277C99.4283 35.5786 97.8211 36.201 96.233 37.071C96.1759 37.1028 96.1187 37.1409 96.0615 37.1663C95.9599 37.2171 95.8709 37.2742 95.8011 37.3123C95.7693 37.3377 95.7312 37.3631 95.6994 37.3758C95.674 37.3885 95.6422 37.4076 95.6232 37.4203C93.5142 38.3729 91.2908 39.9034 88.4068 40.9322C64.5217 49.4739 55.9395 34.0163 55.7363 33.6353L55.7553 33.6416ZM114.515 51.6585C110.742 53.1319 108.373 55.0816 108.373 55.0816C108.373 55.0816 100.75 52.5095 82.3784 47.3401C95.9217 45.1427 94.7021 42.9327 101.302 40.2336C112.051 35.8326 127.296 45.2634 127.296 45.2634C124.597 46.2922 121.725 47.6894 119.076 49.0992C112.095 46.6859 100.445 45.4666 97.6814 47.2194C107.178 48.0513 112.14 49.62 114.509 51.6585H114.515ZM44.7783 71.7458C44.3209 56.9487 54.2879 52.8715 59.9352 50.9282C66.1924 48.769 94.4035 55.5769 105.037 58.5554C104.059 59.4127 103.062 60.3082 102.084 61.2544C101.709 61.6037 101.34 61.9784 100.972 62.3468C99.4728 63.8519 97.9799 65.4776 96.5125 67.2177C92.0595 64.5504 49.4982 62.5055 44.7783 71.7458ZM84.246 69.25C86.9585 69.3008 92.0404 70.2788 93.8 70.6344C92.8281 71.949 91.8752 73.3207 90.9541 74.756C81.7812 74.6925 65.1633 77.4296 63.7467 82.4721C66.745 81.1766 83.7378 79.3539 88.2988 79.1697C87.5238 80.5923 86.7679 82.0593 86.0628 83.5962C55.0248 88.645 53.208 103.036 53.208 103.036C40.9796 67.3574 81.7622 69.2182 84.2396 69.2563L84.246 69.25ZM57.1719 105.462C60.5133 93.3762 84.138 87.2034 84.589 86.9366C83.1978 90.3216 70.2198 95.9991 67.5391 97.8535C64.6805 99.8412 62.762 100.337 62.0633 108.999C62.5524 107.634 68.5999 100.489 71.4522 99.7269C69.9911 102.896 67.0563 108.497 66.1606 113.584C65.2649 118.665 67.9075 133.303 68.3458 136.256C61.3073 128.438 55.209 112.581 57.1783 105.462H57.1719ZM74.9016 144.703C61.3201 112.447 81.597 95.6625 82.0798 95.2687C70.3913 125.041 83.8648 156.039 84.1316 156.667L74.9016 144.703ZM129.202 181.556H129.189C128.986 181.689 128.84 181.74 128.77 181.74C128.002 174.824 112.946 131.391 122.773 108.688C122.773 108.688 134.519 122.57 145.928 120.919C149.524 128.267 152.725 137.641 153.049 145.363L158.22 152.101C158.106 155.632 142.809 171.915 129.196 181.549L129.202 181.556ZM196.049 130.598C195.071 132.262 194.276 133.983 194.092 136.027C194.035 136.656 193.914 137.266 193.743 137.869C192.987 140.568 191.157 143.032 188.985 145.293C188.985 145.293 188.14 145.496 186.838 145.789H186.781C182.416 146.36 173.625 147.287 171.7 146.017C169.521 144.569 165.5 139.196 164.757 138.739C164.757 138.739 160.856 141.413 161.962 142.594C162.387 143.045 162.362 143.331 163.111 143.394C164.217 143.49 166.008 143.045 166.008 143.045C167.819 145.211 169.851 147.687 171.783 148.049C172.748 148.234 175.588 148.195 178.529 148.087H178.541C178.84 148.068 179.151 148.062 179.482 148.043C179.552 148.043 179.634 148.043 179.71 148.03H179.977C181.857 147.935 183.649 147.821 184.894 147.725C185.288 147.7 185.618 147.681 185.879 147.649V148.087C185.929 148.621 185.256 152.215 184.106 152.717C182.956 153.219 174.444 152.381 172.354 152.158C172.202 152.133 172.043 152.126 171.884 152.095L171.802 152.082C171.236 152.012 170.645 151.892 170.042 151.758L169.87 151.726C168.282 151.377 162.965 151.466 162.965 151.466C161.066 150.812 157.077 143.166 157.077 143.166C157.077 143.166 157.585 135.234 162.807 130.833C163.003 130.534 163.061 130.426 163.08 130.261C163.162 130.179 163.003 129.829 163.08 129.766L156.435 107.24C156.289 106.535 156.022 105.862 155.647 105.265C155.228 104.598 154.694 104.026 154.059 103.563C150.572 101.092 143.177 96.9517 143.266 97.2692L143.66 98.0885L149.555 102.909L152.357 106.116C153.246 106.941 153.837 108.046 154.027 109.253C154.694 113.298 159.637 126.813 159.109 127.391L158.55 128.991L155.431 134.395L147.3 115.47C139.328 114.994 131.222 110.872 126.274 103.017C122.113 96.4055 129.793 67.6686 129.793 67.6686C129.793 67.6559 129.806 67.6432 129.806 67.6305L131.394 57.425C119.54 75.6705 116.186 94.4368 114.903 111.584C112.775 140.124 117.711 155.327 118.536 159.563C120.868 171.42 120.582 185.106 120.607 185.264C115.271 181.784 109.268 177.637 107.235 174.691C92.3453 153.035 96.8111 119.37 96.9572 119.097C96.9699 119.097 102.509 123.688 102.509 123.688C100.711 112.333 107.744 83.8693 108.709 77.7408C108.633 77.7408 99.3267 99.4538 97.6306 107.037L93.2728 102.147C92.0404 107.005 90.5984 111.209 89.8488 116.582C86.6345 133.786 91.7164 156.026 93.7683 165.317C87.6191 158.763 81.5462 145.331 82.353 118.138C83.1661 96.0245 89.2644 83.3675 97.9482 72.7873C111.708 56.0151 130.053 49.8422 130.053 49.8422C130.422 53.8559 133.878 53.7416 134.716 53.64C134.716 53.6527 134.716 53.64 134.735 53.64L134.595 53.2653C134.138 52.1031 133.884 50.852 133.814 49.5882C132.671 27.8561 139.944 23.6647 141.132 23.1757C140.071 27.7355 144.905 38.8809 146.9 42.8374C147.789 44.6093 147.789 45.9493 147.51 46.8955C149.06 45.9175 150.623 44.8315 152.173 43.6186C152.173 43.6186 167.723 47.2004 172.469 75.5689C172.469 75.5689 179.704 69.4341 182.804 60.6892L187.975 67.8655L190.414 71.2568C190.535 72.1522 190.446 73.0096 190.186 73.8415C190.09 74.2098 189.944 74.5528 189.779 74.8957C189.766 74.9275 189.754 74.9529 189.747 74.9783C188.966 76.5406 187.721 77.9123 186.565 79.0046C186.38 79.1634 186.209 79.3222 186.044 79.4746L185.948 79.3476L185.726 79.0427V79.03L183.268 75.5562V75.5943L183.433 77.0232L189.493 131.531L191.062 127.6C192.561 126.851 196.309 129.061 196.023 130.591L196.049 130.598ZM171.63 129.302C170.722 129.518 169.28 129.626 168.536 131.296C167.78 132.954 167.946 132.986 168.009 134.294C168.092 135.748 169.197 136.847 169.883 137.253C169.896 137.253 169.909 137.266 169.909 137.266C170.01 137.323 170.105 137.367 170.175 137.393C170.385 137.469 170.55 137.209 170.429 136.986C170.194 136.459 170.372 136.066 170.474 135.602C170.658 134.211 172.342 133.944 172.577 133.906H172.589C172.812 133.906 173.04 133.919 173.225 133.964C173.256 133.964 173.282 133.964 173.307 133.976C173.453 134.021 173.593 134.091 173.745 134.167C174.108 134.503 174.819 135.424 174.99 135.85C175.143 136.224 175.759 136.796 176.331 136.955C176.515 137.012 176.668 137.031 176.769 137.005C176.985 136.993 177.188 136.586 177.087 136.186C176.547 133.995 174.984 128.496 171.636 129.296L171.63 129.302ZM171.382 121.719C171.09 122.608 169.407 123.917 168.651 125.034C168.606 125.098 168.6 125.168 168.619 125.225C168.638 125.39 168.81 125.53 168.981 125.441L170.347 124.844C171.141 124.488 172.018 124.425 172.862 124.653L175.607 125.409C175.823 125.466 176.02 125.238 175.918 125.028L162.559 95.0274C162.508 94.7861 162.305 94.8814 162.248 95.0846V95.1036C162.228 95.1544 162.228 95.1925 162.228 95.237C162.228 95.364 162.241 95.4974 162.254 95.6371C162.273 95.7641 162.298 95.9102 162.324 96.0499V96.0626C162.8 99.0474 171.319 121.395 171.319 121.395C171.382 121.573 171.395 121.681 171.382 121.726V121.719ZM163.658 75.0481C163.69 74.7306 163.709 74.4702 163.702 74.2924V74.2797C163.721 74.032 163.702 73.9368 163.664 74.0892C163.651 74.1146 163.651 74.1527 163.645 74.1844C163.582 74.4702 163.391 74.8195 163.111 75.1942C163.086 75.2641 163.08 75.3466 163.054 75.4165C162.915 75.9753 162.73 76.5024 162.521 76.9915C162.311 77.4805 162.089 77.9187 161.816 78.2933C161.752 78.3886 161.682 78.4839 161.612 78.5664C161.612 78.5791 161.612 78.5918 161.593 78.6045C161.39 78.8586 161.174 79.0745 160.958 79.2396C160.958 79.2396 160.958 79.2523 160.945 79.2523C160.723 79.4365 160.482 79.5698 160.24 79.6524C160.164 79.6778 160.069 79.7032 159.992 79.7159C157.686 80.1922 156.746 75.5054 154.917 72.184C153.449 69.5357 146.258 63.5026 144.683 61.337L144.429 61.2163C143.933 62.5055 146.385 74.0955 146.678 75.607C146.678 75.607 147.459 85.1521 155.323 83.7041C156.607 85.3045 161.396 92.43 161.396 92.43C161.422 92.4427 161.155 86.5873 160.742 83.7359C163.696 82.3006 163.423 77.5059 163.639 75.0481H163.658ZM139.703 31.8698L138.985 34.2005C138.667 35.5468 139.131 38.519 139.144 39.9034C139.144 39.9034 139.963 44.8633 136.406 48.3181C136.317 48.4006 136.374 48.5403 136.501 48.5022L141.03 47.3909C142.796 46.8574 143.031 44.9586 142.663 43.0915C141.799 38.646 139.703 31.8761 139.703 31.8761V31.8698ZM62.0442 109.209L62.0633 108.999C62.0188 109.107 62.0125 109.177 62.0442 109.209ZM62.0442 109.209L62.0633 108.999C62.0188 109.107 62.0125 109.177 62.0442 109.209ZM142.663 43.0851C141.799 38.6396 139.703 31.8698 139.703 31.8698L138.985 34.2005C138.667 35.5468 139.131 38.519 139.144 39.9034C139.144 39.9034 139.963 44.8633 136.406 48.3181C136.317 48.4006 136.374 48.5403 136.501 48.5022L141.03 47.3909C142.796 46.8574 143.031 44.9586 142.663 43.0915V43.0851ZM163.664 74.0955C163.664 74.0955 163.651 74.159 163.645 74.1908C163.582 74.4766 163.391 74.8259 163.111 75.2006C163.086 75.2704 163.08 75.353 163.054 75.4228C162.915 75.9817 162.73 76.5088 162.521 76.9978C162.311 77.4868 162.089 77.925 161.816 78.2997C161.752 78.395 161.682 78.4902 161.612 78.5728C161.612 78.5855 161.612 78.5982 161.593 78.6109C161.39 78.8649 161.174 79.0808 160.958 79.2459C160.958 79.2459 160.958 79.2586 160.945 79.2586C160.723 79.4428 160.482 79.5762 160.24 79.6587C160.164 79.6841 160.069 79.7095 159.992 79.7223C157.686 80.1986 156.746 75.5117 154.917 72.1903C153.449 69.5421 146.258 63.5089 144.683 61.3433L144.429 61.2227C143.933 62.5119 146.385 74.1019 146.678 75.6134C146.678 75.6134 147.459 85.1584 155.323 83.7105C156.607 85.3109 161.396 92.4363 161.396 92.4363C161.422 92.449 161.155 86.5937 160.742 83.7422C163.696 82.307 163.423 77.5122 163.639 75.0545C163.67 74.737 163.69 74.4766 163.683 74.2988V74.2861C163.702 74.0384 163.683 73.9431 163.645 74.0955H163.664ZM175.918 125.028L162.559 95.0274C162.508 94.7861 162.305 94.8814 162.248 95.0846V95.1036C162.228 95.1544 162.228 95.1925 162.228 95.237C162.228 95.364 162.241 95.4974 162.254 95.6371C162.273 95.7641 162.298 95.9102 162.324 96.0499V96.0626C162.8 99.0474 171.319 121.395 171.319 121.395C171.382 121.573 171.395 121.681 171.382 121.726C171.09 122.615 169.407 123.923 168.651 125.041C168.606 125.104 168.6 125.174 168.619 125.231C168.638 125.396 168.81 125.536 168.981 125.447L170.347 124.85C171.141 124.495 172.018 124.431 172.862 124.66L175.607 125.415C175.823 125.473 176.02 125.244 175.918 125.034V125.028ZM177.08 136.193C176.54 134.002 174.978 128.502 171.63 129.302C170.722 129.518 169.28 129.626 168.536 131.296C167.78 132.954 167.946 132.986 168.009 134.294C168.092 135.748 169.197 136.847 169.883 137.253C169.896 137.253 169.909 137.266 169.909 137.266C170.01 137.323 170.105 137.367 170.175 137.393C170.385 137.469 170.55 137.209 170.429 136.986C170.194 136.459 170.372 136.066 170.474 135.602C170.658 134.211 172.342 133.944 172.577 133.906H172.589C172.812 133.906 173.04 133.919 173.225 133.964C173.256 133.964 173.282 133.964 173.307 133.976C173.453 134.021 173.593 134.091 173.745 134.167C174.108 134.503 174.819 135.424 174.99 135.85C175.143 136.224 175.759 136.796 176.331 136.955C176.515 137.012 176.668 137.031 176.769 137.005C176.985 136.993 177.188 136.586 177.087 136.186L177.08 136.193ZM177.08 136.193C176.54 134.002 174.978 128.502 171.63 129.302C170.722 129.518 169.28 129.626 168.536 131.296C167.78 132.954 167.946 132.986 168.009 134.294C168.092 135.748 169.197 136.847 169.883 137.253C169.896 137.253 169.909 137.266 169.909 137.266C170.01 137.323 170.105 137.367 170.175 137.393C170.385 137.469 170.55 137.209 170.429 136.986C170.194 136.459 170.372 136.066 170.474 135.602C170.658 134.211 172.342 133.944 172.577 133.906H172.589C172.812 133.906 173.04 133.919 173.225 133.964C173.256 133.964 173.282 133.964 173.307 133.976C173.453 134.021 173.593 134.091 173.745 134.167C174.108 134.503 174.819 135.424 174.99 135.85C175.143 136.224 175.759 136.796 176.331 136.955C176.515 137.012 176.668 137.031 176.769 137.005C176.985 136.993 177.188 136.586 177.087 136.186L177.08 136.193ZM175.918 125.028L162.559 95.0274C162.508 94.7861 162.305 94.8814 162.248 95.0846V95.1036C162.228 95.1544 162.228 95.1925 162.228 95.237C162.228 95.364 162.241 95.4974 162.254 95.6371C162.273 95.7641 162.298 95.9102 162.324 96.0499V96.0626C162.8 99.0474 171.319 121.395 171.319 121.395C171.382 121.573 171.395 121.681 171.382 121.726C171.09 122.615 169.407 123.923 168.651 125.041C168.606 125.104 168.6 125.174 168.619 125.231C168.638 125.396 168.81 125.536 168.981 125.447L170.347 124.85C171.141 124.495 172.018 124.431 172.862 124.66L175.607 125.415C175.823 125.473 176.02 125.244 175.918 125.034V125.028ZM163.664 74.0955C163.664 74.0955 163.651 74.159 163.645 74.1908C163.582 74.4766 163.391 74.8259 163.111 75.2006C163.086 75.2704 163.08 75.353 163.054 75.4228C162.915 75.9817 162.73 76.5088 162.521 76.9978C162.311 77.4868 162.089 77.925 161.816 78.2997C161.752 78.395 161.682 78.4902 161.612 78.5728C161.612 78.5855 161.612 78.5982 161.593 78.6109C161.39 78.8649 161.174 79.0808 160.958 79.2459C160.958 79.2459 160.958 79.2586 160.945 79.2586C160.723 79.4428 160.482 79.5762 160.24 79.6587C160.164 79.6841 160.069 79.7095 159.992 79.7223C157.686 80.1986 156.746 75.5117 154.917 72.1903C153.449 69.5421 146.258 63.5089 144.683 61.3433L144.429 61.2227C143.933 62.5119 146.385 74.1019 146.678 75.6134C146.678 75.6134 147.459 85.1584 155.323 83.7105C156.607 85.3109 161.396 92.4363 161.396 92.4363C161.422 92.449 161.155 86.5937 160.742 83.7422C163.696 82.307 163.423 77.5122 163.639 75.0545C163.67 74.737 163.69 74.4766 163.683 74.2988V74.2861C163.702 74.0384 163.683 73.9431 163.645 74.0955H163.664ZM142.663 43.0851C141.799 38.6396 139.703 31.8698 139.703 31.8698L138.985 34.2005C138.667 35.5468 139.131 38.519 139.144 39.9034C139.144 39.9034 139.963 44.8633 136.406 48.3181C136.317 48.4006 136.374 48.5403 136.501 48.5022L141.03 47.3909C142.796 46.8574 143.031 44.9586 142.663 43.0915V43.0851ZM62.0442 109.209L62.0633 108.999C62.0188 109.107 62.0125 109.177 62.0442 109.209ZM62.0442 109.209L62.0633 108.999C62.0188 109.107 62.0125 109.177 62.0442 109.209ZM62.0442 109.209L62.0633 108.999C62.0188 109.107 62.0125 109.177 62.0442 109.209ZM62.0442 109.209L62.0633 108.999C62.0188 109.107 62.0125 109.177 62.0442 109.209ZM62.0442 109.209L62.0633 108.999C62.0188 109.107 62.0125 109.177 62.0442 109.209ZM62.0442 109.209L62.0633 108.999C62.0188 109.107 62.0125 109.177 62.0442 109.209ZM62.0442 109.209L62.0633 108.999C62.0188 109.107 62.0125 109.177 62.0442 109.209ZM62.0442 109.209L62.0633 108.999C62.0188 109.107 62.0125 109.177 62.0442 109.209ZM62.0442 109.209L62.0633 108.999C62.0188 109.107 62.0125 109.177 62.0442 109.209Z" fill="#231F20"/>
<path d="M62.0633 108.998L62.0442 109.208C62.0442 109.208 62.0188 109.106 62.0633 108.998Z" fill="#0058A4"/>
<path d="M149.301 72.3297C150.121 70.7548 150.94 72.1519 151.48 73.5364L151.493 73.5237L153.5 77.4166C153.5 77.4166 152.63 77.5627 151.906 77.3023C151.842 78.147 151.976 78.9789 152.56 79.4933C153.653 80.465 154.644 80.2808 155.133 80.0839L156.003 81.3985C156.003 81.3985 145.248 80.1792 149.314 72.3297H149.301Z" fill="white"/>
<path d="M142.955 131.493L131.184 195H74.5775L79.4181 168.886H63.6641L63.2702 159.22H61.644C61.5995 159.328 61.5614 159.429 61.5169 159.537L57.6038 168.886H27.1757L36.59 147.827H14.4136C9.73825 147.827 5.52024 145.985 2.83951 142.765C0.470052 139.914 -0.463756 136.326 0.215955 132.661L6.39687 99.3075L0.616158 84.3262H63.3147L59.4143 105.379H88.2797L90.1283 131.493H142.955Z" fill="#231F20"/>
<path d="M138.756 134.987L128.275 191.508H106.41L109.986 172.196H103.97C104.027 172.799 104.002 173.409 103.888 174.025L100.648 191.508H78.7765L83.6171 165.394H67.0182L66.6243 155.728H58.8743C58.8108 156.56 58.6139 157.405 58.2836 158.23L55.2789 165.394H32.5689L42.4215 143.351C40.7699 143.986 38.9722 144.335 37.1236 144.335H14.4137C10.7801 144.335 7.54034 142.951 5.52661 140.531C3.83051 138.492 3.16351 135.927 3.65265 133.304L10.0114 98.9721L5.71084 87.8203H33.9538L26.8962 125.886C26.8581 126.077 26.82 126.255 26.7692 126.439H30.0851L37.2443 87.8203H59.1157L55.209 108.873H85.021L86.8695 134.987H111.129L107.547 154.299H113.308L116.891 134.987H138.756Z" fill="white"/>
<path d="M82.0988 112.01H53.5001L56.435 119.694L37.4094 162.25H53.1889L55.3678 157.049C55.9585 155.595 55.8886 154.153 55.1645 152.991C55.0692 152.838 54.8977 152.711 54.688 152.591H69.6353L70.0355 162.25H85.6498L82.0988 112.01ZM62.1585 140.982L68.6761 125.689L69.2478 140.982H62.1585Z" fill="#0058A4"/>
<path d="M134.983 138.129L134.9 138.542L125.664 188.369H110.183L113.766 169.05H98.7295C99.8856 170.06 101.137 171.622 100.8 173.451L98.0307 188.369H82.5498L90.4332 145.87L86.1008 138.129H107.35L103.767 157.441H115.919L119.502 138.129H134.983Z" fill="#0058A4"/>
<path d="M55.228 90.8672L47.2494 133.912C46.5125 137.881 41.9197 141.108 37.0156 141.108H14.2993C11.6058 141.108 9.2491 140.136 7.8325 138.434C6.74624 137.126 6.31427 135.474 6.63189 133.785L13.1558 98.5833L10.1766 90.8672H30.066L23.6945 125.224C23.3642 127.003 21.6109 128.501 20.1245 129.486H32.5879L39.7471 90.8672H55.228Z" fill="#0058A4"/>
<path d="M17.6407 134.141L18.3205 132.026L34.6462 131.962L41.7927 93.4199L52.3123 93.439L51.9439 95.5538L43.5523 95.5411L36.4058 134.071L17.6407 134.141Z" fill="#529DD6"/>
<path d="M13.8864 138.625C10.0495 138.365 9.15382 136.161 9.17923 134.04C9.19194 132.643 13.7466 109.177 15.7794 98.5332L13.8737 93.4209L27.1693 93.3828L26.7818 95.4976L16.9165 95.5293L17.971 98.3554L17.9138 98.6475C15.3093 112.308 11.3962 133.024 11.2946 134.103C11.2946 135.139 11.8663 136.447 14.4962 136.606" fill="#529DD6"/>
<path d="M43.476 159.791L41.24 159.772L59.0586 119.883L57.1147 114.485L79.7993 114.473L79.9454 116.587L60.1194 116.6L61.301 120.042L43.476 159.791Z" fill="#529DD6"/>
<path d="M74.0439 145.561H59.6176L60.7102 143.446H71.846L71.0646 123.702L73.18 123.695L74.0439 145.561Z" fill="#529DD6"/>
<path d="M72.4177 159.792L72.1064 152.229H74.1773L74.5331 159.792H72.4177Z" fill="#529DD6"/>
<path d="M87.6889 185.925H85.6117L93.0377 145.426L90.3061 140.6H104.377L103.977 142.714H93.9334L95.2547 145.051L87.6889 185.925Z" fill="#529DD6"/>
<path d="M119.75 162.058L102.573 162.014L102.967 159.899L117.99 159.943L121.554 140.605L132.004 140.555L131.616 142.657L123.32 142.714L119.75 162.058Z" fill="#529DD6"/>
<path d="M115.303 185.887L113.156 185.912L116.37 168.702L118.511 168.695L115.303 185.887Z" fill="#529DD6"/>
<path d="M134.697 189.412V188.408H139.156V189.412H137.524V193.844H136.33V189.412H134.697Z" fill="#231F20"/>
<path d="M141.462 188.408L142.733 192.149H142.746L143.952 188.408H145.636V193.851H144.518V189.996H144.505L143.171 193.851H142.25L140.916 190.034H140.903V193.851H139.785V188.408H141.469H141.462Z" fill="#231F20"/>
</g>
<defs>
<clipPath id="clip0_10_304374">
<rect width="200" height="190" fill="white" transform="translate(0 5)"/>
</clipPath>
</defs>
</svg>
