<?xml version="1.0" encoding="utf-8"?>
<!-- Generator: Adobe Illustrator 26.5.0, SVG Export Plug-In . SVG Version: 6.00 Build 0)  -->
<svg version="1.1" xmlns="http://www.w3.org/2000/svg" xmlns:xlink="http://www.w3.org/1999/xlink" x="0px" y="0px"
	 viewBox="0 0 284.56 276.15" style="enable-background:new 0 0 284.56 276.15;" xml:space="preserve">
<style type="text/css">
	.st0{fill:#011E41;}
	.st1{fill:#FFCD00;}
	.st2{fill:#FFFFFF;}
</style>
<g id="Layer_1">
</g>
<g id="Layer_2">
	<g>
		<g>
			<path class="st0" d="M241.11,130.6c11.19-0.73,13.37-7.55,10.95-8.58c-8.27-3.52-14.17-8.07-18.2-12.84
				c-1.49-1.76-1.17-3.23,1.14-3.59c7.72-1.22,9.78-5.97,7.3-6.93c-7.32-2.82-13.24-6.2-17.19-10.72c-1.54-1.77-0.98-3.21,0.41-3.25
				c7.25-0.22,8.63-4.33,7.18-5.01c-6.3-2.93-11.17-5.52-15.48-11.05c-1.14-1.46-1.25-2.9,0.04-3.05c4.59-0.52,5.8-3.54,4.53-4.33
				c-8.58-5.29-13.36-11.61-18.88-20.44c-1.51-2.41-3.89-1.88-3.87,0.46c0.04,4.92-0.47,12.43-2.75,18.97
				c-2.65-1.07-3.75-1.91-5.29-3.66c-11.93-13.64-25.4-24.98-39-25.82c-5.19-0.32-9.12,0.94-11.62,5.5
				c-8.44-5.65-21.5-11.05-31.77-10.42c-7.33,0.45-14.7,4.19-14.7,11.63c0,7.54,7.17,13.17,19.81,10.71
				c2.96-0.57,4.91-0.45,7.43,0.41c6.04,2.05,10.7,7.92,11.96,13.29c0.69,2.94-0.04,4.18-2.97,5.75
				c-3.83,2.06-11.55,6.33-18.05,10.7c-0.85-1.09-1.83-2.66-2.19-4.57c-0.19-1.02,0.12-1.58,0.96-1.6c2.87-0.1,3.86-1.8,3.02-2.64
				c-2.69-2.69-4.79-6.38-5.58-11.47c-0.3-1.92-1.86-2.03-2.71-0.64c-3.37,5.59-7.19,10.81-11.41,13.08
				c-1.32,0.7-0.15,3.05,3.4,3.36c0.79,0.07,1.11,0.76,0.58,1.55c-2.4,3.6-4.79,5.99-7.81,7.91c-3.62-4.88-5.57-10.46-6.02-14.49
				c-0.12-1.06,0.18-1.81,1.49-1.6c2.93,0.48,5.17-1.05,4.38-2.44c-3.29-5.77-4.59-14.05-4.76-23.51c0.02-2.35-2.36-2.88-3.87-0.46
				c-5.52,8.82-10.3,15.14-18.88,20.44c-1.28,0.79-0.06,3.82,4.53,4.33c1.28,0.14,1.17,1.59,0.04,3.05
				c-4.31,5.52-9.19,8.12-15.48,11.05c-1.45,0.68-0.07,4.79,7.18,5.01c1.39,0.04,1.95,1.48,0.41,3.25
				c-3.95,4.52-9.87,7.9-17.19,10.72c-2.48,0.96-0.42,5.71,7.3,6.93c2.31,0.36,2.64,1.83,1.14,3.59c-4.04,4.77-9.94,9.32-18.2,12.84
				c-2.42,1.03-0.23,7.84,10.95,8.58c3.95,0.26,3.03,3.8,2.32,5.51c-1.14,2.75-2.8,5.49-5.13,9.34c-0.58,0.97-0.96,2.01-0.96,3.32
				H39.6c0,1.12,0.28,2.32,0.72,3.83c10.07,34.19,43.87,79.94,101.93,97.54c58.05-17.6,91.86-63.35,101.93-97.54
				c0.44-1.5,0.72-2.71,0.72-3.83h-0.01c0-1.31-0.37-2.35-0.96-3.32c-2.32-3.85-3.98-6.59-5.13-9.34
				C238.08,134.4,237.16,130.86,241.11,130.6z M194.18,149.28c-5.06,6.99-15.03,11.79-26.88,12.29c-9.79,0.41-17.02-3.7-17.02-11.88
				c0-7.43,5.42-15.43,18.98-16.31c7.62-0.5,12.43-1,18.64-2.42c-1.85,4.74-5.37,8.12-8.81,11.51c-3.29,3.24,4.82,6.4,13.02,3.26
				C194.66,144.75,195.79,147.04,194.18,149.28z"/>
			<path class="st1" d="M175.47,180.15c-15.07-0.38-24.84-1.87-31.66-6.27c0.96,6.6,4.85,13.1,9.83,18.03
				c1.59,1.57,0.58,2.89-1.29,2.26c-17.68-5.95-21.77-27.97-19.04-43.72c-15.24,16.11-11.12,51.81,11.25,62.17
				c8.77,4.06,20.84,7.92,39.15-3.14c5.86-3.54,13.53-10.08,19.21-16.7C194.35,182.99,187.57,180.45,175.47,180.15z"/>
			<path class="st1" d="M210.48,92.96c-5.4,2.97-11.13-1.83-11.27-1.95c-0.63-0.53-1.97-1.8-2.07-3.53c-0.06-0.99,0.34-2.1,1-2.61
				c3.53-2.74,5.04-5.27,9.08-5.98c-1.08-3.87-3.69-7-12.73-10.7c-5.12-2.1-5.9-2.69-9.12-6.61c-8.14-9.89-20.25-22.34-32.82-23.69
				c-2.68-0.29-5.7,0.44-5.9,2.59c-0.21,2.24,3.05,3.48,7.04,3.15c2.11-0.17,3.27-0.16,5.54,0.95c7.86,3.83,12.58,11.06,14.66,18.52
				c-1.87-0.09-3.29-0.12-5.3-0.15c-2.86-0.04-4.5-0.58-7.4-2.66c-11.24-8.07-30.35-25.54-49.49-27.26
				c-4.16-0.37-8.82,1.24-8.82,4.48c0,1.78,1.89,3.54,5.77,3.54c3.9,0,4.94-1.86,9.46-1.29c11.97,1.53,22.02,11.61,24.58,23.41
				c1.1,5.07-1.46,8.28-5.7,10.61c-14.2,7.55-28.41,15.86-38.45,25.75c-34.38,33.87-30.42,73.8-11.23,97.53
				c-4.3-29.44,8.62-67.36,47.37-77c18.8-4.68,30.32,0.15,48.85-1.78c13.31-1.39,23.83-7.94,28.4-14.18
				c0.79-1.07,1.56-2.64,1.55-4.52C213.46,98.61,212.7,95.11,210.48,92.96z"/>
			<g>
				<path class="st0" d="M189.06,83.93c-6.19-2.02-8.18-8.42-14.32-10.17c-3.25-0.93-7.36-0.46-10.62,1.67
					c-1.12,0.73-1.49,0.93-2.17,1.13c-2.87,0.87-4.35,3.83-2.53,4.3c2.23,0.58,4.31,1.94,5.67,3.87c0.25-3.89,3.39-6.98,7.27-6.98
					c0.63,0,1.23,0.09,1.8,0.25c0.58,0.16,1.13,0.39,1.65,0.68c0,0,0,0,0,0c0,0-0.47,0.1-1.07,0.38c-0.77,0.35-1.75,1.01-2.25,2.19
					c0,0,0,0,0,0c1.18,0.37,2.26,0.83,3.28,1.33c0.6,0.29,1.21,0.59,1.74,0.92c0,0,0,0,0,0c-0.87,0.34-1.69,0.71-2.47,1.12
					c-0.15,0.08-0.29,0.17-0.44,0.25c-0.67,0.36-1.32,0.73-1.94,1.14c0,0,0,0,0,0c0.1,0.52,0.3,0.97,0.54,1.38
					c0.38,0.65,0.88,1.19,1.44,1.61c0.96,0.71,2.06,1.13,2.85,1.35c2.04-0.46,3.83-1.25,5.28-1.96c1.29-0.63,3.07-0.71,3.51-0.69
					C189.63,87.87,190.4,84.37,189.06,83.93z"/>
			</g>
			<g>
				<path class="st0" d="M199.84,223.79h3.53v0.66h-1.39v3.7h-0.76v-3.7h-1.38V223.79z"/>
				<path class="st0" d="M203.87,223.79h1.08l1.2,3.42h0.01l1.17-3.42h1.06v4.36h-0.73v-3.37h-0.01l-1.21,3.37h-0.63l-1.21-3.37
					h-0.01v3.37h-0.73V223.79z"/>
			</g>
			<path class="st0" d="M193.06,106.03c-18.28,1.11-28.82-1.03-34.02-9.36c-0.53-0.85-0.38-1.5,1.31-1.84
				c0.48-0.1,0.83-0.52,0.83-1.04c0-2.36-4.91-2.83-6.89-2.83c-4.3,0-8.72,1.45-8.72,3.38c0,0.72,0.63,1.32,1.65,1.29
				c2.98-0.08,3.91,0.05,4.71,1.63c8.82,17.47,27.83,15.99,40.41,10.88C194.77,107.16,194.16,105.96,193.06,106.03z"/>
			<path class="st0" d="M89.17,146.03c2.38-3.9,4.96-8.26,10.05-14.6c8.01-9.97-3.62-14.02-9.07-6.13
				c-2.78,4.02-4.39,8.76-4.66,14.33C85.22,145.19,87.37,148.98,89.17,146.03z"/>
			<path class="st2" d="M175.83,78.69C175.83,78.69,175.83,78.69,175.83,78.69c-0.52-0.29-1.07-0.52-1.65-0.68
				c-0.58-0.16-1.18-0.25-1.8-0.25c-3.88,0-7.02,3.08-7.27,6.98l0,0l0,0c0,0,0,0,0,0l0,0c3.75,5.68,8.39,6.51,12.19,5.68
				c0.08-0.02,0.16-0.04,0.24-0.06c-0.01,0-4.15-0.97-4.84-4.35c0,0,0,0,0,0c2.41-1.58,4.85-2.5,4.85-2.5c0,0,0,0,0,0
				c-1.29-0.85-3.78-1.89-5.03-2.25c0,0,0,0,0,0C173.36,79.2,175.83,78.69,175.83,78.69z"/>
		</g>
		<path class="st2" d="M205.24,90.56c1.07-0.7,2.19-1.36,3.29-1.9c-0.97-0.67-2.14-1.22-3.44-1.63c0.01-0.04,0.35-1.48,1.14-2.45
			c-1.46,0.05-2.88,0.67-3.9,1.83c-1.45,1.65-1.66,4.26-0.73,6.15c1.59,0.83,3.82,1.61,6.17,1.29v0
			C207.1,93.25,205.74,91.92,205.24,90.56z"/>
	</g>
</g>
</svg>
