<?xml version="1.0" encoding="UTF-8"?>
<svg width="200px" height="200px" viewBox="0 0 200 200" version="1.1" xmlns="http://www.w3.org/2000/svg" xmlns:xlink="http://www.w3.org/1999/xlink">
    <!-- Generator: Sketch 54.1 (76490) - https://sketchapp.com -->
    <title>uc-colo-springs</title>
    <desc>Created with Sketch.</desc>
    <g id="uc-colo-springs" stroke="none" stroke-width="1" fill="none" fill-rule="evenodd">
        <g id="uc-colo-springs_BGL">
            <g id="uc-colo-springs">
                <g id="g10" transform="translate(99.930408, 100.030623) scale(-1, 1) rotate(-180.000000) translate(-99.930408, -100.030623) translate(0.000000, 0.100215)" fill-rule="nonzero">
                    <g id="g12">
                        <path d="M178.018646,151.503963 C177.770907,151.50452 176.040079,151.796238 174.324282,153.083364 C170.801944,155.726649 168.398604,166.606537 168.452049,167.713844 C168.459843,167.860817 168.463183,168.017811 168.46708,168.182042 C168.486565,169.060539 168.513287,170.263044 169.070559,171.432703 C169.652327,172.656363 170.691158,173.745855 171.248987,174.330963 C171.358103,174.44509 171.448291,174.539174 171.509529,174.609321 C172.632424,175.891993 176.719829,178.939453 178.455667,179.981067 C179.527901,180.624073 180.739314,181.728597 181.014331,182.103823 C181.185799,182.675013 181.076126,182.997351 180.959216,183.215583 C180.640775,183.808485 179.618645,184.688096 176.558938,185.513148 C173.242584,186.407233 169.191367,186.590392 168.287818,186.590392 L168.228249,186.589279 C162.13834,186.259146 155.586913,183.643698 151.796238,181.198604 C143.820177,176.052327 141.421848,175.392062 140.223796,175.392062 C139.947109,175.392062 139.694916,175.428806 139.452745,175.502849 C136.828946,176.310643 135.044673,177.124561 133.319412,177.912313 C132.61127,178.235208 131.903685,178.558659 131.136531,178.881554 C124.779955,181.557685 118.35713,184.066245 109.693525,185.347247 C106.612106,185.803196 104.401389,186.129988 99.0658291,186.400552 C95.6982579,186.140009 92.8784945,185.824352 89.6534424,185.347247 C80.9920648,184.066801 74.5681262,181.557685 68.2109934,178.881554 C67.4438397,178.558659 66.7362544,178.235208 66.0281125,177.912313 C64.3028516,177.124561 62.5180221,176.310643 59.8947793,175.502849 C59.6526081,175.428806 59.4004161,175.392062 59.1237285,175.392062 C57.925677,175.392062 55.528238,176.052327 47.5508965,181.198604 C43.7608897,183.643698 37.2085725,186.259146 31.1145434,186.589835 L31.0594843,186.590392 C30.1561579,186.590392 26.1056083,186.407233 22.7890321,185.513148 C19.7290461,184.688096 18.7069167,183.807929 18.3883642,183.215027 C18.2713426,182.997351 18.1621707,182.675013 18.3335277,182.103823 C18.6084338,181.728597 19.8199578,180.624073 20.8918575,179.981067 C22.627863,178.939453 26.7147105,175.891993 27.8372714,174.609877 C27.8983987,174.540288 27.9879742,174.44676 28.0967564,174.332633 C28.6551976,173.747525 29.6944739,172.657477 30.2776889,171.432703 C30.8346269,170.2636 30.8614049,169.061095 30.8809456,168.183712 C30.884453,168.017811 30.8879046,167.860817 30.8950862,167.714401 C30.9490319,166.606537 28.5460257,155.726092 25.0232422,153.083364 C23.3063877,151.795682 21.5755597,151.503963 21.3287121,151.503963 L20.2951143,151.503963 L20.2864296,151.618646 C17.0268054,151.978284 15.8770212,153.442446 15.497564,154.664436 C15.0528597,156.097421 15.8194011,157.9858 16.7069168,160.172578 C16.9183016,160.693107 17.1326927,161.220873 17.3279884,161.741402 C17.8883781,163.236182 18.2243558,163.996656 18.386193,164.362418 C18.4072925,164.409738 18.4251074,164.449822 18.4394707,164.482668 C18.4590114,164.620177 18.4872925,164.767706 18.5181902,164.924143 C18.6140566,165.402362 18.6671672,165.736391 18.5340566,166.001944 C17.7753092,167.51955 17.1520664,168.182042 15.5027971,169.223656 C14.8290602,169.648987 14.1784269,170.025883 13.5490602,170.389975 C12.2294778,171.153788 10.8644117,171.944324 9.28450916,173.186913 L6.81631159,175.125952 C4.63726641,176.835625 4.63726641,176.835625 4.38456774,177.146829 C4.29692961,177.254832 4.11491152,177.478632 3.18132212,178.352675 C2.04027274,179.419898 0.829199701,181.436321 1.17193038,183.607511 C1.44832843,185.357267 2.37321636,186.587052 2.98516903,187.400413 L3.05106186,187.488374 C4.17275425,188.984268 6.77015989,190.875987 8.75150987,192.199856 C10.2633261,193.210294 12.2562001,194.056502 13.5751702,194.616557 C13.9959356,194.795263 14.3502293,194.945019 14.5976893,195.063043 C17.8122751,196.59401 24.098371,198.381623 31.2341259,198.381623 C32.2268607,198.381623 33.2174244,198.345994 34.1782037,198.276404 C39.0524694,197.921777 41.5227269,197.15852 43.1302425,196.533328 C45.6456495,195.55518 48.246568,194.543628 50.708085,192.950865 C50.7541811,192.920802 50.8890175,192.825604 51.0947238,192.678075 C57.2425873,188.27891 59.0101586,187.903127 59.4165608,187.897003 C71.8608194,194.108833 80.3969361,195.681554 86.0492672,196.722612 C93.8560867,198.160607 96.1558779,198.178979 98.0041729,198.193454 C98.1689607,198.195124 98.3304081,198.196794 98.4924123,198.198464 L98.5675689,198.342097 L99.308557,198.274734 C99.4354881,198.263043 99.5568521,198.253579 99.6737623,198.245228 C99.7912292,198.253579 99.9125932,198.263043 100.038968,198.274734 L100.899093,198.353231 L100.955321,198.197907 C101.083366,198.195681 101.212524,198.195124 101.342795,198.19401 C103.19109,198.179536 105.490324,198.160607 113.259844,196.729849 C118.949475,195.681554 127.485035,194.10939 139.92818,187.898116 C140.388584,187.914261 142.191785,188.341819 148.251075,192.677518 C148.457616,192.825604 148.593455,192.920802 148.639662,192.951422 C151.100901,194.543628 153.701875,195.55518 156.217672,196.533328 C157.824909,197.15852 160.295612,197.921777 165.169098,198.276404 C166.129989,198.345994 167.120942,198.381623 168.113566,198.381623 C175.248987,198.381623 181.53486,196.59401 184.750448,195.063043 C184.997073,194.945019 185.352257,194.795263 185.772577,194.616557 C187.091436,194.055945 189.084477,193.210294 190.596516,192.199856 C192.577866,190.875987 195.174943,188.983711 196.296724,187.488374 L196.36186,187.402083 C196.97369,186.588165 197.898394,185.358938 198.176195,183.607511 C198.518019,181.436321 197.307163,179.419898 196.166453,178.352675 C195.232841,177.478632 195.050795,177.254275 194.962834,177.146829 C194.709529,176.835625 194.709529,176.835625 192.522751,175.119829 L190.063182,173.186913 C188.483224,171.943767 187.118158,171.153232 185.797073,170.388861 C185.168541,170.02477 184.518297,169.64843 183.844672,169.223656 C182.196238,168.182598 181.573273,167.520107 180.813357,166.001944 C180.680302,165.736391 180.733746,165.402919 180.829501,164.925257 C180.860121,164.769377 180.888513,164.62129 180.907998,164.483782 C180.922473,164.451492 180.939731,164.413079 180.959773,164.366315 C181.12122,164.001109 181.458033,163.241193 182.019759,161.741402 C182.215166,161.220873 182.429501,160.69255 182.641053,160.172021 C183.528457,157.9858 184.295055,156.097421 183.849682,154.664436 C183.470559,153.442446 182.320942,151.978284 179.06193,151.618646 L179.053023,151.503406 L178.018646,151.503963 Z M70.2997895,51.1093098 C69.4880985,51.1093098 68.8629071,51.2434782 66.5853846,51.9080293 C62.5675698,53.0799708 58.6288086,55.9860807 54.5435199,60.7922045 C54.4498247,60.9024341 54.3580223,61.0020862 54.2715087,61.0978412 C52.8655798,62.6460666 52.7035756,63.8346539 54.3356423,68.7315223 C55.9281823,73.5086968 59.1999985,81.1562958 62.0865677,87.903686 C64.6062614,93.794848 66.9867763,99.3592181 67.8786344,102.123867 C68.3824618,103.685453 68.8601235,104.887402 69.2437004,105.852746 C70.2758507,108.45038 70.4907428,108.991507 69.3027123,110.826998 C68.2126636,112.511619 67.3319399,113.75198 66.643283,114.572579 C66.525816,114.454555 66.392761,114.342655 66.2452315,114.237436 C65.7280429,113.867777 63.8652733,112.661932 61.6189268,112.661932 C60.0807222,112.661932 58.6822532,113.248153 57.5738329,114.356017 C56.5138469,115.415446 56.2694488,115.680999 56.0907432,116.082391 L56.0445358,116.188724 C55.9437703,116.419204 55.7344454,116.899092 54.9434642,118.562001 C54.6749047,119.125954 54.2638817,119.399858 53.6865122,119.399858 C52.8975352,119.399858 52.1420725,118.876545 51.9578553,118.407234 C51.9143759,118.296448 51.8126083,118.038132 52.2525248,117.629503 C52.9242575,117.005982 53.3803188,116.434792 53.8637147,115.830199 C54.1259833,115.501737 54.404341,115.152676 54.7448838,114.762976 C55.059595,114.403894 55.2902979,114.135557 55.4723438,113.923449 C56.1007641,113.192482 56.1007641,113.192482 57.2281127,112.208209 L57.7954057,111.713289 C58.3348628,111.241194 58.8748767,111.021292 59.4945009,111.021292 C60.043979,111.021292 60.5962407,111.19443 61.0833666,111.34697 C61.5370896,111.488932 61.9663172,111.623658 62.3955447,111.623658 C63.1526776,111.623658 64.0011118,111.1588 64.1096713,109.854416 C64.182601,108.978146 63.9220582,108.189837 63.3564354,107.575223 C62.4773819,106.6199 60.935837,106.135558 58.7735546,106.135558 C58.195684,106.135558 57.5782867,106.171744 56.9391774,106.242447 C53.287904,106.648292 47.4828102,110.127763 44.5154617,113.688515 C43.4220727,115.000693 42.0396371,115.134861 40.289658,115.304103 C38.3583567,115.491159 36.1689065,115.703268 34.3369233,117.739176 C34.0929706,118.010296 33.8754619,118.214611 33.6836735,118.39443 C33.2570068,118.795265 32.7737779,119.249545 32.8109665,119.978285 C32.8538336,120.817812 33.4451209,121.269865 35.0258586,122.476824 C35.4384403,122.791925 35.9331376,123.169934 36.5196372,123.628668 C40.0187046,126.367151 40.7633114,126.759635 42.5620031,127.707165 C43.5081965,128.205981 44.8040629,128.889071 47.0313697,130.205146 C50.068085,131.999997 52.2309799,133.176336 54.5385094,133.176336 C55.372302,133.176336 56.2004161,133.022126 57.071119,132.705355 C59.0285302,131.993873 60.1297132,131.441611 61.1011815,130.954485 C61.9017382,130.553093 62.6204577,130.192342 63.7244243,129.798187 C62.9917869,130.494082 62.1489198,131.205564 61.2765468,131.942655 C59.9821836,133.035487 58.6432832,134.165063 57.5426569,135.357547 L57.4914391,135.413219 C55.1322464,137.969099 54.5592192,138.778563 55.6280571,142.197909 C56.6096019,145.337783 64.3073053,153.098396 65.1824618,153.972439 L65.5081403,154.298674 L65.9863588,154.298674 C66.4322878,154.427832 66.8988153,154.493524 67.3759204,154.493524 C69.9496155,154.493524 72.2165605,152.669725 73.2336794,150.974526 C74.0921345,149.543768 76.3735541,145.741959 73.4680566,142.594847 C71.822406,140.811688 70.1327749,140.413079 68.8990936,140.121917 C68.3768946,139.998326 67.920388,139.89088 67.6203184,139.710505 C67.7266511,139.570212 67.8741806,139.398187 67.9944311,139.258452 C68.2833664,138.921082 68.6430045,138.501319 68.9553219,138.001945 C69.5081402,137.117324 74.3515639,132.052328 77.2459271,129.02658 C78.9723014,127.221152 80.3362541,125.794847 80.7326354,125.332217 C81.6501023,124.261653 82.0347927,123.541263 82.8130807,120.832286 C83.4148901,118.73848 82.9773118,116.186497 82.6237975,115.009044 C82.0164211,112.983713 81.638968,111.598049 81.1607495,109.844395 C80.7738324,108.421988 80.3295735,106.792482 79.6587315,104.445926 C78.6917169,101.059427 78.098815,99.578564 77.4708401,98.0108535 C77.1201094,97.1345835 76.757131,96.2288076 76.2989543,94.9194131 C76.0072354,94.0865669 75.6414734,93.0961703 75.2306175,91.9827395 C73.807653,88.1297125 71.8597059,82.8520508 70.5770337,77.5799563 C68.9425174,70.8598451 68.7782864,68.5784256 69.6528862,64.7287388 C70.4801653,61.0911606 70.5018772,61.049407 71.6587317,58.8915782 L71.9621416,58.3259554 C73.4530253,55.5301865 74.3682654,53.5949326 73.537646,52.2103258 C73.1039648,51.4879319 72.3056349,51.1210565 71.1654819,51.1210565 C70.9661778,51.1210565 70.8019467,51.1175492 70.656644,51.1143202 C70.5274861,51.111481 70.4111325,51.1093098 70.2997895,51.1093098 L70.2997895,51.1093098 Z M126.539732,51.1143202 C126.39443,51.1175492 126.230199,51.1210565 126.031451,51.1210565 C124.891298,51.1210565 124.092968,51.4879319 123.65873,52.2103258 C122.828668,53.5949326 123.743908,55.5301865 125.234235,58.3259554 L125.537645,58.8932484 C126.693943,61.0505204 126.716211,61.0917173 127.542933,64.7287388 C128.417533,68.5784256 128.253859,70.8598451 126.619343,77.5799563 C125.337784,82.8509374 123.389837,88.1263722 121.967429,91.9788425 C121.55546,93.0939434 121.189698,94.0860102 120.897422,94.9199698 C120.439245,96.2282509 120.076824,97.1340268 119.726093,98.0097401 C119.098118,99.5774505 118.505216,101.058313 117.537645,104.445926 C116.866803,106.793038 116.423101,108.422544 116.035627,109.844395 C115.557408,111.598605 115.179955,112.983713 114.572579,115.009044 C114.219065,116.18594 113.781486,118.737923 114.383852,120.832843 C115.162697,123.542377 115.546831,124.262767 116.463741,125.332217 C116.860679,125.795404 118.224632,127.221152 119.951563,129.02658 C122.844813,132.052885 127.688793,137.117324 128.241611,138.001945 C128.553372,138.501319 128.91301,138.921082 129.201945,139.257895 C129.322196,139.398187 129.469725,139.570212 129.576058,139.709948 C129.275988,139.89088 128.819482,139.998326 128.296726,140.121917 C127.063045,140.413079 125.37397,140.812244 123.72832,142.594847 C120.822822,145.742515 123.103685,149.543768 123.962697,150.974526 C124.979816,152.669725 127.247318,154.493524 129.821013,154.493524 C130.297561,154.493524 130.763532,154.427832 131.210018,154.298674 L131.687679,154.298674 L132.013915,153.972439 C132.888514,153.098396 140.587331,145.337783 141.56882,142.197909 C142.637157,138.77912 142.064854,137.969656 139.706051,135.414889 L139.654276,135.357547 C138.553093,134.165063 137.214193,133.035487 135.91983,131.942098 C135.0469,131.205564 134.20459,130.494082 133.471395,129.798187 C134.575919,130.192342 135.295195,130.553093 136.095195,130.954485 C137.066663,131.441611 138.167846,131.993873 140.125257,132.705355 C140.99596,133.022126 141.824353,133.176336 142.657756,133.176336 C144.965341,133.176336 147.12818,131.999997 150.165619,130.205146 C152.393037,128.888515 153.689071,128.205425 154.635487,127.707165 C156.433677,126.759078 157.178563,126.366594 160.676405,123.628668 C161.262626,123.169934 161.75699,122.792481 162.169516,122.47738 C163.750587,121.269865 164.342376,120.818369 164.385243,119.978842 C164.422543,119.249545 163.939314,118.795265 163.51287,118.394987 C163.320803,118.214611 163.103684,118.010296 162.859286,117.739176 C161.027136,115.703268 158.838131,115.491159 156.906885,115.304103 C155.156572,115.134861 153.774248,115.000693 152.680302,113.688515 C149.713566,110.127763 143.908695,106.648292 140.258312,106.242447 C139.61809,106.171744 139.001249,106.135558 138.423935,106.135558 C138.423379,106.135558 138.423379,106.135558 138.423379,106.135558 C136.261096,106.135558 134.718438,106.6199 133.839384,107.575223 C133.273761,108.190394 133.013219,108.978146 133.086148,109.854416 C133.195265,111.1588 134.043699,111.623658 134.801388,111.623658 C135.230059,111.623658 135.659287,111.488932 136.11301,111.34697 C136.600136,111.19443 137.152954,111.021292 137.701875,111.021292 C138.3215,111.021292 138.861514,111.241194 139.400971,111.713289 L139.962697,112.204312 C141.095056,113.191368 141.095056,113.191368 141.721917,113.920665 C141.90452,114.13333 142.136113,114.402224 142.451771,114.763532 C142.791367,115.15212 143.069725,115.500623 143.331938,115.828529 C143.815167,116.433678 144.27223,117.005425 144.943629,117.628946 C145.383991,118.038132 145.282112,118.296448 145.238688,118.407234 C145.054415,118.876545 144.298396,119.399858 143.50953,119.399858 C142.932216,119.399858 142.52136,119.125954 142.253024,118.562001 C141.460818,116.898536 141.252049,116.418647 141.151841,116.188724 L141.105077,116.081834 C140.927484,115.680999 140.683086,115.415446 139.6231,114.356017 C138.51468,113.248153 137.115654,112.661932 135.57745,112.661932 C133.330546,112.661932 131.46889,113.867777 130.951145,114.237436 C130.803615,114.342655 130.671117,114.454555 130.553093,114.572579 C129.864437,113.75198 128.983713,112.511619 127.893107,110.826998 C126.70619,108.991507 126.921082,108.450937 127.952676,105.853303 C128.336253,104.887958 128.813915,103.685453 129.317185,102.123867 C130.209043,99.3592181 132.589002,93.7954048 135.109809,87.9047995 C137.996378,81.1574092 141.268194,73.5086968 142.8604,68.7315223 C144.493246,63.8352107 144.331242,62.6460666 142.925536,61.0983979 C142.838131,61.0026429 142.746273,60.9024341 142.652189,60.7916477 C138.567011,55.9860807 134.627693,53.0799708 130.610435,51.9080293 C128.333469,51.2434782 127.708835,51.1093098 126.897144,51.1093098 C126.785244,51.1093098 126.66889,51.111481 126.539732,51.1143202 L126.539732,51.1143202 Z M103.429364,1.11343073 C102.215725,1.11343073 101.086149,1.13409044 100.148641,1.15127067 L99.6236579,1.15974945 L99.236184,1.15583574 L99.1927602,1.15909809 C99.1075828,1.16627415 98.9928994,1.16910227 98.858731,1.17084479 L98.2452307,1.17084479 C98.1110623,1.16910227 97.9969356,1.16627415 97.9117582,1.15909809 L97.8288076,1.15583574 L97.4240755,1.15409879 L97.4185084,1.15844674 L96.9553212,1.15127067 C96.0178125,1.13409044 94.8887937,1.11343073 93.6745975,1.11343073 C87.5034077,1.11343073 83.8196221,1.67688792 82.0815568,2.88600132 C78.7596362,5.19702701 77.7581052,9.35849663 77.2765464,11.3581069 L77.1830183,11.7416838 C76.9425172,12.7053024 75.7160733,19.0385521 74.6338186,24.6257475 C73.8833663,28.5009875 73.1073051,32.5082803 73.0160037,32.8658029 C72.8979801,33.2163109 70.6382724,41.508809 70.480722,42.6126642 C70.251912,44.2114394 71.0463448,46.6266377 73.3311046,48.1502006 C74.3209446,48.8100197 75.4215708,49.1307991 76.6970057,49.1307991 C78.2179521,49.1307991 79.8346535,48.669115 81.5454399,48.1798179 L81.631174,48.155211 C83.5240063,47.6148074 85.1746673,47.3519264 86.6777988,47.3519264 C87.5490584,47.3519264 88.3601926,47.4378276 89.1562956,47.6148074 C91.4226839,48.1191359 93.6512155,50.1950718 94.4428647,51.4404998 C95.0146114,52.338426 94.4723706,54.2547516 94.1817652,55.284007 C94.1199698,55.5034085 94.064855,55.6977022 94.0236581,55.8613765 C93.8883762,56.4030605 92.4654117,57.7080013 91.8580353,58.2652734 C91.5691,58.5302699 91.3096706,58.7685441 91.115377,58.9628378 C90.7635329,59.3130117 88.0122455,61.3138468 86.0030598,62.7746679 C81.5838532,65.988029 80.6992325,66.6622113 80.434236,67.0157255 C80.3640898,67.0925523 80.0161427,67.3664562 79.7366716,67.5869155 C78.5903947,68.4899078 77.0199006,69.7263726 76.6324268,71.147667 C76.0924129,73.1284602 76.6558088,75.1203878 78.0336793,76.1046606 C79.256783,76.978147 81.6985366,77.564925 84.1091141,77.564925 C85.9318002,77.564925 87.5574091,76.9954052 88.7443262,76.5800955 C89.1195524,76.4487107 89.4435607,76.334584 89.667917,76.2789125 C90.6995106,76.0211533 94.9906726,75.8246328 98.6961701,75.7650642 C102.127207,75.8229626 106.352677,76.0083488 107.436601,76.2789125 C107.660958,76.334584 107.985523,76.4487107 108.361306,76.5800955 C109.548223,76.9959619 111.173275,77.564925 112.994848,77.564925 C115.405425,77.564925 117.847179,76.978147 119.069726,76.1046606 C120.44871,75.1198311 121.011549,73.1279035 120.471535,71.147667 C120.084061,69.7258159 118.513567,68.4893511 117.366733,67.5858021 C117.087262,67.3658995 116.739872,67.0919955 116.652468,66.9945704 C116.405286,66.6622113 115.520108,65.9885857 111.101459,62.7752246 C109.092273,61.3144035 106.340986,59.3130117 105.989141,58.9628378 C105.794291,58.7685441 105.535418,58.5302699 105.245926,58.2647167 C104.63855,57.7074446 103.216142,56.4030605 103.080304,55.8619332 C103.039663,55.6977022 102.984549,55.5034085 102.922753,55.284007 C102.631591,54.2547516 102.089907,52.338426 102.661097,51.4398317 C103.484479,50.1461365 105.779816,48.0969229 107.948223,47.6148074 C108.743769,47.4378276 109.554347,47.3519264 110.426163,47.3519264 C111.929294,47.3519264 113.579955,47.6152528 115.472231,48.155211 L115.559635,48.1804302 C117.270978,48.669115 118.886566,49.1307991 120.406956,49.1307991 C121.681834,49.1307991 122.783017,48.8106877 123.772857,48.1502006 C126.057617,46.627083 126.85205,44.2121075 126.622683,42.6126642 C126.463462,41.4959489 124.205425,33.2119686 124.071256,32.8140284 C123.996657,32.507835 123.218369,28.4899088 122.466246,24.604648 C121.385662,19.0264157 120.161444,12.704189 119.920943,11.7423518 L119.826859,11.3552676 C119.3453,9.35610276 118.342655,5.19637009 115.023518,2.88600132 C113.283783,1.67688792 109.599997,1.11343073 103.429921,1.11343073 C103.429364,1.11343073 103.429921,1.11343073 103.429364,1.11343073 L103.429364,1.11343073 Z" id="path14" fill="#231F20"></path>
                        <path d="M55.3918984,61.5125941 C54.30519,62.7908126 53.5453849,62.8398036 55.3918984,68.3791215 C58.3454404,77.2392465 66.9895599,95.7405682 68.9386204,101.782043 C70.7941527,107.53514 72.2789126,108.276685 70.2374374,111.431591 C68.1959621,114.586497 67.0830881,115.885314 66.3404298,116.442029 C66.1851062,116.558939 66.1188571,116.610157 66.1004855,116.610157 C66.0286692,116.610157 66.6249113,115.876963 65.5983282,115.143212 C64.8161431,114.584827 63.2768251,113.775363 61.6189268,113.775363 C60.5227542,113.775363 59.3753639,114.129433 58.3610285,115.143212 C57.3867766,116.117464 57.2008336,116.326232 57.1084189,116.535001 C57.0154474,116.743769 56.8768253,117.091159 55.9487808,119.04022 C55.4457885,120.096865 54.5724691,120.513289 53.6865122,120.513289 C51.7270968,120.513289 49.7059974,118.475154 51.4948908,116.813358 C52.4601796,115.917603 52.9453571,115.129294 53.9072499,114.029781 C55.5541253,112.147527 54.8830049,112.781626 57.0622115,110.875432 C57.9067487,110.136114 58.7356979,109.907861 59.4945009,109.907861 C60.7265121,109.907861 61.7725802,110.510227 62.3955447,110.510227 C62.7384814,110.510227 62.9528168,110.327624 63.0001376,109.762001 C63.1482239,107.98775 61.2949184,107.248988 58.7735546,107.248988 C58.2296436,107.248988 57.6545567,107.283505 57.0616548,107.349197 C53.7215296,107.720526 48.1545987,111.060818 45.3710218,114.401111 C42.587445,117.741403 38.2381062,115.069169 35.164425,118.483504 C33.4942789,120.339037 32.9375635,119.411549 37.2057889,122.751841 C42.5010985,126.89603 41.2404165,125.489767 47.5978833,129.246483 C50.6117176,131.027972 52.5667349,132.062906 54.5385094,132.062906 C55.2379109,132.062906 55.9393166,131.932634 56.6908824,131.659287 C60.7732761,130.174527 60.9592191,129.432425 64.6702837,128.318995 C66.3148209,127.825745 67.0847582,127.514541 67.2712579,127.514541 C67.5056351,127.514541 66.8175349,128.006121 65.7837144,129.246483 C63.9281821,131.473344 60.5878899,133.700205 58.3610285,136.11301 C56.134167,138.525257 55.7628379,138.896587 56.6908824,141.86555 C57.6189269,144.834513 65.9696574,153.185243 65.9696574,153.185243 L66.1550436,153.185243 C66.5558786,153.319412 66.9656212,153.380094 67.3759204,153.380094 C69.3672912,153.380094 71.3553218,151.940428 72.2789126,150.401666 C73.3923433,148.546691 74.852051,145.735835 72.6502417,143.35031 C70.4233803,140.937505 68.1965188,141.494777 66.8971452,140.566733 C65.5983282,139.638688 67.0830881,138.896587 68.0105759,137.411827 C68.9386204,135.927067 78.7741108,125.906747 79.8875415,124.607373 C80.678634,123.684339 80.9931782,123.133191 81.7430738,120.52498 C82.2880982,118.628807 81.8310348,116.241055 81.5576876,115.328598 C80.4442569,111.616977 80.0729277,109.947388 78.5881678,104.751563 C77.1039647,99.5546252 76.5472493,98.9984666 75.2478756,95.2874019 C73.9490587,91.5757806 71.1654819,84.7092533 69.4953358,77.842726 C67.8251897,70.9773121 67.6398035,68.5645077 68.5672913,64.4815572 C69.4953358,60.3997201 69.4947791,60.5851063 70.9795389,57.8015295 C72.7131506,54.5520376 73.7787038,52.2344872 71.1654819,52.2344872 C70.7908124,52.2344872 70.5347234,52.2227405 70.2997895,52.2227405 C69.6606802,52.2227405 69.1763379,52.311648 66.8971452,52.9771455 C62.4434222,54.2758511 58.5464147,57.8015295 55.3918984,61.5125941 Z M70.6811395,50.0012792 C70.8192049,50.0041184 70.9756419,50.0076258 71.1654819,50.0076258 C73.1073051,50.0076258 74.0464839,50.8944177 74.4924129,51.6381894 C75.7093927,53.6662478 74.3036864,56.3011816 72.9447442,58.8498246 L72.6402209,59.4182309 C71.5323573,61.4847584 71.5323573,61.4847584 70.7390379,64.9753637 C69.9022947,68.6563657 70.0570616,70.7323573 71.6587317,77.3166299 C72.9263726,82.5274858 74.8615152,87.7695176 76.2750155,91.5969358 C76.692552,92.7287381 77.0538603,93.7063303 77.3500329,94.5519809 C77.7998589,95.8374367 78.1578269,96.7320783 78.5046605,97.597214 C79.1432131,99.1916468 79.7461358,100.698675 80.7292951,104.139733 C81.402364,106.494082 81.8449527,108.118578 82.2352102,109.551563 C82.7112018,111.297979 83.0869847,112.676963 83.6904642,114.688932 C83.7973535,115.045787 84.7120369,118.256364 83.8830877,121.14015 C83.1003459,123.864158 82.6694482,124.783295 81.5782861,126.056503 C81.1807913,126.520247 80.0372979,127.718299 78.0503808,129.795961 C75.41155,132.555599 70.4990936,137.691855 69.8933873,138.601528 C69.776477,138.789141 69.6545564,138.964506 69.5331924,139.128737 C70.8147512,139.443838 72.5845493,139.995543 74.2864282,141.839941 C77.7575485,145.599996 75.0708402,150.076545 74.1878896,151.547943 C73.0148903,153.502571 70.3827401,155.606955 67.3759204,155.606955 C66.8503811,155.606955 66.3343059,155.541263 65.8366024,155.412105 L65.04718,155.412105 L64.3947096,154.760191 C62.3448836,152.710365 55.5780084,145.769795 54.5652874,142.530268 C53.3235338,138.557547 54.1372847,137.405146 56.6730675,134.658313 L56.7242853,134.602641 C57.0093236,134.293664 57.3082797,133.990254 57.6161433,133.691855 C57.5621419,133.711896 57.5075838,133.731938 57.4513556,133.75198 C56.4570619,134.113845 55.5040766,134.289767 54.5385094,134.289767 C51.9478345,134.289767 49.6596786,133.051632 46.4648562,131.16381 C44.26082,129.861096 42.9788716,129.185801 42.0426433,128.692551 C40.1813769,127.711618 39.4111055,127.305773 35.8330958,124.505494 C35.2511613,124.049545 34.7601383,123.674875 34.3500061,123.362001 C32.6309247,122.04871 31.7682386,121.390115 31.6988719,120.035627 C31.6355733,118.791368 32.440194,118.034792 32.9210291,117.583296 C33.1056359,117.4096 33.2965893,117.230338 33.5092546,116.994291 C35.6308968,114.637158 38.1545989,114.392203 40.1822119,114.196239 C41.9413212,114.025884 42.8949189,113.893943 43.6604025,112.975363 C46.8351832,109.165759 52.8594559,105.575502 56.8155866,105.135697 C57.4964495,105.06054 58.1550438,105.022127 58.7735546,105.022127 C61.2598454,105.022127 63.0769643,105.627276 64.1759205,106.820874 C64.9581055,107.671535 65.3188571,108.75212 65.2197618,109.946831 C65.1757813,110.467917 65.0371591,110.903268 64.841752,111.27237 C65.3088362,111.733331 65.7135683,112.243282 66.0403602,112.79443 C66.1873331,112.877381 66.3215015,112.956991 66.4389684,113.029921 C66.9305481,112.372996 67.5613066,111.468334 68.3679872,110.222405 C69.2437004,108.868473 69.2047304,108.771048 68.2087666,106.264159 C67.8190658,105.283226 67.3341667,104.06235 66.819205,102.46569 C65.942935,99.7494756 63.572441,94.2084876 61.0627681,88.341821 C58.1678482,81.5743891 54.8864565,73.9045215 53.2791636,69.0833664 C51.584021,63.9983283 51.6155867,62.3660388 53.4472916,60.3496157 C53.5264566,60.2622114 53.6097412,60.1709101 53.6954197,60.0707014 C57.925677,55.0937217 62.0403603,52.0739862 66.2741807,50.8398596 C68.5489197,50.1756981 69.3060525,49.9958791 70.2997895,49.9958791 C70.4189266,49.9958791 70.5430741,49.9980502 70.6811395,50.0012792 L70.6811395,50.0012792 Z" id="path16" fill="#CCB567"></path>
                        <path d="M162.032007,118.483504 C158.957825,115.069169 154.608764,117.741403 151.825188,114.401111 C149.041611,111.060818 143.475014,107.720526 140.135278,107.349197 C139.542376,107.283505 138.967289,107.248988 138.423379,107.248988 C135.902015,107.248988 134.048153,107.98775 134.195682,109.762001 C134.243003,110.327624 134.457895,110.510227 134.801388,110.510227 C135.424353,110.510227 136.470421,109.907861 137.701875,109.907861 C138.460679,109.907861 139.289628,110.136671 140.134165,110.875432 C142.313706,112.781626 141.64175,112.147527 143.289628,114.029781 C144.251075,115.129294 144.737088,115.917603 145.701319,116.813358 C147.490602,118.475154 145.469168,120.513289 143.50953,120.513289 C142.623796,120.513289 141.75031,120.096309 141.247596,119.04022 C140.319551,117.091159 140.180929,116.743769 140.087958,116.535001 C139.995543,116.326232 139.810157,116.117464 138.835905,115.143212 C137.821569,114.129433 136.673622,113.775363 135.57745,113.775363 C133.920108,113.775363 132.380233,114.584827 131.598605,115.143212 C130.570908,115.876963 131.168264,116.610157 131.096448,116.610157 C131.076963,116.610157 131.01127,116.558939 130.855947,116.442029 C130.113845,115.885314 129.000414,114.586497 126.958382,111.431591 C124.917464,108.276685 126.402224,107.53514 128.257756,101.782043 C130.20626,95.7405682 138.850936,77.2392465 141.804311,68.3791215 C143.651493,62.8398036 142.891019,62.7908126 141.804311,61.5125941 C138.649405,57.8015295 134.752397,54.2758511 130.298675,52.9771455 C128.019482,52.311648 127.535696,52.2227405 126.897144,52.2227405 C126.661653,52.2227405 126.405564,52.2344872 126.031451,52.2344872 C123.418786,52.2344872 124.483783,54.5520376 126.216837,57.8015295 C127.701041,60.5851063 127.701041,60.3997201 128.628528,64.4815572 C129.556573,68.5645077 129.371187,70.9773121 127.701041,77.842726 C126.031451,84.7092533 123.247318,91.5757806 121.948501,95.2874019 C120.649127,98.9984666 120.092968,99.5546252 118.608209,104.751563 C117.124005,109.947388 116.75212,111.616977 115.639246,115.328598 C115.365342,116.241055 114.908278,118.628807 115.453859,120.52498 C116.203755,123.133191 116.517742,123.684339 117.309392,124.607373 C118.422822,125.906747 128.257756,135.927067 129.185801,137.411827 C130.113845,138.896587 131.598605,139.638688 130.298675,140.566733 C129.000414,141.494777 126.772996,140.937505 124.546691,143.35031 C122.344882,145.735835 123.804033,148.546691 124.917464,150.401666 C125.841055,151.940428 127.829085,153.380094 129.821013,153.380094 C130.230199,153.380094 130.640498,153.318855 131.041333,153.185243 L131.226719,153.185243 C131.226719,153.185243 139.578006,144.834513 140.506051,141.86555 C141.434095,138.896587 141.062209,138.525257 138.835905,136.11301 C136.608486,133.700205 133.268751,131.473344 131.412105,129.246483 C130.378842,128.006121 129.690741,127.514541 129.925119,127.514541 C130.111618,127.514541 130.882112,127.825745 132.526093,128.318995 C136.237714,129.432425 136.4231,130.174527 140.506051,131.659287 C141.257617,131.932634 141.958521,132.062906 142.657756,132.062906 C144.629641,132.062906 146.584826,131.027415 149.598883,129.246483 C155.955459,125.489767 154.695612,126.89603 159.990532,122.751841 C164.258869,119.411549 163.701596,120.339037 162.032007,118.483504 L162.032007,118.483504 Z M162.845368,123.362558 C162.436182,123.675432 161.945159,124.050101 161.362835,124.505494 C157.785939,127.305216 157.015445,127.711062 155.154345,128.691994 C154.218507,129.185244 152.936391,129.86054 150.731799,131.16381 C147.536252,133.051632 145.248152,134.289767 142.657756,134.289767 C141.692411,134.289767 140.739871,134.113845 139.745021,133.75198 C139.689349,133.731938 139.634791,133.711896 139.580233,133.691855 C139.888653,133.990254 140.187053,134.293664 140.471534,134.602641 L140.524422,134.659426 C143.059704,137.40626 143.873065,138.558104 142.631033,142.530268 C141.618925,145.769795 134.851493,152.710365 132.80111,154.760191 L132.149196,155.412105 L131.359217,155.412105 C130.86207,155.541263 130.345995,155.606955 129.821013,155.606955 C126.814193,155.606955 124.182043,153.503128 123.00793,151.547943 C122.325397,150.40946 121.588306,149.036044 121.299371,147.481138 C120.905773,145.358939 121.462488,143.408208 122.910505,141.839941 C124.612384,139.995543 126.382182,139.443838 127.663741,139.128737 C127.540707,138.962279 127.417116,138.783573 127.297422,138.59262 C126.697283,137.691855 121.78594,132.555599 119.147109,129.796517 C117.159078,127.718299 116.016142,126.520247 115.618647,126.056503 C114.528042,124.784966 114.096587,123.865828 113.313289,121.14015 C112.483783,118.255251 113.39958,115.044674 113.506469,114.688376 C114.109392,112.67752 114.485175,111.298536 114.96061,109.552676 C115.351424,108.119134 115.794012,106.494639 116.467081,104.139733 C117.450797,100.697562 118.05372,99.1910901 118.692273,97.5961006 C119.03855,96.7309649 119.397074,95.83688 119.8469,94.5514242 C120.143073,93.7052169 120.504381,92.7265113 120.923031,91.5930388 C122.335418,87.7661773 124.271117,82.5252589 125.537088,77.3166299 C127.138758,70.7323573 127.294082,68.655809 126.457339,64.9753637 C125.664019,61.4853151 125.664019,61.4853151 124.556712,59.4193444 L124.252189,58.8492678 C122.89269,56.3011816 121.48754,53.6662478 122.703964,51.6381894 C123.150449,50.8944177 124.090185,50.0076258 126.031451,50.0076258 C126.221291,50.0076258 126.377172,50.0041184 126.515237,50.0012792 C126.653859,49.9980502 126.778007,49.9958791 126.897144,49.9958791 C127.890881,49.9958791 128.647457,50.1756981 130.922752,50.8398596 C135.155459,52.0735408 139.269586,55.0930536 143.501179,60.0707014 C143.586357,60.1709101 143.670421,60.2622114 143.748918,60.3496157 C145.581068,62.3665955 145.612801,63.9983283 143.917046,69.0839231 C142.309809,73.9045215 139.028528,81.5755025 136.133052,88.3429345 C133.623935,94.2090443 131.252885,99.7500323 130.377171,102.46569 C129.86221,104.06235 129.377311,105.283226 128.98761,106.264716 C127.991089,108.771048 127.952676,108.86903 128.827833,110.222405 C129.63507,111.468334 130.265828,112.372996 130.757408,113.029921 C130.880442,112.953094 131.021291,112.870143 131.176058,112.783296 C131.49951,112.239942 131.899231,111.737228 132.359635,111.281834 C132.162001,110.910505 132.020595,110.472927 131.976615,109.947944 C131.876963,108.75212 132.237714,107.671535 133.020456,106.821431 C134.118855,105.627276 135.937088,105.022127 138.423379,105.022127 C139.041889,105.022127 139.70104,105.06054 140.38079,105.135697 C144.337366,105.575502 150.361026,109.165759 153.535974,112.975363 C154.300901,113.893943 155.254554,114.025884 157.013775,114.196239 C159.041889,114.392203 161.56548,114.637158 163.687122,116.993734 C163.899787,117.230895 164.090741,117.410157 164.27557,117.583296 C164.756572,118.035348 165.561026,118.791368 165.49756,120.035627 C165.428528,121.390115 164.565062,122.049266 162.845368,123.362558 L162.845368,123.362558 Z" id="path18" fill="#CCB567"></path>
                        <path d="M125.520943,42.770326 C125.381764,41.7960741 123.15546,33.5845225 123.015724,33.1663179 C122.876545,32.7494494 119.257895,13.6812801 118.840916,12.0118021 C118.422822,10.341656 117.587749,6.02711189 114.387193,3.79958237 C112.45205,2.45389555 107.469448,2.22686146 103.429364,2.22686146 C101.817673,2.22686146 100.355182,2.26361581 99.2963093,2.27927065 C99.2907421,2.27818505 99.285175,2.26926647 99.2801645,2.26926647 C99.2796078,2.26926647 99.2796078,2.26926647 99.2796078,2.26926647 C99.1760588,2.27753369 99.0368799,2.28188164 98.8732056,2.28427552 C98.7891416,2.28536111 98.7084179,2.28579535 98.6315911,2.28579535 C98.6043121,2.28579535 98.5803733,2.28644671 98.5519808,2.28644671 C98.5235884,2.28644671 98.4996496,2.28579535 98.4723705,2.28579535 C98.3955438,2.28579535 98.3148201,2.28536111 98.2307561,2.28427552 C98.0670818,2.28188164 97.9279029,2.27753369 97.8243539,2.26926647 C97.8243539,2.26926647 97.8243539,2.26926647 97.8237971,2.26926647 C97.8187867,2.26926647 97.8132195,2.27818505 97.8076524,2.27927065 C96.7487798,2.26361581 95.2868452,2.22686146 93.6745975,2.22686146 C89.6345141,2.22686146 84.6513549,2.45454691 82.7173257,3.79958237 C79.5162123,6.02711189 78.6811393,10.341656 78.2636028,12.0118021 C77.8460663,13.6812801 74.2274164,32.7494494 74.0882375,33.1663179 C73.9490587,33.5845225 71.7221972,41.7960741 71.5830184,42.770326 C71.4438396,43.7439098 71.8613761,45.8315925 73.9490587,47.2240489 C74.8108541,47.7990246 75.7199703,48.0173683 76.6970057,48.0173683 C78.0854539,48.0173683 79.6097405,47.575225 81.3255373,47.0848701 C83.2133591,46.5459696 84.9848274,46.2384957 86.6777988,46.2384957 C87.6058433,46.2384957 88.5105058,46.3309105 89.3979101,46.5274867 C91.9031292,47.0848701 94.4083484,49.3110635 95.3826003,50.8420307 C96.3568521,52.3736661 95.3826003,55.018064 95.1042426,56.1313834 C94.8258849,57.2442574 92.7382023,58.9144035 91.9031292,59.7500333 C91.0680562,60.5851063 81.7430738,67.1259552 81.3255373,67.6832273 C80.9080008,68.2393859 78.1244239,69.909532 77.7068874,71.4404993 C77.2893509,72.9720232 77.7068874,74.5024338 78.6811393,75.198328 C79.6553912,75.8942222 81.8822527,76.4514943 84.1091141,76.4514943 C86.3359756,76.4514943 88.3696568,75.4555305 89.3979101,75.198328 C90.8275551,74.8414734 96.4030595,74.6883767 98.6783552,74.6516335 C100.896866,74.6883767 106.276407,74.8414734 107.706052,75.198328 C108.735418,75.4555305 110.768543,76.4514943 112.994848,76.4514943 C115.222266,76.4514943 117.44857,75.8942222 118.422822,75.198328 C119.397074,74.5024338 119.815167,72.9720232 119.397074,71.4404993 C118.980094,69.909532 116.196518,68.2393859 115.778424,67.6832273 C115.361445,67.1259552 106.035905,60.5851063 105.201389,59.7500333 C104.366316,58.9144035 102.278077,57.2442574 102.000276,56.1313834 C101.721918,55.018064 100.747666,52.3736661 101.721918,50.8420307 C102.69617,49.3110635 105.201389,47.0848701 107.706052,46.5274867 C108.593456,46.3309105 109.497562,46.2384957 110.426163,46.2384957 C112.119134,46.2384957 113.890603,46.5459696 115.778424,47.0848701 C117.494778,47.575225 119.018508,48.0173683 120.406956,48.0173683 C121.383435,48.0173683 122.293108,47.7990246 123.15546,47.2240489 C125.243142,45.8315925 125.660122,43.7439098 125.520943,42.770326 L125.520943,42.770326 Z M124.391368,49.0772987 C123.212245,49.8627684 121.908974,50.2442298 120.406956,50.2442298 C118.730686,50.2442298 117.041612,49.7621143 115.253999,49.2510496 L115.166594,49.2258304 C113.375084,48.7143203 111.824075,48.4653572 110.426163,48.4653572 C109.63674,48.4653572 108.90466,48.5427406 108.188724,48.7019612 C106.339872,49.1129285 104.302294,50.9351135 103.600832,52.0378553 C103.463881,52.2616549 103.421013,52.9542645 103.99443,54.9813208 C104.050102,55.1776743 104.099649,55.3557676 104.14029,55.5105901 C104.390255,55.9693793 105.51315,56.998746 105.999162,57.444675 C106.279747,57.7024342 106.545857,57.9462755 106.762976,58.1628378 C107.206678,58.5658997 109.834374,60.4771036 111.756156,61.8744591 C116.346274,65.2130812 117.115098,65.8070965 117.480303,66.2452315 C117.589976,66.3443268 117.856086,66.5542085 118.05539,66.7106455 C119.324145,67.7099496 121.061653,69.0789127 121.545439,70.8559481 C122.20793,73.2821137 121.473066,75.7561568 119.717186,77.0104365 C118.298675,78.0242152 115.659844,78.6783557 112.994848,78.6783557 C110.983992,78.6783557 109.183574,78.0481539 107.993317,77.6311741 C107.657617,77.5137072 107.341403,77.4023641 107.166038,77.3589403 C106.340429,77.1523989 102.6945,76.9464142 98.6772418,76.8790517 C94.5814868,76.9464142 90.7468314,77.1568526 89.9373673,77.3589403 C89.7631154,77.4023641 89.4474577,77.5137072 89.1128718,77.6306174 C87.9209442,78.0481539 86.1210834,78.6783557 84.1091141,78.6783557 C81.4441177,78.6783557 78.8052868,78.0242152 77.3867761,77.0104365 C75.6308958,75.7567135 74.8960315,73.2826704 75.5579661,70.8553914 C76.0423085,69.0789127 77.7792604,67.7105063 79.047458,66.7117589 C79.2467621,66.5547652 79.5123153,66.3454402 79.6231017,66.2463449 C79.9855234,65.8093233 80.74711,65.2203185 85.3483625,61.8744591 C87.270144,60.4765469 89.8989539,58.565343 90.3415426,58.1622811 C90.5586616,57.9457188 90.8242148,57.7024342 91.1053561,57.4452317 C91.5913686,56.998746 92.7142635,55.9688225 92.9642287,55.5102004 C93.0048689,55.3553222 93.0549733,55.1776743 93.1100881,54.9813208 C93.6829482,52.9542645 93.6400812,52.2616549 93.5036859,52.037243 C92.8022245,50.9351135 90.7640896,49.1129285 88.9141244,48.7015158 C88.1987452,48.5427406 87.4672212,48.4653572 86.6777988,48.4653572 C85.2798865,48.4653572 83.7288775,48.7143203 81.9373675,49.2258304 L81.85219,49.2503815 C80.0634636,49.7614462 78.3738324,50.2442298 76.6970057,50.2442298 C75.1949877,50.2442298 73.8922737,49.8627684 72.7137073,49.0772987 C70.0275557,47.2857887 69.1022947,44.3891429 69.3784255,42.4552251 C69.539873,41.3243692 71.6158646,33.6880159 71.9398729,32.5806533 C72.0595667,32.0607368 72.8122459,28.1743626 73.5404296,24.41414 C74.8954748,17.4162835 75.8725103,12.3925954 76.1029904,11.4716211 C76.1313829,11.3591646 76.1614456,11.2334583 76.1942918,11.0975641 C76.7075833,8.96423081 77.7764768,4.52505486 81.4452311,1.9719916 C83.4059826,0.608473193 87.1771725,0 93.6745975,0 C94.9004848,0 96.0506587,0.0210942792 96.9748062,0.0378392753 L97.39958,0.0450156704 L97.8237971,0.0424060671 L97.9117582,0.0424060671 L97.9986058,0.0495824622 C98.0659683,0.0545842158 98.1550428,0.0563240069 98.2608187,0.0574112721 L98.4723705,0.0589333319 L98.5352794,0.0595858023 L98.5686823,0.0595858023 L98.6315911,0.0589333319 L98.8442564,0.0574112721 C98.9483622,0.0563240069 99.0379933,0.0545842158 99.1047992,0.0495824622 L99.1866364,0.0428409732 L99.2690302,0.0424060671 L100.06402,0.0389265961 L100.129155,0.0378392753 C101.053303,0.0210942792 102.203477,0 103.429364,0 C109.926232,0 113.697979,0.608473193 115.658174,1.97134024 C119.326371,4.5239637 120.395822,8.96200395 120.90967,11.0947248 C120.941959,11.2317325 120.972579,11.3581069 121.000971,11.4711758 C121.230895,12.3919273 122.206817,17.4079884 123.559635,24.3941539 C124.289489,28.1637293 125.043838,32.0596234 125.164089,32.5806533 C125.488654,33.6919129 127.562419,41.3128452 127.725536,42.4556148 C128.001667,44.3891429 127.076406,47.286234 124.391368,49.0772987 L124.391368,49.0772987 Z" id="path20" fill="#CCB567"></path>
                        <path d="M195.40598,179.165479 C192.528875,176.474874 196.333468,179.536808 189.374526,174.062069 C187.118715,172.287261 185.363948,171.499509 183.2501,170.165062 C181.486982,169.051631 180.693106,168.251074 179.817393,166.500205 C179.399856,165.665132 179.765062,164.806676 179.817393,164.227136 C179.828527,164.113009 180.144185,163.572995 180.977031,161.350587 C181.886704,158.924422 183.205006,156.341819 182.786356,154.994568 C181.951283,152.303963 177.175778,152.746552 177.961861,152.628528 C178.006954,152.621847 178.024769,152.617394 178.019202,152.617394 C177.973552,152.617394 176.472647,152.863462 174.992341,153.974109 C171.870838,156.316767 169.522056,166.788026 169.564366,167.659843 C169.60779,168.551701 169.524839,169.79763 170.075431,170.953928 C170.698395,172.262765 171.981067,173.456363 172.347943,173.876683 C173.322195,174.989557 177.23145,177.947943 179.028527,179.0263 C180.31621,179.799021 181.905632,181.253162 182.044811,181.670698 C182.617671,183.392062 181.965201,185.208624 176.84843,186.588165 C173.355041,187.530128 169.110086,187.703823 168.287818,187.703823 C168.235486,187.703823 168.19596,187.702709 168.172578,187.701596 C162.187887,187.377031 155.507303,184.918019 151.192759,182.134442 C143.834095,177.386217 141.307721,176.505493 140.223796,176.505493 C140.04008,176.505493 139.897561,176.531102 139.780094,176.567289 C136.161444,177.680719 134.21294,178.79415 131.568542,179.907581 C124.757687,182.775222 118.348779,185.193036 109.856643,186.448986 C106.706191,186.914957 104.507165,187.241749 99.0513545,187.51621 C95.486706,187.241749 92.6441174,186.914957 89.4908815,186.448986 C80.9987454,185.193036 74.5903948,182.775222 67.7789823,179.907581 C65.1345843,178.79415 63.1860805,177.680719 59.5674307,176.567289 C59.4499637,176.531102 59.3074446,176.505493 59.1237285,176.505493 C58.0398037,176.505493 55.5134294,177.386774 48.1545987,182.134442 C43.8400546,184.918019 37.1594702,187.377031 31.17478,187.701596 C31.1515093,187.702709 31.1125392,187.703823 31.0594843,187.703823 C30.236826,187.703823 25.9927621,187.530128 22.4991504,186.588165 C17.3829919,185.208624 16.7292967,183.392062 17.3032146,181.670698 C17.4423934,181.253162 19.0314261,179.799021 20.3188304,179.0263 C22.1161859,177.947943 26.0251629,174.989557 26.9994148,173.876683 C27.3669026,173.456363 28.6490737,172.262765 29.272595,170.953928 C29.8231864,169.79763 29.7394565,168.551701 29.7829916,167.659843 C29.8253576,166.788026 27.4774106,156.316767 24.3550168,153.974109 C22.8747106,152.863462 21.3741957,152.617394 21.3287121,152.617394 C21.3226439,152.617394 21.3406814,152.621847 21.3857197,152.628528 C22.1718575,152.746552 17.3960747,152.303963 16.5610017,154.994568 C16.1430198,156.341819 17.4608764,158.924422 18.3703266,161.350587 C19.2038409,163.572995 19.5196098,164.113009 19.5300761,164.227136 C19.5826857,164.806676 19.9476126,165.665132 19.5300761,166.500205 C18.6547525,168.251074 17.8603197,169.051631 16.0973134,170.165062 C13.9840219,171.499509 12.2294778,172.287261 9.97305473,174.062069 C3.01409039,179.536808 6.81826009,176.474874 3.94202356,179.165479 C3.07454968,179.97717 1.99351978,181.670142 2.27187747,183.433816 C2.51457196,184.97035 3.3853082,186.078214 3.94202356,186.820315 C4.90214045,188.100761 7.28016683,189.877796 9.37002064,191.274038 C11.2749893,192.54669 14.0524979,193.569933 15.0763531,194.057615 C18.4851213,195.68044 24.6255248,197.268193 31.2341259,197.268193 C32.1809874,197.268193 33.1382594,197.235346 34.0975357,197.165757 C39.0053157,196.808903 41.3296023,196.038965 42.7266238,195.495611 C45.231843,194.521359 47.7370621,193.547107 50.1031024,192.01614 C50.4727614,191.776752 57.1679874,186.783016 59.4271384,186.783016 C59.5913694,186.783016 59.7322184,186.809738 59.8457883,186.866523 C72.2148903,193.051074 80.8111323,194.625465 86.2897682,195.63479 C95.5902551,197.34836 96.8796079,197.010433 99.1738319,197.102848 L99.2072348,197.165757 C99.3703524,197.150726 99.5245626,197.139591 99.6737623,197.129014 C99.8235187,197.139591 99.9777289,197.150726 100.140846,197.165757 L100.163115,197.102848 C102.46402,197.009877 103.742795,197.350587 113.057756,195.63479 C118.536949,194.625465 127.132634,193.051074 139.501736,186.866523 C139.614749,186.809738 139.755598,186.783016 139.920386,186.783016 C142.180094,186.783016 148.874596,191.776752 149.244255,192.01614 C151.610295,193.547107 154.115515,194.521359 156.620734,195.495611 C158.018089,196.038965 160.342376,196.808903 165.249822,197.165757 C166.209599,197.235346 167.166593,197.268193 168.113566,197.268193 C174.72122,197.268193 180.862904,195.68044 184.271116,194.057615 C185.294915,193.569933 188.072368,192.54669 189.978005,191.274038 C192.067358,189.877796 194.445646,188.100761 195.40598,186.820315 C195.962695,186.078214 196.832841,184.97035 197.076126,183.433816 C197.353927,181.670142 196.273342,179.97717 195.40598,179.165479 Z M199.275708,183.780093 C198.954484,185.806537 197.888374,187.224491 197.252048,188.071255 L197.186912,188.156432 C195.971603,189.777587 193.268193,191.753927 191.215583,193.125674 C189.61614,194.19401 187.564644,195.064713 186.207929,195.64147 C185.797629,195.815722 185.443558,195.966035 185.228666,196.068471 C181.908972,197.648986 175.43493,199.495054 168.113566,199.495054 C167.09422,199.495054 166.076544,199.458868 165.088374,199.386495 C160.067359,199.021846 157.49422,198.22463 155.813496,197.571046 C153.246482,196.572298 150.591506,195.540148 148.034513,193.88559 C147.983852,193.852744 147.832982,193.746968 147.603058,193.582737 C142.631033,190.024769 140.699788,189.233677 140.096865,189.057754 C127.684339,195.204449 118.818647,196.837852 113.499232,197.817671 L113.461375,197.824908 C106.127764,199.176056 103.586358,199.283502 101.743073,199.304101 L101.658453,199.541262 L99.9370887,199.383154 C99.8469008,199.374804 99.7594965,199.367566 99.6737623,199.361442 C99.5885848,199.367566 99.5011805,199.374804 99.4104359,199.383154 L97.9284596,199.518993 L97.8160031,199.305771 C95.9510066,199.289626 93.5042426,199.228388 85.8861496,197.824908 L85.8477362,197.817671 C80.5283209,196.837852 71.6626287,195.204449 59.2506596,189.057754 C58.6471802,189.233677 56.7153778,190.025326 51.7427962,193.58385 C51.5144316,193.747525 51.3641741,193.852744 51.3128449,193.88559 C48.7558513,195.540148 46.1012654,196.572298 43.5336384,197.571046 C41.8539168,198.22463 39.2812795,199.021846 34.2590945,199.386495 C33.2713701,199.458868 32.2540284,199.495054 31.2341259,199.495054 C23.9133188,199.495054 17.4386634,197.648986 14.1188027,196.067914 C13.9041889,195.966035 13.5499509,195.815722 13.1399858,195.64147 C11.7827694,195.06527 9.73166294,194.19401 8.13283209,193.125674 C6.07927612,191.753927 3.3761725,189.778144 2.16031727,188.155876 L2.09529292,188.069585 C1.45811548,187.222821 0.392092962,185.805423 0.0721993023,183.78065 C-0.338595955,181.179675 1.08059566,178.793037 2.42084336,177.539314 C3.29875566,176.718158 3.4596798,176.519411 3.52035621,176.444811 C3.85199155,176.036739 3.85199155,176.036739 6.12887946,174.250239 C6.74755724,173.764783 7.55022946,173.134582 8.59624196,172.311756 C10.2381069,171.020177 11.6379677,170.209599 12.9912314,169.426301 C13.6112453,169.067776 14.2528041,168.69589 14.9082251,168.28225 C16.3546273,167.368681 16.8552257,166.851492 17.5002362,165.579954 C17.4930545,165.474178 17.4539174,165.278771 17.4264714,165.142933 C17.4049822,165.03493 17.3819342,164.91969 17.36128,164.797769 C17.1933747,164.417532 16.8497699,163.637574 16.2854276,162.132216 C16.0973134,161.630615 15.8829224,161.102292 15.6754345,160.591228 C14.7073065,158.206816 13.8715654,156.147526 14.4341263,154.334304 C14.8738758,152.91802 16.0801666,151.24509 19.2419202,150.647735 L19.2608485,150.391089 L21.3287121,150.390532 C21.9428248,150.390532 23.8941678,150.844255 25.6913007,152.19262 C29.662073,155.171604 32.0683082,166.511896 32.0072365,167.767845 C32.0007229,167.905911 31.997661,168.05344 31.9941537,168.208207 C31.9734995,169.131241 31.9424348,170.526927 31.2830612,171.911478 C30.6230194,173.297699 29.5039659,174.470698 28.9024349,175.101457 C28.8074036,175.201109 28.7284614,175.282389 28.6751837,175.343071 C27.4717321,176.718158 23.2989834,179.835208 21.464662,180.935834 C20.6513008,181.423517 19.7366731,182.229084 19.3595541,182.622682 C19.3584964,182.649961 19.3610573,182.672786 19.3693523,182.688374 C19.4173969,182.778005 19.9308555,183.589696 23.0786911,184.437574 C26.2454552,185.291575 30.2402776,185.476961 31.0594843,185.476961 L31.0793033,185.476961 C36.9632837,185.150726 43.2863455,182.624908 46.9474171,180.263322 C55.0991775,175.004032 57.6172567,174.278632 59.1237285,174.278632 C59.5134293,174.278632 59.8725107,174.330963 60.2221279,174.438966 C62.9144034,175.267358 64.7326358,176.096864 66.4907429,176.899091 C67.2133595,177.229223 67.8958925,177.540427 68.6430045,177.854971 C74.9316613,180.502709 81.2837836,182.98399 89.81656,184.246064 C92.9915078,184.715375 95.7706309,185.027135 99.0808604,185.284894 C104.308974,185.018228 106.381626,184.711478 109.504242,184.249961 C118.065411,182.98399 124.41642,180.502709 130.70452,177.854971 C131.451632,177.540427 132.134722,177.229223 132.857338,176.899091 C134.614889,176.096864 136.433121,175.267358 139.12484,174.438966 C139.47056,174.332633 139.840219,174.278632 140.223796,174.278632 C141.730825,174.278632 144.249405,175.004032 152.400275,180.263322 C156.061235,182.625465 162.384965,185.151839 168.268333,185.476961 L168.287818,185.476961 C169.107303,185.476961 173.102849,185.291575 176.268889,184.43813 C179.416558,183.589696 179.929849,182.778005 179.978284,182.688374 C179.986634,182.672786 179.989418,182.649404 179.988304,182.622682 C179.610851,182.229084 178.696168,181.423517 177.882807,180.935277 C176.04843,179.835208 171.875848,176.718158 170.67223,175.343071 C170.617671,175.280719 170.538618,175.199439 170.442863,175.09923 C169.842167,174.469028 168.723726,173.295472 168.065131,171.910921 C167.405424,170.52637 167.374248,169.130685 167.353649,168.207094 C167.350309,168.052884 167.346969,167.905911 167.340288,167.768402 C167.279049,166.512452 169.68573,155.17216 173.656224,152.19262 C175.453301,150.844255 177.404588,150.390532 178.019202,150.390532 L180.086286,150.390532 L180.105215,150.647735 C183.267358,151.244533 184.47376,152.91802 184.913565,154.334304 C185.476405,156.146969 184.640218,158.206259 183.672647,160.590671 C183.464992,161.101736 183.2501,161.630615 183.06193,162.132216 C182.498534,163.637574 182.155041,164.416976 181.986356,164.798326 C181.965757,164.91969 181.942932,165.035486 181.92122,165.143489 C181.893941,165.279328 181.854414,165.474178 181.847734,165.579954 C182.492967,166.852049 182.993454,167.369237 184.439244,168.28225 C185.094498,168.69589 185.735277,169.066662 186.354901,169.425187 C187.70939,170.209599 189.109529,171.01962 190.751839,172.311756 C191.792897,173.131241 192.592897,173.759216 193.210851,174.243559 C195.495054,176.036739 195.495054,176.036739 195.826857,176.444811 C195.887539,176.519411 196.048429,176.717602 196.927483,177.539314 C198.26694,178.793037 199.686008,181.179119 199.275708,183.780093 L199.275708,183.780093 Z" id="path22" fill="#CCB567"></path>
                        <path d="M110.158383,15.5195542 C109.111201,14.9962975 103.023519,15.0495751 100.071814,15.108754 C100.06402,15.1344185 100.060123,15.1476684 100.060123,15.1476684 C100.060123,15.1476684 99.7606099,15.1387609 99.2634631,15.1265689 C98.766873,15.1387609 98.4673601,15.1476684 98.4673601,15.1476684 C98.4673601,15.1476684 98.4629064,15.1344185 98.4556691,15.108754 C95.5039642,15.0495751 89.415725,14.9962975 88.3685434,15.5195542 C86.9773117,16.2154484 85.6317306,22.8960328 85.6317306,22.8960328 C84.9358364,21.7826021 84.2399422,15.6587331 84.9358364,13.988587 C85.6317306,12.3184409 86.3276248,12.179262 87.4410556,11.9009044 C88.4030597,11.6610157 96.4604012,11.4537506 99.2634631,11.4922753 C102.065968,11.4537506 110.123866,11.6610157 111.085871,11.9009044 C112.199301,12.179262 112.895196,12.3184409 113.59109,13.988587 C114.286984,15.6587331 113.59109,21.7826021 112.895196,22.8960328 C112.895196,22.8960328 111.550171,16.2154484 110.158383,15.5195542 Z M117.493664,39.0518571 C115.346413,40.1955174 112.040637,38.7363108 111.080303,38.2252461 C110.50299,37.9190526 111.213358,35.3731933 111.27404,32.5321634 C111.321918,30.2792477 111.259009,28.1141259 110.859844,26.4746549 C109.721918,21.7925673 120.621848,37.3851626 117.493664,39.0518571 L117.493664,39.0518571 Z M86.8843402,26.4746549 C86.485732,28.1141259 86.4222665,30.2792477 86.470144,32.5321634 C86.530826,35.3731933 87.240638,37.9190526 86.6633242,38.2252461 C85.7035469,38.7363108 82.3977711,40.1955174 80.2505199,39.0518571 C77.1217796,37.3851626 88.0222664,21.7925673 86.8843402,26.4746549 L86.8843402,26.4746549 Z" id="path24" fill="#FFFFFF"></path>
                    </g>
                </g>
            </g>
        </g>
    </g>
</svg>