<?xml version="1.0" encoding="UTF-8"?>
<svg width="200px" height="200px" viewBox="0 0 200 200" version="1.1" xmlns="http://www.w3.org/2000/svg" xmlns:xlink="http://www.w3.org/1999/xlink">
    <!-- Generator: Sketch 54.1 (76490) - https://sketchapp.com -->
    <title>umass-boston</title>
    <desc>Created with Sketch.</desc>
    <g id="umass-boston" stroke="none" stroke-width="1" fill="none" fill-rule="evenodd">
        <g id="umass-boston_BGL">
            <g id="umass-boston" transform="translate(0.000000, 35.000000)">
                <g id="g10" transform="translate(99.999998, 65.319302) scale(-1, 1) rotate(-180.000000) translate(-99.999998, -65.319302) translate(0.000000, 0.056145)">
                    <g id="g12">
                        <path d="M51.2878584,5.22094022 L44.1554375,0 L79.4049103,102.583857 L14.146947,87.5501732 L33.44435,103.861752 L0,114.496137 L45.0090515,121.056137 L41.6475077,128.042804 L88.4210504,124.792278 C92.1319275,126.456839 99.6119273,130.05333 99.6119273,130.05333 L110.178243,124.794383 L156.828066,128.042804 L153.465961,121.056137 L199.543855,114.496137 L165.027364,103.861752 L183.951574,87.8898224 L119.720699,101.216138 L149.294031,1.66392277 L142.639996,5.7732981 L142.164207,6.07291915 L138.296137,8.46519277 L136.531225,9.54799976 L96.1894713,34.4764202 L51.2878584,5.22094022" id="path14" fill="#516FBF" fill-rule="nonzero"></path>
                        <polyline id="path16" fill="#231F20" points="99.3256116 121.627365 152.860347 125.349471 149.867365 119.148067 188.819644 113.475085 159.884908 104.847015 177.068066 91.2884188 111.127717 106.942453 107.483506 109.59719 99.3256116 121.627365"></polyline>
                        <polyline id="path18" fill="#FFFFFF" points="111.210524 117.358594 144.510172 119.944558 141.614733 115.548769 166.395084 112.198594 148.277189 107.611225 158.078593 101.227366 113.163506 111.479997 111.210524 117.358594"></polyline>
                        <polyline id="path20" fill="#231F20" points="99.15298 121.627365 90.9929802 109.59719 87.345261 106.942453 21.4059644 91.2884188 38.5803499 104.847015 9.64610502 113.475085 48.5995076 119.148067 45.6151568 125.349471 99.15298 121.627365"></polyline>
                        <path d="M112.962102,109.291927 C114.004909,105.539646 121.985962,77.4357875 140.805611,10.5767717 L96.6554362,41.2294727 L52.0962092,9.14750854 L85.9543838,110.433681 C86.0273663,110.511576 86.1473663,110.614032 86.2877171,110.722804 C86.5221031,110.903857 86.7761382,111.063857 87.0021031,111.193681 L88.1270153,111.811225 L88.3115767,112.451225 C88.8385943,114.204909 89.0252609,115.843506 89.2596469,117.180348 C89.3333311,117.652629 89.2371908,118.056839 89.1501732,118.325611 C89.0806995,118.538243 88.9768399,118.757892 88.8743837,118.974032 C89.2035065,119.167716 89.6147346,119.414734 90.0799977,119.694032 C91.2231556,120.371927 92.7256117,121.206313 94.1866643,122.014734 C96.2463134,123.159997 98.2470151,124.247014 99.1915765,124.75719 L104.225261,122.084909 L108.32491,119.916488 L109.381752,119.362102 C109.08912,118.644208 108.997892,117.608418 109.395787,115.91298 C109.834383,114.189471 110.621752,112.456138 110.970524,111.287717 L111.127717,110.784559 L112.205611,109.905962 L112.962102,109.291927" id="path22" fill="#FFFFFF" fill-rule="nonzero"></path>
                        <polyline id="path24" fill="#516FBF" points="98.2919274 111.914383 112.651927 107.731927 135.038593 20.1479995 97.5199976 44.1124199 95.8533309 43.6590165 98.2919274 111.914383"></polyline>
                        <path d="M110.209822,117.482804 C110.665962,115.781751 111.897541,112.699646 112.262453,111.550874 L112.92912,111.027366 L114.119997,110.059646 C114.119997,110.059646 123.589471,76.9508753 143.90947,7.82814016 L139.562102,10.5115085 L130.814032,20.7423153 L110.970524,104.859647 C105.775436,111.640699 93.7150854,113.722804 87.5642083,104.859647 L63.6030861,19.2447714 L49.5858233,7.18940333 L84.7670154,111.009822 C84.9936821,111.355085 85.3298224,111.640699 85.6028049,111.848418 C85.8842084,112.061752 86.1992961,112.256839 86.4729803,112.413331 L87.0435066,112.731927 C87.5719276,114.404208 87.7621031,115.983857 88.0042083,117.263155 C88.1382434,117.995085 86.3922785,121.486313 86.9599978,121.577541 C87.865261,121.732629 99.598594,127.365611 99.598594,127.365611 L111.828067,121.278593 C112.52912,120.53333 109.367015,120.862453 110.209822,117.482804" id="path26" fill="#231F20" fill-rule="nonzero"></path>
                        <path d="M88.1087697,101.620348 L91.2799977,102.563506 L90.087717,95.6666643 L86.3501733,94.7178924 L88.1087697,101.620348 Z M83.7389453,78.7796472 L88.6252609,80.0357875 L86.3375417,66.3911562 L80.3508752,65.0018931 L83.7389453,78.7796472 L83.7389453,78.7796472 Z" id="path28" fill="#231F20" fill-rule="nonzero"></path>
                        <path d="M105.868769,110.658945 C106.874383,110.433681 111.388769,105.682804 111.856138,105.371225 L135.038593,15.0238593 L119.069471,27.3832274 L105.868769,110.658945" id="path30" fill="#231F20"></path>
                        <path d="M96.107366,114.352278 L96.6006993,119.992278 C99.4954361,121.524909 101.735436,120.758593 102.532629,119.802804 L102.835085,114.070874 C99.9508747,115.048418 97.5410502,114.60912 96.107366,114.352278 L96.107366,114.352278 Z M94.4287696,119.167716 L93.413331,113.867366 C93.1171907,113.584559 90.9263135,111.914383 90.6217521,111.774032 L92.1719275,117.34526 C92.3235065,117.516488 92.7817521,118.544558 94.4287696,119.167716 L94.4287696,119.167716 Z M106.46526,117.067365 L107.665962,112.190874 C107.283506,112.56912 105.88491,113.776138 105.130524,113.937541 L104.436489,119.398594 C106.007717,118.864558 106.397892,117.207716 106.46526,117.067365 L106.46526,117.067365 Z" id="path32" fill="#FFFFFF" fill-rule="nonzero"></path>
                        <polyline id="path34" fill="#FFFFFF" fill-rule="nonzero" points="85.3143838 75.9796472 90.2126293 77.2428051 87.9206996 63.5967703 81.9403488 62.2089107 85.3143838 75.9796472"></polyline>
                        <polyline id="path36" fill="#FFFFFF" fill-rule="nonzero" points="89.1635065 99.4133308 92.3298223 100.355787 91.1424539 93.4659626 87.4028048 92.5164889 89.1635065 99.4133308"></polyline>
                        <polyline id="path38" fill="#FFFFFF" points="87.2694715 117.358594 85.3010505 111.479997 40.393613 101.227366 50.194104 107.611225 32.0901746 112.198594 56.8607705 115.548769 53.9687706 119.944558 87.2694715 117.358594"></polyline>
                        <polyline id="path40" fill="#231F20" points="49.4350163 6.88487 56.3687003 21.3544556 96.1550853 49.6856128 139.864558 17.1327013 143.421049 8.12996471 96.1550853 37.331157 49.4350163 6.88487"></polyline>
                        <polyline id="path42" fill="#231F20" fill-rule="nonzero" points="158.226663 15.1143154 163.963505 15.1143154 163.963505 14.2667365 161.572628 14.2667365 161.572628 8.04715769 160.619645 8.04715769 160.619645 14.2667365 158.226663 14.2667365 158.226663 15.1143154"></polyline>
                        <path d="M170.667364,8.04715769 L170.667364,12.220912 C170.667364,12.4251927 170.687715,13.322947 170.687715,13.9816137 L170.667364,13.9816137 L168.679996,8.04715769 L167.734031,8.04715769 L165.746663,13.9725611 L165.727715,13.9725611 C165.727715,13.322947 165.746663,12.4251927 165.746663,12.220912 L165.746663,8.04715769 L164.820347,8.04715769 L164.820347,15.1143154 L166.18947,15.1143154 L168.208417,9.14119275 L168.229469,9.14119275 L170.235785,15.1143154 L171.596487,15.1143154 L171.596487,8.04715769 L170.667364,8.04715769" id="path44" fill="#231F20" fill-rule="nonzero"></path>
                    </g>
                </g>
            </g>
        </g>
    </g>
</svg>