<?xml version="1.0" encoding="UTF-8"?>
<svg width="200px" height="200px" viewBox="0 0 200 200" version="1.1" xmlns="http://www.w3.org/2000/svg" xmlns:xlink="http://www.w3.org/1999/xlink">
    <title>sc-aiken_BGL</title>
    <defs>
        <polygon id="path-1" points="0 0.0160374206 199.989308 0.0160374206 199.989308 137.516873 0 137.516873"></polygon>
    </defs>
    <g id="sc-aiken_BGL" stroke="none" stroke-width="1" fill="none" fill-rule="evenodd">
        <g id="sc-aiken" transform="translate(0.000000, 31.000000)">
            <g id="Group-4">
                <mask id="mask-2" fill="white">
                    <use xlink:href="#path-1"></use>
                </mask>
                <g id="Clip-2"></g>
                <path d="M68.6976278,61.6619445 C76.4209823,56.4889409 84.9722686,53.008286 94.1216171,51.3854995 C83.9592382,41.8836619 93.8770464,27.2637487 93.8770464,27.2637487 L94.5218844,30.1745406 L94.8072168,28.2115603 C95.5663214,28.8197127 96.3735383,29.6626796 97.2682927,30.0600735 C95.5890411,28.0277982 94.9836285,26.5274307 95.0998998,23.9067157 C92.0380889,20.7759439 90.1029068,16.5482793 88.0514534,12.7375209 C91.3879051,14.264016 94.7971935,16.12429 98.2866689,17.2717006 C95.440695,14.6005346 93.4353491,10.8708319 91.3618443,7.61904444 L95.7347143,9.75623121 C100.815236,12.2297361 108.609422,13.911126 114.009355,11.6786502 C113.641831,7.80694955 114.493819,4.22799866 115.706649,0.589375209 C119.659205,3.33451387 121.756766,4.45379218 126.670899,4.12702974 C124.827264,3.30170398 123.013699,2.40701637 121.189442,1.5396592 C129.349148,0.474707651 143.695957,-2.83000334 149.007685,5.71506849 C152.265286,3.87063147 152.342132,3.23762112 156.33144,2.01817574 C156.199131,3.57086535 156.122285,5.04089542 156.327431,6.59411961 C156.680254,9.26134313 157.192783,11.4612095 155.881724,13.9975944 C162.993652,16.4789175 161.216839,20.5017708 164.117608,25.5960575 C166.182426,29.2208486 169.246909,30.0149683 172.433679,32.0773137 C173.965252,33.0677581 175.101236,34.3198129 175.499499,36.1466756 C175.953892,38.2293351 175.256933,40.8540595 175.059806,42.979285 C174.903441,44.660274 175.327097,46.5150685 174.900768,48.1481457 C174.613431,49.2518543 174.056799,50.1693953 172.937521,50.5902439 C171.097895,56.369863 162.266622,56.560441 157.355162,56.140127 C159.25426,59.5175409 160.725025,63.3897093 161.475443,67.1907785 C174.82125,65.832008 187.70999,64.1210157 199.989308,63.4231206 L181.290344,98.8680254 C181.290344,98.727698 175.987972,99.0076846 175.848313,99.2863348 L169.708654,110.729034 C126.622787,116.753759 55.0363515,127.250919 12.7210157,137.52155 C7.90684932,132.21851 2.8138991,109.752088 18.5824257,99.9839626 L10.0701637,97.8215837 C17.8342132,95.1466756 24.4313398,92.8733712 32.3191447,90.5880388 L32.3074507,89.272302 C21.4807217,92.3742065 10.7436017,95.8730371 0,99.2529235 C10.1762112,93.210157 21.7687939,87.6792516 32.9305045,83.8556632 C33.4108921,81.7547611 34.1919813,79.7266956 35.2725693,77.8616772 C27.4016706,80.1944537 19.603408,82.8513197 11.7987972,85.4019379 C18.173271,81.177414 25.2181757,77.5489475 32.2702305,74.6281323 C34.0890745,73.87571 35.928433,73.1720682 37.7911794,72.5365854 C38.7264952,72.2171734 39.7090545,72.0287337 40.6143,71.6318076 C40.7189442,71.5857 41.8251921,70.6648847 42.0314066,70.5105246 C34.4483796,61.9308386 39.6364183,50.251988 51.0090879,49.8355496 C56.7040428,49.6267959 61.4239225,51.8509188 63.0912128,57.615436 C65.2877381,58.0107584 69.6298029,58.269295 68.6976278,61.6619445" id="Fill-1" fill="#979591" mask="url(#mask-2)"></path>
                <path d="M38.7696625,75.6966255 C34.9366522,76.6221183 25.9152021,79.5589709 23.0567992,80.6308052 C28.6924825,77.6678917 35.2475777,75.079853 41.4664217,73.0163715 C42.4286001,72.1944537 43.3901103,71.4874708 44.2869362,70.8666889 C35.9080521,63.001136 40.6960909,51.6296692 51.2125626,51.3732041 C56.7591714,51.2376879 60.8735717,53.2543936 62.1564985,58.9821584 C63.1238891,59.1391914 66.1406615,59.6989642 66.77287,59.9228199 C68.8245907,60.7776144 67.1146007,63.8559973 62.4123622,64.9672569 C62.2787838,64.9986635 63.0491814,66.2737721 62.6690277,67.7881724 C62.7652523,67.7594387 62.9798864,67.7467424 63.2860675,67.7527564 C76.9401938,56.2364851 90.1710658,53.4008687 97.8088874,52.3995322 C97.9779485,52.3772803 88.4036084,48.8080855 92.2766455,33.4674908 C92.3715336,33.0950217 93.0691614,31.1871701 93.405279,30.9736719 C93.9605747,34.5488807 95.9218176,40.0195122 100.582693,38.9311059 C97.597728,37.1716004 95.4567324,34.588707 95.9866355,30.9430672 C97.3351153,32.0230538 99.564985,32.1572335 101.204143,32.0413632 C99.4366856,30.5764784 96.5720013,27.731841 96.6167725,25.265553 C98.4283328,25.9245573 100.10558,26.6577347 101.998664,27.0805212 C96.4283328,24.4277314 94.1897761,21.100568 91.3611761,15.8512529 C95.8249248,17.8966923 99.2789843,19.90284 104.39559,19.6057467 C99.8182426,17.6394253 97.9051119,15.2294019 95.3043769,11.1556298 C100.864684,13.8732376 109.790845,15.7399265 115.660541,12.6642833 C115.168059,9.57674574 115.631808,5.88653525 116.607417,2.91620448 C122.306047,6.81069161 125.931841,5.66795857 132.427665,5.1730705 C130.322753,4.29462078 128.195122,3.44503842 126.134313,2.46521884 C133.206148,1.54106248 144.753091,-0.421917808 148.560641,7.60928834 C150.465753,7.1550284 152.449048,4.91921149 154.995657,4.10497828 C154.721684,8.02552623 156.984965,11.3565653 153.86435,14.9498831 C165.105914,17.6990311 157.722018,24.8943535 168.169729,31.3664551 C170.410959,32.7548279 173.720013,33.6481123 174.330104,36.5943201 C174.829268,39.0043435 173.575008,42.167591 173.823588,45.4528567 C173.921818,46.7494153 174.115603,49.5855663 171.985967,49.5778149 C170.93418,56.0543936 159.336452,55.376278 154.825259,54.5921818 C157.290344,58.0430337 159.568994,63.3897093 160.415636,68.485132 C172.172402,67.148012 184.528567,65.9164049 197.478116,64.8187771 L180.592716,97.4727698 C178.877381,97.6070832 177.094554,97.7460742 175.2429,97.8937521 L168.871367,109.612429 C124.472436,115.454728 75.556298,122.826595 41.6608754,129.68727 C29.2140996,132.328099 21.3393251,134.230538 14.0471099,135.846976 C9.01169395,130.811226 5.09488807,107.892416 22.4678249,99.3785499 L14.8148346,97.6812563 C20.1610424,95.7667892 26.4572001,93.7507518 33.6918142,91.6866021 C33.8017374,91.4660875 33.8698964,91.156699 33.8559973,90.7023054 C33.8234547,89.618443 33.8507183,88.588707 33.9320414,87.6104243 C28.018844,89.2549282 15.0283328,93.1787504 12.4590712,94.1683929 C17.9015703,91.2622787 27.5887738,87.4139659 34.2802539,85.0584698 C35.053859,81.0604744 36.772135,78.0380889 38.7696625,75.6966255 Z M72.2525894,70.0367524 C76.6742399,66.4622787 81.5268961,63.3192783 88.0614768,60.265152 C80.4089542,62.0231874 71.0050117,67.1580354 62.6492482,72.9094554 C59.4486468,75.4333445 56.3939191,78.3588373 54.375877,80.7844972 C59.1037087,76.0915469 64.7158035,72.0628132 70.8446375,69.3631808 C71.3371199,69.5656532 71.8108921,69.7895089 72.2525894,70.0367524 L72.2525894,70.0367524 Z" id="Fill-3" fill="#294354" mask="url(#mask-2)"></path>
            </g>
            <path d="M19.3103241,104.794521 C20.8418978,102.551955 23.7106582,100.94153 26.6554627,100.045439 L30.5827598,100.68159 C30.5827598,100.68159 23.0529235,101.987304 19.3103241,104.794521" id="Fill-5" fill="#979591"></path>
            <path d="M29.7455704,103.333111 C29.7697294,103.524891 15.5249582,125.035082 15.3829602,125.319746 L24.7842299,123.18276 L19.1675242,131.81557 L17.1869696,132.289342 C17.1869696,132.289342 15.6343468,130.276646 15.0937521,128.241898 C13.0004678,122.799198 12.2247912,109.628466 25.6986301,104.589375 C26.9003675,104.029402 28.2938189,103.788172 29.7455704,103.333111" id="Fill-6" fill="#979591"></path>
            <path d="M62.9575677,82.8199131 C62.399265,82.9595723 44.2920147,86.8693618 43.9791514,87.0070164 C46.2118276,86.0300702 59.6730371,81.8028734 65.1516204,80.1042432 L62.9575677,82.8199131" id="Fill-7" fill="#FFFFFE"></path>
            <path d="M59.7667224,58.7302372 C59.7667224,58.7302372 57.9994654,56.0276646 54.7771467,55.8194454 C50.9147344,55.5255596 45.5259606,57.7949883 47.795122,62.6854661 C55.1933846,62.6187103 61.846709,60.7356498 61.846709,60.7356498 C63.0439693,61.0178416 65.1620448,60.9274307 64.8392917,61.3340461 C62.8509856,63.4638156 52.1105246,65.3423989 47.12429,63.8702305 C47.6255931,67.1874374 46.0887404,68.9896425 45.6325426,68.7377213 C45.1239559,68.3635149 44.4080187,67.4119612 44.3070498,66.7141998 C46.2602072,64.8998329 43.5459405,63.2897427 42.7022386,63.644437 C42.6864016,63.6510525 42.30284,61.0047444 42.9522219,58.5979953 C44.4865352,52.9094554 57.9994654,49.5830939 59.7667224,58.7302372" id="Fill-8" fill="#979591"></path>
            <path d="M132.157701,3.20427665 C136.108253,3.78296024 144.345473,4.92950217 143.48012,9.66134313 C136.514534,3.64076178 128.346141,9.48125626 121.353157,7.25659873 C126.269963,10.2667558 138.509856,5.86896091 143.423989,11.5240895 C143.423989,11.5240895 148.124958,7.89929836 144.024724,5.38456398 C142.247912,4.29602406 137.896425,2.71460074 132.157701,3.20427665 Z M113.4427,15.5907117 C109.630471,16.7531574 104.102907,16.2381557 100.233879,14.5808219 C104.103575,17.0629469 109.487471,17.8587371 113.4427,15.5907117 Z M111.285667,20.637287 C104.630805,22.6362178 99.7848313,21.3847645 95.8783829,19.7413298 C100.289342,23.4006682 105.453391,25.3558303 111.285667,20.637287 Z M99.9218176,28.1297026 C101.081858,29.364985 103.950551,31.140127 108.557969,27.5937855 C108.557969,27.5937855 103.091881,29.6555964 99.9218176,28.1297026 Z M97.2682927,32.9603074 C98.3321083,34.5795523 101.62713,35.1941864 103.710658,35.1863682 C102.956899,35.7191447 101.46141,36.2146341 100.417641,36.232409 C101.381891,36.6558637 106.002673,38.4322753 108.196458,32.2814567 C106.251921,33.5023054 99.488139,33.9794186 97.2682927,32.9603074 Z M93.7180087,37.7848981 C93.9432008,41.1583027 97.5583027,43.4021383 101.667892,43.1246241 C99.7053124,44.1798864 97.0076846,44.6968259 94.6401604,44.0396258 C97.3270966,46.7933846 103.800869,44.2759105 104.853324,40.6525226 C100.589375,42.6010023 95.5643167,41.6701637 93.7180087,37.7848981 L93.7180087,37.7848981 Z" id="Fill-9" fill="#D42331"></path>
            <path d="M149.335115,46.1283662 C149.335115,46.1283662 146.379552,43.0291346 145.561644,46.6277982 C144.35015,44.0056131 146.233879,43.7177414 146.74574,43.5187437 C147.430672,43.2868694 150.132977,43.9599733 149.335115,46.1283662 Z M161.633812,28.5879051 C156.848647,28.6985633 150.616772,31.6106248 148.378216,35.8513197 C149.922486,34.3020381 150.865352,33.8727698 151.891747,33.2372202 C151.173405,33.8235216 147.713999,38.6705647 149.306382,42.6338122 C149.382559,33.9623789 156.966923,30.6267959 162.843969,30.0829268 L161.633812,28.5879051 Z M124.176412,27.9601737 C123.548948,26.0227865 123.349816,24.1816906 123.274975,22.4411627 C124.133645,24.3216839 125.040428,26.0202472 125.979285,27.5577013 C125.762112,27.5596392 125.542934,27.5765453 125.323755,27.6108253 C124.904778,27.6756432 124.51988,27.7959238 124.176412,27.9601737 Z M142.244571,44.5031073 C134.435015,40.5798864 129.848313,36.8843301 127.147344,33.4360842 C128.07551,33.2659539 128.826595,32.8208486 129.304377,32.2285332 C134.715002,38.7424658 140.558637,41.1655195 144.326762,42.8340127 C143.27698,42.6770464 139.567658,41.8424323 138.625459,41.4163047 C139.515536,42.1317073 141.323087,43.8708988 142.244571,44.5031073 Z M145.621116,50.9339793 L143.180087,50.2742399 C131.750752,60.7776144 98.4924825,46.0721684 73.869696,63.1718009 C88.2325426,56.6743067 96.7858336,56.1983294 103.622452,55.9903107 C115.671901,55.6231874 137.677247,58.8833278 145.621116,50.9339793 Z M124.137655,30.4887404 C123.836953,29.4781156 124.604076,28.5009689 125.847645,28.3064484 C126.623455,28.1861677 127.399265,28.3981958 127.945874,28.8203141 C127.530237,28.6797193 127.065152,28.632409 126.601403,28.7050451 C125.359171,28.8995657 124.594053,29.8766455 124.89275,30.8860007 C125.00568,31.2642833 125.250919,31.5929836 125.580354,31.8455062 C124.883395,31.6132977 124.324758,31.1197461 124.137655,30.4887404 Z M124.479786,33.1162045 C123.919813,36.4417641 123.505513,40.4245907 124.972937,43.6582025 C122.757768,40.5712663 122.176412,36.5007685 123.298363,32.301704 C123.622452,32.6357501 124.026729,32.9124624 124.479786,33.1162045 L124.479786,33.1162045 Z" id="Fill-10" fill="#979591"></path>
            <path d="M136.203141,25.7146007 C133.543602,25.8388239 131.890411,22.9163381 134.950885,22.2612763 C134.950885,22.2612763 134.93418,22.2729703 134.907451,22.2944871 C135.226194,22.2265286 135.568994,22.3927163 135.672569,22.6663548 C135.775476,22.9399933 135.601737,23.2168393 135.282325,23.2856666 C134.963582,23.3549616 134.620114,23.188707 134.51587,22.9151353 C134.495824,22.8600735 134.4858,22.8051453 134.486468,22.7520214 C134.052122,23.3830939 133.788841,24.5383228 136.203141,25.7146007" id="Fill-11" fill="#FFFFFE"></path>
            <path d="M50.8165052,73.5870364 C43.4209823,75.9044437 39.8151019,80.5820247 37.0791179,88.2766455 C37.2498496,76.9916472 44.6972269,74.476445 44.927698,74.3962579 C47.0227197,73.6638824 49.5871701,73.4634146 50.8165052,73.5870364" id="Fill-12" fill="#979591"></path>
            <path d="M47.4869362,72.3655195 L45.7700635,71.355162 C49.4235884,70.4390244 54.2294019,71.3384564 55.1469429,72.5512863 C52.9188774,72.1349816 49.7542265,71.9599064 47.4869362,72.3655195" id="Fill-13" fill="#979591"></path>
            <path d="M48.5825593,68.4991647 C49.3667224,67.695289 49.540127,66.7202138 49.8661544,65.7822252 C51.1351821,66.0767123 52.4273304,66.4249248 53.5950551,66.8947544 C54.4139659,66.7534247 56.3964584,66.1900434 56.9567658,65.6558637 L57.7938523,68.4470431 L56.0921483,68.7036418 L56.8827264,70.9435349 C56.8827264,70.9435349 52.0830605,68.6368192 48.5825593,68.4991647" id="Fill-14" fill="#FFFFFE"></path>
            <path d="M78.2358837,69.46141 C85.3123956,64.2840628 92.630137,59.8272636 95.5857,58.8113598 C96.2699632,58.8113598 103.280321,57.7000334 121.234881,58.3839626 C124.853324,58.3885065 133.631808,58.3839626 139.702639,56.6743067 C140.036752,57.3693953 140.120949,58.0978951 140.019379,58.8466422 C111.956565,62.6737721 88.5893752,67.2950217 78.2358837,69.46141" id="Fill-15" fill="#FFFFFE"></path>
            <path d="M151.158704,54.6222519 C153.650518,58.6771133 155.433344,67.9599064 153.039759,70.1830939 L156.288005,69.6698964 C157.656532,66.7626462 154.954227,58.285132 151.158704,54.6222519" id="Fill-16" fill="#FFFFFE"></path>
            <path d="M106.700301,62.3170063 C102.165052,62.8480454 87.8616772,64.9482793 87.5489475,65.0529235 C90.6976278,63.7034414 102.931507,61.3897093 108.410291,60.265152 L106.700301,62.3170063" id="Fill-17" fill="#979591"></path>
            <path d="M90.1135984,83.5750084 L74.4463749,108.344136 C70.2893418,109.165386 65.494554,109.978617 61.3637822,110.890745 L75.9398597,88.8907451 L71.8717006,87.162713 C75.9131306,86.3100568 86.0481123,84.3554962 90.1135984,83.5750084 Z M104.044771,90.996993 L118.954895,78.2793184 C122.544604,77.7854995 128.394253,76.6996325 131.881056,76.2833278 L113.601737,90.3595055 L117.250251,100.924156 C113.821584,101.379218 108.378884,102.356164 105.488139,102.763782 L102.260608,93.6645506 L95.0390912,104.465753 C91.0350819,105.097227 87.0317407,105.775476 83.0330772,106.498496 L97.260274,84.2679586 L93.7059806,82.6949549 C100.600067,81.4961577 106.510525,80.393585 110.797193,79.6130972 L104.044771,90.996993 Z M159.407284,72.4323421 L157.291012,76.5566321 L144.420982,78.4396926 L141.621784,83.189442 L152.62145,81.8255931 L150.09422,86.6548613 L138.999666,88.1049115 L135.425326,93.869696 L148.471767,92.1891079 L145.601737,96.9107918 C137.432676,98.0140327 129.47277,99.1313064 121.426662,100.472436 L135.450718,75.8429669 C143.405279,74.4490478 152.106248,73.3103909 159.407284,72.4323421 Z M53.4385566,95.0170398 L50.85573,95.6638824 C48.2702974,96.310725 47.1549616,96.9368527 46.7139325,97.6251253 L43.6153024,102.799198 L53.1184764,100.523889 L56.1667224,95.2576011 C56.6027397,94.5713331 56.0195122,94.3708654 53.4385566,95.0170398 Z M36.7170063,98.7210157 C36.6752422,98.7517541 29.3802873,97.3397928 29.3017708,97.1827598 C43.498697,93.1827598 53.6329435,91.1587036 62.7769462,89.2422319 C67.8563314,88.3869028 68.7945205,89.9064484 67.9926495,91.1807551 L55.1195456,111.617107 C51.4358169,112.424992 47.7709322,113.280321 44.1311059,114.180421 L49.4970264,105.744069 L39.9673906,108.145673 L34.6128299,116.202472 C30.727297,117.260274 26.6359506,118.054795 23.9294353,118.909455 L36.7170063,98.7210157 Z M191.198797,68.7263615 L177.485466,93.127297 C177.057802,93.0557969 171.81156,93.7253592 170.790511,93.7681256 L168.386235,80.9709322 L160.605413,95.0497828 C158.682259,95.2636151 151.132643,96.4029402 150.988306,96.3040428 L163.859004,71.7046442 C167.243568,71.2829937 169.307718,71.1373204 172.534581,70.8299365 L175.230872,82.1810892 L180.680922,72.2552623 L177.77013,70.1570331 C181.023722,69.9278316 189.802873,68.7263615 191.198797,68.7263615 L191.198797,68.7263615 Z" id="Fill-18" fill="#FFFFFE"></path>
            <path d="M69.5188774,120.533912 L68.4724357,122.161042 L60.8860007,123.730037 L63.0390912,120.533912 L69.5188774,120.533912 Z M58.9812229,120.533912 L56.3454728,124.447711 C56.3134648,124.492482 56.2550618,124.543268 56.1712663,124.567992 L56.0999666,124.587371 C56.0443034,124.601403 55.9611093,124.620114 55.8564651,124.643502 C55.6510525,124.689609 55.3570331,124.753091 55.0029402,124.827932 C54.2973605,124.976946 53.3528901,125.172736 52.4050117,125.369195 C51.4390912,125.568994 50.4938189,125.765453 49.7882392,125.913799 L48.9381223,126.092215 L48.6997661,126.143 L48.6374875,126.157033 C48.6382893,126.156365 48.6455062,126.145005 48.6644838,126.140996 L48.4829937,126.125626 L48.1976612,125.846976 L51.7754093,120.533912 L58.9812229,120.533912 Z M38.0257267,120.533912 L36.8447711,122.217173 C37.273438,122.122285 37.858002,121.990645 38.4528567,121.853659 C39.0171066,121.724023 39.5787504,121.591714 39.998864,121.488139 C40.2056799,121.437354 40.3785499,121.393251 40.498296,121.35984 C40.5533578,121.345139 40.5959238,121.332442 40.6253926,121.323087 L40.6326094,121.321083 L40.6914133,121.295022 C41.327297,121.125292 41.7835616,120.854661 42.1347143,120.530571 L48.4537254,120.533912 C47.2309389,121.611761 45.4679586,122.587371 42.6616104,123.245573 C38.6348814,124.189108 35.5061143,124.928166 34.9157367,125.067825 L31.5559639,129.557634 L23.8292683,131.257601 L29.9982626,121.618443 C29.9230204,121.609756 29.8378884,121.600401 29.7449382,121.592382 C29.3076512,121.553625 24.1434681,121.045773 24.1434681,121.045773 L26.4068159,120.533912 L38.0257267,120.533912 L38.0257267,120.533912 Z" id="Fill-19" fill="#FFFFFE"></path>
            <path d="M167.488807,102.82125 L165.775476,105.092549 C164.953558,106.921483 157.861009,108.717675 146.51988,109.405279 C145.93585,109.440027 145.358503,109.447377 145.228199,109.406615 L144.849983,109.288339 L146.747745,106.744404 L146.933512,106.791179 C148.058136,107.07718 156.093552,106.276646 157.613765,105.188106 L158.207818,104.412964 C158.225192,104.388907 158.233879,104.372202 158.237888,104.360842 C158.239225,104.340795 158.231874,104.328099 158.220515,104.316071 C158.15837,104.251253 158.012696,104.175743 157.792182,104.118944 C157.40862,104.021383 156.857334,103.983963 156.286001,103.973271 L151.540261,103.980621 C149.854327,104.023388 149.253592,103.441363 149.599733,102.537254 C149.726696,102.205814 149.971266,101.883729 150.171734,101.649181 C150.273973,101.530237 150.370865,101.42733 150.445038,101.349148 L150.534581,101.256265 L150.563983,101.224858 L151.544938,100.128299 C152.36552,99.2983628 155.198797,98.3234213 160.187771,97.4861343 L165.937855,96.7016372 C167.703976,96.505847 169.647845,96.3274307 171.77013,96.1703976 L172.310725,96.1316405 L170.845306,98.5720013 L170.638824,98.5205479 C169.372536,98.2058136 160.640829,99.3651854 159.829602,100.078851 L159.271634,100.813899 C159.237554,100.862011 159.223522,100.89275 159.217508,100.912797 C159.22419,100.948212 159.269629,101.000334 159.432008,101.05847 C159.736719,101.168727 160.210491,101.211493 160.6141,101.218176 L165.089876,101.262279 C166.646843,101.252923 167.375209,101.522887 167.596392,101.997327 C167.711995,102.245239 167.653859,102.484464 167.591046,102.63281 C167.559639,102.707651 167.522887,102.769796 167.494153,102.814567 L167.488807,102.82125 Z M137.778817,104.772469 L137.842967,104.749749 C139.155363,104.488473 139.735383,103.784163 140.181757,103.042432 C140.269295,102.897427 140.269295,102.840628 140.267959,102.829937 C140.263949,102.825927 140.253258,102.817908 140.230538,102.807217 C140.082192,102.737721 139.750084,102.715002 139.215503,102.760441 C138.197795,102.846642 136.732376,103.144671 135.282994,103.369863 L133.720013,105.456732 C134.17708,105.386569 134.825927,105.284998 135.486134,105.178082 C136.080187,105.081858 136.671567,104.982292 137.113264,104.90411 C137.331774,104.864016 137.512863,104.830605 137.639826,104.803876 C137.697294,104.792516 137.742733,104.781824 137.772803,104.773806 L137.778817,104.772469 Z M136.427665,108.01871 C136.447711,107.986635 136.470431,107.947878 136.489141,107.905112 C136.529235,107.816238 136.522553,107.774808 136.518543,107.764116 C136.510525,107.746742 136.336786,107.504845 135.026395,107.664551 L131.713999,108.239225 L128.151019,112.674908 L119.327765,114.136986 L127.359171,103.680588 C127.569663,103.331774 127.421316,103.174073 127.101236,102.935516 L126.559973,102.533912 L145.941196,99.3698004 C147.127965,99.3665219 148.531908,99.4948212 148.811226,100.266622 C148.902773,100.51988 148.885399,100.921483 148.687604,101.207484 C148.348146,101.700635 148.013365,102.189776 147.635817,102.659539 C147.252255,103.134648 146.818577,103.593719 146.286001,104.014701 C145.579018,104.574006 144.706315,105.057133 143.55563,105.426662 C144.688941,105.745406 144.652188,106.618777 144.042766,107.69863 C143.82693,108.081524 143.52155,108.524557 143.200134,108.9716 C142.886736,109.40862 142.557969,109.850317 142.286001,110.243902 L142.215837,110.345473 L133.830271,111.734046 L136.370197,108.103575 C136.382225,108.086201 136.40294,108.058136 136.427665,108.01871 Z M81.5462746,116.375543 C81.701303,116.497828 82.0347477,116.579352 82.5399265,116.606081 C83.5322419,116.658871 85.0377548,116.495155 86.6267959,116.247244 C89.8002005,115.752088 93.2569328,114.930839 93.4894754,114.873371 L94.2612763,114.6856 L91.8329435,117.929836 C91.8329435,117.929836 85.2555964,119.077848 80.9695957,119.828934 C76.6288005,120.589375 72.429001,119.694621 74.8600067,116.385566 C75.2228533,115.891747 75.7728032,115.139325 76.3427999,114.418309 C76.9087872,113.701303 77.5141998,112.990979 77.9819579,112.600735 C80.393585,110.592048 84.37287,109.253592 88.221851,108.367524 C88.221851,108.367524 97.8082192,106.733044 98.6147678,106.656198 L99.3110591,106.590712 L96.4223187,110.004009 L96.2873371,110.003341 C93.6398263,109.969262 90.9916472,110.447711 88.9996659,110.937521 C87.0143669,111.425326 85.6939526,111.921149 85.6939526,111.921149 C83.9084531,112.719679 82.7637822,114.253258 81.5937187,115.879051 C81.3879051,116.165052 81.440695,116.292015 81.5462746,116.375543 Z M96.0347477,117.0284 L96.1282994,116.962913 C96.215837,116.901437 97.8957568,114.519211 99.591714,112.086869 C101.268961,109.67992 102.920815,107.290344 102.93017,107.27698 C103.007685,107.164718 102.99432,107.101904 102.924156,107.004343 C102.880053,106.942867 102.816572,106.878049 102.735048,106.804544 C102.647511,106.727698 102.556632,106.654193 102.476445,106.583361 L102.027397,106.183762 L124.811894,102.536585 L122.463081,105.686602 L122.300033,105.667892 C121.029736,105.520882 118.657534,105.548279 116.394253,105.919145 L110.916138,106.851988 L109.321083,109.007685 L115.775476,107.991313 L113.667224,110.469095 L107.52155,111.469429 L105.931841,113.647177 L112.396926,112.567324 C115.107918,112.164384 118.150351,111.193451 118.334781,111.135984 L118.440361,111.102573 L118.700969,111.527564 L116.039425,114.247244 L96.2251921,117.495489 L96.0347477,117.0284 Z M67.0698296,114.378884 C66.8733712,114.376879 66.5123288,114.418309 65.9029736,114.553959 L63.8136318,114.977614 C63.0263949,115.15269 62.4744404,115.26562 62.0916138,115.376545 C61.7034414,115.488139 61.5772135,115.576345 61.5234881,115.652523 L60.2058804,117.776813 L65.5430672,116.652857 L67.0698296,114.378884 Z M51.7754093,120.533912 L55.0833946,115.621784 C55.0408954,115.558971 54.967591,115.478116 54.8760441,115.390578 C54.7836285,115.302372 54.6848647,115.219512 54.6068827,115.158035 C54.5689943,115.128633 54.5369863,115.104577 54.5127297,115.086535 L54.4334781,115.031073 L54.4565319,114.937521 C54.5211493,114.670231 57.5655195,114.016037 60.9671233,113.300368 C64.4780488,112.562646 68.6441697,111.727364 71.3030404,111.188774 C72.4964918,110.942867 73.473438,110.953558 74.0581356,111.259606 C74.7577681,111.626462 74.795857,112.330772 74.3274307,113.065152 L69.5188774,120.533912 L63.0390912,120.533912 L63.7732041,119.444036 L59.0578015,120.420314 L58.9812229,120.533912 L51.7754093,120.533912 Z M26.4068159,120.533912 L48.5433344,115.528233 C49.5880388,115.46141 50.8637487,115.518877 51.1482793,116.306047 C51.2381557,116.553291 51.2178416,116.94153 51.0352155,117.223522 C50.713732,117.719345 50.392449,118.255262 50.0028065,118.800535 C49.6069495,119.353826 49.1382559,119.922486 48.5268961,120.471767 C48.5027731,120.493819 48.4785165,120.51587 48.4537254,120.537254 L42.1347143,120.533912 C42.4727698,120.21851 42.7133979,119.856331 42.9227531,119.488139 C42.99285,119.365185 43.0051453,119.305045 43.0070832,119.283662 C42.865152,119.225526 42.5581691,119.220849 42.0469763,119.298363 C41.0797193,119.444036 39.6873371,119.822252 38.3095222,120.129636 L38.0257267,120.533912 L26.4068159,120.533912 L26.4068159,120.533912 Z" id="Fill-20" fill="#FFFFFE"></path>
            <path d="M69.390578,119.681924 L68.1222853,121.651186 L62.1394587,122.889409 L64.3003007,119.681924 L69.390578,119.681924 Z M59.8124958,119.681924 L58.7143334,119.909121 L55.931841,124.042098 L55.7319746,124.087538 C55.5285667,124.132977 55.236552,124.196458 54.8851988,124.269963 C54.1801537,124.418978 53.2362847,124.615436 52.289275,124.811226 C51.3414634,125.007016 50.3905112,125.204143 49.670431,125.35583 L49.1395924,125.46876 L53.0360842,119.681924 L59.8124958,119.681924 Z M37.9278984,119.681924 L35.656131,122.918142 L36.1922486,122.928166 C36.2824591,122.929502 37.4874708,122.660875 38.5806215,122.408954 C39.1481457,122.277982 39.7129302,122.146341 40.1349816,122.042098 C40.3484798,121.989308 40.5266288,121.943869 40.6502506,121.909121 C40.7176078,121.891079 40.7706649,121.875042 40.8066823,121.863014 C40.8289342,121.855663 40.8486468,121.846976 40.8668226,121.838289 C42.2997661,121.446041 42.9548279,120.586702 43.4182426,119.769462 C43.4352155,119.74006 43.4510525,119.709322 43.4656866,119.679252 L48.5260274,119.681924 C48.4062813,119.807551 48.2799198,119.927832 48.1466756,120.047444 C47.0046108,121.073839 45.3190778,122.037421 42.5313732,122.690946 C38.0522553,123.740728 34.5833612,124.560641 34.5833612,124.560641 L31.2268627,129.04711 L25.0506515,130.406281 L30.6690946,121.627798 C30.8110925,121.413966 30.6429001,121.232877 30.5643836,121.18276 C30.4950885,121.137989 30.411293,121.115269 30.3497494,121.101236 C30.2247912,121.071166 30.0330104,121.045773 29.7959238,121.025058 C29.3515536,120.984965 28.7361844,120.956899 28.1073171,120.931507 C27.8016706,120.918142 27.4926829,120.906782 27.1987304,120.893418 L32.6064818,119.681924 L37.9278984,119.681924 L37.9278984,119.681924 Z" id="Fill-21" fill="#D42331"></path>
            <path d="M145.873037,108.862011 L146.979619,107.377882 C148.717675,107.589041 156.427665,106.806549 157.983963,105.616438 L158.015369,105.59305 L158.660207,104.751754 C158.876044,104.456398 158.849983,104.145673 158.636151,103.919813 C158.463749,103.738055 158.189776,103.629803 157.941864,103.56699 C157.489475,103.451387 156.877381,103.414634 156.304043,103.403943 L151.545606,103.410625 C149.881724,103.454059 150.042098,102.964918 150.130972,102.733044 C150.221183,102.497828 150.410291,102.239225 150.602072,102.015369 C150.695623,101.906448 150.784497,101.81156 150.852656,101.74006 L150.942867,101.646509 C150.964918,101.623789 150.982292,101.603742 150.994988,101.589709 L151.95122,100.51988 C152.6141,99.8509856 155.221517,98.8954227 160.267959,98.0487805 L166.001336,97.266288 C167.607751,97.0892082 169.359171,96.9254928 171.26161,96.7798196 L170.569997,97.9325092 C168.672903,97.7300368 160.310725,98.8038757 159.41998,99.689275 L158.81724,100.479118 C158.386903,101.069161 158.827932,101.449382 159.230872,101.595055 C159.627798,101.738724 160.18443,101.780822 160.596057,101.786836 L165.078517,101.832275 C166.691614,101.82292 167.027063,102.132977 167.079185,102.245239 C167.0999,102.290678 167.097227,102.346809 167.066488,102.419646 C167.051788,102.45573 167.033745,102.4858 167.019044,102.507183 C167.010358,102.521216 167.003675,102.533912 166.995657,102.547277 L165.278316,104.813231 L165.263615,104.849315 C164.696291,106.25994 158.152355,108.129636 146.494487,108.836619 C146.265954,108.850652 146.05279,108.858002 145.873037,108.862011 Z M132.548613,106.076846 L133.056465,106.117608 C133.14868,106.124958 134.414968,105.927832 135.567658,105.74006 C136.165052,105.643167 136.759773,105.543602 137.204143,105.464751 C137.428667,105.423989 137.61577,105.389242 137.746742,105.361844 C137.817574,105.347812 137.873705,105.334447 137.911126,105.324424 C137.933846,105.317741 137.954561,105.311059 137.974607,105.302372 C139.485466,104.992984 140.178416,104.145673 140.668226,103.329101 C140.908787,102.93017 140.926829,102.498496 140.47845,102.29001 C140.175743,102.148346 139.693953,102.148346 139.177414,102.192449 C138.121617,102.281991 136.590712,102.596057 135.089208,102.824591 L134.972269,102.842633 L132.548613,106.076846 Z M136.837955,108.420314 C137.001002,108.178416 137.839626,106.748413 134.959572,107.0999 L131.409957,107.715336 L127.848981,112.149683 L120.65152,113.341798 L127.82693,103.998664 C128.118944,103.52556 128.046108,103.163381 127.869696,102.896091 L145.978617,99.9398289 C146.589375,99.9385232 147.151353,99.9806215 147.577681,100.082192 C148.038089,100.191781 148.229201,100.344136 148.273973,100.469763 C148.311393,100.571333 148.299365,100.775142 148.220515,100.890077 C147.889743,101.370531 147.564317,101.848313 147.194788,102.306047 C146.831273,102.756432 146.427665,103.182092 145.937855,103.570331 C144.959572,104.3428 142.30137,105.619779 140.164384,105.974607 L141.532242,105.902439 C144.323421,105.673906 144.132977,106.387571 143.547611,107.424658 C143.340461,107.792182 143.04711,108.215837 142.739058,108.644838 C142.450384,109.04711 142.149014,109.454059 141.889743,109.82292 L135.066488,110.953558 L136.837955,108.420314 Z M81.1313064,115.546275 C80.8399599,115.951888 80.7390578,116.396258 81.0831941,116.732376 C81.3524891,116.995657 81.8362847,117.100568 82.3568326,117.143334 C83.4373538,117.230204 85.0571333,117.063816 86.7136652,116.80989 C89.1025727,116.445038 91.6284664,115.889743 92.8593385,115.607083 L91.5121951,117.407284 C90.6394921,117.559639 84.8272636,118.574006 80.8713665,119.267624 C78.526562,119.678583 76.6455062,119.591046 75.6110925,119.115269 C74.698296,118.694287 74.4069495,117.964584 75.3190778,116.723689 C75.6792516,116.233211 76.2245239,115.486803 76.789843,114.771801 C77.3585032,114.051453 77.9305045,113.3859 78.3468092,113.039091 C80.644838,111.123956 84.4964918,109.810224 88.3341129,108.925493 C88.6040762,108.880053 95.570999,107.692616 97.9411961,107.327765 L96.1603742,109.43134 C93.4908119,109.414634 90.8466422,109.896425 88.8633478,110.38423 C86.8399599,110.882058 85.4854661,111.391246 85.4854661,111.391246 C83.5302372,112.258603 82.2933512,113.931841 81.1313064,115.546275 Z M103.29569,106.558637 L123.516204,103.321083 L122.201136,105.085199 C120.842633,104.950885 118.516539,104.99432 116.300033,105.357167 L110.594721,106.329435 L108.034748,109.786168 L114.345473,108.793184 L113.369195,109.940528 L107.199465,110.944203 L104.648179,114.439024 L112.487805,113.12997 C114.304711,112.85867 116.266622,112.338791 117.441363,111.999332 L115.763448,113.715336 L96.9568994,116.79853 C97.6351487,115.880388 98.8767123,114.106916 100.058136,112.412295 C101.744738,109.995322 103.398597,107.601069 103.398597,107.601069 C103.642499,107.248914 103.564985,106.920147 103.386569,106.671567 C103.358503,106.632142 103.327765,106.594053 103.29569,106.558637 Z M63.6977614,114.418978 C62.8922152,114.59873 62.3252255,114.71567 61.9332442,114.829268 C61.545005,114.940862 61.2315403,115.077848 61.0527898,115.331106 L59.0191781,118.609422 L65.8874039,117.162713 L67.5897093,114.626796 C67.7126629,114.447711 67.8970932,113.974607 67.3504845,113.838958 C67.0671567,113.769462 66.566856,113.82292 65.7818911,113.997327 L63.6977614,114.418978 Z M53.0360842,119.681924 L55.6097561,115.859673 C55.6882726,115.744069 55.6843969,115.620448 55.6634815,115.534247 C55.6437688,115.45005 55.6031407,115.375209 55.5646509,115.316405 C55.4879385,115.200134 55.3779485,115.081858 55.2746408,114.983628 C57.6774474,114.503174 66.8102239,112.679586 71.417307,111.746742 C72.5893752,111.504845 73.3952556,111.556298 73.7935182,111.764116 C74.0775142,111.913131 74.2185099,112.175743 73.8476445,112.7571 L69.390578,119.681924 L64.3003007,119.681924 L65.0272636,118.60274 L59.8124958,119.681924 L53.0360842,119.681924 Z M32.6064818,119.681924 L48.6237888,116.093552 C49.1591046,116.060809 49.645573,116.074841 50.0133645,116.153692 C50.4042098,116.238557 50.5670565,116.374206 50.6129636,116.500501 C50.644437,116.588039 50.6371534,116.789843 50.556699,116.913465 C50.2398931,117.402606 49.9237554,117.931173 49.5396592,118.469095 C49.248981,118.875376 48.921283,119.284998 48.5260274,119.685934 L43.4656866,119.681924 C43.6369529,119.323755 43.6437688,118.93017 43.2127631,118.752422 C42.9143334,118.629469 42.4495155,118.661544 41.9619111,118.735048 C40.9597728,118.886067 39.5047778,119.282994 38.0784497,119.59706 L37.9704644,119.621116 L37.9278984,119.681924 L32.6064818,119.681924 L32.6064818,119.681924 Z" id="Fill-22" fill="#D42331"></path>
            <path d="M113.218176,73.2061477 L111.722686,75.5930505 C110.819913,77.5683261 103.338456,79.6578684 92.1817574,80.5432676 C91.6224524,80.5867023 91.0557969,80.603408 90.920147,80.5566321 L90.5539592,80.4316739 L92.5285667,77.730705 L92.7183428,77.7828266 C93.8576679,78.0928834 102.992315,76.7597728 103.499499,75.54427 L103.534247,75.4827932 C103.605079,75.3959238 103.765453,75.1767457 103.821584,74.9802873 C103.86836,74.8212496 103.857,74.7163381 103.590378,74.6949549 C103.125961,74.6602072 97.425994,74.6495155 97.425994,74.6495155 C95.5776813,74.7043101 95.7447377,73.4373538 96.1897761,72.5319078 C96.4196458,72.0661544 96.7423989,71.6050785 97.0023388,71.2656198 C97.266288,70.920147 97.473438,70.6902773 97.473438,70.6902773 C98.4363515,69.5522887 101.362513,68.5165386 106.33144,67.494153 C106.33144,67.494153 112.496492,66.2907451 118.056131,65.7625125 L118.624123,65.7089876 L116.993652,68.3655195 L116.790511,68.3154026 C115.547611,68.0040094 106.699632,69.4714333 105.846976,70.2793184 L105.236886,71.0938857 C105.109255,71.2709656 105.121283,71.3050451 105.345139,71.3912462 C105.629803,71.5015035 106.089542,71.5375877 106.488473,71.5369195 L110.94554,71.4948212 C112.501169,71.4520548 113.242232,71.730705 113.436017,72.2626128 C113.530237,72.5238891 113.455396,72.7697962 113.387237,72.920147 C113.351821,72.9983294 113.313064,73.0631473 113.282994,73.1085867 L113.218176,73.2061477 Z M126.106248,71.3859004 C126.295356,71.5382559 126.682927,71.6438356 127.252255,71.6912797 C128.37287,71.7861677 130.060809,71.6505179 131.835616,71.4213164 C135.37855,70.9642499 139.214835,70.1443368 139.430003,70.0968927 L140.155697,69.937855 L137.641163,73.440695 C137.641163,73.440695 130.332108,74.5071834 125.620448,75.1987972 C120.803876,75.9051119 116.39559,74.7150017 118.819913,71.2034748 C119.192783,70.6635483 119.757434,69.840294 120.347477,69.0504511 C120.932175,68.2666221 121.560307,67.4914801 122.054795,67.0678249 C124.608754,64.8822586 128.94153,63.4782492 133.186101,62.5702639 C133.186101,62.5702639 142.894086,60.9268293 143.810892,60.8566656 L144.400936,60.8115603 L141.875042,64.5240895 L141.718009,64.5182092 C138.719011,64.4140996 135.911126,64.8954227 133.850317,65.4039425 C131.797528,65.9111928 130.494487,66.4439024 130.494487,66.4439024 C128.541263,67.2923488 127.343134,68.988306 126.123622,70.7831607 C125.908453,71.100568 125.959906,71.2676245 126.106248,71.3859004 Z M70.7410625,75.6311393 C70.3601737,75.6030738 63.9564317,75.2502506 63.9564317,75.2502506 L79.8884063,72.4089542 L79.50284,72.9709322 C78.5245573,74.3989308 73.5061811,81.6017374 73.5061811,81.6017374 C73.3625125,81.8095556 73.3070498,81.9164718 73.8422987,81.9873037 C74.3468092,82.0541263 75.0932175,81.9746074 75.730705,81.8596726 C77.1874374,81.5830271 78.3681924,81.1299699 78.7824925,80.5365854 L84.7196793,71.4213164 L93.1146007,69.7293685 L86.3715336,79.8209155 C86.3080521,79.902439 84.5045105,82.1650518 75.1553625,83.9953224 C74.8058804,84.0628132 74.4463749,84.1309723 74.0755095,84.1977949 L73.9445373,84.2211828 C65.3695957,85.757434 65.1528233,84.1737387 66.1916472,82.5579686 L70.9041096,75.6445038 L70.7410625,75.6311393 L70.7410625,75.6311393 Z" id="Fill-23" fill="#FFFFFE"></path>
            <path d="M91.5696625,80.0093552 L92.7711326,78.3648513 C94.5218844,78.5232208 103.206816,77.3999332 104.008019,75.8035416 C104.03408,75.7687939 104.079519,75.7059806 104.132309,75.6251253 C104.208486,75.5061811 104.305379,75.3351153 104.36552,75.1520214 C104.501169,74.7330438 104.415636,74.1877715 103.633144,74.1269629 C103.166722,74.0908787 97.4219846,74.0801871 97.4219846,74.0801871 C95.3130638,74.1476779 97.46141,71.5556298 97.9004343,71.0678249 C98.7023054,70.1109255 101.397928,69.0912128 106.445038,68.0521216 C106.58002,68.0260608 112.229201,66.9288339 117.539592,66.3863014 L116.71567,67.7287003 C114.814567,67.5476111 106.348146,68.9401938 105.414634,69.9071166 L104.777815,70.7564317 C104.357501,71.3377882 104.694287,71.75142 105.139993,71.9224858 C105.530905,72.0741731 106.084865,72.1075844 106.491814,72.1069161 L110.954895,72.0641497 C112.580688,72.0193785 112.86268,72.3534915 112.899432,72.4563983 C112.920147,72.5138657 112.910792,72.5907117 112.869362,72.6849315 C112.847979,72.7297026 112.825927,72.7671233 112.807885,72.7938523 C112.789843,72.8192449 112.777815,72.8459739 112.76846,72.8700301 L111.217508,75.3257601 C110.519211,76.9328433 103.532242,79.0704978 92.1363181,79.9746074 C91.9298363,79.9913131 91.7360508,80.0026729 91.5696625,80.0093552 Z M125.652523,70.4630805 C125.341798,70.920147 125.281657,71.3899098 125.649181,71.7413966 C125.947878,72.0260608 126.475109,72.159706 127.062479,72.2231874 C128.271968,72.3548279 130.070164,72.2185099 131.906448,71.9866355 C134.64016,71.6418309 137.523555,71.0751754 138.831273,70.8052122 L137.319746,72.9114601 C136.363515,73.0511193 129.891747,73.9959906 125.537588,74.6341463 C122.98697,75.009021 120.918811,74.8466422 119.756098,74.2712997 C118.688273,73.7434013 118.358837,72.8740394 119.289676,71.5268961 C119.659205,70.990979 120.219178,70.1744069 120.803207,69.3912462 C121.391914,68.6040762 121.985299,67.8777147 122.424323,67.5008353 C124.861343,65.4162379 129.060474,64.0352155 133.299699,63.1286335 C133.631139,63.0723689 140.946876,61.8339459 143.241564,61.503575 L141.580354,63.9442031 C138.572001,63.8590712 135.770799,64.3428667 133.713331,64.850852 C131.612429,65.3699298 130.275309,65.9177414 130.275309,65.9177414 C128.146341,66.8406281 126.860675,68.6842633 125.652523,70.4630805 Z M66.693017,84.0527898 C66.3742065,83.9084531 66.334447,83.7454059 66.3480789,83.591714 C66.3678583,83.3812229 66.5012362,83.1293017 66.6687604,82.8693618 L71.7393919,75.4313398 C71.7393919,75.4313398 71.9331774,75.1967925 71.4032743,75.1279653 C71.3671901,75.1232877 71.3170732,75.1132643 71.2535917,75.1059138 C71.1406615,75.0925493 70.9802873,75.0778483 70.7838289,75.0631473 C70.3982626,75.0344136 69.8717006,75.0043435 69.2916806,74.9789509 L68.9041096,74.9622452 L78.6455062,73.2114935 C77.1333111,75.3985967 73.038423,81.2763114 73.038423,81.2763114 C72.4931507,82.0661544 73.1266288,82.4677581 73.7681256,82.5519546 C74.3648513,82.6314734 75.1881056,82.5372536 75.8349482,82.4203141 C77.2636151,82.1483461 78.6882726,81.6672235 79.2522553,80.8586702 L85.0664885,71.9325092 L91.8743735,70.5606415 L85.9104577,79.4861343 C85.9031073,79.494153 85.8830605,79.5175409 85.8476445,79.5529569 C85.7908453,79.6084196 85.6959572,79.695289 85.5516204,79.807551 C85.2622787,80.0327431 84.7724691,80.3588373 83.9906448,80.7450718 C82.4249916,81.5182092 79.6906114,82.5258938 75.0457735,83.4360174 C74.6996325,83.5035082 74.3421316,83.570999 73.9746074,83.6378216 L73.8436351,83.6612095 C69.3738724,84.4610758 67.4360174,84.3862345 66.693017,84.0527898 L66.693017,84.0527898 Z" id="Fill-24" fill="#D42331"></path>
            <path d="M135.738724,52.2842633 C125.225526,47.0008019 124.383562,38.5369195 125.596392,34.2110257 C132.410959,43.1207484 142.511861,46.2102239 142.528567,46.2475109 C135.648513,48.4729703 127.995991,43.5802873 127.159372,37.3667224 C125.507518,39.9042432 129.379218,47.0853324 137.71734,51.8567992 C137.089208,52.0231874 136.429001,52.164584 135.738724,52.2842633" id="Fill-25" fill="#FFFFFE"></path>
            <path d="M169.176078,50.3945874 C166.531908,52.5834948 161.428667,54.2918142 154.475777,51.7980621 C154.263949,51.5007016 153.375877,49.9775476 153.260942,49.7027731 C155.326428,50.5170732 161.684597,52.6692282 169.176078,50.3945874" id="Fill-26" fill="#FFFFFE"></path>
            <path d="M169.477447,34.5049783 C168.054126,34.4473104 166.435683,36.2310725 167.861677,38.2672235 C168.392917,39.0271968 169.220849,39.3289008 169.940528,39.5699298 C170.767123,39.8460408 170.009355,36.9561644 170.936184,37.233144 C172.694955,37.7567658 171.38991,40.2349482 170.914133,43.2103575 C170.272636,44.749148 168.984297,45.8606081 167.036418,46.3516204 C168.57267,46.0668226 169.194788,46.4136986 170.778483,45.5850317 C170.824591,46.2606081 170.954895,46.9411961 171.209489,47.6134982 C166.582025,49.8873371 162.070832,49.1934514 156.845974,48.137855 C156.645506,48.0972269 154.762446,47.3345807 154.654193,47.2574006 C149.241564,43.3798864 151.699298,36.3685266 157.218844,33.1173405 C158.926161,34.040294 160.765119,34.7674574 162.770464,35.2406281 C161.205479,34.4493151 159.748079,33.5212162 158.378216,32.511861 C160.005346,31.7658537 161.840294,31.339726 163.78149,31.3769462 C165.63849,33.0040762 167.428667,33.0819913 169.477447,34.5049783" id="Fill-27" fill="#FFFFFE"></path>
            <path d="M161.051119,27.2900768 C158.526562,27.4758436 156.220515,28.090411 154.217173,29.0206482 C149.722018,24.8328099 146.153024,20.3486803 142.457066,18.4680922 C145.562312,22.5347143 148.732376,26.680588 152.556632,29.9036418 C147.843635,32.7573672 145.317073,37.50284 146.441029,42.1807551 C145.920481,42.3070498 126.992315,32.5603074 126.042766,21.4869362 L124.040762,20.557434 C116.484464,15.1653859 118.006014,10.679853 119.550284,7.4940862 C121.86836,9.2816572 123.98864,11.297561 126.369529,12.9902439 C134.402272,7.78797193 145.482125,18.1446709 148.221183,9.74574006 C150.765787,9.41256265 152.022051,8.23955897 152.803207,6.90892082 C153.953224,9.92829937 152.354828,14.421851 150.311393,15.1403943 C149.336452,15.482125 148.706983,14.7150017 147.736719,14.7280989 C151.466756,17.6368861 154.083528,16.5031741 156.860007,18.5152021 C158.086201,19.4022051 158.486468,20.2281991 158.664885,21.4181757 C158.765787,22.0917474 158.892082,22.6493151 159.043769,23.1442031 C159.180087,23.5899098 153.552957,18.5891747 153.73271,18.9760775 C154.144337,19.8649516 160.433679,26.0666889 161.051119,27.2900768" id="Fill-28" fill="#FFFFFE"></path>
            <path d="M121.859673,22.1452055 C121.398597,23.5002339 121.784163,26.8789843 122.747745,29.2934848 C122.487137,29.7981958 122.40294,30.3730037 122.541263,30.9594387 C120.986301,35.748012 118.66288,47.0205145 135.197461,52.3725359 C126.819913,53.6613431 114.332108,52.0020047 101.444036,53.017307 C112.010023,43.6698964 109.835616,24.7195456 118.318076,18.1460742 C119.264283,19.4729034 120.369529,20.8029402 121.859673,22.1452055" id="Fill-29" fill="#FFFFFE"></path>
            <path d="M153.459405,39.6988306 C158.60274,36.8574006 156.169061,44.6903441 161.494821,41.6872035 C163.531574,40.5386569 162.341463,37.9210157 160.117608,37.0917474 C157.417975,36.0843301 153.636485,36.9274975 153.459405,39.6988306 Z M126.616772,20.1560976 C127.154026,19.6803207 126.13565,18.9368527 126.732376,18.6487137 C127.192783,18.422987 129.057133,18.0825927 129.490812,17.8175743 C124.730371,16.2178416 122.386235,14.7581691 120.22586,10.8335449 C119.513532,17.4103575 126.616772,20.1560976 126.616772,20.1560976 Z M131.567658,20.5646509 C132.086201,20.7818243 133.063816,20.9206816 132.891413,21.1885065 C129.846308,23.4281991 132.321417,28.8595389 138.841965,26.253859 L147.129302,28.9486134 C143.300368,26.4416973 138.535249,21.4050785 133.573672,20.272703 C133.240895,20.1975276 134.119612,18.2690946 135.54427,17.5327765 C131.749415,18.0321417 131.19011,20.4054795 131.567658,20.5646509 L131.567658,20.5646509 Z" id="Fill-30" fill="#294354"></path>
            <path d="M136.203141,25.7146007 C133.543602,25.8388239 131.890411,22.9163381 134.950885,22.2612763 C134.950885,22.2612763 134.93418,22.2729703 134.907451,22.2944871 C135.226194,22.2265286 135.568994,22.3927163 135.672569,22.6663548 C135.775476,22.9399933 135.601737,23.2168393 135.282325,23.2856666 C134.963582,23.3549616 134.620114,23.188707 134.51587,22.9151353 C134.495824,22.8600735 134.4858,22.8051453 134.486468,22.7520214 C134.052122,23.3830939 133.788841,24.5383228 136.203141,25.7146007" id="Fill-31" fill="#FFFFFE"></path>
            <path d="M112.675576,34.4303375 C111.409288,39.9317741 108.648847,48.0958236 104.311393,52.0572001 C117.854327,40.5818243 113.754761,33.0420982 118.807885,19.7129302 C118.807885,19.7129302 115.276311,23.1362513 112.675576,34.4303375" id="Fill-32" fill="#979591"></path>
            <path d="M128.560641,50.2047444 L125.406615,48.0028734 C120.561978,47.6030738 112.944871,48.8323421 107.938523,50.4960909 C116.242566,49.6485132 123.007016,49.7576345 128.560641,50.2047444" id="Fill-33" fill="#294354"></path>
            <polyline id="Fill-34" fill="#294354" points="173.598396 105.818911 176.463081 105.818911 176.463081 106.22586 175.269629 106.22586 175.269629 109.22018 174.792516 109.22018 174.792516 106.22586 173.598396 106.22586 173.598396 105.818911"></polyline>
            <path d="M179.808219,109.22018 L179.808219,107.211493 C179.808219,107.111928 179.817574,106.680922 179.817574,106.364183 L179.808219,106.364183 L178.815904,109.22018 L178.344805,109.22018 L177.351821,106.368861 L177.343134,106.368861 C177.343134,106.680922 177.351821,107.111928 177.351821,107.211493 L177.351821,109.22018 L176.890077,109.22018 L176.890077,105.818911 L177.573004,105.818911 L178.579352,108.694287 L178.590043,108.694287 L179.591046,105.818911 L180.269295,105.818911 L180.269295,109.22018 L179.808219,109.22018" id="Fill-35" fill="#294354"></path>
        </g>
    </g>
</svg>