<svg width="200" height="200" viewBox="0 0 200 200" fill="none" xmlns="http://www.w3.org/2000/svg">
<path d="M11.7258 102.163C4.38845 69.6369 7.47468 42.5416 8.68497 30.1815C15.9164 24.584 43.3446 0 96.7334 0C121.09 0 140.077 5.49168 152.225 10.4387C183.375 4.99244 190.758 29.0318 191.938 32.8593C195.811 45.3101 195.357 62.7383 174.358 78.1543C179.729 85.9304 185.811 96.8381 183.329 111.694C181.938 119.97 177.944 126.278 170.803 140.787C147.233 185.976 103.45 197.368 96.7334 200C82.4217 194.402 28.685 177.095 11.7258 102.163Z" fill="white"/>
<path d="M179.094 37.2163C175.947 28.7745 170.818 24.4326 161.938 24.4326C154.313 24.4326 146.764 27.4886 144.01 28.714C143.496 34.0241 141 43.7367 129.82 47.0347C124.328 54.0998 119.956 60.0605 116.582 64.8108C117.596 64.6444 118.277 64.5688 118.488 64.5385C118.504 64.5385 118.519 64.5385 118.519 64.5385H118.534H118.549H118.564C117.172 66.5355 115.826 68.714 114.57 71.0589L112.452 75.068L115.417 78.5022C118.806 82.4205 123.193 85.8698 127.929 89.062C133.027 91.3918 142.951 97.5642 151.03 104.251C157.036 108.124 162.588 112.269 167.278 115.098C167.278 115.098 170.455 107.549 167.429 101.437L165.523 107.534C153.209 95.3857 135.266 87.5794 120.44 74.1754C132.316 51.8608 153.072 47.655 153.072 47.655L159.321 49.6822L163.224 45.4765C172.422 45.4765 175.085 60.0453 175.085 60.0453C175.085 60.0453 183.466 48.9561 179.094 37.2163Z" fill="#D9691D"/>
<path d="M114.858 55.976C114.858 55.976 106.93 51.6946 107.641 45.3557C109.941 44.9775 112.119 44.7506 114.162 44.5539L112.513 47.4737C112.513 47.4737 114.676 52.8595 121.469 50.2574C125.19 48.8202 125.629 44.4783 125.584 42.088C127.535 40.8928 128.852 39.0017 129.381 35.8398C115.629 44.5842 102.876 33.0411 93.3296 50.0607C95.7048 48.7899 98.0346 47.8368 100.304 47.0955C101.832 50.6053 105.811 56.6568 114.858 55.976Z" fill="#002E6D"/>
<path d="M161.151 67.7457C161.151 67.7457 162.301 63.7063 165.538 59.3644C167.944 63.6156 168.715 69.2737 169.456 73.1314C170.122 72.6473 192.906 59.3796 185.296 34.9166C179.623 16.5354 164.025 14.9771 151.484 17.67C138.972 12.3145 120.5 6.95898 96.7333 6.95898C45.2961 6.95898 18.8664 31.1042 15.3263 33.8425C14.9784 37.4582 10.939 67.0951 18.5185 100.635C23.0722 120.741 30.8331 138.275 41.6349 152.723C62.6032 180.787 89.8195 189.833 96.7484 192.541C109.048 187.7 144.071 177.02 164.646 137.579C160.122 134.478 150.198 125.098 151.726 117.625C151.726 117.625 161.015 123.57 168.882 128.926C170.606 125.673 175.311 117.519 176.476 110.56C180.319 87.5187 159.29 75.6277 161.151 67.7457ZM165.538 107.519L167.444 101.422C170.47 107.534 167.293 115.083 167.293 115.083C156.068 108.336 139.971 93.9635 124.192 93.9635L129.82 98.4718C111.862 106.989 97.0661 128.729 92.8906 140.953C88.0495 155.098 92.8906 171.679 94.6002 176.702C80.5306 170.756 68.5185 162.36 58.7756 151.664C61.9527 136.445 78.0343 113.888 78.0343 113.888C62.9663 123.404 52.9209 135.038 49.3354 139.531C46.8694 135.794 44.6153 131.846 42.5578 127.685C52.9965 104.796 80.1826 81.3765 80.1826 81.3765C58.6092 90.8017 43.4504 101.876 35.0994 108.865C34.6455 107.413 34.2068 105.945 33.7983 104.463C47.051 93.1617 69.7439 69.2585 69.7439 69.2585H58.5336L65.9617 61.7094C69.2446 58.3811 72.7091 55.2192 76.234 52.3448C94.7363 37.201 114.54 29.5157 135.099 29.5157C135.584 29.5157 136.068 29.5308 136.552 29.5308C138.322 37.0044 129.82 47.0649 129.82 47.0649C141.015 43.7669 143.511 34.0694 144.01 28.7442C146.748 27.5036 154.313 24.4628 161.938 24.4628C170.818 24.4628 175.947 28.8047 179.093 37.2464C183.45 48.9862 175.084 60.0755 175.084 60.0755C175.084 60.0755 172.422 45.5066 163.223 45.5066L159.32 49.7124L153.072 47.6549C153.072 47.6549 132.316 51.8606 120.455 74.1753C135.281 87.5641 153.223 95.3705 165.538 107.519Z" fill="#002E6D"/>
<path d="M115.417 78.4871L112.452 75.0681L114.585 71.059C115.841 68.7141 117.172 66.5355 118.579 64.5386C118.579 64.5386 102.255 66.1422 92.8906 75.2496L104.993 74.5537L102.104 79.6218C111.786 86.475 127.928 89.0469 127.928 89.0469C123.193 85.8548 118.821 82.4054 115.417 78.4871Z" fill="#002E6D"/>
<path d="M155.629 33.661C156.249 31.5127 150.576 31.9514 150.576 31.9514C150.576 31.9514 150.728 37.0952 147.929 40.3024C147.929 40.2873 154.646 37.08 155.629 33.661Z" fill="#002E6D"/>
<path d="M139.608 81.7094C139.608 81.7094 159.139 93.6762 163.814 99.1376C163.814 99.1376 161.832 75.9606 139.608 81.7094Z" fill="#D9691D"/>
<path d="M96.7336 17.3979C110.047 17.3979 121.514 19.1983 131.06 21.7096C109.911 22.4358 88.8818 30.938 70.0619 46.4751C52.4068 61.0439 44.3281 74.932 42.9514 77.0046H50.4855C46.4764 81.5129 35.1753 93.7066 28.3977 96.9895C24.7215 80.0454 23.2691 59.7883 25.2661 39.3495C47.6715 21.9819 76.4159 17.3979 96.7336 17.3979Z" fill="#C1C5C8"/>
<path d="M179.093 37.2163C175.947 28.7745 170.818 24.4326 161.938 24.4326C154.313 24.4326 146.764 27.4886 144.01 28.714C143.889 30.0453 143.632 31.6338 143.148 33.3434C144.857 32.6626 147.49 31.6792 150.485 30.7715C150.531 31.1195 150.561 31.5128 150.591 31.9364C151.03 31.9061 156.204 31.6036 155.614 33.6459C155.266 34.8713 154.192 36.0514 152.951 37.0801C155.75 35.9757 159.305 33.6308 159.033 28.7897C163.375 28.1694 167.475 28.3358 169.941 30.2269C177.081 35.7337 179.048 45.537 176.537 57.6853C178.746 53.8426 182.255 45.7034 179.093 37.2163Z" fill="white"/>
<path d="M82.1193 133.041C86.7184 114.69 96.6579 102.723 96.6579 102.723C89.5172 105.144 82.6034 109.698 76.3553 114.962C76.9151 114.599 77.4748 114.236 78.0497 113.873C78.0497 113.873 61.968 136.445 58.791 151.649C68.5187 162.36 80.5308 170.757 94.6004 176.702C92.8909 171.679 88.0497 155.114 92.8909 140.953C97.0664 128.745 111.862 107.005 129.82 98.4873L124.207 93.9941C104.494 103.117 90.7577 119.471 82.1193 133.041Z" fill="#C1C5C8"/>
<path d="M92.7699 77.9272C88.3524 78.4567 84.0256 79.8032 79.956 81.5732C77.2782 83.9182 52.4371 106.036 42.5732 127.67C44.4643 131.482 46.5067 135.128 48.7457 138.578C59.8804 111.377 92.7699 77.9272 92.7699 77.9272Z" fill="#C1C5C8"/>
<path d="M113.935 193.313H112.422V192.542H116.295V193.313H114.782V197.307H113.95V193.313H113.935Z" fill="#002E6D"/>
<path d="M117.172 192.542H118.064L119.517 194.796L120.969 192.542H121.862V197.307H121.03V193.888L119.532 196.127H119.502L118.004 193.888V197.292H117.187V192.542H117.172Z" fill="#002E6D"/>
</svg>
