<?xml version="1.0" encoding="UTF-8"?>
<svg width="200px" height="200px" viewBox="0 0 200 200" version="1.1" xmlns="http://www.w3.org/2000/svg" xmlns:xlink="http://www.w3.org/1999/xlink">
    <!-- Generator: Sketch 54.1 (76490) - https://sketchapp.com -->
    <title>wis-river-falls</title>
    <desc>Created with Sketch.</desc>
    <g id="wis-river-falls" stroke="none" stroke-width="1" fill="none" fill-rule="evenodd">
        <g id="wis-river-falls_BGL">
            <g id="wis-river-falls" transform="translate(0.000000, 7.000000)">
                <path d="M96.882494,0.575539568 C97.5539568,0.335731415 98.2733813,0.383693046 98.5611511,1.10311751 C103.117506,6.95443645 108.057554,12.8057554 112.853717,18.4652278 C125.707434,33.764988 139.328537,49.352518 151.894484,64.7961631 C155.923261,69.7841727 159.376499,75.059952 163.788969,79.7601918 C169.064748,85.8992806 175.635492,92.0863309 181.055156,98.4652278 C186.235012,104.508393 191.127098,111.366906 192.086331,119.376499 C192.086331,121.055156 192.134293,122.781775 192.086331,124.460432 C191.558753,125.563549 191.46283,126.570743 191.127098,127.817746 C190.359712,129.208633 190.071942,130.743405 189.160671,132.086331 C188.441247,133.908873 187.242206,135.491607 186.810552,137.410072 C186.378897,138.129496 185.467626,139.616307 186.282974,140.28777 C190.263789,143.165468 194.388489,147.05036 196.882494,151.270983 C197.458034,152.470024 197.841727,153.23741 198.417266,154.436451 C199.136691,155.491607 199.136691,156.930456 199.760192,157.985612 C199.808153,159.520384 199.808153,161.055156 199.760192,162.541966 C197.889688,168.489209 194.580336,174.148681 190.455635,178.944844 C188.441247,181.103118 186.330935,183.261391 183.597122,184.508393 C183.069544,184.652278 182.685851,184.940048 182.446043,185.323741 C181.390887,185.323741 179.856115,185.995204 178.896882,185.515588 C178.848921,184.1247 179.71223,182.302158 179.952038,180.815348 C180.28777,178.992806 181.151079,176.786571 181.103118,175.01199 C181.438849,171.654676 180.719424,168.82494 180.095923,165.659472 C179.088729,164.316547 179.088729,162.781775 178.081535,161.582734 C175.29976,156.211031 170.167866,152.613909 164.98801,149.976019 C161.678657,148.585132 157.697842,146.858513 154.148681,146.47482 C153.141487,145.611511 151.990408,146.091127 150.839329,145.467626 C148.82494,145.323741 146.570743,144.892086 144.796163,146.091127 C142.829736,147.386091 142.014388,149.304556 141.390887,151.46283 C141.199041,152.661871 140.623501,153.573141 140.57554,154.820144 C139.856115,156.402878 140.28777,158.657074 140.28777,160.383693 C140.671463,161.007194 140.671463,161.630695 140.767386,162.302158 C141.103118,162.877698 141.390887,163.261391 141.390887,163.932854 C142.398082,167.386091 143.83693,170.551559 145.659472,173.669065 C145.995204,174.292566 145.899281,174.772182 146.570743,175.155875 C147.290168,176.642686 148.441247,178.561151 149.544365,179.808153 C149.928058,180.28777 150.791367,180.959233 149.688249,181.247002 C147.865707,181.294964 145.467626,181.294964 144.1247,180 C142.494005,179.088729 141.247002,177.841727 140,176.450839 C132.94964,168.585132 124.844125,161.294964 116.067146,155.395683 C111.17506,152.038369 106.330935,149.496403 101.055156,146.858513 C98.2733813,145.707434 95.3956835,144.556355 92.6139089,143.453237 C90.3597122,143.117506 88.9688249,141.726619 86.5707434,141.630695 C84.940048,140.527578 82.4460432,140.479616 80.6235012,139.808153 C79.4244604,139.280576 77.8896882,139.520384 76.7386091,138.896882 C75.2517986,138.752998 74.1966427,138.129496 72.6139089,138.273381 C71.7505995,137.505995 70.9352518,138.081535 70.0239808,137.458034 C67.5779376,137.122302 65.0359712,136.450839 62.5419664,136.354916 C61.5827338,135.827338 60.2398082,135.923261 59.1846523,135.8753 C58.0335731,135.203837 56.3069544,135.683453 55.1558753,135.155875 C53.7170264,134.772182 52.0863309,135.251799 50.8393285,134.628297 C49.4004796,134.388489 48.1534772,134.724221 46.8105516,133.956835 C45.2278177,133.956835 43.7410072,133.956835 42.206235,133.477218 C40.1918465,133.669065 38.8009592,132.853717 36.9304556,132.997602 C35.1079137,132.805755 33.2374101,132.517986 31.3669065,132.565947 C30.3117506,131.846523 28.9208633,132.374101 27.8177458,131.846523 C26.9064748,131.7506 26.0431655,131.606715 25.1318945,131.606715 C24.5083933,131.318945 24.2206235,130.935252 23.501199,131.079137 C19.9040767,130.935252 17.4100719,130.215827 14.1007194,129.688249 C11.4628297,128.82494 9.64028777,129.064748 7.14628297,128.153477 C5.13189448,127.721823 2.01438849,127.098321 0.191846523,126.330935 L0.191846523,126.282974 C1.05515588,126.235012 1.96642686,126.282974 2.82973621,126.282974 C4.74820144,126.954436 7.48201439,126.714628 9.54436451,126.76259 C12.7098321,126.858513 15.7793765,126.330935 18.9448441,126.330935 C19.616307,125.755396 20.5275779,125.899281 21.3429257,125.851319 C22.3501199,125.227818 23.4052758,125.659472 24.41247,125.083933 C29.352518,124.076739 33.1894484,122.685851 37.8896882,120.911271 C38.8968825,120.479616 39.6642686,119.904077 40.7194245,119.71223 C44.1247002,118.081535 46.8585132,116.690647 50.1199041,114.820144 C62.1582734,107.721823 72.5179856,98.3693046 80.911271,87.146283 C82.206235,86.0431655 83.0695444,84.41247 84.028777,83.0215827 C87.3860911,78.2254197 89.6402878,73.7170264 92.1822542,68.5371703 C96.5467626,59.1846523 99.5683453,48.5851319 100.383693,38.3213429 C100.479616,37.0743405 100.143885,35.58753 100.671463,34.4844125 C101.103118,27.3381295 100.623501,19.3764988 99.3285372,12.3741007 C98.8009592,10.9832134 98.705036,9.30455635 98.4652278,7.8177458 C97.6978417,6.42685851 97.8417266,4.65227818 97.1702638,3.30935252 C97.3141487,2.54196643 96.3069544,1.2470024 96.882494,0.575539568 Z" id="Shape" fill="#231F20" fill-rule="nonzero"></path>
                <path d="M110.935252,27.7218225 C125.563549,45.5155875 140.959233,64.2685851 155.539568,81.9184652 C158.752998,85.6594724 162.589928,88.9688249 166.043165,92.470024 C168.82494,95.1079137 171.510791,97.8896882 174.148681,100.719424 C178.513189,105.515588 183.261391,111.079137 185.419664,117.266187 C186.47482,121.582734 185.083933,126.666667 183.453237,130.695444 C182.446043,133.477218 181.199041,135.731415 179.184652,137.93765 C174.868106,138.22542 170.359712,137.985612 165.995204,138.22542 C163.645084,138.657074 160.623501,138.321343 158.321343,138.944844 C157.026379,138.992806 155.491607,138.944844 154.292566,139.42446 C151.223022,139.520384 147.721823,140.527578 144.652278,140.815348 C143.021583,141.870504 140.57554,141.678657 138.944844,142.781775 C137.074341,143.213429 135.347722,144.268585 133.717026,145.227818 C131.414868,146.714628 129.592326,148.776978 129.448441,151.654676 C129.448441,152.613909 129.832134,153.764988 128.776978,154.244604 C128.153477,154.820144 126.810552,154.676259 126.282974,154.004796 C121.055156,146.47482 112.230216,141.294964 104.1247,137.410072 C102.398082,137.074341 101.294964,135.923261 99.5203837,135.635492 C98.8009592,135.107914 97.9856115,134.868106 97.1223022,134.676259 C94.1486811,133.381295 91.7505995,132.805755 88.7769784,131.7506 C86.1390887,131.366906 83.4052758,130.119904 80.8153477,129.880096 C79.9520384,129.448441 79.1366906,129.304556 78.2254197,129.160671 C75.9232614,128.872902 74.1486811,128.009592 71.7026379,127.961631 C70.647482,127.386091 69.6882494,127.721823 68.6330935,127.242206 C66.618705,127.098321 65.1318945,126.522782 63.0695444,126.522782 C61.5827338,125.755396 59.616307,126.570743 58.3213429,125.515588 C56.7386091,125.515588 55.2517986,125.515588 53.7170264,125.035971 C52.3741007,125.083933 51.558753,125.083933 50.5995204,124.1247 C50.263789,122.35012 51.1270983,121.534772 52.7577938,121.199041 C55.6834532,121.007194 58.4652278,120.239808 61.1990408,120.28777 C61.9664269,119.760192 63.1654676,119.856115 64.0767386,119.808153 C65.323741,119.280576 66.8105516,119.568345 68.1055156,119.136691 C69.3045564,119.040767 70.5035971,118.800959 71.7505995,118.848921 C72.9496403,118.273381 74.5803357,118.609113 75.7793765,118.177458 C78.5131894,118.033573 80.4316547,117.458034 82.9736211,117.458034 C86.0911271,116.594724 89.5443645,116.786571 93.0455635,116.115108 C95.1558753,116.16307 96.6426859,115.395683 98.8009592,115.539568 C100.335731,115.01199 101.77458,115.107914 103.405276,115.059952 C104.460432,114.436451 106.043165,114.676259 107.242206,114.580336 C107.721823,114.148681 108.441247,114.436451 108.201439,113.573141 C107.242206,112.997602 106.47482,112.038369 105.707434,111.223022 C100.047962,105.467626 94.1486811,99.2326139 88.4892086,93.4292566 C87.9616307,91.8944844 88.5851319,90.8393285 90.1678657,90.647482 C95.2517986,91.558753 100.191847,92.3741007 105.467626,93.3333333 C107.242206,93.764988 109.304556,93.5731415 110.983213,94.3884892 C112.805755,94.3884892 114.196643,95.0119904 116.019185,95.1079137 C117.074341,95.6354916 118.465228,95.2997602 119.568345,95.8273381 C120.383693,95.7314149 121.390887,96.3069544 122.110312,95.971223 C122.206235,95.4916067 121.534772,95.059952 121.342926,94.6282974 C114.916067,85.3717026 108.393285,76.1630695 101.918465,66.9064748 C101.438849,66.1390887 101.582734,65.1798561 102.206235,64.5563549 C103.069544,63.6930456 104.268585,64.028777 105.131894,64.6522782 C106.906475,65.0359712 108.201439,66.1870504 109.976019,66.5227818 C111.079137,67.1942446 112.086331,67.6258993 113.333333,67.9616307 C114.292566,68.6810552 115.443645,68.6330935 116.402878,69.3045564 C118.033573,70.0719424 120.047962,70.6954436 121.726619,71.4628297 C123.309353,72.470024 125.179856,72.7577938 126.714628,73.764988 C128.009592,74.0047962 129.016787,74.8201439 130.311751,75.1079137 C131.17506,75.2997602 132.134293,76.2589928 132.997602,76.2110312 C133.189448,75.4436451 132.230216,74.8201439 132.086331,74.0047962 C131.318945,73.0455635 130.88729,71.8944844 130.167866,70.6954436 C123.741007,58.5131894 117.026379,46.3788969 110.455635,34.4844125 C109.880096,33.2853717 109.016787,32.1822542 108.633094,30.9352518 C107.673861,30.3117506 107.386091,28.441247 108.105516,27.5779376 C108.82494,26.618705 110.215827,26.8585132 110.935252,27.7218225 Z" id="Shape" fill="#FFFFFF" fill-rule="nonzero"></path>
                <path d="M121.630695,46.7146283 C123.980815,48.9688249 125.803357,51.7985612 128.009592,54.2446043 C134.292566,61.9184652 140.527578,69.4964029 146.858513,77.1702638 C150.311751,81.294964 153.477218,85.4676259 157.410072,89.1606715 C161.534772,93.1414868 165.707434,97.1702638 169.688249,101.342926 C173.477218,105.515588 177.841727,110.119904 180.431655,115.155875 C181.151079,116.354916 181.294964,117.601918 182.014388,118.705036 C182.35012,121.103118 182.06235,122.973621 181.390887,125.227818 C180.623501,127.817746 179.664269,130.88729 178.177458,133.141487 C177.793765,133.81295 177.410072,134.484412 176.498801,134.436451 C171.654676,134.340528 166.47482,134.628297 161.630695,134.868106 C159.472422,135.29976 157.601918,134.964029 155.395683,135.58753 C154.244604,135.683453 152.853717,135.58753 151.846523,136.067146 C150.935252,136.115108 149.784173,136.067146 148.968825,136.546763 C147.625899,136.498801 146.570743,136.930456 145.323741,137.122302 C142.398082,137.985612 140.28777,138.081535 137.458034,139.42446 C135.58753,139.808153 133.908873,141.055156 132.134293,141.77458 C130.503597,142.973621 128.441247,144.41247 127.482014,146.235012 C127.002398,146.666667 126.858513,147.769784 126.18705,147.865707 C122.398082,144.076739 118.321343,140.959233 113.717026,138.273381 C113.189448,138.129496 112.805755,137.841727 112.517986,137.458034 C109.736211,136.354916 107.194245,134.484412 104.316547,133.669065 C101.630695,132.182254 98.2733813,131.17506 95.4436451,130.167866 C92.9496403,129.11271 89.9760192,128.489209 87.3381295,127.577938 C83.5491607,126.330935 80.4316547,126.139089 76.7865707,124.98801 C74.9160671,124.844125 72.853717,124.172662 71.0311751,124.1247 C69.6402878,123.645084 68.3453237,123.741007 66.9064748,123.165468 C68.9688249,122.254197 69.6402878,123.213429 71.7026379,122.158273 C72.6139089,122.110312 73.4772182,122.158273 74.3884892,122.014388 C76.1630695,121.486811 77.7458034,121.678657 79.6642686,121.390887 C80.8633094,121.103118 81.9664269,121.534772 83.0215827,120.959233 C85.6594724,120.863309 87.3860911,120.239808 90.0239808,120.28777 C91.0791367,119.664269 92.6618705,119.904077 93.8609113,119.808153 C94.9640288,119.280576 96.498801,119.42446 97.6978417,119.328537 C98.705036,118.800959 100.143885,118.896882 101.247002,118.848921 C103.453237,118.177458 106.091127,118.129496 108.441247,117.889688 C109.880096,117.505995 111.510791,117.458034 112.997602,117.410072 C114.100719,116.594724 114.676259,115.491607 113.717026,114.292566 C108.105516,108.393285 102.398082,102.541966 96.7386091,96.6906475 C96.3549161,96.4028777 95.4436451,95.7314149 96.4028777,95.4436451 C98.2733813,95.6834532 100.57554,96.2589928 102.446043,96.3069544 C104.460432,97.3141487 107.05036,96.7865707 109.11271,97.793765 C110.59952,97.7458034 111.990408,98.2733813 113.477218,98.2254197 C115.29976,99.088729 117.553957,98.8009592 119.42446,99.4244604 C120.57554,99.9520384 122.014388,99.7122302 123.261391,100.095923 C124.892086,100 126.235012,101.199041 127.865707,100.191847 C128.729017,99.616307 128.345324,98.6091127 128.345324,97.7458034 C127.769784,97.4580336 127.625899,96.9784173 127.242206,96.498801 C121.534772,88.2973621 115.731415,80.1438849 110.023981,71.942446 C109.688249,71.3189448 108.920863,71.1270983 109.11271,70.4076739 C109.976019,70.263789 110.359712,71.0791367 111.318945,71.1270983 C114.532374,72.3741007 117.266187,73.764988 120.479616,74.9160671 C125.563549,77.2182254 131.46283,79.4244604 136.738609,81.822542 C137.793765,82.4940048 139.136691,81.9184652 139.520384,80.7673861 C139.808153,79.5683453 138.800959,78.4172662 138.321343,77.4100719 C136.786571,74.9640288 135.107914,71.4148681 133.52518,68.7290168 C133.141487,68.057554 132.901679,67.0503597 132.230216,66.618705 C131.846523,65.3717026 130.983213,64.2206235 130.407674,63.0695444 C127.673861,58.3213429 124.796163,52.6139089 122.06235,48.1534772 C121.870504,47.7218225 121.247002,46.8585132 121.630695,46.7146283 Z" id="Shape" fill="#D31145" fill-rule="nonzero"></path>
                <path d="M140,88.8729017 C144.364508,92.0383693 149.496403,96.1630695 153.669065,99.5683453 C158.22542,103.453237 162.685851,107.146283 166.091127,112.182254 C166.570743,113.045564 167.002398,114.196643 167.529976,115.107914 C168.82494,119.472422 167.817746,124.364508 164.41247,127.482014 C161.007194,130.839329 155.923261,131.558753 151.558753,129.688249 C147.482014,128.009592 144.316547,123.453237 144.652278,118.992806 C144.460432,116.642686 145.227818,114.100719 146.666667,112.278177 C147.434053,110.935252 148.489209,109.784173 149.928058,109.160671 C151.366906,107.817746 152.661871,107.961631 154.340528,107.290168 C154.532374,106.954436 154.484412,106.618705 154.148681,106.330935 C149.304556,100.863309 143.261391,95.9232614 138.513189,90.7913669 C137.410072,89.5923261 138.561151,88.1055156 140,88.8729017 Z" id="Shape" fill="#FFFFFF" fill-rule="nonzero"></path>
                <path d="M169.544365,107.194245 C171.846523,109.688249 174.052758,111.990408 175.395683,115.155875 C177.170264,118.22542 177.505995,121.77458 176.882494,125.227818 C176.738609,127.098321 175.443645,128.585132 174.772182,130.263789 C173.860911,130.791367 174.148681,129.544365 174.148681,129.064748 C174.244604,125.947242 173.956835,122.781775 173.81295,119.71223 C173.429257,119.136691 173.381295,118.417266 173.333333,117.793765 C172.422062,116.115108 172.086331,114.052758 171.270983,112.278177 C170.59952,110.88729 170.215827,109.160671 169.208633,107.961631 C168.872902,107.577938 168.82494,106.954436 169.544365,107.194245 Z" id="Shape" fill="#FFFFFF" fill-rule="nonzero"></path>
                <path d="M156.354916,109.640288 C157.36211,110.023981 157.793765,111.654676 158.513189,112.470024 C158.800959,113.189448 158.848921,113.956835 159.328537,114.628297 C160,116.786571 159.184652,118.705036 157.458034,120.095923 C156.498801,120.815348 156.402878,121.582734 157.074341,122.589928 C157.553957,122.685851 158.081535,122.685851 158.561151,122.589928 C160.28777,121.534772 162.302158,120.911271 163.932854,119.808153 C164.41247,119.568345 164.892086,118.944844 165.419664,119.088729 C165.947242,120.527578 164.844125,122.35012 164.316547,123.645084 C161.870504,128.009592 155.923261,129.592326 151.654676,127.002398 C148.872902,125.323741 146.858513,122.302158 147.05036,118.992806 C146.76259,114.004796 151.366906,109.304556 156.354916,109.640288 Z" id="Shape" fill="#231F20" fill-rule="nonzero"></path>
                <path d="M91.3189448,124.460432 C93.2374101,124.316547 95.2038369,124.508393 97.1223022,124.460432 C98.2733813,125.179856 100,124.652278 101.151079,125.179856 C103.741007,125.707434 106.091127,125.755396 108.53717,126.906475 C109.688249,127.05036 110.695444,127.386091 111.7506,127.961631 C116.115108,130.071942 120.671463,133.477218 123.021583,137.841727 C123.261391,138.513189 124.028777,139.760192 123.645084,140.431655 C123.069544,140.57554 122.781775,139.856115 122.254197,139.616307 C121.247002,138.896882 120.191847,138.129496 119.136691,137.458034 C118.752998,136.834532 118.273381,136.834532 117.697842,136.498801 C117.122302,135.683453 115.779376,135.491607 115.059952,134.820144 C110.071942,131.510791 104.98801,128.968825 99.2805755,127.002398 C96.5467626,126.330935 94.3405276,125.803357 91.558753,125.179856 C91.2230216,125.083933 91.1270983,124.844125 91.3189448,124.460432 Z" id="Shape" fill="#FFFFFF" fill-rule="nonzero"></path>
                <path d="M179.856115,143.117506 C182.014388,143.884892 184.1247,144.892086 185.371703,146.954436 C185.947242,148.2494 186.954436,149.832134 186.810552,151.318945 C186.043165,151.510791 186.18705,150.88729 185.707434,150.455635 C183.788969,148.393285 181.151079,147.865707 178.417266,147.961631 C176.019185,148.393285 173.908873,145.419664 175.059952,143.357314 C176.115108,142.63789 178.561151,143.117506 179.856115,143.117506 Z" id="Shape" fill="#FFFFFF" fill-rule="nonzero"></path>
                <path d="M194.484412,157.553957 L194.484412,157.553957 C195.107914,158.081535 195.58753,158.944844 195.539568,159.71223 C196.16307,163.788969 193.908873,167.865707 191.7506,171.127098 C190.503597,172.757794 189.256595,174.868106 187.769784,176.258993 C187.721823,175.923261 187.721823,175.58753 187.769784,175.251799 C188.153477,174.916067 188.441247,174.532374 188.633094,174.052758 C191.366906,169.016787 194.004796,163.357314 194.484412,157.553957 Z" id="Shape" fill="#FFFFFF" fill-rule="nonzero"></path>
            </g>
        </g>
    </g>
</svg>