<?xml version="1.0" encoding="UTF-8"?>
<svg width="200px" height="200px" viewBox="0 0 200 200" version="1.1" xmlns="http://www.w3.org/2000/svg" xmlns:xlink="http://www.w3.org/1999/xlink">
    <!-- Generator: Sketch 54.1 (76490) - https://sketchapp.com -->
    <title>va-wesleyan</title>
    <desc>Created with Sketch.</desc>
    <g id="va-wesleyan" stroke="none" stroke-width="1" fill="none" fill-rule="evenodd">
        <g id="va-wesleyan_BGL">
            <g id="va-wesleyan" transform="translate(0.000000, 26.000000)">
                <path d="M108.552632,0.461504425 C111.118421,2.50530973 113.026316,4.81283186 115.328947,7.12035398 C119.473684,11.2079646 123.947368,14.9 129.013158,17.800885 C134.802632,21.1632743 140.789474,24.1300885 146.776316,26.9650442 C152.105263,29.470354 157.565789,30.7889381 162.5,33.6238938 C164.144737,34.5469027 165.723684,35.6676991 167.368421,36.6566372 C169.605263,38.2389381 173.026316,37.4477876 175.657895,37.5137168 C182.828947,37.5137168 190.394737,38.4367257 196.973684,41.2716814 C198.618421,41.8650442 199.013158,43.1176991 199.605263,44.6340708 C195.526316,45.359292 191.447368,44.8977876 187.302632,45.2933628 C184.144737,45.5570796 181.118421,46.2163717 178.092105,47.0075221 C180.592105,51.490708 183.618421,55.5783186 185.723684,60.3252212 C190.328947,70.0168142 192.171053,80.7632743 189.144737,91.2460177 C188.355263,94.2128319 186.973684,96.9159292 185.789474,99.750885 C185.065789,101.399115 185.723684,103.179204 185.921053,104.893363 C186.842105,109.772124 185.986842,114.650885 184.144737,119.2 C183.355263,120.716372 183.092105,122.232743 181.052632,121.969027 C179.144737,119.529646 178.157895,116.299115 176.907895,113.530088 C172.302632,116.496903 167.434211,118.474779 162.171053,119.99115 C163.157895,126.65 163.75,132.913274 160.723684,139.242478 C158.75,143.264159 155.197368,147.747345 150.592105,148.670354 C150.394737,144.582743 150.986842,140.495133 150.789474,136.407522 C150.592105,130.473894 149.342105,124.672124 146.578947,119.397788 C144.342105,115.178319 141.118421,111.618142 136.973684,109.24469 C133.618421,107.266814 130.131579,106.475664 126.447368,105.223009 C126.842105,104.431858 127.171053,103.50885 127.697368,102.849558 C128.815789,102.124336 130.263158,101.79469 131.578947,101.530973 C137.894737,100.476106 144.276316,101.860619 149.934211,104.827434 C152.631579,106.146018 154.802632,107.992035 157.960526,106.871239 C164.671053,104.431858 170.065789,97.9707965 171.710526,91.1141593 C173.223684,84.9827434 170.263158,78.5216814 164.868421,75.3570796 C157.5,70.939823 146.315789,71.5331858 140.328947,78.1261062 C137.5,81.0929204 135.263158,84.5871681 133.223684,88.1473451 C131.315789,91.5097345 130.394737,95.0699115 128.881579,98.5641593 C126.907895,97.3115044 125.065789,96.1247788 123.618421,94.2787611 C121.644737,91.9712389 120.657895,89.3340708 119.539474,86.5650442 C109.868421,89.4659292 100.131579,91.1141593 90.0657895,91.2460177 C85.1315789,91.1800885 80.6578947,92.8283186 75.9210526,93.4216814 C75.1965232,93.0605498 74.9333654,92.7089274 75.1315789,92.3668142 C76.6434691,89.7573177 77.3643092,87.391563 81.2478584,85.8092621 C85.1314076,84.2269612 86.4936695,83.6526131 85.803651,83.0175724 C83.7641773,81.3693423 81.7763158,82.2137168 79.5394737,82.609292 C54.6052632,88.4769912 30,96.9818584 5.65789474,104.827434 C4.01315789,105.15708 1.44736842,106.409735 0.328947368,104.431858 C0.0657894737,102.388053 1.77631579,101.926549 3.15789474,101.00354 C22.6315789,91.1800885 42.3026316,81.1588496 61.7105263,71.3353982 C66.3157895,68.9619469 70.7236842,66.3247788 75.1315789,63.7535398 C80.1973684,60.7867257 85.5921053,57.4902655 89.8026316,53.4026549 C92.0394737,51.2269912 93.0263158,48.4579646 93.75,45.4911504 C95.8552632,37.1840708 94.3421053,28.3495575 96.25,19.7128319 C97.6973684,12.1969027 102.302632,5.07654867 108.552632,0.461504425 Z" id="Shape" fill="#7F93A0" fill-rule="nonzero"></path>
                <path d="M108.486842,2.57123894 C114.013158,7.31814159 118.552632,12.7243363 124.802632,16.7460177 C130.921053,20.6358407 137.434211,23.9982301 143.947368,27.2287611 C152.039474,31.2504425 161.381579,32.7668142 167.894737,39.3597345 C161.776316,40.4146018 156.118421,42.2606195 150.526316,45.029646 C144.144737,42.6561947 136.381579,43.1176991 129.671053,44.1725664 C130.328947,46.6119469 130.986842,48.919469 130.921053,51.490708 C130.855263,54.2597345 130.065789,56.8969027 128.947368,59.4022124 C126.513158,64.4128319 122.960526,69.5553097 118.223684,72.6539823 C121.052632,68.9619469 124.013158,65.8632743 125.592105,61.3800885 C127.631579,56.3035398 126.381579,50.5017699 122.039474,47.1393805 C121.052632,46.2163717 119.078947,47.1393805 117.894737,47.3371681 C118.552632,49.9743363 119.407895,52.7433628 119.078947,55.4464602 C118.75,57.8858407 117.697368,60.0615044 116.513158,62.1712389 C115.657895,62.7646018 114.802632,63.3579646 113.947368,63.819469 C115,61.0504425 116.578947,57.9517699 116.25,54.9190265 C115.986842,52.6774336 114.473684,51.0292035 113.026316,49.5128319 C111.315789,50.1061947 108.947368,50.5017699 108.223684,52.4137168 C107.105263,54.8530973 105.921053,57.0946903 104.210526,59.1384956 C104.802632,59.4022124 105.328947,59.6659292 105.921053,59.929646 C99.1447368,60.7207965 92.0394737,61.1823009 85.5263158,63.2920354 C87.3684211,63.7535398 89.1447368,64.0831858 90.9868421,64.4787611 C77.2368421,70.939823 63.1578947,76.8075221 49.3421053,83.2026549 C45.5921053,84.850885 41.8421053,86.499115 38.2236842,88.4769912 C34.2763158,90.1911504 30.1315789,91.7075221 26.3157895,93.6853982 C30.0657895,92.7623894 33.75,91.4438053 37.4342105,90.3230088 C52.6315789,85.6420354 67.6973684,80.9610619 83.0921053,76.7415929 C87.6973684,75.5548673 92.6315789,74.3681416 97.4342105,74.3681416 C99.6710526,74.3022124 101.644737,75.0274336 103.552632,76.0163717 C102.631579,77.400885 101.776316,78.6535398 100.263158,79.4446903 C94.8026316,82.609292 88.4868421,83.1367257 83.0263158,85.9057522 C80.6578947,87.0924779 78.8815789,88.9384956 77.3026316,90.9823009 C81.3157895,90.3889381 85.2631579,89.2681416 89.3421053,88.8066372 C94.8684211,88.0154867 100.460526,88.0154867 105.986842,87.0924779 C114.934211,86.3672566 122.5,82.609292 130.263158,78.5216814 C135.328947,75.7526549 140.526316,73.5110619 146.052632,71.7309735 C146.447368,71.7969027 146.776316,71.9287611 147.171053,72.0606195 C144.407895,73.2473451 141.776316,74.5 139.671053,76.7415929 C134.342105,82.4774336 130.855263,89.2022124 128.092105,96.4544248 C124.407895,93.5535398 122.697368,89.5977876 121.118421,85.2464602 C117.763158,86.3672566 114.407895,87.4221239 110.921053,88.2132743 C104.276316,89.6637168 97.5,89.4 90.5921053,90.059292 C85.3947368,90.3889381 80.4605263,92.1690265 75.1973684,92.4327434 C75.4605263,87.4221239 81.25,84.5212389 85.3947368,83.0707965 C86.4473684,82.4774336 88.8815789,82.4115044 88.1578947,80.6973451 C85.5263158,80.4336283 82.9605263,80.7632743 80.3947368,81.290708 C70.8552632,83.1367257 61.3815789,85.7738938 52.0394737,88.5429204 C39.1447368,92.3668142 26.3157895,96.520354 13.5526316,100.739823 C9.60526316,102.058407 5.85526316,103.50885 1.71052632,104.168142 C4.80263158,101.860619 8.15789474,100.476106 11.5131579,98.7619469 C27.4342105,90.5867257 43.2894737,82.5433628 59.2105263,74.5 C66.5789474,70.8738938 73.6842105,66.6544248 80.6578947,62.3690265 C87.7631579,58.0836283 93.4210526,52.479646 99.6052632,47.0734513 C104.934211,42.4584071 110.789474,38.7663717 117.631579,36.7884956 C125.921053,34.349115 134.276316,34.4150442 142.763158,35.6017699 C148.157895,36.2610619 153.223684,37.909292 158.486842,38.8982301 C149.144737,34.8765487 139.078947,32.7668142 128.947368,32.7668142 C129.013158,29.9318584 129.407895,27.0969027 129.868421,24.3278761 C128.289474,27.0309735 127.5,29.8 127.171053,32.8986726 C125.526316,33.030531 123.881579,33.2283186 122.236842,33.360177 C121.907895,30.8548673 121.578947,28.4814159 121.907895,25.9761062 C122.171053,23.8663717 122.894737,21.8225664 123.355263,19.7787611 C122.039474,21.4929204 120.855263,23.0752212 120.328947,25.1849558 C119.671053,27.9539823 119.868421,31.0526549 119.868421,33.8876106 C118.223684,34.349115 116.578947,34.8106195 114.934211,35.2721239 C114.144737,32.7668142 113.421053,30.459292 113.552632,27.8221239 C113.75,24.1960177 115.197368,21.0973451 116.184211,17.6690265 C114.868421,19.3831858 113.618421,21.0314159 113.026316,23.1411504 C111.710526,27.3606195 112.171053,31.9097345 112.368421,36.2610619 C110.855263,36.920354 109.342105,37.579646 107.763158,38.2389381 C106.776316,34.6128319 106.052632,30.9207965 106.184211,27.1628319 C106.184211,22.7455752 107.368421,18.6579646 107.697368,14.3066372 C104.671053,19.119469 104.144737,25.5146018 104.144737,31.1185841 C104.078947,34.019469 105,37.0522124 104.605263,39.8871681 C101.381579,42.7221239 97.7631579,45.1615044 94.6710526,48.260177 C95.4605263,44.5681416 96.25,40.8761062 96.4473684,37.0522124 C96.9736842,30.1955752 96.25,23.6685841 98.2894737,17.0756637 C100.263158,11.339823 103.881579,6.19734513 108.486842,2.57123894 Z" id="Shape" fill="#023E69" fill-rule="nonzero"></path>
                <path d="M175.921053,39.4256637 C159.802632,40.810177 145.131579,49.1172566 134.934211,61.5119469 C136.447368,62.9623894 138.026316,64.149115 140.131579,64.6106195 C143.684211,65.4676991 148.157895,65.7314159 151.052632,63.0283186 C153.486842,60.8526549 155.657895,58.5451327 158.289474,56.5672566 C164.671053,57.6221239 170.592105,58.0176991 176.315789,61.3800885 C180.592105,63.819469 183.289474,67.5774336 185.592105,71.8628319 C186.578947,74.7637168 187.236842,77.6646018 187.565789,80.7632743 C183.947368,77.6646018 180.460526,74.6977876 176.118421,72.8517699 C167.763158,69.0938053 158.815789,69.0278761 149.934211,70.7420354 C148.618421,70.939823 147.368421,71.3353982 146.052632,71.7309735 C140.526316,73.5110619 135.394737,75.7526549 130.263158,78.5216814 L128.947368,78.8513274 C130.592105,77.0053097 132.368421,75.2911504 133.881579,73.2473451 C131.052632,74.8955752 128.552632,76.9393805 125.789474,78.5876106 C119.473684,82.3455752 112.894737,84.6530973 106.052632,87.0924779 C100.526316,88.0154867 95,87.9495575 89.4078947,88.8066372 C85.3289474,89.2681416 81.3815789,90.3889381 77.3684211,90.9823009 C78.9473684,88.8725664 80.7236842,87.0265487 83.0921053,85.9057522 C88.5526316,83.0707965 94.8684211,82.5433628 100.328947,79.4446903 C101.842105,78.6535398 102.697368,77.400885 103.618421,76.0163717 C101.644737,75.0933628 99.6710526,74.3681416 97.5,74.3681416 C92.6973684,74.3681416 87.7631579,75.5548673 83.1578947,76.7415929 C67.8289474,80.9610619 52.6973684,85.6420354 37.5,90.3230088 C33.8157895,91.4438053 30.1315789,92.7623894 26.3815789,93.6853982 C30.1973684,91.7075221 34.3421053,90.2570796 38.2894737,88.4769912 C43.9473684,86.6309735 49.4078947,84.2575221 55.0657895,82.2137168 C70.7236842,76.2141593 86.5131579,70.610177 102.631579,65.9292035 C106.513158,64.8084071 109.934211,63.3579646 114.078947,63.819469 C114.934211,63.2920354 115.789474,62.6986726 116.644737,62.1712389 C119.671053,61.3800885 122.828947,60.7207965 125.921053,60.259292 L125.657895,61.3141593 C124.078947,65.8632743 121.052632,68.8960177 118.289474,72.5880531 C123.026316,69.4893805 126.578947,64.3469027 129.013158,59.3362832 C130.986842,59.0066372 133.223684,58.940708 135,58.0836283 C136.381579,57.0946903 137.434211,55.6442478 138.552632,54.3915929 C141.842105,50.5676991 146.184211,47.5349558 150.526316,44.9637168 C156.052632,42.1946903 161.776316,40.3486726 167.894737,39.2938053 C170.526316,38.8982301 173.223684,39.0300885 175.921053,39.4256637 Z" id="Shape" fill="#FFFFFF" fill-rule="nonzero"></path>
                <path d="M175.921053,39.4256637 C183.421053,39.2938053 190.986842,39.1619469 197.565789,43.2495575 C192.631579,43.5792035 187.894737,43.4473451 183.092105,44.370354 C180.526316,44.8318584 178.092105,45.4911504 175.657895,46.2163717 C179.407895,51.9522124 183.026316,57.6221239 185.460526,64.0831858 C188.815789,72.6539823 190.526316,82.8070796 187.5,91.6415929 C186.578947,94.6743363 184.605263,97.3115044 183.815789,100.344248 C183.75,103.179204 184.802632,105.94823 184.802632,108.783186 C184.934211,112.870796 183.75,116.69469 181.842105,120.320796 C180.328947,117.222124 178.947368,114.057522 177.565789,110.95885 C172.434211,115.04646 166.644737,117.156195 160.460526,118.870354 C161.381579,125.067699 162.434211,130.605752 160.197368,136.737168 C158.75,140.956637 155.855263,144.121239 152.302632,146.626549 C152.434211,142.011504 152.828947,137.528319 152.302632,132.913274 C151.578947,126.584071 149.671053,120.188938 145.855263,114.980531 C142.565789,110.431416 137.763158,107.003097 132.368421,105.486726 C131.381579,105.025221 129.539474,104.893363 129.210526,103.706637 C136.25,101.530973 143.815789,102.981416 150,106.937168 C151.973684,108.057965 154.144737,109.903982 156.513158,109.310619 C160.131579,108.585398 163.486842,106.211947 166.118421,103.772566 C170.131579,100.014602 173.486842,94.6084071 173.75,89.0044248 C174.342105,81.8840708 169.671053,74.6318584 162.960526,72.1924779 C158.881579,70.610177 154.342105,70.8738938 149.934211,70.6761062 C158.815789,68.9619469 167.763158,69.0278761 176.118421,72.7858407 C180.526316,74.6318584 184.013158,77.6646018 187.565789,80.6973451 C187.236842,77.6646018 186.578947,74.7637168 185.592105,71.7969027 C183.486842,64.2150442 178.618421,57.4243363 172.697368,52.4137168 C171.315789,51.490708 169.407895,49.5787611 167.697368,50.5676991 C164.276316,52.0181416 161.25,54.3256637 158.289474,56.5013274 C155.723684,58.4792035 153.486842,60.8526549 151.052632,62.9623894 C148.157895,65.6654867 143.684211,65.4017699 140.131579,64.5446903 C138.026316,64.0831858 136.447368,62.8964602 134.934211,61.4460177 C145.131579,49.1172566 159.802632,40.7442478 175.921053,39.4256637 Z" id="Shape" fill="#023E69" fill-rule="nonzero"></path>
                <path d="M150.526316,45.029646 C146.184211,47.600885 141.842105,50.6336283 138.552632,54.4575221 C137.434211,55.710177 136.381579,57.1606195 135,58.1495575 C133.157895,59.0066372 130.921053,59.0725664 129.013158,59.4022124 C130.065789,56.8969027 130.855263,54.1938053 130.986842,51.490708 C131.052632,48.919469 130.394737,46.6119469 129.736842,44.1725664 C136.315789,43.1176991 144.078947,42.5902655 150.526316,45.029646 Z" id="Shape" fill="#7F93A0" fill-rule="nonzero"></path>
                <path d="M122.105263,47.0734513 C126.513158,50.4358407 127.697368,56.2376106 125.657895,61.3141593 L125.789474,60.1933628 C122.697368,60.6548673 119.539474,61.3141593 116.513158,62.1053097 C117.763158,59.9955752 118.75,57.8199115 119.078947,55.380531 C119.407895,52.6774336 118.618421,49.9084071 117.894737,47.2712389 C119.144737,47.0734513 121.118421,46.0845133 122.105263,47.0734513 Z" id="Shape" fill="#7F93A0" fill-rule="nonzero"></path>
                <path d="M101.776316,49.249115 C99.8684211,51.6884956 98.6842105,54.5234513 97.1052632,57.0946903 C96.1842105,58.7429204 93.75,58.3473451 92.1052632,58.5451327 C93.4210526,56.3035398 94.8026316,53.9960177 96.3815789,51.8862832 C97.9605263,50.7654867 100,50.0402655 101.776316,49.249115 Z" id="Shape" fill="#7F93A0" fill-rule="nonzero"></path>
                <path d="M113.092105,49.4469027 C114.539474,51.0292035 116.052632,52.6774336 116.315789,54.8530973 C116.644737,57.8858407 115.065789,60.9845133 114.013158,63.7535398 C109.934211,63.2920354 106.447368,64.7424779 102.565789,65.8632743 C86.4473684,70.5442478 70.6578947,76.0823009 55,82.1477876 C49.3421053,84.1915929 43.9473684,86.5650442 38.2236842,88.4110619 C41.8421053,86.4331858 45.5921053,84.7849558 49.3421053,83.1367257 C63.1578947,76.7415929 77.2368421,70.8738938 90.9868421,64.4128319 C89.1447368,64.0172566 87.3684211,63.6876106 85.5263158,63.2261062 C92.0394737,61.0504425 99.1447368,60.6548673 105.921053,59.8637168 C105.328947,59.6 104.802632,59.3362832 104.210526,59.0725664 C105.921053,57.0287611 107.105263,54.7871681 108.223684,52.3477876 C108.947368,50.4358407 111.381579,50.0402655 113.092105,49.4469027 Z" id="Shape" fill="#7F93A0" fill-rule="nonzero"></path>
                <path d="M172.631579,52.479646 C178.618421,57.4902655 183.421053,64.2809735 185.526316,71.8628319 C183.223684,67.6433628 180.526316,63.819469 176.25,61.3800885 C170.526316,57.9517699 164.605263,57.5561947 158.223684,56.5672566 C161.118421,54.3256637 164.210526,52.0181416 167.631579,50.6336283 C169.342105,49.6446903 171.25,51.5566372 172.631579,52.479646 Z" id="Shape" fill="#7F93A0" fill-rule="nonzero"></path>
                <path d="M96.3157895,51.9522124 C94.7368421,54.0619469 93.4210526,56.3035398 92.0394737,58.6110619 C91.9736842,57.6880531 91.5789474,56.5013274 92.2368421,55.710177 C93.4210526,54.1938053 94.9342105,53.0070796 96.3157895,51.9522124 Z" id="Shape" fill="#FFFFFF" fill-rule="nonzero"></path>
                <path d="M104.934211,52.809292 C105.723684,55.1827434 105.460526,55.8420354 104.276316,57.9517699 C103.289474,56.8309735 102.236842,55.7761062 101.184211,54.7212389 C102.368421,54.0619469 103.684211,53.4026549 104.934211,52.809292 Z" id="Shape" fill="#FFFFFF" fill-rule="nonzero"></path>
                <path d="M100.460526,55.5783186 C100.526316,56.3035398 100.592105,57.0946903 100.657895,57.8199115 C99.8684211,57.7539823 99.1447368,57.6221239 98.3552632,57.5561947 C99.0789474,56.8969027 99.7368421,56.2376106 100.460526,55.5783186 Z" id="Shape" fill="#FFFFFF" fill-rule="nonzero"></path>
                <path d="M110.131579,72.9176991 C111.842105,74.0384956 112.960526,75.8185841 111.973684,77.8623894 C110.263158,80.9610619 106.513158,82.7411504 103.289474,83.8619469 C105.263158,81.8840708 108.618421,79.7743363 109.473684,77.0053097 C109.934211,75.2252212 108.552632,73.9725664 107.236842,73.1154867 C104.013158,71.269469 99.5394737,71.269469 95.9210526,70.7420354 C100.592105,70.1486726 105.986842,70.1486726 110.131579,72.9176991 Z" id="Shape" fill="#7F93A0" fill-rule="nonzero"></path>
                <path d="M133.815789,73.1814159 C132.302632,75.159292 130.526316,76.8734513 128.881579,78.7853982 L130.197368,78.4557522 C122.434211,82.609292 114.868421,86.3013274 105.921053,87.0265487 C112.763158,84.5871681 119.407895,82.279646 125.657895,78.5216814 C128.486842,76.8734513 130.986842,74.7637168 133.815789,73.1814159 Z" id="Shape" fill="#7F93A0" fill-rule="nonzero"></path>
                <path d="M174.539474,84.3893805 C176.315789,86.8287611 177.763158,89.3340708 178.289474,92.300885 C179.276316,97.4433628 177.302632,102.585841 174.276316,106.673451 C170.921053,111.090708 166.513158,115.310177 161.315789,117.485841 C159.539474,118.211062 158.815789,117.55177 157.5,116.365044 C163.815789,112.343363 170.197368,107.003097 173.881579,100.410177 C176.25,96.190708 176.973684,91.5756637 175.263158,86.9606195 C175,86.1035398 174.736842,85.2464602 174.539474,84.3893805 Z" id="Shape" fill="#FFFFFF" fill-rule="nonzero"></path>
                <path d="M175.263158,86.9606195 C176.973684,91.5756637 176.25,96.190708 173.881579,100.410177 C170.197368,107.003097 163.815789,112.409292 157.5,116.365044 C157.171053,115.112389 156.710526,113.727876 156.907895,112.409292 C158.026316,110.95885 159.934211,109.969912 161.447368,108.980973 C165.592105,106.409735 169.210526,103.179204 171.842105,98.9597345 C174.144737,95.3336283 174.868421,91.2460177 175.263158,86.9606195 Z" id="Shape" fill="#7F93A0" fill-rule="nonzero"></path>
            </g>
        </g>
    </g>
</svg>