<?xml version="1.0" encoding="UTF-8"?>
<svg width="200px" height="200px" viewBox="0 0 200 200" version="1.1" xmlns="http://www.w3.org/2000/svg" xmlns:xlink="http://www.w3.org/1999/xlink">
    <!-- Generator: Sketch 54.1 (76490) - https://sketchapp.com -->
    <title>valley-forge-chrst</title>
    <desc>Created with Sketch.</desc>
    <g id="valley-forge-chrst" stroke="none" stroke-width="1" fill="none" fill-rule="evenodd">
        <g id="valley-forge-chrst_BGL">
            <g id="valley-forge-chrst" transform="translate(0.000000, 14.000000)">
                <path d="M87.2134988,1.16806296 C87.8206903,0.595166286 88.4635989,1.66934755 88.8207703,2.06321401 C90.3923247,4.49802488 91.3566876,7.46992638 92.3210505,10.1911856 C93.678302,9.4392587 95.1069878,8.90216806 96.6785422,8.72313785 C100.107388,8.29346535 103.750537,8.36507743 107.036514,9.47506474 C107.893726,7.32670221 108.893806,5.24995176 109.96532,3.20900736 C110.501077,2.17063214 111.21542,1.38289921 112.144066,0.702584412 C112.608389,1.41870526 113.001277,2.17063214 113.358449,2.95836507 C113.894206,4.10415842 115.037155,4.89189134 116.037235,5.60801219 C118.430283,7.21928408 121.037635,8.54410764 123.644986,9.79731912 C131.681344,13.5927596 139.932004,16.8869155 148.075513,20.3601015 C149.004159,20.7897741 150.147108,21.1120284 150.932885,21.7923432 C151.790096,22.9739426 152.290136,24.4419904 153.040196,25.6952018 C151.361491,26.3755166 149.789936,27.2706677 148.075513,27.8435644 C146.36109,28.4522671 144.646667,28.7745215 142.932245,29.24 C146.86113,29.5622544 150.647148,29.5622544 154.361731,28.0584006 C157.076234,29.9561208 157.969162,32.8922163 160.326494,35.1121909 C157.576274,37.3679716 154.397448,38.4779589 151.004319,39.3731099 C143.539436,41.3066362 135.538796,41.9153389 128.073912,43.4191927 C126.823812,43.705641 125.466561,43.9204773 124.323612,44.493374 C123.787855,45.6391673 123.573552,47.0356029 123.323532,48.2888144 C122.430603,53.4806905 122.037715,58.7799848 121.716261,64.043473 C121.609109,66.0128053 120.751898,67.9821376 119.966121,69.7724397 C122.502038,70.846621 125.180824,71.4911297 127.752458,72.4936989 C128.966841,72.8875654 129.324012,74.1049708 130.35981,74.9643158 C132.181384,76.5755877 134.645867,77.649769 136.86033,78.6165321 C136.538876,79.2968469 136.253138,79.9413557 135.967401,80.6216705 C138.253299,81.6242397 140.61063,82.4477786 143.039396,83.1280934 C150.647148,85.276456 158.647788,86.207413 166.50556,85.8493526 C160.719383,91.5425133 155.611831,97.8085707 150.504279,104.110434 C150.182825,104.468495 150.004239,104.790749 149.504199,104.826555 C148.361251,105.005585 147.182585,105.041391 146.003919,105.113003 L143.664027,104.826555 C144.592673,103.644956 145.554595,102.715327 146.518957,101.533728 C145.590312,100.960831 145.435235,100.543887 144.363721,100.257438 C141.792086,99.5413174 139.431964,98.9543641 136.86033,98.1308251 C135.431644,97.6653465 134.018306,97.5613552 132.768206,96.7020101 C131.732408,95.9858893 131.181304,95.1511609 130.35981,94.1843978 C128.466801,95.5450274 127.55434,96.6269713 125.768482,98.1308251 C122.482505,100.959502 121.914449,103.121502 118.557037,105.914373 C118.807057,106.12921 117.771539,106.437827 115.930083,106.795887 C113.858489,106.867499 111.822612,106.939111 109.751017,106.974917 C116.180103,102.06949 122.537755,96.8776136 128.288215,91.1844529 C126.859529,90.1818837 125.323692,89.3941508 123.966441,88.2483575 C118.466,94.0489363 111.751177,98.7753338 104.857768,102.785611 C102.321851,104.289464 99.6430652,105.50687 97.0714308,106.939111 C94.5712306,107.261366 92.0353134,107.082336 89.5351132,107.010724 C88.2850132,105.972348 87.1420645,104.790749 85.9991159,103.680762 C82.7131386,100.314994 79.855767,96.6985834 77.9270412,92.3660523 C76.0697497,88.4273877 75.1411039,84.2380807 74.4624782,79.9771617 C74.0338724,82.770033 74.0695896,85.7061285 74.176741,88.5348058 C74.5339125,94.693445 75.7482954,100.852084 77.8198898,106.652663 C76.391204,106.545245 74.9982353,106.509439 73.5695496,106.437827 C73.3909638,105.435258 72.8194895,104.432688 72.5694695,103.430119 C70.7478951,96.7701955 70.3907237,89.6805991 71.3908037,82.8774511 C71.6765409,81.0155369 71.4979552,81.1661741 71.8551266,79.3042599 C69.7835322,80.6290834 68.8191693,81.1826085 66.6404235,82.3642079 C60.354206,85.9448121 54.0146919,87.6396547 46.871263,88.5348058 C44.4424971,88.8570602 43.0146484,89.0624554 40.5858826,89.2414856 C41.3716598,90.2082487 41.3662883,90.2534958 42.2234997,91.1844529 C45.8309314,95.0873115 49.5111227,98.8111399 53.04712,102.785611 C53.54716,103.322701 52.9530835,103.322701 53.6317092,103.680762 C54.9532436,104.003016 58.0697737,104.110434 59.4270252,104.110434 C59.2127224,104.253658 57.8182888,105.292034 57.6039859,105.435258 C54.7466143,105.256227 51.5320713,105.041391 48.6746997,104.826555 C43.2456937,98.2740493 38.0667078,91.7573496 31.9947932,85.8135466 C41.0669479,86.4580553 50.1748198,85.0258137 58.6397831,81.8390759 C63.8544862,79.8697436 68.9263208,77.2559025 73.4623981,73.9617466 C73.6052667,73.3172379 73.7124181,72.6369231 73.926721,71.9924143 C74.676781,71.3120995 75.891164,71.0614572 76.8198097,70.7033968 C76.4269211,69.2353491 75.8554468,67.6956893 75.7125782,66.1560294 C75.3554068,61.2147956 74.7839325,56.2377558 73.7481353,51.4039401 C73.2838124,49.3988017 72.7480552,47.3220513 71.8551266,45.424331 C71.6051066,44.9588525 71.4265209,44.493374 70.8907637,44.2427317 C69.7120979,43.669835 68.4262807,43.3475806 67.2118978,43.0253262 C60.3899232,41.3424422 52.6035856,41.0201879 45.9244796,38.8002133 C43.4242795,37.9766743 41.2812508,36.8308809 39.2453735,35.147997 C41.4955536,32.7131861 42.6385023,29.1683879 44.2100566,26.1964864 C45.1029853,24.5852145 45.9601967,22.6516882 47.8174882,21.9355674 C54.0679886,19.2501142 60.3899232,16.6362732 66.6404235,13.95082 C71.462238,11.8382635 76.3554868,9.76151307 80.9629985,7.18347804 C82.57027,6.25252094 84.284693,5.24995176 85.5705102,3.88932216 C86.4634388,3.10158924 86.6063074,2.02740797 87.2134988,1.16806296 Z" id="Shape" fill="#14334F" fill-rule="nonzero"></path>
                <path d="M86.8206102,6.25252094 C87.8921246,8.43668952 87.7135389,10.6208581 87.9278417,12.9840569 C88.499316,10.9073064 88.5707503,8.83055598 88.6421846,6.71799949 C90.713779,11.0505306 91.1423847,15.5262859 92.1781819,20.2526834 C92.9996763,24.9074689 95.6784621,29.3832242 97.7857737,33.5725311 C98.4643994,34.8973547 98.6787023,36.3654024 98.607268,37.8692562 C98.5001165,40.2324549 98.1786622,42.5598477 97.8929251,44.8872404 C94.4283621,43.2043564 91.0709505,41.5930845 87.4635188,40.304067 C85.8205302,39.7311703 84.1061072,39.5163341 82.3916843,39.4805281 C75.2482554,39.2656918 68.0333921,39.5163341 60.8899632,39.1224676 C55.2823715,38.9076314 49.5319112,36.4012084 44.2100566,34.6825184 C44.8886824,33.7515613 45.5673081,32.8922163 46.1387824,31.8896471 C47.3174482,29.8487027 48.0317911,27.3780858 49.3533255,25.4445595 C49.9247998,24.6568266 50.7462941,24.4061843 51.6392227,24.119736 C57.639703,22.2936278 63.3901633,19.930429 69.0691893,17.316588 C73.7124181,15.0966134 78.3556469,12.6618025 82.57027,9.72570703 C84.034673,8.65152577 85.3562073,7.39831429 86.8206102,6.25252094 Z" id="Shape" fill="#295175" fill-rule="nonzero"></path>
                <path d="M97.8572079,10.7998883 C100.46456,10.3702158 104.036274,10.4418279 106.179303,12.23213 C106.286454,13.7001777 105.857848,15.2756436 105.536394,16.7078853 C104.750617,20.1094593 103.893405,23.8332876 102.143265,26.8768012 C101.500357,27.9509825 100.535994,29.24 99.1787423,29.3832242 C97.7143394,29.3474181 96.8571279,28.0225946 96.2499364,26.8409952 C94.8926849,24.0839299 94.2497763,20.8971922 93.7140192,17.8894846 C93.4639991,16.2424067 93.0711106,14.4879106 93.178262,12.8050267 C94.2854935,11.6234273 96.2856536,11.1579487 97.8572079,10.7998883 Z" id="Shape" fill="#295175" fill-rule="nonzero"></path>
                <path d="M115.680063,44.0278954 C117.144466,43.8130592 118.573152,43.9562833 120.037555,44.0995075 C119.21606,48.5752628 118.430283,53.015212 117.894526,57.5267733 C117.787375,58.4219243 117.573072,59.2812694 117.001597,59.9973902 C115.46576,62.0025286 113.072712,63.5421884 110.929683,64.7953998 C111.072551,67.0153745 111.251137,69.2711551 111.21542,71.4911297 C111.179703,72.0282204 111.179703,72.7085352 110.893966,73.1382077 C109.96532,73.9259406 108.536634,74.1407768 107.429403,74.4630312 C104.7149,73.3172379 102.46472,72.9949835 99.5359137,73.6036862 C99.5001966,72.6369231 99.4644795,71.705966 99.3930452,70.7392028 C100.750297,70.058888 102.2147,69.5934095 103.643385,69.1279309 C104.572031,68.8772887 105.143505,68.2685859 105.786414,67.5882711 C105.429243,66.2634476 105.179223,64.7595938 104.429163,63.6138005 C103.893405,62.7544554 103.250497,62.1099467 103.107628,61.0357654 C102.786174,58.8874029 102.393285,56.7390404 102.286134,54.5548718 C102.2147,53.3374664 103.21478,52.3348972 104.21486,51.7978065 C105.572111,51.1174917 107.107948,50.7952374 108.572351,50.3655649 C108.893806,50.7594313 109.179543,51.1174917 109.500997,51.5113582 C108.608068,51.8694186 107.71514,52.2632851 106.857928,52.6929576 C109.608149,52.8361818 112.179783,52.4781214 114.787135,51.5471643 C113.929923,51.4397461 113.072712,51.368134 112.179783,51.296522 C112.429803,50.7236253 112.644106,50.1507286 112.894126,49.5420259 C114.751417,49.1481594 116.608709,48.754293 118.466,48.3604265 C117.430203,47.6443057 116.394406,46.7491546 115.251457,46.212064 C114.21566,46.0688398 113.001277,46.6775425 112.036914,47.0356029 C108.108028,48.790099 104.107708,49.7568621 100.000237,50.9384615 C100.000237,50.2581467 100.000237,49.5778319 99.9645195,48.9333232 C99.607348,48.8259051 99.2144594,48.6826809 98.857288,48.5394567 C100.786014,48.754293 102.643305,48.2172023 104.46488,47.6084996 C108.21518,46.5343184 111.751177,44.6007921 115.680063,44.0278954 Z" id="Shape" fill="#BDBEC0" fill-rule="nonzero"></path>
                <path d="M76.891244,44.2069256 C77.141264,47.8591419 77.2126983,51.5113582 77.7484555,55.1635745 C78.1770612,53.051018 78.2842127,51.0100736 78.855687,48.9691292 C79.2842927,47.5010815 79.7128984,46.0330338 80.1415042,44.6007921 C82.57027,44.4575679 85.4990759,43.7414471 87.7849731,44.6724042 C91.4995562,45.9614217 95.2141392,47.2862452 98.8930051,48.6468748 C99.2501766,48.790099 99.6430652,48.8975171 100.000237,49.0407413 C100.035954,49.7210561 100.035954,50.4013709 100.035954,51.0458797 C99.7144995,52.191673 98.9287223,53.3374664 99.2501766,54.5190658 C99.7502166,56.8822645 99.357328,59.4244935 99.357328,61.8593044 C99.1787423,64.2583092 99.4644795,66.621508 99.3930452,69.0205128 C98.1786622,68.8772887 97.2142993,68.4118101 96.142785,67.8031074 C95.3212907,67.3376288 94.5355135,67.6598832 93.6425849,67.6956893 C93.9640392,65.7263569 94.7855335,63.9718609 95.6070278,62.1815588 C93.6068677,63.7928307 92.8925248,66.0128053 92.428202,68.4476161 C93.3925649,68.8414826 94.4283621,69.0563189 95.4284421,69.3069612 C96.7856936,69.7366337 98.0715108,70.3453364 99.3930452,70.8108149 C99.4644795,71.7775781 99.5001966,72.7085352 99.5359137,73.6752983 C98.0715108,73.5678802 96.7499765,73.1382077 95.2855735,73.424656 C93.3211306,73.7827164 91.4281219,74.4272252 89.7494161,75.5372125 C91.1423847,75.5014064 92.4996362,75.3581823 93.8926049,75.2507642 C96.142785,75.0717339 98.4286823,75.3223762 100.71458,75.3581823 C100.786014,76.002691 100.857448,76.6471998 100.928882,77.3275146 L100.250257,77.5065448 C97.8929251,77.3991267 95.5713107,77.685575 93.2496963,77.9362173 C93.5354334,78.2584717 93.8211706,78.5807261 94.1426249,78.8671744 C95.9284821,78.6881442 97.7143394,78.509114 99.5359137,78.5807261 C99.6430652,80.3352221 99.857368,81.9823001 99.6430652,83.7367961 C99.3930452,85.7061285 98.6429851,87.4248185 97.8929251,89.2151206 C97.1428651,89.2509266 96.4285222,89.2509266 95.6784621,89.2509266 C94.7140992,89.1793145 93.8211706,89.2867327 92.9996763,88.6064179 C86.3205702,83.4861538 80.9629985,76.4323635 78.0699098,68.4834222 C76.7840926,65.4041026 77.1769812,61.5728561 76.9983955,58.2787002 C76.8198097,57.311937 76.0340325,56.452592 75.891164,55.4142168 C75.5339925,52.9435999 75.4625582,50.4013709 75.2839725,47.894948 C75.2482554,46.8565727 75.1768211,45.7823915 75.3911239,44.7798223 C75.8197297,44.52918 76.3554868,44.3859558 76.891244,44.2069256 Z" id="Shape" fill="#FFFFFF" fill-rule="nonzero"></path>
                <path d="M83.8560872,46.4627063 C84.1418244,46.2836761 84.4989958,46.24787 84.8918844,46.3194821 C86.7491759,46.7133486 88.4635989,47.7159177 90.2494561,48.2888144 C91.8567276,48.8975171 93.678302,49.2555776 95.1427049,50.1865347 C95.5355935,50.7594313 95.6784621,51.5113582 95.9284821,52.155867 C94.2497763,51.5113582 92.5710705,50.9742676 90.8209304,50.508789 C90.4994761,50.9026555 90.213739,51.2607159 89.8922847,51.6545824 C90.7852133,52.0126428 91.6781419,52.3707032 92.5710705,52.8361818 C89.7851332,53.015212 87.0706303,52.5497334 84.4632787,51.7261945 C85.3919245,51.5829703 86.2848531,51.4755522 87.2134988,51.4039401 C86.9634788,50.8310434 86.7491759,50.2939528 86.4991559,49.6852501 C84.6418644,49.2913836 82.7845729,48.8975171 80.9272814,48.4678446 C81.8916443,47.7875298 82.8560072,47.071409 83.8560872,46.4627063 Z" id="Shape" fill="#14334F" fill-rule="nonzero"></path>
                <path d="M115.251457,46.3552881 C116.394406,46.8923788 117.430203,47.7517238 118.466,48.5036507 C116.608709,48.8975171 114.751417,49.2913836 112.894126,49.6852501 C112.679823,50.2581467 112.429803,50.8310434 112.179783,51.4397461 C113.036994,51.5113582 113.929923,51.5829703 114.787135,51.6903884 C112.179783,52.6213455 109.608149,52.9794059 106.857928,52.8361818 C107.71514,52.4065093 108.608068,52.0484488 109.500997,51.6545824 C109.179543,51.2607159 108.893806,50.9026555 108.572351,50.508789 C107.143666,50.9384615 105.572111,51.2607159 104.21486,51.9410307 C103.179063,52.4781214 102.2147,53.4806905 102.286134,54.698096 C102.357568,56.8464585 102.750457,59.0306271 103.107628,61.1789896 C103.250497,62.2531709 103.893405,62.8618736 104.429163,63.7570246 C105.143505,64.902818 105.429243,66.4066717 105.786414,67.7314953 C105.143505,68.3760041 104.572031,69.0205128 103.643385,69.2711551 C102.178982,69.7366337 100.750297,70.1663062 99.3930452,70.882427 C98.0715108,70.4169485 96.7856936,69.8082457 95.4284421,69.3785732 C94.4283621,69.0921249 93.3925649,68.8772887 92.428202,68.5192282 C92.8568077,66.0844174 93.6068677,63.8644428 95.6070278,62.2531709 C94.8212506,64.079279 93.9640392,65.797969 93.6425849,67.7673013 C94.5355135,67.6956893 95.3212907,67.3734349 96.142785,67.8747195 C97.1785822,68.4476161 98.1786622,68.9489007 99.3930452,69.0921249 C99.4644795,66.6931201 99.1787423,64.3299213 99.357328,61.9309165 C99.3930452,59.5319117 99.7502166,56.9538766 99.2501766,54.5906778 C98.9287223,53.4090784 99.7144995,52.2632851 100.035954,51.1174917 C104.143425,49.9358924 108.143746,48.9691292 112.072632,47.2146332 C113.001277,46.7849606 114.21566,46.1762579 115.251457,46.3552881 Z" id="Shape" fill="#14334F" fill-rule="nonzero"></path>
                <path d="M78.0341926,73.460462 C80.105787,80.4426403 84.4989958,86.3506372 90.1065875,90.8980046 C88.9279218,91.5783194 87.7849731,92.1870221 86.8563274,93.1895913 C85.784813,94.2995786 85.0704701,95.8392384 84.3204101,97.199868 C82.4988357,94.8724752 80.8915642,92.4018583 79.6771813,89.7164052 C77.391284,84.7751714 76.5697897,79.332653 76.9626783,73.8901346 C77.3198498,73.7469104 77.6770212,73.6036862 78.0341926,73.460462 Z" id="Shape" fill="#FFFFFF" fill-rule="nonzero"></path>
                <path d="M100.643145,75.3581823 C102.321851,75.3939883 104.036274,75.4656004 105.71498,75.6088246 C105.322091,76.2533333 104.929203,76.9694542 104.393445,77.4707388 C103.143345,77.9720234 101.46464,77.5781569 100.143105,77.4707388 L100.821731,77.2917086 C100.821731,76.6830058 100.750297,76.0384971 100.643145,75.3581823 Z" id="Shape" fill="#BDBEC0" fill-rule="nonzero"></path>
                <path d="M72.9980752,77.3275146 C72.6409038,79.1894288 72.1765809,81.0155369 71.8908438,82.8774511 C70.8550466,89.6805991 71.212218,96.7701955 73.0695095,103.430119 C73.3195295,104.432688 73.5338324,105.435258 73.7124181,106.437827 C68.2834121,106.187185 62.818689,105.900736 57.389683,105.471064 C57.6039859,105.32784 57.8540059,105.148809 58.0683088,105.005585 C56.7110573,105.005585 55.2466543,105.184615 53.8894028,104.862361 C53.2107771,104.504301 52.6393028,103.859792 52.1392628,103.322701 C48.6032654,99.3482305 45.0672681,95.3737598 41.4598365,91.4709012 C40.6383422,90.5757502 39.852565,89.6089871 39.0667878,88.6422239 C41.4955536,88.4631937 43.8886023,88.4273877 46.3173682,88.0693272 C53.4607971,87.1383701 60.5327918,84.9183955 66.8190092,81.3735974 C68.997755,80.1561919 70.9264809,78.6523382 72.9980752,77.3275146 Z" id="Shape" fill="#295175" fill-rule="nonzero"></path>
                <path d="M99.4287623,78.54492 C100.928882,79.2252348 102.286134,80.3710282 103.607668,81.3735974 C104.679183,82.2329424 106.107868,83.3787357 106.46504,84.7751714 C106.679343,85.5987103 106.000717,86.3148312 105.429243,86.8161158 C104.250577,87.7470729 102.786174,88.3557756 101.357488,88.9286723 C99.607348,89.6805991 97.3928851,89.3225387 95.4998764,89.2867327 C96.2499364,89.2867327 96.9642793,89.2867327 97.7143394,89.2509266 C98.4643994,87.4248185 99.2144594,85.7419345 99.4644795,83.7726022 C99.7502166,81.946494 99.5716309,80.2994161 99.4287623,78.54492 Z" id="Shape" fill="#BDBEC0" fill-rule="nonzero"></path>
                <path d="M118.466,83.8084082 C120.144706,84.5603351 121.787695,85.4196801 123.466401,86.2432191 C114.822852,94.5502209 104.21486,100.458218 93.3568477,105.363646 C89.8922847,103.179477 86.8920445,100.386606 84.3204101,97.235674 C85.0704701,95.8750444 85.8205302,94.3353846 86.8563274,93.2253973 C87.7849731,92.2228281 88.9636389,91.6141254 90.1065875,90.9338106 C91.8567276,92.3302463 93.7140192,93.6550698 95.6784621,94.8008632 C96.0713507,94.9798934 96.5356736,95.3021478 96.9999965,95.2663417 C98.3215308,95.0873115 99.6430652,94.5860269 100.928882,94.1205484 C107.357968,91.6141254 113.001277,87.9261031 118.466,83.8084082 Z" id="Shape" fill="#BDBEC0" fill-rule="nonzero"></path>
                <path d="M124.073592,88.2125514 C125.430844,89.3583448 126.966681,90.1460777 128.395367,91.1486469 C122.644906,96.8418076 116.251537,102.033684 109.858169,106.939111 C106.46504,107.04653 103.071911,107.04653 99.6787823,107.082336 C99.5359137,107.512008 99.3930452,107.977487 99.2144594,108.442965 C99.0001566,108.013293 98.8215709,107.547814 98.607268,107.082336 C98.1429451,107.010724 97.6429051,106.974917 97.1785822,106.903305 C99.7502166,105.471064 102.429002,104.217852 104.96492,102.749805 C111.858329,98.7753338 118.573152,94.0131302 124.073592,88.2125514 Z" id="Shape" fill="#BDBEC0" fill-rule="nonzero"></path>
                <path d="M130.681264,93.1179792 C131.467041,94.0847423 132.074233,95.1231175 133.145747,95.8392384 C134.395847,96.7343894 135.895967,97.3072861 137.36037,97.7727647 C139.896287,98.5963036 142.503639,99.2408124 145.075273,99.9569332 C146.146788,100.243382 147.075433,100.816278 147.968362,101.389175 C147.003999,102.534968 146.039636,103.716568 145.11099,104.898167 L146.11107,105.041391 C136.11027,105.829124 126.073752,106.402021 116.072952,106.724275 C115.822932,106.509439 115.608629,106.294603 115.358609,106.079766 C118.71602,103.286895 122.073432,100.52983 125.359409,97.7011526 C127.073832,96.1972988 128.788255,94.4786088 130.681264,93.1179792 Z" id="Shape" fill="#295175" fill-rule="nonzero"></path>
                <path d="M67.747655,107.22556 C77.7841726,107.76265 87.8564074,108.192323 97.9286422,108.192323 C98.357248,109.731983 98.7144194,111.307449 99.1787423,112.847108 C99.607348,111.307449 100.000237,109.731983 100.428842,108.156517 C112.036914,108.084905 123.609269,107.655232 135.181624,106.939111 C147.063528,106.246861 168.405712,104.182116 199.208178,100.744876 C184.621296,107.356919 175.470563,111.510349 171.75598,113.205169 C166.75558,115.425143 161.398008,117.931566 157.076234,121.368946 C155.397528,122.622158 154.361731,124.305042 153.004479,125.844702 C153.040196,130.821742 153.004479,135.762975 153.004479,140.740015 C147.754059,140.560985 142.503639,140.238731 137.253219,139.952282 C137.253219,143.568693 137.253219,147.185103 137.253219,150.801513 C129.60975,150.515065 121.966281,150.228616 114.358529,150.049586 C114.358529,146.898654 114.322812,143.747723 114.287094,140.596791 C113.21558,143.676111 112.358369,146.827042 111.179703,149.870556 C109.608149,150.085392 107.929443,149.906362 106.322171,149.870556 C100.071671,149.83475 93.8211706,149.798944 87.5706703,149.977974 C86.3562874,146.934461 85.1419044,143.855141 83.9632387,140.811627 C83.6417844,142.315481 83.3203301,143.747723 82.57027,145.072546 C81.4273214,147.185103 79.4628784,148.653151 77.2126983,149.405077 C74.2838925,150.407647 70.8193294,150.371841 67.747655,150.515065 C62.9972747,150.729901 58.2111774,150.908931 53.4607971,151.123767 C50.9963141,151.231186 48.6032654,151.052155 46.3888025,149.83475 C44.2100566,148.653151 42.7456537,146.540594 42.067028,144.177395 C41.1740993,141.169688 41.4955536,138.305204 41.4241194,135.225885 C41.3526851,131.502056 41.3526851,127.814034 41.3169679,124.126012 C41.3884022,122.69377 40.0311507,121.512171 39.1025049,120.61702 C35.423639,117.394476 30.7446931,115.067083 26.3157672,113.026139 C22.6726184,111.307449 13.9034641,107.37629 0.00830423614,101.232663 C32.2620765,104.559548 54.84186,106.55718 67.747655,107.22556 Z" id="Shape" fill="#14334F" fill-rule="nonzero"></path>
                <path d="M86.1062673,103.644956 C87.2849331,104.754943 88.4278817,105.936542 89.6422647,106.974917 C86.8563274,106.867499 84.0703901,106.867499 81.2844528,106.724275 C82.7488557,105.471064 84.284693,104.361076 86.1062673,103.644956 Z" id="Shape" fill="#BDBEC0" fill-rule="nonzero"></path>
                <path d="M22.7797698,107.261366 C24.4584756,107.153948 26.1014643,107.297172 27.7444529,107.547814 C29.8874816,107.905875 32.0305103,107.977487 34.173539,108.192323 C43.0313909,109.159086 51.9249599,109.696177 60.7828118,110.412298 C60.8542461,115.246113 60.8185289,120.079929 60.8185289,124.913745 C60.8542461,127.885646 60.6399432,130.821742 61.0328318,133.793643 C62.1400633,133.757837 63.2472947,133.722031 64.3545262,133.686225 C64.3902434,127.885646 64.3902434,122.120873 64.3902434,116.320294 C64.3188091,114.422574 64.3545262,112.56066 64.6045462,110.698746 C67.9262407,110.877776 71.212218,111.092612 74.5339125,111.164224 C79.0699898,111.665509 83.5703501,111.343255 88.1064274,111.665509 C90.4994761,111.808733 92.928242,111.737121 95.3212907,111.844539 C96.3213707,116.570937 97.7500565,121.189916 98.9287223,125.880508 C99.1430252,125.808896 99.3216109,125.77309 99.5359137,125.701478 C100.071671,123.016024 100.893165,120.402183 101.571791,117.752536 C102.071831,115.747398 102.643305,113.778065 103.21478,111.772927 C104.857768,111.772927 106.46504,111.772927 108.108028,111.665509 C112.536954,111.343255 116.930163,111.701315 121.323372,111.164224 C132.074233,110.84197 142.753659,109.946819 153.468802,109.194892 C157.647708,108.76522 161.826614,108.407159 165.969803,107.977487 C169.327214,107.798456 172.291737,107.010724 175.613432,107.261366 C174.541918,108.013293 173.470403,108.657801 172.25602,109.087474 C166.434126,111.450673 160.897968,114.171932 155.754699,117.859954 C154.075994,119.07736 152.718742,120.581214 151.397208,122.156679 C147.432605,122.264097 143.503719,122.51474 139.539116,122.8728 C137.467521,123.016024 135.538796,122.729576 133.538635,123.553115 C136.431724,123.875369 139.431964,123.588921 142.36077,123.660533 C144.718102,123.732145 147.003999,123.230861 149.361331,123.553115 C149.325613,127.993064 149.397048,132.468819 149.325613,136.944575 C145.789616,137.051993 142.289336,136.693932 138.789056,136.550708 C137.074633,136.407484 135.36021,136.228454 133.61007,136.300066 C133.61007,139.88067 133.645787,143.425468 133.61007,147.006073 C128.35965,147.041879 123.144946,146.827042 117.894526,146.612206 C117.751658,142.601929 117.96596,138.627459 117.680223,134.617182 C117.46592,129.675948 117.751658,124.734714 117.46592,119.793481 C116.251537,122.228291 115.680063,124.806326 114.751417,127.384362 C113.179863,132.110759 111.751177,136.872963 110.143906,141.59936 C109.46528,143.425468 109.393846,145.179964 108.000877,146.648012 C106.250737,146.325758 104.500597,146.254146 102.71474,146.289952 C99.4644795,146.361564 96.3213707,146.110922 93.0711106,146.468982 C91.8210105,146.612206 90.6423447,146.468982 89.4279618,146.254146 C87.4635188,140.095506 85.3919245,133.972673 83.3560472,127.84984 C82.4988357,125.343417 81.9987957,122.801188 80.7486956,120.437989 C80.2843728,123.266667 80.4986756,126.023732 80.4629585,128.888215 C80.4272413,132.468819 80.4986756,136.049424 80.4272413,139.630028 C80.3558071,142.172257 79.355727,144.535456 77.0341126,145.752861 C74.3910439,147.006073 70.962198,146.970267 68.0691093,147.006073 C65.3188891,146.934461 62.6043861,147.399939 59.854166,147.399939 C56.8182087,147.435745 53.5679485,147.901224 50.5677084,147.578969 C48.8890026,147.399939 47.3888825,146.5764 46.4245196,145.215771 C45.3887224,143.783529 44.9601167,142.100645 44.9958338,140.346149 C44.9958338,136.514902 44.9958338,132.719462 44.9601167,128.888215 C44.8886824,126.704047 44.9601167,124.41246 44.5672281,122.228291 C43.9600366,120.366377 42.317048,118.755105 40.852645,117.501894 C36.388002,113.849678 30.958996,111.20003 25.6371414,109.015862 C24.6013442,108.550383 23.6726984,107.905875 22.7797698,107.261366 Z" id="Shape" fill="#7E1839" fill-rule="nonzero"></path>
                <path d="M29.9946331,109.230698 C39.8168478,110.233267 49.6390626,111.056806 59.4612774,111.772927 C59.4255603,119.148972 59.4612774,126.48921 59.4255603,133.865255 C59.4612774,134.438152 59.3184088,135.440721 60.2113375,135.369109 C62.068629,135.297497 64.0330719,135.333303 65.8189292,134.939436 C65.9260806,133.757837 65.8903635,132.540432 65.8903635,131.358832 C65.8903635,124.949551 65.8903635,118.576075 65.8903635,112.166794 C70.2835723,112.453242 74.6410639,112.596466 79.0342727,112.811302 C79.0342727,121.368946 79.0342727,129.962397 79.0342727,138.520041 C79.0342727,140.023894 78.8914041,141.77839 77.9984755,143.031602 C77.2126983,144.141589 75.9983154,144.67868 74.7124982,144.965128 C72.2837324,145.502219 69.5692294,145.466413 67.0333121,145.573831 C62.4972347,145.824473 57.9968745,145.931891 53.4607971,146.146728 C51.6392227,146.21834 49.5319112,146.254146 48.1032254,144.929322 C46.7102568,143.640305 46.4959539,141.348718 46.4602368,139.558416 C46.4602368,135.261691 46.4245196,130.964966 46.3173682,126.668241 C46.2459339,125.128581 46.4602368,123.445697 46.1030653,121.941843 C45.4601567,119.829287 43.7457338,118.038985 42.1027451,116.606743 C38.4953135,113.527423 34.2092561,111.271643 29.9946331,109.230698 Z" id="Shape" fill="#FFFFFF" fill-rule="nonzero"></path>
                <path d="M168.398569,109.194892 C165.612631,110.48391 162.826694,111.772927 160.147908,113.312587 C156.611911,115.353531 153.290216,117.466088 150.682865,120.652826 C144.539516,121.046692 138.431884,121.440559 132.288535,121.727007 C132.288535,122.908606 132.288535,124.126012 132.288535,125.307611 C137.538956,125.128581 142.753659,124.985357 148.004079,124.877939 C148.004079,128.422737 148.004079,131.967535 148.004079,135.512333 C142.753659,135.261691 137.503239,134.867824 132.252818,134.652988 C132.288535,138.305204 132.252818,141.957421 132.252818,145.573831 C127.931044,145.430607 123.609269,145.251577 119.287495,145.144158 C119.21606,134.36654 119.073192,123.553115 119.001758,112.775496 C135.467361,112.095182 151.968682,110.877776 168.398569,109.194892 Z" id="Shape" fill="#FFFFFF" fill-rule="nonzero"></path>
                <path d="M163.75534,110.340685 C161.75518,111.808733 159.469283,112.73969 157.397688,114.10032 C154.718902,115.747398 152.361571,117.609312 150.254259,119.972511 C149.825653,119.972511 149.361331,119.936705 148.932725,119.936705 C151.397208,117.108027 154.397448,115.138695 157.611991,113.240975 C159.612151,112.130988 161.469443,110.913582 163.75534,110.340685 Z" id="Shape" fill="#BDBEC0" fill-rule="nonzero"></path>
                <path d="M36.9951934,112.023569 C40.6383422,113.706453 44.4600766,115.99804 46.9959939,119.184778 C48.6032654,121.225722 48.5318311,123.481503 48.5318311,125.95212 C48.496114,129.998203 48.6389826,134.080091 48.6389826,138.126174 C48.6389826,139.594222 48.6032654,141.169688 49.0318712,142.601929 C49.3533255,143.747723 50.2105369,144.607068 50.960597,145.502219 C49.9605169,145.108352 48.746134,144.821904 48.1389426,143.855141 C47.2460139,142.458705 47.2102968,140.453567 47.1745796,138.842295 C47.2102968,134.438152 47.0674282,129.998203 47.1031454,125.594059 C47.1031454,123.624727 47.1388625,121.870231 46.0673482,120.115735 C43.7814509,116.356101 40.4240393,114.494186 36.9951934,112.023569 Z" id="Shape" fill="#BDBEC0" fill-rule="nonzero"></path>
                <path d="M118.037395,112.811302 C114.537115,123.517309 111.072551,134.223316 107.607988,144.893516 C101.928962,144.85771 96.2499364,144.85771 90.6066276,144.893516 C87.0706303,134.18751 83.5703501,123.481503 79.9986356,112.811302 C84.7132987,112.954527 89.3922447,113.169363 94.1069078,113.169363 C95.8213307,119.542838 97.4286022,125.916314 99.1787423,132.289789 C100.9646,125.916314 102.607588,119.507032 104.322011,113.133557 C108.858089,113.097751 113.4656,112.91872 118.037395,112.811302 Z" id="Shape" fill="#FFFFFF" fill-rule="nonzero"></path>
                <path d="M66.6404235,112.91872 C67.1404635,112.954527 67.6047864,112.954527 68.1048264,112.990333 C68.0691093,119.686062 68.0691093,126.417598 68.1048264,133.113328 C68.0691093,133.757837 68.0691093,134.438152 67.9262407,135.082661 C67.497635,135.369109 66.9618778,135.583945 66.4975549,135.762975 C66.6761406,133.578807 66.6761406,131.394638 66.6404235,129.174664 C66.6404235,123.767951 66.6404235,118.325433 66.6404235,112.91872 Z" id="Shape" fill="#BDBEC0" fill-rule="nonzero"></path>
                <path d="M130.10979,121.906037 C130.574112,121.762813 131.074152,121.691201 131.538475,121.583783 C131.574193,122.836994 131.60991,124.161818 131.395607,125.379223 C131.002718,125.415029 130.60983,125.415029 130.216941,125.379223 C129.931204,124.305042 129.931204,123.016024 130.10979,121.906037 Z" id="Shape" fill="#BDBEC0" fill-rule="nonzero"></path>
                <path d="M145.789616,125.594059 C146.289656,125.629865 146.789696,125.629865 147.254019,125.665671 C147.218302,128.709185 147.254019,131.752699 147.254019,134.796212 C146.753979,134.760406 146.253939,134.7246 145.753899,134.652988 C145.789616,131.645281 145.753899,128.637573 145.789616,125.594059 Z" id="Shape" fill="#BDBEC0" fill-rule="nonzero"></path>
                <path d="M130.074072,134.7246 C130.538395,134.617182 131.038435,134.581376 131.502758,134.509764 C131.502758,137.947144 131.502758,141.42033 131.502758,144.85771 C131.002718,144.85771 130.502678,144.821904 130.002638,144.821904 C130.074072,141.42033 129.895487,138.054562 130.074072,134.7246 Z" id="Shape" fill="#BDBEC0" fill-rule="nonzero"></path>
                <path d="M84.1061072,144.607068 C84.9990359,146.791236 85.8205302,148.975405 86.8563274,151.087961 C88.2850132,151.947306 88.4832015,153.07677 88.7332215,154.509012 C89.0189586,156.943823 89.5640637,159.529026 90.055872,162.151364 C88.2700148,160.253644 85.9991159,157.961288 84.1061072,156.170986 C82.07023,154.165847 80.06278,152.473837 78.3126399,150.218056 C80.4556686,149.215487 82.4631186,147.507357 83.6060672,145.430607 C83.7846529,145.179964 83.9632387,144.893516 84.1061072,144.607068 Z" id="Shape" fill="#295175" fill-rule="nonzero"></path>
                <path d="M113.21558,147.292521 C113.287014,148.581538 113.251297,149.906362 113.287014,151.19538 C116.18537,151.266992 118.579186,151.266992 119.033498,151.73247 C117.604813,153.845027 115.891715,155.579417 114.141575,157.441331 C112.605738,159.088409 110.145231,161.63861 108.395091,163.106658 C109.466605,159.490248 110.270416,155.384686 110.984758,151.660858 C110.377567,151.589246 110.429643,151.087961 109.822451,151.052155 C110.536794,151.052155 111.251137,151.052155 111.96548,151.052155 C112.394086,149.798944 112.751257,148.509926 113.21558,147.292521 Z" id="Shape" fill="#295175" fill-rule="nonzero"></path>
                <path d="M78.605667,150.085392 C80.3558071,152.341173 82.3916843,154.167281 84.4275615,156.172419 C86.3205702,157.962722 88.1064274,159.860442 89.8922847,161.758162 C89.3208104,159.394963 88.6064675,157.103376 88.3564475,154.668566 C88.0707103,153.200518 88.3207303,151.983112 86.8920445,151.123767 C88.0349932,151.123767 89.1779418,151.087961 90.3566076,151.087961 C90.5351933,156.029195 91.1781019,160.970429 92.2853334,165.768439 C90.463759,164.300391 88.6064675,162.832343 86.7848931,161.364296 C82.8560072,158.213364 79.2485756,154.740178 75.891164,150.980543 C76.7840926,150.694095 77.6770212,150.443453 78.605667,150.085392 Z" id="Shape" fill="#14334F" fill-rule="nonzero"></path>
                <path d="M92.428202,150.980543 C93.178262,150.980543 93.9961288,150.980543 94.7461888,150.980543 C95.7727079,153.114534 96.142785,156.029195 96.892845,158.464006 C97.7500565,161.185265 98.1786622,163.548464 99.5359137,166.090693 C101.750377,161.042041 102.479265,155.375665 104.549394,150.980543 C105.263737,150.980543 106.107868,150.980543 106.822211,150.980543 C104.893485,158.07014 102.46472,165.088124 99.2858937,171.712242 C96.4642393,164.980706 94.1426249,158.034334 92.428202,150.980543 Z" id="Shape" fill="#14334F" fill-rule="nonzero"></path>
                <path d="M94.6426649,150.944737 C98.0000765,150.908931 101.357488,150.944737 104.7149,150.944737 C103.21478,156.244031 101.786094,161.400102 99.5716309,166.412947 C98.2143794,163.870718 97.4286022,161.185265 96.5713907,158.4282 C95.7856136,155.993389 95.0355535,153.486966 94.6426649,150.944737 Z" id="Shape" fill="#7E1839" fill-rule="nonzero"></path>
                <path d="M109.393846,151.052155 L109.822451,151.052155 C110.429643,151.123767 111.036834,151.19538 111.644026,151.266992 C110.929683,154.99082 110.036754,158.571424 108.96524,162.187834 C110.71538,160.755593 112.2155,159.072709 113.787054,157.425631 C115.501477,155.563717 117.287335,153.773415 118.751738,151.660858 C117.001597,151.517634 114.930003,151.839888 113.287014,151.19538 C116.394406,151.159573 119.501798,151.266992 122.609189,151.338604 C119.501798,154.883402 116.108669,158.177558 112.46552,161.149459 C110.608229,162.689119 108.679503,164.085555 106.822211,165.625215 C107.893726,160.791399 108.679503,155.921777 109.393846,151.052155 Z" id="Shape" fill="#14334F" fill-rule="nonzero"></path>
            </g>
        </g>
    </g>
</svg>