<?xml version="1.0" encoding="UTF-8"?>
<svg width="200px" height="200px" viewBox="0 0 200 200" version="1.1" xmlns="http://www.w3.org/2000/svg" xmlns:xlink="http://www.w3.org/1999/xlink">
    <!-- Generator: Sketch 54.1 (76490) - https://sketchapp.com -->
    <title>virginia-st</title>
    <desc>Created with Sketch.</desc>
    <defs>
        <path d="M71.2478525,91.1391533 C74.9474358,91.1391533 76.9055123,87.012695 76.9055123,87.012695 C70.3547262,90.544034 64.7418123,89.0969547 57.9332904,87.9478824 C57.9332904,87.9478824 62.7398849,91.1391533 71.2478525,91.1391533 L71.2478525,91.1391533 Z M36.6861917,52.8395173 L37.1166464,46.8156578 C35.1630445,47.837831 28.6275615,51.0881664 22.3204611,52.3480293 L36.6861917,52.8395173 Z M37.6652299,39.1067608 C33.247029,45.72565 25.8214625,49.8398479 25.8214625,49.8398479 C25.8214625,49.8398479 32.3807502,49.102258 37.312633,44.045266 L37.6652299,39.1067608 Z M37.7842538,37.4361314 L38.2648237,30.6823784 C34.9303663,37.483741 28.9910764,44.1795034 28.9910764,44.1795034 C28.9910764,44.1795034 34.5285489,41.8488733 37.7842538,37.4361314 Z M21.9226709,62.1080741 C21.9226709,57.5976968 18.2647012,53.9410695 13.7540554,53.9410695 C11.9792578,53.9410695 10.3429036,54.5119365 9.00401963,55.4721815 C5.53487726,51.3619213 3.65170526,48.6317111 3.65170526,48.6317111 C-2.94973305,23.2401664 1.6346538,0.0458197057 1.6346538,0.0458197057 C10.5781771,4.27948892 19.8077156,20.9725384 39.4640114,29.8322081 L37.7475622,53.9382953 L20.0013754,53.333511 C20.0013754,53.333511 27.4469881,75.6991653 47.6149074,83.139498 C47.6149074,83.139498 58.2858873,76.8741902 68.1747105,76.8741902 C80.2167019,76.8741902 83.3489084,81.3774082 83.3489084,81.3774082 C83.3489084,81.3774082 76.3631931,93.2887418 72.1230805,93.2887418 C50.5726052,91.5293367 32.3503231,78.6711818 20.1331966,67.2028316 C21.249336,65.8049726 21.9226709,64.0357235 21.9226709,62.1080741 L21.9226709,62.1080741 Z" id="path-1"></path>
        <linearGradient x1="1.88928796%" y1="10.8893406%" x2="81.1157917%" y2="99.6110059%" id="linearGradient-3">
            <stop stop-color="#1C4F9C" offset="0%"></stop>
            <stop stop-color="#F36917" offset="100%"></stop>
        </linearGradient>
        <path d="M9.84515129,40.1844188 C9.84515129,51.3314941 13.817684,58.5069316 13.817684,58.5069316 C13.817684,58.5069316 11.6762392,51.2160499 11.6762392,41.6216541 C11.6762392,32.7127641 17.8441801,15.775671 24.892629,16.9506064 C22.7389239,14.3071136 18.5572493,8.279764 18.5572493,8.279764 C18.5572493,8.279764 9.84515129,23.9120694 9.84515129,40.1844188 L9.84515129,40.1844188 Z M15.3386834,3.7792308 C14.8807548,2.64805682 13.8736162,1.73184169 13.8736162,1.73184169 C13.8736162,1.73184169 11.1840353,4.48263488 10.7861556,6.62058951 C10.7861556,6.62058951 12.7431582,3.99320525 15.3386834,3.7792308 Z M36.0878508,82.6097077 C12.1994966,70.7323808 8.93448464,48.5393558 8.93448464,48.5393558 C8.93448464,48.5393558 8.93448464,71.5154324 36.0878508,82.6097077 L36.0878508,82.6097077 Z M11.8079708,71.9065108 C2.1488726,56.5032144 2.27854595,36.9224496 2.27854595,36.9224496 C2.27854595,36.9224496 -1.11479702,56.2418989 11.8079708,71.9065108 Z M60.2376994,94.9783435 C72.8676507,94.9783435 81.6781,89.9856064 81.6781,89.9856064 C81.6781,89.9856064 79.426491,86.852505 78.2514661,84.5024553 C78.2514661,84.5024553 72.2796908,93.1178128 56.4198977,93.1178128 C38.9906902,93.1178128 23.8155975,83.1323387 23.8155975,83.1323387 C23.8155975,83.1323387 37.3264147,94.9783435 60.2376994,94.9783435 Z M94.3080513,68.2856801 C94.3080513,65.5015961 86.1634196,65.7110064 80.1800104,62.8580138 C80.1800104,62.8580138 84.8425234,65.6420979 84.8425234,69.9555936 C84.8425234,74.2708792 74.3290487,81.9966901 57.4903069,84.153438 C76.6978917,84.6411673 92.0090117,71.9754193 94.3080513,68.2856801 L94.3080513,68.2856801 Z M78.2174593,67.4739912 C78.2174593,67.4739912 79.8757389,68.5604194 79.8757389,70.9856421 C79.8757389,74.241347 70.4621162,79.5392504 70.4621162,79.5392504 C70.4621162,79.5392504 82.8128536,75.5810364 82.8128536,70.378889 C82.8128536,66.5495429 79.6537997,65.3360366 79.6537997,65.3360366 C78.6640225,66.1020848 78.2174593,67.4739912 78.2174593,67.4739912 L78.2174593,67.4739912 Z M31.3004075,24.0393265 C33.1852798,28.0824681 29.5531732,31.3900781 32.8182747,34.9751121 C31.7128743,30.2427956 35.8945489,27.1624943 31.3004075,24.0393265 Z M23.8561372,18.7537729 C17.8808717,18.7537729 16.2273351,28.9102655 16.2273351,28.9102655 C18.3408586,27.944651 18.7100115,22.567279 23.5810399,22.567279 C31.070414,22.567279 29.2773601,30.6553519 30.2897787,31.987882 C31.8964216,26.3363972 29.8297023,18.7537729 23.8561372,18.7537729 L23.8561372,18.7537729 Z M35.9105679,27.5320946 C34.5888663,28.9836486 33.7750295,30.9059284 33.7750295,33.0233 C33.7750295,37.5345722 37.4329992,41.1911995 41.9439134,41.1911995 C42.3854651,41.1911995 42.8186045,41.1491384 43.2409154,41.0802299 C51.5503011,48.7523458 58.4263892,51.6071283 58.4263892,51.6071283 C52.3337107,47.9120196 47.0100336,41.933085 45.6207658,40.3097071 C46.2475651,39.990222 46.8327507,39.5937742 47.3564557,39.1302076 C60.4211572,51.1632499 76.385566,61.789484 94.1120646,64.9225853 C95.6906967,65.1776364 96.3216126,67.284269 96.3216126,68.0216799 C96.3216126,72.1445585 80.2283358,82.7394705 66.1119289,85.4814935 C66.1119289,85.4814935 70.0916209,85.6774801 78.967399,82.872813 C78.967399,82.872813 81.1241469,87.1800443 84.3852213,91.0961973 C84.3852213,91.0961973 71.59508,96.3162431 60.2376994,96.3162431 C29.6899164,96.3162431 0.0269369754,74.465076 0.0269369754,40.7410567 C0.0269369754,19.5940991 11.0885478,2.45994545 13.0905646,0.542229681 C13.9645397,-0.298901986 14.6727763,0.0241627354 15.0045217,0.503032355 C15.6445658,1.45423871 16.3664946,2.52187365 17.1694134,3.68240088 C13.4604335,10.9466141 11.1937899,19.0358504 11.1937899,19.0358504 C11.1937899,19.0358504 14.420768,10.7578763 18.2695337,5.26676039 C22.4526402,11.2357615 28.4467884,19.2676337 35.9105679,27.5320946 L35.9105679,27.5320946 Z" id="path-4"></path>
        <linearGradient x1="-1.51753826%" y1="15.6228097%" x2="82.5211265%" y2="99.6619002%" id="linearGradient-6">
            <stop stop-color="#1C4F9C" offset="0%"></stop>
            <stop stop-color="#F36917" offset="100%"></stop>
        </linearGradient>
        <path d="M38.6278912,29.9251899 C36.2014156,29.9251899 31.7629001,25.0220339 31.7629001,25.0220339 C31.7629001,25.0220339 35.9444852,31.7827673 35.9444852,34.9321561 C35.9444852,40.9728399 29.0264256,38.0293713 29.0264256,38.0293713 C29.0264256,38.0293713 32.4333713,40.6613196 32.4333713,43.8114244 C32.4333713,50.1090387 26.1874832,49.7482085 26.1874832,49.7482085 C26.1874832,49.7482085 29.6468709,51.3493029 29.6468709,55.32282 C29.6468709,61.4646294 24.0704696,62.3944473 24.0704696,62.3944473 C24.0704696,62.3944473 28.510059,63.6356959 28.510059,68.0234697 C28.510059,71.7400564 26.5482239,73.4949869 26.5482239,73.4949869 C26.5482239,73.4949869 33.3108365,80.4100038 28.2006865,86.8131287 C28.2006865,86.8131287 35.8413909,89.0316258 34.9114835,97.6532478 C34.9114835,97.6532478 42.0362688,99.3562731 40.3841641,106.996172 C40.3841641,106.996172 46.1129697,104.775885 48.5908135,112.466794 C48.5908135,112.466794 55.09399,112.77733 58.0373691,118.662299 C58.0373691,118.662299 66.0371139,117.784386 68.3621955,125.631906 C68.3621955,125.631906 70.2712305,123.308703 73.5757083,123.308703 C78.2209495,123.308703 79.2539512,129.296587 79.2539512,129.296587 C79.2539512,129.296587 80.183769,124.702088 84.3130015,124.702088 C87.6695634,124.702088 89.1139581,127.902308 89.1139581,127.902308 C89.1139581,127.902308 89.9918708,125.32137 92.9871551,125.32137 C95.9788597,125.32137 98.0443261,130.740982 98.0443261,130.740982 C98.0443261,130.740982 97.0617082,125.37417 99.7482464,125.37417 C102.431205,125.37417 105.63053,130.948602 105.63053,130.948602 C105.63053,130.948602 103.053172,123.619239 106.717853,123.619239 C110.38343,123.619239 116.474229,130.845687 116.474229,130.845687 C115.284885,127.954213 108.143455,120.272253 116.409795,120.272253 C119.922341,120.272253 142.325671,133.5895 142.325671,136.687699 C142.325671,140.919758 130.245198,150.418398 126.402428,149.938722 C122.634831,158.163002 113.872708,156.241617 113.872708,156.241617 C109.645124,161.698815 101.990011,159.615451 101.990011,159.615451 C94.2874682,163.988011 88.8714358,159.679885 88.8714358,159.679885 C84.4965488,163.335617 72.554967,158.700846 72.554967,158.700846 C61.5212776,159.549227 56.3667397,153.283024 56.3667397,153.283024 C46.7090733,152.631525 42.7241908,145.842691 42.7241908,145.842691 C33.2608107,144.080601 30.1940227,136.901584 30.1940227,136.901584 C21.1207365,134.095127 19.099479,124.174087 19.099479,124.174087 C11.592654,120.323263 10.5488238,110.666223 10.5488238,110.666223 C3.23917577,105.8999 5.19575774,94.2812038 5.19575774,94.2812038 C-2.70117815,87.7563703 2.58546639,77.2464753 2.58546639,77.2464753 C-1.08578384,75.1210495 -0.850868355,63.421811 3.5156959,61.1415647 C-0.400618153,59.3311494 1.03859491,45.2631574 6.37173123,43.0465396 C3.36886701,38.9351159 8.59047888,27.448062 14.073272,27.3826436 C10.2220005,22.8783518 17.2704494,12.5682916 22.6885401,12.8270118 C19.4910048,8.25837551 27.6483442,0.0814373675 29.7143476,0.0814373675 C33.1961083,0.0814373675 42.332665,23.5317301 42.332665,25.4236722 C42.332665,26.3947457 41.0549932,29.9251899 38.6278912,29.9251899 Z" id="path-7"></path>
        <linearGradient x1="8.29882927%" y1="21.1396175%" x2="77.0269068%" y2="99.135319%" id="linearGradient-9">
            <stop stop-color="#1C4F9C" offset="0%"></stop>
            <stop stop-color="#F36917" offset="100%"></stop>
        </linearGradient>
    </defs>
    <g id="virginia-st" stroke="none" stroke-width="1" fill="none" fill-rule="evenodd">
        <g id="virginia-st_BGL">
            <g id="virginia-st" transform="translate(25.000000, 0.000000)">
                <g id="g10" transform="translate(74.725497, 99.971083) scale(-1, 1) rotate(-180.000000) translate(-74.725497, -99.971083) translate(0.447458, 0.187935)">
                    <g id="g12" transform="translate(0.805425, 0.000000)">
                        <path d="M118.035857,103.390555 C116.62189,103.390555 114.099121,101.298241 114.099121,101.298241 C116.038405,101.266919 118.835018,102.560968 118.835018,102.560968 C118.835018,102.560968 118.926299,103.390555 118.035857,103.390555" id="path14" fill="#FFFFFF" fill-rule="nonzero"></path>
                        <polygon id="path16" fill="#FFFFFF" fill-rule="nonzero" points="116.038405 100.285196 117.142731 100.469549 116.038405 100.838254"></polygon>
                        <path d="M128.137671,79.9314027 C128.614661,84.1640875 134.862965,85.0152422 134.862965,83.7211935 C134.862965,82.9695534 131.311043,80.8521819 128.137671,79.9314027 Z M124.623335,80.0680564 L126.159011,79.0102655 C126.159011,79.0102655 125.272149,78.257641 123.701571,78.257641 C122.778018,78.257641 121.925163,79.0773842 121.925163,80.2721867 C121.925163,84.2312062 126.055201,86.7226527 126.055201,86.7226527 L127.07988,86.7226527 C127.07988,86.7226527 123.564649,82.5595029 123.564649,80.4781069 C123.564649,79.3521235 124.623335,80.0680564 124.623335,80.0680564 L124.623335,80.0680564 Z M137.797395,86.4478239 C137.797395,91.408523 129.64113,95.3237811 127.550606,100.610051 L122.199902,101.589984 C122.32877,100.480288 121.15643,98.6519742 121.15643,98.6519742 C121.872363,95.8464121 120.438707,95.7148594 120.438707,95.7148594 C120.438707,95.7148594 120.305365,98.1955669 117.761118,98.1955669 C114.236044,98.1955669 109.340852,100.089209 109.340852,100.089209 L115.869266,103.939139 C114.695136,106.418951 110.582996,104.592427 108.298275,103.221416 L106.275765,103.221416 L110.256352,106.745596 C110.256352,106.745596 109.603958,107.267332 107.645881,107.267332 C99.4878258,107.267332 89.8281011,95.9108461 88.5222395,92.3213375 L102.913565,92.8108566 L103.607125,83.0670993 C105.881107,78.9154939 112.19653,77.3627249 110.64743,69.9027041 C109.669287,74.1385211 105.443493,76.2720011 104.047423,76.8698051 L105.263614,59.8181627 C84.143057,52.8643959 72.923404,29.5787678 57.3864966,23.948761 C75.2145682,22.140046 91.0058108,2.83856656 97.724841,2.83856656 C98.963405,2.83856656 99.4878258,3.62266523 99.4878258,4.20960492 C99.4878258,6.23120255 96.5498162,9.23544494 96.5498162,9.23544494 L96.5498162,5.38488037 C96.5498162,5.38488037 94.1997664,7.34181136 94.1997664,9.30086331 C94.1997664,15.7613523 104.446556,25.4880167 104.446556,36.5849767 C104.446556,44.6126428 96.5498162,54.2049803 96.5498162,54.2049803 L97.0053285,54.6632669 C97.0053285,54.6632669 107.382776,43.3058863 121.089311,43.3058863 C125.920963,43.3058863 129.445143,46.3744642 129.445143,51.1391766 C129.445143,55.9018308 124.941925,59.8842075 124.941925,59.8842075 L125.657858,60.8634248 C125.657858,60.8634248 128.333657,58.513196 131.531193,58.513196 C134.273216,58.513196 134.927399,59.6219971 134.927399,61.906897 C134.927399,64.1906334 133.294177,66.9327459 133.294177,66.9327459 C121.349732,65.3002399 121.937692,61.8421945 121.937692,61.8421945 C121.349732,63.9302128 122.460323,66.9327459 122.460323,66.9327459 L123.698887,66.9327459 L123.698887,65.7585265 C130.032208,68.4334308 133.948361,74.3077497 133.948361,74.3077497 C133.948361,74.3077497 132.053824,76.6569046 132.053824,79.2028515 C132.053824,81.5520063 137.797395,81.944964 137.797395,86.4478239 L137.797395,86.4478239 Z" id="path18" fill="#A76709" fill-rule="nonzero"></path>
                        <g id="g20" transform="translate(60.585822, 33.559355)">
                            <g id="g22-Clipped">
                                <mask id="mask-2" fill="white">
                                    <use xlink:href="#path-1"></use>
                                </mask>
                                <g id="path24"></g>
                                <g id="g22" mask="url(#mask-2)" fill="url(#linearGradient-3)" fill-rule="nonzero">
                                    <path d="M71.2478525,91.1391533 C74.9474358,91.1391533 76.9055123,87.012695 76.9055123,87.012695 C70.3547262,90.544034 64.7418123,89.0969547 57.9332904,87.9478824 C57.9332904,87.9478824 62.7398849,91.1391533 71.2478525,91.1391533 L71.2478525,91.1391533 Z M36.6861917,52.8395173 L37.1166464,46.8156578 C35.1630445,47.837831 28.6275615,51.0881664 22.3204611,52.3480293 L36.6861917,52.8395173 Z M37.6652299,39.1067608 C33.247029,45.72565 25.8214625,49.8398479 25.8214625,49.8398479 C25.8214625,49.8398479 32.3807502,49.102258 37.312633,44.045266 L37.6652299,39.1067608 Z M37.7842538,37.4361314 L38.2648237,30.6823784 C34.9303663,37.483741 28.9910764,44.1795034 28.9910764,44.1795034 C28.9910764,44.1795034 34.5285489,41.8488733 37.7842538,37.4361314 Z M21.9226709,62.1080741 C21.9226709,57.5976968 18.2647012,53.9410695 13.7540554,53.9410695 C11.9792578,53.9410695 10.3429036,54.5119365 9.00401963,55.4721815 C5.53487726,51.3619213 3.65170526,48.6317111 3.65170526,48.6317111 C-2.94973305,23.2401664 1.6346538,0.0458197057 1.6346538,0.0458197057 C10.5781771,4.27948892 19.8077156,20.9725384 39.4640114,29.8322081 L37.7475622,53.9382953 L20.0013754,53.333511 C20.0013754,53.333511 27.4469881,75.6991653 47.6149074,83.139498 C47.6149074,83.139498 58.2858873,76.8741902 68.1747105,76.8741902 C80.2167019,76.8741902 83.3489084,81.3774082 83.3489084,81.3774082 C83.3489084,81.3774082 76.3631931,93.2887418 72.1230805,93.2887418 C50.5726052,91.5293367 32.3503231,78.6711818 20.1331966,67.2028316 C21.249336,65.8049726 21.9226709,64.0357235 21.9226709,62.1080741 L21.9226709,62.1080741 Z" id="path34"></path>
                                </g>
                            </g>
                        </g>
                        <g id="g36" transform="translate(32.395964, 62.644129)">
                            <g id="g38-Clipped">
                                <mask id="mask-5" fill="white">
                                    <use xlink:href="#path-4"></use>
                                </mask>
                                <g id="path40"></g>
                                <g id="g38" mask="url(#mask-5)" fill="url(#linearGradient-6)" fill-rule="nonzero">
                                    <path d="M9.84515129,40.1844188 C9.84515129,51.3314941 13.817684,58.5069316 13.817684,58.5069316 C13.817684,58.5069316 11.6762392,51.2160499 11.6762392,41.6216541 C11.6762392,32.7127641 17.8441801,15.775671 24.892629,16.9506064 C22.7389239,14.3071136 18.5572493,8.279764 18.5572493,8.279764 C18.5572493,8.279764 9.84515129,23.9120694 9.84515129,40.1844188 L9.84515129,40.1844188 Z M15.3386834,3.7792308 C14.8807548,2.64805682 13.8736162,1.73184169 13.8736162,1.73184169 C13.8736162,1.73184169 11.1840353,4.48263488 10.7861556,6.62058951 C10.7861556,6.62058951 12.7431582,3.99320525 15.3386834,3.7792308 Z M36.0878508,82.6097077 C12.1994966,70.7323808 8.93448464,48.5393558 8.93448464,48.5393558 C8.93448464,48.5393558 8.93448464,71.5154324 36.0878508,82.6097077 L36.0878508,82.6097077 Z M11.8079708,71.9065108 C2.1488726,56.5032144 2.27854595,36.9224496 2.27854595,36.9224496 C2.27854595,36.9224496 -1.11479702,56.2418989 11.8079708,71.9065108 Z M60.2376994,94.9783435 C72.8676507,94.9783435 81.6781,89.9856064 81.6781,89.9856064 C81.6781,89.9856064 79.426491,86.852505 78.2514661,84.5024553 C78.2514661,84.5024553 72.2796908,93.1178128 56.4198977,93.1178128 C38.9906902,93.1178128 23.8155975,83.1323387 23.8155975,83.1323387 C23.8155975,83.1323387 37.3264147,94.9783435 60.2376994,94.9783435 Z M94.3080513,68.2856801 C94.3080513,65.5015961 86.1634196,65.7110064 80.1800104,62.8580138 C80.1800104,62.8580138 84.8425234,65.6420979 84.8425234,69.9555936 C84.8425234,74.2708792 74.3290487,81.9966901 57.4903069,84.153438 C76.6978917,84.6411673 92.0090117,71.9754193 94.3080513,68.2856801 L94.3080513,68.2856801 Z M78.2174593,67.4739912 C78.2174593,67.4739912 79.8757389,68.5604194 79.8757389,70.9856421 C79.8757389,74.241347 70.4621162,79.5392504 70.4621162,79.5392504 C70.4621162,79.5392504 82.8128536,75.5810364 82.8128536,70.378889 C82.8128536,66.5495429 79.6537997,65.3360366 79.6537997,65.3360366 C78.6640225,66.1020848 78.2174593,67.4739912 78.2174593,67.4739912 L78.2174593,67.4739912 Z M31.3004075,24.0393265 C33.1852798,28.0824681 29.5531732,31.3900781 32.8182747,34.9751121 C31.7128743,30.2427956 35.8945489,27.1624943 31.3004075,24.0393265 Z M23.8561372,18.7537729 C17.8808717,18.7537729 16.2273351,28.9102655 16.2273351,28.9102655 C18.3408586,27.944651 18.7100115,22.567279 23.5810399,22.567279 C31.070414,22.567279 29.2773601,30.6553519 30.2897787,31.987882 C31.8964216,26.3363972 29.8297023,18.7537729 23.8561372,18.7537729 L23.8561372,18.7537729 Z M35.9105679,27.5320946 C34.5888663,28.9836486 33.7750295,30.9059284 33.7750295,33.0233 C33.7750295,37.5345722 37.4329992,41.1911995 41.9439134,41.1911995 C42.3854651,41.1911995 42.8186045,41.1491384 43.2409154,41.0802299 C51.5503011,48.7523458 58.4263892,51.6071283 58.4263892,51.6071283 C52.3337107,47.9120196 47.0100336,41.933085 45.6207658,40.3097071 C46.2475651,39.990222 46.8327507,39.5937742 47.3564557,39.1302076 C60.4211572,51.1632499 76.385566,61.789484 94.1120646,64.9225853 C95.6906967,65.1776364 96.3216126,67.284269 96.3216126,68.0216799 C96.3216126,72.1445585 80.2283358,82.7394705 66.1119289,85.4814935 C66.1119289,85.4814935 70.0916209,85.6774801 78.967399,82.872813 C78.967399,82.872813 81.1241469,87.1800443 84.3852213,91.0961973 C84.3852213,91.0961973 71.59508,96.3162431 60.2376994,96.3162431 C29.6899164,96.3162431 0.0269369754,74.465076 0.0269369754,40.7410567 C0.0269369754,19.5940991 11.0885478,2.45994545 13.0905646,0.542229681 C13.9645397,-0.298901986 14.6727763,0.0241627354 15.0045217,0.503032355 C15.6445658,1.45423871 16.3664946,2.52187365 17.1694134,3.68240088 C13.4604335,10.9466141 11.1937899,19.0358504 11.1937899,19.0358504 C11.1937899,19.0358504 14.420768,10.7578763 18.2695337,5.26676039 C22.4526402,11.2357615 28.4467884,19.2676337 35.9105679,27.5320946 L35.9105679,27.5320946 Z" id="path50"></path>
                                </g>
                            </g>
                        </g>
                        <g id="g52" transform="translate(2.326782, 35.438679)">
                            <g id="g54-Clipped">
                                <mask id="mask-8" fill="white">
                                    <use xlink:href="#path-7"></use>
                                </mask>
                                <g id="path56"></g>
                                <g id="g54" mask="url(#mask-8)" fill="url(#linearGradient-9)" fill-rule="nonzero">
                                    <path d="M38.6278912,29.9251899 C36.2014156,29.9251899 31.7629001,25.0220339 31.7629001,25.0220339 C31.7629001,25.0220339 35.9444852,31.7827673 35.9444852,34.9321561 C35.9444852,40.9728399 29.0264256,38.0293713 29.0264256,38.0293713 C29.0264256,38.0293713 32.4333713,40.6613196 32.4333713,43.8114244 C32.4333713,50.1090387 26.1874832,49.7482085 26.1874832,49.7482085 C26.1874832,49.7482085 29.6468709,51.3493029 29.6468709,55.32282 C29.6468709,61.4646294 24.0704696,62.3944473 24.0704696,62.3944473 C24.0704696,62.3944473 28.510059,63.6356959 28.510059,68.0234697 C28.510059,71.7400564 26.5482239,73.4949869 26.5482239,73.4949869 C26.5482239,73.4949869 33.3108365,80.4100038 28.2006865,86.8131287 C28.2006865,86.8131287 35.8413909,89.0316258 34.9114835,97.6532478 C34.9114835,97.6532478 42.0362688,99.3562731 40.3841641,106.996172 C40.3841641,106.996172 46.1129697,104.775885 48.5908135,112.466794 C48.5908135,112.466794 55.09399,112.77733 58.0373691,118.662299 C58.0373691,118.662299 66.0371139,117.784386 68.3621955,125.631906 C68.3621955,125.631906 70.2712305,123.308703 73.5757083,123.308703 C78.2209495,123.308703 79.2539512,129.296587 79.2539512,129.296587 C79.2539512,129.296587 80.183769,124.702088 84.3130015,124.702088 C87.6695634,124.702088 89.1139581,127.902308 89.1139581,127.902308 C89.1139581,127.902308 89.9918708,125.32137 92.9871551,125.32137 C95.9788597,125.32137 98.0443261,130.740982 98.0443261,130.740982 C98.0443261,130.740982 97.0617082,125.37417 99.7482464,125.37417 C102.431205,125.37417 105.63053,130.948602 105.63053,130.948602 C105.63053,130.948602 103.053172,123.619239 106.717853,123.619239 C110.38343,123.619239 116.474229,130.845687 116.474229,130.845687 C115.284885,127.954213 108.143455,120.272253 116.409795,120.272253 C119.922341,120.272253 142.325671,133.5895 142.325671,136.687699 C142.325671,140.919758 130.245198,150.418398 126.402428,149.938722 C122.634831,158.163002 113.872708,156.241617 113.872708,156.241617 C109.645124,161.698815 101.990011,159.615451 101.990011,159.615451 C94.2874682,163.988011 88.8714358,159.679885 88.8714358,159.679885 C84.4965488,163.335617 72.554967,158.700846 72.554967,158.700846 C61.5212776,159.549227 56.3667397,153.283024 56.3667397,153.283024 C46.7090733,152.631525 42.7241908,145.842691 42.7241908,145.842691 C33.2608107,144.080601 30.1940227,136.901584 30.1940227,136.901584 C21.1207365,134.095127 19.099479,124.174087 19.099479,124.174087 C11.592654,120.323263 10.5488238,110.666223 10.5488238,110.666223 C3.23917577,105.8999 5.19575774,94.2812038 5.19575774,94.2812038 C-2.70117815,87.7563703 2.58546639,77.2464753 2.58546639,77.2464753 C-1.08578384,75.1210495 -0.850868355,63.421811 3.5156959,61.1415647 C-0.400618153,59.3311494 1.03859491,45.2631574 6.37173123,43.0465396 C3.36886701,38.9351159 8.59047888,27.448062 14.073272,27.3826436 C10.2220005,22.8783518 17.2704494,12.5682916 22.6885401,12.8270118 C19.4910048,8.25837551 27.6483442,0.0814373675 29.7143476,0.0814373675 C33.1961083,0.0814373675 42.332665,23.5317301 42.332665,25.4236722 C42.332665,26.3947457 41.0549932,29.9251899 38.6278912,29.9251899" id="path66"></path>
                                </g>
                            </g>
                        </g>
                        <path d="M74.3398772,100.838254 C77.1945702,100.838254 79.5101657,98.5240011 79.5101657,95.6674289 C79.5101657,92.8108566 77.1945702,90.4966035 74.3398772,90.4966035 C71.4845578,90.4966035 69.1689624,92.8108566 69.1689624,95.6674289 C69.1689624,98.5240011 71.4845578,100.838254 74.3398772,100.838254 Z M74.3398772,89.1427744 C77.9433465,89.1427744 80.8657846,92.0636016 80.8657846,95.6674289 C80.8657846,99.2730459 77.9433465,102.194947 74.3398772,102.194947 C70.7357815,102.194947 67.8133434,99.2730459 67.8133434,95.6674289 C67.8133434,92.0636016 70.7357815,89.1427744 74.3398772,89.1427744 L74.3398772,89.1427744 Z" id="path68" fill="#1C4F9C" fill-rule="nonzero"></path>
                        <path d="M72.1452744,96.957003 C72.2410304,95.6110492 73.3569014,94.5496786 74.7265705,94.5496786 C75.8448577,94.5496786 76.7957061,95.2593471 77.1578786,96.2535989 C77.1617268,96.1936396 77.1665593,96.1336802 77.1665593,96.0728259 C77.1665593,94.6427499 76.0077324,93.4829386 74.5782829,93.4829386 C73.1464171,93.4829386 71.9862478,94.6427499 71.9862478,96.0728259 C71.9862478,96.3833618 72.0449543,96.6804739 72.1452744,96.957003 L72.1452744,96.957003 Z M74.3398772,91.6769979 C76.5433397,91.6769979 78.3293238,93.4641454 78.3293238,95.6674289 C78.3293238,97.8707124 76.5433397,99.6587548 74.3398772,99.6587548 C72.1368622,99.6587548 70.3501622,97.8707124 70.3501622,95.6674289 C70.3501622,93.4641454 72.1368622,91.6769979 74.3398772,91.6769979 L74.3398772,91.6769979 Z" id="path70" fill="#1C4F9C" fill-rule="nonzero"></path>
                        <path d="M51.4147213,28.5880062 C51.4147213,28.5880062 53.9599523,59.2308293 59.6384636,74.9932555 C51.6104395,57.9584375 49.2605687,28.685552 49.2605687,28.685552 C49.2605687,28.685552 50.3379582,28.1961224 51.4147213,28.5880062" id="path72" fill="#1C4F9C" fill-rule="nonzero"></path>
                        <path d="M144.707938,113.486999 C143.279652,112.401466 138.262752,109.292527 127.547921,109.292527 C119.134814,109.292527 108.45757,115.143489 108.45757,115.143489 C88.2530488,106.3751 83.427482,88.6432322 83.427482,88.6432322 L99.4949851,89.1910104 L101.41458,62.2322885 C80.2956335,53.3237564 65.8822934,26.6290348 49.9457165,26.6290348 C48.3590302,26.6290348 47.1191239,26.8950038 46.376254,27.1062041 C46.376254,27.1062041 49.7499983,49.7338898 54.0578561,63.3422529 C47.1068636,48.3632363 44.7852721,25.591827 44.7852721,25.591827 C44.7852721,25.591827 46.766348,24.6720322 49.9457165,24.6720322 C67.6664877,24.6720322 82.1557167,53.1607922 103.470203,60.9419984 L101.313455,91.2116415 L86.2454834,90.6979596 C86.2454834,90.6979596 91.6608894,105.780876 109.230778,113.345602 C109.230778,113.345602 119.287845,107.70942 129.974039,107.70942 C137.860934,107.70942 142.919,110.535565 145.337959,112.330767 C145.154501,112.685154 144.94509,113.073548 144.707938,113.486999" id="path74" fill="#1C4F9C" fill-rule="nonzero"></path>
                        <path d="M55.3306058,29.7622256 C55.3306058,29.7622256 56.7013488,29.9583912 58.3653559,31.1322527 C58.3653559,31.1322527 56.897067,59.5245407 62.7713859,80.1817107 L61.5964506,78.5173457 C54.1556704,56.9785044 55.3306058,29.7622256 55.3306058,29.7622256" id="path76" fill="#1C4F9C" fill-rule="nonzero"></path>
                        <path d="M77.1665593,96.0728259 C77.1665593,96.1336802 77.1617268,96.1936396 77.1578786,96.2535989 C76.7957061,95.2593471 75.8448577,94.5496786 74.7265705,94.5496786 C73.3569014,94.5496786 72.2410304,95.6110492 72.1452744,96.957003 C72.0449543,96.6804739 71.9862478,96.3833618 71.9862478,96.0728259 C71.9862478,94.6427499 73.1464171,93.4829386 74.5782829,93.4829386 C76.0077324,93.4829386 77.1665593,94.6427499 77.1665593,96.0728259" id="path78" fill="#231F20" fill-rule="nonzero"></path>
                        <path d="M137.491334,120.57205 C137.491334,120.57205 135.533258,124.698508 131.833674,124.698508 C123.325707,124.698508 118.519112,121.507237 118.519112,121.507237 C125.327634,122.656309 130.940548,124.103389 137.491334,120.57205" id="path80" fill="#231F20" fill-rule="nonzero"></path>
                        <path d="M70.3501622,95.6674289 C70.3501622,97.8707124 72.1368622,99.6587548 74.3398772,99.6587548 C76.5433397,99.6587548 78.3293238,97.8707124 78.3293238,95.6674289 C78.3293238,93.4641454 76.5433397,91.6769979 74.3398772,91.6769979 C72.1368622,91.6769979 70.3501622,93.4641454 70.3501622,95.6674289 Z M79.5101657,95.6674289 C79.5101657,98.5240011 77.1945702,100.838254 74.3398772,100.838254 C71.4845578,100.838254 69.1689624,98.5240011 69.1689624,95.6674289 C69.1689624,92.8108566 71.4845578,90.4966035 74.3398772,90.4966035 C77.1945702,90.4966035 79.5101657,92.8108566 79.5101657,95.6674289 L79.5101657,95.6674289 Z" id="path82" fill="#231F20" fill-rule="nonzero"></path>
                        <path d="M57.2885928,79.5947352 C50.2401439,78.4197998 44.072203,95.356893 44.072203,104.265783 C44.072203,113.860179 46.2136478,121.15106 46.2136478,121.15106 C46.2136478,121.15106 42.2411151,113.975623 42.2411151,102.828548 C42.2411151,86.5561983 50.9532131,70.9238929 50.9532131,70.9238929 C50.9532131,70.9238929 55.1348877,76.9512425 57.2885928,79.5947352" id="path84" fill="#231F20" fill-rule="nonzero"></path>
                        <path d="M55.9770037,85.2114078 C51.1059753,85.2114078 50.7368223,90.5887798 48.6232989,91.5543944 C48.6232989,91.5543944 50.2768355,81.3979017 56.2521009,81.3979017 C62.2256661,81.3979017 64.2923854,88.9805261 62.6857425,94.6320109 C61.6733239,93.2994808 63.4663778,85.2114078 55.9770037,85.2114078" id="path86" fill="#231F20" fill-rule="nonzero"></path>
                        <path d="M134.927399,61.906897 C134.927399,59.6219971 134.273216,58.513196 131.531193,58.513196 C128.333657,58.513196 125.657858,60.8634248 125.657858,60.8634248 L124.941925,59.8842075 C124.941925,59.8842075 129.445143,55.9018308 129.445143,51.1391766 C129.445143,46.3744642 125.920963,43.3058863 121.089311,43.3058863 C107.382776,43.3058863 97.0053285,54.6632669 97.0053285,54.6632669 L96.5498162,54.2049803 C96.5498162,54.2049803 104.446556,44.6126428 104.446556,36.5849767 C104.446556,25.4880167 94.1997664,15.7613523 94.1997664,9.30086331 C94.1997664,7.34181136 96.5498162,5.38488037 96.5498162,5.38488037 L96.5498162,9.23544494 C96.5498162,9.23544494 99.4878258,6.23120255 99.4878258,4.20960492 C99.4878258,3.62266523 98.963405,2.83856656 97.724841,2.83856656 C91.0058108,2.83856656 75.2145682,22.140046 57.3864966,23.948761 C72.923404,29.5787678 84.143057,52.8643959 105.263614,59.8181627 L104.047423,76.8698051 C105.443493,76.2720011 109.669287,74.1385211 110.64743,69.9027041 C112.19653,77.3627249 105.881107,78.9154939 103.607125,83.0670993 L102.913565,92.8108566 L88.5222395,92.3213375 C89.8281011,95.9108461 99.4878258,107.267332 107.645881,107.267332 C109.603958,107.267332 110.256352,106.745596 110.256352,106.745596 L106.275765,103.221416 L108.298275,103.221416 C110.582996,104.592427 114.695136,106.418951 115.869266,103.939139 L109.340852,100.089209 C109.340852,100.089209 114.236044,98.1955669 117.761118,98.1955669 C120.305365,98.1955669 120.438707,95.7148594 120.438707,95.7148594 C120.438707,95.7148594 121.872363,95.8464121 121.15643,98.6519742 C121.15643,98.6519742 122.32877,100.480288 122.199902,101.589984 L127.550606,100.610051 C129.64113,95.3237811 137.797395,91.408523 137.797395,86.4478239 C137.797395,81.944964 132.053824,81.5520063 132.053824,79.2028515 C132.053824,76.6569046 133.948361,74.3077497 133.948361,74.3077497 C133.948361,74.3077497 130.032208,68.4334308 123.698887,65.7585265 L123.698887,66.9327459 L122.460323,66.9327459 C122.460323,66.9327459 121.349732,63.9302128 121.937692,61.8421945 C121.937692,61.8421945 121.349732,65.3002399 133.294177,66.9327459 C133.294177,66.9327459 134.927399,64.1906334 134.927399,61.906897 L134.927399,61.906897 Z M117.142731,100.469549 L116.038405,100.285196 L116.038405,100.838254 L117.142731,100.469549 Z M114.099121,101.298241 C114.099121,101.298241 116.62189,103.390555 118.035857,103.390555 C118.926299,103.390555 118.835018,102.560968 118.835018,102.560968 C118.835018,102.560968 116.038405,101.266919 114.099121,101.298241 L114.099121,101.298241 Z M49.9457165,24.6720322 C46.766348,24.6720322 44.7852721,25.591827 44.7852721,25.591827 C44.7852721,25.591827 47.1068636,48.3632363 54.0578561,63.3422529 C49.7499983,49.7338898 46.376254,27.1062041 46.376254,27.1062041 C47.1191239,26.8950038 48.3590302,26.6290348 49.9457165,26.6290348 C65.8822934,26.6290348 80.2956335,53.3237564 101.41458,62.2322885 L99.4949851,89.1910104 L83.427482,88.6432322 C83.427482,88.6432322 88.2530488,106.3751 108.45757,115.143489 C108.45757,115.143489 119.134814,109.292527 127.547921,109.292527 C138.262752,109.292527 143.279652,112.401466 144.707938,113.486999 C144.94509,113.073548 145.154501,112.685154 145.337959,112.330767 C142.919,110.535565 137.860934,107.70942 129.974039,107.70942 C119.287845,107.70942 109.230778,113.345602 109.230778,113.345602 C91.6608894,105.780876 86.2454834,90.6979596 86.2454834,90.6979596 L101.313455,91.2116415 L103.470203,60.9419984 C82.1557167,53.1607922 67.6664877,24.6720322 49.9457165,24.6720322 Z M49.5653771,66.3265298 C48.7624584,65.1660025 48.0405296,64.0983676 47.4004855,63.1471612 C47.0687401,62.6682916 46.3605035,62.3452269 45.4865284,63.1863586 C43.4845115,65.1040743 32.4229008,82.238228 32.4229008,103.385186 C32.4229008,137.109205 62.0858802,158.960372 92.6336632,158.960372 C103.991044,158.960372 116.781185,153.740326 116.781185,153.740326 C113.520111,149.824173 111.363363,145.516942 111.363363,145.516942 C102.487585,148.321609 98.5078927,148.125622 98.5078927,148.125622 C112.6243,145.383599 128.717576,134.788687 128.717576,130.665809 C128.717576,129.928398 128.08666,127.821765 126.508028,127.566714 C108.78153,124.433613 92.817121,113.807379 79.7524195,101.774337 C79.2287145,102.237903 78.6435289,102.634351 78.0167296,102.953836 C79.4059974,104.577214 84.7296745,110.556148 90.822353,114.251257 C90.822353,114.251257 83.9462649,111.396475 75.6368792,103.724359 C75.2145682,103.793267 74.7814288,103.835328 74.3398772,103.835328 C69.828963,103.835328 66.1709933,100.178701 66.1709933,95.6674289 C66.1709933,93.5500573 66.9848301,91.6277775 68.3065317,90.1762235 C60.8427522,81.9117626 54.848604,73.8798903 50.6654975,67.9108893 C46.8167317,73.4020051 43.5897537,81.6799793 43.5897537,81.6799793 C43.5897537,81.6799793 45.8563973,73.5907429 49.5653771,66.3265298 L49.5653771,66.3265298 Z M32.0411295,35.520116 C29.9751262,35.520116 21.8177867,43.6970541 25.015322,48.2656904 C19.5972313,48.0069702 12.5487824,58.3170304 16.400054,62.8213223 C10.9172608,62.8867406 5.69564894,74.3737945 8.69851316,78.4852182 C3.36537684,80.701836 1.92616378,94.769828 5.84247783,96.5802433 C1.47591357,98.8604896 1.24099809,110.559728 4.91224831,112.685154 C4.91224831,112.685154 -0.374396216,123.195049 7.52253967,129.719882 C7.52253967,129.719882 5.5659577,141.338578 12.8756058,146.104902 C12.8756058,146.104902 13.9194359,155.761942 21.4262609,159.612766 C21.4262609,159.612766 23.4475185,169.533806 32.5208046,172.340263 C32.5208046,172.340263 35.5875927,179.51928 45.0509727,181.28137 C45.0509727,181.28137 49.0358553,188.070204 58.6935216,188.721703 C58.6935216,188.721703 63.8480595,194.987905 74.8817489,194.139525 C74.8817489,194.139525 86.8233308,198.774295 91.1982177,195.118563 C91.1982177,195.118563 96.6142501,199.426689 104.316793,195.054129 C104.316793,195.054129 111.971906,197.137494 116.19949,191.680295 C116.19949,191.680295 124.961613,193.60168 128.72921,185.377401 C132.57198,185.857076 144.652453,176.358436 144.652453,172.126378 C144.652453,169.028178 122.249123,155.710931 118.736577,155.710931 C110.470237,155.710931 117.611667,163.392892 118.801011,166.284366 C118.801011,166.284366 112.710212,159.057918 109.044635,159.057918 C105.379954,159.057918 107.957312,166.387281 107.957312,166.387281 C107.957312,166.387281 104.757987,160.812848 102.075028,160.812848 C99.3884901,160.812848 100.371108,166.17966 100.371108,166.17966 C100.371108,166.17966 98.3056416,160.760048 95.313937,160.760048 C92.3186527,160.760048 91.44074,163.340986 91.44074,163.340986 C91.44074,163.340986 89.9963454,160.140766 86.6397835,160.140766 C82.510551,160.140766 81.5807331,164.735266 81.5807331,164.735266 C81.5807331,164.735266 80.5477314,158.747382 75.9024903,158.747382 C72.5980125,158.747382 70.6889774,161.070584 70.6889774,161.070584 C68.3638958,153.223065 60.3641511,154.100977 60.3641511,154.100977 C57.4207719,148.216009 50.9175954,147.905473 50.9175954,147.905473 C48.4397516,140.214564 42.710946,142.434851 42.710946,142.434851 C44.3630507,134.794952 37.2382655,133.091926 37.2382655,133.091926 C38.1681728,124.470304 30.5274684,122.251807 30.5274684,122.251807 C35.6376185,115.848682 28.8750058,108.933666 28.8750058,108.933666 C28.8750058,108.933666 30.8368409,107.178735 30.8368409,103.462148 C30.8368409,99.0743746 26.3972515,97.8331259 26.3972515,97.8331259 C26.3972515,97.8331259 31.9736529,96.903308 31.9736529,90.7614987 C31.9736529,86.7879816 28.5142651,85.1868871 28.5142651,85.1868871 C28.5142651,85.1868871 34.7601532,85.5477173 34.7601532,79.250103 C34.7601532,76.0999983 31.3532075,73.4680499 31.3532075,73.4680499 C31.3532075,73.4680499 38.2712671,76.4115186 38.2712671,70.3708347 C38.2712671,67.2214459 34.0896821,60.4607125 34.0896821,60.4607125 C34.0896821,60.4607125 38.5281976,65.3638685 40.9546732,65.3638685 C43.3817752,65.3638685 44.6594469,61.8334244 44.6594469,60.8623509 C44.6594469,58.9704087 35.5228902,35.520116 32.0411295,35.520116 Z M67.8133434,95.6674289 C67.8133434,99.2730459 70.7357815,102.194947 74.3398772,102.194947 C77.9433465,102.194947 80.8657846,99.2730459 80.8657846,95.6674289 C80.8657846,92.0636016 77.9433465,89.1427744 74.3398772,89.1427744 C70.7357815,89.1427744 67.8133434,92.0636016 67.8133434,95.6674289 Z M51.4147213,28.5880062 C50.3379582,28.1961224 49.2605687,28.685552 49.2605687,28.685552 C49.2605687,28.685552 51.6104395,57.9584375 59.6384636,74.9932555 C53.9599523,59.2308293 51.4147213,28.5880062 51.4147213,28.5880062 Z M58.3653559,31.1322527 C56.7013488,29.9583912 55.3306058,29.7622256 55.3306058,29.7622256 C55.3306058,29.7622256 54.1556704,56.9785044 61.5964506,78.5173457 L62.7713859,80.1817107 C56.897067,59.5245407 58.3653559,31.1322527 58.3653559,31.1322527 Z M143.93473,114.936763 C143.93473,114.936763 140.802524,110.433545 128.760532,110.433545 C118.871709,110.433545 108.200729,116.698853 108.200729,116.698853 C88.0328099,109.25852 80.5871972,86.8928657 80.5871972,86.8928657 L98.333384,87.4976501 L100.049833,63.3915628 C80.3935374,54.5318932 71.1639989,37.8388437 62.2204756,33.6051745 C62.2204756,33.6051745 57.6360887,56.7995211 64.237527,82.1910659 C64.237527,82.1910659 66.120699,84.921276 69.5898414,89.0315363 C70.9287254,88.0712913 72.5650796,87.5004243 74.3398772,87.5004243 C78.850523,87.5004243 82.5084926,91.1570516 82.5084926,95.6674289 C82.5084926,97.5950782 81.8351578,99.3643274 80.7190184,100.762186 C92.9361449,112.230537 111.158427,125.088691 132.708902,126.848097 C136.949015,126.848097 143.93473,114.936763 143.93473,114.936763 L143.93473,114.936763 Z M58.1370628,22.0068825 C76.8551285,21.1119663 87.2567386,0 98.311906,0 C100.074891,0 101.445007,0.881631992 101.445007,3.13220644 C101.445007,6.46122284 96.8433487,11.3563067 96.8433487,11.3563067 C96.8433487,13.3210055 97.6147664,15.2904475 98.7548895,17.3194013 L99.4135478,18.4426105 C102.717578,23.8019947 108.08439,29.6549252 108.591808,37.0075561 C108.787794,39.8461405 109.669287,43.2726849 112.703947,43.2726849 C112.703947,43.2726849 116.004398,41.5314466 120.550572,41.5314466 C125.097641,41.5314466 131.041674,44.2169109 131.041674,51.1696038 C131.041674,53.8462979 130.096642,55.4453341 130.096642,57.0114373 C130.096642,57.0114373 130.97724,56.8484731 132.216698,56.8484731 C133.459737,56.8484731 136.818357,57.4690079 136.818357,61.581058 C136.818357,64.5503897 134.59986,68.4663637 134.59986,68.4663637 C134.59986,68.4663637 136.690384,70.3582164 136.690384,73.6229599 C136.690384,74.5035574 133.816808,75.5487299 133.816808,78.9424309 C133.816808,80.7043417 140.31211,80.6060799 140.31211,85.860222 C140.31211,91.2116415 128.790959,97.9369362 128.790959,102.895666 C128.790959,104.788414 129.574011,106.289188 131.140114,106.289188 C132.707112,106.289188 142.628153,107.335345 147.067832,111.706116 C147.067832,111.706116 140.90007,129.328804 113.291012,144.894975 C113.291012,144.894975 114.074064,148.909569 119.654761,153.608773 C119.654761,153.608773 146.479872,167.608841 146.479872,171.426554 C146.479872,176.346802 135.676444,187.352481 130.059951,187.438393 C125.975553,194.415159 117.21343,193.905057 117.21343,193.905057 C111.255973,198.584573 105.128482,197.223406 105.128482,197.223406 C96.6196196,200.967735 91.6000351,197.905332 91.6000351,197.905332 C86.0699904,200.372616 74.1564194,196.458253 74.1564194,196.458253 C63.1825104,196.119079 57.2249643,190.502586 57.2249643,190.502586 C48.1202666,189.055506 43.8662828,183.098945 43.8662828,183.098945 C32.8905839,179.35551 30.1674437,173.654 30.1674437,173.654 C22.2547742,169.911461 18.9355303,160.975723 18.9355303,160.975723 C12.1285298,156.127067 10.5967019,147.277242 10.5967019,147.277242 C3.53561674,138.769274 4.81191927,130.855531 4.81191927,130.855531 C-1.48429894,120.900484 2.08871634,113.241792 2.08871634,113.241792 C-2.50646319,102.776643 2.25791813,96.6509417 2.25791813,96.6509417 C-0.633782286,84.6537856 5.83233843,77.335072 5.83233843,77.335072 C5.40690425,66.3598206 12.9815638,60.5795574 12.9815638,60.5795574 C11.8744631,53.0908992 22.4368897,45.9165356 22.4368897,45.9165356 C21.1640505,41.2171521 29.5836004,33.6785576 32.1292788,33.6785576 C37.8063582,33.6785576 45.5404024,61.6355584 47.6294946,61.6355584 C48.9169209,61.6355584 49.8642791,60.348848 49.8642791,58.1786764 C49.8642791,52.8234983 42.8923455,31.8786128 42.8923455,24.594085 C42.8923455,24.594085 45.5005786,23.2219996 48.2205867,22.8839898 C50.9410422,22.5466064 51.8838363,22.3050685 58.1370628,22.0068825 L58.1370628,22.0068825 Z" id="path88" fill="#231F20" fill-rule="nonzero"></path>
                        <path d="M97.2720135,86.398872 L82.9062829,85.9073841 C89.2133833,84.6475212 95.7488662,81.3971858 97.7024681,80.3750126 L97.2720135,86.398872" id="path90" fill="#231F20" fill-rule="nonzero"></path>
                        <path d="M98.2510517,72.6661156 L97.8984548,77.6046207 C92.966572,82.6616128 86.4072842,83.3992027 86.4072842,83.3992027 C86.4072842,83.3992027 93.8328508,79.2850048 98.2510517,72.6661156" id="path92" fill="#231F20" fill-rule="nonzero"></path>
                        <path d="M89.5768982,77.7388582 C89.5768982,77.7388582 95.516188,71.0430957 98.8506455,64.2417331 L98.3700756,70.9954862 C95.1143707,75.4082281 89.5768982,77.7388582 89.5768982,77.7388582" id="path94" fill="#231F20" fill-rule="nonzero"></path>
                        <path d="M65.2142385,97.6192409 C61.949137,94.0342069 65.5812436,90.7265969 63.6963713,86.6834554 C68.2905127,89.8066232 64.1088381,92.8869245 65.2142385,97.6192409" id="path96" fill="#231F20" fill-rule="nonzero"></path>
                        <path d="M134.862965,83.7211935 C134.862965,85.0152422 128.614661,84.1640875 128.137671,79.9314027 C131.311043,80.8521819 134.862965,82.9695534 134.862965,83.7211935" id="path98" fill="#231F20" fill-rule="nonzero"></path>
                        <path d="M46.26958,64.3759706 C46.26958,64.3759706 47.2767186,65.2921857 47.7346472,66.4233597 C45.139122,66.6373341 43.1821194,69.2647184 43.1821194,69.2647184 C43.5799991,67.1267638 46.26958,64.3759706 46.26958,64.3759706" id="path100" fill="#231F20" fill-rule="nonzero"></path>
                        <path d="M44.2039346,134.55064 C31.2811668,118.886028 34.6745097,99.5665784 34.6745097,99.5665784 C34.6745097,99.5665784 34.5448364,119.147343 44.2039346,134.55064" id="path102" fill="#231F20" fill-rule="nonzero"></path>
                        <path d="M110.64743,147.146584 C111.822455,149.496634 114.074064,152.629735 114.074064,152.629735 C114.074064,152.629735 105.263614,157.622472 92.6336632,157.622472 C69.7223785,157.622472 56.2115612,145.776468 56.2115612,145.776468 C56.2115612,145.776468 71.386654,155.761942 88.8158615,155.761942 C104.675655,155.761942 110.64743,147.146584 110.64743,147.146584" id="path104" fill="#231F20" fill-rule="nonzero"></path>
                        <path d="M115.208817,133.023018 C115.208817,138.225165 102.85808,142.183379 102.85808,142.183379 C102.85808,142.183379 112.271703,136.885476 112.271703,133.629771 C112.271703,131.204548 110.613423,130.11812 110.613423,130.11812 C110.613423,130.11812 111.059986,128.746214 112.049763,127.980165 C112.049763,127.980165 115.208817,129.193672 115.208817,133.023018" id="path106" fill="#231F20" fill-rule="nonzero"></path>
                        <path d="M117.238487,132.599723 C117.238487,128.286227 112.575974,125.502143 112.575974,125.502143 C118.559383,128.355135 126.704015,128.145725 126.704015,130.929809 C124.404976,134.619548 109.093856,147.285296 89.8862707,146.797567 C106.725013,144.640819 117.238487,136.915008 117.238487,132.599723" id="path108" fill="#231F20" fill-rule="nonzero"></path>
                        <path d="M123.701571,78.257641 C125.272149,78.257641 126.159011,79.0102655 126.159011,79.0102655 L124.623335,80.0680564 C124.623335,80.0680564 123.564649,79.3521235 123.564649,80.4781069 C123.564649,82.5595029 127.07988,86.7226527 127.07988,86.7226527 L126.055201,86.7226527 C126.055201,86.7226527 121.925163,84.2312062 121.925163,80.2721867 C121.925163,79.0773842 122.778018,78.257641 123.701571,78.257641" id="path110" fill="#231F20" fill-rule="nonzero"></path>
                        <path d="M68.4838146,145.253837 C41.3304484,134.159561 41.3304484,111.183485 41.3304484,111.183485 C41.3304484,111.183485 44.5954604,133.37651 68.4838146,145.253837" id="path112" fill="#231F20" fill-rule="nonzero"></path>
                    </g>
                </g>
            </g>
        </g>
    </g>
</svg>