<?xml version="1.0" encoding="UTF-8"?>
<svg width="200px" height="200px" viewBox="0 0 200 200" version="1.1" xmlns="http://www.w3.org/2000/svg" xmlns:xlink="http://www.w3.org/1999/xlink">
    <!-- Generator: Sketch 54.1 (76490) - https://sketchapp.com -->
    <title>johnson-st</title>
    <desc>Created with Sketch.</desc>
    <defs>
        <path d="M189.872129,51.0900493 L18.6211689,51.0900493 L17.4045857,42.4925966 L20.8900223,39.4965737 L18.3582683,24.1784166 L2.42314345,24.1784166 L0.202162485,10.8010951 C-0.322229301,7.57162855 0.247009865,4.9449608 1.89491263,2.99480452 C3.53336362,1.053244 5.99848125,0.0628263203 9.23432019,0.0530670102 L15.7156564,0.0530670102 L21.1859068,0.0530670102 L21.1916168,0.0530670102 L181.378887,0.0530670102 L183.723002,14.0731445 L183.730292,14.0731445 L189.872129,51.0900493 Z" id="path-1"></path>
        <linearGradient x1="104.121195%" y1="38.9881006%" x2="12.0711512%" y2="58.2223595%" id="linearGradient-3">
            <stop stop-color="#23437D" offset="0%"></stop>
            <stop stop-color="#131923" offset="99.4507%"></stop>
            <stop stop-color="#131923" offset="100%"></stop>
        </linearGradient>
        <path d="M24.4561877,102.120641 L22.3343958,88.6824001 L43.5826868,81.1253313 L33.7609711,23.3699534 L27.8141223,23.3699534 L30.4625657,40.520022 L3.9014122,40.4591024 L0.30608959,19.8250455 C-0.484738029,14.9703674 0.301108573,8.03778486 2.63975696,5.26832171 C4.9644342,2.51719534 8.59340905,0.0687781592 13.4390278,0.0511724125 L40.0704622,0.0511724125 L43.2006064,0.0511724125 C51.4575538,1.65579306 56.9069082,8.6103676 59.8359894,17.4223789 L60.4719803,22.3690454 L60.3328762,24.6133212 L60.4185254,25.1268729 L60.6985558,26.8247005 L60.5558071,28.0747694 L61.5337874,29.9571832 L61.4967335,31.6586659 L61.2075915,32.229482 L61.8763842,33.9425394 L62.3343948,36.6449301 L62.8021245,38.4999301 L64.0443416,43.8450104 L70.3629443,80.8444922 L91.4927843,88.1408254 L95.0214099,102.120641 L24.4561877,102.120641 Z" id="path-4"></path>
        <linearGradient x1="177.069699%" y1="-52.7657746%" x2="17.6854742%" y2="80.3268317%" id="linearGradient-6">
            <stop stop-color="#23437D" offset="0%"></stop>
            <stop stop-color="#131923" offset="99.4507%"></stop>
            <stop stop-color="#131923" offset="100%"></stop>
        </linearGradient>
        <path d="M96.1227007,0.00901609173 C88.2065278,0.372157462 84.8795727,0.445260908 83.4842804,0.445260908 C82.5463913,0.445260908 82.4801802,0.412425277 82.4801802,0.412425277 L85.3831414,3.31036773 C85.3831414,3.31036773 85.7536805,3.25797693 86.2797245,3.25797693 C86.7104003,3.25797693 87.2455559,3.29276199 87.7667404,3.42008382 L86.8282438,6.30590329 C86.0088057,7.12819522 84.9761558,8.05173543 83.7971126,9.02766644 C82.9454801,6.20045157 82.1242197,2.75782752 81.8229289,0.238195396 C80.2861028,0.202252869 78.8768393,0.187022984 77.5927088,0.187022984 C70.6605905,0.187022984 67.3725116,0.626801134 67.3725116,0.626801134 L69.4037948,3.8403068 C69.4037948,3.8403068 73.0065282,3.97621829 73.9152601,4.96183551 C74.2687909,9.41206873 72.3942275,14.8424364 70.3538327,18.6334593 C69.1887606,19.3693673 68.0801805,20.044965 67.068791,20.6322294 C66.9989353,20.6730455 66.929687,20.7126432 66.8610462,20.7522409 C66.8142732,20.7382294 66.7668928,20.7236087 66.7195124,20.7095972 C64.0261184,19.9060685 60.8218664,19.7178271 58.554896,19.705034 L58.554896,19.7038156 L58.5488216,19.705034 C58.4734989,19.7044248 58.3993911,19.7044248 58.3258907,19.7044248 C56.976764,19.7044248 56.000606,19.7635167 55.7315096,19.7824018 C52.5041748,19.6002524 49.2349266,18.4945628 47.8633245,16.3343559 C46.9460884,18.564011 47.5462403,21.4662179 50.9230056,23.7628845 C50.5743343,23.8329419 50.2311301,23.8688845 49.8988598,23.8688845 C48.4361415,23.8688845 47.18785,23.1762293 46.6800292,21.6824822 C45.9826868,23.5374822 46.8069844,26.5804131 51.5839015,28.1844246 C51.1222463,28.503643 50.5093381,28.6937119 49.8460124,28.6937119 C48.8552759,28.6937119 47.7521628,28.2703211 46.872588,27.2249418 C46.5591484,28.1003556 48.0218667,30.5602866 49.7591483,31.531344 C50.9223981,32.1417578 51.9957466,32.3379187 52.8959744,32.3379187 C53.2081991,32.3379187 53.4991634,32.3141601 53.7664375,32.2757808 C54.081092,32.2313095 54.3617298,32.1661256 54.602884,32.0960682 C54.7753973,31.9791026 54.9576296,31.8639647 55.1690191,31.749436 C57.4013653,30.5328728 58.3975688,30.2252291 58.8337115,30.2252291 C59.2801808,30.2252291 59.1410767,30.5474935 59.1410767,30.5474935 L55.051783,35.6196543 C55.051783,35.6196543 55.0384193,35.7792635 55.0074398,35.9766428 C54.8246,36.0064934 54.6417602,36.0363439 54.458313,36.0661945 C48.8103253,36.9897347 42.8592244,37.9900335 40.9196649,38.4853094 C39.4970377,38.8496082 38.0914189,38.9391599 36.8832185,38.9391599 C36.2940006,38.9391599 35.7509482,38.9178381 35.2765367,38.8965163 C34.8021252,38.8751944 34.3951396,38.8538726 34.0774479,38.8538726 C33.7433553,38.8538726 33.5076681,38.877022 33.3934692,38.9489071 C33.3138944,38.9988611 33.2434312,39.0195737 33.1802573,39.0195737 C32.8012141,39.0195737 32.6985565,38.2525967 32.6985565,38.2525967 L31.4472278,33.7975509 C31.4472278,33.7975509 25.5374329,36.3025623 22.7620344,39.7122289 C19.9878507,43.1212863 16.6797262,44.7661138 16.6797262,44.7661138 C16.6797262,44.7661138 14.9096428,42.184953 14.9096428,40.7929415 C14.9090353,40.5102748 14.9825357,40.2763438 15.1580862,40.1234358 C16.1992403,39.2175622 17.6643883,38.559022 17.8040998,35.5684819 C17.8040998,35.5684819 17.8040998,35.5678727 17.8040998,35.5672635 L17.8107816,34.3336428 C17.8107816,34.3336428 17.2993162,31.8219302 16.4391795,30.6291257 C16.3760057,30.530436 16.3140467,30.452459 16.2563398,30.402505 C16.2156412,30.4938843 16.1804096,30.5858728 16.1470004,30.6778613 C15.872437,31.3948843 15.7491264,31.9918958 15.6270307,32.5206773 C15.3725129,33.2535394 14.9369776,33.9797003 13.8672738,34.6808842 C13.8982533,33.0366658 13.5277142,32.4329532 12.5163247,31.3364015 C11.6804857,33.595298 11.1671979,34.3951716 10.4328016,34.9836543 L9.76643863,35.0421371 C9.63583879,34.4323325 10.0446467,32.7180567 10.1746391,31.6659762 C8.02915697,31.9248843 3.12309787,34.3001371 2.68221709,35.6653439 C2.68221709,35.6653439 2.24516319,36.3190106 1.69348515,37.1292405 C1.69348515,37.1292405 0.0182839783,39.7195392 0.0180410018,44.8337345 C0.0180410018,47.4892172 0.469552,50.8257803 1.84200451,54.8336768 C7.01837492,69.9581707 27.6968862,71.1984925 34.3435071,71.1984925 C34.5148055,71.1984925 34.6769923,71.1978833 34.8288526,71.1966649 C35.8353826,71.1869178 36.4124516,71.1509752 36.4124516,71.1509752 C36.3705382,70.785458 36.4106293,70.5655385 36.4974934,70.4449178 C36.5618822,70.3553661 36.6523909,70.3206419 36.754441,70.3206419 C37.1371289,70.3206419 37.6892929,70.8128718 37.6892929,70.8128718 C37.6892929,70.8128718 43.1283209,69.1863201 43.4751698,69.1863201 C43.5219427,69.1863201 43.5419883,69.2216534 43.5419883,69.2831822 C43.5432032,69.675504 42.7116162,71.1339178 42.7116162,71.1339178 L42.7116162,71.1339178 C42.7116162,71.1339178 48.5047824,70.4120212 52.3110086,66.4449409 C56.1178422,62.4778605 57.131054,61.9710099 57.131054,61.9710099 C57.131054,61.9710099 60.6833698,59.211964 61.5161716,58.3767572 C62.3489734,57.5421595 64.9032634,55.0548147 65.5963537,52.8891251 C66.2906589,50.7240447 66.6520864,49.2546654 68.3857234,47.8632632 C70.1211828,46.4718609 75.8183732,41.6537346 76.4422152,40.1228266 C77.0678796,38.5925278 73.0836732,37.7037117 72.3911903,37.1475163 C71.8129063,36.6857462 69.6255108,34.5444244 67.3512512,34.1514934 C67.8092618,33.6196658 68.2812435,33.0458038 68.7702337,32.4256429 C73.5003778,26.4244591 72.0977962,23.2243557 68.818829,21.5350569 C71.3907347,20.8442294 73.6546679,19.9828271 75.6513269,19.0196892 C76.5266496,18.8472869 77.3880011,18.6194478 78.2365964,18.3404363 C78.6362926,18.0486317 79.0311294,17.8092179 79.4028834,17.6569191 L77.5896716,20.6767006 C77.5896716,20.6767006 83.1052371,16.484218 85.505237,16.3343559 C85.505237,18.6614823 84.6882287,19.7038156 84.6882287,19.7038156 C84.6882287,19.7038156 88.9949864,16.9210111 91.9799521,16.7315513 L90.6933918,19.5764938 L95.9793446,17.1622524 C95.4083499,19.789103 95.2327994,22.3757466 96.1178412,23.9559994 C101.767651,20.150965 108.123308,19.7964133 108.123308,19.7964133 C102.827029,22.451896 96.6457075,30.7844705 97.7931638,35.9175508 C86.5955939,48.4139758 69.0028836,57.556171 60.7738785,61.7200214 C60.4829142,61.8674467 60.2028838,62.0087801 59.9362172,62.1434122 L59.8615019,65.7620328 C59.8615019,65.7620328 86.2602864,54.4535389 99.6652974,36.9349071 L99.6652974,36.9349071 C99.6652974,26.0083787 110.579192,19.7750915 112.464082,18.3057122 L112.464082,18.3057122 C112.464082,18.3057122 111.32756,18.2198156 109.657704,18.2198156 C106.109033,18.2198156 100.15368,18.6084823 97.5890636,21.0361259 C97.5848115,20.9368271 97.5823818,20.8363098 97.5823818,20.733965 C97.5842041,16.0772755 102.198327,8.4909653 102.198327,8.4909653 L102.198327,8.4909653 C102.198327,8.4909653 97.378889,5.89323434 96.1227007,0.00901609173 M15.3044795,65.7620328 C15.3044795,65.7620328 4.74593762,60.6027571 3.79984804,48.0868379 C5.61275612,47.1980218 5.70630206,44.8672403 5.70630206,44.8672403 C5.70630206,44.8672403 5.42687914,58.4133089 15.3044795,65.7620328" id="path-7"></path>
        <linearGradient x1="157.827515%" y1="-4.23009701%" x2="2.40624306%" y2="72.255417%" id="linearGradient-9">
            <stop stop-color="#23437D" offset="0%"></stop>
            <stop stop-color="#131923" offset="99.4507%"></stop>
            <stop stop-color="#131923" offset="100%"></stop>
        </linearGradient>
        <path d="M1.940167,0.0304597694 C1.940167,0.0304597694 1.84662106,2.36124132 0.0337129832,3.25005739 C0.979802557,15.7659766 11.5383444,20.9252524 11.5383444,20.9252524 C1.66074407,13.5765284 1.940167,0.0304597694 1.940167,0.0304597694" id="path-10"></path>
        <linearGradient x1="492.52939%" y1="-505.306277%" x2="32.0065107%" y2="144.843873%" id="linearGradient-12">
            <stop stop-color="#23437D" offset="0%"></stop>
            <stop stop-color="#213A69" offset="99.4507%"></stop>
            <stop stop-color="#213A69" offset="100%"></stop>
        </linearGradient>
    </defs>
    <g id="johnson-st" stroke="none" stroke-width="1" fill="none" fill-rule="evenodd">
        <g id="johnson-st_BGL">
            <g id="johnson-st" transform="translate(0.000000, 21.000000)">
                <g id="g10">
                    <g transform="translate(99.924067, 79.573104) scale(-1, 1) rotate(-180.000000) translate(-99.924067, -79.573104) translate(0.000000, 0.377704)">
                        <g id="g12">
                            <path d="M156.618371,57.6962859 C158.121788,60.0038571 160.069852,61.1089985 160.086253,61.1193548 L162.141226,62.229918 L160.928774,64.228688 C159.818371,66.055665 158.31131,69.014527 157.409867,71.6535614 C160.293998,70.8110442 163.683519,70.5838143 166.497794,70.5838143 C168.232038,70.5838143 169.422016,70.6715385 169.471826,70.6751936 L175.192706,71.1083316 L170.664233,74.6410556 C170.409107,74.8396533 170.07623,75.0717567 169.652236,75.3647797 C166.66241,77.4384808 158.71951,82.9462163 158.71951,91.5188138 L158.71951,92.2723885 L158.262714,92.8706184 C147.467878,106.977147 128.536367,117.131215 120.954894,120.816848 L122.604097,130.46833 L143.625205,137.726893 L148.14396,155.63541 L72.8449488,155.63541 L70.1406209,138.500571 L91.3676515,130.952031 L90.8707646,128.032158 C90.5749408,128.039468 90.2159431,128.044951 89.7998459,128.044951 C86.5676516,128.044951 80.1883048,127.730606 73.7791933,125.627664 C65.547151,122.926491 59.9606363,118.228376 57.1803782,111.673434 C57.115139,111.519917 57.051054,111.3664 56.986969,111.208009 L56.9716007,111.167802 C56.9452378,111.102618 56.9186318,111.036825 56.8956706,110.975905 C56.7845696,110.69202 56.6818513,110.409963 56.589095,110.138262 C54.0034003,102.589112 54.4447671,97.1928596 55.2835218,93.9756988 L52.3210921,93.9689977 L48.4059517,71.5018718 L48.4016996,71.4762856 C47.7081233,67.218619 48.0834612,61.5549295 49.7157163,57.6962859 L21.1175697,57.6962859 L19.4613814,45.9852356 L22.920455,43.0110828 L20.8998021,30.7850797 L4.96535751,30.7850797 L2.43569926,15.543072 C1.80239327,11.6442215 2.53844185,8.41475496 4.62414567,5.94631962 C6.69989353,3.48645566 9.73521616,2.23212845 13.6534545,2.21928052 L187.669547,2.21928052 L190.014878,16.2405398 L190.025204,16.2405398 L196.902045,57.6962859 L156.618371,57.6962859" id="path14" fill="#FFFFFF" fill-rule="nonzero"></path>
                            <path d="M6.84033392,28.5646234 L4.61892775,15.1799307 C4.08883817,11.9121457 4.64170679,9.35900781 6.31216385,7.38101131 C7.97454802,5.41279849 10.3777674,4.44903311 13.6614727,4.4392738 L185.796199,4.4392738 L188.141529,18.4593513 L188.150033,18.4593513 L194.290656,55.4762561 L152.526648,55.4762561 L154.765676,58.9115698 C156.560664,61.6645847 158.907209,63.0005501 159.00683,63.0565961 L159.037809,63.074872 C157.942593,64.8768719 156.311006,68.0184926 155.316017,70.9347109 L153.933481,74.9834234 L158.029457,73.7857453 C160.226572,73.1430441 163.154438,72.8025039 166.497794,72.8025039 C168.155501,72.8025039 169.292023,72.8884005 169.30235,72.8896189 L169.304779,72.8896189 C169.098249,73.0504464 168.788454,73.2654924 168.392403,73.5378028 C165.1432,75.7936533 156.507209,81.7820439 156.507209,91.5188138 C146.00516,105.241549 127.470916,115.18179 119.989671,118.819296 L118.493543,119.546675 L120.644492,132.138744 L141.773117,139.435077 L145.300528,153.414893 L74.7359131,153.414893 L72.6141212,139.976652 L93.8624122,132.419583 L92.7307494,125.767169 L90.8173098,125.813468 C90.4959734,125.820778 90.1533766,125.825043 89.7998459,125.825043 C86.6988589,125.825043 80.5843564,125.52471 74.4668167,123.51802 C66.867728,121.024583 61.7378876,116.746813 59.2174321,110.804112 C59.1545619,110.658514 59.0976447,110.521446 59.0411527,110.378894 L59.0245088,110.338687 L58.9611527,110.17725 C58.8586773,109.915296 58.7656781,109.661871 58.6823979,109.417583 C56.2720715,102.380158 56.6683053,97.4414114 57.4249948,94.5367678 L58.1482749,91.762492 L54.1816236,91.753354 L50.586058,71.1156419 C49.9081536,66.9554466 50.3879714,61.7919065 51.7534991,58.5625008 L53.0585864,55.4762561 L23.0388453,55.4762561 L21.8228089,46.8788034 L25.3080024,43.8827805 L22.7761877,28.5646234 L6.84033392,28.5646234 Z M189.542896,0 L13.6534545,0 C9.05299901,0.0159438008 5.44846152,1.53346054 2.93351549,4.51232851 C0.411921022,7.49931705 -0.490698849,11.3310342 0.2515189,15.8999996 L3.08964609,33.0038911 L19.0228697,33.0038911 L20.5324824,42.1392024 L17.0989821,45.0909368 L19.1965371,59.9155847 L46.6745015,59.9155847 C45.6888068,63.9679524 45.6829146,68.5564121 46.2179487,71.8351017 L46.2252988,71.8826189 L50.4603176,96.1852505 L52.6148506,96.1895148 C52.1718438,99.7143193 52.3611832,104.626871 54.4957921,110.859549 C54.5989964,111.16171 54.7128916,111.47179 54.8336509,111.783089 C54.8566729,111.844009 54.886316,111.91894 54.9166881,111.993262 L54.9342431,112.036514 C55.0042811,112.211963 55.0747443,112.382537 55.1478194,112.551285 C58.186483,119.715422 64.2247516,124.828399 73.0909625,127.737307 C78.2001499,129.413813 83.2771429,130.002905 86.8914177,130.1881 L67.6665131,137.025709 L70.9551994,157.855318 L150.987999,157.855318 L145.477293,136.018709 L124.56431,128.797916 L123.415639,122.075445 C131.936823,117.800721 149.597566,107.839767 160.018827,94.2218137 L160.933633,93.0265724 L160.933633,91.5188138 C160.933633,84.1109979 168.182228,79.0826992 170.911461,77.1905383 C171.363397,76.8774119 171.719358,76.6294693 172.023078,76.3937107 L181.080026,69.3282626 L169.638265,68.4619868 C169.587239,68.4583316 168.331051,68.3639063 166.497794,68.3639063 C164.534544,68.3639063 162.714043,68.4668604 161.052084,68.6727684 C161.651021,67.4263546 162.283975,66.264619 162.819738,65.3831133 L165.24525,61.384964 L162.526951,59.9155847 L199.51465,59.9155847 L191.900982,14.021241 L191.887011,14.021241 L189.542896,0 L189.542896,0 Z" id="path16" fill="#FFFFFF" fill-rule="nonzero"></path>
                            <path d="M156.512676,57.6962859 C158.016093,60.0038571 159.962942,61.1089985 159.981773,61.1193548 L162.036746,62.229918 L160.823079,64.228688 C159.712676,66.055665 158.207437,69.014527 157.304172,71.6535614 C160.188303,70.8110442 163.579039,70.5838143 166.393314,70.5838143 C168.126951,70.5838143 169.316928,70.6715385 169.366738,70.6751936 L175.087619,71.1083316 L170.55793,74.6410556 C170.305235,74.8396533 169.96932,75.0717567 169.547148,75.3647797 C166.556108,77.4384808 158.613815,82.9462163 158.613815,91.5188138 L158.613815,92.2723885 L158.156412,92.8706184 C147.362183,106.977147 128.431887,117.131215 120.849807,120.816848 L122.498402,130.46833 L143.51951,137.726893 L148.038265,155.63541 L72.7404689,155.63541 L70.0349261,138.500571 L91.2613493,130.952031 L90.7650699,128.032158 C90.4698535,128.039468 90.1102483,128.044951 89.6947586,128.044951 C86.4619568,128.044951 80.08261,127.730606 73.6728911,125.627664 C65.4414562,122.926491 59.8552453,118.228376 57.074562,111.673434 C57.0095658,111.519917 56.9457237,111.3664 56.8816387,111.208009 L56.8652985,111.167802 C56.8394215,111.102618 56.8130586,111.036825 56.7902795,110.975905 C56.6797252,110.69202 56.576278,110.409963 56.483461,110.138262 C53.898556,102.589112 54.3403479,97.1928596 55.1779485,93.9756988 L52.2157618,93.9689977 L48.3003784,71.5018718 L48.2965516,71.4762856 C47.6024893,67.218619 47.9790421,61.5549295 49.610143,57.6962859 L21.0119964,57.6962859 L19.3553222,45.9852356 L22.8151247,43.0110828 L20.794168,30.7850797 L4.86000292,30.7850797 L2.33058157,15.543072 C1.69703868,11.6442215 2.43332416,8.41475496 4.51784347,5.94631962 C6.59407728,3.48645566 9.62958214,2.23212845 13.5471523,2.21928052 L187.565067,2.21928052 L189.909183,16.2405398 L189.918902,16.2405398 L196.79635,57.6962859 L156.512676,57.6962859" id="path18" fill="#216E38" fill-rule="nonzero"></path>
                            <path d="M65.0223218,99.4511469 L73.6261181,107.29271 L89.1766113,95.248308 L110.798479,88.4874576 L132.574636,80.1518371 C132.574636,80.1518371 150.590733,65.2119294 151.514651,64.4589639 C152.439784,63.7059984 145.671674,54.8932561 145.671674,54.8932561 C145.671674,54.8932561 133.686253,55.1809791 134.033102,57.3124319 C134.379344,59.4434583 128.725889,53.5829987 128.725889,53.5829987 L98.9394053,53.4728561 L91.563855,79.1558026 L85.4177655,68.3084696 L72.0394819,68.3084696 L68.5290795,81.0930439 L65.0223218,99.4511469" id="path20" fill="#F7F8F8" fill-rule="nonzero"></path>
                            <path d="M50.4304315,45.118777 L47.7259214,28.8173177 L54.9670449,28.8173177 L57.6729522,45.118777 L50.4304315,45.118777 Z M60.3796492,50.552739 C63.9914942,50.552739 65.4961259,48.735631 64.8923294,45.1011713 L62.1916461,28.8173177 C61.578738,25.1952247 59.4703706,23.378604 55.8696417,23.365019 L45.0327703,23.365019 C41.4239018,23.378604 39.9183589,25.1952247 40.5196649,28.8173177 L43.20662,45.118777 C43.8190422,48.7403827 45.9254051,50.552739 49.5261339,50.552739 L60.3796492,50.552739 L60.3796492,50.552739 Z" id="path22" fill="#211D1D" fill-rule="nonzero"></path>
                            <polyline id="path24" fill="#211D1D" fill-rule="nonzero" points="72.9615775 34.2507922 71.1574773 23.3840868 63.9343948 23.3840868 67.9914941 47.8351793 66.6362929 50.552739 75.6665129 50.552739 73.8624127 39.6854852 81.068487 39.6854852 82.4218658 47.8351793 81.083673 50.552739 90.113893 50.552739 85.6066797 23.3840868 78.3817748 23.3840868 80.1852675 34.2507922 72.9615775 34.2507922"></polyline>
                            <polyline id="path26" fill="#211D1D" fill-rule="nonzero" points="99.1034144 39.6854852 96.4003013 23.3840868 89.1766113 23.3840868 93.2318883 47.8351793 91.8772946 50.552739 100.907515 50.552739 106.779648 42.4023748 108.132419 50.552739 115.355502 50.552739 110.847074 23.3840868 103.623991 23.3840868 104.975548 31.5348774 99.1034144 39.6854852"></polyline>
                            <path d="M117.124371,45.118777 C117.736671,48.7403827 119.842062,50.552739 123.441758,50.552739 L139.714499,50.552739 L138.512981,43.3075782 L136.103262,45.118777 L124.346846,45.118777 L123.464234,39.6854852 L137.912221,39.6854852 L136.108121,28.8173177 C135.494606,25.1952247 133.387392,23.378604 129.785874,23.365019 L113.534394,23.3840868 L114.437051,28.8173177 L128.883824,28.8173177 L129.785874,34.2507922 L115.336064,34.2507922 L117.124371,45.118777" id="path28" fill="#211D1D" fill-rule="nonzero"></path>
                            <path d="M148.707665,45.118777 L146.001515,28.8173177 L153.243428,28.8173177 L155.949578,45.118777 L148.707665,45.118777 Z M158.656944,50.552739 C162.268181,50.552739 163.774028,48.735631 163.169624,45.1011713 L160.468333,28.8173177 C159.856032,25.1952247 157.746997,23.378604 154.144871,23.365019 L143.309336,23.365019 C139.699313,23.378604 138.193467,25.1952247 138.797263,28.8173177 L141.482153,45.118777 C142.094454,48.7403827 144.201667,50.552739 147.801363,50.552739 L158.656944,50.552739 L158.656944,50.552739 Z" id="path30" fill="#211D1D" fill-rule="nonzero"></path>
                            <polyline id="path32" fill="#211D1D" fill-rule="nonzero" points="172.1391 39.6854852 169.434164 23.3840868 162.209867 23.3840868 166.267574 47.8351793 164.911765 50.552739 173.942592 50.552739 179.815333 42.4023748 181.166282 50.552739 188.39058 50.552739 183.882152 23.3840868 176.659677 23.3840868 178.011841 31.5348774 172.1391 39.6854852"></polyline>
                            <g id="g34" transform="translate(4.312832, 4.386207)">
                                <g id="g36-Clipped">
                                    <mask id="mask-2" fill="white">
                                        <use xlink:href="#path-1"></use>
                                    </mask>
                                    <g id="path38"></g>
                                    <g id="g36" mask="url(#mask-2)" fill="url(#linearGradient-3)" fill-rule="nonzero">
                                        <path d="M189.872129,51.0900493 L18.6211689,51.0900493 L17.4045857,42.4925966 L20.8900223,39.4965737 L18.3582683,24.1784166 L2.42314345,24.1784166 L0.202162485,10.8010951 C-0.322229301,7.57162855 0.247009865,4.9449608 1.89491263,2.99480452 C3.53336362,1.053244 5.99848125,0.0628263203 9.23432019,0.0530670102 L15.7156564,0.0530670102 L21.1859068,0.0530670102 L21.1916168,0.0530670102 L181.378887,0.0530670102 L183.723002,14.0731445 L183.730292,14.0731445 L189.872129,51.0900493" id="path50"></path>
                                    </g>
                                </g>
                            </g>
                            <path d="M50.4304315,45.118777 L47.7259214,28.8173177 L54.9670449,28.8173177 L57.6729522,45.118777 L50.4304315,45.118777 Z M60.3796492,50.552739 C63.9914942,50.552739 65.4961259,48.735631 64.8923294,45.1011713 L62.1916461,28.8173177 C61.578738,25.1952247 59.4703706,23.378604 55.8696417,23.365019 L45.0327703,23.365019 C41.4239018,23.378604 39.9183589,25.1952247 40.5196649,28.8173177 L43.20662,45.118777 C43.8190422,48.7403827 45.9254051,50.552739 49.5261339,50.552739 L60.3796492,50.552739 L60.3796492,50.552739 Z" id="path52" fill="#FFFFFF" fill-rule="nonzero"></path>
                            <polyline id="path54" fill="#FFFFFF" fill-rule="nonzero" points="72.9615775 34.2507922 71.1574773 23.3840868 63.9343948 23.3840868 67.9914941 47.8351793 66.6362929 50.552739 75.6665129 50.552739 73.8624127 39.6854852 81.068487 39.6854852 82.4218658 47.8351793 81.083673 50.552739 90.113893 50.552739 85.6066797 23.3840868 78.3817748 23.3840868 80.1852675 34.2507922 72.9615775 34.2507922"></polyline>
                            <polyline id="path56" fill="#FFFFFF" fill-rule="nonzero" points="99.1034144 39.6854852 96.4003013 23.3840868 89.1766113 23.3840868 93.2318883 47.8351793 91.8772946 50.552739 100.907515 50.552739 106.779648 42.4023748 108.132419 50.552739 115.355502 50.552739 110.847074 23.3840868 103.623991 23.3840868 104.975548 31.5348774 99.1034144 39.6854852"></polyline>
                            <path d="M117.124371,45.118777 C117.736671,48.7403827 119.842062,50.552739 123.441758,50.552739 L139.714499,50.552739 L138.512981,43.3075782 L136.103262,45.118777 L124.346846,45.118777 L123.464234,39.6854852 L137.912221,39.6854852 L136.110551,28.8173177 C135.494606,25.1952247 133.387392,23.378604 129.785874,23.365019 L113.534394,23.3840868 L114.437051,28.8173177 L128.883824,28.8173177 L129.785874,34.2507922 L115.336064,34.2507922 L117.124371,45.118777" id="path58" fill="#FFFFFF" fill-rule="nonzero"></path>
                            <path d="M148.707665,45.118777 L146.001515,28.8173177 L153.243428,28.8173177 L155.949578,45.118777 L148.707665,45.118777 Z M158.656944,50.552739 C162.268181,50.552739 163.774028,48.735631 163.169624,45.1011713 L160.468333,28.8173177 C159.856032,25.1952247 157.746997,23.378604 154.144871,23.365019 L143.309336,23.365019 C139.699313,23.378604 138.193467,25.1952247 138.797263,28.8173177 L141.482153,45.118777 C142.094454,48.7403827 144.201667,50.552739 147.801363,50.552739 L158.656944,50.552739 L158.656944,50.552739 Z" id="path60" fill="#FFFFFF" fill-rule="nonzero"></path>
                            <polyline id="path62" fill="#FFFFFF" fill-rule="nonzero" points="172.1391 39.6854852 169.434164 23.3840868 162.209867 23.3840868 166.267574 47.8351793 164.911765 50.552739 173.942592 50.552739 179.815333 42.4023748 181.166282 50.552739 188.39058 50.552739 183.882152 23.3840868 176.659677 23.3840868 178.011841 31.5348774 172.1391 39.6854852"></polyline>
                            <polyline id="path64" fill="#C5C6C7" fill-rule="nonzero" points="50.4304315 45.118777 47.8003936 45.118777 45.0967946 28.8173177 47.7259214 28.8173177 50.4304315 45.118777"></polyline>
                            <path d="M60.3796492,50.552739 L57.7500973,50.552739 C61.362489,50.552739 62.8671207,48.735631 62.2639316,45.1011713 L59.5622157,28.8173177 C58.9485786,25.1952247 56.8408186,23.378604 53.2388749,23.365019 L55.8696417,23.365019 C59.4703706,23.378604 61.578738,25.1952247 62.1916461,28.8173177 L64.8923294,45.1011713 C65.4961259,48.735631 63.9914942,50.552739 60.3796492,50.552739" id="path66" fill="#C5C6C7" fill-rule="nonzero"></path>
                            <polyline id="path68" fill="#C5C6C7" fill-rule="nonzero" points="73.8624127 39.6854852 75.6665129 50.552739 73.0362928 50.552739 71.2328 39.6854852 73.8624127 39.6854852"></polyline>
                            <polyline id="path70" fill="#C5C6C7" fill-rule="nonzero" points="87.4854952 50.552739 82.9758521 23.3840868 85.6066797 23.3840868 90.113893 50.552739 87.4854952 50.552739"></polyline>
                            <polyline id="path72" fill="#C5C6C7" fill-rule="nonzero" points="68.5290795 23.3840868 71.1574773 23.3840868 72.9615775 34.2507922 70.3319648 34.2507922 68.5290795 23.3840868"></polyline>
                            <polyline id="path74" fill="#C5C6C7" fill-rule="nonzero" points="106.779648 42.4023748 100.907515 50.552739 98.2772944 50.552739 106.287621 39.4349232 106.779648 42.4023748"></polyline>
                            <polyline id="path76" fill="#C5C6C7" fill-rule="nonzero" points="96.965829 42.6515357 93.7694737 23.3840868 96.4003013 23.3840868 99.1034144 39.6854852 96.965829 42.6515357"></polyline>
                            <polyline id="path78" fill="#C5C6C7" fill-rule="nonzero" points="112.726497 50.552739 108.218069 23.3840868 110.847074 23.3840868 115.355502 50.552739 112.726497 50.552739"></polyline>
                            <polyline id="path80" fill="#C5C6C7" fill-rule="nonzero" points="121.717841 45.118777 120.834014 39.6854852 123.464234 39.6854852 124.346846 45.118777 121.717841 45.118777"></polyline>
                            <polyline id="path82" fill="#C5C6C7" fill-rule="nonzero" points="137.085494 50.552739 136.175547 45.0664471 138.512981 43.3075782 139.714499 50.552739 137.085494 50.552739"></polyline>
                            <path d="M133.479116,28.8173177 C132.87046,25.2225775 130.788152,23.4090638 127.237051,23.3676385 L129.785874,23.365019 C133.387392,23.378604 135.494606,25.1952247 136.110551,28.8173177 L137.912221,39.6854852 L135.282001,39.6854852 L133.479116,28.8173177" id="path84" fill="#C5C6C7" fill-rule="nonzero"></path>
                            <polyline id="path86" fill="#C5C6C7" fill-rule="nonzero" points="148.707665 45.118777 146.077445 45.118777 143.37251 28.8173177 146.001515 28.8173177 148.707665 45.118777"></polyline>
                            <path d="M158.656944,50.552739 L156.026724,50.552739 C159.637961,50.552739 161.142593,48.735631 160.539404,45.1011713 L157.836898,28.8173177 C157.224597,25.1952247 155.116777,23.378604 151.514651,23.365019 L154.144871,23.365019 C157.746997,23.378604 159.856032,25.1952247 160.468333,28.8173177 L163.169624,45.1011713 C163.774028,48.735631 162.268181,50.552739 158.656944,50.552739" id="path88" fill="#C5C6C7" fill-rule="nonzero"></path>
                            <polyline id="path90" fill="#C5C6C7" fill-rule="nonzero" points="179.815333 42.4023748 173.942592 50.552739 171.312372 50.552739 179.321484 39.4349232 179.815333 42.4023748"></polyline>
                            <polyline id="path92" fill="#C5C6C7" fill-rule="nonzero" points="185.76036 50.552739 181.253147 23.3840868 183.882152 23.3840868 188.39058 50.552739 185.76036 50.552739"></polyline>
                            <polyline id="path94" fill="#C5C6C7" fill-rule="nonzero" points="170.001514 42.6534242 166.803944 23.3840868 169.434164 23.3840868 172.1391 39.6854852 170.001514 42.6534242"></polyline>
                            <path d="M29.6111154,45.4909345 L26.1285339,48.4853126 L26.4592856,50.4815849 L42.3832336,50.4815849 L42.0522389,48.4853126 L37.5742436,45.4909345 L32.4366279,14.5269341 C31.7760357,10.5476699 29.4608952,8.55182392 25.4907207,8.53732507 L13.5471523,8.53732507 C9.56956696,8.55182392 7.9019588,10.5476699 8.54973403,14.5269341 L10.1974181,24.4654086 L18.1617611,24.4654086 L16.514806,14.5457583 L24.4981619,14.5457583 L29.6111154,45.4909345" id="path96" fill="#FFFFFF" fill-rule="nonzero"></path>
                            <path d="M39.486529,50.4815849 L39.1540765,48.4853126 L34.6756559,45.4909345 L29.5380403,14.5269341 C28.8783592,10.5476699 26.5639477,8.55182392 22.5920723,8.53732507 L25.4907207,8.53732507 C29.4608952,8.55182392 31.7760357,10.5476699 32.4366279,14.5269341 L37.5742436,45.4909345 L42.0522389,48.4853126 L42.3832336,50.4815849 L39.486529,50.4815849" id="path98" fill="#C5C6C7" fill-rule="nonzero"></path>
                            <polyline id="path100" fill="#C5C6C7" fill-rule="nonzero" points="16.514806 14.5457583 18.1617611 24.4654086 15.2619586 24.4654086 13.6166435 14.5457583 16.514806 14.5457583"></polyline>
                            <path d="M169.199085,72.8896189 C167.314195,74.3589981 156.4003,80.5922853 156.4003,91.5188138 C141.27623,109.95794 117.813816,118.593284 117.813816,118.593284 L117.199086,113.974974 C116.743505,114.428216 109.624902,120.425744 109.046011,121.028848 C105.239785,124.995928 99.4466186,125.717824 99.4466186,125.717824 C99.4466186,125.717824 100.557021,123.770227 100.210172,123.770227 C99.8633232,123.770227 94.4242953,125.397388 94.4242953,125.397388 C94.4242953,125.397388 91.3767631,124.134526 91.563855,125.780572 C91.5626401,125.780572 64.7690189,127.510077 58.5770069,109.417583 C54.5617602,97.6911815 58.4284875,91.7131471 58.4284875,91.7131471 C60.5106135,91.9227103 63.426574,89.8715495 64.1901275,88.8279978 C65.1608184,89.4542506 64.401517,89.9988713 64.1901275,91.2739173 C64.9518587,91.3439747 67.7977204,90.2894575 68.9773711,89.1070093 C70.4334075,89.9422161 69.6704614,91.6808598 69.6704614,91.6808598 C69.6704614,91.6808598 71.5559587,91.5437908 74.5391022,90.1523886 C74.3999981,93.1429287 72.9342427,93.8020781 71.8930886,94.7073425 C70.8519344,95.6126068 73.4147286,99.3500205 73.4147286,99.3500205 C73.4147286,99.3500205 76.7228531,97.7058022 79.4970367,94.2967448 C82.2724353,90.886469 88.1822301,88.3814576 88.1822301,88.3814576 L89.8338626,99.7904688 C89.8338626,99.7904688 90.9072111,97.5084228 91.4611974,97.1605723 C92.0163986,96.8121125 94.9867858,96.2504344 98.5257379,95.3457792 C99.5930119,95.0722505 108.239329,94.3064919 111.687165,93.3549287 L109.907362,83.6047565 C109.907362,83.6047565 111.163551,81.9239865 116.402731,75.8308142 C132.588,76.8110096 144.041302,62.3231249 145.477901,58.3906468 C145.82475,57.7645767 142.325889,56.3310791 140.778736,55.6285549 C144.373573,56.6711319 146.042821,57.1553813 152.857703,54.5929228 C154.113891,60.477141 158.933329,63.074872 158.933329,63.074872 C158.933329,63.074872 154.113891,70.9980672 154.324066,75.6200326 C158.095668,72.0495384 169.199085,72.8896189 169.199085,72.8896189" id="path102" fill="#22437C" fill-rule="nonzero"></path>
                            <g id="g104" transform="translate(50.174638, 51.294252)">
                                <g id="g106-Clipped">
                                    <mask id="mask-5" fill="white">
                                        <use xlink:href="#path-4"></use>
                                    </mask>
                                    <g id="path108"></g>
                                    <g id="g106" mask="url(#mask-5)" fill="url(#linearGradient-6)" fill-rule="nonzero">
                                        <path d="M24.4561877,102.120641 L22.3343958,88.6824001 L43.5826868,81.1253313 L33.7609711,23.3699534 L27.8141223,23.3699534 L30.4625657,40.520022 L3.9014122,40.4591024 L0.30608959,19.8250455 C-0.484738029,14.9703674 0.301108573,8.03778486 2.63975696,5.26832171 C4.9644342,2.51719534 8.59340905,0.0687781592 13.4390278,0.0511724125 L40.0704622,0.0511724125 L43.2006064,0.0511724125 C51.4575538,1.65579306 56.9069082,8.6103676 59.8359894,17.4223789 L60.4719803,22.3690454 L60.3328762,24.6133212 L60.4185254,25.1268729 L60.6985558,26.8247005 L60.5558071,28.0747694 L61.5337874,29.9571832 L61.4967335,31.6586659 L61.2075915,32.229482 L61.8763842,33.9425394 L62.3343948,36.6449301 L62.8021245,38.4999301 L64.0443416,43.8450104 L70.3629443,80.8444922 L91.4927843,88.1408254 L95.0214099,102.120641 L24.4561877,102.120641" id="path120"></path>
                                    </g>
                                </g>
                            </g>
                            <path d="M98.601668,135.580698 L77.4256625,142.978157 L78.4303701,149.041479 L139.738189,149.041479 L138.030065,143.170663 L116.66636,135.592272 L105.895821,70.5539638 C104.704629,63.3745961 96.4282436,55.6616342 89.2634754,55.6371446 L63.6136658,55.6371446 C56.4338938,55.6616342 53.4275461,63.3745961 54.5954125,70.5539638 L57.571874,88.4874576 L76.0376595,88.4874576 L73.0678797,70.5905155 L87.4709166,70.5905155 L98.601668,135.580698" id="path122" fill="#FFFFFF" fill-rule="nonzero"></path>
                            <polyline id="path124" fill="#216E38" fill-rule="nonzero" points="73.0678797 70.5905155 76.0376595 88.4874576 71.5140453 88.4874576 68.5442656 70.5905155 73.0678797 70.5905155"></polyline>
                            <path d="M138.223231,149.041479 L135.911918,143.888904 L114.647226,136.659583 L100.578281,70.4631936 C99.3864819,63.2826076 95.3870895,55.5719607 88.2217138,55.5464963 C96.8583119,55.5464963 104.793923,63.2826076 105.98633,70.4631936 L116.66636,135.592272 L138.030065,143.170663 L139.738189,149.041479 L138.223231,149.041479" id="path126" fill="#216E38" fill-rule="nonzero"></path>
                            <path d="M105.289595,84.6903427 L101.544113,82.9529175 C101.544113,82.9529175 95.8779019,78.1542854 93.147454,76.1579521 C93.147454,76.1579521 99.2479854,78.7768831 99.8390256,79.1277796 C100.431281,79.4786762 103.172055,80.9078486 104.026117,81.825906 C102.78633,81.4634347 105.289595,84.6903427 105.289595,84.6903427" id="path128" fill="#FFFFFF" fill-rule="nonzero"></path>
                            <path d="M104.731964,82.4485037 C104.731964,82.4485037 102.059223,81.0504003 99.7558062,80.3802853 C97.0387219,78.7324118 93.6965808,76.2986763 93.147454,76.1579521 C93.147454,76.1579521 97.34305,77.2386647 97.9535283,77.5645843 C98.5652215,77.8892854 101.861197,79.8783083 103.520726,80.5636532 C104.364462,81.7637681 104.731964,82.4485037 104.731964,82.4485037" id="path130" fill="#216E38" fill-rule="nonzero"></path>
                            <polyline id="path132" fill="#FFFFFF" fill-rule="nonzero" points="103.818372 77.9355843 102.017917 77.2130785 99.9076664 76.4509751 98.9861782 75.2234464 96.0692459 73.2965614 91.8505672 69.4872626 103.077294 75.297159 103.818372 77.9355843"></polyline>
                            <path d="M100.494455,75.5505843 C100.112982,75.1253659 92.2253584,69.4872626 92.2253584,69.4872626 C92.2253584,69.4872626 101.918297,74.3139177 103.955047,75.1265843 C104.542442,76.1311475 103.857856,76.6099751 103.857856,76.6099751 C103.857856,76.6099751 100.66879,75.7473544 100.494455,75.5505843" id="path134" fill="#216E38" fill-rule="nonzero"></path>
                            <path d="M104.598327,72.9048488 L101.984508,71.5591361 C101.984508,71.5591361 100.994986,70.8238373 100.215032,70.5119293 C99.4356847,70.199412 97.3825336,68.8299408 97.3825336,68.8299408 C97.3825336,68.8299408 96.1214858,67.9740213 95.9009847,67.7918719 C95.6786612,67.6091133 90.9418352,63.4263777 90.9418352,63.4263777 L93.8095649,65.4848489 L97.7348495,67.0961707 L103.475776,69.6547914 L104.598327,70.9182626 L104.598327,72.9048488" id="path136" fill="#FFFFFF" fill-rule="nonzero"></path>
                            <path d="M104.628092,71.1180787 C104.547302,70.9871017 101.864842,69.8576534 97.405009,67.9429523 C92.9469984,66.0252052 90.9418352,63.4263777 90.9418352,63.4263777 C91.5869377,64.1561938 96.6936954,65.9935271 97.874561,66.7702512 C99.0566414,67.5451477 102.908426,68.2968948 102.908426,68.2968948 C102.908426,68.2968948 103.759451,69.179619 104.345631,69.5956994 C104.930597,70.0075155 104.707059,71.2466189 104.628092,71.1180787" id="path138" fill="#216E38" fill-rule="nonzero"></path>
                            <g id="g140" transform="translate(56.735002, 54.583907)">
                                <g id="g142-Clipped">
                                    <mask id="mask-8" fill="white">
                                        <use xlink:href="#path-7"></use>
                                    </mask>
                                    <g id="path144"></g>
                                    <g id="g142" mask="url(#mask-8)" fill="url(#linearGradient-9)" fill-rule="nonzero">
                                        <path d="M96.1227007,0.00901609173 C88.2065278,0.372157462 84.8795727,0.445260908 83.4842804,0.445260908 C82.5463913,0.445260908 82.4801802,0.412425277 82.4801802,0.412425277 L85.3831414,3.31036773 C85.3831414,3.31036773 85.7536805,3.25797693 86.2797245,3.25797693 C86.7104003,3.25797693 87.2455559,3.29276199 87.7667404,3.42008382 L86.8282438,6.30590329 C86.0088057,7.12819522 84.9761558,8.05173543 83.7971126,9.02766644 C82.9454801,6.20045157 82.1242197,2.75782752 81.8229289,0.238195396 C80.2861028,0.202252869 78.8768393,0.187022984 77.5927088,0.187022984 C70.6605905,0.187022984 67.3725116,0.626801134 67.3725116,0.626801134 L69.4037948,3.8403068 C69.4037948,3.8403068 73.0065282,3.97621829 73.9152601,4.96183551 C74.2687909,9.41206873 72.3942275,14.8424364 70.3538327,18.6334593 C69.1887606,19.3693673 68.0801805,20.044965 67.068791,20.6322294 C66.9989353,20.6730455 66.929687,20.7126432 66.8610462,20.7522409 C66.8142732,20.7382294 66.7668928,20.7236087 66.7195124,20.7095972 C64.0261184,19.9060685 60.8218664,19.7178271 58.554896,19.705034 L58.554896,19.7038156 L58.5488216,19.705034 C58.4734989,19.7044248 58.3993911,19.7044248 58.3258907,19.7044248 C56.976764,19.7044248 56.000606,19.7635167 55.7315096,19.7824018 C52.5041748,19.6002524 49.2349266,18.4945628 47.8633245,16.3343559 C46.9460884,18.564011 47.5462403,21.4662179 50.9230056,23.7628845 C50.5743343,23.8329419 50.2311301,23.8688845 49.8988598,23.8688845 C48.4361415,23.8688845 47.18785,23.1762293 46.6800292,21.6824822 C45.9826868,23.5374822 46.8069844,26.5804131 51.5839015,28.1844246 C51.1222463,28.503643 50.5093381,28.6937119 49.8460124,28.6937119 C48.8552759,28.6937119 47.7521628,28.2703211 46.872588,27.2249418 C46.5591484,28.1003556 48.0218667,30.5602866 49.7591483,31.531344 C50.9223981,32.1417578 51.9957466,32.3379187 52.8959744,32.3379187 C53.2081991,32.3379187 53.4991634,32.3141601 53.7664375,32.2757808 C54.081092,32.2313095 54.3617298,32.1661256 54.602884,32.0960682 C54.7753973,31.9791026 54.9576296,31.8639647 55.1690191,31.749436 C57.4013653,30.5328728 58.3975688,30.2252291 58.8337115,30.2252291 C59.2801808,30.2252291 59.1410767,30.5474935 59.1410767,30.5474935 L55.051783,35.6196543 C55.051783,35.6196543 55.0384193,35.7792635 55.0074398,35.9766428 C54.8246,36.0064934 54.6417602,36.0363439 54.458313,36.0661945 C48.8103253,36.9897347 42.8592244,37.9900335 40.9196649,38.4853094 C39.4970377,38.8496082 38.0914189,38.9391599 36.8832185,38.9391599 C36.2940006,38.9391599 35.7509482,38.9178381 35.2765367,38.8965163 C34.8021252,38.8751944 34.3951396,38.8538726 34.0774479,38.8538726 C33.7433553,38.8538726 33.5076681,38.877022 33.3934692,38.9489071 C33.3138944,38.9988611 33.2434312,39.0195737 33.1802573,39.0195737 C32.8012141,39.0195737 32.6985565,38.2525967 32.6985565,38.2525967 L31.4472278,33.7975509 C31.4472278,33.7975509 25.5374329,36.3025623 22.7620344,39.7122289 C19.9878507,43.1212863 16.6797262,44.7661138 16.6797262,44.7661138 C16.6797262,44.7661138 14.9096428,42.184953 14.9096428,40.7929415 C14.9090353,40.5102748 14.9825357,40.2763438 15.1580862,40.1234358 C16.1992403,39.2175622 17.6643883,38.559022 17.8040998,35.5684819 C17.8040998,35.5684819 17.8040998,35.5678727 17.8040998,35.5672635 L17.8107816,34.3336428 C17.8107816,34.3336428 17.2993162,31.8219302 16.4391795,30.6291257 C16.3760057,30.530436 16.3140467,30.452459 16.2563398,30.402505 C16.2156412,30.4938843 16.1804096,30.5858728 16.1470004,30.6778613 C15.872437,31.3948843 15.7491264,31.9918958 15.6270307,32.5206773 C15.3725129,33.2535394 14.9369776,33.9797003 13.8672738,34.6808842 C13.8982533,33.0366658 13.5277142,32.4329532 12.5163247,31.3364015 C11.6804857,33.595298 11.1671979,34.3951716 10.4328016,34.9836543 L9.76643863,35.0421371 C9.63583879,34.4323325 10.0446467,32.7180567 10.1746391,31.6659762 C8.02915697,31.9248843 3.12309787,34.3001371 2.68221709,35.6653439 C2.68221709,35.6653439 2.24516319,36.3190106 1.69348515,37.1292405 C1.69348515,37.1292405 0.0182839783,39.7195392 0.0180410018,44.8337345 C0.0180410018,47.4892172 0.469552,50.8257803 1.84200451,54.8336768 C7.01837492,69.9581707 27.6968862,71.1984925 34.3435071,71.1984925 C34.5148055,71.1984925 34.6769923,71.1978833 34.8288526,71.1966649 C35.8353826,71.1869178 36.4124516,71.1509752 36.4124516,71.1509752 C36.3705382,70.785458 36.4106293,70.5655385 36.4974934,70.4449178 C36.5618822,70.3553661 36.6523909,70.3206419 36.754441,70.3206419 C37.1371289,70.3206419 37.6892929,70.8128718 37.6892929,70.8128718 C37.6892929,70.8128718 43.1283209,69.1863201 43.4751698,69.1863201 C43.5219427,69.1863201 43.5419883,69.2216534 43.5419883,69.2831822 C43.5432032,69.675504 42.7116162,71.1339178 42.7116162,71.1339178 L42.7116162,71.1339178 C42.7116162,71.1339178 48.5047824,70.4120212 52.3110086,66.4449409 C56.1178422,62.4778605 57.131054,61.9710099 57.131054,61.9710099 C57.131054,61.9710099 60.6833698,59.211964 61.5161716,58.3767572 C62.3489734,57.5421595 64.9032634,55.0548147 65.5963537,52.8891251 C66.2906589,50.7240447 66.6520864,49.2546654 68.3857234,47.8632632 C70.1211828,46.4718609 75.8183732,41.6537346 76.4422152,40.1228266 C77.0678796,38.5925278 73.0836732,37.7037117 72.3911903,37.1475163 C71.8129063,36.6857462 69.6255108,34.5444244 67.3512512,34.1514934 C67.8092618,33.6196658 68.2812435,33.0458038 68.7702337,32.4256429 C73.5003778,26.4244591 72.0977962,23.2243557 68.818829,21.5350569 C71.3907347,20.8442294 73.6546679,19.9828271 75.6513269,19.0196892 C76.5266496,18.8472869 77.3880011,18.6194478 78.2365964,18.3404363 C78.6362926,18.0486317 79.0311294,17.8092179 79.4028834,17.6569191 L77.5896716,20.6767006 C77.5896716,20.6767006 83.1052371,16.484218 85.505237,16.3343559 C85.505237,18.6614823 84.6882287,19.7038156 84.6882287,19.7038156 C84.6882287,19.7038156 88.9949864,16.9210111 91.9799521,16.7315513 L90.6933918,19.5764938 L95.9793446,17.1622524 C95.4083499,19.789103 95.2327994,22.3757466 96.1178412,23.9559994 C101.767651,20.150965 108.123308,19.7964133 108.123308,19.7964133 C102.827029,22.451896 96.6457075,30.7844705 97.7931638,35.9175508 C86.5955939,48.4139758 69.0028836,57.556171 60.7738785,61.7200214 C60.4829142,61.8674467 60.2028838,62.0087801 59.9362172,62.1434122 L59.8615019,65.7620328 C59.8615019,65.7620328 86.2602864,54.4535389 99.6652974,36.9349071 L99.6652974,36.9349071 C99.6652974,26.0083787 110.579192,19.7750915 112.464082,18.3057122 L112.464082,18.3057122 C112.464082,18.3057122 111.32756,18.2198156 109.657704,18.2198156 C106.109033,18.2198156 100.15368,18.6084823 97.5890636,21.0361259 C97.5848115,20.9368271 97.5823818,20.8363098 97.5823818,20.733965 C97.5842041,16.0772755 102.198327,8.4909653 102.198327,8.4909653 L102.198327,8.4909653 C102.198327,8.4909653 97.378889,5.89323434 96.1227007,0.00901609173 M15.3044795,65.7620328 C15.3044795,65.7620328 4.74593762,60.6027571 3.79984804,48.0868379 C5.61275612,47.1980218 5.70630206,44.8672403 5.70630206,44.8672403 C5.70630206,44.8672403 5.42687914,58.4133089 15.3044795,65.7620328" id="path156"></path>
                                    </g>
                                </g>
                            </g>
                            <path d="M74.5391022,119.053227 C77.6722836,122.85887 85.2124504,126.112583 98.1163225,120.755319 C111.02141,115.397445 111.76431,114.599399 116.171296,111.309135 C120.582533,108.01948 120.834014,104.670124 123.180559,102.550733 C123.180559,102.550733 127.05907,98.6537102 128.725889,97.1234114 C126.088987,97.2623079 124.492024,96.0804689 124.492024,95.4536068 C127.200604,94.2711586 126.991645,92.2528942 126.991645,91.9056529 C126.991645,91.5559747 126.474105,90.836515 123.907058,91.5322161 C122.116929,90.4234805 120.458008,91.3427563 118.016702,91.8952966 C116.117233,92.3247793 105.405009,95.4121815 95.4994661,97.0216757 C88.7489727,98.1188366 85.8557306,99.784986 84.9312052,100.431342 C84.7690184,105.878158 84.8570973,109.111767 77.2902031,113.996905 C85.9626402,115.496744 93.7220933,105.770331 93.7220933,105.770331 L102.950339,102.938181 C102.950339,102.938181 113.842366,98.0049171 114.328927,97.933032 C114.814272,97.8617562 112.871068,96.748147 112.871068,96.748147 C112.871068,96.748147 116.338949,95.2184574 121.146238,95.0350896 C119.06393,96.8443999 118.865904,96.9059286 118.865904,96.9059286 C118.865904,96.9059286 121.561121,97.749055 122.739557,98.3052504 C118.273649,101.022871 118.323459,101.511446 117.350946,102.564745 C119.06393,104.03717 112.433103,108.474549 107.171448,113.105652 C104.617158,115.352365 97.9778259,116.302101 97.9778259,116.302101 C97.9778259,116.302101 95.273498,122.354457 83.0621088,121.729422 C84.0327997,120.198514 84.1712963,119.363307 84.1712963,119.363307 C84.1712963,119.363307 80.3298385,120.855227 74.5391022,119.053227" id="path158" fill="#FFFFFF" fill-rule="nonzero"></path>
                            <path d="M110.918145,105.426744 L114.15945,102.9924 C114.15945,102.9924 112.564917,102.366147 111.523156,102.9924 C110.483824,103.617434 110.986785,105.009446 110.918145,105.426744" id="path160" fill="#FFFFFF" fill-rule="nonzero"></path>
                            <g id="g162" transform="translate(60.501137, 99.420687)">
                                <g id="g164-Clipped">
                                    <mask id="mask-11" fill="white">
                                        <use xlink:href="#path-10"></use>
                                    </mask>
                                    <g id="path166"></g>
                                    <g id="g164" mask="url(#mask-11)" fill="url(#linearGradient-12)" fill-rule="nonzero">
                                        <path d="M1.940167,0.0304597694 C1.940167,0.0304597694 1.84662106,2.36124132 0.0337129832,3.25005739 C0.979802557,15.7659766 11.5383444,20.9252524 11.5383444,20.9252524 C1.66074407,13.5765284 1.940167,0.0304597694 1.940167,0.0304597694" id="path178"></path>
                                    </g>
                                </g>
                            </g>
                            <path d="M45.1394977,16.917295 L44.798298,14.9776169 L47.3754278,14.9776169 L47.7163845,16.917295 L45.1394977,16.917295 Z M44.4584955,13.0446399 L44.1172958,11.1044744 L46.6941826,11.1044744 L47.0353823,13.0446399 L44.4584955,13.0446399 Z M42.7467871,17.8908501 L42.2743194,18.8569731 L48.7003784,18.8569731 C49.9852987,18.8569731 50.5141977,18.2106777 50.2866502,16.917295 L49.9468477,14.9838307 C49.8714035,14.555018 49.600424,14.2325709 49.1343951,14.0177077 C49.525648,13.8068652 49.6827322,13.4820422 49.605648,13.0446399 L49.2658454,11.1111756 C49.0396951,9.82565148 48.2847065,9.18435149 46.9997862,9.18435149 L41.2160962,9.18435149 L42.7467871,17.8908501 L42.7467871,17.8908501 Z" id="path180" fill="#FFFFFF" fill-rule="nonzero"></path>
                            <path d="M66.7353058,16.917295 L66.0555792,13.0507928 L68.6323445,13.0507928 L69.3120712,16.917295 L66.7353058,16.917295 Z M70.2949109,18.851003 C71.5796489,18.851003 72.1087302,18.2039766 71.8809397,16.9113858 L70.5227014,9.18435149 L67.945936,9.18435149 L68.2854956,11.1170848 L65.722094,11.1170848 L65.3752451,9.18435149 L62.8118435,9.18435149 L64.0601351,16.2862295 C64.2095656,17.1367272 64.5175383,17.6690421 64.9834456,17.884149 L64.5120713,18.8569731 L70.2949109,18.851003 L70.2949109,18.851003 Z" id="path182" fill="#FFFFFF" fill-rule="nonzero"></path>
                            <path d="M88.3438095,16.9239961 L87.3239158,11.1240296 L89.9006811,11.1240296 L90.9205748,16.9239961 L88.3438095,16.9239961 Z M91.9034146,18.8569731 C93.1881526,18.8569731 93.7172338,18.2106777 93.4900508,16.917295 L92.471372,11.1240296 C92.2405444,9.83491125 91.4842802,9.18788483 90.2025794,9.18435149 L84.4203472,9.19026069 L85.949884,17.8908501 L85.4772947,18.8569731 L91.9034146,18.8569731 L91.9034146,18.8569731 Z" id="path184" fill="#FFFFFF" fill-rule="nonzero"></path>
                            <path d="M113.737886,9.18435149 L107.953224,9.17740667 C106.668486,9.18173195 106.140013,9.82802734 106.366588,11.1170848 L107.3798,16.917295 C107.610628,18.2063524 108.366892,18.851003 109.647378,18.851003 L115.436899,18.851003 L114.983748,16.2728881 L114.133938,16.917295 L109.949883,16.917295 L108.930597,11.1170848 L111.507362,11.1170848 L111.846922,13.0507928 L111.526193,13.0507928 L110.505085,12.7285893 L110.902351,14.9838307 L114.757173,14.9838307 L113.737886,9.18435149" id="path186" fill="#FFFFFF" fill-rule="nonzero"></path>
                            <polyline id="path188" fill="#FFFFFF" fill-rule="nonzero" points="137.045403 18.851003 136.592252 16.2728881 135.741834 16.917295 131.564461 16.917295 131.224902 14.9838307 135.080331 14.9838307 134.746846 13.0507928 130.884735 13.0507928 130.545175 11.1170848 135.685342 11.1170848 135.345782 9.18435149 127.634925 9.18435149 129.164461 17.884149 128.691872 18.851003 137.045403 18.851003"></polyline>
                            <path d="M153.165676,16.917295 L152.824294,14.9776169 L155.401059,14.9776169 L155.742441,16.917295 L153.165676,16.917295 Z M151.812297,9.18435149 L149.242213,9.18435149 L150.772965,17.8908501 L150.300376,18.8569731 L156.726496,18.8569731 C158.011234,18.8569731 158.539708,18.2106777 158.312525,16.917295 L157.972965,14.9838307 C157.897642,14.555018 157.626723,14.2325709 157.160816,14.0177077 C157.551401,13.8068652 157.708728,13.4820422 157.631583,13.0446399 L156.953071,9.18435149 L154.382988,9.18435149 L155.0615,13.0446399 L152.484734,13.0446399 L151.812297,9.18435149 L151.812297,9.18435149 Z" id="path190" fill="#FFFFFF" fill-rule="nonzero"></path>
                            <path d="M172.190732,16.917295 C172.42156,18.2063524 173.177824,18.851003 174.45831,18.851003 L180.248439,18.851003 L179.795288,16.2728881 L178.94487,16.917295 L174.761423,16.917295 L174.427938,14.9838307 L179.568712,14.9838307 L178.888378,11.1170848 C178.658158,9.82802734 177.901286,9.18173195 176.620193,9.17740667 L170.837961,9.18435149 L171.17752,11.1170848 L176.318295,11.1170848 L176.658462,13.0507928 L171.517687,13.0507928 L172.190732,16.917295" id="path192" fill="#FFFFFF" fill-rule="nonzero"></path>
                        </g>
                    </g>
                </g>
            </g>
        </g>
    </g>
</svg>