<?xml version="1.0" encoding="UTF-8"?>
<svg width="200px" height="200px" viewBox="0 0 200 200" version="1.1" xmlns="http://www.w3.org/2000/svg" xmlns:xlink="http://www.w3.org/1999/xlink">
    <!-- Generator: Sketch 54.1 (76490) - https://sketchapp.com -->
    <title>walsh</title>
    <desc>Created with Sketch.</desc>
    <g id="walsh" stroke="none" stroke-width="1" fill="none" fill-rule="evenodd">
        <g id="walsh_BGL">
            <g id="walsh" transform="translate(0.000000, 32.000000)">
                <g id="g10" transform="translate(99.500000, 68.500000) scale(-1, 1) rotate(-180.000000) translate(-99.500000, -68.500000) " fill-rule="nonzero">
                    <g id="g12" transform="translate(0.000000, 0.237113)">
                        <polyline id="path16" fill="#7E6A43" points="157.741577 129.512711 129.809894 129.512711 116.832025 66.9727812 107.144602 129.512711 91.5340183 129.512711 81.9426784 66.9727812 68.9637096 129.512711 41.1275591 129.512711 63.8859091 6.40962116 93.2274891 6.40962116 99.3400662 42.0527818 105.547076 6.40962116 134.794361 6.40962116 157.741577 129.512711 157.741577 129.512711"></polyline>
                        <path d="M110.744739,12.5898272 L129.659516,12.5898272 L150.302402,123.332642 L134.839997,123.332642 L115.948726,32.2982803 L101.847558,123.332642 L96.8390354,123.332642 L82.8553931,32.1558748 L63.9341565,123.332642 L48.5556002,123.332642 L69.028177,12.5898272 L88.0164926,12.5898272 L99.292781,78.3473513 L110.744739,12.5898272 Z M139.928519,0.229415127 L100.349551,0.229415127 L99.3868016,5.75821224 L98.438623,0.229415127 L58.7429539,0.229415127 L33.6995181,135.694154 L73.9938126,135.694154 L81.0298262,101.790237 L86.2290013,135.694154 L112.441509,135.694154 L117.715324,101.647969 L124.780341,135.694154 L165.180752,135.694154 L139.928519,0.229415127 L139.928519,0.229415127 Z" id="path18" fill="#7E6A43"></path>
                        <polyline id="path20" fill="#751D2D" points="157.741577 129.925082 129.809894 129.925082 116.832025 67.3857021 107.144602 129.925082 91.5340183 129.925082 81.9426784 67.3857021 68.9637096 129.925082 41.1275591 129.925082 63.8859091 6.82144245 93.2274891 6.82144245 99.3400662 42.4651529 105.547076 6.82144245 134.794361 6.82144245 157.741577 129.925082 157.741577 129.925082"></polyline>
                        <path d="M107.27986,8.88219842 L133.082608,8.88219842 L155.261852,127.864601 L131.486732,127.864601 L116.538279,55.8280392 L105.379104,127.864601 L93.3026781,127.864601 L82.2465959,55.7803416 L67.287421,127.864601 L43.6034353,127.864601 L65.5997234,8.88219842 L91.4905819,8.88219842 L99.3245336,54.5635718 L107.27986,8.88219842 Z M136.505564,4.76123632 L103.813881,4.76123632 L99.3557363,30.3663216 L94.9645337,4.76123632 L62.1714074,4.76123632 L38.6516829,131.985563 L70.6405481,131.985563 L81.638211,78.9912001 L89.7659084,131.985563 L108.909413,131.985563 L117.12632,78.943365 L128.133605,131.985563 L160.221302,131.985563 L136.505564,4.76123632 L136.505564,4.76123632 Z" id="path22" fill="#FFFFFF"></path>
                        <path d="M48.5539507,46.3767679 C48.5539507,46.3767679 45.6137446,46.0460463 45.6191054,40.1832286 C45.6191054,40.1832286 32.9091401,37.1639847 17.5161508,34.4647407 C10.4961372,37.1092767 9.50386231,30.867215 9.50386231,30.867215 C9.50386231,30.867215 8.59697573,24.0464592 17.6868724,26.7312701 C17.5891405,26.8144316 25.9187622,7.80398538 44.1403425,11.4257035 C57.5424041,15.4945694 54.6901705,33.2039847 54.6901705,33.2039847 C54.6901705,33.2039847 58.5319573,35.2674899 63.8450843,22.5527135 C63.8450843,22.5527135 169.417178,46.6355995 195.567005,110.883158 C195.567005,110.883158 144.393124,65.8404101 53.1024042,41.5615103 C51.2221293,47.334706 48.5539507,46.3767679 48.5539507,46.3767679 L48.5539507,46.3767679" id="path24" fill="#7E6A43"></path>
                        <path d="M48.5539507,46.3767679 L48.5674215,46.3767679 L48.5539507,46.3767679 Z M20.5058414,27.7744316 C20.9300338,26.8402736 28.2463223,11.4406863 43.4063219,14.3450161 C53.9513389,17.6772497 51.818143,32.1166996 51.7213733,32.7331944 C51.5238475,33.9934005 52.1435039,35.2486582 53.267765,35.8527819 C53.6780743,36.0728507 55.1799299,36.7344314 57.2889333,35.985428 C60.2180054,34.9463902 62.9386926,31.6969057 65.5718197,26.0787616 C80.1868021,29.8534694 157.417178,51.7918881 186.875597,100.319584 C167.231611,86.0127807 121.139928,56.5465271 53.8750502,38.6566307 C52.330308,38.2486582 50.7388303,39.1131255 50.2448097,40.6299639 C49.8082462,41.9696203 49.3797926,42.7041907 49.0856345,43.0890704 C48.8756002,42.6434347 48.623229,41.7763557 48.6243287,40.1858402 C48.6259782,38.7925757 47.6696895,37.5800671 46.3139507,37.2580053 C46.1855659,37.228452 33.3392432,34.1883146 18.0358758,31.5035037 C17.50268,31.4133319 16.9598621,31.4617168 16.4562195,31.6522322 C15.1025426,32.1597236 14.0287282,32.2482459 13.4315873,31.9046033 C12.7351749,31.4992425 12.4736904,30.404947 12.4720822,30.3947752 C12.4607969,30.2133319 12.5311475,29.5608233 12.7743777,29.3610982 C13.0868725,29.1018543 14.2977316,28.8655656 16.8347762,29.6134694 C18.2404119,30.0334006 19.7341576,29.3729196 20.3811679,28.0628165 C20.4284531,27.9678337 20.4692778,27.8712014 20.5058414,27.7744316 Z M39.6349131,7.96508504 C33.47725,7.96508504 27.7330577,10.2782121 22.7995871,14.78859 C19.4651542,17.8368374 17.2632298,21.1792428 16.0695529,23.2797238 C13.0272712,22.7969747 10.6062128,23.3028166 8.85953242,24.7982118 C6.0712026,27.1848784 6.469072,30.8522322 6.52437097,31.2629539 C6.59793798,31.7355312 7.24173178,35.2604795 10.4102265,37.1022664 C11.8502952,37.93883 14.2606182,38.654019 17.7582126,37.5602733 C28.9186247,39.5362183 38.6329887,41.6716134 42.7824044,42.6138814 C43.4735384,47.2290016 46.1195865,48.9821287 47.935394,49.3219225 C48.6109953,49.4804105 49.8819232,49.6010977 51.3536757,48.8799981 C52.7443286,48.1997232 53.9186241,46.9487267 54.8625416,45.1483143 C142.865976,69.1249461 193.079033,112.697591 193.580751,113.138828 C194.626799,114.05979 196.171816,114.139515 197.307212,113.334017 C198.443981,112.52577 198.876971,111.041234 198.350511,109.749825 C184.478346,75.666939 148.731268,52.9580736 121.186664,39.9094141 C91.5700321,25.8790365 64.780342,19.682748 64.5135379,19.6221294 C63.0868713,19.3015796 61.6345002,20.0452222 61.0717511,21.3939507 C59.8775243,24.2520949 58.817593,26.1995863 57.9413044,27.5275588 C57.5375931,20.3308579 54.5408921,11.441786 45.0134697,8.54927746 C44.9188992,8.52082385 44.8228167,8.49663141 44.7261844,8.47793726 C43.0046725,8.13580668 41.3041914,7.96508504 39.6349131,7.96508504 L39.6349131,7.96508504 Z" id="path26" fill="#7E6A43"></path>
                        <path d="M150.01924,46.5577988 C150.01924,46.5577988 152.959446,46.2291391 152.952573,40.3630224 C152.952573,40.3630224 165.664601,37.3439159 181.05704,34.6457717 C188.078346,37.2901702 189.069411,31.048246 189.069411,31.048246 C189.069411,31.048246 189.976628,24.2263905 180.886593,26.9127134 C180.984188,26.9943629 172.654291,7.98556614 154.432986,11.6071468 C141.030924,15.6756003 143.883158,33.383916 143.883158,33.383916 C143.883158,33.383916 140.041234,35.4485208 134.728244,22.7337445 C134.728244,22.7337445 29.1564254,46.8155308 3.00580061,111.063227 C3.00580061,111.063227 54.1800674,66.0218533 145.470787,41.7414416 C147.351199,47.5161493 150.01924,46.5577988 150.01924,46.5577988 L150.01924,46.5577988" id="path28" fill="#7E6A43"></path>
                        <path d="M149.008931,43.7264587 C149.010306,43.7264587 149.010306,43.7264587 149.010306,43.7264587 C149.010306,43.7264587 149.010306,43.7264587 149.008931,43.7264587 Z M155.167006,14.5264594 C170.325769,11.6206176 177.639858,27.0120949 178.065975,27.9527134 C178.104463,28.0537443 178.147075,28.1529883 178.195185,28.2507203 C178.845356,29.557112 180.335391,30.2133319 181.738827,29.7945003 C184.291404,29.0399986 185.498277,29.2832976 185.804806,29.5458405 C186.081095,29.782679 186.104463,30.5424041 186.089342,30.6525071 C186.052229,30.8254281 185.747074,31.7479023 185.123019,32.0969057 C184.522332,32.4324384 183.454291,32.3369057 182.116834,31.833813 C181.613741,31.64316 181.073535,31.5921635 180.537453,31.6845346 C165.232986,34.3681084 152.38625,37.4082458 152.258415,37.4377991 C150.901714,37.7599984 149.945013,38.9723695 149.946388,40.3668712 C149.947763,41.9550498 149.697591,42.823366 149.487281,43.2706512 C149.193123,42.8839845 148.765632,42.1495515 148.329893,40.8114072 C147.836422,39.2929193 146.241921,38.4247406 144.698278,38.8365619 C77.4280393,56.7279704 31.3348446,86.1969731 11.6961921,100.502127 C41.1598615,51.9422661 118.386526,30.0296893 133.000959,26.2603423 C135.634636,31.8766996 138.35601,35.1278335 141.28522,36.1663214 C143.392436,36.9116135 144.896216,36.2522321 145.305838,36.0310637 C146.435735,35.4258404 147.054292,34.1705827 146.850855,32.9059779 C146.75601,32.2966308 144.621302,17.8582807 155.167006,14.5264594 Z M159.050168,8.13154551 C157.403432,8.13154551 155.671474,8.29690633 153.846044,8.65938055 C153.749824,8.67821217 153.654979,8.70226715 153.560134,8.73030839 C144.032986,11.6232293 141.036423,20.5123012 140.632299,27.7084522 C139.755323,26.3811671 138.696904,24.4331259 137.502402,21.5755314 C136.937866,20.2251535 135.485357,19.4787617 134.05979,19.8035727 C133.792986,19.8637789 107.003296,26.0589677 77.3872146,40.0892079 C49.8416482,53.1380049 14.0947076,75.8474201 0.221756695,109.930856 C-0.303371814,111.222677 0.127792162,112.705838 1.26449756,113.512711 C2.40065973,114.320959 3.94490712,114.241234 4.99140881,113.321646 C5.11813046,113.210306 17.9590374,102.002334 41.6967687,87.9988975 C63.1936754,75.3179356 98.2023343,57.729345 143.711337,45.3282456 C144.654292,47.1285205 145.828175,48.3796545 147.21924,49.0615789 C148.690031,49.7837781 149.960134,49.6613039 150.637797,49.5029534 C152.453604,49.163572 155.099652,47.4115445 155.788312,42.7938127 C159.940889,41.8515447 169.660477,39.7145001 180.813741,37.7400671 C184.309274,38.8365619 186.723019,38.1197235 188.163569,37.2820602 C191.331954,35.4420603 191.975253,31.915325 192.037109,31.5195862 C192.103088,31.0336755 192.501713,27.3648096 189.714085,24.9796551 C187.965631,23.4827479 185.542263,22.9796551 182.496215,23.4611671 C179.87491,18.8692772 172.32302,8.133195 159.050168,8.13154551 L159.050168,8.13154551 Z" id="path30" fill="#7E6A43"></path>
                        <path d="M48.4933321,46.4369741 C48.4933321,46.4369741 45.5529886,46.1068023 45.5599989,40.2423351 C45.5599989,40.2423351 32.8479717,37.2230912 17.4559446,34.5249469 C10.4359997,37.1693455 9.44318877,30.9274212 9.44318877,30.9274212 C9.44318877,30.9274212 8.53576611,24.1072152 17.6261164,26.7918887 C17.5285219,26.8735382 25.8580062,7.8647414 44.0802738,11.4863221 C57.4832975,15.5547756 54.6295519,33.2647408 54.6295519,33.2647408 C54.6295519,33.2647408 58.4713387,35.327696 63.7843283,22.6129197 C63.7843283,22.6129197 169.358071,46.6947061 195.506524,110.943639 C195.506524,110.943639 144.332642,65.9010286 53.0434351,41.6206168 C51.1613733,47.3954621 48.4933321,46.4369741 48.4933321,46.4369741 L48.4933321,46.4369741" id="path32" fill="#7E6A43"></path>
                        <path d="M48.4933321,46.4369741 L48.5073527,46.4369741 L48.4933321,46.4369741 Z M18.5792435,27.1000674 C18.8901713,26.3998612 26.9973876,9.11312624 43.8848099,12.4690024 C48.9491397,14.0109955 52.1789678,17.9135384 53.3870777,24.0410984 C54.3158749,28.7501017 53.6468715,33.0633662 53.640411,33.1062528 C53.573332,33.5278335 53.7795176,33.9450157 54.1558749,34.1480397 C54.3175244,34.2339504 55.1932632,34.6404108 56.5576618,34.1587614 C59.1634349,33.233538 61.7912012,29.7450158 64.3744314,23.7850159 C74.0318882,26.1620605 166.074223,50.2024723 192.915459,107.518897 C180.236422,97.4442581 130.999309,61.3183483 53.3011671,40.6530567 C52.7846035,40.5187612 52.2556688,40.8043969 52.0914076,41.3107887 C50.8971809,44.9727817 49.4050847,45.642335 48.7929885,45.4812353 C48.7569747,45.4720257 48.6871465,45.4542937 48.6372496,45.4463212 L48.6372496,45.4446717 C47.9172497,45.3131253 46.5571122,44.0571804 46.5619232,40.2432973 C46.5624731,39.7788299 46.2430229,39.3751186 45.7914765,39.2677647 C45.6641913,39.2365619 32.874226,36.2108575 17.6288655,33.5385552 C17.4489343,33.5063902 17.2707899,33.5250844 17.10268,33.5879023 C15.1180752,34.334294 13.5239447,34.3734693 12.3641509,33.6969057 C10.7930581,32.7841909 10.4359997,30.790514 10.4327695,30.7705827 L10.4327695,30.7705827 C10.4333056,30.7705827 10.2239035,28.9030914 11.4137729,27.8952564 C12.4989275,26.9755313 14.5501027,26.9245347 17.3421302,27.7529883 C17.8156697,27.8937443 18.3107899,27.670789 18.5260476,27.2316138 C18.5470786,27.189277 18.5648105,27.1446035 18.5792435,27.1000674 Z M39.5484526,10.0376623 C25.6942949,10.0376623 18.5448793,22.6692771 17.0720271,25.6026104 C13.9583502,24.8240537 11.6145839,25.0871465 10.1014843,26.3811671 C8.08365616,28.1084522 8.43428158,30.9397924 8.44985546,31.0589676 C8.4729345,31.2039848 8.94705132,34.0298267 11.357388,35.4296892 C13.0047282,36.3870775 15.0864601,36.4283146 17.5472161,35.5584864 C30.512714,37.8388987 41.6424732,40.3630224 44.5752566,41.0406856 C44.8228167,46.3913384 47.605772,47.277249 48.2527823,47.4115445 C48.5583493,47.494706 49.3830915,47.6439844 50.4112702,47.1419913 C51.7305829,46.494981 52.8280399,45.0463212 53.6791739,42.8276271 C143.117522,66.8186918 194.33539,111.247419 194.843981,111.695529 C195.191748,112.003433 195.705837,112.028175 196.086593,111.760134 C196.465974,111.490718 196.610304,110.995873 196.434359,110.564945 C170.390374,46.5738813 65.0681771,21.8788991 64.0071462,21.6356002 C63.5352561,21.5309954 63.0482458,21.776906 62.8603421,22.2262531 C59.53127,30.1917511 56.9399298,31.9384178 55.7543629,32.29127 C55.912301,30.6213044 56.0663904,27.3121636 55.3645347,23.7092771 C54.0302392,16.863779 50.2287273,12.3051537 44.3712704,10.5279716 C42.681511,10.1907894 41.0739509,10.0376623 39.5484526,10.0376623 L39.5484526,10.0376623 Z" id="path34" fill="#231F20"></path>
                        <path d="M44.8410985,30.8860467 C41.1382808,30.4199298 29.6070096,28.8790364 22.0071472,26.7837787 C23.4815114,24.7123011 27.9918893,19.6694146 35.6373874,21.7312703 C42.9338821,23.6991053 44.5059783,28.673813 44.8410985,30.8860467 L44.8410985,30.8860467" id="path36" fill="#751D2D"></path>
                        <path d="M23.7204118,26.2147066 C25.6630921,24.0292771 29.5107896,21.1003424 35.3802053,22.6842599 C40.9112017,24.1753939 42.8699646,27.5124385 43.5620608,29.7272838 C38.907353,29.1162873 30.258281,27.8614419 23.7204118,26.2147066 Z M32.1499648,20.2626792 C25.9912021,20.2626792 22.3110647,24.6559437 21.2038483,26.2119574 L20.3861163,27.3594488 L21.7444668,27.7341567 C29.2101711,29.7934006 40.2980059,31.3085896 44.7180745,31.8643284 L46.0115452,32.0270776 L45.8162188,30.7384178 C45.4709267,28.454844 43.8122326,22.9135383 35.8945695,20.7781431 C34.5586246,20.4184181 33.3102397,20.2626792 32.1499648,20.2626792 L32.1499648,20.2626792 Z" id="path38" fill="#231F20"></path>
                        <path d="M57.0914075,38.6835722 C57.0914075,38.6835722 124.499516,50.3742936 185.047418,99.1190346 C185.047418,99.1190346 131.894842,44.5029535 57.0914075,38.6835722 L57.0914075,38.6835722" id="path40" fill="#751D2D"></path>
                        <path d="M53.6984179,32.5569745 L51.9319575,41.9454278 L53.901442,42.3158746 L55.6679024,32.9275586 L53.6984179,32.5569745 Z M45.8881088,31.1358061 L43.8907206,31.2887958 L44.5946381,40.4758746 L46.5920263,40.3227475 L45.8881088,31.1358061 L45.8881088,31.1358061 Z" id="path42" fill="#231F20"></path>
                        <path d="M149.958759,46.6184174 C149.958759,46.6184174 152.898965,46.2893452 152.893467,40.4232286 C152.893467,40.4232286 165.60412,37.4045345 180.996559,34.7058404 C188.01649,37.3507888 189.00893,31.1088645 189.00893,31.1088645 C189.00893,31.1088645 189.916146,24.287009 180.827487,26.9727822 C180.925081,27.0544316 172.59381,8.04563486 154.372505,11.6662533 C140.970443,15.7362189 143.822677,33.4445346 143.822677,33.4445346 C143.822677,33.4445346 139.980753,35.5091393 134.669275,22.794363 C134.669275,22.794363 29.095257,46.8761494 2.94566316,111.125082 C2.94566316,111.125082 54.1194488,66.0826094 145.410306,41.8020601 C147.290718,47.5752559 149.958759,46.6184174 149.958759,46.6184174 L149.958759,46.6184174" id="path44" fill="#7E6A43"></path>
                        <path d="M143.164258,34.5705827 C143.79656,34.5705827 144.193811,34.3826789 144.296904,34.326184 C144.672161,34.1249469 144.879721,33.7076273 144.812368,33.2856342 C144.805495,33.2432975 144.137453,28.931545 145.065288,24.2210296 C146.273536,18.0934697 149.503776,14.1925763 154.663914,12.6247413 C171.455666,9.28590975 179.564257,26.5797925 179.87491,27.2815107 C179.888655,27.3261842 179.906525,27.3701705 179.928518,27.4130571 C180.142951,27.8523698 180.636422,28.0762873 181.112023,27.9340192 C183.910648,27.1043285 185.964257,27.1569746 187.047418,28.0842598 C188.229549,29.0953938 188.019239,30.9584865 188.01649,30.9773181 L188.01649,30.9773181 C188.01649,30.9756687 187.657727,32.9774555 186.074222,33.8859091 C184.914085,34.551751 183.325081,34.5114761 181.349824,33.769483 C181.183501,33.7050157 181.002057,33.6845346 180.823363,33.7194487 C165.578003,36.3924383 152.789,39.4180052 152.662539,39.4486581 C152.210305,39.5560121 151.890031,39.9604107 151.891405,40.424878 C151.894154,44.2382113 150.534704,45.4945686 149.815804,45.626115 C149.773192,45.634225 149.709962,45.6476958 149.660477,45.6626786 L149.660477,45.6626786 C149.0268,45.8156683 147.553261,45.1472147 146.364258,41.4916821 C146.200684,40.9859777 145.671474,40.697043 145.153261,40.8339502 C67.4533316,61.4997916 18.2158071,97.6257014 5.53694832,107.69979 C32.384604,50.3727816 124.421715,26.3419918 134.078622,23.9659094 C136.662952,29.9260467 139.289344,33.4134693 141.894155,34.3385552 C142.383502,34.5114761 142.810993,34.5705827 143.164258,34.5705827 Z M158.94845,10.2004114 C157.436422,10.2004114 155.848793,10.3507894 154.177316,10.6835729 C148.224051,12.4861846 144.423364,17.0448099 143.088656,23.8897582 C142.383502,27.504466 142.541577,30.8243285 142.699653,32.4887958 C141.546388,32.140892 138.942952,30.4243285 135.594361,22.4076964 C135.406457,21.9577995 134.928519,21.7150503 134.446457,21.8171809 C133.385976,22.0597926 28.0621299,46.7553246 2.01729205,110.747076 C1.8422405,111.177316 1.98668036,111.672161 2.36522331,111.941577 C2.74376625,112.209619 3.25923016,112.182127 3.60717517,111.876972 C4.11619234,111.428863 55.3355313,66.9997227 144.775254,43.008658 C145.624739,45.226115 146.721646,46.6747748 148.041233,47.3217851 C149.068038,47.827627 149.89278,47.677249 150.199309,47.592438 C150.848106,47.4588298 153.628862,46.5727817 153.877659,41.2221289 C156.809618,40.5440533 167.939515,38.020342 180.905837,35.7400672 C183.364944,36.6098953 185.446043,36.5696204 187.095528,35.6111325 C189.50515,34.2108576 189.979377,31.3854281 189.998621,31.265703 C190.019239,31.1206858 190.36838,28.2883835 188.350511,26.5620605 C186.835734,25.2652908 184.490717,25.0075588 181.381439,25.7835038 C179.906525,22.8448098 172.75326,10.2015111 158.94845,10.2004114 L158.94845,10.2004114 Z" id="path46" fill="#231F20"></path>
                        <path d="M153.610993,31.0670776 C157.314085,30.6026102 168.845357,29.0604797 176.445356,26.96371 C174.971817,24.8937444 170.461851,19.8503081 162.816491,21.9121637 C155.520271,23.8790365 153.947762,28.854844 153.610993,31.0670776 L153.610993,31.0670776" id="path48" fill="#751D2D"></path>
                        <path d="M154.88247,29.9088646 C155.605494,27.5220605 157.609618,24.3364936 163.072161,22.8652908 C168.947075,21.2812359 172.788999,24.2075589 174.732642,26.3945004 C168.064601,28.0709265 159.087281,29.3557374 154.88247,29.9088646 L154.88247,29.9088646 Z M166.30515,20.4435727 C165.145013,20.4435727 163.895529,20.5993115 162.559446,20.9590366 C154.647419,23.0923699 152.984189,28.6346378 152.635048,30.9182116 L152.439859,32.207971 L153.733329,32.0459092 C157.175254,31.6147064 169.003432,30.0404109 176.706525,27.9135381 L178.0646,27.5392426 L177.24948,26.3918887 C176.141576,24.8357375 172.4646,20.4435727 166.30515,20.4435727 L166.30515,20.4435727 Z" id="path50" fill="#231F20"></path>
                        <path d="M141.360821,38.8650155 C141.360821,38.8650155 73.9518882,50.5553245 13.4063639,99.3004779 C13.4063639,99.3004779 66.5598609,44.6854965 141.360821,38.8650155 L141.360821,38.8650155" id="path52" fill="#751D2D"></path>
                        <path d="M144.665288,32.7879023 L142.695529,33.158349 L144.461852,42.5468024 L146.432986,42.1763557 L144.665288,32.7879023 Z M152.527831,31.5448783 L151.876285,41.1131254 L153.876285,41.2501701 L154.527831,31.6817855 L152.527831,31.5448783 L152.527831,31.5448783 Z" id="path54" fill="#231F20"></path>
                    </g>
                </g>
            </g>
        </g>
    </g>
</svg>