<?xml version="1.0" encoding="UTF-8"?>
<svg width="200px" height="200px" viewBox="0 0 200 200" version="1.1" xmlns="http://www.w3.org/2000/svg" xmlns:xlink="http://www.w3.org/1999/xlink">
    <!-- Generator: Sketch 54.1 (76490) - https://sketchapp.com -->
    <title>washington-st-louis</title>
    <desc>Created with Sketch.</desc>
    <defs>
        <polygon id="path-1" points="0.000316205534 0.665660377 199.211383 0.665660377 199.211383 167.207468 0.000316205534 167.207468"></polygon>
    </defs>
    <g id="washington-st-louis" stroke="none" stroke-width="1" fill="none" fill-rule="evenodd">
        <g id="washington-st-louis_BGL">
            <g id="Group-36" transform="translate(0.000000, 16.000000)">
                <path d="M111.944901,116.851845 L87.2642688,116.851845 L87.2642688,110.918751 C86.1812648,110.93143 85.0958893,110.946487 84.0041897,110.964713 L84.0041897,120.119921 L115.20498,120.119921 L115.20498,111.10577 C114.125929,111.078826 113.038182,111.055053 111.944901,111.031279 L111.944901,116.851845 Z" id="Fill-1" fill="#BC0A3F"></path>
                <g id="Group-5" transform="translate(0.000000, 0.126792)">
                    <mask id="mask-2" fill="white">
                        <use xlink:href="#path-1"></use>
                    </mask>
                    <g id="Clip-4"></g>
                    <path d="M195.504664,42.7971283 L192.055652,43.2702226 C185.08253,44.2282981 181.6683,44.6475057 174.656443,45.4074679 L171.255652,45.7719962 C169.270672,45.9788264 167.582134,46.1492038 166.035889,46.3005623 L166.035889,42.2154679 L171.919684,41.5696189 L174.825613,41.2510528 L174.825613,38.3213547 L174.825613,4.21656226 L174.825613,0.665581132 L171.295178,0.959581132 L169.235889,1.1315434 L169.124427,1.14105283 C165.608221,1.42633585 134.02166,3.9471283 107.963953,4.44478868 L106.09834,4.4796566 L102.899921,4.54146792 L102.899921,7.74773208 L102.899921,41.6488642 L102.899921,44.9874679 L106.229565,44.9161472 L111.94498,44.7949019 L111.94498,52.4182981 C113.027194,52.4056189 114.11415,52.3905623 115.205059,52.3739208 L115.205059,41.4562981 L106.16,41.6488642 L106.16,7.74773208 L108.025613,7.7120717 C135.767905,7.18271321 169.171067,4.41388302 169.505455,4.38852453 L171.565534,4.21656226 L171.565534,38.3213547 L162.77581,39.2849774 L162.77581,49.8895811 C165.430356,49.6494679 168.076996,49.3879585 171.601897,49.0210528 L175.00664,48.657317 C182.114941,47.8862604 185.545771,47.4630906 192.496759,46.5081849 L195.946561,46.0350906 L195.917312,66.7759585 L193.274625,66.978034 L193.213755,96.2393547 L195.85249,96.4366755 L195.816917,117.238562 L192.378972,116.76943 C191.629565,116.665619 190.92917,116.573694 190.253281,116.479392 C189.966324,116.44294 189.661976,116.404109 189.355257,116.365279 C189.213755,116.347053 189.0683,116.328826 188.922846,116.3106 C188.722846,116.285242 188.517312,116.259883 188.308617,116.233732 C188.16,116.214713 188.012964,116.197279 187.859605,116.17826 C187.541028,116.138638 187.212174,116.098223 186.876206,116.057015 C186.71336,116.037996 186.543399,116.0166 186.376601,115.996789 C186.152885,115.969845 185.926008,115.942902 185.694387,115.915166 C185.507826,115.892977 185.319684,115.870789 185.127589,115.847808 C184.829565,115.81294 184.523636,115.776487 184.213755,115.740826 C184.009802,115.717053 183.801897,115.692487 183.593202,115.667921 C183.286482,115.633053 182.974229,115.5966 182.657233,115.560147 C182.472253,115.539543 182.284111,115.51894 182.095968,115.496751 C181.780553,115.461091 181.458024,115.424638 181.132332,115.388977 C180.982134,115.372336 180.833518,115.355694 180.680949,115.33826 C180.212174,115.286751 179.733123,115.233657 179.245375,115.181355 C179.097549,115.164713 178.946561,115.148864 178.797154,115.132223 C178.401107,115.090223 177.999526,115.04743 177.592411,115.003845 C177.450119,114.989581 177.309407,114.973732 177.166324,114.959468 C176.614545,114.900826 176.053281,114.842185 175.478577,114.783543 C175.460395,114.781166 175.439842,114.779581 175.42087,114.777204 C174.854862,114.719355 174.276206,114.660713 173.688063,114.601279 C173.588458,114.59177 173.488063,114.581468 173.386877,114.571166 C172.122055,114.445166 170.812174,114.318374 169.454071,114.189996 C169.450119,114.189996 169.446166,114.189996 169.442213,114.189204 C167.326798,113.990298 165.103083,113.789808 162.77581,113.591694 L162.77581,144.578977 L137.911779,163.939392 L61.2983399,163.939392 L36.4335178,144.578977 L36.4335178,113.419732 L33.6177075,113.675694 C25.2714625,114.464185 21.2406324,114.908751 13.0777866,115.946072 L9.65802372,116.378751 L9.69596838,95.9619962 L12.047747,95.8003358 C10.2343083,86.3756943 8.40980237,76.722034 6.616917,67.0295434 C6.44695652,67.0176566 6.2683004,67.0041849 6.07146245,66.9899208 L3.26434783,66.7759585 L3.29517787,46.0398453 L6.7315415,46.5121472 C6.82324111,46.524034 6.90624506,46.5359208 6.99399209,46.5470151 C7.24695652,46.5802981 7.52205534,46.6159585 7.79952569,46.6516189 C7.96948617,46.6738075 8.14498024,46.6967887 8.32521739,46.7189774 C8.43509881,46.734034 8.55130435,46.7475057 8.66513834,46.7625623 C9.36790514,46.851317 10.133913,46.9472038 10.9647431,47.0486377 C11.0540711,47.0597321 11.1433992,47.0708264 11.2343083,47.0811283 C12.0635573,47.1817698 12.9568379,47.2887509 13.9054545,47.3996943 C14.0777866,47.4195057 14.2501186,47.439317 14.4264032,47.4599208 C14.6951779,47.4908264 14.9679051,47.5225245 15.2469565,47.5542226 C15.476996,47.5803736 15.7133597,47.6065245 15.9497233,47.6342604 C16.3188933,47.6754679 16.6959684,47.7174679 17.0793676,47.7602604 C17.4105929,47.7975057 17.7449802,47.8339585 18.0872727,47.8712038 C18.3054545,47.8957698 18.5260079,47.9195434 18.7481423,47.943317 C19.1378656,47.9861094 19.5347036,48.0289019 19.9378656,48.0709019 C20.101502,48.0891283 20.2611858,48.1057698 20.4279842,48.1239962 C20.9932016,48.1842226 21.5718577,48.2444491 22.1623715,48.3046755 C22.3133597,48.321317 22.4683004,48.3363736 22.6224506,48.3530151 C23.1260079,48.4037321 23.6398419,48.4568264 24.161581,48.5091283 C24.303083,48.5233925 24.4414229,48.5368642 24.5837154,48.5511283 C25.2532806,48.6184868 25.933913,48.6850528 26.6311462,48.7532038 C26.6611858,48.7555811 26.6928063,48.7579585 26.7236364,48.7611283 C27.387668,48.825317 28.0667194,48.8902981 28.7560474,48.9552792 C28.8817391,48.967166 29.0074308,48.9790528 29.1331225,48.9901472 C30.5766008,49.1256566 32.0730435,49.261166 33.618498,49.3966755 C33.7955731,49.4125245 33.9726482,49.4275811 34.1505138,49.4434302 C34.7932016,49.4989019 35.444585,49.5543736 36.104664,49.6106377 C36.2145455,49.6193547 36.3236364,49.6288642 36.4335178,49.6383736 L36.4335178,39.2849774 L27.646166,38.3213547 L27.646166,4.21656226 L29.704664,4.38852453 C30.0390514,4.41388302 63.4414229,7.18271321 91.1829249,7.7120717 L93.0485375,7.74773208 L93.0485375,41.6488642 L84.0042688,41.4562981 L84.0042688,52.2209774 C85.0833202,52.2471283 86.1710672,52.2716943 87.2643478,52.2946755 L87.2643478,44.7949019 L92.9789723,44.9161472 L96.3086166,44.9874679 L96.3086166,41.6488642 L96.3086166,7.74773208 L96.3086166,4.54146792 L93.1101976,4.4796566 L91.244585,4.44478868 C65.1868775,3.9471283 33.6011067,1.42633585 30.0856917,1.14105283 L29.9520949,1.12995849 L27.9165217,0.959581132 L24.386087,0.665581132 L24.386087,4.21656226 L24.386087,38.3213547 L24.386087,41.2510528 L27.2912253,41.5696189 L33.1734387,42.2154679 L33.1734387,46.0770906 C20.8611858,44.9874679 11.875415,43.8922981 7.416917,43.3074679 L7.33549407,43.2955811 L7.13865613,43.2702226 L3.73865613,42.801883 L0.0406324111,42.2931283 L0.0350988142,46.0350906 L0.0042687747,66.7712038 L0.000316205534,69.8039208 L3.016917,70.0345245 L3.86988142,70.0995057 C5.2572332,77.5715434 6.69201581,85.1790906 8.14972332,92.7921849 L6.44142292,92.9094679 L6.43588933,95.9556566 L6.39794466,116.372411 L6.39083004,120.085845 L10.0667194,119.620675 L13.4856917,119.187996 C21.3457708,118.189506 25.3560474,117.742562 33.1734387,117.000826 L33.1734387,144.578977 L33.1734387,146.17894 L34.4335178,147.159996 L59.2975494,166.520411 L60.1805534,167.207468 L61.2983399,167.207468 L137.911779,167.207468 L139.028775,167.207468 L139.910988,166.520411 L164.77502,147.159996 L166.035889,146.17894 L166.035889,144.578977 L166.035889,117.157732 C176.567115,118.103128 184.692806,119.058826 189.838261,119.721317 L190.849328,119.859204 L191.933123,120.0066 L195.376601,120.476525 L199.070672,120.982109 L199.076996,117.244109 L199.112569,96.4422226 L199.118103,93.4039585 L196.479368,93.2066377 L196.528379,70.0067887 L199.174229,69.8047132 L199.177391,66.7807132 L199.20664,46.0398453 L199.211383,42.2883736 L195.504664,42.7971283 Z" id="Fill-3" fill="#BC0A3F" mask="url(#mask-2)"></path>
                </g>
                <path d="M99.4009486,131.672377 L74.4175494,131.672377 C74.4175494,131.672377 74.0294071,131.686642 73.5100395,131.672377 L72.6768379,131.672377 L72.6768379,131.643849 L72.6752569,131.643849 L72.6752569,111.242943 C72.0096443,111.26434 71.3432411,111.285736 70.6744664,111.310302 C68.1511462,111.414113 65.5701186,111.536151 62.1914625,111.712075 L60.2420553,111.815094 L58.2562846,111.930792 C54.4080632,112.151887 51.4720949,112.335736 48.6080632,112.540189 L48.6080632,138.069057 L48.6096443,138.103925 L49.3218972,138.63566 C49.3377075,138.628528 49.3495652,138.622189 49.3669565,138.612679 L66.0855336,151.185736 L99.4009486,151.185736 L99.8104348,151.185736 L133.122688,151.185736 L149.843636,138.612679 C149.861028,138.622189 149.872095,138.628528 149.887905,138.63566 L150.600949,138.103925 L150.60253,138.069057 L150.60253,112.777925 C143.242846,112.266792 135.174071,111.809547 126.534545,111.469585 L126.534545,131.643849 L126.532174,131.643849 L126.532174,131.672377 L125.700553,131.672377 L124.872885,131.672377 L99.8104348,131.672377 L99.4009486,131.672377 Z" id="Fill-6" fill="#BC0A3F"></path>
                <path d="M48.6119368,36.5053698 L48.6079842,36.5053698 L48.6079842,50.6910679 C55.969249,51.1958604 64.0419763,51.646766 72.6751779,51.9843509 L72.6751779,45.3055585 L72.6767589,45.3055585 L72.6767589,31.0081245 L72.6767589,29.2472943 L74.3787352,29.2916717 L80.3526482,29.4422377 L80.3526482,19.8733698 C67.0633202,19.4454453 46.6901976,18.3542377 40.6403953,18.0222 L40.6403953,27.2978604 L47.0996838,27.9040868 L48.6119368,28.0451434 L48.6119368,29.6165774 L48.6119368,36.5053698 Z" id="Fill-8" fill="#BC0A3F"></path>
                <path d="M150.598261,28.0453019 L152.110514,27.9042453 L158.571383,27.2980189 L158.571383,18.0223585 C152.52,18.3543962 132.146877,19.4448113 118.855968,19.8727358 L118.855968,29.4423962 L124.829881,29.2918302 L126.532648,29.2474528 L126.532648,31.008283 L126.532648,45.305717 L126.53502,45.305717 L126.53502,52.2333396 C130.817233,52.0994151 135.147668,51.924283 139.521581,51.7031887 C140.353992,51.6532642 141.218024,51.6041321 142.142925,51.5494528 L143.585613,51.4630755 L143.603004,51.4813019 C145.927115,51.3505472 148.259921,51.2047358 150.602213,51.0462453 L150.602213,36.5055283 L150.598261,36.5055283 L150.598261,29.6159434 L150.598261,28.0453019 Z" id="Fill-10" fill="#BC0A3F"></path>
                <path d="M192.888458,64.0825698 C191.834704,64.1634 191.30585,64.1998528 190.247352,64.2775132 C190.224427,75.9178528 190.201502,87.5542302 190.176206,99.1914 C191.233123,99.2682679 191.761976,99.308683 192.815731,99.3863434 C192.805455,105.185513 192.799921,108.085098 192.788854,113.883475 C185.856838,112.933325 182.339051,112.498268 175.210988,111.721664 C175.221265,106.314758 175.224427,103.610117 175.236285,98.2032113 C176.32087,98.2666075 176.862372,98.2998906 177.942213,98.3656642 C177.950909,94.3297019 177.954071,92.3097396 177.962767,88.2714 C174.447352,88.1866075 172.676601,88.1469849 169.113755,88.0709094 C169.10585,91.9824566 169.102688,93.9421925 169.096364,97.8529472 C170.188854,97.913966 170.734308,97.9424943 171.822055,98.0035132 C171.807826,103.347023 171.800711,106.018381 171.787273,111.357136 C168.201502,110.985475 165.500316,110.719211 162.775415,110.474343 C162.146957,110.418079 161.516126,110.362608 160.874229,110.307928 C160.256838,110.255626 159.624427,110.20174 158.973834,110.148645 C157.376206,110.017891 155.654466,109.882381 153.652885,109.73023 C153.663953,104.682306 153.668696,102.159136 153.678182,97.1120038 C154.797549,97.1563811 155.354862,97.1833245 156.471067,97.2292868 C156.495573,86.9052113 156.52087,76.5763811 156.546957,66.2507208 C155.430751,66.3006453 154.871858,66.3236264 153.753281,66.3711736 C153.761976,61.3454377 153.765929,58.8309849 153.774625,53.8076264 C155.725613,53.6586453 157.410988,53.5255132 158.973834,53.3971358 C159.624427,53.3432491 160.257628,53.2909472 160.874229,53.2378528 C161.516917,53.1831736 162.146957,53.1277019 162.775415,53.0714377 C165.543004,52.8234 168.271858,52.5531736 171.913755,52.175966 C171.902688,57.4949094 171.897945,60.1551736 171.887668,65.4725321 C170.803874,65.5359283 170.259209,65.5644566 169.171462,65.6254755 C169.161186,68.8357019 169.157233,70.4380415 169.150119,73.6450981 C172.712174,73.5460415 174.481344,73.4945321 177.997549,73.3843811 C178.007826,70.0750981 178.012569,68.4172868 178.021265,65.1080038 C176.938261,65.1737774 176.396759,65.2070604 175.310593,65.272834 C175.319289,59.8897019 175.325613,57.1969472 175.335099,51.8114377 C182.461581,51.034834 185.979368,50.5997774 192.908221,49.6496264 C192.900316,55.4234377 192.897154,58.3095509 192.888458,64.0825698 L192.888458,64.0825698 Z M35.0663241,80.777966 C33.3706719,87.5003434 32.5271937,90.9031358 30.8426087,97.8125321 C31.8481423,97.7586453 32.3524901,97.7309094 33.3596047,97.6786075 C33.3501186,102.916721 33.3453755,105.53657 33.3335178,110.773891 C24.9540711,111.563966 20.8204743,112.022796 12.6979447,113.052985 C12.7074308,107.403589 12.7129644,104.579287 12.7240316,98.930683 C13.9018972,98.8474755 14.4924111,98.8078528 15.6766008,98.7278151 C13.458419,87.2578528 11.2924111,75.7807585 9.16988142,64.2925698 C8.02126482,64.2093623 7.44656126,64.1697396 6.30189723,64.0825698 C6.31059289,58.3111358 6.31454545,55.4234377 6.32166008,49.6543811 C12.5983399,50.5149849 15.7785771,50.9104189 22.2173123,51.629966 C22.2054545,57.0463811 22.1967589,59.7526075 22.1856917,65.1690226 C21.2789723,65.1127585 20.8267984,65.0874 19.9240316,65.027966 C21.5192885,73.1585321 22.3192885,77.1564566 23.9232411,85.0469094 C25.5414229,77.1192113 26.3516996,73.2147962 27.9793676,65.5105698 C27.1524901,65.4630226 26.7398419,65.4400415 25.9145455,65.3924943 C25.9256126,60.0489849 25.9303557,57.3776264 25.9398419,52.034117 C30.1683004,52.4826453 33.1825296,52.7845698 36.433913,53.0730226 C37.0552569,53.1284943 37.6852964,53.1831736 38.3343083,53.2378528 C38.947747,53.2901547 39.5785771,53.3424566 40.2347036,53.3971358 C41.4766008,53.4985698 42.8062451,53.603966 44.2900395,53.7204566 C44.2821344,58.7604566 44.2773913,61.2796642 44.2686957,66.3212491 C43.4560474,66.2863811 43.0497233,66.2681547 42.2402372,66.2324943 C43.8671146,73.7560415 44.6821344,77.4694755 46.316917,84.8234377 C46.5414229,83.836834 46.7509091,82.919966 46.9501186,82.0498528 C47.144585,81.197966 47.3287747,80.3920415 47.5066403,79.6178151 C47.8924111,77.9362302 48.2465613,76.3957019 48.6078261,74.8369472 C49.1809486,72.3629094 49.772253,69.8326075 50.5366798,66.5740415 C49.747747,66.5447208 49.2750198,66.5257019 48.6078261,66.4987585 C48.4536759,66.4924189 48.2916206,66.4860792 48.1098024,66.4789472 C48.118498,61.4888717 48.1232411,58.9981925 48.1327273,54.0097019 C48.2963636,54.0215887 48.4481423,54.0318906 48.6078261,54.0437774 C54.975415,54.5034 58.3619763,54.704683 65.0109881,55.0232491 C64.9999209,59.828683 64.9943874,62.2298151 64.9825296,67.0384189 C63.7580237,67.0059283 63.147747,66.9877019 61.9248221,66.9520415 C59.5303557,76.8767208 57.1706719,86.8085321 54.8607905,96.7546075 C56.1564427,96.7126075 56.8070356,96.6880415 58.1082213,96.6492113 C58.0963636,101.544985 58.0916206,103.996042 58.0805534,108.892608 C54.3192885,109.10974 51.4094071,109.292004 48.6078261,109.490909 C48.3509091,109.508343 48.0955731,109.527362 47.8402372,109.545589 C47.5437945,109.566985 47.2465613,109.589174 46.9501186,109.611362 C44.8402372,109.768268 42.7082213,109.941815 40.2347036,110.154985 C39.6260079,110.206494 38.9880632,110.261966 38.3343083,110.319815 C37.9975494,110.349136 37.6631621,110.378457 37.3113834,110.409362 C37.3192885,105.237815 37.3240316,102.652834 37.3343083,97.4812868 C37.7311462,97.4622679 38.0347036,97.4472113 38.3343083,97.4321547 C38.6884585,97.4147208 39.033913,97.3980792 39.5050593,97.3758906 C39.0702767,95.7767208 38.689249,94.3724943 38.3343083,93.0617774 C37.661581,90.5734755 37.086087,88.4251358 36.433913,85.9645698 C36.0228458,84.4153245 35.5825296,82.744834 35.0663241,80.777966 L35.0663241,80.777966 Z M47.0995257,27.9047208 L40.6402372,27.2977019 L40.6402372,18.0220415 C46.69083,18.3540792 67.0631621,19.4452868 80.3532806,19.8732113 L80.3532806,29.4420792 L74.3785771,29.2923057 L72.6773913,29.2471358 L72.6773913,31.0087585 L72.6773913,45.3061925 L72.6758103,45.3061925 L72.6758103,51.9841925 C64.0418182,51.6474 55.9690909,51.1957019 48.6078261,50.6917019 L48.6078261,36.5052113 L48.6117787,36.5052113 L48.6117787,29.6164189 L48.6117787,28.0449849 L47.0995257,27.9047208 Z M31.4481423,35.0280792 L31.4481423,8.48090943 C38.976996,9.07524906 65.7825296,11.0888717 89.2473518,11.6134755 L89.2473518,37.8785321 L80.201502,37.6851736 L80.201502,52.2433245 C78.2212648,52.1838906 76.2671146,52.118117 74.3390514,52.0467962 L74.3390514,31.0087585 L82.0133597,31.2068717 L82.0133597,18.2027208 C66.3951779,17.7462679 38.9793676,16.2089094 38.9793676,16.2089094 L38.9793676,28.8683434 L46.9501186,29.6164189 L46.9501186,50.5760038 C44.6370751,50.4127585 42.3959684,50.2447585 40.2347036,50.0735887 L40.2347036,35.990117 L31.4481423,35.0280792 Z M87.2647431,55.6984189 C91.2655336,55.7681547 95.2671146,55.8204566 99.2718577,55.8466075 C99.2647431,58.2548717 99.26,60.0402679 99.2544664,61.8470604 C99.2513043,62.8907208 99.2481423,63.9415132 99.2449802,65.1230604 C99.2426087,65.8537019 99.2402372,66.6334755 99.2378656,67.4932868 C98.2489328,67.4932868 97.7580237,67.4932868 96.772253,67.4909094 C100.33668,76.9995509 103.914545,86.5026453 107.452885,96.0207962 C108.628379,96.0255509 109.21415,96.0295132 110.385692,96.0374377 C110.384901,96.2046453 110.384901,96.3623434 110.384111,96.5240038 C110.380158,97.7420038 110.376996,98.8062679 110.373834,99.7992113 C110.365929,102.377853 110.360395,104.510343 110.350119,107.780004 C102.867905,107.66906 99.0505138,107.664306 91.5516996,107.747513 C91.5603953,104.44457 91.5659289,102.300985 91.5730435,99.6850981 C91.575415,98.6929472 91.5785771,97.6270981 91.5825296,96.4083057 C91.5825296,96.2783434 91.5833202,96.1539283 91.5833202,96.0207962 C92.2133597,96.0160415 92.5303557,96.0136642 93.1619763,96.0089094 C92.8829249,95.0611358 92.7422134,94.588834 92.4623715,93.6410604 C88.9896443,93.656117 86.686087,93.6727585 84.004664,93.7012868 C83.3967589,93.7076264 82.7683004,93.7147585 82.1026877,93.722683 C81.5058498,93.7298151 80.8734387,93.7377396 80.201502,93.7464566 C79.9991304,93.748834 79.7983399,93.7512113 79.5880632,93.7535887 C79.2837154,94.7124566 79.1319368,95.192683 78.8267984,96.1602679 C79.3809486,96.1507585 79.7018972,96.1444189 80.201502,96.1364943 C80.2655336,96.1357019 80.3224506,96.134117 80.3935968,96.1333245 C80.3785771,100.863475 80.3730435,103.22657 80.3572332,107.953551 C80.3042688,107.955136 80.2552569,107.956721 80.201502,107.957513 C77.9801581,108.016155 76.09083,108.071626 74.3390514,108.130268 C73.772253,108.148494 73.2212648,108.168306 72.6758103,108.188117 C69.3746245,108.30857 66.3327273,108.451211 62.033913,108.675475 C62.0465613,103.81774 62.0536759,101.384909 62.0655336,96.5287585 C63.2022925,96.4954755 63.7706719,96.4820038 64.9121739,96.4510981 C67.4568379,89.2722679 70.0544664,82.1116642 72.6758103,74.9597774 C73.2299605,73.4461925 73.7817391,71.9334 74.3390514,70.4221925 C74.7256126,69.3737774 75.1050593,68.3221925 75.4932016,67.2737774 C75.0267984,67.2650604 74.689249,67.2579283 74.3390514,67.2507962 C74.0639526,67.2452491 73.7817391,67.2389094 73.4165217,67.2325698 C73.4267984,62.4905321 73.4331225,60.1203057 73.4418182,55.376683 C73.7414229,55.3854 74.0402372,55.3893623 74.3390514,55.3980792 C76.2939921,55.4551358 78.2481423,55.4923811 80.201502,55.5391358 C80.8354941,55.5541925 81.4694862,55.570834 82.1026877,55.5850981 C82.7366798,55.5993623 83.3706719,55.6175887 84.004664,55.6310604 C85.09083,55.6524566 86.1785771,55.6794 87.2647431,55.6984189 L87.2647431,55.6984189 Z M113.580158,64.0405698 C114.175415,63.3947208 114.702688,62.8217774 115.204664,62.2749849 C115.882134,61.5372113 116.504269,60.8572868 117.10664,60.1971736 C117.729565,59.5124943 118.348538,58.8294 119.007036,58.0995509 C119.704269,57.3277019 120.448142,56.4987962 121.32087,55.5240792 C122.594387,55.4860415 123.763557,55.4495887 124.872648,55.4139283 C125.443399,55.394117 125.996759,55.3758906 126.534308,55.3568717 C131.927194,55.1690604 135.901897,54.9693623 142.32166,54.5866075 C145.326403,57.880834 146.822055,59.5481547 149.797549,62.9422302 C149.788854,67.3023057 149.784901,69.4823434 149.774625,73.8447962 C144.637075,73.9486075 142.046561,73.9937774 136.830751,74.0706453 C136.852885,71.2304943 136.863162,69.8072491 136.884506,66.9639283 C132.924822,67.0764566 130.933518,67.1287585 126.930356,67.2103811 C126.894783,70.7146075 126.876601,72.4643434 126.839447,75.9638151 C133.063162,75.9154755 136.15249,75.8821925 142.271858,75.8021547 C145.27581,79.2382302 146.769881,80.9784566 149.747747,84.5349849 C149.731146,90.9641547 149.723241,94.1791358 149.705059,100.609098 C146.716126,104.000796 145.21336,105.663362 142.196759,108.956004 C135.826798,108.577211 131.863953,108.378306 126.534308,108.192872 C125.996759,108.173853 125.442609,108.154834 124.872648,108.136608 C123.724822,108.099362 122.513755,108.061325 121.188854,108.021702 C120.371462,107.105626 119.665534,106.316343 119.007036,105.583325 C118.343794,104.843966 117.727194,104.160872 117.10664,103.476985 C116.501897,102.810532 115.880553,102.129023 115.204664,101.391249 C114.67502,100.811966 114.116917,100.20257 113.482925,99.5131358 C113.486877,98.4155887 113.49004,97.4709849 113.491621,96.5913623 C113.499526,94.2631358 113.505059,92.4087962 113.513755,89.4989094 C114.109802,89.5020792 114.668696,89.5060415 115.204664,89.5092113 C115.872648,89.5131736 116.505059,89.5171358 117.10664,89.5218906 C117.765929,89.5258528 118.392016,89.5306075 119.007036,89.5353623 C120.900316,89.5504189 122.674229,89.5670604 124.872648,89.590834 C125.39834,89.5963811 125.95249,89.6027208 126.534308,89.6098528 C126.615731,89.6106453 126.691621,89.6114377 126.773834,89.6122302 C126.740632,92.2764566 126.723241,93.6101547 126.69083,96.2720038 C130.717708,96.3552113 132.722451,96.4043434 136.70664,96.5176642 C136.755652,93.0887208 136.780949,91.3730604 136.830751,87.9393623 C132.637075,87.8902302 129.852095,87.860117 126.534308,87.8331736 C125.99834,87.8284189 125.44498,87.8244566 124.872648,87.8197019 C123.763557,87.8109849 122.576206,87.8038528 121.240237,87.7943434 C120.401502,86.8719283 119.680553,86.0818528 119.007036,85.3456642 C118.346166,84.6229472 117.727984,83.9501547 117.10664,83.2765698 C116.503478,82.6220038 115.881344,81.9500038 115.204664,81.2209472 C114.69083,80.6662302 114.150119,80.0845698 113.538261,79.4260415 C113.554071,73.6237019 113.562767,70.5553245 113.576996,65.0652113 C113.578577,64.7323811 113.579368,64.3932113 113.580158,64.0405698 L113.580158,64.0405698 Z M152.26,50.8707962 L152.26,29.6164189 L160.230751,28.8683434 L160.230751,16.2089094 C160.230751,16.2089094 132.814941,17.7462679 117.195178,18.2027208 L117.195178,31.2068717 L124.872648,31.0087585 L124.872648,52.2853245 C122.90585,52.3431736 120.950119,52.3915132 119.007036,52.4327208 L119.007036,37.6851736 L109.963557,37.8785321 L109.963557,11.6134755 C133.426798,11.0888717 160.233123,9.07524906 167.761976,8.48090943 L167.761976,35.0280792 L158.973834,35.990117 L158.973834,50.3446075 C157.3517,50.4785321 155.59913,50.6164189 153.544585,50.7733245 L152.26,50.8707962 Z M126.532727,45.3061925 L126.532727,31.0087585 L126.532727,29.2471358 L124.82996,29.2923057 L118.856047,29.4420792 L118.856047,19.8732113 C132.146957,19.4452868 152.520079,18.3540792 158.571462,18.0220415 L158.571462,27.2977019 L152.110593,27.9047208 L150.59834,28.0449849 L150.59834,29.6164189 L150.59834,36.5052113 L150.602292,36.5052113 L150.602292,51.0467208 C148.26,51.2044189 145.927194,51.3510226 143.603083,51.4817774 L143.585692,51.4627585 L142.143004,51.5499283 C141.218103,51.6038151 140.354071,51.6529472 139.52166,51.7028717 C135.147747,51.923966 130.816522,52.0990981 126.534308,52.2338151 L126.534308,45.3061925 L126.532727,45.3061925 Z M72.6773913,131.643928 L72.6773913,131.672457 L73.5098024,131.672457 C74.0299605,131.686721 74.4173123,131.672457 74.4173123,131.672457 L99.4007115,131.672457 L99.8101976,131.672457 L124.872648,131.672457 L125.700316,131.672457 L126.532727,131.672457 L126.532727,131.643928 L126.534308,131.643928 L126.534308,111.469664 C135.173834,111.809626 143.242609,112.266872 150.602292,112.778004 L150.602292,138.069136 L150.600711,138.104004 L149.887668,138.63574 C149.871858,138.628608 149.860791,138.622268 149.843399,138.612758 L133.122451,151.185815 L99.8101976,151.185815 L99.4007115,151.185815 L66.086087,151.185815 L49.3667194,138.612758 C49.3493281,138.622268 49.3374704,138.628608 49.3224506,138.63574 L48.6094071,138.104004 L48.6078261,138.069136 L48.6078261,112.540268 C51.4718577,112.335815 54.4078261,112.151966 58.2560474,111.930872 L60.2418182,111.815174 L62.1912253,111.712155 C65.5698814,111.53623 68.1509091,111.414192 70.6742292,111.310381 C71.343004,111.285815 72.0094071,111.264419 72.6758103,111.243023 L72.6758103,131.643928 L72.6773913,131.643928 Z M119.007036,123.934155 L119.007036,111.210532 C120.988063,111.269174 122.944585,111.334155 124.872648,111.406268 L124.872648,114.748834 L124.872648,129.952834 L99.8101976,129.952834 L99.4007115,129.952834 L74.3390514,129.952834 L74.3390514,114.748834 L74.3390514,111.190721 C76.3042688,111.131287 78.2592095,111.08057 80.201502,111.03857 L80.201502,123.934155 L119.007036,123.934155 Z M87.2647431,110.918909 C95.7920158,110.816683 104.048142,110.8674 111.944585,111.031438 C113.037866,111.054419 114.125613,111.078985 115.204664,111.105928 L115.204664,120.120079 L84.004664,120.120079 L84.004664,110.964872 C85.0963636,110.946645 86.1817391,110.931589 87.2647431,110.918909 L87.2647431,110.918909 Z M158.973834,142.838909 L136.609407,160.251475 L62.601502,160.251475 L40.2347036,142.838909 L40.2347036,113.208306 C42.7319368,112.993551 44.8671146,112.818419 46.9501186,112.662306 L46.9501186,115.767136 L46.9485375,115.767136 L46.9485375,138.979664 L65.5469565,152.902268 L99.4007115,152.902268 L99.8101976,152.902268 L133.663162,152.902268 L152.26,138.979664 L152.26,115.767136 L152.26,112.895287 C154.572253,113.060909 156.812569,113.230494 158.973834,113.404042 L158.973834,142.838909 Z M195.917708,66.9029094 L195.946166,46.1620415 L192.497154,46.6343434 C185.546166,47.5900415 182.114545,48.0132113 175.007036,48.7834755 L171.601502,49.1480038 C168.077391,49.5149094 165.42996,49.7780038 162.775415,50.0173245 L162.775415,50.0165321 L162.775415,39.4119283 L171.565138,38.4475132 L171.565138,4.34351321 L169.50585,4.51547547 C169.171462,4.54083396 135.76751,7.3088717 108.025217,7.83823019 L106.160395,7.87389057 L106.160395,41.7758151 L115.204664,41.5824566 L115.204664,52.5008717 C114.114545,52.5175132 113.027589,52.5325698 111.944585,52.5444566 C103.420474,52.6411358 95.1643478,52.5864566 87.2647431,52.4216264 C86.1714625,52.3986453 85.0837154,52.3740792 84.004664,52.3471358 L84.004664,41.5824566 L93.0481423,41.7758151 L93.0481423,7.87389057 L91.1833202,7.83823019 C63.4418182,7.3088717 30.0386561,4.54083396 29.7042688,4.51547547 L27.6465613,4.34351321 L27.6465613,38.4475132 L36.433913,39.4119283 L36.433913,49.7653245 C36.3224506,49.7558151 36.2165217,49.7463057 36.1050593,49.7367962 C35.4449802,49.6813245 34.7935968,49.6258528 34.1501186,49.5703811 C33.9730435,49.5545321 33.7951779,49.538683 33.6181028,49.5236264 C32.0718577,49.388117 30.576996,49.2526075 29.1335178,49.1170981 C29.0062451,49.1060038 28.8813439,49.094117 28.7564427,49.0822302 C28.0671146,49.0172491 27.3888538,48.9522679 26.7240316,48.8880792 C26.6932016,48.8849094 26.661581,48.8817396 26.6315415,48.8793623 C25.9350988,48.8112113 25.2528854,48.7454377 24.5841107,48.6780792 C24.4418182,48.6638151 24.3026877,48.6495509 24.1619763,48.6360792 C23.6394466,48.5829849 23.1264032,48.530683 22.6220553,48.479966 C22.4686957,48.4633245 22.3137549,48.4482679 22.1619763,48.4316264 C21.572253,48.3714 20.9928063,48.3111736 20.4283794,48.2501547 C20.261581,48.2327208 20.1018972,48.2160792 19.9382609,48.1978528 C19.5350988,48.1550604 19.1374704,48.1130604 18.7485375,48.0702679 C18.5264032,48.0464943 18.3058498,48.0219283 18.087668,47.9981547 C17.7453755,47.9609094 17.4109881,47.9236642 17.0797628,47.8872113 C16.6947826,47.8444189 16.3200791,47.8024189 15.9501186,47.7604189 C15.7137549,47.7334755 15.4766008,47.7073245 15.2465613,47.6811736 C14.9683004,47.6494755 14.6955731,47.6177774 14.4260079,47.5868717 C14.2497233,47.5662679 14.0781818,47.5464566 13.9058498,47.5258528 C12.9572332,47.4157019 12.0639526,47.3087208 11.2347036,47.2080792 C11.1437945,47.1969849 11.0536759,47.186683 10.9643478,47.1755887 C10.1335178,47.0741547 9.3683004,46.9782679 8.6655336,46.8895132 C8.55090909,46.8744566 8.43628458,46.8609849 8.32482213,46.8459283 C8.14537549,46.8237396 7.96909091,46.799966 7.79913043,46.7785698 C7.52007905,46.7429094 7.24893281,46.7072491 6.99438735,46.673966 C6.9058498,46.6628717 6.82363636,46.6509849 6.73193676,46.6390981 L3.29557312,46.1667962 L3.26474308,66.9029094 L6.07185771,67.1168717 C6.26869565,67.1311358 6.44656126,67.1446075 6.61652174,67.1564943 C8.41019763,76.8481925 10.233913,86.5026453 12.0473518,95.9272868 L9.69636364,96.0889472 L9.65841897,116.504909 L13.0773913,116.07223 C21.2402372,115.035702 25.2718577,114.590343 33.6173123,113.802645 L36.433913,113.545098 L36.433913,113.546683 L36.433913,144.705928 L61.2979447,164.066343 L137.911383,164.066343 L162.775415,144.705928 L162.775415,113.718645 C165.102688,113.916758 167.327194,114.117249 169.442609,114.316155 C169.446561,114.316947 169.450514,114.316947 169.453676,114.316947 C170.810988,114.445325 172.122451,114.572117 173.387273,114.698117 C173.488458,114.708419 173.588854,114.717928 173.688458,114.72823 C174.27581,114.786872 174.855257,114.846306 175.420474,114.904155 C175.440237,114.906532 175.46,114.908117 175.478972,114.910494 C176.052885,114.969136 176.61415,115.027777 177.165929,115.085626 C177.309802,115.100683 177.450514,115.11574 177.592016,115.130796 C177.999921,115.174381 178.402292,115.216381 178.797549,115.259174 C178.946957,115.275815 179.097945,115.291664 179.24498,115.308306 C179.732727,115.360608 180.212569,115.412909 180.681344,115.465211 C180.833913,115.481853 180.980949,115.499287 181.132727,115.515136 C181.458419,115.551589 181.780158,115.588042 182.096364,115.623702 C182.285296,115.645098 182.471858,115.666494 182.657628,115.687098 C182.974625,115.723551 183.286087,115.759211 183.592806,115.794872 C183.803083,115.819438 184.010198,115.843211 184.21336,115.867777 C184.524032,115.903438 184.82996,115.939098 185.127984,115.973966 C185.320079,115.99774 185.507431,116.019928 185.693992,116.041325 C185.925613,116.069853 186.15249,116.096796 186.376996,116.12374 C186.544585,116.143551 186.712964,116.164947 186.876601,116.183966 C187.212569,116.225174 187.540632,116.265589 187.86,116.304419 C188.01336,116.32423 188.160395,116.341664 188.309012,116.360683 C188.517708,116.386834 188.722451,116.412192 188.922451,116.436758 C189.068696,116.455777 189.21336,116.474004 189.354862,116.49223 C189.663953,116.531853 189.965929,116.569098 190.253676,116.606343 C190.928775,116.699853 191.62917,116.79257 192.378577,116.896381 L195.816522,117.365513 L195.852885,96.5636264 L193.21336,96.3663057 L193.274229,67.1041925 L195.917708,66.9029094 Z" id="Fill-12" fill="#FEFEFE"></path>
                <path d="M89.1072727,83.7421358 C87.8732806,80.4447396 87.2566798,78.7932679 86.0266403,75.4847774 C85.1997628,77.6767019 84.6448221,79.1482868 84.0045059,80.8576075 C83.6811858,81.7197962 83.3373123,82.6382491 82.9222925,83.7492679 C83.3128063,83.7484755 83.6653755,83.747683 84.0045059,83.7468906 C85.8045059,83.7437208 87.0187352,83.7437208 89.1072727,83.7421358" id="Fill-14" fill="#FEFEFE"></path>
                <path d="M40.2343874,50.0737472 C42.3956522,50.244917 44.6367589,50.412917 46.9498024,50.5761623 L46.9498024,29.6165774 L38.9790514,28.8685019 L38.9790514,16.2090679 C38.9790514,16.2090679 66.3956522,17.7464264 82.013834,18.2028792 L82.013834,31.2062377 L74.3395257,31.0081245 L74.3395257,52.0469547 C76.2667984,52.1182755 78.2217391,52.1840491 80.2019763,52.2426906 L80.2019763,37.6853321 L89.2470356,37.8778981 L89.2470356,11.613634 C65.7822134,11.0890302 38.9766798,9.07540755 31.4486166,8.48106792 L31.4486166,35.0282377 L40.2343874,35.9902755 L40.2343874,50.0737472 Z" id="Fill-16" fill="#007360"></path>
                <path d="M152.260316,115.766819 L152.260316,138.979347 L133.663478,152.901951 L99.8097233,152.901951 L99.4010277,152.901951 L65.5472727,152.901951 L46.9480632,138.979347 L46.9480632,115.766819 L46.9496443,115.766819 L46.9496443,112.661989 C44.8666403,112.818102 42.7314625,112.993234 40.2342292,113.207989 L40.2342292,142.838592 L62.6010277,160.251951 L136.608933,160.251951 L158.97336,142.838592 L158.97336,113.404517 C156.812885,113.23097 154.572569,113.060592 152.260316,112.89497 L152.260316,115.766819 Z" id="Fill-18" fill="#007360"></path>
                <path d="M74.3391304,111.190879 L74.3391304,114.7482 L74.3391304,129.952992 L99.4007905,129.952992 L99.8102767,129.952992 L124.872727,129.952992 L124.872727,114.7482 L124.872727,111.405634 C122.944664,111.334313 120.988142,111.269332 119.007115,111.209898 L119.007115,123.934313 L80.201581,123.934313 L80.201581,111.038728 C78.2592885,111.079936 76.3043478,111.131445 74.3391304,111.190879" id="Fill-20" fill="#007360"></path>
                <path d="M119.007036,52.4325623 C120.950119,52.3913547 122.90585,52.3430151 124.872648,52.285166 L124.872648,31.0086 L117.195178,31.2067132 L117.195178,18.2033547 C132.814941,17.7461094 160.230751,16.2087509 160.230751,16.2087509 L160.230751,28.8689774 L152.26,29.6162604 L152.26,50.8706377 L153.544585,50.773166 C155.59913,50.6162604 157.3517,50.4783736 158.973834,50.3444491 L158.973834,35.9899585 L167.761976,35.0279208 L167.761976,8.48075094 C160.233123,9.07509057 133.426798,11.0887132 109.963557,11.613317 L109.963557,37.8783736 L119.007036,37.6858075 L119.007036,52.4325623 Z" id="Fill-22" fill="#007360"></path>
                <path d="M84.0044269,83.7468113 C83.6652964,83.7476038 83.3127273,83.7483962 82.9222134,83.7491887 C83.3372332,82.6389623 83.6811067,81.719717 84.0044269,80.8575283 C84.6455336,79.1482075 85.1996838,77.6766226 86.0265613,75.4846981 C87.2566008,78.7931887 87.8739921,80.4446604 89.1071937,83.7420566 C87.0186561,83.7436415 85.8044269,83.7436415 84.0044269,83.7468113 M99.2447431,65.1233774 C99.2479051,63.9418302 99.2510672,62.8910377 99.2542292,61.8465849 C99.2597628,60.0405849 99.2652964,58.2551887 99.2716206,55.8469245 C95.2668775,55.8207736 91.266087,55.7676792 87.2645059,55.6979434 C86.1783399,55.679717 85.0905929,55.6527736 84.0044269,55.6313774 C83.3704348,55.6179057 82.7364427,55.5988868 82.1032411,55.5854151 C81.469249,55.5703585 80.8352569,55.5545094 80.2012648,55.5386604 C78.2479051,55.4926981 76.2937549,55.4554528 74.3388142,55.3983962 C74.0407905,55.3896792 73.7419763,55.385717 73.4423715,55.3762075 C73.4328854,60.1206226 73.4265613,62.4908491 73.4162846,67.2320943 C73.781502,67.2392264 74.0637154,67.245566 74.3388142,67.2511132 C74.6890119,67.2574528 75.0273518,67.2645849 75.4929644,67.2740943 C75.1048221,68.321717 74.726166,69.3733019 74.3388142,70.4225094 C73.781502,71.933717 73.2297233,73.4465094 72.6755731,74.9593019 C70.0550198,82.1119811 67.4566008,89.2725849 64.9127273,96.4506226 C63.7704348,96.4815283 63.2028458,96.4957925 62.0652964,96.5290755 C62.0534387,101.385226 62.0471146,103.817264 62.0336759,108.675792 C66.3332806,108.451528 69.3743874,108.308094 72.6755731,108.188434 C73.2210277,108.16783 73.7728063,108.148811 74.3388142,108.130585 C76.0905929,108.071151 77.9799209,108.016472 80.2012648,107.95783 C80.2550198,107.957038 80.3040316,107.955453 80.3577866,107.953868 C80.3728063,103.226887 80.3783399,100.863792 80.3941502,96.1336415 C80.3222134,96.134434 80.266087,96.1360189 80.2012648,96.1368113 C79.7024506,96.1447358 79.3807115,96.150283 78.8265613,96.1597925 C79.1316996,95.1922075 79.2834783,94.7127736 79.5878261,93.7539057 C79.7988933,93.7515283 79.9996838,93.7483585 80.2012648,93.7459811 C80.8732016,93.7372642 81.5056126,93.7301321 82.1032411,93.723 C82.7688538,93.714283 83.3965217,93.7071509 84.0044269,93.7016038 C86.6866403,93.672283 88.9901976,93.656434 92.4621344,93.6405849 C92.7427668,94.5891509 92.8826877,95.0606604 93.1617391,96.0092264 C92.5301186,96.0131887 92.213913,96.015566 91.583083,96.0203208 C91.583083,96.1534528 91.5822925,96.2778679 91.5822925,96.4086226 C91.5783399,97.6274151 91.5751779,98.6924717 91.5728063,99.6846226 C91.5656917,102.300509 91.5609486,104.444094 91.5514625,107.747038 C99.0502767,107.664623 102.867668,107.668585 110.349881,107.779528 C110.360158,104.509868 110.366482,102.37817 110.373597,99.7995283 C110.376759,98.8065849 110.379921,97.7415283 110.383874,96.5243208 C110.384664,96.3626604 110.384664,96.2049623 110.385455,96.0377547 C109.214704,96.0298302 108.628142,96.0250755 107.452648,96.0203208 C103.915099,86.5029623 100.336443,76.9990755 96.7720158,67.490434 C97.7577866,67.4928113 98.2494862,67.4928113 99.238419,67.4928113 C99.24,66.633 99.2423715,65.8540189 99.2447431,65.1233774" id="Fill-24" fill="#007360"></path>
                <path d="M149.774545,73.845034 C149.784822,69.4825811 149.789565,67.3025434 149.79747,62.9416755 C146.821976,59.5483925 145.326324,57.8810717 142.321581,54.5860528 C135.901818,54.9696 131.927115,55.1692981 126.53502,55.3571094 C125.99668,55.3753358 125.44332,55.3943547 124.872569,55.4133736 C123.763478,55.4498264 122.594308,55.4862792 121.320791,55.524317 C120.448063,56.4982415 119.70419,57.3271472 119.006957,58.0997887 C118.348458,58.8296377 117.729486,59.5127321 117.106561,60.1966189 C116.50419,60.8567321 115.882055,61.5374491 115.205375,62.2744302 C114.702609,62.8220151 114.175336,63.3949585 113.580079,64.0408075 C113.579289,64.3926566 113.578498,64.7326189 113.576917,65.0654491 C113.562688,70.5555623 113.553992,73.6239396 113.538182,79.4262792 C114.15083,80.0848075 114.690751,80.6656755 115.205375,81.2211849 C115.881265,81.9502415 116.503399,82.6214491 117.106561,83.2760151 C117.727905,83.9503925 118.346087,84.6231849 119.006957,85.3459019 C119.680474,86.0812981 120.401423,86.8713736 121.240158,87.7945811 C122.576126,87.8032981 123.763478,87.8112226 124.872569,87.8199396 C125.444901,87.8246943 125.998261,87.8286566 126.53502,87.8326189 C129.852016,87.8603547 132.636996,87.8904679 136.830672,87.9396 C136.78087,91.3732981 136.755573,93.088166 136.706561,96.5171094 C132.722372,96.4045811 130.718419,96.3546566 126.690751,96.2722415 C126.723162,93.6096 126.740553,92.2766943 126.773755,89.6116755 C126.691542,89.6116755 126.615652,89.610883 126.53502,89.6100906 C125.952411,89.6029585 125.398261,89.5966189 124.872569,89.5910717 C122.67415,89.5672981 120.900237,89.5498642 119.006957,89.5356 C118.391937,89.5308453 117.76585,89.5260906 117.106561,89.5213358 C116.50498,89.5165811 115.872569,89.5126189 115.205375,89.5094491 C114.668617,89.5062792 114.109723,89.502317 113.513676,89.4991472 C113.50498,92.409034 113.499447,94.2633736 113.492332,96.5916 C113.48996,97.4704302 113.486798,98.4158264 113.482846,99.5133736 C114.116838,100.202808 114.674941,100.811411 115.205375,101.391487 C115.880474,102.128468 116.501818,102.81077 117.106561,103.477223 C117.727115,104.161109 118.343715,104.844204 119.006957,105.583562 C119.665455,106.316581 120.371383,107.105864 121.188775,108.02194 C122.513676,108.061562 123.724743,108.0996 124.872569,108.136053 C125.44253,108.155072 125.99668,108.173298 126.53502,108.193109 C131.863874,108.378543 135.826719,108.577449 142.19668,108.956242 C145.213281,105.662808 146.716047,104.001034 149.70498,100.608543 C149.723162,94.1793736 149.731067,90.9643925 149.747668,84.5344302 C146.769802,80.9786943 145.275731,79.2384679 142.271779,75.8023925 C136.152411,75.8816377 133.063083,75.9149208 126.839368,75.9640528 C126.876522,72.4645811 126.894704,70.7148453 126.931067,67.2106189 C130.933439,67.1282038 132.925534,67.0766943 136.884427,66.9633736 C136.863083,69.8066943 136.852806,71.2299396 136.830672,74.070883 C142.046482,73.9932226 144.636996,73.9488453 149.774545,73.845034" id="Fill-26" fill="#007360"></path>
                <path d="M192.888458,64.0825698 C192.897154,58.3095509 192.900316,55.4234377 192.908221,49.6496264 C185.979368,50.5997774 182.461581,51.034834 175.335099,51.8114377 C175.325613,57.1969472 175.319289,59.8897019 175.310593,65.272834 C176.396759,65.2070604 176.938261,65.1737774 178.021265,65.1080038 C178.012569,68.4172868 178.007826,70.0750981 177.997549,73.3843811 C174.481344,73.4945321 172.712174,73.5460415 169.150119,73.6450981 C169.157233,70.4380415 169.161186,68.8357019 169.171462,65.6254755 C170.259209,65.5644566 170.803874,65.5359283 171.887668,65.4725321 C171.897945,60.1551736 171.902688,57.4949094 171.913755,52.175966 C168.271858,52.5531736 165.543004,52.8234 162.775415,53.0714377 C162.146957,53.1277019 161.516917,53.1831736 160.874229,53.2378528 C160.257628,53.2909472 159.624427,53.3432491 158.973834,53.3971358 C157.410988,53.5255132 155.725613,53.6586453 153.774625,53.8076264 C153.765929,58.8309849 153.761976,61.3454377 153.753281,66.3711736 C154.871858,66.3236264 155.430751,66.3006453 156.546957,66.2507208 C156.52087,76.5763811 156.495573,86.9052113 156.471067,97.2292868 C155.354862,97.1833245 154.797549,97.1563811 153.678182,97.1120038 C153.668696,102.159136 153.663953,104.682306 153.652885,109.73023 C155.654466,109.882381 157.376206,110.017891 158.973834,110.148645 C159.624427,110.20174 160.256838,110.255626 160.874229,110.307928 C161.516126,110.362608 162.146957,110.418079 162.775415,110.474343 C165.500316,110.719211 168.201502,110.985475 171.787273,111.357136 C171.800711,106.018381 171.807826,103.347023 171.822055,98.0035132 C170.734308,97.9424943 170.188854,97.913966 169.096364,97.8529472 C169.102688,93.9421925 169.10585,91.9824566 169.113755,88.0709094 C172.676601,88.1469849 174.447352,88.1866075 177.962767,88.2714 C177.954071,92.3097396 177.950909,94.3297019 177.942213,98.3656642 C176.862372,98.2998906 176.32087,98.2666075 175.236285,98.2032113 C175.224427,103.610117 175.221265,106.314758 175.210988,111.721664 C182.339051,112.498268 185.856838,112.933325 192.788854,113.883475 C192.799921,108.085098 192.805455,105.185513 192.815731,99.3863434 C191.761976,99.308683 191.233123,99.2682679 190.176206,99.1914 C190.201502,87.5542302 190.224427,75.9178528 190.247352,64.2775132 C191.30585,64.1998528 191.834704,64.1634 192.888458,64.0825698" id="Fill-28" fill="#007360"></path>
                <path d="M46.9498814,109.611442 C47.2463241,109.589253 47.5435573,109.567064 47.84,109.545668 C48.095336,109.527442 48.3506719,109.508423 48.6083794,109.490989 C51.4099605,109.292083 54.3190514,109.109819 58.0803162,108.892687 C58.0921739,103.996121 58.096917,101.545064 58.1079842,96.6492906 C56.8075889,96.6881208 56.1562055,96.7126868 54.8605534,96.7538943 C57.1712253,86.8086113 59.5301186,76.8760075 61.924585,66.9521208 C63.1475099,66.9877811 63.7585771,67.0060075 64.983083,67.0384981 C64.9941502,62.2298943 64.9996838,59.8287623 65.0115415,55.0233283 C58.3625296,54.7047623 54.9751779,54.5034792 48.6083794,54.0438566 C48.4486957,54.0319698 48.2961265,54.0216679 48.1324901,54.0097811 C48.123004,58.9982717 48.1190514,61.4881585 48.1095652,66.4790264 C48.2913834,66.4861585 48.4534387,66.4924981 48.6083794,66.4988377 C49.2747826,66.5257811 49.7475099,66.5448 50.5364427,66.5733283 C49.7720158,69.8326868 49.1807115,72.3629887 48.6083794,74.8370264 C48.2471146,76.3957811 47.8921739,77.9363094 47.5064032,79.6178943 C47.3285375,80.3921208 47.1443478,81.1980453 46.9498814,82.0499321 C46.7506719,82.9200453 46.5411858,83.8369132 46.3166798,84.823517 C44.6818972,77.4687623 43.867668,73.7561208 42.24,66.2325736 C43.0494862,66.268234 43.4558103,66.2864604 44.2684585,66.3213283 C44.2771542,61.2797434 44.2818972,58.7605358 44.2905929,53.7205358 C42.8067984,53.6040453 41.4763636,53.4978566 40.2344664,53.3972151 C39.5791304,53.3425358 38.9475099,53.290234 38.3348617,53.2379321 C37.6850593,53.1832528 37.0550198,53.1285736 36.4336759,53.0731019 C33.1822925,52.7846491 30.1680632,52.4827245 25.9396047,52.0341962 C25.9301186,57.3777057 25.9253755,60.0490642 25.9150988,65.3925736 C26.7403953,65.4401208 27.152253,65.4631019 27.9791304,65.5106491 C26.3514625,73.2148755 25.5411858,77.1192906 23.923004,85.0469887 C22.3190514,77.1565358 21.5190514,73.1586113 19.9237945,65.0280453 C20.8265613,65.0866868 21.2787352,65.1128377 22.1854545,65.1691019 C22.1973123,59.7526868 22.2052174,57.0464604 22.2170751,51.6300453 C15.7783399,50.9104981 12.5981028,50.5150642 6.32142292,49.6544604 C6.31509881,55.423517 6.31035573,58.3112151 6.30166008,64.0826491 C7.44632411,64.1698189 8.02102767,64.2094415 9.16964427,64.2926491 C11.2929644,75.7808377 13.4589723,87.2579321 15.6763636,98.7278943 C14.4921739,98.8079321 13.9016601,98.8475547 12.7237945,98.9299698 C12.7127273,104.578574 12.7079842,107.403668 12.6977075,113.053064 C20.8202372,112.022875 24.953834,111.564045 33.3332806,110.77397 C33.3451383,105.535857 33.3498814,102.9168 33.3601581,97.6786868 C32.352253,97.7309887 31.8479051,97.7587245 30.8423715,97.8126113 C32.5269565,90.9032151 33.3704348,87.5004226 35.066087,80.7780453 C35.5822925,82.7449132 36.0233992,84.4154038 36.4336759,85.9646491 C37.0858498,88.4252151 37.6613439,90.5735547 38.3348617,93.0618566 C38.6890119,94.3725736 39.0700395,95.7768 39.5048221,97.3759698 C39.0336759,97.3981585 38.6882213,97.4148 38.3348617,97.432234 C38.0352569,97.4464981 37.7309091,97.4623472 37.3340711,97.481366 C37.3237945,102.652913 37.3190514,105.237102 37.3119368,110.409442 C37.6629249,110.378536 37.9973123,110.349215 38.3348617,110.319894 C38.9886166,110.262045 39.6257708,110.206574 40.2344664,110.155064 C42.7087747,109.941894 44.84,109.768347 46.9498814,109.611442" id="Fill-30" fill="#007360"></path>
                <polygon id="Fill-32" fill="#231F20" points="170.210593 124.986057 171.692806 124.986057 171.692806 128.819151 172.718893 128.819151 172.718893 124.986057 174.201897 124.986057 174.201897 124.162698 170.210593 124.162698"></polygon>
                <polygon id="Fill-34" fill="#231F20" points="176.993281 127.274423 176.344269 124.16246 174.594071 124.16246 174.594071 128.818913 175.552174 128.818913 175.552174 124.929555 175.564032 124.929555 176.459684 128.818913 177.466008 128.818913 178.381423 124.929555 178.394071 124.929555 178.394071 128.818913 179.352964 128.818913 179.352964 124.16246 177.60751 124.16246"></polygon>
            </g>
        </g>
    </g>
</svg>