<?xml version="1.0" encoding="UTF-8"?>
<svg width="200px" height="200px" viewBox="0 0 200 200" version="1.1" xmlns="http://www.w3.org/2000/svg" xmlns:xlink="http://www.w3.org/1999/xlink">
    <!-- Generator: Sketch 54.1 (76490) - https://sketchapp.com -->
    <title>wentworth</title>
    <desc>Created with Sketch.</desc>
    <g id="wentworth" stroke="none" stroke-width="1" fill="none" fill-rule="evenodd">
        <g id="wentworth_BGL">
            <g id="wentworth" transform="translate(0.000000, 10.000000)">
                <g id="g10" transform="translate(99.844959, 89.922486) scale(-1, 1) rotate(-180.000000) translate(-99.844959, -89.922486) translate(0.000000, 0.620163)" fill-rule="nonzero">
                    <g id="g12">
                        <path d="M198.119685,90.7195016 C195.589452,94.6729899 184.672243,105.667098 180.384492,109.388028 C177.332089,112.035842 170.464492,117.987842 169.128678,120.487935 C169.468523,121.191811 170.115965,122.052834 170.753484,122.891036 C172.341081,124.991005 174.318135,127.599377 173.689298,130.831625 C172.764027,135.608059 165.962166,140.117826 161.990694,142.381392 C160.951314,142.97302 158.754725,144.942632 156.429143,147.022632 C151.835035,151.140461 145.61612,156.710694 139.238446,160.183562 C138.128369,162.61581 134.847749,168.925267 129.066663,171.479065 C117.342509,176.65612 100.76068,177.731468 98.2800596,177.268833 C95.1439356,176.677205 98.0968658,170.082476 98.6094859,167.810228 C98.285889,167.837515 97.9181371,167.885887 97.5275635,167.941701 C95.8793154,168.179841 93.6579201,168.638755 90.9510675,168.966197 C85.380339,169.637205 77.975812,170.990383 65.8299518,168.173639 C64.3095798,168.832244 62.4951302,169.639686 60.8687117,170.13705 C45.1559679,174.944492 25.8924645,169.571469 28.2592241,165.384182 C29.967007,162.362787 34.1608674,161.720306 36.527627,156.491159 C14.4389454,140.904183 0,115.208307 0,86.1191916 C0,38.5561541 38.5561541,0 86.1191916,0 C97.3958425,0 108.155532,2.19041235 118.025671,6.12984791 C101.690912,5.7969983 89.1821373,16.6361546 89.4718737,27.2461389 C89.6909125,35.2631309 94.2137031,40.1957199 103.148276,40.3449292 C105.261641,37.4128363 107.223811,34.551317 108.68316,32.3299217 C112.952059,25.8421079 116.974261,20.5906351 123.248493,15.7877826 C126.85271,13.0280927 133.116276,10.3144432 143.457981,11.3749951 C147.211159,11.7592059 152.994725,13.4723718 155.071004,14.2984182 C160.703252,15.4021702 162.888678,16.5707903 166.272244,19.7631003 C169.325887,22.6491777 169.408988,27.3265109 169.437515,29.8421078 C169.438755,29.915162 169.438755,29.878821 169.438755,29.8421078 C171.043717,31.0911 171.991314,33.0837821 172.290228,36.1351929 C172.507283,38.3949138 171.332709,41.6172393 170.029143,43.5188826 C170.3355,44.0396888 170.609608,46.7063554 170.665422,49.5097042 C170.933329,49.5018902 172.282786,49.8256112 173.907593,50.3240918 C173.668213,48.7218592 173.431313,47.1477818 173.190693,46.3580764 C172.460151,43.95634 172.329918,42.1260145 173.988213,42.1433788 C175.663872,42.17203 178.832864,45.1162779 181.390383,48.3250841 C181.800926,48.8420453 183.301701,50.7523708 184.542011,52.341084 C186.790693,52.3115646 189.061701,52.5136111 190.542631,53.4326808 C194.765887,56.0620141 197.064181,62.0334868 196.537049,69.0125874 C196.442786,70.2519052 196.37953,71.2024788 196.321235,72.0795021 C196.229452,73.4457036 196.148832,74.6279671 195.988832,76.3624167 C196.148832,76.7985097 196.372088,77.3313469 196.613949,77.9273159 C198.213949,81.8266026 200.396894,87.1617963 198.119685,90.7195016" id="path14" fill="#231F20"></path>
                        <path d="M122.871563,121.779098 C122.194726,121.730602 119.504865,121.119129 119.111935,120.953051 C118.723346,120.783377 121.161299,115.461206 124.039687,112.907036 C124.158757,112.801362 124.259222,112.735005 124.357206,112.697175 C125.907594,111.207315 128.039687,110.342571 130.351625,110.512121 C134.666663,110.83671 137.89519,114.969423 137.576431,119.281485 C137.568989,119.34685 136.315035,120.03485 134.313175,120.688989 C134.463252,120.286881 134.57488,119.869144 134.605888,119.422013 C134.804338,116.800865 132.840927,114.514106 130.21271,114.314416 C127.595656,114.118199 125.304803,116.087687 125.108834,118.707346 C125.015811,119.924958 125.405268,121.046571 126.088679,121.943811 C124.191005,121.940462 122.871563,121.779098 122.871563,121.779098" id="path16" fill="#FFFFFF"></path>
                        <path d="M143.947903,49.0469445 C143.512555,46.9345725 143.100772,45.3048051 142.677826,43.9181384 C141.946043,41.5193788 141.818291,39.6884331 143.475345,39.7082781 C145.151004,39.7344486 148.318756,42.6778284 150.876275,45.8889911 C151.522477,46.6991616 152.297671,47.7194407 153.067903,48.749022 C149.926198,48.6783244 147.212399,48.7403399 143.947903,49.0469445" id="path18" fill="#FFFFFF"></path>
                        <path d="M153.222942,41.4995338 C153.17333,40.4874408 154.044027,39.9006502 155.253329,39.9554719 C158.058911,40.0755339 160.848368,40.6216424 163.048678,41.7039369 C164.068213,42.2053943 165.647128,43.000433 166.066352,44.3769291 C166.490538,45.7587585 165.468523,47.9903244 165.033174,48.0111616 C164.651159,48.0285259 164.089298,46.3390996 163.560926,45.9956578 C162.810539,46.8987275 161.963407,47.3750066 161.596275,47.2941384 C161.199376,47.2049601 160.946353,45.5033787 160.484957,45.1424485 C159.908213,45.6220764 158.805577,46.6395027 158.402477,46.5029446 C158.09488,46.3987585 157.764957,45.1957818 157.151004,44.5469756 C156.684647,45.1274407 155.69612,45.9573322 155.343872,45.9423244 C154.778291,45.9209911 153.318446,43.3671927 153.222942,41.4995338" id="path20" fill="#FFFFFF"></path>
                        <path d="M35.7349448,63.0910992 C45.1342624,54.5566498 57.9069753,48.6870065 75.1826338,45.9956578 C81.9113158,45.4922159 89.6932691,45.5130531 98.9355634,45.9883399 C97.1739511,48.2543864 95.4588503,50.3294251 93.9753155,51.9069754 C85.7349436,51.161301 78.7825097,51.5498902 73.2582927,52.2208979 C59.1918125,53.6830994 49.4670375,57.5460451 44.4040919,60.3667582 C37.3183246,64.3168976 31.8144488,68.2800603 27.4961854,72.3715951 C28.2785729,71.275161 29.0964334,70.2107269 29.9476582,69.1724634 C31.9147899,66.9767425 33.8323092,64.9467271 35.7349448,63.0910992" id="path22" fill="#FBBC09"></path>
                        <path d="M181.73643,62.370107 C179.991313,59.9331458 173.752554,55.3982002 168.709453,53.6530839 C174.359065,54.5261382 179.77798,57.0189133 181.805887,58.7727117 C183.771778,57.0310683 185.504491,57.2489908 188.333639,57.7552854 C184.054569,58.5547892 182.428523,61.4728667 181.73643,62.370107" id="path24" fill="#FBBC09"></path>
                        <path d="M181.432554,77.8110988 C180.033484,77.0212694 180.93643,74.4050834 180.901701,71.6724323 C177.438755,75.3173315 176.754104,77.0794399 177.462321,79.627905 C178.175499,82.1778584 179.913174,83.896308 183.121856,82.4476258 C186.333019,81.0029127 185.169608,76.2984167 181.432554,77.8110988 L181.432554,77.8110988 Z M94.5721527,86.7355017 C89.9839978,85.7277498 89.3958427,89.9283078 93.1017651,92.7106954 C96.9549123,95.6114085 99.1584471,87.7456102 94.5721527,86.7355017 Z M84.7286801,99.5310363 C81.8653003,97.6357185 78.9787267,96.3309123 76.5189438,98.5764937 C74.0658586,100.827036 79.0682771,107.527563 83.2422925,106.536804 C86.8580443,105.674416 87.5882149,101.427842 84.7286801,99.5310363 Z M76.6981686,121.701578 C80.5537964,124.599067 82.7543545,116.735501 78.1695484,115.725268 C73.5828819,114.719005 72.9932385,118.918075 76.6981686,121.701578 L76.6981686,121.701578 Z M176.834724,105.302819 C169.525577,111.63609 165.360616,117.505858 162.442166,120.907036 C159.446818,124.400617 153.247748,129.632245 154.026663,126.795656 C154.804337,123.956834 158.710074,118.243718 160.726818,116.200059 C165.727748,111.137114 169.567748,107.055253 175.161546,101.933145 C178.331778,99.0174239 185.415189,91.4922148 181.772399,91.493207 C177.634724,91.4956876 169.705422,91.2233155 168.241856,86.2863854 C165.421391,91.0837807 155.97395,98.7727107 152.363407,102.626974 C148.390694,106.86623 147.059841,111.997144 142.624493,112.294075 C138.351624,112.578478 138.667904,109.882292 134.552555,108.084835 C128.602787,105.485517 123.262136,108.203532 118.9244,109.887129 C113.605579,111.952493 98.5029433,121.644896 97.3279976,124.174881 C103.433672,123.886633 102.857052,124.007811 111.937982,125.766198 C119.247625,127.182632 123.493206,128.570539 130.759687,128.266663 C137.484648,127.992555 140.511004,124.667284 145.066663,124.863253 C149.624802,125.059222 147.764337,130.536431 145.612399,133.438756 C142.191624,138.057671 136.568059,145.128679 124.947594,154.710074 C131.431935,150.909764 149.607438,135.359997 154.538911,131.257051 C159.469143,127.162788 162.996585,125.541702 166.025422,128.884338 C166.791934,129.727749 167.691159,131.368679 166.331779,132.597826 C164.89674,134.237516 163.008988,135.33395 159.312864,137.675655 C157.812089,138.626973 155.691159,140.4155 152.81364,142.992865 C148.395655,146.945733 142.406198,152.291469 136.556896,155.45674 C136.53457,155.467903 136.520927,155.464182 136.501082,155.477826 C124.781392,161.866663 119.86195,162.990384 103.632245,162.370228 L103.625052,162.396275 L102.42592,162.325577 C97.0009278,162.119686 87.2893001,166.060151 74.0368354,163.768058 C81.3905096,159.17519 84.6341684,154.026663 84.6341684,154.026663 C80.0523391,157.505732 69.1337657,165.272554 58.6951923,166.928368 C48.2645569,168.585422 36.4122782,167.763097 37.7165882,165.229143 C47.7422624,165.485887 57.8716265,160.317515 65.9336418,155.356275 C73.7534245,150.543872 89.3265094,138.025423 96.0053309,132.900462 C87.4273467,133.627283 68.8323704,134.499221 64.6899829,114.407439 C64.2354092,112.200555 63.9593162,110.041176 63.8381379,107.934633 C63.9219829,108.004835 63.9995023,108.076524 64.0866961,108.142881 C67.9481533,111.046571 70.151192,103.176804 65.5644015,102.171532 C64.9500759,102.035842 64.4112852,101.999501 63.9389751,102.035842 C64.4549441,96.649672 66.1337038,91.8144473 68.8580448,87.8376412 C69.4898587,88.6613311 70.5048044,89.2451451 71.9001532,89.4898582 C75.3028198,90.0881838 79.5872228,87.5920598 78.491781,84.5736413 C77.9021376,82.9418894 76.7451764,81.8711297 75.4225097,81.2741685 C80.2989127,77.9684942 86.5769901,76.231564 94.0343542,76.6409903 C116.028152,77.8522771 122.417609,97.7359355 135.140462,96.4267883 C124.385733,90.8236877 120.560617,79.5261996 122.146354,72.4064478 C123.838136,64.802355 129.779842,59.4631923 136.310074,57.2054559 C143.848679,54.5988203 151.678756,55.0702622 158.567438,58.0281536 C150.076275,59.5382311 137.6124,65.1244635 130.146973,73.5426958 C140.751624,65.9941689 150.337981,62.290231 163.289298,60.5451148 C163.593174,60.7413318 163.900771,60.9327117 164.199686,61.1395954 C165.088988,61.7572698 165.870383,62.4210837 166.568678,63.1152852 C156.01488,63.2156263 138.816741,69.0600913 132.506043,77.1884632 C140.966198,70.2577347 160.390694,66.5149751 169.13612,66.4486185 C169.762476,67.5300448 170.230073,68.6409905 170.574879,69.7514401 C160.628833,69.4461998 144.034725,73.379347 136.866973,79.6157499 C145.97333,74.4186028 163.508833,72.7916881 171.29798,73.4398741 C171.488988,75.5968973 171.290538,77.6017345 170.907283,79.1749438 C172.367127,76.3527423 174.127127,73.2049594 176.883096,70.7180137 C179.371158,68.4666029 180.771468,67.338665 183.306662,65.8609596 C186.0986,68.7800293 188.964957,74.0271609 190.924646,78.2460756 C191.113174,78.755843 191.333949,79.3203081 191.604336,79.9830058 C193.407747,84.3807731 194.062631,87.0115947 193.560305,87.8013001 C191.544801,90.953052 181.157205,101.54654 176.834724,105.302819 L176.834724,105.302819 Z" id="path26" fill="#FBBC09"></path>
                        <path d="M162.006818,37.5155339 C154.117205,35.7867898 149.514415,34.3764332 139.831314,35.4545107 C130.215191,36.5222937 125.462322,39.856123 111.073114,54.8967428 C108.424431,54.2150684 105.858478,53.6515956 103.387656,53.1981382 C104.708338,51.3425103 118.380276,31.6254256 121.653082,28.0780148 C125.923718,23.4481855 131.326508,19.6986042 137.401547,18.8343561 C142.249919,18.14586 155.608058,20.8865731 158.670384,23.1317824 C161.13488,24.9340769 161.194415,26.3541079 160.940151,29.791131 C154.955655,28.6313171 149.322167,28.6313171 144.926508,29.206821 C149.830694,29.21079 159.647748,31.3759992 162.326818,32.37941 C165.005887,33.3841852 166.830383,35.0746038 166.899841,36.659844 C166.971779,38.24372 166.220151,39.3066657 165.45488,40.1947277 C165.284957,39.1167742 164.484957,38.0576735 162.006818,37.5155339" id="path28" fill="#FBBC09"></path>
                        <path d="M25.6710691,104.46561 C23.7936118,114.256245 24.8410536,125.633485 29.2524644,133.25147 C22.6793173,128.580462 12.3231625,112.665672 19.6254259,95.9893309 C26.9244024,79.3129903 42.5421385,66.2233782 63.8066341,59.2901691 C41.5310377,67.1172696 29.2102938,85.9918118 25.6710691,104.46561" id="path30" fill="#FBBC09"></path>
                    </g>
                </g>
            </g>
        </g>
    </g>
</svg>