<?xml version="1.0" encoding="UTF-8"?>
<svg width="200px" height="200px" viewBox="0 0 200 200" version="1.1" xmlns="http://www.w3.org/2000/svg" xmlns:xlink="http://www.w3.org/1999/xlink">
    <!-- Generator: Sketch 56.3 (81716) - https://sketch.com -->
    <title>wesleyan-ct</title>
    <desc>Created with Sketch.</desc>
    <defs>
        <polygon id="path-1" points="0.0204081633 0.280272109 189.084014 0.280272109 189.084014 199.979592 0.0204081633 199.979592"></polygon>
    </defs>
    <g id="wesleyan-ct" stroke="none" stroke-width="1" fill="none" fill-rule="evenodd">
        <g id="wesleyan-ct_BGL" transform="translate(0.000000, -0.000000)">
            <g id="WU_Identity_Athletics_Cardinal_2-Color_outline_white-Copy" transform="translate(5.000000, 0.000000)">
                <g id="Group-4">
                    <mask id="mask-2" fill="white">
                        <use xlink:href="#path-1"></use>
                    </mask>
                    <g id="Clip-2"></g>
                    <path d="M129.036735,194.798299 C128.927551,194.713265 117.944218,186.193537 102.108844,177.787075 C75.6996599,163.767007 56.3227891,160.82415 44.7180272,160.82415 C43.2173469,160.82415 41.7180272,160.871088 40.2629252,160.963946 L39.7707483,160.995238 L39.4989796,160.583333 C24.7221088,138.17415 23.7982993,114.267687 23.742517,111.722789 C22.2047619,108.876871 6.69047619,79.8721088 3.94217687,63.2122449 L3.61258503,61.2139456 L5.26972789,62.3778912 C12.1785714,67.229932 19.1710884,71.0554422 26.1081633,73.7812925 C15.7207483,63.3506803 5.74829932,51.9248299 1.78197279,37.9030612 L1.3,36.1996599 L2.93095238,36.8880952 C13.4792517,41.3421769 24.6741497,44.6982993 35.5251701,47.6642857 C28.9061224,43.1921769 22.8714286,36.9159864 18.1506803,29.5166667 L16.05,26.2238095 L19.3292517,28.3452381 C27.7017007,33.7612245 36.5598639,37.4911565 45.1921769,39.2612245 C36.0772109,32.8241497 28.6081633,21.0969388 22.9520408,4.31802721 L22.2255102,2.16326531 L24.187415,3.31258503 C48.7088435,17.6768707 70.514966,26.0346939 92.6316327,29.527551 C91.0136054,27.4153061 87.5217687,23.814966 85.1914966,21.5557823 L82.587415,19.0312925 L86.0421769,20.1353741 C93.3629252,22.4748299 112.230612,29.1255102 129.277211,40.3227891 C146.372109,51.5517007 156.577891,63.8846939 159.615986,76.9833333 C172.253061,89.5091837 179.277891,102.343537 182.94898,110.921429 C186.956122,120.282993 187.927211,126.582653 187.966667,126.845918 L188.104762,127.771429 L187.170408,127.821088 C157.829932,129.37551 138.646259,137.489116 130.153061,151.936735 C119.207143,170.556463 130.210884,193.52449 130.323469,193.754082 L131.943197,197.064966 L129.036735,194.798299" id="Fill-1" fill="#1A1919" mask="url(#mask-2)"></path>
                    <path d="M20.6935374,0.280272109 L22.1462585,4.58945578 C24.9173469,12.8098639 28.1952381,19.9506803 31.8891156,25.8132653 C34.8734694,30.5503401 38.1459184,34.4755102 41.6707483,37.5540816 C34.3248299,35.5840136 26.8843537,32.2193878 19.7911565,27.6312925 L13.2319728,23.3884354 L17.4336735,29.9741497 C21.3156463,36.0581633 26.077551,41.394898 31.3241497,45.6156463 C21.907483,42.9571429 12.3391156,39.9377551 3.26190476,36.1047619 L0,34.727551 L0.963605442,38.1343537 C4.60068027,50.9921769 13.1772109,61.6503401 22.5292517,71.347619 C16.9360544,68.8234694 11.3207483,65.5884354 5.75884354,61.6819728 L2.44387755,59.3540816 L3.10340136,63.3506803 C5.82312925,79.837415 20.8816327,108.201701 22.8955782,111.943537 C22.9336735,113.544558 23.1891156,119.303401 24.8884354,127.294558 C26.7034014,135.829932 30.5884354,148.614966 38.7887755,161.051361 L39.3319728,161.87517 L40.3170068,161.812245 C41.7540816,161.720748 43.235034,161.67415 44.7180272,161.67415 C53.8952381,161.67415 63.9952381,163.438095 74.737415,166.917007 C83.3758503,169.714626 92.4414966,173.619388 101.682313,178.523129 C117.458503,186.895238 128.405102,195.384354 128.513605,195.469048 L134.32551,200 L131.087415,193.380612 C131.059864,193.32449 128.286735,187.576531 126.907823,179.630952 C126.105102,175.006122 125.92483,170.55 126.371769,166.385714 C126.92483,161.232313 128.447619,156.509184 130.897619,152.347619 C134.671088,145.939796 140.720068,140.733333 148.876871,136.87381 C158.62381,132.261565 171.522789,129.501701 187.215646,128.670068 L189.084014,128.571088 L188.807483,126.720408 C188.767347,126.452381 187.780272,120.047619 183.730952,110.586735 C180.046599,101.978571 173.013605,89.1197279 160.387755,76.5517007 C157.231293,63.3221088 146.92449,50.8969388 129.744218,39.6119048 C112.609524,28.3571429 93.655102,21.6755102 86.3010204,19.3255102 L79.392517,17.1173469 L84.5996599,22.1663265 C86.6666667,24.1707483 88.9129252,26.4969388 90.5156463,28.314966 C79.8605442,26.4683673 69.3085034,23.4758503 58.3840136,19.2091837 C47.5282313,14.9693878 36.4829932,9.52959184 24.6173469,2.57891156 L20.6935374,0.280272109 Z M23.7578231,4.0462585 C45.7931973,16.9544218 68.8965986,26.9323129 94.2962585,30.6404762 C93.6578231,28.5795918 85.7833333,20.9452381 85.7833333,20.9452381 C109.718367,28.5945578 152.234014,48.0414966 158.841837,77.4139456 C183.331633,101.582313 187.12551,126.971769 187.12551,126.971769 C98.9911565,131.641156 129.559524,194.127891 129.559524,194.127891 C129.559524,194.127891 85.7761905,159.973469 44.7180272,159.973469 C43.2112245,159.973469 41.7057823,160.019728 40.2088435,160.114966 C24.6166667,136.469388 24.5894558,111.50068 24.5894558,111.50068 C24.5894558,111.50068 7.62142857,80.2891156 4.78129252,63.0738095 C12.3302721,68.3755102 20.722449,72.9547619 29.457483,75.9119048 C18.5217687,65.1333333 6.90612245,52.8935374 2.60034014,37.6714286 C15.0918367,42.9462585 28.3207483,46.6459184 41.3952381,50.1248299 C32.1496599,45.4969388 24.3986395,37.7282313 18.8676871,29.0591837 C27.9853741,34.9571429 38.5588435,39.4173469 49.3639456,40.8231293 C36.194898,33.9244898 28.3057823,17.537415 23.7578231,4.0462585 L23.7578231,4.0462585 Z" id="Fill-3" fill="#FFFFFE" mask="url(#mask-2)"></path>
                </g>
                <path d="M150.328571,159.055102 C150.328571,159.055102 150.322789,159.055442 150.317007,159.05068 C150.322789,159.055442 150.328571,159.055102 150.328571,159.055102" id="Fill-5" fill="#BEBEB9"></path>
                <path d="M112.719048,78.894898 C112.705782,78.9268707 112.697619,78.9591837 112.684014,78.9908163 C111.556463,81.5707483 108.071769,82.802381 104.884694,81.6982993 C101.697619,80.5942177 99.9721088,77.6170068 101.023129,75.0363946 C101.506122,73.8503401 102.502721,72.957483 103.756122,72.4380952 C98.3659864,67.8510204 93.6503401,67.0479592 90.7258503,67.1608844 C90.2908163,67.8153061 89.9142857,68.5122449 89.6306122,69.2612245 C89.4323129,69.7870748 89.2646259,70.3289116 89.1670068,70.855102 C87.864966,77.8595238 93.2867347,84.1088435 99.7108844,86.3517007 C106.806803,88.8289116 115.442517,86.994898 119.420408,80.1894558 C117.720068,80.2789116 115.417687,80.047619 112.719048,78.894898" id="Fill-6" fill="#FFFFFE"></path>
                <path d="M122.730272,61.1227891 C131.815646,66.0598639 142.360884,69.4306122 152.747279,69.9612245 C140.746259,54.7642857 122.041837,46.1187075 104.281293,39.7401361 C106.895578,41.8901361 107.817687,47.3710884 108.487415,50.1227891 C101.693197,41.4612245 92.2503401,38.6714286 81.9017007,36.4962585 C84.6914966,38.2969388 86.1017007,39.1931973 88.9323129,40.9795918 C69.5282313,36.5853741 51.7884354,27.1806122 34.7268707,17.2316327 C42.8112245,31.9554422 55.8670068,42.8731293 70.7959184,50.1459184 C61.2646259,51.4748299 51.1506803,48.6333333 42.0717687,45.9258503 C49.6397959,51.9571429 58.4942177,56.9731293 67.8421769,59.535034 C61.7972789,59.1591837 55.7540816,58.5996599 49.7544218,57.7687075 C52.2588435,59.6962585 54.8377551,61.6540816 56.5156463,62.9197279 C44.2408163,63.2258503 31.3901361,58.7316327 19.8513605,54.9340136 C27.5442177,63.3227891 35.4506803,71.5901361 42.0068027,80.9285714 L45.0414966,85.7717687 C45.0414966,85.7717687 38.9404762,84.1506803 33.7911565,80.0044218 C35.7323129,87.1098639 40.8166667,92.1013605 46.0884354,96.8908163 C37.5619048,96.4540816 28.837415,90.4173469 21.4510204,86.5190476 C30.0139456,101.244898 38.7176871,116.646599 50.7142857,128.887415 C45.0809524,124.779932 40.5877551,120.809184 35.8632653,115.686395 C36.6272109,123.357823 39.8690476,130.62517 44.8190476,136.509524 C38.2778912,135.108163 33.4880952,129.331973 33.4880952,129.331973 C36.1146259,138.434354 37.6316327,144.643197 43.2006803,154.984694 C71.0697279,155.554762 96.8187075,168.959524 110.75102,177.486054 C108.130272,172.05034 96.9411565,163.670068 96.9411565,163.670068 C115.987415,176.12449 122.870748,184.641837 122.870748,184.641837 C122.870748,184.641837 105.333673,160.108503 136.570748,137.143537 C116.669728,144.859524 76.414966,125.560884 72.5697279,121.729932 C76.8234694,121.39966 88.6581633,123.252041 88.6581633,123.252041 C83.0231293,111.011905 64.0908163,104.62483 52.877551,97.7493197 C56.8680272,96.6255102 61.1632653,96.2268707 65.5465986,96.4656463 C69.5598639,96.6843537 73.6428571,97.4343537 77.5908163,98.6636054 C80.0659864,92.0602041 76.6901361,85.185034 73.3037415,80.7068027 C69.502381,75.6795918 64.0258503,71.9687075 58.0931973,68.3479592 C57.8993197,68.2292517 57.694898,68.1183673 57.4962585,68.0064626 C67.4965986,64.9768707 77.7581633,65.0826531 88.0918367,65.2622449 C85.7384354,62.5802721 82.4564626,60.9387755 79.4710884,60.1826531 C87.4214286,59.5329932 92.4452381,60.4278912 99.2217687,63.7068027 C105.17415,66.5867347 111.42517,70.9527211 117.597959,73.9105442 C123.471429,76.7251701 131.130612,77.6901361 137.153401,74.1452381 C136.897959,74.0751701 136.643197,74.005102 136.392857,73.9238095 C130.229252,71.9255102 125.10034,67.1710884 122.730272,61.1227891" id="Fill-7" fill="#D72331"></path>
                <path d="M100.693878,101.257483 C100.535374,100.402721 133.444558,104.87381 181.678912,120.826531 C173.466667,103.466327 172.405102,99.9469388 160.296939,84.9044218 C154.366667,83.5506803 148.327211,81.5918367 148.327211,81.5918367 C154.214626,86.5602041 161.47619,92.6251701 163.55,100.317007 C157.401701,92.8394558 147.665986,88.3911565 138.162245,89.1013605 C133.218027,89.4710884 128.297279,91.5918367 123.497279,92.7653061 C118.640136,93.9530612 113.741156,94.9853741 108.836395,95.8030612 C107.379592,96.0459184 105.917347,96.285034 104.446599,96.5289116 C104.406463,96.5357143 104.366667,96.5421769 104.326531,96.5486395 C103.373469,96.7068027 102.421769,96.8629252 101.470748,97.0207483 C100.135374,97.242517 99.3401361,97.4462585 98.7986395,97.8843537 C98.3659864,98.2343537 98.0942177,98.7367347 97.8455782,99.5204082 C97.8394558,99.5404762 97.8329932,99.5619048 97.8268707,99.5823129 C97.5418367,100.523129 97.8914966,101.345238 98.812585,102.964966 C99.7493197,104.612245 100.765306,106.243537 101.852721,107.839116 C108.783673,118.007143 118.729252,126.676531 131.117007,128.159524 C142.120068,129.476531 162.807823,123.072789 173.992857,122.594218 C148.019728,111.504422 100.768367,101.658503 100.693878,101.257483" id="Fill-8" fill="#FFFFFE"></path>
            </g>
        </g>
    </g>
</svg>