<svg width="200" height="200" viewBox="0 0 200 200" fill="none" xmlns="http://www.w3.org/2000/svg">
<g clip-path="url(#clip0_1177_1353)">
<mask id="mask0_1177_1353" style="mask-type:luminance" maskUnits="userSpaceOnUse" x="9" y="0" width="182" height="200">
<path d="M190.893 0H9V200H190.893V0Z" fill="white"/>
</mask>
<g mask="url(#mask0_1177_1353)">
<path d="M95.2666 5.08203C65.6245 5.08203 31.6406 11.069 14.4659 19.3136L9 21.9368L9.03656 27.9969C9.24679 63.4614 11.2485 100.352 24.4198 129.903C39.1814 163.018 63.4491 186.171 96.5554 198.72L99.9465 200.009L103.338 198.72C136.444 186.171 160.712 163.009 175.473 129.903C188.644 100.352 190.646 63.4614 190.856 27.9969L190.893 21.9368L185.436 19.3136C168.252 11.069 134.269 5.08203 104.626 5.08203H95.2666Z" fill="#BC9B6A"/>
<path d="M95.2665 9.86328C66.2551 9.86328 33.1487 15.6491 16.5315 23.6195L13.7986 24.9266L13.8169 27.952C14.018 62.8956 15.974 99.1919 28.7888 127.929C43.0111 159.838 66.383 182.141 98.2554 194.224L99.9464 194.864L101.646 194.224C133.51 182.141 156.882 159.829 171.104 127.929C183.919 99.1919 185.866 62.8865 186.076 27.952L186.094 24.9266L183.361 23.6195C166.753 15.6491 133.638 9.86328 104.626 9.86328H95.2665Z" fill="#231F20"/>
<path d="M99.9465 189.772C131.234 177.908 153.153 156.473 166.735 125.999C178.453 99.7118 181.067 66.7152 181.296 27.9326C165.382 20.2913 133.099 14.6426 104.626 14.6426H95.2667C66.7945 14.6426 34.5199 20.2913 18.5974 27.9326C18.8259 66.7152 21.4309 99.7027 33.1489 125.999C46.7314 156.473 68.6591 177.908 99.9374 189.772H99.9465Z" fill="#9E0032"/>
<path d="M123.273 129.418C125.146 147.708 144.167 154.033 150.017 153.85C156.416 145.807 176.479 119.528 176.479 80.1792C176.488 35.9033 140.584 0 96.2995 0C79.5452 0 63.8695 5.00891 51.009 13.7928C61.2736 18.6555 67.3245 36.3238 67.6993 43.8737C67.7724 45.0893 67.7816 46.1862 67.7359 47.2099C67.2971 50.3999 67.3337 52.4016 65.5056 56.0486C65.5056 56.0486 63.2022 57.959 61.0543 60.0521C59.7106 59.5037 57.3616 59.6956 55.6615 60.3994C51.6031 62.1452 44.693 69.6586 43.7607 72.876C43.7607 72.876 43.7516 72.9126 43.7516 72.9217C42.408 76.4499 44.9398 82.0529 51.4203 89.5206C49.7842 93.0305 48.4314 96.1108 48.5777 96.5952C48.5777 96.6135 48.596 96.6226 48.596 96.6409H48.5777C49.3729 99.3373 53.1936 100.16 56.5298 101.284C57.3341 102.299 57.6266 103.871 56.411 105.58C56.411 105.58 56.411 105.598 56.4201 105.608C56.4201 105.608 56.4201 105.608 56.411 105.608C56.1368 107.07 56.9228 107.984 58.1019 108.331C57.389 108.999 56.7126 109.913 56.3561 110.717C56.3561 110.717 56.3561 110.717 56.3561 110.726C57.0142 112.344 57.3981 114.154 57.3524 114.766C57.3524 114.922 57.3524 115.068 57.3341 115.205C57.2519 116.366 56.7309 116.996 56.3835 117.92C55.6158 119.985 54.4915 123.833 56.0179 125.753C56.1368 125.945 56.2739 126.137 56.4567 126.32C58.3579 128.23 63.4673 129.674 66.6756 130.899C69.8747 132.115 72.4706 133.394 73.3755 136.255C74.4814 139.793 74.7465 142.26 73.3023 145.03C71.5657 148.357 57.4073 150.834 48.3583 151.94C61.1183 169.124 80.3038 182.716 99.9282 189.781C117.213 183.255 132.011 174.105 145.438 159.225C134.003 156.547 119.415 147.114 119.095 129.199H119.15C119.15 129.199 120.265 129.272 123.263 129.427" fill="#231F20"/>
<path d="M99.4985 83.7612C96.601 83.7612 91.7201 87.5727 90.806 88.4867C84.682 85.7629 82.1136 85.1322 76.6202 84.0628C71.136 82.9934 67.3153 86.2017 64.7195 86.9603C62.1236 87.7281 60.6063 85.8909 59.0799 80.8637C58.239 80.0228 55.7528 80.425 55.7437 80.425C55.4329 81.0922 55.0581 81.8783 54.6468 82.7283L51.4111 89.5105C49.775 93.0204 48.4222 96.1007 48.5685 96.5851C48.5685 96.6034 48.5868 96.6125 48.5868 96.6308C48.733 96.6399 55.9539 97.1335 61.2004 97.3163C62.3156 98.404 59.7837 102.069 57.1056 101.475C56.9136 101.402 56.7217 101.338 56.5206 101.274C57.3249 102.289 57.6174 103.861 56.4018 105.57C56.4018 105.57 56.4018 105.588 56.4109 105.597C57.4255 106.575 63.3027 105.387 64.9663 105.597C69.966 106.182 69.2257 108.239 69.2257 108.239C66.1728 107.7 61.6118 107.554 59.1713 108.477C58.7874 108.477 58.4218 108.422 58.0836 108.321C57.3706 108.989 56.6942 109.903 56.3378 110.707C58.0379 111.466 58.2755 110.826 60.588 110.469C62.7086 110.149 65.4324 109.985 65.7066 111.557C62.8183 111.557 59.2901 114.244 57.3432 114.765C57.3432 114.921 57.3432 115.067 57.3249 115.204C57.2427 116.365 56.7217 116.995 56.3743 117.919C55.6065 119.984 54.4823 123.832 56.0087 125.752C54.9667 123.997 56.8405 122.187 58.8879 122.05C63.5221 121.758 66.9771 122.516 70.1854 122.516C83.9873 122.516 88.9048 118.44 92.7072 112.782C92.7072 116.502 91.3088 121.776 91.3088 121.776C91.3088 121.776 101.939 125.121 107.981 119.089C111.765 115.305 109.452 103.44 109.452 95.2049C109.452 90.6165 112.405 88.5964 115.403 87.9018C115.713 87.8286 116.024 87.7738 116.326 87.7372C116.362 87.7372 116.408 87.7281 116.454 87.719C116.71 87.6824 116.966 87.655 117.222 87.6367C117.286 87.6367 117.35 87.6367 117.414 87.6276C117.651 87.6184 117.871 87.6184 118.099 87.6184H118.291C118.565 87.6184 118.83 87.6367 119.086 87.6641C119.269 91.4391 119.068 113.285 119.068 128.595C119.068 128.796 119.077 128.997 119.086 129.189H119.141C119.141 129.189 121.993 129.372 130.95 129.792C131.334 129.81 131.737 129.81 132.148 129.819C132.175 129.819 132.194 129.819 132.221 129.819C132.605 129.819 133.007 129.829 133.409 129.838C133.473 129.838 133.537 129.838 133.601 129.838C133.976 129.838 134.351 129.847 134.735 129.856H135.036C135.511 129.856 135.996 129.856 136.499 129.856C136.215 129.701 135.95 129.509 135.685 129.298C135.603 129.225 135.521 129.143 135.438 129.07C135.265 128.915 135.091 128.759 134.927 128.585C134.826 128.485 134.735 128.357 134.643 128.247C134.497 128.074 134.351 127.909 134.214 127.717C134.113 127.589 134.022 127.443 133.93 127.297C133.802 127.105 133.674 126.913 133.546 126.703C133.455 126.547 133.364 126.383 133.272 126.218C133.153 125.999 133.034 125.789 132.925 125.56C132.833 125.386 132.751 125.194 132.669 125.012C132.559 124.774 132.449 124.545 132.349 124.299C132.267 124.107 132.184 123.896 132.102 123.695C132.002 123.439 131.91 123.184 131.81 122.918C131.727 122.699 131.654 122.489 131.581 122.26C131.49 121.995 131.398 121.712 131.316 121.429C131.243 121.2 131.179 120.962 131.106 120.725C131.024 120.441 130.941 120.14 130.859 119.847C130.795 119.6 130.731 119.354 130.658 119.098C130.585 118.796 130.512 118.485 130.439 118.175C130.375 117.919 130.32 117.663 130.256 117.389C130.192 117.078 130.119 116.749 130.055 116.429C130 116.164 129.945 115.89 129.89 115.615C129.826 115.286 129.762 114.948 129.707 114.619C129.662 114.345 129.607 114.061 129.561 113.778C129.506 113.431 129.451 113.074 129.397 112.718C129.351 112.444 129.314 112.169 129.269 111.886C129.214 111.484 129.159 111.082 129.104 110.68C129.04 110.186 128.976 109.692 128.912 109.19C128.866 108.815 128.821 108.449 128.775 108.075C128.693 107.343 128.62 106.612 128.547 105.881C134.406 98.4314 137.915 89.0352 137.915 78.8163C137.915 54.6126 118.291 34.9883 94.0874 34.9883C84.161 34.9883 75.0115 38.2879 67.6627 43.8544C67.7358 45.0701 67.7449 46.1669 67.6992 47.1907C67.6992 47.1724 67.6992 47.1541 67.6992 47.1358C73.4759 43.4797 78.7408 40.701 84.0605 39.4671C105.312 34.5038 121.956 46.6879 126.307 54.2744C105.485 38.2514 80.8705 45.975 65.4507 56.0294C65.4507 56.0294 63.1473 57.9397 60.9994 60.0328C59.6557 59.4844 57.3067 59.6764 55.6065 60.3802C51.5482 62.126 44.6381 69.6393 43.7058 72.8568C44.6564 70.4437 47.4259 69.0178 52.0144 68.6522C63.3027 67.7382 86.181 74.4472 99.4528 83.752L99.4985 83.7612Z" fill="white"/>
<path d="M130.448 151.968C125.795 153.293 94.179 170.048 81.3276 180.998C83.4208 182.296 89.4626 185.522 92.159 186.601C104.37 175.203 137.614 158.074 139.972 157.471C136.453 155.99 132.495 153.485 130.439 151.959L130.448 151.968Z" fill="white"/>
</g>
</g>
<defs>
<clipPath id="clip0_1177_1353">
<rect width="181.893" height="200" fill="white" transform="translate(9)"/>
</clipPath>
</defs>
</svg>
