<?xml version="1.0" encoding="UTF-8"?>
<svg width="200px" height="200px" viewBox="0 0 200 200" version="1.1" xmlns="http://www.w3.org/2000/svg" xmlns:xlink="http://www.w3.org/1999/xlink">
    <!-- Generator: Sketch 54.1 (76490) - https://sketchapp.com -->
    <title>westminster-mo</title>
    <desc>Created with Sketch.</desc>
    <defs>
        <polygon id="path-1" points="0.742656597 0.81608346 125.164593 0.81608346 125.164593 65.8416208 0.742656597 65.8416208"></polygon>
        <polygon id="path-3" points="0 0.00479166667 141.629952 0.00479166667 141.629952 160.041667 0 160.041667"></polygon>
    </defs>
    <g id="westminster-mo" stroke="none" stroke-width="1" fill="none" fill-rule="evenodd">
        <g id="westminster-mo_BGL">
            <g id="westminster-mo" transform="translate(0.000000, 20.000000)">
                <path d="M199.182584,112.683612 C199.182584,112.683612 199.300287,79.2856958 127.683062,60.0548208 C120.097416,58.0221958 108.800766,75.7676542 106.006507,77.3211125 C27.131866,121.125571 128.712727,123.670904 128.712727,123.670904 C128.712727,123.670904 126.736651,122.740362 127.556746,122.766238 C152.343349,123.474446 173.756746,120.945404 189.617033,110.600196 L199.182584,112.683612 Z" id="Fill-1" fill="#FFFFFF"></path>
                <g id="Group-5" transform="translate(74.641148, 58.453542)">
                    <mask id="mask-2" fill="white">
                        <use xlink:href="#path-1"></use>
                    </mask>
                    <g id="Clip-4"></g>
                    <path d="M51.7861244,2.0645375 C46.8157895,2.0645375 40.1315789,9.9679125 36.0215311,14.8266625 C34.0148325,17.1994958 32.5641148,18.9149125 31.6684211,19.4132458 C10.2856459,31.2879542 0.369856459,41.0888292 2.19569378,48.5417875 C5.36794258,61.4869542 42.9593301,64.0744542 52.0980861,64.5124125 C52.0808612,64.4184958 52.0856459,64.3226625 52.1114833,64.2191625 C52.1421053,64.0907458 52.3287081,63.6901625 52.9354067,63.6892042 C81.5602871,64.5057042 100.588995,60.7844958 114.635885,51.6237875 L114.85311,51.4809958 L123.859809,53.4427042 C123.608134,51.1398292 122.260766,44.0289958 115.078947,35.4193292 C100.409091,17.8319958 73.1583732,7.64970417 52.8808612,2.20445417 C52.5267943,2.10957917 52.161244,2.0645375 51.7861244,2.0645375 L51.7861244,2.0645375 Z M54.0559809,65.8416208 C52.0464115,65.7908292 4.80526316,64.4290375 0.985167464,48.8398292 C-0.991866029,40.7716208 9.12679426,30.5030792 31.0626794,18.3207458 C31.7593301,17.9335792 33.2942584,16.1194542 35.0703349,14.0197458 C39.9794258,8.2141625 47.4014354,-0.5574625 53.2023923,0.9979125 C73.7105263,6.50449583 101.274163,16.8267042 116.127751,34.7283708 C125.091388,45.5316625 125.166986,53.8816208 125.165072,54.2323708 L125.162201,55.0038292 L115.097129,52.8121208 C101.074163,61.8702875 82.2397129,65.6365375 54.2617225,64.9733708 L54.0559809,65.8416208 Z" id="Fill-3" fill="#06496F" mask="url(#mask-2)"></path>
                </g>
                <path d="M126.432919,59.3613708 C127.233876,41.2766625 115.245359,38.4169958 104.982201,34.5472458 C93.5793301,30.2481625 56.2606699,27.3453708 53.6721531,26.7195792 C25.7745455,19.9757875 11.5314833,6.94820417 7.52861244,1.9409125 C4.87980861,-1.37875417 10.4357895,19.8397042 10.4357895,19.8397042 C9.42334928,21.9969125 3.1276555,17.6911208 3.1276555,17.6911208 C-1.20248804,18.9714542 9.19272727,37.3292875 9.19272727,37.3292875 C10.2635407,41.2766625 1.55444976,36.7753708 1.55444976,36.7753708 C-2.69339713,42.0299125 8.77358852,54.8150375 8.77358852,54.8150375 C8.85971292,58.7825375 4.73339713,55.3689542 3.74392344,55.1926208 C-2.38430622,54.1020375 16.1343541,78.7455792 16.1343541,78.7455792 C20.2606699,76.8691625 12.5056459,93.0304958 16.6721531,93.5317042 C20.8463158,94.0348292 5.76593301,98.4680792 8.77358852,100.194996 C8.77358852,100.194996 13.5592344,101.539538 18.1487081,103.311496 C25.5400957,106.170204 35.7745455,110.459704 38.8855502,113.395079 C40.8204785,115.215913 49.6329187,124.904663 56.0769378,138.633746 C59.627177,146.196913 71.3085167,154.681996 93.8089952,150.921496 C95.9860287,150.552538 106.985072,148.439413 118.345837,148.845746 C127.524785,149.171579 135.802297,153.435204 140.981244,159.314579 C140.981244,159.314579 140.564976,131.414621 129.75445,122.674621" id="Fill-6" fill="#FFFFFF"></path>
                <g id="Group-10" transform="translate(0.000000, 0.953542)">
                    <mask id="mask-4" fill="white">
                        <use xlink:href="#path-3"></use>
                    </mask>
                    <g id="Clip-9"></g>
                    <path d="M141.629952,160.041667 L140.514163,158.773792 C135.120861,152.652917 126.826124,148.817667 118.323732,148.51675 C107.825167,148.143 97.7964593,149.9025 94.5007656,150.481333 L93.9132057,150.583875 C71.6892823,154.2955 59.3380861,146.096 55.5122488,137.945375 C49.3380861,124.791292 40.9208612,115.214667 38.4586603,112.896458 C36.124689,110.694208 28.831866,107.157958 17.924689,102.941292 C13.416555,101.2 8.65291866,99.8564167 8.60602871,99.8439583 L8.46344498,99.7835833 C7.82133971,99.414625 7.74191388,98.923 7.75148325,98.661375 C7.79741627,97.4011667 9.924689,96.3144167 13.3926316,94.6459583 C14.3744498,94.1735 15.6194258,93.5745417 16.3179904,93.14425 C15.8978947,93.0330833 15.5476555,92.7867917 15.294067,92.4235833 C14.2088995,90.8710833 15.0596172,87.2342083 15.8825837,83.717125 C16.3428708,81.7487083 17.0356938,78.7855417 16.678756,78.25175 C16.6653589,78.266125 16.5696651,78.2795417 16.3916746,78.3600417 L15.9361722,78.5670417 L15.6356938,78.1664583 C11.9926316,73.31825 0.250047847,57.2632917 2.11511962,54.2234583 C2.34478469,53.8497083 2.8337799,53.4443333 3.85291866,53.6245 C4.18114833,53.6829583 4.58593301,53.9014583 5.14478469,54.2033333 C5.91320574,54.6182917 7.34382775,55.3878333 7.84334928,55.0830833 C8.02708134,54.97 8.13617225,54.616375 8.15052632,54.0979167 C6.69215311,52.4332917 -3.22363636,40.7406667 1.07014354,35.428625 L1.38976077,35.0337917 L1.84047847,35.2666667 C4.54861244,36.664875 7.90076555,37.791875 8.57732057,37.2446667 C8.7122488,37.1354167 8.65196172,36.7894583 8.60985646,36.61025 C7.55339713,34.738625 0.0902392344,21.2730833 1.68354067,17.3228333 C1.92564593,16.7219583 2.36392344,16.3117917 2.95148325,16.1383333 L3.23473684,16.054 L3.47971292,16.2217083 C5.20889952,17.4042917 8.40794258,19.1599583 9.60124402,18.8302917 C9.6691866,18.811125 9.71990431,18.7871667 9.75818182,18.7603333 C5.09885167,0.913291667 6.24047847,0.338291667 6.72947368,0.092 C7.14669856,-0.118833333 7.57923445,0.05175 8.01655502,0.598 C9.38401914,2.308625 22.294067,17.5384583 53.8184689,25.159125 C54.4309091,25.3076667 57.4825837,25.6296667 61.3457416,26.0379167 C73.6663158,27.34125 96.5993301,29.7658333 105.202201,33.0097917 C105.981148,33.3030417 106.770622,33.5915 107.562967,33.8809167 C117.055789,37.3443333 127.815598,41.2696667 127.056746,58.4353333 L125.809856,58.37975 C126.529474,42.1292917 116.6711,38.5326667 107.136172,35.0539167 C106.339043,34.7635417 105.545742,34.474125 104.762967,34.1789583 C96.309378,30.9915417 73.4797129,28.5775 61.2146411,27.280875 C57.001244,26.83525 54.2184689,26.5410417 53.5266029,26.3733333 C23.5658373,19.13025 10.1304306,5.00633333 7.43569378,1.85245833 C7.59454545,4.4275 9.25483254,11.9159167 11.0385646,18.72775 L11.0959809,18.9472083 L11.0002871,19.1513333 C10.7916746,19.5950417 10.4213397,19.90075 9.92947368,20.0349167 C8.01177033,20.5610417 4.33904306,18.287875 3.07397129,17.4531667 C2.9754067,17.5307917 2.89980861,17.641 2.83952153,17.7905 C1.66057416,20.7134167 7.4184689,31.9747917 9.73521531,36.0678333 L9.79454545,36.2115833 C10.0988517,37.3328333 9.72660287,37.9202917 9.36105263,38.2154583 C7.87110048,39.4239167 3.63282297,37.550375 1.75722488,36.6236667 C-0.695406699,40.822125 6.24813397,50.11125 9.23760766,53.4443333 L9.39263158,53.615875 L9.39741627,53.8477917 C9.42229665,54.9920417 9.11799043,55.766375 8.49502392,56.14875 C7.38210526,56.8282083 5.81272727,55.9829583 4.55244019,55.3025417 C4.22325359,55.1242917 3.77253589,54.880875 3.63473684,54.8540417 C3.37253589,54.8070833 3.20507177,54.8300833 3.17732057,54.8770417 C2.22325359,56.433375 9.23186603,67.52225 16.3629665,77.0567083 C16.8959809,76.94075 17.2490909,77.098875 17.4663158,77.277125 C18.4309091,78.0696667 18.0031579,80.1281667 17.0969378,84.00175 C16.4443062,86.7914583 15.5505263,90.6123333 16.3151196,91.7077083 C16.4222967,91.8600833 16.5505263,91.9348333 16.7466986,91.9578333 C17.063445,91.9961667 17.9055502,92.09775 18.0213397,92.7982917 C18.1677512,93.68475 17.0854545,94.2549583 13.9333014,95.772 C12.3189474,96.54825 9.35913876,97.9723333 9.02038278,98.6585 C9.02325359,98.6604167 9.02516746,98.6623333 9.02803828,98.6652083 C9.6969378,98.8559167 14.1438278,100.142 18.3734928,101.775 C26.1935885,104.7995 36.1744498,109.02575 39.3132057,111.986042 C41.8194258,114.346417 50.3840191,124.084042 56.6414354,137.414458 C60.2816268,145.169292 72.1763636,152.950958 93.7065072,149.352417 L94.2854545,149.250833 C97.6127273,148.667208 107.730431,146.881833 118.367751,147.268042 C126.620383,147.561292 134.692153,151.062083 140.295024,156.714333 C139.997416,150.62125 138.321818,129.44975 129.362967,122.207625 L130.145742,121.235875 C141.057703,130.057333 141.587847,157.200208 141.605072,158.351167 L141.629952,160.041667 Z" id="Fill-8" fill="#06496F" mask="url(#mask-4)"></path>
                </g>
                <path d="M158.847368,88.0645083 C158.847368,88.0645083 167.362201,98.4355917 167.947847,100.593758 C167.947847,100.593758 170.67799,101.8808 172.048325,102.667592 C173.87799,103.714092 159.894258,86.4200083 158.847368,88.0645083" id="Fill-11" fill="#232829"></path>
                <path d="M168.277416,100.301083 C168.736746,100.519583 170.095598,101.169333 171.247751,101.771167 C170.336746,100.450583 168.403732,97.948375 165.905167,95.0407917 C163.050622,91.7163333 161.23244,89.9309583 160.180766,89.0627083 C162.405646,91.8227083 167.514737,98.279 168.277416,100.301083 M172.174067,103.119542 C172.083158,103.119542 171.974067,103.092708 171.846794,103.020833 C170.506124,102.250333 167.801818,100.973833 167.775024,100.961375 L167.605646,100.880875 L167.555885,100.700708 C167.095598,98.9996667 160.886986,91.1882917 158.533876,88.322875 L158.347273,88.0947917 L158.505167,87.8465833 C158.684115,87.56675 159.070718,87.3415417 159.905167,87.8552083 C162.219043,89.2792917 173.203732,101.805667 172.554928,102.902958 C172.536746,102.931708 172.416172,103.119542 172.174067,103.119542" id="Fill-13" fill="#06496F"></path>
                <path d="M123.373301,72.7237 L127.632632,75.6121167 C127.632632,75.6121167 127.325455,73.8545333 127.219234,69.1222833 C127.190526,67.9099917 127.047943,73.7232417 126.782871,74.0011583 C126.516842,74.2771583 123.373301,72.7237 123.373301,72.7237" id="Fill-15" fill="#232829"></path>
                <path d="M126.616077,74.4321208 L127.117512,74.7723292 C127.103158,74.6295375 127.08689,74.4675792 127.071579,74.2864542 C126.995981,74.3631208 126.901244,74.4493708 126.616077,74.4321208 L126.616077,74.4321208 Z M128.195024,76.4839125 L123.14622,73.0597875 L123.552919,72.3592458 C124.638086,72.8949542 125.945263,73.4642042 126.478278,73.5983708 C126.589282,72.9083708 126.688804,70.9322875 126.73378,70.0266625 C126.80555,68.5987458 126.834258,68.5422042 127.213206,68.5498708 C127.611292,68.5556208 127.620861,68.9609958 127.624689,69.1133708 C127.728038,73.7430792 128.029474,75.5246208 128.031388,75.5418708 L128.195024,76.4839125 Z" id="Fill-17" fill="#06496F"></path>
                <path d="M103.096842,59.6224208 C103.096842,59.6224208 93.2260287,78.5178792 108.834641,81.4283375 C118.080574,83.1552542 121.156172,76.4239208 120.580096,74.5446292 C119.99445,72.6586292 121.451866,64.9143375 120.775311,64.7935875 C120.097799,64.6737958 104.912153,56.0670042 103.096842,59.6224208" id="Fill-19" fill="#FFFFFF"></path>
                <path d="M105.048038,59.017425 C104.208804,59.017425 103.599234,59.2320917 103.337033,59.7457583 L103.336077,59.747675 C103.284402,59.8473417 98.1982775,69.7315917 101.2911,76.1016333 C102.58201,78.7610083 105.136077,80.4630083 108.883445,81.1616333 C114.539904,82.2196333 117.493014,80.0001333 118.754258,78.584675 C120.165742,77.00055 120.523636,75.2851333 120.320766,74.6248417 C120.004976,73.605175 120.236555,71.167175 120.458565,68.809675 C120.601148,67.2964667 120.779139,65.4267583 120.64134,65.0357583 C120.438469,64.9648417 119.998278,64.7463417 119.016459,64.2537583 C116.156172,62.8191333 108.575311,59.017425 105.048038,59.017425 M111.707368,81.9790917 C110.820287,81.9790917 109.847081,81.8928417 108.78488,81.6944667 C104.858565,80.9623 102.174354,79.1606333 100.804019,76.3373833 C97.5963636,69.7277583 102.629856,59.9326333 102.856651,59.4985083 C104.282488,56.7078417 112.371483,60.3150083 119.258565,63.7698 C120.035598,64.1588833 120.705455,64.4952583 120.829856,64.5278417 C121.344689,64.6208 121.320766,65.43155 120.997321,68.8604667 C120.789665,71.057925 120.554258,73.5486333 120.837512,74.4648 C121.124593,75.4010917 120.633684,77.2890083 119.158086,78.9450083 C118.060478,80.1755083 115.76,81.9790917 111.707368,81.9790917" id="Fill-21" fill="#06496F"></path>
                <path d="M99.9830622,103.410971 C89.0596172,98.5004708 98.8768421,89.8419292 100.761053,89.5889292 C116.930431,87.3425958 125.759139,95.5440125 125.759139,95.5440125 C116.528517,106.028179 99.9830622,103.410971 99.9830622,103.410971" id="Fill-23" fill="#FFFFFF"></path>
                <path d="M100.059617,103.148963 C100.906507,103.272588 116.517033,105.358879 125.37445,95.5695042 C123.972536,94.4041708 115.322775,87.8319208 100.797416,89.8578375 C99.8232536,89.9881708 95.7524402,93.1439625 95.2299522,96.7377125 C94.848134,99.3702542 96.4720574,101.527463 100.059617,103.148963 M104.498852,103.955879 C101.78689,103.955879 99.9955024,103.687546 99.9409569,103.678921 L99.8720574,103.657838 C95.0672727,101.497754 94.4041148,98.6591708 94.6950239,96.6600875 C95.2500478,92.8382542 99.5390431,89.4792958 100.724689,89.3202125 C109.138086,88.1539208 115.539043,89.8472958 119.428038,91.4745458 C123.651962,93.2417125 125.851962,95.2609208 125.942871,95.3452542 L126.136172,95.5254208 L125.96201,95.7228375 C119.736172,102.794379 110.133301,103.955879 104.498852,103.955879" id="Fill-25" fill="#06496F"></path>
                <path d="M96.4263158,105.317383 C88.7822967,100.727925 94.4349282,90.6951333 94.4933014,90.5945083 L95.1956938,90.9998833 C94.9755981,91.3832167 89.8827751,100.441383 96.8435407,104.620675 L96.4263158,105.317383 Z" id="Fill-27" fill="#06496F"></path>
                <path d="M102.596364,86.9761292 C102.596364,86.9761292 85.3724402,96.5479625 102.773397,107.813171 C104.255694,108.766712 86.897799,98.5508792 102.596364,86.9761292" id="Fill-29" fill="#232829"></path>
                <path d="M95.9823923,94.4762375 C95.6465072,95.3023208 95.43311,96.1830292 95.403445,97.1078208 C95.3594258,98.4322375 95.6886124,99.7499458 96.3890909,101.055196 C96.2895694,100.820404 96.1967464,100.582738 96.1134928,100.340279 C95.4244976,98.3488625 95.3823923,96.3900292 95.9823923,94.4762375 L95.9823923,94.4762375 Z M102.875215,108.281029 C102.840766,108.281029 102.758469,108.244613 102.635024,108.175612 L102.618756,108.196696 C97.141244,104.650863 94.4637321,100.924863 94.5929187,97.0781125 C94.7996172,90.9141125 102.089569,86.7932792 102.399617,86.6217375 L102.836938,87.3031125 C98.3661244,90.5988208 96.1996172,94.0881125 96.3967464,97.6713208 C96.6790431,102.799363 101.747943,106.612571 102.847464,107.377321 C102.895311,107.408946 102.944115,107.440571 102.992919,107.473154 C103.102967,107.543113 103.335502,107.692612 103.25512,107.983946 L103.175694,108.271446 L102.877129,108.281029 L102.875215,108.281029 Z" id="Fill-31" fill="#06496F"></path>
                <path d="M195.085742,109.751496 C195.085742,109.751496 188.841722,80.2223708 123.724976,62.7347042 C116.838852,60.8899125 106.563254,77.0186625 104.025455,78.4283708 C32.3154067,118.249996 124.670431,120.567246 124.670431,120.567246 C124.670431,120.567246 122.872344,119.726788 123.619713,119.742121 C146.1489,120.389954 165.62067,118.087079 188.57378,107.912454 L195.085742,109.751496 Z" id="Fill-33" fill="#FFFFFF"></path>
                <path d="M122.592057,63.0126208 C118.005455,63.0126208 111.902105,70.2259958 108.148038,74.6630792 C106.333684,76.8087875 105.021722,78.3584125 104.230335,78.7982875 C84.7260287,89.6293708 75.6877512,98.5926625 77.3652632,105.439954 C80.3001914,117.416246 115.193971,119.714329 123.098278,120.082329 C122.993014,119.938579 122.999713,119.820704 123.027464,119.697079 C123.054258,119.580163 123.171962,119.321412 123.628421,119.318537 C149.104976,120.054537 167.857129,116.635204 188.402584,107.526246 L188.542297,107.463954 L194.468612,109.138162 C192.976746,104.571704 182.109761,78.8519542 123.615024,63.1429542 C123.28488,63.0547875 122.942297,63.0126208 122.592057,63.0126208 L122.592057,63.0126208 Z M124.66,120.990829 C122.83799,120.944829 79.9920574,119.708579 76.5451675,105.641204 C74.7652632,98.3779958 83.9422967,89.0974958 103.820766,78.0594125 C104.477225,77.6942875 105.880096,76.0363708 107.504019,74.1158708 C111.944211,68.8689958 118.655215,60.9474125 123.834163,62.3264542 C142.449474,67.3260792 168.019809,76.6180792 184.120287,92.4995792 C193.799713,102.047454 195.433206,109.357621 195.499234,109.663329 L195.643732,110.348537 L188.605455,108.360954 C168.323158,117.329996 149.759522,120.786704 124.845646,120.196371 L124.66,120.990829 Z" id="Fill-35" fill="#06496F"></path>
                <path d="M166.816842,85.3935375 C166.816842,85.3935375 180.013971,95.6678292 179.554641,99.2031208 C179.554641,99.2031208 182.266603,99.6813292 183.918278,100.996162 C183.918278,100.996162 180.76134,92.4047042 166.816842,85.3935375" id="Fill-37" fill="#06496F"></path>
                <path d="M179.834545,98.9824167 C180.412536,99.1050833 181.948421,99.4788333 183.264211,100.233042 C182.152249,98.0825417 178.474737,92.2606667 169.216364,86.9850417 C172.885263,90.030625 179.75512,96.1102917 179.834545,98.9824167 L179.834545,98.9824167 Z M184.505359,101.808542 L183.750335,101.207667 C182.172344,99.9532083 179.534067,99.475 179.507273,99.4702083 L179.253684,99.4251667 L179.28622,99.1683333 C179.646986,96.3939583 170.287177,88.4388333 166.650813,85.6069583 L166.937895,85.1507917 C174.182871,88.794375 178.477608,92.871125 180.803923,95.6502917 C183.336938,98.6767083 184.138852,100.812833 184.171388,100.902917 L184.505359,101.808542 Z" id="Fill-39" fill="#06496F"></path>
                <path d="M127.393589,73.897275 L132.879713,76.1599 C132.879713,76.1599 130.99933,71.0951083 130.685455,70.0265667 C130.414641,69.0998583 130.55244,73.6519417 130.55244,73.6519417 L127.393589,73.897275 Z" id="Fill-41" fill="#06496F"></path>
                <path d="M128.54488,74.0793583 L132.411866,75.6749833 C132.036746,74.6610667 131.265455,72.5613583 130.7889,71.1919 C130.784115,71.88765 130.797512,72.7942333 130.822392,73.644275 L130.830048,73.9020667 L128.54488,74.0793583 Z M133.349665,76.6467333 L127.290335,74.1474 L127.372632,73.627025 L130.275024,73.4018167 C130.168804,69.699775 130.316172,69.676775 130.576459,69.6346083 C130.694163,69.6183167 130.858756,69.653775 130.945837,69.9499 C131.252057,70.9983167 133.114258,76.0151917 133.133397,76.0659833 L133.349665,76.6467333 Z" id="Fill-43" fill="#06496F"></path>
                <path d="M16.8060287,99.3362333 C16.8060287,99.3362333 19.9849761,100.444067 24.1514833,102.060775 C30.8739713,104.657858 40.1801914,108.556358 43.0088995,111.225317 C44.7696651,112.880358 52.7897608,121.686483 58.6337799,134.1659 C61.8615311,141.045775 72.478756,148.75365 92.9380861,145.3324 C94.9151196,145.006567 104.912249,143.082233 115.243349,143.449275 C123.584019,143.749233 132.140957,145.546108 136.847177,150.885942 C136.847177,150.885942 129.460574,119.610733 120.424211,119.075983 C108.784019,118.386942 99.2079426,117.838775 94.2557895,113.819525 C72.8031579,96.414275 100.382105,80.4800667 100.382105,80.4800667 C100.382105,80.4800667 100.699809,69.64515 99.8041148,62.0886917 C98.5763636,51.478025 122.589761,62.1030667 122.589761,62.1030667 C123.319904,45.6657333 111.780191,44.4524833 103.096938,39.5439 C94.1754067,34.5069 58.801244,33.0013583 56.447177,32.4321083 C31.09311,26.3026083 15.8510048,16.2813167 12.2127273,11.7273167 C9.80698565,8.71048333 16.3390431,27.3424 16.3390431,27.3424 C15.4069856,29.2974 10.4988517,24.217275 10.4988517,24.217275 C6.57157895,25.3883583 15.0883254,44.6911083 15.0883254,44.6911083 C16.0663158,48.281025 9.07588517,41.5726917 9.07588517,41.5726917 C5.21368421,46.3509417 15.955311,59.832775 15.955311,59.832775 C16.032823,63.443775 11.9581818,58.4738583 11.0538756,58.3128583 C5.48545455,57.3161917 22.3285167,79.7316083 22.3285167,79.7316083 C26.0758852,78.0229 18.8605742,94.419025 22.6462201,94.879025 C26.4443062,95.33615 14.0691866,97.771275 16.8060287,99.3362333" id="Fill-45" fill="#FFFFFF"></path>
                <path d="M112.569187,142.923533 C113.460096,142.923533 114.357703,142.938867 115.260096,142.970492 C124.724211,143.309742 131.67445,145.440117 135.956746,149.306033 C135.247656,146.579575 133.690718,140.950325 131.573971,135.343117 C127.752919,125.220242 123.88689,119.760617 120.395981,119.553617 L120.226603,119.543075 C108.369187,118.842533 99.0026794,118.288617 93.9548325,114.191742 C88.0179904,109.375158 85.2237321,104.194408 85.6495694,98.7932417 C86.4447847,88.7154083 98.0505263,81.3257 99.9108134,80.2025333 C99.9510048,78.5005333 100.13378,68.9296583 99.3289952,62.1446583 C99.1127273,60.277825 99.6141627,58.880575 100.819904,57.9902833 C105.374928,54.62845 118.95866,60.04495 122.135694,61.3866167 C122.429474,49.0346583 115.491675,45.8846167 108.153876,42.55345 C106.387368,41.751325 104.561531,40.9223667 102.86201,39.9611583 C96.0773206,36.1307 73.409378,34.3405333 62.516555,33.47995 C59.1414354,33.2135333 56.9117703,33.0372 56.3356938,32.8982417 C32.0179904,27.0188667 16.7117703,17.5054917 12.2457416,12.506825 C12.6993301,14.8834917 14.731866,21.310075 16.7902392,27.1837 L16.8562679,27.370575 L16.7711005,27.548825 C16.5844976,27.9407833 16.2677512,28.1822833 15.8543541,28.250325 C14.2888038,28.5129083 11.4055502,25.806575 10.4017225,24.8022417 C10.3222967,24.869325 10.2409569,24.9718667 10.1682297,25.1299917 C8.8323445,28.026075 13.5825837,40.09245 15.5261244,44.49695 C15.6294737,44.8544083 15.8696651,45.736075 15.2476555,46.10695 C14.2218182,46.7183667 11.4524402,44.4720333 9.15770335,42.3100333 C6.98832536,46.3062833 13.517512,56.0046167 16.3299522,59.5341583 L16.4304306,59.6606583 L16.4342584,59.8226167 C16.4409569,60.1589917 16.4629665,61.1815333 15.7385646,61.5246167 C14.7959809,61.96545 13.4639234,60.829825 12.1758852,59.725825 C11.7404785,59.3511167 11.1433493,58.840325 10.9586603,58.7818667 C10.8438278,58.7617417 10.5395215,58.7234083 10.4648804,58.8451167 C9.56440191,60.3113667 15.8457416,70.2732417 22.502201,79.1656167 C22.9510048,79.0611583 23.2466986,79.1934083 23.4294737,79.3409917 C24.3213397,80.0626167 23.8830622,82.294575 23.0313876,86.1767833 C22.3586603,89.246325 21.5213397,93.0662417 22.2955024,94.1587417 C22.3998086,94.3053667 22.5261244,94.3820333 22.7041148,94.4031167 C23.0543541,94.4452833 23.7844976,94.53345 23.8514833,95.0950333 C23.9289952,95.7428667 23.1873684,96.0533667 20.8323445,96.9379083 C19.6275598,97.3892833 17.1490909,98.319825 16.8955024,98.8287 C16.9127273,98.8334917 16.947177,98.8612833 17.0084211,98.8986583 C17.4122488,99.0404917 20.4639234,100.115742 24.3251675,101.613617 C31.4275598,104.358283 40.4926316,108.193533 43.3376077,110.876867 C45.6160766,113.018742 53.3988517,121.859367 59.0677512,133.962158 C62.3873684,141.041367 73.2333014,148.142617 92.8591388,144.859367 L93.4955024,144.751075 C96.2333014,144.2767 104.037129,142.923533 112.569187,142.923533 L112.569187,142.923533 Z M136.487847,151.203533 C132.555789,146.740575 125.401722,144.29395 115.226603,143.928825 C105.778756,143.59245 96.6581818,145.176575 93.6591388,145.695992 L93.0160766,145.805242 C72.8591388,149.176658 61.6639234,141.751492 58.2007656,134.36945 C52.5959809,122.401783 44.9261244,113.684783 42.6821053,111.574533 C40.5500478,109.562992 33.9088995,106.34395 23.9797129,102.507742 C19.8677512,100.912117 16.6801914,99.7994917 16.6486124,99.78895 L16.5691866,99.7525333 C16.0026794,99.4286167 15.9098565,99.0395333 15.931866,98.7692833 C16.009378,97.7917833 17.7079426,97.08645 20.4964593,96.03995 C21.0964593,95.8157 21.8361722,95.5377833 22.3519617,95.3077833 C22.0132057,95.214825 21.7270813,95.0116583 21.5146411,94.7126583 C20.4964593,93.2742 21.3098565,89.5616167 22.0974163,85.9707417 C22.5500478,83.9064917 23.3079426,80.4507417 22.8285167,80.086575 L22.8285167,80.086575 C22.8256459,80.0875333 22.7443062,80.0683667 22.5270813,80.1680333 L22.1768421,80.3271167 L21.9462201,80.0194917 C19.59311,76.8876583 7.94143541,61.12595 9.64956938,58.3439083 C9.84287081,58.0276583 10.2572249,57.6855333 11.1385646,57.8417417 C11.5146411,57.908825 11.9663158,58.2844917 12.7988517,58.9974917 C13.3854545,59.501575 14.9490909,60.835575 15.3299522,60.6582833 C15.3309091,60.657325 15.4677512,60.565325 15.4773206,59.9999083 C14.2983732,58.495325 4.81320574,46.0858667 8.70411483,41.2712 L9.0323445,40.865825 L9.40746411,41.2261583 C11.6648804,43.39295 14.009378,45.1735333 14.7031579,45.2664917 C14.7031579,45.1879083 14.6897608,45.0479917 14.6266029,44.816075 C13.9184689,43.2223667 7.53952153,28.5426167 9.29933014,24.72845 C9.53090909,24.2262833 9.88880383,23.8994917 10.362488,23.7586167 L10.64,23.6752417 L10.8428708,23.8841583 C12.3031579,25.39545 14.7959809,27.4587417 15.701244,27.30445 C15.7395215,27.2987 15.7739713,27.2872 15.8055502,27.2661167 C10.3414354,11.65295 11.1500478,11.2054083 11.5404785,10.988825 C12.0199043,10.7204917 12.4476555,11.2523667 12.5864115,11.4287 C16.378756,16.175325 31.670622,25.9493667 56.5596172,31.9667417 C57.0620096,32.08845 59.502201,32.281075 62.5911962,32.5244917 C73.5529187,33.390825 96.363445,35.1915333 103.331866,39.12645 C104.995024,40.066575 106.801722,40.8869083 108.549091,41.6804083 C115.983541,45.0556583 123.671579,48.5459083 123.067751,62.1245333 L123.037129,62.825075 L122.396938,62.5414083 C122.234258,62.4695333 106.006507,55.355825 101.387368,58.7627 C100.465837,59.4431167 100.103158,60.5126167 100.279234,62.0334917 C101.169187,69.5362833 100.862967,80.385575 100.860096,80.4938667 L100.85244,80.7612417 L100.620861,80.8954083 C100.488804,80.9711167 87.4074641,88.6492833 86.6036364,98.871825 C86.2055502,103.937575 88.8811483,108.841367 94.5577033,113.447117 C99.3663158,117.34945 109.059139,117.923492 120.283062,118.586658 L120.45244,118.5972 C129.737608,119.147283 137.007464,149.485242 137.312727,150.775158 L136.487847,151.203533 Z" id="Fill-47" fill="#06496F"></path>
                <path d="M104.149569,58.4853583 C104.149569,58.4853583 89.5218182,80.0401917 108.695024,81.6684 C121.426124,82.7455667 119.957225,76.2499833 120.593589,74.8968167 C121.224211,73.546525 119.943828,64.0954417 121.567751,64.0628583 C123.18689,64.0321917 105.184976,56.5686917 104.149569,58.4853583" id="Fill-49" fill="#FFFFFF"></path>
                <path d="M105.111196,58.5934583 L105.072919,58.5934583 C104.621244,58.59825 104.515981,58.693125 104.515024,58.6940833 L104.498756,58.7228333 C104.422201,58.8359167 96.8748325,70.0925 99.9867943,76.6292917 C101.261435,79.30975 104.204019,80.8632083 108.730335,81.2475 C119.067177,82.1195833 119.65378,78.0112083 119.968612,75.80225 C120.033684,75.3460833 120.084402,74.98575 120.210718,74.7164583 C120.414545,74.281375 120.365742,72.3618333 120.322679,70.6684583 C120.233684,67.1705417 120.226986,64.7948333 120.907368,63.9725833 C118.610718,62.7047083 108.353301,58.5934583 105.111196,58.5934583 M111.349474,82.210625 C110.527464,82.210625 109.634641,82.1722917 108.659522,82.089875 C103.811675,81.6777917 100.637512,79.9633333 99.2241148,76.9925 C95.9389474,70.0886667 103.32555,58.951875 103.788708,58.2657083 C104.015502,57.847875 104.624115,56.9556667 111.672919,59.3265833 C111.780096,59.3620417 122.260478,62.9625 122.087273,64.0885417 C122.060478,64.26775 121.910239,64.4795417 121.576268,64.4852917 C121.017416,64.7862083 121.118852,68.744125 121.166699,70.6464167 C121.226986,73.0096667 121.249952,74.488375 120.975311,75.0758333 C120.902584,75.2310833 120.854737,75.5665 120.804019,75.9220417 C120.505455,78.0275 119.910239,82.210625 111.349474,82.210625" id="Fill-51" fill="#06496F"></path>
                <path d="M94.3091866,54.3674958 C94.3091866,54.3674958 87.0594258,56.6866625 82.1914833,56.5218292 C81.2115789,56.4902042 84.3704306,57.6938708 84.2517703,58.2362875 C84.1283254,58.7806208 81.3809569,62.7682458 74.8029665,65.2033708 C73.7225837,65.6125792 78.9838278,64.8478292 78.2020096,65.9441625 C78.2020096,65.9441625 77.9216268,71.9049958 70.7398086,77.4757875 C68.1589474,79.4758292 82.1761722,78.1082875 79.1589474,79.1902458 L76.78,81.4059125 C75.9742584,81.9646208 85.5675598,81.6224958 83.9713876,82.8769542 C83.9713876,82.8769542 84.0450718,83.3455792 82.9235407,84.5233708 C82.5244976,84.9383292 89.0996172,82.6287458 89.5465072,84.3815375 C89.5465072,84.3815375 93.7809569,80.5759958 99.318756,80.3737875 C103.352249,80.2377042 99.2402871,51.2768708 94.3091866,54.3674958" id="Fill-53" fill="#06496F"></path>
                <path d="M84.428134,83.1035042 C84.3879426,83.2875042 84.2903349,83.5337958 84.0826794,83.8548375 C85.9936842,83.4082542 88.642488,82.8188792 89.6472727,83.6746708 C90.8692823,82.7029208 94.6013397,80.0665458 99.3008612,79.8950042 C99.6511005,79.8835042 99.8989474,79.2787958 100.016651,78.9194208 C101.572632,74.1325458 99.0348325,57.4882125 95.7142584,54.8901708 C95.1879426,54.4780875 94.8233493,54.6112958 94.5630622,54.7732542 L94.4549282,54.8240458 C94.1831579,54.9112542 88.3056459,56.7742542 83.5621053,56.9889208 C84.3123445,57.4268792 84.8319617,57.8197958 84.7190431,58.3392125 C84.5515789,59.0780875 82.1018182,62.4178792 76.9066029,64.8434208 C77.8386603,64.8721708 78.4597129,65.0044208 78.6817225,65.4251292 C78.735311,65.5267125 78.8300478,65.7797125 78.6711962,66.0930875 C78.5888995,67.0178792 77.8195215,72.5896292 71.0329187,77.8547125 C71.0300478,77.8566292 71.027177,77.8595042 71.0243062,77.8614208 C71.8549282,78.1709625 74.7391388,78.1977958 76.3534928,78.2121708 C79.443445,78.2418792 79.9592344,78.2629625 80.057799,78.8504208 C80.1324402,79.2941292 79.6979904,79.5001708 79.4137799,79.6075042 L77.6970335,81.2060042 C78.1994258,81.2520042 78.8769378,81.2912958 79.4673684,81.3267542 C83.1879426,81.5442958 84.381244,81.7244625 84.5994258,82.4221292 C84.6453589,82.5658792 84.6711962,82.8294208 84.428134,83.1035042 L84.428134,83.1035042 Z M89.2778947,85.2655042 L89.0826794,84.5007542 C88.9917703,84.1442542 88.0635407,83.9104208 84.1563636,84.8217958 C82.9515789,85.1045042 82.6999043,85.1639208 82.4912919,84.7968792 L82.3152153,84.4854208 L82.5783732,84.1912125 C83.4415311,83.2846292 83.4932057,82.8869208 83.4941627,82.8840458 L83.4644976,82.6971708 C82.6597129,82.4738792 80.5984689,82.3531292 79.411866,82.2831708 C76.8396172,82.1327125 76.4089952,82.0934208 76.27311,81.6094625 L76.1802871,81.2807542 L76.5075598,81.0114625 L78.4357895,79.2107542 C77.8367464,79.1848792 77.0415311,79.1772125 76.3448804,79.1705042 C71.8137799,79.1283375 70.258756,78.9740458 69.9793301,78.1431708 C69.8960766,77.8949625 69.9104306,77.5135458 70.4472727,77.0966708 C77.3467943,71.7443792 77.7209569,65.9780875 77.7238278,65.9205875 L77.7266986,65.8812958 C77.2558852,65.7701292 76.1333971,65.7950458 75.6147368,65.8075042 C74.612823,65.8314625 74.2750239,65.8381708 74.1869856,65.3839208 C74.1554067,65.2238792 74.1726316,64.9296708 74.6338756,64.7552542 C80.6109091,62.5424625 83.2865072,59.0656292 83.7276555,58.2491292 C83.4960766,58.0459625 82.8941627,57.7095875 82.5841148,57.5370875 C81.7831579,57.0895458 81.4176077,56.8854208 81.5420096,56.4350042 C81.5850718,56.2816708 81.7324402,56.0267542 82.2070813,56.0430458 C86.7314833,56.1973375 93.4463158,54.1350042 94.1104306,53.9280042 C94.8223923,53.5101708 95.5984689,53.5830042 96.3037321,54.1350042 C99.9123445,56.9582542 102.5889,74.1028375 100.925742,79.2155458 C100.580287,80.2783375 100.045359,80.8284208 99.3343541,80.8523792 C94.0444019,81.0459625 89.9075598,84.7020042 89.8654545,84.7384208 L89.2778947,85.2655042 Z" id="Fill-55" fill="#06496F"></path>
                <path d="M108.398756,61.4033875 C108.398756,61.4033875 106.24756,79.7573875 120.438947,74.6743875 C120.840861,74.5315958 120.775789,65.4638458 120.775789,65.4638458 C120.775789,65.4638458 108.722201,61.9065125 108.398756,61.4033875" id="Fill-57" fill="#FFFFFF"></path>
                <path d="M120.278278,74.2230125 C120.277321,74.2230125 120.276364,74.2230125 120.275407,74.2239708 C120.276364,74.2230125 120.277321,74.2230125 120.278278,74.2230125 M108.81799,62.1355542 C108.679234,64.2937208 108.551005,71.0317625 112.06488,73.8291375 C113.94622,75.3270125 116.640957,75.4822625 120.079234,74.2929708 C120.244785,73.4113042 120.319426,69.4859708 120.298373,65.8232208 C112.898373,63.6343875 109.988325,62.6271792 108.81799,62.1355542 M115.950048,76.0428875 C114.192153,76.0428875 112.692632,75.5541375 111.467751,74.5785542 C106.861053,70.9081375 107.878278,61.7359292 107.923254,61.3478042 L108.079234,60.0195542 L108.761531,61.0823458 C109.572057,61.5663042 116.595981,63.7311792 120.910813,65.0048042 L121.251483,65.1054292 L121.254354,65.4609708 C121.322297,74.8698875 120.9711,74.9944708 120.598852,75.1257625 C118.891675,75.7371792 117.339522,76.0428875 115.950048,76.0428875" id="Fill-59" fill="#06496F"></path>
                <path d="M122.401435,60.9803792 C122.582297,62.7964208 122.589952,62.1035458 122.589952,62.1035458 C123.055024,43.7169625 108.833971,42.2852125 102.58134,39.2252542 C102.58134,39.2252542 107.456938,43.8885042 106.672249,44.7222542 C105.872249,45.5425875 102.684689,44.1089208 102.684689,44.1089208 L106.19378,48.2431708 L102.611962,49.5608792 C105.609091,50.4406292 108.996651,52.5192542 108.996651,52.5192542 C112.187081,53.1699625 122.093301,57.8226708 122.401435,60.9803792" id="Fill-61" fill="#06496F"></path>
                <path d="M109.175311,52.0671125 C111.861435,52.6526542 119.510239,56.0461125 122.052823,59.2095708 C121.204019,46.6889458 112.581053,43.5293208 106.164785,41.1785292 C105.643254,40.9868625 105.133206,40.8009458 104.642297,40.6140708 C106.81933,42.9255708 107.618373,44.4148208 107.020287,45.0511542 C106.454737,45.6319042 105.272919,45.4833625 104.2289,45.1872375 L107.002105,48.4561125 L104.049952,49.5419042 C106.450909,50.4513625 108.73512,51.8016542 109.175311,52.0671125 M122.540861,62.7132375 C122.093971,62.7132375 122.064306,62.4199875 121.92555,61.0284875 L121.924593,61.0275292 C121.655694,58.2656125 112.207847,53.6627375 108.901627,52.9880708 L108.74756,52.9276958 C108.714067,52.9066125 105.377225,50.8711125 102.476746,50.0210708 L101.084402,49.6118625 L105.385837,48.0306125 L100.949474,42.8038625 L102.880574,43.6711542 C104.18488,44.2566958 105.843254,44.6889042 106.277703,44.4282375 C106.212632,43.8168208 104.410718,41.6385292 102.250909,39.5714042 L100.021244,37.4391125 L102.791579,38.7941958 C103.826986,39.3011542 105.121722,39.7755292 106.493014,40.2786542 C113.250909,42.7540292 123.463349,46.4963208 123.069091,62.1152375 C123.063349,62.6490292 122.704498,62.7074875 122.593493,62.7113208 C122.575311,62.7122792 122.557129,62.7132375 122.540861,62.7132375" id="Fill-63" fill="#06496F"></path>
                <path d="M113.371292,63.2021792 C113.371292,63.2021792 110.998086,72.4462625 120.282297,71.5329708 C120.949282,71.4678042 119.896651,66.4049292 120.698565,65.5759708 C121.49378,64.7431792 117.304306,65.1054292 113.221053,63.5673042" id="Fill-65" fill="#06496F"></path>
                <path d="M113.502105,63.9574417 C113.310718,65.214775 113.122201,67.9134417 114.615024,69.6576083 C115.738469,70.9686083 117.611196,71.5100667 120.186316,71.2704833 C120.295407,70.993525 120.231292,69.9058167 120.183445,69.0998583 C120.073397,67.21865 120.034163,65.9354417 120.47244,65.4227333 C120.206411,65.30965 119.449474,65.203275 118.772919,65.1074417 C117.357608,64.9081083 115.452344,64.6388167 113.502105,63.9574417 M119.048517,71.867525 C116.886794,71.867525 115.260957,71.2446083 114.202584,70.0074 C112.029378,67.4678167 113.064785,63.3105667 113.109761,63.1351917 L113.633206,63.2693583 C113.632249,63.27415 113.618852,63.3259 113.599713,63.4179 C115.527943,64.1031083 117.436077,64.3724 118.848517,64.5717333 C120.261914,64.7710667 120.907847,64.8621083 121.044689,65.2569417 C121.08488,65.3738583 121.091579,65.5559417 120.89445,65.7629417 C120.550909,66.117525 120.655215,67.8933167 120.724115,69.0682333 C120.824593,70.79515 120.881053,71.746775 120.307847,71.8033167 C119.869569,71.8454833 119.449474,71.867525 119.048517,71.867525" id="Fill-67" fill="#06496F"></path>
                <path d="M23.1663158,19.8881 C23.1663158,19.8881 30.6744498,39.4045583 41.1079426,46.760725 L33.7825837,45.564725 C33.7825837,45.564725 36.9289952,53.6108917 46.0007656,60.73035 C46.6744498,61.25935 38.4514833,61.4337667 38.4514833,61.4337667 C39.8457416,63.5727667 49.4581818,70.6759333 51.3414354,70.3596833 C53.2333014,70.0472667 41.9098565,71.652475 41.9385646,72.9970167 C41.9711005,74.3501833 61.5127273,78.2621 70.5251675,76.039725 C79.5270813,73.814475 46.0036364,86.1779333 44.5873684,95.4105167 C44.5873684,95.4105167 54.9873684,99.8859333 60.0581818,111.047642 C66.8687081,126.055142 73.5002871,133.004975 88.9309091,133.707433 C111.396938,134.723267 81.2237321,140.095683 78.2533971,140.158933 C75.2725359,140.226017 52.9557895,120.131683 53.1701435,117.694642 C53.3950239,115.25185 34.4361722,101.045517 32.2524402,100.277892 C30.0782775,99.5093083 14.778756,20.1861417 22.6065072,19.7491417" id="Fill-69" fill="#06496F"></path>
                <path d="M78.2425837,140.440683 C75.74689,140.441642 62.2397129,128.707808 56.0722488,122.113517 C52.8062201,118.62135 52.8665072,117.930392 52.8894737,117.669725 C53.0837321,115.564267 34.4550239,101.350267 32.1593301,100.54335 C29.8550239,99.729725 18.2043062,38.7001833 20.392823,23.3515167 C20.7564593,20.8004333 21.4751196,19.5306417 22.5909091,19.46835 L22.6215311,20.0308917 C22.1086124,20.0596417 21.684689,20.5685167 21.3631579,21.5421833 C17.5794258,32.983725 30.2559809,98.2558083 32.3794258,100.028725 C33.4913876,100.413975 38.838756,104.210892 43.7889952,108.137183 C48.2722488,111.691642 53.5861244,116.239892 53.4502392,117.720517 C53.4358852,117.883433 53.6119617,118.658725 56.4827751,121.728267 C62.9574163,128.650308 76.1229665,139.877183 78.2349282,139.877183 L78.2473684,139.877183 C81.1,139.816808 96.8885167,136.753975 96.9066986,135.275267 C96.9076555,135.18135 96.6933014,134.340892 88.9181818,133.989183 C72.8177033,133.256058 66.2636364,125.402517 59.8023923,111.164558 C54.837799,100.236683 44.5794258,95.71335 44.4760766,95.6692667 L44.2760766,95.5830167 L44.3095694,95.3673917 C45.2655502,89.1372667 59.8856459,81.8232667 67.7401914,77.8941 C69.0253589,77.2510583 70.2636364,76.631975 71.0339713,76.2083917 C70.9057416,76.2371417 70.7593301,76.2726 70.591866,76.31285 C61.7956938,78.4853917 43.9086124,74.9683083 41.9478469,73.4685167 C41.7564593,73.3209333 41.6607656,73.1695167 41.6569378,73.003725 C41.6320574,71.8038917 47.0741627,70.749725 49.8875598,70.2878083 C48.1641148,69.5546833 45.7392344,67.8938917 44.5497608,67.0476833 C42.054067,65.269975 39.008134,62.8022667 38.2157895,61.5871 L37.9392344,61.1625583 L38.4454545,61.1520167 C41.3411483,61.0906833 44.5,60.9181833 45.5267943,60.7150167 C36.7267943,53.6875583 33.5516746,45.7477667 33.5200957,45.6672667 L33.3401914,45.2072667 L40.0138756,46.2968917 C30.1124402,38.5133083 22.977512,20.1794333 22.9038278,19.9896833 L23.4291866,19.787475 C23.5038278,19.9810583 31.0263158,39.308725 41.269378,46.530725 L41.0617225,47.0386417 L34.2464115,45.9260167 C35.0712919,47.7334333 38.5066986,54.4916 46.1746411,60.508975 C46.3258373,60.6278083 46.3411483,60.7859333 46.3047847,60.8961417 C46.2358852,61.1041 46.0923445,61.5315167 39.0129187,61.7021 C41.1181818,64.1410583 49.3038278,70.0348083 51.1631579,70.0894333 C51.3861244,70.0578083 51.5162679,70.0405583 51.5277512,70.0396 L51.7956938,70.0213917 L51.8339713,70.2878083 C51.8665072,70.5590167 51.6330144,70.59735 51.3880383,70.6376 C51.3181818,70.6500583 51.2435407,70.6538917 51.1574163,70.6491 C49.1411483,70.9241417 42.4339713,72.2121417 42.2186603,72.9989333 C42.8330144,74.0166833 61.45311,77.9880167 70.4578947,75.7656417 C71.8751196,75.4148917 72.2043062,75.4081833 72.3200957,75.7225167 C72.4684211,76.1250167 72.1851675,76.3003917 67.991866,78.3981833 C60.8645933,81.9631833 46.1248804,89.3375583 44.9028708,95.2456833 C46.3956938,95.9510167 55.6502392,100.663142 60.3143541,110.930725 C66.8272727,125.283683 73.0435407,132.702142 88.9430622,133.425683 C96.4712919,133.765892 97.4779904,134.5546 97.469378,135.281975 C97.4645933,135.691183 97.4511962,136.776017 88.5870813,138.7061 C84.3181818,139.635683 79.4464115,140.415767 78.2598086,140.440683 L78.2425837,140.440683 Z" id="Fill-71" fill="#06496F"></path>
                <path d="M122.360287,119.388208 C130.456938,123.42375 136.839713,150.714208 136.839713,150.714208 C132.141148,145.367667 123.584211,143.572708 115.237799,143.275625 C104.91244,142.906667 94.9095694,144.832917 92.9277512,145.162583 C72.4789474,148.58 61.8559809,140.868292 58.6320574,133.991292 C52.7794258,121.509 44.762201,112.70575 42.9985646,111.047833 C40.176555,108.380792 30.8684211,104.48325 24.1516746,101.880417 C19.9717703,100.2685 16.7985646,99.15875 16.7985646,99.15875 C14.0684211,97.597625 26.4416268,95.165375 22.6464115,94.6986667 C18.85311,94.2386667 20.330622,83.1957917 22.3287081,79.5522083 C22.3287081,79.5522083 5.48277512,57.1454167 11.0492823,58.135375 C11.9583732,58.2944583 16.0282297,63.2624583 15.9555024,59.6581667 C15.9555024,59.6581667 5.21004785,46.1725 9.07129187,41.39425 C9.07129187,41.39425 16.0607656,48.101625 15.0837321,44.5155417 C15.0837321,44.5155417 6.55933014,25.2118333 10.4980861,24.037875 C10.4980861,24.037875 15.407177,29.1160833 16.3363636,27.1582083 C16.3363636,27.1582083 9.8062201,8.530125 12.2129187,11.5507917 C12.2129187,11.5507917 20.8454545,19.035375 23.0196172,19.5289167 C25.1870813,20.024375 23.4119617,25.4772917 29.9296651,39.1421667 C29.9296651,39.1421667 28.0808612,41.0760833 22.8866029,38.74925 C20.8617225,37.8340417 32.5315789,56.2819583 35.2033493,57.974375 C36.8397129,59.0227917 27.6818182,60.303125 26.0119617,58.1765833 C24.3430622,56.0442917 35.4511962,69.8845417 37.5995215,69.2951667 C37.5995215,69.2951667 34.7038278,72.608125 26.2674641,70.0771667 C24.6291866,69.5884167 30.7746411,78.6437083 40.5239234,79.5186667 C44.622488,79.8809167 65.6263158,81.3395 90.5593301,68.1528333 C92.2808612,67.2452917 87.8473684,67.67175 87.8473684,67.67175 C87.8473684,67.67175 96.9,63.1925 97.7985646,59.2230833 C97.9172249,58.67875 103.760287,58.5829167 103.510526,59.4022917 C101.7,65.253875 98.8569378,77.10175 105.011005,80.4875417 C108.327751,82.31125 90.5210526,78.9810417 90.5210526,78.9810417 L93.9755981,76.1999583 C93.9755981,76.1999583 64.530622,74.034125 47.7334928,88.023875 C43.9755981,91.1537917 26.0483254,97.695375 45.9535885,105.9265 C49.7641148,107.497208 57.1794258,112.451792 61.4751196,123.463042 C62.4521531,125.980583 71.8511962,141.100208 93.5966507,134.136 C98.6971292,132.506833 122.236842,133.517875 123.350718,135.116375 C123.350718,135.116375 123.821531,131.861875 121.050239,128.670625 L120.54689,130.304583 C120.54689,130.304583 118.242584,123.861708 116.611005,123.358583 L115.58134,125.546458 C115.58134,125.546458 114.226316,118.791167 111.830144,118.482583 C111.222488,118.40975 122.360287,119.388208 122.360287,119.388208" id="Fill-73" fill="#06496F"></path>
                <path d="M98.2654545,59.3252417 L98.2644976,59.33195 L98.2654545,59.3252417 Z M112.548708,142.749117 C113.444402,142.749117 114.346794,142.76445 115.253971,142.796075 C124.725742,143.134367 131.675981,145.263783 135.951579,149.133533 C134.412823,143.169825 128.846316,123.292075 122.227177,119.857408 C119.436746,119.613033 115.715215,119.2872 113.551579,119.1032 C114.62622,120.429533 115.347751,122.652867 115.731483,124.101867 L116.355407,122.778408 L116.752536,122.900117 C118.126699,123.324658 119.684593,126.782325 120.500861,128.830283 L120.846316,127.7052 L121.410909,128.355908 C124.294163,131.674617 123.845359,135.043158 123.824306,135.184992 L123.6511,136.384825 L122.958278,135.391033 C121.606124,134.052242 98.750622,132.992325 93.7420096,134.592742 C72.7266986,141.323117 62.5917703,127.663033 61.0290909,123.636117 C56.1726316,111.18545 47.4664115,107.06845 45.7716746,106.368867 C39.5774163,103.809158 36.4654545,101.195783 36.257799,98.383075 C35.9831579,94.6618667 40.9305263,91.6948667 44.5439234,89.5290333 C45.7582775,88.8007 46.8080383,88.1720333 47.427177,87.6554917 C64.1793301,73.704075 93.7161722,75.7002833 94.0109091,75.7213667 L95.2223923,75.8104917 L91.6348325,78.6998667 C96.7381818,79.632325 102.041531,80.4440333 104.203254,80.5504083 C98.7429665,76.7669083 101.018565,65.918575 102.982201,59.4939083 C102.131483,59.179575 98.9573206,59.2322833 98.2233493,59.495825 C97.4003828,62.4580333 92.6511005,65.5381167 89.9410526,67.0867833 C91.2539713,67.11745 91.3448804,67.4231583 91.4109091,67.64645 C91.5649761,68.16395 90.996555,68.4639083 90.782201,68.5769917 C66.9324402,81.190575 46.2511005,80.506325 40.4826794,79.9964917 C32.3888995,79.270075 26.5037321,72.9872417 25.6329187,70.7227 C25.5735885,70.5684083 25.3927273,70.098825 25.6932057,69.77395 C25.7735885,69.6867417 26.0032536,69.4960333 26.4042105,69.6177417 C32.1467943,71.3398667 35.2223923,70.26845 36.5056459,69.5199917 C35.1515789,68.7916583 32.3257416,66.355575 25.8855502,58.7387417 C25.8798086,58.7320333 25.874067,58.725325 25.8692823,58.719575 C25.782201,58.64195 25.704689,58.5595333 25.6367464,58.472325 C25.4520574,58.236575 25.1735885,57.8810333 25.5400957,57.5820333 C25.8013397,57.3692833 25.9745455,57.4219917 26.2377033,57.690325 L26.2396172,57.6884083 C26.243445,57.6932 26.2482297,57.69895 26.2539713,57.7066167 C26.3429665,57.799575 26.443445,57.9155333 26.5601914,58.0535333 C27.0932057,58.4943667 28.2367464,58.7751583 29.7697608,58.834575 C31.9841148,58.9227417 34.0386603,58.535575 34.7420096,58.2202833 C32.1898565,55.9959917 21.4262201,40.078075 22.2520574,38.5409083 C22.382201,38.29845 22.6903349,38.134575 23.0836364,38.312825 C26.812823,39.9832 28.6845933,39.3459083 29.3257416,38.985575 C25.6759809,31.2432 24.6970335,26.1870333 24.1085167,23.1472 C23.7037321,21.0589917 23.5008612,20.1303667 22.9133014,19.9962 C20.8568421,19.5294917 13.9640191,13.68845 12.2204785,12.1896167 C12.6166507,14.4436167 14.6884211,21.0101167 16.7879426,26.9997 L16.8530144,27.1856167 L16.7688038,27.3638667 C16.582201,27.755825 16.2664115,27.9992417 15.8530144,28.0672833 C14.2654545,28.325075 11.4032536,25.62545 10.4013397,24.622075 C10.3209569,24.6901167 10.2377033,24.7936167 10.1640191,24.9546167 C8.82526316,27.8574083 13.5774163,39.9189917 15.5219139,44.321575 C15.6252632,44.6790333 15.8644976,45.5597417 15.2444019,45.9296583 C14.2147368,46.541075 11.4472727,44.2937833 9.15253589,42.1327417 C6.98507177,46.127075 13.5161722,55.827325 16.3295694,59.3587833 L16.4310048,59.4862417 L16.4338756,59.6482 C16.4405742,59.9836167 16.4616268,61.0032833 15.7381818,61.3463667 C14.7946411,61.7919917 13.4664115,60.6534917 12.1793301,59.5514083 C11.7410526,59.1767 11.1410526,58.662075 10.9544498,58.604575 C10.8396172,58.5854083 10.5372249,58.5451583 10.4606699,58.6687833 C9.55157895,60.151325 15.9755024,70.3048667 22.7104306,79.2633667 L22.8970335,79.511575 L22.7477512,79.7827833 C21.196555,82.6117833 19.9697608,90.3091167 21.4491866,93.196575 C21.7707177,93.8242833 22.181244,94.1597 22.7037321,94.2239083 C23.0549282,94.2670333 23.7841148,94.3552 23.8511005,94.9187 C23.9276555,95.56845 23.1841148,95.8799083 20.8195215,96.767325 C19.6185646,97.2187 17.1477512,98.14445 16.8903349,98.653325 C16.9104306,98.6600333 16.9544498,98.6954917 17.0357895,98.7414917 C17.058756,98.7414917 20.2310048,99.855075 24.3238278,101.43345 C31.4377033,104.189617 40.5075598,108.03445 43.3276555,110.699575 C45.6070813,112.843367 53.3917703,121.688783 59.0654545,133.787742 C62.3841148,140.86695 73.2243062,147.970117 92.8491866,144.689742 L93.4568421,144.584325 C96.1955981,144.108033 104.000383,142.749117 112.548708,142.749117 L112.548708,142.749117 Z M137.740096,152.463742 L136.480766,151.030075 C132.555407,146.5652 125.403254,144.117617 115.220478,143.754408 C105.752536,143.416117 96.6223923,145.00695 93.6204785,145.529242 L93.0061244,145.634658 C72.8501435,149.004158 61.6606699,141.577075 58.1984689,134.195992 C52.5898565,122.2312 44.9171292,113.509408 42.6711962,111.397242 C40.5276555,109.371325 34.0644976,106.235658 23.9793301,102.328533 C19.8558852,100.7377 16.6721531,99.6212417 16.6405742,99.6107 C15.996555,99.2522833 15.904689,98.8622417 15.9257416,98.5939083 C16.0042105,97.6202417 17.6999043,96.9149083 20.4836364,95.8693667 C21.0874641,95.6432 21.8319617,95.364325 22.350622,95.1333667 C21.796555,95.0059083 21.1085167,94.6302417 20.597512,93.633575 C18.9649761,90.4471167 20.1534928,82.846575 21.7649761,79.597825 C19.0511005,75.9743667 7.97837321,60.8863667 9.64535885,58.1666167 C9.83866029,57.851325 10.2530144,57.5053667 11.1324402,57.6634917 C11.5113876,57.7296167 11.9649761,58.1072 12.8013397,58.8240333 C13.3879426,59.3262 14.9467943,60.6602 15.3286124,60.4800333 C15.3295694,60.479075 15.4673684,60.387075 15.4778947,59.8254917 C14.2970335,58.3180333 4.80899522,45.9066583 8.69990431,41.09295 L9.02717703,40.687575 L9.40229665,41.0488667 C11.6606699,43.2147 14.0051675,44.9962417 14.6989474,45.0901583 C14.6989474,45.011575 14.6855502,44.8716583 14.6223923,44.6416583 C13.9133014,43.0489083 7.53244019,28.37395 9.29511962,24.5521167 C9.5276555,24.0480333 9.88650718,23.7202833 10.3621053,23.57845 L10.6405742,23.495075 L10.842488,23.70495 C12.3018182,25.214325 14.7630622,27.2574917 15.6979904,27.1214083 C15.7372249,27.1147 15.7716746,27.1051167 15.8032536,27.083075 C10.3420096,11.4756583 11.1496651,11.0271583 11.5400957,10.8115333 C12.0223923,10.5441583 12.4472727,11.0760333 12.5869856,11.2514083 C14.9018182,13.248575 21.4386603,18.6784917 23.1257416,19.0608667 C24.3458373,19.3407 24.5955981,20.6277417 25.0472727,22.9651167 C25.6367464,26.0068667 26.6233493,31.0984917 30.3611483,38.9357417 L30.5037321,39.2337833 L30.2750239,39.4733667 C30.1936842,39.5596167 28.2826794,41.4714917 23.2912919,39.4436583 C24.581244,42.6579083 33.2463158,56.1675333 35.458756,57.569575 C35.8788517,57.8379083 35.8960766,58.1656583 35.8683254,58.3372 C35.797512,58.7847417 35.3190431,59.1000333 34.3161722,59.3616583 C32.7458373,59.7708667 29.9295694,60.0066167 27.858756,59.5772833 C35.6759809,68.6651583 37.2262201,68.891325 37.474067,68.8328667 L38.9180861,68.49745 L37.9592344,69.6110333 C37.8367464,69.7519083 34.8903349,72.9882 26.6568421,70.6891583 C27.6664115,72.5636583 32.9496651,78.3577417 40.56689,79.0419917 C46.2223923,79.5432 66.3649761,80.2082833 89.7228708,68.0508667 C89.1831579,68.0537417 88.4989474,68.0911167 87.8932057,68.1486167 L85.2999043,68.3987417 L87.6348325,67.2420333 C87.7238278,67.19795 96.4932057,62.819325 97.3314833,59.1172833 C97.4147368,58.736825 97.8338756,58.6151167 97.9908134,58.570075 C99.0922488,58.2519083 103.047273,58.1206167 103.797512,58.8844083 C103.978373,59.06745 104.040574,59.3070333 103.968804,59.5427833 C102.010909,65.8706583 99.5726316,76.9489917 105.241531,80.0683667 C105.463541,80.190075 106.053971,80.51495 105.868325,81.035325 C105.718086,81.4617833 105.431962,82.2572 90.4329187,79.4521583 L89.4099522,79.2604917 L92.6932057,76.6174083 C86.9295694,76.4104083 62.5458373,76.3107417 48.0396172,88.3934083 C47.3630622,88.9569083 46.2845933,89.602825 45.0348325,90.3522417 C41.6357895,92.3896583 36.9802871,95.180325 37.211866,98.3121583 C37.3879426,100.695533 40.3908134,103.107658 46.1362679,105.484325 C51.227177,107.582117 58.0482297,113.360867 61.9209569,123.2892 C61.9908134,123.471283 70.428134,141.053825 93.4511005,133.67945 C97.6233493,132.347367 118.277895,132.649242 122.897033,134.335908 C122.862584,133.371825 122.592727,131.556742 121.239617,129.680325 L120.582201,131.820283 L120.097033,130.466158 C119.276938,128.171908 117.81378,124.93945 116.819522,124.038617 L115.397512,127.060242 L115.112344,125.64095 C114.612823,123.158867 113.264498,119.150158 111.769761,118.957533 L111.305646,118.898117 L111.330526,118.428533 C111.352536,118.216742 111.364976,118.098867 111.870239,118.075867 L111.881722,118.005908 C111.985072,118.019325 112.087464,118.041367 112.186986,118.072033 C112.939139,118.08545 114.372632,118.210033 117.124785,118.449617 L122.573589,118.95945 C130.777416,123.048658 137.042488,149.481408 137.305646,150.604575 L137.740096,152.463742 Z" id="Fill-75" fill="#06496F"></path>
                <path d="M88.4077512,61.8020542 C88.4077512,61.8020542 94.6125359,48.6757625 107.257512,52.3270125 C110.284306,53.2038875 120.168517,55.8421792 122.319713,61.4781375 C124.584785,67.4207625 113.770431,63.0133875 113.770431,63.0133875 C103.154163,59.8575958 104.85177,59.9582208 100.381914,59.3803458 C97.164689,58.9567625 89.9886124,60.2821375 88.4077512,61.8020542" id="Fill-77" fill="#06496F"></path>
                <path d="M98.9667943,58.8218292 C99.5141627,58.8218292 100.013684,58.8486625 100.444306,58.9052042 C103.427081,59.2914125 103.72756,59.3862875 106.604115,60.3034125 C108.06823,60.7710792 110.279713,61.4764125 113.906507,62.5535792 C116.423254,63.5761208 120.761053,64.7673292 121.876842,63.6729125 C122.247177,63.3097042 122.245263,62.6292875 121.873014,61.6489125 C119.889282,56.4528292 110.890239,53.8691625 107.502679,52.8964542 L107.124689,52.7881625 C102.060574,51.3247875 97.4548325,52.4163292 93.4337799,56.0311625 C91.6911962,57.5970792 90.4395215,59.3259125 89.6873684,60.5190375 C92.0873684,59.5290792 96.1543541,58.8218292 98.9667943,58.8218292 M120.222297,65.0577042 C117.616555,65.0577042 114.111292,63.6690792 113.589761,63.4563292 C109.998373,62.3916208 107.781148,61.6843708 106.314163,61.2176625 C103.452919,60.3043708 103.218469,60.2305792 100.320861,59.8558708 C97.0682297,59.4284542 90.1419139,60.7988708 88.7390431,62.1482042 L87.9754067,61.5971625 C88.0395215,61.4620375 94.5007656,48.1431208 107.390718,51.8672042 L107.765837,51.9745375 C111.279713,52.9836625 120.612727,55.6631625 122.765837,61.3077458 C123.288325,62.6772042 123.214641,63.7035792 122.546699,64.3571625 C122.026124,64.8669958 121.185933,65.0567458 120.222297,65.0577042" id="Fill-79" fill="#06496F"></path>
                <path d="M188.574067,107.91255 C165.282201,99.0518 113.451579,96.2908417 113.451579,96.2908417" id="Fill-81" fill="#06496F"></path>
                <path d="M188.39933,108.373892 C165.44622,99.6415583 113.942871,96.8116 113.425167,96.78285 L113.477799,95.7986417 C113.996459,95.825475 165.651962,98.6650167 188.748612,107.451017 L188.39933,108.373892 Z" id="Fill-83" fill="#06496F"></path>
                <path d="M113.451675,96.2908417 C113.451675,96.2908417 101.022967,94.0195917 103.379904,99.0441333 C103.892823,100.118425 110.254545,104.526758 110.232536,103.6863 C110.214354,102.840092 101.384689,97.9525917 113.451675,96.2908417" id="Fill-85" fill="#06496F"></path>
                <path d="M107.998756,96.3423042 C106.074354,96.3423042 104.392057,96.5991375 103.831292,97.3284292 C103.733684,97.4549292 103.437033,97.8401792 103.889665,98.8042625 C104.110718,99.2633042 106.045646,100.755429 107.722201,101.881471 C106.920287,100.974887 106.285837,99.9015542 106.631292,98.7975542 C106.952823,97.7683042 108.034163,96.9910958 109.971962,96.4199292 C109.308804,96.3700958 108.640861,96.3423042 107.998756,96.3423042 M110.163349,104.348221 C108.749952,104.348221 103.329856,100.245596 102.87244,99.2872625 C102.256172,97.9733875 102.568134,97.1223875 102.939426,96.6413042 C104.802584,94.2176792 112.662871,95.5737208 113.552823,95.7366375 L113.527943,96.8492625 C108.883923,97.4884708 107.886794,98.5560542 107.704976,99.1339292 C107.393014,100.132512 108.876268,101.500054 109.762392,102.317512 C110.444689,102.947137 110.786316,103.262429 110.794928,103.673554 C110.803541,103.992679 110.599713,104.259096 110.288708,104.334804 C110.251388,104.343429 110.209282,104.348221 110.163349,104.348221" id="Fill-87" fill="#06496F"></path>
                <path d="M94.3338756,69.3526667 C94.3338756,69.3526667 90.5568421,73.20325 85.6879426,73.0355417 C84.7061244,72.9972083 84.8314833,72.4538333 84.7061244,72.9972083 C84.5845933,73.5415417 88.0726316,71.369 81.496555,73.8108333 C80.4133014,74.2133333 83.0343541,74.5132917 82.2467943,75.6115417 C82.2467943,75.6115417 77.9214354,71.9047083 70.7396172,77.4764583 C68.158756,79.4755417 82.1759809,78.1089583 79.158756,79.1909167 L76.7798086,81.405625 C75.974067,81.9643333 85.5673684,81.6231667 83.9711962,82.8766667 C83.9711962,82.8766667 84.0448804,83.34625 82.9233493,84.5230833 C82.5243062,84.939 89.0994258,82.6294167 89.5463158,84.3822083 C89.5463158,84.3822083 93.7807656,80.5757083 99.3185646,80.3735 C103.352057,80.2374167 99.6525359,66.815 94.7204785,69.90275" id="Fill-89" fill="#06496F"></path>
                <path d="M84.428134,83.1035042 C84.3879426,83.2875042 84.2903349,83.5337958 84.0826794,83.8548375 C85.9936842,83.4082542 88.642488,82.8188792 89.6472727,83.6746708 C90.8692823,82.7029208 94.6013397,80.0665458 99.3008612,79.8950042 C99.489378,79.8882958 100.058756,79.8691292 100.367847,78.9184625 C101.053014,76.8149208 99.8185646,72.1765875 97.6654545,70.4918375 C96.7726316,69.7922542 95.8932057,69.7328375 94.9745455,70.3087958 L94.6204785,69.7433792 C94.1133014,70.2397958 90.442488,73.6993792 85.6721531,73.5144208 C85.5056459,73.5077125 85.3630622,73.4885458 85.2396172,73.4626708 C84.997512,73.5632958 84.7295694,73.6121708 84.5190431,73.5048375 L84.2501435,73.3687542 C83.7621053,73.5163375 83.0721531,73.7444208 82.1008612,74.0990042 C82.4233493,74.3079208 82.7688038,74.5877542 82.8558852,75.0161292 C82.8970335,75.2173792 82.8922488,75.5336292 82.6357895,75.8910875 L82.3314833,76.3156292 L81.9362679,75.9763792 C81.7716746,75.8374208 77.7898565,72.6126292 71.0329187,77.8547125 C71.0300478,77.8566292 71.027177,77.8595042 71.0243062,77.8614208 C71.8549282,78.1709625 74.7391388,78.1977958 76.3534928,78.2121708 C79.443445,78.2418792 79.9592344,78.2629625 80.057799,78.8504208 C80.1324402,79.2941292 79.6979904,79.5001708 79.4137799,79.6075042 L77.6970335,81.2060042 C78.1994258,81.2520042 78.8769378,81.2912958 79.4673684,81.3267542 C83.1879426,81.5442958 84.381244,81.7244625 84.5994258,82.4221292 C84.6453589,82.5658792 84.6711962,82.8294208 84.428134,83.1035042 L84.428134,83.1035042 Z M89.2778947,85.2655042 L89.0826794,84.5007542 C88.9917703,84.1442542 88.0635407,83.9104208 84.1563636,84.8217958 C82.9515789,85.1045042 82.6999043,85.1639208 82.4912919,84.7968792 L82.3152153,84.4854208 L82.5783732,84.1912125 C83.4415311,83.2846292 83.4932057,82.8869208 83.4941627,82.8840458 L83.4644976,82.6971708 C82.6597129,82.4738792 80.5984689,82.3521708 79.411866,82.2831708 C76.8396172,82.1327125 76.4089952,82.0934208 76.27311,81.6094625 L76.1802871,81.2807542 L76.5075598,81.0114625 L78.4357895,79.2107542 C77.8367464,79.1848792 77.0415311,79.1772125 76.3448804,79.1705042 C71.8137799,79.1283375 70.258756,78.9740458 69.9793301,78.1431708 C69.8960766,77.8949625 69.9104306,77.5135458 70.4472727,77.0966708 C75.2635407,73.3601292 78.8597129,73.6351708 80.8377033,74.3270875 C80.7745455,74.2245458 80.7400957,74.1057125 80.7544498,73.9648375 C80.7927273,73.5613792 81.197512,73.4109208 81.3305263,73.3620458 C85.5123445,71.8085875 85.6874641,72.0644625 85.9104306,72.3874208 L86.0300478,72.5618375 C90.4788517,72.5445875 93.9573206,69.0533792 93.9927273,69.0169625 L94.4750239,69.4913375 C95.7209569,68.7150875 97.0625837,68.8042125 98.2549282,69.7366708 C100.762105,71.6993375 102.083636,76.7392125 101.277895,79.2145875 C100.94488,80.2400042 100.254928,80.8217125 99.3343541,80.8523792 C94.0444019,81.0459625 89.9075598,84.7020042 89.8654545,84.7384208 L89.2778947,85.2655042 Z" id="Fill-91" fill="#06496F"></path>
            </g>
        </g>
    </g>
</svg>