<?xml version="1.0" encoding="UTF-8"?>
<svg width="200px" height="200px" viewBox="0 0 200 200" version="1.1" xmlns="http://www.w3.org/2000/svg" xmlns:xlink="http://www.w3.org/1999/xlink">
    <!-- Generator: Sketch 54.1 (76490) - https://sketchapp.com -->
    <title>west-florida</title>
    <desc>Created with Sketch.</desc>
    <g id="west-florida" stroke="none" stroke-width="1" fill="none" fill-rule="evenodd">
        <g id="west-florida_BGL">
            <g id="west-florida" transform="translate(0.000000, 2.000000)">
                <g id="g10" transform="translate(100.091322, 97.786304) scale(-1, 1) rotate(-180.000000) translate(-100.091322, -97.786304) translate(0.182648, 0.252060)" fill-rule="nonzero">
                    <g id="g12" transform="translate(0.328767, 0.000000)">
                        <path d="M53.0469393,20.1428305 L56.3086744,20.1428305 L56.3086744,18.7437073 L53.0469393,18.7437073 L53.0469393,20.1428305 Z M51.2449302,14.1018809 L53.0469393,14.1018809 L53.0469393,17.1225566 L56.3086744,17.1225566 L56.3086744,14.1018809 L58.1231036,14.1018809 L58.1231036,21.7651136 L51.2449302,21.7651136 L51.2449302,14.1018809 L51.2449302,14.1018809 Z" id="path14" fill="#FFFFFF"></path>
                        <path d="M68.1855691,18.7437073 L64.9260258,18.7437073 L64.9260258,20.1428305 L68.1855691,20.1428305 L68.1855691,18.7437073 Z M68.3704092,17.9316525 C69.6938795,18.0552324 70.0014594,18.8964014 70.0014594,19.9357803 C70.0014594,20.9738808 69.449496,21.7538625 68.1855691,21.7538625 L63.1236514,21.7538625 L63.1236514,14.0910316 L64.9260258,14.0910316 L64.9260258,17.1113055 L68.1855691,17.1113055 L68.1855691,14.1018809 L70.0014594,14.1018809 C70.0014594,14.5975887 70.0127836,15.0998718 70.0127836,15.5923284 C70.0127836,16.6853694 69.9152494,17.7990863 68.3704092,17.9316525 L68.3704092,17.9316525 Z" id="path16" fill="#FFFFFF"></path>
                        <path d="M75.0020073,20.1428305 C75.0020073,19.1595246 74.9771671,18.1643831 74.9771671,17.1667941 C74.9771671,15.9196708 74.744473,14.2224654 76.6816419,14.1018809 C77.0732401,14.0803284 77.4790848,14.0803284 77.8714136,14.0803284 C78.5943359,14.0803284 79.3315049,14.1018809 80.0657514,14.1018809 C81.1210939,14.1018809 81.8798153,14.7825384 81.8798153,15.7121823 L81.8798153,16.5975886 C81.8798153,18.1421365 81.3044729,18.6673968 79.5758884,18.6673968 C79.2083998,18.6673968 78.8390848,18.6556708 78.483651,18.6556708 L78.483651,17.1553968 L80.0657514,17.1553968 L80.0657514,15.7121823 L76.8043816,15.7121823 L76.8043816,20.1428305 L81.8798153,20.1428305 L81.8798153,21.7651136 L76.8043816,21.7651136 C75.7629205,21.7651136 75.0020073,21.0846022 75.0020073,20.1428305" id="path18" fill="#FFFFFF"></path>
                        <path d="M91.9448379,15.7121823 L88.6838334,15.7121823 L88.6838334,20.1428305 L91.9448379,20.1428305 L91.9448379,15.7121823 Z M92.0683082,21.7538625 C91.6756141,21.7756707 91.2825548,21.7859721 90.890226,21.7859721 C90.1548836,21.7859721 89.4184453,21.7651136 88.6838334,21.7651136 C87.6292216,21.7651136 86.8818243,21.0846022 86.8818243,20.1428305 C86.8818243,19.1595246 86.8573494,18.1643831 86.8573494,17.1667941 C86.8573494,15.9091138 86.6126006,14.2322919 88.5610937,14.1018809 C88.9537877,14.0803284 89.3570754,14.0803284 89.7497694,14.0803284 C90.4734224,14.0803284 91.2087648,14.1018809 91.9448379,14.1018809 C92.9987191,14.1018809 93.7599977,14.7825384 93.7599977,15.7121823 C93.7599977,16.7071777 93.7844725,17.7004927 93.7844725,18.6893511 C93.7844725,19.9573328 94.0168013,21.6219903 92.0683082,21.7538625 L92.0683082,21.7538625 Z" id="path20" fill="#FFFFFF"></path>
                        <polyline id="path22" fill="#FFFFFF" points="104.610043 15.7016252 101.83744 21.7651136 98.9804541 21.7651136 98.9804541 14.1018809 100.78502 14.1018809 100.78502 20.1648214 103.568217 14.1018809 106.42228 14.1018809 106.42228 21.7651136 104.610043 21.7651136 104.610043 15.7016252"></polyline>
                        <path d="M113.226664,20.1428305 L116.486938,20.1428305 L116.486938,18.7437073 L113.226664,18.7437073 L113.226664,20.1428305 Z M111.425751,14.1018809 L113.226664,14.1018809 L113.226664,17.1225566 L116.486938,17.1225566 L116.486938,14.1018809 L118.302828,14.1018809 L118.302828,21.7651136 L111.425751,21.7651136 L111.425751,14.1018809 L111.425751,14.1018809 Z" id="path24" fill="#FFFFFF"></path>
                        <path d="M128.368581,15.7121823 L125.107211,15.7121823 L125.107211,21.7651136 L123.303011,21.7651136 L123.303011,15.7121823 C123.303011,14.1125841 124.812417,14.0803284 126.172417,14.0803284 C126.895339,14.0803284 127.629951,14.1018809 128.368581,14.1018809 C129.421732,14.1018809 130.180819,14.7825384 130.180819,15.7121823 L130.180819,21.7651136 L128.368581,21.7651136 L128.368581,15.7121823" id="path26" fill="#FFFFFF"></path>
                        <polyline id="path28" fill="#FFFFFF" points="134.850408 20.1428305 137.389586 20.1428305 137.389586 14.1018809 139.205476 14.1018809 139.205476 20.1428305 141.741001 20.1428305 141.741001 21.7651136 134.850408 21.7651136 134.850408 20.1428305"></polyline>
                        <path d="M146.425202,20.1428305 L146.411321,19.2146114 C146.387942,17.2646936 147.355978,17.1225566 149.27817,17.1225566 C150.0168,17.1225566 150.752142,17.1441092 151.486389,17.1441092 L151.486389,15.7121823 L146.425202,15.7121823 L146.425202,14.1018809 L151.486389,14.1018809 C152.54027,14.1018809 153.302279,14.7825384 153.302279,15.7121823 L153.302279,16.6418261 C153.302279,18.6023009 152.356161,18.7437073 150.446024,18.7437073 C149.710681,18.7437073 148.960727,18.7214607 148.225019,18.7214607 L148.225019,20.1428305 L153.302279,20.1428305 L153.302279,21.7651136 L148.225019,21.7651136 C147.185019,21.7651136 146.438718,21.0846022 146.425202,20.1428305" id="path30" fill="#FFFFFF"></path>
                        <polyline id="path32" fill="#FFFFFF" points="155.356708 93.2343356 137.017348 93.2343356 137.017713 89.7384452 138.215887 90.934427 138.215887 92.0354315 153.670498 92.0354315 155.356708 93.2343356"></polyline>
                        <polyline id="path34" fill="#FFFFFF" points="145.101366 90.8949749 143.902462 89.7358882 143.902462 81.2975322 142.850042 80.5490391 145.231047 78.856619 142.850042 77.1638337 143.902462 76.4157059 143.902462 64.4781719 145.10027 64.4781719 145.101366 77.293514 147.301184 78.8584455 145.101366 80.4200893 145.101366 90.8949749"></polyline>
                        <polyline id="path36" fill="#FFFFFF" points="115.162006 72.5147014 113.963102 72.9041078 113.963102 65.6021901 114.97534 64.4781719 116.612235 64.4781719 115.162006 66.0628294 115.162006 72.5147014"></polyline>
                        <polyline id="path38" fill="#FFFFFF" points="115.162006 91.6635594 115.507577 92.0482169 127.193421 92.0482169 128.878536 93.247121 114.974609 93.247121 113.962737 92.123468 113.962737 81.1912308 125.44365 75.3793588 125.44365 68.9599983 123.740636 67.5156148 125.593056 67.5156148 126.642189 68.4051124 126.642189 76.1157972 115.162006 81.9280345 115.162006 91.6635594"></polyline>
                        <polyline id="path40" fill="#FFFFFF" points="123.55397 90.3678516 125.44365 88.7660252 125.44365 86.2659339 126.641458 85.8754316 126.642189 89.3216416 125.407485 90.3678516 123.55397 90.3678516"></polyline>
                        <polyline id="path42" fill="#FFFFFF" points="57.7603639 92.3952488 59.2825556 93.4772579 54.8193594 93.4772579 54.8193594 81.4809112 53.532784 80.5673039 55.9167109 78.8726921 53.532784 77.1780803 54.8193594 76.2633771 54.8193594 65.4695874 55.899542 64.2695874 57.4611858 64.2695874 56.0365283 65.8491308 56.0365283 77.5726008 57.8655693 78.8726921 56.0365283 80.1724181 56.0365283 92.3952488 57.7603639 92.3952488"></polyline>
                        <polyline id="path44" fill="#FFFFFF" points="79.0210026 68.8642905 79.0210026 92.3952488 80.7448382 92.3952488 82.2670299 93.4772579 77.8038337 93.4772579 77.8038337 69.2438339 76.350683 67.6295874 77.9094044 67.6295874 79.0210026 68.8642905"></polyline>
                        <polyline id="path46" fill="#FFFFFF" points="66.3126924 69.2438339 64.8595418 67.6295874 66.4182632 67.6295874 67.5302266 68.8642905 67.5302266 92.3952488 69.2540622 92.3952488 70.7758886 93.4772579 66.3126924 93.4772579 66.3126924 69.2438339"></polyline>
                        <polyline id="path48" fill="#FFFFFF" points="97.2697693 79.7512309 102.197623 79.7512309 103.719449 80.83324 97.2697693 80.83324 97.2697693 79.7512309"></polyline>
                        <polyline id="path50" fill="#FFFFFF" points="92.0712306 92.3941529 104.583011 92.3941529 106.104107 93.4765273 90.8536964 93.476162 90.8536964 81.4820071 89.567121 80.5673039 91.9510479 78.8726921 89.567121 77.1780803 90.8536964 76.2633771 90.8536964 64.2695874 92.0712306 64.2695874 92.0712306 77.5726008 93.9002716 78.8726921 92.0712306 80.1724181 92.0712306 92.3941529"></polyline>
                        <polyline id="path52" fill="#FFFFFF" points="97.2697693 67.10977 104.583011 67.10977 106.104107 68.1917791 97.2697693 68.1917791 97.2697693 67.10977"></polyline>
                        <path d="M100.069769,158.72511 C99.172235,159.141549 98.7441071,159.941914 98.5453857,160.506297 C98.0610021,160.417165 97.5974405,160.326937 97.1718697,160.240727 C97.7979884,159.569311 98.778445,158.676891 100.065751,158.076343 C101.597075,158.096069 103.05607,158.769311 103.923285,159.250042 C103.05534,159.409311 102.315249,159.576617 101.681093,159.746845 C101.111961,159.072873 100.069769,158.72511 100.069769,158.72511" id="path54" fill="#FFFFFF"></path>
                        <path d="M114.10776,160.410955 C114.05333,160.153055 113.839632,159.418809 113.120362,159.089676 C113.120362,159.089676 112.753604,159.214608 112.431413,159.452781 C112.085842,159.324197 111.803833,159.266845 111.59671,159.250042 C111.997075,158.957074 112.667029,158.611503 113.699723,158.416434 C114.378445,158.874882 114.926755,159.590498 115.293513,160.108124 C114.972052,160.201275 114.584837,160.310498 114.10776,160.410955" id="path56" fill="#FFFFFF"></path>
                        <path d="M121.932052,106.824472 C115.491139,106.536253 68.0109572,105.416984 54.2356151,105.097349 C54.2359804,105.096984 54.2359804,105.096984 54.2359804,105.096618 L56.7729666,102.216618 L159.665019,102.216618 C148.131503,104.836527 131.86301,106.874518 123.65333,106.862098 C123.027942,106.862098 122.4526,106.847486 121.932052,106.824472" id="path58" fill="#FFFFFF"></path>
                        <polyline id="path60" fill="#FFFFFF" points="68.2564366 34.2451498 60.3174414 34.2451498 60.3174414 33.2731316 66.8891307 33.2731316 68.2564366 34.2451498"></polyline>
                        <polyline id="path62" fill="#FFFFFF" points="54.5519621 41.4988117 54.5519621 30.720328 55.646026 30.720328 55.646026 42.6750674 57.2894963 43.8436519 55.646026 45.0115057 55.646026 55.9941539 57.2003639 55.9941539 58.5676698 56.9665739 54.5519621 56.9665739 54.5519621 46.1881267 53.3957978 45.3662089 55.5378982 43.8436519 53.3957978 42.3207295 54.5519621 41.4988117"></polyline>
                        <polyline id="path64" fill="#FFFFFF" points="83.6317787 54.172784 85.3278517 52.7346106 85.3278517 34.9373507 83.7979888 33.6391224 85.462281 33.6391224 86.4047467 34.4383553 86.4047467 53.2339713 85.2975321 54.172784 83.6317787 54.172784"></polyline>
                        <polyline id="path66" fill="#FFFFFF" points="75.0111397 41.6368939 75.0111397 31.9192321 75.9203634 30.9092595 77.3855688 30.9092595 76.0883999 32.3327481 76.0883999 42.425935 78.0683086 43.8315971 76.0880346 45.235798 76.0880346 55.3384461 76.3996328 55.6843822 86.9015503 55.6843822 88.414975 56.7616424 75.9203634 56.7616424 75.0111397 55.7519621 75.0111397 46.0237431 74.065021 45.3512317 76.2052949 43.8305012 74.065021 42.30904 75.0111397 41.6368939"></polyline>
                        <polyline id="path68" fill="#FFFFFF" points="111.199267 56.748857 97.5086734 56.7499529 97.5086734 46.0233778 96.5625547 45.351597 98.7028286 43.8297706 96.5625547 42.30904 97.5086734 41.6365286 97.5086734 30.9092595 98.5859336 30.9092595 98.5859336 42.4255697 100.564016 43.82904 98.5859336 45.2350674 98.5859336 55.6726927 109.684016 55.6719621 111.199267 56.748857"></polyline>
                        <polyline id="path70" fill="#FFFFFF" points="109.033422 52.1563457 108.145751 52.9088571 106.479997 52.9088571 107.956527 51.656985 107.956527 46.8796335 105.399815 44.7108665 103.280728 44.7108665 103.280728 43.7307752 105.913057 43.7307752 105.91123 43.7322363 109.033422 46.3810034 109.033422 52.1563457"></polyline>
                        <polyline id="path72" fill="#FFFFFF" points="106.486938 41.8312318 107.949952 40.5906839 107.949952 30.9092595 109.027212 30.9092595 109.027212 41.0896793 108.153057 41.8312318 106.486938 41.8312318"></polyline>
                        <polyline id="path74" fill="#FFFFFF" points="142.011321 52.9084918 143.48785 51.6562544 143.48785 36.0037251 140.931138 33.8341909 138.812051 33.8341909 138.812051 32.8544649 141.444745 32.8544649 141.442919 32.8558896 144.565476 35.5049854 144.565476 52.1552498 143.677439 52.9084918 142.011321 52.9084918"></polyline>
                        <polyline id="path76" fill="#FFFFFF" points="133.040362 41.635798 133.040362 30.9085289 134.117257 30.9085289 134.117257 42.4248391 136.094974 43.8283094 134.117257 45.2343368 134.117257 55.6719621 145.215339 55.6712315 146.73059 56.7484917 133.040362 56.7495876 133.040362 46.0230125 132.094243 45.3508664 134.234152 43.8294053 132.094243 42.3083094 133.040362 41.635798"></polyline>
                        <polyline id="path78" fill="#FFFFFF" points="123.343193 55.9941539 124.710499 56.9665739 120.694792 56.9665739 120.694792 46.1881267 119.538627 45.3662089 121.680728 43.8436519 119.538627 42.3207295 120.694792 41.4988117 120.694792 30.720328 121.789221 30.720328 121.789221 42.6750674 123.432326 43.8436519 121.789221 45.0115057 121.789221 55.9941539 123.343193 55.9941539"></polyline>
                        <polyline id="path80" fill="#FFFFFF" points="46.4281267 69.0933316 26.7268669 69.0929663 26.7268669 53.5974416 25.0645108 52.4157065 28.1449856 50.2268481 25.0645108 48.0387203 26.7268669 46.8558892 26.7268669 31.3607298 28.2996523 31.3607298 28.2996523 32.75799 28.2996523 48.5468481 30.6632321 50.2268481 28.2996523 51.9061174 28.2996523 67.6957061 34.8691498 67.6957061 44.4613688 67.6957061 46.4281267 69.0933316"></polyline>
                        <polyline id="path82" fill="#FFFFFF" points="35.0154146 51.3621905 41.3811862 51.3621905 43.3494053 52.7583548 35.0154146 52.7583548 35.0154146 51.3621905"></polyline>
                        <polyline id="path84" fill="#FFFFFF" points="172.065019 31.7454239 173.394334 31.7454239 173.394334 46.2429212 172.065019 46.2429212 172.065019 31.7454239"></polyline>
                        <polyline id="path86" fill="#FFFFFF" points="169.793238 64.8230121 172.04164 62.9143363 172.04164 51.383743 165.354882 51.383743 165.354882 50.1932408 173.396891 50.1950672 173.396891 63.5181719 171.848032 64.8230121 169.793238 64.8230121"></polyline>
                        <path d="M161.151777,50.2250216 L158.388672,52.1914142 L158.397074,66.8946102 L158.845293,67.3760714 L174.412416,67.3753408 L176.281639,68.7050211 L158.049676,68.7064823 L157.060087,67.5981718 L157.060087,53.3263914 L155.780087,52.4153412 L158.855886,50.2264828 L155.780087,48.0379897 L157.060087,47.1265742 L157.060087,38.8529671 C157.106115,38.8573506 157.151777,38.8584465 157.197804,38.8620995 C157.371686,38.8759808 157.545567,38.8891314 157.718352,38.8968027 C157.728215,38.897168 157.737713,38.897168 157.747941,38.8978986 C157.962736,38.9066657 158.175704,38.9114146 158.388672,38.9121451 L158.388672,38.9139716 L158.388672,48.2619166 L161.151777,50.2250216" id="path88" fill="#FFFFFF"></path>
                        <path d="M166.58374,101.249678 C167.479083,99.5430112 168.155247,97.8487647 168.771503,95.9393583 L166.986297,95.4374405 C166.561457,96.7305912 166.059539,98.0047464 165.470681,99.2599062 L164.930042,100.389039 L161.387759,98.7280341 L161.387393,88.1987193 L161.513055,87.1850207 L170.30648,88.2465731 C170.383557,87.271596 170.422279,86.2966188 170.422279,85.33187 C170.422279,83.3336965 170.248032,81.3643815 169.919996,79.453514 L168.105567,79.839998 C168.33753,81.1810025 168.482188,82.5424637 168.54027,83.9221897 L168.597987,85.1773495 L161.571138,85.495523 L161.523284,84.2312308 C161.397622,81.4516875 160.828124,78.7682172 159.872507,76.2491305 L159.538261,75.3888566 L165.664653,75.3884913 L162.642553,76.5388109 C163.308489,78.5654775 163.75269,80.6893131 163.945567,82.8705002 L165.953603,82.7835596 C165.846936,81.5386281 165.663923,80.3221898 165.412599,79.1258428 L165.152142,77.8900437 L171.879448,76.4708657 L172.14027,77.6968017 C172.661548,80.1676692 172.941366,82.7258427 172.941366,85.33187 C172.941366,86.8083997 172.854425,88.2947923 172.671046,89.8005457 L172.516525,91.0454772 L163.675247,89.974427 C163.32785,92.0880342 162.738991,94.172783 161.889676,96.1903172 L163.704105,97.0396323 C164.187028,95.8907739 164.592507,94.732783 164.930042,93.5455684 L165.268306,92.3389931 L171.898808,94.2111392 L171.551777,95.4177145 C170.929311,97.6321437 170.08511,99.808582 169.027576,101.919267 L166.58374,101.249678" id="path90" fill="#26B481"></path>
                        <path d="M113.957623,115.16639 C111.737349,113.536436 109.675979,111.636162 107.825385,109.475066 C109.059723,109.499906 110.219175,109.523285 111.299358,109.544837 C112.300271,110.565111 113.352691,111.514518 114.449678,112.386116 L115.550317,110.890226 C115.037075,110.479632 114.536983,110.045659 114.043833,109.599997 C115.762189,109.634335 117.145568,109.661732 118.100819,109.680363 L119.044015,110.378445 L114.961458,115.918901 L113.957623,115.16639" id="path92" fill="#26B481"></path>
                        <path d="M141.746115,112.897897 L142.073786,114.866846 C143.299722,114.615888 144.486937,114.287486 145.645658,113.891869 L146.832873,113.486755 L149.062279,120.001823 L147.865202,120.406938 C144.120179,121.690956 140.095339,122.38575 135.915978,122.38575 L134.661184,122.38575 L134.661184,113.477257 C132.557074,113.380454 130.452965,113.052417 128.377714,112.473422 L127.750134,114.384289 C128.947577,114.722189 130.163284,114.973148 131.36986,115.16639 L132.615157,115.349404 L131.572234,122.154517 L130.327668,121.96091 C126.418262,121.372417 122.528947,120.127486 118.822645,118.196892 L117.702645,117.617897 L121.824289,109.722372 C121.798353,109.70776 121.773878,109.691321 121.748307,109.676344 C122.685294,109.651504 123.688764,109.610956 124.740454,109.557623 L121.110134,116.52712 C123.822097,117.820271 126.640362,118.728034 129.46849,119.268308 L129.748673,117.434518 C128.4168,117.173696 127.084563,116.836161 125.771686,116.401824 L124.574609,116.006207 L126.71744,109.445842 C126.827759,109.438901 126.939906,109.43123 127.05059,109.42429 L127.952874,109.722372 C130.559266,110.581184 133.242736,110.987029 135.896618,110.987029 L137.180636,110.967668 L137.180636,119.847303 C140.182645,119.741367 143.096983,119.248947 145.857531,118.409495 L145.259174,116.652782 C143.956161,117.048034 142.614791,117.357075 141.253695,117.579175 L140.017896,117.781915 L138.859905,110.851504 L140.105202,110.648764 C142.855887,110.195066 145.452051,109.30776 147.836709,108.0526 L148.94648,107.464107 L153.067759,115.310682 C155.683284,113.814426 158.028854,112.019358 160.084745,110.002554 L158.74301,108.728399 C157.768033,109.674153 156.725841,110.572052 155.616069,111.401641 L154.621731,112.164381 L150.547941,106.78502 C152.099357,106.537349 153.604014,106.279449 155.033055,106.012052 C154.657896,106.359084 154.27543,106.700637 153.878718,107.029404 L155.094791,108.622098 C156.050042,107.830865 156.957804,106.991048 157.797256,106.103011 L158.549402,105.300089 C158.610407,105.286938 158.674334,105.273787 158.734973,105.260271 L163.655886,109.925111 L162.797074,110.832143 C160.065384,113.708856 156.832142,116.199084 153.135704,118.13881 L152.015339,118.718171 L147.875065,110.832143 C145.944471,111.749404 143.898444,112.444563 141.746115,112.897897" id="path94" fill="#26B481"></path>
                        <path d="M162.009128,104.459175 L168.659357,102.639632 C167.985749,103.912691 167.235064,105.160545 166.397073,106.372965 L165.682918,107.415522 L161.565293,104.575705 C161.712507,104.536984 161.865567,104.498262 162.009128,104.459175" id="path96" fill="#26B481"></path>
                        <path d="M8.75528745,99.2832852 C7.91083085,99.2832852 7.13026466,99.5528742 6.49530577,100.014975 C7.19875781,99.0535135 8.3296071,98.4255683 9.61315044,98.4255683 C11.1645294,98.4255683 12.498849,99.3446551 13.1086024,100.66776 C12.8862828,101.270134 12.6947942,101.852783 12.5338079,102.390865 C12.1870682,100.619176 10.626155,99.2832852 8.75528745,99.2832852" id="path98" fill="#26B481"></path>
                        <path d="M103.793239,187.607301 C105.514153,186.845657 106.530408,184.279813 106.370408,182.170589 C106.370408,182.170589 107.101002,185.105384 108.536618,185.916708 C108.536618,185.916708 107.768034,183.69132 108.500819,181.349037 C110.006938,185.002005 111.852783,187.373877 111.852783,187.373877 C108.974609,188.66447 103.826847,189.324196 100.56365,188.402552 C100.56365,188.402552 102.510682,185.962004 103.796892,181.644562 C105.111961,183.86374 104.897897,185.60584 103.793239,187.607301" id="path100" fill="#26B481"></path>
                        <path d="M82.1318701,163.217895 C82.7232856,173.307393 90.5621895,181.203648 100.428125,181.255521 C99.3220066,183.432324 98.0230112,185.13132 97.5517784,185.718352 C96.2487647,185.551411 94.9943355,185.238717 93.7976232,184.803648 C94.3532397,183.130954 93.903194,181.109767 93.903194,181.109767 C93.3059337,182.329493 92.5921438,183.336982 91.970774,184.022644 C91.4231941,183.749767 90.8916872,183.448763 90.3773493,183.121822 C91.1696781,181.630315 91.1897694,179.736982 91.1897694,179.736982 C90.3989018,180.723283 89.5649293,181.486023 88.8478517,182.028123 C87.1024636,180.639265 85.6142444,178.924196 84.4599066,176.965475 C85.2175321,176.163283 85.6642901,175.220452 85.6642901,175.220452 C85.0210024,175.547393 84.3985367,175.738808 83.8473038,175.848397 C83.5265733,175.209493 83.2431029,174.54648 82.9928746,173.865932 C83.6500436,173.412964 84.0942445,172.947941 84.0942445,172.947941 C83.5937879,173.022096 83.1273039,173.03269 82.7002719,173.00858 C82.0438336,170.926023 81.7172582,168.680909 81.7928747,166.336434 C81.826482,165.274151 81.9441075,164.233421 82.1318701,163.217895" id="path102" fill="#26B481"></path>
                        <path d="M43.3282181,116.965111 C42.9545195,117.050956 41.8213688,117.113056 41.8213688,117.113056 L41.8213688,111.608399 C42.3083094,111.765111 42.8113231,111.88639 43.3282181,111.965659 L43.3282181,116.965111" id="path104" fill="#26B481"></path>
                        <path d="M41.8213688,87.4359795 C41.8213688,87.4359795 42.9267569,87.494427 43.3282181,87.5828289 L43.3282181,92.5424634 C42.8113231,92.6217328 42.3083094,92.7430114 41.8213688,92.8997237 L41.8213688,87.4359795" id="path106" fill="#26B481"></path>
                        <path d="M47.1185376,106.403285 C48.5417339,105.591596 49.504291,104.056984 49.504291,102.300271 C49.504291,99.6938788 47.3928755,97.5810021 44.7868482,97.5810021 C43.0286747,97.5810021 41.4936976,98.5399062 40.6787204,99.9634678 C41.3680355,99.5715044 42.1673049,99.3497692 43.0173505,99.3497692 C45.622282,99.3497692 47.7358892,101.460454 47.7358892,104.067943 C47.7358892,104.917988 47.5090399,105.713605 47.1185376,106.403285 L47.1185376,106.403285 Z M38.9855698,102.253148 C38.9855698,99.0228286 41.602556,96.4062076 44.8325103,96.4062076 C48.0602728,96.4062076 50.6754325,99.0228286 50.6754325,102.253148 C50.6754325,105.482737 48.0602728,108.101185 44.8325103,108.101185 C41.602556,108.101185 38.9855698,105.482737 38.9855698,102.253148 L38.9855698,102.253148 Z" id="path108" fill="#26B481"></path>
                        <path d="M174.931137,25.0640724 C175.144105,23.3271958 175.050955,21.5452415 174.71342,19.8414607 C174.135155,16.9315064 172.770407,14.3189038 170.636708,12.248438 C168.589585,10.2634153 166.020818,8.91437421 163.312507,8.06907742 C160.237074,7.111598 155.751594,6.76270303 152.541001,6.76270303 L112.044198,6.76270303 C108.835431,6.76270303 104.135523,5.58904096 102.320728,4.05950675 C100.505934,5.58904096 95.806025,6.76270303 92.597258,6.76270303 L52.1004553,6.76270303 C48.8902271,6.76270303 44.4043825,7.111598 41.3289487,8.06907742 C38.6206383,8.91437421 36.0517982,10.2634153 34.0050037,12.248438 C31.8713051,14.3189038 30.5064102,16.9315064 29.9283645,19.8414607 C29.5907573,21.5452415 29.49757,23.3271958 29.7106111,25.0640724 L12.469333,25.0640724 L20.1661,33.6142823 L20.1661,43.6814601 L14.0366754,48.0412773 L17.114995,50.2283092 L14.0359449,52.416437 L20.1661,56.7736972 L20.1661,67.4217335 L15.999269,75.390683 L45.8498619,75.390683 L43.3578071,77.160546 L45.7420993,78.8555231 L43.3570765,80.550135 L48.7923275,84.4131486 L48.7923275,91.9327831 L48.2195422,93.0279429 C47.1941541,92.6513219 46.0880354,92.4427374 44.9347934,92.4303173 L44.9347934,86.7638334 C44.9347934,86.2458426 43.5389943,85.825386 41.8213688,85.825386 C40.1041086,85.825386 38.710136,86.2458426 38.710136,86.7638334 L38.710136,89.7537877 C37.8926018,89.4502261 37.0732411,89.194153 36.3416247,88.9435594 C33.8558896,89.3044727 31.5716156,91.204016 31.5477983,91.2157055 L31.5109764,91.2485822 L31.484602,91.2865731 C30.8395974,92.2739703 30.5847664,93.5470296 30.6121636,94.7835593 C29.6579719,94.3276689 28.6328395,94.0062077 27.6233052,93.7019155 C26.212456,94.1504999 25.0626478,94.8449291 24.7037802,95.0871209 C23.9082368,94.886573 23.0803282,94.7996323 22.2651319,94.7159794 C21.7000543,94.8588104 20.4433602,95.3932396 20.0740452,95.5543355 C18.3788489,95.0907739 16.2648398,95.093331 16.2648398,95.093331 C15.5212782,95.9046551 14.8879996,96.8642898 14.3521823,97.8662989 C13.16968,96.5983537 11.4847486,95.8038332 9.61315044,95.8038332 C6.03696789,95.8038332 3.13884193,98.7010021 3.13884193,102.276892 C3.13884193,105.852783 6.03696789,108.751778 9.61315044,108.751778 C10.88526,108.751778 12.0676527,108.37881 13.0686389,107.745385 C13.262575,108.078901 13.4581914,108.411687 13.6564015,108.743376 C14.3802736,109.083102 16.9280726,109.858262 17.4221,110.005111 C18.7206205,111.353057 21.3361821,112.505203 21.3361821,112.505203 C22.6682369,112.331687 23.9902825,112.043468 25.290666,111.700819 C26.5502459,112.315979 28.9764376,112.570591 28.9764376,112.570591 C29.8440175,112.327668 31.6641088,111.263194 32.1414056,110.977897 C33.1248576,111.221915 34.1458256,111.347212 35.1560904,111.412965 C36.3048027,111.034883 37.3786292,110.267395 38.2220995,109.525477 C38.3799077,109.668673 38.5435607,109.804929 38.710136,109.938262 L38.710136,117.780819 C38.710136,118.29954 40.1041086,118.719266 41.8213688,118.719266 C43.5389943,118.719266 44.9347934,118.29954 44.9347934,117.780819 L44.9347934,112.07744 C45.8319623,112.068308 46.6995422,111.937897 47.5236518,111.703376 C48.8686746,113.811869 50.5019165,115.902098 52.4664827,117.73954 L44.9457523,121.948125 L44.7426473,124.076344 C44.7426473,124.076344 45.2858436,124.076344 45.8929669,124.079266 L45.9064829,124.078536 C48.3689486,124.188855 50.2546106,124.886207 53.2091311,128.361275 C54.8051128,130.238536 56.9256607,130.795978 58.2476698,130.953787 C59.7585373,133.122919 62.3174414,136.296618 62.3174414,136.296618 C64.4164367,136.802554 72.7105005,138.067211 78.1705917,138.877805 C79.7274866,143.06849 81.9499523,150.127485 81.5269386,155.338809 C79.7073953,158.559631 78.5921442,162.266297 78.4807286,166.215156 C77.9547012,184.881822 96.518719,190.536982 96.518719,190.536982 C104.77881,194.00584 114.581184,189.803466 116.786481,188.517986 C112.642554,184.755794 109.912691,177.602553 109.912691,177.602553 C113.576618,174.790133 116.58228,172.229037 118.714152,167.808215 C121.03744,162.992873 121.389586,155.010772 119.088216,147.753421 L120.781002,145.4389 C120.265568,143.300818 119.616801,141.25333 118.887303,139.363284 C123.071047,138.572417 139.419175,135.40091 144.143558,133.262828 C144.143558,133.262828 146.96511,129.988307 149.783375,125.27817 C149.783375,125.27817 149.821366,124.689677 149.879448,123.636161 C165.498443,117.938262 176.647667,102.953787 176.647667,85.3607285 C176.647667,81.9196327 176.21406,78.5800894 175.410407,75.388126 L179.557256,75.3877607 L184.505201,69.8849298 L184.50447,33.6222823 L192.198351,25.0640724 L174.931137,25.0640724 Z M180.97753,21.5131319 L180.799995,22.9146661 L180.793785,22.9146661 L180.210041,21.5131319 L179.957986,21.5131319 L179.400909,22.9146661 L179.393603,22.9146661 L179.191228,21.5131319 L178.561822,21.5131319 L178.974973,23.9482003 L179.597073,23.9482003 L180.090954,22.6465382 L180.612964,23.9482003 L181.241639,23.9482003 L181.609858,21.5131319 L180.97753,21.5131319 Z M178.478534,23.4122369 L177.95616,23.4122369 L177.95616,21.5131319 L177.323466,21.5131319 L177.323466,23.4122369 L176.801822,23.4122369 L176.801822,23.9482003 L178.478534,23.9482003 L178.478534,23.4122369 Z M36.0357667,114.381367 L36.0240667,114.384367 L35.9908667,114.396367 L36.0357667,114.381367 Z M187.608762,34.8132229 L187.610224,71.0757973 L180.939904,78.4931487 L179.215338,78.4931487 C179.567484,80.7309569 179.75269,83.0239249 179.75269,85.3607285 C179.751228,103.577349 168.645475,119.192691 152.834334,125.812234 L152.832873,126.229403 C150.831777,129.588673 148.62575,132.861001 146.047485,135.809677 C139.362919,138.894243 131.510864,140.02301 124.333878,141.464471 C123.866664,141.558353 123.402006,141.65333 122.938444,141.747942 C123.441093,143.334426 123.837805,144.827028 124.136618,146.110681 L122.496801,148.352873 C123.975887,153.877256 124.294061,159.970772 122.823741,165.533512 C121.424654,170.828124 117.883102,175.144836 113.717257,178.559996 C116.99397,185.187941 122.010225,189.067758 122.010225,189.067758 C114.57607,193.781182 104.535523,197.195612 95.4389017,193.450223 C88.5256599,191.164927 82.1154317,186.17753 78.573514,179.788854 C74.2747013,172.056617 74.3455689,162.248032 78.4661168,154.464288 C78.6027378,150.189951 77.5579889,145.966389 76.0646556,141.865202 C70.8416421,141.159814 65.6482175,140.292599 60.5625556,139.067759 C59.1609118,137.329312 57.7716881,135.579905 56.4518707,133.777896 C53.9083092,133.155065 52.080364,131.72712 50.3594508,129.819175 C49.0779896,128.39817 47.7954326,127.299358 45.818081,127.183924 C44.3214601,127.178444 42.8241085,127.181732 41.3271223,127.181732 L41.8341542,121.862645 C38.807305,121.91123 35.5840356,120.85881 35.6052959,117.780819 L35.6052959,114.52712 C35.5731863,114.542463 35.5549215,114.55123 35.5549215,114.55123 C34.5893325,114.487668 33.6257161,114.415705 32.6703919,114.25534 C31.7564193,114.763467 29.2421545,115.72091 29.2421545,115.72091 C27.8455883,115.573696 26.439634,115.38155 25.0983007,114.95123 C24.0135519,115.210956 20.8771502,115.696801 20.8771502,115.696801 C20.8771502,115.696801 17.0910315,113.84292 15.8389037,112.769678 C15.0428124,112.524198 13.3236161,111.86849 12.2977896,111.471047 C11.428091,111.724198 10.5229586,111.856436 9.61285821,111.857166 C4.93136061,111.854974 0.825486737,108.328399 0.137699723,103.693148 C-0.551656607,99.0469382 2.34489127,94.4602716 6.84602723,93.1046552 C9.12073037,92.4193584 11.5099906,92.6473036 13.5749038,93.5883082 C14.0880362,92.8734223 14.6456983,92.2027374 15.2509951,91.604016 C15.9016982,91.7052032 19.6528214,92.2874863 19.7791045,92.3108653 C20.3451684,92.0843813 22.0346661,91.5722352 22.0346661,91.5722352 C22.7392871,91.6438333 23.4452232,91.7088562 24.1455336,91.8155228 C24.8040907,91.4662991 27.5983189,90.4515046 27.5983189,90.4515046 C27.9427938,90.5556142 28.2875244,90.6586279 28.6321454,90.7627375 C28.92336,89.8049293 29.1722367,89.1740617 29.1722367,89.1740617 C30.8792686,87.8907741 33.5957617,86.2557056 35.7173324,85.8995412 C36.0091315,84.7985367 36.8029215,84.018628 37.7800904,83.4958883 C38.6063917,83.0962536 39.7884922,82.8168016 41.0575332,82.7258427 L37.9967114,80.550135 L40.3824647,78.8547925 L39.8776246,78.4960711 L10.8715614,78.4960711 L17.0610772,66.6600897 L17.0610772,58.3773501 L8.67638334,52.4171676 L11.7547029,50.2294051 L8.67722353,48.0434691 L17.0610772,42.0803642 L17.0610772,34.8062092 L5.49545192,21.9590497 C12.5075796,21.9590497 19.5197073,21.9590497 26.531835,21.9590497 C26.9075427,15.9484928 30.0145381,10.616292 35.1616795,7.45578064 C40.2184465,4.35101359 46.2809121,3.68365288 52.1004553,3.65768027 L92.5968927,3.65768027 C93.9046552,3.66396338 95.2270296,3.45205471 96.4978971,3.15724924 C97.6909565,2.88042367 99.3822806,2.54394879 100.319997,1.68592872 L102.319997,0 L104.321093,1.68592872 C105.170043,2.462473 106.676892,2.79080906 107.759632,3.06121636 C109.14849,3.40824832 110.607851,3.67638347 112.044198,3.65768027 L152.541731,3.65768027 C158.246571,3.68292228 164.18374,4.32076702 169.183923,7.27810027 C174.014608,10.1348308 177.120726,14.870575 177.929493,20.328036 L182.764196,20.328036 L182.764196,21.9590497 L199.165292,21.9590497 L187.608762,34.8132229 L187.608762,34.8132229 Z" id="path110" fill="#C6C5C5"></path>
                        <path d="M35.7642731,98.4617327 C35.2758347,99.6284907 35.0052959,100.909221 35.0052959,102.253148 C35.0052959,103.972965 35.4479261,105.588673 36.2238895,106.994701 C35.6317069,107.480545 34.8202,108.078536 34.2107754,108.269952 C34.2107754,108.269952 32.5876156,108.007303 31.3782641,107.59123 C31.3782641,107.59123 30.1389947,108.455888 28.6356888,109.152143 C28.6356888,109.152143 27.3250404,109.093331 25.3658806,108.157075 C25.3658806,108.157075 23.7441455,108.842372 21.9461912,109.308856 C21.9461912,109.308856 19.8300634,108.119449 19.1615338,107.327486 C19.1615338,107.327486 17.2522735,106.798901 16.5852051,106.535888 C16.5852051,106.535888 15.6141731,105.233239 15.192511,104.677258 C15.192511,104.677258 16.3276343,99.8491299 17.6696617,98.2001802 C17.6696617,98.2001802 18.610447,98.2348834 19.8571685,98.7017327 C19.5553602,99.8889473 19.527963,101.096618 19.527963,101.096618 C19.527963,101.096618 20.2110315,99.6460249 20.8624287,98.5778971 C21.3390314,98.3258423 22.0253876,97.9813674 22.5338077,97.8239245 C22.5338077,97.8239245 23.6942095,97.9660249 24.697351,98.2348834 C24.6295519,99.8257509 24.9132414,100.824472 24.9132414,100.824472 C24.9132414,100.824472 25.131835,99.2785363 25.6269948,98.0694039 C26.2498624,97.745751 27.2622824,97.2259336 27.7809673,96.9841072 C27.7809673,96.9841072 28.848328,97.3486734 30.1967846,97.938993 C30.2552687,99.9408194 30.6155974,101.112692 30.6155974,101.112692 C30.6155974,101.112692 30.8617344,99.3797235 31.1321271,98.0014587 C31.6886567,97.7033766 32.7588302,97.1503172 33.3510129,96.9749747 C33.3510129,96.9749747 34.8286384,97.4966186 35.6248393,97.8546094 C35.6248393,97.8546094 35.6783553,98.0810934 35.7642731,98.4617327" id="path112" fill="#C6C5C5"></path>
                        <path d="M173.396891,50.1950672 L165.354882,50.1932408 L165.354882,51.383743 L172.04164,51.383743 L172.04164,62.9143363 L169.793238,64.8230121 L171.848032,64.8230121 L173.396891,63.5181719 L173.396891,50.1950672 Z M173.394334,31.7454239 L172.065019,31.7454239 L172.065019,46.2429212 L173.394334,46.2429212 L173.394334,31.7454239 Z M165.212051,53.8663 L165.212051,61.768035 L167.391046,63.6171674 L169.569311,61.768035 L169.569311,53.8663 L165.212051,53.8663 Z M180.304288,68.2699526 L177.687301,71.1810028 L157.317622,71.1820987 L154.512873,68.4456604 L154.512873,54.603469 L151.51269,52.4146106 L154.587759,50.2264828 L151.51269,48.0372591 L154.587759,45.8494966 L154.587759,38.4365287 C155.466297,38.6546109 156.338626,38.7923278 157.197804,38.8620995 C157.151777,38.8584465 157.106115,38.8573506 157.060087,38.8529671 L157.060087,47.1265742 L155.780087,48.0379897 L158.855886,50.2264828 L155.780087,52.4153412 L157.060087,53.3263914 L157.060087,67.5981718 L158.049676,68.7064823 L176.281639,68.7050211 L174.412416,67.3753408 L158.845293,67.3760714 L158.397074,66.8946102 L158.388672,52.1914142 L161.151777,50.2250216 L158.388672,48.2619166 L158.388672,38.9139716 C160.952325,38.9216429 163.335521,38.2736063 165.244927,37.0549762 L165.244927,46.3123276 L169.588672,46.3123276 L169.59269,33.9568941 C171.329676,32.7883827 172.78027,31.1354147 173.701548,29.2763828 C173.702644,29.274118 173.703375,29.2724011 173.704471,29.2701363 L182.764927,29.2701363 L180.304288,32.0072686 L180.304288,68.2699526 L180.304288,68.2699526 Z" id="path114" fill="#C6C5C5"></path>
                        <path d="M154.587759,34.2578622 L154.587759,32.0072686 L152.12785,29.2701363 L152.495704,29.2701363 C153.348672,29.2806933 154.468672,29.3691317 154.813877,29.800949 C155.54374,30.7137527 155.284745,32.5060083 154.587759,34.2578622" id="path116" fill="#C6C5C5"></path>
                        <path d="M138.215887,92.0354315 L138.215887,90.934427 L137.017713,89.7384452 L137.017348,93.2343356 L155.356708,93.2343356 L153.670498,92.0354315 L138.215887,92.0354315 Z M145.101366,77.293514 L145.10027,64.4781719 L143.902462,64.4781719 L143.902462,76.4157059 L142.850042,77.1638337 L145.231047,78.856619 L142.850042,80.5490391 L143.902462,81.2975322 L143.902462,89.7358882 L145.101366,90.8949749 L145.101366,80.4200893 L147.301184,78.8584455 L145.101366,77.293514 Z M154.80511,87.9057512 L157.18648,86.2126006 L157.18648,95.0637419 L135.187942,95.0637419 L135.187942,86.2126006 L137.568946,87.9057512 L142.073056,87.9057512 L142.073056,82.2410938 L139.692051,80.5483085 L142.073056,78.856619 L139.692051,77.1627378 L142.073056,75.4710483 L142.073056,64.7656605 L140.168398,62.6487656 L152.210772,62.6487656 L150.306115,64.7656605 L150.306115,87.9057512 L154.80511,87.9057512 L154.80511,87.9057512 Z" id="path118" fill="#C6C5C5"></path>
                        <path d="M126.642189,68.4051124 L125.593056,67.5156148 L123.740636,67.5156148 L125.44365,68.9599983 L125.44365,75.3793588 L113.962737,81.1912308 L113.962737,92.123468 L114.974609,93.247121 L128.878536,93.247121 L127.193421,92.0482169 L115.507577,92.0482169 L115.162006,91.6635594 L115.162006,81.9280345 L126.642189,76.1157972 L126.642189,68.4051124 Z M126.641458,85.8754316 L125.44365,86.2659339 L125.44365,88.7660252 L123.55397,90.3678516 L125.407485,90.3678516 L126.642189,89.3216416 L126.641458,85.8754316 Z M114.97534,64.4781719 L113.963102,65.6021901 L113.963102,72.9041078 L115.162006,72.5147014 L115.162006,66.0628294 L116.612235,64.4781719 L114.97534,64.4781719 Z M131.719449,64.8997244 L131.719449,79.4312309 L120.239632,84.9859339 L120.239632,87.9189019 L121.926938,89.3490389 L123.613878,87.9189019 L123.613878,84.9373495 L131.719449,82.2980801 L131.719449,92.8255685 L129.693513,95.0765273 L114.160362,95.0765273 L112.133331,92.8255685 L112.133331,80.066482 L123.613878,74.25461 L123.613878,69.8071215 L121.926938,68.376254 L120.239632,69.8071215 L120.239632,72.7868475 L112.133331,75.4231945 L112.133331,64.8997244 L114.160362,62.6487656 L129.693513,62.6487656 L131.719449,64.8997244 L131.719449,64.8997244 Z" id="path120" fill="#C6C5C5"></path>
                        <path d="M104.583011,67.10977 L97.2697693,67.10977 L97.2697693,68.1917791 L106.104107,68.1917791 L104.583011,67.10977 Z M92.0712306,77.5726008 L92.0712306,64.2695874 L90.8536964,64.2695874 L90.8536964,76.2633771 L89.567121,77.1780803 L91.9510479,78.8726921 L89.567121,80.5673039 L90.8536964,81.4820071 L90.8536964,93.476162 L106.104107,93.4765273 L104.583011,92.3941529 L92.0712306,92.3941529 L92.0712306,80.1724181 L93.9002716,78.8726921 L92.0712306,77.5726008 Z M103.719449,80.83324 L102.197623,79.7512309 L97.2697693,79.7512309 L97.2697693,80.83324 L103.719449,80.83324 Z M107.930591,71.5108658 L105.545933,69.8158887 L97.2697693,69.8158887 L97.2697693,75.2894958 L103.162007,75.2894958 L105.545933,73.594884 L105.545933,84.1505002 L103.162007,82.4558883 L97.2697693,82.4558883 L97.2697693,87.9324179 L105.545933,87.9324179 L107.930591,86.2378061 L107.930591,95.0988104 L87.9199978,95.0988104 L89.0275777,92.980089 L89.0275777,82.2619158 L86.6432855,80.5673039 L89.0275777,78.8726921 L86.6432855,77.1780803 L89.0275777,75.4838337 L89.0275777,64.7685829 L87.9199978,62.6498614 L107.930591,62.6494962 L107.930591,71.5108658 L107.930591,71.5108658 Z" id="path122" fill="#C6C5C5"></path>
                        <path d="M69.2540622,92.3952488 L67.5302266,92.3952488 L67.5302266,68.8642905 L66.4182632,67.6295874 L64.8595418,67.6295874 L66.3126924,69.2438339 L66.3126924,93.4772579 L70.7758886,93.4772579 L69.2540622,92.3952488 Z M57.8655693,78.8726921 L56.0365283,77.5726008 L56.0365283,65.8491308 L57.4611858,64.2695874 L55.899542,64.2695874 L54.8193594,65.4695874 L54.8193594,76.2633771 L53.532784,77.1780803 L55.9167109,78.8726921 L53.532784,80.5673039 L54.8193594,81.4809112 L54.8193594,93.4772579 L59.2825556,93.4772579 L57.7603639,92.3952488 L56.0365283,92.3952488 L56.0365283,80.1724181 L57.8655693,78.8726921 Z M77.8038337,69.2438339 L77.8038337,93.4772579 L82.2670299,93.4772579 L80.7448382,92.3952488 L79.0210026,92.3952488 L79.0210026,68.8642905 L77.9094044,67.6295874 L76.350683,67.6295874 L77.8038337,69.2438339 Z M82.0858427,62.6703181 L84.0931486,64.8997244 L84.0931486,92.9815502 L85.2003632,95.0999063 L75.308126,95.0999063 L75.1378977,95.0999063 L75.9769844,92.9815502 L75.9769844,69.812601 L74.2882173,68.3806376 L72.5998155,69.812601 L72.6020073,92.9815502 L73.4399982,95.0999063 L63.6471217,95.0999063 L64.4865737,92.9815502 L64.4865737,69.812601 L62.7974414,68.3806376 L61.1086743,69.812601 L61.1086743,92.9815502 L61.9484916,95.0999063 L61.7775327,95.0999063 L51.8852955,95.0999063 L52.9932407,92.9815502 L52.9932407,82.2619158 L50.6089485,80.5673039 L52.9932407,78.8726921 L50.6089485,77.1780803 L52.9932407,75.4838337 L52.9932407,64.8997244 L55.0001813,62.6703181 L64.2619162,62.6703181 L68.5523271,66.5603636 L72.5943361,62.6703181 L82.0858427,62.6703181 L82.0858427,62.6703181 Z" id="path124" fill="#C6C5C5"></path>
                        <path d="M111.733331,129.061915 C110.076344,131.713969 109.851321,134.889129 109.851321,134.889129 C109.851321,134.889129 109.759267,131.481275 108.223924,128.797805 C102.178993,130.337896 96.0146095,133.857166 92.0774406,136.985567 L87.7395412,136.55744 C91.5448379,132.183376 100.824838,125.829403 111.733331,129.061915" id="path126" fill="#C6C5C5"></path>
                        <path d="M54.2359804,105.096618 C54.5077612,104.196162 54.6553411,103.242372 54.6553411,102.253148 C54.6553411,101.219358 54.4946105,100.223559 54.1990854,99.288034 C54.2491311,99.2865729 54.2999073,99.2858423 54.3514142,99.2843811 C68.2739709,98.9570752 115.509038,97.8436505 121.931321,97.5583537 C122.448947,97.5386277 123.02575,97.5247464 123.651504,97.5247464 C128.415705,97.5167099 135.894791,98.198719 143.587211,99.2843811 C149.194517,100.075614 154.914699,101.080911 159.779722,102.191048 C159.742096,102.199815 159.702644,102.208217 159.665019,102.216618 L56.7729666,102.216618 L54.2359804,105.096618" id="path128" fill="#C6C5C5"></path>
                        <path d="M38.710136,94.5698606 C38.3810036,94.832509 38.0690401,95.1156141 37.7760721,95.4177145 C36.5687662,94.713057 35.0923096,94.252783 33.7627024,93.8641072 C33.8337526,93.6416415 33.9362183,93.4049292 34.082337,93.159815 C34.082337,93.159815 34.8535882,92.3481255 35.9124009,92.2074863 C35.9124009,92.2074863 37.123652,92.4905913 38.710136,93.407121 C38.9892228,93.5685821 39.2792684,93.7497693 39.5769853,93.9521438 C39.2767113,94.1428287 38.9873963,94.3484908 38.710136,94.5698606" id="path130" fill="#C6C5C5"></path>
                        <path d="M53.3957978,45.3662089 L54.5519621,46.1881267 L54.5519621,56.9665739 L58.5676698,56.9665739 L57.2003639,55.9941539 L55.646026,55.9941539 L55.646026,45.0115057 L57.2894963,43.8436519 L55.646026,42.6750674 L55.646026,30.720328 L54.5519621,30.720328 L54.5519621,41.4988117 L53.3957978,42.3207295 L55.5378982,43.8436519 L53.3957978,45.3662089 Z M60.3174414,34.2451498 L68.2564366,34.2451498 L66.8891307,33.2731316 L60.3174414,33.2731316 L60.3174414,34.2451498 Z M51.9156151,29.2646933 L69.8977151,29.2646933 L69.8973499,37.2277616 L67.7552494,35.7049123 L60.3174414,35.7049123 L60.3174414,56.5194506 L61.311414,58.425204 L51.9156151,58.4248387 L52.9110489,56.5209118 L52.9110489,46.888766 L50.7682179,45.3665742 L52.9110489,43.8436519 L50.7682179,42.3207295 L52.9110489,40.7978072 L52.9110489,31.168949 L51.9156151,29.2646933 L51.9156151,29.2646933 Z" id="path132" fill="#C6C5C5"></path>
                        <path d="M74.065021,45.3512317 L75.0111397,46.0237431 L75.0111397,55.7519621 L75.9203634,56.7616424 L88.414975,56.7616424 L86.9015503,55.6843822 L76.3996328,55.6843822 L76.0880346,55.3384461 L76.0880346,45.235798 L78.0683086,43.8315971 L76.0883999,42.425935 L76.0883999,32.3327481 L77.3855688,30.9092595 L75.9203634,30.9092595 L75.0111397,31.9192321 L75.0111397,41.6368939 L74.065021,42.30904 L76.2052949,43.8305012 L74.065021,45.3512317 Z M86.4047467,34.4383553 L85.462281,33.6391224 L83.7979888,33.6391224 L85.3278517,34.9373507 L85.3278517,52.7346106 L83.6317787,54.172784 L85.2975321,54.172784 L86.4047467,53.2339713 L86.4047467,34.4383553 Z M83.6836509,35.698337 L82.1680345,34.4116886 L80.6516875,35.698337 L80.6516875,51.9736973 L82.1680345,53.2588115 L83.6836509,51.9736973 L83.6836509,35.698337 Z M75.1883086,29.2646933 L89.1470297,29.2646933 L90.9683996,31.2876705 L90.9683996,56.3831949 L89.1470297,58.4058433 L75.1883086,58.4058433 L73.3673041,56.3831949 L73.3673041,46.8719623 L71.2273955,45.3508664 L73.3673041,43.8297706 L71.2273955,42.3086747 L73.3673041,40.7875789 L73.3673041,31.2876705 L75.1883086,29.2646933 L75.1883086,29.2646933 Z" id="path134" fill="#C6C5C5"></path>
                        <path d="M105.913057,43.7307752 L103.280728,43.7307752 L103.280728,44.7108665 L105.399815,44.7108665 L107.956527,46.8796335 L107.956527,51.656985 L106.479997,52.9088571 L108.145751,52.9088571 L109.033422,52.1563457 L109.033422,46.3810034 L105.91123,43.7322363 L105.913057,43.7307752 Z M106.312326,50.8957065 L106.312326,47.6405468 L104.79671,46.354702 L103.280728,46.354702 L103.280728,52.1811859 L104.79671,52.1811859 L106.312326,50.8957065 Z M98.5859336,55.6726927 L98.5859336,45.2350674 L100.564016,43.82904 L98.5859336,42.4255697 L98.5859336,30.9092595 L97.5086734,30.9092595 L97.5086734,41.6365286 L96.5625547,42.30904 L98.7028286,43.8297706 L96.5625547,45.351597 L97.5086734,46.0233778 L97.5086734,56.7499529 L111.199267,56.748857 L109.684016,55.6719621 L98.5859336,55.6726927 Z M109.027212,30.9092595 L107.949952,30.9092595 L107.949952,40.5906839 L106.486938,41.8312318 L108.153057,41.8312318 L109.027212,41.0896793 L109.027212,30.9092595 Z M115.471778,29.2649856 L113.759632,31.1675243 L113.759632,41.883104 L111.938627,43.9061176 L113.759632,45.928766 L113.759632,56.3704095 L111.938627,58.3930579 L94.8701346,58.3945191 L95.8644725,56.4924187 L95.8644725,46.8719623 L93.7245639,45.3508664 L95.8644725,43.8297706 L93.7245639,42.3083094 L95.8644725,40.7875789 L95.8644725,31.1675243 L94.1526917,29.2649856 L104.974609,29.2649856 L103.280728,31.1503919 L103.280728,41.1094054 L104.79671,41.1094054 L106.305751,39.8294054 L106.305751,29.2649856 L115.471778,29.2649856 L115.471778,29.2649856 Z" id="path136" fill="#C6C5C5"></path>
                        <path d="M132.094243,45.3508664 L133.040362,46.0230125 L133.040362,56.7495876 L146.73059,56.7484917 L145.215339,55.6712315 L134.117257,55.6719621 L134.117257,45.2343368 L136.094974,43.8283094 L134.117257,42.4248391 L134.117257,30.9085289 L133.040362,30.9085289 L133.040362,41.635798 L132.094243,42.3083094 L134.234152,43.8294053 L132.094243,45.3508664 Z M138.812051,35.4783187 L138.812051,52.1808206 L140.328033,52.1808206 L141.844015,50.8949759 L141.844015,36.7638347 L140.328033,35.4783187 L138.812051,35.4783187 Z M144.565476,35.5049854 L141.442919,32.8558896 L141.444745,32.8544649 L138.812051,32.8544649 L138.812051,33.8341909 L140.931138,33.8341909 L143.48785,36.0037251 L143.48785,51.6562544 L142.011321,52.9084918 L143.677439,52.9084918 L144.565476,52.1552498 L144.565476,35.5049854 Z M129.684015,29.2646933 L147.470316,29.2665563 L149.290955,31.2890951 L149.290955,56.369679 L147.470316,58.3926926 L130.401823,58.3937885 L131.396161,56.4920534 L131.396161,46.8712317 L129.256252,45.3501359 L131.396161,43.8294053 L129.256252,42.3075789 L131.396161,40.7868483 L131.396161,31.1667937 L129.684015,29.2646933 L129.684015,29.2646933 Z" id="path138" fill="#C6C5C5"></path>
                        <path d="M123.432326,43.8436519 L121.789221,42.6750674 L121.789221,30.720328 L120.694792,30.720328 L120.694792,41.4988117 L119.538627,42.3207295 L121.680728,43.8436519 L119.538627,45.3662089 L120.694792,46.1881267 L120.694792,56.9665739 L124.710499,56.9665739 L123.343193,55.9941539 L121.789221,55.9941539 L121.789221,45.0115057 L123.432326,43.8436519 Z M127.454243,58.425204 L118.058445,58.4248387 L119.053878,56.5209118 L119.053878,46.888766 L116.911413,45.3665742 L119.053878,43.8436519 L116.911413,42.3207295 L119.053878,40.7978072 L119.053878,31.168949 L118.058445,29.2646933 L127.452417,29.2646933 L126.460636,31.1616796 L126.460636,56.5194506 L127.454243,58.425204 L127.454243,58.425204 Z" id="path140" fill="#C6C5C5"></path>
                        <path d="M28.2996523,67.6957061 L28.2996523,51.9061174 L30.6632321,50.2268481 L28.2996523,48.5468481 L28.2996523,32.75799 L28.2996523,31.3607298 L26.7268669,31.3607298 L26.7268669,46.8558892 L25.0645108,48.0387203 L28.1449856,50.2268481 L25.0645108,52.4157065 L26.7268669,53.5974416 L26.7268669,69.0929663 L46.4281267,69.0933316 L44.4613688,67.6957061 L34.8691498,67.6957061 L28.2996523,67.6957061 Z M43.3494053,52.7583548 L41.3811862,51.3621905 L35.0154146,51.3621905 L35.0154146,52.7583548 L43.3494053,52.7583548 Z M35.0154146,45.5970765 L42.6268482,45.5970765 L45.7063002,43.4078528 L45.7063002,57.0451127 L42.6268482,54.8555237 L35.0154146,54.8555237 L35.0154146,61.9294962 L45.7066655,61.9294962 L48.7905011,59.7413684 L48.7905011,71.1890393 L22.936657,71.1890393 L24.3671592,68.4536969 L24.3671592,54.6056607 L21.2870862,52.4157065 L24.3671592,50.2268481 L21.2870862,48.0387203 L24.3671592,45.8480354 L24.3671592,32.0014239 L21.9042552,29.2649856 L30.9346476,29.2649856 C30.9365106,29.2686751 30.9380814,29.2726933 30.9399079,29.2763828 C31.8554513,31.1229947 33.2932229,32.7668302 35.0154146,33.9342092 L35.0154146,45.5970765 L35.0154146,45.5970765 Z" id="path142" fill="#C6C5C5"></path>
                        <path d="M67.3355234,108.65607 C68.9311398,108.688216 70.5848384,108.721824 72.275432,108.755796 C69.8955234,111.561641 67.5119618,115.498445 66.1037426,120.866481 C66.1037426,120.866481 64.3660258,115.207668 67.3355234,108.65607" id="path144" fill="#2D7BC8"></path>
                        <path d="M66.1957974,126.983376 C68.7802723,127.423924 76.350683,127.699723 76.350683,127.699723 C79.119998,132.439083 82.5556144,136.119083 82.5556144,136.119083 C78.5804547,135.802736 64.5245646,133.354517 64.5245646,133.354517 C64.1599984,132.858079 61.5547017,129.62849 61.5547017,129.62849 C63.5594505,130.02228 66.5037426,130.416435 68.3945188,130.651686 C67.1203636,128.987029 66.1957974,126.983376 66.1957974,126.983376" id="path146" fill="#2D7BC8"></path>
                        <path d="M132.254974,125.926937 C132.274335,125.928764 132.293695,125.929495 132.313056,125.930956 C132.699175,125.964928 133.087485,125.994152 133.476892,126.017896 C133.573695,126.023741 133.670499,126.026664 133.767303,126.031778 C134.085476,126.048581 134.404015,126.064289 134.724015,126.073422 C134.747029,126.074152 134.769312,126.075613 134.792325,126.076344 C134.249494,126.889495 133.712508,127.651869 133.202919,128.345202 C136.970955,127.349769 140.990681,126.238536 143.86922,125.313969 C143.870316,125.313969 143.871047,125.313604 143.872143,125.313604 C144.670316,125.155431 145.460818,124.974974 146.241458,124.771138 C145.5189,125.847303 143.386663,128.967668 141.842919,130.650956 C141.842919,130.650956 130.435065,134.022645 119.885659,135.854608 C119.885659,135.854608 123.192691,132.212965 126.07196,127.416983 C128.287851,126.915065 130.389768,126.401823 132.254974,125.926937" id="path148" fill="#2D7BC8"></path>
                        <path d="M54.8113228,123.318718 L54.5830123,121.218262 L58.5534232,118.939175 L60.2896789,115.801641 C60.2896789,115.801641 60.0493136,122.006207 62.8935144,126.547211 C61.9470304,127.149586 58.062099,129.125111 53.8926014,124.169129 C53.8926014,124.169129 52.0577156,122.876344 51.7143366,122.819358 L52.633058,122.313422 L54.8113228,123.318718" id="path150" fill="#2D7BC8"></path>
                        <polyline id="path152" fill="#2D7BC8" points="56.3086744 20.1428305 53.0469393 20.1428305 53.0469393 18.7437073 56.3086744 18.7437073 56.3086744 20.1428305"></polyline>
                        <polyline id="path154" fill="#2D7BC8" points="64.9260258 18.7437073 68.1855691 18.7437073 68.1855691 20.1428305 64.9260258 20.1428305 64.9260258 18.7437073"></polyline>
                        <path d="M153.302279,20.1428305 L148.225019,20.1428305 L148.225019,18.7214607 C148.960727,18.7214607 149.710681,18.7437073 150.446024,18.7437073 C152.356161,18.7437073 153.302279,18.6023009 153.302279,16.6418261 L153.302279,15.7121823 C153.302279,14.7825384 152.54027,14.1018809 151.486389,14.1018809 L146.425202,14.1018809 L146.425202,15.7121823 L151.486389,15.7121823 L151.486389,17.1441092 C150.752142,17.1441092 150.0168,17.1225566 149.27817,17.1225566 C147.355978,17.1225566 146.387942,17.2646936 146.411321,19.2146114 L146.425202,20.1428305 C146.438718,21.0846022 147.185019,21.7651136 148.225019,21.7651136 L153.302279,21.7651136 L153.302279,20.1428305 Z M141.741001,20.1428305 L139.205476,20.1428305 L139.205476,14.1018809 L137.389586,14.1018809 L137.389586,20.1428305 L134.850408,20.1428305 L134.850408,21.7651136 L141.741001,21.7651136 L141.741001,20.1428305 Z M130.180819,15.7121823 C130.180819,14.7825384 129.421732,14.1018809 128.368581,14.1018809 C127.629951,14.1018809 126.895339,14.0803284 126.172417,14.0803284 C124.812417,14.0803284 123.303011,14.1125841 123.303011,15.7121823 L123.303011,21.7651136 L125.107211,21.7651136 L125.107211,15.7121823 L128.368581,15.7121823 L128.368581,21.7651136 L130.180819,21.7651136 L130.180819,15.7121823 Z M118.302828,14.1018809 L116.486938,14.1018809 L116.486938,17.1225566 L113.226664,17.1225566 L113.226664,14.1018809 L111.425751,14.1018809 L111.425751,21.7651136 L118.302828,21.7651136 L118.302828,14.1018809 Z M106.42228,14.1018809 L103.568217,14.1018809 L100.78502,20.1648214 L100.78502,14.1018809 L98.9804541,14.1018809 L98.9804541,21.7651136 L101.83744,21.7651136 L104.610043,15.7016252 L104.610043,21.7651136 L106.42228,21.7651136 L106.42228,14.1018809 Z M93.7844725,18.6893511 C93.7844725,17.7004927 93.7599977,16.7071777 93.7599977,15.7121823 C93.7599977,14.7825384 92.9987191,14.1018809 91.9448379,14.1018809 C91.2087648,14.1018809 90.4734224,14.0803284 89.7497694,14.0803284 C89.3570754,14.0803284 88.9537877,14.0803284 88.5610937,14.1018809 C86.6126006,14.2322919 86.8573494,15.9091138 86.8573494,17.1667941 C86.8573494,18.1643831 86.8818243,19.1595246 86.8818243,20.1428305 C86.8818243,21.0846022 87.6292216,21.7651136 88.6838334,21.7651136 C89.4184453,21.7651136 90.1548836,21.7859721 90.890226,21.7859721 C91.2825548,21.7859721 91.6756141,21.7756707 92.0683082,21.7538625 C94.0168013,21.6219903 93.7844725,19.9573328 93.7844725,18.6893511 L93.7844725,18.6893511 Z M81.8798153,20.1428305 L76.8043816,20.1428305 L76.8043816,15.7121823 L80.0657514,15.7121823 L80.0657514,17.1553968 L78.483651,17.1553968 L78.483651,18.6556708 C78.8390848,18.6556708 79.2083998,18.6673968 79.5758884,18.6673968 C81.3044729,18.6673968 81.8798153,18.1421365 81.8798153,16.5975886 L81.8798153,15.7121823 C81.8798153,14.7825384 81.1210939,14.1018809 80.0657514,14.1018809 C79.3315049,14.1018809 78.5943359,14.0803284 77.8714136,14.0803284 C77.4790848,14.0803284 77.0732401,14.0803284 76.6816419,14.1018809 C74.744473,14.2224654 74.9771671,15.9196708 74.9771671,17.1667941 C74.9771671,18.1643831 75.0020073,19.1595246 75.0020073,20.1428305 C75.0020073,21.0846022 75.7629205,21.7651136 76.8043816,21.7651136 L81.8798153,21.7651136 L81.8798153,20.1428305 Z M70.0014594,14.1018809 L68.1855691,14.1018809 L68.1855691,17.1113055 L64.9260258,17.1113055 L64.9260258,14.0910316 L63.1236514,14.0910316 L63.1236514,21.7538625 L68.1855691,21.7538625 C69.449496,21.7538625 70.0014594,20.9738808 70.0014594,19.9357803 C70.0014594,18.8964014 69.6938795,18.0552324 68.3704092,17.9316525 C69.9152494,17.7990863 70.0127836,16.6853694 70.0127836,15.5923284 C70.0127836,15.0998718 70.0014594,14.5975887 70.0014594,14.1018809 Z M58.1231036,14.1018809 L56.3086744,14.1018809 L56.3086744,17.1225566 L53.0469393,17.1225566 L53.0469393,14.1018809 L51.2449302,14.1018809 L51.2449302,21.7651136 L58.1231036,21.7651136 L58.1231036,14.1018809 Z M170.689311,25.5715062 C170.314882,26.9354879 169.657713,27.9423555 169.059722,28.635981 C168.404014,22.2304652 162.903375,21.0615155 162.903375,21.0615155 C164.924562,22.753278 166.881822,27.6248395 165.275612,30.9626294 C164.389402,32.8069398 161.830864,34.9958713 159.06995,34.640401 C160.405475,32.1990494 160.551594,28.7193052 158.447119,26.8731317 C156.84164,25.4674697 152.769311,25.0473784 148.650955,25.0473784 L56.0073045,25.0473784 C51.8893138,25.0473784 47.8162545,25.4674697 46.2122363,26.8731317 C44.1066656,28.7193052 44.2531496,32.1990494 45.5886747,34.640401 C42.8273962,34.9958713 40.269588,32.8069398 39.3822821,30.9626294 C37.7760721,27.6248395 39.7347935,22.753278 41.7552501,21.0615155 C41.7552501,21.0615155 36.2535516,22.2304652 35.5978804,28.635981 C35.0015699,27.9423555 34.3443279,26.9354879 33.969022,25.5715062 C32.7957983,21.3033785 34.7538621,17.0783557 37.1455698,15.0151229 C41.0315971,11.6602372 45.6120537,10.83547 51.0794508,10.83547 L92.3985365,10.83547 C99.225203,10.83547 102.32913,8.9804564 102.32913,8.9804564 C102.32913,8.9804564 105.434153,10.83547 112.259723,10.83547 L153.579174,10.83547 C159.046937,10.83547 163.627393,11.6602372 167.512325,15.0151229 C169.903923,17.0783557 171.863009,21.3033785 170.689311,25.5715062 L170.689311,25.5715062 Z" id="path156" fill="#2D7BC8"></path>
                        <polyline id="path158" fill="#2D7BC8" points="116.486938 20.1428305 113.226664 20.1428305 113.226664 18.7437073 116.486938 18.7437073 116.486938 20.1428305"></polyline>
                        <polyline id="path160" fill="#2D7BC8" points="88.6838334 15.7121823 91.9448379 15.7121823 91.9448379 20.1428305 88.6838334 20.1428305 88.6838334 15.7121823"></polyline>
                        <path d="M81.8721441,126.894609 C93.4074862,121.405294 105.374609,124.550864 105.374609,124.550864 C90.8164361,126.092782 85.2032855,131.705933 85.2032855,131.705933 C83.5999979,129.732234 81.8721441,126.894609 81.8721441,126.894609" id="path162" fill="#2D7BC8"></path>
                        <path d="M88.7663905,164.309402 C88.7663905,164.309402 96.4814588,167.368763 105.370226,167.810041 L107.305203,168.966936 L108.968764,167.82648 C108.968764,167.82648 113.690956,166.210042 115.795066,164.302827 C111.193422,166.440544 107.562737,166.512507 107.562737,166.512507 L108.934427,152.005476 L106.446755,153.360361 L107.670865,154.815339 C107.171139,158.709768 106.434701,162.562188 105.631048,166.403649 C105.631048,166.403649 97.8056597,165.770589 90.7488562,163.208398 C91.047669,160.793421 92.1742443,155.856434 93.5419155,153.178809 C97.3548834,150.941366 101.383376,149.028672 105.437806,147.277074 C106.401824,143.53059 106.248764,139.136435 105.501367,135.364745 C100.595797,136.794882 95.7052031,139.697531 92.2297694,142.656435 C95.3508652,141.106115 100.820819,138.491321 104.017532,137.551412 C104.017532,137.551412 104.656801,142.208946 103.743559,145.953238 C103.743559,145.953238 94.6111392,150.062827 92.1453858,151.797987 C92.1453858,151.797987 89.3143357,157.368763 88.7663905,164.309402 L88.7663905,164.309402 Z M116.832508,144.778079 C116.832508,144.778079 114.631961,138.882554 113.463741,136.84164 C113.048399,138.94027 112.799632,141.502828 112.796344,143.749038 C112.794152,145.250407 112.910682,146.628307 113.127303,147.599996 C113.64639,148.186298 114.977166,149.742827 116.353239,151.808581 C116.353239,151.808581 115.488216,148.943923 114.154518,146.592508 C113.787394,143.670133 114.245842,140.747759 114.245842,140.747759 C114.245842,140.747759 115.49954,142.459905 116.832508,144.778079 Z M87.8294042,147.33333 C88.9117786,144.973512 90.431048,142.526389 90.431048,142.526389 C90.431048,142.526389 97.1802715,136.044928 106.433239,133.791412 C107.516344,137.429403 107.638353,144.733147 106.49534,148.214791 C99.3961619,151.240544 94.4697693,154.117987 94.4697693,154.117987 C93.2982625,156.062097 92.4076689,161.421366 92.2246552,162.343375 C96.6838332,163.792873 100.894609,164.729859 104.61187,165.035978 C105.090408,162.752507 105.854975,158.863192 106.331322,155.207667 L104.462098,152.985202 L109.137166,150.437987 L112.143924,153.274151 L110.445659,155.379722 C110.350317,158.687119 110.417531,162.574973 110.475248,164.853329 C114.73534,164.073055 116.864289,162.001457 116.864289,162.001457 C116.876344,158.029585 116.280545,154.094973 116.280545,154.094973 C114.307942,150.743375 111.962006,148.214791 111.962006,148.214791 C111.04365,144.733147 111.636527,137.429403 112.955614,133.791412 C112.955614,133.791412 116.067942,137.458627 118.243285,145.041458 L116.630134,147.1368 C116.630134,147.1368 118.104837,152.585567 118.12639,156.268489 C118.152691,160.960361 118.725476,167.852416 109.012965,173.577347 C108.665568,172.984836 108.032874,171.990133 107.334427,171.309219 C104.860637,174.833603 98.2162533,176.24584 93.503194,173.918534 C89.5992672,171.966754 86.6933312,168.34374 85.445112,162.979357 C84.2995413,157.526206 86.7565275,151.831229 89.6317786,150.027394 C89.6317786,150.027394 87.1302261,149.374973 84.9483084,151.36511 C84.8880344,146.845658 83.7388107,143.185019 82.0262993,139.182462 L87.8571668,140.433238 L87.8294042,147.33333 L87.8294042,147.33333 Z" id="path164" fill="#2D7BC8"></path>
                        <polyline id="path166" fill="#0E2B58" points="176.801822 23.4122369 177.323466 23.4122369 177.323466 21.5131319 177.95616 21.5131319 177.95616 23.4122369 178.478534 23.4122369 178.478534 23.9482003 176.801822 23.9482003 176.801822 23.4122369"></polyline>
                        <polyline id="path168" fill="#0E2B58" points="180.612964 23.9482003 180.090954 22.6465382 179.597073 23.9482003 178.974973 23.9482003 178.561822 21.5131319 179.191228 21.5131319 179.393603 22.9146661 179.400909 22.9146661 179.957986 21.5131319 180.210041 21.5131319 180.793785 22.9146661 180.799995 22.9146661 180.97753 21.5131319 181.609858 21.5131319 181.241639 23.9482003 180.612964 23.9482003"></polyline>
                        <polyline id="path170" fill="#0E2B58" points="80.6516875 51.9736973 80.6516875 35.698337 82.1680345 34.4116886 83.6836509 35.698337 83.6836509 51.9736973 82.1680345 53.2588115 80.6516875 51.9736973"></polyline>
                        <polyline id="path172" fill="#0E2B58" points="169.569311 61.768035 167.391046 63.6171674 165.212051 61.768035 165.212051 53.8663 169.569311 53.8663 169.569311 61.768035"></polyline>
                        <polyline id="path174" fill="#0E2B58" points="103.280728 46.354702 104.79671 46.354702 106.312326 47.6405468 106.312326 50.8957065 104.79671 52.1811859 103.280728 52.1811859 103.280728 46.354702"></polyline>
                        <polyline id="path176" fill="#0E2B58" points="141.844015 50.8949759 140.328033 52.1808206 138.812051 52.1808206 138.812051 35.4783187 140.328033 35.4783187 141.844015 36.7638347 141.844015 50.8949759"></polyline>
                        <path d="M173.704471,29.2701363 C173.703375,29.2724011 173.702644,29.274118 173.701548,29.2763828 C172.78027,31.1354147 171.329676,32.7883827 169.59269,33.9568941 L169.588672,46.3123276 L165.244927,46.3123276 L165.244927,37.0549762 C163.335521,38.2736063 160.952325,38.9216429 158.388672,38.9139716 L158.388672,38.9121451 C158.175704,38.9114146 157.962736,38.9066657 157.747941,38.8978986 C157.737713,38.897168 157.728215,38.897168 157.718352,38.8968027 C157.545567,38.8891314 157.371686,38.8759808 157.197804,38.8620995 C156.338626,38.7923278 155.466297,38.6546109 154.587759,38.4365287 L154.587759,45.8494966 L151.51269,48.0372591 L154.587759,50.2264828 L151.51269,52.4146106 L154.512873,54.603469 L154.512873,68.4456604 L157.317622,71.1820987 L177.687301,71.1810028 L180.304288,68.2699526 L180.304288,32.0072686 L182.764927,29.2701363 L173.704471,29.2701363 Z M152.12785,29.2701363 L154.587759,32.0072686 L154.587759,34.2578622 C155.284745,32.5060083 155.54374,30.7137527 154.813877,29.800949 C154.468672,29.3691317 153.348672,29.2806933 152.495704,29.2701363 L152.12785,29.2701363 Z M167.512325,15.0151229 C163.627393,11.6602372 159.046937,10.83547 153.579174,10.83547 L112.259723,10.83547 C105.434153,10.83547 102.32913,8.9804564 102.32913,8.9804564 C102.32913,8.9804564 99.225203,10.83547 92.3985365,10.83547 L51.0794508,10.83547 C45.6120537,10.83547 41.0315971,11.6602372 37.1455698,15.0151229 C34.7538621,17.0783557 32.7957983,21.3033785 33.969022,25.5715062 C34.3443279,26.9354879 35.0015699,27.9423555 35.5978804,28.635981 C36.2535516,22.2304652 41.7552501,21.0615155 41.7552501,21.0615155 C39.7347935,22.753278 37.7760721,27.6248395 39.3822821,30.9626294 C40.269588,32.8069398 42.8273962,34.9958713 45.5886747,34.640401 C44.2531496,32.1990494 44.1066656,28.7193052 46.2122363,26.8731317 C47.8162545,25.4674697 51.8893138,25.0473784 56.0073045,25.0473784 L148.650955,25.0473784 C152.769311,25.0473784 156.84164,25.4674697 158.447119,26.8731317 C160.551594,28.7193052 160.405475,32.1990494 159.06995,34.640401 C161.830864,34.9958713 164.389402,32.8069398 165.275612,30.9626294 C166.881822,27.6248395 164.924562,22.753278 162.903375,21.0615155 C162.903375,21.0615155 168.404014,22.2304652 169.059722,28.635981 C169.657713,27.9423555 170.314882,26.9354879 170.689311,25.5715062 C171.863009,21.3033785 169.903923,17.0783557 167.512325,15.0151229 Z M30.9399079,29.2763828 C30.9380814,29.2726933 30.9365106,29.2686751 30.9346476,29.2649856 L21.9042552,29.2649856 L24.3671592,32.0014239 L24.3671592,45.8480354 L21.2870862,48.0387203 L24.3671592,50.2268481 L21.2870862,52.4157065 L24.3671592,54.6056607 L24.3671592,68.4536969 L22.936657,71.1890393 L48.7905011,71.1890393 L48.7905011,59.7413684 L45.7066655,61.9294962 L35.0154146,61.9294962 L35.0154146,54.8555237 L42.6268482,54.8555237 L45.7063002,57.0451127 L45.7063002,43.4078528 L42.6268482,45.5970765 L35.0154146,45.5970765 L35.0154146,33.9342092 C33.2932229,32.7668302 31.8554513,31.1229947 30.9399079,29.2763828 Z M43.3282181,87.5828289 C42.9267569,87.494427 41.8213688,87.4359795 41.8213688,87.4359795 L41.8213688,92.8997237 C42.3083094,92.7430114 42.8113231,92.6217328 43.3282181,92.5424634 L43.3282181,87.5828289 Z M35.9124009,92.2074863 C34.8535882,92.3481255 34.082337,93.159815 34.082337,93.159815 C33.9362183,93.4049292 33.8337526,93.6416415 33.7627024,93.8641072 C35.0923096,94.252783 36.5687662,94.713057 37.7760721,95.4177145 C38.0690401,95.1156141 38.3810036,94.832509 38.710136,94.5698606 C38.9873963,94.3484908 39.2767113,94.1428287 39.5769853,93.9521438 C39.2792684,93.7497693 38.9892228,93.5685821 38.710136,93.407121 C37.123652,92.4905913 35.9124009,92.2074863 35.9124009,92.2074863 L35.9124009,92.2074863 Z M31.1321271,98.0014587 C30.8617344,99.3797235 30.6155974,101.112692 30.6155974,101.112692 C30.6155974,101.112692 30.2552687,99.9408194 30.1967846,97.938993 C28.848328,97.3486734 27.7809673,96.9841072 27.7809673,96.9841072 C27.2622824,97.2259336 26.2498624,97.745751 25.6269948,98.0694039 C25.131835,99.2785363 24.9132414,100.824472 24.9132414,100.824472 C24.9132414,100.824472 24.6295519,99.8257509 24.697351,98.2348834 C23.6942095,97.9660249 22.5338077,97.8239245 22.5338077,97.8239245 C22.0253876,97.9813674 21.3390314,98.3258423 20.8624287,98.5778971 C20.2110315,99.6460249 19.527963,101.096618 19.527963,101.096618 C19.527963,101.096618 19.5553602,99.8889473 19.8571685,98.7017327 C18.610447,98.2348834 17.6696617,98.2001802 17.6696617,98.2001802 C16.3276343,99.8491299 15.192511,104.677258 15.192511,104.677258 C15.6141731,105.233239 16.5852051,106.535888 16.5852051,106.535888 C17.2522735,106.798901 19.1615338,107.327486 19.1615338,107.327486 C19.8300634,108.119449 21.9461912,109.308856 21.9461912,109.308856 C23.7441455,108.842372 25.3658806,108.157075 25.3658806,108.157075 C27.3250404,109.093331 28.6356888,109.152143 28.6356888,109.152143 C30.1389947,108.455888 31.3782641,107.59123 31.3782641,107.59123 C32.5876156,108.007303 34.2107754,108.269952 34.2107754,108.269952 C34.8202,108.078536 35.6317069,107.480545 36.2238895,106.994701 C35.4479261,105.588673 35.0052959,103.972965 35.0052959,102.253148 C35.0052959,100.909221 35.2758347,99.6284907 35.7642731,98.4617327 C35.6783553,98.0810934 35.6248393,97.8546094 35.6248393,97.8546094 C34.8286384,97.4966186 33.3510129,96.9749747 33.3510129,96.9749747 C32.7588302,97.1503172 31.6886567,97.7033766 31.1321271,98.0014587 L31.1321271,98.0014587 Z M9.61315044,98.4255683 C8.3296071,98.4255683 7.19875781,99.0535135 6.49530577,100.014975 C7.13026466,99.5528742 7.91083085,99.2832852 8.75528745,99.2832852 C10.626155,99.2832852 12.1870682,100.619176 12.5338079,102.390865 C12.6947942,101.852783 12.8862828,101.270134 13.1086024,100.66776 C12.498849,99.3446551 11.1645294,98.4255683 9.61315044,98.4255683 Z M41.8213688,117.113056 C41.8213688,117.113056 42.9545195,117.050956 43.3282181,116.965111 L43.3282181,111.965659 C42.8113231,111.88639 42.3083094,111.765111 41.8213688,111.608399 L41.8213688,117.113056 Z M50.6754325,102.253148 C50.6754325,99.0228286 48.0602728,96.4062076 44.8325103,96.4062076 C41.602556,96.4062076 38.9855698,99.0228286 38.9855698,102.253148 C38.9855698,105.482737 41.602556,108.101185 44.8325103,108.101185 C48.0602728,108.101185 50.6754325,105.482737 50.6754325,102.253148 Z M51.7143366,122.819358 C52.0577156,122.876344 53.8926014,124.169129 53.8926014,124.169129 C58.062099,129.125111 61.9470304,127.149586 62.8935144,126.547211 C60.0493136,122.006207 60.2896789,115.801641 60.2896789,115.801641 L58.5534232,118.939175 L54.5830123,121.218262 L54.8113228,123.318718 L52.633058,122.313422 L51.7143366,122.819358 Z M64.5245646,133.354517 C64.5245646,133.354517 78.5804547,135.802736 82.5556144,136.119083 C82.5556144,136.119083 79.119998,132.439083 76.350683,127.699723 C76.350683,127.699723 68.7802723,127.423924 66.1957974,126.983376 C66.1957974,126.983376 67.1203636,128.987029 68.3945188,130.651686 C66.5037426,130.416435 63.5594505,130.02228 61.5547017,129.62849 C61.5547017,129.62849 64.1599984,132.858079 64.5245646,133.354517 L64.5245646,133.354517 Z M82.7002719,173.00858 C83.1273039,173.03269 83.5937879,173.022096 84.0942445,172.947941 C84.0942445,172.947941 83.6500436,173.412964 82.9928746,173.865932 C83.2431029,174.54648 83.5265733,175.209493 83.8473038,175.848397 C84.3985367,175.738808 85.0210024,175.547393 85.6642901,175.220452 C85.6642901,175.220452 85.2175321,176.163283 84.4599066,176.965475 C85.6142444,178.924196 87.1024636,180.639265 88.8478517,182.028123 C89.5649293,181.486023 90.3989018,180.723283 91.1897694,179.736982 C91.1897694,179.736982 91.1696781,181.630315 90.3773493,183.121822 C90.8916872,183.448763 91.4231941,183.749767 91.970774,184.022644 C92.5921438,183.336982 93.3059337,182.329493 93.903194,181.109767 C93.903194,181.109767 94.3532397,183.130954 93.7976232,184.803648 C94.9943355,185.238717 96.2487647,185.551411 97.5517784,185.718352 C98.0230112,185.13132 99.3220066,183.432324 100.428125,181.255521 C90.5621895,181.203648 82.7232856,173.307393 82.1318701,163.217895 C81.9441075,164.233421 81.826482,165.274151 81.7928747,166.336434 C81.7172582,168.680909 82.0438336,170.926023 82.7002719,173.00858 L82.7002719,173.00858 Z M111.852783,187.373877 C111.852783,187.373877 110.006938,185.002005 108.500819,181.349037 C107.768034,183.69132 108.536618,185.916708 108.536618,185.916708 C107.101002,185.105384 106.370408,182.170589 106.370408,182.170589 C106.530408,184.279813 105.514153,186.845657 103.793239,187.607301 C104.897897,185.60584 105.111961,183.86374 103.796892,181.644562 C102.510682,185.962004 100.56365,188.402552 100.56365,188.402552 C103.826847,189.324196 108.974609,188.66447 111.852783,187.373877 L111.852783,187.373877 Z M103.923285,159.250042 C103.05607,158.769311 101.597075,158.096069 100.065751,158.076343 C98.778445,158.676891 97.7979884,159.569311 97.1718697,160.240727 C97.5974405,160.326937 98.0610021,160.417165 98.5453857,160.506297 C98.7441071,159.941914 99.172235,159.141549 100.069769,158.72511 C100.069769,158.72511 101.111961,159.072873 101.681093,159.746845 C102.315249,159.576617 103.05534,159.409311 103.923285,159.250042 L103.923285,159.250042 Z M113.699723,158.416434 C112.667029,158.611503 111.997075,158.957074 111.59671,159.250042 C111.803833,159.266845 112.085842,159.324197 112.431413,159.452781 C112.753604,159.214608 113.120362,159.089676 113.120362,159.089676 C113.839632,159.418809 114.05333,160.153055 114.10776,160.410955 C114.584837,160.310498 114.972052,160.201275 115.293513,160.108124 C114.926755,159.590498 114.378445,158.874882 113.699723,158.416434 Z M118.12639,156.268489 C118.104837,152.585567 116.630134,147.1368 116.630134,147.1368 L118.243285,145.041458 C116.067942,137.458627 112.955614,133.791412 112.955614,133.791412 C111.636527,137.429403 111.04365,144.733147 111.962006,148.214791 C111.962006,148.214791 114.307942,150.743375 116.280545,154.094973 C116.280545,154.094973 116.876344,158.029585 116.864289,162.001457 C116.864289,162.001457 114.73534,164.073055 110.475248,164.853329 C110.417531,162.574973 110.350317,158.687119 110.445659,155.379722 L112.143924,153.274151 L109.137166,150.437987 L104.462098,152.985202 L106.331322,155.207667 C105.854975,158.863192 105.090408,162.752507 104.61187,165.035978 C100.894609,164.729859 96.6838332,163.792873 92.2246552,162.343375 C92.4076689,161.421366 93.2982625,156.062097 94.4697693,154.117987 C94.4697693,154.117987 99.3961619,151.240544 106.49534,148.214791 C107.638353,144.733147 107.516344,137.429403 106.433239,133.791412 C97.1802715,136.044928 90.431048,142.526389 90.431048,142.526389 C90.431048,142.526389 88.9117786,144.973512 87.8294042,147.33333 L87.8571668,140.433238 L82.0262993,139.182462 C83.7388107,143.185019 84.8880344,146.845658 84.9483084,151.36511 C87.1302261,149.374973 89.6317786,150.027394 89.6317786,150.027394 C86.7565275,151.831229 84.2995413,157.526206 85.445112,162.979357 C86.6933312,168.34374 89.5992672,171.966754 93.503194,173.918534 C98.2162533,176.24584 104.860637,174.833603 107.334427,171.309219 C108.032874,171.990133 108.665568,172.984836 109.012965,173.577347 C118.725476,167.852416 118.152691,160.960361 118.12639,156.268489 L118.12639,156.268489 Z M141.842919,130.650956 C143.386663,128.967668 145.5189,125.847303 146.241458,124.771138 C145.460818,124.974974 144.670316,125.155431 143.872143,125.313604 C143.871047,125.313604 143.870316,125.313969 143.86922,125.313969 C140.990681,126.238536 136.970955,127.349769 133.202919,128.345202 C133.712508,127.651869 134.249494,126.889495 134.792325,126.076344 C134.769312,126.075613 134.747029,126.074152 134.724015,126.073422 C134.404015,126.064289 134.085476,126.048581 133.767303,126.031778 C133.670499,126.026664 133.573695,126.023741 133.476892,126.017896 C133.087485,125.994152 132.699175,125.964928 132.313056,125.930956 C132.293695,125.929495 132.274335,125.928764 132.254974,125.926937 C130.389768,126.401823 128.287851,126.915065 126.07196,127.416983 C123.192691,132.212965 119.885659,135.854608 119.885659,135.854608 C130.435065,134.022645 141.842919,130.650956 141.842919,130.650956 L141.842919,130.650956 Z M153.135704,118.13881 C156.832142,116.199084 160.065384,113.708856 162.797074,110.832143 L163.655886,109.925111 L158.734973,105.260271 C158.674334,105.273787 158.610407,105.286938 158.549402,105.300089 L157.797256,106.103011 C156.957804,106.991048 156.050042,107.830865 155.094791,108.622098 L153.878718,107.029404 C154.27543,106.700637 154.657896,106.359084 155.033055,106.012052 C153.604014,106.279449 152.099357,106.537349 150.547941,106.78502 L154.621731,112.164381 L155.616069,111.401641 C156.725841,110.572052 157.768033,109.674153 158.74301,108.728399 L160.084745,110.002554 C158.028854,112.019358 155.683284,113.814426 153.067759,115.310682 L148.94648,107.464107 L147.836709,108.0526 C145.452051,109.30776 142.855887,110.195066 140.105202,110.648764 L138.859905,110.851504 L140.017896,117.781915 L141.253695,117.579175 C142.614791,117.357075 143.956161,117.048034 145.259174,116.652782 L145.857531,118.409495 C143.096983,119.248947 140.182645,119.741367 137.180636,119.847303 L137.180636,110.967668 L135.896618,110.987029 C133.242736,110.987029 130.559266,110.581184 127.952874,109.722372 L127.05059,109.42429 C126.939906,109.43123 126.827759,109.438901 126.71744,109.445842 L124.574609,116.006207 L125.771686,116.401824 C127.084563,116.836161 128.4168,117.173696 129.748673,117.434518 L129.46849,119.268308 C126.640362,118.728034 123.822097,117.820271 121.110134,116.52712 L124.740454,109.557623 C123.688764,109.610956 122.685294,109.651504 121.748307,109.676344 C121.773878,109.691321 121.798353,109.70776 121.824289,109.722372 L117.702645,117.617897 L118.822645,118.196892 C122.528947,120.127486 126.418262,121.372417 130.327668,121.96091 L131.572234,122.154517 L132.615157,115.349404 L131.36986,115.16639 C130.163284,114.973148 128.947577,114.722189 127.750134,114.384289 L128.377714,112.473422 C130.452965,113.052417 132.557074,113.380454 134.661184,113.477257 L134.661184,122.38575 L135.915978,122.38575 C140.095339,122.38575 144.120179,121.690956 147.865202,120.406938 L149.062279,120.001823 L146.832873,113.486755 L145.645658,113.891869 C144.486937,114.287486 143.299722,114.615888 142.073786,114.866846 L141.746115,112.897897 C143.898444,112.444563 145.944471,111.749404 147.875065,110.832143 L152.015339,118.718171 L153.135704,118.13881 Z M165.682918,107.415522 L166.397073,106.372965 C167.235064,105.160545 167.985749,103.912691 168.659357,102.639632 L162.009128,104.459175 C161.865567,104.498262 161.712507,104.536984 161.565293,104.575705 L165.682918,107.415522 Z M171.898808,94.2111392 L165.268306,92.3389931 L164.930042,93.5455684 C164.592507,94.732783 164.187028,95.8907739 163.704105,97.0396323 L161.889676,96.1903172 C162.738991,94.172783 163.32785,92.0880342 163.675247,89.974427 L172.516525,91.0454772 L172.671046,89.8005457 C172.854425,88.2947923 172.941366,86.8083997 172.941366,85.33187 C172.941366,82.7258427 172.661548,80.1676692 172.14027,77.6968017 L171.879448,76.4708657 L165.152142,77.8900437 L165.412599,79.1258428 C165.663923,80.3221898 165.846936,81.5386281 165.953603,82.7835596 L163.945567,82.8705002 C163.75269,80.6893131 163.308489,78.5654775 162.642553,76.5388109 L165.664653,75.3884913 L159.538261,75.3888566 L159.872507,76.2491305 C160.828124,78.7682172 161.397622,81.4516875 161.523284,84.2312308 L161.571138,85.495523 L168.597987,85.1773495 L168.54027,83.9221897 C168.482188,82.5424637 168.33753,81.1810025 168.105567,79.839998 L169.919996,79.453514 C170.248032,81.3643815 170.422279,83.3336965 170.422279,85.33187 C170.422279,86.2966188 170.383557,87.271596 170.30648,88.2465731 L161.513055,87.1850207 L161.387393,88.1987193 L161.387759,98.7280341 L164.930042,100.389039 L165.470681,99.2599062 C166.059539,98.0047464 166.561457,96.7305912 166.986297,95.4374405 L168.771503,95.9393583 C168.155247,97.8487647 167.479083,99.5430112 166.58374,101.249678 L169.027576,101.919267 C170.08511,99.808582 170.929311,97.6321437 171.551777,95.4177145 L171.898808,94.2111392 Z M87.9199978,62.6498614 L89.0275777,64.7685829 L89.0275777,75.4838337 L86.6432855,77.1780803 L89.0275777,78.8726921 L86.6432855,80.5673039 L89.0275777,82.2619158 L89.0275777,92.980089 L87.9199978,95.0988104 L107.930591,95.0988104 L107.930591,86.2378061 L105.545933,87.9324179 L97.2697693,87.9324179 L97.2697693,82.4558883 L103.162007,82.4558883 L105.545933,84.1505002 L105.545933,73.594884 L103.162007,75.2894958 L97.2697693,75.2894958 L97.2697693,69.8158887 L105.545933,69.8158887 L107.930591,71.5108658 L107.930591,62.6494962 L87.9199978,62.6498614 Z M105.374609,124.550864 C105.374609,124.550864 93.4074862,121.405294 81.8721441,126.894609 C81.8721441,126.894609 83.5999979,129.732234 85.2032855,131.705933 C85.2032855,131.705933 90.8164361,126.092782 105.374609,124.550864 Z M118.100819,109.680363 C117.145568,109.661732 115.762189,109.634335 114.043833,109.599997 C114.536983,110.045659 115.037075,110.479632 115.550317,110.890226 L114.449678,112.386116 C113.352691,111.514518 112.300271,110.565111 111.299358,109.544837 C110.219175,109.523285 109.059723,109.499906 107.825385,109.475066 C109.675979,111.636162 111.737349,113.536436 113.957623,115.16639 L114.961458,115.918901 L119.044015,110.378445 L118.100819,109.680363 Z M159.779722,102.191048 C154.914699,101.080911 149.194517,100.075614 143.587211,99.2843811 C135.894791,98.198719 128.415705,97.5167099 123.651504,97.5247464 C123.02575,97.5247464 122.448947,97.5386277 121.931321,97.5583537 C115.509038,97.8436505 68.2739709,98.9570752 54.3514142,99.2843811 C54.2999073,99.2858423 54.2491311,99.2865729 54.1990854,99.288034 C54.4946105,100.223559 54.6553411,101.219358 54.6553411,102.253148 C54.6553411,103.242372 54.5077612,104.196162 54.2359804,105.096618 C54.2359804,105.096984 54.2359804,105.096984 54.2356151,105.097349 C68.0109572,105.416984 115.491139,106.536253 121.932052,106.824472 C122.4526,106.847486 123.027942,106.862098 123.65333,106.862098 C131.86301,106.874518 148.131503,104.836527 159.665019,102.216618 C159.702644,102.208217 159.742096,102.199815 159.779722,102.191048 L159.779722,102.191048 Z M92.0774406,136.985567 C96.0146095,133.857166 102.178993,130.337896 108.223924,128.797805 C109.759267,131.481275 109.851321,134.889129 109.851321,134.889129 C109.851321,134.889129 110.076344,131.713969 111.733331,129.061915 C100.824838,125.829403 91.5448379,132.183376 87.7395412,136.55744 L92.0774406,136.985567 Z M66.1037426,120.866481 C67.5119618,115.498445 69.8955234,111.561641 72.275432,108.755796 C70.5848384,108.721824 68.9311398,108.688216 67.3355234,108.65607 C64.3660258,115.207668 66.1037426,120.866481 66.1037426,120.866481 Z M68.5523271,66.5603636 L64.2619162,62.6703181 L55.0001813,62.6703181 L52.9932407,64.8997244 L52.9932407,75.4838337 L50.6089485,77.1780803 L52.9932407,78.8726921 L50.6089485,80.5673039 L52.9932407,82.2619158 L52.9932407,92.9815502 L51.8852955,95.0999063 L61.7775327,95.0999063 L61.9484916,95.0999063 L61.1086743,92.9815502 L61.1086743,69.812601 L62.7974414,68.3806376 L64.4865737,69.812601 L64.4865737,92.9815502 L63.6471217,95.0999063 L73.4399982,95.0999063 L72.6020073,92.9815502 L72.5998155,69.812601 L74.2882173,68.3806376 L75.9769844,69.812601 L75.9769844,92.9815502 L75.1378977,95.0999063 L75.308126,95.0999063 L85.2003632,95.0999063 L84.0931486,92.9815502 L84.0931486,64.8997244 L82.0858427,62.6703181 L72.5943361,62.6703181 L68.5523271,66.5603636 Z M50.7682179,42.3207295 L52.9110489,43.8436519 L50.7682179,45.3665742 L52.9110489,46.888766 L52.9110489,56.5209118 L51.9156151,58.4248387 L61.311414,58.425204 L60.3174414,56.5194506 L60.3174414,35.7049123 L67.7552494,35.7049123 L69.8973499,37.2277616 L69.8977151,29.2646933 L51.9156151,29.2646933 L52.9110489,31.168949 L52.9110489,40.7978072 L50.7682179,42.3207295 Z M71.2273955,42.3086747 L73.3673041,43.8297706 L71.2273955,45.3508664 L73.3673041,46.8719623 L73.3673041,56.3831949 L75.1883086,58.4058433 L89.1470297,58.4058433 L90.9683996,56.3831949 L90.9683996,31.2876705 L89.1470297,29.2646933 L75.1883086,29.2646933 L73.3673041,31.2876705 L73.3673041,40.7875789 L71.2273955,42.3086747 Z M104.79671,41.1094054 L103.280728,41.1094054 L103.280728,31.1503919 L104.974609,29.2649856 L94.1526917,29.2649856 L95.8644725,31.1675243 L95.8644725,40.7875789 L93.7245639,42.3083094 L95.8644725,43.8297706 L93.7245639,45.3508664 L95.8644725,46.8719623 L95.8644725,56.4924187 L94.8701346,58.3945191 L111.938627,58.3930579 L113.759632,56.3704095 L113.759632,45.928766 L111.938627,43.9061176 L113.759632,41.883104 L113.759632,31.1675243 L115.471778,29.2649856 L106.305751,29.2649856 L106.305751,39.8294054 L104.79671,41.1094054 Z M114.160362,62.6487656 L112.133331,64.8997244 L112.133331,75.4231945 L120.239632,72.7868475 L120.239632,69.8071215 L121.926938,68.376254 L123.613878,69.8071215 L123.613878,74.25461 L112.133331,80.066482 L112.133331,92.8255685 L114.160362,95.0765273 L129.693513,95.0765273 L131.719449,92.8255685 L131.719449,82.2980801 L123.613878,84.9373495 L123.613878,87.9189019 L121.926938,89.3490389 L120.239632,87.9189019 L120.239632,84.9859339 L131.719449,79.4312309 L131.719449,64.8997244 L129.693513,62.6487656 L114.160362,62.6487656 Z M127.452417,29.2646933 L118.058445,29.2646933 L119.053878,31.168949 L119.053878,40.7978072 L116.911413,42.3207295 L119.053878,43.8436519 L116.911413,45.3665742 L119.053878,46.888766 L119.053878,56.5209118 L118.058445,58.4248387 L127.454243,58.425204 L126.460636,56.5194506 L126.460636,31.1616796 L127.452417,29.2646933 Z M129.256252,42.3075789 L131.396161,43.8294053 L129.256252,45.3501359 L131.396161,46.8712317 L131.396161,56.4920534 L130.401823,58.3937885 L147.470316,58.3926926 L149.290955,56.369679 L149.290955,31.2890951 L147.470316,29.2665563 L129.684015,29.2646933 L131.396161,31.1667937 L131.396161,40.7868483 L129.256252,42.3075789 Z M152.210772,62.6487656 L140.168398,62.6487656 L142.073056,64.7656605 L142.073056,75.4710483 L139.692051,77.1627378 L142.073056,78.856619 L139.692051,80.5483085 L142.073056,82.2410938 L142.073056,87.9057512 L137.568946,87.9057512 L135.187942,86.2126006 L135.187942,95.0637419 L157.18648,95.0637419 L157.18648,86.2126006 L154.80511,87.9057512 L150.306115,87.9057512 L150.306115,64.7656605 L152.210772,62.6487656 Z M184.50447,33.6222823 L184.505201,69.8849298 L179.557256,75.3877607 L175.410407,75.388126 C176.21406,78.5800894 176.647667,81.9196327 176.647667,85.3607285 C176.647667,102.953787 165.498443,117.938262 149.879448,123.636161 C149.821366,124.689677 149.783375,125.27817 149.783375,125.27817 C146.96511,129.988307 144.143558,133.262828 144.143558,133.262828 C139.419175,135.40091 123.071047,138.572417 118.887303,139.363284 C119.616801,141.25333 120.265568,143.300818 120.781002,145.4389 L119.088216,147.753421 C121.389586,155.010772 121.03744,162.992873 118.714152,167.808215 C116.58228,172.229037 113.576618,174.790133 109.912691,177.602553 C109.912691,177.602553 112.642554,184.755794 116.786481,188.517986 C114.581184,189.803466 104.77881,194.00584 96.518719,190.536982 C96.518719,190.536982 77.9547012,184.881822 78.4807286,166.215156 C78.5921442,162.266297 79.7073953,158.559631 81.5269386,155.338809 C81.9499523,150.127485 79.7274866,143.06849 78.1705917,138.877805 C72.7105005,138.067211 64.4164367,136.802554 62.3174414,136.296618 C62.3174414,136.296618 59.7585373,133.122919 58.2476698,130.953787 C56.9256607,130.795978 54.8051128,130.238536 53.2091311,128.361275 C50.2546106,124.886207 48.3689486,124.188855 45.9064829,124.078536 L45.8929669,124.079266 C45.2858436,124.076344 44.7426473,124.076344 44.7426473,124.076344 L44.9457523,121.948125 L52.4664827,117.73954 C50.5019165,115.902098 48.8686746,113.811869 47.5236518,111.703376 C46.6995422,111.937897 45.8319623,112.068308 44.9347934,112.07744 L44.9347934,117.780819 C44.9347934,118.29954 43.5389943,118.719266 41.8213688,118.719266 C40.1041086,118.719266 38.710136,118.29954 38.710136,117.780819 L38.710136,109.938262 C38.5435607,109.804929 38.3799077,109.668673 38.2220995,109.525477 C37.3786292,110.267395 36.3048027,111.034883 35.1560904,111.412965 C34.1458256,111.347212 33.1248576,111.221915 32.1414056,110.977897 C31.6641088,111.263194 29.8440175,112.327668 28.9764376,112.570591 C28.9764376,112.570591 26.5502459,112.315979 25.290666,111.700819 C23.9902825,112.043468 22.6682369,112.331687 21.3361821,112.505203 C21.3361821,112.505203 18.7206205,111.353057 17.4221,110.005111 C16.9280726,109.858262 14.3802736,109.083102 13.6564015,108.743376 C13.4581914,108.411687 13.262575,108.078901 13.0686389,107.745385 C12.0676527,108.37881 10.88526,108.751778 9.61315044,108.751778 C6.03696789,108.751778 3.13884193,105.852783 3.13884193,102.276892 C3.13884193,98.7010021 6.03696789,95.8038332 9.61315044,95.8038332 C11.4847486,95.8038332 13.16968,96.5983537 14.3521823,97.8662989 C14.8879996,96.8642898 15.5212782,95.9046551 16.2648398,95.093331 C16.2648398,95.093331 18.3788489,95.0907739 20.0740452,95.5543355 C20.4433602,95.3932396 21.7000543,94.8588104 22.2651319,94.7159794 C23.0803282,94.7996323 23.9082368,94.886573 24.7037802,95.0871209 C25.0626478,94.8449291 26.212456,94.1504999 27.6233052,93.7019155 C28.6328395,94.0062077 29.6579719,94.3276689 30.6121636,94.7835593 C30.5847664,93.5470296 30.8395974,92.2739703 31.484602,91.2865731 L31.5109764,91.2485822 L31.5477983,91.2157055 C31.5716156,91.204016 33.8558896,89.3044727 36.3416247,88.9435594 C37.0732411,89.194153 37.8926018,89.4502261 38.710136,89.7537877 L38.710136,86.7638334 C38.710136,86.2458426 40.1041086,85.825386 41.8213688,85.825386 C43.5389943,85.825386 44.9347934,86.2458426 44.9347934,86.7638334 L44.9347934,92.4303173 C46.0880354,92.4427374 47.1941541,92.6513219 48.2195422,93.0279429 L48.7923275,91.9327831 L48.7923275,84.4131486 L43.3570765,80.550135 L45.7420993,78.8555231 L43.3578071,77.160546 L45.8498619,75.390683 L15.999269,75.390683 L20.1661,67.4217335 L20.1661,56.7736972 L14.0359449,52.416437 L17.114995,50.2283092 L14.0366754,48.0412773 L20.1661,43.6814601 L20.1661,33.6142823 L12.469333,25.0640724 L29.7106111,25.0640724 C29.49757,23.3271958 29.5907573,21.5452415 29.9283645,19.8414607 C30.5064102,16.9315064 31.8713051,14.3189038 34.0050037,12.248438 C36.0517982,10.2634153 38.6206383,8.91437421 41.3289487,8.06907742 C44.4043825,7.111598 48.8902271,6.76270303 52.1004553,6.76270303 L92.597258,6.76270303 C95.806025,6.76270303 100.505934,5.58904096 102.320728,4.05950675 C104.135523,5.58904096 108.835431,6.76270303 112.044198,6.76270303 L152.541001,6.76270303 C155.751594,6.76270303 160.237074,7.111598 163.312507,8.06907742 C166.020818,8.91437421 168.589585,10.2634153 170.636708,12.248438 C172.770407,14.3189038 174.135155,16.9315064 174.71342,19.8414607 C175.050955,21.5452415 175.144105,23.3271958 174.931137,25.0640724 L192.198351,25.0640724 L184.50447,33.6222823 L184.50447,33.6222823 Z" id="path178" fill="#0E2B58"></path>
                        <path d="M107.305203,168.966936 L105.370226,167.810041 C96.4814588,167.368763 88.7663905,164.309402 88.7663905,164.309402 C89.3143357,157.368763 92.1453858,151.797987 92.1453858,151.797987 C94.6111392,150.062827 103.743559,145.953238 103.743559,145.953238 C104.656801,142.208946 104.017532,137.551412 104.017532,137.551412 C100.820819,138.491321 95.3508652,141.106115 92.2297694,142.656435 C95.7052031,139.697531 100.595797,136.794882 105.501367,135.364745 C106.248764,139.136435 106.401824,143.53059 105.437806,147.277074 C101.383376,149.028672 97.3548834,150.941366 93.5419155,153.178809 C92.1742443,155.856434 91.047669,160.793421 90.7488562,163.208398 C97.8056597,165.770589 105.631048,166.403649 105.631048,166.403649 C106.434701,162.562188 107.171139,158.709768 107.670865,154.815339 L106.446755,153.360361 L108.934427,152.005476 L107.562737,166.512507 C107.562737,166.512507 111.193422,166.440544 115.795066,164.302827 C113.690956,166.210042 108.968764,167.82648 108.968764,167.82648 L107.305203,168.966936" id="path180" fill="#0E2B58"></path>
                        <path d="M43.0173505,99.3497692 C42.1673049,99.3497692 41.3680355,99.5715044 40.6787204,99.9634678 C41.4936976,98.5399062 43.0286747,97.5810021 44.7868482,97.5810021 C47.3928755,97.5810021 49.504291,99.6938788 49.504291,102.300271 C49.504291,104.056984 48.5417339,105.591596 47.1185376,106.403285 C47.5090399,105.713605 47.7358892,104.917988 47.7358892,104.067943 C47.7358892,101.460454 45.622282,99.3497692 43.0173505,99.3497692" id="path182" fill="#0E2B58"></path>
                        <path d="M114.154518,146.592508 C115.488216,148.943923 116.353239,151.808581 116.353239,151.808581 C114.977166,149.742827 113.64639,148.186298 113.127303,147.599996 C112.910682,146.628307 112.794152,145.250407 112.796344,143.749038 C112.799632,141.502828 113.048399,138.94027 113.463741,136.84164 C114.631961,138.882554 116.832508,144.778079 116.832508,144.778079 C115.49954,142.459905 114.245842,140.747759 114.245842,140.747759 C114.245842,140.747759 113.787394,143.670133 114.154518,146.592508" id="path184" fill="#0E2B58"></path>
                    </g>
                </g>
            </g>
        </g>
    </g>
</svg>