<?xml version="1.0" encoding="UTF-8"?>
<svg width="200px" height="200px" viewBox="0 0 200 200" version="1.1" xmlns="http://www.w3.org/2000/svg" xmlns:xlink="http://www.w3.org/1999/xlink">
    <!-- Generator: Sketch 54.1 (76490) - https://sketchapp.com -->
    <title>western-ore</title>
    <desc>Created with Sketch.</desc>
    <defs>
        <polygon id="path-1" points="0 0.507 198.786466 0.507 198.786466 127.5 0 127.5"></polygon>
    </defs>
    <g id="western-ore" stroke="none" stroke-width="1" fill="none" fill-rule="evenodd">
        <g id="western-ore_BGL" transform="translate(0.000000, 0.000000)">
            <g id="Group-36" transform="translate(0.000000, 36.000000)">
                <g id="Group-3" transform="translate(0.000000, 0.993600)">
                    <mask id="mask-2" fill="white">
                        <use xlink:href="#path-1"></use>
                    </mask>
                    <g id="Clip-2"></g>
                    <path d="M126.251128,2.0055 C126.251128,2.0055 122.657143,1.617 119.538346,1.353 C96.9278195,-0.5565 74.0541353,0.771 51.8120301,5.265 C51.8120301,5.265 45.6691729,6.4755 37.1067669,8.724 C28.518797,10.9815 11.0345865,17.208 0,22.092 L7.9518797,36.234 L21.8390977,74.1705 C27.9052632,71.895 37.4736842,68.9715 43.4601504,67.3755 L45.8210526,66.7695 C46.0105263,66.7245 46.2045113,66.6795 46.4015038,66.6345 L46.4015038,69.564 C46.4015038,90.522 60.3308271,104.967 72.1157895,113.4915 C84.1157895,122.169 96.3909774,126.5565 99.4496241,127.5 C102.509774,126.5565 114.784962,122.169 126.786466,113.4915 C138.003008,105.378 151.153383,91.896 152.396992,72.5445 C153.36391,73.2285 154.490226,73.7415 155.699248,73.983 C159.258647,74.7 162.145865,72.837 162.145865,69.8235 C162.145865,69.627 162.132331,69.432 162.108271,69.2355 C164.615038,69.9705 167.108271,70.743 169.584962,71.5665 C172.12782,72.411 174.852632,73.5795 177.6,73.383 C184.538346,72.8895 190.18797,67.953 190.18797,60.9765 L190.190977,34.929 L198.786466,22.041 C176.269173,11.955 150.897744,4.737 126.251128,2.0055 L126.251128,2.0055 Z M154.664662,66.9615 L153.86015,66.801 L153.86015,70.9755 L152.845113,70.773 L152.845113,66.5985 L152.049624,66.438 L152.049624,65.4855 L154.664662,66.009 L154.664662,66.9615 Z M158.484211,71.9055 L158.240602,68.1615 L158.225564,68.16 L158.061654,69.393 L157.627068,71.7315 L156.842105,71.5755 L156.347368,69.021 L156.17594,67.845 L156.17594,67.749 L156.162406,67.746 L156.01203,71.409 L154.921805,71.1885 L155.372932,66.153 L156.706767,66.4215 L157.204511,69.546 L157.218045,69.5505 L157.627068,66.6045 L158.989474,66.8805 L159.52782,72.114 L158.484211,71.9055 Z M187.440602,34.104 L187.440602,60.9165 C187.440602,63.5205 186.47218,66.2145 184.541353,68.022 C182.640602,69.831 180.045113,70.6455 177.584962,70.644 C176.078195,70.641 174.56391,70.371 173.073684,69.855 C165.36391,67.224 157.359398,64.965 149.157895,63.123 L149.157895,69.564 C149.157895,88.9125 136.302256,102.489 124.82406,110.79 C113.209023,119.19 101.344361,123.423 99.4496241,123.9705 C97.5578947,123.423 85.6917293,119.19 74.0781955,110.79 C62.6015038,102.489 49.7443609,88.9125 49.7443609,69.564 L49.7443609,63.0795 C40.8075188,65.082 32.0090226,67.6155 23.481203,70.6695 L10.4556391,35.0865 L3.87067669,23.3775 C33.1699248,10.3695 66.2451128,3.258 99.4451128,3.258 C132.422556,3.258 165.180451,10.635 194.690226,23.2335 L187.440602,34.104 Z" id="Fill-1" fill="#C4C6C8" mask="url(#mask-2)"></path>
                </g>
                <path d="M60.4741353,61.93425 C58.7974436,62.22675 57.1237594,62.53875 55.4530827,62.86875 L55.4530827,70.04475 C57.02,66.95025 58.7869173,64.22025 60.4741353,61.93425" id="Fill-4" fill="#FFFFFF"></path>
                <path d="M143.876241,70.89765 C143.879248,70.70265 143.888271,70.51065 143.888271,70.31565 L143.888271,62.99715 C142.088271,62.63715 140.280752,62.29965 138.465714,61.98015 C140.295789,64.46415 142.219098,67.46865 143.876241,70.89765" id="Fill-6" fill="#FFFFFF"></path>
                <path d="M137.970677,73.3791 C137.970677,73.3791 140.293985,75.1911 142.68797,79.5291 C143.146617,77.7981 143.480451,76.0071 143.677444,74.1576 C142.351128,73.8351 140.379699,73.4706 137.970677,73.3791" id="Fill-8" fill="#FFFFFF"></path>
                <path d="M55.6508271,74.05725 C55.8252632,75.75975 56.1124812,77.41425 56.5064662,79.01625 C58.795188,75.04725 60.9365414,73.37925 60.9365414,73.37925 C58.7726316,73.46175 56.9606015,73.76175 55.6508271,74.05725" id="Fill-10" fill="#FFFFFF"></path>
                <path d="M79.8902256,73.8039 C79.8511278,74.0844 79.8255639,74.3679 79.8255639,74.6559 C79.8255639,77.8569 82.2015038,80.4474 85.1338346,80.4474 C86.0887218,80.4474 86.9804511,80.1684 87.7548872,79.6854 L86.0932331,78.4434 C85.6691729,79.0134 85.0225564,79.3794 84.2962406,79.3794 C83.0180451,79.3794 81.9819549,78.2499 81.9819549,76.8549 C81.9819549,76.3974 82.0947368,75.9684 82.2902256,75.5979 L79.8902256,73.8039 Z" id="Fill-12" fill="#FFFFFF"></path>
                <path d="M95.0584962,72.4152 L90.2855639,74.6967 C88.7096241,70.8222 79.7607519,66.0867 75.1216541,69.2097 C80.2449624,68.9217 87.2615038,72.8397 90.1291729,78.8082 L95.0584962,72.4152 Z" id="Fill-14" fill="#FFFFFF"></path>
                <path d="M114.610226,79.3791 C113.88391,79.3791 113.235789,79.0131 112.811729,78.4416 L111.150075,79.6851 C111.924511,80.1666 112.817744,80.4471 113.772632,80.4471 C116.703459,80.4471 119.080902,77.8551 119.080902,74.6586 C119.080902,74.3676 119.055338,74.0826 119.016241,73.8036 L116.616241,75.5976 C116.811729,75.9696 116.924511,76.3986 116.924511,76.8531 C116.924511,78.2481 115.886917,79.3791 114.610226,79.3791" id="Fill-16" fill="#FFFFFF"></path>
                <path d="M123.782556,69.21015 C119.144962,66.08715 110.197594,70.82115 108.618647,74.69715 L103.847218,72.41415 L108.776541,78.80715 C111.645714,72.84015 118.662256,68.92065 123.782556,69.21015" id="Fill-18" fill="#FFFFFF"></path>
                <path d="M109.855188,102.16905 C110.634135,92.44305 111.795038,90.76305 111.795038,90.76305 C111.795038,90.76305 114.142406,100.70055 116.906316,106.06455 C124.862707,97.39605 134.328872,94.89105 134.328872,94.89105 C132.734887,84.82905 128.801053,83.06505 128.801053,83.06505 C131.880752,82.68855 134.975489,83.13105 134.975489,83.13105 C132.073233,77.80155 129.593534,74.66205 127.733383,72.86655 C128.668722,76.33905 128.062707,81.46455 126.766466,83.59455 C126.372481,82.58205 125.208571,81.29355 125.208571,81.29355 C125.208571,84.06855 123.133383,87.24555 119.903308,88.52805 C116.336391,89.94855 113.384511,88.04655 111.808571,86.67855 C116.554436,86.92305 120.318346,83.84955 121.058195,79.79505 C119.516842,82.32255 116.498797,84.18705 113.736391,84.18705 C112.032632,84.18705 110.282256,83.48355 109.104812,82.64505 C107.736391,84.85455 107.244662,91.80405 107.940902,93.76305 C105.682256,92.91705 103.601053,87.30555 102.067218,81.80505 C100.386015,85.44255 99.4536842,89.46255 99.4536842,89.46255 C99.4536842,89.46255 98.5198496,85.44255 96.8401504,81.80505 C95.3063158,87.30555 93.2251128,92.91705 90.9634586,93.76305 C91.6596992,91.80405 91.1694737,84.85455 89.8010526,82.64505 C88.623609,83.48355 86.8732331,84.18705 85.1694737,84.18705 C82.4070677,84.18705 79.3890226,82.32255 77.8476692,79.79505 C78.5875188,83.84955 82.3514286,86.92305 87.098797,86.67855 C85.5228571,88.04655 82.5709774,89.94855 79.0040602,88.52805 C75.773985,87.24555 73.698797,84.06855 73.698797,81.29355 C73.698797,81.29355 72.5333835,82.58205 72.1393985,83.59455 C70.8431579,81.46455 70.2386466,76.33905 71.173985,72.86655 C69.3138346,74.66205 66.8341353,77.80155 63.9318797,83.13105 C63.9318797,83.13105 67.0266165,82.68855 70.1063158,83.06505 C70.1063158,83.06505 66.173985,84.82905 64.5769925,94.89105 C64.5905263,94.89405 74.0491729,97.40055 81.9995489,106.06455 C84.7619549,100.70055 87.1123308,90.76305 87.1123308,90.76305 C87.1123308,90.76305 88.2732331,92.44305 89.0521805,102.16905 C89.3318797,105.69855 86.7168421,109.80855 85.7604511,112.24155 C89.7063158,114.48705 93.2311278,116.13255 95.7123308,117.19605 C95.9168421,116.50305 96.1724812,115.18455 95.8897744,113.43105 C95.8897744,113.43105 95.223609,112.46805 93.9258647,112.76205 C92.5198496,113.08005 91.9649624,114.61755 91.9649624,114.61755 C91.9649624,114.61755 90.0566917,114.90405 90.6732331,111.03555 C91.3514286,106.77855 92.6190977,105.81405 94.3634586,105.81405 L104.542406,105.81405 C106.286767,105.81405 107.554436,106.77855 108.232632,111.03555 C108.849173,114.90405 106.939398,114.61755 106.939398,114.61755 C106.939398,114.61755 106.387519,113.08005 104.98,112.76205 C103.683759,112.46805 103.01609,113.43105 103.01609,113.43105 C102.733383,115.18155 102.987519,116.50005 103.19203,117.19305 C105.683759,116.13555 109.211579,114.50655 113.163459,112.28655 C112.222105,109.86105 109.570977,105.71955 109.855188,102.16905" id="Fill-20" fill="#FFFFFF"></path>
                <polygon id="Fill-22" fill="#000000" points="152.049323 67.43025 152.844812 67.59075 152.844812 71.76675 153.85985 71.96925 153.85985 67.79325 154.664361 67.95675 154.664361 67.00425 152.049323 66.47775"></polygon>
                <polygon id="Fill-24" fill="#000000" points="157.626015 67.59735 157.216992 70.54485 157.204962 70.54035 156.707218 67.41585 155.37188 67.14585 154.922256 72.18285 156.010977 72.40185 156.162857 68.74035 156.176391 68.74335 156.176391 68.83785 156.346316 70.01385 156.842556 72.56835 157.626015 72.72585 158.060602 70.38585 158.226015 69.15435 158.239549 69.15585 158.484662 72.89835 159.526767 73.10835 158.988421 67.87485"></polygon>
                <path d="M99.4455639,4.2516 C66.2440602,4.2516 33.1703759,11.3631 3.87112782,24.3711 L10.4545865,36.0786 L23.4816541,71.6616 C32.0094737,68.6091 40.8079699,66.0756 49.744812,64.0731 L49.744812,70.5561 C49.744812,89.9061 62.6019549,103.4811 74.0771429,111.7836 C85.6921805,120.1836 97.5568421,124.4166 99.4500752,124.9656 C101.343308,124.4166 113.20797,120.1836 124.824511,111.7836 C136.301203,103.4811 149.158346,89.9061 149.158346,70.5561 L149.158346,64.1166 C157.358346,65.9571 165.362857,68.2191 173.074135,70.8486 C174.564361,71.3646 176.078647,71.6346 177.585414,71.6361 C180.045564,71.6391 182.639549,70.8246 184.540301,69.0141 C186.471128,67.2096 187.441053,64.5141 187.441053,61.9101 L187.441053,35.0976 L194.690677,24.2271 C165.180902,11.6286 132.423008,4.2516 99.4455639,4.2516 L99.4455639,4.2516 Z M103.191429,117.1911 C102.988421,116.4981 102.734286,115.1811 103.016992,113.4291 C103.016992,113.4291 103.683158,112.4706 104.979398,112.7631 C106.386917,113.0796 106.938797,114.6171 106.938797,114.6171 C106.938797,114.6171 108.848571,114.9051 108.233534,111.0351 C107.555338,106.7811 106.286165,105.8136 104.543308,105.8136 L94.3628571,105.8136 C92.6184962,105.8136 91.3508271,106.7811 90.6741353,111.0351 C90.0560902,114.9051 91.9643609,114.6171 91.9643609,114.6171 C91.9643609,114.6171 92.5192481,113.0796 93.9267669,112.7631 C95.2230075,112.4706 95.8891729,113.4291 95.8891729,113.4291 C96.1733835,115.1841 95.9177444,116.5026 95.7132331,117.1941 C93.2305263,116.1306 89.707218,114.4866 85.7598496,112.2411 C86.7162406,109.8066 89.3312782,105.6981 89.0515789,102.1686 C88.2726316,92.4426 87.1117293,90.7641 87.1117293,90.7641 C87.1117293,90.7641 84.7628571,100.7001 82.0004511,106.0641 C74.0485714,97.4031 64.5899248,94.8951 64.5778947,94.8906 L64.576391,94.8906 C66.1733835,84.8301 70.1057143,83.0646 70.1057143,83.0646 C67.026015,82.6881 63.9312782,83.1306 63.9312782,83.1306 C66.8335338,77.8011 69.3132331,74.6631 71.1733835,72.8661 C70.2380451,76.3401 70.8440602,81.4671 72.1403008,83.5956 C72.532782,82.5846 73.6981955,81.2931 73.6981955,81.2931 C73.6981955,84.0681 75.7733835,87.2451 79.0034586,88.5306 C82.5703759,89.9481 85.5222556,88.0461 87.0981955,86.6781 C82.3508271,86.9211 78.5884211,83.8491 77.8485714,79.7946 C79.3899248,82.3221 82.4064662,84.1866 85.1688722,84.1866 C86.8726316,84.1866 88.6245113,83.4816 89.8019549,82.6446 C91.1688722,84.8541 91.6590977,91.8036 90.9643609,93.7626 C93.2245113,92.9166 95.3057143,87.3051 96.8410526,81.8046 C98.5207519,85.4421 99.4530827,89.4651 99.4530827,89.4651 C99.4530827,89.4651 100.386917,85.4421 102.066617,81.8046 C103.601955,87.3051 105.681654,92.9166 107.940301,93.7626 C107.245564,91.8036 107.737293,84.8541 109.105714,82.6446 C110.283158,83.4816 112.033534,84.1866 113.735789,84.1866 C116.499699,84.1866 119.516241,82.3221 121.057594,79.7946 C120.317744,83.8491 116.555338,86.9211 111.80797,86.6781 C113.38391,88.0461 116.335789,89.9481 119.902707,88.5306 C123.132782,87.2451 125.209474,84.0681 125.209474,81.2931 C125.209474,81.2931 126.37188,82.5846 126.767368,83.5956 C128.062105,81.4671 128.669624,76.3401 127.732782,72.8661 C129.594436,74.6631 132.074135,77.8011 134.974887,83.1306 C134.974887,83.1306 131.88015,82.6881 128.800451,83.0646 C128.800451,83.0646 132.735789,84.8301 134.328271,94.8906 C134.328271,94.8906 124.862105,97.3956 116.905714,106.0641 C114.141805,100.7001 111.794436,90.7641 111.794436,90.7641 C111.794436,90.7641 110.633534,92.4426 109.854586,102.1686 C109.57188,105.7206 112.223008,109.8591 113.164361,112.2876 C109.210977,114.5061 105.683158,116.1351 103.191429,117.1911 L103.191429,117.1911 Z M84.2966917,79.3791 C85.0215038,79.3791 85.6696241,79.0131 86.0936842,78.4416 L87.7553383,79.6851 C86.9809023,80.1666 86.0891729,80.4471 85.1342857,80.4471 C82.2019549,80.4471 79.826015,77.8551 79.826015,74.6586 C79.826015,74.3676 79.8515789,74.0826 79.8906767,73.8036 L82.2891729,75.5991 C82.095188,75.9696 81.982406,76.3986 81.982406,76.8531 C81.982406,78.2481 83.0184962,79.3791 84.2966917,79.3791 L84.2966917,79.3791 Z M75.1222556,69.2106 C79.7598496,66.0876 88.7102256,70.8201 90.2861654,74.6961 L95.0590977,72.4146 L90.1282707,78.8076 C87.2606015,72.8406 80.2440602,68.9196 75.1222556,69.2106 L75.1222556,69.2106 Z M56.507218,79.0146 C56.1117293,77.4141 55.826015,75.7596 55.6515789,74.0571 C56.9598496,73.7616 58.7718797,73.4616 60.9372932,73.3791 C60.9372932,73.3791 58.7959398,75.0471 56.507218,79.0146 L56.507218,79.0146 Z M116.615489,75.5991 L119.016992,73.8036 C119.054586,74.0826 119.08015,74.3676 119.08015,74.6586 C119.08015,77.8551 116.704211,80.4471 113.77188,80.4471 C112.816992,80.4471 111.925263,80.1666 111.150827,79.6851 L112.812481,78.4416 C113.236541,79.0131 113.883158,79.3791 114.610977,79.3791 C115.887669,79.3791 116.925263,78.2481 116.925263,76.8531 C116.925263,76.3986 116.810977,75.9696 116.615489,75.5991 L116.615489,75.5991 Z M108.776391,78.8076 L103.847068,72.4146 L108.62,74.6961 C110.197444,70.8201 119.144812,66.0876 123.782406,69.2106 C118.662105,68.9196 111.645564,72.8406 108.776391,78.8076 L108.776391,78.8076 Z M137.970376,73.3791 C140.379398,73.4706 142.350827,73.8336 143.678647,74.1576 C143.481654,76.0071 143.146316,77.7981 142.687669,79.5291 C140.293684,75.1911 137.970376,73.3791 137.970376,73.3791 L137.970376,73.3791 Z M60.4741353,61.9341 C58.7869173,64.2201 57.02,66.9486 55.4530827,70.0446 L55.4530827,62.8686 C57.1237594,62.5401 58.7974436,62.2281 60.4741353,61.9341 L60.4741353,61.9341 Z M143.889173,70.3146 C143.889173,70.5111 143.88015,70.7031 143.877143,70.8996 C142.218496,67.4706 140.296692,64.4646 138.465113,61.9791 C140.281654,62.2986 142.089173,62.6376 143.889173,62.9976 L143.889173,70.3146 Z M81.0305263,17.1981 C81.0305263,12.9771 84.9147368,9.2211 89.7147368,9.0246 C99.0350376,8.6331 108.37188,8.8041 117.677143,9.5361 C120.410977,11.4846 123.141805,13.4826 125.86812,15.5301 L125.86812,47.8131 C125.866617,52.0386 122.000451,54.9951 117.203459,54.6306 C107.788421,53.9121 98.338797,53.7621 88.907218,54.1911 C86.2801504,52.5711 83.6545865,50.9961 81.0305263,49.4691 L81.0305263,17.1981 Z M43.9778947,45.0546 L37.8621053,62.2566 C33.9538346,63.3306 30.0666165,64.5066 26.2049624,65.7876 L14.6305263,34.1661 L10.3252632,26.5101 C16.8109774,23.8311 23.6936842,21.3381 30.3403008,19.2681 L26.2876692,30.0651 L32.8410526,44.5911 L44.5357895,15.3771 C45.2515789,15.1986 45.9688722,15.0231 46.6846617,14.8506 L55.2154887,39.0951 L61.6109774,21.3426 L58.4410526,12.4056 C65.2410526,11.1666 71.4109774,10.3596 78.2741353,9.7326 L73.7357895,19.5771 L62.013985,56.9901 C58.0365414,57.6366 54.0711278,58.3896 50.1222556,59.2461 L43.9778947,45.0546 Z M182.862105,33.7221 L182.862105,61.9086 C182.860602,66.1341 179.167368,68.1066 174.562857,66.5301 C174.531278,66.5136 174.499699,66.5001 174.469624,66.4851 C165.469624,63.4011 156.328271,60.8811 147.095188,58.9296 C144.435038,56.7516 141.768872,54.6186 139.095188,52.5366 L139.095188,21.5601 C137.370376,18.1161 135.641053,14.6946 133.910226,11.2896 C142.239549,12.5541 150.517744,14.2746 158.702707,16.4466 C156.83203,19.0926 154.955338,21.7581 153.075639,24.4506 L153.075639,50.8641 C158.514737,52.1646 163.917744,53.6631 169.274135,55.3611 L169.274135,28.9476 C167.433534,25.2231 165.586917,21.5211 163.734286,17.8461 C171.871128,20.2011 179.911729,23.0136 187.813985,26.2806 C186.168872,28.7406 184.517744,31.2216 182.862105,33.7221 L182.862105,33.7221 Z" id="Fill-26" fill="#000000"></path>
                <path d="M95.1451128,44.62125 C100.690977,44.51925 106.236842,44.61525 111.773684,44.90775 L111.773684,18.52575 C105.217293,18.17625 98.6488722,18.10575 92.0894737,18.31275 C93.106015,19.38975 94.1270677,20.47275 95.1451128,21.56175 L95.1451128,44.62125 Z" id="Fill-28" fill="#000000"></path>
                <path d="M62.013985,56.9904 L73.7342857,19.5789 L78.2741353,9.7314 C71.4109774,10.3599 65.2410526,11.1654 58.4410526,12.4044 L61.6109774,21.3399 L55.2154887,39.0939 L46.6846617,14.8494 C45.9673684,15.0219 45.2515789,15.1989 44.5357895,15.3774 L32.8410526,44.5899 L26.2876692,30.0654 L30.3403008,19.2684 C23.6936842,21.3369 16.8109774,23.8314 10.3252632,26.5104 L14.6305263,34.1649 L26.2049624,65.7879 C30.0666165,64.5084 33.9538346,63.3324 37.8621053,62.2569 L43.9778947,45.0564 L50.1222556,59.2479 C54.0696241,58.3914 58.0350376,57.6369 62.013985,56.9904" id="Fill-30" fill="#E21837"></path>
                <path d="M117.203609,54.63045 C122.000602,54.99495 125.866767,52.03695 125.868271,47.81295 L125.868271,15.52995 C123.141955,13.48245 120.411128,11.48445 117.677293,9.53595 C108.37203,8.80245 99.035188,8.63295 89.7148872,9.02445 C84.9148872,9.22245 81.0306767,12.97695 81.0306767,17.19795 L81.0306767,49.46895 C83.6547368,50.99595 86.2803008,52.57095 88.9073684,54.19095 C98.3389474,53.76195 107.788571,53.91195 117.203609,54.63045 M111.775038,18.52545 L111.775038,44.90895 C106.238195,44.61345 100.690827,44.51895 95.1449624,44.62095 L95.1449624,21.55995 C94.1269173,20.47245 93.1073684,19.39095 92.0893233,18.31245 C98.6502256,18.10545 105.217143,18.17595 111.775038,18.52545" id="Fill-32" fill="#E21837"></path>
                <path d="M163.734286,17.84385 C165.586917,21.52185 167.433534,25.22235 169.274135,28.94685 L169.274135,55.36185 C163.917744,53.66385 158.514737,52.16385 153.075639,50.86635 L153.075639,24.44985 C154.955338,21.75885 156.83203,19.09035 158.702707,16.44735 C150.517744,14.27235 142.239549,12.55485 133.910226,11.29035 C135.641053,14.69385 137.370376,18.11835 139.095188,21.56085 L139.095188,52.53585 C141.768872,54.62085 144.435038,56.75085 147.095188,58.93035 C156.328271,60.88035 165.469624,63.39885 174.46812,66.48735 C174.499699,66.50085 174.531278,66.51285 174.562857,66.52785 C179.167368,68.10735 182.860602,66.13485 182.862105,61.90785 L182.862105,33.72135 C184.517744,31.22085 186.168872,28.74135 187.813985,26.27835 C179.911729,23.01285 171.871128,20.20185 163.734286,17.84385" id="Fill-34" fill="#E21837"></path>
            </g>
        </g>
    </g>
</svg>