<?xml version="1.0" encoding="UTF-8"?>
<svg width="200px" height="200px" viewBox="0 0 200 200" version="1.1" xmlns="http://www.w3.org/2000/svg" xmlns:xlink="http://www.w3.org/1999/xlink">
    <!-- Generator: Sketch 54.1 (76490) - https://sketchapp.com -->
    <title>western-new-eng</title>
    <desc>Created with Sketch.</desc>
    <defs>
        <polygon id="path-1" points="0.000492062682 1.21967213 100.184184 1.21967213 100.184184 198.36 0.000492062682 198.36"></polygon>
        <polygon id="path-3" points="1.42320971 1.21967213 93.0107087 1.21967213 93.0107087 185.043414 1.42320971 185.043414"></polygon>
    </defs>
    <g id="western-new-eng" stroke="none" stroke-width="1" fill="none" fill-rule="evenodd">
        <g id="western-new-eng_BGL">
            <g id="western-new-eng" transform="translate(15.000000, 1.000000)">
                <path d="M83.5480214,9.82737705 C88.6360699,9.43229508 93.2384485,5.77655738 98.5660505,5.5257377 C104.732089,5.23393443 110.862031,5.43557377 116.990332,5.16508197 C119.50072,5.0552459 126.867808,9.86672131 129.383118,9.69459016 C136.118507,9.23229508 150.348963,7.47163934 155.89807,11.3847541 C158.705439,17.5159016 159.55372,20.2093443 160.233002,25.4011475 C161.036983,31.5454098 160.708827,37.8421311 158.610274,43.7667213 C157.760351,46.1618033 156.910429,49.0454098 155.802905,51.0667213 C153.349944,55.5421311 153.372915,53.7667213 154.84305,58.022459 C155.883303,61.0404918 156.634779,64.8257377 157.369847,67.6503279 C157.99006,70.0306557 158.119682,69.565082 158.577458,73.3486885 C158.825216,80.9355738 158.162342,88.6519672 158.77107,96.6339344 C160.318322,97.4962295 162.221623,102.956885 163.128973,104.701148 C164.049449,106.468361 165.31941,108.801148 166.175895,110.817541 C168.208817,115.601148 165.878915,116.77 163.051856,119.481475 C155.292623,126.922459 149.764847,136.868361 141.121235,143.855246 C139.180196,145.425738 136.796148,146.97 134.850186,148.284754 C132.134701,150.11918 128.442953,153.179836 126.326351,154.878197 C123.125196,157.447049 120.581992,159.638852 117.434983,162.276557 C115.246186,164.109344 112.492963,165.19623 110.172905,166.91918 C106.105419,169.940492 102.999429,173.830656 98.5611282,176.333934 C90.2801282,181.010984 90.457332,185.765082 83.2461184,192.122459 C80.6520505,186.906066 79.5806233,186.737213 78.4977107,183.430656 C76.2843029,176.673279 69.7490893,175.709344 64.5576718,173.224098 C62.4492738,172.215902 54.4225942,165.49623 53.1575553,163.879836 C50.6094291,160.615902 43.7920019,153.217541 39.4997301,153.510984 C37.8310602,149.879836 36.1591087,146.02082 32.2540602,144.891311 C28.5737981,143.825738 25.8533903,143.804426 25.1659049,141.771639 C23.4512932,136.706066 24.4603709,139.253607 20.9228563,136.94541 C18.8653223,135.602787 14.1809049,129.606066 12.761633,127.94541 C7.68999223,122.012623 2.81852621,119.797869 4.2771767,110.835574 C5.85068155,101.148689 11.9133515,91.5519672 10.6729243,80.527377 C9.89191456,73.5798361 10.2922641,67.8011475 11.8017786,61.0896721 C12.9683709,55.9060656 13.9364291,53.3962295 12.5007495,48.5683607 C10.5285359,48.6257377 11.3587689,44.1781967 9.49812816,44.5896721 C8.41849709,36.3519672 8.45787573,31.827377 9.30123495,23.0732787 C9.90668155,16.7781967 10.3726621,15.7536066 16.2876621,9.95688525 C20.9934097,9.68803279 25.0592544,9.57819672 29.7764874,9.11098361 C32.7003515,8.82081967 36.465934,10.0929508 39.3192447,9.21262295 C43.7608272,7.84377049 46.0382252,5.53229508 50.7324874,5.5257377 C58.2177107,5.5142623 64.9547398,5.9552459 71.8476427,8.16672131 C74.4958563,9.01754098 83.2149437,13.0503279 84.6194485,10.5437705" id="Fill-1" fill="#FCB813"></path>
                <path d="M38.5843408,47.83 C39.3751951,49.3463934 38.9518748,52.4283607 39.0339136,54.3480328 C39.0093019,54.5136066 39.3948845,53.7709836 39.9625932,53.4152459 C39.9707971,53.987377 40.5631175,57.9431148 40.8043117,59.0021311 C41.3096709,59.1414754 41.7690883,57.7185246 41.8773796,58.2365574 C42.2777291,60.1808197 42.7108942,61.7660656 44.0973505,65.43 C40.6927388,62.8463934 40.6927388,61.9201639 40.4991272,61.3742623 C39.9002437,61.8381967 39.9707971,61.982459 38.9666417,62.3693443 C38.487535,60.3660656 38.120001,58.8086885 37.6655058,56.5513115 C37.0797485,56.7759016 36.7991757,57.0119672 35.5210107,57.7759016 C35.8622922,56.4480328 35.9476126,54.9054098 36.3627291,53.4152459 C36.5809524,52.6332787 37.0059136,51.9103279 37.1289718,51.1201639 C37.3340689,49.7988525 37.0009913,47.9545902 36.9763796,46.5283607 C37.8098942,46.9283607 38.289001,47.2644262 38.5843408,47.83" id="Fill-3" fill="#221815"></path>
                <g id="Group-7" transform="translate(0.000000, 0.419672)">
                    <mask id="mask-2" fill="white">
                        <use xlink:href="#path-1"></use>
                    </mask>
                    <g id="Clip-6"></g>
                    <path d="M30.479068,11.9436066 C30.4429709,11.9829508 27.4173786,11.2845902 27.2418155,11.2091803 C27.1171165,11.1583607 26.0456893,11.0140984 25.7601942,10.8321311 C25.9127864,11.202623 25.8438738,12.0878689 25.7601942,12.5157377 C25.592835,12.2665574 17.5120097,10.8485246 13.887534,15.4255738 C13.9039417,15.5272131 14.2058447,15.5665574 13.887534,15.5780328 C10.4254951,19.517377 10.7651359,23.1714754 10.6699709,23.1518033 C10.7602136,24.5206557 10.6437184,26.5895082 10.2089126,27.7436066 C10.1613301,27.96 9.90536893,28.8222951 9.74949515,29.1222951 C9.82004854,30.7878689 10.8570194,31.9386885 10.8242039,33.56 C10.8143592,34.0009836 10.5354272,34.4370492 10.5928544,34.9370492 C10.6601262,35.5059016 11.0325825,35.6140984 11.3590971,36.2386885 C11.6183398,36.7321311 11.6790485,37.4337705 11.6659223,38.0747541 C11.6626408,38.1944262 11.6347476,38.9304918 11.6659223,39.6813115 C11.7020194,40.612459 11.7233495,41.7501639 12.0515049,42.5895082 C12.1253398,42.7829508 12.5667087,43.56 12.5863981,43.5845902 C13.2459903,44.355082 14.5520485,45.2468852 15.9565534,45.1911475 C17.3512136,45.1354098 18.3865437,44.7042623 19.1724757,43.8911475 C19.773,43.2239344 21.3579903,40.5403279 21.8535049,39.8354098 C22.065165,39.0567213 22.2997961,38.3977049 22.6968641,37.8452459 C22.6968641,37.8436066 23.2301165,36.8304918 23.3088738,36.4665574 C23.4450583,35.8452459 24.0619903,33.8419672 23.998,33.2534426 C23.322,33.1386885 23.0611165,34.1009836 22.3900388,34.2468852 C22.1882233,32.6255738 21.6303592,31.4796721 21.5466796,30.8813115 C20.1503786,31.1993443 20.3259417,33.2796721 19.9731748,34.2501639 C19.4333592,34.3829508 19.3513204,33.1059016 19.0198835,32.7944262 C18.9033883,31.3009836 18.5194466,31.0288525 18.7130583,29.4288525 C18.112534,29.407541 17.700699,30.302623 17.2576893,32.0288525 C17.0821262,33.1436066 16.8786699,34.1468852 17.0296214,35.3977049 C16.5275437,35.7403279 16.0156214,34.7796721 15.7252039,34.2468852 C15.2231262,33.3239344 14.9737282,32.102623 15.0360777,31.1108197 C15.1082718,29.9911475 15.0344369,28.5583607 15.3429029,27.5157377 C15.4331456,27.2157377 15.8056019,26.8009836 15.8794369,26.5960656 C16.0353107,26.1665574 16.0467961,25.764918 16.2617379,25.2960656 C16.8081165,24.1059016 17.5202136,22.517377 18.406233,21.4714754 C19.4628932,20.2222951 20.8952913,19.6108197 22.3900388,18.8681967 C27.4354272,17.4993443 29.714466,18.3747541 32.1165631,18.4845902 C33.9411068,18.5681967 35.4227282,18.617377 35.9461359,17.1845902 C36.9749029,16.4780328 37.8510777,18.3731148 36.9420874,18.712459 C36.8534854,19.6140984 36.3415631,20.0288525 36.0987282,20.8567213 C35.7787767,21.9501639 35.4670291,23.0714754 34.9501845,23.9944262 C34.3906796,24.9944262 33.8328155,25.8304918 33.2651068,26.7501639 C32.9353107,27.2862295 31.4750194,29.2616393 31.1960874,29.6583607 C30.4741456,30.6845902 30.0016019,31.9354098 29.2829417,33.0239344 C28.5823301,34.0829508 27.6241165,34.9731148 27.2155631,36.2386885 C26.8070097,36.4878689 25.4697767,38.907541 25.0694272,39.3763934 C23.9750291,41.4452459 20.0945922,48.4829508 18.7901748,49.4763934 C18.6933689,50.0829508 18.2257476,50.8059016 17.7171068,51.2354098 C18.0058835,51.9354098 17.311835,52.8485246 17.5645146,53.6845902 C17.6006117,53.9255738 17.3725437,53.9009836 17.2576893,53.9911475 C17.4791942,55.417377 16.378233,57.3518033 16.0320291,58.3534426 C15.9188155,58.3944262 15.9434272,58.4288525 15.7252039,58.5059016 C15.2313301,59.8354098 14.5028252,60.6419672 13.9646505,62.1009836 C13.953165,62.4731148 13.9991068,63.2255738 13.7349417,63.0977049 C14.0007476,64.4206557 14.4371942,65.9518033 13.9646505,67.5370492 C13.6643883,68.5436066 13.0458155,69.5288525 12.7389903,70.6747541 C12.5191262,71.4944262 12.2615243,72.56 12.1253398,73.5042623 C11.9940777,74.4272131 11.8611748,75.5714754 11.9743883,76.4140984 C12.0547864,77.0157377 12.4534951,77.502623 12.6635146,78.0960656 C13.2673204,79.812459 13.505233,81.6206557 13.505233,83.6829508 C13.9055825,83.5763934 14.5766602,83.3534426 14.8851262,83.6042623 C14.4913398,86.2698361 14.8293398,90.0091803 15.4200194,92.7845902 C15.562767,92.7829508 16.3962816,92.4567213 16.7227961,92.6304918 C16.7670971,92.655082 17.2215922,94.7681967 17.3003495,94.9780328 C17.6481942,95.9091803 18.0337767,96.8583607 18.6359417,97.6583607 C18.8738544,97.507541 19.0789515,97.2321311 19.6204078,96.9665574 C20.0880291,97.9059016 20.6491748,100.487869 20.8198155,101.046885 C20.985534,101.587869 22.2850291,103.881311 23.0036893,105.025574 C23.4516214,104.425574 23.5188932,104.56 24.2277087,103.420656 C24.9316019,104.56 26.1703883,106.632131 26.459165,107.346885 C26.900534,108.441967 27.5814563,110.173115 28.4395825,110.997705 C28.9876019,110.676393 29.0351845,110.407541 29.7423592,109.696066 C30.3133495,110.81082 31.2912524,112.456721 31.434,112.797705 C32.1575825,114.522295 33.2749515,115.666557 34.5678835,116.964918 C34.8172816,116.499344 35.2241942,116.253443 35.7147864,115.968197 C36.5023592,117.599344 39.0734563,122.453443 40.3893592,123.08623 C40.6879806,122.976393 40.6732136,122.705902 40.942301,121.83377 C43.3017379,123.196066 44.2419029,126.682951 46.5143786,128.137049 C46.7211165,127.805902 46.7276796,127.479672 47.0525534,127.064918 C49.149466,129.023934 52.3079612,131.200984 53.7912233,131.96 C53.970068,131.707541 53.925767,131.579672 54.1735243,131.043607 C56.1047184,132.148525 58.9711553,134.938689 59.9178835,133.417377 C60.6529515,131.848525 57.7225243,126.527213 57.6207961,125.304262 C54.8446019,120.420656 55.4205146,114.300984 54.8396796,108.920656 C54.7018544,107.656721 54.1686019,106.625574 53.7912233,105.43377 C52.8691068,102.497705 54.0734369,99.102623 52.0487184,96.4878689 C51.4941359,95.7698361 50.6360097,95.2665574 50.1290097,94.5108197 C49.0772718,92.9468852 49.6138058,90.917377 50.1798738,89.2878689 C51.0363592,86.8222951 52.0011359,84.517377 52.449068,81.9239344 C53.2087476,77.5108197 53.2284369,73.0698361 54.6575534,68.7845902 C55.2416699,67.0321311 56.0669806,65.3763934 56.8545534,63.7091803 C55.4828641,64.1501639 54.7330291,65.2140984 53.7141068,66.0059016 C52.926534,65.3763934 53.5844854,63.9518033 53.7912233,63.1731148 C51.6303204,63.8960656 50.4423981,65.5944262 49.1954078,67.2304918 C48.2536019,66.8944262 48.5390971,65.4091803 48.2010971,64.3222951 C47.1985825,64.5468852 46.8933981,65.4632787 46.4389029,66.2354098 C46.0073786,66.2468852 45.4347476,64.4272131 45.2887184,63.2501639 C45.1295631,61.9403279 45.1459709,60.6255738 46.6604078,59.6895082 C46.7736214,59.9714754 46.5767282,61.4747541 46.6686117,62.0255738 C47.3708641,61.0436066 47.9156019,59.9059016 48.8131068,59.117377 C49.1100874,60.1222951 49.4841845,60.9468852 49.8090583,61.8731148 C51.9486311,59.9370492 56.0899515,59.0927869 56.615,59.2714754 C56.5083495,59.8042623 56.460767,60.1485246 56.5477282,60.7255738 C57.7504175,60.9993443 59.4929223,59.617377 59.6881748,57.9698361 C57.3960097,57.8190164 53.2924272,57.5288525 50.6967184,55.5845902 C54.4557379,55.2731148 55.5222427,54.3665574 56.0883107,53.6845902 C53.3646214,53.712459 49.9042233,54.2878689 48.3536893,51.464918 C49.7056893,51.0632787 51.2857573,51.3518033 52.8707476,50.8534426 C38.8027282,47.8042623 42.4075146,42.6190164 45.7497767,40.3698361 C43.7759223,40.602623 42.6946505,40.6747541 40.0054175,41.6698361 C42.478068,38.3698361 47.379068,37.2436066 48.1026505,37.0009836 C45.9122136,37.1468852 44.7128058,37.3616393 36.4055534,39.6042623 C44.064699,34.6960656 48.3422039,34.7944262 51.1577767,35.0157377 C55.7634369,35.3780328 60.1607184,37.0944262 64.2511748,39.1616393 C66.7763301,40.4370492 74.9145825,45.8288525 76.7424078,46.5878689 C79.3430388,47.6681967 81.1560971,45.1403279 83.5401456,44.7567213 C84.5164078,44.5977049 86.9972621,43.8108197 87.2581456,45.4960656 C87.373,46.2304918 87.2745534,47.0632787 87.2794757,47.802623 C87.2926019,49.6272131 87.3008058,51.4518033 87.3122913,53.2763934 C87.328699,56.1567213 87.3483883,59.0370492 87.3697184,61.917377 C87.3959709,65.3862295 87.4271456,68.8567213 87.4632427,72.3255738 C87.5026214,76.1436066 84.5984466,79.812459 84.654233,83.6288525 C84.7116602,87.5501639 87.7306893,91.6157377 87.8143689,95.5354098 C87.8964078,99.2796721 87.989932,103.023934 88.1015049,106.766557 C88.203233,110.115738 88.3148058,113.464918 88.4673981,116.81082 C88.5838932,119.353443 88.7151553,121.896066 88.9481456,124.430492 C89.0892524,125.955082 89.8374466,125.261639 90.1130971,126.766557 C90.1639612,127.041967 91.5356505,128.728852 91.5897961,129.004262 C90.5068835,129.576393 87.1350874,129.912459 85.9668544,129.891148 C84.8183107,129.869836 83.6779709,129.90918 82.5392718,129.827213 C80.5227573,129.682951 78.4734272,129.582951 76.4798835,129.166557 C72.7520388,128.389508 68.9782524,126.453443 65.8230388,124.351803 C64.6876214,123.596066 63.5965049,122.38459 63.1059126,121.092787 C62.5414854,119.605902 63.2256893,117.953443 63.2125631,116.427213 C63.2010777,115.422295 62.8401068,114.573115 62.5989126,113.522295 C61.7736019,109.912459 62.4479612,105.946885 62.4446796,102.425574 C62.4446796,101.371475 62.5775825,100.082951 62.3692039,99.2108197 C62.5956311,96.0518033 61.6669515,92.7501639 63.9279417,90.0665574 C65.6934175,87.9698361 68.6550194,87.155082 71.2293981,86.602623 C72.7241456,86.2829508 74.2631942,86.0059016 75.7841942,85.8534426 C78.1026117,85.6222951 80.488301,85.4190164 82.765699,84.9714754 C83.1266699,84.1731148 83.4630291,82.0518033 82.8953204,81.2337705 C82.7066311,77.7977049 78.5078835,78.3714754 76.5373107,76.7190164 C75.6398058,75.3190164 75.2821165,73.3829508 73.5510971,72.8157377 C73.5724272,72.5386885 73.2475534,72.607541 73.2442718,72.3567213 C71.288466,71.4354098 69.076699,70.0501639 68.3416311,67.5370492 C67.6328155,65.0960656 68.5680583,63.1239344 69.4409515,62.0665574 C70.3122039,61.0108197 70.811,60.4813115 73.7660388,58.5370492 C73.0654272,58.3567213 72.3237961,58.5370492 68.8026893,60.0370492 C68.4810971,59.455082 71.4344951,56.6960656 71.7117864,56.5157377 C69.6624563,56.7386885 69.1521748,57.4567213 66.8862621,58.66 C67.1930874,57.502623 68.2152913,56.3042623 69.8019223,54.7927869 C64.0477184,57.4452459 61.0483786,62.7108197 58.6003398,68.2681967 C57.6749417,70.3665574 56.9776117,72.5731148 56.5592136,74.8288525 C55.9357184,78.1747541 56.4394369,81.8698361 55.3056602,85.0911475 C54.6034078,87.0895082 53.139835,89.0763934 53.5795631,91.312459 C53.8896699,92.9009836 55.1465049,94.0419672 56.1260485,95.2436066 C57.2434175,96.6091803 57.1039515,98.7944262 57.1154369,100.494426 C57.1269223,101.922295 56.8414272,103.455082 57.0744175,104.869836 C57.2844369,106.145246 58.0342718,107.305902 58.2820291,108.60918 C59.010534,112.425574 58.0342718,116.538689 59.3058738,120.253443 C59.7390388,121.528852 61.8195437,126.332131 62.1198058,127.637049 C62.5841456,129.650164 63.2831165,131.827213 64.1773398,133.696066 C66.1774466,137.881311 70.7223981,139.673115 74.7882427,141.199344 C75.8465437,141.594426 76.9032039,141.696066 78.0090874,141.874754 C79.2199806,142.069836 80.2060874,142.573115 81.2906408,143.107541 C83.6139806,144.256721 83.2382427,143.915738 85.7207379,143.743607 C87.0579709,143.651803 88.5609223,142.463279 89.8915922,142.132131 C90.7169029,141.925574 94.2642621,140.915738 95.0715243,140.855082 C95.8738641,140.792787 99.276835,138.389508 99.3769223,139.038689 C99.5951456,140.443607 99.8773592,142.356721 100.184184,143.743607 C100.167777,143.669836 93.317534,148.120656 93.0156311,148.269836 C91.7473107,148.900984 90.5380583,149.728852 89.6405534,150.838689 C87.7454563,153.181311 89.2664563,156.607541 90.4560194,159.230492 C86.2014854,158.078033 84.6164951,156.276393 84.4721068,154.043607 C83.9306505,155.732131 82.8198447,157.038689 80.5309612,157.069836 C81.6073107,153.68459 80.8377864,153.091148 80.6031553,152.027213 C79.8401942,148.576393 76.5963786,148.720656 73.7512718,146.602623 C72.9571359,146.01082 72.1022913,145.507541 71.2244757,145.050164 C70.4992524,144.673115 69.4196214,144.392787 68.8798058,143.746885 C68.4433592,144.438689 68.4975049,144.600984 67.9593301,146.117377 C65.7639709,143.671475 65.2700971,142.707541 62.2166117,140.304262 C62.1805146,140.264918 58.9990485,137.98623 57.2384951,137.087869 C57.0908252,137.351803 57.8554272,137.927213 57.8554272,138.863279 C56.541165,137.927213 55.2121359,137.189508 54.7100583,136.86 C54.1456311,136.491148 52.9101262,136.145246 52.3358544,135.866557 C51.9666796,135.682951 51.5581262,135.33541 51.1873107,135.099344 C50.3045728,134.537049 49.1461845,133.953443 48.5833981,132.956721 C46.6702524,132.158361 41.9874757,128.805902 41.1539612,127.982951 C41.0095728,128.171475 41.2786602,129.08623 41.0571553,128.925574 C40.0251068,128.174754 39.3753592,127.369836 38.9356311,127.012459 C38.1808738,126.400984 35.8312816,123.279672 35.2143495,122.491148 C35.1011359,122.58623 34.9551068,122.705902 34.5514757,123.446885 C33.8114854,122.571475 32.6678641,120.751803 32.2954078,120.063279 C32.3298641,120.069836 30.8564466,118.26 30.0475437,117.500984 C29.898233,117.656721 29.913,117.979672 29.6652427,118.03541 C26.9497573,115.179672 26.2458641,114.494426 25.2843689,112.405902 C25.2154563,112.255082 24.276932,110.628852 24.4574175,110.612459 C24.1768447,110.220656 23.9225243,110.945246 23.2498058,111.750164 C21.5007379,107.919016 18.5391359,103.099344 17.869699,102.271475 C17.282301,102.466557 17.267534,102.766557 16.4930874,102.732131 C15.4577573,100.704262 14.8063689,98.2944262 13.7349417,96.3009836 C13.2492718,96.3534426 13.3608447,96.4944262 12.8161068,96.9927869 C12.4961553,96.6501639 12.4452913,96.0354098 12.1253398,95.6895082 C11.7610874,95.7354098 11.8267184,96.2091803 11.5116893,96.3009836 C11.4362136,96.3239344 10.9046019,97.9534426 10.8077961,98.1501639 C9.61659223,100.566557 8.92746602,103.212459 7.76907767,105.658361 C6.74851456,107.812459 5.65739806,110.081311 5.37026214,112.476393 C5.05359223,115.11082 6.58771845,116.928852 8.32201942,118.68459 C13.5560971,123.989508 18.0895631,129.943607 23.4106019,135.173115 C25.394301,137.122295 29.6603204,141.971475 30.1722427,142.425574 C30.206699,141.774754 30.0048835,140.553443 30.941767,139.399344 C31.985301,141.345246 37.0831942,145.887869 37.1110874,145.919016 C38.9405534,147.927213 40.5091359,150.156721 42.374699,152.132131 C42.4961165,151.33377 42.2631262,151.091148 43.5462136,150.51082 C44.7144466,152.387869 49.7581942,157.937049 51.9404272,159.632131 C51.956835,158.676393 52.2111553,158.078033 52.6443204,157.789508 C57.5469612,164.920656 62.6317282,168.222295 63.7376117,168.982951 C63.6867476,168.304262 63.529233,168.161639 64.0345922,166.215738 C65.0420291,167.873115 69.363835,171.223934 71.4049612,172.091148 C73.2885728,172.889508 75.0770194,173.897705 76.8785922,174.861639 C78.7490777,175.864918 80.737699,176.889508 82.1668155,178.491148 C83.8289223,180.356721 84.331,181.945246 84.9758252,184.302623 C86.697,183.499344 88.4772427,183.461639 90.0819223,182.446885 C91.5553398,181.514098 97.2718058,178.730492 96.1724854,180.181311 C93.6620971,183.487869 90.0884854,188.543607 89.5798447,189.992787 C89.5174951,189.963279 88.3476214,194.925574 89.2959903,198.36 C86.2113301,198.155082 83.3711456,197.661639 80.8656796,195.751803 C78.6883689,194.100984 76.9163301,191.90918 75.9794466,189.330492 C75.3674369,187.641967 75.0671748,185.856721 74.7619903,184.092787 C74.2960097,184.150164 74.0695825,184.587869 73.6380583,184.689508 C72.7586019,184.892787 72.9013495,184.099344 72.7454757,183.404262 C72.4452136,182.071475 71.9611845,180.799344 71.1736117,179.679672 C69.7609029,177.673115 68.121767,176.191148 66.1315049,174.83377 C66.1971359,175.651803 66.0527476,176.012459 65.1864175,177.237049 C63.6145534,175.920656 61.9770583,174.678033 60.9548544,173.725574 C58.7791845,171.697705 56.9464369,169.340328 54.7281068,167.351803 C54.6050485,167.98623 54.5180874,168.161639 54.0127282,168.594426 C51.7057961,166.145246 48.6112913,162.800984 47.8253592,161.858361 C47.026301,160.897705 46.2288835,160.527213 45.0097864,159.278033 C44.6406117,159.878033 44.711165,160.371475 43.8497573,160.96 C38.9503981,156.51082 35.0830874,149.928852 33.0813398,147.863279 C33.0107864,148.93377 33.3159709,150.474754 32.6120777,151.800984 C31.786767,150.56 19.3283495,136.830492 18.2552816,135.861639 C18.1601165,136.237049 17.9943981,136.953443 17.128068,138.394426 C16.3027573,137.469836 14.688233,133.143607 2.1691068,117.956721 C1.92463107,117.845246 0.848281553,118.955082 0.669436893,119.038689 C0.82038835,118.968197 0.16407767,117.08623 0.129621359,116.905902 C-0.713737864,112.58459 2.81393204,109.137049 3.76558252,105.21082 C3.18638835,105.158361 2.53992233,104.922295 1.78516505,104.643607 C2.92058252,103.387869 4.27914563,101.312459 5.15532039,99.5927869 C5.73287379,98.4567213 6.90274757,97.2878689 7.58531068,96.2796721 C6.93720388,96.1354098 6.21690291,95.9911475 5.23243689,95.6140984 C5.76897087,94.7452459 6.63530097,94.312459 7.22269903,93.4714754 C7.80517476,92.6436066 9.19491262,89.3960656 9.29007767,88.6518033 C10.0366311,82.8108197 9.55916505,79.9977049 9.21460194,76.4140984 C7.59843689,77.0780328 6.36949515,76.8108197 5.07820388,76.0288525 C6.14306796,74.3714754 7.06354369,72.5731148 7.83634951,70.4436066 C8.22029126,69.3862295 8.89793204,68.5255738 8.52547573,66.9222951 C8.06605825,66.4567213 6.76656311,66.6911475 6.07415534,66.1583607 C5.86085437,65.5698361 6.71569903,65.4321311 6.68780583,64.7796721 C8.05621359,63.1140984 9.01442718,61.0337705 9.98084466,58.964918 C10.5354272,58.1665574 11.080165,57.3583607 11.2819806,56.2108197 C12.1319029,55.264918 12.675,53.1616393 12.2040971,51.6190164 C12.1860485,51.407541 11.9169612,51.4436066 11.8185146,51.312459 C11.5953689,51.0616393 11.5789612,50.4370492 11.4362136,50.0878689 C11.1425146,49.3796721 10.1235922,48.6944262 9.82825243,47.717377 C9.32781553,47.3944262 8.75518447,47.1632787 8.37124272,46.5698361 C7.94956311,45.9157377 7.29653398,44.6386885 7.0701068,43.8911475 C6.93228155,43.4321311 7.07338835,42.9468852 6.99299029,42.512459 C6.87157282,41.855082 6.29237864,41.1140984 6.22838835,40.5239344 C6.09384466,39.2960656 6.49091262,38.1108197 5.99867961,37.002623 C5.87726214,36.7304918 5.41292233,36.4288525 5.23243689,36.007541 C4.76153398,34.917377 4.62534951,32.8977049 5.00272816,31.7222951 C5.12086408,31.3534426 5.46870874,31.0632787 5.53926214,30.6518033 C5.69021359,29.7665574 5.53598058,28.8304918 5.61637864,27.9731148 C5.69841748,27.055082 5.52941748,26.1419672 5.61637864,25.2960656 C5.78537864,23.612459 6.34980583,22.264918 6.76328155,20.7813115 C5.98391262,20.664918 5.17008738,21.2108197 5.00272816,21.1632787 C4.69098058,20.1091803 5.28658252,18.7845902 5.61637864,17.8731148 C7.33427184,15.7403279 8.95371845,13.5042623 11.2819806,11.9796721 C11.3755049,11.6911475 11.5773204,11.5091803 11.7430388,11.2911475 C11.3279223,10.8157377 10.3664272,11.2190164 10.1334369,10.6796721 C10.9275728,8.28786885 13.8858932,7.86983607 16.7982718,7.31245902 C17.252767,7.22557377 19.574466,7.11737705 19.8616019,7.08295082 C19.9387184,6.2452459 19.8632427,6.40098361 19.3267087,5.24688525 C22.3719903,4.57803279 25.8750485,5.13704918 28.516699,5.70590164 C28.4674757,5.26983607 27.9309417,4.86327869 27.958835,4.35016393 C29.4420971,4.23540984 33.183068,5.28131148 34.1855825,5.70590164 C35.9887961,6.47311475 37.7477087,7.46163934 39.2391748,7.16 C40.7322816,6.85672131 41.9382524,5.26983607 43.910466,5.01737705 C43.9170291,4.6747541 43.6725534,4.54196721 43.8349903,4.25180328 C46.4815631,3.58295082 48.9443689,2.85836066 52.3358544,3.10262295 C52.4392233,2.94688525 52.0503592,2.62721311 52.1832621,2.18622951 C55.7864078,1.26655738 57.7422136,3.02229508 61.9097864,2.72229508 C62.0033107,2.34852459 62.0443301,2.05836066 61.5947573,1.29770492 C65.3636214,0.591147541 73.9859029,4.88622951 74.6225243,5.16983607 C75.1492136,5.4042623 75.7366117,5.76163934 76.3092427,5.93540984 C78.3700583,6.56491803 82.1454854,5.9747541 84.3506893,6.01245902 C85.1349806,6.02557377 85.896301,6.20590164 86.7216117,6.0895082 C86.851233,6.36819672 86.9841359,8.29442623 87.0317184,9.37967213 C87.2433786,15.1206557 86.7380194,32.7239344 86.9726505,33.955082 C87.2220485,35.2616393 88.0391553,36.1239344 88.6019417,37.2731148 C90.554466,41.2731148 81.7533398,40.502623 80.3685243,39.5977049 C68.892932,32.0845902 49.7565534,27.2845902 49.7565534,27.2845902 C49.7565534,27.2845902 56.6084369,24.3239344 64.9599903,25.2763934 C66.2151845,25.4206557 70.0168641,26.2698361 74.1270097,27.2780328 C69.6591748,24.6452459 64.3496214,21.8042623 60.7907767,21.155082 C65.307835,18.9272131 72.2433981,20.5780328 75.0835825,20.4763934 C73.9941068,19.7354098 69.3835243,16.1485246 64.682699,15.6813115 C69.0241942,12.907541 71.5230971,12.8632787 73.3197476,12.6698361 C70.9832816,10.9140984 68.7272136,8.97147541 65.7393592,8.07803279 C65.572,8.47803279 66.0806408,9.36491803 66.0461845,9.45508197 C64.0936602,9.27311475 61.9393204,7.53540984 59.5339417,7.3895082 C59.4076019,7.72229508 59.4420583,7.79442623 59.7652913,8.6895082 C59.8916311,8.60098361 57.8488641,8.60918033 56.7003204,8.38459016 C56.6248447,8.36983607 53.6156602,7.76819672 51.4941359,8.15344262 C51.4547573,8.88295082 51.9453495,9.07967213 51.9519126,9.76163934 C47.6235437,10.0501639 43.6446602,10.5501639 40.9242524,12.8993443 C40.5124175,12.8452459 36.2874175,11.6763934 36.3284369,11.6747541 C35.5080485,11.7288525 33.8787573,11.1763934 33.571932,10.9862295 C33.5965437,11.4583607 33.814767,12.1222951 34.108466,12.7452459 C31.9524854,12.5534426 31.4471262,11.8419672 30.4987573,11.9829508" id="Fill-5" fill="#221815" mask="url(#mask-2)"></path>
                </g>
                <g id="Group-10" transform="translate(75.475728, 0.419672)">
                    <mask id="mask-4" fill="white">
                        <use xlink:href="#path-3"></use>
                    </mask>
                    <g id="Clip-9"></g>
                    <path d="M62.5142485,11.9827869 C61.5658796,11.8401639 61.0588796,12.5532787 58.9045398,12.745082 C59.1982388,12.1221311 59.4164621,11.4565574 59.4410738,10.9860656 C59.1326078,11.1762295 57.5049573,11.7270492 56.6845689,11.6745902 C56.7255883,11.6762295 52.5005883,12.845082 52.0887534,12.8991803 C49.3683456,10.55 45.3894621,10.0483607 41.0610932,9.76147541 C41.0660155,9.0795082 41.5582485,8.88278689 41.5205107,8.15491803 C39.3973456,7.76803279 36.3881612,8.36803279 36.3110447,8.38442623 C35.1641417,8.60901639 33.1213748,8.60081967 33.2477146,8.68934426 C33.5693068,7.7942623 33.6037631,7.72213115 33.4774233,7.38934426 C31.0720447,7.5352459 28.9193456,9.27295082 26.9668214,9.45491803 C26.9307243,9.3647541 27.4410058,8.47622951 27.2736466,8.07786885 C24.2857922,8.97131148 22.0297243,10.9139344 19.6916175,12.6696721 C21.4899087,12.8631148 23.9888117,12.907377 28.3303068,15.6811475 C23.6278408,16.15 19.0205398,19.7352459 17.9294233,20.4762295 C20.7696078,20.5778689 27.7051709,18.9270492 32.2222291,21.154918 C28.6633845,21.8040984 23.3538311,24.645082 18.8859961,27.2778689 C22.9961417,26.2680328 26.7961806,25.4188525 28.0530155,25.2762295 C36.4029282,24.3237705 43.2564524,27.2844262 43.2564524,27.2844262 C43.2564524,27.2844262 24.1200738,32.0844262 12.6428408,39.5959016 C11.259666,40.502459 2.45689903,41.2729508 4.41106408,37.2729508 C4.97385049,36.1237705 5.79095728,35.2614754 6.04035534,33.954918 C6.27498641,32.7237705 5.76962718,15.1221311 5.98128738,9.3795082 C6.02722913,8.2942623 6.16013204,6.36803279 6.29139417,6.08934426 C7.11506408,6.2057377 7.87802524,6.02540984 8.6623165,6.01229508 C10.8658796,5.97459016 14.6413068,6.5647541 16.7037631,5.9352459 C17.2747534,5.76147541 17.8637922,5.40409836 18.3888408,5.16967213 C19.0271029,4.88606557 27.6493845,0.590983607 31.4166078,1.29754098 C30.9686757,2.05819672 31.0096951,2.34836066 31.1032194,2.7204918 C35.2707922,3.02213115 37.2265981,1.26639344 40.8297437,2.18442623 C40.9626466,2.62704918 40.5737825,2.94672131 40.6771515,3.10245902 C44.0686369,2.85655738 46.5298019,3.58278689 49.1780155,4.25163934 C49.3404524,4.54180328 49.0943359,4.67459016 49.1025398,5.01721311 C51.0747534,5.26967213 52.2807243,6.85655738 53.7738311,7.15819672 C55.2652971,7.46147541 57.0242097,6.47295082 58.8274233,5.7057377 C59.8299379,5.28114754 63.5709087,4.2352459 65.0525301,4.35 C65.0804233,4.86311475 64.5438893,5.26967213 64.4963068,5.7057377 C67.1363165,5.13688525 70.6410155,4.57786885 73.6879379,5.24672131 C73.1481223,6.40081967 73.0742874,6.24508197 73.1497631,7.08278689 C73.4385398,7.11721311 75.7585981,7.22540984 76.214734,7.31229508 C79.1271126,7.86967213 82.0821515,8.28770492 82.8779282,10.6795082 C82.6449379,11.2188525 81.6834427,10.8155738 81.269967,11.2909836 C81.4324039,11.5090164 81.6342194,11.6909836 81.7277437,11.9811475 C84.0560058,13.5040984 85.6754524,15.7401639 87.3949864,17.8729508 C87.7247825,18.7827869 88.3203845,20.1090164 88.0086369,21.1631148 C87.8412777,21.2106557 87.0274524,20.6647541 86.2464427,20.7811475 C86.6599184,22.2647541 87.2259864,23.6122951 87.3949864,25.2959016 C87.4819476,26.1418033 87.3113068,27.0532787 87.3949864,27.9729508 C87.4737437,28.8303279 87.3211515,29.7647541 87.4721029,30.6516393 C87.5410155,31.0631148 87.890501,31.3532787 88.0086369,31.7237705 C88.3860155,32.897541 88.2498311,34.9172131 87.7772874,36.007377 C87.5984427,36.4286885 87.1341029,36.7303279 87.0126854,37.002459 C86.5188117,38.1106557 86.9175204,39.2959016 86.7829767,40.5237705 C86.7189864,41.1139344 86.1381515,41.854918 86.0183748,42.5139344 C85.9363359,42.9467213 86.0790835,43.4303279 85.9396175,43.8909836 C85.7148311,44.6385246 85.0618019,45.9155738 84.6384816,46.5680328 C84.2545398,47.1631148 83.6835495,47.392623 83.1831126,47.7172131 C82.8877728,48.6942623 81.8672097,49.3795082 81.5751515,50.0877049 C81.4307631,50.4385246 81.4159961,51.0614754 81.1928505,51.3122951 C81.0944039,51.4434426 80.8269573,51.407377 80.8089087,51.6188525 C80.3380058,53.1614754 80.8811029,55.2647541 81.7277437,56.2106557 C81.9312,57.3581967 82.4759379,58.1663934 83.0305204,58.9647541 C83.9969379,61.0336066 84.9551515,63.1139344 86.3235592,64.7795082 C86.295666,65.4319672 87.1505107,65.5696721 86.9372097,66.1581967 C86.2448019,66.6909836 84.9453068,66.4565574 84.4858893,66.9221311 C84.113433,68.5254098 84.7910738,69.3860656 85.1750155,70.4434426 C85.9478214,72.5729508 86.8666563,74.3713115 87.9331612,76.0286885 C86.6418699,76.8106557 85.4129282,77.0778689 83.7967631,76.4139344 C83.4522,79.9959016 82.974734,82.8106557 83.7196466,88.6532787 C83.8148117,89.3959016 85.2061903,92.6434426 85.788666,93.4713115 C86.3744233,94.3122951 87.2407534,94.745082 87.7772874,95.6139344 C86.7944621,95.9909836 86.0725204,96.1352459 85.4244136,96.2795082 C86.1086175,97.2877049 87.2768505,98.4565574 87.8544039,99.592623 C88.7322194,101.312295 90.0924233,103.386066 91.2262,104.643443 C90.4714427,104.922131 89.8249767,105.158197 89.2457825,105.210656 C90.197433,109.136885 93.7251029,112.584426 92.8817437,116.905738 C92.8472874,117.086066 92.1893359,118.968033 92.3419282,119.038525 C92.1630835,118.954918 91.086734,117.845082 90.843899,117.958197 C78.323132,133.143443 76.7102485,137.469672 75.8832971,138.394262 C75.0186078,136.953279 74.8528893,136.236885 74.7577243,135.861475 C73.6846563,136.830328 61.2245981,150.559836 60.3992874,151.80082 C59.697035,150.47459 60.0022194,148.933607 59.9300252,147.863115 C57.9299184,149.928689 54.0626078,156.510656 49.1632485,160.959836 C48.3002,160.371311 48.3707534,159.877869 48.0032194,159.277869 C46.7841223,160.527049 45.9867049,160.895902 45.1876466,161.856557 C44.4017146,162.80082 41.3072097,166.145082 38.9986369,168.594262 C38.4949184,168.161475 38.4079573,167.986066 38.284899,167.351639 C36.0665689,169.340164 34.2338214,171.695902 32.0581515,173.72541 C31.0359476,174.67623 29.3968117,175.920492 27.8249476,177.236885 C26.9602583,176.012295 26.8158699,175.651639 26.881501,174.833607 C24.8912388,176.190984 23.2504621,177.672951 21.8393942,179.679508 C21.0501806,180.79918 20.5677922,182.071311 20.2675301,183.404098 C20.1100155,184.09918 20.2297922,185.22377 19.3503359,185.018852 C18.9188117,184.918852 18.203433,183.866393 17.7358117,183.809016 L8.03553981,184.302459 C8.68200583,181.945082 9.1840835,180.356557 10.8461903,178.490984 C12.2753068,176.889344 14.2622874,175.864754 16.1327728,174.861475 C17.9359864,173.897541 19.724433,172.889344 21.6064039,172.090984 C23.6491709,171.22377 27.9693359,167.872951 28.9784136,166.217213 C29.4837728,168.161475 29.3246175,168.304098 29.2753942,168.982787 C30.3812777,168.220492 35.4660447,164.920492 40.3686854,157.789344 C40.8018505,158.077869 41.0561709,158.67623 41.0725786,159.631967 C43.2548117,157.936885 48.2985592,152.387705 49.4667922,150.510656 C50.7498796,151.090984 50.5168893,151.333607 50.6399476,152.131967 C52.5022291,150.156557 54.0724524,147.92541 55.9002777,145.918852 C55.9298117,145.887705 61.0277049,141.345082 62.0695981,139.39918 C63.0081223,140.551639 62.804666,141.77459 62.8391223,142.42541 C63.3510447,141.971311 67.6170641,137.122131 69.6007631,135.172951 C74.9234427,129.943443 79.4569087,123.989344 84.6893456,118.684426 C86.4220058,116.928689 87.956132,115.110656 87.6394621,112.47623 C87.3523262,110.081148 86.2628505,107.813934 85.2422874,105.658197 C84.083899,103.212295 83.3947728,100.566393 82.2019282,98.1516393 C82.1051223,97.9532787 81.5751515,96.3237705 81.498035,96.302459 C81.1846466,96.2090164 81.2502777,95.7352459 80.8860252,95.6909836 C80.5660738,96.0352459 80.5168505,96.65 80.1952583,96.992623 C79.6505204,96.4942623 79.7653748,96.3532787 79.2780641,96.302459 C78.2066369,98.2942623 77.5552485,100.704098 76.5199184,102.731967 C75.7438311,102.766393 75.7307049,102.466393 75.141666,102.271311 C74.4738699,103.10082 71.5106272,107.918852 69.7615592,111.75 C69.0904816,110.945082 68.8361612,110.220492 68.5572291,110.612295 C68.7360738,110.628689 67.7959087,112.254918 67.7269961,112.405738 C66.7671417,114.494262 66.0632485,115.179508 63.3477631,118.035246 C63.098365,117.979508 63.1147728,117.654918 62.9638214,117.49918 C62.1549184,118.259836 60.681501,120.069672 60.7175981,120.063115 C60.3451417,120.751639 59.1998796,122.571311 58.4615301,123.446721 C58.057899,122.707377 57.9118699,122.586066 57.7986563,122.490984 C57.1817243,123.279508 54.832132,126.40082 54.0773748,127.012295 C53.6376466,127.369672 52.987899,128.17459 51.9542097,128.92377 C51.7343456,129.086066 52.0017922,128.171311 51.8590447,127.982787 C51.0255301,128.805738 46.3443942,132.158197 44.4296078,132.956557 C43.8668214,133.953279 42.7067922,134.536885 41.8273359,135.10082 C41.4548796,135.335246 41.0463262,135.684426 40.6771515,135.866393 C40.1028796,136.145082 38.8673748,136.490984 38.3029476,136.858197 C37.8008699,137.189344 36.4702,137.927049 35.1575786,138.863115 C35.1575786,137.927049 35.9205398,137.351639 35.7745107,137.087705 C34.0139573,137.986066 30.8324913,140.264754 30.7963942,140.304098 C27.7445495,142.707377 27.249035,143.672951 25.052035,146.117213 C24.515501,144.60082 24.5696466,144.438525 24.1332,143.746721 C23.5933845,144.392623 22.5137534,144.672951 21.7885301,145.05 C20.9107146,145.507377 20.0558699,146.359836 19.261734,146.951639 L11.7207243,143.456557 C12.8085592,142.92377 13.7930252,142.071311 15.0039184,141.87459 C16.1081612,141.695902 17.1664621,141.594262 18.2231223,141.19918 C22.2906078,139.672951 26.8355592,137.881148 28.835666,133.695902 C29.7298893,131.827049 30.4272194,129.65 30.8932,127.636885 C31.1934621,126.331967 33.273967,121.528689 33.707132,120.253279 C34.978734,116.538525 34.0024718,112.42541 34.7293359,108.609016 C34.978734,107.305738 35.7285689,106.145082 35.9369476,104.869672 C36.1699379,103.454918 35.8860835,101.922131 35.8959282,100.494262 C35.9090544,98.7959016 35.7712291,96.6106557 36.8853165,95.2434426 C37.866501,94.0418033 39.1233359,92.9008197 39.4350835,91.3122951 C39.8731709,89.0762295 38.4095981,87.0893443 37.7057049,85.0909836 C36.5735689,81.8696721 37.0772874,78.1745902 36.4537922,74.8286885 C36.0337534,72.5729508 35.3380641,70.3663934 34.412666,68.2680328 C31.9646272,62.7106557 28.9636466,57.445082 23.2110835,54.7909836 C24.7977146,56.3040984 25.8199184,57.5008197 26.1251029,58.6598361 C23.8608311,57.4565574 23.3505495,56.7385246 21.2995786,56.5155738 C21.5785107,56.6959016 24.5319087,59.454918 24.2103165,60.0368852 C20.6892097,58.5368852 19.9475786,58.3565574 19.246967,58.5368852 C22.2020058,60.4811475 22.7008019,61.0106557 23.5720544,62.0663934 C24.4449476,63.1237705 25.3801903,65.0959016 24.6713748,67.5368852 C23.9363068,70.05 21.7245398,71.4352459 19.7670932,72.3565574 C19.7638117,72.607377 19.4405786,72.5385246 19.4619087,72.8155738 C17.7308893,73.3827869 17.3715592,75.3188525 16.4756951,76.7188525 C14.5051223,78.3713115 10.3063748,77.797541 10.1176854,81.2336066 C9.5499767,82.0516393 9.88469515,84.1729508 10.2473068,84.9696721 C12.5230641,85.4172131 14.9103942,85.6221311 17.2288117,85.8532787 C18.7514524,86.0057377 20.2888602,86.2827869 21.781967,86.602459 C24.3579864,87.154918 27.3195883,87.9696721 29.0850641,90.0663934 C31.3460544,92.7516393 30.4173748,96.0516393 30.6438019,99.2106557 C30.4354233,100.082787 30.5683262,101.369672 30.5666854,102.42541 C30.5650447,105.946721 31.2377631,109.912295 30.4140932,113.522131 C30.172899,114.572951 29.8102874,115.422131 29.8020835,116.427049 C29.7873165,117.953279 30.4715204,119.605738 29.9054524,121.092623 C29.416501,122.382787 28.3253845,123.595902 27.189967,124.351639 C24.0347534,126.453279 20.260967,128.389344 16.5331223,129.166393 C14.5379379,129.582787 12.4902485,129.682787 10.4720932,129.827049 C9.33503495,129.909016 8.19469515,129.869672 7.04615146,129.890984 C5.87627767,129.912295 2.50448155,129.57459 1.42320971,129.004098 C1.47571456,128.728689 2.84904466,127.041803 2.89990874,126.766393 C3.17555922,125.261475 3.9237534,125.954918 4.06486019,124.430328 C4.29785049,121.895902 4.42911262,119.353279 4.54396699,116.810656 C4.6982,113.463115 4.80977282,110.115574 4.91150097,106.766393 C5.02307379,103.02377 5.11823883,99.2795082 5.19699612,95.5352459 C5.2823165,91.6155738 8.30134563,87.55 8.35877282,83.6286885 C8.41455922,79.8122951 5.51038447,76.1418033 5.54976311,72.3270492 C5.58586019,68.8565574 5.61539417,65.3860656 5.64328738,61.9155738 C5.66461748,59.0368852 5.6843068,56.1565574 5.70071456,53.2762295 C5.71055922,51.4516393 5.72040388,49.6270492 5.7335301,47.802459 C5.73681165,47.0631148 5.64000583,46.2303279 5.75321942,45.4959016 C6.01410291,43.8106557 8.49659806,44.5991803 9.47286019,44.7565574 C11.8569087,45.1401639 13.669967,47.6663934 16.2689573,46.5877049 C18.0984233,45.8286885 26.2366757,40.4368852 28.7618311,39.1614754 C32.8522874,37.0942623 37.2495689,35.3778689 41.8568699,35.0155738 C44.6708019,34.7942623 48.9483068,34.6959016 56.6074524,39.6040984 C48.2985592,37.3614754 47.0991515,37.1467213 44.9103553,37.0008197 C45.6322971,37.2434426 50.5332971,38.3696721 53.0075883,41.6696721 C50.3167146,40.6745902 49.2354427,40.602459 47.2632291,40.3696721 C50.6054913,42.6188525 54.2102777,47.8057377 40.1406175,50.8532787 C41.7272485,51.3516393 43.3073165,51.0631148 44.6593165,51.4647541 C43.1087825,54.2877049 39.6467437,53.7106557 36.9230544,53.6844262 C37.4907631,54.3663934 38.557268,55.2729508 42.3146466,55.5844262 C39.7189379,57.5286885 35.6153553,57.8188525 33.3231903,57.9696721 C33.5200835,59.6172131 35.2625883,60.9991803 36.4652777,60.7254098 C36.5522388,60.1483607 36.5046563,59.8040984 36.3980058,59.2696721 C36.9214136,59.092623 41.0643748,59.9368852 43.2039476,61.8729508 C43.5271806,60.9467213 43.9012777,60.1221311 44.199899,59.1172131 C45.0974039,59.9057377 45.6421417,61.0434426 46.346035,62.0254098 C46.4362777,61.4745902 46.2393845,59.9713115 46.3525981,59.6893443 C47.867035,60.6254098 47.8834427,61.9401639 47.7242874,63.25 C47.5766175,64.4270492 47.0039864,66.2483607 46.5741029,66.2352459 C46.1196078,65.4647541 45.8127825,64.5467213 44.8119087,64.3221311 C44.4739087,65.407377 44.7594039,66.8942623 43.8159573,67.2303279 C42.5706078,65.5942623 41.3826854,63.8959016 39.2217825,63.1729508 C39.4285204,63.95 40.0864718,65.3762295 39.298899,66.0057377 C38.2783359,65.2139344 37.528501,64.15 36.1584524,63.7090164 C36.9460252,65.3762295 37.7713359,67.0319672 38.3554524,68.7844262 C39.7829282,73.0696721 39.8042583,77.5106557 40.5639379,81.9237705 C41.0118699,84.5172131 41.9750058,86.8221311 42.8314913,89.2877049 C43.3992,90.9172131 43.935734,92.945082 42.8839961,94.5106557 C42.3769961,95.2663934 41.5188699,95.7696721 40.9642874,96.4877049 C38.9395689,99.102459 40.1455398,102.497541 39.2201417,105.433607 C38.8460447,106.62541 38.3111515,107.656557 38.1733262,108.920492 C37.5924913,114.30082 38.1700447,120.420492 35.3922097,125.304098 C35.2904816,126.527049 32.3600544,131.848361 33.0951223,133.417213 C34.0402097,134.938525 36.9082874,132.148361 38.8378408,131.043443 C39.0872388,131.579508 39.0429379,131.707377 39.2217825,131.961475 C40.7050447,131.20082 43.8635398,129.02541 45.9604524,127.064754 C46.2836854,127.479508 46.2918893,127.805738 46.4969864,128.136885 C48.7711029,126.682787 49.711268,123.195902 52.0707049,121.833607 C52.3381515,122.707377 52.3250252,122.97623 52.6236466,123.086066 C53.9379087,122.451639 56.5090058,117.59918 57.2965786,115.968033 C57.7888117,116.253279 58.1957243,116.49918 58.4451223,116.964754 C59.7380544,115.668033 60.8537825,114.522131 61.5790058,112.797541 C61.7217534,112.454918 62.6996563,110.810656 63.2690058,109.695902 C63.9778214,110.407377 64.0237631,110.67623 64.5734233,110.997541 C65.4315495,110.172951 66.1124718,108.441803 66.5538408,107.346721 C66.8426175,106.631967 68.0814039,104.559836 68.7852971,103.420492 C69.4924718,104.559836 69.5597437,104.42541 70.0093165,105.02541 C70.7263359,103.881148 72.0258311,101.587705 72.1915495,101.046721 C72.3638311,100.487705 72.9249767,97.9057377 73.3909573,96.9663934 C73.9324136,97.2319672 74.1391515,97.507377 74.3770641,97.6581967 C74.9792291,96.8581967 75.3648117,95.9090164 75.7126563,94.9778689 C75.7914136,94.7696721 76.2459087,92.6532787 76.2902097,92.6303279 C76.6167243,92.4565574 77.4502388,92.7827869 77.5913456,92.7844262 C78.1820252,90.007377 78.5200252,86.2696721 78.1295204,83.6040984 C78.4363456,83.3532787 79.1074233,83.5762295 79.506132,83.6827869 C79.506132,81.6204918 79.7456854,79.8106557 80.3494913,78.0959016 C80.5595107,77.502459 80.9582194,77.0155738 81.0386175,76.4139344 C81.1518311,75.5713115 81.0172874,74.4270492 80.8860252,73.5040984 C80.7514816,72.5598361 80.4938796,71.4942623 80.2723748,70.6729508 C79.9655495,69.5286885 79.3486175,68.5434426 79.0483553,67.5368852 C78.5758117,65.9516393 79.0122583,64.4204918 79.2780641,63.097541 C79.013899,63.2254098 79.0598408,62.4729508 79.0483553,62.1008197 C78.5101806,60.6418033 77.7833165,59.8352459 77.2861612,58.5057377 C77.0695786,58.4303279 77.0941903,58.3942623 76.9809767,58.3532787 C76.6347728,57.3516393 75.5338117,55.4172131 75.7553165,53.9909836 C75.6404621,53.9008197 75.4123942,53.9254098 75.4484913,53.6844262 C75.7011709,52.8483607 75.0071223,51.9352459 75.295899,51.2352459 C74.7872583,50.8057377 74.3196369,50.0811475 74.2228311,49.4762295 C72.9184136,48.4827869 69.0379767,41.445082 67.9435786,39.3762295 C67.5432291,38.9057377 66.2059961,36.4877049 65.7974427,36.2368852 C65.3872485,34.9729508 64.4306757,34.0827869 63.7300641,33.0237705 C63.0097631,31.9352459 62.5388602,30.6844262 61.8152777,29.6581967 C61.5379864,29.2631148 60.0793359,27.2860656 59.7462583,26.75 C59.1801903,25.8303279 58.6206854,24.9942623 58.0628214,23.9942623 C57.5459767,23.0713115 57.2325883,21.9516393 56.9126369,20.8565574 C56.6714427,20.0286885 56.1578796,19.6122951 56.0709184,18.7122951 C55.1619282,18.3729508 56.0381029,16.4778689 57.0668699,17.1844262 C57.5902777,18.6172131 59.071899,18.5680328 60.8964427,18.4844262 C63.2985398,18.3745902 65.5775786,17.4991803 70.6213262,18.8680328 C72.1177146,19.6106557 73.5501126,20.2204918 74.6067728,21.4713115 C75.4927922,22.5172131 76.2032485,24.1057377 76.751268,25.2959016 C76.9662097,25.7647541 76.9776951,26.1663934 77.1335689,26.5959016 C77.2074039,26.802459 77.581501,27.2155738 77.6684621,27.5155738 C77.9785689,28.5581967 77.904734,29.9909836 77.9752874,31.1106557 C78.0392777,32.102459 77.7898796,33.3237705 77.2861612,34.2483607 C76.9973845,34.7795082 76.4854621,35.7401639 75.9833845,35.397541 C76.1343359,34.1483607 75.9292388,33.1434426 75.7553165,32.0303279 C75.310666,30.302459 74.8988311,29.4057377 74.2999476,29.4270492 C74.4919184,31.0286885 74.1096175,31.3008197 73.9931223,32.7942623 C73.6600447,33.1057377 73.5796466,34.3827869 73.0398311,34.25 C72.6870641,33.2778689 72.8626272,31.1991803 71.4663262,30.8811475 C71.3826466,31.4811475 70.8247825,32.6254098 70.6213262,34.2483607 C69.9518893,34.1008197 69.6910058,33.1385246 69.0150058,33.2532787 C68.9493748,33.8418033 69.5663068,35.845082 69.7024913,36.4663934 C69.7828893,36.8303279 70.314501,37.8434426 70.3161417,37.845082 C70.7132097,38.397541 70.9478408,39.0565574 71.159501,39.8352459 C71.6533748,40.5385246 73.2400058,43.2237705 73.8388893,43.8909836 C74.6264621,44.7040984 75.6617922,45.1352459 77.0564524,45.1909836 C78.4609573,45.2467213 79.7670155,44.3565574 80.4266078,43.5844262 C80.4462971,43.5598361 80.887666,42.7827869 80.961501,42.5893443 C81.2880155,41.75 81.3077049,40.6122951 81.3454427,39.6811475 C81.3766175,38.9286885 81.3487243,38.1942623 81.3454427,38.0745902 C81.3306757,37.4336066 81.3930252,36.7319672 81.652268,36.2368852 C81.9771417,35.6155738 82.3512388,35.5057377 82.4168699,34.9368852 C82.4759379,34.4368852 82.1970058,34.0008197 82.1871612,33.5598361 C82.1543456,31.9385246 83.1913165,30.7877049 83.2618699,29.1221311 C83.1059961,28.8221311 82.8483942,27.9598361 82.8008117,27.7434426 C82.3676466,26.5893443 82.2495107,24.5188525 82.3413942,23.1516393 C82.2445883,23.1713115 82.5842291,19.5172131 79.1254718,15.5778689 C78.8071612,15.5663934 79.1090641,15.5270492 79.1254718,15.4237705 C75.5009961,10.8483607 67.4185301,12.2647541 67.2544524,12.5155738 C67.1674913,12.0877049 67.0985786,11.202459 67.2544524,10.8319672 C66.9656757,11.0122951 65.8958893,11.1581967 65.7695495,11.2090164 C65.5956272,11.2844262 62.570035,11.9827869 62.5339379,11.9434426" id="Fill-8" fill="#221815" mask="url(#mask-4)"></path>
                </g>
                <path d="M131.462967,46.5285246 C131.436715,47.9547541 131.103637,49.7990164 131.310375,51.1203279 C131.431792,51.9104918 131.856753,52.6334426 132.076617,53.4154098 C132.491734,54.9055738 132.575414,56.4481967 132.918336,57.7760656 C131.63853,57.0121311 131.357957,56.7760656 130.773841,56.5514754 C130.317705,58.8088525 129.950171,60.3662295 129.471064,62.3695082 C128.466909,61.982623 128.537462,61.8383607 127.940219,61.3744262 C127.744967,61.9203279 127.744967,62.8465574 124.340355,65.4301639 C125.726812,61.7662295 126.159977,60.1809836 126.561967,58.2367213 C126.668617,57.7186885 127.129676,59.1416393 127.635035,59.0022951 C127.874588,57.9432787 128.466909,53.987541 128.476753,53.4154098 C129.042821,53.7711475 129.428404,54.5137705 129.403792,54.3481967 C129.485831,52.4285246 129.062511,49.3465574 129.855006,47.8301639 C130.150346,47.2645902 130.629452,46.9285246 131.462967,46.5285246" id="Fill-11" fill="#221815"></path>
                <path d="M66.2051757,45.6944262 C67.540768,46.6944262 64.3773505,48.0796721 59.523933,48.0796721 C54.6705155,48.0796721 55.5466903,46.9665574 50.4586417,43.5485246 C52.2077097,42.8337705 53.4793117,42.3567213 59.2466417,42.8337705 C64.5758845,43.2747541 65.886865,45.4567213 66.2051757,45.6944262" id="Fill-13" fill="#F58F5C"></path>
                <path d="M62.574301,45.4663934 C62.574301,47.3319672 61.0615049,48.8434426 59.1926602,48.8434426 C57.3270971,48.8434426 55.8126602,47.3319672 55.8126602,45.4663934 C55.8126602,43.6008197 57.3254563,42.0877049 59.1926602,42.0877049 C61.0615049,42.0877049 62.574301,43.6008197 62.574301,45.4663934" id="Fill-15" fill="#221815"></path>
                <path d="M58.9611466,45.0716393 C58.9611466,45.7011475 58.450865,46.2093443 57.8208068,46.2093443 C57.1923893,46.2093443 56.6821078,45.7011475 56.6821078,45.0716393 C56.6821078,44.4437705 57.1923893,43.9339344 57.8208068,43.9339344 C58.450865,43.9339344 58.9611466,44.4437705 58.9611466,45.0716393" id="Fill-17" fill="#FEFEFE"></path>
                <path d="M101.059703,45.6944262 C99.7257515,46.6944262 102.887528,48.0796721 107.740946,48.0796721 C112.594363,48.0796721 111.718188,46.9665574 116.807878,43.5485246 C115.057169,42.8337705 113.785567,42.3567213 108.019878,42.8337705 C102.688994,43.2747541 101.378014,45.4567213 101.059703,45.6944262" id="Fill-19" fill="#F58F5C"></path>
                <path d="M111.162293,45.4663934 C111.162293,47.3319672 109.647856,48.8434426 107.780652,48.8434426 C105.915089,48.8434426 104.400652,47.3319672 104.400652,45.4663934 C104.400652,43.6008197 105.915089,42.0877049 107.780652,42.0877049 C109.647856,42.0877049 111.162293,43.6008197 111.162293,45.4663934" id="Fill-21" fill="#221815"></path>
                <path d="M107.549139,45.0716393 C107.549139,45.7011475 107.038857,46.2093443 106.408799,46.2093443 C105.780382,46.2093443 105.2701,45.7011475 105.2701,45.0716393 C105.2701,44.4437705 105.780382,43.9339344 106.408799,43.9339344 C107.038857,43.9339344 107.549139,44.4437705 107.549139,45.0716393" id="Fill-23" fill="#FEFEFE"></path>
                <path d="M84.0814379,120.230984 C91.9735738,120.44082 95.337166,117.445738 95.7457194,116.867049 C92.2475835,110.421148 91.6962825,105.550656 91.8094961,102.722787 C91.9588068,98.985082 94.6053796,97.1359016 94.6529621,96.6047541 C93.5011369,95.547377 88.4196515,95.294918 85.6861175,96.7145902 C84.7508748,98.1293443 84.3767777,102.381803 84.0814379,105.368689 C83.7860981,102.381803 83.4103602,98.1293443 82.4767583,96.7145902 C79.7415835,95.294918 74.6617388,95.547377 73.5099136,96.6047541 C73.5574961,97.1359016 76.2040689,98.985082 76.3533796,102.722787 C76.4649524,105.550656 75.9152922,110.421148 72.4155155,116.867049 C72.8257097,117.445738 76.1893019,120.022787 84.0814379,120.230984" id="Fill-25" fill="#EE3D42"></path>
                <path d="M74.6046398,69.0262295 C74.7441058,70.1672131 76.094465,71.0639344 77.7401641,71.0639344 C79.4514942,71.0639344 80.8395913,70.0967213 80.885533,68.8918033 C79.9470087,69.3901639 78.8197951,69.6819672 77.6056204,69.6819672 C76.5095816,69.6819672 75.4857369,69.4393443 74.6046398,69.0262295" id="Fill-27" fill="#FEFEFE"></path>
                <path d="M86.4113408,69.0262295 C86.5508068,70.1672131 87.8995252,71.0639344 89.546865,71.0639344 C91.2581951,71.0639344 92.6462922,70.0967213 92.692234,68.8918033 C91.7537097,69.3901639 90.6264961,69.6819672 89.4123214,69.6819672 C88.3146417,69.6819672 87.2924379,69.4393443 86.4113408,69.0262295" id="Fill-29" fill="#FEFEFE"></path>
                <path d="M92.5995301,60.9016393 C91.5559961,60.8459016 88.9110641,60.5836066 87.5951612,62.1114754 C86.2743359,62.7245902 85.5605981,62.8278689 84.1528117,62.7672131 C82.7433845,62.7065574 81.5882777,62.6606557 80.7088214,62.1114754 C79.2468893,60.6213115 76.7496272,60.8459016 75.7028117,60.9016393 C70.5228796,61.1737705 71.1939573,65.242623 72.1292,66.6163934 C72.239132,65.2557377 73.1153068,62.8032787 74.6034913,62.2196721 C75.6749184,61.8016393 76.5839087,61.8360656 78.3986078,62.495082 C81.1321417,63.895082 81.5538214,64.2245902 84.0970252,64.2967213 C86.6402291,64.3704918 87.1718408,63.895082 89.903734,62.495082 C91.7200738,61.8360656 92.6307049,61.8016393 93.7004913,62.2196721 C95.1903165,62.8032787 96.0648505,65.2557377 96.1764233,66.6163934 C97.1100252,65.242623 97.7827437,61.1737705 92.5995301,60.9016393" id="Fill-31" fill="#FEFEFE"></path>
                <path d="M83.4886252,86.9759016 C83.8069359,87.0201639 83.6838777,89.6267213 83.5230816,91.9496721 C83.4180718,92.4431148 80.5696835,92.33 79.0732951,92.5103279 C78.5219942,91.1906557 78.6056738,90.8693443 78.082266,89.6513115 C78.082266,90.6054098 77.6901204,91.8922951 77.7524699,92.5103279 C77.6901204,92.8988525 72.8088097,93.2890164 72.798965,93.0595082 C72.6217612,91.7955738 72.7251301,90.834918 72.4691689,89.3218033 C72.5922272,88.6414754 74.6924214,88.0840984 75.9640233,87.93 C78.082266,87.6709836 83.4886252,86.9759016 83.4886252,86.9759016" id="Fill-33" fill="#FEFEFE"></path>
                <path d="M85.0156961,86.9759016 C84.6973854,87.0201639 84.8220845,89.6267213 84.9812398,91.9496721 C85.0878903,92.4431148 87.9362786,92.33 89.432667,92.5103279 C89.9823272,91.1906557 89.8986476,90.8693443 90.4220553,89.6513115 C90.4220553,90.6054098 90.814201,91.8922951 90.7518515,92.5103279 C90.814201,92.8988525 95.6955117,93.2890164 95.7053563,93.0595082 C95.8825602,91.7955738 95.7791913,90.834918 96.0351524,89.3218033 C95.9120942,88.6414754 93.8135408,88.0840984 92.5402981,87.93 C90.4220553,87.6709836 85.0156961,86.9759016 85.0156961,86.9759016" id="Fill-35" fill="#FEFEFE"></path>
                <path d="M71.2853485,89.6437705 C71.1327563,93.0847541 71.1229117,93.7978689 71.4412223,98.2585246 C71.7250767,100.607705 72.376465,101.673279 72.1779311,102.215902 C71.1967466,102.992951 68.791368,101.191311 68.1908437,100.342131 C65.6788146,97.1798361 65.4835621,93.3634426 65.7329602,92.4978689 C66.0151738,90.8191803 68.5173583,89.8470492 70.1089117,89.2093443 C70.6126301,89.07 71.5938146,88.8388525 71.2853485,89.6437705" id="Fill-37" fill="#FEFEFE"></path>
                <path d="M77.7836447,124.834426 C77.6934019,125.281967 77.0108388,122.24918 77.0108388,121.786885 C76.1363049,121.408197 74.1821398,120.340984 72.6168388,119.457377 C72.2493049,121.039344 72.4084602,122.714754 72.7005184,123.872131 C72.9564796,124.8 73.981965,125.991803 74.7875864,126.239344 C76.2577223,126.088525 77.6031592,126.268852 77.6031592,126.268852 C78.2315767,126.62623 78.6844311,126.981967 78.6844311,126.981967 C79.7181204,127.811475 81.6821301,128.032787 83.0439748,127.6 C83.7413049,127.131148 83.8184214,124.239344 83.7380233,122.77377 C81.9446544,122.77377 80.3350524,122.529508 78.6270039,122.055738 C78.4399553,122.490164 78.141334,123.668852 77.7836447,124.834426" id="Fill-39" fill="#FEFEFE"></path>
                <path d="M71.5185029,115.109672 C71.3741146,117.462131 70.5799786,120.155574 71.5414738,123.849016 C69.298532,124.727705 66.176134,121.553934 65.9792408,119.547377 C66.4304544,114.571967 69.9400757,111.067049 71.9122893,111.244098 C72.1075417,111.322787 71.6546874,112.89 71.5185029,115.109672" id="Fill-41" fill="#FEFEFE"></path>
                <path d="M97.0708107,89.6437705 C97.3005194,90.9240984 97.6975874,93.1798361 96.8378204,98.874918 C96.5556068,100.453607 95.5498107,102.114262 96.1782282,102.215902 C97.7779854,102.374918 99.5647913,101.191311 100.165316,100.342131 C102.677345,97.1798361 102.738053,93.8044262 102.623199,92.5421311 C102.385286,90.8191803 99.838801,89.8470492 98.2472476,89.2093443 C97.7435291,89.07 96.7607039,88.8388525 97.0708107,89.6437705" id="Fill-43" fill="#FEFEFE"></path>
                <path d="M91.3095515,124.834426 C91.3997942,125.281967 92.0823573,122.24918 92.0823573,121.786885 C92.9568913,121.408197 94.9110563,120.340984 96.4763573,119.457377 C96.8438913,121.039344 96.6847359,122.714754 96.3926777,123.872131 C96.1367165,124.8 95.1112311,125.991803 94.3072505,126.239344 C92.8354738,126.088525 91.4900369,126.268852 91.4900369,126.268852 C90.8616194,126.62623 90.408765,126.981967 90.408765,126.981967 C89.373435,127.811475 87.411066,128.032787 86.0492214,127.6 C85.3502505,127.131148 85.2747748,124.239344 85.3551728,122.77377 C87.1485417,122.77377 88.7581437,122.529508 90.4661922,122.055738 C90.6532408,122.490164 90.9518621,123.668852 91.3095515,124.834426" id="Fill-45" fill="#FEFEFE"></path>
                <path d="M97.5746932,115.109672 C97.7190816,117.462131 98.5115767,120.155574 97.5517223,123.849016 C99.7930233,124.727705 102.915421,121.553934 103.113955,119.547377 C102.662742,114.571967 99.1514796,111.067049 97.179266,111.244098 C96.9856544,111.322787 97.4385087,112.89 97.5746932,115.109672" id="Fill-47" fill="#FEFEFE"></path>
            </g>
        </g>
    </g>
</svg>