<?xml version="1.0" encoding="UTF-8"?>
<svg width="200px" height="200px" viewBox="0 0 200 200" version="1.1" xmlns="http://www.w3.org/2000/svg" xmlns:xlink="http://www.w3.org/1999/xlink">
    <!-- Generator: Sketch 54.1 (76490) - https://sketchapp.com -->
    <title>wilkes</title>
    <desc>Created with Sketch.</desc>
    <g id="wilkes" stroke="none" stroke-width="1" fill="none" fill-rule="evenodd">
        <g id="wilkes_BGL">
            <g id="wilkes" transform="translate(0.000000, 5.000000)">
                <g id="g10" transform="translate(99.921195, 94.594170) scale(-1, 1) rotate(-180.000000) translate(-99.921195, -94.594170) translate(0.000000, 0.031525)">
                    <g id="g12">
                        <path d="M160.539633,86.527027 C160.180926,88.1431026 159.572258,89.3582326 159.572258,89.3582326 L156.906537,92.0740718 C155.554921,94.6096115 154.185339,97.1350646 152.795268,99.6504309 C153.321352,100.270131 153.49976,100.992905 153.49976,100.992905 C153.49976,100.992905 153.358231,101.237823 153.351927,101.24854 C153.804567,101.618595 154.105276,101.970683 154.29976,102.253741 C154.329389,97.8631969 157.860989,94.5721017 157.860989,94.5721017 C157.860989,94.5721017 158.365008,93.8764358 159.277537,92.8267904 L159.161225,92.5352223 L161.322297,88.5260813 C161.107955,88.0765935 160.79842,87.3651672 160.539633,86.527027 L160.539633,86.527027 Z M142.376041,93.0395564 C141.878326,93.6393988 140.833093,94.7936935 139.449011,95.7689495 C140.809453,96.5610693 141.69582,97.7374286 142.428996,98.8813214 C143.369579,97.2712348 144.302597,95.6589417 145.225843,94.0406596 C144.31489,93.8509039 143.356025,93.5328582 142.376041,93.0395564 L142.376041,93.0395564 Z M113.436719,47.263671 C111.236877,49.2797466 108.339162,48.9500382 105.878957,46.1040178 C105.405514,47.9098491 104.32813,52.6414486 105.043969,55.9196204 C105.257681,56.1503532 107.689517,58.6789583 112.841605,58.9686352 C112.032779,57.3014958 111.108587,53.5814013 113.895663,47.2756489 C113.749091,47.2781706 113.591171,47.2756489 113.436719,47.263671 L113.436719,47.263671 Z M198.760279,38.1913308 C198.672651,39.0083521 198.530807,39.843025 198.321193,40.6811653 C199.070759,42.5311258 197.448695,45.7582337 195.489987,46.4721817 C194.654684,47.5044905 193.672178,48.4223786 192.541839,49.2208026 C192.032777,50.065247 191.012446,50.880377 189.820641,51.3333321 C190.021114,54.542473 190.001571,58.9349079 188.9576,62.8154437 C189.576355,63.6734421 191.915519,65.0029929 191.915519,65.0029929 C191.915519,65.0029929 189.384077,67.6973978 184.093928,70.5298643 C184.463352,71.0635128 186.19637,73.1817161 186.19637,73.1817161 C186.19637,73.1817161 182.917884,74.446649 177.509531,74.7202503 C177.860673,75.2132369 178.373518,76.3019681 179.524661,78.7470429 C179.880847,79.5066962 180.590697,80.306381 181.241918,80.9881776 C182.529861,82.3460972 183.323557,83.275648 183.681004,84.1875471 C208.798104,90.7347495 195.805511,110.167373 195.79574,110.05768 C195.617016,107.937586 195.254841,105.1959 193.104802,104.815758 C189.270287,104.139004 187.162801,106.076593 187.602832,108.638295 C188.161382,111.891881 192.736638,113.646648 192.736638,113.646648 C191.604093,115.498185 175.824424,120.388019 161.985496,112.442235 C160.147829,111.387862 158.713944,110.313 157.605355,109.237507 C156.828995,111.232464 153.200311,111.663669 153.200311,111.663669 C152.642077,113.419067 150.807876,114.375726 150.807876,114.375726 C151.405828,119.200943 147.297711,120.637664 147.297711,120.637664 C147.104173,124.267609 143.286994,125.576987 140.312684,126.045387 C138.439398,128.045702 136.301021,130.499603 135.823795,131.750667 C135.823795,131.750667 134.952242,131.882739 133.668082,131.641289 C126.118831,143.353503 118.114103,154.799681 109.663985,165.963432 C109.700864,165.932541 109.576357,170.865559 103.868871,175.678483 C103.868871,175.678483 103.200628,175.779034 102.17021,175.642864 C101.668398,176.275173 100.217807,178.096134 100.217807,178.096134 C100.60709,179.414022 100.680218,180.84444 100.366901,182.278955 C99.5003915,186.229152 95.4688707,189.837032 90.3265541,188.711737 C85.7944817,187.719459 82.8939302,183.23719 83.8937725,178.67139 C84.6789577,175.084629 87.6715502,172.470918 91.2252144,172.090145 C91.2252144,172.090145 92.8469638,170.115993 93.3068535,169.553975 C93.161227,169.269972 93.0578385,168.980926 93.0045682,168.694716 C71.2548446,173.458152 60.9951127,168.060831 51.0758064,162.811343 C26.6701018,149.896608 12.9289831,156.01355 0,158.221903 L37.4928281,107.500707 L38.2237973,107.344363 C64.6055145,101.6643 75.9177286,107.632779 86.8567354,113.405513 C99.7074837,120.184709 108.085104,123.168791 128.980611,118.248066 C129.070761,118.153189 129.163117,118.056735 129.257995,117.960911 C128.291565,115.942944 127.772731,113.608823 127.319146,111.457208 C127.072652,111.573835 126.795269,111.674702 126.488571,111.758547 C125.199051,112.106538 124.234197,111.504489 123.383448,110.974938 C120.689043,109.294875 119.629311,110.309217 116.75114,112.097082 C116.45768,111.784394 112.916624,108.205198 111.923401,102.615285 C108.60772,101.556499 104.11757,98.5074837 106.205198,92.7293909 C108.500234,86.3788788 114.011345,82.5746236 120.965166,85.3869167 C121.575726,85.0411326 123.161857,84.1664282 124.788649,83.4628821 L124.711108,82.7984219 C111.479272,80.4961367 100.585025,72.4204868 98.2518494,61.7399512 C96.7949542,55.0729695 99.202204,48.8457041 104.929548,44.8649319 C103.954923,43.4925127 102.771629,40.8901487 102.771629,40.8901487 L104.752401,39.4215908 C103.658941,36.0236398 100.300392,35.7875484 100.300392,35.747832 C100.300392,35.747832 100.344521,30.6382971 98.9286027,24.7703698 C98.7829763,24.636406 98.4920385,24.3965321 98.1027556,24.1682579 C97.3459393,24.7952397 95.3784058,26.0123555 92.0419205,25.3232145 C91.4458606,25.5423792 89.6116605,26.0434982 87.8600451,25.0405037 C84.6625668,23.210685 84.738217,17.4001572 84.738217,17.4001572 C84.738217,17.4001572 85.7809277,17.3948617 86.0718655,17.3805512 C84.3164676,16.012608 82.3987371,16.6789909 82.3987371,16.6789909 L80.2515346,4.43089035 C81.5703683,4.3637824 86.0163887,1.89851847 86.9982642,0 L93.1564989,5.22925125 L93.8688708,7.16312039 C96.0750173,8.95230868 97.0550015,10.4986601 98.9755688,13.7172573 L98.5503521,13.8921982 C103.441132,16.8347356 111.524978,18.5106378 116.334749,20.3883368 C116.673598,19.793254 117.346884,18.7136638 118.422692,17.4171469 C118.152243,16.643656 118.4498,15.5706852 118.4498,15.5706852 C118.4498,15.5706852 120.218437,14.3795426 121.156498,13.2312684 C121.156498,13.2312684 122.690935,13.0944678 124.109374,14.5737427 C124.3524,14.3539476 124.696293,13.9770524 125.122771,13.3803622 C126.636088,11.2649012 129.690462,10.1507011 131.10701,9.97796665 C136.628838,10.7448067 138.608034,14.5380296 138.804094,14.9998735 C138.804094,14.9998735 138.858625,19.1262722 138.149721,24.5715045 C141.652636,24.4510947 156.756497,24.6436558 167.541997,35.9999991 C168.048538,34.9765161 169.400469,33.5401095 169.400469,33.5401095 C169.400469,33.5401095 170.94247,32.9487777 172.543731,33.566587 C172.769105,33.1653262 173.164692,32.6067762 173.857206,31.9145776 C174.002833,31.4452947 174.511895,30.290937 176.18849,29.1063192 C176.324976,28.6811656 176.706063,27.8064611 177.685732,26.9487464 C179.037978,23.5871074 181.892509,16.1677537 181.892509,16.1677537 C183.435772,15.3512999 184.141839,14.6761856 186.343258,15.1255788 C188.446016,15.5567845 189.561225,18.162931 189.561225,18.162931 C189.561225,18.162931 187.97005,22.5695818 187.315677,24.3375565 C187.315677,24.3375565 190.438766,25.6460514 192.140263,28.831268 C195.508585,29.4556336 197.611027,28.2000939 197.611027,28.2000939 C197.611027,28.2000939 198.205511,29.8509055 198.48983,31.5914886 C200.251216,32.6824263 200.236717,36.5872331 198.760279,38.1913308 L198.760279,38.1913308 Z" id="path14" fill="#104076" fill-rule="nonzero"></path>
                        <path d="M99.7393198,127.774622 C99.7393198,127.774622 91.4713925,126.243653 86.0296275,122.879745 L68.518832,132.871864 C68.518832,132.871864 70.6953489,121.696766 71.4868382,116.401573 C71.4868382,116.401573 62.3845532,114.620643 53.7490924,115.527184 C53.7490924,115.527184 44.6685568,122.047909 41.3074852,125.86887 C41.3074852,125.86887 49.6211178,125.056262 51.4023628,125.056262 L36.4636713,139.203464 C36.4636713,139.203464 30.1320087,137.869815 28.6000308,138.266033 L19.8416701,147.217648 C19.8416701,147.217648 32.4059882,146.426159 38.3432615,149.294874 L58.3278157,131.340895 L52.4904636,154.258467 L81.6765937,136.250903 L75.0477523,161.761698 C75.0477523,161.761698 86.8211168,162.156024 91.8669796,159.980138 L95.0225351,151.080217 C95.0225351,151.080217 92.8567353,152.163905 89.393536,152.461462 C89.393536,152.461462 93.054056,137.52151 93.5483034,136.631675 C93.5483034,136.631675 97.0181221,137.430414 98.8973971,137.430414 C98.8973971,137.430414 99.873914,132.914417 99.7393198,127.774622 L99.7393198,127.774622 Z M93.7651671,166.495819 C49.0171777,176.876591 54.900235,144.379508 4.70461769,155.185497 L38.6392425,109.278799 C88.5270269,98.539635 83.023481,130.573046 126.884158,120.773835 C125.879587,122.162014 125.368003,123.165954 125.368003,123.165954 C124.852637,123.804567 124.828366,124.511896 125.08337,125.213551 L99.0417627,160.440343 C96.4264751,162.434669 94.5169401,165.272179 93.7651671,166.495819 L93.7651671,166.495819 Z" id="path16" fill="#588ED2" fill-rule="nonzero"></path>
                        <path d="M98.924505,181.963431 C98.1027556,185.715047 94.3936935,188.091406 90.6420781,187.269972 C86.8888867,186.448222 84.5137883,182.73916 85.334592,178.986914 C86.019856,175.856576 88.714261,173.686678 91.7657975,173.528443 L91.783134,173.557442 C92.1260812,174.094874 92.5758842,174.687466 93.1587053,175.271863 C90.3126849,174.674543 87.5123698,176.481004 86.8888867,179.327025 C86.2625668,182.189121 88.0734415,185.016229 90.9352223,185.643809 C91.8496431,185.843652 92.7593357,185.792903 93.5962152,185.540421 C92.3968456,185.548932 89.715049,184.393376 90.3413689,181.530965 C90.7319126,179.748459 92.4932995,178.619381 94.2754902,179.01024 C96.0148124,179.391012 97.1262387,181.075803 96.8198557,182.812604 C97.4200133,181.598104 97.8291544,179.531595 96.4743869,177.510161 C97.1300212,177.796055 97.8575232,178.041918 98.6660338,178.230413 L98.7189889,178.243337 C99.1133151,179.403305 99.2056713,180.680216 98.924505,181.963431" id="path18" fill="#FCD213" fill-rule="nonzero"></path>
                        <path d="M136.433724,81.0805338 C137.50764,81.0805338 138.378562,80.2115031 138.378562,79.136641 C138.378562,78.0630398 137.50764,77.1940091 136.433724,77.1940091 C135.361699,77.1940091 134.491407,78.0630398 134.491407,79.136641 C134.491407,80.2115031 135.361699,81.0805338 136.433724,81.0805338 Z M130.024583,77.5265544 C128.952243,77.5265544 128.081951,78.3977916 128.081951,79.4704472 C128.081951,80.5431028 128.952243,81.4137095 130.024583,81.4137095 C131.09976,81.4137095 131.969421,80.5431028 131.969421,79.4704472 C131.969421,78.3977916 131.09976,77.5265544 130.024583,77.5265544 Z M143.015914,81.6192257 C144.089516,81.6192257 144.958231,80.7486189 144.958231,79.6759633 C144.958231,78.6042534 144.089516,77.732701 143.015914,77.732701 C141.942313,77.732701 141.072022,78.6042534 141.072022,79.6759633 C141.072022,80.7486189 141.942313,81.6192257 143.015914,81.6192257 Z M149.417806,82.695979 C150.490146,82.695979 151.360122,81.8263179 151.360122,80.7539775 C151.360122,79.6803763 150.490146,78.8094543 149.417806,78.8094543 C148.34452,78.8094543 147.472652,79.6803763 147.472652,80.7539775 C147.472652,81.8263179 148.34452,82.695979 149.417806,82.695979 Z M126.690619,82.4630397 C127.249169,80.4371926 126.151928,77.975727 126.151928,77.975727 C105.419067,75.5360107 95.0026769,54.7754123 103.55177,47.7607553 C101.890305,54.5276582 102.438768,60.6401876 112.093299,68.5828194 C124.416388,78.7246631 140.147514,73.0676105 149.994322,75.8663496 C151.16816,77.5344346 151.92214,79.3503526 152.405355,81.0603605 C151.662092,82.4485401 150.912841,83.8348285 150.157601,85.2163887 C142.377617,80.1204078 126.690619,82.4630397 126.690619,82.4630397 L126.690619,82.4630397 Z" id="path20" fill="#FCD213" fill-rule="nonzero"></path>
                        <path d="M142.066821,91.5561837 C142.066821,91.5561837 140.510004,93.3519283 137.999051,95.2059866 C137.999051,95.2059866 137.819382,94.2493278 136.622534,92.575569 C136.622534,92.575569 141.46887,90.2408173 144.280217,85.1558686 C144.280217,85.1558686 144.758704,88.2074052 143.324189,90.1210379 C143.324189,90.1210379 144.987861,90.8412901 147.113944,90.7079568 C146.731911,91.3910143 146.346411,92.0740718 145.960595,92.7549228 C144.799366,92.5777755 143.500075,92.2096116 142.066821,91.5561837" id="path22" fill="#588ED2" fill-rule="nonzero"></path>
                        <path d="M137.398893,82.8220625 C137.398893,82.8220625 139.01623,82.8825826 140.930178,83.182031 C140.930178,83.182031 140.391486,87.0698166 135.784394,89.5221412 C135.784394,89.5221412 137.819382,86.1730475 137.398893,82.8220625" id="path24" fill="#588ED2" fill-rule="nonzero"></path>
                        <path d="M121.076435,89.2907779 C119.459099,89.2907779 118.149091,90.6020466 118.149091,92.2181222 C118.149091,93.8357739 119.459099,95.1470425 121.076435,95.1470425 C122.693456,95.1470425 124.00504,93.8357739 124.00504,92.2181222 C124.00504,90.6020466 122.693456,89.2907779 121.076435,89.2907779 Z M117.416861,96.4835279 C115.874859,96.4835279 114.625056,97.7336461 114.625056,99.2750172 C114.625056,100.817019 115.874859,102.066822 117.416861,102.066822 C118.958547,102.066822 120.209926,100.817019 120.209926,99.2750172 C120.209926,97.7336461 118.958547,96.4835279 117.416861,96.4835279 Z M124.226947,87.9785636 C124.226947,89.4014162 125.379351,90.5544501 126.802834,90.5544501 C127.757916,90.5544501 128.592274,90.0337251 129.037349,89.2598874 C129.881478,89.8278937 130.885103,90.3602814 132.075647,90.7795092 C132.075647,90.7795092 129.084,90.9601238 128.665087,92.8737565 C128.665087,92.8737565 130.878799,93.4124484 133.511423,92.2745446 C133.511423,92.2745446 135.067294,92.7524011 136.38203,94.6679251 C136.38203,94.6679251 135.306222,94.4885713 134.76753,94.7880197 C134.76753,94.7880197 134.048854,93.4124484 132.075647,93.8899898 C132.075647,93.8899898 125.12151,96.9367982 124.776356,103.762015 C124.537113,108.488256 127.228996,108.907168 127.228996,108.907168 C127.228996,108.907168 127.109532,110.522298 124.954764,109.744678 C124.954764,109.744678 122.56296,108.129863 123.281636,102.685892 C123.281636,102.685892 121.844284,104.599525 122.56296,108.189438 C122.56296,108.189438 122.107798,107.945151 121.059099,108.050431 C121.253582,107.685419 121.363275,107.270604 121.363275,106.828051 C121.363275,105.386286 120.196057,104.219068 118.755237,104.219068 C117.314418,104.219068 116.147515,105.386286 116.147515,106.828051 C116.147515,107.84523 116.729075,108.725608 117.578248,109.155553 C117.390698,109.245387 117.198421,109.342156 116.997633,109.44586 C116.997633,109.44586 104.973047,95.0272632 125.254843,85.1558686 C125.254843,85.1558686 125.351928,85.3695802 125.565324,85.717886 C124.766585,86.1550806 124.226947,87.0042531 124.226947,87.9785636 L124.226947,87.9785636 Z" id="path26" fill="#FCD213" fill-rule="nonzero"></path>
                        <path d="M108.623796,91.6775391 C108.623796,91.6775391 108.68274,96.6427084 112.511266,98.4973971 C112.511266,98.4973971 112.272338,99.2148123 112.272338,100.770368 C112.272338,100.770368 104.853583,98.7369558 108.623796,91.6775391" id="path28" fill="#588ED2" fill-rule="nonzero"></path>
                        <path d="M117.416861,101.136956 C116.656262,101.136956 116.003149,100.679273 115.714418,100.02616 C115.722929,100.02616 115.73333,100.02616 115.743102,100.02616 C117.108902,100.02616 118.284631,99.2163884 118.81954,98.0516918 C119.105434,98.3776177 119.27943,98.8056713 119.27943,99.2750172 C119.27943,100.302598 118.446018,101.136956 117.416861,101.136956" id="path30" fill="#588ED2" fill-rule="nonzero"></path>
                        <path d="M120.0643,105.684473 C120.331597,105.990541 120.49456,106.389911 120.49456,106.828051 C120.49456,107.788807 119.715363,108.567688 118.755237,108.567688 C118.044126,108.567688 117.433882,108.139635 117.164378,107.528445 C117.172889,107.528445 117.181085,107.530967 117.18991,107.530967 C118.465876,107.530967 119.565009,106.773205 120.0643,105.684473" id="path32" fill="#588ED2" fill-rule="nonzero"></path>
                        <path d="M121.076435,94.1708408 C120.278957,94.1708408 119.593693,93.6914082 119.290147,93.0064595 C119.300233,93.0064595 119.308744,93.0064595 119.320092,93.0064595 C120.752085,93.0064595 121.987073,92.1569717 122.546884,90.9367984 C122.847278,91.2784847 123.029784,91.7260812 123.029784,92.2181222 C123.029784,93.2964516 122.154764,94.1708408 121.076435,94.1708408" id="path34" fill="#588ED2" fill-rule="nonzero"></path>
                        <path d="M126.802834,89.6970821 C126.099918,89.6970821 125.497554,89.2753327 125.230887,88.6717078 C125.238768,88.6717078 125.248224,88.6729686 125.255789,88.6729686 C126.517255,88.6729686 127.602834,87.9246629 128.095505,86.8498008 C128.359335,87.15051 128.519776,87.5460971 128.519776,87.9785636 C128.519776,88.9260813 127.750667,89.6970821 126.802834,89.6970821" id="path36" fill="#588ED2" fill-rule="nonzero"></path>
                        <path d="M130.024583,80.7669011 C129.495978,80.7669011 129.041132,80.4479097 128.840344,79.994009 C128.847593,79.994009 128.852637,79.994009 128.859886,79.994009 C129.811502,79.994009 130.629469,79.4307309 131.000785,78.618753 C131.200627,78.8472794 131.322613,79.1442061 131.322613,79.4704472 C131.322613,80.185656 130.740737,80.7669011 130.024583,80.7669011" id="path38" fill="#588ED2" fill-rule="nonzero"></path>
                        <path d="M137.409926,78.2862077 C137.608507,78.513158 137.729547,78.8126064 137.729547,79.136641 C137.729547,79.8534259 137.150194,80.4330949 136.433724,80.4330949 C135.905434,80.4330949 135.450588,80.1150492 135.249484,79.6605181 C135.255473,79.6605181 135.261778,79.6605181 135.269027,79.6605181 C136.219697,79.6605181 137.037664,79.0975552 137.409926,78.2862077" id="path40" fill="#588ED2" fill-rule="nonzero"></path>
                        <path d="M143.992116,78.8248995 C144.190383,79.0524803 144.311423,79.3503526 144.311423,79.6759633 C144.311423,80.3914874 143.730808,80.9727324 143.015914,80.9727324 C142.486048,80.9727324 142.032148,80.6531107 141.830099,80.19921 C141.836088,80.19921 141.843653,80.19921 141.850903,80.19921 C142.800312,80.19921 143.618279,79.636247 143.992116,78.8248995" id="path42" fill="#588ED2" fill-rule="nonzero"></path>
                        <path d="M150.392746,79.9010224 C150.592274,80.1286032 150.712999,80.4271059 150.712999,80.7539775 C150.712999,81.4682407 150.132384,82.0488553 149.417806,82.0488553 C148.887624,82.0488553 148.434039,81.7311248 148.23199,81.2765937 C148.238294,81.2765937 148.244283,81.2765937 148.251848,81.2765937 C149.201888,81.2765937 150.020485,80.7130003 150.392746,79.9010224" id="path44" fill="#588ED2" fill-rule="nonzero"></path>
                        <path d="M150.861147,76.1216687 L151.01749,76.1484615 L154.664772,76.7955852 C154.082896,77.9038594 153.49976,79.0092967 152.912211,80.1144188 C152.744519,79.6488554 152.553188,79.1820311 152.3379,78.713946 C151.936954,77.8499587 151.450272,76.9837648 150.861147,76.1216687" id="path46" fill="#FCD213" fill-rule="nonzero"></path>
                        <path d="M124.717412,78.9935362 C124.717412,78.9935362 125.195584,79.5322281 125.135379,81.1470429 C125.135379,81.1470429 100.366901,77.1977916 99.947988,57.5148922 C99.947988,57.5148922 101.444284,73.9672164 124.717412,78.9935362" id="path48" fill="#588ED2" fill-rule="nonzero"></path>
                        <path d="M118.733173,62.7807707 C114.054213,64.0592577 110.058626,63.0654043 107.456577,61.9524019 C106.322456,60.6313618 105.615127,59.3872326 105.178878,58.4009442 C109.712212,62.355554 115.08337,60.7460978 115.08337,60.7460978 C116.460202,62.3602821 118.733173,62.7807707 118.733173,62.7807707" id="path50" fill="#588ED2" fill-rule="nonzero"></path>
                        <path d="M122.874701,59.2457038 C123.224583,59.8077211 123.281636,60.3265548 123.281636,60.3265548 C123.281636,60.3265548 119.093141,63.6170197 115.502598,59.7282885 C111.993378,55.9271854 114.489516,46.5207238 120.976514,40.2319927 C125.131281,42.9289193 131.47675,43.0981865 131.47675,43.0981865 L130.160123,43.8137105 C125.848697,43.9426309 121.383133,41.8039391 121.383133,41.8039391 C108.415443,57.0628827 118.41891,63.3894389 122.874701,59.2457038" id="path52" fill="#588ED2" fill-rule="nonzero"></path>
                        <path d="M113.110163,32.028368 L111.973835,34.3013388 C110.716782,35.5587068 109.938847,35.9769889 109.938847,35.9769889 C108.802204,33.4052001 106.587547,31.3099756 106.587547,31.3099756 C110.358074,29.9947037 111.854371,27.6614335 111.854371,27.6614335 L112.63073,28.7369575 C110.776987,31.1315359 109.043023,31.6094555 109.043023,31.6094555 C109.699918,32.5664294 110.477539,33.8833719 110.477539,33.8833719 L113.110163,32.028368" id="path54" fill="#FCD213" fill-rule="nonzero"></path>
                        <path d="M130.207404,41.8720242 C132.82742,38.3927492 133.814969,32.3555547 133.814969,32.3555547 C131.887152,37.2025207 128.37415,37.3030724 128.37415,37.3030724 C135.843653,33.0966107 136.041604,16.2288097 136.041604,16.2288097 C134.35965,16.9705591 133.075174,16.5761698 133.075174,16.5761698 C133.024741,14.596028 131.045544,12.914452 131.045544,12.914452 C131.045544,12.914452 128.275805,13.0625686 126.692826,15.4373519 C125.572574,17.1190539 124.104646,17.6328443 123.343102,17.7910791 C123.00772,17.1196528 122.982188,16.7136954 122.982188,16.7136954 C124.717412,16.5923085 126.272652,14.3789437 126.272652,14.3789437 C128.904331,11.6867452 131.117727,11.6271392 131.117727,11.6271392 C136.082581,12.4640501 137.101967,15.6362171 137.101967,15.6362171 C136.730966,26.865878 134.821746,34.0296288 133.421588,37.8572095 C132.244599,40.0223788 130.998263,41.2472803 130.207404,41.8720242" id="path56" fill="#588ED2" fill-rule="nonzero"></path>
                        <path d="M127.58928,16.9515835 C127.887467,19.5839554 126.092668,20.9009293 126.092668,20.9009293 C125.512369,20.4479428 125.041447,20.0129231 124.655316,19.6063667 C127.029469,18.926682 127.58928,16.9515835 127.58928,16.9515835" id="path58" fill="#588ED2" fill-rule="nonzero"></path>
                        <path d="M128.869658,15.2397159 C134.237664,22.4463036 116.248382,30.8353026 117.346884,42.6263189 C116.207405,44.2282101 115.622062,45.5505111 115.622062,45.5505111 C114.24649,29.2768787 128.843811,25.2674225 128.904331,17.0705433 L128.869658,15.2397159" id="path60" fill="#588ED2" fill-rule="nonzero"></path>
                        <path d="M116.465245,29.8414177 C119.69456,26.7802042 117.487152,23.6812918 120.792747,21.0534904 C122.171786,22.8898339 123.759493,24.012261 123.759493,24.012261 C115.025687,32.7467289 114.665718,40.2846326 114.665718,40.2846326 C111.374623,39.4464923 111.793851,36.2764372 111.793851,36.2764372 C111.793851,36.2764372 115.20441,32.5071702 115.86162,26.9440813 C116.519461,21.3796685 119.391329,18.6272336 119.391329,18.6272336 C119.553031,19.0203935 119.739004,19.3986441 119.942314,19.7585495 C116.649012,23.7301807 117.938531,26.2603303 116.465245,29.8414177" id="path62" fill="#FFFFFF" fill-rule="nonzero"></path>
                        <path d="M121.844284,15.9946411 C122.202676,19.9432304 125.7327,21.7383131 125.7327,21.7383131 C125.075805,22.6938056 124.358705,23.2337268 124.358705,23.2337268 C119.631833,18.9860358 119.871077,16.4138688 119.871077,16.4138688 C121.067609,15.6951927 121.844284,14.7974464 121.844284,14.7974464 C122.443496,14.9774622 122.921352,15.5161541 122.921352,15.5161541 C122.56296,15.9338057 121.844284,15.9946411 121.844284,15.9946411" id="path64" fill="#FCD213" fill-rule="nonzero"></path>
                        <path d="M102.981243,33.7566579 C107.39984,35.6356177 107.927184,40.2212756 107.927184,40.2212756 L106.081006,41.6718666 C108.266349,45.4408184 110.636719,46.2379815 112.08731,46.3158381 C111.345308,46.9055938 108.446018,48.5109523 104.794324,41.3620163 L106.587547,39.9870754 C106.587547,39.9870754 105.810872,35.6182812 102.04192,34.5421583 C102.04192,34.5421583 102.050431,31.5703696 101.023796,26.3448063 C103.831676,29.7912995 102.981243,33.7566579 102.981243,33.7566579" id="path66" fill="#588ED2" fill-rule="nonzero"></path>
                        <path d="M88.2817945,12.0454213 C88.2817945,12.0454213 91.4515344,10.1907326 93.0074051,8.57553958 L93.8121332,9.51807699 C93.8121332,9.51807699 92.2307306,11.3976356 90.151298,12.0904646 C90.151298,12.0904646 91.4515344,13.8402518 92.409454,14.4989752 C92.409454,14.4989752 93.6063018,13.9007089 95.6400291,11.6271392 C95.6400291,11.6271392 96.1182009,12.0454213 96.7776178,13.0625686 C96.7776178,13.0625686 95.042078,14.1380926 92.1100056,16.5333329 C92.1100056,16.5333329 89.4783272,14.6786442 88.2817945,12.0454213" id="path68" fill="#FCD213" fill-rule="nonzero"></path>
                        <path d="M108.203307,21.3802674 C107.598421,20.7435771 107.246963,20.3016543 107.246963,20.3016543 C106.952558,20.4851374 106.657838,20.6600783 106.363118,20.8267922 C103.42222,19.933522 100.673599,19.0333171 99.4102418,18.2685575 C99.4102418,18.2685575 100.539005,19.5948931 105.260202,21.4311106 C102.529863,22.8501807 100.186916,23.5924029 100.186916,23.5924029 C98.2124483,22.1557441 95.3402655,21.1401728 95.3402655,21.1401728 C93.1870741,18.5664298 93.9646943,16.7731753 93.9646943,16.7731753 C95.8802182,14.7974464 96.7170977,14.4381714 96.7170977,14.4381714 C101.772101,18.5746567 111.511739,20.0088569 115.952401,21.922395 C115.660202,22.4968001 115.423795,23.0720562 115.227735,23.6384549 C113.642866,22.9928757 110.955395,22.2020168 108.203307,21.3802674" id="path70" fill="#FFFFFF" fill-rule="nonzero"></path>
                        <path d="M114.36627,29.1571939 L112.391802,26.5834194 L112.391802,24.7883367 C111.532227,24.292261 110.735064,23.6996369 110.036246,23.1102279 C112.699761,24.0488252 114.111266,24.6436558 114.832148,24.9806771 C114.26036,27.3116148 114.36627,29.1571939 114.36627,29.1571939" id="path72" fill="#FFFFFF" fill-rule="nonzero"></path>
                        <path d="M84.1166252,14.0356498 C89.45248,14.6695347 90.1194619,19.1794794 90.1194619,19.1794794 C88.3713138,20.0715519 87.6469639,19.7740578 87.6469639,19.7740578 C88.2985006,22.2143414 89.6434966,23.4089198 90.6543713,23.9849324 C89.6636699,24.0977141 87.2721806,23.8162327 86.4267906,18.746414 C86.4267906,18.746414 87.6835281,18.746414 88.4617787,18.5072021 C88.4617787,18.5072021 87.3828189,14.8576513 83.4956638,15.0968948 C83.4956638,15.0968948 82.9569719,12.4053267 82.2382958,8.09802974 C82.2382958,8.09802974 82.9172556,9.32857345 83.6312036,10.8807247 C84.2241114,13.1120564 84.1166252,14.0356498 84.1166252,14.0356498" id="path74" fill="#588ED2" fill-rule="nonzero"></path>
                        <path d="M92.3949543,22.9727023 C94.3999976,23.4398418 95.7437328,22.7855313 96.3612269,22.3618592 C96.6619361,22.5014652 96.957602,22.6720246 97.1952694,22.8753028 C97.1952694,22.8753028 95.1618574,24.4904958 91.9902262,23.6511263 C91.9902262,23.6511263 90.803465,22.7625211 89.7137881,20.945626 C91.1817156,22.5109529 92.3949543,22.9727023 92.3949543,22.9727023" id="path76" fill="#588ED2" fill-rule="nonzero"></path>
                        <path d="M136.210556,31.4550032 C136.319303,30.9264295 136.431517,30.3467289 136.542471,29.7156809 C136.542471,29.7156809 138.616545,31.3515831 137.339634,36.9755704 C137.339634,36.9755704 137.061305,36.5802985 136.150666,36.1279739 C137.059098,34.2433404 136.603937,32.4349874 136.210556,31.4550032" id="path78" fill="#588ED2" fill-rule="nonzero"></path>
                        <path d="M145.723873,40.170527 C145.402045,39.9659564 145.086521,39.7594947 144.784866,39.5530329 C145.823795,33.0896761 139.950509,32.8996052 139.950509,32.8996052 C139.858153,36.4529542 138.91032,38.8094553 138.414811,39.8048847 C137.505119,40.2994474 136.822376,40.6036239 136.822376,40.6036239 C139.414339,37.055003 138.815127,31.2693452 138.815127,31.2693452 C148.868081,32.985342 145.723873,40.170527 145.723873,40.170527" id="path80" fill="#588ED2" fill-rule="nonzero"></path>
                        <path d="M174.371312,69.5019683 C174.770681,70.4983434 175.90102,70.9840802 176.898026,70.5850258 C177.896607,70.1881779 178.381083,69.0575239 177.981713,68.0608336 C177.58455,67.0635129 176.454212,66.5780913 175.458782,66.9765153 C174.461461,67.3733632 173.974779,68.5040172 174.371312,69.5019683 Z M169.993376,68.0554751 C169.993376,68.0554751 169.575409,67.6441275 169.304645,67.3103214 C169.867608,66.1118975 170.429625,64.9100063 170.983132,63.706539 C170.996686,63.7421576 171.008034,63.7828195 171.022848,63.819699 C171.420642,64.814498 172.550666,65.2992891 173.548301,64.9024412 C174.545307,64.5033869 175.029783,63.3733633 174.63262,62.3763578 C174.234511,61.3802979 173.102911,60.8948763 172.105906,61.2917242 C172.098656,61.2955067 172.092352,61.2996045 172.085102,61.3040174 C172.591643,60.1897542 173.092194,59.0732846 173.592431,57.9568149 C175.366111,61.963119 178.126079,66.8602032 182.423951,72.2944032 C176.1721,73.3935364 172.998262,72.8312039 172.998262,72.8312039 C172.796213,72.6335679 172.60299,72.4353016 172.410398,72.2392417 L172.659413,71.4846318 C173.45563,69.0903056 172.282108,67.6003135 169.993376,68.0554751 L169.993376,68.0554751 Z" id="path82" fill="#FCD213" fill-rule="nonzero"></path>
                        <path d="M167.321351,48.6156016 C166.32277,49.0149712 165.838609,50.1449948 166.235142,51.1413699 C166.374779,51.4899908 166.605197,51.7730484 166.883526,51.9817166 C165.965638,53.9709994 165.037348,55.956815 164.095819,57.9350655 C160.733172,44.6531116 167.286678,34.3473593 141.979193,28.8056415 C141.199051,27.2381081 139.673125,26.5834194 139.673125,26.5834194 C139.673125,26.5834194 165.280059,25.4478165 166.417648,46.7460981 C166.417648,46.7460981 166.864929,46.8362478 169.181083,46.9367995 C168.943101,47.4666655 168.702911,47.9952707 168.465244,48.5251367 C168.095504,48.4422368 167.69708,48.4658774 167.321351,48.6156016" id="path84" fill="#FCD213" fill-rule="nonzero"></path>
                        <path d="M178.382029,56.9166258 C177.377458,55.6447583 176.110319,54.9582335 175.083999,54.5894391 C175.358861,53.9631192 175.632462,53.3367993 175.903226,52.7117402 C178.11946,54.9925912 178.382029,56.9166258 178.382029,56.9166258" id="path86" fill="#588ED2" fill-rule="nonzero"></path>
                        <path d="M180.118829,67.2066177 C186.592273,65.108903 183.425685,56.7505108 181.733329,53.0285251 C185.322927,55.7200932 185.501335,57.7535053 185.501335,57.7535053 C186.278955,54.642079 185.681319,51.8304164 185.681319,51.8304164 C186.937426,52.0702903 187.775567,51.7717875 187.775567,51.7717875 C188.313943,57.8735998 187.177615,61.8827408 187.177615,61.8827408 C185.681319,61.2239543 185.501335,59.3100064 185.501335,59.3100064 C184.784235,63.498186 188.313943,65.0537415 188.313943,65.0537415 C184.484787,68.3445215 181.733329,69.2999195 181.733329,69.2999195 C180.775724,68.2827406 180.118829,67.2066177 180.118829,67.2066177" id="path88" fill="#588ED2" fill-rule="nonzero"></path>
                        <path d="M131.705592,61.0307313 L133.321667,59.2485407 C133.798893,60.7959008 134.075016,62.2004713 134.213078,63.4594153 L133.610083,63.6658771 C133.610083,63.6658771 133.919303,64.5752545 134.320249,65.7462553 C134.273283,68.2064601 133.696451,69.8676105 133.339004,70.6685562 C132.957916,69.9744663 132.793062,69.5410542 132.793062,69.5410542 C133.690146,64.7029141 132.852321,61.5234027 132.852321,61.5234027 L131.895663,62.8412908 C132.015442,64.6931426 131.656419,65.8297856 131.656419,65.8297856 C129.742471,62.9591789 127.58928,61.5234027 127.58928,61.5234027 C127.228996,57.9350655 128.665087,56.1374296 128.665087,56.1374296 C129.084,57.9350655 128.843811,59.8474374 128.843811,59.8474374 L129.443023,59.8474374 C130.414181,56.6395573 129.801415,53.9845534 129.801415,53.9845534 C130.223165,53.4912516 130.69125,53.0070909 131.195584,52.5364841 C132.334433,57.286681 131.705592,61.0307313 131.705592,61.0307313" id="path90" fill="#588ED2" fill-rule="nonzero"></path>
                        <path d="M164.908743,76.5384536 C164.975567,76.3722904 165.043337,76.2042391 165.111422,76.0384536 C165.245701,76.1064294 165.381241,76.1589219 165.519302,76.1959309 C165.307167,76.308091 165.102912,76.4240276 164.908743,76.5384536" id="path92" fill="#588ED2" fill-rule="nonzero"></path>
                        <path d="M152.939003,48.970842 C151.47013,49.456894 151.805197,50.7170988 149.278168,54.2591003 L148.128601,54.3347504 C150.174622,51.9943249 149.777459,49.6526386 149.777459,49.6526386 C146.697238,47.8868388 144.934906,45.5996837 144.275174,44.6225363 C144.954764,44.330653 145.357601,44.173679 145.357601,44.173679 C148.075646,46.6253731 151.698972,48.3609129 151.698972,48.3609129 C159.478641,46.8652471 161.87076,50.3955858 161.87076,50.3955858 C161.902596,51.0591004 161.953345,51.7059089 162.013865,52.3388482 C159.936009,50.7413699 157.710319,50.045704 155.852794,49.7733636 C155.108586,49.4726544 154.144362,48.5730484 152.939003,48.970842" id="path94" fill="#588ED2" fill-rule="nonzero"></path>
                        <path d="M171.952084,73.6025198 C172.021115,73.5864442 172.085102,73.574151 172.144361,73.5609123 C172.38329,73.7519288 172.518829,73.8474371 172.518829,73.8474371 C172.390855,74.0296278 172.261619,74.2039383 172.130492,74.3779335 C171.759491,74.4236388 171.392588,74.4769091 171.033565,74.5367988 C171.35035,74.274545 171.65957,73.9583906 171.952084,73.6025198" id="path96" fill="#588ED2" fill-rule="nonzero"></path>
                        <path d="M138.063038,68.0661922 C137.824425,68.1478312 137.645387,68.2083513 137.631833,68.212449 C137.39385,67.5152071 137.351297,67.388178 137.101967,66.6568935 C137.124031,66.6493285 137.594953,66.4892024 138.046017,66.3350653 L138.305119,66.9711567 C138.124819,67.166271 138.058625,67.265877 138.058625,67.265877 C138.069658,67.5382174 138.069658,67.8045688 138.063038,68.0661922" id="path98" fill="#588ED2" fill-rule="nonzero"></path>
                        <path d="M136.607719,71.6598879 C136.84318,71.8710778 137.123086,72.0204868 137.422534,72.1037019 C137.216703,72.7899115 137.041447,73.1895963 137.041447,73.1895963 L135.483685,73.3408965 C135.742471,72.4340407 135.949248,71.6504316 136.113472,70.9762 C136.228208,71.235932 136.39716,71.4707626 136.607719,71.6598879" id="path100" fill="#588ED2" fill-rule="nonzero"></path>
                        <path d="M139.554606,73.8474371 C139.420327,73.1640644 139.352558,72.4933 139.336482,71.8458611 L140.692195,71.3834498 L140.491722,70.7949549 C140.612132,70.8453883 140.736955,70.8844742 140.864929,70.9115822 C140.764063,72.321196 140.884788,73.2964521 140.995741,73.8449154 C140.08857,73.8341983 139.554606,73.8474371 139.554606,73.8474371" id="path102" fill="#588ED2" fill-rule="nonzero"></path>
                        <path d="M173.980768,63.6888873 C173.842391,63.9577604 173.611028,64.1796674 173.306536,64.301338 C172.644598,64.5648526 171.889042,64.242394 171.624267,63.5769882 C171.427892,63.086208 171.552714,62.5462553 171.902596,62.1900694 C171.903857,62.1966888 171.90764,62.2023625 171.90764,62.2083515 C172.262565,63.0912514 173.088412,63.6434972 173.980768,63.6888873" id="path104" fill="#588ED2" fill-rule="nonzero"></path>
                        <path d="M175.260201,67.8934577 C175.611343,68.7760424 176.438136,69.3270274 177.330807,69.3708414 C177.192746,69.6412906 176.961067,69.8644585 176.659412,69.9848682 C175.993376,70.2496436 175.240342,69.927185 174.974306,69.261464 C174.778246,68.7706839 174.905275,68.2282095 175.252951,67.8735996 C175.255157,67.8802189 175.256103,67.8855775 175.260201,67.8934577" id="path106" fill="#588ED2" fill-rule="nonzero"></path>
                        <path d="M167.116781,49.5145772 C167.117726,49.5202509 167.120248,49.5278159 167.124346,49.5325441 C167.24444,49.8401879 167.425055,50.1071697 167.645386,50.324979 C167.486521,50.6754912 167.324819,51.0241122 167.165008,51.3724179 C166.75303,50.9957434 166.480689,50.164853 167.116781,49.5145772" id="path108" fill="#588ED2" fill-rule="nonzero"></path>
                        <path d="M182.458309,111.028839 C181.011185,106.59984 183.84113,104.249958 183.84113,104.249958 C181.627419,109.106065 185.919302,113.176357 185.919302,113.176357 C158.808822,116.643654 157.033566,100.675175 157.033566,100.675175 C160.908113,112.757759 182.458309,111.028839 182.458309,111.028839" id="path110" fill="#FFFFFF" fill-rule="nonzero"></path>
                        <path d="M184.780137,87.1350648 C184.780137,87.1350648 183.849641,86.856105 183.662407,86.7933784 C183.684787,86.7205652 183.705275,86.6490128 183.724188,86.5771452 C186.586284,87.1965305 199.960594,90.7363255 197.124345,102.415758 C197.124345,102.415758 198.017962,91.2088236 185.724503,90.116625 L184.780137,87.1350648" id="path112" fill="#FFFFFF" fill-rule="nonzero"></path>
                        <path d="M161.157124,84.3807702 C161.150458,84.3874368 161.139791,84.4047702 161.139791,84.4074368 C161.139791,84.4047702 161.150458,84.3874368 161.157124,84.3807702" id="path114" fill="#FFFFFF" fill-rule="nonzero"></path>
                        <path d="M161.159939,84.3653249 C161.154606,84.3653249 161.154606,84.3653249 161.154606,84.3653249 C161.154606,84.3653249 161.154606,84.3653249 161.159939,84.3653249" id="path116" fill="#FFFFFF" fill-rule="nonzero"></path>
                        <path d="M179.411501,85.4811641 C179.411501,85.4811641 179.326709,84.9188316 178.857994,84.424269 C178.476906,84.0214321 177.827576,83.8988159 177.827576,83.8988159 C174.857048,85.1044896 175.920878,86.342945 175.920878,86.342945 C175.920878,86.342945 177.102596,86.4277362 177.791643,86.2903052 C177.791643,86.2903052 178.403148,86.0914084 179.411501,85.4811641 L179.411501,85.4811641 Z M177.058467,80.220329 C177.058467,80.220329 174.700705,81.6488553 170.507482,81.8543715 C170.507482,81.8543715 171.032305,83.8301003 173.158703,84.1995251 C173.158703,84.1995251 175.561855,83.9842375 178.273912,82.4586268 C178.273912,82.4586268 178.668238,81.2617789 177.058467,80.220329 L177.058467,80.220329 Z M176.539633,78.8400295 L175.93916,78.3936939 C175.93916,78.3936939 175.234038,78.8003132 174.201414,78.9122124 C173.168475,79.0247419 171.59117,79.3065386 170.832777,80.1241903 C170.832777,80.1241903 173.829152,81.0887293 176.539633,78.8400295 Z M169.018435,97.1640638 L168.275173,95.9776178 L169.509216,93.7399504 C169.967214,94.7249779 172.729704,95.3459393 172.729704,95.3459393 C172.729704,95.3459393 173.13128,95.1996824 174.276434,93.5019677 C175.420327,91.8058291 176.751769,92.481952 176.676119,92.3741506 C176.392746,91.9795091 175.706221,91.6050411 174.969263,91.5435753 L175.646016,91.0903051 L173.906694,90.610242 L174.145937,91.0903051 C174.145937,91.0903051 174.051059,91.2144973 173.821903,91.3613846 C173.742785,91.0713925 173.5234,90.7801396 172.960122,90.8028346 C171.924661,90.8431813 171.981398,91.4868377 172.08258,91.8231656 C171.741209,91.8345131 171.351611,91.8159158 170.906852,91.7490915 L171.205985,91.2103996 L169.525291,92.2893594 C169.525291,92.2893594 167.62206,92.4643003 167.07013,91.1208803 C167.07013,91.1208803 167.138845,88.6064596 169.411501,85.3349072 C169.411501,85.3349072 165.023794,84.4387686 165.421903,78.8126064 C167.930019,78.7126852 171.272809,79.0685559 174.305118,77.3809279 C175.611343,76.653426 176.537111,75.9760422 175.862565,75.2699745 C176.131438,75.2841589 176.402517,75.3021258 176.674858,75.3276577 C176.765323,75.332701 177.611973,77.1098483 178.589436,79.1886505 C179.011185,80.08605 179.800468,80.9727324 180.491091,81.7005496 C183.116465,84.4652461 183.281319,85.0307307 182.379507,87.3333312 C182.357127,87.3894383 182.560437,87.4903051 182.828049,87.5924328 C182.963589,87.9672161 183.621745,90.0980277 181.071705,89.7733626 C180.096765,89.6475943 179.495346,89.5940088 179.495346,89.5940088 L181.287308,89.3802972 L182.741997,88.2420782 L181.729861,87.6646156 L181.679113,88.2105573 C181.679113,88.2105573 181.654527,88.2436542 181.607876,88.2969245 C181.472336,88.080376 181.211028,87.8423934 180.75366,88.0469639 C180.136166,88.3227716 180.39117,88.8223776 180.499601,88.9897535 C180.382659,89.0269481 180.254684,89.0575234 180.118829,89.079588 L180.02868,88.5396353 L179.495346,89.5940088 C179.495346,89.5940088 178.766583,92.0103996 179.322612,91.3153641 C179.879586,90.6190679 183.254527,91.0471214 183.254527,91.0471214 C184.352714,89.1511404 183.268081,87.9476731 182.913155,87.6248993 C183.370523,87.7966881 183.96091,87.9706834 183.96091,87.9706834 L185.14641,91.7134729 C184.26288,92.6316762 177.9234,98.8217469 169.018435,97.1640638 L169.018435,97.1640638 Z" id="path118" fill="#FFFFFF" fill-rule="nonzero"></path>
                        <path d="M171.842076,94.0022041 L169.509216,93.7399504 L168.96422,93.1870741 L169.525291,92.2893594 L172.792431,92.6033074 C172.226631,93.2639851 171.842076,94.0022041 171.842076,94.0022041" id="path120" fill="#FFFFFF" fill-rule="nonzero"></path>
                        <path d="M170.116623,99.3673734 C166.538373,98.2657186 165.053109,92.4362467 165.053109,92.4362467 L164.640185,91.1785635 L163.364535,92.6594145 L163.43987,94.8592569 L162.372258,95.5861284 L161.215126,94.9462545 L160.299444,92.6061443 L162.486994,88.542157 C162.486994,88.542157 161.371785,86.5380593 161.136324,84.4012587 C161.136324,84.3984218 161.13853,84.3936937 161.139791,84.3870743 C161.139791,84.3864439 161.142313,84.3823462 161.143889,84.3807702 C161.146095,84.376042 161.149878,84.3716291 161.154606,84.3653249 C161.154606,84.3653249 161.154606,84.3653249 161.155867,84.3653249 C161.321351,84.1434179 162.559807,83.088414 163.147671,79.9943242 C163.309058,79.6747025 163.47076,79.3538199 163.629626,79.0332526 C164.154763,78.898028 164.761225,78.8400295 165.421903,78.8126064 C165.023794,84.4387686 169.411501,85.3349072 169.411501,85.3349072 C167.138845,88.6064596 167.07013,91.1208803 167.07013,91.1208803 C167.62206,92.4643003 169.525291,92.2893594 169.525291,92.2893594 L168.96422,93.1870741 L169.509216,93.7399504 L168.275173,95.9776178 L169.018435,97.1640638 C177.9234,98.8217469 184.26288,92.6316762 185.14641,91.7134729 L185.147671,91.7134729 L185.639712,93.2627242 C182.458309,99.2674522 173.061304,100.27549 170.116623,99.3673734" id="path122" fill="#588ED2" fill-rule="nonzero"></path>
                        <polyline id="path124" fill="#FFFFFF" fill-rule="nonzero" points="163.364535 92.6594145 164.640185 91.1785635 165.053109 92.4362467 165.187703 95.4742293 163.53853 96.2319913 162.36879 95.591487 162.372258 95.5861284 163.43987 94.8592569 163.364535 92.6594145"></polyline>
                        <path d="M173.519617,91.6551593 L172.727182,91.7308094 C172.796213,91.3531892 172.589121,91.2844737 172.589121,91.2844737 C173.329862,90.8797456 173.519617,91.6551593 173.519617,91.6551593" id="path126" fill="#588ED2" fill-rule="nonzero"></path>
                        <path d="M180.75366,88.3568142 C181.098813,88.0122909 181.382186,88.4857346 181.382186,88.4857346 L180.925133,88.7533469 C180.925133,88.4170191 180.75366,88.3568142 180.75366,88.3568142" id="path128" fill="#588ED2" fill-rule="nonzero"></path>
                        <path d="M175.920878,86.342945 C175.920878,86.342945 174.857048,85.1044896 177.827576,83.8988159 C177.827576,83.8988159 178.476906,84.0214321 178.857994,84.424269 C178.857994,84.424269 177.826631,84.3599664 175.920878,86.342945" id="path130" fill="#588ED2" fill-rule="nonzero"></path>
                        <path d="M173.167529,83.9136307 C172.254054,83.5851831 171.814338,83.0966094 171.814338,83.0966094 C175.81087,82.6553171 177.108585,81.6204865 177.108585,81.6204865 L177.40362,82.4721808 C174.717726,83.7128427 173.167529,83.9136307 173.167529,83.9136307" id="path132" fill="#FFFFFF" fill-rule="nonzero"></path>
                        <path d="M125.035143,57.5104793 L123.674701,56.3722602 C123.674701,56.3722602 123.255474,54.6149711 124.268555,52.5869175 C124.268555,52.5869175 122.462723,54.0715511 122.438137,56.5702114 C122.438137,56.5702114 123.927499,57.286681 125.703385,60.7010229 C125.703385,60.7010229 124.936798,57.4846321 127.509217,53.9738363 C127.509217,53.9738363 125.926238,54.1698962 125.035143,57.5104793 L125.035143,57.5104793 Z M132.120091,50.0756489 C124.160123,56.6121341 126.692826,62.233253 126.692826,62.233253 L127.983606,63.4209598 C126.833409,64.4264759 126.029942,63.9338045 126.029942,63.9338045 C124.249012,58.1973193 121.613866,56.9418425 121.613866,56.9418425 C121.789753,53.0398726 124.828366,49.4940886 128.518515,46.6004716 C128.518515,46.6004716 129.832306,48.3568152 132.120091,50.0756489 L132.120091,50.0756489 Z" id="path134" fill="#FCD213" fill-rule="nonzero"></path>
                        <path d="M139.586758,43.0921975 C139.311896,42.53743 138.637979,42.3120557 138.084473,42.5878634 L137.667766,42.795586 C137.2498,42.4450738 136.776356,42.0775403 136.24649,41.7005506 C139.595584,39.9388485 142.192589,38.9345932 142.192589,38.9345932 L147.510792,42.3189903 L147.270603,44.2332534 L145.537585,42.8261613 C143.503858,43.6006293 141.679744,44.3873905 140.045071,45.176043 C139.903543,44.9938523 139.679429,44.7271856 139.367372,44.3936947 C139.706222,44.0617798 139.808665,43.5372724 139.586758,43.0921975" id="path136" fill="#FCD213" fill-rule="nonzero"></path>
                        <path d="M135.712841,43.7664292 C135.527183,43.6261612 135.334276,43.4817956 135.131281,43.3361691 C134.175883,43.652954 131.852164,44.5449949 130.634827,46.0589429 C131.12876,46.6137104 132.030257,47.5341202 133.327656,48.5084306 C134.296923,48.13018 136.535221,47.1741517 138.069658,45.9038602 C137.925607,45.7453101 137.752873,45.5612282 137.547041,45.3594945 L138.48132,44.8951919 C139.127183,45.5646955 139.421588,45.9924338 139.421588,45.9924338 C137.37809,48.1676899 133.176356,49.6211178 133.176356,49.6211178 C130.670446,47.8420792 129.397002,46.1238759 129.397002,46.1238759 C130.913157,43.4200147 135.302439,42.2480683 135.302439,42.2480683 C135.818752,42.6017326 136.282424,42.946571 136.695662,43.2775403 L135.712841,43.7664292" id="path138" fill="#FCD213" fill-rule="nonzero"></path>
                        <path d="M139.055946,43.3560273 C139.186443,43.6189114 139.079272,43.9350659 138.817963,44.0639863 C138.663826,44.1415277 136.464614,45.234987 136.310477,45.3106372 C136.049484,45.4408184 135.73396,45.3349082 135.603149,45.0732849 C135.473913,44.8135529 135.578562,44.4948767 135.841131,44.3653259 C135.994008,44.2877846 138.19385,43.1949556 138.349563,43.1193055 C138.608034,42.9884938 138.926395,43.0950344 139.055946,43.3560273" id="path140" fill="#FCD213" fill-rule="nonzero"></path>
                        <path d="M155.009925,66.2430243 C156.177143,67.47423 157.441761,68.3656405 158.666978,69.0115034 C158.224425,69.8887295 157.77935,70.7653253 157.332069,71.6412906 C154.973991,70.7467279 153.334906,69.5621732 153.334906,69.5621732 C153.633093,67.6491709 155.009925,66.2430243 155.009925,66.2430243" id="path142" fill="#FCD213" fill-rule="nonzero"></path>
                        <path d="M155.309374,71.4156011 C155.309374,71.4156011 155.937585,71.8272638 157.01749,72.2581542 C156.720563,72.8393993 156.421115,73.4203291 156.119145,74.002835 C155.585497,73.7985797 155.035772,73.54988 154.471233,73.2438122 C154.471233,73.2438122 154.594795,72.3107941 155.309374,71.4156011" id="path144" fill="#FCD213" fill-rule="nonzero"></path>
                        <path d="M161.946095,62.3987376 C161.243495,63.8386115 160.53459,65.2750181 159.821273,66.708903 C158.312998,65.1010228 157.972573,63.6390843 157.972573,63.6390843 C159.649799,62.7807707 161.205355,62.4923546 161.946095,62.3987376" id="path146" fill="#FCD213" fill-rule="nonzero"></path>
                        <path d="M169.316938,68.2313616 L168.758388,68.4712355 C168.846962,68.2827406 168.93459,68.0955066 169.023479,67.9082725 C169.211974,68.1289187 169.316938,68.2313616 169.316938,68.2313616" id="path148" fill="#FCD213" fill-rule="nonzero"></path>
                        <path d="M153.717254,52.6332532 C153.678798,52.6146559 151.738373,51.6390846 151.698972,51.6192264 C151.698972,51.6192264 152.33002,50.3618585 152.331281,50.3618585 C152.510319,50.0100854 152.802518,49.7497229 153.157443,49.6318349 C153.49251,49.521827 153.84775,49.5486197 154.163274,49.7078002 C154.163274,49.7078002 156.996686,51.124979 157.036087,51.1448372 L156.196686,52.8160743 L158.261619,53.8550026 L158.467136,53.8550026 C158.592904,53.8146559 158.702597,53.7169411 158.76816,53.591488 L158.972415,53.1795101 L158.599208,52.9900696 C158.599208,52.9900696 157.956812,52.6704479 157.814023,52.5992107 L158.237979,51.752875 C158.278641,51.7717875 160.242707,52.7590215 160.282423,52.7782493 L160.280847,52.783923 L159.65106,54.0365629 C159.413392,54.5071696 158.960122,54.8138678 158.467136,54.8349868 C158.249957,54.8450735 158.026789,54.7965313 157.827577,54.6959797 L154.978089,53.2693446 C154.978089,53.2693446 154.939634,53.2494865 154.899917,53.2302587 L155.74184,51.5587064 C155.74184,51.5587064 153.713156,50.5342777 153.711895,50.5342777 L153.607246,50.5169412 C153.486521,50.5216693 153.307798,50.5992107 153.207561,50.8009444 L153.000784,51.2135527 C153.000784,51.2135527 153.999051,51.7156803 154.143416,51.7878632 L153.717254,52.6332532" id="path150" fill="#FFFFFF" fill-rule="nonzero"></path>
                        <path d="M137.58991,64.4617793 C137.58991,64.4617793 137.970682,65.578249 137.984236,65.6201717 C137.984236,65.6201717 137.094402,65.9227722 137.093141,65.9227722 C137.021904,65.7118975 136.689043,64.7281308 136.689043,64.7265547 L136.626001,64.6411331 C136.535221,64.5607549 136.353976,64.4901481 136.142156,64.5642222 L135.701809,64.713316 L137.611344,70.306066 L137.759177,70.4510621 C137.878326,70.5087453 138.022692,70.5185168 138.156971,70.470605 L138.594796,70.3227721 C138.594796,70.3227721 138.358074,69.6334104 138.358074,69.6318344 C138.358074,69.6318344 138.123874,68.9509833 138.07344,68.7990527 L138.969264,68.4936153 C138.982818,68.5342772 139.794165,70.9081149 139.808665,70.9494072 C139.807404,70.9500376 138.476277,71.4045687 138.476277,71.4045687 C137.979823,71.5735207 137.442392,71.4726538 137.072337,71.142315 C136.908428,70.9944821 136.783921,70.8018895 136.708901,70.5878627 L134.523558,64.1821891 C134.523558,64.1821891 134.508744,64.141212 134.494874,64.0996044 L135.823795,63.6460189 C136.197317,63.5183593 136.5866,63.5382175 136.924504,63.7043325 C137.238767,63.8609913 137.475489,64.127658 137.58991,64.4617793" id="path152" fill="#FFFFFF" fill-rule="nonzero"></path>
                        <path d="M145.437979,60.4977132 C145.437979,60.4977132 145.429468,60.4920395 145.426632,60.4920395 C145.320721,60.4368779 145.127183,60.4170198 144.939949,60.5427881 L144.554134,60.8012593 L147.849642,65.7169408 C147.924031,65.8263183 148.190067,65.8899905 148.4208,65.7355382 L148.8063,65.4776973 L145.510477,60.5604398 L145.426632,60.4920395 L145.437979,60.4977132 Z M144.396214,59.7364839 C144.724031,59.516153 145.108901,59.4345139 145.474543,59.5089032 C145.819697,59.5769883 146.1182,59.7762002 146.312999,60.0680836 C146.312999,60.0680836 150.100548,65.7304948 150.125134,65.767059 C150.125134,65.7676895 148.958231,66.5484617 148.958231,66.5484617 C148.522928,66.8397146 147.976986,66.8800614 147.535694,66.6562631 C147.338373,66.5544507 147.167215,66.4022048 147.042392,66.2146556 L143.278483,60.589439 C143.278483,60.589439 143.253897,60.5538204 143.228996,60.516941 L144.396214,59.7364839 L144.396214,59.7364839 Z" id="path154" fill="#FFFFFF" fill-rule="nonzero"></path>
                        <path d="M139.639398,63.5177289 L139.633724,63.5111095 L139.633724,63.5111095 L139.632778,63.5101639 C139.537585,63.434829 139.351297,63.377461 139.145465,63.4619369 L138.71426,63.6384539 L140.955079,69.1133158 C141.005513,69.2371929 141.253267,69.3512985 141.512053,69.2466492 L141.941052,69.0701322 L139.700233,63.5940094 L139.633724,63.5111095 L139.639398,63.5177289 Z M140.5866,63.2753333 C140.5866,63.2753333 143.163747,69.5807705 143.179823,69.6223781 L141.880848,70.1528745 C141.395111,70.3511409 140.851376,70.2824254 140.464614,69.9738359 C140.290619,69.8354592 140.154764,69.6507469 140.068712,69.441133 L137.50764,63.1760425 C137.50764,63.1760425 137.491565,63.1363262 137.474228,63.0962947 C137.475489,63.0962947 138.774465,62.5635918 138.774465,62.5635918 C139.139161,62.4160741 139.531281,62.4119764 139.87738,62.5576028 C140.200785,62.6944035 140.452321,62.948777 140.5866,63.2753333 L140.5866,63.2753333 Z" id="path156" fill="#FFFFFF" fill-rule="nonzero"></path>
                        <path d="M142.895189,60.6710781 C142.914732,60.7089031 142.935536,60.747989 142.935536,60.747989 L143.308113,61.4546872 C143.308113,61.4546872 143.327656,61.4944035 143.346253,61.5334894 L141.674701,62.3776186 C141.674701,62.3776186 144.901809,68.7817162 144.919776,68.8226933 L144.08069,69.2466492 C144.061147,69.2069329 140.423637,62.018911 140.423637,62.018911 C140.423637,62.018911 140.404094,61.9804555 140.384236,61.9426304 C140.384236,61.9401088 142.895189,60.6710781 142.895189,60.6710781" id="path158" fill="#FFFFFF" fill-rule="nonzero"></path>
                        <path d="M151.578247,51.9328592 C151.615441,51.9558695 152.332857,52.4003139 152.332857,52.4003139 C152.332857,52.4003139 152.369421,52.4236394 152.407876,52.4466496 L151.421903,54.0409758 C151.421903,54.0409758 157.520563,57.808982 157.556182,57.8319923 L157.06225,58.6323074 C157.02537,58.610558 150.170839,54.3732059 150.170839,54.3732059 C150.170839,54.3732059 150.136166,54.3501956 150.098026,54.3271854 C150.098026,54.3271854 151.576986,51.9334896 151.578247,51.9328592" id="path160" fill="#FFFFFF" fill-rule="nonzero"></path>
                        <path d="M148.168003,56.842867 C148.168003,56.842867 148.13459,56.8144982 148.099917,56.7858142 C148.099917,56.7858142 149.882423,54.6250577 149.882423,54.6237969 C149.91552,54.6527961 150.572731,55.1861294 150.572731,55.1861294 L150.571155,55.1861294 C150.571155,55.1861294 150.604567,55.2144982 150.637979,55.2416062 L149.455946,56.6773823 L151.450272,58.3063815 L152.233251,57.3566574 C152.266032,57.3834501 152.299129,57.4124493 152.299129,57.4111885 C152.299129,57.4111885 152.91946,57.935696 152.920721,57.9363264 C152.920721,57.9363264 152.955394,57.9640647 152.98723,57.9927487 L152.206773,58.9405817 L154.023952,60.4271064 L154.226001,60.4715509 C154.36028,60.4592577 154.487309,60.3892814 154.575883,60.2799039 L155.463511,59.2034658 C155.496608,59.2302586 155.529705,59.2579969 155.528759,59.2579969 L156.133014,59.7730482 C156.133014,59.7730482 156.167057,59.8033082 156.20173,59.8301009 L155.316939,60.904963 C154.981241,61.3090607 154.471233,61.5051206 153.982975,61.4168621 C153.766111,61.3777762 153.559334,61.2813223 153.384078,61.1379023 L148.168003,56.842867" id="path162" fill="#FFFFFF" fill-rule="nonzero"></path>
                        <path d="M145.84712,58.9774611 C145.84712,58.9774611 145.81623,58.9449946 145.787861,58.9118977 C145.787861,58.9118977 146.498972,58.2877842 146.501494,58.2877842 C146.530178,58.3205659 148.489831,60.5566573 148.489831,60.5566573 L148.651218,60.4444429 C148.651218,60.4444429 147.208822,57.6876266 147.201572,57.6721814 C147.223952,57.6535841 147.902912,57.0591002 147.902912,57.0591002 C147.932542,57.0909363 153.241289,63.1464129 153.241289,63.1464129 C153.241289,63.1464129 153.270603,63.1798251 153.298972,63.2116611 C153.298972,63.2138676 152.586915,63.8379811 152.586915,63.8379811 C152.557285,63.8036233 150.599839,61.5681624 150.599839,61.5681624 L150.435615,61.6810071 C150.435615,61.6810071 151.87675,64.4381387 151.883999,64.4523231 C151.863196,64.4712356 151.183921,65.0672955 151.183921,65.0672955 C151.153345,65.0345137 145.84712,58.9774611 145.84712,58.9774611" id="path164" fill="#FFFFFF" fill-rule="nonzero"></path>
                        <path d="M169.757915,70.0715507 C171.732699,71.7172559 171.732699,72.9137886 171.732699,72.9137886 C170.026788,75.2173346 167.634354,73.900077 167.634354,73.900077 C167.647908,73.1350652 167.390067,72.4475947 167.110792,71.9312827 C167.435772,71.2532685 167.758546,70.5768304 168.081635,69.8988162 C168.967687,69.7506681 169.757915,70.0715507 169.757915,70.0715507" id="path166" fill="#FCD213" fill-rule="nonzero"></path>
                        <path d="M166.825843,74.1689501 C166.825843,74.1689501 167.45563,74.6773819 168.143416,74.8570509 C168.143416,74.8570509 166.58061,76.011976 165.374937,75.5010225 C165.801099,74.630731 166.226946,73.7576026 166.64838,72.8863654 C166.766584,73.2349863 166.844125,73.6624095 166.825843,74.1689501" id="path168" fill="#FCD213" fill-rule="nonzero"></path>
                        <path d="M172.092352,71.297713 C171.344361,69.205672 169.189594,68.9055932 169.189594,68.9055932 C173.378089,67.4099274 172.092352,71.297713 172.092352,71.297713" id="path170" fill="#FCD213" fill-rule="nonzero"></path>
                        <path d="M124.71489,46.7511415 C120.196057,48.1676899 118.724662,52.3293919 118.724662,52.3293919 C115.369579,46.9298649 128.532069,44.7092187 128.532069,44.7092187 C122.443496,48.7918034 120.925765,53.897871 120.550036,56.3401089 C118.741999,55.3163107 117.161857,57.2390845 117.161857,57.2390845 C116.765955,54.1383753 120.196057,53.9738363 120.196057,53.9738363 C121.316309,48.8617797 124.71489,46.7511415 124.71489,46.7511415" id="path172" fill="#588ED2" fill-rule="nonzero"></path>
                        <path d="M140.272022,35.8427099 C144.352085,32.2565792 143.834197,38.9834506 143.834197,38.9834506 L142.151612,37.8713939 C143.215757,35.0263191 140.272022,35.8427099 140.272022,35.8427099" id="path174" fill="#588ED2" fill-rule="nonzero"></path>
                        <path d="M110.115048,25.9524028 C107.980139,29.2891718 104.475963,28.5008976 104.475963,28.5008976 L104.715521,27.8424264 C107.340896,27.7507006 108.511266,25.8458938 108.895821,25.0263508 C107.48274,23.8251215 106.806932,22.7744675 106.806932,22.7744675 C104.948461,24.5335849 102.766585,25.3535061 101.829785,25.6454525 C101.582031,25.264365 101.314418,24.8782342 101.023796,24.4904958 C101.023796,24.4904958 104.196372,23.5331751 106.947515,21.6182816 C106.947515,21.6182816 109.161227,24.0706377 111.076435,25.4478165 L111.076435,26.5525289 C110.733803,26.3568788 110.414812,26.155681 110.115048,25.9524028" id="path176" fill="#588ED2" fill-rule="nonzero"></path>
                        <path d="M91.7793515,8.82398717 L91.0707621,6.81330164 C88.3309671,9.2281164 85.6340404,9.55044893 85.6340404,9.55044893 L85.0483824,8.82770664 C87.7727322,7.93500374 89.1356952,6.35996832 89.6964517,5.52466495 L87.4149702,3.3838297 C86.1506677,5.04271067 83.6274211,6.27930638 82.6613061,6.71208809 C82.4885716,6.341371 82.3076418,5.96434973 82.1200925,5.58386117 C82.1200925,5.58386117 84.6319916,4.92551603 87.2649308,2.11436086 C87.2649308,2.11436086 89.4190679,4.08983441 91.8105572,6.06174926 L92.577145,8.16170192 C92.577145,8.16170192 92.2985005,8.41484613 91.7793515,8.82398717" id="path178" fill="#588ED2" fill-rule="nonzero"></path>
                        <path d="M106.481321,166.876907 C105.880218,166.752399 105.368634,166.48983 104.987862,166.239555 C104.987862,166.239555 120.437822,145.858152 130.29976,130.271707 C130.289358,130.239555 131.243496,130.829942 131.694559,131.028523 C123.75571,143.321982 115.342472,155.280374 106.481321,166.876907" id="path180" fill="#FCD213" fill-rule="nonzero"></path>
                        <path d="M129.497239,129.689831 C129.385024,129.599997 128.987861,129.301809 128.711738,129.108271 C120.59322,141.418436 112.044126,153.319145 103.113945,164.725291 C103.432306,165.019381 103.796688,165.317569 104.216231,165.619854 C104.216231,165.619854 119.439241,145.629941 129.497239,129.689831" id="path182" fill="#FCD213" fill-rule="nonzero"></path>
                        <path d="M173.99905,40.9062244 C174.402517,40.9380604 174.797789,41.0316775 175.175409,41.1659564 C166.142785,61.9662711 155.814653,82.3974763 144.297554,102.13995 C144.050115,101.733331 143.796056,101.314733 143.522455,100.90118 C154.846017,81.6252147 165.037348,61.5990528 173.99905,40.9062244" id="path184" fill="#FCD213" fill-rule="nonzero"></path>
                        <path d="M176.137742,41.6069336 C176.116623,41.5962165 176.096134,41.5826625 176.075015,41.5709997 C166.89708,62.7007077 156.441919,83.302756 144.886994,103.070447 C145.040816,103.300864 145.198736,103.518674 145.363905,103.721983 C145.363905,103.721983 164.24838,71.2608335 176.137742,41.6069336" id="path186" fill="#FCD213" fill-rule="nonzero"></path>
                        <path d="M101.471392,162.533329 C110.356498,151.228365 118.814812,139.566584 126.813866,127.571628 C127.189595,127.930336 127.576671,128.254055 127.924347,128.525135 C119.878326,140.723086 111.366112,152.578404 102.417649,164.009452 C101.975096,163.494716 101.67218,162.999523 101.471392,162.533329" id="path188" fill="#FCD213" fill-rule="nonzero"></path>
                        <path d="M94.5330158,171.179822 C94.942472,171.600626 95.3825035,171.98329 95.7843948,172.307324 C95.3664279,172.818278 94.9497218,173.329862 94.5308093,173.838924 C94.5342766,173.842076 94.5367983,173.845543 94.5393199,173.849641 C94.068398,173.376828 93.7147337,172.906536 93.4534256,172.496134 C93.8146549,172.058625 94.1743081,171.617963 94.5330158,171.179822" id="path190" fill="#FCD213" fill-rule="nonzero"></path>
                        <path d="M96.572732,172.906536 C96.9528739,173.179192 97.6195405,173.684787 97.8266327,173.838924 C97.4729684,174.286205 96.9872316,174.884787 96.5979487,175.369263 C96.0958211,175.10039 95.6545287,174.805669 95.2702892,174.501493 C95.5057502,174.213077 95.9826611,173.628995 96.572732,172.906536" id="path192" fill="#FCD213" fill-rule="nonzero"></path>
                        <path d="M100.075963,175.096922 C99.7566563,175.499444 99.4373498,175.902911 99.1170976,176.304172 C98.5415263,176.169263 98.017334,176.000941 97.5382166,175.808033 C97.8940874,175.357915 98.3060653,174.826788 98.6499581,174.391485 C99.1391622,174.68652 99.617334,174.916623 100.075963,175.096922" id="path194" fill="#FCD213" fill-rule="nonzero"></path>
                        <path d="M176.997001,42.1547665 C177.451532,42.4841597 177.775882,42.7826624 177.907639,42.908746 C164.775725,75.2841589 147.976986,104.164221 147.47675,105.041132 C147.47675,105.041132 146.898657,105.157759 146.085103,104.462409 C146.085103,104.462409 162.27013,77.5252936 176.997001,42.1547665" id="path196" fill="#FCD213" fill-rule="nonzero"></path>
                        <path d="M181.262722,26.5976037 C180.749877,26.5165636 180.314574,26.4662247 180.02143,26.4385179 C181.203778,23.4792429 182.36217,20.5077694 183.497237,17.5209452 C184.076906,17.1804881 184.586914,17.0174621 185.029467,16.9765796 C183.805512,20.189503 182.549404,23.3967528 181.262722,26.5976037" id="path198" fill="#FCD213" fill-rule="nonzero"></path>
                        <path d="M186.627891,17.4413865 C186.98786,17.7252005 187.238136,18.0804408 187.391327,18.3489672 C186.31615,21.347265 185.21418,24.3325132 184.087623,27.3043334 C183.757285,27.1829465 183.418435,27.0768157 183.082107,26.9856888 C184.294716,23.8108111 185.47927,20.6291878 186.627891,17.4413865" id="path200" fill="#FCD213" fill-rule="nonzero"></path>
                        <g id="path202"></g>
                        <path d="M180.996371,33.7667446 C178.32403,32.3246643 175.65957,31.8783286 175.65957,31.8783286 C176.319933,30.7118038 177.096607,30.1737424 177.096607,30.1737424 C179.81812,30.4259094 181.549877,31.088699 182.625685,31.5955863 C181.69771,32.4863664 181.218593,33.306855 180.996371,33.7667446" id="path204" fill="#588ED2" fill-rule="nonzero"></path>
                        <path d="M185.142627,29.077383 C183.611658,30.0422372 183.408664,30.8995737 183.408664,31.2935847 C180.662564,29.5855627 177.874542,29.3059094 177.874542,29.3059094 C178.681792,27.9596526 179.638136,27.4821427 179.638136,27.4821427 C184.273597,28.2881317 185.142627,29.077383 185.142627,29.077383" id="path206" fill="#588ED2" fill-rule="nonzero"></path>
                        <path d="M172.698814,39.8660353 L173.149877,40.3817169 L172.464613,41.8181235 C171.261777,40.3675325 171.501966,38.9383757 171.501966,38.9383757 C172.189751,36.9935373 173.268396,36.1563427 173.268396,36.1563427 C175.724818,36.4529542 177.984235,37.4064608 179.228995,38.0170203 C178.230413,39.5587067 177.821272,40.5635924 177.653581,41.151772 C175.404251,39.4707634 172.698814,39.8660353 172.698814,39.8660353" id="path208" fill="#588ED2" fill-rule="nonzero"></path>
                        <path d="M180.027734,37.554609 C177.217332,35.7966894 173.687309,35.0808502 173.687309,35.0808502 C174.314574,33.5234034 175.331753,32.7760433 175.331753,32.7760433 C178.359964,33.4405035 180.365323,34.2915673 181.310634,34.7498809 C180.449168,35.9807714 180.137427,37.017178 180.027734,37.554609" id="path210" fill="#588ED2" fill-rule="nonzero"></path>
                        <path d="M171.084314,35.9174144 L170.515993,35.8865239 C168.991328,37.6520085 170.663826,38.5503536 170.663826,38.5503536 C170.03656,40.8233244 171.861934,42.8274221 171.861934,42.8274221 C168.571154,43.3667444 167.853424,41.3929068 167.853424,41.3929068 C167.822533,36.9645381 170.246174,34.988494 170.246174,34.988494 C171.68195,34.660992 172.608979,35.4691875 172.608979,35.4691875 C171.233408,36.8453891 170.963274,37.8329384 170.963274,37.8329384 C169.887466,37.3229305 171.084314,35.9174144 171.084314,35.9174144" id="path212" fill="#588ED2" fill-rule="nonzero"></path>
                        <path d="M179.100705,42.6773827 L177.709058,45.9347506 C178.51284,45.8174929 180.152241,45.3267128 181.972572,43.3361691 C181.972572,43.3361691 183.678482,43.1571305 183.437032,41.3317563 C183.437032,41.3317563 182.750508,40.3750975 179.938845,39.5073276 C179.938845,39.5073276 182.211816,39.0269494 183.797947,40.0756491 C183.797947,40.0756491 185.830413,39.7459407 185.322927,37.233096 C185.322927,37.233096 184.335378,36.6650897 182.30165,36.3066973 C182.30165,36.3066973 184.246804,35.5278163 185.830413,36.3353813 C185.830413,36.3353813 187.3576,35.8272647 186.341051,33.9130015 C186.341051,33.9130015 185.710634,33.2551607 183.646646,33.2854208 C183.646646,33.2854208 184.784235,32.3284468 186.849798,32.8059881 C186.849798,32.8059881 188.343888,31.7286044 186.879428,30.2042546 L185.381871,29.9947037 L185.412446,29.3059094 C185.412446,29.3059094 185.359806,29.2217172 185.142627,29.077383 C183.611658,30.0422372 183.408664,30.8995737 183.408664,31.2935847 C183.431989,31.3074854 183.777458,31.5256099 183.857206,31.5795106 L183.678482,32.2077218 C183.216071,31.8591009 182.625685,31.5955863 182.625685,31.5955863 C181.69771,32.4863664 181.218593,33.306855 180.996371,33.7667446 C180.996371,33.7667446 181.78786,34.1988959 182.151296,34.4504326 L181.942943,35.0808502 C181.716623,34.9245066 181.310634,34.7498809 181.310634,34.7498809 C180.449168,35.9807714 180.137427,37.017178 180.027734,37.554609 L180.027734,37.554609 C180.200153,37.6639865 180.370366,37.7752552 180.535535,37.8918824 L180.235772,38.5503536 L179.228995,38.0170203 C178.230413,39.5587067 177.821272,40.5635924 177.653581,41.151772 L177.653581,41.151772 C177.653581,41.151772 178.361225,41.6034663 179.100705,42.6773827" id="path214" fill="#FFFFFF" fill-rule="nonzero"></path>
                        <path d="M184.695346,50.007879 C184.695346,50.007879 184.305433,48.0324653 182.331595,45.9382179 C182.331595,45.9382179 185.262407,46.6556332 186.729073,43.5741518 L185.532225,43.604727 C185.532225,43.604727 184.365007,45.7582337 181.733329,44.9509839 C181.733329,44.9509839 183.259255,44.6821108 184.06682,43.0364055 C184.06682,43.0364055 191.30559,40.8828989 188.523557,32.4479109 C188.523557,32.4479109 189.331122,30.1737424 186.637978,28.9767999 L187.564692,27.0931751 C187.564692,27.0931751 192.201729,29.2768787 191.45563,35.2289983 L192.353344,34.660992 C192.353344,34.660992 192.800626,33.3749401 192.201729,30.6827415 C192.201729,30.6827415 194.087623,31.2800307 196.419223,30.56271 C196.419223,30.56271 196.630413,31.2240181 196.828994,32.3111103 C196.072178,33.0297864 195.655157,34.6461772 195.888411,36.1339628 C196.050744,37.1883363 196.498025,37.9227729 197.039554,38.1594947 C196.959176,38.8321503 196.835929,39.5240337 196.661303,40.2193843 C196.653738,40.2193843 196.648695,40.2193843 196.642391,40.2212756 C194.685259,40.4661928 192.999207,44.1535056 193.955866,45.5653259 C193.421587,46.199526 192.805354,46.8053574 192.094558,47.3749397 C190.760594,45.790385 186.001887,48.3013384 186.537111,50.2654046 C186.202675,50.3738364 185.857521,50.4784857 185.501335,50.5746244 L184.695346,50.007879" id="path216" fill="#FCD213" fill-rule="nonzero"></path>
                        <path d="M190.562328,49.595901 C189.703069,50.2944038 188.487623,50.5925913 187.850902,50.2622525 C187.380925,50.0173352 187.356339,49.4975559 187.723557,48.9604401 C187.730177,48.9629617 187.736166,48.9667442 187.740894,48.9702115 C188.587545,49.4099278 189.995582,49.2375086 191.301808,48.6174929 C191.205669,48.9323865 190.955393,49.2765945 190.562328,49.595901" id="path218" fill="#588ED2" fill-rule="nonzero"></path>
                        <path d="M194.385811,44.0327806 C194.390539,44.0327806 194.396843,44.0312046 194.403147,44.0299437 C195.350665,43.9126861 196.411973,42.9730486 197.136953,41.7213544 C197.235298,42.0343567 197.226788,42.4611495 197.083998,42.9459406 C196.770681,44.0094552 195.940105,44.9431037 195.226473,45.0323078 C194.699759,45.0981864 194.387072,44.6833716 194.385811,44.0327806" id="path220" fill="#588ED2" fill-rule="nonzero"></path>
                        <path d="M196.653738,36.5270282 C196.659727,36.5245066 196.664455,36.5207241 196.669814,36.517572 C197.476118,36.0078793 198.036244,34.7044909 198.162328,33.264617 C198.382974,33.5051213 198.555393,33.895665 198.634195,34.3946406 C198.803147,35.4906217 198.448222,36.6893608 197.84176,37.0739155 C197.391957,37.3576035 196.932068,37.1145775 196.653738,36.5270282" id="path222" fill="#588ED2" fill-rule="nonzero"></path>
                        <path d="M98.8828974,162.41355 C98.273914,164.600469 97.8291544,168.928286 101.96564,172.869657 C101.96564,172.869657 98.658784,168.423952 100.107799,163.114574 C101.126239,165.356339 104.630415,168.249956 107.250431,168.985023 C106.015758,170.96485 104.630415,172.944046 102.958863,174.235457 C99.2564199,174.088569 94.6291545,169.479271 94.4542136,168.4208 C94.4542136,168.4208 95.8754901,165.152399 98.8828974,162.41355" id="path224" fill="#588ED2" fill-rule="nonzero"></path>
                        <path d="M136.808507,126.301021 C136.808507,126.301021 137.309059,126.316467 138.090461,126.276435 C136.830572,127.680375 135.613235,129.155552 134.915363,130.30701 C130.838452,130.145938 126.635143,125.739319 126.411029,124.493299 C126.302597,123.900706 128.137428,121.050903 130.838452,118.48731 C130.23073,120.672653 129.785655,124.999524 133.92214,128.941841 C133.92214,128.941841 131.027893,125.050588 131.841447,120.200155 C132.02017,120.532385 132.212447,120.851376 132.420485,121.157129 C132.420485,121.157129 130.824898,125.902282 136.808507,126.301021" id="path226" fill="#588ED2" fill-rule="nonzero"></path>
                        <path d="M138.642707,125.065403 C138.642707,125.065403 139.520249,124.387389 139.400785,123.271549 C139.400785,123.271549 137.39385,125.960596 135.171943,124.946254 C132.379823,123.668712 133.498184,121.07675 133.498184,121.07675 C129.623007,114.158232 131.020643,107.598421 127.591486,105.764536 C127.66556,105.194639 127.79385,104.65311 127.961226,104.137744 C132.932069,106.958232 132.138689,116.621274 134.810399,119.978563 C135.153346,121.274386 136.183763,122.773835 139.235615,121.632148 L139.394796,119.758232 C139.394796,119.758232 135.845859,122.589122 135.566584,117.882739 L135.217333,118.110635 C135.245702,116.939004 135.897869,115.600628 138.053582,114.463669 C138.339161,115.798263 139.308428,117.534118 142.528602,116.32939 L142.687782,114.454528 C142.687782,114.454528 139.138216,117.285419 138.859571,112.579351 L138.577144,112.763748 C138.679587,111.556498 139.230572,109.898185 141.340895,109.134749 C141.6208,110.47281 142.580611,112.237349 145.822534,111.025687 L145.981399,109.15177 C145.981399,109.15177 142.431833,111.982346 142.151612,107.275647 L141.79448,107.509848 C141.832621,106.842235 142.064299,106.111266 142.78991,105.720722 C142.78991,105.720722 144.146253,109.031045 147.896608,108.19259 C147.896608,108.19259 149.690146,107.715364 150.888255,106.040029 L150.498657,104.605198 L150.487624,104.684001 L150.607088,103.727027 L149.450902,103.966585 L150.967057,101.213867 C152.880059,102.370368 153.16091,103.010242 153.16091,103.010242 C152.243022,105.441132 152.841919,107.076751 152.841919,107.076751 C151.045859,109.629312 147.816545,110.786443 147.816545,110.786443 L147.217333,111.982346 C151.286363,110.506223 152.482896,108.911896 152.482896,108.911896 C153.279429,113.657996 145.662092,115.930966 145.662092,115.930966 L145.182345,116.886995 C147.855,116.250903 149.850587,115.172889 149.850587,115.172889 C149.730808,120.916624 141.791959,120.837822 141.791959,120.837822 L140.995741,122.074071 C143.866348,122.153504 146.022061,121.435458 146.022061,121.435458 C145.188649,124.763433 138.642707,125.065403 138.642707,125.065403" id="path228" fill="#FFFFFF" fill-rule="nonzero"></path>
                        <path d="M153.241289,107.994639 C153.241289,107.994639 153.640343,107.475175 153.958389,107.036719 C153.958389,107.036719 153.597474,107.005829 153.519933,105.561542 C153.519933,105.561542 156.867451,106.201416 156.710792,108.393063 C156.590067,110.068082 153.279429,110.666033 153.279429,110.666033 C153.279429,110.666033 153.878326,109.708114 153.241289,107.994639" id="path230" fill="#FFFFFF" fill-rule="nonzero"></path>
                        <path d="M133.965008,97.1788786 L135.291407,97.9823459 L134.056104,98.8602024 L134.973677,99.2999187 C138.203937,97.7828187 141.553976,98.9796666 142.94909,102.01166 C144.347041,105.042708 147.13727,106.119777 147.13727,106.119777 C149.409925,105.919934 150.487624,104.684001 150.487624,104.684001 L150.498657,104.605198 L150.888255,106.040029 C149.690146,107.715364 147.896608,108.19259 147.896608,108.19259 C144.146253,109.031045 142.78991,105.720722 142.78991,105.720722 C142.064299,106.111266 141.832621,106.842235 141.79448,107.509848 L141.234669,107.874859 C141.234669,107.874859 141.199051,108.448224 141.340895,109.134749 C139.230572,109.898185 138.679587,111.556498 138.577144,112.763748 L137.942944,113.178563 C137.942944,113.178563 137.904173,113.765797 138.053582,114.463669 C135.897869,115.600628 135.245702,116.939004 135.217333,118.110635 L134.649012,118.481006 C134.649012,118.481006 134.603622,119.192117 134.810399,119.978563 C132.138689,116.621274 132.932069,106.958232 127.961226,104.137744 C127.961226,104.137744 129.03136,100.125766 133.965008,97.1788786" id="path232" fill="#588ED2" fill-rule="nonzero"></path>
                        <path d="M104.987862,166.239555 L104.216231,165.619854 C104.216231,165.619854 119.439241,145.629941 129.497239,129.689831 L130.29976,130.271707 C120.437822,145.858152 104.987862,166.239555 104.987862,166.239555" id="path234" fill="#FFFFFF" fill-rule="nonzero"></path>
                        <path d="M97.8266327,173.838924 C97.4729684,174.286205 96.9872316,174.884787 96.5979487,175.369263 C96.5979487,175.369263 96.9588628,175.597159 97.5382166,175.808033 C97.8940874,175.357915 98.3060653,174.826788 98.6499581,174.391485 C98.6499581,174.391485 98.0050409,173.997474 97.8266327,173.838924" id="path236" fill="#FFFFFF" fill-rule="nonzero"></path>
                        <path d="M146.085103,104.462409 L145.363905,103.721983 C145.363905,103.721983 164.24838,71.2608335 176.137742,41.6069336 L176.997001,42.1547665 C162.27013,77.5252936 146.085103,104.462409 146.085103,104.462409" id="path238" fill="#FFFFFF" fill-rule="nonzero"></path>
                        <path d="M171.472651,80.2594149 C171.07076,80.2011012 170.832777,80.1241903 170.832777,80.1241903 C171.59117,79.3065386 173.168475,79.0247419 174.201414,78.9122124 C175.234038,78.8003132 175.93916,78.3936939 175.93916,78.3936939 L176.227892,78.6061446 C175.385969,79.2330949 174.14184,79.3018105 173.040185,79.5347498 C172.133014,79.7251359 171.652636,80.0945606 171.472651,80.2594149" id="path240" fill="#588ED2" fill-rule="nonzero"></path>
                        <path d="M166.031832,32.0892033 L166.031832,32.4728124 L167.996529,32.4728124 L167.996529,32.0892033 L167.24444,32.0892033 L167.24444,30.166461 L166.78392,30.166461 L166.78392,32.0892033 L166.031832,32.0892033 Z M169.049326,32.4728124 L169.632462,30.8214019 L170.211501,32.4728124 L170.874385,32.4728124 L170.874385,30.166461 L170.449168,30.166461 L170.449168,32.0277376 L169.825685,30.166461 L169.453108,30.166461 L168.812604,32.0277376 L168.812604,30.166461 L168.388648,30.166461 L168.388648,32.4728124 L169.049326,32.4728124 L169.049326,32.4728124 Z" id="path242" fill="#104076" fill-rule="nonzero"></path>
                        <path d="M95.7481458,133.610714 C94.1576021,133.263984 92.5418417,132.860202 91.1262389,132.433724 C90.5714713,134.196057 85.4061444,150.696923 84.2509041,155.795426 C84.2509041,155.795426 86.5560262,155.828207 89.9404233,155.165954 L88.9330159,158.004724 C84.5985794,158.772258 80.2909357,158.892352 80.2909357,158.892352 C80.2909357,158.892352 85.8297851,137.026947 88.0472791,131.341525 C87.0244265,130.902755 86.5472004,130.48006 85.9360105,130.075647 L58.2294706,146.639555 C58.2294706,146.639555 62.9355382,126.543102 63.9508258,121.752243 C63.1520867,121.69582 62.3845532,121.790698 62.3845532,121.790698 C60.9005501,125.352873 37.6494868,145.535694 37.6494868,145.535694 C35.0707635,144.619067 31.3306533,144.176829 28.2940576,143.963432 L30.6680843,141.537585 C34.0479109,141.967215 36.7114254,142.536167 36.8520085,142.565796 C36.8567367,142.567057 36.8592583,142.567688 36.8592583,142.567688 C42.2307318,139.471391 56.6553177,124.054843 58.9172562,121.621431 C58.9172562,121.621431 54.9894391,121.751612 51.2794313,121.924977 L55.2400301,118.70575 C61.0638283,118.702913 67.3635917,119.202519 67.3635917,119.202519 L62.9771458,140.212762 C62.991015,140.205513 85.9694226,126.636403 85.9694226,126.636403 C90.0371924,128.991013 93.5498795,130.10307 96.014182,130.627578 C95.9473577,131.821273 95.863197,132.678956 95.7481458,133.610714" id="path244" fill="#FCD213" fill-rule="nonzero"></path>
                    </g>
                </g>
            </g>
        </g>
    </g>
</svg>