<?xml version="1.0" encoding="UTF-8"?>
<svg width="200px" height="200px" viewBox="0 0 200 200" version="1.1" xmlns="http://www.w3.org/2000/svg" xmlns:xlink="http://www.w3.org/1999/xlink">
    <!-- Generator: Sketch 63.1 (92452) - https://sketch.com -->
    <title>william-peace</title>
    <desc>Created with Sketch.</desc>
    <defs>
        <polygon id="path-1" points="0 0.275385272 199.506468 0.275385272 199.506468 45.2736318 0 45.2736318"></polygon>
    </defs>
    <g id="william-peace" stroke="none" stroke-width="1" fill="none" fill-rule="evenodd">
        <g id="william-peace_BGL">
            <g id="william-peace_bgl" transform="translate(0.000000, 53.000000)">
                <g id="Group-3" transform="translate(0.000000, 48.756219)">
                    <mask id="mask-2" fill="white">
                        <use xlink:href="#path-1"></use>
                    </mask>
                    <g id="Clip-2"></g>
                    <path d="M199.506468,11.7870647 C195.765174,10.9512438 192.016418,10.1626866 188.259701,9.42089552 C187.836318,9.33731343 184.61592,8.56965174 181.075124,7.76915423 C181.057711,7.76567164 180.920398,7.73631841 180.920398,7.73631841 C180.883582,7.72935323 180.846766,7.72238806 180.808955,7.71542289 C175.912438,6.83233831 171.478607,7.45223881 168.202985,9.36467662 C164.338308,5.68109453 158.116418,4.49452736 155.521393,4.1880597 C155.526866,4.18955224 142.558706,2.53781095 129.537811,1.75820896 C116.524876,0.83880597 103.459701,0.791044776 103.431343,0.789552239 C103.365174,0.783084577 102.085572,0.68159204 102.085572,0.682089552 C100.135821,0.506965174 96.8552239,0.232338308 93.4223881,0.281094527 C90.0940299,0.321890547 84.2910448,1.49054726 78.8900498,4.64776119 C77.8970149,5.2278607 76.9840796,5.86318408 76.1129353,6.52238806 C76.0751244,6.00746269 75.978607,4.72189055 75.9791045,4.72189055 C75.8955224,3.61641791 75.8119403,2.51094527 75.7283582,1.40547264 C51.3855721,2.68656716 27.120398,5.91542289 3.16666667,11.0910448 C3.24328358,11.4532338 3.31890547,11.8159204 3.39552239,12.1771144 C3.43034826,12.3462687 4.2880597,16.2129353 8.26666667,17.0333333 C10.6756219,17.5079602 18.9731343,18.2412935 20.4597015,18.4109453 C19.860199,20.0945274 16.7766169,28.7970149 16.7771144,28.7995025 C16.6462687,29.1830846 16.4721393,29.5577114 16.3616915,29.7711443 C15.7472637,30.3363184 12.2930348,32.679602 9.74228856,34.4487562 C7.37462687,36.0840796 5.14179104,37.6532338 4.04179104,38.5144279 C1.16517413,40.7646766 0.353731343,43.8781095 0.320895522,44.0069652 C0.213432836,44.4293532 0.106965174,44.8512438 -2.38208295e-05,45.2736367 C-0.0253731343,45.2791045 20.2233831,40.6139303 40.70199,38.1218905 C61.1467662,35.2825871 81.821393,34.6164179 81.8661692,34.6109453 C83.5636816,34.8402985 85.3606965,34.9248756 87.358209,34.8706468 C89.280597,34.8189055 91.2089552,34.6273632 93.0940299,34.3089552 C93.1238806,34.3109453 111.970647,33.919403 130.713433,35.3368159 C149.470647,36.4646766 168.123383,39.40199 168.10398,39.3970149 C168.945274,39.5248756 170.156219,39.7771144 171.437811,40.0517413 C173.1199,40.4104478 174.837811,40.7875622 176.406965,41.0542289 C181.360697,41.8975124 185.39602,41.7338308 188.411443,40.4915423 C192.204975,38.9293532 194.286567,35.7422886 194.286567,31.4432836 C194.286567,30.0681592 194.054229,28.7268657 193.61592,27.4427861 C193.792537,26.9771144 194.539801,25.0054726 194.539801,25.0054726 C196.197512,20.5905473 197.853731,16.1840796 199.506468,11.7870647" id="Fill-1" fill="#006444" mask="url(#mask-2)"></path>
                </g>
                <path d="M198.186567,61.1970149 C194.88408,60.4691542 191.574129,59.778607 188.259701,59.1243781 C187.767164,59.0253731 184.20199,58.1771144 181.032338,57.4636816 C181.00597,57.4587065 180.886567,57.4328358 180.886567,57.4328358 C180.860199,57.4283582 180.835323,57.4228856 180.808955,57.418408 C175.757711,56.5074627 171.276617,57.2427861 168.161194,59.3164179 C164.593035,55.4034826 157.929851,54.1721393 155.521393,53.8905473 C155.526866,53.8930348 142.581095,52.2437811 129.568159,51.4626866 C116.560697,50.5437811 103.487065,50.4935323 103.396517,50.4915423 C103.228856,50.4776119 102.015423,50.381592 102.015423,50.381592 C100.086567,50.2099502 96.8134328,49.9363184 93.4223881,49.9845771 C90.2054726,50.0243781 84.5875622,51.1562189 79.3427861,54.2164179 C77.8378109,55.0935323 76.4925373,56.0562189 75.3064677,57.0925373 C75.2716418,56.6776119 75.1885572,55.6940299 75.1885572,55.6935323 C75.1885572,55.6940299 75.1895522,55.7313433 75.1910448,55.7626866 C75.180597,55.5920398 75.1467662,55.140796 75.0303483,53.599005 C74.9686567,52.7850746 74.9069652,51.9706468 74.8452736,51.1562189 C51.1870647,52.4467662 27.6039801,55.5776119 4.31293532,60.5482587 C4.31343284,60.5517413 5.06119403,64.1034826 8.62089552,64.840796 C11.1880597,65.339801 20.9263682,66.2029851 20.9303483,66.2328358 C21.1945274,66.2626866 21.4517413,66.2960199 21.7024876,66.3303483 C20.2527363,70.4283582 17.6855721,77.6477612 17.6562189,77.7323383 C17.479602,78.2477612 17.2169154,78.79801 17.0751244,79.0373134 C16.3890547,79.839801 7.06318408,85.9597015 4.5,87.99801 C1.93283582,90.0034826 1.22338308,92.8134328 1.22338308,92.8109469 C33.1721393,86.0562189 50.8547264,84.6164179 61.7134328,83.6482587 C72.5965174,82.8691542 76.6557214,82.5616915 81.9368159,82.4174129 C83.5860697,82.6462687 85.3597015,82.7343284 87.358209,82.6800995 C89.3144279,82.6263682 91.2218905,82.4318408 93.0447761,82.1189055 C93.1666667,82.118408 112.025871,81.7313433 130.757214,83.1492537 C149.504478,84.2781095 168.123383,87.2119403 168.10398,87.2069652 C168.969652,87.3383085 170.19403,87.5930348 171.489055,87.8701493 C173.163682,88.2278607 174.858209,88.600995 176.406965,88.8641791 C181.187065,89.6776119 185.060199,89.5253731 187.925373,88.340796 C191.426866,86.8960199 193.349751,83.9567164 193.349751,80.0024876 C193.349751,78.5995025 193.10199,77.2567164 192.621891,75.9900498 C193.023383,74.9313433 193.656716,73.258209 193.656716,73.259204 C193.661692,73.2412935 198.186567,61.1900498 198.186567,61.1970149" id="Fill-4" fill="#1A1919"></path>
                <path d="M181.611443,69.5731343 C181.077114,69.3278607 180.542786,69.0825871 180.006965,68.839801 C178.111443,67.9606965 177.313433,67.3960199 176.99005,67.1139303 C177.270647,66.9104478 178.207463,66.4676617 180.833333,66.938806 C185.893532,67.860199 186.869154,70.818408 186.908458,70.9363184 C186.908458,70.9363184 187.204478,71.9164179 187.50199,72.9024876 C185.796517,71.49801 183.644279,70.4945274 181.611443,69.5731343 Z M162.003483,78.9278607 C161.18408,78.3452736 159.893035,77.2298507 158.527861,75.2676617 C157.863184,74.3104478 157.144776,73.2368159 156.405473,72.1154229 C159.381592,71.6119403 163.214428,70.5791045 165.58408,68.8114422 C165.58408,68.8089552 162.551741,77.3507463 162.003483,78.9278607 Z M166.764677,69.000995 C167.802488,72.5726368 171.524378,74.3935323 174.523881,75.8094527 C174.529851,75.8119403 175.902488,76.4502488 175.902488,76.4507463 C177.70995,77.2825871 180.174129,78.4442786 180.174129,79.0820896 C180.173134,79.3263682 179.327861,79.8517413 175.557711,79.2124378 C172.126866,78.6363184 169.954726,78.0263682 168.923881,77.2910448 C168.41592,76.9293532 167.932836,76.0930348 167.693532,75.160199 C167.581095,74.7189055 166.764677,69 166.764677,69.000995 Z M147.762189,66.4124378 C148.263682,64.9741294 148.820398,63.379602 149.066169,62.6751244 C150.043781,62.778607 152.836318,63.0975124 152.835323,63.1 C154.139303,63.2532338 154.558209,63.5746269 154.599005,63.6507463 C154.606965,63.6701493 154.606965,63.741791 154.606965,63.7845771 C154.606965,64.5830846 152.036816,65.8228856 147.762189,66.4124378 Z M129.463184,70.1656716 C129.432836,70.1910448 127.776119,71.4562189 124.805473,72.2776119 C125.267164,71.7597015 125.733831,71.2383085 125.733831,71.2383085 C126.578109,70.2054726 128.166667,67.9646766 128.166667,65.6253731 C128.166667,64.9557214 128.036816,64.2776119 127.721891,63.6174129 C126.864677,61.8228856 125.045771,60.8273632 122.311443,60.6915423 C121.842786,60.6691542 121.373632,60.681592 120.900498,60.7169154 C120.934328,60.6169154 120.945274,60.5865672 120.973134,60.500995 C122.012935,60.5442786 125.576119,60.7348259 125.576119,60.738806 C128.908955,60.9308458 129.616418,62.0696517 129.996517,62.6741294 C130.056716,62.7646766 130.11592,62.8557214 130.176119,62.9467662 C130.448259,63.3258706 131.11791,64.6661692 131.476617,65.4238806 C131.791045,66.0865672 132.104975,66.7497512 132.4199,67.4129353 C132.68408,66.7691542 132.949751,66.1258706 133.214925,65.4835821 C133.214925,65.4810945 135.629353,59.6293532 136.028856,58.6636816 C137.08209,58.781592 137.746766,59.2124378 138.018905,59.4636816 C137.481592,61.1049751 136.851741,63.0179104 136.226866,64.9099502 C133.972637,66.6447761 131.718408,68.3965174 129.463184,70.1656716 Z M133.186567,73.9094527 C132.912438,74.5860697 132.429851,75.3557214 131.58607,75.8776119 C132.669652,73.5791045 134.470149,69.7671642 134.955224,68.7432836 C134.081592,71.3606965 133.376119,73.4442786 133.186567,73.9094527 Z M118.662189,72.9616915 C118.662189,72.9606965 117.449751,72.9114428 116.391542,72.8731343 C116.877612,71.4671642 117.693035,69.1124378 117.725871,69.0174129 C117.781095,68.9243781 118.231841,68.2706468 119.963682,68.3457711 C121.083085,68.3960199 121.646766,68.9159204 121.849751,70.0791045 C121.851741,70.0890547 122.345274,72.7716418 122.348259,72.7840796 C121.234826,72.939801 120.005473,73.0174129 118.662189,72.9616915 Z M89.2631841,72.2482587 C84.7865672,72.3597015 84.7870647,70.3353234 84.7870647,69.6597015 C84.7905473,69.2701493 84.9706468,59.4666667 94.1850746,59.3164179 C99.2567164,59.2616915 101.330348,62.5781095 102.11592,64.5373134 C102.11592,64.5373134 102.137313,64.5895522 102.153234,64.6288557 C102.155224,64.6333333 103.238308,67.4870647 103.346766,67.7741294 C100.354229,69.4114428 94.6681592,72.118408 89.2631841,72.2482587 Z M45.0562189,74.2865672 C45.0348259,74.3124378 45.0129353,74.338806 44.9915423,74.3651741 C44.9527363,74.4124378 43.9139303,75.6532338 42.4313433,76.7094527 C39.7820896,78.5955224 37.3288557,79.4845771 37.3044776,79.4930348 C37.2771144,79.500995 34.8124378,80.439801 33.7442786,80.8557214 C33.4402985,80.6208955 33.0850746,80.3452736 33.0850746,80.3452736 C33.0731343,80.3353234 32.6696517,79.9975124 32.6696517,79.379602 C32.6696517,78.2044776 33.0572139,77.179602 33.061194,77.1686567 C33.0691542,77.1467662 33.0776119,77.1243781 33.0860697,77.1024876 C33.0860697,77.1024876 33.7024876,75.3228856 33.9925373,74.4870647 C34.799005,74.3671642 36.2487562,74.159204 36.2487562,74.160199 C38.6149254,73.7641791 43.5875622,72.8179104 48.1442786,71.0487562 C46.6233831,72.6368159 45.0562189,74.2855721 45.0562189,74.2865672 Z M37.5328358,64.2930348 C38.4711443,64.1616915 41.0776119,63.8189055 41.0776119,63.820398 C41.09801,63.8169154 41.118408,63.8139303 41.138806,63.8109453 C42.2487562,63.6263682 43.8447761,63.6890547 44.3273632,64.0288557 C44.2109453,65.6134328 39.6835821,68.4686567 35.7820896,69.9930348 C35.7820896,69.9930348 35.6726368,70.0338308 35.5129353,70.0935323 C36.158209,68.2383085 37.359204,64.7895522 37.5328358,64.2930348 Z M54.5751244,57.0895522 C54.7641791,57.1119403 54.9532338,57.1328358 55.141791,57.1552239 C55.9258706,57.3363184 58.1452736,57.9363184 58.9935323,58.4711443 C59.4477612,58.7562189 59.5885572,58.9278607 59.6393035,59.0338308 C59.4646766,59.3323383 58.9427861,59.9970149 58.3109453,60.560199 C58.2895522,60.5800995 58.2681592,60.5995025 58.2462687,60.6189055 C58.2462687,60.6189055 57.8154229,61.0577114 57.6029851,61.2756219 C57.5378109,59.3119403 56.2875622,57.8711443 54.5751244,57.0895522 C54.5751244,57.0900498 54.5751244,57.0900498 54.5751244,57.0895522 Z M9.3761194,62.1487562 C13.4721393,62.5626866 17.5766169,63.0338308 21.6885572,63.561194 C22.9855721,63.7104478 24.5353234,63.9741294 25.0776119,64.1562189 C25.0681592,64.2383085 25.0467662,64.3577114 24.9726368,64.5711443 C24.1004975,67.0731343 20.1532338,78.1313433 20.1169154,78.2402985 C19.8358209,79.060199 19.2975124,80.1920398 18.9373134,80.5915423 C18.1149254,81.5024876 16.6502488,82.4641791 15.5820896,83.1711443 C15.3910448,83.2985075 15.1995025,83.4253731 15.0084577,83.5527363 C15.0034826,83.5318408 6.96517413,88.9099502 6.96814405,88.9313471 C6.94875622,88.9358209 25.5631841,84.9597015 44.3636816,82.8129353 C63.1373134,80.3736318 82.0960199,79.7631841 82.1477612,79.7577114 C83.7014925,79.9940299 85.4054726,80.0820896 87.358209,80.0283582 C89.2930348,79.9766169 91.1552239,79.7865672 92.90199,79.4701493 C92.9447761,79.4706468 107.020398,79.1955224 121.048259,79.9298507 C135.080597,80.5024876 149.065174,82.0870647 149.057214,82.0845771 C147.789552,80.6562189 146.522388,79.2338308 145.252239,77.8169154 C145.246269,77.8084577 144.568159,77.0293532 144.568159,76.1004975 C144.568159,75.9129353 144.595522,75.7288557 144.649751,75.5512438 C144.649751,75.5512438 145.025871,74.4278607 145.385572,73.3497512 C146.089055,74.6199005 146.787562,75.858209 147.205473,76.5393035 C149.498507,80.2626866 151.929851,81.9641791 152.2,82.1472637 C152.372139,82.2636816 152.544776,82.379602 152.716915,82.4965174 C157.854229,83.0955224 162.98408,83.7820896 168.10398,84.5557214 C169.050249,84.6985075 170.320398,84.9651741 171.665174,85.2522388 C173.281095,85.599005 174.928856,85.961194 176.406965,86.2129353 C180.699005,86.9432836 184.114428,86.8273632 186.565174,85.8074627 C189.28806,84.6751244 190.723383,82.4930348 190.723881,79.461194 C190.723383,77.9437811 190.366667,76.6736318 189.774627,75.580597 C189.79801,75.5179104 191.181592,71.859204 191.181592,71.8597015 C191.183582,71.8547264 194.486567,63.0452736 194.486567,63.0487562 C192.412935,62.6099502 190.338308,62.1855721 188.259701,61.7756219 C187.635821,61.6477612 183.527861,60.6761194 180.912935,60.0910448 C180.887562,60.0855721 180.863184,60.0810945 180.839801,60.0756219 C180.830348,60.0736318 180.819403,60.0716418 180.808955,60.0696517 C174.412935,58.9199005 169.788557,60.7875622 167.745274,63.5995025 C166.69204,58.3004975 157.467662,56.7477612 155.521393,56.541791 C155.526866,56.5437811 142.524876,54.8880597 129.471642,54.1084577 C116.424876,53.1880597 103.326368,53.1437811 103.29801,53.1422886 C103.231841,53.1368159 101.8199,53.0248756 101.8199,53.0253731 C99.9119403,52.8557214 96.7024876,52.5890547 93.4223881,52.6353234 C90.2875622,52.6741294 85.1094527,53.881592 80.6104478,56.4945274 C77.1189055,58.518408 74.6228856,61.0114428 73.1870647,63.79801 C72.8134328,59.741791 72.5353234,56.0925373 72.5318408,56.0432836 C72.5318408,56.0412935 72.3736318,53.9487562 72.3736318,53.9487562 C51.2567164,55.2154229 30.2064677,57.9487562 9.3761194,62.1487562 Z M51.9572139,76.8656716 C52.0039801,76.8124378 55.4144279,72.9378109 59.4532338,72.5820896 C60.2099502,72.5144279 61.3532338,72.4174129 61.3532338,74.8800995 C61.3522388,74.8875622 61.1626866,75.7771144 56.9258706,77.6517413 C56.8492537,77.6636816 50.1905473,80.0771144 48.5323383,80.7159204 C49.6736318,79.4283582 50.8154229,78.1447761 51.9572139,76.8656716 L51.9572139,76.8656716 Z" id="Fill-5" fill="#006444"></path>
                <path d="M146.328856,67.5502488 C147.162687,65.141791 147.964179,62.8517413 148.38408,61.6552239 C149.677612,61.7890547 152.836318,62.1507463 152.835323,62.1537313 C155.554229,62.4746269 155.554229,63.5134328 155.554229,63.8995025 C155.554229,65.9646766 150.388557,67.1781095 146.328856,67.5502488 Z M138.951741,59.7442786 C137.216418,65.0373134 134.48408,73.3049751 134.071642,74.3223881 C133.373134,76.0402985 131.953731,77.2542289 129.779602,77.4228856 C131.339303,74.1119403 132.897015,70.8084577 134.454726,67.5134328 C132.99602,68.6442786 131.538806,69.7820896 130.081095,70.9253731 C130.040299,70.9676617 125.864677,74.2129353 118.662189,73.9089552 C118.662189,73.9074627 116.6801,73.8263682 115.063682,73.7731343 C115.733831,71.8303483 116.845771,68.6124378 116.845771,68.6134328 C116.861194,68.579602 117.412438,67.2885572 119.963682,67.399005 C122.233333,67.5014925 122.660199,69.2318408 122.786567,69.9626866 C122.945771,70.8228856 123.10398,71.6835821 123.262687,72.5432836 C123.844776,71.8895522 124.425871,71.2368159 125.006965,70.5860697 C125.546269,69.9233831 128.144279,66.6567164 126.866667,63.981592 C126.183582,62.5512438 124.651244,61.7552239 122.311443,61.6383085 C121.259701,61.5865672 120.310448,61.7039801 119.487065,61.8781095 C119.882587,60.7134328 120.0801,60.1298507 120.287065,59.5228856 C121.663184,59.5791045 125.576119,59.7875622 125.576119,59.7915423 C129.867164,60.0412935 130.508458,61.8373134 130.936318,62.4298507 C131.364677,63.0268657 132.331343,65.0676617 132.331343,65.0686567 C133.348756,62.6004975 134.364179,60.1358209 135.380597,57.6746269 C137.470647,57.6492537 138.702985,58.741791 138.950746,59.1447761 C138.985572,59.20199 139.0801,59.3532338 138.951741,59.7442786 Z M109.231343,58.5144279 C108.514428,60.7950249 106.714428,65.7701493 106.19204,67.2119403 C105.835323,67.4383085 103.99403,68.5054726 103.99403,68.5069652 C100.758706,70.2895522 94.9064677,73.0597015 89.2631841,73.1955224 C86.7860697,73.2492537 83.8348259,72.7164179 83.8348259,69.6910448 C83.8353234,69.6069652 83.9522388,58.541791 94.1850746,58.3701493 C100.995025,58.3029851 102.837313,63.8373134 103.043284,64.2970149 C103.461692,65.399005 103.879602,66.5024876 104.297512,67.6059701 C104.659701,66.4024876 107.945771,56.4024876 107.945771,56.4059701 C108.838308,56.3870647 109.355721,57.1646766 109.355721,57.7985075 C109.355721,57.999005 109.318408,58.2368159 109.231343,58.5144279 Z M45.7313433,74.8711443 C45.718408,74.8860697 45.7059701,74.9024876 45.6930348,74.9179104 C45.681592,74.9313433 44.5427861,76.3054726 42.9104478,77.4661692 C40.1054726,79.4597015 37.5134328,80.3900498 37.4910448,80.3955224 C36.1517413,80.9024876 34.8134328,81.4154229 33.4761194,81.9338308 C33.1323383,81.6676617 32.7890547,81.4024876 32.4457711,81.1378109 C32.4159204,81.1149254 31.7248756,80.5686567 31.7248756,79.5208955 C31.7248756,78.1313433 32.1830846,76.9502488 32.1870647,76.9378109 C32.1910448,76.9283582 32.1945274,76.9189055 32.199005,76.9089552 C32.199005,76.9089552 32.7318408,75.3686567 33.3313433,73.638806 C33.9626866,73.5626866 34.9303483,73.4313433 36.2248756,73.2169154 C37.9318408,72.9124378 46.8761194,71.4512438 52.3597015,67.9616915 C50.1487562,70.2482587 47.9393035,72.5517413 45.7313433,74.8711443 Z M36.8721393,63.4378109 C38.1124378,63.2616915 41.0776119,62.8711443 41.0776119,62.8736318 C41.0870647,62.8721393 41.0955224,62.8706468 41.1039801,62.8691542 C42.0393035,62.7124378 44.2298507,62.6174129 45.0288557,63.2930348 C45.2119403,63.4462687 45.2855721,63.6124378 45.2855721,63.8641791 C45.2850746,66.519403 38.9437811,69.7233831 36.0094527,70.880597 C35.0562189,71.2507463 34.4567164,71.4771144 34.0273632,71.6154229 C35.1940299,68.2502488 36.5711443,64.3014925 36.8721393,63.4378109 Z M175.982587,66.8014925 C176.00398,66.4631841 176.895025,65.2880597 180.833333,65.9915423 C186.61194,67.0457711 187.754726,70.6736318 187.800995,70.8164179 C188.201493,72.141791 188.600995,73.4681592 189.000498,74.7945274 C189.432836,73.6502488 189.866169,72.5069652 190.297512,71.3636816 C191.253731,68.8119403 192.208955,66.2631841 193.164179,63.7174129 C191.530846,63.3771144 189.89602,63.0452736 188.259701,62.7218905 C187.534826,62.5716418 182.681095,61.4288557 180.869154,61.0288557 C180.859204,61.0263682 180.849751,61.0243781 180.839801,61.0223881 C180.830348,61.0199005 180.819403,61.0179104 180.808955,61.0159204 C172.610448,59.5462687 167.510945,63.1716418 167.512935,67.179602 C167.512935,71.5781095 171.38607,73.3368159 174.79801,74.9492537 C175.255721,75.161194 175.713433,75.3741294 176.171144,75.5880597 C179.610945,77.1825871 181.114925,78.0343284 181.114925,79.2517413 C181.114925,80.5004975 179.248259,80.7820896 175.557711,80.159204 C171.91194,79.5477612 169.655721,78.8960199 168.464179,78.0487562 C167.606468,77.4383085 167.032836,76.2522388 166.781095,75.2686567 C166.611443,74.6064677 166.024378,70.3910448 166.024378,70.3910448 C164.872139,73.6950249 163.717413,77.0029851 162.564179,80.3154229 C161.973134,80.0338308 159.911443,78.8119403 157.775622,75.7457711 C156.663184,74.1457711 155.604975,72.5412935 154.847761,71.3756219 C158.923383,70.7810945 166.908458,69.2293532 166.906468,64.461194 C166.910448,59.1517413 156.691045,57.5940299 155.521393,57.4885572 C138.164677,55.3562189 120.716915,54.2228856 103.263184,54.0890547 C102.758706,54.0487562 102.254229,54.0089552 101.750249,53.9691542 C99.8467662,53.8 96.6606965,53.5358209 93.4223881,53.5825871 C87.4502488,53.5860697 73.3348259,58.438806 72.7278607,68.8587065 C72.1303483,63.3726368 71.5890547,56.2477612 71.5830846,56.1706468 C71.5522388,55.7631841 71.521393,55.3562189 71.4905473,54.9492537 C66.1358209,55.2810945 60.7855721,55.7074627 55.441791,56.2278607 C55.4412935,56.2253731 58.3950249,56.9233831 59.5482587,57.6532338 C60.5716418,58.29801 60.6248756,58.7323383 60.6248756,59.0671642 C60.5845771,59.4308458 59.7492537,60.4925373 58.9064677,61.2442786 C58.8935323,61.2562189 58.8810945,61.2666667 58.8686567,61.278607 C57.9353234,62.2288557 57.0024876,63.1830846 56.0696517,64.139801 C56.4537313,63.3437811 56.6676617,62.478607 56.6676617,61.5383085 C56.6656716,56.2358209 47.5517413,57.0333333 46.5159204,57.1845771 C36.1124378,58.4044776 25.740796,59.9820896 15.419403,61.919403 C17.5925373,62.1323383 19.7681592,62.3606965 21.9452736,62.6059701 C21.9447761,62.60199 25.2119403,62.9935323 25.8099502,63.3736318 C26.0014925,63.4940299 26.1716418,63.8502488 25.8572139,64.7537313 C24.9920398,67.2343284 21.0378109,78.300995 20.9965174,78.4243781 C20.7402985,79.1701493 20.1373134,80.5527363 19.5756219,81.1736318 C18.4771144,82.3875622 16.5164179,83.5840796 15.419403,84.3273632 C13.9044776,85.2746269 12.3905473,86.2298507 10.8781095,87.1920398 C22.7024876,84.8492537 34.5965174,82.978607 46.5318408,81.5800995 C48.1149254,79.8014925 49.6995025,78.0318408 51.2840796,76.2701493 C51.3437811,76.2024876 54.9800995,72.0298507 59.4532338,71.6353234 C60.2323383,71.5651741 62.3034826,71.3910448 62.3034826,74.800995 C62.3034826,76.0308458 59.7378109,77.4089552 57.2059701,78.5313433 C54.7054726,79.4059701 52.2064677,80.30199 49.7094527,81.2189055 C60.5228856,80.0278607 71.3681592,79.2248756 82.2238806,78.8079602 C83.7104478,79.0422886 85.3726368,79.1363184 87.358209,79.0820896 C89.2945274,79.0298507 91.1303483,78.8432836 92.8507463,78.5243781 C110.852239,78.2522388 128.867164,79.0437811 146.79801,80.8985075 C146.057711,80.0671642 145.316418,79.238806 144.575124,78.4119403 C144.529353,78.360199 143.6199,77.3278607 143.6199,76.0074627 C143.6199,75.7457711 143.655721,75.4726368 143.740299,75.1935323 C143.964677,74.4621891 144.49801,72.8711443 145.135821,71.0099502 C146.01194,72.6139303 147.357214,75.0572139 147.999502,76.1024876 C150.206965,79.6925373 152.563184,81.3069652 152.662687,81.3741294 C152.762687,81.4422886 152.863682,81.5104478 152.963682,81.578607 C158.018408,82.1706468 163.066667,82.8477612 168.10398,83.6094527 C169.070647,83.7552239 170.357214,84.0238806 171.717413,84.3159204 C173.306468,84.6562189 174.948259,85.0179104 176.406965,85.2661692 C180.524876,85.9666667 183.776617,85.8646766 186.078607,84.9034826 C188.505473,83.8915423 189.785572,81.9547264 189.786567,79.2721393 C189.786567,74.3452736 185.702488,72.4049751 181.365672,70.4422886 C180.830348,70.1965174 180.29403,69.9517413 179.757711,69.7079602 C177.433333,68.6318408 176.51791,67.9253731 176.160199,67.5159204 C175.976617,67.3064677 175.977612,67.2711443 175.981592,66.9303483 C175.981592,66.8870647 175.981592,66.8447761 175.982587,66.8014925 L175.982587,66.8014925 Z" id="Fill-6" fill="#FFFFFE"></path>
                <path d="M16.1716418,84.8497512 C21.2915423,83.8985075 26.4233831,83.0343284 31.5656716,82.259204 C31.5656716,82.2587065 30.4029851,81.4258706 30.4029851,79.7218905 C30.4029851,78.0174129 30.9696517,76.6049751 30.9696517,76.6049751 C32.6273632,71.8084577 34.2865672,67.020398 35.9462687,62.2412935 C37.6477612,62.0014925 39.3502488,61.7716418 41.0537313,61.5512438 C41.0527363,61.540796 46.6114428,60.6348259 46.6124378,63.7074627 C46.6094527,68.2791045 36.1950249,71.8597015 36.1985075,71.8955224 C36.1870647,71.7756219 55.3283582,69.1208955 55.3383085,61.6661692 C55.3368159,57.5373134 46.5139303,58.4850746 46.5159204,58.5099502 C38.7348259,59.4218905 30.9711443,60.5353234 23.2328358,61.8487562 C23.2328358,61.8482587 24.5870647,61.9328358 25.2756219,61.9641791 C26.0298507,61.9965174 28.1059701,62.041791 27.319403,64.3303483 C26.4487562,66.8542289 22.2268657,78.6791045 22.2278607,78.6845771 C22.2278607,78.6850746 21.4825871,80.8706468 20.4696517,81.9895522 C18.8368159,83.7890547 16.1716418,84.8482587 16.1716418,84.8497512" id="Fill-7" fill="#006444"></path>
                <path d="M59.80199,68.0064677 C61.3527363,67.8701493 63.0298507,68.1457711 63.0298507,68.1457711 C62.899005,66.2567164 62.7671642,64.3686567 62.6358209,62.480597 C60.6721393,64.5552239 58.7094527,66.6422886 56.7472637,68.7427861 C56.7472637,68.7422886 58.2502488,68.1427861 59.80199,68.0064677 Z M43.580597,78.5263682 C45.4263682,77.2169154 46.6756219,75.6925373 46.6756219,75.6925373 C51.0248756,71.1333333 55.379602,66.6378109 59.7383085,62.2044776 C59.7383085,62.2029851 61.9547264,60.2462687 61.9547264,58.9542289 C61.9547264,57.6597015 60.3691542,57.0995025 60.3696517,57.1 C63.6621891,56.8159204 66.9577114,56.5661692 70.2552239,56.3527363 C70.2552239,56.3527363 70.8915423,64.7706468 71.5577114,70.4422886 C72.2228856,76.1049751 77.0109453,77.7049751 77.0109453,77.7124378 C70.7393035,78.0248756 64.4726368,78.4661692 58.2149254,79.0368159 C58.2139303,79.0273632 63.6333333,77.7447761 63.6338308,74.6935323 C63.6338308,73.339801 63.3159204,69.9741294 59.4532338,70.3094527 C54.3243781,70.7626866 50.341791,75.438806 50.341791,75.4373134 C48.8870647,77.0577114 47.4328358,78.6845771 45.979602,80.319403 C43.3154229,80.6348259 40.6532338,80.9731343 37.9940299,81.3363187 C37.9940299,81.3368159 40.4547264,80.7442786 43.580597,78.5263682 L43.580597,78.5263682 Z" id="Fill-8" fill="#006444"></path>
                <path d="M106.818905,55.4552239 C106.818905,55.4532338 104.09005,55.418408 103.263184,55.4149254 C102.435821,55.4064677 97.9626866,54.840796 93.4223881,54.9079602 C87.3233831,54.9218905 74.0288557,59.8343284 74.0308458,69.4751244 C74.0318408,70.8761194 74.2810945,78.1865672 87.358209,77.7562189 C96.9776119,77.4975124 103.932836,73.09801 105.456219,72.100995 C102.471642,76.2223881 97.9288557,77.1457711 97.9288557,77.1497512 C107.952736,77.1094527 117.978607,77.4 127.98806,78.0189055 C128.949751,75.9845771 129.91194,73.9537313 130.873134,71.9263682 C130.873134,71.9363184 126.532338,75.5681592 118.662189,75.2343284 C115.99602,75.1218905 113.202985,75.0402985 113.202985,75.0402985 C113.996517,72.738806 114.790547,70.4393035 115.583582,68.1412935 C115.583582,68.1452736 116.31393,65.9169154 119.963682,66.0736318 C123.611443,66.2402985 123.929353,69.8676617 123.929353,69.8646766 C123.929353,69.8666667 129.258209,63.3343284 122.311443,62.9641791 C119.455224,62.8233831 117.329353,64.039801 117.329353,64.0393035 C117.995025,62.0761194 118.660697,60.1149254 119.326368,58.1552239 C119.326368,58.1626866 120.181592,58.1721393 125.576119,58.4656716 C130.970149,58.7810945 132.108955,62.0776119 132.10995,62.0706468 C132.838806,60.2810945 133.565672,58.4930348 134.293532,56.7069652 C125.876617,56.0691542 117.444776,55.6656716 109.010448,55.4945274 C109.010945,55.4930348 111.361692,56.2099502 110.504478,58.9363184 C109.648259,61.659204 107.298507,68.0860697 107.298507,68.0875622 C107.298507,68.0830846 98.1527363,74.2960199 89.2631841,74.5208955 C82.500995,74.6970149 82.5024876,70.4457711 82.50199,69.739801 C82.5024876,69.0776119 83.0402985,57.2343284 94.1850746,57.0447761 C102.440299,56.9681592 104.218408,64.1189055 104.218408,64.1024876 C105.085572,61.2179104 105.952239,58.3353234 106.818905,55.4552239" id="Fill-9" fill="#006444"></path>
                <path d="M131.378109,78.2412935 C135.467164,78.5248756 139.553234,78.8636816 143.635323,79.2567164 C143.635323,79.2562189 141.706468,77.1800995 142.465174,74.6955224 C143.227363,72.2034826 147.430846,60.2228856 147.430846,60.2278607 C147.430846,60.2228856 151.764677,60.6950249 152.835323,60.8278607 C153.90796,60.9492537 156.879602,61.4427861 156.879602,64.0646766 C156.883582,68.4726368 145.473632,68.9164179 145.470149,68.959204 C145.470149,68.9577114 148.145771,73.9233831 149.108955,75.4945274 C151.163184,78.840796 153.310448,80.2930348 153.310448,80.2935323 C156.152736,80.6288557 158.99403,80.9910448 161.831343,81.379602 C161.831343,81.379602 159.279602,80.0810945 156.722388,76.4169154 C154.590547,73.3597015 152.648756,70.2741294 152.648756,70.2741294 C152.653731,70.219403 165.589055,69.199005 165.584081,64.2671642 C165.58607,60.3905473 156.536816,58.9089552 155.521393,58.8144279 C154.515423,58.5880597 137.372637,56.8557214 137.366667,56.9507463 C137.366667,56.9457711 141.074129,57.6462687 140.218905,60.2557214 C139.363682,62.8587065 135.823881,73.6338308 135.30995,74.9014925 C134.264179,77.4681592 131.378109,78.2393035 131.378109,78.2412935" id="Fill-10" fill="#006444"></path>
                <path d="M131.378109,78.2412935 C135.467164,78.5248756 139.553234,78.8636816 143.635323,79.2567164 C143.635323,79.2562189 141.706468,77.1800995 142.465174,74.6955224 C143.227363,72.2034826 147.430846,60.2228856 147.430846,60.2278607 C147.430846,60.2228856 151.764677,60.6950249 152.835323,60.8278607 C153.90796,60.9492537 156.879602,61.4427861 156.879602,64.0646766 C156.883582,68.4726368 145.473632,68.9164179 145.470149,68.959204 C145.470149,68.9577114 148.145771,73.9233831 149.108955,75.4945274 C151.163184,78.840796 153.310448,80.2930348 153.310448,80.2935323 C156.152736,80.6288557 158.99403,80.9910448 161.831343,81.379602 C161.831343,81.379602 159.279602,80.0810945 156.722388,76.4169154 C154.590547,73.3597015 152.648756,70.2741294 152.648756,70.2741294 C152.653731,70.219403 165.589055,69.199005 165.584081,64.2671642 C165.58607,60.3905473 156.536816,58.9089552 155.521393,58.8144279 C154.515423,58.5880597 137.372637,56.8557214 137.366667,56.9507463 C137.366667,56.9457711 141.074129,57.6462687 140.218905,60.2557214 C139.363682,62.8587065 135.823881,73.6338308 135.30995,74.9014925 C134.264179,77.4681592 131.378109,78.2393035 131.378109,78.2412935 Z" id="Stroke-11" stroke="#006444"></path>
                <path d="M168.10398,82.2835821 C165.341294,81.8666667 163.567164,81.6218905 163.567164,81.6208955 C164.299502,79.4965174 165.032338,77.3736318 165.765174,75.2532338 C165.765174,75.2542289 166.195522,77.9562189 167.8199,79.1089552 C169.047264,79.9830846 171.126866,80.7452736 175.557711,81.4850746 C179.988557,82.2328358 182.432338,81.7671642 182.432338,79.4910448 C182.432338,76.8412935 179.141294,75.6129353 175.180597,73.7442786 C171.220896,71.8771144 168.835323,70.5537313 168.835323,67.379602 C168.834328,64.2169154 173.254726,60.9890547 180.808955,62.3422886 C180.810945,62.3283582 187.347264,63.8517413 188.259701,64.0477612 C189.176119,64.2268657 191.310945,64.659204 191.310945,64.6606965 C190.560697,66.6636816 189.80995,68.6686567 189.058706,70.6761194 C189.056716,70.6885572 187.772139,65.9348259 180.833333,64.6661692 C175.654726,63.7437811 174.660697,65.7114428 174.661692,66.5810945 C174.661692,67.4626866 174.428856,68.6323383 179.39801,70.919403 C184.365174,73.2164179 188.470647,74.6094527 188.471642,79.0099502 C188.470647,83.4243781 184.29801,85.2930348 176.406965,83.940796 C173.720398,83.4810945 170.235821,82.6029851 168.10398,82.2835821" id="Fill-12" fill="#006444"></path>
                <polyline id="Fill-13" fill="#1A1919" points="155.142289 10.778607 165.461194 17.8960199 170.668657 21.2691542 189.394527 35.2651741 189.050746 39.4761194 189.812935 43.0656716 181.59403 45.1169154 187.030348 42.3169154 186.749254 38.7975124 186.535323 34.9014925 168.934826 22.6004975 162.640299 19.860199 155.142289 10.778607"></polyline>
                <polyline id="Fill-14" fill="#1A1919" points="165.908458 40.4134328 167.541294 44.4895522 173.291542 47.5452736 179.055721 45.5651741 173.667662 45.6547264 168.31393 43.0437811 165.908458 40.4134328"></polyline>
                <path d="M148.742786,6.50199005 L151.129851,13.6169154 L151.025871,14.2129353 C150.138806,12.7865672 148.816915,11.361194 146.859204,10.4597015 C144.555224,9.39950249 139.445771,5.47860697 124.314428,5.69651741 C115.912438,5.81691542 109.922388,6.50646766 106.625871,5.18855721 C103.660199,4.00348259 104.147761,1.59402985 104.147761,1.59402985 C104.147761,1.59402985 99.8920398,7.89701493 105.276617,10.0049751 C108.723881,11.3547264 113.738308,10.3084577 116.569652,10.0169154 C128.60398,8.77263682 128.276617,12.4532338 128.276617,12.4532338 C128.276617,12.4532338 125.256219,10.8955224 114.210448,12.3318408 C104.365174,13.6109453 101.143284,11.0278607 99.4800995,9.50945274 C97.3606965,7.57512438 99.6169154,4.14925373 99.6169154,4.14925373 C99.6169154,4.14925373 93.4810945,6.96069652 94.4636816,10.0462687 C94.9671642,11.6248756 97.6054726,12.5885572 99.2890547,13.0527363 C100.20199,13.239801 100.709453,13.3890547 100.709453,13.3890547 C100.709453,13.3890547 100.113433,13.2810945 99.2890547,13.0527363 C97.858209,12.761194 95.4243781,12.3761194 92.3263682,12.3233831 C80.1318408,12.1139303 57.4154229,18.578607 57.4154229,18.578607 C57.4154229,18.578607 72.5258706,14.9532338 84.1487562,15.7975124 C87.2751244,16.0238806 90.921393,17.1248756 90.921393,17.1248756 C90.921393,17.1248756 84.0900498,17.8910448 80.8587065,18.7855721 C70.0771144,21.7706468 38.5029851,30.0303483 38.5029851,30.0303483 C38.5029851,30.0303483 67.5656716,23.8422886 86.521393,21.2383085 C97.4114428,19.7427861 109.087562,18.7527363 119.20398,18.2646766 C117.032836,18.4696517 114.799502,18.6845771 112.51393,18.9119403 C76.6348259,22.4820896 8.04776119,49.7353234 8.04776119,49.7353234 C8.04776119,49.7353234 79.978607,25.5487562 112.793035,22.4333333 C133.698507,20.4477612 153.461692,19.5338308 153.461692,19.5338308 L155.231343,14.6134328 L148.742786,6.50199005" id="Fill-15" fill="#1A1919"></path>
                <path d="M152.595025,41.041791 C147.147761,39.9014925 143.359701,35.6547264 143.359701,35.6547264 L142.29602,33.7900498 L142.29801,31.7472637 C142.29801,31.7472637 126.041791,32.399005 110.09403,37.2308458 C89.4751244,43.4791045 69.2935323,61.6666667 69.2935323,61.6666667 C69.2935323,61.6666667 93.3089552,43.8084577 109.754229,39.961194 C117.032836,38.2587065 125.287065,36.8353234 131.662189,35.8462687 C130.009453,36.7626866 128.276617,37.8890547 126.565174,39.278607 C113.767662,49.6606965 112.416915,68.8447761 112.416915,68.8447761 C112.416915,68.8447761 114.449254,53.6164179 126.701493,43.558209 C133.854726,37.6855721 140.657711,37.2059701 140.657711,37.2059701 L150.69801,42.9761194 L163.373632,40.8661692 C163.373632,40.8661692 156.664677,41.8945274 152.595025,41.041791" id="Fill-16" fill="#1A1919"></path>
                <polyline id="Fill-17" fill="#006444" points="155.142289 9.38955224 165.461194 16.5069652 170.668657 19.880597 189.394527 33.8761194 189.050746 38.0875622 189.812935 41.6766169 181.59403 43.7283582 187.030348 40.9278607 186.749254 37.4084577 186.535323 33.5124378 168.934826 21.2119403 162.640299 18.4716418 155.142289 9.38955224"></polyline>
                <polyline id="Fill-18" fill="#006444" points="165.908458 39.0248756 167.541294 43.100995 173.291542 46.1567164 179.055721 44.1761194 173.667662 44.2661692 168.31393 41.6552239 165.908458 39.0248756"></polyline>
                <path d="M148.742786,5.11293532 L151.129851,12.2278607 L151.025871,12.8238806 C150.138806,11.3975124 148.816915,9.97263682 146.859204,9.07114428 C144.555224,8.01044776 139.445771,4.09004975 124.314428,4.30746269 C115.912438,4.42835821 109.922388,5.11791045 106.625871,3.8 C103.660199,2.61492537 104.147761,0.204975124 104.147761,0.204975124 C104.147761,0.204975124 99.8920398,6.50845771 105.276617,8.6159204 C108.723881,9.96567164 113.738308,8.91940299 116.569652,8.6278607 C128.60398,7.38358209 128.276617,11.0641791 128.276617,11.0641791 C128.276617,11.0641791 125.256219,9.50646766 114.210448,10.9427861 C104.365174,12.2223881 101.143284,9.63930348 99.4800995,8.12089552 C97.3606965,6.18656716 99.6169154,2.76069652 99.6169154,2.76069652 C99.6169154,2.76069652 93.4810945,5.5721393 94.4636816,8.65771144 C94.9671642,10.2363184 97.6054726,11.1995025 99.2890547,11.6641791 C100.20199,11.8507463 100.709453,12.0004975 100.709453,12.0004975 C100.709453,12.0004975 100.113433,11.8920398 99.2890547,11.6641791 C97.858209,11.3721393 95.4243781,10.9875622 92.3263682,10.9348259 C80.1318408,10.7248756 57.4154229,17.1900498 57.4154229,17.1900498 C57.4154229,17.1900498 72.5258706,13.5641791 84.1487562,14.4089552 C87.2751244,14.6348259 90.921393,15.7358209 90.921393,15.7358209 C90.921393,15.7358209 84.0900498,16.5024876 80.8587065,17.3965174 C70.0771144,20.3820896 38.5029851,28.6412935 38.5029851,28.6412935 C38.5029851,28.6412935 67.5656716,22.4532338 86.521393,19.8497512 C97.4114428,18.3537313 109.087562,17.3636816 119.20398,16.8756219 C117.032836,17.080597 114.799502,17.2960199 112.51393,17.5228856 C76.6348259,21.0930348 8.04776119,48.3467662 8.04776119,48.3467662 C8.04776119,48.3467662 79.978607,24.160199 112.793035,21.0447761 C133.698507,19.059204 153.461692,18.1452736 153.461692,18.1452736 L155.231343,13.2243781 L148.742786,5.11293532" id="Fill-19" fill="#006444"></path>
                <path d="M152.595025,39.6527363 C147.147761,38.5124378 143.359701,34.2661692 143.359701,34.2661692 L142.29602,32.4014925 L142.29801,30.358209 C142.29801,30.358209 126.041791,31.0104478 110.09403,35.8422886 C89.4751244,42.0900498 69.2935323,60.2776119 69.2935323,60.2776119 C69.2935323,60.2776119 93.3089552,42.419403 109.754229,38.5721393 C117.032836,36.8696517 125.287065,35.4467662 131.662189,34.4572139 C130.009453,35.3736318 128.276617,36.5004975 126.565174,37.8900498 C113.767662,48.2721393 112.416915,67.4557214 112.416915,67.4557214 C112.416915,67.4557214 114.449254,52.2278607 126.701493,42.1696517 C133.854726,36.2965174 140.657711,35.8169154 140.657711,35.8169154 L150.69801,41.5875622 L163.373632,39.4771144 C163.373632,39.4771144 156.664677,40.5059701 152.595025,39.6527363" id="Fill-20" fill="#006444"></path>
            </g>
        </g>
    </g>
</svg>