<svg width="200" height="200" viewBox="0 0 200 200" fill="none" xmlns="http://www.w3.org/2000/svg">
<path d="M117.207 168.005C116.584 168.005 116.079 167.5 116.079 166.877V166.329C116.079 165.844 116.39 165.414 116.85 165.26C119.841 164.264 120.389 159.234 118.316 151.806L100.367 86.908L82.4178 151.804C80.3453 159.232 80.8933 164.264 83.8837 165.26C84.3438 165.414 84.655 165.844 84.655 166.329V166.877C84.655 167.5 84.1498 168.005 83.5274 168.005H38.6805C38.0581 168.005 37.5529 167.5 37.5529 166.877V166.329C37.5529 165.844 37.8641 165.414 38.3242 165.26C41.407 164.232 42.0092 159.462 39.975 152.173L11.6001 48.9304C9.68769 41.9213 5.69824 36.1412 1.89823 34.8738C1.43817 34.7204 1.12695 34.2897 1.12695 33.8048V33.2546C1.12695 32.6321 1.63212 32.127 2.25455 32.127H47.8321C48.4545 32.127 48.9597 32.6321 48.9597 33.2546V33.8048C48.9597 34.2897 48.6485 34.7204 48.1884 34.8738C44.6838 36.042 43.7502 40.7508 45.6265 47.7916L62.1503 111.647L80.0589 47.4127C81.9262 40.7193 80.9677 36.033 77.4947 34.8738C77.0347 34.7204 76.7234 34.2897 76.7234 33.8048V33.2546C76.7234 32.6321 77.2286 32.127 77.851 32.127H122.696C123.318 32.127 123.823 32.6321 123.823 33.2546V33.8048C123.823 34.2897 123.512 34.7204 123.052 34.8738C119.602 36.0239 118.618 40.8997 120.488 47.5954L138.568 111.819L154.918 47.6202C157.139 38.5317 154.753 35.6721 152.358 34.8738C151.898 34.7204 151.587 34.2897 151.587 33.8048V33.2546C151.587 32.6321 152.092 32.127 152.715 32.127H197.744C198.367 32.127 198.872 32.6321 198.872 33.2546V33.8048C198.872 34.2897 198.561 34.7204 198.1 34.8738C195.018 35.9022 190.665 40.7959 188.399 49.1108L159.843 152.169C157.809 159.46 158.409 164.23 161.492 165.258C161.952 165.411 162.263 165.842 162.263 166.327V166.875C162.263 167.497 161.758 168.003 161.135 168.003H117.207V168.005Z" fill="#FFBE0A"/>
<path d="M197.745 33.2575V33.8055C193.902 35.0864 189.509 40.7605 187.312 48.8161L158.757 151.87C156.56 159.74 157.293 165.049 161.136 166.33V166.878H117.205V166.33C121.048 165.049 121.598 159.375 119.401 151.504L100.365 82.6801L81.3292 151.504C79.1327 159.375 79.6829 165.049 83.5258 166.33V166.878H38.6812V166.33C42.524 165.049 43.257 159.74 41.0604 151.87L12.6877 48.6334C10.4912 40.5801 6.09806 35.0887 2.2552 33.8077V33.2597H47.8327V33.8077C43.9899 35.0887 42.3413 39.8494 44.5379 48.0854L62.1104 115.994L81.1465 47.7178C83.3431 39.8471 81.6945 35.0887 77.8517 33.8077V33.2597H122.696V33.8077C118.853 35.0887 117.205 40.0321 119.401 47.9027L138.62 116.179L156.01 47.9027C158.024 39.6667 156.558 35.0887 152.715 33.8077V33.2597H197.745M197.745 31.0023H152.715C151.47 31.0023 150.46 32.0126 150.46 33.2575V33.8055C150.46 34.7752 151.08 35.6389 152.003 35.9457C155.706 37.1792 154.736 43.6156 153.823 47.3524L138.512 107.465L121.573 47.287C119.884 41.2341 120.588 36.8838 123.411 35.9434C124.331 35.6367 124.954 34.7752 124.954 33.8032V33.2552C124.954 32.0103 123.943 31 122.699 31H77.8517C76.6068 31 75.5965 32.0103 75.5965 33.2552V33.8032C75.5965 34.773 76.2167 35.6367 77.1391 35.9434C79.9761 36.8883 80.6617 41.0627 78.9748 47.1089L62.1916 107.302L46.7209 47.5171C46.7187 47.5126 46.7187 47.5058 46.7164 47.5013C45.7737 43.9629 45.5595 40.9883 46.103 38.9022C46.5135 37.3236 47.3118 36.3561 48.5454 35.9457C49.4655 35.6389 50.0879 34.7775 50.0879 33.8055V33.2575C50.0879 32.0126 49.0776 31.0023 47.8327 31.0023H2.2552C1.01033 31.0023 0 32.0126 0 33.2575V33.8055C0 34.7752 0.620172 35.6389 1.54255 35.9457C3.02196 36.4395 4.74268 37.9189 6.26945 40.0095C8.07812 42.488 9.54625 45.6746 10.5137 49.2265L38.8864 152.467C39.8899 156.067 40.244 159.091 39.908 161.22C39.5223 163.671 38.3925 164.048 37.9685 164.19C37.0484 164.496 36.426 165.358 36.426 166.33V166.878C36.426 168.123 37.4363 169.133 38.6812 169.133H83.5258C84.7706 169.133 85.781 168.123 85.781 166.878V166.33C85.781 165.36 85.1608 164.496 84.2384 164.19C81.9539 163.427 81.6652 158.687 83.501 152.109L100.365 91.1371L117.227 152.102C119.065 158.685 118.775 163.427 116.492 164.187C115.572 164.494 114.95 165.356 114.95 166.328V166.876C114.95 168.121 115.96 169.131 117.205 169.131H161.136C162.381 169.131 163.391 168.121 163.391 166.876V166.328C163.391 165.358 162.771 164.494 161.849 164.187C161.423 164.045 160.295 163.669 159.909 161.217C159.573 159.088 159.927 156.064 160.929 152.474L189.484 49.4159C191.55 41.843 195.559 36.9086 198.457 35.9434C199.378 35.6367 200 34.7752 200 33.8032V33.2552C200 32.0126 198.99 31.0023 197.745 31.0023Z" fill="#500082"/>
<path d="M54.8772 65.9859C55.1118 68.4599 56.9971 70.4648 56.9971 70.4648C56.9971 70.4648 51.6951 67.5195 48.7498 58.6814C48.2785 60.8035 49.1039 64.3374 50.2811 67.0481C49.8526 66.57 49.4422 66.0649 49.0633 65.5236C47.5614 63.397 46.5127 60.7426 46.5127 57.2673C46.5127 56.805 46.5375 56.3608 46.5826 55.9413C47.3855 48.6164 54.76 47.6354 54.76 52.6735C54.76 60.3322 59.4711 63.7488 62.0645 65.3973C61.2391 64.3374 59.9424 62.452 58.7652 60.4494C62.7704 61.5094 67.8356 62.3348 69.8382 62.452C70.9004 64.1029 71.489 66.5768 71.489 68.4599C71.489 70.582 70.9004 72.2306 70.3095 73.4101C65.4812 73.1733 57.7052 69.5221 54.8772 65.9859Z" fill="white"/>
<path d="M67.2476 81.1856C67.2476 81.6569 67.3648 82.126 67.4844 82.3628C64.6586 81.481 59.8483 80.067 52.6587 79.4153C50.2524 79.1965 47.58 79.0635 44.6279 79.0635C41.9172 79.0635 36.852 79.0634 30.7246 79.6521L52.6384 83.0687C48.3964 84.0114 43.568 84.4827 39.0891 84.4827C43.0312 86.1718 48.5881 86.8912 54.4222 86.2327C54.6906 86.2034 54.9612 86.1696 55.2319 86.1335C55.0357 86.2846 54.7966 86.447 54.5215 86.6139C52.6429 87.7617 49.0481 89.1961 45.4511 89.1961C42.2712 89.1961 40.1514 88.842 37.6774 87.6648C39.2087 89.1961 41.7999 91.4355 47.1019 91.4355C50.0336 91.4355 52.8594 90.7093 55.3311 89.7418C59.3205 88.1812 62.3876 85.9892 63.4769 85.1908H67.013C65.7163 86.7176 61.5058 90.3642 56.1091 92.748C53.1706 94.047 49.878 94.9694 46.5133 94.9694C34.9667 94.9694 28.1334 81.8915 26.248 77.6494C29.3106 77.1781 36.852 76.1182 43.6852 76.1182C46.5178 76.1182 49.2511 76.2061 51.8761 76.3888C57.8795 76.8128 63.319 77.7419 68.073 79.3002C67.3648 79.8889 67.2476 80.8315 67.2476 81.1856Z" fill="white"/>
<path d="M88.2178 107.341C88.2178 116.177 84.5667 122.539 80.2074 125.955C81.7387 122.421 82.6813 118.416 82.9159 114.882C81.15 117.002 79.2647 119.242 77.1426 120.065C78.2048 117.002 78.9106 113.82 79.0279 111.112C77.7334 112.408 75.9653 113.82 74.5513 114.528C75.3767 111.7 75.8481 109.109 75.9653 106.635C75.1399 107.224 74.4341 107.695 73.7259 107.929V97.091C73.5139 96.2363 72.666 95.0884 72.666 92.849C72.666 91.0832 74.0394 88.8708 75.3767 88.0206C76.7908 88.8438 80.5592 92.1431 80.5592 97.9164H77.6139C81.15 100.508 83.0354 102.393 85.038 107.695C85.144 89.1505 74.5243 84.3559 71.1888 83.3794C70.8573 83.2802 70.598 83.2215 70.4288 83.19C70.192 82.9532 69.7207 82.2473 69.7207 81.3046C69.7207 80.716 70.0748 80.1252 70.3093 79.8906C70.8866 80.0643 71.4527 80.2537 72.003 80.4589C82.3769 84.3288 88.2178 94.0285 88.2178 107.341Z" fill="white"/>
<path d="M115.55 152.465C115.55 154.114 114.49 155.41 112.251 155.41C107.657 155.41 102.943 154.702 99.9981 154.702C97.0529 154.702 92.3417 155.41 87.7456 155.41C85.5085 155.41 84.4463 154.114 84.4463 152.465C84.4463 150.226 87.5111 148.694 99.9981 148.694C112.487 148.694 115.55 150.226 115.55 152.465Z" fill="white"/>
<path d="M126.272 68.4605C126.272 70.8172 126.743 72.7025 127.332 74.1165L126.874 74.3984L124.269 76.0019L125.212 72.5853L116.493 76.9445L118.261 72.468L108.246 78.1218L106.715 76.8273L102.356 84.955L112.134 79.5358L110.603 83.3065L120.264 78.4758L119.91 79.8898C115.433 82.2465 110.957 84.955 106.715 87.6658C110.957 86.2518 115.668 84.7205 117.907 84.0123C112.959 88.7257 109.189 96.7362 109.189 107.34C109.189 116.059 111.545 122.892 112.842 124.66C118.261 126.78 123.209 131.022 123.209 138.798C123.209 142.262 121.879 146.305 118.311 147.51C117.632 147.742 116.87 147.868 116.022 147.868C112.842 147.868 107.069 145.394 99.9988 145.394C92.9311 145.394 87.1577 147.868 83.9757 147.868C83.4006 147.868 82.8661 147.81 82.3677 147.701C78.2881 146.804 76.7906 142.474 76.7906 138.798C76.7906 131.022 81.7385 126.78 87.1577 124.66C88.4545 122.892 90.8089 116.059 90.8089 107.34C90.8089 96.7362 87.0405 88.7257 81.973 84.1319C84.0952 84.6032 89.0431 86.2518 93.2851 87.6658C89.0431 84.955 84.5665 82.2465 80.0877 79.8898L79.7359 78.4758L89.3972 83.3065L87.8636 79.5358L97.6444 84.955L93.2851 76.8273L91.7516 78.1218L81.7385 72.468L83.5066 76.9445L74.788 72.5853L75.7307 76.0019L73.6085 74.6961L72.6658 74.1165C73.2544 72.7025 73.7258 70.8172 73.7258 68.4605C73.7258 66.4579 73.2544 63.6321 71.96 61.6272C73.5521 61.2033 75.7216 60.777 77.5123 60.6981C77.7085 60.6891 77.9002 60.6846 78.0851 60.6846C79.4991 60.6846 83.0352 60.9214 86.6864 61.3927L77.6137 63.6321L90.8089 63.8667L88.9258 66.2233L99.9988 63.1608L111.074 66.2233L109.189 63.8667L122.384 63.6321L113.314 61.3927C116.965 60.9214 120.499 60.6846 121.913 60.6846C122.267 60.6846 122.641 60.7004 123.027 60.7319H123.029C124.702 60.8627 126.603 61.2439 128.04 61.6272C126.743 63.6321 126.272 66.4579 126.272 68.4605Z" fill="white"/>
<path d="M130.276 81.3046C130.276 82.2473 129.805 82.9532 129.571 83.19C129.512 83.2012 129.442 83.2148 129.361 83.2328C126.891 83.7944 114.849 87.953 114.961 107.695C116.964 102.393 118.849 100.508 122.383 97.9164H119.438C119.438 92.1431 123.209 88.8438 124.623 88.0206C125.917 88.7265 127.331 90.2578 127.331 91.9086C127.331 93.4398 126.508 96.1483 126.271 97.091V107.929C125.565 107.695 124.857 107.224 124.034 106.635C124.151 109.109 124.623 111.7 125.448 114.528C124.034 113.82 122.266 112.408 120.969 111.112C121.089 113.82 121.795 117.002 122.855 120.065C120.735 119.242 118.849 117.002 117.081 114.882C117.318 118.416 118.261 122.421 119.792 125.955C115.433 122.539 111.779 116.177 111.779 107.341C111.779 93.8029 117.823 83.9996 128.526 80.2672C128.908 80.1342 129.295 80.0079 129.688 79.8906C129.925 80.1252 130.276 80.716 130.276 81.3046Z" fill="white"/>
<path d="M153.488 57.269C153.488 57.4471 153.486 57.6208 153.479 57.7944C153.405 60.2143 152.811 62.2214 151.918 63.9263C151.305 65.099 150.547 66.1297 149.717 67.0498C150.897 64.339 151.72 60.8051 151.249 58.683C148.303 67.5211 143.004 70.4664 143.004 70.4664C143.004 70.4664 144.887 68.4615 145.123 65.9876C142.295 69.5237 134.52 73.1749 129.689 73.4117C129.1 72.2322 128.512 70.5837 128.512 68.4615C128.512 66.5784 129.1 64.1045 130.16 62.4537C132.163 62.3364 137.23 61.511 141.236 60.4511C140.056 62.4537 138.762 64.339 137.936 65.399C140.527 63.7504 145.241 60.3338 145.241 52.6751C145.241 47.3777 153.488 48.3722 153.488 57.269Z" fill="white"/>
<path d="M173.754 77.6494C171.868 81.8915 165.035 94.9694 153.488 94.9694C150.356 94.9694 147.289 94.171 144.508 93.0141C138.818 90.6439 134.335 86.774 132.989 85.1908H136.523C137.668 86.0298 140.997 88.4067 145.282 89.9764C147.602 90.8243 150.207 91.4355 152.9 91.4355C158.202 91.4355 160.793 89.1961 162.324 87.6648C159.85 88.842 157.73 89.1961 154.548 89.1961C151.292 89.1961 148.035 88.0211 146.055 86.9454C145.528 86.659 145.092 86.3816 144.77 86.1335C145.255 86.1989 145.74 86.2553 146.22 86.3004C151.82 86.8371 157.115 86.111 160.91 84.4827C156.434 84.4827 151.603 84.0114 147.361 83.0687L169.275 79.6521C163.15 79.0634 158.082 79.0635 155.374 79.0635C152.681 79.0635 150.221 79.174 147.986 79.3611C140.438 79.9836 135.427 81.454 132.517 82.3628C132.635 82.126 132.754 81.6569 132.754 81.1856C132.754 80.8315 132.635 79.8889 131.929 79.3002C136.847 77.6878 142.501 76.7474 148.755 76.3459C151.188 76.1926 153.712 76.1182 156.316 76.1182C163.15 76.1182 170.689 77.1781 173.754 77.6494Z" fill="white"/>
<path d="M113.695 130.817C113.025 130.411 112.387 130.125 111.9 129.963C113.548 132.317 114.02 134.202 114.02 135.145H110.957C110.249 138.562 112.252 140.093 114.137 140.093C114.922 140.093 115.576 139.867 116.09 139.475C116.969 138.81 117.436 137.66 117.436 136.324C117.436 133.763 115.456 131.882 113.695 130.817ZM108.364 121.715L105.066 112.643L102.827 119.241L99.9991 108.283L97.1733 119.241L94.9339 112.643L91.6345 121.715L90.4573 120.89L91.7518 126.78L95.0512 119.241L97.5251 125.955L99.9991 117.708L102.473 125.955L104.947 119.241L108.246 126.78L109.543 120.89L108.364 121.715ZM89.0433 135.145H85.9808C85.9808 134.922 86.0078 134.644 86.071 134.32C86.1319 133.997 86.2311 133.625 86.3754 133.215C86.6934 132.306 87.2346 131.198 88.1006 129.963C87.83 130.053 87.512 130.181 87.167 130.348C85.2659 131.266 82.5641 133.33 82.5641 136.324C82.5641 137.953 83.2587 139.304 84.5419 139.84C84.9276 140.005 85.3696 140.093 85.8612 140.093C87.7466 140.093 89.7492 138.562 89.0433 135.145ZM89.0433 135.145H85.9808C85.9808 134.922 86.0078 134.644 86.071 134.32C86.1319 133.997 86.2311 133.625 86.3754 133.215C86.6934 132.306 87.2346 131.198 88.1006 129.963C87.83 130.053 87.512 130.181 87.167 130.348C85.2659 131.266 82.5641 133.33 82.5641 136.324C82.5641 137.953 83.2587 139.304 84.5419 139.84C84.9276 140.005 85.3696 140.093 85.8612 140.093C87.7466 140.093 89.7492 138.562 89.0433 135.145ZM108.364 121.715L105.066 112.643L102.827 119.241L99.9991 108.283L97.1733 119.241L94.9339 112.643L91.6345 121.715L90.4573 120.89L91.7518 126.78L95.0512 119.241L97.5251 125.955L99.9991 117.708L102.473 125.955L104.947 119.241L108.246 126.78L109.543 120.89L108.364 121.715ZM113.695 130.817C113.025 130.411 112.387 130.125 111.9 129.963C113.548 132.317 114.02 134.202 114.02 135.145H110.957C110.249 138.562 112.252 140.093 114.137 140.093C114.922 140.093 115.576 139.867 116.09 139.475C116.969 138.81 117.436 137.66 117.436 136.324C117.436 133.763 115.456 131.882 113.695 130.817ZM124.152 93.5569C124.152 93.3201 124.27 93.0856 124.858 92.497L126.038 91.437C126.038 90.8462 125.095 89.9035 124.624 89.6689C124.035 90.023 121.678 92.1429 121.678 94.0282C121.678 94.8536 122.15 96.3849 124.152 96.3849C124.27 96.3849 124.624 96.3849 124.978 96.2654L125.566 94.0282H124.978C124.387 94.0282 124.152 93.911 124.152 93.5569ZM124.152 93.5569C124.152 93.3201 124.27 93.0856 124.858 92.497L126.038 91.437C126.038 90.8462 125.095 89.9035 124.624 89.6689C124.035 90.023 121.678 92.1429 121.678 94.0282C121.678 94.8536 122.15 96.3849 124.152 96.3849C124.27 96.3849 124.624 96.3849 124.978 96.2654L125.566 94.0282H124.978C124.387 94.0282 124.152 93.911 124.152 93.5569ZM89.0433 135.145H85.9808C85.9808 134.922 86.0078 134.644 86.071 134.32C86.1319 133.997 86.2311 133.625 86.3754 133.215C86.6934 132.306 87.2346 131.198 88.1006 129.963C87.83 130.053 87.512 130.181 87.167 130.348C85.2659 131.266 82.5641 133.33 82.5641 136.324C82.5641 137.953 83.2587 139.304 84.5419 139.84C84.9276 140.005 85.3696 140.093 85.8612 140.093C87.7466 140.093 89.7492 138.562 89.0433 135.145ZM108.364 121.715L105.066 112.643L102.827 119.241L99.9991 108.283L97.1733 119.241L94.9339 112.643L91.6345 121.715L90.4573 120.89L91.7518 126.78L95.0512 119.241L97.5251 125.955L99.9991 117.708L102.473 125.955L104.947 119.241L108.246 126.78L109.543 120.89L108.364 121.715ZM113.695 130.817C113.025 130.411 112.387 130.125 111.9 129.963C113.548 132.317 114.02 134.202 114.02 135.145H110.957C110.249 138.562 112.252 140.093 114.137 140.093C114.922 140.093 115.576 139.867 116.09 139.475C116.969 138.81 117.436 137.66 117.436 136.324C117.436 133.763 115.456 131.882 113.695 130.817ZM124.152 93.5569C124.152 93.3201 124.27 93.0856 124.858 92.497L126.038 91.437C126.038 90.8462 125.095 89.9035 124.624 89.6689C124.035 90.023 121.678 92.1429 121.678 94.0282C121.678 94.8536 122.15 96.3849 124.152 96.3849C124.27 96.3849 124.624 96.3849 124.978 96.2654L125.566 94.0282H124.978C124.387 94.0282 124.152 93.911 124.152 93.5569ZM124.152 93.5569C124.152 93.3201 124.27 93.0856 124.858 92.497L126.038 91.437C126.038 90.8462 125.095 89.9035 124.624 89.6689C124.035 90.023 121.678 92.1429 121.678 94.0282C121.678 94.8536 122.15 96.3849 124.152 96.3849C124.27 96.3849 124.624 96.3849 124.978 96.2654L125.566 94.0282H124.978C124.387 94.0282 124.152 93.911 124.152 93.5569ZM89.0433 135.145H85.9808C85.9808 134.922 86.0078 134.644 86.071 134.32C86.1319 133.997 86.2311 133.625 86.3754 133.215C86.6934 132.306 87.2346 131.198 88.1006 129.963C87.83 130.053 87.512 130.181 87.167 130.348C85.2659 131.266 82.5641 133.33 82.5641 136.324C82.5641 137.953 83.2587 139.304 84.5419 139.84C84.9276 140.005 85.3696 140.093 85.8612 140.093C87.7466 140.093 89.7492 138.562 89.0433 135.145ZM108.364 121.715L105.066 112.643L102.827 119.241L99.9991 108.283L97.1733 119.241L94.9339 112.643L91.6345 121.715L90.4573 120.89L91.7518 126.78L95.0512 119.241L97.5251 125.955L99.9991 117.708L102.473 125.955L104.947 119.241L108.246 126.78L109.543 120.89L108.364 121.715ZM113.695 130.817C113.025 130.411 112.387 130.125 111.9 129.963C113.548 132.317 114.02 134.202 114.02 135.145H110.957C110.249 138.562 112.252 140.093 114.137 140.093C114.922 140.093 115.576 139.867 116.09 139.475C116.969 138.81 117.436 137.66 117.436 136.324C117.436 133.763 115.456 131.882 113.695 130.817ZM124.152 93.5569C124.152 93.3201 124.27 93.0856 124.858 92.497L126.038 91.437C126.038 90.8462 125.095 89.9035 124.624 89.6689C124.035 90.023 121.678 92.1429 121.678 94.0282C121.678 94.8536 122.15 96.3849 124.152 96.3849C124.27 96.3849 124.624 96.3849 124.978 96.2654L125.566 94.0282H124.978C124.387 94.0282 124.152 93.911 124.152 93.5569ZM124.152 93.5569C124.152 93.3201 124.27 93.0856 124.858 92.497L126.038 91.437C126.038 90.8462 125.095 89.9035 124.624 89.6689C124.035 90.023 121.678 92.1429 121.678 94.0282C121.678 94.8536 122.15 96.3849 124.152 96.3849C124.27 96.3849 124.624 96.3849 124.978 96.2654L125.566 94.0282H124.978C124.387 94.0282 124.152 93.911 124.152 93.5569ZM82.5641 136.324C82.5641 137.953 83.2587 139.304 84.5419 139.84L86.071 134.32C86.1319 133.997 86.2311 133.625 86.3754 133.215L87.167 130.348C85.2659 131.266 82.5641 133.33 82.5641 136.324ZM113.695 130.817L116.09 139.475C116.969 138.81 117.436 137.66 117.436 136.324C117.436 133.763 115.456 131.882 113.695 130.817ZM124.152 93.5569C124.152 93.3201 124.27 93.0856 124.858 92.497L126.038 91.437C126.038 90.8462 125.095 89.9035 124.624 89.6689C124.035 90.023 121.678 92.1429 121.678 94.0282C121.678 94.8536 122.15 96.3849 124.152 96.3849C124.27 96.3849 124.624 96.3849 124.978 96.2654L125.566 94.0282H124.978C124.387 94.0282 124.152 93.911 124.152 93.5569ZM124.152 93.5569C124.152 93.3201 124.27 93.0856 124.858 92.497L126.038 91.437C126.038 90.8462 125.095 89.9035 124.624 89.6689C124.035 90.023 121.678 92.1429 121.678 94.0282C121.678 94.8536 122.15 96.3849 124.152 96.3849C124.27 96.3849 124.624 96.3849 124.978 96.2654L125.566 94.0282H124.978C124.387 94.0282 124.152 93.911 124.152 93.5569ZM113.695 130.817L116.09 139.475C116.969 138.81 117.436 137.66 117.436 136.324C117.436 133.763 115.456 131.882 113.695 130.817ZM82.5641 136.324C82.5641 137.953 83.2587 139.304 84.5419 139.84L86.071 134.32C86.1319 133.997 86.2311 133.625 86.3754 133.215L87.167 130.348C85.2659 131.266 82.5641 133.33 82.5641 136.324ZM124.152 93.5569C124.152 93.3201 124.27 93.0856 124.858 92.497L126.038 91.437C126.038 90.8462 125.095 89.9035 124.624 89.6689C124.035 90.023 121.678 92.1429 121.678 94.0282C121.678 94.8536 122.15 96.3849 124.152 96.3849C124.27 96.3849 124.624 96.3849 124.978 96.2654L125.566 94.0282H124.978C124.387 94.0282 124.152 93.911 124.152 93.5569ZM124.152 93.5569C124.152 93.3201 124.27 93.0856 124.858 92.497L126.038 91.437C126.038 90.8462 125.095 89.9035 124.624 89.6689C124.035 90.023 121.678 92.1429 121.678 94.0282C121.678 94.8536 122.15 96.3849 124.152 96.3849C124.27 96.3849 124.624 96.3849 124.978 96.2654L125.566 94.0282H124.978C124.387 94.0282 124.152 93.911 124.152 93.5569ZM113.695 130.817C113.025 130.411 112.387 130.125 111.9 129.963C113.548 132.317 114.02 134.202 114.02 135.145H110.957C110.249 138.562 112.252 140.093 114.137 140.093C114.922 140.093 115.576 139.867 116.09 139.475C116.969 138.81 117.436 137.66 117.436 136.324C117.436 133.763 115.456 131.882 113.695 130.817ZM108.364 121.715L105.066 112.643L102.827 119.241L99.9991 108.283L97.1733 119.241L94.9339 112.643L91.6345 121.715L90.4573 120.89L91.7518 126.78L95.0512 119.241L97.5251 125.955L99.9991 117.708L102.473 125.955L104.947 119.241L108.246 126.78L109.543 120.89L108.364 121.715ZM89.0433 135.145H85.9808C85.9808 134.922 86.0078 134.644 86.071 134.32C86.1319 133.997 86.2311 133.625 86.3754 133.215C86.6934 132.306 87.2346 131.198 88.1006 129.963C87.83 130.053 87.512 130.181 87.167 130.348C85.2659 131.266 82.5641 133.33 82.5641 136.324C82.5641 137.953 83.2587 139.304 84.5419 139.84C84.9276 140.005 85.3696 140.093 85.8612 140.093C87.7466 140.093 89.7492 138.562 89.0433 135.145ZM124.152 93.5569C124.152 93.3201 124.27 93.0856 124.858 92.497L126.038 91.437C126.038 90.8462 125.095 89.9035 124.624 89.6689C124.035 90.023 121.678 92.1429 121.678 94.0282C121.678 94.8536 122.15 96.3849 124.152 96.3849C124.27 96.3849 124.624 96.3849 124.978 96.2654L125.566 94.0282H124.978C124.387 94.0282 124.152 93.911 124.152 93.5569ZM124.152 93.5569C124.152 93.3201 124.27 93.0856 124.858 92.497L126.038 91.437C126.038 90.8462 125.095 89.9035 124.624 89.6689C124.035 90.023 121.678 92.1429 121.678 94.0282C121.678 94.8536 122.15 96.3849 124.152 96.3849C124.27 96.3849 124.624 96.3849 124.978 96.2654L125.566 94.0282H124.978C124.387 94.0282 124.152 93.911 124.152 93.5569ZM113.695 130.817C113.025 130.411 112.387 130.125 111.9 129.963C113.548 132.317 114.02 134.202 114.02 135.145H110.957C110.249 138.562 112.252 140.093 114.137 140.093C114.922 140.093 115.576 139.867 116.09 139.475C116.969 138.81 117.436 137.66 117.436 136.324C117.436 133.763 115.456 131.882 113.695 130.817ZM108.364 121.715L105.066 112.643L102.827 119.241L99.9991 108.283L97.1733 119.241L94.9339 112.643L91.6345 121.715L90.4573 120.89L91.7518 126.78L95.0512 119.241L97.5251 125.955L99.9991 117.708L102.473 125.955L104.947 119.241L108.246 126.78L109.543 120.89L108.364 121.715ZM89.0433 135.145H85.9808C85.9808 134.922 86.0078 134.644 86.071 134.32C86.1319 133.997 86.2311 133.625 86.3754 133.215C86.6934 132.306 87.2346 131.198 88.1006 129.963C87.83 130.053 87.512 130.181 87.167 130.348C85.2659 131.266 82.5641 133.33 82.5641 136.324C82.5641 137.953 83.2587 139.304 84.5419 139.84C84.9276 140.005 85.3696 140.093 85.8612 140.093C87.7466 140.093 89.7492 138.562 89.0433 135.145ZM124.152 93.5569C124.152 93.3201 124.27 93.0856 124.858 92.497L126.038 91.437C126.038 90.8462 125.095 89.9035 124.624 89.6689C124.035 90.023 121.678 92.1429 121.678 94.0282C121.678 94.8536 122.15 96.3849 124.152 96.3849C124.27 96.3849 124.624 96.3849 124.978 96.2654L125.566 94.0282H124.978C124.387 94.0282 124.152 93.911 124.152 93.5569ZM124.152 93.5569C124.152 93.3201 124.27 93.0856 124.858 92.497L126.038 91.437C126.038 90.8462 125.095 89.9035 124.624 89.6689C124.035 90.023 121.678 92.1429 121.678 94.0282C121.678 94.8536 122.15 96.3849 124.152 96.3849C124.27 96.3849 124.624 96.3849 124.978 96.2654L125.566 94.0282H124.978C124.387 94.0282 124.152 93.911 124.152 93.5569ZM113.695 130.817C113.025 130.411 112.387 130.125 111.9 129.963C113.548 132.317 114.02 134.202 114.02 135.145H110.957C110.249 138.562 112.252 140.093 114.137 140.093C114.922 140.093 115.576 139.867 116.09 139.475C116.969 138.81 117.436 137.66 117.436 136.324C117.436 133.763 115.456 131.882 113.695 130.817ZM108.364 121.715L105.066 112.643L102.827 119.241L99.9991 108.283L97.1733 119.241L94.9339 112.643L91.6345 121.715L90.4573 120.89L91.7518 126.78L95.0512 119.241L97.5251 125.955L99.9991 117.708L102.473 125.955L104.947 119.241L108.246 126.78L109.543 120.89L108.364 121.715ZM89.0433 135.145H85.9808C85.9808 134.922 86.0078 134.644 86.071 134.32C86.1319 133.997 86.2311 133.625 86.3754 133.215C86.6934 132.306 87.2346 131.198 88.1006 129.963C87.83 130.053 87.512 130.181 87.167 130.348C85.2659 131.266 82.5641 133.33 82.5641 136.324C82.5641 137.953 83.2587 139.304 84.5419 139.84C84.9276 140.005 85.3696 140.093 85.8612 140.093C87.7466 140.093 89.7492 138.562 89.0433 135.145ZM124.152 93.5569C124.152 93.3201 124.27 93.0856 124.858 92.497L126.038 91.437C126.038 90.8462 125.095 89.9035 124.624 89.6689C124.035 90.023 121.678 92.1429 121.678 94.0282C121.678 94.8536 122.15 96.3849 124.152 96.3849C124.27 96.3849 124.624 96.3849 124.978 96.2654L125.566 94.0282H124.978C124.387 94.0282 124.152 93.911 124.152 93.5569ZM124.152 93.5569C124.152 93.3201 124.27 93.0856 124.858 92.497L126.038 91.437C126.038 90.8462 125.095 89.9035 124.624 89.6689C124.035 90.023 121.678 92.1429 121.678 94.0282C121.678 94.8536 122.15 96.3849 124.152 96.3849C124.27 96.3849 124.624 96.3849 124.978 96.2654L125.566 94.0282H124.978C124.387 94.0282 124.152 93.911 124.152 93.5569ZM113.695 130.817C113.025 130.411 112.387 130.125 111.9 129.963C113.548 132.317 114.02 134.202 114.02 135.145H110.957C110.249 138.562 112.252 140.093 114.137 140.093C114.922 140.093 115.576 139.867 116.09 139.475C116.969 138.81 117.436 137.66 117.436 136.324C117.436 133.763 115.456 131.882 113.695 130.817ZM108.364 121.715L105.066 112.643L102.827 119.241L99.9991 108.283L97.1733 119.241L94.9339 112.643L91.6345 121.715L90.4573 120.89L91.7518 126.78L95.0512 119.241L97.5251 125.955L99.9991 117.708L102.473 125.955L104.947 119.241L108.246 126.78L109.543 120.89L108.364 121.715ZM89.0433 135.145H85.9808C85.9808 134.922 86.0078 134.644 86.071 134.32C86.1319 133.997 86.2311 133.625 86.3754 133.215C86.6934 132.306 87.2346 131.198 88.1006 129.963C87.83 130.053 87.512 130.181 87.167 130.348C85.2659 131.266 82.5641 133.33 82.5641 136.324C82.5641 137.953 83.2587 139.304 84.5419 139.84C84.9276 140.005 85.3696 140.093 85.8612 140.093C87.7466 140.093 89.7492 138.562 89.0433 135.145ZM77.3794 93.911C76.7908 93.911 76.554 93.911 76.554 93.2028C76.554 92.9683 76.6713 92.497 77.0254 92.0256L77.3794 91.5543C77.3794 91.2002 76.4368 90.023 75.9654 89.7862C75.4941 90.1403 74.0801 91.7888 74.0801 93.5569C74.0801 94.7341 74.7882 96.2654 76.554 96.2654C76.6713 96.2654 77.614 96.2654 77.968 96.1481V93.911H77.3794ZM108.364 121.715L105.066 112.643L102.827 119.241L99.9991 108.283L97.1733 119.241L94.9339 112.643L91.6345 121.715L90.4573 120.89L91.7518 126.78L95.0512 119.241L97.5251 125.955L99.9991 117.708L102.473 125.955L104.947 119.241L108.246 126.78L109.543 120.89L108.364 121.715ZM89.0433 135.145H85.9808C85.9808 134.922 86.0078 134.644 86.071 134.32C86.1319 133.997 86.2311 133.625 86.3754 133.215C86.6934 132.306 87.2346 131.198 88.1006 129.963C87.83 130.053 87.512 130.181 87.167 130.348C85.2659 131.266 82.5641 133.33 82.5641 136.324C82.5641 137.953 83.2587 139.304 84.5419 139.84C84.9276 140.005 85.3696 140.093 85.8612 140.093C87.7466 140.093 89.7492 138.562 89.0433 135.145ZM77.3794 93.911C76.7908 93.911 76.554 93.911 76.554 93.2028C76.554 92.9683 76.6713 92.497 77.0254 92.0256L77.3794 91.5543C77.3794 91.2002 76.4368 90.023 75.9654 89.7862C75.4941 90.1403 74.0801 91.7888 74.0801 93.5569C74.0801 94.7341 74.7882 96.2654 76.554 96.2654C76.6713 96.2654 77.614 96.2654 77.968 96.1481V93.911H77.3794ZM77.3794 93.911C76.7908 93.911 76.554 93.911 76.554 93.2028C76.554 92.9683 76.6713 92.497 77.0254 92.0256L77.3794 91.5543C77.3794 91.2002 76.4368 90.023 75.9654 89.7862C75.4941 90.1403 74.0801 91.7888 74.0801 93.5569C74.0801 94.7341 74.7882 96.2654 76.554 96.2654C76.6713 96.2654 77.614 96.2654 77.968 96.1481V93.911H77.3794ZM113.695 130.817C113.025 130.411 112.387 130.125 111.9 129.963C113.548 132.317 114.02 134.202 114.02 135.145H110.957C110.249 138.562 112.252 140.093 114.137 140.093C114.922 140.093 115.576 139.867 116.09 139.475C116.969 138.81 117.436 137.66 117.436 136.324C117.436 133.763 115.456 131.882 113.695 130.817ZM124.152 93.5569C124.152 93.3201 124.27 93.0856 124.858 92.497L126.038 91.437C126.038 90.8462 125.095 89.9035 124.624 89.6689C124.035 90.023 121.678 92.1429 121.678 94.0282C121.678 94.8536 122.15 96.3849 124.152 96.3849C124.27 96.3849 124.624 96.3849 124.978 96.2654L125.566 94.0282H124.978C124.387 94.0282 124.152 93.911 124.152 93.5569ZM124.152 93.5569C124.152 93.3201 124.27 93.0856 124.858 92.497L126.038 91.437C126.038 90.8462 125.095 89.9035 124.624 89.6689C124.035 90.023 121.678 92.1429 121.678 94.0282C121.678 94.8536 122.15 96.3849 124.152 96.3849C124.27 96.3849 124.624 96.3849 124.978 96.2654L125.566 94.0282H124.978C124.387 94.0282 124.152 93.911 124.152 93.5569Z" fill="#500082"/>
<path d="M175.635 75.648C175.518 75.5307 165.268 73.8822 156.315 73.8822C153.913 73.8822 151.582 73.9499 149.329 74.0829C145.61 74.3039 142.107 74.7076 138.878 75.294C141.32 74.5497 146.534 73.0613 150.519 69.4169C153.456 66.7265 155.727 62.8678 155.727 57.2682C155.727 55.3467 155.409 53.7004 154.87 52.3315C151.999 45.0044 142.883 45.5141 142.883 53.3824C142.883 55.1483 142.649 56.5623 142.295 57.7395C139.349 58.8017 133.93 59.7444 131.102 59.9789C130.877 59.9789 126.105 58.5717 122.388 58.4566C122.228 58.4499 122.068 58.4476 121.912 58.4476C120.146 58.4476 115.787 58.919 111.191 59.3903C106.48 59.8616 102.121 60.333 99.9984 60.333C97.8785 60.333 93.5192 59.8616 88.8058 59.3903C84.2571 58.9235 79.9406 58.4566 78.1387 58.4476H78.0846C74.3162 58.4476 69.1315 59.9789 68.8969 59.9789C66.0689 59.7444 60.6497 58.8017 57.7044 57.7395C57.3503 56.5623 57.1135 55.1483 57.1135 53.3824C57.1135 45.5682 48.6452 45.0878 45.4632 51.6166C44.7257 53.1276 44.2724 55.013 44.2724 57.2682C44.2724 63.3437 46.9426 67.3714 50.2397 70.0754C54.1051 73.244 58.832 74.5948 61.121 75.294C58.072 74.7414 54.7771 74.349 51.2861 74.1235C48.8414 73.9611 46.3021 73.8822 43.6838 73.8822C34.7284 73.8822 24.4785 75.5307 24.3613 75.648L22.9473 75.8848L23.5381 77.1793C23.5381 77.2988 25.4212 82.2467 29.1919 87.0774C34.1398 93.7911 40.1499 97.2077 46.5118 97.2077C50.0728 97.2077 53.5368 96.2515 56.6625 94.8939C63.4709 91.9441 68.6714 87.1044 69.7201 86.1347L70.1824 86.9894L71.3709 89.1972C70.78 90.2572 70.3087 91.908 70.3087 93.0852C70.3087 94.8533 71.2717 97.0431 71.4881 97.7986V107.458C71.4881 116.176 74.668 124.423 76.082 130.551C75.2588 133.142 74.3162 134.91 74.3162 138.798C74.3162 144.88 77.7801 149.061 81.6613 150.254C81.7651 150.286 81.8688 150.315 81.9726 150.342V151.405C81.8553 153.996 83.2693 157.767 87.6286 157.767C94.2251 157.767 97.0531 156.941 99.9984 156.941C102.944 156.941 105.772 157.767 112.37 157.767C116.73 157.767 118.144 153.996 118.024 151.405V150.342C118.353 150.254 118.683 150.146 119.005 150.015C122.609 148.57 125.683 144.529 125.683 138.798C125.683 134.91 124.74 133.142 123.915 130.551C125.329 124.423 128.511 116.059 128.511 107.458V97.7986C128.745 96.9732 129.688 93.0852 129.688 92.1425C129.688 90.8458 129.336 90.0227 128.745 89.08L130.214 86.2565L130.277 86.1347C131.359 87.1337 136.848 92.244 143.961 95.16C146.922 96.3733 150.165 97.2077 153.487 97.2077C159.849 97.2077 165.857 93.7911 170.807 87.0774C174.576 82.2467 176.461 77.2988 176.461 77.1793L177.049 75.8848L175.635 75.648ZM130.159 62.4529C132.162 62.3356 137.229 61.5102 141.235 60.4502C140.055 62.4528 138.761 64.3382 137.935 65.3981C140.527 63.7496 145.24 60.333 145.24 52.6743C145.24 47.3769 153.487 48.3714 153.487 57.2682C153.487 57.4463 153.485 57.62 153.478 57.7936C153.404 60.2134 152.811 62.2206 151.918 63.9255C151.304 65.0982 150.546 66.1288 149.716 67.0489C150.896 64.3382 151.719 60.8043 151.248 58.6822C148.302 67.5203 143.003 70.4656 143.003 70.4656C143.003 70.4656 144.886 68.4607 145.123 65.9867C142.295 69.5229 134.519 73.1741 129.688 73.4109C129.099 72.2314 128.511 70.5828 128.511 68.4607C128.511 66.5776 129.099 64.1037 130.159 62.4529ZM67.2461 81.1868C67.2461 81.6581 67.3634 82.1272 67.4829 82.364C64.6572 81.4822 59.8468 80.0682 52.6572 79.4165C50.2509 79.1977 47.5785 79.0646 44.6265 79.0646C41.9157 79.0646 36.8506 79.0646 30.7232 79.6532L52.6369 83.0699C48.3949 84.0125 43.5665 84.4839 39.0877 84.4839C43.0298 86.173 48.5866 86.8924 54.4208 86.2339C54.6892 86.2046 54.9598 86.1708 55.2304 86.1347C55.0342 86.2858 54.7952 86.4482 54.52 86.615C52.6415 87.7629 49.0467 89.1972 45.4496 89.1972C42.2698 89.1972 40.1499 88.8432 37.676 87.666C39.2072 89.1972 41.7985 91.4367 47.1004 91.4367C50.0322 91.4367 52.858 90.7105 55.3296 89.743C59.3191 88.1824 62.3862 85.9904 63.4754 85.192H67.0116C65.7148 86.7188 61.5044 90.3654 56.1077 92.7492C53.1692 94.0482 49.8766 94.9706 46.5118 94.9706C34.9652 94.9706 28.132 81.8927 26.2466 77.6506C29.3092 77.1793 36.8506 76.1194 43.6838 76.1194C46.5163 76.1194 49.2496 76.2073 51.8747 76.39C57.878 76.814 63.3176 77.7431 68.0715 79.3014C67.3634 79.89 67.2461 80.8327 67.2461 81.1868ZM54.8764 65.9867C55.1109 68.4607 56.9962 70.4656 56.9962 70.4656C56.9962 70.4656 51.6943 67.5203 48.749 58.6822C48.2776 60.8043 49.103 64.3382 50.2803 67.0489C49.8518 66.5708 49.4413 66.0657 49.0625 65.5244C47.5605 63.3978 46.5118 60.7434 46.5118 57.2682C46.5118 56.8058 46.5366 56.3616 46.5817 55.9421C47.3846 48.6172 54.7591 47.6362 54.7591 52.6743C54.7591 60.333 59.4702 63.7496 62.0637 65.3981C61.2383 64.3382 59.9415 62.4528 58.7643 60.4502C62.7695 61.5102 67.8347 62.3356 69.8373 62.4529C70.8995 64.1037 71.4881 66.5776 71.4881 68.4607C71.4881 70.5828 70.8995 72.2314 70.3087 73.4109C65.4803 73.1741 57.7044 69.5229 54.8764 65.9867ZM74.5507 114.528C75.3761 111.7 75.8474 109.108 75.9647 106.634C75.1393 107.223 74.4334 107.694 73.7253 107.929V97.0904C73.5133 96.2357 72.6654 95.0878 72.6654 92.8484C72.6654 91.0826 74.0388 88.8702 75.3761 88.02C76.7901 88.8432 80.5586 92.1425 80.5586 97.9158H77.6133C81.1494 100.507 83.0348 102.392 85.0374 107.694C85.1434 89.1499 74.5236 84.3553 71.1882 83.3788C70.8567 83.2796 70.5973 83.221 70.4282 83.1894C70.1914 82.9526 69.7201 82.2467 69.7201 81.3041C69.7201 80.7154 70.0741 80.1246 70.3087 79.8901C70.886 80.0637 71.4521 80.2531 72.0023 80.4584C82.3762 84.3283 88.2172 94.0279 88.2172 107.34C88.2172 116.176 84.566 122.538 80.2067 125.955C81.738 122.421 82.6807 118.416 82.9152 114.882C81.1494 117.002 79.2641 119.241 77.1419 120.064C78.2041 117.002 78.91 113.819 79.0273 111.111C77.7328 112.408 75.9647 113.819 74.5507 114.528ZM112.251 155.41C107.657 155.41 102.944 154.702 99.9984 154.702C97.0531 154.702 92.342 155.41 87.7459 155.41C85.5087 155.41 84.4465 154.113 84.4465 152.465C84.4465 150.225 87.5113 148.694 99.9984 148.694C112.488 148.694 115.55 150.225 115.55 152.465C115.55 154.113 114.49 155.41 112.251 155.41ZM118.311 147.51C117.632 147.742 116.87 147.868 116.022 147.868C112.842 147.868 107.068 145.395 99.9984 145.395C92.9306 145.395 87.1573 147.868 83.9752 147.868C83.4001 147.868 82.8656 147.81 82.3672 147.702C78.2876 146.804 76.7901 142.474 76.7901 138.798C76.7901 131.022 81.738 126.78 87.1573 124.66C88.454 122.892 90.8084 116.059 90.8084 107.34C90.8084 96.7364 87.04 88.7259 81.9726 84.1321C84.0947 84.6034 89.0426 86.252 93.2846 87.666C89.0426 84.9552 84.566 82.2467 80.0872 79.8901L79.7354 78.476L89.3967 83.3067L87.8631 79.536L97.6439 84.9552L93.2846 76.8275L91.7511 78.122L81.738 72.4682L83.5061 76.9448L74.7875 72.5855L75.7302 76.0021L73.608 74.6963L72.6654 74.1167C73.254 72.7027 73.7253 70.8174 73.7253 68.4607C73.7253 66.4581 73.254 63.6323 71.9595 61.6274C73.5516 61.2035 75.7211 60.7772 77.5118 60.6983C77.708 60.6893 77.8997 60.6848 78.0846 60.6848C79.4986 60.6848 83.0348 60.9216 86.6859 61.3929L77.6133 63.6323L90.8084 63.8669L88.9253 66.2235L99.9984 63.161L111.074 66.2235L109.188 63.8669L122.383 63.6323L113.313 61.3929C116.964 60.9216 120.498 60.6848 121.912 60.6848C122.266 60.6848 122.641 60.7006 123.026 60.7321H123.028C124.702 60.8629 126.603 61.2441 128.039 61.6274C126.743 63.6323 126.271 66.4581 126.271 68.4607C126.271 70.8174 126.743 72.7027 127.331 74.1167L126.874 74.3986L124.269 76.0021L125.211 72.5855L116.493 76.9448L118.261 72.4682L108.246 78.122L106.714 76.8275L102.355 84.9552L112.134 79.536L110.602 83.3067L120.264 78.476L119.91 79.8901C115.433 82.2467 110.956 84.9552 106.714 87.666C110.956 86.252 115.667 84.7207 117.907 84.0125C112.959 88.7259 109.188 96.7364 109.188 107.34C109.188 116.059 111.545 122.892 112.842 124.66C118.261 126.78 123.209 131.022 123.209 138.798C123.209 142.262 121.878 146.306 118.311 147.51ZM129.571 83.1894C129.512 83.2007 129.442 83.2142 129.361 83.2322C126.892 83.7938 114.849 87.9524 114.962 107.694C116.964 102.392 118.85 100.507 122.383 97.9158H119.438C119.438 92.1425 123.209 88.8432 124.623 88.02C125.917 88.7259 127.331 90.2572 127.331 91.908C127.331 93.4393 126.508 96.1478 126.271 97.0904V107.929C125.566 107.694 124.857 107.223 124.034 106.634C124.152 109.108 124.623 111.7 125.448 114.528C124.034 113.819 122.266 112.408 120.969 111.111C121.089 113.819 121.795 117.002 122.855 120.064C120.735 119.241 118.85 117.002 117.081 114.882C117.318 118.416 118.261 122.421 119.792 125.955C115.433 122.538 111.78 116.176 111.78 107.34C111.78 93.8024 117.823 83.999 128.527 80.2667C128.908 80.1336 129.296 80.0073 129.688 79.8901C129.925 80.1246 130.277 80.7154 130.277 81.3041C130.277 82.2467 129.805 82.9526 129.571 83.1894ZM153.487 94.9706C150.355 94.9706 147.288 94.1722 144.507 93.0153C138.817 90.6451 134.334 86.7752 132.987 85.192H136.521C137.667 86.0309 140.996 88.4079 145.28 89.9775C147.601 90.8255 150.206 91.4367 152.899 91.4367C158.201 91.4367 160.792 89.1972 162.323 87.666C159.849 88.8432 157.729 89.1972 154.547 89.1972C151.291 89.1972 148.034 88.0223 146.054 86.9466C145.526 86.6602 145.091 86.3828 144.769 86.1347C145.253 86.2001 145.738 86.2565 146.219 86.3016C151.818 86.8383 157.114 86.1121 160.909 84.4839C156.432 84.4839 151.602 84.0125 147.36 83.0699L169.274 79.6532C163.148 79.0646 158.081 79.0646 155.373 79.0646C152.68 79.0646 150.219 79.1751 147.984 79.3623C140.436 79.9848 135.425 81.4552 132.516 82.364C132.633 82.1272 132.753 81.6581 132.753 81.1868C132.753 80.8327 132.633 79.89 131.927 79.3014C136.846 77.689 142.5 76.7486 148.753 76.3471C151.187 76.1938 153.71 76.1194 156.315 76.1194C163.148 76.1194 170.688 77.1793 173.752 77.6506C171.867 81.8927 165.034 94.9706 153.487 94.9706Z" fill="#500082"/>
</svg>
