<?xml version="1.0" encoding="UTF-8"?>
<svg width="200px" height="200px" viewBox="0 0 200 200" version="1.1" xmlns="http://www.w3.org/2000/svg" xmlns:xlink="http://www.w3.org/1999/xlink">
    <!-- Generator: Sketch 54.1 (76490) - https://sketchapp.com -->
    <title>wilmington-de</title>
    <desc>Created with Sketch.</desc>
    <g id="wilmington-de" stroke="none" stroke-width="1" fill="none" fill-rule="evenodd">
        <g id="wilmington-de_BGL" transform="translate(0.000000, 0.000000)">
            <g id="wilmington-de" transform="translate(0.000000, 17.000000)">
                <g id="g10" transform="translate(99.902246, 83.112417) scale(-1, 1) rotate(-180.000000) translate(-99.902246, -83.112417) translate(0.000000, 0.218968)" fill-rule="nonzero">
                    <g id="g12">
                        <path d="M106.9216,68.9505359 L64.3147589,68.9505359 L64.4031264,102.281522 L46.7800575,68.9505359 L4.91139773,68.9505359 L5.13747788,145.960505 C5.11487768,152.930201 5.00199401,153.205861 3.93192561,155.818569 L0,165.420133 L61.1460395,165.420133 L53.9100671,154.589243 C52.5368511,152.534112 52.3573789,151.986311 52.0496566,150.837924 C51.7051795,149.552293 51.5319635,147.662948 51.5350916,145.225021 L51.5347006,145.128442 L51.3923741,133.820916 L68.0516112,165.420133 L111.526879,165.420133 L111.470574,133.447113 L119.112411,148.069596 C120.19941,150.167738 121.12336,152.527073 121.702832,154.690123 C122.023066,155.883867 122.067641,156.214659 121.975755,158.123945 L121.626585,165.420133 L167.691491,165.420133 L153.091687,153.130397 C150.472724,150.9259 149.919058,150.330788 145.739977,142.261189 L145.710651,142.205275 L106.9216,68.9505359" id="path14" fill="#231F20"></path>
                        <path d="M125.878785,144.447699 L105.051415,104.595501 L103.081522,105.081522 L103.1738,157.49677 L72.5501448,157.49677 L44.6588454,104.592373 L42.690517,105.09247 L43.1960889,145.312997 C43.1913968,148.527856 43.4416411,150.973603 43.9835766,152.995109 C44.4477017,154.72766 44.9255121,155.904981 45.8819148,157.49677 L11.5722773,157.49677 C12.6950534,154.422675 12.7921795,152.476634 12.8128247,146.045353 L12.6102832,77.0412493 L41.6238504,77.0412493 L70.1853355,131.061189 L72.1528819,130.570085 L72.0113374,77.0412493 L101.768521,77.0412493 L138.302245,146.035969 C141.840857,152.868422 143.230104,155.222284 145.545646,157.49677 L129.683672,157.49677 C129.727856,155.709869 129.60508,154.566174 129.105764,152.701853 C128.381228,149.998432 127.235578,147.067445 125.878785,144.447699" id="path16" fill="#008350"></path>
                        <path d="M138.302245,146.035969 L101.768521,77.0412493 L72.0113374,77.0412493 L72.1528819,130.570085 L70.1853355,131.061189 L41.6238504,77.0412493 L12.6102832,77.0412493 L12.8128247,146.045353 C12.7921795,152.476634 12.6950534,154.422675 11.5722773,157.49677 L45.8819148,157.49677 C44.9255121,155.904981 44.4477017,154.72766 43.9835766,152.995109 C43.4416411,150.973603 43.1913968,148.527856 43.1960889,145.312997 L42.690517,105.09247 L44.6588454,104.592373 L72.5501448,157.49677 L103.1738,157.49677 L103.081522,105.081522 L105.051415,104.595501 L125.878785,144.447699 C127.235578,147.067445 128.381228,149.998432 129.105764,152.701853 C129.60508,154.566174 129.727856,155.709869 129.683672,157.49677 L145.545646,157.49677 C143.230104,155.222284 141.840857,152.868422 138.302245,146.035969 Z M127.503418,159.585529 L127.555813,158.491101 C127.664122,156.225216 127.613682,155.205861 127.088169,153.242616 C126.401561,150.680348 125.313389,147.898335 124.025803,145.411922 L105.178101,109.347407 L105.266078,159.585529 L71.2903208,159.585529 L44.8336255,109.403321 L45.2848474,145.300876 C45.2809373,148.300681 45.5151504,150.640465 46.0011719,152.454346 C46.5450624,154.485236 47.0912989,155.617591 48.6568903,157.961286 L49.7423252,159.585529 L8.48758532,159.585529 L9.07714542,158.145451 C10.54651,154.557572 10.700293,153.425998 10.723988,146.044962 L10.5151904,74.9524908 L42.8825014,74.9524908 L70.0531752,126.341737 L69.9167138,74.9524908 L103.02639,74.9524908 L140.15288,145.066663 C144.495011,153.451414 145.39941,154.754248 148.948579,157.742323 L151.138217,159.585529 L127.503418,159.585529 L127.503418,159.585529 Z" id="path18" fill="#FFFFFF"></path>
                        <polyline id="path20" fill="#369E6A" points="74.4555211 78.3159316 74.4555211 130.221307 75.9104575 130.221307 75.8694018 78.2694018 74.4555211 78.3159316"></polyline>
                        <path d="M74.8035172,78.6525885 L75.5217967,78.629128 L75.5620704,129.873702 L74.8035172,129.873702 L74.8035172,78.6525885 Z M76.2173979,77.9092845 L74.107525,77.9792747 L74.107525,130.569694 L76.2588446,130.569694 L76.2173979,77.9092845 L76.2173979,77.9092845 Z" id="path22" fill="#369E6A"></path>
                        <path d="M14.9506546,156.254151 L13.369071,156.166565 C13.5784943,155.416223 14.2434796,151.594913 14.2434796,150.494229 L14.2434796,78.4954037 L15.6566174,78.4488739 L15.6973994,150.44809 L15.6877806,150.44809 C15.6903613,150.468422 15.6958745,150.477807 15.6973994,150.494229 C15.8236946,151.855715 14.9506546,156.254151 14.9506546,156.254151" id="path24" fill="#369E6A"></path>
                        <path d="M14.5917494,78.8320606 L15.3088168,78.8086002 L15.3488559,150.100094 L15.3001365,150.100094 L15.3564806,150.562264 C15.4533329,151.628149 14.8572039,154.8868 14.6664317,155.889732 L13.802854,155.841638 C14.0710456,154.587288 14.5917494,151.499116 14.5917494,150.494229 L14.5917494,78.8320606 Z M16.0045353,78.0887566 L13.8954053,78.1587468 L13.8954053,150.494229 C13.8954053,151.571844 13.2276439,155.378686 13.0338218,156.073114 L12.9172626,156.489928 L15.2332352,156.618178 L15.292199,156.321795 C15.3280935,156.140759 16.1696575,151.876829 16.0447308,150.47155 L16.0453173,150.44809 L16.0045353,78.0887566 L16.0045353,78.0887566 Z" id="path26" fill="#369E6A"></path>
                        <polyline id="path28" fill="#369E6A" points="45.9632442 104.026586 73.5796658 156.02111 75.2699883 156.02111 47.7442803 104.026586 45.9632442 104.026586"></polyline>
                        <path d="M46.5423253,104.374582 L47.5347007,104.374582 L74.6916892,155.673114 L73.7888545,155.673114 L46.5423253,104.374582 Z M47.95386,103.67859 L45.3841631,103.67859 L73.3700861,156.369107 L75.8482874,156.369107 L47.95386,103.67859 L47.95386,103.67859 Z" id="path30" fill="#369E6A"></path>
                        <path d="M107.341151,104.491884 L129.443594,146.900094 C130.412118,149.028344 132.086409,155.221501 131.997651,156.02111 L133.758354,156.02111 C133.758354,154.071941 131.293447,146.811727 130.942323,145.749361 C130.567739,144.625216 109.365784,104.582598 109.365784,104.582598 L107.341151,104.491884" id="path32" fill="#369E6A"></path>
                        <path d="M132.326878,155.673114 C132.128638,153.999996 130.599019,148.598628 129.760701,146.755813 L107.929225,104.86686 L109.151121,104.921601 C116.489929,118.782793 130.29247,144.935285 130.611922,145.860016 L130.706546,146.143105 C132.681522,152.069595 133.277416,154.60723 133.389244,155.673114 L132.326878,155.673114 Z M106.753077,104.116908 L129.134699,147.061189 C130.118081,149.222675 131.725119,155.321208 131.652001,155.982792 L131.60899,156.369107 L134.106742,156.369107 L134.106742,156.02111 C134.106742,154.774581 133.184747,151.377122 131.366957,145.922577 L131.273115,145.64027 C130.893447,144.500876 110.539196,106.055911 109.673507,104.419939 L109.580056,104.243986 L106.753077,104.116908 L106.753077,104.116908 Z" id="path34" fill="#369E6A"></path>
                        <path d="M129.83421,87.1894406 C126.671356,83.9346998 124.585334,80.1974565 123.260994,75.2551301 L110.986507,29.4463336 C109.759137,24.8652975 109.589049,23.7802536 110.077808,22.4543494 C110.798824,20.6459428 112.444963,20.0430885 116.423457,20.0430885 L141.135871,20.0430885 C145.113975,20.0430885 147.083476,20.6459428 148.773799,22.4543494 C149.972626,23.7802536 150.384356,24.8652975 151.611335,29.4463336 L163.885822,75.2551301 C165.210553,80.1974565 165.126878,83.9346998 163.708305,87.1894406 L183.719644,87.1894406 C180.55718,83.9346998 178.470768,80.1974565 177.146428,75.2551301 L164.968911,29.8072329 C162.772234,21.6101656 160.468422,17.5113192 155.60156,13.2922382 C150.733525,9.07288345 144.695207,6.78275643 138.185725,6.78275643 L94.9083065,6.78275643 C88.5196459,6.78275643 83.7083068,9.07288345 81.1018553,13.2922382 C78.4950127,17.5113192 78.3878768,21.6101656 80.5845532,29.8072329 L92.76207,75.2551301 C94.0864102,80.1974565 94.0027347,83.9346998 92.5849439,87.1894406 L129.83421,87.1894406" id="path36" fill="#008350"></path>
                        <path d="M171.588856,80.4070361 C171.584856,80.3257067 171.579523,80.2451593 171.574189,80.1638299 C171.607078,80.2451593 171.640411,80.3260977 171.674189,80.4070361 L171.588856,80.4070361 Z M138.185725,0 L94.9083065,0 C86.1591376,0 79.2066451,3.45460793 75.3317674,9.72781989 C71.1788839,16.4480934 71.7560099,23.0651412 74.0332337,31.5632446 L86.2107505,77.0107508 C87.3618746,81.3067428 86.8989226,83.259431 86.3667623,84.4801543 L82.231083,93.9722362 L145.882694,93.9722362 L134.698726,82.462559 C132.326487,80.0215034 130.819547,77.2570851 129.812313,73.4995094 L117.538218,27.690752 C117.479567,27.4737432 117.398629,27.1699309 117.307915,26.8253757 L141.135871,26.8253757 C142.932548,26.8253757 143.591003,26.9809964 143.77243,27.0381225 C143.775949,27.0416416 143.77986,27.0459035 143.784161,27.0502046 C143.796673,27.064711 143.806839,27.0756982 143.813877,27.0846914 C144.115734,27.6758155 144.799996,30.2298722 145.060016,31.2015632 L157.334111,77.0107508 C158.486018,81.3067428 158.022674,83.25904 157.490514,84.4797633 L153.353662,93.9722362 L199.766564,93.9722362 L188.58416,82.46295 C186.21153,80.0211124 184.70459,77.2566941 183.698138,73.4999004 L171.52023,28.0520032 C168.960309,18.4961481 165.956985,13.2927074 160.04418,8.16731162 C153.879957,2.8242619 146.321404,0 138.185725,0 L138.185725,0 Z" id="path38" fill="#231F20"></path>
                        <path d="M152.2694,29.2645545 C151.048677,24.7073699 150.58768,23.3842027 149.203124,21.8532937 C147.305959,19.8225215 145.112411,19.1074091 140.810945,19.1074091 L116.098531,19.1074091 C112.251415,19.1074091 109.825217,19.6066857 108.807817,22.1587873 C108.193546,23.8233034 108.441835,25.1733718 109.67859,29.7907324 L121.953467,75.5999981 C123.082695,79.8134877 124.782011,83.2523928 127.237924,86.2537613 L93.7235558,86.2537613 C94.709284,83.0971631 94.6056672,79.4987272 93.4201345,75.0733119 L81.2422267,29.6258057 C79.1104575,21.6688167 79.2078182,17.8494619 81.6426177,13.9080739 C84.0781993,9.96516104 88.5532725,7.88109462 94.5837709,7.88109462 L137.860407,7.88109462 C144.092665,7.88109462 149.884649,10.0461386 154.609967,14.1423652 C159.304786,18.2123554 161.504199,22.1024432 163.660993,30.1524137 L175.83851,75.5999981 C176.967738,79.8134877 178.667053,83.2520018 181.123358,86.2537613 L164.847308,86.2537613 C165.833036,83.0975541 165.72981,79.4987272 164.544277,75.0733119 L152.2694,29.2645545" id="path40" fill="#008350"></path>
                        <path d="M137.860407,7.88109462 L94.5837709,7.88109462 C88.5532725,7.88109462 84.0781993,9.96516104 81.6426177,13.9080739 C79.2078182,17.8494619 79.1104575,21.6688167 81.2422267,29.6258057 L93.4201345,75.0733119 C94.6056672,79.4987272 94.709284,83.0971631 93.7235558,86.2537613 L127.237924,86.2537613 C124.782011,83.2523928 123.082695,79.8134877 121.953467,75.5999981 L109.67859,29.7907324 C108.441835,25.1733718 108.193546,23.8233034 108.807817,22.1587873 C109.825217,19.6066857 112.251415,19.1074091 116.098531,19.1074091 L140.810945,19.1074091 C145.112411,19.1074091 147.305959,19.8225215 149.203124,21.8532937 C150.58768,23.3842027 151.048677,24.7073699 152.2694,29.2645545 L164.544277,75.0733119 C165.72981,79.4987272 165.833036,83.0975541 164.847308,86.2537613 L181.123358,86.2537613 C178.667053,83.2520018 176.967738,79.8134877 175.83851,75.5999981 L163.660993,30.1524137 C161.504199,22.1024432 159.304786,18.2123554 154.609967,14.1423652 C149.884649,10.0461386 144.092665,7.88109462 137.860407,7.88109462 Z M161.829908,88.2885608 L162.450827,86.864514 C163.78025,83.8154427 163.820524,80.2361661 162.578295,75.5999981 L150.303809,29.7907324 C149.097161,25.2863728 148.731179,24.3647697 147.705177,23.2300678 C146.246331,21.6688167 144.506741,21.1417004 140.810945,21.1417004 L116.098531,21.1417004 C112.151708,21.1417004 111.155813,21.7642614 110.707329,22.8876632 C110.32727,23.9183181 110.467641,24.8715536 111.644572,29.2645545 L123.919058,75.0733119 C125.176927,79.768522 127.185139,83.4189617 130.238902,86.5622657 L131.916321,88.2885608 L90.7069381,88.2885608 L91.3274659,86.864514 C92.6561072,83.8146607 92.6967719,80.2353841 91.4545432,75.5999981 L79.2770264,30.1524137 C77.0013666,21.6594716 77.1612884,17.2907523 79.9112394,12.8390613 C82.6967721,8.32997047 87.9077202,5.84676427 94.5837709,5.84676427 L137.860407,5.84676427 C144.589244,5.84676427 150.842225,8.18381211 155.942909,12.6049264 C160.932156,16.9298138 163.375558,21.2251021 165.626584,29.6258057 L177.804492,75.0733119 C179.062361,79.7681309 181.070181,83.4185707 184.124727,86.5622657 L185.802146,88.2885608 L161.829908,88.2885608 L161.829908,88.2885608 Z" id="path42" fill="#FFFFFF"></path>
                        <path d="M98.5759506,84.4774172 L96.993155,84.4774172 C97.0052762,83.716909 97.4819135,79.7059609 97.2093817,78.6701838 L81.7321583,20.8336261 C81.7321583,20.8336261 81.5057653,18.2346819 82.5227741,17.555894 L98.5673485,78.2647097 L98.5583553,78.2670557 C98.5673485,78.285433 98.5736046,78.2936442 98.5790787,78.3077204 C99.0361657,79.5601153 98.5759506,84.4774172 98.5759506,84.4774172" id="path44" fill="#369E6A"></path>
                        <path d="M82.0676421,20.7754443 C82.0097731,20.0574384 82.060213,18.945806 82.3651983,18.2862948 L98.1517082,78.0191574 L98.0750709,78.0383167 L98.254934,78.4187664 C98.5892448,79.3259022 98.3956965,82.6052765 98.2654912,84.1384143 L97.3509262,84.1384143 C97.3673485,83.9057653 97.3931549,83.6003889 97.4216984,83.2672511 C97.5945235,81.2242404 97.7333309,79.3290303 97.5374365,78.5841623 L82.0676421,20.7754443 Z M82.7292257,17.0103222 L82.3346998,17.273939 C81.1835757,18.0419155 81.3693039,20.5767346 81.3943284,20.8629516 L81.4044945,20.9216026 L96.881718,78.7577693 C97.0639272,79.4502424 96.8649047,81.8037125 96.7456476,83.2097731 C96.6963808,83.7915913 96.6576711,84.2510243 96.654152,84.4719431 L96.6482869,84.8164202 L98.884846,84.8164202 L98.9133895,84.5090888 C98.9610923,83.9992159 99.3653934,79.4971632 98.9004863,78.1998025 L98.8954032,78.1779062 L82.7292257,17.0103222 L82.7292257,17.0103222 Z" id="path46" fill="#369E6A"></path>
                        <path d="M169.115929,84.3651983 L167.532743,84.3651983 C167.544864,83.60469 168.021892,79.5933509 167.748578,78.5579648 L152.724923,22.8696377 C152.724923,22.8696377 154.760113,25.5824041 155.211335,26.6002339 L169.106936,78.1520997 L169.098725,78.1544457 C169.106936,78.1732141 169.113192,78.1810342 169.118666,78.1955015 C169.575753,79.4478964 169.115929,84.3651983 169.115929,84.3651983" id="path48" fill="#369E6A"></path>
                        <path d="M167.890514,84.0258044 C167.906936,83.7935463 167.933134,83.488561 167.961286,83.1558141 C168.134111,81.1124124 168.27331,79.2164203 168.076633,78.4711613 L153.533525,24.5657863 C154.077807,25.3415047 154.668618,26.2267833 154.891101,26.7147598 L168.692469,77.9178866 L168.643202,77.9319629 L168.810162,78.3358729 C169.130006,79.2156383 168.935284,82.4930576 168.80547,84.0258044 L167.890514,84.0258044 Z M152.995891,22.6663142 L152.397259,22.9580444 L167.421306,78.6463323 C167.603906,79.3380234 167.404492,81.6922756 167.285235,83.0987272 C167.235968,83.6797633 167.197259,84.1388053 167.19374,84.3597242 L167.187875,84.7042012 L169.424825,84.7042012 L169.453368,84.3964788 C169.501071,83.8866059 169.905763,79.3822072 169.439683,78.0860196 L169.434209,78.0637322 L155.532352,26.4867247 L155.521404,26.4629123 C155.060016,25.4217002 153.080348,22.7781421 152.995891,22.6663142 L152.995891,22.6663142 Z" id="path50" fill="#369E6A"></path>
                        <polyline id="path52" fill="#231F20" points="187.690318 76.0359707 186.248676 76.0359707 186.248676 76.5564008 189.758744 76.5564008 189.758744 76.0359707 188.309673 76.0359707 188.309673 71.815443 187.690318 71.815443 187.690318 76.0359707"></polyline>
                        <path d="M194.26979,73.8971634 C194.234599,74.5587469 194.192371,75.3603109 194.192371,75.9444751 L194.178294,75.9444751 C194.00977,75.3955015 193.819741,74.7976521 193.580445,74.1434977 L192.743299,71.8432045 L192.279174,71.8432045 L191.505763,74.1012689 C191.280543,74.7761467 191.09716,75.3818163 190.963827,75.9444751 L190.94936,75.9444751 C190.935675,75.3532728 190.900093,74.565394 190.858255,73.8478965 L190.731569,71.815443 L190.147405,71.815443 L190.478588,76.5564008 L191.259428,76.5564008 L192.06803,74.2631457 C192.265098,73.6797636 192.419937,73.1589425 192.546232,72.6662738 L192.560699,72.6662738 C192.686994,73.1444752 192.8563,73.6649053 193.067053,74.2631457 L193.911237,76.5564008 L194.691686,76.5564008 L194.987287,71.815443 L194.3824,71.815443 L194.26979,73.8971634" id="path54" fill="#231F20"></path>
                    </g>
                </g>
            </g>
        </g>
    </g>
</svg>