<?xml version="1.0" encoding="UTF-8"?>
<svg width="200px" height="200px" viewBox="0 0 200 200" version="1.1" xmlns="http://www.w3.org/2000/svg" xmlns:xlink="http://www.w3.org/1999/xlink">
    <!-- Generator: Sketch 54.1 (76490) - https://sketchapp.com -->
    <title>wilson</title>
    <desc>Created with Sketch.</desc>
    <g id="wilson" stroke="none" stroke-width="1" fill="none" fill-rule="evenodd">
        <g id="wilson_BGL">
            <g id="wilson" transform="translate(0.000000, 1.000000)">
                <g id="g10" transform="translate(99.809521, 99.545753) scale(-1, 1) rotate(-180.000000) translate(-99.809521, -99.545753) translate(0.000000, 0.426982)" fill-rule="nonzero">
                    <g id="g12">
                        <path d="M171.559615,121.429492 C170.995805,124.230893 170.198853,127.074535 169.142853,129.956451 C171.236567,128.783495 173.231234,126.833905 175.068948,124.398175 L175.059805,121.10484 L175.084186,118.976531 C173.951996,119.778173 172.783234,120.589575 171.559615,121.429492 L171.559615,121.429492 Z M58.2107414,150.102418 C57.5535224,139.254097 45.0595036,129.642473 35.3190086,123.078218 C35.2178277,123.264104 35.1166467,123.438553 35.0148563,123.64411 L33.7827039,125.494887 L25.8310089,126.422943 L24.1869708,124.089687 C24.0857899,123.875286 23.9862851,123.666221 23.8875423,123.460054 L23.8797708,126.726704 L21.6220947,127.023298 C33.0226277,135.161864 49.7863607,139.470328 58.2107414,150.102418 L58.2107414,150.102418 Z M88.2166835,135.488346 C88.0178264,130.608043 86.1433883,126.259016 83.3749312,122.315766 C81.4232361,122.363496 79.8000742,122.409853 78.16076,122.467037 C81.9577884,126.111405 85.3785883,130.317396 88.2166835,135.488346 L88.2166835,135.488346 Z M132.804111,185.443597 C136.744682,188.391237 139.044111,184.729942 134.530282,181.675559 C131.613711,180.158279 128.515502,179.677934 125.217825,179.793827 C128.369673,181.018325 130.155425,183.468846 132.804111,185.443597 L132.804111,185.443597 Z M129.502321,121.994164 C127.148187,121.05833 125.06194,119.83063 123.265521,118.381361 C127.110702,123.807885 129.545292,130.384034 130.06613,138.254675 C130.981482,132.230083 130.696987,126.863641 129.502321,121.994164 Z M193.327233,129.323768 C192.521138,142.940095 187.410281,155.657644 174.462472,162.127812 C158.226282,170.244877 138.90712,164.602732 130.464911,148.127819 C130.092797,162.263529 150.198853,196.831581 167.960377,192.366662 C164.405329,200.678915 154.994282,197.226531 149.119692,193.790922 C146.543996,192.279742 144.072073,190.555076 141.780416,188.644371 C141.993444,188.824309 133.804187,190.580999 132.298206,190.193673 C122.52434,187.666907 111.372645,163.141873 101.249369,177.355505 C102.130283,168.559858 108.902397,164.325199 117.042283,167.4848 C115.332721,154.690854 102.378512,146.948916 90.9892549,143.78291 C111.381483,191.085742 54.4649129,183.790601 30.5535992,164.63323 C19.3255614,155.63477 12.6136835,142.556429 10.0654778,128.603556 C8.89523787,128.777548 7.64405314,128.965721 6.17321127,129.191559 L0,130.135627 L0,120.013008 L2.3577447,118.416586 C2.8505904,118.084157 2.91369136,118.041307 4.46250656,114.735925 L4.66130274,114.313069 C6.77083412,109.690627 8.42381693,106.133941 9.98572166,102.869731 C10.0184531,102.683235 10.0369064,102.494452 10.0714359,102.309176 C10.0535769,102.464106 10.0535769,102.60577 10.038095,102.75948 C11.0452416,100.65679 12.0172645,98.6702972 13.0470244,96.6014597 C6.53511603,77.500205 12.7880987,55.1121718 25.8255232,37.5733339 C19.2583614,53.7153596 20.1243424,70.5309354 28.369066,83.9799803 C27.2833517,81.548978 26.6756565,78.7928662 26.6756565,75.820523 C26.6756565,64.9346896 33.5041515,60.0621632 40.2713895,60.0621632 C41.9082656,60.0621632 43.6309322,60.3224644 45.3929132,60.8336123 C47.645256,61.4887111 49.7851416,62.5204613 51.7243416,63.4901478 L58.0661319,46.245769 L61.703008,47.0391766 C64.4934079,47.6466984 67.3660936,48.1857521 70.2982078,48.6670118 C65.6131031,32.0307647 69.8762649,13.7604761 81.123198,0 C73.0392363,20.3544209 81.846398,38.6122511 96.9030071,51.0867298 C98.3815594,51.1193627 99.8631594,51.1449811 101.357712,51.1449811 L101.423236,51.1449811 C107.90415,51.1449811 114.222626,50.8204815 120.335692,50.2318685 C115.060111,44.8793023 109.942854,40.293763 105.689902,36.649547 C113.356492,39.1060151 122.274435,43.2810503 131.052949,48.89468 C134.482739,48.3603536 137.832682,47.7450547 141.071996,47.0391766 L144.71192,46.2408893 L150.557101,62.1470122 C155.786663,60.7662115 158.796187,59.8346475 164.315424,57.9166231 L170.911996,55.6233197 L171.427043,86.7510361 L177.791996,86.7670476 L177.814853,94.2634766 C180.259043,92.2817111 187.590091,86.7580507 187.590091,86.7580507 L196.207233,86.7580507 L196.220947,116.793326 C196.220947,117.535039 196.242281,118.041307 196.266662,118.383191 L198.631614,119.663348 L198.631614,130.135627 L193.327233,129.323768 L193.327233,129.323768 Z" id="path14" fill="#263D96"></path>
                        <path d="M101.399464,68.294206 L101.399464,68.294206 L101.396417,68.294206 C101.395197,68.294206 101.392912,68.294206 101.392912,68.294206 C101.38575,68.294206 101.38575,68.294206 101.382093,68.294206 L101.382093,68.294206 C85.3374455,68.2794144 70.1095602,66.5411761 56.3190843,63.3901141 L60.7940556,51.2164991 C73.1524553,53.9078025 86.8940169,55.4189825 101.357712,55.4189825 L101.423236,55.4189825 C115.884492,55.4189825 129.624378,53.9078025 141.985673,51.2164991 L146.458968,63.3901141 C132.670168,66.5411761 117.444111,68.2794144 101.399464,68.294206" id="path16" fill="#A7A5A6"></path>
                        <path d="M64.1130651,62.3882521 L64.7779031,58.5044736 L65.3833127,58.6069472 C66.7535221,58.8440698 67.1017126,59.5124353 66.8905126,60.7514199 C66.7154269,61.7746306 66.1351603,62.7337954 64.7203031,62.493623 L64.1130651,62.3882521 Z M64.8786269,57.9106759 L65.4809888,54.3854025 L66.7631221,54.0537358 L62.8536365,53.3865902 L63.951846,54.1293711 L62.5869699,62.127341 L61.3005699,62.4657172 L64.3131412,62.9779325 C66.5601507,63.3609885 68.216684,62.7426398 68.5017888,61.0699724 C68.7452935,59.6403748 67.9577888,58.4360054 65.3939793,57.9994254 L64.8786269,57.9106759 L64.8786269,57.9106759 Z" id="path18" fill="#FFFFFF"></path>
                        <path d="M78.8774076,64.4224743 L77.7542076,64.855547 L81.5381313,65.2623915 L80.3964932,64.5844191 L81.2649123,56.517981 L82.5249503,56.1009197 L78.7387409,55.6959051 L79.743998,56.3552737 L79.3095599,60.3958123 C79.003579,60.2509464 78.5558838,60.1484728 78.1042266,60.1027257 C77.6280362,60.0472192 77.3065124,60.058046 76.8845695,60.1365786 L77.3214457,56.0902453 L78.4202647,55.6602224 L74.6357315,55.252158 L75.7773695,55.9270806 L74.9077315,63.9977884 L73.6487601,64.41058 L77.4351219,64.8215417 L76.4518076,64.1621731 L76.8143219,60.8020468 C77.1178647,60.7514199 77.5327981,60.7126874 78.0321504,60.7662115 C78.5302838,60.8227855 78.8208742,60.9061977 79.2374837,61.0629579 L78.8774076,64.4224743" id="path20" fill="#FFFFFF"></path>
                        <path d="M90.3297501,65.421439 C89.6714644,65.3892635 89.118474,64.0609195 89.2583597,61.1730559 C89.3988549,58.2472223 90.1005692,57.0045779 90.7381311,57.0373633 C91.4445691,57.0707587 92.0196548,58.3585403 91.8785501,61.3029778 C91.7363787,64.2437555 91.060112,65.4589516 90.3297501,65.421439 L90.3297501,65.421439 Z M87.4566073,61.0867464 C87.3374454,63.5616658 88.4559216,65.9342643 90.301712,66.025911 C92.142931,66.1111531 93.5475786,64.0424681 93.6786262,61.3874575 C93.7939786,58.9672821 92.7023215,56.5435994 90.7660168,56.4495128 C88.854093,56.3552737 87.5719597,58.7319893 87.4566073,61.0867464 L87.4566073,61.0867464 Z" id="path22" fill="#FFFFFF"></path>
                        <path d="M101.842283,61.355892 L101.814855,57.4382606 L104.211959,57.4216392 C104.30415,57.8153694 104.768455,59.088207 105.802969,60.0395947 L105.845788,60.0395947 L105.823845,56.8633718 L99.055388,56.9092714 L100.265445,57.448325 L100.318474,65.5673723 L99.1119213,66.1248773 L105.476721,66.0783677 L105.455997,63.025662 L105.408302,63.0267295 C105.045178,63.3306429 104.164264,64.6100375 104.054093,65.5423639 L101.868493,65.5571554 L101.842283,61.9295609 L103.030397,61.9194965 C103.146359,62.3149042 103.586893,63.0088881 103.951845,63.2859632 L104.04114,63.2859632 L104.021483,59.8178736 L103.930969,59.8178736 C103.56495,60.0531663 103.137521,60.9348659 103.026131,61.3458276 L101.842283,61.355892" id="path24" fill="#FFFFFF"></path>
                        <polyline id="path26" fill="#FFFFFF" points="116.604797 60.3224644 116.649445 60.3212445 116.943997 65.0330459 115.999388 65.6305033 119.118473 65.4362305 117.991616 64.9705248 117.447007 56.2767411 116.561978 56.3374323 113.863616 64.005413 113.816073 64.0102927 113.389254 57.1076614 114.557102 56.4870254 111.122588 56.699597 112.362511 57.1714024 112.868416 65.277183 111.695845 65.8979715 114.654169 65.7102558 116.604797 60.3224644"></polyline>
                        <polyline id="path28" fill="#FFFFFF" points="126.134549 56.0117128 127.274359 55.3296231 123.330892 55.7793174 124.594587 56.1873817 125.505368 64.2538198 124.365406 64.9328597 128.307197 64.4909424 127.045178 64.0828781 126.134549 56.0117128"></polyline>
                        <polyline id="path30" fill="#FFFFFF" points="138.723806 54.1918921 139.997558 53.3865902 136.177978 54.0262875 137.21493 54.2931458 136.280378 57.512676 136.229787 57.519843 134.628568 54.8559879 135.750549 54.0994829 132.330968 54.6743718 133.500644 55.0330293 135.845787 58.7874958 134.521444 63.1357601 133.548187 63.8178497 137.191006 63.2031609 136.018435 62.8291019 136.801216 60.0842744 136.850587 60.0800046 138.448758 62.5758153 137.592835 63.1357601 140.539273 62.6372689 139.450054 62.3376253 137.199997 59.0060146 138.723806 54.1918921"></polyline>
                        <path d="M50.0987416,68.5354458 C48.062475,67.5097952 45.9715036,66.4507493 43.8963799,65.8461248 C36.8030467,63.7832344 32.038704,67.5151324 32.038704,75.6787069 C32.038704,83.2853864 37.0648372,88.5528629 43.7493322,88.5528629 C46.6047988,88.5528629 48.4100559,87.8004752 49.0898273,87.8064223 C49.416075,87.8064223 49.7083416,87.9285672 49.9059797,88.0238737 C50.2054083,88.0238737 50.3547416,88.0238737 50.6523416,88.0275334 C50.6113511,85.7543588 50.5951987,84.6166278 50.5571035,82.3501627 C50.3244178,82.3311014 50.207694,82.3222569 49.9737892,82.305483 C49.1119226,82.9744585 47.3482655,83.9293535 44.6940941,83.7678661 C40.8149323,83.5325734 38.2767229,80.491762 38.2488371,76.3893123 C38.2201895,72.2185469 40.6195799,69.9156366 44.7238084,70.8418634 C47.4172941,71.4464879 48.8851797,72.9445537 50.1261702,74.0406549 C50.3850654,74.0859445 50.5130654,74.1091231 50.7715035,74.1585299 C50.5030083,71.9230204 50.3666273,70.8002335 50.0987416,68.5354458" id="path32" fill="#FFFFFF"></path>
                        <path d="M63.9190841,74.3622571 C67.2356555,74.8424495 69.9559602,77.3394801 70.0124935,79.9972355 C70.0714649,82.7313887 67.4869316,84.8555803 64.1411032,84.7299281 C60.8606461,84.6006163 58.1226652,82.1751037 58.0559224,78.8781084 C57.9910081,75.6924311 60.6660556,73.8976188 63.9190841,74.3622571 L63.9190841,74.3622571 Z M51.7767606,78.1763475 C51.8779416,83.9990416 56.6316176,88.5528629 64.2255222,88.5528629 C71.7208363,88.5528629 76.4190457,84.9402124 76.3363029,80.4440325 C76.2506648,75.9355008 71.4791601,71.9385744 63.7386651,70.5249883 C56.288151,69.1699584 51.6737511,72.3847614 51.7767606,78.1763475 L51.7767606,78.1763475 Z" id="path34" fill="#FFFFFF"></path>
                        <path d="M76.2881505,73.3019913 C77.4744362,73.7493982 77.9428552,74.3235246 77.9702838,75.8365345 C78.0368742,79.4581819 78.0684171,81.2738853 78.13516,84.8966002 C78.1702076,86.8593043 77.7892552,87.2960369 76.5302838,87.6504246 C76.5321124,87.8488147 76.5380552,87.9482384 76.5417124,88.1429687 C80.3696742,88.1566928 82.2832741,88.1609625 86.1148931,88.1675196 C86.1101693,87.979194 86.1101693,87.8857173 86.1077312,87.6980016 C84.7715026,87.350781 84.4089884,86.920758 84.3821693,85.0324691 C84.342855,82.0553987 84.3190836,80.5631275 84.2809884,77.5907843 C84.2719979,77.14109 84.5267788,76.750867 85.5452931,76.8045437 C86.6869312,76.8670647 87.2565312,76.894513 88.396493,76.9414801 C90.5298263,77.0344992 91.6190453,77.6682494 91.851731,78.1722302 C92.1398834,78.1841245 92.2832739,78.1864118 92.5708167,78.1912915 C92.338131,76.5096272 92.2160739,75.6668127 91.9850644,73.9787437 C85.6905121,73.7535154 82.5429313,73.5163928 76.280379,72.8016702 C76.2851029,73.0041775 76.2869314,73.099484 76.2881505,73.3019913" id="path36" fill="#FFFFFF"></path>
                        <path d="M92.9136739,74.4694579 C94.1011786,74.7977698 94.5660929,75.303428 94.5695976,76.7151843 C94.5874262,80.0914746 94.5958072,81.7754263 94.6107405,85.146837 C94.6201881,86.9742821 94.2303976,87.3882936 92.9702072,87.7170629 C92.9702072,87.9017288 92.9702072,87.994748 92.9702072,88.1757541 C96.8012166,88.1794139 98.7178642,88.1817012 102.545216,88.1794139 C102.545216,87.9959679 102.545216,87.9053886 102.545216,87.7201127 C101.216607,87.3882936 100.85775,86.9814492 100.863693,85.1587312 C100.865521,82.2935887 100.867197,80.8610938 100.874969,78.0018984 C100.874969,77.5628785 101.137521,77.1744854 102.155426,77.1589314 C103.297064,77.150087 103.869712,77.1357529 105.006474,77.1130318 C107.146359,77.0672847 108.217902,77.6295168 108.444035,78.1257207 C108.734473,78.1167237 108.877407,78.1119965 109.169064,78.1001023 C108.961978,76.4202678 108.854702,75.574556 108.646397,73.8976188 C102.357788,74.1884181 99.2018261,74.2103767 92.9112358,74.0109192 C92.9136739,74.1955851 92.9136739,74.2878418 92.9136739,74.4694579" id="path38" fill="#FFFFFF"></path>
                        <path d="M109.573788,74.3175775 C110.753521,74.5547001 111.20594,75.0330625 111.18994,76.4786717 C111.152454,79.918703 111.130359,81.6383374 111.091654,85.0771488 C111.069102,87.0488499 110.512454,87.4520346 109.439845,87.7088285 C109.439845,87.8957817 109.435121,87.9851411 109.435121,88.1716369 C115.88754,88.1656897 119.116645,88.1566928 125.567844,88.1347342 C125.601825,86.41144 125.616606,85.5477343 125.652416,83.82444 C125.369597,83.8340469 125.220873,83.8399941 124.935159,83.8482286 C124.469635,84.4409588 124.170206,84.7524967 122.642283,84.7930592 C120.52434,84.8519205 119.463616,84.8824186 117.339883,84.9270983 C117.357711,83.9799803 117.369597,83.5057351 117.383311,82.5634968 C118.595807,82.5217144 119.198778,82.4997558 120.411273,82.449129 C122.792226,82.3501627 123.071997,82.6658179 123.548187,83.4021941 C123.831006,83.3866401 123.976835,83.3837427 124.262549,83.371696 C124.307197,81.2160915 124.327921,80.1402716 124.369673,77.9875643 C124.083959,78.0107429 123.941025,78.0214172 123.652416,78.0423084 C123.286245,78.5754149 122.982702,78.9865291 121.057216,79.1097413 C119.609597,79.2050478 118.881521,79.2497275 117.429178,79.33009 C117.444111,78.5606233 117.45173,78.1722302 117.463616,77.4061184 C117.470778,76.9474272 117.741711,76.5145069 118.756568,76.4382617 C120.140492,76.3310609 120.836873,76.2743345 122.223845,76.1523422 C124.348797,75.9605092 125.411349,76.513287 125.63154,77.0457835 C125.917254,77.0189452 126.05714,77.0088808 126.345902,76.9791452 C126.160149,75.128369 126.069025,74.2032096 125.884492,72.3704273 C119.381483,73.2222388 116.116721,73.5212725 109.579731,73.8530916 C109.573788,74.037605 109.577902,74.1287943 109.573788,74.3175775" id="path40" fill="#FFFFFF"></path>
                        <path d="M148.976758,69.2216527 C147.092873,68.8404266 144.082739,68.6694849 140.095844,69.5065048 C132.675044,71.0640419 127.791083,74.8121039 127.68213,79.973447 C127.583997,84.6613075 132.012492,88.5528629 139.607768,88.5528629 C142.62552,88.5528629 144.679158,87.851102 145.297063,87.8451549 C145.652415,87.8451549 145.97973,87.9482384 146.104834,88.0394277 C146.366625,88.0357679 146.496453,88.0357679 146.75352,88.0334806 C146.795273,85.7365174 146.81493,84.5899419 146.851806,82.2966386 C146.592911,82.3163098 146.467806,82.3222569 146.206015,82.3413182 C145.222549,83.2454339 143.839844,84.326591 140.271387,84.4874684 C136.05592,84.6793013 133.920301,82.9000431 133.990549,79.5493712 C134.060187,76.4507659 136.188035,74.1753039 139.69112,73.6034648 C140.726854,73.433133 141.755425,73.552838 142.719692,73.7160028 C142.707806,74.4105966 142.701711,74.7483629 142.689825,75.4434142 C142.646396,77.6670295 141.955958,78.0525253 140.976758,78.4038632 C140.973863,78.6428157 140.972644,78.7613007 140.966701,79.0013206 C144.118396,78.660657 145.688073,78.4772111 148.83093,78.0769237 C148.890511,74.5321315 148.91733,72.7600403 148.976758,69.2216527" id="path42" fill="#FFFFFF"></path>
                        <path d="M150.247615,68.2894788 C151.396415,68.4235178 151.83573,69.0447638 151.806015,71.1195484 C151.73272,76.0886012 151.697063,78.5706877 151.625596,83.5373006 C151.583996,86.3817044 151.021406,86.9742821 149.950015,87.350781 C149.941025,87.6158093 149.941025,87.747561 149.941025,88.0138093 C156.387044,87.9703495 159.615996,87.9453411 166.063234,87.8886147 C166.063234,85.146837 166.063234,83.7834201 166.063234,81.03966 C165.779805,81.0701581 165.638091,81.0783926 165.354663,81.1082807 C164.902091,82.0679029 164.612567,82.5563297 163.093329,82.6748148 C160.991996,82.8385895 159.940567,82.9131573 157.834663,83.0638178 C157.846853,81.6342202 157.854472,80.9176677 157.866663,79.4850202 C159.065901,79.3480838 159.66171,79.2771758 160.857901,79.1275827 C163.207615,78.8393758 163.491044,79.3230754 163.974091,80.4559267 C164.254472,80.4261911 164.393139,80.4089597 164.679615,80.3815114 C164.690282,76.9791452 164.690282,75.2765897 164.699424,71.8801706 C164.41752,71.9439116 164.280377,71.9785269 163.998472,72.0361683 C163.647996,72.9029238 163.353901,73.5700694 161.464377,73.9322342 C160.04571,74.2032096 159.337139,74.3355713 157.910853,74.5916027 C157.923044,73.4271859 157.929139,72.8481798 157.936758,71.6817806 C157.944377,70.9877967 158.20952,70.3028097 159.196948,70.0615699 C160.553139,69.7369178 161.223615,69.5642986 162.575234,69.2175354 C164.639996,68.6844289 165.688377,69.455878 165.910853,70.2880182 C166.18971,70.21833 166.331424,70.1867645 166.610282,70.1158565 C166.393901,67.1845332 166.288758,65.7299271 166.075424,62.8438934 C159.80952,65.0222191 156.636948,65.9752842 150.253558,67.6319401 C150.250663,67.8981883 150.250663,68.0250604 150.247615,68.2894788" id="path44" fill="#FFFFFF"></path>
                        <path d="M9.5386969,116.542632 C7.63393505,120.602689 7.21488744,121.609278 5.36249891,122.862597 C5.36249891,123.272491 5.36249891,123.476676 5.36249891,123.88718 C10.6232074,123.081878 13.255954,122.708277 18.5292186,122.016733 C18.5302853,121.630169 18.5308948,121.437726 18.5327233,121.051773 C17.8369519,120.964854 17.23459,120.552672 17.2350472,119.802114 C17.2362662,118.964637 17.9827805,116.933922 18.5423233,115.558001 C19.9244185,111.935134 20.6191233,110.157705 22.0041137,106.640209 C24.8159994,112.870357 26.2214089,115.88555 29.0279612,121.77961 C29.5291421,121.720139 29.7820945,121.69269 30.285104,121.635507 C33.5422468,115.062407 35.1702848,111.890454 38.43398,105.709865 C39.8940942,108.857267 40.6273514,110.40901 42.0868561,113.481996 C42.5951989,114.610273 43.4684942,116.262049 43.4666656,116.821994 C43.4625513,117.860149 42.997637,118.178244 42.3910085,118.47255 C42.3899418,118.825718 42.3893323,119.002759 42.3875037,119.355317 C47.3433893,118.899676 49.8250654,118.696559 54.7875034,118.339731 C54.7887224,118.000135 54.7899415,117.829803 54.7916177,117.49036 C52.6023606,116.907694 52.3207606,116.438328 50.3309702,112.922662 C45.7036179,104.585248 43.396418,100.305909 38.7696752,91.3524345 C38.4530276,91.3524345 38.2934848,91.3524345 37.9768371,91.3524345 C34.7684563,97.5098451 33.163123,100.672801 29.9577897,107.209151 C27.0185136,101.047013 25.5487994,97.8822267 22.6023613,91.3524345 C22.2488375,91.3524345 22.0702471,91.3524345 21.7148947,91.3524345 C16.8286472,100.907027 14.3910701,105.907645 9.5386969,116.542632" id="path46" fill="#FFFFFF"></path>
                        <path d="M56.0857891,92.8941126 C57.9940557,93.5010245 58.5023985,94.2634766 58.4911223,97.5581845 C58.4702462,103.534436 58.45897,106.523554 58.4374843,112.498586 C58.424989,115.869539 57.9078081,116.659287 55.9922272,117.405727 C55.9916176,117.744104 55.9916176,117.916723 55.9910081,118.255099 C61.4947032,117.870366 64.2488365,117.708878 69.7564935,117.446747 C69.7583221,117.117978 69.7583221,116.954203 69.7595411,116.624214 C67.8953126,116.111999 67.3839221,115.386449 67.3939793,112.081067 C67.4130269,106.22147 67.4238459,103.296246 67.4404555,97.4360397 C67.4494459,94.1718298 67.9654078,93.4475003 69.8310078,92.8457732 C69.832684,92.5151739 69.8297887,92.3532291 69.8303983,92.0255272 C64.3327984,92.0304069 61.5844556,92.0386414 56.0868557,92.0482483 C56.0857891,92.387082 56.0868557,92.5539065 56.0857891,92.8941126" id="path48" fill="#FFFFFF"></path>
                        <path d="M71.691122,92.8416559 C73.3683791,93.358141 74.015541,94.248685 74.0095981,96.7730114 C73.9940553,102.80111 73.9875029,105.814626 73.9702839,111.843334 C73.9612934,115.108764 73.3994648,115.869539 71.5774458,116.544309 C71.5768363,116.873231 71.5750077,117.035176 71.5743982,117.362878 C77.0826647,117.117368 79.8369504,117.025721 85.3488741,116.901747 C85.3493312,116.580754 85.3488741,116.418047 85.3493312,116.096445 C83.4351217,115.552054 82.9238836,114.832452 82.9308932,111.603314 C82.9404932,106.525231 82.9446075,103.989468 82.9535979,98.911537 C82.954817,98.1419179 83.3298265,97.440157 84.7743979,97.4323799 C86.3969502,97.4241455 87.2077692,97.4204857 88.8303216,97.4145386 C91.860112,97.4014244 93.3964167,98.4540657 93.7226643,99.3266159 C94.133331,99.325396 94.33935,99.325396 94.7500167,99.325396 C94.4345881,96.3989524 94.2744357,94.9342819 93.9588548,92.0076858 C85.0517312,92.0107356 80.6011408,92.0148529 71.6917315,92.0255272 C71.691122,92.3513992 71.6917315,92.5128866 71.691122,92.8416559" id="path50" fill="#FFFFFF"></path>
                        <path d="M112.566092,106.4223 C117.366702,104.433368 118.804111,102.581371 118.798168,99.4147554 C118.786283,94.5553432 114.125559,91.3524345 106.533331,91.3524345 C102.481521,91.3524345 100.202359,92.0792038 97.173788,92.7713578 C96.8387023,95.2886696 96.6691023,96.5479355 96.3327976,99.0646374 C96.705369,99.0646374 96.8921881,99.0634174 97.2643023,99.0634174 C98.3369118,97.9345309 100.480302,96.3679968 105.512531,96.3769938 C108.402435,96.3829409 110.405331,97.121452 110.408378,98.911537 C110.411273,100.37148 108.360683,101.235186 106.030321,102.244215 C103.923197,103.137656 102.871464,103.586893 100.762512,104.485062 C98.4297118,105.464965 96.7475785,107.215708 96.746969,109.981884 C96.7452928,114.493465 100.89935,117.362878 107.768378,117.458794 C110.851807,117.501644 114.030321,116.733855 114.589864,116.746969 C115.148188,116.76054 115.898207,116.892902 116.179197,116.973874 C116.496454,116.981651 116.654169,116.984549 116.970816,116.994766 C116.964873,114.158139 116.961978,112.741045 116.955883,109.905029 C116.545216,109.896184 116.339807,109.892524 115.92914,109.88368 C114.813102,110.962397 112.947045,112.490351 108.56015,112.436065 C106.505293,112.411666 105.152455,111.602704 105.151235,110.437678 C105.149407,109.635883 106.128607,109.056267 107.575007,108.486868 C109.571959,107.658845 110.572035,107.245443 112.566092,106.4223" id="path52" fill="#FFFFFF"></path>
                        <path d="M139.297063,97.1632344 C144.051196,97.2298727 147.884492,100.894522 147.90232,105.273742 C147.921977,109.77099 144.160149,113.165121 139.356492,112.914427 C134.646397,112.668308 130.759463,109.285613 130.744682,104.671558 C130.729749,100.206486 134.634511,97.0976635 139.297063,97.1632344 L139.297063,97.1632344 Z M121.697064,104.507783 C121.716721,111.973866 128.455921,118.000135 139.375539,118.723397 C150.152377,119.43568 156.97371,113.713782 156.94171,105.709865 C156.911234,97.6653853 150.223844,91.3524345 139.131577,91.3524345 C128.460644,91.3524345 121.679235,97.0798221 121.697064,104.507783 L121.697064,104.507783 Z" id="path54" fill="#FFFFFF"></path>
                        <path d="M159.545901,92.975695 C161.407996,93.6350636 161.92152,94.4600367 161.935234,98.0638428 C161.967234,107.09829 161.98552,111.613989 162.01752,120.648589 C162.409139,120.689608 162.604186,120.71172 162.994282,120.75213 C170.902853,115.44897 174.855615,112.677304 182.768757,106.553899 C182.774853,110.305926 182.7779,112.179271 182.783995,115.93023 C182.790091,119.796777 182.281138,120.623428 180.422091,121.090506 C180.423615,121.476459 180.423615,121.671799 180.423615,122.059125 C185.569519,122.735725 188.137138,123.101397 193.270852,123.88718 C193.270852,123.476676 193.270852,123.272491 193.270852,122.862597 C191.370662,121.835726 190.860186,120.851706 190.857138,116.796376 C190.855614,106.61947 190.852567,101.528273 190.847995,91.3524345 C190.343614,91.3524345 190.09371,91.3524345 189.589329,91.3524345 C181.766091,98.1341408 177.868186,101.191726 170.069329,106.958304 C170.058662,103.48137 170.051043,101.744504 170.040377,98.2700098 C170.02971,94.5571731 170.54171,93.7213731 172.449519,93.0542276 C172.446472,92.6791011 172.446472,92.4944352 172.446472,92.1191563 C167.283805,92.1011624 164.702472,92.0941479 159.539806,92.0821011 C159.541329,92.4395387 159.544377,92.6182575 159.545901,92.975695" id="path56" fill="#FFFFFF"></path>
                        <path d="M23.7380565,103.885317 L24.7821708,106.198292 C27.1987803,111.551468 28.5714279,114.517864 30.5482659,118.693509 C30.2553897,119.283189 29.9500183,119.894371 29.6280374,120.545505 C27.1375231,115.308984 25.7392755,112.308583 22.9814851,106.198292 L22.8987423,106.013626 L23.7380565,103.885317" id="path58" fill="#A7A5A6"></path>
                        <path d="M40.2957704,103.294417 L41.2077704,105.258341 C42.6660561,108.401016 43.397637,109.952148 44.8661322,113.040689 C44.9874274,113.312275 45.1315798,113.614358 45.2780179,113.924676 C45.9387417,115.310204 46.3416369,116.191141 46.3398084,116.825501 C46.3369131,117.272298 46.2588941,117.629126 46.1433893,117.939444 C45.5541322,117.991291 44.9439989,118.045425 44.2910465,118.103828 C44.444037,117.764842 44.536837,117.347933 44.5386656,116.825501 C44.5411036,116.191141 44.138056,115.310204 43.4773322,113.924676 C43.3315037,113.614358 43.1868942,113.312275 43.0654465,113.040689 C41.5964942,109.952148 40.8649133,108.401016 39.4070847,105.258341 L39.3386657,105.109967 L40.2957704,103.294417" id="path60" fill="#A7A5A6"></path>
                        <path d="M12.3101254,116.998883 L12.0892797,117.470078 C10.9767921,119.843744 10.3505978,121.171478 9.53810262,122.172883 C8.88214835,122.269867 8.2053636,122.369443 7.47916172,122.478931 C8.42797693,121.440166 9.06011406,120.090321 10.2886855,117.470078 L10.5095312,116.998883 C15.3130663,106.471097 17.7363805,101.504484 22.1273899,92.9060069 C22.4231613,93.5612582 22.7035423,94.1800643 22.9738661,94.7746245 C19.1631233,102.275171 16.7535234,107.260997 12.3101254,116.998883" id="path62" fill="#A7A5A6"></path>
                        <path d="M32.7207611,107.682023 L31.7446087,109.672176 L30.8577516,107.810725 L30.9202278,107.682023 C34.0231611,101.354891 35.6166086,98.2145033 38.3715038,92.9172912 C38.6822086,93.5165785 38.9798085,94.0907049 39.2708562,94.6506497 C37.0351229,98.9703983 35.4684944,102.078001 32.7207611,107.682023" id="path64" fill="#A7A5A6"></path>
                        <path d="M60.3338652,93.1169011 C61.1868937,94.0824704 61.371427,95.48157 61.3636556,97.5641317 L61.3101699,112.502855 C61.3023985,114.641839 61.0672747,115.960576 60.3964937,116.882685 C59.7923033,116.920808 59.1725699,116.96198 58.51017,117.00666 C59.251808,116.079823 59.5012557,114.735925 59.5094842,112.502855 L59.5631223,97.5641317 C59.5708937,95.48157 59.3863604,94.0824704 58.5345509,93.1169011 L60.3338652,93.1169011" id="path66" fill="#A7A5A6"></path>
                        <path d="M90.6838834,96.3393286 C91.7357691,96.3393286 92.6285691,96.4591861 93.3820929,96.6520865 L93.4701691,97.4651654 C92.5308929,96.8308052 91.0732168,96.3698267 89.017293,96.3471056 L90.6838834,96.3393286" id="path68" fill="#A7A5A6"></path>
                        <path d="M75.9100933,93.0929601 C76.5951981,93.9180858 76.8862457,95.0921095 76.8827409,96.7742313 L76.8428171,111.846384 C76.8368743,113.914459 76.5945886,115.20834 75.92076,116.104832 C75.32556,116.1274 74.7172553,116.153019 74.0678077,116.179857 C74.7839981,115.280926 75.036341,113.970576 75.0422838,111.846384 L75.0815981,96.7742313 C75.0863219,95.0921095 74.7946648,93.9180858 74.1101696,93.0929601 C75.8214076,93.0929601 74.7553505,93.0929601 75.9100933,93.0929601" id="path70" fill="#A7A5A6"></path>
                        <path d="M115.88754,111.35201 L115.890435,112.46946 C114.604797,113.075762 112.916111,113.510665 110.586969,113.510665 L110.345902,113.508835 C110.164264,113.507615 109.994664,113.486876 109.820797,113.472542 C112.80594,113.291993 114.634511,112.353262 115.88754,111.35201" id="path72" fill="#A7A5A6"></path>
                        <path d="M101.177902,105.475792 L106.563045,103.182336 C109.094702,102.088217 111.484492,101.054027 111.481597,98.910927 C111.479769,97.6426642 110.78034,95.5649823 106.339807,95.3286221 C106.658283,95.315508 106.979807,95.3046811 107.316112,95.3046811 C112.502397,95.3136781 113.280302,97.5700788 113.280302,98.910927 C113.285178,101.054027 110.893407,102.088217 108.363731,103.182336 L102.976759,105.475792 C100.750017,106.410863 99.6208737,107.927533 99.6196547,109.981884 C99.6184356,113.770356 103.100645,116.12557 108.958931,116.361473 C108.646397,116.376417 108.332797,116.387701 108.020264,116.387701 L107.783312,116.385261 C101.542245,116.298952 97.8172928,113.905005 97.8191214,109.981884 C97.8207976,107.927533 98.9499404,106.410863 101.177902,105.475792" id="path74" fill="#A7A5A6"></path>
                        <path d="M100.607083,93.4891302 C100.388721,93.539757 100.165483,93.5934337 99.939807,93.6469578 L99.5887213,96.2745202 C98.8755785,96.5604397 98.2255214,96.8992734 97.6487595,97.3132849 L98.1380547,93.6469578 C98.3637309,93.5934337 98.586969,93.539757 98.8071594,93.4891302 C101.189331,92.9172912 103.246474,92.4247471 106.533331,92.4247471 C106.801216,92.4247471 107.055997,92.4366414 107.314893,92.4438084 C104.60175,92.5348452 102.731578,92.9785923 100.607083,93.4891302" id="path76" fill="#A7A5A6"></path>
                        <path d="M127.697063,97.0232481 C125.643425,99.0830887 124.563045,101.669936 124.570816,104.505343 C124.588645,111.709905 131.291121,116.992936 141.247692,117.651694 C141.505368,117.668468 141.752377,117.667858 142.00533,117.676093 C141.723882,117.68692 141.448835,117.708878 141.161292,117.708878 C140.601749,117.708878 140.03032,117.689817 139.447006,117.651694 C129.491654,116.992936 122.78933,111.709905 122.770283,104.505343 C122.762511,101.669936 123.842892,99.0830887 125.896378,97.0232481 C128.851806,94.058072 133.55413,92.4247471 139.131577,92.4247471 C139.452949,92.4247471 139.759539,92.4454858 140.073749,92.4563126 C134.875578,92.6182575 130.497673,94.2128498 127.697063,97.0232481" id="path78" fill="#A7A5A6"></path>
                        <path d="M140.003501,96.134534 C140.317863,96.1058658 140.631616,96.0898543 140.951768,96.0898543 L141.110701,96.0910742 C146.420263,96.1654895 150.756568,100.284561 150.777444,105.270235 C150.786282,107.573603 149.908263,109.72936 148.310092,111.335236 C146.478625,113.175948 143.914358,114.128403 141.100644,113.985977 C140.976758,113.98003 140.857749,113.961579 140.732796,113.950904 C142.975539,113.761359 144.994587,112.857853 146.509558,111.335236 C148.109558,109.72936 148.985749,107.573603 148.975539,105.270235 C148.957711,100.504299 144.990473,96.5389386 140.003501,96.134534" id="path80" fill="#A7A5A6"></path>
                        <path d="M183.838472,105.762169 C183.864376,105.74143 183.887233,105.724046 183.911614,105.705595 L185.638091,104.370694 L185.654853,115.92779 C185.659424,118.638765 185.438472,120.283374 184.326091,121.25489 C183.871995,121.25489 182.895234,121.25489 182.524948,121.25489 C183.638853,120.283374 183.861329,118.638765 183.855233,115.92779 L183.838472,105.762169" id="path82" fill="#A7A5A6"></path>
                        <path d="M172.5059,107.82079 L170.803805,109.080056 L170.799234,107.752321 C178.331424,102.181694 182.247614,99.1199914 189.775233,92.6104804 L189.776757,94.1593256 C183.352376,99.6631623 179.472757,102.671951 172.5059,107.82079" id="path84" fill="#A7A5A6"></path>
                        <path d="M164.809139,98.0578956 L164.882282,118.189681 C164.303234,118.580971 163.708948,118.980648 163.087234,119.399387 L163.007996,98.0578956 C162.997329,95.6949041 162.800758,94.1837241 161.872758,93.1615808 L163.676948,93.1675279 C164.600377,94.1896712 164.799996,95.6990214 164.809139,98.0578956" id="path86" fill="#A7A5A6"></path>
                        <path d="M33.801142,75.7895675 C33.801142,82.6825918 38.2238467,87.7170629 44.3779037,87.9541855 C44.1916941,87.9644024 44.0220941,87.979194 43.8291799,87.979194 C37.4398467,87.979194 32.8012182,82.8541435 32.8012182,75.7895675 C32.8012182,69.6178228 35.5506277,66.0814175 40.3518466,66.0814175 C40.5267799,66.0814175 40.7078085,66.0992589 40.8868561,66.1033761 C36.381561,66.3286045 33.801142,69.8262772 33.801142,75.7895675 L33.801142,75.7895675 Z M49.9750083,83.8399941 C49.0738273,84.2402814 47.8756559,84.5780477 46.3612941,84.5780477 C46.1810274,84.5780477 45.9922274,84.5749979 45.8041893,84.5637136 C47.7255607,84.4755741 49.1160369,83.8500584 49.9649511,83.3091749 L49.9750083,83.8399941 Z M43.6821322,70.0990825 C43.8207989,70.0884082 43.9529132,70.0615699 44.0987418,70.0615699 C44.6838846,70.0615699 45.3071227,70.1378151 45.9577893,70.282071 C47.6726845,70.6692442 48.9107797,71.388694 49.910094,72.1464189 L50.0214845,73.0644112 C48.8458654,72.0183269 47.3667036,70.8258519 44.9517703,70.282071 C44.5161132,70.1837147 44.0927989,70.1330879 43.6821322,70.0990825 L43.6821322,70.0990825 Z" id="path88" fill="#A7A5A6"></path>
                        <path d="M53.5410272,78.2757712 C53.6387034,83.8482286 58.2494462,87.7707396 64.8124936,87.9613526 C64.6404555,87.9644024 64.4761889,87.979194 64.3065889,87.979194 C57.4744367,87.979194 52.6392368,83.9882148 52.5392749,78.2757712 C52.5036177,76.193972 53.128532,74.4397223 54.3518463,73.1947905 C55.7554272,71.7622955 57.9131414,71.0086879 60.5929128,71.0086879 C60.7315794,71.0086879 60.8755794,71.0242419 61.0142461,71.0324764 C58.6054081,71.1326626 56.6523414,71.8723936 55.3535986,73.1947905 C54.1302844,74.4397223 53.504151,76.193972 53.5410272,78.2757712 L53.5410272,78.2757712 Z M70.3416363,83.6475512 C69.1684554,84.843686 67.4083031,85.5311128 65.5100936,85.5311128 C65.4083031,85.5311128 65.3042269,85.528063 65.1964936,85.5227258 C65.133865,85.5208959 65.0713888,85.5131189 65.0060174,85.5071718 C66.7113126,85.3970737 68.2713888,84.7364852 69.339884,83.6475512 C70.294703,82.6658179 70.8041125,81.4089918 70.777903,80.0914746 C70.710703,77.0922931 67.7798078,74.3265744 64.0964555,73.7963652 C63.9059794,73.7666296 63.7226651,73.7666296 63.5375222,73.7547353 C63.6899032,73.744671 63.8369508,73.7131054 63.9940555,73.7131054 C64.3535222,73.7131054 64.7273127,73.744671 65.0975984,73.7963652 C68.7791221,74.3265744 71.7118458,77.0922931 71.7804173,80.0914746 C71.8064744,81.4089918 71.2946268,82.6658179 70.3416363,83.6475512 L70.3416363,83.6475512 Z" id="path90" fill="#A7A5A6"></path>
                        <path d="M78.8999599,84.9919067 L78.782779,78.5706877 L78.7375218,75.931841 C78.7178647,74.9967698 78.5429314,74.3212372 78.1482647,73.8041422 C78.5232742,73.8447047 78.8655218,73.8774901 79.2202647,73.9156127 C79.5577885,74.4188311 79.7220551,75.0592908 79.7380551,75.931841 L79.7845313,78.5706877 L79.9017123,84.9919067 C79.9256361,86.2429381 79.7702075,87.0357358 79.3155028,87.5760093 L78.3131409,87.5760093 C78.7684552,87.0357358 78.9238837,86.2429381 78.8999599,84.9919067 Z M88.5023978,76.369641 C87.5094835,76.3280111 86.9292169,76.2999529 86.0499788,76.250546 C86.1720359,76.2357544 86.3017121,76.2273674 86.4411407,76.2273674 C86.5101693,76.2273674 86.5851407,76.2296548 86.6631597,76.2296548 C87.7988549,76.2911084 88.3702835,76.3208441 89.5065882,76.369641 C90.3666263,76.4060862 91.1143596,76.5364655 91.7404929,76.7366854 L91.8060168,77.196444 C91.0779406,76.7270785 89.9262454,76.4292648 88.5023978,76.369641 L88.5023978,76.369641 Z" id="path92" fill="#A7A5A6"></path>
                        <path d="M94.83215,87.6026951 C95.2350452,87.0976469 95.3785881,86.3685902 95.3755405,85.2540377 L95.3542071,81.03966 L95.33455,76.8242149 C95.3315024,75.9646265 95.1702833,75.3302663 94.7946643,74.8567836 C95.1518452,74.8674579 95.4822071,74.8775223 95.8119595,74.8871292 C96.1732547,75.3540548 96.3327976,75.9765207 96.3356928,76.8242149 L96.3583976,81.03966 L96.3731785,85.2540377 C96.3844547,86.3685902 96.2345119,87.0976469 95.8332928,87.6026951 L94.83215,87.6026951 Z M105.630321,76.5471398 C105.773254,76.5442425 105.914359,76.5401253 106.078016,76.5401253 L106.339807,76.5335682 C107.119693,76.5335682 107.80114,76.6276548 108.381559,76.7777054 L108.43215,77.196444 C107.798245,76.8045437 106.820874,76.5811452 105.630321,76.5471398 L105.630321,76.5471398 Z" id="path94" fill="#A7A5A6"></path>
                        <path d="M123.58994,75.5602219 C123.771425,75.5542747 123.958854,75.5358234 124.118397,75.5358234 C124.670168,75.5358234 125.16434,75.5940747 125.597559,75.6983782 L125.64053,76.1076625 C125.145292,75.8014617 124.435045,75.613136 123.58994,75.5602219 Z M123.689902,81.986778 L123.679235,82.4842018 C123.268416,82.1077029 122.725635,81.9111428 121.741711,81.8664631 C121.917254,81.8588386 122.097673,81.8557888 122.250664,81.8557888 C122.859578,81.8557888 123.319006,81.8974186 123.689902,81.986778 L123.689902,81.986778 Z M112.955883,76.5966992 L112.929216,79.0531674 L112.856531,85.1974638 C112.848759,86.3054591 112.671997,87.0679112 112.265445,87.5938507 C111.932188,87.5938507 111.613711,87.5938507 111.261254,87.5938507 C111.669026,87.0695886 111.842892,86.3054591 111.856607,85.1974638 L111.926245,79.0531674 L111.952911,76.5966992 C111.96495,75.6834341 111.792302,75.0252855 111.387426,74.5606472 L112.389331,74.5606472 C112.792226,75.0252855 112.970816,75.6834341 112.955883,76.5966992 L112.955883,76.5966992 Z M117.819121,80.1640601 L117.819121,80.1074861 C119.092873,80.0359681 119.823845,79.9912884 121.182168,79.9037589 C122.606473,79.8096723 123.294016,79.5571482 123.744606,79.1782095 L123.738664,79.6727359 C123.34293,79.7816141 122.842816,79.8602992 122.18514,79.9037589 C120.729749,79.9972355 120.003502,80.0419152 118.551159,80.1212103 L117.819121,80.1640601 Z M125.030397,84.947227 L125.018511,85.4387036 C124.679159,85.5250132 124.271387,85.5727427 123.743387,85.5905841 C121.622549,85.6448707 120.720759,85.6448707 122.741635,85.5905841 C123.933864,85.5555113 124.541102,85.3612385 125.030397,84.947227 L125.030397,84.947227 Z" id="path96" fill="#A7A5A6"></path>
                        <path d="M129.447006,80.0955919 C129.411349,81.8557888 130.072073,83.4849964 131.366701,84.8031236 C133.283349,86.7598806 136.401216,87.867876 140.176149,87.9613526 C140.006549,87.9644024 139.859501,87.979194 139.685177,87.979194 C135.679235,87.979194 132.372568,86.8533572 130.366625,84.8031236 C129.071997,83.4849964 128.408378,81.8557888 128.447083,80.0955919 C128.542321,75.494041 132.979806,71.8254266 140.314816,70.2909155 C142.166092,69.8977952 143.946968,69.701845 145.610663,69.701845 C145.767311,69.701845 145.905368,69.7161791 146.063082,69.7178565 C144.555882,69.757809 142.963654,69.9424749 141.316111,70.2909155 C133.981559,71.8254266 129.548187,75.494041 129.447006,80.0955919 L129.447006,80.0955919 Z M146.226739,83.4081412 L146.217901,84.0972454 C145.167234,84.6959228 143.708949,85.1755052 141.38453,85.2837733 C141.167235,85.288653 140.957711,85.2946002 140.75352,85.2946002 C140.613635,85.2946002 140.488682,85.2837733 140.348796,85.2837733 C140.360682,85.2837733 140.372568,85.2837733 140.384454,85.2837733 C143.560073,85.13784 145.131577,84.2950255 146.226739,83.4081412 L146.226739,83.4081412 Z M141.497596,72.971392 C141.615539,72.9625476 141.720835,72.9445537 141.839844,72.9445537 C142.610739,72.9445537 143.354815,73.0566342 143.919082,73.1501108 L144.497673,73.2501445 L144.485787,73.8387575 L144.467806,74.7167974 L144.453025,75.565559 C144.429101,76.8014939 144.208911,77.5776701 143.820796,78.1179436 C143.472606,78.1554563 143.119692,78.1954088 142.741635,78.2371911 C143.186892,77.6920379 143.42613,76.8885659 143.45173,75.565559 L143.467882,74.7167974 L143.485711,73.8387575 L143.497596,73.2501445 L142.914282,73.1501108 C142.521444,73.0822526 142.024377,73.0119545 141.497596,72.971392 L141.497596,72.971392 Z" id="path98" fill="#A7A5A6"></path>
                        <path d="M164.07771,78.6063704 L164.07771,79.218772 C163.737901,78.8178747 163.244186,78.5665704 162.444186,78.5009996 C162.672758,78.4813283 162.878472,78.4723314 163.071996,78.4723314 C163.480377,78.4723314 163.798853,78.526008 164.07771,78.6063704 L164.07771,78.6063704 Z M153.572568,71.2410833 L153.38971,83.6565481 C153.366853,85.6162025 153.10171,86.737922 152.420568,87.4229089 C152.092796,87.4229089 151.756491,87.4288561 151.411349,87.4288561 C152.103615,86.7449365 152.36373,85.6233695 152.388568,83.6565481 L152.569901,71.2410833 C152.58971,69.8084358 152.40533,68.6981531 151.580949,68.126314 L152.580568,68.126314 C153.406472,68.6981531 153.589329,69.8084358 153.572568,71.2410833 L153.572568,71.2410833 Z M164.408377,68.50754 C164.583615,68.4831416 164.754282,68.4681975 164.917329,68.4681975 C165.283043,68.4681975 165.593901,68.5206542 165.881901,68.5968994 L165.92152,69.0996603 C165.555805,68.8018466 165.054472,68.5860726 164.408377,68.50754 L164.408377,68.50754 Z M163.230472,83.4670025 C164.411424,83.3765757 165.027043,83.0410968 165.459805,82.5259841 L165.458282,83.2079213 C165.126091,83.3360132 164.740567,83.4272025 164.230091,83.4670025 C162.122663,83.6309297 161.071234,83.7082424 158.962282,83.8541757 L158.224758,83.9078523 L158.224758,83.8351144 C160.153901,83.6963481 161.214472,83.6219328 163.230472,83.4670025 L163.230472,83.4670025 Z M158.299425,75.5196594 L158.300948,75.3421606 C159.602282,75.1086977 160.319996,74.9728288 161.674663,74.7078004 C162.975996,74.4635108 163.652567,74.0644434 164.089901,73.5313369 L164.089901,74.2818947 C163.721139,74.4516165 163.26552,74.5975499 162.675805,74.7078004 C161.254091,74.984723 160.542472,75.1187621 159.110091,75.3767759 L158.299425,75.5196594 L158.299425,75.5196594 Z" id="path100" fill="#A7A5A6"></path>
                        <polyline id="path102" fill="#263D96" points="152.412949 54.567171 151.997558 54.567171 151.997558 57.0529173 151.149406 57.0529173 151.149406 57.3578982 153.266282 57.3578982 153.266282 57.0529173 152.412949 57.0529173 152.412949 54.567171"></polyline>
                        <polyline id="path104" fill="#263D96" points="153.586282 57.3578982 154.28571 57.3578982 154.963806 55.1467871 154.974472 55.1467871 155.64952 57.3578982 156.348948 57.3578982 156.348948 54.567171 155.932948 54.567171 155.932948 57.0064078 155.923806 57.0064078 155.175615 54.567171 154.759615 54.567171 154.012949 57.0064078 154.003806 57.0064078 154.003806 54.567171 153.586282 54.567171 153.586282 57.3578982"></polyline>
                    </g>
                </g>
            </g>
        </g>
    </g>
</svg>