<?xml version="1.0" encoding="UTF-8"?>
<svg width="200px" height="200px" viewBox="0 0 200 200" version="1.1" xmlns="http://www.w3.org/2000/svg" xmlns:xlink="http://www.w3.org/1999/xlink">
    <title>wingate_BGL</title>
    <g id="wingate_BGL" stroke="none" stroke-width="1" fill="none" fill-rule="evenodd">
        <g id="Wingate_Primary" transform="translate(0.000000, 47.000000)">
            <path d="M200,18.7782606 L168.065865,18.7782606 L167.209621,25.8628119 C167.209621,25.8628119 170.469565,27.6996297 171.537465,28.3005547 L165.940426,45.0058276 C165.813876,42.344588 164.693432,18.7782606 164.693432,18.7782606 L130.847734,18.7782606 L129.99445,25.9160959 L136.788159,29.5815908 L128.772618,48.5003697 C128.674191,46.0359849 127.589269,18.7782606 127.589269,18.7782606 L65.73321,18.7782606 L64.8769658,25.944218 L82.1765032,35.0676223 L86.226827,88.0740978 L134.340056,88.0740978 L145.972988,60.6498609 C146.12766,63.184551 147.534505,86.2824234 147.644773,88.0740978 C152.147271,88.0740978 167.376873,88.0740978 171.940796,88.0740978 L200,18.7782606" id="Fill-1" fill="#0F192B"></path>
            <polyline id="Fill-2" fill="#FFFFFE" points="151.874191 83.5790006 149.432747 43.5160959 148.366327 43.490194 131.362812 83.5790006 90.3925994 83.5790006 86.4710453 32.2487509 69.7058279 23.4095279 69.7221092 23.2748378 123.266605 23.2748378 124.987234 66.4341348 126.066235 66.4097129 142.522109 27.5686398 134.820352 23.4147083 134.835893 23.2748378 160.40407 23.2748378 162.448844 66.2735427 163.555227 66.2735427 176.978353 26.2091579 172.033302 23.4206287 172.051064 23.2748378 193.3284 23.2748378 168.911748 83.5790006 151.874191 83.5790006"></polyline>
            <path d="M194.044033,22.7915816 L171.621092,22.7915816 L171.515264,23.6818683 L176.39519,26.4319146 L163.208881,65.7902865 L162.909898,65.7902865 L160.866605,22.7915816 L134.409621,22.7915816 L134.302313,23.6818683 L141.907123,27.7847361 L125.745051,65.9360774 L125.450509,65.9419978 L123.73136,22.7915816 L69.2950971,22.7915816 L69.1877891,23.6818683 L86.0099907,32.5521736 L89.9441258,84.0622569 L131.683256,84.0622569 L148.683811,43.9823309 L148.977613,43.9867712 L151.419796,84.0622569 L169.236633,84.0622569 L194.044033,22.7915816 Z M192.612026,23.7566139 L168.586124,83.0964844 L152.328585,83.0964844 L149.886401,43.0350598 L148.991674,43.0217388 L148.698612,43.0172985 L148.048844,43.0069377 L131.043108,83.0964844 L90.8388529,83.0964844 L86.9313599,31.9468082 L86.4592044,31.6981496 L71.399815,23.7566139 L122.80333,23.7566139 L124.523219,66.9284918 L125.47271,66.9077703 L125.767253,66.9011098 L126.391119,66.8870487 L126.633858,66.3120256 L143.138575,27.3525436 L142.365217,26.9344123 L136.475116,23.7566139 L159.945976,23.7566139 L161.945606,65.8361699 L161.990009,66.7553188 L163.903793,66.7553188 L177.564477,25.9827009 L176.868825,25.5912115 L173.614801,23.7566139 L192.612026,23.7566139 L192.612026,23.7566139 Z" id="Fill-3" fill="#BEB07D"></path>
            <path d="M109.87308,50.2735427 C109.137465,45.2655871 110.376318,40.7675298 105.0605,37.3736352 C103.897132,36.6291394 102.414801,35.8424604 102.364477,34.4615168 C102.331175,33.5534687 102.966883,32.7808508 103.477521,32.0296944 C104.886586,29.9582791 105.689547,26.4126731 105.425347,24.1266417 C105.07234,21.0953744 104.239038,19.9112855 104.144311,16.8607768 C104.073265,14.6435705 102.124699,13.3099904 101.233673,11.277058 C100.342646,9.2426454 99.3228492,9.75476381 97.1241443,10.0781681 C94.9276596,10.4008323 92.8007401,8.59361672 94.3955597,10.1373725 C87.4864015,2.04338545 49.6747456,2.17659544 46.7300648,2.86780728 C45.5274746,3.15050849 43.1481961,4.32867685 41.6888067,4.75790904 C34.5628122,6.85522634 32.9354302,0.389361401 25.9345051,2.86780728 C23.9696577,3.5627194 10.2105458,11.9667897 10.3208861,15.3880663 C10.4673451,19.890564 10.5309898,24.4315446 11.1726179,28.8970395 C11.9607771,34.3986121 15.5404255,36.8319146 16.9480111,41.7259016 C17.3972248,43.290379 17.0923219,44.9562439 16.9531915,46.5791856 C16.1354302,56.1192411 21.173728,65.0953744 26.3245143,73.1671597 C28.3626272,76.3597592 30.5420907,79.6219238 33.7450509,81.6489359 C36.8037003,83.5849211 40.4921369,84.197687 44.0732655,84.7349673 C51.1222942,85.7925066 58.1913043,86.7123956 65.2758557,87.4961144 C73.0419981,88.3545788 81.9182239,86.9484733 88.8658649,83.1926917 C94.946901,79.9061052 102.645698,79.4539312 107.516744,74.3001847 C111.798705,69.7680848 114.218686,61.5830709 111.817206,55.6441255 C111.209621,54.1395927 110.329695,52.7260867 110.019611,51.1349673 C109.962627,50.8470857 109.914524,50.5592041 109.87308,50.2735427" id="Fill-4" fill="#DCD2B3"></path>
            <path d="M85.5089732,44.9251616 C80.6194265,44.9251616 77.8168363,44.8082328 67.0305273,56.9865862 C74.4569843,41.3077703 74.5265495,41.0968545 95.8038853,41.0968545 C104.609066,41.0968545 85.5089732,44.9251616 85.5089732,44.9251616" id="Fill-5" fill="#BDB07D"></path>
            <path d="M103.111193,44.9555039 C105.352081,45.263367 106.507308,46.1558739 109.027937,56.9865862 C107.557447,42.4444955 105.947086,41.0968545 98.0233117,41.0968545 C94.4148011,41.0968545 103.111193,44.9555039 103.111193,44.9555039" id="Fill-6" fill="#BDB07D"></path>
            <path d="M56.7785384,19.7099904 C51.9607771,24.1266417 54.2349676,28.5447731 54.2349676,28.5447731 C62.13284,22.6539312 70.2327475,27.7684548 78.2630897,32.024514 C88.2545791,37.3210913 92.3019426,30.2320996 92.3019426,30.2320996 C94.9439408,32.4174835 93.306938,35.6330247 90.2046253,36.8814983 C88.3123034,37.6422754 84.6445883,36.9488434 84.6445883,36.9488434 C78.8499537,37.6844585 60.9443108,39.3481033 52.5942646,53.2663272 C43.6677151,68.1518036 54.4851064,76.3641995 56.1813136,76.5270117 C64.9346901,77.3677148 74.2823312,59.0395002 83.8038853,55.7484733 L78.080296,68.0896389 C78.080296,68.0896389 85.0997225,57.1316371 96.372988,57.1316371 C104.986494,57.1316371 104.259759,64.5891764 104.489177,66.437095 C105.33506,59.6870487 103.795005,55.7314521 103.795005,55.7314521 C112.056984,61.2626269 106.361517,75.5331172 106.525069,76.7364474 C106.718224,78.1588341 104.508418,78.2069377 103.390194,79.103885 C92.9265495,87.4761329 84.0599445,86.1654946 70.6812211,86.9070302 C63.7165587,87.2933392 56.6512488,87.3022199 49.8686401,85.6800182 C43.0845513,84.0585566 36.5454209,80.6757629 32.1702128,75.2437555 C30.2912118,72.9096204 28.8481036,70.2550413 27.052729,67.8572615 C24.1694727,64.0089729 20.4210916,60.877798 17.4941721,57.0620719 C13.2210916,51.4961144 10.8373728,43.903885 13.346161,37.3514336 C13.7990749,36.1673447 16.9346901,31.8387601 18.1617021,31.1201662 C28.5609621,25.0280293 29.3987049,9.69111903 29.3987049,9.69111903 L40.8458834,12.9481033 C53.6695652,9.90721524 56.7785384,19.7099904 56.7785384,19.7099904" id="Fill-7" fill="#BDB07D"></path>
            <path d="M10.1802035,33.9553188 L27.4042553,26.8086028 C32.2878816,20.4692874 31.2088807,11.8950043 31.3346901,12.7808508 C33.9174838,13.2996297 39.8867715,14.1233114 39.8867715,14.1233114 C39.8867715,14.1233114 41.0619796,19.2030524 36.9413506,22.1677148 C31.73284,25.9138757 24.1813136,31.0143383 21.1026827,39.9423679 C20.7874191,57.6918591 35.7372803,67.4946343 35.7372803,67.4946343 L35.2902868,76.9784456 L9.32765957,50.1965769 L10.1802035,33.9553188" id="Fill-8" fill="#0F192B"></path>
            <path d="M21.2780759,55.1497684 C21.2780759,55.1497684 23.8956522,60.956984 28.5883441,67.4398702 C37.3128585,79.4961144 52.8355227,84.5640145 66.9720629,79.917206 C67.1023127,79.8735427 67.1703978,79.8498609 67.1703978,79.8498609 L56.0769658,88.4463457 L30.9816836,83.4450506 L16.6142461,66.9936167 L21.2780759,55.1497684" id="Fill-9" fill="#0F192B"></path>
            <path d="M51.4545791,84.8430154 L32.9879741,68.1133207 L35.5966698,67.3806657 C26.9846438,60.2124881 21.4519889,48.6602217 22.2860315,36.664662 L10.8551341,35.2119331 C10.8551341,35.2119331 9.21147086,38.890749 8.70971323,42.5673447 C4.36780759,74.3556889 34.5635523,97.3566139 69.0042553,95.2881588 C71.1896392,95.1564289 80.3419056,93.6267342 82.4843663,92.8518961 L85.5896392,85.2789081 L51.4545791,84.8430154" id="Fill-10" fill="#0F192B"></path>
            <path d="M85.6599445,8.85707648 L100.480296,8.94292292 C102.168363,8.95254364 103.671415,10.0130432 104.245698,11.5997222 L107.239223,19.8750228 C107.988899,21.9508785 108.00296,24.2161884 107.268085,26.2964844 C106.948381,27.2015723 106.589454,28.1925066 106.229787,29.1279368 L104.234598,24.4019423 L100.791859,14.2121181 C100.495837,13.3336722 99.6714154,12.7431079 98.7441258,12.7431079 L91.1037928,12.7490284 L85.6599445,8.85707648" id="Fill-11" fill="#0F192B"></path>
            <path d="M65.6148011,79.6041625 C65.6148011,79.6041625 74.7900093,83.2977795 88.6823312,80.4248841 C86.3851989,86.3127657 82.3111933,90.0463457 82.3111933,90.0463457 L64.0725254,89.4713225 L57.0360777,84.0156334 L65.6148011,79.6041625" id="Fill-12" fill="#0F192B"></path>
            <path d="M52.8148011,36.5181311 C52.8148011,36.5181311 50.9402405,44.2813133 59.3724329,45.9553188 C59.2843663,46.0567065 55.5093432,50.0315446 55.4234968,50.1299719 C55.4234968,50.1299719 51.7432007,48.5654946 50.4717854,44.6172985 C49.8730805,42.756799 50.1372803,39.1283068 52.8148011,36.5181311" id="Fill-13" fill="#0F192B"></path>
            <polyline id="Fill-14" fill="#0F192B" points="0 60.3753003 11.8808511 48.5936167 14.9646623 63.4265492 0 60.3753003"></polyline>
            <polyline id="Fill-15" fill="#0F192B" points="18.6242368 67.2689174 12.1953747 84.3464382 30.2246068 80.384181 18.6242368 67.2689174"></polyline>
            <polyline id="Fill-16" fill="#0F192B" points="57.0323774 92.0733577 65.4519889 106.095929 73.8227567 92.1362624 57.0323774 92.0733577"></polyline>
            <polyline id="Fill-17" fill="#0F192B" points="79.0623497 90.6472707 90.2342276 98.8833484 91.5589269 84.5751153 79.0623497 90.6472707"></polyline>
            <polyline id="Fill-18" fill="#0F192B" points="14.1313599 29.3795557 1.26919519 34.5895464 12.7674376 43.2082328 14.1313599 29.3795557"></polyline>
            <path d="M5.50009251,58.7464382 L13.773173,51.676688 C13.773173,51.676688 16.8125809,52.197687 18.1010176,55.8520811 L5.50009251,58.7464382" id="Fill-19" fill="#BEB07D"></path>
            <path d="M16.3826087,80.6957444 L21.7702128,71.2407953 C21.7702128,71.2407953 24.8059204,70.7005547 27.2569843,73.7007398 L16.3826087,80.6957444" id="Fill-20" fill="#BEB07D"></path>
            <path d="M65.2684551,100.89926 L60.786679,91.210453 C60.786679,91.210453 62.733765,88.077058 66.6094357,88.0400552 L65.2684551,100.89926" id="Fill-21" fill="#BEB07D"></path>
            <polyline id="Fill-22" fill="#0F192B" points="34.4577243 85.0983346 36.0629047 100.714246 49.8775208 91.1912115 34.4577243 85.0983346"></polyline>
            <path d="M38.0817761,95.7795557 L38.4473636,85.1109155 C38.4473636,85.1109155 41.5992599,83.1904715 45.0738205,84.90444 L38.0817761,95.7795557" id="Fill-23" fill="#BEB07D"></path>
            <path d="M84.5742831,49.1893614 C84.5742831,49.1893614 83.1393154,55.0306195 82.2016651,58.0130432 C86.9483811,56.4308045 88.3900093,54.8211838 88.3900093,54.8211838 C88.3900093,54.8211838 87.4101758,51.6707675 84.5742831,49.1893614" id="Fill-24" fill="#0F192B"></path>
            <path d="M103.163737,49.0087879 C103.163737,49.0087879 101.833858,51.810638 100.293802,54.611008 C103.306568,56.9784456 104.582424,57.5867712 104.582424,57.5867712 C104.582424,57.5867712 105.19741,51.6618868 103.163737,49.0087879" id="Fill-25" fill="#0F192B"></path>
            <path d="M51.5611471,35.2859386 C51.5611471,35.2859386 38.6427382,42.4629969 36.0177613,58.9514336 C25.5844588,50.4800182 25.3032377,38.5762254 25.3032377,38.5762254 C25.3032377,38.5762254 35.3324699,19.944588 51.5611471,35.2859386" id="Fill-26" fill="#DCD2B3"></path>
            <path d="M105.807216,60.0067527 C105.187049,54.9765954 101.113784,52.0696574 96.2294172,52.0696574 C91.0031452,52.0696574 86.946161,53.9294169 83.8438483,56.1466232 C83.8438483,56.1466232 81.5896392,57.4269192 77.8878816,63.0128582 C70.6049954,74.0063827 62.5931545,81.7910265 57.5481961,81.6030524 C49.1100833,81.2877888 35.7365402,67.4946343 35.7365402,67.4946343 L29.8553191,71.0528212 L31.9940796,78.7072152 L40.0518039,81.1760404 L55.9718779,85.1242365 L65.4253469,84.3686398 C66.2142461,84.1414428 68.9191489,82.6554114 69.6259019,81.957539 C72.7074931,78.9099904 77.546716,72.4803882 82.66716,64.4707675 C87.6292322,56.7120256 89.2899167,55.4487509 96.1702128,55.4487509 C102.567993,55.4487509 102.729325,59.877983 102.821092,62.4814983 C103.129695,71.490194 97.5977798,79.0150783 84.319704,81.250786 C84.319704,81.250786 88.2434783,82.4866787 90.9779833,82.1773355 C93.9359852,81.8435705 93.2381129,82.8071227 96.4425532,80.7889914 C105.72951,74.9366324 106.459204,65.3025899 105.807216,60.0067527" id="Fill-27" fill="#0F192B"></path>
            <path d="M87.5670675,24.1266417 C87.5670675,24.1266417 76.693432,16.4078628 63.4545791,18.0160034 C72.9776133,13.6748378 82.4910268,15.5486583 87.5670675,24.1266417" id="Fill-28" fill="#0F192B"></path>
            <path d="M95.3228492,40.4670672 C84.2442183,40.250231 85.5526364,44.9251616 85.5526364,44.9251616 C85.5526364,44.9251616 93.7650324,44.3183161 94.3948196,47.9238665 C94.7796485,50.1299719 94.3592969,52.5277518 93.7650324,53.6829784 C96.4070305,54.2557814 97.440148,53.9449581 97.440148,53.9449581 C97.440148,53.9449581 98.0181314,52.2472707 97.6140611,48.1510635 C97.2166512,44.0948193 103.111193,44.9555039 103.111193,44.9555039 C103.111193,44.9555039 103.696577,40.6306195 95.3228492,40.4670672" id="Fill-29" fill="#0F192B"></path>
            <path d="M94.7581869,32.2087879 C94.7581869,32.2087879 99.7298797,33.2278443 101.347641,29.9323771 C103.504163,31.2496759 100.388529,36.5817758 100.388529,36.5817758 L95.2969473,37.1812208 L94.7581869,32.2087879" id="Fill-30" fill="#BDB07D"></path>
            <path d="M104.389269,23.7151708 C103.416096,22.0729877 101.029417,20.5122106 101.029417,20.5122106 C101.029417,20.5122106 99.4012951,15.3658646 95.7091582,11.4420904 C94.7352451,10.4052726 93.747271,9.3906565 92.6549491,8.50481006 C87.8542091,4.60989794 81.6984274,2.14995345 75.5226642,2.43635493 L70.7811286,2.6546713 C51.8919519,-3.91628152 39.8312673,3.78029572 39.8312673,3.78029572 L30.8728955,2.08556862 C28.240518,1.58677121 25.5267345,2.02710423 23.1874191,3.33256214 C19.4545791,5.41211811 13.4867715,8.93034197 8.03478261,12.9740052 C6.56725254,14.0618868 5.81683626,15.8794632 6.0839963,17.6851986 C7.82386679,29.5031449 11.4412581,38.5769655 11.4412581,38.5769655 L15.9437558,36.4204437 C15.360592,32.8541163 14.2305273,22.3357074 13.7576318,17.8332097 C13.6259019,16.5758554 14.2838113,15.3747453 15.413136,14.8056426 L26.9750231,8.96512458 C27.7698427,8.5640145 28.6630897,8.40490257 29.5474561,8.50851034 L41.960407,9.96049924 C41.960407,9.96049924 46.0699352,5.45430127 58.5628122,6.36752976 C75.9489362,7.64116529 83.4634598,16.4071227 83.4634598,16.4071227 C82.9631822,13.183441 81.1100833,10.5229414 78.5494912,8.50481006 C78.5494912,8.50481006 84.6593895,8.54033272 89.9685476,13.0006472 C96.2908418,18.3105455 95.7802035,23.1371875 95.7802035,23.1371875 C95.7802035,23.1371875 100.024422,25.4291394 101.019056,29.2137832 C102.728585,35.7159109 94.9291397,36.3753003 94.9291397,36.3753003 L96.13321,36.9784456 C94.760407,37.1664197 98.7448659,37.5453281 98.6449584,37.6652171 L100.149491,38.0478258 C100.149491,38.0478258 102.340796,37.9530987 102.679001,37.8413503 C107.894172,36.1022199 108.737835,31.0469007 104.389269,23.7151708" id="Fill-31" fill="#0F192B"></path>
            <path d="M80.0651249,36.197687 C77.1655874,36.197687 69.5785384,30.5029599 60.8481036,29.0835335 C56.253839,29.4979645 53.6273821,34.7952818 53.6273821,34.7952818 C53.6273821,34.7952818 55.7964847,32.5551338 60.0111008,33.157539 C66.5946346,34.6080478 72.4233117,37.2581866 72.4233117,37.2581866 L80.0651249,36.197687" id="Fill-32" fill="#0F192B"></path>
            <path d="M74.6323774,37.0361699 C74.6323774,39.8328397 67.3857539,41.2715076 63.6048104,40.4670672 C60.8688252,39.8846435 58.2482886,37.7362624 58.1076781,34.4467157 C57.9574468,30.9366324 59.8956522,30.0012023 62.6923219,30.0012023 C65.4889917,30.0012023 74.6323774,34.2402402 74.6323774,37.0361699" id="Fill-33" fill="#0F192B"></path>
            <path d="M60.8488437,29.0827934 C60.8488437,29.0827934 67.2436633,29.2744678 77.8634598,34.5458831 C88.573543,39.8602217 92.8007401,33.4298794 92.213876,29.6807583 C97.6303423,32.717946 94.8625347,37.3862162 94.8625347,37.3862162 L73.7036078,38.2802032 L65.9300648,32.450046 L60.8488437,29.0827934" id="Fill-34" fill="#0F192B"></path>
            <path d="M62.0862165,33.1345973 C62.0862165,33.1345973 68.4721554,34.1085103 73.06642,36.8141533 C70.3933395,38.6961144 67.7876041,39.4147083 64.9346901,38.6391301 C60.773358,37.5090654 62.0862165,33.1345973 62.0862165,33.1345973" id="Fill-35" fill="#FFFFFE"></path>
            <path d="M66.2579093,33.611193 C64.8473636,33.9553188 63.4294172,37.6319146 66.8788159,39.2629969 C70.4814061,39.2008323 74.4569843,37.0272892 74.4569843,37.0272892 L70.360037,33.3255316 C70.360037,33.3255316 67.6691952,33.2663272 66.2579093,33.611193" id="Fill-36" fill="#0F192B"></path>
            <path d="M36.0170213,61.0531912 C36.0170213,61.0531912 38.3896392,70.8433855 48.7533765,78.1950968 C39.0201665,76.8652171 36.0170213,73.7954669 36.0170213,73.7954669 C36.0170213,73.7954669 34.4762257,66.6539312 36.0170213,61.0531912" id="Fill-37" fill="#0F192B"></path>
            <path d="M56.8125809,36.7386676 C56.8125809,36.7386676 56.3396855,42.6206287 64.479556,41.9382976 C63.5345051,43.1460682 60.5935245,45.1930617 60.5935245,45.1930617 C60.5935245,45.1930617 51.9814986,43.8283993 56.8125809,36.7386676" id="Fill-38" fill="#DCD2B3"></path>
            <path d="M51.547086,35.2948193 C51.547086,35.2948193 41.3372803,40.8171135 49.8109158,53.6304345 C43.5086031,59.0920441 43.0179463,67.7048101 43.0179463,67.7048101 C43.0179463,67.7048101 24.6734505,37.5268267 51.547086,35.2948193" id="Fill-39" fill="#DCD2B3"></path>
            <path d="M112.874006,50.6465307 C111.056429,43.4539312 107.498982,36.6557814 102.513969,35.904625 C100.728215,35.6345048 97.4919519,36.0563364 97.4919519,36.0563364 C88.8451434,37.130897 86.0899167,38.010083 79.6373728,37.6045325 C69.4852914,36.9666047 49.1100833,46.9432929 49.1100833,65.184181 C60.6993525,48.4404252 67.9770583,38.3061052 79.0083256,38.3061052 L95.812766,38.3061052 C104.825902,38.3061052 105.718409,42.1891764 107.972618,51.5153559 C109.558557,58.0700275 109.966327,65.1604992 107.87123,69.8842735 C102.836633,81.237465 85.4460685,82.2654021 85.4460685,82.2654021 L81.9678076,89.7747453 C81.9678076,89.7747453 108.210916,88.7475483 113.349121,73.8073077 C115.803145,66.6716926 114.659019,57.7059201 112.874006,50.6465307" id="Fill-40" fill="#0F192B"></path>
        </g>
    </g>
</svg>