<?xml version="1.0" encoding="UTF-8"?>
<svg width="200px" height="200px" viewBox="0 0 200 200" version="1.1" xmlns="http://www.w3.org/2000/svg" xmlns:xlink="http://www.w3.org/1999/xlink">
    <!-- Generator: Sketch 54.1 (76490) - https://sketchapp.com -->
    <title>wis-eau-claire</title>
    <desc>Created with Sketch.</desc>
    <g id="wis-eau-claire" stroke="none" stroke-width="1" fill="none" fill-rule="evenodd">
        <g id="wis-eau-claire_BGL">
            <g id="wis-eau-claire" transform="translate(0.000000, 29.000000)">
                <g id="g10" transform="translate(99.999998, 71.055559) scale(-1, 1) rotate(-180.000000) translate(-99.999998, -71.055559) translate(0.000000, 0.376548)" fill-rule="nonzero">
                    <g id="g12">
                        <path d="M147.275305,70.6351834 C147.275305,73.6592574 135.46975,82.1407387 123.775306,82.1407387 L123.775306,59.5995047 C135.474688,59.5995047 147.275305,67.6129613 147.275305,70.6351834 Z M156.893823,70.6351834 L197.119131,30.6314807 C177.586415,13.2079626 145.627774,1.85185181 109.520985,1.85185181 C50.0554308,1.85185181 1.85185181,32.6499992 1.85185181,70.6351834 C1.85185181,108.624071 50.0554308,139.418515 109.520985,139.418515 C144.865428,139.418515 176.230243,128.538886 195.861106,111.737652 L156.893823,70.6351834 L156.893823,70.6351834 Z" id="path14" fill="#EAA610"></path>
                        <path d="M125.627157,80.2148128 L125.627157,61.5178997 C135.770984,62.2456775 144.655552,68.6814798 145.401231,70.6388871 C144.669749,72.6358007 135.604318,79.4333313 125.627157,80.2148128 L125.627157,80.2148128 Z M123.775306,57.7476529 L121.923454,57.7476529 L121.923454,83.9925905 L123.775306,83.9925905 C131.140737,83.9925905 137.617898,80.9481461 140.822836,79.1333314 C142.771601,78.030245 149.127157,74.1586401 149.127157,70.6351834 C149.127157,65.6629613 135.285182,57.7476529 123.775306,57.7476529 L123.775306,57.7476529 Z M109.520985,137.566663 C51.1730851,137.566663 3.70370361,107.541355 3.70370361,70.6351834 C3.70370361,33.7297522 51.1730851,3.70370361 109.520985,3.70370361 C142.888885,3.70370361 174.429625,13.7745676 194.401847,30.7221597 L154.306169,70.5975291 L193.160489,111.580244 C173.158638,127.881478 142.080243,137.566663 109.520985,137.566663 Z M109.520985,0 C80.412961,0 53.0201221,7.25864179 32.3900609,20.4383946 C11.5029627,33.7827769 0,51.6099987 0,70.6351834 C0,89.6629607 11.5029627,107.490121 32.3900609,120.83333 C53.0196283,134.012342 80.4123437,141.270367 109.520985,141.270367 C144.271601,141.270367 176.18086,131.019133 197.065427,113.144442 L198.545674,111.877158 L159.482095,70.673455 L199.819131,30.5579622 L198.351847,29.2501227 C177.819749,10.9346294 144.612342,0 109.520985,0 L109.520985,0 Z" id="path16" fill="#2C3C88"></path>
                        <path d="M68.0759242,60.9642577 C74.1358006,50.1593815 93.9555532,40.945678 109.520985,40.9302459 C129.92654,40.9068508 138.563577,45.7708631 150.605552,55.1178999 L172.122218,33.4635177 C156.144441,23.7451846 133.99691,15.2365428 109.520985,15.2365428 C60.8000602,15.2365428 21.303518,41.5764804 21.303518,70.9993809 C21.303518,100.420368 60.8000602,126.253083 109.520985,126.253083 C133.717281,126.253083 155.641354,118.388269 171.579008,108.862343 L150.796293,86.6117262 C133.075923,97.9969111 125.055552,100.629627 109.520985,100.629627 C94.5771581,100.629627 74.5469117,91.0771582 68.2561711,80.4746893 L109.520985,80.4746893 L109.520985,60.9642577 L68.0759242,60.9642577" id="path18" fill="#2C3C88"></path>
                    </g>
                </g>
            </g>
        </g>
    </g>
</svg>