<?xml version="1.0" encoding="UTF-8"?>
<svg width="200px" height="200px" viewBox="0 0 200 200" version="1.1" xmlns="http://www.w3.org/2000/svg" xmlns:xlink="http://www.w3.org/1999/xlink">
    <!-- Generator: Sketch 54.1 (76490) - https://sketchapp.com -->
    <title>wis-stevens-point</title>
    <desc>Created with Sketch.</desc>
    <g id="wis-stevens-point" stroke="none" stroke-width="1" fill="none" fill-rule="evenodd">
        <g id="wis-stevens-point_BGL">
            <g id="wis-stevens-point" transform="translate(-1.000000, 45.000000)">
                <g id="g10" transform="translate(100.261497, 55.372789) scale(-1, 1) rotate(-180.000000) translate(-100.261497, -55.372789) translate(0.000000, 0.421776)" fill-rule="nonzero">
                    <g id="g12">
                        <path d="M162.405308,86.9839825 C159.961241,90.4740466 156.123925,96.0572623 156.123925,96.0572623 C130.256266,102.599325 112.590769,104.169767 112.590769,104.169767 C111.19752,106.132386 108.403309,109.88313 108.403309,109.88313 C101.903472,108.226309 94.3152188,104.77982 94.3152188,104.77982 C56.7163863,103.647058 35.1366416,98.9162575 35.1366416,98.9162575 C32.6459146,100.844363 30.3119427,102.241661 28.3229088,103.254495 C17.8816765,101.455187 7.91202034,99.1566923 0,97.1418218 C1.56658589,78.6185103 11.8510632,27.352686 76.5805025,0 C84.396079,9.19991783 94.1910488,15.6244432 99.2295747,18.5828707 C99.4555487,21.3763296 99.4202643,23.6110041 99.3425617,25.0057957 C103.503799,26.9551106 106.616726,28.0961636 108.610387,28.7326313 C115.851967,24.2195142 121.862258,21.8140096 121.862258,21.8140096 C122.882804,25.5655248 123.858233,30.2953609 124.306325,32.5360126 C137.390257,34.7571904 149.46579,33.466902 149.46579,33.466902 L162.868439,26.3300187 C196.443122,36.7439105 199.697764,72.1541503 199.697764,72.1541503 C182.947925,80.9654005 162.405308,86.9839825 162.405308,86.9839825" id="path14" fill="#FBBF16"></path>
                        <path d="M96.3111939,20.3143289 C96.3879325,21.1933523 96.3939096,23.9808147 95.7560922,26.7682772 C99.8872515,28.829615 104.452813,30.7019984 109.435038,32.1602248 C109.435038,32.1602248 114.413407,28.7121933 120.069698,26.0633617 C120.069698,26.0633617 121.41648,31.6488912 121.788411,35.2089455 C121.788411,35.2089455 132.497111,37.9520615 150.601638,36.4984626 L163.580103,29.5754063 C163.580103,29.5754063 190.449413,36.8547766 196.591586,70.4955937 C196.591586,70.4955937 182.665457,77.7350522 160.748294,84.3613731 L154.530924,93.4107444 C154.530924,93.4107444 135.426867,98.6075678 111.173418,101.29554 L107.463936,106.378027 C107.463936,106.378027 102.377978,104.90399 95.2717521,101.742282 C83.7023466,101.48623 59.8715385,100.373713 34.3482391,95.7418242 C32.1827836,97.4717207 29.4880631,99.1339406 27.8528366,100.087582 C20.1434988,98.6565416 10.9141388,96.6786908 4.07387527,94.9133172 C3.86224639,94.8583662 3.72139827,94.6549511 3.74700351,94.4380392 C8.09202829,57.633779 32.5955911,24.8733349 68.3881742,7.30194841 C68.7263639,7.1211885 72.6375264,5.20062168 75.6895249,3.99555562 C75.7452471,3.97446214 75.8025119,3.96165952 75.8590054,3.96165952 C75.9756558,3.96165952 76.0917277,4.0091102 76.1752147,4.09722463 C82.3187379,10.5066722 89.093523,15.9641176 96.3111939,20.3143289" id="path16" fill="#432C91"></path>
                        <path d="M178.19765,67.3217389 C178.255686,67.3994416 179.584923,69.0653249 183.520186,69.3801846 L183.460029,69.4073709 C177.24266,72.2272255 169.503822,75.7377275 154.022483,79.9666418 C154.020169,79.9666418 154.020169,79.9681843 154.020169,79.9697267 C151.45039,79.9003149 148.264581,79.5517134 145.229357,78.5101507 C145.248059,78.6524449 145.272161,78.7939679 145.272161,78.9445529 C145.272161,80.6686651 143.869849,82.0673129 142.148822,82.0673129 C140.424132,82.0673129 139.025484,80.6686651 139.025484,78.9445529 C139.025484,77.7614673 139.689716,76.7445843 140.657625,76.2158977 C140.589756,76.1646101 140.518223,76.1210349 140.449004,76.0697473 C140.449004,76.0697473 128.411069,76.8380974 130.12072,86.8619334 C130.12072,86.8619334 138.654131,86.2858154 152.301456,82.6494081 L149.17214,87.7959078 C147.900747,88.2393721 133.572608,93.0800743 111.095716,94.6 C110.964026,93.4633817 110.423192,89.1116471 109.655806,87.8718752 C109.594685,87.7800973 109.491532,87.726496 109.378545,87.743849 C109.269414,87.7596594 109.178986,87.8379405 109.148907,87.9441791 C109.132326,88.0112772 107.283272,94.5622092 103.481241,98.7288456 C101.85604,98.2159695 88.4344964,93.6774015 75.2427828,80.3530342 C75.8287341,78.3827029 82.5763328,57.6669424 110.071506,43.6609897 C110.811898,45.9891774 115.336199,61.3793171 112.530612,80.3921747 C112.511716,80.5157663 112.578043,80.6339592 112.688717,80.686018 C112.79804,80.7371128 112.933586,80.7093481 113.016302,80.615835 C113.095547,80.5248284 120.93214,71.33914 121.606205,54.7167478 C123.956181,53.0770868 129.151462,50.4282551 138.157065,50.4290264 C143.899928,50.4290264 150.211582,51.5234192 156.907122,53.6811623 C157.020109,53.7166394 157.140615,53.6796198 157.212148,53.5862995 C157.283681,53.4935576 157.289079,53.3655314 157.227187,53.2677764 L153.269365,47.0126159 C156.031183,47.0239917 174.311361,47.4179037 182.100522,55.6507223 C182.334016,56.0228467 182.55999,56.4015266 182.774588,56.7894615 C182.074107,57.5337103 179.178285,60.9161861 178.142699,67.1063695 C178.131324,67.1825297 178.152533,67.2600395 178.19765,67.3217389" id="path18" fill="#FDDD04"></path>
                        <path d="M103.566463,56.5696574 C88.0714341,67.7773503 84.4269287,78.9100398 84.4269287,78.9100398 C88.0187968,87.900604 99.4858199,96.2539291 102.709227,98.468937 C99.3124832,97.2744755 87.1850839,92.4142994 75.2427828,80.3530342 C75.8287341,78.3827029 82.5763328,57.6669424 110.071506,43.6609897 C110.796859,45.9446381 115.159198,60.7970292 112.677534,79.3076152 C110.819418,63.6606518 103.566463,56.5696574 103.566463,56.5696574" id="path20" fill="#FBBF16"></path>
                        <path d="M120.737787,62.3892589 C121.180673,60.0415974 121.493218,57.4855076 121.606205,54.7167478 C123.956181,53.0770868 129.151462,50.4282551 138.157065,50.4290264 C143.583718,50.4290264 149.518621,51.4179518 155.803667,53.3452863 C137.210365,52.0762071 125.548989,58.0623969 120.737787,62.3892589" id="path22" fill="#FBBF16"></path>
                        <path d="M156.327147,41.6268382 L164.103583,37.3878978 C170.226861,39.5834318 173.943671,42.3076523 175.962205,44.1852417 L174.410658,44.7900884 C167.771612,42.3573974 158.96711,41.7556357 156.327147,41.6268382" id="path24" fill="#FBBF16"></path>
                        <path d="M71.0159895,32.1850973 C80.6038807,37.8759013 89.3542028,41.2238641 91.8449298,42.1260248 C68.8167921,59.5611134 67.8677785,80.5443022 67.8625726,80.7567795 C67.8602588,80.8267697 67.8776118,80.8990737 67.9123177,80.9607731 C70.7094206,86.0137597 77.778049,91.5165734 80.645335,93.620908 C59.6710155,91.3952955 42.1547535,87.5321429 30.6553383,84.5158144 C36.5902405,63.076243 51.0134352,44.5107059 71.0159895,32.1850973" id="path26" fill="#FDDD04"></path>
                        <path d="M22.5806244,90.8959162 L12.0732581,88.584503 C12.0732581,88.584503 18.4073938,37.4594305 73.0270037,11.9429567 C73.0270037,11.9429567 73.4976543,12.3669857 74.2847071,13.0410707 C28.6691966,38.0544439 23.2261542,80.6678938 22.5806244,90.8959162" id="path28" fill="#FBBF16"></path>
                        <path d="M71.1027542,32.2356137 C80.6551683,37.895568 89.3632649,41.2275275 91.8449298,42.1260248 C68.8167921,59.5611134 67.8677785,80.5443022 67.8625726,80.7567795 C67.8602588,80.8267697 67.8776118,80.8990737 67.9123177,80.9607731 C70.708071,86.0108675 77.7659019,91.5082825 80.639165,93.6155093 C76.6956104,92.0338842 65.5993621,87.0329564 58.1663218,78.2510133 C58.1663218,78.2510133 58.9984922,63.1024652 69.143606,48.4428847 C69.143606,48.4428847 55.8308073,52.8383873 41.6914297,60.5974703 C49.0454177,49.3701107 59.0588419,39.6723174 71.1027542,32.2356137" id="path30" fill="#FBBF16"></path>
                    </g>
                </g>
            </g>
        </g>
    </g>
</svg>