<?xml version="1.0" encoding="UTF-8"?>
<svg width="200px" height="200px" viewBox="0 0 200 200" version="1.1" xmlns="http://www.w3.org/2000/svg" xmlns:xlink="http://www.w3.org/1999/xlink">
    <!-- Generator: Sketch 54.1 (76490) - https://sketchapp.com -->
    <title>wm-paterson</title>
    <desc>Created with Sketch.</desc>
    <g id="wm-paterson" stroke="none" stroke-width="1" fill="none" fill-rule="evenodd">
        <g id="wm-paterson_BGL">
            <g id="wm-paterson" transform="translate(0.000000, 29.000000)">
                <path d="M72.0173536,0.433839479 C74.6637744,0.173535792 77.3969631,0.347071584 80.0433839,0.563991323 C84.8590022,16.0954447 90.845987,31.0195228 96.4425163,46.2906725 C99.0889371,53.1453362 101.518438,60.0867679 104.208243,66.9414317 C106.854664,57.0065076 109.023861,46.8980477 111.496746,36.9197397 C111.887202,35.3579176 112.190889,33.7527115 112.451193,32.1908894 C111.32321,32.0173536 110.195228,31.9305857 109.067245,31.8004338 C108.720174,28.5466377 108.67679,25.2928416 108.980477,22.0390456 C111.019523,22.0390456 113.058568,22.0390456 115.05423,21.9956616 C115.704989,18.9587852 116.876356,15.7483731 116.91974,12.6247289 C117.180043,11.3665944 115.704989,10.9761388 114.750542,10.7592191 C111.75705,10.2819957 108.633406,10.2819957 105.596529,10.1518438 C105.553145,7.11496746 105.596529,4.12147505 105.553145,1.0845987 C109.544469,1.12798265 113.535792,1.12798265 117.527115,1.47505423 C121.735358,1.56182213 125.943601,1.64859002 130.10846,1.25813449 C133.145336,1.12798265 136.225597,1.12798265 139.305857,1.04121475 C139.349241,3.99132321 139.479393,7.02819957 139.175705,9.97830803 C137.223427,10.1952278 135.184382,10.1952278 133.275488,10.6290672 C132.147505,10.845987 131.453362,12.0607375 130.932755,13.0151844 C129.501085,15.9219089 128.67679,19.2190889 127.939262,22.3861171 C136.746204,22.6030369 145.553145,22.4295011 154.360087,22.2993492 C161.258134,22.0390456 168.286334,21.5618221 175.140998,22.4295011 C180.390456,22.9934924 185.726681,24.6420824 190.065076,27.6789588 C194.099783,30.4555315 197.006508,34.6637744 198.394794,39.3058568 C199.913232,44.0347072 199.956616,49.3709328 199.392625,54.2733189 C198.394794,62.6464208 194.707158,70.5422993 188.590022,76.3557484 C179.002169,85.3362256 164.425163,88.7635575 151.75705,85.4663774 C150.802603,85.3362256 150.412148,84.0780911 149.978308,83.340564 C149.154013,81.4750542 148.112798,79.6095445 147.548807,77.6572668 C148.02603,76.4859002 149.457701,75.010846 150.542299,74.4034707 C152.060738,74.3167028 153.665944,74.7939262 155.140998,75.0542299 C158.481562,75.7483731 161.995662,75.2711497 164.902386,73.4924078 C168.156182,71.5835141 170.368764,68.0260304 171.54013,64.5119306 C172.9718,60.1735358 173.058568,55.791757 172.711497,51.2798265 C172.277657,47.5488069 171.409978,43.6876356 169.370933,40.4772234 C167.375271,37.3969631 164.164859,35.3145336 160.563991,34.5770065 C156.052061,33.6225597 151.149675,33.7527115 146.681128,34.9240781 C146.637744,62.472885 146.681128,90.021692 146.681128,117.570499 C146.767896,120.997831 146.464208,124.72885 147.331887,128.069414 C147.548807,129.023861 148.199566,129.414317 149.110629,129.718004 C151.75705,130.455531 154.707158,130.281996 157.396963,130.542299 C158.915401,130.715835 160.433839,130.802603 161.952278,130.889371 C161.995662,134.229935 161.952278,137.570499 161.995662,140.954447 C159.436009,141.171367 156.91974,141.127983 154.360087,140.954447 C142.255965,140.607375 130.021692,140.694143 117.91757,140.867679 C114.880694,140.824295 111.887202,141.171367 108.893709,140.954447 C108.67679,138.091106 108.590022,135.184382 108.763557,132.321041 C108.893709,131.713666 108.720174,131.062907 109.501085,130.932755 C112.668113,130.32538 115.921909,130.542299 119.088937,129.934924 C119.869848,129.761388 120.911063,129.544469 121.43167,128.893709 C122.039046,127.722343 122.125813,126.247289 122.299349,124.94577 C122.559653,122.039046 122.472885,119.132321 122.516269,116.225597 C122.516269,94.4034707 122.516269,72.537961 122.516269,50.7158351 C122.516269,48.329718 122.559653,45.9869848 122.386117,43.6008677 C121.214751,46.9414317 120.477223,50.4989154 119.479393,53.9262473 C116.91974,63.6008677 114.446855,73.2754881 111.843818,82.9501085 C109.718004,90.845987 108.416486,98.8286334 106.637744,106.81128 C102.342733,106.854664 98.0043384,106.898048 93.7093275,106.767896 C91.8004338,101.214751 90.1518438,95.5748373 88.1127983,90.0650759 C81.691974,72.8416486 75.3579176,55.5748373 68.8937093,38.3947939 C67.2885033,41.8221258 65.9436009,45.3796095 64.4685466,48.8937093 C59.6963124,60.6073753 54.967462,72.3210412 50.1518438,84.0347072 C46.9414317,91.4967462 44.7288503,99.2190889 41.9956616,106.854664 C37.7874187,106.854664 33.5791757,107.0282 29.3709328,106.724512 C28.373102,100.954447 26.8980477,95.2711497 25.7700651,89.5444685 C20.5206074,64.8590022 15.1843818,40.3036876 9.93492408,15.6616052 C9.5010846,14.0130152 8.89370933,11.4099783 7.07158351,10.802603 C4.90238612,10.1518438 2.47288503,10.2819957 0.260303688,9.89154013 C0.21691974,6.94143167 0.260303688,3.99132321 0.260303688,1.04121475 C4.51193059,1.04121475 8.80694143,1.12798265 13.0585683,1.21475054 C18.6984816,1.64859002 24.3383948,1.47505423 29.978308,1.47505423 C34.7071584,1.12798265 39.3926247,1.12798265 44.164859,1.0845987 C44.208243,4.03470716 44.208243,6.98481562 44.208243,9.89154013 C41.691974,10.3687636 39.132321,10.1952278 36.659436,10.6724512 C35.6182213,10.8893709 34.4468547,11.5401302 34.2733189,12.6681128 C34.186551,14.3600868 34.6637744,16.0954447 34.967462,17.7440347 C36.0520607,22.7765727 36.9197397,27.8091106 38.0043384,32.8416486 C40.3470716,44.2950108 42.4295011,55.835141 44.9457701,67.2451193 C47.2017354,61.7353579 49.3275488,56.1388286 51.5401302,50.6290672 C57.8308026,34.6203905 64.2950108,18.6984816 70.2819957,2.55965293 C70.6724512,1.60520607 70.7592191,0.433839479 72.0173536,0.433839479 Z" id="Shape" fill="#F37C22" fill-rule="nonzero"></path>
                <path d="M73.6225597,4.12147505 C74.7505423,3.68763557 76.0954447,3.81778742 77.2668113,3.73101952 C78.5249458,7.3318872 79.6963124,10.9327549 80.9110629,14.5336226 C83.2104121,21.2581345 85.7700651,27.8524946 88.2429501,34.5336226 C93.2754881,47.8524946 98.1344902,61.2581345 103.253796,74.5336226 C104.208243,74.5336226 105.16269,74.5336226 106.160521,74.4902386 C109.631236,60.4338395 112.885033,46.2906725 116.312364,32.2342733 C118.004338,32.494577 119.609544,32.8416486 121.258134,33.318872 C120.520607,36.6160521 119.609544,39.9132321 118.741866,43.2104121 C115.227766,56.6160521 111.670282,69.978308 108.156182,83.3839479 C106.464208,89.978308 105.249458,96.5292842 103.904555,103.167028 C101.388286,103.383948 98.9154013,103.383948 96.3991323,103.210412 C94.6637744,98.1778742 93.1019523,92.9718004 91.2364425,87.9392625 C84.989154,71.0629067 78.6984816,54.186551 72.4511931,37.3101952 C71.3232104,34.3600868 70.3253796,31.3665944 69.0672451,28.4598698 C67.4186551,32.2776573 65.9002169,36.1388286 64.3383948,39.9566161 C58.1344902,55.1409978 51.9305857,70.3687636 45.7266811,85.5531453 C43.340564,91.3665944 41.6052061,97.3535792 39.4793926,103.210412 C37.1366594,103.29718 34.8373102,103.29718 32.494577,103.210412 C31.2364425,97.9175705 30.1952278,92.537961 28.9804772,87.2017354 C23.8611714,63.340564 18.6984816,39.4360087 13.5357918,15.5314534 C12.9718004,12.9718004 12.2776573,10.2386117 10.1952278,8.45986985 C8.4164859,6.98481562 6.11713666,6.94143167 3.90455531,6.68112798 C3.81778742,5.98698482 3.73101952,5.29284165 3.68763557,4.64208243 C5.77006508,4.59869848 7.85249458,4.64208243 9.97830803,4.68546638 C18.0911063,5.07592191 26.1605206,5.11930586 34.2733189,4.81561822 C36.3991323,4.68546638 38.5249458,4.59869848 40.6073753,4.64208243 C40.6073753,5.29284165 40.6073753,5.94360087 40.6073753,6.59436009 C38.6550976,6.81127983 36.5726681,6.81127983 34.7071584,7.37527115 C32.7114967,8.02603037 30.7158351,9.89154013 30.6290672,12.1041215 C30.5422993,14.5770065 31.1496746,17.1366594 31.626898,19.5661605 C35.3579176,38.0477223 38.9154013,56.5726681 42.6898048,75.010846 C43.5574837,74.967462 44.4685466,74.967462 45.3796095,74.8373102 C46.3340564,73.9262473 46.7245119,72.2776573 47.2451193,71.0629067 C55.2711497,50.4989154 63.6008677,30.021692 71.4533623,9.4143167 C72.1475054,7.63557484 72.6681128,5.77006508 73.6225597,4.12147505 Z" id="Shape" fill="#231F1F" fill-rule="nonzero"></path>
                <path d="M109.154013,4.59869848 C115.097614,4.72885033 121.041215,5.20607375 126.984816,4.94577007 C129.89154,4.81561822 132.798265,4.55531453 135.748373,4.64208243 C135.704989,5.3362256 135.704989,5.98698482 135.661605,6.68112798 C134.056399,6.85466377 131.97397,6.89804772 130.629067,7.80911063 C129.110629,8.85032538 128.069414,10.6724512 127.331887,12.3210412 C125.986985,15.4446855 125.206074,18.8720174 124.338395,22.1691974 C122.516269,22.2559653 120.737527,22.2559653 118.915401,22.0824295 C119.522777,18.35141 120.824295,15.1409978 120.520607,11.3665944 C120.347072,9.45770065 118.741866,8.19956616 117.006508,7.59219089 C114.62039,6.81127983 111.843818,6.85466377 109.327549,6.68112798 C109.240781,5.98698482 109.197397,5.29284165 109.154013,4.59869848 Z" id="Shape" fill="#231F1F" fill-rule="nonzero"></path>
                <path d="M112.624729,25.813449 C114.533623,25.5965293 116.4859,25.7700651 118.438178,25.7700651 C127.592191,25.813449 136.616052,26.3774403 145.770065,25.9869848 C151.54013,25.813449 157.353579,25.856833 163.123644,25.6832972 C165.900217,25.4663774 168.590022,25.4663774 171.366594,25.7266811 C176.91974,25.9869848 182.819957,27.2017354 187.505423,30.2819957 C191.193059,32.6247289 193.839479,36.3557484 195.05423,40.5639913 C196.746204,46.4642082 196.442516,52.494577 195.010846,58.3947939 C193.40564,64.9457701 189.67462,70.9327549 184.468547,75.1843818 C179.522777,79.2190889 173.40564,81.7353579 167.114967,82.6464208 C162.863341,83.340564 158.047722,83.4273319 153.926247,82.0390456 C152.885033,81.3015184 152.451193,79.4360087 151.887202,78.308026 C154.83731,78.6984816 157.483731,79.3058568 160.477223,78.8720174 C165.336226,78.2646421 169.718004,75.4446855 172.364425,71.3232104 C176.008677,65.856833 176.963124,58.9587852 176.4859,52.494577 C176.182213,47.4186551 175.140998,42.3861171 172.234273,38.1344902 C170.021692,34.8373102 166.681128,32.537961 162.906725,31.4099783 C159.002169,30.1952278 155.010846,30.4121475 150.976139,30.4989154 C148.156182,30.5856833 145.553145,31.3232104 143.036876,32.537961 C142.950108,57.0932755 143.036876,81.691974 142.993492,106.290672 C143.036876,111.236443 142.906725,116.095445 143.167028,121.041215 C143.29718,124.078091 143.08026,127.765727 144.425163,130.585683 C145.336226,132.494577 147.418655,133.101952 149.327549,133.492408 C152.277657,133.969631 155.27115,133.969631 158.221258,134.273319 C158.308026,135.314534 158.394794,136.312364 158.481562,137.353579 C154.229935,137.396963 149.978308,137.266811 145.726681,137.136659 C134.62039,136.659436 123.600868,137.310195 112.537961,137.353579 C112.537961,136.355748 112.537961,135.314534 112.537961,134.273319 C115.140998,133.926247 117.830803,133.926247 120.390456,133.40564 C122.342733,132.9718 124.208243,132.190889 124.989154,130.238612 C126.247289,127.071584 125.986985,123.08026 126.160521,119.739696 C126.37744,116.399132 126.290672,113.101952 126.290672,109.761388 C126.290672,89.2407809 126.290672,68.6767896 126.290672,48.1561822 C126.290672,45.856833 126.117137,43.5140998 126.073753,41.2147505 C126.030369,38.4815618 126.030369,35.4446855 124.989154,32.8850325 C124.251627,31.0195228 122.646421,29.8481562 120.737527,29.3709328 C118.047722,28.6767896 115.140998,28.6767896 112.407809,28.2863341 C112.494577,27.462039 112.537961,26.637744 112.624729,25.813449 Z" id="Shape" fill="#231F1F" fill-rule="nonzero"></path>
            </g>
        </g>
    </g>
</svg>