<?xml version="1.0" encoding="UTF-8"?>
<svg width="200px" height="200px" viewBox="0 0 200 200" version="1.1" xmlns="http://www.w3.org/2000/svg" xmlns:xlink="http://www.w3.org/1999/xlink">
    <title>wooster_BGL</title>
    <g id="wooster_BGL" stroke="none" stroke-width="1" fill="none" fill-rule="evenodd">
        <g id="wooster">
            <polygon id="Fill-1" fill="#F8C42C" points="8.36286822e-15 199.986549 200 199.986549 200 0 8.36286822e-15 0"></polygon>
            <polyline id="Fill-2" fill="#1A1919" points="8.36286822e-15 0 8.36286822e-15 8.68670428 8.68670428 0 8.36286822e-15 0"></polyline>
            <polyline id="Fill-3" fill="#1A1919" points="22.3624123 0 17.5765198 0 8.36286822e-15 17.5765198 8.36286822e-15 26.4649902 22.3624123 4.1025779 22.3624123 0"></polyline>
            <polyline id="Fill-4" fill="#1A1919" points="22.3624123 12.9923934 8.36286822e-15 35.3548057 8.36286822e-15 44.2432761 22.3624123 21.8808638 22.3624123 12.9923934"></polyline>
            <polyline id="Fill-5" fill="#1A1919" points="22.3624123 30.7706793 8.36286822e-15 53.1330917 8.36286822e-15 62.0229072 22.3624123 39.6604949 22.3624123 30.7706793"></polyline>
            <polyline id="Fill-6" fill="#1A1919" points="22.3624123 48.5489653 8.36286822e-15 70.9113776 8.36286822e-15 79.8011931 22.3624123 57.4387808 22.3624123 48.5489653"></polyline>
            <polyline id="Fill-7" fill="#1A1919" points="22.3624123 66.3285963 8.36286822e-15 88.6910086 8.36286822e-15 97.579479 22.3624123 75.2184118 22.3624123 66.3285963"></polyline>
            <polyline id="Fill-8" fill="#1A1919" points="22.3624123 84.1068822 8.36286822e-15 106.469295 8.36286822e-15 115.35911 22.3624123 92.9966978 22.3624123 84.1068822"></polyline>
            <polyline id="Fill-9" fill="#1A1919" points="22.3624123 101.886513 8.36286822e-15 124.24758 8.36286822e-15 133.137396 22.3624123 110.774984 22.3624123 101.886513"></polyline>
            <polyline id="Fill-10" fill="#1A1919" points="22.3624123 119.664799 8.36286822e-15 142.027212 8.36286822e-15 150.915682 22.3624123 128.554615 22.3624123 119.664799"></polyline>
            <polyline id="Fill-11" fill="#1A1919" points="22.3624123 137.443085 8.36286822e-15 159.805497 8.36286822e-15 168.695313 22.3624123 146.332901 22.3624123 137.443085"></polyline>
            <polyline id="Fill-12" fill="#1A1919" points="22.3624123 155.222716 8.36286822e-15 177.583783 8.36286822e-15 186.473599 22.3624123 164.111187 22.3624123 155.222716"></polyline>
            <polyline id="Fill-13" fill="#1A1919" points="22.3624123 173.001002 8.36286822e-15 195.363414 8.36286822e-15 199.986549 4.26668101 199.986549 22.3624123 181.890818 22.3624123 173.001002"></polyline>
            <polyline id="Fill-14" fill="#1A1919" points="22.3624123 199.986549 22.3624123 190.779288 13.1564965 199.986549 22.3624123 199.986549"></polyline>
            <polygon id="Fill-15" fill="#B3252F" points="8.36286822e-15 177.624137 200 177.624137 200 171.331724 8.36286822e-15 171.331724"></polygon>
            <polyline id="Fill-16" fill="#0A0B09" points="171.608816 39.512533 154.76807 22.6704419 137.925979 39.512533 151.672977 53.2581867 151.672977 114.375836 140.94171 125.105759 121.519702 105.683752 121.519702 39.512533 104.678956 22.6704419 87.8382105 39.512533 101.583864 53.2581867 101.583864 114.367766 90.8499062 125.101724 71.4305891 105.683752 71.4305891 39.512533 54.5898431 22.6704419 37.7490971 39.512533 51.4947507 53.2581867 51.4947507 119.429405 80.7266271 148.661282 105.771184 123.616725 128.761761 146.607303 128.764451 146.603267 130.823811 148.661282 171.610161 107.877622 171.608816 39.512533"></polyline>
        </g>
    </g>
</svg>