<?xml version="1.0" encoding="UTF-8"?>
<svg width="200px" height="200px" viewBox="0 0 200 200" version="1.1" xmlns="http://www.w3.org/2000/svg" xmlns:xlink="http://www.w3.org/1999/xlink">
    <!-- Generator: Sketch 54.1 (76490) - https://sketchapp.com -->
    <title>worcester-st</title>
    <desc>Created with Sketch.</desc>
    <g id="worcester-st" stroke="none" stroke-width="1" fill="none" fill-rule="evenodd">
        <g id="worcester-st_BGL">
            <g id="worcester-st" transform="translate(0.000000, 51.000000)">
                <g id="g10" transform="translate(100.092334, 48.568793) scale(-1, 1) rotate(-180.000000) translate(-100.092334, -48.568793) translate(0.184672, 0.000003)" fill-rule="nonzero">
                    <g id="g12" transform="translate(0.332410, 0.000000)">
                        <path d="M168.474973,36.7320397 C170.886422,37.0145882 174.100088,37.886241 178.061307,39.3337017 L182.361584,40.9052621 L178.061307,42.4764532 C173.15235,44.2699897 169.391686,45.1796849 166.883468,45.1796849 L131.475528,45.1796849 C131.061493,45.4278844 130.650782,45.6716517 130.248196,45.9091401 C128.923358,48.6363792 127.34441,51.0880874 125.550874,53.2018454 C121.584115,57.8788536 116.479037,60.9333318 111.112832,61.8563235 C111.000921,62.0424731 110.876821,62.2201277 110.741641,62.3885488 C110.712463,62.4269606 110.627883,62.5469975 110.521142,62.6999061 C113.077005,65.7056309 115.020865,69.1597397 115.890302,72.2574312 L116.399628,74.0694349 L116.411077,74.1156029 C117.388732,78.1939039 117.303414,81.5368401 116.142933,84.6356396 C115.433792,86.5303764 114.355306,88.2120015 113.019018,89.5098777 C112.824374,91.9741436 111.21514,94.2633402 108.685131,95.6590927 C106.8831,96.6537372 105.048566,97.1375784 103.077744,97.1375784 C99.5582616,97.1375784 96.4553993,95.6199422 93.1700808,94.012186 C90.18467,92.5510596 87.0973201,91.0400716 83.9508751,91.0400716 C83.4541069,91.0400716 81.8474587,91.1460734 80.379684,91.6376708 C80.3708198,91.6398869 79.5253904,91.9120937 78.1421956,92.4520753 L75.2879021,93.5656486 L76.5931652,90.7937189 C78.0472741,87.7067383 80.055769,86.4539221 80.3312999,86.2932573 L80.354938,86.2792222 C83.4005519,84.3198502 86.4616784,83.5457043 88.8144022,83.2701734 L88.3335158,82.3213276 C87.7783912,81.2251134 87.3540144,80.065372 87.0718353,78.8768217 L86.9964891,78.5617709 L87.0201271,78.243396 C87.206646,75.7263139 87.6520754,73.3366556 88.3128325,71.2986132 L88.2696192,71.2387794 C87.4703579,71.0097859 86.6555842,70.7205892 85.8404411,70.3774682 C83.5312999,71.3602937 80.9399795,71.8578006 78.1285299,71.8578006 C70.5063694,71.8578006 61.9327778,68.0059078 56.9673116,62.4162496 L55.6782996,62.7623253 L54.4975056,61.3584472 C53.7255758,60.4387797 53.0352711,59.4293614 52.4465361,58.358632 L51.59926,56.8188351 C49.7614023,55.4958435 48.2666655,53.8419192 47.371744,52.1388722 C46.2614947,50.0247448 46.0879028,47.9597403 46.8550311,46.2271457 L32.1755117,46.2271457 L28.424376,40.9015687 L31.3622522,36.731301 L6.88380408,36.7305623 L0.474086784,19.1088084 C0.245267953,18.4705443 -0.450570626,16.5300458 0.604801462,14.498947 C2.13599256,11.4046535 5.09030458,11.4046535 6.51157878,11.4046535 L23.1662783,11.4046535 C25.3605534,11.4046535 26.7752902,11.7780606 28.2134434,12.7630283 L61.0544768,12.7630283 C58.1850401,4.94374872 58.1488443,4.76712823 58.125945,4.65676812 L58.1111712,4.58363793 C57.8659265,3.24316151 58.0864251,2.1492668 58.7671269,1.33266848 C59.8784842,0 61.7769144,0 62.4915959,0 L72.0132946,0 L72.9115402,0.00735804229 L117.312278,0.00735804229 L117.308584,0 L128.618279,0 C131.591871,0 133.789101,1.27236193 135.149396,3.78175429 L135.185592,3.85041542 C135.224004,3.92472751 135.308953,4.09093249 137.512831,10.1532038 L141.989655,10.1532038 L142.954752,12.7630283 L183.689377,12.7630283 C186.67885,12.7630283 189.503227,13.8607937 190.88753,15.559778 L191.936468,16.8125204 L199.170078,36.7320397 L168.474973,36.7320397" id="path14" fill="#FFFFFF"></path>
                        <path d="M197.420124,35.4876445 L197.409413,35.4876445 L197.417908,35.511024 L144.239332,35.5105808 C143.142379,36.2684755 141.982268,37.0544774 140.78116,37.8515226 L166.883468,37.8515226 C169.249119,37.8515226 172.869432,38.7364718 177.642101,40.4808854 L178.804428,40.9052621 L177.642101,41.3292695 C172.869432,43.0736831 169.249119,43.9586323 166.883468,43.9586323 L131.137208,43.9586323 C130.519664,44.3294541 129.908769,44.692889 129.308584,45.0452436 C127.996303,47.8120025 126.420311,50.2895648 124.619757,52.4118177 C120.687347,57.0474593 115.610339,60.0029533 110.309877,60.7457049 C110.178391,61.0618637 110.001105,61.3606633 109.781715,61.6336088 C109.710062,61.7222515 109.320034,62.2866097 108.925944,62.8524453 C109.052998,62.9348091 109.143488,62.9975977 109.194457,63.0352708 C111.836008,66.0158802 113.84635,69.4932577 114.714309,72.5876251 L115.223635,74.3999981 C116.141456,78.2312076 116.069803,81.3477357 114.998704,84.2072001 C114.334254,85.9837467 113.319295,87.5486589 112.064632,88.7338851 L111.828252,88.9573385 L111.810154,89.2819922 C111.697504,91.3839312 110.309139,93.3684187 108.094919,94.5898407 C106.477929,95.4821767 104.836562,95.9161564 103.077744,95.9161564 C99.8404407,95.9161564 96.8609394,94.4587234 93.7067382,92.9152331 C90.5961196,91.3927955 87.3802379,89.8193883 83.9508751,89.8186496 C83.2638945,89.8186496 81.557154,89.9556764 80.0070155,90.474236 C79.9638022,90.4882711 79.0928881,90.7700808 77.6982437,91.3144945 C79.0548457,88.4336081 80.9300072,87.3565998 80.9521679,87.3447808 L81.0001826,87.3156026 C84.4421032,85.0965814 87.9098778,84.4938114 90.2127401,84.3785759 L91.2786681,84.3246516 L90.9455194,83.3111706 C90.8908565,83.1442269 90.8395176,82.9787606 90.7926108,82.8144024 L90.6445037,82.2995363 L90.0550301,82.2234513 L89.6199424,82.1580774 L89.4230818,81.769527 C88.9111704,80.7582621 88.5200347,79.6897487 88.2596469,78.5931652 L88.228622,78.4620479 L88.2382249,78.333516 C88.4306534,75.7366555 88.9056303,73.294181 89.6136635,71.2624174 C89.6402563,71.2166187 89.6686958,71.1700813 89.695658,71.1239133 L89.0057226,70.1743288 C87.9944576,69.9098782 86.949213,69.5394258 85.8987975,69.0722051 L85.8337929,69.0437656 C83.5608474,70.1011986 80.9698964,70.636748 78.1285299,70.636748 C70.5540149,70.636748 62.0524454,66.6951045 57.393535,61.0360096 C57.3056311,61.0603863 57.2180964,61.0843937 57.1316699,61.1080317 L56.1126486,61.3809772 L55.4330549,60.573221 C54.712464,59.7148646 54.0675887,58.7719284 53.5161575,57.769897 L52.5337014,55.9841168 C50.7457051,54.7438583 49.297875,53.178946 48.452815,51.5708205 C47.3850404,49.5379489 47.3322241,47.5992601 48.3039692,46.1119102 C48.3146802,46.0952897 48.3250219,46.0794079 48.3368409,46.0631567 C48.1602943,45.715973 47.9896572,45.3614024 47.827515,45.0060931 L32.8091959,45.0060931 L29.9183372,40.9015687 L32.8091959,36.7978199 L46.850599,36.7978199 C47.28384,36.3354008 47.9246525,35.8988357 48.6670348,35.5102854 L7.73891024,35.5102854 L1.62338315,18.6969155 C1.30237116,17.8005166 0.961883632,16.4505259 1.69364723,15.0512277 C2.79518737,12.8136654 4.75719286,12.6261123 6.51157878,12.6261123 L23.1662783,12.6261123 C25.25204,12.6261123 26.4609412,12.9661677 27.8211627,13.9841548 L62.8033225,13.9841548 C62.8033225,13.9841548 59.3676809,4.63080321 59.3226209,4.41252067 L59.3126486,4.36373027 C58.73721,1.22143303 61.563064,1.22143303 62.4915959,1.22143303 L72.0132946,1.22143303 L72.0151413,1.22879037 L96.413294,1.22879037 L100.174328,1.22879037 L119.099535,1.22879037 L119.09695,1.22143303 L128.618279,1.22143303 C129.546811,1.22143303 132.372296,1.22143303 134.076082,4.36373027 L134.101566,4.41252067 C134.214586,4.63080321 137.60369,13.9841548 137.60369,13.9841548 L183.689377,13.9841548 C186.288453,13.9841548 188.802581,14.9293071 189.944594,16.3356967 L190.862045,17.4316154 L197.420124,35.4876445" id="path16" fill="#171E52"></path>
                        <path d="M98.3759902,37.8515226 C97.9619551,37.8515226 97.5626938,37.8301006 97.1748822,37.7916888 C96.9215119,37.0445051 96.6422875,36.2833232 96.3394251,35.5105808 L121.497689,35.5105808 C122.010339,36.3489557 122.611262,37.1309317 123.298243,37.8515226 L98.3759902,37.8515226" id="path18" fill="#253B7D"></path>
                        <path d="M122.431022,35.5105808 L140.753828,35.5105808 C139.277928,36.3612179 137.790578,37.1493989 136.320218,37.8515226 L124.436562,37.8515226 C123.653552,37.1202207 122.988732,36.3349945 122.431022,35.5105808" id="path20" fill="#253B7D"></path>
                        <path d="M56.701753,59.5076624 C56.0373024,58.7165267 55.4596477,57.8648185 54.9680503,56.9713744 C55.3566006,56.9163421 55.7418269,56.8528148 56.1240983,56.7796846 C57.3041537,57.2236366 58.4779302,57.4626024 59.5412727,57.4626024 C61.1988904,57.4626024 62.4912265,56.881993 63.1800538,55.8275148 C63.5301923,55.291596 63.6912265,54.6666653 63.6871637,53.9918731 C63.743304,53.9593708 63.7983364,53.9253911 63.854846,53.8921501 C65.7455201,53.4903034 67.4633409,52.5004604 69.0049844,51.3957513 C66.2954739,55.1324086 61.8747907,58.1185581 56.701753,59.5076624" id="path22" fill="#253B7D"></path>
                        <path d="M66.210894,54.4598324 C65.9416419,54.1189275 65.6867943,53.7687891 65.4478285,53.4090476 C66.7191119,52.910802 67.9028607,52.1850402 68.9975975,51.4012914 C68.2053538,52.4908574 67.2705431,53.5183735 66.210894,54.4598324" id="path24" fill="#171E52"></path>
                        <path d="M77.6934422,46.5854097 C77.6915955,46.5854097 77.6897488,46.5854097 77.687902,46.5854097 C76.2954736,46.5854097 74.8989824,46.716527 74.118927,46.8491216 C73.3794996,46.7261299 72.6433962,45.9833784 72.0428422,44.7538308 C70.9806076,42.5806084 70.4952891,39.0692511 71.5305615,37.107663 C72.5115402,37.2014764 73.3566002,37.2454284 74.1835623,37.2454284 C74.6382253,37.2454284 75.0910415,37.2306547 75.5608476,37.2029538 C74.8797765,40.0280692 75.3998134,44.4469056 77.6934422,46.5854097" id="path26" fill="#253B7D"></path>
                        <path d="M77.2040609,46.0631567 C76.1152336,46.0845787 74.3626944,46.1820856 73.3436731,46.4915963 C73.0685116,46.2836554 72.8003675,45.99372 72.547736,45.6273303 C73.7037839,45.092889 75.1405337,44.8328705 76.3508753,44.7264993 C76.5913185,45.2136646 76.8753443,45.6642648 77.2040609,46.0631567" id="path28" fill="#F0DD4D"></path>
                        <path d="M75.297505,39.1338864 C74.0927036,39.1767303 72.3881792,39.1457054 71.0083085,38.9665734 C71.0622328,38.4805161 71.1608477,38.0221597 71.3111709,37.6099714 C72.6928883,37.7636186 74.3239132,37.7828245 75.450783,37.7348098 C75.372482,38.1761763 75.3204044,38.6467211 75.297505,39.1338864" id="path30" fill="#171E52"></path>
                        <path d="M48.1218825,43.1892879 C48.1429351,43.2424735 48.1647264,43.2960285 48.1861484,43.3492141 L33.6687711,43.3492141 L31.9448191,40.9015687 L33.6687711,38.4542927 L47.1098788,38.4542927 C46.9240985,39.8544773 47.7133875,42.1329629 48.1218825,43.1892879" id="path32" fill="#253B7D"></path>
                        <path d="M33.8585033,42.979131 L32.8918551,41.6059085 L47.5763608,41.6059085 C47.7333321,42.1277921 47.9017532,42.6060931 48.0417347,42.979131 L33.8585033,42.979131" id="path34" fill="#F0DD4D"></path>
                        <path d="M70.9444119,49.0352712 C68.8993519,50.6873487 66.4291765,52.6810698 63.619943,53.2476441 C63.2613096,51.1785767 61.5220668,48.797044 58.8742368,47.0681429 C58.060571,46.5366563 57.2096015,46.0989832 56.3593707,45.7654652 C54.4169885,42.5222519 53.4559543,39.2336094 53.4020301,37.3292696 C55.3673116,36.6015873 57.3100632,36.2537387 59.3754371,36.2537387 C61.1770991,36.2537387 62.9037842,36.5141634 64.5739596,36.7656501 C66.2496752,37.018651 67.9830085,37.2797775 69.7975975,37.2797775 C70.1122789,37.2797775 70.4195735,37.2701745 70.7228052,37.2550314 C69.8707277,39.4566934 70.3763602,42.8882722 71.4337932,45.0518918 C71.9597397,46.1285307 72.6068311,46.8893802 73.3045226,47.2690662 C72.6009215,47.6986138 71.8090471,48.3372102 70.9444119,49.0352712" id="path36" fill="#253B7D"></path>
                        <path d="M70.3183731,39.1922428 C70.146628,39.1970443 69.9734055,39.2003684 69.7975975,39.2003684 C67.943858,39.2003684 66.1916881,38.9359178 64.4952892,38.6807008 C62.8446891,38.4317627 61.1379486,38.1739603 59.3754371,38.1739603 C57.3987059,38.1739603 55.5383181,38.5019381 53.655031,39.1907654 C53.5516145,38.7157885 53.4795924,38.2758993 53.4389645,37.8784847 C55.3957512,37.1349945 57.3229903,36.7807932 59.3754371,36.7807932 C61.1379486,36.7807932 62.8446891,37.0382262 64.4952892,37.2871643 C66.1916881,37.5427507 67.943858,37.8068319 69.7975975,37.8068319 C70.0517065,37.8068319 70.3006446,37.8012918 70.5469973,37.7909501 C70.4284378,38.2286232 70.3541995,38.7006454 70.3183731,39.1922428" id="path38" fill="#171E52"></path>
                        <path d="M50.0276996,45.7414578 C48.2626027,42.4273304 47.3240985,38.8746066 47.9434891,38.0690665 C48.4901188,37.3159732 50.6518916,36.2057239 53.0083089,35.7019012 C52.8975056,35.8948098 52.8184659,36.1410887 52.7711898,36.4395928 C52.4749756,38.3224367 53.4670347,41.9516148 55.3975979,45.4304698 C54.4849479,45.1571549 53.5903957,45.0120026 52.7619562,45.0120026 C51.6686968,45.0120026 50.7349941,45.2664809 50.0276996,45.7414578" id="path40" fill="#253B7D"></path>
                        <path d="M72.8299151,46.9451512 C72.149952,47.3850404 71.4134793,47.9796849 70.6138487,48.6249295 C68.6134794,50.2400726 66.1964896,52.1913191 63.5039689,52.7320393 C63.3857787,52.3035998 63.2110788,51.865188 62.9868867,51.4256682 C65.886979,51.0485675 68.4860555,48.9495833 70.6138487,47.2317624 C71.1183731,46.8240062 71.5970435,46.437672 72.0531838,46.0971364 C72.2980591,46.4369333 72.5584469,46.7213285 72.8299151,46.9451512" id="path42" fill="#F0DD4D"></path>
                        <path d="M62.6123715,55.456693 C61.3133872,57.4459819 57.3676809,57.169343 53.7994446,54.8387798 C50.2312083,52.5085859 48.3915039,49.007201 49.6908575,47.017912 C50.9898418,45.0286231 54.935548,45.305262 58.5037843,47.6358252 C62.0720206,49.9663884 63.9113557,53.467404 62.6123715,55.456693" id="path44" fill="#253B7D"></path>
                        <path d="M52.7409036,37.6875337 C50.8557697,38.1669427 49.0437661,39.0367488 47.8589092,39.9364718 C47.7647264,39.4046158 47.7322241,38.9536463 47.7691585,38.6108947 C48.9639877,37.6783001 50.8472748,36.7663518 52.8022147,36.2788541 C52.7915038,36.3309317 52.7796847,36.3841911 52.7711898,36.4395928 C52.7150495,36.796675 52.7069239,37.2184663 52.7409036,37.6875337" id="path46" fill="#171E52"></path>
                        <path d="M62.1710049,55.168235 C61.7122792,55.8707281 60.7785765,56.2574316 59.5412727,56.2574316 C58.016619,56.2574316 56.2105249,55.6816237 54.5207743,54.6670346 C56.0469053,55.2672193 57.727053,55.5974132 58.880885,55.5974132 C60.1178194,55.5974132 61.051522,55.2103403 61.5106171,54.5074779 C62.3198507,53.2683274 61.5940889,51.2243755 59.8947353,49.3820856 C62.0565081,51.3769147 63.0792228,53.7780227 62.1710049,55.168235" id="path48" fill="#F0DD4D"></path>
                        <path d="M50.7929812,47.9667578 C50.2740523,48.761587 50.3641723,49.9150495 51.0474595,51.2155112 C51.3820855,51.853369 51.8382259,52.4823625 52.3903957,53.0814391 C51.5346248,52.2939968 50.8469055,51.4315777 50.3867023,50.5551234 C49.7037845,49.2546617 49.6132952,48.1011992 50.132224,47.3060007 C50.5909498,46.603877 51.5246525,46.216804 52.7619562,46.216804 C54.2866099,46.216804 56.0934427,46.7929813 57.7835627,47.8075704 C56.2574316,47.2077551 54.5769146,46.8775612 53.4227133,46.8775612 C52.1857789,46.8775612 51.2520763,47.2642647 50.7929812,47.9667578" id="path50" fill="#171E52"></path>
                        <path d="M117.498058,47.3414577 C117.729637,46.2666655 117.894365,45.1346249 117.978575,43.9586323 L127.987808,43.9586323 C123.721511,53.2088629 116.762324,58.4066467 109.489563,59.1759911 C109.458538,58.7124639 109.320034,58.2072008 109.070357,57.6638951 C109.0349,57.5870715 108.997597,57.5106172 108.958446,57.4341629 C112.908215,55.591873 116.571373,51.6413653 117.498058,47.3414577" id="path52" fill="#253B7D"></path>
                        <path d="M98.737209,43.9586323 L114.033607,43.9586323 C114.047273,44.7903959 114.01514,45.6051697 113.932407,46.3966747 C113.493995,50.6060929 111.756969,54.1436736 108.210524,56.2389644 C106.497135,53.9471824 103.323728,51.9098787 99.8474583,51.9098787 L99.7662025,51.899537 C99.4363779,51.899537 99.1072921,51.9120947 98.7796836,51.9397956 C99.2088618,49.4814392 99.1959347,46.826961 98.737209,43.9586323" id="path54" fill="#253B7D"></path>
                        <path d="M117.498058,47.3414577 C116.571373,51.6413653 112.908215,55.591873 108.958446,57.4341629 C108.997597,57.5106172 109.0349,57.5870715 109.070357,57.6638951 C109.668326,58.9676809 109.636562,60.0535534 108.988732,60.8598323 C108.572481,61.3769144 108.261862,61.5985211 108.091595,61.6912265 C108.022158,61.7791305 107.807938,61.9922422 107.659462,62.1355478 C106.562878,61.585594 104.897135,60.9015682 102.658169,60.3959357 C96.3855932,62.352353 92.8151408,66.3191119 90.5950116,69.6831008 C90.4997207,69.4507831 90.4214197,69.2602014 90.3623246,69.1168958 L90.1344391,69.0655569 C89.0334234,68.8169881 87.8821769,68.4284378 86.7124632,67.9087702 L86.2699886,67.713387 L86.2504134,67.5416419 C86.1215122,66.3822698 86.1204041,65.2498599 86.2459812,64.1547537 C85.7082158,64.1351785 84.3253903,64.0738673 84.0265907,64.0505986 C77.9778374,63.5885487 71.1024913,60.2522607 66.621605,54.9628795 C68.0535532,53.6856866 69.5977822,51.8792231 70.3981515,50.2914115 C75.1475512,57.6867945 81.8555843,61.4541074 86.7290837,61.8156956 C87.1900255,60.2795922 87.9250209,58.8365636 88.9373939,57.5172654 C90.9462581,54.8993523 94.0055378,52.9477364 97.5132016,52.133332 C98.2522598,51.9619562 99.0068304,51.899537 99.7662025,51.899537 L99.8474583,51.9098787 C103.323728,51.9098787 106.497135,53.9471824 108.210524,56.2389644 C111.756969,54.1436736 113.493995,50.6060929 113.932407,46.3966747 C114.01514,45.6051697 114.047273,44.7903959 114.033607,43.9586323 L117.978575,43.9586323 C117.894365,45.1346249 117.729637,46.2666655 117.498058,47.3414577" id="path56" fill="#171E52"></path>
                        <path d="M84.0265907,64.0505986 C84.3253903,64.0738673 85.7082158,64.1351785 86.2459812,64.1547537 C86.1403487,65.0758987 86.1255749,66.023267 86.1998132,66.9902107 C77.6768217,71.8999059 64.2271452,67.0603861 58.4232672,59.6716513 C61.5305617,58.625668 64.3593705,56.9846708 66.6411802,54.945151 C66.634532,54.9506911 66.6282532,54.95697 66.621605,54.9628795 C71.1024913,60.2522607 77.9778374,63.5885487 84.0265907,64.0505986" id="path58" fill="#253B7D"></path>
                        <path d="M83.4965815,40.9082169 C83.4965815,43.5113563 84.2710967,45.9896572 85.7104318,48.0879028 C85.3639868,48.2614946 84.9421955,48.4350865 84.4476433,48.6086784 C82.6445039,47.7130182 80.7722971,47.048937 78.8816231,46.6341632 C76.1004598,45.016804 75.4903028,39.9242834 76.2899335,37.0943666 C77.1335161,36.0539234 79.9482898,34.0968413 81.3750672,33.5597037 C82.8088622,33.5911349 84.1532758,33.9036372 85.2531835,34.4498606 C84.1089545,36.3858901 83.4965815,38.5968596 83.4965815,40.9082169" id="path60" fill="#253B7D"></path>
                        <path d="M84.7959351,46.5229905 C84.9846701,46.9060007 85.1933497,47.2794079 85.4208658,47.6428428 C85.1752518,47.7628797 84.8675879,47.895105 84.4794069,48.0369332 C83.0334236,47.3340708 80.0480128,46.1388723 78.0698041,46.0062777 C77.6845779,45.6273303 77.3562308,45.1708207 77.0821772,44.6614947 C78.8764523,44.2803313 82.7630635,45.8090478 84.4794069,46.6433968 C84.5916876,46.6023996 84.6965814,46.562141 84.7959351,46.5229905" id="path62" fill="#F0DD4D"></path>
                        <path d="M84.4476433,36.0660379 C83.5619554,35.7210702 82.5440423,35.517229 81.467034,35.4825845 C80.2589084,35.9715596 77.2173573,37.9246528 75.9663878,39.609602 C75.9708199,39.0699898 76.0114478,38.5477368 76.0853167,38.0624183 C77.4001827,36.413591 80.2954735,34.5628431 81.467034,34.0890481 C82.7722971,34.131892 83.9933497,34.4184294 84.9927957,34.9101007 C84.7907643,35.2860933 84.6094162,35.6723167 84.4476433,36.0660379" id="path64" fill="#171E52"></path>
                        <path d="M87.6158796,49.4489369 C85.3466276,47.1601096 84.0989822,44.1348096 84.0989822,40.9082169 C84.0989822,37.6805161 85.3473663,34.654182 87.6180957,32.3652439 C88.8879017,34.3187434 92.2958426,38.4542927 98.3759902,38.4542927 L166.883468,38.4542927 C169.114677,38.4542927 172.531852,39.2786694 177.04524,40.9052621 C172.531852,42.5311162 169.114677,43.3554929 166.883468,43.3554929 L98.3759902,43.3554929 C92.2932572,43.3554929 88.884947,47.4932583 87.6158796,49.4489369 L87.6158796,49.4489369" id="path66" fill="#253B7D"></path>
                        <path d="M173.78356,41.6059085 C170.839516,42.5181891 168.52705,42.979131 166.883468,42.979131 L98.3759902,42.979131 C93.1959349,42.979131 89.0614936,46.226407 87.3769138,49.195936 C86.5392407,48.3028612 85.8515214,47.3056313 85.3263137,46.2334245 C88.0258519,44.2496757 93.6834695,41.6059085 98.3759902,41.6059085 L173.78356,41.6059085" id="path68" fill="#F0DD4D"></path>
                        <path d="M74.3335161,47.5013839 C75.0999058,47.3795002 76.3922419,47.2627874 77.687902,47.2627874 C78.0502289,47.2627874 78.3915031,47.2727597 78.7139408,47.2908575 C80.578022,47.6975057 82.4243747,48.3549388 84.2016599,49.2435814 L84.3999979,49.3429351 L84.6097855,49.2701742 C85.20443,49.06408 85.7048917,48.8550311 86.1141253,48.6419194 C86.4823616,49.1213284 86.8856857,49.5793155 87.3259443,50.009971 L87.7263136,50.4022148 L88.0243745,49.9279766 C89.1324077,48.1673118 92.3017521,44.1196665 98.0395174,43.9652805 C98.5263133,46.9204051 98.5285294,49.5974133 98.0853161,52.0225287 C97.8939957,52.0528149 97.7030446,52.08938 97.5132016,52.133332 C94.0055378,52.9477364 90.9462581,54.8993523 88.9373939,57.5172654 C87.9250209,58.8365636 87.1900255,60.2795922 86.7290837,61.8156956 C81.8629712,61.4544768 75.1686038,57.6975055 70.4199428,50.3246525 C70.7460739,50.0668501 71.0626021,49.8112638 71.3698966,49.5630643 C72.4919649,48.6570625 73.5597396,47.795382 74.3335161,47.5013839" id="path70" fill="#253B7D"></path>
                        <path d="M108.496396,60.5879948 C108.695842,59.1575239 107.751059,58.2496754 107.751059,58.2496754 C108.574328,60.0956587 107.887347,61.1859634 107.336285,61.7093244 C107.21514,61.1708203 107.059277,60.6851324 106.91117,60.2880871 C101.546443,55.9929811 92.789656,60.7578932 90.140718,68.0923344 C88.9924262,67.8149568 87.9150486,67.4459817 86.9854087,67.0722052 C86.9669415,66.6814388 86.9639867,66.2958432 86.9765445,65.9161572 C87.8289913,66.2518912 88.8646331,66.6566927 89.8216044,66.7457047 C90.8513366,63.3569698 98.5577076,54.8720208 106.089009,59.1896569 C105.762878,58.4616791 105.084762,57.858909 103.92539,57.5560466 C104.908585,57.4075701 105.586701,57.5826394 106.189471,58.0099708 C105.81274,57.1815313 104.607938,56.503415 103.352906,56.1015683 C104.808492,56.0265914 105.988548,56.5787613 106.891964,57.381716 C104.881253,53.9837475 101.668326,52.6910421 98.5632478,52.800368 C105.233238,51.6845786 110.596119,58.1455202 108.496396,60.5879948" id="path72" fill="#253B7D"></path>
                        <path d="M117.168603,35.5105808 C117.376913,36.2977646 117.547181,37.0795928 117.678667,37.8515226 L113.157153,37.8515226 C112.956969,37.0795928 112.723543,36.2984663 112.456507,35.5105808 L117.168603,35.5105808" id="path74" fill="#171E52"></path>
                        <path d="M96.4118166,37.6915965 C94.3431186,37.3499529 92.6677724,36.495253 91.354753,35.5105808 L95.6029524,35.5105808 C95.8954731,36.2504146 96.1662026,36.9780231 96.4118166,37.6915965" id="path76" fill="#253B7D"></path>
                        <path d="M103.283469,91.376175 C96.4110779,93.4463504 91.8271445,85.2646331 91.2794068,81.0736822 C93.7931648,76.75383 103.631761,75.1449658 107.804245,75.8378559 C108.700274,78.8941809 110.634162,89.1630633 103.283469,91.376175" id="path78" fill="#253B7D"></path>
                        <path d="M95.2989819,80.9288992 C95.3082155,80.7929804 95.3285295,80.6688807 95.3536449,80.5617708 C95.7440419,80.1828235 96.1961195,79.8629712 96.4472737,79.6956582 C96.4616781,79.3296379 96.5547529,78.9647256 96.6445036,78.6914108 C99.2801453,76.9510599 103.770265,76.3231745 106.12225,76.3501366 C102.888271,78.93407 98.6219735,80.8930728 95.2989819,80.9288992" id="path80" fill="#171E52"></path>
                        <path d="M106.12225,76.3501366 C105.951244,76.486794 105.776175,76.620866 105.599259,76.75383 C102.509323,76.8845779 99.0770058,77.6901181 97.0278831,78.9820848 C96.9680493,79.1903951 96.9096929,79.4529989 96.8986125,79.7137561 L96.891595,79.8825465 C96.5111703,80.1034144 95.8869782,80.5396102 95.4500438,80.9240977 C95.3994436,80.9259444 95.3484741,80.9285298 95.2989819,80.9288992 C95.3082155,80.7929804 95.3285295,80.6688807 95.3536449,80.5617708 C95.7440419,80.1828235 96.1961195,79.8629712 96.4472737,79.6956582 C96.4616781,79.3296379 96.5547529,78.9647256 96.6445036,78.6914108 C99.2801453,76.9510599 103.770265,76.3231745 106.12225,76.3501366" id="path82" fill="#F0DD4D"></path>
                        <path d="M101.030468,78.6762677 C100.932961,78.5285299 100.766018,78.4317617 100.575805,78.4317617 C100.274051,78.4317617 100.029545,78.675529 100.029545,78.9772833 C100.029545,79.0319463 100.040256,79.0832852 100.05466,79.132408 C99.7296374,79.2661107 99.3865164,79.3879943 99.0271443,79.4921494 C99.1534601,78.7168955 99.8238202,78.1248365 100.633792,78.1248365 C100.965833,78.1248365 101.274605,78.2249288 101.532038,78.3951966 C101.373959,78.4897487 101.205538,78.5831929 101.030468,78.6762677" id="path84" fill="#F0DD4D"></path>
                        <path d="M101.115787,92.0073846 C101.856692,92.0073846 102.615695,91.8928878 103.370635,91.6653717 C106.603137,90.6917798 108.52779,88.0247439 108.936285,83.9530912 C109.270911,80.6156951 108.518187,77.3255752 108.19575,76.1185577 C114.255583,87.1013829 106.429545,95.9050761 100.276636,91.9578924 C100.551059,91.9900254 100.830653,92.0073846 101.115787,92.0073846" id="path86" fill="#253B7D"></path>
                        <path d="M101.221789,92.0055379 C106.802952,93.9453347 113.042287,86.3021216 108.346073,76.4007368 C114.118926,87.251706 106.37599,95.8707271 100.276636,91.9578924 C100.551059,91.9900254 100.830653,92.0073846 101.115787,92.0073846 C101.151244,92.0073846 101.186332,92.0062766 101.221789,92.0055379" id="path88" fill="#F0DD4D"></path>
                        <path d="M107.813848,75.5342548 C107.186332,75.4330544 106.446165,75.3817156 105.612186,75.3817156 L105.612186,75.3817156 C100.891595,75.3817156 93.2428416,77.1002751 91.0186496,80.922251 L90.9669414,81.0101549 L90.9802378,81.1128327 C90.9942729,81.2177265 91.010524,81.3255751 91.0289913,81.436009 C90.7117244,81.44672 90.4243745,81.4260367 90.1758057,81.3883636 C89.7200347,80.487902 89.3392406,79.4880867 89.0799608,78.3948272 C89.2694345,75.8360092 89.7488436,73.415326 90.4347161,71.469989 C93.7178185,65.9704508 98.3671259,62.6877177 102.468326,61.4016605 C105.954199,65.3281609 108.031392,71.1279761 107.813848,75.5342548" id="path90" fill="#253B7D"></path>
                        <path d="M108.103783,75.77359 L108.114494,75.5493979 C108.337578,71.0415495 106.197227,65.2819928 102.889379,61.4286227 C104.941826,61.7854094 106.810708,62.4409957 108.509693,63.5338858 C110.804429,66.1093243 112.975066,69.5113556 113.90249,72.8155106 C111.659462,73.129084 109.415325,74.2249289 108.103783,75.77359" id="path92" fill="#253B7D"></path>
                        <path d="M109.238778,89.5246515 C111.362878,85.9253903 111.163801,80.7095086 108.410339,75.8825466 C109.597043,74.5362862 111.579314,73.5120942 113.668326,73.1590009 C116.932222,80.0217893 113.999997,87.5837467 109.126498,89.7026755 C109.163432,89.6432111 109.202213,89.585224 109.238778,89.5246515" id="path94" fill="#253B7D"></path>
                        <path d="M108.881992,75.8866094 C110.811078,74.2308384 113.381345,73.5892872 114.202398,75.4888254 C112.944041,76.295843 110.918557,76.5137562 108.881992,75.8866094" id="path96" fill="#171E52"></path>
                        <path d="M112.33093,74.5927959 L112.33093,74.5927959 C111.565279,74.5927959 110.214586,75.1231745 109.173404,75.9689732 C109.076636,75.9427497 108.979499,75.917265 108.881992,75.8866094 C110.811078,74.2308384 113.381345,73.5892872 114.202398,75.4888254 C114.158077,75.5168956 114.112278,75.542011 114.066479,75.5686038 C113.631761,74.7929806 112.952167,74.5927959 112.33093,74.5927959" id="path98" fill="#F0DD4D"></path>
                        <path d="M89.6114474,87.006092 L89.6110781,87.006092 C89.0674031,87.006092 88.4786681,87.0300994 87.8603856,87.0855011 C86.360478,86.8132942 84.8107089,86.7700809 83.1922417,87.0895638 C86.1451502,85.5209582 89.4164336,85.0570616 92.3205886,85.2339776 C92.688825,85.9785759 93.1283449,86.7220662 93.6288065,87.4315768 C92.332777,87.1505057 90.9831926,87.006092 89.6114474,87.006092" id="path100" fill="#F0DD4D"></path>
                        <path d="M112.367864,75.8500443 C112.348289,75.6369326 112.171373,75.4692502 111.95309,75.4692502 C111.721512,75.4692502 111.533885,75.6568771 111.533885,75.8880867 C111.533885,75.9069233 111.538317,75.9239132 111.541271,75.9423804 C111.481068,75.9445964 111.421973,75.9482899 111.36177,75.9482899 C111.156784,75.9482899 110.95069,75.9364709 110.743857,75.9143102 C110.921512,75.5168956 111.319665,75.2413647 111.783561,75.2413647 C112.183931,75.2413647 112.535177,75.4478282 112.738317,75.7606629 C112.619018,75.7957506 112.494919,75.8249289 112.367864,75.8500443" id="path102" fill="#F0DD4D"></path>
                        <path d="M106.869434,74.5196657 C106.524836,74.4945503 106.159554,74.4816233 105.777283,74.4782992 C105.297504,70.137025 103.598889,66.1636179 101.02936,62.9082163 C101.373959,62.7564158 101.721881,62.6175423 102.071281,62.4904878 C104.685501,65.8932578 106.402583,70.0203122 106.869434,74.5196657" id="path104" fill="#F0DD4D"></path>
                        <path d="M103.234346,74.6001828 C102.858723,74.6363786 102.472758,74.6818079 102.079406,74.7357322 C101.631761,70.9636178 100.083469,67.5298229 97.7647252,64.7638026 C98.0853161,64.5373945 98.4110779,64.321328 98.7405331,64.1174499 C101.155307,67.0352707 102.765648,70.6433962 103.234346,74.6001828" id="path106" fill="#F0DD4D"></path>
                        <path d="M99.8866088,75.1157876 C99.514679,75.1937193 99.1420104,75.2797765 98.7693419,75.3739593 C98.43804,72.1673112 97.1423798,69.2476437 95.1774676,66.9089549 C95.4522598,66.643027 95.7322229,66.3855939 96.0169874,66.1370251 C98.114125,68.6182808 99.5065534,71.7137563 99.8866088,75.1157876" id="path108" fill="#F0DD4D"></path>
                        <path d="M106.215694,74.4882715 C105.747735,70.3135716 104.121142,66.34275 101.605907,63.0722053 C101.76214,63.006462 102.075713,62.8867944 102.301752,62.8014758 C104.785224,66.1436733 106.416987,70.1554922 106.869434,74.5196657 C106.660385,74.504892 106.439517,74.4945503 106.215694,74.4882715" id="path110" fill="#171E52"></path>
                        <path d="M102.508585,74.6810692 C102.052814,71.0744211 100.582454,67.6572467 98.3139403,64.8801461 C98.4760825,64.7693428 98.7782062,64.5702662 98.9916873,64.4321314 C101.265002,67.2934425 102.782269,70.7833777 103.234346,74.6001828 C102.996489,74.6238208 102.754199,74.6511523 102.508585,74.6810692" id="path112" fill="#171E52"></path>
                        <path d="M99.2055377,75.2683268 C98.8413641,72.2766372 97.6184648,69.3385024 95.7045221,66.9979669 C95.8367474,66.8723898 96.0986126,66.6360094 96.2866089,66.4683271 C98.2319458,68.8915957 99.5231739,71.8626021 99.8866088,75.1157876 C99.6598313,75.1630637 99.4323152,75.2151412 99.2055377,75.2683268" id="path114" fill="#171E52"></path>
                        <path d="M112.362693,72.2681422 C111.977467,70.5067388 111.411262,68.8221589 110.683284,67.2321313 C111.626959,68.7320389 112.423266,70.3464433 113.050043,72.06094 C112.835454,72.1181884 112.604245,72.1883638 112.362693,72.2681422" id="path116" fill="#F0DD4D"></path>
                        <path d="M109.568234,73.4212355 C109.329637,73.5575236 109.103598,73.696397 108.893072,73.8367479 C108.62382,69.7902106 107.251706,66.0457971 105.074051,62.9011988 C105.354014,63.0005524 105.646165,63.1135718 105.939794,63.2358248 C107.911724,66.2075699 109.196673,69.6764526 109.568234,73.4212355" id="path118" fill="#F0DD4D"></path>
                        <path d="M110.764171,72.8129252 C110.293995,69.6155107 109.179314,66.6415496 107.561955,64.0177269 C107.686055,64.0879024 107.804983,64.1588165 107.917633,64.2293613 C108.396673,64.7719282 108.850967,65.3303769 109.280884,65.8995367 C110.311724,67.9482901 111.060016,70.1695273 111.472204,72.5170804 C111.235085,72.6075697 110.997966,72.7072927 110.764171,72.8129252" id="path120" fill="#F0DD4D"></path>
                        <path d="M112.817356,72.1270527 C112.669988,72.170266 112.520034,72.2160647 112.362693,72.2681422 C112.124097,71.1770989 111.815325,70.114495 111.441918,69.0866095 C111.961216,70.0594627 112.42105,71.0744211 112.817356,72.1270527" id="path122" fill="#171E52"></path>
                        <path d="M105.789471,63.5187426 C107.734439,66.4505985 108.939979,69.8755292 109.328529,73.5634331 C109.177837,73.6539224 109.031207,73.7451505 108.893072,73.8367479 C108.636008,69.9807923 107.377283,66.4022144 105.376175,63.3525377 C105.512463,63.4060926 105.650967,63.4607556 105.789471,63.5187426" id="path124" fill="#171E52"></path>
                        <path d="M109.130561,66.1824545 C110.130745,68.169158 110.759,70.3641718 111.172296,72.6371173 C111.03527,72.6928883 110.89972,72.7508754 110.764171,72.8129252 C110.340902,69.9357323 109.394272,67.2406262 108.031761,64.8177269 C108.414032,65.263895 108.780422,65.7189273 109.130561,66.1824545" id="path126" fill="#171E52"></path>
                        <path d="M107.245427,82.1067385 C105.810524,85.815695 102.572112,87.5261289 101.15346,88.1469969 C103.574882,88.1662028 105.103598,87.0153256 106.502306,85.8300994 C102.292518,93.5822691 92.7449654,88.0336081 91.9338851,80.2751596 C96.292149,86.5429341 103.422712,84.2866092 106.930745,78.3793148 C105.694919,83.9545685 100.954753,86.09455 99.1080308,86.7268676 C103.497689,86.2072001 106.275159,83.3023063 107.245427,82.1067385" id="path128" fill="#171E52"></path>
                        <path d="M95.3920567,87.9445961 C99.7643558,91.7156025 105.542749,90.7553071 107.758077,84.4790376 C107.502121,90.0609396 100.399628,93.9146791 95.3920567,87.9445961" id="path130" fill="#171E52"></path>
                        <path d="M93.9157871,81.6409952 C97.2203115,83.7200348 102.186147,82.9998133 106.901567,77.0578005 C104.530007,82.4797763 97.9892866,85.5316691 93.9157871,81.6409952" id="path132" fill="#F0DD4D"></path>
                        <path d="M109.244319,76.5643563 C111.24912,77.4600165 113.824189,77.5523526 114.689932,76.0812539 C114.751244,76.3471818 114.80406,76.6112631 114.848751,76.876083 C113.822342,78.2596472 111.100274,78.1052612 109.244319,76.5643563" id="path134" fill="#F0DD4D"></path>
                        <path d="M110.018095,77.8190193 C111.670173,78.9429343 113.726682,79.1619555 115.022342,78.3833775 C115.058538,78.9684191 115.055583,79.5471818 115.01828,80.1156028 C113.223266,80.6847625 111.027513,79.4840239 110.018095,77.8190193" id="path136" fill="#171E52"></path>
                        <path d="M114.832869,81.6317616 C114.754937,82.0646332 114.656692,82.4893793 114.539979,82.9034144 C113.081068,82.9975972 111.573404,81.8249287 111.102121,80.1979666 C111.824559,81.0814384 113.270542,82.0513368 114.832869,81.6317616" id="path138" fill="#171E52"></path>
                        <path d="M114.078298,84.2441346 C113.949028,84.5628788 113.806091,84.8742361 113.653921,85.1756211 C112.664817,84.925575 111.764355,84.0587237 111.440071,82.9396101 C111.971188,83.5900256 112.962139,84.2936267 114.078298,84.2441346" id="path140" fill="#171E52"></path>
                        <path d="M112.520034,86.9761751 C111.941641,86.5625094 111.474051,85.9327772 111.259092,85.1915029 C111.634716,85.6513367 112.24081,86.138502 112.957707,86.3656488 C112.818095,86.5754364 112.672204,86.7800532 112.520034,86.9761751" id="path142" fill="#171E52"></path>
                        <path d="M93.7617705,70.2108939 C93.4027677,70.2108939 93.111355,69.9194812 93.111355,69.5601091 C93.111355,69.200737 93.4027677,68.9093242 93.7617705,68.9093242 C94.1211426,68.9093242 94.4129247,69.200737 94.4129247,69.5601091 C94.4129247,69.9194812 94.1211426,70.2108939 93.7617705,70.2108939" id="path144" fill="#F0DD4D"></path>
                        <path d="M93.766572,70.2105246 C93.600367,70.1233593 93.4858702,69.9512448 93.4858702,69.7506908 C93.4858702,69.4622328 93.7192959,69.2284378 94.0077539,69.2284378 C94.1591851,69.2284378 94.2939958,69.2938117 94.389656,69.3964895 C94.4033217,69.4489364 94.4129247,69.50323 94.4129247,69.5601091 C94.4129247,69.9183731 94.1233587,70.2083085 93.766572,70.2105246" id="path146" fill="#171E52"></path>
                        <path d="M92.4963966,71.559001 C92.209416,71.559001 91.976729,71.326314 91.976729,71.0393334 C91.976729,70.7530915 92.209416,70.5196658 92.4963966,70.5196658 C92.7830078,70.5196658 93.0156948,70.7530915 93.0156948,71.0393334 C93.0156948,71.326314 92.7830078,71.559001 92.4963966,71.559001" id="path148" fill="#F0DD4D"></path>
                        <path d="M92.4993513,71.5586316 C92.3674954,71.4891949 92.275898,71.3521681 92.275898,71.191134 C92.275898,70.9614017 92.4624169,70.7748828 92.6921491,70.7748828 C92.8129247,70.7748828 92.9211426,70.8269604 92.9972276,70.9085855 C93.0079386,70.9503214 93.0156948,70.993904 93.0156948,71.0393334 C93.0156948,71.325206 92.7848546,71.5564156 92.4993513,71.5586316" id="path150" fill="#171E52"></path>
                        <path d="M91.732223,73.0382253 C91.4862396,73.0382253 91.2867937,72.8387793 91.2867937,72.5924266 C91.2867937,72.3468126 91.4862396,72.1473666 91.732223,72.1473666 C91.9782064,72.1473666 92.1776524,72.3468126 92.1776524,72.5924266 C92.1776524,72.8387793 91.9782064,73.0382253 91.732223,73.0382253" id="path152" fill="#F0DD4D"></path>
                        <path d="M91.7351778,73.037856 C91.621789,72.9783915 91.5431187,72.86094 91.5431187,72.7228052 C91.5431187,72.5255753 91.7034141,72.3656492 91.9002747,72.3656492 C92.0036911,72.3656492 92.0967659,72.4103398 92.1617705,72.4805153 C92.1710042,72.516711 92.1776524,72.5536455 92.1776524,72.5924266 C92.1776524,72.8376713 91.9800531,73.0360093 91.7351778,73.037856" id="path154" fill="#171E52"></path>
                        <path d="M91.2147715,74.5011985 C91.0005517,74.5011985 90.8265905,74.3276066 90.8265905,74.1130175 C90.8265905,73.8991671 91.0005517,73.7248366 91.2147715,73.7248366 C91.4282526,73.7248366 91.6022138,73.8991671 91.6022138,74.1130175 C91.6022138,74.3276066 91.4282526,74.5011985 91.2147715,74.5011985" id="path156" fill="#F0DD4D"></path>
                        <path d="M91.2169876,74.5008292 C91.1180033,74.4483823 91.0496745,74.3464432 91.0496745,74.2264063 C91.0496745,74.0546611 91.1889174,73.9154183 91.3606625,73.9154183 C91.4507826,73.9154183 91.531669,73.9541994 91.5881787,74.0151413 C91.5959349,74.0465355 91.6022138,74.0790379 91.6022138,74.1130175 C91.6022138,74.3264986 91.4300993,74.4993518 91.2169876,74.5008292" id="path158" fill="#171E52"></path>
                        <path d="M90.720958,75.864818 C90.5248361,75.864818 90.3660181,75.7056306 90.3660181,75.5098781 C90.3660181,75.3137562 90.5248361,75.1556768 90.720958,75.1556768 C90.9174493,75.1556768 91.0762673,75.3137562 91.0762673,75.5098781 C91.0762673,75.7056306 90.9174493,75.864818 90.720958,75.864818" id="path160" fill="#F0DD4D"></path>
                        <path d="M90.7235434,75.8644487 C90.6330541,75.8171726 90.5706349,75.7229898 90.5706349,75.6140332 C90.5706349,75.4563231 90.6976893,75.3288993 90.8546607,75.3288993 C90.9370245,75.3288993 91.0116321,75.3647257 91.0633403,75.4208661 C91.0710965,75.4493056 91.0762673,75.4792225 91.0762673,75.5098781 C91.0762673,75.7052613 90.9185573,75.8633407 90.7235434,75.8644487" id="path162" fill="#171E52"></path>
                        <path d="M107.687532,93.8504132 C98.8310225,98.7375783 91.508031,87.2542914 81.6476434,89.1996284 C90.6046145,85.1464429 99.4640788,97.1235433 105.920219,92.6459811 C107.022343,92.1296376 108.022527,91.2827309 108.818465,90.165464 L109.246535,89.9796838 C109.852259,89.7159719 110.430283,89.3684188 110.973958,88.9495823 C110.992795,90.6707272 109.951244,92.6023984 107.687532,93.8504132" id="path164" fill="#F0DD4D"></path>
                        <polyline id="path166" fill="#F0DD4D" points="68.4808847 19.6990577 30.5091405 19.6990577 28.791689 14.9865924 66.7298229 14.9865924 68.4808847 19.6990577"></polyline>
                        <path d="M189.158259,17.8201288 C189.093255,17.8969155 187.523541,19.6990577 183.493255,19.6990577 L134.994641,19.6990577 L133.2373,14.9865924 L183.689377,14.9865924 C185.966754,14.9865924 188.219755,15.8012923 189.166754,16.9676081 L189.515415,17.3972664 L189.158259,17.8201288" id="path168" fill="#F0DD4D"></path>
                        <polyline id="path170" fill="#253B7D" points="68.2323159 19.0304704 30.976472 19.0304704 29.746075 15.6554382 66.9780223 15.6554382 68.2323159 19.0304704"></polyline>
                        <path d="M183.493255,19.0304704 L134.745334,19.0304704 L133.486239,15.6554382 L183.689377,15.6554382 C185.777281,15.6554382 187.838961,16.3926866 188.647456,17.3887715 C188.647456,17.3887715 187.259829,19.0304704 183.493255,19.0304704" id="path172" fill="#253B7D"></path>
                        <polyline id="path174" fill="#171E52" points="33.7264996 17.3444871 30.4009226 16.092742 67.1405339 16.092742 67.6059078 17.3444871 33.7264996 17.3444871"></polyline>
                        <path d="M187.783929,17.3444871 L134.116709,17.3444871 L133.649858,16.092742 L183.567493,16.092742 C185.239885,16.092742 186.89307,16.6067955 187.783929,17.3444871" id="path176" fill="#171E52"></path>
                        <path d="M104.819942,18.4591316 C104.816987,18.4395194 104.813294,18.413259 104.802583,18.3874418 L104.552537,17.6712461 C104.460201,17.4891962 104.338317,17.4117078 104.025482,17.4117078 L103.712647,17.4117078 L104.15069,18.6412184 L104.470173,18.6412184 C104.65189,18.6412184 104.745704,18.6154012 104.797043,18.5635822 C104.819573,18.54397 104.825851,18.4978019 104.819942,18.4591316 L104.819942,18.4591316 Z M106.971004,19.3510614 C106.93961,19.396934 106.898982,19.4356043 106.878298,19.4682174 C106.71948,19.6244501 106.497135,19.6635637 106.028437,19.6635637 L102.507477,19.6635637 L100.748659,14.7811261 L102.759739,14.7811261 L103.45226,16.7002766 L103.645057,14.7811261 L105.668326,14.7811261 L105.498058,16.4535545 C105.676452,16.5012 105.824928,16.5813846 106.003321,16.7080698 C106.171004,16.8321325 106.291779,16.981754 106.376729,17.2026588 L107.000921,18.8502673 L107.021604,18.9927973 C107.045611,19.1486237 107.021604,19.2535175 106.971004,19.3510614 L106.971004,19.3510614 Z" id="path178" fill="#F0DD4D"></path>
                        <polyline id="path180" fill="#F0DD4D" points="125.757338 19.6635637 121.224004 19.6635637 120.856137 18.6407752 122.105629 18.6407752 120.721327 14.7877743 122.735362 14.7877743 124.127051 18.6407752 125.382822 18.6407752 125.757338 19.6635637"></polyline>
                        <path d="M114.445796,19.6671463 L110.904152,19.6671463 C110.110062,19.6671463 109.701936,19.4658906 109.368788,18.8465369 C109.326313,18.7816062 109.285316,18.6843578 109.269434,18.6189838 L109.130561,18.2171741 C109.09141,18.1267216 109.072573,18.0465 109.059277,17.964838 C109.023451,17.7396487 109.062601,17.5526496 109.168603,17.3980051 C109.308215,17.1799811 109.573035,17.0061307 109.956415,16.9097687 L111.302306,16.5717447 L111.051151,15.8578759 L110.213109,15.8578759 L110.359369,16.2688823 L108.427698,16.2688823 L107.899166,14.7825666 L111.455214,14.7825666 C112.249305,14.7825666 112.656322,14.9780606 112.989471,15.5970079 C113.027144,15.6689931 113.064078,15.7466293 113.082546,15.8249673 L113.227698,16.2267771 C113.259831,16.3105813 113.280514,16.3977466 113.29418,16.4860199 C113.330006,16.7109506 113.296765,16.8970633 113.191502,17.0585037 C113.05743,17.26903 112.785593,17.4370817 112.402583,17.5334806 L111.056322,17.8715046 L111.307476,18.5865185 L112.13924,18.5865185 L111.994826,18.1821233 L113.926867,18.1821233 L114.445796,19.6671463" id="path182" fill="#F0DD4D"></path>
                        <polyline id="path184" fill="#F0DD4D" points="99.7798682 18.6422156 100.152167 19.6635637 96.5019366 19.6635637 94.7172645 14.7877743 98.3815303 14.7877743 98.7497667 15.8090855 97.1032293 15.8090855 97.4389634 16.7216247 98.4247436 16.7216247 98.805907 17.755789 97.8186494 17.755789 98.1451499 18.6422156 99.7798682 18.6422156"></polyline>
                        <polyline id="path186" fill="#F0DD4D" points="92.0402562 19.6605351 90.1794991 15.9940532 90.907477 19.6605351 88.9772831 19.6605351 88.0099701 14.7830098 91.6746053 14.7830098 94.1469967 19.6605351 92.0402562 19.6605351"></polyline>
                        <path d="M73.1061847,19.6642654 L71.7455199,16.0653366 C71.670543,15.8747549 71.5401644,15.8086792 71.2465356,15.8057614 C70.9761755,15.8124096 70.9045227,15.8806644 70.9706353,16.0653366 L72.3253906,19.6642654 L70.3209585,19.6642654 L68.7815311,15.5901012 C68.7002753,15.3754013 68.7109863,15.2188731 68.7807924,15.0955121 C68.94552,14.8346441 69.1423805,14.7825666 69.7215126,14.7825666 L70.4775606,14.7825666 L71.2746058,14.7825666 L72.027699,14.7825666 C72.6064617,14.7825666 72.8424728,14.8346441 73.2036916,15.0955121 C73.3669418,15.2188731 73.4962124,15.3754013 73.5759908,15.5901012 L75.1106168,19.6642654 L73.1061847,19.6642654" id="path188" fill="#F0DD4D"></path>
                        <polyline id="path190" fill="#F0DD4D" points="82.2533682 19.6642654 80.433239 14.7825666 78.7863323 14.7825666 78.8025834 14.8022157 78.3963046 16.7686792 77.6469048 14.7825666 75.6354552 14.7825666 77.4552151 19.6583559 79.10877 19.6583559 79.4973203 17.7052996 80.2356397 19.6642654 82.2533682 19.6642654"></polyline>
                        <polyline id="path192" fill="#F0DD4D" points="82.7855935 14.7825666 84.5998132 19.6642654 86.6171723 19.6642654 84.7963044 14.7825666 82.7855935 14.7825666"></polyline>
                        <polyline id="path194" fill="#F0DD4D" points="115.050043 14.7825666 116.864263 19.6642654 118.881991 19.6642654 117.061124 14.7825666 115.050043 14.7825666"></polyline>
                        <polyline id="path196" fill="#F0DD4D" points="132.953275 19.6557705 131.199997 19.6557705 129.892148 17.9955674 129.824928 19.6557705 128.117448 19.6557705 128.253367 16.2987623 127.68273 14.7737762 129.698981 14.7737762 130.22899 16.1905444 132.953275 19.6557705"></polyline>
                        <polyline id="path198" fill="#F0DD4D" points="71.2203122 5.71604787 70.5695273 3.91578938 62.1610326 3.91578938 65.3211433 12.4613478 68.8531839 12.4613478 66.3434886 5.71604787 71.2203122 5.71604787"></polyline>
                        <polyline id="path200" fill="#F0DD4D" points="64.2884564 4.84217901 69.1870712 4.84217901 71.2203122 5.71604787 70.5695273 3.91578938 62.1610326 3.91578938 64.2740519 4.84217901 66.7612172 11.5519849 68.8531839 12.4613478 66.3434886 5.71604787 64.2884564 4.84217901"></polyline>
                        <polyline id="path202" fill="#F0DD4D" points="93.7972276 12.4613478 90.6825462 3.91578938 87.7994438 3.91578938 87.827514 3.94910424 87.0873478 7.3906554 85.8057227 3.91578938 82.2847625 3.91578938 85.3975971 12.4497873 88.2917799 12.4497873 89.0009211 9.03191113 90.2648177 12.4613478 93.7972276 12.4613478"></polyline>
                        <polyline id="path204" fill="#F0DD4D" points="91.6927032 11.5811262 89.2491206 4.87087707 89.0009211 9.03191113 88.2917799 12.4497873 86.8465352 11.5741825 84.3885482 4.83652804 82.2847625 3.91578938 85.8057227 3.91578938 87.0873478 7.3906554 87.327791 11.5668326 88.7541991 4.85687892 87.827514 3.94910424 87.7994438 3.91578938 90.6825462 3.91578938 93.7972276 12.4613478 91.6927032 11.5811262"></polyline>
                        <path d="M133.796119,12.4535546 L127.601844,12.4535546 C126.210893,12.4535546 125.49695,12.1000551 124.910431,11.0175805 C124.835823,10.9037486 124.76417,10.7332223 124.735731,10.6190948 L124.489748,9.9150136 C124.421419,9.75848544 124.387809,9.61809764 124.364909,9.47442266 C124.300643,9.08110781 124.367864,8.75346239 124.552536,8.48424725 C124.795565,8.1000552 125.257984,7.79719279 125.927605,7.62914108 L128.280699,7.03745135 L127.838593,5.7880331 L126.371927,5.7880331 L126.630837,6.50710972 L123.251705,6.50710972 L122.318741,3.90770073 L128.53887,3.90770073 C129.929083,3.90770073 130.641917,4.25004606 131.228436,5.3322621 C131.293072,5.45750679 131.359554,5.59368407 131.392056,5.73074778 L131.648011,6.43364712 C131.704152,6.58068312 131.739609,6.73318543 131.764724,6.88827314 C131.828252,7.28199428 131.772111,7.60661107 131.588916,7.88808845 C131.355121,8.25702657 130.879775,8.55076618 130.210154,8.71911336 L127.857061,9.3112463 L128.300274,10.5618095 L129.754752,10.5618095 L129.500643,9.85529061 L132.879406,9.85529061 L133.796119,12.4535546" id="path206" fill="#F0DD4D"></path>
                        <path d="M132.879406,9.85529061 L133.796119,12.4535546 L131.924281,11.5718926 L127.996303,11.5718926 C127.300828,11.5718926 126.943302,11.3954198 126.650412,10.8542564 C126.612739,10.7971188 126.577282,10.7117264 126.562878,10.6551429 L126.171373,9.60409948 C126.136654,9.52531832 126.120034,9.45521675 126.108584,9.383527 C126.07682,9.18670337 126.109323,9.02341621 126.202398,8.88819922 C126.324281,8.69662028 126.555121,8.54511521 126.889748,8.46131096 L129.229914,7.87080313 C129.56454,7.78611246 129.802397,7.63951966 129.918741,7.45529067 C130.010338,7.31416418 130.039517,7.15157877 130.007014,6.95479207 C129.994457,6.87715588 129.977467,6.80070158 129.948289,6.72727592 L129.61514,5.82496754 C129.598889,5.75630641 129.565278,5.68834704 129.533515,5.62544769 C129.239886,5.08483828 128.883838,4.91342555 128.188362,4.91342555 L124.508584,4.91039692 L126.371927,5.7880331 L126.630837,6.50710972 L124.831022,5.84011066 L124.499351,4.9153092 L122.318741,3.90770073 L128.53887,3.90770073 C129.929083,3.90770073 130.641917,4.25004606 131.228436,5.3322621 C131.293072,5.45750679 131.359554,5.59368407 131.392056,5.73074778 L131.648011,6.43364712 C131.704152,6.58068312 131.739609,6.73318543 131.764724,6.88827314 C131.828252,7.28199428 131.772111,7.60661107 131.588916,7.88808845 C131.355121,8.25702657 130.879775,8.55076618 130.210154,8.71911336 L127.857061,9.3112463 L128.300274,10.5618095 L129.754752,10.5618095 L131.91357,11.5630653 L131.578205,10.6039517 L129.500643,9.85529061 L132.879406,9.85529061" id="path208" fill="#F0DD4D"></path>
                        <path d="M109.003875,10.6633792 L113.204429,10.6633792 L113.861124,12.4535546 L107.657984,12.4535546 C106.632315,12.4535546 106.231207,12.3623635 105.603321,11.9061493 C105.308585,11.6901936 105.114309,11.4622342 104.958446,11.0405168 L102.846904,5.32073856 C102.727237,4.89927966 102.731669,4.67106175 102.867957,4.45462593 C103.150136,3.99929815 103.496212,3.90770073 104.521512,3.90770073 L110.733885,3.90770073 L111.384669,5.69787613 L107.182638,5.69787613 C106.688455,5.70925193 106.56214,5.83782072 106.679591,6.15261296 L107.103968,7.2983193 L110.819572,7.2983193 L111.492149,9.10954733 L107.774697,9.10954733 L108.181715,10.2086055 C108.294365,10.5225482 108.513386,10.651117 109.003875,10.6633792" id="path210" fill="#F0DD4D"></path>
                        <path d="M108.181715,10.2086055 C108.294365,10.5225482 108.513386,10.651117 109.003875,10.6633792 L113.204429,10.6633792 L113.858169,12.4324651 L111.81828,11.5630653 L107.99852,11.5630653 C107.485501,11.5630653 107.284947,11.5173404 106.971004,11.2889379 C106.824005,11.1814586 106.726498,11.0673312 106.648566,10.8565464 L104.655584,5.49876256 C104.59575,5.28797771 104.597966,5.17458897 104.666295,5.06592785 C104.666295,5.06548464 104.666295,5.0652261 104.667033,5.0652261 C104.557338,5.0176176 102.992795,4.2848383 102.992795,4.2848383 C103.261309,3.97680507 103.639887,3.90770073 104.521512,3.90770073 L110.733885,3.90770073 L111.384669,5.69787613 L109.342195,4.78042463 L105.498058,4.78042463 C104.985778,4.78042463 104.815141,4.83955667 104.67442,5.06666654 L106.647458,5.90245599 C106.630099,5.96823623 106.641549,6.05019375 106.679591,6.15261296 L107.10249,7.2971374 L110.816987,7.2971374 L111.489933,9.1065187 L109.433792,8.20321309 L105.665371,8.20321309 L107.774697,9.10980587 L108.181715,10.2086055" id="path212" fill="#F0DD4D"></path>
                        <path d="M103.303783,11.9054475 C103.009416,12.3612185 102.675159,12.451671 101.64949,12.451671 L97.6483817,12.451671 C96.6230816,12.451671 96.2230816,12.3612185 95.5974122,11.9054475 C95.3030447,11.6890117 95.1098776,11.4610893 94.9551223,11.0400736 L92.8616782,5.32491215 C92.743488,4.90304697 92.7486588,4.67553082 92.8856856,4.45909499 C93.1689727,4.0045059 93.5143098,3.91287155 94.5388711,3.91287155 L98.5458886,3.91287155 C99.5711886,3.91287155 99.9830077,4.0045059 100.597966,4.45909499 C100.891964,4.67553082 101.062601,4.90304697 101.250598,5.32491215 L101.681253,6.52413649 L98.1599237,6.52439504 L98.0276984,6.15593706 C97.9150483,5.84084935 97.6963964,5.71301925 97.1933494,5.70160651 C96.6987972,5.71301925 96.5732201,5.84084935 96.6899329,6.15593706 L98.1783909,10.2094919 C98.2899329,10.5229914 98.5085848,10.6515602 98.9983355,10.662936 C99.4795912,10.6515602 99.604799,10.5229914 99.4880862,10.2094919 L99.3606623,9.85444112 L102.887532,9.85444112 L103.315972,11.0400736 C103.46888,11.4610893 103.44081,11.6890117 103.303783,11.9054475" id="path214" fill="#F0DD4D"></path>
                        <path d="M103.303783,11.9054475 C103.27756,11.9457061 103.251706,11.982345 103.224743,12.0169526 L101.480699,11.2780053 C101.32225,11.5261308 101.105076,11.5630653 100.656323,11.5630653 L97.991872,11.5630653 C97.4799606,11.5630653 97.279776,11.5173404 96.9665719,11.2893811 C96.8195728,11.1811632 96.7224353,11.0677744 96.6452423,10.8568418 L94.6836541,5.55937198 C94.6249284,5.34843939 94.5975969,5.21957512 94.6659256,5.11139415 C94.6751592,5.09739599 94.6836541,5.08395186 94.6932571,5.07039692 L92.96768,4.34023997 C93.2398869,3.98747912 93.6107086,3.91287155 94.5388711,3.91287155 L98.5458886,3.91287155 C99.5711886,3.91287155 99.9830077,4.0045059 100.597966,4.45909499 C100.891964,4.67553082 101.062601,4.90304697 101.250598,5.32491215 L101.681253,6.52413649 L99.6376706,5.85008296 L99.5867011,5.70855018 C99.3617704,5.07963053 99.1209578,4.8229731 98.115233,4.7995936 L95.5741435,4.80003681 C94.9643559,4.81473672 94.8513365,4.8639334 94.7047068,5.06707282 L96.6570613,5.90618637 C96.6393328,5.97156033 96.6522598,6.05436735 96.6899329,6.15593706 L98.1783909,10.2094919 C98.2899329,10.5229914 98.5085848,10.6515602 98.9983355,10.662936 C99.3325922,10.6551429 99.4951037,10.5905076 99.5239126,10.4472389 L101.476267,11.2756784 C101.550875,11.1570819 101.521327,10.9884392 101.490302,10.9037486 L101.380976,10.6009231 L99.3606623,9.85444112 L102.887532,9.85444112 L103.315972,11.0400736 C103.46888,11.4610893 103.44081,11.6890117 103.303783,11.9054475" id="path216" fill="#F0DD4D"></path>
                        <path d="M119.509508,10.2187255 L119.070726,8.96469045 C118.909323,8.64568769 118.695103,8.50891945 118.148474,8.50891945 L117.601474,8.50891945 L118.367495,10.6622343 L118.926682,10.6622343 C119.244688,10.6622343 119.409046,10.616768 119.498427,10.5255768 C119.539055,10.4912647 119.549027,10.4114864 119.539055,10.343527 C119.533884,10.3087347 119.527606,10.2633054 119.509508,10.2187255 L119.509508,10.2187255 Z M123.303783,11.9035639 C123.247273,11.9837855 123.177836,12.0524466 123.140902,12.1090302 C122.863155,12.3822712 122.474235,12.4502305 121.653921,12.4502305 L115.49141,12.4502305 L112.413663,3.90696204 L115.933515,3.90696204 L117.144595,7.26611247 L117.482176,3.90696204 L121.02345,3.90696204 L120.725759,6.83401645 C121.037485,6.91641719 121.297873,7.05665726 121.609969,7.27896565 C121.904337,7.49551228 122.114124,7.75767294 122.263709,8.14478281 L123.355491,11.0268141 L123.392425,11.2772666 C123.433792,11.550803 123.392425,11.7337393 123.303783,11.9035639 L123.303783,11.9035639 Z" id="path218" fill="#F0DD4D"></path>
                        <path d="M123.303783,11.9035639 C123.256137,11.9712278 123.199258,12.0306553 123.160477,12.0820311 L121.456322,11.3625482 C121.329268,11.5305999 121.095842,11.5671281 120.685131,11.5671281 L116.919665,11.5671281 L114.480145,4.80782998 L112.413663,3.90696204 L115.933515,3.90696204 L117.144595,7.26611247 L117.115048,7.62249288 L115.538317,7.62249288 L117.601474,8.50891945 L118.367495,10.6622343 L118.926682,10.6622343 C119.244688,10.6622343 119.409046,10.616768 119.498427,10.5255768 L121.456322,11.3587809 C121.648381,11.1667587 121.529083,10.8255584 121.493256,10.7346627 L120.658538,8.53403487 C120.400366,7.85259445 120.019572,7.62249288 118.920034,7.62249288 L118.872389,7.62249288 L119.151613,4.80668501 L117.482176,3.90696204 L121.02345,3.90696204 L120.725759,6.83401645 C121.037485,6.91641719 121.297873,7.05665726 121.609969,7.27896565 C121.904337,7.49551228 122.114124,7.75767294 122.263709,8.14478281 L123.355491,11.0268141 L123.392425,11.2772666 C123.433792,11.550803 123.392425,11.7337393 123.303783,11.9035639" id="path220" fill="#F0DD4D"></path>
                        <path d="M78.04395,10.1458539 C78.163987,10.487202 78.3885484,10.6127421 78.9355474,10.6127421 L79.5623249,10.6127421 L78.4568771,7.58814385 L77.1006444,7.58814385 L78.04395,10.1458539 Z M75.4903028,11.895069 C75.2099704,11.7011631 74.9913185,11.4622342 74.8358245,11.0405168 L72.2216048,3.90770073 L75.7303767,3.90770073 L76.4424727,5.81011989 L77.798336,5.81011989 L77.1091393,3.90770073 L80.6300996,3.90770073 L83.735178,12.4649304 L77.5368402,12.4649304 C76.5344395,12.4649304 76.117819,12.350803 75.4903028,11.895069 L75.4903028,11.895069 Z" id="path222" fill="#F0DD4D"></path>
                        <path d="M79.9061845,6.70578007 L75.0478282,6.70578007 L77.1006444,7.58814385 L78.04395,10.1458539 C78.163987,10.487202 78.3885484,10.6127421 78.9355474,10.6127421 L79.5623249,10.6127421 L81.657985,11.5483654 L79.9061845,6.70578007 Z M81.6657413,11.5630653 L77.9032298,11.5630653 C77.4020295,11.5630653 77.1933499,11.5062232 76.8797765,11.2782638 C76.7397949,11.1814586 76.630469,11.0618649 76.5529067,10.8513755 L74.3416417,4.79859637 L72.2267757,3.91102483 L75.739241,3.91102483 L76.4424727,5.81196661 L77.798336,5.81196661 L79.9028604,6.69580777 L79.222528,4.80694355 L77.1106167,3.91102483 L80.6312076,3.91102483 L83.7322232,12.457285 L81.6657413,11.5630653 L81.6657413,11.5630653 Z" id="path224" fill="#F0DD4D"></path>
                        <path d="M193.731851,30.284062 L195.020124,33.8234525 L142.290301,33.8264811 C140.104521,33.8264811 138.954013,33.2080878 138.05466,31.5474784 C137.917633,31.3310795 137.810154,31.0599808 137.760292,30.8738681 L137.428251,29.9121322 C137.30489,29.6228617 137.25466,29.3732587 137.225112,29.1862966 C137.118371,28.5138312 137.235823,27.9228802 137.572665,27.4275893 C138.001105,26.7604425 138.777467,26.2691776 139.819018,26.0081988 L142.616063,25.3041176 L142.296949,24.3937575 L141.292702,24.3937575 L141.655767,25.41204 L135.803875,25.41204 L134.135915,20.7254288 L143.653182,20.7254288 C145.850412,20.7254288 147.00092,21.3443393 147.896949,23.0061305 L147.90212,23.0149209 C147.998519,23.2033235 148.105629,23.4234897 148.166201,23.6635636 L148.513754,24.625595 C148.597596,24.8472016 148.659645,25.0903041 148.703597,25.3687528 C148.812554,26.0534804 148.704336,26.6327602 148.378205,27.1335543 C147.967863,27.7775801 147.187808,28.259316 146.121141,28.5270907 L143.324096,29.2302855 L143.644318,30.1429725 L144.631945,30.1429725 L144.274789,29.1420122 L150.128897,29.1420122 L150.527051,30.2810334 L153.039701,30.2810334 L149.605167,20.7249856 L155.67128,20.7249856 L159.122064,30.2810334 L161.548288,30.2810334 L156.703597,20.7232497 L163.045979,20.7232497 L164.184299,22.9611075 L165.390947,22.9611075 L164.930744,20.7232497 L170.737946,20.7232497 L172.633052,30.2810334 L174.926311,30.2810334 L171.492147,20.7249856 L177.558629,20.7249856 L181.008306,30.2810334 L183.603689,30.2810334 L180.108583,20.7290115 L190.265923,20.7290115 L191.543116,24.267811 L187.465554,24.267811 L187.927604,25.5238775 L190.371556,25.5238775 L191.686052,29.0932218 L189.239884,29.0932218 L189.677558,30.284062 L193.731851,30.284062" id="path226" fill="#F0DD4D"></path>
                        <path d="M72.6179114,25.4315414 L66.5632486,25.4338313 L66.2563234,24.5769892 C66.200183,24.4200179 66.1514296,24.2839514 65.5501369,24.2681065 C65.4541073,24.2713937 65.3817158,24.2770446 65.3274222,24.2839514 L67.4182809,29.9763243 C67.4740519,30.1325939 67.5220666,30.2682172 68.1041534,30.2836558 C68.1902107,30.2814766 68.2566927,30.2762689 68.3069235,30.2692144 L67.9006447,29.1386881 L73.9626944,29.1386881 L74.6903028,31.1497314 C74.9421957,31.8478662 74.9226205,32.3460749 74.6216048,32.8200176 C74.0627867,33.6837665 73.348844,33.8234525 71.8574313,33.8234525 L66.1935348,33.8234525 C64.7139411,33.8234525 64.0084933,33.6922983 62.9920575,32.9525754 C62.4579855,32.5602947 62.1436734,32.1381709 61.9080317,31.4944036 L58.9451509,23.4046162 L58.9329625,23.3680881 C58.7601093,22.7504703 58.7095092,22.237414 59.0241906,21.7396855 C59.5656495,20.8698425 60.2840243,20.7290115 61.7924269,20.7290115 L67.4644489,20.7290115 C68.9599244,20.7290115 69.668327,20.8609044 70.6670342,21.6004427 C71.1545689,21.9589653 71.4489363,22.3457797 71.7525374,23.0257427 L72.6179114,25.4315414" id="path228" fill="#F0DD4D"></path>
                        <path d="M113.910246,24.267811 L114.372666,25.5238775 L116.816618,25.5238775 L118.130745,29.0932218 L115.683838,29.0932218 L116.122619,30.284062 L120.176544,30.284062 L121.465186,33.8234525 L90.5292683,33.8264811 C90.1377632,33.8264811 89.7809765,33.8053916 89.451152,33.7635449 C88.8084927,33.048531 88.3368399,32.3778016 88.0269599,31.8858348 L87.7285297,31.4120029 L87.3281603,31.8038773 C87.1486589,31.9800177 86.9765445,32.160664 86.8088621,32.3453362 C86.6260366,32.1107287 86.4550302,31.8471645 86.2925186,31.5474784 C86.1558612,31.3310795 86.0487513,31.0599808 85.9981511,30.8738681 L85.6668492,29.9121322 C85.5431188,29.6228617 85.4932573,29.3732587 85.4637098,29.1862966 C85.3565999,28.5138312 85.4744208,27.9228802 85.8108935,27.4275893 C86.239333,26.7604425 87.015695,26.2691776 88.0572462,26.0081988 L90.8546607,25.3041176 L90.5355471,24.3937575 L89.5312997,24.3937575 L89.8943653,25.41204 L84.0421032,25.41204 L82.3745132,20.7254288 L91.8917798,20.7254288 C94.0890097,20.7254288 95.2391481,21.3443393 96.1351777,23.0061305 L96.1399791,23.0149209 C96.2367474,23.2033235 96.3442266,23.4234897 96.4044297,23.6635636 L96.7523522,24.625595 C96.8361933,24.8472016 96.8978738,25.0903041 96.9418258,25.3687528 C97.0504131,26.0534804 96.9433032,26.6327602 96.6164334,27.1335543 C96.2060918,27.7775801 95.4256671,28.259316 94.3597391,28.5270907 L91.5623246,29.2302855 L91.8829155,30.1429725 L92.8701731,30.1429725 L92.5133864,29.1420122 L98.3671259,29.1420122 L98.7652792,30.2810334 L101.357338,30.2810334 L97.9235433,20.7249856 L103.989656,20.7249856 L107.440071,30.2810334 L110.048751,30.2810334 L106.553275,20.7290115 L116.710616,20.7290115 L117.988178,24.267811 L113.910246,24.267811" id="path230" fill="#F0DD4D"></path>
                        <path d="M85.5080311,33.8234525 C84.3198502,33.2428801 82.8842085,32.9116151 81.3595548,32.8816243 L81.2605705,32.8790019 L81.166757,32.9140527 C80.6725742,33.095844 80.042842,33.4237849 79.3831928,33.8234525 L76.3693425,33.8234525 L71.5774682,20.7290115 L81.7348087,20.7290115 L83.0116323,24.267811 L78.9344394,24.267811 L79.3964892,25.5238775 L81.8404412,25.5238775 L83.1549379,29.0932218 L80.7084006,29.0932218 L81.1468124,30.284062 L85.2007366,30.284062 L86.2105242,33.0582079 C86.0144023,33.3075153 85.8260366,33.5622891 85.6498594,33.8234525 L85.5080311,33.8234525" id="path232" fill="#F0DD4D"></path>
                        <path d="M26.8766014,33.8308025 L21.7344778,19.768716 C21.6225295,19.4552165 21.5287529,19.2920401 20.7657982,19.2920401 L20.2120771,19.2920401 L25.5205534,33.8308025 L17.9657244,33.8308025 L12.6586885,19.2920401 L11.7360662,19.2920401 C11.5264263,19.2920401 11.3994826,19.3055951 11.3248751,19.319741 C11.3326682,19.3469986 11.34349,19.3813476 11.3592241,19.4237484 L16.6066478,33.8308025 L9.07534603,33.8308025 L3.13394637,17.6432498 C2.83529448,16.8084945 2.83140159,16.2186884 3.12168044,15.6734622 C3.65001653,14.5853367 4.45521688,14.3937577 5.94818083,14.3937577 L23.706149,14.3937577 C25.3345885,14.3937577 26.0712459,14.6341271 27.1237297,15.5046718 C27.7204425,15.9748842 28.0986143,16.5101381 28.3891775,17.2974326 L34.403434,33.8308025 L26.8766014,33.8308025" id="path234" fill="#F0DD4D"></path>
                        <path d="M39.1065549,24.5746624 C39.0504145,24.4174324 39.0020304,24.2810705 38.399999,24.2659274 C38.3036002,24.2681065 38.2312086,24.2747178 38.1765457,24.2810705 L40.2688817,29.9782079 C40.3246527,30.1347361 40.3726675,30.2703594 40.9562317,30.2862412 C41.0422889,30.2836558 41.1087709,30.2781525 41.1590017,30.272243 L39.1065549,24.5746624 Z M44.61348,23.0397409 L47.5453358,31.1527601 C47.7975981,31.8504886 47.7780228,32.3491035 47.4773765,32.8236003 C46.918189,33.6882355 46.2042463,33.8271829 44.7117256,33.8271829 L39.0441357,33.8271829 C37.5630646,33.8271829 36.8565457,33.6960287 35.8401099,32.9561949 C35.304856,32.562917 34.9909133,32.1403131 34.7558994,31.4972845 L31.7903224,23.4017353 L31.7783187,23.3643577 C31.6053547,22.7468508 31.5551239,22.2333882 31.8692143,21.7363614 C32.4112642,20.8653734 33.1297499,20.7249856 34.6392974,20.7249856 L40.3146804,20.7249856 C41.8116333,20.7249856 42.5207746,20.8568416 43.5194818,21.5962691 C44.0077551,21.9556412 44.3021226,22.3420124 44.6060931,23.0231573 L44.61348,23.0397409 L44.61348,23.0397409 Z" id="path236" fill="#F0DD4D"></path>
                        <path d="M127.087347,28.5868137 C126.985777,28.3885865 126.885315,28.2477925 126.247088,28.2477925 L126.187254,28.2477925 L126.913016,30.2866844 L127.346996,30.2866844 C127.500643,30.2866844 127.604798,30.2781525 127.675343,30.2682172 L127.087347,28.5868137 Z M133.988916,32.7793159 L133.972665,32.810784 L133.951982,32.8394821 C133.900274,32.9130555 133.844872,32.9779862 133.800551,33.0297683 C133.775805,33.0589096 133.742194,33.0984664 133.732961,33.1131663 L133.703044,33.1583371 L133.664263,33.196712 C133.124281,33.7270536 132.412554,33.824893 131.207384,33.824893 L122.132961,33.824893 L117.415325,20.727571 L123.467033,20.727571 L124.547365,23.7251702 L124.84912,20.727571 L130.872388,20.727571 L130.435454,25.0223447 C130.753459,25.1497685 131.067402,25.3299717 131.443025,25.5970077 C131.955306,25.9727048 132.302859,26.4336466 132.540348,27.0492699 L134.104152,31.1778755 L134.165463,31.5862965 C134.234161,32.0439512 134.179867,32.4118551 133.988916,32.7793159 L133.988916,32.7793159 Z" id="path238" fill="#F0DD4D"></path>
                        <path d="M54.1506912,28.5868137 C54.0491215,28.3885865 53.9482904,28.2477925 53.3100633,28.2477925 L53.2502295,28.2477925 L53.9759913,30.2866844 L54.4107096,30.2866844 C54.5636182,30.2866844 54.6681427,30.2781525 54.7386875,30.2682172 L54.1506912,28.5868137 Z M59.6033226,27.0492699 L61.1671268,31.1778755 L61.228438,31.5862965 C61.2967667,32.0439512 61.2424731,32.4118551 61.0522607,32.7793159 L61.0356402,32.810784 L61.0153263,32.8394821 C60.96251,32.9130555 60.9074777,32.9779862 60.8635257,33.0297683 C60.839149,33.0589096 60.8055386,33.0984664 60.7955663,33.1131663 L60.7656495,33.1583371 L60.7272376,33.196712 C60.1872561,33.7270536 59.4758988,33.824893 58.2703587,33.824893 L49.1963053,33.824893 L44.4782999,20.727571 L50.530008,20.727571 L51.6107097,23.7251702 L51.9120947,20.727571 L57.9357326,20.727571 L57.4984288,25.0223447 C57.8168037,25.1497685 58.1307465,25.3299717 58.5060004,25.5970077 C59.0179117,25.9727048 59.3662035,26.4336466 59.6033226,27.0492699 L59.6033226,27.0492699 Z" id="path240" fill="#F0DD4D"></path>
                        <path d="M166.503412,25.9947916 L165.178943,25.9947916 L167.356229,30.3298238 L166.503412,25.9947916 Z M163.655398,33.3248376 L157.523911,21.227331 L162.737207,21.227331 L163.875527,23.4644869 L166.009229,23.4644869 L165.549026,21.227331 L170.324649,21.227331 L172.723172,33.3248376 L163.655398,33.3248376 L163.655398,33.3248376 Z" id="path242" fill="#253B7D"></path>
                        <polyline id="path244" fill="#253B7D" points="193.379127 30.7874415 194.301011 33.3196298 185.252812 33.3196298 180.829174 21.2320955 189.912091 21.2320955 190.82548 23.7644315 186.743855 23.7644315 187.576357 26.0276632 190.020309 26.0276632 190.963984 28.5898423 188.517077 28.5898423 189.32668 30.7874415 193.379127 30.7874415"></polyline>
                        <polyline id="path246" fill="#253B7D" points="184.699534 33.3233602 173.455213 33.3233602 172.542932 30.7848561 175.64247 30.7848561 172.207937 21.2292146 177.204428 21.2292146 180.654843 30.7848561 183.771002 30.7848561 184.699534 33.3233602"></polyline>
                        <polyline id="path248" fill="#253B7D" points="161.884391 30.7848561 162.812923 33.3233602 151.568971 33.3233602 150.656321 30.7848561 153.755859 30.7848561 150.321695 21.2292146 155.317817 21.2292146 158.768232 30.7848561 161.884391 30.7848561"></polyline>
                        <path d="M149.771003,29.645798 L151.057429,33.3229539 L142.290301,33.3229539 C140.323173,33.3229539 139.313755,32.8236003 138.488639,31.2915597 C138.382637,31.1295283 138.282545,30.8883095 138.241917,30.7272753 L137.898427,29.7303409 C137.802028,29.5087343 137.755121,29.3108026 137.722619,29.1076632 C137.634346,28.5503225 137.730006,28.0879033 137.993348,27.7055949 C138.337947,27.1624001 138.993902,26.7346254 139.94164,26.4956965 L143.273865,25.6583188 L142.654105,23.8902302 L140.578759,23.8902302 L140.941455,24.907811 L136.158815,24.907811 L134.850227,21.2295101 L143.653182,21.2295101 C145.62031,21.2295101 146.628251,21.7136837 147.453367,23.2450225 C147.544225,23.4223448 147.638039,23.6158074 147.683468,23.8094546 L148.04284,24.8040622 C148.121511,25.0119661 148.171372,25.228402 148.20609,25.4470908 C148.294364,26.0044315 148.213847,26.4639698 147.95272,26.8627509 C147.62068,27.3850039 146.946995,27.8005164 145.998519,28.0380048 L142.665924,28.8763797 L143.287531,30.646352 L145.346257,30.646352 L144.989839,29.645798 L149.771003,29.645798" id="path250" fill="#253B7D"></path>
                        <path d="M66.7309309,24.4081988 C66.5713741,23.9623632 66.2614942,23.7805719 65.5501369,23.764727 C64.8494905,23.7805719 64.6714665,23.9623632 64.8365635,24.4081988 L66.9440426,30.1455579 C67.1021221,30.5890666 67.4112633,30.770858 68.1041534,30.7874415 C68.7859632,30.770858 68.9625098,30.5890666 68.7977822,30.1455579 L68.6164341,29.6424739 L73.6092318,29.6424739 L74.2160646,31.3215505 C74.4317618,31.9180047 74.3929806,32.2399992 74.1990748,32.546592 C73.782085,33.1908025 73.3082161,33.3196298 71.8574313,33.3196298 L66.1935348,33.3196298 C64.74275,33.3196298 64.1761757,33.1908025 63.2901185,32.546592 C62.8731286,32.2399992 62.5998138,31.9180047 62.3811619,31.3215505 L59.4179117,23.2310243 C59.2505987,22.634607 59.2579856,22.3121693 59.4515221,22.005872 C59.8529994,21.361366 60.3420114,21.2325387 61.7924269,21.2325387 L67.4644489,21.2325387 C68.9152337,21.2325387 69.4980592,21.361366 70.3682346,22.005872 C70.7844858,22.3121693 71.0267757,22.634607 71.293073,23.2310243 L71.9021219,24.9285682 L66.9178192,24.9300086 L66.7309309,24.4081988" id="path252" fill="#253B7D"></path>
                        <polyline id="path254" fill="#253B7D" points="116.465002 26.0276632 117.408307 28.5898423 114.96177 28.5898423 115.771373 30.7874415 119.82382 30.7874415 120.745334 33.3196298 111.697135 33.3196298 107.273866 21.2320955 116.356784 21.2320955 117.270173 23.7644315 113.188178 23.7644315 114.02105 26.0276632 116.465002 26.0276632"></polyline>
                        <path d="M81.2605705,32.8790019 L81.166757,32.9140527 C80.9026757,33.0113011 80.6001827,33.150544 80.2751596,33.3196298 L76.7216971,33.3196298 L72.2980591,21.2320955 L81.3809767,21.2320955 L82.2943654,23.7644315 L78.2127404,23.7644315 L79.0448734,26.0276632 L81.4891946,26.0276632 L82.4328696,28.5898423 L79.9859629,28.5898423 L80.7955658,30.7874415 L84.8480127,30.7874415 L85.7698963,33.3196298 L84.2171724,33.3196298 C83.3329619,33.0530001 82.3656489,32.901532 81.3595548,32.8816243 L81.2605705,32.8790019" id="path256" fill="#253B7D"></path>
                        <polyline id="path258" fill="#253B7D" points="111.13056 33.3233602 99.8873475 33.3233602 98.9743281 30.7848561 102.073866 30.7848561 98.6400714 21.2292146 103.636193 21.2292146 107.08587 30.7848561 110.202398 30.7848561 111.13056 33.3233602"></polyline>
                        <path d="M98.0096005,29.645798 L99.2956577,33.3229539 L90.5292683,33.3229539 C89.9120938,33.3229539 89.3894714,33.2734618 88.9370246,33.1590389 C88.5499516,32.6766012 88.2474586,32.2356779 88.0269599,31.8858348 L87.7285297,31.4120029 L87.3281603,31.8038773 C87.2712813,31.8599807 87.2180957,31.9187065 87.1619553,31.9755486 C87.0101548,31.7739974 86.8650024,31.5486603 86.7268676,31.2915597 C86.6216045,31.1295283 86.5211428,30.8883095 86.4805149,30.7272753 L86.1366553,29.7303409 C86.0402564,29.5087343 85.9933497,29.3108026 85.9608473,29.1076632 C85.872574,28.5503225 85.9686036,28.0879033 86.2319461,27.7055949 C86.5765445,27.1624001 87.2325001,26.7346254 88.1802379,26.4956965 L91.5124631,25.6583188 L90.8923338,23.8902302 L88.817357,23.8902302 L89.1800532,24.907811 L84.3977818,24.907811 L83.0884559,21.2295101 L91.8917798,21.2295101 C93.8589081,21.2295101 94.8664796,21.7136837 95.6919644,23.2450225 C95.7831924,23.4223448 95.8766366,23.6158074 95.9216966,23.8094546 L96.2810687,24.8040622 C96.3601084,25.0119661 96.4099699,25.228402 96.4443189,25.4470908 C96.5329616,26.0044315 96.4520752,26.4639698 96.191318,26.8627509 C95.8592774,27.3850039 95.1852238,27.8005164 94.2371168,28.0380048 L90.9041529,28.8763797 L91.5264982,30.646352 L93.5844852,30.646352 L93.2276985,29.645798 L98.0096005,29.645798" id="path260" fill="#253B7D"></path>
                        <path d="M27.2326494,33.3222152 L22.2138868,19.5977465 C21.9971924,18.9920956 21.6383743,18.7830466 20.7657982,18.7830466 L19.484801,18.7830466 L24.7925386,33.3222152 L18.3215139,33.3222152 L13.0146257,18.7830466 L11.7360662,18.7830466 C10.8630468,18.7830466 10.6558815,18.9920956 10.8812186,19.5977465 L15.8796303,33.3222152 L9.43054455,33.3222152 L3.61322613,17.4721695 C3.34386695,16.7198888 3.371276,16.2817355 3.57513934,15.9047457 C3.96698051,15.0903043 4.46906729,14.9026035 5.94818083,14.9026035 L23.706149,14.9026035 C25.1856688,14.9026035 25.8246716,15.0903043 26.8087897,15.9047457 C27.2872015,16.2817355 27.6334619,16.7198888 27.9109134,17.4721695 L33.6770075,33.3222152 L27.2326494,33.3222152" id="path262" fill="#253B7D"></path>
                        <path d="M41.6498605,30.1472938 L39.5807931,24.405872 C39.4216057,23.9600733 39.1113564,23.7784297 38.3996297,23.7618461 C37.6989834,23.7784297 37.52059,23.9600733 37.685687,24.405872 L39.7942742,30.1472938 C39.9527229,30.5913935 40.2622335,30.7730371 40.9562317,30.7900639 C41.6373027,30.7730371 41.8149574,30.5913935 41.6498605,30.1472938 Z M47.0541078,32.5499161 C46.6371179,33.1948283 46.1636184,33.3233602 44.7117256,33.3233602 L39.0441357,33.3233602 C37.5922428,33.3233602 37.0241911,33.1948283 36.13806,32.5499161 C35.7210702,32.2437665 35.4469797,31.9210334 35.2286602,31.3244313 L32.2635264,23.2288822 C32.0961765,22.6308397 32.1033787,22.3088452 32.2974322,22.0022525 C32.6980971,21.356897 33.1881801,21.2288083 34.6392974,21.2288083 L40.3146804,21.2288083 C41.7665733,21.2288083 42.3505068,21.356897 43.2210516,22.0022525 C43.6384107,22.3088452 43.879962,22.6308397 44.1462593,23.2288822 L47.071467,31.3244313 C47.2875334,31.9210334 47.2483829,32.2437665 47.0541078,32.5499161 L47.0541078,32.5499161 Z" id="path264" fill="#253B7D"></path>
                        <path d="M128.214217,30.3394637 C128.207568,30.290267 128.197596,30.226075 128.172481,30.1624369 L127.551982,28.3885865 C127.323358,27.9371369 127.020495,27.7436743 126.247088,27.7436743 L125.472942,27.7436743 L126.557338,30.7900639 L127.346996,30.7900639 C127.798335,30.7900639 128.031022,30.7261303 128.157338,30.5968598 C128.213847,30.5488081 128.22936,30.4358626 128.214217,30.3394637 L128.214217,30.3394637 Z M133.3108,32.837303 C132.917448,33.2244128 132.367864,33.3207748 131.207384,33.3207748 L122.487162,33.3207748 L118.132222,21.2313937 L123.11357,21.2313937 L124.82659,25.9845238 L125.304891,21.2313937 L130.315417,21.2313937 L129.893626,25.3728156 C130.334992,25.4902302 130.702859,25.6893438 131.145334,26.002991 C131.561585,26.3087343 131.858168,26.6803687 132.069433,27.2280326 L133.614401,31.3059641 L133.667217,31.6609041 C133.725574,32.0476816 133.667217,32.3062226 133.54164,32.5473307 C133.461493,32.6600177 133.363616,32.7568228 133.3108,32.837303 L133.3108,32.837303 Z" id="path266" fill="#253B7D"></path>
                        <path d="M55.2775609,30.3394637 C55.2705434,30.290267 55.2609404,30.226075 55.2350863,30.1624369 L54.6153264,28.3885865 C54.3867022,27.9371369 54.0838398,27.7436743 53.3100633,27.7436743 L52.5359174,27.7436743 L53.6203126,30.7900639 L54.4107096,30.7900639 C54.8613098,30.7900639 55.0936274,30.7261303 55.2199432,30.5968598 C55.2771916,30.5488081 55.2919654,30.4358626 55.2775609,30.3394637 L55.2775609,30.3394637 Z M60.7305617,31.6609041 C60.7881795,32.0476816 60.729823,32.3062226 60.6046153,32.5473307 C60.5244676,32.6600177 60.4265913,32.7568228 60.373775,32.837303 C59.9804232,33.2244128 59.4308388,33.3207748 58.2703587,33.3207748 L49.5501373,33.3207748 L45.1951974,21.2313937 L50.176176,21.2313937 L51.8895647,25.9845238 L52.3678657,21.2313937 L57.3783919,21.2313937 L56.9562313,25.3728156 C57.3979672,25.4902302 57.7662035,25.6893438 58.2083088,26.002991 C58.6245599,26.3087343 58.9211435,26.6803687 59.1324085,27.2280326 L60.6777455,31.3059641 L60.7305617,31.6609041 L60.7305617,31.6609041 Z" id="path268" fill="#253B7D"></path>
                        <path d="M168.669987,24.7372847 L161.930929,24.7372847 L165.178943,25.9947916 L167.356229,30.3298238 L170.113384,32.0428062 L168.669987,24.7372847 Z M170.121141,32.0635634 L165.615508,32.0635634 L160.773403,22.5122801 L157.523911,21.227331 L162.737207,21.227331 L163.875527,23.4644869 L166.009229,23.4644869 L168.671095,24.7183743 L168.222341,22.5077741 L165.549026,21.227331 L170.324649,21.227331 L172.723172,33.3248376 L170.121141,32.0635634 L170.121141,32.0635634 Z" id="path270" fill="#253B7D"></path>
                        <polyline id="path272" fill="#253B7D" points="189.32668 30.7874415 193.379127 30.7874415 194.301011 33.3196298 191.424926 32.0631202 187.27054 32.0631202 183.763615 22.481957 180.829174 21.2320955 189.912091 21.2320955 190.82548 23.7644315 187.889561 22.4833974 183.796856 22.4833974 186.743855 23.7644315 187.576357 26.0276632 190.020309 26.0276632 190.963984 28.5898423 188.067585 27.3089929 185.559367 27.3089929 188.517077 28.5898423 189.32668 30.7874415"></polyline>
                        <polyline id="path274" fill="#253B7D" points="184.699534 33.3233602 181.895471 32.0979124 175.523541 32.0979124 172.542932 30.7848561 175.64247 30.7848561 178.647087 32.090821 175.18079 22.5129819 172.207937 21.2292146 177.204428 21.2292146 180.654843 30.7848561 183.771002 30.7848561 184.699534 33.3233602"></polyline>
                        <polyline id="path276" fill="#253B7D" points="161.884391 30.7848561 162.812923 33.3233602 160.00886 32.0979124 153.636931 32.0979124 150.656321 30.7848561 153.755859 30.7848561 156.760476 32.090821 153.294918 22.5129819 150.321695 21.2292146 155.317817 21.2292146 158.768232 30.7848561 161.884391 30.7848561"></polyline>
                        <path d="M144.989839,29.645798 L149.771003,29.645798 L151.057429,33.3229539 L148.412185,32.0756779 L142.853182,32.0756779 C141.869249,32.0756779 141.364355,31.8253732 140.951428,31.0599808 C140.898981,30.9792051 140.848381,30.8582818 140.829544,30.7778016 L140.278852,29.2901562 C140.230098,29.1793529 140.207199,29.0804056 140.190578,28.9788358 C140.146626,28.7002394 140.194272,28.4686604 140.326128,28.27734 C140.498611,28.0055395 140.826959,27.7920215 141.300458,27.6723908 L144.614585,26.8361951 C145.088824,26.7175986 145.425666,26.5101378 145.59224,26.2492699 C145.72188,26.0498978 145.762877,25.8202025 145.718556,25.5413105 C145.701197,25.4315414 145.676081,25.3233235 145.636931,25.2195746 L145.167863,23.942751 C145.145703,23.8456504 145.098796,23.7492884 145.053367,23.6602764 C144.640809,22.8945885 144.136284,22.6529265 143.152351,22.6529265 L137.944964,22.6474602 L140.578759,23.8902302 L140.941455,24.907811 L138.397042,23.9638036 L137.932037,22.6552534 L134.850227,21.2295101 L143.653182,21.2295101 C145.62031,21.2295101 146.628251,21.7136837 147.453367,23.2450225 C147.544225,23.4223448 147.638039,23.6158074 147.683468,23.8094546 L148.04284,24.8040622 C148.121511,25.0119661 148.171372,25.228402 148.20609,25.4470908 C148.294364,26.0044315 148.213847,26.4639698 147.95272,26.8627509 C147.62068,27.3850039 146.946995,27.8005164 145.998519,28.0380048 L142.665924,28.8763797 L143.287531,30.646352 L145.346257,30.646352 L148.397042,32.0631202 L147.926866,30.7062227 L144.989839,29.645798" id="path278" fill="#253B7D"></path>
                        <path d="M68.9373944,23.7743669 C68.6190195,22.8834713 68.2773759,22.5212183 66.8546613,22.4878665 L63.2572468,22.4883097 C62.3940889,22.5096578 62.2337935,22.5787621 62.0265912,22.8661859 L64.7903954,24.054293 C64.7656494,24.1470354 64.7830085,24.263342 64.8365635,24.4081988 L66.9440426,30.1455579 C67.1021221,30.5890666 67.4112633,30.770858 68.1041534,30.7874415 C68.5772836,30.7760657 68.8073852,30.6847268 68.8487517,30.4815874 L71.6118172,31.6542559 C71.7170804,31.4873492 71.6757138,31.2479771 71.6310231,31.1279401 L71.4770065,30.6991682 L68.6164341,29.6424739 L73.6092318,29.6424739 L74.2160646,31.3215505 C74.4317618,31.9180047 74.3929806,32.2399992 74.1990748,32.546592 C74.1621403,32.6031386 74.1252059,32.6563981 74.0867941,32.7047083 L71.6188348,31.6582818 C71.3935347,32.0100454 71.0862401,32.0612734 70.4517065,32.0612734 L66.6799614,32.0612734 C65.954569,32.0612734 65.6712818,31.9966382 65.2280685,31.67505 C65.0197583,31.5216613 64.8827315,31.3603686 64.7737749,31.0623076 L61.9970437,23.563028 C61.9135719,23.2649302 61.8747907,23.0825848 61.9719283,22.9296393 C61.9841166,22.9090299 61.9970437,22.8896763 62.0103401,22.8716522 L59.5674962,21.8379311 C59.9530918,21.3381343 60.4779302,21.2325387 61.7924269,21.2325387 L67.4644489,21.2325387 C68.9152337,21.2325387 69.4980592,21.361366 70.3682346,22.005872 C70.7844858,22.3121693 71.0267757,22.634607 71.293073,23.2310243 L71.9021219,24.9285682 L69.0090472,23.9752164 L68.9373944,23.7743669" id="path280" fill="#253B7D"></path>
                        <polyline id="path282" fill="#253B7D" points="114.02105 26.0276632 116.465002 26.0276632 117.408307 28.5898423 114.512278 27.3089929 112.00406 27.3089929 114.96177 28.5898423 115.771373 30.7874415 119.82382 30.7874415 120.745334 33.3196298 117.869618 32.0631202 113.714494 32.0631202 110.208307 22.481957 107.273866 21.2320955 116.356784 21.2320955 117.270173 23.7644315 114.334254 22.4833974 110.241179 22.4833974 113.188178 23.7644315 114.02105 26.0276632"></polyline>
                        <polyline id="path284" fill="#253B7D" points="79.0448734 26.0276632 81.4891946 26.0276632 82.4328696 28.5898423 79.5361014 27.3089929 77.0286223 27.3089929 79.9859629 28.5898423 80.7955658 30.7874415 84.8480127 30.7874415 85.7698963 33.3196298 82.8941808 32.0631202 78.7390562 32.0631202 75.2325004 22.481957 72.2980591 21.2320955 81.3809767 21.2320955 82.2943654 23.7644315 79.3588161 22.4833974 75.2653721 22.4833974 78.2127404 23.7644315 79.0448734 26.0276632"></polyline>
                        <polyline id="path286" fill="#253B7D" points="111.13056 33.3233602 108.327236 32.0979124 101.955307 32.0979124 98.9743281 30.7848561 102.073866 30.7848561 105.078114 32.090821 101.612555 22.5129819 98.6400714 21.2292146 103.636193 21.2292146 107.08587 30.7848561 110.202398 30.7848561 111.13056 33.3233602"></polyline>
                        <path d="M93.2276985,29.645798 L98.0096005,29.645798 L99.2956577,33.3229539 L96.6500438,32.0756779 L91.0921492,32.0756779 C90.1078463,32.0756779 89.6025832,31.8253732 89.1900255,31.0599808 C89.1375786,30.9792051 89.0873477,30.8582818 89.0674031,30.7778016 L88.5174493,29.2901562 C88.4686958,29.1793529 88.4457965,29.0804056 88.429176,28.9788358 C88.385224,28.7002394 88.4325001,28.4686604 88.564356,28.27734 C88.7368399,28.0055395 89.0648177,27.7920215 89.5390559,27.6723908 L92.8531833,26.8361951 C93.3274215,26.7175986 93.6638942,26.5101378 93.8304686,26.2492699 C93.9601085,26.0498978 94.001475,25.8202025 93.9567844,25.5413105 C93.9394252,25.4315414 93.9146791,25.3233235 93.8751592,25.2195746 L93.4060918,23.942751 C93.3839312,23.8456504 93.3370244,23.7492884 93.2919644,23.6602764 C92.8790374,22.8945885 92.3748823,22.6529265 91.3913181,22.6529265 L86.183562,22.6474602 L88.817357,23.8902302 L89.1800532,24.907811 L86.6356396,23.9638036 L86.1702656,22.6552534 L83.0884559,21.2295101 L91.8917798,21.2295101 C93.8589081,21.2295101 94.8664796,21.7136837 95.6919644,23.2450225 C95.7831924,23.4223448 95.8766366,23.6158074 95.9216966,23.8094546 L96.2810687,24.8040622 C96.3601084,25.0119661 96.4099699,25.228402 96.4443189,25.4470908 C96.5329616,26.0044315 96.4520752,26.4639698 96.191318,26.8627509 C95.8592774,27.3850039 95.1852238,27.8005164 94.2371168,28.0380048 L90.9041529,28.8763797 L91.5264982,30.646352 L93.5844852,30.646352 L96.6356393,32.0631202 L96.1654639,30.7062227 L93.2276985,29.645798" id="path288" fill="#253B7D"></path>
                        <path d="M29.8272938,31.685724 L25.0187621,18.4591316 C24.5295285,17.1054105 23.894847,16.8295471 22.1051149,16.8295471 L15.48879,16.8295471 L19.484801,18.7830466 L24.7925386,33.3222152 L20.9315969,31.6975431 L15.4749396,16.8336099 L8.39682343,16.8336099 C7.6898613,16.8336099 7.45455198,16.8664816 7.19486593,17.1195564 L10.8998335,18.9599257 C10.7636562,19.0877558 10.7678298,19.2923356 10.8812186,19.5977465 L15.8796303,33.3222152 L12.0316894,31.6975431 L7.20236362,18.4591316 C7.06733131,18.0827327 6.86315772,17.5031575 7.1913941,17.1331113 L3.85388725,15.4596487 C4.2301384,15.0178759 4.7895105,14.9026035 5.94818083,14.9026035 L23.706149,14.9026035 C25.1856688,14.9026035 25.8246716,15.0903043 26.8087897,15.9047457 C27.2872015,16.2817355 27.6334619,16.7198888 27.9109134,17.4721695 L33.6770075,33.3222152 L29.8272938,31.685724" id="path290" fill="#253B7D"></path>
                        <path d="M44.4428428,31.0050223 L41.7968595,23.7725202 C41.4784847,22.8808859 41.0581707,22.5137206 39.634348,22.4812552 L35.8805162,22.4845793 C35.4475337,22.4845793 35.0404054,22.5063337 34.8524091,22.8631573 L37.6398883,24.0513752 C37.6147728,24.1437113 37.6317627,24.2607196 37.685687,24.405872 L39.7942742,30.1472938 C39.9527229,30.5913935 40.2622335,30.7730371 40.9562317,30.7900639 C41.4301005,30.7778016 41.6602021,30.6870537 41.70083,30.4823261 L44.4701743,31.6549946 C44.5843017,31.5183372 44.5325935,31.2460934 44.4428428,31.0050223 L44.4428428,31.0050223 Z M47.0541078,32.5499161 C47.017912,32.6072014 46.9802389,32.6597222 46.9421964,32.7094729 L44.4646342,31.6675154 C44.2441356,32.019279 43.9427505,32.0643021 43.2871642,32.0643021 L39.5253914,32.0643021 C38.7996297,32.0643021 38.5152345,31.9999253 38.0723906,31.6776354 C37.863711,31.5242836 37.7266842,31.3628062 37.6177276,31.064893 L34.824856,23.4924833 C34.7410148,23.1940899 34.7452254,23.0168046 34.8420305,22.8635636 L32.4122984,21.8353088 C32.7980786,21.3341084 33.3232494,21.2288083 34.6392974,21.2288083 L36.7349206,21.2288083 L37.9985217,21.2288083 L40.3146804,21.2288083 C41.7665733,21.2288083 42.3505068,21.356897 43.2210516,22.0022525 C43.6384107,22.3088452 43.879962,22.6308397 44.1462593,23.2288822 L47.071467,31.3244313 C47.2875334,31.9210334 47.2483829,32.2437665 47.0541078,32.5499161 L47.0541078,32.5499161 Z" id="path292" fill="#253B7D"></path>
                        <path d="M133.338501,32.7989281 L130.92779,31.7799069 C130.747919,32.0188358 130.416617,32.0712088 129.836747,32.0712088 L124.508584,32.0712088 L121.055953,22.5063337 L118.132222,21.2313937 L123.11357,21.2313937 L124.82659,25.9845238 L124.784854,26.488642 L122.552906,26.488642 L125.472942,27.7436743 L126.557338,30.7900639 L127.346996,30.7900639 C127.798335,30.7900639 128.031022,30.7261303 128.157338,30.5968598 L130.92779,31.775881 C131.199258,31.5050777 131.030468,31.0201654 130.979498,30.8927785 L129.798335,27.7784665 C129.433422,26.814847 128.894549,26.488642 127.338501,26.488642 L127.27128,26.488642 L127.666848,22.504487 L125.304891,21.2313937 L130.315417,21.2313937 L129.893626,25.3728156 C130.334992,25.4902302 130.702859,25.6893438 131.145334,26.002991 C131.561585,26.3087343 131.858168,26.6803687 132.069433,27.2280326 L133.614401,31.3059641 L133.667217,31.6609041 C133.725574,32.0476816 133.667217,32.3062226 133.54164,32.5473307 C133.473681,32.6426954 133.393902,32.7269429 133.338501,32.7989281" id="path294" fill="#253B7D"></path>
                        <path d="M60.7305617,31.6609041 C60.7881795,32.0476816 60.729823,32.3062226 60.6046153,32.5473307 C60.5373946,32.6426954 60.4565082,32.7269429 60.4014759,32.7989281 L57.9907649,31.7799069 C57.8108942,32.0188358 57.4795923,32.0712088 56.8993522,32.0712088 L51.5711898,32.0712088 L48.1185584,22.5063337 L45.1951974,21.2313937 L50.176176,21.2313937 L51.8895647,25.9845238 L51.8474595,26.488642 L49.6162499,26.488642 L52.5359174,27.7436743 L53.6203126,30.7900639 L54.4107096,30.7900639 C54.8613098,30.7900639 55.0936274,30.7261303 55.2199432,30.5968598 L57.9907649,31.775881 C58.2622331,31.5050777 58.0934427,31.0201654 58.0421038,30.8927785 L56.8616791,27.7784665 C56.4963975,26.814847 55.957524,26.488642 54.4007373,26.488642 L54.3342553,26.488642 L54.7298232,22.504487 L52.3678657,21.2313937 L57.3783919,21.2313937 L56.9562313,25.3728156 C57.3979672,25.4902302 57.7662035,25.6893438 58.2083088,26.002991 C58.6245599,26.3087343 58.9211435,26.6803687 59.1324085,27.2280326 L60.6777455,31.3059641 L60.7305617,31.6609041" id="path296" fill="#253B7D"></path>
                        <path d="M140.611261,11.3713386 L140.857984,12.1872204 C140.891225,12.2944041 140.939239,12.4269988 140.988362,12.575032 L140.973219,12.575032 C140.892333,12.4528159 140.787439,12.2891964 140.705075,12.162105 L140.175066,11.3916895 L139.889563,11.3916895 L139.927236,12.1824558 C139.938685,12.2847273 139.959738,12.4528159 139.973404,12.575032 L139.958261,12.575032 C139.911354,12.4476451 139.857799,12.3150505 139.806829,12.1872204 L139.458168,11.3713386 L139.193718,11.3713386 L139.800181,12.75867 L140.212739,12.75867 L140.20646,12.0797412 C140.203136,11.9731114 140.186885,11.8715417 140.169526,11.7285685 L140.175066,11.7285685 C140.255583,11.8507476 140.33056,11.9731114 140.396672,12.0705075 L140.886792,12.75867 L141.284207,12.75867 L140.886792,11.3713386 L140.611261,11.3713386 Z M139.616617,12.75867 L139.533515,12.5295657 L139.089563,12.5295657 L138.667771,11.3713386 L138.392979,11.3713386 L138.814032,12.5295657 L138.374881,12.5295657 L138.458722,12.75867 L139.616617,12.75867 L139.616617,12.75867 Z" id="path298" fill="#171E52"></path>
                    </g>
                </g>
            </g>
        </g>
    </g>
</svg>